<?xml version="1.0" encoding="utf-8"?>
<svg xmlns="http://www.w3.org/2000/svg" xmlns:xlink="http://www.w3.org/1999/xlink" width="700" height="500" viewBox="0 0 2800 2000">
<defs>
  <clipPath id="clip100">
    <rect x="0" y="0" width="2800" height="2000"/>
  </clipPath>
</defs>
<path clip-path="url(#clip100)" d="
M0 2000 L2800 2000 L2800 0 L0 0  Z
  " fill="#ffffff" fill-rule="evenodd" fill-opacity="1"/>
<defs>
  <clipPath id="clip101">
    <rect x="560" y="0" width="1961" height="1961"/>
  </clipPath>
</defs>
<path clip-path="url(#clip100)" d="
M227.45 879.979 L2752.76 879.979 L2752.76 127.792 L227.45 127.792  Z
  " fill="#ffffff" fill-rule="evenodd" fill-opacity="1"/>
<defs>
  <clipPath id="clip102">
    <rect x="227" y="127" width="2526" height="753"/>
  </clipPath>
</defs>
<polyline clip-path="url(#clip102)" style="stroke:#000000; stroke-linecap:butt; stroke-linejoin:round; stroke-width:2; stroke-opacity:0.1; fill:none" points="
  282.932,879.979 282.932,127.792 
  "/>
<polyline clip-path="url(#clip102)" style="stroke:#000000; stroke-linecap:butt; stroke-linejoin:round; stroke-width:2; stroke-opacity:0.1; fill:none" points="
  1082.38,879.979 1082.38,127.792 
  "/>
<polyline clip-path="url(#clip102)" style="stroke:#000000; stroke-linecap:butt; stroke-linejoin:round; stroke-width:2; stroke-opacity:0.1; fill:none" points="
  1881.83,879.979 1881.83,127.792 
  "/>
<polyline clip-path="url(#clip102)" style="stroke:#000000; stroke-linecap:butt; stroke-linejoin:round; stroke-width:2; stroke-opacity:0.1; fill:none" points="
  2681.28,879.979 2681.28,127.792 
  "/>
<polyline clip-path="url(#clip100)" style="stroke:#000000; stroke-linecap:butt; stroke-linejoin:round; stroke-width:4; stroke-opacity:1; fill:none" points="
  227.45,879.979 2752.76,879.979 
  "/>
<polyline clip-path="url(#clip100)" style="stroke:#000000; stroke-linecap:butt; stroke-linejoin:round; stroke-width:4; stroke-opacity:1; fill:none" points="
  282.932,879.979 282.932,861.082 
  "/>
<polyline clip-path="url(#clip100)" style="stroke:#000000; stroke-linecap:butt; stroke-linejoin:round; stroke-width:4; stroke-opacity:1; fill:none" points="
  1082.38,879.979 1082.38,861.082 
  "/>
<polyline clip-path="url(#clip100)" style="stroke:#000000; stroke-linecap:butt; stroke-linejoin:round; stroke-width:4; stroke-opacity:1; fill:none" points="
  1881.83,879.979 1881.83,861.082 
  "/>
<polyline clip-path="url(#clip100)" style="stroke:#000000; stroke-linecap:butt; stroke-linejoin:round; stroke-width:4; stroke-opacity:1; fill:none" points="
  2681.28,879.979 2681.28,861.082 
  "/>
<path clip-path="url(#clip100)" d="M282.932 914.098 Q279.321 914.098 277.492 917.663 Q275.686 921.204 275.686 928.334 Q275.686 935.44 277.492 939.005 Q279.321 942.547 282.932 942.547 Q286.566 942.547 288.371 939.005 Q290.2 935.44 290.2 928.334 Q290.2 921.204 288.371 917.663 Q286.566 914.098 282.932 914.098 M282.932 910.394 Q288.742 910.394 291.797 915.001 Q294.876 919.584 294.876 928.334 Q294.876 937.061 291.797 941.667 Q288.742 946.251 282.932 946.251 Q277.121 946.251 274.043 941.667 Q270.987 937.061 270.987 928.334 Q270.987 919.584 274.043 915.001 Q277.121 910.394 282.932 910.394 Z" fill="#000000" fill-rule="evenodd" fill-opacity="1" /><path clip-path="url(#clip100)" d="M1057.08 911.019 L1075.44 911.019 L1075.44 914.954 L1061.36 914.954 L1061.36 923.427 Q1062.38 923.079 1063.4 922.917 Q1064.42 922.732 1065.44 922.732 Q1071.23 922.732 1074.61 925.903 Q1077.98 929.075 1077.98 934.491 Q1077.98 940.07 1074.51 943.172 Q1071.04 946.251 1064.72 946.251 Q1062.54 946.251 1060.28 945.88 Q1058.03 945.51 1055.62 944.769 L1055.62 940.07 Q1057.71 941.204 1059.93 941.76 Q1062.15 942.315 1064.63 942.315 Q1068.63 942.315 1070.97 940.209 Q1073.31 938.102 1073.31 934.491 Q1073.31 930.88 1070.97 928.774 Q1068.63 926.667 1064.63 926.667 Q1062.75 926.667 1060.88 927.084 Q1059.03 927.501 1057.08 928.38 L1057.08 911.019 Z" fill="#000000" fill-rule="evenodd" fill-opacity="1" /><path clip-path="url(#clip100)" d="M1097.2 914.098 Q1093.59 914.098 1091.76 917.663 Q1089.95 921.204 1089.95 928.334 Q1089.95 935.44 1091.76 939.005 Q1093.59 942.547 1097.2 942.547 Q1100.83 942.547 1102.64 939.005 Q1104.47 935.44 1104.47 928.334 Q1104.47 921.204 1102.64 917.663 Q1100.83 914.098 1097.2 914.098 M1097.2 910.394 Q1103.01 910.394 1106.06 915.001 Q1109.14 919.584 1109.14 928.334 Q1109.14 937.061 1106.06 941.667 Q1103.01 946.251 1097.2 946.251 Q1091.39 946.251 1088.31 941.667 Q1085.25 937.061 1085.25 928.334 Q1085.25 919.584 1088.31 915.001 Q1091.39 910.394 1097.2 910.394 Z" fill="#000000" fill-rule="evenodd" fill-opacity="1" /><path clip-path="url(#clip100)" d="M1841.44 941.644 L1849.08 941.644 L1849.08 915.279 L1840.77 916.945 L1840.77 912.686 L1849.03 911.019 L1853.71 911.019 L1853.71 941.644 L1861.35 941.644 L1861.35 945.579 L1841.44 945.579 L1841.44 941.644 Z" fill="#000000" fill-rule="evenodd" fill-opacity="1" /><path clip-path="url(#clip100)" d="M1880.79 914.098 Q1877.18 914.098 1875.35 917.663 Q1873.55 921.204 1873.55 928.334 Q1873.55 935.44 1875.35 939.005 Q1877.18 942.547 1880.79 942.547 Q1884.43 942.547 1886.23 939.005 Q1888.06 935.44 1888.06 928.334 Q1888.06 921.204 1886.23 917.663 Q1884.43 914.098 1880.79 914.098 M1880.79 910.394 Q1886.6 910.394 1889.66 915.001 Q1892.74 919.584 1892.74 928.334 Q1892.74 937.061 1889.66 941.667 Q1886.6 946.251 1880.79 946.251 Q1874.98 946.251 1871.9 941.667 Q1868.85 937.061 1868.85 928.334 Q1868.85 919.584 1871.9 915.001 Q1874.98 910.394 1880.79 910.394 Z" fill="#000000" fill-rule="evenodd" fill-opacity="1" /><path clip-path="url(#clip100)" d="M1910.95 914.098 Q1907.34 914.098 1905.51 917.663 Q1903.71 921.204 1903.71 928.334 Q1903.71 935.44 1905.51 939.005 Q1907.34 942.547 1910.95 942.547 Q1914.59 942.547 1916.39 939.005 Q1918.22 935.44 1918.22 928.334 Q1918.22 921.204 1916.39 917.663 Q1914.59 914.098 1910.95 914.098 M1910.95 910.394 Q1916.76 910.394 1919.82 915.001 Q1922.9 919.584 1922.9 928.334 Q1922.9 937.061 1919.82 941.667 Q1916.76 946.251 1910.95 946.251 Q1905.14 946.251 1902.07 941.667 Q1899.01 937.061 1899.01 928.334 Q1899.01 919.584 1902.07 915.001 Q1905.14 910.394 1910.95 910.394 Z" fill="#000000" fill-rule="evenodd" fill-opacity="1" /><path clip-path="url(#clip100)" d="M2640.89 941.644 L2648.53 941.644 L2648.53 915.279 L2640.22 916.945 L2640.22 912.686 L2648.48 911.019 L2653.16 911.019 L2653.16 941.644 L2660.8 941.644 L2660.8 945.579 L2640.89 945.579 L2640.89 941.644 Z" fill="#000000" fill-rule="evenodd" fill-opacity="1" /><path clip-path="url(#clip100)" d="M2670.29 911.019 L2688.65 911.019 L2688.65 914.954 L2674.57 914.954 L2674.57 923.427 Q2675.59 923.079 2676.61 922.917 Q2677.63 922.732 2678.65 922.732 Q2684.43 922.732 2687.81 925.903 Q2691.19 929.075 2691.19 934.491 Q2691.19 940.07 2687.72 943.172 Q2684.25 946.251 2677.93 946.251 Q2675.75 946.251 2673.48 945.88 Q2671.24 945.51 2668.83 944.769 L2668.83 940.07 Q2670.91 941.204 2673.14 941.76 Q2675.36 942.315 2677.84 942.315 Q2681.84 942.315 2684.18 940.209 Q2686.52 938.102 2686.52 934.491 Q2686.52 930.88 2684.18 928.774 Q2681.84 926.667 2677.84 926.667 Q2675.96 926.667 2674.09 927.084 Q2672.23 927.501 2670.29 928.38 L2670.29 911.019 Z" fill="#000000" fill-rule="evenodd" fill-opacity="1" /><path clip-path="url(#clip100)" d="M2710.41 914.098 Q2706.79 914.098 2704.97 917.663 Q2703.16 921.204 2703.16 928.334 Q2703.16 935.44 2704.97 939.005 Q2706.79 942.547 2710.41 942.547 Q2714.04 942.547 2715.84 939.005 Q2717.67 935.44 2717.67 928.334 Q2717.67 921.204 2715.84 917.663 Q2714.04 914.098 2710.41 914.098 M2710.41 910.394 Q2716.22 910.394 2719.27 915.001 Q2722.35 919.584 2722.35 928.334 Q2722.35 937.061 2719.27 941.667 Q2716.22 946.251 2710.41 946.251 Q2704.6 946.251 2701.52 941.667 Q2698.46 937.061 2698.46 928.334 Q2698.46 919.584 2701.52 915.001 Q2704.6 910.394 2710.41 910.394 Z" fill="#000000" fill-rule="evenodd" fill-opacity="1" /><polyline clip-path="url(#clip102)" style="stroke:#000000; stroke-linecap:butt; stroke-linejoin:round; stroke-width:2; stroke-opacity:0.1; fill:none" points="
  227.45,855.777 2752.76,855.777 
  "/>
<polyline clip-path="url(#clip102)" style="stroke:#000000; stroke-linecap:butt; stroke-linejoin:round; stroke-width:2; stroke-opacity:0.1; fill:none" points="
  227.45,624.172 2752.76,624.172 
  "/>
<polyline clip-path="url(#clip102)" style="stroke:#000000; stroke-linecap:butt; stroke-linejoin:round; stroke-width:2; stroke-opacity:0.1; fill:none" points="
  227.45,392.566 2752.76,392.566 
  "/>
<polyline clip-path="url(#clip102)" style="stroke:#000000; stroke-linecap:butt; stroke-linejoin:round; stroke-width:2; stroke-opacity:0.1; fill:none" points="
  227.45,160.961 2752.76,160.961 
  "/>
<polyline clip-path="url(#clip100)" style="stroke:#000000; stroke-linecap:butt; stroke-linejoin:round; stroke-width:4; stroke-opacity:1; fill:none" points="
  227.45,879.979 227.45,127.792 
  "/>
<polyline clip-path="url(#clip100)" style="stroke:#000000; stroke-linecap:butt; stroke-linejoin:round; stroke-width:4; stroke-opacity:1; fill:none" points="
  227.45,855.777 246.347,855.777 
  "/>
<polyline clip-path="url(#clip100)" style="stroke:#000000; stroke-linecap:butt; stroke-linejoin:round; stroke-width:4; stroke-opacity:1; fill:none" points="
  227.45,624.172 246.347,624.172 
  "/>
<polyline clip-path="url(#clip100)" style="stroke:#000000; stroke-linecap:butt; stroke-linejoin:round; stroke-width:4; stroke-opacity:1; fill:none" points="
  227.45,392.566 246.347,392.566 
  "/>
<polyline clip-path="url(#clip100)" style="stroke:#000000; stroke-linecap:butt; stroke-linejoin:round; stroke-width:4; stroke-opacity:1; fill:none" points="
  227.45,160.961 246.347,160.961 
  "/>
<path clip-path="url(#clip100)" d="M128.274 841.575 Q124.663 841.575 122.834 845.14 Q121.029 848.682 121.029 855.811 Q121.029 862.918 122.834 866.483 Q124.663 870.024 128.274 870.024 Q131.908 870.024 133.714 866.483 Q135.543 862.918 135.543 855.811 Q135.543 848.682 133.714 845.14 Q131.908 841.575 128.274 841.575 M128.274 837.872 Q134.084 837.872 137.14 842.478 Q140.218 847.061 140.218 855.811 Q140.218 864.538 137.14 869.145 Q134.084 873.728 128.274 873.728 Q122.464 873.728 119.385 869.145 Q116.33 864.538 116.33 855.811 Q116.33 847.061 119.385 842.478 Q122.464 837.872 128.274 837.872 Z" fill="#000000" fill-rule="evenodd" fill-opacity="1" /><path clip-path="url(#clip100)" d="M148.436 867.177 L153.32 867.177 L153.32 873.057 L148.436 873.057 L148.436 867.177 Z" fill="#000000" fill-rule="evenodd" fill-opacity="1" /><path clip-path="url(#clip100)" d="M173.505 841.575 Q169.894 841.575 168.066 845.14 Q166.26 848.682 166.26 855.811 Q166.26 862.918 168.066 866.483 Q169.894 870.024 173.505 870.024 Q177.14 870.024 178.945 866.483 Q180.774 862.918 180.774 855.811 Q180.774 848.682 178.945 845.14 Q177.14 841.575 173.505 841.575 M173.505 837.872 Q179.316 837.872 182.371 842.478 Q185.45 847.061 185.45 855.811 Q185.45 864.538 182.371 869.145 Q179.316 873.728 173.505 873.728 Q167.695 873.728 164.617 869.145 Q161.561 864.538 161.561 855.811 Q161.561 847.061 164.617 842.478 Q167.695 837.872 173.505 837.872 Z" fill="#000000" fill-rule="evenodd" fill-opacity="1" /><path clip-path="url(#clip100)" d="M129.269 609.97 Q125.658 609.97 123.83 613.535 Q122.024 617.077 122.024 624.206 Q122.024 631.313 123.83 634.877 Q125.658 638.419 129.269 638.419 Q132.904 638.419 134.709 634.877 Q136.538 631.313 136.538 624.206 Q136.538 617.077 134.709 613.535 Q132.904 609.97 129.269 609.97 M129.269 606.267 Q135.08 606.267 138.135 610.873 Q141.214 615.456 141.214 624.206 Q141.214 632.933 138.135 637.539 Q135.08 642.123 129.269 642.123 Q123.459 642.123 120.381 637.539 Q117.325 632.933 117.325 624.206 Q117.325 615.456 120.381 610.873 Q123.459 606.267 129.269 606.267 Z" fill="#000000" fill-rule="evenodd" fill-opacity="1" /><path clip-path="url(#clip100)" d="M149.431 635.572 L154.316 635.572 L154.316 641.452 L149.431 641.452 L149.431 635.572 Z" fill="#000000" fill-rule="evenodd" fill-opacity="1" /><path clip-path="url(#clip100)" d="M164.547 606.892 L182.903 606.892 L182.903 610.827 L168.829 610.827 L168.829 619.299 Q169.848 618.952 170.866 618.79 Q171.885 618.604 172.903 618.604 Q178.691 618.604 182.07 621.776 Q185.45 624.947 185.45 630.364 Q185.45 635.942 181.978 639.044 Q178.505 642.123 172.186 642.123 Q170.01 642.123 167.741 641.752 Q165.496 641.382 163.089 640.641 L163.089 635.942 Q165.172 637.077 167.394 637.632 Q169.616 638.188 172.093 638.188 Q176.098 638.188 178.436 636.081 Q180.774 633.975 180.774 630.364 Q180.774 626.753 178.436 624.646 Q176.098 622.54 172.093 622.54 Q170.218 622.54 168.343 622.956 Q166.491 623.373 164.547 624.253 L164.547 606.892 Z" fill="#000000" fill-rule="evenodd" fill-opacity="1" /><path clip-path="url(#clip100)" d="M119.084 405.911 L126.723 405.911 L126.723 379.546 L118.413 381.212 L118.413 376.953 L126.677 375.286 L131.353 375.286 L131.353 405.911 L138.992 405.911 L138.992 409.846 L119.084 409.846 L119.084 405.911 Z" fill="#000000" fill-rule="evenodd" fill-opacity="1" /><path clip-path="url(#clip100)" d="M148.436 403.967 L153.32 403.967 L153.32 409.846 L148.436 409.846 L148.436 403.967 Z" fill="#000000" fill-rule="evenodd" fill-opacity="1" /><path clip-path="url(#clip100)" d="M173.505 378.365 Q169.894 378.365 168.066 381.93 Q166.26 385.471 166.26 392.601 Q166.26 399.707 168.066 403.272 Q169.894 406.814 173.505 406.814 Q177.14 406.814 178.945 403.272 Q180.774 399.707 180.774 392.601 Q180.774 385.471 178.945 381.93 Q177.14 378.365 173.505 378.365 M173.505 374.661 Q179.316 374.661 182.371 379.268 Q185.45 383.851 185.45 392.601 Q185.45 401.328 182.371 405.934 Q179.316 410.518 173.505 410.518 Q167.695 410.518 164.617 405.934 Q161.561 401.328 161.561 392.601 Q161.561 383.851 164.617 379.268 Q167.695 374.661 173.505 374.661 Z" fill="#000000" fill-rule="evenodd" fill-opacity="1" /><path clip-path="url(#clip100)" d="M120.08 174.306 L127.719 174.306 L127.719 147.94 L119.408 149.607 L119.408 145.348 L127.672 143.681 L132.348 143.681 L132.348 174.306 L139.987 174.306 L139.987 178.241 L120.08 178.241 L120.08 174.306 Z" fill="#000000" fill-rule="evenodd" fill-opacity="1" /><path clip-path="url(#clip100)" d="M149.431 172.362 L154.316 172.362 L154.316 178.241 L149.431 178.241 L149.431 172.362 Z" fill="#000000" fill-rule="evenodd" fill-opacity="1" /><path clip-path="url(#clip100)" d="M164.547 143.681 L182.903 143.681 L182.903 147.616 L168.829 147.616 L168.829 156.088 Q169.848 155.741 170.866 155.579 Q171.885 155.394 172.903 155.394 Q178.691 155.394 182.07 158.565 Q185.45 161.737 185.45 167.153 Q185.45 172.732 181.978 175.834 Q178.505 178.912 172.186 178.912 Q170.01 178.912 167.741 178.542 Q165.496 178.172 163.089 177.431 L163.089 172.732 Q165.172 173.866 167.394 174.422 Q169.616 174.977 172.093 174.977 Q176.098 174.977 178.436 172.871 Q180.774 170.764 180.774 167.153 Q180.774 163.542 178.436 161.436 Q176.098 159.329 172.093 159.329 Q170.218 159.329 168.343 159.746 Q166.491 160.162 164.547 161.042 L164.547 143.681 Z" fill="#000000" fill-rule="evenodd" fill-opacity="1" /><path clip-path="url(#clip100)" d="M1065.97 3.62636 L1054.87 33.7246 L1077.11 33.7246 L1065.97 3.62636 M1061.35 -4.43494 L1070.63 -4.43494 L1093.68 56.0451 L1085.17 56.0451 L1079.66 40.5301 L1052.4 40.5301 L1046.89 56.0451 L1038.26 56.0451 L1061.35 -4.43494 Z" fill="#000000" fill-rule="evenodd" fill-opacity="1" /><path clip-path="url(#clip100)" d="M1135.77 49.2395 L1135.77 73.3019 L1128.27 73.3019 L1128.27 10.6749 L1135.77 10.6749 L1135.77 17.5615 Q1138.12 13.5106 1141.68 11.5661 Q1145.29 9.58119 1150.27 9.58119 Q1158.53 9.58119 1163.68 16.1437 Q1168.86 22.7061 1168.86 33.4005 Q1168.86 44.0949 1163.68 50.6574 Q1158.53 57.2198 1150.27 57.2198 Q1145.29 57.2198 1141.68 55.2754 Q1138.12 53.2904 1135.77 49.2395 M1161.13 33.4005 Q1161.13 25.1772 1157.72 20.5186 Q1154.36 15.8196 1148.45 15.8196 Q1142.53 15.8196 1139.13 20.5186 Q1135.77 25.1772 1135.77 33.4005 Q1135.77 41.6238 1139.13 46.3229 Q1142.53 50.9814 1148.45 50.9814 Q1154.36 50.9814 1157.72 46.3229 Q1161.13 41.6238 1161.13 33.4005 Z" fill="#000000" fill-rule="evenodd" fill-opacity="1" /><path clip-path="url(#clip100)" d="M1201.84 33.2385 Q1192.8 33.2385 1189.32 35.3044 Q1185.84 37.3704 1185.84 42.353 Q1185.84 46.3229 1188.43 48.6724 Q1191.06 50.9814 1195.56 50.9814 Q1201.76 50.9814 1205.48 46.6065 Q1209.25 42.191 1209.25 34.8993 L1209.25 33.2385 L1201.84 33.2385 M1216.7 30.1598 L1216.7 56.0451 L1209.25 56.0451 L1209.25 49.1585 Q1206.7 53.2904 1202.89 55.2754 Q1199.08 57.2198 1193.57 57.2198 Q1186.61 57.2198 1182.47 53.331 Q1178.38 49.4016 1178.38 42.8391 Q1178.38 35.1829 1183.49 31.294 Q1188.63 27.4052 1198.8 27.4052 L1209.25 27.4052 L1209.25 26.676 Q1209.25 21.5314 1205.85 18.7362 Q1202.49 15.9006 1196.37 15.9006 Q1192.48 15.9006 1188.79 16.8323 Q1185.11 17.764 1181.7 19.6274 L1181.7 12.7409 Q1185.8 11.161 1189.64 10.3914 Q1193.49 9.58119 1197.14 9.58119 Q1206.98 9.58119 1211.84 14.6853 Q1216.7 19.7895 1216.7 30.1598 Z" fill="#000000" fill-rule="evenodd" fill-opacity="1" /><path clip-path="url(#clip100)" d="M1258.35 17.6425 Q1257.09 16.9133 1255.59 16.5893 Q1254.13 16.2247 1252.35 16.2247 Q1246.03 16.2247 1242.63 20.3566 Q1239.27 24.448 1239.27 32.1447 L1239.27 56.0451 L1231.77 56.0451 L1231.77 10.6749 L1239.27 10.6749 L1239.27 17.7235 Q1241.62 13.5916 1245.38 11.6066 Q1249.15 9.58119 1254.54 9.58119 Q1255.31 9.58119 1256.24 9.70272 Q1257.17 9.78374 1258.31 9.98628 L1258.35 17.6425 Z" fill="#000000" fill-rule="evenodd" fill-opacity="1" /><path clip-path="url(#clip100)" d="M1273.54 -2.20694 L1273.54 10.6749 L1288.89 10.6749 L1288.89 16.4677 L1273.54 16.4677 L1273.54 41.0972 Q1273.54 46.647 1275.04 48.2268 Q1276.58 49.8067 1281.23 49.8067 L1288.89 49.8067 L1288.89 56.0451 L1281.23 56.0451 Q1272.61 56.0451 1269.32 52.8448 Q1266.04 49.6041 1266.04 41.0972 L1266.04 16.4677 L1260.57 16.4677 L1260.57 10.6749 L1266.04 10.6749 L1266.04 -2.20694 L1273.54 -2.20694 Z" fill="#000000" fill-rule="evenodd" fill-opacity="1" /><path clip-path="url(#clip100)" d="M1298.69 10.6749 L1306.15 10.6749 L1306.15 56.0451 L1298.69 56.0451 L1298.69 10.6749 M1298.69 -6.98701 L1306.15 -6.98701 L1306.15 2.4516 L1298.69 2.4516 L1298.69 -6.98701 Z" fill="#000000" fill-rule="evenodd" fill-opacity="1" /><path clip-path="url(#clip100)" d="M1354.39 12.4168 L1354.39 19.3844 Q1351.23 17.6425 1348.03 16.7918 Q1344.87 15.9006 1341.63 15.9006 Q1334.38 15.9006 1330.37 20.5186 Q1326.36 25.0962 1326.36 33.4005 Q1326.36 41.7049 1330.37 46.3229 Q1334.38 50.9004 1341.63 50.9004 Q1344.87 50.9004 1348.03 50.0497 Q1351.23 49.1585 1354.39 47.4166 L1354.39 54.3032 Q1351.27 55.7615 1347.91 56.4907 Q1344.59 57.2198 1340.82 57.2198 Q1330.57 57.2198 1324.54 50.7789 Q1318.5 44.3379 1318.5 33.4005 Q1318.5 22.301 1324.58 15.9411 Q1330.7 9.58119 1341.31 9.58119 Q1344.75 9.58119 1348.03 10.3104 Q1351.32 10.999 1354.39 12.4168 Z" fill="#000000" fill-rule="evenodd" fill-opacity="1" /><path clip-path="url(#clip100)" d="M1366.59 38.1401 L1366.59 10.6749 L1374.04 10.6749 L1374.04 37.8565 Q1374.04 44.2974 1376.55 47.5382 Q1379.06 50.7384 1384.09 50.7384 Q1390.12 50.7384 1393.61 46.89 Q1397.13 43.0417 1397.13 36.3982 L1397.13 10.6749 L1404.58 10.6749 L1404.58 56.0451 L1397.13 56.0451 L1397.13 49.0775 Q1394.42 53.2094 1390.81 55.2349 Q1387.25 57.2198 1382.51 57.2198 Q1374.69 57.2198 1370.64 52.3587 Q1366.59 47.4977 1366.59 38.1401 M1385.34 9.58119 L1385.34 9.58119 Z" fill="#000000" fill-rule="evenodd" fill-opacity="1" /><path clip-path="url(#clip100)" d="M1419.94 -6.98701 L1427.39 -6.98701 L1427.39 56.0451 L1419.94 56.0451 L1419.94 -6.98701 Z" fill="#000000" fill-rule="evenodd" fill-opacity="1" /><path clip-path="url(#clip100)" d="M1463.61 33.2385 Q1454.57 33.2385 1451.09 35.3044 Q1447.61 37.3704 1447.61 42.353 Q1447.61 46.3229 1450.2 48.6724 Q1452.83 50.9814 1457.33 50.9814 Q1463.53 50.9814 1467.25 46.6065 Q1471.02 42.191 1471.02 34.8993 L1471.02 33.2385 L1463.61 33.2385 M1478.47 30.1598 L1478.47 56.0451 L1471.02 56.0451 L1471.02 49.1585 Q1468.47 53.2904 1464.66 55.2754 Q1460.85 57.2198 1455.34 57.2198 Q1448.37 57.2198 1444.24 53.331 Q1440.15 49.4016 1440.15 42.8391 Q1440.15 35.1829 1445.26 31.294 Q1450.4 27.4052 1460.57 27.4052 L1471.02 27.4052 L1471.02 26.676 Q1471.02 21.5314 1467.62 18.7362 Q1464.25 15.9006 1458.14 15.9006 Q1454.25 15.9006 1450.56 16.8323 Q1446.88 17.764 1443.47 19.6274 L1443.47 12.7409 Q1447.56 11.161 1451.41 10.3914 Q1455.26 9.58119 1458.91 9.58119 Q1468.75 9.58119 1473.61 14.6853 Q1478.47 19.7895 1478.47 30.1598 Z" fill="#000000" fill-rule="evenodd" fill-opacity="1" /><path clip-path="url(#clip100)" d="M1520.12 17.6425 Q1518.86 16.9133 1517.36 16.5893 Q1515.9 16.2247 1514.12 16.2247 Q1507.8 16.2247 1504.4 20.3566 Q1501.04 24.448 1501.04 32.1447 L1501.04 56.0451 L1493.54 56.0451 L1493.54 10.6749 L1501.04 10.6749 L1501.04 17.7235 Q1503.39 13.5916 1507.15 11.6066 Q1510.92 9.58119 1516.31 9.58119 Q1517.08 9.58119 1518.01 9.70272 Q1518.94 9.78374 1520.08 9.98628 L1520.12 17.6425 Z" fill="#000000" fill-rule="evenodd" fill-opacity="1" /><path clip-path="url(#clip100)" d="M1561.52 49.2395 L1561.52 73.3019 L1554.02 73.3019 L1554.02 10.6749 L1561.52 10.6749 L1561.52 17.5615 Q1563.87 13.5106 1567.43 11.5661 Q1571.04 9.58119 1576.02 9.58119 Q1584.28 9.58119 1589.43 16.1437 Q1594.61 22.7061 1594.61 33.4005 Q1594.61 44.0949 1589.43 50.6574 Q1584.28 57.2198 1576.02 57.2198 Q1571.04 57.2198 1567.43 55.2754 Q1563.87 53.2904 1561.52 49.2395 M1586.88 33.4005 Q1586.88 25.1772 1583.47 20.5186 Q1580.11 15.8196 1574.2 15.8196 Q1568.28 15.8196 1564.88 20.5186 Q1561.52 25.1772 1561.52 33.4005 Q1561.52 41.6238 1564.88 46.3229 Q1568.28 50.9814 1574.2 50.9814 Q1580.11 50.9814 1583.47 46.3229 Q1586.88 41.6238 1586.88 33.4005 Z" fill="#000000" fill-rule="evenodd" fill-opacity="1" /><path clip-path="url(#clip100)" d="M1627.59 33.2385 Q1618.55 33.2385 1615.07 35.3044 Q1611.59 37.3704 1611.59 42.353 Q1611.59 46.3229 1614.18 48.6724 Q1616.81 50.9814 1621.31 50.9814 Q1627.51 50.9814 1631.23 46.6065 Q1635 42.191 1635 34.8993 L1635 33.2385 L1627.59 33.2385 M1642.45 30.1598 L1642.45 56.0451 L1635 56.0451 L1635 49.1585 Q1632.45 53.2904 1628.64 55.2754 Q1624.83 57.2198 1619.32 57.2198 Q1612.36 57.2198 1608.22 53.331 Q1604.13 49.4016 1604.13 42.8391 Q1604.13 35.1829 1609.24 31.294 Q1614.38 27.4052 1624.55 27.4052 L1635 27.4052 L1635 26.676 Q1635 21.5314 1631.6 18.7362 Q1628.24 15.9006 1622.12 15.9006 Q1618.23 15.9006 1614.54 16.8323 Q1610.86 17.764 1607.45 19.6274 L1607.45 12.7409 Q1611.55 11.161 1615.39 10.3914 Q1619.24 9.58119 1622.89 9.58119 Q1632.73 9.58119 1637.59 14.6853 Q1642.45 19.7895 1642.45 30.1598 Z" fill="#000000" fill-rule="evenodd" fill-opacity="1" /><path clip-path="url(#clip100)" d="M1665.18 -2.20694 L1665.18 10.6749 L1680.53 10.6749 L1680.53 16.4677 L1665.18 16.4677 L1665.18 41.0972 Q1665.18 46.647 1666.68 48.2268 Q1668.22 49.8067 1672.88 49.8067 L1680.53 49.8067 L1680.53 56.0451 L1672.88 56.0451 Q1664.25 56.0451 1660.97 52.8448 Q1657.69 49.6041 1657.69 41.0972 L1657.69 16.4677 L1652.22 16.4677 L1652.22 10.6749 L1657.69 10.6749 L1657.69 -2.20694 L1665.18 -2.20694 Z" fill="#000000" fill-rule="evenodd" fill-opacity="1" /><path clip-path="url(#clip100)" d="M1728.05 28.6609 L1728.05 56.0451 L1720.6 56.0451 L1720.6 28.904 Q1720.6 22.4631 1718.08 19.2629 Q1715.57 16.0626 1710.55 16.0626 Q1704.51 16.0626 1701.03 19.911 Q1697.55 23.7594 1697.55 30.4028 L1697.55 56.0451 L1690.05 56.0451 L1690.05 -6.98701 L1697.55 -6.98701 L1697.55 17.7235 Q1700.22 13.6321 1703.82 11.6066 Q1707.47 9.58119 1712.21 9.58119 Q1720.03 9.58119 1724.04 14.4423 Q1728.05 19.2629 1728.05 28.6609 Z" fill="#000000" fill-rule="evenodd" fill-opacity="1" /><path clip-path="url(#clip100)" d="M1786.87 15.9006 Q1780.87 15.9006 1777.39 20.5997 Q1773.91 25.2582 1773.91 33.4005 Q1773.91 41.5428 1777.35 46.2419 Q1780.83 50.9004 1786.87 50.9004 Q1792.82 50.9004 1796.31 46.2014 Q1799.79 41.5023 1799.79 33.4005 Q1799.79 25.3392 1796.31 20.6402 Q1792.82 15.9006 1786.87 15.9006 M1786.87 9.58119 Q1796.59 9.58119 1802.14 15.9006 Q1807.69 22.22 1807.69 33.4005 Q1807.69 44.5405 1802.14 50.9004 Q1796.59 57.2198 1786.87 57.2198 Q1777.11 57.2198 1771.56 50.9004 Q1766.05 44.5405 1766.05 33.4005 Q1766.05 22.22 1771.56 15.9006 Q1777.11 9.58119 1786.87 9.58119 Z" fill="#000000" fill-rule="evenodd" fill-opacity="1" /><path clip-path="url(#clip100)" d="M1843.01 -6.98701 L1843.01 -0.789124 L1835.88 -0.789124 Q1831.87 -0.789124 1830.29 0.831238 Q1828.75 2.4516 1828.75 6.66454 L1828.75 10.6749 L1841.03 10.6749 L1841.03 16.4677 L1828.75 16.4677 L1828.75 56.0451 L1821.26 56.0451 L1821.26 16.4677 L1814.13 16.4677 L1814.13 10.6749 L1821.26 10.6749 L1821.26 7.51523 Q1821.26 -0.0599609 1824.78 -3.50323 Q1828.31 -6.98701 1835.97 -6.98701 L1843.01 -6.98701 Z" fill="#000000" fill-rule="evenodd" fill-opacity="1" /><path clip-path="url(#clip100)" d="M1906.54 22.1469 Q1906.54 22.7208 1906.17 24.0734 L1898.14 56.127 Q1896.38 63.2592 1890.64 68.2599 Q1884.94 73.2606 1878.46 73.2606 Q1874.57 73.2606 1872.07 71.1701 Q1869.57 69.1206 1869.57 65.9645 Q1869.57 63.1772 1871.04 61.8246 Q1872.52 60.5129 1874.28 60.5129 Q1874.86 60.5129 1875.47 60.6769 Q1876.09 60.8408 1876.74 61.5376 Q1877.4 62.2344 1877.4 63.4231 Q1877.4 65.3496 1875.72 66.8662 Q1874.9 67.563 1874.12 67.727 Q1873.38 67.891 1872.11 67.891 Q1872.6 69.0387 1873.5 69.8175 Q1874.4 70.5963 1875.43 70.8832 Q1876.45 71.2111 1877.11 71.2931 Q1877.81 71.416 1878.46 71.416 Q1883.71 71.416 1887.73 66.1284 Q1888.92 64.5298 1889.78 62.9313 Q1890.68 61.3737 1891.33 59.4472 Q1891.99 57.5617 1892.28 56.5369 Q1892.6 55.5122 1893.18 53.1758 Q1889.37 56.9878 1884.69 56.9878 Q1882.73 56.9878 1880.96 56.455 Q1879.24 55.9221 1877.72 54.8154 Q1876.21 53.6677 1875.31 51.6592 Q1874.45 49.6507 1874.45 46.9864 Q1874.45 44.1582 1875.55 40.3052 Q1876.66 36.4522 1879.32 29.361 Q1880.76 25.3851 1880.76 23.4586 Q1880.76 22.5158 1880.55 21.942 Q1880.35 21.3271 1879.94 21.1222 Q1879.53 20.8763 1879.28 20.8353 Q1879.08 20.7943 1878.67 20.7943 Q1876.25 20.7943 1873.99 23.2536 Q1871.74 25.713 1870.18 31.2056 Q1869.85 32.2303 1869.65 32.4762 Q1869.45 32.7222 1868.83 32.7222 Q1867.81 32.6812 1867.81 31.8614 Q1867.81 31.5335 1868.17 30.2628 Q1868.54 28.9511 1869.4 27.0247 Q1870.31 25.0572 1871.54 23.2946 Q1872.77 21.4911 1874.69 20.2204 Q1876.66 18.9498 1878.91 18.9498 Q1881.99 18.9498 1883.87 20.9582 Q1885.8 22.9257 1885.8 25.836 Q1885.8 27.0247 1885.47 28.0904 Q1885.18 29.1151 1884.12 31.8614 Q1879.82 42.9285 1879.82 48.3391 Q1879.82 49.6507 1880.02 50.7574 Q1880.27 51.8232 1880.8 52.8889 Q1881.33 53.9136 1882.4 54.5285 Q1883.5 55.1023 1885.02 55.1023 Q1886.95 55.1023 1888.75 54.2005 Q1890.6 53.2578 1891.74 51.9871 Q1892.93 50.7165 1893.63 49.6507 Q1894.37 48.544 1894.53 47.9702 L1898.3 32.8861 L1899.98 26.1639 Q1900.76 22.5158 1901.13 21.6141 Q1901.62 20.7533 1902.48 20.3024 Q1903.34 19.8515 1904.08 19.8515 Q1905.11 19.8515 1905.8 20.4664 Q1906.54 21.0812 1906.54 22.1469 Z" fill="#000000" fill-rule="evenodd" fill-opacity="1" /><path clip-path="url(#clip100)" d="M1933.17 70.2724 Q1933.17 71.0758 1932.79 71.2766 Q1932.42 71.4488 1931.39 71.4488 L1925.88 71.4488 L1921.52 88.779 Q1921.17 90.2997 1921.17 91.5909 Q1921.17 93.0255 1921.6 93.6568 Q1922.06 94.288 1923.01 94.288 Q1924.88 94.288 1926.88 92.5951 Q1928.92 90.9023 1930.64 86.7706 Q1930.87 86.2254 1930.99 86.1106 Q1931.13 85.9672 1931.5 85.9672 Q1932.22 85.9672 1932.22 86.541 Q1932.22 86.7419 1931.82 87.66 Q1931.45 88.5782 1930.61 89.9267 Q1929.81 91.2753 1928.75 92.5378 Q1927.72 93.8002 1926.14 94.7184 Q1924.56 95.6079 1922.87 95.6079 Q1920.49 95.6079 1918.96 94.0872 Q1917.47 92.5665 1917.47 90.185 Q1917.47 89.4103 1918.08 86.9427 Q1918.68 84.4465 1921.95 71.4488 L1916.76 71.4488 Q1916.04 71.4488 1915.75 71.4201 Q1915.49 71.3914 1915.29 71.2479 Q1915.12 71.0758 1915.12 70.7315 Q1915.12 70.1863 1915.35 69.9568 Q1915.58 69.6985 1915.87 69.6698 Q1916.18 69.6125 1916.9 69.6125 L1922.41 69.6125 L1924.7 60.2874 Q1924.93 59.3692 1925.51 58.8528 Q1926.11 58.3076 1926.45 58.2502 Q1926.8 58.1641 1927.06 58.1641 Q1927.83 58.1641 1928.29 58.5945 Q1928.75 58.9962 1928.75 59.7422 Q1928.75 60.1439 1926.34 69.6125 L1931.5 69.6125 Q1932.16 69.6125 1932.42 69.6411 Q1932.71 69.6698 1932.94 69.8133 Q1933.17 69.9568 1933.17 70.2724 Z" fill="#000000" fill-rule="evenodd" fill-opacity="1" /><polyline clip-path="url(#clip102)" style="stroke:#000000; stroke-linecap:butt; stroke-linejoin:round; stroke-width:8; stroke-opacity:1; fill:none" points="
  298.921,855.777 314.91,858.691 330.899,851.42 346.888,839.239 362.877,830.609 378.866,830.296 394.855,828.467 410.844,824.487 426.833,816.726 442.822,820.274 
  458.811,819.993 474.8,820.151 490.789,815.663 506.778,814.946 522.767,813.684 538.756,808.003 554.745,802.928 570.734,799.191 586.723,795.624 602.712,799.204 
  618.701,799.761 634.69,788.644 650.679,778.997 666.668,765.926 682.657,758.766 698.646,749.65 714.635,741.699 730.624,731.045 746.613,714.778 762.602,706.59 
  778.591,703.726 794.58,699.022 810.569,690.322 826.558,675.445 842.547,663.928 858.536,654.169 874.525,645.477 890.514,634.441 906.504,621.042 922.493,612.139 
  938.482,613.274 954.471,607.007 970.46,600.777 986.449,591.455 1002.44,587.732 1018.43,590.689 1034.42,585.616 1050.4,571.335 1066.39,563.075 1082.38,567.158 
  1098.37,555.881 1114.36,540.732 1130.35,529.244 1146.34,528.068 1162.33,528.056 1178.32,517.081 1194.31,503.131 1210.29,494.779 1226.28,494.982 1242.27,490.676 
  1258.26,475.079 1274.25,461.446 1290.24,459.83 1306.23,465.617 1322.22,458.753 1338.21,451.125 1354.2,442.686 1370.19,440.484 1386.17,444.697 1402.16,436.824 
  1418.15,432.102 1434.14,429.166 1450.13,430.646 1466.12,429.476 1482.11,420.086 1498.1,410.14 1514.09,408.481 1530.08,406.683 1546.06,397.04 1562.05,387.319 
  1578.04,387.107 1594.03,384.51 1610.02,385.131 1626.01,375.159 1642,369.713 1657.99,368.454 1673.98,364.294 1689.97,353.401 1705.95,348.242 1721.94,342.859 
  1737.93,336.016 1753.92,329.147 1769.91,324.23 1785.9,320.371 1801.89,312.202 1817.88,304.105 1833.87,294.001 1849.86,293.429 1865.84,287.742 1881.83,282.317 
  1897.82,280.791 1913.81,273.54 1929.8,263.656 1945.79,258.529 1961.78,261.199 1977.77,268.656 1993.76,266.496 2009.75,252.453 2025.74,245.54 2041.72,245.396 
  2057.71,247.578 2073.7,241.623 2089.69,234.113 2105.68,230.516 2121.67,241.28 2137.66,247.073 2153.65,238.193 2169.64,236.601 2185.63,243.568 2201.61,247.851 
  2217.6,246.628 2233.59,247.76 2249.58,252.415 2265.57,258.725 2281.56,257.743 2297.55,256.318 2313.54,262.301 2329.53,269.983 2345.52,267.163 2361.5,256.351 
  2377.49,253.109 2393.48,251.357 2409.47,240.57 2425.46,225.802 2441.45,224.365 2457.44,223.809 2473.43,207.452 2489.42,201.319 2505.41,207.47 2521.39,203.11 
  2537.38,193.456 2553.37,184.931 2569.36,186.845 2585.35,185.787 2601.34,180.751 2617.33,167.707 2633.32,167.916 2649.31,162.411 2665.3,156.345 2681.28,149.08 
  
  "/>
<path clip-path="url(#clip100)" d="
M227.45 1879.98 L2752.76 1879.98 L2752.76 1127.79 L227.45 1127.79  Z
  " fill="#ffffff" fill-rule="evenodd" fill-opacity="1"/>
<defs>
  <clipPath id="clip103">
    <rect x="227" y="1127" width="2526" height="753"/>
  </clipPath>
</defs>
<polyline clip-path="url(#clip103)" style="stroke:#000000; stroke-linecap:butt; stroke-linejoin:round; stroke-width:2; stroke-opacity:0.1; fill:none" points="
  282.932,1879.98 282.932,1127.79 
  "/>
<polyline clip-path="url(#clip103)" style="stroke:#000000; stroke-linecap:butt; stroke-linejoin:round; stroke-width:2; stroke-opacity:0.1; fill:none" points="
  1082.38,1879.98 1082.38,1127.79 
  "/>
<polyline clip-path="url(#clip103)" style="stroke:#000000; stroke-linecap:butt; stroke-linejoin:round; stroke-width:2; stroke-opacity:0.1; fill:none" points="
  1881.83,1879.98 1881.83,1127.79 
  "/>
<polyline clip-path="url(#clip103)" style="stroke:#000000; stroke-linecap:butt; stroke-linejoin:round; stroke-width:2; stroke-opacity:0.1; fill:none" points="
  2681.28,1879.98 2681.28,1127.79 
  "/>
<polyline clip-path="url(#clip100)" style="stroke:#000000; stroke-linecap:butt; stroke-linejoin:round; stroke-width:4; stroke-opacity:1; fill:none" points="
  227.45,1879.98 2752.76,1879.98 
  "/>
<polyline clip-path="url(#clip100)" style="stroke:#000000; stroke-linecap:butt; stroke-linejoin:round; stroke-width:4; stroke-opacity:1; fill:none" points="
  282.932,1879.98 282.932,1861.08 
  "/>
<polyline clip-path="url(#clip100)" style="stroke:#000000; stroke-linecap:butt; stroke-linejoin:round; stroke-width:4; stroke-opacity:1; fill:none" points="
  1082.38,1879.98 1082.38,1861.08 
  "/>
<polyline clip-path="url(#clip100)" style="stroke:#000000; stroke-linecap:butt; stroke-linejoin:round; stroke-width:4; stroke-opacity:1; fill:none" points="
  1881.83,1879.98 1881.83,1861.08 
  "/>
<polyline clip-path="url(#clip100)" style="stroke:#000000; stroke-linecap:butt; stroke-linejoin:round; stroke-width:4; stroke-opacity:1; fill:none" points="
  2681.28,1879.98 2681.28,1861.08 
  "/>
<path clip-path="url(#clip100)" d="M282.932 1914.1 Q279.321 1914.1 277.492 1917.66 Q275.686 1921.2 275.686 1928.33 Q275.686 1935.44 277.492 1939.01 Q279.321 1942.55 282.932 1942.55 Q286.566 1942.55 288.371 1939.01 Q290.2 1935.44 290.2 1928.33 Q290.2 1921.2 288.371 1917.66 Q286.566 1914.1 282.932 1914.1 M282.932 1910.39 Q288.742 1910.39 291.797 1915 Q294.876 1919.58 294.876 1928.33 Q294.876 1937.06 291.797 1941.67 Q288.742 1946.25 282.932 1946.25 Q277.121 1946.25 274.043 1941.67 Q270.987 1937.06 270.987 1928.33 Q270.987 1919.58 274.043 1915 Q277.121 1910.39 282.932 1910.39 Z" fill="#000000" fill-rule="evenodd" fill-opacity="1" /><path clip-path="url(#clip100)" d="M1057.08 1911.02 L1075.44 1911.02 L1075.44 1914.95 L1061.36 1914.95 L1061.36 1923.43 Q1062.38 1923.08 1063.4 1922.92 Q1064.42 1922.73 1065.44 1922.73 Q1071.23 1922.73 1074.61 1925.9 Q1077.98 1929.07 1077.98 1934.49 Q1077.98 1940.07 1074.51 1943.17 Q1071.04 1946.25 1064.72 1946.25 Q1062.54 1946.25 1060.28 1945.88 Q1058.03 1945.51 1055.62 1944.77 L1055.62 1940.07 Q1057.71 1941.2 1059.93 1941.76 Q1062.15 1942.32 1064.63 1942.32 Q1068.63 1942.32 1070.97 1940.21 Q1073.31 1938.1 1073.31 1934.49 Q1073.31 1930.88 1070.97 1928.77 Q1068.63 1926.67 1064.63 1926.67 Q1062.75 1926.67 1060.88 1927.08 Q1059.03 1927.5 1057.08 1928.38 L1057.08 1911.02 Z" fill="#000000" fill-rule="evenodd" fill-opacity="1" /><path clip-path="url(#clip100)" d="M1097.2 1914.1 Q1093.59 1914.1 1091.76 1917.66 Q1089.95 1921.2 1089.95 1928.33 Q1089.95 1935.44 1091.76 1939.01 Q1093.59 1942.55 1097.2 1942.55 Q1100.83 1942.55 1102.64 1939.01 Q1104.47 1935.44 1104.47 1928.33 Q1104.47 1921.2 1102.64 1917.66 Q1100.83 1914.1 1097.2 1914.1 M1097.2 1910.39 Q1103.01 1910.39 1106.06 1915 Q1109.14 1919.58 1109.14 1928.33 Q1109.14 1937.06 1106.06 1941.67 Q1103.01 1946.25 1097.2 1946.25 Q1091.39 1946.25 1088.31 1941.67 Q1085.25 1937.06 1085.25 1928.33 Q1085.25 1919.58 1088.31 1915 Q1091.39 1910.39 1097.2 1910.39 Z" fill="#000000" fill-rule="evenodd" fill-opacity="1" /><path clip-path="url(#clip100)" d="M1841.44 1941.64 L1849.08 1941.64 L1849.08 1915.28 L1840.77 1916.95 L1840.77 1912.69 L1849.03 1911.02 L1853.71 1911.02 L1853.71 1941.64 L1861.35 1941.64 L1861.35 1945.58 L1841.44 1945.58 L1841.44 1941.64 Z" fill="#000000" fill-rule="evenodd" fill-opacity="1" /><path clip-path="url(#clip100)" d="M1880.79 1914.1 Q1877.18 1914.1 1875.35 1917.66 Q1873.55 1921.2 1873.55 1928.33 Q1873.55 1935.44 1875.35 1939.01 Q1877.18 1942.55 1880.79 1942.55 Q1884.43 1942.55 1886.23 1939.01 Q1888.06 1935.44 1888.06 1928.33 Q1888.06 1921.2 1886.23 1917.66 Q1884.43 1914.1 1880.79 1914.1 M1880.79 1910.39 Q1886.6 1910.39 1889.66 1915 Q1892.74 1919.58 1892.74 1928.33 Q1892.74 1937.06 1889.66 1941.67 Q1886.6 1946.25 1880.79 1946.25 Q1874.98 1946.25 1871.9 1941.67 Q1868.85 1937.06 1868.85 1928.33 Q1868.85 1919.58 1871.9 1915 Q1874.98 1910.39 1880.79 1910.39 Z" fill="#000000" fill-rule="evenodd" fill-opacity="1" /><path clip-path="url(#clip100)" d="M1910.95 1914.1 Q1907.34 1914.1 1905.51 1917.66 Q1903.71 1921.2 1903.71 1928.33 Q1903.71 1935.44 1905.51 1939.01 Q1907.34 1942.55 1910.95 1942.55 Q1914.59 1942.55 1916.39 1939.01 Q1918.22 1935.44 1918.22 1928.33 Q1918.22 1921.2 1916.39 1917.66 Q1914.59 1914.1 1910.95 1914.1 M1910.95 1910.39 Q1916.76 1910.39 1919.82 1915 Q1922.9 1919.58 1922.9 1928.33 Q1922.9 1937.06 1919.82 1941.67 Q1916.76 1946.25 1910.95 1946.25 Q1905.14 1946.25 1902.07 1941.67 Q1899.01 1937.06 1899.01 1928.33 Q1899.01 1919.58 1902.07 1915 Q1905.14 1910.39 1910.95 1910.39 Z" fill="#000000" fill-rule="evenodd" fill-opacity="1" /><path clip-path="url(#clip100)" d="M2640.89 1941.64 L2648.53 1941.64 L2648.53 1915.28 L2640.22 1916.95 L2640.22 1912.69 L2648.48 1911.02 L2653.16 1911.02 L2653.16 1941.64 L2660.8 1941.64 L2660.8 1945.58 L2640.89 1945.58 L2640.89 1941.64 Z" fill="#000000" fill-rule="evenodd" fill-opacity="1" /><path clip-path="url(#clip100)" d="M2670.29 1911.02 L2688.65 1911.02 L2688.65 1914.95 L2674.57 1914.95 L2674.57 1923.43 Q2675.59 1923.08 2676.61 1922.92 Q2677.63 1922.73 2678.65 1922.73 Q2684.43 1922.73 2687.81 1925.9 Q2691.19 1929.07 2691.19 1934.49 Q2691.19 1940.07 2687.72 1943.17 Q2684.25 1946.25 2677.93 1946.25 Q2675.75 1946.25 2673.48 1945.88 Q2671.24 1945.51 2668.83 1944.77 L2668.83 1940.07 Q2670.91 1941.2 2673.14 1941.76 Q2675.36 1942.32 2677.84 1942.32 Q2681.84 1942.32 2684.18 1940.21 Q2686.52 1938.1 2686.52 1934.49 Q2686.52 1930.88 2684.18 1928.77 Q2681.84 1926.67 2677.84 1926.67 Q2675.96 1926.67 2674.09 1927.08 Q2672.23 1927.5 2670.29 1928.38 L2670.29 1911.02 Z" fill="#000000" fill-rule="evenodd" fill-opacity="1" /><path clip-path="url(#clip100)" d="M2710.41 1914.1 Q2706.79 1914.1 2704.97 1917.66 Q2703.16 1921.2 2703.16 1928.33 Q2703.16 1935.44 2704.97 1939.01 Q2706.79 1942.55 2710.41 1942.55 Q2714.04 1942.55 2715.84 1939.01 Q2717.67 1935.44 2717.67 1928.33 Q2717.67 1921.2 2715.84 1917.66 Q2714.04 1914.1 2710.41 1914.1 M2710.41 1910.39 Q2716.22 1910.39 2719.27 1915 Q2722.35 1919.58 2722.35 1928.33 Q2722.35 1937.06 2719.27 1941.67 Q2716.22 1946.25 2710.41 1946.25 Q2704.6 1946.25 2701.52 1941.67 Q2698.46 1937.06 2698.46 1928.33 Q2698.46 1919.58 2701.52 1915 Q2704.6 1910.39 2710.41 1910.39 Z" fill="#000000" fill-rule="evenodd" fill-opacity="1" /><polyline clip-path="url(#clip103)" style="stroke:#000000; stroke-linecap:butt; stroke-linejoin:round; stroke-width:2; stroke-opacity:0.1; fill:none" points="
  227.45,1819.44 2752.76,1819.44 
  "/>
<polyline clip-path="url(#clip103)" style="stroke:#000000; stroke-linecap:butt; stroke-linejoin:round; stroke-width:2; stroke-opacity:0.1; fill:none" points="
  227.45,1698.24 2752.76,1698.24 
  "/>
<polyline clip-path="url(#clip103)" style="stroke:#000000; stroke-linecap:butt; stroke-linejoin:round; stroke-width:2; stroke-opacity:0.1; fill:none" points="
  227.45,1577.05 2752.76,1577.05 
  "/>
<polyline clip-path="url(#clip103)" style="stroke:#000000; stroke-linecap:butt; stroke-linejoin:round; stroke-width:2; stroke-opacity:0.1; fill:none" points="
  227.45,1455.85 2752.76,1455.85 
  "/>
<polyline clip-path="url(#clip103)" style="stroke:#000000; stroke-linecap:butt; stroke-linejoin:round; stroke-width:2; stroke-opacity:0.1; fill:none" points="
  227.45,1334.66 2752.76,1334.66 
  "/>
<polyline clip-path="url(#clip103)" style="stroke:#000000; stroke-linecap:butt; stroke-linejoin:round; stroke-width:2; stroke-opacity:0.1; fill:none" points="
  227.45,1213.46 2752.76,1213.46 
  "/>
<polyline clip-path="url(#clip100)" style="stroke:#000000; stroke-linecap:butt; stroke-linejoin:round; stroke-width:4; stroke-opacity:1; fill:none" points="
  227.45,1879.98 227.45,1127.79 
  "/>
<polyline clip-path="url(#clip100)" style="stroke:#000000; stroke-linecap:butt; stroke-linejoin:round; stroke-width:4; stroke-opacity:1; fill:none" points="
  227.45,1819.44 246.347,1819.44 
  "/>
<polyline clip-path="url(#clip100)" style="stroke:#000000; stroke-linecap:butt; stroke-linejoin:round; stroke-width:4; stroke-opacity:1; fill:none" points="
  227.45,1698.24 246.347,1698.24 
  "/>
<polyline clip-path="url(#clip100)" style="stroke:#000000; stroke-linecap:butt; stroke-linejoin:round; stroke-width:4; stroke-opacity:1; fill:none" points="
  227.45,1577.05 246.347,1577.05 
  "/>
<polyline clip-path="url(#clip100)" style="stroke:#000000; stroke-linecap:butt; stroke-linejoin:round; stroke-width:4; stroke-opacity:1; fill:none" points="
  227.45,1455.85 246.347,1455.85 
  "/>
<polyline clip-path="url(#clip100)" style="stroke:#000000; stroke-linecap:butt; stroke-linejoin:round; stroke-width:4; stroke-opacity:1; fill:none" points="
  227.45,1334.66 246.347,1334.66 
  "/>
<polyline clip-path="url(#clip100)" style="stroke:#000000; stroke-linecap:butt; stroke-linejoin:round; stroke-width:4; stroke-opacity:1; fill:none" points="
  227.45,1213.46 246.347,1213.46 
  "/>
<path clip-path="url(#clip100)" d="M48.9921 1819.89 L78.6679 1819.89 L78.6679 1823.82 L48.9921 1823.82 L48.9921 1819.89 Z" fill="#000000" fill-rule="evenodd" fill-opacity="1" /><path clip-path="url(#clip100)" d="M98.7604 1805.24 Q95.1493 1805.24 93.3206 1808.8 Q91.515 1812.34 91.515 1819.47 Q91.515 1826.58 93.3206 1830.14 Q95.1493 1833.69 98.7604 1833.69 Q102.395 1833.69 104.2 1830.14 Q106.029 1826.58 106.029 1819.47 Q106.029 1812.34 104.2 1808.8 Q102.395 1805.24 98.7604 1805.24 M98.7604 1801.53 Q104.571 1801.53 107.626 1806.14 Q110.705 1810.72 110.705 1819.47 Q110.705 1828.2 107.626 1832.81 Q104.571 1837.39 98.7604 1837.39 Q92.9502 1837.39 89.8715 1832.81 Q86.816 1828.2 86.816 1819.47 Q86.816 1810.72 89.8715 1806.14 Q92.9502 1801.53 98.7604 1801.53 Z" fill="#000000" fill-rule="evenodd" fill-opacity="1" /><path clip-path="url(#clip100)" d="M118.922 1830.84 L123.807 1830.84 L123.807 1836.72 L118.922 1836.72 L118.922 1830.84 Z" fill="#000000" fill-rule="evenodd" fill-opacity="1" /><path clip-path="url(#clip100)" d="M143.992 1805.24 Q140.381 1805.24 138.552 1808.8 Q136.746 1812.34 136.746 1819.47 Q136.746 1826.58 138.552 1830.14 Q140.381 1833.69 143.992 1833.69 Q147.626 1833.69 149.431 1830.14 Q151.26 1826.58 151.26 1819.47 Q151.26 1812.34 149.431 1808.8 Q147.626 1805.24 143.992 1805.24 M143.992 1801.53 Q149.802 1801.53 152.857 1806.14 Q155.936 1810.72 155.936 1819.47 Q155.936 1828.2 152.857 1832.81 Q149.802 1837.39 143.992 1837.39 Q138.181 1837.39 135.103 1832.81 Q132.047 1828.2 132.047 1819.47 Q132.047 1810.72 135.103 1806.14 Q138.181 1801.53 143.992 1801.53 Z" fill="#000000" fill-rule="evenodd" fill-opacity="1" /><path clip-path="url(#clip100)" d="M178.32 1818.08 Q181.677 1818.8 183.552 1821.07 Q185.45 1823.34 185.45 1826.67 Q185.45 1831.79 181.931 1834.59 Q178.413 1837.39 171.931 1837.39 Q169.755 1837.39 167.441 1836.95 Q165.149 1836.53 162.695 1835.68 L162.695 1831.16 Q164.64 1832.3 166.954 1832.88 Q169.269 1833.45 171.792 1833.45 Q176.191 1833.45 178.482 1831.72 Q180.797 1829.98 180.797 1826.67 Q180.797 1823.62 178.644 1821.9 Q176.515 1820.17 172.695 1820.17 L168.667 1820.17 L168.667 1816.32 L172.88 1816.32 Q176.329 1816.32 178.158 1814.96 Q179.987 1813.57 179.987 1810.98 Q179.987 1808.32 178.089 1806.9 Q176.214 1805.47 172.695 1805.47 Q170.774 1805.47 168.575 1805.89 Q166.376 1806.3 163.737 1807.18 L163.737 1803.01 Q166.399 1802.27 168.714 1801.9 Q171.052 1801.53 173.112 1801.53 Q178.436 1801.53 181.538 1803.96 Q184.64 1806.37 184.64 1810.49 Q184.64 1813.36 182.996 1815.35 Q181.353 1817.32 178.32 1818.08 Z" fill="#000000" fill-rule="evenodd" fill-opacity="1" /><path clip-path="url(#clip100)" d="M49.9412 1698.69 L79.617 1698.69 L79.617 1702.63 L49.9412 1702.63 L49.9412 1698.69 Z" fill="#000000" fill-rule="evenodd" fill-opacity="1" /><path clip-path="url(#clip100)" d="M99.7094 1684.04 Q96.0984 1684.04 94.2697 1687.61 Q92.4641 1691.15 92.4641 1698.28 Q92.4641 1705.38 94.2697 1708.95 Q96.0984 1712.49 99.7094 1712.49 Q103.344 1712.49 105.149 1708.95 Q106.978 1705.38 106.978 1698.28 Q106.978 1691.15 105.149 1687.61 Q103.344 1684.04 99.7094 1684.04 M99.7094 1680.34 Q105.52 1680.34 108.575 1684.94 Q111.654 1689.53 111.654 1698.28 Q111.654 1707 108.575 1711.61 Q105.52 1716.19 99.7094 1716.19 Q93.8993 1716.19 90.8206 1711.61 Q87.7651 1707 87.7651 1698.28 Q87.7651 1689.53 90.8206 1684.94 Q93.8993 1680.34 99.7094 1680.34 Z" fill="#000000" fill-rule="evenodd" fill-opacity="1" /><path clip-path="url(#clip100)" d="M119.871 1709.64 L124.756 1709.64 L124.756 1715.52 L119.871 1715.52 L119.871 1709.64 Z" fill="#000000" fill-rule="evenodd" fill-opacity="1" /><path clip-path="url(#clip100)" d="M144.941 1684.04 Q141.33 1684.04 139.501 1687.61 Q137.695 1691.15 137.695 1698.28 Q137.695 1705.38 139.501 1708.95 Q141.33 1712.49 144.941 1712.49 Q148.575 1712.49 150.38 1708.95 Q152.209 1705.38 152.209 1698.28 Q152.209 1691.15 150.38 1687.61 Q148.575 1684.04 144.941 1684.04 M144.941 1680.34 Q150.751 1680.34 153.806 1684.94 Q156.885 1689.53 156.885 1698.28 Q156.885 1707 153.806 1711.61 Q150.751 1716.19 144.941 1716.19 Q139.131 1716.19 136.052 1711.61 Q132.996 1707 132.996 1698.28 Q132.996 1689.53 136.052 1684.94 Q139.131 1680.34 144.941 1680.34 Z" fill="#000000" fill-rule="evenodd" fill-opacity="1" /><path clip-path="url(#clip100)" d="M169.13 1711.59 L185.45 1711.59 L185.45 1715.52 L163.505 1715.52 L163.505 1711.59 Q166.167 1708.83 170.751 1704.2 Q175.357 1699.55 176.538 1698.21 Q178.783 1695.69 179.663 1693.95 Q180.565 1692.19 180.565 1690.5 Q180.565 1687.75 178.621 1686.01 Q176.7 1684.27 173.598 1684.27 Q171.399 1684.27 168.945 1685.04 Q166.515 1685.8 163.737 1687.35 L163.737 1682.63 Q166.561 1681.5 169.015 1680.92 Q171.468 1680.34 173.505 1680.34 Q178.876 1680.34 182.07 1683.02 Q185.265 1685.71 185.265 1690.2 Q185.265 1692.33 184.454 1694.25 Q183.667 1696.15 181.561 1698.74 Q180.982 1699.41 177.88 1702.63 Q174.778 1705.82 169.13 1711.59 Z" fill="#000000" fill-rule="evenodd" fill-opacity="1" /><path clip-path="url(#clip100)" d="M49.5708 1577.5 L79.2466 1577.5 L79.2466 1581.43 L49.5708 1581.43 L49.5708 1577.5 Z" fill="#000000" fill-rule="evenodd" fill-opacity="1" /><path clip-path="url(#clip100)" d="M99.3391 1562.85 Q95.728 1562.85 93.8993 1566.41 Q92.0937 1569.95 92.0937 1577.08 Q92.0937 1584.19 93.8993 1587.75 Q95.728 1591.3 99.3391 1591.3 Q102.973 1591.3 104.779 1587.75 Q106.608 1584.19 106.608 1577.08 Q106.608 1569.95 104.779 1566.41 Q102.973 1562.85 99.3391 1562.85 M99.3391 1559.14 Q105.149 1559.14 108.205 1563.75 Q111.283 1568.33 111.283 1577.08 Q111.283 1585.81 108.205 1590.42 Q105.149 1595 99.3391 1595 Q93.5289 1595 90.4502 1590.42 Q87.3947 1585.81 87.3947 1577.08 Q87.3947 1568.33 90.4502 1563.75 Q93.5289 1559.14 99.3391 1559.14 Z" fill="#000000" fill-rule="evenodd" fill-opacity="1" /><path clip-path="url(#clip100)" d="M119.501 1588.45 L124.385 1588.45 L124.385 1594.33 L119.501 1594.33 L119.501 1588.45 Z" fill="#000000" fill-rule="evenodd" fill-opacity="1" /><path clip-path="url(#clip100)" d="M144.57 1562.85 Q140.959 1562.85 139.131 1566.41 Q137.325 1569.95 137.325 1577.08 Q137.325 1584.19 139.131 1587.75 Q140.959 1591.3 144.57 1591.3 Q148.205 1591.3 150.01 1587.75 Q151.839 1584.19 151.839 1577.08 Q151.839 1569.95 150.01 1566.41 Q148.205 1562.85 144.57 1562.85 M144.57 1559.14 Q150.38 1559.14 153.436 1563.75 Q156.515 1568.33 156.515 1577.08 Q156.515 1585.81 153.436 1590.42 Q150.38 1595 144.57 1595 Q138.76 1595 135.681 1590.42 Q132.626 1585.81 132.626 1577.08 Q132.626 1568.33 135.681 1563.75 Q138.76 1559.14 144.57 1559.14 Z" fill="#000000" fill-rule="evenodd" fill-opacity="1" /><path clip-path="url(#clip100)" d="M165.542 1590.39 L173.181 1590.39 L173.181 1564.03 L164.871 1565.69 L164.871 1561.43 L173.135 1559.77 L177.811 1559.77 L177.811 1590.39 L185.45 1590.39 L185.45 1594.33 L165.542 1594.33 L165.542 1590.39 Z" fill="#000000" fill-rule="evenodd" fill-opacity="1" /><path clip-path="url(#clip100)" d="M98.1122 1441.65 Q94.5011 1441.65 92.6724 1445.22 Q90.8669 1448.76 90.8669 1455.89 Q90.8669 1462.99 92.6724 1466.56 Q94.5011 1470.1 98.1122 1470.1 Q101.746 1470.1 103.552 1466.56 Q105.381 1462.99 105.381 1455.89 Q105.381 1448.76 103.552 1445.22 Q101.746 1441.65 98.1122 1441.65 M98.1122 1437.95 Q103.922 1437.95 106.978 1442.55 Q110.057 1447.14 110.057 1455.89 Q110.057 1464.61 106.978 1469.22 Q103.922 1473.8 98.1122 1473.8 Q92.3021 1473.8 89.2234 1469.22 Q86.1679 1464.61 86.1679 1455.89 Q86.1679 1447.14 89.2234 1442.55 Q92.3021 1437.95 98.1122 1437.95 Z" fill="#000000" fill-rule="evenodd" fill-opacity="1" /><path clip-path="url(#clip100)" d="M118.274 1467.25 L123.158 1467.25 L123.158 1473.13 L118.274 1473.13 L118.274 1467.25 Z" fill="#000000" fill-rule="evenodd" fill-opacity="1" /><path clip-path="url(#clip100)" d="M143.343 1441.65 Q139.732 1441.65 137.904 1445.22 Q136.098 1448.76 136.098 1455.89 Q136.098 1462.99 137.904 1466.56 Q139.732 1470.1 143.343 1470.1 Q146.978 1470.1 148.783 1466.56 Q150.612 1462.99 150.612 1455.89 Q150.612 1448.76 148.783 1445.22 Q146.978 1441.65 143.343 1441.65 M143.343 1437.95 Q149.154 1437.95 152.209 1442.55 Q155.288 1447.14 155.288 1455.89 Q155.288 1464.61 152.209 1469.22 Q149.154 1473.8 143.343 1473.8 Q137.533 1473.8 134.455 1469.22 Q131.399 1464.61 131.399 1455.89 Q131.399 1447.14 134.455 1442.55 Q137.533 1437.95 143.343 1437.95 Z" fill="#000000" fill-rule="evenodd" fill-opacity="1" /><path clip-path="url(#clip100)" d="M173.505 1441.65 Q169.894 1441.65 168.066 1445.22 Q166.26 1448.76 166.26 1455.89 Q166.26 1462.99 168.066 1466.56 Q169.894 1470.1 173.505 1470.1 Q177.14 1470.1 178.945 1466.56 Q180.774 1462.99 180.774 1455.89 Q180.774 1448.76 178.945 1445.22 Q177.14 1441.65 173.505 1441.65 M173.505 1437.95 Q179.316 1437.95 182.371 1442.55 Q185.45 1447.14 185.45 1455.89 Q185.45 1464.61 182.371 1469.22 Q179.316 1473.8 173.505 1473.8 Q167.695 1473.8 164.617 1469.22 Q161.561 1464.61 161.561 1455.89 Q161.561 1447.14 164.617 1442.55 Q167.695 1437.95 173.505 1437.95 Z" fill="#000000" fill-rule="evenodd" fill-opacity="1" /><path clip-path="url(#clip100)" d="M99.3391 1320.46 Q95.728 1320.46 93.8993 1324.02 Q92.0937 1327.56 92.0937 1334.69 Q92.0937 1341.8 93.8993 1345.36 Q95.728 1348.9 99.3391 1348.9 Q102.973 1348.9 104.779 1345.36 Q106.608 1341.8 106.608 1334.69 Q106.608 1327.56 104.779 1324.02 Q102.973 1320.46 99.3391 1320.46 M99.3391 1316.75 Q105.149 1316.75 108.205 1321.36 Q111.283 1325.94 111.283 1334.69 Q111.283 1343.42 108.205 1348.03 Q105.149 1352.61 99.3391 1352.61 Q93.5289 1352.61 90.4502 1348.03 Q87.3947 1343.42 87.3947 1334.69 Q87.3947 1325.94 90.4502 1321.36 Q93.5289 1316.75 99.3391 1316.75 Z" fill="#000000" fill-rule="evenodd" fill-opacity="1" /><path clip-path="url(#clip100)" d="M119.501 1346.06 L124.385 1346.06 L124.385 1351.94 L119.501 1351.94 L119.501 1346.06 Z" fill="#000000" fill-rule="evenodd" fill-opacity="1" /><path clip-path="url(#clip100)" d="M144.57 1320.46 Q140.959 1320.46 139.131 1324.02 Q137.325 1327.56 137.325 1334.69 Q137.325 1341.8 139.131 1345.36 Q140.959 1348.9 144.57 1348.9 Q148.205 1348.9 150.01 1345.36 Q151.839 1341.8 151.839 1334.69 Q151.839 1327.56 150.01 1324.02 Q148.205 1320.46 144.57 1320.46 M144.57 1316.75 Q150.38 1316.75 153.436 1321.36 Q156.515 1325.94 156.515 1334.69 Q156.515 1343.42 153.436 1348.03 Q150.38 1352.61 144.57 1352.61 Q138.76 1352.61 135.681 1348.03 Q132.626 1343.42 132.626 1334.69 Q132.626 1325.94 135.681 1321.36 Q138.76 1316.75 144.57 1316.75 Z" fill="#000000" fill-rule="evenodd" fill-opacity="1" /><path clip-path="url(#clip100)" d="M165.542 1348 L173.181 1348 L173.181 1321.64 L164.871 1323.3 L164.871 1319.04 L173.135 1317.38 L177.811 1317.38 L177.811 1348 L185.45 1348 L185.45 1351.94 L165.542 1351.94 L165.542 1348 Z" fill="#000000" fill-rule="evenodd" fill-opacity="1" /><path clip-path="url(#clip100)" d="M99.7094 1199.26 Q96.0984 1199.26 94.2697 1202.83 Q92.4641 1206.37 92.4641 1213.5 Q92.4641 1220.6 94.2697 1224.17 Q96.0984 1227.71 99.7094 1227.71 Q103.344 1227.71 105.149 1224.17 Q106.978 1220.6 106.978 1213.5 Q106.978 1206.37 105.149 1202.83 Q103.344 1199.26 99.7094 1199.26 M99.7094 1195.56 Q105.52 1195.56 108.575 1200.16 Q111.654 1204.75 111.654 1213.5 Q111.654 1222.22 108.575 1226.83 Q105.52 1231.41 99.7094 1231.41 Q93.8993 1231.41 90.8206 1226.83 Q87.7651 1222.22 87.7651 1213.5 Q87.7651 1204.75 90.8206 1200.16 Q93.8993 1195.56 99.7094 1195.56 Z" fill="#000000" fill-rule="evenodd" fill-opacity="1" /><path clip-path="url(#clip100)" d="M119.871 1224.86 L124.756 1224.86 L124.756 1230.74 L119.871 1230.74 L119.871 1224.86 Z" fill="#000000" fill-rule="evenodd" fill-opacity="1" /><path clip-path="url(#clip100)" d="M144.941 1199.26 Q141.33 1199.26 139.501 1202.83 Q137.695 1206.37 137.695 1213.5 Q137.695 1220.6 139.501 1224.17 Q141.33 1227.71 144.941 1227.71 Q148.575 1227.71 150.38 1224.17 Q152.209 1220.6 152.209 1213.5 Q152.209 1206.37 150.38 1202.83 Q148.575 1199.26 144.941 1199.26 M144.941 1195.56 Q150.751 1195.56 153.806 1200.16 Q156.885 1204.75 156.885 1213.5 Q156.885 1222.22 153.806 1226.83 Q150.751 1231.41 144.941 1231.41 Q139.131 1231.41 136.052 1226.83 Q132.996 1222.22 132.996 1213.5 Q132.996 1204.75 136.052 1200.16 Q139.131 1195.56 144.941 1195.56 Z" fill="#000000" fill-rule="evenodd" fill-opacity="1" /><path clip-path="url(#clip100)" d="M169.13 1226.81 L185.45 1226.81 L185.45 1230.74 L163.505 1230.74 L163.505 1226.81 Q166.167 1224.05 170.751 1219.42 Q175.357 1214.77 176.538 1213.43 Q178.783 1210.9 179.663 1209.17 Q180.565 1207.41 180.565 1205.72 Q180.565 1202.96 178.621 1201.23 Q176.7 1199.49 173.598 1199.49 Q171.399 1199.49 168.945 1200.26 Q166.515 1201.02 163.737 1202.57 L163.737 1197.85 Q166.561 1196.71 169.015 1196.14 Q171.468 1195.56 173.505 1195.56 Q178.876 1195.56 182.07 1198.24 Q185.265 1200.93 185.265 1205.42 Q185.265 1207.55 184.454 1209.47 Q183.667 1211.37 181.561 1213.96 Q180.982 1214.63 177.88 1217.85 Q174.778 1221.04 169.13 1226.81 Z" fill="#000000" fill-rule="evenodd" fill-opacity="1" /><path clip-path="url(#clip100)" d="M1080.85 1011.68 L1069.75 1041.78 L1091.99 1041.78 L1080.85 1011.68 M1076.24 1003.62 L1085.51 1003.62 L1108.56 1064.1 L1100.05 1064.1 L1094.55 1048.59 L1067.28 1048.59 L1061.77 1064.1 L1053.15 1064.1 L1076.24 1003.62 Z" fill="#000000" fill-rule="evenodd" fill-opacity="1" /><path clip-path="url(#clip100)" d="M1145.99 1020.07 L1145.99 1027.12 Q1142.83 1025.5 1139.43 1024.69 Q1136.03 1023.88 1132.38 1023.88 Q1126.83 1023.88 1124.04 1025.58 Q1121.28 1027.28 1121.28 1030.68 Q1121.28 1033.27 1123.27 1034.77 Q1125.25 1036.23 1131.25 1037.57 L1133.8 1038.14 Q1141.74 1039.84 1145.06 1042.96 Q1148.42 1046.04 1148.42 1051.59 Q1148.42 1057.9 1143.4 1061.59 Q1138.42 1065.28 1129.67 1065.28 Q1126.02 1065.28 1122.05 1064.55 Q1118.12 1063.86 1113.75 1062.44 L1113.75 1054.74 Q1117.88 1056.89 1121.89 1057.99 Q1125.9 1059.04 1129.83 1059.04 Q1135.1 1059.04 1137.93 1057.26 Q1140.77 1055.43 1140.77 1052.15 Q1140.77 1049.11 1138.7 1047.49 Q1136.68 1045.87 1129.75 1044.37 L1127.16 1043.77 Q1120.23 1042.31 1117.15 1039.31 Q1114.07 1036.27 1114.07 1031.01 Q1114.07 1024.61 1118.61 1021.12 Q1123.15 1017.64 1131.49 1017.64 Q1135.62 1017.64 1139.27 1018.25 Q1142.91 1018.85 1145.99 1020.07 Z" fill="#000000" fill-rule="evenodd" fill-opacity="1" /><path clip-path="url(#clip100)" d="M1189.22 1020.07 L1189.22 1027.12 Q1186.06 1025.5 1182.65 1024.69 Q1179.25 1023.88 1175.6 1023.88 Q1170.05 1023.88 1167.26 1025.58 Q1164.5 1027.28 1164.5 1030.68 Q1164.5 1033.27 1166.49 1034.77 Q1168.47 1036.23 1174.47 1037.57 L1177.02 1038.14 Q1184.96 1039.84 1188.28 1042.96 Q1191.65 1046.04 1191.65 1051.59 Q1191.65 1057.9 1186.62 1061.59 Q1181.64 1065.28 1172.89 1065.28 Q1169.24 1065.28 1165.27 1064.55 Q1161.35 1063.86 1156.97 1062.44 L1156.97 1054.74 Q1161.1 1056.89 1165.11 1057.99 Q1169.12 1059.04 1173.05 1059.04 Q1178.32 1059.04 1181.15 1057.26 Q1183.99 1055.43 1183.99 1052.15 Q1183.99 1049.11 1181.92 1047.49 Q1179.9 1045.87 1172.97 1044.37 L1170.38 1043.77 Q1163.45 1042.31 1160.37 1039.31 Q1157.29 1036.27 1157.29 1031.01 Q1157.29 1024.61 1161.83 1021.12 Q1166.37 1017.64 1174.71 1017.64 Q1178.84 1017.64 1182.49 1018.25 Q1186.14 1018.85 1189.22 1020.07 Z" fill="#000000" fill-rule="evenodd" fill-opacity="1" /><path clip-path="url(#clip100)" d="M1221.1 1023.96 Q1215.1 1023.96 1211.62 1028.66 Q1208.13 1033.32 1208.13 1041.46 Q1208.13 1049.6 1211.58 1054.3 Q1215.06 1058.96 1221.1 1058.96 Q1227.05 1058.96 1230.53 1054.26 Q1234.02 1049.56 1234.02 1041.46 Q1234.02 1033.4 1230.53 1028.7 Q1227.05 1023.96 1221.1 1023.96 M1221.1 1017.64 Q1230.82 1017.64 1236.37 1023.96 Q1241.92 1030.28 1241.92 1041.46 Q1241.92 1052.6 1236.37 1058.96 Q1230.82 1065.28 1221.1 1065.28 Q1211.33 1065.28 1205.78 1058.96 Q1200.27 1052.6 1200.27 1041.46 Q1200.27 1030.28 1205.78 1023.96 Q1211.33 1017.64 1221.1 1017.64 Z" fill="#000000" fill-rule="evenodd" fill-opacity="1" /><path clip-path="url(#clip100)" d="M1286.92 1020.47 L1286.92 1027.44 Q1283.76 1025.7 1280.56 1024.85 Q1277.4 1023.96 1274.16 1023.96 Q1266.91 1023.96 1262.9 1028.58 Q1258.89 1033.15 1258.89 1041.46 Q1258.89 1049.76 1262.9 1054.38 Q1266.91 1058.96 1274.16 1058.96 Q1277.4 1058.96 1280.56 1058.11 Q1283.76 1057.22 1286.92 1055.47 L1286.92 1062.36 Q1283.8 1063.82 1280.44 1064.55 Q1277.12 1065.28 1273.35 1065.28 Q1263.1 1065.28 1257.07 1058.84 Q1251.03 1052.4 1251.03 1041.46 Q1251.03 1030.36 1257.11 1024 Q1263.23 1017.64 1273.84 1017.64 Q1277.28 1017.64 1280.56 1018.37 Q1283.84 1019.06 1286.92 1020.47 Z" fill="#000000" fill-rule="evenodd" fill-opacity="1" /><path clip-path="url(#clip100)" d="M1299.89 1018.73 L1307.34 1018.73 L1307.34 1064.1 L1299.89 1064.1 L1299.89 1018.73 M1299.89 1001.07 L1307.34 1001.07 L1307.34 1010.51 L1299.89 1010.51 L1299.89 1001.07 Z" fill="#000000" fill-rule="evenodd" fill-opacity="1" /><path clip-path="url(#clip100)" d="M1343.55 1041.3 Q1334.52 1041.3 1331.04 1043.36 Q1327.55 1045.43 1327.55 1050.41 Q1327.55 1054.38 1330.15 1056.73 Q1332.78 1059.04 1337.28 1059.04 Q1343.47 1059.04 1347.2 1054.66 Q1350.97 1050.25 1350.97 1042.96 L1350.97 1041.3 L1343.55 1041.3 M1358.42 1038.22 L1358.42 1064.1 L1350.97 1064.1 L1350.97 1057.22 Q1348.42 1061.35 1344.61 1063.33 Q1340.8 1065.28 1335.29 1065.28 Q1328.32 1065.28 1324.19 1061.39 Q1320.1 1057.46 1320.1 1050.9 Q1320.1 1043.24 1325.2 1039.35 Q1330.35 1035.46 1340.52 1035.46 L1350.97 1035.46 L1350.97 1034.73 Q1350.97 1029.59 1347.57 1026.79 Q1344.2 1023.96 1338.09 1023.96 Q1334.2 1023.96 1330.51 1024.89 Q1326.82 1025.82 1323.42 1027.68 L1323.42 1020.8 Q1327.51 1019.22 1331.36 1018.45 Q1335.21 1017.64 1338.86 1017.64 Q1348.7 1017.64 1353.56 1022.74 Q1358.42 1027.85 1358.42 1038.22 Z" fill="#000000" fill-rule="evenodd" fill-opacity="1" /><path clip-path="url(#clip100)" d="M1381.15 1005.85 L1381.15 1018.73 L1396.5 1018.73 L1396.5 1024.53 L1381.15 1024.53 L1381.15 1049.15 Q1381.15 1054.7 1382.65 1056.28 Q1384.19 1057.86 1388.84 1057.86 L1396.5 1057.86 L1396.5 1064.1 L1388.84 1064.1 Q1380.22 1064.1 1376.93 1060.9 Q1373.65 1057.66 1373.65 1049.15 L1373.65 1024.53 L1368.18 1024.53 L1368.18 1018.73 L1373.65 1018.73 L1373.65 1005.85 L1381.15 1005.85 Z" fill="#000000" fill-rule="evenodd" fill-opacity="1" /><path clip-path="url(#clip100)" d="M1445.11 1039.55 L1445.11 1043.2 L1410.84 1043.2 Q1411.33 1050.9 1415.46 1054.95 Q1419.63 1058.96 1427.04 1058.96 Q1431.34 1058.96 1435.35 1057.9 Q1439.4 1056.85 1443.37 1054.74 L1443.37 1061.79 Q1439.36 1063.49 1435.15 1064.39 Q1430.93 1065.28 1426.6 1065.28 Q1415.74 1065.28 1409.38 1058.96 Q1403.06 1052.64 1403.06 1041.86 Q1403.06 1030.72 1409.06 1024.2 Q1415.09 1017.64 1425.3 1017.64 Q1434.46 1017.64 1439.76 1023.55 Q1445.11 1029.43 1445.11 1039.55 M1437.66 1037.37 Q1437.58 1031.25 1434.21 1027.6 Q1430.89 1023.96 1425.38 1023.96 Q1419.14 1023.96 1415.38 1027.48 Q1411.65 1031.01 1411.08 1037.41 L1437.66 1037.37 Z" fill="#000000" fill-rule="evenodd" fill-opacity="1" /><path clip-path="url(#clip100)" d="M1487.2 1025.62 L1487.2 1001.07 L1494.65 1001.07 L1494.65 1064.1 L1487.2 1064.1 L1487.2 1057.3 Q1484.85 1061.35 1481.24 1063.33 Q1477.68 1065.28 1472.66 1065.28 Q1464.43 1065.28 1459.25 1058.71 Q1454.1 1052.15 1454.1 1041.46 Q1454.1 1030.76 1459.25 1024.2 Q1464.43 1017.64 1472.66 1017.64 Q1477.68 1017.64 1481.24 1019.62 Q1484.85 1021.57 1487.2 1025.62 M1461.8 1041.46 Q1461.8 1049.68 1465.16 1054.38 Q1468.57 1059.04 1474.48 1059.04 Q1480.39 1059.04 1483.8 1054.38 Q1487.2 1049.68 1487.2 1041.46 Q1487.2 1033.23 1483.8 1028.58 Q1480.39 1023.88 1474.48 1023.88 Q1468.57 1023.88 1465.16 1028.58 Q1461.8 1033.23 1461.8 1041.46 Z" fill="#000000" fill-rule="evenodd" fill-opacity="1" /><path clip-path="url(#clip100)" d="M1543.59 1057.3 L1543.59 1081.36 L1536.09 1081.36 L1536.09 1018.73 L1543.59 1018.73 L1543.59 1025.62 Q1545.94 1021.57 1549.5 1019.62 Q1553.11 1017.64 1558.09 1017.64 Q1566.35 1017.64 1571.5 1024.2 Q1576.68 1030.76 1576.68 1041.46 Q1576.68 1052.15 1571.5 1058.71 Q1566.35 1065.28 1558.09 1065.28 Q1553.11 1065.28 1549.5 1063.33 Q1545.94 1061.35 1543.59 1057.3 M1568.95 1041.46 Q1568.95 1033.23 1565.54 1028.58 Q1562.18 1023.88 1556.27 1023.88 Q1550.35 1023.88 1546.95 1028.58 Q1543.59 1033.23 1543.59 1041.46 Q1543.59 1049.68 1546.95 1054.38 Q1550.35 1059.04 1556.27 1059.04 Q1562.18 1059.04 1565.54 1054.38 Q1568.95 1049.68 1568.95 1041.46 Z" fill="#000000" fill-rule="evenodd" fill-opacity="1" /><path clip-path="url(#clip100)" d="M1609.66 1041.3 Q1600.63 1041.3 1597.14 1043.36 Q1593.66 1045.43 1593.66 1050.41 Q1593.66 1054.38 1596.25 1056.73 Q1598.88 1059.04 1603.38 1059.04 Q1609.58 1059.04 1613.3 1054.66 Q1617.07 1050.25 1617.07 1042.96 L1617.07 1041.3 L1609.66 1041.3 M1624.53 1038.22 L1624.53 1064.1 L1617.07 1064.1 L1617.07 1057.22 Q1614.52 1061.35 1610.71 1063.33 Q1606.9 1065.28 1601.39 1065.28 Q1594.43 1065.28 1590.3 1061.39 Q1586.2 1057.46 1586.2 1050.9 Q1586.2 1043.24 1591.31 1039.35 Q1596.45 1035.46 1606.62 1035.46 L1617.07 1035.46 L1617.07 1034.73 Q1617.07 1029.59 1613.67 1026.79 Q1610.31 1023.96 1604.19 1023.96 Q1600.3 1023.96 1596.61 1024.89 Q1592.93 1025.82 1589.53 1027.68 L1589.53 1020.8 Q1593.62 1019.22 1597.47 1018.45 Q1601.31 1017.64 1604.96 1017.64 Q1614.8 1017.64 1619.66 1022.74 Q1624.53 1027.85 1624.53 1038.22 Z" fill="#000000" fill-rule="evenodd" fill-opacity="1" /><path clip-path="url(#clip100)" d="M1647.25 1005.85 L1647.25 1018.73 L1662.6 1018.73 L1662.6 1024.53 L1647.25 1024.53 L1647.25 1049.15 Q1647.25 1054.7 1648.75 1056.28 Q1650.29 1057.86 1654.95 1057.86 L1662.6 1057.86 L1662.6 1064.1 L1654.95 1064.1 Q1646.32 1064.1 1643.04 1060.9 Q1639.76 1057.66 1639.76 1049.15 L1639.76 1024.53 L1634.29 1024.53 L1634.29 1018.73 L1639.76 1018.73 L1639.76 1005.85 L1647.25 1005.85 Z" fill="#000000" fill-rule="evenodd" fill-opacity="1" /><path clip-path="url(#clip100)" d="M1710.12 1036.72 L1710.12 1064.1 L1702.67 1064.1 L1702.67 1036.96 Q1702.67 1030.52 1700.16 1027.32 Q1697.64 1024.12 1692.62 1024.12 Q1686.59 1024.12 1683.1 1027.97 Q1679.62 1031.82 1679.62 1038.46 L1679.62 1064.1 L1672.12 1064.1 L1672.12 1001.07 L1679.62 1001.07 L1679.62 1025.78 Q1682.29 1021.69 1685.9 1019.66 Q1689.54 1017.64 1694.28 1017.64 Q1702.1 1017.64 1706.11 1022.5 Q1710.12 1027.32 1710.12 1036.72 Z" fill="#000000" fill-rule="evenodd" fill-opacity="1" /><path clip-path="url(#clip100)" d="M1768.94 1023.96 Q1762.94 1023.96 1759.46 1028.66 Q1755.98 1033.32 1755.98 1041.46 Q1755.98 1049.6 1759.42 1054.3 Q1762.9 1058.96 1768.94 1058.96 Q1774.89 1058.96 1778.38 1054.26 Q1781.86 1049.56 1781.86 1041.46 Q1781.86 1033.4 1778.38 1028.7 Q1774.89 1023.96 1768.94 1023.96 M1768.94 1017.64 Q1778.66 1017.64 1784.21 1023.96 Q1789.76 1030.28 1789.76 1041.46 Q1789.76 1052.6 1784.21 1058.96 Q1778.66 1065.28 1768.94 1065.28 Q1759.18 1065.28 1753.63 1058.96 Q1748.12 1052.6 1748.12 1041.46 Q1748.12 1030.28 1753.63 1023.96 Q1759.18 1017.64 1768.94 1017.64 Z" fill="#000000" fill-rule="evenodd" fill-opacity="1" /><path clip-path="url(#clip100)" d="M1825.09 1001.07 L1825.09 1007.27 L1817.96 1007.27 Q1813.95 1007.27 1812.37 1008.89 Q1810.83 1010.51 1810.83 1014.72 L1810.83 1018.73 L1823.1 1018.73 L1823.1 1024.53 L1810.83 1024.53 L1810.83 1064.1 L1803.33 1064.1 L1803.33 1024.53 L1796.2 1024.53 L1796.2 1018.73 L1803.33 1018.73 L1803.33 1015.57 Q1803.33 1008 1806.86 1004.55 Q1810.38 1001.07 1818.04 1001.07 L1825.09 1001.07 Z" fill="#000000" fill-rule="evenodd" fill-opacity="1" /><path clip-path="url(#clip100)" d="M1891.69 1032.54 Q1891.69 1034.84 1890.25 1036.15 Q1888.82 1037.42 1887.18 1037.42 Q1885.62 1037.42 1884.8 1036.52 Q1883.98 1035.61 1883.98 1034.47 Q1883.98 1032.91 1885.13 1031.56 Q1886.28 1030.2 1888 1029.92 Q1886.32 1028.85 1883.82 1028.85 Q1882.18 1028.85 1880.74 1029.71 Q1879.35 1030.57 1878.49 1031.68 Q1877.67 1032.79 1876.93 1034.39 Q1876.23 1035.94 1875.95 1036.89 Q1875.7 1037.79 1875.5 1038.77 L1872.63 1050.25 Q1871.23 1055.7 1871.23 1057.63 Q1871.23 1060 1872.38 1061.6 Q1873.53 1063.16 1875.82 1063.16 Q1876.73 1063.16 1877.75 1062.91 Q1878.77 1062.63 1880.09 1061.89 Q1881.44 1061.11 1882.63 1059.96 Q1883.86 1058.77 1885.05 1056.77 Q1886.23 1054.76 1887.01 1052.17 Q1887.26 1051.27 1888.08 1051.27 Q1889.1 1051.27 1889.1 1052.09 Q1889.1 1052.79 1888.53 1054.26 Q1888 1055.7 1886.81 1057.59 Q1885.66 1059.43 1884.14 1061.11 Q1882.63 1062.75 1880.37 1063.9 Q1878.12 1065.05 1875.66 1065.05 Q1872.13 1065.05 1869.8 1063.16 Q1867.46 1061.27 1866.6 1058.65 Q1866.4 1059.02 1866.11 1059.51 Q1865.82 1060 1864.96 1061.11 Q1864.14 1062.18 1863.2 1063 Q1862.26 1063.77 1860.78 1064.39 Q1859.35 1065.05 1857.79 1065.05 Q1855.82 1065.05 1854.06 1064.47 Q1852.34 1063.9 1851.11 1062.59 Q1849.88 1061.27 1849.88 1059.47 Q1849.88 1057.46 1851.23 1056.07 Q1852.62 1054.63 1854.51 1054.63 Q1855.7 1054.63 1856.64 1055.33 Q1857.62 1056.03 1857.62 1057.54 Q1857.62 1059.22 1856.48 1060.5 Q1855.33 1061.77 1853.69 1062.09 Q1855.37 1063.16 1857.87 1063.16 Q1860.58 1063.16 1862.71 1060.78 Q1864.84 1058.4 1865.86 1054.43 Q1868.4 1044.88 1869.39 1040.62 Q1870.37 1036.31 1870.37 1034.47 Q1870.37 1032.75 1869.92 1031.56 Q1869.47 1030.37 1868.69 1029.84 Q1867.95 1029.26 1867.26 1029.06 Q1866.6 1028.85 1865.86 1028.85 Q1864.63 1028.85 1863.24 1029.34 Q1861.89 1029.84 1860.25 1030.98 Q1858.65 1032.09 1857.13 1034.39 Q1855.62 1036.68 1854.59 1039.84 Q1854.39 1040.78 1853.48 1040.78 Q1852.5 1040.74 1852.5 1039.92 Q1852.5 1039.22 1853.03 1037.79 Q1853.61 1036.31 1854.75 1034.47 Q1855.94 1032.62 1857.46 1030.98 Q1859.02 1029.3 1861.27 1028.15 Q1863.57 1027.01 1866.03 1027.01 Q1867.13 1027.01 1868.2 1027.25 Q1869.31 1027.46 1870.62 1028.07 Q1871.97 1028.69 1873.16 1030.04 Q1874.35 1031.39 1875.09 1033.36 Q1875.58 1032.42 1876.23 1031.52 Q1876.93 1030.61 1878 1029.51 Q1879.1 1028.36 1880.62 1027.7 Q1882.18 1027.01 1883.9 1027.01 Q1885.58 1027.01 1887.22 1027.46 Q1888.86 1027.87 1890.25 1029.22 Q1891.69 1030.53 1891.69 1032.54 Z" fill="#000000" fill-rule="evenodd" fill-opacity="1" /><path clip-path="url(#clip100)" d="M1918.28 1062.22 Q1918.28 1063.02 1917.91 1063.22 Q1917.54 1063.39 1916.5 1063.39 L1911 1063.39 L1906.63 1080.72 Q1906.29 1082.24 1906.29 1083.53 Q1906.29 1084.97 1906.72 1085.6 Q1907.18 1086.23 1908.13 1086.23 Q1909.99 1086.23 1912 1084.54 Q1914.04 1082.84 1915.76 1078.71 Q1915.99 1078.17 1916.1 1078.05 Q1916.25 1077.91 1916.62 1077.91 Q1917.34 1077.91 1917.34 1078.48 Q1917.34 1078.68 1916.93 1079.6 Q1916.56 1080.52 1915.73 1081.87 Q1914.93 1083.22 1913.86 1084.48 Q1912.83 1085.74 1911.25 1086.66 Q1909.68 1087.55 1907.98 1087.55 Q1905.6 1087.55 1904.08 1086.03 Q1902.59 1084.51 1902.59 1082.13 Q1902.59 1081.35 1903.19 1078.89 Q1903.79 1076.39 1907.06 1063.39 L1901.87 1063.39 Q1901.15 1063.39 1900.87 1063.36 Q1900.61 1063.33 1900.41 1063.19 Q1900.24 1063.02 1900.24 1062.67 Q1900.24 1062.13 1900.47 1061.9 Q1900.69 1061.64 1900.98 1061.61 Q1901.3 1061.56 1902.01 1061.56 L1907.52 1061.56 L1909.82 1052.23 Q1910.05 1051.31 1910.62 1050.8 Q1911.22 1050.25 1911.57 1050.19 Q1911.91 1050.11 1912.17 1050.11 Q1912.95 1050.11 1913.41 1050.54 Q1913.86 1050.94 1913.86 1051.68 Q1913.86 1052.09 1911.45 1061.56 L1916.62 1061.56 Q1917.28 1061.56 1917.54 1061.58 Q1917.82 1061.61 1918.05 1061.76 Q1918.28 1061.9 1918.28 1062.22 Z" fill="#000000" fill-rule="evenodd" fill-opacity="1" /><polyline clip-path="url(#clip103)" style="stroke:#008000; stroke-linecap:butt; stroke-linejoin:round; stroke-width:8; stroke-opacity:1; fill:none" points="
  298.921,1455.85 314.91,1653.3 330.899,1386.8 346.888,1258.36 362.877,1351.24 378.866,1568.85 394.855,1529.22 410.844,1472.91 426.833,1373.98 442.822,1669.89 
  458.811,1569.68 474.8,1581.2 490.789,1459.62 506.778,1558.28 522.767,1544.02 538.756,1428.43 554.745,1444.26 570.734,1479.26 586.723,1483.73 602.712,1670.71 
  618.701,1591.62 634.69,1286.19 650.679,1324.62 666.668,1235.07 682.657,1389.71 698.646,1338.54 714.635,1369.01 730.624,1298.29 746.613,1151.44 762.602,1362.82 
  778.591,1502.12 794.58,1453.97 810.569,1349.41 826.558,1187.81 842.547,1275.72 858.536,1321.71 874.525,1349.63 890.514,1288.29 906.504,1226.46 922.493,1344.12 
  938.482,1606.73 954.471,1413.08 970.46,1414.06 986.449,1333.14 1002.44,1479.63 1018.43,1654.41 1034.42,1444.31 1050.4,1203.41 1066.39,1360.93 1082.38,1683.88 
  1098.37,1282 1114.36,1180.69 1130.35,1276.46 1146.34,1546.27 1162.33,1576.73 1178.32,1289.91 1194.31,1212.04 1210.29,1358.52 1226.28,1582.37 1242.27,1464.37 
  1258.26,1168.97 1274.25,1220.36 1290.24,1534.78 1306.23,1728.46 1322.22,1397.45 1338.21,1377.46 1354.2,1356.26 1370.19,1519.41 1386.17,1687.27 1402.16,1371.08 
  1418.15,1453.49 1434.14,1500.22 1450.13,1615.78 1466.12,1546.44 1482.11,1331.36 1498.1,1316.81 1514.09,1533.64 1530.08,1530.01 1546.06,1324.75 1562.05,1322.71 
  1578.04,1571.5 1594.03,1509.09 1610.02,1593.3 1626.01,1316.12 1642,1434.56 1657.99,1544.1 1673.98,1468.21 1689.97,1292.05 1705.95,1442.05 1721.94,1436.21 
  1737.93,1398.01 1753.92,1397.32 1769.91,1448.39 1785.9,1476.1 1801.89,1363.31 1817.88,1365.21 1833.87,1312.68 1849.86,1562.07 1865.84,1428.26 1881.83,1435.1 
  1897.82,1537.12 1913.81,1387.34 1929.8,1318.45 1945.79,1442.9 1961.78,1646.9 1977.77,1772.15 1993.76,1520.53 2009.75,1209.63 2025.74,1396.17 2041.72,1573.27 
  2057.71,1634.14 2073.7,1421.25 2089.69,1380.55 2105.68,1482.94 2121.67,1858.69 2137.66,1728.6 2153.65,1344.72 2169.64,1535.4 2185.63,1759.33 2201.61,1689.11 
  2217.6,1545.05 2233.59,1606.65 2249.58,1698.86 2265.57,1742.14 2281.56,1551.36 2297.55,1539.76 2313.54,1733.59 2329.53,1778.03 2345.52,1503.27 2361.5,1294.17 
  2377.49,1492.22 2393.48,1531.2 2409.47,1294.82 2425.46,1190.65 2441.45,1539.46 2457.44,1562.51 2473.43,1149.08 2489.42,1416.57 2505.41,1737.98 2521.39,1462.98 
  2537.38,1324.45 2553.37,1354.02 2569.36,1627.12 2585.35,1549.37 2601.34,1445.28 2617.33,1235.76 2633.32,1582.52 2649.31,1433.01 2665.3,1418.34 2681.28,1386.98 
  
  "/>
<polyline clip-path="url(#clip103)" style="stroke:#000000; stroke-linecap:butt; stroke-linejoin:round; stroke-width:8; stroke-opacity:1; fill:none" stroke-dasharray="32, 16, 4, 16" points="
  -2297.86,1455.85 5278.06,1455.85 
  "/>
</svg>
