<?xml version="1.0" encoding="utf-8"?>
<svg xmlns="http://www.w3.org/2000/svg" xmlns:xlink="http://www.w3.org/1999/xlink" width="600" height="400" viewBox="0 0 2400 1600">
<defs>
  <clipPath id="clip530">
    <rect x="0" y="0" width="2400" height="1600"/>
  </clipPath>
</defs>
<path clip-path="url(#clip530)" d="
M0 1600 L2400 1600 L2400 0 L0 0  Z
  " fill="#ffffff" fill-rule="evenodd" fill-opacity="1"/>
<defs>
  <clipPath id="clip531">
    <rect x="480" y="0" width="1681" height="1600"/>
  </clipPath>
</defs>
<path clip-path="url(#clip530)" d="
M249.542 1423.18 L2352.76 1423.18 L2352.76 135.025 L249.542 135.025  Z
  " fill="#ffffff" fill-rule="evenodd" fill-opacity="1"/>
<defs>
  <clipPath id="clip532">
    <rect x="249" y="135" width="2104" height="1289"/>
  </clipPath>
</defs>
<polyline clip-path="url(#clip532)" style="stroke:#000000; stroke-linecap:round; stroke-linejoin:round; stroke-width:2; stroke-opacity:0.1; fill:none" points="
  586.668,1423.18 586.668,135.025 
  "/>
<polyline clip-path="url(#clip532)" style="stroke:#000000; stroke-linecap:round; stroke-linejoin:round; stroke-width:2; stroke-opacity:0.1; fill:none" points="
  1155.52,1423.18 1155.52,135.025 
  "/>
<polyline clip-path="url(#clip532)" style="stroke:#000000; stroke-linecap:round; stroke-linejoin:round; stroke-width:2; stroke-opacity:0.1; fill:none" points="
  1724.38,1423.18 1724.38,135.025 
  "/>
<polyline clip-path="url(#clip532)" style="stroke:#000000; stroke-linecap:round; stroke-linejoin:round; stroke-width:2; stroke-opacity:0.1; fill:none" points="
  2293.23,1423.18 2293.23,135.025 
  "/>
<polyline clip-path="url(#clip530)" style="stroke:#000000; stroke-linecap:round; stroke-linejoin:round; stroke-width:4; stroke-opacity:1; fill:none" points="
  249.542,1423.18 2352.76,1423.18 
  "/>
<polyline clip-path="url(#clip530)" style="stroke:#000000; stroke-linecap:round; stroke-linejoin:round; stroke-width:4; stroke-opacity:1; fill:none" points="
  586.668,1423.18 586.668,1404.28 
  "/>
<polyline clip-path="url(#clip530)" style="stroke:#000000; stroke-linecap:round; stroke-linejoin:round; stroke-width:4; stroke-opacity:1; fill:none" points="
  1155.52,1423.18 1155.52,1404.28 
  "/>
<polyline clip-path="url(#clip530)" style="stroke:#000000; stroke-linecap:round; stroke-linejoin:round; stroke-width:4; stroke-opacity:1; fill:none" points="
  1724.38,1423.18 1724.38,1404.28 
  "/>
<polyline clip-path="url(#clip530)" style="stroke:#000000; stroke-linecap:round; stroke-linejoin:round; stroke-width:4; stroke-opacity:1; fill:none" points="
  2293.23,1423.18 2293.23,1404.28 
  "/>
<path clip-path="url(#clip530)" d="M533.52 1468.75 L563.196 1468.75 L563.196 1472.69 L533.52 1472.69 L533.52 1468.75 Z" fill="#000000" fill-rule="evenodd" fill-opacity="1" /><path clip-path="url(#clip530)" d="M583.288 1454.1 Q579.677 1454.1 577.848 1457.66 Q576.043 1461.2 576.043 1468.33 Q576.043 1475.44 577.848 1479.01 Q579.677 1482.55 583.288 1482.55 Q586.923 1482.55 588.728 1479.01 Q590.557 1475.44 590.557 1468.33 Q590.557 1461.2 588.728 1457.66 Q586.923 1454.1 583.288 1454.1 M583.288 1450.39 Q589.098 1450.39 592.154 1455 Q595.233 1459.58 595.233 1468.33 Q595.233 1477.06 592.154 1481.67 Q589.098 1486.25 583.288 1486.25 Q577.478 1486.25 574.399 1481.67 Q571.344 1477.06 571.344 1468.33 Q571.344 1459.58 574.399 1455 Q577.478 1450.39 583.288 1450.39 Z" fill="#000000" fill-rule="evenodd" fill-opacity="1" /><path clip-path="url(#clip530)" d="M603.45 1479.7 L608.334 1479.7 L608.334 1485.58 L603.45 1485.58 L603.45 1479.7 Z" fill="#000000" fill-rule="evenodd" fill-opacity="1" /><path clip-path="url(#clip530)" d="M632.686 1466.95 Q636.043 1467.66 637.918 1469.93 Q639.816 1472.2 639.816 1475.53 Q639.816 1480.65 636.297 1483.45 Q632.779 1486.25 626.297 1486.25 Q624.121 1486.25 621.807 1485.81 Q619.515 1485.39 617.061 1484.54 L617.061 1480.02 Q619.006 1481.16 621.32 1481.74 Q623.635 1482.32 626.158 1482.32 Q630.557 1482.32 632.848 1480.58 Q635.163 1478.84 635.163 1475.53 Q635.163 1472.48 633.01 1470.77 Q630.881 1469.03 627.061 1469.03 L623.033 1469.03 L623.033 1465.19 L627.246 1465.19 Q630.695 1465.19 632.524 1463.82 Q634.353 1462.43 634.353 1459.84 Q634.353 1457.18 632.455 1455.77 Q630.58 1454.33 627.061 1454.33 Q625.14 1454.33 622.941 1454.75 Q620.742 1455.16 618.103 1456.04 L618.103 1451.88 Q620.765 1451.14 623.08 1450.77 Q625.418 1450.39 627.478 1450.39 Q632.802 1450.39 635.904 1452.83 Q639.006 1455.23 639.006 1459.35 Q639.006 1462.22 637.362 1464.21 Q635.719 1466.18 632.686 1466.95 Z" fill="#000000" fill-rule="evenodd" fill-opacity="1" /><path clip-path="url(#clip530)" d="M1102.85 1468.75 L1132.52 1468.75 L1132.52 1472.69 L1102.85 1472.69 L1102.85 1468.75 Z" fill="#000000" fill-rule="evenodd" fill-opacity="1" /><path clip-path="url(#clip530)" d="M1152.62 1454.1 Q1149.01 1454.1 1147.18 1457.66 Q1145.37 1461.2 1145.37 1468.33 Q1145.37 1475.44 1147.18 1479.01 Q1149.01 1482.55 1152.62 1482.55 Q1156.25 1482.55 1158.06 1479.01 Q1159.89 1475.44 1159.89 1468.33 Q1159.89 1461.2 1158.06 1457.66 Q1156.25 1454.1 1152.62 1454.1 M1152.62 1450.39 Q1158.43 1450.39 1161.48 1455 Q1164.56 1459.58 1164.56 1468.33 Q1164.56 1477.06 1161.48 1481.67 Q1158.43 1486.25 1152.62 1486.25 Q1146.81 1486.25 1143.73 1481.67 Q1140.67 1477.06 1140.67 1468.33 Q1140.67 1459.58 1143.73 1455 Q1146.81 1450.39 1152.62 1450.39 Z" fill="#000000" fill-rule="evenodd" fill-opacity="1" /><path clip-path="url(#clip530)" d="M1172.78 1479.7 L1177.66 1479.7 L1177.66 1485.58 L1172.78 1485.58 L1172.78 1479.7 Z" fill="#000000" fill-rule="evenodd" fill-opacity="1" /><path clip-path="url(#clip530)" d="M1191.88 1481.64 L1208.2 1481.64 L1208.2 1485.58 L1186.25 1485.58 L1186.25 1481.64 Q1188.91 1478.89 1193.5 1474.26 Q1198.1 1469.61 1199.28 1468.27 Q1201.53 1465.74 1202.41 1464.01 Q1203.31 1462.25 1203.31 1460.56 Q1203.31 1457.8 1201.37 1456.07 Q1199.45 1454.33 1196.34 1454.33 Q1194.14 1454.33 1191.69 1455.09 Q1189.26 1455.86 1186.48 1457.41 L1186.48 1452.69 Q1189.31 1451.55 1191.76 1450.97 Q1194.21 1450.39 1196.25 1450.39 Q1201.62 1450.39 1204.82 1453.08 Q1208.01 1455.77 1208.01 1460.26 Q1208.01 1462.39 1207.2 1464.31 Q1206.41 1466.2 1204.31 1468.8 Q1203.73 1469.47 1200.63 1472.69 Q1197.52 1475.88 1191.88 1481.64 Z" fill="#000000" fill-rule="evenodd" fill-opacity="1" /><path clip-path="url(#clip530)" d="M1671.52 1468.75 L1701.19 1468.75 L1701.19 1472.69 L1671.52 1472.69 L1671.52 1468.75 Z" fill="#000000" fill-rule="evenodd" fill-opacity="1" /><path clip-path="url(#clip530)" d="M1721.29 1454.1 Q1717.68 1454.1 1715.85 1457.66 Q1714.04 1461.2 1714.04 1468.33 Q1714.04 1475.44 1715.85 1479.01 Q1717.68 1482.55 1721.29 1482.55 Q1724.92 1482.55 1726.73 1479.01 Q1728.55 1475.44 1728.55 1468.33 Q1728.55 1461.2 1726.73 1457.66 Q1724.92 1454.1 1721.29 1454.1 M1721.29 1450.39 Q1727.1 1450.39 1730.15 1455 Q1733.23 1459.58 1733.23 1468.33 Q1733.23 1477.06 1730.15 1481.67 Q1727.1 1486.25 1721.29 1486.25 Q1715.48 1486.25 1712.4 1481.67 Q1709.34 1477.06 1709.34 1468.33 Q1709.34 1459.58 1712.4 1455 Q1715.48 1450.39 1721.29 1450.39 Z" fill="#000000" fill-rule="evenodd" fill-opacity="1" /><path clip-path="url(#clip530)" d="M1741.45 1479.7 L1746.33 1479.7 L1746.33 1485.58 L1741.45 1485.58 L1741.45 1479.7 Z" fill="#000000" fill-rule="evenodd" fill-opacity="1" /><path clip-path="url(#clip530)" d="M1757.33 1481.64 L1764.97 1481.64 L1764.97 1455.28 L1756.66 1456.95 L1756.66 1452.69 L1764.92 1451.02 L1769.6 1451.02 L1769.6 1481.64 L1777.24 1481.64 L1777.24 1485.58 L1757.33 1485.58 L1757.33 1481.64 Z" fill="#000000" fill-rule="evenodd" fill-opacity="1" /><path clip-path="url(#clip530)" d="M2270.62 1454.1 Q2267 1454.1 2265.18 1457.66 Q2263.37 1461.2 2263.37 1468.33 Q2263.37 1475.44 2265.18 1479.01 Q2267 1482.55 2270.62 1482.55 Q2274.25 1482.55 2276.06 1479.01 Q2277.88 1475.44 2277.88 1468.33 Q2277.88 1461.2 2276.06 1457.66 Q2274.25 1454.1 2270.62 1454.1 M2270.62 1450.39 Q2276.43 1450.39 2279.48 1455 Q2282.56 1459.58 2282.56 1468.33 Q2282.56 1477.06 2279.48 1481.67 Q2276.43 1486.25 2270.62 1486.25 Q2264.81 1486.25 2261.73 1481.67 Q2258.67 1477.06 2258.67 1468.33 Q2258.67 1459.58 2261.73 1455 Q2264.81 1450.39 2270.62 1450.39 Z" fill="#000000" fill-rule="evenodd" fill-opacity="1" /><path clip-path="url(#clip530)" d="M2290.78 1479.7 L2295.66 1479.7 L2295.66 1485.58 L2290.78 1485.58 L2290.78 1479.7 Z" fill="#000000" fill-rule="evenodd" fill-opacity="1" /><path clip-path="url(#clip530)" d="M2315.85 1454.1 Q2312.24 1454.1 2310.41 1457.66 Q2308.6 1461.2 2308.6 1468.33 Q2308.6 1475.44 2310.41 1479.01 Q2312.24 1482.55 2315.85 1482.55 Q2319.48 1482.55 2321.29 1479.01 Q2323.12 1475.44 2323.12 1468.33 Q2323.12 1461.2 2321.29 1457.66 Q2319.48 1454.1 2315.85 1454.1 M2315.85 1450.39 Q2321.66 1450.39 2324.71 1455 Q2327.79 1459.58 2327.79 1468.33 Q2327.79 1477.06 2324.71 1481.67 Q2321.66 1486.25 2315.85 1486.25 Q2310.04 1486.25 2306.96 1481.67 Q2303.9 1477.06 2303.9 1468.33 Q2303.9 1459.58 2306.96 1455 Q2310.04 1450.39 2315.85 1450.39 Z" fill="#000000" fill-rule="evenodd" fill-opacity="1" /><path clip-path="url(#clip530)" d="M1313.52 1537.88 Q1313.52 1540.87 1311.46 1543.58 Q1309.43 1546.25 1306.34 1547.96 Q1303.24 1549.63 1299.73 1550.28 Q1304.47 1550.82 1307.21 1553.4 Q1309.97 1555.98 1309.97 1559.58 Q1309.97 1562 1308.56 1564.54 Q1307.17 1567.06 1304.79 1569.12 Q1302.44 1571.18 1298.96 1572.5 Q1295.51 1573.82 1291.75 1573.82 L1268.2 1573.82 Q1267.46 1573.82 1267.17 1573.79 Q1266.88 1573.75 1266.66 1573.59 Q1266.43 1573.43 1266.43 1573.08 Q1266.43 1572.43 1266.66 1572.14 Q1266.92 1571.85 1267.21 1571.82 Q1267.5 1571.79 1268.2 1571.79 Q1269.81 1571.79 1270.78 1571.69 Q1271.75 1571.6 1272.36 1571.47 Q1273 1571.31 1273.32 1570.86 Q1273.68 1570.4 1273.84 1570.02 Q1274 1569.6 1274.23 1568.67 L1283.05 1533.24 Q1283.31 1532.18 1283.31 1532.02 Q1283.31 1531.4 1282.92 1531.24 Q1282.57 1531.05 1281.54 1530.95 L1279.02 1530.82 Q1278.25 1530.82 1277.93 1530.79 Q1277.64 1530.76 1277.41 1530.6 Q1277.19 1530.44 1277.19 1530.08 Q1277.19 1529.18 1277.58 1528.99 Q1277.99 1528.76 1279.09 1528.76 L1301.25 1528.76 Q1306.95 1528.76 1310.23 1531.4 Q1313.52 1534.01 1313.52 1537.88 M1307.53 1537.62 Q1307.53 1536.4 1307.21 1535.3 Q1306.88 1534.21 1306.11 1533.14 Q1305.37 1532.08 1303.89 1531.47 Q1302.41 1530.82 1300.35 1530.82 L1291.81 1530.82 Q1289.72 1530.82 1289.2 1531.21 Q1288.72 1531.56 1288.27 1533.34 L1284.18 1549.66 L1293.81 1549.66 Q1296.74 1549.66 1299.31 1548.6 Q1301.92 1547.54 1303.69 1545.83 Q1305.47 1544.09 1306.5 1541.93 Q1307.53 1539.78 1307.53 1537.62 M1303.82 1558.84 Q1303.82 1557.88 1303.66 1556.94 Q1303.5 1556.01 1302.99 1554.91 Q1302.47 1553.82 1301.67 1553.01 Q1300.86 1552.21 1299.44 1551.66 Q1298.06 1551.11 1296.26 1551.11 L1283.79 1551.11 L1279.22 1569.54 Q1278.9 1570.73 1278.9 1571.05 Q1278.9 1571.4 1279.06 1571.53 Q1279.25 1571.63 1279.77 1571.69 Q1280.35 1571.79 1281.21 1571.79 L1290.17 1571.79 Q1293 1571.79 1295.58 1570.69 Q1298.16 1569.57 1299.93 1567.76 Q1301.73 1565.96 1302.76 1563.61 Q1303.82 1561.26 1303.82 1558.84 Z" fill="#000000" fill-rule="evenodd" fill-opacity="1" /><path clip-path="url(#clip530)" d="M1328.91 1506.68 Q1328.91 1507.22 1328.64 1507.56 L1321.34 1519.6 L1320.1 1519.6 L1325.64 1505.89 Q1325.78 1505.48 1326.21 1505.21 Q1326.64 1504.92 1327.15 1504.92 Q1327.88 1504.92 1328.39 1505.44 Q1328.91 1505.96 1328.91 1506.68 Z" fill="#000000" fill-rule="evenodd" fill-opacity="1" /><polyline clip-path="url(#clip532)" style="stroke:#000000; stroke-linecap:round; stroke-linejoin:round; stroke-width:2; stroke-opacity:0.1; fill:none" points="
  249.542,1386.75 2352.76,1386.75 
  "/>
<polyline clip-path="url(#clip532)" style="stroke:#000000; stroke-linecap:round; stroke-linejoin:round; stroke-width:2; stroke-opacity:0.1; fill:none" points="
  249.542,1077.77 2352.76,1077.77 
  "/>
<polyline clip-path="url(#clip532)" style="stroke:#000000; stroke-linecap:round; stroke-linejoin:round; stroke-width:2; stroke-opacity:0.1; fill:none" points="
  249.542,768.787 2352.76,768.787 
  "/>
<polyline clip-path="url(#clip532)" style="stroke:#000000; stroke-linecap:round; stroke-linejoin:round; stroke-width:2; stroke-opacity:0.1; fill:none" points="
  249.542,459.805 2352.76,459.805 
  "/>
<polyline clip-path="url(#clip532)" style="stroke:#000000; stroke-linecap:round; stroke-linejoin:round; stroke-width:2; stroke-opacity:0.1; fill:none" points="
  249.542,150.823 2352.76,150.823 
  "/>
<polyline clip-path="url(#clip530)" style="stroke:#000000; stroke-linecap:round; stroke-linejoin:round; stroke-width:4; stroke-opacity:1; fill:none" points="
  249.542,1423.18 249.542,135.025 
  "/>
<polyline clip-path="url(#clip530)" style="stroke:#000000; stroke-linecap:round; stroke-linejoin:round; stroke-width:4; stroke-opacity:1; fill:none" points="
  249.542,1386.75 268.44,1386.75 
  "/>
<polyline clip-path="url(#clip530)" style="stroke:#000000; stroke-linecap:round; stroke-linejoin:round; stroke-width:4; stroke-opacity:1; fill:none" points="
  249.542,1077.77 268.44,1077.77 
  "/>
<polyline clip-path="url(#clip530)" style="stroke:#000000; stroke-linecap:round; stroke-linejoin:round; stroke-width:4; stroke-opacity:1; fill:none" points="
  249.542,768.787 268.44,768.787 
  "/>
<polyline clip-path="url(#clip530)" style="stroke:#000000; stroke-linecap:round; stroke-linejoin:round; stroke-width:4; stroke-opacity:1; fill:none" points="
  249.542,459.805 268.44,459.805 
  "/>
<polyline clip-path="url(#clip530)" style="stroke:#000000; stroke-linecap:round; stroke-linejoin:round; stroke-width:4; stroke-opacity:1; fill:none" points="
  249.542,150.823 268.44,150.823 
  "/>
<path clip-path="url(#clip530)" d="M126.205 1372.55 Q122.593 1372.55 120.765 1376.11 Q118.959 1379.66 118.959 1386.79 Q118.959 1393.89 120.765 1397.46 Q122.593 1401 126.205 1401 Q129.839 1401 131.644 1397.46 Q133.473 1393.89 133.473 1386.79 Q133.473 1379.66 131.644 1376.11 Q129.839 1372.55 126.205 1372.55 M126.205 1368.85 Q132.015 1368.85 135.07 1373.45 Q138.149 1378.04 138.149 1386.79 Q138.149 1395.51 135.07 1400.12 Q132.015 1404.7 126.205 1404.7 Q120.394 1404.7 117.316 1400.12 Q114.26 1395.51 114.26 1386.79 Q114.26 1378.04 117.316 1373.45 Q120.394 1368.85 126.205 1368.85 Z" fill="#000000" fill-rule="evenodd" fill-opacity="1" /><path clip-path="url(#clip530)" d="M146.366 1398.15 L151.251 1398.15 L151.251 1404.03 L146.366 1404.03 L146.366 1398.15 Z" fill="#000000" fill-rule="evenodd" fill-opacity="1" /><path clip-path="url(#clip530)" d="M171.436 1372.55 Q167.825 1372.55 165.996 1376.11 Q164.19 1379.66 164.19 1386.79 Q164.19 1393.89 165.996 1397.46 Q167.825 1401 171.436 1401 Q175.07 1401 176.876 1397.46 Q178.704 1393.89 178.704 1386.79 Q178.704 1379.66 176.876 1376.11 Q175.07 1372.55 171.436 1372.55 M171.436 1368.85 Q177.246 1368.85 180.301 1373.45 Q183.38 1378.04 183.38 1386.79 Q183.38 1395.51 180.301 1400.12 Q177.246 1404.7 171.436 1404.7 Q165.626 1404.7 162.547 1400.12 Q159.491 1395.51 159.491 1386.79 Q159.491 1378.04 162.547 1373.45 Q165.626 1368.85 171.436 1368.85 Z" fill="#000000" fill-rule="evenodd" fill-opacity="1" /><path clip-path="url(#clip530)" d="M201.598 1372.55 Q197.987 1372.55 196.158 1376.11 Q194.352 1379.66 194.352 1386.79 Q194.352 1393.89 196.158 1397.46 Q197.987 1401 201.598 1401 Q205.232 1401 207.037 1397.46 Q208.866 1393.89 208.866 1386.79 Q208.866 1379.66 207.037 1376.11 Q205.232 1372.55 201.598 1372.55 M201.598 1368.85 Q207.408 1368.85 210.463 1373.45 Q213.542 1378.04 213.542 1386.79 Q213.542 1395.51 210.463 1400.12 Q207.408 1404.7 201.598 1404.7 Q195.787 1404.7 192.709 1400.12 Q189.653 1395.51 189.653 1386.79 Q189.653 1378.04 192.709 1373.45 Q195.787 1368.85 201.598 1368.85 Z" fill="#000000" fill-rule="evenodd" fill-opacity="1" /><path clip-path="url(#clip530)" d="M127.2 1063.57 Q123.589 1063.57 121.76 1067.13 Q119.955 1070.67 119.955 1077.8 Q119.955 1084.91 121.76 1088.47 Q123.589 1092.02 127.2 1092.02 Q130.834 1092.02 132.64 1088.47 Q134.468 1084.91 134.468 1077.8 Q134.468 1070.67 132.64 1067.13 Q130.834 1063.57 127.2 1063.57 M127.2 1059.86 Q133.01 1059.86 136.066 1064.47 Q139.144 1069.05 139.144 1077.8 Q139.144 1086.53 136.066 1091.14 Q133.01 1095.72 127.2 1095.72 Q121.39 1095.72 118.311 1091.14 Q115.256 1086.53 115.256 1077.8 Q115.256 1069.05 118.311 1064.47 Q121.39 1059.86 127.2 1059.86 Z" fill="#000000" fill-rule="evenodd" fill-opacity="1" /><path clip-path="url(#clip530)" d="M147.362 1089.17 L152.246 1089.17 L152.246 1095.05 L147.362 1095.05 L147.362 1089.17 Z" fill="#000000" fill-rule="evenodd" fill-opacity="1" /><path clip-path="url(#clip530)" d="M166.459 1091.11 L182.778 1091.11 L182.778 1095.05 L160.834 1095.05 L160.834 1091.11 Q163.496 1088.36 168.079 1083.73 Q172.686 1079.08 173.866 1077.73 Q176.112 1075.21 176.991 1073.47 Q177.894 1071.72 177.894 1070.03 Q177.894 1067.27 175.95 1065.53 Q174.028 1063.8 170.927 1063.8 Q168.727 1063.8 166.274 1064.56 Q163.843 1065.33 161.065 1066.88 L161.065 1062.16 Q163.89 1061.02 166.343 1060.44 Q168.797 1059.86 170.834 1059.86 Q176.204 1059.86 179.399 1062.55 Q182.593 1065.23 182.593 1069.72 Q182.593 1071.85 181.783 1073.78 Q180.996 1075.67 178.889 1078.27 Q178.311 1078.94 175.209 1082.16 Q172.107 1085.35 166.459 1091.11 Z" fill="#000000" fill-rule="evenodd" fill-opacity="1" /><path clip-path="url(#clip530)" d="M192.639 1060.49 L210.996 1060.49 L210.996 1064.42 L196.922 1064.42 L196.922 1072.9 Q197.94 1072.55 198.959 1072.39 Q199.977 1072.2 200.996 1072.2 Q206.783 1072.2 210.162 1075.37 Q213.542 1078.54 213.542 1083.96 Q213.542 1089.54 210.07 1092.64 Q206.598 1095.72 200.278 1095.72 Q198.102 1095.72 195.834 1095.35 Q193.588 1094.98 191.181 1094.24 L191.181 1089.54 Q193.264 1090.67 195.487 1091.23 Q197.709 1091.78 200.186 1091.78 Q204.19 1091.78 206.528 1089.68 Q208.866 1087.57 208.866 1083.96 Q208.866 1080.35 206.528 1078.24 Q204.19 1076.14 200.186 1076.14 Q198.311 1076.14 196.436 1076.55 Q194.584 1076.97 192.639 1077.85 L192.639 1060.49 Z" fill="#000000" fill-rule="evenodd" fill-opacity="1" /><path clip-path="url(#clip530)" d="M126.205 754.585 Q122.593 754.585 120.765 758.15 Q118.959 761.692 118.959 768.821 Q118.959 775.928 120.765 779.493 Q122.593 783.034 126.205 783.034 Q129.839 783.034 131.644 779.493 Q133.473 775.928 133.473 768.821 Q133.473 761.692 131.644 758.15 Q129.839 754.585 126.205 754.585 M126.205 750.882 Q132.015 750.882 135.07 755.488 Q138.149 760.071 138.149 768.821 Q138.149 777.548 135.07 782.155 Q132.015 786.738 126.205 786.738 Q120.394 786.738 117.316 782.155 Q114.26 777.548 114.26 768.821 Q114.26 760.071 117.316 755.488 Q120.394 750.882 126.205 750.882 Z" fill="#000000" fill-rule="evenodd" fill-opacity="1" /><path clip-path="url(#clip530)" d="M146.366 780.187 L151.251 780.187 L151.251 786.067 L146.366 786.067 L146.366 780.187 Z" fill="#000000" fill-rule="evenodd" fill-opacity="1" /><path clip-path="url(#clip530)" d="M161.482 751.507 L179.839 751.507 L179.839 755.442 L165.765 755.442 L165.765 763.914 Q166.783 763.567 167.802 763.405 Q168.82 763.22 169.839 763.22 Q175.626 763.22 179.005 766.391 Q182.385 769.562 182.385 774.979 Q182.385 780.557 178.913 783.659 Q175.44 786.738 169.121 786.738 Q166.945 786.738 164.677 786.368 Q162.431 785.997 160.024 785.257 L160.024 780.557 Q162.107 781.692 164.329 782.247 Q166.552 782.803 169.028 782.803 Q173.033 782.803 175.371 780.696 Q177.709 778.59 177.709 774.979 Q177.709 771.368 175.371 769.261 Q173.033 767.155 169.028 767.155 Q167.153 767.155 165.278 767.571 Q163.427 767.988 161.482 768.868 L161.482 751.507 Z" fill="#000000" fill-rule="evenodd" fill-opacity="1" /><path clip-path="url(#clip530)" d="M201.598 754.585 Q197.987 754.585 196.158 758.15 Q194.352 761.692 194.352 768.821 Q194.352 775.928 196.158 779.493 Q197.987 783.034 201.598 783.034 Q205.232 783.034 207.037 779.493 Q208.866 775.928 208.866 768.821 Q208.866 761.692 207.037 758.15 Q205.232 754.585 201.598 754.585 M201.598 750.882 Q207.408 750.882 210.463 755.488 Q213.542 760.071 213.542 768.821 Q213.542 777.548 210.463 782.155 Q207.408 786.738 201.598 786.738 Q195.787 786.738 192.709 782.155 Q189.653 777.548 189.653 768.821 Q189.653 760.071 192.709 755.488 Q195.787 750.882 201.598 750.882 Z" fill="#000000" fill-rule="evenodd" fill-opacity="1" /><path clip-path="url(#clip530)" d="M127.2 445.604 Q123.589 445.604 121.76 449.168 Q119.955 452.71 119.955 459.84 Q119.955 466.946 121.76 470.511 Q123.589 474.053 127.2 474.053 Q130.834 474.053 132.64 470.511 Q134.468 466.946 134.468 459.84 Q134.468 452.71 132.64 449.168 Q130.834 445.604 127.2 445.604 M127.2 441.9 Q133.01 441.9 136.066 446.506 Q139.144 451.09 139.144 459.84 Q139.144 468.566 136.066 473.173 Q133.01 477.756 127.2 477.756 Q121.39 477.756 118.311 473.173 Q115.256 468.566 115.256 459.84 Q115.256 451.09 118.311 446.506 Q121.39 441.9 127.2 441.9 Z" fill="#000000" fill-rule="evenodd" fill-opacity="1" /><path clip-path="url(#clip530)" d="M147.362 471.205 L152.246 471.205 L152.246 477.085 L147.362 477.085 L147.362 471.205 Z" fill="#000000" fill-rule="evenodd" fill-opacity="1" /><path clip-path="url(#clip530)" d="M161.251 442.525 L183.473 442.525 L183.473 444.516 L170.927 477.085 L166.042 477.085 L177.848 446.46 L161.251 446.46 L161.251 442.525 Z" fill="#000000" fill-rule="evenodd" fill-opacity="1" /><path clip-path="url(#clip530)" d="M192.639 442.525 L210.996 442.525 L210.996 446.46 L196.922 446.46 L196.922 454.932 Q197.94 454.585 198.959 454.423 Q199.977 454.238 200.996 454.238 Q206.783 454.238 210.162 457.409 Q213.542 460.58 213.542 465.997 Q213.542 471.576 210.07 474.678 Q206.598 477.756 200.278 477.756 Q198.102 477.756 195.834 477.386 Q193.588 477.015 191.181 476.275 L191.181 471.576 Q193.264 472.71 195.487 473.265 Q197.709 473.821 200.186 473.821 Q204.19 473.821 206.528 471.715 Q208.866 469.608 208.866 465.997 Q208.866 462.386 206.528 460.279 Q204.19 458.173 200.186 458.173 Q198.311 458.173 196.436 458.59 Q194.584 459.006 192.639 459.886 L192.639 442.525 Z" fill="#000000" fill-rule="evenodd" fill-opacity="1" /><path clip-path="url(#clip530)" d="M117.015 164.168 L124.654 164.168 L124.654 137.802 L116.343 139.469 L116.343 135.21 L124.607 133.543 L129.283 133.543 L129.283 164.168 L136.922 164.168 L136.922 168.103 L117.015 168.103 L117.015 164.168 Z" fill="#000000" fill-rule="evenodd" fill-opacity="1" /><path clip-path="url(#clip530)" d="M146.366 162.224 L151.251 162.224 L151.251 168.103 L146.366 168.103 L146.366 162.224 Z" fill="#000000" fill-rule="evenodd" fill-opacity="1" /><path clip-path="url(#clip530)" d="M171.436 136.622 Q167.825 136.622 165.996 140.187 Q164.19 143.728 164.19 150.858 Q164.19 157.964 165.996 161.529 Q167.825 165.071 171.436 165.071 Q175.07 165.071 176.876 161.529 Q178.704 157.964 178.704 150.858 Q178.704 143.728 176.876 140.187 Q175.07 136.622 171.436 136.622 M171.436 132.918 Q177.246 132.918 180.301 137.525 Q183.38 142.108 183.38 150.858 Q183.38 159.585 180.301 164.191 Q177.246 168.774 171.436 168.774 Q165.626 168.774 162.547 164.191 Q159.491 159.585 159.491 150.858 Q159.491 142.108 162.547 137.525 Q165.626 132.918 171.436 132.918 Z" fill="#000000" fill-rule="evenodd" fill-opacity="1" /><path clip-path="url(#clip530)" d="M201.598 136.622 Q197.987 136.622 196.158 140.187 Q194.352 143.728 194.352 150.858 Q194.352 157.964 196.158 161.529 Q197.987 165.071 201.598 165.071 Q205.232 165.071 207.037 161.529 Q208.866 157.964 208.866 150.858 Q208.866 143.728 207.037 140.187 Q205.232 136.622 201.598 136.622 M201.598 132.918 Q207.408 132.918 210.463 137.525 Q213.542 142.108 213.542 150.858 Q213.542 159.585 210.463 164.191 Q207.408 168.774 201.598 168.774 Q195.787 168.774 192.709 164.191 Q189.653 159.585 189.653 150.858 Q189.653 142.108 192.709 137.525 Q195.787 132.918 201.598 132.918 Z" fill="#000000" fill-rule="evenodd" fill-opacity="1" /><path clip-path="url(#clip530)" d="M29.4198 766.483 L66.1022 775.597 Q67.2616 775.854 67.5515 775.854 Q67.938 775.854 68.099 775.758 Q68.2922 775.629 68.4533 774.921 Q68.6143 774.18 68.6143 772.698 Q68.6143 772.151 68.6143 771.958 Q68.6143 771.764 68.6787 771.474 Q68.7431 771.185 68.9041 771.088 Q69.0652 770.991 69.3228 770.991 Q70.6433 770.991 70.6433 772.151 Q70.6433 773.246 70.5466 775.532 Q70.45 777.819 70.45 778.946 Q70.45 780.041 70.5466 782.263 Q70.6433 784.486 70.6433 785.548 Q70.6433 785.935 70.45 786.16 Q70.289 786.386 70.0958 786.386 L69.9347 786.418 Q69.033 786.418 68.8075 786.064 Q68.6143 785.709 68.6143 784.904 Q68.5821 782.135 68.1956 781.329 Q67.8091 780.524 66.4243 780.138 L54.6369 777.175 Q58.5983 781.136 58.5983 784.969 Q58.5983 788.672 55.6997 791.184 Q52.769 793.664 48.0347 793.664 Q44.5243 793.664 40.9817 792.279 Q37.439 790.862 34.7659 788.672 Q32.0928 786.45 30.4181 783.552 Q28.7112 780.653 28.7112 777.787 Q28.7112 775.951 29.774 774.309 Q30.8368 772.634 33.3167 771.636 Q31.8996 770.798 30.3537 769.252 Q28.7756 767.706 28.7756 767.159 Q28.7756 766.837 29.0011 766.676 Q29.1943 766.483 29.4198 766.483 M35.9575 772.569 Q35.6355 772.569 34.8303 772.827 Q34.0252 773.053 32.9302 773.568 Q31.803 774.051 30.9978 775.178 Q30.1605 776.305 30.1605 777.787 Q30.1605 779.912 32.2217 782.199 Q34.2506 784.453 37.7933 785.935 Q40.1121 786.869 44.4277 787.932 Q48.7433 788.994 50.9333 788.994 Q51.4486 788.994 52.0283 788.962 Q52.608 788.898 53.5742 788.64 Q54.5403 788.383 55.2811 787.996 Q56.0218 787.577 56.5693 786.74 Q57.1168 785.903 57.1168 784.775 Q57.1168 782.328 55.0234 779.88 Q52.93 777.433 51.0621 776.402 Q50.8689 776.273 43.5581 774.437 Q36.2474 772.569 35.9575 772.569 Z" fill="#000000" fill-rule="evenodd" fill-opacity="1" /><path clip-path="url(#clip530)" d="M744.617 69.1908 L744.617 91.3492 L757.742 91.3492 Q764.344 91.3492 767.504 88.6351 Q770.704 85.8805 770.704 80.2498 Q770.704 74.5785 767.504 71.9049 Q764.344 69.1908 757.742 69.1908 L744.617 69.1908 M744.617 44.3183 L744.617 62.5473 L756.729 62.5473 Q762.724 62.5473 765.641 60.3193 Q768.598 58.0508 768.598 53.4328 Q768.598 48.8553 765.641 46.5868 Q762.724 44.3183 756.729 44.3183 L744.617 44.3183 M736.434 37.5938 L757.336 37.5938 Q766.694 37.5938 771.758 41.4826 Q776.821 45.3715 776.821 52.5416 Q776.821 58.0913 774.229 61.3726 Q771.636 64.6538 766.613 65.464 Q772.649 66.7603 775.971 70.8922 Q779.333 74.9836 779.333 81.141 Q779.333 89.2428 773.824 93.6583 Q768.314 98.0738 758.147 98.0738 L736.434 98.0738 L736.434 37.5938 Z" fill="#000000" fill-rule="evenodd" fill-opacity="1" /><path clip-path="url(#clip530)" d="M810.606 57.9293 Q804.61 57.9293 801.127 62.6283 Q797.643 67.2869 797.643 75.4292 Q797.643 83.5715 801.086 88.2706 Q804.57 92.9291 810.606 92.9291 Q816.561 92.9291 820.044 88.2301 Q823.528 83.531 823.528 75.4292 Q823.528 67.3679 820.044 62.6688 Q816.561 57.9293 810.606 57.9293 M810.606 51.6099 Q820.328 51.6099 825.878 57.9293 Q831.427 64.2487 831.427 75.4292 Q831.427 86.5692 825.878 92.9291 Q820.328 99.2485 810.606 99.2485 Q800.843 99.2485 795.293 92.9291 Q789.784 86.5692 789.784 75.4292 Q789.784 64.2487 795.293 57.9293 Q800.843 51.6099 810.606 51.6099 Z" fill="#000000" fill-rule="evenodd" fill-opacity="1" /><path clip-path="url(#clip530)" d="M881.497 70.6896 L881.497 98.0738 L874.043 98.0738 L874.043 70.9327 Q874.043 64.4918 871.531 61.2915 Q869.02 58.0913 863.997 58.0913 Q857.961 58.0913 854.477 61.9397 Q850.993 65.788 850.993 72.4315 L850.993 98.0738 L843.499 98.0738 L843.499 52.7036 L850.993 52.7036 L850.993 59.7522 Q853.667 55.6608 857.272 53.6353 Q860.918 51.6099 865.658 51.6099 Q873.476 51.6099 877.486 56.471 Q881.497 61.2915 881.497 70.6896 Z" fill="#000000" fill-rule="evenodd" fill-opacity="1" /><path clip-path="url(#clip530)" d="M926.219 59.5902 L926.219 35.0417 L933.672 35.0417 L933.672 98.0738 L926.219 98.0738 L926.219 91.2682 Q923.869 95.3191 920.264 97.3041 Q916.699 99.2485 911.676 99.2485 Q903.453 99.2485 898.267 92.686 Q893.123 86.1236 893.123 75.4292 Q893.123 64.7348 898.267 58.1723 Q903.453 51.6099 911.676 51.6099 Q916.699 51.6099 920.264 53.5948 Q923.869 55.5393 926.219 59.5902 M900.819 75.4292 Q900.819 83.6525 904.182 88.3516 Q907.584 93.0101 913.499 93.0101 Q919.413 93.0101 922.816 88.3516 Q926.219 83.6525 926.219 75.4292 Q926.219 67.2059 922.816 62.5473 Q919.413 57.8483 913.499 57.8483 Q907.584 57.8483 904.182 62.5473 Q900.819 67.2059 900.819 75.4292 Z" fill="#000000" fill-rule="evenodd" fill-opacity="1" /><path clip-path="url(#clip530)" d="M982.607 91.2682 L982.607 115.331 L975.113 115.331 L975.113 52.7036 L982.607 52.7036 L982.607 59.5902 Q984.957 55.5393 988.522 53.5948 Q992.127 51.6099 997.109 51.6099 Q1005.37 51.6099 1010.52 58.1723 Q1015.7 64.7348 1015.7 75.4292 Q1015.7 86.1236 1010.52 92.686 Q1005.37 99.2485 997.109 99.2485 Q992.127 99.2485 988.522 97.3041 Q984.957 95.3191 982.607 91.2682 M1007.97 75.4292 Q1007.97 67.2059 1004.56 62.5473 Q1001.2 57.8483 995.287 57.8483 Q989.372 57.8483 985.969 62.5473 Q982.607 67.2059 982.607 75.4292 Q982.607 83.6525 985.969 88.3516 Q989.372 93.0101 995.287 93.0101 Q1001.2 93.0101 1004.56 88.3516 Q1007.97 83.6525 1007.97 75.4292 Z" fill="#000000" fill-rule="evenodd" fill-opacity="1" /><path clip-path="url(#clip530)" d="M1054.35 59.6712 Q1053.09 58.942 1051.59 58.6179 Q1050.14 58.2534 1048.35 58.2534 Q1042.03 58.2534 1038.63 62.3853 Q1035.27 66.4767 1035.27 74.1734 L1035.27 98.0738 L1027.77 98.0738 L1027.77 52.7036 L1035.27 52.7036 L1035.27 59.7522 Q1037.62 55.6203 1041.39 53.6353 Q1045.15 51.6099 1050.54 51.6099 Q1051.31 51.6099 1052.24 51.7314 Q1053.17 51.8124 1054.31 52.015 L1054.35 59.6712 Z" fill="#000000" fill-rule="evenodd" fill-opacity="1" /><path clip-path="url(#clip530)" d="M1062.17 52.7036 L1069.62 52.7036 L1069.62 98.0738 L1062.17 98.0738 L1062.17 52.7036 M1062.17 35.0417 L1069.62 35.0417 L1069.62 44.4803 L1062.17 44.4803 L1062.17 35.0417 Z" fill="#000000" fill-rule="evenodd" fill-opacity="1" /><path clip-path="url(#clip530)" d="M1117.87 54.4455 L1117.87 61.4131 Q1114.71 59.6712 1111.51 58.8205 Q1108.35 57.9293 1105.11 57.9293 Q1097.86 57.9293 1093.85 62.5473 Q1089.83 67.1248 1089.83 75.4292 Q1089.83 83.7335 1093.85 88.3516 Q1097.86 92.9291 1105.11 92.9291 Q1108.35 92.9291 1111.51 92.0784 Q1114.71 91.1872 1117.87 89.4453 L1117.87 96.3319 Q1114.75 97.7902 1111.39 98.5193 Q1108.06 99.2485 1104.3 99.2485 Q1094.05 99.2485 1088.01 92.8076 Q1081.98 86.3666 1081.98 75.4292 Q1081.98 64.3297 1088.05 57.9698 Q1094.17 51.6099 1104.78 51.6099 Q1108.23 51.6099 1111.51 52.339 Q1114.79 53.0277 1117.87 54.4455 Z" fill="#000000" fill-rule="evenodd" fill-opacity="1" /><path clip-path="url(#clip530)" d="M1169.64 73.5253 L1169.64 77.1711 L1135.37 77.1711 Q1135.85 84.8678 1139.98 88.9187 Q1144.16 92.9291 1151.57 92.9291 Q1155.86 92.9291 1159.87 91.8759 Q1163.93 90.8226 1167.9 88.7162 L1167.9 95.7647 Q1163.89 97.4661 1159.67 98.3573 Q1155.46 99.2485 1151.12 99.2485 Q1140.27 99.2485 1133.91 92.9291 Q1127.59 86.6097 1127.59 75.8343 Q1127.59 64.6943 1133.58 58.1723 Q1139.62 51.6099 1149.83 51.6099 Q1158.98 51.6099 1164.29 57.5242 Q1169.64 63.398 1169.64 73.5253 M1162.18 71.3378 Q1162.1 65.2209 1158.74 61.5751 Q1155.42 57.9293 1149.91 57.9293 Q1143.67 57.9293 1139.9 61.4536 Q1136.18 64.9779 1135.61 71.3783 L1162.18 71.3378 Z" fill="#000000" fill-rule="evenodd" fill-opacity="1" /><path clip-path="url(#clip530)" d="M1237.17 54.0404 L1237.17 61.089 Q1234.01 59.4686 1230.6 58.6585 Q1227.2 57.8483 1223.55 57.8483 Q1218.01 57.8483 1215.21 59.5497 Q1212.46 61.251 1212.46 64.6538 Q1212.46 67.2464 1214.44 68.7452 Q1216.43 70.2035 1222.42 71.5403 L1224.97 72.1075 Q1232.91 73.8088 1236.23 76.928 Q1239.6 80.0067 1239.6 85.5565 Q1239.6 91.8759 1234.57 95.5622 Q1229.59 99.2485 1220.84 99.2485 Q1217.2 99.2485 1213.23 98.5193 Q1209.3 97.8307 1204.92 96.4129 L1204.92 88.7162 Q1209.05 90.8631 1213.06 91.9569 Q1217.07 93.0101 1221 93.0101 Q1226.27 93.0101 1229.1 91.2277 Q1231.94 89.4048 1231.94 86.1236 Q1231.94 83.0854 1229.87 81.465 Q1227.85 79.8447 1220.92 78.3458 L1218.33 77.7382 Q1211.4 76.2799 1208.32 73.2822 Q1205.24 70.244 1205.24 64.9779 Q1205.24 58.5774 1209.78 55.0937 Q1214.32 51.6099 1222.66 51.6099 Q1226.8 51.6099 1230.44 52.2175 Q1234.09 52.8251 1237.17 54.0404 Z" fill="#000000" fill-rule="evenodd" fill-opacity="1" /><path clip-path="url(#clip530)" d="M1284.12 54.4455 L1284.12 61.4131 Q1280.96 59.6712 1277.76 58.8205 Q1274.6 57.9293 1271.36 57.9293 Q1264.1 57.9293 1260.09 62.5473 Q1256.08 67.1248 1256.08 75.4292 Q1256.08 83.7335 1260.09 88.3516 Q1264.1 92.9291 1271.36 92.9291 Q1274.6 92.9291 1277.76 92.0784 Q1280.96 91.1872 1284.12 89.4453 L1284.12 96.3319 Q1281 97.7902 1277.63 98.5193 Q1274.31 99.2485 1270.55 99.2485 Q1260.3 99.2485 1254.26 92.8076 Q1248.22 86.3666 1248.22 75.4292 Q1248.22 64.3297 1254.3 57.9698 Q1260.42 51.6099 1271.03 51.6099 Q1274.47 51.6099 1277.76 52.339 Q1281.04 53.0277 1284.12 54.4455 Z" fill="#000000" fill-rule="evenodd" fill-opacity="1" /><path clip-path="url(#clip530)" d="M1334.79 70.6896 L1334.79 98.0738 L1327.34 98.0738 L1327.34 70.9327 Q1327.34 64.4918 1324.83 61.2915 Q1322.32 58.0913 1317.29 58.0913 Q1311.26 58.0913 1307.77 61.9397 Q1304.29 65.788 1304.29 72.4315 L1304.29 98.0738 L1296.8 98.0738 L1296.8 35.0417 L1304.29 35.0417 L1304.29 59.7522 Q1306.96 55.6608 1310.57 53.6353 Q1314.21 51.6099 1318.95 51.6099 Q1326.77 51.6099 1330.78 56.471 Q1334.79 61.2915 1334.79 70.6896 Z" fill="#000000" fill-rule="evenodd" fill-opacity="1" /><path clip-path="url(#clip530)" d="M1388.47 73.5253 L1388.47 77.1711 L1354.2 77.1711 Q1354.68 84.8678 1358.81 88.9187 Q1362.99 92.9291 1370.4 92.9291 Q1374.69 92.9291 1378.7 91.8759 Q1382.76 90.8226 1386.73 88.7162 L1386.73 95.7647 Q1382.72 97.4661 1378.5 98.3573 Q1374.29 99.2485 1369.95 99.2485 Q1359.1 99.2485 1352.74 92.9291 Q1346.42 86.6097 1346.42 75.8343 Q1346.42 64.6943 1352.41 58.1723 Q1358.45 51.6099 1368.66 51.6099 Q1377.81 51.6099 1383.12 57.5242 Q1388.47 63.398 1388.47 73.5253 M1381.01 71.3378 Q1380.93 65.2209 1377.57 61.5751 Q1374.25 57.9293 1368.74 57.9293 Q1362.5 57.9293 1358.73 61.4536 Q1355.01 64.9779 1354.44 71.3783 L1381.01 71.3378 Z" fill="#000000" fill-rule="evenodd" fill-opacity="1" /><path clip-path="url(#clip530)" d="M1430.56 59.5902 L1430.56 35.0417 L1438.01 35.0417 L1438.01 98.0738 L1430.56 98.0738 L1430.56 91.2682 Q1428.21 95.3191 1424.6 97.3041 Q1421.04 99.2485 1416.01 99.2485 Q1407.79 99.2485 1402.6 92.686 Q1397.46 86.1236 1397.46 75.4292 Q1397.46 64.7348 1402.6 58.1723 Q1407.79 51.6099 1416.01 51.6099 Q1421.04 51.6099 1424.6 53.5948 Q1428.21 55.5393 1430.56 59.5902 M1405.16 75.4292 Q1405.16 83.6525 1408.52 88.3516 Q1411.92 93.0101 1417.84 93.0101 Q1423.75 93.0101 1427.15 88.3516 Q1430.56 83.6525 1430.56 75.4292 Q1430.56 67.2059 1427.15 62.5473 Q1423.75 57.8483 1417.84 57.8483 Q1411.92 57.8483 1408.52 62.5473 Q1405.16 67.2059 1405.16 75.4292 Z" fill="#000000" fill-rule="evenodd" fill-opacity="1" /><path clip-path="url(#clip530)" d="M1452.59 80.1688 L1452.59 52.7036 L1460.05 52.7036 L1460.05 79.8852 Q1460.05 86.3261 1462.56 89.5669 Q1465.07 92.7671 1470.09 92.7671 Q1476.13 92.7671 1479.61 88.9187 Q1483.14 85.0703 1483.14 78.4269 L1483.14 52.7036 L1490.59 52.7036 L1490.59 98.0738 L1483.14 98.0738 L1483.14 91.1062 Q1480.42 95.2381 1476.82 97.2636 Q1473.25 99.2485 1468.51 99.2485 Q1460.69 99.2485 1456.64 94.3874 Q1452.59 89.5263 1452.59 80.1688 M1471.35 51.6099 L1471.35 51.6099 Z" fill="#000000" fill-rule="evenodd" fill-opacity="1" /><path clip-path="url(#clip530)" d="M1505.94 35.0417 L1513.4 35.0417 L1513.4 98.0738 L1505.94 98.0738 L1505.94 35.0417 Z" fill="#000000" fill-rule="evenodd" fill-opacity="1" /><path clip-path="url(#clip530)" d="M1567.8 73.5253 L1567.8 77.1711 L1533.53 77.1711 Q1534.02 84.8678 1538.15 88.9187 Q1542.32 92.9291 1549.73 92.9291 Q1554.03 92.9291 1558.04 91.8759 Q1562.09 90.8226 1566.06 88.7162 L1566.06 95.7647 Q1562.05 97.4661 1557.84 98.3573 Q1553.62 99.2485 1549.29 99.2485 Q1538.43 99.2485 1532.07 92.9291 Q1525.75 86.6097 1525.75 75.8343 Q1525.75 64.6943 1531.75 58.1723 Q1537.78 51.6099 1547.99 51.6099 Q1557.15 51.6099 1562.45 57.5242 Q1567.8 63.398 1567.8 73.5253 M1560.35 71.3378 Q1560.27 65.2209 1556.9 61.5751 Q1553.58 57.9293 1548.07 57.9293 Q1541.83 57.9293 1538.07 61.4536 Q1534.34 64.9779 1533.77 71.3783 L1560.35 71.3378 Z" fill="#000000" fill-rule="evenodd" fill-opacity="1" /><path clip-path="url(#clip530)" d="M1633.18 61.8802 L1621.58 108.567 Q1621.25 110.043 1621.25 110.412 Q1621.25 110.903 1621.38 111.108 Q1621.54 111.354 1622.44 111.559 Q1623.39 111.764 1625.27 111.764 Q1625.97 111.764 1626.21 111.764 Q1626.46 111.764 1626.83 111.846 Q1627.2 111.928 1627.32 112.133 Q1627.44 112.338 1627.44 112.666 Q1627.44 114.346 1625.97 114.346 Q1624.57 114.346 1621.66 114.224 Q1618.75 114.101 1617.32 114.101 Q1615.93 114.101 1613.1 114.224 Q1610.27 114.346 1608.92 114.346 Q1608.43 114.346 1608.14 114.101 Q1607.85 113.896 1607.85 113.65 L1607.81 113.445 Q1607.81 112.297 1608.26 112.01 Q1608.71 111.764 1609.74 111.764 Q1613.26 111.723 1614.29 111.231 Q1615.31 110.739 1615.8 108.977 L1619.57 93.9748 Q1614.53 99.0165 1609.65 99.0165 Q1604.94 99.0165 1601.74 95.3275 Q1598.59 91.5974 1598.59 85.572 Q1598.59 81.1042 1600.35 76.5954 Q1602.15 72.0865 1604.94 68.6844 Q1607.77 65.2823 1611.46 63.1509 Q1615.15 60.9785 1618.8 60.9785 Q1621.13 60.9785 1623.22 62.3311 Q1625.35 63.6837 1626.62 66.8399 Q1627.69 65.0364 1629.66 63.0689 Q1631.63 61.0604 1632.32 61.0604 Q1632.73 61.0604 1632.94 61.3474 Q1633.18 61.5933 1633.18 61.8802 M1625.44 70.201 Q1625.44 69.7911 1625.11 68.7664 Q1624.82 67.7417 1624.17 66.348 Q1623.55 64.9134 1622.12 63.8887 Q1620.68 62.823 1618.8 62.823 Q1616.09 62.823 1613.18 65.4463 Q1610.31 68.0286 1608.43 72.5374 Q1607.24 75.4887 1605.88 80.9812 Q1604.53 86.4738 1604.53 89.2611 Q1604.53 89.9169 1604.57 90.6547 Q1604.65 91.3925 1604.98 92.6222 Q1605.31 93.8519 1605.8 94.7946 Q1606.33 95.7374 1607.4 96.4342 Q1608.47 97.131 1609.9 97.131 Q1613.02 97.131 1616.13 94.4667 Q1619.25 91.8024 1620.56 89.425 Q1620.72 89.1791 1623.06 79.8745 Q1625.44 70.5699 1625.44 70.201 Z" fill="#000000" fill-rule="evenodd" fill-opacity="1" /><path clip-path="url(#clip530)" d="M1642.37 77.0872 Q1642.37 62.9049 1647.66 51.4689 Q1649.91 46.6732 1653.07 42.6562 Q1656.23 38.6393 1658.32 36.8768 Q1660.41 35.1142 1660.98 35.1142 Q1661.8 35.1142 1661.84 35.934 Q1661.84 36.3439 1660.74 37.3686 Q1647.21 51.141 1647.25 77.0872 Q1647.25 103.115 1660.41 116.355 Q1661.84 117.79 1661.84 118.24 Q1661.84 119.06 1660.98 119.06 Q1660.41 119.06 1658.4 117.38 Q1656.39 115.699 1653.27 111.846 Q1650.16 107.993 1647.91 103.279 Q1642.37 91.8434 1642.37 77.0872 Z" fill="#000000" fill-rule="evenodd" fill-opacity="1" /><path clip-path="url(#clip530)" d="M1706.96 64.1756 Q1706.96 64.7495 1706.59 66.1021 L1698.55 98.1557 Q1696.79 105.288 1691.05 110.289 Q1685.35 115.289 1678.88 115.289 Q1674.98 115.289 1672.48 113.199 Q1669.98 111.149 1669.98 107.993 Q1669.98 105.206 1671.46 103.853 Q1672.93 102.542 1674.7 102.542 Q1675.27 102.542 1675.89 102.706 Q1676.5 102.869 1677.16 103.566 Q1677.81 104.263 1677.81 105.452 Q1677.81 107.378 1676.13 108.895 Q1675.31 109.592 1674.53 109.756 Q1673.8 109.92 1672.52 109.92 Q1673.02 111.067 1673.92 111.846 Q1674.82 112.625 1675.85 112.912 Q1676.87 113.24 1677.53 113.322 Q1678.22 113.445 1678.88 113.445 Q1684.12 113.445 1688.14 108.157 Q1689.33 106.559 1690.19 104.96 Q1691.09 103.402 1691.75 101.476 Q1692.4 99.5904 1692.69 98.5656 Q1693.02 97.5409 1693.59 95.2045 Q1689.78 99.0165 1685.11 99.0165 Q1683.14 99.0165 1681.38 98.4836 Q1679.66 97.9508 1678.14 96.8441 Q1676.62 95.6964 1675.72 93.6879 Q1674.86 91.6794 1674.86 89.0151 Q1674.86 86.1869 1675.97 82.3339 Q1677.07 78.4809 1679.74 71.3897 Q1681.17 67.4138 1681.17 65.4873 Q1681.17 64.5445 1680.97 63.9707 Q1680.76 63.3558 1680.35 63.1509 Q1679.94 62.9049 1679.7 62.864 Q1679.49 62.823 1679.08 62.823 Q1676.66 62.823 1674.41 65.2823 Q1672.16 67.7417 1670.6 73.2342 Q1670.27 74.259 1670.07 74.5049 Q1669.86 74.7509 1669.25 74.7509 Q1668.22 74.7099 1668.22 73.8901 Q1668.22 73.5622 1668.59 72.2915 Q1668.96 70.9798 1669.82 69.0533 Q1670.72 67.0859 1671.95 65.3233 Q1673.18 63.5198 1675.11 62.2491 Q1677.07 60.9785 1679.33 60.9785 Q1682.4 60.9785 1684.29 62.9869 Q1686.22 64.9544 1686.22 67.8647 Q1686.22 69.0533 1685.89 70.1191 Q1685.6 71.1438 1684.53 73.8901 Q1680.23 84.9572 1680.23 90.3678 Q1680.23 91.6794 1680.44 92.7861 Q1680.68 93.8519 1681.21 94.9176 Q1681.75 95.9423 1682.81 96.5571 Q1683.92 97.131 1685.44 97.131 Q1687.36 97.131 1689.17 96.2292 Q1691.01 95.2865 1692.16 94.0158 Q1693.35 92.7451 1694.04 91.6794 Q1694.78 90.5727 1694.95 89.9989 L1698.72 74.9148 L1700.4 68.1926 Q1701.18 64.5445 1701.55 63.6428 Q1702.04 62.782 1702.9 62.3311 Q1703.76 61.8802 1704.5 61.8802 Q1705.52 61.8802 1706.22 62.4951 Q1706.96 63.1099 1706.96 64.1756 Z" fill="#000000" fill-rule="evenodd" fill-opacity="1" /><path clip-path="url(#clip530)" d="M1710.13 96.7211 Q1708.94 95.3685 1708.94 93.6059 Q1708.94 91.8434 1710.09 90.5317 Q1711.28 89.1791 1713.41 89.1791 Q1715.91 89.1791 1717.34 91.5974 Q1718.78 93.9748 1718.78 97.9918 Q1718.78 102.337 1717.01 106.354 Q1715.25 110.412 1713.53 112.338 Q1711.81 114.265 1711.11 114.265 Q1710.29 114.265 1710.29 113.363 Q1710.29 113.035 1710.87 112.42 Q1716.89 105.944 1716.93 97.9918 Q1716.93 96.7211 1716.77 96.7211 L1716.56 96.8851 Q1715.13 98.0738 1713.41 98.0738 Q1711.32 98.0738 1710.13 96.7211 Z" fill="#000000" fill-rule="evenodd" fill-opacity="1" /><path clip-path="url(#clip530)" d="M1805.19 52.3297 Q1805.19 56.1417 1802.57 59.5848 Q1799.99 62.9869 1796.05 65.1594 Q1792.12 67.2908 1787.65 68.1106 Q1793.67 68.8074 1797.16 72.0865 Q1800.68 75.3657 1800.68 79.9565 Q1800.68 83.0307 1798.88 86.2688 Q1797.12 89.466 1794.08 92.0893 Q1791.09 94.7126 1786.66 96.3932 Q1782.28 98.0738 1777.48 98.0738 L1747.52 98.0738 Q1746.58 98.0738 1746.21 98.0328 Q1745.84 97.9918 1745.55 97.7868 Q1745.27 97.5819 1745.27 97.131 Q1745.27 96.3112 1745.55 95.9423 Q1745.88 95.5734 1746.25 95.5324 Q1746.62 95.4914 1747.52 95.4914 Q1749.57 95.4914 1750.8 95.3685 Q1752.03 95.2455 1752.81 95.0815 Q1753.63 94.8766 1754.04 94.3027 Q1754.49 93.7289 1754.69 93.237 Q1754.9 92.7042 1755.19 91.5155 L1766.42 46.4273 Q1766.74 45.0746 1766.74 44.8697 Q1766.74 44.0909 1766.25 43.8859 Q1765.8 43.64 1764.49 43.517 L1761.29 43.3531 Q1760.31 43.3531 1759.9 43.3121 Q1759.53 43.2711 1759.24 43.0661 Q1758.96 42.8612 1758.96 42.4103 Q1758.96 41.2626 1759.45 41.0167 Q1759.98 40.7298 1761.37 40.7298 L1789.58 40.7298 Q1796.83 40.7298 1801.01 44.0909 Q1805.19 47.411 1805.19 52.3297 M1797.57 52.0018 Q1797.57 50.4442 1797.16 49.0506 Q1796.75 47.6569 1795.76 46.3043 Q1794.82 44.9516 1792.94 44.1728 Q1791.05 43.3531 1788.43 43.3531 L1777.57 43.3531 Q1774.9 43.3531 1774.25 43.8449 Q1773.63 44.2958 1773.06 46.5502 L1767.85 67.3318 L1780.11 67.3318 Q1783.84 67.3318 1787.12 65.9791 Q1790.44 64.6265 1792.69 62.4541 Q1794.94 60.2406 1796.26 57.4944 Q1797.57 54.7481 1797.57 52.0018 M1792.85 79.0137 Q1792.85 77.7841 1792.65 76.5954 Q1792.44 75.4067 1791.79 74.013 Q1791.13 72.6194 1790.11 71.5947 Q1789.08 70.5699 1787.28 69.8731 Q1785.52 69.1763 1783.22 69.1763 L1767.36 69.1763 L1761.54 92.6222 Q1761.13 94.1388 1761.13 94.5487 Q1761.13 94.9996 1761.33 95.1635 Q1761.58 95.2865 1762.24 95.3685 Q1762.97 95.4914 1764.08 95.4914 L1775.47 95.4914 Q1779.08 95.4914 1782.36 94.0978 Q1785.64 92.6632 1787.89 90.3678 Q1790.19 88.0724 1791.5 85.0801 Q1792.85 82.0879 1792.85 79.0137 Z" fill="#000000" fill-rule="evenodd" fill-opacity="1" /><path clip-path="url(#clip530)" d="M1824.79 12.6174 Q1824.79 13.306 1824.44 13.7364 L1815.15 29.0582 L1813.57 29.0582 L1820.63 11.6131 Q1820.8 11.0967 1821.35 10.7524 Q1821.89 10.3793 1822.55 10.3793 Q1823.47 10.3793 1824.13 11.0393 Q1824.79 11.6992 1824.79 12.6174 Z" fill="#000000" fill-rule="evenodd" fill-opacity="1" /><path clip-path="url(#clip530)" d="M1833.63 118.24 Q1833.63 117.831 1834.7 116.806 Q1848.22 103.033 1848.22 77.0872 Q1848.22 51.059 1835.23 37.9015 Q1833.63 36.3849 1833.63 35.934 Q1833.63 35.1142 1834.45 35.1142 Q1835.02 35.1142 1837.03 36.7948 Q1839.08 38.4753 1842.16 42.3283 Q1845.27 46.1813 1847.57 50.8951 Q1853.1 62.3311 1853.1 77.0872 Q1853.1 91.2695 1847.81 102.706 Q1845.56 107.501 1842.4 111.518 Q1839.25 115.535 1837.16 117.298 Q1835.07 119.06 1834.45 119.06 Q1833.63 119.06 1833.63 118.24 Z" fill="#000000" fill-rule="evenodd" fill-opacity="1" /><polyline clip-path="url(#clip532)" style="stroke:#009af9; stroke-linecap:round; stroke-linejoin:round; stroke-width:4; stroke-opacity:1; fill:none" points="
  309.067,1386.72 327.27,1386.72 345.474,1386.72 363.677,1386.72 381.88,1386.72 400.084,1386.72 418.287,1386.72 436.49,1386.72 454.694,1386.72 472.897,1386.72 
  491.1,1386.72 509.304,1386.72 527.507,1386.72 545.71,1386.72 563.914,1386.72 582.117,1386.72 600.32,1386.72 618.524,1386.72 636.727,1386.72 654.93,1386.72 
  673.134,1386.72 691.337,1386.72 709.54,1385.79 727.744,1385.79 745.947,1385.79 764.15,1385.79 782.354,1385.79 800.557,1385.79 818.76,1385.79 836.964,1385.79 
  855.167,1385.79 873.37,1385.79 891.574,1385.79 909.777,1385.79 927.981,1385.79 946.184,1385.79 964.387,1385.79 982.591,1385.79 1000.79,1385.79 1019,1385.79 
  1037.2,1385.79 1055.4,1385.79 1073.61,1385.79 1091.81,1385.79 1110.01,1385.79 1128.22,1371.61 1146.42,1371.61 1164.62,1371.61 1182.83,1371.61 1201.03,1371.61 
  1219.23,1371.61 1237.44,1371.61 1255.64,1371.61 1273.84,1371.61 1292.05,1371.61 1310.25,1371.61 1328.45,1371.61 1346.66,1371.61 1364.86,1371.61 1383.06,1371.61 
  1401.27,1371.61 1419.47,1371.61 1437.67,1371.61 1455.88,1371.61 1474.08,1371.61 1492.28,1274.32 1510.49,1274.32 1528.69,1274.32 1546.89,1274.32 1565.1,1274.32 
  1583.3,1274.32 1601.5,1274.32 1619.71,1274.32 1637.91,1274.32 1656.11,1274.32 1674.32,1274.32 1692.52,1274.32 1710.72,1274.32 1728.93,1274.32 1747.13,1274.32 
  1765.33,1274.32 1783.54,1274.32 1801.74,1274.32 1819.94,1274.32 1838.15,971.646 1856.35,971.646 1874.55,971.646 1892.76,971.646 1910.96,971.646 1929.16,971.646 
  1947.37,971.646 1965.57,971.646 1983.77,971.646 2001.98,971.646 2020.18,971.646 2038.38,971.646 2056.59,971.646 2074.79,971.646 2092.99,971.646 2111.2,542.569 
  2129.4,542.569 2147.6,542.569 2165.81,542.569 2184.01,542.569 2202.21,264.926 2220.42,264.926 2238.62,264.926 2256.82,183.09 2275.03,172.158 2293.23,171.483 
  
  "/>
<polyline clip-path="url(#clip532)" style="stroke:#e26f46; stroke-linecap:round; stroke-linejoin:round; stroke-width:4; stroke-opacity:1; fill:none" points="
  309.067,1057.48 327.27,1057.48 345.474,1057.48 363.677,1057.48 381.88,1057.48 400.084,1057.48 418.287,1057.48 436.49,1057.48 454.694,1057.48 472.897,1057.48 
  491.1,1057.48 509.304,1057.48 527.507,1057.48 545.71,1057.48 563.914,1057.48 582.117,1057.48 600.32,1057.48 618.524,1057.48 636.727,1057.48 654.93,1057.48 
  673.134,1057.48 691.337,1057.48 709.54,632.455 727.744,632.455 745.947,632.455 764.15,632.455 782.354,632.455 800.557,632.455 818.76,632.455 836.964,632.455 
  855.167,632.455 873.37,632.455 891.574,632.455 909.777,632.455 927.981,632.455 946.184,632.455 964.387,632.455 982.591,632.455 1000.79,632.455 1019,632.455 
  1037.2,632.455 1055.4,632.455 1073.61,632.455 1091.81,632.455 1110.01,632.455 1128.22,305.624 1146.42,305.624 1164.62,305.624 1182.83,305.624 1201.03,305.624 
  1219.23,305.624 1237.44,305.624 1255.64,305.624 1273.84,305.624 1292.05,305.624 1310.25,305.624 1328.45,305.624 1346.66,305.624 1364.86,305.624 1383.06,305.624 
  1401.27,305.624 1419.47,305.624 1437.67,305.624 1455.88,305.624 1474.08,305.624 1492.28,191.057 1510.49,191.057 1528.69,191.057 1546.89,191.057 1565.1,191.057 
  1583.3,191.057 1601.5,191.057 1619.71,191.057 1637.91,191.057 1656.11,191.057 1674.32,191.057 1692.52,191.057 1710.72,191.057 1728.93,191.057 1747.13,191.057 
  1765.33,191.057 1783.54,191.057 1801.74,191.057 1819.94,191.057 1838.15,172.832 1856.35,172.832 1874.55,172.832 1892.76,172.832 1910.96,172.832 1929.16,172.832 
  1947.37,172.832 1965.57,172.832 1983.77,172.832 2001.98,172.832 2020.18,172.832 2038.38,172.832 2056.59,172.832 2074.79,172.832 2092.99,172.832 2111.2,171.525 
  2129.4,171.525 2147.6,171.525 2165.81,171.525 2184.01,171.525 2202.21,171.483 2220.42,171.483 2238.62,171.483 2256.82,171.483 2275.03,171.483 2293.23,171.483 
  
  "/>
<path clip-path="url(#clip530)" d="
M319.649 463.084 L630.248 463.084 L630.248 177.964 L319.649 177.964  Z
  " fill="#ffffff" fill-rule="evenodd" fill-opacity="1"/>
<polyline clip-path="url(#clip530)" style="stroke:#000000; stroke-linecap:round; stroke-linejoin:round; stroke-width:4; stroke-opacity:1; fill:none" points="
  319.649,463.084 630.248,463.084 630.248,177.964 319.649,177.964 319.649,463.084 
  "/>
<path clip-path="url(#clip530)" d="M501.07 230.352 Q501.07 230.803 500.781 231.866 L494.468 257.051 Q493.083 262.654 488.575 266.583 Q484.098 270.513 479.009 270.513 Q475.95 270.513 473.985 268.87 Q472.021 267.26 472.021 264.78 Q472.021 262.59 473.18 261.527 Q474.34 260.497 475.724 260.497 Q476.175 260.497 476.658 260.625 Q477.141 260.754 477.657 261.302 Q478.172 261.849 478.172 262.783 Q478.172 264.297 476.852 265.488 Q476.208 266.036 475.596 266.165 Q475.016 266.294 474.018 266.294 Q474.404 267.195 475.113 267.807 Q475.821 268.419 476.626 268.645 Q477.431 268.902 477.947 268.967 Q478.494 269.063 479.009 269.063 Q483.132 269.063 486.288 264.909 Q487.222 263.653 487.898 262.397 Q488.607 261.173 489.122 259.659 Q489.637 258.178 489.863 257.373 Q490.12 256.567 490.571 254.732 Q487.576 257.727 483.905 257.727 Q482.359 257.727 480.974 257.308 Q479.621 256.89 478.43 256.02 Q477.238 255.118 476.53 253.54 Q475.853 251.962 475.853 249.869 Q475.853 247.646 476.723 244.619 Q477.592 241.592 479.686 236.02 Q480.813 232.896 480.813 231.382 Q480.813 230.642 480.652 230.191 Q480.491 229.708 480.169 229.547 Q479.847 229.353 479.654 229.321 Q479.493 229.289 479.17 229.289 Q477.27 229.289 475.499 231.221 Q473.728 233.154 472.504 237.469 Q472.246 238.275 472.085 238.468 Q471.924 238.661 471.441 238.661 Q470.636 238.629 470.636 237.985 Q470.636 237.727 470.926 236.729 Q471.216 235.698 471.892 234.184 Q472.6 232.638 473.567 231.254 Q474.533 229.837 476.046 228.838 Q477.592 227.84 479.364 227.84 Q481.779 227.84 483.261 229.418 Q484.774 230.964 484.774 233.25 Q484.774 234.184 484.517 235.022 Q484.291 235.827 483.454 237.985 Q480.072 246.68 480.072 250.931 Q480.072 251.962 480.233 252.832 Q480.426 253.669 480.845 254.506 Q481.264 255.311 482.101 255.795 Q482.971 256.245 484.162 256.245 Q485.676 256.245 487.093 255.537 Q488.542 254.796 489.444 253.798 Q490.378 252.799 490.926 251.962 Q491.505 251.092 491.634 250.642 L494.597 238.79 L495.918 233.508 Q496.529 230.642 496.819 229.933 Q497.206 229.257 497.882 228.903 Q498.558 228.548 499.138 228.548 Q499.943 228.548 500.491 229.031 Q501.07 229.515 501.07 230.352 Z" fill="#000000" fill-rule="evenodd" fill-opacity="1" /><polyline clip-path="url(#clip530)" style="stroke:#009af9; stroke-linecap:round; stroke-linejoin:round; stroke-width:4; stroke-opacity:1; fill:none" points="
  343.018,320.524 483.232,320.524 
  "/>
<path clip-path="url(#clip530)" d="M506.602 303.244 L511.277 303.244 L511.277 333.869 L528.106 333.869 L528.106 337.804 L506.602 337.804 L506.602 303.244 Z" fill="#000000" fill-rule="evenodd" fill-opacity="1" /><path clip-path="url(#clip530)" d="M542.041 314.864 Q538.615 314.864 536.624 317.549 Q534.634 320.211 534.634 324.864 Q534.634 329.517 536.601 332.202 Q538.592 334.864 542.041 334.864 Q545.444 334.864 547.435 332.179 Q549.425 329.494 549.425 324.864 Q549.425 320.258 547.435 317.573 Q545.444 314.864 542.041 314.864 M542.041 311.253 Q547.597 311.253 550.768 314.864 Q553.939 318.475 553.939 324.864 Q553.939 331.23 550.768 334.864 Q547.597 338.475 542.041 338.475 Q536.462 338.475 533.291 334.864 Q530.143 331.23 530.143 324.864 Q530.143 318.475 533.291 314.864 Q536.462 311.253 542.041 311.253 Z" fill="#000000" fill-rule="evenodd" fill-opacity="1" /><path clip-path="url(#clip530)" d="M558.523 311.878 L562.782 311.878 L568.106 332.11 L573.407 311.878 L578.43 311.878 L583.754 332.11 L589.055 311.878 L593.314 311.878 L586.532 337.804 L581.509 337.804 L575.93 316.554 L570.328 337.804 L565.305 337.804 L558.523 311.878 Z" fill="#000000" fill-rule="evenodd" fill-opacity="1" /><polyline clip-path="url(#clip530)" style="stroke:#e26f46; stroke-linecap:round; stroke-linejoin:round; stroke-width:4; stroke-opacity:1; fill:none" points="
  343.018,391.804 483.232,391.804 
  "/>
<path clip-path="url(#clip530)" d="M506.602 374.524 L511.277 374.524 L511.277 388.691 L528.268 388.691 L528.268 374.524 L532.944 374.524 L532.944 409.084 L528.268 409.084 L528.268 392.626 L511.277 392.626 L511.277 409.084 L506.602 409.084 L506.602 374.524 Z" fill="#000000" fill-rule="evenodd" fill-opacity="1" /><path clip-path="url(#clip530)" d="M542.064 383.158 L546.324 383.158 L546.324 409.084 L542.064 409.084 L542.064 383.158 M542.064 373.066 L546.324 373.066 L546.324 378.459 L542.064 378.459 L542.064 373.066 Z" fill="#000000" fill-rule="evenodd" fill-opacity="1" /><path clip-path="url(#clip530)" d="M572.296 395.82 Q572.296 391.191 570.374 388.644 Q568.476 386.098 565.027 386.098 Q561.601 386.098 559.68 388.644 Q557.782 391.191 557.782 395.82 Q557.782 400.427 559.68 402.973 Q561.601 405.519 565.027 405.519 Q568.476 405.519 570.374 402.973 Q572.296 400.427 572.296 395.82 M576.555 405.866 Q576.555 412.487 573.615 415.704 Q570.675 418.945 564.61 418.945 Q562.365 418.945 560.374 418.598 Q558.384 418.274 556.509 417.579 L556.509 413.436 Q558.384 414.454 560.212 414.94 Q562.041 415.426 563.939 415.426 Q568.129 415.426 570.212 413.227 Q572.296 411.052 572.296 406.63 L572.296 404.524 Q570.976 406.815 568.916 407.95 Q566.856 409.084 563.985 409.084 Q559.217 409.084 556.3 405.45 Q553.384 401.815 553.384 395.82 Q553.384 389.802 556.3 386.167 Q559.217 382.533 563.985 382.533 Q566.856 382.533 568.916 383.667 Q570.976 384.802 572.296 387.093 L572.296 383.158 L576.555 383.158 L576.555 405.866 Z" fill="#000000" fill-rule="evenodd" fill-opacity="1" /><path clip-path="url(#clip530)" d="M606.879 393.436 L606.879 409.084 L602.62 409.084 L602.62 393.575 Q602.62 389.894 601.184 388.066 Q599.749 386.237 596.879 386.237 Q593.43 386.237 591.439 388.436 Q589.448 390.635 589.448 394.431 L589.448 409.084 L585.166 409.084 L585.166 373.066 L589.448 373.066 L589.448 387.186 Q590.976 384.848 593.036 383.691 Q595.12 382.533 597.828 382.533 Q602.295 382.533 604.587 385.311 Q606.879 388.066 606.879 393.436 Z" fill="#000000" fill-rule="evenodd" fill-opacity="1" /></svg>
