<?xml version="1.0" encoding="utf-8"?>
<svg xmlns="http://www.w3.org/2000/svg" xmlns:xlink="http://www.w3.org/1999/xlink" width="600" height="400" viewBox="0 0 2400 1600">
<defs>
  <clipPath id="clip330">
    <rect x="0" y="0" width="2400" height="1600"/>
  </clipPath>
</defs>
<path clip-path="url(#clip330)" d="
M0 1600 L2400 1600 L2400 0 L0 0  Z
  " fill="#ffffff" fill-rule="evenodd" fill-opacity="1"/>
<defs>
  <clipPath id="clip331">
    <rect x="480" y="0" width="1681" height="1600"/>
  </clipPath>
</defs>
<defs>
  <clipPath id="clip332">
    <rect x="249" y="135" width="2104" height="1289"/>
  </clipPath>
</defs>
<path clip-path="url(#clip330)" d="
M317.528 1423.18 L2352.76 1423.18 L2352.76 123.472 L317.528 123.472  Z
  " fill="#ffffff" fill-rule="evenodd" fill-opacity="1"/>
<defs>
  <clipPath id="clip333">
    <rect x="317" y="123" width="2036" height="1301"/>
  </clipPath>
</defs>
<polyline clip-path="url(#clip333)" style="stroke:#000000; stroke-linecap:butt; stroke-linejoin:round; stroke-width:2; stroke-opacity:0.1; fill:none" points="
  375.129,1423.18 375.129,123.472 
  "/>
<polyline clip-path="url(#clip333)" style="stroke:#000000; stroke-linecap:butt; stroke-linejoin:round; stroke-width:2; stroke-opacity:0.1; fill:none" points="
  855.135,1423.18 855.135,123.472 
  "/>
<polyline clip-path="url(#clip333)" style="stroke:#000000; stroke-linecap:butt; stroke-linejoin:round; stroke-width:2; stroke-opacity:0.1; fill:none" points="
  1335.14,1423.18 1335.14,123.472 
  "/>
<polyline clip-path="url(#clip333)" style="stroke:#000000; stroke-linecap:butt; stroke-linejoin:round; stroke-width:2; stroke-opacity:0.1; fill:none" points="
  1815.15,1423.18 1815.15,123.472 
  "/>
<polyline clip-path="url(#clip333)" style="stroke:#000000; stroke-linecap:butt; stroke-linejoin:round; stroke-width:2; stroke-opacity:0.1; fill:none" points="
  2295.16,1423.18 2295.16,123.472 
  "/>
<polyline clip-path="url(#clip330)" style="stroke:#000000; stroke-linecap:butt; stroke-linejoin:round; stroke-width:4; stroke-opacity:1; fill:none" points="
  317.528,1423.18 2352.76,1423.18 
  "/>
<polyline clip-path="url(#clip330)" style="stroke:#000000; stroke-linecap:butt; stroke-linejoin:round; stroke-width:4; stroke-opacity:1; fill:none" points="
  375.129,1423.18 375.129,1404.28 
  "/>
<polyline clip-path="url(#clip330)" style="stroke:#000000; stroke-linecap:butt; stroke-linejoin:round; stroke-width:4; stroke-opacity:1; fill:none" points="
  855.135,1423.18 855.135,1404.28 
  "/>
<polyline clip-path="url(#clip330)" style="stroke:#000000; stroke-linecap:butt; stroke-linejoin:round; stroke-width:4; stroke-opacity:1; fill:none" points="
  1335.14,1423.18 1335.14,1404.28 
  "/>
<polyline clip-path="url(#clip330)" style="stroke:#000000; stroke-linecap:butt; stroke-linejoin:round; stroke-width:4; stroke-opacity:1; fill:none" points="
  1815.15,1423.18 1815.15,1404.28 
  "/>
<polyline clip-path="url(#clip330)" style="stroke:#000000; stroke-linecap:butt; stroke-linejoin:round; stroke-width:4; stroke-opacity:1; fill:none" points="
  2295.16,1423.18 2295.16,1404.28 
  "/>
<path clip-path="url(#clip330)" d="M321.414 1468.75 L351.089 1468.75 L351.089 1472.69 L321.414 1472.69 L321.414 1468.75 Z" fill="#000000" fill-rule="evenodd" fill-opacity="1" /><path clip-path="url(#clip330)" d="M371.182 1454.1 Q367.571 1454.1 365.742 1457.66 Q363.937 1461.2 363.937 1468.33 Q363.937 1475.44 365.742 1479.01 Q367.571 1482.55 371.182 1482.55 Q374.816 1482.55 376.622 1479.01 Q378.45 1475.44 378.45 1468.33 Q378.45 1461.2 376.622 1457.66 Q374.816 1454.1 371.182 1454.1 M371.182 1450.39 Q376.992 1450.39 380.048 1455 Q383.126 1459.58 383.126 1468.33 Q383.126 1477.06 380.048 1481.67 Q376.992 1486.25 371.182 1486.25 Q365.372 1486.25 362.293 1481.67 Q359.237 1477.06 359.237 1468.33 Q359.237 1459.58 362.293 1455 Q365.372 1450.39 371.182 1450.39 Z" fill="#000000" fill-rule="evenodd" fill-opacity="1" /><path clip-path="url(#clip330)" d="M391.344 1479.7 L396.228 1479.7 L396.228 1485.58 L391.344 1485.58 L391.344 1479.7 Z" fill="#000000" fill-rule="evenodd" fill-opacity="1" /><path clip-path="url(#clip330)" d="M419.26 1455.09 L407.455 1473.54 L419.26 1473.54 L419.26 1455.09 M418.033 1451.02 L423.913 1451.02 L423.913 1473.54 L428.844 1473.54 L428.844 1477.43 L423.913 1477.43 L423.913 1485.58 L419.26 1485.58 L419.26 1477.43 L403.659 1477.43 L403.659 1472.92 L418.033 1451.02 Z" fill="#000000" fill-rule="evenodd" fill-opacity="1" /><path clip-path="url(#clip330)" d="M802.462 1468.75 L832.138 1468.75 L832.138 1472.69 L802.462 1472.69 L802.462 1468.75 Z" fill="#000000" fill-rule="evenodd" fill-opacity="1" /><path clip-path="url(#clip330)" d="M852.23 1454.1 Q848.619 1454.1 846.79 1457.66 Q844.985 1461.2 844.985 1468.33 Q844.985 1475.44 846.79 1479.01 Q848.619 1482.55 852.23 1482.55 Q855.864 1482.55 857.67 1479.01 Q859.499 1475.44 859.499 1468.33 Q859.499 1461.2 857.67 1457.66 Q855.864 1454.1 852.23 1454.1 M852.23 1450.39 Q858.04 1450.39 861.096 1455 Q864.175 1459.58 864.175 1468.33 Q864.175 1477.06 861.096 1481.67 Q858.04 1486.25 852.23 1486.25 Q846.42 1486.25 843.341 1481.67 Q840.286 1477.06 840.286 1468.33 Q840.286 1459.58 843.341 1455 Q846.42 1450.39 852.23 1450.39 Z" fill="#000000" fill-rule="evenodd" fill-opacity="1" /><path clip-path="url(#clip330)" d="M872.392 1479.7 L877.276 1479.7 L877.276 1485.58 L872.392 1485.58 L872.392 1479.7 Z" fill="#000000" fill-rule="evenodd" fill-opacity="1" /><path clip-path="url(#clip330)" d="M891.489 1481.64 L907.809 1481.64 L907.809 1485.58 L885.864 1485.58 L885.864 1481.64 Q888.526 1478.89 893.11 1474.26 Q897.716 1469.61 898.897 1468.27 Q901.142 1465.74 902.022 1464.01 Q902.924 1462.25 902.924 1460.56 Q902.924 1457.8 900.98 1456.07 Q899.059 1454.33 895.957 1454.33 Q893.758 1454.33 891.304 1455.09 Q888.873 1455.86 886.096 1457.41 L886.096 1452.69 Q888.92 1451.55 891.373 1450.97 Q893.827 1450.39 895.864 1450.39 Q901.234 1450.39 904.429 1453.08 Q907.623 1455.77 907.623 1460.26 Q907.623 1462.39 906.813 1464.31 Q906.026 1466.2 903.92 1468.8 Q903.341 1469.47 900.239 1472.69 Q897.137 1475.88 891.489 1481.64 Z" fill="#000000" fill-rule="evenodd" fill-opacity="1" /><path clip-path="url(#clip330)" d="M1312.53 1454.1 Q1308.92 1454.1 1307.09 1457.66 Q1305.28 1461.2 1305.28 1468.33 Q1305.28 1475.44 1307.09 1479.01 Q1308.92 1482.55 1312.53 1482.55 Q1316.16 1482.55 1317.97 1479.01 Q1319.79 1475.44 1319.79 1468.33 Q1319.79 1461.2 1317.97 1457.66 Q1316.16 1454.1 1312.53 1454.1 M1312.53 1450.39 Q1318.34 1450.39 1321.39 1455 Q1324.47 1459.58 1324.47 1468.33 Q1324.47 1477.06 1321.39 1481.67 Q1318.34 1486.25 1312.53 1486.25 Q1306.72 1486.25 1303.64 1481.67 Q1300.58 1477.06 1300.58 1468.33 Q1300.58 1459.58 1303.64 1455 Q1306.72 1450.39 1312.53 1450.39 Z" fill="#000000" fill-rule="evenodd" fill-opacity="1" /><path clip-path="url(#clip330)" d="M1332.69 1479.7 L1337.57 1479.7 L1337.57 1485.58 L1332.69 1485.58 L1332.69 1479.7 Z" fill="#000000" fill-rule="evenodd" fill-opacity="1" /><path clip-path="url(#clip330)" d="M1357.76 1454.1 Q1354.15 1454.1 1352.32 1457.66 Q1350.51 1461.2 1350.51 1468.33 Q1350.51 1475.44 1352.32 1479.01 Q1354.15 1482.55 1357.76 1482.55 Q1361.39 1482.55 1363.2 1479.01 Q1365.03 1475.44 1365.03 1468.33 Q1365.03 1461.2 1363.2 1457.66 Q1361.39 1454.1 1357.76 1454.1 M1357.76 1450.39 Q1363.57 1450.39 1366.62 1455 Q1369.7 1459.58 1369.7 1468.33 Q1369.7 1477.06 1366.62 1481.67 Q1363.57 1486.25 1357.76 1486.25 Q1351.95 1486.25 1348.87 1481.67 Q1345.81 1477.06 1345.81 1468.33 Q1345.81 1459.58 1348.87 1455 Q1351.95 1450.39 1357.76 1450.39 Z" fill="#000000" fill-rule="evenodd" fill-opacity="1" /><path clip-path="url(#clip330)" d="M1793.33 1454.1 Q1789.72 1454.1 1787.89 1457.66 Q1786.09 1461.2 1786.09 1468.33 Q1786.09 1475.44 1787.89 1479.01 Q1789.72 1482.55 1793.33 1482.55 Q1796.97 1482.55 1798.77 1479.01 Q1800.6 1475.44 1800.6 1468.33 Q1800.6 1461.2 1798.77 1457.66 Q1796.97 1454.1 1793.33 1454.1 M1793.33 1450.39 Q1799.14 1450.39 1802.2 1455 Q1805.28 1459.58 1805.28 1468.33 Q1805.28 1477.06 1802.2 1481.67 Q1799.14 1486.25 1793.33 1486.25 Q1787.52 1486.25 1784.44 1481.67 Q1781.39 1477.06 1781.39 1468.33 Q1781.39 1459.58 1784.44 1455 Q1787.52 1450.39 1793.33 1450.39 Z" fill="#000000" fill-rule="evenodd" fill-opacity="1" /><path clip-path="url(#clip330)" d="M1813.49 1479.7 L1818.38 1479.7 L1818.38 1485.58 L1813.49 1485.58 L1813.49 1479.7 Z" fill="#000000" fill-rule="evenodd" fill-opacity="1" /><path clip-path="url(#clip330)" d="M1832.59 1481.64 L1848.91 1481.64 L1848.91 1485.58 L1826.97 1485.58 L1826.97 1481.64 Q1829.63 1478.89 1834.21 1474.26 Q1838.82 1469.61 1840 1468.27 Q1842.24 1465.74 1843.12 1464.01 Q1844.03 1462.25 1844.03 1460.56 Q1844.03 1457.8 1842.08 1456.07 Q1840.16 1454.33 1837.06 1454.33 Q1834.86 1454.33 1832.41 1455.09 Q1829.97 1455.86 1827.2 1457.41 L1827.2 1452.69 Q1830.02 1451.55 1832.47 1450.97 Q1834.93 1450.39 1836.97 1450.39 Q1842.34 1450.39 1845.53 1453.08 Q1848.72 1455.77 1848.72 1460.26 Q1848.72 1462.39 1847.91 1464.31 Q1847.13 1466.2 1845.02 1468.8 Q1844.44 1469.47 1841.34 1472.69 Q1838.24 1475.88 1832.59 1481.64 Z" fill="#000000" fill-rule="evenodd" fill-opacity="1" /><path clip-path="url(#clip330)" d="M2272.3 1454.1 Q2268.69 1454.1 2266.86 1457.66 Q2265.05 1461.2 2265.05 1468.33 Q2265.05 1475.44 2266.86 1479.01 Q2268.69 1482.55 2272.3 1482.55 Q2275.93 1482.55 2277.74 1479.01 Q2279.56 1475.44 2279.56 1468.33 Q2279.56 1461.2 2277.74 1457.66 Q2275.93 1454.1 2272.3 1454.1 M2272.3 1450.39 Q2278.11 1450.39 2281.16 1455 Q2284.24 1459.58 2284.24 1468.33 Q2284.24 1477.06 2281.16 1481.67 Q2278.11 1486.25 2272.3 1486.25 Q2266.49 1486.25 2263.41 1481.67 Q2260.35 1477.06 2260.35 1468.33 Q2260.35 1459.58 2263.41 1455 Q2266.49 1450.39 2272.3 1450.39 Z" fill="#000000" fill-rule="evenodd" fill-opacity="1" /><path clip-path="url(#clip330)" d="M2292.46 1479.7 L2297.34 1479.7 L2297.34 1485.58 L2292.46 1485.58 L2292.46 1479.7 Z" fill="#000000" fill-rule="evenodd" fill-opacity="1" /><path clip-path="url(#clip330)" d="M2320.37 1455.09 L2308.57 1473.54 L2320.37 1473.54 L2320.37 1455.09 M2319.15 1451.02 L2325.03 1451.02 L2325.03 1473.54 L2329.96 1473.54 L2329.96 1477.43 L2325.03 1477.43 L2325.03 1485.58 L2320.37 1485.58 L2320.37 1477.43 L2304.77 1477.43 L2304.77 1472.92 L2319.15 1451.02 Z" fill="#000000" fill-rule="evenodd" fill-opacity="1" /><path clip-path="url(#clip330)" d="M1357.44 1542.53 Q1357.44 1545.53 1355.38 1548.24 Q1353.35 1550.91 1350.26 1552.62 Q1347.17 1554.29 1343.66 1554.93 Q1348.39 1555.48 1351.13 1558.06 Q1353.9 1560.63 1353.9 1564.24 Q1353.9 1566.66 1352.48 1569.2 Q1351.1 1571.71 1348.71 1573.77 Q1346.36 1575.84 1342.88 1577.16 Q1339.44 1578.48 1335.67 1578.48 L1312.13 1578.48 Q1311.39 1578.48 1311.1 1578.44 Q1310.81 1578.41 1310.58 1578.25 Q1310.36 1578.09 1310.36 1577.74 Q1310.36 1577.09 1310.58 1576.8 Q1310.84 1576.51 1311.13 1576.48 Q1311.42 1576.45 1312.13 1576.45 Q1313.74 1576.45 1314.7 1576.35 Q1315.67 1576.25 1316.28 1576.13 Q1316.93 1575.96 1317.25 1575.51 Q1317.6 1575.06 1317.76 1574.68 Q1317.93 1574.26 1318.15 1573.32 L1326.97 1537.9 Q1327.23 1536.83 1327.23 1536.67 Q1327.23 1536.06 1326.85 1535.9 Q1326.49 1535.71 1325.46 1535.61 L1322.95 1535.48 Q1322.18 1535.48 1321.85 1535.45 Q1321.56 1535.42 1321.34 1535.26 Q1321.11 1535.1 1321.11 1534.74 Q1321.11 1533.84 1321.5 1533.65 Q1321.92 1533.42 1323.01 1533.42 L1345.17 1533.42 Q1350.87 1533.42 1354.16 1536.06 Q1357.44 1538.67 1357.44 1542.53 M1351.45 1542.28 Q1351.45 1541.05 1351.13 1539.96 Q1350.81 1538.86 1350.03 1537.8 Q1349.29 1536.74 1347.81 1536.13 Q1346.33 1535.48 1344.27 1535.48 L1335.73 1535.48 Q1333.64 1535.48 1333.13 1535.87 Q1332.64 1536.22 1332.19 1537.99 L1328.1 1554.32 L1337.73 1554.32 Q1340.66 1554.32 1343.24 1553.26 Q1345.85 1552.2 1347.62 1550.49 Q1349.39 1548.75 1350.42 1546.59 Q1351.45 1544.43 1351.45 1542.28 M1347.75 1563.5 Q1347.75 1562.53 1347.59 1561.6 Q1347.43 1560.67 1346.91 1559.57 Q1346.4 1558.48 1345.59 1557.67 Q1344.78 1556.87 1343.37 1556.32 Q1341.98 1555.77 1340.18 1555.77 L1327.72 1555.77 L1323.14 1574.19 Q1322.82 1575.38 1322.82 1575.71 Q1322.82 1576.06 1322.98 1576.19 Q1323.17 1576.29 1323.69 1576.35 Q1324.27 1576.45 1325.14 1576.45 L1334.09 1576.45 Q1336.93 1576.45 1339.5 1575.35 Q1342.08 1574.23 1343.85 1572.42 Q1345.65 1570.62 1346.68 1568.27 Q1347.75 1565.92 1347.75 1563.5 Z" fill="#000000" fill-rule="evenodd" fill-opacity="1" /><polyline clip-path="url(#clip333)" style="stroke:#000000; stroke-linecap:butt; stroke-linejoin:round; stroke-width:2; stroke-opacity:0.1; fill:none" points="
  317.528,1304.67 2352.76,1304.67 
  "/>
<polyline clip-path="url(#clip333)" style="stroke:#000000; stroke-linecap:butt; stroke-linejoin:round; stroke-width:2; stroke-opacity:0.1; fill:none" points="
  317.528,1060.81 2352.76,1060.81 
  "/>
<polyline clip-path="url(#clip333)" style="stroke:#000000; stroke-linecap:butt; stroke-linejoin:round; stroke-width:2; stroke-opacity:0.1; fill:none" points="
  317.528,816.945 2352.76,816.945 
  "/>
<polyline clip-path="url(#clip333)" style="stroke:#000000; stroke-linecap:butt; stroke-linejoin:round; stroke-width:2; stroke-opacity:0.1; fill:none" points="
  317.528,573.08 2352.76,573.08 
  "/>
<polyline clip-path="url(#clip333)" style="stroke:#000000; stroke-linecap:butt; stroke-linejoin:round; stroke-width:2; stroke-opacity:0.1; fill:none" points="
  317.528,329.216 2352.76,329.216 
  "/>
<polyline clip-path="url(#clip330)" style="stroke:#000000; stroke-linecap:butt; stroke-linejoin:round; stroke-width:4; stroke-opacity:1; fill:none" points="
  317.528,1423.18 317.528,123.472 
  "/>
<polyline clip-path="url(#clip330)" style="stroke:#000000; stroke-linecap:butt; stroke-linejoin:round; stroke-width:4; stroke-opacity:1; fill:none" points="
  317.528,1304.67 336.425,1304.67 
  "/>
<polyline clip-path="url(#clip330)" style="stroke:#000000; stroke-linecap:butt; stroke-linejoin:round; stroke-width:4; stroke-opacity:1; fill:none" points="
  317.528,1060.81 336.425,1060.81 
  "/>
<polyline clip-path="url(#clip330)" style="stroke:#000000; stroke-linecap:butt; stroke-linejoin:round; stroke-width:4; stroke-opacity:1; fill:none" points="
  317.528,816.945 336.425,816.945 
  "/>
<polyline clip-path="url(#clip330)" style="stroke:#000000; stroke-linecap:butt; stroke-linejoin:round; stroke-width:4; stroke-opacity:1; fill:none" points="
  317.528,573.08 336.425,573.08 
  "/>
<polyline clip-path="url(#clip330)" style="stroke:#000000; stroke-linecap:butt; stroke-linejoin:round; stroke-width:4; stroke-opacity:1; fill:none" points="
  317.528,329.216 336.425,329.216 
  "/>
<path clip-path="url(#clip330)" d="M114.26 1305.13 L143.936 1305.13 L143.936 1309.06 L114.26 1309.06 L114.26 1305.13 Z" fill="#000000" fill-rule="evenodd" fill-opacity="1" /><path clip-path="url(#clip330)" d="M158.056 1318.02 L174.376 1318.02 L174.376 1321.95 L152.431 1321.95 L152.431 1318.02 Q155.093 1315.26 159.677 1310.64 Q164.283 1305.98 165.464 1304.64 Q167.709 1302.12 168.589 1300.38 Q169.491 1298.62 169.491 1296.93 Q169.491 1294.18 167.547 1292.44 Q165.626 1290.7 162.524 1290.7 Q160.325 1290.7 157.871 1291.47 Q155.44 1292.23 152.663 1293.78 L152.663 1289.06 Q155.487 1287.93 157.94 1287.35 Q160.394 1286.77 162.431 1286.77 Q167.802 1286.77 170.996 1289.45 Q174.19 1292.14 174.19 1296.63 Q174.19 1298.76 173.38 1300.68 Q172.593 1302.58 170.487 1305.17 Q169.908 1305.84 166.806 1309.06 Q163.704 1312.26 158.056 1318.02 Z" fill="#000000" fill-rule="evenodd" fill-opacity="1" /><path clip-path="url(#clip330)" d="M185.001 1318.02 L192.639 1318.02 L192.639 1291.65 L184.329 1293.32 L184.329 1289.06 L192.593 1287.39 L197.269 1287.39 L197.269 1318.02 L204.908 1318.02 L204.908 1321.95 L185.001 1321.95 L185.001 1318.02 Z" fill="#000000" fill-rule="evenodd" fill-opacity="1" /><path clip-path="url(#clip330)" d="M214.352 1316.07 L219.236 1316.07 L219.236 1321.95 L214.352 1321.95 L214.352 1316.07 Z" fill="#000000" fill-rule="evenodd" fill-opacity="1" /><path clip-path="url(#clip330)" d="M229.468 1287.39 L247.824 1287.39 L247.824 1291.33 L233.75 1291.33 L233.75 1299.8 Q234.769 1299.45 235.787 1299.29 Q236.806 1299.11 237.824 1299.11 Q243.611 1299.11 246.991 1302.28 Q250.371 1305.45 250.371 1310.87 Q250.371 1316.45 246.898 1319.55 Q243.426 1322.63 237.107 1322.63 Q234.931 1322.63 232.662 1322.26 Q230.417 1321.89 228.01 1321.14 L228.01 1316.45 Q230.093 1317.58 232.315 1318.14 Q234.537 1318.69 237.014 1318.69 Q241.019 1318.69 243.357 1316.58 Q245.695 1314.48 245.695 1310.87 Q245.695 1307.26 243.357 1305.15 Q241.019 1303.04 237.014 1303.04 Q235.139 1303.04 233.264 1303.46 Q231.412 1303.88 229.468 1304.76 L229.468 1287.39 Z" fill="#000000" fill-rule="evenodd" fill-opacity="1" /><path clip-path="url(#clip330)" d="M269.583 1290.47 Q265.972 1290.47 264.144 1294.04 Q262.338 1297.58 262.338 1304.71 Q262.338 1311.82 264.144 1315.38 Q265.972 1318.92 269.583 1318.92 Q273.218 1318.92 275.023 1315.38 Q276.852 1311.82 276.852 1304.71 Q276.852 1297.58 275.023 1294.04 Q273.218 1290.47 269.583 1290.47 M269.583 1286.77 Q275.394 1286.77 278.449 1291.38 Q281.528 1295.96 281.528 1304.71 Q281.528 1313.44 278.449 1318.04 Q275.394 1322.63 269.583 1322.63 Q263.773 1322.63 260.695 1318.04 Q257.639 1313.44 257.639 1304.71 Q257.639 1295.96 260.695 1291.38 Q263.773 1286.77 269.583 1286.77 Z" fill="#000000" fill-rule="evenodd" fill-opacity="1" /><path clip-path="url(#clip330)" d="M115.256 1061.26 L144.931 1061.26 L144.931 1065.2 L115.256 1065.2 L115.256 1061.26 Z" fill="#000000" fill-rule="evenodd" fill-opacity="1" /><path clip-path="url(#clip330)" d="M159.052 1074.15 L175.371 1074.15 L175.371 1078.09 L153.427 1078.09 L153.427 1074.15 Q156.089 1071.4 160.672 1066.77 Q165.278 1062.12 166.459 1060.78 Q168.704 1058.25 169.584 1056.52 Q170.487 1054.76 170.487 1053.07 Q170.487 1050.31 168.542 1048.58 Q166.621 1046.84 163.519 1046.84 Q161.32 1046.84 158.866 1047.6 Q156.436 1048.37 153.658 1049.92 L153.658 1045.2 Q156.482 1044.06 158.936 1043.48 Q161.39 1042.9 163.427 1042.9 Q168.797 1042.9 171.991 1045.59 Q175.186 1048.28 175.186 1052.77 Q175.186 1054.9 174.376 1056.82 Q173.589 1058.71 171.482 1061.31 Q170.903 1061.98 167.802 1065.2 Q164.7 1068.39 159.052 1074.15 Z" fill="#000000" fill-rule="evenodd" fill-opacity="1" /><path clip-path="url(#clip330)" d="M185.996 1074.15 L193.635 1074.15 L193.635 1047.79 L185.325 1049.46 L185.325 1045.2 L193.588 1043.53 L198.264 1043.53 L198.264 1074.15 L205.903 1074.15 L205.903 1078.09 L185.996 1078.09 L185.996 1074.15 Z" fill="#000000" fill-rule="evenodd" fill-opacity="1" /><path clip-path="url(#clip330)" d="M215.348 1072.21 L220.232 1072.21 L220.232 1078.09 L215.348 1078.09 L215.348 1072.21 Z" fill="#000000" fill-rule="evenodd" fill-opacity="1" /><path clip-path="url(#clip330)" d="M234.445 1074.15 L250.764 1074.15 L250.764 1078.09 L228.82 1078.09 L228.82 1074.15 Q231.482 1071.4 236.065 1066.77 Q240.672 1062.12 241.852 1060.78 Q244.097 1058.25 244.977 1056.52 Q245.88 1054.76 245.88 1053.07 Q245.88 1050.31 243.935 1048.58 Q242.014 1046.84 238.912 1046.84 Q236.713 1046.84 234.26 1047.6 Q231.829 1048.37 229.051 1049.92 L229.051 1045.2 Q231.875 1044.06 234.329 1043.48 Q236.783 1042.9 238.82 1042.9 Q244.19 1042.9 247.384 1045.59 Q250.579 1048.28 250.579 1052.77 Q250.579 1054.9 249.769 1056.82 Q248.982 1058.71 246.875 1061.31 Q246.296 1061.98 243.195 1065.2 Q240.093 1068.39 234.445 1074.15 Z" fill="#000000" fill-rule="evenodd" fill-opacity="1" /><path clip-path="url(#clip330)" d="M260.625 1043.53 L278.981 1043.53 L278.981 1047.46 L264.907 1047.46 L264.907 1055.94 Q265.926 1055.59 266.945 1055.43 Q267.963 1055.24 268.982 1055.24 Q274.769 1055.24 278.148 1058.41 Q281.528 1061.59 281.528 1067 Q281.528 1072.58 278.056 1075.68 Q274.583 1078.76 268.264 1078.76 Q266.088 1078.76 263.82 1078.39 Q261.574 1078.02 259.167 1077.28 L259.167 1072.58 Q261.25 1073.71 263.472 1074.27 Q265.695 1074.83 268.171 1074.83 Q272.176 1074.83 274.514 1072.72 Q276.852 1070.61 276.852 1067 Q276.852 1063.39 274.514 1061.28 Q272.176 1059.18 268.171 1059.18 Q266.296 1059.18 264.421 1059.59 Q262.57 1060.01 260.625 1060.89 L260.625 1043.53 Z" fill="#000000" fill-rule="evenodd" fill-opacity="1" /><path clip-path="url(#clip330)" d="M114.26 817.396 L143.936 817.396 L143.936 821.332 L114.26 821.332 L114.26 817.396 Z" fill="#000000" fill-rule="evenodd" fill-opacity="1" /><path clip-path="url(#clip330)" d="M158.056 830.29 L174.376 830.29 L174.376 834.225 L152.431 834.225 L152.431 830.29 Q155.093 827.535 159.677 822.906 Q164.283 818.253 165.464 816.91 Q167.709 814.387 168.589 812.651 Q169.491 810.892 169.491 809.202 Q169.491 806.447 167.547 804.711 Q165.626 802.975 162.524 802.975 Q160.325 802.975 157.871 803.739 Q155.44 804.503 152.663 806.054 L152.663 801.332 Q155.487 800.197 157.94 799.619 Q160.394 799.04 162.431 799.04 Q167.802 799.04 170.996 801.725 Q174.19 804.41 174.19 808.901 Q174.19 811.031 173.38 812.952 Q172.593 814.85 170.487 817.443 Q169.908 818.114 166.806 821.332 Q163.704 824.526 158.056 830.29 Z" fill="#000000" fill-rule="evenodd" fill-opacity="1" /><path clip-path="url(#clip330)" d="M185.001 830.29 L192.639 830.29 L192.639 803.924 L184.329 805.591 L184.329 801.332 L192.593 799.665 L197.269 799.665 L197.269 830.29 L204.908 830.29 L204.908 834.225 L185.001 834.225 L185.001 830.29 Z" fill="#000000" fill-rule="evenodd" fill-opacity="1" /><path clip-path="url(#clip330)" d="M214.352 828.345 L219.236 828.345 L219.236 834.225 L214.352 834.225 L214.352 828.345 Z" fill="#000000" fill-rule="evenodd" fill-opacity="1" /><path clip-path="url(#clip330)" d="M239.422 802.744 Q235.81 802.744 233.982 806.309 Q232.176 809.85 232.176 816.98 Q232.176 824.086 233.982 827.651 Q235.81 831.193 239.422 831.193 Q243.056 831.193 244.861 827.651 Q246.69 824.086 246.69 816.98 Q246.69 809.85 244.861 806.309 Q243.056 802.744 239.422 802.744 M239.422 799.04 Q245.232 799.04 248.287 803.647 Q251.366 808.23 251.366 816.98 Q251.366 825.707 248.287 830.313 Q245.232 834.896 239.422 834.896 Q233.611 834.896 230.533 830.313 Q227.477 825.707 227.477 816.98 Q227.477 808.23 230.533 803.647 Q233.611 799.04 239.422 799.04 Z" fill="#000000" fill-rule="evenodd" fill-opacity="1" /><path clip-path="url(#clip330)" d="M269.583 802.744 Q265.972 802.744 264.144 806.309 Q262.338 809.85 262.338 816.98 Q262.338 824.086 264.144 827.651 Q265.972 831.193 269.583 831.193 Q273.218 831.193 275.023 827.651 Q276.852 824.086 276.852 816.98 Q276.852 809.85 275.023 806.309 Q273.218 802.744 269.583 802.744 M269.583 799.04 Q275.394 799.04 278.449 803.647 Q281.528 808.23 281.528 816.98 Q281.528 825.707 278.449 830.313 Q275.394 834.896 269.583 834.896 Q263.773 834.896 260.695 830.313 Q257.639 825.707 257.639 816.98 Q257.639 808.23 260.695 803.647 Q263.773 799.04 269.583 799.04 Z" fill="#000000" fill-rule="evenodd" fill-opacity="1" /><path clip-path="url(#clip330)" d="M115.256 573.532 L144.931 573.532 L144.931 577.467 L115.256 577.467 L115.256 573.532 Z" fill="#000000" fill-rule="evenodd" fill-opacity="1" /><path clip-path="url(#clip330)" d="M159.052 586.425 L175.371 586.425 L175.371 590.36 L153.427 590.36 L153.427 586.425 Q156.089 583.671 160.672 579.041 Q165.278 574.388 166.459 573.046 Q168.704 570.523 169.584 568.786 Q170.487 567.027 170.487 565.337 Q170.487 562.583 168.542 560.847 Q166.621 559.111 163.519 559.111 Q161.32 559.111 158.866 559.874 Q156.436 560.638 153.658 562.189 L153.658 557.467 Q156.482 556.333 158.936 555.754 Q161.39 555.175 163.427 555.175 Q168.797 555.175 171.991 557.861 Q175.186 560.546 175.186 565.036 Q175.186 567.166 174.376 569.087 Q173.589 570.985 171.482 573.578 Q170.903 574.249 167.802 577.467 Q164.7 580.661 159.052 586.425 Z" fill="#000000" fill-rule="evenodd" fill-opacity="1" /><path clip-path="url(#clip330)" d="M195.186 558.879 Q191.575 558.879 189.746 562.444 Q187.94 565.986 187.94 573.115 Q187.94 580.222 189.746 583.786 Q191.575 587.328 195.186 587.328 Q198.82 587.328 200.625 583.786 Q202.454 580.222 202.454 573.115 Q202.454 565.986 200.625 562.444 Q198.82 558.879 195.186 558.879 M195.186 555.175 Q200.996 555.175 204.051 559.782 Q207.13 564.365 207.13 573.115 Q207.13 581.842 204.051 586.448 Q200.996 591.032 195.186 591.032 Q189.375 591.032 186.297 586.448 Q183.241 581.842 183.241 573.115 Q183.241 564.365 186.297 559.782 Q189.375 555.175 195.186 555.175 Z" fill="#000000" fill-rule="evenodd" fill-opacity="1" /><path clip-path="url(#clip330)" d="M215.348 584.481 L220.232 584.481 L220.232 590.36 L215.348 590.36 L215.348 584.481 Z" fill="#000000" fill-rule="evenodd" fill-opacity="1" /><path clip-path="url(#clip330)" d="M229.236 555.8 L251.458 555.8 L251.458 557.791 L238.912 590.36 L234.028 590.36 L245.834 559.736 L229.236 559.736 L229.236 555.8 Z" fill="#000000" fill-rule="evenodd" fill-opacity="1" /><path clip-path="url(#clip330)" d="M260.625 555.8 L278.981 555.8 L278.981 559.736 L264.907 559.736 L264.907 568.208 Q265.926 567.861 266.945 567.698 Q267.963 567.513 268.982 567.513 Q274.769 567.513 278.148 570.685 Q281.528 573.856 281.528 579.272 Q281.528 584.851 278.056 587.953 Q274.583 591.032 268.264 591.032 Q266.088 591.032 263.82 590.661 Q261.574 590.291 259.167 589.55 L259.167 584.851 Q261.25 585.985 263.472 586.541 Q265.695 587.097 268.171 587.097 Q272.176 587.097 274.514 584.99 Q276.852 582.884 276.852 579.272 Q276.852 575.661 274.514 573.555 Q272.176 571.448 268.171 571.448 Q266.296 571.448 264.421 571.865 Q262.57 572.282 260.625 573.161 L260.625 555.8 Z" fill="#000000" fill-rule="evenodd" fill-opacity="1" /><path clip-path="url(#clip330)" d="M114.26 329.667 L143.936 329.667 L143.936 333.602 L114.26 333.602 L114.26 329.667 Z" fill="#000000" fill-rule="evenodd" fill-opacity="1" /><path clip-path="url(#clip330)" d="M158.056 342.561 L174.376 342.561 L174.376 346.496 L152.431 346.496 L152.431 342.561 Q155.093 339.806 159.677 335.176 Q164.283 330.524 165.464 329.181 Q167.709 326.658 168.589 324.922 Q169.491 323.162 169.491 321.473 Q169.491 318.718 167.547 316.982 Q165.626 315.246 162.524 315.246 Q160.325 315.246 157.871 316.01 Q155.44 316.774 152.663 318.325 L152.663 313.602 Q155.487 312.468 157.94 311.889 Q160.394 311.311 162.431 311.311 Q167.802 311.311 170.996 313.996 Q174.19 316.681 174.19 321.172 Q174.19 323.301 173.38 325.223 Q172.593 327.121 170.487 329.713 Q169.908 330.385 166.806 333.602 Q163.704 336.797 158.056 342.561 Z" fill="#000000" fill-rule="evenodd" fill-opacity="1" /><path clip-path="url(#clip330)" d="M194.19 315.014 Q190.579 315.014 188.75 318.579 Q186.945 322.121 186.945 329.25 Q186.945 336.357 188.75 339.922 Q190.579 343.463 194.19 343.463 Q197.825 343.463 199.63 339.922 Q201.459 336.357 201.459 329.25 Q201.459 322.121 199.63 318.579 Q197.825 315.014 194.19 315.014 M194.19 311.311 Q200 311.311 203.056 315.917 Q206.135 320.5 206.135 329.25 Q206.135 337.977 203.056 342.584 Q200 347.167 194.19 347.167 Q188.38 347.167 185.301 342.584 Q182.246 337.977 182.246 329.25 Q182.246 320.5 185.301 315.917 Q188.38 311.311 194.19 311.311 Z" fill="#000000" fill-rule="evenodd" fill-opacity="1" /><path clip-path="url(#clip330)" d="M214.352 340.616 L219.236 340.616 L219.236 346.496 L214.352 346.496 L214.352 340.616 Z" fill="#000000" fill-rule="evenodd" fill-opacity="1" /><path clip-path="url(#clip330)" d="M229.468 311.936 L247.824 311.936 L247.824 315.871 L233.75 315.871 L233.75 324.343 Q234.769 323.996 235.787 323.834 Q236.806 323.649 237.824 323.649 Q243.611 323.649 246.991 326.82 Q250.371 329.991 250.371 335.408 Q250.371 340.986 246.898 344.088 Q243.426 347.167 237.107 347.167 Q234.931 347.167 232.662 346.797 Q230.417 346.426 228.01 345.686 L228.01 340.986 Q230.093 342.121 232.315 342.676 Q234.537 343.232 237.014 343.232 Q241.019 343.232 243.357 341.125 Q245.695 339.019 245.695 335.408 Q245.695 331.797 243.357 329.69 Q241.019 327.584 237.014 327.584 Q235.139 327.584 233.264 328 Q231.412 328.417 229.468 329.297 L229.468 311.936 Z" fill="#000000" fill-rule="evenodd" fill-opacity="1" /><path clip-path="url(#clip330)" d="M269.583 315.014 Q265.972 315.014 264.144 318.579 Q262.338 322.121 262.338 329.25 Q262.338 336.357 264.144 339.922 Q265.972 343.463 269.583 343.463 Q273.218 343.463 275.023 339.922 Q276.852 336.357 276.852 329.25 Q276.852 322.121 275.023 318.579 Q273.218 315.014 269.583 315.014 M269.583 311.311 Q275.394 311.311 278.449 315.917 Q281.528 320.5 281.528 329.25 Q281.528 337.977 278.449 342.584 Q275.394 347.167 269.583 347.167 Q263.773 347.167 260.695 342.584 Q257.639 337.977 257.639 329.25 Q257.639 320.5 260.695 315.917 Q263.773 311.311 269.583 311.311 Z" fill="#000000" fill-rule="evenodd" fill-opacity="1" /><path clip-path="url(#clip330)" d="M24.2092 834.427 Q25.4009 834.491 25.4653 835.297 Q25.5297 836.52 25.6907 837.261 Q25.8195 838.002 26.3026 839.161 Q26.7857 840.321 27.9451 841.448 Q29.1045 842.575 30.9403 843.735 L68.7177 867.47 Q69.4263 867.889 69.6517 868.243 Q69.9094 868.565 69.9094 869.306 Q69.9094 869.982 69.6195 870.24 Q69.3619 870.498 68.3957 870.626 L27.6875 875.844 Q26.9467 875.94 26.6247 876.037 Q26.3026 876.134 25.9806 876.52 Q25.6585 876.874 25.5619 877.647 Q25.4653 878.42 25.4653 879.805 Q25.4653 880.449 25.4331 880.739 Q25.4009 880.997 25.2398 881.222 Q25.0466 881.448 24.6601 881.448 Q24.0804 881.448 23.7906 881.222 Q23.4685 880.965 23.4363 880.771 Q23.4041 880.546 23.4041 880.192 Q23.4041 879.644 23.4685 878.452 Q23.5329 877.261 23.5329 876.649 Q23.5329 876.069 23.5651 874.845 Q23.5973 873.622 23.5973 873.01 Q23.5973 871.657 23.5007 868.92 Q23.4041 866.15 23.4041 864.829 Q23.4041 863.928 24.1448 863.928 Q25.0466 863.928 25.272 864.314 Q25.4653 864.701 25.4653 865.57 Q25.4653 867.76 26.0128 868.952 Q26.5603 870.111 27.4298 870.111 L62.341 865.635 L30.1351 845.377 Q28.6214 844.379 27.6231 844.379 Q25.6907 844.379 25.4653 847.438 Q25.4653 848.469 24.6601 848.469 Q24.0804 848.469 23.7906 848.211 Q23.4685 847.954 23.4363 847.76 Q23.4041 847.535 23.4041 847.213 Q23.4041 846.15 23.5007 843.992 Q23.5973 841.802 23.5973 840.707 Q23.5973 839.805 23.5007 837.97 Q23.4041 836.134 23.4041 835.297 Q23.4041 834.427 24.2092 834.427 Z" fill="#000000" fill-rule="evenodd" fill-opacity="1" /><path clip-path="url(#clip330)" d="M51.9707 825.705 Q40.8275 825.705 31.842 821.55 Q28.0739 819.779 24.9178 817.299 Q21.7616 814.819 20.3767 813.177 Q18.9919 811.534 18.9919 811.083 Q18.9919 810.439 19.636 810.407 Q19.9581 810.407 20.7632 811.276 Q31.5844 821.904 51.9707 821.872 Q72.4214 821.872 82.8239 811.534 Q83.9511 810.407 84.3054 810.407 Q84.9495 810.407 84.9495 811.083 Q84.9495 811.534 83.6291 813.112 Q82.3086 814.69 79.2813 817.138 Q76.2539 819.586 72.5502 821.357 Q63.5648 825.705 51.9707 825.705 Z" fill="#000000" fill-rule="evenodd" fill-opacity="1" /><path clip-path="url(#clip330)" d="M41.8258 774.959 Q42.2767 774.959 43.3395 775.249 L68.5245 781.561 Q74.1283 782.946 78.0574 787.455 Q81.9866 791.931 81.9866 797.02 Q81.9866 800.079 80.3441 802.044 Q78.7338 804.008 76.2539 804.008 Q74.0639 804.008 73.0011 802.849 Q71.9705 801.69 71.9705 800.305 Q71.9705 799.854 72.0994 799.371 Q72.2282 798.888 72.7757 798.372 Q73.3232 797.857 74.2572 797.857 Q75.7708 797.857 76.9624 799.178 Q77.5099 799.822 77.6388 800.434 Q77.7676 801.013 77.7676 802.012 Q78.6694 801.625 79.2813 800.917 Q79.8932 800.208 80.1186 799.403 Q80.3763 798.598 80.4407 798.083 Q80.5373 797.535 80.5373 797.02 Q80.5373 792.897 76.3827 789.741 Q75.1267 788.807 73.8707 788.131 Q72.6469 787.422 71.1332 786.907 Q69.6517 786.392 68.8466 786.166 Q68.0414 785.909 66.2057 785.458 Q69.2008 788.453 69.2008 792.124 Q69.2008 793.67 68.7822 795.055 Q68.3635 796.408 67.4939 797.599 Q66.5922 798.791 65.0141 799.5 Q63.436 800.176 61.3426 800.176 Q59.1204 800.176 56.093 799.306 Q53.0657 798.437 47.4941 796.343 Q44.3701 795.216 42.8564 795.216 Q42.1157 795.216 41.6648 795.377 Q41.1817 795.538 41.0207 795.86 Q40.8275 796.182 40.7953 796.376 Q40.7631 796.537 40.7631 796.859 Q40.7631 798.759 42.6954 800.53 Q44.6278 802.302 48.9433 803.525 Q49.7485 803.783 49.9417 803.944 Q50.135 804.105 50.135 804.588 Q50.1028 805.393 49.4586 805.393 Q49.201 805.393 48.2026 805.103 Q47.172 804.814 45.6583 804.137 Q44.1125 803.429 42.7276 802.463 Q41.3106 801.496 40.3122 799.983 Q39.3138 798.437 39.3138 796.666 Q39.3138 794.25 40.8919 792.769 Q42.4378 791.255 44.7244 791.255 Q45.6583 791.255 46.4957 791.513 Q47.3008 791.738 49.4586 792.575 Q58.1542 795.957 62.4054 795.957 Q63.436 795.957 64.3055 795.796 Q65.1429 795.603 65.9802 795.184 Q66.7854 794.765 67.2685 793.928 Q67.7194 793.058 67.7194 791.867 Q67.7194 790.353 67.0108 788.936 Q66.2701 787.487 65.2717 786.585 Q64.2733 785.651 63.436 785.104 Q62.5664 784.524 62.1155 784.395 L50.2638 781.432 L44.982 780.112 Q42.1157 779.5 41.4072 779.21 Q40.7308 778.823 40.3766 778.147 Q40.0223 777.471 40.0223 776.891 Q40.0223 776.086 40.5054 775.538 Q40.9885 774.959 41.8258 774.959 Z" fill="#000000" fill-rule="evenodd" fill-opacity="1" /><path clip-path="url(#clip330)" d="M67.3973 772.465 Q66.3345 773.399 64.9497 773.399 Q63.5648 773.399 62.5342 772.497 Q61.4714 771.563 61.4714 769.889 Q61.4714 767.924 63.3716 766.797 Q65.2395 765.67 68.3957 765.67 Q71.8095 765.67 74.9657 767.055 Q78.1541 768.439 79.6677 769.792 Q81.1814 771.145 81.1814 771.692 Q81.1814 772.336 80.4729 772.336 Q80.2152 772.336 79.7321 771.885 Q74.6436 767.151 68.3957 767.119 Q67.3973 767.119 67.3973 767.248 L67.5261 767.409 Q68.4601 768.536 68.4601 769.889 Q68.4601 771.531 67.3973 772.465 Z" fill="#000000" fill-rule="evenodd" fill-opacity="1" /><path clip-path="url(#clip330)" d="M32.5184 697.769 Q35.5135 697.769 38.2188 699.83 Q40.8919 701.859 42.5988 704.951 Q44.2735 708.043 44.9176 711.553 Q45.4651 706.819 48.0416 704.081 Q50.618 701.312 54.2251 701.312 Q56.6405 701.312 59.1848 702.729 Q61.6969 704.114 63.758 706.497 Q65.8192 708.848 67.1397 712.326 Q68.4601 715.772 68.4601 719.54 L68.4601 743.083 Q68.4601 743.823 68.4279 744.113 Q68.3957 744.403 68.2347 744.629 Q68.0736 744.854 67.7194 744.854 Q67.0752 744.854 66.7854 744.629 Q66.4955 744.371 66.4633 744.081 Q66.4311 743.791 66.4311 743.083 Q66.4311 741.472 66.3345 740.506 Q66.2379 739.54 66.1091 738.928 Q65.948 738.284 65.4972 737.962 Q65.0463 737.608 64.6598 737.447 Q64.2411 737.286 63.3072 737.06 L27.8807 728.236 Q26.8179 727.978 26.6569 727.978 Q26.045 727.978 25.8839 728.365 Q25.6907 728.719 25.5941 729.749 L25.4653 732.262 Q25.4653 733.034 25.4331 733.357 Q25.4009 733.646 25.2398 733.872 Q25.0788 734.097 24.7245 734.097 Q23.8228 734.097 23.6295 733.711 Q23.4041 733.292 23.4041 732.197 L23.4041 710.039 Q23.4041 704.339 26.045 701.054 Q28.6537 697.769 32.5184 697.769 M32.2607 703.759 Q31.0369 703.759 29.9419 704.081 Q28.8469 704.403 27.7841 705.176 Q26.7213 705.917 26.1094 707.399 Q25.4653 708.88 25.4653 710.941 L25.4653 719.476 Q25.4653 721.569 25.8517 722.084 Q26.206 722.568 27.9773 723.018 L44.3057 727.109 L44.3057 717.479 Q44.3057 714.548 43.2429 711.972 Q42.1801 709.363 40.4732 707.592 Q38.7341 705.821 36.5763 704.79 Q34.4185 703.759 32.2607 703.759 M53.4844 707.463 Q52.5182 707.463 51.5842 707.624 Q50.6503 707.785 49.5553 708.3 Q48.4603 708.816 47.6551 709.621 Q46.85 710.426 46.3025 711.843 Q45.755 713.228 45.755 715.031 L45.755 727.495 L64.1767 732.068 Q65.3683 732.39 65.6904 732.39 Q66.0447 732.39 66.1735 732.229 Q66.2701 732.036 66.3345 731.521 Q66.4311 730.941 66.4311 730.072 L66.4311 721.118 Q66.4311 718.284 65.3361 715.708 Q64.2089 713.131 62.4054 711.36 Q60.6019 709.556 58.2508 708.526 Q55.8998 707.463 53.4844 707.463 Z" fill="#000000" fill-rule="evenodd" fill-opacity="1" /><path clip-path="url(#clip330)" d="M84.3054 690.532 Q83.9833 690.532 83.1782 689.694 Q72.357 679.066 51.9707 679.066 Q31.52 679.066 21.1819 689.276 Q19.9903 690.532 19.636 690.532 Q18.9919 690.532 18.9919 689.888 Q18.9919 689.437 20.3123 687.859 Q21.6328 686.248 24.6601 683.833 Q27.6875 681.385 31.3911 679.582 Q40.3766 675.234 51.9707 675.234 Q63.1139 675.234 72.0994 679.389 Q75.8674 681.16 79.0236 683.64 Q82.1798 686.12 83.5646 687.762 Q84.9495 689.405 84.9495 689.888 Q84.9495 690.532 84.3054 690.532 Z" fill="#000000" fill-rule="evenodd" fill-opacity="1" /><path clip-path="url(#clip330)" d="M1042.42 72.576 L1019.33 12.096 L1027.88 12.096 L1047.04 63.0159 L1066.24 12.096 L1074.75 12.096 L1051.7 72.576 L1042.42 72.576 Z" fill="#000000" fill-rule="evenodd" fill-opacity="1" /><path clip-path="url(#clip330)" d="M1097.43 49.7694 Q1088.4 49.7694 1084.92 51.8354 Q1081.43 53.9013 1081.43 58.8839 Q1081.43 62.8538 1084.03 65.2034 Q1086.66 67.5124 1091.16 67.5124 Q1097.35 67.5124 1101.08 63.1374 Q1104.85 58.7219 1104.85 51.4303 L1104.85 49.7694 L1097.43 49.7694 M1112.3 46.6907 L1112.3 72.576 L1104.85 72.576 L1104.85 65.6895 Q1102.3 69.8214 1098.49 71.8063 Q1094.68 73.7508 1089.17 73.7508 Q1082.2 73.7508 1078.07 69.8619 Q1073.98 65.9325 1073.98 59.3701 Q1073.98 51.7138 1079.08 47.825 Q1084.23 43.9361 1094.4 43.9361 L1104.85 43.9361 L1104.85 43.2069 Q1104.85 38.0623 1101.45 35.2672 Q1098.08 32.4315 1091.97 32.4315 Q1088.08 32.4315 1084.39 33.3632 Q1080.7 34.295 1077.3 36.1584 L1077.3 29.2718 Q1081.39 27.692 1085.24 26.9223 Q1089.09 26.1121 1092.74 26.1121 Q1102.58 26.1121 1107.44 31.2163 Q1112.3 36.3204 1112.3 46.6907 Z" fill="#000000" fill-rule="evenodd" fill-opacity="1" /><path clip-path="url(#clip330)" d="M1127.65 9.54393 L1135.11 9.54393 L1135.11 72.576 L1127.65 72.576 L1127.65 9.54393 Z" fill="#000000" fill-rule="evenodd" fill-opacity="1" /><path clip-path="url(#clip330)" d="M1149.93 54.671 L1149.93 27.2059 L1157.39 27.2059 L1157.39 54.3874 Q1157.39 60.8284 1159.9 64.0691 Q1162.41 67.2693 1167.43 67.2693 Q1173.47 67.2693 1176.95 63.421 Q1180.48 59.5726 1180.48 52.9291 L1180.48 27.2059 L1187.93 27.2059 L1187.93 72.576 L1180.48 72.576 L1180.48 65.6084 Q1177.76 69.7404 1174.16 71.7658 Q1170.59 73.7508 1165.85 73.7508 Q1158.04 73.7508 1153.99 68.8897 Q1149.93 64.0286 1149.93 54.671 M1168.69 26.1121 L1168.69 26.1121 Z" fill="#000000" fill-rule="evenodd" fill-opacity="1" /><path clip-path="url(#clip330)" d="M1242.09 48.0275 L1242.09 51.6733 L1207.82 51.6733 Q1208.31 59.3701 1212.44 63.421 Q1216.61 67.4314 1224.03 67.4314 Q1228.32 67.4314 1232.33 66.3781 Q1236.38 65.3249 1240.35 63.2184 L1240.35 70.267 Q1236.34 71.9684 1232.13 72.8596 Q1227.91 73.7508 1223.58 73.7508 Q1212.72 73.7508 1206.36 67.4314 Q1200.04 61.1119 1200.04 50.3365 Q1200.04 39.1965 1206.04 32.6746 Q1212.08 26.1121 1222.28 26.1121 Q1231.44 26.1121 1236.75 32.0264 Q1242.09 37.9003 1242.09 48.0275 M1234.64 45.84 Q1234.56 39.7232 1231.2 36.0774 Q1227.87 32.4315 1222.36 32.4315 Q1216.13 32.4315 1212.36 35.9558 Q1208.63 39.4801 1208.06 45.8805 L1234.64 45.84 Z" fill="#000000" fill-rule="evenodd" fill-opacity="1" /><path clip-path="url(#clip330)" d="M1303.67 9.54393 L1303.67 15.7418 L1296.54 15.7418 Q1292.53 15.7418 1290.95 17.3622 Q1289.41 18.9825 1289.41 23.1955 L1289.41 27.2059 L1301.68 27.2059 L1301.68 32.9987 L1289.41 32.9987 L1289.41 72.576 L1281.91 72.576 L1281.91 32.9987 L1274.78 32.9987 L1274.78 27.2059 L1281.91 27.2059 L1281.91 24.0462 Q1281.91 16.471 1285.44 13.0277 Q1288.96 9.54393 1296.62 9.54393 L1303.67 9.54393 Z" fill="#000000" fill-rule="evenodd" fill-opacity="1" /><path clip-path="url(#clip330)" d="M1309.14 54.671 L1309.14 27.2059 L1316.59 27.2059 L1316.59 54.3874 Q1316.59 60.8284 1319.1 64.0691 Q1321.61 67.2693 1326.63 67.2693 Q1332.67 67.2693 1336.15 63.421 Q1339.68 59.5726 1339.68 52.9291 L1339.68 27.2059 L1347.13 27.2059 L1347.13 72.576 L1339.68 72.576 L1339.68 65.6084 Q1336.96 69.7404 1333.36 71.7658 Q1329.79 73.7508 1325.06 73.7508 Q1317.24 73.7508 1313.19 68.8897 Q1309.14 64.0286 1309.14 54.671 M1327.89 26.1121 L1327.89 26.1121 Z" fill="#000000" fill-rule="evenodd" fill-opacity="1" /><path clip-path="url(#clip330)" d="M1400.2 45.1919 L1400.2 72.576 L1392.75 72.576 L1392.75 45.4349 Q1392.75 38.994 1390.23 35.7938 Q1387.72 32.5936 1382.7 32.5936 Q1376.66 32.5936 1373.18 36.4419 Q1369.7 40.2903 1369.7 46.9338 L1369.7 72.576 L1362.2 72.576 L1362.2 27.2059 L1369.7 27.2059 L1369.7 34.2544 Q1372.37 30.163 1375.97 28.1376 Q1379.62 26.1121 1384.36 26.1121 Q1392.18 26.1121 1396.19 30.9732 Q1400.2 35.7938 1400.2 45.1919 Z" fill="#000000" fill-rule="evenodd" fill-opacity="1" /><path clip-path="url(#clip330)" d="M1447.72 28.9478 L1447.72 35.9153 Q1444.56 34.1734 1441.36 33.3227 Q1438.2 32.4315 1434.96 32.4315 Q1427.71 32.4315 1423.69 37.0496 Q1419.68 41.6271 1419.68 49.9314 Q1419.68 58.2358 1423.69 62.8538 Q1427.71 67.4314 1434.96 67.4314 Q1438.2 67.4314 1441.36 66.5807 Q1444.56 65.6895 1447.72 63.9476 L1447.72 70.8341 Q1444.6 72.2924 1441.24 73.0216 Q1437.91 73.7508 1434.15 73.7508 Q1423.9 73.7508 1417.86 67.3098 Q1411.83 60.8689 1411.83 49.9314 Q1411.83 38.832 1417.9 32.472 Q1424.02 26.1121 1434.63 26.1121 Q1438.08 26.1121 1441.36 26.8413 Q1444.64 27.5299 1447.72 28.9478 Z" fill="#000000" fill-rule="evenodd" fill-opacity="1" /><path clip-path="url(#clip330)" d="M1468.05 14.324 L1468.05 27.2059 L1483.4 27.2059 L1483.4 32.9987 L1468.05 32.9987 L1468.05 57.6282 Q1468.05 63.1779 1469.55 64.7578 Q1471.09 66.3376 1475.75 66.3376 L1483.4 66.3376 L1483.4 72.576 L1475.75 72.576 Q1467.12 72.576 1463.84 69.3758 Q1460.56 66.1351 1460.56 57.6282 L1460.56 32.9987 L1455.09 32.9987 L1455.09 27.2059 L1460.56 27.2059 L1460.56 14.324 L1468.05 14.324 Z" fill="#000000" fill-rule="evenodd" fill-opacity="1" /><path clip-path="url(#clip330)" d="M1493.21 27.2059 L1500.66 27.2059 L1500.66 72.576 L1493.21 72.576 L1493.21 27.2059 M1493.21 9.54393 L1500.66 9.54393 L1500.66 18.9825 L1493.21 18.9825 L1493.21 9.54393 Z" fill="#000000" fill-rule="evenodd" fill-opacity="1" /><path clip-path="url(#clip330)" d="M1533.84 32.4315 Q1527.84 32.4315 1524.36 37.1306 Q1520.88 41.7891 1520.88 49.9314 Q1520.88 58.0738 1524.32 62.7728 Q1527.8 67.4314 1533.84 67.4314 Q1539.79 67.4314 1543.28 62.7323 Q1546.76 58.0333 1546.76 49.9314 Q1546.76 41.8701 1543.28 37.1711 Q1539.79 32.4315 1533.84 32.4315 M1533.84 26.1121 Q1543.56 26.1121 1549.11 32.4315 Q1554.66 38.7509 1554.66 49.9314 Q1554.66 61.0714 1549.11 67.4314 Q1543.56 73.7508 1533.84 73.7508 Q1524.08 73.7508 1518.53 67.4314 Q1513.02 61.0714 1513.02 49.9314 Q1513.02 38.7509 1518.53 32.4315 Q1524.08 26.1121 1533.84 26.1121 Z" fill="#000000" fill-rule="evenodd" fill-opacity="1" /><path clip-path="url(#clip330)" d="M1604.73 45.1919 L1604.73 72.576 L1597.28 72.576 L1597.28 45.4349 Q1597.28 38.994 1594.76 35.7938 Q1592.25 32.5936 1587.23 32.5936 Q1581.19 32.5936 1577.71 36.4419 Q1574.23 40.2903 1574.23 46.9338 L1574.23 72.576 L1566.73 72.576 L1566.73 27.2059 L1574.23 27.2059 L1574.23 34.2544 Q1576.9 30.163 1580.51 28.1376 Q1584.15 26.1121 1588.89 26.1121 Q1596.71 26.1121 1600.72 30.9732 Q1604.73 35.7938 1604.73 45.1919 Z" fill="#000000" fill-rule="evenodd" fill-opacity="1" /><path clip-path="url(#clip330)" d="M1648.52 28.5427 L1648.52 35.5912 Q1645.36 33.9709 1641.96 33.1607 Q1638.55 32.3505 1634.91 32.3505 Q1629.36 32.3505 1626.56 34.0519 Q1623.81 35.7533 1623.81 39.156 Q1623.81 41.7486 1625.79 43.2475 Q1627.78 44.7058 1633.77 46.0426 L1636.33 46.6097 Q1644.27 48.3111 1647.59 51.4303 Q1650.95 54.509 1650.95 60.0587 Q1650.95 66.3781 1645.93 70.0644 Q1640.94 73.7508 1632.19 73.7508 Q1628.55 73.7508 1624.58 73.0216 Q1620.65 72.3329 1616.27 70.9151 L1616.27 63.2184 Q1620.41 65.3654 1624.42 66.4591 Q1628.43 67.5124 1632.36 67.5124 Q1637.62 67.5124 1640.46 65.73 Q1643.29 63.9071 1643.29 60.6258 Q1643.29 57.5877 1641.23 55.9673 Q1639.2 54.3469 1632.28 52.8481 L1629.68 52.2405 Q1622.76 50.7821 1619.68 47.7845 Q1616.6 44.7463 1616.6 39.4801 Q1616.6 33.0797 1621.14 29.5959 Q1625.67 26.1121 1634.02 26.1121 Q1638.15 26.1121 1641.8 26.7198 Q1645.44 27.3274 1648.52 28.5427 Z" fill="#000000" fill-rule="evenodd" fill-opacity="1" /><polyline clip-path="url(#clip333)" style="stroke:#009af9; stroke-linecap:butt; stroke-linejoin:round; stroke-width:4; stroke-opacity:1; fill:none" points="
  375.129,1386.4 382.809,1386.4 390.489,1386.4 398.169,1386.4 405.849,1386.4 413.529,1386.4 421.209,1386.4 428.889,1386.4 436.569,1386.4 444.25,1386.4 
  451.93,1386.4 459.61,1386.4 467.29,1386.4 474.97,1386.4 482.65,1386.4 490.33,1386.4 498.01,1386.4 505.69,1386.4 513.37,1386.4 521.051,1386.4 
  528.731,1386.4 536.411,1386.4 544.091,1386.4 551.771,1386.4 559.451,1386.4 567.131,1386.4 574.811,1386.4 582.491,1386.4 590.172,1386.4 597.852,1386.4 
  605.532,1386.4 613.212,1386.4 620.892,1386.4 628.572,1386.4 636.252,1386.4 643.932,1386.4 651.612,1386.4 659.293,1386.4 666.973,1386.4 674.653,1386.4 
  682.333,1386.4 690.013,1386.4 697.693,1386.4 705.373,1386.4 713.053,1386.4 720.733,1386.4 728.413,1386.4 736.094,1386.4 743.774,1386.4 751.454,1386.4 
  759.134,1386.4 766.814,1386.4 774.494,1386.4 782.174,1386.4 789.854,1386.4 797.534,1386.4 805.215,1386.4 812.895,1386.4 820.575,1386.4 828.255,1386.4 
  835.935,1386.4 843.615,1386.4 851.295,1386.4 858.975,1386.4 866.655,1386.4 874.335,1386.4 882.016,1386.4 889.696,1386.4 897.376,1386.4 905.056,1386.4 
  912.736,1386.4 920.416,1386.4 928.096,1386.4 935.776,1386.4 943.456,1386.4 951.137,1386.4 958.817,1386.4 966.497,1386.4 974.177,1386.4 981.857,1386.4 
  989.537,1386.4 997.217,1386.4 1004.9,1386.4 1012.58,1386.4 1020.26,1386.4 1027.94,1386.4 1035.62,1386.4 1043.3,1386.4 1050.98,1386.4 1058.66,1386.4 
  1066.34,1386.4 1074.02,1386.4 1081.7,1386.4 1089.38,1386.4 1097.06,1386.4 1104.74,1386.4 1112.42,1386.4 1120.1,1386.4 1127.78,1386.4 1135.46,1386.4 
  1143.14,1386.4 1150.82,1386.4 1158.5,1386.4 1166.18,1386.4 1173.86,1386.4 1181.54,1386.4 1189.22,1386.4 1196.9,1386.4 1204.58,1386.4 1212.26,1386.4 
  1219.94,1386.4 1227.62,1386.4 1235.3,1386.4 1242.98,1386.4 1250.66,1386.4 1258.34,1383.81 1266.02,1380.43 1273.7,1377.05 1281.38,1373.66 1289.06,1370.29 
  1296.74,1366.95 1304.42,1363.62 1312.1,1360.32 1319.78,1357.04 1327.46,1353.78 1335.14,1350.55 1342.82,1347.33 1350.5,1344.13 1358.18,1340.95 1365.86,1337.78 
  1373.54,1334.62 1381.22,1331.49 1388.9,1328.36 1396.58,1325.25 1404.26,1322.15 1411.94,1319.05 1419.62,1315.96 1427.3,1312.88 1434.98,1309.8 1442.66,1306.74 
  1450.34,1303.69 1458.02,1300.64 1465.7,1297.6 1473.38,1294.57 1481.06,1291.55 1488.74,1288.53 1496.42,1285.52 1504.1,1282.52 1511.78,1279.52 1519.46,1276.53 
  1527.14,1273.54 1534.82,1270.56 1542.5,1267.58 1550.18,1264.61 1557.86,1261.64 1565.55,1258.69 1573.23,1255.73 1580.91,1252.78 1588.59,1249.85 1596.27,1246.91 
  1603.95,1243.98 1611.63,1241.05 1619.31,1238.13 1626.99,1235.22 1634.67,1232.3 1642.35,1229.4 1650.03,1226.49 1657.71,1223.6 1665.39,1220.7 1673.07,1217.81 
  1680.75,1214.92 1688.43,1212.04 1696.11,1209.16 1703.79,1206.29 1711.47,1203.42 1719.15,1200.56 1726.83,1197.7 1734.51,1194.84 1742.19,1191.99 1749.87,1189.14 
  1757.55,1186.3 1765.23,1183.46 1772.91,1180.62 1780.59,1177.79 1788.27,1174.96 1795.95,1172.14 1803.63,1169.32 1811.31,1166.5 1818.99,1163.68 1826.67,1160.88 
  1834.35,1158.07 1842.03,1155.26 1849.71,1152.46 1857.39,1149.66 1865.07,1146.87 1872.75,1144.08 1880.43,1141.3 1888.11,1138.51 1895.79,1135.73 1903.47,1132.95 
  1911.15,1130.18 1918.83,1127.41 1926.51,1124.64 1934.19,1121.88 1941.87,1119.11 1949.55,1116.36 1957.23,1113.61 1964.91,1110.86 1972.59,1108.11 1980.27,1105.36 
  1987.95,1102.62 1995.63,1099.88 2003.31,1097.15 2010.99,1094.42 2018.67,1091.69 2026.35,1088.96 2034.03,1086.23 2041.71,1083.52 2049.39,1080.8 2057.07,1078.08 
  2064.75,1075.37 2072.43,1072.66 2080.11,1069.95 2087.79,1067.25 2095.47,1064.55 2103.15,1061.85 2110.83,1059.15 2118.51,1056.45 2126.19,1053.76 2133.87,1051.07 
  2141.55,1048.39 2149.23,1045.71 2156.91,1043.03 2164.59,1040.35 2172.27,1037.67 2179.95,1035 2187.63,1032.33 2195.31,1029.67 2202.99,1027 2210.67,1024.34 
  2218.35,1021.68 2226.03,1019.02 2233.71,1016.37 2241.39,1013.72 2249.07,1011.07 2256.75,1008.43 2264.43,1005.78 2272.11,1003.14 2279.79,1000.5 2287.48,997.863 
  2295.16,995.229 
  "/>
<polyline clip-path="url(#clip333)" style="stroke:#e26f46; stroke-linecap:butt; stroke-linejoin:round; stroke-width:4; stroke-opacity:1; fill:none" points="
  375.129,715.253 382.809,715.253 390.489,715.253 398.169,715.253 405.849,715.253 413.529,715.253 421.209,715.253 428.889,715.253 436.569,715.253 444.25,715.253 
  451.93,715.253 459.61,715.253 467.29,715.253 474.97,715.253 482.65,715.253 490.33,715.253 498.01,715.253 505.69,715.253 513.37,715.253 521.051,715.253 
  528.731,715.253 536.411,715.253 544.091,715.253 551.771,715.253 559.451,715.253 567.131,715.253 574.811,715.253 582.491,715.253 590.172,715.253 597.852,715.253 
  605.532,715.253 613.212,715.253 620.892,715.253 628.572,715.253 636.252,715.253 643.932,715.253 651.612,715.253 659.293,715.253 666.973,714.8 674.653,711.195 
  682.333,707.616 690.013,704.061 697.693,700.53 705.373,697.023 713.053,693.539 720.733,690.08 728.413,686.643 736.094,683.229 743.774,679.838 751.454,676.469 
  759.134,673.123 766.814,669.799 774.494,666.497 782.174,663.216 789.854,659.957 797.534,656.719 805.215,653.502 812.895,650.305 820.575,647.13 828.255,643.974 
  835.935,640.839 843.615,637.724 851.295,634.629 858.975,631.553 866.655,628.497 874.335,625.46 882.016,622.442 889.696,619.444 897.376,616.463 905.056,613.502 
  912.736,610.559 920.416,607.633 928.096,604.726 935.776,601.837 943.456,598.966 951.137,596.112 958.817,593.275 966.497,590.456 974.177,587.64 981.857,584.835 
  989.537,582.034 997.217,579.24 1004.9,576.457 1012.58,573.675 1020.26,570.904 1027.94,568.139 1035.62,565.378 1043.3,562.625 1050.98,559.867 1058.66,557.093 
  1066.34,554.232 1074.02,551.343 1081.7,548.471 1089.38,545.617 1097.06,542.78 1104.74,539.961 1112.42,537.159 1120.1,534.373 1127.78,531.604 1135.46,528.852 
  1143.14,526.117 1150.82,523.397 1158.5,520.694 1166.18,518.007 1173.86,515.325 1181.54,512.651 1189.22,509.98 1196.9,507.314 1204.58,504.657 1212.26,502.002 
  1219.94,499.354 1227.62,496.716 1235.3,494.077 1242.98,491.445 1250.66,488.821 1258.34,486.199 1266.02,483.579 1273.7,480.965 1281.38,478.359 1289.06,475.755 
  1296.74,473.155 1304.42,470.543 1312.1,467.923 1319.78,465.318 1327.46,462.724 1335.14,460.135 1342.82,457.55 1350.5,454.975 1358.18,452.401 1365.86,449.834 
  1373.54,447.275 1381.22,444.716 1388.9,442.156 1396.58,439.598 1404.26,437.047 1411.94,434.502 1419.62,431.959 1427.3,429.422 1434.98,426.89 1442.66,424.362 
  1450.34,421.838 1458.02,419.315 1465.7,416.799 1473.38,414.287 1481.06,411.778 1488.74,409.268 1496.42,406.764 1504.1,404.261 1511.78,401.763 1519.46,399.266 
  1527.14,396.775 1534.82,394.288 1542.5,391.804 1550.18,389.322 1557.86,386.844 1565.55,384.37 1573.23,381.899 1580.91,379.432 1588.59,376.965 1596.27,374.502 
  1603.95,372.043 1611.63,369.588 1619.31,367.135 1626.99,364.683 1634.67,362.233 1642.35,359.785 1650.03,357.342 1657.71,354.902 1665.39,352.465 1673.07,350.029 
  1680.75,347.596 1688.43,345.167 1696.11,342.741 1703.79,340.318 1711.47,337.895 1719.15,335.476 1726.83,333.06 1734.51,330.647 1742.19,328.236 1749.87,325.828 
  1757.55,323.421 1765.23,321.016 1772.91,318.616 1780.59,316.218 1788.27,313.821 1795.95,311.427 1803.63,309.034 1811.31,306.642 1818.99,304.255 1826.67,301.87 
  1834.35,299.488 1842.03,297.108 1849.71,294.729 1857.39,292.352 1865.07,289.977 1872.75,287.606 1880.43,285.238 1888.11,282.871 1895.79,280.507 1903.47,278.143 
  1911.15,275.782 1918.83,273.424 1926.51,271.068 1934.19,268.715 1941.87,266.363 1949.55,264.013 1957.23,261.664 1964.91,259.319 1972.59,256.976 1980.27,254.634 
  1987.95,252.295 1995.63,249.957 2003.31,247.621 2010.99,245.286 2018.67,242.954 2026.35,240.624 2034.03,238.297 2041.71,235.971 2049.39,233.647 2057.07,231.325 
  2064.75,229.004 2072.43,226.686 2080.11,224.369 2087.79,222.055 2095.47,219.743 2103.15,217.433 2110.83,215.125 2118.51,212.818 2126.19,210.512 2133.87,208.209 
  2141.55,205.908 2149.23,203.609 2156.91,201.312 2164.59,199.017 2172.27,196.723 2179.95,194.43 2187.63,192.14 2195.31,189.852 2202.99,187.565 2210.67,185.28 
  2218.35,182.996 2226.03,180.715 2233.71,178.435 2241.39,176.156 2249.07,173.879 2256.75,171.605 2264.43,169.331 2272.11,167.06 2279.79,164.79 2287.48,162.522 
  2295.16,160.256 
  "/>
<path clip-path="url(#clip330)" d="
M385.369 451.916 L711.782 451.916 L711.782 166.796 L385.369 166.796  Z
  " fill="#ffffff" fill-rule="evenodd" fill-opacity="1"/>
<polyline clip-path="url(#clip330)" style="stroke:#000000; stroke-linecap:butt; stroke-linejoin:round; stroke-width:4; stroke-opacity:1; fill:none" points="
  385.369,451.916 711.782,451.916 711.782,166.796 385.369,166.796 385.369,451.916 
  "/>
<path clip-path="url(#clip330)" d="M558.854 228.688 Q558.854 229.139 558.564 230.201 L552.252 255.386 Q550.867 260.99 546.358 264.919 Q541.881 268.848 536.793 268.848 Q533.733 268.848 531.769 267.206 Q529.804 265.596 529.804 263.116 Q529.804 260.926 530.964 259.863 Q532.123 258.832 533.508 258.832 Q533.959 258.832 534.442 258.961 Q534.925 259.09 535.44 259.637 Q535.956 260.185 535.956 261.119 Q535.956 262.633 534.635 263.824 Q533.991 264.372 533.379 264.501 Q532.799 264.629 531.801 264.629 Q532.187 265.531 532.896 266.143 Q533.605 266.755 534.41 266.98 Q535.215 267.238 535.73 267.302 Q536.278 267.399 536.793 267.399 Q540.915 267.399 544.071 263.245 Q545.005 261.989 545.682 260.732 Q546.39 259.509 546.906 257.995 Q547.421 256.514 547.646 255.708 Q547.904 254.903 548.355 253.067 Q545.36 256.063 541.688 256.063 Q540.142 256.063 538.757 255.644 Q537.405 255.225 536.213 254.356 Q535.022 253.454 534.313 251.876 Q533.637 250.298 533.637 248.204 Q533.637 245.982 534.506 242.955 Q535.376 239.928 537.469 234.356 Q538.596 231.232 538.596 229.718 Q538.596 228.978 538.435 228.527 Q538.274 228.044 537.952 227.883 Q537.63 227.689 537.437 227.657 Q537.276 227.625 536.954 227.625 Q535.054 227.625 533.282 229.557 Q531.511 231.49 530.287 235.805 Q530.03 236.61 529.869 236.804 Q529.708 236.997 529.225 236.997 Q528.419 236.965 528.419 236.32 Q528.419 236.063 528.709 235.064 Q528.999 234.034 529.675 232.52 Q530.384 230.974 531.35 229.589 Q532.316 228.172 533.83 227.174 Q535.376 226.176 537.147 226.176 Q539.563 226.176 541.044 227.754 Q542.558 229.3 542.558 231.586 Q542.558 232.52 542.3 233.358 Q542.075 234.163 541.237 236.32 Q537.856 245.016 537.856 249.267 Q537.856 250.298 538.017 251.167 Q538.21 252.005 538.629 252.842 Q539.047 253.647 539.885 254.13 Q540.754 254.581 541.946 254.581 Q543.46 254.581 544.877 253.873 Q546.326 253.132 547.228 252.134 Q548.162 251.135 548.709 250.298 Q549.289 249.428 549.418 248.977 L552.381 237.126 L553.701 231.844 Q554.313 228.978 554.603 228.269 Q554.989 227.593 555.666 227.238 Q556.342 226.884 556.922 226.884 Q557.727 226.884 558.274 227.367 Q558.854 227.85 558.854 228.688 Z" fill="#000000" fill-rule="evenodd" fill-opacity="1" /><polyline clip-path="url(#clip330)" style="stroke:#009af9; stroke-linecap:butt; stroke-linejoin:round; stroke-width:4; stroke-opacity:1; fill:none" points="
  407.982,309.356 543.664,309.356 
  "/>
<path clip-path="url(#clip330)" d="M566.278 292.076 L570.954 292.076 L570.954 322.701 L587.782 322.701 L587.782 326.636 L566.278 326.636 L566.278 292.076 Z" fill="#000000" fill-rule="evenodd" fill-opacity="1" /><path clip-path="url(#clip330)" d="M601.718 303.696 Q598.292 303.696 596.301 306.381 Q594.31 309.043 594.31 313.696 Q594.31 318.349 596.278 321.034 Q598.268 323.696 601.718 323.696 Q605.12 323.696 607.111 321.011 Q609.102 318.326 609.102 313.696 Q609.102 309.09 607.111 306.404 Q605.12 303.696 601.718 303.696 M601.718 300.085 Q607.273 300.085 610.444 303.696 Q613.616 307.307 613.616 313.696 Q613.616 320.062 610.444 323.696 Q607.273 327.307 601.718 327.307 Q596.139 327.307 592.968 323.696 Q589.819 320.062 589.819 313.696 Q589.819 307.307 592.968 303.696 Q596.139 300.085 601.718 300.085 Z" fill="#000000" fill-rule="evenodd" fill-opacity="1" /><path clip-path="url(#clip330)" d="M618.199 300.71 L622.458 300.71 L627.782 320.941 L633.083 300.71 L638.106 300.71 L643.43 320.941 L648.731 300.71 L652.99 300.71 L646.208 326.636 L641.185 326.636 L635.606 305.386 L630.004 326.636 L624.981 326.636 L618.199 300.71 Z" fill="#000000" fill-rule="evenodd" fill-opacity="1" /><polyline clip-path="url(#clip330)" style="stroke:#e26f46; stroke-linecap:butt; stroke-linejoin:round; stroke-width:4; stroke-opacity:1; fill:none" points="
  407.982,380.636 543.664,380.636 
  "/>
<path clip-path="url(#clip330)" d="M566.278 363.356 L570.954 363.356 L570.954 377.522 L587.944 377.522 L587.944 363.356 L592.62 363.356 L592.62 397.916 L587.944 397.916 L587.944 381.457 L570.954 381.457 L570.954 397.916 L566.278 397.916 L566.278 363.356 Z" fill="#000000" fill-rule="evenodd" fill-opacity="1" /><path clip-path="url(#clip330)" d="M601.741 371.99 L606 371.99 L606 397.916 L601.741 397.916 L601.741 371.99 M601.741 361.897 L606 361.897 L606 367.291 L601.741 367.291 L601.741 361.897 Z" fill="#000000" fill-rule="evenodd" fill-opacity="1" /><path clip-path="url(#clip330)" d="M631.972 384.652 Q631.972 380.022 630.051 377.476 Q628.153 374.93 624.703 374.93 Q621.278 374.93 619.356 377.476 Q617.458 380.022 617.458 384.652 Q617.458 389.258 619.356 391.805 Q621.278 394.351 624.703 394.351 Q628.153 394.351 630.051 391.805 Q631.972 389.258 631.972 384.652 M636.231 394.698 Q636.231 401.318 633.291 404.536 Q630.352 407.777 624.287 407.777 Q622.041 407.777 620.051 407.43 Q618.06 407.105 616.185 406.411 L616.185 402.268 Q618.06 403.286 619.889 403.772 Q621.717 404.258 623.616 404.258 Q627.805 404.258 629.889 402.059 Q631.972 399.883 631.972 395.462 L631.972 393.356 Q630.653 395.647 628.592 396.781 Q626.532 397.916 623.662 397.916 Q618.893 397.916 615.977 394.281 Q613.06 390.647 613.06 384.652 Q613.06 378.633 615.977 374.999 Q618.893 371.365 623.662 371.365 Q626.532 371.365 628.592 372.499 Q630.653 373.633 631.972 375.925 L631.972 371.99 L636.231 371.99 L636.231 394.698 Z" fill="#000000" fill-rule="evenodd" fill-opacity="1" /><path clip-path="url(#clip330)" d="M666.555 382.268 L666.555 397.916 L662.296 397.916 L662.296 382.407 Q662.296 378.726 660.861 376.897 Q659.426 375.069 656.555 375.069 Q653.106 375.069 651.115 377.268 Q649.125 379.467 649.125 383.263 L649.125 397.916 L644.842 397.916 L644.842 361.897 L649.125 361.897 L649.125 376.018 Q650.652 373.68 652.713 372.522 Q654.796 371.365 657.504 371.365 Q661.972 371.365 664.263 374.143 Q666.555 376.897 666.555 382.268 Z" fill="#000000" fill-rule="evenodd" fill-opacity="1" /></svg>
