<?xml version="1.0" encoding="utf-8"?>
<svg xmlns="http://www.w3.org/2000/svg" xmlns:xlink="http://www.w3.org/1999/xlink" width="800" height="600" viewBox="0 0 3200 2400">
<defs>
  <clipPath id="clip600">
    <rect x="0" y="0" width="3200" height="2400"/>
  </clipPath>
</defs>
<path clip-path="url(#clip600)" d="
M0 2400 L3200 2400 L3200 0 L0 0  Z
  " fill="#ffffff" fill-rule="evenodd" fill-opacity="1"/>
<defs>
  <clipPath id="clip601">
    <rect x="640" y="0" width="2241" height="2241"/>
  </clipPath>
</defs>
<path clip-path="url(#clip600)" d="
M155.478 674.128 L3152.76 674.128 L3152.76 47.2441 L155.478 47.2441  Z
  " fill="#ffffff" fill-rule="evenodd" fill-opacity="1"/>
<defs>
  <clipPath id="clip602">
    <rect x="155" y="47" width="2998" height="628"/>
  </clipPath>
</defs>
<polyline clip-path="url(#clip602)" style="stroke:#000000; stroke-linecap:butt; stroke-linejoin:round; stroke-width:2; stroke-opacity:0.1; fill:none" points="
  155.478,674.128 155.478,47.2441 
  "/>
<polyline clip-path="url(#clip602)" style="stroke:#000000; stroke-linecap:butt; stroke-linejoin:round; stroke-width:2; stroke-opacity:0.1; fill:none" points="
  1154.57,674.128 1154.57,47.2441 
  "/>
<polyline clip-path="url(#clip602)" style="stroke:#000000; stroke-linecap:butt; stroke-linejoin:round; stroke-width:2; stroke-opacity:0.1; fill:none" points="
  2153.66,674.128 2153.66,47.2441 
  "/>
<polyline clip-path="url(#clip602)" style="stroke:#000000; stroke-linecap:butt; stroke-linejoin:round; stroke-width:2; stroke-opacity:0.1; fill:none" points="
  3152.76,674.128 3152.76,47.2441 
  "/>
<polyline clip-path="url(#clip600)" style="stroke:#000000; stroke-linecap:butt; stroke-linejoin:round; stroke-width:4; stroke-opacity:1; fill:none" points="
  155.478,674.128 3152.76,674.128 
  "/>
<polyline clip-path="url(#clip600)" style="stroke:#000000; stroke-linecap:butt; stroke-linejoin:round; stroke-width:4; stroke-opacity:1; fill:none" points="
  155.478,674.128 155.478,655.23 
  "/>
<polyline clip-path="url(#clip600)" style="stroke:#000000; stroke-linecap:butt; stroke-linejoin:round; stroke-width:4; stroke-opacity:1; fill:none" points="
  1154.57,674.128 1154.57,655.23 
  "/>
<polyline clip-path="url(#clip600)" style="stroke:#000000; stroke-linecap:butt; stroke-linejoin:round; stroke-width:4; stroke-opacity:1; fill:none" points="
  2153.66,674.128 2153.66,655.23 
  "/>
<polyline clip-path="url(#clip600)" style="stroke:#000000; stroke-linecap:butt; stroke-linejoin:round; stroke-width:4; stroke-opacity:1; fill:none" points="
  3152.76,674.128 3152.76,655.23 
  "/>
<path clip-path="url(#clip600)" d="M155.478 711.447 Q151.867 711.447 150.038 715.011 Q148.233 718.553 148.233 725.683 Q148.233 732.789 150.038 736.354 Q151.867 739.895 155.478 739.895 Q159.112 739.895 160.918 736.354 Q162.746 732.789 162.746 725.683 Q162.746 718.553 160.918 715.011 Q159.112 711.447 155.478 711.447 M155.478 707.743 Q161.288 707.743 164.344 712.349 Q167.422 716.933 167.422 725.683 Q167.422 734.409 164.344 739.016 Q161.288 743.599 155.478 743.599 Q149.668 743.599 146.589 739.016 Q143.534 734.409 143.534 725.683 Q143.534 716.933 146.589 712.349 Q149.668 707.743 155.478 707.743 Z" fill="#000000" fill-rule="evenodd" fill-opacity="1" /><path clip-path="url(#clip600)" d="M1144.85 708.368 L1163.2 708.368 L1163.2 712.303 L1149.13 712.303 L1149.13 720.775 Q1150.15 720.428 1151.17 720.266 Q1152.19 720.081 1153.2 720.081 Q1158.99 720.081 1162.37 723.252 Q1165.75 726.423 1165.75 731.84 Q1165.75 737.419 1162.28 740.52 Q1158.81 743.599 1152.49 743.599 Q1150.31 743.599 1148.04 743.229 Q1145.8 742.858 1143.39 742.118 L1143.39 737.419 Q1145.47 738.553 1147.7 739.108 Q1149.92 739.664 1152.39 739.664 Q1156.4 739.664 1158.74 737.558 Q1161.08 735.451 1161.08 731.84 Q1161.08 728.229 1158.74 726.122 Q1156.4 724.016 1152.39 724.016 Q1150.52 724.016 1148.64 724.433 Q1146.79 724.849 1144.85 725.729 L1144.85 708.368 Z" fill="#000000" fill-rule="evenodd" fill-opacity="1" /><path clip-path="url(#clip600)" d="M2128.35 738.993 L2135.99 738.993 L2135.99 712.627 L2127.68 714.294 L2127.68 710.035 L2135.94 708.368 L2140.62 708.368 L2140.62 738.993 L2148.26 738.993 L2148.26 742.928 L2128.35 742.928 L2128.35 738.993 Z" fill="#000000" fill-rule="evenodd" fill-opacity="1" /><path clip-path="url(#clip600)" d="M2167.7 711.447 Q2164.09 711.447 2162.26 715.011 Q2160.46 718.553 2160.46 725.683 Q2160.46 732.789 2162.26 736.354 Q2164.09 739.895 2167.7 739.895 Q2171.34 739.895 2173.14 736.354 Q2174.97 732.789 2174.97 725.683 Q2174.97 718.553 2173.14 715.011 Q2171.34 711.447 2167.7 711.447 M2167.7 707.743 Q2173.51 707.743 2176.57 712.349 Q2179.65 716.933 2179.65 725.683 Q2179.65 734.409 2176.57 739.016 Q2173.51 743.599 2167.7 743.599 Q2161.89 743.599 2158.81 739.016 Q2155.76 734.409 2155.76 725.683 Q2155.76 716.933 2158.81 712.349 Q2161.89 707.743 2167.7 707.743 Z" fill="#000000" fill-rule="evenodd" fill-opacity="1" /><path clip-path="url(#clip600)" d="M3127.94 738.993 L3135.58 738.993 L3135.58 712.627 L3127.27 714.294 L3127.27 710.035 L3135.53 708.368 L3140.21 708.368 L3140.21 738.993 L3147.85 738.993 L3147.85 742.928 L3127.94 742.928 L3127.94 738.993 Z" fill="#000000" fill-rule="evenodd" fill-opacity="1" /><path clip-path="url(#clip600)" d="M3157.34 708.368 L3175.7 708.368 L3175.7 712.303 L3161.62 712.303 L3161.62 720.775 Q3162.64 720.428 3163.66 720.266 Q3164.68 720.081 3165.7 720.081 Q3171.48 720.081 3174.86 723.252 Q3178.24 726.423 3178.24 731.84 Q3178.24 737.419 3174.77 740.52 Q3171.3 743.599 3164.98 743.599 Q3162.8 743.599 3160.53 743.229 Q3158.29 742.858 3155.88 742.118 L3155.88 737.419 Q3157.96 738.553 3160.19 739.108 Q3162.41 739.664 3164.89 739.664 Q3168.89 739.664 3171.23 737.558 Q3173.57 735.451 3173.57 731.84 Q3173.57 728.229 3171.23 726.122 Q3168.89 724.016 3164.89 724.016 Q3163.01 724.016 3161.14 724.433 Q3159.28 724.849 3157.34 725.729 L3157.34 708.368 Z" fill="#000000" fill-rule="evenodd" fill-opacity="1" /><polyline clip-path="url(#clip602)" style="stroke:#000000; stroke-linecap:butt; stroke-linejoin:round; stroke-width:2; stroke-opacity:0.1; fill:none" points="
  155.478,630.101 3152.76,630.101 
  "/>
<polyline clip-path="url(#clip602)" style="stroke:#000000; stroke-linecap:butt; stroke-linejoin:round; stroke-width:2; stroke-opacity:0.1; fill:none" points="
  155.478,393.542 3152.76,393.542 
  "/>
<polyline clip-path="url(#clip602)" style="stroke:#000000; stroke-linecap:butt; stroke-linejoin:round; stroke-width:2; stroke-opacity:0.1; fill:none" points="
  155.478,156.982 3152.76,156.982 
  "/>
<polyline clip-path="url(#clip600)" style="stroke:#000000; stroke-linecap:butt; stroke-linejoin:round; stroke-width:4; stroke-opacity:1; fill:none" points="
  155.478,674.128 155.478,47.2441 
  "/>
<polyline clip-path="url(#clip600)" style="stroke:#000000; stroke-linecap:butt; stroke-linejoin:round; stroke-width:4; stroke-opacity:1; fill:none" points="
  155.478,630.101 174.376,630.101 
  "/>
<polyline clip-path="url(#clip600)" style="stroke:#000000; stroke-linecap:butt; stroke-linejoin:round; stroke-width:4; stroke-opacity:1; fill:none" points="
  155.478,393.542 174.376,393.542 
  "/>
<polyline clip-path="url(#clip600)" style="stroke:#000000; stroke-linecap:butt; stroke-linejoin:round; stroke-width:4; stroke-opacity:1; fill:none" points="
  155.478,156.982 174.376,156.982 
  "/>
<path clip-path="url(#clip600)" d="M47.3625 630.553 L77.0383 630.553 L77.0383 634.488 L47.3625 634.488 L47.3625 630.553 Z" fill="#000000" fill-rule="evenodd" fill-opacity="1" /><path clip-path="url(#clip600)" d="M91.1586 643.446 L107.478 643.446 L107.478 647.381 L85.5336 647.381 L85.5336 643.446 Q88.1956 640.692 92.7789 636.062 Q97.3854 631.409 98.5659 630.067 Q100.811 627.544 101.691 625.807 Q102.594 624.048 102.594 622.358 Q102.594 619.604 100.649 617.868 Q98.728 616.132 95.6261 616.132 Q93.4271 616.132 90.9734 616.895 Q88.5428 617.659 85.7651 619.21 L85.7651 614.488 Q88.5891 613.354 91.0428 612.775 Q93.4965 612.196 95.5335 612.196 Q100.904 612.196 104.098 614.882 Q107.293 617.567 107.293 622.058 Q107.293 624.187 106.483 626.108 Q105.696 628.007 103.589 630.599 Q103.01 631.27 99.9085 634.488 Q96.8067 637.682 91.1586 643.446 Z" fill="#000000" fill-rule="evenodd" fill-opacity="1" /><path clip-path="url(#clip600)" d="M95.5335 379.34 Q91.9224 379.34 90.0937 382.905 Q88.2882 386.447 88.2882 393.576 Q88.2882 400.683 90.0937 404.247 Q91.9224 407.789 95.5335 407.789 Q99.1678 407.789 100.973 404.247 Q102.802 400.683 102.802 393.576 Q102.802 386.447 100.973 382.905 Q99.1678 379.34 95.5335 379.34 M95.5335 375.637 Q101.344 375.637 104.399 380.243 Q107.478 384.826 107.478 393.576 Q107.478 402.303 104.399 406.91 Q101.344 411.493 95.5335 411.493 Q89.7234 411.493 86.6447 406.91 Q83.5892 402.303 83.5892 393.576 Q83.5892 384.826 86.6447 380.243 Q89.7234 375.637 95.5335 375.637 Z" fill="#000000" fill-rule="evenodd" fill-opacity="1" /><path clip-path="url(#clip600)" d="M91.1586 170.326 L107.478 170.326 L107.478 174.262 L85.5336 174.262 L85.5336 170.326 Q88.1956 167.572 92.7789 162.942 Q97.3854 158.289 98.5659 156.947 Q100.811 154.424 101.691 152.688 Q102.594 150.928 102.594 149.239 Q102.594 146.484 100.649 144.748 Q98.728 143.012 95.6261 143.012 Q93.4271 143.012 90.9734 143.776 Q88.5428 144.54 85.7651 146.09 L85.7651 141.368 Q88.5891 140.234 91.0428 139.655 Q93.4965 139.077 95.5335 139.077 Q100.904 139.077 104.098 141.762 Q107.293 144.447 107.293 148.938 Q107.293 151.067 106.483 152.989 Q105.696 154.887 103.589 157.479 Q103.01 158.151 99.9085 161.368 Q96.8067 164.563 91.1586 170.326 Z" fill="#000000" fill-rule="evenodd" fill-opacity="1" /><polyline clip-path="url(#clip602)" style="stroke:#0000ff; stroke-linecap:butt; stroke-linejoin:round; stroke-width:8; stroke-opacity:0.6; fill:none" points="
  155.478,64.9861 355.296,656.386 555.115,183.266 754.934,561.762 954.752,258.965 1154.57,501.203 1354.39,307.413 1554.21,462.445 1754.03,338.419 1953.84,437.639 
  2153.66,358.263 2353.48,421.764 2553.3,370.963 2753.12,411.604 2952.94,379.092 3152.76,405.102 3352.57,384.294 
  "/>
<circle clip-path="url(#clip602)" cx="155.478" cy="64.9861" r="10" fill="#0000ff" fill-rule="evenodd" fill-opacity="0.6" stroke="#000000" stroke-opacity="0.6" stroke-width="4.8"/>
<circle clip-path="url(#clip602)" cx="355.296" cy="656.386" r="10" fill="#0000ff" fill-rule="evenodd" fill-opacity="0.6" stroke="#000000" stroke-opacity="0.6" stroke-width="4.8"/>
<circle clip-path="url(#clip602)" cx="555.115" cy="183.266" r="10" fill="#0000ff" fill-rule="evenodd" fill-opacity="0.6" stroke="#000000" stroke-opacity="0.6" stroke-width="4.8"/>
<circle clip-path="url(#clip602)" cx="754.934" cy="561.762" r="10" fill="#0000ff" fill-rule="evenodd" fill-opacity="0.6" stroke="#000000" stroke-opacity="0.6" stroke-width="4.8"/>
<circle clip-path="url(#clip602)" cx="954.752" cy="258.965" r="10" fill="#0000ff" fill-rule="evenodd" fill-opacity="0.6" stroke="#000000" stroke-opacity="0.6" stroke-width="4.8"/>
<circle clip-path="url(#clip602)" cx="1154.57" cy="501.203" r="10" fill="#0000ff" fill-rule="evenodd" fill-opacity="0.6" stroke="#000000" stroke-opacity="0.6" stroke-width="4.8"/>
<circle clip-path="url(#clip602)" cx="1354.39" cy="307.413" r="10" fill="#0000ff" fill-rule="evenodd" fill-opacity="0.6" stroke="#000000" stroke-opacity="0.6" stroke-width="4.8"/>
<circle clip-path="url(#clip602)" cx="1554.21" cy="462.445" r="10" fill="#0000ff" fill-rule="evenodd" fill-opacity="0.6" stroke="#000000" stroke-opacity="0.6" stroke-width="4.8"/>
<circle clip-path="url(#clip602)" cx="1754.03" cy="338.419" r="10" fill="#0000ff" fill-rule="evenodd" fill-opacity="0.6" stroke="#000000" stroke-opacity="0.6" stroke-width="4.8"/>
<circle clip-path="url(#clip602)" cx="1953.84" cy="437.639" r="10" fill="#0000ff" fill-rule="evenodd" fill-opacity="0.6" stroke="#000000" stroke-opacity="0.6" stroke-width="4.8"/>
<circle clip-path="url(#clip602)" cx="2153.66" cy="358.263" r="10" fill="#0000ff" fill-rule="evenodd" fill-opacity="0.6" stroke="#000000" stroke-opacity="0.6" stroke-width="4.8"/>
<circle clip-path="url(#clip602)" cx="2353.48" cy="421.764" r="10" fill="#0000ff" fill-rule="evenodd" fill-opacity="0.6" stroke="#000000" stroke-opacity="0.6" stroke-width="4.8"/>
<circle clip-path="url(#clip602)" cx="2553.3" cy="370.963" r="10" fill="#0000ff" fill-rule="evenodd" fill-opacity="0.6" stroke="#000000" stroke-opacity="0.6" stroke-width="4.8"/>
<circle clip-path="url(#clip602)" cx="2753.12" cy="411.604" r="10" fill="#0000ff" fill-rule="evenodd" fill-opacity="0.6" stroke="#000000" stroke-opacity="0.6" stroke-width="4.8"/>
<circle clip-path="url(#clip602)" cx="2952.94" cy="379.092" r="10" fill="#0000ff" fill-rule="evenodd" fill-opacity="0.6" stroke="#000000" stroke-opacity="0.6" stroke-width="4.8"/>
<circle clip-path="url(#clip602)" cx="3152.76" cy="405.102" r="10" fill="#0000ff" fill-rule="evenodd" fill-opacity="0.6" stroke="#000000" stroke-opacity="0.6" stroke-width="4.8"/>
<polyline clip-path="url(#clip602)" style="stroke:#e26f46; stroke-linecap:butt; stroke-linejoin:round; stroke-width:8; stroke-opacity:0.5; fill:none" stroke-dasharray="32, 20" points="
  -2841.8,393.542 6150.03,393.542 
  "/>
<path clip-path="url(#clip600)" d="
M2481.51 171.82 L3052.85 171.82 L3052.85 68.1402 L2481.51 68.1402  Z
  " fill="#ffffff" fill-rule="evenodd" fill-opacity="1"/>
<polyline clip-path="url(#clip600)" style="stroke:#000000; stroke-linecap:butt; stroke-linejoin:round; stroke-width:4; stroke-opacity:1; fill:none" points="
  2481.51,171.82 3052.85,171.82 3052.85,68.1402 2481.51,68.1402 2481.51,171.82 
  "/>
<polyline clip-path="url(#clip600)" style="stroke:#0000ff; stroke-linecap:butt; stroke-linejoin:round; stroke-width:4; stroke-opacity:0.6; fill:none" points="
  2514.81,119.98 2714.63,119.98 
  "/>
<circle clip-path="url(#clip600)" cx="2614.72" cy="119.98" r="23" fill="#0000ff" fill-rule="evenodd" fill-opacity="0.6" stroke="#000000" stroke-opacity="0.6" stroke-width="10.24"/>
<path clip-path="url(#clip600)" d="M2766.84 123.996 Q2766.84 119.367 2764.92 116.821 Q2763.02 114.274 2759.58 114.274 Q2756.15 114.274 2754.23 116.821 Q2752.33 119.367 2752.33 123.996 Q2752.33 128.603 2754.23 131.149 Q2756.15 133.695 2759.58 133.695 Q2763.02 133.695 2764.92 131.149 Q2766.84 128.603 2766.84 123.996 M2771.1 134.043 Q2771.1 140.663 2768.16 143.881 Q2765.22 147.121 2759.16 147.121 Q2756.91 147.121 2754.92 146.774 Q2752.93 146.45 2751.06 145.756 L2751.06 141.612 Q2752.93 142.631 2754.76 143.117 Q2756.59 143.603 2758.49 143.603 Q2762.68 143.603 2764.76 141.404 Q2766.84 139.228 2766.84 134.807 L2766.84 132.7 Q2765.52 134.992 2763.46 136.126 Q2761.4 137.26 2758.53 137.26 Q2753.76 137.26 2750.85 133.626 Q2747.93 129.992 2747.93 123.996 Q2747.93 117.978 2750.85 114.344 Q2753.76 110.709 2758.53 110.709 Q2761.4 110.709 2763.46 111.844 Q2765.52 112.978 2766.84 115.27 L2766.84 111.334 L2771.1 111.334 L2771.1 134.043 Z" fill="#000000" fill-rule="evenodd" fill-opacity="1" /><path clip-path="url(#clip600)" d="M2791.66 124.228 Q2786.5 124.228 2784.51 125.408 Q2782.51 126.589 2782.51 129.436 Q2782.51 131.705 2784 133.047 Q2785.5 134.367 2788.07 134.367 Q2791.61 134.367 2793.74 131.867 Q2795.89 129.344 2795.89 125.177 L2795.89 124.228 L2791.66 124.228 M2800.15 122.469 L2800.15 137.26 L2795.89 137.26 L2795.89 133.325 Q2794.44 135.686 2792.26 136.82 Q2790.08 137.932 2786.94 137.932 Q2782.95 137.932 2780.59 135.709 Q2778.26 133.464 2778.26 129.714 Q2778.26 125.339 2781.17 123.117 Q2784.11 120.895 2789.92 120.895 L2795.89 120.895 L2795.89 120.478 Q2795.89 117.538 2793.95 115.941 Q2792.03 114.321 2788.53 114.321 Q2786.31 114.321 2784.2 114.853 Q2782.1 115.385 2780.15 116.45 L2780.15 112.515 Q2782.49 111.612 2784.69 111.172 Q2786.89 110.709 2788.97 110.709 Q2794.6 110.709 2797.38 113.626 Q2800.15 116.543 2800.15 122.469 Z" fill="#000000" fill-rule="evenodd" fill-opacity="1" /><path clip-path="url(#clip600)" d="M2829.11 116.311 Q2830.71 113.441 2832.93 112.075 Q2835.15 110.709 2838.16 110.709 Q2842.21 110.709 2844.41 113.557 Q2846.61 116.381 2846.61 121.612 L2846.61 137.26 L2842.33 137.26 L2842.33 121.751 Q2842.33 118.024 2841.01 116.219 Q2839.69 114.413 2836.98 114.413 Q2833.67 114.413 2831.75 116.612 Q2829.83 118.811 2829.83 122.608 L2829.83 137.26 L2825.55 137.26 L2825.55 121.751 Q2825.55 118.001 2824.23 116.219 Q2822.91 114.413 2820.15 114.413 Q2816.89 114.413 2814.97 116.635 Q2813.05 118.834 2813.05 122.608 L2813.05 137.26 L2808.76 137.26 L2808.76 111.334 L2813.05 111.334 L2813.05 115.362 Q2814.51 112.978 2816.54 111.844 Q2818.58 110.709 2821.38 110.709 Q2824.2 110.709 2826.17 112.145 Q2828.16 113.58 2829.11 116.311 Z" fill="#000000" fill-rule="evenodd" fill-opacity="1" /><path clip-path="url(#clip600)" d="M2875.29 116.311 Q2876.89 113.441 2879.11 112.075 Q2881.33 110.709 2884.34 110.709 Q2888.39 110.709 2890.59 113.557 Q2892.79 116.381 2892.79 121.612 L2892.79 137.26 L2888.51 137.26 L2888.51 121.751 Q2888.51 118.024 2887.19 116.219 Q2885.87 114.413 2883.16 114.413 Q2879.85 114.413 2877.93 116.612 Q2876.01 118.811 2876.01 122.608 L2876.01 137.26 L2871.73 137.26 L2871.73 121.751 Q2871.73 118.001 2870.41 116.219 Q2869.09 114.413 2866.33 114.413 Q2863.07 114.413 2861.15 116.635 Q2859.23 118.834 2859.23 122.608 L2859.23 137.26 L2854.94 137.26 L2854.94 111.334 L2859.23 111.334 L2859.23 115.362 Q2860.69 112.978 2862.72 111.844 Q2864.76 110.709 2867.56 110.709 Q2870.38 110.709 2872.35 112.145 Q2874.34 113.58 2875.29 116.311 Z" fill="#000000" fill-rule="evenodd" fill-opacity="1" /><path clip-path="url(#clip600)" d="M2913.07 124.228 Q2907.91 124.228 2905.92 125.408 Q2903.93 126.589 2903.93 129.436 Q2903.93 131.705 2905.41 133.047 Q2906.91 134.367 2909.48 134.367 Q2913.02 134.367 2915.15 131.867 Q2917.31 129.344 2917.31 125.177 L2917.31 124.228 L2913.07 124.228 M2921.56 122.469 L2921.56 137.26 L2917.31 137.26 L2917.31 133.325 Q2915.85 135.686 2913.67 136.82 Q2911.5 137.932 2908.35 137.932 Q2904.37 137.932 2902 135.709 Q2899.67 133.464 2899.67 129.714 Q2899.67 125.339 2902.58 123.117 Q2905.52 120.895 2911.33 120.895 L2917.31 120.895 L2917.31 120.478 Q2917.31 117.538 2915.36 115.941 Q2913.44 114.321 2909.94 114.321 Q2907.72 114.321 2905.62 114.853 Q2903.51 115.385 2901.56 116.45 L2901.56 112.515 Q2903.9 111.612 2906.1 111.172 Q2908.3 110.709 2910.38 110.709 Q2916.01 110.709 2918.79 113.626 Q2921.56 116.543 2921.56 122.469 Z" fill="#000000" fill-rule="evenodd" fill-opacity="1" /><path clip-path="url(#clip600)" d="M2940.57 101.288 Q2937.47 106.612 2935.96 111.821 Q2934.46 117.029 2934.46 122.376 Q2934.46 127.723 2935.96 132.978 Q2937.49 138.209 2940.57 143.51 L2936.87 143.51 Q2933.39 138.07 2931.66 132.816 Q2929.94 127.561 2929.94 122.376 Q2929.94 117.214 2931.66 111.983 Q2933.37 106.751 2936.87 101.288 L2940.57 101.288 Z" fill="#000000" fill-rule="evenodd" fill-opacity="1" /><path clip-path="url(#clip600)" d="M2948.67 101.242 L2952.95 101.242 L2952.95 122.515 L2965.66 111.334 L2971.1 111.334 L2957.35 123.464 L2971.68 137.26 L2966.12 137.26 L2952.95 124.598 L2952.95 137.26 L2948.67 137.26 L2948.67 101.242 Z" fill="#000000" fill-rule="evenodd" fill-opacity="1" /><path clip-path="url(#clip600)" d="M2975.62 101.288 L2979.32 101.288 Q2982.79 106.751 2984.5 111.983 Q2986.24 117.214 2986.24 122.376 Q2986.24 127.561 2984.5 132.816 Q2982.79 138.07 2979.32 143.51 L2975.62 143.51 Q2978.69 138.209 2980.2 132.978 Q2981.73 127.723 2981.73 122.376 Q2981.73 117.029 2980.2 111.821 Q2978.69 106.612 2975.62 101.288 Z" fill="#000000" fill-rule="evenodd" fill-opacity="1" /><path clip-path="url(#clip600)" d="
M155.478 1474.13 L3152.76 1474.13 L3152.76 847.244 L155.478 847.244  Z
  " fill="#ffffff" fill-rule="evenodd" fill-opacity="1"/>
<defs>
  <clipPath id="clip603">
    <rect x="155" y="847" width="2998" height="628"/>
  </clipPath>
</defs>
<polyline clip-path="url(#clip603)" style="stroke:#000000; stroke-linecap:butt; stroke-linejoin:round; stroke-width:2; stroke-opacity:0.1; fill:none" points="
  155.478,1474.13 155.478,847.244 
  "/>
<polyline clip-path="url(#clip603)" style="stroke:#000000; stroke-linecap:butt; stroke-linejoin:round; stroke-width:2; stroke-opacity:0.1; fill:none" points="
  1154.57,1474.13 1154.57,847.244 
  "/>
<polyline clip-path="url(#clip603)" style="stroke:#000000; stroke-linecap:butt; stroke-linejoin:round; stroke-width:2; stroke-opacity:0.1; fill:none" points="
  2153.66,1474.13 2153.66,847.244 
  "/>
<polyline clip-path="url(#clip603)" style="stroke:#000000; stroke-linecap:butt; stroke-linejoin:round; stroke-width:2; stroke-opacity:0.1; fill:none" points="
  3152.76,1474.13 3152.76,847.244 
  "/>
<polyline clip-path="url(#clip600)" style="stroke:#000000; stroke-linecap:butt; stroke-linejoin:round; stroke-width:4; stroke-opacity:1; fill:none" points="
  155.478,1474.13 3152.76,1474.13 
  "/>
<polyline clip-path="url(#clip600)" style="stroke:#000000; stroke-linecap:butt; stroke-linejoin:round; stroke-width:4; stroke-opacity:1; fill:none" points="
  155.478,1474.13 155.478,1455.23 
  "/>
<polyline clip-path="url(#clip600)" style="stroke:#000000; stroke-linecap:butt; stroke-linejoin:round; stroke-width:4; stroke-opacity:1; fill:none" points="
  1154.57,1474.13 1154.57,1455.23 
  "/>
<polyline clip-path="url(#clip600)" style="stroke:#000000; stroke-linecap:butt; stroke-linejoin:round; stroke-width:4; stroke-opacity:1; fill:none" points="
  2153.66,1474.13 2153.66,1455.23 
  "/>
<polyline clip-path="url(#clip600)" style="stroke:#000000; stroke-linecap:butt; stroke-linejoin:round; stroke-width:4; stroke-opacity:1; fill:none" points="
  3152.76,1474.13 3152.76,1455.23 
  "/>
<path clip-path="url(#clip600)" d="M155.478 1511.45 Q151.867 1511.45 150.038 1515.01 Q148.233 1518.55 148.233 1525.68 Q148.233 1532.79 150.038 1536.35 Q151.867 1539.9 155.478 1539.9 Q159.112 1539.9 160.918 1536.35 Q162.746 1532.79 162.746 1525.68 Q162.746 1518.55 160.918 1515.01 Q159.112 1511.45 155.478 1511.45 M155.478 1507.74 Q161.288 1507.74 164.344 1512.35 Q167.422 1516.93 167.422 1525.68 Q167.422 1534.41 164.344 1539.02 Q161.288 1543.6 155.478 1543.6 Q149.668 1543.6 146.589 1539.02 Q143.534 1534.41 143.534 1525.68 Q143.534 1516.93 146.589 1512.35 Q149.668 1507.74 155.478 1507.74 Z" fill="#000000" fill-rule="evenodd" fill-opacity="1" /><path clip-path="url(#clip600)" d="M1144.85 1508.37 L1163.2 1508.37 L1163.2 1512.3 L1149.13 1512.3 L1149.13 1520.78 Q1150.15 1520.43 1151.17 1520.27 Q1152.19 1520.08 1153.2 1520.08 Q1158.99 1520.08 1162.37 1523.25 Q1165.75 1526.42 1165.75 1531.84 Q1165.75 1537.42 1162.28 1540.52 Q1158.81 1543.6 1152.49 1543.6 Q1150.31 1543.6 1148.04 1543.23 Q1145.8 1542.86 1143.39 1542.12 L1143.39 1537.42 Q1145.47 1538.55 1147.7 1539.11 Q1149.92 1539.66 1152.39 1539.66 Q1156.4 1539.66 1158.74 1537.56 Q1161.08 1535.45 1161.08 1531.84 Q1161.08 1528.23 1158.74 1526.12 Q1156.4 1524.02 1152.39 1524.02 Q1150.52 1524.02 1148.64 1524.43 Q1146.79 1524.85 1144.85 1525.73 L1144.85 1508.37 Z" fill="#000000" fill-rule="evenodd" fill-opacity="1" /><path clip-path="url(#clip600)" d="M2128.35 1538.99 L2135.99 1538.99 L2135.99 1512.63 L2127.68 1514.29 L2127.68 1510.03 L2135.94 1508.37 L2140.62 1508.37 L2140.62 1538.99 L2148.26 1538.99 L2148.26 1542.93 L2128.35 1542.93 L2128.35 1538.99 Z" fill="#000000" fill-rule="evenodd" fill-opacity="1" /><path clip-path="url(#clip600)" d="M2167.7 1511.45 Q2164.09 1511.45 2162.26 1515.01 Q2160.46 1518.55 2160.46 1525.68 Q2160.46 1532.79 2162.26 1536.35 Q2164.09 1539.9 2167.7 1539.9 Q2171.34 1539.9 2173.14 1536.35 Q2174.97 1532.79 2174.97 1525.68 Q2174.97 1518.55 2173.14 1515.01 Q2171.34 1511.45 2167.7 1511.45 M2167.7 1507.74 Q2173.51 1507.74 2176.57 1512.35 Q2179.65 1516.93 2179.65 1525.68 Q2179.65 1534.41 2176.57 1539.02 Q2173.51 1543.6 2167.7 1543.6 Q2161.89 1543.6 2158.81 1539.02 Q2155.76 1534.41 2155.76 1525.68 Q2155.76 1516.93 2158.81 1512.35 Q2161.89 1507.74 2167.7 1507.74 Z" fill="#000000" fill-rule="evenodd" fill-opacity="1" /><path clip-path="url(#clip600)" d="M3127.94 1538.99 L3135.58 1538.99 L3135.58 1512.63 L3127.27 1514.29 L3127.27 1510.03 L3135.53 1508.37 L3140.21 1508.37 L3140.21 1538.99 L3147.85 1538.99 L3147.85 1542.93 L3127.94 1542.93 L3127.94 1538.99 Z" fill="#000000" fill-rule="evenodd" fill-opacity="1" /><path clip-path="url(#clip600)" d="M3157.34 1508.37 L3175.7 1508.37 L3175.7 1512.3 L3161.62 1512.3 L3161.62 1520.78 Q3162.64 1520.43 3163.66 1520.27 Q3164.68 1520.08 3165.7 1520.08 Q3171.48 1520.08 3174.86 1523.25 Q3178.24 1526.42 3178.24 1531.84 Q3178.24 1537.42 3174.77 1540.52 Q3171.3 1543.6 3164.98 1543.6 Q3162.8 1543.6 3160.53 1543.23 Q3158.29 1542.86 3155.88 1542.12 L3155.88 1537.42 Q3157.96 1538.55 3160.19 1539.11 Q3162.41 1539.66 3164.89 1539.66 Q3168.89 1539.66 3171.23 1537.56 Q3173.57 1535.45 3173.57 1531.84 Q3173.57 1528.23 3171.23 1526.12 Q3168.89 1524.02 3164.89 1524.02 Q3163.01 1524.02 3161.14 1524.43 Q3159.28 1524.85 3157.34 1525.73 L3157.34 1508.37 Z" fill="#000000" fill-rule="evenodd" fill-opacity="1" /><polyline clip-path="url(#clip603)" style="stroke:#000000; stroke-linecap:butt; stroke-linejoin:round; stroke-width:2; stroke-opacity:0.1; fill:none" points="
  155.478,1456.39 3152.76,1456.39 
  "/>
<polyline clip-path="url(#clip603)" style="stroke:#000000; stroke-linecap:butt; stroke-linejoin:round; stroke-width:2; stroke-opacity:0.1; fill:none" points="
  155.478,1160.69 3152.76,1160.69 
  "/>
<polyline clip-path="url(#clip603)" style="stroke:#000000; stroke-linecap:butt; stroke-linejoin:round; stroke-width:2; stroke-opacity:0.1; fill:none" points="
  155.478,864.986 3152.76,864.986 
  "/>
<polyline clip-path="url(#clip600)" style="stroke:#000000; stroke-linecap:butt; stroke-linejoin:round; stroke-width:4; stroke-opacity:1; fill:none" points="
  155.478,1474.13 155.478,847.244 
  "/>
<polyline clip-path="url(#clip600)" style="stroke:#000000; stroke-linecap:butt; stroke-linejoin:round; stroke-width:4; stroke-opacity:1; fill:none" points="
  155.478,1456.39 174.376,1456.39 
  "/>
<polyline clip-path="url(#clip600)" style="stroke:#000000; stroke-linecap:butt; stroke-linejoin:round; stroke-width:4; stroke-opacity:1; fill:none" points="
  155.478,1160.69 174.376,1160.69 
  "/>
<polyline clip-path="url(#clip600)" style="stroke:#000000; stroke-linecap:butt; stroke-linejoin:round; stroke-width:4; stroke-opacity:1; fill:none" points="
  155.478,864.986 174.376,864.986 
  "/>
<path clip-path="url(#clip600)" d="M46.9921 1456.84 L76.6679 1456.84 L76.6679 1460.77 L46.9921 1460.77 L46.9921 1456.84 Z" fill="#000000" fill-rule="evenodd" fill-opacity="1" /><path clip-path="url(#clip600)" d="M87.5706 1469.73 L95.2095 1469.73 L95.2095 1443.37 L86.8993 1445.03 L86.8993 1440.77 L95.1632 1439.11 L99.8391 1439.11 L99.8391 1469.73 L107.478 1469.73 L107.478 1473.67 L87.5706 1473.67 L87.5706 1469.73 Z" fill="#000000" fill-rule="evenodd" fill-opacity="1" /><path clip-path="url(#clip600)" d="M95.5335 1146.48 Q91.9224 1146.48 90.0937 1150.05 Q88.2882 1153.59 88.2882 1160.72 Q88.2882 1167.83 90.0937 1171.39 Q91.9224 1174.93 95.5335 1174.93 Q99.1678 1174.93 100.973 1171.39 Q102.802 1167.83 102.802 1160.72 Q102.802 1153.59 100.973 1150.05 Q99.1678 1146.48 95.5335 1146.48 M95.5335 1142.78 Q101.344 1142.78 104.399 1147.39 Q107.478 1151.97 107.478 1160.72 Q107.478 1169.45 104.399 1174.05 Q101.344 1178.64 95.5335 1178.64 Q89.7234 1178.64 86.6447 1174.05 Q83.5892 1169.45 83.5892 1160.72 Q83.5892 1151.97 86.6447 1147.39 Q89.7234 1142.78 95.5335 1142.78 Z" fill="#000000" fill-rule="evenodd" fill-opacity="1" /><path clip-path="url(#clip600)" d="M87.5706 878.331 L95.2095 878.331 L95.2095 851.965 L86.8993 853.632 L86.8993 849.373 L95.1632 847.706 L99.8391 847.706 L99.8391 878.331 L107.478 878.331 L107.478 882.266 L87.5706 882.266 L87.5706 878.331 Z" fill="#000000" fill-rule="evenodd" fill-opacity="1" /><polyline clip-path="url(#clip603)" style="stroke:#0000ff; stroke-linecap:butt; stroke-linejoin:round; stroke-width:8; stroke-opacity:0.6; fill:none" points="
  155.478,864.986 355.296,1456.39 555.115,864.986 754.934,1456.39 954.752,864.986 1154.57,1456.39 1354.39,864.986 1554.21,1456.39 1754.03,864.986 1953.84,1456.39 
  2153.66,864.986 2353.48,1456.39 2553.3,864.986 2753.12,1456.39 2952.94,864.986 3152.76,1456.39 3352.57,864.986 
  "/>
<circle clip-path="url(#clip603)" cx="155.478" cy="864.986" r="10" fill="#0000ff" fill-rule="evenodd" fill-opacity="0.6" stroke="#000000" stroke-opacity="0.6" stroke-width="4.8"/>
<circle clip-path="url(#clip603)" cx="355.296" cy="1456.39" r="10" fill="#0000ff" fill-rule="evenodd" fill-opacity="0.6" stroke="#000000" stroke-opacity="0.6" stroke-width="4.8"/>
<circle clip-path="url(#clip603)" cx="555.115" cy="864.986" r="10" fill="#0000ff" fill-rule="evenodd" fill-opacity="0.6" stroke="#000000" stroke-opacity="0.6" stroke-width="4.8"/>
<circle clip-path="url(#clip603)" cx="754.934" cy="1456.39" r="10" fill="#0000ff" fill-rule="evenodd" fill-opacity="0.6" stroke="#000000" stroke-opacity="0.6" stroke-width="4.8"/>
<circle clip-path="url(#clip603)" cx="954.752" cy="864.986" r="10" fill="#0000ff" fill-rule="evenodd" fill-opacity="0.6" stroke="#000000" stroke-opacity="0.6" stroke-width="4.8"/>
<circle clip-path="url(#clip603)" cx="1154.57" cy="1456.39" r="10" fill="#0000ff" fill-rule="evenodd" fill-opacity="0.6" stroke="#000000" stroke-opacity="0.6" stroke-width="4.8"/>
<circle clip-path="url(#clip603)" cx="1354.39" cy="864.986" r="10" fill="#0000ff" fill-rule="evenodd" fill-opacity="0.6" stroke="#000000" stroke-opacity="0.6" stroke-width="4.8"/>
<circle clip-path="url(#clip603)" cx="1554.21" cy="1456.39" r="10" fill="#0000ff" fill-rule="evenodd" fill-opacity="0.6" stroke="#000000" stroke-opacity="0.6" stroke-width="4.8"/>
<circle clip-path="url(#clip603)" cx="1754.03" cy="864.986" r="10" fill="#0000ff" fill-rule="evenodd" fill-opacity="0.6" stroke="#000000" stroke-opacity="0.6" stroke-width="4.8"/>
<circle clip-path="url(#clip603)" cx="1953.84" cy="1456.39" r="10" fill="#0000ff" fill-rule="evenodd" fill-opacity="0.6" stroke="#000000" stroke-opacity="0.6" stroke-width="4.8"/>
<circle clip-path="url(#clip603)" cx="2153.66" cy="864.986" r="10" fill="#0000ff" fill-rule="evenodd" fill-opacity="0.6" stroke="#000000" stroke-opacity="0.6" stroke-width="4.8"/>
<circle clip-path="url(#clip603)" cx="2353.48" cy="1456.39" r="10" fill="#0000ff" fill-rule="evenodd" fill-opacity="0.6" stroke="#000000" stroke-opacity="0.6" stroke-width="4.8"/>
<circle clip-path="url(#clip603)" cx="2553.3" cy="864.986" r="10" fill="#0000ff" fill-rule="evenodd" fill-opacity="0.6" stroke="#000000" stroke-opacity="0.6" stroke-width="4.8"/>
<circle clip-path="url(#clip603)" cx="2753.12" cy="1456.39" r="10" fill="#0000ff" fill-rule="evenodd" fill-opacity="0.6" stroke="#000000" stroke-opacity="0.6" stroke-width="4.8"/>
<circle clip-path="url(#clip603)" cx="2952.94" cy="864.986" r="10" fill="#0000ff" fill-rule="evenodd" fill-opacity="0.6" stroke="#000000" stroke-opacity="0.6" stroke-width="4.8"/>
<circle clip-path="url(#clip603)" cx="3152.76" cy="1456.39" r="10" fill="#0000ff" fill-rule="evenodd" fill-opacity="0.6" stroke="#000000" stroke-opacity="0.6" stroke-width="4.8"/>
<polyline clip-path="url(#clip603)" style="stroke:#e26f46; stroke-linecap:butt; stroke-linejoin:round; stroke-width:8; stroke-opacity:0.5; fill:none" stroke-dasharray="32, 20" points="
  -2841.8,1160.69 6150.03,1160.69 
  "/>
<path clip-path="url(#clip600)" d="
M2523.96 971.82 L3052.85 971.82 L3052.85 868.14 L2523.96 868.14  Z
  " fill="#ffffff" fill-rule="evenodd" fill-opacity="1"/>
<polyline clip-path="url(#clip600)" style="stroke:#000000; stroke-linecap:butt; stroke-linejoin:round; stroke-width:4; stroke-opacity:1; fill:none" points="
  2523.96,971.82 3052.85,971.82 3052.85,868.14 2523.96,868.14 2523.96,971.82 
  "/>
<polyline clip-path="url(#clip600)" style="stroke:#0000ff; stroke-linecap:butt; stroke-linejoin:round; stroke-width:4; stroke-opacity:0.6; fill:none" points="
  2557.26,919.98 2757.08,919.98 
  "/>
<circle clip-path="url(#clip600)" cx="2657.17" cy="919.98" r="23" fill="#0000ff" fill-rule="evenodd" fill-opacity="0.6" stroke="#000000" stroke-opacity="0.6" stroke-width="10.24"/>
<path clip-path="url(#clip600)" d="M2810.89 912.33 L2810.89 916.311 Q2809.09 915.316 2807.26 914.83 Q2805.45 914.321 2803.6 914.321 Q2799.46 914.321 2797.17 916.959 Q2794.88 919.575 2794.88 924.32 Q2794.88 929.066 2797.17 931.705 Q2799.46 934.32 2803.6 934.32 Q2805.45 934.32 2807.26 933.834 Q2809.09 933.325 2810.89 932.33 L2810.89 936.265 Q2809.11 937.098 2807.19 937.515 Q2805.29 937.932 2803.14 937.932 Q2797.28 937.932 2793.83 934.251 Q2790.39 930.57 2790.39 924.32 Q2790.39 917.978 2793.86 914.344 Q2797.35 910.709 2803.42 910.709 Q2805.38 910.709 2807.26 911.126 Q2809.13 911.52 2810.89 912.33 Z" fill="#000000" fill-rule="evenodd" fill-opacity="1" /><path clip-path="url(#clip600)" d="M2828.35 914.321 Q2824.92 914.321 2822.93 917.006 Q2820.94 919.668 2820.94 924.32 Q2820.94 928.973 2822.91 931.658 Q2824.9 934.32 2828.35 934.32 Q2831.75 934.32 2833.74 931.635 Q2835.73 928.95 2835.73 924.32 Q2835.73 919.714 2833.74 917.029 Q2831.75 914.321 2828.35 914.321 M2828.35 910.709 Q2833.9 910.709 2837.07 914.321 Q2840.25 917.932 2840.25 924.32 Q2840.25 930.686 2837.07 934.32 Q2833.9 937.932 2828.35 937.932 Q2822.77 937.932 2819.6 934.32 Q2816.45 930.686 2816.45 924.32 Q2816.45 917.932 2819.6 914.321 Q2822.77 910.709 2828.35 910.709 Z" fill="#000000" fill-rule="evenodd" fill-opacity="1" /><path clip-path="url(#clip600)" d="M2863.83 912.098 L2863.83 916.126 Q2862.03 915.2 2860.08 914.737 Q2858.14 914.274 2856.06 914.274 Q2852.88 914.274 2851.29 915.246 Q2849.71 916.219 2849.71 918.163 Q2849.71 919.645 2850.85 920.501 Q2851.98 921.334 2855.41 922.098 L2856.87 922.422 Q2861.4 923.395 2863.3 925.177 Q2865.22 926.936 2865.22 930.107 Q2865.22 933.719 2862.35 935.825 Q2859.51 937.932 2854.51 937.932 Q2852.42 937.932 2850.15 937.515 Q2847.91 937.121 2845.41 936.311 L2845.41 931.913 Q2847.77 933.14 2850.06 933.765 Q2852.35 934.367 2854.6 934.367 Q2857.61 934.367 2859.23 933.348 Q2860.85 932.307 2860.85 930.432 Q2860.85 928.695 2859.67 927.77 Q2858.51 926.844 2854.55 925.987 L2853.07 925.64 Q2849.11 924.807 2847.35 923.094 Q2845.59 921.358 2845.59 918.348 Q2845.59 914.691 2848.19 912.7 Q2850.78 910.709 2855.55 910.709 Q2857.91 910.709 2859.99 911.057 Q2862.07 911.404 2863.83 912.098 Z" fill="#000000" fill-rule="evenodd" fill-opacity="1" /><path clip-path="url(#clip600)" d="M2882.24 901.288 Q2879.13 906.612 2877.63 911.821 Q2876.13 917.029 2876.13 922.376 Q2876.13 927.723 2877.63 932.978 Q2879.16 938.209 2882.24 943.51 L2878.53 943.51 Q2875.06 938.07 2873.32 932.816 Q2871.61 927.561 2871.61 922.376 Q2871.61 917.214 2873.32 911.983 Q2875.04 906.751 2878.53 901.288 L2882.24 901.288 Z" fill="#000000" fill-rule="evenodd" fill-opacity="1" /><path clip-path="url(#clip600)" d="M2894.62 933.371 L2894.62 947.121 L2890.34 947.121 L2890.34 911.334 L2894.62 911.334 L2894.62 915.27 Q2895.96 912.955 2898 911.844 Q2900.06 910.709 2902.91 910.709 Q2907.63 910.709 2910.57 914.459 Q2913.53 918.209 2913.53 924.32 Q2913.53 930.432 2910.57 934.182 Q2907.63 937.932 2902.91 937.932 Q2900.06 937.932 2898 936.82 Q2895.96 935.686 2894.62 933.371 M2909.11 924.32 Q2909.11 919.621 2907.17 916.959 Q2905.25 914.274 2901.87 914.274 Q2898.49 914.274 2896.54 916.959 Q2894.62 919.621 2894.62 924.32 Q2894.62 929.02 2896.54 931.705 Q2898.49 934.367 2901.87 934.367 Q2905.25 934.367 2907.17 931.705 Q2909.11 929.02 2909.11 924.32 Z" fill="#000000" fill-rule="evenodd" fill-opacity="1" /><path clip-path="url(#clip600)" d="M2920.59 911.334 L2924.85 911.334 L2924.85 937.26 L2920.59 937.26 L2920.59 911.334 M2920.59 901.242 L2924.85 901.242 L2924.85 906.635 L2920.59 906.635 L2920.59 901.242 Z" fill="#000000" fill-rule="evenodd" fill-opacity="1" /><path clip-path="url(#clip600)" d="M2948.67 901.242 L2952.95 901.242 L2952.95 922.515 L2965.66 911.334 L2971.1 911.334 L2957.35 923.464 L2971.68 937.26 L2966.12 937.26 L2952.95 924.598 L2952.95 937.26 L2948.67 937.26 L2948.67 901.242 Z" fill="#000000" fill-rule="evenodd" fill-opacity="1" /><path clip-path="url(#clip600)" d="M2975.62 901.288 L2979.32 901.288 Q2982.79 906.751 2984.5 911.983 Q2986.24 917.214 2986.24 922.376 Q2986.24 927.561 2984.5 932.816 Q2982.79 938.07 2979.32 943.51 L2975.62 943.51 Q2978.69 938.209 2980.2 932.978 Q2981.73 927.723 2981.73 922.376 Q2981.73 917.029 2980.2 911.821 Q2978.69 906.612 2975.62 901.288 Z" fill="#000000" fill-rule="evenodd" fill-opacity="1" /><path clip-path="url(#clip600)" d="
M155.478 2274.13 L3152.76 2274.13 L3152.76 1647.24 L155.478 1647.24  Z
  " fill="#ffffff" fill-rule="evenodd" fill-opacity="1"/>
<defs>
  <clipPath id="clip604">
    <rect x="155" y="1647" width="2998" height="628"/>
  </clipPath>
</defs>
<polyline clip-path="url(#clip604)" style="stroke:#000000; stroke-linecap:butt; stroke-linejoin:round; stroke-width:2; stroke-opacity:0.1; fill:none" points="
  155.478,2274.13 155.478,1647.24 
  "/>
<polyline clip-path="url(#clip604)" style="stroke:#000000; stroke-linecap:butt; stroke-linejoin:round; stroke-width:2; stroke-opacity:0.1; fill:none" points="
  1154.57,2274.13 1154.57,1647.24 
  "/>
<polyline clip-path="url(#clip604)" style="stroke:#000000; stroke-linecap:butt; stroke-linejoin:round; stroke-width:2; stroke-opacity:0.1; fill:none" points="
  2153.66,2274.13 2153.66,1647.24 
  "/>
<polyline clip-path="url(#clip604)" style="stroke:#000000; stroke-linecap:butt; stroke-linejoin:round; stroke-width:2; stroke-opacity:0.1; fill:none" points="
  3152.76,2274.13 3152.76,1647.24 
  "/>
<polyline clip-path="url(#clip600)" style="stroke:#000000; stroke-linecap:butt; stroke-linejoin:round; stroke-width:4; stroke-opacity:1; fill:none" points="
  155.478,2274.13 3152.76,2274.13 
  "/>
<polyline clip-path="url(#clip600)" style="stroke:#000000; stroke-linecap:butt; stroke-linejoin:round; stroke-width:4; stroke-opacity:1; fill:none" points="
  155.478,2274.13 155.478,2255.23 
  "/>
<polyline clip-path="url(#clip600)" style="stroke:#000000; stroke-linecap:butt; stroke-linejoin:round; stroke-width:4; stroke-opacity:1; fill:none" points="
  1154.57,2274.13 1154.57,2255.23 
  "/>
<polyline clip-path="url(#clip600)" style="stroke:#000000; stroke-linecap:butt; stroke-linejoin:round; stroke-width:4; stroke-opacity:1; fill:none" points="
  2153.66,2274.13 2153.66,2255.23 
  "/>
<polyline clip-path="url(#clip600)" style="stroke:#000000; stroke-linecap:butt; stroke-linejoin:round; stroke-width:4; stroke-opacity:1; fill:none" points="
  3152.76,2274.13 3152.76,2255.23 
  "/>
<path clip-path="url(#clip600)" d="M155.478 2311.45 Q151.867 2311.45 150.038 2315.01 Q148.233 2318.55 148.233 2325.68 Q148.233 2332.79 150.038 2336.35 Q151.867 2339.9 155.478 2339.9 Q159.112 2339.9 160.918 2336.35 Q162.746 2332.79 162.746 2325.68 Q162.746 2318.55 160.918 2315.01 Q159.112 2311.45 155.478 2311.45 M155.478 2307.74 Q161.288 2307.74 164.344 2312.35 Q167.422 2316.93 167.422 2325.68 Q167.422 2334.41 164.344 2339.02 Q161.288 2343.6 155.478 2343.6 Q149.668 2343.6 146.589 2339.02 Q143.534 2334.41 143.534 2325.68 Q143.534 2316.93 146.589 2312.35 Q149.668 2307.74 155.478 2307.74 Z" fill="#000000" fill-rule="evenodd" fill-opacity="1" /><path clip-path="url(#clip600)" d="M1144.85 2308.37 L1163.2 2308.37 L1163.2 2312.3 L1149.13 2312.3 L1149.13 2320.78 Q1150.15 2320.43 1151.17 2320.27 Q1152.19 2320.08 1153.2 2320.08 Q1158.99 2320.08 1162.37 2323.25 Q1165.75 2326.42 1165.75 2331.84 Q1165.75 2337.42 1162.28 2340.52 Q1158.81 2343.6 1152.49 2343.6 Q1150.31 2343.6 1148.04 2343.23 Q1145.8 2342.86 1143.39 2342.12 L1143.39 2337.42 Q1145.47 2338.55 1147.7 2339.11 Q1149.92 2339.66 1152.39 2339.66 Q1156.4 2339.66 1158.74 2337.56 Q1161.08 2335.45 1161.08 2331.84 Q1161.08 2328.23 1158.74 2326.12 Q1156.4 2324.02 1152.39 2324.02 Q1150.52 2324.02 1148.64 2324.43 Q1146.79 2324.85 1144.85 2325.73 L1144.85 2308.37 Z" fill="#000000" fill-rule="evenodd" fill-opacity="1" /><path clip-path="url(#clip600)" d="M2128.35 2338.99 L2135.99 2338.99 L2135.99 2312.63 L2127.68 2314.29 L2127.68 2310.03 L2135.94 2308.37 L2140.62 2308.37 L2140.62 2338.99 L2148.26 2338.99 L2148.26 2342.93 L2128.35 2342.93 L2128.35 2338.99 Z" fill="#000000" fill-rule="evenodd" fill-opacity="1" /><path clip-path="url(#clip600)" d="M2167.7 2311.45 Q2164.09 2311.45 2162.26 2315.01 Q2160.46 2318.55 2160.46 2325.68 Q2160.46 2332.79 2162.26 2336.35 Q2164.09 2339.9 2167.7 2339.9 Q2171.34 2339.9 2173.14 2336.35 Q2174.97 2332.79 2174.97 2325.68 Q2174.97 2318.55 2173.14 2315.01 Q2171.34 2311.45 2167.7 2311.45 M2167.7 2307.74 Q2173.51 2307.74 2176.57 2312.35 Q2179.65 2316.93 2179.65 2325.68 Q2179.65 2334.41 2176.57 2339.02 Q2173.51 2343.6 2167.7 2343.6 Q2161.89 2343.6 2158.81 2339.02 Q2155.76 2334.41 2155.76 2325.68 Q2155.76 2316.93 2158.81 2312.35 Q2161.89 2307.74 2167.7 2307.74 Z" fill="#000000" fill-rule="evenodd" fill-opacity="1" /><path clip-path="url(#clip600)" d="M3127.94 2338.99 L3135.58 2338.99 L3135.58 2312.63 L3127.27 2314.29 L3127.27 2310.03 L3135.53 2308.37 L3140.21 2308.37 L3140.21 2338.99 L3147.85 2338.99 L3147.85 2342.93 L3127.94 2342.93 L3127.94 2338.99 Z" fill="#000000" fill-rule="evenodd" fill-opacity="1" /><path clip-path="url(#clip600)" d="M3157.34 2308.37 L3175.7 2308.37 L3175.7 2312.3 L3161.62 2312.3 L3161.62 2320.78 Q3162.64 2320.43 3163.66 2320.27 Q3164.68 2320.08 3165.7 2320.08 Q3171.48 2320.08 3174.86 2323.25 Q3178.24 2326.42 3178.24 2331.84 Q3178.24 2337.42 3174.77 2340.52 Q3171.3 2343.6 3164.98 2343.6 Q3162.8 2343.6 3160.53 2343.23 Q3158.29 2342.86 3155.88 2342.12 L3155.88 2337.42 Q3157.96 2338.55 3160.19 2339.11 Q3162.41 2339.66 3164.89 2339.66 Q3168.89 2339.66 3171.23 2337.56 Q3173.57 2335.45 3173.57 2331.84 Q3173.57 2328.23 3171.23 2326.12 Q3168.89 2324.02 3164.89 2324.02 Q3163.01 2324.02 3161.14 2324.43 Q3159.28 2324.85 3157.34 2325.73 L3157.34 2308.37 Z" fill="#000000" fill-rule="evenodd" fill-opacity="1" /><polyline clip-path="url(#clip604)" style="stroke:#000000; stroke-linecap:butt; stroke-linejoin:round; stroke-width:2; stroke-opacity:0.1; fill:none" points="
  155.478,2065.17 3152.76,2065.17 
  "/>
<polyline clip-path="url(#clip604)" style="stroke:#000000; stroke-linecap:butt; stroke-linejoin:round; stroke-width:2; stroke-opacity:0.1; fill:none" points="
  155.478,1960.69 3152.76,1960.69 
  "/>
<polyline clip-path="url(#clip604)" style="stroke:#000000; stroke-linecap:butt; stroke-linejoin:round; stroke-width:2; stroke-opacity:0.1; fill:none" points="
  155.478,1856.21 3152.76,1856.21 
  "/>
<polyline clip-path="url(#clip604)" style="stroke:#000000; stroke-linecap:butt; stroke-linejoin:round; stroke-width:2; stroke-opacity:0.1; fill:none" points="
  155.478,1751.72 3152.76,1751.72 
  "/>
<polyline clip-path="url(#clip604)" style="stroke:#000000; stroke-linecap:butt; stroke-linejoin:round; stroke-width:2; stroke-opacity:0.1; fill:none" points="
  155.478,1647.24 3152.76,1647.24 
  "/>
<polyline clip-path="url(#clip600)" style="stroke:#000000; stroke-linecap:butt; stroke-linejoin:round; stroke-width:4; stroke-opacity:1; fill:none" points="
  155.478,2274.13 155.478,1647.24 
  "/>
<polyline clip-path="url(#clip600)" style="stroke:#000000; stroke-linecap:butt; stroke-linejoin:round; stroke-width:4; stroke-opacity:1; fill:none" points="
  155.478,2065.17 174.376,2065.17 
  "/>
<polyline clip-path="url(#clip600)" style="stroke:#000000; stroke-linecap:butt; stroke-linejoin:round; stroke-width:4; stroke-opacity:1; fill:none" points="
  155.478,1960.69 174.376,1960.69 
  "/>
<polyline clip-path="url(#clip600)" style="stroke:#000000; stroke-linecap:butt; stroke-linejoin:round; stroke-width:4; stroke-opacity:1; fill:none" points="
  155.478,1856.21 174.376,1856.21 
  "/>
<polyline clip-path="url(#clip600)" style="stroke:#000000; stroke-linecap:butt; stroke-linejoin:round; stroke-width:4; stroke-opacity:1; fill:none" points="
  155.478,1751.72 174.376,1751.72 
  "/>
<polyline clip-path="url(#clip600)" style="stroke:#000000; stroke-linecap:butt; stroke-linejoin:round; stroke-width:4; stroke-opacity:1; fill:none" points="
  155.478,1647.24 174.376,1647.24 
  "/>
<path clip-path="url(#clip600)" d="M46.9921 2065.62 L76.6679 2065.62 L76.6679 2069.55 L46.9921 2069.55 L46.9921 2065.62 Z" fill="#000000" fill-rule="evenodd" fill-opacity="1" /><path clip-path="url(#clip600)" d="M87.5706 2078.51 L95.2095 2078.51 L95.2095 2052.15 L86.8993 2053.81 L86.8993 2049.55 L95.1632 2047.89 L99.8391 2047.89 L99.8391 2078.51 L107.478 2078.51 L107.478 2082.45 L87.5706 2082.45 L87.5706 2078.51 Z" fill="#000000" fill-rule="evenodd" fill-opacity="1" /><path clip-path="url(#clip600)" d="M95.5335 1946.48 Q91.9224 1946.48 90.0937 1950.05 Q88.2882 1953.59 88.2882 1960.72 Q88.2882 1967.83 90.0937 1971.39 Q91.9224 1974.93 95.5335 1974.93 Q99.1678 1974.93 100.973 1971.39 Q102.802 1967.83 102.802 1960.72 Q102.802 1953.59 100.973 1950.05 Q99.1678 1946.48 95.5335 1946.48 M95.5335 1942.78 Q101.344 1942.78 104.399 1947.39 Q107.478 1951.97 107.478 1960.72 Q107.478 1969.45 104.399 1974.05 Q101.344 1978.64 95.5335 1978.64 Q89.7234 1978.64 86.6447 1974.05 Q83.5892 1969.45 83.5892 1960.72 Q83.5892 1951.97 86.6447 1947.39 Q89.7234 1942.78 95.5335 1942.78 Z" fill="#000000" fill-rule="evenodd" fill-opacity="1" /><path clip-path="url(#clip600)" d="M87.5706 1869.55 L95.2095 1869.55 L95.2095 1843.18 L86.8993 1844.85 L86.8993 1840.59 L95.1632 1838.93 L99.8391 1838.93 L99.8391 1869.55 L107.478 1869.55 L107.478 1873.49 L87.5706 1873.49 L87.5706 1869.55 Z" fill="#000000" fill-rule="evenodd" fill-opacity="1" /><path clip-path="url(#clip600)" d="M91.1586 1765.07 L107.478 1765.07 L107.478 1769 L85.5336 1769 L85.5336 1765.07 Q88.1956 1762.31 92.7789 1757.69 Q97.3854 1753.03 98.5659 1751.69 Q100.811 1749.17 101.691 1747.43 Q102.594 1745.67 102.594 1743.98 Q102.594 1741.23 100.649 1739.49 Q98.728 1737.75 95.6261 1737.75 Q93.4271 1737.75 90.9734 1738.52 Q88.5428 1739.28 85.7651 1740.83 L85.7651 1736.11 Q88.5891 1734.98 91.0428 1734.4 Q93.4965 1733.82 95.5335 1733.82 Q100.904 1733.82 104.098 1736.5 Q107.293 1739.19 107.293 1743.68 Q107.293 1745.81 106.483 1747.73 Q105.696 1749.63 103.589 1752.22 Q103.01 1752.89 99.9085 1756.11 Q96.8067 1759.31 91.1586 1765.07 Z" fill="#000000" fill-rule="evenodd" fill-opacity="1" /><path clip-path="url(#clip600)" d="M100.348 1645.89 Q103.705 1646.61 105.58 1648.88 Q107.478 1651.14 107.478 1654.48 Q107.478 1659.59 103.959 1662.39 Q100.441 1665.2 93.9595 1665.2 Q91.7836 1665.2 89.4688 1664.76 Q87.1771 1664.34 84.7234 1663.48 L84.7234 1658.97 Q86.6678 1660.1 88.9826 1660.68 Q91.2974 1661.26 93.8206 1661.26 Q98.2187 1661.26 100.51 1659.52 Q102.825 1657.79 102.825 1654.48 Q102.825 1651.42 100.672 1649.71 Q98.5428 1647.97 94.7234 1647.97 L90.6956 1647.97 L90.6956 1644.13 L94.9085 1644.13 Q98.3576 1644.13 100.186 1642.76 Q102.015 1641.38 102.015 1638.78 Q102.015 1636.12 100.117 1634.71 Q98.2419 1633.27 94.7234 1633.27 Q92.8021 1633.27 90.603 1633.69 Q88.4039 1634.11 85.7651 1634.99 L85.7651 1630.82 Q88.4271 1630.08 90.7419 1629.71 Q93.0798 1629.34 95.14 1629.34 Q100.464 1629.34 103.566 1631.77 Q106.668 1634.18 106.668 1638.3 Q106.668 1641.17 105.024 1643.16 Q103.381 1645.13 100.348 1645.89 Z" fill="#000000" fill-rule="evenodd" fill-opacity="1" /><circle clip-path="url(#clip604)" cx="155.478" cy="1670.46" r="10" fill="#009af9" fill-rule="evenodd" fill-opacity="1" stroke="#000000" stroke-opacity="1" stroke-width="4.8"/>
<circle clip-path="url(#clip604)" cx="355.296" cy="1728.51" r="10" fill="#009af9" fill-rule="evenodd" fill-opacity="1" stroke="#000000" stroke-opacity="1" stroke-width="4.8"/>
<circle clip-path="url(#clip604)" cx="555.115" cy="1774.94" r="10" fill="#009af9" fill-rule="evenodd" fill-opacity="1" stroke="#000000" stroke-opacity="1" stroke-width="4.8"/>
<circle clip-path="url(#clip604)" cx="754.934" cy="1812.09" r="10" fill="#009af9" fill-rule="evenodd" fill-opacity="1" stroke="#000000" stroke-opacity="1" stroke-width="4.8"/>
<circle clip-path="url(#clip604)" cx="954.752" cy="1841.81" r="10" fill="#009af9" fill-rule="evenodd" fill-opacity="1" stroke="#000000" stroke-opacity="1" stroke-width="4.8"/>
<circle clip-path="url(#clip604)" cx="1154.57" cy="1865.59" r="10" fill="#009af9" fill-rule="evenodd" fill-opacity="1" stroke="#000000" stroke-opacity="1" stroke-width="4.8"/>
<circle clip-path="url(#clip604)" cx="1354.39" cy="1884.61" r="10" fill="#009af9" fill-rule="evenodd" fill-opacity="1" stroke="#000000" stroke-opacity="1" stroke-width="4.8"/>
<circle clip-path="url(#clip604)" cx="1554.21" cy="1899.82" r="10" fill="#009af9" fill-rule="evenodd" fill-opacity="1" stroke="#000000" stroke-opacity="1" stroke-width="4.8"/>
<circle clip-path="url(#clip604)" cx="1754.03" cy="1911.99" r="10" fill="#009af9" fill-rule="evenodd" fill-opacity="1" stroke="#000000" stroke-opacity="1" stroke-width="4.8"/>
<circle clip-path="url(#clip604)" cx="1953.84" cy="1921.73" r="10" fill="#009af9" fill-rule="evenodd" fill-opacity="1" stroke="#000000" stroke-opacity="1" stroke-width="4.8"/>
<circle clip-path="url(#clip604)" cx="2153.66" cy="1929.52" r="10" fill="#009af9" fill-rule="evenodd" fill-opacity="1" stroke="#000000" stroke-opacity="1" stroke-width="4.8"/>
<circle clip-path="url(#clip604)" cx="2353.48" cy="1935.76" r="10" fill="#009af9" fill-rule="evenodd" fill-opacity="1" stroke="#000000" stroke-opacity="1" stroke-width="4.8"/>
<circle clip-path="url(#clip604)" cx="2553.3" cy="1940.74" r="10" fill="#009af9" fill-rule="evenodd" fill-opacity="1" stroke="#000000" stroke-opacity="1" stroke-width="4.8"/>
<circle clip-path="url(#clip604)" cx="2753.12" cy="1944.73" r="10" fill="#009af9" fill-rule="evenodd" fill-opacity="1" stroke="#000000" stroke-opacity="1" stroke-width="4.8"/>
<circle clip-path="url(#clip604)" cx="2952.94" cy="1947.92" r="10" fill="#009af9" fill-rule="evenodd" fill-opacity="1" stroke="#000000" stroke-opacity="1" stroke-width="4.8"/>
<circle clip-path="url(#clip604)" cx="3152.76" cy="1950.47" r="10" fill="#009af9" fill-rule="evenodd" fill-opacity="1" stroke="#000000" stroke-opacity="1" stroke-width="4.8"/>
<polyline clip-path="url(#clip604)" style="stroke:#009af9; stroke-linecap:butt; stroke-linejoin:round; stroke-width:8; stroke-opacity:1; fill:none" points="
  155.478,1960.69 155.478,1670.46 
  "/>
<polyline clip-path="url(#clip604)" style="stroke:#009af9; stroke-linecap:butt; stroke-linejoin:round; stroke-width:8; stroke-opacity:1; fill:none" points="
  355.296,1960.69 355.296,1728.51 
  "/>
<polyline clip-path="url(#clip604)" style="stroke:#009af9; stroke-linecap:butt; stroke-linejoin:round; stroke-width:8; stroke-opacity:1; fill:none" points="
  555.115,1960.69 555.115,1774.94 
  "/>
<polyline clip-path="url(#clip604)" style="stroke:#009af9; stroke-linecap:butt; stroke-linejoin:round; stroke-width:8; stroke-opacity:1; fill:none" points="
  754.934,1960.69 754.934,1812.09 
  "/>
<polyline clip-path="url(#clip604)" style="stroke:#009af9; stroke-linecap:butt; stroke-linejoin:round; stroke-width:8; stroke-opacity:1; fill:none" points="
  954.752,1960.69 954.752,1841.81 
  "/>
<polyline clip-path="url(#clip604)" style="stroke:#009af9; stroke-linecap:butt; stroke-linejoin:round; stroke-width:8; stroke-opacity:1; fill:none" points="
  1154.57,1960.69 1154.57,1865.59 
  "/>
<polyline clip-path="url(#clip604)" style="stroke:#009af9; stroke-linecap:butt; stroke-linejoin:round; stroke-width:8; stroke-opacity:1; fill:none" points="
  1354.39,1960.69 1354.39,1884.61 
  "/>
<polyline clip-path="url(#clip604)" style="stroke:#009af9; stroke-linecap:butt; stroke-linejoin:round; stroke-width:8; stroke-opacity:1; fill:none" points="
  1554.21,1960.69 1554.21,1899.82 
  "/>
<polyline clip-path="url(#clip604)" style="stroke:#009af9; stroke-linecap:butt; stroke-linejoin:round; stroke-width:8; stroke-opacity:1; fill:none" points="
  1754.03,1960.69 1754.03,1911.99 
  "/>
<polyline clip-path="url(#clip604)" style="stroke:#009af9; stroke-linecap:butt; stroke-linejoin:round; stroke-width:8; stroke-opacity:1; fill:none" points="
  1953.84,1960.69 1953.84,1921.73 
  "/>
<polyline clip-path="url(#clip604)" style="stroke:#009af9; stroke-linecap:butt; stroke-linejoin:round; stroke-width:8; stroke-opacity:1; fill:none" points="
  2153.66,1960.69 2153.66,1929.52 
  "/>
<polyline clip-path="url(#clip604)" style="stroke:#009af9; stroke-linecap:butt; stroke-linejoin:round; stroke-width:8; stroke-opacity:1; fill:none" points="
  2353.48,1960.69 2353.48,1935.76 
  "/>
<polyline clip-path="url(#clip604)" style="stroke:#009af9; stroke-linecap:butt; stroke-linejoin:round; stroke-width:8; stroke-opacity:1; fill:none" points="
  2553.3,1960.69 2553.3,1940.74 
  "/>
<polyline clip-path="url(#clip604)" style="stroke:#009af9; stroke-linecap:butt; stroke-linejoin:round; stroke-width:8; stroke-opacity:1; fill:none" points="
  2753.12,1960.69 2753.12,1944.73 
  "/>
<polyline clip-path="url(#clip604)" style="stroke:#009af9; stroke-linecap:butt; stroke-linejoin:round; stroke-width:8; stroke-opacity:1; fill:none" points="
  2952.94,1960.69 2952.94,1947.92 
  "/>
<polyline clip-path="url(#clip604)" style="stroke:#009af9; stroke-linecap:butt; stroke-linejoin:round; stroke-width:8; stroke-opacity:1; fill:none" points="
  3152.76,1960.69 3152.76,1950.47 
  "/>
<polyline clip-path="url(#clip604)" style="stroke:#009af9; stroke-linecap:butt; stroke-linejoin:round; stroke-width:8; stroke-opacity:1; fill:none" points="
  3352.57,1960.69 3352.57,1952.52 
  "/>
<polyline clip-path="url(#clip604)" style="stroke:#e26f46; stroke-linecap:butt; stroke-linejoin:round; stroke-width:8; stroke-opacity:0.5; fill:none" stroke-dasharray="32, 20" points="
  -2841.8,1960.69 6150.03,1960.69 
  "/>
<path clip-path="url(#clip600)" d="
M2263.89 1771.82 L3052.85 1771.82 L3052.85 1668.14 L2263.89 1668.14  Z
  " fill="#ffffff" fill-rule="evenodd" fill-opacity="1"/>
<polyline clip-path="url(#clip600)" style="stroke:#000000; stroke-linecap:butt; stroke-linejoin:round; stroke-width:4; stroke-opacity:1; fill:none" points="
  2263.89,1771.82 3052.85,1771.82 3052.85,1668.14 2263.89,1668.14 2263.89,1771.82 
  "/>
<circle clip-path="url(#clip600)" cx="2397.1" cy="1719.98" r="23" fill="#009af9" fill-rule="evenodd" fill-opacity="1" stroke="#000000" stroke-opacity="1" stroke-width="10.24"/>
<path clip-path="url(#clip600)" d="M2549.23 1724 Q2549.23 1719.37 2547.31 1716.82 Q2545.41 1714.27 2541.96 1714.27 Q2538.53 1714.27 2536.61 1716.82 Q2534.72 1719.37 2534.72 1724 Q2534.72 1728.6 2536.61 1731.15 Q2538.53 1733.7 2541.96 1733.7 Q2545.41 1733.7 2547.31 1731.15 Q2549.23 1728.6 2549.23 1724 M2553.49 1734.04 Q2553.49 1740.66 2550.55 1743.88 Q2547.61 1747.12 2541.54 1747.12 Q2539.3 1747.12 2537.31 1746.77 Q2535.32 1746.45 2533.44 1745.76 L2533.44 1741.61 Q2535.32 1742.63 2537.15 1743.12 Q2538.97 1743.6 2540.87 1743.6 Q2545.06 1743.6 2547.15 1741.4 Q2549.23 1739.23 2549.23 1734.81 L2549.23 1732.7 Q2547.91 1734.99 2545.85 1736.13 Q2543.79 1737.26 2540.92 1737.26 Q2536.15 1737.26 2533.23 1733.63 Q2530.32 1729.99 2530.32 1724 Q2530.32 1717.98 2533.23 1714.34 Q2536.15 1710.71 2540.92 1710.71 Q2543.79 1710.71 2545.85 1711.84 Q2547.91 1712.98 2549.23 1715.27 L2549.23 1711.33 L2553.49 1711.33 L2553.49 1734.04 Z" fill="#000000" fill-rule="evenodd" fill-opacity="1" /><path clip-path="url(#clip600)" d="M2574.04 1724.23 Q2568.88 1724.23 2566.89 1725.41 Q2564.9 1726.59 2564.9 1729.44 Q2564.9 1731.7 2566.38 1733.05 Q2567.89 1734.37 2570.46 1734.37 Q2574 1734.37 2576.13 1731.87 Q2578.28 1729.34 2578.28 1725.18 L2578.28 1724.23 L2574.04 1724.23 M2582.54 1722.47 L2582.54 1737.26 L2578.28 1737.26 L2578.28 1733.33 Q2576.82 1735.69 2574.65 1736.82 Q2572.47 1737.93 2569.32 1737.93 Q2565.34 1737.93 2562.98 1735.71 Q2560.64 1733.46 2560.64 1729.71 Q2560.64 1725.34 2563.56 1723.12 Q2566.5 1720.89 2572.31 1720.89 L2578.28 1720.89 L2578.28 1720.48 Q2578.28 1717.54 2576.34 1715.94 Q2574.41 1714.32 2570.92 1714.32 Q2568.7 1714.32 2566.59 1714.85 Q2564.48 1715.39 2562.54 1716.45 L2562.54 1712.51 Q2564.88 1711.61 2567.08 1711.17 Q2569.28 1710.71 2571.36 1710.71 Q2576.98 1710.71 2579.76 1713.63 Q2582.54 1716.54 2582.54 1722.47 Z" fill="#000000" fill-rule="evenodd" fill-opacity="1" /><path clip-path="url(#clip600)" d="M2611.5 1716.31 Q2613.09 1713.44 2615.32 1712.08 Q2617.54 1710.71 2620.55 1710.71 Q2624.6 1710.71 2626.8 1713.56 Q2629 1716.38 2629 1721.61 L2629 1737.26 L2624.71 1737.26 L2624.71 1721.75 Q2624.71 1718.02 2623.4 1716.22 Q2622.08 1714.41 2619.37 1714.41 Q2616.06 1714.41 2614.14 1716.61 Q2612.21 1718.81 2612.21 1722.61 L2612.21 1737.26 L2607.93 1737.26 L2607.93 1721.75 Q2607.93 1718 2606.61 1716.22 Q2605.29 1714.41 2602.54 1714.41 Q2599.27 1714.41 2597.35 1716.64 Q2595.43 1718.83 2595.43 1722.61 L2595.43 1737.26 L2591.15 1737.26 L2591.15 1711.33 L2595.43 1711.33 L2595.43 1715.36 Q2596.89 1712.98 2598.93 1711.84 Q2600.96 1710.71 2603.77 1710.71 Q2606.59 1710.71 2608.56 1712.14 Q2610.55 1713.58 2611.5 1716.31 Z" fill="#000000" fill-rule="evenodd" fill-opacity="1" /><path clip-path="url(#clip600)" d="M2657.68 1716.31 Q2659.27 1713.44 2661.5 1712.08 Q2663.72 1710.71 2666.73 1710.71 Q2670.78 1710.71 2672.98 1713.56 Q2675.18 1716.38 2675.18 1721.61 L2675.18 1737.26 L2670.89 1737.26 L2670.89 1721.75 Q2670.89 1718.02 2669.58 1716.22 Q2668.26 1714.41 2665.55 1714.41 Q2662.24 1714.41 2660.32 1716.61 Q2658.39 1718.81 2658.39 1722.61 L2658.39 1737.26 L2654.11 1737.26 L2654.11 1721.75 Q2654.11 1718 2652.79 1716.22 Q2651.47 1714.41 2648.72 1714.41 Q2645.46 1714.41 2643.53 1716.64 Q2641.61 1718.83 2641.61 1722.61 L2641.61 1737.26 L2637.33 1737.26 L2637.33 1711.33 L2641.61 1711.33 L2641.61 1715.36 Q2643.07 1712.98 2645.11 1711.84 Q2647.15 1710.71 2649.95 1710.71 Q2652.77 1710.71 2654.74 1712.14 Q2656.73 1713.58 2657.68 1716.31 Z" fill="#000000" fill-rule="evenodd" fill-opacity="1" /><path clip-path="url(#clip600)" d="M2695.45 1724.23 Q2690.29 1724.23 2688.3 1725.41 Q2686.31 1726.59 2686.31 1729.44 Q2686.31 1731.7 2687.79 1733.05 Q2689.3 1734.37 2691.87 1734.37 Q2695.41 1734.37 2697.54 1731.87 Q2699.69 1729.34 2699.69 1725.18 L2699.69 1724.23 L2695.45 1724.23 M2703.95 1722.47 L2703.95 1737.26 L2699.69 1737.26 L2699.69 1733.33 Q2698.23 1735.69 2696.06 1736.82 Q2693.88 1737.93 2690.73 1737.93 Q2686.75 1737.93 2684.39 1735.71 Q2682.05 1733.46 2682.05 1729.71 Q2682.05 1725.34 2684.97 1723.12 Q2687.91 1720.89 2693.72 1720.89 L2699.69 1720.89 L2699.69 1720.48 Q2699.69 1717.54 2697.75 1715.94 Q2695.83 1714.32 2692.33 1714.32 Q2690.11 1714.32 2688 1714.85 Q2685.89 1715.39 2683.95 1716.45 L2683.95 1712.51 Q2686.29 1711.61 2688.49 1711.17 Q2690.69 1710.71 2692.77 1710.71 Q2698.39 1710.71 2701.17 1713.63 Q2703.95 1716.54 2703.95 1722.47 Z" fill="#000000" fill-rule="evenodd" fill-opacity="1" /><path clip-path="url(#clip600)" d="M2722.95 1701.29 Q2719.85 1706.61 2718.35 1711.82 Q2716.84 1717.03 2716.84 1722.38 Q2716.84 1727.72 2718.35 1732.98 Q2719.88 1738.21 2722.95 1743.51 L2719.25 1743.51 Q2715.78 1738.07 2714.04 1732.82 Q2712.33 1727.56 2712.33 1722.38 Q2712.33 1717.21 2714.04 1711.98 Q2715.76 1706.75 2719.25 1701.29 L2722.95 1701.29 Z" fill="#000000" fill-rule="evenodd" fill-opacity="1" /><path clip-path="url(#clip600)" d="M2731.06 1701.24 L2735.34 1701.24 L2735.34 1722.51 L2748.05 1711.33 L2753.49 1711.33 L2739.74 1723.46 L2754.07 1737.26 L2748.51 1737.26 L2735.34 1724.6 L2735.34 1737.26 L2731.06 1737.26 L2731.06 1701.24 Z" fill="#000000" fill-rule="evenodd" fill-opacity="1" /><path clip-path="url(#clip600)" d="M2758 1701.29 L2761.7 1701.29 Q2765.18 1706.75 2766.89 1711.98 Q2768.63 1717.21 2768.63 1722.38 Q2768.63 1727.56 2766.89 1732.82 Q2765.18 1738.07 2761.7 1743.51 L2758 1743.51 Q2761.08 1738.21 2762.58 1732.98 Q2764.11 1727.72 2764.11 1722.38 Q2764.11 1717.03 2762.58 1711.82 Q2761.08 1706.61 2758 1701.29 Z" fill="#000000" fill-rule="evenodd" fill-opacity="1" /><path clip-path="url(#clip600)" d="M2810.89 1712.33 L2810.89 1716.31 Q2809.09 1715.32 2807.26 1714.83 Q2805.45 1714.32 2803.6 1714.32 Q2799.46 1714.32 2797.17 1716.96 Q2794.88 1719.58 2794.88 1724.32 Q2794.88 1729.07 2797.17 1731.7 Q2799.46 1734.32 2803.6 1734.32 Q2805.45 1734.32 2807.26 1733.83 Q2809.09 1733.33 2810.89 1732.33 L2810.89 1736.26 Q2809.11 1737.1 2807.19 1737.51 Q2805.29 1737.93 2803.14 1737.93 Q2797.28 1737.93 2793.83 1734.25 Q2790.39 1730.57 2790.39 1724.32 Q2790.39 1717.98 2793.86 1714.34 Q2797.35 1710.71 2803.42 1710.71 Q2805.38 1710.71 2807.26 1711.13 Q2809.13 1711.52 2810.89 1712.33 Z" fill="#000000" fill-rule="evenodd" fill-opacity="1" /><path clip-path="url(#clip600)" d="M2828.35 1714.32 Q2824.92 1714.32 2822.93 1717.01 Q2820.94 1719.67 2820.94 1724.32 Q2820.94 1728.97 2822.91 1731.66 Q2824.9 1734.32 2828.35 1734.32 Q2831.75 1734.32 2833.74 1731.64 Q2835.73 1728.95 2835.73 1724.32 Q2835.73 1719.71 2833.74 1717.03 Q2831.75 1714.32 2828.35 1714.32 M2828.35 1710.71 Q2833.9 1710.71 2837.07 1714.32 Q2840.25 1717.93 2840.25 1724.32 Q2840.25 1730.69 2837.07 1734.32 Q2833.9 1737.93 2828.35 1737.93 Q2822.77 1737.93 2819.6 1734.32 Q2816.45 1730.69 2816.45 1724.32 Q2816.45 1717.93 2819.6 1714.32 Q2822.77 1710.71 2828.35 1710.71 Z" fill="#000000" fill-rule="evenodd" fill-opacity="1" /><path clip-path="url(#clip600)" d="M2863.83 1712.1 L2863.83 1716.13 Q2862.03 1715.2 2860.08 1714.74 Q2858.14 1714.27 2856.06 1714.27 Q2852.88 1714.27 2851.29 1715.25 Q2849.71 1716.22 2849.71 1718.16 Q2849.71 1719.64 2850.85 1720.5 Q2851.98 1721.33 2855.41 1722.1 L2856.87 1722.42 Q2861.4 1723.39 2863.3 1725.18 Q2865.22 1726.94 2865.22 1730.11 Q2865.22 1733.72 2862.35 1735.83 Q2859.51 1737.93 2854.51 1737.93 Q2852.42 1737.93 2850.15 1737.51 Q2847.91 1737.12 2845.41 1736.31 L2845.41 1731.91 Q2847.77 1733.14 2850.06 1733.76 Q2852.35 1734.37 2854.6 1734.37 Q2857.61 1734.37 2859.23 1733.35 Q2860.85 1732.31 2860.85 1730.43 Q2860.85 1728.7 2859.67 1727.77 Q2858.51 1726.84 2854.55 1725.99 L2853.07 1725.64 Q2849.11 1724.81 2847.35 1723.09 Q2845.59 1721.36 2845.59 1718.35 Q2845.59 1714.69 2848.19 1712.7 Q2850.78 1710.71 2855.55 1710.71 Q2857.91 1710.71 2859.99 1711.06 Q2862.07 1711.4 2863.83 1712.1 Z" fill="#000000" fill-rule="evenodd" fill-opacity="1" /><path clip-path="url(#clip600)" d="M2882.24 1701.29 Q2879.13 1706.61 2877.63 1711.82 Q2876.13 1717.03 2876.13 1722.38 Q2876.13 1727.72 2877.63 1732.98 Q2879.16 1738.21 2882.24 1743.51 L2878.53 1743.51 Q2875.06 1738.07 2873.32 1732.82 Q2871.61 1727.56 2871.61 1722.38 Q2871.61 1717.21 2873.32 1711.98 Q2875.04 1706.75 2878.53 1701.29 L2882.24 1701.29 Z" fill="#000000" fill-rule="evenodd" fill-opacity="1" /><path clip-path="url(#clip600)" d="M2894.62 1733.37 L2894.62 1747.12 L2890.34 1747.12 L2890.34 1711.33 L2894.62 1711.33 L2894.62 1715.27 Q2895.96 1712.95 2898 1711.84 Q2900.06 1710.71 2902.91 1710.71 Q2907.63 1710.71 2910.57 1714.46 Q2913.53 1718.21 2913.53 1724.32 Q2913.53 1730.43 2910.57 1734.18 Q2907.63 1737.93 2902.91 1737.93 Q2900.06 1737.93 2898 1736.82 Q2895.96 1735.69 2894.62 1733.37 M2909.11 1724.32 Q2909.11 1719.62 2907.17 1716.96 Q2905.25 1714.27 2901.87 1714.27 Q2898.49 1714.27 2896.54 1716.96 Q2894.62 1719.62 2894.62 1724.32 Q2894.62 1729.02 2896.54 1731.7 Q2898.49 1734.37 2901.87 1734.37 Q2905.25 1734.37 2907.17 1731.7 Q2909.11 1729.02 2909.11 1724.32 Z" fill="#000000" fill-rule="evenodd" fill-opacity="1" /><path clip-path="url(#clip600)" d="M2920.59 1711.33 L2924.85 1711.33 L2924.85 1737.26 L2920.59 1737.26 L2920.59 1711.33 M2920.59 1701.24 L2924.85 1701.24 L2924.85 1706.64 L2920.59 1706.64 L2920.59 1701.24 Z" fill="#000000" fill-rule="evenodd" fill-opacity="1" /><path clip-path="url(#clip600)" d="M2948.67 1701.24 L2952.95 1701.24 L2952.95 1722.51 L2965.66 1711.33 L2971.1 1711.33 L2957.35 1723.46 L2971.68 1737.26 L2966.12 1737.26 L2952.95 1724.6 L2952.95 1737.26 L2948.67 1737.26 L2948.67 1701.24 Z" fill="#000000" fill-rule="evenodd" fill-opacity="1" /><path clip-path="url(#clip600)" d="M2975.62 1701.29 L2979.32 1701.29 Q2982.79 1706.75 2984.5 1711.98 Q2986.24 1717.21 2986.24 1722.38 Q2986.24 1727.56 2984.5 1732.82 Q2982.79 1738.07 2979.32 1743.51 L2975.62 1743.51 Q2978.69 1738.21 2980.2 1732.98 Q2981.73 1727.72 2981.73 1722.38 Q2981.73 1717.03 2980.2 1711.82 Q2978.69 1706.61 2975.62 1701.29 Z" fill="#000000" fill-rule="evenodd" fill-opacity="1" /></svg>
