<?xml version="1.0" encoding="utf-8"?>
<svg xmlns="http://www.w3.org/2000/svg" xmlns:xlink="http://www.w3.org/1999/xlink" width="600" height="400" viewBox="0 0 2400 1600">
<defs>
  <clipPath id="clip760">
    <rect x="0" y="0" width="2400" height="1600"/>
  </clipPath>
</defs>
<path clip-path="url(#clip760)" d="
M0 1600 L2400 1600 L2400 0 L0 0  Z
  " fill="#ffffff" fill-rule="evenodd" fill-opacity="1"/>
<defs>
  <clipPath id="clip761">
    <rect x="480" y="0" width="1681" height="1600"/>
  </clipPath>
</defs>
<defs>
  <clipPath id="clip762">
    <rect x="2160" y="47" width="73" height="1377"/>
  </clipPath>
</defs>
<path clip-path="url(#clip760)" d="
M157.408 686.448 L2352.76 686.448 L2352.76 47.2441 L157.408 47.2441  Z
  " fill="#ffffff" fill-rule="evenodd" fill-opacity="1"/>
<defs>
  <clipPath id="clip763">
    <rect x="157" y="47" width="2196" height="640"/>
  </clipPath>
</defs>
<polyline clip-path="url(#clip763)" style="stroke:#000000; stroke-linecap:round; stroke-linejoin:round; stroke-width:2; stroke-opacity:0.1; fill:none" points="
  655.558,686.448 655.558,47.2441 
  "/>
<polyline clip-path="url(#clip763)" style="stroke:#000000; stroke-linecap:round; stroke-linejoin:round; stroke-width:2; stroke-opacity:0.1; fill:none" points="
  1200.58,686.448 1200.58,47.2441 
  "/>
<polyline clip-path="url(#clip763)" style="stroke:#000000; stroke-linecap:round; stroke-linejoin:round; stroke-width:2; stroke-opacity:0.1; fill:none" points="
  1745.6,686.448 1745.6,47.2441 
  "/>
<polyline clip-path="url(#clip763)" style="stroke:#000000; stroke-linecap:round; stroke-linejoin:round; stroke-width:2; stroke-opacity:0.1; fill:none" points="
  2290.62,686.448 2290.62,47.2441 
  "/>
<polyline clip-path="url(#clip760)" style="stroke:#000000; stroke-linecap:round; stroke-linejoin:round; stroke-width:4; stroke-opacity:1; fill:none" points="
  157.408,686.448 2352.76,686.448 
  "/>
<polyline clip-path="url(#clip760)" style="stroke:#000000; stroke-linecap:round; stroke-linejoin:round; stroke-width:4; stroke-opacity:1; fill:none" points="
  655.558,686.448 655.558,667.55 
  "/>
<polyline clip-path="url(#clip760)" style="stroke:#000000; stroke-linecap:round; stroke-linejoin:round; stroke-width:4; stroke-opacity:1; fill:none" points="
  1200.58,686.448 1200.58,667.55 
  "/>
<polyline clip-path="url(#clip760)" style="stroke:#000000; stroke-linecap:round; stroke-linejoin:round; stroke-width:4; stroke-opacity:1; fill:none" points="
  1745.6,686.448 1745.6,667.55 
  "/>
<polyline clip-path="url(#clip760)" style="stroke:#000000; stroke-linecap:round; stroke-linejoin:round; stroke-width:4; stroke-opacity:1; fill:none" points="
  2290.62,686.448 2290.62,667.55 
  "/>
<path clip-path="url(#clip760)" d="M645.836 714.288 L664.192 714.288 L664.192 718.223 L650.118 718.223 L650.118 726.695 Q651.137 726.348 652.156 726.186 Q653.174 726.001 654.193 726.001 Q659.98 726.001 663.359 729.172 Q666.739 732.343 666.739 737.76 Q666.739 743.339 663.267 746.44 Q659.794 749.519 653.475 749.519 Q651.299 749.519 649.031 749.149 Q646.785 748.778 644.378 748.038 L644.378 743.339 Q646.461 744.473 648.683 745.028 Q650.906 745.584 653.382 745.584 Q657.387 745.584 659.725 743.478 Q662.063 741.371 662.063 737.76 Q662.063 734.149 659.725 732.042 Q657.387 729.936 653.382 729.936 Q651.507 729.936 649.632 730.353 Q647.781 730.769 645.836 731.649 L645.836 714.288 Z" fill="#000000" fill-rule="evenodd" fill-opacity="1" /><path clip-path="url(#clip760)" d="M1175.27 744.913 L1182.91 744.913 L1182.91 718.547 L1174.6 720.214 L1174.6 715.955 L1182.86 714.288 L1187.54 714.288 L1187.54 744.913 L1195.17 744.913 L1195.17 748.848 L1175.27 748.848 L1175.27 744.913 Z" fill="#000000" fill-rule="evenodd" fill-opacity="1" /><path clip-path="url(#clip760)" d="M1214.62 717.367 Q1211.01 717.367 1209.18 720.931 Q1207.37 724.473 1207.37 731.603 Q1207.37 738.709 1209.18 742.274 Q1211.01 745.815 1214.62 745.815 Q1218.25 745.815 1220.06 742.274 Q1221.89 738.709 1221.89 731.603 Q1221.89 724.473 1220.06 720.931 Q1218.25 717.367 1214.62 717.367 M1214.62 713.663 Q1220.43 713.663 1223.48 718.269 Q1226.56 722.853 1226.56 731.603 Q1226.56 740.329 1223.48 744.936 Q1220.43 749.519 1214.62 749.519 Q1208.81 749.519 1205.73 744.936 Q1202.67 740.329 1202.67 731.603 Q1202.67 722.853 1205.73 718.269 Q1208.81 713.663 1214.62 713.663 Z" fill="#000000" fill-rule="evenodd" fill-opacity="1" /><path clip-path="url(#clip760)" d="M1720.79 744.913 L1728.43 744.913 L1728.43 718.547 L1720.12 720.214 L1720.12 715.955 L1728.38 714.288 L1733.06 714.288 L1733.06 744.913 L1740.69 744.913 L1740.69 748.848 L1720.79 748.848 L1720.79 744.913 Z" fill="#000000" fill-rule="evenodd" fill-opacity="1" /><path clip-path="url(#clip760)" d="M1750.19 714.288 L1768.54 714.288 L1768.54 718.223 L1754.47 718.223 L1754.47 726.695 Q1755.49 726.348 1756.5 726.186 Q1757.52 726.001 1758.54 726.001 Q1764.33 726.001 1767.71 729.172 Q1771.09 732.343 1771.09 737.76 Q1771.09 743.339 1767.62 746.44 Q1764.14 749.519 1757.82 749.519 Q1755.65 749.519 1753.38 749.149 Q1751.13 748.778 1748.73 748.038 L1748.73 743.339 Q1750.81 744.473 1753.03 745.028 Q1755.25 745.584 1757.73 745.584 Q1761.74 745.584 1764.07 743.478 Q1766.41 741.371 1766.41 737.76 Q1766.41 734.149 1764.07 732.042 Q1761.74 729.936 1757.73 729.936 Q1755.86 729.936 1753.98 730.353 Q1752.13 730.769 1750.19 731.649 L1750.19 714.288 Z" fill="#000000" fill-rule="evenodd" fill-opacity="1" /><path clip-path="url(#clip760)" d="M2269.4 744.913 L2285.72 744.913 L2285.72 748.848 L2263.77 748.848 L2263.77 744.913 Q2266.43 742.158 2271.02 737.528 Q2275.62 732.876 2276.8 731.533 Q2279.05 729.01 2279.93 727.274 Q2280.83 725.515 2280.83 723.825 Q2280.83 721.07 2278.89 719.334 Q2276.97 717.598 2273.86 717.598 Q2271.67 717.598 2269.21 718.362 Q2266.78 719.126 2264 720.677 L2264 715.955 Q2266.83 714.82 2269.28 714.242 Q2271.73 713.663 2273.77 713.663 Q2279.14 713.663 2282.34 716.348 Q2285.53 719.033 2285.53 723.524 Q2285.53 725.654 2284.72 727.575 Q2283.93 729.473 2281.83 732.066 Q2281.25 732.737 2278.15 735.954 Q2275.04 739.149 2269.4 744.913 Z" fill="#000000" fill-rule="evenodd" fill-opacity="1" /><path clip-path="url(#clip760)" d="M2305.53 717.367 Q2301.92 717.367 2300.09 720.931 Q2298.29 724.473 2298.29 731.603 Q2298.29 738.709 2300.09 742.274 Q2301.92 745.815 2305.53 745.815 Q2309.16 745.815 2310.97 742.274 Q2312.8 738.709 2312.8 731.603 Q2312.8 724.473 2310.97 720.931 Q2309.16 717.367 2305.53 717.367 M2305.53 713.663 Q2311.34 713.663 2314.4 718.269 Q2317.48 722.853 2317.48 731.603 Q2317.48 740.329 2314.4 744.936 Q2311.34 749.519 2305.53 749.519 Q2299.72 749.519 2296.64 744.936 Q2293.59 740.329 2293.59 731.603 Q2293.59 722.853 2296.64 718.269 Q2299.72 713.663 2305.53 713.663 Z" fill="#000000" fill-rule="evenodd" fill-opacity="1" /><polyline clip-path="url(#clip763)" style="stroke:#000000; stroke-linecap:round; stroke-linejoin:round; stroke-width:2; stroke-opacity:0.1; fill:none" points="
  157.408,594.139 2352.76,594.139 
  "/>
<polyline clip-path="url(#clip763)" style="stroke:#000000; stroke-linecap:round; stroke-linejoin:round; stroke-width:2; stroke-opacity:0.1; fill:none" points="
  157.408,442.61 2352.76,442.61 
  "/>
<polyline clip-path="url(#clip763)" style="stroke:#000000; stroke-linecap:round; stroke-linejoin:round; stroke-width:2; stroke-opacity:0.1; fill:none" points="
  157.408,291.082 2352.76,291.082 
  "/>
<polyline clip-path="url(#clip763)" style="stroke:#000000; stroke-linecap:round; stroke-linejoin:round; stroke-width:2; stroke-opacity:0.1; fill:none" points="
  157.408,139.553 2352.76,139.553 
  "/>
<polyline clip-path="url(#clip760)" style="stroke:#000000; stroke-linecap:round; stroke-linejoin:round; stroke-width:4; stroke-opacity:1; fill:none" points="
  157.408,686.448 157.408,47.2441 
  "/>
<polyline clip-path="url(#clip760)" style="stroke:#000000; stroke-linecap:round; stroke-linejoin:round; stroke-width:4; stroke-opacity:1; fill:none" points="
  157.408,594.139 176.306,594.139 
  "/>
<polyline clip-path="url(#clip760)" style="stroke:#000000; stroke-linecap:round; stroke-linejoin:round; stroke-width:4; stroke-opacity:1; fill:none" points="
  157.408,442.61 176.306,442.61 
  "/>
<polyline clip-path="url(#clip760)" style="stroke:#000000; stroke-linecap:round; stroke-linejoin:round; stroke-width:4; stroke-opacity:1; fill:none" points="
  157.408,291.082 176.306,291.082 
  "/>
<polyline clip-path="url(#clip760)" style="stroke:#000000; stroke-linecap:round; stroke-linejoin:round; stroke-width:4; stroke-opacity:1; fill:none" points="
  157.408,139.553 176.306,139.553 
  "/>
<path clip-path="url(#clip760)" d="M101.501 607.484 L109.14 607.484 L109.14 581.118 L100.83 582.785 L100.83 578.526 L109.094 576.859 L113.77 576.859 L113.77 607.484 L121.408 607.484 L121.408 611.419 L101.501 611.419 L101.501 607.484 Z" fill="#000000" fill-rule="evenodd" fill-opacity="1" /><path clip-path="url(#clip760)" d="M105.089 455.955 L121.408 455.955 L121.408 459.89 L99.4641 459.89 L99.4641 455.955 Q102.126 453.201 106.709 448.571 Q111.316 443.918 112.496 442.576 Q114.742 440.052 115.621 438.316 Q116.524 436.557 116.524 434.867 Q116.524 432.113 114.58 430.377 Q112.658 428.641 109.557 428.641 Q107.358 428.641 104.904 429.404 Q102.473 430.168 99.6956 431.719 L99.6956 426.997 Q102.52 425.863 104.973 425.284 Q107.427 424.705 109.464 424.705 Q114.834 424.705 118.029 427.391 Q121.223 430.076 121.223 434.566 Q121.223 436.696 120.413 438.617 Q119.626 440.515 117.52 443.108 Q116.941 443.779 113.839 446.997 Q110.737 450.191 105.089 455.955 Z" fill="#000000" fill-rule="evenodd" fill-opacity="1" /><path clip-path="url(#clip760)" d="M114.279 289.727 Q117.635 290.445 119.51 292.714 Q121.408 294.982 121.408 298.315 Q121.408 303.431 117.89 306.232 Q114.371 309.033 107.89 309.033 Q105.714 309.033 103.399 308.593 Q101.108 308.176 98.6539 307.32 L98.6539 302.806 Q100.598 303.94 102.913 304.519 Q105.228 305.098 107.751 305.098 Q112.149 305.098 114.441 303.362 Q116.756 301.626 116.756 298.315 Q116.756 295.26 114.603 293.547 Q112.473 291.811 108.654 291.811 L104.626 291.811 L104.626 287.968 L108.839 287.968 Q112.288 287.968 114.117 286.602 Q115.945 285.214 115.945 282.621 Q115.945 279.959 114.047 278.547 Q112.172 277.112 108.654 277.112 Q106.733 277.112 104.534 277.528 Q102.334 277.945 99.6956 278.825 L99.6956 274.658 Q102.358 273.917 104.672 273.547 Q107.01 273.177 109.071 273.177 Q114.395 273.177 117.496 275.607 Q120.598 278.015 120.598 282.135 Q120.598 285.005 118.955 286.996 Q117.311 288.964 114.279 289.727 Z" fill="#000000" fill-rule="evenodd" fill-opacity="1" /><path clip-path="url(#clip760)" d="M111.825 126.347 L100.02 144.796 L111.825 144.796 L111.825 126.347 M110.598 122.273 L116.478 122.273 L116.478 144.796 L121.408 144.796 L121.408 148.685 L116.478 148.685 L116.478 156.833 L111.825 156.833 L111.825 148.685 L96.2234 148.685 L96.2234 144.171 L110.598 122.273 Z" fill="#000000" fill-rule="evenodd" fill-opacity="1" /><polyline clip-path="url(#clip763)" style="stroke:#009af9; stroke-linecap:round; stroke-linejoin:round; stroke-width:4; stroke-opacity:1; fill:none" points="
  219.541,451.888 328.545,65.3348 437.55,65.3348 546.554,65.3348 655.558,65.3348 764.563,65.3348 873.567,65.3348 982.571,65.3348 1091.58,65.3348 1200.58,65.3348 
  1309.58,65.3348 1418.59,65.3348 1527.59,65.3348 1636.6,65.3348 1745.6,65.3348 1854.61,65.3348 1963.61,65.3348 2072.61,65.3348 2181.62,65.3348 2290.62,65.3348 
  
  "/>
<polyline clip-path="url(#clip763)" style="stroke:#e26f46; stroke-linecap:round; stroke-linejoin:round; stroke-width:4; stroke-opacity:1; fill:none" points="
  219.541,668.357 328.545,142.645 437.55,142.645 546.554,142.645 655.558,142.645 764.563,142.645 873.567,142.645 982.571,142.645 1091.58,142.645 1200.58,142.645 
  1309.58,142.645 1418.59,142.645 1527.59,142.645 1636.6,142.645 1745.6,142.645 1854.61,142.645 1963.61,142.645 2072.61,142.645 2181.62,142.645 2290.62,142.645 
  
  "/>
<path clip-path="url(#clip760)" d="
M2037.78 665.141 L2279.58 665.141 L2279.58 509.621 L2037.78 509.621  Z
  " fill="#ffffff" fill-rule="evenodd" fill-opacity="1"/>
<polyline clip-path="url(#clip760)" style="stroke:#000000; stroke-linecap:round; stroke-linejoin:round; stroke-width:4; stroke-opacity:1; fill:none" points="
  2037.78,665.141 2279.58,665.141 2279.58,509.621 2037.78,509.621 2037.78,665.141 
  "/>
<polyline clip-path="url(#clip760)" style="stroke:#009af9; stroke-linecap:round; stroke-linejoin:round; stroke-width:4; stroke-opacity:1; fill:none" points="
  2062.17,561.461 2208.53,561.461 
  "/>
<path clip-path="url(#clip760)" d="M2252.27 552.708 Q2252.27 553.2 2251.84 553.598 Q2251.45 553.996 2250.95 553.996 Q2250.67 553.996 2249.99 553.527 Q2248.05 552.169 2245.59 552.169 Q2243.39 552.169 2241.35 552.708 Q2239.31 553.246 2237.93 554.347 Q2236.57 555.425 2236.57 556.83 Q2236.57 558.587 2238.49 559.617 Q2240.48 558.704 2242.94 558.704 Q2243.74 558.704 2244.28 558.751 Q2244.84 558.798 2245.38 558.915 Q2245.92 559.032 2246.18 559.313 Q2246.46 559.57 2246.46 559.992 Q2246.46 561.491 2242.57 561.491 Q2240.04 561.491 2238.45 560.812 Q2236.41 561.819 2235.28 563.435 Q2234.16 565.051 2234.16 566.433 Q2234.16 567.628 2234.82 568.494 Q2235.5 569.361 2236.6 569.783 Q2237.72 570.204 2238.82 570.392 Q2239.95 570.556 2241.19 570.556 Q2243.23 570.556 2244.65 570.298 Q2246.11 570.017 2246.9 569.502 Q2247.72 568.986 2248.05 568.635 Q2248.4 568.26 2248.75 567.675 Q2248.96 567.347 2249.24 567.347 Q2249.46 567.347 2249.6 567.487 Q2249.76 567.604 2249.76 567.815 Q2249.76 568.073 2249.43 568.612 Q2249.13 569.15 2248.38 569.876 Q2247.65 570.579 2246.64 571.235 Q2245.66 571.867 2244.09 572.312 Q2242.52 572.757 2240.74 572.757 Q2237.11 572.757 2235 570.977 Q2232.92 569.197 2232.92 566.714 Q2232.92 564.981 2234.07 563.201 Q2235.24 561.397 2237.3 560.25 Q2235.38 558.821 2235.38 556.83 Q2235.38 555.05 2236.88 553.457 Q2238.4 551.864 2240.86 550.928 Q2243.34 549.967 2246.06 549.967 Q2247.58 549.967 2249.08 550.483 Q2250.58 550.974 2251.42 551.607 Q2252.27 552.239 2252.27 552.708 M2245.22 560.039 Q2244.19 559.758 2242.94 559.758 Q2241.26 559.758 2240.02 560.179 Q2241.02 560.437 2242.57 560.437 Q2243.86 560.437 2244.23 560.367 Q2244.63 560.297 2245.22 560.039 Z" fill="#000000" fill-rule="evenodd" fill-opacity="1" /><polyline clip-path="url(#clip760)" style="stroke:#e26f46; stroke-linecap:round; stroke-linejoin:round; stroke-width:4; stroke-opacity:1; fill:none" points="
  2062.17,613.301 2208.53,613.301 
  "/>
<path clip-path="url(#clip760)" d="M2252.73 605.793 Q2252.73 609.728 2251.47 614.155 Q2250.23 618.558 2248.26 622.119 Q2246.29 625.655 2243.72 627.998 Q2241.14 630.316 2238.68 630.316 Q2237.11 630.316 2235.94 629.45 Q2234.79 628.56 2234.16 627.084 Q2233.53 625.585 2233.22 623.945 Q2232.92 622.282 2232.92 620.479 Q2232.92 617.785 2233.5 614.858 Q2234.09 611.906 2235.07 609.236 Q2236.06 606.543 2237.44 604.107 Q2238.82 601.647 2240.34 599.867 Q2241.89 598.064 2243.62 597.01 Q2245.36 595.956 2246.97 595.956 Q2248.14 595.956 2249.08 596.471 Q2250.04 596.963 2250.65 597.829 Q2251.26 598.673 2251.68 599.68 Q2252.13 600.687 2252.34 601.858 Q2252.55 603.006 2252.64 603.966 Q2252.73 604.903 2252.73 605.793 M2249.57 602.818 Q2249.57 601.624 2249.48 600.734 Q2249.39 599.82 2249.13 598.907 Q2248.87 597.993 2248.31 597.502 Q2247.77 597.01 2246.93 597.01 Q2244.47 597.01 2241.7 602.045 Q2240.81 603.615 2240.02 605.746 Q2239.22 607.878 2238.94 608.885 Q2238.66 609.892 2238 612.375 L2248.03 612.375 Q2249.57 605.98 2249.57 602.818 M2247.61 613.897 L2237.63 613.897 Q2236.08 619.753 2236.08 623.407 Q2236.08 626.592 2236.74 627.927 Q2237.42 629.239 2238.68 629.239 Q2240.13 629.239 2241.49 627.787 Q2242.85 626.311 2244.23 623.641 Q2246.06 620.174 2247.61 613.897 Z" fill="#000000" fill-rule="evenodd" fill-opacity="1" /><path clip-path="url(#clip760)" d="
M157.408 1486.45 L2352.76 1486.45 L2352.76 847.244 L157.408 847.244  Z
  " fill="#ffffff" fill-rule="evenodd" fill-opacity="1"/>
<defs>
  <clipPath id="clip764">
    <rect x="157" y="847" width="2196" height="640"/>
  </clipPath>
</defs>
<polyline clip-path="url(#clip764)" style="stroke:#000000; stroke-linecap:round; stroke-linejoin:round; stroke-width:2; stroke-opacity:0.1; fill:none" points="
  655.558,1486.45 655.558,847.244 
  "/>
<polyline clip-path="url(#clip764)" style="stroke:#000000; stroke-linecap:round; stroke-linejoin:round; stroke-width:2; stroke-opacity:0.1; fill:none" points="
  1200.58,1486.45 1200.58,847.244 
  "/>
<polyline clip-path="url(#clip764)" style="stroke:#000000; stroke-linecap:round; stroke-linejoin:round; stroke-width:2; stroke-opacity:0.1; fill:none" points="
  1745.6,1486.45 1745.6,847.244 
  "/>
<polyline clip-path="url(#clip764)" style="stroke:#000000; stroke-linecap:round; stroke-linejoin:round; stroke-width:2; stroke-opacity:0.1; fill:none" points="
  2290.62,1486.45 2290.62,847.244 
  "/>
<polyline clip-path="url(#clip760)" style="stroke:#000000; stroke-linecap:round; stroke-linejoin:round; stroke-width:4; stroke-opacity:1; fill:none" points="
  157.408,1486.45 2352.76,1486.45 
  "/>
<polyline clip-path="url(#clip760)" style="stroke:#000000; stroke-linecap:round; stroke-linejoin:round; stroke-width:4; stroke-opacity:1; fill:none" points="
  655.558,1486.45 655.558,1467.55 
  "/>
<polyline clip-path="url(#clip760)" style="stroke:#000000; stroke-linecap:round; stroke-linejoin:round; stroke-width:4; stroke-opacity:1; fill:none" points="
  1200.58,1486.45 1200.58,1467.55 
  "/>
<polyline clip-path="url(#clip760)" style="stroke:#000000; stroke-linecap:round; stroke-linejoin:round; stroke-width:4; stroke-opacity:1; fill:none" points="
  1745.6,1486.45 1745.6,1467.55 
  "/>
<polyline clip-path="url(#clip760)" style="stroke:#000000; stroke-linecap:round; stroke-linejoin:round; stroke-width:4; stroke-opacity:1; fill:none" points="
  2290.62,1486.45 2290.62,1467.55 
  "/>
<path clip-path="url(#clip760)" d="M645.836 1514.29 L664.192 1514.29 L664.192 1518.22 L650.118 1518.22 L650.118 1526.7 Q651.137 1526.35 652.156 1526.19 Q653.174 1526 654.193 1526 Q659.98 1526 663.359 1529.17 Q666.739 1532.34 666.739 1537.76 Q666.739 1543.34 663.267 1546.44 Q659.794 1549.52 653.475 1549.52 Q651.299 1549.52 649.031 1549.15 Q646.785 1548.78 644.378 1548.04 L644.378 1543.34 Q646.461 1544.47 648.683 1545.03 Q650.906 1545.58 653.382 1545.58 Q657.387 1545.58 659.725 1543.48 Q662.063 1541.37 662.063 1537.76 Q662.063 1534.15 659.725 1532.04 Q657.387 1529.94 653.382 1529.94 Q651.507 1529.94 649.632 1530.35 Q647.781 1530.77 645.836 1531.65 L645.836 1514.29 Z" fill="#000000" fill-rule="evenodd" fill-opacity="1" /><path clip-path="url(#clip760)" d="M1175.27 1544.91 L1182.91 1544.91 L1182.91 1518.55 L1174.6 1520.21 L1174.6 1515.95 L1182.86 1514.29 L1187.54 1514.29 L1187.54 1544.91 L1195.17 1544.91 L1195.17 1548.85 L1175.27 1548.85 L1175.27 1544.91 Z" fill="#000000" fill-rule="evenodd" fill-opacity="1" /><path clip-path="url(#clip760)" d="M1214.62 1517.37 Q1211.01 1517.37 1209.18 1520.93 Q1207.37 1524.47 1207.37 1531.6 Q1207.37 1538.71 1209.18 1542.27 Q1211.01 1545.82 1214.62 1545.82 Q1218.25 1545.82 1220.06 1542.27 Q1221.89 1538.71 1221.89 1531.6 Q1221.89 1524.47 1220.06 1520.93 Q1218.25 1517.37 1214.62 1517.37 M1214.62 1513.66 Q1220.43 1513.66 1223.48 1518.27 Q1226.56 1522.85 1226.56 1531.6 Q1226.56 1540.33 1223.48 1544.94 Q1220.43 1549.52 1214.62 1549.52 Q1208.81 1549.52 1205.73 1544.94 Q1202.67 1540.33 1202.67 1531.6 Q1202.67 1522.85 1205.73 1518.27 Q1208.81 1513.66 1214.62 1513.66 Z" fill="#000000" fill-rule="evenodd" fill-opacity="1" /><path clip-path="url(#clip760)" d="M1720.79 1544.91 L1728.43 1544.91 L1728.43 1518.55 L1720.12 1520.21 L1720.12 1515.95 L1728.38 1514.29 L1733.06 1514.29 L1733.06 1544.91 L1740.69 1544.91 L1740.69 1548.85 L1720.79 1548.85 L1720.79 1544.91 Z" fill="#000000" fill-rule="evenodd" fill-opacity="1" /><path clip-path="url(#clip760)" d="M1750.19 1514.29 L1768.54 1514.29 L1768.54 1518.22 L1754.47 1518.22 L1754.47 1526.7 Q1755.49 1526.35 1756.5 1526.19 Q1757.52 1526 1758.54 1526 Q1764.33 1526 1767.71 1529.17 Q1771.09 1532.34 1771.09 1537.76 Q1771.09 1543.34 1767.62 1546.44 Q1764.14 1549.52 1757.82 1549.52 Q1755.65 1549.52 1753.38 1549.15 Q1751.13 1548.78 1748.73 1548.04 L1748.73 1543.34 Q1750.81 1544.47 1753.03 1545.03 Q1755.25 1545.58 1757.73 1545.58 Q1761.74 1545.58 1764.07 1543.48 Q1766.41 1541.37 1766.41 1537.76 Q1766.41 1534.15 1764.07 1532.04 Q1761.74 1529.94 1757.73 1529.94 Q1755.86 1529.94 1753.98 1530.35 Q1752.13 1530.77 1750.19 1531.65 L1750.19 1514.29 Z" fill="#000000" fill-rule="evenodd" fill-opacity="1" /><path clip-path="url(#clip760)" d="M2269.4 1544.91 L2285.72 1544.91 L2285.72 1548.85 L2263.77 1548.85 L2263.77 1544.91 Q2266.43 1542.16 2271.02 1537.53 Q2275.62 1532.88 2276.8 1531.53 Q2279.05 1529.01 2279.93 1527.27 Q2280.83 1525.51 2280.83 1523.82 Q2280.83 1521.07 2278.89 1519.33 Q2276.97 1517.6 2273.86 1517.6 Q2271.67 1517.6 2269.21 1518.36 Q2266.78 1519.13 2264 1520.68 L2264 1515.95 Q2266.83 1514.82 2269.28 1514.24 Q2271.73 1513.66 2273.77 1513.66 Q2279.14 1513.66 2282.34 1516.35 Q2285.53 1519.03 2285.53 1523.52 Q2285.53 1525.65 2284.72 1527.57 Q2283.93 1529.47 2281.83 1532.07 Q2281.25 1532.74 2278.15 1535.95 Q2275.04 1539.15 2269.4 1544.91 Z" fill="#000000" fill-rule="evenodd" fill-opacity="1" /><path clip-path="url(#clip760)" d="M2305.53 1517.37 Q2301.92 1517.37 2300.09 1520.93 Q2298.29 1524.47 2298.29 1531.6 Q2298.29 1538.71 2300.09 1542.27 Q2301.92 1545.82 2305.53 1545.82 Q2309.16 1545.82 2310.97 1542.27 Q2312.8 1538.71 2312.8 1531.6 Q2312.8 1524.47 2310.97 1520.93 Q2309.16 1517.37 2305.53 1517.37 M2305.53 1513.66 Q2311.34 1513.66 2314.4 1518.27 Q2317.48 1522.85 2317.48 1531.6 Q2317.48 1540.33 2314.4 1544.94 Q2311.34 1549.52 2305.53 1549.52 Q2299.72 1549.52 2296.64 1544.94 Q2293.59 1540.33 2293.59 1531.6 Q2293.59 1522.85 2296.64 1518.27 Q2299.72 1513.66 2305.53 1513.66 Z" fill="#000000" fill-rule="evenodd" fill-opacity="1" /><polyline clip-path="url(#clip764)" style="stroke:#000000; stroke-linecap:round; stroke-linejoin:round; stroke-width:2; stroke-opacity:0.1; fill:none" points="
  157.408,1449.06 2352.76,1449.06 
  "/>
<polyline clip-path="url(#clip764)" style="stroke:#000000; stroke-linecap:round; stroke-linejoin:round; stroke-width:2; stroke-opacity:0.1; fill:none" points="
  157.408,1330.87 2352.76,1330.87 
  "/>
<polyline clip-path="url(#clip764)" style="stroke:#000000; stroke-linecap:round; stroke-linejoin:round; stroke-width:2; stroke-opacity:0.1; fill:none" points="
  157.408,1212.68 2352.76,1212.68 
  "/>
<polyline clip-path="url(#clip764)" style="stroke:#000000; stroke-linecap:round; stroke-linejoin:round; stroke-width:2; stroke-opacity:0.1; fill:none" points="
  157.408,1094.48 2352.76,1094.48 
  "/>
<polyline clip-path="url(#clip764)" style="stroke:#000000; stroke-linecap:round; stroke-linejoin:round; stroke-width:2; stroke-opacity:0.1; fill:none" points="
  157.408,976.291 2352.76,976.291 
  "/>
<polyline clip-path="url(#clip764)" style="stroke:#000000; stroke-linecap:round; stroke-linejoin:round; stroke-width:2; stroke-opacity:0.1; fill:none" points="
  157.408,858.098 2352.76,858.098 
  "/>
<polyline clip-path="url(#clip760)" style="stroke:#000000; stroke-linecap:round; stroke-linejoin:round; stroke-width:4; stroke-opacity:1; fill:none" points="
  157.408,1486.45 157.408,847.244 
  "/>
<polyline clip-path="url(#clip760)" style="stroke:#000000; stroke-linecap:round; stroke-linejoin:round; stroke-width:4; stroke-opacity:1; fill:none" points="
  157.408,1449.06 176.306,1449.06 
  "/>
<polyline clip-path="url(#clip760)" style="stroke:#000000; stroke-linecap:round; stroke-linejoin:round; stroke-width:4; stroke-opacity:1; fill:none" points="
  157.408,1330.87 176.306,1330.87 
  "/>
<polyline clip-path="url(#clip760)" style="stroke:#000000; stroke-linecap:round; stroke-linejoin:round; stroke-width:4; stroke-opacity:1; fill:none" points="
  157.408,1212.68 176.306,1212.68 
  "/>
<polyline clip-path="url(#clip760)" style="stroke:#000000; stroke-linecap:round; stroke-linejoin:round; stroke-width:4; stroke-opacity:1; fill:none" points="
  157.408,1094.48 176.306,1094.48 
  "/>
<polyline clip-path="url(#clip760)" style="stroke:#000000; stroke-linecap:round; stroke-linejoin:round; stroke-width:4; stroke-opacity:1; fill:none" points="
  157.408,976.291 176.306,976.291 
  "/>
<polyline clip-path="url(#clip760)" style="stroke:#000000; stroke-linecap:round; stroke-linejoin:round; stroke-width:4; stroke-opacity:1; fill:none" points="
  157.408,858.098 176.306,858.098 
  "/>
<path clip-path="url(#clip760)" d="M68.6772 1435.85 L56.8717 1454.3 L68.6772 1454.3 L68.6772 1435.85 M67.4504 1431.78 L73.33 1431.78 L73.33 1454.3 L78.2605 1454.3 L78.2605 1458.19 L73.33 1458.19 L73.33 1466.34 L68.6772 1466.34 L68.6772 1458.19 L53.0754 1458.19 L53.0754 1453.68 L67.4504 1431.78 Z" fill="#000000" fill-rule="evenodd" fill-opacity="1" /><path clip-path="url(#clip760)" d="M85.9919 1460.46 L90.8762 1460.46 L90.8762 1466.34 L85.9919 1466.34 L85.9919 1460.46 Z" fill="#000000" fill-rule="evenodd" fill-opacity="1" /><path clip-path="url(#clip760)" d="M105.089 1462.41 L121.408 1462.41 L121.408 1466.34 L99.4641 1466.34 L99.4641 1462.41 Q102.126 1459.65 106.709 1455.02 Q111.316 1450.37 112.496 1449.03 Q114.742 1446.5 115.621 1444.77 Q116.524 1443.01 116.524 1441.32 Q116.524 1438.56 114.58 1436.83 Q112.658 1435.09 109.557 1435.09 Q107.358 1435.09 104.904 1435.85 Q102.473 1436.62 99.6956 1438.17 L99.6956 1433.45 Q102.52 1432.31 104.973 1431.73 Q107.427 1431.16 109.464 1431.16 Q114.834 1431.16 118.029 1433.84 Q121.223 1436.53 121.223 1441.02 Q121.223 1443.15 120.413 1445.07 Q119.626 1446.97 117.52 1449.56 Q116.941 1450.23 113.839 1453.45 Q110.737 1456.64 105.089 1462.41 Z" fill="#000000" fill-rule="evenodd" fill-opacity="1" /><path clip-path="url(#clip760)" d="M67.7281 1317.66 L55.9227 1336.11 L67.7281 1336.11 L67.7281 1317.66 M66.5013 1313.59 L72.3809 1313.59 L72.3809 1336.11 L77.3114 1336.11 L77.3114 1340 L72.3809 1340 L72.3809 1348.15 L67.7281 1348.15 L67.7281 1340 L52.1264 1340 L52.1264 1335.49 L66.5013 1313.59 Z" fill="#000000" fill-rule="evenodd" fill-opacity="1" /><path clip-path="url(#clip760)" d="M85.0429 1342.27 L89.9271 1342.27 L89.9271 1348.15 L85.0429 1348.15 L85.0429 1342.27 Z" fill="#000000" fill-rule="evenodd" fill-opacity="1" /><path clip-path="url(#clip760)" d="M114.279 1329.51 Q117.635 1330.23 119.51 1332.5 Q121.408 1334.77 121.408 1338.1 Q121.408 1343.22 117.89 1346.02 Q114.371 1348.82 107.89 1348.82 Q105.714 1348.82 103.399 1348.38 Q101.108 1347.96 98.6539 1347.11 L98.6539 1342.59 Q100.598 1343.73 102.913 1344.31 Q105.228 1344.88 107.751 1344.88 Q112.149 1344.88 114.441 1343.15 Q116.756 1341.41 116.756 1338.1 Q116.756 1335.05 114.603 1333.33 Q112.473 1331.6 108.654 1331.6 L104.626 1331.6 L104.626 1327.75 L108.839 1327.75 Q112.288 1327.75 114.117 1326.39 Q115.945 1325 115.945 1322.41 Q115.945 1319.75 114.047 1318.33 Q112.172 1316.9 108.654 1316.9 Q106.733 1316.9 104.534 1317.31 Q102.334 1317.73 99.6956 1318.61 L99.6956 1314.44 Q102.358 1313.7 104.672 1313.33 Q107.01 1312.96 109.071 1312.96 Q114.395 1312.96 117.496 1315.39 Q120.598 1317.8 120.598 1321.92 Q120.598 1324.79 118.955 1326.78 Q117.311 1328.75 114.279 1329.51 Z" fill="#000000" fill-rule="evenodd" fill-opacity="1" /><path clip-path="url(#clip760)" d="M66.5939 1199.47 L54.7884 1217.92 L66.5939 1217.92 L66.5939 1199.47 M65.367 1195.4 L71.2466 1195.4 L71.2466 1217.92 L76.1772 1217.92 L76.1772 1221.81 L71.2466 1221.81 L71.2466 1229.96 L66.5939 1229.96 L66.5939 1221.81 L50.9921 1221.81 L50.9921 1217.29 L65.367 1195.4 Z" fill="#000000" fill-rule="evenodd" fill-opacity="1" /><path clip-path="url(#clip760)" d="M83.9086 1224.08 L88.7928 1224.08 L88.7928 1229.96 L83.9086 1229.96 L83.9086 1224.08 Z" fill="#000000" fill-rule="evenodd" fill-opacity="1" /><path clip-path="url(#clip760)" d="M111.825 1199.47 L100.02 1217.92 L111.825 1217.92 L111.825 1199.47 M110.598 1195.4 L116.478 1195.4 L116.478 1217.92 L121.408 1217.92 L121.408 1221.81 L116.478 1221.81 L116.478 1229.96 L111.825 1229.96 L111.825 1221.81 L96.2234 1221.81 L96.2234 1217.29 L110.598 1195.4 Z" fill="#000000" fill-rule="evenodd" fill-opacity="1" /><path clip-path="url(#clip760)" d="M68.0754 1081.28 L56.2699 1099.73 L68.0754 1099.73 L68.0754 1081.28 M66.8485 1077.2 L72.7281 1077.2 L72.7281 1099.73 L77.6586 1099.73 L77.6586 1103.62 L72.7281 1103.62 L72.7281 1111.76 L68.0754 1111.76 L68.0754 1103.62 L52.4736 1103.62 L52.4736 1099.1 L66.8485 1077.2 Z" fill="#000000" fill-rule="evenodd" fill-opacity="1" /><path clip-path="url(#clip760)" d="M85.3901 1105.88 L90.2743 1105.88 L90.2743 1111.76 L85.3901 1111.76 L85.3901 1105.88 Z" fill="#000000" fill-rule="evenodd" fill-opacity="1" /><path clip-path="url(#clip760)" d="M100.506 1077.2 L118.862 1077.2 L118.862 1081.14 L104.788 1081.14 L104.788 1089.61 Q105.807 1089.26 106.825 1089.1 Q107.844 1088.92 108.862 1088.92 Q114.649 1088.92 118.029 1092.09 Q121.408 1095.26 121.408 1100.68 Q121.408 1106.25 117.936 1109.36 Q114.464 1112.43 108.145 1112.43 Q105.969 1112.43 103.7 1112.06 Q101.455 1111.69 99.0474 1110.95 L99.0474 1106.25 Q101.131 1107.39 103.353 1107.94 Q105.575 1108.5 108.052 1108.5 Q112.057 1108.5 114.395 1106.39 Q116.733 1104.29 116.733 1100.68 Q116.733 1097.06 114.395 1094.96 Q112.057 1092.85 108.052 1092.85 Q106.177 1092.85 104.302 1093.27 Q102.45 1093.68 100.506 1094.56 L100.506 1077.2 Z" fill="#000000" fill-rule="evenodd" fill-opacity="1" /><path clip-path="url(#clip760)" d="M66.918 963.085 L55.1125 981.534 L66.918 981.534 L66.918 963.085 M65.6911 959.011 L71.5707 959.011 L71.5707 981.534 L76.5012 981.534 L76.5012 985.423 L71.5707 985.423 L71.5707 993.571 L66.918 993.571 L66.918 985.423 L51.3162 985.423 L51.3162 980.909 L65.6911 959.011 Z" fill="#000000" fill-rule="evenodd" fill-opacity="1" /><path clip-path="url(#clip760)" d="M84.2327 987.691 L89.1169 987.691 L89.1169 993.571 L84.2327 993.571 L84.2327 987.691 Z" fill="#000000" fill-rule="evenodd" fill-opacity="1" /><path clip-path="url(#clip760)" d="M109.881 974.427 Q106.733 974.427 104.881 976.58 Q103.052 978.733 103.052 982.483 Q103.052 986.21 104.881 988.386 Q106.733 990.539 109.881 990.539 Q113.029 990.539 114.858 988.386 Q116.709 986.21 116.709 982.483 Q116.709 978.733 114.858 976.58 Q113.029 974.427 109.881 974.427 M119.163 959.775 L119.163 964.034 Q117.404 963.201 115.598 962.761 Q113.816 962.321 112.057 962.321 Q107.427 962.321 104.973 965.446 Q102.543 968.571 102.196 974.89 Q103.561 972.877 105.621 971.812 Q107.682 970.724 110.158 970.724 Q115.367 970.724 118.376 973.895 Q121.408 977.043 121.408 982.483 Q121.408 987.807 118.26 991.025 Q115.112 994.242 109.881 994.242 Q103.885 994.242 100.714 989.659 Q97.5428 985.052 97.5428 976.326 Q97.5428 968.131 101.432 963.27 Q105.321 958.386 111.871 958.386 Q113.631 958.386 115.413 958.733 Q117.219 959.08 119.163 959.775 Z" fill="#000000" fill-rule="evenodd" fill-opacity="1" /><path clip-path="url(#clip760)" d="M67.9828 844.893 L56.1773 863.342 L67.9828 863.342 L67.9828 844.893 M66.7559 840.818 L72.6355 840.818 L72.6355 863.342 L77.5661 863.342 L77.5661 867.23 L72.6355 867.23 L72.6355 875.378 L67.9828 875.378 L67.9828 867.23 L52.381 867.23 L52.381 862.717 L66.7559 840.818 Z" fill="#000000" fill-rule="evenodd" fill-opacity="1" /><path clip-path="url(#clip760)" d="M85.2975 869.499 L90.1817 869.499 L90.1817 875.378 L85.2975 875.378 L85.2975 869.499 Z" fill="#000000" fill-rule="evenodd" fill-opacity="1" /><path clip-path="url(#clip760)" d="M99.1863 840.818 L121.408 840.818 L121.408 842.809 L108.862 875.378 L103.978 875.378 L115.783 844.754 L99.1863 844.754 L99.1863 840.818 Z" fill="#000000" fill-rule="evenodd" fill-opacity="1" /><polyline clip-path="url(#clip764)" style="stroke:#009af9; stroke-linecap:round; stroke-linejoin:round; stroke-width:4; stroke-opacity:1; fill:none" points="
  219.541,865.335 328.545,865.335 437.55,865.335 546.554,865.335 655.558,865.335 764.563,865.335 873.567,865.335 982.571,865.335 1091.58,865.335 1200.58,865.335 
  1309.58,865.335 1418.59,865.335 1527.59,865.335 1636.6,865.335 1745.6,865.335 1854.61,865.335 1963.61,865.335 2072.61,865.335 2181.62,865.335 2290.62,865.335 
  
  "/>
<polyline clip-path="url(#clip764)" style="stroke:#e26f46; stroke-linecap:round; stroke-linejoin:round; stroke-width:4; stroke-opacity:1; fill:none" points="
  219.541,1468.36 328.545,1468.36 437.55,1468.36 546.554,1468.36 655.558,1468.36 764.563,1468.36 873.567,1468.36 982.571,1468.36 1091.58,1468.36 1200.58,1468.36 
  1309.58,1468.36 1418.59,1468.36 1527.59,1468.36 1636.6,1468.36 1745.6,1468.36 1854.61,1468.36 1963.61,1468.36 2072.61,1468.36 2181.62,1468.36 2290.62,1468.36 
  
  "/>
<path clip-path="url(#clip760)" d="
M2037.78 1465.14 L2279.58 1465.14 L2279.58 1309.62 L2037.78 1309.62  Z
  " fill="#ffffff" fill-rule="evenodd" fill-opacity="1"/>
<polyline clip-path="url(#clip760)" style="stroke:#000000; stroke-linecap:round; stroke-linejoin:round; stroke-width:4; stroke-opacity:1; fill:none" points="
  2037.78,1465.14 2279.58,1465.14 2279.58,1309.62 2037.78,1309.62 2037.78,1465.14 
  "/>
<polyline clip-path="url(#clip760)" style="stroke:#009af9; stroke-linecap:round; stroke-linejoin:round; stroke-width:4; stroke-opacity:1; fill:none" points="
  2062.17,1361.46 2208.53,1361.46 
  "/>
<path clip-path="url(#clip760)" d="M2252.27 1352.71 Q2252.27 1353.2 2251.84 1353.6 Q2251.45 1354 2250.95 1354 Q2250.67 1354 2249.99 1353.53 Q2248.05 1352.17 2245.59 1352.17 Q2243.39 1352.17 2241.35 1352.71 Q2239.31 1353.25 2237.93 1354.35 Q2236.57 1355.42 2236.57 1356.83 Q2236.57 1358.59 2238.49 1359.62 Q2240.48 1358.7 2242.94 1358.7 Q2243.74 1358.7 2244.28 1358.75 Q2244.84 1358.8 2245.38 1358.91 Q2245.92 1359.03 2246.18 1359.31 Q2246.46 1359.57 2246.46 1359.99 Q2246.46 1361.49 2242.57 1361.49 Q2240.04 1361.49 2238.45 1360.81 Q2236.41 1361.82 2235.28 1363.44 Q2234.16 1365.05 2234.16 1366.43 Q2234.16 1367.63 2234.82 1368.49 Q2235.5 1369.36 2236.6 1369.78 Q2237.72 1370.2 2238.82 1370.39 Q2239.95 1370.56 2241.19 1370.56 Q2243.23 1370.56 2244.65 1370.3 Q2246.11 1370.02 2246.9 1369.5 Q2247.72 1368.99 2248.05 1368.63 Q2248.4 1368.26 2248.75 1367.67 Q2248.96 1367.35 2249.24 1367.35 Q2249.46 1367.35 2249.6 1367.49 Q2249.76 1367.6 2249.76 1367.82 Q2249.76 1368.07 2249.43 1368.61 Q2249.13 1369.15 2248.38 1369.88 Q2247.65 1370.58 2246.64 1371.23 Q2245.66 1371.87 2244.09 1372.31 Q2242.52 1372.76 2240.74 1372.76 Q2237.11 1372.76 2235 1370.98 Q2232.92 1369.2 2232.92 1366.71 Q2232.92 1364.98 2234.07 1363.2 Q2235.24 1361.4 2237.3 1360.25 Q2235.38 1358.82 2235.38 1356.83 Q2235.38 1355.05 2236.88 1353.46 Q2238.4 1351.86 2240.86 1350.93 Q2243.34 1349.97 2246.06 1349.97 Q2247.58 1349.97 2249.08 1350.48 Q2250.58 1350.97 2251.42 1351.61 Q2252.27 1352.24 2252.27 1352.71 M2245.22 1360.04 Q2244.19 1359.76 2242.94 1359.76 Q2241.26 1359.76 2240.02 1360.18 Q2241.02 1360.44 2242.57 1360.44 Q2243.86 1360.44 2244.23 1360.37 Q2244.63 1360.3 2245.22 1360.04 Z" fill="#000000" fill-rule="evenodd" fill-opacity="1" /><polyline clip-path="url(#clip760)" style="stroke:#e26f46; stroke-linecap:round; stroke-linejoin:round; stroke-width:4; stroke-opacity:1; fill:none" points="
  2062.17,1413.3 2208.53,1413.3 
  "/>
<path clip-path="url(#clip760)" d="M2252.73 1405.79 Q2252.73 1409.73 2251.47 1414.15 Q2250.23 1418.56 2248.26 1422.12 Q2246.29 1425.66 2243.72 1428 Q2241.14 1430.32 2238.68 1430.32 Q2237.11 1430.32 2235.94 1429.45 Q2234.79 1428.56 2234.16 1427.08 Q2233.53 1425.59 2233.22 1423.95 Q2232.92 1422.28 2232.92 1420.48 Q2232.92 1417.79 2233.5 1414.86 Q2234.09 1411.91 2235.07 1409.24 Q2236.06 1406.54 2237.44 1404.11 Q2238.82 1401.65 2240.34 1399.87 Q2241.89 1398.06 2243.62 1397.01 Q2245.36 1395.96 2246.97 1395.96 Q2248.14 1395.96 2249.08 1396.47 Q2250.04 1396.96 2250.65 1397.83 Q2251.26 1398.67 2251.68 1399.68 Q2252.13 1400.69 2252.34 1401.86 Q2252.55 1403.01 2252.64 1403.97 Q2252.73 1404.9 2252.73 1405.79 M2249.57 1402.82 Q2249.57 1401.62 2249.48 1400.73 Q2249.39 1399.82 2249.13 1398.91 Q2248.87 1397.99 2248.31 1397.5 Q2247.77 1397.01 2246.93 1397.01 Q2244.47 1397.01 2241.7 1402.05 Q2240.81 1403.61 2240.02 1405.75 Q2239.22 1407.88 2238.94 1408.88 Q2238.66 1409.89 2238 1412.37 L2248.03 1412.37 Q2249.57 1405.98 2249.57 1402.82 M2247.61 1413.9 L2237.63 1413.9 Q2236.08 1419.75 2236.08 1423.41 Q2236.08 1426.59 2236.74 1427.93 Q2237.42 1429.24 2238.68 1429.24 Q2240.13 1429.24 2241.49 1427.79 Q2242.85 1426.31 2244.23 1423.64 Q2246.06 1420.17 2247.61 1413.9 Z" fill="#000000" fill-rule="evenodd" fill-opacity="1" /></svg>
