<?xml version="1.0" encoding="utf-8"?>
<svg xmlns="http://www.w3.org/2000/svg" xmlns:xlink="http://www.w3.org/1999/xlink" width="600" height="400" viewBox="0 0 2400 1600">
<defs>
  <clipPath id="clip680">
    <rect x="0" y="0" width="2400" height="1600"/>
  </clipPath>
</defs>
<path clip-path="url(#clip680)" d="
M0 1600 L2400 1600 L2400 0 L0 0  Z
  " fill="#ffffff" fill-rule="evenodd" fill-opacity="1"/>
<defs>
  <clipPath id="clip681">
    <rect x="480" y="0" width="1681" height="1600"/>
  </clipPath>
</defs>
<path clip-path="url(#clip680)" d="
M216.436 1486.45 L2352.76 1486.45 L2352.76 47.2441 L216.436 47.2441  Z
  " fill="#ffffff" fill-rule="evenodd" fill-opacity="1"/>
<defs>
  <clipPath id="clip682">
    <rect x="216" y="47" width="2137" height="1440"/>
  </clipPath>
</defs>
<polyline clip-path="url(#clip682)" style="stroke:#000000; stroke-linecap:round; stroke-linejoin:round; stroke-width:2; stroke-opacity:0.1; fill:none" points="
  276.898,1486.45 276.898,47.2441 
  "/>
<polyline clip-path="url(#clip682)" style="stroke:#000000; stroke-linecap:round; stroke-linejoin:round; stroke-width:2; stroke-opacity:0.1; fill:none" points="
  679.977,1486.45 679.977,47.2441 
  "/>
<polyline clip-path="url(#clip682)" style="stroke:#000000; stroke-linecap:round; stroke-linejoin:round; stroke-width:2; stroke-opacity:0.1; fill:none" points="
  1083.06,1486.45 1083.06,47.2441 
  "/>
<polyline clip-path="url(#clip682)" style="stroke:#000000; stroke-linecap:round; stroke-linejoin:round; stroke-width:2; stroke-opacity:0.1; fill:none" points="
  1486.14,1486.45 1486.14,47.2441 
  "/>
<polyline clip-path="url(#clip682)" style="stroke:#000000; stroke-linecap:round; stroke-linejoin:round; stroke-width:2; stroke-opacity:0.1; fill:none" points="
  1889.21,1486.45 1889.21,47.2441 
  "/>
<polyline clip-path="url(#clip682)" style="stroke:#000000; stroke-linecap:round; stroke-linejoin:round; stroke-width:2; stroke-opacity:0.1; fill:none" points="
  2292.29,1486.45 2292.29,47.2441 
  "/>
<polyline clip-path="url(#clip680)" style="stroke:#000000; stroke-linecap:round; stroke-linejoin:round; stroke-width:4; stroke-opacity:1; fill:none" points="
  216.436,1486.45 2352.76,1486.45 
  "/>
<polyline clip-path="url(#clip680)" style="stroke:#000000; stroke-linecap:round; stroke-linejoin:round; stroke-width:4; stroke-opacity:1; fill:none" points="
  276.898,1486.45 276.898,1467.55 
  "/>
<polyline clip-path="url(#clip680)" style="stroke:#000000; stroke-linecap:round; stroke-linejoin:round; stroke-width:4; stroke-opacity:1; fill:none" points="
  679.977,1486.45 679.977,1467.55 
  "/>
<polyline clip-path="url(#clip680)" style="stroke:#000000; stroke-linecap:round; stroke-linejoin:round; stroke-width:4; stroke-opacity:1; fill:none" points="
  1083.06,1486.45 1083.06,1467.55 
  "/>
<polyline clip-path="url(#clip680)" style="stroke:#000000; stroke-linecap:round; stroke-linejoin:round; stroke-width:4; stroke-opacity:1; fill:none" points="
  1486.14,1486.45 1486.14,1467.55 
  "/>
<polyline clip-path="url(#clip680)" style="stroke:#000000; stroke-linecap:round; stroke-linejoin:round; stroke-width:4; stroke-opacity:1; fill:none" points="
  1889.21,1486.45 1889.21,1467.55 
  "/>
<polyline clip-path="url(#clip680)" style="stroke:#000000; stroke-linecap:round; stroke-linejoin:round; stroke-width:4; stroke-opacity:1; fill:none" points="
  2292.29,1486.45 2292.29,1467.55 
  "/>
<path clip-path="url(#clip680)" d="M276.898 1517.37 Q273.287 1517.37 271.458 1520.93 Q269.652 1524.47 269.652 1531.6 Q269.652 1538.71 271.458 1542.27 Q273.287 1545.82 276.898 1545.82 Q280.532 1545.82 282.338 1542.27 Q284.166 1538.71 284.166 1531.6 Q284.166 1524.47 282.338 1520.93 Q280.532 1517.37 276.898 1517.37 M276.898 1513.66 Q282.708 1513.66 285.763 1518.27 Q288.842 1522.85 288.842 1531.6 Q288.842 1540.33 285.763 1544.94 Q282.708 1549.52 276.898 1549.52 Q271.088 1549.52 268.009 1544.94 Q264.953 1540.33 264.953 1531.6 Q264.953 1522.85 268.009 1518.27 Q271.088 1513.66 276.898 1513.66 Z" fill="#000000" fill-rule="evenodd" fill-opacity="1" /><path clip-path="url(#clip680)" d="M654.665 1544.91 L662.303 1544.91 L662.303 1518.55 L653.993 1520.21 L653.993 1515.95 L662.257 1514.29 L666.933 1514.29 L666.933 1544.91 L674.572 1544.91 L674.572 1548.85 L654.665 1548.85 L654.665 1544.91 Z" fill="#000000" fill-rule="evenodd" fill-opacity="1" /><path clip-path="url(#clip680)" d="M694.016 1517.37 Q690.405 1517.37 688.577 1520.93 Q686.771 1524.47 686.771 1531.6 Q686.771 1538.71 688.577 1542.27 Q690.405 1545.82 694.016 1545.82 Q697.651 1545.82 699.456 1542.27 Q701.285 1538.71 701.285 1531.6 Q701.285 1524.47 699.456 1520.93 Q697.651 1517.37 694.016 1517.37 M694.016 1513.66 Q699.826 1513.66 702.882 1518.27 Q705.961 1522.85 705.961 1531.6 Q705.961 1540.33 702.882 1544.94 Q699.826 1549.52 694.016 1549.52 Q688.206 1549.52 685.127 1544.94 Q682.072 1540.33 682.072 1531.6 Q682.072 1522.85 685.127 1518.27 Q688.206 1513.66 694.016 1513.66 Z" fill="#000000" fill-rule="evenodd" fill-opacity="1" /><path clip-path="url(#clip680)" d="M1061.83 1544.91 L1078.15 1544.91 L1078.15 1548.85 L1056.2 1548.85 L1056.2 1544.91 Q1058.87 1542.16 1063.45 1537.53 Q1068.06 1532.88 1069.24 1531.53 Q1071.48 1529.01 1072.36 1527.27 Q1073.26 1525.51 1073.26 1523.82 Q1073.26 1521.07 1071.32 1519.33 Q1069.4 1517.6 1066.3 1517.6 Q1064.1 1517.6 1061.64 1518.36 Q1059.21 1519.13 1056.44 1520.68 L1056.44 1515.95 Q1059.26 1514.82 1061.71 1514.24 Q1064.17 1513.66 1066.2 1513.66 Q1071.57 1513.66 1074.77 1516.35 Q1077.96 1519.03 1077.96 1523.52 Q1077.96 1525.65 1077.15 1527.57 Q1076.37 1529.47 1074.26 1532.07 Q1073.68 1532.74 1070.58 1535.95 Q1067.48 1539.15 1061.83 1544.91 Z" fill="#000000" fill-rule="evenodd" fill-opacity="1" /><path clip-path="url(#clip680)" d="M1097.96 1517.37 Q1094.35 1517.37 1092.52 1520.93 Q1090.72 1524.47 1090.72 1531.6 Q1090.72 1538.71 1092.52 1542.27 Q1094.35 1545.82 1097.96 1545.82 Q1101.6 1545.82 1103.4 1542.27 Q1105.23 1538.71 1105.23 1531.6 Q1105.23 1524.47 1103.4 1520.93 Q1101.6 1517.37 1097.96 1517.37 M1097.96 1513.66 Q1103.77 1513.66 1106.83 1518.27 Q1109.91 1522.85 1109.91 1531.6 Q1109.91 1540.33 1106.83 1544.94 Q1103.77 1549.52 1097.96 1549.52 Q1092.15 1549.52 1089.07 1544.94 Q1086.02 1540.33 1086.02 1531.6 Q1086.02 1522.85 1089.07 1518.27 Q1092.15 1513.66 1097.96 1513.66 Z" fill="#000000" fill-rule="evenodd" fill-opacity="1" /><path clip-path="url(#clip680)" d="M1474.98 1530.21 Q1478.33 1530.93 1480.21 1533.2 Q1482.11 1535.47 1482.11 1538.8 Q1482.11 1543.92 1478.59 1546.72 Q1475.07 1549.52 1468.59 1549.52 Q1466.41 1549.52 1464.1 1549.08 Q1461.81 1548.66 1459.35 1547.81 L1459.35 1543.29 Q1461.3 1544.43 1463.61 1545.01 Q1465.93 1545.58 1468.45 1545.58 Q1472.85 1545.58 1475.14 1543.85 Q1477.46 1542.11 1477.46 1538.8 Q1477.46 1535.75 1475.3 1534.03 Q1473.17 1532.3 1469.35 1532.3 L1465.33 1532.3 L1465.33 1528.45 L1469.54 1528.45 Q1472.99 1528.45 1474.82 1527.09 Q1476.64 1525.7 1476.64 1523.11 Q1476.64 1520.45 1474.75 1519.03 Q1472.87 1517.6 1469.35 1517.6 Q1467.43 1517.6 1465.23 1518.01 Q1463.03 1518.43 1460.39 1519.31 L1460.39 1515.14 Q1463.06 1514.4 1465.37 1514.03 Q1467.71 1513.66 1469.77 1513.66 Q1475.09 1513.66 1478.2 1516.09 Q1481.3 1518.5 1481.3 1522.62 Q1481.3 1525.49 1479.65 1527.48 Q1478.01 1529.45 1474.98 1530.21 Z" fill="#000000" fill-rule="evenodd" fill-opacity="1" /><path clip-path="url(#clip680)" d="M1500.97 1517.37 Q1497.36 1517.37 1495.53 1520.93 Q1493.73 1524.47 1493.73 1531.6 Q1493.73 1538.71 1495.53 1542.27 Q1497.36 1545.82 1500.97 1545.82 Q1504.61 1545.82 1506.41 1542.27 Q1508.24 1538.71 1508.24 1531.6 Q1508.24 1524.47 1506.41 1520.93 Q1504.61 1517.37 1500.97 1517.37 M1500.97 1513.66 Q1506.78 1513.66 1509.84 1518.27 Q1512.92 1522.85 1512.92 1531.6 Q1512.92 1540.33 1509.84 1544.94 Q1506.78 1549.52 1500.97 1549.52 Q1495.16 1549.52 1492.08 1544.94 Q1489.03 1540.33 1489.03 1531.6 Q1489.03 1522.85 1492.08 1518.27 Q1495.16 1513.66 1500.97 1513.66 Z" fill="#000000" fill-rule="evenodd" fill-opacity="1" /><path clip-path="url(#clip680)" d="M1877.39 1518.36 L1865.58 1536.81 L1877.39 1536.81 L1877.39 1518.36 M1876.16 1514.29 L1882.04 1514.29 L1882.04 1536.81 L1886.97 1536.81 L1886.97 1540.7 L1882.04 1540.7 L1882.04 1548.85 L1877.39 1548.85 L1877.39 1540.7 L1861.78 1540.7 L1861.78 1536.19 L1876.16 1514.29 Z" fill="#000000" fill-rule="evenodd" fill-opacity="1" /><path clip-path="url(#clip680)" d="M1904.7 1517.37 Q1901.09 1517.37 1899.26 1520.93 Q1897.46 1524.47 1897.46 1531.6 Q1897.46 1538.71 1899.26 1542.27 Q1901.09 1545.82 1904.7 1545.82 Q1908.34 1545.82 1910.14 1542.27 Q1911.97 1538.71 1911.97 1531.6 Q1911.97 1524.47 1910.14 1520.93 Q1908.34 1517.37 1904.7 1517.37 M1904.7 1513.66 Q1910.51 1513.66 1913.57 1518.27 Q1916.65 1522.85 1916.65 1531.6 Q1916.65 1540.33 1913.57 1544.94 Q1910.51 1549.52 1904.7 1549.52 Q1898.89 1549.52 1895.81 1544.94 Q1892.76 1540.33 1892.76 1531.6 Q1892.76 1522.85 1895.81 1518.27 Q1898.89 1513.66 1904.7 1513.66 Z" fill="#000000" fill-rule="evenodd" fill-opacity="1" /><path clip-path="url(#clip680)" d="M2266.99 1514.29 L2285.35 1514.29 L2285.35 1518.22 L2271.28 1518.22 L2271.28 1526.7 Q2272.29 1526.35 2273.31 1526.19 Q2274.33 1526 2275.35 1526 Q2281.14 1526 2284.52 1529.17 Q2287.9 1532.34 2287.9 1537.76 Q2287.9 1543.34 2284.42 1546.44 Q2280.95 1549.52 2274.63 1549.52 Q2272.46 1549.52 2270.19 1549.15 Q2267.94 1548.78 2265.53 1548.04 L2265.53 1543.34 Q2267.62 1544.47 2269.84 1545.03 Q2272.06 1545.58 2274.54 1545.58 Q2278.54 1545.58 2280.88 1543.48 Q2283.22 1541.37 2283.22 1537.76 Q2283.22 1534.15 2280.88 1532.04 Q2278.54 1529.94 2274.54 1529.94 Q2272.66 1529.94 2270.79 1530.35 Q2268.94 1530.77 2266.99 1531.65 L2266.99 1514.29 Z" fill="#000000" fill-rule="evenodd" fill-opacity="1" /><path clip-path="url(#clip680)" d="M2307.11 1517.37 Q2303.5 1517.37 2301.67 1520.93 Q2299.86 1524.47 2299.86 1531.6 Q2299.86 1538.71 2301.67 1542.27 Q2303.5 1545.82 2307.11 1545.82 Q2310.74 1545.82 2312.55 1542.27 Q2314.38 1538.71 2314.38 1531.6 Q2314.38 1524.47 2312.55 1520.93 Q2310.74 1517.37 2307.11 1517.37 M2307.11 1513.66 Q2312.92 1513.66 2315.97 1518.27 Q2319.05 1522.85 2319.05 1531.6 Q2319.05 1540.33 2315.97 1544.94 Q2312.92 1549.52 2307.11 1549.52 Q2301.3 1549.52 2298.22 1544.94 Q2295.16 1540.33 2295.16 1531.6 Q2295.16 1522.85 2298.22 1518.27 Q2301.3 1513.66 2307.11 1513.66 Z" fill="#000000" fill-rule="evenodd" fill-opacity="1" /><polyline clip-path="url(#clip682)" style="stroke:#000000; stroke-linecap:round; stroke-linejoin:round; stroke-width:2; stroke-opacity:0.1; fill:none" points="
  216.436,1445.72 2352.76,1445.72 
  "/>
<polyline clip-path="url(#clip682)" style="stroke:#000000; stroke-linecap:round; stroke-linejoin:round; stroke-width:2; stroke-opacity:0.1; fill:none" points="
  216.436,1107.62 2352.76,1107.62 
  "/>
<polyline clip-path="url(#clip682)" style="stroke:#000000; stroke-linecap:round; stroke-linejoin:round; stroke-width:2; stroke-opacity:0.1; fill:none" points="
  216.436,769.53 2352.76,769.53 
  "/>
<polyline clip-path="url(#clip682)" style="stroke:#000000; stroke-linecap:round; stroke-linejoin:round; stroke-width:2; stroke-opacity:0.1; fill:none" points="
  216.436,431.436 2352.76,431.436 
  "/>
<polyline clip-path="url(#clip682)" style="stroke:#000000; stroke-linecap:round; stroke-linejoin:round; stroke-width:2; stroke-opacity:0.1; fill:none" points="
  216.436,93.3434 2352.76,93.3434 
  "/>
<polyline clip-path="url(#clip680)" style="stroke:#000000; stroke-linecap:round; stroke-linejoin:round; stroke-width:4; stroke-opacity:1; fill:none" points="
  216.436,1486.45 216.436,47.2441 
  "/>
<polyline clip-path="url(#clip680)" style="stroke:#000000; stroke-linecap:round; stroke-linejoin:round; stroke-width:4; stroke-opacity:1; fill:none" points="
  216.436,1445.72 235.334,1445.72 
  "/>
<polyline clip-path="url(#clip680)" style="stroke:#000000; stroke-linecap:round; stroke-linejoin:round; stroke-width:4; stroke-opacity:1; fill:none" points="
  216.436,1107.62 235.334,1107.62 
  "/>
<polyline clip-path="url(#clip680)" style="stroke:#000000; stroke-linecap:round; stroke-linejoin:round; stroke-width:4; stroke-opacity:1; fill:none" points="
  216.436,769.53 235.334,769.53 
  "/>
<polyline clip-path="url(#clip680)" style="stroke:#000000; stroke-linecap:round; stroke-linejoin:round; stroke-width:4; stroke-opacity:1; fill:none" points="
  216.436,431.436 235.334,431.436 
  "/>
<polyline clip-path="url(#clip680)" style="stroke:#000000; stroke-linecap:round; stroke-linejoin:round; stroke-width:4; stroke-opacity:1; fill:none" points="
  216.436,93.3434 235.334,93.3434 
  "/>
<path clip-path="url(#clip680)" d="M62.9365 1431.51 Q59.3254 1431.51 57.4967 1435.08 Q55.6912 1438.62 55.6912 1445.75 Q55.6912 1452.86 57.4967 1456.42 Q59.3254 1459.96 62.9365 1459.96 Q66.5707 1459.96 68.3763 1456.42 Q70.205 1452.86 70.205 1445.75 Q70.205 1438.62 68.3763 1435.08 Q66.5707 1431.51 62.9365 1431.51 M62.9365 1427.81 Q68.7467 1427.81 71.8022 1432.42 Q74.8809 1437 74.8809 1445.75 Q74.8809 1454.48 71.8022 1459.08 Q68.7467 1463.67 62.9365 1463.67 Q57.1264 1463.67 54.0477 1459.08 Q50.9921 1454.48 50.9921 1445.75 Q50.9921 1437 54.0477 1432.42 Q57.1264 1427.81 62.9365 1427.81 Z" fill="#000000" fill-rule="evenodd" fill-opacity="1" /><path clip-path="url(#clip680)" d="M83.0984 1457.12 L87.9827 1457.12 L87.9827 1463 L83.0984 1463 L83.0984 1457.12 Z" fill="#000000" fill-rule="evenodd" fill-opacity="1" /><path clip-path="url(#clip680)" d="M108.168 1431.51 Q104.557 1431.51 102.728 1435.08 Q100.922 1438.62 100.922 1445.75 Q100.922 1452.86 102.728 1456.42 Q104.557 1459.96 108.168 1459.96 Q111.802 1459.96 113.608 1456.42 Q115.436 1452.86 115.436 1445.75 Q115.436 1438.62 113.608 1435.08 Q111.802 1431.51 108.168 1431.51 M108.168 1427.81 Q113.978 1427.81 117.033 1432.42 Q120.112 1437 120.112 1445.75 Q120.112 1454.48 117.033 1459.08 Q113.978 1463.67 108.168 1463.67 Q102.358 1463.67 99.2789 1459.08 Q96.2234 1454.48 96.2234 1445.75 Q96.2234 1437 99.2789 1432.42 Q102.358 1427.81 108.168 1427.81 Z" fill="#000000" fill-rule="evenodd" fill-opacity="1" /><path clip-path="url(#clip680)" d="M138.33 1431.51 Q134.719 1431.51 132.89 1435.08 Q131.084 1438.62 131.084 1445.75 Q131.084 1452.86 132.89 1456.42 Q134.719 1459.96 138.33 1459.96 Q141.964 1459.96 143.769 1456.42 Q145.598 1452.86 145.598 1445.75 Q145.598 1438.62 143.769 1435.08 Q141.964 1431.51 138.33 1431.51 M138.33 1427.81 Q144.14 1427.81 147.195 1432.42 Q150.274 1437 150.274 1445.75 Q150.274 1454.48 147.195 1459.08 Q144.14 1463.67 138.33 1463.67 Q132.519 1463.67 129.441 1459.08 Q126.385 1454.48 126.385 1445.75 Q126.385 1437 129.441 1432.42 Q132.519 1427.81 138.33 1427.81 Z" fill="#000000" fill-rule="evenodd" fill-opacity="1" /><path clip-path="url(#clip680)" d="M168.491 1431.51 Q164.88 1431.51 163.052 1435.08 Q161.246 1438.62 161.246 1445.75 Q161.246 1452.86 163.052 1456.42 Q164.88 1459.96 168.491 1459.96 Q172.126 1459.96 173.931 1456.42 Q175.76 1452.86 175.76 1445.75 Q175.76 1438.62 173.931 1435.08 Q172.126 1431.51 168.491 1431.51 M168.491 1427.81 Q174.302 1427.81 177.357 1432.42 Q180.436 1437 180.436 1445.75 Q180.436 1454.48 177.357 1459.08 Q174.302 1463.67 168.491 1463.67 Q162.681 1463.67 159.603 1459.08 Q156.547 1454.48 156.547 1445.75 Q156.547 1437 159.603 1432.42 Q162.681 1427.81 168.491 1427.81 Z" fill="#000000" fill-rule="evenodd" fill-opacity="1" /><path clip-path="url(#clip680)" d="M63.9319 1093.42 Q60.3208 1093.42 58.4921 1096.99 Q56.6865 1100.53 56.6865 1107.66 Q56.6865 1114.76 58.4921 1118.33 Q60.3208 1121.87 63.9319 1121.87 Q67.5661 1121.87 69.3717 1118.33 Q71.2004 1114.76 71.2004 1107.66 Q71.2004 1100.53 69.3717 1096.99 Q67.5661 1093.42 63.9319 1093.42 M63.9319 1089.72 Q69.742 1089.72 72.7976 1094.32 Q75.8763 1098.91 75.8763 1107.66 Q75.8763 1116.38 72.7976 1120.99 Q69.742 1125.57 63.9319 1125.57 Q58.1217 1125.57 55.043 1120.99 Q51.9875 1116.38 51.9875 1107.66 Q51.9875 1098.91 55.043 1094.32 Q58.1217 1089.72 63.9319 1089.72 Z" fill="#000000" fill-rule="evenodd" fill-opacity="1" /><path clip-path="url(#clip680)" d="M84.0938 1119.02 L88.978 1119.02 L88.978 1124.9 L84.0938 1124.9 L84.0938 1119.02 Z" fill="#000000" fill-rule="evenodd" fill-opacity="1" /><path clip-path="url(#clip680)" d="M109.163 1093.42 Q105.552 1093.42 103.723 1096.99 Q101.918 1100.53 101.918 1107.66 Q101.918 1114.76 103.723 1118.33 Q105.552 1121.87 109.163 1121.87 Q112.797 1121.87 114.603 1118.33 Q116.432 1114.76 116.432 1107.66 Q116.432 1100.53 114.603 1096.99 Q112.797 1093.42 109.163 1093.42 M109.163 1089.72 Q114.973 1089.72 118.029 1094.32 Q121.107 1098.91 121.107 1107.66 Q121.107 1116.38 118.029 1120.99 Q114.973 1125.57 109.163 1125.57 Q103.353 1125.57 100.274 1120.99 Q97.2187 1116.38 97.2187 1107.66 Q97.2187 1098.91 100.274 1094.32 Q103.353 1089.72 109.163 1089.72 Z" fill="#000000" fill-rule="evenodd" fill-opacity="1" /><path clip-path="url(#clip680)" d="M133.353 1120.97 L149.672 1120.97 L149.672 1124.9 L127.728 1124.9 L127.728 1120.97 Q130.39 1118.21 134.973 1113.58 Q139.58 1108.93 140.76 1107.59 Q143.006 1105.06 143.885 1103.33 Q144.788 1101.57 144.788 1099.88 Q144.788 1097.12 142.843 1095.39 Q140.922 1093.65 137.82 1093.65 Q135.621 1093.65 133.168 1094.42 Q130.737 1095.18 127.959 1096.73 L127.959 1092.01 Q130.783 1090.88 133.237 1090.3 Q135.691 1089.72 137.728 1089.72 Q143.098 1089.72 146.293 1092.4 Q149.487 1095.09 149.487 1099.58 Q149.487 1101.71 148.677 1103.63 Q147.89 1105.53 145.783 1108.12 Q145.205 1108.79 142.103 1112.01 Q139.001 1115.2 133.353 1120.97 Z" fill="#000000" fill-rule="evenodd" fill-opacity="1" /><path clip-path="url(#clip680)" d="M159.533 1090.34 L177.89 1090.34 L177.89 1094.28 L163.816 1094.28 L163.816 1102.75 Q164.834 1102.4 165.853 1102.24 Q166.871 1102.06 167.89 1102.06 Q173.677 1102.06 177.056 1105.23 Q180.436 1108.4 180.436 1113.81 Q180.436 1119.39 176.964 1122.5 Q173.491 1125.57 167.172 1125.57 Q164.996 1125.57 162.728 1125.2 Q160.482 1124.83 158.075 1124.09 L158.075 1119.39 Q160.158 1120.53 162.38 1121.08 Q164.603 1121.64 167.079 1121.64 Q171.084 1121.64 173.422 1119.53 Q175.76 1117.43 175.76 1113.81 Q175.76 1110.2 173.422 1108.1 Q171.084 1105.99 167.079 1105.99 Q165.204 1105.99 163.329 1106.41 Q161.478 1106.82 159.533 1107.7 L159.533 1090.34 Z" fill="#000000" fill-rule="evenodd" fill-opacity="1" /><path clip-path="url(#clip680)" d="M62.9365 755.328 Q59.3254 755.328 57.4967 758.893 Q55.6912 762.435 55.6912 769.564 Q55.6912 776.671 57.4967 780.235 Q59.3254 783.777 62.9365 783.777 Q66.5707 783.777 68.3763 780.235 Q70.205 776.671 70.205 769.564 Q70.205 762.435 68.3763 758.893 Q66.5707 755.328 62.9365 755.328 M62.9365 751.625 Q68.7467 751.625 71.8022 756.231 Q74.8809 760.814 74.8809 769.564 Q74.8809 778.291 71.8022 782.898 Q68.7467 787.481 62.9365 787.481 Q57.1264 787.481 54.0477 782.898 Q50.9921 778.291 50.9921 769.564 Q50.9921 760.814 54.0477 756.231 Q57.1264 751.625 62.9365 751.625 Z" fill="#000000" fill-rule="evenodd" fill-opacity="1" /><path clip-path="url(#clip680)" d="M83.0984 780.93 L87.9827 780.93 L87.9827 786.81 L83.0984 786.81 L83.0984 780.93 Z" fill="#000000" fill-rule="evenodd" fill-opacity="1" /><path clip-path="url(#clip680)" d="M108.168 755.328 Q104.557 755.328 102.728 758.893 Q100.922 762.435 100.922 769.564 Q100.922 776.671 102.728 780.235 Q104.557 783.777 108.168 783.777 Q111.802 783.777 113.608 780.235 Q115.436 776.671 115.436 769.564 Q115.436 762.435 113.608 758.893 Q111.802 755.328 108.168 755.328 M108.168 751.625 Q113.978 751.625 117.033 756.231 Q120.112 760.814 120.112 769.564 Q120.112 778.291 117.033 782.898 Q113.978 787.481 108.168 787.481 Q102.358 787.481 99.2789 782.898 Q96.2234 778.291 96.2234 769.564 Q96.2234 760.814 99.2789 756.231 Q102.358 751.625 108.168 751.625 Z" fill="#000000" fill-rule="evenodd" fill-opacity="1" /><path clip-path="url(#clip680)" d="M128.376 752.25 L146.732 752.25 L146.732 756.185 L132.658 756.185 L132.658 764.657 Q133.677 764.31 134.695 764.148 Q135.714 763.962 136.732 763.962 Q142.519 763.962 145.899 767.134 Q149.279 770.305 149.279 775.722 Q149.279 781.3 145.806 784.402 Q142.334 787.481 136.015 787.481 Q133.839 787.481 131.57 787.11 Q129.325 786.74 126.918 785.999 L126.918 781.3 Q129.001 782.435 131.223 782.99 Q133.445 783.546 135.922 783.546 Q139.927 783.546 142.265 781.439 Q144.603 779.333 144.603 775.722 Q144.603 772.111 142.265 770.004 Q139.927 767.898 135.922 767.898 Q134.047 767.898 132.172 768.314 Q130.32 768.731 128.376 769.611 L128.376 752.25 Z" fill="#000000" fill-rule="evenodd" fill-opacity="1" /><path clip-path="url(#clip680)" d="M168.491 755.328 Q164.88 755.328 163.052 758.893 Q161.246 762.435 161.246 769.564 Q161.246 776.671 163.052 780.235 Q164.88 783.777 168.491 783.777 Q172.126 783.777 173.931 780.235 Q175.76 776.671 175.76 769.564 Q175.76 762.435 173.931 758.893 Q172.126 755.328 168.491 755.328 M168.491 751.625 Q174.302 751.625 177.357 756.231 Q180.436 760.814 180.436 769.564 Q180.436 778.291 177.357 782.898 Q174.302 787.481 168.491 787.481 Q162.681 787.481 159.603 782.898 Q156.547 778.291 156.547 769.564 Q156.547 760.814 159.603 756.231 Q162.681 751.625 168.491 751.625 Z" fill="#000000" fill-rule="evenodd" fill-opacity="1" /><path clip-path="url(#clip680)" d="M63.9319 417.235 Q60.3208 417.235 58.4921 420.8 Q56.6865 424.342 56.6865 431.471 Q56.6865 438.578 58.4921 442.142 Q60.3208 445.684 63.9319 445.684 Q67.5661 445.684 69.3717 442.142 Q71.2004 438.578 71.2004 431.471 Q71.2004 424.342 69.3717 420.8 Q67.5661 417.235 63.9319 417.235 M63.9319 413.531 Q69.742 413.531 72.7976 418.138 Q75.8763 422.721 75.8763 431.471 Q75.8763 440.198 72.7976 444.804 Q69.742 449.388 63.9319 449.388 Q58.1217 449.388 55.043 444.804 Q51.9875 440.198 51.9875 431.471 Q51.9875 422.721 55.043 418.138 Q58.1217 413.531 63.9319 413.531 Z" fill="#000000" fill-rule="evenodd" fill-opacity="1" /><path clip-path="url(#clip680)" d="M84.0938 442.837 L88.978 442.837 L88.978 448.716 L84.0938 448.716 L84.0938 442.837 Z" fill="#000000" fill-rule="evenodd" fill-opacity="1" /><path clip-path="url(#clip680)" d="M109.163 417.235 Q105.552 417.235 103.723 420.8 Q101.918 424.342 101.918 431.471 Q101.918 438.578 103.723 442.142 Q105.552 445.684 109.163 445.684 Q112.797 445.684 114.603 442.142 Q116.432 438.578 116.432 431.471 Q116.432 424.342 114.603 420.8 Q112.797 417.235 109.163 417.235 M109.163 413.531 Q114.973 413.531 118.029 418.138 Q121.107 422.721 121.107 431.471 Q121.107 440.198 118.029 444.804 Q114.973 449.388 109.163 449.388 Q103.353 449.388 100.274 444.804 Q97.2187 440.198 97.2187 431.471 Q97.2187 422.721 100.274 418.138 Q103.353 413.531 109.163 413.531 Z" fill="#000000" fill-rule="evenodd" fill-opacity="1" /><path clip-path="url(#clip680)" d="M128.144 414.156 L150.367 414.156 L150.367 416.147 L137.82 448.716 L132.936 448.716 L144.742 418.092 L128.144 418.092 L128.144 414.156 Z" fill="#000000" fill-rule="evenodd" fill-opacity="1" /><path clip-path="url(#clip680)" d="M159.533 414.156 L177.89 414.156 L177.89 418.092 L163.816 418.092 L163.816 426.564 Q164.834 426.217 165.853 426.055 Q166.871 425.869 167.89 425.869 Q173.677 425.869 177.056 429.041 Q180.436 432.212 180.436 437.629 Q180.436 443.207 176.964 446.309 Q173.491 449.388 167.172 449.388 Q164.996 449.388 162.728 449.017 Q160.482 448.647 158.075 447.906 L158.075 443.207 Q160.158 444.341 162.38 444.897 Q164.603 445.453 167.079 445.453 Q171.084 445.453 173.422 443.346 Q175.76 441.24 175.76 437.629 Q175.76 434.017 173.422 431.911 Q171.084 429.805 167.079 429.805 Q165.204 429.805 163.329 430.221 Q161.478 430.638 159.533 431.517 L159.533 414.156 Z" fill="#000000" fill-rule="evenodd" fill-opacity="1" /><path clip-path="url(#clip680)" d="M62.9365 79.1421 Q59.3254 79.1421 57.4967 82.7069 Q55.6912 86.2485 55.6912 93.3781 Q55.6912 100.485 57.4967 104.049 Q59.3254 107.591 62.9365 107.591 Q66.5707 107.591 68.3763 104.049 Q70.205 100.485 70.205 93.3781 Q70.205 86.2485 68.3763 82.7069 Q66.5707 79.1421 62.9365 79.1421 M62.9365 75.4384 Q68.7467 75.4384 71.8022 80.0448 Q74.8809 84.6281 74.8809 93.3781 Q74.8809 102.105 71.8022 106.711 Q68.7467 111.295 62.9365 111.295 Q57.1264 111.295 54.0477 106.711 Q50.9921 102.105 50.9921 93.3781 Q50.9921 84.6281 54.0477 80.0448 Q57.1264 75.4384 62.9365 75.4384 Z" fill="#000000" fill-rule="evenodd" fill-opacity="1" /><path clip-path="url(#clip680)" d="M83.0984 104.744 L87.9827 104.744 L87.9827 110.623 L83.0984 110.623 L83.0984 104.744 Z" fill="#000000" fill-rule="evenodd" fill-opacity="1" /><path clip-path="url(#clip680)" d="M98.978 106.688 L106.617 106.688 L106.617 80.3226 L98.3067 81.9893 L98.3067 77.73 L106.571 76.0634 L111.246 76.0634 L111.246 106.688 L118.885 106.688 L118.885 110.623 L98.978 110.623 L98.978 106.688 Z" fill="#000000" fill-rule="evenodd" fill-opacity="1" /><path clip-path="url(#clip680)" d="M138.33 79.1421 Q134.719 79.1421 132.89 82.7069 Q131.084 86.2485 131.084 93.3781 Q131.084 100.485 132.89 104.049 Q134.719 107.591 138.33 107.591 Q141.964 107.591 143.769 104.049 Q145.598 100.485 145.598 93.3781 Q145.598 86.2485 143.769 82.7069 Q141.964 79.1421 138.33 79.1421 M138.33 75.4384 Q144.14 75.4384 147.195 80.0448 Q150.274 84.6281 150.274 93.3781 Q150.274 102.105 147.195 106.711 Q144.14 111.295 138.33 111.295 Q132.519 111.295 129.441 106.711 Q126.385 102.105 126.385 93.3781 Q126.385 84.6281 129.441 80.0448 Q132.519 75.4384 138.33 75.4384 Z" fill="#000000" fill-rule="evenodd" fill-opacity="1" /><path clip-path="url(#clip680)" d="M168.491 79.1421 Q164.88 79.1421 163.052 82.7069 Q161.246 86.2485 161.246 93.3781 Q161.246 100.485 163.052 104.049 Q164.88 107.591 168.491 107.591 Q172.126 107.591 173.931 104.049 Q175.76 100.485 175.76 93.3781 Q175.76 86.2485 173.931 82.7069 Q172.126 79.1421 168.491 79.1421 M168.491 75.4384 Q174.302 75.4384 177.357 80.0448 Q180.436 84.6281 180.436 93.3781 Q180.436 102.105 177.357 106.711 Q174.302 111.295 168.491 111.295 Q162.681 111.295 159.603 106.711 Q156.547 102.105 156.547 93.3781 Q156.547 84.6281 159.603 80.0448 Q162.681 75.4384 168.491 75.4384 Z" fill="#000000" fill-rule="evenodd" fill-opacity="1" /><polyline clip-path="url(#clip682)" style="stroke:#009af9; stroke-linecap:round; stroke-linejoin:round; stroke-width:4; stroke-opacity:1; fill:none" points="
  276.898,369.373 317.206,902.108 357.514,1033.81 397.822,1098.85 438.129,1138.94 478.437,1166.58 518.745,1186.97 559.053,1202.69 599.361,1215.2 639.669,1225.38 
  679.977,1233.81 720.285,1240.89 760.593,1246.87 800.901,1251.97 841.209,1256.33 881.517,1260.06 921.825,1263.26 962.132,1265.98 1002.44,1268.29 1042.75,1270.21 
  1083.06,1271.8 1123.36,1273.06 1163.67,1274.02 1203.98,1274.7 1244.29,1275.11 1284.6,1275.24 1324.9,1275.11 1365.21,1274.7 1405.52,1274.02 1445.83,1273.06 
  1486.14,1271.8 1526.44,1270.21 1566.75,1268.29 1607.06,1265.98 1647.37,1263.26 1687.68,1260.06 1727.98,1256.33 1768.29,1251.97 1808.6,1246.87 1848.91,1240.89 
  1889.21,1233.81 1929.52,1225.38 1969.83,1215.2 2010.14,1202.69 2050.45,1186.97 2090.75,1166.58 2131.06,1138.94 2171.37,1098.85 2211.68,1033.81 2251.99,902.108 
  2292.29,369.373 
  "/>
<polyline clip-path="url(#clip682)" style="stroke:#e26f46; stroke-linecap:round; stroke-linejoin:round; stroke-width:4; stroke-opacity:1; fill:none" points="
  276.898,1180.54 317.206,1180.54 357.514,1180.54 397.822,1180.54 438.129,1180.54 478.437,1180.54 518.745,1180.54 559.053,1180.54 599.361,1180.54 639.669,1180.54 
  679.977,1180.54 720.285,1180.54 760.593,1180.54 800.901,1180.54 841.209,1180.54 881.517,1180.54 921.825,1180.54 962.132,1180.54 1002.44,1180.54 1042.75,1180.54 
  1083.06,1180.54 1123.36,1180.54 1163.67,1180.54 1203.98,1180.54 1244.29,1180.54 1284.6,1180.54 1324.9,1180.54 1365.21,1180.54 1405.52,1180.54 1445.83,1180.54 
  1486.14,1180.54 1526.44,1180.54 1566.75,1180.54 1607.06,1180.54 1647.37,1180.54 1687.68,1180.54 1727.98,1180.54 1768.29,1180.54 1808.6,1180.54 1848.91,1180.54 
  1889.21,1180.54 1929.52,1180.54 1969.83,1180.54 2010.14,1180.54 2050.45,1180.54 2090.75,1180.54 2131.06,1180.54 2171.37,1180.54 2211.68,1180.54 2251.99,1180.54 
  2292.29,1180.54 
  "/>
<polyline clip-path="url(#clip682)" style="stroke:#3da44d; stroke-linecap:round; stroke-linejoin:round; stroke-width:4; stroke-opacity:1; fill:none" points="
  276.898,1445.72 317.206,1445.72 357.514,1445.72 397.822,1445.72 438.129,1445.72 478.437,1445.72 518.745,1445.71 559.053,1445.7 599.361,1445.66 639.669,1445.5 
  679.977,1445.04 720.285,1443.77 760.593,1440.64 800.901,1433.58 841.209,1419.06 881.517,1391.69 921.825,1344.3 962.132,1268.8 1002.44,1158.23 1042.75,1009.58 
  1083.06,826.911 1123.36,623.383 1163.67,421.013 1203.98,247.364 1244.29,129.669 1284.6,87.9763 1324.9,129.669 1365.21,247.364 1405.52,421.013 1445.83,623.383 
  1486.14,826.911 1526.44,1009.58 1566.75,1158.23 1607.06,1268.8 1647.37,1344.3 1687.68,1391.69 1727.98,1419.06 1768.29,1433.58 1808.6,1440.64 1848.91,1443.77 
  1889.21,1445.04 1929.52,1445.5 1969.83,1445.66 2010.14,1445.7 2050.45,1445.71 2090.75,1445.72 2131.06,1445.72 2171.37,1445.72 2211.68,1445.72 2251.99,1445.72 
  2292.29,1445.72 
  "/>
<path clip-path="url(#clip680)" d="
M1668.99 302.578 L2281.55 302.578 L2281.55 95.2176 L1668.99 95.2176  Z
  " fill="#ffffff" fill-rule="evenodd" fill-opacity="1"/>
<polyline clip-path="url(#clip680)" style="stroke:#000000; stroke-linecap:round; stroke-linejoin:round; stroke-width:4; stroke-opacity:1; fill:none" points="
  1668.99,302.578 2281.55,302.578 2281.55,95.2176 1668.99,95.2176 1668.99,302.578 
  "/>
<polyline clip-path="url(#clip680)" style="stroke:#009af9; stroke-linecap:round; stroke-linejoin:round; stroke-width:4; stroke-opacity:1; fill:none" points="
  1692.73,147.058 1835.15,147.058 
  "/>
<path clip-path="url(#clip680)" d="M1880.86 152.093 Q1880.23 155.115 1879.41 156.848 Q1878.09 159.495 1875.87 159.495 Q1874.18 159.495 1872.99 158.464 Q1871.79 157.434 1871.51 155.888 Q1868.44 159.495 1865.26 159.495 Q1862.45 159.495 1860.67 157.363 Q1858.89 155.208 1858.89 151.812 Q1858.89 148.392 1860.57 145.113 Q1862.28 141.834 1864.98 139.796 Q1867.67 137.759 1870.44 137.759 Q1873.36 137.759 1874.86 140.827 Q1874.98 139.984 1875.52 139.351 Q1876.06 138.719 1876.88 138.719 Q1877.51 138.719 1877.88 139.07 Q1878.26 139.398 1878.26 140.007 Q1878.26 140.312 1877.93 141.647 L1876.2 148.346 L1875.14 152.679 Q1874.74 154.272 1874.63 154.857 Q1874.53 155.443 1874.53 156.216 Q1874.53 158.417 1875.96 158.417 Q1876.67 158.417 1877.23 157.972 Q1877.79 157.527 1878.23 156.59 Q1878.68 155.653 1878.96 154.787 Q1879.24 153.897 1879.62 152.491 Q1879.73 151.929 1879.83 151.789 Q1879.94 151.625 1880.27 151.625 Q1880.86 151.625 1880.86 152.093 M1874.28 143.029 Q1874.28 142.818 1874.11 142.232 Q1873.95 141.647 1873.57 140.827 Q1873.2 140.007 1872.38 139.422 Q1871.58 138.813 1870.51 138.813 Q1869.05 138.813 1867.53 140.054 Q1866.03 141.295 1864.93 143.403 Q1864.09 145.09 1863.17 148.627 Q1862.28 152.163 1862.28 153.92 Q1862.28 154.998 1862.52 155.958 Q1862.78 156.895 1863.5 157.668 Q1864.23 158.417 1865.35 158.417 Q1868.09 158.417 1870.79 155.021 Q1871.3 154.435 1871.42 154.201 Q1871.56 153.944 1871.75 153.241 L1874.14 143.849 Q1874.28 143.146 1874.28 143.029 Z" fill="#000000" fill-rule="evenodd" fill-opacity="1" /><path clip-path="url(#clip680)" d="M1897.31 151.672 Q1897.36 151.086 1898.27 151.086 L1927.67 151.086 Q1929.05 151.086 1929.07 151.625 Q1929.07 152.21 1927.76 152.187 L1898.6 152.187 Q1897.31 152.21 1897.31 151.672 M1897.31 142.303 Q1897.31 141.717 1898.32 141.74 L1927.62 141.74 Q1929.05 141.74 1929.07 142.303 Q1929.07 142.841 1927.85 142.841 L1898.27 142.841 Q1897.31 142.841 1897.31 142.303 Z" fill="#000000" fill-rule="evenodd" fill-opacity="1" /><path clip-path="url(#clip680)" d="M1947.56 143.614 Q1947.56 136.564 1949.34 132.723 Q1951.83 127.008 1957.68 127.008 Q1958.92 127.008 1960.21 127.359 Q1961.52 127.687 1963.16 128.975 Q1964.83 130.263 1965.83 132.372 Q1967.75 136.447 1967.75 143.614 Q1967.75 150.618 1965.97 154.435 Q1963.37 160.01 1957.63 160.01 Q1955.48 160.01 1953.28 158.909 Q1951.1 157.808 1949.72 155.162 Q1947.56 151.203 1947.56 143.614 M1951.54 143.029 Q1951.54 150.266 1952.06 153.147 Q1952.65 156.262 1954.24 157.621 Q1955.85 158.956 1957.63 158.956 Q1959.56 158.956 1961.15 157.527 Q1962.76 156.075 1963.26 152.96 Q1963.79 149.892 1963.77 143.029 Q1963.77 136.353 1963.3 133.683 Q1962.67 130.568 1960.98 129.327 Q1959.32 128.062 1957.63 128.062 Q1957 128.062 1956.32 128.249 Q1955.67 128.437 1954.71 128.975 Q1953.75 129.514 1953 130.849 Q1952.27 132.184 1951.92 134.198 Q1951.54 136.798 1951.54 143.029 Z" fill="#000000" fill-rule="evenodd" fill-opacity="1" /><path clip-path="url(#clip680)" d="M1972.04 158.183 Q1971.31 157.41 1971.31 156.403 Q1971.31 155.396 1972.04 154.67 Q1972.76 153.92 1973.87 153.92 Q1974.92 153.92 1975.62 154.623 Q1976.35 155.302 1976.35 156.426 Q1976.35 157.527 1975.58 158.253 Q1974.83 158.956 1973.87 158.956 Q1972.76 158.956 1972.04 158.183 Z" fill="#000000" fill-rule="evenodd" fill-opacity="1" /><path clip-path="url(#clip680)" d="M1984.51 151.227 Q1984.51 149.798 1985.28 149.259 Q1986.06 148.697 1986.88 148.697 Q1987.98 148.697 1988.61 149.4 Q1989.26 150.079 1989.26 151.039 Q1989.26 152 1988.61 152.702 Q1987.98 153.381 1986.88 153.381 Q1986.34 153.381 1986.06 153.288 Q1986.69 155.489 1988.61 157.082 Q1990.55 158.675 1993.11 158.675 Q1996.31 158.675 1998.24 155.56 Q1999.38 153.545 1999.38 148.978 Q1999.38 144.949 1998.52 142.935 Q1997.18 139.867 1994.44 139.867 Q1990.55 139.867 1988.26 143.216 Q1987.98 143.638 1987.65 143.661 Q1987.18 143.661 1987.06 143.403 Q1986.97 143.122 1986.97 142.396 L1986.97 128.202 Q1986.97 127.055 1987.44 127.055 Q1987.63 127.055 1988.02 127.195 Q1991.04 128.53 1994.39 128.554 Q1997.84 128.554 2000.93 127.148 Q2001.16 127.008 2001.3 127.008 Q2001.77 127.008 2001.8 127.546 Q2001.8 127.734 2001.4 128.296 Q2001.02 128.835 2000.2 129.561 Q1999.38 130.263 1998.33 130.943 Q1997.28 131.622 1995.73 132.09 Q1994.21 132.535 1992.52 132.535 Q1990.51 132.535 1988.44 131.903 L1988.44 141.249 Q1990.93 138.813 1994.53 138.813 Q1998.38 138.813 2001.02 141.904 Q2003.67 144.996 2003.67 149.306 Q2003.67 153.826 2000.53 156.918 Q1997.42 160.01 1993.2 160.01 Q1989.36 160.01 1986.92 157.27 Q1984.51 154.529 1984.51 151.227 Z" fill="#000000" fill-rule="evenodd" fill-opacity="1" /><path clip-path="url(#clip680)" d="M2008.94 158.183 Q2008.26 157.41 2008.26 156.403 Q2008.26 155.396 2008.92 154.646 Q2009.59 153.873 2010.81 153.873 Q2012.24 153.873 2013.06 155.255 Q2013.88 156.614 2013.88 158.909 Q2013.88 161.392 2012.87 163.687 Q2011.87 166.006 2010.88 167.107 Q2009.9 168.208 2009.5 168.208 Q2009.03 168.208 2009.03 167.693 Q2009.03 167.505 2009.36 167.154 Q2012.8 163.453 2012.83 158.909 Q2012.83 158.183 2012.73 158.183 L2012.62 158.277 Q2011.8 158.956 2010.81 158.956 Q2009.62 158.956 2008.94 158.183 Z" fill="#000000" fill-rule="evenodd" fill-opacity="1" /><path clip-path="url(#clip680)" d="M2046.67 145.418 Q2046.67 148.791 2044.96 152.093 Q2043.28 155.372 2040.56 157.434 Q2037.87 159.495 2035.1 159.495 Q2032.41 159.495 2030.7 157.434 Q2029.01 155.349 2029.01 151.953 Q2029.01 150.758 2029.15 149.915 Q2029.29 149.072 2029.79 147.104 L2033.72 131.458 Q2034.4 128.53 2034.4 128.507 Q2034.4 128.226 2034.28 128.085 Q2034.19 127.921 2033.63 127.804 Q2033.07 127.687 2031.99 127.687 Q2031.54 127.687 2031.33 127.664 Q2031.14 127.64 2030.98 127.523 Q2030.84 127.383 2030.84 127.101 Q2030.84 126.703 2031 126.492 Q2031.19 126.258 2031.33 126.211 Q2031.47 126.165 2031.75 126.141 Q2032.15 126.118 2033.49 126.001 Q2034.82 125.86 2035.97 125.766 Q2037.12 125.673 2037.61 125.673 Q2037.89 125.673 2038.03 125.813 Q2038.19 125.93 2038.19 126.071 L2038.22 126.188 L2034.68 140.64 Q2037.47 137.759 2040.3 137.759 Q2043.14 137.759 2044.89 139.937 Q2046.67 142.115 2046.67 145.418 M2043.21 143.31 Q2043.21 141.085 2042.36 139.96 Q2041.54 138.813 2040.19 138.813 Q2039.04 138.813 2037.54 139.679 Q2036.04 140.546 2034.45 142.654 Q2034.14 143.052 2034.03 143.286 Q2033.93 143.521 2033.72 144.317 L2032.67 148.744 Q2031.89 151.765 2031.89 153.592 Q2031.89 156.075 2032.81 157.246 Q2033.72 158.417 2035.1 158.417 Q2036.56 158.417 2038.08 157.129 Q2039.6 155.841 2040.77 153.499 Q2041.5 151.953 2042.34 148.627 Q2043.21 145.277 2043.21 143.31 Z" fill="#000000" fill-rule="evenodd" fill-opacity="1" /><path clip-path="url(#clip680)" d="M2062.68 151.672 Q2062.73 151.086 2063.64 151.086 L2093.04 151.086 Q2094.42 151.086 2094.44 151.625 Q2094.44 152.21 2093.13 152.187 L2063.97 152.187 Q2062.68 152.21 2062.68 151.672 M2062.68 142.303 Q2062.68 141.717 2063.69 141.74 L2092.99 141.74 Q2094.42 141.74 2094.44 142.303 Q2094.44 142.841 2093.22 142.841 L2063.64 142.841 Q2062.68 142.841 2062.68 142.303 Z" fill="#000000" fill-rule="evenodd" fill-opacity="1" /><path clip-path="url(#clip680)" d="M2112.93 143.614 Q2112.93 136.564 2114.71 132.723 Q2117.2 127.008 2123.05 127.008 Q2124.29 127.008 2125.58 127.359 Q2126.89 127.687 2128.53 128.975 Q2130.2 130.263 2131.2 132.372 Q2133.12 136.447 2133.12 143.614 Q2133.12 150.618 2131.34 154.435 Q2128.74 160.01 2123 160.01 Q2120.85 160.01 2118.65 158.909 Q2116.47 157.808 2115.09 155.162 Q2112.93 151.203 2112.93 143.614 M2116.92 143.029 Q2116.92 150.266 2117.43 153.147 Q2118.02 156.262 2119.61 157.621 Q2121.22 158.956 2123 158.956 Q2124.93 158.956 2126.52 157.527 Q2128.13 156.075 2128.63 152.96 Q2129.17 149.892 2129.14 143.029 Q2129.14 136.353 2128.67 133.683 Q2128.04 130.568 2126.35 129.327 Q2124.69 128.062 2123 128.062 Q2122.37 128.062 2121.69 128.249 Q2121.04 128.437 2120.08 128.975 Q2119.12 129.514 2118.37 130.849 Q2117.64 132.184 2117.29 134.198 Q2116.92 136.798 2116.92 143.029 Z" fill="#000000" fill-rule="evenodd" fill-opacity="1" /><path clip-path="url(#clip680)" d="M2137.41 158.183 Q2136.68 157.41 2136.68 156.403 Q2136.68 155.396 2137.41 154.67 Q2138.14 153.92 2139.24 153.92 Q2140.29 153.92 2140.99 154.623 Q2141.72 155.302 2141.72 156.426 Q2141.72 157.527 2140.95 158.253 Q2140.2 158.956 2139.24 158.956 Q2138.14 158.956 2137.41 158.183 Z" fill="#000000" fill-rule="evenodd" fill-opacity="1" /><path clip-path="url(#clip680)" d="M2149.88 151.227 Q2149.88 149.798 2150.65 149.259 Q2151.43 148.697 2152.25 148.697 Q2153.35 148.697 2153.98 149.4 Q2154.64 150.079 2154.64 151.039 Q2154.64 152 2153.98 152.702 Q2153.35 153.381 2152.25 153.381 Q2151.71 153.381 2151.43 153.288 Q2152.06 155.489 2153.98 157.082 Q2155.92 158.675 2158.48 158.675 Q2161.69 158.675 2163.61 155.56 Q2164.75 153.545 2164.75 148.978 Q2164.75 144.949 2163.89 142.935 Q2162.55 139.867 2159.81 139.867 Q2155.92 139.867 2153.63 143.216 Q2153.35 143.638 2153.02 143.661 Q2152.55 143.661 2152.43 143.403 Q2152.34 143.122 2152.34 142.396 L2152.34 128.202 Q2152.34 127.055 2152.81 127.055 Q2153 127.055 2153.39 127.195 Q2156.42 128.53 2159.76 128.554 Q2163.21 128.554 2166.3 127.148 Q2166.53 127.008 2166.67 127.008 Q2167.14 127.008 2167.17 127.546 Q2167.17 127.734 2166.77 128.296 Q2166.39 128.835 2165.57 129.561 Q2164.75 130.263 2163.7 130.943 Q2162.65 131.622 2161.1 132.09 Q2159.58 132.535 2157.89 132.535 Q2155.88 132.535 2153.82 131.903 L2153.82 141.249 Q2156.3 138.813 2159.91 138.813 Q2163.75 138.813 2166.39 141.904 Q2169.04 144.996 2169.04 149.306 Q2169.04 153.826 2165.9 156.918 Q2162.79 160.01 2158.57 160.01 Q2154.73 160.01 2152.29 157.27 Q2149.88 154.529 2149.88 151.227 Z" fill="#000000" fill-rule="evenodd" fill-opacity="1" /><polyline clip-path="url(#clip680)" style="stroke:#e26f46; stroke-linecap:round; stroke-linejoin:round; stroke-width:4; stroke-opacity:1; fill:none" points="
  1692.73,198.898 1835.15,198.898 
  "/>
<path clip-path="url(#clip680)" d="M1880.86 203.933 Q1880.23 206.955 1879.41 208.688 Q1878.09 211.335 1875.87 211.335 Q1874.18 211.335 1872.99 210.304 Q1871.79 209.274 1871.51 207.728 Q1868.44 211.335 1865.26 211.335 Q1862.45 211.335 1860.67 209.203 Q1858.89 207.048 1858.89 203.652 Q1858.89 200.232 1860.57 196.953 Q1862.28 193.674 1864.98 191.636 Q1867.67 189.599 1870.44 189.599 Q1873.36 189.599 1874.86 192.667 Q1874.98 191.824 1875.52 191.191 Q1876.06 190.559 1876.88 190.559 Q1877.51 190.559 1877.88 190.91 Q1878.26 191.238 1878.26 191.847 Q1878.26 192.152 1877.93 193.487 L1876.2 200.186 L1875.14 204.519 Q1874.74 206.112 1874.63 206.697 Q1874.53 207.283 1874.53 208.056 Q1874.53 210.257 1875.96 210.257 Q1876.67 210.257 1877.23 209.812 Q1877.79 209.367 1878.23 208.43 Q1878.68 207.493 1878.96 206.627 Q1879.24 205.737 1879.62 204.331 Q1879.73 203.769 1879.83 203.629 Q1879.94 203.465 1880.27 203.465 Q1880.86 203.465 1880.86 203.933 M1874.28 194.869 Q1874.28 194.658 1874.11 194.072 Q1873.95 193.487 1873.57 192.667 Q1873.2 191.847 1872.38 191.262 Q1871.58 190.653 1870.51 190.653 Q1869.05 190.653 1867.53 191.894 Q1866.03 193.135 1864.93 195.243 Q1864.09 196.93 1863.17 200.467 Q1862.28 204.003 1862.28 205.76 Q1862.28 206.838 1862.52 207.798 Q1862.78 208.735 1863.5 209.508 Q1864.23 210.257 1865.35 210.257 Q1868.09 210.257 1870.79 206.861 Q1871.3 206.275 1871.42 206.041 Q1871.56 205.784 1871.75 205.081 L1874.14 195.689 Q1874.28 194.986 1874.28 194.869 Z" fill="#000000" fill-rule="evenodd" fill-opacity="1" /><path clip-path="url(#clip680)" d="M1897.31 203.512 Q1897.36 202.926 1898.27 202.926 L1927.67 202.926 Q1929.05 202.926 1929.07 203.465 Q1929.07 204.05 1927.76 204.027 L1898.6 204.027 Q1897.31 204.05 1897.31 203.512 M1897.31 194.143 Q1897.31 193.557 1898.32 193.58 L1927.62 193.58 Q1929.05 193.58 1929.07 194.143 Q1929.07 194.681 1927.85 194.681 L1898.27 194.681 Q1897.31 194.681 1897.31 194.143 Z" fill="#000000" fill-rule="evenodd" fill-opacity="1" /><path clip-path="url(#clip680)" d="M1947.56 183.415 L1947.56 181.916 Q1953.32 181.916 1956.3 178.848 Q1957.12 178.848 1957.26 179.035 Q1957.4 179.223 1957.4 180.089 L1957.4 207.002 Q1957.4 208.43 1958.1 208.875 Q1958.81 209.32 1961.87 209.32 L1963.4 209.32 L1963.4 210.796 Q1961.71 210.655 1955.62 210.655 Q1949.53 210.655 1947.87 210.796 L1947.87 209.32 L1949.39 209.32 Q1952.41 209.32 1953.14 208.899 Q1953.86 208.454 1953.86 207.002 L1953.86 182.15 Q1951.36 183.415 1947.56 183.415 Z" fill="#000000" fill-rule="evenodd" fill-opacity="1" /><path clip-path="url(#clip680)" d="M1967.16 210.023 Q1966.44 209.25 1966.44 208.243 Q1966.44 207.236 1967.16 206.51 Q1967.89 205.76 1968.99 205.76 Q1970.04 205.76 1970.75 206.463 Q1971.47 207.142 1971.47 208.266 Q1971.47 209.367 1970.7 210.093 Q1969.95 210.796 1968.99 210.796 Q1967.89 210.796 1967.16 210.023 Z" fill="#000000" fill-rule="evenodd" fill-opacity="1" /><path clip-path="url(#clip680)" d="M1979.63 195.454 Q1979.63 188.404 1981.41 184.563 Q1983.9 178.848 1989.75 178.848 Q1990.99 178.848 1992.28 179.199 Q1993.59 179.527 1995.23 180.815 Q1996.9 182.103 1997.9 184.212 Q1999.82 188.287 1999.82 195.454 Q1999.82 202.458 1998.04 206.275 Q1995.44 211.85 1989.71 211.85 Q1987.55 211.85 1985.35 210.749 Q1983.17 209.648 1981.79 207.002 Q1979.63 203.043 1979.63 195.454 M1983.62 194.869 Q1983.62 202.106 1984.13 204.987 Q1984.72 208.102 1986.31 209.461 Q1987.93 210.796 1989.71 210.796 Q1991.63 210.796 1993.22 209.367 Q1994.84 207.915 1995.33 204.8 Q1995.87 201.732 1995.84 194.869 Q1995.84 188.193 1995.37 185.523 Q1994.74 182.408 1993.06 181.167 Q1991.39 179.902 1989.71 179.902 Q1989.07 179.902 1988.39 180.089 Q1987.74 180.277 1986.78 180.815 Q1985.82 181.354 1985.07 182.689 Q1984.34 184.024 1983.99 186.038 Q1983.62 188.638 1983.62 194.869 Z" fill="#000000" fill-rule="evenodd" fill-opacity="1" /><path clip-path="url(#clip680)" d="M2004.06 210.023 Q2003.38 209.25 2003.38 208.243 Q2003.38 207.236 2004.04 206.486 Q2004.72 205.713 2005.94 205.713 Q2007.37 205.713 2008.19 207.095 Q2009.01 208.454 2009.01 210.749 Q2009.01 213.232 2008 215.527 Q2006.99 217.846 2006.01 218.947 Q2005.02 220.048 2004.63 220.048 Q2004.16 220.048 2004.16 219.533 Q2004.16 219.345 2004.49 218.994 Q2007.93 215.293 2007.95 210.749 Q2007.95 210.023 2007.86 210.023 L2007.74 210.117 Q2006.92 210.796 2005.94 210.796 Q2004.74 210.796 2004.06 210.023 Z" fill="#000000" fill-rule="evenodd" fill-opacity="1" /><path clip-path="url(#clip680)" d="M2041.8 197.258 Q2041.8 200.631 2040.09 203.933 Q2038.4 207.212 2035.69 209.274 Q2032.99 211.335 2030.23 211.335 Q2027.53 211.335 2025.82 209.274 Q2024.14 207.189 2024.14 203.793 Q2024.14 202.598 2024.28 201.755 Q2024.42 200.912 2024.91 198.944 L2028.85 183.298 Q2029.53 180.37 2029.53 180.347 Q2029.53 180.066 2029.41 179.925 Q2029.31 179.761 2028.75 179.644 Q2028.19 179.527 2027.11 179.527 Q2026.67 179.527 2026.46 179.504 Q2026.27 179.48 2026.11 179.363 Q2025.97 179.223 2025.97 178.941 Q2025.97 178.543 2026.13 178.332 Q2026.32 178.098 2026.46 178.051 Q2026.6 178.005 2026.88 177.981 Q2027.28 177.958 2028.61 177.841 Q2029.95 177.7 2031.09 177.606 Q2032.24 177.513 2032.73 177.513 Q2033.02 177.513 2033.16 177.653 Q2033.32 177.77 2033.32 177.911 L2033.34 178.028 L2029.81 192.48 Q2032.59 189.599 2035.43 189.599 Q2038.26 189.599 2040.02 191.777 Q2041.8 193.955 2041.8 197.258 M2038.33 195.15 Q2038.33 192.925 2037.49 191.8 Q2036.67 190.653 2035.31 190.653 Q2034.16 190.653 2032.66 191.519 Q2031.16 192.386 2029.57 194.494 Q2029.27 194.892 2029.15 195.126 Q2029.06 195.361 2028.85 196.157 L2027.79 200.584 Q2027.02 203.605 2027.02 205.432 Q2027.02 207.915 2027.93 209.086 Q2028.85 210.257 2030.23 210.257 Q2031.68 210.257 2033.2 208.969 Q2034.73 207.681 2035.9 205.339 Q2036.62 203.793 2037.47 200.467 Q2038.33 197.117 2038.33 195.15 Z" fill="#000000" fill-rule="evenodd" fill-opacity="1" /><path clip-path="url(#clip680)" d="M2057.81 203.512 Q2057.85 202.926 2058.77 202.926 L2088.16 202.926 Q2089.54 202.926 2089.57 203.465 Q2089.57 204.05 2088.26 204.027 L2059.09 204.027 Q2057.81 204.05 2057.81 203.512 M2057.81 194.143 Q2057.81 193.557 2058.81 193.58 L2088.12 193.58 Q2089.54 193.58 2089.57 194.143 Q2089.57 194.681 2088.35 194.681 L2058.77 194.681 Q2057.81 194.681 2057.81 194.143 Z" fill="#000000" fill-rule="evenodd" fill-opacity="1" /><path clip-path="url(#clip680)" d="M2108.06 183.415 L2108.06 181.916 Q2113.82 181.916 2116.79 178.848 Q2117.61 178.848 2117.76 179.035 Q2117.9 179.223 2117.9 180.089 L2117.9 207.002 Q2117.9 208.43 2118.6 208.875 Q2119.3 209.32 2122.37 209.32 L2123.89 209.32 L2123.89 210.796 Q2122.21 210.655 2116.12 210.655 Q2110.03 210.655 2108.36 210.796 L2108.36 209.32 L2109.89 209.32 Q2112.91 209.32 2113.63 208.899 Q2114.36 208.454 2114.36 207.002 L2114.36 182.15 Q2111.85 183.415 2108.06 183.415 Z" fill="#000000" fill-rule="evenodd" fill-opacity="1" /><path clip-path="url(#clip680)" d="M2127.66 210.023 Q2126.93 209.25 2126.93 208.243 Q2126.93 207.236 2127.66 206.51 Q2128.39 205.76 2129.49 205.76 Q2130.54 205.76 2131.24 206.463 Q2131.97 207.142 2131.97 208.266 Q2131.97 209.367 2131.2 210.093 Q2130.45 210.796 2129.49 210.796 Q2128.39 210.796 2127.66 210.023 Z" fill="#000000" fill-rule="evenodd" fill-opacity="1" /><path clip-path="url(#clip680)" d="M2140.13 195.454 Q2140.13 188.404 2141.91 184.563 Q2144.39 178.848 2150.25 178.848 Q2151.49 178.848 2152.78 179.199 Q2154.09 179.527 2155.73 180.815 Q2157.39 182.103 2158.4 184.212 Q2160.32 188.287 2160.32 195.454 Q2160.32 202.458 2158.54 206.275 Q2155.94 211.85 2150.2 211.85 Q2148.05 211.85 2145.85 210.749 Q2143.67 209.648 2142.29 207.002 Q2140.13 203.043 2140.13 195.454 M2144.11 194.869 Q2144.11 202.106 2144.63 204.987 Q2145.21 208.102 2146.81 209.461 Q2148.42 210.796 2150.2 210.796 Q2152.12 210.796 2153.72 209.367 Q2155.33 207.915 2155.82 204.8 Q2156.36 201.732 2156.34 194.869 Q2156.34 188.193 2155.87 185.523 Q2155.24 182.408 2153.55 181.167 Q2151.89 179.902 2150.2 179.902 Q2149.57 179.902 2148.89 180.089 Q2148.23 180.277 2147.27 180.815 Q2146.31 181.354 2145.56 182.689 Q2144.84 184.024 2144.49 186.038 Q2144.11 188.638 2144.11 194.869 Z" fill="#000000" fill-rule="evenodd" fill-opacity="1" /><polyline clip-path="url(#clip680)" style="stroke:#3da44d; stroke-linecap:round; stroke-linejoin:round; stroke-width:4; stroke-opacity:1; fill:none" points="
  1692.73,250.738 1835.15,250.738 
  "/>
<path clip-path="url(#clip680)" d="M1880.86 255.773 Q1880.23 258.795 1879.41 260.528 Q1878.09 263.175 1875.87 263.175 Q1874.18 263.175 1872.99 262.144 Q1871.79 261.114 1871.51 259.568 Q1868.44 263.175 1865.26 263.175 Q1862.45 263.175 1860.67 261.043 Q1858.89 258.888 1858.89 255.492 Q1858.89 252.072 1860.57 248.793 Q1862.28 245.514 1864.98 243.476 Q1867.67 241.439 1870.44 241.439 Q1873.36 241.439 1874.86 244.507 Q1874.98 243.664 1875.52 243.031 Q1876.06 242.399 1876.88 242.399 Q1877.51 242.399 1877.88 242.75 Q1878.26 243.078 1878.26 243.687 Q1878.26 243.992 1877.93 245.327 L1876.2 252.026 L1875.14 256.359 Q1874.74 257.952 1874.63 258.537 Q1874.53 259.123 1874.53 259.896 Q1874.53 262.097 1875.96 262.097 Q1876.67 262.097 1877.23 261.652 Q1877.79 261.207 1878.23 260.27 Q1878.68 259.333 1878.96 258.467 Q1879.24 257.577 1879.62 256.171 Q1879.73 255.609 1879.83 255.469 Q1879.94 255.305 1880.27 255.305 Q1880.86 255.305 1880.86 255.773 M1874.28 246.709 Q1874.28 246.498 1874.11 245.912 Q1873.95 245.327 1873.57 244.507 Q1873.2 243.687 1872.38 243.102 Q1871.58 242.493 1870.51 242.493 Q1869.05 242.493 1867.53 243.734 Q1866.03 244.975 1864.93 247.083 Q1864.09 248.77 1863.17 252.307 Q1862.28 255.843 1862.28 257.6 Q1862.28 258.678 1862.52 259.638 Q1862.78 260.575 1863.5 261.348 Q1864.23 262.097 1865.35 262.097 Q1868.09 262.097 1870.79 258.701 Q1871.3 258.115 1871.42 257.881 Q1871.56 257.624 1871.75 256.921 L1874.14 247.529 Q1874.28 246.826 1874.28 246.709 Z" fill="#000000" fill-rule="evenodd" fill-opacity="1" /><path clip-path="url(#clip680)" d="M1897.31 255.352 Q1897.36 254.766 1898.27 254.766 L1927.67 254.766 Q1929.05 254.766 1929.07 255.305 Q1929.07 255.89 1927.76 255.867 L1898.6 255.867 Q1897.31 255.89 1897.31 255.352 M1897.31 245.983 Q1897.31 245.397 1898.32 245.42 L1927.62 245.42 Q1929.05 245.42 1929.07 245.983 Q1929.07 246.521 1927.85 246.521 L1898.27 246.521 Q1897.31 246.521 1897.31 245.983 Z" fill="#000000" fill-rule="evenodd" fill-opacity="1" /><path clip-path="url(#clip680)" d="M1947.56 235.255 L1947.56 233.756 Q1953.32 233.756 1956.3 230.688 Q1957.12 230.688 1957.26 230.875 Q1957.4 231.063 1957.4 231.929 L1957.4 258.842 Q1957.4 260.27 1958.1 260.715 Q1958.81 261.16 1961.87 261.16 L1963.4 261.16 L1963.4 262.636 Q1961.71 262.495 1955.62 262.495 Q1949.53 262.495 1947.87 262.636 L1947.87 261.16 L1949.39 261.16 Q1952.41 261.16 1953.14 260.739 Q1953.86 260.294 1953.86 258.842 L1953.86 233.99 Q1951.36 235.255 1947.56 235.255 Z" fill="#000000" fill-rule="evenodd" fill-opacity="1" /><path clip-path="url(#clip680)" d="M1965.71 247.294 Q1965.71 240.244 1967.49 236.403 Q1969.97 230.688 1975.83 230.688 Q1977.07 230.688 1978.36 231.039 Q1979.67 231.367 1981.31 232.655 Q1982.97 233.943 1983.98 236.052 Q1985.9 240.127 1985.9 247.294 Q1985.9 254.298 1984.12 258.115 Q1981.52 263.69 1975.78 263.69 Q1973.63 263.69 1971.42 262.589 Q1969.25 261.488 1967.86 258.842 Q1965.71 254.883 1965.71 247.294 M1969.69 246.709 Q1969.69 253.946 1970.21 256.827 Q1970.79 259.942 1972.39 261.301 Q1974 262.636 1975.78 262.636 Q1977.7 262.636 1979.29 261.207 Q1980.91 259.755 1981.4 256.64 Q1981.94 253.572 1981.92 246.709 Q1981.92 240.033 1981.45 237.363 Q1980.82 234.248 1979.13 233.007 Q1977.47 231.742 1975.78 231.742 Q1975.15 231.742 1974.47 231.929 Q1973.81 232.117 1972.85 232.655 Q1971.89 233.194 1971.14 234.529 Q1970.42 235.864 1970.07 237.878 Q1969.69 240.478 1969.69 246.709 Z" fill="#000000" fill-rule="evenodd" fill-opacity="1" /><path clip-path="url(#clip680)" d="M1989.65 247.294 Q1989.65 240.244 1991.43 236.403 Q1993.91 230.688 1999.77 230.688 Q2001.01 230.688 2002.3 231.039 Q2003.61 231.367 2005.25 232.655 Q2006.91 233.943 2007.92 236.052 Q2009.84 240.127 2009.84 247.294 Q2009.84 254.298 2008.06 258.115 Q2005.46 263.69 1999.72 263.69 Q1997.57 263.69 1995.37 262.589 Q1993.19 261.488 1991.81 258.842 Q1989.65 254.883 1989.65 247.294 M1993.63 246.709 Q1993.63 253.946 1994.15 256.827 Q1994.73 259.942 1996.33 261.301 Q1997.94 262.636 1999.72 262.636 Q2001.64 262.636 2003.24 261.207 Q2004.85 259.755 2005.34 256.64 Q2005.88 253.572 2005.86 246.709 Q2005.86 240.033 2005.39 237.363 Q2004.76 234.248 2003.07 233.007 Q2001.41 231.742 1999.72 231.742 Q1999.09 231.742 1998.41 231.929 Q1997.76 232.117 1996.8 232.655 Q1995.84 233.194 1995.09 234.529 Q1994.36 235.864 1994.01 237.878 Q1993.63 240.478 1993.63 246.709 Z" fill="#000000" fill-rule="evenodd" fill-opacity="1" /><path clip-path="url(#clip680)" d="M2014.13 261.863 Q2013.4 261.09 2013.4 260.083 Q2013.4 259.076 2014.13 258.35 Q2014.85 257.6 2015.95 257.6 Q2017.01 257.6 2017.71 258.303 Q2018.44 258.982 2018.44 260.106 Q2018.44 261.207 2017.66 261.933 Q2016.92 262.636 2015.95 262.636 Q2014.85 262.636 2014.13 261.863 Z" fill="#000000" fill-rule="evenodd" fill-opacity="1" /><path clip-path="url(#clip680)" d="M2026.6 247.294 Q2026.6 240.244 2028.38 236.403 Q2030.86 230.688 2036.72 230.688 Q2037.96 230.688 2039.25 231.039 Q2040.56 231.367 2042.2 232.655 Q2043.86 233.943 2044.87 236.052 Q2046.79 240.127 2046.79 247.294 Q2046.79 254.298 2045.01 258.115 Q2042.41 263.69 2036.67 263.69 Q2034.52 263.69 2032.31 262.589 Q2030.14 261.488 2028.75 258.842 Q2026.6 254.883 2026.6 247.294 M2030.58 246.709 Q2030.58 253.946 2031.1 256.827 Q2031.68 259.942 2033.27 261.301 Q2034.89 262.636 2036.67 262.636 Q2038.59 262.636 2040.18 261.207 Q2041.8 259.755 2042.29 256.64 Q2042.83 253.572 2042.81 246.709 Q2042.81 240.033 2042.34 237.363 Q2041.71 234.248 2040.02 233.007 Q2038.36 231.742 2036.67 231.742 Q2036.04 231.742 2035.36 231.929 Q2034.7 232.117 2033.74 232.655 Q2032.78 233.194 2032.03 234.529 Q2031.31 235.864 2030.96 237.878 Q2030.58 240.478 2030.58 246.709 Z" fill="#000000" fill-rule="evenodd" fill-opacity="1" /><path clip-path="url(#clip680)" d="M2051.03 261.863 Q2050.35 261.09 2050.35 260.083 Q2050.35 259.076 2051 258.326 Q2051.68 257.553 2052.9 257.553 Q2054.33 257.553 2055.15 258.935 Q2055.97 260.294 2055.97 262.589 Q2055.97 265.072 2054.96 267.367 Q2053.96 269.686 2052.97 270.787 Q2051.99 271.888 2051.59 271.888 Q2051.12 271.888 2051.12 271.373 Q2051.12 271.185 2051.45 270.834 Q2054.89 267.133 2054.92 262.589 Q2054.92 261.863 2054.82 261.863 L2054.71 261.957 Q2053.89 262.636 2052.9 262.636 Q2051.71 262.636 2051.03 261.863 Z" fill="#000000" fill-rule="evenodd" fill-opacity="1" /><path clip-path="url(#clip680)" d="M2088.76 249.098 Q2088.76 252.471 2087.05 255.773 Q2085.37 259.052 2082.65 261.114 Q2079.96 263.175 2077.19 263.175 Q2074.5 263.175 2072.79 261.114 Q2071.1 259.029 2071.1 255.633 Q2071.1 254.438 2071.24 253.595 Q2071.38 252.752 2071.88 250.784 L2075.81 235.138 Q2076.49 232.21 2076.49 232.187 Q2076.49 231.906 2076.37 231.765 Q2076.28 231.601 2075.72 231.484 Q2075.15 231.367 2074.08 231.367 Q2073.63 231.367 2073.42 231.344 Q2073.23 231.32 2073.07 231.203 Q2072.93 231.063 2072.93 230.781 Q2072.93 230.383 2073.09 230.172 Q2073.28 229.938 2073.42 229.891 Q2073.56 229.845 2073.84 229.821 Q2074.24 229.798 2075.58 229.681 Q2076.91 229.54 2078.06 229.446 Q2079.21 229.353 2079.7 229.353 Q2079.98 229.353 2080.12 229.493 Q2080.28 229.61 2080.28 229.751 L2080.31 229.868 L2076.77 244.32 Q2079.56 241.439 2082.39 241.439 Q2085.23 241.439 2086.98 243.617 Q2088.76 245.795 2088.76 249.098 M2085.3 246.99 Q2085.3 244.765 2084.45 243.64 Q2083.63 242.493 2082.27 242.493 Q2081.13 242.493 2079.63 243.359 Q2078.13 244.226 2076.54 246.334 Q2076.23 246.732 2076.11 246.966 Q2076.02 247.201 2075.81 247.997 L2074.76 252.424 Q2073.98 255.445 2073.98 257.272 Q2073.98 259.755 2074.9 260.926 Q2075.81 262.097 2077.19 262.097 Q2078.64 262.097 2080.17 260.809 Q2081.69 259.521 2082.86 257.179 Q2083.59 255.633 2084.43 252.307 Q2085.3 248.957 2085.3 246.99 Z" fill="#000000" fill-rule="evenodd" fill-opacity="1" /><path clip-path="url(#clip680)" d="M2104.77 255.352 Q2104.82 254.766 2105.73 254.766 L2135.13 254.766 Q2136.51 254.766 2136.53 255.305 Q2136.53 255.89 2135.22 255.867 L2106.06 255.867 Q2104.77 255.89 2104.77 255.352 M2104.77 245.983 Q2104.77 245.397 2105.78 245.42 L2135.08 245.42 Q2136.51 245.42 2136.53 245.983 Q2136.53 246.521 2135.31 246.521 L2105.73 246.521 Q2104.77 246.521 2104.77 245.983 Z" fill="#000000" fill-rule="evenodd" fill-opacity="1" /><path clip-path="url(#clip680)" d="M2155.02 235.255 L2155.02 233.756 Q2160.78 233.756 2163.76 230.688 Q2164.58 230.688 2164.72 230.875 Q2164.86 231.063 2164.86 231.929 L2164.86 258.842 Q2164.86 260.27 2165.56 260.715 Q2166.27 261.16 2169.33 261.16 L2170.86 261.16 L2170.86 262.636 Q2169.17 262.495 2163.08 262.495 Q2156.99 262.495 2155.33 262.636 L2155.33 261.16 L2156.85 261.16 Q2159.87 261.16 2160.6 260.739 Q2161.32 260.294 2161.32 258.842 L2161.32 233.99 Q2158.82 235.255 2155.02 235.255 Z" fill="#000000" fill-rule="evenodd" fill-opacity="1" /><path clip-path="url(#clip680)" d="M2173.17 247.294 Q2173.17 240.244 2174.95 236.403 Q2177.43 230.688 2183.29 230.688 Q2184.53 230.688 2185.82 231.039 Q2187.13 231.367 2188.77 232.655 Q2190.43 233.943 2191.44 236.052 Q2193.36 240.127 2193.36 247.294 Q2193.36 254.298 2191.58 258.115 Q2188.98 263.69 2183.24 263.69 Q2181.09 263.69 2178.88 262.589 Q2176.71 261.488 2175.32 258.842 Q2173.17 254.883 2173.17 247.294 M2177.15 246.709 Q2177.15 253.946 2177.67 256.827 Q2178.25 259.942 2179.84 261.301 Q2181.46 262.636 2183.24 262.636 Q2185.16 262.636 2186.75 261.207 Q2188.37 259.755 2188.86 256.64 Q2189.4 253.572 2189.38 246.709 Q2189.38 240.033 2188.91 237.363 Q2188.28 234.248 2186.59 233.007 Q2184.93 231.742 2183.24 231.742 Q2182.61 231.742 2181.93 231.929 Q2181.27 232.117 2180.31 232.655 Q2179.35 233.194 2178.6 234.529 Q2177.88 235.864 2177.53 237.878 Q2177.15 240.478 2177.15 246.709 Z" fill="#000000" fill-rule="evenodd" fill-opacity="1" /><path clip-path="url(#clip680)" d="M2197.11 247.294 Q2197.11 240.244 2198.89 236.403 Q2201.37 230.688 2207.23 230.688 Q2208.47 230.688 2209.76 231.039 Q2211.07 231.367 2212.71 232.655 Q2214.37 233.943 2215.38 236.052 Q2217.3 240.127 2217.3 247.294 Q2217.3 254.298 2215.52 258.115 Q2212.92 263.69 2207.18 263.69 Q2205.03 263.69 2202.83 262.589 Q2200.65 261.488 2199.27 258.842 Q2197.11 254.883 2197.11 247.294 M2201.09 246.709 Q2201.09 253.946 2201.61 256.827 Q2202.19 259.942 2203.79 261.301 Q2205.4 262.636 2207.18 262.636 Q2209.1 262.636 2210.7 261.207 Q2212.31 259.755 2212.8 256.64 Q2213.34 253.572 2213.32 246.709 Q2213.32 240.033 2212.85 237.363 Q2212.22 234.248 2210.53 233.007 Q2208.87 231.742 2207.18 231.742 Q2206.55 231.742 2205.87 231.929 Q2205.22 232.117 2204.26 232.655 Q2203.29 233.194 2202.55 234.529 Q2201.82 235.864 2201.47 237.878 Q2201.09 240.478 2201.09 246.709 Z" fill="#000000" fill-rule="evenodd" fill-opacity="1" /><path clip-path="url(#clip680)" d="M2221.59 261.863 Q2220.86 261.09 2220.86 260.083 Q2220.86 259.076 2221.59 258.35 Q2222.31 257.6 2223.41 257.6 Q2224.47 257.6 2225.17 258.303 Q2225.9 258.982 2225.9 260.106 Q2225.9 261.207 2225.12 261.933 Q2224.37 262.636 2223.41 262.636 Q2222.31 262.636 2221.59 261.863 Z" fill="#000000" fill-rule="evenodd" fill-opacity="1" /><path clip-path="url(#clip680)" d="M2234.06 247.294 Q2234.06 240.244 2235.84 236.403 Q2238.32 230.688 2244.18 230.688 Q2245.42 230.688 2246.71 231.039 Q2248.02 231.367 2249.66 232.655 Q2251.32 233.943 2252.33 236.052 Q2254.25 240.127 2254.25 247.294 Q2254.25 254.298 2252.47 258.115 Q2249.87 263.69 2244.13 263.69 Q2241.98 263.69 2239.77 262.589 Q2237.6 261.488 2236.21 258.842 Q2234.06 254.883 2234.06 247.294 M2238.04 246.709 Q2238.04 253.946 2238.56 256.827 Q2239.14 259.942 2240.73 261.301 Q2242.35 262.636 2244.13 262.636 Q2246.05 262.636 2247.64 261.207 Q2249.26 259.755 2249.75 256.64 Q2250.29 253.572 2250.27 246.709 Q2250.27 240.033 2249.8 237.363 Q2249.17 234.248 2247.48 233.007 Q2245.82 231.742 2244.13 231.742 Q2243.5 231.742 2242.82 231.929 Q2242.16 232.117 2241.2 232.655 Q2240.24 233.194 2239.49 234.529 Q2238.77 235.864 2238.41 237.878 Q2238.04 240.478 2238.04 246.709 Z" fill="#000000" fill-rule="evenodd" fill-opacity="1" /></svg>
