<?xml version="1.0" encoding="utf-8"?>
<svg xmlns="http://www.w3.org/2000/svg" xmlns:xlink="http://www.w3.org/1999/xlink" width="600" height="400" viewBox="0 0 2400 1600">
<defs>
  <clipPath id="clip000">
    <rect x="0" y="0" width="2400" height="1600"/>
  </clipPath>
</defs>
<path clip-path="url(#clip000)" d="
M0 1600 L2400 1600 L2400 0 L0 0  Z
  " fill="#ffffff" fill-rule="evenodd" fill-opacity="1"/>
<defs>
  <clipPath id="clip001">
    <rect x="480" y="0" width="1681" height="1600"/>
  </clipPath>
</defs>
<path clip-path="url(#clip000)" d="
M112.177 686.448 L2352.76 686.448 L2352.76 47.2441 L112.177 47.2441  Z
  " fill="#ffffff" fill-rule="evenodd" fill-opacity="1"/>
<defs>
  <clipPath id="clip002">
    <rect x="112" y="47" width="2242" height="640"/>
  </clipPath>
</defs>
<polyline clip-path="url(#clip002)" style="stroke:#000000; stroke-linecap:butt; stroke-linejoin:round; stroke-width:2; stroke-opacity:0.1; fill:none" points="
  620.591,686.448 620.591,47.2441 
  "/>
<polyline clip-path="url(#clip002)" style="stroke:#000000; stroke-linecap:butt; stroke-linejoin:round; stroke-width:2; stroke-opacity:0.1; fill:none" points="
  1176.84,686.448 1176.84,47.2441 
  "/>
<polyline clip-path="url(#clip002)" style="stroke:#000000; stroke-linecap:butt; stroke-linejoin:round; stroke-width:2; stroke-opacity:0.1; fill:none" points="
  1733.09,686.448 1733.09,47.2441 
  "/>
<polyline clip-path="url(#clip002)" style="stroke:#000000; stroke-linecap:butt; stroke-linejoin:round; stroke-width:2; stroke-opacity:0.1; fill:none" points="
  2289.34,686.448 2289.34,47.2441 
  "/>
<polyline clip-path="url(#clip000)" style="stroke:#000000; stroke-linecap:butt; stroke-linejoin:round; stroke-width:4; stroke-opacity:1; fill:none" points="
  112.177,686.448 2352.76,686.448 
  "/>
<polyline clip-path="url(#clip000)" style="stroke:#000000; stroke-linecap:butt; stroke-linejoin:round; stroke-width:4; stroke-opacity:1; fill:none" points="
  620.591,686.448 620.591,667.55 
  "/>
<polyline clip-path="url(#clip000)" style="stroke:#000000; stroke-linecap:butt; stroke-linejoin:round; stroke-width:4; stroke-opacity:1; fill:none" points="
  1176.84,686.448 1176.84,667.55 
  "/>
<polyline clip-path="url(#clip000)" style="stroke:#000000; stroke-linecap:butt; stroke-linejoin:round; stroke-width:4; stroke-opacity:1; fill:none" points="
  1733.09,686.448 1733.09,667.55 
  "/>
<polyline clip-path="url(#clip000)" style="stroke:#000000; stroke-linecap:butt; stroke-linejoin:round; stroke-width:4; stroke-opacity:1; fill:none" points="
  2289.34,686.448 2289.34,667.55 
  "/>
<path clip-path="url(#clip000)" d="M610.868 712.56 L629.225 712.56 L629.225 716.495 L615.151 716.495 L615.151 724.967 Q616.169 724.62 617.188 724.458 Q618.206 724.273 619.225 724.273 Q625.012 724.273 628.391 727.444 Q631.771 730.615 631.771 736.032 Q631.771 741.611 628.299 744.712 Q624.827 747.791 618.507 747.791 Q616.331 747.791 614.063 747.421 Q611.817 747.05 609.41 746.31 L609.41 741.611 Q611.493 742.745 613.716 743.3 Q615.938 743.856 618.415 743.856 Q622.419 743.856 624.757 741.75 Q627.095 739.643 627.095 736.032 Q627.095 732.421 624.757 730.314 Q622.419 728.208 618.415 728.208 Q616.54 728.208 614.665 728.625 Q612.813 729.041 610.868 729.921 L610.868 712.56 Z" fill="#000000" fill-rule="evenodd" fill-opacity="1" /><path clip-path="url(#clip000)" d="M1151.53 743.185 L1159.17 743.185 L1159.17 716.819 L1150.86 718.486 L1150.86 714.227 L1159.12 712.56 L1163.8 712.56 L1163.8 743.185 L1171.44 743.185 L1171.44 747.12 L1151.53 747.12 L1151.53 743.185 Z" fill="#000000" fill-rule="evenodd" fill-opacity="1" /><path clip-path="url(#clip000)" d="M1190.88 715.639 Q1187.27 715.639 1185.44 719.203 Q1183.64 722.745 1183.64 729.875 Q1183.64 736.981 1185.44 740.546 Q1187.27 744.087 1190.88 744.087 Q1194.51 744.087 1196.32 740.546 Q1198.15 736.981 1198.15 729.875 Q1198.15 722.745 1196.32 719.203 Q1194.51 715.639 1190.88 715.639 M1190.88 711.935 Q1196.69 711.935 1199.75 716.541 Q1202.83 721.125 1202.83 729.875 Q1202.83 738.601 1199.75 743.208 Q1196.69 747.791 1190.88 747.791 Q1185.07 747.791 1181.99 743.208 Q1178.94 738.601 1178.94 729.875 Q1178.94 721.125 1181.99 716.541 Q1185.07 711.935 1190.88 711.935 Z" fill="#000000" fill-rule="evenodd" fill-opacity="1" /><path clip-path="url(#clip000)" d="M1708.28 743.185 L1715.92 743.185 L1715.92 716.819 L1707.61 718.486 L1707.61 714.227 L1715.87 712.56 L1720.55 712.56 L1720.55 743.185 L1728.18 743.185 L1728.18 747.12 L1708.28 747.12 L1708.28 743.185 Z" fill="#000000" fill-rule="evenodd" fill-opacity="1" /><path clip-path="url(#clip000)" d="M1737.68 712.56 L1756.03 712.56 L1756.03 716.495 L1741.96 716.495 L1741.96 724.967 Q1742.98 724.62 1744 724.458 Q1745.01 724.273 1746.03 724.273 Q1751.82 724.273 1755.2 727.444 Q1758.58 730.615 1758.58 736.032 Q1758.58 741.611 1755.11 744.712 Q1751.63 747.791 1745.31 747.791 Q1743.14 747.791 1740.87 747.421 Q1738.62 747.05 1736.22 746.31 L1736.22 741.611 Q1738.3 742.745 1740.52 743.3 Q1742.75 743.856 1745.22 743.856 Q1749.23 743.856 1751.56 741.75 Q1753.9 739.643 1753.9 736.032 Q1753.9 732.421 1751.56 730.314 Q1749.23 728.208 1745.22 728.208 Q1743.35 728.208 1741.47 728.625 Q1739.62 729.041 1737.68 729.921 L1737.68 712.56 Z" fill="#000000" fill-rule="evenodd" fill-opacity="1" /><path clip-path="url(#clip000)" d="M2268.12 743.185 L2284.44 743.185 L2284.44 747.12 L2262.49 747.12 L2262.49 743.185 Q2265.15 740.43 2269.74 735.8 Q2274.34 731.148 2275.52 729.805 Q2277.77 727.282 2278.65 725.546 Q2279.55 723.787 2279.55 722.097 Q2279.55 719.342 2277.61 717.606 Q2275.69 715.87 2272.58 715.87 Q2270.39 715.87 2267.93 716.634 Q2265.5 717.398 2262.72 718.949 L2262.72 714.227 Q2265.55 713.092 2268 712.514 Q2270.45 711.935 2272.49 711.935 Q2277.86 711.935 2281.06 714.62 Q2284.25 717.305 2284.25 721.796 Q2284.25 723.926 2283.44 725.847 Q2282.65 727.745 2280.55 730.338 Q2279.97 731.009 2276.87 734.226 Q2273.76 737.421 2268.12 743.185 Z" fill="#000000" fill-rule="evenodd" fill-opacity="1" /><path clip-path="url(#clip000)" d="M2304.25 715.639 Q2300.64 715.639 2298.81 719.203 Q2297.01 722.745 2297.01 729.875 Q2297.01 736.981 2298.81 740.546 Q2300.64 744.087 2304.25 744.087 Q2307.88 744.087 2309.69 740.546 Q2311.52 736.981 2311.52 729.875 Q2311.52 722.745 2309.69 719.203 Q2307.88 715.639 2304.25 715.639 M2304.25 711.935 Q2310.06 711.935 2313.12 716.541 Q2316.2 721.125 2316.2 729.875 Q2316.2 738.601 2313.12 743.208 Q2310.06 747.791 2304.25 747.791 Q2298.44 747.791 2295.36 743.208 Q2292.31 738.601 2292.31 729.875 Q2292.31 721.125 2295.36 716.541 Q2298.44 711.935 2304.25 711.935 Z" fill="#000000" fill-rule="evenodd" fill-opacity="1" /><polyline clip-path="url(#clip002)" style="stroke:#000000; stroke-linecap:butt; stroke-linejoin:round; stroke-width:2; stroke-opacity:0.1; fill:none" points="
  112.177,655.988 2352.76,655.988 
  "/>
<polyline clip-path="url(#clip002)" style="stroke:#000000; stroke-linecap:butt; stroke-linejoin:round; stroke-width:2; stroke-opacity:0.1; fill:none" points="
  112.177,504.459 2352.76,504.459 
  "/>
<polyline clip-path="url(#clip002)" style="stroke:#000000; stroke-linecap:butt; stroke-linejoin:round; stroke-width:2; stroke-opacity:0.1; fill:none" points="
  112.177,352.93 2352.76,352.93 
  "/>
<polyline clip-path="url(#clip002)" style="stroke:#000000; stroke-linecap:butt; stroke-linejoin:round; stroke-width:2; stroke-opacity:0.1; fill:none" points="
  112.177,201.401 2352.76,201.401 
  "/>
<polyline clip-path="url(#clip002)" style="stroke:#000000; stroke-linecap:butt; stroke-linejoin:round; stroke-width:2; stroke-opacity:0.1; fill:none" points="
  112.177,49.8727 2352.76,49.8727 
  "/>
<polyline clip-path="url(#clip000)" style="stroke:#000000; stroke-linecap:butt; stroke-linejoin:round; stroke-width:4; stroke-opacity:1; fill:none" points="
  112.177,686.448 112.177,47.2441 
  "/>
<polyline clip-path="url(#clip000)" style="stroke:#000000; stroke-linecap:butt; stroke-linejoin:round; stroke-width:4; stroke-opacity:1; fill:none" points="
  112.177,655.988 131.075,655.988 
  "/>
<polyline clip-path="url(#clip000)" style="stroke:#000000; stroke-linecap:butt; stroke-linejoin:round; stroke-width:4; stroke-opacity:1; fill:none" points="
  112.177,504.459 131.075,504.459 
  "/>
<polyline clip-path="url(#clip000)" style="stroke:#000000; stroke-linecap:butt; stroke-linejoin:round; stroke-width:4; stroke-opacity:1; fill:none" points="
  112.177,352.93 131.075,352.93 
  "/>
<polyline clip-path="url(#clip000)" style="stroke:#000000; stroke-linecap:butt; stroke-linejoin:round; stroke-width:4; stroke-opacity:1; fill:none" points="
  112.177,201.401 131.075,201.401 
  "/>
<polyline clip-path="url(#clip000)" style="stroke:#000000; stroke-linecap:butt; stroke-linejoin:round; stroke-width:4; stroke-opacity:1; fill:none" points="
  112.177,49.8727 131.075,49.8727 
  "/>
<path clip-path="url(#clip000)" d="M56.2699 669.332 L63.9087 669.332 L63.9087 642.967 L55.5986 644.633 L55.5986 640.374 L63.8624 638.708 L68.5383 638.708 L68.5383 669.332 L76.1772 669.332 L76.1772 673.268 L56.2699 673.268 L56.2699 669.332 Z" fill="#000000" fill-rule="evenodd" fill-opacity="1" /><path clip-path="url(#clip000)" d="M59.8578 517.804 L76.1772 517.804 L76.1772 521.739 L54.2328 521.739 L54.2328 517.804 Q56.8949 515.049 61.4782 510.419 Q66.0846 505.767 67.2652 504.424 Q69.5105 501.901 70.3902 500.165 Q71.2929 498.406 71.2929 496.716 Q71.2929 493.961 69.3485 492.225 Q67.4272 490.489 64.3254 490.489 Q62.1263 490.489 59.6726 491.253 Q57.2421 492.017 54.4643 493.568 L54.4643 488.845 Q57.2884 487.711 59.7421 487.132 Q62.1958 486.554 64.2328 486.554 Q69.6031 486.554 72.7976 489.239 Q75.992 491.924 75.992 496.415 Q75.992 498.544 75.1818 500.466 Q74.3948 502.364 72.2883 504.956 Q71.7096 505.628 68.6078 508.845 Q65.5059 512.04 59.8578 517.804 Z" fill="#000000" fill-rule="evenodd" fill-opacity="1" /><path clip-path="url(#clip000)" d="M69.0476 351.576 Q72.404 352.294 74.279 354.562 Q76.1772 356.831 76.1772 360.164 Q76.1772 365.28 72.6587 368.08 Q69.1402 370.881 62.6587 370.881 Q60.4828 370.881 58.168 370.442 Q55.8764 370.025 53.4227 369.168 L53.4227 364.655 Q55.3671 365.789 57.6819 366.368 Q59.9967 366.946 62.5198 366.946 Q66.918 366.946 69.2096 365.21 Q71.5244 363.474 71.5244 360.164 Q71.5244 357.108 69.3717 355.395 Q67.242 353.659 63.4226 353.659 L59.3949 353.659 L59.3949 349.817 L63.6078 349.817 Q67.0569 349.817 68.8855 348.451 Q70.7142 347.062 70.7142 344.469 Q70.7142 341.807 68.8161 340.395 Q66.9411 338.96 63.4226 338.96 Q61.5013 338.96 59.3023 339.377 Q57.1032 339.794 54.4643 340.673 L54.4643 336.507 Q57.1264 335.766 59.4412 335.395 Q61.7791 335.025 63.8393 335.025 Q69.1633 335.025 72.2652 337.456 Q75.367 339.863 75.367 343.983 Q75.367 346.854 73.7235 348.844 Q72.08 350.812 69.0476 351.576 Z" fill="#000000" fill-rule="evenodd" fill-opacity="1" /><path clip-path="url(#clip000)" d="M66.5939 188.195 L54.7884 206.644 L66.5939 206.644 L66.5939 188.195 M65.367 184.121 L71.2466 184.121 L71.2466 206.644 L76.1772 206.644 L76.1772 210.533 L71.2466 210.533 L71.2466 218.681 L66.5939 218.681 L66.5939 210.533 L50.9921 210.533 L50.9921 206.019 L65.367 184.121 Z" fill="#000000" fill-rule="evenodd" fill-opacity="1" /><path clip-path="url(#clip000)" d="M55.2745 32.5927 L73.6309 32.5927 L73.6309 36.5278 L59.5569 36.5278 L59.5569 45 Q60.5754 44.6528 61.5939 44.4907 Q62.6124 44.3056 63.6309 44.3056 Q69.418 44.3056 72.7976 47.4768 Q76.1772 50.6481 76.1772 56.0648 Q76.1772 61.6434 72.705 64.7453 Q69.2328 67.8239 62.9134 67.8239 Q60.7374 67.8239 58.4689 67.4536 Q56.2236 67.0832 53.8162 66.3425 L53.8162 61.6434 Q55.8995 62.7777 58.1217 63.3332 Q60.3439 63.8888 62.8208 63.8888 Q66.8254 63.8888 69.1633 61.7823 Q71.5013 59.6758 71.5013 56.0648 Q71.5013 52.4537 69.1633 50.3472 Q66.8254 48.2407 62.8208 48.2407 Q60.9458 48.2407 59.0708 48.6574 Q57.2189 49.074 55.2745 49.9537 L55.2745 32.5927 Z" fill="#000000" fill-rule="evenodd" fill-opacity="1" /><polyline clip-path="url(#clip002)" style="stroke:#009af9; stroke-linecap:butt; stroke-linejoin:round; stroke-width:4; stroke-opacity:1; fill:none" points="
  175.59,668.357 286.84,390.039 398.09,436.425 509.34,250.88 620.591,65.3348 731.841,65.3348 843.091,65.3348 954.341,65.3348 1065.59,65.3348 1176.84,65.3348 
  1288.09,65.3348 1399.34,65.3348 1510.59,65.3348 1621.84,65.3348 1733.09,65.3348 1844.34,65.3348 1955.59,65.3348 2066.84,65.3348 2178.09,65.3348 2289.34,65.3348 
  
  "/>
<polyline clip-path="url(#clip002)" style="stroke:#e26f46; stroke-linecap:butt; stroke-linejoin:round; stroke-width:4; stroke-opacity:1; fill:none" points="
  175.59,467.35 286.84,111.721 398.09,111.721 509.34,111.721 620.591,111.721 731.841,111.721 843.091,111.721 954.341,111.721 1065.59,111.721 1176.84,111.721 
  1288.09,111.721 1399.34,111.721 1510.59,111.721 1621.84,111.721 1733.09,111.721 1844.34,111.721 1955.59,111.721 2066.84,111.721 2178.09,111.721 2289.34,111.721 
  
  "/>
<path clip-path="url(#clip000)" d="
M1866.41 665.141 L2278.07 665.141 L2278.07 509.621 L1866.41 509.621  Z
  " fill="#ffffff" fill-rule="evenodd" fill-opacity="1"/>
<polyline clip-path="url(#clip000)" style="stroke:#000000; stroke-linecap:butt; stroke-linejoin:round; stroke-width:4; stroke-opacity:1; fill:none" points="
  1866.41,665.141 2278.07,665.141 2278.07,509.621 1866.41,509.621 1866.41,665.141 
  "/>
<polyline clip-path="url(#clip000)" style="stroke:#009af9; stroke-linecap:butt; stroke-linejoin:round; stroke-width:4; stroke-opacity:1; fill:none" points="
  1891.3,561.461 2040.68,561.461 
  "/>
<path clip-path="url(#clip000)" d="M2089.6 564.713 L2089.6 566.797 L2070.02 566.797 Q2070.29 571.195 2072.66 573.51 Q2075.04 575.801 2079.28 575.801 Q2081.73 575.801 2084.02 575.199 Q2086.34 574.598 2088.6 573.394 L2088.6 577.422 Q2086.31 578.394 2083.91 578.903 Q2081.5 579.412 2079.02 579.412 Q2072.82 579.412 2069.18 575.801 Q2065.57 572.19 2065.57 566.033 Q2065.57 559.667 2069 555.94 Q2072.45 552.19 2078.28 552.19 Q2083.51 552.19 2086.54 555.57 Q2089.6 558.926 2089.6 564.713 M2085.34 563.463 Q2085.29 559.968 2083.37 557.885 Q2081.47 555.801 2078.33 555.801 Q2074.76 555.801 2072.61 557.815 Q2070.48 559.829 2070.16 563.487 L2085.34 563.463 Z" fill="#000000" fill-rule="evenodd" fill-opacity="1" /><path clip-path="url(#clip000)" d="M2100.71 574.852 L2100.71 588.602 L2096.43 588.602 L2096.43 552.815 L2100.71 552.815 L2100.71 556.75 Q2102.05 554.436 2104.09 553.325 Q2106.15 552.19 2109 552.19 Q2113.72 552.19 2116.66 555.94 Q2119.62 559.69 2119.62 565.801 Q2119.62 571.912 2116.66 575.662 Q2113.72 579.412 2109 579.412 Q2106.15 579.412 2104.09 578.301 Q2102.05 577.167 2100.71 574.852 M2115.2 565.801 Q2115.2 561.102 2113.26 558.44 Q2111.34 555.755 2107.96 555.755 Q2104.58 555.755 2102.63 558.44 Q2100.71 561.102 2100.71 565.801 Q2100.71 570.5 2102.63 573.186 Q2104.58 575.848 2107.96 575.848 Q2111.34 575.848 2113.26 573.186 Q2115.2 570.5 2115.2 565.801 Z" fill="#000000" fill-rule="evenodd" fill-opacity="1" /><path clip-path="url(#clip000)" d="M2143.21 553.579 L2143.21 557.607 Q2141.4 556.681 2139.46 556.218 Q2137.52 555.755 2135.43 555.755 Q2132.26 555.755 2130.66 556.727 Q2129.09 557.7 2129.09 559.644 Q2129.09 561.125 2130.22 561.982 Q2131.36 562.815 2134.78 563.579 L2136.24 563.903 Q2140.78 564.875 2142.68 566.658 Q2144.6 568.417 2144.6 571.588 Q2144.6 575.199 2141.73 577.306 Q2138.88 579.412 2133.88 579.412 Q2131.8 579.412 2129.53 578.996 Q2127.28 578.602 2124.78 577.792 L2124.78 573.394 Q2127.15 574.621 2129.44 575.246 Q2131.73 575.848 2133.97 575.848 Q2136.98 575.848 2138.6 574.829 Q2140.22 573.787 2140.22 571.912 Q2140.22 570.176 2139.04 569.25 Q2137.89 568.324 2133.93 567.468 L2132.45 567.121 Q2128.49 566.287 2126.73 564.574 Q2124.97 562.838 2124.97 559.829 Q2124.97 556.172 2127.56 554.181 Q2130.15 552.19 2134.92 552.19 Q2137.28 552.19 2139.37 552.538 Q2141.45 552.885 2143.21 553.579 Z" fill="#000000" fill-rule="evenodd" fill-opacity="1" /><path clip-path="url(#clip000)" d="M2151.38 552.815 L2155.64 552.815 L2155.64 578.741 L2151.38 578.741 L2151.38 552.815 M2151.38 542.723 L2155.64 542.723 L2155.64 548.116 L2151.38 548.116 L2151.38 542.723 Z" fill="#000000" fill-rule="evenodd" fill-opacity="1" /><path clip-path="url(#clip000)" d="M2164.55 542.723 L2168.81 542.723 L2168.81 578.741 L2164.55 578.741 L2164.55 542.723 Z" fill="#000000" fill-rule="evenodd" fill-opacity="1" /><path clip-path="url(#clip000)" d="M2187.77 555.801 Q2184.34 555.801 2182.35 558.487 Q2180.36 561.149 2180.36 565.801 Q2180.36 570.454 2182.33 573.139 Q2184.32 575.801 2187.77 575.801 Q2191.17 575.801 2193.16 573.116 Q2195.15 570.431 2195.15 565.801 Q2195.15 561.195 2193.16 558.51 Q2191.17 555.801 2187.77 555.801 M2187.77 552.19 Q2193.33 552.19 2196.5 555.801 Q2199.67 559.412 2199.67 565.801 Q2199.67 572.167 2196.5 575.801 Q2193.33 579.412 2187.77 579.412 Q2182.19 579.412 2179.02 575.801 Q2175.87 572.167 2175.87 565.801 Q2175.87 559.412 2179.02 555.801 Q2182.19 552.19 2187.77 552.19 Z" fill="#000000" fill-rule="evenodd" fill-opacity="1" /><path clip-path="url(#clip000)" d="M2228.28 563.093 L2228.28 578.741 L2224.02 578.741 L2224.02 563.232 Q2224.02 559.551 2222.58 557.723 Q2221.15 555.894 2218.28 555.894 Q2214.83 555.894 2212.84 558.093 Q2210.85 560.292 2210.85 564.088 L2210.85 578.741 L2206.57 578.741 L2206.57 552.815 L2210.85 552.815 L2210.85 556.843 Q2212.38 554.505 2214.44 553.348 Q2216.52 552.19 2219.23 552.19 Q2223.7 552.19 2225.99 554.968 Q2228.28 557.723 2228.28 563.093 Z" fill="#000000" fill-rule="evenodd" fill-opacity="1" /><polyline clip-path="url(#clip000)" style="stroke:#e26f46; stroke-linecap:butt; stroke-linejoin:round; stroke-width:4; stroke-opacity:1; fill:none" points="
  1891.3,613.301 2040.68,613.301 
  "/>
<path clip-path="url(#clip000)" d="M2072.98 597.294 L2072.98 604.655 L2081.75 604.655 L2081.75 607.965 L2072.98 607.965 L2072.98 622.039 Q2072.98 625.211 2073.84 626.114 Q2074.72 627.016 2077.38 627.016 L2081.75 627.016 L2081.75 630.581 L2077.38 630.581 Q2072.45 630.581 2070.57 628.752 Q2068.7 626.901 2068.7 622.039 L2068.7 607.965 L2065.57 607.965 L2065.57 604.655 L2068.7 604.655 L2068.7 597.294 L2072.98 597.294 Z" fill="#000000" fill-rule="evenodd" fill-opacity="1" /><path clip-path="url(#clip000)" d="M2108.9 614.933 L2108.9 630.581 L2104.65 630.581 L2104.65 615.072 Q2104.65 611.391 2103.21 609.563 Q2101.78 607.734 2098.91 607.734 Q2095.46 607.734 2093.47 609.933 Q2091.47 612.132 2091.47 615.928 L2091.47 630.581 L2087.19 630.581 L2087.19 594.563 L2091.47 594.563 L2091.47 608.683 Q2093 606.345 2095.06 605.188 Q2097.15 604.03 2099.85 604.03 Q2104.32 604.03 2106.61 606.808 Q2108.9 609.563 2108.9 614.933 Z" fill="#000000" fill-rule="evenodd" fill-opacity="1" /><path clip-path="url(#clip000)" d="M2139.58 616.553 L2139.58 618.637 L2119.99 618.637 Q2120.27 623.035 2122.63 625.35 Q2125.02 627.641 2129.25 627.641 Q2131.71 627.641 2134 627.039 Q2136.31 626.438 2138.58 625.234 L2138.58 629.262 Q2136.29 630.234 2133.88 630.743 Q2131.47 631.252 2129 631.252 Q2122.79 631.252 2119.16 627.641 Q2115.55 624.03 2115.55 617.873 Q2115.55 611.507 2118.97 607.78 Q2122.42 604.03 2128.26 604.03 Q2133.49 604.03 2136.52 607.41 Q2139.58 610.766 2139.58 616.553 M2135.32 615.303 Q2135.27 611.808 2133.35 609.725 Q2131.45 607.641 2128.3 607.641 Q2124.74 607.641 2122.59 609.655 Q2120.46 611.669 2120.13 615.327 L2135.32 615.303 Z" fill="#000000" fill-rule="evenodd" fill-opacity="1" /><path clip-path="url(#clip000)" d="M2150.78 597.294 L2150.78 604.655 L2159.55 604.655 L2159.55 607.965 L2150.78 607.965 L2150.78 622.039 Q2150.78 625.211 2151.64 626.114 Q2152.52 627.016 2155.18 627.016 L2159.55 627.016 L2159.55 630.581 L2155.18 630.581 Q2150.25 630.581 2148.37 628.752 Q2146.5 626.901 2146.5 622.039 L2146.5 607.965 L2143.37 607.965 L2143.37 604.655 L2146.5 604.655 L2146.5 597.294 L2150.78 597.294 Z" fill="#000000" fill-rule="evenodd" fill-opacity="1" /><path clip-path="url(#clip000)" d="M2176.94 617.549 Q2171.77 617.549 2169.78 618.729 Q2167.79 619.91 2167.79 622.757 Q2167.79 625.026 2169.27 626.368 Q2170.78 627.688 2173.35 627.688 Q2176.89 627.688 2179.02 625.188 Q2181.17 622.664 2181.17 618.498 L2181.17 617.549 L2176.94 617.549 M2185.43 615.789 L2185.43 630.581 L2181.17 630.581 L2181.17 626.646 Q2179.71 629.007 2177.54 630.141 Q2175.36 631.252 2172.21 631.252 Q2168.23 631.252 2165.87 629.03 Q2163.53 626.785 2163.53 623.035 Q2163.53 618.66 2166.45 616.438 Q2169.39 614.215 2175.2 614.215 L2181.17 614.215 L2181.17 613.799 Q2181.17 610.859 2179.23 609.262 Q2177.31 607.641 2173.81 607.641 Q2171.59 607.641 2169.48 608.174 Q2167.38 608.706 2165.43 609.771 L2165.43 605.836 Q2167.77 604.933 2169.97 604.493 Q2172.17 604.03 2174.25 604.03 Q2179.88 604.03 2182.65 606.947 Q2185.43 609.864 2185.43 615.789 Z" fill="#000000" fill-rule="evenodd" fill-opacity="1" /><path clip-path="url(#clip000)" d="
M112.177 1486.45 L2352.76 1486.45 L2352.76 847.244 L112.177 847.244  Z
  " fill="#ffffff" fill-rule="evenodd" fill-opacity="1"/>
<defs>
  <clipPath id="clip003">
    <rect x="112" y="847" width="2242" height="640"/>
  </clipPath>
</defs>
<polyline clip-path="url(#clip003)" style="stroke:#000000; stroke-linecap:butt; stroke-linejoin:round; stroke-width:2; stroke-opacity:0.1; fill:none" points="
  620.591,1486.45 620.591,847.244 
  "/>
<polyline clip-path="url(#clip003)" style="stroke:#000000; stroke-linecap:butt; stroke-linejoin:round; stroke-width:2; stroke-opacity:0.1; fill:none" points="
  1176.84,1486.45 1176.84,847.244 
  "/>
<polyline clip-path="url(#clip003)" style="stroke:#000000; stroke-linecap:butt; stroke-linejoin:round; stroke-width:2; stroke-opacity:0.1; fill:none" points="
  1733.09,1486.45 1733.09,847.244 
  "/>
<polyline clip-path="url(#clip003)" style="stroke:#000000; stroke-linecap:butt; stroke-linejoin:round; stroke-width:2; stroke-opacity:0.1; fill:none" points="
  2289.34,1486.45 2289.34,847.244 
  "/>
<polyline clip-path="url(#clip000)" style="stroke:#000000; stroke-linecap:butt; stroke-linejoin:round; stroke-width:4; stroke-opacity:1; fill:none" points="
  112.177,1486.45 2352.76,1486.45 
  "/>
<polyline clip-path="url(#clip000)" style="stroke:#000000; stroke-linecap:butt; stroke-linejoin:round; stroke-width:4; stroke-opacity:1; fill:none" points="
  620.591,1486.45 620.591,1467.55 
  "/>
<polyline clip-path="url(#clip000)" style="stroke:#000000; stroke-linecap:butt; stroke-linejoin:round; stroke-width:4; stroke-opacity:1; fill:none" points="
  1176.84,1486.45 1176.84,1467.55 
  "/>
<polyline clip-path="url(#clip000)" style="stroke:#000000; stroke-linecap:butt; stroke-linejoin:round; stroke-width:4; stroke-opacity:1; fill:none" points="
  1733.09,1486.45 1733.09,1467.55 
  "/>
<polyline clip-path="url(#clip000)" style="stroke:#000000; stroke-linecap:butt; stroke-linejoin:round; stroke-width:4; stroke-opacity:1; fill:none" points="
  2289.34,1486.45 2289.34,1467.55 
  "/>
<path clip-path="url(#clip000)" d="M610.868 1512.56 L629.225 1512.56 L629.225 1516.5 L615.151 1516.5 L615.151 1524.97 Q616.169 1524.62 617.188 1524.46 Q618.206 1524.27 619.225 1524.27 Q625.012 1524.27 628.391 1527.44 Q631.771 1530.62 631.771 1536.03 Q631.771 1541.61 628.299 1544.71 Q624.827 1547.79 618.507 1547.79 Q616.331 1547.79 614.063 1547.42 Q611.817 1547.05 609.41 1546.31 L609.41 1541.61 Q611.493 1542.74 613.716 1543.3 Q615.938 1543.86 618.415 1543.86 Q622.419 1543.86 624.757 1541.75 Q627.095 1539.64 627.095 1536.03 Q627.095 1532.42 624.757 1530.31 Q622.419 1528.21 618.415 1528.21 Q616.54 1528.21 614.665 1528.62 Q612.813 1529.04 610.868 1529.92 L610.868 1512.56 Z" fill="#000000" fill-rule="evenodd" fill-opacity="1" /><path clip-path="url(#clip000)" d="M1151.53 1543.18 L1159.17 1543.18 L1159.17 1516.82 L1150.86 1518.49 L1150.86 1514.23 L1159.12 1512.56 L1163.8 1512.56 L1163.8 1543.18 L1171.44 1543.18 L1171.44 1547.12 L1151.53 1547.12 L1151.53 1543.18 Z" fill="#000000" fill-rule="evenodd" fill-opacity="1" /><path clip-path="url(#clip000)" d="M1190.88 1515.64 Q1187.27 1515.64 1185.44 1519.2 Q1183.64 1522.75 1183.64 1529.87 Q1183.64 1536.98 1185.44 1540.55 Q1187.27 1544.09 1190.88 1544.09 Q1194.51 1544.09 1196.32 1540.55 Q1198.15 1536.98 1198.15 1529.87 Q1198.15 1522.75 1196.32 1519.2 Q1194.51 1515.64 1190.88 1515.64 M1190.88 1511.93 Q1196.69 1511.93 1199.75 1516.54 Q1202.83 1521.12 1202.83 1529.87 Q1202.83 1538.6 1199.75 1543.21 Q1196.69 1547.79 1190.88 1547.79 Q1185.07 1547.79 1181.99 1543.21 Q1178.94 1538.6 1178.94 1529.87 Q1178.94 1521.12 1181.99 1516.54 Q1185.07 1511.93 1190.88 1511.93 Z" fill="#000000" fill-rule="evenodd" fill-opacity="1" /><path clip-path="url(#clip000)" d="M1708.28 1543.18 L1715.92 1543.18 L1715.92 1516.82 L1707.61 1518.49 L1707.61 1514.23 L1715.87 1512.56 L1720.55 1512.56 L1720.55 1543.18 L1728.18 1543.18 L1728.18 1547.12 L1708.28 1547.12 L1708.28 1543.18 Z" fill="#000000" fill-rule="evenodd" fill-opacity="1" /><path clip-path="url(#clip000)" d="M1737.68 1512.56 L1756.03 1512.56 L1756.03 1516.5 L1741.96 1516.5 L1741.96 1524.97 Q1742.98 1524.62 1744 1524.46 Q1745.01 1524.27 1746.03 1524.27 Q1751.82 1524.27 1755.2 1527.44 Q1758.58 1530.62 1758.58 1536.03 Q1758.58 1541.61 1755.11 1544.71 Q1751.63 1547.79 1745.31 1547.79 Q1743.14 1547.79 1740.87 1547.42 Q1738.62 1547.05 1736.22 1546.31 L1736.22 1541.61 Q1738.3 1542.74 1740.52 1543.3 Q1742.75 1543.86 1745.22 1543.86 Q1749.23 1543.86 1751.56 1541.75 Q1753.9 1539.64 1753.9 1536.03 Q1753.9 1532.42 1751.56 1530.31 Q1749.23 1528.21 1745.22 1528.21 Q1743.35 1528.21 1741.47 1528.62 Q1739.62 1529.04 1737.68 1529.92 L1737.68 1512.56 Z" fill="#000000" fill-rule="evenodd" fill-opacity="1" /><path clip-path="url(#clip000)" d="M2268.12 1543.18 L2284.44 1543.18 L2284.44 1547.12 L2262.49 1547.12 L2262.49 1543.18 Q2265.15 1540.43 2269.74 1535.8 Q2274.34 1531.15 2275.52 1529.81 Q2277.77 1527.28 2278.65 1525.55 Q2279.55 1523.79 2279.55 1522.1 Q2279.55 1519.34 2277.61 1517.61 Q2275.69 1515.87 2272.58 1515.87 Q2270.39 1515.87 2267.93 1516.63 Q2265.5 1517.4 2262.72 1518.95 L2262.72 1514.23 Q2265.55 1513.09 2268 1512.51 Q2270.45 1511.93 2272.49 1511.93 Q2277.86 1511.93 2281.06 1514.62 Q2284.25 1517.31 2284.25 1521.8 Q2284.25 1523.93 2283.44 1525.85 Q2282.65 1527.74 2280.55 1530.34 Q2279.97 1531.01 2276.87 1534.23 Q2273.76 1537.42 2268.12 1543.18 Z" fill="#000000" fill-rule="evenodd" fill-opacity="1" /><path clip-path="url(#clip000)" d="M2304.25 1515.64 Q2300.64 1515.64 2298.81 1519.2 Q2297.01 1522.75 2297.01 1529.87 Q2297.01 1536.98 2298.81 1540.55 Q2300.64 1544.09 2304.25 1544.09 Q2307.88 1544.09 2309.69 1540.55 Q2311.52 1536.98 2311.52 1529.87 Q2311.52 1522.75 2309.69 1519.2 Q2307.88 1515.64 2304.25 1515.64 M2304.25 1511.93 Q2310.06 1511.93 2313.12 1516.54 Q2316.2 1521.12 2316.2 1529.87 Q2316.2 1538.6 2313.12 1543.21 Q2310.06 1547.79 2304.25 1547.79 Q2298.44 1547.79 2295.36 1543.21 Q2292.31 1538.6 2292.31 1529.87 Q2292.31 1521.12 2295.36 1516.54 Q2298.44 1511.93 2304.25 1511.93 Z" fill="#000000" fill-rule="evenodd" fill-opacity="1" /><polyline clip-path="url(#clip003)" style="stroke:#000000; stroke-linecap:butt; stroke-linejoin:round; stroke-width:2; stroke-opacity:0.1; fill:none" points="
  112.177,1373 2352.76,1373 
  "/>
<polyline clip-path="url(#clip003)" style="stroke:#000000; stroke-linecap:butt; stroke-linejoin:round; stroke-width:2; stroke-opacity:0.1; fill:none" points="
  112.177,1235.56 2352.76,1235.56 
  "/>
<polyline clip-path="url(#clip003)" style="stroke:#000000; stroke-linecap:butt; stroke-linejoin:round; stroke-width:2; stroke-opacity:0.1; fill:none" points="
  112.177,1098.13 2352.76,1098.13 
  "/>
<polyline clip-path="url(#clip003)" style="stroke:#000000; stroke-linecap:butt; stroke-linejoin:round; stroke-width:2; stroke-opacity:0.1; fill:none" points="
  112.177,960.696 2352.76,960.696 
  "/>
<polyline clip-path="url(#clip000)" style="stroke:#000000; stroke-linecap:butt; stroke-linejoin:round; stroke-width:4; stroke-opacity:1; fill:none" points="
  112.177,1486.45 112.177,847.244 
  "/>
<polyline clip-path="url(#clip000)" style="stroke:#000000; stroke-linecap:butt; stroke-linejoin:round; stroke-width:4; stroke-opacity:1; fill:none" points="
  112.177,1373 131.075,1373 
  "/>
<polyline clip-path="url(#clip000)" style="stroke:#000000; stroke-linecap:butt; stroke-linejoin:round; stroke-width:4; stroke-opacity:1; fill:none" points="
  112.177,1235.56 131.075,1235.56 
  "/>
<polyline clip-path="url(#clip000)" style="stroke:#000000; stroke-linecap:butt; stroke-linejoin:round; stroke-width:4; stroke-opacity:1; fill:none" points="
  112.177,1098.13 131.075,1098.13 
  "/>
<polyline clip-path="url(#clip000)" style="stroke:#000000; stroke-linecap:butt; stroke-linejoin:round; stroke-width:4; stroke-opacity:1; fill:none" points="
  112.177,960.696 131.075,960.696 
  "/>
<path clip-path="url(#clip000)" d="M56.2699 1386.34 L63.9087 1386.34 L63.9087 1359.97 L55.5986 1361.64 L55.5986 1357.38 L63.8624 1355.72 L68.5383 1355.72 L68.5383 1386.34 L76.1772 1386.34 L76.1772 1390.28 L56.2699 1390.28 L56.2699 1386.34 Z" fill="#000000" fill-rule="evenodd" fill-opacity="1" /><path clip-path="url(#clip000)" d="M59.8578 1248.91 L76.1772 1248.91 L76.1772 1252.84 L54.2328 1252.84 L54.2328 1248.91 Q56.8949 1246.15 61.4782 1241.52 Q66.0846 1236.87 67.2652 1235.53 Q69.5105 1233 70.3902 1231.27 Q71.2929 1229.51 71.2929 1227.82 Q71.2929 1225.06 69.3485 1223.33 Q67.4272 1221.59 64.3254 1221.59 Q62.1263 1221.59 59.6726 1222.36 Q57.2421 1223.12 54.4643 1224.67 L54.4643 1219.95 Q57.2884 1218.81 59.7421 1218.24 Q62.1958 1217.66 64.2328 1217.66 Q69.6031 1217.66 72.7976 1220.34 Q75.992 1223.03 75.992 1227.52 Q75.992 1229.65 75.1818 1231.57 Q74.3948 1233.47 72.2883 1236.06 Q71.7096 1236.73 68.6078 1239.95 Q65.5059 1243.14 59.8578 1248.91 Z" fill="#000000" fill-rule="evenodd" fill-opacity="1" /><path clip-path="url(#clip000)" d="M69.0476 1096.78 Q72.404 1097.49 74.279 1099.76 Q76.1772 1102.03 76.1772 1105.36 Q76.1772 1110.48 72.6587 1113.28 Q69.1402 1116.08 62.6587 1116.08 Q60.4828 1116.08 58.168 1115.64 Q55.8764 1115.22 53.4227 1114.37 L53.4227 1109.85 Q55.3671 1110.99 57.6819 1111.57 Q59.9967 1112.15 62.5198 1112.15 Q66.918 1112.15 69.2096 1110.41 Q71.5244 1108.67 71.5244 1105.36 Q71.5244 1102.31 69.3717 1100.59 Q67.242 1098.86 63.4226 1098.86 L59.3949 1098.86 L59.3949 1095.02 L63.6078 1095.02 Q67.0569 1095.02 68.8855 1093.65 Q70.7142 1092.26 70.7142 1089.67 Q70.7142 1087.01 68.8161 1085.59 Q66.9411 1084.16 63.4226 1084.16 Q61.5013 1084.16 59.3023 1084.58 Q57.1032 1084.99 54.4643 1085.87 L54.4643 1081.71 Q57.1264 1080.97 59.4412 1080.59 Q61.7791 1080.22 63.8393 1080.22 Q69.1633 1080.22 72.2652 1082.66 Q75.367 1085.06 75.367 1089.18 Q75.367 1092.05 73.7235 1094.04 Q72.08 1096.01 69.0476 1096.78 Z" fill="#000000" fill-rule="evenodd" fill-opacity="1" /><path clip-path="url(#clip000)" d="M66.5939 947.491 L54.7884 965.939 L66.5939 965.939 L66.5939 947.491 M65.367 943.416 L71.2466 943.416 L71.2466 965.939 L76.1772 965.939 L76.1772 969.828 L71.2466 969.828 L71.2466 977.976 L66.5939 977.976 L66.5939 969.828 L50.9921 969.828 L50.9921 965.314 L65.367 943.416 Z" fill="#000000" fill-rule="evenodd" fill-opacity="1" /><polyline clip-path="url(#clip003)" style="stroke:#009af9; stroke-linecap:butt; stroke-linejoin:round; stroke-width:4; stroke-opacity:1; fill:none" points="
  175.59,1187.88 286.84,1243.98 398.09,1328.12 509.34,1356.17 620.591,1468.36 731.841,865.335 843.091,865.335 954.341,893.382 1065.59,893.382 1176.84,893.382 
  1288.09,893.382 1399.34,893.382 1510.59,893.382 1621.84,893.382 1733.09,893.382 1844.34,893.382 1955.59,893.382 2066.84,893.382 2178.09,893.382 2289.34,893.382 
  
  "/>
<polyline clip-path="url(#clip003)" style="stroke:#e26f46; stroke-linecap:butt; stroke-linejoin:round; stroke-width:4; stroke-opacity:1; fill:none" points="
  175.59,1286.05 286.84,1131.79 398.09,1019.6 509.34,1370.19 620.591,977.525 731.841,1103.74 843.091,1412.26 954.341,977.525 1065.59,977.525 1176.84,977.525 
  1288.09,977.525 1399.34,977.525 1510.59,977.525 1621.84,977.525 1733.09,977.525 1844.34,977.525 1955.59,977.525 2066.84,977.525 2178.09,977.525 2289.34,977.525 
  
  "/>
<path clip-path="url(#clip000)" d="
M1866.41 1465.14 L2278.07 1465.14 L2278.07 1309.62 L1866.41 1309.62  Z
  " fill="#ffffff" fill-rule="evenodd" fill-opacity="1"/>
<polyline clip-path="url(#clip000)" style="stroke:#000000; stroke-linecap:butt; stroke-linejoin:round; stroke-width:4; stroke-opacity:1; fill:none" points="
  1866.41,1465.14 2278.07,1465.14 2278.07,1309.62 1866.41,1309.62 1866.41,1465.14 
  "/>
<polyline clip-path="url(#clip000)" style="stroke:#009af9; stroke-linecap:butt; stroke-linejoin:round; stroke-width:4; stroke-opacity:1; fill:none" points="
  1891.3,1361.46 2040.68,1361.46 
  "/>
<path clip-path="url(#clip000)" d="M2089.6 1364.71 L2089.6 1366.8 L2070.02 1366.8 Q2070.29 1371.19 2072.66 1373.51 Q2075.04 1375.8 2079.28 1375.8 Q2081.73 1375.8 2084.02 1375.2 Q2086.34 1374.6 2088.6 1373.39 L2088.6 1377.42 Q2086.31 1378.39 2083.91 1378.9 Q2081.5 1379.41 2079.02 1379.41 Q2072.82 1379.41 2069.18 1375.8 Q2065.57 1372.19 2065.57 1366.03 Q2065.57 1359.67 2069 1355.94 Q2072.45 1352.19 2078.28 1352.19 Q2083.51 1352.19 2086.54 1355.57 Q2089.6 1358.93 2089.6 1364.71 M2085.34 1363.46 Q2085.29 1359.97 2083.37 1357.88 Q2081.47 1355.8 2078.33 1355.8 Q2074.76 1355.8 2072.61 1357.82 Q2070.48 1359.83 2070.16 1363.49 L2085.34 1363.46 Z" fill="#000000" fill-rule="evenodd" fill-opacity="1" /><path clip-path="url(#clip000)" d="M2100.71 1374.85 L2100.71 1388.6 L2096.43 1388.6 L2096.43 1352.82 L2100.71 1352.82 L2100.71 1356.75 Q2102.05 1354.44 2104.09 1353.32 Q2106.15 1352.19 2109 1352.19 Q2113.72 1352.19 2116.66 1355.94 Q2119.62 1359.69 2119.62 1365.8 Q2119.62 1371.91 2116.66 1375.66 Q2113.72 1379.41 2109 1379.41 Q2106.15 1379.41 2104.09 1378.3 Q2102.05 1377.17 2100.71 1374.85 M2115.2 1365.8 Q2115.2 1361.1 2113.26 1358.44 Q2111.34 1355.76 2107.96 1355.76 Q2104.58 1355.76 2102.63 1358.44 Q2100.71 1361.1 2100.71 1365.8 Q2100.71 1370.5 2102.63 1373.19 Q2104.58 1375.85 2107.96 1375.85 Q2111.34 1375.85 2113.26 1373.19 Q2115.2 1370.5 2115.2 1365.8 Z" fill="#000000" fill-rule="evenodd" fill-opacity="1" /><path clip-path="url(#clip000)" d="M2143.21 1353.58 L2143.21 1357.61 Q2141.4 1356.68 2139.46 1356.22 Q2137.52 1355.76 2135.43 1355.76 Q2132.26 1355.76 2130.66 1356.73 Q2129.09 1357.7 2129.09 1359.64 Q2129.09 1361.13 2130.22 1361.98 Q2131.36 1362.82 2134.78 1363.58 L2136.24 1363.9 Q2140.78 1364.88 2142.68 1366.66 Q2144.6 1368.42 2144.6 1371.59 Q2144.6 1375.2 2141.73 1377.31 Q2138.88 1379.41 2133.88 1379.41 Q2131.8 1379.41 2129.53 1379 Q2127.28 1378.6 2124.78 1377.79 L2124.78 1373.39 Q2127.15 1374.62 2129.44 1375.25 Q2131.73 1375.85 2133.97 1375.85 Q2136.98 1375.85 2138.6 1374.83 Q2140.22 1373.79 2140.22 1371.91 Q2140.22 1370.18 2139.04 1369.25 Q2137.89 1368.32 2133.93 1367.47 L2132.45 1367.12 Q2128.49 1366.29 2126.73 1364.57 Q2124.97 1362.84 2124.97 1359.83 Q2124.97 1356.17 2127.56 1354.18 Q2130.15 1352.19 2134.92 1352.19 Q2137.28 1352.19 2139.37 1352.54 Q2141.45 1352.88 2143.21 1353.58 Z" fill="#000000" fill-rule="evenodd" fill-opacity="1" /><path clip-path="url(#clip000)" d="M2151.38 1352.82 L2155.64 1352.82 L2155.64 1378.74 L2151.38 1378.74 L2151.38 1352.82 M2151.38 1342.72 L2155.64 1342.72 L2155.64 1348.12 L2151.38 1348.12 L2151.38 1342.72 Z" fill="#000000" fill-rule="evenodd" fill-opacity="1" /><path clip-path="url(#clip000)" d="M2164.55 1342.72 L2168.81 1342.72 L2168.81 1378.74 L2164.55 1378.74 L2164.55 1342.72 Z" fill="#000000" fill-rule="evenodd" fill-opacity="1" /><path clip-path="url(#clip000)" d="M2187.77 1355.8 Q2184.34 1355.8 2182.35 1358.49 Q2180.36 1361.15 2180.36 1365.8 Q2180.36 1370.45 2182.33 1373.14 Q2184.32 1375.8 2187.77 1375.8 Q2191.17 1375.8 2193.16 1373.12 Q2195.15 1370.43 2195.15 1365.8 Q2195.15 1361.19 2193.16 1358.51 Q2191.17 1355.8 2187.77 1355.8 M2187.77 1352.19 Q2193.33 1352.19 2196.5 1355.8 Q2199.67 1359.41 2199.67 1365.8 Q2199.67 1372.17 2196.5 1375.8 Q2193.33 1379.41 2187.77 1379.41 Q2182.19 1379.41 2179.02 1375.8 Q2175.87 1372.17 2175.87 1365.8 Q2175.87 1359.41 2179.02 1355.8 Q2182.19 1352.19 2187.77 1352.19 Z" fill="#000000" fill-rule="evenodd" fill-opacity="1" /><path clip-path="url(#clip000)" d="M2228.28 1363.09 L2228.28 1378.74 L2224.02 1378.74 L2224.02 1363.23 Q2224.02 1359.55 2222.58 1357.72 Q2221.15 1355.89 2218.28 1355.89 Q2214.83 1355.89 2212.84 1358.09 Q2210.85 1360.29 2210.85 1364.09 L2210.85 1378.74 L2206.57 1378.74 L2206.57 1352.82 L2210.85 1352.82 L2210.85 1356.84 Q2212.38 1354.51 2214.44 1353.35 Q2216.52 1352.19 2219.23 1352.19 Q2223.7 1352.19 2225.99 1354.97 Q2228.28 1357.72 2228.28 1363.09 Z" fill="#000000" fill-rule="evenodd" fill-opacity="1" /><polyline clip-path="url(#clip000)" style="stroke:#e26f46; stroke-linecap:butt; stroke-linejoin:round; stroke-width:4; stroke-opacity:1; fill:none" points="
  1891.3,1413.3 2040.68,1413.3 
  "/>
<path clip-path="url(#clip000)" d="M2072.98 1397.29 L2072.98 1404.66 L2081.75 1404.66 L2081.75 1407.97 L2072.98 1407.97 L2072.98 1422.04 Q2072.98 1425.21 2073.84 1426.11 Q2074.72 1427.02 2077.38 1427.02 L2081.75 1427.02 L2081.75 1430.58 L2077.38 1430.58 Q2072.45 1430.58 2070.57 1428.75 Q2068.7 1426.9 2068.7 1422.04 L2068.7 1407.97 L2065.57 1407.97 L2065.57 1404.66 L2068.7 1404.66 L2068.7 1397.29 L2072.98 1397.29 Z" fill="#000000" fill-rule="evenodd" fill-opacity="1" /><path clip-path="url(#clip000)" d="M2108.9 1414.93 L2108.9 1430.58 L2104.65 1430.58 L2104.65 1415.07 Q2104.65 1411.39 2103.21 1409.56 Q2101.78 1407.73 2098.91 1407.73 Q2095.46 1407.73 2093.47 1409.93 Q2091.47 1412.13 2091.47 1415.93 L2091.47 1430.58 L2087.19 1430.58 L2087.19 1394.56 L2091.47 1394.56 L2091.47 1408.68 Q2093 1406.35 2095.06 1405.19 Q2097.15 1404.03 2099.85 1404.03 Q2104.32 1404.03 2106.61 1406.81 Q2108.9 1409.56 2108.9 1414.93 Z" fill="#000000" fill-rule="evenodd" fill-opacity="1" /><path clip-path="url(#clip000)" d="M2139.58 1416.55 L2139.58 1418.64 L2119.99 1418.64 Q2120.27 1423.03 2122.63 1425.35 Q2125.02 1427.64 2129.25 1427.64 Q2131.71 1427.64 2134 1427.04 Q2136.31 1426.44 2138.58 1425.23 L2138.58 1429.26 Q2136.29 1430.23 2133.88 1430.74 Q2131.47 1431.25 2129 1431.25 Q2122.79 1431.25 2119.16 1427.64 Q2115.55 1424.03 2115.55 1417.87 Q2115.55 1411.51 2118.97 1407.78 Q2122.42 1404.03 2128.26 1404.03 Q2133.49 1404.03 2136.52 1407.41 Q2139.58 1410.77 2139.58 1416.55 M2135.32 1415.3 Q2135.27 1411.81 2133.35 1409.72 Q2131.45 1407.64 2128.3 1407.64 Q2124.74 1407.64 2122.59 1409.66 Q2120.46 1411.67 2120.13 1415.33 L2135.32 1415.3 Z" fill="#000000" fill-rule="evenodd" fill-opacity="1" /><path clip-path="url(#clip000)" d="M2150.78 1397.29 L2150.78 1404.66 L2159.55 1404.66 L2159.55 1407.97 L2150.78 1407.97 L2150.78 1422.04 Q2150.78 1425.21 2151.64 1426.11 Q2152.52 1427.02 2155.18 1427.02 L2159.55 1427.02 L2159.55 1430.58 L2155.18 1430.58 Q2150.25 1430.58 2148.37 1428.75 Q2146.5 1426.9 2146.5 1422.04 L2146.5 1407.97 L2143.37 1407.97 L2143.37 1404.66 L2146.5 1404.66 L2146.5 1397.29 L2150.78 1397.29 Z" fill="#000000" fill-rule="evenodd" fill-opacity="1" /><path clip-path="url(#clip000)" d="M2176.94 1417.55 Q2171.77 1417.55 2169.78 1418.73 Q2167.79 1419.91 2167.79 1422.76 Q2167.79 1425.03 2169.27 1426.37 Q2170.78 1427.69 2173.35 1427.69 Q2176.89 1427.69 2179.02 1425.19 Q2181.17 1422.66 2181.17 1418.5 L2181.17 1417.55 L2176.94 1417.55 M2185.43 1415.79 L2185.43 1430.58 L2181.17 1430.58 L2181.17 1426.65 Q2179.71 1429.01 2177.54 1430.14 Q2175.36 1431.25 2172.21 1431.25 Q2168.23 1431.25 2165.87 1429.03 Q2163.53 1426.78 2163.53 1423.03 Q2163.53 1418.66 2166.45 1416.44 Q2169.39 1414.22 2175.2 1414.22 L2181.17 1414.22 L2181.17 1413.8 Q2181.17 1410.86 2179.23 1409.26 Q2177.31 1407.64 2173.81 1407.64 Q2171.59 1407.64 2169.48 1408.17 Q2167.38 1408.71 2165.43 1409.77 L2165.43 1405.84 Q2167.77 1404.93 2169.97 1404.49 Q2172.17 1404.03 2174.25 1404.03 Q2179.88 1404.03 2182.65 1406.95 Q2185.43 1409.86 2185.43 1415.79 Z" fill="#000000" fill-rule="evenodd" fill-opacity="1" /></svg>
