<?xml version="1.0" encoding="utf-8"?>
<svg xmlns="http://www.w3.org/2000/svg" xmlns:xlink="http://www.w3.org/1999/xlink" width="600" height="400" viewBox="0 0 2400 1600">
<defs>
  <clipPath id="clip520">
    <rect x="0" y="0" width="2400" height="1600"/>
  </clipPath>
</defs>
<path clip-path="url(#clip520)" d="
M0 1600 L2400 1600 L2400 0 L0 0  Z
  " fill="#ffffff" fill-rule="evenodd" fill-opacity="1"/>
<defs>
  <clipPath id="clip521">
    <rect x="480" y="0" width="1681" height="1600"/>
  </clipPath>
</defs>
<defs>
  <clipPath id="clip522">
    <rect x="2160" y="47" width="73" height="1377"/>
  </clipPath>
</defs>
<path clip-path="url(#clip520)" d="
M156.922 686.448 L2352.76 686.448 L2352.76 47.2441 L156.922 47.2441  Z
  " fill="#ffffff" fill-rule="evenodd" fill-opacity="1"/>
<defs>
  <clipPath id="clip523">
    <rect x="156" y="47" width="2197" height="640"/>
  </clipPath>
</defs>
<polyline clip-path="url(#clip523)" style="stroke:#000000; stroke-linecap:butt; stroke-linejoin:round; stroke-width:2; stroke-opacity:0.1; fill:none" points="
  655.182,686.448 655.182,47.2441 
  "/>
<polyline clip-path="url(#clip523)" style="stroke:#000000; stroke-linecap:butt; stroke-linejoin:round; stroke-width:2; stroke-opacity:0.1; fill:none" points="
  1200.32,686.448 1200.32,47.2441 
  "/>
<polyline clip-path="url(#clip523)" style="stroke:#000000; stroke-linecap:butt; stroke-linejoin:round; stroke-width:2; stroke-opacity:0.1; fill:none" points="
  1745.47,686.448 1745.47,47.2441 
  "/>
<polyline clip-path="url(#clip523)" style="stroke:#000000; stroke-linecap:butt; stroke-linejoin:round; stroke-width:2; stroke-opacity:0.1; fill:none" points="
  2290.61,686.448 2290.61,47.2441 
  "/>
<polyline clip-path="url(#clip520)" style="stroke:#000000; stroke-linecap:butt; stroke-linejoin:round; stroke-width:4; stroke-opacity:1; fill:none" points="
  156.922,686.448 2352.76,686.448 
  "/>
<polyline clip-path="url(#clip520)" style="stroke:#000000; stroke-linecap:butt; stroke-linejoin:round; stroke-width:4; stroke-opacity:1; fill:none" points="
  655.182,686.448 655.182,667.55 
  "/>
<polyline clip-path="url(#clip520)" style="stroke:#000000; stroke-linecap:butt; stroke-linejoin:round; stroke-width:4; stroke-opacity:1; fill:none" points="
  1200.32,686.448 1200.32,667.55 
  "/>
<polyline clip-path="url(#clip520)" style="stroke:#000000; stroke-linecap:butt; stroke-linejoin:round; stroke-width:4; stroke-opacity:1; fill:none" points="
  1745.47,686.448 1745.47,667.55 
  "/>
<polyline clip-path="url(#clip520)" style="stroke:#000000; stroke-linecap:butt; stroke-linejoin:round; stroke-width:4; stroke-opacity:1; fill:none" points="
  2290.61,686.448 2290.61,667.55 
  "/>
<path clip-path="url(#clip520)" d="M645.46 714.288 L663.817 714.288 L663.817 718.223 L649.743 718.223 L649.743 726.695 Q650.761 726.348 651.78 726.186 Q652.798 726.001 653.817 726.001 Q659.604 726.001 662.983 729.172 Q666.363 732.343 666.363 737.76 Q666.363 743.339 662.891 746.44 Q659.419 749.519 653.099 749.519 Q650.923 749.519 648.655 749.149 Q646.409 748.778 644.002 748.038 L644.002 743.339 Q646.085 744.473 648.307 745.028 Q650.53 745.584 653.007 745.584 Q657.011 745.584 659.349 743.478 Q661.687 741.371 661.687 737.76 Q661.687 734.149 659.349 732.042 Q657.011 729.936 653.007 729.936 Q651.132 729.936 649.257 730.353 Q647.405 730.769 645.46 731.649 L645.46 714.288 Z" fill="#000000" fill-rule="evenodd" fill-opacity="1" /><path clip-path="url(#clip520)" d="M1175.01 744.913 L1182.65 744.913 L1182.65 718.547 L1174.34 720.214 L1174.34 715.955 L1182.61 714.288 L1187.28 714.288 L1187.28 744.913 L1194.92 744.913 L1194.92 748.848 L1175.01 748.848 L1175.01 744.913 Z" fill="#000000" fill-rule="evenodd" fill-opacity="1" /><path clip-path="url(#clip520)" d="M1214.36 717.367 Q1210.75 717.367 1208.92 720.931 Q1207.12 724.473 1207.12 731.603 Q1207.12 738.709 1208.92 742.274 Q1210.75 745.815 1214.36 745.815 Q1218 745.815 1219.8 742.274 Q1221.63 738.709 1221.63 731.603 Q1221.63 724.473 1219.8 720.931 Q1218 717.367 1214.36 717.367 M1214.36 713.663 Q1220.17 713.663 1223.23 718.269 Q1226.31 722.853 1226.31 731.603 Q1226.31 740.329 1223.23 744.936 Q1220.17 749.519 1214.36 749.519 Q1208.55 749.519 1205.48 744.936 Q1202.42 740.329 1202.42 731.603 Q1202.42 722.853 1205.48 718.269 Q1208.55 713.663 1214.36 713.663 Z" fill="#000000" fill-rule="evenodd" fill-opacity="1" /><path clip-path="url(#clip520)" d="M1720.65 744.913 L1728.29 744.913 L1728.29 718.547 L1719.98 720.214 L1719.98 715.955 L1728.25 714.288 L1732.92 714.288 L1732.92 744.913 L1740.56 744.913 L1740.56 748.848 L1720.65 748.848 L1720.65 744.913 Z" fill="#000000" fill-rule="evenodd" fill-opacity="1" /><path clip-path="url(#clip520)" d="M1750.05 714.288 L1768.41 714.288 L1768.41 718.223 L1754.33 718.223 L1754.33 726.695 Q1755.35 726.348 1756.37 726.186 Q1757.39 726.001 1758.41 726.001 Q1764.19 726.001 1767.57 729.172 Q1770.95 732.343 1770.95 737.76 Q1770.95 743.339 1767.48 746.44 Q1764.01 749.519 1757.69 749.519 Q1755.51 749.519 1753.25 749.149 Q1751 748.778 1748.59 748.038 L1748.59 743.339 Q1750.68 744.473 1752.9 745.028 Q1755.12 745.584 1757.6 745.584 Q1761.6 745.584 1763.94 743.478 Q1766.28 741.371 1766.28 737.76 Q1766.28 734.149 1763.94 732.042 Q1761.6 729.936 1757.6 729.936 Q1755.72 729.936 1753.85 730.353 Q1752 730.769 1750.05 731.649 L1750.05 714.288 Z" fill="#000000" fill-rule="evenodd" fill-opacity="1" /><path clip-path="url(#clip520)" d="M2269.38 744.913 L2285.7 744.913 L2285.7 748.848 L2263.76 748.848 L2263.76 744.913 Q2266.42 742.158 2271 737.528 Q2275.61 732.876 2276.79 731.533 Q2279.04 729.01 2279.92 727.274 Q2280.82 725.515 2280.82 723.825 Q2280.82 721.07 2278.87 719.334 Q2276.95 717.598 2273.85 717.598 Q2271.65 717.598 2269.2 718.362 Q2266.77 719.126 2263.99 720.677 L2263.99 715.955 Q2266.81 714.82 2269.27 714.242 Q2271.72 713.663 2273.76 713.663 Q2279.13 713.663 2282.32 716.348 Q2285.52 719.033 2285.52 723.524 Q2285.52 725.654 2284.71 727.575 Q2283.92 729.473 2281.81 732.066 Q2281.23 732.737 2278.13 735.954 Q2275.03 739.149 2269.38 744.913 Z" fill="#000000" fill-rule="evenodd" fill-opacity="1" /><path clip-path="url(#clip520)" d="M2305.52 717.367 Q2301.91 717.367 2300.08 720.931 Q2298.27 724.473 2298.27 731.603 Q2298.27 738.709 2300.08 742.274 Q2301.91 745.815 2305.52 745.815 Q2309.15 745.815 2310.96 742.274 Q2312.79 738.709 2312.79 731.603 Q2312.79 724.473 2310.96 720.931 Q2309.15 717.367 2305.52 717.367 M2305.52 713.663 Q2311.33 713.663 2314.38 718.269 Q2317.46 722.853 2317.46 731.603 Q2317.46 740.329 2314.38 744.936 Q2311.33 749.519 2305.52 749.519 Q2299.71 749.519 2296.63 744.936 Q2293.57 740.329 2293.57 731.603 Q2293.57 722.853 2296.63 718.269 Q2299.71 713.663 2305.52 713.663 Z" fill="#000000" fill-rule="evenodd" fill-opacity="1" /><polyline clip-path="url(#clip523)" style="stroke:#000000; stroke-linecap:butt; stroke-linejoin:round; stroke-width:2; stroke-opacity:0.1; fill:none" points="
  156.922,553.636 2352.76,553.636 
  "/>
<polyline clip-path="url(#clip523)" style="stroke:#000000; stroke-linecap:butt; stroke-linejoin:round; stroke-width:2; stroke-opacity:0.1; fill:none" points="
  156.922,409.499 2352.76,409.499 
  "/>
<polyline clip-path="url(#clip523)" style="stroke:#000000; stroke-linecap:butt; stroke-linejoin:round; stroke-width:2; stroke-opacity:0.1; fill:none" points="
  156.922,265.362 2352.76,265.362 
  "/>
<polyline clip-path="url(#clip523)" style="stroke:#000000; stroke-linecap:butt; stroke-linejoin:round; stroke-width:2; stroke-opacity:0.1; fill:none" points="
  156.922,121.225 2352.76,121.225 
  "/>
<polyline clip-path="url(#clip520)" style="stroke:#000000; stroke-linecap:butt; stroke-linejoin:round; stroke-width:4; stroke-opacity:1; fill:none" points="
  156.922,686.448 156.922,47.2441 
  "/>
<polyline clip-path="url(#clip520)" style="stroke:#000000; stroke-linecap:butt; stroke-linejoin:round; stroke-width:4; stroke-opacity:1; fill:none" points="
  156.922,553.636 175.82,553.636 
  "/>
<polyline clip-path="url(#clip520)" style="stroke:#000000; stroke-linecap:butt; stroke-linejoin:round; stroke-width:4; stroke-opacity:1; fill:none" points="
  156.922,409.499 175.82,409.499 
  "/>
<polyline clip-path="url(#clip520)" style="stroke:#000000; stroke-linecap:butt; stroke-linejoin:round; stroke-width:4; stroke-opacity:1; fill:none" points="
  156.922,265.362 175.82,265.362 
  "/>
<polyline clip-path="url(#clip520)" style="stroke:#000000; stroke-linecap:butt; stroke-linejoin:round; stroke-width:4; stroke-opacity:1; fill:none" points="
  156.922,121.225 175.82,121.225 
  "/>
<path clip-path="url(#clip520)" d="M101.015 566.981 L108.654 566.981 L108.654 540.615 L100.344 542.282 L100.344 538.023 L108.608 536.356 L113.283 536.356 L113.283 566.981 L120.922 566.981 L120.922 570.916 L101.015 570.916 L101.015 566.981 Z" fill="#000000" fill-rule="evenodd" fill-opacity="1" /><path clip-path="url(#clip520)" d="M104.603 422.844 L120.922 422.844 L120.922 426.779 L98.978 426.779 L98.978 422.844 Q101.64 420.089 106.223 415.459 Q110.83 410.807 112.01 409.464 Q114.256 406.941 115.135 405.205 Q116.038 403.446 116.038 401.756 Q116.038 399.001 114.094 397.265 Q112.172 395.529 109.071 395.529 Q106.871 395.529 104.418 396.293 Q101.987 397.057 99.2095 398.608 L99.2095 393.885 Q102.034 392.751 104.487 392.172 Q106.941 391.594 108.978 391.594 Q114.348 391.594 117.543 394.279 Q120.737 396.964 120.737 401.455 Q120.737 403.584 119.927 405.506 Q119.14 407.404 117.033 409.996 Q116.455 410.668 113.353 413.885 Q110.251 417.08 104.603 422.844 Z" fill="#000000" fill-rule="evenodd" fill-opacity="1" /><path clip-path="url(#clip520)" d="M113.793 264.008 Q117.149 264.725 119.024 266.994 Q120.922 269.262 120.922 272.595 Q120.922 277.711 117.404 280.512 Q113.885 283.313 107.404 283.313 Q105.228 283.313 102.913 282.873 Q100.621 282.457 98.1678 281.6 L98.1678 277.086 Q100.112 278.22 102.427 278.799 Q104.742 279.378 107.265 279.378 Q111.663 279.378 113.955 277.642 Q116.27 275.906 116.27 272.595 Q116.27 269.54 114.117 267.827 Q111.987 266.091 108.168 266.091 L104.14 266.091 L104.14 262.248 L108.353 262.248 Q111.802 262.248 113.631 260.883 Q115.459 259.494 115.459 256.901 Q115.459 254.239 113.561 252.827 Q111.686 251.392 108.168 251.392 Q106.246 251.392 104.047 251.809 Q101.848 252.225 99.2095 253.105 L99.2095 248.938 Q101.871 248.197 104.186 247.827 Q106.524 247.457 108.584 247.457 Q113.908 247.457 117.01 249.887 Q120.112 252.295 120.112 256.415 Q120.112 259.285 118.469 261.276 Q116.825 263.244 113.793 264.008 Z" fill="#000000" fill-rule="evenodd" fill-opacity="1" /><path clip-path="url(#clip520)" d="M111.339 108.019 L99.5335 126.468 L111.339 126.468 L111.339 108.019 M110.112 103.945 L115.992 103.945 L115.992 126.468 L120.922 126.468 L120.922 130.357 L115.992 130.357 L115.992 138.505 L111.339 138.505 L111.339 130.357 L95.7373 130.357 L95.7373 125.843 L110.112 103.945 Z" fill="#000000" fill-rule="evenodd" fill-opacity="1" /><polyline clip-path="url(#clip523)" style="stroke:#009af9; stroke-linecap:butt; stroke-linejoin:round; stroke-width:4; stroke-opacity:1; fill:none" points="
  219.069,109.458 328.097,447.739 437.126,638.941 546.154,447.739 655.182,182.998 764.211,580.11 873.239,668.357 982.268,403.616 1091.3,330.076 1200.32,565.402 
  1309.35,65.3348 1418.38,65.3348 1527.41,65.3348 1636.44,65.3348 1745.47,65.3348 1854.5,65.3348 1963.52,65.3348 2072.55,65.3348 2181.58,65.3348 2290.61,65.3348 
  
  "/>
<polyline clip-path="url(#clip523)" style="stroke:#e26f46; stroke-linecap:butt; stroke-linejoin:round; stroke-width:4; stroke-opacity:1; fill:none" points="
  219.069,535.986 328.097,212.413 437.126,285.953 546.154,124.166 655.182,124.166 764.211,124.166 873.239,124.166 982.268,124.166 1091.3,124.166 1200.32,124.166 
  1309.35,124.166 1418.38,124.166 1527.41,124.166 1636.44,124.166 1745.47,124.166 1854.5,124.166 1963.52,124.166 2072.55,124.166 2181.58,124.166 2290.61,124.166 
  
  "/>
<path clip-path="url(#clip520)" d="
M2013.31 665.141 L2279.56 665.141 L2279.56 509.621 L2013.31 509.621  Z
  " fill="#ffffff" fill-rule="evenodd" fill-opacity="1"/>
<polyline clip-path="url(#clip520)" style="stroke:#000000; stroke-linecap:butt; stroke-linejoin:round; stroke-width:4; stroke-opacity:1; fill:none" points="
  2013.31,665.141 2279.56,665.141 2279.56,509.621 2013.31,509.621 2013.31,665.141 
  "/>
<polyline clip-path="url(#clip520)" style="stroke:#009af9; stroke-linecap:butt; stroke-linejoin:round; stroke-width:4; stroke-opacity:1; fill:none" points="
  2037.71,561.461 2184.1,561.461 
  "/>
<path clip-path="url(#clip520)" d="M2227.85 559.62 Q2227.85 560.112 2227.42 560.51 Q2227.03 560.908 2226.53 560.908 Q2226.25 560.908 2225.57 560.439 Q2223.63 559.081 2221.17 559.081 Q2218.97 559.081 2216.93 559.62 Q2214.89 560.158 2213.51 561.259 Q2212.15 562.337 2212.15 563.742 Q2212.15 565.499 2214.07 566.529 Q2216.06 565.616 2218.52 565.616 Q2219.32 565.616 2219.86 565.663 Q2220.42 565.71 2220.96 565.827 Q2221.5 565.944 2221.76 566.225 Q2222.04 566.482 2222.04 566.904 Q2222.04 568.403 2218.15 568.403 Q2215.62 568.403 2214.03 567.724 Q2211.99 568.731 2210.87 570.347 Q2209.74 571.963 2209.74 573.345 Q2209.74 574.54 2210.4 575.406 Q2211.08 576.273 2212.18 576.695 Q2213.3 577.116 2214.4 577.304 Q2215.53 577.468 2216.77 577.468 Q2218.81 577.468 2220.23 577.21 Q2221.69 576.929 2222.48 576.414 Q2223.3 575.898 2223.63 575.547 Q2223.98 575.172 2224.33 574.587 Q2224.54 574.259 2224.82 574.259 Q2225.04 574.259 2225.18 574.399 Q2225.34 574.516 2225.34 574.727 Q2225.34 574.985 2225.01 575.524 Q2224.71 576.062 2223.96 576.788 Q2223.23 577.491 2222.23 578.147 Q2221.24 578.779 2219.67 579.224 Q2218.1 579.669 2216.32 579.669 Q2212.69 579.669 2210.58 577.889 Q2208.5 576.109 2208.5 573.626 Q2208.5 571.893 2209.65 570.113 Q2210.82 568.309 2212.88 567.162 Q2210.96 565.733 2210.96 563.742 Q2210.96 561.962 2212.46 560.369 Q2213.98 558.776 2216.44 557.84 Q2218.92 556.879 2221.64 556.879 Q2223.16 556.879 2224.66 557.395 Q2226.16 557.886 2227 558.519 Q2227.85 559.151 2227.85 559.62 M2220.8 566.951 Q2219.77 566.67 2218.52 566.67 Q2216.84 566.67 2215.6 567.091 Q2216.6 567.349 2218.15 567.349 Q2219.44 567.349 2219.81 567.279 Q2220.21 567.209 2220.8 566.951 Z" fill="#000000" fill-rule="evenodd" fill-opacity="1" /><polyline clip-path="url(#clip520)" style="stroke:#e26f46; stroke-linecap:butt; stroke-linejoin:round; stroke-width:4; stroke-opacity:1; fill:none" points="
  2037.71,613.301 2184.1,613.301 
  "/>
<path clip-path="url(#clip520)" d="M2228.31 612.705 Q2228.31 616.64 2227.05 621.067 Q2225.81 625.47 2223.84 629.031 Q2221.87 632.567 2219.3 634.91 Q2216.72 637.228 2214.26 637.228 Q2212.69 637.228 2211.52 636.362 Q2210.37 635.472 2209.74 633.996 Q2209.11 632.497 2208.8 630.857 Q2208.5 629.194 2208.5 627.391 Q2208.5 624.697 2209.09 621.77 Q2209.67 618.818 2210.65 616.148 Q2211.64 613.455 2213.02 611.019 Q2214.4 608.559 2215.92 606.779 Q2217.47 604.976 2219.2 603.922 Q2220.94 602.868 2222.55 602.868 Q2223.72 602.868 2224.66 603.383 Q2225.62 603.875 2226.23 604.741 Q2226.84 605.585 2227.26 606.592 Q2227.71 607.599 2227.92 608.77 Q2228.13 609.918 2228.22 610.878 Q2228.31 611.815 2228.31 612.705 M2225.15 609.73 Q2225.15 608.536 2225.06 607.646 Q2224.97 606.732 2224.71 605.819 Q2224.45 604.905 2223.89 604.414 Q2223.35 603.922 2222.51 603.922 Q2220.05 603.922 2217.28 608.957 Q2216.39 610.527 2215.6 612.658 Q2214.8 614.79 2214.52 615.797 Q2214.24 616.804 2213.58 619.287 L2223.61 619.287 Q2225.15 612.892 2225.15 609.73 M2223.19 620.809 L2213.21 620.809 Q2211.66 626.665 2211.66 630.319 Q2211.66 633.504 2212.32 634.839 Q2213 636.151 2214.26 636.151 Q2215.71 636.151 2217.07 634.699 Q2218.43 633.223 2219.81 630.553 Q2221.64 627.086 2223.19 620.809 Z" fill="#000000" fill-rule="evenodd" fill-opacity="1" /><path clip-path="url(#clip520)" d="
M156.922 1486.45 L2352.76 1486.45 L2352.76 847.244 L156.922 847.244  Z
  " fill="#ffffff" fill-rule="evenodd" fill-opacity="1"/>
<defs>
  <clipPath id="clip524">
    <rect x="156" y="847" width="2197" height="640"/>
  </clipPath>
</defs>
<polyline clip-path="url(#clip524)" style="stroke:#000000; stroke-linecap:butt; stroke-linejoin:round; stroke-width:2; stroke-opacity:0.1; fill:none" points="
  655.182,1486.45 655.182,847.244 
  "/>
<polyline clip-path="url(#clip524)" style="stroke:#000000; stroke-linecap:butt; stroke-linejoin:round; stroke-width:2; stroke-opacity:0.1; fill:none" points="
  1200.32,1486.45 1200.32,847.244 
  "/>
<polyline clip-path="url(#clip524)" style="stroke:#000000; stroke-linecap:butt; stroke-linejoin:round; stroke-width:2; stroke-opacity:0.1; fill:none" points="
  1745.47,1486.45 1745.47,847.244 
  "/>
<polyline clip-path="url(#clip524)" style="stroke:#000000; stroke-linecap:butt; stroke-linejoin:round; stroke-width:2; stroke-opacity:0.1; fill:none" points="
  2290.61,1486.45 2290.61,847.244 
  "/>
<polyline clip-path="url(#clip520)" style="stroke:#000000; stroke-linecap:butt; stroke-linejoin:round; stroke-width:4; stroke-opacity:1; fill:none" points="
  156.922,1486.45 2352.76,1486.45 
  "/>
<polyline clip-path="url(#clip520)" style="stroke:#000000; stroke-linecap:butt; stroke-linejoin:round; stroke-width:4; stroke-opacity:1; fill:none" points="
  655.182,1486.45 655.182,1467.55 
  "/>
<polyline clip-path="url(#clip520)" style="stroke:#000000; stroke-linecap:butt; stroke-linejoin:round; stroke-width:4; stroke-opacity:1; fill:none" points="
  1200.32,1486.45 1200.32,1467.55 
  "/>
<polyline clip-path="url(#clip520)" style="stroke:#000000; stroke-linecap:butt; stroke-linejoin:round; stroke-width:4; stroke-opacity:1; fill:none" points="
  1745.47,1486.45 1745.47,1467.55 
  "/>
<polyline clip-path="url(#clip520)" style="stroke:#000000; stroke-linecap:butt; stroke-linejoin:round; stroke-width:4; stroke-opacity:1; fill:none" points="
  2290.61,1486.45 2290.61,1467.55 
  "/>
<path clip-path="url(#clip520)" d="M645.46 1514.29 L663.817 1514.29 L663.817 1518.22 L649.743 1518.22 L649.743 1526.7 Q650.761 1526.35 651.78 1526.19 Q652.798 1526 653.817 1526 Q659.604 1526 662.983 1529.17 Q666.363 1532.34 666.363 1537.76 Q666.363 1543.34 662.891 1546.44 Q659.419 1549.52 653.099 1549.52 Q650.923 1549.52 648.655 1549.15 Q646.409 1548.78 644.002 1548.04 L644.002 1543.34 Q646.085 1544.47 648.307 1545.03 Q650.53 1545.58 653.007 1545.58 Q657.011 1545.58 659.349 1543.48 Q661.687 1541.37 661.687 1537.76 Q661.687 1534.15 659.349 1532.04 Q657.011 1529.94 653.007 1529.94 Q651.132 1529.94 649.257 1530.35 Q647.405 1530.77 645.46 1531.65 L645.46 1514.29 Z" fill="#000000" fill-rule="evenodd" fill-opacity="1" /><path clip-path="url(#clip520)" d="M1175.01 1544.91 L1182.65 1544.91 L1182.65 1518.55 L1174.34 1520.21 L1174.34 1515.95 L1182.61 1514.29 L1187.28 1514.29 L1187.28 1544.91 L1194.92 1544.91 L1194.92 1548.85 L1175.01 1548.85 L1175.01 1544.91 Z" fill="#000000" fill-rule="evenodd" fill-opacity="1" /><path clip-path="url(#clip520)" d="M1214.36 1517.37 Q1210.75 1517.37 1208.92 1520.93 Q1207.12 1524.47 1207.12 1531.6 Q1207.12 1538.71 1208.92 1542.27 Q1210.75 1545.82 1214.36 1545.82 Q1218 1545.82 1219.8 1542.27 Q1221.63 1538.71 1221.63 1531.6 Q1221.63 1524.47 1219.8 1520.93 Q1218 1517.37 1214.36 1517.37 M1214.36 1513.66 Q1220.17 1513.66 1223.23 1518.27 Q1226.31 1522.85 1226.31 1531.6 Q1226.31 1540.33 1223.23 1544.94 Q1220.17 1549.52 1214.36 1549.52 Q1208.55 1549.52 1205.48 1544.94 Q1202.42 1540.33 1202.42 1531.6 Q1202.42 1522.85 1205.48 1518.27 Q1208.55 1513.66 1214.36 1513.66 Z" fill="#000000" fill-rule="evenodd" fill-opacity="1" /><path clip-path="url(#clip520)" d="M1720.65 1544.91 L1728.29 1544.91 L1728.29 1518.55 L1719.98 1520.21 L1719.98 1515.95 L1728.25 1514.29 L1732.92 1514.29 L1732.92 1544.91 L1740.56 1544.91 L1740.56 1548.85 L1720.65 1548.85 L1720.65 1544.91 Z" fill="#000000" fill-rule="evenodd" fill-opacity="1" /><path clip-path="url(#clip520)" d="M1750.05 1514.29 L1768.41 1514.29 L1768.41 1518.22 L1754.33 1518.22 L1754.33 1526.7 Q1755.35 1526.35 1756.37 1526.19 Q1757.39 1526 1758.41 1526 Q1764.19 1526 1767.57 1529.17 Q1770.95 1532.34 1770.95 1537.76 Q1770.95 1543.34 1767.48 1546.44 Q1764.01 1549.52 1757.69 1549.52 Q1755.51 1549.52 1753.25 1549.15 Q1751 1548.78 1748.59 1548.04 L1748.59 1543.34 Q1750.68 1544.47 1752.9 1545.03 Q1755.12 1545.58 1757.6 1545.58 Q1761.6 1545.58 1763.94 1543.48 Q1766.28 1541.37 1766.28 1537.76 Q1766.28 1534.15 1763.94 1532.04 Q1761.6 1529.94 1757.6 1529.94 Q1755.72 1529.94 1753.85 1530.35 Q1752 1530.77 1750.05 1531.65 L1750.05 1514.29 Z" fill="#000000" fill-rule="evenodd" fill-opacity="1" /><path clip-path="url(#clip520)" d="M2269.38 1544.91 L2285.7 1544.91 L2285.7 1548.85 L2263.76 1548.85 L2263.76 1544.91 Q2266.42 1542.16 2271 1537.53 Q2275.61 1532.88 2276.79 1531.53 Q2279.04 1529.01 2279.92 1527.27 Q2280.82 1525.51 2280.82 1523.82 Q2280.82 1521.07 2278.87 1519.33 Q2276.95 1517.6 2273.85 1517.6 Q2271.65 1517.6 2269.2 1518.36 Q2266.77 1519.13 2263.99 1520.68 L2263.99 1515.95 Q2266.81 1514.82 2269.27 1514.24 Q2271.72 1513.66 2273.76 1513.66 Q2279.13 1513.66 2282.32 1516.35 Q2285.52 1519.03 2285.52 1523.52 Q2285.52 1525.65 2284.71 1527.57 Q2283.92 1529.47 2281.81 1532.07 Q2281.23 1532.74 2278.13 1535.95 Q2275.03 1539.15 2269.38 1544.91 Z" fill="#000000" fill-rule="evenodd" fill-opacity="1" /><path clip-path="url(#clip520)" d="M2305.52 1517.37 Q2301.91 1517.37 2300.08 1520.93 Q2298.27 1524.47 2298.27 1531.6 Q2298.27 1538.71 2300.08 1542.27 Q2301.91 1545.82 2305.52 1545.82 Q2309.15 1545.82 2310.96 1542.27 Q2312.79 1538.71 2312.79 1531.6 Q2312.79 1524.47 2310.96 1520.93 Q2309.15 1517.37 2305.52 1517.37 M2305.52 1513.66 Q2311.33 1513.66 2314.38 1518.27 Q2317.46 1522.85 2317.46 1531.6 Q2317.46 1540.33 2314.38 1544.94 Q2311.33 1549.52 2305.52 1549.52 Q2299.71 1549.52 2296.63 1544.94 Q2293.57 1540.33 2293.57 1531.6 Q2293.57 1522.85 2296.63 1518.27 Q2299.71 1513.66 2305.52 1513.66 Z" fill="#000000" fill-rule="evenodd" fill-opacity="1" /><polyline clip-path="url(#clip524)" style="stroke:#000000; stroke-linecap:butt; stroke-linejoin:round; stroke-width:2; stroke-opacity:0.1; fill:none" points="
  156.922,1425.28 2352.76,1425.28 
  "/>
<polyline clip-path="url(#clip524)" style="stroke:#000000; stroke-linecap:butt; stroke-linejoin:round; stroke-width:2; stroke-opacity:0.1; fill:none" points="
  156.922,1284.58 2352.76,1284.58 
  "/>
<polyline clip-path="url(#clip524)" style="stroke:#000000; stroke-linecap:butt; stroke-linejoin:round; stroke-width:2; stroke-opacity:0.1; fill:none" points="
  156.922,1143.87 2352.76,1143.87 
  "/>
<polyline clip-path="url(#clip524)" style="stroke:#000000; stroke-linecap:butt; stroke-linejoin:round; stroke-width:2; stroke-opacity:0.1; fill:none" points="
  156.922,1003.17 2352.76,1003.17 
  "/>
<polyline clip-path="url(#clip524)" style="stroke:#000000; stroke-linecap:butt; stroke-linejoin:round; stroke-width:2; stroke-opacity:0.1; fill:none" points="
  156.922,862.463 2352.76,862.463 
  "/>
<polyline clip-path="url(#clip520)" style="stroke:#000000; stroke-linecap:butt; stroke-linejoin:round; stroke-width:4; stroke-opacity:1; fill:none" points="
  156.922,1486.45 156.922,847.244 
  "/>
<polyline clip-path="url(#clip520)" style="stroke:#000000; stroke-linecap:butt; stroke-linejoin:round; stroke-width:4; stroke-opacity:1; fill:none" points="
  156.922,1425.28 175.82,1425.28 
  "/>
<polyline clip-path="url(#clip520)" style="stroke:#000000; stroke-linecap:butt; stroke-linejoin:round; stroke-width:4; stroke-opacity:1; fill:none" points="
  156.922,1284.58 175.82,1284.58 
  "/>
<polyline clip-path="url(#clip520)" style="stroke:#000000; stroke-linecap:butt; stroke-linejoin:round; stroke-width:4; stroke-opacity:1; fill:none" points="
  156.922,1143.87 175.82,1143.87 
  "/>
<polyline clip-path="url(#clip520)" style="stroke:#000000; stroke-linecap:butt; stroke-linejoin:round; stroke-width:4; stroke-opacity:1; fill:none" points="
  156.922,1003.17 175.82,1003.17 
  "/>
<polyline clip-path="url(#clip520)" style="stroke:#000000; stroke-linecap:butt; stroke-linejoin:round; stroke-width:4; stroke-opacity:1; fill:none" points="
  156.922,862.463 175.82,862.463 
  "/>
<path clip-path="url(#clip520)" d="M58.7699 1438.63 L75.0892 1438.63 L75.0892 1442.56 L53.1449 1442.56 L53.1449 1438.63 Q55.8069 1435.87 60.3902 1431.24 Q64.9967 1426.59 66.1772 1425.25 Q68.4226 1422.73 69.3022 1420.99 Q70.205 1419.23 70.205 1417.54 Q70.205 1414.79 68.2606 1413.05 Q66.3393 1411.31 63.2374 1411.31 Q61.0384 1411.31 58.5847 1412.08 Q56.1541 1412.84 53.3764 1414.39 L53.3764 1409.67 Q56.2004 1408.54 58.6541 1407.96 Q61.1078 1407.38 63.1448 1407.38 Q68.5152 1407.38 71.7096 1410.06 Q74.904 1412.75 74.904 1417.24 Q74.904 1419.37 74.0939 1421.29 Q73.3068 1423.19 71.2004 1425.78 Q70.6217 1426.45 67.5198 1429.67 Q64.418 1432.87 58.7699 1438.63 Z" fill="#000000" fill-rule="evenodd" fill-opacity="1" /><path clip-path="url(#clip520)" d="M84.904 1436.68 L89.7882 1436.68 L89.7882 1442.56 L84.904 1442.56 L84.904 1436.68 Z" fill="#000000" fill-rule="evenodd" fill-opacity="1" /><path clip-path="url(#clip520)" d="M100.02 1408 L118.376 1408 L118.376 1411.94 L104.302 1411.94 L104.302 1420.41 Q105.321 1420.06 106.339 1419.9 Q107.358 1419.72 108.376 1419.72 Q114.163 1419.72 117.543 1422.89 Q120.922 1426.06 120.922 1431.48 Q120.922 1437.05 117.45 1440.16 Q113.978 1443.24 107.658 1443.24 Q105.483 1443.24 103.214 1442.87 Q100.969 1442.49 98.5613 1441.75 L98.5613 1437.05 Q100.645 1438.19 102.867 1438.74 Q105.089 1439.3 107.566 1439.3 Q111.571 1439.3 113.908 1437.19 Q116.246 1435.09 116.246 1431.48 Q116.246 1427.87 113.908 1425.76 Q111.571 1423.65 107.566 1423.65 Q105.691 1423.65 103.816 1424.07 Q101.964 1424.49 100.02 1425.37 L100.02 1408 Z" fill="#000000" fill-rule="evenodd" fill-opacity="1" /><path clip-path="url(#clip520)" d="M67.9133 1283.22 Q71.2698 1283.94 73.1448 1286.21 Q75.0429 1288.48 75.0429 1291.81 Q75.0429 1296.93 71.5244 1299.73 Q68.0059 1302.53 61.5245 1302.53 Q59.3486 1302.53 57.0338 1302.09 Q54.7421 1301.67 52.2884 1300.82 L52.2884 1296.3 Q54.2328 1297.44 56.5477 1298.02 Q58.8625 1298.6 61.3856 1298.6 Q65.7837 1298.6 68.0754 1296.86 Q70.3902 1295.12 70.3902 1291.81 Q70.3902 1288.76 68.2374 1287.04 Q66.1078 1285.31 62.2884 1285.31 L58.2606 1285.31 L58.2606 1281.47 L62.4735 1281.47 Q65.9226 1281.47 67.7513 1280.1 Q69.58 1278.71 69.58 1276.12 Q69.58 1273.46 67.6819 1272.04 Q65.8069 1270.61 62.2884 1270.61 Q60.3671 1270.61 58.168 1271.03 Q55.969 1271.44 53.3301 1272.32 L53.3301 1268.16 Q55.9921 1267.41 58.3069 1267.04 Q60.6449 1266.67 62.705 1266.67 Q68.0291 1266.67 71.1309 1269.1 Q74.2327 1271.51 74.2327 1275.63 Q74.2327 1278.5 72.5892 1280.49 Q70.9457 1282.46 67.9133 1283.22 Z" fill="#000000" fill-rule="evenodd" fill-opacity="1" /><path clip-path="url(#clip520)" d="M83.9086 1295.98 L88.7928 1295.98 L88.7928 1301.86 L83.9086 1301.86 L83.9086 1295.98 Z" fill="#000000" fill-rule="evenodd" fill-opacity="1" /><path clip-path="url(#clip520)" d="M108.978 1270.38 Q105.367 1270.38 103.538 1273.94 Q101.733 1277.48 101.733 1284.61 Q101.733 1291.72 103.538 1295.28 Q105.367 1298.83 108.978 1298.83 Q112.612 1298.83 114.418 1295.28 Q116.246 1291.72 116.246 1284.61 Q116.246 1277.48 114.418 1273.94 Q112.612 1270.38 108.978 1270.38 M108.978 1266.67 Q114.788 1266.67 117.844 1271.28 Q120.922 1275.86 120.922 1284.61 Q120.922 1293.34 117.844 1297.95 Q114.788 1302.53 108.978 1302.53 Q103.168 1302.53 100.089 1297.95 Q97.0335 1293.34 97.0335 1284.61 Q97.0335 1275.86 100.089 1271.28 Q103.168 1266.67 108.978 1266.67 Z" fill="#000000" fill-rule="evenodd" fill-opacity="1" /><path clip-path="url(#clip520)" d="M68.9087 1142.52 Q72.2652 1143.24 74.1402 1145.51 Q76.0383 1147.77 76.0383 1151.11 Q76.0383 1156.22 72.5198 1159.02 Q69.0013 1161.82 62.5198 1161.82 Q60.3439 1161.82 58.0291 1161.39 Q55.7375 1160.97 53.2838 1160.11 L53.2838 1155.6 Q55.2282 1156.73 57.543 1157.31 Q59.8578 1157.89 62.381 1157.89 Q66.7791 1157.89 69.0707 1156.15 Q71.3855 1154.42 71.3855 1151.11 Q71.3855 1148.05 69.2328 1146.34 Q67.1032 1144.6 63.2837 1144.6 L59.256 1144.6 L59.256 1140.76 L63.4689 1140.76 Q66.918 1140.76 68.7467 1139.39 Q70.5754 1138.01 70.5754 1135.41 Q70.5754 1132.75 68.6772 1131.34 Q66.8022 1129.9 63.2837 1129.9 Q61.3624 1129.9 59.1634 1130.32 Q56.9643 1130.74 54.3254 1131.62 L54.3254 1127.45 Q56.9875 1126.71 59.3023 1126.34 Q61.6402 1125.97 63.7004 1125.97 Q69.0244 1125.97 72.1263 1128.4 Q75.2281 1130.81 75.2281 1134.93 Q75.2281 1137.8 73.5846 1139.79 Q71.9411 1141.76 68.9087 1142.52 Z" fill="#000000" fill-rule="evenodd" fill-opacity="1" /><path clip-path="url(#clip520)" d="M84.904 1155.27 L89.7882 1155.27 L89.7882 1161.15 L84.904 1161.15 L84.904 1155.27 Z" fill="#000000" fill-rule="evenodd" fill-opacity="1" /><path clip-path="url(#clip520)" d="M100.02 1126.59 L118.376 1126.59 L118.376 1130.53 L104.302 1130.53 L104.302 1139 Q105.321 1138.65 106.339 1138.49 Q107.358 1138.31 108.376 1138.31 Q114.163 1138.31 117.543 1141.48 Q120.922 1144.65 120.922 1150.07 Q120.922 1155.64 117.45 1158.75 Q113.978 1161.82 107.658 1161.82 Q105.483 1161.82 103.214 1161.45 Q100.969 1161.08 98.5613 1160.34 L98.5613 1155.64 Q100.645 1156.78 102.867 1157.33 Q105.089 1157.89 107.566 1157.89 Q111.571 1157.89 113.908 1155.78 Q116.246 1153.68 116.246 1150.07 Q116.246 1146.45 113.908 1144.35 Q111.571 1142.24 107.566 1142.24 Q105.691 1142.24 103.816 1142.66 Q101.964 1143.08 100.02 1143.95 L100.02 1126.59 Z" fill="#000000" fill-rule="evenodd" fill-opacity="1" /><path clip-path="url(#clip520)" d="M66.5939 989.963 L54.7884 1008.41 L66.5939 1008.41 L66.5939 989.963 M65.367 985.888 L71.2466 985.888 L71.2466 1008.41 L76.1772 1008.41 L76.1772 1012.3 L71.2466 1012.3 L71.2466 1020.45 L66.5939 1020.45 L66.5939 1012.3 L50.9921 1012.3 L50.9921 1007.79 L65.367 985.888 Z" fill="#000000" fill-rule="evenodd" fill-opacity="1" /><path clip-path="url(#clip520)" d="M83.9086 1014.57 L88.7928 1014.57 L88.7928 1020.45 L83.9086 1020.45 L83.9086 1014.57 Z" fill="#000000" fill-rule="evenodd" fill-opacity="1" /><path clip-path="url(#clip520)" d="M108.978 988.967 Q105.367 988.967 103.538 992.532 Q101.733 996.074 101.733 1003.2 Q101.733 1010.31 103.538 1013.87 Q105.367 1017.42 108.978 1017.42 Q112.612 1017.42 114.418 1013.87 Q116.246 1010.31 116.246 1003.2 Q116.246 996.074 114.418 992.532 Q112.612 988.967 108.978 988.967 M108.978 985.263 Q114.788 985.263 117.844 989.87 Q120.922 994.453 120.922 1003.2 Q120.922 1011.93 117.844 1016.54 Q114.788 1021.12 108.978 1021.12 Q103.168 1021.12 100.089 1016.54 Q97.0335 1011.93 97.0335 1003.2 Q97.0335 994.453 100.089 989.87 Q103.168 985.263 108.978 985.263 Z" fill="#000000" fill-rule="evenodd" fill-opacity="1" /><path clip-path="url(#clip520)" d="M67.5893 849.257 L55.7838 867.706 L67.5893 867.706 L67.5893 849.257 M66.3624 845.183 L72.242 845.183 L72.242 867.706 L77.1725 867.706 L77.1725 871.595 L72.242 871.595 L72.242 879.743 L67.5893 879.743 L67.5893 871.595 L51.9875 871.595 L51.9875 867.081 L66.3624 845.183 Z" fill="#000000" fill-rule="evenodd" fill-opacity="1" /><path clip-path="url(#clip520)" d="M84.904 873.864 L89.7882 873.864 L89.7882 879.743 L84.904 879.743 L84.904 873.864 Z" fill="#000000" fill-rule="evenodd" fill-opacity="1" /><path clip-path="url(#clip520)" d="M100.02 845.183 L118.376 845.183 L118.376 849.118 L104.302 849.118 L104.302 857.591 Q105.321 857.243 106.339 857.081 Q107.358 856.896 108.376 856.896 Q114.163 856.896 117.543 860.067 Q120.922 863.239 120.922 868.655 Q120.922 874.234 117.45 877.336 Q113.978 880.415 107.658 880.415 Q105.483 880.415 103.214 880.044 Q100.969 879.674 98.5613 878.933 L98.5613 874.234 Q100.645 875.368 102.867 875.924 Q105.089 876.479 107.566 876.479 Q111.571 876.479 113.908 874.373 Q116.246 872.266 116.246 868.655 Q116.246 865.044 113.908 862.938 Q111.571 860.831 107.566 860.831 Q105.691 860.831 103.816 861.248 Q101.964 861.665 100.02 862.544 L100.02 845.183 Z" fill="#000000" fill-rule="evenodd" fill-opacity="1" /><polyline clip-path="url(#clip524)" style="stroke:#009af9; stroke-linecap:butt; stroke-linejoin:round; stroke-width:4; stroke-opacity:1; fill:none" points="
  219.069,1468.36 328.097,865.335 437.126,865.335 546.154,865.335 655.182,865.335 764.211,865.335 873.239,865.335 982.268,865.335 1091.3,865.335 1200.32,865.335 
  1309.35,865.335 1418.38,865.335 1527.41,865.335 1636.44,865.335 1745.47,865.335 1854.5,865.335 1963.52,865.335 2072.55,865.335 2181.58,865.335 2290.61,865.335 
  
  "/>
<polyline clip-path="url(#clip524)" style="stroke:#e26f46; stroke-linecap:butt; stroke-linejoin:round; stroke-width:4; stroke-opacity:1; fill:none" points="
  219.069,1008.91 328.097,1008.91 437.126,1008.91 546.154,1008.91 655.182,1008.91 764.211,1008.91 873.239,1008.91 982.268,1008.91 1091.3,1008.91 1200.32,1008.91 
  1309.35,1008.91 1418.38,1008.91 1527.41,1008.91 1636.44,1008.91 1745.47,1008.91 1854.5,1008.91 1963.52,1008.91 2072.55,1008.91 2181.58,1008.91 2290.61,1008.91 
  
  "/>
<path clip-path="url(#clip520)" d="
M2013.31 1465.14 L2279.56 1465.14 L2279.56 1309.62 L2013.31 1309.62  Z
  " fill="#ffffff" fill-rule="evenodd" fill-opacity="1"/>
<polyline clip-path="url(#clip520)" style="stroke:#000000; stroke-linecap:butt; stroke-linejoin:round; stroke-width:4; stroke-opacity:1; fill:none" points="
  2013.31,1465.14 2279.56,1465.14 2279.56,1309.62 2013.31,1309.62 2013.31,1465.14 
  "/>
<polyline clip-path="url(#clip520)" style="stroke:#009af9; stroke-linecap:butt; stroke-linejoin:round; stroke-width:4; stroke-opacity:1; fill:none" points="
  2037.71,1361.46 2184.1,1361.46 
  "/>
<path clip-path="url(#clip520)" d="M2227.85 1359.62 Q2227.85 1360.11 2227.42 1360.51 Q2227.03 1360.91 2226.53 1360.91 Q2226.25 1360.91 2225.57 1360.44 Q2223.63 1359.08 2221.17 1359.08 Q2218.97 1359.08 2216.93 1359.62 Q2214.89 1360.16 2213.51 1361.26 Q2212.15 1362.34 2212.15 1363.74 Q2212.15 1365.5 2214.07 1366.53 Q2216.06 1365.62 2218.52 1365.62 Q2219.32 1365.62 2219.86 1365.66 Q2220.42 1365.71 2220.96 1365.83 Q2221.5 1365.94 2221.76 1366.22 Q2222.04 1366.48 2222.04 1366.9 Q2222.04 1368.4 2218.15 1368.4 Q2215.62 1368.4 2214.03 1367.72 Q2211.99 1368.73 2210.87 1370.35 Q2209.74 1371.96 2209.74 1373.35 Q2209.74 1374.54 2210.4 1375.41 Q2211.08 1376.27 2212.18 1376.69 Q2213.3 1377.12 2214.4 1377.3 Q2215.53 1377.47 2216.77 1377.47 Q2218.81 1377.47 2220.23 1377.21 Q2221.69 1376.93 2222.48 1376.41 Q2223.3 1375.9 2223.63 1375.55 Q2223.98 1375.17 2224.33 1374.59 Q2224.54 1374.26 2224.82 1374.26 Q2225.04 1374.26 2225.18 1374.4 Q2225.34 1374.52 2225.34 1374.73 Q2225.34 1374.98 2225.01 1375.52 Q2224.71 1376.06 2223.96 1376.79 Q2223.23 1377.49 2222.23 1378.15 Q2221.24 1378.78 2219.67 1379.22 Q2218.1 1379.67 2216.32 1379.67 Q2212.69 1379.67 2210.58 1377.89 Q2208.5 1376.11 2208.5 1373.63 Q2208.5 1371.89 2209.65 1370.11 Q2210.82 1368.31 2212.88 1367.16 Q2210.96 1365.73 2210.96 1363.74 Q2210.96 1361.96 2212.46 1360.37 Q2213.98 1358.78 2216.44 1357.84 Q2218.92 1356.88 2221.64 1356.88 Q2223.16 1356.88 2224.66 1357.39 Q2226.16 1357.89 2227 1358.52 Q2227.85 1359.15 2227.85 1359.62 M2220.8 1366.95 Q2219.77 1366.67 2218.52 1366.67 Q2216.84 1366.67 2215.6 1367.09 Q2216.6 1367.35 2218.15 1367.35 Q2219.44 1367.35 2219.81 1367.28 Q2220.21 1367.21 2220.8 1366.95 Z" fill="#000000" fill-rule="evenodd" fill-opacity="1" /><polyline clip-path="url(#clip520)" style="stroke:#e26f46; stroke-linecap:butt; stroke-linejoin:round; stroke-width:4; stroke-opacity:1; fill:none" points="
  2037.71,1413.3 2184.1,1413.3 
  "/>
<path clip-path="url(#clip520)" d="M2228.31 1412.71 Q2228.31 1416.64 2227.05 1421.07 Q2225.81 1425.47 2223.84 1429.03 Q2221.87 1432.57 2219.3 1434.91 Q2216.72 1437.23 2214.26 1437.23 Q2212.69 1437.23 2211.52 1436.36 Q2210.37 1435.47 2209.74 1434 Q2209.11 1432.5 2208.8 1430.86 Q2208.5 1429.19 2208.5 1427.39 Q2208.5 1424.7 2209.09 1421.77 Q2209.67 1418.82 2210.65 1416.15 Q2211.64 1413.45 2213.02 1411.02 Q2214.4 1408.56 2215.92 1406.78 Q2217.47 1404.98 2219.2 1403.92 Q2220.94 1402.87 2222.55 1402.87 Q2223.72 1402.87 2224.66 1403.38 Q2225.62 1403.87 2226.23 1404.74 Q2226.84 1405.58 2227.26 1406.59 Q2227.71 1407.6 2227.92 1408.77 Q2228.13 1409.92 2228.22 1410.88 Q2228.31 1411.82 2228.31 1412.71 M2225.15 1409.73 Q2225.15 1408.54 2225.06 1407.65 Q2224.97 1406.73 2224.71 1405.82 Q2224.45 1404.91 2223.89 1404.41 Q2223.35 1403.92 2222.51 1403.92 Q2220.05 1403.92 2217.28 1408.96 Q2216.39 1410.53 2215.6 1412.66 Q2214.8 1414.79 2214.52 1415.8 Q2214.24 1416.8 2213.58 1419.29 L2223.61 1419.29 Q2225.15 1412.89 2225.15 1409.73 M2223.19 1420.81 L2213.21 1420.81 Q2211.66 1426.66 2211.66 1430.32 Q2211.66 1433.5 2212.32 1434.84 Q2213 1436.15 2214.26 1436.15 Q2215.71 1436.15 2217.07 1434.7 Q2218.43 1433.22 2219.81 1430.55 Q2221.64 1427.09 2223.19 1420.81 Z" fill="#000000" fill-rule="evenodd" fill-opacity="1" /></svg>
