<?xml version="1.0" encoding="utf-8"?>
<svg xmlns="http://www.w3.org/2000/svg" xmlns:xlink="http://www.w3.org/1999/xlink" width="600" height="400" viewBox="0 0 2400 1600">
<defs>
  <clipPath id="clip100">
    <rect x="0" y="0" width="2400" height="1600"/>
  </clipPath>
</defs>
<path clip-path="url(#clip100)" d="
M0 1600 L2400 1600 L2400 0 L0 0  Z
  " fill="#ffffff" fill-rule="evenodd" fill-opacity="1"/>
<defs>
  <clipPath id="clip101">
    <rect x="480" y="0" width="1681" height="1600"/>
  </clipPath>
</defs>
<path clip-path="url(#clip100)" d="
M186.274 1486.45 L2352.76 1486.45 L2352.76 47.2441 L186.274 47.2441  Z
  " fill="#ffffff" fill-rule="evenodd" fill-opacity="1"/>
<defs>
  <clipPath id="clip102">
    <rect x="186" y="47" width="2167" height="1440"/>
  </clipPath>
</defs>
<polyline clip-path="url(#clip102)" style="stroke:#000000; stroke-linecap:butt; stroke-linejoin:round; stroke-width:2; stroke-opacity:0.1; fill:none" points="
  247.589,1486.45 247.589,47.2441 
  "/>
<polyline clip-path="url(#clip102)" style="stroke:#000000; stroke-linecap:butt; stroke-linejoin:round; stroke-width:2; stroke-opacity:0.1; fill:none" points="
  758.552,1486.45 758.552,47.2441 
  "/>
<polyline clip-path="url(#clip102)" style="stroke:#000000; stroke-linecap:butt; stroke-linejoin:round; stroke-width:2; stroke-opacity:0.1; fill:none" points="
  1269.51,1486.45 1269.51,47.2441 
  "/>
<polyline clip-path="url(#clip102)" style="stroke:#000000; stroke-linecap:butt; stroke-linejoin:round; stroke-width:2; stroke-opacity:0.1; fill:none" points="
  1780.48,1486.45 1780.48,47.2441 
  "/>
<polyline clip-path="url(#clip102)" style="stroke:#000000; stroke-linecap:butt; stroke-linejoin:round; stroke-width:2; stroke-opacity:0.1; fill:none" points="
  2291.44,1486.45 2291.44,47.2441 
  "/>
<polyline clip-path="url(#clip100)" style="stroke:#000000; stroke-linecap:butt; stroke-linejoin:round; stroke-width:4; stroke-opacity:1; fill:none" points="
  186.274,1486.45 2352.76,1486.45 
  "/>
<polyline clip-path="url(#clip100)" style="stroke:#000000; stroke-linecap:butt; stroke-linejoin:round; stroke-width:4; stroke-opacity:1; fill:none" points="
  247.589,1486.45 247.589,1467.55 
  "/>
<polyline clip-path="url(#clip100)" style="stroke:#000000; stroke-linecap:butt; stroke-linejoin:round; stroke-width:4; stroke-opacity:1; fill:none" points="
  758.552,1486.45 758.552,1467.55 
  "/>
<polyline clip-path="url(#clip100)" style="stroke:#000000; stroke-linecap:butt; stroke-linejoin:round; stroke-width:4; stroke-opacity:1; fill:none" points="
  1269.51,1486.45 1269.51,1467.55 
  "/>
<polyline clip-path="url(#clip100)" style="stroke:#000000; stroke-linecap:butt; stroke-linejoin:round; stroke-width:4; stroke-opacity:1; fill:none" points="
  1780.48,1486.45 1780.48,1467.55 
  "/>
<polyline clip-path="url(#clip100)" style="stroke:#000000; stroke-linecap:butt; stroke-linejoin:round; stroke-width:4; stroke-opacity:1; fill:none" points="
  2291.44,1486.45 2291.44,1467.55 
  "/>
<path clip-path="url(#clip100)" d="M247.589 1517.37 Q243.978 1517.37 242.149 1520.93 Q240.344 1524.47 240.344 1531.6 Q240.344 1538.71 242.149 1542.27 Q243.978 1545.82 247.589 1545.82 Q251.223 1545.82 253.029 1542.27 Q254.857 1538.71 254.857 1531.6 Q254.857 1524.47 253.029 1520.93 Q251.223 1517.37 247.589 1517.37 M247.589 1513.66 Q253.399 1513.66 256.455 1518.27 Q259.533 1522.85 259.533 1531.6 Q259.533 1540.33 256.455 1544.94 Q253.399 1549.52 247.589 1549.52 Q241.779 1549.52 238.7 1544.94 Q235.645 1540.33 235.645 1531.6 Q235.645 1522.85 238.7 1518.27 Q241.779 1513.66 247.589 1513.66 Z" fill="#000000" fill-rule="evenodd" fill-opacity="1" /><path clip-path="url(#clip100)" d="M748.934 1544.91 L756.573 1544.91 L756.573 1518.55 L748.263 1520.21 L748.263 1515.95 L756.526 1514.29 L761.202 1514.29 L761.202 1544.91 L768.841 1544.91 L768.841 1548.85 L748.934 1548.85 L748.934 1544.91 Z" fill="#000000" fill-rule="evenodd" fill-opacity="1" /><path clip-path="url(#clip100)" d="M1264.17 1544.91 L1280.49 1544.91 L1280.49 1548.85 L1258.54 1548.85 L1258.54 1544.91 Q1261.2 1542.16 1265.79 1537.53 Q1270.39 1532.88 1271.57 1531.53 Q1273.82 1529.01 1274.7 1527.27 Q1275.6 1525.51 1275.6 1523.82 Q1275.6 1521.07 1273.66 1519.33 Q1271.74 1517.6 1268.64 1517.6 Q1266.44 1517.6 1263.98 1518.36 Q1261.55 1519.13 1258.77 1520.68 L1258.77 1515.95 Q1261.6 1514.82 1264.05 1514.24 Q1266.51 1513.66 1268.54 1513.66 Q1273.91 1513.66 1277.11 1516.35 Q1280.3 1519.03 1280.3 1523.52 Q1280.3 1525.65 1279.49 1527.57 Q1278.7 1529.47 1276.6 1532.07 Q1276.02 1532.74 1272.92 1535.95 Q1269.82 1539.15 1264.17 1544.91 Z" fill="#000000" fill-rule="evenodd" fill-opacity="1" /><path clip-path="url(#clip100)" d="M1784.73 1530.21 Q1788.08 1530.93 1789.96 1533.2 Q1791.85 1535.47 1791.85 1538.8 Q1791.85 1543.92 1788.34 1546.72 Q1784.82 1549.52 1778.34 1549.52 Q1776.16 1549.52 1773.85 1549.08 Q1771.55 1548.66 1769.1 1547.81 L1769.1 1543.29 Q1771.04 1544.43 1773.36 1545.01 Q1775.67 1545.58 1778.2 1545.58 Q1782.6 1545.58 1784.89 1543.85 Q1787.2 1542.11 1787.2 1538.8 Q1787.2 1535.75 1785.05 1534.03 Q1782.92 1532.3 1779.1 1532.3 L1775.07 1532.3 L1775.07 1528.45 L1779.29 1528.45 Q1782.73 1528.45 1784.56 1527.09 Q1786.39 1525.7 1786.39 1523.11 Q1786.39 1520.45 1784.49 1519.03 Q1782.62 1517.6 1779.1 1517.6 Q1777.18 1517.6 1774.98 1518.01 Q1772.78 1518.43 1770.14 1519.31 L1770.14 1515.14 Q1772.8 1514.4 1775.12 1514.03 Q1777.46 1513.66 1779.52 1513.66 Q1784.84 1513.66 1787.94 1516.09 Q1791.04 1518.5 1791.04 1522.62 Q1791.04 1525.49 1789.4 1527.48 Q1787.76 1529.45 1784.73 1530.21 Z" fill="#000000" fill-rule="evenodd" fill-opacity="1" /><path clip-path="url(#clip100)" d="M2294.45 1518.36 L2282.64 1536.81 L2294.45 1536.81 L2294.45 1518.36 M2293.22 1514.29 L2299.1 1514.29 L2299.1 1536.81 L2304.03 1536.81 L2304.03 1540.7 L2299.1 1540.7 L2299.1 1548.85 L2294.45 1548.85 L2294.45 1540.7 L2278.85 1540.7 L2278.85 1536.19 L2293.22 1514.29 Z" fill="#000000" fill-rule="evenodd" fill-opacity="1" /><polyline clip-path="url(#clip102)" style="stroke:#000000; stroke-linecap:butt; stroke-linejoin:round; stroke-width:2; stroke-opacity:0.1; fill:none" points="
  186.274,1445.72 2352.76,1445.72 
  "/>
<polyline clip-path="url(#clip102)" style="stroke:#000000; stroke-linecap:butt; stroke-linejoin:round; stroke-width:2; stroke-opacity:0.1; fill:none" points="
  186.274,1127.84 2352.76,1127.84 
  "/>
<polyline clip-path="url(#clip102)" style="stroke:#000000; stroke-linecap:butt; stroke-linejoin:round; stroke-width:2; stroke-opacity:0.1; fill:none" points="
  186.274,809.958 2352.76,809.958 
  "/>
<polyline clip-path="url(#clip102)" style="stroke:#000000; stroke-linecap:butt; stroke-linejoin:round; stroke-width:2; stroke-opacity:0.1; fill:none" points="
  186.274,492.079 2352.76,492.079 
  "/>
<polyline clip-path="url(#clip102)" style="stroke:#000000; stroke-linecap:butt; stroke-linejoin:round; stroke-width:2; stroke-opacity:0.1; fill:none" points="
  186.274,174.2 2352.76,174.2 
  "/>
<polyline clip-path="url(#clip100)" style="stroke:#000000; stroke-linecap:butt; stroke-linejoin:round; stroke-width:4; stroke-opacity:1; fill:none" points="
  186.274,1486.45 186.274,47.2441 
  "/>
<polyline clip-path="url(#clip100)" style="stroke:#000000; stroke-linecap:butt; stroke-linejoin:round; stroke-width:4; stroke-opacity:1; fill:none" points="
  186.274,1445.72 205.172,1445.72 
  "/>
<polyline clip-path="url(#clip100)" style="stroke:#000000; stroke-linecap:butt; stroke-linejoin:round; stroke-width:4; stroke-opacity:1; fill:none" points="
  186.274,1127.84 205.172,1127.84 
  "/>
<polyline clip-path="url(#clip100)" style="stroke:#000000; stroke-linecap:butt; stroke-linejoin:round; stroke-width:4; stroke-opacity:1; fill:none" points="
  186.274,809.958 205.172,809.958 
  "/>
<polyline clip-path="url(#clip100)" style="stroke:#000000; stroke-linecap:butt; stroke-linejoin:round; stroke-width:4; stroke-opacity:1; fill:none" points="
  186.274,492.079 205.172,492.079 
  "/>
<polyline clip-path="url(#clip100)" style="stroke:#000000; stroke-linecap:butt; stroke-linejoin:round; stroke-width:4; stroke-opacity:1; fill:none" points="
  186.274,174.2 205.172,174.2 
  "/>
<path clip-path="url(#clip100)" d="M62.9365 1431.52 Q59.3254 1431.52 57.4967 1435.08 Q55.6912 1438.62 55.6912 1445.75 Q55.6912 1452.86 57.4967 1456.42 Q59.3254 1459.96 62.9365 1459.96 Q66.5707 1459.96 68.3763 1456.42 Q70.205 1452.86 70.205 1445.75 Q70.205 1438.62 68.3763 1435.08 Q66.5707 1431.52 62.9365 1431.52 M62.9365 1427.81 Q68.7467 1427.81 71.8022 1432.42 Q74.8809 1437 74.8809 1445.75 Q74.8809 1454.48 71.8022 1459.08 Q68.7467 1463.67 62.9365 1463.67 Q57.1264 1463.67 54.0477 1459.08 Q50.9921 1454.48 50.9921 1445.75 Q50.9921 1437 54.0477 1432.42 Q57.1264 1427.81 62.9365 1427.81 Z" fill="#000000" fill-rule="evenodd" fill-opacity="1" /><path clip-path="url(#clip100)" d="M83.0984 1457.12 L87.9827 1457.12 L87.9827 1463 L83.0984 1463 L83.0984 1457.12 Z" fill="#000000" fill-rule="evenodd" fill-opacity="1" /><path clip-path="url(#clip100)" d="M108.168 1431.52 Q104.557 1431.52 102.728 1435.08 Q100.922 1438.62 100.922 1445.75 Q100.922 1452.86 102.728 1456.42 Q104.557 1459.96 108.168 1459.96 Q111.802 1459.96 113.608 1456.42 Q115.436 1452.86 115.436 1445.75 Q115.436 1438.62 113.608 1435.08 Q111.802 1431.52 108.168 1431.52 M108.168 1427.81 Q113.978 1427.81 117.033 1432.42 Q120.112 1437 120.112 1445.75 Q120.112 1454.48 117.033 1459.08 Q113.978 1463.67 108.168 1463.67 Q102.358 1463.67 99.2789 1459.08 Q96.2234 1454.48 96.2234 1445.75 Q96.2234 1437 99.2789 1432.42 Q102.358 1427.81 108.168 1427.81 Z" fill="#000000" fill-rule="evenodd" fill-opacity="1" /><path clip-path="url(#clip100)" d="M138.33 1431.52 Q134.719 1431.52 132.89 1435.08 Q131.084 1438.62 131.084 1445.75 Q131.084 1452.86 132.89 1456.42 Q134.719 1459.96 138.33 1459.96 Q141.964 1459.96 143.769 1456.42 Q145.598 1452.86 145.598 1445.75 Q145.598 1438.62 143.769 1435.08 Q141.964 1431.52 138.33 1431.52 M138.33 1427.81 Q144.14 1427.81 147.195 1432.42 Q150.274 1437 150.274 1445.75 Q150.274 1454.48 147.195 1459.08 Q144.14 1463.67 138.33 1463.67 Q132.519 1463.67 129.441 1459.08 Q126.385 1454.48 126.385 1445.75 Q126.385 1437 129.441 1432.42 Q132.519 1427.81 138.33 1427.81 Z" fill="#000000" fill-rule="evenodd" fill-opacity="1" /><path clip-path="url(#clip100)" d="M63.9319 1113.64 Q60.3208 1113.64 58.4921 1117.2 Q56.6865 1120.74 56.6865 1127.87 Q56.6865 1134.98 58.4921 1138.54 Q60.3208 1142.09 63.9319 1142.09 Q67.5661 1142.09 69.3717 1138.54 Q71.2004 1134.98 71.2004 1127.87 Q71.2004 1120.74 69.3717 1117.2 Q67.5661 1113.64 63.9319 1113.64 M63.9319 1109.93 Q69.742 1109.93 72.7976 1114.54 Q75.8763 1119.12 75.8763 1127.87 Q75.8763 1136.6 72.7976 1141.21 Q69.742 1145.79 63.9319 1145.79 Q58.1217 1145.79 55.043 1141.21 Q51.9875 1136.6 51.9875 1127.87 Q51.9875 1119.12 55.043 1114.54 Q58.1217 1109.93 63.9319 1109.93 Z" fill="#000000" fill-rule="evenodd" fill-opacity="1" /><path clip-path="url(#clip100)" d="M84.0938 1139.24 L88.978 1139.24 L88.978 1145.12 L84.0938 1145.12 L84.0938 1139.24 Z" fill="#000000" fill-rule="evenodd" fill-opacity="1" /><path clip-path="url(#clip100)" d="M103.191 1141.18 L119.51 1141.18 L119.51 1145.12 L97.566 1145.12 L97.566 1141.18 Q100.228 1138.43 104.811 1133.8 Q109.418 1129.15 110.598 1127.8 Q112.844 1125.28 113.723 1123.54 Q114.626 1121.78 114.626 1120.09 Q114.626 1117.34 112.682 1115.6 Q110.76 1113.87 107.658 1113.87 Q105.459 1113.87 103.006 1114.63 Q100.575 1115.4 97.7974 1116.95 L97.7974 1112.22 Q100.621 1111.09 103.075 1110.51 Q105.529 1109.93 107.566 1109.93 Q112.936 1109.93 116.131 1112.62 Q119.325 1115.3 119.325 1119.79 Q119.325 1121.92 118.515 1123.84 Q117.728 1125.74 115.621 1128.34 Q115.043 1129.01 111.941 1132.22 Q108.839 1135.42 103.191 1141.18 Z" fill="#000000" fill-rule="evenodd" fill-opacity="1" /><path clip-path="url(#clip100)" d="M129.371 1110.56 L147.728 1110.56 L147.728 1114.49 L133.654 1114.49 L133.654 1122.96 Q134.672 1122.62 135.691 1122.46 Q136.709 1122.27 137.728 1122.27 Q143.515 1122.27 146.894 1125.44 Q150.274 1128.61 150.274 1134.03 Q150.274 1139.61 146.802 1142.71 Q143.33 1145.79 137.01 1145.79 Q134.834 1145.79 132.566 1145.42 Q130.32 1145.05 127.913 1144.31 L127.913 1139.61 Q129.996 1140.74 132.219 1141.3 Q134.441 1141.85 136.918 1141.85 Q140.922 1141.85 143.26 1139.75 Q145.598 1137.64 145.598 1134.03 Q145.598 1130.42 143.26 1128.31 Q140.922 1126.21 136.918 1126.21 Q135.043 1126.21 133.168 1126.62 Q131.316 1127.04 129.371 1127.92 L129.371 1110.56 Z" fill="#000000" fill-rule="evenodd" fill-opacity="1" /><path clip-path="url(#clip100)" d="M62.9365 795.757 Q59.3254 795.757 57.4967 799.322 Q55.6912 802.864 55.6912 809.993 Q55.6912 817.1 57.4967 820.664 Q59.3254 824.206 62.9365 824.206 Q66.5707 824.206 68.3763 820.664 Q70.205 817.1 70.205 809.993 Q70.205 802.864 68.3763 799.322 Q66.5707 795.757 62.9365 795.757 M62.9365 792.053 Q68.7467 792.053 71.8022 796.66 Q74.8809 801.243 74.8809 809.993 Q74.8809 818.72 71.8022 823.326 Q68.7467 827.91 62.9365 827.91 Q57.1264 827.91 54.0477 823.326 Q50.9921 818.72 50.9921 809.993 Q50.9921 801.243 54.0477 796.66 Q57.1264 792.053 62.9365 792.053 Z" fill="#000000" fill-rule="evenodd" fill-opacity="1" /><path clip-path="url(#clip100)" d="M83.0984 821.359 L87.9827 821.359 L87.9827 827.238 L83.0984 827.238 L83.0984 821.359 Z" fill="#000000" fill-rule="evenodd" fill-opacity="1" /><path clip-path="url(#clip100)" d="M98.2141 792.678 L116.57 792.678 L116.57 796.614 L102.496 796.614 L102.496 805.086 Q103.515 804.739 104.534 804.576 Q105.552 804.391 106.571 804.391 Q112.358 804.391 115.737 807.563 Q119.117 810.734 119.117 816.151 Q119.117 821.729 115.645 824.831 Q112.172 827.91 105.853 827.91 Q103.677 827.91 101.409 827.539 Q99.1632 827.169 96.7558 826.428 L96.7558 821.729 Q98.8391 822.863 101.061 823.419 Q103.284 823.975 105.76 823.975 Q109.765 823.975 112.103 821.868 Q114.441 819.762 114.441 816.151 Q114.441 812.539 112.103 810.433 Q109.765 808.326 105.76 808.326 Q103.885 808.326 102.01 808.743 Q100.159 809.16 98.2141 810.039 L98.2141 792.678 Z" fill="#000000" fill-rule="evenodd" fill-opacity="1" /><path clip-path="url(#clip100)" d="M138.33 795.757 Q134.719 795.757 132.89 799.322 Q131.084 802.864 131.084 809.993 Q131.084 817.1 132.89 820.664 Q134.719 824.206 138.33 824.206 Q141.964 824.206 143.769 820.664 Q145.598 817.1 145.598 809.993 Q145.598 802.864 143.769 799.322 Q141.964 795.757 138.33 795.757 M138.33 792.053 Q144.14 792.053 147.195 796.66 Q150.274 801.243 150.274 809.993 Q150.274 818.72 147.195 823.326 Q144.14 827.91 138.33 827.91 Q132.519 827.91 129.441 823.326 Q126.385 818.72 126.385 809.993 Q126.385 801.243 129.441 796.66 Q132.519 792.053 138.33 792.053 Z" fill="#000000" fill-rule="evenodd" fill-opacity="1" /><path clip-path="url(#clip100)" d="M63.9319 477.878 Q60.3208 477.878 58.4921 481.443 Q56.6865 484.984 56.6865 492.114 Q56.6865 499.22 58.4921 502.785 Q60.3208 506.327 63.9319 506.327 Q67.5661 506.327 69.3717 502.785 Q71.2004 499.22 71.2004 492.114 Q71.2004 484.984 69.3717 481.443 Q67.5661 477.878 63.9319 477.878 M63.9319 474.174 Q69.742 474.174 72.7976 478.781 Q75.8763 483.364 75.8763 492.114 Q75.8763 500.841 72.7976 505.447 Q69.742 510.031 63.9319 510.031 Q58.1217 510.031 55.043 505.447 Q51.9875 500.841 51.9875 492.114 Q51.9875 483.364 55.043 478.781 Q58.1217 474.174 63.9319 474.174 Z" fill="#000000" fill-rule="evenodd" fill-opacity="1" /><path clip-path="url(#clip100)" d="M84.0938 503.48 L88.978 503.48 L88.978 509.359 L84.0938 509.359 L84.0938 503.48 Z" fill="#000000" fill-rule="evenodd" fill-opacity="1" /><path clip-path="url(#clip100)" d="M97.9826 474.799 L120.205 474.799 L120.205 476.79 L107.658 509.359 L102.774 509.359 L114.58 478.734 L97.9826 478.734 L97.9826 474.799 Z" fill="#000000" fill-rule="evenodd" fill-opacity="1" /><path clip-path="url(#clip100)" d="M129.371 474.799 L147.728 474.799 L147.728 478.734 L133.654 478.734 L133.654 487.207 Q134.672 486.859 135.691 486.697 Q136.709 486.512 137.728 486.512 Q143.515 486.512 146.894 489.683 Q150.274 492.855 150.274 498.271 Q150.274 503.85 146.802 506.952 Q143.33 510.031 137.01 510.031 Q134.834 510.031 132.566 509.66 Q130.32 509.29 127.913 508.549 L127.913 503.85 Q129.996 504.984 132.219 505.54 Q134.441 506.095 136.918 506.095 Q140.922 506.095 143.26 503.989 Q145.598 501.882 145.598 498.271 Q145.598 494.66 143.26 492.554 Q140.922 490.447 136.918 490.447 Q135.043 490.447 133.168 490.864 Q131.316 491.281 129.371 492.16 L129.371 474.799 Z" fill="#000000" fill-rule="evenodd" fill-opacity="1" /><path clip-path="url(#clip100)" d="M53.7467 187.545 L61.3856 187.545 L61.3856 161.179 L53.0754 162.846 L53.0754 158.587 L61.3393 156.92 L66.0152 156.92 L66.0152 187.545 L73.654 187.545 L73.654 191.48 L53.7467 191.48 L53.7467 187.545 Z" fill="#000000" fill-rule="evenodd" fill-opacity="1" /><path clip-path="url(#clip100)" d="M83.0984 185.6 L87.9827 185.6 L87.9827 191.48 L83.0984 191.48 L83.0984 185.6 Z" fill="#000000" fill-rule="evenodd" fill-opacity="1" /><path clip-path="url(#clip100)" d="M108.168 159.999 Q104.557 159.999 102.728 163.564 Q100.922 167.105 100.922 174.235 Q100.922 181.341 102.728 184.906 Q104.557 188.448 108.168 188.448 Q111.802 188.448 113.608 184.906 Q115.436 181.341 115.436 174.235 Q115.436 167.105 113.608 163.564 Q111.802 159.999 108.168 159.999 M108.168 156.295 Q113.978 156.295 117.033 160.902 Q120.112 165.485 120.112 174.235 Q120.112 182.962 117.033 187.568 Q113.978 192.151 108.168 192.151 Q102.358 192.151 99.2789 187.568 Q96.2234 182.962 96.2234 174.235 Q96.2234 165.485 99.2789 160.902 Q102.358 156.295 108.168 156.295 Z" fill="#000000" fill-rule="evenodd" fill-opacity="1" /><path clip-path="url(#clip100)" d="M138.33 159.999 Q134.719 159.999 132.89 163.564 Q131.084 167.105 131.084 174.235 Q131.084 181.341 132.89 184.906 Q134.719 188.448 138.33 188.448 Q141.964 188.448 143.769 184.906 Q145.598 181.341 145.598 174.235 Q145.598 167.105 143.769 163.564 Q141.964 159.999 138.33 159.999 M138.33 156.295 Q144.14 156.295 147.195 160.902 Q150.274 165.485 150.274 174.235 Q150.274 182.962 147.195 187.568 Q144.14 192.151 138.33 192.151 Q132.519 192.151 129.441 187.568 Q126.385 182.962 126.385 174.235 Q126.385 165.485 129.441 160.902 Q132.519 156.295 138.33 156.295 Z" fill="#000000" fill-rule="evenodd" fill-opacity="1" /><polyline clip-path="url(#clip102)" style="stroke:#009af9; stroke-linecap:butt; stroke-linejoin:round; stroke-width:8; stroke-opacity:0.6; fill:none" points="
  247.59,1445.72 257.86,1431.89 268.131,1419.89 278.401,1408.62 288.672,1397.83 298.943,1387.38 309.213,1377.21 319.484,1367.28 329.754,1357.54 340.025,1347.97 
  350.296,1338.56 360.566,1329.28 370.837,1320.12 381.107,1311.08 391.378,1302.14 401.649,1293.3 411.919,1284.55 422.19,1275.88 432.46,1267.28 442.731,1258.76 
  453.002,1250.32 463.272,1241.93 473.543,1233.61 483.813,1225.35 494.084,1217.15 504.355,1209 514.625,1200.9 524.896,1192.85 535.167,1184.85 545.437,1176.9 
  555.708,1168.99 565.978,1161.12 576.249,1153.3 586.52,1145.51 596.79,1137.77 607.061,1130.06 617.331,1122.39 627.602,1114.75 637.873,1107.15 648.143,1099.58 
  658.414,1092.04 668.684,1084.53 678.955,1077.06 689.226,1069.61 699.496,1062.2 709.767,1054.81 720.037,1047.45 730.308,1040.12 740.579,1032.81 750.849,1025.53 
  761.12,1018.27 771.39,1011.04 781.661,1003.84 791.932,996.654 802.202,989.495 812.473,982.358 822.744,975.244 833.014,968.152 843.285,961.081 853.555,954.031 
  863.826,947.002 874.097,939.994 884.367,933.005 894.638,926.036 904.908,919.086 915.179,912.155 925.45,905.243 935.72,898.349 945.991,891.473 956.261,884.615 
  966.532,877.775 976.803,870.951 987.073,864.144 997.344,857.354 1007.61,850.581 1017.89,843.824 1028.16,837.082 1038.43,830.356 1048.7,823.646 1058.97,816.951 
  1069.24,810.271 1079.51,803.606 1089.78,796.956 1100.05,790.32 1110.32,783.698 1120.59,777.091 1130.86,770.497 1141.13,763.917 1151.4,757.351 1161.67,750.798 
  1171.94,744.258 1182.21,737.731 1192.49,731.217 1202.76,724.716 1213.03,718.228 1223.3,711.751 1233.57,705.288 1243.84,698.836 1254.11,692.397 1264.38,685.969 
  1274.65,679.553 1284.92,673.149 1295.19,666.756 1305.46,660.374 1315.73,654.004 1326,647.645 1336.27,641.297 1346.54,634.96 1356.82,628.633 1367.09,622.318 
  1377.36,616.013 1387.63,609.718 1397.9,603.434 1408.17,597.16 1418.44,590.896 1428.71,584.643 1438.98,578.399 1449.25,572.165 1459.52,565.941 1469.79,559.726 
  1480.06,553.522 1490.33,547.326 1500.6,541.14 1510.87,534.964 1521.14,528.796 1531.42,522.638 1541.69,516.489 1551.96,510.349 1562.23,504.218 1572.5,498.096 
  1582.77,491.983 1593.04,485.878 1603.31,479.782 1613.58,473.694 1623.85,467.615 1634.12,461.545 1644.39,455.482 1654.66,449.428 1664.93,443.383 1675.2,437.345 
  1685.47,431.315 1695.75,425.294 1706.02,419.28 1716.29,413.275 1726.56,407.277 1736.83,401.287 1747.1,395.304 1757.37,389.33 1767.64,383.363 1777.91,377.403 
  1788.18,371.451 1798.45,365.506 1808.72,359.569 1818.99,353.639 1829.26,347.716 1839.53,341.801 1849.8,335.893 1860.07,329.991 1870.35,324.097 1880.62,318.21 
  1890.89,312.33 1901.16,306.457 1911.43,300.59 1921.7,294.731 1931.97,288.878 1942.24,283.032 1952.51,277.193 1962.78,271.36 1973.05,265.534 1983.32,259.714 
  1993.59,253.901 2003.86,248.095 2014.13,242.294 2024.4,236.501 2034.68,230.713 2044.95,224.932 2055.22,219.157 2065.49,213.389 2075.76,207.626 2086.03,201.87 
  2096.3,196.119 2106.57,190.375 2116.84,184.637 2127.11,178.905 2137.38,173.179 2147.65,167.458 2157.92,161.744 2168.19,156.035 2178.46,150.333 2188.73,144.636 
  2199,138.944 2209.28,133.259 2219.55,127.579 2229.82,121.905 2240.09,116.236 2250.36,110.573 2260.63,104.916 2270.9,99.2637 2281.17,93.6173 2291.44,87.9763 
  
  "/>
<polyline clip-path="url(#clip102)" style="stroke:#e26f46; stroke-linecap:butt; stroke-linejoin:round; stroke-width:8; stroke-opacity:0.6; fill:none" points="
  247.59,1445.72 257.86,1431.86 268.131,1420.12 278.401,1408.78 288.672,1398.05 298.943,1387.66 309.213,1377.45 319.484,1367.39 329.754,1357.56 340.025,1348.14 
  350.296,1338.61 360.566,1329.5 370.837,1320.56 381.107,1311.2 391.378,1301.98 401.649,1293.48 411.919,1284.92 422.19,1275.92 432.46,1267.39 442.731,1259.18 
  453.002,1250.31 463.272,1242.06 473.543,1233.83 483.813,1225.44 494.084,1217.44 504.355,1209.18 514.625,1201.05 524.896,1193.29 535.167,1185.07 545.437,1177.15 
  555.708,1169.19 565.978,1161.15 576.249,1153.6 586.52,1145.57 596.79,1137.97 607.061,1130.5 617.331,1122.45 627.602,1114.93 637.873,1107.31 648.143,1099.78 
  658.414,1092.26 668.684,1084.73 678.955,1077.32 689.226,1069.89 699.496,1062.3 709.767,1055 720.037,1047.54 730.308,1040.42 740.579,1032.91 750.849,1025.81 
  761.12,1018.31 771.39,1011.32 781.661,1004.17 791.932,996.94 802.202,989.911 812.473,982.491 822.744,975.531 833.014,968.36 843.285,961.261 853.555,954.204 
  863.826,947.366 874.097,940.232 884.367,933.28 894.638,926.131 904.908,919.341 915.179,912.034 925.45,905.587 935.72,898.289 945.991,891.944 956.261,884.685 
  966.532,878.084 976.803,871.044 987.073,864.308 997.344,857.833 1007.61,850.504 1017.89,844.346 1028.16,837.166 1038.43,830.692 1048.7,823.937 1058.97,817.069 
  1069.24,810.564 1079.51,803.549 1089.78,797.324 1100.05,790.595 1110.32,784.038 1120.59,777.421 1130.86,770.555 1141.13,764.218 1151.4,757.553 1161.67,751.235 
  1171.94,744.647 1182.21,738.109 1192.49,731.638 1202.76,724.857 1213.03,718.889 1223.3,711.905 1233.57,705.716 1243.84,699.267 1254.11,692.565 1264.38,686.705 
  1274.65,679.962 1284.92,673.545 1295.19,667.068 1305.46,660.667 1315.73,654.389 1326,648.138 1336.27,641.543 1346.54,635.31 1356.82,628.742 1367.09,622.594 
  1377.36,616.28 1387.63,609.951 1397.9,603.648 1408.17,597.654 1418.44,591.284 1428.71,585.032 1438.98,578.804 1449.25,572.416 1459.52,566.567 1469.79,559.972 
  1480.06,553.855 1490.33,547.851 1500.6,541.269 1510.87,535.565 1521.14,529.276 1531.42,522.839 1541.69,516.806 1551.96,510.606 1562.23,504.622 1572.5,498.55 
  1582.77,492.337 1593.04,486.369 1603.31,479.977 1613.58,474.184 1623.85,467.998 1634.12,461.893 1644.39,455.979 1654.66,449.713 1664.93,443.762 1675.2,437.666 
  1685.47,431.695 1695.75,425.868 1706.02,419.552 1716.29,413.696 1726.56,407.607 1736.83,401.531 1747.1,395.871 1757.37,389.789 1767.64,383.89 1777.91,377.805 
  1788.18,371.907 1798.45,365.9 1808.72,359.884 1818.99,354.167 1829.26,348.266 1839.53,342.281 1849.8,336.357 1860.07,330.388 1870.35,324.623 1880.62,318.602 
  1890.89,312.66 1901.16,307.064 1911.43,300.753 1921.7,295.248 1931.97,289.304 1942.24,283.416 1952.51,277.709 1962.78,271.583 1973.05,266.092 1983.32,260.157 
  1993.59,254.221 2003.86,248.627 2014.13,242.747 2024.4,236.963 2034.68,231.219 2044.95,225.499 2055.22,219.404 2065.49,213.964 2075.76,208.408 2086.03,201.955 
  2096.3,196.681 2106.57,190.937 2116.84,184.92 2127.11,179.535 2137.38,173.648 2147.65,167.942 2157.92,162.409 2168.19,156.447 2178.46,150.972 2188.73,145.106 
  2199,139.324 2209.28,133.85 2219.55,127.983 2229.82,122.22 2240.09,116.927 2250.36,111.031 2260.63,105.34 2270.9,100.126 2281.17,94.0103 2291.44,88.369 
  
  "/>
<path clip-path="url(#clip100)" d="
M258.49 250.738 L845.782 250.738 L845.782 95.2176 L258.49 95.2176  Z
  " fill="#ffffff" fill-rule="evenodd" fill-opacity="1"/>
<polyline clip-path="url(#clip100)" style="stroke:#000000; stroke-linecap:butt; stroke-linejoin:round; stroke-width:4; stroke-opacity:1; fill:none" points="
  258.49,250.738 845.782,250.738 845.782,95.2176 258.49,95.2176 258.49,250.738 
  "/>
<polyline clip-path="url(#clip100)" style="stroke:#009af9; stroke-linecap:butt; stroke-linejoin:round; stroke-width:4; stroke-opacity:0.6; fill:none" points="
  282.562,147.058 426.994,147.058 
  "/>
<path clip-path="url(#clip100)" d="M455.349 160.449 L455.349 174.199 L451.066 174.199 L451.066 138.412 L455.349 138.412 L455.349 142.347 Q456.691 140.032 458.728 138.921 Q460.788 137.787 463.636 137.787 Q468.358 137.787 471.298 141.537 Q474.261 145.287 474.261 151.398 Q474.261 157.509 471.298 161.259 Q468.358 165.009 463.636 165.009 Q460.788 165.009 458.728 163.898 Q456.691 162.763 455.349 160.449 M469.839 151.398 Q469.839 146.699 467.895 144.037 Q465.974 141.352 462.594 141.352 Q459.214 141.352 457.27 144.037 Q455.349 146.699 455.349 151.398 Q455.349 156.097 457.27 158.782 Q459.214 161.444 462.594 161.444 Q465.974 161.444 467.895 158.782 Q469.839 156.097 469.839 151.398 Z" fill="#000000" fill-rule="evenodd" fill-opacity="1" /><path clip-path="url(#clip100)" d="M491.367 141.398 Q487.941 141.398 485.95 144.083 Q483.96 146.745 483.96 151.398 Q483.96 156.051 485.927 158.736 Q487.918 161.398 491.367 161.398 Q494.77 161.398 496.76 158.713 Q498.751 156.027 498.751 151.398 Q498.751 146.791 496.76 144.106 Q494.77 141.398 491.367 141.398 M491.367 137.787 Q496.922 137.787 500.094 141.398 Q503.265 145.009 503.265 151.398 Q503.265 157.764 500.094 161.398 Q496.922 165.009 491.367 165.009 Q485.788 165.009 482.617 161.398 Q479.469 157.764 479.469 151.398 Q479.469 145.009 482.617 141.398 Q485.788 137.787 491.367 137.787 Z" fill="#000000" fill-rule="evenodd" fill-opacity="1" /><path clip-path="url(#clip100)" d="M510.325 128.319 L514.584 128.319 L514.584 164.338 L510.325 164.338 L510.325 128.319 Z" fill="#000000" fill-rule="evenodd" fill-opacity="1" /><path clip-path="url(#clip100)" d="M523.496 138.412 L527.756 138.412 L527.756 164.338 L523.496 164.338 L523.496 138.412 M523.496 128.319 L527.756 128.319 L527.756 133.713 L523.496 133.713 L523.496 128.319 Z" fill="#000000" fill-rule="evenodd" fill-opacity="1" /><path clip-path="url(#clip100)" d="M555.325 139.407 L555.325 143.389 Q553.519 142.393 551.691 141.907 Q549.885 141.398 548.033 141.398 Q543.89 141.398 541.598 144.037 Q539.307 146.652 539.307 151.398 Q539.307 156.143 541.598 158.782 Q543.89 161.398 548.033 161.398 Q549.885 161.398 551.691 160.912 Q553.519 160.402 555.325 159.407 L555.325 163.342 Q553.543 164.176 551.621 164.592 Q549.723 165.009 547.57 165.009 Q541.714 165.009 538.265 161.328 Q534.816 157.648 534.816 151.398 Q534.816 145.055 538.288 141.421 Q541.783 137.787 547.848 137.787 Q549.816 137.787 551.691 138.203 Q553.566 138.597 555.325 139.407 Z" fill="#000000" fill-rule="evenodd" fill-opacity="1" /><path clip-path="url(#clip100)" d="M573.519 166.745 Q571.714 171.375 570.001 172.787 Q568.288 174.199 565.417 174.199 L562.015 174.199 L562.015 170.634 L564.515 170.634 Q566.274 170.634 567.246 169.8 Q568.218 168.967 569.399 165.865 L570.163 163.921 L559.677 138.412 L564.191 138.412 L572.292 158.689 L580.394 138.412 L584.908 138.412 L573.519 166.745 Z" fill="#000000" fill-rule="evenodd" fill-opacity="1" /><path clip-path="url(#clip100)" d="M605.857 138.412 L610.116 138.412 L610.116 164.338 L605.857 164.338 L605.857 138.412 M605.857 128.319 L610.116 128.319 L610.116 133.713 L605.857 133.713 L605.857 128.319 Z" fill="#000000" fill-rule="evenodd" fill-opacity="1" /><path clip-path="url(#clip100)" d="M623.241 131.051 L623.241 138.412 L632.014 138.412 L632.014 141.722 L623.241 141.722 L623.241 155.796 Q623.241 158.967 624.098 159.87 Q624.977 160.773 627.639 160.773 L632.014 160.773 L632.014 164.338 L627.639 164.338 Q622.709 164.338 620.834 162.509 Q618.959 160.657 618.959 155.796 L618.959 141.722 L615.834 141.722 L615.834 138.412 L618.959 138.412 L618.959 131.051 L623.241 131.051 Z" fill="#000000" fill-rule="evenodd" fill-opacity="1" /><path clip-path="url(#clip100)" d="M659.792 150.31 L659.792 152.393 L640.209 152.393 Q640.487 156.791 642.848 159.106 Q645.232 161.398 649.468 161.398 Q651.922 161.398 654.213 160.796 Q656.528 160.194 658.797 158.99 L658.797 163.018 Q656.505 163.99 654.098 164.5 Q651.69 165.009 649.213 165.009 Q643.01 165.009 639.375 161.398 Q635.764 157.787 635.764 151.629 Q635.764 145.264 639.19 141.537 Q642.639 137.787 648.473 137.787 Q653.704 137.787 656.736 141.166 Q659.792 144.523 659.792 150.31 M655.533 149.06 Q655.486 145.565 653.565 143.481 Q651.667 141.398 648.519 141.398 Q644.954 141.398 642.801 143.412 Q640.672 145.426 640.348 149.083 L655.533 149.06 Z" fill="#000000" fill-rule="evenodd" fill-opacity="1" /><path clip-path="url(#clip100)" d="M681.806 142.393 Q681.088 141.977 680.232 141.791 Q679.398 141.583 678.38 141.583 Q674.769 141.583 672.824 143.944 Q670.903 146.282 670.903 150.68 L670.903 164.338 L666.621 164.338 L666.621 138.412 L670.903 138.412 L670.903 142.44 Q672.246 140.078 674.398 138.944 Q676.551 137.787 679.63 137.787 Q680.07 137.787 680.602 137.856 Q681.134 137.903 681.783 138.018 L681.806 142.393 Z" fill="#000000" fill-rule="evenodd" fill-opacity="1" /><path clip-path="url(#clip100)" d="M698.056 151.305 Q692.894 151.305 690.903 152.486 Q688.912 153.666 688.912 156.514 Q688.912 158.782 690.394 160.125 Q691.898 161.444 694.468 161.444 Q698.009 161.444 700.139 158.944 Q702.292 156.421 702.292 152.254 L702.292 151.305 L698.056 151.305 M706.551 149.546 L706.551 164.338 L702.292 164.338 L702.292 160.402 Q700.833 162.763 698.658 163.898 Q696.482 165.009 693.333 165.009 Q689.352 165.009 686.991 162.787 Q684.653 160.541 684.653 156.791 Q684.653 152.416 687.57 150.194 Q690.509 147.972 696.32 147.972 L702.292 147.972 L702.292 147.555 Q702.292 144.615 700.347 143.018 Q698.426 141.398 694.931 141.398 Q692.708 141.398 690.602 141.93 Q688.496 142.463 686.551 143.527 L686.551 139.592 Q688.889 138.69 691.088 138.25 Q693.287 137.787 695.37 137.787 Q700.995 137.787 703.773 140.703 Q706.551 143.62 706.551 149.546 Z" fill="#000000" fill-rule="evenodd" fill-opacity="1" /><path clip-path="url(#clip100)" d="M719.537 131.051 L719.537 138.412 L728.31 138.412 L728.31 141.722 L719.537 141.722 L719.537 155.796 Q719.537 158.967 720.393 159.87 Q721.273 160.773 723.935 160.773 L728.31 160.773 L728.31 164.338 L723.935 164.338 Q719.005 164.338 717.13 162.509 Q715.255 160.657 715.255 155.796 L715.255 141.722 L712.13 141.722 L712.13 138.412 L715.255 138.412 L715.255 131.051 L719.537 131.051 Z" fill="#000000" fill-rule="evenodd" fill-opacity="1" /><path clip-path="url(#clip100)" d="M733.912 138.412 L738.171 138.412 L738.171 164.338 L733.912 164.338 L733.912 138.412 M733.912 128.319 L738.171 128.319 L738.171 133.713 L733.912 133.713 L733.912 128.319 Z" fill="#000000" fill-rule="evenodd" fill-opacity="1" /><path clip-path="url(#clip100)" d="M757.129 141.398 Q753.704 141.398 751.713 144.083 Q749.722 146.745 749.722 151.398 Q749.722 156.051 751.69 158.736 Q753.68 161.398 757.129 161.398 Q760.532 161.398 762.523 158.713 Q764.514 156.027 764.514 151.398 Q764.514 146.791 762.523 144.106 Q760.532 141.398 757.129 141.398 M757.129 137.787 Q762.685 137.787 765.856 141.398 Q769.027 145.009 769.027 151.398 Q769.027 157.764 765.856 161.398 Q762.685 165.009 757.129 165.009 Q751.551 165.009 748.379 161.398 Q745.231 157.764 745.231 151.398 Q745.231 145.009 748.379 141.398 Q751.551 137.787 757.129 137.787 Z" fill="#000000" fill-rule="evenodd" fill-opacity="1" /><path clip-path="url(#clip100)" d="M797.638 148.689 L797.638 164.338 L793.379 164.338 L793.379 148.828 Q793.379 145.148 791.944 143.319 Q790.509 141.49 787.639 141.49 Q784.189 141.49 782.199 143.69 Q780.208 145.889 780.208 149.685 L780.208 164.338 L775.926 164.338 L775.926 138.412 L780.208 138.412 L780.208 142.44 Q781.736 140.102 783.796 138.944 Q785.879 137.787 788.588 137.787 Q793.055 137.787 795.347 140.565 Q797.638 143.319 797.638 148.689 Z" fill="#000000" fill-rule="evenodd" fill-opacity="1" /><polyline clip-path="url(#clip100)" style="stroke:#e26f46; stroke-linecap:butt; stroke-linejoin:round; stroke-width:4; stroke-opacity:0.6; fill:none" points="
  282.562,198.898 426.994,198.898 
  "/>
<path clip-path="url(#clip100)" d="M451.066 190.252 L455.58 190.252 L463.682 212.011 L471.784 190.252 L476.298 190.252 L466.575 216.178 L460.788 216.178 L451.066 190.252 Z" fill="#000000" fill-rule="evenodd" fill-opacity="1" /><path clip-path="url(#clip100)" d="M493.96 203.145 Q488.798 203.145 486.807 204.326 Q484.816 205.506 484.816 208.354 Q484.816 210.622 486.298 211.965 Q487.802 213.284 490.372 213.284 Q493.913 213.284 496.043 210.784 Q498.196 208.261 498.196 204.094 L498.196 203.145 L493.96 203.145 M502.455 201.386 L502.455 216.178 L498.196 216.178 L498.196 212.242 Q496.737 214.603 494.561 215.738 Q492.385 216.849 489.237 216.849 Q485.256 216.849 482.895 214.627 Q480.557 212.381 480.557 208.631 Q480.557 204.256 483.473 202.034 Q486.413 199.812 492.223 199.812 L498.196 199.812 L498.196 199.395 Q498.196 196.455 496.251 194.858 Q494.33 193.238 490.835 193.238 Q488.612 193.238 486.506 193.77 Q484.399 194.303 482.455 195.367 L482.455 191.432 Q484.793 190.53 486.992 190.09 Q489.191 189.627 491.274 189.627 Q496.899 189.627 499.677 192.543 Q502.455 195.46 502.455 201.386 Z" fill="#000000" fill-rule="evenodd" fill-opacity="1" /><path clip-path="url(#clip100)" d="M511.228 180.159 L515.487 180.159 L515.487 216.178 L511.228 216.178 L511.228 180.159 Z" fill="#000000" fill-rule="evenodd" fill-opacity="1" /><path clip-path="url(#clip100)" d="M523.959 205.946 L523.959 190.252 L528.219 190.252 L528.219 205.784 Q528.219 209.465 529.654 211.316 Q531.089 213.145 533.959 213.145 Q537.408 213.145 539.399 210.946 Q541.413 208.747 541.413 204.951 L541.413 190.252 L545.672 190.252 L545.672 216.178 L541.413 216.178 L541.413 212.196 Q539.862 214.557 537.802 215.715 Q535.765 216.849 533.057 216.849 Q528.589 216.849 526.274 214.071 Q523.959 211.293 523.959 205.946 M534.677 189.627 L534.677 189.627 Z" fill="#000000" fill-rule="evenodd" fill-opacity="1" /><path clip-path="url(#clip100)" d="M576.621 202.15 L576.621 204.233 L557.038 204.233 Q557.316 208.631 559.677 210.946 Q562.061 213.238 566.297 213.238 Q568.751 213.238 571.042 212.636 Q573.357 212.034 575.626 210.83 L575.626 214.858 Q573.334 215.83 570.927 216.34 Q568.519 216.849 566.042 216.849 Q559.839 216.849 556.205 213.238 Q552.593 209.627 552.593 203.469 Q552.593 197.104 556.019 193.377 Q559.468 189.627 565.302 189.627 Q570.533 189.627 573.566 193.006 Q576.621 196.363 576.621 202.15 M572.362 200.9 Q572.316 197.405 570.394 195.321 Q568.496 193.238 565.348 193.238 Q561.783 193.238 559.63 195.252 Q557.501 197.266 557.177 200.923 L572.362 200.9 Z" fill="#000000" fill-rule="evenodd" fill-opacity="1" /><path clip-path="url(#clip100)" d="M598.681 190.252 L602.94 190.252 L602.94 216.178 L598.681 216.178 L598.681 190.252 M598.681 180.159 L602.94 180.159 L602.94 185.553 L598.681 185.553 L598.681 180.159 Z" fill="#000000" fill-rule="evenodd" fill-opacity="1" /><path clip-path="url(#clip100)" d="M616.065 182.891 L616.065 190.252 L624.838 190.252 L624.838 193.562 L616.065 193.562 L616.065 207.636 Q616.065 210.807 616.922 211.71 Q617.801 212.613 620.463 212.613 L624.838 212.613 L624.838 216.178 L620.463 216.178 Q615.533 216.178 613.658 214.349 Q611.783 212.497 611.783 207.636 L611.783 193.562 L608.658 193.562 L608.658 190.252 L611.783 190.252 L611.783 182.891 L616.065 182.891 Z" fill="#000000" fill-rule="evenodd" fill-opacity="1" /><path clip-path="url(#clip100)" d="M652.616 202.15 L652.616 204.233 L633.033 204.233 Q633.311 208.631 635.672 210.946 Q638.056 213.238 642.292 213.238 Q644.746 213.238 647.037 212.636 Q649.352 212.034 651.621 210.83 L651.621 214.858 Q649.329 215.83 646.922 216.34 Q644.514 216.849 642.037 216.849 Q635.834 216.849 632.2 213.238 Q628.588 209.627 628.588 203.469 Q628.588 197.104 632.014 193.377 Q635.463 189.627 641.297 189.627 Q646.528 189.627 649.561 193.006 Q652.616 196.363 652.616 202.15 M648.357 200.9 Q648.311 197.405 646.389 195.321 Q644.491 193.238 641.343 193.238 Q637.778 193.238 635.625 195.252 Q633.496 197.266 633.172 200.923 L648.357 200.9 Z" fill="#000000" fill-rule="evenodd" fill-opacity="1" /><path clip-path="url(#clip100)" d="M674.63 194.233 Q673.912 193.817 673.056 193.631 Q672.222 193.423 671.204 193.423 Q667.593 193.423 665.648 195.784 Q663.727 198.122 663.727 202.52 L663.727 216.178 L659.445 216.178 L659.445 190.252 L663.727 190.252 L663.727 194.28 Q665.07 191.918 667.222 190.784 Q669.375 189.627 672.454 189.627 Q672.894 189.627 673.426 189.696 Q673.959 189.743 674.607 189.858 L674.63 194.233 Z" fill="#000000" fill-rule="evenodd" fill-opacity="1" /><path clip-path="url(#clip100)" d="M690.88 203.145 Q685.718 203.145 683.727 204.326 Q681.736 205.506 681.736 208.354 Q681.736 210.622 683.218 211.965 Q684.722 213.284 687.292 213.284 Q690.833 213.284 692.963 210.784 Q695.116 208.261 695.116 204.094 L695.116 203.145 L690.88 203.145 M699.375 201.386 L699.375 216.178 L695.116 216.178 L695.116 212.242 Q693.658 214.603 691.482 215.738 Q689.306 216.849 686.158 216.849 Q682.176 216.849 679.815 214.627 Q677.477 212.381 677.477 208.631 Q677.477 204.256 680.394 202.034 Q683.334 199.812 689.144 199.812 L695.116 199.812 L695.116 199.395 Q695.116 196.455 693.171 194.858 Q691.25 193.238 687.755 193.238 Q685.533 193.238 683.426 193.77 Q681.32 194.303 679.375 195.367 L679.375 191.432 Q681.713 190.53 683.912 190.09 Q686.111 189.627 688.195 189.627 Q693.82 189.627 696.597 192.543 Q699.375 195.46 699.375 201.386 Z" fill="#000000" fill-rule="evenodd" fill-opacity="1" /><path clip-path="url(#clip100)" d="M712.361 182.891 L712.361 190.252 L721.134 190.252 L721.134 193.562 L712.361 193.562 L712.361 207.636 Q712.361 210.807 713.218 211.71 Q714.097 212.613 716.759 212.613 L721.134 212.613 L721.134 216.178 L716.759 216.178 Q711.829 216.178 709.954 214.349 Q708.079 212.497 708.079 207.636 L708.079 193.562 L704.954 193.562 L704.954 190.252 L708.079 190.252 L708.079 182.891 L712.361 182.891 Z" fill="#000000" fill-rule="evenodd" fill-opacity="1" /><path clip-path="url(#clip100)" d="M726.736 190.252 L730.995 190.252 L730.995 216.178 L726.736 216.178 L726.736 190.252 M726.736 180.159 L730.995 180.159 L730.995 185.553 L726.736 185.553 L726.736 180.159 Z" fill="#000000" fill-rule="evenodd" fill-opacity="1" /><path clip-path="url(#clip100)" d="M749.954 193.238 Q746.528 193.238 744.537 195.923 Q742.546 198.585 742.546 203.238 Q742.546 207.891 744.514 210.576 Q746.504 213.238 749.954 213.238 Q753.356 213.238 755.347 210.553 Q757.338 207.867 757.338 203.238 Q757.338 198.631 755.347 195.946 Q753.356 193.238 749.954 193.238 M749.954 189.627 Q755.509 189.627 758.68 193.238 Q761.852 196.849 761.852 203.238 Q761.852 209.604 758.68 213.238 Q755.509 216.849 749.954 216.849 Q744.375 216.849 741.204 213.238 Q738.055 209.604 738.055 203.238 Q738.055 196.849 741.204 193.238 Q744.375 189.627 749.954 189.627 Z" fill="#000000" fill-rule="evenodd" fill-opacity="1" /><path clip-path="url(#clip100)" d="M790.463 200.529 L790.463 216.178 L786.203 216.178 L786.203 200.668 Q786.203 196.988 784.768 195.159 Q783.333 193.33 780.463 193.33 Q777.014 193.33 775.023 195.53 Q773.032 197.729 773.032 201.525 L773.032 216.178 L768.75 216.178 L768.75 190.252 L773.032 190.252 L773.032 194.28 Q774.56 191.942 776.62 190.784 Q778.703 189.627 781.412 189.627 Q785.879 189.627 788.171 192.405 Q790.463 195.159 790.463 200.529 Z" fill="#000000" fill-rule="evenodd" fill-opacity="1" /></svg>
