<?xml version="1.0" encoding="utf-8"?>
<svg xmlns="http://www.w3.org/2000/svg" xmlns:xlink="http://www.w3.org/1999/xlink" width="600" height="400" viewBox="0 0 2400 1600">
<defs>
  <clipPath id="clip580">
    <rect x="0" y="0" width="2400" height="1600"/>
  </clipPath>
</defs>
<path clip-path="url(#clip580)" d="
M0 1600 L2400 1600 L2400 0 L0 0  Z
  " fill="#ffffff" fill-rule="evenodd" fill-opacity="1"/>
<defs>
  <clipPath id="clip581">
    <rect x="480" y="0" width="1681" height="1600"/>
  </clipPath>
</defs>
<path clip-path="url(#clip580)" d="
M156.112 1486.45 L2352.76 1486.45 L2352.76 47.2441 L156.112 47.2441  Z
  " fill="#ffffff" fill-rule="evenodd" fill-opacity="1"/>
<defs>
  <clipPath id="clip582">
    <rect x="156" y="47" width="2198" height="1440"/>
  </clipPath>
</defs>
<polyline clip-path="url(#clip582)" style="stroke:#000000; stroke-linecap:butt; stroke-linejoin:round; stroke-width:2; stroke-opacity:0.1; fill:none" points="
  218.281,1486.45 218.281,47.2441 
  "/>
<polyline clip-path="url(#clip582)" style="stroke:#000000; stroke-linecap:butt; stroke-linejoin:round; stroke-width:2; stroke-opacity:0.1; fill:none" points="
  736.357,1486.45 736.357,47.2441 
  "/>
<polyline clip-path="url(#clip582)" style="stroke:#000000; stroke-linecap:butt; stroke-linejoin:round; stroke-width:2; stroke-opacity:0.1; fill:none" points="
  1254.43,1486.45 1254.43,47.2441 
  "/>
<polyline clip-path="url(#clip582)" style="stroke:#000000; stroke-linecap:butt; stroke-linejoin:round; stroke-width:2; stroke-opacity:0.1; fill:none" points="
  1772.51,1486.45 1772.51,47.2441 
  "/>
<polyline clip-path="url(#clip582)" style="stroke:#000000; stroke-linecap:butt; stroke-linejoin:round; stroke-width:2; stroke-opacity:0.1; fill:none" points="
  2290.59,1486.45 2290.59,47.2441 
  "/>
<polyline clip-path="url(#clip580)" style="stroke:#000000; stroke-linecap:butt; stroke-linejoin:round; stroke-width:4; stroke-opacity:1; fill:none" points="
  156.112,1486.45 2352.76,1486.45 
  "/>
<polyline clip-path="url(#clip580)" style="stroke:#000000; stroke-linecap:butt; stroke-linejoin:round; stroke-width:4; stroke-opacity:1; fill:none" points="
  218.281,1486.45 218.281,1467.55 
  "/>
<polyline clip-path="url(#clip580)" style="stroke:#000000; stroke-linecap:butt; stroke-linejoin:round; stroke-width:4; stroke-opacity:1; fill:none" points="
  736.357,1486.45 736.357,1467.55 
  "/>
<polyline clip-path="url(#clip580)" style="stroke:#000000; stroke-linecap:butt; stroke-linejoin:round; stroke-width:4; stroke-opacity:1; fill:none" points="
  1254.43,1486.45 1254.43,1467.55 
  "/>
<polyline clip-path="url(#clip580)" style="stroke:#000000; stroke-linecap:butt; stroke-linejoin:round; stroke-width:4; stroke-opacity:1; fill:none" points="
  1772.51,1486.45 1772.51,1467.55 
  "/>
<polyline clip-path="url(#clip580)" style="stroke:#000000; stroke-linecap:butt; stroke-linejoin:round; stroke-width:4; stroke-opacity:1; fill:none" points="
  2290.59,1486.45 2290.59,1467.55 
  "/>
<path clip-path="url(#clip580)" d="M218.281 1517.37 Q214.67 1517.37 212.841 1520.93 Q211.035 1524.47 211.035 1531.6 Q211.035 1538.71 212.841 1542.27 Q214.67 1545.82 218.281 1545.82 Q221.915 1545.82 223.721 1542.27 Q225.549 1538.71 225.549 1531.6 Q225.549 1524.47 223.721 1520.93 Q221.915 1517.37 218.281 1517.37 M218.281 1513.66 Q224.091 1513.66 227.146 1518.27 Q230.225 1522.85 230.225 1531.6 Q230.225 1540.33 227.146 1544.94 Q224.091 1549.52 218.281 1549.52 Q212.471 1549.52 209.392 1544.94 Q206.336 1540.33 206.336 1531.6 Q206.336 1522.85 209.392 1518.27 Q212.471 1513.66 218.281 1513.66 Z" fill="#000000" fill-rule="evenodd" fill-opacity="1" /><path clip-path="url(#clip580)" d="M726.739 1544.91 L734.378 1544.91 L734.378 1518.55 L726.068 1520.21 L726.068 1515.95 L734.332 1514.29 L739.008 1514.29 L739.008 1544.91 L746.647 1544.91 L746.647 1548.85 L726.739 1548.85 L726.739 1544.91 Z" fill="#000000" fill-rule="evenodd" fill-opacity="1" /><path clip-path="url(#clip580)" d="M1249.09 1544.91 L1265.41 1544.91 L1265.41 1548.85 L1243.46 1548.85 L1243.46 1544.91 Q1246.12 1542.16 1250.71 1537.53 Q1255.31 1532.88 1256.49 1531.53 Q1258.74 1529.01 1259.62 1527.27 Q1260.52 1525.51 1260.52 1523.82 Q1260.52 1521.07 1258.58 1519.33 Q1256.66 1517.6 1253.55 1517.6 Q1251.36 1517.6 1248.9 1518.36 Q1246.47 1519.13 1243.69 1520.68 L1243.69 1515.95 Q1246.52 1514.82 1248.97 1514.24 Q1251.42 1513.66 1253.46 1513.66 Q1258.83 1513.66 1262.03 1516.35 Q1265.22 1519.03 1265.22 1523.52 Q1265.22 1525.65 1264.41 1527.57 Q1263.62 1529.47 1261.52 1532.07 Q1260.94 1532.74 1257.84 1535.95 Q1254.73 1539.15 1249.09 1544.91 Z" fill="#000000" fill-rule="evenodd" fill-opacity="1" /><path clip-path="url(#clip580)" d="M1776.76 1530.21 Q1780.11 1530.93 1781.99 1533.2 Q1783.89 1535.47 1783.89 1538.8 Q1783.89 1543.92 1780.37 1546.72 Q1776.85 1549.52 1770.37 1549.52 Q1768.19 1549.52 1765.88 1549.08 Q1763.59 1548.66 1761.13 1547.81 L1761.13 1543.29 Q1763.08 1544.43 1765.39 1545.01 Q1767.71 1545.58 1770.23 1545.58 Q1774.63 1545.58 1776.92 1543.85 Q1779.23 1542.11 1779.23 1538.8 Q1779.23 1535.75 1777.08 1534.03 Q1774.95 1532.3 1771.13 1532.3 L1767.11 1532.3 L1767.11 1528.45 L1771.32 1528.45 Q1774.77 1528.45 1776.6 1527.09 Q1778.42 1525.7 1778.42 1523.11 Q1778.42 1520.45 1776.53 1519.03 Q1774.65 1517.6 1771.13 1517.6 Q1769.21 1517.6 1767.01 1518.01 Q1764.81 1518.43 1762.17 1519.31 L1762.17 1515.14 Q1764.84 1514.4 1767.15 1514.03 Q1769.49 1513.66 1771.55 1513.66 Q1776.87 1513.66 1779.98 1516.09 Q1783.08 1518.5 1783.08 1522.62 Q1783.08 1525.49 1781.43 1527.48 Q1779.79 1529.45 1776.76 1530.21 Z" fill="#000000" fill-rule="evenodd" fill-opacity="1" /><path clip-path="url(#clip580)" d="M2293.6 1518.36 L2281.79 1536.81 L2293.6 1536.81 L2293.6 1518.36 M2292.37 1514.29 L2298.25 1514.29 L2298.25 1536.81 L2303.18 1536.81 L2303.18 1540.7 L2298.25 1540.7 L2298.25 1548.85 L2293.6 1548.85 L2293.6 1540.7 L2277.99 1540.7 L2277.99 1536.19 L2292.37 1514.29 Z" fill="#000000" fill-rule="evenodd" fill-opacity="1" /><polyline clip-path="url(#clip582)" style="stroke:#000000; stroke-linecap:butt; stroke-linejoin:round; stroke-width:2; stroke-opacity:0.1; fill:none" points="
  156.112,1445.72 2352.76,1445.72 
  "/>
<polyline clip-path="url(#clip582)" style="stroke:#000000; stroke-linecap:butt; stroke-linejoin:round; stroke-width:2; stroke-opacity:0.1; fill:none" points="
  156.112,1002.01 2352.76,1002.01 
  "/>
<polyline clip-path="url(#clip582)" style="stroke:#000000; stroke-linecap:butt; stroke-linejoin:round; stroke-width:2; stroke-opacity:0.1; fill:none" points="
  156.112,558.304 2352.76,558.304 
  "/>
<polyline clip-path="url(#clip582)" style="stroke:#000000; stroke-linecap:butt; stroke-linejoin:round; stroke-width:2; stroke-opacity:0.1; fill:none" points="
  156.112,114.599 2352.76,114.599 
  "/>
<polyline clip-path="url(#clip580)" style="stroke:#000000; stroke-linecap:butt; stroke-linejoin:round; stroke-width:4; stroke-opacity:1; fill:none" points="
  156.112,1486.45 156.112,47.2441 
  "/>
<polyline clip-path="url(#clip580)" style="stroke:#000000; stroke-linecap:butt; stroke-linejoin:round; stroke-width:4; stroke-opacity:1; fill:none" points="
  156.112,1445.72 175.01,1445.72 
  "/>
<polyline clip-path="url(#clip580)" style="stroke:#000000; stroke-linecap:butt; stroke-linejoin:round; stroke-width:4; stroke-opacity:1; fill:none" points="
  156.112,1002.01 175.01,1002.01 
  "/>
<polyline clip-path="url(#clip580)" style="stroke:#000000; stroke-linecap:butt; stroke-linejoin:round; stroke-width:4; stroke-opacity:1; fill:none" points="
  156.112,558.304 175.01,558.304 
  "/>
<polyline clip-path="url(#clip580)" style="stroke:#000000; stroke-linecap:butt; stroke-linejoin:round; stroke-width:4; stroke-opacity:1; fill:none" points="
  156.112,114.599 175.01,114.599 
  "/>
<path clip-path="url(#clip580)" d="M62.9365 1431.51 Q59.3254 1431.51 57.4967 1435.08 Q55.6912 1438.62 55.6912 1445.75 Q55.6912 1452.86 57.4967 1456.42 Q59.3254 1459.96 62.9365 1459.96 Q66.5707 1459.96 68.3763 1456.42 Q70.205 1452.86 70.205 1445.75 Q70.205 1438.62 68.3763 1435.08 Q66.5707 1431.51 62.9365 1431.51 M62.9365 1427.81 Q68.7467 1427.81 71.8022 1432.42 Q74.8809 1437 74.8809 1445.75 Q74.8809 1454.48 71.8022 1459.08 Q68.7467 1463.67 62.9365 1463.67 Q57.1264 1463.67 54.0477 1459.08 Q50.9921 1454.48 50.9921 1445.75 Q50.9921 1437 54.0477 1432.42 Q57.1264 1427.81 62.9365 1427.81 Z" fill="#000000" fill-rule="evenodd" fill-opacity="1" /><path clip-path="url(#clip580)" d="M83.0984 1457.12 L87.9827 1457.12 L87.9827 1463 L83.0984 1463 L83.0984 1457.12 Z" fill="#000000" fill-rule="evenodd" fill-opacity="1" /><path clip-path="url(#clip580)" d="M108.168 1431.51 Q104.557 1431.51 102.728 1435.08 Q100.922 1438.62 100.922 1445.75 Q100.922 1452.86 102.728 1456.42 Q104.557 1459.96 108.168 1459.96 Q111.802 1459.96 113.608 1456.42 Q115.436 1452.86 115.436 1445.75 Q115.436 1438.62 113.608 1435.08 Q111.802 1431.51 108.168 1431.51 M108.168 1427.81 Q113.978 1427.81 117.033 1432.42 Q120.112 1437 120.112 1445.75 Q120.112 1454.48 117.033 1459.08 Q113.978 1463.67 108.168 1463.67 Q102.358 1463.67 99.2789 1459.08 Q96.2234 1454.48 96.2234 1445.75 Q96.2234 1437 99.2789 1432.42 Q102.358 1427.81 108.168 1427.81 Z" fill="#000000" fill-rule="evenodd" fill-opacity="1" /><path clip-path="url(#clip580)" d="M63.9319 987.809 Q60.3208 987.809 58.4921 991.374 Q56.6865 994.915 56.6865 1002.04 Q56.6865 1009.15 58.4921 1012.72 Q60.3208 1016.26 63.9319 1016.26 Q67.5661 1016.26 69.3717 1012.72 Q71.2004 1009.15 71.2004 1002.04 Q71.2004 994.915 69.3717 991.374 Q67.5661 987.809 63.9319 987.809 M63.9319 984.105 Q69.742 984.105 72.7976 988.712 Q75.8763 993.295 75.8763 1002.04 Q75.8763 1010.77 72.7976 1015.38 Q69.742 1019.96 63.9319 1019.96 Q58.1217 1019.96 55.043 1015.38 Q51.9875 1010.77 51.9875 1002.04 Q51.9875 993.295 55.043 988.712 Q58.1217 984.105 63.9319 984.105 Z" fill="#000000" fill-rule="evenodd" fill-opacity="1" /><path clip-path="url(#clip580)" d="M84.0938 1013.41 L88.978 1013.41 L88.978 1019.29 L84.0938 1019.29 L84.0938 1013.41 Z" fill="#000000" fill-rule="evenodd" fill-opacity="1" /><path clip-path="url(#clip580)" d="M99.2095 984.73 L117.566 984.73 L117.566 988.665 L103.492 988.665 L103.492 997.138 Q104.51 996.79 105.529 996.628 Q106.547 996.443 107.566 996.443 Q113.353 996.443 116.733 999.614 Q120.112 1002.79 120.112 1008.2 Q120.112 1013.78 116.64 1016.88 Q113.168 1019.96 106.848 1019.96 Q104.672 1019.96 102.404 1019.59 Q100.159 1019.22 97.7511 1018.48 L97.7511 1013.78 Q99.8345 1014.92 102.057 1015.47 Q104.279 1016.03 106.756 1016.03 Q110.76 1016.03 113.098 1013.92 Q115.436 1011.81 115.436 1008.2 Q115.436 1004.59 113.098 1002.48 Q110.76 1000.38 106.756 1000.38 Q104.881 1000.38 103.006 1000.79 Q101.154 1001.21 99.2095 1002.09 L99.2095 984.73 Z" fill="#000000" fill-rule="evenodd" fill-opacity="1" /><path clip-path="url(#clip580)" d="M53.7467 571.649 L61.3856 571.649 L61.3856 545.284 L53.0754 546.95 L53.0754 542.691 L61.3393 541.024 L66.0152 541.024 L66.0152 571.649 L73.654 571.649 L73.654 575.584 L53.7467 575.584 L53.7467 571.649 Z" fill="#000000" fill-rule="evenodd" fill-opacity="1" /><path clip-path="url(#clip580)" d="M83.0984 569.705 L87.9827 569.705 L87.9827 575.584 L83.0984 575.584 L83.0984 569.705 Z" fill="#000000" fill-rule="evenodd" fill-opacity="1" /><path clip-path="url(#clip580)" d="M108.168 544.103 Q104.557 544.103 102.728 547.668 Q100.922 551.21 100.922 558.339 Q100.922 565.446 102.728 569.01 Q104.557 572.552 108.168 572.552 Q111.802 572.552 113.608 569.01 Q115.436 565.446 115.436 558.339 Q115.436 551.21 113.608 547.668 Q111.802 544.103 108.168 544.103 M108.168 540.399 Q113.978 540.399 117.033 545.006 Q120.112 549.589 120.112 558.339 Q120.112 567.066 117.033 571.672 Q113.978 576.256 108.168 576.256 Q102.358 576.256 99.2789 571.672 Q96.2234 567.066 96.2234 558.339 Q96.2234 549.589 99.2789 545.006 Q102.358 540.399 108.168 540.399 Z" fill="#000000" fill-rule="evenodd" fill-opacity="1" /><path clip-path="url(#clip580)" d="M54.7421 127.943 L62.381 127.943 L62.381 101.578 L54.0708 103.245 L54.0708 98.9853 L62.3347 97.3186 L67.0106 97.3186 L67.0106 127.943 L74.6494 127.943 L74.6494 131.879 L54.7421 131.879 L54.7421 127.943 Z" fill="#000000" fill-rule="evenodd" fill-opacity="1" /><path clip-path="url(#clip580)" d="M84.0938 125.999 L88.978 125.999 L88.978 131.879 L84.0938 131.879 L84.0938 125.999 Z" fill="#000000" fill-rule="evenodd" fill-opacity="1" /><path clip-path="url(#clip580)" d="M99.2095 97.3186 L117.566 97.3186 L117.566 101.254 L103.492 101.254 L103.492 109.726 Q104.51 109.379 105.529 109.217 Q106.547 109.032 107.566 109.032 Q113.353 109.032 116.733 112.203 Q120.112 115.374 120.112 120.791 Q120.112 126.369 116.64 129.471 Q113.168 132.55 106.848 132.55 Q104.672 132.55 102.404 132.18 Q100.159 131.809 97.7511 131.068 L97.7511 126.369 Q99.8345 127.504 102.057 128.059 Q104.279 128.615 106.756 128.615 Q110.76 128.615 113.098 126.508 Q115.436 124.402 115.436 120.791 Q115.436 117.18 113.098 115.073 Q110.76 112.967 106.756 112.967 Q104.881 112.967 103.006 113.383 Q101.154 113.8 99.2095 114.68 L99.2095 97.3186 Z" fill="#000000" fill-rule="evenodd" fill-opacity="1" /><polyline clip-path="url(#clip582)" style="stroke:#009af9; stroke-linecap:butt; stroke-linejoin:round; stroke-width:4; stroke-opacity:1; fill:none" points="
  218.281,1445.72 228.695,1438.89 239.108,1432.07 249.522,1425.25 259.936,1418.42 270.349,1411.6 280.763,1404.78 291.176,1397.96 301.59,1391.13 312.004,1384.31 
  322.417,1377.49 332.831,1370.66 343.244,1363.84 353.658,1357.02 364.072,1350.2 374.485,1343.37 384.899,1336.55 395.312,1329.73 405.726,1322.91 416.14,1316.08 
  426.553,1309.26 436.967,1302.44 447.38,1295.61 457.794,1288.79 468.208,1281.97 478.621,1275.15 489.035,1268.32 499.448,1261.5 509.862,1254.68 520.276,1247.85 
  530.689,1241.03 541.103,1234.21 551.516,1227.39 561.93,1220.56 572.344,1213.74 582.757,1206.92 593.171,1200.09 603.584,1193.27 613.998,1186.45 624.412,1179.63 
  634.825,1172.8 645.239,1165.98 655.652,1159.16 666.066,1152.33 676.479,1145.51 686.893,1138.69 697.307,1131.87 707.72,1125.04 718.134,1118.22 728.547,1111.4 
  738.961,1104.58 749.375,1097.75 759.788,1090.93 770.202,1084.11 780.615,1077.28 791.029,1070.46 801.443,1063.64 811.856,1056.82 822.27,1049.99 832.683,1043.17 
  843.097,1036.35 853.511,1029.52 863.924,1022.7 874.338,1015.88 884.751,1009.06 895.165,1002.23 905.579,995.41 915.992,988.587 926.406,981.765 936.819,974.942 
  947.233,968.119 957.647,961.296 968.06,954.473 978.474,947.65 988.887,940.828 999.301,934.005 1009.71,927.182 1020.13,920.359 1030.54,913.536 1040.96,906.714 
  1051.37,899.891 1061.78,893.068 1072.2,886.245 1082.61,879.422 1093.02,872.6 1103.44,865.777 1113.85,858.954 1124.26,852.131 1134.68,845.308 1145.09,838.486 
  1155.5,831.663 1165.92,824.84 1176.33,818.017 1186.75,811.194 1197.16,804.371 1207.57,797.549 1217.99,790.726 1228.4,783.903 1238.81,777.08 1249.23,770.257 
  1259.64,763.435 1270.05,756.612 1280.47,749.789 1290.88,742.966 1301.3,736.143 1311.71,729.321 1322.12,722.498 1332.54,715.675 1342.95,708.852 1353.36,702.029 
  1363.78,695.206 1374.19,688.384 1384.6,681.561 1395.02,674.738 1405.43,667.915 1415.84,661.092 1426.26,654.27 1436.67,647.447 1447.09,640.624 1457.5,633.801 
  1467.91,626.978 1478.33,620.156 1488.74,613.333 1499.15,606.51 1509.57,599.687 1519.98,592.864 1530.39,586.041 1540.81,579.219 1551.22,572.396 1561.64,565.573 
  1572.05,558.75 1582.46,551.927 1592.88,545.105 1603.29,538.282 1613.7,531.459 1624.12,524.636 1634.53,517.813 1644.94,510.991 1655.36,504.168 1665.77,497.345 
  1676.18,490.522 1686.6,483.699 1697.01,476.877 1707.43,470.054 1717.84,463.231 1728.25,456.408 1738.67,449.585 1749.08,442.762 1759.49,435.94 1769.91,429.117 
  1780.32,422.294 1790.73,415.471 1801.15,408.648 1811.56,401.826 1821.97,395.003 1832.39,388.18 1842.8,381.357 1853.22,374.534 1863.63,367.712 1874.04,360.889 
  1884.46,354.066 1894.87,347.243 1905.28,340.42 1915.7,333.597 1926.11,326.775 1936.52,319.952 1946.94,313.129 1957.35,306.306 1967.77,299.483 1978.18,292.661 
  1988.59,285.838 1999.01,279.015 2009.42,272.192 2019.83,265.369 2030.25,258.547 2040.66,251.724 2051.07,244.901 2061.49,238.078 2071.9,231.255 2082.31,224.432 
  2092.73,217.61 2103.14,210.787 2113.56,203.964 2123.97,197.141 2134.38,190.318 2144.8,183.496 2155.21,176.673 2165.62,169.85 2176.04,163.027 2186.45,156.204 
  2196.86,149.382 2207.28,142.559 2217.69,135.736 2228.11,128.913 2238.52,122.09 2248.93,115.268 2259.35,108.445 2269.76,101.622 2280.17,94.7991 2290.59,87.9763 
  
  "/>
<polyline clip-path="url(#clip582)" style="stroke:#e26f46; stroke-linecap:butt; stroke-linejoin:round; stroke-width:4; stroke-opacity:1; fill:none" points="
  218.281,1445.72 228.695,1438.89 239.108,1432.07 249.522,1425.25 259.936,1418.42 270.349,1411.6 280.763,1404.78 291.176,1397.96 301.59,1391.13 312.004,1384.31 
  322.417,1377.49 332.831,1370.66 343.244,1363.84 353.658,1357.02 364.072,1350.2 374.485,1343.37 384.899,1336.55 395.312,1329.73 405.726,1322.91 416.14,1316.08 
  426.553,1309.26 436.967,1302.44 447.38,1295.61 457.794,1288.79 468.208,1281.97 478.621,1275.15 489.035,1268.32 499.448,1261.5 509.862,1254.68 520.276,1247.85 
  530.689,1241.03 541.103,1234.21 551.516,1227.39 561.93,1220.56 572.344,1213.74 582.757,1206.92 593.171,1200.09 603.584,1193.27 613.998,1186.45 624.412,1179.63 
  634.825,1172.8 645.239,1165.98 655.652,1159.16 666.066,1152.33 676.479,1145.51 686.893,1138.69 697.307,1131.87 707.72,1125.04 718.134,1118.22 728.547,1111.4 
  738.961,1104.58 749.375,1097.75 759.788,1090.93 770.202,1084.11 780.615,1077.28 791.029,1070.46 801.443,1063.64 811.856,1056.82 822.27,1049.99 832.683,1043.17 
  843.097,1036.35 853.511,1029.52 863.924,1022.7 874.338,1015.88 884.751,1009.06 895.165,1002.23 905.579,995.41 915.992,988.587 926.406,981.765 936.819,974.942 
  947.233,968.119 957.647,961.296 968.06,954.473 978.474,947.65 988.887,940.828 999.301,934.005 1009.71,927.182 1020.13,920.359 1030.54,913.536 1040.96,906.714 
  1051.37,899.891 1061.78,893.068 1072.2,886.245 1082.61,879.422 1093.02,872.6 1103.44,865.777 1113.85,858.954 1124.26,852.131 1134.68,845.308 1145.09,838.486 
  1155.5,831.663 1165.92,824.84 1176.33,818.017 1186.75,811.194 1197.16,804.371 1207.57,797.549 1217.99,790.726 1228.4,783.903 1238.81,777.08 1249.23,770.257 
  1259.64,763.435 1270.05,756.612 1280.47,749.789 1290.88,742.966 1301.3,736.143 1311.71,729.321 1322.12,722.498 1332.54,715.675 1342.95,708.852 1353.36,702.029 
  1363.78,695.206 1374.19,688.384 1384.6,681.561 1395.02,674.738 1405.43,667.915 1415.84,661.092 1426.26,654.27 1436.67,647.447 1447.09,640.624 1457.5,633.801 
  1467.91,626.978 1478.33,620.156 1488.74,613.333 1499.15,606.51 1509.57,599.687 1519.98,592.864 1530.39,586.041 1540.81,579.219 1551.22,572.396 1561.64,565.573 
  1572.05,558.75 1582.46,551.927 1592.88,545.105 1603.29,538.282 1613.7,531.459 1624.12,524.636 1634.53,517.813 1644.94,510.991 1655.36,504.168 1665.77,497.345 
  1676.18,490.522 1686.6,483.699 1697.01,476.877 1707.43,470.054 1717.84,463.231 1728.25,456.408 1738.67,449.585 1749.08,442.762 1759.49,435.94 1769.91,429.117 
  1780.32,422.294 1790.73,415.471 1801.15,408.648 1811.56,401.826 1821.97,395.003 1832.39,388.18 1842.8,381.357 1853.22,374.534 1863.63,367.712 1874.04,360.889 
  1884.46,354.066 1894.87,347.243 1905.28,340.42 1915.7,333.597 1926.11,326.775 1936.52,319.952 1946.94,313.129 1957.35,306.306 1967.77,299.483 1978.18,292.661 
  1988.59,285.838 1999.01,279.015 2009.42,272.192 2019.83,265.369 2030.25,258.547 2040.66,251.724 2051.07,244.901 2061.49,238.078 2071.9,231.255 2082.31,224.432 
  2092.73,217.61 2103.14,210.787 2113.56,203.964 2123.97,197.141 2134.38,190.318 2144.8,183.496 2155.21,176.673 2165.62,169.85 2176.04,163.027 2186.45,156.204 
  2196.86,149.382 2207.28,142.559 2217.69,135.736 2228.11,128.913 2238.52,122.09 2248.93,115.268 2259.35,108.445 2269.76,101.622 2280.17,94.7991 2290.59,87.9763 
  
  "/>
<path clip-path="url(#clip580)" d="
M229.334 250.738 L883.722 250.738 L883.722 95.2176 L229.334 95.2176  Z
  " fill="#ffffff" fill-rule="evenodd" fill-opacity="1"/>
<polyline clip-path="url(#clip580)" style="stroke:#000000; stroke-linecap:butt; stroke-linejoin:round; stroke-width:4; stroke-opacity:1; fill:none" points="
  229.334,250.738 883.722,250.738 883.722,95.2176 229.334,95.2176 229.334,250.738 
  "/>
<polyline clip-path="url(#clip580)" style="stroke:#009af9; stroke-linecap:butt; stroke-linejoin:round; stroke-width:4; stroke-opacity:1; fill:none" points="
  253.741,147.058 400.184,147.058 
  "/>
<path clip-path="url(#clip580)" d="M436.489 151.275 Q433.063 151.275 431.072 153.96 Q429.082 156.622 429.082 161.275 Q429.082 165.927 431.049 168.613 Q433.04 171.275 436.489 171.275 Q439.892 171.275 441.882 168.59 Q443.873 165.904 443.873 161.275 Q443.873 156.668 441.882 153.983 Q439.892 151.275 436.489 151.275 M436.489 147.664 Q442.044 147.664 445.216 151.275 Q448.387 154.886 448.387 161.275 Q448.387 167.64 445.216 171.275 Q442.044 174.886 436.489 174.886 Q430.91 174.886 427.739 171.275 Q424.591 167.64 424.591 161.275 Q424.591 154.886 427.739 151.275 Q430.91 147.664 436.489 147.664 Z" fill="#000000" fill-rule="evenodd" fill-opacity="1" /><path clip-path="url(#clip580)" d="M459.567 170.326 L459.567 184.076 L455.285 184.076 L455.285 148.289 L459.567 148.289 L459.567 152.224 Q460.91 149.909 462.947 148.798 Q465.007 147.664 467.854 147.664 Q472.577 147.664 475.516 151.414 Q478.479 155.164 478.479 161.275 Q478.479 167.386 475.516 171.136 Q472.577 174.886 467.854 174.886 Q465.007 174.886 462.947 173.775 Q460.91 172.64 459.567 170.326 M474.058 161.275 Q474.058 156.576 472.114 153.914 Q470.192 151.228 466.813 151.228 Q463.433 151.228 461.489 153.914 Q459.567 156.576 459.567 161.275 Q459.567 165.974 461.489 168.659 Q463.433 171.321 466.813 171.321 Q470.192 171.321 472.114 168.659 Q474.058 165.974 474.058 161.275 Z" fill="#000000" fill-rule="evenodd" fill-opacity="1" /><path clip-path="url(#clip580)" d="M489.752 140.928 L489.752 148.289 L498.526 148.289 L498.526 151.599 L489.752 151.599 L489.752 165.673 Q489.752 168.844 490.609 169.747 Q491.489 170.65 494.151 170.65 L498.526 170.65 L498.526 174.214 L494.151 174.214 Q489.22 174.214 487.345 172.386 Q485.47 170.534 485.47 165.673 L485.47 151.599 L482.345 151.599 L482.345 148.289 L485.47 148.289 L485.47 140.928 L489.752 140.928 Z" fill="#000000" fill-rule="evenodd" fill-opacity="1" /><path clip-path="url(#clip580)" d="M504.127 148.289 L508.387 148.289 L508.387 174.214 L504.127 174.214 L504.127 148.289 M504.127 138.196 L508.387 138.196 L508.387 143.59 L504.127 143.59 L504.127 138.196 Z" fill="#000000" fill-rule="evenodd" fill-opacity="1" /><path clip-path="url(#clip580)" d="M537.484 153.266 Q539.081 150.395 541.303 149.029 Q543.525 147.664 546.535 147.664 Q550.586 147.664 552.785 150.511 Q554.984 153.335 554.984 158.566 L554.984 174.214 L550.701 174.214 L550.701 158.705 Q550.701 154.978 549.382 153.173 Q548.062 151.367 545.354 151.367 Q542.044 151.367 540.123 153.566 Q538.201 155.766 538.201 159.562 L538.201 174.214 L533.919 174.214 L533.919 158.705 Q533.919 154.955 532.599 153.173 Q531.28 151.367 528.525 151.367 Q525.262 151.367 523.34 153.59 Q521.419 155.789 521.419 159.562 L521.419 174.214 L517.137 174.214 L517.137 148.289 L521.419 148.289 L521.419 152.316 Q522.877 149.932 524.914 148.798 Q526.951 147.664 529.752 147.664 Q532.576 147.664 534.544 149.099 Q536.535 150.534 537.484 153.266 Z" fill="#000000" fill-rule="evenodd" fill-opacity="1" /><path clip-path="url(#clip580)" d="M575.261 161.182 Q570.099 161.182 568.109 162.363 Q566.118 163.543 566.118 166.39 Q566.118 168.659 567.599 170.002 Q569.104 171.321 571.673 171.321 Q575.215 171.321 577.345 168.821 Q579.497 166.298 579.497 162.131 L579.497 161.182 L575.261 161.182 M583.757 159.423 L583.757 174.214 L579.497 174.214 L579.497 170.279 Q578.039 172.64 575.863 173.775 Q573.687 174.886 570.539 174.886 Q566.558 174.886 564.197 172.664 Q561.859 170.418 561.859 166.668 Q561.859 162.293 564.775 160.071 Q567.715 157.849 573.525 157.849 L579.497 157.849 L579.497 157.432 Q579.497 154.492 577.553 152.895 Q575.632 151.275 572.136 151.275 Q569.914 151.275 567.808 151.807 Q565.701 152.34 563.757 153.404 L563.757 149.469 Q566.095 148.566 568.294 148.127 Q570.493 147.664 572.576 147.664 Q578.201 147.664 580.979 150.58 Q583.757 153.497 583.757 159.423 Z" fill="#000000" fill-rule="evenodd" fill-opacity="1" /><path clip-path="url(#clip580)" d="M592.53 138.196 L596.789 138.196 L596.789 174.214 L592.53 174.214 L592.53 138.196 Z" fill="#000000" fill-rule="evenodd" fill-opacity="1" /><path clip-path="url(#clip580)" d="M624.891 170.326 L624.891 184.076 L620.608 184.076 L620.608 148.289 L624.891 148.289 L624.891 152.224 Q626.233 149.909 628.27 148.798 Q630.33 147.664 633.178 147.664 Q637.9 147.664 640.84 151.414 Q643.803 155.164 643.803 161.275 Q643.803 167.386 640.84 171.136 Q637.9 174.886 633.178 174.886 Q630.33 174.886 628.27 173.775 Q626.233 172.64 624.891 170.326 M639.381 161.275 Q639.381 156.576 637.437 153.914 Q635.516 151.228 632.136 151.228 Q628.756 151.228 626.812 153.914 Q624.891 156.576 624.891 161.275 Q624.891 165.974 626.812 168.659 Q628.756 171.321 632.136 171.321 Q635.516 171.321 637.437 168.659 Q639.381 165.974 639.381 161.275 Z" fill="#000000" fill-rule="evenodd" fill-opacity="1" /><path clip-path="url(#clip580)" d="M660.909 151.275 Q657.483 151.275 655.492 153.96 Q653.502 156.622 653.502 161.275 Q653.502 165.927 655.469 168.613 Q657.46 171.275 660.909 171.275 Q664.312 171.275 666.302 168.59 Q668.293 165.904 668.293 161.275 Q668.293 156.668 666.302 153.983 Q664.312 151.275 660.909 151.275 M660.909 147.664 Q666.465 147.664 669.636 151.275 Q672.807 154.886 672.807 161.275 Q672.807 167.64 669.636 171.275 Q666.465 174.886 660.909 174.886 Q655.33 174.886 652.159 171.275 Q649.011 167.64 649.011 161.275 Q649.011 154.886 652.159 151.275 Q655.33 147.664 660.909 147.664 Z" fill="#000000" fill-rule="evenodd" fill-opacity="1" /><path clip-path="url(#clip580)" d="M679.867 138.196 L684.126 138.196 L684.126 174.214 L679.867 174.214 L679.867 138.196 Z" fill="#000000" fill-rule="evenodd" fill-opacity="1" /><path clip-path="url(#clip580)" d="M693.038 148.289 L697.298 148.289 L697.298 174.214 L693.038 174.214 L693.038 148.289 M693.038 138.196 L697.298 138.196 L697.298 143.59 L693.038 143.59 L693.038 138.196 Z" fill="#000000" fill-rule="evenodd" fill-opacity="1" /><path clip-path="url(#clip580)" d="M724.867 149.284 L724.867 153.266 Q723.061 152.27 721.233 151.784 Q719.427 151.275 717.575 151.275 Q713.432 151.275 711.14 153.914 Q708.849 156.529 708.849 161.275 Q708.849 166.02 711.14 168.659 Q713.432 171.275 717.575 171.275 Q719.427 171.275 721.233 170.789 Q723.061 170.279 724.867 169.284 L724.867 173.219 Q723.085 174.052 721.163 174.469 Q719.265 174.886 717.112 174.886 Q711.256 174.886 707.807 171.205 Q704.358 167.525 704.358 161.275 Q704.358 154.932 707.83 151.298 Q711.325 147.664 717.39 147.664 Q719.358 147.664 721.233 148.08 Q723.108 148.474 724.867 149.284 Z" fill="#000000" fill-rule="evenodd" fill-opacity="1" /><path clip-path="url(#clip580)" d="M743.061 176.622 Q741.256 181.251 739.543 182.664 Q737.83 184.076 734.96 184.076 L731.557 184.076 L731.557 180.511 L734.057 180.511 Q735.816 180.511 736.788 179.677 Q737.76 178.844 738.941 175.742 L739.705 173.798 L729.219 148.289 L733.733 148.289 L741.834 168.566 L749.936 148.289 L754.45 148.289 L743.061 176.622 Z" fill="#000000" fill-rule="evenodd" fill-opacity="1" /><path clip-path="url(#clip580)" d="M789.412 168.663 Q789.599 168.874 789.599 169.085 Q789.599 169.296 789.131 169.905 Q788.686 170.514 787.725 171.334 Q786.765 172.153 785.524 172.926 Q784.282 173.699 782.455 174.214 Q780.628 174.753 778.708 174.753 Q775.124 174.753 773.016 172.388 Q770.932 170.022 770.932 166.626 Q770.932 163.323 772.782 160.161 Q774.632 156.976 777.63 155.008 Q780.628 153.017 783.79 153.017 Q786.297 153.017 787.866 154.188 Q789.435 155.359 789.435 157.14 Q789.435 158.521 788.639 159.365 Q787.843 160.208 786.765 160.208 Q786.016 160.208 785.5 159.786 Q784.985 159.341 784.985 158.521 Q784.985 157.467 785.852 156.648 Q786.18 156.32 786.554 156.179 Q786.952 156.015 787.187 156.015 Q787.421 155.992 787.96 155.992 Q787.468 155.078 786.297 154.586 Q785.149 154.071 783.837 154.071 Q781.893 154.071 780.043 155.43 Q778.193 156.765 777.068 158.873 Q775.944 160.934 775.218 163.862 Q774.492 166.766 774.492 168.453 Q774.492 170.771 775.569 172.224 Q776.647 173.676 778.801 173.676 Q779.223 173.676 779.668 173.652 Q780.137 173.629 781.308 173.371 Q782.502 173.114 783.556 172.669 Q784.61 172.224 785.945 171.263 Q787.304 170.28 788.381 168.944 Q788.756 168.453 789.014 168.453 Q789.224 168.453 789.412 168.663 Z" fill="#000000" fill-rule="evenodd" fill-opacity="1" /><path clip-path="url(#clip580)" d="M803.849 143.326 Q803.849 142.752 804.62 142.375 L809.293 140.161 L804.554 137.948 Q803.849 137.62 803.849 137.046 Q803.849 136.718 804.112 136.423 Q804.39 136.111 804.751 136.111 Q805.013 136.111 805.489 136.472 L809.653 139.489 Q809.145 133.947 809.161 133.783 Q809.161 133.455 809.407 133.209 Q809.653 132.947 810.063 132.947 Q810.391 132.947 810.653 133.193 Q810.932 133.423 810.932 133.783 L810.44 139.489 L814.162 136.734 Q815.031 136.095 815.343 136.111 Q815.72 136.111 815.982 136.407 Q816.244 136.702 816.244 137.046 Q816.244 137.62 815.474 137.981 L810.801 140.194 L815.539 142.424 Q816.244 142.752 816.244 143.326 Q816.244 143.653 815.966 143.965 Q815.703 144.26 815.343 144.26 Q815.146 144.26 814.802 144.063 Q814.736 144.031 814.031 143.506 Q813.326 142.981 812.227 142.178 Q811.145 141.374 810.44 140.866 Q810.949 146.408 810.932 146.572 Q810.932 146.9 810.686 147.162 Q810.44 147.424 810.03 147.424 Q809.702 147.424 809.424 147.195 Q809.161 146.949 809.161 146.572 L809.653 140.866 L804.964 144.26 Q804.456 144.26 804.177 144.014 Q803.915 143.752 803.882 143.604 Q803.849 143.457 803.849 143.326 Z" fill="#000000" fill-rule="evenodd" fill-opacity="1" /><polyline clip-path="url(#clip580)" style="stroke:#e26f46; stroke-linecap:butt; stroke-linejoin:round; stroke-width:4; stroke-opacity:1; fill:none" points="
  253.741,198.898 400.184,198.898 
  "/>
<path clip-path="url(#clip580)" d="M465.416 193.825 Q465.416 194.13 465.346 194.34 Q465.276 194.528 465.112 194.622 Q464.948 194.715 464.854 194.739 Q464.76 194.762 464.55 194.786 Q463.542 194.879 462.84 195.043 Q462.16 195.207 460.474 196.05 Q458.811 196.894 456.726 198.416 L448.341 204.904 L446.936 206.005 Q446.936 206.075 446.983 206.216 Q447.03 206.333 447.076 206.497 Q447.147 206.637 447.17 206.684 L453.986 222.401 Q454.525 223.665 455.181 224.11 Q455.836 224.555 457.312 224.579 Q457.546 224.579 457.64 224.602 Q457.757 224.602 457.921 224.649 Q458.108 224.673 458.179 224.79 Q458.272 224.907 458.272 225.094 Q458.272 226.054 457.406 226.054 Q456.867 226.054 455.04 225.984 Q453.213 225.914 452.698 225.914 Q451.737 225.914 449.77 225.984 Q447.802 226.054 446.842 226.054 Q446.163 226.054 446.163 225.516 Q446.163 225.071 446.327 224.86 Q446.514 224.626 446.678 224.602 Q446.842 224.579 447.217 224.579 Q447.498 224.579 447.802 224.555 Q448.13 224.509 448.599 224.391 Q449.091 224.251 449.395 223.923 Q449.723 223.572 449.723 223.08 Q449.723 222.682 449.138 221.393 L443.586 208.488 L436.443 214.062 L434.522 221.604 Q434.475 221.885 434.358 222.377 Q434.241 222.869 434.147 223.22 Q434.077 223.572 434.077 223.712 Q434.077 224.017 434.264 224.204 Q434.475 224.391 434.99 224.485 Q435.506 224.555 435.904 224.579 Q436.325 224.579 437.192 224.579 Q438.27 224.579 438.457 224.766 Q438.551 224.883 438.551 225.094 Q438.551 225.422 438.457 225.656 Q438.363 225.867 438.176 225.937 Q438.012 226.008 437.895 226.031 Q437.778 226.054 437.59 226.054 Q437.098 226.054 436.044 226.008 Q435.014 225.961 434.475 225.961 L431.407 225.914 L425.317 226.054 Q424.591 226.054 424.591 225.469 Q424.591 225.024 424.778 224.837 Q424.966 224.626 425.176 224.602 Q425.387 224.579 425.926 224.579 Q427.097 224.579 427.8 224.509 Q428.502 224.438 428.947 224.345 Q429.416 224.228 429.65 223.9 Q429.908 223.572 430.025 223.291 Q430.142 222.986 430.306 222.307 L436.724 196.542 Q436.911 195.769 436.911 195.652 Q436.911 195.254 436.677 195.113 Q436.466 194.949 435.857 194.879 Q434.686 194.786 433.796 194.786 Q433.21 194.786 432.976 194.762 Q432.765 194.739 432.578 194.622 Q432.414 194.481 432.414 194.2 Q432.414 193.286 433.374 193.286 L439.558 193.427 L445.694 193.286 Q446.374 193.286 446.374 193.825 Q446.374 194.504 446.046 194.645 Q445.741 194.786 444.734 194.786 Q442.977 194.786 442.181 195.02 Q441.408 195.231 441.174 195.605 Q440.963 195.957 440.705 196.987 L436.864 212.376 L455.579 197.994 Q457.312 196.542 457.312 195.793 Q457.312 195.301 456.961 195.09 Q456.633 194.856 455.813 194.786 Q455.227 194.692 455.227 194.247 Q455.227 193.802 455.391 193.591 Q455.579 193.357 455.719 193.333 Q455.883 193.286 456.141 193.286 Q457.007 193.286 458.811 193.357 Q460.615 193.427 461.481 193.427 Q462.067 193.427 463.214 193.357 Q464.362 193.286 464.877 193.286 Q465.135 193.286 465.276 193.474 Q465.416 193.638 465.416 193.825 Z" fill="#000000" fill-rule="evenodd" fill-opacity="1" /><path clip-path="url(#clip580)" d="M483.381 220.503 Q483.569 220.714 483.569 220.925 Q483.569 221.136 483.1 221.745 Q482.655 222.354 481.695 223.174 Q480.734 223.993 479.493 224.766 Q478.252 225.539 476.425 226.054 Q474.598 226.593 472.677 226.593 Q469.093 226.593 466.985 224.228 Q464.901 221.862 464.901 218.466 Q464.901 215.163 466.751 212.001 Q468.602 208.816 471.6 206.848 Q474.598 204.857 477.76 204.857 Q480.266 204.857 481.835 206.028 Q483.405 207.199 483.405 208.98 Q483.405 210.361 482.608 211.205 Q481.812 212.048 480.734 212.048 Q479.985 212.048 479.47 211.626 Q478.954 211.181 478.954 210.361 Q478.954 209.307 479.821 208.488 Q480.149 208.16 480.524 208.019 Q480.922 207.855 481.156 207.855 Q481.39 207.832 481.929 207.832 Q481.437 206.918 480.266 206.426 Q479.118 205.911 477.807 205.911 Q475.863 205.911 474.012 207.27 Q472.162 208.605 471.038 210.713 Q469.913 212.774 469.187 215.702 Q468.461 218.606 468.461 220.293 Q468.461 222.611 469.539 224.064 Q470.616 225.516 472.771 225.516 Q473.192 225.516 473.637 225.492 Q474.106 225.469 475.277 225.211 Q476.472 224.954 477.526 224.509 Q478.58 224.064 479.915 223.103 Q481.273 222.12 482.351 220.784 Q482.725 220.293 482.983 220.293 Q483.194 220.293 483.381 220.503 Z" fill="#000000" fill-rule="evenodd" fill-opacity="1" /><path clip-path="url(#clip580)" d="M497.819 195.166 Q497.819 194.592 498.589 194.215 L503.262 192.001 L498.524 189.788 Q497.819 189.46 497.819 188.886 Q497.819 188.558 498.081 188.263 Q498.36 187.951 498.72 187.951 Q498.983 187.951 499.458 188.312 L503.623 191.329 Q503.114 185.787 503.131 185.623 Q503.131 185.295 503.377 185.049 Q503.623 184.787 504.033 184.787 Q504.36 184.787 504.623 185.033 Q504.901 185.263 504.901 185.623 L504.41 191.329 L508.131 188.574 Q509 187.935 509.312 187.951 Q509.689 187.951 509.951 188.247 Q510.214 188.542 510.214 188.886 Q510.214 189.46 509.443 189.821 L504.77 192.034 L509.509 194.264 Q510.214 194.592 510.214 195.166 Q510.214 195.493 509.935 195.805 Q509.673 196.1 509.312 196.1 Q509.115 196.1 508.771 195.903 Q508.705 195.871 508 195.346 Q507.295 194.821 506.197 194.018 Q505.115 193.214 504.41 192.706 Q504.918 198.248 504.901 198.412 Q504.901 198.74 504.656 199.002 Q504.41 199.264 504 199.264 Q503.672 199.264 503.393 199.035 Q503.131 198.789 503.131 198.412 L503.623 192.706 L498.933 196.1 Q498.425 196.1 498.146 195.854 Q497.884 195.592 497.851 195.444 Q497.819 195.297 497.819 195.166 Z" fill="#000000" fill-rule="evenodd" fill-opacity="1" /></svg>
