<?xml version="1.0" encoding="utf-8"?>
<svg xmlns="http://www.w3.org/2000/svg" xmlns:xlink="http://www.w3.org/1999/xlink" width="600" height="400" viewBox="0 0 2400 1600">
<defs>
  <clipPath id="clip070">
    <rect x="0" y="0" width="2400" height="1600"/>
  </clipPath>
</defs>
<path clip-path="url(#clip070)" d="
M0 1600 L2400 1600 L2400 0 L0 0  Z
  " fill="#ffffff" fill-rule="evenodd" fill-opacity="1"/>
<defs>
  <clipPath id="clip071">
    <rect x="480" y="0" width="1681" height="1600"/>
  </clipPath>
</defs>
<defs>
  <clipPath id="clip072">
    <rect x="156" y="47" width="2198" height="1440"/>
  </clipPath>
</defs>
<path clip-path="url(#clip070)" d="
M112.177 1486.45 L2352.76 1486.45 L2352.76 47.2441 L112.177 47.2441  Z
  " fill="#ffffff" fill-rule="evenodd" fill-opacity="1"/>
<defs>
  <clipPath id="clip073">
    <rect x="112" y="47" width="2242" height="1440"/>
  </clipPath>
</defs>
<polyline clip-path="url(#clip073)" style="stroke:#000000; stroke-linecap:butt; stroke-linejoin:round; stroke-width:2; stroke-opacity:0.1; fill:none" points="
  175.589,1486.45 175.589,47.2441 
  "/>
<polyline clip-path="url(#clip073)" style="stroke:#000000; stroke-linecap:butt; stroke-linejoin:round; stroke-width:2; stroke-opacity:0.1; fill:none" points="
  704.028,1486.45 704.028,47.2441 
  "/>
<polyline clip-path="url(#clip073)" style="stroke:#000000; stroke-linecap:butt; stroke-linejoin:round; stroke-width:2; stroke-opacity:0.1; fill:none" points="
  1232.47,1486.45 1232.47,47.2441 
  "/>
<polyline clip-path="url(#clip073)" style="stroke:#000000; stroke-linecap:butt; stroke-linejoin:round; stroke-width:2; stroke-opacity:0.1; fill:none" points="
  1760.9,1486.45 1760.9,47.2441 
  "/>
<polyline clip-path="url(#clip073)" style="stroke:#000000; stroke-linecap:butt; stroke-linejoin:round; stroke-width:2; stroke-opacity:0.1; fill:none" points="
  2289.34,1486.45 2289.34,47.2441 
  "/>
<polyline clip-path="url(#clip070)" style="stroke:#000000; stroke-linecap:butt; stroke-linejoin:round; stroke-width:4; stroke-opacity:1; fill:none" points="
  112.177,1486.45 2352.76,1486.45 
  "/>
<polyline clip-path="url(#clip070)" style="stroke:#000000; stroke-linecap:butt; stroke-linejoin:round; stroke-width:4; stroke-opacity:1; fill:none" points="
  175.589,1486.45 175.589,1467.55 
  "/>
<polyline clip-path="url(#clip070)" style="stroke:#000000; stroke-linecap:butt; stroke-linejoin:round; stroke-width:4; stroke-opacity:1; fill:none" points="
  704.028,1486.45 704.028,1467.55 
  "/>
<polyline clip-path="url(#clip070)" style="stroke:#000000; stroke-linecap:butt; stroke-linejoin:round; stroke-width:4; stroke-opacity:1; fill:none" points="
  1232.47,1486.45 1232.47,1467.55 
  "/>
<polyline clip-path="url(#clip070)" style="stroke:#000000; stroke-linecap:butt; stroke-linejoin:round; stroke-width:4; stroke-opacity:1; fill:none" points="
  1760.9,1486.45 1760.9,1467.55 
  "/>
<polyline clip-path="url(#clip070)" style="stroke:#000000; stroke-linecap:butt; stroke-linejoin:round; stroke-width:4; stroke-opacity:1; fill:none" points="
  2289.34,1486.45 2289.34,1467.55 
  "/>
<path clip-path="url(#clip070)" d="M175.589 1517.37 Q171.978 1517.37 170.149 1520.93 Q168.344 1524.47 168.344 1531.6 Q168.344 1538.71 170.149 1542.27 Q171.978 1545.82 175.589 1545.82 Q179.223 1545.82 181.029 1542.27 Q182.858 1538.71 182.858 1531.6 Q182.858 1524.47 181.029 1520.93 Q179.223 1517.37 175.589 1517.37 M175.589 1513.66 Q181.399 1513.66 184.455 1518.27 Q187.534 1522.85 187.534 1531.6 Q187.534 1540.33 184.455 1544.94 Q181.399 1549.52 175.589 1549.52 Q169.779 1549.52 166.7 1544.94 Q163.645 1540.33 163.645 1531.6 Q163.645 1522.85 166.7 1518.27 Q169.779 1513.66 175.589 1513.66 Z" fill="#000000" fill-rule="evenodd" fill-opacity="1" /><path clip-path="url(#clip070)" d="M694.41 1544.91 L702.049 1544.91 L702.049 1518.55 L693.738 1520.21 L693.738 1515.95 L702.002 1514.29 L706.678 1514.29 L706.678 1544.91 L714.317 1544.91 L714.317 1548.85 L694.41 1548.85 L694.41 1544.91 Z" fill="#000000" fill-rule="evenodd" fill-opacity="1" /><path clip-path="url(#clip070)" d="M1227.12 1544.91 L1243.44 1544.91 L1243.44 1548.85 L1221.49 1548.85 L1221.49 1544.91 Q1224.16 1542.16 1228.74 1537.53 Q1233.35 1532.88 1234.53 1531.53 Q1236.77 1529.01 1237.65 1527.27 Q1238.55 1525.51 1238.55 1523.82 Q1238.55 1521.07 1236.61 1519.33 Q1234.69 1517.6 1231.59 1517.6 Q1229.39 1517.6 1226.93 1518.36 Q1224.5 1519.13 1221.73 1520.68 L1221.73 1515.95 Q1224.55 1514.82 1227 1514.24 Q1229.46 1513.66 1231.49 1513.66 Q1236.86 1513.66 1240.06 1516.35 Q1243.25 1519.03 1243.25 1523.52 Q1243.25 1525.65 1242.44 1527.57 Q1241.66 1529.47 1239.55 1532.07 Q1238.97 1532.74 1235.87 1535.95 Q1232.77 1539.15 1227.12 1544.91 Z" fill="#000000" fill-rule="evenodd" fill-opacity="1" /><path clip-path="url(#clip070)" d="M1765.15 1530.21 Q1768.51 1530.93 1770.38 1533.2 Q1772.28 1535.47 1772.28 1538.8 Q1772.28 1543.92 1768.76 1546.72 Q1765.25 1549.52 1758.76 1549.52 Q1756.59 1549.52 1754.27 1549.08 Q1751.98 1548.66 1749.53 1547.81 L1749.53 1543.29 Q1751.47 1544.43 1753.79 1545.01 Q1756.1 1545.58 1758.62 1545.58 Q1763.02 1545.58 1765.31 1543.85 Q1767.63 1542.11 1767.63 1538.8 Q1767.63 1535.75 1765.48 1534.03 Q1763.35 1532.3 1759.53 1532.3 L1755.5 1532.3 L1755.5 1528.45 L1759.71 1528.45 Q1763.16 1528.45 1764.99 1527.09 Q1766.82 1525.7 1766.82 1523.11 Q1766.82 1520.45 1764.92 1519.03 Q1763.05 1517.6 1759.53 1517.6 Q1757.61 1517.6 1755.41 1518.01 Q1753.21 1518.43 1750.57 1519.31 L1750.57 1515.14 Q1753.23 1514.4 1755.55 1514.03 Q1757.88 1513.66 1759.94 1513.66 Q1765.27 1513.66 1768.37 1516.09 Q1771.47 1518.5 1771.47 1522.62 Q1771.47 1525.49 1769.83 1527.48 Q1768.18 1529.45 1765.15 1530.21 Z" fill="#000000" fill-rule="evenodd" fill-opacity="1" /><path clip-path="url(#clip070)" d="M2292.35 1518.36 L2280.55 1536.81 L2292.35 1536.81 L2292.35 1518.36 M2291.13 1514.29 L2297.01 1514.29 L2297.01 1536.81 L2301.94 1536.81 L2301.94 1540.7 L2297.01 1540.7 L2297.01 1548.85 L2292.35 1548.85 L2292.35 1540.7 L2276.75 1540.7 L2276.75 1536.19 L2291.13 1514.29 Z" fill="#000000" fill-rule="evenodd" fill-opacity="1" /><polyline clip-path="url(#clip073)" style="stroke:#000000; stroke-linecap:butt; stroke-linejoin:round; stroke-width:2; stroke-opacity:0.1; fill:none" points="
  112.177,1445.72 2352.76,1445.72 
  "/>
<polyline clip-path="url(#clip073)" style="stroke:#000000; stroke-linecap:butt; stroke-linejoin:round; stroke-width:2; stroke-opacity:0.1; fill:none" points="
  112.177,1106.28 2352.76,1106.28 
  "/>
<polyline clip-path="url(#clip073)" style="stroke:#000000; stroke-linecap:butt; stroke-linejoin:round; stroke-width:2; stroke-opacity:0.1; fill:none" points="
  112.177,766.846 2352.76,766.846 
  "/>
<polyline clip-path="url(#clip073)" style="stroke:#000000; stroke-linecap:butt; stroke-linejoin:round; stroke-width:2; stroke-opacity:0.1; fill:none" points="
  112.177,427.411 2352.76,427.411 
  "/>
<polyline clip-path="url(#clip073)" style="stroke:#000000; stroke-linecap:butt; stroke-linejoin:round; stroke-width:2; stroke-opacity:0.1; fill:none" points="
  112.177,87.9763 2352.76,87.9763 
  "/>
<polyline clip-path="url(#clip070)" style="stroke:#000000; stroke-linecap:butt; stroke-linejoin:round; stroke-width:4; stroke-opacity:1; fill:none" points="
  112.177,1486.45 112.177,47.2441 
  "/>
<polyline clip-path="url(#clip070)" style="stroke:#000000; stroke-linecap:butt; stroke-linejoin:round; stroke-width:4; stroke-opacity:1; fill:none" points="
  112.177,1445.72 131.075,1445.72 
  "/>
<polyline clip-path="url(#clip070)" style="stroke:#000000; stroke-linecap:butt; stroke-linejoin:round; stroke-width:4; stroke-opacity:1; fill:none" points="
  112.177,1106.28 131.075,1106.28 
  "/>
<polyline clip-path="url(#clip070)" style="stroke:#000000; stroke-linecap:butt; stroke-linejoin:round; stroke-width:4; stroke-opacity:1; fill:none" points="
  112.177,766.846 131.075,766.846 
  "/>
<polyline clip-path="url(#clip070)" style="stroke:#000000; stroke-linecap:butt; stroke-linejoin:round; stroke-width:4; stroke-opacity:1; fill:none" points="
  112.177,427.411 131.075,427.411 
  "/>
<polyline clip-path="url(#clip070)" style="stroke:#000000; stroke-linecap:butt; stroke-linejoin:round; stroke-width:4; stroke-opacity:1; fill:none" points="
  112.177,87.9763 131.075,87.9763 
  "/>
<path clip-path="url(#clip070)" d="M64.2328 1431.51 Q60.6217 1431.51 58.793 1435.08 Q56.9875 1438.62 56.9875 1445.75 Q56.9875 1452.86 58.793 1456.42 Q60.6217 1459.96 64.2328 1459.96 Q67.867 1459.96 69.6726 1456.42 Q71.5013 1452.86 71.5013 1445.75 Q71.5013 1438.62 69.6726 1435.08 Q67.867 1431.51 64.2328 1431.51 M64.2328 1427.81 Q70.0429 1427.81 73.0985 1432.42 Q76.1772 1437 76.1772 1445.75 Q76.1772 1454.48 73.0985 1459.08 Q70.0429 1463.67 64.2328 1463.67 Q58.4226 1463.67 55.344 1459.08 Q52.2884 1454.48 52.2884 1445.75 Q52.2884 1437 55.344 1432.42 Q58.4226 1427.81 64.2328 1427.81 Z" fill="#000000" fill-rule="evenodd" fill-opacity="1" /><path clip-path="url(#clip070)" d="M56.2699 1119.63 L63.9087 1119.63 L63.9087 1093.26 L55.5986 1094.93 L55.5986 1090.67 L63.8624 1089 L68.5383 1089 L68.5383 1119.63 L76.1772 1119.63 L76.1772 1123.56 L56.2699 1123.56 L56.2699 1119.63 Z" fill="#000000" fill-rule="evenodd" fill-opacity="1" /><path clip-path="url(#clip070)" d="M59.8578 780.191 L76.1772 780.191 L76.1772 784.126 L54.2328 784.126 L54.2328 780.191 Q56.8949 777.436 61.4782 772.807 Q66.0846 768.154 67.2652 766.811 Q69.5105 764.288 70.3902 762.552 Q71.2929 760.793 71.2929 759.103 Q71.2929 756.348 69.3485 754.612 Q67.4272 752.876 64.3254 752.876 Q62.1263 752.876 59.6726 753.64 Q57.2421 754.404 54.4643 755.955 L54.4643 751.233 Q57.2884 750.098 59.7421 749.52 Q62.1958 748.941 64.2328 748.941 Q69.6031 748.941 72.7976 751.626 Q75.992 754.311 75.992 758.802 Q75.992 760.932 75.1818 762.853 Q74.3948 764.751 72.2883 767.344 Q71.7096 768.015 68.6078 771.233 Q65.5059 774.427 59.8578 780.191 Z" fill="#000000" fill-rule="evenodd" fill-opacity="1" /><path clip-path="url(#clip070)" d="M69.0476 426.057 Q72.404 426.775 74.279 429.043 Q76.1772 431.312 76.1772 434.645 Q76.1772 439.761 72.6587 442.562 Q69.1402 445.362 62.6587 445.362 Q60.4828 445.362 58.168 444.923 Q55.8764 444.506 53.4227 443.65 L53.4227 439.136 Q55.3671 440.27 57.6819 440.849 Q59.9967 441.427 62.5198 441.427 Q66.918 441.427 69.2096 439.691 Q71.5244 437.955 71.5244 434.645 Q71.5244 431.589 69.3717 429.876 Q67.242 428.14 63.4226 428.14 L59.3949 428.14 L59.3949 424.298 L63.6078 424.298 Q67.0569 424.298 68.8855 422.932 Q70.7142 421.543 70.7142 418.951 Q70.7142 416.289 68.8161 414.877 Q66.9411 413.441 63.4226 413.441 Q61.5013 413.441 59.3023 413.858 Q57.1032 414.275 54.4643 415.154 L54.4643 410.988 Q57.1264 410.247 59.4412 409.877 Q61.7791 409.506 63.8393 409.506 Q69.1633 409.506 72.2652 411.937 Q75.367 414.344 75.367 418.464 Q75.367 421.335 73.7235 423.326 Q72.08 425.293 69.0476 426.057 Z" fill="#000000" fill-rule="evenodd" fill-opacity="1" /><path clip-path="url(#clip070)" d="M66.5939 74.7703 L54.7884 93.2193 L66.5939 93.2193 L66.5939 74.7703 M65.367 70.6963 L71.2466 70.6963 L71.2466 93.2193 L76.1772 93.2193 L76.1772 97.1082 L71.2466 97.1082 L71.2466 105.256 L66.5939 105.256 L66.5939 97.1082 L50.9921 97.1082 L50.9921 92.5943 L65.367 70.6963 Z" fill="#000000" fill-rule="evenodd" fill-opacity="1" /><polyline clip-path="url(#clip073)" style="stroke:#009af9; stroke-linecap:butt; stroke-linejoin:round; stroke-width:8; stroke-opacity:0.6; fill:none" points="
  175.59,1445.72 186.212,1438.89 196.834,1432.07 207.455,1425.25 218.077,1418.42 228.699,1411.6 239.321,1404.78 249.943,1397.96 260.565,1391.13 271.187,1384.31 
  281.809,1377.49 292.43,1370.66 303.052,1363.84 313.674,1357.02 324.296,1350.2 334.918,1343.37 345.54,1336.55 356.162,1329.73 366.784,1322.9 377.405,1316.08 
  388.027,1309.26 398.649,1302.44 409.271,1295.61 419.893,1288.79 430.515,1281.97 441.137,1275.15 451.759,1268.32 462.38,1261.5 473.002,1254.68 483.624,1247.85 
  494.246,1241.03 504.868,1234.21 515.49,1227.39 526.112,1220.56 536.734,1213.74 547.355,1206.92 557.977,1200.09 568.599,1193.27 579.221,1186.45 589.843,1179.63 
  600.465,1172.8 611.087,1165.98 621.709,1159.16 632.33,1152.33 642.952,1145.51 653.574,1138.69 664.196,1131.87 674.818,1125.04 685.44,1118.22 696.062,1111.4 
  706.684,1104.57 717.306,1097.75 727.927,1090.93 738.549,1084.11 749.171,1077.28 759.793,1070.46 770.415,1063.64 781.037,1056.82 791.659,1049.99 802.281,1043.17 
  812.902,1036.35 823.524,1029.52 834.146,1022.7 844.768,1015.88 855.39,1009.06 866.012,1002.23 876.634,995.41 887.256,988.587 897.877,981.764 908.499,974.942 
  919.121,968.119 929.743,961.296 940.365,954.473 950.987,947.65 961.609,940.828 972.231,934.005 982.852,927.182 993.474,920.359 1004.1,913.536 1014.72,906.713 
  1025.34,899.891 1035.96,893.068 1046.58,886.245 1057.21,879.422 1067.83,872.599 1078.45,865.777 1089.07,858.954 1099.69,852.131 1110.31,845.308 1120.94,838.485 
  1131.56,831.663 1142.18,824.84 1152.8,818.017 1163.42,811.194 1174.05,804.371 1184.67,797.549 1195.29,790.726 1205.91,783.903 1216.53,777.08 1227.16,770.257 
  1237.78,763.434 1248.4,756.612 1259.02,749.789 1269.64,742.966 1280.26,736.143 1290.89,729.32 1301.51,722.498 1312.13,715.675 1322.75,708.852 1333.37,702.029 
  1344,695.206 1354.62,688.384 1365.24,681.561 1375.86,674.738 1386.48,667.915 1397.11,661.092 1407.73,654.27 1418.35,647.447 1428.97,640.624 1439.59,633.801 
  1450.22,626.978 1460.84,620.155 1471.46,613.333 1482.08,606.51 1492.7,599.687 1503.32,592.864 1513.95,586.041 1524.57,579.219 1535.19,572.396 1545.81,565.573 
  1556.43,558.75 1567.06,551.927 1577.68,545.105 1588.3,538.282 1598.92,531.459 1609.54,524.636 1620.17,517.813 1630.79,510.991 1641.41,504.168 1652.03,497.345 
  1662.65,490.522 1673.27,483.699 1683.9,476.876 1694.52,470.054 1705.14,463.231 1715.76,456.408 1726.38,449.585 1737.01,442.762 1747.63,435.94 1758.25,429.117 
  1768.87,422.294 1779.49,415.471 1790.12,408.648 1800.74,401.826 1811.36,395.003 1821.98,388.18 1832.6,381.357 1843.22,374.534 1853.85,367.711 1864.47,360.889 
  1875.09,354.066 1885.71,347.243 1896.33,340.42 1906.96,333.597 1917.58,326.775 1928.2,319.952 1938.82,313.129 1949.44,306.306 1960.07,299.483 1970.69,292.661 
  1981.31,285.838 1991.93,279.015 2002.55,272.192 2013.17,265.369 2023.8,258.547 2034.42,251.724 2045.04,244.901 2055.66,238.078 2066.28,231.255 2076.91,224.432 
  2087.53,217.61 2098.15,210.787 2108.77,203.964 2119.39,197.141 2130.02,190.318 2140.64,183.496 2151.26,176.673 2161.88,169.85 2172.5,163.027 2183.12,156.204 
  2193.75,149.382 2204.37,142.559 2214.99,135.736 2225.61,128.913 2236.23,122.09 2246.86,115.268 2257.48,108.445 2268.1,101.622 2278.72,94.7991 2289.34,87.9763 
  
  "/>
<polyline clip-path="url(#clip073)" style="stroke:#e26f46; stroke-linecap:butt; stroke-linejoin:round; stroke-width:8; stroke-opacity:0.6; fill:none" points="
  175.59,1445.72 186.212,1441.5 196.834,1437.28 207.455,1433.06 218.077,1428.84 228.699,1424.63 239.321,1420.41 249.943,1416.19 260.565,1411.97 271.187,1407.75 
  281.809,1403.53 292.43,1399.32 303.052,1395.1 313.674,1390.88 324.296,1386.66 334.918,1382.44 345.54,1378.23 356.162,1374.01 366.784,1369.79 377.405,1365.57 
  388.027,1361.35 398.649,1357.14 409.271,1352.92 419.893,1348.7 430.515,1344.48 441.137,1340.26 451.759,1336.04 462.38,1331.83 473.002,1327.61 483.624,1323.39 
  494.246,1319.17 504.868,1314.95 515.49,1310.74 526.112,1306.52 536.734,1302.3 547.355,1298.08 557.977,1293.86 568.599,1289.65 579.221,1285.43 589.843,1281.21 
  600.465,1276.99 611.087,1272.77 621.709,1268.55 632.33,1264.34 642.952,1260.12 653.574,1255.9 664.196,1251.68 674.818,1247.46 685.44,1243.25 696.062,1239.03 
  706.684,1234.81 717.306,1230.59 727.927,1226.37 738.549,1222.16 749.171,1217.94 759.793,1213.72 770.415,1209.5 781.037,1205.28 791.659,1201.06 802.281,1196.85 
  812.902,1192.63 823.524,1188.41 834.146,1184.19 844.768,1179.97 855.39,1175.76 866.012,1171.54 876.634,1167.32 887.256,1163.1 897.877,1158.88 908.499,1154.67 
  919.121,1150.45 929.743,1146.23 940.365,1142.01 950.987,1137.79 961.609,1133.57 972.231,1129.36 982.852,1125.14 993.474,1120.92 1004.1,1116.7 1014.72,1112.48 
  1025.34,1108.27 1035.96,1104.05 1046.58,1099.83 1057.21,1095.61 1067.83,1091.39 1078.45,1087.18 1089.07,1082.96 1099.69,1078.74 1110.31,1074.52 1120.94,1070.3 
  1131.56,1066.08 1142.18,1061.87 1152.8,1057.65 1163.42,1053.43 1174.05,1049.21 1184.67,1044.99 1195.29,1040.78 1205.91,1036.56 1216.53,1032.34 1227.16,1028.12 
  1237.78,1023.9 1248.4,1019.69 1259.02,1015.47 1269.64,1011.25 1280.26,1007.03 1290.89,1002.81 1301.51,998.595 1312.13,994.377 1322.75,990.159 1333.37,985.94 
  1344,981.722 1354.62,977.504 1365.24,973.286 1375.86,969.068 1386.48,964.85 1397.11,960.632 1407.73,956.414 1418.35,952.196 1428.97,947.977 1439.59,943.759 
  1450.22,939.541 1460.84,935.323 1471.46,931.105 1482.08,926.887 1492.7,922.669 1503.32,918.451 1513.95,914.232 1524.57,910.014 1535.19,905.796 1545.81,901.578 
  1556.43,897.36 1567.06,893.142 1577.68,888.924 1588.3,884.706 1598.92,880.487 1609.54,876.269 1620.17,872.051 1630.79,867.833 1641.41,863.615 1652.03,859.397 
  1662.65,855.179 1673.27,850.961 1683.9,846.742 1694.52,842.524 1705.14,838.306 1715.76,834.088 1726.38,829.87 1737.01,825.652 1747.63,821.434 1758.25,817.216 
  1768.87,812.998 1779.49,808.779 1790.12,804.561 1800.74,800.343 1811.36,796.125 1821.98,791.907 1832.6,787.689 1843.22,783.471 1853.85,779.253 1864.47,775.034 
  1875.09,770.816 1885.71,766.598 1896.33,762.38 1906.96,758.162 1917.58,753.944 1928.2,749.726 1938.82,745.508 1949.44,741.289 1960.07,737.071 1970.69,732.853 
  1981.31,728.635 1991.93,724.417 2002.55,720.199 2013.17,715.981 2023.8,711.763 2034.42,707.545 2045.04,703.326 2055.66,699.108 2066.28,694.89 2076.91,690.672 
  2087.53,686.454 2098.15,682.236 2108.77,678.018 2119.39,673.8 2130.02,669.581 2140.64,665.363 2151.26,661.145 2161.88,656.927 2172.5,652.709 2183.12,648.491 
  2193.75,644.273 2204.37,640.055 2214.99,635.836 2225.61,631.618 2236.23,627.4 2246.86,623.182 2257.48,618.964 2268.1,614.746 2278.72,610.528 2289.34,606.31 
  
  "/>
<polyline clip-path="url(#clip073)" style="stroke:#3da44d; stroke-linecap:butt; stroke-linejoin:round; stroke-width:8; stroke-opacity:0.6; fill:none" points="
  175.59,1445.72 186.212,1442.3 196.834,1438.89 207.455,1435.48 218.077,1432.06 228.699,1428.65 239.321,1425.23 249.943,1421.82 260.565,1418.41 271.187,1414.99 
  281.809,1411.58 292.43,1408.17 303.052,1404.75 313.674,1401.34 324.296,1397.93 334.918,1394.51 345.54,1391.1 356.162,1387.69 366.784,1384.27 377.405,1380.86 
  388.027,1377.45 398.649,1374.03 409.271,1370.62 419.893,1367.21 430.515,1363.79 441.137,1360.38 451.759,1356.97 462.38,1353.55 473.002,1350.14 483.624,1346.73 
  494.246,1343.31 504.868,1339.9 515.49,1336.49 526.112,1333.07 536.734,1329.66 547.355,1326.25 557.977,1322.83 568.599,1319.42 579.221,1316 589.843,1312.59 
  600.465,1309.18 611.087,1305.76 621.709,1302.35 632.33,1298.94 642.952,1295.52 653.574,1292.11 664.196,1288.7 674.818,1285.28 685.44,1281.87 696.062,1278.46 
  706.684,1275.04 717.306,1271.63 727.927,1268.22 738.549,1264.8 749.171,1261.39 759.793,1257.98 770.415,1254.56 781.037,1251.15 791.659,1247.74 802.281,1244.32 
  812.902,1240.91 823.524,1237.5 834.146,1234.08 844.768,1230.67 855.39,1227.26 866.012,1223.84 876.634,1220.43 887.256,1217.02 897.877,1213.6 908.499,1210.19 
  919.121,1206.77 929.743,1203.36 940.365,1199.95 950.987,1196.53 961.609,1193.12 972.231,1189.71 982.852,1186.29 993.474,1182.88 1004.1,1179.47 1014.72,1176.05 
  1025.34,1172.64 1035.96,1169.23 1046.58,1165.81 1057.21,1162.4 1067.83,1158.99 1078.45,1155.57 1089.07,1152.16 1099.69,1148.75 1110.31,1145.33 1120.94,1141.92 
  1131.56,1138.51 1142.18,1135.09 1152.8,1131.68 1163.42,1128.27 1174.05,1124.85 1184.67,1121.44 1195.29,1118.03 1205.91,1114.61 1216.53,1111.2 1227.16,1107.78 
  1237.78,1104.37 1248.4,1100.96 1259.02,1097.54 1269.64,1094.13 1280.26,1090.72 1290.89,1087.3 1301.51,1083.89 1312.13,1080.48 1322.75,1077.06 1333.37,1073.65 
  1344,1070.24 1354.62,1066.82 1365.24,1063.41 1375.86,1060 1386.48,1056.58 1397.11,1053.17 1407.73,1049.76 1418.35,1046.34 1428.97,1042.93 1439.59,1039.52 
  1450.22,1036.1 1460.84,1032.69 1471.46,1029.28 1482.08,1025.86 1492.7,1022.45 1503.32,1019.04 1513.95,1015.62 1524.57,1012.21 1535.19,1008.8 1545.81,1005.38 
  1556.43,1001.97 1567.06,998.555 1577.68,995.141 1588.3,991.728 1598.92,988.314 1609.54,984.901 1620.17,981.487 1630.79,978.074 1641.41,974.661 1652.03,971.247 
  1662.65,967.834 1673.27,964.42 1683.9,961.007 1694.52,957.593 1705.14,954.18 1715.76,950.766 1726.38,947.353 1737.01,943.94 1747.63,940.526 1758.25,937.113 
  1768.87,933.699 1779.49,930.286 1790.12,926.872 1800.74,923.459 1811.36,920.046 1821.98,916.632 1832.6,913.219 1843.22,909.805 1853.85,906.392 1864.47,902.978 
  1875.09,899.565 1885.71,896.151 1896.33,892.738 1906.96,889.325 1917.58,885.911 1928.2,882.498 1938.82,879.084 1949.44,875.671 1960.07,872.257 1970.69,868.844 
  1981.31,865.43 1991.93,862.017 2002.55,858.604 2013.17,855.19 2023.8,851.777 2034.42,848.363 2045.04,844.95 2055.66,841.536 2066.28,838.123 2076.91,834.709 
  2087.53,831.296 2098.15,827.883 2108.77,824.469 2119.39,821.056 2130.02,817.642 2140.64,814.229 2151.26,810.815 2161.88,807.402 2172.5,803.988 2183.12,800.575 
  2193.75,797.162 2204.37,793.748 2214.99,790.335 2225.61,786.921 2236.23,783.508 2246.86,780.094 2257.48,776.681 2268.1,773.267 2278.72,769.854 2289.34,766.441 
  
  "/>
<polyline clip-path="url(#clip073)" style="stroke:#c271d2; stroke-linecap:butt; stroke-linejoin:round; stroke-width:8; stroke-opacity:0.6; fill:none" points="
  175.59,1445.72 186.212,1442.66 196.834,1439.61 207.455,1436.55 218.077,1433.5 228.699,1430.45 239.321,1427.39 249.943,1424.34 260.565,1421.29 271.187,1418.23 
  281.809,1415.18 292.43,1412.12 303.052,1409.07 313.674,1406.02 324.296,1402.96 334.918,1399.91 345.54,1396.86 356.162,1393.8 366.784,1390.75 377.405,1387.7 
  388.027,1384.64 398.649,1381.59 409.271,1378.53 419.893,1375.48 430.515,1372.43 441.137,1369.37 451.759,1366.32 462.38,1363.27 473.002,1360.21 483.624,1357.16 
  494.246,1354.1 504.868,1351.05 515.49,1348 526.112,1344.94 536.734,1341.89 547.355,1338.84 557.977,1335.78 568.599,1332.73 579.221,1329.67 589.843,1326.62 
  600.465,1323.57 611.087,1320.51 621.709,1317.46 632.33,1314.41 642.952,1311.35 653.574,1308.3 664.196,1305.24 674.818,1302.19 685.44,1299.14 696.062,1296.08 
  706.684,1293.03 717.306,1289.98 727.927,1286.92 738.549,1283.87 749.171,1280.81 759.793,1277.76 770.415,1274.71 781.037,1271.65 791.659,1268.6 802.281,1265.55 
  812.902,1262.49 823.524,1259.44 834.146,1256.39 844.768,1253.33 855.39,1250.28 866.012,1247.22 876.634,1244.17 887.256,1241.12 897.877,1238.06 908.499,1235.01 
  919.121,1231.96 929.743,1228.9 940.365,1225.85 950.987,1222.79 961.609,1219.74 972.231,1216.69 982.852,1213.63 993.474,1210.58 1004.1,1207.53 1014.72,1204.47 
  1025.34,1201.42 1035.96,1198.36 1046.58,1195.31 1057.21,1192.26 1067.83,1189.2 1078.45,1186.15 1089.07,1183.1 1099.69,1180.04 1110.31,1176.99 1120.94,1173.93 
  1131.56,1170.88 1142.18,1167.83 1152.8,1164.77 1163.42,1161.72 1174.05,1158.67 1184.67,1155.61 1195.29,1152.56 1205.91,1149.5 1216.53,1146.45 1227.16,1143.4 
  1237.78,1140.34 1248.4,1137.29 1259.02,1134.24 1269.64,1131.18 1280.26,1128.13 1290.89,1125.08 1301.51,1122.02 1312.13,1118.97 1322.75,1115.91 1333.37,1112.86 
  1344,1109.81 1354.62,1106.75 1365.24,1103.7 1375.86,1100.65 1386.48,1097.59 1397.11,1094.54 1407.73,1091.48 1418.35,1088.43 1428.97,1085.38 1439.59,1082.32 
  1450.22,1079.27 1460.84,1076.22 1471.46,1073.16 1482.08,1070.11 1492.7,1067.05 1503.32,1064 1513.95,1060.95 1524.57,1057.89 1535.19,1054.84 1545.81,1051.79 
  1556.43,1048.73 1567.06,1045.68 1577.68,1042.62 1588.3,1039.57 1598.92,1036.52 1609.54,1033.46 1620.17,1030.41 1630.79,1027.36 1641.41,1024.3 1652.03,1021.25 
  1662.65,1018.2 1673.27,1015.14 1683.9,1012.09 1694.52,1009.03 1705.14,1005.98 1715.76,1002.93 1726.38,999.873 1737.01,996.819 1747.63,993.765 1758.25,990.712 
  1768.87,987.658 1779.49,984.604 1790.12,981.55 1800.74,978.497 1811.36,975.443 1821.98,972.389 1832.6,969.336 1843.22,966.282 1853.85,963.228 1864.47,960.174 
  1875.09,957.121 1885.71,954.067 1896.33,951.013 1906.96,947.96 1917.58,944.906 1928.2,941.852 1938.82,938.798 1949.44,935.745 1960.07,932.691 1970.69,929.637 
  1981.31,926.584 1991.93,923.53 2002.55,920.476 2013.17,917.422 2023.8,914.369 2034.42,911.315 2045.04,908.261 2055.66,905.207 2066.28,902.154 2076.91,899.1 
  2087.53,896.046 2098.15,892.993 2108.77,889.939 2119.39,886.885 2130.02,883.831 2140.64,880.778 2151.26,877.724 2161.88,874.67 2172.5,871.617 2183.12,868.563 
  2193.75,865.509 2204.37,862.455 2214.99,859.402 2225.61,856.348 2236.23,853.294 2246.86,850.241 2257.48,847.187 2268.1,844.133 2278.72,841.079 2289.34,838.026 
  
  "/>
<polyline clip-path="url(#clip073)" style="stroke:#ac8d18; stroke-linecap:butt; stroke-linejoin:round; stroke-width:8; stroke-opacity:0.6; fill:none" points="
  175.59,1445.72 186.212,1442.85 196.834,1439.98 207.455,1437.11 218.077,1434.25 228.699,1431.38 239.321,1428.51 249.943,1425.65 260.565,1422.78 271.187,1419.91 
  281.809,1417.04 292.43,1414.18 303.052,1411.31 313.674,1408.44 324.296,1405.58 334.918,1402.71 345.54,1399.84 356.162,1396.97 366.784,1394.11 377.405,1391.24 
  388.027,1388.37 398.649,1385.51 409.271,1382.64 419.893,1379.77 430.515,1376.9 441.137,1374.04 451.759,1371.17 462.38,1368.3 473.002,1365.44 483.624,1362.57 
  494.246,1359.7 504.868,1356.83 515.49,1353.97 526.112,1351.1 536.734,1348.23 547.355,1345.37 557.977,1342.5 568.599,1339.63 579.221,1336.76 589.843,1333.9 
  600.465,1331.03 611.087,1328.16 621.709,1325.3 632.33,1322.43 642.952,1319.56 653.574,1316.69 664.196,1313.83 674.818,1310.96 685.44,1308.09 696.062,1305.23 
  706.684,1302.36 717.306,1299.49 727.927,1296.62 738.549,1293.76 749.171,1290.89 759.793,1288.02 770.415,1285.16 781.037,1282.29 791.659,1279.42 802.281,1276.55 
  812.902,1273.69 823.524,1270.82 834.146,1267.95 844.768,1265.09 855.39,1262.22 866.012,1259.35 876.634,1256.48 887.256,1253.62 897.877,1250.75 908.499,1247.88 
  919.121,1245.02 929.743,1242.15 940.365,1239.28 950.987,1236.41 961.609,1233.55 972.231,1230.68 982.852,1227.81 993.474,1224.95 1004.1,1222.08 1014.72,1219.21 
  1025.34,1216.34 1035.96,1213.48 1046.58,1210.61 1057.21,1207.74 1067.83,1204.88 1078.45,1202.01 1089.07,1199.14 1099.69,1196.27 1110.31,1193.41 1120.94,1190.54 
  1131.56,1187.67 1142.18,1184.81 1152.8,1181.94 1163.42,1179.07 1174.05,1176.2 1184.67,1173.34 1195.29,1170.47 1205.91,1167.6 1216.53,1164.74 1227.16,1161.87 
  1237.78,1159 1248.4,1156.13 1259.02,1153.27 1269.64,1150.4 1280.26,1147.53 1290.89,1144.67 1301.51,1141.8 1312.13,1138.93 1322.75,1136.06 1333.37,1133.2 
  1344,1130.33 1354.62,1127.46 1365.24,1124.6 1375.86,1121.73 1386.48,1118.86 1397.11,1115.99 1407.73,1113.13 1418.35,1110.26 1428.97,1107.39 1439.59,1104.53 
  1450.22,1101.66 1460.84,1098.79 1471.46,1095.92 1482.08,1093.06 1492.7,1090.19 1503.32,1087.32 1513.95,1084.46 1524.57,1081.59 1535.19,1078.72 1545.81,1075.85 
  1556.43,1072.99 1567.06,1070.12 1577.68,1067.25 1588.3,1064.39 1598.92,1061.52 1609.54,1058.65 1620.17,1055.78 1630.79,1052.92 1641.41,1050.05 1652.03,1047.18 
  1662.65,1044.32 1673.27,1041.45 1683.9,1038.58 1694.52,1035.71 1705.14,1032.85 1715.76,1029.98 1726.38,1027.11 1737.01,1024.25 1747.63,1021.38 1758.25,1018.51 
  1768.87,1015.64 1779.49,1012.78 1790.12,1009.91 1800.74,1007.04 1811.36,1004.18 1821.98,1001.31 1832.6,998.442 1843.22,995.575 1853.85,992.708 1864.47,989.84 
  1875.09,986.973 1885.71,984.106 1896.33,981.239 1906.96,978.372 1917.58,975.505 1928.2,972.638 1938.82,969.77 1949.44,966.903 1960.07,964.036 1970.69,961.169 
  1981.31,958.302 1991.93,955.435 2002.55,952.568 2013.17,949.701 2023.8,946.833 2034.42,943.966 2045.04,941.099 2055.66,938.232 2066.28,935.365 2076.91,932.498 
  2087.53,929.631 2098.15,926.763 2108.77,923.896 2119.39,921.029 2130.02,918.162 2140.64,915.295 2151.26,912.428 2161.88,909.561 2172.5,906.693 2183.12,903.826 
  2193.75,900.959 2204.37,898.092 2214.99,895.225 2225.61,892.358 2236.23,889.491 2246.86,886.623 2257.48,883.756 2268.1,880.889 2278.72,878.022 2289.34,875.155 
  
  "/>
<polyline clip-path="url(#clip073)" style="stroke:#00a9ad; stroke-linecap:butt; stroke-linejoin:round; stroke-width:8; stroke-opacity:0.6; fill:none" points="
  175.59,1445.72 186.212,1442.95 196.834,1440.19 207.455,1437.43 218.077,1434.66 228.699,1431.9 239.321,1429.14 249.943,1426.38 260.565,1423.61 271.187,1420.85 
  281.809,1418.09 292.43,1415.32 303.052,1412.56 313.674,1409.8 324.296,1407.04 334.918,1404.27 345.54,1401.51 356.162,1398.75 366.784,1395.98 377.405,1393.22 
  388.027,1390.46 398.649,1387.69 409.271,1384.93 419.893,1382.17 430.515,1379.41 441.137,1376.64 451.759,1373.88 462.38,1371.12 473.002,1368.35 483.624,1365.59 
  494.246,1362.83 504.868,1360.07 515.49,1357.3 526.112,1354.54 536.734,1351.78 547.355,1349.01 557.977,1346.25 568.599,1343.49 579.221,1340.73 589.843,1337.96 
  600.465,1335.2 611.087,1332.44 621.709,1329.67 632.33,1326.91 642.952,1324.15 653.574,1321.39 664.196,1318.62 674.818,1315.86 685.44,1313.1 696.062,1310.33 
  706.684,1307.57 717.306,1304.81 727.927,1302.04 738.549,1299.28 749.171,1296.52 759.793,1293.76 770.415,1290.99 781.037,1288.23 791.659,1285.47 802.281,1282.7 
  812.902,1279.94 823.524,1277.18 834.146,1274.42 844.768,1271.65 855.39,1268.89 866.012,1266.13 876.634,1263.36 887.256,1260.6 897.877,1257.84 908.499,1255.08 
  919.121,1252.31 929.743,1249.55 940.365,1246.79 950.987,1244.02 961.609,1241.26 972.231,1238.5 982.852,1235.74 993.474,1232.97 1004.1,1230.21 1014.72,1227.45 
  1025.34,1224.68 1035.96,1221.92 1046.58,1219.16 1057.21,1216.4 1067.83,1213.63 1078.45,1210.87 1089.07,1208.11 1099.69,1205.34 1110.31,1202.58 1120.94,1199.82 
  1131.56,1197.05 1142.18,1194.29 1152.8,1191.53 1163.42,1188.77 1174.05,1186 1184.67,1183.24 1195.29,1180.48 1205.91,1177.71 1216.53,1174.95 1227.16,1172.19 
  1237.78,1169.43 1248.4,1166.66 1259.02,1163.9 1269.64,1161.14 1280.26,1158.37 1290.89,1155.61 1301.51,1152.85 1312.13,1150.09 1322.75,1147.32 1333.37,1144.56 
  1344,1141.8 1354.62,1139.03 1365.24,1136.27 1375.86,1133.51 1386.48,1130.75 1397.11,1127.98 1407.73,1125.22 1418.35,1122.46 1428.97,1119.69 1439.59,1116.93 
  1450.22,1114.17 1460.84,1111.4 1471.46,1108.64 1482.08,1105.88 1492.7,1103.12 1503.32,1100.35 1513.95,1097.59 1524.57,1094.83 1535.19,1092.06 1545.81,1089.3 
  1556.43,1086.54 1567.06,1083.78 1577.68,1081.01 1588.3,1078.25 1598.92,1075.49 1609.54,1072.72 1620.17,1069.96 1630.79,1067.2 1641.41,1064.44 1652.03,1061.67 
  1662.65,1058.91 1673.27,1056.15 1683.9,1053.38 1694.52,1050.62 1705.14,1047.86 1715.76,1045.1 1726.38,1042.33 1737.01,1039.57 1747.63,1036.81 1758.25,1034.04 
  1768.87,1031.28 1779.49,1028.52 1790.12,1025.75 1800.74,1022.99 1811.36,1020.23 1821.98,1017.47 1832.6,1014.7 1843.22,1011.94 1853.85,1009.18 1864.47,1006.41 
  1875.09,1003.65 1885.71,1000.89 1896.33,998.126 1906.96,995.363 1917.58,992.6 1928.2,989.837 1938.82,987.074 1949.44,984.311 1960.07,981.549 1970.69,978.786 
  1981.31,976.023 1991.93,973.26 2002.55,970.497 2013.17,967.734 2023.8,964.971 2034.42,962.208 2045.04,959.445 2055.66,956.682 2066.28,953.92 2076.91,951.157 
  2087.53,948.394 2098.15,945.631 2108.77,942.868 2119.39,940.105 2130.02,937.342 2140.64,934.579 2151.26,931.816 2161.88,929.053 2172.5,926.291 2183.12,923.528 
  2193.75,920.765 2204.37,918.002 2214.99,915.239 2225.61,912.476 2236.23,909.713 2246.86,906.95 2257.48,904.187 2268.1,901.424 2278.72,898.662 2289.34,895.899 
  
  "/>
<polyline clip-path="url(#clip073)" style="stroke:#ed5d92; stroke-linecap:butt; stroke-linejoin:round; stroke-width:8; stroke-opacity:0.6; fill:none" points="
  175.59,1445.72 186.212,1443.01 196.834,1440.31 207.455,1437.61 218.077,1434.91 228.699,1432.2 239.321,1429.5 249.943,1426.8 260.565,1424.1 271.187,1421.4 
  281.809,1418.69 292.43,1415.99 303.052,1413.29 313.674,1410.59 324.296,1407.88 334.918,1405.18 345.54,1402.48 356.162,1399.78 366.784,1397.08 377.405,1394.37 
  388.027,1391.67 398.649,1388.97 409.271,1386.27 419.893,1383.56 430.515,1380.86 441.137,1378.16 451.759,1375.46 462.38,1372.76 473.002,1370.05 483.624,1367.35 
  494.246,1364.65 504.868,1361.95 515.49,1359.24 526.112,1356.54 536.734,1353.84 547.355,1351.14 557.977,1348.44 568.599,1345.73 579.221,1343.03 589.843,1340.33 
  600.465,1337.63 611.087,1334.92 621.709,1332.22 632.33,1329.52 642.952,1326.82 653.574,1324.12 664.196,1321.41 674.818,1318.71 685.44,1316.01 696.062,1313.31 
  706.684,1310.6 717.306,1307.9 727.927,1305.2 738.549,1302.5 749.171,1299.8 759.793,1297.09 770.415,1294.39 781.037,1291.69 791.659,1288.99 802.281,1286.28 
  812.902,1283.58 823.524,1280.88 834.146,1278.18 844.768,1275.47 855.39,1272.77 866.012,1270.07 876.634,1267.37 887.256,1264.67 897.877,1261.96 908.499,1259.26 
  919.121,1256.56 929.743,1253.86 940.365,1251.15 950.987,1248.45 961.609,1245.75 972.231,1243.05 982.852,1240.35 993.474,1237.64 1004.1,1234.94 1014.72,1232.24 
  1025.34,1229.54 1035.96,1226.83 1046.58,1224.13 1057.21,1221.43 1067.83,1218.73 1078.45,1216.03 1089.07,1213.32 1099.69,1210.62 1110.31,1207.92 1120.94,1205.22 
  1131.56,1202.51 1142.18,1199.81 1152.8,1197.11 1163.42,1194.41 1174.05,1191.71 1184.67,1189 1195.29,1186.3 1205.91,1183.6 1216.53,1180.9 1227.16,1178.19 
  1237.78,1175.49 1248.4,1172.79 1259.02,1170.09 1269.64,1167.39 1280.26,1164.68 1290.89,1161.98 1301.51,1159.28 1312.13,1156.58 1322.75,1153.87 1333.37,1151.17 
  1344,1148.47 1354.62,1145.77 1365.24,1143.07 1375.86,1140.36 1386.48,1137.66 1397.11,1134.96 1407.73,1132.26 1418.35,1129.55 1428.97,1126.85 1439.59,1124.15 
  1450.22,1121.45 1460.84,1118.75 1471.46,1116.04 1482.08,1113.34 1492.7,1110.64 1503.32,1107.94 1513.95,1105.23 1524.57,1102.53 1535.19,1099.83 1545.81,1097.13 
  1556.43,1094.43 1567.06,1091.72 1577.68,1089.02 1588.3,1086.32 1598.92,1083.62 1609.54,1080.91 1620.17,1078.21 1630.79,1075.51 1641.41,1072.81 1652.03,1070.11 
  1662.65,1067.4 1673.27,1064.7 1683.9,1062 1694.52,1059.3 1705.14,1056.59 1715.76,1053.89 1726.38,1051.19 1737.01,1048.49 1747.63,1045.79 1758.25,1043.08 
  1768.87,1040.38 1779.49,1037.68 1790.12,1034.98 1800.74,1032.27 1811.36,1029.57 1821.98,1026.87 1832.6,1024.17 1843.22,1021.47 1853.85,1018.76 1864.47,1016.06 
  1875.09,1013.36 1885.71,1010.66 1896.33,1007.95 1906.96,1005.25 1917.58,1002.55 1928.2,999.847 1938.82,997.145 1949.44,994.443 1960.07,991.74 1970.69,989.038 
  1981.31,986.336 1991.93,983.634 2002.55,980.932 2013.17,978.229 2023.8,975.527 2034.42,972.825 2045.04,970.123 2055.66,967.42 2066.28,964.718 2076.91,962.016 
  2087.53,959.314 2098.15,956.611 2108.77,953.909 2119.39,951.207 2130.02,948.505 2140.64,945.803 2151.26,943.1 2161.88,940.398 2172.5,937.696 2183.12,934.994 
  2193.75,932.291 2204.37,929.589 2214.99,926.887 2225.61,924.185 2236.23,921.482 2246.86,918.78 2257.48,916.078 2268.1,913.376 2278.72,910.673 2289.34,907.971 
  
  "/>
<polyline clip-path="url(#clip073)" style="stroke:#c68125; stroke-linecap:butt; stroke-linejoin:round; stroke-width:8; stroke-opacity:0.6; fill:none" points="
  175.59,1445.72 186.212,1443.05 196.834,1440.38 207.455,1437.72 218.077,1435.05 228.699,1432.39 239.321,1429.72 249.943,1427.05 260.565,1424.39 271.187,1421.72 
  281.809,1419.05 292.43,1416.39 303.052,1413.72 313.674,1411.06 324.296,1408.39 334.918,1405.72 345.54,1403.06 356.162,1400.39 366.784,1397.73 377.405,1395.06 
  388.027,1392.39 398.649,1389.73 409.271,1387.06 419.893,1384.4 430.515,1381.73 441.137,1379.06 451.759,1376.4 462.38,1373.73 473.002,1371.07 483.624,1368.4 
  494.246,1365.73 504.868,1363.07 515.49,1360.4 526.112,1357.73 536.734,1355.07 547.355,1352.4 557.977,1349.74 568.599,1347.07 579.221,1344.4 589.843,1341.74 
  600.465,1339.07 611.087,1336.41 621.709,1333.74 632.33,1331.07 642.952,1328.41 653.574,1325.74 664.196,1323.08 674.818,1320.41 685.44,1317.74 696.062,1315.08 
  706.684,1312.41 717.306,1309.75 727.927,1307.08 738.549,1304.41 749.171,1301.75 759.793,1299.08 770.415,1296.41 781.037,1293.75 791.659,1291.08 802.281,1288.42 
  812.902,1285.75 823.524,1283.08 834.146,1280.42 844.768,1277.75 855.39,1275.09 866.012,1272.42 876.634,1269.75 887.256,1267.09 897.877,1264.42 908.499,1261.76 
  919.121,1259.09 929.743,1256.42 940.365,1253.76 950.987,1251.09 961.609,1248.43 972.231,1245.76 982.852,1243.09 993.474,1240.43 1004.1,1237.76 1014.72,1235.09 
  1025.34,1232.43 1035.96,1229.76 1046.58,1227.1 1057.21,1224.43 1067.83,1221.76 1078.45,1219.1 1089.07,1216.43 1099.69,1213.77 1110.31,1211.1 1120.94,1208.43 
  1131.56,1205.77 1142.18,1203.1 1152.8,1200.44 1163.42,1197.77 1174.05,1195.1 1184.67,1192.44 1195.29,1189.77 1205.91,1187.11 1216.53,1184.44 1227.16,1181.77 
  1237.78,1179.11 1248.4,1176.44 1259.02,1173.78 1269.64,1171.11 1280.26,1168.44 1290.89,1165.78 1301.51,1163.11 1312.13,1160.44 1322.75,1157.78 1333.37,1155.11 
  1344,1152.45 1354.62,1149.78 1365.24,1147.11 1375.86,1144.45 1386.48,1141.78 1397.11,1139.12 1407.73,1136.45 1418.35,1133.78 1428.97,1131.12 1439.59,1128.45 
  1450.22,1125.79 1460.84,1123.12 1471.46,1120.45 1482.08,1117.79 1492.7,1115.12 1503.32,1112.46 1513.95,1109.79 1524.57,1107.12 1535.19,1104.46 1545.81,1101.79 
  1556.43,1099.12 1567.06,1096.46 1577.68,1093.79 1588.3,1091.13 1598.92,1088.46 1609.54,1085.79 1620.17,1083.13 1630.79,1080.46 1641.41,1077.8 1652.03,1075.13 
  1662.65,1072.46 1673.27,1069.8 1683.9,1067.13 1694.52,1064.47 1705.14,1061.8 1715.76,1059.13 1726.38,1056.47 1737.01,1053.8 1747.63,1051.14 1758.25,1048.47 
  1768.87,1045.8 1779.49,1043.14 1790.12,1040.47 1800.74,1037.8 1811.36,1035.14 1821.98,1032.47 1832.6,1029.81 1843.22,1027.14 1853.85,1024.47 1864.47,1021.81 
  1875.09,1019.14 1885.71,1016.48 1896.33,1013.81 1906.96,1011.14 1917.58,1008.48 1928.2,1005.81 1938.82,1003.15 1949.44,1000.48 1960.07,997.813 1970.69,995.147 
  1981.31,992.481 1991.93,989.815 2002.55,987.149 2013.17,984.483 2023.8,981.817 2034.42,979.151 2045.04,976.485 2055.66,973.819 2066.28,971.153 2076.91,968.487 
  2087.53,965.82 2098.15,963.154 2108.77,960.488 2119.39,957.822 2130.02,955.156 2140.64,952.49 2151.26,949.824 2161.88,947.158 2172.5,944.492 2183.12,941.826 
  2193.75,939.16 2204.37,936.494 2214.99,933.827 2225.61,931.161 2236.23,928.495 2246.86,925.829 2257.48,923.163 2268.1,920.497 2278.72,917.831 2289.34,915.165 
  
  "/>
<polyline clip-path="url(#clip073)" style="stroke:#00a98d; stroke-linecap:butt; stroke-linejoin:round; stroke-width:8; stroke-opacity:0.6; fill:none" points="
  175.59,1445.72 186.212,1443.07 196.834,1440.43 207.455,1437.78 218.077,1435.14 228.699,1432.49 239.321,1429.85 249.943,1427.21 260.565,1424.56 271.187,1421.92 
  281.809,1419.27 292.43,1416.63 303.052,1413.98 313.674,1411.34 324.296,1408.7 334.918,1406.05 345.54,1403.41 356.162,1400.76 366.784,1398.12 377.405,1395.48 
  388.027,1392.83 398.649,1390.19 409.271,1387.54 419.893,1384.9 430.515,1382.25 441.137,1379.61 451.759,1376.97 462.38,1374.32 473.002,1371.68 483.624,1369.03 
  494.246,1366.39 504.868,1363.74 515.49,1361.1 526.112,1358.46 536.734,1355.81 547.355,1353.17 557.977,1350.52 568.599,1347.88 579.221,1345.23 589.843,1342.59 
  600.465,1339.95 611.087,1337.3 621.709,1334.66 632.33,1332.01 642.952,1329.37 653.574,1326.72 664.196,1324.08 674.818,1321.44 685.44,1318.79 696.062,1316.15 
  706.684,1313.5 717.306,1310.86 727.927,1308.22 738.549,1305.57 749.171,1302.93 759.793,1300.28 770.415,1297.64 781.037,1294.99 791.659,1292.35 802.281,1289.71 
  812.902,1287.06 823.524,1284.42 834.146,1281.77 844.768,1279.13 855.39,1276.48 866.012,1273.84 876.634,1271.2 887.256,1268.55 897.877,1265.91 908.499,1263.26 
  919.121,1260.62 929.743,1257.97 940.365,1255.33 950.987,1252.69 961.609,1250.04 972.231,1247.4 982.852,1244.75 993.474,1242.11 1004.1,1239.46 1014.72,1236.82 
  1025.34,1234.18 1035.96,1231.53 1046.58,1228.89 1057.21,1226.24 1067.83,1223.6 1078.45,1220.96 1089.07,1218.31 1099.69,1215.67 1110.31,1213.02 1120.94,1210.38 
  1131.56,1207.73 1142.18,1205.09 1152.8,1202.45 1163.42,1199.8 1174.05,1197.16 1184.67,1194.51 1195.29,1191.87 1205.91,1189.22 1216.53,1186.58 1227.16,1183.94 
  1237.78,1181.29 1248.4,1178.65 1259.02,1176 1269.64,1173.36 1280.26,1170.71 1290.89,1168.07 1301.51,1165.43 1312.13,1162.78 1322.75,1160.14 1333.37,1157.49 
  1344,1154.85 1354.62,1152.2 1365.24,1149.56 1375.86,1146.92 1386.48,1144.27 1397.11,1141.63 1407.73,1138.98 1418.35,1136.34 1428.97,1133.7 1439.59,1131.05 
  1450.22,1128.41 1460.84,1125.76 1471.46,1123.12 1482.08,1120.47 1492.7,1117.83 1503.32,1115.19 1513.95,1112.54 1524.57,1109.9 1535.19,1107.25 1545.81,1104.61 
  1556.43,1101.96 1567.06,1099.32 1577.68,1096.68 1588.3,1094.03 1598.92,1091.39 1609.54,1088.74 1620.17,1086.1 1630.79,1083.45 1641.41,1080.81 1652.03,1078.17 
  1662.65,1075.52 1673.27,1072.88 1683.9,1070.23 1694.52,1067.59 1705.14,1064.94 1715.76,1062.3 1726.38,1059.66 1737.01,1057.01 1747.63,1054.37 1758.25,1051.72 
  1768.87,1049.08 1779.49,1046.44 1790.12,1043.79 1800.74,1041.15 1811.36,1038.5 1821.98,1035.86 1832.6,1033.21 1843.22,1030.57 1853.85,1027.93 1864.47,1025.28 
  1875.09,1022.64 1885.71,1019.99 1896.33,1017.35 1906.96,1014.7 1917.58,1012.06 1928.2,1009.42 1938.82,1006.77 1949.44,1004.13 1960.07,1001.48 1970.69,998.839 
  1981.31,996.195 1991.93,993.55 2002.55,990.906 2013.17,988.262 2023.8,985.618 2034.42,982.973 2045.04,980.329 2055.66,977.685 2066.28,975.041 2076.91,972.396 
  2087.53,969.752 2098.15,967.108 2108.77,964.464 2119.39,961.819 2130.02,959.175 2140.64,956.531 2151.26,953.887 2161.88,951.242 2172.5,948.598 2183.12,945.954 
  2193.75,943.31 2204.37,940.665 2214.99,938.021 2225.61,935.377 2236.23,932.733 2246.86,930.089 2257.48,927.444 2268.1,924.8 2278.72,922.156 2289.34,919.512 
  
  "/>
<polyline clip-path="url(#clip073)" style="stroke:#8e971d; stroke-linecap:butt; stroke-linejoin:round; stroke-width:8; stroke-opacity:0.6; fill:none" points="
  175.59,1445.72 186.212,1443.08 196.834,1440.45 207.455,1437.82 218.077,1435.19 228.699,1432.56 239.321,1429.93 249.943,1427.3 260.565,1424.67 271.187,1422.04 
  281.809,1419.41 292.43,1416.78 303.052,1414.14 313.674,1411.51 324.296,1408.88 334.918,1406.25 345.54,1403.62 356.162,1400.99 366.784,1398.36 377.405,1395.73 
  388.027,1393.1 398.649,1390.47 409.271,1387.84 419.893,1385.2 430.515,1382.57 441.137,1379.94 451.759,1377.31 462.38,1374.68 473.002,1372.05 483.624,1369.42 
  494.246,1366.79 504.868,1364.16 515.49,1361.53 526.112,1358.89 536.734,1356.26 547.355,1353.63 557.977,1351 568.599,1348.37 579.221,1345.74 589.843,1343.11 
  600.465,1340.48 611.087,1337.85 621.709,1335.22 632.33,1332.59 642.952,1329.95 653.574,1327.32 664.196,1324.69 674.818,1322.06 685.44,1319.43 696.062,1316.8 
  706.684,1314.17 717.306,1311.54 727.927,1308.91 738.549,1306.28 749.171,1303.65 759.793,1301.01 770.415,1298.38 781.037,1295.75 791.659,1293.12 802.281,1290.49 
  812.902,1287.86 823.524,1285.23 834.146,1282.6 844.768,1279.97 855.39,1277.34 866.012,1274.71 876.634,1272.07 887.256,1269.44 897.877,1266.81 908.499,1264.18 
  919.121,1261.55 929.743,1258.92 940.365,1256.29 950.987,1253.66 961.609,1251.03 972.231,1248.4 982.852,1245.76 993.474,1243.13 1004.1,1240.5 1014.72,1237.87 
  1025.34,1235.24 1035.96,1232.61 1046.58,1229.98 1057.21,1227.35 1067.83,1224.72 1078.45,1222.09 1089.07,1219.46 1099.69,1216.82 1110.31,1214.19 1120.94,1211.56 
  1131.56,1208.93 1142.18,1206.3 1152.8,1203.67 1163.42,1201.04 1174.05,1198.41 1184.67,1195.78 1195.29,1193.15 1205.91,1190.52 1216.53,1187.88 1227.16,1185.25 
  1237.78,1182.62 1248.4,1179.99 1259.02,1177.36 1269.64,1174.73 1280.26,1172.1 1290.89,1169.47 1301.51,1166.84 1312.13,1164.21 1322.75,1161.58 1333.37,1158.94 
  1344,1156.31 1354.62,1153.68 1365.24,1151.05 1375.86,1148.42 1386.48,1145.79 1397.11,1143.16 1407.73,1140.53 1418.35,1137.9 1428.97,1135.27 1439.59,1132.63 
  1450.22,1130 1460.84,1127.37 1471.46,1124.74 1482.08,1122.11 1492.7,1119.48 1503.32,1116.85 1513.95,1114.22 1524.57,1111.59 1535.19,1108.96 1545.81,1106.33 
  1556.43,1103.69 1567.06,1101.06 1577.68,1098.43 1588.3,1095.8 1598.92,1093.17 1609.54,1090.54 1620.17,1087.91 1630.79,1085.28 1641.41,1082.65 1652.03,1080.02 
  1662.65,1077.39 1673.27,1074.75 1683.9,1072.12 1694.52,1069.49 1705.14,1066.86 1715.76,1064.23 1726.38,1061.6 1737.01,1058.97 1747.63,1056.34 1758.25,1053.71 
  1768.87,1051.08 1779.49,1048.44 1790.12,1045.81 1800.74,1043.18 1811.36,1040.55 1821.98,1037.92 1832.6,1035.29 1843.22,1032.66 1853.85,1030.03 1864.47,1027.4 
  1875.09,1024.77 1885.71,1022.14 1896.33,1019.5 1906.96,1016.87 1917.58,1014.24 1928.2,1011.61 1938.82,1008.98 1949.44,1006.35 1960.07,1003.72 1970.69,1001.09 
  1981.31,998.457 1991.93,995.826 2002.55,993.195 2013.17,990.564 2023.8,987.934 2034.42,985.303 2045.04,982.672 2055.66,980.041 2066.28,977.41 2076.91,974.779 
  2087.53,972.148 2098.15,969.517 2108.77,966.886 2119.39,964.255 2130.02,961.624 2140.64,958.993 2151.26,956.362 2161.88,953.731 2172.5,951.101 2183.12,948.47 
  2193.75,945.839 2204.37,943.208 2214.99,940.577 2225.61,937.946 2236.23,935.315 2246.86,932.684 2257.48,930.053 2268.1,927.422 2278.72,924.791 2289.34,922.16 
  
  "/>
<polyline clip-path="url(#clip073)" style="stroke:#00a8cb; stroke-linecap:butt; stroke-linejoin:round; stroke-width:8; stroke-opacity:0.6; fill:none" points="
  175.59,1445.72 186.212,1443.09 196.834,1440.47 207.455,1437.85 218.077,1435.22 228.699,1432.6 239.321,1429.98 249.943,1427.36 260.565,1424.73 271.187,1422.11 
  281.809,1419.49 292.43,1416.87 303.052,1414.24 313.674,1411.62 324.296,1409 334.918,1406.37 345.54,1403.75 356.162,1401.13 366.784,1398.51 377.405,1395.88 
  388.027,1393.26 398.649,1390.64 409.271,1388.01 419.893,1385.39 430.515,1382.77 441.137,1380.15 451.759,1377.52 462.38,1374.9 473.002,1372.28 483.624,1369.66 
  494.246,1367.03 504.868,1364.41 515.49,1361.79 526.112,1359.16 536.734,1356.54 547.355,1353.92 557.977,1351.3 568.599,1348.67 579.221,1346.05 589.843,1343.43 
  600.465,1340.8 611.087,1338.18 621.709,1335.56 632.33,1332.94 642.952,1330.31 653.574,1327.69 664.196,1325.07 674.818,1322.45 685.44,1319.82 696.062,1317.2 
  706.684,1314.58 717.306,1311.95 727.927,1309.33 738.549,1306.71 749.171,1304.09 759.793,1301.46 770.415,1298.84 781.037,1296.22 791.659,1293.59 802.281,1290.97 
  812.902,1288.35 823.524,1285.73 834.146,1283.1 844.768,1280.48 855.39,1277.86 866.012,1275.24 876.634,1272.61 887.256,1269.99 897.877,1267.37 908.499,1264.74 
  919.121,1262.12 929.743,1259.5 940.365,1256.88 950.987,1254.25 961.609,1251.63 972.231,1249.01 982.852,1246.38 993.474,1243.76 1004.1,1241.14 1014.72,1238.52 
  1025.34,1235.89 1035.96,1233.27 1046.58,1230.65 1057.21,1228.02 1067.83,1225.4 1078.45,1222.78 1089.07,1220.16 1099.69,1217.53 1110.31,1214.91 1120.94,1212.29 
  1131.56,1209.67 1142.18,1207.04 1152.8,1204.42 1163.42,1201.8 1174.05,1199.17 1184.67,1196.55 1195.29,1193.93 1205.91,1191.31 1216.53,1188.68 1227.16,1186.06 
  1237.78,1183.44 1248.4,1180.81 1259.02,1178.19 1269.64,1175.57 1280.26,1172.95 1290.89,1170.32 1301.51,1167.7 1312.13,1165.08 1322.75,1162.46 1333.37,1159.83 
  1344,1157.21 1354.62,1154.59 1365.24,1151.96 1375.86,1149.34 1386.48,1146.72 1397.11,1144.1 1407.73,1141.47 1418.35,1138.85 1428.97,1136.23 1439.59,1133.6 
  1450.22,1130.98 1460.84,1128.36 1471.46,1125.74 1482.08,1123.11 1492.7,1120.49 1503.32,1117.87 1513.95,1115.25 1524.57,1112.62 1535.19,1110 1545.81,1107.38 
  1556.43,1104.75 1567.06,1102.13 1577.68,1099.51 1588.3,1096.89 1598.92,1094.26 1609.54,1091.64 1620.17,1089.02 1630.79,1086.39 1641.41,1083.77 1652.03,1081.15 
  1662.65,1078.53 1673.27,1075.9 1683.9,1073.28 1694.52,1070.66 1705.14,1068.04 1715.76,1065.41 1726.38,1062.79 1737.01,1060.17 1747.63,1057.54 1758.25,1054.92 
  1768.87,1052.3 1779.49,1049.68 1790.12,1047.05 1800.74,1044.43 1811.36,1041.81 1821.98,1039.18 1832.6,1036.56 1843.22,1033.94 1853.85,1031.32 1864.47,1028.69 
  1875.09,1026.07 1885.71,1023.45 1896.33,1020.83 1906.96,1018.2 1917.58,1015.58 1928.2,1012.96 1938.82,1010.33 1949.44,1007.71 1960.07,1005.09 1970.69,1002.47 
  1981.31,999.843 1991.93,997.22 2002.55,994.598 2013.17,991.975 2023.8,989.352 2034.42,986.729 2045.04,984.106 2055.66,981.484 2066.28,978.861 2076.91,976.238 
  2087.53,973.615 2098.15,970.993 2108.77,968.37 2119.39,965.747 2130.02,963.124 2140.64,960.501 2151.26,957.879 2161.88,955.256 2172.5,952.633 2183.12,950.01 
  2193.75,947.388 2204.37,944.765 2214.99,942.142 2225.61,939.519 2236.23,936.896 2246.86,934.274 2257.48,931.651 2268.1,929.028 2278.72,926.405 2289.34,923.783 
  
  "/>
<polyline clip-path="url(#clip073)" style="stroke:#9b7fe8; stroke-linecap:butt; stroke-linejoin:round; stroke-width:8; stroke-opacity:0.6; fill:none" points="
  175.59,1445.72 186.212,1443.1 196.834,1440.48 207.455,1437.86 218.077,1435.24 228.699,1432.63 239.321,1430.01 249.943,1427.39 260.565,1424.77 271.187,1422.16 
  281.809,1419.54 292.43,1416.92 303.052,1414.3 313.674,1411.68 324.296,1409.07 334.918,1406.45 345.54,1403.83 356.162,1401.21 366.784,1398.6 377.405,1395.98 
  388.027,1393.36 398.649,1390.74 409.271,1388.12 419.893,1385.51 430.515,1382.89 441.137,1380.27 451.759,1377.65 462.38,1375.04 473.002,1372.42 483.624,1369.8 
  494.246,1367.18 504.868,1364.56 515.49,1361.95 526.112,1359.33 536.734,1356.71 547.355,1354.09 557.977,1351.48 568.599,1348.86 579.221,1346.24 589.843,1343.62 
  600.465,1341 611.087,1338.39 621.709,1335.77 632.33,1333.15 642.952,1330.53 653.574,1327.92 664.196,1325.3 674.818,1322.68 685.44,1320.06 696.062,1317.44 
  706.684,1314.83 717.306,1312.21 727.927,1309.59 738.549,1306.97 749.171,1304.36 759.793,1301.74 770.415,1299.12 781.037,1296.5 791.659,1293.88 802.281,1291.27 
  812.902,1288.65 823.524,1286.03 834.146,1283.41 844.768,1280.8 855.39,1278.18 866.012,1275.56 876.634,1272.94 887.256,1270.33 897.877,1267.71 908.499,1265.09 
  919.121,1262.47 929.743,1259.85 940.365,1257.24 950.987,1254.62 961.609,1252 972.231,1249.38 982.852,1246.77 993.474,1244.15 1004.1,1241.53 1014.72,1238.91 
  1025.34,1236.29 1035.96,1233.68 1046.58,1231.06 1057.21,1228.44 1067.83,1225.82 1078.45,1223.21 1089.07,1220.59 1099.69,1217.97 1110.31,1215.35 1120.94,1212.73 
  1131.56,1210.12 1142.18,1207.5 1152.8,1204.88 1163.42,1202.26 1174.05,1199.65 1184.67,1197.03 1195.29,1194.41 1205.91,1191.79 1216.53,1189.17 1227.16,1186.56 
  1237.78,1183.94 1248.4,1181.32 1259.02,1178.7 1269.64,1176.09 1280.26,1173.47 1290.89,1170.85 1301.51,1168.23 1312.13,1165.61 1322.75,1163 1333.37,1160.38 
  1344,1157.76 1354.62,1155.14 1365.24,1152.53 1375.86,1149.91 1386.48,1147.29 1397.11,1144.67 1407.73,1142.05 1418.35,1139.44 1428.97,1136.82 1439.59,1134.2 
  1450.22,1131.58 1460.84,1128.97 1471.46,1126.35 1482.08,1123.73 1492.7,1121.11 1503.32,1118.49 1513.95,1115.88 1524.57,1113.26 1535.19,1110.64 1545.81,1108.02 
  1556.43,1105.41 1567.06,1102.79 1577.68,1100.17 1588.3,1097.55 1598.92,1094.93 1609.54,1092.32 1620.17,1089.7 1630.79,1087.08 1641.41,1084.46 1652.03,1081.85 
  1662.65,1079.23 1673.27,1076.61 1683.9,1073.99 1694.52,1071.37 1705.14,1068.76 1715.76,1066.14 1726.38,1063.52 1737.01,1060.9 1747.63,1058.29 1758.25,1055.67 
  1768.87,1053.05 1779.49,1050.43 1790.12,1047.81 1800.74,1045.2 1811.36,1042.58 1821.98,1039.96 1832.6,1037.34 1843.22,1034.73 1853.85,1032.11 1864.47,1029.49 
  1875.09,1026.87 1885.71,1024.25 1896.33,1021.64 1906.96,1019.02 1917.58,1016.4 1928.2,1013.78 1938.82,1011.17 1949.44,1008.55 1960.07,1005.93 1970.69,1003.31 
  1981.31,1000.69 1991.93,998.077 2002.55,995.459 2013.17,992.841 2023.8,990.224 2034.42,987.606 2045.04,984.988 2055.66,982.37 2066.28,979.752 2076.91,977.135 
  2087.53,974.517 2098.15,971.899 2108.77,969.281 2119.39,966.664 2130.02,964.046 2140.64,961.428 2151.26,958.81 2161.88,956.193 2172.5,953.575 2183.12,950.957 
  2193.75,948.339 2204.37,945.721 2214.99,943.104 2225.61,940.486 2236.23,937.868 2246.86,935.25 2257.48,932.633 2268.1,930.015 2278.72,927.397 2289.34,924.779 
  
  "/>
<polyline clip-path="url(#clip073)" style="stroke:#608cf6; stroke-linecap:butt; stroke-linejoin:round; stroke-width:8; stroke-opacity:0.6; fill:none" points="
  175.59,1445.72 186.212,1443.1 196.834,1440.49 207.455,1437.87 218.077,1435.26 228.699,1432.64 239.321,1430.03 249.943,1427.41 260.565,1424.8 271.187,1422.18 
  281.809,1419.57 292.43,1416.95 303.052,1414.34 313.674,1411.72 324.296,1409.11 334.918,1406.5 345.54,1403.88 356.162,1401.27 366.784,1398.65 377.405,1396.04 
  388.027,1393.42 398.649,1390.81 409.271,1388.19 419.893,1385.58 430.515,1382.96 441.137,1380.35 451.759,1377.73 462.38,1375.12 473.002,1372.5 483.624,1369.89 
  494.246,1367.28 504.868,1364.66 515.49,1362.05 526.112,1359.43 536.734,1356.82 547.355,1354.2 557.977,1351.59 568.599,1348.97 579.221,1346.36 589.843,1343.74 
  600.465,1341.13 611.087,1338.51 621.709,1335.9 632.33,1333.28 642.952,1330.67 653.574,1328.05 664.196,1325.44 674.818,1322.83 685.44,1320.21 696.062,1317.6 
  706.684,1314.98 717.306,1312.37 727.927,1309.75 738.549,1307.14 749.171,1304.52 759.793,1301.91 770.415,1299.29 781.037,1296.68 791.659,1294.06 802.281,1291.45 
  812.902,1288.83 823.524,1286.22 834.146,1283.61 844.768,1280.99 855.39,1278.38 866.012,1275.76 876.634,1273.15 887.256,1270.53 897.877,1267.92 908.499,1265.3 
  919.121,1262.69 929.743,1260.07 940.365,1257.46 950.987,1254.84 961.609,1252.23 972.231,1249.61 982.852,1247 993.474,1244.38 1004.1,1241.77 1014.72,1239.16 
  1025.34,1236.54 1035.96,1233.93 1046.58,1231.31 1057.21,1228.7 1067.83,1226.08 1078.45,1223.47 1089.07,1220.85 1099.69,1218.24 1110.31,1215.62 1120.94,1213.01 
  1131.56,1210.39 1142.18,1207.78 1152.8,1205.16 1163.42,1202.55 1174.05,1199.94 1184.67,1197.32 1195.29,1194.71 1205.91,1192.09 1216.53,1189.48 1227.16,1186.86 
  1237.78,1184.25 1248.4,1181.63 1259.02,1179.02 1269.64,1176.4 1280.26,1173.79 1290.89,1171.17 1301.51,1168.56 1312.13,1165.94 1322.75,1163.33 1333.37,1160.71 
  1344,1158.1 1354.62,1155.49 1365.24,1152.87 1375.86,1150.26 1386.48,1147.64 1397.11,1145.03 1407.73,1142.41 1418.35,1139.8 1428.97,1137.18 1439.59,1134.57 
  1450.22,1131.95 1460.84,1129.34 1471.46,1126.72 1482.08,1124.11 1492.7,1121.49 1503.32,1118.88 1513.95,1116.27 1524.57,1113.65 1535.19,1111.04 1545.81,1108.42 
  1556.43,1105.81 1567.06,1103.19 1577.68,1100.58 1588.3,1097.96 1598.92,1095.35 1609.54,1092.73 1620.17,1090.12 1630.79,1087.5 1641.41,1084.89 1652.03,1082.27 
  1662.65,1079.66 1673.27,1077.04 1683.9,1074.43 1694.52,1071.82 1705.14,1069.2 1715.76,1066.59 1726.38,1063.97 1737.01,1061.36 1747.63,1058.74 1758.25,1056.13 
  1768.87,1053.51 1779.49,1050.9 1790.12,1048.28 1800.74,1045.67 1811.36,1043.05 1821.98,1040.44 1832.6,1037.82 1843.22,1035.21 1853.85,1032.6 1864.47,1029.98 
  1875.09,1027.37 1885.71,1024.75 1896.33,1022.14 1906.96,1019.52 1917.58,1016.91 1928.2,1014.29 1938.82,1011.68 1949.44,1009.06 1960.07,1006.45 1970.69,1003.83 
  1981.31,1001.22 1991.93,998.604 2002.55,995.989 2013.17,993.375 2023.8,990.76 2034.42,988.145 2045.04,985.531 2055.66,982.916 2066.28,980.301 2076.91,977.687 
  2087.53,975.072 2098.15,972.457 2108.77,969.843 2119.39,967.228 2130.02,964.613 2140.64,961.999 2151.26,959.384 2161.88,956.769 2172.5,954.154 2183.12,951.54 
  2193.75,948.925 2204.37,946.31 2214.99,943.696 2225.61,941.081 2236.23,938.466 2246.86,935.852 2257.48,933.237 2268.1,930.622 2278.72,928.008 2289.34,925.393 
  
  "/>
<polyline clip-path="url(#clip073)" style="stroke:#f05f73; stroke-linecap:butt; stroke-linejoin:round; stroke-width:8; stroke-opacity:0.6; fill:none" points="
  175.59,1445.72 186.212,1443.1 196.834,1440.49 207.455,1437.88 218.077,1435.26 228.699,1432.65 239.321,1430.04 249.943,1427.43 260.565,1424.81 271.187,1422.2 
  281.809,1419.59 292.43,1416.98 303.052,1414.36 313.674,1411.75 324.296,1409.14 334.918,1406.52 345.54,1403.91 356.162,1401.3 366.784,1398.69 377.405,1396.07 
  388.027,1393.46 398.649,1390.85 409.271,1388.23 419.893,1385.62 430.515,1383.01 441.137,1380.4 451.759,1377.78 462.38,1375.17 473.002,1372.56 483.624,1369.94 
  494.246,1367.33 504.868,1364.72 515.49,1362.11 526.112,1359.49 536.734,1356.88 547.355,1354.27 557.977,1351.66 568.599,1349.04 579.221,1346.43 589.843,1343.82 
  600.465,1341.2 611.087,1338.59 621.709,1335.98 632.33,1333.37 642.952,1330.75 653.574,1328.14 664.196,1325.53 674.818,1322.91 685.44,1320.3 696.062,1317.69 
  706.684,1315.08 717.306,1312.46 727.927,1309.85 738.549,1307.24 749.171,1304.63 759.793,1302.01 770.415,1299.4 781.037,1296.79 791.659,1294.17 802.281,1291.56 
  812.902,1288.95 823.524,1286.34 834.146,1283.72 844.768,1281.11 855.39,1278.5 866.012,1275.88 876.634,1273.27 887.256,1270.66 897.877,1268.05 908.499,1265.43 
  919.121,1262.82 929.743,1260.21 940.365,1257.6 950.987,1254.98 961.609,1252.37 972.231,1249.76 982.852,1247.14 993.474,1244.53 1004.1,1241.92 1014.72,1239.31 
  1025.34,1236.69 1035.96,1234.08 1046.58,1231.47 1057.21,1228.85 1067.83,1226.24 1078.45,1223.63 1089.07,1221.02 1099.69,1218.4 1110.31,1215.79 1120.94,1213.18 
  1131.56,1210.56 1142.18,1207.95 1152.8,1205.34 1163.42,1202.73 1174.05,1200.11 1184.67,1197.5 1195.29,1194.89 1205.91,1192.28 1216.53,1189.66 1227.16,1187.05 
  1237.78,1184.44 1248.4,1181.82 1259.02,1179.21 1269.64,1176.6 1280.26,1173.99 1290.89,1171.37 1301.51,1168.76 1312.13,1166.15 1322.75,1163.53 1333.37,1160.92 
  1344,1158.31 1354.62,1155.7 1365.24,1153.08 1375.86,1150.47 1386.48,1147.86 1397.11,1145.25 1407.73,1142.63 1418.35,1140.02 1428.97,1137.41 1439.59,1134.79 
  1450.22,1132.18 1460.84,1129.57 1471.46,1126.96 1482.08,1124.34 1492.7,1121.73 1503.32,1119.12 1513.95,1116.5 1524.57,1113.89 1535.19,1111.28 1545.81,1108.67 
  1556.43,1106.05 1567.06,1103.44 1577.68,1100.83 1588.3,1098.22 1598.92,1095.6 1609.54,1092.99 1620.17,1090.38 1630.79,1087.76 1641.41,1085.15 1652.03,1082.54 
  1662.65,1079.93 1673.27,1077.31 1683.9,1074.7 1694.52,1072.09 1705.14,1069.47 1715.76,1066.86 1726.38,1064.25 1737.01,1061.64 1747.63,1059.02 1758.25,1056.41 
  1768.87,1053.8 1779.49,1051.18 1790.12,1048.57 1800.74,1045.96 1811.36,1043.35 1821.98,1040.73 1832.6,1038.12 1843.22,1035.51 1853.85,1032.9 1864.47,1030.28 
  1875.09,1027.67 1885.71,1025.06 1896.33,1022.44 1906.96,1019.83 1917.58,1017.22 1928.2,1014.61 1938.82,1011.99 1949.44,1009.38 1960.07,1006.77 1970.69,1004.15 
  1981.31,1001.54 1991.93,998.929 2002.55,996.316 2013.17,993.704 2023.8,991.091 2034.42,988.478 2045.04,985.865 2055.66,983.252 2066.28,980.64 2076.91,978.027 
  2087.53,975.414 2098.15,972.801 2108.77,970.188 2119.39,967.576 2130.02,964.963 2140.64,962.35 2151.26,959.737 2161.88,957.125 2172.5,954.512 2183.12,951.899 
  2193.75,949.286 2204.37,946.673 2214.99,944.061 2225.61,941.448 2236.23,938.835 2246.86,936.222 2257.48,933.609 2268.1,930.997 2278.72,928.384 2289.34,925.771 
  
  "/>
<polyline clip-path="url(#clip073)" style="stroke:#dd64b5; stroke-linecap:butt; stroke-linejoin:round; stroke-width:8; stroke-opacity:0.6; fill:none" points="
  175.59,1445.72 186.212,1443.1 196.834,1440.49 207.455,1437.88 218.077,1435.27 228.699,1432.66 239.321,1430.05 249.943,1427.43 260.565,1424.82 271.187,1422.21 
  281.809,1419.6 292.43,1416.99 303.052,1414.38 313.674,1411.76 324.296,1409.15 334.918,1406.54 345.54,1403.93 356.162,1401.32 366.784,1398.71 377.405,1396.1 
  388.027,1393.48 398.649,1390.87 409.271,1388.26 419.893,1385.65 430.515,1383.04 441.137,1380.43 451.759,1377.81 462.38,1375.2 473.002,1372.59 483.624,1369.98 
  494.246,1367.37 504.868,1364.76 515.49,1362.14 526.112,1359.53 536.734,1356.92 547.355,1354.31 557.977,1351.7 568.599,1349.09 579.221,1346.47 589.843,1343.86 
  600.465,1341.25 611.087,1338.64 621.709,1336.03 632.33,1333.42 642.952,1330.8 653.574,1328.19 664.196,1325.58 674.818,1322.97 685.44,1320.36 696.062,1317.75 
  706.684,1315.13 717.306,1312.52 727.927,1309.91 738.549,1307.3 749.171,1304.69 759.793,1302.08 770.415,1299.47 781.037,1296.85 791.659,1294.24 802.281,1291.63 
  812.902,1289.02 823.524,1286.41 834.146,1283.8 844.768,1281.18 855.39,1278.57 866.012,1275.96 876.634,1273.35 887.256,1270.74 897.877,1268.13 908.499,1265.51 
  919.121,1262.9 929.743,1260.29 940.365,1257.68 950.987,1255.07 961.609,1252.46 972.231,1249.84 982.852,1247.23 993.474,1244.62 1004.1,1242.01 1014.72,1239.4 
  1025.34,1236.79 1035.96,1234.17 1046.58,1231.56 1057.21,1228.95 1067.83,1226.34 1078.45,1223.73 1089.07,1221.12 1099.69,1218.51 1110.31,1215.89 1120.94,1213.28 
  1131.56,1210.67 1142.18,1208.06 1152.8,1205.45 1163.42,1202.84 1174.05,1200.22 1184.67,1197.61 1195.29,1195 1205.91,1192.39 1216.53,1189.78 1227.16,1187.17 
  1237.78,1184.55 1248.4,1181.94 1259.02,1179.33 1269.64,1176.72 1280.26,1174.11 1290.89,1171.5 1301.51,1168.88 1312.13,1166.27 1322.75,1163.66 1333.37,1161.05 
  1344,1158.44 1354.62,1155.83 1365.24,1153.21 1375.86,1150.6 1386.48,1147.99 1397.11,1145.38 1407.73,1142.77 1418.35,1140.16 1428.97,1137.55 1439.59,1134.93 
  1450.22,1132.32 1460.84,1129.71 1471.46,1127.1 1482.08,1124.49 1492.7,1121.88 1503.32,1119.26 1513.95,1116.65 1524.57,1114.04 1535.19,1111.43 1545.81,1108.82 
  1556.43,1106.21 1567.06,1103.59 1577.68,1100.98 1588.3,1098.37 1598.92,1095.76 1609.54,1093.15 1620.17,1090.54 1630.79,1087.92 1641.41,1085.31 1652.03,1082.7 
  1662.65,1080.09 1673.27,1077.48 1683.9,1074.87 1694.52,1072.25 1705.14,1069.64 1715.76,1067.03 1726.38,1064.42 1737.01,1061.81 1747.63,1059.2 1758.25,1056.59 
  1768.87,1053.97 1779.49,1051.36 1790.12,1048.75 1800.74,1046.14 1811.36,1043.53 1821.98,1040.92 1832.6,1038.3 1843.22,1035.69 1853.85,1033.08 1864.47,1030.47 
  1875.09,1027.86 1885.71,1025.25 1896.33,1022.63 1906.96,1020.02 1917.58,1017.41 1928.2,1014.8 1938.82,1012.19 1949.44,1009.58 1960.07,1006.96 1970.69,1004.35 
  1981.31,1001.74 1991.93,999.13 2002.55,996.518 2013.17,993.906 2023.8,991.295 2034.42,988.683 2045.04,986.071 2055.66,983.46 2066.28,980.848 2076.91,978.237 
  2087.53,975.625 2098.15,973.013 2108.77,970.402 2119.39,967.79 2130.02,965.179 2140.64,962.567 2151.26,959.955 2161.88,957.344 2172.5,954.732 2183.12,952.12 
  2193.75,949.509 2204.37,946.897 2214.99,944.286 2225.61,941.674 2236.23,939.062 2246.86,936.451 2257.48,933.839 2268.1,931.228 2278.72,928.616 2289.34,926.004 
  
  "/>
<polyline clip-path="url(#clip073)" style="stroke:#6b9e32; stroke-linecap:butt; stroke-linejoin:round; stroke-width:8; stroke-opacity:0.6; fill:none" points="
  175.59,1445.72 186.212,1443.1 196.834,1440.49 207.455,1437.88 218.077,1435.27 228.699,1432.66 239.321,1430.05 249.943,1427.44 260.565,1424.83 271.187,1422.22 
  281.809,1419.61 292.43,1417 303.052,1414.38 313.674,1411.77 324.296,1409.16 334.918,1406.55 345.54,1403.94 356.162,1401.33 366.784,1398.72 377.405,1396.11 
  388.027,1393.5 398.649,1390.89 409.271,1388.28 419.893,1385.67 430.515,1383.05 441.137,1380.44 451.759,1377.83 462.38,1375.22 473.002,1372.61 483.624,1370 
  494.246,1367.39 504.868,1364.78 515.49,1362.17 526.112,1359.56 536.734,1356.95 547.355,1354.33 557.977,1351.72 568.599,1349.11 579.221,1346.5 589.843,1343.89 
  600.465,1341.28 611.087,1338.67 621.709,1336.06 632.33,1333.45 642.952,1330.84 653.574,1328.23 664.196,1325.61 674.818,1323 685.44,1320.39 696.062,1317.78 
  706.684,1315.17 717.306,1312.56 727.927,1309.95 738.549,1307.34 749.171,1304.73 759.793,1302.12 770.415,1299.51 781.037,1296.89 791.659,1294.28 802.281,1291.67 
  812.902,1289.06 823.524,1286.45 834.146,1283.84 844.768,1281.23 855.39,1278.62 866.012,1276.01 876.634,1273.4 887.256,1270.79 897.877,1268.18 908.499,1265.56 
  919.121,1262.95 929.743,1260.34 940.365,1257.73 950.987,1255.12 961.609,1252.51 972.231,1249.9 982.852,1247.29 993.474,1244.68 1004.1,1242.07 1014.72,1239.46 
  1025.34,1236.84 1035.96,1234.23 1046.58,1231.62 1057.21,1229.01 1067.83,1226.4 1078.45,1223.79 1089.07,1221.18 1099.69,1218.57 1110.31,1215.96 1120.94,1213.35 
  1131.56,1210.74 1142.18,1208.12 1152.8,1205.51 1163.42,1202.9 1174.05,1200.29 1184.67,1197.68 1195.29,1195.07 1205.91,1192.46 1216.53,1189.85 1227.16,1187.24 
  1237.78,1184.63 1248.4,1182.02 1259.02,1179.4 1269.64,1176.79 1280.26,1174.18 1290.89,1171.57 1301.51,1168.96 1312.13,1166.35 1322.75,1163.74 1333.37,1161.13 
  1344,1158.52 1354.62,1155.91 1365.24,1153.3 1375.86,1150.68 1386.48,1148.07 1397.11,1145.46 1407.73,1142.85 1418.35,1140.24 1428.97,1137.63 1439.59,1135.02 
  1450.22,1132.41 1460.84,1129.8 1471.46,1127.19 1482.08,1124.58 1492.7,1121.97 1503.32,1119.35 1513.95,1116.74 1524.57,1114.13 1535.19,1111.52 1545.81,1108.91 
  1556.43,1106.3 1567.06,1103.69 1577.68,1101.08 1588.3,1098.47 1598.92,1095.86 1609.54,1093.25 1620.17,1090.63 1630.79,1088.02 1641.41,1085.41 1652.03,1082.8 
  1662.65,1080.19 1673.27,1077.58 1683.9,1074.97 1694.52,1072.36 1705.14,1069.75 1715.76,1067.14 1726.38,1064.53 1737.01,1061.91 1747.63,1059.3 1758.25,1056.69 
  1768.87,1054.08 1779.49,1051.47 1790.12,1048.86 1800.74,1046.25 1811.36,1043.64 1821.98,1041.03 1832.6,1038.42 1843.22,1035.81 1853.85,1033.19 1864.47,1030.58 
  1875.09,1027.97 1885.71,1025.36 1896.33,1022.75 1906.96,1020.14 1917.58,1017.53 1928.2,1014.92 1938.82,1012.31 1949.44,1009.7 1960.07,1007.09 1970.69,1004.48 
  1981.31,1001.86 1991.93,999.253 2002.55,996.642 2013.17,994.031 2023.8,991.421 2034.42,988.81 2045.04,986.199 2055.66,983.588 2066.28,980.977 2076.91,978.366 
  2087.53,975.755 2098.15,973.144 2108.77,970.533 2119.39,967.923 2130.02,965.312 2140.64,962.701 2151.26,960.09 2161.88,957.479 2172.5,954.868 2183.12,952.257 
  2193.75,949.646 2204.37,947.035 2214.99,944.425 2225.61,941.814 2236.23,939.203 2246.86,936.592 2257.48,933.981 2268.1,931.37 2278.72,928.759 2289.34,926.148 
  
  "/>
<polyline clip-path="url(#clip073)" style="stroke:#000000; stroke-linecap:butt; stroke-linejoin:round; stroke-width:8; stroke-opacity:0.8; fill:none" points="
  175.59,1445.72 186.212,1443.11 196.834,1440.5 207.455,1437.89 218.077,1435.28 228.699,1432.67 239.321,1430.06 249.943,1427.45 260.565,1424.84 271.187,1422.23 
  281.809,1419.62 292.43,1417.01 303.052,1414.4 313.674,1411.79 324.296,1409.18 334.918,1406.57 345.54,1403.96 356.162,1401.35 366.784,1398.74 377.405,1396.13 
  388.027,1393.52 398.649,1390.91 409.271,1388.3 419.893,1385.69 430.515,1383.08 441.137,1380.47 451.759,1377.86 462.38,1375.25 473.002,1372.64 483.624,1370.03 
  494.246,1367.42 504.868,1364.81 515.49,1362.2 526.112,1359.59 536.734,1356.99 547.355,1354.38 557.977,1351.77 568.599,1349.16 579.221,1346.55 589.843,1343.94 
  600.465,1341.33 611.087,1338.72 621.709,1336.11 632.33,1333.5 642.952,1330.89 653.574,1328.28 664.196,1325.67 674.818,1323.06 685.44,1320.45 696.062,1317.84 
  706.684,1315.23 717.306,1312.62 727.927,1310.01 738.549,1307.4 749.171,1304.79 759.793,1302.18 770.415,1299.57 781.037,1296.96 791.659,1294.35 802.281,1291.74 
  812.902,1289.13 823.524,1286.52 834.146,1283.91 844.768,1281.3 855.39,1278.69 866.012,1276.08 876.634,1273.47 887.256,1270.86 897.877,1268.25 908.499,1265.64 
  919.121,1263.03 929.743,1260.43 940.365,1257.82 950.987,1255.21 961.609,1252.6 972.231,1249.99 982.852,1247.38 993.474,1244.77 1004.1,1242.16 1014.72,1239.55 
  1025.34,1236.94 1035.96,1234.33 1046.58,1231.72 1057.21,1229.11 1067.83,1226.5 1078.45,1223.89 1089.07,1221.28 1099.69,1218.67 1110.31,1216.06 1120.94,1213.45 
  1131.56,1210.84 1142.18,1208.23 1152.8,1205.62 1163.42,1203.01 1174.05,1200.4 1184.67,1197.79 1195.29,1195.18 1205.91,1192.57 1216.53,1189.96 1227.16,1187.35 
  1237.78,1184.74 1248.4,1182.13 1259.02,1179.52 1269.64,1176.91 1280.26,1174.3 1290.89,1171.69 1301.51,1169.08 1312.13,1166.48 1322.75,1163.87 1333.37,1161.26 
  1344,1158.65 1354.62,1156.04 1365.24,1153.43 1375.86,1150.82 1386.48,1148.21 1397.11,1145.6 1407.73,1142.99 1418.35,1140.38 1428.97,1137.77 1439.59,1135.16 
  1450.22,1132.55 1460.84,1129.94 1471.46,1127.33 1482.08,1124.72 1492.7,1122.11 1503.32,1119.5 1513.95,1116.89 1524.57,1114.28 1535.19,1111.67 1545.81,1109.06 
  1556.43,1106.45 1567.06,1103.84 1577.68,1101.23 1588.3,1098.62 1598.92,1096.01 1609.54,1093.4 1620.17,1090.79 1630.79,1088.18 1641.41,1085.57 1652.03,1082.96 
  1662.65,1080.35 1673.27,1077.74 1683.9,1075.13 1694.52,1072.53 1705.14,1069.92 1715.76,1067.31 1726.38,1064.7 1737.01,1062.09 1747.63,1059.48 1758.25,1056.87 
  1768.87,1054.26 1779.49,1051.65 1790.12,1049.04 1800.74,1046.43 1811.36,1043.82 1821.98,1041.21 1832.6,1038.6 1843.22,1035.99 1853.85,1033.38 1864.47,1030.77 
  1875.09,1028.16 1885.71,1025.55 1896.33,1022.94 1906.96,1020.33 1917.58,1017.72 1928.2,1015.11 1938.82,1012.5 1949.44,1009.89 1960.07,1007.28 1970.69,1004.67 
  1981.31,1002.06 1991.93,999.453 2002.55,996.843 2013.17,994.233 2023.8,991.624 2034.42,989.014 2045.04,986.404 2055.66,983.794 2066.28,981.185 2076.91,978.575 
  2087.53,975.965 2098.15,973.355 2108.77,970.746 2119.39,968.136 2130.02,965.526 2140.64,962.917 2151.26,960.307 2161.88,957.697 2172.5,955.087 2183.12,952.478 
  2193.75,949.868 2204.37,947.258 2214.99,944.649 2225.61,942.039 2236.23,939.429 2246.86,936.819 2257.48,934.21 2268.1,931.6 2278.72,928.99 2289.34,926.38 
  
  "/>
<path clip-path="url(#clip070)" d="
M186.863 250.738 L974.234 250.738 L974.234 95.2176 L186.863 95.2176  Z
  " fill="#ffffff" fill-rule="evenodd" fill-opacity="1"/>
<polyline clip-path="url(#clip070)" style="stroke:#000000; stroke-linecap:butt; stroke-linejoin:round; stroke-width:4; stroke-opacity:1; fill:none" points="
  186.863,250.738 974.234,250.738 974.234,95.2176 186.863,95.2176 186.863,250.738 
  "/>
<polyline clip-path="url(#clip070)" style="stroke:#009af9; stroke-linecap:butt; stroke-linejoin:round; stroke-width:4; stroke-opacity:0.6; fill:none" points="
  211.758,147.058 361.13,147.058 
  "/>
<path clip-path="url(#clip070)" d="M386.026 139.919 L390.285 139.919 L390.285 165.845 L386.026 165.845 L386.026 139.919 M386.026 129.826 L390.285 129.826 L390.285 135.22 L386.026 135.22 L386.026 129.826 Z" fill="#000000" fill-rule="evenodd" fill-opacity="1" /><path clip-path="url(#clip070)" d="M420.748 150.196 L420.748 165.845 L416.488 165.845 L416.488 150.335 Q416.488 146.655 415.053 144.826 Q413.618 142.997 410.748 142.997 Q407.299 142.997 405.308 145.197 Q403.317 147.396 403.317 151.192 L403.317 165.845 L399.035 165.845 L399.035 139.919 L403.317 139.919 L403.317 143.947 Q404.845 141.609 406.905 140.451 Q408.989 139.294 411.697 139.294 Q416.164 139.294 418.456 142.072 Q420.748 144.826 420.748 150.196 Z" fill="#000000" fill-rule="evenodd" fill-opacity="1" /><path clip-path="url(#clip070)" d="M433.456 132.558 L433.456 139.919 L442.229 139.919 L442.229 143.229 L433.456 143.229 L433.456 157.303 Q433.456 160.474 434.312 161.377 Q435.192 162.28 437.854 162.28 L442.229 162.28 L442.229 165.845 L437.854 165.845 Q432.924 165.845 431.049 164.016 Q429.174 162.164 429.174 157.303 L429.174 143.229 L426.049 143.229 L426.049 139.919 L429.174 139.919 L429.174 132.558 L433.456 132.558 Z" fill="#000000" fill-rule="evenodd" fill-opacity="1" /><path clip-path="url(#clip070)" d="M447.831 139.919 L452.09 139.919 L452.09 165.845 L447.831 165.845 L447.831 139.919 M447.831 129.826 L452.09 129.826 L452.09 135.22 L447.831 135.22 L447.831 129.826 Z" fill="#000000" fill-rule="evenodd" fill-opacity="1" /><path clip-path="url(#clip070)" d="M472.784 152.812 Q467.622 152.812 465.632 153.993 Q463.641 155.173 463.641 158.021 Q463.641 160.289 465.122 161.632 Q466.627 162.951 469.197 162.951 Q472.738 162.951 474.868 160.451 Q477.021 157.928 477.021 153.761 L477.021 152.812 L472.784 152.812 M481.28 151.053 L481.28 165.845 L477.021 165.845 L477.021 161.909 Q475.562 164.27 473.386 165.405 Q471.21 166.516 468.062 166.516 Q464.081 166.516 461.72 164.294 Q459.382 162.048 459.382 158.298 Q459.382 153.923 462.298 151.701 Q465.238 149.479 471.048 149.479 L477.021 149.479 L477.021 149.062 Q477.021 146.122 475.076 144.525 Q473.155 142.905 469.659 142.905 Q467.437 142.905 465.331 143.437 Q463.224 143.97 461.28 145.034 L461.28 141.099 Q463.618 140.197 465.817 139.757 Q468.016 139.294 470.099 139.294 Q475.724 139.294 478.502 142.21 Q481.28 145.127 481.28 151.053 Z" fill="#000000" fill-rule="evenodd" fill-opacity="1" /><path clip-path="url(#clip070)" d="M490.053 129.826 L494.312 129.826 L494.312 165.845 L490.053 165.845 L490.053 129.826 Z" fill="#000000" fill-rule="evenodd" fill-opacity="1" /><path clip-path="url(#clip070)" d="M536.951 140.914 L536.951 144.896 Q535.145 143.9 533.317 143.414 Q531.511 142.905 529.659 142.905 Q525.516 142.905 523.224 145.544 Q520.932 148.159 520.932 152.905 Q520.932 157.65 523.224 160.289 Q525.516 162.905 529.659 162.905 Q531.511 162.905 533.317 162.419 Q535.145 161.909 536.951 160.914 L536.951 164.849 Q535.168 165.683 533.247 166.099 Q531.349 166.516 529.196 166.516 Q523.34 166.516 519.891 162.835 Q516.442 159.155 516.442 152.905 Q516.442 146.562 519.914 142.928 Q523.409 139.294 529.474 139.294 Q531.442 139.294 533.317 139.71 Q535.192 140.104 536.951 140.914 Z" fill="#000000" fill-rule="evenodd" fill-opacity="1" /><path clip-path="url(#clip070)" d="M554.404 142.905 Q550.979 142.905 548.988 145.59 Q546.997 148.252 546.997 152.905 Q546.997 157.558 548.965 160.243 Q550.955 162.905 554.404 162.905 Q557.807 162.905 559.798 160.22 Q561.789 157.534 561.789 152.905 Q561.789 148.298 559.798 145.613 Q557.807 142.905 554.404 142.905 M554.404 139.294 Q559.96 139.294 563.131 142.905 Q566.302 146.516 566.302 152.905 Q566.302 159.271 563.131 162.905 Q559.96 166.516 554.404 166.516 Q548.826 166.516 545.654 162.905 Q542.506 159.271 542.506 152.905 Q542.506 146.516 545.654 142.905 Q548.826 139.294 554.404 139.294 Z" fill="#000000" fill-rule="evenodd" fill-opacity="1" /><path clip-path="url(#clip070)" d="M594.913 150.196 L594.913 165.845 L590.654 165.845 L590.654 150.335 Q590.654 146.655 589.219 144.826 Q587.784 142.997 584.914 142.997 Q581.464 142.997 579.474 145.197 Q577.483 147.396 577.483 151.192 L577.483 165.845 L573.201 165.845 L573.201 139.919 L577.483 139.919 L577.483 143.947 Q579.011 141.609 581.071 140.451 Q583.154 139.294 585.863 139.294 Q590.33 139.294 592.622 142.072 Q594.913 144.826 594.913 150.196 Z" fill="#000000" fill-rule="evenodd" fill-opacity="1" /><path clip-path="url(#clip070)" d="M620.469 143.854 L620.469 129.826 L624.728 129.826 L624.728 165.845 L620.469 165.845 L620.469 161.956 Q619.126 164.27 617.066 165.405 Q615.029 166.516 612.159 166.516 Q607.46 166.516 604.497 162.766 Q601.557 159.016 601.557 152.905 Q601.557 146.794 604.497 143.044 Q607.46 139.294 612.159 139.294 Q615.029 139.294 617.066 140.428 Q619.126 141.539 620.469 143.854 M605.955 152.905 Q605.955 157.604 607.876 160.289 Q609.821 162.951 613.2 162.951 Q616.58 162.951 618.524 160.289 Q620.469 157.604 620.469 152.905 Q620.469 148.206 618.524 145.544 Q616.58 142.859 613.2 142.859 Q609.821 142.859 607.876 145.544 Q605.955 148.206 605.955 152.905 Z" fill="#000000" fill-rule="evenodd" fill-opacity="1" /><path clip-path="url(#clip070)" d="M633.501 139.919 L637.76 139.919 L637.76 165.845 L633.501 165.845 L633.501 139.919 M633.501 129.826 L637.76 129.826 L637.76 135.22 L633.501 135.22 L633.501 129.826 Z" fill="#000000" fill-rule="evenodd" fill-opacity="1" /><path clip-path="url(#clip070)" d="M650.885 132.558 L650.885 139.919 L659.658 139.919 L659.658 143.229 L650.885 143.229 L650.885 157.303 Q650.885 160.474 651.742 161.377 Q652.621 162.28 655.284 162.28 L659.658 162.28 L659.658 165.845 L655.284 165.845 Q650.353 165.845 648.478 164.016 Q646.603 162.164 646.603 157.303 L646.603 143.229 L643.478 143.229 L643.478 139.919 L646.603 139.919 L646.603 132.558 L650.885 132.558 Z" fill="#000000" fill-rule="evenodd" fill-opacity="1" /><path clip-path="url(#clip070)" d="M665.26 139.919 L669.52 139.919 L669.52 165.845 L665.26 165.845 L665.26 139.919 M665.26 129.826 L669.52 129.826 L669.52 135.22 L665.26 135.22 L665.26 129.826 Z" fill="#000000" fill-rule="evenodd" fill-opacity="1" /><path clip-path="url(#clip070)" d="M688.478 142.905 Q685.052 142.905 683.061 145.59 Q681.07 148.252 681.07 152.905 Q681.07 157.558 683.038 160.243 Q685.029 162.905 688.478 162.905 Q691.881 162.905 693.871 160.22 Q695.862 157.534 695.862 152.905 Q695.862 148.298 693.871 145.613 Q691.881 142.905 688.478 142.905 M688.478 139.294 Q694.033 139.294 697.205 142.905 Q700.376 146.516 700.376 152.905 Q700.376 159.271 697.205 162.905 Q694.033 166.516 688.478 166.516 Q682.899 166.516 679.728 162.905 Q676.58 159.271 676.58 152.905 Q676.58 146.516 679.728 142.905 Q682.899 139.294 688.478 139.294 Z" fill="#000000" fill-rule="evenodd" fill-opacity="1" /><path clip-path="url(#clip070)" d="M728.987 150.196 L728.987 165.845 L724.728 165.845 L724.728 150.335 Q724.728 146.655 723.292 144.826 Q721.857 142.997 718.987 142.997 Q715.538 142.997 713.547 145.197 Q711.556 147.396 711.556 151.192 L711.556 165.845 L707.274 165.845 L707.274 139.919 L711.556 139.919 L711.556 143.947 Q713.084 141.609 715.144 140.451 Q717.228 139.294 719.936 139.294 Q724.404 139.294 726.695 142.072 Q728.987 144.826 728.987 150.196 Z" fill="#000000" fill-rule="evenodd" fill-opacity="1" /><path clip-path="url(#clip070)" d="M766.564 160.293 Q766.752 160.504 766.752 160.715 Q766.752 160.926 766.283 161.535 Q765.838 162.144 764.878 162.964 Q763.918 163.783 762.676 164.556 Q761.435 165.329 759.608 165.845 Q757.781 166.383 755.86 166.383 Q752.277 166.383 750.169 164.018 Q748.084 161.652 748.084 158.256 Q748.084 154.953 749.934 151.791 Q751.785 148.606 754.783 146.638 Q757.781 144.647 760.943 144.647 Q763.449 144.647 765.018 145.818 Q766.588 146.989 766.588 148.77 Q766.588 150.152 765.791 150.995 Q764.995 151.838 763.918 151.838 Q763.168 151.838 762.653 151.416 Q762.137 150.971 762.137 150.152 Q762.137 149.098 763.004 148.278 Q763.332 147.95 763.707 147.809 Q764.105 147.645 764.339 147.645 Q764.573 147.622 765.112 147.622 Q764.62 146.708 763.449 146.217 Q762.301 145.701 760.99 145.701 Q759.046 145.701 757.195 147.06 Q755.345 148.395 754.221 150.503 Q753.096 152.564 752.37 155.492 Q751.644 158.396 751.644 160.083 Q751.644 162.401 752.722 163.854 Q753.799 165.306 755.954 165.306 Q756.375 165.306 756.821 165.282 Q757.289 165.259 758.46 165.001 Q759.655 164.744 760.709 164.299 Q761.763 163.854 763.098 162.893 Q764.456 161.91 765.534 160.575 Q765.908 160.083 766.166 160.083 Q766.377 160.083 766.564 160.293 Z" fill="#000000" fill-rule="evenodd" fill-opacity="1" /><path clip-path="url(#clip070)" d="M771.129 153.852 Q771.129 145.748 774.151 139.213 Q775.439 136.473 777.243 134.177 Q779.046 131.882 780.241 130.875 Q781.435 129.868 781.763 129.868 Q782.231 129.868 782.255 130.336 Q782.255 130.57 781.623 131.156 Q773.893 139.026 773.917 153.852 Q773.917 168.726 781.435 176.291 Q782.255 177.111 782.255 177.368 Q782.255 177.837 781.763 177.837 Q781.435 177.837 780.287 176.877 Q779.14 175.916 777.36 173.714 Q775.58 171.513 774.291 168.819 Q771.129 162.284 771.129 153.852 Z" fill="#000000" fill-rule="evenodd" fill-opacity="1" /><path clip-path="url(#clip070)" d="M808.031 146.474 Q808.031 146.802 807.82 147.575 L803.229 165.891 Q802.222 169.967 798.943 172.824 Q795.687 175.682 791.987 175.682 Q789.761 175.682 788.333 174.487 Q786.904 173.316 786.904 171.513 Q786.904 169.92 787.747 169.147 Q788.59 168.398 789.598 168.398 Q789.925 168.398 790.277 168.491 Q790.628 168.585 791.003 168.983 Q791.378 169.381 791.378 170.061 Q791.378 171.161 790.417 172.028 Q789.949 172.426 789.504 172.52 Q789.082 172.614 788.356 172.614 Q788.637 173.269 789.152 173.714 Q789.668 174.16 790.253 174.323 Q790.839 174.511 791.214 174.558 Q791.612 174.628 791.987 174.628 Q794.985 174.628 797.28 171.606 Q797.959 170.693 798.451 169.78 Q798.967 168.889 799.341 167.789 Q799.716 166.711 799.88 166.126 Q800.067 165.54 800.395 164.205 Q798.217 166.383 795.547 166.383 Q794.423 166.383 793.415 166.079 Q792.432 165.774 791.565 165.142 Q790.698 164.486 790.183 163.338 Q789.691 162.191 789.691 160.668 Q789.691 159.052 790.324 156.85 Q790.956 154.649 792.478 150.597 Q793.298 148.325 793.298 147.224 Q793.298 146.685 793.181 146.357 Q793.064 146.006 792.83 145.889 Q792.596 145.748 792.455 145.725 Q792.338 145.701 792.104 145.701 Q790.722 145.701 789.434 147.107 Q788.145 148.512 787.255 151.651 Q787.068 152.236 786.951 152.377 Q786.834 152.517 786.482 152.517 Q785.897 152.494 785.897 152.025 Q785.897 151.838 786.108 151.112 Q786.318 150.362 786.81 149.261 Q787.326 148.137 788.028 147.13 Q788.731 146.099 789.832 145.373 Q790.956 144.647 792.244 144.647 Q794.001 144.647 795.078 145.795 Q796.179 146.919 796.179 148.582 Q796.179 149.261 795.992 149.87 Q795.828 150.456 795.219 152.025 Q792.76 158.349 792.76 161.441 Q792.76 162.191 792.877 162.823 Q793.017 163.432 793.322 164.041 Q793.626 164.627 794.235 164.978 Q794.868 165.306 795.734 165.306 Q796.835 165.306 797.866 164.791 Q798.92 164.252 799.575 163.526 Q800.255 162.8 800.653 162.191 Q801.075 161.558 801.168 161.23 L803.323 152.611 L804.283 148.77 Q804.728 146.685 804.939 146.17 Q805.22 145.678 805.712 145.42 Q806.204 145.163 806.626 145.163 Q807.211 145.163 807.609 145.514 Q808.031 145.865 808.031 146.474 Z" fill="#000000" fill-rule="evenodd" fill-opacity="1" /><path clip-path="url(#clip070)" d="M812.616 177.368 Q812.616 177.134 813.225 176.549 Q820.954 168.679 820.954 153.852 Q820.954 138.979 813.529 131.46 Q812.616 130.594 812.616 130.336 Q812.616 129.868 813.084 129.868 Q813.412 129.868 814.56 130.828 Q815.731 131.788 817.488 133.99 Q819.268 136.192 820.579 138.885 Q823.741 145.42 823.741 153.852 Q823.741 161.956 820.72 168.491 Q819.432 171.232 817.628 173.527 Q815.825 175.823 814.63 176.83 Q813.436 177.837 813.084 177.837 Q812.616 177.837 812.616 177.368 Z" fill="#000000" fill-rule="evenodd" fill-opacity="1" /><path clip-path="url(#clip070)" d="M844.336 158.56 Q844.383 157.975 845.296 157.975 L874.691 157.975 Q876.073 157.975 876.097 158.513 Q876.097 159.099 874.785 159.075 L845.624 159.075 Q844.336 159.099 844.336 158.56 M844.336 149.191 Q844.336 148.606 845.343 148.629 L874.645 148.629 Q876.073 148.629 876.097 149.191 Q876.097 149.73 874.879 149.73 L845.296 149.73 Q844.336 149.73 844.336 149.191 Z" fill="#000000" fill-rule="evenodd" fill-opacity="1" /><path clip-path="url(#clip070)" d="M916.722 146.474 Q916.722 146.802 916.511 147.575 L911.92 165.891 Q910.913 169.967 907.634 172.824 Q904.378 175.682 900.678 175.682 Q898.452 175.682 897.024 174.487 Q895.595 173.316 895.595 171.513 Q895.595 169.92 896.438 169.147 Q897.281 168.398 898.288 168.398 Q898.616 168.398 898.968 168.491 Q899.319 168.585 899.694 168.983 Q900.069 169.381 900.069 170.061 Q900.069 171.161 899.108 172.028 Q898.64 172.426 898.195 172.52 Q897.773 172.614 897.047 172.614 Q897.328 173.269 897.843 173.714 Q898.359 174.16 898.944 174.323 Q899.53 174.511 899.905 174.558 Q900.303 174.628 900.678 174.628 Q903.676 174.628 905.971 171.606 Q906.65 170.693 907.142 169.78 Q907.657 168.889 908.032 167.789 Q908.407 166.711 908.571 166.126 Q908.758 165.54 909.086 164.205 Q906.908 166.383 904.238 166.383 Q903.113 166.383 902.106 166.079 Q901.123 165.774 900.256 165.142 Q899.389 164.486 898.874 163.338 Q898.382 162.191 898.382 160.668 Q898.382 159.052 899.015 156.85 Q899.647 154.649 901.169 150.597 Q901.989 148.325 901.989 147.224 Q901.989 146.685 901.872 146.357 Q901.755 146.006 901.521 145.889 Q901.286 145.748 901.146 145.725 Q901.029 145.701 900.795 145.701 Q899.413 145.701 898.124 147.107 Q896.836 148.512 895.946 151.651 Q895.759 152.236 895.642 152.377 Q895.525 152.517 895.173 152.517 Q894.588 152.494 894.588 152.025 Q894.588 151.838 894.798 151.112 Q895.009 150.362 895.501 149.261 Q896.016 148.137 896.719 147.13 Q897.422 146.099 898.523 145.373 Q899.647 144.647 900.935 144.647 Q902.692 144.647 903.769 145.795 Q904.87 146.919 904.87 148.582 Q904.87 149.261 904.683 149.87 Q904.519 150.456 903.91 152.025 Q901.45 158.349 901.45 161.441 Q901.45 162.191 901.568 162.823 Q901.708 163.432 902.013 164.041 Q902.317 164.627 902.926 164.978 Q903.558 165.306 904.425 165.306 Q905.526 165.306 906.557 164.791 Q907.611 164.252 908.266 163.526 Q908.946 162.8 909.344 162.191 Q909.765 161.558 909.859 161.23 L912.014 152.611 L912.974 148.77 Q913.419 146.685 913.63 146.17 Q913.911 145.678 914.403 145.42 Q914.895 145.163 915.317 145.163 Q915.902 145.163 916.3 145.514 Q916.722 145.865 916.722 146.474 Z" fill="#000000" fill-rule="evenodd" fill-opacity="1" /><polyline clip-path="url(#clip070)" style="stroke:#000000; stroke-linecap:butt; stroke-linejoin:round; stroke-width:4; stroke-opacity:0.8; fill:none" points="
  211.758,198.898 361.13,198.898 
  "/>
<path clip-path="url(#clip070)" d="M393.433 192.768 L393.433 200.129 L402.206 200.129 L402.206 203.439 L393.433 203.439 L393.433 217.513 Q393.433 220.684 394.29 221.587 Q395.169 222.49 397.831 222.49 L402.206 222.49 L402.206 226.054 L397.831 226.054 Q392.901 226.054 391.026 224.226 Q389.151 222.374 389.151 217.513 L389.151 203.439 L386.026 203.439 L386.026 200.129 L389.151 200.129 L389.151 192.768 L393.433 192.768 Z" fill="#000000" fill-rule="evenodd" fill-opacity="1" /><path clip-path="url(#clip070)" d="M422.831 204.11 Q422.113 203.693 421.257 203.508 Q420.424 203.3 419.405 203.3 Q415.794 203.3 413.85 205.661 Q411.928 207.999 411.928 212.397 L411.928 226.054 L407.646 226.054 L407.646 200.129 L411.928 200.129 L411.928 204.156 Q413.271 201.795 415.424 200.661 Q417.576 199.504 420.655 199.504 Q421.095 199.504 421.627 199.573 Q422.16 199.619 422.808 199.735 L422.831 204.11 Z" fill="#000000" fill-rule="evenodd" fill-opacity="1" /><path clip-path="url(#clip070)" d="M426.859 215.823 L426.859 200.129 L431.118 200.129 L431.118 215.661 Q431.118 219.342 432.553 221.193 Q433.988 223.022 436.859 223.022 Q440.308 223.022 442.299 220.823 Q444.312 218.624 444.312 214.828 L444.312 200.129 L448.572 200.129 L448.572 226.054 L444.312 226.054 L444.312 222.073 Q442.761 224.434 440.701 225.592 Q438.664 226.726 435.956 226.726 Q431.488 226.726 429.174 223.948 Q426.859 221.17 426.859 215.823 M437.576 199.504 L437.576 199.504 Z" fill="#000000" fill-rule="evenodd" fill-opacity="1" /><path clip-path="url(#clip070)" d="M479.521 212.027 L479.521 214.11 L459.937 214.11 Q460.215 218.508 462.576 220.823 Q464.96 223.115 469.197 223.115 Q471.65 223.115 473.942 222.513 Q476.257 221.911 478.525 220.707 L478.525 224.735 Q476.234 225.707 473.826 226.217 Q471.419 226.726 468.942 226.726 Q462.738 226.726 459.104 223.115 Q455.493 219.504 455.493 213.346 Q455.493 206.981 458.919 203.254 Q462.368 199.504 468.201 199.504 Q473.433 199.504 476.465 202.883 Q479.521 206.24 479.521 212.027 M475.261 210.777 Q475.215 207.281 473.294 205.198 Q471.396 203.115 468.247 203.115 Q464.683 203.115 462.53 205.129 Q460.4 207.143 460.076 210.8 L475.261 210.777 Z" fill="#000000" fill-rule="evenodd" fill-opacity="1" /><path clip-path="url(#clip070)" d="M505.701 222.166 L505.701 235.916 L501.419 235.916 L501.419 200.129 L505.701 200.129 L505.701 204.064 Q507.044 201.749 509.081 200.638 Q511.141 199.504 513.988 199.504 Q518.71 199.504 521.65 203.254 Q524.613 207.004 524.613 213.115 Q524.613 219.226 521.65 222.976 Q518.71 226.726 513.988 226.726 Q511.141 226.726 509.081 225.615 Q507.044 224.48 505.701 222.166 M520.192 213.115 Q520.192 208.416 518.247 205.754 Q516.326 203.068 512.946 203.068 Q509.567 203.068 507.622 205.754 Q505.701 208.416 505.701 213.115 Q505.701 217.814 507.622 220.499 Q509.567 223.161 512.946 223.161 Q516.326 223.161 518.247 220.499 Q520.192 217.814 520.192 213.115 Z" fill="#000000" fill-rule="evenodd" fill-opacity="1" /><path clip-path="url(#clip070)" d="M541.719 203.115 Q538.293 203.115 536.303 205.8 Q534.312 208.462 534.312 213.115 Q534.312 217.767 536.28 220.453 Q538.27 223.115 541.719 223.115 Q545.122 223.115 547.113 220.43 Q549.104 217.744 549.104 213.115 Q549.104 208.508 547.113 205.823 Q545.122 203.115 541.719 203.115 M541.719 199.504 Q547.275 199.504 550.446 203.115 Q553.617 206.726 553.617 213.115 Q553.617 219.48 550.446 223.115 Q547.275 226.726 541.719 226.726 Q536.141 226.726 532.969 223.115 Q529.821 219.48 529.821 213.115 Q529.821 206.726 532.969 203.115 Q536.141 199.504 541.719 199.504 Z" fill="#000000" fill-rule="evenodd" fill-opacity="1" /><path clip-path="url(#clip070)" d="M560.678 190.036 L564.937 190.036 L564.937 226.054 L560.678 226.054 L560.678 190.036 Z" fill="#000000" fill-rule="evenodd" fill-opacity="1" /><path clip-path="url(#clip070)" d="M573.849 200.129 L578.108 200.129 L578.108 226.054 L573.849 226.054 L573.849 200.129 M573.849 190.036 L578.108 190.036 L578.108 195.43 L573.849 195.43 L573.849 190.036 Z" fill="#000000" fill-rule="evenodd" fill-opacity="1" /><path clip-path="url(#clip070)" d="M605.677 201.124 L605.677 205.106 Q603.872 204.11 602.043 203.624 Q600.238 203.115 598.386 203.115 Q594.242 203.115 591.951 205.754 Q589.659 208.369 589.659 213.115 Q589.659 217.86 591.951 220.499 Q594.242 223.115 598.386 223.115 Q600.238 223.115 602.043 222.629 Q603.872 222.119 605.677 221.124 L605.677 225.059 Q603.895 225.892 601.974 226.309 Q600.075 226.726 597.923 226.726 Q592.066 226.726 588.617 223.045 Q585.168 219.365 585.168 213.115 Q585.168 206.772 588.64 203.138 Q592.136 199.504 598.2 199.504 Q600.168 199.504 602.043 199.92 Q603.918 200.314 605.677 201.124 Z" fill="#000000" fill-rule="evenodd" fill-opacity="1" /><path clip-path="url(#clip070)" d="M623.872 228.462 Q622.066 233.091 620.353 234.504 Q618.64 235.916 615.77 235.916 L612.367 235.916 L612.367 232.351 L614.867 232.351 Q616.626 232.351 617.599 231.517 Q618.571 230.684 619.751 227.582 L620.515 225.638 L610.029 200.129 L614.543 200.129 L622.645 220.406 L630.747 200.129 L635.26 200.129 L623.872 228.462 Z" fill="#000000" fill-rule="evenodd" fill-opacity="1" /><path clip-path="url(#clip070)" d="M669.334 190.036 L669.334 193.578 L665.26 193.578 Q662.969 193.578 662.066 194.504 Q661.186 195.43 661.186 197.837 L661.186 200.129 L668.2 200.129 L668.2 203.439 L661.186 203.439 L661.186 226.054 L656.904 226.054 L656.904 203.439 L652.83 203.439 L652.83 200.129 L656.904 200.129 L656.904 198.323 Q656.904 193.994 658.918 192.027 Q660.932 190.036 665.307 190.036 L669.334 190.036 Z" fill="#000000" fill-rule="evenodd" fill-opacity="1" /><path clip-path="url(#clip070)" d="M672.459 215.823 L672.459 200.129 L676.719 200.129 L676.719 215.661 Q676.719 219.342 678.154 221.193 Q679.589 223.022 682.459 223.022 Q685.908 223.022 687.899 220.823 Q689.913 218.624 689.913 214.828 L689.913 200.129 L694.172 200.129 L694.172 226.054 L689.913 226.054 L689.913 222.073 Q688.362 224.434 686.302 225.592 Q684.265 226.726 681.557 226.726 Q677.089 226.726 674.774 223.948 Q672.459 221.17 672.459 215.823 M683.177 199.504 L683.177 199.504 Z" fill="#000000" fill-rule="evenodd" fill-opacity="1" /><path clip-path="url(#clip070)" d="M724.496 210.406 L724.496 226.054 L720.237 226.054 L720.237 210.545 Q720.237 206.865 718.802 205.036 Q717.367 203.207 714.496 203.207 Q711.047 203.207 709.056 205.406 Q707.066 207.606 707.066 211.402 L707.066 226.054 L702.783 226.054 L702.783 200.129 L707.066 200.129 L707.066 204.156 Q708.593 201.819 710.654 200.661 Q712.737 199.504 715.445 199.504 Q719.913 199.504 722.204 202.281 Q724.496 205.036 724.496 210.406 Z" fill="#000000" fill-rule="evenodd" fill-opacity="1" /><path clip-path="url(#clip070)" d="M751.649 201.124 L751.649 205.106 Q749.843 204.11 748.014 203.624 Q746.209 203.115 744.357 203.115 Q740.214 203.115 737.922 205.754 Q735.63 208.369 735.63 213.115 Q735.63 217.86 737.922 220.499 Q740.214 223.115 744.357 223.115 Q746.209 223.115 748.014 222.629 Q749.843 222.119 751.649 221.124 L751.649 225.059 Q749.866 225.892 747.945 226.309 Q746.047 226.726 743.894 226.726 Q738.038 226.726 734.589 223.045 Q731.14 219.365 731.14 213.115 Q731.14 206.772 734.612 203.138 Q738.107 199.504 744.172 199.504 Q746.139 199.504 748.014 199.92 Q749.889 200.314 751.649 201.124 Z" fill="#000000" fill-rule="evenodd" fill-opacity="1" /><path clip-path="url(#clip070)" d="M763.269 192.768 L763.269 200.129 L772.042 200.129 L772.042 203.439 L763.269 203.439 L763.269 217.513 Q763.269 220.684 764.126 221.587 Q765.005 222.49 767.667 222.49 L772.042 222.49 L772.042 226.054 L767.667 226.054 Q762.737 226.054 760.862 224.226 Q758.987 222.374 758.987 217.513 L758.987 203.439 L755.862 203.439 L755.862 200.129 L758.987 200.129 L758.987 192.768 L763.269 192.768 Z" fill="#000000" fill-rule="evenodd" fill-opacity="1" /><path clip-path="url(#clip070)" d="M777.644 200.129 L781.903 200.129 L781.903 226.054 L777.644 226.054 L777.644 200.129 M777.644 190.036 L781.903 190.036 L781.903 195.43 L777.644 195.43 L777.644 190.036 Z" fill="#000000" fill-rule="evenodd" fill-opacity="1" /><path clip-path="url(#clip070)" d="M800.861 203.115 Q797.436 203.115 795.445 205.8 Q793.454 208.462 793.454 213.115 Q793.454 217.767 795.422 220.453 Q797.412 223.115 800.861 223.115 Q804.264 223.115 806.255 220.43 Q808.246 217.744 808.246 213.115 Q808.246 208.508 806.255 205.823 Q804.264 203.115 800.861 203.115 M800.861 199.504 Q806.417 199.504 809.588 203.115 Q812.76 206.726 812.76 213.115 Q812.76 219.48 809.588 223.115 Q806.417 226.726 800.861 226.726 Q795.283 226.726 792.111 223.115 Q788.963 219.48 788.963 213.115 Q788.963 206.726 792.111 203.115 Q795.283 199.504 800.861 199.504 Z" fill="#000000" fill-rule="evenodd" fill-opacity="1" /><path clip-path="url(#clip070)" d="M841.37 210.406 L841.37 226.054 L837.111 226.054 L837.111 210.545 Q837.111 206.865 835.676 205.036 Q834.241 203.207 831.371 203.207 Q827.921 203.207 825.931 205.406 Q823.94 207.606 823.94 211.402 L823.94 226.054 L819.658 226.054 L819.658 200.129 L823.94 200.129 L823.94 204.156 Q825.468 201.819 827.528 200.661 Q829.611 199.504 832.32 199.504 Q836.787 199.504 839.079 202.281 Q841.37 205.036 841.37 210.406 Z" fill="#000000" fill-rule="evenodd" fill-opacity="1" /><path clip-path="url(#clip070)" d="M878.948 220.503 Q879.135 220.714 879.135 220.925 Q879.135 221.136 878.667 221.745 Q878.222 222.354 877.261 223.174 Q876.301 223.993 875.06 224.766 Q873.818 225.539 871.991 226.054 Q870.164 226.593 868.244 226.593 Q864.66 226.593 862.552 224.228 Q860.468 221.862 860.468 218.466 Q860.468 215.163 862.318 212.001 Q864.168 208.816 867.166 206.848 Q870.164 204.857 873.327 204.857 Q875.833 204.857 877.402 206.028 Q878.971 207.199 878.971 208.98 Q878.971 210.361 878.175 211.205 Q877.379 212.048 876.301 212.048 Q875.552 212.048 875.036 211.626 Q874.521 211.181 874.521 210.361 Q874.521 209.307 875.388 208.488 Q875.716 208.16 876.09 208.019 Q876.489 207.855 876.723 207.855 Q876.957 207.832 877.496 207.832 Q877.004 206.918 875.833 206.426 Q874.685 205.911 873.373 205.911 Q871.429 205.911 869.579 207.27 Q867.729 208.605 866.604 210.713 Q865.48 212.774 864.754 215.702 Q864.028 218.606 864.028 220.293 Q864.028 222.611 865.105 224.064 Q866.183 225.516 868.338 225.516 Q868.759 225.516 869.204 225.492 Q869.673 225.469 870.844 225.211 Q872.038 224.954 873.092 224.509 Q874.146 224.064 875.481 223.103 Q876.84 222.12 877.917 220.784 Q878.292 220.293 878.55 220.293 Q878.761 220.293 878.948 220.503 Z" fill="#000000" fill-rule="evenodd" fill-opacity="1" /><path clip-path="url(#clip070)" d="M893.385 195.166 Q893.385 194.592 894.156 194.215 L898.829 192.001 L894.09 189.788 Q893.385 189.46 893.385 188.886 Q893.385 188.558 893.648 188.263 Q893.926 187.951 894.287 187.951 Q894.549 187.951 895.025 188.312 L899.189 191.329 Q898.681 185.787 898.697 185.623 Q898.697 185.295 898.943 185.049 Q899.189 184.787 899.599 184.787 Q899.927 184.787 900.189 185.033 Q900.468 185.263 900.468 185.623 L899.976 191.329 L903.698 188.574 Q904.567 187.935 904.879 187.951 Q905.256 187.951 905.518 188.247 Q905.78 188.542 905.78 188.886 Q905.78 189.46 905.01 189.821 L900.337 192.034 L905.075 194.264 Q905.78 194.592 905.78 195.166 Q905.78 195.493 905.502 195.805 Q905.239 196.1 904.879 196.1 Q904.682 196.1 904.338 195.903 Q904.272 195.871 903.567 195.346 Q902.862 194.821 901.763 194.018 Q900.681 193.214 899.976 192.706 Q900.485 198.248 900.468 198.412 Q900.468 198.74 900.222 199.002 Q899.976 199.264 899.566 199.264 Q899.239 199.264 898.96 199.035 Q898.697 198.789 898.697 198.412 L899.189 192.706 L894.5 196.1 Q893.992 196.1 893.713 195.854 Q893.451 195.592 893.418 195.444 Q893.385 195.297 893.385 195.166 Z" fill="#000000" fill-rule="evenodd" fill-opacity="1" /></svg>
