<?xml version="1.0" encoding="utf-8"?>
<svg xmlns="http://www.w3.org/2000/svg" xmlns:xlink="http://www.w3.org/1999/xlink" width="600" height="400" viewBox="0 0 2400 1600">
<defs>
  <clipPath id="clip110">
    <rect x="0" y="0" width="2400" height="1600"/>
  </clipPath>
</defs>
<path clip-path="url(#clip110)" d="
M0 1600 L2400 1600 L2400 0 L0 0  Z
  " fill="#ffffff" fill-rule="evenodd" fill-opacity="1"/>
<defs>
  <clipPath id="clip111">
    <rect x="480" y="0" width="1681" height="1600"/>
  </clipPath>
</defs>
<path clip-path="url(#clip110)" d="
M282.824 1486.45 L2352.76 1486.45 L2352.76 47.2441 L282.824 47.2441  Z
  " fill="#ffffff" fill-rule="evenodd" fill-opacity="1"/>
<defs>
  <clipPath id="clip112">
    <rect x="282" y="47" width="2071" height="1440"/>
  </clipPath>
</defs>
<polyline clip-path="url(#clip112)" style="stroke:#000000; stroke-linecap:butt; stroke-linejoin:round; stroke-width:2; stroke-opacity:0.1; fill:none" points="
  341.407,1486.45 341.407,47.2441 
  "/>
<polyline clip-path="url(#clip112)" style="stroke:#000000; stroke-linecap:butt; stroke-linejoin:round; stroke-width:2; stroke-opacity:0.1; fill:none" points="
  829.598,1486.45 829.598,47.2441 
  "/>
<polyline clip-path="url(#clip112)" style="stroke:#000000; stroke-linecap:butt; stroke-linejoin:round; stroke-width:2; stroke-opacity:0.1; fill:none" points="
  1317.79,1486.45 1317.79,47.2441 
  "/>
<polyline clip-path="url(#clip112)" style="stroke:#000000; stroke-linecap:butt; stroke-linejoin:round; stroke-width:2; stroke-opacity:0.1; fill:none" points="
  1805.98,1486.45 1805.98,47.2441 
  "/>
<polyline clip-path="url(#clip112)" style="stroke:#000000; stroke-linecap:butt; stroke-linejoin:round; stroke-width:2; stroke-opacity:0.1; fill:none" points="
  2294.17,1486.45 2294.17,47.2441 
  "/>
<polyline clip-path="url(#clip110)" style="stroke:#000000; stroke-linecap:butt; stroke-linejoin:round; stroke-width:4; stroke-opacity:1; fill:none" points="
  282.824,1486.45 2352.76,1486.45 
  "/>
<polyline clip-path="url(#clip110)" style="stroke:#000000; stroke-linecap:butt; stroke-linejoin:round; stroke-width:4; stroke-opacity:1; fill:none" points="
  341.407,1486.45 341.407,1467.55 
  "/>
<polyline clip-path="url(#clip110)" style="stroke:#000000; stroke-linecap:butt; stroke-linejoin:round; stroke-width:4; stroke-opacity:1; fill:none" points="
  829.598,1486.45 829.598,1467.55 
  "/>
<polyline clip-path="url(#clip110)" style="stroke:#000000; stroke-linecap:butt; stroke-linejoin:round; stroke-width:4; stroke-opacity:1; fill:none" points="
  1317.79,1486.45 1317.79,1467.55 
  "/>
<polyline clip-path="url(#clip110)" style="stroke:#000000; stroke-linecap:butt; stroke-linejoin:round; stroke-width:4; stroke-opacity:1; fill:none" points="
  1805.98,1486.45 1805.98,1467.55 
  "/>
<polyline clip-path="url(#clip110)" style="stroke:#000000; stroke-linecap:butt; stroke-linejoin:round; stroke-width:4; stroke-opacity:1; fill:none" points="
  2294.17,1486.45 2294.17,1467.55 
  "/>
<path clip-path="url(#clip110)" d="M341.407 1517.37 Q337.796 1517.37 335.967 1520.93 Q334.162 1524.47 334.162 1531.6 Q334.162 1538.71 335.967 1542.27 Q337.796 1545.82 341.407 1545.82 Q345.041 1545.82 346.847 1542.27 Q348.675 1538.71 348.675 1531.6 Q348.675 1524.47 346.847 1520.93 Q345.041 1517.37 341.407 1517.37 M341.407 1513.66 Q347.217 1513.66 350.273 1518.27 Q353.351 1522.85 353.351 1531.6 Q353.351 1540.33 350.273 1544.94 Q347.217 1549.52 341.407 1549.52 Q335.597 1549.52 332.518 1544.94 Q329.463 1540.33 329.463 1531.6 Q329.463 1522.85 332.518 1518.27 Q335.597 1513.66 341.407 1513.66 Z" fill="#000000" fill-rule="evenodd" fill-opacity="1" /><path clip-path="url(#clip110)" d="M819.98 1544.91 L827.619 1544.91 L827.619 1518.55 L819.309 1520.21 L819.309 1515.95 L827.573 1514.29 L832.249 1514.29 L832.249 1544.91 L839.888 1544.91 L839.888 1548.85 L819.98 1548.85 L819.98 1544.91 Z" fill="#000000" fill-rule="evenodd" fill-opacity="1" /><path clip-path="url(#clip110)" d="M1312.44 1544.91 L1328.76 1544.91 L1328.76 1548.85 L1306.82 1548.85 L1306.82 1544.91 Q1309.48 1542.16 1314.06 1537.53 Q1318.67 1532.88 1319.85 1531.53 Q1322.1 1529.01 1322.98 1527.27 Q1323.88 1525.51 1323.88 1523.82 Q1323.88 1521.07 1321.93 1519.33 Q1320.01 1517.6 1316.91 1517.6 Q1314.71 1517.6 1312.26 1518.36 Q1309.83 1519.13 1307.05 1520.68 L1307.05 1515.95 Q1309.87 1514.82 1312.33 1514.24 Q1314.78 1513.66 1316.82 1513.66 Q1322.19 1513.66 1325.38 1516.35 Q1328.58 1519.03 1328.58 1523.52 Q1328.58 1525.65 1327.77 1527.57 Q1326.98 1529.47 1324.87 1532.07 Q1324.29 1532.74 1321.19 1535.95 Q1318.09 1539.15 1312.44 1544.91 Z" fill="#000000" fill-rule="evenodd" fill-opacity="1" /><path clip-path="url(#clip110)" d="M1810.23 1530.21 Q1813.59 1530.93 1815.46 1533.2 Q1817.36 1535.47 1817.36 1538.8 Q1817.36 1543.92 1813.84 1546.72 Q1810.32 1549.52 1803.84 1549.52 Q1801.66 1549.52 1799.35 1549.08 Q1797.06 1548.66 1794.6 1547.81 L1794.6 1543.29 Q1796.55 1544.43 1798.86 1545.01 Q1801.18 1545.58 1803.7 1545.58 Q1808.1 1545.58 1810.39 1543.85 Q1812.71 1542.11 1812.71 1538.8 Q1812.71 1535.75 1810.55 1534.03 Q1808.42 1532.3 1804.6 1532.3 L1800.58 1532.3 L1800.58 1528.45 L1804.79 1528.45 Q1808.24 1528.45 1810.07 1527.09 Q1811.9 1525.7 1811.9 1523.11 Q1811.9 1520.45 1810 1519.03 Q1808.12 1517.6 1804.6 1517.6 Q1802.68 1517.6 1800.48 1518.01 Q1798.28 1518.43 1795.65 1519.31 L1795.65 1515.14 Q1798.31 1514.4 1800.62 1514.03 Q1802.96 1513.66 1805.02 1513.66 Q1810.34 1513.66 1813.45 1516.09 Q1816.55 1518.5 1816.55 1522.62 Q1816.55 1525.49 1814.9 1527.48 Q1813.26 1529.45 1810.23 1530.21 Z" fill="#000000" fill-rule="evenodd" fill-opacity="1" /><path clip-path="url(#clip110)" d="M2297.18 1518.36 L2285.38 1536.81 L2297.18 1536.81 L2297.18 1518.36 M2295.96 1514.29 L2301.83 1514.29 L2301.83 1536.81 L2306.77 1536.81 L2306.77 1540.7 L2301.83 1540.7 L2301.83 1548.85 L2297.18 1548.85 L2297.18 1540.7 L2281.58 1540.7 L2281.58 1536.19 L2295.96 1514.29 Z" fill="#000000" fill-rule="evenodd" fill-opacity="1" /><polyline clip-path="url(#clip112)" style="stroke:#000000; stroke-linecap:butt; stroke-linejoin:round; stroke-width:2; stroke-opacity:0.1; fill:none" points="
  282.824,1358.22 2352.76,1358.22 
  "/>
<polyline clip-path="url(#clip112)" style="stroke:#000000; stroke-linecap:butt; stroke-linejoin:round; stroke-width:2; stroke-opacity:0.1; fill:none" points="
  282.824,1060.12 2352.76,1060.12 
  "/>
<polyline clip-path="url(#clip112)" style="stroke:#000000; stroke-linecap:butt; stroke-linejoin:round; stroke-width:2; stroke-opacity:0.1; fill:none" points="
  282.824,762.018 2352.76,762.018 
  "/>
<polyline clip-path="url(#clip112)" style="stroke:#000000; stroke-linecap:butt; stroke-linejoin:round; stroke-width:2; stroke-opacity:0.1; fill:none" points="
  282.824,463.918 2352.76,463.918 
  "/>
<polyline clip-path="url(#clip112)" style="stroke:#000000; stroke-linecap:butt; stroke-linejoin:round; stroke-width:2; stroke-opacity:0.1; fill:none" points="
  282.824,165.819 2352.76,165.819 
  "/>
<polyline clip-path="url(#clip110)" style="stroke:#000000; stroke-linecap:butt; stroke-linejoin:round; stroke-width:4; stroke-opacity:1; fill:none" points="
  282.824,1486.45 282.824,47.2441 
  "/>
<polyline clip-path="url(#clip110)" style="stroke:#000000; stroke-linecap:butt; stroke-linejoin:round; stroke-width:4; stroke-opacity:1; fill:none" points="
  282.824,1358.22 301.722,1358.22 
  "/>
<polyline clip-path="url(#clip110)" style="stroke:#000000; stroke-linecap:butt; stroke-linejoin:round; stroke-width:4; stroke-opacity:1; fill:none" points="
  282.824,1060.12 301.722,1060.12 
  "/>
<polyline clip-path="url(#clip110)" style="stroke:#000000; stroke-linecap:butt; stroke-linejoin:round; stroke-width:4; stroke-opacity:1; fill:none" points="
  282.824,762.018 301.722,762.018 
  "/>
<polyline clip-path="url(#clip110)" style="stroke:#000000; stroke-linecap:butt; stroke-linejoin:round; stroke-width:4; stroke-opacity:1; fill:none" points="
  282.824,463.918 301.722,463.918 
  "/>
<polyline clip-path="url(#clip110)" style="stroke:#000000; stroke-linecap:butt; stroke-linejoin:round; stroke-width:4; stroke-opacity:1; fill:none" points="
  282.824,165.819 301.722,165.819 
  "/>
<path clip-path="url(#clip110)" d="M50.9921 1358.67 L80.6679 1358.67 L80.6679 1362.6 L50.9921 1362.6 L50.9921 1358.67 Z" fill="#000000" fill-rule="evenodd" fill-opacity="1" /><path clip-path="url(#clip110)" d="M100.76 1344.01 Q97.1493 1344.01 95.3206 1347.58 Q93.515 1351.12 93.515 1358.25 Q93.515 1365.36 95.3206 1368.92 Q97.1493 1372.46 100.76 1372.46 Q104.395 1372.46 106.2 1368.92 Q108.029 1365.36 108.029 1358.25 Q108.029 1351.12 106.2 1347.58 Q104.395 1344.01 100.76 1344.01 M100.76 1340.31 Q106.571 1340.31 109.626 1344.92 Q112.705 1349.5 112.705 1358.25 Q112.705 1366.98 109.626 1371.58 Q106.571 1376.17 100.76 1376.17 Q94.9502 1376.17 91.8715 1371.58 Q88.816 1366.98 88.816 1358.25 Q88.816 1349.5 91.8715 1344.92 Q94.9502 1340.31 100.76 1340.31 Z" fill="#000000" fill-rule="evenodd" fill-opacity="1" /><path clip-path="url(#clip110)" d="M120.922 1369.62 L125.807 1369.62 L125.807 1375.5 L120.922 1375.5 L120.922 1369.62 Z" fill="#000000" fill-rule="evenodd" fill-opacity="1" /><path clip-path="url(#clip110)" d="M145.992 1344.01 Q142.381 1344.01 140.552 1347.58 Q138.746 1351.12 138.746 1358.25 Q138.746 1365.36 140.552 1368.92 Q142.381 1372.46 145.992 1372.46 Q149.626 1372.46 151.431 1368.92 Q153.26 1365.36 153.26 1358.25 Q153.26 1351.12 151.431 1347.58 Q149.626 1344.01 145.992 1344.01 M145.992 1340.31 Q151.802 1340.31 154.857 1344.92 Q157.936 1349.5 157.936 1358.25 Q157.936 1366.98 154.857 1371.58 Q151.802 1376.17 145.992 1376.17 Q140.181 1376.17 137.103 1371.58 Q134.047 1366.98 134.047 1358.25 Q134.047 1349.5 137.103 1344.92 Q140.181 1340.31 145.992 1340.31 Z" fill="#000000" fill-rule="evenodd" fill-opacity="1" /><path clip-path="url(#clip110)" d="M176.153 1344.01 Q172.542 1344.01 170.714 1347.58 Q168.908 1351.12 168.908 1358.25 Q168.908 1365.36 170.714 1368.92 Q172.542 1372.46 176.153 1372.46 Q179.788 1372.46 181.593 1368.92 Q183.422 1365.36 183.422 1358.25 Q183.422 1351.12 181.593 1347.58 Q179.788 1344.01 176.153 1344.01 M176.153 1340.31 Q181.964 1340.31 185.019 1344.92 Q188.098 1349.5 188.098 1358.25 Q188.098 1366.98 185.019 1371.58 Q181.964 1376.17 176.153 1376.17 Q170.343 1376.17 167.265 1371.58 Q164.209 1366.98 164.209 1358.25 Q164.209 1349.5 167.265 1344.92 Q170.343 1340.31 176.153 1340.31 Z" fill="#000000" fill-rule="evenodd" fill-opacity="1" /><path clip-path="url(#clip110)" d="M206.315 1344.01 Q202.704 1344.01 200.876 1347.58 Q199.07 1351.12 199.07 1358.25 Q199.07 1365.36 200.876 1368.92 Q202.704 1372.46 206.315 1372.46 Q209.95 1372.46 211.755 1368.92 Q213.584 1365.36 213.584 1358.25 Q213.584 1351.12 211.755 1347.58 Q209.95 1344.01 206.315 1344.01 M206.315 1340.31 Q212.126 1340.31 215.181 1344.92 Q218.26 1349.5 218.26 1358.25 Q218.26 1366.98 215.181 1371.58 Q212.126 1376.17 206.315 1376.17 Q200.505 1376.17 197.427 1371.58 Q194.371 1366.98 194.371 1358.25 Q194.371 1349.5 197.427 1344.92 Q200.505 1340.31 206.315 1340.31 Z" fill="#000000" fill-rule="evenodd" fill-opacity="1" /><path clip-path="url(#clip110)" d="M230.505 1371.56 L246.824 1371.56 L246.824 1375.5 L224.88 1375.5 L224.88 1371.56 Q227.542 1368.81 232.125 1364.18 Q236.732 1359.52 237.912 1358.18 Q240.158 1355.66 241.037 1353.92 Q241.94 1352.16 241.94 1350.47 Q241.94 1347.72 239.996 1345.98 Q238.074 1344.25 234.973 1344.25 Q232.774 1344.25 230.32 1345.01 Q227.889 1345.77 225.112 1347.33 L225.112 1342.6 Q227.936 1341.47 230.389 1340.89 Q232.843 1340.31 234.88 1340.31 Q240.25 1340.31 243.445 1343 Q246.639 1345.68 246.639 1350.17 Q246.639 1352.3 245.829 1354.22 Q245.042 1356.12 242.936 1358.71 Q242.357 1359.39 239.255 1362.6 Q236.153 1365.8 230.505 1371.56 Z" fill="#000000" fill-rule="evenodd" fill-opacity="1" /><path clip-path="url(#clip110)" d="M99.1632 1045.92 Q95.5521 1045.92 93.7234 1049.48 Q91.9178 1053.02 91.9178 1060.15 Q91.9178 1067.26 93.7234 1070.82 Q95.5521 1074.36 99.1632 1074.36 Q102.797 1074.36 104.603 1070.82 Q106.432 1067.26 106.432 1060.15 Q106.432 1053.02 104.603 1049.48 Q102.797 1045.92 99.1632 1045.92 M99.1632 1042.21 Q104.973 1042.21 108.029 1046.82 Q111.108 1051.4 111.108 1060.15 Q111.108 1068.88 108.029 1073.48 Q104.973 1078.07 99.1632 1078.07 Q93.353 1078.07 90.2743 1073.48 Q87.2188 1068.88 87.2188 1060.15 Q87.2188 1051.4 90.2743 1046.82 Q93.353 1042.21 99.1632 1042.21 Z" fill="#000000" fill-rule="evenodd" fill-opacity="1" /><path clip-path="url(#clip110)" d="M119.325 1071.52 L124.209 1071.52 L124.209 1077.4 L119.325 1077.4 L119.325 1071.52 Z" fill="#000000" fill-rule="evenodd" fill-opacity="1" /><path clip-path="url(#clip110)" d="M144.394 1045.92 Q140.783 1045.92 138.955 1049.48 Q137.149 1053.02 137.149 1060.15 Q137.149 1067.26 138.955 1070.82 Q140.783 1074.36 144.394 1074.36 Q148.029 1074.36 149.834 1070.82 Q151.663 1067.26 151.663 1060.15 Q151.663 1053.02 149.834 1049.48 Q148.029 1045.92 144.394 1045.92 M144.394 1042.21 Q150.205 1042.21 153.26 1046.82 Q156.339 1051.4 156.339 1060.15 Q156.339 1068.88 153.26 1073.48 Q150.205 1078.07 144.394 1078.07 Q138.584 1078.07 135.506 1073.48 Q132.45 1068.88 132.45 1060.15 Q132.45 1051.4 135.506 1046.82 Q138.584 1042.21 144.394 1042.21 Z" fill="#000000" fill-rule="evenodd" fill-opacity="1" /><path clip-path="url(#clip110)" d="M174.556 1045.92 Q170.945 1045.92 169.116 1049.48 Q167.311 1053.02 167.311 1060.15 Q167.311 1067.26 169.116 1070.82 Q170.945 1074.36 174.556 1074.36 Q178.191 1074.36 179.996 1070.82 Q181.825 1067.26 181.825 1060.15 Q181.825 1053.02 179.996 1049.48 Q178.191 1045.92 174.556 1045.92 M174.556 1042.21 Q180.366 1042.21 183.422 1046.82 Q186.501 1051.4 186.501 1060.15 Q186.501 1068.88 183.422 1073.48 Q180.366 1078.07 174.556 1078.07 Q168.746 1078.07 165.667 1073.48 Q162.612 1068.88 162.612 1060.15 Q162.612 1051.4 165.667 1046.82 Q168.746 1042.21 174.556 1042.21 Z" fill="#000000" fill-rule="evenodd" fill-opacity="1" /><path clip-path="url(#clip110)" d="M204.718 1045.92 Q201.107 1045.92 199.278 1049.48 Q197.473 1053.02 197.473 1060.15 Q197.473 1067.26 199.278 1070.82 Q201.107 1074.36 204.718 1074.36 Q208.352 1074.36 210.158 1070.82 Q211.987 1067.26 211.987 1060.15 Q211.987 1053.02 210.158 1049.48 Q208.352 1045.92 204.718 1045.92 M204.718 1042.21 Q210.528 1042.21 213.584 1046.82 Q216.663 1051.4 216.663 1060.15 Q216.663 1068.88 213.584 1073.48 Q210.528 1078.07 204.718 1078.07 Q198.908 1078.07 195.829 1073.48 Q192.774 1068.88 192.774 1060.15 Q192.774 1051.4 195.829 1046.82 Q198.908 1042.21 204.718 1042.21 Z" fill="#000000" fill-rule="evenodd" fill-opacity="1" /><path clip-path="url(#clip110)" d="M234.88 1045.92 Q231.269 1045.92 229.44 1049.48 Q227.635 1053.02 227.635 1060.15 Q227.635 1067.26 229.44 1070.82 Q231.269 1074.36 234.88 1074.36 Q238.514 1074.36 240.32 1070.82 Q242.149 1067.26 242.149 1060.15 Q242.149 1053.02 240.32 1049.48 Q238.514 1045.92 234.88 1045.92 M234.88 1042.21 Q240.69 1042.21 243.746 1046.82 Q246.824 1051.4 246.824 1060.15 Q246.824 1068.88 243.746 1073.48 Q240.69 1078.07 234.88 1078.07 Q229.07 1078.07 225.991 1073.48 Q222.936 1068.88 222.936 1060.15 Q222.936 1051.4 225.991 1046.82 Q229.07 1042.21 234.88 1042.21 Z" fill="#000000" fill-rule="evenodd" fill-opacity="1" /><path clip-path="url(#clip110)" d="M100.76 747.816 Q97.1493 747.816 95.3206 751.381 Q93.515 754.923 93.515 762.052 Q93.515 769.159 95.3206 772.724 Q97.1493 776.265 100.76 776.265 Q104.395 776.265 106.2 772.724 Q108.029 769.159 108.029 762.052 Q108.029 754.923 106.2 751.381 Q104.395 747.816 100.76 747.816 M100.76 744.113 Q106.571 744.113 109.626 748.719 Q112.705 753.302 112.705 762.052 Q112.705 770.779 109.626 775.386 Q106.571 779.969 100.76 779.969 Q94.9502 779.969 91.8715 775.386 Q88.816 770.779 88.816 762.052 Q88.816 753.302 91.8715 748.719 Q94.9502 744.113 100.76 744.113 Z" fill="#000000" fill-rule="evenodd" fill-opacity="1" /><path clip-path="url(#clip110)" d="M120.922 773.418 L125.807 773.418 L125.807 779.298 L120.922 779.298 L120.922 773.418 Z" fill="#000000" fill-rule="evenodd" fill-opacity="1" /><path clip-path="url(#clip110)" d="M145.992 747.816 Q142.381 747.816 140.552 751.381 Q138.746 754.923 138.746 762.052 Q138.746 769.159 140.552 772.724 Q142.381 776.265 145.992 776.265 Q149.626 776.265 151.431 772.724 Q153.26 769.159 153.26 762.052 Q153.26 754.923 151.431 751.381 Q149.626 747.816 145.992 747.816 M145.992 744.113 Q151.802 744.113 154.857 748.719 Q157.936 753.302 157.936 762.052 Q157.936 770.779 154.857 775.386 Q151.802 779.969 145.992 779.969 Q140.181 779.969 137.103 775.386 Q134.047 770.779 134.047 762.052 Q134.047 753.302 137.103 748.719 Q140.181 744.113 145.992 744.113 Z" fill="#000000" fill-rule="evenodd" fill-opacity="1" /><path clip-path="url(#clip110)" d="M176.153 747.816 Q172.542 747.816 170.714 751.381 Q168.908 754.923 168.908 762.052 Q168.908 769.159 170.714 772.724 Q172.542 776.265 176.153 776.265 Q179.788 776.265 181.593 772.724 Q183.422 769.159 183.422 762.052 Q183.422 754.923 181.593 751.381 Q179.788 747.816 176.153 747.816 M176.153 744.113 Q181.964 744.113 185.019 748.719 Q188.098 753.302 188.098 762.052 Q188.098 770.779 185.019 775.386 Q181.964 779.969 176.153 779.969 Q170.343 779.969 167.265 775.386 Q164.209 770.779 164.209 762.052 Q164.209 753.302 167.265 748.719 Q170.343 744.113 176.153 744.113 Z" fill="#000000" fill-rule="evenodd" fill-opacity="1" /><path clip-path="url(#clip110)" d="M206.315 747.816 Q202.704 747.816 200.876 751.381 Q199.07 754.923 199.07 762.052 Q199.07 769.159 200.876 772.724 Q202.704 776.265 206.315 776.265 Q209.95 776.265 211.755 772.724 Q213.584 769.159 213.584 762.052 Q213.584 754.923 211.755 751.381 Q209.95 747.816 206.315 747.816 M206.315 744.113 Q212.126 744.113 215.181 748.719 Q218.26 753.302 218.26 762.052 Q218.26 770.779 215.181 775.386 Q212.126 779.969 206.315 779.969 Q200.505 779.969 197.427 775.386 Q194.371 770.779 194.371 762.052 Q194.371 753.302 197.427 748.719 Q200.505 744.113 206.315 744.113 Z" fill="#000000" fill-rule="evenodd" fill-opacity="1" /><path clip-path="url(#clip110)" d="M230.505 775.363 L246.824 775.363 L246.824 779.298 L224.88 779.298 L224.88 775.363 Q227.542 772.608 232.125 767.978 Q236.732 763.326 237.912 761.983 Q240.158 759.46 241.037 757.724 Q241.94 755.964 241.94 754.275 Q241.94 751.52 239.996 749.784 Q238.074 748.048 234.973 748.048 Q232.774 748.048 230.32 748.812 Q227.889 749.576 225.112 751.127 L225.112 746.404 Q227.936 745.27 230.389 744.691 Q232.843 744.113 234.88 744.113 Q240.25 744.113 243.445 746.798 Q246.639 749.483 246.639 753.974 Q246.639 756.103 245.829 758.025 Q245.042 759.923 242.936 762.515 Q242.357 763.187 239.255 766.404 Q236.153 769.599 230.505 775.363 Z" fill="#000000" fill-rule="evenodd" fill-opacity="1" /><path clip-path="url(#clip110)" d="M98.6771 449.717 Q95.066 449.717 93.2373 453.282 Q91.4317 456.824 91.4317 463.953 Q91.4317 471.06 93.2373 474.624 Q95.066 478.166 98.6771 478.166 Q102.311 478.166 104.117 474.624 Q105.946 471.06 105.946 463.953 Q105.946 456.824 104.117 453.282 Q102.311 449.717 98.6771 449.717 M98.6771 446.013 Q104.487 446.013 107.543 450.62 Q110.621 455.203 110.621 463.953 Q110.621 472.68 107.543 477.286 Q104.487 481.87 98.6771 481.87 Q92.8669 481.87 89.7882 477.286 Q86.7327 472.68 86.7327 463.953 Q86.7327 455.203 89.7882 450.62 Q92.8669 446.013 98.6771 446.013 Z" fill="#000000" fill-rule="evenodd" fill-opacity="1" /><path clip-path="url(#clip110)" d="M118.839 475.319 L123.723 475.319 L123.723 481.198 L118.839 481.198 L118.839 475.319 Z" fill="#000000" fill-rule="evenodd" fill-opacity="1" /><path clip-path="url(#clip110)" d="M143.908 449.717 Q140.297 449.717 138.469 453.282 Q136.663 456.824 136.663 463.953 Q136.663 471.06 138.469 474.624 Q140.297 478.166 143.908 478.166 Q147.543 478.166 149.348 474.624 Q151.177 471.06 151.177 463.953 Q151.177 456.824 149.348 453.282 Q147.543 449.717 143.908 449.717 M143.908 446.013 Q149.718 446.013 152.774 450.62 Q155.853 455.203 155.853 463.953 Q155.853 472.68 152.774 477.286 Q149.718 481.87 143.908 481.87 Q138.098 481.87 135.019 477.286 Q131.964 472.68 131.964 463.953 Q131.964 455.203 135.019 450.62 Q138.098 446.013 143.908 446.013 Z" fill="#000000" fill-rule="evenodd" fill-opacity="1" /><path clip-path="url(#clip110)" d="M174.07 449.717 Q170.459 449.717 168.63 453.282 Q166.825 456.824 166.825 463.953 Q166.825 471.06 168.63 474.624 Q170.459 478.166 174.07 478.166 Q177.704 478.166 179.51 474.624 Q181.339 471.06 181.339 463.953 Q181.339 456.824 179.51 453.282 Q177.704 449.717 174.07 449.717 M174.07 446.013 Q179.88 446.013 182.936 450.62 Q186.015 455.203 186.015 463.953 Q186.015 472.68 182.936 477.286 Q179.88 481.87 174.07 481.87 Q168.26 481.87 165.181 477.286 Q162.126 472.68 162.126 463.953 Q162.126 455.203 165.181 450.62 Q168.26 446.013 174.07 446.013 Z" fill="#000000" fill-rule="evenodd" fill-opacity="1" /><path clip-path="url(#clip110)" d="M204.232 449.717 Q200.621 449.717 198.792 453.282 Q196.987 456.824 196.987 463.953 Q196.987 471.06 198.792 474.624 Q200.621 478.166 204.232 478.166 Q207.866 478.166 209.672 474.624 Q211.501 471.06 211.501 463.953 Q211.501 456.824 209.672 453.282 Q207.866 449.717 204.232 449.717 M204.232 446.013 Q210.042 446.013 213.098 450.62 Q216.176 455.203 216.176 463.953 Q216.176 472.68 213.098 477.286 Q210.042 481.87 204.232 481.87 Q198.422 481.87 195.343 477.286 Q192.288 472.68 192.288 463.953 Q192.288 455.203 195.343 450.62 Q198.422 446.013 204.232 446.013 Z" fill="#000000" fill-rule="evenodd" fill-opacity="1" /><path clip-path="url(#clip110)" d="M237.241 450.712 L225.436 469.161 L237.241 469.161 L237.241 450.712 M236.014 446.638 L241.894 446.638 L241.894 469.161 L246.824 469.161 L246.824 473.05 L241.894 473.05 L241.894 481.198 L237.241 481.198 L237.241 473.05 L221.639 473.05 L221.639 468.536 L236.014 446.638 Z" fill="#000000" fill-rule="evenodd" fill-opacity="1" /><path clip-path="url(#clip110)" d="M99.0011 151.618 Q95.39 151.618 93.5613 155.183 Q91.7558 158.724 91.7558 165.854 Q91.7558 172.96 93.5613 176.525 Q95.39 180.067 99.0011 180.067 Q102.635 180.067 104.441 176.525 Q106.27 172.96 106.27 165.854 Q106.27 158.724 104.441 155.183 Q102.635 151.618 99.0011 151.618 M99.0011 147.914 Q104.811 147.914 107.867 152.521 Q110.946 157.104 110.946 165.854 Q110.946 174.581 107.867 179.187 Q104.811 183.77 99.0011 183.77 Q93.191 183.77 90.1123 179.187 Q87.0567 174.581 87.0567 165.854 Q87.0567 157.104 90.1123 152.521 Q93.191 147.914 99.0011 147.914 Z" fill="#000000" fill-rule="evenodd" fill-opacity="1" /><path clip-path="url(#clip110)" d="M119.163 177.22 L124.047 177.22 L124.047 183.099 L119.163 183.099 L119.163 177.22 Z" fill="#000000" fill-rule="evenodd" fill-opacity="1" /><path clip-path="url(#clip110)" d="M144.232 151.618 Q140.621 151.618 138.793 155.183 Q136.987 158.724 136.987 165.854 Q136.987 172.96 138.793 176.525 Q140.621 180.067 144.232 180.067 Q147.867 180.067 149.672 176.525 Q151.501 172.96 151.501 165.854 Q151.501 158.724 149.672 155.183 Q147.867 151.618 144.232 151.618 M144.232 147.914 Q150.043 147.914 153.098 152.521 Q156.177 157.104 156.177 165.854 Q156.177 174.581 153.098 179.187 Q150.043 183.77 144.232 183.77 Q138.422 183.77 135.344 179.187 Q132.288 174.581 132.288 165.854 Q132.288 157.104 135.344 152.521 Q138.422 147.914 144.232 147.914 Z" fill="#000000" fill-rule="evenodd" fill-opacity="1" /><path clip-path="url(#clip110)" d="M174.394 151.618 Q170.783 151.618 168.954 155.183 Q167.149 158.724 167.149 165.854 Q167.149 172.96 168.954 176.525 Q170.783 180.067 174.394 180.067 Q178.028 180.067 179.834 176.525 Q181.663 172.96 181.663 165.854 Q181.663 158.724 179.834 155.183 Q178.028 151.618 174.394 151.618 M174.394 147.914 Q180.204 147.914 183.26 152.521 Q186.339 157.104 186.339 165.854 Q186.339 174.581 183.26 179.187 Q180.204 183.77 174.394 183.77 Q168.584 183.77 165.505 179.187 Q162.45 174.581 162.45 165.854 Q162.45 157.104 165.505 152.521 Q168.584 147.914 174.394 147.914 Z" fill="#000000" fill-rule="evenodd" fill-opacity="1" /><path clip-path="url(#clip110)" d="M204.556 151.618 Q200.945 151.618 199.116 155.183 Q197.311 158.724 197.311 165.854 Q197.311 172.96 199.116 176.525 Q200.945 180.067 204.556 180.067 Q208.19 180.067 209.996 176.525 Q211.825 172.96 211.825 165.854 Q211.825 158.724 209.996 155.183 Q208.19 151.618 204.556 151.618 M204.556 147.914 Q210.366 147.914 213.422 152.521 Q216.5 157.104 216.5 165.854 Q216.5 174.581 213.422 179.187 Q210.366 183.77 204.556 183.77 Q198.746 183.77 195.667 179.187 Q192.612 174.581 192.612 165.854 Q192.612 157.104 195.667 152.521 Q198.746 147.914 204.556 147.914 Z" fill="#000000" fill-rule="evenodd" fill-opacity="1" /><path clip-path="url(#clip110)" d="M235.297 163.956 Q232.149 163.956 230.297 166.109 Q228.468 168.261 228.468 172.011 Q228.468 175.738 230.297 177.914 Q232.149 180.067 235.297 180.067 Q238.445 180.067 240.274 177.914 Q242.125 175.738 242.125 172.011 Q242.125 168.261 240.274 166.109 Q238.445 163.956 235.297 163.956 M244.579 149.303 L244.579 153.562 Q242.82 152.729 241.014 152.289 Q239.232 151.849 237.473 151.849 Q232.843 151.849 230.389 154.974 Q227.959 158.099 227.612 164.419 Q228.977 162.405 231.037 161.34 Q233.098 160.252 235.574 160.252 Q240.783 160.252 243.792 163.423 Q246.824 166.571 246.824 172.011 Q246.824 177.335 243.676 180.553 Q240.528 183.77 235.297 183.77 Q229.301 183.77 226.13 179.187 Q222.959 174.581 222.959 165.854 Q222.959 157.659 226.848 152.798 Q230.737 147.914 237.287 147.914 Q239.047 147.914 240.829 148.261 Q242.635 148.609 244.579 149.303 Z" fill="#000000" fill-rule="evenodd" fill-opacity="1" /><polyline clip-path="url(#clip112)" style="stroke:#000000; stroke-linecap:butt; stroke-linejoin:round; stroke-width:4; stroke-opacity:1; fill:none" points="
  341.407,1060.12 351.22,1060.12 361.033,1060.12 370.846,1060.12 380.659,1060.12 390.472,1060.12 400.285,1060.12 410.098,1060.12 419.911,1060.12 429.723,1060.12 
  439.536,1060.12 449.349,1060.12 459.162,1060.12 468.975,1060.12 478.788,1060.12 488.601,1060.12 498.414,1060.12 508.227,1060.12 518.039,1060.12 527.852,1060.12 
  537.665,1060.12 547.478,1060.12 557.291,1060.12 567.104,1060.12 576.917,1060.12 586.73,1060.12 596.543,1060.12 606.355,1060.12 616.168,1060.12 625.981,1060.12 
  635.794,1060.12 645.607,1060.12 655.42,1060.12 665.233,1060.12 675.046,1060.12 684.859,1060.12 694.671,1060.12 704.484,1060.12 714.297,1060.12 724.11,1060.12 
  733.923,1060.12 743.736,1060.12 753.549,1060.12 763.362,1060.12 773.175,1060.12 782.988,1060.12 792.8,1060.12 802.613,1060.12 812.426,1060.12 822.239,1060.12 
  832.052,1060.12 841.865,1060.12 851.678,1060.12 861.491,1060.12 871.304,1060.12 881.116,1060.12 890.929,1060.12 900.742,1060.12 910.555,1060.12 920.368,1060.12 
  930.181,1060.12 939.994,1060.12 949.807,1060.12 959.62,1060.12 969.432,1060.12 979.245,1060.12 989.058,1060.12 998.871,1060.12 1008.68,1060.12 1018.5,1060.12 
  1028.31,1060.12 1038.12,1060.12 1047.94,1060.12 1057.75,1060.12 1067.56,1060.12 1077.37,1060.12 1087.19,1060.12 1097,1060.12 1106.81,1060.12 1116.63,1060.12 
  1126.44,1060.12 1136.25,1060.12 1146.06,1060.12 1155.88,1060.12 1165.69,1060.12 1175.5,1060.12 1185.32,1060.12 1195.13,1060.12 1204.94,1060.12 1214.75,1060.12 
  1224.57,1060.12 1234.38,1060.12 1244.19,1060.12 1254.01,1060.12 1263.82,1060.12 1273.63,1060.12 1283.45,1060.12 1293.26,1060.12 1303.07,1060.12 1312.88,1060.12 
  1322.7,1060.12 1332.51,1060.12 1342.32,1060.12 1352.14,1060.12 1361.95,1060.12 1371.76,1060.12 1381.57,1060.12 1391.39,1060.12 1401.2,1060.12 1411.01,1060.12 
  1420.83,1060.12 1430.64,1060.12 1440.45,1060.12 1450.26,1060.12 1460.08,1060.12 1469.89,1060.12 1479.7,1060.12 1489.52,1060.12 1499.33,1060.12 1509.14,1060.12 
  1518.95,1060.12 1528.77,1060.12 1538.58,1060.12 1548.39,1060.12 1558.21,1060.12 1568.02,1060.12 1577.83,1060.12 1587.64,1060.12 1597.46,1060.12 1607.27,1060.12 
  1617.08,1060.12 1626.9,1060.12 1636.71,1060.12 1646.52,1060.12 1656.33,1060.12 1666.15,1060.12 1675.96,1060.12 1685.77,1060.12 1695.59,1060.12 1705.4,1060.12 
  1715.21,1060.12 1725.03,1060.12 1734.84,1060.12 1744.65,1060.12 1754.46,1060.12 1764.28,1060.12 1774.09,1060.12 1783.9,1060.12 1793.72,1060.12 1803.53,1060.12 
  1813.34,1060.12 1823.15,1060.12 1832.97,1060.12 1842.78,1060.12 1852.59,1060.12 1862.41,1060.12 1872.22,1060.12 1882.03,1060.12 1891.84,1060.12 1901.66,1060.12 
  1911.47,1060.12 1921.28,1060.12 1931.1,1060.12 1940.91,1060.12 1950.72,1060.12 1960.53,1060.12 1970.35,1060.12 1980.16,1060.12 1989.97,1060.12 1999.79,1060.12 
  2009.6,1060.12 2019.41,1060.12 2029.22,1060.12 2039.04,1060.12 2048.85,1060.12 2058.66,1060.12 2068.48,1060.12 2078.29,1060.12 2088.1,1060.12 2097.92,1060.12 
  2107.73,1060.12 2117.54,1060.12 2127.35,1060.12 2137.17,1060.12 2146.98,1060.12 2156.79,1060.12 2166.61,1060.12 2176.42,1060.12 2186.23,1060.12 2196.04,1060.12 
  2205.86,1060.12 2215.67,1060.12 2225.48,1060.12 2235.3,1060.12 2245.11,1060.12 2254.92,1060.12 2264.73,1060.12 2274.55,1060.12 2284.36,1060.12 2294.17,1060.12 
  
  "/>
<polyline clip-path="url(#clip112)" style="stroke:#e26f46; stroke-linecap:butt; stroke-linejoin:round; stroke-width:8; stroke-opacity:0.6; fill:none" points="
  341.407,1060.12 351.22,1060.58 361.033,1061.04 370.846,1061.5 380.659,1061.96 390.472,1062.42 400.285,1062.88 410.098,1063.34 419.911,1063.8 429.723,1064.26 
  439.536,1064.71 449.349,1065.17 459.162,1065.63 468.975,1066.09 478.788,1066.55 488.601,1067.01 498.414,1067.47 508.227,1067.93 518.039,1068.39 527.852,1068.85 
  537.665,1069.31 547.478,1069.77 557.291,1070.23 567.104,1070.69 576.917,1071.15 586.73,1071.61 596.543,1072.07 606.355,1072.53 616.168,1072.99 625.981,1073.45 
  635.794,1073.91 645.607,1074.37 655.42,1074.83 665.233,1075.29 675.046,1075.75 684.859,1076.21 694.671,1076.67 704.484,1077.13 714.297,1077.59 724.11,1078.05 
  733.923,1078.51 743.736,1078.97 753.549,1079.43 763.362,1079.89 773.175,1080.35 782.988,1080.81 792.8,1081.27 802.613,1081.73 812.426,1082.19 822.239,1082.65 
  832.052,1083.11 841.865,1083.57 851.678,1084.03 861.491,1084.49 871.304,1084.95 881.116,1085.41 890.929,1085.87 900.742,1086.33 910.555,1086.79 920.368,1087.24 
  930.181,1087.7 939.994,1088.16 949.807,1088.62 959.62,1089.08 969.432,1089.54 979.245,1090 989.058,1090.46 998.871,1090.92 1008.68,1091.38 1018.5,1091.84 
  1028.31,1092.3 1038.12,1092.76 1047.94,1093.22 1057.75,1093.68 1067.56,1094.14 1077.37,1094.6 1087.19,1095.06 1097,1095.52 1106.81,1095.98 1116.63,1096.44 
  1126.44,1096.9 1136.25,1097.36 1146.06,1097.82 1155.88,1098.28 1165.69,1098.74 1175.5,1099.2 1185.32,1099.66 1195.13,1100.12 1204.94,1100.58 1214.75,1101.04 
  1224.57,1101.5 1234.38,1101.96 1244.19,1102.42 1254.01,1102.88 1263.82,1103.34 1273.63,1103.8 1283.45,1104.26 1293.26,1104.72 1303.07,1105.18 1312.88,1105.64 
  1322.7,1106.1 1332.51,1106.56 1342.32,1107.02 1352.14,1107.48 1361.95,1107.94 1371.76,1108.4 1381.57,1108.86 1391.39,1109.31 1401.2,1109.77 1411.01,1110.23 
  1420.83,1110.69 1430.64,1111.15 1440.45,1111.61 1450.26,1112.07 1460.08,1112.53 1469.89,1112.99 1479.7,1113.45 1489.52,1113.91 1499.33,1114.37 1509.14,1114.83 
  1518.95,1115.29 1528.77,1115.75 1538.58,1116.21 1548.39,1116.67 1558.21,1117.13 1568.02,1117.59 1577.83,1118.05 1587.64,1118.51 1597.46,1118.97 1607.27,1119.43 
  1617.08,1119.89 1626.9,1120.35 1636.71,1120.81 1646.52,1121.27 1656.33,1121.73 1666.15,1122.19 1675.96,1122.65 1685.77,1123.11 1695.59,1123.57 1705.4,1124.03 
  1715.21,1124.49 1725.03,1124.95 1734.84,1125.41 1744.65,1125.87 1754.46,1126.33 1764.28,1126.79 1774.09,1127.25 1783.9,1127.71 1793.72,1128.17 1803.53,1128.63 
  1813.34,1129.09 1823.15,1129.55 1832.97,1130.01 1842.78,1130.47 1852.59,1130.93 1862.41,1131.38 1872.22,1131.84 1882.03,1132.3 1891.84,1132.76 1901.66,1133.22 
  1911.47,1133.68 1921.28,1134.14 1931.1,1134.6 1940.91,1135.06 1950.72,1135.52 1960.53,1135.98 1970.35,1136.44 1980.16,1136.9 1989.97,1137.36 1999.79,1137.82 
  2009.6,1138.28 2019.41,1138.74 2029.22,1139.2 2039.04,1139.66 2048.85,1140.12 2058.66,1140.58 2068.48,1141.04 2078.29,1141.5 2088.1,1141.96 2097.92,1142.42 
  2107.73,1142.88 2117.54,1143.34 2127.35,1143.8 2137.17,1144.26 2146.98,1144.72 2156.79,1145.18 2166.61,1145.64 2176.42,1146.1 2186.23,1146.56 2196.04,1147.02 
  2205.86,1147.48 2215.67,1147.94 2225.48,1148.4 2235.3,1148.86 2245.11,1149.32 2254.92,1149.78 2264.73,1150.24 2274.55,1150.7 2284.36,1151.16 2294.17,1151.62 
  
  "/>
<polyline clip-path="url(#clip112)" style="stroke:#3da44d; stroke-linecap:butt; stroke-linejoin:round; stroke-width:8; stroke-opacity:0.6; fill:none" points="
  341.407,1060.83 351.22,750.122 361.033,832.946 370.846,992.081 380.659,885.848 390.472,904.198 400.285,872.658 410.098,960.836 419.911,945.573 429.723,881.104 
  439.536,906.081 449.349,1126.14 459.162,878.02 468.975,736.285 478.788,894.531 488.601,1202.3 498.414,736.729 508.227,837.9 518.039,1071.29 527.852,635.228 
  537.665,1163.61 547.478,816.792 557.291,803.572 567.104,925.18 576.917,575.344 586.73,920.803 596.543,793.28 606.355,1062.21 616.168,771.051 625.981,1080.59 
  635.794,851.288 645.607,1019.32 655.42,879.175 665.233,856.702 675.046,1138.36 684.859,908.456 694.671,1168.69 704.484,876.182 714.297,1198.39 724.11,868.801 
  733.923,889.175 743.736,726.478 753.549,897.867 763.362,760.44 773.175,1037.83 782.988,844.638 792.8,876.49 802.613,1050.94 812.426,818.345 822.239,1085.04 
  832.052,788.904 841.865,990.761 851.678,840.304 861.491,805.312 871.304,1013.91 881.116,752.603 890.929,780.586 900.742,1154.4 910.555,779.395 920.368,925.308 
  930.181,876.8 939.994,793.331 949.807,776.373 959.62,938.897 969.432,775.214 979.245,565.555 989.058,620.633 998.871,759.343 1008.68,692.852 1018.5,1064.23 
  1028.31,446.37 1038.12,933.522 1047.94,469.756 1057.75,790.864 1067.56,1145.11 1077.37,566.758 1087.19,1175.66 1097,854.37 1106.81,556.447 1116.63,757.699 
  1126.44,893.685 1136.25,550.44 1146.06,1197.8 1155.88,732.385 1165.69,826.046 1175.5,1050.97 1185.32,409.104 1195.13,980.281 1204.94,1060.13 1214.75,813.206 
  1224.57,727.395 1234.38,674.098 1244.19,545.733 1254.01,869.07 1263.82,917 1273.63,600.285 1283.45,943.158 1293.26,304.124 1303.07,884.234 1312.88,1083.86 
  1322.7,625.933 1332.51,519.126 1342.32,1078.15 1352.14,734.77 1361.95,565.607 1371.76,1161.32 1381.57,491.057 1391.39,653.551 1401.2,1083.72 1411.01,196.284 
  1420.83,789.642 1430.64,1160.59 1440.45,240.54 1450.26,1198.01 1460.08,998.574 1469.89,806.11 1479.7,1016.25 1489.52,1076.98 1499.33,907.676 1509.14,644.857 
  1518.95,910.514 1528.77,903.72 1538.58,530.372 1548.39,834.91 1558.21,962.854 1568.02,759.092 1577.83,672.898 1587.64,870.645 1597.46,985.458 1607.27,538.397 
  1617.08,701.576 1626.9,932.909 1636.71,809.13 1646.52,555.493 1656.33,933.329 1666.15,363.161 1675.96,516.151 1685.77,990.055 1695.59,315.716 1705.4,597.666 
  1715.21,1191.92 1725.03,563.462 1734.84,1017.46 1744.65,1139.93 1754.46,1028.29 1764.28,560.255 1774.09,714.442 1783.9,1025.13 1793.72,695.138 1803.53,732.105 
  1813.34,1036.65 1823.15,780.703 1832.97,572.317 1842.78,948.944 1852.59,625.15 1862.41,666.734 1872.22,652.193 1882.03,678.029 1891.84,593.857 1901.66,885.672 
  1911.47,796.667 1921.28,422.002 1931.1,1047.5 1940.91,717.924 1950.72,427.859 1960.53,864.897 1970.35,1079.08 1980.16,669.871 1989.97,824.861 1999.79,1062.99 
  2009.6,292.653 2019.41,764.113 2029.22,794.546 2039.04,926.228 2048.85,701.473 2058.66,667.871 2068.48,915.379 2078.29,1050.93 2088.1,934.814 2097.92,733.687 
  2107.73,697.607 2117.54,728.888 2127.35,527.307 2137.17,444.014 2146.98,879.486 2156.79,767.144 2166.61,637.042 2176.42,1036.09 2186.23,591.326 2196.04,663.205 
  2205.86,1445.72 2215.67,669.759 2225.48,802.555 2235.3,1135.2 2245.11,335.284 2254.92,315.733 2264.73,1184.99 2274.55,810.138 2284.36,87.9763 2294.17,827.926 
  
  "/>
<path clip-path="url(#clip110)" d="
M351.822 1438.47 L1062.25 1438.47 L1062.25 1282.95 L351.822 1282.95  Z
  " fill="#ffffff" fill-rule="evenodd" fill-opacity="1"/>
<polyline clip-path="url(#clip110)" style="stroke:#000000; stroke-linecap:butt; stroke-linejoin:round; stroke-width:4; stroke-opacity:1; fill:none" points="
  351.822,1438.47 1062.25,1438.47 1062.25,1282.95 351.822,1282.95 351.822,1438.47 
  "/>
<polyline clip-path="url(#clip110)" style="stroke:#e26f46; stroke-linecap:butt; stroke-linejoin:round; stroke-width:4; stroke-opacity:0.6; fill:none" points="
  374.821,1334.79 512.817,1334.79 
  "/>
<path clip-path="url(#clip110)" d="M540.098 1348.19 L540.098 1361.94 L535.816 1361.94 L535.816 1326.15 L540.098 1326.15 L540.098 1330.08 Q541.441 1327.77 543.478 1326.66 Q545.538 1325.52 548.385 1325.52 Q553.108 1325.52 556.047 1329.27 Q559.01 1333.02 559.01 1339.13 Q559.01 1345.25 556.047 1349 Q553.108 1352.75 548.385 1352.75 Q545.538 1352.75 543.478 1351.63 Q541.441 1350.5 540.098 1348.19 M554.589 1339.13 Q554.589 1334.44 552.645 1331.77 Q550.723 1329.09 547.344 1329.09 Q543.964 1329.09 542.02 1331.77 Q540.098 1334.44 540.098 1339.13 Q540.098 1343.83 542.02 1346.52 Q543.964 1349.18 547.344 1349.18 Q550.723 1349.18 552.645 1346.52 Q554.589 1343.83 554.589 1339.13 Z" fill="#000000" fill-rule="evenodd" fill-opacity="1" /><path clip-path="url(#clip110)" d="M576.117 1329.13 Q572.691 1329.13 570.7 1331.82 Q568.709 1334.48 568.709 1339.13 Q568.709 1343.79 570.677 1346.47 Q572.668 1349.13 576.117 1349.13 Q579.52 1349.13 581.51 1346.45 Q583.501 1343.76 583.501 1339.13 Q583.501 1334.53 581.51 1331.84 Q579.52 1329.13 576.117 1329.13 M576.117 1325.52 Q581.672 1325.52 584.844 1329.13 Q588.015 1332.75 588.015 1339.13 Q588.015 1345.5 584.844 1349.13 Q581.672 1352.75 576.117 1352.75 Q570.538 1352.75 567.367 1349.13 Q564.219 1345.5 564.219 1339.13 Q564.219 1332.75 567.367 1329.13 Q570.538 1325.52 576.117 1325.52 Z" fill="#000000" fill-rule="evenodd" fill-opacity="1" /><path clip-path="url(#clip110)" d="M595.075 1316.06 L599.334 1316.06 L599.334 1352.07 L595.075 1352.07 L595.075 1316.06 Z" fill="#000000" fill-rule="evenodd" fill-opacity="1" /><path clip-path="url(#clip110)" d="M608.246 1326.15 L612.505 1326.15 L612.505 1352.07 L608.246 1352.07 L608.246 1326.15 M608.246 1316.06 L612.505 1316.06 L612.505 1321.45 L608.246 1321.45 L608.246 1316.06 Z" fill="#000000" fill-rule="evenodd" fill-opacity="1" /><path clip-path="url(#clip110)" d="M640.075 1327.14 L640.075 1331.13 Q638.269 1330.13 636.44 1329.64 Q634.635 1329.13 632.783 1329.13 Q628.64 1329.13 626.348 1331.77 Q624.056 1334.39 624.056 1339.13 Q624.056 1343.88 626.348 1346.52 Q628.64 1349.13 632.783 1349.13 Q634.635 1349.13 636.44 1348.65 Q638.269 1348.14 640.075 1347.14 L640.075 1351.08 Q638.292 1351.91 636.371 1352.33 Q634.473 1352.75 632.32 1352.75 Q626.464 1352.75 623.015 1349.07 Q619.566 1345.38 619.566 1339.13 Q619.566 1332.79 623.038 1329.16 Q626.533 1325.52 632.598 1325.52 Q634.566 1325.52 636.44 1325.94 Q638.315 1326.33 640.075 1327.14 Z" fill="#000000" fill-rule="evenodd" fill-opacity="1" /><path clip-path="url(#clip110)" d="M658.269 1354.48 Q656.464 1359.11 654.751 1360.52 Q653.038 1361.94 650.167 1361.94 L646.765 1361.94 L646.765 1358.37 L649.265 1358.37 Q651.024 1358.37 651.996 1357.54 Q652.968 1356.7 654.149 1353.6 L654.913 1351.66 L644.427 1326.15 L648.94 1326.15 L657.042 1346.43 L665.144 1326.15 L669.658 1326.15 L658.269 1354.48 Z" fill="#000000" fill-rule="evenodd" fill-opacity="1" /><path clip-path="url(#clip110)" d="M690.607 1326.15 L694.866 1326.15 L694.866 1352.07 L690.607 1352.07 L690.607 1326.15 M690.607 1316.06 L694.866 1316.06 L694.866 1321.45 L690.607 1321.45 L690.607 1316.06 Z" fill="#000000" fill-rule="evenodd" fill-opacity="1" /><path clip-path="url(#clip110)" d="M707.991 1318.79 L707.991 1326.15 L716.764 1326.15 L716.764 1329.46 L707.991 1329.46 L707.991 1343.53 Q707.991 1346.7 708.848 1347.61 Q709.727 1348.51 712.389 1348.51 L716.764 1348.51 L716.764 1352.07 L712.389 1352.07 Q707.459 1352.07 705.584 1350.25 Q703.709 1348.39 703.709 1343.53 L703.709 1329.46 L700.584 1329.46 L700.584 1326.15 L703.709 1326.15 L703.709 1318.79 L707.991 1318.79 Z" fill="#000000" fill-rule="evenodd" fill-opacity="1" /><path clip-path="url(#clip110)" d="M744.542 1338.05 L744.542 1340.13 L724.959 1340.13 Q725.236 1344.53 727.597 1346.84 Q729.982 1349.13 734.218 1349.13 Q736.671 1349.13 738.963 1348.53 Q741.278 1347.93 743.546 1346.73 L743.546 1350.75 Q741.255 1351.73 738.847 1352.24 Q736.44 1352.75 733.963 1352.75 Q727.759 1352.75 724.125 1349.13 Q720.514 1345.52 720.514 1339.37 Q720.514 1333 723.94 1329.27 Q727.389 1325.52 733.222 1325.52 Q738.454 1325.52 741.486 1328.9 Q744.542 1332.26 744.542 1338.05 M740.283 1336.8 Q740.236 1333.3 738.315 1331.22 Q736.417 1329.13 733.269 1329.13 Q729.704 1329.13 727.551 1331.15 Q725.422 1333.16 725.097 1336.82 L740.283 1336.8 Z" fill="#000000" fill-rule="evenodd" fill-opacity="1" /><path clip-path="url(#clip110)" d="M766.556 1330.13 Q765.838 1329.71 764.981 1329.53 Q764.148 1329.32 763.13 1329.32 Q759.519 1329.32 757.574 1331.68 Q755.653 1334.02 755.653 1338.42 L755.653 1352.07 L751.37 1352.07 L751.37 1326.15 L755.653 1326.15 L755.653 1330.18 Q756.995 1327.82 759.148 1326.68 Q761.301 1325.52 764.38 1325.52 Q764.819 1325.52 765.352 1325.59 Q765.884 1325.64 766.532 1325.76 L766.556 1330.13 Z" fill="#000000" fill-rule="evenodd" fill-opacity="1" /><path clip-path="url(#clip110)" d="M782.805 1339.04 Q777.643 1339.04 775.653 1340.22 Q773.662 1341.4 773.662 1344.25 Q773.662 1346.52 775.143 1347.86 Q776.648 1349.18 779.218 1349.18 Q782.759 1349.18 784.889 1346.68 Q787.042 1344.16 787.042 1339.99 L787.042 1339.04 L782.805 1339.04 M791.301 1337.28 L791.301 1352.07 L787.042 1352.07 L787.042 1348.14 Q785.583 1350.5 783.407 1351.63 Q781.231 1352.75 778.083 1352.75 Q774.102 1352.75 771.741 1350.52 Q769.403 1348.28 769.403 1344.53 Q769.403 1340.15 772.319 1337.93 Q775.259 1335.71 781.069 1335.71 L787.042 1335.71 L787.042 1335.29 Q787.042 1332.35 785.097 1330.76 Q783.176 1329.13 779.68 1329.13 Q777.458 1329.13 775.352 1329.67 Q773.245 1330.2 771.301 1331.26 L771.301 1327.33 Q773.639 1326.43 775.838 1325.99 Q778.037 1325.52 780.12 1325.52 Q785.745 1325.52 788.523 1328.44 Q791.301 1331.36 791.301 1337.28 Z" fill="#000000" fill-rule="evenodd" fill-opacity="1" /><path clip-path="url(#clip110)" d="M804.287 1318.79 L804.287 1326.15 L813.06 1326.15 L813.06 1329.46 L804.287 1329.46 L804.287 1343.53 Q804.287 1346.7 805.143 1347.61 Q806.023 1348.51 808.685 1348.51 L813.06 1348.51 L813.06 1352.07 L808.685 1352.07 Q803.754 1352.07 801.879 1350.25 Q800.004 1348.39 800.004 1343.53 L800.004 1329.46 L796.879 1329.46 L796.879 1326.15 L800.004 1326.15 L800.004 1318.79 L804.287 1318.79 Z" fill="#000000" fill-rule="evenodd" fill-opacity="1" /><path clip-path="url(#clip110)" d="M818.662 1326.15 L822.921 1326.15 L822.921 1352.07 L818.662 1352.07 L818.662 1326.15 M818.662 1316.06 L822.921 1316.06 L822.921 1321.45 L818.662 1321.45 L818.662 1316.06 Z" fill="#000000" fill-rule="evenodd" fill-opacity="1" /><path clip-path="url(#clip110)" d="M841.879 1329.13 Q838.453 1329.13 836.463 1331.82 Q834.472 1334.48 834.472 1339.13 Q834.472 1343.79 836.439 1346.47 Q838.43 1349.13 841.879 1349.13 Q845.282 1349.13 847.273 1346.45 Q849.263 1343.76 849.263 1339.13 Q849.263 1334.53 847.273 1331.84 Q845.282 1329.13 841.879 1329.13 M841.879 1325.52 Q847.435 1325.52 850.606 1329.13 Q853.777 1332.75 853.777 1339.13 Q853.777 1345.5 850.606 1349.13 Q847.435 1352.75 841.879 1352.75 Q836.301 1352.75 833.129 1349.13 Q829.981 1345.5 829.981 1339.13 Q829.981 1332.75 833.129 1329.13 Q836.301 1325.52 841.879 1325.52 Z" fill="#000000" fill-rule="evenodd" fill-opacity="1" /><path clip-path="url(#clip110)" d="M882.388 1336.43 L882.388 1352.07 L878.129 1352.07 L878.129 1336.57 Q878.129 1332.88 876.694 1331.06 Q875.259 1329.23 872.388 1329.23 Q868.939 1329.23 866.949 1331.43 Q864.958 1333.63 864.958 1337.42 L864.958 1352.07 L860.675 1352.07 L860.675 1326.15 L864.958 1326.15 L864.958 1330.18 Q866.486 1327.84 868.546 1326.68 Q870.629 1325.52 873.337 1325.52 Q877.805 1325.52 880.097 1328.3 Q882.388 1331.06 882.388 1336.43 Z" fill="#000000" fill-rule="evenodd" fill-opacity="1" /><path clip-path="url(#clip110)" d="M928.129 1338.05 L928.129 1340.13 L908.546 1340.13 Q908.823 1344.53 911.184 1346.84 Q913.569 1349.13 917.805 1349.13 Q920.258 1349.13 922.55 1348.53 Q924.865 1347.93 927.133 1346.73 L927.133 1350.75 Q924.842 1351.73 922.434 1352.24 Q920.027 1352.75 917.55 1352.75 Q911.346 1352.75 907.712 1349.13 Q904.101 1345.52 904.101 1339.37 Q904.101 1333 907.527 1329.27 Q910.976 1325.52 916.809 1325.52 Q922.041 1325.52 925.073 1328.9 Q928.129 1332.26 928.129 1338.05 M923.87 1336.8 Q923.823 1333.3 921.902 1331.22 Q920.004 1329.13 916.856 1329.13 Q913.291 1329.13 911.138 1331.15 Q909.008 1333.16 908.684 1336.82 L923.87 1336.8 Z" fill="#000000" fill-rule="evenodd" fill-opacity="1" /><path clip-path="url(#clip110)" d="M950.143 1330.13 Q949.425 1329.71 948.568 1329.53 Q947.735 1329.32 946.717 1329.32 Q943.106 1329.32 941.161 1331.68 Q939.24 1334.02 939.24 1338.42 L939.24 1352.07 L934.957 1352.07 L934.957 1326.15 L939.24 1326.15 L939.24 1330.18 Q940.582 1327.82 942.735 1326.68 Q944.888 1325.52 947.967 1325.52 Q948.406 1325.52 948.939 1325.59 Q949.471 1325.64 950.119 1325.76 L950.143 1330.13 Z" fill="#000000" fill-rule="evenodd" fill-opacity="1" /><path clip-path="url(#clip110)" d="M968.8 1330.13 Q968.082 1329.71 967.226 1329.53 Q966.392 1329.32 965.374 1329.32 Q961.763 1329.32 959.818 1331.68 Q957.897 1334.02 957.897 1338.42 L957.897 1352.07 L953.615 1352.07 L953.615 1326.15 L957.897 1326.15 L957.897 1330.18 Q959.24 1327.82 961.392 1326.68 Q963.545 1325.52 966.624 1325.52 Q967.064 1325.52 967.596 1325.59 Q968.129 1325.64 968.777 1325.76 L968.8 1330.13 Z" fill="#000000" fill-rule="evenodd" fill-opacity="1" /><path clip-path="url(#clip110)" d="M982.272 1329.13 Q978.846 1329.13 976.855 1331.82 Q974.865 1334.48 974.865 1339.13 Q974.865 1343.79 976.832 1346.47 Q978.823 1349.13 982.272 1349.13 Q985.675 1349.13 987.665 1346.45 Q989.656 1343.76 989.656 1339.13 Q989.656 1334.53 987.665 1331.84 Q985.675 1329.13 982.272 1329.13 M982.272 1325.52 Q987.828 1325.52 990.999 1329.13 Q994.17 1332.75 994.17 1339.13 Q994.17 1345.5 990.999 1349.13 Q987.828 1352.75 982.272 1352.75 Q976.693 1352.75 973.522 1349.13 Q970.374 1345.5 970.374 1339.13 Q970.374 1332.75 973.522 1329.13 Q976.693 1325.52 982.272 1325.52 Z" fill="#000000" fill-rule="evenodd" fill-opacity="1" /><path clip-path="url(#clip110)" d="M1016.25 1330.13 Q1015.54 1329.71 1014.68 1329.53 Q1013.85 1329.32 1012.83 1329.32 Q1009.22 1329.32 1007.27 1331.68 Q1005.35 1334.02 1005.35 1338.42 L1005.35 1352.07 L1001.07 1352.07 L1001.07 1326.15 L1005.35 1326.15 L1005.35 1330.18 Q1006.69 1327.82 1008.85 1326.68 Q1011 1325.52 1014.08 1325.52 Q1014.52 1325.52 1015.05 1325.59 Q1015.58 1325.64 1016.23 1325.76 L1016.25 1330.13 Z" fill="#000000" fill-rule="evenodd" fill-opacity="1" /><polyline clip-path="url(#clip110)" style="stroke:#3da44d; stroke-linecap:butt; stroke-linejoin:round; stroke-width:4; stroke-opacity:0.6; fill:none" points="
  374.821,1386.63 512.817,1386.63 
  "/>
<path clip-path="url(#clip110)" d="M535.816 1377.99 L540.33 1377.99 L548.432 1399.75 L556.534 1377.99 L561.047 1377.99 L551.325 1403.91 L545.538 1403.91 L535.816 1377.99 Z" fill="#000000" fill-rule="evenodd" fill-opacity="1" /><path clip-path="url(#clip110)" d="M578.709 1390.88 Q573.547 1390.88 571.557 1392.06 Q569.566 1393.24 569.566 1396.09 Q569.566 1398.36 571.047 1399.7 Q572.552 1401.02 575.121 1401.02 Q578.663 1401.02 580.793 1398.52 Q582.945 1396 582.945 1391.83 L582.945 1390.88 L578.709 1390.88 M587.205 1389.12 L587.205 1403.91 L582.945 1403.91 L582.945 1399.98 Q581.487 1402.34 579.311 1403.47 Q577.135 1404.59 573.987 1404.59 Q570.006 1404.59 567.645 1402.36 Q565.307 1400.12 565.307 1396.37 Q565.307 1391.99 568.223 1389.77 Q571.163 1387.55 576.973 1387.55 L582.945 1387.55 L582.945 1387.13 Q582.945 1384.19 581.001 1382.6 Q579.08 1380.97 575.584 1380.97 Q573.362 1380.97 571.256 1381.51 Q569.149 1382.04 567.205 1383.1 L567.205 1379.17 Q569.543 1378.27 571.742 1377.83 Q573.941 1377.36 576.024 1377.36 Q581.649 1377.36 584.427 1380.28 Q587.205 1383.2 587.205 1389.12 Z" fill="#000000" fill-rule="evenodd" fill-opacity="1" /><path clip-path="url(#clip110)" d="M595.978 1367.9 L600.237 1367.9 L600.237 1403.91 L595.978 1403.91 L595.978 1367.9 Z" fill="#000000" fill-rule="evenodd" fill-opacity="1" /><path clip-path="url(#clip110)" d="M608.709 1393.68 L608.709 1377.99 L612.968 1377.99 L612.968 1393.52 Q612.968 1397.2 614.404 1399.05 Q615.839 1400.88 618.709 1400.88 Q622.158 1400.88 624.149 1398.68 Q626.163 1396.48 626.163 1392.69 L626.163 1377.99 L630.422 1377.99 L630.422 1403.91 L626.163 1403.91 L626.163 1399.93 Q624.612 1402.29 622.552 1403.45 Q620.515 1404.59 617.806 1404.59 Q613.339 1404.59 611.024 1401.81 Q608.709 1399.03 608.709 1393.68 M619.427 1377.36 L619.427 1377.36 Z" fill="#000000" fill-rule="evenodd" fill-opacity="1" /><path clip-path="url(#clip110)" d="M661.371 1389.89 L661.371 1391.97 L641.788 1391.97 Q642.065 1396.37 644.427 1398.68 Q646.811 1400.97 651.047 1400.97 Q653.501 1400.97 655.792 1400.37 Q658.107 1399.77 660.376 1398.57 L660.376 1402.59 Q658.084 1403.57 655.677 1404.08 Q653.269 1404.59 650.792 1404.59 Q644.589 1404.59 640.954 1400.97 Q637.343 1397.36 637.343 1391.21 Q637.343 1384.84 640.769 1381.11 Q644.218 1377.36 650.052 1377.36 Q655.283 1377.36 658.315 1380.74 Q661.371 1384.1 661.371 1389.89 M657.112 1388.64 Q657.065 1385.14 655.144 1383.06 Q653.246 1380.97 650.098 1380.97 Q646.533 1380.97 644.38 1382.99 Q642.251 1385 641.927 1388.66 L657.112 1388.64 Z" fill="#000000" fill-rule="evenodd" fill-opacity="1" /><path clip-path="url(#clip110)" d="M683.431 1377.99 L687.69 1377.99 L687.69 1403.91 L683.431 1403.91 L683.431 1377.99 M683.431 1367.9 L687.69 1367.9 L687.69 1373.29 L683.431 1373.29 L683.431 1367.9 Z" fill="#000000" fill-rule="evenodd" fill-opacity="1" /><path clip-path="url(#clip110)" d="M700.815 1370.63 L700.815 1377.99 L709.588 1377.99 L709.588 1381.3 L700.815 1381.3 L700.815 1395.37 Q700.815 1398.54 701.672 1399.45 Q702.551 1400.35 705.213 1400.35 L709.588 1400.35 L709.588 1403.91 L705.213 1403.91 Q700.283 1403.91 698.408 1402.09 Q696.533 1400.23 696.533 1395.37 L696.533 1381.3 L693.408 1381.3 L693.408 1377.99 L696.533 1377.99 L696.533 1370.63 L700.815 1370.63 Z" fill="#000000" fill-rule="evenodd" fill-opacity="1" /><path clip-path="url(#clip110)" d="M737.366 1389.89 L737.366 1391.97 L717.783 1391.97 Q718.06 1396.37 720.422 1398.68 Q722.806 1400.97 727.042 1400.97 Q729.496 1400.97 731.787 1400.37 Q734.102 1399.77 736.371 1398.57 L736.371 1402.59 Q734.079 1403.57 731.671 1404.08 Q729.264 1404.59 726.787 1404.59 Q720.584 1404.59 716.949 1400.97 Q713.338 1397.36 713.338 1391.21 Q713.338 1384.84 716.764 1381.11 Q720.213 1377.36 726.046 1377.36 Q731.278 1377.36 734.31 1380.74 Q737.366 1384.1 737.366 1389.89 M733.107 1388.64 Q733.06 1385.14 731.139 1383.06 Q729.241 1380.97 726.093 1380.97 Q722.528 1380.97 720.375 1382.99 Q718.246 1385 717.922 1388.66 L733.107 1388.64 Z" fill="#000000" fill-rule="evenodd" fill-opacity="1" /><path clip-path="url(#clip110)" d="M759.38 1381.97 Q758.662 1381.55 757.806 1381.37 Q756.972 1381.16 755.954 1381.16 Q752.343 1381.16 750.398 1383.52 Q748.477 1385.86 748.477 1390.26 L748.477 1403.91 L744.195 1403.91 L744.195 1377.99 L748.477 1377.99 L748.477 1382.02 Q749.82 1379.66 751.972 1378.52 Q754.125 1377.36 757.204 1377.36 Q757.644 1377.36 758.176 1377.43 Q758.708 1377.48 759.357 1377.6 L759.38 1381.97 Z" fill="#000000" fill-rule="evenodd" fill-opacity="1" /><path clip-path="url(#clip110)" d="M775.63 1390.88 Q770.468 1390.88 768.477 1392.06 Q766.486 1393.24 766.486 1396.09 Q766.486 1398.36 767.968 1399.7 Q769.472 1401.02 772.042 1401.02 Q775.583 1401.02 777.713 1398.52 Q779.866 1396 779.866 1391.83 L779.866 1390.88 L775.63 1390.88 M784.125 1389.12 L784.125 1403.91 L779.866 1403.91 L779.866 1399.98 Q778.407 1402.34 776.231 1403.47 Q774.056 1404.59 770.907 1404.59 Q766.926 1404.59 764.565 1402.36 Q762.227 1400.12 762.227 1396.37 Q762.227 1391.99 765.144 1389.77 Q768.083 1387.55 773.893 1387.55 L779.866 1387.55 L779.866 1387.13 Q779.866 1384.19 777.921 1382.6 Q776 1380.97 772.505 1380.97 Q770.282 1380.97 768.176 1381.51 Q766.069 1382.04 764.125 1383.1 L764.125 1379.17 Q766.463 1378.27 768.662 1377.83 Q770.861 1377.36 772.944 1377.36 Q778.569 1377.36 781.347 1380.28 Q784.125 1383.2 784.125 1389.12 Z" fill="#000000" fill-rule="evenodd" fill-opacity="1" /><path clip-path="url(#clip110)" d="M797.111 1370.63 L797.111 1377.99 L805.884 1377.99 L805.884 1381.3 L797.111 1381.3 L797.111 1395.37 Q797.111 1398.54 797.967 1399.45 Q798.847 1400.35 801.509 1400.35 L805.884 1400.35 L805.884 1403.91 L801.509 1403.91 Q796.579 1403.91 794.704 1402.09 Q792.829 1400.23 792.829 1395.37 L792.829 1381.3 L789.704 1381.3 L789.704 1377.99 L792.829 1377.99 L792.829 1370.63 L797.111 1370.63 Z" fill="#000000" fill-rule="evenodd" fill-opacity="1" /><path clip-path="url(#clip110)" d="M811.486 1377.99 L815.745 1377.99 L815.745 1403.91 L811.486 1403.91 L811.486 1377.99 M811.486 1367.9 L815.745 1367.9 L815.745 1373.29 L811.486 1373.29 L811.486 1367.9 Z" fill="#000000" fill-rule="evenodd" fill-opacity="1" /><path clip-path="url(#clip110)" d="M834.703 1380.97 Q831.277 1380.97 829.287 1383.66 Q827.296 1386.32 827.296 1390.97 Q827.296 1395.63 829.264 1398.31 Q831.254 1400.97 834.703 1400.97 Q838.106 1400.97 840.097 1398.29 Q842.088 1395.6 842.088 1390.97 Q842.088 1386.37 840.097 1383.68 Q838.106 1380.97 834.703 1380.97 M834.703 1377.36 Q840.259 1377.36 843.43 1380.97 Q846.601 1384.59 846.601 1390.97 Q846.601 1397.34 843.43 1400.97 Q840.259 1404.59 834.703 1404.59 Q829.125 1404.59 825.953 1400.97 Q822.805 1397.34 822.805 1390.97 Q822.805 1384.59 825.953 1380.97 Q829.125 1377.36 834.703 1377.36 Z" fill="#000000" fill-rule="evenodd" fill-opacity="1" /><path clip-path="url(#clip110)" d="M875.212 1388.27 L875.212 1403.91 L870.953 1403.91 L870.953 1388.41 Q870.953 1384.72 869.518 1382.9 Q868.083 1381.07 865.212 1381.07 Q861.763 1381.07 859.773 1383.27 Q857.782 1385.47 857.782 1389.26 L857.782 1403.91 L853.5 1403.91 L853.5 1377.99 L857.782 1377.99 L857.782 1382.02 Q859.31 1379.68 861.37 1378.52 Q863.453 1377.36 866.161 1377.36 Q870.629 1377.36 872.921 1380.14 Q875.212 1382.9 875.212 1388.27 Z" fill="#000000" fill-rule="evenodd" fill-opacity="1" /><path clip-path="url(#clip110)" d="M920.953 1389.89 L920.953 1391.97 L901.37 1391.97 Q901.647 1396.37 904.009 1398.68 Q906.393 1400.97 910.629 1400.97 Q913.083 1400.97 915.374 1400.37 Q917.689 1399.77 919.957 1398.57 L919.957 1402.59 Q917.666 1403.57 915.258 1404.08 Q912.851 1404.59 910.374 1404.59 Q904.171 1404.59 900.536 1400.97 Q896.925 1397.36 896.925 1391.21 Q896.925 1384.84 900.351 1381.11 Q903.8 1377.36 909.633 1377.36 Q914.865 1377.36 917.897 1380.74 Q920.953 1384.1 920.953 1389.89 M916.694 1388.64 Q916.647 1385.14 914.726 1383.06 Q912.828 1380.97 909.68 1380.97 Q906.115 1380.97 903.962 1382.99 Q901.833 1385 901.509 1388.66 L916.694 1388.64 Z" fill="#000000" fill-rule="evenodd" fill-opacity="1" /><path clip-path="url(#clip110)" d="M942.967 1381.97 Q942.249 1381.55 941.393 1381.37 Q940.559 1381.16 939.541 1381.16 Q935.93 1381.16 933.985 1383.52 Q932.064 1385.86 932.064 1390.26 L932.064 1403.91 L927.782 1403.91 L927.782 1377.99 L932.064 1377.99 L932.064 1382.02 Q933.406 1379.66 935.559 1378.52 Q937.712 1377.36 940.791 1377.36 Q941.231 1377.36 941.763 1377.43 Q942.295 1377.48 942.943 1377.6 L942.967 1381.97 Z" fill="#000000" fill-rule="evenodd" fill-opacity="1" /><path clip-path="url(#clip110)" d="M961.624 1381.97 Q960.906 1381.55 960.05 1381.37 Q959.217 1381.16 958.198 1381.16 Q954.587 1381.16 952.643 1383.52 Q950.721 1385.86 950.721 1390.26 L950.721 1403.91 L946.439 1403.91 L946.439 1377.99 L950.721 1377.99 L950.721 1382.02 Q952.064 1379.66 954.217 1378.52 Q956.369 1377.36 959.448 1377.36 Q959.888 1377.36 960.42 1377.43 Q960.953 1377.48 961.601 1377.6 L961.624 1381.97 Z" fill="#000000" fill-rule="evenodd" fill-opacity="1" /><path clip-path="url(#clip110)" d="M975.096 1380.97 Q971.67 1380.97 969.679 1383.66 Q967.689 1386.32 967.689 1390.97 Q967.689 1395.63 969.656 1398.31 Q971.647 1400.97 975.096 1400.97 Q978.499 1400.97 980.49 1398.29 Q982.48 1395.6 982.48 1390.97 Q982.48 1386.37 980.49 1383.68 Q978.499 1380.97 975.096 1380.97 M975.096 1377.36 Q980.652 1377.36 983.823 1380.97 Q986.994 1384.59 986.994 1390.97 Q986.994 1397.34 983.823 1400.97 Q980.652 1404.59 975.096 1404.59 Q969.517 1404.59 966.346 1400.97 Q963.198 1397.34 963.198 1390.97 Q963.198 1384.59 966.346 1380.97 Q969.517 1377.36 975.096 1377.36 Z" fill="#000000" fill-rule="evenodd" fill-opacity="1" /><path clip-path="url(#clip110)" d="M1009.08 1381.97 Q1008.36 1381.55 1007.5 1381.37 Q1006.67 1381.16 1005.65 1381.16 Q1002.04 1381.16 1000.1 1383.52 Q998.175 1385.86 998.175 1390.26 L998.175 1403.91 L993.892 1403.91 L993.892 1377.99 L998.175 1377.99 L998.175 1382.02 Q999.517 1379.66 1001.67 1378.52 Q1003.82 1377.36 1006.9 1377.36 Q1007.34 1377.36 1007.87 1377.43 Q1008.41 1377.48 1009.05 1377.6 L1009.08 1381.97 Z" fill="#000000" fill-rule="evenodd" fill-opacity="1" /></svg>
