<?xml version="1.0" encoding="utf-8"?>
<svg xmlns="http://www.w3.org/2000/svg" xmlns:xlink="http://www.w3.org/1999/xlink" width="600" height="400" viewBox="0 0 2400 1600">
<defs>
  <clipPath id="clip760">
    <rect x="0" y="0" width="2400" height="1600"/>
  </clipPath>
</defs>
<path clip-path="url(#clip760)" d="
M0 1600 L2400 1600 L2400 0 L0 0  Z
  " fill="#ffffff" fill-rule="evenodd" fill-opacity="1"/>
<defs>
  <clipPath id="clip761">
    <rect x="480" y="0" width="1681" height="1600"/>
  </clipPath>
</defs>
<path clip-path="url(#clip760)" d="
M250.028 1423.18 L2352.76 1423.18 L2352.76 123.472 L250.028 123.472  Z
  " fill="#ffffff" fill-rule="evenodd" fill-opacity="1"/>
<defs>
  <clipPath id="clip762">
    <rect x="250" y="123" width="2104" height="1301"/>
  </clipPath>
</defs>
<polyline clip-path="url(#clip762)" style="stroke:#000000; stroke-linecap:round; stroke-linejoin:round; stroke-width:2; stroke-opacity:0.1; fill:none" points="
  250.028,1423.18 250.028,123.472 
  "/>
<polyline clip-path="url(#clip762)" style="stroke:#000000; stroke-linecap:round; stroke-linejoin:round; stroke-width:2; stroke-opacity:0.1; fill:none" points="
  632.342,1423.18 632.342,123.472 
  "/>
<polyline clip-path="url(#clip762)" style="stroke:#000000; stroke-linecap:round; stroke-linejoin:round; stroke-width:2; stroke-opacity:0.1; fill:none" points="
  1014.66,1423.18 1014.66,123.472 
  "/>
<polyline clip-path="url(#clip762)" style="stroke:#000000; stroke-linecap:round; stroke-linejoin:round; stroke-width:2; stroke-opacity:0.1; fill:none" points="
  1396.97,1423.18 1396.97,123.472 
  "/>
<polyline clip-path="url(#clip762)" style="stroke:#000000; stroke-linecap:round; stroke-linejoin:round; stroke-width:2; stroke-opacity:0.1; fill:none" points="
  1779.28,1423.18 1779.28,123.472 
  "/>
<polyline clip-path="url(#clip762)" style="stroke:#000000; stroke-linecap:round; stroke-linejoin:round; stroke-width:2; stroke-opacity:0.1; fill:none" points="
  2161.6,1423.18 2161.6,123.472 
  "/>
<polyline clip-path="url(#clip760)" style="stroke:#000000; stroke-linecap:round; stroke-linejoin:round; stroke-width:4; stroke-opacity:1; fill:none" points="
  250.028,1423.18 2352.76,1423.18 
  "/>
<polyline clip-path="url(#clip760)" style="stroke:#000000; stroke-linecap:round; stroke-linejoin:round; stroke-width:4; stroke-opacity:1; fill:none" points="
  250.028,1423.18 250.028,1404.28 
  "/>
<polyline clip-path="url(#clip760)" style="stroke:#000000; stroke-linecap:round; stroke-linejoin:round; stroke-width:4; stroke-opacity:1; fill:none" points="
  632.342,1423.18 632.342,1404.28 
  "/>
<polyline clip-path="url(#clip760)" style="stroke:#000000; stroke-linecap:round; stroke-linejoin:round; stroke-width:4; stroke-opacity:1; fill:none" points="
  1014.66,1423.18 1014.66,1404.28 
  "/>
<polyline clip-path="url(#clip760)" style="stroke:#000000; stroke-linecap:round; stroke-linejoin:round; stroke-width:4; stroke-opacity:1; fill:none" points="
  1396.97,1423.18 1396.97,1404.28 
  "/>
<polyline clip-path="url(#clip760)" style="stroke:#000000; stroke-linecap:round; stroke-linejoin:round; stroke-width:4; stroke-opacity:1; fill:none" points="
  1779.28,1423.18 1779.28,1404.28 
  "/>
<polyline clip-path="url(#clip760)" style="stroke:#000000; stroke-linecap:round; stroke-linejoin:round; stroke-width:4; stroke-opacity:1; fill:none" points="
  2161.6,1423.18 2161.6,1404.28 
  "/>
<path clip-path="url(#clip760)" d="M250.028 1454.1 Q246.417 1454.1 244.588 1457.66 Q242.783 1461.2 242.783 1468.33 Q242.783 1475.44 244.588 1479.01 Q246.417 1482.55 250.028 1482.55 Q253.662 1482.55 255.468 1479.01 Q257.297 1475.44 257.297 1468.33 Q257.297 1461.2 255.468 1457.66 Q253.662 1454.1 250.028 1454.1 M250.028 1450.39 Q255.838 1450.39 258.894 1455 Q261.973 1459.58 261.973 1468.33 Q261.973 1477.06 258.894 1481.67 Q255.838 1486.25 250.028 1486.25 Q244.218 1486.25 241.139 1481.67 Q238.084 1477.06 238.084 1468.33 Q238.084 1459.58 241.139 1455 Q244.218 1450.39 250.028 1450.39 Z" fill="#000000" fill-rule="evenodd" fill-opacity="1" /><path clip-path="url(#clip760)" d="M591.949 1481.64 L599.588 1481.64 L599.588 1455.28 L591.278 1456.95 L591.278 1452.69 L599.542 1451.02 L604.217 1451.02 L604.217 1481.64 L611.856 1481.64 L611.856 1485.58 L591.949 1485.58 L591.949 1481.64 Z" fill="#000000" fill-rule="evenodd" fill-opacity="1" /><path clip-path="url(#clip760)" d="M631.301 1454.1 Q627.69 1454.1 625.861 1457.66 Q624.055 1461.2 624.055 1468.33 Q624.055 1475.44 625.861 1479.01 Q627.69 1482.55 631.301 1482.55 Q634.935 1482.55 636.74 1479.01 Q638.569 1475.44 638.569 1468.33 Q638.569 1461.2 636.74 1457.66 Q634.935 1454.1 631.301 1454.1 M631.301 1450.39 Q637.111 1450.39 640.166 1455 Q643.245 1459.58 643.245 1468.33 Q643.245 1477.06 640.166 1481.67 Q637.111 1486.25 631.301 1486.25 Q625.49 1486.25 622.412 1481.67 Q619.356 1477.06 619.356 1468.33 Q619.356 1459.58 622.412 1455 Q625.49 1450.39 631.301 1450.39 Z" fill="#000000" fill-rule="evenodd" fill-opacity="1" /><path clip-path="url(#clip760)" d="M661.462 1454.1 Q657.851 1454.1 656.023 1457.66 Q654.217 1461.2 654.217 1468.33 Q654.217 1475.44 656.023 1479.01 Q657.851 1482.55 661.462 1482.55 Q665.097 1482.55 666.902 1479.01 Q668.731 1475.44 668.731 1468.33 Q668.731 1461.2 666.902 1457.66 Q665.097 1454.1 661.462 1454.1 M661.462 1450.39 Q667.273 1450.39 670.328 1455 Q673.407 1459.58 673.407 1468.33 Q673.407 1477.06 670.328 1481.67 Q667.273 1486.25 661.462 1486.25 Q655.652 1486.25 652.574 1481.67 Q649.518 1477.06 649.518 1468.33 Q649.518 1459.58 652.574 1455 Q655.652 1450.39 661.462 1450.39 Z" fill="#000000" fill-rule="evenodd" fill-opacity="1" /><path clip-path="url(#clip760)" d="M978.349 1481.64 L994.668 1481.64 L994.668 1485.58 L972.724 1485.58 L972.724 1481.64 Q975.386 1478.89 979.969 1474.26 Q984.576 1469.61 985.756 1468.27 Q988.001 1465.74 988.881 1464.01 Q989.784 1462.25 989.784 1460.56 Q989.784 1457.8 987.839 1456.07 Q985.918 1454.33 982.816 1454.33 Q980.617 1454.33 978.164 1455.09 Q975.733 1455.86 972.955 1457.41 L972.955 1452.69 Q975.779 1451.55 978.233 1450.97 Q980.687 1450.39 982.724 1450.39 Q988.094 1450.39 991.288 1453.08 Q994.483 1455.77 994.483 1460.26 Q994.483 1462.39 993.673 1464.31 Q992.886 1466.2 990.779 1468.8 Q990.201 1469.47 987.099 1472.69 Q983.997 1475.88 978.349 1481.64 Z" fill="#000000" fill-rule="evenodd" fill-opacity="1" /><path clip-path="url(#clip760)" d="M1014.48 1454.1 Q1010.87 1454.1 1009.04 1457.66 Q1007.24 1461.2 1007.24 1468.33 Q1007.24 1475.44 1009.04 1479.01 Q1010.87 1482.55 1014.48 1482.55 Q1018.12 1482.55 1019.92 1479.01 Q1021.75 1475.44 1021.75 1468.33 Q1021.75 1461.2 1019.92 1457.66 Q1018.12 1454.1 1014.48 1454.1 M1014.48 1450.39 Q1020.29 1450.39 1023.35 1455 Q1026.43 1459.58 1026.43 1468.33 Q1026.43 1477.06 1023.35 1481.67 Q1020.29 1486.25 1014.48 1486.25 Q1008.67 1486.25 1005.59 1481.67 Q1002.54 1477.06 1002.54 1468.33 Q1002.54 1459.58 1005.59 1455 Q1008.67 1450.39 1014.48 1450.39 Z" fill="#000000" fill-rule="evenodd" fill-opacity="1" /><path clip-path="url(#clip760)" d="M1044.64 1454.1 Q1041.03 1454.1 1039.2 1457.66 Q1037.4 1461.2 1037.4 1468.33 Q1037.4 1475.44 1039.2 1479.01 Q1041.03 1482.55 1044.64 1482.55 Q1048.28 1482.55 1050.08 1479.01 Q1051.91 1475.44 1051.91 1468.33 Q1051.91 1461.2 1050.08 1457.66 Q1048.28 1454.1 1044.64 1454.1 M1044.64 1450.39 Q1050.45 1450.39 1053.51 1455 Q1056.59 1459.58 1056.59 1468.33 Q1056.59 1477.06 1053.51 1481.67 Q1050.45 1486.25 1044.64 1486.25 Q1038.83 1486.25 1035.76 1481.67 Q1032.7 1477.06 1032.7 1468.33 Q1032.7 1459.58 1035.76 1455 Q1038.83 1450.39 1044.64 1450.39 Z" fill="#000000" fill-rule="evenodd" fill-opacity="1" /><path clip-path="url(#clip760)" d="M1370.73 1466.95 Q1374.09 1467.66 1375.96 1469.93 Q1377.86 1472.2 1377.86 1475.53 Q1377.86 1480.65 1374.34 1483.45 Q1370.82 1486.25 1364.34 1486.25 Q1362.17 1486.25 1359.85 1485.81 Q1357.56 1485.39 1355.11 1484.54 L1355.11 1480.02 Q1357.05 1481.16 1359.37 1481.74 Q1361.68 1482.32 1364.2 1482.32 Q1368.6 1482.32 1370.89 1480.58 Q1373.21 1478.84 1373.21 1475.53 Q1373.21 1472.48 1371.06 1470.77 Q1368.93 1469.03 1365.11 1469.03 L1361.08 1469.03 L1361.08 1465.19 L1365.29 1465.19 Q1368.74 1465.19 1370.57 1463.82 Q1372.4 1462.43 1372.4 1459.84 Q1372.4 1457.18 1370.5 1455.77 Q1368.63 1454.33 1365.11 1454.33 Q1363.19 1454.33 1360.99 1454.75 Q1358.79 1455.16 1356.15 1456.04 L1356.15 1451.88 Q1358.81 1451.14 1361.13 1450.77 Q1363.46 1450.39 1365.52 1450.39 Q1370.85 1450.39 1373.95 1452.83 Q1377.05 1455.23 1377.05 1459.35 Q1377.05 1462.22 1375.41 1464.21 Q1373.76 1466.18 1370.73 1466.95 Z" fill="#000000" fill-rule="evenodd" fill-opacity="1" /><path clip-path="url(#clip760)" d="M1396.73 1454.1 Q1393.12 1454.1 1391.29 1457.66 Q1389.48 1461.2 1389.48 1468.33 Q1389.48 1475.44 1391.29 1479.01 Q1393.12 1482.55 1396.73 1482.55 Q1400.36 1482.55 1402.17 1479.01 Q1404 1475.44 1404 1468.33 Q1404 1461.2 1402.17 1457.66 Q1400.36 1454.1 1396.73 1454.1 M1396.73 1450.39 Q1402.54 1450.39 1405.59 1455 Q1408.67 1459.58 1408.67 1468.33 Q1408.67 1477.06 1405.59 1481.67 Q1402.54 1486.25 1396.73 1486.25 Q1390.92 1486.25 1387.84 1481.67 Q1384.78 1477.06 1384.78 1468.33 Q1384.78 1459.58 1387.84 1455 Q1390.92 1450.39 1396.73 1450.39 Z" fill="#000000" fill-rule="evenodd" fill-opacity="1" /><path clip-path="url(#clip760)" d="M1426.89 1454.1 Q1423.28 1454.1 1421.45 1457.66 Q1419.64 1461.2 1419.64 1468.33 Q1419.64 1475.44 1421.45 1479.01 Q1423.28 1482.55 1426.89 1482.55 Q1430.52 1482.55 1432.33 1479.01 Q1434.16 1475.44 1434.16 1468.33 Q1434.16 1461.2 1432.33 1457.66 Q1430.52 1454.1 1426.89 1454.1 M1426.89 1450.39 Q1432.7 1450.39 1435.76 1455 Q1438.83 1459.58 1438.83 1468.33 Q1438.83 1477.06 1435.76 1481.67 Q1432.7 1486.25 1426.89 1486.25 Q1421.08 1486.25 1418 1481.67 Q1414.94 1477.06 1414.94 1468.33 Q1414.94 1459.58 1418 1455 Q1421.08 1450.39 1426.89 1450.39 Z" fill="#000000" fill-rule="evenodd" fill-opacity="1" /><path clip-path="url(#clip760)" d="M1752.38 1455.09 L1740.57 1473.54 L1752.38 1473.54 L1752.38 1455.09 M1751.15 1451.02 L1757.03 1451.02 L1757.03 1473.54 L1761.96 1473.54 L1761.96 1477.43 L1757.03 1477.43 L1757.03 1485.58 L1752.38 1485.58 L1752.38 1477.43 L1736.77 1477.43 L1736.77 1472.92 L1751.15 1451.02 Z" fill="#000000" fill-rule="evenodd" fill-opacity="1" /><path clip-path="url(#clip760)" d="M1779.69 1454.1 Q1776.08 1454.1 1774.25 1457.66 Q1772.44 1461.2 1772.44 1468.33 Q1772.44 1475.44 1774.25 1479.01 Q1776.08 1482.55 1779.69 1482.55 Q1783.32 1482.55 1785.13 1479.01 Q1786.96 1475.44 1786.96 1468.33 Q1786.96 1461.2 1785.13 1457.66 Q1783.32 1454.1 1779.69 1454.1 M1779.69 1450.39 Q1785.5 1450.39 1788.56 1455 Q1791.63 1459.58 1791.63 1468.33 Q1791.63 1477.06 1788.56 1481.67 Q1785.5 1486.25 1779.69 1486.25 Q1773.88 1486.25 1770.8 1481.67 Q1767.75 1477.06 1767.75 1468.33 Q1767.75 1459.58 1770.8 1455 Q1773.88 1450.39 1779.69 1450.39 Z" fill="#000000" fill-rule="evenodd" fill-opacity="1" /><path clip-path="url(#clip760)" d="M1809.85 1454.1 Q1806.24 1454.1 1804.41 1457.66 Q1802.61 1461.2 1802.61 1468.33 Q1802.61 1475.44 1804.41 1479.01 Q1806.24 1482.55 1809.85 1482.55 Q1813.49 1482.55 1815.29 1479.01 Q1817.12 1475.44 1817.12 1468.33 Q1817.12 1461.2 1815.29 1457.66 Q1813.49 1454.1 1809.85 1454.1 M1809.85 1450.39 Q1815.66 1450.39 1818.72 1455 Q1821.8 1459.58 1821.8 1468.33 Q1821.8 1477.06 1818.72 1481.67 Q1815.66 1486.25 1809.85 1486.25 Q1804.04 1486.25 1800.96 1481.67 Q1797.91 1477.06 1797.91 1468.33 Q1797.91 1459.58 1800.96 1455 Q1804.04 1450.39 1809.85 1450.39 Z" fill="#000000" fill-rule="evenodd" fill-opacity="1" /><path clip-path="url(#clip760)" d="M2121.22 1451.02 L2139.57 1451.02 L2139.57 1454.96 L2125.5 1454.96 L2125.5 1463.43 Q2126.52 1463.08 2127.54 1462.92 Q2128.56 1462.73 2129.57 1462.73 Q2135.36 1462.73 2138.74 1465.9 Q2142.12 1469.08 2142.12 1474.49 Q2142.12 1480.07 2138.65 1483.17 Q2135.18 1486.25 2128.86 1486.25 Q2126.68 1486.25 2124.41 1485.88 Q2122.17 1485.51 2119.76 1484.77 L2119.76 1480.07 Q2121.84 1481.2 2124.06 1481.76 Q2126.29 1482.32 2128.76 1482.32 Q2132.77 1482.32 2135.11 1480.21 Q2137.44 1478.1 2137.44 1474.49 Q2137.44 1470.88 2135.11 1468.77 Q2132.77 1466.67 2128.76 1466.67 Q2126.89 1466.67 2125.01 1467.08 Q2123.16 1467.5 2121.22 1468.38 L2121.22 1451.02 Z" fill="#000000" fill-rule="evenodd" fill-opacity="1" /><path clip-path="url(#clip760)" d="M2161.33 1454.1 Q2157.72 1454.1 2155.89 1457.66 Q2154.09 1461.2 2154.09 1468.33 Q2154.09 1475.44 2155.89 1479.01 Q2157.72 1482.55 2161.33 1482.55 Q2164.97 1482.55 2166.77 1479.01 Q2168.6 1475.44 2168.6 1468.33 Q2168.6 1461.2 2166.77 1457.66 Q2164.97 1454.1 2161.33 1454.1 M2161.33 1450.39 Q2167.14 1450.39 2170.2 1455 Q2173.28 1459.58 2173.28 1468.33 Q2173.28 1477.06 2170.2 1481.67 Q2167.14 1486.25 2161.33 1486.25 Q2155.52 1486.25 2152.44 1481.67 Q2149.39 1477.06 2149.39 1468.33 Q2149.39 1459.58 2152.44 1455 Q2155.52 1450.39 2161.33 1450.39 Z" fill="#000000" fill-rule="evenodd" fill-opacity="1" /><path clip-path="url(#clip760)" d="M2191.49 1454.1 Q2187.88 1454.1 2186.05 1457.66 Q2184.25 1461.2 2184.25 1468.33 Q2184.25 1475.44 2186.05 1479.01 Q2187.88 1482.55 2191.49 1482.55 Q2195.13 1482.55 2196.93 1479.01 Q2198.76 1475.44 2198.76 1468.33 Q2198.76 1461.2 2196.93 1457.66 Q2195.13 1454.1 2191.49 1454.1 M2191.49 1450.39 Q2197.3 1450.39 2200.36 1455 Q2203.44 1459.58 2203.44 1468.33 Q2203.44 1477.06 2200.36 1481.67 Q2197.3 1486.25 2191.49 1486.25 Q2185.68 1486.25 2182.61 1481.67 Q2179.55 1477.06 2179.55 1468.33 Q2179.55 1459.58 2182.61 1455 Q2185.68 1450.39 2191.49 1450.39 Z" fill="#000000" fill-rule="evenodd" fill-opacity="1" /><path clip-path="url(#clip760)" d="M1309.86 1531.91 Q1309.86 1532.81 1309.44 1533.04 Q1309.03 1533.23 1307.87 1533.23 L1301.68 1533.23 L1296.79 1552.69 Q1296.4 1554.39 1296.4 1555.84 Q1296.4 1557.45 1296.88 1558.16 Q1297.4 1558.87 1298.46 1558.87 Q1300.56 1558.87 1302.81 1556.97 Q1305.1 1555.07 1307.03 1550.43 Q1307.29 1549.82 1307.42 1549.69 Q1307.58 1549.53 1308 1549.53 Q1308.8 1549.53 1308.8 1550.17 Q1308.8 1550.4 1308.35 1551.43 Q1307.93 1552.46 1307 1553.97 Q1306.09 1555.49 1304.9 1556.9 Q1303.74 1558.32 1301.97 1559.35 Q1300.2 1560.35 1298.3 1560.35 Q1295.63 1560.35 1293.92 1558.64 Q1292.25 1556.94 1292.25 1554.26 Q1292.25 1553.39 1292.92 1550.62 Q1293.6 1547.82 1297.27 1533.23 L1291.44 1533.23 Q1290.64 1533.23 1290.31 1533.2 Q1290.02 1533.17 1289.8 1533.01 Q1289.61 1532.81 1289.61 1532.43 Q1289.61 1531.82 1289.86 1531.56 Q1290.12 1531.27 1290.44 1531.24 Q1290.8 1531.17 1291.6 1531.17 L1297.79 1531.17 L1300.36 1520.71 Q1300.62 1519.67 1301.26 1519.09 Q1301.94 1518.48 1302.33 1518.42 Q1302.71 1518.32 1303 1518.32 Q1303.87 1518.32 1304.39 1518.81 Q1304.9 1519.26 1304.9 1520.09 Q1304.9 1520.54 1302.2 1531.17 L1308 1531.17 Q1308.74 1531.17 1309.03 1531.2 Q1309.35 1531.24 1309.61 1531.4 Q1309.86 1531.56 1309.86 1531.91 Z" fill="#000000" fill-rule="evenodd" fill-opacity="1" /><polyline clip-path="url(#clip762)" style="stroke:#000000; stroke-linecap:round; stroke-linejoin:round; stroke-width:2; stroke-opacity:0.1; fill:none" points="
  250.028,1387.29 2352.76,1387.29 
  "/>
<polyline clip-path="url(#clip762)" style="stroke:#000000; stroke-linecap:round; stroke-linejoin:round; stroke-width:2; stroke-opacity:0.1; fill:none" points="
  250.028,1111.15 2352.76,1111.15 
  "/>
<polyline clip-path="url(#clip762)" style="stroke:#000000; stroke-linecap:round; stroke-linejoin:round; stroke-width:2; stroke-opacity:0.1; fill:none" points="
  250.028,835.017 2352.76,835.017 
  "/>
<polyline clip-path="url(#clip762)" style="stroke:#000000; stroke-linecap:round; stroke-linejoin:round; stroke-width:2; stroke-opacity:0.1; fill:none" points="
  250.028,558.879 2352.76,558.879 
  "/>
<polyline clip-path="url(#clip762)" style="stroke:#000000; stroke-linecap:round; stroke-linejoin:round; stroke-width:2; stroke-opacity:0.1; fill:none" points="
  250.028,282.741 2352.76,282.741 
  "/>
<polyline clip-path="url(#clip760)" style="stroke:#000000; stroke-linecap:round; stroke-linejoin:round; stroke-width:4; stroke-opacity:1; fill:none" points="
  250.028,1423.18 250.028,123.472 
  "/>
<polyline clip-path="url(#clip760)" style="stroke:#000000; stroke-linecap:round; stroke-linejoin:round; stroke-width:4; stroke-opacity:1; fill:none" points="
  250.028,1387.29 268.926,1387.29 
  "/>
<polyline clip-path="url(#clip760)" style="stroke:#000000; stroke-linecap:round; stroke-linejoin:round; stroke-width:4; stroke-opacity:1; fill:none" points="
  250.028,1111.15 268.926,1111.15 
  "/>
<polyline clip-path="url(#clip760)" style="stroke:#000000; stroke-linecap:round; stroke-linejoin:round; stroke-width:4; stroke-opacity:1; fill:none" points="
  250.028,835.017 268.926,835.017 
  "/>
<polyline clip-path="url(#clip760)" style="stroke:#000000; stroke-linecap:round; stroke-linejoin:round; stroke-width:4; stroke-opacity:1; fill:none" points="
  250.028,558.879 268.926,558.879 
  "/>
<polyline clip-path="url(#clip760)" style="stroke:#000000; stroke-linecap:round; stroke-linejoin:round; stroke-width:4; stroke-opacity:1; fill:none" points="
  250.028,282.741 268.926,282.741 
  "/>
<path clip-path="url(#clip760)" d="M126.691 1373.09 Q123.08 1373.09 121.251 1376.66 Q119.445 1380.2 119.445 1387.33 Q119.445 1394.43 121.251 1398 Q123.08 1401.54 126.691 1401.54 Q130.325 1401.54 132.13 1398 Q133.959 1394.43 133.959 1387.33 Q133.959 1380.2 132.13 1376.66 Q130.325 1373.09 126.691 1373.09 M126.691 1369.39 Q132.501 1369.39 135.556 1373.99 Q138.635 1378.58 138.635 1387.33 Q138.635 1396.05 135.556 1400.66 Q132.501 1405.24 126.691 1405.24 Q120.88 1405.24 117.802 1400.66 Q114.746 1396.05 114.746 1387.33 Q114.746 1378.58 117.802 1373.99 Q120.88 1369.39 126.691 1369.39 Z" fill="#000000" fill-rule="evenodd" fill-opacity="1" /><path clip-path="url(#clip760)" d="M146.853 1398.69 L151.737 1398.69 L151.737 1404.57 L146.853 1404.57 L146.853 1398.69 Z" fill="#000000" fill-rule="evenodd" fill-opacity="1" /><path clip-path="url(#clip760)" d="M171.922 1373.09 Q168.311 1373.09 166.482 1376.66 Q164.677 1380.2 164.677 1387.33 Q164.677 1394.43 166.482 1398 Q168.311 1401.54 171.922 1401.54 Q175.556 1401.54 177.362 1398 Q179.19 1394.43 179.19 1387.33 Q179.19 1380.2 177.362 1376.66 Q175.556 1373.09 171.922 1373.09 M171.922 1369.39 Q177.732 1369.39 180.788 1373.99 Q183.866 1378.58 183.866 1387.33 Q183.866 1396.05 180.788 1400.66 Q177.732 1405.24 171.922 1405.24 Q166.112 1405.24 163.033 1400.66 Q159.978 1396.05 159.978 1387.33 Q159.978 1378.58 163.033 1373.99 Q166.112 1369.39 171.922 1369.39 Z" fill="#000000" fill-rule="evenodd" fill-opacity="1" /><path clip-path="url(#clip760)" d="M202.084 1373.09 Q198.473 1373.09 196.644 1376.66 Q194.838 1380.2 194.838 1387.33 Q194.838 1394.43 196.644 1398 Q198.473 1401.54 202.084 1401.54 Q205.718 1401.54 207.524 1398 Q209.352 1394.43 209.352 1387.33 Q209.352 1380.2 207.524 1376.66 Q205.718 1373.09 202.084 1373.09 M202.084 1369.39 Q207.894 1369.39 210.949 1373.99 Q214.028 1378.58 214.028 1387.33 Q214.028 1396.05 210.949 1400.66 Q207.894 1405.24 202.084 1405.24 Q196.274 1405.24 193.195 1400.66 Q190.139 1396.05 190.139 1387.33 Q190.139 1378.58 193.195 1373.99 Q196.274 1369.39 202.084 1369.39 Z" fill="#000000" fill-rule="evenodd" fill-opacity="1" /><path clip-path="url(#clip760)" d="M128.288 1096.95 Q124.677 1096.95 122.848 1100.52 Q121.043 1104.06 121.043 1111.19 Q121.043 1118.3 122.848 1121.86 Q124.677 1125.4 128.288 1125.4 Q131.922 1125.4 133.728 1121.86 Q135.556 1118.3 135.556 1111.19 Q135.556 1104.06 133.728 1100.52 Q131.922 1096.95 128.288 1096.95 M128.288 1093.25 Q134.098 1093.25 137.154 1097.86 Q140.232 1102.44 140.232 1111.19 Q140.232 1119.92 137.154 1124.52 Q134.098 1129.11 128.288 1129.11 Q122.478 1129.11 119.399 1124.52 Q116.343 1119.92 116.343 1111.19 Q116.343 1102.44 119.399 1097.86 Q122.478 1093.25 128.288 1093.25 Z" fill="#000000" fill-rule="evenodd" fill-opacity="1" /><path clip-path="url(#clip760)" d="M148.45 1122.56 L153.334 1122.56 L153.334 1128.43 L148.45 1128.43 L148.45 1122.56 Z" fill="#000000" fill-rule="evenodd" fill-opacity="1" /><path clip-path="url(#clip760)" d="M173.519 1096.95 Q169.908 1096.95 168.079 1100.52 Q166.274 1104.06 166.274 1111.19 Q166.274 1118.3 168.079 1121.86 Q169.908 1125.4 173.519 1125.4 Q177.153 1125.4 178.959 1121.86 Q180.788 1118.3 180.788 1111.19 Q180.788 1104.06 178.959 1100.52 Q177.153 1096.95 173.519 1096.95 M173.519 1093.25 Q179.329 1093.25 182.385 1097.86 Q185.463 1102.44 185.463 1111.19 Q185.463 1119.92 182.385 1124.52 Q179.329 1129.11 173.519 1129.11 Q167.709 1129.11 164.63 1124.52 Q161.575 1119.92 161.575 1111.19 Q161.575 1102.44 164.63 1097.86 Q167.709 1093.25 173.519 1093.25 Z" fill="#000000" fill-rule="evenodd" fill-opacity="1" /><path clip-path="url(#clip760)" d="M197.709 1124.5 L214.028 1124.5 L214.028 1128.43 L192.084 1128.43 L192.084 1124.5 Q194.746 1121.74 199.329 1117.12 Q203.936 1112.46 205.116 1111.12 Q207.362 1108.6 208.241 1106.86 Q209.144 1105.1 209.144 1103.41 Q209.144 1100.66 207.199 1098.92 Q205.278 1097.18 202.176 1097.18 Q199.977 1097.18 197.524 1097.95 Q195.093 1098.71 192.315 1100.26 L192.315 1095.54 Q195.139 1094.41 197.593 1093.83 Q200.047 1093.25 202.084 1093.25 Q207.454 1093.25 210.649 1095.93 Q213.843 1098.62 213.843 1103.11 Q213.843 1105.24 213.033 1107.16 Q212.246 1109.06 210.139 1111.65 Q209.561 1112.32 206.459 1115.54 Q203.357 1118.74 197.709 1124.5 Z" fill="#000000" fill-rule="evenodd" fill-opacity="1" /><path clip-path="url(#clip760)" d="M126.205 820.816 Q122.593 820.816 120.765 824.38 Q118.959 827.922 118.959 835.052 Q118.959 842.158 120.765 845.723 Q122.593 849.264 126.205 849.264 Q129.839 849.264 131.644 845.723 Q133.473 842.158 133.473 835.052 Q133.473 827.922 131.644 824.38 Q129.839 820.816 126.205 820.816 M126.205 817.112 Q132.015 817.112 135.07 821.718 Q138.149 826.302 138.149 835.052 Q138.149 843.778 135.07 848.385 Q132.015 852.968 126.205 852.968 Q120.394 852.968 117.316 848.385 Q114.26 843.778 114.26 835.052 Q114.26 826.302 117.316 821.718 Q120.394 817.112 126.205 817.112 Z" fill="#000000" fill-rule="evenodd" fill-opacity="1" /><path clip-path="url(#clip760)" d="M146.366 846.417 L151.251 846.417 L151.251 852.297 L146.366 852.297 L146.366 846.417 Z" fill="#000000" fill-rule="evenodd" fill-opacity="1" /><path clip-path="url(#clip760)" d="M171.436 820.816 Q167.825 820.816 165.996 824.38 Q164.19 827.922 164.19 835.052 Q164.19 842.158 165.996 845.723 Q167.825 849.264 171.436 849.264 Q175.07 849.264 176.876 845.723 Q178.704 842.158 178.704 835.052 Q178.704 827.922 176.876 824.38 Q175.07 820.816 171.436 820.816 M171.436 817.112 Q177.246 817.112 180.301 821.718 Q183.38 826.302 183.38 835.052 Q183.38 843.778 180.301 848.385 Q177.246 852.968 171.436 852.968 Q165.626 852.968 162.547 848.385 Q159.491 843.778 159.491 835.052 Q159.491 826.302 162.547 821.718 Q165.626 817.112 171.436 817.112 Z" fill="#000000" fill-rule="evenodd" fill-opacity="1" /><path clip-path="url(#clip760)" d="M204.445 821.811 L192.639 840.26 L204.445 840.26 L204.445 821.811 M203.218 817.737 L209.098 817.737 L209.098 840.26 L214.028 840.26 L214.028 844.149 L209.098 844.149 L209.098 852.297 L204.445 852.297 L204.445 844.149 L188.843 844.149 L188.843 839.635 L203.218 817.737 Z" fill="#000000" fill-rule="evenodd" fill-opacity="1" /><path clip-path="url(#clip760)" d="M126.529 544.678 Q122.918 544.678 121.089 548.242 Q119.283 551.784 119.283 558.914 Q119.283 566.02 121.089 569.585 Q122.918 573.127 126.529 573.127 Q130.163 573.127 131.968 569.585 Q133.797 566.02 133.797 558.914 Q133.797 551.784 131.968 548.242 Q130.163 544.678 126.529 544.678 M126.529 540.974 Q132.339 540.974 135.394 545.58 Q138.473 550.164 138.473 558.914 Q138.473 567.64 135.394 572.247 Q132.339 576.83 126.529 576.83 Q120.718 576.83 117.64 572.247 Q114.584 567.64 114.584 558.914 Q114.584 550.164 117.64 545.58 Q120.718 540.974 126.529 540.974 Z" fill="#000000" fill-rule="evenodd" fill-opacity="1" /><path clip-path="url(#clip760)" d="M146.691 570.279 L151.575 570.279 L151.575 576.159 L146.691 576.159 L146.691 570.279 Z" fill="#000000" fill-rule="evenodd" fill-opacity="1" /><path clip-path="url(#clip760)" d="M171.76 544.678 Q168.149 544.678 166.32 548.242 Q164.515 551.784 164.515 558.914 Q164.515 566.02 166.32 569.585 Q168.149 573.127 171.76 573.127 Q175.394 573.127 177.2 569.585 Q179.028 566.02 179.028 558.914 Q179.028 551.784 177.2 548.242 Q175.394 544.678 171.76 544.678 M171.76 540.974 Q177.57 540.974 180.626 545.58 Q183.704 550.164 183.704 558.914 Q183.704 567.64 180.626 572.247 Q177.57 576.83 171.76 576.83 Q165.95 576.83 162.871 572.247 Q159.815 567.64 159.815 558.914 Q159.815 550.164 162.871 545.58 Q165.95 540.974 171.76 540.974 Z" fill="#000000" fill-rule="evenodd" fill-opacity="1" /><path clip-path="url(#clip760)" d="M202.5 557.016 Q199.352 557.016 197.5 559.168 Q195.672 561.321 195.672 565.071 Q195.672 568.798 197.5 570.974 Q199.352 573.127 202.5 573.127 Q205.649 573.127 207.477 570.974 Q209.329 568.798 209.329 565.071 Q209.329 561.321 207.477 559.168 Q205.649 557.016 202.5 557.016 M211.783 542.363 L211.783 546.622 Q210.024 545.789 208.218 545.349 Q206.436 544.909 204.676 544.909 Q200.047 544.909 197.593 548.034 Q195.163 551.159 194.815 557.478 Q196.181 555.465 198.241 554.4 Q200.301 553.312 202.778 553.312 Q207.987 553.312 210.996 556.483 Q214.028 559.631 214.028 565.071 Q214.028 570.395 210.88 573.613 Q207.732 576.83 202.5 576.83 Q196.505 576.83 193.334 572.247 Q190.163 567.64 190.163 558.914 Q190.163 550.719 194.051 545.858 Q197.94 540.974 204.491 540.974 Q206.25 540.974 208.033 541.321 Q209.838 541.668 211.783 542.363 Z" fill="#000000" fill-rule="evenodd" fill-opacity="1" /><path clip-path="url(#clip760)" d="M126.783 268.54 Q123.172 268.54 121.343 272.105 Q119.538 275.646 119.538 282.776 Q119.538 289.882 121.343 293.447 Q123.172 296.989 126.783 296.989 Q130.417 296.989 132.223 293.447 Q134.052 289.882 134.052 282.776 Q134.052 275.646 132.223 272.105 Q130.417 268.54 126.783 268.54 M126.783 264.836 Q132.593 264.836 135.649 269.442 Q138.728 274.026 138.728 282.776 Q138.728 291.503 135.649 296.109 Q132.593 300.692 126.783 300.692 Q120.973 300.692 117.894 296.109 Q114.839 291.503 114.839 282.776 Q114.839 274.026 117.894 269.442 Q120.973 264.836 126.783 264.836 Z" fill="#000000" fill-rule="evenodd" fill-opacity="1" /><path clip-path="url(#clip760)" d="M146.945 294.141 L151.829 294.141 L151.829 300.021 L146.945 300.021 L146.945 294.141 Z" fill="#000000" fill-rule="evenodd" fill-opacity="1" /><path clip-path="url(#clip760)" d="M172.014 268.54 Q168.403 268.54 166.575 272.105 Q164.769 275.646 164.769 282.776 Q164.769 289.882 166.575 293.447 Q168.403 296.989 172.014 296.989 Q175.649 296.989 177.454 293.447 Q179.283 289.882 179.283 282.776 Q179.283 275.646 177.454 272.105 Q175.649 268.54 172.014 268.54 M172.014 264.836 Q177.825 264.836 180.88 269.442 Q183.959 274.026 183.959 282.776 Q183.959 291.503 180.88 296.109 Q177.825 300.692 172.014 300.692 Q166.204 300.692 163.126 296.109 Q160.07 291.503 160.07 282.776 Q160.07 274.026 163.126 269.442 Q166.204 264.836 172.014 264.836 Z" fill="#000000" fill-rule="evenodd" fill-opacity="1" /><path clip-path="url(#clip760)" d="M202.176 283.609 Q198.843 283.609 196.922 285.391 Q195.024 287.174 195.024 290.299 Q195.024 293.424 196.922 295.206 Q198.843 296.989 202.176 296.989 Q205.51 296.989 207.431 295.206 Q209.352 293.401 209.352 290.299 Q209.352 287.174 207.431 285.391 Q205.533 283.609 202.176 283.609 M197.5 281.618 Q194.491 280.878 192.801 278.817 Q191.135 276.757 191.135 273.794 Q191.135 269.651 194.075 267.243 Q197.037 264.836 202.176 264.836 Q207.338 264.836 210.278 267.243 Q213.218 269.651 213.218 273.794 Q213.218 276.757 211.528 278.817 Q209.861 280.878 206.875 281.618 Q210.255 282.405 212.13 284.697 Q214.028 286.989 214.028 290.299 Q214.028 295.322 210.949 298.007 Q207.894 300.692 202.176 300.692 Q196.459 300.692 193.38 298.007 Q190.325 295.322 190.325 290.299 Q190.325 286.989 192.223 284.697 Q194.121 282.405 197.5 281.618 M195.787 274.234 Q195.787 276.919 197.454 278.424 Q199.144 279.929 202.176 279.929 Q205.186 279.929 206.875 278.424 Q208.588 276.919 208.588 274.234 Q208.588 271.549 206.875 270.044 Q205.186 268.54 202.176 268.54 Q199.144 268.54 197.454 270.044 Q195.787 271.549 195.787 274.234 Z" fill="#000000" fill-rule="evenodd" fill-opacity="1" /><path clip-path="url(#clip760)" d="M24.8606 806.044 Q26.2777 806.044 27.3404 807.204 Q28.371 808.331 28.371 809.555 Q28.371 810.682 27.6947 811.391 Q26.9862 812.067 25.9878 812.067 Q24.6674 812.067 23.5724 810.94 Q22.4774 809.812 22.4774 808.492 Q22.4774 807.397 23.1537 806.721 Q23.83 806.044 24.8606 806.044 M56.6478 805.465 Q56.9054 805.465 57.936 805.755 Q58.9344 806.044 60.4803 806.753 Q61.994 807.429 63.411 808.363 Q64.8281 809.297 65.8264 810.843 Q66.8248 812.357 66.8248 814.096 Q66.8248 816.447 65.2789 817.993 Q63.7331 819.506 61.4142 819.506 Q60.1582 819.506 56.1325 817.993 Q44.4096 813.613 43.9265 813.452 Q42.0907 812.711 40.4804 812.711 Q39.7397 812.711 39.2888 812.872 Q38.8057 813.033 38.6447 813.355 Q38.4515 813.677 38.4193 813.87 Q38.3871 814.031 38.3871 814.354 Q38.3871 816.254 40.3194 818.025 Q42.2518 819.796 46.5673 821.02 Q47.3725 821.278 47.5657 821.439 Q47.759 821.6 47.759 822.083 Q47.7268 822.888 47.0826 822.888 Q46.8894 822.888 46.1487 822.663 Q45.3757 822.437 44.2163 822.018 Q43.0247 821.6 41.8009 820.859 Q40.5448 820.118 39.4498 819.217 Q38.3548 818.283 37.6463 816.962 Q36.9378 815.642 36.9378 814.16 Q36.9378 811.745 38.5159 810.263 Q40.0618 808.75 42.3484 808.75 Q43.6044 808.75 45.8266 809.619 Q48.7251 810.682 49.6591 811.069 L56.5834 813.645 Q59.0954 814.579 59.8684 814.869 Q60.6091 815.126 61.5109 815.352 Q62.3804 815.545 63.1856 815.545 Q64.3128 815.545 64.8281 815.191 Q65.3434 814.804 65.3434 813.967 Q65.3434 811.648 63.0567 809.941 Q60.7379 808.234 57.1953 807.236 Q57.0987 807.204 56.9376 807.172 Q56.1325 806.914 56.0359 806.656 Q56.0037 806.527 56.0037 806.27 Q56.0037 805.465 56.6478 805.465 Z" fill="#000000" fill-rule="evenodd" fill-opacity="1" /><path clip-path="url(#clip760)" d="M49.5947 794.824 Q38.4515 794.824 29.466 790.669 Q25.6979 788.898 22.5418 786.418 Q19.3856 783.938 18.0007 782.296 Q16.6159 780.653 16.6159 780.202 Q16.6159 779.558 17.26 779.526 Q17.5821 779.526 18.3872 780.395 Q29.2084 791.023 49.5947 790.991 Q70.0454 790.991 80.4479 780.653 Q81.5751 779.526 81.9294 779.526 Q82.5735 779.526 82.5735 780.202 Q82.5735 780.653 81.2531 782.231 Q79.9326 783.809 76.9053 786.257 Q73.8779 788.705 70.1742 790.476 Q61.1888 794.824 49.5947 794.824 Z" fill="#000000" fill-rule="evenodd" fill-opacity="1" /><path clip-path="url(#clip760)" d="M38.3871 754.255 Q39.2888 754.255 39.5143 754.673 Q39.7075 755.092 39.7075 756.252 L39.7075 762.435 L59.1598 767.33 Q60.8667 767.717 62.316 767.717 Q63.9263 767.717 64.6348 767.234 Q65.3434 766.718 65.3434 765.656 Q65.3434 763.562 63.4432 761.308 Q61.5431 759.021 56.9054 757.089 Q56.2935 756.831 56.1647 756.702 Q56.0037 756.541 56.0037 756.123 Q56.0037 755.318 56.6478 755.318 Q56.8732 755.318 57.9038 755.768 Q58.9344 756.187 60.4481 757.121 Q61.9617 758.023 63.3788 759.215 Q64.7959 760.374 65.8264 762.145 Q66.8248 763.917 66.8248 765.817 Q66.8248 768.49 65.1179 770.197 Q63.411 771.871 60.7379 771.871 Q59.8684 771.871 57.0987 771.195 Q54.2967 770.519 39.7075 766.847 L39.7075 772.677 Q39.7075 773.482 39.6753 773.804 Q39.6431 774.094 39.4821 774.319 Q39.2888 774.512 38.9023 774.512 Q38.2904 774.512 38.0328 774.255 Q37.7429 773.997 37.7107 773.675 Q37.6463 773.321 37.6463 772.516 L37.6463 766.332 L27.1794 763.756 Q26.1488 763.498 25.5691 762.854 Q24.9572 762.177 24.8928 761.791 Q24.7962 761.405 24.7962 761.115 Q24.7962 760.245 25.2793 759.73 Q25.7302 759.215 26.5675 759.215 Q27.0184 759.215 37.6463 761.92 L37.6463 756.123 Q37.6463 755.382 37.6785 755.092 Q37.7107 754.77 37.8718 754.512 Q38.0328 754.255 38.3871 754.255 Z" fill="#000000" fill-rule="evenodd" fill-opacity="1" /><path clip-path="url(#clip760)" d="M81.9294 749.091 Q81.6073 749.091 80.8022 748.254 Q69.981 737.626 49.5947 737.626 Q29.144 737.626 18.8059 747.835 Q17.6143 749.091 17.26 749.091 Q16.6159 749.091 16.6159 748.447 Q16.6159 747.996 17.9363 746.418 Q19.2568 744.808 22.2841 742.393 Q25.3115 739.945 29.0151 738.141 Q38.0006 733.794 49.5947 733.794 Q60.7379 733.794 69.7234 737.948 Q73.4914 739.719 76.6476 742.199 Q79.8038 744.679 81.1886 746.322 Q82.5735 747.964 82.5735 748.447 Q82.5735 749.091 81.9294 749.091 Z" fill="#000000" fill-rule="evenodd" fill-opacity="1" /><path clip-path="url(#clip760)" d="M871.976 12.096 L882.994 12.096 L909.811 62.6918 L909.811 12.096 L917.751 12.096 L917.751 72.576 L906.733 72.576 L879.916 21.9802 L879.916 72.576 L871.976 72.576 L871.976 12.096 Z" fill="#000000" fill-rule="evenodd" fill-opacity="1" /><path clip-path="url(#clip760)" d="M932.942 54.671 L932.942 27.2059 L940.396 27.2059 L940.396 54.3874 Q940.396 60.8284 942.907 64.0691 Q945.419 67.2693 950.442 67.2693 Q956.478 67.2693 959.962 63.421 Q963.486 59.5726 963.486 52.9291 L963.486 27.2059 L970.94 27.2059 L970.94 72.576 L963.486 72.576 L963.486 65.6084 Q960.772 69.7404 957.166 71.7658 Q953.602 73.7508 948.862 73.7508 Q941.044 73.7508 936.993 68.8897 Q932.942 64.0286 932.942 54.671 M951.698 26.1121 L951.698 26.1121 Z" fill="#000000" fill-rule="evenodd" fill-opacity="1" /><path clip-path="url(#clip760)" d="M1021.62 35.9153 Q1024.41 30.8922 1028.3 28.5022 Q1032.19 26.1121 1037.46 26.1121 Q1044.54 26.1121 1048.39 31.0947 Q1052.24 36.0368 1052.24 45.1919 L1052.24 72.576 L1044.75 72.576 L1044.75 45.4349 Q1044.75 38.913 1042.44 35.7533 Q1040.13 32.5936 1035.39 32.5936 Q1029.6 32.5936 1026.23 36.4419 Q1022.87 40.2903 1022.87 46.9338 L1022.87 72.576 L1015.38 72.576 L1015.38 45.4349 Q1015.38 38.8725 1013.07 35.7533 Q1010.76 32.5936 1005.94 32.5936 Q1000.23 32.5936 996.865 36.4824 Q993.503 40.3308 993.503 46.9338 L993.503 72.576 L986.009 72.576 L986.009 27.2059 L993.503 27.2059 L993.503 34.2544 Q996.055 30.082 999.62 28.0971 Q1003.18 26.1121 1008.09 26.1121 Q1013.03 26.1121 1016.47 28.6237 Q1019.96 31.1352 1021.62 35.9153 Z" fill="#000000" fill-rule="evenodd" fill-opacity="1" /><path clip-path="url(#clip760)" d="M1099.68 49.9314 Q1099.68 41.7081 1096.27 37.0496 Q1092.91 32.3505 1087 32.3505 Q1081.08 32.3505 1077.68 37.0496 Q1074.32 41.7081 1074.32 49.9314 Q1074.32 58.1548 1077.68 62.8538 Q1081.08 67.5124 1087 67.5124 Q1092.91 67.5124 1096.27 62.8538 Q1099.68 58.1548 1099.68 49.9314 M1074.32 34.0924 Q1076.67 30.0415 1080.23 28.0971 Q1083.84 26.1121 1088.82 26.1121 Q1097.08 26.1121 1102.23 32.6746 Q1107.41 39.2371 1107.41 49.9314 Q1107.41 60.6258 1102.23 67.1883 Q1097.08 73.7508 1088.82 73.7508 Q1083.84 73.7508 1080.23 71.8063 Q1076.67 69.8214 1074.32 65.7705 L1074.32 72.576 L1066.82 72.576 L1066.82 9.54393 L1074.32 9.54393 L1074.32 34.0924 Z" fill="#000000" fill-rule="evenodd" fill-opacity="1" /><path clip-path="url(#clip760)" d="M1158.58 48.0275 L1158.58 51.6733 L1124.31 51.6733 Q1124.79 59.3701 1128.92 63.421 Q1133.1 67.4314 1140.51 67.4314 Q1144.8 67.4314 1148.81 66.3781 Q1152.87 65.3249 1156.84 63.2184 L1156.84 70.267 Q1152.83 71.9684 1148.61 72.8596 Q1144.4 73.7508 1140.06 73.7508 Q1129.21 73.7508 1122.85 67.4314 Q1116.53 61.1119 1116.53 50.3365 Q1116.53 39.1965 1122.52 32.6746 Q1128.56 26.1121 1138.77 26.1121 Q1147.92 26.1121 1153.23 32.0264 Q1158.58 37.9003 1158.58 48.0275 M1151.12 45.84 Q1151.04 39.7232 1147.68 36.0774 Q1144.36 32.4315 1138.85 32.4315 Q1132.61 32.4315 1128.84 35.9558 Q1125.12 39.4801 1124.55 45.8805 L1151.12 45.84 Z" fill="#000000" fill-rule="evenodd" fill-opacity="1" /><path clip-path="url(#clip760)" d="M1197.1 34.1734 Q1195.85 33.4443 1194.35 33.1202 Q1192.89 32.7556 1191.11 32.7556 Q1184.79 32.7556 1181.38 36.8875 Q1178.02 40.9789 1178.02 48.6757 L1178.02 72.576 L1170.53 72.576 L1170.53 27.2059 L1178.02 27.2059 L1178.02 34.2544 Q1180.37 30.1225 1184.14 28.1376 Q1187.91 26.1121 1193.29 26.1121 Q1194.06 26.1121 1195 26.2337 Q1195.93 26.3147 1197.06 26.5172 L1197.1 34.1734 Z" fill="#000000" fill-rule="evenodd" fill-opacity="1" /><path clip-path="url(#clip760)" d="M1248.87 32.4315 Q1242.88 32.4315 1239.39 37.1306 Q1235.91 41.7891 1235.91 49.9314 Q1235.91 58.0738 1239.35 62.7728 Q1242.84 67.4314 1248.87 67.4314 Q1254.83 67.4314 1258.31 62.7323 Q1261.79 58.0333 1261.79 49.9314 Q1261.79 41.8701 1258.31 37.1711 Q1254.83 32.4315 1248.87 32.4315 M1248.87 26.1121 Q1258.59 26.1121 1264.14 32.4315 Q1269.69 38.7509 1269.69 49.9314 Q1269.69 61.0714 1264.14 67.4314 Q1258.59 73.7508 1248.87 73.7508 Q1239.11 73.7508 1233.56 67.4314 Q1228.05 61.0714 1228.05 49.9314 Q1228.05 38.7509 1233.56 32.4315 Q1239.11 26.1121 1248.87 26.1121 Z" fill="#000000" fill-rule="evenodd" fill-opacity="1" /><path clip-path="url(#clip760)" d="M1305.02 9.54393 L1305.02 15.7418 L1297.89 15.7418 Q1293.88 15.7418 1292.3 17.3622 Q1290.76 18.9825 1290.76 23.1955 L1290.76 27.2059 L1303.03 27.2059 L1303.03 32.9987 L1290.76 32.9987 L1290.76 72.576 L1283.26 72.576 L1283.26 32.9987 L1276.13 32.9987 L1276.13 27.2059 L1283.26 27.2059 L1283.26 24.0462 Q1283.26 16.471 1286.79 13.0277 Q1290.31 9.54393 1297.97 9.54393 L1305.02 9.54393 Z" fill="#000000" fill-rule="evenodd" fill-opacity="1" /><path clip-path="url(#clip760)" d="M1337.95 12.096 L1346.13 12.096 L1346.13 72.576 L1337.95 72.576 L1337.95 12.096 Z" fill="#000000" fill-rule="evenodd" fill-opacity="1" /><path clip-path="url(#clip760)" d="M1399.81 45.1919 L1399.81 72.576 L1392.36 72.576 L1392.36 45.4349 Q1392.36 38.994 1389.84 35.7938 Q1387.33 32.5936 1382.31 32.5936 Q1376.27 32.5936 1372.79 36.4419 Q1369.31 40.2903 1369.31 46.9338 L1369.31 72.576 L1361.81 72.576 L1361.81 27.2059 L1369.31 27.2059 L1369.31 34.2544 Q1371.98 30.163 1375.58 28.1376 Q1379.23 26.1121 1383.97 26.1121 Q1391.79 26.1121 1395.8 30.9732 Q1399.81 35.7938 1399.81 45.1919 Z" fill="#000000" fill-rule="evenodd" fill-opacity="1" /><path clip-path="url(#clip760)" d="M1437.64 9.54393 L1437.64 15.7418 L1430.51 15.7418 Q1426.5 15.7418 1424.92 17.3622 Q1423.39 18.9825 1423.39 23.1955 L1423.39 27.2059 L1435.66 27.2059 L1435.66 32.9987 L1423.39 32.9987 L1423.39 72.576 L1415.89 72.576 L1415.89 32.9987 L1408.76 32.9987 L1408.76 27.2059 L1415.89 27.2059 L1415.89 24.0462 Q1415.89 16.471 1419.42 13.0277 Q1422.94 9.54393 1430.6 9.54393 L1437.64 9.54393 Z" fill="#000000" fill-rule="evenodd" fill-opacity="1" /><path clip-path="url(#clip760)" d="M1482.69 48.0275 L1482.69 51.6733 L1448.42 51.6733 Q1448.91 59.3701 1453.04 63.421 Q1457.21 67.4314 1464.62 67.4314 Q1468.92 67.4314 1472.93 66.3781 Q1476.98 65.3249 1480.95 63.2184 L1480.95 70.267 Q1476.94 71.9684 1472.73 72.8596 Q1468.51 73.7508 1464.18 73.7508 Q1453.32 73.7508 1446.96 67.4314 Q1440.64 61.1119 1440.64 50.3365 Q1440.64 39.1965 1446.64 32.6746 Q1452.67 26.1121 1462.88 26.1121 Q1472.04 26.1121 1477.34 32.0264 Q1482.69 37.9003 1482.69 48.0275 M1475.24 45.84 Q1475.16 39.7232 1471.79 36.0774 Q1468.47 32.4315 1462.96 32.4315 Q1456.72 32.4315 1452.96 35.9558 Q1449.23 39.4801 1448.66 45.8805 L1475.24 45.84 Z" fill="#000000" fill-rule="evenodd" fill-opacity="1" /><path clip-path="url(#clip760)" d="M1527.57 28.9478 L1527.57 35.9153 Q1524.41 34.1734 1521.21 33.3227 Q1518.05 32.4315 1514.81 32.4315 Q1507.56 32.4315 1503.55 37.0496 Q1499.54 41.6271 1499.54 49.9314 Q1499.54 58.2358 1503.55 62.8538 Q1507.56 67.4314 1514.81 67.4314 Q1518.05 67.4314 1521.21 66.5807 Q1524.41 65.6895 1527.57 63.9476 L1527.57 70.8341 Q1524.46 72.2924 1521.09 73.0216 Q1517.77 73.7508 1514 73.7508 Q1503.75 73.7508 1497.72 67.3098 Q1491.68 60.8689 1491.68 49.9314 Q1491.68 38.832 1497.76 32.472 Q1503.88 26.1121 1514.49 26.1121 Q1517.93 26.1121 1521.21 26.8413 Q1524.5 27.5299 1527.57 28.9478 Z" fill="#000000" fill-rule="evenodd" fill-opacity="1" /><path clip-path="url(#clip760)" d="M1547.91 14.324 L1547.91 27.2059 L1563.26 27.2059 L1563.26 32.9987 L1547.91 32.9987 L1547.91 57.6282 Q1547.91 63.1779 1549.41 64.7578 Q1550.95 66.3376 1555.61 66.3376 L1563.26 66.3376 L1563.26 72.576 L1555.61 72.576 Q1546.98 72.576 1543.7 69.3758 Q1540.42 66.1351 1540.42 57.6282 L1540.42 32.9987 L1534.95 32.9987 L1534.95 27.2059 L1540.42 27.2059 L1540.42 14.324 L1547.91 14.324 Z" fill="#000000" fill-rule="evenodd" fill-opacity="1" /><path clip-path="url(#clip760)" d="M1573.07 27.2059 L1580.52 27.2059 L1580.52 72.576 L1573.07 72.576 L1573.07 27.2059 M1573.07 9.54393 L1580.52 9.54393 L1580.52 18.9825 L1573.07 18.9825 L1573.07 9.54393 Z" fill="#000000" fill-rule="evenodd" fill-opacity="1" /><path clip-path="url(#clip760)" d="M1613.7 32.4315 Q1607.7 32.4315 1604.22 37.1306 Q1600.73 41.7891 1600.73 49.9314 Q1600.73 58.0738 1604.18 62.7728 Q1607.66 67.4314 1613.7 67.4314 Q1619.65 67.4314 1623.14 62.7323 Q1626.62 58.0333 1626.62 49.9314 Q1626.62 41.8701 1623.14 37.1711 Q1619.65 32.4315 1613.7 32.4315 M1613.7 26.1121 Q1623.42 26.1121 1628.97 32.4315 Q1634.52 38.7509 1634.52 49.9314 Q1634.52 61.0714 1628.97 67.4314 Q1623.42 73.7508 1613.7 73.7508 Q1603.93 73.7508 1598.38 67.4314 Q1592.87 61.0714 1592.87 49.9314 Q1592.87 38.7509 1598.38 32.4315 Q1603.93 26.1121 1613.7 26.1121 Z" fill="#000000" fill-rule="evenodd" fill-opacity="1" /><path clip-path="url(#clip760)" d="M1684.59 45.1919 L1684.59 72.576 L1677.13 72.576 L1677.13 45.4349 Q1677.13 38.994 1674.62 35.7938 Q1672.11 32.5936 1667.09 32.5936 Q1661.05 32.5936 1657.57 36.4419 Q1654.08 40.2903 1654.08 46.9338 L1654.08 72.576 L1646.59 72.576 L1646.59 27.2059 L1654.08 27.2059 L1654.08 34.2544 Q1656.76 30.163 1660.36 28.1376 Q1664.01 26.1121 1668.75 26.1121 Q1676.57 26.1121 1680.58 30.9732 Q1684.59 35.7938 1684.59 45.1919 Z" fill="#000000" fill-rule="evenodd" fill-opacity="1" /><path clip-path="url(#clip760)" d="M1728.38 28.5427 L1728.38 35.5912 Q1725.22 33.9709 1721.82 33.1607 Q1718.41 32.3505 1714.77 32.3505 Q1709.22 32.3505 1706.42 34.0519 Q1703.67 35.7533 1703.67 39.156 Q1703.67 41.7486 1705.65 43.2475 Q1707.64 44.7058 1713.63 46.0426 L1716.18 46.6097 Q1724.12 48.3111 1727.45 51.4303 Q1730.81 54.509 1730.81 60.0587 Q1730.81 66.3781 1725.79 70.0644 Q1720.8 73.7508 1712.05 73.7508 Q1708.41 73.7508 1704.44 73.0216 Q1700.51 72.3329 1696.13 70.9151 L1696.13 63.2184 Q1700.26 65.3654 1704.27 66.4591 Q1708.29 67.5124 1712.21 67.5124 Q1717.48 67.5124 1720.32 65.73 Q1723.15 63.9071 1723.15 60.6258 Q1723.15 57.5877 1721.09 55.9673 Q1719.06 54.3469 1712.13 52.8481 L1709.54 52.2405 Q1702.61 50.7821 1699.54 47.7845 Q1696.46 44.7463 1696.46 39.4801 Q1696.46 33.0797 1700.99 29.5959 Q1705.53 26.1121 1713.88 26.1121 Q1718.01 26.1121 1721.65 26.7198 Q1725.3 27.3274 1728.38 28.5427 Z" fill="#000000" fill-rule="evenodd" fill-opacity="1" /><polyline clip-path="url(#clip762)" style="stroke:#009af9; stroke-linecap:round; stroke-linejoin:round; stroke-width:4; stroke-opacity:1; fill:none" points="
  250.028,1386.25 250.085,1386.25 250.098,1386.25 250.113,1386.25 250.131,1386.25 250.15,1386.25 250.171,1386.25 250.196,1386.25 250.223,1386.25 250.254,1386.25 
  250.289,1386.25 250.328,1386.25 250.372,1386.25 250.421,1386.25 250.477,1386.25 250.539,1386.25 250.61,1386.25 250.689,1386.25 250.778,1386.25 250.878,1386.25 
  250.991,1386.25 251.118,1386.25 251.26,1386.26 251.421,1386.26 251.601,1386.26 251.805,1386.26 252.028,1386.26 252.272,1386.26 252.533,1386.27 252.81,1386.27 
  253.102,1386.27 253.408,1386.27 253.729,1386.27 254.061,1386.28 254.404,1386.28 254.757,1386.28 255.121,1386.28 255.494,1386.29 255.873,1386.29 256.259,1386.29 
  256.65,1386.29 257.044,1386.29 257.444,1386.3 257.849,1386.3 258.259,1386.3 258.675,1386.3 259.096,1386.31 259.523,1386.31 259.953,1386.31 260.389,1386.31 
  260.831,1386.32 261.278,1386.32 261.735,1386.32 262.197,1386.32 262.66,1386.33 263.124,1386.33 263.591,1386.33 264.06,1386.33 264.534,1386.33 265.011,1386.34 
  265.492,1386.34 265.98,1386.34 266.473,1386.34 266.97,1386.35 267.47,1386.35 267.975,1386.35 268.482,1386.35 268.996,1386.35 269.518,1386.36 270.045,1386.36 
  270.581,1386.36 271.124,1386.36 271.674,1386.36 272.233,1386.36 272.802,1386.37 273.381,1386.37 273.965,1386.37 274.561,1386.37 275.168,1386.37 275.787,1386.37 
  276.413,1386.37 277.048,1386.38 277.692,1386.38 278.341,1386.38 279.002,1386.38 279.678,1386.38 280.36,1386.38 281.049,1386.38 281.742,1386.38 282.441,1386.38 
  283.156,1386.39 283.886,1386.39 284.621,1386.39 285.359,1386.39 286.112,1386.39 286.874,1386.39 287.64,1386.39 288.407,1386.39 289.182,1386.39 289.959,1386.39 
  290.749,1386.39 291.539,1386.39 292.337,1386.39 293.141,1386.39 293.95,1386.4 294.774,1386.4 295.608,1386.4 296.462,1386.4 297.325,1386.4 298.207,1386.4 
  299.103,1386.4 300.011,1386.39 300.941,1386.39 301.895,1386.39 302.873,1386.39 303.874,1386.39 304.9,1386.39 305.942,1386.39 306.992,1386.39 308.055,1386.39 
  309.145,1386.39 310.259,1386.38 311.392,1386.38 312.524,1386.38 313.672,1386.38 314.832,1386.38 316.009,1386.38 317.173,1386.37 318.356,1386.37 319.581,1386.37 
  320.853,1386.37 322.162,1386.36 323.517,1386.36 324.918,1386.35 326.328,1386.35 327.712,1386.35 329.143,1386.34 330.574,1386.34 332.033,1386.34 333.488,1386.33 
  334.974,1386.33 336.515,1386.32 338.124,1386.32 339.742,1386.31 341.383,1386.3 343.127,1386.3 345.015,1386.29 347.061,1386.27 349.314,1386.26 351.623,1386.25 
  354.041,1386.24 356.372,1386.22 358.919,1386.21 361.642,1386.19 364.328,1386.18 366.833,1386.16 369.318,1386.15 371.756,1386.14 374.154,1386.13 376.409,1386.12 
  378.686,1386.11 380.928,1386.09 383.219,1386.08 385.515,1386.07 387.904,1386.05 390.546,1386.03 393.31,1386.01 396.162,1385.99 399.051,1385.97 402.137,1385.94 
  405.608,1385.91 409.258,1385.88 412.913,1385.84 416.683,1385.8 420.924,1385.76 425.695,1385.7 430.657,1385.64 436.238,1385.56 442.518,1385.46 449.583,1385.36 
  455.531,1385.26 462.223,1385.15 469.752,1385.04 476.617,1384.94 481.76,1384.86 487.073,1384.78 491.865,1384.72 496.178,1384.65 500.531,1384.58 504.907,1384.5 
  509.464,1384.43 513.576,1384.36 517.505,1384.3 521.018,1384.26 524.174,1384.22 527.176,1384.18 529.89,1384.15 532.485,1384.11 535.018,1384.08 537.58,1384.05 
  539.963,1384.02 542.2,1383.99 544.357,1383.96 546.489,1383.94 548.544,1383.91 550.617,1383.88 552.727,1383.85 554.83,1383.82 557.02,1383.78 559.29,1383.74 
  561.691,1383.7 564.052,1383.65 566.531,1383.6 569.315,1383.53 572.324,1383.46 575.708,1383.36 579.516,1383.24 583.8,1383.1 588.619,1382.94 594.04,1382.77 
  598.488,1382.63 603.025,1382.48 608.129,1382.27 613.87,1382.01 620.33,1381.69 625.526,1381.45 631.372,1381.2 637.19,1380.95 642.057,1380.73 647.532,1380.48 
  652.909,1380.22 658.562,1379.94 664.129,1379.64 670.021,1379.31 676.139,1378.96 682.282,1378.59 688.718,1378.21 694.837,1377.74 701.722,1377.18 709.467,1376.59 
  714.026,1376.21 719.155,1375.77 724.925,1375.25 730.728,1374.69 737.257,1373.95 744.601,1373.06 751.614,1372.15 759.503,1371.01 768.116,1369.59 775.505,1368.2 
  782.069,1367.03 789.453,1365.67 797.76,1363.98 807.105,1362.16 817.618,1359.92 825.847,1358.13 835.105,1355.81 845.52,1353.08 854.637,1350.6 863.703,1348.25 
  871.711,1345.96 879.526,1343.64 886.782,1341.32 894.865,1338.42 903.549,1335.2 911.765,1332.03 919.816,1329.13 927.057,1326.36 933.535,1323.58 940.241,1320.5 
  947.785,1317.08 954.13,1314.21 960.132,1311.19 966.525,1307.55 973.598,1303.54 981.177,1299.53 987.07,1296.68 992.281,1294.05 997.358,1291.77 1001.8,1289.84 
  1005.82,1288.23 1009.41,1286.79 1012.67,1285.29 1016,1283.55 1019.31,1281.6 1022.94,1279.25 1026.92,1276.72 1030.76,1274.35 1034.55,1271.96 1038.26,1269.67 
  1041.9,1267.38 1045.51,1264.78 1049.47,1261.7 1053.91,1258 1058.49,1253.7 1063.65,1248.71 1069.45,1243.38 1074.74,1238.06 1080.69,1231.48 1087.39,1222.46 
  1094.92,1211.29 1101.68,1201.36 1109.28,1188.45 1116.53,1175.65 1123.8,1163.57 1131.97,1149.01 1140.15,1134.17 1148.63,1117.56 1157.1,1099.04 1165.13,1082.6 
  1173.43,1065.62 1181.29,1045.85 1189.03,1026.7 1196.64,1007.18 1204.04,986.167 1211.13,965.775 1217.8,944.648 1224.46,922.888 1230.37,903.647 1236.48,883.286 
  1242.28,861.362 1247.74,839.325 1252.66,820.571 1257.63,799.06 1262.23,775.471 1266.18,754.158 1269.82,735.011 1273.4,715.967 1276.79,699.13 1280.25,680.542 
  1283.51,662.345 1286.6,644.551 1289.55,629.365 1292.55,613.885 1295.59,599.629 1298.64,586.471 1301.85,573.133 1305.07,560.161 1308.33,546.507 1311.59,532.628 
  1314.84,516.336 1317.94,499.09 1320.84,485.241 1323.85,471.367 1326.83,459.058 1329.88,445.995 1332.92,432.842 1335.89,420.35 1338.89,408.078 1341.88,394.835 
  1344.81,381.505 1347.67,368.778 1350.53,356.153 1353.34,344.083 1356.12,334.196 1358.98,324.597 1361.83,316.125 1364.71,306.725 1367.57,297.607 1370.42,288.351 
  1373.25,279.941 1376.09,273.66 1378.94,266.813 1381.79,259.801 1384.64,252.711 1387.47,246.417 1390.31,240.835 1393.15,235.49 1395.99,229.998 1398.82,224.637 
  1401.65,219.281 1404.48,214.623 1407.3,210.168 1410.12,205.347 1412.93,199.65 1415.72,194.473 1418.47,191.084 1421.28,187.917 1424.08,185.225 1426.88,183.001 
  1429.69,180.316 1432.49,177.85 1435.3,175.169 1438.1,171.668 1440.85,169.201 1443.63,166.56 1446.38,164.512 1449.16,162.49 1451.91,161.143 1454.67,160.914 
  1457.47,160.256 1460.24,160.846 1463.05,162.79 1465.88,165.935 1468.72,169.601 1471.55,173.098 1474.41,176.564 1477.29,180.202 1480.18,184.216 1483.1,190.007 
  1485.97,196.341 1488.87,203.087 1491.73,211.15 1494.51,218.008 1497.34,223.702 1500.29,228.432 1503.27,233.727 1506.28,240.093 1509.32,246.263 1512.41,252.507 
  1515.52,259.672 1518.66,268.397 1521.8,277.736 1524.84,286.443 1528.02,295.315 1531.18,303.421 1534.43,311.455 1537.72,320.737 1541.06,330.589 1544.34,339.655 
  1547.74,347.367 1551.16,354.049 1554.54,360.556 1557.9,366.559 1561.19,373.501 1564.54,380.693 1567.89,389.831 1571.41,400.455 1575,410.992 1578.65,422.176 
  1582.36,433.531 1586.14,445.666 1589.97,458.847 1593.81,471.027 1597.78,483.006 1601.79,495.036 1605.87,506.675 1609.99,518.397 1614.11,530.6 1618.33,544.205 
  1622.66,558.463 1627.06,572.255 1631.55,585.593 1636.07,599.385 1640.71,613.565 1645.4,627.124 1650.15,640.932 1654.89,655.257 1659.87,669.451 1664.76,683.209 
  1669.51,696.146 1674.46,709.732 1679.45,723.965 1684.4,738.346 1689.73,753.806 1695.21,769.236 1700.74,784.866 1706.45,801.664 1712.45,819.292 1718.47,836.323 
  1724.8,854.468 1731.14,872.047 1737.7,889.448 1744.62,907.285 1751.76,924.864 1759.23,943.16 1766.98,961.397 1775.07,980.312 1783.23,998.29 1791.43,1015.64 
  1800.47,1034.58 1809.72,1052.84 1818.55,1068.71 1828.48,1086.84 1838.73,1105.09 1847.5,1119.58 1857.36,1134.1 1868.46,1149.63 1879.21,1163.89 1891.26,1178.53 
  1903.17,1192.26 1915.6,1205.39 1927.07,1217.17 1939.98,1230.24 1954.08,1244.01 1965.75,1254.49 1976.38,1263.22 1987.62,1272.21 1998.74,1280.34 2009.42,1287.55 
  2019.53,1294.46 2025.05,1298.11 2030.02,1301.26 2035.03,1304.15 2040.53,1307.31 2045.89,1310.29 2050.66,1312.86 2055.56,1315.4 2060.2,1317.72 2064.84,1320 
  2069.42,1322.2 2073.59,1324.13 2077.8,1326.01 2081.86,1327.75 2086.19,1329.5 2091,1331.39 2096.08,1333.37 2100.6,1335.09 2104.83,1336.64 2109.28,1338.16 
  2114.14,1339.72 2119.62,1341.39 2125.78,1343.2 2132.17,1344.99 2139.36,1346.9 2147.45,1348.91 2156.54,1350.93 2165.35,1352.73 2171.34,1353.89 2178.06,1355.14 
  2184.26,1356.26 2190.6,1357.36 2197.04,1358.39 2203.27,1359.38 2208.94,1360.28 2215.31,1361.32 2222.48,1362.45 2230.54,1363.64 2237.29,1364.62 2244.88,1365.69 
  2253.41,1366.87 2263.02,1368.18 2268.43,1368.87 2274.52,1369.6 2281.38,1370.4 2286.79,1370.98 2292.88,1371.62 2299.73,1372.29 2307.4,1373.01 2316.02,1373.73 
  2323.62,1374.32 2330.27,1374.83 2337.74,1375.36 2344.67,1375.84 2352.05,1376.34 2352.76,1376.39 
  "/>
<polyline clip-path="url(#clip762)" style="stroke:#e26f46; stroke-linecap:round; stroke-linejoin:round; stroke-width:4; stroke-opacity:1; fill:none" points="
  250.028,1386.25 250.085,1386.25 250.098,1386.25 250.113,1386.25 250.13,1386.25 250.15,1386.25 250.171,1386.25 250.196,1386.25 250.223,1386.25 250.254,1386.25 
  250.289,1386.25 250.328,1386.25 250.372,1386.25 250.421,1386.25 250.477,1386.25 250.539,1386.25 250.61,1386.25 250.689,1386.25 250.778,1386.25 250.878,1386.25 
  250.991,1386.25 251.117,1386.25 251.26,1386.26 251.42,1386.26 251.601,1386.26 251.804,1386.26 252.031,1386.26 252.279,1386.26 252.549,1386.26 252.84,1386.27 
  253.15,1386.27 253.477,1386.27 253.822,1386.27 254.184,1386.27 254.563,1386.28 254.956,1386.28 255.364,1386.28 255.786,1386.28 256.221,1386.28 256.667,1386.29 
  257.121,1386.29 257.583,1386.29 258.051,1386.29 258.529,1386.29 259.016,1386.3 259.51,1386.3 260.009,1386.3 260.515,1386.3 261.033,1386.3 261.556,1386.31 
  262.085,1386.31 262.62,1386.31 263.159,1386.31 263.7,1386.31 264.254,1386.32 264.812,1386.32 265.381,1386.32 265.962,1386.32 266.555,1386.32 267.156,1386.32 
  267.769,1386.33 268.395,1386.33 269.032,1386.33 269.678,1386.33 270.335,1386.33 271.001,1386.33 271.683,1386.33 272.381,1386.33 273.095,1386.33 273.833,1386.34 
  274.591,1386.34 275.367,1386.34 276.161,1386.34 276.976,1386.34 277.812,1386.34 278.672,1386.34 279.538,1386.34 280.429,1386.34 281.336,1386.33 282.259,1386.33 
  283.182,1386.33 284.133,1386.33 285.103,1386.33 286.099,1386.33 287.117,1386.33 288.138,1386.33 289.199,1386.33 290.272,1386.33 291.339,1386.33 292.395,1386.32 
  293.469,1386.32 294.551,1386.32 295.644,1386.32 296.763,1386.32 297.933,1386.32 299.14,1386.31 300.397,1386.31 301.676,1386.31 302.966,1386.3 304.268,1386.3 
  305.585,1386.3 306.922,1386.29 308.288,1386.29 309.668,1386.29 311.039,1386.28 312.403,1386.28 313.739,1386.28 315.083,1386.28 316.432,1386.27 317.787,1386.27 
  319.153,1386.27 320.505,1386.26 321.867,1386.26 323.243,1386.26 324.607,1386.25 325.948,1386.25 327.302,1386.25 328.676,1386.24 330.036,1386.24 331.406,1386.24 
  332.794,1386.23 334.139,1386.23 335.482,1386.23 336.813,1386.22 338.162,1386.22 339.517,1386.22 340.893,1386.21 342.304,1386.21 343.74,1386.21 345.182,1386.2 
  346.647,1386.2 348.155,1386.19 349.738,1386.18 351.366,1386.18 353.101,1386.17 354.904,1386.16 356.804,1386.15 358.813,1386.13 360.982,1386.12 363.331,1386.1 
  365.974,1386.08 368.892,1386.06 371.986,1386.03 375.466,1386 379.296,1385.97 383.406,1385.93 387.713,1385.89 392.558,1385.84 397.37,1385.79 402.126,1385.73 
  407.475,1385.66 413.494,1385.55 417.331,1385.48 421.554,1385.4 425.94,1385.3 430.26,1385.2 434.606,1385.09 438.63,1384.99 442.858,1384.87 446.929,1384.75 
  450.821,1384.63 454.719,1384.52 459.103,1384.37 463.201,1384.24 467.424,1384.09 472.034,1383.92 476.46,1383.75 481.278,1383.57 486.42,1383.36 492.204,1383.13 
  497.779,1382.86 503.002,1382.56 506.824,1382.32 510.837,1382.05 514.245,1381.81 517.695,1381.55 520.983,1381.3 524.081,1381.04 527.188,1380.79 530.242,1380.54 
  533.452,1380.27 536.715,1379.97 539.843,1379.66 542.897,1379.36 545.9,1379.08 549.217,1378.77 552.935,1378.4 556.696,1378.03 560.727,1377.63 565.209,1377.19 
  570.251,1376.68 575.923,1376.08 581.907,1375.48 588.64,1374.83 595.44,1374.15 602.727,1373.29 610.925,1372.17 619.49,1370.86 626.847,1369.9 635.124,1368.63 
  643.959,1367.23 653.898,1365.67 662.635,1364.13 671.439,1362.53 681.343,1360.77 688.938,1359.13 697.483,1356.88 707.096,1354.1 716.956,1350.79 724.206,1348.28 
  732.362,1345.19 741.538,1341.52 748.959,1338.44 757.309,1334.81 766.702,1330.21 777.27,1324.29 785.939,1318.58 793.394,1313.79 801.781,1308.49 811.216,1301.51 
  821.613,1293.43 832.275,1284.23 843.032,1272.32 850.336,1263.55 857.706,1253.9 865.275,1243.37 871.628,1234.55 878.775,1223.73 885.151,1213.32 891.975,1201.19 
  897.626,1191.33 903.983,1180.73 910.815,1170.14 918.502,1158.56 925.561,1148.66 932.157,1139.57 937.919,1130.62 944.255,1119.45 951.263,1105.9 958.529,1091.6 
  965.869,1074.25 973.336,1055.05 980.345,1035.07 986.612,1016.67 992.999,996.037 998.759,975.643 1004.06,958.037 1009.45,940.469 1015.03,921.766 1020.45,901.729 
  1025.62,881.473 1030.49,861.176 1035.14,842.29 1039.72,821.993 1044.17,799.678 1047.95,780.322 1051.68,761.353 1055.3,741.903 1058.71,723.626 1061.99,706.808 
  1065.31,689.515 1068.61,672.275 1071.76,654.339 1074.8,637.97 1077.87,622.117 1080.94,605.789 1083.96,590.051 1086.98,574.168 1089.93,558.817 1092.95,542.872 
  1095.86,528.398 1098.87,513.265 1101.8,498.995 1104.79,484.088 1107.7,470.162 1110.65,457.359 1113.64,444.503 1116.63,432.771 1119.66,421.062 1122.68,409.584 
  1125.71,399.109 1128.74,388.028 1131.76,376.667 1134.77,363.981 1137.74,351.467 1140.64,339.837 1143.54,329.203 1146.45,318.733 1149.35,308.028 1152.21,298.704 
  1155.08,290.511 1157.96,283.087 1160.83,275.159 1163.69,268.08 1166.54,260.022 1169.39,250.953 1172.2,241.583 1174.98,232.707 1177.74,223.052 1180.43,212.957 
  1183.07,204.946 1185.73,197.987 1188.42,193.609 1191.12,190.689 1193.82,186.695 1196.53,183.524 1199.24,180.91 1201.95,179.096 1204.66,177.3 1207.37,175.753 
  1210.1,175.735 1212.79,176.621 1215.45,178.049 1218.08,179.784 1220.68,179.987 1223.36,179.146 1226.07,178.397 1228.8,177.073 1231.55,176.744 1234.31,178.964 
  1237.04,182.698 1239.68,186.54 1242.31,190.47 1244.94,194.898 1247.56,199.806 1250.11,204.014 1252.74,208.146 1255.35,212.72 1257.98,216.459 1260.69,220.914 
  1263.36,225.136 1266.1,229.444 1268.85,234.887 1271.61,241.2 1274.32,248.651 1276.89,255.008 1279.53,261.507 1282.19,268.124 1284.87,275.133 1287.52,282.248 
  1290.16,289.474 1292.81,297.114 1295.46,305.296 1298.09,314.263 1300.57,323.011 1303.01,331.72 1305.4,340.197 1307.78,348.349 1310.17,357.327 1312.45,366.045 
  1314.68,374.165 1316.97,382.742 1319.18,390.471 1321.46,398.183 1323.82,405.774 1326.25,413.795 1328.71,421.746 1331.18,429.576 1333.81,438.941 1336.26,447.754 
  1338.69,456.033 1341.21,464.36 1343.71,472.777 1346.31,482.138 1348.81,491.331 1351.23,500.327 1353.64,509.183 1356.01,517.902 1358.4,526.737 1360.74,534.629 
  1363.21,542.946 1365.71,551.18 1368.25,558.816 1371.01,567.059 1373.87,575.129 1376.92,584.4 1379.9,592.625 1383.09,601.046 1386.51,610.153 1390.09,619.723 
  1393.76,630.227 1397.31,640.703 1400.88,650.236 1404.72,659.946 1408.82,670.81 1412.9,681.321 1417.1,691.811 1421.55,701.998 1426.24,711.897 1431.09,722.368 
  1436.11,733.313 1441.29,744.964 1446.63,758.204 1451.97,770.145 1457.61,782.558 1463.37,794.29 1469.19,806.3 1475.04,818.942 1481.15,832.598 1487.47,846.432 
  1493.98,860.866 1500.63,875.954 1507.45,890.625 1514.5,905.611 1521.69,920.719 1529.24,936.853 1536.85,953.438 1543.4,968.024 1550,982.404 1555.74,994.564 
  1561.68,1005.96 1568.13,1017.8 1575.15,1031.29 1581.55,1043.58 1587.12,1054 1592.88,1064.35 1598.72,1074.33 1604.66,1084.62 1610.26,1093.85 1615.8,1102.7 
  1621.5,1111.07 1627.92,1120.15 1635.14,1130.61 1640.85,1138.76 1647.01,1147.47 1652.78,1155.85 1657.69,1162.49 1662.75,1168.74 1668.44,1175.27 1674.53,1181.5 
  1681.39,1188.62 1689.1,1196.38 1697.78,1204.57 1707.54,1213.2 1717.57,1221.6 1727.07,1229.87 1737.76,1239.03 1745.93,1245.67 1755.13,1252.69 1764.88,1259.91 
  1775.04,1266.57 1786.47,1273.94 1799.33,1282.09 1807.16,1287.15 1813.62,1291.1 1819.74,1294.66 1826.07,1298.42 1830.7,1301.18 1834.86,1303.53 1838.92,1305.71 
  1842.96,1307.8 1847.02,1309.8 1851.41,1311.83 1856.36,1314.04 1861.57,1316.41 1866.52,1318.56 1871.37,1320.65 1875.92,1322.51 1880.91,1324.39 1886.52,1326.48 
  1892.55,1328.66 1898.65,1330.94 1903.5,1332.77 1907.71,1334.29 1911.87,1335.77 1915.72,1337.08 1919.52,1338.3 1923.54,1339.51 1928.01,1340.86 1932.32,1342.09 
  1937.05,1343.39 1941.74,1344.6 1947.02,1345.91 1952.84,1347.3 1959.38,1348.9 1964.39,1350.04 1970.02,1351.29 1976.35,1352.66 1982.19,1353.87 1988.6,1355.18 
  1994.53,1356.34 2000.48,1357.47 2006.29,1358.52 2012.35,1359.58 2018.32,1360.62 2023.55,1361.51 2028.78,1362.34 2034.03,1363.12 2039.79,1363.92 2046.27,1364.76 
  2053.56,1365.66 2061.76,1366.63 2070.99,1367.7 2078.16,1368.52 2085.12,1369.26 2092.94,1370.15 2098.83,1370.78 2104.41,1371.31 2110.68,1371.92 2117.19,1372.53 
  2122.8,1373.06 2127.79,1373.53 2132.44,1373.95 2137.01,1374.35 2141.05,1374.71 2144.9,1375.03 2148.67,1375.34 2152.39,1375.63 2156.24,1375.93 2159.95,1376.21 
  2163.52,1376.46 2167.21,1376.72 2170.98,1376.99 2174.57,1377.23 2178.09,1377.47 2181.78,1377.7 2185.25,1377.92 2188.79,1378.14 2192.5,1378.36 2196.4,1378.58 
  2200.23,1378.79 2204.55,1379.01 2208.98,1379.23 2213.96,1379.47 2218.97,1379.7 2224.61,1379.94 2230.95,1380.2 2238.08,1380.48 2246.11,1380.78 2253.94,1381.07 
  2262.76,1381.39 2267.74,1381.56 2273.34,1381.76 2279.14,1381.96 2284.55,1382.13 2290.26,1382.31 2296.58,1382.49 2302.98,1382.68 2309.59,1382.86 2315.8,1383.03 
  2322.16,1383.18 2329.32,1383.34 2336.93,1383.52 2342.57,1383.65 2348.86,1383.79 2352.76,1383.87 
  "/>
<path clip-path="url(#clip760)" d="
M1797.32 322.316 L2282.66 322.316 L2282.66 166.796 L1797.32 166.796  Z
  " fill="#ffffff" fill-rule="evenodd" fill-opacity="1"/>
<polyline clip-path="url(#clip760)" style="stroke:#000000; stroke-linecap:round; stroke-linejoin:round; stroke-width:4; stroke-opacity:1; fill:none" points="
  1797.32,322.316 2282.66,322.316 2282.66,166.796 1797.32,166.796 1797.32,322.316 
  "/>
<polyline clip-path="url(#clip760)" style="stroke:#009af9; stroke-linecap:round; stroke-linejoin:round; stroke-width:4; stroke-opacity:1; fill:none" points="
  1820.69,218.636 1960.87,218.636 
  "/>
<path clip-path="url(#clip760)" d="M1984.23 201.356 L2013.47 201.356 L2013.47 205.291 L2001.2 205.291 L2001.2 235.916 L1996.5 235.916 L1996.5 205.291 L1984.23 205.291 L1984.23 201.356 Z" fill="#000000" fill-rule="evenodd" fill-opacity="1" /><path clip-path="url(#clip760)" d="M2025.85 213.971 Q2025.14 213.555 2024.28 213.37 Q2023.45 213.161 2022.43 213.161 Q2018.82 213.161 2016.87 215.522 Q2014.95 217.86 2014.95 222.258 L2014.95 235.916 L2010.67 235.916 L2010.67 209.99 L2014.95 209.99 L2014.95 214.018 Q2016.29 211.657 2018.45 210.522 Q2020.6 209.365 2023.68 209.365 Q2024.12 209.365 2024.65 209.434 Q2025.18 209.481 2025.83 209.596 L2025.85 213.971 Z" fill="#000000" fill-rule="evenodd" fill-opacity="1" /><path clip-path="url(#clip760)" d="M2042.1 222.883 Q2036.94 222.883 2034.95 224.064 Q2032.96 225.244 2032.96 228.092 Q2032.96 230.36 2034.44 231.703 Q2035.95 233.022 2038.52 233.022 Q2042.06 233.022 2044.19 230.522 Q2046.34 227.999 2046.34 223.832 L2046.34 222.883 L2042.1 222.883 M2050.6 221.124 L2050.6 235.916 L2046.34 235.916 L2046.34 231.981 Q2044.88 234.342 2042.71 235.476 Q2040.53 236.587 2037.38 236.587 Q2033.4 236.587 2031.04 234.365 Q2028.7 232.119 2028.7 228.369 Q2028.7 223.994 2031.62 221.772 Q2034.56 219.55 2040.37 219.55 L2046.34 219.55 L2046.34 219.133 Q2046.34 216.194 2044.4 214.596 Q2042.47 212.976 2038.98 212.976 Q2036.76 212.976 2034.65 213.508 Q2032.54 214.041 2030.6 215.106 L2030.6 211.17 Q2032.94 210.268 2035.14 209.828 Q2037.33 209.365 2039.42 209.365 Q2045.04 209.365 2047.82 212.282 Q2050.6 215.198 2050.6 221.124 Z" fill="#000000" fill-rule="evenodd" fill-opacity="1" /><path clip-path="url(#clip760)" d="M2059.37 209.99 L2063.63 209.99 L2063.63 236.379 Q2063.63 241.332 2061.73 243.555 Q2059.86 245.777 2055.67 245.777 L2054.05 245.777 L2054.05 242.166 L2055.18 242.166 Q2057.61 242.166 2058.49 241.031 Q2059.37 239.92 2059.37 236.379 L2059.37 209.99 M2059.37 199.897 L2063.63 199.897 L2063.63 205.291 L2059.37 205.291 L2059.37 199.897 Z" fill="#000000" fill-rule="evenodd" fill-opacity="1" /><path clip-path="url(#clip760)" d="M2094.72 221.888 L2094.72 223.971 L2075.14 223.971 Q2075.41 228.369 2077.77 230.684 Q2080.16 232.976 2084.39 232.976 Q2086.85 232.976 2089.14 232.374 Q2091.46 231.772 2093.72 230.569 L2093.72 234.596 Q2091.43 235.568 2089.02 236.078 Q2086.62 236.587 2084.14 236.587 Q2077.94 236.587 2074.3 232.976 Q2070.69 229.365 2070.69 223.207 Q2070.69 216.842 2074.12 213.115 Q2077.57 209.365 2083.4 209.365 Q2088.63 209.365 2091.66 212.745 Q2094.72 216.101 2094.72 221.888 M2090.46 220.638 Q2090.41 217.143 2088.49 215.059 Q2086.59 212.976 2083.45 212.976 Q2079.88 212.976 2077.73 214.99 Q2075.6 217.004 2075.27 220.661 L2090.46 220.638 Z" fill="#000000" fill-rule="evenodd" fill-opacity="1" /><path clip-path="url(#clip760)" d="M2120.37 210.985 L2120.37 214.967 Q2118.56 213.971 2116.73 213.485 Q2114.93 212.976 2113.08 212.976 Q2108.93 212.976 2106.64 215.615 Q2104.35 218.231 2104.35 222.976 Q2104.35 227.721 2106.64 230.36 Q2108.93 232.976 2113.08 232.976 Q2114.93 232.976 2116.73 232.49 Q2118.56 231.981 2120.37 230.985 L2120.37 234.92 Q2118.58 235.754 2116.66 236.17 Q2114.77 236.587 2112.61 236.587 Q2106.76 236.587 2103.31 232.906 Q2099.86 229.226 2099.86 222.976 Q2099.86 216.633 2103.33 212.999 Q2106.83 209.365 2112.89 209.365 Q2114.86 209.365 2116.73 209.782 Q2118.61 210.175 2120.37 210.985 Z" fill="#000000" fill-rule="evenodd" fill-opacity="1" /><path clip-path="url(#clip760)" d="M2131.99 202.629 L2131.99 209.99 L2140.76 209.99 L2140.76 213.3 L2131.99 213.3 L2131.99 227.374 Q2131.99 230.545 2132.84 231.448 Q2133.72 232.351 2136.39 232.351 L2140.76 232.351 L2140.76 235.916 L2136.39 235.916 Q2131.45 235.916 2129.58 234.087 Q2127.7 232.235 2127.7 227.374 L2127.7 213.3 L2124.58 213.3 L2124.58 209.99 L2127.7 209.99 L2127.7 202.629 L2131.99 202.629 Z" fill="#000000" fill-rule="evenodd" fill-opacity="1" /><path clip-path="url(#clip760)" d="M2156.41 212.976 Q2152.98 212.976 2150.99 215.661 Q2149 218.323 2149 222.976 Q2149 227.629 2150.97 230.314 Q2152.96 232.976 2156.41 232.976 Q2159.81 232.976 2161.8 230.291 Q2163.79 227.606 2163.79 222.976 Q2163.79 218.37 2161.8 215.684 Q2159.81 212.976 2156.41 212.976 M2156.41 209.365 Q2161.96 209.365 2165.14 212.976 Q2168.31 216.587 2168.31 222.976 Q2168.31 229.342 2165.14 232.976 Q2161.96 236.587 2156.41 236.587 Q2150.83 236.587 2147.66 232.976 Q2144.51 229.342 2144.51 222.976 Q2144.51 216.587 2147.66 212.976 Q2150.83 209.365 2156.41 209.365 Z" fill="#000000" fill-rule="evenodd" fill-opacity="1" /><path clip-path="url(#clip760)" d="M2190.39 213.971 Q2189.67 213.555 2188.82 213.37 Q2187.98 213.161 2186.96 213.161 Q2183.35 213.161 2181.41 215.522 Q2179.49 217.86 2179.49 222.258 L2179.49 235.916 L2175.2 235.916 L2175.2 209.99 L2179.49 209.99 L2179.49 214.018 Q2180.83 211.657 2182.98 210.522 Q2185.14 209.365 2188.21 209.365 Q2188.65 209.365 2189.19 209.434 Q2189.72 209.481 2190.37 209.596 L2190.39 213.971 Z" fill="#000000" fill-rule="evenodd" fill-opacity="1" /><path clip-path="url(#clip760)" d="M2205.64 238.323 Q2203.84 242.953 2202.13 244.365 Q2200.41 245.777 2197.54 245.777 L2194.14 245.777 L2194.14 242.212 L2196.64 242.212 Q2198.4 242.212 2199.37 241.379 Q2200.34 240.545 2201.52 237.443 L2202.29 235.499 L2191.8 209.99 L2196.32 209.99 L2204.42 230.268 L2212.52 209.99 L2217.03 209.99 L2205.64 238.323 Z" fill="#000000" fill-rule="evenodd" fill-opacity="1" /><path clip-path="url(#clip760)" d="M2239.39 231.981 L2247.03 231.981 L2247.03 205.615 L2238.72 207.282 L2238.72 203.022 L2246.99 201.356 L2251.66 201.356 L2251.66 231.981 L2259.3 231.981 L2259.3 235.916 L2239.39 235.916 L2239.39 231.981 Z" fill="#000000" fill-rule="evenodd" fill-opacity="1" /><polyline clip-path="url(#clip760)" style="stroke:#e26f46; stroke-linecap:round; stroke-linejoin:round; stroke-width:4; stroke-opacity:1; fill:none" points="
  1820.69,270.476 1960.87,270.476 
  "/>
<path clip-path="url(#clip760)" d="M1984.23 253.196 L2013.47 253.196 L2013.47 257.131 L2001.2 257.131 L2001.2 287.756 L1996.5 287.756 L1996.5 257.131 L1984.23 257.131 L1984.23 253.196 Z" fill="#000000" fill-rule="evenodd" fill-opacity="1" /><path clip-path="url(#clip760)" d="M2025.85 265.811 Q2025.14 265.395 2024.28 265.21 Q2023.45 265.001 2022.43 265.001 Q2018.82 265.001 2016.87 267.362 Q2014.95 269.7 2014.95 274.098 L2014.95 287.756 L2010.67 287.756 L2010.67 261.83 L2014.95 261.83 L2014.95 265.858 Q2016.29 263.497 2018.45 262.362 Q2020.6 261.205 2023.68 261.205 Q2024.12 261.205 2024.65 261.274 Q2025.18 261.321 2025.83 261.436 L2025.85 265.811 Z" fill="#000000" fill-rule="evenodd" fill-opacity="1" /><path clip-path="url(#clip760)" d="M2042.1 274.723 Q2036.94 274.723 2034.95 275.904 Q2032.96 277.084 2032.96 279.932 Q2032.96 282.2 2034.44 283.543 Q2035.95 284.862 2038.52 284.862 Q2042.06 284.862 2044.19 282.362 Q2046.34 279.839 2046.34 275.672 L2046.34 274.723 L2042.1 274.723 M2050.6 272.964 L2050.6 287.756 L2046.34 287.756 L2046.34 283.821 Q2044.88 286.182 2042.71 287.316 Q2040.53 288.427 2037.38 288.427 Q2033.4 288.427 2031.04 286.205 Q2028.7 283.959 2028.7 280.209 Q2028.7 275.834 2031.62 273.612 Q2034.56 271.39 2040.37 271.39 L2046.34 271.39 L2046.34 270.973 Q2046.34 268.034 2044.4 266.436 Q2042.47 264.816 2038.98 264.816 Q2036.76 264.816 2034.65 265.348 Q2032.54 265.881 2030.6 266.946 L2030.6 263.01 Q2032.94 262.108 2035.14 261.668 Q2037.33 261.205 2039.42 261.205 Q2045.04 261.205 2047.82 264.122 Q2050.6 267.038 2050.6 272.964 Z" fill="#000000" fill-rule="evenodd" fill-opacity="1" /><path clip-path="url(#clip760)" d="M2059.37 261.83 L2063.63 261.83 L2063.63 288.219 Q2063.63 293.172 2061.73 295.395 Q2059.86 297.617 2055.67 297.617 L2054.05 297.617 L2054.05 294.006 L2055.18 294.006 Q2057.61 294.006 2058.49 292.871 Q2059.37 291.76 2059.37 288.219 L2059.37 261.83 M2059.37 251.737 L2063.63 251.737 L2063.63 257.131 L2059.37 257.131 L2059.37 251.737 Z" fill="#000000" fill-rule="evenodd" fill-opacity="1" /><path clip-path="url(#clip760)" d="M2094.72 273.728 L2094.72 275.811 L2075.14 275.811 Q2075.41 280.209 2077.77 282.524 Q2080.16 284.816 2084.39 284.816 Q2086.85 284.816 2089.14 284.214 Q2091.46 283.612 2093.72 282.409 L2093.72 286.436 Q2091.43 287.408 2089.02 287.918 Q2086.62 288.427 2084.14 288.427 Q2077.94 288.427 2074.3 284.816 Q2070.69 281.205 2070.69 275.047 Q2070.69 268.682 2074.12 264.955 Q2077.57 261.205 2083.4 261.205 Q2088.63 261.205 2091.66 264.585 Q2094.72 267.941 2094.72 273.728 M2090.46 272.478 Q2090.41 268.983 2088.49 266.899 Q2086.59 264.816 2083.45 264.816 Q2079.88 264.816 2077.73 266.83 Q2075.6 268.844 2075.27 272.501 L2090.46 272.478 Z" fill="#000000" fill-rule="evenodd" fill-opacity="1" /><path clip-path="url(#clip760)" d="M2120.37 262.825 L2120.37 266.807 Q2118.56 265.811 2116.73 265.325 Q2114.93 264.816 2113.08 264.816 Q2108.93 264.816 2106.64 267.455 Q2104.35 270.071 2104.35 274.816 Q2104.35 279.561 2106.64 282.2 Q2108.93 284.816 2113.08 284.816 Q2114.93 284.816 2116.73 284.33 Q2118.56 283.821 2120.37 282.825 L2120.37 286.76 Q2118.58 287.594 2116.66 288.01 Q2114.77 288.427 2112.61 288.427 Q2106.76 288.427 2103.31 284.746 Q2099.86 281.066 2099.86 274.816 Q2099.86 268.473 2103.33 264.839 Q2106.83 261.205 2112.89 261.205 Q2114.86 261.205 2116.73 261.622 Q2118.61 262.015 2120.37 262.825 Z" fill="#000000" fill-rule="evenodd" fill-opacity="1" /><path clip-path="url(#clip760)" d="M2131.99 254.469 L2131.99 261.83 L2140.76 261.83 L2140.76 265.14 L2131.99 265.14 L2131.99 279.214 Q2131.99 282.385 2132.84 283.288 Q2133.72 284.191 2136.39 284.191 L2140.76 284.191 L2140.76 287.756 L2136.39 287.756 Q2131.45 287.756 2129.58 285.927 Q2127.7 284.075 2127.7 279.214 L2127.7 265.14 L2124.58 265.14 L2124.58 261.83 L2127.7 261.83 L2127.7 254.469 L2131.99 254.469 Z" fill="#000000" fill-rule="evenodd" fill-opacity="1" /><path clip-path="url(#clip760)" d="M2156.41 264.816 Q2152.98 264.816 2150.99 267.501 Q2149 270.163 2149 274.816 Q2149 279.469 2150.97 282.154 Q2152.96 284.816 2156.41 284.816 Q2159.81 284.816 2161.8 282.131 Q2163.79 279.446 2163.79 274.816 Q2163.79 270.21 2161.8 267.524 Q2159.81 264.816 2156.41 264.816 M2156.41 261.205 Q2161.96 261.205 2165.14 264.816 Q2168.31 268.427 2168.31 274.816 Q2168.31 281.182 2165.14 284.816 Q2161.96 288.427 2156.41 288.427 Q2150.83 288.427 2147.66 284.816 Q2144.51 281.182 2144.51 274.816 Q2144.51 268.427 2147.66 264.816 Q2150.83 261.205 2156.41 261.205 Z" fill="#000000" fill-rule="evenodd" fill-opacity="1" /><path clip-path="url(#clip760)" d="M2190.39 265.811 Q2189.67 265.395 2188.82 265.21 Q2187.98 265.001 2186.96 265.001 Q2183.35 265.001 2181.41 267.362 Q2179.49 269.7 2179.49 274.098 L2179.49 287.756 L2175.2 287.756 L2175.2 261.83 L2179.49 261.83 L2179.49 265.858 Q2180.83 263.497 2182.98 262.362 Q2185.14 261.205 2188.21 261.205 Q2188.65 261.205 2189.19 261.274 Q2189.72 261.321 2190.37 261.436 L2190.39 265.811 Z" fill="#000000" fill-rule="evenodd" fill-opacity="1" /><path clip-path="url(#clip760)" d="M2205.64 290.163 Q2203.84 294.793 2202.13 296.205 Q2200.41 297.617 2197.54 297.617 L2194.14 297.617 L2194.14 294.052 L2196.64 294.052 Q2198.4 294.052 2199.37 293.219 Q2200.34 292.385 2201.52 289.283 L2202.29 287.339 L2191.8 261.83 L2196.32 261.83 L2204.42 282.108 L2212.52 261.83 L2217.03 261.83 L2205.64 290.163 Z" fill="#000000" fill-rule="evenodd" fill-opacity="1" /><path clip-path="url(#clip760)" d="M2242.61 283.821 L2258.93 283.821 L2258.93 287.756 L2236.99 287.756 L2236.99 283.821 Q2239.65 281.066 2244.23 276.436 Q2248.84 271.784 2250.02 270.441 Q2252.26 267.918 2253.14 266.182 Q2254.05 264.423 2254.05 262.733 Q2254.05 259.978 2252.1 258.242 Q2250.18 256.506 2247.08 256.506 Q2244.88 256.506 2242.43 257.27 Q2240 258.034 2237.22 259.585 L2237.22 254.862 Q2240.04 253.728 2242.5 253.149 Q2244.95 252.571 2246.99 252.571 Q2252.36 252.571 2255.55 255.256 Q2258.75 257.941 2258.75 262.432 Q2258.75 264.561 2257.94 266.483 Q2257.15 268.381 2255.04 270.973 Q2254.46 271.645 2251.36 274.862 Q2248.26 278.057 2242.61 283.821 Z" fill="#000000" fill-rule="evenodd" fill-opacity="1" /></svg>
