<?xml version="1.0" encoding="utf-8"?>
<svg xmlns="http://www.w3.org/2000/svg" xmlns:xlink="http://www.w3.org/1999/xlink" width="600" height="400" viewBox="0 0 2400 1600">
<defs>
  <clipPath id="clip780">
    <rect x="0" y="0" width="2400" height="1600"/>
  </clipPath>
</defs>
<path clip-path="url(#clip780)" d="
M0 1600 L2400 1600 L2400 0 L0 0  Z
  " fill="#ffffff" fill-rule="evenodd" fill-opacity="1"/>
<defs>
  <clipPath id="clip781">
    <rect x="480" y="0" width="1681" height="1600"/>
  </clipPath>
</defs>
<path clip-path="url(#clip780)" d="
M250.028 1423.18 L2352.76 1423.18 L2352.76 123.472 L250.028 123.472  Z
  " fill="#ffffff" fill-rule="evenodd" fill-opacity="1"/>
<defs>
  <clipPath id="clip782">
    <rect x="250" y="123" width="2104" height="1301"/>
  </clipPath>
</defs>
<polyline clip-path="url(#clip782)" style="stroke:#000000; stroke-linecap:butt; stroke-linejoin:round; stroke-width:2; stroke-opacity:0.1; fill:none" points="
  250.028,1423.18 250.028,123.472 
  "/>
<polyline clip-path="url(#clip782)" style="stroke:#000000; stroke-linecap:butt; stroke-linejoin:round; stroke-width:2; stroke-opacity:0.1; fill:none" points="
  632.342,1423.18 632.342,123.472 
  "/>
<polyline clip-path="url(#clip782)" style="stroke:#000000; stroke-linecap:butt; stroke-linejoin:round; stroke-width:2; stroke-opacity:0.1; fill:none" points="
  1014.66,1423.18 1014.66,123.472 
  "/>
<polyline clip-path="url(#clip782)" style="stroke:#000000; stroke-linecap:butt; stroke-linejoin:round; stroke-width:2; stroke-opacity:0.1; fill:none" points="
  1396.97,1423.18 1396.97,123.472 
  "/>
<polyline clip-path="url(#clip782)" style="stroke:#000000; stroke-linecap:butt; stroke-linejoin:round; stroke-width:2; stroke-opacity:0.1; fill:none" points="
  1779.28,1423.18 1779.28,123.472 
  "/>
<polyline clip-path="url(#clip782)" style="stroke:#000000; stroke-linecap:butt; stroke-linejoin:round; stroke-width:2; stroke-opacity:0.1; fill:none" points="
  2161.6,1423.18 2161.6,123.472 
  "/>
<polyline clip-path="url(#clip780)" style="stroke:#000000; stroke-linecap:butt; stroke-linejoin:round; stroke-width:4; stroke-opacity:1; fill:none" points="
  250.028,1423.18 2352.76,1423.18 
  "/>
<polyline clip-path="url(#clip780)" style="stroke:#000000; stroke-linecap:butt; stroke-linejoin:round; stroke-width:4; stroke-opacity:1; fill:none" points="
  250.028,1423.18 250.028,1404.28 
  "/>
<polyline clip-path="url(#clip780)" style="stroke:#000000; stroke-linecap:butt; stroke-linejoin:round; stroke-width:4; stroke-opacity:1; fill:none" points="
  632.342,1423.18 632.342,1404.28 
  "/>
<polyline clip-path="url(#clip780)" style="stroke:#000000; stroke-linecap:butt; stroke-linejoin:round; stroke-width:4; stroke-opacity:1; fill:none" points="
  1014.66,1423.18 1014.66,1404.28 
  "/>
<polyline clip-path="url(#clip780)" style="stroke:#000000; stroke-linecap:butt; stroke-linejoin:round; stroke-width:4; stroke-opacity:1; fill:none" points="
  1396.97,1423.18 1396.97,1404.28 
  "/>
<polyline clip-path="url(#clip780)" style="stroke:#000000; stroke-linecap:butt; stroke-linejoin:round; stroke-width:4; stroke-opacity:1; fill:none" points="
  1779.28,1423.18 1779.28,1404.28 
  "/>
<polyline clip-path="url(#clip780)" style="stroke:#000000; stroke-linecap:butt; stroke-linejoin:round; stroke-width:4; stroke-opacity:1; fill:none" points="
  2161.6,1423.18 2161.6,1404.28 
  "/>
<path clip-path="url(#clip780)" d="M250.028 1452.37 Q246.417 1452.37 244.588 1455.94 Q242.783 1459.48 242.783 1466.61 Q242.783 1473.71 244.588 1477.28 Q246.417 1480.82 250.028 1480.82 Q253.662 1480.82 255.468 1477.28 Q257.297 1473.71 257.297 1466.61 Q257.297 1459.48 255.468 1455.94 Q253.662 1452.37 250.028 1452.37 M250.028 1448.67 Q255.838 1448.67 258.894 1453.27 Q261.973 1457.86 261.973 1466.61 Q261.973 1475.33 258.894 1479.94 Q255.838 1484.52 250.028 1484.52 Q244.218 1484.52 241.139 1479.94 Q238.084 1475.33 238.084 1466.61 Q238.084 1457.86 241.139 1453.27 Q244.218 1448.67 250.028 1448.67 Z" fill="#000000" fill-rule="evenodd" fill-opacity="1" /><path clip-path="url(#clip780)" d="M591.949 1479.92 L599.588 1479.92 L599.588 1453.55 L591.278 1455.22 L591.278 1450.96 L599.542 1449.29 L604.217 1449.29 L604.217 1479.92 L611.856 1479.92 L611.856 1483.85 L591.949 1483.85 L591.949 1479.92 Z" fill="#000000" fill-rule="evenodd" fill-opacity="1" /><path clip-path="url(#clip780)" d="M631.301 1452.37 Q627.69 1452.37 625.861 1455.94 Q624.055 1459.48 624.055 1466.61 Q624.055 1473.71 625.861 1477.28 Q627.69 1480.82 631.301 1480.82 Q634.935 1480.82 636.74 1477.28 Q638.569 1473.71 638.569 1466.61 Q638.569 1459.48 636.74 1455.94 Q634.935 1452.37 631.301 1452.37 M631.301 1448.67 Q637.111 1448.67 640.166 1453.27 Q643.245 1457.86 643.245 1466.61 Q643.245 1475.33 640.166 1479.94 Q637.111 1484.52 631.301 1484.52 Q625.49 1484.52 622.412 1479.94 Q619.356 1475.33 619.356 1466.61 Q619.356 1457.86 622.412 1453.27 Q625.49 1448.67 631.301 1448.67 Z" fill="#000000" fill-rule="evenodd" fill-opacity="1" /><path clip-path="url(#clip780)" d="M661.462 1452.37 Q657.851 1452.37 656.023 1455.94 Q654.217 1459.48 654.217 1466.61 Q654.217 1473.71 656.023 1477.28 Q657.851 1480.82 661.462 1480.82 Q665.097 1480.82 666.902 1477.28 Q668.731 1473.71 668.731 1466.61 Q668.731 1459.48 666.902 1455.94 Q665.097 1452.37 661.462 1452.37 M661.462 1448.67 Q667.273 1448.67 670.328 1453.27 Q673.407 1457.86 673.407 1466.61 Q673.407 1475.33 670.328 1479.94 Q667.273 1484.52 661.462 1484.52 Q655.652 1484.52 652.574 1479.94 Q649.518 1475.33 649.518 1466.61 Q649.518 1457.86 652.574 1453.27 Q655.652 1448.67 661.462 1448.67 Z" fill="#000000" fill-rule="evenodd" fill-opacity="1" /><path clip-path="url(#clip780)" d="M978.349 1479.92 L994.668 1479.92 L994.668 1483.85 L972.724 1483.85 L972.724 1479.92 Q975.386 1477.16 979.969 1472.53 Q984.576 1467.88 985.756 1466.54 Q988.001 1464.01 988.881 1462.28 Q989.784 1460.52 989.784 1458.83 Q989.784 1456.07 987.839 1454.34 Q985.918 1452.6 982.816 1452.6 Q980.617 1452.6 978.164 1453.37 Q975.733 1454.13 972.955 1455.68 L972.955 1450.96 Q975.779 1449.82 978.233 1449.25 Q980.687 1448.67 982.724 1448.67 Q988.094 1448.67 991.288 1451.35 Q994.483 1454.04 994.483 1458.53 Q994.483 1460.66 993.673 1462.58 Q992.886 1464.48 990.779 1467.07 Q990.201 1467.74 987.099 1470.96 Q983.997 1474.15 978.349 1479.92 Z" fill="#000000" fill-rule="evenodd" fill-opacity="1" /><path clip-path="url(#clip780)" d="M1014.48 1452.37 Q1010.87 1452.37 1009.04 1455.94 Q1007.24 1459.48 1007.24 1466.61 Q1007.24 1473.71 1009.04 1477.28 Q1010.87 1480.82 1014.48 1480.82 Q1018.12 1480.82 1019.92 1477.28 Q1021.75 1473.71 1021.75 1466.61 Q1021.75 1459.48 1019.92 1455.94 Q1018.12 1452.37 1014.48 1452.37 M1014.48 1448.67 Q1020.29 1448.67 1023.35 1453.27 Q1026.43 1457.86 1026.43 1466.61 Q1026.43 1475.33 1023.35 1479.94 Q1020.29 1484.52 1014.48 1484.52 Q1008.67 1484.52 1005.59 1479.94 Q1002.54 1475.33 1002.54 1466.61 Q1002.54 1457.86 1005.59 1453.27 Q1008.67 1448.67 1014.48 1448.67 Z" fill="#000000" fill-rule="evenodd" fill-opacity="1" /><path clip-path="url(#clip780)" d="M1044.64 1452.37 Q1041.03 1452.37 1039.2 1455.94 Q1037.4 1459.48 1037.4 1466.61 Q1037.4 1473.71 1039.2 1477.28 Q1041.03 1480.82 1044.64 1480.82 Q1048.28 1480.82 1050.08 1477.28 Q1051.91 1473.71 1051.91 1466.61 Q1051.91 1459.48 1050.08 1455.94 Q1048.28 1452.37 1044.64 1452.37 M1044.64 1448.67 Q1050.45 1448.67 1053.51 1453.27 Q1056.59 1457.86 1056.59 1466.61 Q1056.59 1475.33 1053.51 1479.94 Q1050.45 1484.52 1044.64 1484.52 Q1038.83 1484.52 1035.76 1479.94 Q1032.7 1475.33 1032.7 1466.61 Q1032.7 1457.86 1035.76 1453.27 Q1038.83 1448.67 1044.64 1448.67 Z" fill="#000000" fill-rule="evenodd" fill-opacity="1" /><path clip-path="url(#clip780)" d="M1370.73 1465.22 Q1374.09 1465.94 1375.96 1468.2 Q1377.86 1470.47 1377.86 1473.81 Q1377.86 1478.92 1374.34 1481.72 Q1370.82 1484.52 1364.34 1484.52 Q1362.17 1484.52 1359.85 1484.08 Q1357.56 1483.67 1355.11 1482.81 L1355.11 1478.3 Q1357.05 1479.43 1359.37 1480.01 Q1361.68 1480.59 1364.2 1480.59 Q1368.6 1480.59 1370.89 1478.85 Q1373.21 1477.12 1373.21 1473.81 Q1373.21 1470.75 1371.06 1469.04 Q1368.93 1467.3 1365.11 1467.3 L1361.08 1467.3 L1361.08 1463.46 L1365.29 1463.46 Q1368.74 1463.46 1370.57 1462.09 Q1372.4 1460.7 1372.4 1458.11 Q1372.4 1455.45 1370.5 1454.04 Q1368.63 1452.6 1365.11 1452.6 Q1363.19 1452.6 1360.99 1453.02 Q1358.79 1453.44 1356.15 1454.31 L1356.15 1450.15 Q1358.81 1449.41 1361.13 1449.04 Q1363.46 1448.67 1365.52 1448.67 Q1370.85 1448.67 1373.95 1451.1 Q1377.05 1453.5 1377.05 1457.63 Q1377.05 1460.5 1375.41 1462.49 Q1373.76 1464.45 1370.73 1465.22 Z" fill="#000000" fill-rule="evenodd" fill-opacity="1" /><path clip-path="url(#clip780)" d="M1396.73 1452.37 Q1393.12 1452.37 1391.29 1455.94 Q1389.48 1459.48 1389.48 1466.61 Q1389.48 1473.71 1391.29 1477.28 Q1393.12 1480.82 1396.73 1480.82 Q1400.36 1480.82 1402.17 1477.28 Q1404 1473.71 1404 1466.61 Q1404 1459.48 1402.17 1455.94 Q1400.36 1452.37 1396.73 1452.37 M1396.73 1448.67 Q1402.54 1448.67 1405.59 1453.27 Q1408.67 1457.86 1408.67 1466.61 Q1408.67 1475.33 1405.59 1479.94 Q1402.54 1484.52 1396.73 1484.52 Q1390.92 1484.52 1387.84 1479.94 Q1384.78 1475.33 1384.78 1466.61 Q1384.78 1457.86 1387.84 1453.27 Q1390.92 1448.67 1396.73 1448.67 Z" fill="#000000" fill-rule="evenodd" fill-opacity="1" /><path clip-path="url(#clip780)" d="M1426.89 1452.37 Q1423.28 1452.37 1421.45 1455.94 Q1419.64 1459.48 1419.64 1466.61 Q1419.64 1473.71 1421.45 1477.28 Q1423.28 1480.82 1426.89 1480.82 Q1430.52 1480.82 1432.33 1477.28 Q1434.16 1473.71 1434.16 1466.61 Q1434.16 1459.48 1432.33 1455.94 Q1430.52 1452.37 1426.89 1452.37 M1426.89 1448.67 Q1432.7 1448.67 1435.76 1453.27 Q1438.83 1457.86 1438.83 1466.61 Q1438.83 1475.33 1435.76 1479.94 Q1432.7 1484.52 1426.89 1484.52 Q1421.08 1484.52 1418 1479.94 Q1414.94 1475.33 1414.94 1466.61 Q1414.94 1457.86 1418 1453.27 Q1421.08 1448.67 1426.89 1448.67 Z" fill="#000000" fill-rule="evenodd" fill-opacity="1" /><path clip-path="url(#clip780)" d="M1752.38 1453.37 L1740.57 1471.81 L1752.38 1471.81 L1752.38 1453.37 M1751.15 1449.29 L1757.03 1449.29 L1757.03 1471.81 L1761.96 1471.81 L1761.96 1475.7 L1757.03 1475.7 L1757.03 1483.85 L1752.38 1483.85 L1752.38 1475.7 L1736.77 1475.7 L1736.77 1471.19 L1751.15 1449.29 Z" fill="#000000" fill-rule="evenodd" fill-opacity="1" /><path clip-path="url(#clip780)" d="M1779.69 1452.37 Q1776.08 1452.37 1774.25 1455.94 Q1772.44 1459.48 1772.44 1466.61 Q1772.44 1473.71 1774.25 1477.28 Q1776.08 1480.82 1779.69 1480.82 Q1783.32 1480.82 1785.13 1477.28 Q1786.96 1473.71 1786.96 1466.61 Q1786.96 1459.48 1785.13 1455.94 Q1783.32 1452.37 1779.69 1452.37 M1779.69 1448.67 Q1785.5 1448.67 1788.56 1453.27 Q1791.63 1457.86 1791.63 1466.61 Q1791.63 1475.33 1788.56 1479.94 Q1785.5 1484.52 1779.69 1484.52 Q1773.88 1484.52 1770.8 1479.94 Q1767.75 1475.33 1767.75 1466.61 Q1767.75 1457.86 1770.8 1453.27 Q1773.88 1448.67 1779.69 1448.67 Z" fill="#000000" fill-rule="evenodd" fill-opacity="1" /><path clip-path="url(#clip780)" d="M1809.85 1452.37 Q1806.24 1452.37 1804.41 1455.94 Q1802.61 1459.48 1802.61 1466.61 Q1802.61 1473.71 1804.41 1477.28 Q1806.24 1480.82 1809.85 1480.82 Q1813.49 1480.82 1815.29 1477.28 Q1817.12 1473.71 1817.12 1466.61 Q1817.12 1459.48 1815.29 1455.94 Q1813.49 1452.37 1809.85 1452.37 M1809.85 1448.67 Q1815.66 1448.67 1818.72 1453.27 Q1821.8 1457.86 1821.8 1466.61 Q1821.8 1475.33 1818.72 1479.94 Q1815.66 1484.52 1809.85 1484.52 Q1804.04 1484.52 1800.96 1479.94 Q1797.91 1475.33 1797.91 1466.61 Q1797.91 1457.86 1800.96 1453.27 Q1804.04 1448.67 1809.85 1448.67 Z" fill="#000000" fill-rule="evenodd" fill-opacity="1" /><path clip-path="url(#clip780)" d="M2121.22 1449.29 L2139.57 1449.29 L2139.57 1453.23 L2125.5 1453.23 L2125.5 1461.7 Q2126.52 1461.35 2127.54 1461.19 Q2128.56 1461 2129.57 1461 Q2135.36 1461 2138.74 1464.18 Q2142.12 1467.35 2142.12 1472.76 Q2142.12 1478.34 2138.65 1481.44 Q2135.18 1484.52 2128.86 1484.52 Q2126.68 1484.52 2124.41 1484.15 Q2122.17 1483.78 2119.76 1483.04 L2119.76 1478.34 Q2121.84 1479.48 2124.06 1480.03 Q2126.29 1480.59 2128.76 1480.59 Q2132.77 1480.59 2135.11 1478.48 Q2137.44 1476.38 2137.44 1472.76 Q2137.44 1469.15 2135.11 1467.05 Q2132.77 1464.94 2128.76 1464.94 Q2126.89 1464.94 2125.01 1465.36 Q2123.16 1465.77 2121.22 1466.65 L2121.22 1449.29 Z" fill="#000000" fill-rule="evenodd" fill-opacity="1" /><path clip-path="url(#clip780)" d="M2161.33 1452.37 Q2157.72 1452.37 2155.89 1455.94 Q2154.09 1459.48 2154.09 1466.61 Q2154.09 1473.71 2155.89 1477.28 Q2157.72 1480.82 2161.33 1480.82 Q2164.97 1480.82 2166.77 1477.28 Q2168.6 1473.71 2168.6 1466.61 Q2168.6 1459.48 2166.77 1455.94 Q2164.97 1452.37 2161.33 1452.37 M2161.33 1448.67 Q2167.14 1448.67 2170.2 1453.27 Q2173.28 1457.86 2173.28 1466.61 Q2173.28 1475.33 2170.2 1479.94 Q2167.14 1484.52 2161.33 1484.52 Q2155.52 1484.52 2152.44 1479.94 Q2149.39 1475.33 2149.39 1466.61 Q2149.39 1457.86 2152.44 1453.27 Q2155.52 1448.67 2161.33 1448.67 Z" fill="#000000" fill-rule="evenodd" fill-opacity="1" /><path clip-path="url(#clip780)" d="M2191.49 1452.37 Q2187.88 1452.37 2186.05 1455.94 Q2184.25 1459.48 2184.25 1466.61 Q2184.25 1473.71 2186.05 1477.28 Q2187.88 1480.82 2191.49 1480.82 Q2195.13 1480.82 2196.93 1477.28 Q2198.76 1473.71 2198.76 1466.61 Q2198.76 1459.48 2196.93 1455.94 Q2195.13 1452.37 2191.49 1452.37 M2191.49 1448.67 Q2197.3 1448.67 2200.36 1453.27 Q2203.44 1457.86 2203.44 1466.61 Q2203.44 1475.33 2200.36 1479.94 Q2197.3 1484.52 2191.49 1484.52 Q2185.68 1484.52 2182.61 1479.94 Q2179.55 1475.33 2179.55 1466.61 Q2179.55 1457.86 2182.61 1453.27 Q2185.68 1448.67 2191.49 1448.67 Z" fill="#000000" fill-rule="evenodd" fill-opacity="1" /><path clip-path="url(#clip780)" d="M1300.45 1522.27 L1300.45 1532.4 L1312.52 1532.4 L1312.52 1536.95 L1300.45 1536.95 L1300.45 1556.3 Q1300.45 1560.66 1301.63 1561.9 Q1302.84 1563.14 1306.5 1563.14 L1312.52 1563.14 L1312.52 1568.04 L1306.5 1568.04 Q1299.72 1568.04 1297.14 1565.53 Q1294.56 1562.98 1294.56 1556.3 L1294.56 1536.95 L1290.27 1536.95 L1290.27 1532.4 L1294.56 1532.4 L1294.56 1522.27 L1300.45 1522.27 Z" fill="#000000" fill-rule="evenodd" fill-opacity="1" /><polyline clip-path="url(#clip782)" style="stroke:#000000; stroke-linecap:butt; stroke-linejoin:round; stroke-width:2; stroke-opacity:0.1; fill:none" points="
  250.028,1387.38 2352.76,1387.38 
  "/>
<polyline clip-path="url(#clip782)" style="stroke:#000000; stroke-linecap:butt; stroke-linejoin:round; stroke-width:2; stroke-opacity:0.1; fill:none" points="
  250.028,1084.87 2352.76,1084.87 
  "/>
<polyline clip-path="url(#clip782)" style="stroke:#000000; stroke-linecap:butt; stroke-linejoin:round; stroke-width:2; stroke-opacity:0.1; fill:none" points="
  250.028,782.351 2352.76,782.351 
  "/>
<polyline clip-path="url(#clip782)" style="stroke:#000000; stroke-linecap:butt; stroke-linejoin:round; stroke-width:2; stroke-opacity:0.1; fill:none" points="
  250.028,479.836 2352.76,479.836 
  "/>
<polyline clip-path="url(#clip782)" style="stroke:#000000; stroke-linecap:butt; stroke-linejoin:round; stroke-width:2; stroke-opacity:0.1; fill:none" points="
  250.028,177.321 2352.76,177.321 
  "/>
<polyline clip-path="url(#clip780)" style="stroke:#000000; stroke-linecap:butt; stroke-linejoin:round; stroke-width:4; stroke-opacity:1; fill:none" points="
  250.028,1423.18 250.028,123.472 
  "/>
<polyline clip-path="url(#clip780)" style="stroke:#000000; stroke-linecap:butt; stroke-linejoin:round; stroke-width:4; stroke-opacity:1; fill:none" points="
  250.028,1387.38 268.926,1387.38 
  "/>
<polyline clip-path="url(#clip780)" style="stroke:#000000; stroke-linecap:butt; stroke-linejoin:round; stroke-width:4; stroke-opacity:1; fill:none" points="
  250.028,1084.87 268.926,1084.87 
  "/>
<polyline clip-path="url(#clip780)" style="stroke:#000000; stroke-linecap:butt; stroke-linejoin:round; stroke-width:4; stroke-opacity:1; fill:none" points="
  250.028,782.351 268.926,782.351 
  "/>
<polyline clip-path="url(#clip780)" style="stroke:#000000; stroke-linecap:butt; stroke-linejoin:round; stroke-width:4; stroke-opacity:1; fill:none" points="
  250.028,479.836 268.926,479.836 
  "/>
<polyline clip-path="url(#clip780)" style="stroke:#000000; stroke-linecap:butt; stroke-linejoin:round; stroke-width:4; stroke-opacity:1; fill:none" points="
  250.028,177.321 268.926,177.321 
  "/>
<path clip-path="url(#clip780)" d="M126.691 1373.18 Q123.08 1373.18 121.251 1376.74 Q119.445 1380.29 119.445 1387.42 Q119.445 1394.52 121.251 1398.09 Q123.08 1401.63 126.691 1401.63 Q130.325 1401.63 132.13 1398.09 Q133.959 1394.52 133.959 1387.42 Q133.959 1380.29 132.13 1376.74 Q130.325 1373.18 126.691 1373.18 M126.691 1369.48 Q132.501 1369.48 135.556 1374.08 Q138.635 1378.67 138.635 1387.42 Q138.635 1396.14 135.556 1400.75 Q132.501 1405.33 126.691 1405.33 Q120.88 1405.33 117.802 1400.75 Q114.746 1396.14 114.746 1387.42 Q114.746 1378.67 117.802 1374.08 Q120.88 1369.48 126.691 1369.48 Z" fill="#000000" fill-rule="evenodd" fill-opacity="1" /><path clip-path="url(#clip780)" d="M146.853 1398.78 L151.737 1398.78 L151.737 1404.66 L146.853 1404.66 L146.853 1398.78 Z" fill="#000000" fill-rule="evenodd" fill-opacity="1" /><path clip-path="url(#clip780)" d="M171.922 1373.18 Q168.311 1373.18 166.482 1376.74 Q164.677 1380.29 164.677 1387.42 Q164.677 1394.52 166.482 1398.09 Q168.311 1401.63 171.922 1401.63 Q175.556 1401.63 177.362 1398.09 Q179.19 1394.52 179.19 1387.42 Q179.19 1380.29 177.362 1376.74 Q175.556 1373.18 171.922 1373.18 M171.922 1369.48 Q177.732 1369.48 180.788 1374.08 Q183.866 1378.67 183.866 1387.42 Q183.866 1396.14 180.788 1400.75 Q177.732 1405.33 171.922 1405.33 Q166.112 1405.33 163.033 1400.75 Q159.978 1396.14 159.978 1387.42 Q159.978 1378.67 163.033 1374.08 Q166.112 1369.48 171.922 1369.48 Z" fill="#000000" fill-rule="evenodd" fill-opacity="1" /><path clip-path="url(#clip780)" d="M202.084 1373.18 Q198.473 1373.18 196.644 1376.74 Q194.838 1380.29 194.838 1387.42 Q194.838 1394.52 196.644 1398.09 Q198.473 1401.63 202.084 1401.63 Q205.718 1401.63 207.524 1398.09 Q209.352 1394.52 209.352 1387.42 Q209.352 1380.29 207.524 1376.74 Q205.718 1373.18 202.084 1373.18 M202.084 1369.48 Q207.894 1369.48 210.949 1374.08 Q214.028 1378.67 214.028 1387.42 Q214.028 1396.14 210.949 1400.75 Q207.894 1405.33 202.084 1405.33 Q196.274 1405.33 193.195 1400.75 Q190.139 1396.14 190.139 1387.42 Q190.139 1378.67 193.195 1374.08 Q196.274 1369.48 202.084 1369.48 Z" fill="#000000" fill-rule="evenodd" fill-opacity="1" /><path clip-path="url(#clip780)" d="M128.288 1070.66 Q124.677 1070.66 122.848 1074.23 Q121.043 1077.77 121.043 1084.9 Q121.043 1092.01 122.848 1095.57 Q124.677 1099.11 128.288 1099.11 Q131.922 1099.11 133.728 1095.57 Q135.556 1092.01 135.556 1084.9 Q135.556 1077.77 133.728 1074.23 Q131.922 1070.66 128.288 1070.66 M128.288 1066.96 Q134.098 1066.96 137.154 1071.57 Q140.232 1076.15 140.232 1084.9 Q140.232 1093.63 137.154 1098.23 Q134.098 1102.82 128.288 1102.82 Q122.478 1102.82 119.399 1098.23 Q116.343 1093.63 116.343 1084.9 Q116.343 1076.15 119.399 1071.57 Q122.478 1066.96 128.288 1066.96 Z" fill="#000000" fill-rule="evenodd" fill-opacity="1" /><path clip-path="url(#clip780)" d="M148.45 1096.27 L153.334 1096.27 L153.334 1102.15 L148.45 1102.15 L148.45 1096.27 Z" fill="#000000" fill-rule="evenodd" fill-opacity="1" /><path clip-path="url(#clip780)" d="M173.519 1070.66 Q169.908 1070.66 168.079 1074.23 Q166.274 1077.77 166.274 1084.9 Q166.274 1092.01 168.079 1095.57 Q169.908 1099.11 173.519 1099.11 Q177.153 1099.11 178.959 1095.57 Q180.788 1092.01 180.788 1084.9 Q180.788 1077.77 178.959 1074.23 Q177.153 1070.66 173.519 1070.66 M173.519 1066.96 Q179.329 1066.96 182.385 1071.57 Q185.463 1076.15 185.463 1084.9 Q185.463 1093.63 182.385 1098.23 Q179.329 1102.82 173.519 1102.82 Q167.709 1102.82 164.63 1098.23 Q161.575 1093.63 161.575 1084.9 Q161.575 1076.15 164.63 1071.57 Q167.709 1066.96 173.519 1066.96 Z" fill="#000000" fill-rule="evenodd" fill-opacity="1" /><path clip-path="url(#clip780)" d="M197.709 1098.21 L214.028 1098.21 L214.028 1102.15 L192.084 1102.15 L192.084 1098.21 Q194.746 1095.46 199.329 1090.83 Q203.936 1086.17 205.116 1084.83 Q207.362 1082.31 208.241 1080.57 Q209.144 1078.81 209.144 1077.12 Q209.144 1074.37 207.199 1072.63 Q205.278 1070.9 202.176 1070.9 Q199.977 1070.9 197.524 1071.66 Q195.093 1072.42 192.315 1073.98 L192.315 1069.25 Q195.139 1068.12 197.593 1067.54 Q200.047 1066.96 202.084 1066.96 Q207.454 1066.96 210.649 1069.65 Q213.843 1072.33 213.843 1076.82 Q213.843 1078.95 213.033 1080.87 Q212.246 1082.77 210.139 1085.36 Q209.561 1086.04 206.459 1089.25 Q203.357 1092.45 197.709 1098.21 Z" fill="#000000" fill-rule="evenodd" fill-opacity="1" /><path clip-path="url(#clip780)" d="M126.205 768.15 Q122.593 768.15 120.765 771.715 Q118.959 775.256 118.959 782.386 Q118.959 789.492 120.765 793.057 Q122.593 796.599 126.205 796.599 Q129.839 796.599 131.644 793.057 Q133.473 789.492 133.473 782.386 Q133.473 775.256 131.644 771.715 Q129.839 768.15 126.205 768.15 M126.205 764.446 Q132.015 764.446 135.07 769.053 Q138.149 773.636 138.149 782.386 Q138.149 791.113 135.07 795.719 Q132.015 800.302 126.205 800.302 Q120.394 800.302 117.316 795.719 Q114.26 791.113 114.26 782.386 Q114.26 773.636 117.316 769.053 Q120.394 764.446 126.205 764.446 Z" fill="#000000" fill-rule="evenodd" fill-opacity="1" /><path clip-path="url(#clip780)" d="M146.366 793.752 L151.251 793.752 L151.251 799.631 L146.366 799.631 L146.366 793.752 Z" fill="#000000" fill-rule="evenodd" fill-opacity="1" /><path clip-path="url(#clip780)" d="M171.436 768.15 Q167.825 768.15 165.996 771.715 Q164.19 775.256 164.19 782.386 Q164.19 789.492 165.996 793.057 Q167.825 796.599 171.436 796.599 Q175.07 796.599 176.876 793.057 Q178.704 789.492 178.704 782.386 Q178.704 775.256 176.876 771.715 Q175.07 768.15 171.436 768.15 M171.436 764.446 Q177.246 764.446 180.301 769.053 Q183.38 773.636 183.38 782.386 Q183.38 791.113 180.301 795.719 Q177.246 800.302 171.436 800.302 Q165.626 800.302 162.547 795.719 Q159.491 791.113 159.491 782.386 Q159.491 773.636 162.547 769.053 Q165.626 764.446 171.436 764.446 Z" fill="#000000" fill-rule="evenodd" fill-opacity="1" /><path clip-path="url(#clip780)" d="M204.445 769.145 L192.639 787.594 L204.445 787.594 L204.445 769.145 M203.218 765.071 L209.098 765.071 L209.098 787.594 L214.028 787.594 L214.028 791.483 L209.098 791.483 L209.098 799.631 L204.445 799.631 L204.445 791.483 L188.843 791.483 L188.843 786.969 L203.218 765.071 Z" fill="#000000" fill-rule="evenodd" fill-opacity="1" /><path clip-path="url(#clip780)" d="M126.529 465.635 Q122.918 465.635 121.089 469.199 Q119.283 472.741 119.283 479.871 Q119.283 486.977 121.089 490.542 Q122.918 494.084 126.529 494.084 Q130.163 494.084 131.968 490.542 Q133.797 486.977 133.797 479.871 Q133.797 472.741 131.968 469.199 Q130.163 465.635 126.529 465.635 M126.529 461.931 Q132.339 461.931 135.394 466.537 Q138.473 471.121 138.473 479.871 Q138.473 488.597 135.394 493.204 Q132.339 497.787 126.529 497.787 Q120.718 497.787 117.64 493.204 Q114.584 488.597 114.584 479.871 Q114.584 471.121 117.64 466.537 Q120.718 461.931 126.529 461.931 Z" fill="#000000" fill-rule="evenodd" fill-opacity="1" /><path clip-path="url(#clip780)" d="M146.691 491.236 L151.575 491.236 L151.575 497.116 L146.691 497.116 L146.691 491.236 Z" fill="#000000" fill-rule="evenodd" fill-opacity="1" /><path clip-path="url(#clip780)" d="M171.76 465.635 Q168.149 465.635 166.32 469.199 Q164.515 472.741 164.515 479.871 Q164.515 486.977 166.32 490.542 Q168.149 494.084 171.76 494.084 Q175.394 494.084 177.2 490.542 Q179.028 486.977 179.028 479.871 Q179.028 472.741 177.2 469.199 Q175.394 465.635 171.76 465.635 M171.76 461.931 Q177.57 461.931 180.626 466.537 Q183.704 471.121 183.704 479.871 Q183.704 488.597 180.626 493.204 Q177.57 497.787 171.76 497.787 Q165.95 497.787 162.871 493.204 Q159.815 488.597 159.815 479.871 Q159.815 471.121 162.871 466.537 Q165.95 461.931 171.76 461.931 Z" fill="#000000" fill-rule="evenodd" fill-opacity="1" /><path clip-path="url(#clip780)" d="M202.5 477.973 Q199.352 477.973 197.5 480.125 Q195.672 482.278 195.672 486.028 Q195.672 489.755 197.5 491.931 Q199.352 494.084 202.5 494.084 Q205.649 494.084 207.477 491.931 Q209.329 489.755 209.329 486.028 Q209.329 482.278 207.477 480.125 Q205.649 477.973 202.5 477.973 M211.783 463.32 L211.783 467.579 Q210.024 466.746 208.218 466.306 Q206.436 465.866 204.676 465.866 Q200.047 465.866 197.593 468.991 Q195.163 472.116 194.815 478.436 Q196.181 476.422 198.241 475.357 Q200.301 474.269 202.778 474.269 Q207.987 474.269 210.996 477.44 Q214.028 480.588 214.028 486.028 Q214.028 491.352 210.88 494.57 Q207.732 497.787 202.5 497.787 Q196.505 497.787 193.334 493.204 Q190.163 488.597 190.163 479.871 Q190.163 471.676 194.051 466.815 Q197.94 461.931 204.491 461.931 Q206.25 461.931 208.033 462.278 Q209.838 462.625 211.783 463.32 Z" fill="#000000" fill-rule="evenodd" fill-opacity="1" /><path clip-path="url(#clip780)" d="M126.783 163.12 Q123.172 163.12 121.343 166.684 Q119.538 170.226 119.538 177.356 Q119.538 184.462 121.343 188.027 Q123.172 191.568 126.783 191.568 Q130.417 191.568 132.223 188.027 Q134.052 184.462 134.052 177.356 Q134.052 170.226 132.223 166.684 Q130.417 163.12 126.783 163.12 M126.783 159.416 Q132.593 159.416 135.649 164.022 Q138.728 168.606 138.728 177.356 Q138.728 186.082 135.649 190.689 Q132.593 195.272 126.783 195.272 Q120.973 195.272 117.894 190.689 Q114.839 186.082 114.839 177.356 Q114.839 168.606 117.894 164.022 Q120.973 159.416 126.783 159.416 Z" fill="#000000" fill-rule="evenodd" fill-opacity="1" /><path clip-path="url(#clip780)" d="M146.945 188.721 L151.829 188.721 L151.829 194.601 L146.945 194.601 L146.945 188.721 Z" fill="#000000" fill-rule="evenodd" fill-opacity="1" /><path clip-path="url(#clip780)" d="M172.014 163.12 Q168.403 163.12 166.575 166.684 Q164.769 170.226 164.769 177.356 Q164.769 184.462 166.575 188.027 Q168.403 191.568 172.014 191.568 Q175.649 191.568 177.454 188.027 Q179.283 184.462 179.283 177.356 Q179.283 170.226 177.454 166.684 Q175.649 163.12 172.014 163.12 M172.014 159.416 Q177.825 159.416 180.88 164.022 Q183.959 168.606 183.959 177.356 Q183.959 186.082 180.88 190.689 Q177.825 195.272 172.014 195.272 Q166.204 195.272 163.126 190.689 Q160.07 186.082 160.07 177.356 Q160.07 168.606 163.126 164.022 Q166.204 159.416 172.014 159.416 Z" fill="#000000" fill-rule="evenodd" fill-opacity="1" /><path clip-path="url(#clip780)" d="M202.176 178.189 Q198.843 178.189 196.922 179.971 Q195.024 181.754 195.024 184.879 Q195.024 188.004 196.922 189.786 Q198.843 191.568 202.176 191.568 Q205.51 191.568 207.431 189.786 Q209.352 187.98 209.352 184.879 Q209.352 181.754 207.431 179.971 Q205.533 178.189 202.176 178.189 M197.5 176.198 Q194.491 175.457 192.801 173.397 Q191.135 171.337 191.135 168.374 Q191.135 164.231 194.075 161.823 Q197.037 159.416 202.176 159.416 Q207.338 159.416 210.278 161.823 Q213.218 164.231 213.218 168.374 Q213.218 171.337 211.528 173.397 Q209.861 175.457 206.875 176.198 Q210.255 176.985 212.13 179.277 Q214.028 181.568 214.028 184.879 Q214.028 189.902 210.949 192.587 Q207.894 195.272 202.176 195.272 Q196.459 195.272 193.38 192.587 Q190.325 189.902 190.325 184.879 Q190.325 181.568 192.223 179.277 Q194.121 176.985 197.5 176.198 M195.787 168.814 Q195.787 171.499 197.454 173.004 Q199.144 174.508 202.176 174.508 Q205.186 174.508 206.875 173.004 Q208.588 171.499 208.588 168.814 Q208.588 166.129 206.875 164.624 Q205.186 163.12 202.176 163.12 Q199.144 163.12 197.454 164.624 Q195.787 166.129 195.787 168.814 Z" fill="#000000" fill-rule="evenodd" fill-opacity="1" /><path clip-path="url(#clip780)" d="M28.3562 814.719 L28.3562 808.863 L64.0042 808.863 L64.0042 814.719 L28.3562 814.719 M14.479 814.719 L14.479 808.863 L21.895 808.863 L21.895 814.719 L14.479 814.719 Z" fill="#000000" fill-rule="evenodd" fill-opacity="1" /><path clip-path="url(#clip780)" d="M14.5426 782.54 Q21.8632 786.805 29.0246 788.874 Q36.186 790.943 43.5384 790.943 Q50.8908 790.943 58.1159 788.874 Q65.3091 786.774 72.5979 782.54 L72.5979 787.633 Q65.1182 792.407 57.8931 794.794 Q50.668 797.15 43.5384 797.15 Q36.4406 797.15 29.2474 794.794 Q22.0542 792.439 14.5426 787.633 L14.5426 782.54 Z" fill="#000000" fill-rule="evenodd" fill-opacity="1" /><path clip-path="url(#clip780)" d="M18.2347 765.385 L28.3562 765.385 L28.3562 753.322 L32.9077 753.322 L32.9077 765.385 L52.2594 765.385 Q56.6199 765.385 57.8613 764.207 Q59.1026 762.998 59.1026 759.337 L59.1026 753.322 L64.0042 753.322 L64.0042 759.337 Q64.0042 766.117 61.4897 768.695 Q58.9434 771.273 52.2594 771.273 L32.9077 771.273 L32.9077 775.57 L28.3562 775.57 L28.3562 771.273 L18.2347 771.273 L18.2347 765.385 Z" fill="#000000" fill-rule="evenodd" fill-opacity="1" /><path clip-path="url(#clip780)" d="M14.5426 746.542 L14.5426 741.45 Q22.0542 736.675 29.2474 734.32 Q36.4406 731.933 43.5384 731.933 Q50.668 731.933 57.8931 734.32 Q65.1182 736.675 72.5979 741.45 L72.5979 746.542 Q65.3091 742.309 58.1159 740.24 Q50.8908 738.14 43.5384 738.14 Q36.186 738.14 29.0246 740.24 Q21.8632 742.309 14.5426 746.542 Z" fill="#000000" fill-rule="evenodd" fill-opacity="1" /><path clip-path="url(#clip780)" d="M871.976 12.096 L882.994 12.096 L909.811 62.6918 L909.811 12.096 L917.751 12.096 L917.751 72.576 L906.733 72.576 L879.916 21.9802 L879.916 72.576 L871.976 72.576 L871.976 12.096 Z" fill="#000000" fill-rule="evenodd" fill-opacity="1" /><path clip-path="url(#clip780)" d="M932.942 54.671 L932.942 27.2059 L940.396 27.2059 L940.396 54.3874 Q940.396 60.8284 942.907 64.0691 Q945.419 67.2693 950.442 67.2693 Q956.478 67.2693 959.962 63.421 Q963.486 59.5726 963.486 52.9291 L963.486 27.2059 L970.94 27.2059 L970.94 72.576 L963.486 72.576 L963.486 65.6084 Q960.772 69.7404 957.166 71.7658 Q953.602 73.7508 948.862 73.7508 Q941.044 73.7508 936.993 68.8897 Q932.942 64.0286 932.942 54.671 M951.698 26.1121 L951.698 26.1121 Z" fill="#000000" fill-rule="evenodd" fill-opacity="1" /><path clip-path="url(#clip780)" d="M1021.62 35.9153 Q1024.41 30.8922 1028.3 28.5022 Q1032.19 26.1121 1037.46 26.1121 Q1044.54 26.1121 1048.39 31.0947 Q1052.24 36.0368 1052.24 45.1919 L1052.24 72.576 L1044.75 72.576 L1044.75 45.4349 Q1044.75 38.913 1042.44 35.7533 Q1040.13 32.5936 1035.39 32.5936 Q1029.6 32.5936 1026.23 36.4419 Q1022.87 40.2903 1022.87 46.9338 L1022.87 72.576 L1015.38 72.576 L1015.38 45.4349 Q1015.38 38.8725 1013.07 35.7533 Q1010.76 32.5936 1005.94 32.5936 Q1000.23 32.5936 996.865 36.4824 Q993.503 40.3308 993.503 46.9338 L993.503 72.576 L986.009 72.576 L986.009 27.2059 L993.503 27.2059 L993.503 34.2544 Q996.055 30.082 999.62 28.0971 Q1003.18 26.1121 1008.09 26.1121 Q1013.03 26.1121 1016.47 28.6237 Q1019.96 31.1352 1021.62 35.9153 Z" fill="#000000" fill-rule="evenodd" fill-opacity="1" /><path clip-path="url(#clip780)" d="M1099.68 49.9314 Q1099.68 41.7081 1096.27 37.0496 Q1092.91 32.3505 1087 32.3505 Q1081.08 32.3505 1077.68 37.0496 Q1074.32 41.7081 1074.32 49.9314 Q1074.32 58.1548 1077.68 62.8538 Q1081.08 67.5124 1087 67.5124 Q1092.91 67.5124 1096.27 62.8538 Q1099.68 58.1548 1099.68 49.9314 M1074.32 34.0924 Q1076.67 30.0415 1080.23 28.0971 Q1083.84 26.1121 1088.82 26.1121 Q1097.08 26.1121 1102.23 32.6746 Q1107.41 39.2371 1107.41 49.9314 Q1107.41 60.6258 1102.23 67.1883 Q1097.08 73.7508 1088.82 73.7508 Q1083.84 73.7508 1080.23 71.8063 Q1076.67 69.8214 1074.32 65.7705 L1074.32 72.576 L1066.82 72.576 L1066.82 9.54393 L1074.32 9.54393 L1074.32 34.0924 Z" fill="#000000" fill-rule="evenodd" fill-opacity="1" /><path clip-path="url(#clip780)" d="M1158.58 48.0275 L1158.58 51.6733 L1124.31 51.6733 Q1124.79 59.3701 1128.92 63.421 Q1133.1 67.4314 1140.51 67.4314 Q1144.8 67.4314 1148.81 66.3781 Q1152.87 65.3249 1156.84 63.2184 L1156.84 70.267 Q1152.83 71.9684 1148.61 72.8596 Q1144.4 73.7508 1140.06 73.7508 Q1129.21 73.7508 1122.85 67.4314 Q1116.53 61.1119 1116.53 50.3365 Q1116.53 39.1965 1122.52 32.6746 Q1128.56 26.1121 1138.77 26.1121 Q1147.92 26.1121 1153.23 32.0264 Q1158.58 37.9003 1158.58 48.0275 M1151.12 45.84 Q1151.04 39.7232 1147.68 36.0774 Q1144.36 32.4315 1138.85 32.4315 Q1132.61 32.4315 1128.84 35.9558 Q1125.12 39.4801 1124.55 45.8805 L1151.12 45.84 Z" fill="#000000" fill-rule="evenodd" fill-opacity="1" /><path clip-path="url(#clip780)" d="M1197.1 34.1734 Q1195.85 33.4443 1194.35 33.1202 Q1192.89 32.7556 1191.11 32.7556 Q1184.79 32.7556 1181.38 36.8875 Q1178.02 40.9789 1178.02 48.6757 L1178.02 72.576 L1170.53 72.576 L1170.53 27.2059 L1178.02 27.2059 L1178.02 34.2544 Q1180.37 30.1225 1184.14 28.1376 Q1187.91 26.1121 1193.29 26.1121 Q1194.06 26.1121 1195 26.2337 Q1195.93 26.3147 1197.06 26.5172 L1197.1 34.1734 Z" fill="#000000" fill-rule="evenodd" fill-opacity="1" /><path clip-path="url(#clip780)" d="M1248.87 32.4315 Q1242.88 32.4315 1239.39 37.1306 Q1235.91 41.7891 1235.91 49.9314 Q1235.91 58.0738 1239.35 62.7728 Q1242.84 67.4314 1248.87 67.4314 Q1254.83 67.4314 1258.31 62.7323 Q1261.79 58.0333 1261.79 49.9314 Q1261.79 41.8701 1258.31 37.1711 Q1254.83 32.4315 1248.87 32.4315 M1248.87 26.1121 Q1258.59 26.1121 1264.14 32.4315 Q1269.69 38.7509 1269.69 49.9314 Q1269.69 61.0714 1264.14 67.4314 Q1258.59 73.7508 1248.87 73.7508 Q1239.11 73.7508 1233.56 67.4314 Q1228.05 61.0714 1228.05 49.9314 Q1228.05 38.7509 1233.56 32.4315 Q1239.11 26.1121 1248.87 26.1121 Z" fill="#000000" fill-rule="evenodd" fill-opacity="1" /><path clip-path="url(#clip780)" d="M1305.02 9.54393 L1305.02 15.7418 L1297.89 15.7418 Q1293.88 15.7418 1292.3 17.3622 Q1290.76 18.9825 1290.76 23.1955 L1290.76 27.2059 L1303.03 27.2059 L1303.03 32.9987 L1290.76 32.9987 L1290.76 72.576 L1283.26 72.576 L1283.26 32.9987 L1276.13 32.9987 L1276.13 27.2059 L1283.26 27.2059 L1283.26 24.0462 Q1283.26 16.471 1286.79 13.0277 Q1290.31 9.54393 1297.97 9.54393 L1305.02 9.54393 Z" fill="#000000" fill-rule="evenodd" fill-opacity="1" /><path clip-path="url(#clip780)" d="M1337.95 12.096 L1346.13 12.096 L1346.13 72.576 L1337.95 72.576 L1337.95 12.096 Z" fill="#000000" fill-rule="evenodd" fill-opacity="1" /><path clip-path="url(#clip780)" d="M1399.81 45.1919 L1399.81 72.576 L1392.36 72.576 L1392.36 45.4349 Q1392.36 38.994 1389.84 35.7938 Q1387.33 32.5936 1382.31 32.5936 Q1376.27 32.5936 1372.79 36.4419 Q1369.31 40.2903 1369.31 46.9338 L1369.31 72.576 L1361.81 72.576 L1361.81 27.2059 L1369.31 27.2059 L1369.31 34.2544 Q1371.98 30.163 1375.58 28.1376 Q1379.23 26.1121 1383.97 26.1121 Q1391.79 26.1121 1395.8 30.9732 Q1399.81 35.7938 1399.81 45.1919 Z" fill="#000000" fill-rule="evenodd" fill-opacity="1" /><path clip-path="url(#clip780)" d="M1437.64 9.54393 L1437.64 15.7418 L1430.51 15.7418 Q1426.5 15.7418 1424.92 17.3622 Q1423.39 18.9825 1423.39 23.1955 L1423.39 27.2059 L1435.66 27.2059 L1435.66 32.9987 L1423.39 32.9987 L1423.39 72.576 L1415.89 72.576 L1415.89 32.9987 L1408.76 32.9987 L1408.76 27.2059 L1415.89 27.2059 L1415.89 24.0462 Q1415.89 16.471 1419.42 13.0277 Q1422.94 9.54393 1430.6 9.54393 L1437.64 9.54393 Z" fill="#000000" fill-rule="evenodd" fill-opacity="1" /><path clip-path="url(#clip780)" d="M1482.69 48.0275 L1482.69 51.6733 L1448.42 51.6733 Q1448.91 59.3701 1453.04 63.421 Q1457.21 67.4314 1464.62 67.4314 Q1468.92 67.4314 1472.93 66.3781 Q1476.98 65.3249 1480.95 63.2184 L1480.95 70.267 Q1476.94 71.9684 1472.73 72.8596 Q1468.51 73.7508 1464.18 73.7508 Q1453.32 73.7508 1446.96 67.4314 Q1440.64 61.1119 1440.64 50.3365 Q1440.64 39.1965 1446.64 32.6746 Q1452.67 26.1121 1462.88 26.1121 Q1472.04 26.1121 1477.34 32.0264 Q1482.69 37.9003 1482.69 48.0275 M1475.24 45.84 Q1475.16 39.7232 1471.79 36.0774 Q1468.47 32.4315 1462.96 32.4315 Q1456.72 32.4315 1452.96 35.9558 Q1449.23 39.4801 1448.66 45.8805 L1475.24 45.84 Z" fill="#000000" fill-rule="evenodd" fill-opacity="1" /><path clip-path="url(#clip780)" d="M1527.57 28.9478 L1527.57 35.9153 Q1524.41 34.1734 1521.21 33.3227 Q1518.05 32.4315 1514.81 32.4315 Q1507.56 32.4315 1503.55 37.0496 Q1499.54 41.6271 1499.54 49.9314 Q1499.54 58.2358 1503.55 62.8538 Q1507.56 67.4314 1514.81 67.4314 Q1518.05 67.4314 1521.21 66.5807 Q1524.41 65.6895 1527.57 63.9476 L1527.57 70.8341 Q1524.46 72.2924 1521.09 73.0216 Q1517.77 73.7508 1514 73.7508 Q1503.75 73.7508 1497.72 67.3098 Q1491.68 60.8689 1491.68 49.9314 Q1491.68 38.832 1497.76 32.472 Q1503.88 26.1121 1514.49 26.1121 Q1517.93 26.1121 1521.21 26.8413 Q1524.5 27.5299 1527.57 28.9478 Z" fill="#000000" fill-rule="evenodd" fill-opacity="1" /><path clip-path="url(#clip780)" d="M1547.91 14.324 L1547.91 27.2059 L1563.26 27.2059 L1563.26 32.9987 L1547.91 32.9987 L1547.91 57.6282 Q1547.91 63.1779 1549.41 64.7578 Q1550.95 66.3376 1555.61 66.3376 L1563.26 66.3376 L1563.26 72.576 L1555.61 72.576 Q1546.98 72.576 1543.7 69.3758 Q1540.42 66.1351 1540.42 57.6282 L1540.42 32.9987 L1534.95 32.9987 L1534.95 27.2059 L1540.42 27.2059 L1540.42 14.324 L1547.91 14.324 Z" fill="#000000" fill-rule="evenodd" fill-opacity="1" /><path clip-path="url(#clip780)" d="M1573.07 27.2059 L1580.52 27.2059 L1580.52 72.576 L1573.07 72.576 L1573.07 27.2059 M1573.07 9.54393 L1580.52 9.54393 L1580.52 18.9825 L1573.07 18.9825 L1573.07 9.54393 Z" fill="#000000" fill-rule="evenodd" fill-opacity="1" /><path clip-path="url(#clip780)" d="M1613.7 32.4315 Q1607.7 32.4315 1604.22 37.1306 Q1600.73 41.7891 1600.73 49.9314 Q1600.73 58.0738 1604.18 62.7728 Q1607.66 67.4314 1613.7 67.4314 Q1619.65 67.4314 1623.14 62.7323 Q1626.62 58.0333 1626.62 49.9314 Q1626.62 41.8701 1623.14 37.1711 Q1619.65 32.4315 1613.7 32.4315 M1613.7 26.1121 Q1623.42 26.1121 1628.97 32.4315 Q1634.52 38.7509 1634.52 49.9314 Q1634.52 61.0714 1628.97 67.4314 Q1623.42 73.7508 1613.7 73.7508 Q1603.93 73.7508 1598.38 67.4314 Q1592.87 61.0714 1592.87 49.9314 Q1592.87 38.7509 1598.38 32.4315 Q1603.93 26.1121 1613.7 26.1121 Z" fill="#000000" fill-rule="evenodd" fill-opacity="1" /><path clip-path="url(#clip780)" d="M1684.59 45.1919 L1684.59 72.576 L1677.13 72.576 L1677.13 45.4349 Q1677.13 38.994 1674.62 35.7938 Q1672.11 32.5936 1667.09 32.5936 Q1661.05 32.5936 1657.57 36.4419 Q1654.08 40.2903 1654.08 46.9338 L1654.08 72.576 L1646.59 72.576 L1646.59 27.2059 L1654.08 27.2059 L1654.08 34.2544 Q1656.76 30.163 1660.36 28.1376 Q1664.01 26.1121 1668.75 26.1121 Q1676.57 26.1121 1680.58 30.9732 Q1684.59 35.7938 1684.59 45.1919 Z" fill="#000000" fill-rule="evenodd" fill-opacity="1" /><path clip-path="url(#clip780)" d="M1728.38 28.5427 L1728.38 35.5912 Q1725.22 33.9709 1721.82 33.1607 Q1718.41 32.3505 1714.77 32.3505 Q1709.22 32.3505 1706.42 34.0519 Q1703.67 35.7533 1703.67 39.156 Q1703.67 41.7486 1705.65 43.2475 Q1707.64 44.7058 1713.63 46.0426 L1716.18 46.6097 Q1724.12 48.3111 1727.45 51.4303 Q1730.81 54.509 1730.81 60.0587 Q1730.81 66.3781 1725.79 70.0644 Q1720.8 73.7508 1712.05 73.7508 Q1708.41 73.7508 1704.44 73.0216 Q1700.51 72.3329 1696.13 70.9151 L1696.13 63.2184 Q1700.26 65.3654 1704.27 66.4591 Q1708.29 67.5124 1712.21 67.5124 Q1717.48 67.5124 1720.32 65.73 Q1723.15 63.9071 1723.15 60.6258 Q1723.15 57.5877 1721.09 55.9673 Q1719.06 54.3469 1712.13 52.8481 L1709.54 52.2405 Q1702.61 50.7821 1699.54 47.7845 Q1696.46 44.7463 1696.46 39.4801 Q1696.46 33.0797 1700.99 29.5959 Q1705.53 26.1121 1713.88 26.1121 Q1718.01 26.1121 1721.65 26.7198 Q1725.3 27.3274 1728.38 28.5427 Z" fill="#000000" fill-rule="evenodd" fill-opacity="1" /><polyline clip-path="url(#clip782)" style="stroke:#009af9; stroke-linecap:butt; stroke-linejoin:round; stroke-width:4; stroke-opacity:1; fill:none" points="
  250.028,1386.24 250.085,1386.24 250.098,1386.24 250.113,1386.24 250.131,1386.24 250.15,1386.24 250.172,1386.24 250.196,1386.24 250.223,1386.24 250.254,1386.24 
  250.289,1386.24 250.328,1386.24 250.372,1386.24 250.421,1386.24 250.477,1386.24 250.54,1386.24 250.61,1386.24 250.689,1386.24 250.778,1386.24 250.879,1386.24 
  250.991,1386.24 251.118,1386.24 251.261,1386.25 251.422,1386.25 251.602,1386.25 251.806,1386.25 252.031,1386.25 252.276,1386.25 252.541,1386.26 252.823,1386.26 
  253.122,1386.26 253.436,1386.26 253.763,1386.26 254.1,1386.27 254.449,1386.27 254.808,1386.27 255.176,1386.27 255.551,1386.28 255.934,1386.28 256.323,1386.28 
  256.716,1386.29 257.114,1386.29 257.517,1386.29 257.922,1386.29 258.329,1386.3 258.74,1386.3 259.156,1386.3 259.576,1386.3 260.001,1386.31 260.434,1386.31 
  260.873,1386.31 261.316,1386.31 261.765,1386.32 262.222,1386.32 262.685,1386.32 263.151,1386.32 263.624,1386.33 264.105,1386.33 264.591,1386.33 265.079,1386.33 
  265.573,1386.34 266.07,1386.34 266.569,1386.34 267.072,1386.34 267.578,1386.35 268.088,1386.35 268.604,1386.35 269.127,1386.35 269.657,1386.35 270.194,1386.36 
  270.738,1386.36 271.288,1386.36 271.847,1386.36 272.409,1386.36 272.975,1386.37 273.547,1386.37 274.121,1386.37 274.705,1386.37 275.287,1386.37 275.881,1386.37 
  276.484,1386.38 277.092,1386.38 277.705,1386.38 278.325,1386.38 278.952,1386.38 279.576,1386.38 280.205,1386.39 280.84,1386.39 281.484,1386.39 282.136,1386.39 
  282.799,1386.39 283.471,1386.39 284.15,1386.39 284.852,1386.4 285.582,1386.4 286.337,1386.4 287.121,1386.4 287.933,1386.4 288.76,1386.4 289.611,1386.4 
  290.49,1386.39 291.398,1386.39 292.331,1386.39 293.288,1386.39 294.266,1386.39 295.271,1386.39 296.284,1386.39 297.303,1386.39 298.294,1386.39 299.284,1386.39 
  300.272,1386.39 301.276,1386.39 302.257,1386.39 303.228,1386.39 304.184,1386.39 305.129,1386.39 306.07,1386.39 307.027,1386.39 307.985,1386.39 308.938,1386.39 
  309.896,1386.39 310.86,1386.39 311.812,1386.39 312.773,1386.39 313.737,1386.39 314.7,1386.39 315.685,1386.38 316.683,1386.38 317.694,1386.38 318.731,1386.38 
  319.789,1386.38 320.877,1386.38 322.002,1386.38 323.138,1386.37 324.285,1386.37 325.429,1386.37 326.587,1386.37 327.761,1386.37 328.947,1386.36 330.138,1386.36 
  331.344,1386.36 332.534,1386.36 333.732,1386.36 334.92,1386.35 336.137,1386.35 337.386,1386.35 338.678,1386.35 340.017,1386.34 341.348,1386.34 342.742,1386.33 
  344.185,1386.33 345.637,1386.32 347.072,1386.32 348.543,1386.31 350.08,1386.31 351.664,1386.3 353.259,1386.3 354.884,1386.29 356.493,1386.28 358.159,1386.28 
  359.853,1386.27 361.607,1386.26 363.359,1386.26 365.132,1386.25 366.98,1386.24 368.908,1386.23 370.835,1386.22 372.77,1386.21 374.629,1386.2 376.555,1386.2 
  378.387,1386.19 380.216,1386.18 382.047,1386.17 383.845,1386.17 385.626,1386.16 387.435,1386.15 389.275,1386.14 391.147,1386.13 393.103,1386.12 395.084,1386.11 
  397.312,1386.09 399.74,1386.07 402.096,1386.06 404.55,1386.04 407.024,1386.02 409.561,1386.01 412.001,1385.99 414.457,1385.97 416.971,1385.96 419.453,1385.94 
  422.014,1385.92 424.68,1385.9 427.531,1385.87 430.402,1385.85 433.314,1385.82 436.303,1385.79 439.366,1385.77 442.375,1385.74 445.202,1385.72 448.057,1385.69 
  451.268,1385.65 454.851,1385.62 458.266,1385.58 461.447,1385.56 464.347,1385.53 467.075,1385.51 469.646,1385.49 472.196,1385.47 474.725,1385.45 477.27,1385.42 
  479.842,1385.4 482.42,1385.37 485.026,1385.34 487.88,1385.3 491.091,1385.25 494.704,1385.19 498.768,1385.13 503.34,1385.05 508.201,1384.95 513.669,1384.84 
  519.821,1384.7 526.742,1384.52 532.207,1384.36 538.356,1384.18 544.286,1383.98 550.959,1383.71 555.779,1383.51 561.105,1383.3 567.095,1383.04 572.739,1382.78 
  578.957,1382.51 585.953,1382.19 593.823,1381.8 602.677,1381.31 611.752,1380.8 621.96,1380.18 632.547,1379.52 644.457,1378.65 657.856,1377.38 664.299,1376.77 
  671.546,1376.14 679.699,1375.49 685.272,1374.99 691.444,1374.4 698.387,1373.71 705.487,1372.99 712.239,1372.33 718.204,1371.68 724.871,1370.82 732.371,1369.74 
  740.809,1368.43 750.302,1366.79 760.981,1364.74 771.239,1362.7 782.779,1360.4 790.878,1358.59 799.99,1356.56 810.241,1354.1 818.804,1352.01 826.586,1350.17 
  833.643,1348.43 840.259,1346.73 846.828,1345 852.763,1343.35 858.942,1341.9 863.291,1340.92 867.124,1340.04 870.915,1339.16 874.455,1338.36 877.801,1337.52 
  881.074,1336.68 884.34,1335.85 887.547,1335.04 890.562,1334.23 893.617,1333.42 896.687,1332.69 899.406,1331.99 902.206,1331.22 905.046,1330.45 907.79,1329.69 
  910.573,1328.91 913.322,1328.09 916.173,1327.27 918.939,1326.44 921.719,1325.59 924.501,1324.73 927.336,1323.95 929.968,1323.21 932.569,1322.46 935.15,1321.71 
  937.71,1320.94 940.263,1320.12 942.857,1319.25 945.484,1318.3 948.366,1317.3 951.109,1316.36 953.908,1315.48 956.54,1314.63 959.067,1313.88 961.588,1313.1 
  964.024,1312.29 966.532,1311.37 969.127,1310.35 971.884,1309.22 974.742,1308.07 977.49,1306.88 980.414,1305.64 983.419,1304.32 986.395,1303.03 989.402,1301.77 
  992.352,1300.47 995.28,1298.98 998.574,1297.25 1001.96,1295.24 1005.77,1292.94 1009.79,1290.52 1014.02,1287.86 1018.25,1285.11 1022.94,1281.64 1028.23,1277.63 
  1033.87,1272.66 1040.21,1266.41 1047.35,1258.56 1054.62,1250.69 1062.79,1240.74 1071.99,1228.84 1080.16,1217.62 1089.22,1205.27 1099.41,1190.2 1109.63,1174.16 
  1119.96,1155.28 1129.82,1136.93 1140.19,1116.87 1150.23,1096.13 1160.08,1075.97 1169.68,1054.85 1178.94,1036.39 1187.04,1020.37 1194.3,1003.74 1201.99,985.328 
  1209.25,968.459 1215.99,955.243 1221.43,945.414 1226.29,936.338 1231.07,928.925 1235.14,923.728 1238.84,918.937 1242.18,914.526 1245.45,908.721 1248.82,902.598 
  1252.24,896.137 1255.69,889.622 1259.13,884.357 1262.28,879.067 1265.44,873.489 1268.6,866.327 1272.16,858.292 1275.89,850.585 1279.46,842.308 1283.2,833.488 
  1287.02,825.4 1290.72,817.787 1294.44,810.47 1298.01,803.699 1301.46,797.252 1304.93,791.372 1308.19,785.495 1311.49,779.064 1314.94,771.942 1318.33,764.968 
  1321.82,758.123 1325.21,751.779 1328.56,745.768 1331.82,739.732 1335.13,733.894 1338.4,727.73 1341.7,720.966 1345.15,713.858 1348.59,705.75 1352.25,696.399 
  1356.02,687.314 1359.83,677.251 1363.75,667.035 1367.74,654.043 1371.81,639.278 1375.76,626.821 1379.85,613.729 1383.92,600.826 1388,588.307 1392.08,575.538 
  1396.16,562.253 1400.19,551.636 1404.24,542.267 1408.23,532.749 1412.19,523.341 1416.14,515.82 1420.01,508.849 1423.74,502.189 1427.49,495.291 1431.25,488.312 
  1435.02,480.699 1438.77,472.046 1442.56,463.367 1446.33,453.293 1450.05,444.62 1453.78,437.81 1457.52,431.12 1461.23,424.655 1464.95,419.01 1468.64,413.721 
  1472.33,410.886 1475.9,409.867 1479.29,409.286 1482.63,409.211 1485.86,408.919 1489.13,408.992 1492.33,410.059 1495.46,411.388 1498.46,412.001 1501.58,412.169 
  1504.71,412.023 1507.91,412.234 1511.14,413.007 1514.32,414.17 1517.53,414.914 1520.74,416.492 1524,417.84 1527.2,418.422 1530.59,418.791 1534.03,418.176 
  1537.54,417.274 1541.13,416.112 1544.78,414.237 1548.41,412.969 1552.12,412.625 1555.87,413.126 1559.65,414.008 1563.47,416.257 1567.27,419.658 1571.04,423.302 
  1574.83,427.421 1578.55,432.052 1582.27,437.578 1585.95,444.102 1589.41,450.747 1592.86,457.965 1596.18,464.915 1599.42,470.82 1602.79,476.739 1606.19,482.763 
  1609.62,489.047 1613.12,495.566 1616.6,501.213 1620.3,507.519 1624.08,514.014 1627.87,519.199 1631.84,524.823 1635.97,533.004 1639.91,540.834 1643.87,548.787 
  1647.86,557.022 1651.82,565.733 1655.79,575.192 1659.68,585.14 1663.26,595.143 1666.72,604.88 1669.99,614.342 1673.18,623.792 1676.18,632.642 1679.11,640.582 
  1682.1,648.022 1685.35,654.975 1688.97,662.833 1692.74,670.416 1696.72,678.346 1700.95,686.449 1705.45,694.99 1710.1,704.26 1714.86,713.755 1719.75,722.885 
  1724.99,733.203 1730.28,744.834 1735.44,757.314 1740.32,769.54 1744.66,779.068 1749.51,789.191 1754.72,800.358 1759.81,811.65 1764.89,823.071 1769.58,833.828 
  1774.45,845.394 1778.81,855.663 1783.14,866.139 1787.21,876.365 1790.91,885.363 1794.51,893.883 1798.22,902.36 1801.8,910.435 1805.42,918.306 1809.09,925.876 
  1813.09,934.268 1816.81,942.174 1820.66,950.203 1824.36,957.625 1828.44,965.536 1832.35,973.162 1836.34,980.739 1840.44,988.184 1844.78,996.305 1848.89,1004.01 
  1852.88,1011.78 1856.64,1019.12 1860.22,1026.44 1863.4,1032.57 1866.64,1038.73 1869.83,1044.5 1873,1050.26 1876.1,1055.98 1879.11,1061.56 1881.87,1066.46 
  1884.7,1071.53 1887.42,1076.28 1890.14,1081.06 1892.76,1085.65 1895.28,1090.1 1897.73,1094.43 1900.11,1098.31 1902.67,1102.37 1905.24,1106.28 1907.97,1110.68 
  1910.5,1114.64 1913.02,1118.44 1915.67,1122.39 1918.27,1126.22 1920.9,1130.01 1923.6,1133.78 1926.33,1137.44 1929.18,1141.09 1932.31,1145.05 1935.56,1149.14 
  1938.79,1152.91 1942.42,1156.9 1946.5,1161.1 1951.1,1165.78 1956.27,1171 1961.91,1176.55 1968.07,1182.68 1974.04,1188.24 1980.52,1193.82 1987.81,1199.46 
  1996.02,1205.51 2004.99,1212.22 2015.09,1219.53 2026.45,1227.58 2036.94,1234.09 2047.6,1241.05 2059.59,1248.86 2071.61,1256.35 2083.94,1263.55 2097.82,1272.2 
  2105.94,1277.05 2113.48,1281.35 2120.82,1285.29 2128.17,1289.04 2136.17,1292.95 2143.65,1296.76 2150.23,1299.76 2157.64,1302.93 2165.96,1306.14 2175.33,1309.67 
  2185.87,1313.44 2197.19,1317.13 2209.93,1321.37 2224.26,1325.79 2233.22,1328.38 2243.3,1331.16 2254.64,1334 2267.4,1336.66 2275.09,1338.09 2282.46,1339.53 
  2289.97,1340.96 2297.88,1342.39 2305.48,1343.75 2313.36,1345.18 2322.22,1346.73 2331.9,1348.42 2341.04,1350.07 2351.33,1351.85 2352.76,1352.09 
  "/>
<polyline clip-path="url(#clip782)" style="stroke:#e26f46; stroke-linecap:butt; stroke-linejoin:round; stroke-width:4; stroke-opacity:1; fill:none" points="
  250.028,1386.24 250.085,1386.24 250.098,1386.24 250.113,1386.24 250.13,1386.24 250.15,1386.24 250.171,1386.24 250.196,1386.24 250.223,1386.24 250.254,1386.24 
  250.289,1386.24 250.328,1386.24 250.372,1386.24 250.421,1386.24 250.476,1386.24 250.539,1386.24 250.609,1386.24 250.688,1386.24 250.777,1386.24 250.877,1386.24 
  250.99,1386.24 251.117,1386.24 251.259,1386.25 251.42,1386.25 251.6,1386.25 251.803,1386.25 252.028,1386.25 252.272,1386.25 252.536,1386.26 252.817,1386.26 
  253.113,1386.26 253.427,1386.26 253.755,1386.26 254.097,1386.27 254.45,1386.27 254.815,1386.27 255.189,1386.27 255.573,1386.28 255.967,1386.28 256.369,1386.28 
  256.78,1386.28 257.197,1386.29 257.62,1386.29 258.046,1386.29 258.478,1386.29 258.914,1386.3 259.353,1386.3 259.797,1386.3 260.244,1386.31 260.696,1386.31 
  261.152,1386.31 261.611,1386.31 262.073,1386.32 262.538,1386.32 263.005,1386.32 263.476,1386.32 263.953,1386.33 264.434,1386.33 264.918,1386.33 265.409,1386.33 
  265.909,1386.33 266.42,1386.34 266.937,1386.34 267.461,1386.34 267.991,1386.34 268.524,1386.35 269.059,1386.35 269.599,1386.35 270.142,1386.35 270.686,1386.35 
  271.233,1386.36 271.785,1386.36 272.343,1386.36 272.908,1386.36 273.48,1386.36 274.064,1386.37 274.656,1386.37 275.251,1386.37 275.856,1386.37 276.471,1386.37 
  277.099,1386.37 277.733,1386.37 278.375,1386.38 279.023,1386.38 279.677,1386.38 280.341,1386.38 281.016,1386.38 281.701,1386.38 282.395,1386.38 283.104,1386.38 
  283.824,1386.39 284.554,1386.39 285.289,1386.39 286.041,1386.39 286.812,1386.39 287.597,1386.39 288.391,1386.39 289.189,1386.39 289.992,1386.39 290.793,1386.39 
  291.605,1386.39 292.421,1386.39 293.243,1386.39 294.06,1386.39 294.885,1386.39 295.72,1386.39 296.571,1386.39 297.429,1386.39 298.295,1386.39 299.169,1386.39 
  300.061,1386.39 300.956,1386.39 301.867,1386.39 302.792,1386.39 303.722,1386.39 304.671,1386.39 305.651,1386.39 306.669,1386.39 307.712,1386.39 308.756,1386.39 
  309.814,1386.39 310.88,1386.38 311.963,1386.38 313.066,1386.38 314.2,1386.38 315.359,1386.38 316.549,1386.37 317.775,1386.37 319.016,1386.37 320.305,1386.36 
  321.634,1386.36 322.954,1386.36 324.294,1386.35 325.676,1386.35 327.127,1386.35 328.588,1386.34 330.097,1386.33 331.637,1386.33 333.185,1386.32 334.743,1386.32 
  336.359,1386.31 337.995,1386.31 339.652,1386.3 341.369,1386.29 343.107,1386.28 344.899,1386.28 346.768,1386.27 348.723,1386.26 350.761,1386.24 352.944,1386.23 
  355.4,1386.21 357.966,1386.2 360.626,1386.18 363.357,1386.16 366.1,1386.14 368.74,1386.13 371.431,1386.11 374.328,1386.08 377.586,1386.05 381.167,1386.02 
  385.196,1385.98 389.728,1385.93 394.774,1385.87 400.45,1385.8 406.835,1385.71 414.019,1385.6 422.1,1385.45 427.964,1385.32 433.564,1385.2 438.805,1385.08 
  444.702,1384.94 450.637,1384.8 457.315,1384.64 464.827,1384.45 473.278,1384.25 478.75,1384.12 484.906,1383.96 490.719,1383.79 497.258,1383.58 504.614,1383.33 
  512.89,1383.04 522.2,1382.71 525.899,1382.58 530.059,1382.43 534.631,1382.24 539.773,1382.03 545.559,1381.76 552.068,1381.45 559.39,1381.11 564.59,1380.85 
  570.094,1380.55 576.285,1380.19 583.251,1379.74 591.087,1379.16 599.517,1378.45 606.863,1377.81 615.127,1377.1 624.424,1376.32 631.852,1375.67 640.207,1374.91 
  648.744,1374.08 657.125,1373.21 665.468,1372.32 674.854,1371.2 682.932,1370 692.02,1368.33 698.319,1367.15 705.406,1365.88 713.379,1364.34 722.348,1362.47 
  732.439,1360.2 743.791,1357.33 754.426,1354.35 766.39,1350.71 778.835,1345.93 790.771,1340.51 799.306,1336.05 806.705,1331.77 813.434,1327.6 820.33,1323.39 
  827.805,1318.52 836.213,1312.53 842.695,1307.39 849.49,1301.87 856.464,1296.21 864.31,1288.99 872.308,1280.47 879.182,1272.35 885.364,1264.35 891.303,1256.08 
  896.792,1247.66 901.683,1240.29 906.787,1232.29 911.971,1224.44 917.651,1215.53 924.042,1204.88 930.196,1193.58 936.145,1182.15 942.258,1170.67 948.401,1158.36 
  955.046,1144.23 961.732,1128.84 967.936,1113.34 974.302,1097.41 980.195,1082.21 986.76,1064.7 992.697,1049.4 999.377,1033.91 1006,1016.22 1012.89,998.272 
  1019.62,981.039 1026.2,961.306 1032.91,939.016 1039.33,917.44 1045.47,895.327 1051.55,872.32 1057.12,849.584 1062.79,824.447 1067.63,803.492 1072.66,781.648 
  1077.42,762.454 1082.34,741.792 1087.14,721.619 1091.77,702.607 1096.41,685.696 1100.99,673.184 1105.19,663.832 1108.91,655.482 1112.49,646.339 1116.17,637.043 
  1119.74,628.28 1123.1,619.616 1126.59,610.049 1130.01,600.398 1133.5,591.685 1136.91,584.042 1140.15,576.002 1143.44,567.272 1146.75,558.694 1150.05,548.494 
  1153.48,537.165 1156.97,526.763 1160.44,516.542 1163.9,506.061 1167.38,495.984 1170.87,485.023 1174.35,473.619 1177.87,461.003 1181.37,448.99 1184.88,437.614 
  1188.38,426.059 1191.86,415.184 1195.33,404.371 1198.79,393.814 1202.23,383.351 1205.66,372.593 1209.07,362.599 1212.46,352.866 1215.84,344.315 1219.19,336.968 
  1222.49,330.071 1225.78,322.988 1229.07,315.474 1232.35,306.553 1235.62,297.81 1238.88,288.418 1242.11,278.338 1245.27,267.314 1248.37,258.047 1251.46,248.466 
  1254.52,239.069 1257.55,230.636 1260.56,223.186 1263.58,216.412 1266.62,209.093 1269.62,201.894 1272.59,195.264 1275.57,188.715 1278.54,182.127 1281.46,177.455 
  1284.44,173.137 1287.41,170.196 1290.41,167.171 1293.42,164.665 1296.43,162.723 1299.45,160.863 1302.48,160.257 1305.53,160.334 1308.58,160.256 1311.64,161.187 
  1314.71,162.4 1317.78,163.791 1320.87,166.19 1323.96,169.617 1327.03,173.93 1330.08,177.045 1333.19,180.704 1336.3,184.487 1339.41,187.247 1342.59,190.711 
  1345.77,193.896 1348.98,196.234 1352.21,197.3 1355.37,198.009 1358.48,198.269 1361.59,198.061 1364.56,198.969 1367.61,199.685 1370.58,201.028 1373.52,202.406 
  1376.51,203.106 1379.37,203.804 1382.24,205.209 1385.07,207.475 1387.96,210.455 1390.86,214.704 1393.88,218.352 1396.87,221.578 1399.77,224.928 1402.7,229.67 
  1405.69,236.583 1408.84,244.498 1412.08,254.782 1415.37,265.329 1418.71,275.881 1422.14,285.803 1425.62,295.673 1429.17,306.089 1432.76,316.917 1436.43,328.433 
  1440.15,340.681 1443.92,353.541 1447.72,366.159 1451.61,379.929 1455.53,395.15 1459.37,410.137 1463.2,425.204 1467.01,440.457 1470.79,456.493 1474.36,471.287 
  1477.96,486.105 1481.62,501.565 1485.18,516.755 1488.58,530.711 1492.07,544.628 1495.62,558.712 1499.16,572.218 1502.9,586.157 1506.73,600.15 1510.62,614.591 
  1514.51,629.157 1518.51,644.43 1522.28,658.877 1525.92,672.698 1529.5,685.788 1533.34,699.404 1537.09,712.438 1541.22,727.315 1544.87,740.297 1548.61,753.564 
  1552.25,766.667 1555.6,778.41 1559.07,790.735 1562.27,801.959 1565.41,812.395 1568.62,822.594 1571.99,832.934 1575.71,843.848 1579.48,854.601 1583.62,865.877 
  1588.16,877.388 1593.27,890.027 1598.82,904.416 1604.4,918.581 1609.74,932.755 1614.77,945.738 1619.56,957.968 1624.28,970.283 1628.55,981.056 1632.74,991.283 
  1636.86,1001.07 1640.83,1010.08 1645.15,1019.94 1649.05,1028.47 1653.09,1036.97 1657.28,1045.09 1661.99,1054.12 1667,1063.28 1672.63,1073.11 1678.46,1082.48 
  1685.03,1092.69 1692.42,1104.83 1699.98,1116.32 1707.19,1126.8 1715.3,1137.61 1724.43,1149.29 1734.69,1160.95 1743.51,1171.01 1753.04,1182.33 1763.78,1195.21 
  1770.82,1203.64 1776.77,1210.11 1783.45,1216.79 1790.97,1224.21 1797.63,1230.41 1805.12,1237.2 1812.57,1243.51 1820.95,1249.73 1830.37,1256.05 1836.22,1259.96 
  1842.8,1264.13 1849.72,1268.37 1856.48,1272.15 1863.34,1275.75 1868.76,1278.52 1874.34,1281.16 1879.19,1283.3 1883.61,1285.46 1888.37,1287.9 1893.73,1290.61 
  1899.76,1293.35 1904.54,1295.36 1909.13,1297.21 1913.41,1298.83 1917.37,1300.34 1921.25,1301.71 1924.9,1302.9 1928.19,1303.99 1931.34,1305.16 1934.82,1306.44 
  1938.39,1307.77 1941.97,1309.05 1945.53,1310.28 1949.02,1311.47 1952.46,1312.65 1956.02,1313.82 1959.46,1314.86 1962.69,1315.8 1965.71,1316.7 1968.7,1317.63 
  1971.88,1318.66 1975.15,1319.74 1978.73,1320.85 1982.34,1321.95 1985.73,1323 1989.53,1324.13 1993.09,1325.24 1997.08,1326.55 2001.56,1328.1 2006.6,1329.88 
  2012.28,1331.77 2018.44,1333.74 2025.37,1335.84 2033.16,1338 2039.48,1339.71 2046.59,1341.64 2054.59,1343.85 2063.59,1346.21 2071.26,1348.06 2079.88,1349.99 
  2089.59,1352.12 2100.51,1354.41 2112.79,1356.89 2123.59,1358.88 2134.13,1360.77 2143.06,1362.31 2149.66,1363.43 2155.74,1364.4 2161.95,1365.35 2167.76,1366.23 
  2172.83,1366.94 2178.05,1367.6 2183.91,1368.29 2190.5,1369.08 2196.78,1369.81 2202.43,1370.45 2208.36,1371.08 2214.73,1371.7 2221.9,1372.35 2229.96,1373 
  2235.38,1373.43 2241.48,1373.89 2247.72,1374.32 2254.41,1374.79 2260.32,1375.18 2266.97,1375.59 2272.1,1375.9 2277.63,1376.22 2283.44,1376.56 2288.91,1376.87 
  2294.53,1377.2 2300.86,1377.55 2307.97,1377.93 2314.94,1378.3 2322.79,1378.68 2330.02,1379.04 2338.15,1379.46 2347.02,1379.88 2352.76,1380.14 
  "/>
<path clip-path="url(#clip780)" d="
M1773.96 322.316 L2282.66 322.316 L2282.66 166.796 L1773.96 166.796  Z
  " fill="#ffffff" fill-rule="evenodd" fill-opacity="1"/>
<polyline clip-path="url(#clip780)" style="stroke:#000000; stroke-linecap:butt; stroke-linejoin:round; stroke-width:4; stroke-opacity:1; fill:none" points="
  1773.96,322.316 2282.66,322.316 2282.66,166.796 1773.96,166.796 1773.96,322.316 
  "/>
<polyline clip-path="url(#clip780)" style="stroke:#009af9; stroke-linecap:butt; stroke-linejoin:round; stroke-width:4; stroke-opacity:1; fill:none" points="
  1797.32,218.636 1937.51,218.636 
  "/>
<path clip-path="url(#clip780)" d="M1960.87 201.356 L1990.11 201.356 L1990.11 205.291 L1977.84 205.291 L1977.84 235.916 L1973.14 235.916 L1973.14 205.291 L1960.87 205.291 L1960.87 201.356 Z" fill="#000000" fill-rule="evenodd" fill-opacity="1" /><path clip-path="url(#clip780)" d="M2002.49 213.971 Q2001.77 213.555 2000.92 213.37 Q2000.08 213.161 1999.06 213.161 Q1995.45 213.161 1993.51 215.522 Q1991.59 217.86 1991.59 222.258 L1991.59 235.916 L1987.3 235.916 L1987.3 209.99 L1991.59 209.99 L1991.59 214.018 Q1992.93 211.657 1995.08 210.522 Q1997.24 209.365 2000.31 209.365 Q2000.75 209.365 2001.29 209.434 Q2001.82 209.481 2002.47 209.596 L2002.49 213.971 Z" fill="#000000" fill-rule="evenodd" fill-opacity="1" /><path clip-path="url(#clip780)" d="M2018.74 222.883 Q2013.58 222.883 2011.59 224.064 Q2009.6 225.244 2009.6 228.092 Q2009.6 230.36 2011.08 231.703 Q2012.58 233.022 2015.15 233.022 Q2018.69 233.022 2020.82 230.522 Q2022.98 227.999 2022.98 223.832 L2022.98 222.883 L2018.74 222.883 M2027.24 221.124 L2027.24 235.916 L2022.98 235.916 L2022.98 231.981 Q2021.52 234.342 2019.34 235.476 Q2017.17 236.587 2014.02 236.587 Q2010.04 236.587 2007.68 234.365 Q2005.34 232.119 2005.34 228.369 Q2005.34 223.994 2008.25 221.772 Q2011.19 219.55 2017 219.55 L2022.98 219.55 L2022.98 219.133 Q2022.98 216.194 2021.03 214.596 Q2019.11 212.976 2015.61 212.976 Q2013.39 212.976 2011.29 213.508 Q2009.18 214.041 2007.24 215.106 L2007.24 211.17 Q2009.57 210.268 2011.77 209.828 Q2013.97 209.365 2016.05 209.365 Q2021.68 209.365 2024.46 212.282 Q2027.24 215.198 2027.24 221.124 Z" fill="#000000" fill-rule="evenodd" fill-opacity="1" /><path clip-path="url(#clip780)" d="M2036.01 209.99 L2040.27 209.99 L2040.27 236.379 Q2040.27 241.332 2038.37 243.555 Q2036.49 245.777 2032.3 245.777 L2030.68 245.777 L2030.68 242.166 L2031.82 242.166 Q2034.25 242.166 2035.13 241.031 Q2036.01 239.92 2036.01 236.379 L2036.01 209.99 M2036.01 199.897 L2040.27 199.897 L2040.27 205.291 L2036.01 205.291 L2036.01 199.897 Z" fill="#000000" fill-rule="evenodd" fill-opacity="1" /><path clip-path="url(#clip780)" d="M2071.36 221.888 L2071.36 223.971 L2051.77 223.971 Q2052.05 228.369 2054.41 230.684 Q2056.8 232.976 2061.03 232.976 Q2063.48 232.976 2065.78 232.374 Q2068.09 231.772 2070.36 230.569 L2070.36 234.596 Q2068.07 235.568 2065.66 236.078 Q2063.25 236.587 2060.78 236.587 Q2054.57 236.587 2050.94 232.976 Q2047.33 229.365 2047.33 223.207 Q2047.33 216.842 2050.75 213.115 Q2054.2 209.365 2060.04 209.365 Q2065.27 209.365 2068.3 212.745 Q2071.36 216.101 2071.36 221.888 M2067.1 220.638 Q2067.05 217.143 2065.13 215.059 Q2063.23 212.976 2060.08 212.976 Q2056.52 212.976 2054.36 214.99 Q2052.23 217.004 2051.91 220.661 L2067.1 220.638 Z" fill="#000000" fill-rule="evenodd" fill-opacity="1" /><path clip-path="url(#clip780)" d="M2097 210.985 L2097 214.967 Q2095.2 213.971 2093.37 213.485 Q2091.56 212.976 2089.71 212.976 Q2085.57 212.976 2083.28 215.615 Q2080.98 218.231 2080.98 222.976 Q2080.98 227.721 2083.28 230.36 Q2085.57 232.976 2089.71 232.976 Q2091.56 232.976 2093.37 232.49 Q2095.2 231.981 2097 230.985 L2097 234.92 Q2095.22 235.754 2093.3 236.17 Q2091.4 236.587 2089.25 236.587 Q2083.39 236.587 2079.94 232.906 Q2076.49 229.226 2076.49 222.976 Q2076.49 216.633 2079.97 212.999 Q2083.46 209.365 2089.53 209.365 Q2091.49 209.365 2093.37 209.782 Q2095.24 210.175 2097 210.985 Z" fill="#000000" fill-rule="evenodd" fill-opacity="1" /><path clip-path="url(#clip780)" d="M2108.62 202.629 L2108.62 209.99 L2117.4 209.99 L2117.4 213.3 L2108.62 213.3 L2108.62 227.374 Q2108.62 230.545 2109.48 231.448 Q2110.36 232.351 2113.02 232.351 L2117.4 232.351 L2117.4 235.916 L2113.02 235.916 Q2108.09 235.916 2106.22 234.087 Q2104.34 232.235 2104.34 227.374 L2104.34 213.3 L2101.22 213.3 L2101.22 209.99 L2104.34 209.99 L2104.34 202.629 L2108.62 202.629 Z" fill="#000000" fill-rule="evenodd" fill-opacity="1" /><path clip-path="url(#clip780)" d="M2133.04 212.976 Q2129.62 212.976 2127.63 215.661 Q2125.64 218.323 2125.64 222.976 Q2125.64 227.629 2127.6 230.314 Q2129.6 232.976 2133.04 232.976 Q2136.45 232.976 2138.44 230.291 Q2140.43 227.606 2140.43 222.976 Q2140.43 218.37 2138.44 215.684 Q2136.45 212.976 2133.04 212.976 M2133.04 209.365 Q2138.6 209.365 2141.77 212.976 Q2144.94 216.587 2144.94 222.976 Q2144.94 229.342 2141.77 232.976 Q2138.6 236.587 2133.04 236.587 Q2127.47 236.587 2124.29 232.976 Q2121.15 229.342 2121.15 222.976 Q2121.15 216.587 2124.29 212.976 Q2127.47 209.365 2133.04 209.365 Z" fill="#000000" fill-rule="evenodd" fill-opacity="1" /><path clip-path="url(#clip780)" d="M2167.03 213.971 Q2166.31 213.555 2165.45 213.37 Q2164.62 213.161 2163.6 213.161 Q2159.99 213.161 2158.04 215.522 Q2156.12 217.86 2156.12 222.258 L2156.12 235.916 L2151.84 235.916 L2151.84 209.99 L2156.12 209.99 L2156.12 214.018 Q2157.47 211.657 2159.62 210.522 Q2161.77 209.365 2164.85 209.365 Q2165.29 209.365 2165.82 209.434 Q2166.35 209.481 2167 209.596 L2167.03 213.971 Z" fill="#000000" fill-rule="evenodd" fill-opacity="1" /><path clip-path="url(#clip780)" d="M2182.28 238.323 Q2180.48 242.953 2178.76 244.365 Q2177.05 245.777 2174.18 245.777 L2170.78 245.777 L2170.78 242.212 L2173.28 242.212 Q2175.04 242.212 2176.01 241.379 Q2176.98 240.545 2178.16 237.443 L2178.92 235.499 L2168.44 209.99 L2172.95 209.99 L2181.05 230.268 L2189.16 209.99 L2193.67 209.99 L2182.28 238.323 Z" fill="#000000" fill-rule="evenodd" fill-opacity="1" /><path clip-path="url(#clip780)" d="M2216.03 231.981 L2223.67 231.981 L2223.67 205.615 L2215.36 207.282 L2215.36 203.022 L2223.62 201.356 L2228.3 201.356 L2228.3 231.981 L2235.94 231.981 L2235.94 235.916 L2216.03 235.916 L2216.03 231.981 Z" fill="#000000" fill-rule="evenodd" fill-opacity="1" /><polyline clip-path="url(#clip780)" style="stroke:#e26f46; stroke-linecap:butt; stroke-linejoin:round; stroke-width:4; stroke-opacity:1; fill:none" points="
  1797.32,270.476 1937.51,270.476 
  "/>
<path clip-path="url(#clip780)" d="M1960.87 253.196 L1990.11 253.196 L1990.11 257.131 L1977.84 257.131 L1977.84 287.756 L1973.14 287.756 L1973.14 257.131 L1960.87 257.131 L1960.87 253.196 Z" fill="#000000" fill-rule="evenodd" fill-opacity="1" /><path clip-path="url(#clip780)" d="M2002.49 265.811 Q2001.77 265.395 2000.92 265.21 Q2000.08 265.001 1999.06 265.001 Q1995.45 265.001 1993.51 267.362 Q1991.59 269.7 1991.59 274.098 L1991.59 287.756 L1987.3 287.756 L1987.3 261.83 L1991.59 261.83 L1991.59 265.858 Q1992.93 263.497 1995.08 262.362 Q1997.24 261.205 2000.31 261.205 Q2000.75 261.205 2001.29 261.274 Q2001.82 261.321 2002.47 261.436 L2002.49 265.811 Z" fill="#000000" fill-rule="evenodd" fill-opacity="1" /><path clip-path="url(#clip780)" d="M2018.74 274.723 Q2013.58 274.723 2011.59 275.904 Q2009.6 277.084 2009.6 279.932 Q2009.6 282.2 2011.08 283.543 Q2012.58 284.862 2015.15 284.862 Q2018.69 284.862 2020.82 282.362 Q2022.98 279.839 2022.98 275.672 L2022.98 274.723 L2018.74 274.723 M2027.24 272.964 L2027.24 287.756 L2022.98 287.756 L2022.98 283.821 Q2021.52 286.182 2019.34 287.316 Q2017.17 288.427 2014.02 288.427 Q2010.04 288.427 2007.68 286.205 Q2005.34 283.959 2005.34 280.209 Q2005.34 275.834 2008.25 273.612 Q2011.19 271.39 2017 271.39 L2022.98 271.39 L2022.98 270.973 Q2022.98 268.034 2021.03 266.436 Q2019.11 264.816 2015.61 264.816 Q2013.39 264.816 2011.29 265.348 Q2009.18 265.881 2007.24 266.946 L2007.24 263.01 Q2009.57 262.108 2011.77 261.668 Q2013.97 261.205 2016.05 261.205 Q2021.68 261.205 2024.46 264.122 Q2027.24 267.038 2027.24 272.964 Z" fill="#000000" fill-rule="evenodd" fill-opacity="1" /><path clip-path="url(#clip780)" d="M2036.01 261.83 L2040.27 261.83 L2040.27 288.219 Q2040.27 293.172 2038.37 295.395 Q2036.49 297.617 2032.3 297.617 L2030.68 297.617 L2030.68 294.006 L2031.82 294.006 Q2034.25 294.006 2035.13 292.871 Q2036.01 291.76 2036.01 288.219 L2036.01 261.83 M2036.01 251.737 L2040.27 251.737 L2040.27 257.131 L2036.01 257.131 L2036.01 251.737 Z" fill="#000000" fill-rule="evenodd" fill-opacity="1" /><path clip-path="url(#clip780)" d="M2071.36 273.728 L2071.36 275.811 L2051.77 275.811 Q2052.05 280.209 2054.41 282.524 Q2056.8 284.816 2061.03 284.816 Q2063.48 284.816 2065.78 284.214 Q2068.09 283.612 2070.36 282.409 L2070.36 286.436 Q2068.07 287.408 2065.66 287.918 Q2063.25 288.427 2060.78 288.427 Q2054.57 288.427 2050.94 284.816 Q2047.33 281.205 2047.33 275.047 Q2047.33 268.682 2050.75 264.955 Q2054.2 261.205 2060.04 261.205 Q2065.27 261.205 2068.3 264.585 Q2071.36 267.941 2071.36 273.728 M2067.1 272.478 Q2067.05 268.983 2065.13 266.899 Q2063.23 264.816 2060.08 264.816 Q2056.52 264.816 2054.36 266.83 Q2052.23 268.844 2051.91 272.501 L2067.1 272.478 Z" fill="#000000" fill-rule="evenodd" fill-opacity="1" /><path clip-path="url(#clip780)" d="M2097 262.825 L2097 266.807 Q2095.2 265.811 2093.37 265.325 Q2091.56 264.816 2089.71 264.816 Q2085.57 264.816 2083.28 267.455 Q2080.98 270.071 2080.98 274.816 Q2080.98 279.561 2083.28 282.2 Q2085.57 284.816 2089.71 284.816 Q2091.56 284.816 2093.37 284.33 Q2095.2 283.821 2097 282.825 L2097 286.76 Q2095.22 287.594 2093.3 288.01 Q2091.4 288.427 2089.25 288.427 Q2083.39 288.427 2079.94 284.746 Q2076.49 281.066 2076.49 274.816 Q2076.49 268.473 2079.97 264.839 Q2083.46 261.205 2089.53 261.205 Q2091.49 261.205 2093.37 261.622 Q2095.24 262.015 2097 262.825 Z" fill="#000000" fill-rule="evenodd" fill-opacity="1" /><path clip-path="url(#clip780)" d="M2108.62 254.469 L2108.62 261.83 L2117.4 261.83 L2117.4 265.14 L2108.62 265.14 L2108.62 279.214 Q2108.62 282.385 2109.48 283.288 Q2110.36 284.191 2113.02 284.191 L2117.4 284.191 L2117.4 287.756 L2113.02 287.756 Q2108.09 287.756 2106.22 285.927 Q2104.34 284.075 2104.34 279.214 L2104.34 265.14 L2101.22 265.14 L2101.22 261.83 L2104.34 261.83 L2104.34 254.469 L2108.62 254.469 Z" fill="#000000" fill-rule="evenodd" fill-opacity="1" /><path clip-path="url(#clip780)" d="M2133.04 264.816 Q2129.62 264.816 2127.63 267.501 Q2125.64 270.163 2125.64 274.816 Q2125.64 279.469 2127.6 282.154 Q2129.6 284.816 2133.04 284.816 Q2136.45 284.816 2138.44 282.131 Q2140.43 279.446 2140.43 274.816 Q2140.43 270.21 2138.44 267.524 Q2136.45 264.816 2133.04 264.816 M2133.04 261.205 Q2138.6 261.205 2141.77 264.816 Q2144.94 268.427 2144.94 274.816 Q2144.94 281.182 2141.77 284.816 Q2138.6 288.427 2133.04 288.427 Q2127.47 288.427 2124.29 284.816 Q2121.15 281.182 2121.15 274.816 Q2121.15 268.427 2124.29 264.816 Q2127.47 261.205 2133.04 261.205 Z" fill="#000000" fill-rule="evenodd" fill-opacity="1" /><path clip-path="url(#clip780)" d="M2167.03 265.811 Q2166.31 265.395 2165.45 265.21 Q2164.62 265.001 2163.6 265.001 Q2159.99 265.001 2158.04 267.362 Q2156.12 269.7 2156.12 274.098 L2156.12 287.756 L2151.84 287.756 L2151.84 261.83 L2156.12 261.83 L2156.12 265.858 Q2157.47 263.497 2159.62 262.362 Q2161.77 261.205 2164.85 261.205 Q2165.29 261.205 2165.82 261.274 Q2166.35 261.321 2167 261.436 L2167.03 265.811 Z" fill="#000000" fill-rule="evenodd" fill-opacity="1" /><path clip-path="url(#clip780)" d="M2182.28 290.163 Q2180.48 294.793 2178.76 296.205 Q2177.05 297.617 2174.18 297.617 L2170.78 297.617 L2170.78 294.052 L2173.28 294.052 Q2175.04 294.052 2176.01 293.219 Q2176.98 292.385 2178.16 289.283 L2178.92 287.339 L2168.44 261.83 L2172.95 261.83 L2181.05 282.108 L2189.16 261.83 L2193.67 261.83 L2182.28 290.163 Z" fill="#000000" fill-rule="evenodd" fill-opacity="1" /><path clip-path="url(#clip780)" d="M2219.25 283.821 L2235.57 283.821 L2235.57 287.756 L2213.62 287.756 L2213.62 283.821 Q2216.29 281.066 2220.87 276.436 Q2225.47 271.784 2226.66 270.441 Q2228.9 267.918 2229.78 266.182 Q2230.68 264.423 2230.68 262.733 Q2230.68 259.978 2228.74 258.242 Q2226.82 256.506 2223.72 256.506 Q2221.52 256.506 2219.06 257.27 Q2216.63 258.034 2213.85 259.585 L2213.85 254.862 Q2216.68 253.728 2219.13 253.149 Q2221.59 252.571 2223.62 252.571 Q2228.99 252.571 2232.19 255.256 Q2235.38 257.941 2235.38 262.432 Q2235.38 264.561 2234.57 266.483 Q2233.78 268.381 2231.68 270.973 Q2231.1 271.645 2228 274.862 Q2224.9 278.057 2219.25 283.821 Z" fill="#000000" fill-rule="evenodd" fill-opacity="1" /></svg>
