<?xml version="1.0" encoding="utf-8"?>
<svg xmlns="http://www.w3.org/2000/svg" xmlns:xlink="http://www.w3.org/1999/xlink" width="600" height="400" viewBox="0 0 2400 1600">
<defs>
  <clipPath id="clip200">
    <rect x="0" y="0" width="2400" height="1600"/>
  </clipPath>
</defs>
<path clip-path="url(#clip200)" d="
M0 1600 L2400 1600 L2400 0 L0 0  Z
  " fill="#ffffff" fill-rule="evenodd" fill-opacity="1"/>
<defs>
  <clipPath id="clip201">
    <rect x="480" y="0" width="1681" height="1600"/>
  </clipPath>
</defs>
<path clip-path="url(#clip200)" d="
M279.704 1423.18 L2352.76 1423.18 L2352.76 123.472 L279.704 123.472  Z
  " fill="#ffffff" fill-rule="evenodd" fill-opacity="1"/>
<defs>
  <clipPath id="clip202">
    <rect x="279" y="123" width="2074" height="1301"/>
  </clipPath>
</defs>
<polyline clip-path="url(#clip202)" style="stroke:#000000; stroke-linecap:butt; stroke-linejoin:round; stroke-width:2; stroke-opacity:0.1; fill:none" points="
  279.704,1423.18 279.704,123.472 
  "/>
<polyline clip-path="url(#clip202)" style="stroke:#000000; stroke-linecap:butt; stroke-linejoin:round; stroke-width:2; stroke-opacity:0.1; fill:none" points="
  656.622,1423.18 656.622,123.472 
  "/>
<polyline clip-path="url(#clip202)" style="stroke:#000000; stroke-linecap:butt; stroke-linejoin:round; stroke-width:2; stroke-opacity:0.1; fill:none" points="
  1033.54,1423.18 1033.54,123.472 
  "/>
<polyline clip-path="url(#clip202)" style="stroke:#000000; stroke-linecap:butt; stroke-linejoin:round; stroke-width:2; stroke-opacity:0.1; fill:none" points="
  1410.46,1423.18 1410.46,123.472 
  "/>
<polyline clip-path="url(#clip202)" style="stroke:#000000; stroke-linecap:butt; stroke-linejoin:round; stroke-width:2; stroke-opacity:0.1; fill:none" points="
  1787.38,1423.18 1787.38,123.472 
  "/>
<polyline clip-path="url(#clip202)" style="stroke:#000000; stroke-linecap:butt; stroke-linejoin:round; stroke-width:2; stroke-opacity:0.1; fill:none" points="
  2164.3,1423.18 2164.3,123.472 
  "/>
<polyline clip-path="url(#clip200)" style="stroke:#000000; stroke-linecap:butt; stroke-linejoin:round; stroke-width:4; stroke-opacity:1; fill:none" points="
  279.704,1423.18 2352.76,1423.18 
  "/>
<polyline clip-path="url(#clip200)" style="stroke:#000000; stroke-linecap:butt; stroke-linejoin:round; stroke-width:4; stroke-opacity:1; fill:none" points="
  279.704,1423.18 279.704,1404.28 
  "/>
<polyline clip-path="url(#clip200)" style="stroke:#000000; stroke-linecap:butt; stroke-linejoin:round; stroke-width:4; stroke-opacity:1; fill:none" points="
  656.622,1423.18 656.622,1404.28 
  "/>
<polyline clip-path="url(#clip200)" style="stroke:#000000; stroke-linecap:butt; stroke-linejoin:round; stroke-width:4; stroke-opacity:1; fill:none" points="
  1033.54,1423.18 1033.54,1404.28 
  "/>
<polyline clip-path="url(#clip200)" style="stroke:#000000; stroke-linecap:butt; stroke-linejoin:round; stroke-width:4; stroke-opacity:1; fill:none" points="
  1410.46,1423.18 1410.46,1404.28 
  "/>
<polyline clip-path="url(#clip200)" style="stroke:#000000; stroke-linecap:butt; stroke-linejoin:round; stroke-width:4; stroke-opacity:1; fill:none" points="
  1787.38,1423.18 1787.38,1404.28 
  "/>
<polyline clip-path="url(#clip200)" style="stroke:#000000; stroke-linecap:butt; stroke-linejoin:round; stroke-width:4; stroke-opacity:1; fill:none" points="
  2164.3,1423.18 2164.3,1404.28 
  "/>
<path clip-path="url(#clip200)" d="M279.704 1452.37 Q276.093 1452.37 274.264 1455.94 Q272.459 1459.48 272.459 1466.61 Q272.459 1473.71 274.264 1477.28 Q276.093 1480.82 279.704 1480.82 Q283.338 1480.82 285.144 1477.28 Q286.972 1473.71 286.972 1466.61 Q286.972 1459.48 285.144 1455.94 Q283.338 1452.37 279.704 1452.37 M279.704 1448.67 Q285.514 1448.67 288.57 1453.27 Q291.648 1457.86 291.648 1466.61 Q291.648 1475.33 288.57 1479.94 Q285.514 1484.52 279.704 1484.52 Q273.894 1484.52 270.815 1479.94 Q267.76 1475.33 267.76 1466.61 Q267.76 1457.86 270.815 1453.27 Q273.894 1448.67 279.704 1448.67 Z" fill="#000000" fill-rule="evenodd" fill-opacity="1" /><path clip-path="url(#clip200)" d="M616.229 1479.92 L623.868 1479.92 L623.868 1453.55 L615.558 1455.22 L615.558 1450.96 L623.822 1449.29 L628.498 1449.29 L628.498 1479.92 L636.136 1479.92 L636.136 1483.85 L616.229 1483.85 L616.229 1479.92 Z" fill="#000000" fill-rule="evenodd" fill-opacity="1" /><path clip-path="url(#clip200)" d="M655.581 1452.37 Q651.97 1452.37 650.141 1455.94 Q648.335 1459.48 648.335 1466.61 Q648.335 1473.71 650.141 1477.28 Q651.97 1480.82 655.581 1480.82 Q659.215 1480.82 661.021 1477.28 Q662.849 1473.71 662.849 1466.61 Q662.849 1459.48 661.021 1455.94 Q659.215 1452.37 655.581 1452.37 M655.581 1448.67 Q661.391 1448.67 664.446 1453.27 Q667.525 1457.86 667.525 1466.61 Q667.525 1475.33 664.446 1479.94 Q661.391 1484.52 655.581 1484.52 Q649.771 1484.52 646.692 1479.94 Q643.636 1475.33 643.636 1466.61 Q643.636 1457.86 646.692 1453.27 Q649.771 1448.67 655.581 1448.67 Z" fill="#000000" fill-rule="evenodd" fill-opacity="1" /><path clip-path="url(#clip200)" d="M685.743 1452.37 Q682.132 1452.37 680.303 1455.94 Q678.497 1459.48 678.497 1466.61 Q678.497 1473.71 680.303 1477.28 Q682.132 1480.82 685.743 1480.82 Q689.377 1480.82 691.182 1477.28 Q693.011 1473.71 693.011 1466.61 Q693.011 1459.48 691.182 1455.94 Q689.377 1452.37 685.743 1452.37 M685.743 1448.67 Q691.553 1448.67 694.608 1453.27 Q697.687 1457.86 697.687 1466.61 Q697.687 1475.33 694.608 1479.94 Q691.553 1484.52 685.743 1484.52 Q679.933 1484.52 676.854 1479.94 Q673.798 1475.33 673.798 1466.61 Q673.798 1457.86 676.854 1453.27 Q679.933 1448.67 685.743 1448.67 Z" fill="#000000" fill-rule="evenodd" fill-opacity="1" /><path clip-path="url(#clip200)" d="M997.233 1479.92 L1013.55 1479.92 L1013.55 1483.85 L991.608 1483.85 L991.608 1479.92 Q994.27 1477.16 998.854 1472.53 Q1003.46 1467.88 1004.64 1466.54 Q1006.89 1464.01 1007.77 1462.28 Q1008.67 1460.52 1008.67 1458.83 Q1008.67 1456.07 1006.72 1454.34 Q1004.8 1452.6 1001.7 1452.6 Q999.502 1452.6 997.048 1453.37 Q994.618 1454.13 991.84 1455.68 L991.84 1450.96 Q994.664 1449.82 997.118 1449.25 Q999.571 1448.67 1001.61 1448.67 Q1006.98 1448.67 1010.17 1451.35 Q1013.37 1454.04 1013.37 1458.53 Q1013.37 1460.66 1012.56 1462.58 Q1011.77 1464.48 1009.66 1467.07 Q1009.09 1467.74 1005.98 1470.96 Q1002.88 1474.15 997.233 1479.92 Z" fill="#000000" fill-rule="evenodd" fill-opacity="1" /><path clip-path="url(#clip200)" d="M1033.37 1452.37 Q1029.76 1452.37 1027.93 1455.94 Q1026.12 1459.48 1026.12 1466.61 Q1026.12 1473.71 1027.93 1477.28 Q1029.76 1480.82 1033.37 1480.82 Q1037 1480.82 1038.81 1477.28 Q1040.64 1473.71 1040.64 1466.61 Q1040.64 1459.48 1038.81 1455.94 Q1037 1452.37 1033.37 1452.37 M1033.37 1448.67 Q1039.18 1448.67 1042.23 1453.27 Q1045.31 1457.86 1045.31 1466.61 Q1045.31 1475.33 1042.23 1479.94 Q1039.18 1484.52 1033.37 1484.52 Q1027.56 1484.52 1024.48 1479.94 Q1021.42 1475.33 1021.42 1466.61 Q1021.42 1457.86 1024.48 1453.27 Q1027.56 1448.67 1033.37 1448.67 Z" fill="#000000" fill-rule="evenodd" fill-opacity="1" /><path clip-path="url(#clip200)" d="M1063.53 1452.37 Q1059.92 1452.37 1058.09 1455.94 Q1056.28 1459.48 1056.28 1466.61 Q1056.28 1473.71 1058.09 1477.28 Q1059.92 1480.82 1063.53 1480.82 Q1067.16 1480.82 1068.97 1477.28 Q1070.8 1473.71 1070.8 1466.61 Q1070.8 1459.48 1068.97 1455.94 Q1067.16 1452.37 1063.53 1452.37 M1063.53 1448.67 Q1069.34 1448.67 1072.39 1453.27 Q1075.47 1457.86 1075.47 1466.61 Q1075.47 1475.33 1072.39 1479.94 Q1069.34 1484.52 1063.53 1484.52 Q1057.72 1484.52 1054.64 1479.94 Q1051.58 1475.33 1051.58 1466.61 Q1051.58 1457.86 1054.64 1453.27 Q1057.72 1448.67 1063.53 1448.67 Z" fill="#000000" fill-rule="evenodd" fill-opacity="1" /><path clip-path="url(#clip200)" d="M1384.22 1465.22 Q1387.58 1465.94 1389.45 1468.2 Q1391.35 1470.47 1391.35 1473.81 Q1391.35 1478.92 1387.83 1481.72 Q1384.31 1484.52 1377.83 1484.52 Q1375.66 1484.52 1373.34 1484.08 Q1371.05 1483.67 1368.6 1482.81 L1368.6 1478.3 Q1370.54 1479.43 1372.86 1480.01 Q1375.17 1480.59 1377.69 1480.59 Q1382.09 1480.59 1384.38 1478.85 Q1386.7 1477.12 1386.7 1473.81 Q1386.7 1470.75 1384.55 1469.04 Q1382.42 1467.3 1378.6 1467.3 L1374.57 1467.3 L1374.57 1463.46 L1378.78 1463.46 Q1382.23 1463.46 1384.06 1462.09 Q1385.89 1460.7 1385.89 1458.11 Q1385.89 1455.45 1383.99 1454.04 Q1382.11 1452.6 1378.6 1452.6 Q1376.68 1452.6 1374.48 1453.02 Q1372.28 1453.44 1369.64 1454.31 L1369.64 1450.15 Q1372.3 1449.41 1374.61 1449.04 Q1376.95 1448.67 1379.01 1448.67 Q1384.34 1448.67 1387.44 1451.1 Q1390.54 1453.5 1390.54 1457.63 Q1390.54 1460.5 1388.9 1462.49 Q1387.25 1464.45 1384.22 1465.22 Z" fill="#000000" fill-rule="evenodd" fill-opacity="1" /><path clip-path="url(#clip200)" d="M1410.22 1452.37 Q1406.61 1452.37 1404.78 1455.94 Q1402.97 1459.48 1402.97 1466.61 Q1402.97 1473.71 1404.78 1477.28 Q1406.61 1480.82 1410.22 1480.82 Q1413.85 1480.82 1415.66 1477.28 Q1417.48 1473.71 1417.48 1466.61 Q1417.48 1459.48 1415.66 1455.94 Q1413.85 1452.37 1410.22 1452.37 M1410.22 1448.67 Q1416.03 1448.67 1419.08 1453.27 Q1422.16 1457.86 1422.16 1466.61 Q1422.16 1475.33 1419.08 1479.94 Q1416.03 1484.52 1410.22 1484.52 Q1404.41 1484.52 1401.33 1479.94 Q1398.27 1475.33 1398.27 1466.61 Q1398.27 1457.86 1401.33 1453.27 Q1404.41 1448.67 1410.22 1448.67 Z" fill="#000000" fill-rule="evenodd" fill-opacity="1" /><path clip-path="url(#clip200)" d="M1440.38 1452.37 Q1436.77 1452.37 1434.94 1455.94 Q1433.13 1459.48 1433.13 1466.61 Q1433.13 1473.71 1434.94 1477.28 Q1436.77 1480.82 1440.38 1480.82 Q1444.01 1480.82 1445.82 1477.28 Q1447.65 1473.71 1447.65 1466.61 Q1447.65 1459.48 1445.82 1455.94 Q1444.01 1452.37 1440.38 1452.37 M1440.38 1448.67 Q1446.19 1448.67 1449.24 1453.27 Q1452.32 1457.86 1452.32 1466.61 Q1452.32 1475.33 1449.24 1479.94 Q1446.19 1484.52 1440.38 1484.52 Q1434.57 1484.52 1431.49 1479.94 Q1428.43 1475.33 1428.43 1466.61 Q1428.43 1457.86 1431.49 1453.27 Q1434.57 1448.67 1440.38 1448.67 Z" fill="#000000" fill-rule="evenodd" fill-opacity="1" /><path clip-path="url(#clip200)" d="M1760.47 1453.37 L1748.66 1471.81 L1760.47 1471.81 L1760.47 1453.37 M1759.24 1449.29 L1765.12 1449.29 L1765.12 1471.81 L1770.05 1471.81 L1770.05 1475.7 L1765.12 1475.7 L1765.12 1483.85 L1760.47 1483.85 L1760.47 1475.7 L1744.87 1475.7 L1744.87 1471.19 L1759.24 1449.29 Z" fill="#000000" fill-rule="evenodd" fill-opacity="1" /><path clip-path="url(#clip200)" d="M1787.78 1452.37 Q1784.17 1452.37 1782.34 1455.94 Q1780.54 1459.48 1780.54 1466.61 Q1780.54 1473.71 1782.34 1477.28 Q1784.17 1480.82 1787.78 1480.82 Q1791.42 1480.82 1793.22 1477.28 Q1795.05 1473.71 1795.05 1466.61 Q1795.05 1459.48 1793.22 1455.94 Q1791.42 1452.37 1787.78 1452.37 M1787.78 1448.67 Q1793.59 1448.67 1796.65 1453.27 Q1799.73 1457.86 1799.73 1466.61 Q1799.73 1475.33 1796.65 1479.94 Q1793.59 1484.52 1787.78 1484.52 Q1781.97 1484.52 1778.89 1479.94 Q1775.84 1475.33 1775.84 1466.61 Q1775.84 1457.86 1778.89 1453.27 Q1781.97 1448.67 1787.78 1448.67 Z" fill="#000000" fill-rule="evenodd" fill-opacity="1" /><path clip-path="url(#clip200)" d="M1817.95 1452.37 Q1814.33 1452.37 1812.51 1455.94 Q1810.7 1459.48 1810.7 1466.61 Q1810.7 1473.71 1812.51 1477.28 Q1814.33 1480.82 1817.95 1480.82 Q1821.58 1480.82 1823.38 1477.28 Q1825.21 1473.71 1825.21 1466.61 Q1825.21 1459.48 1823.38 1455.94 Q1821.58 1452.37 1817.95 1452.37 M1817.95 1448.67 Q1823.76 1448.67 1826.81 1453.27 Q1829.89 1457.86 1829.89 1466.61 Q1829.89 1475.33 1826.81 1479.94 Q1823.76 1484.52 1817.95 1484.52 Q1812.13 1484.52 1809.06 1479.94 Q1806 1475.33 1806 1466.61 Q1806 1457.86 1809.06 1453.27 Q1812.13 1448.67 1817.95 1448.67 Z" fill="#000000" fill-rule="evenodd" fill-opacity="1" /><path clip-path="url(#clip200)" d="M2123.91 1449.29 L2142.27 1449.29 L2142.27 1453.23 L2128.2 1453.23 L2128.2 1461.7 Q2129.22 1461.35 2130.23 1461.19 Q2131.25 1461 2132.27 1461 Q2138.06 1461 2141.44 1464.18 Q2144.82 1467.35 2144.82 1472.76 Q2144.82 1478.34 2141.35 1481.44 Q2137.87 1484.52 2131.55 1484.52 Q2129.38 1484.52 2127.11 1484.15 Q2124.86 1483.78 2122.46 1483.04 L2122.46 1478.34 Q2124.54 1479.48 2126.76 1480.03 Q2128.98 1480.59 2131.46 1480.59 Q2135.47 1480.59 2137.8 1478.48 Q2140.14 1476.38 2140.14 1472.76 Q2140.14 1469.15 2137.8 1467.05 Q2135.47 1464.94 2131.46 1464.94 Q2129.59 1464.94 2127.71 1465.36 Q2125.86 1465.77 2123.91 1466.65 L2123.91 1449.29 Z" fill="#000000" fill-rule="evenodd" fill-opacity="1" /><path clip-path="url(#clip200)" d="M2164.03 1452.37 Q2160.42 1452.37 2158.59 1455.94 Q2156.79 1459.48 2156.79 1466.61 Q2156.79 1473.71 2158.59 1477.28 Q2160.42 1480.82 2164.03 1480.82 Q2167.66 1480.82 2169.47 1477.28 Q2171.3 1473.71 2171.3 1466.61 Q2171.3 1459.48 2169.47 1455.94 Q2167.66 1452.37 2164.03 1452.37 M2164.03 1448.67 Q2169.84 1448.67 2172.9 1453.27 Q2175.97 1457.86 2175.97 1466.61 Q2175.97 1475.33 2172.9 1479.94 Q2169.84 1484.52 2164.03 1484.52 Q2158.22 1484.52 2155.14 1479.94 Q2152.09 1475.33 2152.09 1466.61 Q2152.09 1457.86 2155.14 1453.27 Q2158.22 1448.67 2164.03 1448.67 Z" fill="#000000" fill-rule="evenodd" fill-opacity="1" /><path clip-path="url(#clip200)" d="M2194.19 1452.37 Q2190.58 1452.37 2188.75 1455.94 Q2186.95 1459.48 2186.95 1466.61 Q2186.95 1473.71 2188.75 1477.28 Q2190.58 1480.82 2194.19 1480.82 Q2197.83 1480.82 2199.63 1477.28 Q2201.46 1473.71 2201.46 1466.61 Q2201.46 1459.48 2199.63 1455.94 Q2197.83 1452.37 2194.19 1452.37 M2194.19 1448.67 Q2200 1448.67 2203.06 1453.27 Q2206.14 1457.86 2206.14 1466.61 Q2206.14 1475.33 2203.06 1479.94 Q2200 1484.52 2194.19 1484.52 Q2188.38 1484.52 2185.3 1479.94 Q2182.25 1475.33 2182.25 1466.61 Q2182.25 1457.86 2185.3 1453.27 Q2188.38 1448.67 2194.19 1448.67 Z" fill="#000000" fill-rule="evenodd" fill-opacity="1" /><path clip-path="url(#clip200)" d="M1315.29 1522.27 L1315.29 1532.4 L1327.35 1532.4 L1327.35 1536.95 L1315.29 1536.95 L1315.29 1556.3 Q1315.29 1560.66 1316.47 1561.9 Q1317.68 1563.14 1321.34 1563.14 L1327.35 1563.14 L1327.35 1568.04 L1321.34 1568.04 Q1314.56 1568.04 1311.98 1565.53 Q1309.4 1562.98 1309.4 1556.3 L1309.4 1536.95 L1305.11 1536.95 L1305.11 1532.4 L1309.4 1532.4 L1309.4 1522.27 L1315.29 1522.27 Z" fill="#000000" fill-rule="evenodd" fill-opacity="1" /><polyline clip-path="url(#clip202)" style="stroke:#000000; stroke-linecap:butt; stroke-linejoin:round; stroke-width:2; stroke-opacity:0.1; fill:none" points="
  279.704,1387.2 2352.76,1387.2 
  "/>
<polyline clip-path="url(#clip202)" style="stroke:#000000; stroke-linecap:butt; stroke-linejoin:round; stroke-width:2; stroke-opacity:0.1; fill:none" points="
  279.704,1073.24 2352.76,1073.24 
  "/>
<polyline clip-path="url(#clip202)" style="stroke:#000000; stroke-linecap:butt; stroke-linejoin:round; stroke-width:2; stroke-opacity:0.1; fill:none" points="
  279.704,759.284 2352.76,759.284 
  "/>
<polyline clip-path="url(#clip202)" style="stroke:#000000; stroke-linecap:butt; stroke-linejoin:round; stroke-width:2; stroke-opacity:0.1; fill:none" points="
  279.704,445.323 2352.76,445.323 
  "/>
<polyline clip-path="url(#clip202)" style="stroke:#000000; stroke-linecap:butt; stroke-linejoin:round; stroke-width:2; stroke-opacity:0.1; fill:none" points="
  279.704,131.363 2352.76,131.363 
  "/>
<polyline clip-path="url(#clip200)" style="stroke:#000000; stroke-linecap:butt; stroke-linejoin:round; stroke-width:4; stroke-opacity:1; fill:none" points="
  279.704,1423.18 279.704,123.472 
  "/>
<polyline clip-path="url(#clip200)" style="stroke:#000000; stroke-linecap:butt; stroke-linejoin:round; stroke-width:4; stroke-opacity:1; fill:none" points="
  279.704,1387.2 298.602,1387.2 
  "/>
<polyline clip-path="url(#clip200)" style="stroke:#000000; stroke-linecap:butt; stroke-linejoin:round; stroke-width:4; stroke-opacity:1; fill:none" points="
  279.704,1073.24 298.602,1073.24 
  "/>
<polyline clip-path="url(#clip200)" style="stroke:#000000; stroke-linecap:butt; stroke-linejoin:round; stroke-width:4; stroke-opacity:1; fill:none" points="
  279.704,759.284 298.602,759.284 
  "/>
<polyline clip-path="url(#clip200)" style="stroke:#000000; stroke-linecap:butt; stroke-linejoin:round; stroke-width:4; stroke-opacity:1; fill:none" points="
  279.704,445.323 298.602,445.323 
  "/>
<polyline clip-path="url(#clip200)" style="stroke:#000000; stroke-linecap:butt; stroke-linejoin:round; stroke-width:4; stroke-opacity:1; fill:none" points="
  279.704,131.363 298.602,131.363 
  "/>
<path clip-path="url(#clip200)" d="M126.205 1373 Q122.593 1373 120.765 1376.57 Q118.959 1380.11 118.959 1387.24 Q118.959 1394.35 120.765 1397.91 Q122.593 1401.45 126.205 1401.45 Q129.839 1401.45 131.644 1397.91 Q133.473 1394.35 133.473 1387.24 Q133.473 1380.11 131.644 1376.57 Q129.839 1373 126.205 1373 M126.205 1369.3 Q132.015 1369.3 135.07 1373.91 Q138.149 1378.49 138.149 1387.24 Q138.149 1395.97 135.07 1400.57 Q132.015 1405.16 126.205 1405.16 Q120.394 1405.16 117.316 1400.57 Q114.26 1395.97 114.26 1387.24 Q114.26 1378.49 117.316 1373.91 Q120.394 1369.3 126.205 1369.3 Z" fill="#000000" fill-rule="evenodd" fill-opacity="1" /><path clip-path="url(#clip200)" d="M146.366 1398.6 L151.251 1398.6 L151.251 1404.48 L146.366 1404.48 L146.366 1398.6 Z" fill="#000000" fill-rule="evenodd" fill-opacity="1" /><path clip-path="url(#clip200)" d="M171.436 1373 Q167.825 1373 165.996 1376.57 Q164.19 1380.11 164.19 1387.24 Q164.19 1394.35 165.996 1397.91 Q167.825 1401.45 171.436 1401.45 Q175.07 1401.45 176.876 1397.91 Q178.704 1394.35 178.704 1387.24 Q178.704 1380.11 176.876 1376.57 Q175.07 1373 171.436 1373 M171.436 1369.3 Q177.246 1369.3 180.301 1373.91 Q183.38 1378.49 183.38 1387.24 Q183.38 1395.97 180.301 1400.57 Q177.246 1405.16 171.436 1405.16 Q165.626 1405.16 162.547 1400.57 Q159.491 1395.97 159.491 1387.24 Q159.491 1378.49 162.547 1373.91 Q165.626 1369.3 171.436 1369.3 Z" fill="#000000" fill-rule="evenodd" fill-opacity="1" /><path clip-path="url(#clip200)" d="M201.598 1373 Q197.987 1373 196.158 1376.57 Q194.352 1380.11 194.352 1387.24 Q194.352 1394.35 196.158 1397.91 Q197.987 1401.45 201.598 1401.45 Q205.232 1401.45 207.037 1397.91 Q208.866 1394.35 208.866 1387.24 Q208.866 1380.11 207.037 1376.57 Q205.232 1373 201.598 1373 M201.598 1369.3 Q207.408 1369.3 210.463 1373.91 Q213.542 1378.49 213.542 1387.24 Q213.542 1395.97 210.463 1400.57 Q207.408 1405.16 201.598 1405.16 Q195.787 1405.16 192.709 1400.57 Q189.653 1395.97 189.653 1387.24 Q189.653 1378.49 192.709 1373.91 Q195.787 1369.3 201.598 1369.3 Z" fill="#000000" fill-rule="evenodd" fill-opacity="1" /><path clip-path="url(#clip200)" d="M231.76 1373 Q228.148 1373 226.32 1376.57 Q224.514 1380.11 224.514 1387.24 Q224.514 1394.35 226.32 1397.91 Q228.148 1401.45 231.76 1401.45 Q235.394 1401.45 237.199 1397.91 Q239.028 1394.35 239.028 1387.24 Q239.028 1380.11 237.199 1376.57 Q235.394 1373 231.76 1373 M231.76 1369.3 Q237.57 1369.3 240.625 1373.91 Q243.704 1378.49 243.704 1387.24 Q243.704 1395.97 240.625 1400.57 Q237.57 1405.16 231.76 1405.16 Q225.949 1405.16 222.871 1400.57 Q219.815 1395.97 219.815 1387.24 Q219.815 1378.49 222.871 1373.91 Q225.949 1369.3 231.76 1369.3 Z" fill="#000000" fill-rule="evenodd" fill-opacity="1" /><path clip-path="url(#clip200)" d="M127.2 1059.04 Q123.589 1059.04 121.76 1062.61 Q119.955 1066.15 119.955 1073.28 Q119.955 1080.38 121.76 1083.95 Q123.589 1087.49 127.2 1087.49 Q130.834 1087.49 132.64 1083.95 Q134.468 1080.38 134.468 1073.28 Q134.468 1066.15 132.64 1062.61 Q130.834 1059.04 127.2 1059.04 M127.2 1055.34 Q133.01 1055.34 136.066 1059.95 Q139.144 1064.53 139.144 1073.28 Q139.144 1082.01 136.066 1086.61 Q133.01 1091.2 127.2 1091.2 Q121.39 1091.2 118.311 1086.61 Q115.256 1082.01 115.256 1073.28 Q115.256 1064.53 118.311 1059.95 Q121.39 1055.34 127.2 1055.34 Z" fill="#000000" fill-rule="evenodd" fill-opacity="1" /><path clip-path="url(#clip200)" d="M147.362 1084.64 L152.246 1084.64 L152.246 1090.52 L147.362 1090.52 L147.362 1084.64 Z" fill="#000000" fill-rule="evenodd" fill-opacity="1" /><path clip-path="url(#clip200)" d="M172.431 1059.04 Q168.82 1059.04 166.991 1062.61 Q165.186 1066.15 165.186 1073.28 Q165.186 1080.38 166.991 1083.95 Q168.82 1087.49 172.431 1087.49 Q176.065 1087.49 177.871 1083.95 Q179.7 1080.38 179.7 1073.28 Q179.7 1066.15 177.871 1062.61 Q176.065 1059.04 172.431 1059.04 M172.431 1055.34 Q178.241 1055.34 181.297 1059.95 Q184.376 1064.53 184.376 1073.28 Q184.376 1082.01 181.297 1086.61 Q178.241 1091.2 172.431 1091.2 Q166.621 1091.2 163.542 1086.61 Q160.487 1082.01 160.487 1073.28 Q160.487 1064.53 163.542 1059.95 Q166.621 1055.34 172.431 1055.34 Z" fill="#000000" fill-rule="evenodd" fill-opacity="1" /><path clip-path="url(#clip200)" d="M196.621 1086.59 L212.94 1086.59 L212.94 1090.52 L190.996 1090.52 L190.996 1086.59 Q193.658 1083.83 198.241 1079.2 Q202.848 1074.55 204.028 1073.21 Q206.274 1070.69 207.153 1068.95 Q208.056 1067.19 208.056 1065.5 Q208.056 1062.75 206.112 1061.01 Q204.19 1059.27 201.088 1059.27 Q198.889 1059.27 196.436 1060.04 Q194.005 1060.8 191.227 1062.35 L191.227 1057.63 Q194.051 1056.5 196.505 1055.92 Q198.959 1055.34 200.996 1055.34 Q206.366 1055.34 209.561 1058.02 Q212.755 1060.71 212.755 1065.2 Q212.755 1067.33 211.945 1069.25 Q211.158 1071.15 209.051 1073.74 Q208.473 1074.41 205.371 1077.63 Q202.269 1080.82 196.621 1086.59 Z" fill="#000000" fill-rule="evenodd" fill-opacity="1" /><path clip-path="url(#clip200)" d="M222.801 1055.96 L241.158 1055.96 L241.158 1059.9 L227.084 1059.9 L227.084 1068.37 Q228.102 1068.02 229.121 1067.86 Q230.139 1067.68 231.158 1067.68 Q236.945 1067.68 240.324 1070.85 Q243.704 1074.02 243.704 1079.44 Q243.704 1085.01 240.232 1088.12 Q236.76 1091.2 230.44 1091.2 Q228.264 1091.2 225.996 1090.82 Q223.75 1090.45 221.343 1089.71 L221.343 1085.01 Q223.426 1086.15 225.648 1086.7 Q227.871 1087.26 230.347 1087.26 Q234.352 1087.26 236.69 1085.15 Q239.028 1083.05 239.028 1079.44 Q239.028 1075.82 236.69 1073.72 Q234.352 1071.61 230.347 1071.61 Q228.473 1071.61 226.598 1072.03 Q224.746 1072.45 222.801 1073.32 L222.801 1055.96 Z" fill="#000000" fill-rule="evenodd" fill-opacity="1" /><path clip-path="url(#clip200)" d="M126.205 745.082 Q122.593 745.082 120.765 748.647 Q118.959 752.189 118.959 759.318 Q118.959 766.425 120.765 769.99 Q122.593 773.531 126.205 773.531 Q129.839 773.531 131.644 769.99 Q133.473 766.425 133.473 759.318 Q133.473 752.189 131.644 748.647 Q129.839 745.082 126.205 745.082 M126.205 741.379 Q132.015 741.379 135.07 745.985 Q138.149 750.568 138.149 759.318 Q138.149 768.045 135.07 772.652 Q132.015 777.235 126.205 777.235 Q120.394 777.235 117.316 772.652 Q114.26 768.045 114.26 759.318 Q114.26 750.568 117.316 745.985 Q120.394 741.379 126.205 741.379 Z" fill="#000000" fill-rule="evenodd" fill-opacity="1" /><path clip-path="url(#clip200)" d="M146.366 770.684 L151.251 770.684 L151.251 776.564 L146.366 776.564 L146.366 770.684 Z" fill="#000000" fill-rule="evenodd" fill-opacity="1" /><path clip-path="url(#clip200)" d="M171.436 745.082 Q167.825 745.082 165.996 748.647 Q164.19 752.189 164.19 759.318 Q164.19 766.425 165.996 769.99 Q167.825 773.531 171.436 773.531 Q175.07 773.531 176.876 769.99 Q178.704 766.425 178.704 759.318 Q178.704 752.189 176.876 748.647 Q175.07 745.082 171.436 745.082 M171.436 741.379 Q177.246 741.379 180.301 745.985 Q183.38 750.568 183.38 759.318 Q183.38 768.045 180.301 772.652 Q177.246 777.235 171.436 777.235 Q165.626 777.235 162.547 772.652 Q159.491 768.045 159.491 759.318 Q159.491 750.568 162.547 745.985 Q165.626 741.379 171.436 741.379 Z" fill="#000000" fill-rule="evenodd" fill-opacity="1" /><path clip-path="url(#clip200)" d="M191.644 742.004 L210 742.004 L210 745.939 L195.926 745.939 L195.926 754.411 Q196.945 754.064 197.963 753.902 Q198.982 753.717 200 753.717 Q205.787 753.717 209.167 756.888 Q212.547 760.059 212.547 765.476 Q212.547 771.054 209.074 774.156 Q205.602 777.235 199.283 777.235 Q197.107 777.235 194.838 776.865 Q192.593 776.494 190.186 775.753 L190.186 771.054 Q192.269 772.189 194.491 772.744 Q196.713 773.3 199.19 773.3 Q203.195 773.3 205.533 771.193 Q207.871 769.087 207.871 765.476 Q207.871 761.865 205.533 759.758 Q203.195 757.652 199.19 757.652 Q197.315 757.652 195.44 758.068 Q193.588 758.485 191.644 759.365 L191.644 742.004 Z" fill="#000000" fill-rule="evenodd" fill-opacity="1" /><path clip-path="url(#clip200)" d="M231.76 745.082 Q228.148 745.082 226.32 748.647 Q224.514 752.189 224.514 759.318 Q224.514 766.425 226.32 769.99 Q228.148 773.531 231.76 773.531 Q235.394 773.531 237.199 769.99 Q239.028 766.425 239.028 759.318 Q239.028 752.189 237.199 748.647 Q235.394 745.082 231.76 745.082 M231.76 741.379 Q237.57 741.379 240.625 745.985 Q243.704 750.568 243.704 759.318 Q243.704 768.045 240.625 772.652 Q237.57 777.235 231.76 777.235 Q225.949 777.235 222.871 772.652 Q219.815 768.045 219.815 759.318 Q219.815 750.568 222.871 745.985 Q225.949 741.379 231.76 741.379 Z" fill="#000000" fill-rule="evenodd" fill-opacity="1" /><path clip-path="url(#clip200)" d="M127.2 431.122 Q123.589 431.122 121.76 434.687 Q119.955 438.229 119.955 445.358 Q119.955 452.465 121.76 456.029 Q123.589 459.571 127.2 459.571 Q130.834 459.571 132.64 456.029 Q134.468 452.465 134.468 445.358 Q134.468 438.229 132.64 434.687 Q130.834 431.122 127.2 431.122 M127.2 427.418 Q133.01 427.418 136.066 432.025 Q139.144 436.608 139.144 445.358 Q139.144 454.085 136.066 458.691 Q133.01 463.275 127.2 463.275 Q121.39 463.275 118.311 458.691 Q115.256 454.085 115.256 445.358 Q115.256 436.608 118.311 432.025 Q121.39 427.418 127.2 427.418 Z" fill="#000000" fill-rule="evenodd" fill-opacity="1" /><path clip-path="url(#clip200)" d="M147.362 456.724 L152.246 456.724 L152.246 462.603 L147.362 462.603 L147.362 456.724 Z" fill="#000000" fill-rule="evenodd" fill-opacity="1" /><path clip-path="url(#clip200)" d="M172.431 431.122 Q168.82 431.122 166.991 434.687 Q165.186 438.229 165.186 445.358 Q165.186 452.465 166.991 456.029 Q168.82 459.571 172.431 459.571 Q176.065 459.571 177.871 456.029 Q179.7 452.465 179.7 445.358 Q179.7 438.229 177.871 434.687 Q176.065 431.122 172.431 431.122 M172.431 427.418 Q178.241 427.418 181.297 432.025 Q184.376 436.608 184.376 445.358 Q184.376 454.085 181.297 458.691 Q178.241 463.275 172.431 463.275 Q166.621 463.275 163.542 458.691 Q160.487 454.085 160.487 445.358 Q160.487 436.608 163.542 432.025 Q166.621 427.418 172.431 427.418 Z" fill="#000000" fill-rule="evenodd" fill-opacity="1" /><path clip-path="url(#clip200)" d="M191.413 428.043 L213.635 428.043 L213.635 430.034 L201.088 462.603 L196.204 462.603 L208.01 431.979 L191.413 431.979 L191.413 428.043 Z" fill="#000000" fill-rule="evenodd" fill-opacity="1" /><path clip-path="url(#clip200)" d="M222.801 428.043 L241.158 428.043 L241.158 431.979 L227.084 431.979 L227.084 440.451 Q228.102 440.104 229.121 439.942 Q230.139 439.756 231.158 439.756 Q236.945 439.756 240.324 442.928 Q243.704 446.099 243.704 451.516 Q243.704 457.094 240.232 460.196 Q236.76 463.275 230.44 463.275 Q228.264 463.275 225.996 462.904 Q223.75 462.534 221.343 461.793 L221.343 457.094 Q223.426 458.228 225.648 458.784 Q227.871 459.34 230.347 459.34 Q234.352 459.34 236.69 457.233 Q239.028 455.127 239.028 451.516 Q239.028 447.904 236.69 445.798 Q234.352 443.691 230.347 443.691 Q228.473 443.691 226.598 444.108 Q224.746 444.525 222.801 445.404 L222.801 428.043 Z" fill="#000000" fill-rule="evenodd" fill-opacity="1" /><path clip-path="url(#clip200)" d="M126.205 117.162 Q122.593 117.162 120.765 120.727 Q118.959 124.268 118.959 131.398 Q118.959 138.504 120.765 142.069 Q122.593 145.611 126.205 145.611 Q129.839 145.611 131.644 142.069 Q133.473 138.504 133.473 131.398 Q133.473 124.268 131.644 120.727 Q129.839 117.162 126.205 117.162 M126.205 113.458 Q132.015 113.458 135.07 118.065 Q138.149 122.648 138.149 131.398 Q138.149 140.125 135.07 144.731 Q132.015 149.315 126.205 149.315 Q120.394 149.315 117.316 144.731 Q114.26 140.125 114.26 131.398 Q114.26 122.648 117.316 118.065 Q120.394 113.458 126.205 113.458 Z" fill="#000000" fill-rule="evenodd" fill-opacity="1" /><path clip-path="url(#clip200)" d="M146.366 142.764 L151.251 142.764 L151.251 148.643 L146.366 148.643 L146.366 142.764 Z" fill="#000000" fill-rule="evenodd" fill-opacity="1" /><path clip-path="url(#clip200)" d="M162.246 144.708 L169.885 144.708 L169.885 118.342 L161.575 120.009 L161.575 115.75 L169.839 114.083 L174.514 114.083 L174.514 144.708 L182.153 144.708 L182.153 148.643 L162.246 148.643 L162.246 144.708 Z" fill="#000000" fill-rule="evenodd" fill-opacity="1" /><path clip-path="url(#clip200)" d="M201.598 117.162 Q197.987 117.162 196.158 120.727 Q194.352 124.268 194.352 131.398 Q194.352 138.504 196.158 142.069 Q197.987 145.611 201.598 145.611 Q205.232 145.611 207.037 142.069 Q208.866 138.504 208.866 131.398 Q208.866 124.268 207.037 120.727 Q205.232 117.162 201.598 117.162 M201.598 113.458 Q207.408 113.458 210.463 118.065 Q213.542 122.648 213.542 131.398 Q213.542 140.125 210.463 144.731 Q207.408 149.315 201.598 149.315 Q195.787 149.315 192.709 144.731 Q189.653 140.125 189.653 131.398 Q189.653 122.648 192.709 118.065 Q195.787 113.458 201.598 113.458 Z" fill="#000000" fill-rule="evenodd" fill-opacity="1" /><path clip-path="url(#clip200)" d="M231.76 117.162 Q228.148 117.162 226.32 120.727 Q224.514 124.268 224.514 131.398 Q224.514 138.504 226.32 142.069 Q228.148 145.611 231.76 145.611 Q235.394 145.611 237.199 142.069 Q239.028 138.504 239.028 131.398 Q239.028 124.268 237.199 120.727 Q235.394 117.162 231.76 117.162 M231.76 113.458 Q237.57 113.458 240.625 118.065 Q243.704 122.648 243.704 131.398 Q243.704 140.125 240.625 144.731 Q237.57 149.315 231.76 149.315 Q225.949 149.315 222.871 144.731 Q219.815 140.125 219.815 131.398 Q219.815 122.648 222.871 118.065 Q225.949 113.458 231.76 113.458 Z" fill="#000000" fill-rule="evenodd" fill-opacity="1" /><path clip-path="url(#clip200)" d="M28.3562 814.719 L28.3562 808.863 L64.0042 808.863 L64.0042 814.719 L28.3562 814.719 M14.479 814.719 L14.479 808.863 L21.895 808.863 L21.895 814.719 L14.479 814.719 Z" fill="#000000" fill-rule="evenodd" fill-opacity="1" /><path clip-path="url(#clip200)" d="M14.5426 782.54 Q21.8632 786.805 29.0246 788.874 Q36.186 790.943 43.5384 790.943 Q50.8908 790.943 58.1159 788.874 Q65.3091 786.774 72.5979 782.54 L72.5979 787.633 Q65.1182 792.407 57.8931 794.794 Q50.668 797.15 43.5384 797.15 Q36.4406 797.15 29.2474 794.794 Q22.0542 792.439 14.5426 787.633 L14.5426 782.54 Z" fill="#000000" fill-rule="evenodd" fill-opacity="1" /><path clip-path="url(#clip200)" d="M18.2347 765.385 L28.3562 765.385 L28.3562 753.322 L32.9077 753.322 L32.9077 765.385 L52.2594 765.385 Q56.6199 765.385 57.8613 764.207 Q59.1026 762.998 59.1026 759.337 L59.1026 753.322 L64.0042 753.322 L64.0042 759.337 Q64.0042 766.117 61.4897 768.695 Q58.9434 771.273 52.2594 771.273 L32.9077 771.273 L32.9077 775.57 L28.3562 775.57 L28.3562 771.273 L18.2347 771.273 L18.2347 765.385 Z" fill="#000000" fill-rule="evenodd" fill-opacity="1" /><path clip-path="url(#clip200)" d="M14.5426 746.542 L14.5426 741.45 Q22.0542 736.675 29.2474 734.32 Q36.4406 731.933 43.5384 731.933 Q50.668 731.933 57.8931 734.32 Q65.1182 736.675 72.5979 741.45 L72.5979 746.542 Q65.3091 742.309 58.1159 740.24 Q50.8908 738.14 43.5384 738.14 Q36.186 738.14 29.0246 740.24 Q21.8632 742.309 14.5426 746.542 Z" fill="#000000" fill-rule="evenodd" fill-opacity="1" /><path clip-path="url(#clip200)" d="M886.814 12.096 L897.832 12.096 L924.649 62.6918 L924.649 12.096 L932.589 12.096 L932.589 72.576 L921.571 72.576 L894.754 21.9802 L894.754 72.576 L886.814 72.576 L886.814 12.096 Z" fill="#000000" fill-rule="evenodd" fill-opacity="1" /><path clip-path="url(#clip200)" d="M947.78 54.671 L947.78 27.2059 L955.234 27.2059 L955.234 54.3874 Q955.234 60.8284 957.745 64.0691 Q960.257 67.2693 965.28 67.2693 Q971.316 67.2693 974.799 63.421 Q978.324 59.5726 978.324 52.9291 L978.324 27.2059 L985.777 27.2059 L985.777 72.576 L978.324 72.576 L978.324 65.6084 Q975.61 69.7404 972.004 71.7658 Q968.44 73.7508 963.7 73.7508 Q955.882 73.7508 951.831 68.8897 Q947.78 64.0286 947.78 54.671 M966.536 26.1121 L966.536 26.1121 Z" fill="#000000" fill-rule="evenodd" fill-opacity="1" /><path clip-path="url(#clip200)" d="M1036.45 35.9153 Q1039.25 30.8922 1043.14 28.5022 Q1047.03 26.1121 1052.29 26.1121 Q1059.38 26.1121 1063.23 31.0947 Q1067.08 36.0368 1067.08 45.1919 L1067.08 72.576 L1059.58 72.576 L1059.58 45.4349 Q1059.58 38.913 1057.28 35.7533 Q1054.97 32.5936 1050.23 32.5936 Q1044.43 32.5936 1041.07 36.4419 Q1037.71 40.2903 1037.71 46.9338 L1037.71 72.576 L1030.22 72.576 L1030.22 45.4349 Q1030.22 38.8725 1027.91 35.7533 Q1025.6 32.5936 1020.78 32.5936 Q1015.07 32.5936 1011.7 36.4824 Q1008.34 40.3308 1008.34 46.9338 L1008.34 72.576 L1000.85 72.576 L1000.85 27.2059 L1008.34 27.2059 L1008.34 34.2544 Q1010.89 30.082 1014.46 28.0971 Q1018.02 26.1121 1022.92 26.1121 Q1027.87 26.1121 1031.31 28.6237 Q1034.79 31.1352 1036.45 35.9153 Z" fill="#000000" fill-rule="evenodd" fill-opacity="1" /><path clip-path="url(#clip200)" d="M1114.52 49.9314 Q1114.52 41.7081 1111.11 37.0496 Q1107.75 32.3505 1101.84 32.3505 Q1095.92 32.3505 1092.52 37.0496 Q1089.16 41.7081 1089.16 49.9314 Q1089.16 58.1548 1092.52 62.8538 Q1095.92 67.5124 1101.84 67.5124 Q1107.75 67.5124 1111.11 62.8538 Q1114.52 58.1548 1114.52 49.9314 M1089.16 34.0924 Q1091.51 30.0415 1095.07 28.0971 Q1098.68 26.1121 1103.66 26.1121 Q1111.92 26.1121 1117.07 32.6746 Q1122.25 39.2371 1122.25 49.9314 Q1122.25 60.6258 1117.07 67.1883 Q1111.92 73.7508 1103.66 73.7508 Q1098.68 73.7508 1095.07 71.8063 Q1091.51 69.8214 1089.16 65.7705 L1089.16 72.576 L1081.66 72.576 L1081.66 9.54393 L1089.16 9.54393 L1089.16 34.0924 Z" fill="#000000" fill-rule="evenodd" fill-opacity="1" /><path clip-path="url(#clip200)" d="M1173.42 48.0275 L1173.42 51.6733 L1139.14 51.6733 Q1139.63 59.3701 1143.76 63.421 Q1147.94 67.4314 1155.35 67.4314 Q1159.64 67.4314 1163.65 66.3781 Q1167.7 65.3249 1171.67 63.2184 L1171.67 70.267 Q1167.66 71.9684 1163.45 72.8596 Q1159.24 73.7508 1154.9 73.7508 Q1144.05 73.7508 1137.69 67.4314 Q1131.37 61.1119 1131.37 50.3365 Q1131.37 39.1965 1137.36 32.6746 Q1143.4 26.1121 1153.61 26.1121 Q1162.76 26.1121 1168.07 32.0264 Q1173.42 37.9003 1173.42 48.0275 M1165.96 45.84 Q1165.88 39.7232 1162.52 36.0774 Q1159.2 32.4315 1153.69 32.4315 Q1147.45 32.4315 1143.68 35.9558 Q1139.95 39.4801 1139.39 45.8805 L1165.96 45.84 Z" fill="#000000" fill-rule="evenodd" fill-opacity="1" /><path clip-path="url(#clip200)" d="M1211.94 34.1734 Q1210.68 33.4443 1209.18 33.1202 Q1207.73 32.7556 1205.94 32.7556 Q1199.62 32.7556 1196.22 36.8875 Q1192.86 40.9789 1192.86 48.6757 L1192.86 72.576 L1185.37 72.576 L1185.37 27.2059 L1192.86 27.2059 L1192.86 34.2544 Q1195.21 30.1225 1198.98 28.1376 Q1202.74 26.1121 1208.13 26.1121 Q1208.9 26.1121 1209.83 26.2337 Q1210.76 26.3147 1211.9 26.5172 L1211.94 34.1734 Z" fill="#000000" fill-rule="evenodd" fill-opacity="1" /><path clip-path="url(#clip200)" d="M1263.71 32.4315 Q1257.71 32.4315 1254.23 37.1306 Q1250.75 41.7891 1250.75 49.9314 Q1250.75 58.0738 1254.19 62.7728 Q1257.67 67.4314 1263.71 67.4314 Q1269.66 67.4314 1273.15 62.7323 Q1276.63 58.0333 1276.63 49.9314 Q1276.63 41.8701 1273.15 37.1711 Q1269.66 32.4315 1263.71 32.4315 M1263.71 26.1121 Q1273.43 26.1121 1278.98 32.4315 Q1284.53 38.7509 1284.53 49.9314 Q1284.53 61.0714 1278.98 67.4314 Q1273.43 73.7508 1263.71 73.7508 Q1253.95 73.7508 1248.4 67.4314 Q1242.89 61.0714 1242.89 49.9314 Q1242.89 38.7509 1248.4 32.4315 Q1253.95 26.1121 1263.71 26.1121 Z" fill="#000000" fill-rule="evenodd" fill-opacity="1" /><path clip-path="url(#clip200)" d="M1319.86 9.54393 L1319.86 15.7418 L1312.73 15.7418 Q1308.72 15.7418 1307.14 17.3622 Q1305.6 18.9825 1305.6 23.1955 L1305.6 27.2059 L1317.87 27.2059 L1317.87 32.9987 L1305.6 32.9987 L1305.6 72.576 L1298.1 72.576 L1298.1 32.9987 L1290.97 32.9987 L1290.97 27.2059 L1298.1 27.2059 L1298.1 24.0462 Q1298.1 16.471 1301.63 13.0277 Q1305.15 9.54393 1312.81 9.54393 L1319.86 9.54393 Z" fill="#000000" fill-rule="evenodd" fill-opacity="1" /><path clip-path="url(#clip200)" d="M1352.79 12.096 L1360.97 12.096 L1360.97 72.576 L1352.79 72.576 L1352.79 12.096 Z" fill="#000000" fill-rule="evenodd" fill-opacity="1" /><path clip-path="url(#clip200)" d="M1414.65 45.1919 L1414.65 72.576 L1407.19 72.576 L1407.19 45.4349 Q1407.19 38.994 1404.68 35.7938 Q1402.17 32.5936 1397.15 32.5936 Q1391.11 32.5936 1387.63 36.4419 Q1384.14 40.2903 1384.14 46.9338 L1384.14 72.576 L1376.65 72.576 L1376.65 27.2059 L1384.14 27.2059 L1384.14 34.2544 Q1386.82 30.163 1390.42 28.1376 Q1394.07 26.1121 1398.81 26.1121 Q1406.63 26.1121 1410.64 30.9732 Q1414.65 35.7938 1414.65 45.1919 Z" fill="#000000" fill-rule="evenodd" fill-opacity="1" /><path clip-path="url(#clip200)" d="M1452.48 9.54393 L1452.48 15.7418 L1445.35 15.7418 Q1441.34 15.7418 1439.76 17.3622 Q1438.22 18.9825 1438.22 23.1955 L1438.22 27.2059 L1450.5 27.2059 L1450.5 32.9987 L1438.22 32.9987 L1438.22 72.576 L1430.73 72.576 L1430.73 32.9987 L1423.6 32.9987 L1423.6 27.2059 L1430.73 27.2059 L1430.73 24.0462 Q1430.73 16.471 1434.25 13.0277 Q1437.78 9.54393 1445.43 9.54393 L1452.48 9.54393 Z" fill="#000000" fill-rule="evenodd" fill-opacity="1" /><path clip-path="url(#clip200)" d="M1497.53 48.0275 L1497.53 51.6733 L1463.26 51.6733 Q1463.74 59.3701 1467.88 63.421 Q1472.05 67.4314 1479.46 67.4314 Q1483.76 67.4314 1487.77 66.3781 Q1491.82 65.3249 1495.79 63.2184 L1495.79 70.267 Q1491.78 71.9684 1487.56 72.8596 Q1483.35 73.7508 1479.02 73.7508 Q1468.16 73.7508 1461.8 67.4314 Q1455.48 61.1119 1455.48 50.3365 Q1455.48 39.1965 1461.48 32.6746 Q1467.51 26.1121 1477.72 26.1121 Q1486.87 26.1121 1492.18 32.0264 Q1497.53 37.9003 1497.53 48.0275 M1490.07 45.84 Q1489.99 39.7232 1486.63 36.0774 Q1483.31 32.4315 1477.8 32.4315 Q1471.56 32.4315 1467.79 35.9558 Q1464.07 39.4801 1463.5 45.8805 L1490.07 45.84 Z" fill="#000000" fill-rule="evenodd" fill-opacity="1" /><path clip-path="url(#clip200)" d="M1542.41 28.9478 L1542.41 35.9153 Q1539.25 34.1734 1536.05 33.3227 Q1532.89 32.4315 1529.65 32.4315 Q1522.4 32.4315 1518.39 37.0496 Q1514.38 41.6271 1514.38 49.9314 Q1514.38 58.2358 1518.39 62.8538 Q1522.4 67.4314 1529.65 67.4314 Q1532.89 67.4314 1536.05 66.5807 Q1539.25 65.6895 1542.41 63.9476 L1542.41 70.8341 Q1539.29 72.2924 1535.93 73.0216 Q1532.61 73.7508 1528.84 73.7508 Q1518.59 73.7508 1512.56 67.3098 Q1506.52 60.8689 1506.52 49.9314 Q1506.52 38.832 1512.6 32.472 Q1518.71 26.1121 1529.33 26.1121 Q1532.77 26.1121 1536.05 26.8413 Q1539.33 27.5299 1542.41 28.9478 Z" fill="#000000" fill-rule="evenodd" fill-opacity="1" /><path clip-path="url(#clip200)" d="M1562.75 14.324 L1562.75 27.2059 L1578.1 27.2059 L1578.1 32.9987 L1562.75 32.9987 L1562.75 57.6282 Q1562.75 63.1779 1564.25 64.7578 Q1565.79 66.3376 1570.44 66.3376 L1578.1 66.3376 L1578.1 72.576 L1570.44 72.576 Q1561.82 72.576 1558.53 69.3758 Q1555.25 66.1351 1555.25 57.6282 L1555.25 32.9987 L1549.78 32.9987 L1549.78 27.2059 L1555.25 27.2059 L1555.25 14.324 L1562.75 14.324 Z" fill="#000000" fill-rule="evenodd" fill-opacity="1" /><path clip-path="url(#clip200)" d="M1587.9 27.2059 L1595.36 27.2059 L1595.36 72.576 L1587.9 72.576 L1587.9 27.2059 M1587.9 9.54393 L1595.36 9.54393 L1595.36 18.9825 L1587.9 18.9825 L1587.9 9.54393 Z" fill="#000000" fill-rule="evenodd" fill-opacity="1" /><path clip-path="url(#clip200)" d="M1628.53 32.4315 Q1622.54 32.4315 1619.06 37.1306 Q1615.57 41.7891 1615.57 49.9314 Q1615.57 58.0738 1619.01 62.7728 Q1622.5 67.4314 1628.53 67.4314 Q1634.49 67.4314 1637.97 62.7323 Q1641.46 58.0333 1641.46 49.9314 Q1641.46 41.8701 1637.97 37.1711 Q1634.49 32.4315 1628.53 32.4315 M1628.53 26.1121 Q1638.26 26.1121 1643.81 32.4315 Q1649.36 38.7509 1649.36 49.9314 Q1649.36 61.0714 1643.81 67.4314 Q1638.26 73.7508 1628.53 73.7508 Q1618.77 73.7508 1613.22 67.4314 Q1607.71 61.0714 1607.71 49.9314 Q1607.71 38.7509 1613.22 32.4315 Q1618.77 26.1121 1628.53 26.1121 Z" fill="#000000" fill-rule="evenodd" fill-opacity="1" /><path clip-path="url(#clip200)" d="M1699.43 45.1919 L1699.43 72.576 L1691.97 72.576 L1691.97 45.4349 Q1691.97 38.994 1689.46 35.7938 Q1686.95 32.5936 1681.93 32.5936 Q1675.89 32.5936 1672.41 36.4419 Q1668.92 40.2903 1668.92 46.9338 L1668.92 72.576 L1661.43 72.576 L1661.43 27.2059 L1668.92 27.2059 L1668.92 34.2544 Q1671.6 30.163 1675.2 28.1376 Q1678.85 26.1121 1683.59 26.1121 Q1691.4 26.1121 1695.41 30.9732 Q1699.43 35.7938 1699.43 45.1919 Z" fill="#000000" fill-rule="evenodd" fill-opacity="1" /><path clip-path="url(#clip200)" d="M1743.22 28.5427 L1743.22 35.5912 Q1740.06 33.9709 1736.65 33.1607 Q1733.25 32.3505 1729.6 32.3505 Q1724.05 32.3505 1721.26 34.0519 Q1718.5 35.7533 1718.5 39.156 Q1718.5 41.7486 1720.49 43.2475 Q1722.47 44.7058 1728.47 46.0426 L1731.02 46.6097 Q1738.96 48.3111 1742.28 51.4303 Q1745.65 54.509 1745.65 60.0587 Q1745.65 66.3781 1740.62 70.0644 Q1735.64 73.7508 1726.89 73.7508 Q1723.24 73.7508 1719.27 73.0216 Q1715.35 72.3329 1710.97 70.9151 L1710.97 63.2184 Q1715.1 65.3654 1719.11 66.4591 Q1723.12 67.5124 1727.05 67.5124 Q1732.32 67.5124 1735.15 65.73 Q1737.99 63.9071 1737.99 60.6258 Q1737.99 57.5877 1735.92 55.9673 Q1733.9 54.3469 1726.97 52.8481 L1724.38 52.2405 Q1717.45 50.7821 1714.37 47.7845 Q1711.29 44.7463 1711.29 39.4801 Q1711.29 33.0797 1715.83 29.5959 Q1720.37 26.1121 1728.71 26.1121 Q1732.85 26.1121 1736.49 26.7198 Q1740.14 27.3274 1743.22 28.5427 Z" fill="#000000" fill-rule="evenodd" fill-opacity="1" /><polyline clip-path="url(#clip202)" style="stroke:#009af9; stroke-linecap:butt; stroke-linejoin:round; stroke-width:4; stroke-opacity:1; fill:none" points="
  279.704,1386.25 279.76,1386.25 279.773,1386.25 279.788,1386.25 279.805,1386.25 279.824,1386.25 279.845,1386.25 279.869,1386.25 279.896,1386.25 279.927,1386.25 
  279.961,1386.25 279.999,1386.25 280.043,1386.25 280.091,1386.26 280.146,1386.26 280.208,1386.26 280.277,1386.26 280.355,1386.26 280.443,1386.26 280.541,1386.26 
  280.652,1386.26 280.777,1386.26 280.918,1386.26 281.076,1386.26 281.254,1386.26 281.454,1386.26 281.675,1386.27 281.915,1386.27 282.173,1386.27 282.446,1386.27 
  282.733,1386.27 283.035,1386.28 283.348,1386.28 283.673,1386.28 284.008,1386.28 284.351,1386.28 284.702,1386.29 285.061,1386.29 285.427,1386.29 285.8,1386.29 
  286.178,1386.29 286.562,1386.3 286.948,1386.3 287.342,1386.3 287.74,1386.3 288.144,1386.31 288.551,1386.31 288.961,1386.31 289.374,1386.31 289.79,1386.31 
  290.211,1386.32 290.634,1386.32 291.059,1386.32 291.487,1386.32 291.918,1386.33 292.352,1386.33 292.789,1386.33 293.228,1386.33 293.672,1386.33 294.119,1386.34 
  294.571,1386.34 295.027,1386.34 295.491,1386.34 295.96,1386.34 296.437,1386.35 296.922,1386.35 297.417,1386.35 297.922,1386.35 298.439,1386.35 298.966,1386.35 
  299.497,1386.36 300.034,1386.36 300.577,1386.36 301.129,1386.36 301.693,1386.36 302.268,1386.36 302.848,1386.37 303.43,1386.37 304.022,1386.37 304.625,1386.37 
  305.232,1386.37 305.84,1386.37 306.459,1386.37 307.084,1386.37 307.717,1386.38 308.363,1386.38 309.018,1386.38 309.681,1386.38 310.353,1386.38 311.036,1386.38 
  311.729,1386.38 312.419,1386.38 313.116,1386.38 313.809,1386.38 314.506,1386.39 315.219,1386.39 315.944,1386.39 316.673,1386.39 317.404,1386.39 318.142,1386.39 
  318.889,1386.39 319.638,1386.39 320.392,1386.39 321.158,1386.39 321.936,1386.39 322.723,1386.39 323.524,1386.39 324.339,1386.39 325.169,1386.39 326.009,1386.39 
  326.859,1386.39 327.702,1386.39 328.549,1386.39 329.393,1386.4 330.241,1386.4 331.096,1386.4 331.952,1386.4 332.825,1386.4 333.711,1386.4 334.607,1386.4 
  335.508,1386.4 336.409,1386.4 337.32,1386.4 338.246,1386.39 339.181,1386.39 340.116,1386.39 341.067,1386.39 342.022,1386.39 342.98,1386.39 343.946,1386.39 
  344.904,1386.39 345.877,1386.39 346.869,1386.39 347.874,1386.39 348.893,1386.39 349.917,1386.39 350.937,1386.39 351.979,1386.39 353.032,1386.39 354.094,1386.38 
  355.161,1386.38 356.232,1386.38 357.309,1386.38 358.396,1386.38 359.502,1386.38 360.61,1386.38 361.738,1386.38 362.885,1386.37 364.064,1386.37 365.259,1386.37 
  366.453,1386.37 367.655,1386.37 368.916,1386.36 370.204,1386.36 371.521,1386.36 372.859,1386.35 374.221,1386.35 375.594,1386.35 377.049,1386.34 378.541,1386.34 
  380.026,1386.33 381.555,1386.33 383.099,1386.33 384.665,1386.32 386.264,1386.32 387.946,1386.31 389.707,1386.3 391.562,1386.29 393.52,1386.28 395.553,1386.28 
  397.614,1386.27 399.868,1386.25 402.328,1386.24 404.901,1386.22 407.776,1386.2 410.95,1386.18 414.429,1386.16 418.027,1386.13 421.971,1386.1 426.29,1386.07 
  430.305,1386.03 434.822,1385.99 439.904,1385.94 445.62,1385.89 450.132,1385.85 454.599,1385.81 459.207,1385.76 464.358,1385.7 470.153,1385.63 476.191,1385.57 
  481.568,1385.51 486.635,1385.45 491.195,1385.4 495.873,1385.35 500.409,1385.29 505.267,1385.23 509.797,1385.18 514.43,1385.11 518.865,1385.04 523.856,1384.95 
  529.47,1384.85 535.785,1384.75 540.582,1384.67 544.881,1384.59 549.718,1384.49 555.159,1384.37 561.28,1384.25 565.834,1384.15 570.875,1384.04 576.344,1383.92 
  581.408,1383.81 586.15,1383.72 590.337,1383.63 594.608,1383.52 599.413,1383.39 604.818,1383.25 609.617,1383.11 615.016,1382.94 620.196,1382.79 625.499,1382.63 
  630.189,1382.5 634.795,1382.38 638.886,1382.26 642.781,1382.16 646.653,1382.05 650.143,1381.95 653.754,1381.82 657.816,1381.68 661.634,1381.54 665.614,1381.4 
  669.553,1381.25 673.682,1381.08 677.908,1380.88 682.663,1380.66 687.813,1380.43 692.427,1380.21 697.484,1379.93 703.172,1379.61 709.232,1379.21 716.05,1378.76 
  723.72,1378.22 732.348,1377.6 739.517,1377.07 746.846,1376.55 753.815,1376.05 759.962,1375.61 765.324,1375.18 771.232,1374.7 777.012,1374.2 782.35,1373.72 
  788.356,1373.16 793.489,1372.66 798.921,1372.07 805.032,1371.33 811.907,1370.45 819.257,1369.47 826.44,1368.38 834.522,1367.14 842.687,1365.68 851.874,1363.85 
  862.208,1361.52 869.944,1359.68 878.646,1357.53 888.436,1355.08 898.985,1351.94 910.853,1347.67 918.52,1344.82 927.145,1341.39 936.398,1337.62 946.807,1333.32 
  958.516,1328.3 967.604,1324.79 974.097,1322.24 979.906,1319.81 986.238,1317.34 991.51,1314.87 997.074,1312.19 1003.08,1309.12 1009.3,1305.93 1015.24,1303.12 
  1020.32,1300.4 1025.83,1297.41 1030.96,1294.47 1036.1,1291.59 1040.91,1289.12 1045.37,1286.89 1049.31,1284.98 1053.06,1283.27 1056.45,1281.7 1059.72,1279.91 
  1063.12,1277.91 1066.62,1275.58 1070.44,1272.67 1074.74,1269.36 1079.37,1265.23 1084.57,1260.92 1089.88,1256.26 1094.97,1252 1100.55,1247.14 1105.44,1242.04 
  1110.95,1235.67 1117.14,1227.61 1124.11,1218.27 1131.42,1207.71 1138.56,1196.9 1146.54,1184.09 1154.84,1171.11 1163.36,1157.43 1171.41,1142.61 1179.91,1126.34 
  1188.23,1107.83 1195.93,1089.43 1203.2,1072.94 1210.54,1055.21 1217.93,1036.24 1224.84,1014.91 1231.18,993.726 1236.67,975.503 1241.94,958.466 1247.45,939.162 
  1252.42,920.915 1257.1,903.414 1261.65,886.117 1266.18,867.851 1270.38,852.213 1274.61,836.211 1278.82,819.439 1282.85,802.09 1286.71,784.484 1290.35,766.927 
  1293.76,750.41 1297.09,734.656 1300.36,719.839 1303.59,705.846 1306.91,690.789 1310.15,675.978 1313.29,662.712 1316.52,649.783 1319.76,635.616 1322.94,620.624 
  1325.96,607.104 1329.02,593.421 1332.06,579.359 1335.03,566.182 1337.97,553.299 1340.89,540.685 1343.83,527.52 1346.68,514.177 1349.48,500.666 1352.2,487.636 
  1354.87,475.223 1357.56,461.962 1360.14,448.814 1362.67,436.014 1365.14,424.482 1367.63,413.209 1370.1,402.657 1372.62,392.086 1375.1,382.788 1377.64,373.489 
  1380.17,364.264 1382.7,354.803 1385.24,345.813 1387.74,337.484 1390.28,328.275 1392.79,318.656 1395.25,309.844 1397.7,300.953 1400.13,292.573 1402.55,284.457 
  1404.97,276.613 1407.38,268.984 1409.78,261.758 1412.2,252.835 1414.5,244.065 1416.77,235.508 1418.99,226.954 1421.18,218.863 1423.35,210.394 1425.48,203.167 
  1427.59,196.214 1429.74,189.14 1431.82,183.561 1433.95,179.877 1436.16,177.213 1438.43,173.843 1440.71,171.241 1443,168.586 1445.32,166.035 1447.64,163.878 
  1449.99,161.388 1452.35,160.306 1454.73,160.256 1457.15,162.2 1459.6,164.689 1462.06,167.773 1464.53,171.026 1467.02,174.641 1469.51,177.98 1472.03,181.875 
  1474.56,186.089 1477.1,190.231 1479.67,193.957 1482.27,197.631 1484.89,201.299 1487.53,205.779 1490.18,210.605 1492.86,216.468 1495.54,222.248 1498.23,227.696 
  1500.95,232.945 1503.7,238.262 1506.48,244.029 1509.27,249.124 1512.09,254.697 1514.92,260.894 1517.79,266.925 1520.67,273.19 1523.57,279.306 1526.49,285.738 
  1529.43,292.883 1532.39,300.093 1535.39,306.292 1538.36,312.773 1541.36,319.682 1544.38,326.608 1547.38,333.77 1550.43,339.954 1553.41,346.755 1556.43,354.748 
  1559.51,362.883 1562.63,371.004 1565.74,379.125 1568.9,387.608 1572,397.402 1575.27,407.518 1578.56,417.38 1581.86,427.743 1585.21,438.712 1588.64,450.48 
  1592.13,463.03 1595.67,475.774 1599.27,488.176 1602.92,500.381 1606.63,512.842 1610.38,525.302 1614.18,538.578 1618.06,552.6 1622,567.305 1626.02,583.138 
  1629.92,598.126 1633.96,613.467 1638.06,629.991 1641.94,645.744 1645.73,661.147 1649.48,676.664 1652.96,690.659 1656.45,704.549 1659.97,718.042 1663.48,731.881 
  1666.96,745.593 1670.14,757.893 1673.47,770.293 1676.73,782.323 1680.08,794.352 1683.4,806.001 1686.77,817.738 1690.23,829.945 1693.52,841.412 1696.67,852.187 
  1699.88,863.139 1703.01,873.902 1705.94,883.707 1708.86,893.203 1711.87,902.991 1714.72,911.952 1717.64,920.818 1720.7,929.837 1723.85,938.685 1727.25,948.05 
  1730.76,957.586 1734.34,967.076 1738.07,976.622 1741.96,986.778 1745.69,996.353 1749.37,1006.25 1752.67,1014.8 1755.94,1023.16 1759.12,1031.04 1762.18,1038.28 
  1765.45,1045.81 1768.72,1053.2 1772.07,1060.66 1775.32,1067.59 1778.89,1074.8 1782.89,1082.73 1786.89,1090.41 1791.13,1098.1 1795.82,1106.02 1801.1,1114.57 
  1807.04,1124.07 1813.3,1133.24 1820.33,1143.02 1827.07,1151.61 1833.29,1159.68 1840.27,1168.56 1847.86,1177.98 1856.39,1187.35 1863.02,1193.56 1867.94,1197.95 
  1872.6,1202 1876.91,1205.84 1881.21,1209.77 1885.86,1213.83 1890.27,1217.52 1894.26,1220.9 1898.45,1224.58 1902.93,1228.42 1907.7,1232.36 1912.25,1235.98 
  1916.83,1239.6 1921.26,1243.13 1926.18,1247.01 1931.44,1250.78 1936.05,1253.91 1940.26,1256.71 1944.57,1259.55 1948.59,1262.32 1953.11,1265.61 1958.2,1269.22 
  1963.93,1273.4 1970.37,1278.04 1977.62,1282.8 1985.78,1287.59 1991.35,1290.49 1996.36,1292.96 2000.89,1295.19 2005.42,1297.4 2009.92,1299.63 2014.58,1301.91 
  2019.75,1304.36 2024.89,1306.71 2029.86,1308.91 2035.06,1311.03 2039.56,1312.87 2044.14,1314.74 2048.93,1316.64 2053.75,1318.42 2058.24,1319.97 2062.16,1321.32 
  2066.18,1322.7 2070.13,1324.08 2074.32,1325.47 2078.35,1326.78 2082.18,1328.03 2086.14,1329.31 2090.21,1330.66 2094.8,1332.13 2099.3,1333.58 2104.36,1335.21 
  2110.05,1337.06 2116.45,1338.94 2121.35,1340.29 2126.2,1341.56 2131.04,1342.81 2135.83,1343.98 2140.51,1345.11 2145.35,1346.23 2150.07,1347.26 2154.22,1348.19 
  2158.86,1349.21 2163.54,1350.26 2168.81,1351.41 2174.66,1352.62 2180.51,1353.78 2185.96,1354.8 2191.25,1355.75 2196.21,1356.69 2201.79,1357.71 2208.06,1358.78 
  2213.75,1359.72 2219.42,1360.59 2225.02,1361.38 2229.6,1362 2234.07,1362.58 2238.2,1363.09 2242.01,1363.57 2245.78,1364.04 2249.58,1364.51 2253.39,1364.95 
  2256.92,1365.35 2260.3,1365.73 2263.66,1366.1 2267.06,1366.44 2270.09,1366.76 2273.07,1367.07 2276.23,1367.41 2279.38,1367.73 2282.56,1368.05 2285.65,1368.37 
  2288.84,1368.69 2292.04,1369 2295.27,1369.31 2298.54,1369.62 2301.84,1369.94 2305.2,1370.27 2308.91,1370.62 2312.8,1371 2317,1371.4 2321.61,1371.83 
  2326.59,1372.28 2331.9,1372.77 2337.88,1373.28 2344.46,1373.83 2350.3,1374.3 2352.76,1374.49 
  "/>
<polyline clip-path="url(#clip202)" style="stroke:#e26f46; stroke-linecap:butt; stroke-linejoin:round; stroke-width:4; stroke-opacity:1; fill:none" points="
  279.704,1386.25 279.76,1386.25 279.773,1386.25 279.788,1386.25 279.805,1386.25 279.824,1386.25 279.845,1386.25 279.869,1386.25 279.896,1386.25 279.927,1386.25 
  279.961,1386.25 280,1386.25 280.043,1386.25 280.092,1386.26 280.147,1386.26 280.208,1386.26 280.278,1386.26 280.356,1386.26 280.444,1386.26 280.543,1386.26 
  280.654,1386.26 280.779,1386.26 280.92,1386.26 281.078,1386.26 281.257,1386.26 281.457,1386.26 281.679,1386.27 281.921,1386.27 282.181,1386.27 282.458,1386.27 
  282.75,1386.27 283.055,1386.27 283.372,1386.28 283.701,1386.28 284.042,1386.28 284.394,1386.28 284.753,1386.29 285.119,1386.29 285.491,1386.29 285.867,1386.29 
  286.249,1386.29 286.635,1386.3 287.027,1386.3 287.427,1386.3 287.835,1386.3 288.253,1386.3 288.678,1386.31 289.112,1386.31 289.552,1386.31 289.997,1386.31 
  290.447,1386.32 290.902,1386.32 291.362,1386.32 291.828,1386.32 292.3,1386.32 292.779,1386.32 293.262,1386.33 293.747,1386.33 294.239,1386.33 294.734,1386.33 
  295.23,1386.33 295.73,1386.34 296.239,1386.34 296.758,1386.34 297.287,1386.34 297.823,1386.34 298.365,1386.34 298.911,1386.35 299.468,1386.35 300.03,1386.35 
  300.595,1386.35 301.164,1386.35 301.735,1386.35 302.306,1386.36 302.887,1386.36 303.477,1386.36 304.071,1386.36 304.676,1386.36 305.287,1386.36 305.9,1386.36 
  306.515,1386.37 307.129,1386.37 307.753,1386.37 308.388,1386.37 309.03,1386.37 309.681,1386.37 310.346,1386.37 311.021,1386.37 311.711,1386.37 312.404,1386.38 
  313.099,1386.38 313.802,1386.38 314.512,1386.38 315.236,1386.38 315.97,1386.38 316.712,1386.38 317.464,1386.38 318.235,1386.38 319.016,1386.38 319.808,1386.38 
  320.621,1386.38 321.454,1386.38 322.286,1386.38 323.14,1386.38 324.023,1386.38 324.933,1386.38 325.865,1386.38 326.804,1386.38 327.763,1386.38 328.764,1386.38 
  329.78,1386.38 330.818,1386.38 331.87,1386.37 332.944,1386.37 334.05,1386.37 335.2,1386.37 336.4,1386.37 337.658,1386.36 338.954,1386.36 340.292,1386.36 
  341.629,1386.35 343.009,1386.35 344.376,1386.35 345.711,1386.34 347.077,1386.34 348.465,1386.34 349.877,1386.33 351.294,1386.33 352.731,1386.33 354.223,1386.32 
  355.791,1386.32 357.363,1386.31 358.926,1386.31 360.494,1386.3 362.023,1386.3 363.582,1386.29 365.182,1386.29 366.811,1386.28 368.496,1386.28 370.121,1386.27 
  371.717,1386.27 373.236,1386.27 374.773,1386.26 376.335,1386.26 377.894,1386.25 379.414,1386.25 380.88,1386.25 382.337,1386.24 383.78,1386.24 385.251,1386.24 
  386.755,1386.23 388.34,1386.22 390.041,1386.22 391.784,1386.21 393.592,1386.2 395.425,1386.2 397.27,1386.19 399.138,1386.18 401.025,1386.17 402.973,1386.16 
  404.939,1386.15 406.875,1386.14 408.82,1386.14 410.822,1386.12 412.988,1386.11 415.357,1386.1 418,1386.08 420.84,1386.06 423.73,1386.04 426.677,1386.02 
  429.566,1386 432.66,1385.98 435.652,1385.95 438.667,1385.93 441.667,1385.91 444.677,1385.89 447.776,1385.86 450.858,1385.84 453.991,1385.82 457.194,1385.79 
  460.49,1385.76 463.82,1385.73 467.566,1385.69 471.264,1385.66 474.852,1385.62 478.409,1385.58 482.412,1385.53 486.914,1385.47 491.979,1385.39 497.678,1385.29 
  503.383,1385.19 509.801,1385.05 517.021,1384.89 522.791,1384.75 529.283,1384.59 535.915,1384.42 543.376,1384.23 551.77,1384.02 560.646,1383.81 566.04,1383.68 
  572.109,1383.51 578.202,1383.34 585.056,1383.12 592.69,1382.85 601.278,1382.53 610.94,1382.19 617.82,1381.91 625.56,1381.58 634.268,1381.16 643.492,1380.68 
  653.87,1380.05 665.545,1379.45 671.32,1379.17 676.014,1378.94 680.656,1378.73 684.445,1378.58 687.847,1378.45 690.844,1378.35 693.673,1378.26 696.318,1378.16 
  698.914,1378.08 701.26,1378.01 703.448,1377.93 705.645,1377.86 707.797,1377.78 709.884,1377.7 711.944,1377.63 714.002,1377.55 716.075,1377.46 718.135,1377.39 
  720.097,1377.31 722.089,1377.23 724.128,1377.14 726.221,1377.05 728.297,1376.96 730.354,1376.87 732.375,1376.79 734.422,1376.71 736.374,1376.63 738.295,1376.57 
  740.156,1376.5 742.012,1376.41 743.971,1376.33 745.938,1376.24 747.919,1376.15 749.882,1376.06 751.911,1375.97 753.862,1375.88 755.85,1375.78 757.878,1375.68 
  759.942,1375.58 761.976,1375.47 764.045,1375.36 766.144,1375.24 768.368,1375.11 770.626,1374.96 773.007,1374.81 775.416,1374.65 777.857,1374.49 780.366,1374.32 
  782.916,1374.15 785.484,1373.97 788.165,1373.76 791.014,1373.52 794.118,1373.25 797.307,1372.94 800.895,1372.56 804.932,1372.09 809.473,1371.49 814.582,1370.81 
  820.329,1370.05 826.027,1369.23 832.437,1368.28 839.649,1367.14 847.762,1365.72 856.889,1363.99 867.157,1362.08 878.283,1359.96 886.137,1358.3 894.172,1356.44 
  902.291,1354.74 908.184,1353.46 914.13,1352.14 920.252,1350.74 925.857,1349.31 931.787,1347.74 938.214,1346.15 943.585,1344.74 948.773,1343.34 953.832,1341.96 
  958.875,1340.5 963.895,1338.71 969.544,1336.63 975.898,1334.02 983.046,1330.89 991.088,1326.86 1000.14,1321.85 1010.31,1316.44 1021.76,1310.75 1029.51,1306.84 
  1036.09,1303.34 1043.02,1299.17 1050.54,1294.41 1057.6,1290.06 1064.98,1284.89 1071.92,1279.82 1079.73,1274.35 1086.09,1269.11 1093.25,1263.53 1099.19,1259.62 
  1104,1256.01 1108.85,1252.31 1113.79,1248.5 1118.72,1244.63 1123.2,1240.78 1127.85,1236.09 1133.08,1230.9 1138.48,1225.17 1144.19,1219.32 1149.86,1213.2 
  1155.4,1207.42 1161.11,1201.23 1166.59,1195.31 1171.73,1189.73 1176.78,1183.66 1181.96,1177.22 1187.51,1169.8 1193.24,1161.81 1199,1152.1 1205.49,1140.12 
  1212.33,1126.24 1219.06,1113.13 1226.14,1098.42 1233.16,1083.68 1240.27,1069.51 1247.33,1057.12 1253.57,1045.02 1259.66,1033.51 1265.67,1021.98 1271.6,1011.93 
  1276.7,1002.46 1281.92,992.361 1287.12,981.691 1292.31,971.05 1297.38,959.917 1302.49,948.222 1307.63,935.001 1312.87,921.908 1318.08,906.945 1323.27,889.148 
  1328.14,870.847 1332.45,853.695 1336.68,835.366 1340.58,817.123 1344.09,799.816 1347.41,783.621 1350.57,767.558 1353.65,752.245 1356.55,738.859 1359.59,725.025 
  1362.59,711.599 1365.56,698.348 1368.55,684.112 1371.41,671.065 1374.27,658.087 1377.18,644.717 1380.01,631.732 1382.86,617.779 1385.61,604.356 1388.33,591.575 
  1391.01,578.432 1393.67,565.21 1396.27,552.97 1398.86,541.915 1401.56,531.325 1404.28,521.107 1407.06,511.018 1409.87,501.116 1412.71,489.62 1415.47,477.955 
  1418.15,468.275 1420.91,459.368 1423.71,450.202 1426.52,440.555 1429.3,430.762 1432.07,420.647 1434.77,411.343 1437.49,401.859 1440.18,391.673 1442.82,380.963 
  1445.38,370.801 1447.88,361.511 1450.39,353.185 1452.92,345.016 1455.46,336.7 1457.92,329.621 1460.45,322.292 1462.95,315.12 1465.46,308.054 1467.95,300.939 
  1470.44,293.565 1472.85,286.21 1475.27,278.962 1477.62,271.016 1479.97,262.011 1482.15,254.007 1484.32,246.681 1486.49,238.865 1488.59,231.483 1490.67,224.934 
  1492.75,218.112 1494.81,212.059 1496.85,207.056 1498.93,202.639 1501.05,198.278 1503.18,194.274 1505.3,191.784 1507.52,189.877 1509.77,188.431 1512.06,187.494 
  1514.39,187.312 1516.76,187.193 1519.18,187.798 1521.62,188.668 1524.09,190.392 1526.6,192.058 1529.13,193.982 1531.68,196.722 1534.27,199.658 1536.88,202.511 
  1539.5,206.007 1542.15,208.338 1544.8,210.392 1547.42,212.695 1550.04,215.248 1552.68,217.93 1555.32,220.813 1557.97,224.426 1560.64,228.205 1563.32,231.269 
  1565.98,234.205 1568.62,237.604 1571.25,241.762 1573.91,246.663 1576.63,250.929 1579.31,255.406 1582,260.796 1584.74,265.965 1587.44,271.263 1590.19,277.609 
  1592.97,284.444 1595.79,291.207 1598.64,297.732 1601.44,305.781 1604.38,314.123 1607.34,322.818 1610.34,331.973 1613.38,341.58 1616.48,351.113 1619.58,360.887 
  1622.75,372.55 1625.97,384.674 1629.22,396.673 1632.52,408.881 1635.87,421.457 1639.26,434.502 1642.7,447.449 1646.18,460.239 1649.72,473.773 1653.32,487.859 
  1656.95,502.365 1660.57,516.68 1664.27,529.952 1668.1,543.799 1671.97,558.251 1675.93,571.943 1679.96,585.462 1683.99,598.864 1688.09,611.891 1692.18,625.579 
  1696.38,640.035 1700.74,655.196 1705.17,670.172 1709.72,685.046 1714.25,699.607 1718.94,714.013 1723.53,727.699 1728.08,742.172 1732.95,757.627 1737.9,772.662 
  1742.99,787.979 1748.01,803.006 1753.34,819.849 1758.88,837.287 1764.49,854.384 1770.14,871.19 1776.19,889.285 1782.32,907.558 1788.21,924.543 1794.24,941.134 
  1800.27,957.515 1806.56,973.595 1813.11,990.083 1819.93,1006.59 1826.59,1022.09 1833.81,1038.66 1840.67,1053.9 1847.37,1067.63 1854.62,1081.5 1862.77,1096.27 
  1871.6,1111.18 1880.18,1124.19 1888.25,1136.35 1895.95,1147.5 1904.04,1158.26 1911.99,1168.24 1918.58,1176.04 1925.01,1183.52 1930.86,1190.33 1937.44,1197.55 
  1943.5,1203.92 1949.23,1210.08 1955.67,1217.16 1962.92,1224.89 1971.07,1233.28 1979.87,1242.19 1989.07,1250.83 1999.42,1260.19 2010.65,1269.3 2023.27,1278.96 
  2037.48,1288.87 2053.46,1299.21 2066.85,1307.33 2073.51,1311.29 2079.4,1314.57 2085.02,1317.59 2090.48,1320.43 2095.73,1323.08 2100.51,1325.35 2105.3,1327.54 
  2110.2,1329.72 2114.8,1331.66 2119.63,1333.64 2124.53,1335.62 2128.73,1337.24 2133.27,1338.96 2137.57,1340.57 2141.46,1341.97 2145.31,1343.27 2149.41,1344.63 
  2153.74,1346.02 2157.73,1347.27 2161.65,1348.46 2165.53,1349.59 2169.43,1350.69 2173.57,1351.85 2177.37,1352.87 2181.12,1353.85 2185.09,1354.83 2189.18,1355.8 
  2193.52,1356.81 2197.7,1357.75 2202.09,1358.7 2206.74,1359.62 2211.96,1360.59 2217.84,1361.64 2224.45,1362.77 2231.88,1363.89 2237.17,1364.67 2242.77,1365.49 
  2249.08,1366.38 2256.17,1367.33 2263.58,1368.31 2271.93,1369.36 2281.31,1370.52 2289.35,1371.48 2296.03,1372.26 2301.76,1372.87 2308.2,1373.5 2315.46,1374.15 
  2323.62,1374.82 2328.64,1375.19 2332.87,1375.5 2337.63,1375.85 2342.99,1376.24 2349.01,1376.67 2352.76,1376.92 
  "/>
<path clip-path="url(#clip200)" d="
M1778.25 322.316 L2283.65 322.316 L2283.65 166.796 L1778.25 166.796  Z
  " fill="#ffffff" fill-rule="evenodd" fill-opacity="1"/>
<polyline clip-path="url(#clip200)" style="stroke:#000000; stroke-linecap:butt; stroke-linejoin:round; stroke-width:4; stroke-opacity:1; fill:none" points="
  1778.25,322.316 2283.65,322.316 2283.65,166.796 1778.25,166.796 1778.25,322.316 
  "/>
<polyline clip-path="url(#clip200)" style="stroke:#009af9; stroke-linecap:butt; stroke-linejoin:round; stroke-width:4; stroke-opacity:1; fill:none" points="
  1801.28,218.636 1939.48,218.636 
  "/>
<path clip-path="url(#clip200)" d="M1962.52 201.356 L1991.75 201.356 L1991.75 205.291 L1979.49 205.291 L1979.49 235.916 L1974.79 235.916 L1974.79 205.291 L1962.52 205.291 L1962.52 201.356 Z" fill="#000000" fill-rule="evenodd" fill-opacity="1" /><path clip-path="url(#clip200)" d="M2004.14 213.971 Q2003.42 213.555 2002.56 213.37 Q2001.73 213.161 2000.71 213.161 Q1997.1 213.161 1995.16 215.522 Q1993.24 217.86 1993.24 222.258 L1993.24 235.916 L1988.95 235.916 L1988.95 209.99 L1993.24 209.99 L1993.24 214.018 Q1994.58 211.657 1996.73 210.522 Q1998.88 209.365 2001.96 209.365 Q2002.4 209.365 2002.93 209.434 Q2003.47 209.481 2004.12 209.596 L2004.14 213.971 Z" fill="#000000" fill-rule="evenodd" fill-opacity="1" /><path clip-path="url(#clip200)" d="M2020.39 222.883 Q2015.23 222.883 2013.24 224.064 Q2011.24 225.244 2011.24 228.092 Q2011.24 230.36 2012.73 231.703 Q2014.23 233.022 2016.8 233.022 Q2020.34 233.022 2022.47 230.522 Q2024.62 227.999 2024.62 223.832 L2024.62 222.883 L2020.39 222.883 M2028.88 221.124 L2028.88 235.916 L2024.62 235.916 L2024.62 231.981 Q2023.17 234.342 2020.99 235.476 Q2018.81 236.587 2015.67 236.587 Q2011.68 236.587 2009.32 234.365 Q2006.99 232.119 2006.99 228.369 Q2006.99 223.994 2009.9 221.772 Q2012.84 219.55 2018.65 219.55 L2024.62 219.55 L2024.62 219.133 Q2024.62 216.194 2022.68 214.596 Q2020.76 212.976 2017.26 212.976 Q2015.04 212.976 2012.93 213.508 Q2010.83 214.041 2008.88 215.106 L2008.88 211.17 Q2011.22 210.268 2013.42 209.828 Q2015.62 209.365 2017.7 209.365 Q2023.33 209.365 2026.11 212.282 Q2028.88 215.198 2028.88 221.124 Z" fill="#000000" fill-rule="evenodd" fill-opacity="1" /><path clip-path="url(#clip200)" d="M2037.66 209.99 L2041.92 209.99 L2041.92 236.379 Q2041.92 241.332 2040.02 243.555 Q2038.14 245.777 2033.95 245.777 L2032.33 245.777 L2032.33 242.166 L2033.47 242.166 Q2035.9 242.166 2036.78 241.031 Q2037.66 239.92 2037.66 236.379 L2037.66 209.99 M2037.66 199.897 L2041.92 199.897 L2041.92 205.291 L2037.66 205.291 L2037.66 199.897 Z" fill="#000000" fill-rule="evenodd" fill-opacity="1" /><path clip-path="url(#clip200)" d="M2073 221.888 L2073 223.971 L2053.42 223.971 Q2053.7 228.369 2056.06 230.684 Q2058.44 232.976 2062.68 232.976 Q2065.13 232.976 2067.43 232.374 Q2069.74 231.772 2072.01 230.569 L2072.01 234.596 Q2069.72 235.568 2067.31 236.078 Q2064.9 236.587 2062.43 236.587 Q2056.22 236.587 2052.59 232.976 Q2048.98 229.365 2048.98 223.207 Q2048.98 216.842 2052.4 213.115 Q2055.85 209.365 2061.68 209.365 Q2066.92 209.365 2069.95 212.745 Q2073 216.101 2073 221.888 M2068.74 220.638 Q2068.7 217.143 2066.78 215.059 Q2064.88 212.976 2061.73 212.976 Q2058.17 212.976 2056.01 214.99 Q2053.88 217.004 2053.56 220.661 L2068.74 220.638 Z" fill="#000000" fill-rule="evenodd" fill-opacity="1" /><path clip-path="url(#clip200)" d="M2098.65 210.985 L2098.65 214.967 Q2096.85 213.971 2095.02 213.485 Q2093.21 212.976 2091.36 212.976 Q2087.22 212.976 2084.93 215.615 Q2082.63 218.231 2082.63 222.976 Q2082.63 227.721 2084.93 230.36 Q2087.22 232.976 2091.36 232.976 Q2093.21 232.976 2095.02 232.49 Q2096.85 231.981 2098.65 230.985 L2098.65 234.92 Q2096.87 235.754 2094.95 236.17 Q2093.05 236.587 2090.9 236.587 Q2085.04 236.587 2081.59 232.906 Q2078.14 229.226 2078.14 222.976 Q2078.14 216.633 2081.61 212.999 Q2085.11 209.365 2091.18 209.365 Q2093.14 209.365 2095.02 209.782 Q2096.89 210.175 2098.65 210.985 Z" fill="#000000" fill-rule="evenodd" fill-opacity="1" /><path clip-path="url(#clip200)" d="M2110.27 202.629 L2110.27 209.99 L2119.05 209.99 L2119.05 213.3 L2110.27 213.3 L2110.27 227.374 Q2110.27 230.545 2111.13 231.448 Q2112.01 232.351 2114.67 232.351 L2119.05 232.351 L2119.05 235.916 L2114.67 235.916 Q2109.74 235.916 2107.86 234.087 Q2105.99 232.235 2105.99 227.374 L2105.99 213.3 L2102.86 213.3 L2102.86 209.99 L2105.99 209.99 L2105.99 202.629 L2110.27 202.629 Z" fill="#000000" fill-rule="evenodd" fill-opacity="1" /><path clip-path="url(#clip200)" d="M2134.69 212.976 Q2131.27 212.976 2129.28 215.661 Q2127.29 218.323 2127.29 222.976 Q2127.29 227.629 2129.25 230.314 Q2131.24 232.976 2134.69 232.976 Q2138.1 232.976 2140.09 230.291 Q2142.08 227.606 2142.08 222.976 Q2142.08 218.37 2140.09 215.684 Q2138.1 212.976 2134.69 212.976 M2134.69 209.365 Q2140.25 209.365 2143.42 212.976 Q2146.59 216.587 2146.59 222.976 Q2146.59 229.342 2143.42 232.976 Q2140.25 236.587 2134.69 236.587 Q2129.11 236.587 2125.94 232.976 Q2122.8 229.342 2122.8 222.976 Q2122.8 216.587 2125.94 212.976 Q2129.11 209.365 2134.69 209.365 Z" fill="#000000" fill-rule="evenodd" fill-opacity="1" /><path clip-path="url(#clip200)" d="M2168.67 213.971 Q2167.96 213.555 2167.1 213.37 Q2166.27 213.161 2165.25 213.161 Q2161.64 213.161 2159.69 215.522 Q2157.77 217.86 2157.77 222.258 L2157.77 235.916 L2153.49 235.916 L2153.49 209.99 L2157.77 209.99 L2157.77 214.018 Q2159.11 211.657 2161.27 210.522 Q2163.42 209.365 2166.5 209.365 Q2166.94 209.365 2167.47 209.434 Q2168 209.481 2168.65 209.596 L2168.67 213.971 Z" fill="#000000" fill-rule="evenodd" fill-opacity="1" /><path clip-path="url(#clip200)" d="M2183.93 238.323 Q2182.12 242.953 2180.41 244.365 Q2178.7 245.777 2175.83 245.777 L2172.42 245.777 L2172.42 242.212 L2174.92 242.212 Q2176.68 242.212 2177.66 241.379 Q2178.63 240.545 2179.81 237.443 L2180.57 235.499 L2170.09 209.99 L2174.6 209.99 L2182.7 230.268 L2190.8 209.99 L2195.32 209.99 L2183.93 238.323 Z" fill="#000000" fill-rule="evenodd" fill-opacity="1" /><path clip-path="url(#clip200)" d="M2217.68 231.981 L2225.32 231.981 L2225.32 205.615 L2217.01 207.282 L2217.01 203.022 L2225.27 201.356 L2229.95 201.356 L2229.95 231.981 L2237.59 231.981 L2237.59 235.916 L2217.68 235.916 L2217.68 231.981 Z" fill="#000000" fill-rule="evenodd" fill-opacity="1" /><polyline clip-path="url(#clip200)" style="stroke:#e26f46; stroke-linecap:butt; stroke-linejoin:round; stroke-width:4; stroke-opacity:1; fill:none" points="
  1801.28,270.476 1939.48,270.476 
  "/>
<path clip-path="url(#clip200)" d="M1962.52 253.196 L1991.75 253.196 L1991.75 257.131 L1979.49 257.131 L1979.49 287.756 L1974.79 287.756 L1974.79 257.131 L1962.52 257.131 L1962.52 253.196 Z" fill="#000000" fill-rule="evenodd" fill-opacity="1" /><path clip-path="url(#clip200)" d="M2004.14 265.811 Q2003.42 265.395 2002.56 265.21 Q2001.73 265.001 2000.71 265.001 Q1997.1 265.001 1995.16 267.362 Q1993.24 269.7 1993.24 274.098 L1993.24 287.756 L1988.95 287.756 L1988.95 261.83 L1993.24 261.83 L1993.24 265.858 Q1994.58 263.497 1996.73 262.362 Q1998.88 261.205 2001.96 261.205 Q2002.4 261.205 2002.93 261.274 Q2003.47 261.321 2004.12 261.436 L2004.14 265.811 Z" fill="#000000" fill-rule="evenodd" fill-opacity="1" /><path clip-path="url(#clip200)" d="M2020.39 274.723 Q2015.23 274.723 2013.24 275.904 Q2011.24 277.084 2011.24 279.932 Q2011.24 282.2 2012.73 283.543 Q2014.23 284.862 2016.8 284.862 Q2020.34 284.862 2022.47 282.362 Q2024.62 279.839 2024.62 275.672 L2024.62 274.723 L2020.39 274.723 M2028.88 272.964 L2028.88 287.756 L2024.62 287.756 L2024.62 283.821 Q2023.17 286.182 2020.99 287.316 Q2018.81 288.427 2015.67 288.427 Q2011.68 288.427 2009.32 286.205 Q2006.99 283.959 2006.99 280.209 Q2006.99 275.834 2009.9 273.612 Q2012.84 271.39 2018.65 271.39 L2024.62 271.39 L2024.62 270.973 Q2024.62 268.034 2022.68 266.436 Q2020.76 264.816 2017.26 264.816 Q2015.04 264.816 2012.93 265.348 Q2010.83 265.881 2008.88 266.946 L2008.88 263.01 Q2011.22 262.108 2013.42 261.668 Q2015.62 261.205 2017.7 261.205 Q2023.33 261.205 2026.11 264.122 Q2028.88 267.038 2028.88 272.964 Z" fill="#000000" fill-rule="evenodd" fill-opacity="1" /><path clip-path="url(#clip200)" d="M2037.66 261.83 L2041.92 261.83 L2041.92 288.219 Q2041.92 293.172 2040.02 295.395 Q2038.14 297.617 2033.95 297.617 L2032.33 297.617 L2032.33 294.006 L2033.47 294.006 Q2035.9 294.006 2036.78 292.871 Q2037.66 291.76 2037.66 288.219 L2037.66 261.83 M2037.66 251.737 L2041.92 251.737 L2041.92 257.131 L2037.66 257.131 L2037.66 251.737 Z" fill="#000000" fill-rule="evenodd" fill-opacity="1" /><path clip-path="url(#clip200)" d="M2073 273.728 L2073 275.811 L2053.42 275.811 Q2053.7 280.209 2056.06 282.524 Q2058.44 284.816 2062.68 284.816 Q2065.13 284.816 2067.43 284.214 Q2069.74 283.612 2072.01 282.409 L2072.01 286.436 Q2069.72 287.408 2067.31 287.918 Q2064.9 288.427 2062.43 288.427 Q2056.22 288.427 2052.59 284.816 Q2048.98 281.205 2048.98 275.047 Q2048.98 268.682 2052.4 264.955 Q2055.85 261.205 2061.68 261.205 Q2066.92 261.205 2069.95 264.585 Q2073 267.941 2073 273.728 M2068.74 272.478 Q2068.7 268.983 2066.78 266.899 Q2064.88 264.816 2061.73 264.816 Q2058.17 264.816 2056.01 266.83 Q2053.88 268.844 2053.56 272.501 L2068.74 272.478 Z" fill="#000000" fill-rule="evenodd" fill-opacity="1" /><path clip-path="url(#clip200)" d="M2098.65 262.825 L2098.65 266.807 Q2096.85 265.811 2095.02 265.325 Q2093.21 264.816 2091.36 264.816 Q2087.22 264.816 2084.93 267.455 Q2082.63 270.071 2082.63 274.816 Q2082.63 279.561 2084.93 282.2 Q2087.22 284.816 2091.36 284.816 Q2093.21 284.816 2095.02 284.33 Q2096.85 283.821 2098.65 282.825 L2098.65 286.76 Q2096.87 287.594 2094.95 288.01 Q2093.05 288.427 2090.9 288.427 Q2085.04 288.427 2081.59 284.746 Q2078.14 281.066 2078.14 274.816 Q2078.14 268.473 2081.61 264.839 Q2085.11 261.205 2091.18 261.205 Q2093.14 261.205 2095.02 261.622 Q2096.89 262.015 2098.65 262.825 Z" fill="#000000" fill-rule="evenodd" fill-opacity="1" /><path clip-path="url(#clip200)" d="M2110.27 254.469 L2110.27 261.83 L2119.05 261.83 L2119.05 265.14 L2110.27 265.14 L2110.27 279.214 Q2110.27 282.385 2111.13 283.288 Q2112.01 284.191 2114.67 284.191 L2119.05 284.191 L2119.05 287.756 L2114.67 287.756 Q2109.74 287.756 2107.86 285.927 Q2105.99 284.075 2105.99 279.214 L2105.99 265.14 L2102.86 265.14 L2102.86 261.83 L2105.99 261.83 L2105.99 254.469 L2110.27 254.469 Z" fill="#000000" fill-rule="evenodd" fill-opacity="1" /><path clip-path="url(#clip200)" d="M2134.69 264.816 Q2131.27 264.816 2129.28 267.501 Q2127.29 270.163 2127.29 274.816 Q2127.29 279.469 2129.25 282.154 Q2131.24 284.816 2134.69 284.816 Q2138.1 284.816 2140.09 282.131 Q2142.08 279.446 2142.08 274.816 Q2142.08 270.21 2140.09 267.524 Q2138.1 264.816 2134.69 264.816 M2134.69 261.205 Q2140.25 261.205 2143.42 264.816 Q2146.59 268.427 2146.59 274.816 Q2146.59 281.182 2143.42 284.816 Q2140.25 288.427 2134.69 288.427 Q2129.11 288.427 2125.94 284.816 Q2122.8 281.182 2122.8 274.816 Q2122.8 268.427 2125.94 264.816 Q2129.11 261.205 2134.69 261.205 Z" fill="#000000" fill-rule="evenodd" fill-opacity="1" /><path clip-path="url(#clip200)" d="M2168.67 265.811 Q2167.96 265.395 2167.1 265.21 Q2166.27 265.001 2165.25 265.001 Q2161.64 265.001 2159.69 267.362 Q2157.77 269.7 2157.77 274.098 L2157.77 287.756 L2153.49 287.756 L2153.49 261.83 L2157.77 261.83 L2157.77 265.858 Q2159.11 263.497 2161.27 262.362 Q2163.42 261.205 2166.5 261.205 Q2166.94 261.205 2167.47 261.274 Q2168 261.321 2168.65 261.436 L2168.67 265.811 Z" fill="#000000" fill-rule="evenodd" fill-opacity="1" /><path clip-path="url(#clip200)" d="M2183.93 290.163 Q2182.12 294.793 2180.41 296.205 Q2178.7 297.617 2175.83 297.617 L2172.42 297.617 L2172.42 294.052 L2174.92 294.052 Q2176.68 294.052 2177.66 293.219 Q2178.63 292.385 2179.81 289.283 L2180.57 287.339 L2170.09 261.83 L2174.6 261.83 L2182.7 282.108 L2190.8 261.83 L2195.32 261.83 L2183.93 290.163 Z" fill="#000000" fill-rule="evenodd" fill-opacity="1" /><path clip-path="url(#clip200)" d="M2220.9 283.821 L2237.22 283.821 L2237.22 287.756 L2215.27 287.756 L2215.27 283.821 Q2217.93 281.066 2222.52 276.436 Q2227.12 271.784 2228.3 270.441 Q2230.55 267.918 2231.43 266.182 Q2232.33 264.423 2232.33 262.733 Q2232.33 259.978 2230.39 258.242 Q2228.47 256.506 2225.36 256.506 Q2223.17 256.506 2220.71 257.27 Q2218.28 258.034 2215.5 259.585 L2215.5 254.862 Q2218.33 253.728 2220.78 253.149 Q2223.23 252.571 2225.27 252.571 Q2230.64 252.571 2233.84 255.256 Q2237.03 257.941 2237.03 262.432 Q2237.03 264.561 2236.22 266.483 Q2235.43 268.381 2233.33 270.973 Q2232.75 271.645 2229.65 274.862 Q2226.54 278.057 2220.9 283.821 Z" fill="#000000" fill-rule="evenodd" fill-opacity="1" /></svg>
