<?xml version="1.0" encoding="utf-8"?>
<svg xmlns="http://www.w3.org/2000/svg" xmlns:xlink="http://www.w3.org/1999/xlink" width="600" height="400" viewBox="0 0 2400 1600">
<defs>
  <clipPath id="clip630">
    <rect x="0" y="0" width="2400" height="1600"/>
  </clipPath>
</defs>
<path clip-path="url(#clip630)" d="
M0 1600 L2400 1600 L2400 0 L0 0  Z
  " fill="#ffffff" fill-rule="evenodd" fill-opacity="1"/>
<defs>
  <clipPath id="clip631">
    <rect x="480" y="0" width="1681" height="1600"/>
  </clipPath>
</defs>
<path clip-path="url(#clip630)" d="
M250.028 1423.18 L2352.76 1423.18 L2352.76 123.472 L250.028 123.472  Z
  " fill="#ffffff" fill-rule="evenodd" fill-opacity="1"/>
<defs>
  <clipPath id="clip632">
    <rect x="250" y="123" width="2104" height="1301"/>
  </clipPath>
</defs>
<polyline clip-path="url(#clip632)" style="stroke:#000000; stroke-linecap:round; stroke-linejoin:round; stroke-width:2; stroke-opacity:0.1; fill:none" points="
  250.028,1423.18 250.028,123.472 
  "/>
<polyline clip-path="url(#clip632)" style="stroke:#000000; stroke-linecap:round; stroke-linejoin:round; stroke-width:2; stroke-opacity:0.1; fill:none" points="
  632.342,1423.18 632.342,123.472 
  "/>
<polyline clip-path="url(#clip632)" style="stroke:#000000; stroke-linecap:round; stroke-linejoin:round; stroke-width:2; stroke-opacity:0.1; fill:none" points="
  1014.66,1423.18 1014.66,123.472 
  "/>
<polyline clip-path="url(#clip632)" style="stroke:#000000; stroke-linecap:round; stroke-linejoin:round; stroke-width:2; stroke-opacity:0.1; fill:none" points="
  1396.97,1423.18 1396.97,123.472 
  "/>
<polyline clip-path="url(#clip632)" style="stroke:#000000; stroke-linecap:round; stroke-linejoin:round; stroke-width:2; stroke-opacity:0.1; fill:none" points="
  1779.28,1423.18 1779.28,123.472 
  "/>
<polyline clip-path="url(#clip632)" style="stroke:#000000; stroke-linecap:round; stroke-linejoin:round; stroke-width:2; stroke-opacity:0.1; fill:none" points="
  2161.6,1423.18 2161.6,123.472 
  "/>
<polyline clip-path="url(#clip630)" style="stroke:#000000; stroke-linecap:round; stroke-linejoin:round; stroke-width:4; stroke-opacity:1; fill:none" points="
  250.028,1423.18 2352.76,1423.18 
  "/>
<polyline clip-path="url(#clip630)" style="stroke:#000000; stroke-linecap:round; stroke-linejoin:round; stroke-width:4; stroke-opacity:1; fill:none" points="
  250.028,1423.18 250.028,1404.28 
  "/>
<polyline clip-path="url(#clip630)" style="stroke:#000000; stroke-linecap:round; stroke-linejoin:round; stroke-width:4; stroke-opacity:1; fill:none" points="
  632.342,1423.18 632.342,1404.28 
  "/>
<polyline clip-path="url(#clip630)" style="stroke:#000000; stroke-linecap:round; stroke-linejoin:round; stroke-width:4; stroke-opacity:1; fill:none" points="
  1014.66,1423.18 1014.66,1404.28 
  "/>
<polyline clip-path="url(#clip630)" style="stroke:#000000; stroke-linecap:round; stroke-linejoin:round; stroke-width:4; stroke-opacity:1; fill:none" points="
  1396.97,1423.18 1396.97,1404.28 
  "/>
<polyline clip-path="url(#clip630)" style="stroke:#000000; stroke-linecap:round; stroke-linejoin:round; stroke-width:4; stroke-opacity:1; fill:none" points="
  1779.28,1423.18 1779.28,1404.28 
  "/>
<polyline clip-path="url(#clip630)" style="stroke:#000000; stroke-linecap:round; stroke-linejoin:round; stroke-width:4; stroke-opacity:1; fill:none" points="
  2161.6,1423.18 2161.6,1404.28 
  "/>
<path clip-path="url(#clip630)" d="M250.028 1454.1 Q246.417 1454.1 244.588 1457.66 Q242.783 1461.2 242.783 1468.33 Q242.783 1475.44 244.588 1479.01 Q246.417 1482.55 250.028 1482.55 Q253.662 1482.55 255.468 1479.01 Q257.297 1475.44 257.297 1468.33 Q257.297 1461.2 255.468 1457.66 Q253.662 1454.1 250.028 1454.1 M250.028 1450.39 Q255.838 1450.39 258.894 1455 Q261.973 1459.58 261.973 1468.33 Q261.973 1477.06 258.894 1481.67 Q255.838 1486.25 250.028 1486.25 Q244.218 1486.25 241.139 1481.67 Q238.084 1477.06 238.084 1468.33 Q238.084 1459.58 241.139 1455 Q244.218 1450.39 250.028 1450.39 Z" fill="#000000" fill-rule="evenodd" fill-opacity="1" /><path clip-path="url(#clip630)" d="M591.949 1481.64 L599.588 1481.64 L599.588 1455.28 L591.278 1456.95 L591.278 1452.69 L599.542 1451.02 L604.217 1451.02 L604.217 1481.64 L611.856 1481.64 L611.856 1485.58 L591.949 1485.58 L591.949 1481.64 Z" fill="#000000" fill-rule="evenodd" fill-opacity="1" /><path clip-path="url(#clip630)" d="M631.301 1454.1 Q627.69 1454.1 625.861 1457.66 Q624.055 1461.2 624.055 1468.33 Q624.055 1475.44 625.861 1479.01 Q627.69 1482.55 631.301 1482.55 Q634.935 1482.55 636.74 1479.01 Q638.569 1475.44 638.569 1468.33 Q638.569 1461.2 636.74 1457.66 Q634.935 1454.1 631.301 1454.1 M631.301 1450.39 Q637.111 1450.39 640.166 1455 Q643.245 1459.58 643.245 1468.33 Q643.245 1477.06 640.166 1481.67 Q637.111 1486.25 631.301 1486.25 Q625.49 1486.25 622.412 1481.67 Q619.356 1477.06 619.356 1468.33 Q619.356 1459.58 622.412 1455 Q625.49 1450.39 631.301 1450.39 Z" fill="#000000" fill-rule="evenodd" fill-opacity="1" /><path clip-path="url(#clip630)" d="M661.462 1454.1 Q657.851 1454.1 656.023 1457.66 Q654.217 1461.2 654.217 1468.33 Q654.217 1475.44 656.023 1479.01 Q657.851 1482.55 661.462 1482.55 Q665.097 1482.55 666.902 1479.01 Q668.731 1475.44 668.731 1468.33 Q668.731 1461.2 666.902 1457.66 Q665.097 1454.1 661.462 1454.1 M661.462 1450.39 Q667.273 1450.39 670.328 1455 Q673.407 1459.58 673.407 1468.33 Q673.407 1477.06 670.328 1481.67 Q667.273 1486.25 661.462 1486.25 Q655.652 1486.25 652.574 1481.67 Q649.518 1477.06 649.518 1468.33 Q649.518 1459.58 652.574 1455 Q655.652 1450.39 661.462 1450.39 Z" fill="#000000" fill-rule="evenodd" fill-opacity="1" /><path clip-path="url(#clip630)" d="M978.349 1481.64 L994.668 1481.64 L994.668 1485.58 L972.724 1485.58 L972.724 1481.64 Q975.386 1478.89 979.969 1474.26 Q984.576 1469.61 985.756 1468.27 Q988.001 1465.74 988.881 1464.01 Q989.784 1462.25 989.784 1460.56 Q989.784 1457.8 987.839 1456.07 Q985.918 1454.33 982.816 1454.33 Q980.617 1454.33 978.164 1455.09 Q975.733 1455.86 972.955 1457.41 L972.955 1452.69 Q975.779 1451.55 978.233 1450.97 Q980.687 1450.39 982.724 1450.39 Q988.094 1450.39 991.288 1453.08 Q994.483 1455.77 994.483 1460.26 Q994.483 1462.39 993.673 1464.31 Q992.886 1466.2 990.779 1468.8 Q990.201 1469.47 987.099 1472.69 Q983.997 1475.88 978.349 1481.64 Z" fill="#000000" fill-rule="evenodd" fill-opacity="1" /><path clip-path="url(#clip630)" d="M1014.48 1454.1 Q1010.87 1454.1 1009.04 1457.66 Q1007.24 1461.2 1007.24 1468.33 Q1007.24 1475.44 1009.04 1479.01 Q1010.87 1482.55 1014.48 1482.55 Q1018.12 1482.55 1019.92 1479.01 Q1021.75 1475.44 1021.75 1468.33 Q1021.75 1461.2 1019.92 1457.66 Q1018.12 1454.1 1014.48 1454.1 M1014.48 1450.39 Q1020.29 1450.39 1023.35 1455 Q1026.43 1459.58 1026.43 1468.33 Q1026.43 1477.06 1023.35 1481.67 Q1020.29 1486.25 1014.48 1486.25 Q1008.67 1486.25 1005.59 1481.67 Q1002.54 1477.06 1002.54 1468.33 Q1002.54 1459.58 1005.59 1455 Q1008.67 1450.39 1014.48 1450.39 Z" fill="#000000" fill-rule="evenodd" fill-opacity="1" /><path clip-path="url(#clip630)" d="M1044.64 1454.1 Q1041.03 1454.1 1039.2 1457.66 Q1037.4 1461.2 1037.4 1468.33 Q1037.4 1475.44 1039.2 1479.01 Q1041.03 1482.55 1044.64 1482.55 Q1048.28 1482.55 1050.08 1479.01 Q1051.91 1475.44 1051.91 1468.33 Q1051.91 1461.2 1050.08 1457.66 Q1048.28 1454.1 1044.64 1454.1 M1044.64 1450.39 Q1050.45 1450.39 1053.51 1455 Q1056.59 1459.58 1056.59 1468.33 Q1056.59 1477.06 1053.51 1481.67 Q1050.45 1486.25 1044.64 1486.25 Q1038.83 1486.25 1035.76 1481.67 Q1032.7 1477.06 1032.7 1468.33 Q1032.7 1459.58 1035.76 1455 Q1038.83 1450.39 1044.64 1450.39 Z" fill="#000000" fill-rule="evenodd" fill-opacity="1" /><path clip-path="url(#clip630)" d="M1370.73 1466.95 Q1374.09 1467.66 1375.96 1469.93 Q1377.86 1472.2 1377.86 1475.53 Q1377.86 1480.65 1374.34 1483.45 Q1370.82 1486.25 1364.34 1486.25 Q1362.17 1486.25 1359.85 1485.81 Q1357.56 1485.39 1355.11 1484.54 L1355.11 1480.02 Q1357.05 1481.16 1359.37 1481.74 Q1361.68 1482.32 1364.2 1482.32 Q1368.6 1482.32 1370.89 1480.58 Q1373.21 1478.84 1373.21 1475.53 Q1373.21 1472.48 1371.06 1470.77 Q1368.93 1469.03 1365.11 1469.03 L1361.08 1469.03 L1361.08 1465.19 L1365.29 1465.19 Q1368.74 1465.19 1370.57 1463.82 Q1372.4 1462.43 1372.4 1459.84 Q1372.4 1457.18 1370.5 1455.77 Q1368.63 1454.33 1365.11 1454.33 Q1363.19 1454.33 1360.99 1454.75 Q1358.79 1455.16 1356.15 1456.04 L1356.15 1451.88 Q1358.81 1451.14 1361.13 1450.77 Q1363.46 1450.39 1365.52 1450.39 Q1370.85 1450.39 1373.95 1452.83 Q1377.05 1455.23 1377.05 1459.35 Q1377.05 1462.22 1375.41 1464.21 Q1373.76 1466.18 1370.73 1466.95 Z" fill="#000000" fill-rule="evenodd" fill-opacity="1" /><path clip-path="url(#clip630)" d="M1396.73 1454.1 Q1393.12 1454.1 1391.29 1457.66 Q1389.48 1461.2 1389.48 1468.33 Q1389.48 1475.44 1391.29 1479.01 Q1393.12 1482.55 1396.73 1482.55 Q1400.36 1482.55 1402.17 1479.01 Q1404 1475.44 1404 1468.33 Q1404 1461.2 1402.17 1457.66 Q1400.36 1454.1 1396.73 1454.1 M1396.73 1450.39 Q1402.54 1450.39 1405.59 1455 Q1408.67 1459.58 1408.67 1468.33 Q1408.67 1477.06 1405.59 1481.67 Q1402.54 1486.25 1396.73 1486.25 Q1390.92 1486.25 1387.84 1481.67 Q1384.78 1477.06 1384.78 1468.33 Q1384.78 1459.58 1387.84 1455 Q1390.92 1450.39 1396.73 1450.39 Z" fill="#000000" fill-rule="evenodd" fill-opacity="1" /><path clip-path="url(#clip630)" d="M1426.89 1454.1 Q1423.28 1454.1 1421.45 1457.66 Q1419.64 1461.2 1419.64 1468.33 Q1419.64 1475.44 1421.45 1479.01 Q1423.28 1482.55 1426.89 1482.55 Q1430.52 1482.55 1432.33 1479.01 Q1434.16 1475.44 1434.16 1468.33 Q1434.16 1461.2 1432.33 1457.66 Q1430.52 1454.1 1426.89 1454.1 M1426.89 1450.39 Q1432.7 1450.39 1435.76 1455 Q1438.83 1459.58 1438.83 1468.33 Q1438.83 1477.06 1435.76 1481.67 Q1432.7 1486.25 1426.89 1486.25 Q1421.08 1486.25 1418 1481.67 Q1414.94 1477.06 1414.94 1468.33 Q1414.94 1459.58 1418 1455 Q1421.08 1450.39 1426.89 1450.39 Z" fill="#000000" fill-rule="evenodd" fill-opacity="1" /><path clip-path="url(#clip630)" d="M1752.38 1455.09 L1740.57 1473.54 L1752.38 1473.54 L1752.38 1455.09 M1751.15 1451.02 L1757.03 1451.02 L1757.03 1473.54 L1761.96 1473.54 L1761.96 1477.43 L1757.03 1477.43 L1757.03 1485.58 L1752.38 1485.58 L1752.38 1477.43 L1736.77 1477.43 L1736.77 1472.92 L1751.15 1451.02 Z" fill="#000000" fill-rule="evenodd" fill-opacity="1" /><path clip-path="url(#clip630)" d="M1779.69 1454.1 Q1776.08 1454.1 1774.25 1457.66 Q1772.44 1461.2 1772.44 1468.33 Q1772.44 1475.44 1774.25 1479.01 Q1776.08 1482.55 1779.69 1482.55 Q1783.32 1482.55 1785.13 1479.01 Q1786.96 1475.44 1786.96 1468.33 Q1786.96 1461.2 1785.13 1457.66 Q1783.32 1454.1 1779.69 1454.1 M1779.69 1450.39 Q1785.5 1450.39 1788.56 1455 Q1791.63 1459.58 1791.63 1468.33 Q1791.63 1477.06 1788.56 1481.67 Q1785.5 1486.25 1779.69 1486.25 Q1773.88 1486.25 1770.8 1481.67 Q1767.75 1477.06 1767.75 1468.33 Q1767.75 1459.58 1770.8 1455 Q1773.88 1450.39 1779.69 1450.39 Z" fill="#000000" fill-rule="evenodd" fill-opacity="1" /><path clip-path="url(#clip630)" d="M1809.85 1454.1 Q1806.24 1454.1 1804.41 1457.66 Q1802.61 1461.2 1802.61 1468.33 Q1802.61 1475.44 1804.41 1479.01 Q1806.24 1482.55 1809.85 1482.55 Q1813.49 1482.55 1815.29 1479.01 Q1817.12 1475.44 1817.12 1468.33 Q1817.12 1461.2 1815.29 1457.66 Q1813.49 1454.1 1809.85 1454.1 M1809.85 1450.39 Q1815.66 1450.39 1818.72 1455 Q1821.8 1459.58 1821.8 1468.33 Q1821.8 1477.06 1818.72 1481.67 Q1815.66 1486.25 1809.85 1486.25 Q1804.04 1486.25 1800.96 1481.67 Q1797.91 1477.06 1797.91 1468.33 Q1797.91 1459.58 1800.96 1455 Q1804.04 1450.39 1809.85 1450.39 Z" fill="#000000" fill-rule="evenodd" fill-opacity="1" /><path clip-path="url(#clip630)" d="M2121.22 1451.02 L2139.57 1451.02 L2139.57 1454.96 L2125.5 1454.96 L2125.5 1463.43 Q2126.52 1463.08 2127.54 1462.92 Q2128.56 1462.73 2129.57 1462.73 Q2135.36 1462.73 2138.74 1465.9 Q2142.12 1469.08 2142.12 1474.49 Q2142.12 1480.07 2138.65 1483.17 Q2135.18 1486.25 2128.86 1486.25 Q2126.68 1486.25 2124.41 1485.88 Q2122.17 1485.51 2119.76 1484.77 L2119.76 1480.07 Q2121.84 1481.2 2124.06 1481.76 Q2126.29 1482.32 2128.76 1482.32 Q2132.77 1482.32 2135.11 1480.21 Q2137.44 1478.1 2137.44 1474.49 Q2137.44 1470.88 2135.11 1468.77 Q2132.77 1466.67 2128.76 1466.67 Q2126.89 1466.67 2125.01 1467.08 Q2123.16 1467.5 2121.22 1468.38 L2121.22 1451.02 Z" fill="#000000" fill-rule="evenodd" fill-opacity="1" /><path clip-path="url(#clip630)" d="M2161.33 1454.1 Q2157.72 1454.1 2155.89 1457.66 Q2154.09 1461.2 2154.09 1468.33 Q2154.09 1475.44 2155.89 1479.01 Q2157.72 1482.55 2161.33 1482.55 Q2164.97 1482.55 2166.77 1479.01 Q2168.6 1475.44 2168.6 1468.33 Q2168.6 1461.2 2166.77 1457.66 Q2164.97 1454.1 2161.33 1454.1 M2161.33 1450.39 Q2167.14 1450.39 2170.2 1455 Q2173.28 1459.58 2173.28 1468.33 Q2173.28 1477.06 2170.2 1481.67 Q2167.14 1486.25 2161.33 1486.25 Q2155.52 1486.25 2152.44 1481.67 Q2149.39 1477.06 2149.39 1468.33 Q2149.39 1459.58 2152.44 1455 Q2155.52 1450.39 2161.33 1450.39 Z" fill="#000000" fill-rule="evenodd" fill-opacity="1" /><path clip-path="url(#clip630)" d="M2191.49 1454.1 Q2187.88 1454.1 2186.05 1457.66 Q2184.25 1461.2 2184.25 1468.33 Q2184.25 1475.44 2186.05 1479.01 Q2187.88 1482.55 2191.49 1482.55 Q2195.13 1482.55 2196.93 1479.01 Q2198.76 1475.44 2198.76 1468.33 Q2198.76 1461.2 2196.93 1457.66 Q2195.13 1454.1 2191.49 1454.1 M2191.49 1450.39 Q2197.3 1450.39 2200.36 1455 Q2203.44 1459.58 2203.44 1468.33 Q2203.44 1477.06 2200.36 1481.67 Q2197.3 1486.25 2191.49 1486.25 Q2185.68 1486.25 2182.61 1481.67 Q2179.55 1477.06 2179.55 1468.33 Q2179.55 1459.58 2182.61 1455 Q2185.68 1450.39 2191.49 1450.39 Z" fill="#000000" fill-rule="evenodd" fill-opacity="1" /><path clip-path="url(#clip630)" d="M1309.86 1531.91 Q1309.86 1532.81 1309.44 1533.04 Q1309.03 1533.23 1307.87 1533.23 L1301.68 1533.23 L1296.79 1552.69 Q1296.4 1554.39 1296.4 1555.84 Q1296.4 1557.45 1296.88 1558.16 Q1297.4 1558.87 1298.46 1558.87 Q1300.56 1558.87 1302.81 1556.97 Q1305.1 1555.07 1307.03 1550.43 Q1307.29 1549.82 1307.42 1549.69 Q1307.58 1549.53 1308 1549.53 Q1308.8 1549.53 1308.8 1550.17 Q1308.8 1550.4 1308.35 1551.43 Q1307.93 1552.46 1307 1553.97 Q1306.09 1555.49 1304.9 1556.9 Q1303.74 1558.32 1301.97 1559.35 Q1300.2 1560.35 1298.3 1560.35 Q1295.63 1560.35 1293.92 1558.64 Q1292.25 1556.94 1292.25 1554.26 Q1292.25 1553.39 1292.92 1550.62 Q1293.6 1547.82 1297.27 1533.23 L1291.44 1533.23 Q1290.64 1533.23 1290.31 1533.2 Q1290.02 1533.17 1289.8 1533.01 Q1289.61 1532.81 1289.61 1532.43 Q1289.61 1531.82 1289.86 1531.56 Q1290.12 1531.27 1290.44 1531.24 Q1290.8 1531.17 1291.6 1531.17 L1297.79 1531.17 L1300.36 1520.71 Q1300.62 1519.67 1301.26 1519.09 Q1301.94 1518.48 1302.33 1518.42 Q1302.71 1518.32 1303 1518.32 Q1303.87 1518.32 1304.39 1518.81 Q1304.9 1519.26 1304.9 1520.09 Q1304.9 1520.54 1302.2 1531.17 L1308 1531.17 Q1308.74 1531.17 1309.03 1531.2 Q1309.35 1531.24 1309.61 1531.4 Q1309.86 1531.56 1309.86 1531.91 Z" fill="#000000" fill-rule="evenodd" fill-opacity="1" /><polyline clip-path="url(#clip632)" style="stroke:#000000; stroke-linecap:round; stroke-linejoin:round; stroke-width:2; stroke-opacity:0.1; fill:none" points="
  250.028,1387.58 2352.76,1387.58 
  "/>
<polyline clip-path="url(#clip632)" style="stroke:#000000; stroke-linecap:round; stroke-linejoin:round; stroke-width:2; stroke-opacity:0.1; fill:none" points="
  250.028,1026.81 2352.76,1026.81 
  "/>
<polyline clip-path="url(#clip632)" style="stroke:#000000; stroke-linecap:round; stroke-linejoin:round; stroke-width:2; stroke-opacity:0.1; fill:none" points="
  250.028,666.044 2352.76,666.044 
  "/>
<polyline clip-path="url(#clip632)" style="stroke:#000000; stroke-linecap:round; stroke-linejoin:round; stroke-width:2; stroke-opacity:0.1; fill:none" points="
  250.028,305.276 2352.76,305.276 
  "/>
<polyline clip-path="url(#clip630)" style="stroke:#000000; stroke-linecap:round; stroke-linejoin:round; stroke-width:4; stroke-opacity:1; fill:none" points="
  250.028,1423.18 250.028,123.472 
  "/>
<polyline clip-path="url(#clip630)" style="stroke:#000000; stroke-linecap:round; stroke-linejoin:round; stroke-width:4; stroke-opacity:1; fill:none" points="
  250.028,1387.58 268.926,1387.58 
  "/>
<polyline clip-path="url(#clip630)" style="stroke:#000000; stroke-linecap:round; stroke-linejoin:round; stroke-width:4; stroke-opacity:1; fill:none" points="
  250.028,1026.81 268.926,1026.81 
  "/>
<polyline clip-path="url(#clip630)" style="stroke:#000000; stroke-linecap:round; stroke-linejoin:round; stroke-width:4; stroke-opacity:1; fill:none" points="
  250.028,666.044 268.926,666.044 
  "/>
<polyline clip-path="url(#clip630)" style="stroke:#000000; stroke-linecap:round; stroke-linejoin:round; stroke-width:4; stroke-opacity:1; fill:none" points="
  250.028,305.276 268.926,305.276 
  "/>
<path clip-path="url(#clip630)" d="M126.691 1373.38 Q123.08 1373.38 121.251 1376.94 Q119.445 1380.48 119.445 1387.61 Q119.445 1394.72 121.251 1398.28 Q123.08 1401.83 126.691 1401.83 Q130.325 1401.83 132.13 1398.28 Q133.959 1394.72 133.959 1387.61 Q133.959 1380.48 132.13 1376.94 Q130.325 1373.38 126.691 1373.38 M126.691 1369.67 Q132.501 1369.67 135.556 1374.28 Q138.635 1378.86 138.635 1387.61 Q138.635 1396.34 135.556 1400.95 Q132.501 1405.53 126.691 1405.53 Q120.88 1405.53 117.802 1400.95 Q114.746 1396.34 114.746 1387.61 Q114.746 1378.86 117.802 1374.28 Q120.88 1369.67 126.691 1369.67 Z" fill="#000000" fill-rule="evenodd" fill-opacity="1" /><path clip-path="url(#clip630)" d="M146.853 1398.98 L151.737 1398.98 L151.737 1404.86 L146.853 1404.86 L146.853 1398.98 Z" fill="#000000" fill-rule="evenodd" fill-opacity="1" /><path clip-path="url(#clip630)" d="M171.922 1373.38 Q168.311 1373.38 166.482 1376.94 Q164.677 1380.48 164.677 1387.61 Q164.677 1394.72 166.482 1398.28 Q168.311 1401.83 171.922 1401.83 Q175.556 1401.83 177.362 1398.28 Q179.19 1394.72 179.19 1387.61 Q179.19 1380.48 177.362 1376.94 Q175.556 1373.38 171.922 1373.38 M171.922 1369.67 Q177.732 1369.67 180.788 1374.28 Q183.866 1378.86 183.866 1387.61 Q183.866 1396.34 180.788 1400.95 Q177.732 1405.53 171.922 1405.53 Q166.112 1405.53 163.033 1400.95 Q159.978 1396.34 159.978 1387.61 Q159.978 1378.86 163.033 1374.28 Q166.112 1369.67 171.922 1369.67 Z" fill="#000000" fill-rule="evenodd" fill-opacity="1" /><path clip-path="url(#clip630)" d="M202.084 1373.38 Q198.473 1373.38 196.644 1376.94 Q194.838 1380.48 194.838 1387.61 Q194.838 1394.72 196.644 1398.28 Q198.473 1401.83 202.084 1401.83 Q205.718 1401.83 207.524 1398.28 Q209.352 1394.72 209.352 1387.61 Q209.352 1380.48 207.524 1376.94 Q205.718 1373.38 202.084 1373.38 M202.084 1369.67 Q207.894 1369.67 210.949 1374.28 Q214.028 1378.86 214.028 1387.61 Q214.028 1396.34 210.949 1400.95 Q207.894 1405.53 202.084 1405.53 Q196.274 1405.53 193.195 1400.95 Q190.139 1396.34 190.139 1387.61 Q190.139 1378.86 193.195 1374.28 Q196.274 1369.67 202.084 1369.67 Z" fill="#000000" fill-rule="evenodd" fill-opacity="1" /><path clip-path="url(#clip630)" d="M128.288 1012.61 Q124.677 1012.61 122.848 1016.17 Q121.043 1019.72 121.043 1026.85 Q121.043 1033.95 122.848 1037.52 Q124.677 1041.06 128.288 1041.06 Q131.922 1041.06 133.728 1037.52 Q135.556 1033.95 135.556 1026.85 Q135.556 1019.72 133.728 1016.17 Q131.922 1012.61 128.288 1012.61 M128.288 1008.91 Q134.098 1008.91 137.154 1013.51 Q140.232 1018.1 140.232 1026.85 Q140.232 1035.57 137.154 1040.18 Q134.098 1044.76 128.288 1044.76 Q122.478 1044.76 119.399 1040.18 Q116.343 1035.57 116.343 1026.85 Q116.343 1018.1 119.399 1013.51 Q122.478 1008.91 128.288 1008.91 Z" fill="#000000" fill-rule="evenodd" fill-opacity="1" /><path clip-path="url(#clip630)" d="M148.45 1038.21 L153.334 1038.21 L153.334 1044.09 L148.45 1044.09 L148.45 1038.21 Z" fill="#000000" fill-rule="evenodd" fill-opacity="1" /><path clip-path="url(#clip630)" d="M173.519 1012.61 Q169.908 1012.61 168.079 1016.17 Q166.274 1019.72 166.274 1026.85 Q166.274 1033.95 168.079 1037.52 Q169.908 1041.06 173.519 1041.06 Q177.153 1041.06 178.959 1037.52 Q180.788 1033.95 180.788 1026.85 Q180.788 1019.72 178.959 1016.17 Q177.153 1012.61 173.519 1012.61 M173.519 1008.91 Q179.329 1008.91 182.385 1013.51 Q185.463 1018.1 185.463 1026.85 Q185.463 1035.57 182.385 1040.18 Q179.329 1044.76 173.519 1044.76 Q167.709 1044.76 164.63 1040.18 Q161.575 1035.57 161.575 1026.85 Q161.575 1018.1 164.63 1013.51 Q167.709 1008.91 173.519 1008.91 Z" fill="#000000" fill-rule="evenodd" fill-opacity="1" /><path clip-path="url(#clip630)" d="M197.709 1040.16 L214.028 1040.16 L214.028 1044.09 L192.084 1044.09 L192.084 1040.16 Q194.746 1037.4 199.329 1032.77 Q203.936 1028.12 205.116 1026.78 Q207.362 1024.25 208.241 1022.52 Q209.144 1020.76 209.144 1019.07 Q209.144 1016.31 207.199 1014.58 Q205.278 1012.84 202.176 1012.84 Q199.977 1012.84 197.524 1013.61 Q195.093 1014.37 192.315 1015.92 L192.315 1011.2 Q195.139 1010.06 197.593 1009.48 Q200.047 1008.91 202.084 1008.91 Q207.454 1008.91 210.649 1011.59 Q213.843 1014.28 213.843 1018.77 Q213.843 1020.9 213.033 1022.82 Q212.246 1024.72 210.139 1027.31 Q209.561 1027.98 206.459 1031.2 Q203.357 1034.39 197.709 1040.16 Z" fill="#000000" fill-rule="evenodd" fill-opacity="1" /><path clip-path="url(#clip630)" d="M126.205 651.842 Q122.593 651.842 120.765 655.407 Q118.959 658.949 118.959 666.078 Q118.959 673.185 120.765 676.75 Q122.593 680.291 126.205 680.291 Q129.839 680.291 131.644 676.75 Q133.473 673.185 133.473 666.078 Q133.473 658.949 131.644 655.407 Q129.839 651.842 126.205 651.842 M126.205 648.139 Q132.015 648.139 135.07 652.745 Q138.149 657.328 138.149 666.078 Q138.149 674.805 135.07 679.412 Q132.015 683.995 126.205 683.995 Q120.394 683.995 117.316 679.412 Q114.26 674.805 114.26 666.078 Q114.26 657.328 117.316 652.745 Q120.394 648.139 126.205 648.139 Z" fill="#000000" fill-rule="evenodd" fill-opacity="1" /><path clip-path="url(#clip630)" d="M146.366 677.444 L151.251 677.444 L151.251 683.324 L146.366 683.324 L146.366 677.444 Z" fill="#000000" fill-rule="evenodd" fill-opacity="1" /><path clip-path="url(#clip630)" d="M171.436 651.842 Q167.825 651.842 165.996 655.407 Q164.19 658.949 164.19 666.078 Q164.19 673.185 165.996 676.75 Q167.825 680.291 171.436 680.291 Q175.07 680.291 176.876 676.75 Q178.704 673.185 178.704 666.078 Q178.704 658.949 176.876 655.407 Q175.07 651.842 171.436 651.842 M171.436 648.139 Q177.246 648.139 180.301 652.745 Q183.38 657.328 183.38 666.078 Q183.38 674.805 180.301 679.412 Q177.246 683.995 171.436 683.995 Q165.626 683.995 162.547 679.412 Q159.491 674.805 159.491 666.078 Q159.491 657.328 162.547 652.745 Q165.626 648.139 171.436 648.139 Z" fill="#000000" fill-rule="evenodd" fill-opacity="1" /><path clip-path="url(#clip630)" d="M204.445 652.838 L192.639 671.287 L204.445 671.287 L204.445 652.838 M203.218 648.764 L209.098 648.764 L209.098 671.287 L214.028 671.287 L214.028 675.176 L209.098 675.176 L209.098 683.324 L204.445 683.324 L204.445 675.176 L188.843 675.176 L188.843 670.662 L203.218 648.764 Z" fill="#000000" fill-rule="evenodd" fill-opacity="1" /><path clip-path="url(#clip630)" d="M126.529 291.075 Q122.918 291.075 121.089 294.64 Q119.283 298.181 119.283 305.311 Q119.283 312.417 121.089 315.982 Q122.918 319.524 126.529 319.524 Q130.163 319.524 131.968 315.982 Q133.797 312.417 133.797 305.311 Q133.797 298.181 131.968 294.64 Q130.163 291.075 126.529 291.075 M126.529 287.371 Q132.339 287.371 135.394 291.978 Q138.473 296.561 138.473 305.311 Q138.473 314.038 135.394 318.644 Q132.339 323.228 126.529 323.228 Q120.718 323.228 117.64 318.644 Q114.584 314.038 114.584 305.311 Q114.584 296.561 117.64 291.978 Q120.718 287.371 126.529 287.371 Z" fill="#000000" fill-rule="evenodd" fill-opacity="1" /><path clip-path="url(#clip630)" d="M146.691 316.677 L151.575 316.677 L151.575 322.556 L146.691 322.556 L146.691 316.677 Z" fill="#000000" fill-rule="evenodd" fill-opacity="1" /><path clip-path="url(#clip630)" d="M171.76 291.075 Q168.149 291.075 166.32 294.64 Q164.515 298.181 164.515 305.311 Q164.515 312.417 166.32 315.982 Q168.149 319.524 171.76 319.524 Q175.394 319.524 177.2 315.982 Q179.028 312.417 179.028 305.311 Q179.028 298.181 177.2 294.64 Q175.394 291.075 171.76 291.075 M171.76 287.371 Q177.57 287.371 180.626 291.978 Q183.704 296.561 183.704 305.311 Q183.704 314.038 180.626 318.644 Q177.57 323.228 171.76 323.228 Q165.95 323.228 162.871 318.644 Q159.815 314.038 159.815 305.311 Q159.815 296.561 162.871 291.978 Q165.95 287.371 171.76 287.371 Z" fill="#000000" fill-rule="evenodd" fill-opacity="1" /><path clip-path="url(#clip630)" d="M202.5 303.413 Q199.352 303.413 197.5 305.566 Q195.672 307.718 195.672 311.468 Q195.672 315.195 197.5 317.371 Q199.352 319.524 202.5 319.524 Q205.649 319.524 207.477 317.371 Q209.329 315.195 209.329 311.468 Q209.329 307.718 207.477 305.566 Q205.649 303.413 202.5 303.413 M211.783 288.76 L211.783 293.019 Q210.024 292.186 208.218 291.746 Q206.436 291.306 204.676 291.306 Q200.047 291.306 197.593 294.431 Q195.163 297.556 194.815 303.876 Q196.181 301.862 198.241 300.797 Q200.301 299.709 202.778 299.709 Q207.987 299.709 210.996 302.88 Q214.028 306.029 214.028 311.468 Q214.028 316.792 210.88 320.01 Q207.732 323.228 202.5 323.228 Q196.505 323.228 193.334 318.644 Q190.163 314.038 190.163 305.311 Q190.163 297.117 194.051 292.255 Q197.94 287.371 204.491 287.371 Q206.25 287.371 208.033 287.718 Q209.838 288.066 211.783 288.76 Z" fill="#000000" fill-rule="evenodd" fill-opacity="1" /><path clip-path="url(#clip630)" d="M24.8606 806.044 Q26.2777 806.044 27.3404 807.204 Q28.371 808.331 28.371 809.555 Q28.371 810.682 27.6947 811.391 Q26.9862 812.067 25.9878 812.067 Q24.6674 812.067 23.5724 810.94 Q22.4774 809.812 22.4774 808.492 Q22.4774 807.397 23.1537 806.721 Q23.83 806.044 24.8606 806.044 M56.6478 805.465 Q56.9054 805.465 57.936 805.755 Q58.9344 806.044 60.4803 806.753 Q61.994 807.429 63.411 808.363 Q64.8281 809.297 65.8264 810.843 Q66.8248 812.357 66.8248 814.096 Q66.8248 816.447 65.2789 817.993 Q63.7331 819.506 61.4142 819.506 Q60.1582 819.506 56.1325 817.993 Q44.4096 813.613 43.9265 813.452 Q42.0907 812.711 40.4804 812.711 Q39.7397 812.711 39.2888 812.872 Q38.8057 813.033 38.6447 813.355 Q38.4515 813.677 38.4193 813.87 Q38.3871 814.031 38.3871 814.354 Q38.3871 816.254 40.3194 818.025 Q42.2518 819.796 46.5673 821.02 Q47.3725 821.278 47.5657 821.439 Q47.759 821.6 47.759 822.083 Q47.7268 822.888 47.0826 822.888 Q46.8894 822.888 46.1487 822.663 Q45.3757 822.437 44.2163 822.018 Q43.0247 821.6 41.8009 820.859 Q40.5448 820.118 39.4498 819.217 Q38.3548 818.283 37.6463 816.962 Q36.9378 815.642 36.9378 814.16 Q36.9378 811.745 38.5159 810.263 Q40.0618 808.75 42.3484 808.75 Q43.6044 808.75 45.8266 809.619 Q48.7251 810.682 49.6591 811.069 L56.5834 813.645 Q59.0954 814.579 59.8684 814.869 Q60.6091 815.126 61.5109 815.352 Q62.3804 815.545 63.1856 815.545 Q64.3128 815.545 64.8281 815.191 Q65.3434 814.804 65.3434 813.967 Q65.3434 811.648 63.0567 809.941 Q60.7379 808.234 57.1953 807.236 Q57.0987 807.204 56.9376 807.172 Q56.1325 806.914 56.0359 806.656 Q56.0037 806.527 56.0037 806.27 Q56.0037 805.465 56.6478 805.465 Z" fill="#000000" fill-rule="evenodd" fill-opacity="1" /><path clip-path="url(#clip630)" d="M49.5947 794.824 Q38.4515 794.824 29.466 790.669 Q25.6979 788.898 22.5418 786.418 Q19.3856 783.938 18.0007 782.296 Q16.6159 780.653 16.6159 780.202 Q16.6159 779.558 17.26 779.526 Q17.5821 779.526 18.3872 780.395 Q29.2084 791.023 49.5947 790.991 Q70.0454 790.991 80.4479 780.653 Q81.5751 779.526 81.9294 779.526 Q82.5735 779.526 82.5735 780.202 Q82.5735 780.653 81.2531 782.231 Q79.9326 783.809 76.9053 786.257 Q73.8779 788.705 70.1742 790.476 Q61.1888 794.824 49.5947 794.824 Z" fill="#000000" fill-rule="evenodd" fill-opacity="1" /><path clip-path="url(#clip630)" d="M38.3871 754.255 Q39.2888 754.255 39.5143 754.673 Q39.7075 755.092 39.7075 756.252 L39.7075 762.435 L59.1598 767.33 Q60.8667 767.717 62.316 767.717 Q63.9263 767.717 64.6348 767.234 Q65.3434 766.718 65.3434 765.656 Q65.3434 763.562 63.4432 761.308 Q61.5431 759.021 56.9054 757.089 Q56.2935 756.831 56.1647 756.702 Q56.0037 756.541 56.0037 756.123 Q56.0037 755.318 56.6478 755.318 Q56.8732 755.318 57.9038 755.768 Q58.9344 756.187 60.4481 757.121 Q61.9617 758.023 63.3788 759.215 Q64.7959 760.374 65.8264 762.145 Q66.8248 763.917 66.8248 765.817 Q66.8248 768.49 65.1179 770.197 Q63.411 771.871 60.7379 771.871 Q59.8684 771.871 57.0987 771.195 Q54.2967 770.519 39.7075 766.847 L39.7075 772.677 Q39.7075 773.482 39.6753 773.804 Q39.6431 774.094 39.4821 774.319 Q39.2888 774.512 38.9023 774.512 Q38.2904 774.512 38.0328 774.255 Q37.7429 773.997 37.7107 773.675 Q37.6463 773.321 37.6463 772.516 L37.6463 766.332 L27.1794 763.756 Q26.1488 763.498 25.5691 762.854 Q24.9572 762.177 24.8928 761.791 Q24.7962 761.405 24.7962 761.115 Q24.7962 760.245 25.2793 759.73 Q25.7302 759.215 26.5675 759.215 Q27.0184 759.215 37.6463 761.92 L37.6463 756.123 Q37.6463 755.382 37.6785 755.092 Q37.7107 754.77 37.8718 754.512 Q38.0328 754.255 38.3871 754.255 Z" fill="#000000" fill-rule="evenodd" fill-opacity="1" /><path clip-path="url(#clip630)" d="M81.9294 749.091 Q81.6073 749.091 80.8022 748.254 Q69.981 737.626 49.5947 737.626 Q29.144 737.626 18.8059 747.835 Q17.6143 749.091 17.26 749.091 Q16.6159 749.091 16.6159 748.447 Q16.6159 747.996 17.9363 746.418 Q19.2568 744.808 22.2841 742.393 Q25.3115 739.945 29.0151 738.141 Q38.0006 733.794 49.5947 733.794 Q60.7379 733.794 69.7234 737.948 Q73.4914 739.719 76.6476 742.199 Q79.8038 744.679 81.1886 746.322 Q82.5735 747.964 82.5735 748.447 Q82.5735 749.091 81.9294 749.091 Z" fill="#000000" fill-rule="evenodd" fill-opacity="1" /><path clip-path="url(#clip630)" d="M871.976 12.096 L882.994 12.096 L909.811 62.6918 L909.811 12.096 L917.751 12.096 L917.751 72.576 L906.733 72.576 L879.916 21.9802 L879.916 72.576 L871.976 72.576 L871.976 12.096 Z" fill="#000000" fill-rule="evenodd" fill-opacity="1" /><path clip-path="url(#clip630)" d="M932.942 54.671 L932.942 27.2059 L940.396 27.2059 L940.396 54.3874 Q940.396 60.8284 942.907 64.0691 Q945.419 67.2693 950.442 67.2693 Q956.478 67.2693 959.962 63.421 Q963.486 59.5726 963.486 52.9291 L963.486 27.2059 L970.94 27.2059 L970.94 72.576 L963.486 72.576 L963.486 65.6084 Q960.772 69.7404 957.166 71.7658 Q953.602 73.7508 948.862 73.7508 Q941.044 73.7508 936.993 68.8897 Q932.942 64.0286 932.942 54.671 M951.698 26.1121 L951.698 26.1121 Z" fill="#000000" fill-rule="evenodd" fill-opacity="1" /><path clip-path="url(#clip630)" d="M1021.62 35.9153 Q1024.41 30.8922 1028.3 28.5022 Q1032.19 26.1121 1037.46 26.1121 Q1044.54 26.1121 1048.39 31.0947 Q1052.24 36.0368 1052.24 45.1919 L1052.24 72.576 L1044.75 72.576 L1044.75 45.4349 Q1044.75 38.913 1042.44 35.7533 Q1040.13 32.5936 1035.39 32.5936 Q1029.6 32.5936 1026.23 36.4419 Q1022.87 40.2903 1022.87 46.9338 L1022.87 72.576 L1015.38 72.576 L1015.38 45.4349 Q1015.38 38.8725 1013.07 35.7533 Q1010.76 32.5936 1005.94 32.5936 Q1000.23 32.5936 996.865 36.4824 Q993.503 40.3308 993.503 46.9338 L993.503 72.576 L986.009 72.576 L986.009 27.2059 L993.503 27.2059 L993.503 34.2544 Q996.055 30.082 999.62 28.0971 Q1003.18 26.1121 1008.09 26.1121 Q1013.03 26.1121 1016.47 28.6237 Q1019.96 31.1352 1021.62 35.9153 Z" fill="#000000" fill-rule="evenodd" fill-opacity="1" /><path clip-path="url(#clip630)" d="M1099.68 49.9314 Q1099.68 41.7081 1096.27 37.0496 Q1092.91 32.3505 1087 32.3505 Q1081.08 32.3505 1077.68 37.0496 Q1074.32 41.7081 1074.32 49.9314 Q1074.32 58.1548 1077.68 62.8538 Q1081.08 67.5124 1087 67.5124 Q1092.91 67.5124 1096.27 62.8538 Q1099.68 58.1548 1099.68 49.9314 M1074.32 34.0924 Q1076.67 30.0415 1080.23 28.0971 Q1083.84 26.1121 1088.82 26.1121 Q1097.08 26.1121 1102.23 32.6746 Q1107.41 39.2371 1107.41 49.9314 Q1107.41 60.6258 1102.23 67.1883 Q1097.08 73.7508 1088.82 73.7508 Q1083.84 73.7508 1080.23 71.8063 Q1076.67 69.8214 1074.32 65.7705 L1074.32 72.576 L1066.82 72.576 L1066.82 9.54393 L1074.32 9.54393 L1074.32 34.0924 Z" fill="#000000" fill-rule="evenodd" fill-opacity="1" /><path clip-path="url(#clip630)" d="M1158.58 48.0275 L1158.58 51.6733 L1124.31 51.6733 Q1124.79 59.3701 1128.92 63.421 Q1133.1 67.4314 1140.51 67.4314 Q1144.8 67.4314 1148.81 66.3781 Q1152.87 65.3249 1156.84 63.2184 L1156.84 70.267 Q1152.83 71.9684 1148.61 72.8596 Q1144.4 73.7508 1140.06 73.7508 Q1129.21 73.7508 1122.85 67.4314 Q1116.53 61.1119 1116.53 50.3365 Q1116.53 39.1965 1122.52 32.6746 Q1128.56 26.1121 1138.77 26.1121 Q1147.92 26.1121 1153.23 32.0264 Q1158.58 37.9003 1158.58 48.0275 M1151.12 45.84 Q1151.04 39.7232 1147.68 36.0774 Q1144.36 32.4315 1138.85 32.4315 Q1132.61 32.4315 1128.84 35.9558 Q1125.12 39.4801 1124.55 45.8805 L1151.12 45.84 Z" fill="#000000" fill-rule="evenodd" fill-opacity="1" /><path clip-path="url(#clip630)" d="M1197.1 34.1734 Q1195.85 33.4443 1194.35 33.1202 Q1192.89 32.7556 1191.11 32.7556 Q1184.79 32.7556 1181.38 36.8875 Q1178.02 40.9789 1178.02 48.6757 L1178.02 72.576 L1170.53 72.576 L1170.53 27.2059 L1178.02 27.2059 L1178.02 34.2544 Q1180.37 30.1225 1184.14 28.1376 Q1187.91 26.1121 1193.29 26.1121 Q1194.06 26.1121 1195 26.2337 Q1195.93 26.3147 1197.06 26.5172 L1197.1 34.1734 Z" fill="#000000" fill-rule="evenodd" fill-opacity="1" /><path clip-path="url(#clip630)" d="M1248.87 32.4315 Q1242.88 32.4315 1239.39 37.1306 Q1235.91 41.7891 1235.91 49.9314 Q1235.91 58.0738 1239.35 62.7728 Q1242.84 67.4314 1248.87 67.4314 Q1254.83 67.4314 1258.31 62.7323 Q1261.79 58.0333 1261.79 49.9314 Q1261.79 41.8701 1258.31 37.1711 Q1254.83 32.4315 1248.87 32.4315 M1248.87 26.1121 Q1258.59 26.1121 1264.14 32.4315 Q1269.69 38.7509 1269.69 49.9314 Q1269.69 61.0714 1264.14 67.4314 Q1258.59 73.7508 1248.87 73.7508 Q1239.11 73.7508 1233.56 67.4314 Q1228.05 61.0714 1228.05 49.9314 Q1228.05 38.7509 1233.56 32.4315 Q1239.11 26.1121 1248.87 26.1121 Z" fill="#000000" fill-rule="evenodd" fill-opacity="1" /><path clip-path="url(#clip630)" d="M1305.02 9.54393 L1305.02 15.7418 L1297.89 15.7418 Q1293.88 15.7418 1292.3 17.3622 Q1290.76 18.9825 1290.76 23.1955 L1290.76 27.2059 L1303.03 27.2059 L1303.03 32.9987 L1290.76 32.9987 L1290.76 72.576 L1283.26 72.576 L1283.26 32.9987 L1276.13 32.9987 L1276.13 27.2059 L1283.26 27.2059 L1283.26 24.0462 Q1283.26 16.471 1286.79 13.0277 Q1290.31 9.54393 1297.97 9.54393 L1305.02 9.54393 Z" fill="#000000" fill-rule="evenodd" fill-opacity="1" /><path clip-path="url(#clip630)" d="M1337.95 12.096 L1346.13 12.096 L1346.13 72.576 L1337.95 72.576 L1337.95 12.096 Z" fill="#000000" fill-rule="evenodd" fill-opacity="1" /><path clip-path="url(#clip630)" d="M1399.81 45.1919 L1399.81 72.576 L1392.36 72.576 L1392.36 45.4349 Q1392.36 38.994 1389.84 35.7938 Q1387.33 32.5936 1382.31 32.5936 Q1376.27 32.5936 1372.79 36.4419 Q1369.31 40.2903 1369.31 46.9338 L1369.31 72.576 L1361.81 72.576 L1361.81 27.2059 L1369.31 27.2059 L1369.31 34.2544 Q1371.98 30.163 1375.58 28.1376 Q1379.23 26.1121 1383.97 26.1121 Q1391.79 26.1121 1395.8 30.9732 Q1399.81 35.7938 1399.81 45.1919 Z" fill="#000000" fill-rule="evenodd" fill-opacity="1" /><path clip-path="url(#clip630)" d="M1437.64 9.54393 L1437.64 15.7418 L1430.51 15.7418 Q1426.5 15.7418 1424.92 17.3622 Q1423.39 18.9825 1423.39 23.1955 L1423.39 27.2059 L1435.66 27.2059 L1435.66 32.9987 L1423.39 32.9987 L1423.39 72.576 L1415.89 72.576 L1415.89 32.9987 L1408.76 32.9987 L1408.76 27.2059 L1415.89 27.2059 L1415.89 24.0462 Q1415.89 16.471 1419.42 13.0277 Q1422.94 9.54393 1430.6 9.54393 L1437.64 9.54393 Z" fill="#000000" fill-rule="evenodd" fill-opacity="1" /><path clip-path="url(#clip630)" d="M1482.69 48.0275 L1482.69 51.6733 L1448.42 51.6733 Q1448.91 59.3701 1453.04 63.421 Q1457.21 67.4314 1464.62 67.4314 Q1468.92 67.4314 1472.93 66.3781 Q1476.98 65.3249 1480.95 63.2184 L1480.95 70.267 Q1476.94 71.9684 1472.73 72.8596 Q1468.51 73.7508 1464.18 73.7508 Q1453.32 73.7508 1446.96 67.4314 Q1440.64 61.1119 1440.64 50.3365 Q1440.64 39.1965 1446.64 32.6746 Q1452.67 26.1121 1462.88 26.1121 Q1472.04 26.1121 1477.34 32.0264 Q1482.69 37.9003 1482.69 48.0275 M1475.24 45.84 Q1475.16 39.7232 1471.79 36.0774 Q1468.47 32.4315 1462.96 32.4315 Q1456.72 32.4315 1452.96 35.9558 Q1449.23 39.4801 1448.66 45.8805 L1475.24 45.84 Z" fill="#000000" fill-rule="evenodd" fill-opacity="1" /><path clip-path="url(#clip630)" d="M1527.57 28.9478 L1527.57 35.9153 Q1524.41 34.1734 1521.21 33.3227 Q1518.05 32.4315 1514.81 32.4315 Q1507.56 32.4315 1503.55 37.0496 Q1499.54 41.6271 1499.54 49.9314 Q1499.54 58.2358 1503.55 62.8538 Q1507.56 67.4314 1514.81 67.4314 Q1518.05 67.4314 1521.21 66.5807 Q1524.41 65.6895 1527.57 63.9476 L1527.57 70.8341 Q1524.46 72.2924 1521.09 73.0216 Q1517.77 73.7508 1514 73.7508 Q1503.75 73.7508 1497.72 67.3098 Q1491.68 60.8689 1491.68 49.9314 Q1491.68 38.832 1497.76 32.472 Q1503.88 26.1121 1514.49 26.1121 Q1517.93 26.1121 1521.21 26.8413 Q1524.5 27.5299 1527.57 28.9478 Z" fill="#000000" fill-rule="evenodd" fill-opacity="1" /><path clip-path="url(#clip630)" d="M1547.91 14.324 L1547.91 27.2059 L1563.26 27.2059 L1563.26 32.9987 L1547.91 32.9987 L1547.91 57.6282 Q1547.91 63.1779 1549.41 64.7578 Q1550.95 66.3376 1555.61 66.3376 L1563.26 66.3376 L1563.26 72.576 L1555.61 72.576 Q1546.98 72.576 1543.7 69.3758 Q1540.42 66.1351 1540.42 57.6282 L1540.42 32.9987 L1534.95 32.9987 L1534.95 27.2059 L1540.42 27.2059 L1540.42 14.324 L1547.91 14.324 Z" fill="#000000" fill-rule="evenodd" fill-opacity="1" /><path clip-path="url(#clip630)" d="M1573.07 27.2059 L1580.52 27.2059 L1580.52 72.576 L1573.07 72.576 L1573.07 27.2059 M1573.07 9.54393 L1580.52 9.54393 L1580.52 18.9825 L1573.07 18.9825 L1573.07 9.54393 Z" fill="#000000" fill-rule="evenodd" fill-opacity="1" /><path clip-path="url(#clip630)" d="M1613.7 32.4315 Q1607.7 32.4315 1604.22 37.1306 Q1600.73 41.7891 1600.73 49.9314 Q1600.73 58.0738 1604.18 62.7728 Q1607.66 67.4314 1613.7 67.4314 Q1619.65 67.4314 1623.14 62.7323 Q1626.62 58.0333 1626.62 49.9314 Q1626.62 41.8701 1623.14 37.1711 Q1619.65 32.4315 1613.7 32.4315 M1613.7 26.1121 Q1623.42 26.1121 1628.97 32.4315 Q1634.52 38.7509 1634.52 49.9314 Q1634.52 61.0714 1628.97 67.4314 Q1623.42 73.7508 1613.7 73.7508 Q1603.93 73.7508 1598.38 67.4314 Q1592.87 61.0714 1592.87 49.9314 Q1592.87 38.7509 1598.38 32.4315 Q1603.93 26.1121 1613.7 26.1121 Z" fill="#000000" fill-rule="evenodd" fill-opacity="1" /><path clip-path="url(#clip630)" d="M1684.59 45.1919 L1684.59 72.576 L1677.13 72.576 L1677.13 45.4349 Q1677.13 38.994 1674.62 35.7938 Q1672.11 32.5936 1667.09 32.5936 Q1661.05 32.5936 1657.57 36.4419 Q1654.08 40.2903 1654.08 46.9338 L1654.08 72.576 L1646.59 72.576 L1646.59 27.2059 L1654.08 27.2059 L1654.08 34.2544 Q1656.76 30.163 1660.36 28.1376 Q1664.01 26.1121 1668.75 26.1121 Q1676.57 26.1121 1680.58 30.9732 Q1684.59 35.7938 1684.59 45.1919 Z" fill="#000000" fill-rule="evenodd" fill-opacity="1" /><path clip-path="url(#clip630)" d="M1728.38 28.5427 L1728.38 35.5912 Q1725.22 33.9709 1721.82 33.1607 Q1718.41 32.3505 1714.77 32.3505 Q1709.22 32.3505 1706.42 34.0519 Q1703.67 35.7533 1703.67 39.156 Q1703.67 41.7486 1705.65 43.2475 Q1707.64 44.7058 1713.63 46.0426 L1716.18 46.6097 Q1724.12 48.3111 1727.45 51.4303 Q1730.81 54.509 1730.81 60.0587 Q1730.81 66.3781 1725.79 70.0644 Q1720.8 73.7508 1712.05 73.7508 Q1708.41 73.7508 1704.44 73.0216 Q1700.51 72.3329 1696.13 70.9151 L1696.13 63.2184 Q1700.26 65.3654 1704.27 66.4591 Q1708.29 67.5124 1712.21 67.5124 Q1717.48 67.5124 1720.32 65.73 Q1723.15 63.9071 1723.15 60.6258 Q1723.15 57.5877 1721.09 55.9673 Q1719.06 54.3469 1712.13 52.8481 L1709.54 52.2405 Q1702.61 50.7821 1699.54 47.7845 Q1696.46 44.7463 1696.46 39.4801 Q1696.46 33.0797 1700.99 29.5959 Q1705.53 26.1121 1713.88 26.1121 Q1718.01 26.1121 1721.65 26.7198 Q1725.3 27.3274 1728.38 28.5427 Z" fill="#000000" fill-rule="evenodd" fill-opacity="1" /><polyline clip-path="url(#clip632)" style="stroke:#009af9; stroke-linecap:round; stroke-linejoin:round; stroke-width:4; stroke-opacity:1; fill:none" points="
  250.028,1386.21 250.085,1386.21 250.098,1386.21 250.113,1386.21 250.131,1386.21 250.15,1386.21 250.172,1386.21 250.196,1386.21 250.223,1386.21 250.254,1386.21 
  250.289,1386.21 250.328,1386.21 250.372,1386.22 250.422,1386.22 250.477,1386.22 250.54,1386.22 250.611,1386.22 250.69,1386.22 250.779,1386.22 250.879,1386.22 
  250.992,1386.22 251.119,1386.22 251.262,1386.22 251.423,1386.23 251.604,1386.23 251.807,1386.23 252.034,1386.23 252.282,1386.23 252.55,1386.24 252.837,1386.24 
  253.141,1386.24 253.463,1386.24 253.799,1386.25 254.148,1386.25 254.508,1386.25 254.876,1386.25 255.253,1386.26 255.64,1386.26 256.037,1386.26 256.441,1386.27 
  256.849,1386.27 257.261,1386.27 257.676,1386.28 258.092,1386.28 258.517,1386.28 258.948,1386.29 259.385,1386.29 259.829,1386.29 260.278,1386.29 260.734,1386.3 
  261.198,1386.3 261.668,1386.3 262.145,1386.31 262.628,1386.31 263.116,1386.31 263.611,1386.31 264.11,1386.32 264.617,1386.32 265.132,1386.32 265.654,1386.32 
  266.186,1386.33 266.729,1386.33 267.282,1386.33 267.842,1386.33 268.409,1386.34 268.984,1386.34 269.568,1386.34 270.168,1386.34 270.777,1386.34 271.392,1386.35 
  272.022,1386.35 272.662,1386.35 273.32,1386.35 273.997,1386.35 274.688,1386.35 275.393,1386.35 276.111,1386.35 276.843,1386.36 277.587,1386.36 278.343,1386.36 
  279.113,1386.36 279.89,1386.36 280.679,1386.36 281.482,1386.36 282.302,1386.36 283.127,1386.36 283.961,1386.36 284.8,1386.36 285.659,1386.36 286.531,1386.36 
  287.413,1386.36 288.31,1386.36 289.214,1386.36 290.121,1386.36 291.027,1386.36 291.935,1386.36 292.835,1386.36 293.731,1386.36 294.632,1386.36 295.525,1386.36 
  296.413,1386.36 297.311,1386.36 298.227,1386.36 299.149,1386.36 300.068,1386.36 300.988,1386.36 301.896,1386.36 302.795,1386.36 303.692,1386.36 304.6,1386.36 
  305.523,1386.36 306.458,1386.36 307.416,1386.36 308.386,1386.36 309.361,1386.36 310.34,1386.36 311.338,1386.36 312.355,1386.36 313.383,1386.36 314.421,1386.35 
  315.47,1386.35 316.542,1386.35 317.639,1386.35 318.748,1386.35 319.883,1386.34 321.065,1386.34 322.279,1386.34 323.529,1386.33 324.813,1386.33 326.161,1386.32 
  327.56,1386.32 328.965,1386.31 330.408,1386.31 331.876,1386.3 333.347,1386.3 334.804,1386.29 336.282,1386.29 337.809,1386.28 339.369,1386.27 340.946,1386.26 
  342.628,1386.25 344.384,1386.24 346.236,1386.23 348.137,1386.22 350.163,1386.21 352.246,1386.19 354.399,1386.18 356.479,1386.17 358.676,1386.15 360.953,1386.13 
  363.309,1386.11 365.96,1386.09 368.942,1386.05 372.296,1386.01 376.07,1385.96 380.316,1385.91 384.211,1385.85 388.593,1385.79 393.523,1385.71 399.069,1385.63 
  404.393,1385.54 410.382,1385.43 417.119,1385.3 422.945,1385.2 428.986,1385.09 434.058,1385 439.764,1384.88 446.183,1384.75 453.133,1384.63 457.966,1384.54 
  463.056,1384.42 468.782,1384.28 475.02,1384.11 482.038,1383.88 489.933,1383.61 498.814,1383.28 506.652,1382.98 515.469,1382.62 522.807,1382.28 531.062,1381.86 
  538.489,1381.42 545.495,1381.02 553.377,1380.58 562.243,1380.06 570.432,1379.53 579.194,1378.94 589.052,1378.23 595.552,1377.7 602.865,1376.94 608.662,1376.3 
  614.51,1375.66 621.089,1374.97 628.49,1374.24 633.605,1373.72 638.46,1373.24 643.406,1372.79 647.916,1372.4 651.998,1372 656.559,1371.54 660.948,1371.1 
  665.152,1370.63 669.881,1370.09 674.427,1369.53 679.541,1368.87 684.741,1368.11 690.591,1367.32 695.887,1366.67 700.244,1366.19 704.157,1365.73 708.029,1365.22 
  711.926,1364.65 716.309,1363.88 721.24,1362.94 726.788,1361.82 733.029,1360.43 740.051,1358.69 747.95,1356.64 756.836,1354.39 762.76,1352.93 769.425,1351.44 
  774.604,1350.2 779.719,1348.8 785.472,1347.18 791.945,1345.19 798.897,1342.96 805.045,1340.77 811.963,1338.15 819.379,1334.69 827.723,1330.7 837.109,1325.88 
  847.669,1320.44 859.548,1313.98 868.891,1307.98 879.401,1300.09 889.087,1292.13 899.984,1282.97 912.243,1271.85 926.012,1259.31 939.012,1247.33 948.096,1238.5 
  957.621,1229.7 964.239,1223.72 970.248,1217.48 976.941,1210.16 983.315,1203.21 989.439,1196.81 994.939,1191.08 999.97,1185.19 1005.22,1178.2 1011.13,1170.09 
  1017.04,1161.19 1023.28,1151.61 1029.86,1141.52 1035.78,1132.9 1041.97,1123.08 1047.58,1114.18 1053.22,1104.58 1059.25,1094.61 1064.63,1085.81 1070,1076.19 
  1075.5,1064.65 1081.68,1052.13 1087.62,1038.44 1094.23,1022.4 1101.04,1003.36 1108.24,981.182 1115.14,958.212 1121.81,934.954 1128.4,907.413 1134.19,881.166 
  1139.36,857.235 1144.38,833.968 1149.19,812.404 1154.12,790.941 1159.28,768.497 1164.28,745.745 1169.3,722.783 1174.28,699.41 1179.09,676.688 1183.87,653.882 
  1188.74,629.511 1193.35,603.327 1197.65,578.574 1201.78,555.985 1206.02,532.638 1210.1,510.808 1214.14,491.34 1218.3,472.883 1222.41,455.688 1226.47,438.954 
  1230.5,422.718 1234.47,407.294 1238.4,391.978 1242.3,376.59 1246.13,360.81 1249.95,343.483 1253.75,326.165 1257.51,307.968 1261.21,288.969 1264.83,273.329 
  1268.45,260.228 1272.03,246.904 1275.57,232.831 1279.11,221.647 1282.58,212.066 1285.93,204.998 1289.18,198.049 1292.34,192.189 1295.46,188.515 1298.41,186.494 
  1301.16,184.947 1303.84,182.866 1306.47,180.902 1309.08,179.269 1311.64,176.404 1314.3,175.268 1316.83,173.911 1319.34,171.956 1321.9,170.502 1324.45,169.56 
  1326.96,168.267 1329.48,166.422 1332.09,164.949 1334.72,163.937 1337.29,162.202 1339.94,161.165 1342.59,160.714 1345.16,160.99 1347.73,160.798 1350.32,160.256 
  1352.97,160.959 1355.52,162 1358.07,164.293 1360.52,167.592 1362.84,171.409 1365.07,175.266 1367.25,178.912 1369.4,182.003 1371.57,184.968 1373.74,187.849 
  1375.92,190.425 1378.13,193.127 1380.37,196.343 1382.6,200.274 1384.76,204.315 1386.88,208.256 1389.01,212.207 1391.15,216.733 1393.21,220.463 1395.33,224.047 
  1397.47,227.639 1399.63,231.655 1401.81,235.132 1404.03,237.96 1406.36,241.391 1408.75,244.718 1411.11,247.824 1413.57,250.821 1416.09,254.072 1418.65,257.804 
  1421.21,261.933 1423.77,266.429 1426.34,270.749 1428.9,275.423 1431.48,280.75 1434.01,285.596 1436.55,289.741 1439.23,294.086 1441.91,298.681 1444.68,304.703 
  1447.28,310.867 1449.78,316.076 1452.42,321.833 1454.99,327.177 1457.63,333.435 1460.24,339.801 1462.75,346.204 1465.28,352.701 1467.75,359.402 1470.24,365.865 
  1472.71,372.276 1475.19,378.333 1477.7,383.473 1480.37,388.731 1483.18,394.631 1486,399.312 1489.05,404.113 1492.3,409.909 1495.6,416.631 1498.81,423.465 
  1502.01,430.53 1505.21,437.965 1508.39,445.053 1511.63,451.907 1514.96,459.182 1518.37,467.251 1521.59,473.973 1525.04,480.717 1528.76,487.537 1532.57,494.178 
  1536.51,500.648 1540.75,507.881 1545.08,514.644 1549.61,520.922 1554.37,528.255 1559.22,535.815 1564.23,544.819 1569.3,554.681 1574.43,565.724 1579.52,577.834 
  1584.25,588.439 1588.99,598.315 1593.97,609.601 1599.02,622.408 1603.63,634.317 1608.24,646.702 1612.52,657.949 1616.75,669.484 1620.81,680.853 1624.76,692.802 
  1628.14,702.679 1631.51,712 1634.97,721.084 1638.44,730.691 1641.81,740.083 1645.03,748.902 1648.24,757.555 1651.4,766.655 1654.38,775.963 1657.03,784.07 
  1659.61,791.647 1662.16,798.702 1664.78,806.052 1667.31,812.95 1669.81,819.568 1672.43,826.265 1675.08,832.715 1677.86,839.665 1680.66,846.621 1683.39,853.653 
  1686.09,860.902 1688.6,867.59 1691.07,873.818 1693.6,879.87 1696.21,886.383 1698.78,892.672 1701.29,898.304 1704.06,904.208 1707.01,910.364 1710.08,916.945 
  1713.19,923.628 1716.16,929.494 1719.5,935.452 1723.25,941.485 1727.47,948.531 1732.01,956.597 1736.38,964.89 1740.38,973.167 1743.85,980.511 1747.09,987.063 
  1750.35,993.222 1753.69,999.506 1757.05,1005.28 1760.63,1011.16 1764.65,1018.27 1768.06,1024.02 1771.81,1029.7 1776.03,1036.11 1780.6,1042.79 1785.3,1049.46 
  1790.42,1056.1 1796.17,1062.89 1802.65,1071.04 1809.77,1079.2 1817.78,1087.46 1826.62,1096.71 1836.06,1105.59 1844.4,1112.99 1853.65,1122.66 1864.06,1133.5 
  1875.33,1143.94 1888,1155.07 1902.02,1166.68 1913.19,1174.75 1923.77,1181.33 1930.95,1185.4 1937.65,1189.2 1943.84,1193.03 1950.3,1196.87 1956.45,1200.6 
  1962.48,1204.59 1969.26,1208.9 1976.07,1213.55 1983.72,1218.48 1992.33,1223.46 1999.4,1227.49 2006.27,1231.55 2013.99,1235.65 2020.99,1239.38 2028.05,1242.8 
  2034.79,1245.74 2040.55,1248.3 2046,1251.2 2052.13,1254.31 2059.03,1257.6 2065.47,1260.34 2071.42,1262.59 2076.47,1264.62 2081.68,1266.6 2086.7,1268.57 
  2091.72,1270.39 2096.36,1272.09 2101.05,1273.87 2105.65,1275.62 2110.66,1277.24 2114.91,1278.5 2118.89,1279.67 2122.7,1280.78 2126.34,1281.94 2130.11,1283.25 
  2134.11,1284.62 2138.28,1286.04 2142.43,1287.35 2146.42,1288.75 2150.87,1290.33 2155.87,1292.06 2160.63,1293.7 2165.55,1295.35 2170.55,1297.07 2176.03,1299.1 
  2182.19,1301.47 2189.12,1304.23 2196.91,1307.28 2205.24,1310.41 2213.67,1313.34 2223.15,1316.69 2233.82,1320.38 2241.07,1322.79 2249.23,1325.35 2258.41,1328.25 
  2265.46,1330.58 2271.07,1332.38 2276.45,1333.98 2282.18,1335.65 2287.73,1337.2 2293.23,1338.68 2299.09,1340.14 2305.33,1341.51 2312.35,1342.88 2319.86,1344.38 
  2328.31,1345.88 2336.22,1347.25 2344.61,1348.72 2352.76,1350.17 
  "/>
<polyline clip-path="url(#clip632)" style="stroke:#e26f46; stroke-linecap:round; stroke-linejoin:round; stroke-width:4; stroke-opacity:1; fill:none" points="
  250.028,1386.21 250.085,1386.21 250.098,1386.21 250.113,1386.21 250.131,1386.21 250.15,1386.21 250.171,1386.21 250.196,1386.21 250.223,1386.21 250.254,1386.21 
  250.289,1386.21 250.328,1386.21 250.372,1386.22 250.421,1386.22 250.477,1386.22 250.539,1386.22 250.61,1386.22 250.689,1386.22 250.778,1386.22 250.878,1386.22 
  250.991,1386.22 251.118,1386.22 251.26,1386.22 251.421,1386.23 251.602,1386.23 251.805,1386.23 252.029,1386.23 252.274,1386.23 252.538,1386.24 252.819,1386.24 
  253.115,1386.24 253.424,1386.24 253.748,1386.25 254.083,1386.25 254.428,1386.25 254.781,1386.26 255.143,1386.26 255.514,1386.26 255.893,1386.27 256.281,1386.27 
  256.677,1386.27 257.08,1386.27 257.489,1386.28 257.902,1386.28 258.32,1386.28 258.742,1386.29 259.168,1386.29 259.599,1386.29 260.038,1386.3 260.484,1386.3 
  260.937,1386.3 261.397,1386.3 261.861,1386.31 262.332,1386.31 262.807,1386.31 263.284,1386.32 263.765,1386.32 264.244,1386.32 264.725,1386.33 265.208,1386.33 
  265.691,1386.33 266.178,1386.33 266.668,1386.34 267.165,1386.34 267.671,1386.34 268.181,1386.35 268.692,1386.35 269.213,1386.35 269.737,1386.35 270.266,1386.36 
  270.803,1386.36 271.342,1386.36 271.89,1386.36 272.446,1386.36 273.009,1386.37 273.581,1386.37 274.165,1386.37 274.762,1386.37 275.37,1386.37 275.993,1386.38 
  276.63,1386.38 277.275,1386.38 277.929,1386.38 278.598,1386.38 279.277,1386.38 279.964,1386.38 280.661,1386.39 281.371,1386.39 282.094,1386.39 282.828,1386.39 
  283.569,1386.39 284.318,1386.39 285.081,1386.39 285.855,1386.39 286.641,1386.39 287.445,1386.39 288.253,1386.39 289.087,1386.39 289.937,1386.39 290.79,1386.39 
  291.647,1386.39 292.525,1386.39 293.414,1386.39 294.318,1386.39 295.234,1386.39 296.159,1386.39 297.084,1386.39 298.016,1386.39 298.925,1386.39 299.841,1386.39 
  300.766,1386.39 301.701,1386.39 302.613,1386.39 303.521,1386.39 304.425,1386.4 305.327,1386.4 306.233,1386.4 307.144,1386.4 308.052,1386.4 308.97,1386.4 
  309.901,1386.4 310.84,1386.39 311.804,1386.39 312.79,1386.39 313.797,1386.39 314.822,1386.39 315.86,1386.39 316.922,1386.39 318.003,1386.38 319.1,1386.38 
  320.198,1386.38 321.304,1386.38 322.43,1386.38 323.563,1386.38 324.705,1386.37 325.838,1386.37 326.981,1386.37 328.13,1386.37 329.286,1386.37 330.44,1386.36 
  331.597,1386.36 332.785,1386.36 334.003,1386.35 335.242,1386.35 336.512,1386.35 337.824,1386.34 339.209,1386.34 340.627,1386.33 342.114,1386.33 343.59,1386.32 
  345.087,1386.31 346.599,1386.31 348.082,1386.3 349.587,1386.3 351.128,1386.29 352.75,1386.28 354.403,1386.27 356.073,1386.27 357.765,1386.26 359.532,1386.25 
  361.403,1386.24 363.392,1386.22 365.43,1386.21 367.465,1386.2 369.555,1386.18 371.753,1386.17 374.127,1386.15 376.487,1386.13 378.927,1386.11 381.385,1386.09 
  384.001,1386.07 386.695,1386.05 389.376,1386.03 392.06,1386.01 394.61,1385.99 397.048,1385.98 399.409,1385.96 401.763,1385.94 403.983,1385.93 406.182,1385.92 
  408.27,1385.9 410.345,1385.89 412.432,1385.88 414.462,1385.86 416.537,1385.85 418.725,1385.83 420.947,1385.81 423.21,1385.79 425.703,1385.76 428.348,1385.73 
  431.165,1385.7 434.179,1385.67 437.007,1385.64 439.867,1385.61 442.774,1385.57 446.045,1385.53 449.457,1385.49 452.778,1385.44 456.514,1385.38 460.717,1385.31 
  465.445,1385.23 470.397,1385.15 474.889,1385.07 479.941,1384.98 485.028,1384.88 490.751,1384.77 496.533,1384.65 502.453,1384.53 508.162,1384.4 514.334,1384.23 
  521.277,1384.02 529.088,1383.74 536.927,1383.46 545.103,1383.16 554.302,1382.77 564.65,1382.31 575.062,1381.78 586.776,1381.17 599.955,1380.4 610.259,1379.79 
  620.368,1379.11 631.74,1378.2 644.533,1376.87 652.092,1376.03 659.754,1375.2 668.374,1374.27 678.072,1373.19 683.894,1372.5 690.444,1371.78 695.671,1371.14 
  701.552,1370.28 708.168,1369.32 715.611,1368.23 722.123,1367.3 728.439,1366.28 735.234,1365.05 742.878,1363.54 751.478,1361.69 761.153,1359.4 772.037,1356.56 
  784.281,1352.71 792.557,1349.7 800.346,1346.76 808.277,1343.4 817.2,1339.55 825.259,1336.28 834.325,1332.43 843.011,1328.76 849.779,1326.39 854.544,1324.74 
  859.085,1323.07 863.793,1321.61 867.726,1320.36 871.425,1319.1 874.964,1317.85 878.484,1316.57 881.902,1315.39 885.106,1314.22 888.33,1313.03 891.466,1311.67 
  894.784,1310.22 898.172,1308.75 901.566,1307.05 905.31,1305.02 909.523,1302.36 914.262,1299.25 919.594,1295.36 925.592,1290.54 932.339,1284.53 939.098,1277.71 
  946.113,1270.68 953.973,1261.89 962.465,1250.44 968.927,1240.98 975.494,1230.69 981.679,1220.23 987.225,1209.26 991.972,1199.01 996.218,1190 1000.64,1180.47 
  1004.94,1170.86 1009.41,1160.05 1013.67,1149.06 1017.63,1138.66 1021.75,1127.4 1025.84,1116.79 1029.94,1106.14 1034.55,1093.34 1038.84,1081.26 1043.29,1068.53 
  1048.31,1054.26 1053.36,1039.92 1059.04,1023.24 1064.94,1006.85 1071.26,988.826 1077.79,966.717 1084.16,943.403 1089.99,920.506 1095.54,899.278 1101.33,877.625 
  1107.24,855.336 1113.31,830.899 1119.07,808.227 1124.99,783.812 1130.76,761.838 1136.51,740.78 1141.92,720.624 1147.43,700.781 1152.64,684.738 1157.5,669.473 
  1162.03,654.288 1166.66,637.22 1171.31,620.483 1175.82,606.543 1180.14,593.179 1184.15,579.151 1188.31,565.341 1192.39,552.317 1196.27,539.683 1200.19,527.107 
  1204.05,514.718 1207.85,504.825 1211.37,496.226 1214.76,488.977 1217.95,481.625 1221.14,473.907 1224.28,465.77 1227.46,456.225 1230.74,444.432 1234.21,432.711 
  1237.68,423.206 1241.03,414.033 1244.4,404.109 1247.78,394.008 1251.25,384.767 1254.54,376.144 1257.89,368.36 1261.16,361.771 1264.29,355.222 1267.4,347.959 
  1270.55,340.837 1273.7,334.532 1276.74,328.669 1279.83,322.836 1282.85,317.495 1285.87,314.208 1288.7,312.018 1291.41,310.331 1294.01,308.448 1296.64,306.606 
  1299.23,304.814 1301.76,302.83 1304.31,300.427 1306.9,296.915 1309.6,293.764 1312.32,290.901 1315.04,287.992 1317.76,285.688 1320.5,283.636 1323.19,281.286 
  1325.93,278.35 1328.76,275.839 1331.58,273.613 1334.41,271.536 1337.26,271.016 1340.04,270.442 1342.71,267.346 1345.7,262.307 1348.82,258.063 1351.94,253.017 
  1355.19,248.973 1358.46,245.771 1361.72,243.256 1364.98,241.863 1368.17,241.452 1371.32,241.18 1374.45,241.287 1377.57,239.915 1380.8,238.136 1384.11,237.893 
  1387.38,238.194 1390.58,238.158 1393.87,237.683 1397.22,237.444 1400.6,237.558 1404,237.563 1407.43,237.728 1410.9,238.487 1414.35,239.464 1417.88,243.316 
  1421.16,247.544 1424.35,252.275 1427.45,257.401 1430.51,262.067 1433.5,267.585 1436.42,274.365 1439.15,280.95 1441.79,286.325 1444.49,291.332 1447.28,297.587 
  1449.94,303.692 1452.56,308.521 1455.32,313.644 1458.15,318.419 1461.03,323.063 1464.05,327.943 1467.05,332.71 1470.25,339.245 1473.26,346.078 1476.22,353.598 
  1479.02,360.261 1481.91,367.463 1484.73,374.247 1487.57,381.786 1490.33,388.716 1493.13,394.847 1496.04,400.642 1499.16,406.8 1502.34,413.895 1505.49,421.703 
  1508.57,429.783 1511.52,437.568 1514.5,444.726 1517.57,451.769 1520.75,458.594 1524.12,465.988 1527.5,473.703 1530.9,481.976 1534.28,489.773 1537.74,497.32 
  1541.36,505.362 1545,513.742 1548.71,522.671 1552.28,530.991 1556,540.039 1559.75,548.999 1563.46,557.706 1567.32,565.598 1571.4,574.381 1575.59,583.745 
  1579.75,594.262 1583.77,604.357 1587.64,613.665 1591.67,623.205 1595.88,632.268 1600.16,640.542 1604.98,651.484 1609.56,663.267 1613.75,675.338 1617.48,686.635 
  1620.9,696.317 1624.33,706.019 1627.64,714.969 1630.89,722.627 1634.55,730.67 1638.42,739.334 1642.42,748.284 1646.51,757.096 1650.87,766.894 1655.24,776.498 
  1659.68,785.795 1664.36,795.657 1669.26,805.428 1674.65,815.152 1680.47,825.541 1686.94,837.612 1693.51,850.038 1699.88,861.711 1706.7,872.591 1714.38,885.313 
  1722.31,896.937 1730.17,909.502 1738.87,922.862 1747.67,936.937 1757.13,952.721 1766.01,966.445 1776,980.381 1786.26,994.786 1796.93,1009 1807.94,1023.37 
  1819.01,1039.23 1831.31,1058.49 1838.23,1069.09 1844.29,1078.22 1850.66,1088.38 1856.11,1096.59 1861.23,1104.58 1865.93,1111.79 1870.35,1118.35 1874.46,1124.21 
  1878.64,1130.13 1882.69,1135.78 1886.3,1140.49 1890.36,1145.25 1894.92,1150.5 1899.82,1155.79 1905.33,1161.44 1911.53,1167.64 1918.5,1174.66 1925.22,1180.88 
  1932.78,1187.1 1941.28,1193.43 1947.7,1198.59 1954.92,1203.78 1963.04,1209.22 1969.11,1213.41 1975.93,1217.9 1982.45,1221.61 1988.62,1225.12 1994.14,1228.33 
  2000.3,1231.69 2006.04,1234.8 2011.96,1238.25 2018.47,1241.9 2025.79,1245.65 2032.13,1248.91 2038.55,1252.2 2045.19,1255.33 2050.81,1258.1 2057.14,1261.3 
  2064.26,1264.18 2069.36,1266.05 2073.69,1267.86 2078.58,1269.81 2083.38,1271.48 2087.58,1272.78 2091.34,1273.96 2095.05,1275.01 2098.43,1276.13 2101.9,1277.32 
  2105.43,1278.47 2108.82,1279.6 2112.25,1280.72 2115.7,1281.86 2119.04,1282.96 2122.52,1284.08 2125.89,1285.23 2129.48,1286.47 2133.14,1287.77 2137.07,1289.16 
  2141.18,1290.66 2145.44,1292.21 2150.18,1293.95 2155.47,1295.78 2160.4,1297.41 2165.12,1298.94 2170.09,1300.59 2174.92,1302.1 2180.11,1303.64 2184.66,1305.03 
  2189.63,1306.53 2194.49,1307.96 2199.47,1309.29 2204.02,1310.42 2208.04,1311.51 2212.28,1312.69 2216.96,1313.99 2221.49,1315.35 2226.6,1316.84 2231.84,1318.35 
  2237.65,1320.01 2244.1,1322 2251.35,1324.27 2259.51,1326.8 2265.23,1328.36 2271.67,1330.11 2277.03,1331.51 2283.07,1333 2288.67,1334.44 2294.97,1336.08 
  2300.8,1337.55 2307.35,1339.08 2314.72,1340.69 2323.01,1342.47 2330.43,1344.04 2338.79,1345.73 2348.18,1347.71 2352.76,1348.68 
  "/>
<path clip-path="url(#clip630)" d="
M1797.32 322.316 L2282.66 322.316 L2282.66 166.796 L1797.32 166.796  Z
  " fill="#ffffff" fill-rule="evenodd" fill-opacity="1"/>
<polyline clip-path="url(#clip630)" style="stroke:#000000; stroke-linecap:round; stroke-linejoin:round; stroke-width:4; stroke-opacity:1; fill:none" points="
  1797.32,322.316 2282.66,322.316 2282.66,166.796 1797.32,166.796 1797.32,322.316 
  "/>
<polyline clip-path="url(#clip630)" style="stroke:#009af9; stroke-linecap:round; stroke-linejoin:round; stroke-width:4; stroke-opacity:1; fill:none" points="
  1820.69,218.636 1960.87,218.636 
  "/>
<path clip-path="url(#clip630)" d="M1984.23 201.356 L2013.47 201.356 L2013.47 205.291 L2001.2 205.291 L2001.2 235.916 L1996.5 235.916 L1996.5 205.291 L1984.23 205.291 L1984.23 201.356 Z" fill="#000000" fill-rule="evenodd" fill-opacity="1" /><path clip-path="url(#clip630)" d="M2025.85 213.971 Q2025.14 213.555 2024.28 213.37 Q2023.45 213.161 2022.43 213.161 Q2018.82 213.161 2016.87 215.522 Q2014.95 217.86 2014.95 222.258 L2014.95 235.916 L2010.67 235.916 L2010.67 209.99 L2014.95 209.99 L2014.95 214.018 Q2016.29 211.657 2018.45 210.522 Q2020.6 209.365 2023.68 209.365 Q2024.12 209.365 2024.65 209.434 Q2025.18 209.481 2025.83 209.596 L2025.85 213.971 Z" fill="#000000" fill-rule="evenodd" fill-opacity="1" /><path clip-path="url(#clip630)" d="M2042.1 222.883 Q2036.94 222.883 2034.95 224.064 Q2032.96 225.244 2032.96 228.092 Q2032.96 230.36 2034.44 231.703 Q2035.95 233.022 2038.52 233.022 Q2042.06 233.022 2044.19 230.522 Q2046.34 227.999 2046.34 223.832 L2046.34 222.883 L2042.1 222.883 M2050.6 221.124 L2050.6 235.916 L2046.34 235.916 L2046.34 231.981 Q2044.88 234.342 2042.71 235.476 Q2040.53 236.587 2037.38 236.587 Q2033.4 236.587 2031.04 234.365 Q2028.7 232.119 2028.7 228.369 Q2028.7 223.994 2031.62 221.772 Q2034.56 219.55 2040.37 219.55 L2046.34 219.55 L2046.34 219.133 Q2046.34 216.194 2044.4 214.596 Q2042.47 212.976 2038.98 212.976 Q2036.76 212.976 2034.65 213.508 Q2032.54 214.041 2030.6 215.106 L2030.6 211.17 Q2032.94 210.268 2035.14 209.828 Q2037.33 209.365 2039.42 209.365 Q2045.04 209.365 2047.82 212.282 Q2050.6 215.198 2050.6 221.124 Z" fill="#000000" fill-rule="evenodd" fill-opacity="1" /><path clip-path="url(#clip630)" d="M2059.37 209.99 L2063.63 209.99 L2063.63 236.379 Q2063.63 241.332 2061.73 243.555 Q2059.86 245.777 2055.67 245.777 L2054.05 245.777 L2054.05 242.166 L2055.18 242.166 Q2057.61 242.166 2058.49 241.031 Q2059.37 239.92 2059.37 236.379 L2059.37 209.99 M2059.37 199.897 L2063.63 199.897 L2063.63 205.291 L2059.37 205.291 L2059.37 199.897 Z" fill="#000000" fill-rule="evenodd" fill-opacity="1" /><path clip-path="url(#clip630)" d="M2094.72 221.888 L2094.72 223.971 L2075.14 223.971 Q2075.41 228.369 2077.77 230.684 Q2080.16 232.976 2084.39 232.976 Q2086.85 232.976 2089.14 232.374 Q2091.46 231.772 2093.72 230.569 L2093.72 234.596 Q2091.43 235.568 2089.02 236.078 Q2086.62 236.587 2084.14 236.587 Q2077.94 236.587 2074.3 232.976 Q2070.69 229.365 2070.69 223.207 Q2070.69 216.842 2074.12 213.115 Q2077.57 209.365 2083.4 209.365 Q2088.63 209.365 2091.66 212.745 Q2094.72 216.101 2094.72 221.888 M2090.46 220.638 Q2090.41 217.143 2088.49 215.059 Q2086.59 212.976 2083.45 212.976 Q2079.88 212.976 2077.73 214.99 Q2075.6 217.004 2075.27 220.661 L2090.46 220.638 Z" fill="#000000" fill-rule="evenodd" fill-opacity="1" /><path clip-path="url(#clip630)" d="M2120.37 210.985 L2120.37 214.967 Q2118.56 213.971 2116.73 213.485 Q2114.93 212.976 2113.08 212.976 Q2108.93 212.976 2106.64 215.615 Q2104.35 218.231 2104.35 222.976 Q2104.35 227.721 2106.64 230.36 Q2108.93 232.976 2113.08 232.976 Q2114.93 232.976 2116.73 232.49 Q2118.56 231.981 2120.37 230.985 L2120.37 234.92 Q2118.58 235.754 2116.66 236.17 Q2114.77 236.587 2112.61 236.587 Q2106.76 236.587 2103.31 232.906 Q2099.86 229.226 2099.86 222.976 Q2099.86 216.633 2103.33 212.999 Q2106.83 209.365 2112.89 209.365 Q2114.86 209.365 2116.73 209.782 Q2118.61 210.175 2120.37 210.985 Z" fill="#000000" fill-rule="evenodd" fill-opacity="1" /><path clip-path="url(#clip630)" d="M2131.99 202.629 L2131.99 209.99 L2140.76 209.99 L2140.76 213.3 L2131.99 213.3 L2131.99 227.374 Q2131.99 230.545 2132.84 231.448 Q2133.72 232.351 2136.39 232.351 L2140.76 232.351 L2140.76 235.916 L2136.39 235.916 Q2131.45 235.916 2129.58 234.087 Q2127.7 232.235 2127.7 227.374 L2127.7 213.3 L2124.58 213.3 L2124.58 209.99 L2127.7 209.99 L2127.7 202.629 L2131.99 202.629 Z" fill="#000000" fill-rule="evenodd" fill-opacity="1" /><path clip-path="url(#clip630)" d="M2156.41 212.976 Q2152.98 212.976 2150.99 215.661 Q2149 218.323 2149 222.976 Q2149 227.629 2150.97 230.314 Q2152.96 232.976 2156.41 232.976 Q2159.81 232.976 2161.8 230.291 Q2163.79 227.606 2163.79 222.976 Q2163.79 218.37 2161.8 215.684 Q2159.81 212.976 2156.41 212.976 M2156.41 209.365 Q2161.96 209.365 2165.14 212.976 Q2168.31 216.587 2168.31 222.976 Q2168.31 229.342 2165.14 232.976 Q2161.96 236.587 2156.41 236.587 Q2150.83 236.587 2147.66 232.976 Q2144.51 229.342 2144.51 222.976 Q2144.51 216.587 2147.66 212.976 Q2150.83 209.365 2156.41 209.365 Z" fill="#000000" fill-rule="evenodd" fill-opacity="1" /><path clip-path="url(#clip630)" d="M2190.39 213.971 Q2189.67 213.555 2188.82 213.37 Q2187.98 213.161 2186.96 213.161 Q2183.35 213.161 2181.41 215.522 Q2179.49 217.86 2179.49 222.258 L2179.49 235.916 L2175.2 235.916 L2175.2 209.99 L2179.49 209.99 L2179.49 214.018 Q2180.83 211.657 2182.98 210.522 Q2185.14 209.365 2188.21 209.365 Q2188.65 209.365 2189.19 209.434 Q2189.72 209.481 2190.37 209.596 L2190.39 213.971 Z" fill="#000000" fill-rule="evenodd" fill-opacity="1" /><path clip-path="url(#clip630)" d="M2205.64 238.323 Q2203.84 242.953 2202.13 244.365 Q2200.41 245.777 2197.54 245.777 L2194.14 245.777 L2194.14 242.212 L2196.64 242.212 Q2198.4 242.212 2199.37 241.379 Q2200.34 240.545 2201.52 237.443 L2202.29 235.499 L2191.8 209.99 L2196.32 209.99 L2204.42 230.268 L2212.52 209.99 L2217.03 209.99 L2205.64 238.323 Z" fill="#000000" fill-rule="evenodd" fill-opacity="1" /><path clip-path="url(#clip630)" d="M2239.39 231.981 L2247.03 231.981 L2247.03 205.615 L2238.72 207.282 L2238.72 203.022 L2246.99 201.356 L2251.66 201.356 L2251.66 231.981 L2259.3 231.981 L2259.3 235.916 L2239.39 235.916 L2239.39 231.981 Z" fill="#000000" fill-rule="evenodd" fill-opacity="1" /><polyline clip-path="url(#clip630)" style="stroke:#e26f46; stroke-linecap:round; stroke-linejoin:round; stroke-width:4; stroke-opacity:1; fill:none" points="
  1820.69,270.476 1960.87,270.476 
  "/>
<path clip-path="url(#clip630)" d="M1984.23 253.196 L2013.47 253.196 L2013.47 257.131 L2001.2 257.131 L2001.2 287.756 L1996.5 287.756 L1996.5 257.131 L1984.23 257.131 L1984.23 253.196 Z" fill="#000000" fill-rule="evenodd" fill-opacity="1" /><path clip-path="url(#clip630)" d="M2025.85 265.811 Q2025.14 265.395 2024.28 265.21 Q2023.45 265.001 2022.43 265.001 Q2018.82 265.001 2016.87 267.362 Q2014.95 269.7 2014.95 274.098 L2014.95 287.756 L2010.67 287.756 L2010.67 261.83 L2014.95 261.83 L2014.95 265.858 Q2016.29 263.497 2018.45 262.362 Q2020.6 261.205 2023.68 261.205 Q2024.12 261.205 2024.65 261.274 Q2025.18 261.321 2025.83 261.436 L2025.85 265.811 Z" fill="#000000" fill-rule="evenodd" fill-opacity="1" /><path clip-path="url(#clip630)" d="M2042.1 274.723 Q2036.94 274.723 2034.95 275.904 Q2032.96 277.084 2032.96 279.932 Q2032.96 282.2 2034.44 283.543 Q2035.95 284.862 2038.52 284.862 Q2042.06 284.862 2044.19 282.362 Q2046.34 279.839 2046.34 275.672 L2046.34 274.723 L2042.1 274.723 M2050.6 272.964 L2050.6 287.756 L2046.34 287.756 L2046.34 283.821 Q2044.88 286.182 2042.71 287.316 Q2040.53 288.427 2037.38 288.427 Q2033.4 288.427 2031.04 286.205 Q2028.7 283.959 2028.7 280.209 Q2028.7 275.834 2031.62 273.612 Q2034.56 271.39 2040.37 271.39 L2046.34 271.39 L2046.34 270.973 Q2046.34 268.034 2044.4 266.436 Q2042.47 264.816 2038.98 264.816 Q2036.76 264.816 2034.65 265.348 Q2032.54 265.881 2030.6 266.946 L2030.6 263.01 Q2032.94 262.108 2035.14 261.668 Q2037.33 261.205 2039.42 261.205 Q2045.04 261.205 2047.82 264.122 Q2050.6 267.038 2050.6 272.964 Z" fill="#000000" fill-rule="evenodd" fill-opacity="1" /><path clip-path="url(#clip630)" d="M2059.37 261.83 L2063.63 261.83 L2063.63 288.219 Q2063.63 293.172 2061.73 295.395 Q2059.86 297.617 2055.67 297.617 L2054.05 297.617 L2054.05 294.006 L2055.18 294.006 Q2057.61 294.006 2058.49 292.871 Q2059.37 291.76 2059.37 288.219 L2059.37 261.83 M2059.37 251.737 L2063.63 251.737 L2063.63 257.131 L2059.37 257.131 L2059.37 251.737 Z" fill="#000000" fill-rule="evenodd" fill-opacity="1" /><path clip-path="url(#clip630)" d="M2094.72 273.728 L2094.72 275.811 L2075.14 275.811 Q2075.41 280.209 2077.77 282.524 Q2080.16 284.816 2084.39 284.816 Q2086.85 284.816 2089.14 284.214 Q2091.46 283.612 2093.72 282.409 L2093.72 286.436 Q2091.43 287.408 2089.02 287.918 Q2086.62 288.427 2084.14 288.427 Q2077.94 288.427 2074.3 284.816 Q2070.69 281.205 2070.69 275.047 Q2070.69 268.682 2074.12 264.955 Q2077.57 261.205 2083.4 261.205 Q2088.63 261.205 2091.66 264.585 Q2094.72 267.941 2094.72 273.728 M2090.46 272.478 Q2090.41 268.983 2088.49 266.899 Q2086.59 264.816 2083.45 264.816 Q2079.88 264.816 2077.73 266.83 Q2075.6 268.844 2075.27 272.501 L2090.46 272.478 Z" fill="#000000" fill-rule="evenodd" fill-opacity="1" /><path clip-path="url(#clip630)" d="M2120.37 262.825 L2120.37 266.807 Q2118.56 265.811 2116.73 265.325 Q2114.93 264.816 2113.08 264.816 Q2108.93 264.816 2106.64 267.455 Q2104.35 270.071 2104.35 274.816 Q2104.35 279.561 2106.64 282.2 Q2108.93 284.816 2113.08 284.816 Q2114.93 284.816 2116.73 284.33 Q2118.56 283.821 2120.37 282.825 L2120.37 286.76 Q2118.58 287.594 2116.66 288.01 Q2114.77 288.427 2112.61 288.427 Q2106.76 288.427 2103.31 284.746 Q2099.86 281.066 2099.86 274.816 Q2099.86 268.473 2103.33 264.839 Q2106.83 261.205 2112.89 261.205 Q2114.86 261.205 2116.73 261.622 Q2118.61 262.015 2120.37 262.825 Z" fill="#000000" fill-rule="evenodd" fill-opacity="1" /><path clip-path="url(#clip630)" d="M2131.99 254.469 L2131.99 261.83 L2140.76 261.83 L2140.76 265.14 L2131.99 265.14 L2131.99 279.214 Q2131.99 282.385 2132.84 283.288 Q2133.72 284.191 2136.39 284.191 L2140.76 284.191 L2140.76 287.756 L2136.39 287.756 Q2131.45 287.756 2129.58 285.927 Q2127.7 284.075 2127.7 279.214 L2127.7 265.14 L2124.58 265.14 L2124.58 261.83 L2127.7 261.83 L2127.7 254.469 L2131.99 254.469 Z" fill="#000000" fill-rule="evenodd" fill-opacity="1" /><path clip-path="url(#clip630)" d="M2156.41 264.816 Q2152.98 264.816 2150.99 267.501 Q2149 270.163 2149 274.816 Q2149 279.469 2150.97 282.154 Q2152.96 284.816 2156.41 284.816 Q2159.81 284.816 2161.8 282.131 Q2163.79 279.446 2163.79 274.816 Q2163.79 270.21 2161.8 267.524 Q2159.81 264.816 2156.41 264.816 M2156.41 261.205 Q2161.96 261.205 2165.14 264.816 Q2168.31 268.427 2168.31 274.816 Q2168.31 281.182 2165.14 284.816 Q2161.96 288.427 2156.41 288.427 Q2150.83 288.427 2147.66 284.816 Q2144.51 281.182 2144.51 274.816 Q2144.51 268.427 2147.66 264.816 Q2150.83 261.205 2156.41 261.205 Z" fill="#000000" fill-rule="evenodd" fill-opacity="1" /><path clip-path="url(#clip630)" d="M2190.39 265.811 Q2189.67 265.395 2188.82 265.21 Q2187.98 265.001 2186.96 265.001 Q2183.35 265.001 2181.41 267.362 Q2179.49 269.7 2179.49 274.098 L2179.49 287.756 L2175.2 287.756 L2175.2 261.83 L2179.49 261.83 L2179.49 265.858 Q2180.83 263.497 2182.98 262.362 Q2185.14 261.205 2188.21 261.205 Q2188.65 261.205 2189.19 261.274 Q2189.72 261.321 2190.37 261.436 L2190.39 265.811 Z" fill="#000000" fill-rule="evenodd" fill-opacity="1" /><path clip-path="url(#clip630)" d="M2205.64 290.163 Q2203.84 294.793 2202.13 296.205 Q2200.41 297.617 2197.54 297.617 L2194.14 297.617 L2194.14 294.052 L2196.64 294.052 Q2198.4 294.052 2199.37 293.219 Q2200.34 292.385 2201.52 289.283 L2202.29 287.339 L2191.8 261.83 L2196.32 261.83 L2204.42 282.108 L2212.52 261.83 L2217.03 261.83 L2205.64 290.163 Z" fill="#000000" fill-rule="evenodd" fill-opacity="1" /><path clip-path="url(#clip630)" d="M2242.61 283.821 L2258.93 283.821 L2258.93 287.756 L2236.99 287.756 L2236.99 283.821 Q2239.65 281.066 2244.23 276.436 Q2248.84 271.784 2250.02 270.441 Q2252.26 267.918 2253.14 266.182 Q2254.05 264.423 2254.05 262.733 Q2254.05 259.978 2252.1 258.242 Q2250.18 256.506 2247.08 256.506 Q2244.88 256.506 2242.43 257.27 Q2240 258.034 2237.22 259.585 L2237.22 254.862 Q2240.04 253.728 2242.5 253.149 Q2244.95 252.571 2246.99 252.571 Q2252.36 252.571 2255.55 255.256 Q2258.75 257.941 2258.75 262.432 Q2258.75 264.561 2257.94 266.483 Q2257.15 268.381 2255.04 270.973 Q2254.46 271.645 2251.36 274.862 Q2248.26 278.057 2242.61 283.821 Z" fill="#000000" fill-rule="evenodd" fill-opacity="1" /></svg>
