<?xml version="1.0" encoding="utf-8"?>
<svg xmlns="http://www.w3.org/2000/svg" xmlns:xlink="http://www.w3.org/1999/xlink" width="600" height="400" viewBox="0 0 2400 1600">
<defs>
  <clipPath id="clip370">
    <rect x="0" y="0" width="2400" height="1600"/>
  </clipPath>
</defs>
<path clip-path="url(#clip370)" d="
M0 1600 L2400 1600 L2400 0 L0 0  Z
  " fill="#ffffff" fill-rule="evenodd" fill-opacity="1"/>
<defs>
  <clipPath id="clip371">
    <rect x="480" y="0" width="1681" height="1600"/>
  </clipPath>
</defs>
<path clip-path="url(#clip370)" d="
M250.028 1423.18 L2352.76 1423.18 L2352.76 123.472 L250.028 123.472  Z
  " fill="#ffffff" fill-rule="evenodd" fill-opacity="1"/>
<defs>
  <clipPath id="clip372">
    <rect x="250" y="123" width="2104" height="1301"/>
  </clipPath>
</defs>
<polyline clip-path="url(#clip372)" style="stroke:#000000; stroke-linecap:butt; stroke-linejoin:round; stroke-width:2; stroke-opacity:0.1; fill:none" points="
  250.028,1423.18 250.028,123.472 
  "/>
<polyline clip-path="url(#clip372)" style="stroke:#000000; stroke-linecap:butt; stroke-linejoin:round; stroke-width:2; stroke-opacity:0.1; fill:none" points="
  632.342,1423.18 632.342,123.472 
  "/>
<polyline clip-path="url(#clip372)" style="stroke:#000000; stroke-linecap:butt; stroke-linejoin:round; stroke-width:2; stroke-opacity:0.1; fill:none" points="
  1014.66,1423.18 1014.66,123.472 
  "/>
<polyline clip-path="url(#clip372)" style="stroke:#000000; stroke-linecap:butt; stroke-linejoin:round; stroke-width:2; stroke-opacity:0.1; fill:none" points="
  1396.97,1423.18 1396.97,123.472 
  "/>
<polyline clip-path="url(#clip372)" style="stroke:#000000; stroke-linecap:butt; stroke-linejoin:round; stroke-width:2; stroke-opacity:0.1; fill:none" points="
  1779.28,1423.18 1779.28,123.472 
  "/>
<polyline clip-path="url(#clip372)" style="stroke:#000000; stroke-linecap:butt; stroke-linejoin:round; stroke-width:2; stroke-opacity:0.1; fill:none" points="
  2161.6,1423.18 2161.6,123.472 
  "/>
<polyline clip-path="url(#clip370)" style="stroke:#000000; stroke-linecap:butt; stroke-linejoin:round; stroke-width:4; stroke-opacity:1; fill:none" points="
  250.028,1423.18 2352.76,1423.18 
  "/>
<polyline clip-path="url(#clip370)" style="stroke:#000000; stroke-linecap:butt; stroke-linejoin:round; stroke-width:4; stroke-opacity:1; fill:none" points="
  250.028,1423.18 250.028,1404.28 
  "/>
<polyline clip-path="url(#clip370)" style="stroke:#000000; stroke-linecap:butt; stroke-linejoin:round; stroke-width:4; stroke-opacity:1; fill:none" points="
  632.342,1423.18 632.342,1404.28 
  "/>
<polyline clip-path="url(#clip370)" style="stroke:#000000; stroke-linecap:butt; stroke-linejoin:round; stroke-width:4; stroke-opacity:1; fill:none" points="
  1014.66,1423.18 1014.66,1404.28 
  "/>
<polyline clip-path="url(#clip370)" style="stroke:#000000; stroke-linecap:butt; stroke-linejoin:round; stroke-width:4; stroke-opacity:1; fill:none" points="
  1396.97,1423.18 1396.97,1404.28 
  "/>
<polyline clip-path="url(#clip370)" style="stroke:#000000; stroke-linecap:butt; stroke-linejoin:round; stroke-width:4; stroke-opacity:1; fill:none" points="
  1779.28,1423.18 1779.28,1404.28 
  "/>
<polyline clip-path="url(#clip370)" style="stroke:#000000; stroke-linecap:butt; stroke-linejoin:round; stroke-width:4; stroke-opacity:1; fill:none" points="
  2161.6,1423.18 2161.6,1404.28 
  "/>
<path clip-path="url(#clip370)" d="M250.028 1452.37 Q246.417 1452.37 244.588 1455.94 Q242.783 1459.48 242.783 1466.61 Q242.783 1473.71 244.588 1477.28 Q246.417 1480.82 250.028 1480.82 Q253.662 1480.82 255.468 1477.28 Q257.297 1473.71 257.297 1466.61 Q257.297 1459.48 255.468 1455.94 Q253.662 1452.37 250.028 1452.37 M250.028 1448.67 Q255.838 1448.67 258.894 1453.27 Q261.973 1457.86 261.973 1466.61 Q261.973 1475.33 258.894 1479.94 Q255.838 1484.52 250.028 1484.52 Q244.218 1484.52 241.139 1479.94 Q238.084 1475.33 238.084 1466.61 Q238.084 1457.86 241.139 1453.27 Q244.218 1448.67 250.028 1448.67 Z" fill="#000000" fill-rule="evenodd" fill-opacity="1" /><path clip-path="url(#clip370)" d="M591.949 1479.92 L599.588 1479.92 L599.588 1453.55 L591.278 1455.22 L591.278 1450.96 L599.542 1449.29 L604.217 1449.29 L604.217 1479.92 L611.856 1479.92 L611.856 1483.85 L591.949 1483.85 L591.949 1479.92 Z" fill="#000000" fill-rule="evenodd" fill-opacity="1" /><path clip-path="url(#clip370)" d="M631.301 1452.37 Q627.69 1452.37 625.861 1455.94 Q624.055 1459.48 624.055 1466.61 Q624.055 1473.71 625.861 1477.28 Q627.69 1480.82 631.301 1480.82 Q634.935 1480.82 636.74 1477.28 Q638.569 1473.71 638.569 1466.61 Q638.569 1459.48 636.74 1455.94 Q634.935 1452.37 631.301 1452.37 M631.301 1448.67 Q637.111 1448.67 640.166 1453.27 Q643.245 1457.86 643.245 1466.61 Q643.245 1475.33 640.166 1479.94 Q637.111 1484.52 631.301 1484.52 Q625.49 1484.52 622.412 1479.94 Q619.356 1475.33 619.356 1466.61 Q619.356 1457.86 622.412 1453.27 Q625.49 1448.67 631.301 1448.67 Z" fill="#000000" fill-rule="evenodd" fill-opacity="1" /><path clip-path="url(#clip370)" d="M661.462 1452.37 Q657.851 1452.37 656.023 1455.94 Q654.217 1459.48 654.217 1466.61 Q654.217 1473.71 656.023 1477.28 Q657.851 1480.82 661.462 1480.82 Q665.097 1480.82 666.902 1477.28 Q668.731 1473.71 668.731 1466.61 Q668.731 1459.48 666.902 1455.94 Q665.097 1452.37 661.462 1452.37 M661.462 1448.67 Q667.273 1448.67 670.328 1453.27 Q673.407 1457.86 673.407 1466.61 Q673.407 1475.33 670.328 1479.94 Q667.273 1484.52 661.462 1484.52 Q655.652 1484.52 652.574 1479.94 Q649.518 1475.33 649.518 1466.61 Q649.518 1457.86 652.574 1453.27 Q655.652 1448.67 661.462 1448.67 Z" fill="#000000" fill-rule="evenodd" fill-opacity="1" /><path clip-path="url(#clip370)" d="M978.349 1479.92 L994.668 1479.92 L994.668 1483.85 L972.724 1483.85 L972.724 1479.92 Q975.386 1477.16 979.969 1472.53 Q984.576 1467.88 985.756 1466.54 Q988.001 1464.01 988.881 1462.28 Q989.784 1460.52 989.784 1458.83 Q989.784 1456.07 987.839 1454.34 Q985.918 1452.6 982.816 1452.6 Q980.617 1452.6 978.164 1453.37 Q975.733 1454.13 972.955 1455.68 L972.955 1450.96 Q975.779 1449.82 978.233 1449.25 Q980.687 1448.67 982.724 1448.67 Q988.094 1448.67 991.288 1451.35 Q994.483 1454.04 994.483 1458.53 Q994.483 1460.66 993.673 1462.58 Q992.886 1464.48 990.779 1467.07 Q990.201 1467.74 987.099 1470.96 Q983.997 1474.15 978.349 1479.92 Z" fill="#000000" fill-rule="evenodd" fill-opacity="1" /><path clip-path="url(#clip370)" d="M1014.48 1452.37 Q1010.87 1452.37 1009.04 1455.94 Q1007.24 1459.48 1007.24 1466.61 Q1007.24 1473.71 1009.04 1477.28 Q1010.87 1480.82 1014.48 1480.82 Q1018.12 1480.82 1019.92 1477.28 Q1021.75 1473.71 1021.75 1466.61 Q1021.75 1459.48 1019.92 1455.94 Q1018.12 1452.37 1014.48 1452.37 M1014.48 1448.67 Q1020.29 1448.67 1023.35 1453.27 Q1026.43 1457.86 1026.43 1466.61 Q1026.43 1475.33 1023.35 1479.94 Q1020.29 1484.52 1014.48 1484.52 Q1008.67 1484.52 1005.59 1479.94 Q1002.54 1475.33 1002.54 1466.61 Q1002.54 1457.86 1005.59 1453.27 Q1008.67 1448.67 1014.48 1448.67 Z" fill="#000000" fill-rule="evenodd" fill-opacity="1" /><path clip-path="url(#clip370)" d="M1044.64 1452.37 Q1041.03 1452.37 1039.2 1455.94 Q1037.4 1459.48 1037.4 1466.61 Q1037.4 1473.71 1039.2 1477.28 Q1041.03 1480.82 1044.64 1480.82 Q1048.28 1480.82 1050.08 1477.28 Q1051.91 1473.71 1051.91 1466.61 Q1051.91 1459.48 1050.08 1455.94 Q1048.28 1452.37 1044.64 1452.37 M1044.64 1448.67 Q1050.45 1448.67 1053.51 1453.27 Q1056.59 1457.86 1056.59 1466.61 Q1056.59 1475.33 1053.51 1479.94 Q1050.45 1484.52 1044.64 1484.52 Q1038.83 1484.52 1035.76 1479.94 Q1032.7 1475.33 1032.7 1466.61 Q1032.7 1457.86 1035.76 1453.27 Q1038.83 1448.67 1044.64 1448.67 Z" fill="#000000" fill-rule="evenodd" fill-opacity="1" /><path clip-path="url(#clip370)" d="M1370.73 1465.22 Q1374.09 1465.94 1375.96 1468.2 Q1377.86 1470.47 1377.86 1473.81 Q1377.86 1478.92 1374.34 1481.72 Q1370.82 1484.52 1364.34 1484.52 Q1362.17 1484.52 1359.85 1484.08 Q1357.56 1483.67 1355.11 1482.81 L1355.11 1478.3 Q1357.05 1479.43 1359.37 1480.01 Q1361.68 1480.59 1364.2 1480.59 Q1368.6 1480.59 1370.89 1478.85 Q1373.21 1477.12 1373.21 1473.81 Q1373.21 1470.75 1371.06 1469.04 Q1368.93 1467.3 1365.11 1467.3 L1361.08 1467.3 L1361.08 1463.46 L1365.29 1463.46 Q1368.74 1463.46 1370.57 1462.09 Q1372.4 1460.7 1372.4 1458.11 Q1372.4 1455.45 1370.5 1454.04 Q1368.63 1452.6 1365.11 1452.6 Q1363.19 1452.6 1360.99 1453.02 Q1358.79 1453.44 1356.15 1454.31 L1356.15 1450.15 Q1358.81 1449.41 1361.13 1449.04 Q1363.46 1448.67 1365.52 1448.67 Q1370.85 1448.67 1373.95 1451.1 Q1377.05 1453.5 1377.05 1457.63 Q1377.05 1460.5 1375.41 1462.49 Q1373.76 1464.45 1370.73 1465.22 Z" fill="#000000" fill-rule="evenodd" fill-opacity="1" /><path clip-path="url(#clip370)" d="M1396.73 1452.37 Q1393.12 1452.37 1391.29 1455.94 Q1389.48 1459.48 1389.48 1466.61 Q1389.48 1473.71 1391.29 1477.28 Q1393.12 1480.82 1396.73 1480.82 Q1400.36 1480.82 1402.17 1477.28 Q1404 1473.71 1404 1466.61 Q1404 1459.48 1402.17 1455.94 Q1400.36 1452.37 1396.73 1452.37 M1396.73 1448.67 Q1402.54 1448.67 1405.59 1453.27 Q1408.67 1457.86 1408.67 1466.61 Q1408.67 1475.33 1405.59 1479.94 Q1402.54 1484.52 1396.73 1484.52 Q1390.92 1484.52 1387.84 1479.94 Q1384.78 1475.33 1384.78 1466.61 Q1384.78 1457.86 1387.84 1453.27 Q1390.92 1448.67 1396.73 1448.67 Z" fill="#000000" fill-rule="evenodd" fill-opacity="1" /><path clip-path="url(#clip370)" d="M1426.89 1452.37 Q1423.28 1452.37 1421.45 1455.94 Q1419.64 1459.48 1419.64 1466.61 Q1419.64 1473.71 1421.45 1477.28 Q1423.28 1480.82 1426.89 1480.82 Q1430.52 1480.82 1432.33 1477.28 Q1434.16 1473.71 1434.16 1466.61 Q1434.16 1459.48 1432.33 1455.94 Q1430.52 1452.37 1426.89 1452.37 M1426.89 1448.67 Q1432.7 1448.67 1435.76 1453.27 Q1438.83 1457.86 1438.83 1466.61 Q1438.83 1475.33 1435.76 1479.94 Q1432.7 1484.52 1426.89 1484.52 Q1421.08 1484.52 1418 1479.94 Q1414.94 1475.33 1414.94 1466.61 Q1414.94 1457.86 1418 1453.27 Q1421.08 1448.67 1426.89 1448.67 Z" fill="#000000" fill-rule="evenodd" fill-opacity="1" /><path clip-path="url(#clip370)" d="M1752.38 1453.37 L1740.57 1471.81 L1752.38 1471.81 L1752.38 1453.37 M1751.15 1449.29 L1757.03 1449.29 L1757.03 1471.81 L1761.96 1471.81 L1761.96 1475.7 L1757.03 1475.7 L1757.03 1483.85 L1752.38 1483.85 L1752.38 1475.7 L1736.77 1475.7 L1736.77 1471.19 L1751.15 1449.29 Z" fill="#000000" fill-rule="evenodd" fill-opacity="1" /><path clip-path="url(#clip370)" d="M1779.69 1452.37 Q1776.08 1452.37 1774.25 1455.94 Q1772.44 1459.48 1772.44 1466.61 Q1772.44 1473.71 1774.25 1477.28 Q1776.08 1480.82 1779.69 1480.82 Q1783.32 1480.82 1785.13 1477.28 Q1786.96 1473.71 1786.96 1466.61 Q1786.96 1459.48 1785.13 1455.94 Q1783.32 1452.37 1779.69 1452.37 M1779.69 1448.67 Q1785.5 1448.67 1788.56 1453.27 Q1791.63 1457.86 1791.63 1466.61 Q1791.63 1475.33 1788.56 1479.94 Q1785.5 1484.52 1779.69 1484.52 Q1773.88 1484.52 1770.8 1479.94 Q1767.75 1475.33 1767.75 1466.61 Q1767.75 1457.86 1770.8 1453.27 Q1773.88 1448.67 1779.69 1448.67 Z" fill="#000000" fill-rule="evenodd" fill-opacity="1" /><path clip-path="url(#clip370)" d="M1809.85 1452.37 Q1806.24 1452.37 1804.41 1455.94 Q1802.61 1459.48 1802.61 1466.61 Q1802.61 1473.71 1804.41 1477.28 Q1806.24 1480.82 1809.85 1480.82 Q1813.49 1480.82 1815.29 1477.28 Q1817.12 1473.71 1817.12 1466.61 Q1817.12 1459.48 1815.29 1455.94 Q1813.49 1452.37 1809.85 1452.37 M1809.85 1448.67 Q1815.66 1448.67 1818.72 1453.27 Q1821.8 1457.86 1821.8 1466.61 Q1821.8 1475.33 1818.72 1479.94 Q1815.66 1484.52 1809.85 1484.52 Q1804.04 1484.52 1800.96 1479.94 Q1797.91 1475.33 1797.91 1466.61 Q1797.91 1457.86 1800.96 1453.27 Q1804.04 1448.67 1809.85 1448.67 Z" fill="#000000" fill-rule="evenodd" fill-opacity="1" /><path clip-path="url(#clip370)" d="M2121.22 1449.29 L2139.57 1449.29 L2139.57 1453.23 L2125.5 1453.23 L2125.5 1461.7 Q2126.52 1461.35 2127.54 1461.19 Q2128.56 1461 2129.57 1461 Q2135.36 1461 2138.74 1464.18 Q2142.12 1467.35 2142.12 1472.76 Q2142.12 1478.34 2138.65 1481.44 Q2135.18 1484.52 2128.86 1484.52 Q2126.68 1484.52 2124.41 1484.15 Q2122.17 1483.78 2119.76 1483.04 L2119.76 1478.34 Q2121.84 1479.48 2124.06 1480.03 Q2126.29 1480.59 2128.76 1480.59 Q2132.77 1480.59 2135.11 1478.48 Q2137.44 1476.38 2137.44 1472.76 Q2137.44 1469.15 2135.11 1467.05 Q2132.77 1464.94 2128.76 1464.94 Q2126.89 1464.94 2125.01 1465.36 Q2123.16 1465.77 2121.22 1466.65 L2121.22 1449.29 Z" fill="#000000" fill-rule="evenodd" fill-opacity="1" /><path clip-path="url(#clip370)" d="M2161.33 1452.37 Q2157.72 1452.37 2155.89 1455.94 Q2154.09 1459.48 2154.09 1466.61 Q2154.09 1473.71 2155.89 1477.28 Q2157.72 1480.82 2161.33 1480.82 Q2164.97 1480.82 2166.77 1477.28 Q2168.6 1473.71 2168.6 1466.61 Q2168.6 1459.48 2166.77 1455.94 Q2164.97 1452.37 2161.33 1452.37 M2161.33 1448.67 Q2167.14 1448.67 2170.2 1453.27 Q2173.28 1457.86 2173.28 1466.61 Q2173.28 1475.33 2170.2 1479.94 Q2167.14 1484.52 2161.33 1484.52 Q2155.52 1484.52 2152.44 1479.94 Q2149.39 1475.33 2149.39 1466.61 Q2149.39 1457.86 2152.44 1453.27 Q2155.52 1448.67 2161.33 1448.67 Z" fill="#000000" fill-rule="evenodd" fill-opacity="1" /><path clip-path="url(#clip370)" d="M2191.49 1452.37 Q2187.88 1452.37 2186.05 1455.94 Q2184.25 1459.48 2184.25 1466.61 Q2184.25 1473.71 2186.05 1477.28 Q2187.88 1480.82 2191.49 1480.82 Q2195.13 1480.82 2196.93 1477.28 Q2198.76 1473.71 2198.76 1466.61 Q2198.76 1459.48 2196.93 1455.94 Q2195.13 1452.37 2191.49 1452.37 M2191.49 1448.67 Q2197.3 1448.67 2200.36 1453.27 Q2203.44 1457.86 2203.44 1466.61 Q2203.44 1475.33 2200.36 1479.94 Q2197.3 1484.52 2191.49 1484.52 Q2185.68 1484.52 2182.61 1479.94 Q2179.55 1475.33 2179.55 1466.61 Q2179.55 1457.86 2182.61 1453.27 Q2185.68 1448.67 2191.49 1448.67 Z" fill="#000000" fill-rule="evenodd" fill-opacity="1" /><path clip-path="url(#clip370)" d="M1300.45 1522.27 L1300.45 1532.4 L1312.52 1532.4 L1312.52 1536.95 L1300.45 1536.95 L1300.45 1556.3 Q1300.45 1560.66 1301.63 1561.9 Q1302.84 1563.14 1306.5 1563.14 L1312.52 1563.14 L1312.52 1568.04 L1306.5 1568.04 Q1299.72 1568.04 1297.14 1565.53 Q1294.56 1562.98 1294.56 1556.3 L1294.56 1536.95 L1290.27 1536.95 L1290.27 1532.4 L1294.56 1532.4 L1294.56 1522.27 L1300.45 1522.27 Z" fill="#000000" fill-rule="evenodd" fill-opacity="1" /><polyline clip-path="url(#clip372)" style="stroke:#000000; stroke-linecap:butt; stroke-linejoin:round; stroke-width:2; stroke-opacity:0.1; fill:none" points="
  250.028,1387.24 2352.76,1387.24 
  "/>
<polyline clip-path="url(#clip372)" style="stroke:#000000; stroke-linecap:butt; stroke-linejoin:round; stroke-width:2; stroke-opacity:0.1; fill:none" points="
  250.028,1119.09 2352.76,1119.09 
  "/>
<polyline clip-path="url(#clip372)" style="stroke:#000000; stroke-linecap:butt; stroke-linejoin:round; stroke-width:2; stroke-opacity:0.1; fill:none" points="
  250.028,850.945 2352.76,850.945 
  "/>
<polyline clip-path="url(#clip372)" style="stroke:#000000; stroke-linecap:butt; stroke-linejoin:round; stroke-width:2; stroke-opacity:0.1; fill:none" points="
  250.028,582.799 2352.76,582.799 
  "/>
<polyline clip-path="url(#clip372)" style="stroke:#000000; stroke-linecap:butt; stroke-linejoin:round; stroke-width:2; stroke-opacity:0.1; fill:none" points="
  250.028,314.653 2352.76,314.653 
  "/>
<polyline clip-path="url(#clip370)" style="stroke:#000000; stroke-linecap:butt; stroke-linejoin:round; stroke-width:4; stroke-opacity:1; fill:none" points="
  250.028,1423.18 250.028,123.472 
  "/>
<polyline clip-path="url(#clip370)" style="stroke:#000000; stroke-linecap:butt; stroke-linejoin:round; stroke-width:4; stroke-opacity:1; fill:none" points="
  250.028,1387.24 268.926,1387.24 
  "/>
<polyline clip-path="url(#clip370)" style="stroke:#000000; stroke-linecap:butt; stroke-linejoin:round; stroke-width:4; stroke-opacity:1; fill:none" points="
  250.028,1119.09 268.926,1119.09 
  "/>
<polyline clip-path="url(#clip370)" style="stroke:#000000; stroke-linecap:butt; stroke-linejoin:round; stroke-width:4; stroke-opacity:1; fill:none" points="
  250.028,850.945 268.926,850.945 
  "/>
<polyline clip-path="url(#clip370)" style="stroke:#000000; stroke-linecap:butt; stroke-linejoin:round; stroke-width:4; stroke-opacity:1; fill:none" points="
  250.028,582.799 268.926,582.799 
  "/>
<polyline clip-path="url(#clip370)" style="stroke:#000000; stroke-linecap:butt; stroke-linejoin:round; stroke-width:4; stroke-opacity:1; fill:none" points="
  250.028,314.653 268.926,314.653 
  "/>
<path clip-path="url(#clip370)" d="M126.691 1373.04 Q123.08 1373.04 121.251 1376.6 Q119.445 1380.14 119.445 1387.27 Q119.445 1394.38 121.251 1397.94 Q123.08 1401.49 126.691 1401.49 Q130.325 1401.49 132.13 1397.94 Q133.959 1394.38 133.959 1387.27 Q133.959 1380.14 132.13 1376.6 Q130.325 1373.04 126.691 1373.04 M126.691 1369.33 Q132.501 1369.33 135.556 1373.94 Q138.635 1378.52 138.635 1387.27 Q138.635 1396 135.556 1400.61 Q132.501 1405.19 126.691 1405.19 Q120.88 1405.19 117.802 1400.61 Q114.746 1396 114.746 1387.27 Q114.746 1378.52 117.802 1373.94 Q120.88 1369.33 126.691 1369.33 Z" fill="#000000" fill-rule="evenodd" fill-opacity="1" /><path clip-path="url(#clip370)" d="M146.853 1398.64 L151.737 1398.64 L151.737 1404.52 L146.853 1404.52 L146.853 1398.64 Z" fill="#000000" fill-rule="evenodd" fill-opacity="1" /><path clip-path="url(#clip370)" d="M171.922 1373.04 Q168.311 1373.04 166.482 1376.6 Q164.677 1380.14 164.677 1387.27 Q164.677 1394.38 166.482 1397.94 Q168.311 1401.49 171.922 1401.49 Q175.556 1401.49 177.362 1397.94 Q179.19 1394.38 179.19 1387.27 Q179.19 1380.14 177.362 1376.6 Q175.556 1373.04 171.922 1373.04 M171.922 1369.33 Q177.732 1369.33 180.788 1373.94 Q183.866 1378.52 183.866 1387.27 Q183.866 1396 180.788 1400.61 Q177.732 1405.19 171.922 1405.19 Q166.112 1405.19 163.033 1400.61 Q159.978 1396 159.978 1387.27 Q159.978 1378.52 163.033 1373.94 Q166.112 1369.33 171.922 1369.33 Z" fill="#000000" fill-rule="evenodd" fill-opacity="1" /><path clip-path="url(#clip370)" d="M202.084 1373.04 Q198.473 1373.04 196.644 1376.6 Q194.838 1380.14 194.838 1387.27 Q194.838 1394.38 196.644 1397.94 Q198.473 1401.49 202.084 1401.49 Q205.718 1401.49 207.524 1397.94 Q209.352 1394.38 209.352 1387.27 Q209.352 1380.14 207.524 1376.6 Q205.718 1373.04 202.084 1373.04 M202.084 1369.33 Q207.894 1369.33 210.949 1373.94 Q214.028 1378.52 214.028 1387.27 Q214.028 1396 210.949 1400.61 Q207.894 1405.19 202.084 1405.19 Q196.274 1405.19 193.195 1400.61 Q190.139 1396 190.139 1387.27 Q190.139 1378.52 193.195 1373.94 Q196.274 1369.33 202.084 1369.33 Z" fill="#000000" fill-rule="evenodd" fill-opacity="1" /><path clip-path="url(#clip370)" d="M128.288 1104.89 Q124.677 1104.89 122.848 1108.45 Q121.043 1112 121.043 1119.13 Q121.043 1126.23 122.848 1129.8 Q124.677 1133.34 128.288 1133.34 Q131.922 1133.34 133.728 1129.8 Q135.556 1126.23 135.556 1119.13 Q135.556 1112 133.728 1108.45 Q131.922 1104.89 128.288 1104.89 M128.288 1101.19 Q134.098 1101.19 137.154 1105.79 Q140.232 1110.38 140.232 1119.13 Q140.232 1127.85 137.154 1132.46 Q134.098 1137.04 128.288 1137.04 Q122.478 1137.04 119.399 1132.46 Q116.343 1127.85 116.343 1119.13 Q116.343 1110.38 119.399 1105.79 Q122.478 1101.19 128.288 1101.19 Z" fill="#000000" fill-rule="evenodd" fill-opacity="1" /><path clip-path="url(#clip370)" d="M148.45 1130.49 L153.334 1130.49 L153.334 1136.37 L148.45 1136.37 L148.45 1130.49 Z" fill="#000000" fill-rule="evenodd" fill-opacity="1" /><path clip-path="url(#clip370)" d="M173.519 1104.89 Q169.908 1104.89 168.079 1108.45 Q166.274 1112 166.274 1119.13 Q166.274 1126.23 168.079 1129.8 Q169.908 1133.34 173.519 1133.34 Q177.153 1133.34 178.959 1129.8 Q180.788 1126.23 180.788 1119.13 Q180.788 1112 178.959 1108.45 Q177.153 1104.89 173.519 1104.89 M173.519 1101.19 Q179.329 1101.19 182.385 1105.79 Q185.463 1110.38 185.463 1119.13 Q185.463 1127.85 182.385 1132.46 Q179.329 1137.04 173.519 1137.04 Q167.709 1137.04 164.63 1132.46 Q161.575 1127.85 161.575 1119.13 Q161.575 1110.38 164.63 1105.79 Q167.709 1101.19 173.519 1101.19 Z" fill="#000000" fill-rule="evenodd" fill-opacity="1" /><path clip-path="url(#clip370)" d="M197.709 1132.44 L214.028 1132.44 L214.028 1136.37 L192.084 1136.37 L192.084 1132.44 Q194.746 1129.68 199.329 1125.05 Q203.936 1120.4 205.116 1119.06 Q207.362 1116.53 208.241 1114.8 Q209.144 1113.04 209.144 1111.35 Q209.144 1108.59 207.199 1106.86 Q205.278 1105.12 202.176 1105.12 Q199.977 1105.12 197.524 1105.89 Q195.093 1106.65 192.315 1108.2 L192.315 1103.48 Q195.139 1102.34 197.593 1101.77 Q200.047 1101.19 202.084 1101.19 Q207.454 1101.19 210.649 1103.87 Q213.843 1106.56 213.843 1111.05 Q213.843 1113.18 213.033 1115.1 Q212.246 1117 210.139 1119.59 Q209.561 1120.26 206.459 1123.48 Q203.357 1126.67 197.709 1132.44 Z" fill="#000000" fill-rule="evenodd" fill-opacity="1" /><path clip-path="url(#clip370)" d="M126.205 836.744 Q122.593 836.744 120.765 840.309 Q118.959 843.85 118.959 850.98 Q118.959 858.086 120.765 861.651 Q122.593 865.193 126.205 865.193 Q129.839 865.193 131.644 861.651 Q133.473 858.086 133.473 850.98 Q133.473 843.85 131.644 840.309 Q129.839 836.744 126.205 836.744 M126.205 833.04 Q132.015 833.04 135.07 837.647 Q138.149 842.23 138.149 850.98 Q138.149 859.707 135.07 864.313 Q132.015 868.897 126.205 868.897 Q120.394 868.897 117.316 864.313 Q114.26 859.707 114.26 850.98 Q114.26 842.23 117.316 837.647 Q120.394 833.04 126.205 833.04 Z" fill="#000000" fill-rule="evenodd" fill-opacity="1" /><path clip-path="url(#clip370)" d="M146.366 862.346 L151.251 862.346 L151.251 868.225 L146.366 868.225 L146.366 862.346 Z" fill="#000000" fill-rule="evenodd" fill-opacity="1" /><path clip-path="url(#clip370)" d="M171.436 836.744 Q167.825 836.744 165.996 840.309 Q164.19 843.85 164.19 850.98 Q164.19 858.086 165.996 861.651 Q167.825 865.193 171.436 865.193 Q175.07 865.193 176.876 861.651 Q178.704 858.086 178.704 850.98 Q178.704 843.85 176.876 840.309 Q175.07 836.744 171.436 836.744 M171.436 833.04 Q177.246 833.04 180.301 837.647 Q183.38 842.23 183.38 850.98 Q183.38 859.707 180.301 864.313 Q177.246 868.897 171.436 868.897 Q165.626 868.897 162.547 864.313 Q159.491 859.707 159.491 850.98 Q159.491 842.23 162.547 837.647 Q165.626 833.04 171.436 833.04 Z" fill="#000000" fill-rule="evenodd" fill-opacity="1" /><path clip-path="url(#clip370)" d="M204.445 837.739 L192.639 856.188 L204.445 856.188 L204.445 837.739 M203.218 833.665 L209.098 833.665 L209.098 856.188 L214.028 856.188 L214.028 860.077 L209.098 860.077 L209.098 868.225 L204.445 868.225 L204.445 860.077 L188.843 860.077 L188.843 855.563 L203.218 833.665 Z" fill="#000000" fill-rule="evenodd" fill-opacity="1" /><path clip-path="url(#clip370)" d="M126.529 568.598 Q122.918 568.598 121.089 572.163 Q119.283 575.704 119.283 582.834 Q119.283 589.94 121.089 593.505 Q122.918 597.047 126.529 597.047 Q130.163 597.047 131.968 593.505 Q133.797 589.94 133.797 582.834 Q133.797 575.704 131.968 572.163 Q130.163 568.598 126.529 568.598 M126.529 564.894 Q132.339 564.894 135.394 569.501 Q138.473 574.084 138.473 582.834 Q138.473 591.561 135.394 596.167 Q132.339 600.75 126.529 600.75 Q120.718 600.75 117.64 596.167 Q114.584 591.561 114.584 582.834 Q114.584 574.084 117.64 569.501 Q120.718 564.894 126.529 564.894 Z" fill="#000000" fill-rule="evenodd" fill-opacity="1" /><path clip-path="url(#clip370)" d="M146.691 594.2 L151.575 594.2 L151.575 600.079 L146.691 600.079 L146.691 594.2 Z" fill="#000000" fill-rule="evenodd" fill-opacity="1" /><path clip-path="url(#clip370)" d="M171.76 568.598 Q168.149 568.598 166.32 572.163 Q164.515 575.704 164.515 582.834 Q164.515 589.94 166.32 593.505 Q168.149 597.047 171.76 597.047 Q175.394 597.047 177.2 593.505 Q179.028 589.94 179.028 582.834 Q179.028 575.704 177.2 572.163 Q175.394 568.598 171.76 568.598 M171.76 564.894 Q177.57 564.894 180.626 569.501 Q183.704 574.084 183.704 582.834 Q183.704 591.561 180.626 596.167 Q177.57 600.75 171.76 600.75 Q165.95 600.75 162.871 596.167 Q159.815 591.561 159.815 582.834 Q159.815 574.084 162.871 569.501 Q165.95 564.894 171.76 564.894 Z" fill="#000000" fill-rule="evenodd" fill-opacity="1" /><path clip-path="url(#clip370)" d="M202.5 580.936 Q199.352 580.936 197.5 583.089 Q195.672 585.241 195.672 588.991 Q195.672 592.718 197.5 594.894 Q199.352 597.047 202.5 597.047 Q205.649 597.047 207.477 594.894 Q209.329 592.718 209.329 588.991 Q209.329 585.241 207.477 583.089 Q205.649 580.936 202.5 580.936 M211.783 566.283 L211.783 570.542 Q210.024 569.709 208.218 569.269 Q206.436 568.829 204.676 568.829 Q200.047 568.829 197.593 571.954 Q195.163 575.079 194.815 581.399 Q196.181 579.385 198.241 578.32 Q200.301 577.232 202.778 577.232 Q207.987 577.232 210.996 580.403 Q214.028 583.551 214.028 588.991 Q214.028 594.315 210.88 597.533 Q207.732 600.75 202.5 600.75 Q196.505 600.75 193.334 596.167 Q190.163 591.561 190.163 582.834 Q190.163 574.639 194.051 569.778 Q197.94 564.894 204.491 564.894 Q206.25 564.894 208.033 565.241 Q209.838 565.589 211.783 566.283 Z" fill="#000000" fill-rule="evenodd" fill-opacity="1" /><path clip-path="url(#clip370)" d="M126.783 300.452 Q123.172 300.452 121.343 304.017 Q119.538 307.558 119.538 314.688 Q119.538 321.794 121.343 325.359 Q123.172 328.901 126.783 328.901 Q130.417 328.901 132.223 325.359 Q134.052 321.794 134.052 314.688 Q134.052 307.558 132.223 304.017 Q130.417 300.452 126.783 300.452 M126.783 296.748 Q132.593 296.748 135.649 301.355 Q138.728 305.938 138.728 314.688 Q138.728 323.415 135.649 328.021 Q132.593 332.604 126.783 332.604 Q120.973 332.604 117.894 328.021 Q114.839 323.415 114.839 314.688 Q114.839 305.938 117.894 301.355 Q120.973 296.748 126.783 296.748 Z" fill="#000000" fill-rule="evenodd" fill-opacity="1" /><path clip-path="url(#clip370)" d="M146.945 326.053 L151.829 326.053 L151.829 331.933 L146.945 331.933 L146.945 326.053 Z" fill="#000000" fill-rule="evenodd" fill-opacity="1" /><path clip-path="url(#clip370)" d="M172.014 300.452 Q168.403 300.452 166.575 304.017 Q164.769 307.558 164.769 314.688 Q164.769 321.794 166.575 325.359 Q168.403 328.901 172.014 328.901 Q175.649 328.901 177.454 325.359 Q179.283 321.794 179.283 314.688 Q179.283 307.558 177.454 304.017 Q175.649 300.452 172.014 300.452 M172.014 296.748 Q177.825 296.748 180.88 301.355 Q183.959 305.938 183.959 314.688 Q183.959 323.415 180.88 328.021 Q177.825 332.604 172.014 332.604 Q166.204 332.604 163.126 328.021 Q160.07 323.415 160.07 314.688 Q160.07 305.938 163.126 301.355 Q166.204 296.748 172.014 296.748 Z" fill="#000000" fill-rule="evenodd" fill-opacity="1" /><path clip-path="url(#clip370)" d="M202.176 315.521 Q198.843 315.521 196.922 317.304 Q195.024 319.086 195.024 322.211 Q195.024 325.336 196.922 327.118 Q198.843 328.901 202.176 328.901 Q205.51 328.901 207.431 327.118 Q209.352 325.313 209.352 322.211 Q209.352 319.086 207.431 317.304 Q205.533 315.521 202.176 315.521 M197.5 313.53 Q194.491 312.79 192.801 310.729 Q191.135 308.669 191.135 305.706 Q191.135 301.563 194.075 299.155 Q197.037 296.748 202.176 296.748 Q207.338 296.748 210.278 299.155 Q213.218 301.563 213.218 305.706 Q213.218 308.669 211.528 310.729 Q209.861 312.79 206.875 313.53 Q210.255 314.317 212.13 316.609 Q214.028 318.901 214.028 322.211 Q214.028 327.234 210.949 329.919 Q207.894 332.604 202.176 332.604 Q196.459 332.604 193.38 329.919 Q190.325 327.234 190.325 322.211 Q190.325 318.901 192.223 316.609 Q194.121 314.317 197.5 313.53 M195.787 306.146 Q195.787 308.831 197.454 310.336 Q199.144 311.841 202.176 311.841 Q205.186 311.841 206.875 310.336 Q208.588 308.831 208.588 306.146 Q208.588 303.461 206.875 301.956 Q205.186 300.452 202.176 300.452 Q199.144 300.452 197.454 301.956 Q195.787 303.461 195.787 306.146 Z" fill="#000000" fill-rule="evenodd" fill-opacity="1" /><path clip-path="url(#clip370)" d="M28.3562 814.719 L28.3562 808.863 L64.0042 808.863 L64.0042 814.719 L28.3562 814.719 M14.479 814.719 L14.479 808.863 L21.895 808.863 L21.895 814.719 L14.479 814.719 Z" fill="#000000" fill-rule="evenodd" fill-opacity="1" /><path clip-path="url(#clip370)" d="M14.5426 782.54 Q21.8632 786.805 29.0246 788.874 Q36.186 790.943 43.5384 790.943 Q50.8908 790.943 58.1159 788.874 Q65.3091 786.774 72.5979 782.54 L72.5979 787.633 Q65.1182 792.407 57.8931 794.794 Q50.668 797.15 43.5384 797.15 Q36.4406 797.15 29.2474 794.794 Q22.0542 792.439 14.5426 787.633 L14.5426 782.54 Z" fill="#000000" fill-rule="evenodd" fill-opacity="1" /><path clip-path="url(#clip370)" d="M18.2347 765.385 L28.3562 765.385 L28.3562 753.322 L32.9077 753.322 L32.9077 765.385 L52.2594 765.385 Q56.6199 765.385 57.8613 764.207 Q59.1026 762.998 59.1026 759.337 L59.1026 753.322 L64.0042 753.322 L64.0042 759.337 Q64.0042 766.117 61.4897 768.695 Q58.9434 771.273 52.2594 771.273 L32.9077 771.273 L32.9077 775.57 L28.3562 775.57 L28.3562 771.273 L18.2347 771.273 L18.2347 765.385 Z" fill="#000000" fill-rule="evenodd" fill-opacity="1" /><path clip-path="url(#clip370)" d="M14.5426 746.542 L14.5426 741.45 Q22.0542 736.675 29.2474 734.32 Q36.4406 731.933 43.5384 731.933 Q50.668 731.933 57.8931 734.32 Q65.1182 736.675 72.5979 741.45 L72.5979 746.542 Q65.3091 742.309 58.1159 740.24 Q50.8908 738.14 43.5384 738.14 Q36.186 738.14 29.0246 740.24 Q21.8632 742.309 14.5426 746.542 Z" fill="#000000" fill-rule="evenodd" fill-opacity="1" /><path clip-path="url(#clip370)" d="M871.976 12.096 L882.994 12.096 L909.811 62.6918 L909.811 12.096 L917.751 12.096 L917.751 72.576 L906.733 72.576 L879.916 21.9802 L879.916 72.576 L871.976 72.576 L871.976 12.096 Z" fill="#000000" fill-rule="evenodd" fill-opacity="1" /><path clip-path="url(#clip370)" d="M932.942 54.671 L932.942 27.2059 L940.396 27.2059 L940.396 54.3874 Q940.396 60.8284 942.907 64.0691 Q945.419 67.2693 950.442 67.2693 Q956.478 67.2693 959.962 63.421 Q963.486 59.5726 963.486 52.9291 L963.486 27.2059 L970.94 27.2059 L970.94 72.576 L963.486 72.576 L963.486 65.6084 Q960.772 69.7404 957.166 71.7658 Q953.602 73.7508 948.862 73.7508 Q941.044 73.7508 936.993 68.8897 Q932.942 64.0286 932.942 54.671 M951.698 26.1121 L951.698 26.1121 Z" fill="#000000" fill-rule="evenodd" fill-opacity="1" /><path clip-path="url(#clip370)" d="M1021.62 35.9153 Q1024.41 30.8922 1028.3 28.5022 Q1032.19 26.1121 1037.46 26.1121 Q1044.54 26.1121 1048.39 31.0947 Q1052.24 36.0368 1052.24 45.1919 L1052.24 72.576 L1044.75 72.576 L1044.75 45.4349 Q1044.75 38.913 1042.44 35.7533 Q1040.13 32.5936 1035.39 32.5936 Q1029.6 32.5936 1026.23 36.4419 Q1022.87 40.2903 1022.87 46.9338 L1022.87 72.576 L1015.38 72.576 L1015.38 45.4349 Q1015.38 38.8725 1013.07 35.7533 Q1010.76 32.5936 1005.94 32.5936 Q1000.23 32.5936 996.865 36.4824 Q993.503 40.3308 993.503 46.9338 L993.503 72.576 L986.009 72.576 L986.009 27.2059 L993.503 27.2059 L993.503 34.2544 Q996.055 30.082 999.62 28.0971 Q1003.18 26.1121 1008.09 26.1121 Q1013.03 26.1121 1016.47 28.6237 Q1019.96 31.1352 1021.62 35.9153 Z" fill="#000000" fill-rule="evenodd" fill-opacity="1" /><path clip-path="url(#clip370)" d="M1099.68 49.9314 Q1099.68 41.7081 1096.27 37.0496 Q1092.91 32.3505 1087 32.3505 Q1081.08 32.3505 1077.68 37.0496 Q1074.32 41.7081 1074.32 49.9314 Q1074.32 58.1548 1077.68 62.8538 Q1081.08 67.5124 1087 67.5124 Q1092.91 67.5124 1096.27 62.8538 Q1099.68 58.1548 1099.68 49.9314 M1074.32 34.0924 Q1076.67 30.0415 1080.23 28.0971 Q1083.84 26.1121 1088.82 26.1121 Q1097.08 26.1121 1102.23 32.6746 Q1107.41 39.2371 1107.41 49.9314 Q1107.41 60.6258 1102.23 67.1883 Q1097.08 73.7508 1088.82 73.7508 Q1083.84 73.7508 1080.23 71.8063 Q1076.67 69.8214 1074.32 65.7705 L1074.32 72.576 L1066.82 72.576 L1066.82 9.54393 L1074.32 9.54393 L1074.32 34.0924 Z" fill="#000000" fill-rule="evenodd" fill-opacity="1" /><path clip-path="url(#clip370)" d="M1158.58 48.0275 L1158.58 51.6733 L1124.31 51.6733 Q1124.79 59.3701 1128.92 63.421 Q1133.1 67.4314 1140.51 67.4314 Q1144.8 67.4314 1148.81 66.3781 Q1152.87 65.3249 1156.84 63.2184 L1156.84 70.267 Q1152.83 71.9684 1148.61 72.8596 Q1144.4 73.7508 1140.06 73.7508 Q1129.21 73.7508 1122.85 67.4314 Q1116.53 61.1119 1116.53 50.3365 Q1116.53 39.1965 1122.52 32.6746 Q1128.56 26.1121 1138.77 26.1121 Q1147.92 26.1121 1153.23 32.0264 Q1158.58 37.9003 1158.58 48.0275 M1151.12 45.84 Q1151.04 39.7232 1147.68 36.0774 Q1144.36 32.4315 1138.85 32.4315 Q1132.61 32.4315 1128.84 35.9558 Q1125.12 39.4801 1124.55 45.8805 L1151.12 45.84 Z" fill="#000000" fill-rule="evenodd" fill-opacity="1" /><path clip-path="url(#clip370)" d="M1197.1 34.1734 Q1195.85 33.4443 1194.35 33.1202 Q1192.89 32.7556 1191.11 32.7556 Q1184.79 32.7556 1181.38 36.8875 Q1178.02 40.9789 1178.02 48.6757 L1178.02 72.576 L1170.53 72.576 L1170.53 27.2059 L1178.02 27.2059 L1178.02 34.2544 Q1180.37 30.1225 1184.14 28.1376 Q1187.91 26.1121 1193.29 26.1121 Q1194.06 26.1121 1195 26.2337 Q1195.93 26.3147 1197.06 26.5172 L1197.1 34.1734 Z" fill="#000000" fill-rule="evenodd" fill-opacity="1" /><path clip-path="url(#clip370)" d="M1248.87 32.4315 Q1242.88 32.4315 1239.39 37.1306 Q1235.91 41.7891 1235.91 49.9314 Q1235.91 58.0738 1239.35 62.7728 Q1242.84 67.4314 1248.87 67.4314 Q1254.83 67.4314 1258.31 62.7323 Q1261.79 58.0333 1261.79 49.9314 Q1261.79 41.8701 1258.31 37.1711 Q1254.83 32.4315 1248.87 32.4315 M1248.87 26.1121 Q1258.59 26.1121 1264.14 32.4315 Q1269.69 38.7509 1269.69 49.9314 Q1269.69 61.0714 1264.14 67.4314 Q1258.59 73.7508 1248.87 73.7508 Q1239.11 73.7508 1233.56 67.4314 Q1228.05 61.0714 1228.05 49.9314 Q1228.05 38.7509 1233.56 32.4315 Q1239.11 26.1121 1248.87 26.1121 Z" fill="#000000" fill-rule="evenodd" fill-opacity="1" /><path clip-path="url(#clip370)" d="M1305.02 9.54393 L1305.02 15.7418 L1297.89 15.7418 Q1293.88 15.7418 1292.3 17.3622 Q1290.76 18.9825 1290.76 23.1955 L1290.76 27.2059 L1303.03 27.2059 L1303.03 32.9987 L1290.76 32.9987 L1290.76 72.576 L1283.26 72.576 L1283.26 32.9987 L1276.13 32.9987 L1276.13 27.2059 L1283.26 27.2059 L1283.26 24.0462 Q1283.26 16.471 1286.79 13.0277 Q1290.31 9.54393 1297.97 9.54393 L1305.02 9.54393 Z" fill="#000000" fill-rule="evenodd" fill-opacity="1" /><path clip-path="url(#clip370)" d="M1337.95 12.096 L1346.13 12.096 L1346.13 72.576 L1337.95 72.576 L1337.95 12.096 Z" fill="#000000" fill-rule="evenodd" fill-opacity="1" /><path clip-path="url(#clip370)" d="M1399.81 45.1919 L1399.81 72.576 L1392.36 72.576 L1392.36 45.4349 Q1392.36 38.994 1389.84 35.7938 Q1387.33 32.5936 1382.31 32.5936 Q1376.27 32.5936 1372.79 36.4419 Q1369.31 40.2903 1369.31 46.9338 L1369.31 72.576 L1361.81 72.576 L1361.81 27.2059 L1369.31 27.2059 L1369.31 34.2544 Q1371.98 30.163 1375.58 28.1376 Q1379.23 26.1121 1383.97 26.1121 Q1391.79 26.1121 1395.8 30.9732 Q1399.81 35.7938 1399.81 45.1919 Z" fill="#000000" fill-rule="evenodd" fill-opacity="1" /><path clip-path="url(#clip370)" d="M1437.64 9.54393 L1437.64 15.7418 L1430.51 15.7418 Q1426.5 15.7418 1424.92 17.3622 Q1423.39 18.9825 1423.39 23.1955 L1423.39 27.2059 L1435.66 27.2059 L1435.66 32.9987 L1423.39 32.9987 L1423.39 72.576 L1415.89 72.576 L1415.89 32.9987 L1408.76 32.9987 L1408.76 27.2059 L1415.89 27.2059 L1415.89 24.0462 Q1415.89 16.471 1419.42 13.0277 Q1422.94 9.54393 1430.6 9.54393 L1437.64 9.54393 Z" fill="#000000" fill-rule="evenodd" fill-opacity="1" /><path clip-path="url(#clip370)" d="M1482.69 48.0275 L1482.69 51.6733 L1448.42 51.6733 Q1448.91 59.3701 1453.04 63.421 Q1457.21 67.4314 1464.62 67.4314 Q1468.92 67.4314 1472.93 66.3781 Q1476.98 65.3249 1480.95 63.2184 L1480.95 70.267 Q1476.94 71.9684 1472.73 72.8596 Q1468.51 73.7508 1464.18 73.7508 Q1453.32 73.7508 1446.96 67.4314 Q1440.64 61.1119 1440.64 50.3365 Q1440.64 39.1965 1446.64 32.6746 Q1452.67 26.1121 1462.88 26.1121 Q1472.04 26.1121 1477.34 32.0264 Q1482.69 37.9003 1482.69 48.0275 M1475.24 45.84 Q1475.16 39.7232 1471.79 36.0774 Q1468.47 32.4315 1462.96 32.4315 Q1456.72 32.4315 1452.96 35.9558 Q1449.23 39.4801 1448.66 45.8805 L1475.24 45.84 Z" fill="#000000" fill-rule="evenodd" fill-opacity="1" /><path clip-path="url(#clip370)" d="M1527.57 28.9478 L1527.57 35.9153 Q1524.41 34.1734 1521.21 33.3227 Q1518.05 32.4315 1514.81 32.4315 Q1507.56 32.4315 1503.55 37.0496 Q1499.54 41.6271 1499.54 49.9314 Q1499.54 58.2358 1503.55 62.8538 Q1507.56 67.4314 1514.81 67.4314 Q1518.05 67.4314 1521.21 66.5807 Q1524.41 65.6895 1527.57 63.9476 L1527.57 70.8341 Q1524.46 72.2924 1521.09 73.0216 Q1517.77 73.7508 1514 73.7508 Q1503.75 73.7508 1497.72 67.3098 Q1491.68 60.8689 1491.68 49.9314 Q1491.68 38.832 1497.76 32.472 Q1503.88 26.1121 1514.49 26.1121 Q1517.93 26.1121 1521.21 26.8413 Q1524.5 27.5299 1527.57 28.9478 Z" fill="#000000" fill-rule="evenodd" fill-opacity="1" /><path clip-path="url(#clip370)" d="M1547.91 14.324 L1547.91 27.2059 L1563.26 27.2059 L1563.26 32.9987 L1547.91 32.9987 L1547.91 57.6282 Q1547.91 63.1779 1549.41 64.7578 Q1550.95 66.3376 1555.61 66.3376 L1563.26 66.3376 L1563.26 72.576 L1555.61 72.576 Q1546.98 72.576 1543.7 69.3758 Q1540.42 66.1351 1540.42 57.6282 L1540.42 32.9987 L1534.95 32.9987 L1534.95 27.2059 L1540.42 27.2059 L1540.42 14.324 L1547.91 14.324 Z" fill="#000000" fill-rule="evenodd" fill-opacity="1" /><path clip-path="url(#clip370)" d="M1573.07 27.2059 L1580.52 27.2059 L1580.52 72.576 L1573.07 72.576 L1573.07 27.2059 M1573.07 9.54393 L1580.52 9.54393 L1580.52 18.9825 L1573.07 18.9825 L1573.07 9.54393 Z" fill="#000000" fill-rule="evenodd" fill-opacity="1" /><path clip-path="url(#clip370)" d="M1613.7 32.4315 Q1607.7 32.4315 1604.22 37.1306 Q1600.73 41.7891 1600.73 49.9314 Q1600.73 58.0738 1604.18 62.7728 Q1607.66 67.4314 1613.7 67.4314 Q1619.65 67.4314 1623.14 62.7323 Q1626.62 58.0333 1626.62 49.9314 Q1626.62 41.8701 1623.14 37.1711 Q1619.65 32.4315 1613.7 32.4315 M1613.7 26.1121 Q1623.42 26.1121 1628.97 32.4315 Q1634.52 38.7509 1634.52 49.9314 Q1634.52 61.0714 1628.97 67.4314 Q1623.42 73.7508 1613.7 73.7508 Q1603.93 73.7508 1598.38 67.4314 Q1592.87 61.0714 1592.87 49.9314 Q1592.87 38.7509 1598.38 32.4315 Q1603.93 26.1121 1613.7 26.1121 Z" fill="#000000" fill-rule="evenodd" fill-opacity="1" /><path clip-path="url(#clip370)" d="M1684.59 45.1919 L1684.59 72.576 L1677.13 72.576 L1677.13 45.4349 Q1677.13 38.994 1674.62 35.7938 Q1672.11 32.5936 1667.09 32.5936 Q1661.05 32.5936 1657.57 36.4419 Q1654.08 40.2903 1654.08 46.9338 L1654.08 72.576 L1646.59 72.576 L1646.59 27.2059 L1654.08 27.2059 L1654.08 34.2544 Q1656.76 30.163 1660.36 28.1376 Q1664.01 26.1121 1668.75 26.1121 Q1676.57 26.1121 1680.58 30.9732 Q1684.59 35.7938 1684.59 45.1919 Z" fill="#000000" fill-rule="evenodd" fill-opacity="1" /><path clip-path="url(#clip370)" d="M1728.38 28.5427 L1728.38 35.5912 Q1725.22 33.9709 1721.82 33.1607 Q1718.41 32.3505 1714.77 32.3505 Q1709.22 32.3505 1706.42 34.0519 Q1703.67 35.7533 1703.67 39.156 Q1703.67 41.7486 1705.65 43.2475 Q1707.64 44.7058 1713.63 46.0426 L1716.18 46.6097 Q1724.12 48.3111 1727.45 51.4303 Q1730.81 54.509 1730.81 60.0587 Q1730.81 66.3781 1725.79 70.0644 Q1720.8 73.7508 1712.05 73.7508 Q1708.41 73.7508 1704.44 73.0216 Q1700.51 72.3329 1696.13 70.9151 L1696.13 63.2184 Q1700.26 65.3654 1704.27 66.4591 Q1708.29 67.5124 1712.21 67.5124 Q1717.48 67.5124 1720.32 65.73 Q1723.15 63.9071 1723.15 60.6258 Q1723.15 57.5877 1721.09 55.9673 Q1719.06 54.3469 1712.13 52.8481 L1709.54 52.2405 Q1702.61 50.7821 1699.54 47.7845 Q1696.46 44.7463 1696.46 39.4801 Q1696.46 33.0797 1700.99 29.5959 Q1705.53 26.1121 1713.88 26.1121 Q1718.01 26.1121 1721.65 26.7198 Q1725.3 27.3274 1728.38 28.5427 Z" fill="#000000" fill-rule="evenodd" fill-opacity="1" /><polyline clip-path="url(#clip372)" style="stroke:#009af9; stroke-linecap:butt; stroke-linejoin:round; stroke-width:4; stroke-opacity:1; fill:none" points="
  250.028,1386.22 250.085,1386.22 250.098,1386.22 250.113,1386.22 250.131,1386.22 250.15,1386.22 250.171,1386.22 250.196,1386.22 250.223,1386.22 250.254,1386.22 
  250.289,1386.22 250.328,1386.22 250.372,1386.22 250.421,1386.22 250.477,1386.23 250.54,1386.23 250.61,1386.23 250.689,1386.23 250.778,1386.23 250.878,1386.23 
  250.991,1386.23 251.118,1386.23 251.261,1386.23 251.421,1386.23 251.602,1386.23 251.805,1386.23 252.028,1386.24 252.27,1386.24 252.528,1386.24 252.803,1386.24 
  253.092,1386.24 253.396,1386.25 253.712,1386.25 254.038,1386.25 254.378,1386.25 254.728,1386.25 255.084,1386.26 255.449,1386.26 255.82,1386.26 256.2,1386.26 
  256.586,1386.27 256.979,1386.27 257.38,1386.27 257.786,1386.27 258.197,1386.28 258.612,1386.28 259.031,1386.28 259.452,1386.28 259.875,1386.29 260.302,1386.29 
  260.729,1386.29 261.158,1386.29 261.59,1386.29 262.024,1386.3 262.464,1386.3 262.905,1386.3 263.346,1386.3 263.787,1386.31 264.23,1386.31 264.677,1386.31 
  265.128,1386.31 265.583,1386.32 266.042,1386.32 266.506,1386.32 266.975,1386.32 267.447,1386.32 267.924,1386.33 268.408,1386.33 268.902,1386.33 269.401,1386.33 
  269.909,1386.33 270.422,1386.34 270.941,1386.34 271.464,1386.34 271.99,1386.34 272.52,1386.34 273.054,1386.35 273.593,1386.35 274.134,1386.35 274.672,1386.35 
  275.218,1386.35 275.771,1386.35 276.331,1386.36 276.896,1386.36 277.465,1386.36 278.041,1386.36 278.627,1386.36 279.223,1386.36 279.83,1386.37 280.442,1386.37 
  281.051,1386.37 281.666,1386.37 282.282,1386.37 282.902,1386.37 283.525,1386.37 284.149,1386.38 284.779,1386.38 285.411,1386.38 286.041,1386.38 286.671,1386.38 
  287.308,1386.38 287.952,1386.38 288.603,1386.39 289.27,1386.39 289.95,1386.39 290.644,1386.39 291.352,1386.39 292.068,1386.39 292.789,1386.39 293.519,1386.39 
  294.26,1386.39 295.013,1386.39 295.776,1386.39 296.545,1386.39 297.314,1386.39 298.095,1386.4 298.892,1386.4 299.709,1386.4 300.539,1386.4 301.389,1386.4 
  302.257,1386.4 303.149,1386.39 304.065,1386.39 305.004,1386.39 305.968,1386.39 306.957,1386.39 307.982,1386.39 309.041,1386.39 310.124,1386.39 311.221,1386.39 
  312.327,1386.38 313.439,1386.38 314.525,1386.38 315.612,1386.38 316.696,1386.38 317.788,1386.38 318.881,1386.38 319.982,1386.38 321.098,1386.38 322.213,1386.38 
  323.343,1386.37 324.472,1386.37 325.621,1386.37 326.791,1386.37 327.984,1386.37 329.222,1386.36 330.504,1386.36 331.818,1386.36 333.164,1386.35 334.623,1386.35 
  336.145,1386.34 337.735,1386.34 339.432,1386.33 341.109,1386.33 342.919,1386.32 344.779,1386.31 346.736,1386.3 348.78,1386.29 350.84,1386.28 353.041,1386.27 
  355.46,1386.26 358.182,1386.24 361.153,1386.22 364.161,1386.2 367.331,1386.18 370.418,1386.16 373.78,1386.13 377.562,1386.1 381.817,1386.07 386.25,1386.03 
  391.237,1385.98 396.847,1385.92 403.159,1385.85 410.259,1385.76 418.247,1385.66 427.234,1385.55 433.958,1385.46 440.08,1385.39 445.861,1385.31 451.549,1385.23 
  457.948,1385.13 464.139,1385.04 470.57,1384.94 475.061,1384.89 478.82,1384.83 483.048,1384.76 487.328,1384.69 491.644,1384.63 495.502,1384.56 499.636,1384.49 
  503.737,1384.43 507.671,1384.36 511.738,1384.28 516.104,1384.19 520.972,1384.08 526.003,1383.96 531.57,1383.82 537.832,1383.66 544.04,1383.48 550.942,1383.27 
  558.706,1383.01 567.441,1382.68 577.267,1382.28 588.322,1381.75 598.676,1381.2 610.325,1380.48 619.033,1379.83 627.051,1379.21 634.641,1378.57 643.18,1377.75 
  650.26,1377 657.04,1376.29 664.668,1375.38 671.442,1374.51 678.097,1373.64 685.583,1372.6 692.88,1371.51 700.871,1370.24 709.499,1368.77 718.396,1367.11 
  728.276,1365.06 737.451,1363.17 747.773,1360.93 759.386,1358.43 770.37,1356.23 778.493,1354.33 786.401,1352.19 795.297,1349.34 805.305,1345.63 814.609,1342.45 
  825.076,1338.91 831.939,1336.53 838.613,1333.97 846.121,1330.82 854.567,1326.63 864.069,1321.48 874.76,1315.51 886.786,1308.61 895.842,1303.08 906.03,1296.93 
  914.509,1291.15 923.308,1285.47 931.187,1280.33 938.001,1275.9 944.338,1271.59 950.334,1267.76 955.725,1264.05 960.951,1260.84 965.575,1258.01 969.745,1255.57 
  973.61,1253.32 977.239,1251.07 980.67,1248.87 984.054,1246.59 987.429,1244.05 990.964,1241.3 994.525,1238.73 998.049,1235.96 1001.46,1233.26 1004.99,1230.48 
  1008.38,1227.4 1012.16,1223.46 1016.41,1218.83 1021.06,1213.35 1026.26,1206.57 1032.12,1199.1 1038.32,1191.15 1044.37,1183.02 1050.96,1174.39 1057.42,1165.62 
  1063.72,1157.06 1070.02,1149.13 1075.48,1141.76 1080.74,1134.14 1086.66,1125.48 1091.91,1117.62 1097.52,1108.6 1103.14,1099.22 1109.07,1089.09 1114.56,1078.72 
  1120.74,1065.48 1127.04,1050.65 1133.61,1031.78 1139.25,1014.91 1144.73,998.36 1150.21,981.916 1155.65,965.188 1161.09,949.639 1166.67,933.418 1172.28,916.891 
  1177.84,898.502 1183.1,878.142 1187.94,858.73 1192.49,841.609 1197.12,824.111 1201.65,806.501 1206.02,790.198 1210.47,775.118 1214.92,757.945 1219.22,739.859 
  1223.32,722.847 1227.31,706.622 1231.29,690.703 1235.2,676.201 1239.14,662.112 1243.06,647.347 1246.91,633.074 1250.68,620.238 1254.5,607.651 1258.26,596.524 
  1262.01,586.088 1265.71,576.401 1269.33,565.884 1272.97,553.927 1276.58,540.308 1280.06,528.069 1283.55,515.668 1287,502.583 1290.31,490.329 1293.63,477.901 
  1296.89,465.583 1300.09,452.871 1303.19,440.164 1306.23,428.071 1309.19,416.876 1312.14,405.805 1315.09,393.711 1317.92,382.519 1320.71,372.224 1323.53,363.138 
  1326.37,353.507 1329.17,342.96 1331.89,334.337 1334.65,326.979 1337.47,320.402 1340.29,314.136 1343.14,307.297 1345.98,299.312 1348.76,290.502 1351.45,282.241 
  1354.12,274.759 1356.79,267.639 1359.44,261.309 1362.13,255.288 1364.81,250.357 1367.51,246.009 1370.24,241.586 1372.97,237.952 1375.71,235.249 1378.48,234.536 
  1381.28,234.778 1384.06,233.555 1386.89,231.878 1389.71,231.202 1392.55,230.231 1395.4,229.767 1398.27,229.135 1401.13,226.695 1403.96,225.561 1406.79,224.874 
  1409.65,224.254 1412.48,223.411 1415.34,222.05 1418.11,221.47 1420.93,221.016 1423.72,220.583 1426.5,219.795 1429.23,218.808 1431.94,218.769 1434.65,219.425 
  1437.39,219.917 1440.11,220.751 1442.82,222.95 1445.59,226.751 1448.45,231.623 1451.34,236.062 1454.26,240.332 1457.19,245.845 1460.18,252.067 1463.2,258.116 
  1466.25,264.906 1469.33,271.587 1472.44,278.157 1475.59,284.338 1478.75,290.864 1481.9,296.874 1485.09,303.393 1488.25,309.736 1491.43,316.505 1494.61,323.884 
  1497.85,332.081 1501.14,342.239 1504.5,351.922 1507.89,360.867 1511.3,369.055 1514.72,378.043 1518.11,387.674 1521.61,397.87 1525.16,407.81 1528.71,418.432 
  1532.32,429.276 1536,439.828 1539.69,449.44 1543.28,458.352 1546.75,468.359 1550.37,480.11 1554.18,492.231 1558.03,504.423 1561.94,516.912 1565.92,528.884 
  1569.91,539.513 1573.72,549.111 1577.4,557.871 1580.86,565.62 1584.18,573.088 1587.37,580.676 1590.64,588.389 1593.81,596.665 1597.01,604.709 1600.21,612.965 
  1603.35,622.114 1606.72,633.049 1610.47,645.933 1614.5,659.119 1618.62,673.279 1623.01,689.236 1627.53,706.056 1631.84,722.197 1636.24,737.772 1640.8,753.207 
  1645.71,769.09 1650.88,785.19 1656.27,801.657 1661.86,817.87 1667.6,834.234 1673.51,850.679 1679.54,866.623 1685.84,881.899 1691.65,895.355 1696.84,908.495 
  1702.68,923.563 1709.25,938.876 1715.39,951.971 1720.67,962.566 1725.64,973.08 1731.12,984.709 1736.73,996.776 1742.96,1010.83 1749.96,1026.47 1756.99,1041.12 
  1764.89,1056.77 1773.21,1073.32 1782.07,1090.31 1790.41,1104.98 1799.8,1121.12 1808.85,1136.02 1818.18,1150.01 1828.67,1165.27 1839.06,1179.42 1850.44,1193.87 
  1863.24,1209.31 1875.29,1222.67 1888.63,1236.72 1901.71,1249.73 1911.95,1259.27 1918.07,1264.94 1923.51,1269.77 1928.31,1273.88 1933.34,1278.09 1937.61,1281.43 
  1942.3,1284.94 1947.17,1288.47 1951.82,1291.66 1957.03,1295.1 1962.69,1298.68 1968.33,1302.11 1974.27,1305.49 1980.95,1309.09 1988.46,1313.03 1995.24,1316.3 
  2002.85,1319.8 2011.42,1323.8 2017.74,1326.52 2024.79,1329.28 2032.71,1332.28 2041.64,1335.61 2048.22,1337.96 2054.91,1340.31 2060.82,1342.3 2066.69,1344.18 
  2072.16,1345.8 2078.32,1347.56 2084.74,1349.36 2090.59,1350.96 2096.01,1352.38 2101.24,1353.7 2106.68,1355.01 2111.58,1356.13 2117.06,1357.31 2123.23,1358.58 
  2130.14,1359.96 2135.97,1361.11 2141.47,1362.15 2146.73,1363.11 2151.82,1363.99 2156.81,1364.82 2162.15,1365.65 2167.98,1366.53 2173.79,1367.37 2180.33,1368.28 
  2186.75,1369.12 2193.75,1370 2200.11,1370.75 2207.27,1371.56 2214.5,1372.35 2221.9,1373.15 2227.93,1373.76 2233.28,1374.31 2237.9,1374.77 2242.05,1375.16 
  2246.15,1375.54 2250.15,1375.88 2254.55,1376.23 2259.4,1376.61 2264.72,1376.99 2270.71,1377.39 2277.45,1377.85 2285.03,1378.34 2291.29,1378.73 2297.86,1379.11 
  2304.51,1379.49 2311.74,1379.86 2319.89,1380.27 2328.1,1380.67 2334.03,1380.94 2340.7,1381.23 2347.62,1381.52 2352.76,1381.72 
  "/>
<polyline clip-path="url(#clip372)" style="stroke:#e26f46; stroke-linecap:butt; stroke-linejoin:round; stroke-width:4; stroke-opacity:1; fill:none" points="
  250.028,1386.22 250.085,1386.22 250.098,1386.22 250.113,1386.22 250.131,1386.22 250.15,1386.22 250.171,1386.22 250.196,1386.22 250.223,1386.22 250.254,1386.22 
  250.289,1386.22 250.328,1386.22 250.372,1386.22 250.421,1386.22 250.477,1386.23 250.539,1386.23 250.61,1386.23 250.689,1386.23 250.778,1386.23 250.878,1386.23 
  250.991,1386.23 251.117,1386.23 251.26,1386.23 251.42,1386.23 251.601,1386.23 251.804,1386.23 252.03,1386.24 252.278,1386.24 252.547,1386.24 252.835,1386.24 
  253.14,1386.24 253.46,1386.24 253.795,1386.25 254.142,1386.25 254.501,1386.25 254.869,1386.25 255.246,1386.26 255.631,1386.26 256.022,1386.26 256.417,1386.26 
  256.817,1386.27 257.22,1386.27 257.628,1386.27 258.044,1386.27 258.465,1386.27 258.889,1386.28 259.317,1386.28 259.75,1386.28 260.184,1386.28 260.621,1386.29 
  261.06,1386.29 261.505,1386.29 261.955,1386.29 262.409,1386.3 262.865,1386.3 263.322,1386.3 263.784,1386.3 264.251,1386.3 264.72,1386.31 265.195,1386.31 
  265.676,1386.31 266.164,1386.31 266.656,1386.31 267.153,1386.32 267.658,1386.32 268.171,1386.32 268.69,1386.32 269.212,1386.32 269.738,1386.33 270.272,1386.33 
  270.812,1386.33 271.358,1386.33 271.907,1386.33 272.464,1386.34 273.029,1386.34 273.608,1386.34 274.203,1386.34 274.808,1386.34 275.423,1386.34 276.049,1386.34 
  276.683,1386.34 277.326,1386.35 277.991,1386.35 278.677,1386.35 279.39,1386.35 280.124,1386.35 280.884,1386.35 281.674,1386.35 282.486,1386.35 283.314,1386.35 
  284.16,1386.35 285.019,1386.35 285.896,1386.35 286.789,1386.35 287.692,1386.35 288.597,1386.35 289.515,1386.35 290.443,1386.35 291.352,1386.35 292.259,1386.35 
  293.162,1386.35 294.07,1386.35 294.975,1386.35 295.892,1386.35 296.82,1386.35 297.761,1386.35 298.712,1386.35 299.673,1386.35 300.66,1386.35 301.674,1386.34 
  302.697,1386.34 303.716,1386.34 304.749,1386.34 305.81,1386.34 306.898,1386.34 307.984,1386.34 309.065,1386.34 310.147,1386.34 311.217,1386.34 312.298,1386.33 
  313.405,1386.33 314.521,1386.33 315.66,1386.33 316.81,1386.33 317.97,1386.33 319.115,1386.32 320.288,1386.32 321.487,1386.32 322.66,1386.32 323.869,1386.32 
  325.123,1386.31 326.377,1386.31 327.641,1386.31 328.888,1386.31 330.15,1386.3 331.413,1386.3 332.695,1386.3 333.974,1386.3 335.269,1386.29 336.588,1386.29 
  337.928,1386.29 339.341,1386.28 340.806,1386.28 342.293,1386.27 343.827,1386.27 345.39,1386.26 346.993,1386.26 348.644,1386.25 350.336,1386.24 352.125,1386.24 
  354.025,1386.23 356.092,1386.21 358.395,1386.2 360.986,1386.18 363.702,1386.16 366.72,1386.15 369.694,1386.13 372.521,1386.11 375.075,1386.1 377.439,1386.09 
  379.773,1386.08 382.07,1386.07 384.429,1386.06 386.732,1386.05 388.992,1386.03 391.238,1386.02 393.662,1386 396.167,1385.99 398.599,1385.97 401.11,1385.96 
  403.562,1385.94 406.029,1385.93 408.497,1385.91 410.797,1385.9 413.208,1385.89 415.517,1385.87 417.846,1385.86 420.318,1385.84 422.669,1385.82 425.075,1385.81 
  427.507,1385.79 429.915,1385.77 432.415,1385.76 434.952,1385.74 437.364,1385.72 439.843,1385.7 442.165,1385.69 444.387,1385.68 446.496,1385.67 448.585,1385.65 
  450.65,1385.64 452.698,1385.63 454.699,1385.62 456.722,1385.6 458.699,1385.59 460.588,1385.58 462.486,1385.57 464.378,1385.56 466.312,1385.54 468.27,1385.53 
  470.339,1385.51 472.391,1385.49 474.626,1385.48 476.838,1385.46 479.184,1385.43 481.615,1385.4 484.35,1385.37 487.427,1385.33 490.888,1385.27 494.783,1385.22 
  498.917,1385.16 502.91,1385.1 506.779,1385.05 511.131,1384.98 515.765,1384.9 520.977,1384.81 526.591,1384.71 531.781,1384.63 536.683,1384.55 540.864,1384.48 
  545.454,1384.4 549.88,1384.31 554.508,1384.23 558.786,1384.15 562.928,1384.05 567.587,1383.93 572.83,1383.78 578.727,1383.61 584.118,1383.43 590.183,1383.2 
  594.385,1383.03 599.113,1382.85 604.432,1382.61 609.689,1382.38 615.603,1382.14 622.257,1381.89 627.978,1381.68 634.244,1381.47 638.829,1381.34 642.947,1381.22 
  646.802,1381.1 650.315,1381 653.769,1380.87 657.339,1380.75 660.795,1380.63 664.047,1380.53 667.02,1380.44 669.979,1380.34 672.944,1380.24 675.693,1380.16 
  678.365,1380.09 680.748,1380.02 683.114,1379.95 685.502,1379.87 687.903,1379.78 690.394,1379.68 692.976,1379.59 695.531,1379.48 698.129,1379.38 700.819,1379.27 
  703.467,1379.16 706.219,1379.04 708.952,1378.92 711.677,1378.79 714.582,1378.64 717.751,1378.47 721.106,1378.26 724.881,1378.01 729.128,1377.72 733.587,1377.41 
  738.529,1377.04 743.86,1376.65 749.276,1376.26 754.105,1375.84 759.538,1375.38 765.563,1374.94 769.918,1374.64 774.253,1374.33 778.281,1374.03 782.244,1373.72 
  786.224,1373.4 790.171,1373.07 794.025,1372.73 798.033,1372.34 802.338,1371.84 807.181,1371.31 812.586,1370.72 817.271,1370.2 822.007,1369.71 826.305,1369.25 
  830.692,1368.66 835.627,1367.94 841.178,1367.18 846.503,1366.45 851.62,1365.7 857.207,1364.89 862.485,1364.1 867.408,1363.33 872.634,1362.53 877.589,1361.76 
  882.376,1360.96 887.212,1360.05 892.574,1358.89 898.607,1357.51 905.394,1355.78 913.029,1353.8 921.618,1351.31 931.282,1348.2 942.153,1344.71 952.29,1341.03 
  962.674,1336.96 974.356,1331.57 985.77,1325.67 998.61,1317.12 1008.56,1310.32 1018.65,1303.4 1030,1295.49 1042.56,1285.28 1055.93,1274.24 1069.26,1260.26 
  1081.66,1244.42 1090.94,1230.92 1099.3,1217.83 1108.1,1203.37 1116.02,1189.87 1124.5,1174.39 1133.06,1157.39 1140.53,1142.76 1148.72,1126.81 1157.39,1109.46 
  1165.87,1091.16 1174.14,1073.17 1182.29,1057.51 1189,1045.55 1194.75,1034.82 1200.48,1023.54 1206.24,1011.39 1212.03,997.571 1217.92,983.305 1223.99,967.377 
  1229.96,951.277 1235.92,932.435 1241.7,912.469 1247.01,894.94 1252.31,877.439 1257.67,859.667 1262.87,841.796 1267.93,823.674 1272.86,804.984 1277.62,786.259 
  1282.05,769.317 1286.56,751.993 1290.97,735.276 1295.3,719.655 1299.61,703.524 1303.85,688.895 1308.05,673.962 1312.18,658.903 1316.23,644.311 1320.22,628.889 
  1324.12,614.337 1327.96,600.062 1331.77,586.376 1335.48,572.156 1339.16,557.279 1342.69,545.476 1346.29,533.788 1349.84,523.442 1353.35,514.489 1356.81,504.743 
  1360.26,496.069 1363.66,486.613 1367.05,477.189 1370.42,468.794 1373.76,459.672 1377.08,450.436 1380.38,441.911 1383.67,434.191 1386.93,425.479 1390.18,415.956 
  1393.38,405.857 1396.53,395.897 1399.64,386.87 1402.74,378.417 1405.85,369.12 1408.9,358.45 1411.83,347.836 1414.68,337.079 1417.48,324.948 1420.07,314.773 
  1422.65,304.713 1425.19,295.015 1427.71,285.828 1430.17,277.462 1432.66,270.08 1435.15,263.66 1437.71,256.963 1440.24,249.718 1442.75,242.128 1445.2,235.352 
  1447.64,229.014 1450.09,223.609 1452.57,218.547 1455.08,214.171 1457.58,210.305 1460.13,207.893 1462.73,205.842 1465.36,203.899 1468.02,200.948 1470.66,196.948 
  1473.24,194.383 1475.84,192.097 1478.47,189.904 1481.07,187.425 1483.68,184.906 1486.28,181.643 1488.78,179.492 1491.32,178.564 1493.9,178.13 1496.52,176.844 
  1499.09,174.916 1501.59,173.684 1504.12,172.106 1506.59,170.391 1509.04,167.748 1511.39,165.217 1513.69,163.11 1515.98,161.916 1518.27,161.082 1520.57,160.256 
  1522.83,160.283 1525.12,161.285 1527.47,162.453 1529.82,164.699 1532.27,166.73 1534.7,169.323 1537.14,172.484 1539.66,176.555 1542.22,181.3 1544.86,186.72 
  1547.54,192.899 1550.27,199.333 1553.07,206.354 1555.89,214.875 1558.79,224.839 1561.71,234.725 1564.68,244.964 1567.69,256.337 1570.72,267.731 1573.76,278.661 
  1576.88,289.493 1580.05,300.813 1583.24,312.762 1586.48,324.729 1589.75,337.293 1593.05,351.134 1596.28,363.693 1599.62,376.396 1603.03,389.375 1606.5,402.739 
  1609.99,415.843 1613.59,429.367 1617.22,442.7 1620.96,456.965 1624.72,470.539 1628.57,482.624 1632.39,494.716 1636.23,507.24 1640.2,521.053 1644.22,535.887 
  1648.36,551.681 1652.53,566.684 1656.85,582.061 1661.23,596.829 1665.69,611.629 1670.22,625.463 1674.7,638.635 1678.91,651.393 1683.4,665.066 1687.84,678.546 
  1692.29,692.445 1696.98,707.894 1701.87,725.316 1706.73,742.967 1711.55,760.408 1716.36,776.58 1721.4,792.607 1726.83,810.016 1732.38,828.882 1737.68,846.454 
  1742.43,861.321 1747.67,876.133 1753.57,891.797 1759.56,907.325 1766.01,923.132 1772.55,938.305 1778.68,951.326 1784.44,963.254 1789.71,974.896 1795.64,987.781 
  1802.3,1002.07 1809.21,1016.26 1816.47,1031.32 1824.2,1047.96 1831.84,1063.85 1839.14,1077.98 1847.35,1093.38 1856.32,1109.73 1863.74,1122.57 1871.82,1136.08 
  1880.69,1150.3 1888.61,1162.47 1896.18,1173.56 1904.13,1184.8 1911.05,1194.11 1917.84,1202.93 1924.39,1211.41 1929.83,1218.33 1934.77,1224.44 1938.77,1229.3 
  1942.46,1233.65 1946,1237.73 1949.39,1241.44 1952.88,1245.12 1956.47,1248.8 1959.95,1252.24 1963.63,1255.86 1967.02,1259.18 1970.32,1262.41 1973.3,1265.24 
  1976.22,1267.94 1979.18,1270.61 1982.06,1273.17 1984.86,1275.63 1987.56,1277.99 1990.07,1280.16 1992.55,1282.27 1994.88,1284.2 1997.2,1286.07 1999.5,1287.92 
  2001.73,1289.71 2003.84,1291.38 2005.89,1292.96 2007.97,1294.49 2010.13,1296.06 2012.29,1297.6 2014.45,1299.09 2016.72,1300.64 2018.96,1302.14 2021.22,1303.66 
  2023.44,1305.16 2025.52,1306.56 2027.49,1307.85 2029.48,1309.11 2031.48,1310.37 2033.46,1311.57 2035.52,1312.8 2037.57,1314.01 2039.62,1315.19 2041.71,1316.38 
  2043.8,1317.52 2045.97,1318.64 2048.42,1319.87 2051.08,1321.18 2053.85,1322.49 2056.91,1323.95 2060.01,1325.44 2062.81,1326.72 2065.86,1328.1 2068.89,1329.46 
  2071.71,1330.69 2074.57,1331.9 2077.51,1333.07 2080.83,1334.33 2084.56,1335.68 2088.76,1337.11 2093.48,1338.64 2098.79,1340.36 2104.77,1342.28 2109.23,1343.65 
  2114.26,1345.16 2119.08,1346.61 2123.69,1347.97 2127.74,1349.06 2132.29,1350.21 2137.41,1351.49 2142.26,1352.6 2147.71,1353.78 2153.85,1355.06 2160.74,1356.47 
  2168.49,1357.95 2177.21,1359.51 2185.13,1360.86 2194.03,1362.36 2204.05,1363.99 2209.34,1364.8 2215.29,1365.72 2219.02,1366.29 2223.22,1366.92 2227.07,1367.5 
  2230.76,1368.04 2234.36,1368.55 2237.96,1369.06 2241.47,1369.53 2244.87,1369.98 2248.36,1370.42 2252.22,1370.88 2256.31,1371.34 2260.91,1371.84 2265.86,1372.35 
  2271.41,1372.89 2277.67,1373.47 2284.7,1374.11 2291.59,1374.68 2299.35,1375.32 2308.07,1376 2312.84,1376.35 2318.2,1376.73 2324.24,1377.15 2331.03,1377.6 
  2337.69,1378 2345.18,1378.43 2352.76,1378.85 
  "/>
<path clip-path="url(#clip370)" d="
M1773.96 322.316 L2282.66 322.316 L2282.66 166.796 L1773.96 166.796  Z
  " fill="#ffffff" fill-rule="evenodd" fill-opacity="1"/>
<polyline clip-path="url(#clip370)" style="stroke:#000000; stroke-linecap:butt; stroke-linejoin:round; stroke-width:4; stroke-opacity:1; fill:none" points="
  1773.96,322.316 2282.66,322.316 2282.66,166.796 1773.96,166.796 1773.96,322.316 
  "/>
<polyline clip-path="url(#clip370)" style="stroke:#009af9; stroke-linecap:butt; stroke-linejoin:round; stroke-width:4; stroke-opacity:1; fill:none" points="
  1797.32,218.636 1937.51,218.636 
  "/>
<path clip-path="url(#clip370)" d="M1960.87 201.356 L1990.11 201.356 L1990.11 205.291 L1977.84 205.291 L1977.84 235.916 L1973.14 235.916 L1973.14 205.291 L1960.87 205.291 L1960.87 201.356 Z" fill="#000000" fill-rule="evenodd" fill-opacity="1" /><path clip-path="url(#clip370)" d="M2002.49 213.971 Q2001.77 213.555 2000.92 213.37 Q2000.08 213.161 1999.06 213.161 Q1995.45 213.161 1993.51 215.522 Q1991.59 217.86 1991.59 222.258 L1991.59 235.916 L1987.3 235.916 L1987.3 209.99 L1991.59 209.99 L1991.59 214.018 Q1992.93 211.657 1995.08 210.522 Q1997.24 209.365 2000.31 209.365 Q2000.75 209.365 2001.29 209.434 Q2001.82 209.481 2002.47 209.596 L2002.49 213.971 Z" fill="#000000" fill-rule="evenodd" fill-opacity="1" /><path clip-path="url(#clip370)" d="M2018.74 222.883 Q2013.58 222.883 2011.59 224.064 Q2009.6 225.244 2009.6 228.092 Q2009.6 230.36 2011.08 231.703 Q2012.58 233.022 2015.15 233.022 Q2018.69 233.022 2020.82 230.522 Q2022.98 227.999 2022.98 223.832 L2022.98 222.883 L2018.74 222.883 M2027.24 221.124 L2027.24 235.916 L2022.98 235.916 L2022.98 231.981 Q2021.52 234.342 2019.34 235.476 Q2017.17 236.587 2014.02 236.587 Q2010.04 236.587 2007.68 234.365 Q2005.34 232.119 2005.34 228.369 Q2005.34 223.994 2008.25 221.772 Q2011.19 219.55 2017 219.55 L2022.98 219.55 L2022.98 219.133 Q2022.98 216.194 2021.03 214.596 Q2019.11 212.976 2015.61 212.976 Q2013.39 212.976 2011.29 213.508 Q2009.18 214.041 2007.24 215.106 L2007.24 211.17 Q2009.57 210.268 2011.77 209.828 Q2013.97 209.365 2016.05 209.365 Q2021.68 209.365 2024.46 212.282 Q2027.24 215.198 2027.24 221.124 Z" fill="#000000" fill-rule="evenodd" fill-opacity="1" /><path clip-path="url(#clip370)" d="M2036.01 209.99 L2040.27 209.99 L2040.27 236.379 Q2040.27 241.332 2038.37 243.555 Q2036.49 245.777 2032.3 245.777 L2030.68 245.777 L2030.68 242.166 L2031.82 242.166 Q2034.25 242.166 2035.13 241.031 Q2036.01 239.92 2036.01 236.379 L2036.01 209.99 M2036.01 199.897 L2040.27 199.897 L2040.27 205.291 L2036.01 205.291 L2036.01 199.897 Z" fill="#000000" fill-rule="evenodd" fill-opacity="1" /><path clip-path="url(#clip370)" d="M2071.36 221.888 L2071.36 223.971 L2051.77 223.971 Q2052.05 228.369 2054.41 230.684 Q2056.8 232.976 2061.03 232.976 Q2063.48 232.976 2065.78 232.374 Q2068.09 231.772 2070.36 230.569 L2070.36 234.596 Q2068.07 235.568 2065.66 236.078 Q2063.25 236.587 2060.78 236.587 Q2054.57 236.587 2050.94 232.976 Q2047.33 229.365 2047.33 223.207 Q2047.33 216.842 2050.75 213.115 Q2054.2 209.365 2060.04 209.365 Q2065.27 209.365 2068.3 212.745 Q2071.36 216.101 2071.36 221.888 M2067.1 220.638 Q2067.05 217.143 2065.13 215.059 Q2063.23 212.976 2060.08 212.976 Q2056.52 212.976 2054.36 214.99 Q2052.23 217.004 2051.91 220.661 L2067.1 220.638 Z" fill="#000000" fill-rule="evenodd" fill-opacity="1" /><path clip-path="url(#clip370)" d="M2097 210.985 L2097 214.967 Q2095.2 213.971 2093.37 213.485 Q2091.56 212.976 2089.71 212.976 Q2085.57 212.976 2083.28 215.615 Q2080.98 218.231 2080.98 222.976 Q2080.98 227.721 2083.28 230.36 Q2085.57 232.976 2089.71 232.976 Q2091.56 232.976 2093.37 232.49 Q2095.2 231.981 2097 230.985 L2097 234.92 Q2095.22 235.754 2093.3 236.17 Q2091.4 236.587 2089.25 236.587 Q2083.39 236.587 2079.94 232.906 Q2076.49 229.226 2076.49 222.976 Q2076.49 216.633 2079.97 212.999 Q2083.46 209.365 2089.53 209.365 Q2091.49 209.365 2093.37 209.782 Q2095.24 210.175 2097 210.985 Z" fill="#000000" fill-rule="evenodd" fill-opacity="1" /><path clip-path="url(#clip370)" d="M2108.62 202.629 L2108.62 209.99 L2117.4 209.99 L2117.4 213.3 L2108.62 213.3 L2108.62 227.374 Q2108.62 230.545 2109.48 231.448 Q2110.36 232.351 2113.02 232.351 L2117.4 232.351 L2117.4 235.916 L2113.02 235.916 Q2108.09 235.916 2106.22 234.087 Q2104.34 232.235 2104.34 227.374 L2104.34 213.3 L2101.22 213.3 L2101.22 209.99 L2104.34 209.99 L2104.34 202.629 L2108.62 202.629 Z" fill="#000000" fill-rule="evenodd" fill-opacity="1" /><path clip-path="url(#clip370)" d="M2133.04 212.976 Q2129.62 212.976 2127.63 215.661 Q2125.64 218.323 2125.64 222.976 Q2125.64 227.629 2127.6 230.314 Q2129.6 232.976 2133.04 232.976 Q2136.45 232.976 2138.44 230.291 Q2140.43 227.606 2140.43 222.976 Q2140.43 218.37 2138.44 215.684 Q2136.45 212.976 2133.04 212.976 M2133.04 209.365 Q2138.6 209.365 2141.77 212.976 Q2144.94 216.587 2144.94 222.976 Q2144.94 229.342 2141.77 232.976 Q2138.6 236.587 2133.04 236.587 Q2127.47 236.587 2124.29 232.976 Q2121.15 229.342 2121.15 222.976 Q2121.15 216.587 2124.29 212.976 Q2127.47 209.365 2133.04 209.365 Z" fill="#000000" fill-rule="evenodd" fill-opacity="1" /><path clip-path="url(#clip370)" d="M2167.03 213.971 Q2166.31 213.555 2165.45 213.37 Q2164.62 213.161 2163.6 213.161 Q2159.99 213.161 2158.04 215.522 Q2156.12 217.86 2156.12 222.258 L2156.12 235.916 L2151.84 235.916 L2151.84 209.99 L2156.12 209.99 L2156.12 214.018 Q2157.47 211.657 2159.62 210.522 Q2161.77 209.365 2164.85 209.365 Q2165.29 209.365 2165.82 209.434 Q2166.35 209.481 2167 209.596 L2167.03 213.971 Z" fill="#000000" fill-rule="evenodd" fill-opacity="1" /><path clip-path="url(#clip370)" d="M2182.28 238.323 Q2180.48 242.953 2178.76 244.365 Q2177.05 245.777 2174.18 245.777 L2170.78 245.777 L2170.78 242.212 L2173.28 242.212 Q2175.04 242.212 2176.01 241.379 Q2176.98 240.545 2178.16 237.443 L2178.92 235.499 L2168.44 209.99 L2172.95 209.99 L2181.05 230.268 L2189.16 209.99 L2193.67 209.99 L2182.28 238.323 Z" fill="#000000" fill-rule="evenodd" fill-opacity="1" /><path clip-path="url(#clip370)" d="M2216.03 231.981 L2223.67 231.981 L2223.67 205.615 L2215.36 207.282 L2215.36 203.022 L2223.62 201.356 L2228.3 201.356 L2228.3 231.981 L2235.94 231.981 L2235.94 235.916 L2216.03 235.916 L2216.03 231.981 Z" fill="#000000" fill-rule="evenodd" fill-opacity="1" /><polyline clip-path="url(#clip370)" style="stroke:#e26f46; stroke-linecap:butt; stroke-linejoin:round; stroke-width:4; stroke-opacity:1; fill:none" points="
  1797.32,270.476 1937.51,270.476 
  "/>
<path clip-path="url(#clip370)" d="M1960.87 253.196 L1990.11 253.196 L1990.11 257.131 L1977.84 257.131 L1977.84 287.756 L1973.14 287.756 L1973.14 257.131 L1960.87 257.131 L1960.87 253.196 Z" fill="#000000" fill-rule="evenodd" fill-opacity="1" /><path clip-path="url(#clip370)" d="M2002.49 265.811 Q2001.77 265.395 2000.92 265.21 Q2000.08 265.001 1999.06 265.001 Q1995.45 265.001 1993.51 267.362 Q1991.59 269.7 1991.59 274.098 L1991.59 287.756 L1987.3 287.756 L1987.3 261.83 L1991.59 261.83 L1991.59 265.858 Q1992.93 263.497 1995.08 262.362 Q1997.24 261.205 2000.31 261.205 Q2000.75 261.205 2001.29 261.274 Q2001.82 261.321 2002.47 261.436 L2002.49 265.811 Z" fill="#000000" fill-rule="evenodd" fill-opacity="1" /><path clip-path="url(#clip370)" d="M2018.74 274.723 Q2013.58 274.723 2011.59 275.904 Q2009.6 277.084 2009.6 279.932 Q2009.6 282.2 2011.08 283.543 Q2012.58 284.862 2015.15 284.862 Q2018.69 284.862 2020.82 282.362 Q2022.98 279.839 2022.98 275.672 L2022.98 274.723 L2018.74 274.723 M2027.24 272.964 L2027.24 287.756 L2022.98 287.756 L2022.98 283.821 Q2021.52 286.182 2019.34 287.316 Q2017.17 288.427 2014.02 288.427 Q2010.04 288.427 2007.68 286.205 Q2005.34 283.959 2005.34 280.209 Q2005.34 275.834 2008.25 273.612 Q2011.19 271.39 2017 271.39 L2022.98 271.39 L2022.98 270.973 Q2022.98 268.034 2021.03 266.436 Q2019.11 264.816 2015.61 264.816 Q2013.39 264.816 2011.29 265.348 Q2009.18 265.881 2007.24 266.946 L2007.24 263.01 Q2009.57 262.108 2011.77 261.668 Q2013.97 261.205 2016.05 261.205 Q2021.68 261.205 2024.46 264.122 Q2027.24 267.038 2027.24 272.964 Z" fill="#000000" fill-rule="evenodd" fill-opacity="1" /><path clip-path="url(#clip370)" d="M2036.01 261.83 L2040.27 261.83 L2040.27 288.219 Q2040.27 293.172 2038.37 295.395 Q2036.49 297.617 2032.3 297.617 L2030.68 297.617 L2030.68 294.006 L2031.82 294.006 Q2034.25 294.006 2035.13 292.871 Q2036.01 291.76 2036.01 288.219 L2036.01 261.83 M2036.01 251.737 L2040.27 251.737 L2040.27 257.131 L2036.01 257.131 L2036.01 251.737 Z" fill="#000000" fill-rule="evenodd" fill-opacity="1" /><path clip-path="url(#clip370)" d="M2071.36 273.728 L2071.36 275.811 L2051.77 275.811 Q2052.05 280.209 2054.41 282.524 Q2056.8 284.816 2061.03 284.816 Q2063.48 284.816 2065.78 284.214 Q2068.09 283.612 2070.36 282.409 L2070.36 286.436 Q2068.07 287.408 2065.66 287.918 Q2063.25 288.427 2060.78 288.427 Q2054.57 288.427 2050.94 284.816 Q2047.33 281.205 2047.33 275.047 Q2047.33 268.682 2050.75 264.955 Q2054.2 261.205 2060.04 261.205 Q2065.27 261.205 2068.3 264.585 Q2071.36 267.941 2071.36 273.728 M2067.1 272.478 Q2067.05 268.983 2065.13 266.899 Q2063.23 264.816 2060.08 264.816 Q2056.52 264.816 2054.36 266.83 Q2052.23 268.844 2051.91 272.501 L2067.1 272.478 Z" fill="#000000" fill-rule="evenodd" fill-opacity="1" /><path clip-path="url(#clip370)" d="M2097 262.825 L2097 266.807 Q2095.2 265.811 2093.37 265.325 Q2091.56 264.816 2089.71 264.816 Q2085.57 264.816 2083.28 267.455 Q2080.98 270.071 2080.98 274.816 Q2080.98 279.561 2083.28 282.2 Q2085.57 284.816 2089.71 284.816 Q2091.56 284.816 2093.37 284.33 Q2095.2 283.821 2097 282.825 L2097 286.76 Q2095.22 287.594 2093.3 288.01 Q2091.4 288.427 2089.25 288.427 Q2083.39 288.427 2079.94 284.746 Q2076.49 281.066 2076.49 274.816 Q2076.49 268.473 2079.97 264.839 Q2083.46 261.205 2089.53 261.205 Q2091.49 261.205 2093.37 261.622 Q2095.24 262.015 2097 262.825 Z" fill="#000000" fill-rule="evenodd" fill-opacity="1" /><path clip-path="url(#clip370)" d="M2108.62 254.469 L2108.62 261.83 L2117.4 261.83 L2117.4 265.14 L2108.62 265.14 L2108.62 279.214 Q2108.62 282.385 2109.48 283.288 Q2110.36 284.191 2113.02 284.191 L2117.4 284.191 L2117.4 287.756 L2113.02 287.756 Q2108.09 287.756 2106.22 285.927 Q2104.34 284.075 2104.34 279.214 L2104.34 265.14 L2101.22 265.14 L2101.22 261.83 L2104.34 261.83 L2104.34 254.469 L2108.62 254.469 Z" fill="#000000" fill-rule="evenodd" fill-opacity="1" /><path clip-path="url(#clip370)" d="M2133.04 264.816 Q2129.62 264.816 2127.63 267.501 Q2125.64 270.163 2125.64 274.816 Q2125.64 279.469 2127.6 282.154 Q2129.6 284.816 2133.04 284.816 Q2136.45 284.816 2138.44 282.131 Q2140.43 279.446 2140.43 274.816 Q2140.43 270.21 2138.44 267.524 Q2136.45 264.816 2133.04 264.816 M2133.04 261.205 Q2138.6 261.205 2141.77 264.816 Q2144.94 268.427 2144.94 274.816 Q2144.94 281.182 2141.77 284.816 Q2138.6 288.427 2133.04 288.427 Q2127.47 288.427 2124.29 284.816 Q2121.15 281.182 2121.15 274.816 Q2121.15 268.427 2124.29 264.816 Q2127.47 261.205 2133.04 261.205 Z" fill="#000000" fill-rule="evenodd" fill-opacity="1" /><path clip-path="url(#clip370)" d="M2167.03 265.811 Q2166.31 265.395 2165.45 265.21 Q2164.62 265.001 2163.6 265.001 Q2159.99 265.001 2158.04 267.362 Q2156.12 269.7 2156.12 274.098 L2156.12 287.756 L2151.84 287.756 L2151.84 261.83 L2156.12 261.83 L2156.12 265.858 Q2157.47 263.497 2159.62 262.362 Q2161.77 261.205 2164.85 261.205 Q2165.29 261.205 2165.82 261.274 Q2166.35 261.321 2167 261.436 L2167.03 265.811 Z" fill="#000000" fill-rule="evenodd" fill-opacity="1" /><path clip-path="url(#clip370)" d="M2182.28 290.163 Q2180.48 294.793 2178.76 296.205 Q2177.05 297.617 2174.18 297.617 L2170.78 297.617 L2170.78 294.052 L2173.28 294.052 Q2175.04 294.052 2176.01 293.219 Q2176.98 292.385 2178.16 289.283 L2178.92 287.339 L2168.44 261.83 L2172.95 261.83 L2181.05 282.108 L2189.16 261.83 L2193.67 261.83 L2182.28 290.163 Z" fill="#000000" fill-rule="evenodd" fill-opacity="1" /><path clip-path="url(#clip370)" d="M2219.25 283.821 L2235.57 283.821 L2235.57 287.756 L2213.62 287.756 L2213.62 283.821 Q2216.29 281.066 2220.87 276.436 Q2225.47 271.784 2226.66 270.441 Q2228.9 267.918 2229.78 266.182 Q2230.68 264.423 2230.68 262.733 Q2230.68 259.978 2228.74 258.242 Q2226.82 256.506 2223.72 256.506 Q2221.52 256.506 2219.06 257.27 Q2216.63 258.034 2213.85 259.585 L2213.85 254.862 Q2216.68 253.728 2219.13 253.149 Q2221.59 252.571 2223.62 252.571 Q2228.99 252.571 2232.19 255.256 Q2235.38 257.941 2235.38 262.432 Q2235.38 264.561 2234.57 266.483 Q2233.78 268.381 2231.68 270.973 Q2231.1 271.645 2228 274.862 Q2224.9 278.057 2219.25 283.821 Z" fill="#000000" fill-rule="evenodd" fill-opacity="1" /></svg>
