<?xml version="1.0" encoding="utf-8"?>
<svg xmlns="http://www.w3.org/2000/svg" xmlns:xlink="http://www.w3.org/1999/xlink" width="600" height="400" viewBox="0 0 2400 1600">
<defs>
  <clipPath id="clip320">
    <rect x="0" y="0" width="2400" height="1600"/>
  </clipPath>
</defs>
<path clip-path="url(#clip320)" d="
M0 1600 L2400 1600 L2400 0 L0 0  Z
  " fill="#ffffff" fill-rule="evenodd" fill-opacity="1"/>
<defs>
  <clipPath id="clip321">
    <rect x="480" y="0" width="1681" height="1600"/>
  </clipPath>
</defs>
<path clip-path="url(#clip320)" d="
M279.704 1423.18 L2352.76 1423.18 L2352.76 123.472 L279.704 123.472  Z
  " fill="#ffffff" fill-rule="evenodd" fill-opacity="1"/>
<defs>
  <clipPath id="clip322">
    <rect x="279" y="123" width="2074" height="1301"/>
  </clipPath>
</defs>
<polyline clip-path="url(#clip322)" style="stroke:#000000; stroke-linecap:butt; stroke-linejoin:round; stroke-width:2; stroke-opacity:0.1; fill:none" points="
  338.375,1423.18 338.375,123.472 
  "/>
<polyline clip-path="url(#clip322)" style="stroke:#000000; stroke-linecap:butt; stroke-linejoin:round; stroke-width:2; stroke-opacity:0.1; fill:none" points="
  693.959,1423.18 693.959,123.472 
  "/>
<polyline clip-path="url(#clip322)" style="stroke:#000000; stroke-linecap:butt; stroke-linejoin:round; stroke-width:2; stroke-opacity:0.1; fill:none" points="
  1049.54,1423.18 1049.54,123.472 
  "/>
<polyline clip-path="url(#clip322)" style="stroke:#000000; stroke-linecap:butt; stroke-linejoin:round; stroke-width:2; stroke-opacity:0.1; fill:none" points="
  1405.13,1423.18 1405.13,123.472 
  "/>
<polyline clip-path="url(#clip322)" style="stroke:#000000; stroke-linecap:butt; stroke-linejoin:round; stroke-width:2; stroke-opacity:0.1; fill:none" points="
  1760.71,1423.18 1760.71,123.472 
  "/>
<polyline clip-path="url(#clip322)" style="stroke:#000000; stroke-linecap:butt; stroke-linejoin:round; stroke-width:2; stroke-opacity:0.1; fill:none" points="
  2116.29,1423.18 2116.29,123.472 
  "/>
<polyline clip-path="url(#clip320)" style="stroke:#000000; stroke-linecap:butt; stroke-linejoin:round; stroke-width:4; stroke-opacity:1; fill:none" points="
  279.704,1423.18 2352.76,1423.18 
  "/>
<polyline clip-path="url(#clip320)" style="stroke:#000000; stroke-linecap:butt; stroke-linejoin:round; stroke-width:4; stroke-opacity:1; fill:none" points="
  338.375,1423.18 338.375,1404.28 
  "/>
<polyline clip-path="url(#clip320)" style="stroke:#000000; stroke-linecap:butt; stroke-linejoin:round; stroke-width:4; stroke-opacity:1; fill:none" points="
  693.959,1423.18 693.959,1404.28 
  "/>
<polyline clip-path="url(#clip320)" style="stroke:#000000; stroke-linecap:butt; stroke-linejoin:round; stroke-width:4; stroke-opacity:1; fill:none" points="
  1049.54,1423.18 1049.54,1404.28 
  "/>
<polyline clip-path="url(#clip320)" style="stroke:#000000; stroke-linecap:butt; stroke-linejoin:round; stroke-width:4; stroke-opacity:1; fill:none" points="
  1405.13,1423.18 1405.13,1404.28 
  "/>
<polyline clip-path="url(#clip320)" style="stroke:#000000; stroke-linecap:butt; stroke-linejoin:round; stroke-width:4; stroke-opacity:1; fill:none" points="
  1760.71,1423.18 1760.71,1404.28 
  "/>
<polyline clip-path="url(#clip320)" style="stroke:#000000; stroke-linecap:butt; stroke-linejoin:round; stroke-width:4; stroke-opacity:1; fill:none" points="
  2116.29,1423.18 2116.29,1404.28 
  "/>
<path clip-path="url(#clip320)" d="M338.375 1452.37 Q334.764 1452.37 332.935 1455.94 Q331.13 1459.48 331.13 1466.61 Q331.13 1473.71 332.935 1477.28 Q334.764 1480.82 338.375 1480.82 Q342.009 1480.82 343.815 1477.28 Q345.644 1473.71 345.644 1466.61 Q345.644 1459.48 343.815 1455.94 Q342.009 1452.37 338.375 1452.37 M338.375 1448.67 Q344.185 1448.67 347.241 1453.27 Q350.32 1457.86 350.32 1466.61 Q350.32 1475.33 347.241 1479.94 Q344.185 1484.52 338.375 1484.52 Q332.565 1484.52 329.486 1479.94 Q326.431 1475.33 326.431 1466.61 Q326.431 1457.86 329.486 1453.27 Q332.565 1448.67 338.375 1448.67 Z" fill="#000000" fill-rule="evenodd" fill-opacity="1" /><path clip-path="url(#clip320)" d="M653.565 1479.92 L661.204 1479.92 L661.204 1453.55 L652.894 1455.22 L652.894 1450.96 L661.158 1449.29 L665.834 1449.29 L665.834 1479.92 L673.473 1479.92 L673.473 1483.85 L653.565 1483.85 L653.565 1479.92 Z" fill="#000000" fill-rule="evenodd" fill-opacity="1" /><path clip-path="url(#clip320)" d="M692.917 1452.37 Q689.306 1452.37 687.477 1455.94 Q685.672 1459.48 685.672 1466.61 Q685.672 1473.71 687.477 1477.28 Q689.306 1480.82 692.917 1480.82 Q696.551 1480.82 698.357 1477.28 Q700.186 1473.71 700.186 1466.61 Q700.186 1459.48 698.357 1455.94 Q696.551 1452.37 692.917 1452.37 M692.917 1448.67 Q698.727 1448.67 701.783 1453.27 Q704.861 1457.86 704.861 1466.61 Q704.861 1475.33 701.783 1479.94 Q698.727 1484.52 692.917 1484.52 Q687.107 1484.52 684.028 1479.94 Q680.973 1475.33 680.973 1466.61 Q680.973 1457.86 684.028 1453.27 Q687.107 1448.67 692.917 1448.67 Z" fill="#000000" fill-rule="evenodd" fill-opacity="1" /><path clip-path="url(#clip320)" d="M723.079 1452.37 Q719.468 1452.37 717.639 1455.94 Q715.834 1459.48 715.834 1466.61 Q715.834 1473.71 717.639 1477.28 Q719.468 1480.82 723.079 1480.82 Q726.713 1480.82 728.519 1477.28 Q730.347 1473.71 730.347 1466.61 Q730.347 1459.48 728.519 1455.94 Q726.713 1452.37 723.079 1452.37 M723.079 1448.67 Q728.889 1448.67 731.945 1453.27 Q735.023 1457.86 735.023 1466.61 Q735.023 1475.33 731.945 1479.94 Q728.889 1484.52 723.079 1484.52 Q717.269 1484.52 714.19 1479.94 Q711.135 1475.33 711.135 1466.61 Q711.135 1457.86 714.19 1453.27 Q717.269 1448.67 723.079 1448.67 Z" fill="#000000" fill-rule="evenodd" fill-opacity="1" /><path clip-path="url(#clip320)" d="M1013.23 1479.92 L1029.55 1479.92 L1029.55 1483.85 L1007.61 1483.85 L1007.61 1479.92 Q1010.27 1477.16 1014.85 1472.53 Q1019.46 1467.88 1020.64 1466.54 Q1022.89 1464.01 1023.77 1462.28 Q1024.67 1460.52 1024.67 1458.83 Q1024.67 1456.07 1022.73 1454.34 Q1020.8 1452.6 1017.7 1452.6 Q1015.5 1452.6 1013.05 1453.37 Q1010.62 1454.13 1007.84 1455.68 L1007.84 1450.96 Q1010.67 1449.82 1013.12 1449.25 Q1015.57 1448.67 1017.61 1448.67 Q1022.98 1448.67 1026.17 1451.35 Q1029.37 1454.04 1029.37 1458.53 Q1029.37 1460.66 1028.56 1462.58 Q1027.77 1464.48 1025.67 1467.07 Q1025.09 1467.74 1021.98 1470.96 Q1018.88 1474.15 1013.23 1479.92 Z" fill="#000000" fill-rule="evenodd" fill-opacity="1" /><path clip-path="url(#clip320)" d="M1049.37 1452.37 Q1045.76 1452.37 1043.93 1455.94 Q1042.12 1459.48 1042.12 1466.61 Q1042.12 1473.71 1043.93 1477.28 Q1045.76 1480.82 1049.37 1480.82 Q1053 1480.82 1054.81 1477.28 Q1056.64 1473.71 1056.64 1466.61 Q1056.64 1459.48 1054.81 1455.94 Q1053 1452.37 1049.37 1452.37 M1049.37 1448.67 Q1055.18 1448.67 1058.23 1453.27 Q1061.31 1457.86 1061.31 1466.61 Q1061.31 1475.33 1058.23 1479.94 Q1055.18 1484.52 1049.37 1484.52 Q1043.56 1484.52 1040.48 1479.94 Q1037.42 1475.33 1037.42 1466.61 Q1037.42 1457.86 1040.48 1453.27 Q1043.56 1448.67 1049.37 1448.67 Z" fill="#000000" fill-rule="evenodd" fill-opacity="1" /><path clip-path="url(#clip320)" d="M1079.53 1452.37 Q1075.92 1452.37 1074.09 1455.94 Q1072.29 1459.48 1072.29 1466.61 Q1072.29 1473.71 1074.09 1477.28 Q1075.92 1480.82 1079.53 1480.82 Q1083.16 1480.82 1084.97 1477.28 Q1086.8 1473.71 1086.8 1466.61 Q1086.8 1459.48 1084.97 1455.94 Q1083.16 1452.37 1079.53 1452.37 M1079.53 1448.67 Q1085.34 1448.67 1088.4 1453.27 Q1091.47 1457.86 1091.47 1466.61 Q1091.47 1475.33 1088.4 1479.94 Q1085.34 1484.52 1079.53 1484.52 Q1073.72 1484.52 1070.64 1479.94 Q1067.59 1475.33 1067.59 1466.61 Q1067.59 1457.86 1070.64 1453.27 Q1073.72 1448.67 1079.53 1448.67 Z" fill="#000000" fill-rule="evenodd" fill-opacity="1" /><path clip-path="url(#clip320)" d="M1378.89 1465.22 Q1382.24 1465.94 1384.12 1468.2 Q1386.02 1470.47 1386.02 1473.81 Q1386.02 1478.92 1382.5 1481.72 Q1378.98 1484.52 1372.5 1484.52 Q1370.32 1484.52 1368.01 1484.08 Q1365.72 1483.67 1363.26 1482.81 L1363.26 1478.3 Q1365.21 1479.43 1367.52 1480.01 Q1369.84 1480.59 1372.36 1480.59 Q1376.76 1480.59 1379.05 1478.85 Q1381.36 1477.12 1381.36 1473.81 Q1381.36 1470.75 1379.21 1469.04 Q1377.08 1467.3 1373.26 1467.3 L1369.23 1467.3 L1369.23 1463.46 L1373.45 1463.46 Q1376.9 1463.46 1378.73 1462.09 Q1380.55 1460.7 1380.55 1458.11 Q1380.55 1455.45 1378.66 1454.04 Q1376.78 1452.6 1373.26 1452.6 Q1371.34 1452.6 1369.14 1453.02 Q1366.94 1453.44 1364.3 1454.31 L1364.3 1450.15 Q1366.97 1449.41 1369.28 1449.04 Q1371.62 1448.67 1373.68 1448.67 Q1379 1448.67 1382.11 1451.1 Q1385.21 1453.5 1385.21 1457.63 Q1385.21 1460.5 1383.56 1462.49 Q1381.92 1464.45 1378.89 1465.22 Z" fill="#000000" fill-rule="evenodd" fill-opacity="1" /><path clip-path="url(#clip320)" d="M1404.88 1452.37 Q1401.27 1452.37 1399.44 1455.94 Q1397.64 1459.48 1397.64 1466.61 Q1397.64 1473.71 1399.44 1477.28 Q1401.27 1480.82 1404.88 1480.82 Q1408.52 1480.82 1410.32 1477.28 Q1412.15 1473.71 1412.15 1466.61 Q1412.15 1459.48 1410.32 1455.94 Q1408.52 1452.37 1404.88 1452.37 M1404.88 1448.67 Q1410.69 1448.67 1413.75 1453.27 Q1416.83 1457.86 1416.83 1466.61 Q1416.83 1475.33 1413.75 1479.94 Q1410.69 1484.52 1404.88 1484.52 Q1399.07 1484.52 1395.99 1479.94 Q1392.94 1475.33 1392.94 1466.61 Q1392.94 1457.86 1395.99 1453.27 Q1399.07 1448.67 1404.88 1448.67 Z" fill="#000000" fill-rule="evenodd" fill-opacity="1" /><path clip-path="url(#clip320)" d="M1435.04 1452.37 Q1431.43 1452.37 1429.6 1455.94 Q1427.8 1459.48 1427.8 1466.61 Q1427.8 1473.71 1429.6 1477.28 Q1431.43 1480.82 1435.04 1480.82 Q1438.68 1480.82 1440.48 1477.28 Q1442.31 1473.71 1442.31 1466.61 Q1442.31 1459.48 1440.48 1455.94 Q1438.68 1452.37 1435.04 1452.37 M1435.04 1448.67 Q1440.85 1448.67 1443.91 1453.27 Q1446.99 1457.86 1446.99 1466.61 Q1446.99 1475.33 1443.91 1479.94 Q1440.85 1484.52 1435.04 1484.52 Q1429.23 1484.52 1426.16 1479.94 Q1423.1 1475.33 1423.1 1466.61 Q1423.1 1457.86 1426.16 1453.27 Q1429.23 1448.67 1435.04 1448.67 Z" fill="#000000" fill-rule="evenodd" fill-opacity="1" /><path clip-path="url(#clip320)" d="M1733.8 1453.37 L1721.99 1471.81 L1733.8 1471.81 L1733.8 1453.37 M1732.57 1449.29 L1738.45 1449.29 L1738.45 1471.81 L1743.38 1471.81 L1743.38 1475.7 L1738.45 1475.7 L1738.45 1483.85 L1733.8 1483.85 L1733.8 1475.7 L1718.2 1475.7 L1718.2 1471.19 L1732.57 1449.29 Z" fill="#000000" fill-rule="evenodd" fill-opacity="1" /><path clip-path="url(#clip320)" d="M1761.11 1452.37 Q1757.5 1452.37 1755.67 1455.94 Q1753.87 1459.48 1753.87 1466.61 Q1753.87 1473.71 1755.67 1477.28 Q1757.5 1480.82 1761.11 1480.82 Q1764.75 1480.82 1766.55 1477.28 Q1768.38 1473.71 1768.38 1466.61 Q1768.38 1459.48 1766.55 1455.94 Q1764.75 1452.37 1761.11 1452.37 M1761.11 1448.67 Q1766.92 1448.67 1769.98 1453.27 Q1773.06 1457.86 1773.06 1466.61 Q1773.06 1475.33 1769.98 1479.94 Q1766.92 1484.52 1761.11 1484.52 Q1755.3 1484.52 1752.23 1479.94 Q1749.17 1475.33 1749.17 1466.61 Q1749.17 1457.86 1752.23 1453.27 Q1755.3 1448.67 1761.11 1448.67 Z" fill="#000000" fill-rule="evenodd" fill-opacity="1" /><path clip-path="url(#clip320)" d="M1791.28 1452.37 Q1787.67 1452.37 1785.84 1455.94 Q1784.03 1459.48 1784.03 1466.61 Q1784.03 1473.71 1785.84 1477.28 Q1787.67 1480.82 1791.28 1480.82 Q1794.91 1480.82 1796.72 1477.28 Q1798.54 1473.71 1798.54 1466.61 Q1798.54 1459.48 1796.72 1455.94 Q1794.91 1452.37 1791.28 1452.37 M1791.28 1448.67 Q1797.09 1448.67 1800.14 1453.27 Q1803.22 1457.86 1803.22 1466.61 Q1803.22 1475.33 1800.14 1479.94 Q1797.09 1484.52 1791.28 1484.52 Q1785.47 1484.52 1782.39 1479.94 Q1779.33 1475.33 1779.33 1466.61 Q1779.33 1457.86 1782.39 1453.27 Q1785.47 1448.67 1791.28 1448.67 Z" fill="#000000" fill-rule="evenodd" fill-opacity="1" /><path clip-path="url(#clip320)" d="M2075.91 1449.29 L2094.27 1449.29 L2094.27 1453.23 L2080.19 1453.23 L2080.19 1461.7 Q2081.21 1461.35 2082.23 1461.19 Q2083.25 1461 2084.27 1461 Q2090.05 1461 2093.43 1464.18 Q2096.81 1467.35 2096.81 1472.76 Q2096.81 1478.34 2093.34 1481.44 Q2089.87 1484.52 2083.55 1484.52 Q2081.37 1484.52 2079.11 1484.15 Q2076.86 1483.78 2074.45 1483.04 L2074.45 1478.34 Q2076.54 1479.48 2078.76 1480.03 Q2080.98 1480.59 2083.46 1480.59 Q2087.46 1480.59 2089.8 1478.48 Q2092.14 1476.38 2092.14 1472.76 Q2092.14 1469.15 2089.8 1467.05 Q2087.46 1464.94 2083.46 1464.94 Q2081.58 1464.94 2079.71 1465.36 Q2077.86 1465.77 2075.91 1466.65 L2075.91 1449.29 Z" fill="#000000" fill-rule="evenodd" fill-opacity="1" /><path clip-path="url(#clip320)" d="M2116.03 1452.37 Q2112.42 1452.37 2110.59 1455.94 Q2108.78 1459.48 2108.78 1466.61 Q2108.78 1473.71 2110.59 1477.28 Q2112.42 1480.82 2116.03 1480.82 Q2119.66 1480.82 2121.47 1477.28 Q2123.3 1473.71 2123.3 1466.61 Q2123.3 1459.48 2121.47 1455.94 Q2119.66 1452.37 2116.03 1452.37 M2116.03 1448.67 Q2121.84 1448.67 2124.89 1453.27 Q2127.97 1457.86 2127.97 1466.61 Q2127.97 1475.33 2124.89 1479.94 Q2121.84 1484.52 2116.03 1484.52 Q2110.22 1484.52 2107.14 1479.94 Q2104.08 1475.33 2104.08 1466.61 Q2104.08 1457.86 2107.14 1453.27 Q2110.22 1448.67 2116.03 1448.67 Z" fill="#000000" fill-rule="evenodd" fill-opacity="1" /><path clip-path="url(#clip320)" d="M2146.19 1452.37 Q2142.58 1452.37 2140.75 1455.94 Q2138.94 1459.48 2138.94 1466.61 Q2138.94 1473.71 2140.75 1477.28 Q2142.58 1480.82 2146.19 1480.82 Q2149.82 1480.82 2151.63 1477.28 Q2153.46 1473.71 2153.46 1466.61 Q2153.46 1459.48 2151.63 1455.94 Q2149.82 1452.37 2146.19 1452.37 M2146.19 1448.67 Q2152 1448.67 2155.05 1453.27 Q2158.13 1457.86 2158.13 1466.61 Q2158.13 1475.33 2155.05 1479.94 Q2152 1484.52 2146.19 1484.52 Q2140.38 1484.52 2137.3 1479.94 Q2134.24 1475.33 2134.24 1466.61 Q2134.24 1457.86 2137.3 1453.27 Q2140.38 1448.67 2146.19 1448.67 Z" fill="#000000" fill-rule="evenodd" fill-opacity="1" /><path clip-path="url(#clip320)" d="M1315.29 1522.27 L1315.29 1532.4 L1327.35 1532.4 L1327.35 1536.95 L1315.29 1536.95 L1315.29 1556.3 Q1315.29 1560.66 1316.47 1561.9 Q1317.68 1563.14 1321.34 1563.14 L1327.35 1563.14 L1327.35 1568.04 L1321.34 1568.04 Q1314.56 1568.04 1311.98 1565.53 Q1309.4 1562.98 1309.4 1556.3 L1309.4 1536.95 L1305.11 1536.95 L1305.11 1532.4 L1309.4 1532.4 L1309.4 1522.27 L1315.29 1522.27 Z" fill="#000000" fill-rule="evenodd" fill-opacity="1" /><polyline clip-path="url(#clip322)" style="stroke:#000000; stroke-linecap:butt; stroke-linejoin:round; stroke-width:2; stroke-opacity:0.1; fill:none" points="
  279.704,1387.14 2352.76,1387.14 
  "/>
<polyline clip-path="url(#clip322)" style="stroke:#000000; stroke-linecap:butt; stroke-linejoin:round; stroke-width:2; stroke-opacity:0.1; fill:none" points="
  279.704,1083.24 2352.76,1083.24 
  "/>
<polyline clip-path="url(#clip322)" style="stroke:#000000; stroke-linecap:butt; stroke-linejoin:round; stroke-width:2; stroke-opacity:0.1; fill:none" points="
  279.704,779.335 2352.76,779.335 
  "/>
<polyline clip-path="url(#clip322)" style="stroke:#000000; stroke-linecap:butt; stroke-linejoin:round; stroke-width:2; stroke-opacity:0.1; fill:none" points="
  279.704,475.432 2352.76,475.432 
  "/>
<polyline clip-path="url(#clip322)" style="stroke:#000000; stroke-linecap:butt; stroke-linejoin:round; stroke-width:2; stroke-opacity:0.1; fill:none" points="
  279.704,171.529 2352.76,171.529 
  "/>
<polyline clip-path="url(#clip320)" style="stroke:#000000; stroke-linecap:butt; stroke-linejoin:round; stroke-width:4; stroke-opacity:1; fill:none" points="
  279.704,1423.18 279.704,123.472 
  "/>
<polyline clip-path="url(#clip320)" style="stroke:#000000; stroke-linecap:butt; stroke-linejoin:round; stroke-width:4; stroke-opacity:1; fill:none" points="
  279.704,1387.14 298.602,1387.14 
  "/>
<polyline clip-path="url(#clip320)" style="stroke:#000000; stroke-linecap:butt; stroke-linejoin:round; stroke-width:4; stroke-opacity:1; fill:none" points="
  279.704,1083.24 298.602,1083.24 
  "/>
<polyline clip-path="url(#clip320)" style="stroke:#000000; stroke-linecap:butt; stroke-linejoin:round; stroke-width:4; stroke-opacity:1; fill:none" points="
  279.704,779.335 298.602,779.335 
  "/>
<polyline clip-path="url(#clip320)" style="stroke:#000000; stroke-linecap:butt; stroke-linejoin:round; stroke-width:4; stroke-opacity:1; fill:none" points="
  279.704,475.432 298.602,475.432 
  "/>
<polyline clip-path="url(#clip320)" style="stroke:#000000; stroke-linecap:butt; stroke-linejoin:round; stroke-width:4; stroke-opacity:1; fill:none" points="
  279.704,171.529 298.602,171.529 
  "/>
<path clip-path="url(#clip320)" d="M126.205 1372.94 Q122.593 1372.94 120.765 1376.5 Q118.959 1380.05 118.959 1387.18 Q118.959 1394.28 120.765 1397.85 Q122.593 1401.39 126.205 1401.39 Q129.839 1401.39 131.644 1397.85 Q133.473 1394.28 133.473 1387.18 Q133.473 1380.05 131.644 1376.5 Q129.839 1372.94 126.205 1372.94 M126.205 1369.24 Q132.015 1369.24 135.07 1373.84 Q138.149 1378.43 138.149 1387.18 Q138.149 1395.9 135.07 1400.51 Q132.015 1405.09 126.205 1405.09 Q120.394 1405.09 117.316 1400.51 Q114.26 1395.9 114.26 1387.18 Q114.26 1378.43 117.316 1373.84 Q120.394 1369.24 126.205 1369.24 Z" fill="#000000" fill-rule="evenodd" fill-opacity="1" /><path clip-path="url(#clip320)" d="M146.366 1398.54 L151.251 1398.54 L151.251 1404.42 L146.366 1404.42 L146.366 1398.54 Z" fill="#000000" fill-rule="evenodd" fill-opacity="1" /><path clip-path="url(#clip320)" d="M171.436 1372.94 Q167.825 1372.94 165.996 1376.5 Q164.19 1380.05 164.19 1387.18 Q164.19 1394.28 165.996 1397.85 Q167.825 1401.39 171.436 1401.39 Q175.07 1401.39 176.876 1397.85 Q178.704 1394.28 178.704 1387.18 Q178.704 1380.05 176.876 1376.5 Q175.07 1372.94 171.436 1372.94 M171.436 1369.24 Q177.246 1369.24 180.301 1373.84 Q183.38 1378.43 183.38 1387.18 Q183.38 1395.9 180.301 1400.51 Q177.246 1405.09 171.436 1405.09 Q165.626 1405.09 162.547 1400.51 Q159.491 1395.9 159.491 1387.18 Q159.491 1378.43 162.547 1373.84 Q165.626 1369.24 171.436 1369.24 Z" fill="#000000" fill-rule="evenodd" fill-opacity="1" /><path clip-path="url(#clip320)" d="M201.598 1372.94 Q197.987 1372.94 196.158 1376.5 Q194.352 1380.05 194.352 1387.18 Q194.352 1394.28 196.158 1397.85 Q197.987 1401.39 201.598 1401.39 Q205.232 1401.39 207.037 1397.85 Q208.866 1394.28 208.866 1387.18 Q208.866 1380.05 207.037 1376.5 Q205.232 1372.94 201.598 1372.94 M201.598 1369.24 Q207.408 1369.24 210.463 1373.84 Q213.542 1378.43 213.542 1387.18 Q213.542 1395.9 210.463 1400.51 Q207.408 1405.09 201.598 1405.09 Q195.787 1405.09 192.709 1400.51 Q189.653 1395.9 189.653 1387.18 Q189.653 1378.43 192.709 1373.84 Q195.787 1369.24 201.598 1369.24 Z" fill="#000000" fill-rule="evenodd" fill-opacity="1" /><path clip-path="url(#clip320)" d="M231.76 1372.94 Q228.148 1372.94 226.32 1376.5 Q224.514 1380.05 224.514 1387.18 Q224.514 1394.28 226.32 1397.85 Q228.148 1401.39 231.76 1401.39 Q235.394 1401.39 237.199 1397.85 Q239.028 1394.28 239.028 1387.18 Q239.028 1380.05 237.199 1376.5 Q235.394 1372.94 231.76 1372.94 M231.76 1369.24 Q237.57 1369.24 240.625 1373.84 Q243.704 1378.43 243.704 1387.18 Q243.704 1395.9 240.625 1400.51 Q237.57 1405.09 231.76 1405.09 Q225.949 1405.09 222.871 1400.51 Q219.815 1395.9 219.815 1387.18 Q219.815 1378.43 222.871 1373.84 Q225.949 1369.24 231.76 1369.24 Z" fill="#000000" fill-rule="evenodd" fill-opacity="1" /><path clip-path="url(#clip320)" d="M127.2 1069.04 Q123.589 1069.04 121.76 1072.6 Q119.955 1076.14 119.955 1083.27 Q119.955 1090.38 121.76 1093.94 Q123.589 1097.49 127.2 1097.49 Q130.834 1097.49 132.64 1093.94 Q134.468 1090.38 134.468 1083.27 Q134.468 1076.14 132.64 1072.6 Q130.834 1069.04 127.2 1069.04 M127.2 1065.33 Q133.01 1065.33 136.066 1069.94 Q139.144 1074.52 139.144 1083.27 Q139.144 1092 136.066 1096.61 Q133.01 1101.19 127.2 1101.19 Q121.39 1101.19 118.311 1096.61 Q115.256 1092 115.256 1083.27 Q115.256 1074.52 118.311 1069.94 Q121.39 1065.33 127.2 1065.33 Z" fill="#000000" fill-rule="evenodd" fill-opacity="1" /><path clip-path="url(#clip320)" d="M147.362 1094.64 L152.246 1094.64 L152.246 1100.52 L147.362 1100.52 L147.362 1094.64 Z" fill="#000000" fill-rule="evenodd" fill-opacity="1" /><path clip-path="url(#clip320)" d="M172.431 1069.04 Q168.82 1069.04 166.991 1072.6 Q165.186 1076.14 165.186 1083.27 Q165.186 1090.38 166.991 1093.94 Q168.82 1097.49 172.431 1097.49 Q176.065 1097.49 177.871 1093.94 Q179.7 1090.38 179.7 1083.27 Q179.7 1076.14 177.871 1072.6 Q176.065 1069.04 172.431 1069.04 M172.431 1065.33 Q178.241 1065.33 181.297 1069.94 Q184.376 1074.52 184.376 1083.27 Q184.376 1092 181.297 1096.61 Q178.241 1101.19 172.431 1101.19 Q166.621 1101.19 163.542 1096.61 Q160.487 1092 160.487 1083.27 Q160.487 1074.52 163.542 1069.94 Q166.621 1065.33 172.431 1065.33 Z" fill="#000000" fill-rule="evenodd" fill-opacity="1" /><path clip-path="url(#clip320)" d="M196.621 1096.58 L212.94 1096.58 L212.94 1100.52 L190.996 1100.52 L190.996 1096.58 Q193.658 1093.83 198.241 1089.2 Q202.848 1084.55 204.028 1083.2 Q206.274 1080.68 207.153 1078.94 Q208.056 1077.18 208.056 1075.5 Q208.056 1072.74 206.112 1071 Q204.19 1069.27 201.088 1069.27 Q198.889 1069.27 196.436 1070.03 Q194.005 1070.8 191.227 1072.35 L191.227 1067.62 Q194.051 1066.49 196.505 1065.91 Q198.959 1065.33 200.996 1065.33 Q206.366 1065.33 209.561 1068.02 Q212.755 1070.7 212.755 1075.19 Q212.755 1077.32 211.945 1079.25 Q211.158 1081.14 209.051 1083.74 Q208.473 1084.41 205.371 1087.62 Q202.269 1090.82 196.621 1096.58 Z" fill="#000000" fill-rule="evenodd" fill-opacity="1" /><path clip-path="url(#clip320)" d="M222.801 1065.96 L241.158 1065.96 L241.158 1069.89 L227.084 1069.89 L227.084 1078.37 Q228.102 1078.02 229.121 1077.86 Q230.139 1077.67 231.158 1077.67 Q236.945 1077.67 240.324 1080.84 Q243.704 1084.01 243.704 1089.43 Q243.704 1095.01 240.232 1098.11 Q236.76 1101.19 230.44 1101.19 Q228.264 1101.19 225.996 1100.82 Q223.75 1100.45 221.343 1099.71 L221.343 1095.01 Q223.426 1096.14 225.648 1096.7 Q227.871 1097.25 230.347 1097.25 Q234.352 1097.25 236.69 1095.15 Q239.028 1093.04 239.028 1089.43 Q239.028 1085.82 236.69 1083.71 Q234.352 1081.61 230.347 1081.61 Q228.473 1081.61 226.598 1082.02 Q224.746 1082.44 222.801 1083.32 L222.801 1065.96 Z" fill="#000000" fill-rule="evenodd" fill-opacity="1" /><path clip-path="url(#clip320)" d="M126.205 765.134 Q122.593 765.134 120.765 768.699 Q118.959 772.24 118.959 779.37 Q118.959 786.476 120.765 790.041 Q122.593 793.583 126.205 793.583 Q129.839 793.583 131.644 790.041 Q133.473 786.476 133.473 779.37 Q133.473 772.24 131.644 768.699 Q129.839 765.134 126.205 765.134 M126.205 761.43 Q132.015 761.43 135.07 766.037 Q138.149 770.62 138.149 779.37 Q138.149 788.097 135.07 792.703 Q132.015 797.286 126.205 797.286 Q120.394 797.286 117.316 792.703 Q114.26 788.097 114.26 779.37 Q114.26 770.62 117.316 766.037 Q120.394 761.43 126.205 761.43 Z" fill="#000000" fill-rule="evenodd" fill-opacity="1" /><path clip-path="url(#clip320)" d="M146.366 790.736 L151.251 790.736 L151.251 796.615 L146.366 796.615 L146.366 790.736 Z" fill="#000000" fill-rule="evenodd" fill-opacity="1" /><path clip-path="url(#clip320)" d="M171.436 765.134 Q167.825 765.134 165.996 768.699 Q164.19 772.24 164.19 779.37 Q164.19 786.476 165.996 790.041 Q167.825 793.583 171.436 793.583 Q175.07 793.583 176.876 790.041 Q178.704 786.476 178.704 779.37 Q178.704 772.24 176.876 768.699 Q175.07 765.134 171.436 765.134 M171.436 761.43 Q177.246 761.43 180.301 766.037 Q183.38 770.62 183.38 779.37 Q183.38 788.097 180.301 792.703 Q177.246 797.286 171.436 797.286 Q165.626 797.286 162.547 792.703 Q159.491 788.097 159.491 779.37 Q159.491 770.62 162.547 766.037 Q165.626 761.43 171.436 761.43 Z" fill="#000000" fill-rule="evenodd" fill-opacity="1" /><path clip-path="url(#clip320)" d="M191.644 762.055 L210 762.055 L210 765.99 L195.926 765.99 L195.926 774.463 Q196.945 774.115 197.963 773.953 Q198.982 773.768 200 773.768 Q205.787 773.768 209.167 776.939 Q212.547 780.111 212.547 785.527 Q212.547 791.106 209.074 794.208 Q205.602 797.286 199.283 797.286 Q197.107 797.286 194.838 796.916 Q192.593 796.546 190.186 795.805 L190.186 791.106 Q192.269 792.24 194.491 792.796 Q196.713 793.351 199.19 793.351 Q203.195 793.351 205.533 791.245 Q207.871 789.138 207.871 785.527 Q207.871 781.916 205.533 779.81 Q203.195 777.703 199.19 777.703 Q197.315 777.703 195.44 778.12 Q193.588 778.537 191.644 779.416 L191.644 762.055 Z" fill="#000000" fill-rule="evenodd" fill-opacity="1" /><path clip-path="url(#clip320)" d="M231.76 765.134 Q228.148 765.134 226.32 768.699 Q224.514 772.24 224.514 779.37 Q224.514 786.476 226.32 790.041 Q228.148 793.583 231.76 793.583 Q235.394 793.583 237.199 790.041 Q239.028 786.476 239.028 779.37 Q239.028 772.24 237.199 768.699 Q235.394 765.134 231.76 765.134 M231.76 761.43 Q237.57 761.43 240.625 766.037 Q243.704 770.62 243.704 779.37 Q243.704 788.097 240.625 792.703 Q237.57 797.286 231.76 797.286 Q225.949 797.286 222.871 792.703 Q219.815 788.097 219.815 779.37 Q219.815 770.62 222.871 766.037 Q225.949 761.43 231.76 761.43 Z" fill="#000000" fill-rule="evenodd" fill-opacity="1" /><path clip-path="url(#clip320)" d="M127.2 461.231 Q123.589 461.231 121.76 464.796 Q119.955 468.337 119.955 475.467 Q119.955 482.573 121.76 486.138 Q123.589 489.68 127.2 489.68 Q130.834 489.68 132.64 486.138 Q134.468 482.573 134.468 475.467 Q134.468 468.337 132.64 464.796 Q130.834 461.231 127.2 461.231 M127.2 457.527 Q133.01 457.527 136.066 462.134 Q139.144 466.717 139.144 475.467 Q139.144 484.194 136.066 488.8 Q133.01 493.384 127.2 493.384 Q121.39 493.384 118.311 488.8 Q115.256 484.194 115.256 475.467 Q115.256 466.717 118.311 462.134 Q121.39 457.527 127.2 457.527 Z" fill="#000000" fill-rule="evenodd" fill-opacity="1" /><path clip-path="url(#clip320)" d="M147.362 486.833 L152.246 486.833 L152.246 492.712 L147.362 492.712 L147.362 486.833 Z" fill="#000000" fill-rule="evenodd" fill-opacity="1" /><path clip-path="url(#clip320)" d="M172.431 461.231 Q168.82 461.231 166.991 464.796 Q165.186 468.337 165.186 475.467 Q165.186 482.573 166.991 486.138 Q168.82 489.68 172.431 489.68 Q176.065 489.68 177.871 486.138 Q179.7 482.573 179.7 475.467 Q179.7 468.337 177.871 464.796 Q176.065 461.231 172.431 461.231 M172.431 457.527 Q178.241 457.527 181.297 462.134 Q184.376 466.717 184.376 475.467 Q184.376 484.194 181.297 488.8 Q178.241 493.384 172.431 493.384 Q166.621 493.384 163.542 488.8 Q160.487 484.194 160.487 475.467 Q160.487 466.717 163.542 462.134 Q166.621 457.527 172.431 457.527 Z" fill="#000000" fill-rule="evenodd" fill-opacity="1" /><path clip-path="url(#clip320)" d="M191.413 458.152 L213.635 458.152 L213.635 460.143 L201.088 492.712 L196.204 492.712 L208.01 462.087 L191.413 462.087 L191.413 458.152 Z" fill="#000000" fill-rule="evenodd" fill-opacity="1" /><path clip-path="url(#clip320)" d="M222.801 458.152 L241.158 458.152 L241.158 462.087 L227.084 462.087 L227.084 470.56 Q228.102 470.212 229.121 470.05 Q230.139 469.865 231.158 469.865 Q236.945 469.865 240.324 473.036 Q243.704 476.208 243.704 481.624 Q243.704 487.203 240.232 490.305 Q236.76 493.384 230.44 493.384 Q228.264 493.384 225.996 493.013 Q223.75 492.643 221.343 491.902 L221.343 487.203 Q223.426 488.337 225.648 488.893 Q227.871 489.448 230.347 489.448 Q234.352 489.448 236.69 487.342 Q239.028 485.235 239.028 481.624 Q239.028 478.013 236.69 475.907 Q234.352 473.8 230.347 473.8 Q228.473 473.8 226.598 474.217 Q224.746 474.634 222.801 475.513 L222.801 458.152 Z" fill="#000000" fill-rule="evenodd" fill-opacity="1" /><path clip-path="url(#clip320)" d="M126.205 157.328 Q122.593 157.328 120.765 160.893 Q118.959 164.434 118.959 171.564 Q118.959 178.67 120.765 182.235 Q122.593 185.777 126.205 185.777 Q129.839 185.777 131.644 182.235 Q133.473 178.67 133.473 171.564 Q133.473 164.434 131.644 160.893 Q129.839 157.328 126.205 157.328 M126.205 153.624 Q132.015 153.624 135.07 158.231 Q138.149 162.814 138.149 171.564 Q138.149 180.291 135.07 184.897 Q132.015 189.481 126.205 189.481 Q120.394 189.481 117.316 184.897 Q114.26 180.291 114.26 171.564 Q114.26 162.814 117.316 158.231 Q120.394 153.624 126.205 153.624 Z" fill="#000000" fill-rule="evenodd" fill-opacity="1" /><path clip-path="url(#clip320)" d="M146.366 182.93 L151.251 182.93 L151.251 188.809 L146.366 188.809 L146.366 182.93 Z" fill="#000000" fill-rule="evenodd" fill-opacity="1" /><path clip-path="url(#clip320)" d="M162.246 184.874 L169.885 184.874 L169.885 158.509 L161.575 160.175 L161.575 155.916 L169.839 154.249 L174.514 154.249 L174.514 184.874 L182.153 184.874 L182.153 188.809 L162.246 188.809 L162.246 184.874 Z" fill="#000000" fill-rule="evenodd" fill-opacity="1" /><path clip-path="url(#clip320)" d="M201.598 157.328 Q197.987 157.328 196.158 160.893 Q194.352 164.434 194.352 171.564 Q194.352 178.67 196.158 182.235 Q197.987 185.777 201.598 185.777 Q205.232 185.777 207.037 182.235 Q208.866 178.67 208.866 171.564 Q208.866 164.434 207.037 160.893 Q205.232 157.328 201.598 157.328 M201.598 153.624 Q207.408 153.624 210.463 158.231 Q213.542 162.814 213.542 171.564 Q213.542 180.291 210.463 184.897 Q207.408 189.481 201.598 189.481 Q195.787 189.481 192.709 184.897 Q189.653 180.291 189.653 171.564 Q189.653 162.814 192.709 158.231 Q195.787 153.624 201.598 153.624 Z" fill="#000000" fill-rule="evenodd" fill-opacity="1" /><path clip-path="url(#clip320)" d="M231.76 157.328 Q228.148 157.328 226.32 160.893 Q224.514 164.434 224.514 171.564 Q224.514 178.67 226.32 182.235 Q228.148 185.777 231.76 185.777 Q235.394 185.777 237.199 182.235 Q239.028 178.67 239.028 171.564 Q239.028 164.434 237.199 160.893 Q235.394 157.328 231.76 157.328 M231.76 153.624 Q237.57 153.624 240.625 158.231 Q243.704 162.814 243.704 171.564 Q243.704 180.291 240.625 184.897 Q237.57 189.481 231.76 189.481 Q225.949 189.481 222.871 184.897 Q219.815 180.291 219.815 171.564 Q219.815 162.814 222.871 158.231 Q225.949 153.624 231.76 153.624 Z" fill="#000000" fill-rule="evenodd" fill-opacity="1" /><path clip-path="url(#clip320)" d="M28.3562 814.719 L28.3562 808.863 L64.0042 808.863 L64.0042 814.719 L28.3562 814.719 M14.479 814.719 L14.479 808.863 L21.895 808.863 L21.895 814.719 L14.479 814.719 Z" fill="#000000" fill-rule="evenodd" fill-opacity="1" /><path clip-path="url(#clip320)" d="M14.5426 782.54 Q21.8632 786.805 29.0246 788.874 Q36.186 790.943 43.5384 790.943 Q50.8908 790.943 58.1159 788.874 Q65.3091 786.774 72.5979 782.54 L72.5979 787.633 Q65.1182 792.407 57.8931 794.794 Q50.668 797.15 43.5384 797.15 Q36.4406 797.15 29.2474 794.794 Q22.0542 792.439 14.5426 787.633 L14.5426 782.54 Z" fill="#000000" fill-rule="evenodd" fill-opacity="1" /><path clip-path="url(#clip320)" d="M18.2347 765.385 L28.3562 765.385 L28.3562 753.322 L32.9077 753.322 L32.9077 765.385 L52.2594 765.385 Q56.6199 765.385 57.8613 764.207 Q59.1026 762.998 59.1026 759.337 L59.1026 753.322 L64.0042 753.322 L64.0042 759.337 Q64.0042 766.117 61.4897 768.695 Q58.9434 771.273 52.2594 771.273 L32.9077 771.273 L32.9077 775.57 L28.3562 775.57 L28.3562 771.273 L18.2347 771.273 L18.2347 765.385 Z" fill="#000000" fill-rule="evenodd" fill-opacity="1" /><path clip-path="url(#clip320)" d="M14.5426 746.542 L14.5426 741.45 Q22.0542 736.675 29.2474 734.32 Q36.4406 731.933 43.5384 731.933 Q50.668 731.933 57.8931 734.32 Q65.1182 736.675 72.5979 741.45 L72.5979 746.542 Q65.3091 742.309 58.1159 740.24 Q50.8908 738.14 43.5384 738.14 Q36.186 738.14 29.0246 740.24 Q21.8632 742.309 14.5426 746.542 Z" fill="#000000" fill-rule="evenodd" fill-opacity="1" /><path clip-path="url(#clip320)" d="M666.222 17.6457 Q657.31 17.6457 652.044 24.2892 Q646.818 30.9327 646.818 42.3968 Q646.818 53.8203 652.044 60.4638 Q657.31 67.1073 666.222 67.1073 Q675.134 67.1073 680.319 60.4638 Q685.545 53.8203 685.545 42.3968 Q685.545 30.9327 680.319 24.2892 Q675.134 17.6457 666.222 17.6457 M677.686 71.4823 L688.461 83.2704 L678.577 83.2704 L669.625 73.5887 Q668.288 73.6697 667.559 73.7103 Q666.87 73.7508 666.222 73.7508 Q653.461 73.7508 645.805 65.2439 Q638.19 56.6965 638.19 42.3968 Q638.19 28.0566 645.805 19.5497 Q653.461 11.0023 666.222 11.0023 Q678.942 11.0023 686.557 19.5497 Q694.173 28.0566 694.173 42.3968 Q694.173 52.9291 689.92 60.4233 Q685.707 67.9175 677.686 71.4823 Z" fill="#000000" fill-rule="evenodd" fill-opacity="1" /><path clip-path="url(#clip320)" d="M705.88 54.671 L705.88 27.2059 L713.334 27.2059 L713.334 54.3874 Q713.334 60.8284 715.845 64.0691 Q718.357 67.2693 723.38 67.2693 Q729.416 67.2693 732.9 63.421 Q736.424 59.5726 736.424 52.9291 L736.424 27.2059 L743.878 27.2059 L743.878 72.576 L736.424 72.576 L736.424 65.6084 Q733.71 69.7404 730.105 71.7658 Q726.54 73.7508 721.8 73.7508 Q713.982 73.7508 709.931 68.8897 Q705.88 64.0286 705.88 54.671 M724.636 26.1121 L724.636 26.1121 Z" fill="#000000" fill-rule="evenodd" fill-opacity="1" /><path clip-path="url(#clip320)" d="M779.85 49.7694 Q770.816 49.7694 767.332 51.8354 Q763.849 53.9013 763.849 58.8839 Q763.849 62.8538 766.441 65.2034 Q769.074 67.5124 773.571 67.5124 Q779.769 67.5124 783.495 63.1374 Q787.263 58.7219 787.263 51.4303 L787.263 49.7694 L779.85 49.7694 M794.716 46.6907 L794.716 72.576 L787.263 72.576 L787.263 65.6895 Q784.711 69.8214 780.903 71.8063 Q777.095 73.7508 771.586 73.7508 Q764.618 73.7508 760.486 69.8619 Q756.395 65.9325 756.395 59.3701 Q756.395 51.7138 761.499 47.825 Q766.644 43.9361 776.812 43.9361 L787.263 43.9361 L787.263 43.2069 Q787.263 38.0623 783.86 35.2672 Q780.498 32.4315 774.381 32.4315 Q770.492 32.4315 766.806 33.3632 Q763.119 34.295 759.717 36.1584 L759.717 29.2718 Q763.808 27.692 767.656 26.9223 Q771.505 26.1121 775.151 26.1121 Q784.994 26.1121 789.855 31.2163 Q794.716 36.3204 794.716 46.6907 Z" fill="#000000" fill-rule="evenodd" fill-opacity="1" /><path clip-path="url(#clip320)" d="M847.783 45.1919 L847.783 72.576 L840.33 72.576 L840.33 45.4349 Q840.33 38.994 837.818 35.7938 Q835.307 32.5936 830.283 32.5936 Q824.248 32.5936 820.764 36.4419 Q817.28 40.2903 817.28 46.9338 L817.28 72.576 L809.786 72.576 L809.786 27.2059 L817.28 27.2059 L817.28 34.2544 Q819.954 30.163 823.559 28.1376 Q827.205 26.1121 831.944 26.1121 Q839.763 26.1121 843.773 30.9732 Q847.783 35.7938 847.783 45.1919 Z" fill="#000000" fill-rule="evenodd" fill-opacity="1" /><path clip-path="url(#clip320)" d="M870.023 14.324 L870.023 27.2059 L885.376 27.2059 L885.376 32.9987 L870.023 32.9987 L870.023 57.6282 Q870.023 63.1779 871.522 64.7578 Q873.061 66.3376 877.72 66.3376 L885.376 66.3376 L885.376 72.576 L877.72 72.576 Q869.091 72.576 865.81 69.3758 Q862.529 66.1351 862.529 57.6282 L862.529 32.9987 L857.06 32.9987 L857.06 27.2059 L862.529 27.2059 L862.529 14.324 L870.023 14.324 Z" fill="#000000" fill-rule="evenodd" fill-opacity="1" /><path clip-path="url(#clip320)" d="M895.179 27.2059 L902.633 27.2059 L902.633 72.576 L895.179 72.576 L895.179 27.2059 M895.179 9.54393 L902.633 9.54393 L902.633 18.9825 L895.179 18.9825 L895.179 9.54393 Z" fill="#000000" fill-rule="evenodd" fill-opacity="1" /><path clip-path="url(#clip320)" d="M918.229 9.54393 L925.682 9.54393 L925.682 72.576 L918.229 72.576 L918.229 9.54393 Z" fill="#000000" fill-rule="evenodd" fill-opacity="1" /><path clip-path="url(#clip320)" d="M980.086 48.0275 L980.086 51.6733 L945.815 51.6733 Q946.301 59.3701 950.433 63.421 Q954.606 67.4314 962.019 67.4314 Q966.313 67.4314 970.323 66.3781 Q974.374 65.3249 978.344 63.2184 L978.344 70.267 Q974.334 71.9684 970.121 72.8596 Q965.908 73.7508 961.573 73.7508 Q950.717 73.7508 944.357 67.4314 Q938.037 61.1119 938.037 50.3365 Q938.037 39.1965 944.033 32.6746 Q950.069 26.1121 960.277 26.1121 Q969.432 26.1121 974.739 32.0264 Q980.086 37.9003 980.086 48.0275 M972.632 45.84 Q972.551 39.7232 969.189 36.0774 Q965.867 32.4315 960.358 32.4315 Q954.12 32.4315 950.352 35.9558 Q946.625 39.4801 946.058 45.8805 L972.632 45.84 Z" fill="#000000" fill-rule="evenodd" fill-opacity="1" /><path clip-path="url(#clip320)" d="M1021.24 28.5427 L1021.24 35.5912 Q1018.08 33.9709 1014.68 33.1607 Q1011.28 32.3505 1007.63 32.3505 Q1002.08 32.3505 999.287 34.0519 Q996.533 35.7533 996.533 39.156 Q996.533 41.7486 998.517 43.2475 Q1000.5 44.7058 1006.5 46.0426 L1009.05 46.6097 Q1016.99 48.3111 1020.31 51.4303 Q1023.67 54.509 1023.67 60.0587 Q1023.67 66.3781 1018.65 70.0644 Q1013.67 73.7508 1004.92 73.7508 Q1001.27 73.7508 997.302 73.0216 Q993.373 72.3329 988.998 70.9151 L988.998 63.2184 Q993.13 65.3654 997.14 66.4591 Q1001.15 67.5124 1005.08 67.5124 Q1010.35 67.5124 1013.18 65.73 Q1016.02 63.9071 1016.02 60.6258 Q1016.02 57.5877 1013.95 55.9673 Q1011.93 54.3469 1005 52.8481 L1002.41 52.2405 Q995.479 50.7821 992.401 47.7845 Q989.322 44.7463 989.322 39.4801 Q989.322 33.0797 993.859 29.5959 Q998.396 26.1121 1006.74 26.1121 Q1010.87 26.1121 1014.52 26.7198 Q1018.16 27.3274 1021.24 28.5427 Z" fill="#000000" fill-rule="evenodd" fill-opacity="1" /><path clip-path="url(#clip320)" d="M1079.5 32.4315 Q1073.5 32.4315 1070.02 37.1306 Q1066.53 41.7891 1066.53 49.9314 Q1066.53 58.0738 1069.98 62.7728 Q1073.46 67.4314 1079.5 67.4314 Q1085.45 67.4314 1088.93 62.7323 Q1092.42 58.0333 1092.42 49.9314 Q1092.42 41.8701 1088.93 37.1711 Q1085.45 32.4315 1079.5 32.4315 M1079.5 26.1121 Q1089.22 26.1121 1094.77 32.4315 Q1100.32 38.7509 1100.32 49.9314 Q1100.32 61.0714 1094.77 67.4314 Q1089.22 73.7508 1079.5 73.7508 Q1069.73 73.7508 1064.18 67.4314 Q1058.67 61.0714 1058.67 49.9314 Q1058.67 38.7509 1064.18 32.4315 Q1069.73 26.1121 1079.5 26.1121 Z" fill="#000000" fill-rule="evenodd" fill-opacity="1" /><path clip-path="url(#clip320)" d="M1135.64 9.54393 L1135.64 15.7418 L1128.51 15.7418 Q1124.5 15.7418 1122.92 17.3622 Q1121.38 18.9825 1121.38 23.1955 L1121.38 27.2059 L1133.66 27.2059 L1133.66 32.9987 L1121.38 32.9987 L1121.38 72.576 L1113.89 72.576 L1113.89 32.9987 L1106.76 32.9987 L1106.76 27.2059 L1113.89 27.2059 L1113.89 24.0462 Q1113.89 16.471 1117.41 13.0277 Q1120.94 9.54393 1128.59 9.54393 L1135.64 9.54393 Z" fill="#000000" fill-rule="evenodd" fill-opacity="1" /><path clip-path="url(#clip320)" d="M1168.57 12.096 L1176.76 12.096 L1176.76 72.576 L1168.57 72.576 L1168.57 12.096 Z" fill="#000000" fill-rule="evenodd" fill-opacity="1" /><path clip-path="url(#clip320)" d="M1230.43 45.1919 L1230.43 72.576 L1222.98 72.576 L1222.98 45.4349 Q1222.98 38.994 1220.47 35.7938 Q1217.95 32.5936 1212.93 32.5936 Q1206.9 32.5936 1203.41 36.4419 Q1199.93 40.2903 1199.93 46.9338 L1199.93 72.576 L1192.43 72.576 L1192.43 27.2059 L1199.93 27.2059 L1199.93 34.2544 Q1202.6 30.163 1206.21 28.1376 Q1209.85 26.1121 1214.59 26.1121 Q1222.41 26.1121 1226.42 30.9732 Q1230.43 35.7938 1230.43 45.1919 Z" fill="#000000" fill-rule="evenodd" fill-opacity="1" /><path clip-path="url(#clip320)" d="M1268.27 9.54393 L1268.27 15.7418 L1261.14 15.7418 Q1257.13 15.7418 1255.55 17.3622 Q1254.01 18.9825 1254.01 23.1955 L1254.01 27.2059 L1266.28 27.2059 L1266.28 32.9987 L1254.01 32.9987 L1254.01 72.576 L1246.51 72.576 L1246.51 32.9987 L1239.38 32.9987 L1239.38 27.2059 L1246.51 27.2059 L1246.51 24.0462 Q1246.51 16.471 1250.04 13.0277 Q1253.56 9.54393 1261.22 9.54393 L1268.27 9.54393 Z" fill="#000000" fill-rule="evenodd" fill-opacity="1" /><path clip-path="url(#clip320)" d="M1313.31 48.0275 L1313.31 51.6733 L1279.04 51.6733 Q1279.53 59.3701 1283.66 63.421 Q1287.83 67.4314 1295.25 67.4314 Q1299.54 67.4314 1303.55 66.3781 Q1307.6 65.3249 1311.57 63.2184 L1311.57 70.267 Q1307.56 71.9684 1303.35 72.8596 Q1299.14 73.7508 1294.8 73.7508 Q1283.94 73.7508 1277.58 67.4314 Q1271.26 61.1119 1271.26 50.3365 Q1271.26 39.1965 1277.26 32.6746 Q1283.3 26.1121 1293.5 26.1121 Q1302.66 26.1121 1307.97 32.0264 Q1313.31 37.9003 1313.31 48.0275 M1305.86 45.84 Q1305.78 39.7232 1302.42 36.0774 Q1299.09 32.4315 1293.59 32.4315 Q1287.35 32.4315 1283.58 35.9558 Q1279.85 39.4801 1279.29 45.8805 L1305.86 45.84 Z" fill="#000000" fill-rule="evenodd" fill-opacity="1" /><path clip-path="url(#clip320)" d="M1358.2 28.9478 L1358.2 35.9153 Q1355.04 34.1734 1351.84 33.3227 Q1348.68 32.4315 1345.44 32.4315 Q1338.19 32.4315 1334.18 37.0496 Q1330.17 41.6271 1330.17 49.9314 Q1330.17 58.2358 1334.18 62.8538 Q1338.19 67.4314 1345.44 67.4314 Q1348.68 67.4314 1351.84 66.5807 Q1355.04 65.6895 1358.2 63.9476 L1358.2 70.8341 Q1355.08 72.2924 1351.72 73.0216 Q1348.39 73.7508 1344.63 73.7508 Q1334.38 73.7508 1328.34 67.3098 Q1322.31 60.8689 1322.31 49.9314 Q1322.31 38.832 1328.38 32.472 Q1334.5 26.1121 1345.11 26.1121 Q1348.56 26.1121 1351.84 26.8413 Q1355.12 27.5299 1358.2 28.9478 Z" fill="#000000" fill-rule="evenodd" fill-opacity="1" /><path clip-path="url(#clip320)" d="M1378.53 14.324 L1378.53 27.2059 L1393.89 27.2059 L1393.89 32.9987 L1378.53 32.9987 L1378.53 57.6282 Q1378.53 63.1779 1380.03 64.7578 Q1381.57 66.3376 1386.23 66.3376 L1393.89 66.3376 L1393.89 72.576 L1386.23 72.576 Q1377.6 72.576 1374.32 69.3758 Q1371.04 66.1351 1371.04 57.6282 L1371.04 32.9987 L1365.57 32.9987 L1365.57 27.2059 L1371.04 27.2059 L1371.04 14.324 L1378.53 14.324 Z" fill="#000000" fill-rule="evenodd" fill-opacity="1" /><path clip-path="url(#clip320)" d="M1403.69 27.2059 L1411.14 27.2059 L1411.14 72.576 L1403.69 72.576 L1403.69 27.2059 M1403.69 9.54393 L1411.14 9.54393 L1411.14 18.9825 L1403.69 18.9825 L1403.69 9.54393 Z" fill="#000000" fill-rule="evenodd" fill-opacity="1" /><path clip-path="url(#clip320)" d="M1444.32 32.4315 Q1438.32 32.4315 1434.84 37.1306 Q1431.36 41.7891 1431.36 49.9314 Q1431.36 58.0738 1434.8 62.7728 Q1438.28 67.4314 1444.32 67.4314 Q1450.27 67.4314 1453.76 62.7323 Q1457.24 58.0333 1457.24 49.9314 Q1457.24 41.8701 1453.76 37.1711 Q1450.27 32.4315 1444.32 32.4315 M1444.32 26.1121 Q1454.04 26.1121 1459.59 32.4315 Q1465.14 38.7509 1465.14 49.9314 Q1465.14 61.0714 1459.59 67.4314 Q1454.04 73.7508 1444.32 73.7508 Q1434.56 73.7508 1429.01 67.4314 Q1423.5 61.0714 1423.5 49.9314 Q1423.5 38.7509 1429.01 32.4315 Q1434.56 26.1121 1444.32 26.1121 Z" fill="#000000" fill-rule="evenodd" fill-opacity="1" /><path clip-path="url(#clip320)" d="M1515.21 45.1919 L1515.21 72.576 L1507.76 72.576 L1507.76 45.4349 Q1507.76 38.994 1505.25 35.7938 Q1502.73 32.5936 1497.71 32.5936 Q1491.67 32.5936 1488.19 36.4419 Q1484.71 40.2903 1484.71 46.9338 L1484.71 72.576 L1477.21 72.576 L1477.21 27.2059 L1484.71 27.2059 L1484.71 34.2544 Q1487.38 30.163 1490.99 28.1376 Q1494.63 26.1121 1499.37 26.1121 Q1507.19 26.1121 1511.2 30.9732 Q1515.21 35.7938 1515.21 45.1919 Z" fill="#000000" fill-rule="evenodd" fill-opacity="1" /><path clip-path="url(#clip320)" d="M1559 28.5427 L1559 35.5912 Q1555.84 33.9709 1552.44 33.1607 Q1549.04 32.3505 1545.39 32.3505 Q1539.84 32.3505 1537.04 34.0519 Q1534.29 35.7533 1534.29 39.156 Q1534.29 41.7486 1536.28 43.2475 Q1538.26 44.7058 1544.26 46.0426 L1546.81 46.6097 Q1554.75 48.3111 1558.07 51.4303 Q1561.43 54.509 1561.43 60.0587 Q1561.43 66.3781 1556.41 70.0644 Q1551.43 73.7508 1542.68 73.7508 Q1539.03 73.7508 1535.06 73.0216 Q1531.13 72.3329 1526.76 70.9151 L1526.76 63.2184 Q1530.89 65.3654 1534.9 66.4591 Q1538.91 67.5124 1542.84 67.5124 Q1548.1 67.5124 1550.94 65.73 Q1553.77 63.9071 1553.77 60.6258 Q1553.77 57.5877 1551.71 55.9673 Q1549.68 54.3469 1542.76 52.8481 L1540.16 52.2405 Q1533.24 50.7821 1530.16 47.7845 Q1527.08 44.7463 1527.08 39.4801 Q1527.08 33.0797 1531.62 29.5959 Q1536.15 26.1121 1544.5 26.1121 Q1548.63 26.1121 1552.28 26.7198 Q1555.92 27.3274 1559 28.5427 Z" fill="#000000" fill-rule="evenodd" fill-opacity="1" /><path clip-path="url(#clip320)" d="M1600 12.096 L1638.24 12.096 L1638.24 18.9825 L1608.18 18.9825 L1608.18 36.8875 L1636.98 36.8875 L1636.98 43.7741 L1608.18 43.7741 L1608.18 65.6895 L1638.97 65.6895 L1638.97 72.576 L1600 72.576 L1600 12.096 Z" fill="#000000" fill-rule="evenodd" fill-opacity="1" /><path clip-path="url(#clip320)" d="M1689.8 45.1919 L1689.8 72.576 L1682.35 72.576 L1682.35 45.4349 Q1682.35 38.994 1679.84 35.7938 Q1677.33 32.5936 1672.3 32.5936 Q1666.27 32.5936 1662.78 36.4419 Q1659.3 40.2903 1659.3 46.9338 L1659.3 72.576 L1651.81 72.576 L1651.81 27.2059 L1659.3 27.2059 L1659.3 34.2544 Q1661.97 30.163 1665.58 28.1376 Q1669.23 26.1121 1673.97 26.1121 Q1681.78 26.1121 1685.79 30.9732 Q1689.8 35.7938 1689.8 45.1919 Z" fill="#000000" fill-rule="evenodd" fill-opacity="1" /><path clip-path="url(#clip320)" d="M1733.59 28.5427 L1733.59 35.5912 Q1730.43 33.9709 1727.03 33.1607 Q1723.63 32.3505 1719.98 32.3505 Q1714.43 32.3505 1711.64 34.0519 Q1708.88 35.7533 1708.88 39.156 Q1708.88 41.7486 1710.87 43.2475 Q1712.85 44.7058 1718.85 46.0426 L1721.4 46.6097 Q1729.34 48.3111 1732.66 51.4303 Q1736.03 54.509 1736.03 60.0587 Q1736.03 66.3781 1731 70.0644 Q1726.02 73.7508 1717.27 73.7508 Q1713.62 73.7508 1709.65 73.0216 Q1705.72 72.3329 1701.35 70.9151 L1701.35 63.2184 Q1705.48 65.3654 1709.49 66.4591 Q1713.5 67.5124 1717.43 67.5124 Q1722.7 67.5124 1725.53 65.73 Q1728.37 63.9071 1728.37 60.6258 Q1728.37 57.5877 1726.3 55.9673 Q1724.28 54.3469 1717.35 52.8481 L1714.76 52.2405 Q1707.83 50.7821 1704.75 47.7845 Q1701.67 44.7463 1701.67 39.4801 Q1701.67 33.0797 1706.21 29.5959 Q1710.75 26.1121 1719.09 26.1121 Q1723.22 26.1121 1726.87 26.7198 Q1730.52 27.3274 1733.59 28.5427 Z" fill="#000000" fill-rule="evenodd" fill-opacity="1" /><path clip-path="url(#clip320)" d="M1786.7 48.0275 L1786.7 51.6733 L1752.43 51.6733 Q1752.92 59.3701 1757.05 63.421 Q1761.22 67.4314 1768.63 67.4314 Q1772.93 67.4314 1776.94 66.3781 Q1780.99 65.3249 1784.96 63.2184 L1784.96 70.267 Q1780.95 71.9684 1776.74 72.8596 Q1772.52 73.7508 1768.19 73.7508 Q1757.33 73.7508 1750.97 67.4314 Q1744.65 61.1119 1744.65 50.3365 Q1744.65 39.1965 1750.65 32.6746 Q1756.68 26.1121 1766.89 26.1121 Q1776.05 26.1121 1781.35 32.0264 Q1786.7 37.9003 1786.7 48.0275 M1779.25 45.84 Q1779.17 39.7232 1775.8 36.0774 Q1772.48 32.4315 1766.97 32.4315 Q1760.74 32.4315 1756.97 35.9558 Q1753.24 39.4801 1752.67 45.8805 L1779.25 45.84 Z" fill="#000000" fill-rule="evenodd" fill-opacity="1" /><path clip-path="url(#clip320)" d="M1834.26 35.9153 Q1837.05 30.8922 1840.94 28.5022 Q1844.83 26.1121 1850.1 26.1121 Q1857.19 26.1121 1861.04 31.0947 Q1864.88 36.0368 1864.88 45.1919 L1864.88 72.576 L1857.39 72.576 L1857.39 45.4349 Q1857.39 38.913 1855.08 35.7533 Q1852.77 32.5936 1848.03 32.5936 Q1842.24 32.5936 1838.88 36.4419 Q1835.52 40.2903 1835.52 46.9338 L1835.52 72.576 L1828.02 72.576 L1828.02 45.4349 Q1828.02 38.8725 1825.71 35.7533 Q1823.4 32.5936 1818.58 32.5936 Q1812.87 32.5936 1809.51 36.4824 Q1806.15 40.3308 1806.15 46.9338 L1806.15 72.576 L1798.65 72.576 L1798.65 27.2059 L1806.15 27.2059 L1806.15 34.2544 Q1808.7 30.082 1812.26 28.0971 Q1815.83 26.1121 1820.73 26.1121 Q1825.67 26.1121 1829.11 28.6237 Q1832.6 31.1352 1834.26 35.9153 Z" fill="#000000" fill-rule="evenodd" fill-opacity="1" /><path clip-path="url(#clip320)" d="M1912.32 49.9314 Q1912.32 41.7081 1908.92 37.0496 Q1905.56 32.3505 1899.64 32.3505 Q1893.73 32.3505 1890.32 37.0496 Q1886.96 41.7081 1886.96 49.9314 Q1886.96 58.1548 1890.32 62.8538 Q1893.73 67.5124 1899.64 67.5124 Q1905.56 67.5124 1908.92 62.8538 Q1912.32 58.1548 1912.32 49.9314 M1886.96 34.0924 Q1889.31 30.0415 1892.88 28.0971 Q1896.48 26.1121 1901.46 26.1121 Q1909.73 26.1121 1914.87 32.6746 Q1920.06 39.2371 1920.06 49.9314 Q1920.06 60.6258 1914.87 67.1883 Q1909.73 73.7508 1901.46 73.7508 Q1896.48 73.7508 1892.88 71.8063 Q1889.31 69.8214 1886.96 65.7705 L1886.96 72.576 L1879.47 72.576 L1879.47 9.54393 L1886.96 9.54393 L1886.96 34.0924 Z" fill="#000000" fill-rule="evenodd" fill-opacity="1" /><path clip-path="url(#clip320)" d="M1932.41 9.54393 L1939.87 9.54393 L1939.87 72.576 L1932.41 72.576 L1932.41 9.54393 Z" fill="#000000" fill-rule="evenodd" fill-opacity="1" /><path clip-path="url(#clip320)" d="M1994.27 48.0275 L1994.27 51.6733 L1960 51.6733 Q1960.49 59.3701 1964.62 63.421 Q1968.79 67.4314 1976.2 67.4314 Q1980.5 67.4314 1984.51 66.3781 Q1988.56 65.3249 1992.53 63.2184 L1992.53 70.267 Q1988.52 71.9684 1984.31 72.8596 Q1980.09 73.7508 1975.76 73.7508 Q1964.9 73.7508 1958.54 67.4314 Q1952.22 61.1119 1952.22 50.3365 Q1952.22 39.1965 1958.22 32.6746 Q1964.25 26.1121 1974.46 26.1121 Q1983.62 26.1121 1988.92 32.0264 Q1994.27 37.9003 1994.27 48.0275 M1986.82 45.84 Q1986.74 39.7232 1983.37 36.0774 Q1980.05 32.4315 1974.54 32.4315 Q1968.3 32.4315 1964.54 35.9558 Q1960.81 39.4801 1960.24 45.8805 L1986.82 45.84 Z" fill="#000000" fill-rule="evenodd" fill-opacity="1" /><path clip-path="url(#clip322)" d="
M338.375 1386.22 L338.428 1386.22 L338.44 1386.22 L338.454 1386.22 L338.47 1386.22 L338.488 1386.22 L338.508 1386.22 L338.531 1386.22 L338.557 1386.22 L338.585 1386.22 
  L338.618 1386.22 L338.654 1386.22 L338.695 1386.22 L338.741 1386.22 L338.793 1386.22 L338.851 1386.22 L338.916 1386.22 L338.99 1386.22 L339.073 1386.23 L339.166 1386.23 
  L339.271 1386.23 L339.389 1386.23 L339.521 1386.23 L339.671 1386.23 L339.838 1386.23 L340.027 1386.23 L340.237 1386.23 L340.465 1386.24 L340.71 1386.24 L340.97 1386.24 
  L341.245 1386.24 L341.532 1386.24 L341.832 1386.24 L342.143 1386.25 L342.465 1386.25 L342.799 1386.25 L343.144 1386.25 L343.497 1386.26 L343.857 1386.26 L344.225 1386.26 
  L344.6 1386.26 L344.983 1386.26 L345.374 1386.27 L345.77 1386.27 L346.173 1386.27 L346.582 1386.27 L346.998 1386.28 L347.42 1386.28 L347.849 1386.28 L348.282 1386.28 
  L348.716 1386.29 L349.156 1386.29 L349.601 1386.29 L350.055 1386.29 L350.514 1386.29 L350.978 1386.3 L351.446 1386.3 L351.916 1386.3 L352.389 1386.3 L352.867 1386.31 
  L353.349 1386.31 L353.838 1386.31 L354.332 1386.31 L354.835 1386.32 L355.344 1386.32 L355.86 1386.32 L356.379 1386.32 L356.904 1386.32 L357.433 1386.33 L357.969 1386.33 
  L358.51 1386.33 L359.054 1386.33 L359.606 1386.33 L360.163 1386.34 L360.723 1386.34 L361.289 1386.34 L361.865 1386.34 L362.45 1386.34 L363.047 1386.34 L363.65 1386.35 
  L364.262 1386.35 L364.885 1386.35 L365.512 1386.35 L366.151 1386.35 L366.8 1386.35 L367.459 1386.36 L368.128 1386.36 L368.808 1386.36 L369.503 1386.36 L370.213 1386.36 
  L370.936 1386.37 L371.668 1386.37 L372.412 1386.37 L373.159 1386.37 L373.918 1386.37 L374.685 1386.37 L375.463 1386.37 L376.253 1386.38 L377.051 1386.38 L377.857 1386.38 
  L378.672 1386.38 L379.484 1386.38 L380.315 1386.38 L381.164 1386.38 L382.026 1386.38 L382.897 1386.38 L383.763 1386.38 L384.637 1386.38 L385.536 1386.39 L386.462 1386.39 
  L387.412 1386.39 L388.388 1386.39 L389.373 1386.39 L390.371 1386.39 L391.387 1386.39 L392.422 1386.39 L393.47 1386.39 L394.536 1386.39 L395.624 1386.39 L396.737 1386.39 
  L397.874 1386.39 L399.02 1386.39 L400.183 1386.39 L401.379 1386.4 L402.584 1386.39 L403.815 1386.39 L405.06 1386.39 L406.355 1386.39 L407.709 1386.39 L409.12 1386.39 
  L410.568 1386.39 L412.023 1386.38 L413.47 1386.38 L414.914 1386.38 L416.409 1386.38 L417.893 1386.38 L419.31 1386.37 L420.738 1386.37 L422.183 1386.37 L423.676 1386.37 
  L425.219 1386.37 L426.756 1386.36 L428.275 1386.36 L429.851 1386.36 L431.447 1386.36 L433.037 1386.35 L434.668 1386.35 L436.307 1386.35 L438.022 1386.34 L439.743 1386.34 
  L441.536 1386.34 L443.303 1386.33 L445.118 1386.33 L447.047 1386.32 L449.047 1386.32 L451.234 1386.31 L453.475 1386.31 L455.874 1386.3 L458.513 1386.29 L461.059 1386.29 
  L463.891 1386.28 L466.94 1386.27 L470.369 1386.25 L473.95 1386.23 L477.196 1386.2 L480.848 1386.19 L484.689 1386.17 L488.415 1386.15 L492.606 1386.13 L496.299 1386.1 
  L500.453 1386.07 L504.038 1386.03 L507.745 1386.02 L511.383 1385.99 L515.476 1385.95 L520.081 1385.91 L524.851 1385.88 L530.092 1385.84 L535.251 1385.81 L539.69 1385.77 
  L543.778 1385.72 L547.776 1385.68 L551.923 1385.63 L555.877 1385.58 L559.905 1385.53 L564.259 1385.48 L568.533 1385.43 L572.859 1385.38 L577.055 1385.33 L581.097 1385.27 
  L585.645 1385.19 L590.056 1385.12 L594.517 1385.04 L598.598 1384.97 L602.871 1384.89 L606.556 1384.85 L610.427 1384.8 L614.637 1384.74 L619.374 1384.65 L624.313 1384.54 
  L629.099 1384.44 L634.172 1384.32 L639.878 1384.17 L646.001 1384.01 L650.905 1383.82 L656.422 1383.58 L661.533 1383.4 L666.695 1383.3 L671.975 1383.18 L677.791 1383.01 
  L684.334 1382.78 L691.695 1382.53 L698.275 1382.28 L704.559 1382.02 L711.554 1381.67 L717.454 1381.36 L724.092 1381 L731.559 1380.56 L739.959 1380.12 L749.41 1379.69 
  L760.042 1379 L769.267 1378.34 L776.547 1377.77 L782.855 1377.26 L789.953 1376.7 L797.937 1375.99 L806.92 1375.03 L813.78 1374.39 L819.267 1373.87 L825.44 1373.06 
  L832.284 1372.48 L838.016 1371.86 L844.076 1371.06 L850.892 1370.04 L858.561 1368.84 L867.188 1367.72 L875.895 1366.39 L885.689 1364.68 L896.709 1362.46 L909.105 1359.03 
  L922.441 1354.71 L933.075 1351.83 L945.038 1347.14 L954.684 1343.78 L963.982 1339.96 L974.444 1335.16 L986.212 1329.1 L998.334 1321.99 L1010.61 1314.14 L1021.53 1308.33 
  L1030.48 1305.05 L1040.54 1299.84 L1050.34 1289.56 L1061.28 1278.54 L1071.19 1268.12 L1080.59 1259.22 L1090.46 1248.97 L1100.23 1237.59 L1109.22 1226.58 L1117.73 1216.81 
  L1125.74 1210.71 L1133.16 1203.61 L1139.5 1196.38 L1145.81 1188.69 L1151.87 1181.98 L1158.05 1174.75 L1163.67 1164.77 L1168.64 1156.32 L1173.08 1149.1 L1177.8 1141.33 
  L1182.45 1133.58 L1186.89 1125.2 L1191.11 1116.85 L1195.12 1108.33 L1199.14 1099.95 L1203.29 1091.47 L1207.19 1083.78 L1211.19 1075.99 L1215.36 1066.92 L1219.47 1057.81 
  L1223.59 1048.46 L1227.93 1037.82 L1232.35 1026.18 L1236.83 1013.38 L1241.07 1001.28 L1245.47 988.501 L1249.85 975.43 L1254.23 961.381 L1258.53 946.306 L1262.76 931.552 
  L1266.91 917.532 L1270.93 904.332 L1274.99 895.623 L1279.07 887.376 L1283.11 878.704 L1287.1 869.572 L1291.06 860.398 L1294.99 851.251 L1298.79 842.016 L1302.42 833.077 
  L1305.85 824.958 L1309.21 817.674 L1312.43 811.118 L1315.73 804.27 L1318.85 794.867 L1321.88 788.927 L1325.05 781.389 L1328.31 773.075 L1331.65 764.608 L1335 755.94 
  L1338.37 747.158 L1341.75 738.726 L1345.13 730.507 L1348.51 721.977 L1351.89 712.972 L1355.24 710.199 L1358.61 709.013 L1361.96 707.159 L1365.32 704.939 L1368.66 701.8 
  L1371.96 697.321 L1375.14 693.401 L1378.26 689.692 L1381.39 686.419 L1384.43 683.636 L1387.45 681.235 L1390.38 678.189 L1393.22 674.75 L1396.1 678.954 L1398.99 684.346 
  L1401.91 685.59 L1404.91 673.105 L1407.99 661.559 L1411.09 662.695 L1414.17 669.103 L1417.17 674.838 L1419.91 677.817 L1422.8 675.888 L1425.65 665.759 L1428.55 664.11 
  L1431.52 667.031 L1434.52 670.886 L1437.52 677.958 L1440.62 684.657 L1443.77 691.247 L1446.92 697.971 L1450.09 704.915 L1453.31 711.99 L1456.56 721.293 L1459.85 733.565 
  L1463.18 746.061 L1466.54 754.16 L1469.92 758.659 L1473.32 763.142 L1476.74 767.541 L1480.08 771.87 L1483.51 772.478 L1486.94 779.157 L1490.29 786.988 L1493.58 794.38 
  L1496.82 800.483 L1499.97 808.865 L1502.96 818.046 L1505.91 825.872 L1508.71 832.379 L1511.39 838.643 L1513.96 844.781 L1516.66 851.518 L1519.36 858.521 L1522.08 865.421 
  L1524.88 872.495 L1527.61 879.501 L1530.33 885.947 L1533.14 892.232 L1536.06 898.292 L1539.16 905.284 L1542.34 914.407 L1545.58 923.893 L1548.92 933.673 L1552.32 944.211 
  L1555.79 954.886 L1559.3 965.573 L1562.77 975.869 L1566.33 985.864 L1569.89 994.886 L1573.52 1002.93 L1577.07 1009.67 L1580.71 1016.35 L1584.42 1023 L1588.22 1029.7 
  L1592.08 1036.37 L1596.01 1043.12 L1600.03 1049.96 L1604.1 1056.82 L1608.25 1063.79 L1612.46 1070.95 L1616.6 1079.43 L1620.68 1088.72 L1624.93 1098.02 L1629.34 1107.28 
  L1633.72 1115.85 L1638.29 1123.97 L1642.93 1131.61 L1647.6 1139 L1651.94 1145.65 L1656.51 1152.46 L1661.44 1159.62 L1666.42 1166.96 L1671.54 1174.25 L1676.57 1181.28 
  L1681.89 1188.43 L1687.02 1196.06 L1691.89 1201.67 L1696.2 1207.04 L1700.81 1212.79 L1705.99 1219.06 L1711.42 1224.49 L1717.07 1229.54 L1723.14 1234.78 L1729.46 1240.12 
  L1735.95 1245.57 L1742.65 1251.78 L1749.26 1258.31 L1756.68 1265.31 L1763.56 1271.59 L1770.96 1278.27 L1778.52 1283.91 L1786.54 1289.05 L1794.44 1294.52 L1801.47 1299.7 
  L1809.17 1304.92 L1817.71 1310.2 L1825.52 1314.71 L1834.3 1319.45 L1843.87 1324.33 L1850.49 1327.49 L1855.14 1329.59 L1859.36 1331.4 L1863.16 1332.96 L1866.83 1334.42 
  L1869.81 1335.6 L1872.54 1336.66 L1875.31 1337.72 L1878.15 1338.79 L1881.05 1339.87 L1884.15 1340.99 L1887.05 1342 L1890.09 1343.07 L1893.43 1344.21 L1897.08 1345.39 
  L1901.19 1346.47 L1905.61 1347.59 L1909.59 1348.58 L1913.84 1349.63 L1918.06 1350.64 L1922.47 1351.69 L1927.04 1352.76 L1932.18 1353.9 L1937.97 1355.14 L1944.48 1356.47 
  L1951.8 1357.85 L1960.03 1359.34 L1968.82 1361.11 L1978.71 1362.83 L1989.83 1364.5 L2000.28 1365.96 L2012.04 1367.48 L2023.47 1368.94 L2036.34 1370.72 L2050.82 1372.63 
  L2064.47 1374.15 L2072.82 1374.98 L2082.2 1375.85 L2092.77 1376.77 L2104.65 1377.75 L2118.02 1378.75 L2130.09 1379.5 L2143.68 1380.26 L2157.23 1380.9 L2167.34 1381.33 
  L2174.89 1381.64 L2183.39 1381.97 L2191.89 1382.28 L2199.05 1382.53 L2205.22 1382.75 L2211.01 1382.94 L2216.56 1383.13 L2222.05 1383.3 L2227.97 1383.49 L2234.63 1383.69 
  L2241.28 1383.87 L2247.69 1384.04 L2253.45 1384.19 L2258.9 1384.32 L2263.82 1384.44 L2268.3 1384.54 L2273.2 1384.65 L2278.13 1384.76 L2282.93 1384.85 L2287.02 1384.93 
  L2291.61 1385.01 L2294.08 1385.06 L2294.08 1367.86 L2291.61 1367.59 L2287.02 1367.08 L2282.93 1366.62 L2278.13 1366.08 L2273.2 1365.55 L2268.3 1364.9 L2263.82 1364.12 
  L2258.9 1363.23 L2253.45 1362.39 L2247.69 1361.51 L2241.28 1360.54 L2234.63 1359.45 L2227.97 1358.4 L2222.05 1357.43 L2216.56 1356.43 L2211.01 1355.36 L2205.22 1354.31 
  L2199.05 1353.34 L2191.89 1351.86 L2183.39 1350.32 L2174.89 1348.38 L2167.34 1346.45 L2157.23 1344.07 L2143.68 1340.58 L2130.09 1336.75 L2118.02 1333.32 L2104.65 1329.3 
  L2092.77 1325.69 L2082.2 1321.59 L2072.82 1316.75 L2064.47 1312.17 L2050.82 1303.69 L2036.34 1295.15 L2023.47 1288.95 L2012.04 1283.06 L2000.28 1276.24 L1989.83 1269.67 
  L1978.71 1262.57 L1968.82 1255.81 L1960.03 1249.45 L1951.8 1243.43 L1944.48 1237.29 L1937.97 1231.55 L1932.18 1226.22 L1927.04 1221.48 L1922.47 1217.34 L1918.06 1213.31 
  L1913.84 1209.27 L1909.59 1205.11 L1905.61 1201.11 L1901.19 1196.5 L1897.08 1192.24 L1893.43 1188.17 L1890.09 1184.39 L1887.05 1180.71 L1884.15 1177.18 L1881.05 1173.24 
  L1878.15 1169.32 L1875.31 1165.47 L1872.54 1161.55 L1869.81 1157.56 L1866.83 1153.22 L1863.16 1147.64 L1859.36 1141.87 L1855.14 1135.18 L1850.49 1127.72 L1843.87 1116.74 
  L1834.3 1100.11 L1825.52 1085.02 L1817.71 1071.62 L1809.17 1055.6 L1801.47 1039.95 L1794.44 1025.5 L1786.54 1009.81 L1778.52 993.685 L1770.96 980.004 L1763.56 967.024 
  L1756.68 955.311 L1749.26 941.077 L1742.65 928.194 L1735.95 916.013 L1729.46 903.956 L1723.14 892.547 L1717.07 880.903 L1711.42 869.377 L1705.99 857.261 L1700.81 845.822 
  L1696.2 835.582 L1691.89 825.89 L1687.02 813.138 L1681.89 797.053 L1676.57 780.122 L1671.54 764.155 L1666.42 748.935 L1661.44 735.671 L1656.51 723.784 L1651.94 711.656 
  L1647.6 700.083 L1642.93 687.552 L1638.29 675.806 L1633.72 664.912 L1629.34 654.547 L1624.93 655.266 L1620.68 645.659 L1616.6 629.641 L1612.46 613.942 L1608.25 598.016 
  L1604.1 584.429 L1600.03 568.772 L1596.01 552.896 L1592.08 538.417 L1588.22 531.87 L1584.42 525.634 L1580.71 519.185 L1577.07 512.804 L1573.52 506.627 L1569.89 499.965 
  L1566.33 493.698 L1562.77 477.944 L1559.3 460.538 L1555.79 442.369 L1552.32 423.793 L1548.92 405.575 L1545.58 388.013 L1542.34 371.243 L1539.16 355.11 L1536.06 352.305 
  L1533.14 352.861 L1530.33 353.53 L1527.61 355.257 L1524.88 358.558 L1522.08 363.874 L1519.36 369.73 L1516.66 375.698 L1513.96 373.27 L1511.39 367.125 L1508.71 364.989 
  L1505.91 368.764 L1502.96 373.84 L1499.97 379.709 L1496.82 374.01 L1493.58 368.616 L1490.29 363.528 L1486.94 355.762 L1483.51 346.272 L1480.08 335.239 L1476.74 325.259 
  L1473.32 322.063 L1469.92 314.977 L1466.54 301.063 L1463.18 298.417 L1459.85 307.919 L1456.56 301.601 L1453.31 293.062 L1450.09 283.658 L1446.92 275.545 L1443.77 266.992 
  L1440.62 258.872 L1437.52 254.37 L1434.52 249.312 L1431.52 243.131 L1428.55 238.943 L1425.65 235.3 L1422.8 232.801 L1419.91 231.778 L1417.17 231.304 L1414.17 227.349 
  L1411.09 228.115 L1407.99 224.654 L1404.91 220.429 L1401.91 226.407 L1398.99 217.748 L1396.1 204.998 L1393.22 199.418 L1390.38 194.301 L1387.45 189.835 L1384.43 186.002 
  L1381.39 183.255 L1378.26 180.113 L1375.14 176.868 L1371.96 173.43 L1368.66 170.907 L1365.32 180.538 L1361.96 183.285 L1358.61 184.771 L1355.24 187.768 L1351.89 191.824 
  L1348.51 189.625 L1345.13 178.4 L1341.75 167.078 L1338.37 160.828 L1335 160.807 L1331.65 162.787 L1328.31 167.082 L1325.05 169.104 L1321.88 165.344 L1318.85 162.983 
  L1315.73 161.463 L1312.43 160.618 L1309.21 160.256 L1305.85 161.653 L1302.42 169.204 L1298.79 179.201 L1294.99 192.488 L1291.06 204.178 L1287.1 215.304 L1283.11 229.92 
  L1279.07 248.721 L1274.99 267.582 L1270.93 268.652 L1266.91 269.006 L1262.76 284.993 L1258.53 311.632 L1254.23 339.265 L1249.85 363.528 L1245.47 367.085 L1241.07 373.743 
  L1236.83 378.09 L1232.35 393.345 L1227.93 405.371 L1223.59 417.783 L1219.47 430.424 L1215.36 429.181 L1211.19 443.578 L1207.19 464.742 L1203.29 475.894 L1199.14 489.674 
  L1195.12 505.797 L1191.11 521.81 L1186.89 540.117 L1182.45 560.495 L1177.8 582.157 L1173.08 602.713 L1168.64 620.414 L1163.67 639.082 L1158.05 658.88 L1151.87 677.399 
  L1145.81 696.842 L1139.5 714.994 L1133.16 734.215 L1125.74 753.149 L1117.73 778.542 L1109.22 806.165 L1100.23 839.533 L1090.46 878.944 L1080.59 917.455 L1071.19 952.745 
  L1061.28 987.885 L1050.34 1016.61 L1040.54 1036.95 L1030.48 1058.47 L1021.53 1077.86 L1010.61 1104.26 L998.334 1127.99 L986.212 1149.32 L974.444 1169.6 L963.982 1185.69 
  L954.684 1200.71 L945.038 1217.83 L933.075 1238.95 L922.441 1254.75 L909.105 1271.37 L896.709 1283.62 L885.689 1294.76 L875.895 1303.96 L867.188 1311.19 L858.561 1317.57 
  L850.892 1322.69 L844.076 1326.91 L838.016 1330.7 L832.284 1334.64 L825.44 1339.38 L819.267 1342.91 L813.78 1344.71 L806.92 1346.86 L797.937 1349.71 L789.953 1352.27 
  L782.855 1354.33 L776.547 1356.11 L769.267 1358.2 L760.042 1360.88 L749.41 1364.17 L739.959 1366.63 L731.559 1368.08 L724.092 1369.29 L717.454 1370.29 L711.554 1371.15 
  L704.559 1372.14 L698.275 1372.89 L691.695 1373.59 L684.334 1374.55 L677.791 1375.44 L671.975 1376.19 L666.695 1376.82 L661.533 1377.47 L656.422 1377.98 L650.905 1378.37 
  L646.001 1378.93 L639.878 1379.61 L634.172 1380.09 L629.099 1380.43 L624.313 1380.73 L619.374 1381.02 L614.637 1381.26 L610.427 1381.44 L606.556 1381.61 L602.871 1381.77 
  L598.598 1381.95 L594.517 1382.14 L590.056 1382.34 L585.645 1382.54 L581.097 1382.73 L577.055 1382.9 L572.859 1383.07 L568.533 1383.27 L564.259 1383.47 L559.905 1383.68 
  L555.877 1383.84 L551.923 1383.95 L547.776 1384.07 L543.778 1384.16 L539.69 1384.26 L535.251 1384.42 L530.092 1384.58 L524.851 1384.72 L520.081 1384.84 L515.476 1384.95 
  L511.383 1385.04 L507.745 1385.12 L504.038 1385.19 L500.453 1385.26 L496.299 1385.33 L492.606 1385.39 L488.415 1385.46 L484.689 1385.52 L480.848 1385.58 L477.196 1385.63 
  L473.95 1385.67 L470.369 1385.72 L466.94 1385.76 L463.891 1385.79 L461.059 1385.82 L458.513 1385.84 L455.874 1385.87 L453.475 1385.89 L451.234 1385.91 L449.047 1385.93 
  L447.047 1385.94 L445.118 1385.96 L443.303 1385.97 L441.536 1385.99 L439.743 1386.01 L438.022 1386.02 L436.307 1386.03 L434.668 1386.05 L433.037 1386.06 L431.447 1386.07 
  L429.851 1386.09 L428.275 1386.1 L426.756 1386.11 L425.219 1386.12 L423.676 1386.13 L422.183 1386.14 L420.738 1386.15 L419.31 1386.16 L417.893 1386.17 L416.409 1386.18 
  L414.914 1386.19 L413.47 1386.19 L412.023 1386.2 L410.568 1386.2 L409.12 1386.21 L407.709 1386.22 L406.355 1386.22 L405.06 1386.23 L403.815 1386.23 L402.584 1386.24 
  L401.379 1386.24 L400.183 1386.25 L399.02 1386.25 L397.874 1386.25 L396.737 1386.26 L395.624 1386.26 L394.536 1386.27 L393.47 1386.27 L392.422 1386.28 L391.387 1386.28 
  L390.371 1386.28 L389.373 1386.29 L388.388 1386.29 L387.412 1386.3 L386.462 1386.3 L385.536 1386.3 L384.637 1386.3 L383.763 1386.31 L382.897 1386.31 L382.026 1386.31 
  L381.164 1386.31 L380.315 1386.31 L379.484 1386.31 L378.672 1386.31 L377.857 1386.31 L377.051 1386.31 L376.253 1386.31 L375.463 1386.31 L374.685 1386.32 L373.918 1386.32 
  L373.159 1386.32 L372.412 1386.32 L371.668 1386.32 L370.936 1386.32 L370.213 1386.32 L369.503 1386.32 L368.808 1386.32 L368.128 1386.32 L367.459 1386.32 L366.8 1386.32 
  L366.151 1386.32 L365.512 1386.31 L364.885 1386.31 L364.262 1386.31 L363.65 1386.31 L363.047 1386.31 L362.45 1386.31 L361.865 1386.31 L361.289 1386.31 L360.723 1386.31 
  L360.163 1386.31 L359.606 1386.31 L359.054 1386.31 L358.51 1386.3 L357.969 1386.3 L357.433 1386.3 L356.904 1386.3 L356.379 1386.3 L355.86 1386.3 L355.344 1386.3 
  L354.835 1386.3 L354.332 1386.29 L353.838 1386.29 L353.349 1386.29 L352.867 1386.29 L352.389 1386.29 L351.916 1386.29 L351.446 1386.29 L350.978 1386.28 L350.514 1386.28 
  L350.055 1386.28 L349.601 1386.28 L349.156 1386.28 L348.716 1386.28 L348.282 1386.27 L347.849 1386.27 L347.42 1386.27 L346.998 1386.27 L346.582 1386.27 L346.173 1386.27 
  L345.77 1386.26 L345.374 1386.26 L344.983 1386.26 L344.6 1386.26 L344.225 1386.26 L343.857 1386.25 L343.497 1386.25 L343.144 1386.25 L342.799 1386.25 L342.465 1386.25 
  L342.143 1386.24 L341.832 1386.24 L341.532 1386.24 L341.245 1386.24 L340.97 1386.24 L340.71 1386.24 L340.465 1386.23 L340.237 1386.23 L340.027 1386.23 L339.838 1386.23 
  L339.671 1386.23 L339.521 1386.23 L339.389 1386.23 L339.271 1386.23 L339.166 1386.23 L339.073 1386.23 L338.99 1386.22 L338.916 1386.22 L338.851 1386.22 L338.793 1386.22 
  L338.741 1386.22 L338.695 1386.22 L338.654 1386.22 L338.618 1386.22 L338.585 1386.22 L338.557 1386.22 L338.531 1386.22 L338.508 1386.22 L338.488 1386.22 L338.47 1386.22 
  L338.454 1386.22 L338.44 1386.22 L338.428 1386.22 L338.375 1386.22  Z
  " fill="#009af9" fill-rule="evenodd" fill-opacity="0.2"/>
<polyline clip-path="url(#clip322)" style="stroke:#009af9; stroke-linecap:butt; stroke-linejoin:round; stroke-width:12; stroke-opacity:1; fill:none" points="
  338.375,1386.22 338.428,1386.22 338.44,1386.22 338.454,1386.22 338.47,1386.22 338.488,1386.22 338.508,1386.22 338.531,1386.22 338.557,1386.22 338.585,1386.22 
  338.618,1386.22 338.654,1386.22 338.695,1386.22 338.741,1386.22 338.793,1386.22 338.851,1386.22 338.916,1386.22 338.99,1386.22 339.073,1386.23 339.166,1386.23 
  339.271,1386.23 339.389,1386.23 339.521,1386.23 339.671,1386.23 339.838,1386.23 340.027,1386.23 340.237,1386.23 340.465,1386.23 340.71,1386.24 340.97,1386.24 
  341.245,1386.24 341.532,1386.24 341.832,1386.24 342.143,1386.25 342.465,1386.25 342.799,1386.25 343.144,1386.25 343.497,1386.25 343.857,1386.26 344.225,1386.26 
  344.6,1386.26 344.983,1386.26 345.374,1386.26 345.77,1386.27 346.173,1386.27 346.582,1386.27 346.998,1386.27 347.42,1386.27 347.849,1386.28 348.282,1386.28 
  348.716,1386.28 349.156,1386.28 349.601,1386.28 350.055,1386.29 350.514,1386.29 350.978,1386.29 351.446,1386.29 351.916,1386.29 352.389,1386.3 352.867,1386.3 
  353.349,1386.3 353.838,1386.3 354.332,1386.3 354.835,1386.31 355.344,1386.31 355.86,1386.31 356.379,1386.31 356.904,1386.31 357.433,1386.31 357.969,1386.32 
  358.51,1386.32 359.054,1386.32 359.606,1386.32 360.163,1386.32 360.723,1386.32 361.289,1386.33 361.865,1386.33 362.45,1386.33 363.047,1386.33 363.65,1386.33 
  364.262,1386.33 364.885,1386.33 365.512,1386.33 366.151,1386.34 366.8,1386.34 367.459,1386.34 368.128,1386.34 368.808,1386.34 369.503,1386.34 370.213,1386.34 
  370.936,1386.34 371.668,1386.34 372.412,1386.34 373.159,1386.34 373.918,1386.34 374.685,1386.35 375.463,1386.35 376.253,1386.35 377.051,1386.35 377.857,1386.35 
  378.672,1386.35 379.484,1386.35 380.315,1386.35 381.164,1386.35 382.026,1386.35 382.897,1386.35 383.763,1386.35 384.637,1386.35 385.536,1386.35 386.462,1386.35 
  387.412,1386.35 388.388,1386.35 389.373,1386.34 390.371,1386.34 391.387,1386.34 392.422,1386.34 393.47,1386.34 394.536,1386.34 395.624,1386.34 396.737,1386.34 
  397.874,1386.33 399.02,1386.33 400.183,1386.33 401.379,1386.33 402.584,1386.33 403.815,1386.32 405.06,1386.32 406.355,1386.32 407.709,1386.31 409.12,1386.31 
  410.568,1386.31 412.023,1386.3 413.47,1386.3 414.914,1386.29 416.409,1386.29 417.893,1386.28 419.31,1386.28 420.738,1386.27 422.183,1386.27 423.676,1386.26 
  425.219,1386.26 426.756,1386.25 428.275,1386.25 429.851,1386.24 431.447,1386.23 433.037,1386.23 434.668,1386.22 436.307,1386.21 438.022,1386.2 439.743,1386.19 
  441.536,1386.18 443.303,1386.17 445.118,1386.16 447.047,1386.15 449.047,1386.14 451.234,1386.13 453.475,1386.11 455.874,1386.1 458.513,1386.08 461.059,1386.06 
  463.891,1386.04 466.94,1386.02 470.369,1385.99 473.95,1385.97 477.196,1385.94 480.848,1385.9 484.689,1385.87 488.415,1385.83 492.606,1385.79 496.299,1385.75 
  500.453,1385.7 504.038,1385.66 507.745,1385.62 511.383,1385.57 515.476,1385.52 520.081,1385.45 524.851,1385.39 530.092,1385.31 535.251,1385.22 539.69,1385.15 
  543.778,1385.08 547.776,1385 551.923,1384.92 555.877,1384.85 559.905,1384.76 564.259,1384.67 568.533,1384.57 572.859,1384.47 577.055,1384.36 581.097,1384.26 
  585.645,1384.13 590.056,1384.01 594.517,1383.88 598.598,1383.76 602.871,1383.62 606.556,1383.5 610.427,1383.37 614.637,1383.22 619.374,1383.04 624.313,1382.85 
  629.099,1382.65 634.172,1382.43 639.878,1382.17 646.001,1381.88 650.905,1381.63 656.422,1381.33 661.533,1381.04 666.695,1380.74 671.975,1380.41 677.791,1380.04 
  684.334,1379.59 691.695,1379.04 698.275,1378.53 704.559,1378 711.554,1377.39 717.454,1376.84 724.092,1376.17 731.559,1375.37 739.959,1374.41 749.41,1373.23 
  760.042,1371.8 769.267,1370.43 776.547,1369.26 782.855,1368.19 789.953,1366.9 797.937,1365.35 806.92,1363.44 813.78,1361.87 819.267,1360.53 825.44,1358.94 
  832.284,1357.06 838.016,1355.41 844.076,1353.56 850.892,1351.35 858.561,1348.63 867.188,1345.3 875.895,1341.66 885.689,1337.18 896.709,1331.62 909.105,1324.62 
  922.441,1316.07 933.075,1308.51 945.038,1299.1 954.684,1290.9 963.982,1282.43 974.444,1272.07 986.212,1259.39 998.334,1245.07 1010.61,1229.03 1021.53,1213.3 
  1030.48,1199.26 1040.54,1182.39 1050.34,1164.83 1061.28,1144.09 1071.19,1123.99 1080.59,1103.96 1090.46,1082.38 1100.23,1059.99 1109.22,1038.72 1117.73,1017.64 
  1125.74,996.98 1133.16,977.4 1139.5,960.248 1145.81,942.777 1151.87,925.686 1158.05,907.899 1163.67,891.551 1168.64,877.083 1173.08,864.269 1177.8,850.694 
  1182.45,837.302 1186.89,824.41 1191.11,812.112 1195.12,800.312 1199.14,788.347 1203.29,775.894 1207.19,763.991 1211.19,751.835 1215.36,739.173 1219.47,726.628 
  1223.59,714.043 1227.93,700.744 1232.35,687.35 1236.83,673.997 1241.07,661.351 1245.47,648.492 1249.85,636.08 1254.23,624.134 1258.53,612.59 1262.76,601.465 
  1266.91,590.819 1270.93,580.761 1274.99,570.82 1279.07,561.021 1283.11,551.399 1287.1,542.158 1291.06,533.405 1294.99,525.125 1298.79,517.507 1302.42,510.506 
  1305.85,504.221 1309.21,498.258 1312.43,492.673 1315.73,487.154 1318.85,482.07 1321.88,477.223 1325.05,472.376 1328.31,467.632 1331.65,463.049 1335,458.736 
  1338.37,454.651 1341.75,450.79 1345.13,447.298 1348.51,444.121 1351.89,441.307 1355.24,438.98 1358.61,437.139 1361.96,435.614 1365.32,434.394 1368.66,433.615 
  1371.96,433.164 1375.14,432.972 1378.26,433.032 1381.39,433.303 1384.43,433.87 1387.45,434.708 1390.38,435.748 1393.22,436.937 1396.1,438.341 1398.99,439.889 
  1401.91,441.694 1404.91,443.74 1407.99,446.003 1411.09,448.483 1414.17,451.126 1417.17,453.881 1419.91,456.529 1422.8,459.529 1425.65,462.589 1428.55,465.804 
  1431.52,469.269 1434.52,472.978 1437.52,477.002 1440.62,481.439 1443.77,486.275 1446.92,491.336 1450.09,496.589 1453.31,502.109 1456.56,507.841 1459.85,513.753 
  1463.18,520.052 1466.54,526.718 1469.92,533.705 1473.32,540.939 1476.74,548.36 1480.08,555.733 1483.51,563.37 1486.94,571.057 1490.29,578.597 1493.58,586.019 
  1496.82,593.403 1499.97,600.605 1502.96,607.471 1505.91,614.359 1508.71,620.938 1511.39,627.311 1513.96,633.455 1516.66,639.896 1519.36,646.342 1522.08,652.875 
  1524.88,659.588 1527.61,666.148 1530.33,672.727 1533.14,679.596 1536.06,686.748 1539.16,694.362 1542.34,702.206 1545.58,710.292 1548.92,718.624 1552.32,727.177 
  1555.79,735.9 1559.3,744.697 1562.77,753.317 1566.33,762.101 1569.89,770.836 1573.52,779.731 1577.07,788.432 1580.71,797.427 1584.42,806.556 1588.22,815.881 
  1592.08,825.402 1596.01,835.083 1600.03,844.94 1604.1,854.885 1608.25,864.921 1612.46,875.028 1616.6,884.897 1620.68,894.566 1624.93,904.575 1629.34,914.829 
  1633.72,924.924 1638.29,935.341 1642.93,945.769 1647.6,956.167 1651.94,965.664 1656.51,975.457 1661.44,985.76 1666.42,996 1671.54,1006.3 1676.57,1016.19 
  1681.89,1026.47 1687.02,1036.17 1691.89,1045.23 1696.2,1053.12 1700.81,1061.36 1705.99,1070.42 1711.42,1079.69 1717.07,1089.08 1723.14,1098.89 1729.46,1108.72 
  1735.95,1118.52 1742.65,1128.34 1749.26,1137.74 1756.68,1147.97 1763.56,1157.12 1770.96,1166.73 1778.52,1176.19 1786.54,1185.8 1794.44,1194.88 1801.47,1202.67 
  1809.17,1210.88 1817.71,1219.68 1825.52,1227.37 1834.3,1235.68 1843.87,1244.24 1850.49,1249.89 1855.14,1253.75 1859.36,1257.15 1863.16,1260.14 1866.83,1263 
  1869.81,1265.27 1872.54,1267.33 1875.31,1269.38 1878.15,1271.45 1881.05,1273.52 1884.15,1275.69 1887.05,1277.68 1890.09,1279.73 1893.43,1281.94 1897.08,1284.29 
  1901.19,1286.87 1905.61,1289.59 1909.59,1291.98 1913.84,1294.47 1918.06,1296.88 1922.47,1299.33 1927.04,1301.81 1932.18,1304.52 1937.97,1307.48 1944.48,1310.69 
  1951.8,1314.17 1960.03,1317.89 1968.82,1321.65 1978.71,1325.65 1989.83,1329.87 2000.28,1333.6 2012.04,1337.5 2023.47,1341.01 2036.34,1344.63 2050.82,1348.36 
  2064.47,1351.57 2072.82,1353.41 2082.2,1355.36 2092.77,1357.44 2104.65,1359.62 2118.02,1361.89 2130.09,1363.79 2143.68,1365.75 2157.23,1367.56 2167.34,1368.8 
  2174.89,1369.67 2183.39,1370.59 2191.89,1371.45 2199.05,1372.15 2205.22,1372.73 2211.01,1373.24 2216.56,1373.72 2222.05,1374.18 2227.97,1374.66 2234.63,1375.18 
  2241.28,1375.68 2247.69,1376.14 2253.45,1376.54 2258.9,1376.91 2263.82,1377.23 2268.3,1377.52 2273.2,1377.82 2278.13,1378.12 2282.93,1378.4 2287.02,1378.63 
  2291.61,1378.88 2294.08,1379.01 
  "/>
<path clip-path="url(#clip320)" d="
M1567.83 270.476 L2283.65 270.476 L2283.65 166.796 L1567.83 166.796  Z
  " fill="#ffffff" fill-rule="evenodd" fill-opacity="1"/>
<polyline clip-path="url(#clip320)" style="stroke:#000000; stroke-linecap:butt; stroke-linejoin:round; stroke-width:4; stroke-opacity:1; fill:none" points="
  1567.83,270.476 2283.65,270.476 2283.65,166.796 1567.83,166.796 1567.83,270.476 
  "/>
<polyline clip-path="url(#clip320)" style="stroke:#009af9; stroke-linecap:butt; stroke-linejoin:round; stroke-width:4; stroke-opacity:1; fill:none" points="
  1590.87,218.636 1729.07,218.636 
  "/>
<path clip-path="url(#clip320)" d="M1752.1 201.356 L1759.07 201.356 L1767.89 224.874 L1776.76 201.356 L1783.72 201.356 L1783.72 235.916 L1779.16 235.916 L1779.16 205.569 L1770.25 229.272 L1765.55 229.272 L1756.64 205.569 L1756.64 235.916 L1752.1 235.916 L1752.1 201.356 Z" fill="#000000" fill-rule="evenodd" fill-opacity="1" /><path clip-path="url(#clip320)" d="M1792.82 209.99 L1797.08 209.99 L1797.08 235.916 L1792.82 235.916 L1792.82 209.99 M1792.82 199.897 L1797.08 199.897 L1797.08 205.291 L1792.82 205.291 L1792.82 199.897 Z" fill="#000000" fill-rule="evenodd" fill-opacity="1" /><path clip-path="url(#clip320)" d="M1823.05 213.925 L1823.05 199.897 L1827.31 199.897 L1827.31 235.916 L1823.05 235.916 L1823.05 232.027 Q1821.71 234.342 1819.65 235.476 Q1817.61 236.587 1814.74 236.587 Q1810.04 236.587 1807.08 232.837 Q1804.14 229.087 1804.14 222.976 Q1804.14 216.865 1807.08 213.115 Q1810.04 209.365 1814.74 209.365 Q1817.61 209.365 1819.65 210.499 Q1821.71 211.61 1823.05 213.925 M1808.54 222.976 Q1808.54 227.675 1810.46 230.36 Q1812.4 233.022 1815.78 233.022 Q1819.16 233.022 1821.11 230.36 Q1823.05 227.675 1823.05 222.976 Q1823.05 218.277 1821.11 215.615 Q1819.16 212.93 1815.78 212.93 Q1812.4 212.93 1810.46 215.615 Q1808.54 218.277 1808.54 222.976 Z" fill="#000000" fill-rule="evenodd" fill-opacity="1" /><path clip-path="url(#clip320)" d="M1853.14 213.925 L1853.14 199.897 L1857.4 199.897 L1857.4 235.916 L1853.14 235.916 L1853.14 232.027 Q1851.8 234.342 1849.74 235.476 Q1847.7 236.587 1844.83 236.587 Q1840.13 236.587 1837.17 232.837 Q1834.23 229.087 1834.23 222.976 Q1834.23 216.865 1837.17 213.115 Q1840.13 209.365 1844.83 209.365 Q1847.7 209.365 1849.74 210.499 Q1851.8 211.61 1853.14 213.925 M1838.63 222.976 Q1838.63 227.675 1840.55 230.36 Q1842.5 233.022 1845.88 233.022 Q1849.26 233.022 1851.2 230.36 Q1853.14 227.675 1853.14 222.976 Q1853.14 218.277 1851.2 215.615 Q1849.26 212.93 1845.88 212.93 Q1842.5 212.93 1840.55 215.615 Q1838.63 218.277 1838.63 222.976 Z" fill="#000000" fill-rule="evenodd" fill-opacity="1" /><path clip-path="url(#clip320)" d="M1866.18 199.897 L1870.44 199.897 L1870.44 235.916 L1866.18 235.916 L1866.18 199.897 Z" fill="#000000" fill-rule="evenodd" fill-opacity="1" /><path clip-path="url(#clip320)" d="M1901.52 221.888 L1901.52 223.971 L1881.94 223.971 Q1882.22 228.369 1884.58 230.684 Q1886.96 232.976 1891.2 232.976 Q1893.65 232.976 1895.94 232.374 Q1898.26 231.772 1900.53 230.569 L1900.53 234.596 Q1898.24 235.568 1895.83 236.078 Q1893.42 236.587 1890.94 236.587 Q1884.74 236.587 1881.11 232.976 Q1877.5 229.365 1877.5 223.207 Q1877.5 216.842 1880.92 213.115 Q1884.37 209.365 1890.2 209.365 Q1895.44 209.365 1898.47 212.745 Q1901.52 216.101 1901.52 221.888 M1897.26 220.638 Q1897.22 217.143 1895.3 215.059 Q1893.4 212.976 1890.25 212.976 Q1886.69 212.976 1884.53 214.99 Q1882.4 217.004 1882.08 220.661 L1897.26 220.638 Z" fill="#000000" fill-rule="evenodd" fill-opacity="1" /><path clip-path="url(#clip320)" d="M1924.32 235.198 L1924.32 230.939 Q1926.08 231.772 1927.89 232.212 Q1929.69 232.652 1931.43 232.652 Q1936.06 232.652 1938.49 229.55 Q1940.94 226.425 1941.29 220.082 Q1939.95 222.073 1937.89 223.138 Q1935.83 224.203 1933.33 224.203 Q1928.14 224.203 1925.11 221.078 Q1922.1 217.93 1922.1 212.49 Q1922.1 207.166 1925.25 203.948 Q1928.4 200.731 1933.63 200.731 Q1939.62 200.731 1942.77 205.337 Q1945.94 209.92 1945.94 218.67 Q1945.94 226.842 1942.06 231.726 Q1938.19 236.587 1931.64 236.587 Q1929.88 236.587 1928.07 236.24 Q1926.27 235.893 1924.32 235.198 M1933.63 220.545 Q1936.78 220.545 1938.61 218.393 Q1940.46 216.24 1940.46 212.49 Q1940.46 208.763 1938.61 206.61 Q1936.78 204.434 1933.63 204.434 Q1930.48 204.434 1928.63 206.61 Q1926.8 208.763 1926.8 212.49 Q1926.8 216.24 1928.63 218.393 Q1930.48 220.545 1933.63 220.545 Z" fill="#000000" fill-rule="evenodd" fill-opacity="1" /><path clip-path="url(#clip320)" d="M1954.39 201.356 L1972.75 201.356 L1972.75 205.291 L1958.68 205.291 L1958.68 213.763 Q1959.69 213.416 1960.71 213.254 Q1961.73 213.069 1962.75 213.069 Q1968.54 213.069 1971.92 216.24 Q1975.3 219.411 1975.3 224.828 Q1975.3 230.406 1971.82 233.508 Q1968.35 236.587 1962.03 236.587 Q1959.86 236.587 1957.59 236.217 Q1955.34 235.846 1952.94 235.106 L1952.94 230.406 Q1955.02 231.541 1957.24 232.096 Q1959.46 232.652 1961.94 232.652 Q1965.94 232.652 1968.28 230.545 Q1970.62 228.439 1970.62 224.828 Q1970.62 221.217 1968.28 219.11 Q1965.94 217.004 1961.94 217.004 Q1960.06 217.004 1958.19 217.42 Q1956.34 217.837 1954.39 218.717 L1954.39 201.356 Z" fill="#000000" fill-rule="evenodd" fill-opacity="1" /><path clip-path="url(#clip320)" d="M2013.91 220.707 Q2011.89 220.707 2010.74 222.42 Q2009.6 224.133 2009.6 227.189 Q2009.6 230.198 2010.74 231.934 Q2011.89 233.647 2013.91 233.647 Q2015.87 233.647 2017.01 231.934 Q2018.17 230.198 2018.17 227.189 Q2018.17 224.157 2017.01 222.444 Q2015.87 220.707 2013.91 220.707 M2013.91 217.768 Q2017.56 217.768 2019.72 220.314 Q2021.87 222.86 2021.87 227.189 Q2021.87 231.518 2019.69 234.064 Q2017.54 236.587 2013.91 236.587 Q2010.2 236.587 2008.05 234.064 Q2005.9 231.518 2005.9 227.189 Q2005.9 222.837 2008.05 220.314 Q2010.23 217.768 2013.91 217.768 M1990.02 203.671 Q1988.03 203.671 1986.87 205.407 Q1985.74 207.12 1985.74 210.129 Q1985.74 213.184 1986.87 214.897 Q1988 216.61 1990.02 216.61 Q1992.03 216.61 1993.17 214.897 Q1994.32 213.184 1994.32 210.129 Q1994.32 207.143 1993.17 205.407 Q1992.01 203.671 1990.02 203.671 M2010.92 200.731 L2014.62 200.731 L1993 236.587 L1989.3 236.587 L2010.92 200.731 M1990.02 200.731 Q1993.68 200.731 1995.85 203.277 Q1998.03 205.8 1998.03 210.129 Q1998.03 214.504 1995.85 217.027 Q1993.7 219.55 1990.02 219.55 Q1986.34 219.55 1984.18 217.027 Q1982.06 214.481 1982.06 210.129 Q1982.06 205.823 1984.21 203.277 Q1986.36 200.731 1990.02 200.731 Z" fill="#000000" fill-rule="evenodd" fill-opacity="1" /><path clip-path="url(#clip320)" d="M2058.24 204.527 Q2053.14 204.527 2050.13 208.323 Q2047.15 212.12 2047.15 218.67 Q2047.15 225.198 2050.13 228.994 Q2053.14 232.791 2058.24 232.791 Q2063.33 232.791 2066.29 228.994 Q2069.28 225.198 2069.28 218.67 Q2069.28 212.12 2066.29 208.323 Q2063.33 204.527 2058.24 204.527 M2064.79 235.291 L2070.94 242.027 L2065.3 242.027 L2060.18 236.494 Q2059.42 236.541 2059 236.564 Q2058.61 236.587 2058.24 236.587 Q2050.94 236.587 2046.57 231.726 Q2042.22 226.842 2042.22 218.67 Q2042.22 210.476 2046.57 205.615 Q2050.94 200.731 2058.24 200.731 Q2065.5 200.731 2069.86 205.615 Q2074.21 210.476 2074.21 218.67 Q2074.21 224.689 2071.78 228.971 Q2069.37 233.254 2064.79 235.291 Z" fill="#000000" fill-rule="evenodd" fill-opacity="1" /><path clip-path="url(#clip320)" d="M2080.9 225.684 L2080.9 209.99 L2085.16 209.99 L2085.16 225.522 Q2085.16 229.203 2086.59 231.055 Q2088.03 232.883 2090.9 232.883 Q2094.35 232.883 2096.34 230.684 Q2098.35 228.485 2098.35 224.689 L2098.35 209.99 L2102.61 209.99 L2102.61 235.916 L2098.35 235.916 L2098.35 231.934 Q2096.8 234.295 2094.74 235.453 Q2092.7 236.587 2089.99 236.587 Q2085.53 236.587 2083.21 233.809 Q2080.9 231.031 2080.9 225.684 M2091.61 209.365 L2091.61 209.365 Z" fill="#000000" fill-rule="evenodd" fill-opacity="1" /><path clip-path="url(#clip320)" d="M2123.17 222.883 Q2118 222.883 2116.01 224.064 Q2114.02 225.244 2114.02 228.092 Q2114.02 230.36 2115.5 231.703 Q2117.01 233.022 2119.58 233.022 Q2123.12 233.022 2125.25 230.522 Q2127.4 227.999 2127.4 223.832 L2127.4 222.883 L2123.17 222.883 M2131.66 221.124 L2131.66 235.916 L2127.4 235.916 L2127.4 231.981 Q2125.94 234.342 2123.77 235.476 Q2121.59 236.587 2118.44 236.587 Q2114.46 236.587 2112.1 234.365 Q2109.76 232.119 2109.76 228.369 Q2109.76 223.994 2112.68 221.772 Q2115.62 219.55 2121.43 219.55 L2127.4 219.55 L2127.4 219.133 Q2127.4 216.194 2125.46 214.596 Q2123.54 212.976 2120.04 212.976 Q2117.82 212.976 2115.71 213.508 Q2113.61 214.041 2111.66 215.106 L2111.66 211.17 Q2114 210.268 2116.2 209.828 Q2118.4 209.365 2120.48 209.365 Q2126.11 209.365 2128.88 212.282 Q2131.66 215.198 2131.66 221.124 Z" fill="#000000" fill-rule="evenodd" fill-opacity="1" /><path clip-path="url(#clip320)" d="M2161.98 220.268 L2161.98 235.916 L2157.73 235.916 L2157.73 220.407 Q2157.73 216.726 2156.29 214.897 Q2154.86 213.069 2151.98 213.069 Q2148.54 213.069 2146.55 215.268 Q2144.55 217.467 2144.55 221.263 L2144.55 235.916 L2140.27 235.916 L2140.27 209.99 L2144.55 209.99 L2144.55 214.018 Q2146.08 211.68 2148.14 210.522 Q2150.23 209.365 2152.93 209.365 Q2157.4 209.365 2159.69 212.143 Q2161.98 214.897 2161.98 220.268 Z" fill="#000000" fill-rule="evenodd" fill-opacity="1" /><path clip-path="url(#clip320)" d="M2174.69 202.629 L2174.69 209.99 L2183.47 209.99 L2183.47 213.3 L2174.69 213.3 L2174.69 227.374 Q2174.69 230.545 2175.55 231.448 Q2176.43 232.351 2179.09 232.351 L2183.47 232.351 L2183.47 235.916 L2179.09 235.916 Q2174.16 235.916 2172.29 234.087 Q2170.41 232.235 2170.41 227.374 L2170.41 213.3 L2167.29 213.3 L2167.29 209.99 L2170.41 209.99 L2170.41 202.629 L2174.69 202.629 Z" fill="#000000" fill-rule="evenodd" fill-opacity="1" /><path clip-path="url(#clip320)" d="M2189.07 209.99 L2193.33 209.99 L2193.33 235.916 L2189.07 235.916 L2189.07 209.99 M2189.07 199.897 L2193.33 199.897 L2193.33 205.291 L2189.07 205.291 L2189.07 199.897 Z" fill="#000000" fill-rule="evenodd" fill-opacity="1" /><path clip-path="url(#clip320)" d="M2202.24 199.897 L2206.5 199.897 L2206.5 235.916 L2202.24 235.916 L2202.24 199.897 Z" fill="#000000" fill-rule="evenodd" fill-opacity="1" /><path clip-path="url(#clip320)" d="M2237.59 221.888 L2237.59 223.971 L2218 223.971 Q2218.28 228.369 2220.64 230.684 Q2223.03 232.976 2227.26 232.976 Q2229.72 232.976 2232.01 232.374 Q2234.32 231.772 2236.59 230.569 L2236.59 234.596 Q2234.3 235.568 2231.89 236.078 Q2229.48 236.587 2227.01 236.587 Q2220.8 236.587 2217.17 232.976 Q2213.56 229.365 2213.56 223.207 Q2213.56 216.842 2216.98 213.115 Q2220.43 209.365 2226.27 209.365 Q2231.5 209.365 2234.53 212.745 Q2237.59 216.101 2237.59 221.888 M2233.33 220.638 Q2233.28 217.143 2231.36 215.059 Q2229.46 212.976 2226.31 212.976 Q2222.75 212.976 2220.6 214.99 Q2218.47 217.004 2218.14 220.661 L2233.33 220.638 Z" fill="#000000" fill-rule="evenodd" fill-opacity="1" /></svg>
