<?xml version="1.0" encoding="utf-8"?>
<svg xmlns="http://www.w3.org/2000/svg" xmlns:xlink="http://www.w3.org/1999/xlink" width="600" height="400" viewBox="0 0 2400 1600">
<defs>
  <clipPath id="clip900">
    <rect x="0" y="0" width="2400" height="1600"/>
  </clipPath>
</defs>
<path clip-path="url(#clip900)" d="
M0 1600 L2400 1600 L2400 0 L0 0  Z
  " fill="#ffffff" fill-rule="evenodd" fill-opacity="1"/>
<defs>
  <clipPath id="clip901">
    <rect x="480" y="0" width="1681" height="1600"/>
  </clipPath>
</defs>
<path clip-path="url(#clip900)" d="
M279.704 1423.18 L2352.76 1423.18 L2352.76 123.472 L279.704 123.472  Z
  " fill="#ffffff" fill-rule="evenodd" fill-opacity="1"/>
<defs>
  <clipPath id="clip902">
    <rect x="279" y="123" width="2074" height="1301"/>
  </clipPath>
</defs>
<polyline clip-path="url(#clip902)" style="stroke:#000000; stroke-linecap:butt; stroke-linejoin:round; stroke-width:2; stroke-opacity:0.1; fill:none" points="
  338.375,1423.18 338.375,123.472 
  "/>
<polyline clip-path="url(#clip902)" style="stroke:#000000; stroke-linecap:butt; stroke-linejoin:round; stroke-width:2; stroke-opacity:0.1; fill:none" points="
  693.959,1423.18 693.959,123.472 
  "/>
<polyline clip-path="url(#clip902)" style="stroke:#000000; stroke-linecap:butt; stroke-linejoin:round; stroke-width:2; stroke-opacity:0.1; fill:none" points="
  1049.54,1423.18 1049.54,123.472 
  "/>
<polyline clip-path="url(#clip902)" style="stroke:#000000; stroke-linecap:butt; stroke-linejoin:round; stroke-width:2; stroke-opacity:0.1; fill:none" points="
  1405.13,1423.18 1405.13,123.472 
  "/>
<polyline clip-path="url(#clip902)" style="stroke:#000000; stroke-linecap:butt; stroke-linejoin:round; stroke-width:2; stroke-opacity:0.1; fill:none" points="
  1760.71,1423.18 1760.71,123.472 
  "/>
<polyline clip-path="url(#clip902)" style="stroke:#000000; stroke-linecap:butt; stroke-linejoin:round; stroke-width:2; stroke-opacity:0.1; fill:none" points="
  2116.29,1423.18 2116.29,123.472 
  "/>
<polyline clip-path="url(#clip900)" style="stroke:#000000; stroke-linecap:butt; stroke-linejoin:round; stroke-width:4; stroke-opacity:1; fill:none" points="
  279.704,1423.18 2352.76,1423.18 
  "/>
<polyline clip-path="url(#clip900)" style="stroke:#000000; stroke-linecap:butt; stroke-linejoin:round; stroke-width:4; stroke-opacity:1; fill:none" points="
  338.375,1423.18 338.375,1404.28 
  "/>
<polyline clip-path="url(#clip900)" style="stroke:#000000; stroke-linecap:butt; stroke-linejoin:round; stroke-width:4; stroke-opacity:1; fill:none" points="
  693.959,1423.18 693.959,1404.28 
  "/>
<polyline clip-path="url(#clip900)" style="stroke:#000000; stroke-linecap:butt; stroke-linejoin:round; stroke-width:4; stroke-opacity:1; fill:none" points="
  1049.54,1423.18 1049.54,1404.28 
  "/>
<polyline clip-path="url(#clip900)" style="stroke:#000000; stroke-linecap:butt; stroke-linejoin:round; stroke-width:4; stroke-opacity:1; fill:none" points="
  1405.13,1423.18 1405.13,1404.28 
  "/>
<polyline clip-path="url(#clip900)" style="stroke:#000000; stroke-linecap:butt; stroke-linejoin:round; stroke-width:4; stroke-opacity:1; fill:none" points="
  1760.71,1423.18 1760.71,1404.28 
  "/>
<polyline clip-path="url(#clip900)" style="stroke:#000000; stroke-linecap:butt; stroke-linejoin:round; stroke-width:4; stroke-opacity:1; fill:none" points="
  2116.29,1423.18 2116.29,1404.28 
  "/>
<path clip-path="url(#clip900)" d="M338.375 1452.37 Q334.764 1452.37 332.935 1455.94 Q331.13 1459.48 331.13 1466.61 Q331.13 1473.71 332.935 1477.28 Q334.764 1480.82 338.375 1480.82 Q342.009 1480.82 343.815 1477.28 Q345.644 1473.71 345.644 1466.61 Q345.644 1459.48 343.815 1455.94 Q342.009 1452.37 338.375 1452.37 M338.375 1448.67 Q344.185 1448.67 347.241 1453.27 Q350.32 1457.86 350.32 1466.61 Q350.32 1475.33 347.241 1479.94 Q344.185 1484.52 338.375 1484.52 Q332.565 1484.52 329.486 1479.94 Q326.431 1475.33 326.431 1466.61 Q326.431 1457.86 329.486 1453.27 Q332.565 1448.67 338.375 1448.67 Z" fill="#000000" fill-rule="evenodd" fill-opacity="1" /><path clip-path="url(#clip900)" d="M653.565 1479.92 L661.204 1479.92 L661.204 1453.55 L652.894 1455.22 L652.894 1450.96 L661.158 1449.29 L665.834 1449.29 L665.834 1479.92 L673.473 1479.92 L673.473 1483.85 L653.565 1483.85 L653.565 1479.92 Z" fill="#000000" fill-rule="evenodd" fill-opacity="1" /><path clip-path="url(#clip900)" d="M692.917 1452.37 Q689.306 1452.37 687.477 1455.94 Q685.672 1459.48 685.672 1466.61 Q685.672 1473.71 687.477 1477.28 Q689.306 1480.82 692.917 1480.82 Q696.551 1480.82 698.357 1477.28 Q700.186 1473.71 700.186 1466.61 Q700.186 1459.48 698.357 1455.94 Q696.551 1452.37 692.917 1452.37 M692.917 1448.67 Q698.727 1448.67 701.783 1453.27 Q704.861 1457.86 704.861 1466.61 Q704.861 1475.33 701.783 1479.94 Q698.727 1484.52 692.917 1484.52 Q687.107 1484.52 684.028 1479.94 Q680.973 1475.33 680.973 1466.61 Q680.973 1457.86 684.028 1453.27 Q687.107 1448.67 692.917 1448.67 Z" fill="#000000" fill-rule="evenodd" fill-opacity="1" /><path clip-path="url(#clip900)" d="M723.079 1452.37 Q719.468 1452.37 717.639 1455.94 Q715.834 1459.48 715.834 1466.61 Q715.834 1473.71 717.639 1477.28 Q719.468 1480.82 723.079 1480.82 Q726.713 1480.82 728.519 1477.28 Q730.347 1473.71 730.347 1466.61 Q730.347 1459.48 728.519 1455.94 Q726.713 1452.37 723.079 1452.37 M723.079 1448.67 Q728.889 1448.67 731.945 1453.27 Q735.023 1457.86 735.023 1466.61 Q735.023 1475.33 731.945 1479.94 Q728.889 1484.52 723.079 1484.52 Q717.269 1484.52 714.19 1479.94 Q711.135 1475.33 711.135 1466.61 Q711.135 1457.86 714.19 1453.27 Q717.269 1448.67 723.079 1448.67 Z" fill="#000000" fill-rule="evenodd" fill-opacity="1" /><path clip-path="url(#clip900)" d="M1013.23 1479.92 L1029.55 1479.92 L1029.55 1483.85 L1007.61 1483.85 L1007.61 1479.92 Q1010.27 1477.16 1014.85 1472.53 Q1019.46 1467.88 1020.64 1466.54 Q1022.89 1464.01 1023.77 1462.28 Q1024.67 1460.52 1024.67 1458.83 Q1024.67 1456.07 1022.73 1454.34 Q1020.8 1452.6 1017.7 1452.6 Q1015.5 1452.6 1013.05 1453.37 Q1010.62 1454.13 1007.84 1455.68 L1007.84 1450.96 Q1010.67 1449.82 1013.12 1449.25 Q1015.57 1448.67 1017.61 1448.67 Q1022.98 1448.67 1026.17 1451.35 Q1029.37 1454.04 1029.37 1458.53 Q1029.37 1460.66 1028.56 1462.58 Q1027.77 1464.48 1025.67 1467.07 Q1025.09 1467.74 1021.98 1470.96 Q1018.88 1474.15 1013.23 1479.92 Z" fill="#000000" fill-rule="evenodd" fill-opacity="1" /><path clip-path="url(#clip900)" d="M1049.37 1452.37 Q1045.76 1452.37 1043.93 1455.94 Q1042.12 1459.48 1042.12 1466.61 Q1042.12 1473.71 1043.93 1477.28 Q1045.76 1480.82 1049.37 1480.82 Q1053 1480.82 1054.81 1477.28 Q1056.64 1473.71 1056.64 1466.61 Q1056.64 1459.48 1054.81 1455.94 Q1053 1452.37 1049.37 1452.37 M1049.37 1448.67 Q1055.18 1448.67 1058.23 1453.27 Q1061.31 1457.86 1061.31 1466.61 Q1061.31 1475.33 1058.23 1479.94 Q1055.18 1484.52 1049.37 1484.52 Q1043.56 1484.52 1040.48 1479.94 Q1037.42 1475.33 1037.42 1466.61 Q1037.42 1457.86 1040.48 1453.27 Q1043.56 1448.67 1049.37 1448.67 Z" fill="#000000" fill-rule="evenodd" fill-opacity="1" /><path clip-path="url(#clip900)" d="M1079.53 1452.37 Q1075.92 1452.37 1074.09 1455.94 Q1072.29 1459.48 1072.29 1466.61 Q1072.29 1473.71 1074.09 1477.28 Q1075.92 1480.82 1079.53 1480.82 Q1083.16 1480.82 1084.97 1477.28 Q1086.8 1473.71 1086.8 1466.61 Q1086.8 1459.48 1084.97 1455.94 Q1083.16 1452.37 1079.53 1452.37 M1079.53 1448.67 Q1085.34 1448.67 1088.4 1453.27 Q1091.47 1457.86 1091.47 1466.61 Q1091.47 1475.33 1088.4 1479.94 Q1085.34 1484.52 1079.53 1484.52 Q1073.72 1484.52 1070.64 1479.94 Q1067.59 1475.33 1067.59 1466.61 Q1067.59 1457.86 1070.64 1453.27 Q1073.72 1448.67 1079.53 1448.67 Z" fill="#000000" fill-rule="evenodd" fill-opacity="1" /><path clip-path="url(#clip900)" d="M1378.89 1465.22 Q1382.24 1465.94 1384.12 1468.2 Q1386.02 1470.47 1386.02 1473.81 Q1386.02 1478.92 1382.5 1481.72 Q1378.98 1484.52 1372.5 1484.52 Q1370.32 1484.52 1368.01 1484.08 Q1365.72 1483.67 1363.26 1482.81 L1363.26 1478.3 Q1365.21 1479.43 1367.52 1480.01 Q1369.84 1480.59 1372.36 1480.59 Q1376.76 1480.59 1379.05 1478.85 Q1381.36 1477.12 1381.36 1473.81 Q1381.36 1470.75 1379.21 1469.04 Q1377.08 1467.3 1373.26 1467.3 L1369.23 1467.3 L1369.23 1463.46 L1373.45 1463.46 Q1376.9 1463.46 1378.73 1462.09 Q1380.55 1460.7 1380.55 1458.11 Q1380.55 1455.45 1378.66 1454.04 Q1376.78 1452.6 1373.26 1452.6 Q1371.34 1452.6 1369.14 1453.02 Q1366.94 1453.44 1364.3 1454.31 L1364.3 1450.15 Q1366.97 1449.41 1369.28 1449.04 Q1371.62 1448.67 1373.68 1448.67 Q1379 1448.67 1382.11 1451.1 Q1385.21 1453.5 1385.21 1457.63 Q1385.21 1460.5 1383.56 1462.49 Q1381.92 1464.45 1378.89 1465.22 Z" fill="#000000" fill-rule="evenodd" fill-opacity="1" /><path clip-path="url(#clip900)" d="M1404.88 1452.37 Q1401.27 1452.37 1399.44 1455.94 Q1397.64 1459.48 1397.64 1466.61 Q1397.64 1473.71 1399.44 1477.28 Q1401.27 1480.82 1404.88 1480.82 Q1408.52 1480.82 1410.32 1477.28 Q1412.15 1473.71 1412.15 1466.61 Q1412.15 1459.48 1410.32 1455.94 Q1408.52 1452.37 1404.88 1452.37 M1404.88 1448.67 Q1410.69 1448.67 1413.75 1453.27 Q1416.83 1457.86 1416.83 1466.61 Q1416.83 1475.33 1413.75 1479.94 Q1410.69 1484.52 1404.88 1484.52 Q1399.07 1484.52 1395.99 1479.94 Q1392.94 1475.33 1392.94 1466.61 Q1392.94 1457.86 1395.99 1453.27 Q1399.07 1448.67 1404.88 1448.67 Z" fill="#000000" fill-rule="evenodd" fill-opacity="1" /><path clip-path="url(#clip900)" d="M1435.04 1452.37 Q1431.43 1452.37 1429.6 1455.94 Q1427.8 1459.48 1427.8 1466.61 Q1427.8 1473.71 1429.6 1477.28 Q1431.43 1480.82 1435.04 1480.82 Q1438.68 1480.82 1440.48 1477.28 Q1442.31 1473.71 1442.31 1466.61 Q1442.31 1459.48 1440.48 1455.94 Q1438.68 1452.37 1435.04 1452.37 M1435.04 1448.67 Q1440.85 1448.67 1443.91 1453.27 Q1446.99 1457.86 1446.99 1466.61 Q1446.99 1475.33 1443.91 1479.94 Q1440.85 1484.52 1435.04 1484.52 Q1429.23 1484.52 1426.16 1479.94 Q1423.1 1475.33 1423.1 1466.61 Q1423.1 1457.86 1426.16 1453.27 Q1429.23 1448.67 1435.04 1448.67 Z" fill="#000000" fill-rule="evenodd" fill-opacity="1" /><path clip-path="url(#clip900)" d="M1733.8 1453.37 L1721.99 1471.81 L1733.8 1471.81 L1733.8 1453.37 M1732.57 1449.29 L1738.45 1449.29 L1738.45 1471.81 L1743.38 1471.81 L1743.38 1475.7 L1738.45 1475.7 L1738.45 1483.85 L1733.8 1483.85 L1733.8 1475.7 L1718.2 1475.7 L1718.2 1471.19 L1732.57 1449.29 Z" fill="#000000" fill-rule="evenodd" fill-opacity="1" /><path clip-path="url(#clip900)" d="M1761.11 1452.37 Q1757.5 1452.37 1755.67 1455.94 Q1753.87 1459.48 1753.87 1466.61 Q1753.87 1473.71 1755.67 1477.28 Q1757.5 1480.82 1761.11 1480.82 Q1764.75 1480.82 1766.55 1477.28 Q1768.38 1473.71 1768.38 1466.61 Q1768.38 1459.48 1766.55 1455.94 Q1764.75 1452.37 1761.11 1452.37 M1761.11 1448.67 Q1766.92 1448.67 1769.98 1453.27 Q1773.06 1457.86 1773.06 1466.61 Q1773.06 1475.33 1769.98 1479.94 Q1766.92 1484.52 1761.11 1484.52 Q1755.3 1484.52 1752.23 1479.94 Q1749.17 1475.33 1749.17 1466.61 Q1749.17 1457.86 1752.23 1453.27 Q1755.3 1448.67 1761.11 1448.67 Z" fill="#000000" fill-rule="evenodd" fill-opacity="1" /><path clip-path="url(#clip900)" d="M1791.28 1452.37 Q1787.67 1452.37 1785.84 1455.94 Q1784.03 1459.48 1784.03 1466.61 Q1784.03 1473.71 1785.84 1477.28 Q1787.67 1480.82 1791.28 1480.82 Q1794.91 1480.82 1796.72 1477.28 Q1798.54 1473.71 1798.54 1466.61 Q1798.54 1459.48 1796.72 1455.94 Q1794.91 1452.37 1791.28 1452.37 M1791.28 1448.67 Q1797.09 1448.67 1800.14 1453.27 Q1803.22 1457.86 1803.22 1466.61 Q1803.22 1475.33 1800.14 1479.94 Q1797.09 1484.52 1791.28 1484.52 Q1785.47 1484.52 1782.39 1479.94 Q1779.33 1475.33 1779.33 1466.61 Q1779.33 1457.86 1782.39 1453.27 Q1785.47 1448.67 1791.28 1448.67 Z" fill="#000000" fill-rule="evenodd" fill-opacity="1" /><path clip-path="url(#clip900)" d="M2075.91 1449.29 L2094.27 1449.29 L2094.27 1453.23 L2080.19 1453.23 L2080.19 1461.7 Q2081.21 1461.35 2082.23 1461.19 Q2083.25 1461 2084.27 1461 Q2090.05 1461 2093.43 1464.18 Q2096.81 1467.35 2096.81 1472.76 Q2096.81 1478.34 2093.34 1481.44 Q2089.87 1484.52 2083.55 1484.52 Q2081.37 1484.52 2079.11 1484.15 Q2076.86 1483.78 2074.45 1483.04 L2074.45 1478.34 Q2076.54 1479.48 2078.76 1480.03 Q2080.98 1480.59 2083.46 1480.59 Q2087.46 1480.59 2089.8 1478.48 Q2092.14 1476.38 2092.14 1472.76 Q2092.14 1469.15 2089.8 1467.05 Q2087.46 1464.94 2083.46 1464.94 Q2081.58 1464.94 2079.71 1465.36 Q2077.86 1465.77 2075.91 1466.65 L2075.91 1449.29 Z" fill="#000000" fill-rule="evenodd" fill-opacity="1" /><path clip-path="url(#clip900)" d="M2116.03 1452.37 Q2112.42 1452.37 2110.59 1455.94 Q2108.78 1459.48 2108.78 1466.61 Q2108.78 1473.71 2110.59 1477.28 Q2112.42 1480.82 2116.03 1480.82 Q2119.66 1480.82 2121.47 1477.28 Q2123.3 1473.71 2123.3 1466.61 Q2123.3 1459.48 2121.47 1455.94 Q2119.66 1452.37 2116.03 1452.37 M2116.03 1448.67 Q2121.84 1448.67 2124.89 1453.27 Q2127.97 1457.86 2127.97 1466.61 Q2127.97 1475.33 2124.89 1479.94 Q2121.84 1484.52 2116.03 1484.52 Q2110.22 1484.52 2107.14 1479.94 Q2104.08 1475.33 2104.08 1466.61 Q2104.08 1457.86 2107.14 1453.27 Q2110.22 1448.67 2116.03 1448.67 Z" fill="#000000" fill-rule="evenodd" fill-opacity="1" /><path clip-path="url(#clip900)" d="M2146.19 1452.37 Q2142.58 1452.37 2140.75 1455.94 Q2138.94 1459.48 2138.94 1466.61 Q2138.94 1473.71 2140.75 1477.28 Q2142.58 1480.82 2146.19 1480.82 Q2149.82 1480.82 2151.63 1477.28 Q2153.46 1473.71 2153.46 1466.61 Q2153.46 1459.48 2151.63 1455.94 Q2149.82 1452.37 2146.19 1452.37 M2146.19 1448.67 Q2152 1448.67 2155.05 1453.27 Q2158.13 1457.86 2158.13 1466.61 Q2158.13 1475.33 2155.05 1479.94 Q2152 1484.52 2146.19 1484.52 Q2140.38 1484.52 2137.3 1479.94 Q2134.24 1475.33 2134.24 1466.61 Q2134.24 1457.86 2137.3 1453.27 Q2140.38 1448.67 2146.19 1448.67 Z" fill="#000000" fill-rule="evenodd" fill-opacity="1" /><path clip-path="url(#clip900)" d="M1315.29 1522.27 L1315.29 1532.4 L1327.35 1532.4 L1327.35 1536.95 L1315.29 1536.95 L1315.29 1556.3 Q1315.29 1560.66 1316.47 1561.9 Q1317.68 1563.14 1321.34 1563.14 L1327.35 1563.14 L1327.35 1568.04 L1321.34 1568.04 Q1314.56 1568.04 1311.98 1565.53 Q1309.4 1562.98 1309.4 1556.3 L1309.4 1536.95 L1305.11 1536.95 L1305.11 1532.4 L1309.4 1532.4 L1309.4 1522.27 L1315.29 1522.27 Z" fill="#000000" fill-rule="evenodd" fill-opacity="1" /><polyline clip-path="url(#clip902)" style="stroke:#000000; stroke-linecap:butt; stroke-linejoin:round; stroke-width:2; stroke-opacity:0.1; fill:none" points="
  279.704,1387.12 2352.76,1387.12 
  "/>
<polyline clip-path="url(#clip902)" style="stroke:#000000; stroke-linecap:butt; stroke-linejoin:round; stroke-width:2; stroke-opacity:0.1; fill:none" points="
  279.704,1095.17 2352.76,1095.17 
  "/>
<polyline clip-path="url(#clip902)" style="stroke:#000000; stroke-linecap:butt; stroke-linejoin:round; stroke-width:2; stroke-opacity:0.1; fill:none" points="
  279.704,803.219 2352.76,803.219 
  "/>
<polyline clip-path="url(#clip902)" style="stroke:#000000; stroke-linecap:butt; stroke-linejoin:round; stroke-width:2; stroke-opacity:0.1; fill:none" points="
  279.704,511.269 2352.76,511.269 
  "/>
<polyline clip-path="url(#clip902)" style="stroke:#000000; stroke-linecap:butt; stroke-linejoin:round; stroke-width:2; stroke-opacity:0.1; fill:none" points="
  279.704,219.318 2352.76,219.318 
  "/>
<polyline clip-path="url(#clip900)" style="stroke:#000000; stroke-linecap:butt; stroke-linejoin:round; stroke-width:4; stroke-opacity:1; fill:none" points="
  279.704,1423.18 279.704,123.472 
  "/>
<polyline clip-path="url(#clip900)" style="stroke:#000000; stroke-linecap:butt; stroke-linejoin:round; stroke-width:4; stroke-opacity:1; fill:none" points="
  279.704,1387.12 298.602,1387.12 
  "/>
<polyline clip-path="url(#clip900)" style="stroke:#000000; stroke-linecap:butt; stroke-linejoin:round; stroke-width:4; stroke-opacity:1; fill:none" points="
  279.704,1095.17 298.602,1095.17 
  "/>
<polyline clip-path="url(#clip900)" style="stroke:#000000; stroke-linecap:butt; stroke-linejoin:round; stroke-width:4; stroke-opacity:1; fill:none" points="
  279.704,803.219 298.602,803.219 
  "/>
<polyline clip-path="url(#clip900)" style="stroke:#000000; stroke-linecap:butt; stroke-linejoin:round; stroke-width:4; stroke-opacity:1; fill:none" points="
  279.704,511.269 298.602,511.269 
  "/>
<polyline clip-path="url(#clip900)" style="stroke:#000000; stroke-linecap:butt; stroke-linejoin:round; stroke-width:4; stroke-opacity:1; fill:none" points="
  279.704,219.318 298.602,219.318 
  "/>
<path clip-path="url(#clip900)" d="M126.205 1372.92 Q122.593 1372.92 120.765 1376.48 Q118.959 1380.02 118.959 1387.15 Q118.959 1394.26 120.765 1397.83 Q122.593 1401.37 126.205 1401.37 Q129.839 1401.37 131.644 1397.83 Q133.473 1394.26 133.473 1387.15 Q133.473 1380.02 131.644 1376.48 Q129.839 1372.92 126.205 1372.92 M126.205 1369.21 Q132.015 1369.21 135.07 1373.82 Q138.149 1378.4 138.149 1387.15 Q138.149 1395.88 135.07 1400.49 Q132.015 1405.07 126.205 1405.07 Q120.394 1405.07 117.316 1400.49 Q114.26 1395.88 114.26 1387.15 Q114.26 1378.4 117.316 1373.82 Q120.394 1369.21 126.205 1369.21 Z" fill="#000000" fill-rule="evenodd" fill-opacity="1" /><path clip-path="url(#clip900)" d="M146.366 1398.52 L151.251 1398.52 L151.251 1404.4 L146.366 1404.4 L146.366 1398.52 Z" fill="#000000" fill-rule="evenodd" fill-opacity="1" /><path clip-path="url(#clip900)" d="M171.436 1372.92 Q167.825 1372.92 165.996 1376.48 Q164.19 1380.02 164.19 1387.15 Q164.19 1394.26 165.996 1397.83 Q167.825 1401.37 171.436 1401.37 Q175.07 1401.37 176.876 1397.83 Q178.704 1394.26 178.704 1387.15 Q178.704 1380.02 176.876 1376.48 Q175.07 1372.92 171.436 1372.92 M171.436 1369.21 Q177.246 1369.21 180.301 1373.82 Q183.38 1378.4 183.38 1387.15 Q183.38 1395.88 180.301 1400.49 Q177.246 1405.07 171.436 1405.07 Q165.626 1405.07 162.547 1400.49 Q159.491 1395.88 159.491 1387.15 Q159.491 1378.4 162.547 1373.82 Q165.626 1369.21 171.436 1369.21 Z" fill="#000000" fill-rule="evenodd" fill-opacity="1" /><path clip-path="url(#clip900)" d="M201.598 1372.92 Q197.987 1372.92 196.158 1376.48 Q194.352 1380.02 194.352 1387.15 Q194.352 1394.26 196.158 1397.83 Q197.987 1401.37 201.598 1401.37 Q205.232 1401.37 207.037 1397.83 Q208.866 1394.26 208.866 1387.15 Q208.866 1380.02 207.037 1376.48 Q205.232 1372.92 201.598 1372.92 M201.598 1369.21 Q207.408 1369.21 210.463 1373.82 Q213.542 1378.4 213.542 1387.15 Q213.542 1395.88 210.463 1400.49 Q207.408 1405.07 201.598 1405.07 Q195.787 1405.07 192.709 1400.49 Q189.653 1395.88 189.653 1387.15 Q189.653 1378.4 192.709 1373.82 Q195.787 1369.21 201.598 1369.21 Z" fill="#000000" fill-rule="evenodd" fill-opacity="1" /><path clip-path="url(#clip900)" d="M231.76 1372.92 Q228.148 1372.92 226.32 1376.48 Q224.514 1380.02 224.514 1387.15 Q224.514 1394.26 226.32 1397.83 Q228.148 1401.37 231.76 1401.37 Q235.394 1401.37 237.199 1397.83 Q239.028 1394.26 239.028 1387.15 Q239.028 1380.02 237.199 1376.48 Q235.394 1372.92 231.76 1372.92 M231.76 1369.21 Q237.57 1369.21 240.625 1373.82 Q243.704 1378.4 243.704 1387.15 Q243.704 1395.88 240.625 1400.49 Q237.57 1405.07 231.76 1405.07 Q225.949 1405.07 222.871 1400.49 Q219.815 1395.88 219.815 1387.15 Q219.815 1378.4 222.871 1373.82 Q225.949 1369.21 231.76 1369.21 Z" fill="#000000" fill-rule="evenodd" fill-opacity="1" /><path clip-path="url(#clip900)" d="M127.2 1080.97 Q123.589 1080.97 121.76 1084.53 Q119.955 1088.07 119.955 1095.2 Q119.955 1102.31 121.76 1105.88 Q123.589 1109.42 127.2 1109.42 Q130.834 1109.42 132.64 1105.88 Q134.468 1102.31 134.468 1095.2 Q134.468 1088.07 132.64 1084.53 Q130.834 1080.97 127.2 1080.97 M127.2 1077.26 Q133.01 1077.26 136.066 1081.87 Q139.144 1086.45 139.144 1095.2 Q139.144 1103.93 136.066 1108.54 Q133.01 1113.12 127.2 1113.12 Q121.39 1113.12 118.311 1108.54 Q115.256 1103.93 115.256 1095.2 Q115.256 1086.45 118.311 1081.87 Q121.39 1077.26 127.2 1077.26 Z" fill="#000000" fill-rule="evenodd" fill-opacity="1" /><path clip-path="url(#clip900)" d="M147.362 1106.57 L152.246 1106.57 L152.246 1112.45 L147.362 1112.45 L147.362 1106.57 Z" fill="#000000" fill-rule="evenodd" fill-opacity="1" /><path clip-path="url(#clip900)" d="M172.431 1080.97 Q168.82 1080.97 166.991 1084.53 Q165.186 1088.07 165.186 1095.2 Q165.186 1102.31 166.991 1105.88 Q168.82 1109.42 172.431 1109.42 Q176.065 1109.42 177.871 1105.88 Q179.7 1102.31 179.7 1095.2 Q179.7 1088.07 177.871 1084.53 Q176.065 1080.97 172.431 1080.97 M172.431 1077.26 Q178.241 1077.26 181.297 1081.87 Q184.376 1086.45 184.376 1095.2 Q184.376 1103.93 181.297 1108.54 Q178.241 1113.12 172.431 1113.12 Q166.621 1113.12 163.542 1108.54 Q160.487 1103.93 160.487 1095.2 Q160.487 1086.45 163.542 1081.87 Q166.621 1077.26 172.431 1077.26 Z" fill="#000000" fill-rule="evenodd" fill-opacity="1" /><path clip-path="url(#clip900)" d="M196.621 1108.51 L212.94 1108.51 L212.94 1112.45 L190.996 1112.45 L190.996 1108.51 Q193.658 1105.76 198.241 1101.13 Q202.848 1096.48 204.028 1095.13 Q206.274 1092.61 207.153 1090.88 Q208.056 1089.12 208.056 1087.43 Q208.056 1084.67 206.112 1082.94 Q204.19 1081.2 201.088 1081.2 Q198.889 1081.2 196.436 1081.96 Q194.005 1082.73 191.227 1084.28 L191.227 1079.56 Q194.051 1078.42 196.505 1077.84 Q198.959 1077.26 200.996 1077.26 Q206.366 1077.26 209.561 1079.95 Q212.755 1082.63 212.755 1087.13 Q212.755 1089.25 211.945 1091.18 Q211.158 1093.07 209.051 1095.67 Q208.473 1096.34 205.371 1099.56 Q202.269 1102.75 196.621 1108.51 Z" fill="#000000" fill-rule="evenodd" fill-opacity="1" /><path clip-path="url(#clip900)" d="M222.801 1077.89 L241.158 1077.89 L241.158 1081.82 L227.084 1081.82 L227.084 1090.3 Q228.102 1089.95 229.121 1089.79 Q230.139 1089.6 231.158 1089.6 Q236.945 1089.6 240.324 1092.77 Q243.704 1095.94 243.704 1101.36 Q243.704 1106.94 240.232 1110.04 Q236.76 1113.12 230.44 1113.12 Q228.264 1113.12 225.996 1112.75 Q223.75 1112.38 221.343 1111.64 L221.343 1106.94 Q223.426 1108.07 225.648 1108.63 Q227.871 1109.19 230.347 1109.19 Q234.352 1109.19 236.69 1107.08 Q239.028 1104.97 239.028 1101.36 Q239.028 1097.75 236.69 1095.64 Q234.352 1093.54 230.347 1093.54 Q228.473 1093.54 226.598 1093.95 Q224.746 1094.37 222.801 1095.25 L222.801 1077.89 Z" fill="#000000" fill-rule="evenodd" fill-opacity="1" /><path clip-path="url(#clip900)" d="M126.205 789.018 Q122.593 789.018 120.765 792.582 Q118.959 796.124 118.959 803.254 Q118.959 810.36 120.765 813.925 Q122.593 817.466 126.205 817.466 Q129.839 817.466 131.644 813.925 Q133.473 810.36 133.473 803.254 Q133.473 796.124 131.644 792.582 Q129.839 789.018 126.205 789.018 M126.205 785.314 Q132.015 785.314 135.07 789.92 Q138.149 794.504 138.149 803.254 Q138.149 811.98 135.07 816.587 Q132.015 821.17 126.205 821.17 Q120.394 821.17 117.316 816.587 Q114.26 811.98 114.26 803.254 Q114.26 794.504 117.316 789.92 Q120.394 785.314 126.205 785.314 Z" fill="#000000" fill-rule="evenodd" fill-opacity="1" /><path clip-path="url(#clip900)" d="M146.366 814.619 L151.251 814.619 L151.251 820.499 L146.366 820.499 L146.366 814.619 Z" fill="#000000" fill-rule="evenodd" fill-opacity="1" /><path clip-path="url(#clip900)" d="M171.436 789.018 Q167.825 789.018 165.996 792.582 Q164.19 796.124 164.19 803.254 Q164.19 810.36 165.996 813.925 Q167.825 817.466 171.436 817.466 Q175.07 817.466 176.876 813.925 Q178.704 810.36 178.704 803.254 Q178.704 796.124 176.876 792.582 Q175.07 789.018 171.436 789.018 M171.436 785.314 Q177.246 785.314 180.301 789.92 Q183.38 794.504 183.38 803.254 Q183.38 811.98 180.301 816.587 Q177.246 821.17 171.436 821.17 Q165.626 821.17 162.547 816.587 Q159.491 811.98 159.491 803.254 Q159.491 794.504 162.547 789.92 Q165.626 785.314 171.436 785.314 Z" fill="#000000" fill-rule="evenodd" fill-opacity="1" /><path clip-path="url(#clip900)" d="M191.644 785.939 L210 785.939 L210 789.874 L195.926 789.874 L195.926 798.346 Q196.945 797.999 197.963 797.837 Q198.982 797.652 200 797.652 Q205.787 797.652 209.167 800.823 Q212.547 803.994 212.547 809.411 Q212.547 814.99 209.074 818.091 Q205.602 821.17 199.283 821.17 Q197.107 821.17 194.838 820.8 Q192.593 820.429 190.186 819.689 L190.186 814.99 Q192.269 816.124 194.491 816.679 Q196.713 817.235 199.19 817.235 Q203.195 817.235 205.533 815.128 Q207.871 813.022 207.871 809.411 Q207.871 805.8 205.533 803.693 Q203.195 801.587 199.19 801.587 Q197.315 801.587 195.44 802.004 Q193.588 802.42 191.644 803.3 L191.644 785.939 Z" fill="#000000" fill-rule="evenodd" fill-opacity="1" /><path clip-path="url(#clip900)" d="M231.76 789.018 Q228.148 789.018 226.32 792.582 Q224.514 796.124 224.514 803.254 Q224.514 810.36 226.32 813.925 Q228.148 817.466 231.76 817.466 Q235.394 817.466 237.199 813.925 Q239.028 810.36 239.028 803.254 Q239.028 796.124 237.199 792.582 Q235.394 789.018 231.76 789.018 M231.76 785.314 Q237.57 785.314 240.625 789.92 Q243.704 794.504 243.704 803.254 Q243.704 811.98 240.625 816.587 Q237.57 821.17 231.76 821.17 Q225.949 821.17 222.871 816.587 Q219.815 811.98 219.815 803.254 Q219.815 794.504 222.871 789.92 Q225.949 785.314 231.76 785.314 Z" fill="#000000" fill-rule="evenodd" fill-opacity="1" /><path clip-path="url(#clip900)" d="M127.2 497.067 Q123.589 497.067 121.76 500.632 Q119.955 504.174 119.955 511.303 Q119.955 518.41 121.76 521.975 Q123.589 525.516 127.2 525.516 Q130.834 525.516 132.64 521.975 Q134.468 518.41 134.468 511.303 Q134.468 504.174 132.64 500.632 Q130.834 497.067 127.2 497.067 M127.2 493.364 Q133.01 493.364 136.066 497.97 Q139.144 502.553 139.144 511.303 Q139.144 520.03 136.066 524.637 Q133.01 529.22 127.2 529.22 Q121.39 529.22 118.311 524.637 Q115.256 520.03 115.256 511.303 Q115.256 502.553 118.311 497.97 Q121.39 493.364 127.2 493.364 Z" fill="#000000" fill-rule="evenodd" fill-opacity="1" /><path clip-path="url(#clip900)" d="M147.362 522.669 L152.246 522.669 L152.246 528.549 L147.362 528.549 L147.362 522.669 Z" fill="#000000" fill-rule="evenodd" fill-opacity="1" /><path clip-path="url(#clip900)" d="M172.431 497.067 Q168.82 497.067 166.991 500.632 Q165.186 504.174 165.186 511.303 Q165.186 518.41 166.991 521.975 Q168.82 525.516 172.431 525.516 Q176.065 525.516 177.871 521.975 Q179.7 518.41 179.7 511.303 Q179.7 504.174 177.871 500.632 Q176.065 497.067 172.431 497.067 M172.431 493.364 Q178.241 493.364 181.297 497.97 Q184.376 502.553 184.376 511.303 Q184.376 520.03 181.297 524.637 Q178.241 529.22 172.431 529.22 Q166.621 529.22 163.542 524.637 Q160.487 520.03 160.487 511.303 Q160.487 502.553 163.542 497.97 Q166.621 493.364 172.431 493.364 Z" fill="#000000" fill-rule="evenodd" fill-opacity="1" /><path clip-path="url(#clip900)" d="M191.413 493.989 L213.635 493.989 L213.635 495.979 L201.088 528.549 L196.204 528.549 L208.01 497.924 L191.413 497.924 L191.413 493.989 Z" fill="#000000" fill-rule="evenodd" fill-opacity="1" /><path clip-path="url(#clip900)" d="M222.801 493.989 L241.158 493.989 L241.158 497.924 L227.084 497.924 L227.084 506.396 Q228.102 506.049 229.121 505.887 Q230.139 505.701 231.158 505.701 Q236.945 505.701 240.324 508.873 Q243.704 512.044 243.704 517.461 Q243.704 523.039 240.232 526.141 Q236.76 529.22 230.44 529.22 Q228.264 529.22 225.996 528.849 Q223.75 528.479 221.343 527.738 L221.343 523.039 Q223.426 524.174 225.648 524.729 Q227.871 525.285 230.347 525.285 Q234.352 525.285 236.69 523.178 Q239.028 521.072 239.028 517.461 Q239.028 513.85 236.69 511.743 Q234.352 509.637 230.347 509.637 Q228.473 509.637 226.598 510.053 Q224.746 510.47 222.801 511.35 L222.801 493.989 Z" fill="#000000" fill-rule="evenodd" fill-opacity="1" /><path clip-path="url(#clip900)" d="M126.205 205.117 Q122.593 205.117 120.765 208.682 Q118.959 212.223 118.959 219.353 Q118.959 226.459 120.765 230.024 Q122.593 233.566 126.205 233.566 Q129.839 233.566 131.644 230.024 Q133.473 226.459 133.473 219.353 Q133.473 212.223 131.644 208.682 Q129.839 205.117 126.205 205.117 M126.205 201.413 Q132.015 201.413 135.07 206.02 Q138.149 210.603 138.149 219.353 Q138.149 228.08 135.07 232.686 Q132.015 237.27 126.205 237.27 Q120.394 237.27 117.316 232.686 Q114.26 228.08 114.26 219.353 Q114.26 210.603 117.316 206.02 Q120.394 201.413 126.205 201.413 Z" fill="#000000" fill-rule="evenodd" fill-opacity="1" /><path clip-path="url(#clip900)" d="M146.366 230.719 L151.251 230.719 L151.251 236.598 L146.366 236.598 L146.366 230.719 Z" fill="#000000" fill-rule="evenodd" fill-opacity="1" /><path clip-path="url(#clip900)" d="M162.246 232.663 L169.885 232.663 L169.885 206.298 L161.575 207.964 L161.575 203.705 L169.839 202.038 L174.514 202.038 L174.514 232.663 L182.153 232.663 L182.153 236.598 L162.246 236.598 L162.246 232.663 Z" fill="#000000" fill-rule="evenodd" fill-opacity="1" /><path clip-path="url(#clip900)" d="M201.598 205.117 Q197.987 205.117 196.158 208.682 Q194.352 212.223 194.352 219.353 Q194.352 226.459 196.158 230.024 Q197.987 233.566 201.598 233.566 Q205.232 233.566 207.037 230.024 Q208.866 226.459 208.866 219.353 Q208.866 212.223 207.037 208.682 Q205.232 205.117 201.598 205.117 M201.598 201.413 Q207.408 201.413 210.463 206.02 Q213.542 210.603 213.542 219.353 Q213.542 228.08 210.463 232.686 Q207.408 237.27 201.598 237.27 Q195.787 237.27 192.709 232.686 Q189.653 228.08 189.653 219.353 Q189.653 210.603 192.709 206.02 Q195.787 201.413 201.598 201.413 Z" fill="#000000" fill-rule="evenodd" fill-opacity="1" /><path clip-path="url(#clip900)" d="M231.76 205.117 Q228.148 205.117 226.32 208.682 Q224.514 212.223 224.514 219.353 Q224.514 226.459 226.32 230.024 Q228.148 233.566 231.76 233.566 Q235.394 233.566 237.199 230.024 Q239.028 226.459 239.028 219.353 Q239.028 212.223 237.199 208.682 Q235.394 205.117 231.76 205.117 M231.76 201.413 Q237.57 201.413 240.625 206.02 Q243.704 210.603 243.704 219.353 Q243.704 228.08 240.625 232.686 Q237.57 237.27 231.76 237.27 Q225.949 237.27 222.871 232.686 Q219.815 228.08 219.815 219.353 Q219.815 210.603 222.871 206.02 Q225.949 201.413 231.76 201.413 Z" fill="#000000" fill-rule="evenodd" fill-opacity="1" /><path clip-path="url(#clip900)" d="M28.3562 814.719 L28.3562 808.863 L64.0042 808.863 L64.0042 814.719 L28.3562 814.719 M14.479 814.719 L14.479 808.863 L21.895 808.863 L21.895 814.719 L14.479 814.719 Z" fill="#000000" fill-rule="evenodd" fill-opacity="1" /><path clip-path="url(#clip900)" d="M14.5426 782.54 Q21.8632 786.805 29.0246 788.874 Q36.186 790.943 43.5384 790.943 Q50.8908 790.943 58.1159 788.874 Q65.3091 786.774 72.5979 782.54 L72.5979 787.633 Q65.1182 792.407 57.8931 794.794 Q50.668 797.15 43.5384 797.15 Q36.4406 797.15 29.2474 794.794 Q22.0542 792.439 14.5426 787.633 L14.5426 782.54 Z" fill="#000000" fill-rule="evenodd" fill-opacity="1" /><path clip-path="url(#clip900)" d="M18.2347 765.385 L28.3562 765.385 L28.3562 753.322 L32.9077 753.322 L32.9077 765.385 L52.2594 765.385 Q56.6199 765.385 57.8613 764.207 Q59.1026 762.998 59.1026 759.337 L59.1026 753.322 L64.0042 753.322 L64.0042 759.337 Q64.0042 766.117 61.4897 768.695 Q58.9434 771.273 52.2594 771.273 L32.9077 771.273 L32.9077 775.57 L28.3562 775.57 L28.3562 771.273 L18.2347 771.273 L18.2347 765.385 Z" fill="#000000" fill-rule="evenodd" fill-opacity="1" /><path clip-path="url(#clip900)" d="M14.5426 746.542 L14.5426 741.45 Q22.0542 736.675 29.2474 734.32 Q36.4406 731.933 43.5384 731.933 Q50.668 731.933 57.8931 734.32 Q65.1182 736.675 72.5979 741.45 L72.5979 746.542 Q65.3091 742.309 58.1159 740.24 Q50.8908 738.14 43.5384 738.14 Q36.186 738.14 29.0246 740.24 Q21.8632 742.309 14.5426 746.542 Z" fill="#000000" fill-rule="evenodd" fill-opacity="1" /><path clip-path="url(#clip900)" d="M666.222 17.6457 Q657.31 17.6457 652.044 24.2892 Q646.818 30.9327 646.818 42.3968 Q646.818 53.8203 652.044 60.4638 Q657.31 67.1073 666.222 67.1073 Q675.134 67.1073 680.319 60.4638 Q685.545 53.8203 685.545 42.3968 Q685.545 30.9327 680.319 24.2892 Q675.134 17.6457 666.222 17.6457 M677.686 71.4823 L688.461 83.2704 L678.577 83.2704 L669.625 73.5887 Q668.288 73.6697 667.559 73.7103 Q666.87 73.7508 666.222 73.7508 Q653.461 73.7508 645.805 65.2439 Q638.19 56.6965 638.19 42.3968 Q638.19 28.0566 645.805 19.5497 Q653.461 11.0023 666.222 11.0023 Q678.942 11.0023 686.557 19.5497 Q694.173 28.0566 694.173 42.3968 Q694.173 52.9291 689.92 60.4233 Q685.707 67.9175 677.686 71.4823 Z" fill="#000000" fill-rule="evenodd" fill-opacity="1" /><path clip-path="url(#clip900)" d="M705.88 54.671 L705.88 27.2059 L713.334 27.2059 L713.334 54.3874 Q713.334 60.8284 715.845 64.0691 Q718.357 67.2693 723.38 67.2693 Q729.416 67.2693 732.9 63.421 Q736.424 59.5726 736.424 52.9291 L736.424 27.2059 L743.878 27.2059 L743.878 72.576 L736.424 72.576 L736.424 65.6084 Q733.71 69.7404 730.105 71.7658 Q726.54 73.7508 721.8 73.7508 Q713.982 73.7508 709.931 68.8897 Q705.88 64.0286 705.88 54.671 M724.636 26.1121 L724.636 26.1121 Z" fill="#000000" fill-rule="evenodd" fill-opacity="1" /><path clip-path="url(#clip900)" d="M779.85 49.7694 Q770.816 49.7694 767.332 51.8354 Q763.849 53.9013 763.849 58.8839 Q763.849 62.8538 766.441 65.2034 Q769.074 67.5124 773.571 67.5124 Q779.769 67.5124 783.495 63.1374 Q787.263 58.7219 787.263 51.4303 L787.263 49.7694 L779.85 49.7694 M794.716 46.6907 L794.716 72.576 L787.263 72.576 L787.263 65.6895 Q784.711 69.8214 780.903 71.8063 Q777.095 73.7508 771.586 73.7508 Q764.618 73.7508 760.486 69.8619 Q756.395 65.9325 756.395 59.3701 Q756.395 51.7138 761.499 47.825 Q766.644 43.9361 776.812 43.9361 L787.263 43.9361 L787.263 43.2069 Q787.263 38.0623 783.86 35.2672 Q780.498 32.4315 774.381 32.4315 Q770.492 32.4315 766.806 33.3632 Q763.119 34.295 759.717 36.1584 L759.717 29.2718 Q763.808 27.692 767.656 26.9223 Q771.505 26.1121 775.151 26.1121 Q784.994 26.1121 789.855 31.2163 Q794.716 36.3204 794.716 46.6907 Z" fill="#000000" fill-rule="evenodd" fill-opacity="1" /><path clip-path="url(#clip900)" d="M847.783 45.1919 L847.783 72.576 L840.33 72.576 L840.33 45.4349 Q840.33 38.994 837.818 35.7938 Q835.307 32.5936 830.283 32.5936 Q824.248 32.5936 820.764 36.4419 Q817.28 40.2903 817.28 46.9338 L817.28 72.576 L809.786 72.576 L809.786 27.2059 L817.28 27.2059 L817.28 34.2544 Q819.954 30.163 823.559 28.1376 Q827.205 26.1121 831.944 26.1121 Q839.763 26.1121 843.773 30.9732 Q847.783 35.7938 847.783 45.1919 Z" fill="#000000" fill-rule="evenodd" fill-opacity="1" /><path clip-path="url(#clip900)" d="M870.023 14.324 L870.023 27.2059 L885.376 27.2059 L885.376 32.9987 L870.023 32.9987 L870.023 57.6282 Q870.023 63.1779 871.522 64.7578 Q873.061 66.3376 877.72 66.3376 L885.376 66.3376 L885.376 72.576 L877.72 72.576 Q869.091 72.576 865.81 69.3758 Q862.529 66.1351 862.529 57.6282 L862.529 32.9987 L857.06 32.9987 L857.06 27.2059 L862.529 27.2059 L862.529 14.324 L870.023 14.324 Z" fill="#000000" fill-rule="evenodd" fill-opacity="1" /><path clip-path="url(#clip900)" d="M895.179 27.2059 L902.633 27.2059 L902.633 72.576 L895.179 72.576 L895.179 27.2059 M895.179 9.54393 L902.633 9.54393 L902.633 18.9825 L895.179 18.9825 L895.179 9.54393 Z" fill="#000000" fill-rule="evenodd" fill-opacity="1" /><path clip-path="url(#clip900)" d="M918.229 9.54393 L925.682 9.54393 L925.682 72.576 L918.229 72.576 L918.229 9.54393 Z" fill="#000000" fill-rule="evenodd" fill-opacity="1" /><path clip-path="url(#clip900)" d="M980.086 48.0275 L980.086 51.6733 L945.815 51.6733 Q946.301 59.3701 950.433 63.421 Q954.606 67.4314 962.019 67.4314 Q966.313 67.4314 970.323 66.3781 Q974.374 65.3249 978.344 63.2184 L978.344 70.267 Q974.334 71.9684 970.121 72.8596 Q965.908 73.7508 961.573 73.7508 Q950.717 73.7508 944.357 67.4314 Q938.037 61.1119 938.037 50.3365 Q938.037 39.1965 944.033 32.6746 Q950.069 26.1121 960.277 26.1121 Q969.432 26.1121 974.739 32.0264 Q980.086 37.9003 980.086 48.0275 M972.632 45.84 Q972.551 39.7232 969.189 36.0774 Q965.867 32.4315 960.358 32.4315 Q954.12 32.4315 950.352 35.9558 Q946.625 39.4801 946.058 45.8805 L972.632 45.84 Z" fill="#000000" fill-rule="evenodd" fill-opacity="1" /><path clip-path="url(#clip900)" d="M1021.24 28.5427 L1021.24 35.5912 Q1018.08 33.9709 1014.68 33.1607 Q1011.28 32.3505 1007.63 32.3505 Q1002.08 32.3505 999.287 34.0519 Q996.533 35.7533 996.533 39.156 Q996.533 41.7486 998.517 43.2475 Q1000.5 44.7058 1006.5 46.0426 L1009.05 46.6097 Q1016.99 48.3111 1020.31 51.4303 Q1023.67 54.509 1023.67 60.0587 Q1023.67 66.3781 1018.65 70.0644 Q1013.67 73.7508 1004.92 73.7508 Q1001.27 73.7508 997.302 73.0216 Q993.373 72.3329 988.998 70.9151 L988.998 63.2184 Q993.13 65.3654 997.14 66.4591 Q1001.15 67.5124 1005.08 67.5124 Q1010.35 67.5124 1013.18 65.73 Q1016.02 63.9071 1016.02 60.6258 Q1016.02 57.5877 1013.95 55.9673 Q1011.93 54.3469 1005 52.8481 L1002.41 52.2405 Q995.479 50.7821 992.401 47.7845 Q989.322 44.7463 989.322 39.4801 Q989.322 33.0797 993.859 29.5959 Q998.396 26.1121 1006.74 26.1121 Q1010.87 26.1121 1014.52 26.7198 Q1018.16 27.3274 1021.24 28.5427 Z" fill="#000000" fill-rule="evenodd" fill-opacity="1" /><path clip-path="url(#clip900)" d="M1079.5 32.4315 Q1073.5 32.4315 1070.02 37.1306 Q1066.53 41.7891 1066.53 49.9314 Q1066.53 58.0738 1069.98 62.7728 Q1073.46 67.4314 1079.5 67.4314 Q1085.45 67.4314 1088.93 62.7323 Q1092.42 58.0333 1092.42 49.9314 Q1092.42 41.8701 1088.93 37.1711 Q1085.45 32.4315 1079.5 32.4315 M1079.5 26.1121 Q1089.22 26.1121 1094.77 32.4315 Q1100.32 38.7509 1100.32 49.9314 Q1100.32 61.0714 1094.77 67.4314 Q1089.22 73.7508 1079.5 73.7508 Q1069.73 73.7508 1064.18 67.4314 Q1058.67 61.0714 1058.67 49.9314 Q1058.67 38.7509 1064.18 32.4315 Q1069.73 26.1121 1079.5 26.1121 Z" fill="#000000" fill-rule="evenodd" fill-opacity="1" /><path clip-path="url(#clip900)" d="M1135.64 9.54393 L1135.64 15.7418 L1128.51 15.7418 Q1124.5 15.7418 1122.92 17.3622 Q1121.38 18.9825 1121.38 23.1955 L1121.38 27.2059 L1133.66 27.2059 L1133.66 32.9987 L1121.38 32.9987 L1121.38 72.576 L1113.89 72.576 L1113.89 32.9987 L1106.76 32.9987 L1106.76 27.2059 L1113.89 27.2059 L1113.89 24.0462 Q1113.89 16.471 1117.41 13.0277 Q1120.94 9.54393 1128.59 9.54393 L1135.64 9.54393 Z" fill="#000000" fill-rule="evenodd" fill-opacity="1" /><path clip-path="url(#clip900)" d="M1168.57 12.096 L1176.76 12.096 L1176.76 72.576 L1168.57 72.576 L1168.57 12.096 Z" fill="#000000" fill-rule="evenodd" fill-opacity="1" /><path clip-path="url(#clip900)" d="M1230.43 45.1919 L1230.43 72.576 L1222.98 72.576 L1222.98 45.4349 Q1222.98 38.994 1220.47 35.7938 Q1217.95 32.5936 1212.93 32.5936 Q1206.9 32.5936 1203.41 36.4419 Q1199.93 40.2903 1199.93 46.9338 L1199.93 72.576 L1192.43 72.576 L1192.43 27.2059 L1199.93 27.2059 L1199.93 34.2544 Q1202.6 30.163 1206.21 28.1376 Q1209.85 26.1121 1214.59 26.1121 Q1222.41 26.1121 1226.42 30.9732 Q1230.43 35.7938 1230.43 45.1919 Z" fill="#000000" fill-rule="evenodd" fill-opacity="1" /><path clip-path="url(#clip900)" d="M1268.27 9.54393 L1268.27 15.7418 L1261.14 15.7418 Q1257.13 15.7418 1255.55 17.3622 Q1254.01 18.9825 1254.01 23.1955 L1254.01 27.2059 L1266.28 27.2059 L1266.28 32.9987 L1254.01 32.9987 L1254.01 72.576 L1246.51 72.576 L1246.51 32.9987 L1239.38 32.9987 L1239.38 27.2059 L1246.51 27.2059 L1246.51 24.0462 Q1246.51 16.471 1250.04 13.0277 Q1253.56 9.54393 1261.22 9.54393 L1268.27 9.54393 Z" fill="#000000" fill-rule="evenodd" fill-opacity="1" /><path clip-path="url(#clip900)" d="M1313.31 48.0275 L1313.31 51.6733 L1279.04 51.6733 Q1279.53 59.3701 1283.66 63.421 Q1287.83 67.4314 1295.25 67.4314 Q1299.54 67.4314 1303.55 66.3781 Q1307.6 65.3249 1311.57 63.2184 L1311.57 70.267 Q1307.56 71.9684 1303.35 72.8596 Q1299.14 73.7508 1294.8 73.7508 Q1283.94 73.7508 1277.58 67.4314 Q1271.26 61.1119 1271.26 50.3365 Q1271.26 39.1965 1277.26 32.6746 Q1283.3 26.1121 1293.5 26.1121 Q1302.66 26.1121 1307.97 32.0264 Q1313.31 37.9003 1313.31 48.0275 M1305.86 45.84 Q1305.78 39.7232 1302.42 36.0774 Q1299.09 32.4315 1293.59 32.4315 Q1287.35 32.4315 1283.58 35.9558 Q1279.85 39.4801 1279.29 45.8805 L1305.86 45.84 Z" fill="#000000" fill-rule="evenodd" fill-opacity="1" /><path clip-path="url(#clip900)" d="M1358.2 28.9478 L1358.2 35.9153 Q1355.04 34.1734 1351.84 33.3227 Q1348.68 32.4315 1345.44 32.4315 Q1338.19 32.4315 1334.18 37.0496 Q1330.17 41.6271 1330.17 49.9314 Q1330.17 58.2358 1334.18 62.8538 Q1338.19 67.4314 1345.44 67.4314 Q1348.68 67.4314 1351.84 66.5807 Q1355.04 65.6895 1358.2 63.9476 L1358.2 70.8341 Q1355.08 72.2924 1351.72 73.0216 Q1348.39 73.7508 1344.63 73.7508 Q1334.38 73.7508 1328.34 67.3098 Q1322.31 60.8689 1322.31 49.9314 Q1322.31 38.832 1328.38 32.472 Q1334.5 26.1121 1345.11 26.1121 Q1348.56 26.1121 1351.84 26.8413 Q1355.12 27.5299 1358.2 28.9478 Z" fill="#000000" fill-rule="evenodd" fill-opacity="1" /><path clip-path="url(#clip900)" d="M1378.53 14.324 L1378.53 27.2059 L1393.89 27.2059 L1393.89 32.9987 L1378.53 32.9987 L1378.53 57.6282 Q1378.53 63.1779 1380.03 64.7578 Q1381.57 66.3376 1386.23 66.3376 L1393.89 66.3376 L1393.89 72.576 L1386.23 72.576 Q1377.6 72.576 1374.32 69.3758 Q1371.04 66.1351 1371.04 57.6282 L1371.04 32.9987 L1365.57 32.9987 L1365.57 27.2059 L1371.04 27.2059 L1371.04 14.324 L1378.53 14.324 Z" fill="#000000" fill-rule="evenodd" fill-opacity="1" /><path clip-path="url(#clip900)" d="M1403.69 27.2059 L1411.14 27.2059 L1411.14 72.576 L1403.69 72.576 L1403.69 27.2059 M1403.69 9.54393 L1411.14 9.54393 L1411.14 18.9825 L1403.69 18.9825 L1403.69 9.54393 Z" fill="#000000" fill-rule="evenodd" fill-opacity="1" /><path clip-path="url(#clip900)" d="M1444.32 32.4315 Q1438.32 32.4315 1434.84 37.1306 Q1431.36 41.7891 1431.36 49.9314 Q1431.36 58.0738 1434.8 62.7728 Q1438.28 67.4314 1444.32 67.4314 Q1450.27 67.4314 1453.76 62.7323 Q1457.24 58.0333 1457.24 49.9314 Q1457.24 41.8701 1453.76 37.1711 Q1450.27 32.4315 1444.32 32.4315 M1444.32 26.1121 Q1454.04 26.1121 1459.59 32.4315 Q1465.14 38.7509 1465.14 49.9314 Q1465.14 61.0714 1459.59 67.4314 Q1454.04 73.7508 1444.32 73.7508 Q1434.56 73.7508 1429.01 67.4314 Q1423.5 61.0714 1423.5 49.9314 Q1423.5 38.7509 1429.01 32.4315 Q1434.56 26.1121 1444.32 26.1121 Z" fill="#000000" fill-rule="evenodd" fill-opacity="1" /><path clip-path="url(#clip900)" d="M1515.21 45.1919 L1515.21 72.576 L1507.76 72.576 L1507.76 45.4349 Q1507.76 38.994 1505.25 35.7938 Q1502.73 32.5936 1497.71 32.5936 Q1491.67 32.5936 1488.19 36.4419 Q1484.71 40.2903 1484.71 46.9338 L1484.71 72.576 L1477.21 72.576 L1477.21 27.2059 L1484.71 27.2059 L1484.71 34.2544 Q1487.38 30.163 1490.99 28.1376 Q1494.63 26.1121 1499.37 26.1121 Q1507.19 26.1121 1511.2 30.9732 Q1515.21 35.7938 1515.21 45.1919 Z" fill="#000000" fill-rule="evenodd" fill-opacity="1" /><path clip-path="url(#clip900)" d="M1559 28.5427 L1559 35.5912 Q1555.84 33.9709 1552.44 33.1607 Q1549.04 32.3505 1545.39 32.3505 Q1539.84 32.3505 1537.04 34.0519 Q1534.29 35.7533 1534.29 39.156 Q1534.29 41.7486 1536.28 43.2475 Q1538.26 44.7058 1544.26 46.0426 L1546.81 46.6097 Q1554.75 48.3111 1558.07 51.4303 Q1561.43 54.509 1561.43 60.0587 Q1561.43 66.3781 1556.41 70.0644 Q1551.43 73.7508 1542.68 73.7508 Q1539.03 73.7508 1535.06 73.0216 Q1531.13 72.3329 1526.76 70.9151 L1526.76 63.2184 Q1530.89 65.3654 1534.9 66.4591 Q1538.91 67.5124 1542.84 67.5124 Q1548.1 67.5124 1550.94 65.73 Q1553.77 63.9071 1553.77 60.6258 Q1553.77 57.5877 1551.71 55.9673 Q1549.68 54.3469 1542.76 52.8481 L1540.16 52.2405 Q1533.24 50.7821 1530.16 47.7845 Q1527.08 44.7463 1527.08 39.4801 Q1527.08 33.0797 1531.62 29.5959 Q1536.15 26.1121 1544.5 26.1121 Q1548.63 26.1121 1552.28 26.7198 Q1555.92 27.3274 1559 28.5427 Z" fill="#000000" fill-rule="evenodd" fill-opacity="1" /><path clip-path="url(#clip900)" d="M1600 12.096 L1638.24 12.096 L1638.24 18.9825 L1608.18 18.9825 L1608.18 36.8875 L1636.98 36.8875 L1636.98 43.7741 L1608.18 43.7741 L1608.18 65.6895 L1638.97 65.6895 L1638.97 72.576 L1600 72.576 L1600 12.096 Z" fill="#000000" fill-rule="evenodd" fill-opacity="1" /><path clip-path="url(#clip900)" d="M1689.8 45.1919 L1689.8 72.576 L1682.35 72.576 L1682.35 45.4349 Q1682.35 38.994 1679.84 35.7938 Q1677.33 32.5936 1672.3 32.5936 Q1666.27 32.5936 1662.78 36.4419 Q1659.3 40.2903 1659.3 46.9338 L1659.3 72.576 L1651.81 72.576 L1651.81 27.2059 L1659.3 27.2059 L1659.3 34.2544 Q1661.97 30.163 1665.58 28.1376 Q1669.23 26.1121 1673.97 26.1121 Q1681.78 26.1121 1685.79 30.9732 Q1689.8 35.7938 1689.8 45.1919 Z" fill="#000000" fill-rule="evenodd" fill-opacity="1" /><path clip-path="url(#clip900)" d="M1733.59 28.5427 L1733.59 35.5912 Q1730.43 33.9709 1727.03 33.1607 Q1723.63 32.3505 1719.98 32.3505 Q1714.43 32.3505 1711.64 34.0519 Q1708.88 35.7533 1708.88 39.156 Q1708.88 41.7486 1710.87 43.2475 Q1712.85 44.7058 1718.85 46.0426 L1721.4 46.6097 Q1729.34 48.3111 1732.66 51.4303 Q1736.03 54.509 1736.03 60.0587 Q1736.03 66.3781 1731 70.0644 Q1726.02 73.7508 1717.27 73.7508 Q1713.62 73.7508 1709.65 73.0216 Q1705.72 72.3329 1701.35 70.9151 L1701.35 63.2184 Q1705.48 65.3654 1709.49 66.4591 Q1713.5 67.5124 1717.43 67.5124 Q1722.7 67.5124 1725.53 65.73 Q1728.37 63.9071 1728.37 60.6258 Q1728.37 57.5877 1726.3 55.9673 Q1724.28 54.3469 1717.35 52.8481 L1714.76 52.2405 Q1707.83 50.7821 1704.75 47.7845 Q1701.67 44.7463 1701.67 39.4801 Q1701.67 33.0797 1706.21 29.5959 Q1710.75 26.1121 1719.09 26.1121 Q1723.22 26.1121 1726.87 26.7198 Q1730.52 27.3274 1733.59 28.5427 Z" fill="#000000" fill-rule="evenodd" fill-opacity="1" /><path clip-path="url(#clip900)" d="M1786.7 48.0275 L1786.7 51.6733 L1752.43 51.6733 Q1752.92 59.3701 1757.05 63.421 Q1761.22 67.4314 1768.63 67.4314 Q1772.93 67.4314 1776.94 66.3781 Q1780.99 65.3249 1784.96 63.2184 L1784.96 70.267 Q1780.95 71.9684 1776.74 72.8596 Q1772.52 73.7508 1768.19 73.7508 Q1757.33 73.7508 1750.97 67.4314 Q1744.65 61.1119 1744.65 50.3365 Q1744.65 39.1965 1750.65 32.6746 Q1756.68 26.1121 1766.89 26.1121 Q1776.05 26.1121 1781.35 32.0264 Q1786.7 37.9003 1786.7 48.0275 M1779.25 45.84 Q1779.17 39.7232 1775.8 36.0774 Q1772.48 32.4315 1766.97 32.4315 Q1760.74 32.4315 1756.97 35.9558 Q1753.24 39.4801 1752.67 45.8805 L1779.25 45.84 Z" fill="#000000" fill-rule="evenodd" fill-opacity="1" /><path clip-path="url(#clip900)" d="M1834.26 35.9153 Q1837.05 30.8922 1840.94 28.5022 Q1844.83 26.1121 1850.1 26.1121 Q1857.19 26.1121 1861.04 31.0947 Q1864.88 36.0368 1864.88 45.1919 L1864.88 72.576 L1857.39 72.576 L1857.39 45.4349 Q1857.39 38.913 1855.08 35.7533 Q1852.77 32.5936 1848.03 32.5936 Q1842.24 32.5936 1838.88 36.4419 Q1835.52 40.2903 1835.52 46.9338 L1835.52 72.576 L1828.02 72.576 L1828.02 45.4349 Q1828.02 38.8725 1825.71 35.7533 Q1823.4 32.5936 1818.58 32.5936 Q1812.87 32.5936 1809.51 36.4824 Q1806.15 40.3308 1806.15 46.9338 L1806.15 72.576 L1798.65 72.576 L1798.65 27.2059 L1806.15 27.2059 L1806.15 34.2544 Q1808.7 30.082 1812.26 28.0971 Q1815.83 26.1121 1820.73 26.1121 Q1825.67 26.1121 1829.11 28.6237 Q1832.6 31.1352 1834.26 35.9153 Z" fill="#000000" fill-rule="evenodd" fill-opacity="1" /><path clip-path="url(#clip900)" d="M1912.32 49.9314 Q1912.32 41.7081 1908.92 37.0496 Q1905.56 32.3505 1899.64 32.3505 Q1893.73 32.3505 1890.32 37.0496 Q1886.96 41.7081 1886.96 49.9314 Q1886.96 58.1548 1890.32 62.8538 Q1893.73 67.5124 1899.64 67.5124 Q1905.56 67.5124 1908.92 62.8538 Q1912.32 58.1548 1912.32 49.9314 M1886.96 34.0924 Q1889.31 30.0415 1892.88 28.0971 Q1896.48 26.1121 1901.46 26.1121 Q1909.73 26.1121 1914.87 32.6746 Q1920.06 39.2371 1920.06 49.9314 Q1920.06 60.6258 1914.87 67.1883 Q1909.73 73.7508 1901.46 73.7508 Q1896.48 73.7508 1892.88 71.8063 Q1889.31 69.8214 1886.96 65.7705 L1886.96 72.576 L1879.47 72.576 L1879.47 9.54393 L1886.96 9.54393 L1886.96 34.0924 Z" fill="#000000" fill-rule="evenodd" fill-opacity="1" /><path clip-path="url(#clip900)" d="M1932.41 9.54393 L1939.87 9.54393 L1939.87 72.576 L1932.41 72.576 L1932.41 9.54393 Z" fill="#000000" fill-rule="evenodd" fill-opacity="1" /><path clip-path="url(#clip900)" d="M1994.27 48.0275 L1994.27 51.6733 L1960 51.6733 Q1960.49 59.3701 1964.62 63.421 Q1968.79 67.4314 1976.2 67.4314 Q1980.5 67.4314 1984.51 66.3781 Q1988.56 65.3249 1992.53 63.2184 L1992.53 70.267 Q1988.52 71.9684 1984.31 72.8596 Q1980.09 73.7508 1975.76 73.7508 Q1964.9 73.7508 1958.54 67.4314 Q1952.22 61.1119 1952.22 50.3365 Q1952.22 39.1965 1958.22 32.6746 Q1964.25 26.1121 1974.46 26.1121 Q1983.62 26.1121 1988.92 32.0264 Q1994.27 37.9003 1994.27 48.0275 M1986.82 45.84 Q1986.74 39.7232 1983.37 36.0774 Q1980.05 32.4315 1974.54 32.4315 Q1968.3 32.4315 1964.54 35.9558 Q1960.81 39.4801 1960.24 45.8805 L1986.82 45.84 Z" fill="#000000" fill-rule="evenodd" fill-opacity="1" /><path clip-path="url(#clip902)" d="
M338.375 1386.23 L338.428 1386.24 L338.44 1386.24 L338.454 1386.24 L338.47 1386.24 L338.488 1386.24 L338.508 1386.24 L338.531 1386.24 L338.557 1386.24 L338.585 1386.24 
  L338.618 1386.24 L338.654 1386.24 L338.695 1386.24 L338.741 1386.24 L338.792 1386.24 L338.851 1386.24 L338.916 1386.24 L338.99 1386.24 L339.073 1386.24 L339.166 1386.24 
  L339.271 1386.24 L339.388 1386.24 L339.521 1386.24 L339.67 1386.24 L339.838 1386.24 L340.027 1386.25 L340.237 1386.25 L340.467 1386.25 L340.718 1386.25 L340.986 1386.25 
  L341.269 1386.25 L341.568 1386.26 L341.878 1386.26 L342.203 1386.26 L342.538 1386.26 L342.883 1386.26 L343.238 1386.27 L343.6 1386.27 L343.97 1386.27 L344.348 1386.27 
  L344.734 1386.28 L345.128 1386.28 L345.53 1386.28 L345.939 1386.28 L346.355 1386.29 L346.777 1386.29 L347.207 1386.29 L347.643 1386.29 L348.091 1386.29 L348.551 1386.3 
  L349.024 1386.3 L349.507 1386.3 L350 1386.3 L350.505 1386.31 L351.022 1386.31 L351.548 1386.31 L352.081 1386.31 L352.621 1386.32 L353.169 1386.32 L353.724 1386.32 
  L354.289 1386.32 L354.861 1386.32 L355.438 1386.33 L356.024 1386.33 L356.614 1386.33 L357.209 1386.33 L357.816 1386.34 L358.428 1386.34 L359.045 1386.34 L359.67 1386.34 
  L360.306 1386.34 L360.948 1386.35 L361.6 1386.35 L362.262 1386.35 L362.927 1386.35 L363.603 1386.35 L364.283 1386.36 L364.969 1386.36 L365.659 1386.36 L366.358 1386.36 
  L367.053 1386.36 L367.755 1386.37 L368.457 1386.37 L369.163 1386.37 L369.879 1386.37 L370.594 1386.37 L371.305 1386.37 L372.011 1386.37 L372.725 1386.37 L373.448 1386.38 
  L374.186 1386.38 L374.942 1386.38 L375.709 1386.38 L376.471 1386.38 L377.246 1386.38 L378.036 1386.38 L378.833 1386.39 L379.629 1386.39 L380.431 1386.39 L381.246 1386.39 
  L382.07 1386.39 L382.906 1386.39 L383.753 1386.39 L384.609 1386.39 L385.486 1386.39 L386.379 1386.4 L387.307 1386.4 L388.271 1386.4 L389.245 1386.4 L390.234 1386.39 
  L391.231 1386.39 L392.234 1386.39 L393.25 1386.39 L394.272 1386.39 L395.307 1386.39 L396.375 1386.39 L397.474 1386.39 L398.599 1386.39 L399.725 1386.39 L400.859 1386.39 
  L402.006 1386.39 L403.177 1386.39 L404.363 1386.38 L405.591 1386.38 L406.851 1386.38 L408.129 1386.38 L409.398 1386.38 L410.725 1386.38 L412.081 1386.38 L413.438 1386.37 
  L414.808 1386.37 L416.205 1386.37 L417.617 1386.36 L419.041 1386.36 L420.486 1386.36 L421.98 1386.35 L423.407 1386.35 L424.823 1386.35 L426.252 1386.35 L427.671 1386.34 
  L429.089 1386.34 L430.498 1386.34 L431.918 1386.34 L433.356 1386.34 L434.81 1386.33 L436.247 1386.33 L437.665 1386.33 L439.066 1386.32 L440.478 1386.32 L441.897 1386.31 
  L443.334 1386.31 L444.7 1386.31 L446.076 1386.3 L447.46 1386.3 L448.855 1386.29 L450.313 1386.29 L451.831 1386.28 L453.405 1386.28 L455.012 1386.27 L456.647 1386.27 
  L458.338 1386.26 L459.962 1386.25 L461.586 1386.25 L463.26 1386.24 L464.915 1386.23 L466.568 1386.22 L468.236 1386.22 L469.804 1386.21 L471.409 1386.21 L472.996 1386.2 
  L474.571 1386.19 L476.182 1386.18 L477.781 1386.17 L479.372 1386.16 L480.985 1386.15 L482.705 1386.14 L484.548 1386.13 L486.349 1386.12 L488.239 1386.11 L490.23 1386.1 
  L492.276 1386.09 L494.541 1386.07 L497.089 1386.06 L499.601 1386.04 L502.428 1386.03 L505.413 1386.01 L508.648 1385.99 L512.064 1385.97 L515.642 1385.95 L519.668 1385.92 
  L523.529 1385.88 L526.793 1385.86 L530.211 1385.83 L533.731 1385.8 L537.102 1385.77 L540.417 1385.74 L543.658 1385.71 L547.287 1385.65 L551.229 1385.6 L555.192 1385.57 
  L559.65 1385.53 L564.406 1385.48 L568.32 1385.43 L572.187 1385.38 L575.683 1385.32 L579.232 1385.27 L582.716 1385.21 L586.224 1385.16 L589.875 1385.1 L593.331 1385.04 
  L597.219 1384.97 L601.593 1384.89 L605.329 1384.83 L609.531 1384.76 L614.259 1384.65 L619.27 1384.53 L624.028 1384.41 L629.381 1384.27 L634.573 1384.13 L640.142 1383.99 
  L644.238 1383.91 L648.152 1383.83 L652.336 1383.74 L656.282 1383.65 L659.933 1383.56 L663.637 1383.45 L667.355 1383.34 L671.135 1383.22 L674.572 1383.12 L678.063 1383.01 
  L681.677 1382.89 L685.399 1382.76 L689.244 1382.62 L693.028 1382.49 L697.286 1382.33 L701.953 1382.12 L707.205 1381.84 L711.372 1381.58 L714.961 1381.36 L718.607 1381.13 
  L722.537 1380.88 L726.183 1380.65 L729.662 1380.51 L733.003 1380.37 L736.359 1380.22 L739.679 1380.04 L743.185 1379.85 L747.105 1379.64 L750.901 1379.43 L754.737 1379.23 
  L759.051 1379 L763.683 1378.72 L767.684 1378.31 L771.879 1377.86 L775.58 1377.43 L779.345 1377.19 L782.9 1376.99 L786.124 1376.8 L789.127 1376.61 L791.978 1376.4 
  L794.7 1376.19 L797.311 1375.98 L799.88 1375.78 L802.515 1375.55 L804.948 1375.35 L807.265 1375.15 L809.694 1374.94 L812.029 1374.74 L814.465 1374.52 L817.006 1374.3 
  L819.646 1374.1 L822.392 1373.88 L825.18 1373.58 L828.116 1373.28 L831.149 1372.97 L834.343 1372.6 L837.488 1372.19 L840.759 1371.79 L844.439 1371.47 L848.347 1371.13 
  L852.74 1370.75 L857.209 1370.32 L861.548 1369.76 L865.93 1369.3 L870.86 1368.36 L875.83 1367.39 L880.964 1366.33 L886.74 1365.34 L892.63 1364.33 L898.424 1363.34 
  L903.362 1362.49 L908.538 1361.54 L913.479 1360.59 L918.586 1359.52 L924.018 1358.28 L929.707 1356.74 L935.115 1355.34 L940.441 1353.45 L945.923 1351.15 L951.624 1348.75 
  L956.894 1346.68 L962.822 1344.99 L969.485 1342.92 L975.235 1341.05 L980.286 1339.26 L985.04 1337.48 L990.117 1335.29 L995.086 1332.85 L1000.2 1330.09 L1004.98 1327.02 
  L1010.35 1323.4 L1014.77 1320.49 L1019.12 1318.11 L1023.73 1315.6 L1028.11 1313.01 L1032.75 1310.16 L1037.36 1307.22 L1042.17 1303.96 L1047.59 1300.17 L1053.67 1295.75 
  L1060.52 1289.63 L1068.23 1282.05 L1076.89 1272.31 L1086.64 1260.01 L1097.61 1247.02 L1109.46 1234.55 L1120.76 1223.96 L1133.46 1211.63 L1142.53 1200.89 L1149.26 1192.3 
  L1156.85 1181.9 L1165.37 1168.63 L1173.73 1154.28 L1181.43 1139.95 L1190.09 1124.97 L1198.84 1114.42 L1206.65 1102.79 L1215.07 1086.49 L1223.34 1067.35 L1231.63 1046.92 
  L1239.66 1030.4 L1246.51 1015.14 L1253.41 998.883 L1260.17 982.575 L1266.13 968.36 L1271.76 961.698 L1277.23 955.352 L1282.39 940.545 L1287.43 928.057 L1292.37 919.856 
  L1297.29 910.599 L1301.9 901.651 L1306.65 886.206 L1311.29 869.917 L1315.92 853.699 L1320.4 844.62 L1324.75 837.836 L1329.03 831.32 L1333.31 825.806 L1337.51 820.424 
  L1341.67 812.265 L1345.59 802.054 L1349.53 796.118 L1353.43 790.857 L1357.31 785.458 L1361.12 778.779 L1364.78 763.06 L1368.49 747.581 L1372.14 744.782 L1375.76 750.374 
  L1379.34 754.851 L1382.89 749.902 L1386.34 744.963 L1389.75 740.379 L1393.17 736.347 L1396.56 744.383 L1399.92 749.609 L1403.26 745.376 L1406.56 737.773 L1409.81 739.654 
  L1413.04 736.826 L1416.26 733.465 L1419.45 728.516 L1422.62 723.1 L1425.77 724.325 L1428.89 735.341 L1431.99 747.446 L1435.07 747.647 L1438.12 753.937 L1441.17 750.454 
  L1444.14 754.966 L1447.1 765.872 L1450.01 776.718 L1452.87 787.17 L1455.66 797.411 L1458.47 804.426 L1461.27 813.941 L1464.08 823.566 L1466.92 833.334 L1469.82 843.057 
  L1472.73 852.702 L1475.64 862.115 L1478.48 871.15 L1481.28 879.925 L1484.11 888.647 L1486.9 897.12 L1489.63 905.384 L1492.27 913.375 L1494.84 920.803 L1497.41 927.941 
  L1499.86 934.705 L1502.24 941.176 L1504.63 947.645 L1506.95 954.261 L1509.37 960.996 L1511.83 967.023 L1514.31 972.804 L1516.84 978.66 L1519.39 984.516 L1521.98 990.51 
  L1524.56 996.568 L1527.16 1002.47 L1529.71 1008.19 L1532.23 1013.73 L1534.79 1019.33 L1537.39 1024.77 L1540 1030.18 L1542.68 1035.64 L1545.38 1041.16 L1548.11 1047 
  L1550.89 1053.03 L1553.69 1059.8 L1556.52 1066.62 L1559.37 1073.22 L1562.22 1079.8 L1565.1 1086.09 L1568.03 1092.04 L1570.96 1097.99 L1573.9 1103.42 L1576.79 1108.75 
  L1579.6 1113.87 L1582.37 1118.83 L1585.07 1123.67 L1587.92 1128.48 L1590.78 1133.29 L1593.6 1137.42 L1596.5 1141.18 L1599.48 1145.02 L1602.49 1148.88 L1605.56 1152.81 
  L1608.59 1156.69 L1611.62 1160.57 L1614.69 1164.91 L1617.73 1169.32 L1620.71 1173.73 L1623.75 1178.21 L1626.88 1182.71 L1629.99 1187.15 L1633.09 1191.59 L1636.38 1196.1 
  L1639.72 1200.39 L1643.09 1204.53 L1646.49 1208.54 L1649.87 1212.2 L1653.36 1215.73 L1656.79 1219.31 L1660.25 1222.35 L1663.66 1225.77 L1667.35 1230.48 L1671.08 1234.58 
  L1674.91 1238.71 L1678.76 1242.78 L1682.61 1246.65 L1686.63 1250.57 L1690.85 1254.56 L1695.12 1258.52 L1699.51 1262.47 L1704.03 1266.3 L1708.26 1269.66 L1712.95 1273.25 
  L1717.7 1276.94 L1722.54 1280.74 L1727.6 1284.65 L1732.76 1288.53 L1738.05 1292.39 L1743.52 1296.23 L1748.85 1299.62 L1754.35 1302.87 L1759.59 1305.89 L1764.59 1308.71 
  L1768.98 1311.07 L1772.79 1313.02 L1776.42 1314.78 L1779.85 1316.39 L1783.16 1317.91 L1786.35 1319.38 L1789.24 1320.7 L1792.02 1321.9 L1794.7 1323.04 L1797.48 1324.19 
  L1800.38 1325.4 L1803.12 1326.51 L1805.78 1327.56 L1808.59 1328.66 L1811.4 1329.73 L1814.36 1330.83 L1817.62 1332.06 L1820.81 1333.56 L1824.1 1335.11 L1827.4 1336.36 
  L1830.87 1337.67 L1834.27 1338.95 L1837.71 1340.18 L1841.27 1341.44 L1845.11 1342.76 L1849.43 1344.17 L1854.04 1345.64 L1858.47 1346.94 L1863.36 1348.48 L1868.81 1350.21 
  L1874.08 1351.8 L1878.86 1353.22 L1883.44 1354.53 L1888.15 1355.84 L1892.89 1357.1 L1898.21 1358.43 L1903.86 1359.73 L1910.21 1361.1 L1917.35 1362.55 L1925.27 1364.06 
  L1934.18 1365.66 L1943.25 1367.11 L1952.93 1368.54 L1963.83 1369.99 L1976.08 1371.46 L1989.87 1372.95 L2002.37 1374.13 L2016.43 1375.49 L2027.48 1376.47 L2039.91 1377.45 
  L2047.82 1378.02 L2054.31 1378.47 L2061.29 1378.94 L2069.14 1379.39 L2077.97 1379.82 L2087.91 1380.27 L2093.91 1380.51 L2100.65 1380.82 L2108.24 1381.17 L2115.36 1381.49 
  L2123.37 1381.82 L2131.72 1382.15 L2141.11 1382.5 L2151.68 1382.86 L2163.57 1383.22 L2172.62 1383.49 L2180.26 1383.66 L2186.32 1383.78 L2192.77 1383.91 L2199.12 1384.03 
  L2204.73 1384.13 L2209.97 1384.23 L2215.02 1384.32 L2220.16 1384.44 L2225.23 1384.54 L2229.91 1384.64 L2234.37 1384.73 L2238.98 1384.81 L2243.63 1384.9 L2248.69 1384.99 
  L2254.09 1385.08 L2259.35 1385.16 L2264.35 1385.24 L2269.98 1385.32 L2275.34 1385.39 L2280.44 1385.46 L2285.36 1385.52 L2289.97 1385.57 L2294.08 1385.62 L2294.08 1365.38 
  L2289.97 1364.8 L2285.36 1364.14 L2280.44 1363.56 L2275.34 1362.98 L2269.98 1362.1 L2264.35 1361.12 L2259.35 1360.31 L2254.09 1359.45 L2248.69 1358.52 L2243.63 1357.62 
  L2238.98 1356.83 L2234.37 1356.12 L2229.91 1355.41 L2225.23 1354.65 L2220.16 1353.75 L2215.02 1352.77 L2209.97 1351.76 L2204.73 1350.73 L2199.12 1349.66 L2192.77 1348.35 
  L2186.32 1346.94 L2180.26 1345.58 L2172.62 1343.82 L2163.57 1341.83 L2151.68 1339.18 L2141.11 1336.62 L2131.72 1333.6 L2123.37 1330.65 L2115.36 1327.63 L2108.24 1324.92 
  L2100.65 1322.11 L2093.91 1319.66 L2087.91 1317.33 L2077.97 1313.31 L2069.14 1309.29 L2061.29 1305.51 L2054.31 1301.88 L2047.82 1298.17 L2039.91 1293.18 L2027.48 1285.05 
  L2016.43 1277.25 L2002.37 1265.56 L1989.87 1254 L1976.08 1240.75 L1963.83 1227.95 L1952.93 1216.14 L1943.25 1205.19 L1934.18 1195.9 L1925.27 1186.55 L1917.35 1177.39 
  L1910.21 1169.23 L1903.86 1162.56 L1898.21 1156.95 L1892.89 1151.45 L1888.15 1146.44 L1883.44 1141.42 L1878.86 1136.23 L1874.08 1130.54 L1868.81 1123.97 L1863.36 1116.41 
  L1858.47 1109.6 L1854.04 1103.27 L1849.43 1096.45 L1845.11 1089.68 L1841.27 1084.91 L1837.71 1080.17 L1834.27 1075.55 L1830.87 1070.99 L1827.4 1066.31 L1824.1 1061.9 
  L1820.81 1057.61 L1817.62 1053.47 L1814.36 1049.26 L1811.4 1045.51 L1808.59 1041.9 L1805.78 1038.24 L1803.12 1034.73 L1800.38 1031.09 L1797.48 1027.39 L1794.7 1023.92 
  L1792.02 1018.92 L1789.24 1011.83 L1786.35 1004.22 L1783.16 995.723 L1779.85 987.019 L1776.42 978.013 L1772.79 968.307 L1768.98 957.772 L1764.59 946.343 L1759.59 937.786 
  L1754.35 928.747 L1748.85 918.879 L1743.52 909.542 L1738.05 899.572 L1732.76 888.848 L1727.6 878.129 L1722.54 866.016 L1717.7 851.04 L1712.95 841.332 L1708.26 834.639 
  L1704.03 829.216 L1699.51 822.611 L1695.12 816.422 L1690.85 810.322 L1686.63 797.367 L1682.61 785.064 L1678.76 772.716 L1674.91 759.461 L1671.08 746.024 L1667.35 733.539 
  L1663.66 721.657 L1660.25 710.893 L1656.79 700.004 L1653.36 689.112 L1649.87 678.159 L1646.49 668.273 L1643.09 658.99 L1639.72 651.31 L1636.38 644.614 L1633.09 638.329 
  L1629.99 633.133 L1626.88 628.318 L1623.75 626.217 L1620.71 625.379 L1617.73 625.236 L1614.69 625.637 L1611.62 625.944 L1608.59 619.035 L1605.56 606.517 L1602.49 594.297 
  L1599.48 590.149 L1596.5 586.533 L1593.6 583.888 L1590.78 581.651 L1587.92 575.853 L1585.07 568.791 L1582.37 562.644 L1579.6 556.881 L1576.79 546.051 L1573.9 535.034 
  L1570.96 524.3 L1568.03 513.998 L1565.1 512.017 L1562.22 512.693 L1559.37 513.984 L1556.52 502.803 L1553.69 491.298 L1550.89 487.707 L1548.11 483.677 L1545.38 479.493 
  L1542.68 472.943 L1540 461.563 L1537.39 450.554 L1534.79 439.521 L1532.23 428.599 L1529.71 417.889 L1527.16 419.849 L1524.56 422.25 L1521.98 423.998 L1519.39 425.986 
  L1516.84 427.788 L1514.31 427.886 L1511.83 419.147 L1509.37 410.443 L1506.95 401.292 L1504.63 392.713 L1502.24 389.233 L1499.86 386.909 L1497.41 384.588 L1494.84 382.586 
  L1492.27 376.289 L1489.63 366.458 L1486.9 356.901 L1484.11 348.138 L1481.28 339.917 L1478.48 331.841 L1475.64 333.408 L1472.73 327.592 L1469.82 322.265 L1466.92 317.807 
  L1464.08 313.843 L1461.27 310.24 L1458.47 308.419 L1455.66 306.502 L1452.87 302.855 L1450.01 297.016 L1447.1 281.611 L1444.14 268.974 L1441.17 265.583 L1438.12 262.98 
  L1435.07 260.463 L1431.99 257.81 L1428.89 257.054 L1425.77 249.344 L1422.62 255.079 L1419.45 254.113 L1416.26 241.896 L1413.04 230.358 L1409.81 242.142 L1406.56 249.464 
  L1403.26 243.798 L1399.92 239.402 L1396.56 232.815 L1393.17 233.469 L1389.75 229.476 L1386.34 225.999 L1382.89 222.684 L1379.34 219.803 L1375.76 209.685 L1372.14 199.673 
  L1368.49 193.139 L1364.78 193.37 L1361.12 193.978 L1357.31 187.771 L1353.43 179.401 L1349.53 176.51 L1345.59 175.802 L1341.67 174.396 L1337.51 171.349 L1333.31 165.495 
  L1329.03 163.353 L1324.75 161.365 L1320.4 160.256 L1315.92 161.17 L1311.29 166.036 L1306.65 171.989 L1301.9 176.62 L1297.29 179.579 L1292.37 168.656 L1287.43 176.097 
  L1282.39 182.572 L1277.23 172.021 L1271.76 186.28 L1266.13 205.166 L1260.17 224.244 L1253.41 246.694 L1246.51 258.331 L1239.66 285.148 L1231.63 301.501 L1223.34 303.135 
  L1215.07 332.645 L1206.65 369.305 L1198.84 395.083 L1190.09 389.08 L1181.43 390.436 L1173.73 399.388 L1165.37 427.706 L1156.85 470.405 L1149.26 522.114 L1142.53 565.598 
  L1133.46 624.991 L1120.76 684.316 L1109.46 729.737 L1097.61 780.792 L1086.64 830.497 L1076.89 872.002 L1068.23 906.313 L1060.52 936.309 L1053.67 962.508 L1047.59 985.567 
  L1042.17 1003.79 L1037.36 1018.83 L1032.75 1031.64 L1028.11 1042.34 L1023.73 1052.6 L1019.12 1063.85 L1014.77 1074.33 L1010.35 1084.83 L1004.98 1096.12 L1000.2 1105.89 
  L995.086 1116.24 L990.117 1125.89 L985.04 1136.12 L980.286 1146.03 L975.235 1155.1 L969.485 1164.36 L962.822 1179.44 L956.894 1193.09 L951.624 1203.49 L945.923 1214.06 
  L940.441 1223.45 L935.115 1232.14 L929.707 1240.4 L924.018 1245.2 L918.586 1249.3 L913.479 1253.26 L908.538 1258.83 L903.362 1267.39 L898.424 1274.78 L892.63 1282.7 
  L886.74 1290.03 L880.964 1295.06 L875.83 1300.1 L870.86 1304.87 L865.93 1309.1 L861.548 1312.13 L857.209 1314.84 L852.74 1317.66 L848.347 1320.52 L844.439 1322.98 
  L840.759 1325.31 L837.488 1327.09 L834.343 1328.57 L831.149 1330.03 L828.116 1331.34 L825.18 1332.52 L822.392 1333.54 L819.646 1334.5 L817.006 1335.39 L814.465 1336.23 
  L812.029 1337.03 L809.694 1337.79 L807.265 1338.59 L804.948 1339.46 L802.515 1341.16 L799.88 1342.93 L797.311 1344.53 L794.7 1346.14 L791.978 1347.78 L789.127 1349.42 
  L786.124 1351.02 L782.9 1352.65 L779.345 1354.45 L775.58 1356.29 L771.879 1358.06 L767.684 1359.26 L763.683 1360.2 L759.051 1361.29 L754.737 1362.33 L750.901 1363.3 
  L747.105 1364.25 L743.185 1365.19 L739.679 1366.02 L736.359 1366.68 L733.003 1367.33 L729.662 1367.95 L726.183 1368.58 L722.537 1369.21 L718.607 1369.86 L714.961 1370.42 
  L711.372 1370.93 L707.205 1371.5 L701.953 1372.17 L697.286 1372.71 L693.028 1373.18 L689.244 1373.59 L685.399 1374 L681.677 1374.4 L678.063 1374.84 L674.572 1375.34 
  L671.135 1375.82 L667.355 1376.33 L663.637 1376.8 L659.933 1377.24 L656.282 1377.66 L652.336 1378.07 L648.152 1378.49 L644.238 1378.86 L640.142 1379.25 L634.573 1379.77 
  L629.381 1380.24 L624.028 1380.68 L619.27 1381.01 L614.259 1381.33 L609.531 1381.62 L605.329 1381.86 L601.593 1382.09 L597.219 1382.34 L593.331 1382.56 L589.875 1382.73 
  L586.224 1382.88 L582.716 1383.03 L579.232 1383.17 L575.683 1383.31 L572.187 1383.44 L568.32 1383.58 L564.406 1383.71 L559.65 1383.87 L555.192 1384.01 L551.229 1384.14 
  L547.287 1384.26 L543.658 1384.35 L540.417 1384.42 L537.102 1384.5 L533.731 1384.59 L530.211 1384.67 L526.793 1384.76 L523.529 1384.83 L519.668 1384.92 L515.642 1384.98 
  L512.064 1385.03 L508.648 1385.1 L505.413 1385.17 L502.428 1385.23 L499.601 1385.29 L497.089 1385.34 L494.541 1385.39 L492.276 1385.43 L490.23 1385.46 L488.239 1385.49 
  L486.349 1385.52 L484.548 1385.55 L482.705 1385.58 L480.985 1385.6 L479.372 1385.62 L477.781 1385.65 L476.182 1385.67 L474.571 1385.69 L472.996 1385.72 L471.409 1385.75 
  L469.804 1385.78 L468.236 1385.8 L466.568 1385.82 L464.915 1385.84 L463.26 1385.86 L461.586 1385.88 L459.962 1385.89 L458.338 1385.91 L456.647 1385.92 L455.012 1385.93 
  L453.405 1385.95 L451.831 1385.97 L450.313 1385.98 L448.855 1385.99 L447.46 1386 L446.076 1386.01 L444.7 1386.02 L443.334 1386.03 L441.897 1386.04 L440.478 1386.05 
  L439.066 1386.06 L437.665 1386.07 L436.247 1386.08 L434.81 1386.09 L433.356 1386.1 L431.918 1386.11 L430.498 1386.12 L429.089 1386.14 L427.671 1386.15 L426.252 1386.16 
  L424.823 1386.17 L423.407 1386.17 L421.98 1386.18 L420.486 1386.19 L419.041 1386.19 L417.617 1386.2 L416.205 1386.2 L414.808 1386.21 L413.438 1386.21 L412.081 1386.22 
  L410.725 1386.22 L409.398 1386.23 L408.129 1386.23 L406.851 1386.24 L405.591 1386.24 L404.363 1386.25 L403.177 1386.26 L402.006 1386.26 L400.859 1386.26 L399.725 1386.27 
  L398.599 1386.27 L397.474 1386.28 L396.375 1386.28 L395.307 1386.28 L394.272 1386.28 L393.25 1386.29 L392.234 1386.29 L391.231 1386.29 L390.234 1386.3 L389.245 1386.3 
  L388.271 1386.3 L387.307 1386.3 L386.379 1386.31 L385.486 1386.31 L384.609 1386.31 L383.753 1386.31 L382.906 1386.31 L382.07 1386.32 L381.246 1386.32 L380.431 1386.32 
  L379.629 1386.32 L378.833 1386.32 L378.036 1386.32 L377.246 1386.32 L376.471 1386.32 L375.709 1386.32 L374.942 1386.32 L374.186 1386.33 L373.448 1386.33 L372.725 1386.33 
  L372.011 1386.33 L371.305 1386.33 L370.594 1386.33 L369.879 1386.33 L369.163 1386.33 L368.457 1386.33 L367.755 1386.33 L367.053 1386.33 L366.358 1386.33 L365.659 1386.33 
  L364.969 1386.32 L364.283 1386.32 L363.603 1386.32 L362.927 1386.32 L362.262 1386.32 L361.6 1386.32 L360.948 1386.32 L360.306 1386.32 L359.67 1386.32 L359.045 1386.32 
  L358.428 1386.32 L357.816 1386.32 L357.209 1386.31 L356.614 1386.31 L356.024 1386.31 L355.438 1386.31 L354.861 1386.31 L354.289 1386.31 L353.724 1386.3 L353.169 1386.3 
  L352.621 1386.3 L352.081 1386.3 L351.548 1386.3 L351.022 1386.3 L350.505 1386.29 L350 1386.29 L349.507 1386.29 L349.024 1386.29 L348.551 1386.29 L348.091 1386.29 
  L347.643 1386.28 L347.207 1386.28 L346.777 1386.28 L346.355 1386.28 L345.939 1386.28 L345.53 1386.27 L345.128 1386.27 L344.734 1386.27 L344.348 1386.27 L343.97 1386.27 
  L343.6 1386.27 L343.238 1386.26 L342.883 1386.26 L342.538 1386.26 L342.203 1386.26 L341.878 1386.26 L341.568 1386.25 L341.269 1386.25 L340.986 1386.25 L340.718 1386.25 
  L340.467 1386.25 L340.237 1386.25 L340.027 1386.25 L339.838 1386.24 L339.67 1386.24 L339.521 1386.24 L339.388 1386.24 L339.271 1386.24 L339.166 1386.24 L339.073 1386.24 
  L338.99 1386.24 L338.916 1386.24 L338.851 1386.24 L338.792 1386.24 L338.741 1386.24 L338.695 1386.24 L338.654 1386.24 L338.618 1386.24 L338.585 1386.24 L338.557 1386.24 
  L338.531 1386.24 L338.508 1386.24 L338.488 1386.24 L338.47 1386.24 L338.454 1386.24 L338.44 1386.24 L338.428 1386.24 L338.375 1386.23  Z
  " fill="#009af9" fill-rule="evenodd" fill-opacity="0.2"/>
<polyline clip-path="url(#clip902)" style="stroke:#009af9; stroke-linecap:butt; stroke-linejoin:round; stroke-width:12; stroke-opacity:1; fill:none" points="
  338.375,1386.23 338.428,1386.24 338.44,1386.24 338.454,1386.24 338.47,1386.24 338.488,1386.24 338.508,1386.24 338.531,1386.24 338.557,1386.24 338.585,1386.24 
  338.618,1386.24 338.654,1386.24 338.695,1386.24 338.741,1386.24 338.792,1386.24 338.851,1386.24 338.916,1386.24 338.99,1386.24 339.073,1386.24 339.166,1386.24 
  339.271,1386.24 339.388,1386.24 339.521,1386.24 339.67,1386.24 339.838,1386.24 340.027,1386.25 340.237,1386.25 340.467,1386.25 340.718,1386.25 340.986,1386.25 
  341.269,1386.25 341.568,1386.26 341.878,1386.26 342.203,1386.26 342.538,1386.26 342.883,1386.26 343.238,1386.27 343.6,1386.27 343.97,1386.27 344.348,1386.27 
  344.734,1386.27 345.128,1386.28 345.53,1386.28 345.939,1386.28 346.355,1386.28 346.777,1386.28 347.207,1386.29 347.643,1386.29 348.091,1386.29 348.551,1386.29 
  349.024,1386.29 349.507,1386.3 350,1386.3 350.505,1386.3 351.022,1386.3 351.548,1386.3 352.081,1386.31 352.621,1386.31 353.169,1386.31 353.724,1386.31 
  354.289,1386.31 354.861,1386.32 355.438,1386.32 356.024,1386.32 356.614,1386.32 357.209,1386.32 357.816,1386.33 358.428,1386.33 359.045,1386.33 359.67,1386.33 
  360.306,1386.33 360.948,1386.33 361.6,1386.34 362.262,1386.34 362.927,1386.34 363.603,1386.34 364.283,1386.34 364.969,1386.34 365.659,1386.34 366.358,1386.35 
  367.053,1386.35 367.755,1386.35 368.457,1386.35 369.163,1386.35 369.879,1386.35 370.594,1386.35 371.305,1386.35 372.011,1386.35 372.725,1386.35 373.448,1386.35 
  374.186,1386.36 374.942,1386.36 375.709,1386.36 376.471,1386.36 377.246,1386.36 378.036,1386.36 378.833,1386.36 379.629,1386.36 380.431,1386.36 381.246,1386.36 
  382.07,1386.36 382.906,1386.36 383.753,1386.36 384.609,1386.36 385.486,1386.36 386.379,1386.36 387.307,1386.36 388.271,1386.35 389.245,1386.35 390.234,1386.35 
  391.231,1386.35 392.234,1386.35 393.25,1386.35 394.272,1386.35 395.307,1386.35 396.375,1386.35 397.474,1386.34 398.599,1386.34 399.725,1386.34 400.859,1386.34 
  402.006,1386.34 403.177,1386.33 404.363,1386.33 405.591,1386.33 406.851,1386.33 408.129,1386.32 409.398,1386.32 410.725,1386.32 412.081,1386.31 413.438,1386.31 
  414.808,1386.31 416.205,1386.3 417.617,1386.3 419.041,1386.29 420.486,1386.29 421.98,1386.28 423.407,1386.28 424.823,1386.27 426.252,1386.27 427.671,1386.26 
  429.089,1386.26 430.498,1386.25 431.918,1386.25 433.356,1386.24 434.81,1386.23 436.247,1386.23 437.665,1386.22 439.066,1386.21 440.478,1386.21 441.897,1386.2 
  443.334,1386.19 444.7,1386.19 446.076,1386.18 447.46,1386.17 448.855,1386.16 450.313,1386.15 451.831,1386.15 453.405,1386.14 455.012,1386.13 456.647,1386.12 
  458.338,1386.11 459.962,1386.1 461.586,1386.08 463.26,1386.07 464.915,1386.06 466.568,1386.05 468.236,1386.04 469.804,1386.03 471.409,1386.02 472.996,1386 
  474.571,1385.99 476.182,1385.98 477.781,1385.97 479.372,1385.95 480.985,1385.94 482.705,1385.92 484.548,1385.91 486.349,1385.89 488.239,1385.87 490.23,1385.85 
  492.276,1385.84 494.541,1385.81 497.089,1385.79 499.601,1385.76 502.428,1385.73 505.413,1385.7 508.648,1385.66 512.064,1385.62 515.642,1385.58 519.668,1385.52 
  523.529,1385.47 526.793,1385.43 530.211,1385.38 533.731,1385.32 537.102,1385.27 540.417,1385.21 543.658,1385.16 547.287,1385.1 551.229,1385.02 555.192,1384.94 
  559.65,1384.85 564.406,1384.75 568.32,1384.67 572.187,1384.58 575.683,1384.5 579.232,1384.41 582.716,1384.32 586.224,1384.23 589.875,1384.13 593.331,1384.03 
  597.219,1383.91 601.593,1383.78 605.329,1383.66 609.531,1383.52 614.259,1383.35 619.27,1383.17 624.028,1382.99 629.381,1382.77 634.573,1382.55 640.142,1382.31 
  644.238,1382.11 648.152,1381.92 652.336,1381.71 656.282,1381.51 659.933,1381.31 663.637,1381.1 667.355,1380.88 671.135,1380.65 674.572,1380.43 678.063,1380.2 
  681.677,1379.96 685.399,1379.7 689.244,1379.42 693.028,1379.13 697.286,1378.8 701.953,1378.41 707.205,1377.96 711.372,1377.58 714.961,1377.25 718.607,1376.9 
  722.537,1376.51 726.183,1376.13 729.662,1375.76 733.003,1375.39 736.359,1375.01 739.679,1374.62 743.185,1374.2 747.105,1373.7 750.901,1373.21 754.737,1372.69 
  759.051,1372.08 763.683,1371.4 767.684,1370.79 771.879,1370.12 775.58,1369.51 779.345,1368.88 782.9,1368.25 786.124,1367.66 789.127,1367.1 791.978,1366.56 
  794.7,1366.02 797.311,1365.5 799.88,1364.97 802.515,1364.41 804.948,1363.89 807.265,1363.38 809.694,1362.83 812.029,1362.29 814.465,1361.71 817.006,1361.09 
  819.646,1360.43 822.392,1359.73 825.18,1358.99 828.116,1358.2 831.149,1357.36 834.343,1356.44 837.488,1355.52 840.759,1354.53 844.439,1353.38 848.347,1352.13 
  852.74,1350.67 857.209,1349.13 861.548,1347.58 865.93,1345.95 870.86,1344.04 875.83,1342.05 880.964,1339.88 886.74,1337.32 892.63,1334.55 898.424,1331.67 
  903.362,1329.1 908.538,1326.28 913.479,1323.48 918.586,1320.52 924.018,1317.22 929.707,1313.58 935.115,1309.93 940.441,1306.15 945.923,1302.07 951.624,1297.64 
  956.894,1293.34 962.822,1288.29 969.485,1282.29 975.235,1276.84 980.286,1271.84 985.04,1266.96 990.117,1261.56 995.086,1256.05 1000.2,1250.14 1004.98,1244.35 
  1010.35,1237.59 1014.77,1231.78 1019.12,1225.81 1023.73,1219.29 1028.11,1212.91 1032.75,1205.94 1037.36,1198.77 1042.17,1191.09 1047.59,1182.09 1053.67,1171.57 
  1060.52,1159.2 1068.23,1144.71 1076.89,1127.48 1086.64,1106.95 1097.61,1082.57 1109.46,1054.42 1120.76,1026.3 1133.46,993.092 1142.53,968.482 1149.26,949.86 
  1156.85,928.591 1165.37,904.457 1173.73,880.266 1181.43,857.617 1190.09,832.08 1198.84,806.239 1206.65,783.526 1215.07,758.919 1223.34,734.543 1231.63,710.471 
  1239.66,687.697 1246.51,669.025 1253.41,650.998 1260.17,633.884 1266.13,619.629 1271.76,606.691 1277.23,594.523 1282.39,583.445 1287.43,572.961 1292.37,563.136 
  1297.29,553.609 1301.9,545.053 1306.65,536.633 1311.29,528.641 1315.92,521.165 1320.4,514.46 1324.75,508.491 1329.03,503.094 1333.31,498.114 1337.51,493.567 
  1341.67,489.335 1345.59,485.851 1349.53,482.816 1353.43,480.296 1357.31,478.237 1361.12,476.371 1364.78,474.752 1368.49,473.617 1372.14,472.949 1375.76,472.751 
  1379.34,472.88 1382.89,473.41 1386.34,474.295 1389.75,475.534 1393.17,476.946 1396.56,478.62 1399.92,480.623 1403.26,482.927 1406.56,485.433 1409.81,488.1 
  1413.04,491.018 1416.26,494.184 1419.45,497.556 1422.62,501.055 1425.77,504.764 1428.89,508.561 1431.99,512.517 1435.07,516.565 1438.12,520.73 1441.17,525.034 
  1444.14,529.394 1447.1,533.895 1450.01,538.509 1452.87,543.213 1455.66,547.979 1458.47,552.918 1461.27,557.93 1464.08,563.103 1466.92,568.458 1469.82,574.022 
  1472.73,579.626 1475.64,585.325 1478.48,590.987 1481.28,596.735 1484.11,602.721 1486.9,608.738 1489.63,614.662 1492.27,620.418 1494.84,626.02 1497.41,631.64 
  1499.86,637.05 1502.24,642.343 1504.63,647.611 1506.95,652.772 1509.37,658.161 1511.83,663.713 1514.31,669.385 1516.84,675.221 1519.39,681.125 1521.98,687.125 
  1524.56,693.164 1527.16,699.253 1529.71,705.283 1532.23,711.264 1534.79,717.363 1537.39,723.631 1540,729.948 1542.68,736.446 1545.38,743.002 1548.11,749.601 
  1550.89,756.27 1553.69,762.964 1556.52,769.751 1559.37,776.627 1562.22,783.475 1565.1,790.351 1568.03,797.344 1570.96,804.319 1573.9,811.289 1576.79,818.088 
  1579.6,824.677 1582.37,831.15 1585.07,837.458 1587.92,844.087 1590.78,850.731 1593.6,857.289 1596.5,864.037 1599.48,870.91 1602.49,877.79 1605.56,884.763 
  1608.59,891.611 1611.62,898.449 1614.69,905.29 1617.73,912.021 1620.71,918.589 1623.75,925.225 1626.88,932.04 1629.99,938.702 1633.09,945.323 1636.38,952.282 
  1639.72,959.263 1643.09,966.238 1646.49,973.148 1649.87,979.918 1653.36,986.842 1656.79,993.58 1660.25,1000.32 1663.66,1006.89 1667.35,1013.9 1671.08,1020.89 
  1674.91,1027.99 1678.76,1035 1682.61,1041.85 1686.63,1048.8 1690.85,1055.96 1695.12,1063.18 1699.51,1070.6 1704.03,1078.08 1708.26,1084.94 1712.95,1092.45 
  1717.7,1099.94 1722.54,1107.42 1727.6,1115.06 1732.76,1122.73 1738.05,1130.4 1743.52,1138.16 1748.85,1145.57 1754.35,1153.07 1759.59,1160.02 1764.59,1166.47 
  1768.98,1172.05 1772.79,1176.77 1776.42,1181.18 1779.85,1185.28 1783.16,1189.16 1786.35,1192.86 1789.24,1196.14 1792.02,1199.25 1794.7,1202.18 1797.48,1205.17 
  1800.38,1208.24 1803.12,1211.12 1805.78,1213.85 1808.59,1216.7 1811.4,1219.5 1814.36,1222.39 1817.62,1225.53 1820.81,1228.56 1824.1,1231.61 1827.4,1234.63 
  1830.87,1237.74 1834.27,1240.73 1837.71,1243.72 1841.27,1246.75 1845.11,1249.95 1849.43,1253.47 1854.04,1257.12 1858.47,1260.55 1863.36,1264.24 1868.81,1268.24 
  1874.08,1271.99 1878.86,1275.31 1883.44,1278.38 1888.15,1281.47 1892.89,1284.47 1898.21,1287.72 1903.86,1291.04 1910.21,1294.65 1917.35,1298.55 1925.27,1302.72 
  1934.18,1307.19 1943.25,1311.52 1952.93,1315.93 1963.83,1320.58 1976.08,1325.43 1989.87,1330.47 2002.37,1334.66 2016.43,1339.09 2027.48,1342.33 2039.91,1345.71 
  2047.82,1347.73 2054.31,1349.33 2061.29,1350.98 2069.14,1352.76 2077.97,1354.67 2087.91,1356.7 2093.91,1357.85 2100.65,1359.1 2108.24,1360.44 2115.36,1361.66 
  2123.37,1362.97 2131.72,1364.27 2141.11,1365.62 2151.68,1367.04 2163.57,1368.51 2172.62,1369.56 2180.26,1370.41 2186.32,1371.05 2192.77,1371.7 2199.12,1372.32 
  2204.73,1372.84 2209.97,1373.31 2215.02,1373.75 2220.16,1374.18 2225.23,1374.6 2229.91,1374.97 2234.37,1375.31 2238.98,1375.65 2243.63,1375.98 2248.69,1376.33 
  2254.09,1376.7 2259.35,1377.04 2264.35,1377.35 2269.98,1377.69 2275.34,1378.01 2280.44,1378.3 2285.36,1378.57 2289.97,1378.81 2294.08,1379.03 
  "/>
<path clip-path="url(#clip900)" d="
M1567.83 270.476 L2283.65 270.476 L2283.65 166.796 L1567.83 166.796  Z
  " fill="#ffffff" fill-rule="evenodd" fill-opacity="1"/>
<polyline clip-path="url(#clip900)" style="stroke:#000000; stroke-linecap:butt; stroke-linejoin:round; stroke-width:4; stroke-opacity:1; fill:none" points="
  1567.83,270.476 2283.65,270.476 2283.65,166.796 1567.83,166.796 1567.83,270.476 
  "/>
<polyline clip-path="url(#clip900)" style="stroke:#009af9; stroke-linecap:butt; stroke-linejoin:round; stroke-width:4; stroke-opacity:1; fill:none" points="
  1590.87,218.636 1729.07,218.636 
  "/>
<path clip-path="url(#clip900)" d="M1752.1 201.356 L1759.07 201.356 L1767.89 224.874 L1776.76 201.356 L1783.72 201.356 L1783.72 235.916 L1779.16 235.916 L1779.16 205.569 L1770.25 229.272 L1765.55 229.272 L1756.64 205.569 L1756.64 235.916 L1752.1 235.916 L1752.1 201.356 Z" fill="#000000" fill-rule="evenodd" fill-opacity="1" /><path clip-path="url(#clip900)" d="M1792.82 209.99 L1797.08 209.99 L1797.08 235.916 L1792.82 235.916 L1792.82 209.99 M1792.82 199.897 L1797.08 199.897 L1797.08 205.291 L1792.82 205.291 L1792.82 199.897 Z" fill="#000000" fill-rule="evenodd" fill-opacity="1" /><path clip-path="url(#clip900)" d="M1823.05 213.925 L1823.05 199.897 L1827.31 199.897 L1827.31 235.916 L1823.05 235.916 L1823.05 232.027 Q1821.71 234.342 1819.65 235.476 Q1817.61 236.587 1814.74 236.587 Q1810.04 236.587 1807.08 232.837 Q1804.14 229.087 1804.14 222.976 Q1804.14 216.865 1807.08 213.115 Q1810.04 209.365 1814.74 209.365 Q1817.61 209.365 1819.65 210.499 Q1821.71 211.61 1823.05 213.925 M1808.54 222.976 Q1808.54 227.675 1810.46 230.36 Q1812.4 233.022 1815.78 233.022 Q1819.16 233.022 1821.11 230.36 Q1823.05 227.675 1823.05 222.976 Q1823.05 218.277 1821.11 215.615 Q1819.16 212.93 1815.78 212.93 Q1812.4 212.93 1810.46 215.615 Q1808.54 218.277 1808.54 222.976 Z" fill="#000000" fill-rule="evenodd" fill-opacity="1" /><path clip-path="url(#clip900)" d="M1853.14 213.925 L1853.14 199.897 L1857.4 199.897 L1857.4 235.916 L1853.14 235.916 L1853.14 232.027 Q1851.8 234.342 1849.74 235.476 Q1847.7 236.587 1844.83 236.587 Q1840.13 236.587 1837.17 232.837 Q1834.23 229.087 1834.23 222.976 Q1834.23 216.865 1837.17 213.115 Q1840.13 209.365 1844.83 209.365 Q1847.7 209.365 1849.74 210.499 Q1851.8 211.61 1853.14 213.925 M1838.63 222.976 Q1838.63 227.675 1840.55 230.36 Q1842.5 233.022 1845.88 233.022 Q1849.26 233.022 1851.2 230.36 Q1853.14 227.675 1853.14 222.976 Q1853.14 218.277 1851.2 215.615 Q1849.26 212.93 1845.88 212.93 Q1842.5 212.93 1840.55 215.615 Q1838.63 218.277 1838.63 222.976 Z" fill="#000000" fill-rule="evenodd" fill-opacity="1" /><path clip-path="url(#clip900)" d="M1866.18 199.897 L1870.44 199.897 L1870.44 235.916 L1866.18 235.916 L1866.18 199.897 Z" fill="#000000" fill-rule="evenodd" fill-opacity="1" /><path clip-path="url(#clip900)" d="M1901.52 221.888 L1901.52 223.971 L1881.94 223.971 Q1882.22 228.369 1884.58 230.684 Q1886.96 232.976 1891.2 232.976 Q1893.65 232.976 1895.94 232.374 Q1898.26 231.772 1900.53 230.569 L1900.53 234.596 Q1898.24 235.568 1895.83 236.078 Q1893.42 236.587 1890.94 236.587 Q1884.74 236.587 1881.11 232.976 Q1877.5 229.365 1877.5 223.207 Q1877.5 216.842 1880.92 213.115 Q1884.37 209.365 1890.2 209.365 Q1895.44 209.365 1898.47 212.745 Q1901.52 216.101 1901.52 221.888 M1897.26 220.638 Q1897.22 217.143 1895.3 215.059 Q1893.4 212.976 1890.25 212.976 Q1886.69 212.976 1884.53 214.99 Q1882.4 217.004 1882.08 220.661 L1897.26 220.638 Z" fill="#000000" fill-rule="evenodd" fill-opacity="1" /><path clip-path="url(#clip900)" d="M1924.32 235.198 L1924.32 230.939 Q1926.08 231.772 1927.89 232.212 Q1929.69 232.652 1931.43 232.652 Q1936.06 232.652 1938.49 229.55 Q1940.94 226.425 1941.29 220.082 Q1939.95 222.073 1937.89 223.138 Q1935.83 224.203 1933.33 224.203 Q1928.14 224.203 1925.11 221.078 Q1922.1 217.93 1922.1 212.49 Q1922.1 207.166 1925.25 203.948 Q1928.4 200.731 1933.63 200.731 Q1939.62 200.731 1942.77 205.337 Q1945.94 209.92 1945.94 218.67 Q1945.94 226.842 1942.06 231.726 Q1938.19 236.587 1931.64 236.587 Q1929.88 236.587 1928.07 236.24 Q1926.27 235.893 1924.32 235.198 M1933.63 220.545 Q1936.78 220.545 1938.61 218.393 Q1940.46 216.24 1940.46 212.49 Q1940.46 208.763 1938.61 206.61 Q1936.78 204.434 1933.63 204.434 Q1930.48 204.434 1928.63 206.61 Q1926.8 208.763 1926.8 212.49 Q1926.8 216.24 1928.63 218.393 Q1930.48 220.545 1933.63 220.545 Z" fill="#000000" fill-rule="evenodd" fill-opacity="1" /><path clip-path="url(#clip900)" d="M1954.39 201.356 L1972.75 201.356 L1972.75 205.291 L1958.68 205.291 L1958.68 213.763 Q1959.69 213.416 1960.71 213.254 Q1961.73 213.069 1962.75 213.069 Q1968.54 213.069 1971.92 216.24 Q1975.3 219.411 1975.3 224.828 Q1975.3 230.406 1971.82 233.508 Q1968.35 236.587 1962.03 236.587 Q1959.86 236.587 1957.59 236.217 Q1955.34 235.846 1952.94 235.106 L1952.94 230.406 Q1955.02 231.541 1957.24 232.096 Q1959.46 232.652 1961.94 232.652 Q1965.94 232.652 1968.28 230.545 Q1970.62 228.439 1970.62 224.828 Q1970.62 221.217 1968.28 219.11 Q1965.94 217.004 1961.94 217.004 Q1960.06 217.004 1958.19 217.42 Q1956.34 217.837 1954.39 218.717 L1954.39 201.356 Z" fill="#000000" fill-rule="evenodd" fill-opacity="1" /><path clip-path="url(#clip900)" d="M2013.91 220.707 Q2011.89 220.707 2010.74 222.42 Q2009.6 224.133 2009.6 227.189 Q2009.6 230.198 2010.74 231.934 Q2011.89 233.647 2013.91 233.647 Q2015.87 233.647 2017.01 231.934 Q2018.17 230.198 2018.17 227.189 Q2018.17 224.157 2017.01 222.444 Q2015.87 220.707 2013.91 220.707 M2013.91 217.768 Q2017.56 217.768 2019.72 220.314 Q2021.87 222.86 2021.87 227.189 Q2021.87 231.518 2019.69 234.064 Q2017.54 236.587 2013.91 236.587 Q2010.2 236.587 2008.05 234.064 Q2005.9 231.518 2005.9 227.189 Q2005.9 222.837 2008.05 220.314 Q2010.23 217.768 2013.91 217.768 M1990.02 203.671 Q1988.03 203.671 1986.87 205.407 Q1985.74 207.12 1985.74 210.129 Q1985.74 213.184 1986.87 214.897 Q1988 216.61 1990.02 216.61 Q1992.03 216.61 1993.17 214.897 Q1994.32 213.184 1994.32 210.129 Q1994.32 207.143 1993.17 205.407 Q1992.01 203.671 1990.02 203.671 M2010.92 200.731 L2014.62 200.731 L1993 236.587 L1989.3 236.587 L2010.92 200.731 M1990.02 200.731 Q1993.68 200.731 1995.85 203.277 Q1998.03 205.8 1998.03 210.129 Q1998.03 214.504 1995.85 217.027 Q1993.7 219.55 1990.02 219.55 Q1986.34 219.55 1984.18 217.027 Q1982.06 214.481 1982.06 210.129 Q1982.06 205.823 1984.21 203.277 Q1986.36 200.731 1990.02 200.731 Z" fill="#000000" fill-rule="evenodd" fill-opacity="1" /><path clip-path="url(#clip900)" d="M2058.24 204.527 Q2053.14 204.527 2050.13 208.323 Q2047.15 212.12 2047.15 218.67 Q2047.15 225.198 2050.13 228.994 Q2053.14 232.791 2058.24 232.791 Q2063.33 232.791 2066.29 228.994 Q2069.28 225.198 2069.28 218.67 Q2069.28 212.12 2066.29 208.323 Q2063.33 204.527 2058.24 204.527 M2064.79 235.291 L2070.94 242.027 L2065.3 242.027 L2060.18 236.494 Q2059.42 236.541 2059 236.564 Q2058.61 236.587 2058.24 236.587 Q2050.94 236.587 2046.57 231.726 Q2042.22 226.842 2042.22 218.67 Q2042.22 210.476 2046.57 205.615 Q2050.94 200.731 2058.24 200.731 Q2065.5 200.731 2069.86 205.615 Q2074.21 210.476 2074.21 218.67 Q2074.21 224.689 2071.78 228.971 Q2069.37 233.254 2064.79 235.291 Z" fill="#000000" fill-rule="evenodd" fill-opacity="1" /><path clip-path="url(#clip900)" d="M2080.9 225.684 L2080.9 209.99 L2085.16 209.99 L2085.16 225.522 Q2085.16 229.203 2086.59 231.055 Q2088.03 232.883 2090.9 232.883 Q2094.35 232.883 2096.34 230.684 Q2098.35 228.485 2098.35 224.689 L2098.35 209.99 L2102.61 209.99 L2102.61 235.916 L2098.35 235.916 L2098.35 231.934 Q2096.8 234.295 2094.74 235.453 Q2092.7 236.587 2089.99 236.587 Q2085.53 236.587 2083.21 233.809 Q2080.9 231.031 2080.9 225.684 M2091.61 209.365 L2091.61 209.365 Z" fill="#000000" fill-rule="evenodd" fill-opacity="1" /><path clip-path="url(#clip900)" d="M2123.17 222.883 Q2118 222.883 2116.01 224.064 Q2114.02 225.244 2114.02 228.092 Q2114.02 230.36 2115.5 231.703 Q2117.01 233.022 2119.58 233.022 Q2123.12 233.022 2125.25 230.522 Q2127.4 227.999 2127.4 223.832 L2127.4 222.883 L2123.17 222.883 M2131.66 221.124 L2131.66 235.916 L2127.4 235.916 L2127.4 231.981 Q2125.94 234.342 2123.77 235.476 Q2121.59 236.587 2118.44 236.587 Q2114.46 236.587 2112.1 234.365 Q2109.76 232.119 2109.76 228.369 Q2109.76 223.994 2112.68 221.772 Q2115.62 219.55 2121.43 219.55 L2127.4 219.55 L2127.4 219.133 Q2127.4 216.194 2125.46 214.596 Q2123.54 212.976 2120.04 212.976 Q2117.82 212.976 2115.71 213.508 Q2113.61 214.041 2111.66 215.106 L2111.66 211.17 Q2114 210.268 2116.2 209.828 Q2118.4 209.365 2120.48 209.365 Q2126.11 209.365 2128.88 212.282 Q2131.66 215.198 2131.66 221.124 Z" fill="#000000" fill-rule="evenodd" fill-opacity="1" /><path clip-path="url(#clip900)" d="M2161.98 220.268 L2161.98 235.916 L2157.73 235.916 L2157.73 220.407 Q2157.73 216.726 2156.29 214.897 Q2154.86 213.069 2151.98 213.069 Q2148.54 213.069 2146.55 215.268 Q2144.55 217.467 2144.55 221.263 L2144.55 235.916 L2140.27 235.916 L2140.27 209.99 L2144.55 209.99 L2144.55 214.018 Q2146.08 211.68 2148.14 210.522 Q2150.23 209.365 2152.93 209.365 Q2157.4 209.365 2159.69 212.143 Q2161.98 214.897 2161.98 220.268 Z" fill="#000000" fill-rule="evenodd" fill-opacity="1" /><path clip-path="url(#clip900)" d="M2174.69 202.629 L2174.69 209.99 L2183.47 209.99 L2183.47 213.3 L2174.69 213.3 L2174.69 227.374 Q2174.69 230.545 2175.55 231.448 Q2176.43 232.351 2179.09 232.351 L2183.47 232.351 L2183.47 235.916 L2179.09 235.916 Q2174.16 235.916 2172.29 234.087 Q2170.41 232.235 2170.41 227.374 L2170.41 213.3 L2167.29 213.3 L2167.29 209.99 L2170.41 209.99 L2170.41 202.629 L2174.69 202.629 Z" fill="#000000" fill-rule="evenodd" fill-opacity="1" /><path clip-path="url(#clip900)" d="M2189.07 209.99 L2193.33 209.99 L2193.33 235.916 L2189.07 235.916 L2189.07 209.99 M2189.07 199.897 L2193.33 199.897 L2193.33 205.291 L2189.07 205.291 L2189.07 199.897 Z" fill="#000000" fill-rule="evenodd" fill-opacity="1" /><path clip-path="url(#clip900)" d="M2202.24 199.897 L2206.5 199.897 L2206.5 235.916 L2202.24 235.916 L2202.24 199.897 Z" fill="#000000" fill-rule="evenodd" fill-opacity="1" /><path clip-path="url(#clip900)" d="M2237.59 221.888 L2237.59 223.971 L2218 223.971 Q2218.28 228.369 2220.64 230.684 Q2223.03 232.976 2227.26 232.976 Q2229.72 232.976 2232.01 232.374 Q2234.32 231.772 2236.59 230.569 L2236.59 234.596 Q2234.3 235.568 2231.89 236.078 Q2229.48 236.587 2227.01 236.587 Q2220.8 236.587 2217.17 232.976 Q2213.56 229.365 2213.56 223.207 Q2213.56 216.842 2216.98 213.115 Q2220.43 209.365 2226.27 209.365 Q2231.5 209.365 2234.53 212.745 Q2237.59 216.101 2237.59 221.888 M2233.33 220.638 Q2233.28 217.143 2231.36 215.059 Q2229.46 212.976 2226.31 212.976 Q2222.75 212.976 2220.6 214.99 Q2218.47 217.004 2218.14 220.661 L2233.33 220.638 Z" fill="#000000" fill-rule="evenodd" fill-opacity="1" /></svg>
