<?xml version="1.0" encoding="utf-8"?>
<svg xmlns="http://www.w3.org/2000/svg" xmlns:xlink="http://www.w3.org/1999/xlink" width="600" height="400" viewBox="0 0 2400 1600">
<defs>
  <clipPath id="clip080">
    <rect x="0" y="0" width="2400" height="1600"/>
  </clipPath>
</defs>
<path clip-path="url(#clip080)" d="
M0 1600 L2400 1600 L2400 0 L0 0  Z
  " fill="#ffffff" fill-rule="evenodd" fill-opacity="1"/>
<defs>
  <clipPath id="clip081">
    <rect x="480" y="0" width="1681" height="1600"/>
  </clipPath>
</defs>
<path clip-path="url(#clip080)" d="
M250.028 1423.18 L2352.76 1423.18 L2352.76 123.472 L250.028 123.472  Z
  " fill="#ffffff" fill-rule="evenodd" fill-opacity="1"/>
<defs>
  <clipPath id="clip082">
    <rect x="250" y="123" width="2104" height="1301"/>
  </clipPath>
</defs>
<polyline clip-path="url(#clip082)" style="stroke:#000000; stroke-linecap:round; stroke-linejoin:round; stroke-width:2; stroke-opacity:0.1; fill:none" points="
  250.028,1423.18 250.028,123.472 
  "/>
<polyline clip-path="url(#clip082)" style="stroke:#000000; stroke-linecap:round; stroke-linejoin:round; stroke-width:2; stroke-opacity:0.1; fill:none" points="
  632.342,1423.18 632.342,123.472 
  "/>
<polyline clip-path="url(#clip082)" style="stroke:#000000; stroke-linecap:round; stroke-linejoin:round; stroke-width:2; stroke-opacity:0.1; fill:none" points="
  1014.66,1423.18 1014.66,123.472 
  "/>
<polyline clip-path="url(#clip082)" style="stroke:#000000; stroke-linecap:round; stroke-linejoin:round; stroke-width:2; stroke-opacity:0.1; fill:none" points="
  1396.97,1423.18 1396.97,123.472 
  "/>
<polyline clip-path="url(#clip082)" style="stroke:#000000; stroke-linecap:round; stroke-linejoin:round; stroke-width:2; stroke-opacity:0.1; fill:none" points="
  1779.28,1423.18 1779.28,123.472 
  "/>
<polyline clip-path="url(#clip082)" style="stroke:#000000; stroke-linecap:round; stroke-linejoin:round; stroke-width:2; stroke-opacity:0.1; fill:none" points="
  2161.6,1423.18 2161.6,123.472 
  "/>
<polyline clip-path="url(#clip080)" style="stroke:#000000; stroke-linecap:round; stroke-linejoin:round; stroke-width:4; stroke-opacity:1; fill:none" points="
  250.028,1423.18 2352.76,1423.18 
  "/>
<polyline clip-path="url(#clip080)" style="stroke:#000000; stroke-linecap:round; stroke-linejoin:round; stroke-width:4; stroke-opacity:1; fill:none" points="
  250.028,1423.18 250.028,1404.28 
  "/>
<polyline clip-path="url(#clip080)" style="stroke:#000000; stroke-linecap:round; stroke-linejoin:round; stroke-width:4; stroke-opacity:1; fill:none" points="
  632.342,1423.18 632.342,1404.28 
  "/>
<polyline clip-path="url(#clip080)" style="stroke:#000000; stroke-linecap:round; stroke-linejoin:round; stroke-width:4; stroke-opacity:1; fill:none" points="
  1014.66,1423.18 1014.66,1404.28 
  "/>
<polyline clip-path="url(#clip080)" style="stroke:#000000; stroke-linecap:round; stroke-linejoin:round; stroke-width:4; stroke-opacity:1; fill:none" points="
  1396.97,1423.18 1396.97,1404.28 
  "/>
<polyline clip-path="url(#clip080)" style="stroke:#000000; stroke-linecap:round; stroke-linejoin:round; stroke-width:4; stroke-opacity:1; fill:none" points="
  1779.28,1423.18 1779.28,1404.28 
  "/>
<polyline clip-path="url(#clip080)" style="stroke:#000000; stroke-linecap:round; stroke-linejoin:round; stroke-width:4; stroke-opacity:1; fill:none" points="
  2161.6,1423.18 2161.6,1404.28 
  "/>
<path clip-path="url(#clip080)" d="M250.028 1454.1 Q246.417 1454.1 244.588 1457.66 Q242.783 1461.2 242.783 1468.33 Q242.783 1475.44 244.588 1479.01 Q246.417 1482.55 250.028 1482.55 Q253.662 1482.55 255.468 1479.01 Q257.297 1475.44 257.297 1468.33 Q257.297 1461.2 255.468 1457.66 Q253.662 1454.1 250.028 1454.1 M250.028 1450.39 Q255.838 1450.39 258.894 1455 Q261.973 1459.58 261.973 1468.33 Q261.973 1477.06 258.894 1481.67 Q255.838 1486.25 250.028 1486.25 Q244.218 1486.25 241.139 1481.67 Q238.084 1477.06 238.084 1468.33 Q238.084 1459.58 241.139 1455 Q244.218 1450.39 250.028 1450.39 Z" fill="#000000" fill-rule="evenodd" fill-opacity="1" /><path clip-path="url(#clip080)" d="M591.949 1481.64 L599.588 1481.64 L599.588 1455.28 L591.278 1456.95 L591.278 1452.69 L599.542 1451.02 L604.217 1451.02 L604.217 1481.64 L611.856 1481.64 L611.856 1485.58 L591.949 1485.58 L591.949 1481.64 Z" fill="#000000" fill-rule="evenodd" fill-opacity="1" /><path clip-path="url(#clip080)" d="M631.301 1454.1 Q627.69 1454.1 625.861 1457.66 Q624.055 1461.2 624.055 1468.33 Q624.055 1475.44 625.861 1479.01 Q627.69 1482.55 631.301 1482.55 Q634.935 1482.55 636.74 1479.01 Q638.569 1475.44 638.569 1468.33 Q638.569 1461.2 636.74 1457.66 Q634.935 1454.1 631.301 1454.1 M631.301 1450.39 Q637.111 1450.39 640.166 1455 Q643.245 1459.58 643.245 1468.33 Q643.245 1477.06 640.166 1481.67 Q637.111 1486.25 631.301 1486.25 Q625.49 1486.25 622.412 1481.67 Q619.356 1477.06 619.356 1468.33 Q619.356 1459.58 622.412 1455 Q625.49 1450.39 631.301 1450.39 Z" fill="#000000" fill-rule="evenodd" fill-opacity="1" /><path clip-path="url(#clip080)" d="M661.462 1454.1 Q657.851 1454.1 656.023 1457.66 Q654.217 1461.2 654.217 1468.33 Q654.217 1475.44 656.023 1479.01 Q657.851 1482.55 661.462 1482.55 Q665.097 1482.55 666.902 1479.01 Q668.731 1475.44 668.731 1468.33 Q668.731 1461.2 666.902 1457.66 Q665.097 1454.1 661.462 1454.1 M661.462 1450.39 Q667.273 1450.39 670.328 1455 Q673.407 1459.58 673.407 1468.33 Q673.407 1477.06 670.328 1481.67 Q667.273 1486.25 661.462 1486.25 Q655.652 1486.25 652.574 1481.67 Q649.518 1477.06 649.518 1468.33 Q649.518 1459.58 652.574 1455 Q655.652 1450.39 661.462 1450.39 Z" fill="#000000" fill-rule="evenodd" fill-opacity="1" /><path clip-path="url(#clip080)" d="M978.349 1481.64 L994.668 1481.64 L994.668 1485.58 L972.724 1485.58 L972.724 1481.64 Q975.386 1478.89 979.969 1474.26 Q984.576 1469.61 985.756 1468.27 Q988.001 1465.74 988.881 1464.01 Q989.784 1462.25 989.784 1460.56 Q989.784 1457.8 987.839 1456.07 Q985.918 1454.33 982.816 1454.33 Q980.617 1454.33 978.164 1455.09 Q975.733 1455.86 972.955 1457.41 L972.955 1452.69 Q975.779 1451.55 978.233 1450.97 Q980.687 1450.39 982.724 1450.39 Q988.094 1450.39 991.288 1453.08 Q994.483 1455.77 994.483 1460.26 Q994.483 1462.39 993.673 1464.31 Q992.886 1466.2 990.779 1468.8 Q990.201 1469.47 987.099 1472.69 Q983.997 1475.88 978.349 1481.64 Z" fill="#000000" fill-rule="evenodd" fill-opacity="1" /><path clip-path="url(#clip080)" d="M1014.48 1454.1 Q1010.87 1454.1 1009.04 1457.66 Q1007.24 1461.2 1007.24 1468.33 Q1007.24 1475.44 1009.04 1479.01 Q1010.87 1482.55 1014.48 1482.55 Q1018.12 1482.55 1019.92 1479.01 Q1021.75 1475.44 1021.75 1468.33 Q1021.75 1461.2 1019.92 1457.66 Q1018.12 1454.1 1014.48 1454.1 M1014.48 1450.39 Q1020.29 1450.39 1023.35 1455 Q1026.43 1459.58 1026.43 1468.33 Q1026.43 1477.06 1023.35 1481.67 Q1020.29 1486.25 1014.48 1486.25 Q1008.67 1486.25 1005.59 1481.67 Q1002.54 1477.06 1002.54 1468.33 Q1002.54 1459.58 1005.59 1455 Q1008.67 1450.39 1014.48 1450.39 Z" fill="#000000" fill-rule="evenodd" fill-opacity="1" /><path clip-path="url(#clip080)" d="M1044.64 1454.1 Q1041.03 1454.1 1039.2 1457.66 Q1037.4 1461.2 1037.4 1468.33 Q1037.4 1475.44 1039.2 1479.01 Q1041.03 1482.55 1044.64 1482.55 Q1048.28 1482.55 1050.08 1479.01 Q1051.91 1475.44 1051.91 1468.33 Q1051.91 1461.2 1050.08 1457.66 Q1048.28 1454.1 1044.64 1454.1 M1044.64 1450.39 Q1050.45 1450.39 1053.51 1455 Q1056.59 1459.58 1056.59 1468.33 Q1056.59 1477.06 1053.51 1481.67 Q1050.45 1486.25 1044.64 1486.25 Q1038.83 1486.25 1035.76 1481.67 Q1032.7 1477.06 1032.7 1468.33 Q1032.7 1459.58 1035.76 1455 Q1038.83 1450.39 1044.64 1450.39 Z" fill="#000000" fill-rule="evenodd" fill-opacity="1" /><path clip-path="url(#clip080)" d="M1370.73 1466.95 Q1374.09 1467.66 1375.96 1469.93 Q1377.86 1472.2 1377.86 1475.53 Q1377.86 1480.65 1374.34 1483.45 Q1370.82 1486.25 1364.34 1486.25 Q1362.17 1486.25 1359.85 1485.81 Q1357.56 1485.39 1355.11 1484.54 L1355.11 1480.02 Q1357.05 1481.16 1359.37 1481.74 Q1361.68 1482.32 1364.2 1482.32 Q1368.6 1482.32 1370.89 1480.58 Q1373.21 1478.84 1373.21 1475.53 Q1373.21 1472.48 1371.06 1470.77 Q1368.93 1469.03 1365.11 1469.03 L1361.08 1469.03 L1361.08 1465.19 L1365.29 1465.19 Q1368.74 1465.19 1370.57 1463.82 Q1372.4 1462.43 1372.4 1459.84 Q1372.4 1457.18 1370.5 1455.77 Q1368.63 1454.33 1365.11 1454.33 Q1363.19 1454.33 1360.99 1454.75 Q1358.79 1455.16 1356.15 1456.04 L1356.15 1451.88 Q1358.81 1451.14 1361.13 1450.77 Q1363.46 1450.39 1365.52 1450.39 Q1370.85 1450.39 1373.95 1452.83 Q1377.05 1455.23 1377.05 1459.35 Q1377.05 1462.22 1375.41 1464.21 Q1373.76 1466.18 1370.73 1466.95 Z" fill="#000000" fill-rule="evenodd" fill-opacity="1" /><path clip-path="url(#clip080)" d="M1396.73 1454.1 Q1393.12 1454.1 1391.29 1457.66 Q1389.48 1461.2 1389.48 1468.33 Q1389.48 1475.44 1391.29 1479.01 Q1393.12 1482.55 1396.73 1482.55 Q1400.36 1482.55 1402.17 1479.01 Q1404 1475.44 1404 1468.33 Q1404 1461.2 1402.17 1457.66 Q1400.36 1454.1 1396.73 1454.1 M1396.73 1450.39 Q1402.54 1450.39 1405.59 1455 Q1408.67 1459.58 1408.67 1468.33 Q1408.67 1477.06 1405.59 1481.67 Q1402.54 1486.25 1396.73 1486.25 Q1390.92 1486.25 1387.84 1481.67 Q1384.78 1477.06 1384.78 1468.33 Q1384.78 1459.58 1387.84 1455 Q1390.92 1450.39 1396.73 1450.39 Z" fill="#000000" fill-rule="evenodd" fill-opacity="1" /><path clip-path="url(#clip080)" d="M1426.89 1454.1 Q1423.28 1454.1 1421.45 1457.66 Q1419.64 1461.2 1419.64 1468.33 Q1419.64 1475.44 1421.45 1479.01 Q1423.28 1482.55 1426.89 1482.55 Q1430.52 1482.55 1432.33 1479.01 Q1434.16 1475.44 1434.16 1468.33 Q1434.16 1461.2 1432.33 1457.66 Q1430.52 1454.1 1426.89 1454.1 M1426.89 1450.39 Q1432.7 1450.39 1435.76 1455 Q1438.83 1459.58 1438.83 1468.33 Q1438.83 1477.06 1435.76 1481.67 Q1432.7 1486.25 1426.89 1486.25 Q1421.08 1486.25 1418 1481.67 Q1414.94 1477.06 1414.94 1468.33 Q1414.94 1459.58 1418 1455 Q1421.08 1450.39 1426.89 1450.39 Z" fill="#000000" fill-rule="evenodd" fill-opacity="1" /><path clip-path="url(#clip080)" d="M1752.38 1455.09 L1740.57 1473.54 L1752.38 1473.54 L1752.38 1455.09 M1751.15 1451.02 L1757.03 1451.02 L1757.03 1473.54 L1761.96 1473.54 L1761.96 1477.43 L1757.03 1477.43 L1757.03 1485.58 L1752.38 1485.58 L1752.38 1477.43 L1736.77 1477.43 L1736.77 1472.92 L1751.15 1451.02 Z" fill="#000000" fill-rule="evenodd" fill-opacity="1" /><path clip-path="url(#clip080)" d="M1779.69 1454.1 Q1776.08 1454.1 1774.25 1457.66 Q1772.44 1461.2 1772.44 1468.33 Q1772.44 1475.44 1774.25 1479.01 Q1776.08 1482.55 1779.69 1482.55 Q1783.32 1482.55 1785.13 1479.01 Q1786.96 1475.44 1786.96 1468.33 Q1786.96 1461.2 1785.13 1457.66 Q1783.32 1454.1 1779.69 1454.1 M1779.69 1450.39 Q1785.5 1450.39 1788.56 1455 Q1791.63 1459.58 1791.63 1468.33 Q1791.63 1477.06 1788.56 1481.67 Q1785.5 1486.25 1779.69 1486.25 Q1773.88 1486.25 1770.8 1481.67 Q1767.75 1477.06 1767.75 1468.33 Q1767.75 1459.58 1770.8 1455 Q1773.88 1450.39 1779.69 1450.39 Z" fill="#000000" fill-rule="evenodd" fill-opacity="1" /><path clip-path="url(#clip080)" d="M1809.85 1454.1 Q1806.24 1454.1 1804.41 1457.66 Q1802.61 1461.2 1802.61 1468.33 Q1802.61 1475.44 1804.41 1479.01 Q1806.24 1482.55 1809.85 1482.55 Q1813.49 1482.55 1815.29 1479.01 Q1817.12 1475.44 1817.12 1468.33 Q1817.12 1461.2 1815.29 1457.66 Q1813.49 1454.1 1809.85 1454.1 M1809.85 1450.39 Q1815.66 1450.39 1818.72 1455 Q1821.8 1459.58 1821.8 1468.33 Q1821.8 1477.06 1818.72 1481.67 Q1815.66 1486.25 1809.85 1486.25 Q1804.04 1486.25 1800.96 1481.67 Q1797.91 1477.06 1797.91 1468.33 Q1797.91 1459.58 1800.96 1455 Q1804.04 1450.39 1809.85 1450.39 Z" fill="#000000" fill-rule="evenodd" fill-opacity="1" /><path clip-path="url(#clip080)" d="M2121.22 1451.02 L2139.57 1451.02 L2139.57 1454.96 L2125.5 1454.96 L2125.5 1463.43 Q2126.52 1463.08 2127.54 1462.92 Q2128.56 1462.73 2129.57 1462.73 Q2135.36 1462.73 2138.74 1465.9 Q2142.12 1469.08 2142.12 1474.49 Q2142.12 1480.07 2138.65 1483.17 Q2135.18 1486.25 2128.86 1486.25 Q2126.68 1486.25 2124.41 1485.88 Q2122.17 1485.51 2119.76 1484.77 L2119.76 1480.07 Q2121.84 1481.2 2124.06 1481.76 Q2126.29 1482.32 2128.76 1482.32 Q2132.77 1482.32 2135.11 1480.21 Q2137.44 1478.1 2137.44 1474.49 Q2137.44 1470.88 2135.11 1468.77 Q2132.77 1466.67 2128.76 1466.67 Q2126.89 1466.67 2125.01 1467.08 Q2123.16 1467.5 2121.22 1468.38 L2121.22 1451.02 Z" fill="#000000" fill-rule="evenodd" fill-opacity="1" /><path clip-path="url(#clip080)" d="M2161.33 1454.1 Q2157.72 1454.1 2155.89 1457.66 Q2154.09 1461.2 2154.09 1468.33 Q2154.09 1475.44 2155.89 1479.01 Q2157.72 1482.55 2161.33 1482.55 Q2164.97 1482.55 2166.77 1479.01 Q2168.6 1475.44 2168.6 1468.33 Q2168.6 1461.2 2166.77 1457.66 Q2164.97 1454.1 2161.33 1454.1 M2161.33 1450.39 Q2167.14 1450.39 2170.2 1455 Q2173.28 1459.58 2173.28 1468.33 Q2173.28 1477.06 2170.2 1481.67 Q2167.14 1486.25 2161.33 1486.25 Q2155.52 1486.25 2152.44 1481.67 Q2149.39 1477.06 2149.39 1468.33 Q2149.39 1459.58 2152.44 1455 Q2155.52 1450.39 2161.33 1450.39 Z" fill="#000000" fill-rule="evenodd" fill-opacity="1" /><path clip-path="url(#clip080)" d="M2191.49 1454.1 Q2187.88 1454.1 2186.05 1457.66 Q2184.25 1461.2 2184.25 1468.33 Q2184.25 1475.44 2186.05 1479.01 Q2187.88 1482.55 2191.49 1482.55 Q2195.13 1482.55 2196.93 1479.01 Q2198.76 1475.44 2198.76 1468.33 Q2198.76 1461.2 2196.93 1457.66 Q2195.13 1454.1 2191.49 1454.1 M2191.49 1450.39 Q2197.3 1450.39 2200.36 1455 Q2203.44 1459.58 2203.44 1468.33 Q2203.44 1477.06 2200.36 1481.67 Q2197.3 1486.25 2191.49 1486.25 Q2185.68 1486.25 2182.61 1481.67 Q2179.55 1477.06 2179.55 1468.33 Q2179.55 1459.58 2182.61 1455 Q2185.68 1450.39 2191.49 1450.39 Z" fill="#000000" fill-rule="evenodd" fill-opacity="1" /><path clip-path="url(#clip080)" d="M1309.86 1531.91 Q1309.86 1532.81 1309.44 1533.04 Q1309.03 1533.23 1307.87 1533.23 L1301.68 1533.23 L1296.79 1552.69 Q1296.4 1554.39 1296.4 1555.84 Q1296.4 1557.45 1296.88 1558.16 Q1297.4 1558.87 1298.46 1558.87 Q1300.56 1558.87 1302.81 1556.97 Q1305.1 1555.07 1307.03 1550.43 Q1307.29 1549.82 1307.42 1549.69 Q1307.58 1549.53 1308 1549.53 Q1308.8 1549.53 1308.8 1550.17 Q1308.8 1550.4 1308.35 1551.43 Q1307.93 1552.46 1307 1553.97 Q1306.09 1555.49 1304.9 1556.9 Q1303.74 1558.32 1301.97 1559.35 Q1300.2 1560.35 1298.3 1560.35 Q1295.63 1560.35 1293.92 1558.64 Q1292.25 1556.94 1292.25 1554.26 Q1292.25 1553.39 1292.92 1550.62 Q1293.6 1547.82 1297.27 1533.23 L1291.44 1533.23 Q1290.64 1533.23 1290.31 1533.2 Q1290.02 1533.17 1289.8 1533.01 Q1289.61 1532.81 1289.61 1532.43 Q1289.61 1531.82 1289.86 1531.56 Q1290.12 1531.27 1290.44 1531.24 Q1290.8 1531.17 1291.6 1531.17 L1297.79 1531.17 L1300.36 1520.71 Q1300.62 1519.67 1301.26 1519.09 Q1301.94 1518.48 1302.33 1518.42 Q1302.71 1518.32 1303 1518.32 Q1303.87 1518.32 1304.39 1518.81 Q1304.9 1519.26 1304.9 1520.09 Q1304.9 1520.54 1302.2 1531.17 L1308 1531.17 Q1308.74 1531.17 1309.03 1531.2 Q1309.35 1531.24 1309.61 1531.4 Q1309.86 1531.56 1309.86 1531.91 Z" fill="#000000" fill-rule="evenodd" fill-opacity="1" /><polyline clip-path="url(#clip082)" style="stroke:#000000; stroke-linecap:round; stroke-linejoin:round; stroke-width:2; stroke-opacity:0.1; fill:none" points="
  250.028,1387.35 2352.76,1387.35 
  "/>
<polyline clip-path="url(#clip082)" style="stroke:#000000; stroke-linecap:round; stroke-linejoin:round; stroke-width:2; stroke-opacity:0.1; fill:none" points="
  250.028,1082.02 2352.76,1082.02 
  "/>
<polyline clip-path="url(#clip082)" style="stroke:#000000; stroke-linecap:round; stroke-linejoin:round; stroke-width:2; stroke-opacity:0.1; fill:none" points="
  250.028,776.69 2352.76,776.69 
  "/>
<polyline clip-path="url(#clip082)" style="stroke:#000000; stroke-linecap:round; stroke-linejoin:round; stroke-width:2; stroke-opacity:0.1; fill:none" points="
  250.028,471.359 2352.76,471.359 
  "/>
<polyline clip-path="url(#clip082)" style="stroke:#000000; stroke-linecap:round; stroke-linejoin:round; stroke-width:2; stroke-opacity:0.1; fill:none" points="
  250.028,166.029 2352.76,166.029 
  "/>
<polyline clip-path="url(#clip080)" style="stroke:#000000; stroke-linecap:round; stroke-linejoin:round; stroke-width:4; stroke-opacity:1; fill:none" points="
  250.028,1423.18 250.028,123.472 
  "/>
<polyline clip-path="url(#clip080)" style="stroke:#000000; stroke-linecap:round; stroke-linejoin:round; stroke-width:4; stroke-opacity:1; fill:none" points="
  250.028,1387.35 268.926,1387.35 
  "/>
<polyline clip-path="url(#clip080)" style="stroke:#000000; stroke-linecap:round; stroke-linejoin:round; stroke-width:4; stroke-opacity:1; fill:none" points="
  250.028,1082.02 268.926,1082.02 
  "/>
<polyline clip-path="url(#clip080)" style="stroke:#000000; stroke-linecap:round; stroke-linejoin:round; stroke-width:4; stroke-opacity:1; fill:none" points="
  250.028,776.69 268.926,776.69 
  "/>
<polyline clip-path="url(#clip080)" style="stroke:#000000; stroke-linecap:round; stroke-linejoin:round; stroke-width:4; stroke-opacity:1; fill:none" points="
  250.028,471.359 268.926,471.359 
  "/>
<polyline clip-path="url(#clip080)" style="stroke:#000000; stroke-linecap:round; stroke-linejoin:round; stroke-width:4; stroke-opacity:1; fill:none" points="
  250.028,166.029 268.926,166.029 
  "/>
<path clip-path="url(#clip080)" d="M126.691 1373.15 Q123.08 1373.15 121.251 1376.71 Q119.445 1380.26 119.445 1387.39 Q119.445 1394.49 121.251 1398.06 Q123.08 1401.6 126.691 1401.6 Q130.325 1401.6 132.13 1398.06 Q133.959 1394.49 133.959 1387.39 Q133.959 1380.26 132.13 1376.71 Q130.325 1373.15 126.691 1373.15 M126.691 1369.45 Q132.501 1369.45 135.556 1374.05 Q138.635 1378.64 138.635 1387.39 Q138.635 1396.11 135.556 1400.72 Q132.501 1405.3 126.691 1405.3 Q120.88 1405.3 117.802 1400.72 Q114.746 1396.11 114.746 1387.39 Q114.746 1378.64 117.802 1374.05 Q120.88 1369.45 126.691 1369.45 Z" fill="#000000" fill-rule="evenodd" fill-opacity="1" /><path clip-path="url(#clip080)" d="M146.853 1398.75 L151.737 1398.75 L151.737 1404.63 L146.853 1404.63 L146.853 1398.75 Z" fill="#000000" fill-rule="evenodd" fill-opacity="1" /><path clip-path="url(#clip080)" d="M171.922 1373.15 Q168.311 1373.15 166.482 1376.71 Q164.677 1380.26 164.677 1387.39 Q164.677 1394.49 166.482 1398.06 Q168.311 1401.6 171.922 1401.6 Q175.556 1401.6 177.362 1398.06 Q179.19 1394.49 179.19 1387.39 Q179.19 1380.26 177.362 1376.71 Q175.556 1373.15 171.922 1373.15 M171.922 1369.45 Q177.732 1369.45 180.788 1374.05 Q183.866 1378.64 183.866 1387.39 Q183.866 1396.11 180.788 1400.72 Q177.732 1405.3 171.922 1405.3 Q166.112 1405.3 163.033 1400.72 Q159.978 1396.11 159.978 1387.39 Q159.978 1378.64 163.033 1374.05 Q166.112 1369.45 171.922 1369.45 Z" fill="#000000" fill-rule="evenodd" fill-opacity="1" /><path clip-path="url(#clip080)" d="M202.084 1373.15 Q198.473 1373.15 196.644 1376.71 Q194.838 1380.26 194.838 1387.39 Q194.838 1394.49 196.644 1398.06 Q198.473 1401.6 202.084 1401.6 Q205.718 1401.6 207.524 1398.06 Q209.352 1394.49 209.352 1387.39 Q209.352 1380.26 207.524 1376.71 Q205.718 1373.15 202.084 1373.15 M202.084 1369.45 Q207.894 1369.45 210.949 1374.05 Q214.028 1378.64 214.028 1387.39 Q214.028 1396.11 210.949 1400.72 Q207.894 1405.3 202.084 1405.3 Q196.274 1405.3 193.195 1400.72 Q190.139 1396.11 190.139 1387.39 Q190.139 1378.64 193.195 1374.05 Q196.274 1369.45 202.084 1369.45 Z" fill="#000000" fill-rule="evenodd" fill-opacity="1" /><path clip-path="url(#clip080)" d="M128.288 1067.82 Q124.677 1067.82 122.848 1071.38 Q121.043 1074.93 121.043 1082.06 Q121.043 1089.16 122.848 1092.73 Q124.677 1096.27 128.288 1096.27 Q131.922 1096.27 133.728 1092.73 Q135.556 1089.16 135.556 1082.06 Q135.556 1074.93 133.728 1071.38 Q131.922 1067.82 128.288 1067.82 M128.288 1064.12 Q134.098 1064.12 137.154 1068.72 Q140.232 1073.31 140.232 1082.06 Q140.232 1090.78 137.154 1095.39 Q134.098 1099.97 128.288 1099.97 Q122.478 1099.97 119.399 1095.39 Q116.343 1090.78 116.343 1082.06 Q116.343 1073.31 119.399 1068.72 Q122.478 1064.12 128.288 1064.12 Z" fill="#000000" fill-rule="evenodd" fill-opacity="1" /><path clip-path="url(#clip080)" d="M148.45 1093.42 L153.334 1093.42 L153.334 1099.3 L148.45 1099.3 L148.45 1093.42 Z" fill="#000000" fill-rule="evenodd" fill-opacity="1" /><path clip-path="url(#clip080)" d="M173.519 1067.82 Q169.908 1067.82 168.079 1071.38 Q166.274 1074.93 166.274 1082.06 Q166.274 1089.16 168.079 1092.73 Q169.908 1096.27 173.519 1096.27 Q177.153 1096.27 178.959 1092.73 Q180.788 1089.16 180.788 1082.06 Q180.788 1074.93 178.959 1071.38 Q177.153 1067.82 173.519 1067.82 M173.519 1064.12 Q179.329 1064.12 182.385 1068.72 Q185.463 1073.31 185.463 1082.06 Q185.463 1090.78 182.385 1095.39 Q179.329 1099.97 173.519 1099.97 Q167.709 1099.97 164.63 1095.39 Q161.575 1090.78 161.575 1082.06 Q161.575 1073.31 164.63 1068.72 Q167.709 1064.12 173.519 1064.12 Z" fill="#000000" fill-rule="evenodd" fill-opacity="1" /><path clip-path="url(#clip080)" d="M197.709 1095.37 L214.028 1095.37 L214.028 1099.3 L192.084 1099.3 L192.084 1095.37 Q194.746 1092.61 199.329 1087.98 Q203.936 1083.33 205.116 1081.99 Q207.362 1079.46 208.241 1077.73 Q209.144 1075.97 209.144 1074.28 Q209.144 1071.52 207.199 1069.79 Q205.278 1068.05 202.176 1068.05 Q199.977 1068.05 197.524 1068.81 Q195.093 1069.58 192.315 1071.13 L192.315 1066.41 Q195.139 1065.27 197.593 1064.69 Q200.047 1064.12 202.084 1064.12 Q207.454 1064.12 210.649 1066.8 Q213.843 1069.49 213.843 1073.98 Q213.843 1076.11 213.033 1078.03 Q212.246 1079.93 210.139 1082.52 Q209.561 1083.19 206.459 1086.41 Q203.357 1089.6 197.709 1095.37 Z" fill="#000000" fill-rule="evenodd" fill-opacity="1" /><path clip-path="url(#clip080)" d="M126.205 762.489 Q122.593 762.489 120.765 766.053 Q118.959 769.595 118.959 776.725 Q118.959 783.831 120.765 787.396 Q122.593 790.937 126.205 790.937 Q129.839 790.937 131.644 787.396 Q133.473 783.831 133.473 776.725 Q133.473 769.595 131.644 766.053 Q129.839 762.489 126.205 762.489 M126.205 758.785 Q132.015 758.785 135.07 763.391 Q138.149 767.975 138.149 776.725 Q138.149 785.451 135.07 790.058 Q132.015 794.641 126.205 794.641 Q120.394 794.641 117.316 790.058 Q114.26 785.451 114.26 776.725 Q114.26 767.975 117.316 763.391 Q120.394 758.785 126.205 758.785 Z" fill="#000000" fill-rule="evenodd" fill-opacity="1" /><path clip-path="url(#clip080)" d="M146.366 788.09 L151.251 788.09 L151.251 793.97 L146.366 793.97 L146.366 788.09 Z" fill="#000000" fill-rule="evenodd" fill-opacity="1" /><path clip-path="url(#clip080)" d="M171.436 762.489 Q167.825 762.489 165.996 766.053 Q164.19 769.595 164.19 776.725 Q164.19 783.831 165.996 787.396 Q167.825 790.937 171.436 790.937 Q175.07 790.937 176.876 787.396 Q178.704 783.831 178.704 776.725 Q178.704 769.595 176.876 766.053 Q175.07 762.489 171.436 762.489 M171.436 758.785 Q177.246 758.785 180.301 763.391 Q183.38 767.975 183.38 776.725 Q183.38 785.451 180.301 790.058 Q177.246 794.641 171.436 794.641 Q165.626 794.641 162.547 790.058 Q159.491 785.451 159.491 776.725 Q159.491 767.975 162.547 763.391 Q165.626 758.785 171.436 758.785 Z" fill="#000000" fill-rule="evenodd" fill-opacity="1" /><path clip-path="url(#clip080)" d="M204.445 763.484 L192.639 781.933 L204.445 781.933 L204.445 763.484 M203.218 759.41 L209.098 759.41 L209.098 781.933 L214.028 781.933 L214.028 785.822 L209.098 785.822 L209.098 793.97 L204.445 793.97 L204.445 785.822 L188.843 785.822 L188.843 781.308 L203.218 759.41 Z" fill="#000000" fill-rule="evenodd" fill-opacity="1" /><path clip-path="url(#clip080)" d="M126.529 457.158 Q122.918 457.158 121.089 460.723 Q119.283 464.265 119.283 471.394 Q119.283 478.501 121.089 482.065 Q122.918 485.607 126.529 485.607 Q130.163 485.607 131.968 482.065 Q133.797 478.501 133.797 471.394 Q133.797 464.265 131.968 460.723 Q130.163 457.158 126.529 457.158 M126.529 453.454 Q132.339 453.454 135.394 458.061 Q138.473 462.644 138.473 471.394 Q138.473 480.121 135.394 484.727 Q132.339 489.311 126.529 489.311 Q120.718 489.311 117.64 484.727 Q114.584 480.121 114.584 471.394 Q114.584 462.644 117.64 458.061 Q120.718 453.454 126.529 453.454 Z" fill="#000000" fill-rule="evenodd" fill-opacity="1" /><path clip-path="url(#clip080)" d="M146.691 482.76 L151.575 482.76 L151.575 488.639 L146.691 488.639 L146.691 482.76 Z" fill="#000000" fill-rule="evenodd" fill-opacity="1" /><path clip-path="url(#clip080)" d="M171.76 457.158 Q168.149 457.158 166.32 460.723 Q164.515 464.265 164.515 471.394 Q164.515 478.501 166.32 482.065 Q168.149 485.607 171.76 485.607 Q175.394 485.607 177.2 482.065 Q179.028 478.501 179.028 471.394 Q179.028 464.265 177.2 460.723 Q175.394 457.158 171.76 457.158 M171.76 453.454 Q177.57 453.454 180.626 458.061 Q183.704 462.644 183.704 471.394 Q183.704 480.121 180.626 484.727 Q177.57 489.311 171.76 489.311 Q165.95 489.311 162.871 484.727 Q159.815 480.121 159.815 471.394 Q159.815 462.644 162.871 458.061 Q165.95 453.454 171.76 453.454 Z" fill="#000000" fill-rule="evenodd" fill-opacity="1" /><path clip-path="url(#clip080)" d="M202.5 469.496 Q199.352 469.496 197.5 471.649 Q195.672 473.801 195.672 477.551 Q195.672 481.278 197.5 483.454 Q199.352 485.607 202.5 485.607 Q205.649 485.607 207.477 483.454 Q209.329 481.278 209.329 477.551 Q209.329 473.801 207.477 471.649 Q205.649 469.496 202.5 469.496 M211.783 454.843 L211.783 459.102 Q210.024 458.269 208.218 457.829 Q206.436 457.39 204.676 457.39 Q200.047 457.39 197.593 460.515 Q195.163 463.64 194.815 469.959 Q196.181 467.945 198.241 466.88 Q200.301 465.792 202.778 465.792 Q207.987 465.792 210.996 468.964 Q214.028 472.112 214.028 477.551 Q214.028 482.876 210.88 486.093 Q207.732 489.311 202.5 489.311 Q196.505 489.311 193.334 484.727 Q190.163 480.121 190.163 471.394 Q190.163 463.2 194.051 458.339 Q197.94 453.454 204.491 453.454 Q206.25 453.454 208.033 453.802 Q209.838 454.149 211.783 454.843 Z" fill="#000000" fill-rule="evenodd" fill-opacity="1" /><path clip-path="url(#clip080)" d="M126.783 151.828 Q123.172 151.828 121.343 155.392 Q119.538 158.934 119.538 166.064 Q119.538 173.17 121.343 176.735 Q123.172 180.276 126.783 180.276 Q130.417 180.276 132.223 176.735 Q134.052 173.17 134.052 166.064 Q134.052 158.934 132.223 155.392 Q130.417 151.828 126.783 151.828 M126.783 148.124 Q132.593 148.124 135.649 152.73 Q138.728 157.314 138.728 166.064 Q138.728 174.79 135.649 179.397 Q132.593 183.98 126.783 183.98 Q120.973 183.98 117.894 179.397 Q114.839 174.79 114.839 166.064 Q114.839 157.314 117.894 152.73 Q120.973 148.124 126.783 148.124 Z" fill="#000000" fill-rule="evenodd" fill-opacity="1" /><path clip-path="url(#clip080)" d="M146.945 177.429 L151.829 177.429 L151.829 183.309 L146.945 183.309 L146.945 177.429 Z" fill="#000000" fill-rule="evenodd" fill-opacity="1" /><path clip-path="url(#clip080)" d="M172.014 151.828 Q168.403 151.828 166.575 155.392 Q164.769 158.934 164.769 166.064 Q164.769 173.17 166.575 176.735 Q168.403 180.276 172.014 180.276 Q175.649 180.276 177.454 176.735 Q179.283 173.17 179.283 166.064 Q179.283 158.934 177.454 155.392 Q175.649 151.828 172.014 151.828 M172.014 148.124 Q177.825 148.124 180.88 152.73 Q183.959 157.314 183.959 166.064 Q183.959 174.79 180.88 179.397 Q177.825 183.98 172.014 183.98 Q166.204 183.98 163.126 179.397 Q160.07 174.79 160.07 166.064 Q160.07 157.314 163.126 152.73 Q166.204 148.124 172.014 148.124 Z" fill="#000000" fill-rule="evenodd" fill-opacity="1" /><path clip-path="url(#clip080)" d="M202.176 166.897 Q198.843 166.897 196.922 168.679 Q195.024 170.462 195.024 173.587 Q195.024 176.712 196.922 178.494 Q198.843 180.276 202.176 180.276 Q205.51 180.276 207.431 178.494 Q209.352 176.689 209.352 173.587 Q209.352 170.462 207.431 168.679 Q205.533 166.897 202.176 166.897 M197.5 164.906 Q194.491 164.165 192.801 162.105 Q191.135 160.045 191.135 157.082 Q191.135 152.939 194.075 150.531 Q197.037 148.124 202.176 148.124 Q207.338 148.124 210.278 150.531 Q213.218 152.939 213.218 157.082 Q213.218 160.045 211.528 162.105 Q209.861 164.165 206.875 164.906 Q210.255 165.693 212.13 167.985 Q214.028 170.277 214.028 173.587 Q214.028 178.61 210.949 181.295 Q207.894 183.98 202.176 183.98 Q196.459 183.98 193.38 181.295 Q190.325 178.61 190.325 173.587 Q190.325 170.277 192.223 167.985 Q194.121 165.693 197.5 164.906 M195.787 157.522 Q195.787 160.207 197.454 161.712 Q199.144 163.216 202.176 163.216 Q205.186 163.216 206.875 161.712 Q208.588 160.207 208.588 157.522 Q208.588 154.837 206.875 153.332 Q205.186 151.828 202.176 151.828 Q199.144 151.828 197.454 153.332 Q195.787 154.837 195.787 157.522 Z" fill="#000000" fill-rule="evenodd" fill-opacity="1" /><path clip-path="url(#clip080)" d="M24.8606 806.044 Q26.2777 806.044 27.3404 807.204 Q28.371 808.331 28.371 809.555 Q28.371 810.682 27.6947 811.391 Q26.9862 812.067 25.9878 812.067 Q24.6674 812.067 23.5724 810.94 Q22.4774 809.812 22.4774 808.492 Q22.4774 807.397 23.1537 806.721 Q23.83 806.044 24.8606 806.044 M56.6478 805.465 Q56.9054 805.465 57.936 805.755 Q58.9344 806.044 60.4803 806.753 Q61.994 807.429 63.411 808.363 Q64.8281 809.297 65.8264 810.843 Q66.8248 812.357 66.8248 814.096 Q66.8248 816.447 65.2789 817.993 Q63.7331 819.506 61.4142 819.506 Q60.1582 819.506 56.1325 817.993 Q44.4096 813.613 43.9265 813.452 Q42.0907 812.711 40.4804 812.711 Q39.7397 812.711 39.2888 812.872 Q38.8057 813.033 38.6447 813.355 Q38.4515 813.677 38.4193 813.87 Q38.3871 814.031 38.3871 814.354 Q38.3871 816.254 40.3194 818.025 Q42.2518 819.796 46.5673 821.02 Q47.3725 821.278 47.5657 821.439 Q47.759 821.6 47.759 822.083 Q47.7268 822.888 47.0826 822.888 Q46.8894 822.888 46.1487 822.663 Q45.3757 822.437 44.2163 822.018 Q43.0247 821.6 41.8009 820.859 Q40.5448 820.118 39.4498 819.217 Q38.3548 818.283 37.6463 816.962 Q36.9378 815.642 36.9378 814.16 Q36.9378 811.745 38.5159 810.263 Q40.0618 808.75 42.3484 808.75 Q43.6044 808.75 45.8266 809.619 Q48.7251 810.682 49.6591 811.069 L56.5834 813.645 Q59.0954 814.579 59.8684 814.869 Q60.6091 815.126 61.5109 815.352 Q62.3804 815.545 63.1856 815.545 Q64.3128 815.545 64.8281 815.191 Q65.3434 814.804 65.3434 813.967 Q65.3434 811.648 63.0567 809.941 Q60.7379 808.234 57.1953 807.236 Q57.0987 807.204 56.9376 807.172 Q56.1325 806.914 56.0359 806.656 Q56.0037 806.527 56.0037 806.27 Q56.0037 805.465 56.6478 805.465 Z" fill="#000000" fill-rule="evenodd" fill-opacity="1" /><path clip-path="url(#clip080)" d="M49.5947 794.824 Q38.4515 794.824 29.466 790.669 Q25.6979 788.898 22.5418 786.418 Q19.3856 783.938 18.0007 782.296 Q16.6159 780.653 16.6159 780.202 Q16.6159 779.558 17.26 779.526 Q17.5821 779.526 18.3872 780.395 Q29.2084 791.023 49.5947 790.991 Q70.0454 790.991 80.4479 780.653 Q81.5751 779.526 81.9294 779.526 Q82.5735 779.526 82.5735 780.202 Q82.5735 780.653 81.2531 782.231 Q79.9326 783.809 76.9053 786.257 Q73.8779 788.705 70.1742 790.476 Q61.1888 794.824 49.5947 794.824 Z" fill="#000000" fill-rule="evenodd" fill-opacity="1" /><path clip-path="url(#clip080)" d="M38.3871 754.255 Q39.2888 754.255 39.5143 754.673 Q39.7075 755.092 39.7075 756.252 L39.7075 762.435 L59.1598 767.33 Q60.8667 767.717 62.316 767.717 Q63.9263 767.717 64.6348 767.234 Q65.3434 766.718 65.3434 765.656 Q65.3434 763.562 63.4432 761.308 Q61.5431 759.021 56.9054 757.089 Q56.2935 756.831 56.1647 756.702 Q56.0037 756.541 56.0037 756.123 Q56.0037 755.318 56.6478 755.318 Q56.8732 755.318 57.9038 755.768 Q58.9344 756.187 60.4481 757.121 Q61.9617 758.023 63.3788 759.215 Q64.7959 760.374 65.8264 762.145 Q66.8248 763.917 66.8248 765.817 Q66.8248 768.49 65.1179 770.197 Q63.411 771.871 60.7379 771.871 Q59.8684 771.871 57.0987 771.195 Q54.2967 770.519 39.7075 766.847 L39.7075 772.677 Q39.7075 773.482 39.6753 773.804 Q39.6431 774.094 39.4821 774.319 Q39.2888 774.512 38.9023 774.512 Q38.2904 774.512 38.0328 774.255 Q37.7429 773.997 37.7107 773.675 Q37.6463 773.321 37.6463 772.516 L37.6463 766.332 L27.1794 763.756 Q26.1488 763.498 25.5691 762.854 Q24.9572 762.177 24.8928 761.791 Q24.7962 761.405 24.7962 761.115 Q24.7962 760.245 25.2793 759.73 Q25.7302 759.215 26.5675 759.215 Q27.0184 759.215 37.6463 761.92 L37.6463 756.123 Q37.6463 755.382 37.6785 755.092 Q37.7107 754.77 37.8718 754.512 Q38.0328 754.255 38.3871 754.255 Z" fill="#000000" fill-rule="evenodd" fill-opacity="1" /><path clip-path="url(#clip080)" d="M81.9294 749.091 Q81.6073 749.091 80.8022 748.254 Q69.981 737.626 49.5947 737.626 Q29.144 737.626 18.8059 747.835 Q17.6143 749.091 17.26 749.091 Q16.6159 749.091 16.6159 748.447 Q16.6159 747.996 17.9363 746.418 Q19.2568 744.808 22.2841 742.393 Q25.3115 739.945 29.0151 738.141 Q38.0006 733.794 49.5947 733.794 Q60.7379 733.794 69.7234 737.948 Q73.4914 739.719 76.6476 742.199 Q79.8038 744.679 81.1886 746.322 Q82.5735 747.964 82.5735 748.447 Q82.5735 749.091 81.9294 749.091 Z" fill="#000000" fill-rule="evenodd" fill-opacity="1" /><path clip-path="url(#clip080)" d="M871.976 12.096 L882.994 12.096 L909.811 62.6918 L909.811 12.096 L917.751 12.096 L917.751 72.576 L906.733 72.576 L879.916 21.9802 L879.916 72.576 L871.976 72.576 L871.976 12.096 Z" fill="#000000" fill-rule="evenodd" fill-opacity="1" /><path clip-path="url(#clip080)" d="M932.942 54.671 L932.942 27.2059 L940.396 27.2059 L940.396 54.3874 Q940.396 60.8284 942.907 64.0691 Q945.419 67.2693 950.442 67.2693 Q956.478 67.2693 959.962 63.421 Q963.486 59.5726 963.486 52.9291 L963.486 27.2059 L970.94 27.2059 L970.94 72.576 L963.486 72.576 L963.486 65.6084 Q960.772 69.7404 957.166 71.7658 Q953.602 73.7508 948.862 73.7508 Q941.044 73.7508 936.993 68.8897 Q932.942 64.0286 932.942 54.671 M951.698 26.1121 L951.698 26.1121 Z" fill="#000000" fill-rule="evenodd" fill-opacity="1" /><path clip-path="url(#clip080)" d="M1021.62 35.9153 Q1024.41 30.8922 1028.3 28.5022 Q1032.19 26.1121 1037.46 26.1121 Q1044.54 26.1121 1048.39 31.0947 Q1052.24 36.0368 1052.24 45.1919 L1052.24 72.576 L1044.75 72.576 L1044.75 45.4349 Q1044.75 38.913 1042.44 35.7533 Q1040.13 32.5936 1035.39 32.5936 Q1029.6 32.5936 1026.23 36.4419 Q1022.87 40.2903 1022.87 46.9338 L1022.87 72.576 L1015.38 72.576 L1015.38 45.4349 Q1015.38 38.8725 1013.07 35.7533 Q1010.76 32.5936 1005.94 32.5936 Q1000.23 32.5936 996.865 36.4824 Q993.503 40.3308 993.503 46.9338 L993.503 72.576 L986.009 72.576 L986.009 27.2059 L993.503 27.2059 L993.503 34.2544 Q996.055 30.082 999.62 28.0971 Q1003.18 26.1121 1008.09 26.1121 Q1013.03 26.1121 1016.47 28.6237 Q1019.96 31.1352 1021.62 35.9153 Z" fill="#000000" fill-rule="evenodd" fill-opacity="1" /><path clip-path="url(#clip080)" d="M1099.68 49.9314 Q1099.68 41.7081 1096.27 37.0496 Q1092.91 32.3505 1087 32.3505 Q1081.08 32.3505 1077.68 37.0496 Q1074.32 41.7081 1074.32 49.9314 Q1074.32 58.1548 1077.68 62.8538 Q1081.08 67.5124 1087 67.5124 Q1092.91 67.5124 1096.27 62.8538 Q1099.68 58.1548 1099.68 49.9314 M1074.32 34.0924 Q1076.67 30.0415 1080.23 28.0971 Q1083.84 26.1121 1088.82 26.1121 Q1097.08 26.1121 1102.23 32.6746 Q1107.41 39.2371 1107.41 49.9314 Q1107.41 60.6258 1102.23 67.1883 Q1097.08 73.7508 1088.82 73.7508 Q1083.84 73.7508 1080.23 71.8063 Q1076.67 69.8214 1074.32 65.7705 L1074.32 72.576 L1066.82 72.576 L1066.82 9.54393 L1074.32 9.54393 L1074.32 34.0924 Z" fill="#000000" fill-rule="evenodd" fill-opacity="1" /><path clip-path="url(#clip080)" d="M1158.58 48.0275 L1158.58 51.6733 L1124.31 51.6733 Q1124.79 59.3701 1128.92 63.421 Q1133.1 67.4314 1140.51 67.4314 Q1144.8 67.4314 1148.81 66.3781 Q1152.87 65.3249 1156.84 63.2184 L1156.84 70.267 Q1152.83 71.9684 1148.61 72.8596 Q1144.4 73.7508 1140.06 73.7508 Q1129.21 73.7508 1122.85 67.4314 Q1116.53 61.1119 1116.53 50.3365 Q1116.53 39.1965 1122.52 32.6746 Q1128.56 26.1121 1138.77 26.1121 Q1147.92 26.1121 1153.23 32.0264 Q1158.58 37.9003 1158.58 48.0275 M1151.12 45.84 Q1151.04 39.7232 1147.68 36.0774 Q1144.36 32.4315 1138.85 32.4315 Q1132.61 32.4315 1128.84 35.9558 Q1125.12 39.4801 1124.55 45.8805 L1151.12 45.84 Z" fill="#000000" fill-rule="evenodd" fill-opacity="1" /><path clip-path="url(#clip080)" d="M1197.1 34.1734 Q1195.85 33.4443 1194.35 33.1202 Q1192.89 32.7556 1191.11 32.7556 Q1184.79 32.7556 1181.38 36.8875 Q1178.02 40.9789 1178.02 48.6757 L1178.02 72.576 L1170.53 72.576 L1170.53 27.2059 L1178.02 27.2059 L1178.02 34.2544 Q1180.37 30.1225 1184.14 28.1376 Q1187.91 26.1121 1193.29 26.1121 Q1194.06 26.1121 1195 26.2337 Q1195.93 26.3147 1197.06 26.5172 L1197.1 34.1734 Z" fill="#000000" fill-rule="evenodd" fill-opacity="1" /><path clip-path="url(#clip080)" d="M1248.87 32.4315 Q1242.88 32.4315 1239.39 37.1306 Q1235.91 41.7891 1235.91 49.9314 Q1235.91 58.0738 1239.35 62.7728 Q1242.84 67.4314 1248.87 67.4314 Q1254.83 67.4314 1258.31 62.7323 Q1261.79 58.0333 1261.79 49.9314 Q1261.79 41.8701 1258.31 37.1711 Q1254.83 32.4315 1248.87 32.4315 M1248.87 26.1121 Q1258.59 26.1121 1264.14 32.4315 Q1269.69 38.7509 1269.69 49.9314 Q1269.69 61.0714 1264.14 67.4314 Q1258.59 73.7508 1248.87 73.7508 Q1239.11 73.7508 1233.56 67.4314 Q1228.05 61.0714 1228.05 49.9314 Q1228.05 38.7509 1233.56 32.4315 Q1239.11 26.1121 1248.87 26.1121 Z" fill="#000000" fill-rule="evenodd" fill-opacity="1" /><path clip-path="url(#clip080)" d="M1305.02 9.54393 L1305.02 15.7418 L1297.89 15.7418 Q1293.88 15.7418 1292.3 17.3622 Q1290.76 18.9825 1290.76 23.1955 L1290.76 27.2059 L1303.03 27.2059 L1303.03 32.9987 L1290.76 32.9987 L1290.76 72.576 L1283.26 72.576 L1283.26 32.9987 L1276.13 32.9987 L1276.13 27.2059 L1283.26 27.2059 L1283.26 24.0462 Q1283.26 16.471 1286.79 13.0277 Q1290.31 9.54393 1297.97 9.54393 L1305.02 9.54393 Z" fill="#000000" fill-rule="evenodd" fill-opacity="1" /><path clip-path="url(#clip080)" d="M1337.95 12.096 L1346.13 12.096 L1346.13 72.576 L1337.95 72.576 L1337.95 12.096 Z" fill="#000000" fill-rule="evenodd" fill-opacity="1" /><path clip-path="url(#clip080)" d="M1399.81 45.1919 L1399.81 72.576 L1392.36 72.576 L1392.36 45.4349 Q1392.36 38.994 1389.84 35.7938 Q1387.33 32.5936 1382.31 32.5936 Q1376.27 32.5936 1372.79 36.4419 Q1369.31 40.2903 1369.31 46.9338 L1369.31 72.576 L1361.81 72.576 L1361.81 27.2059 L1369.31 27.2059 L1369.31 34.2544 Q1371.98 30.163 1375.58 28.1376 Q1379.23 26.1121 1383.97 26.1121 Q1391.79 26.1121 1395.8 30.9732 Q1399.81 35.7938 1399.81 45.1919 Z" fill="#000000" fill-rule="evenodd" fill-opacity="1" /><path clip-path="url(#clip080)" d="M1437.64 9.54393 L1437.64 15.7418 L1430.51 15.7418 Q1426.5 15.7418 1424.92 17.3622 Q1423.39 18.9825 1423.39 23.1955 L1423.39 27.2059 L1435.66 27.2059 L1435.66 32.9987 L1423.39 32.9987 L1423.39 72.576 L1415.89 72.576 L1415.89 32.9987 L1408.76 32.9987 L1408.76 27.2059 L1415.89 27.2059 L1415.89 24.0462 Q1415.89 16.471 1419.42 13.0277 Q1422.94 9.54393 1430.6 9.54393 L1437.64 9.54393 Z" fill="#000000" fill-rule="evenodd" fill-opacity="1" /><path clip-path="url(#clip080)" d="M1482.69 48.0275 L1482.69 51.6733 L1448.42 51.6733 Q1448.91 59.3701 1453.04 63.421 Q1457.21 67.4314 1464.62 67.4314 Q1468.92 67.4314 1472.93 66.3781 Q1476.98 65.3249 1480.95 63.2184 L1480.95 70.267 Q1476.94 71.9684 1472.73 72.8596 Q1468.51 73.7508 1464.18 73.7508 Q1453.32 73.7508 1446.96 67.4314 Q1440.64 61.1119 1440.64 50.3365 Q1440.64 39.1965 1446.64 32.6746 Q1452.67 26.1121 1462.88 26.1121 Q1472.04 26.1121 1477.34 32.0264 Q1482.69 37.9003 1482.69 48.0275 M1475.24 45.84 Q1475.16 39.7232 1471.79 36.0774 Q1468.47 32.4315 1462.96 32.4315 Q1456.72 32.4315 1452.96 35.9558 Q1449.23 39.4801 1448.66 45.8805 L1475.24 45.84 Z" fill="#000000" fill-rule="evenodd" fill-opacity="1" /><path clip-path="url(#clip080)" d="M1527.57 28.9478 L1527.57 35.9153 Q1524.41 34.1734 1521.21 33.3227 Q1518.05 32.4315 1514.81 32.4315 Q1507.56 32.4315 1503.55 37.0496 Q1499.54 41.6271 1499.54 49.9314 Q1499.54 58.2358 1503.55 62.8538 Q1507.56 67.4314 1514.81 67.4314 Q1518.05 67.4314 1521.21 66.5807 Q1524.41 65.6895 1527.57 63.9476 L1527.57 70.8341 Q1524.46 72.2924 1521.09 73.0216 Q1517.77 73.7508 1514 73.7508 Q1503.75 73.7508 1497.72 67.3098 Q1491.68 60.8689 1491.68 49.9314 Q1491.68 38.832 1497.76 32.472 Q1503.88 26.1121 1514.49 26.1121 Q1517.93 26.1121 1521.21 26.8413 Q1524.5 27.5299 1527.57 28.9478 Z" fill="#000000" fill-rule="evenodd" fill-opacity="1" /><path clip-path="url(#clip080)" d="M1547.91 14.324 L1547.91 27.2059 L1563.26 27.2059 L1563.26 32.9987 L1547.91 32.9987 L1547.91 57.6282 Q1547.91 63.1779 1549.41 64.7578 Q1550.95 66.3376 1555.61 66.3376 L1563.26 66.3376 L1563.26 72.576 L1555.61 72.576 Q1546.98 72.576 1543.7 69.3758 Q1540.42 66.1351 1540.42 57.6282 L1540.42 32.9987 L1534.95 32.9987 L1534.95 27.2059 L1540.42 27.2059 L1540.42 14.324 L1547.91 14.324 Z" fill="#000000" fill-rule="evenodd" fill-opacity="1" /><path clip-path="url(#clip080)" d="M1573.07 27.2059 L1580.52 27.2059 L1580.52 72.576 L1573.07 72.576 L1573.07 27.2059 M1573.07 9.54393 L1580.52 9.54393 L1580.52 18.9825 L1573.07 18.9825 L1573.07 9.54393 Z" fill="#000000" fill-rule="evenodd" fill-opacity="1" /><path clip-path="url(#clip080)" d="M1613.7 32.4315 Q1607.7 32.4315 1604.22 37.1306 Q1600.73 41.7891 1600.73 49.9314 Q1600.73 58.0738 1604.18 62.7728 Q1607.66 67.4314 1613.7 67.4314 Q1619.65 67.4314 1623.14 62.7323 Q1626.62 58.0333 1626.62 49.9314 Q1626.62 41.8701 1623.14 37.1711 Q1619.65 32.4315 1613.7 32.4315 M1613.7 26.1121 Q1623.42 26.1121 1628.97 32.4315 Q1634.52 38.7509 1634.52 49.9314 Q1634.52 61.0714 1628.97 67.4314 Q1623.42 73.7508 1613.7 73.7508 Q1603.93 73.7508 1598.38 67.4314 Q1592.87 61.0714 1592.87 49.9314 Q1592.87 38.7509 1598.38 32.4315 Q1603.93 26.1121 1613.7 26.1121 Z" fill="#000000" fill-rule="evenodd" fill-opacity="1" /><path clip-path="url(#clip080)" d="M1684.59 45.1919 L1684.59 72.576 L1677.13 72.576 L1677.13 45.4349 Q1677.13 38.994 1674.62 35.7938 Q1672.11 32.5936 1667.09 32.5936 Q1661.05 32.5936 1657.57 36.4419 Q1654.08 40.2903 1654.08 46.9338 L1654.08 72.576 L1646.59 72.576 L1646.59 27.2059 L1654.08 27.2059 L1654.08 34.2544 Q1656.76 30.163 1660.36 28.1376 Q1664.01 26.1121 1668.75 26.1121 Q1676.57 26.1121 1680.58 30.9732 Q1684.59 35.7938 1684.59 45.1919 Z" fill="#000000" fill-rule="evenodd" fill-opacity="1" /><path clip-path="url(#clip080)" d="M1728.38 28.5427 L1728.38 35.5912 Q1725.22 33.9709 1721.82 33.1607 Q1718.41 32.3505 1714.77 32.3505 Q1709.22 32.3505 1706.42 34.0519 Q1703.67 35.7533 1703.67 39.156 Q1703.67 41.7486 1705.65 43.2475 Q1707.64 44.7058 1713.63 46.0426 L1716.18 46.6097 Q1724.12 48.3111 1727.45 51.4303 Q1730.81 54.509 1730.81 60.0587 Q1730.81 66.3781 1725.79 70.0644 Q1720.8 73.7508 1712.05 73.7508 Q1708.41 73.7508 1704.44 73.0216 Q1700.51 72.3329 1696.13 70.9151 L1696.13 63.2184 Q1700.26 65.3654 1704.27 66.4591 Q1708.29 67.5124 1712.21 67.5124 Q1717.48 67.5124 1720.32 65.73 Q1723.15 63.9071 1723.15 60.6258 Q1723.15 57.5877 1721.09 55.9673 Q1719.06 54.3469 1712.13 52.8481 L1709.54 52.2405 Q1702.61 50.7821 1699.54 47.7845 Q1696.46 44.7463 1696.46 39.4801 Q1696.46 33.0797 1700.99 29.5959 Q1705.53 26.1121 1713.88 26.1121 Q1718.01 26.1121 1721.65 26.7198 Q1725.3 27.3274 1728.38 28.5427 Z" fill="#000000" fill-rule="evenodd" fill-opacity="1" /><polyline clip-path="url(#clip082)" style="stroke:#009af9; stroke-linecap:round; stroke-linejoin:round; stroke-width:4; stroke-opacity:1; fill:none" points="
  250.028,1386.19 250.085,1386.19 250.098,1386.19 250.113,1386.2 250.131,1386.2 250.15,1386.2 250.171,1386.2 250.196,1386.2 250.223,1386.2 250.254,1386.2 
  250.289,1386.2 250.328,1386.2 250.372,1386.2 250.421,1386.2 250.477,1386.2 250.54,1386.2 250.61,1386.2 250.689,1386.2 250.778,1386.2 250.878,1386.2 
  250.991,1386.2 251.118,1386.2 251.261,1386.2 251.421,1386.21 251.602,1386.21 251.805,1386.21 252.031,1386.21 252.276,1386.21 252.54,1386.21 252.823,1386.22 
  253.121,1386.22 253.436,1386.22 253.764,1386.22 254.103,1386.23 254.454,1386.23 254.813,1386.23 255.182,1386.23 255.556,1386.24 255.937,1386.24 256.323,1386.24 
  256.714,1386.24 257.11,1386.25 257.514,1386.25 257.925,1386.25 258.34,1386.26 258.755,1386.26 259.174,1386.26 259.599,1386.26 260.031,1386.27 260.47,1386.27 
  260.916,1386.27 261.371,1386.27 261.832,1386.28 262.295,1386.28 262.76,1386.28 263.233,1386.28 263.713,1386.29 264.201,1386.29 264.694,1386.29 265.195,1386.29 
  265.703,1386.29 266.218,1386.3 266.739,1386.3 267.261,1386.3 267.787,1386.3 268.315,1386.31 268.848,1386.31 269.378,1386.31 269.905,1386.31 270.437,1386.31 
  270.973,1386.32 271.51,1386.32 272.051,1386.32 272.591,1386.32 273.13,1386.33 273.67,1386.33 274.214,1386.33 274.761,1386.33 275.312,1386.33 275.866,1386.34 
  276.422,1386.34 276.979,1386.34 277.537,1386.34 278.095,1386.35 278.652,1386.35 279.21,1386.35 279.774,1386.35 280.344,1386.35 280.918,1386.36 281.491,1386.36 
  282.069,1386.36 282.657,1386.36 283.253,1386.36 283.845,1386.36 284.432,1386.37 285.018,1386.37 285.606,1386.37 286.196,1386.37 286.79,1386.37 287.389,1386.38 
  288,1386.38 288.62,1386.38 289.253,1386.38 289.893,1386.38 290.543,1386.38 291.198,1386.38 291.858,1386.39 292.525,1386.39 293.198,1386.39 293.873,1386.39 
  294.557,1386.39 295.258,1386.39 295.974,1386.39 296.705,1386.39 297.447,1386.39 298.204,1386.39 298.974,1386.39 299.763,1386.39 300.574,1386.4 301.402,1386.4 
  302.232,1386.4 303.08,1386.4 303.936,1386.4 304.816,1386.4 305.71,1386.39 306.625,1386.39 307.552,1386.39 308.533,1386.39 309.561,1386.39 310.625,1386.39 
  311.718,1386.39 312.867,1386.38 314.061,1386.38 315.282,1386.38 316.522,1386.38 317.771,1386.37 319.046,1386.37 320.366,1386.37 321.724,1386.36 323.091,1386.36 
  324.472,1386.35 325.9,1386.35 327.314,1386.35 328.758,1386.34 330.268,1386.34 331.812,1386.33 333.415,1386.32 335.08,1386.32 336.831,1386.31 338.686,1386.3 
  340.633,1386.29 342.622,1386.28 344.664,1386.27 346.899,1386.26 349.335,1386.24 351.958,1386.22 354.62,1386.21 357.276,1386.19 359.877,1386.17 362.586,1386.16 
  365.196,1386.14 367.929,1386.12 370.729,1386.1 373.775,1386.08 377.131,1386.05 380.769,1386.02 384.861,1385.98 388.671,1385.94 392.745,1385.9 397.063,1385.86 
  401.718,1385.81 406.745,1385.76 411.456,1385.71 416.084,1385.66 420.953,1385.59 426.43,1385.51 432.592,1385.42 439.524,1385.31 446.636,1385.21 453.68,1385.09 
  460.37,1384.98 467.387,1384.86 473.644,1384.74 480.684,1384.62 486.741,1384.5 492.579,1384.37 499.146,1384.21 506.534,1384.02 514.845,1383.77 524.196,1383.47 
  534.715,1383.11 546.549,1382.7 554.647,1382.4 563.756,1382.09 570.777,1381.85 576.9,1381.62 583.395,1381.36 589.607,1381.11 595.839,1380.86 601.333,1380.64 
  606.529,1380.41 611.632,1380.21 616.237,1380.04 620.304,1379.88 624.13,1379.75 627.618,1379.62 631.015,1379.48 634.25,1379.34 637.693,1379.19 640.997,1379.04 
  644.318,1378.88 647.574,1378.71 651.145,1378.51 654.971,1378.3 658.725,1378.12 661.889,1377.95 665.394,1377.76 668.974,1377.57 672.189,1377.41 675.447,1377.27 
  678.216,1377.16 680.88,1377.05 683.465,1376.93 686.07,1376.8 688.67,1376.66 691.39,1376.51 694.07,1376.36 696.779,1376.2 699.524,1376.03 702.41,1375.85 
  705.328,1375.64 708.549,1375.42 711.772,1375.18 715.112,1374.93 718.548,1374.66 722.251,1374.39 725.77,1374.11 729.202,1373.86 732.667,1373.61 735.892,1373.39 
  738.952,1373.18 741.876,1373.01 744.659,1372.85 747.217,1372.71 749.644,1372.58 751.98,1372.45 754.263,1372.33 756.406,1372.21 758.552,1372.08 760.701,1371.93 
  762.965,1371.76 765.3,1371.6 767.561,1371.43 769.866,1371.24 772.341,1371.04 774.838,1370.85 777.266,1370.64 779.796,1370.4 782.531,1370.13 785.465,1369.81 
  788.603,1369.52 791.474,1369.26 794.292,1368.98 797.272,1368.64 800.567,1368.29 803.782,1367.95 806.941,1367.6 810.127,1367.24 813.423,1366.88 816.64,1366.54 
  819.642,1366.19 822.867,1365.82 825.945,1365.44 829.224,1365 832.756,1364.53 836.15,1364.07 839.586,1363.57 843.158,1363.01 847.065,1362.37 851.234,1361.6 
  855.923,1360.67 861.199,1359.56 867.134,1358.21 873.811,1356.64 881.322,1354.89 887.881,1353.38 894.057,1351.88 900.423,1350.27 906.875,1348.83 912.383,1347.69 
  917.091,1346.71 921.475,1345.84 925.463,1344.9 929.574,1343.97 933.619,1343.07 937.161,1342.21 940.819,1341.27 944.516,1340.18 948.628,1339.04 952.413,1337.9 
  956.358,1336.78 960.09,1335.72 963.807,1334.63 967.348,1333.38 971.33,1331.72 975.811,1329.73 980.852,1327.21 986.523,1324.25 992.903,1320.52 1000.08,1316.23 
  1007.91,1310.9 1015.62,1305.24 1022.72,1300.23 1030.72,1293.9 1039.7,1284.69 1045.38,1278.02 1050.58,1271.17 1055.47,1264.42 1060.04,1257.68 1064.23,1251.22 
  1068.37,1244.58 1072.48,1237.44 1076.19,1231.32 1080.17,1224.96 1084.65,1217.48 1089.26,1209.59 1093.69,1202.22 1098.67,1193.92 1104.07,1185.27 1110.15,1175.08 
  1116.95,1164.44 1123.98,1153.64 1130.99,1144.62 1136.37,1136.74 1142.07,1127.29 1148.15,1116.78 1154.7,1106.36 1160.57,1095.93 1166.6,1085.07 1172.81,1074.62 
  1178.15,1064.48 1183.95,1053.87 1189.46,1042.89 1195.17,1031.14 1200.77,1016.6 1207.07,998.734 1213.18,981.124 1219.4,962.042 1225.62,943.043 1231.75,925.701 
  1237.97,908.398 1243.92,893.077 1249.65,876.252 1255.42,857.631 1261.23,839.153 1266.92,819.362 1272.52,797.962 1277.81,777.506 1283.05,758.305 1288.2,740.239 
  1293.29,721.812 1298.28,704.323 1303.18,687.164 1307.98,670.511 1312.68,653.246 1317.31,636.201 1321.85,621.625 1326.3,606.966 1330.65,594.184 1334.84,580.889 
  1339.01,567.145 1343.11,553.012 1347.2,537.444 1351.23,521.826 1355.18,505.463 1359.07,491.014 1362.91,478.875 1366.73,467.965 1370.48,458.659 1374.13,449.71 
  1377.7,439.092 1381.34,427.829 1384.94,415.724 1388.52,403.436 1392.06,390.471 1395.56,375.518 1398.9,362.059 1402.2,349.752 1405.53,338.205 1408.84,326.352 
  1412.1,315.667 1415.33,307.502 1418.62,300.368 1421.87,292.926 1425.12,285.177 1428.37,276.81 1431.6,267.888 1434.82,258.472 1437.98,249.102 1441.11,240.578 
  1444.25,231.992 1447.33,224.135 1450.4,216.192 1453.47,208.77 1456.5,200.439 1459.48,192.372 1462.37,185.222 1465.3,178.594 1468.21,173.653 1471.17,170.976 
  1474.17,168.874 1477.18,169.054 1480.16,168.37 1483.16,167.346 1486.19,165.135 1489.24,163.621 1492.29,163.36 1495.36,161.403 1498.43,160.256 1501.49,160.752 
  1504.59,161.784 1507.7,164.717 1510.79,168.832 1513.8,173.74 1516.79,179.724 1519.71,186.229 1522.54,191.915 1525.42,197.87 1528.32,205.446 1531.07,212.549 
  1533.82,220.254 1536.49,228.428 1539.08,235.255 1541.76,243.181 1544.37,250.475 1546.99,257.203 1549.71,264.971 1552.34,272.296 1555.04,280.347 1557.71,288.822 
  1560.37,297.499 1562.93,305.772 1565.54,313.506 1568.22,321.376 1570.96,330.7 1573.61,340.121 1576.17,349.247 1578.69,358.551 1581.13,367.255 1583.59,375.266 
  1586.17,383.297 1588.8,391.362 1591.51,399.299 1594.35,407.807 1597.19,416.62 1600.05,425.385 1602.99,434.293 1605.99,443.169 1609.04,452.17 1612.14,460.671 
  1615.45,469.857 1618.8,479.613 1622.25,492.139 1625.3,503.588 1628.16,515.043 1630.8,525.333 1633.4,535.329 1635.96,544.992 1638.46,554.483 1640.88,563.315 
  1643.38,572.429 1645.85,581.646 1648.23,590.458 1650.6,599.181 1653,607.86 1655.35,616.151 1657.78,624.761 1660.16,633.429 1662.47,641.291 1664.86,649.456 
  1667.25,657.467 1669.71,665.545 1672.21,673.556 1674.78,681.203 1677.54,689.127 1680.48,697.42 1683.58,706.554 1686.71,715.78 1689.69,723.796 1693.04,732.426 
  1696.49,740.83 1700.37,749.602 1704.59,758.937 1709.25,768.748 1714.19,779.16 1719.47,792.14 1724.59,805.342 1729.18,815.956 1734.35,827.416 1740.08,841.646 
  1745.17,854.391 1749.77,865.352 1754.72,876.898 1759.67,888.639 1764.5,899.295 1769.64,909.85 1775.34,921.558 1781.16,933.22 1787.27,945.419 1793.62,958.538 
  1799.2,969.394 1805.28,980.805 1811.5,992.198 1818.5,1005.3 1824.13,1014.85 1830.48,1024.71 1837.61,1035.42 1845.52,1048.17 1853.41,1060.13 1862.28,1073.41 
  1870.45,1084.11 1879.65,1094.53 1887.39,1102.27 1893.71,1109.31 1900.62,1117.6 1908.39,1127.14 1917.13,1137.7 1926.25,1148.26 1935.66,1159.3 1945.81,1170.99 
  1954.46,1180.62 1963.56,1190.42 1972.77,1200.1 1979.69,1206.84 1987.47,1214.58 1993.45,1220.75 1998.47,1225.67 2003.36,1230.35 2008.33,1234.86 2013.03,1238.87 
  2018.3,1243.01 2023.85,1246.98 2030.1,1251.45 2037.12,1256.24 2044.77,1261.39 2053.37,1267.05 2060.53,1271.25 2068.59,1275.95 2077.66,1281.59 2082.85,1284.74 
  2088.69,1288.17 2093.91,1291.09 2099.49,1293.9 2105.77,1296.71 2112.84,1299.36 2117.29,1300.82 2121.46,1302.15 2125.37,1303.49 2129.65,1304.97 2134.38,1306.65 
  2139.12,1308.37 2144.46,1310.3 2150.46,1312.48 2157.22,1315.02 2164.82,1317.83 2173.37,1320.54 2180.56,1322.99 2188.65,1325.62 2197.75,1328.37 2207.9,1331.29 
  2219.32,1334.4 2228.87,1337.02 2239.6,1339.73 2251.69,1342.44 2263.91,1344.98 2272.32,1346.75 2281.78,1348.67 2292.43,1350.84 2301.36,1352.8 2306.81,1353.95 
  2312.31,1355.06 2317.64,1356.08 2323.29,1357.05 2329.65,1358.03 2336.81,1359.12 2344.86,1360.25 2352.76,1361.29 
  "/>
<polyline clip-path="url(#clip082)" style="stroke:#e26f46; stroke-linecap:round; stroke-linejoin:round; stroke-width:4; stroke-opacity:1; fill:none" points="
  250.028,1386.19 250.085,1386.19 250.098,1386.19 250.113,1386.2 250.13,1386.2 250.15,1386.2 250.171,1386.2 250.196,1386.2 250.223,1386.2 250.254,1386.2 
  250.289,1386.2 250.328,1386.2 250.371,1386.2 250.421,1386.2 250.476,1386.2 250.539,1386.2 250.609,1386.2 250.688,1386.2 250.777,1386.2 250.877,1386.2 
  250.99,1386.2 251.116,1386.2 251.259,1386.2 251.419,1386.21 251.599,1386.21 251.802,1386.21 252.027,1386.21 252.271,1386.21 252.535,1386.21 252.815,1386.22 
  253.112,1386.22 253.423,1386.22 253.746,1386.22 254.083,1386.23 254.432,1386.23 254.791,1386.23 255.157,1386.23 255.531,1386.24 255.914,1386.24 256.303,1386.24 
  256.7,1386.24 257.103,1386.25 257.514,1386.25 257.931,1386.25 258.352,1386.25 258.777,1386.26 259.205,1386.26 259.638,1386.26 260.076,1386.27 260.52,1386.27 
  260.969,1386.27 261.424,1386.27 261.887,1386.28 262.356,1386.28 262.832,1386.28 263.315,1386.28 263.804,1386.28 264.297,1386.29 264.798,1386.29 265.309,1386.29 
  265.827,1386.29 266.352,1386.3 266.881,1386.3 267.412,1386.3 267.943,1386.3 268.471,1386.31 268.998,1386.31 269.525,1386.31 270.056,1386.31 270.591,1386.31 
  271.132,1386.32 271.676,1386.32 272.225,1386.32 272.78,1386.32 273.34,1386.32 273.907,1386.33 274.483,1386.33 275.071,1386.33 275.668,1386.33 276.274,1386.33 
  276.884,1386.33 277.509,1386.34 278.143,1386.34 278.786,1386.34 279.438,1386.34 280.102,1386.34 280.781,1386.34 281.477,1386.34 282.185,1386.34 282.908,1386.34 
  283.647,1386.35 284.42,1386.35 285.219,1386.35 286.033,1386.35 286.881,1386.35 287.744,1386.34 288.631,1386.34 289.543,1386.34 290.477,1386.34 291.431,1386.34 
  292.406,1386.34 293.399,1386.34 294.402,1386.34 295.418,1386.34 296.442,1386.34 297.489,1386.34 298.53,1386.34 299.573,1386.33 300.637,1386.33 301.717,1386.33 
  302.783,1386.33 303.863,1386.33 304.96,1386.33 306.052,1386.33 307.158,1386.33 308.269,1386.32 309.397,1386.32 310.537,1386.32 311.697,1386.32 312.856,1386.32 
  314.036,1386.31 315.195,1386.31 316.356,1386.31 317.535,1386.31 318.717,1386.31 319.904,1386.3 321.095,1386.3 322.304,1386.3 323.551,1386.3 324.814,1386.29 
  326.073,1386.29 327.36,1386.29 328.648,1386.29 329.933,1386.28 331.213,1386.28 332.515,1386.28 333.821,1386.27 335.159,1386.27 336.545,1386.26 337.982,1386.26 
  339.44,1386.25 340.965,1386.25 342.55,1386.24 344.163,1386.24 345.847,1386.23 347.544,1386.22 349.288,1386.21 351.12,1386.2 353.01,1386.19 354.992,1386.18 
  356.99,1386.17 358.916,1386.16 360.827,1386.16 362.771,1386.15 364.724,1386.14 366.632,1386.13 368.605,1386.12 370.65,1386.1 372.84,1386.09 375.152,1386.07 
  377.574,1386.06 380.098,1386.04 382.573,1386.02 385.174,1386.01 387.82,1385.99 390.514,1385.97 393.119,1385.95 395.856,1385.93 398.59,1385.91 401.45,1385.88 
  404.667,1385.85 407.813,1385.82 411.125,1385.79 414.555,1385.76 418.136,1385.72 421.879,1385.67 426.09,1385.62 430.623,1385.56 435.723,1385.5 440.7,1385.42 
  446.3,1385.32 452.6,1385.2 458.349,1385.1 464.818,1384.97 472.095,1384.83 476.703,1384.74 481.684,1384.63 487.288,1384.5 493.006,1384.35 499.439,1384.15 
  503.587,1384 507.621,1383.84 511.618,1383.67 515.283,1383.51 519.103,1383.34 523.117,1383.16 527.279,1382.98 531.962,1382.77 537.23,1382.52 542.69,1382.25 
  548.834,1381.94 555.304,1381.59 562.584,1381.19 570.208,1380.7 578.249,1380.19 586.552,1379.65 595.894,1379.09 601.427,1378.78 605.909,1378.53 610.723,1378.23 
  615.647,1377.89 621.185,1377.48 627.416,1376.96 634.426,1376.28 642.313,1375.41 648.21,1374.67 653.829,1373.95 659.773,1373.2 666.46,1372.34 673.984,1371.28 
  682.447,1369.82 688.756,1368.64 695.06,1367.28 700.702,1365.93 705.898,1364.58 710.728,1363.27 715.494,1361.85 719.907,1360.48 724.254,1359.13 728.659,1357.74 
  733.476,1356.37 738.895,1354.87 744.992,1353.33 749.999,1352.06 754.416,1350.78 759.386,1349.3 764.977,1347.33 771.266,1345.02 778.342,1342.31 786.303,1339.02 
  794.745,1335.39 804.244,1330.16 811.228,1326.21 818.742,1322.08 827.195,1317.6 836.327,1312.47 846.018,1306.12 856.92,1297.77 866.917,1288.32 874.996,1280.2 
  883.002,1271.98 892.008,1261.72 900.627,1251.64 910.322,1238.82 918.664,1227.7 927.91,1216.49 938.166,1204.24 946.504,1194.23 954.812,1183.98 962.038,1174.73 
  969.674,1164.15 976.728,1153.33 984.377,1140.71 991.893,1126.3 1000.35,1109.54 1008.69,1092.72 1016.9,1074.79 1025.24,1054.64 1033.54,1034.63 1041.65,1017.03 
  1048.63,1000.55 1055.99,984.236 1062.53,970.066 1068.68,957.394 1074.22,946.005 1079.48,933.548 1084.85,919.363 1090.63,906.015 1095.87,894.164 1100.61,879.591 
  1105.94,863.225 1111.21,847.617 1116.46,831.073 1121.69,813.955 1126.93,797.522 1132.1,781.204 1137.2,765.387 1142.19,747.101 1147.19,728.287 1152.08,710.177 
  1156.91,692.732 1161.65,677.23 1166.3,662.195 1170.87,646.734 1175.39,631.723 1179.84,615.164 1184.23,598.283 1188.52,580.555 1192.68,564.97 1196.86,549.902 
  1200.94,534.529 1204.98,519.186 1208.95,501.068 1212.69,481.924 1216.23,464.403 1219.66,447.127 1223.04,429.458 1226.24,412.416 1229.36,395.657 1232.37,379.045 
  1235.31,364.811 1238.24,354.486 1241.38,343.147 1244.48,332.684 1247.63,321.997 1250.76,312.374 1253.91,303.211 1257.07,294.152 1260.23,284.885 1263.38,277.369 
  1266.54,270 1269.68,262.828 1272.82,257.522 1275.94,254.701 1278.94,251.67 1281.94,247.114 1284.99,242.855 1288.05,238.143 1291.1,233.588 1294.19,229.692 
  1297.26,226.725 1300.31,223.864 1303.37,221.649 1306.41,219.727 1309.45,218.68 1312.46,218.204 1315.46,218.258 1318.41,218.707 1321.35,219.222 1324.29,217.907 
  1327.31,214.445 1330.37,208.897 1333.38,204.27 1336.36,199.764 1339.37,195.604 1342.4,192.842 1345.44,191.48 1348.53,189.493 1351.63,187.535 1354.71,185.672 
  1357.81,183.628 1360.89,181.38 1363.94,180.209 1367.02,178.798 1370.08,177.448 1373.12,176.573 1376.18,176.371 1379.27,176.787 1382.34,176.813 1385.42,178.334 
  1388.55,180.74 1391.71,183.962 1394.9,187.27 1398.12,190.144 1401.32,193.552 1404.57,197.555 1407.84,202.72 1411.14,208.797 1414.48,215.642 1417.83,224.341 
  1421.15,233.732 1424.44,244.003 1427.69,255.706 1430.74,267.905 1433.61,279.495 1436.36,290.426 1439.13,301.649 1441.82,312.255 1444.51,321.503 1447.37,330.537 
  1450.4,339.516 1453.54,347.027 1456.88,355.011 1460.32,362.512 1463.84,371.428 1467.48,381.254 1471.19,391.995 1474.98,402.345 1478.83,412.189 1482.79,423.13 
  1486.82,434.966 1490.89,446.496 1495.06,457.334 1499.29,468.879 1503.6,480.275 1507.97,493.615 1512.44,508.968 1516.77,521.696 1521.37,534.68 1526.03,546.597 
  1530.69,559.008 1535.32,571.038 1540.12,583.97 1544.91,597.006 1549.88,610.405 1554.89,622.577 1559.65,633.299 1564.15,642.154 1568.44,649.626 1572.24,655.898 
  1575.8,662.365 1579.3,669.168 1582.76,676.502 1586.25,684.584 1589.94,693.255 1593.69,702.807 1597.76,713.366 1602.07,723.828 1606.27,733.761 1610.33,743.058 
  1614.5,751.999 1618.39,759.123 1621.93,765.322 1625.22,771.552 1628.49,777.539 1631.74,783.272 1634.73,787.918 1637.54,792.661 1640.32,797.464 1643.09,802.299 
  1645.79,806.986 1648.44,811.886 1651.14,817.079 1653.86,822.661 1656.76,828.703 1659.71,835.05 1662.83,841.629 1665.99,848.011 1669.01,854.702 1672.41,862.518 
  1676.01,870.595 1679.82,879.304 1683.91,887.9 1687.56,895.638 1691.49,903.727 1695.28,912.12 1699.48,921.225 1703.87,929.88 1707.87,937.846 1711.89,945.993 
  1716.08,953.951 1720.15,960.979 1723.77,966.987 1727.13,972.637 1730.55,978.534 1733.88,984.367 1737.35,990.345 1740.65,996.349 1744.25,1002.9 1748.01,1009.7 
  1751.75,1016.8 1755.95,1024.61 1760.48,1032.9 1765.13,1041.12 1769.75,1048.88 1774.3,1055.9 1778.64,1062.4 1782.56,1068.05 1786.44,1073.61 1790.11,1078.91 
  1793.85,1084.15 1797.42,1089.25 1801.12,1094.28 1804.62,1098.92 1807.99,1103.29 1811.34,1107.74 1814.68,1112.24 1818.24,1116.84 1821.7,1121.44 1825.18,1126.12 
  1828.92,1131.03 1832.76,1135.78 1836.34,1140.26 1840.09,1145.24 1844.31,1151.12 1849.06,1157.75 1854.4,1165.11 1860.41,1173.38 1867.17,1182.24 1874.78,1191.9 
  1883.34,1202.28 1892.96,1213.64 1901.54,1222.5 1911.19,1231.73 1919.21,1239.02 1928.23,1246.21 1935.09,1251.35 1941.16,1255.97 1947.91,1261.14 1955.32,1266.53 
  1962.38,1271.87 1970.31,1277.76 1979.24,1284.11 1987.05,1289.32 1995.83,1294.85 2005.71,1300.62 2016.34,1306.66 2027.9,1312.78 2036.62,1317.19 2045.78,1321.61 
  2054.23,1325.34 2062.74,1328.7 2072.32,1331.88 2079.38,1334.13 2086.1,1336.24 2093.66,1338.58 2102.16,1341.12 2111.72,1343.68 2117.99,1345.27 2124.57,1346.9 
  2131.51,1348.56 2139.23,1350.27 2145.89,1351.77 2153.38,1353.35 2161.2,1354.92 2169.54,1356.59 2178.93,1358.33 2189.49,1360.42 2201.37,1362.57 2209.47,1363.9 
  2218.58,1365.35 2225.25,1366.35 2232.74,1367.42 2239.65,1368.34 2247.41,1369.28 2256.15,1370.24 2264.18,1371.08 2272.38,1371.9 2281.57,1372.7 2288.75,1373.3 
  2295.03,1373.86 2302.09,1374.48 2310.03,1375.15 2318.96,1375.9 2325.39,1376.4 2331.75,1376.87 2338.9,1377.39 2345.78,1377.85 2352.58,1378.3 2352.76,1378.31 
  
  "/>
<path clip-path="url(#clip080)" d="
M1797.32 322.316 L2282.66 322.316 L2282.66 166.796 L1797.32 166.796  Z
  " fill="#ffffff" fill-rule="evenodd" fill-opacity="1"/>
<polyline clip-path="url(#clip080)" style="stroke:#000000; stroke-linecap:round; stroke-linejoin:round; stroke-width:4; stroke-opacity:1; fill:none" points="
  1797.32,322.316 2282.66,322.316 2282.66,166.796 1797.32,166.796 1797.32,322.316 
  "/>
<polyline clip-path="url(#clip080)" style="stroke:#009af9; stroke-linecap:round; stroke-linejoin:round; stroke-width:4; stroke-opacity:1; fill:none" points="
  1820.69,218.636 1960.87,218.636 
  "/>
<path clip-path="url(#clip080)" d="M1984.23 201.356 L2013.47 201.356 L2013.47 205.291 L2001.2 205.291 L2001.2 235.916 L1996.5 235.916 L1996.5 205.291 L1984.23 205.291 L1984.23 201.356 Z" fill="#000000" fill-rule="evenodd" fill-opacity="1" /><path clip-path="url(#clip080)" d="M2025.85 213.971 Q2025.14 213.555 2024.28 213.37 Q2023.45 213.161 2022.43 213.161 Q2018.82 213.161 2016.87 215.522 Q2014.95 217.86 2014.95 222.258 L2014.95 235.916 L2010.67 235.916 L2010.67 209.99 L2014.95 209.99 L2014.95 214.018 Q2016.29 211.657 2018.45 210.522 Q2020.6 209.365 2023.68 209.365 Q2024.12 209.365 2024.65 209.434 Q2025.18 209.481 2025.83 209.596 L2025.85 213.971 Z" fill="#000000" fill-rule="evenodd" fill-opacity="1" /><path clip-path="url(#clip080)" d="M2042.1 222.883 Q2036.94 222.883 2034.95 224.064 Q2032.96 225.244 2032.96 228.092 Q2032.96 230.36 2034.44 231.703 Q2035.95 233.022 2038.52 233.022 Q2042.06 233.022 2044.19 230.522 Q2046.34 227.999 2046.34 223.832 L2046.34 222.883 L2042.1 222.883 M2050.6 221.124 L2050.6 235.916 L2046.34 235.916 L2046.34 231.981 Q2044.88 234.342 2042.71 235.476 Q2040.53 236.587 2037.38 236.587 Q2033.4 236.587 2031.04 234.365 Q2028.7 232.119 2028.7 228.369 Q2028.7 223.994 2031.62 221.772 Q2034.56 219.55 2040.37 219.55 L2046.34 219.55 L2046.34 219.133 Q2046.34 216.194 2044.4 214.596 Q2042.47 212.976 2038.98 212.976 Q2036.76 212.976 2034.65 213.508 Q2032.54 214.041 2030.6 215.106 L2030.6 211.17 Q2032.94 210.268 2035.14 209.828 Q2037.33 209.365 2039.42 209.365 Q2045.04 209.365 2047.82 212.282 Q2050.6 215.198 2050.6 221.124 Z" fill="#000000" fill-rule="evenodd" fill-opacity="1" /><path clip-path="url(#clip080)" d="M2059.37 209.99 L2063.63 209.99 L2063.63 236.379 Q2063.63 241.332 2061.73 243.555 Q2059.86 245.777 2055.67 245.777 L2054.05 245.777 L2054.05 242.166 L2055.18 242.166 Q2057.61 242.166 2058.49 241.031 Q2059.37 239.92 2059.37 236.379 L2059.37 209.99 M2059.37 199.897 L2063.63 199.897 L2063.63 205.291 L2059.37 205.291 L2059.37 199.897 Z" fill="#000000" fill-rule="evenodd" fill-opacity="1" /><path clip-path="url(#clip080)" d="M2094.72 221.888 L2094.72 223.971 L2075.14 223.971 Q2075.41 228.369 2077.77 230.684 Q2080.16 232.976 2084.39 232.976 Q2086.85 232.976 2089.14 232.374 Q2091.46 231.772 2093.72 230.569 L2093.72 234.596 Q2091.43 235.568 2089.02 236.078 Q2086.62 236.587 2084.14 236.587 Q2077.94 236.587 2074.3 232.976 Q2070.69 229.365 2070.69 223.207 Q2070.69 216.842 2074.12 213.115 Q2077.57 209.365 2083.4 209.365 Q2088.63 209.365 2091.66 212.745 Q2094.72 216.101 2094.72 221.888 M2090.46 220.638 Q2090.41 217.143 2088.49 215.059 Q2086.59 212.976 2083.45 212.976 Q2079.88 212.976 2077.73 214.99 Q2075.6 217.004 2075.27 220.661 L2090.46 220.638 Z" fill="#000000" fill-rule="evenodd" fill-opacity="1" /><path clip-path="url(#clip080)" d="M2120.37 210.985 L2120.37 214.967 Q2118.56 213.971 2116.73 213.485 Q2114.93 212.976 2113.08 212.976 Q2108.93 212.976 2106.64 215.615 Q2104.35 218.231 2104.35 222.976 Q2104.35 227.721 2106.64 230.36 Q2108.93 232.976 2113.08 232.976 Q2114.93 232.976 2116.73 232.49 Q2118.56 231.981 2120.37 230.985 L2120.37 234.92 Q2118.58 235.754 2116.66 236.17 Q2114.77 236.587 2112.61 236.587 Q2106.76 236.587 2103.31 232.906 Q2099.86 229.226 2099.86 222.976 Q2099.86 216.633 2103.33 212.999 Q2106.83 209.365 2112.89 209.365 Q2114.86 209.365 2116.73 209.782 Q2118.61 210.175 2120.37 210.985 Z" fill="#000000" fill-rule="evenodd" fill-opacity="1" /><path clip-path="url(#clip080)" d="M2131.99 202.629 L2131.99 209.99 L2140.76 209.99 L2140.76 213.3 L2131.99 213.3 L2131.99 227.374 Q2131.99 230.545 2132.84 231.448 Q2133.72 232.351 2136.39 232.351 L2140.76 232.351 L2140.76 235.916 L2136.39 235.916 Q2131.45 235.916 2129.58 234.087 Q2127.7 232.235 2127.7 227.374 L2127.7 213.3 L2124.58 213.3 L2124.58 209.99 L2127.7 209.99 L2127.7 202.629 L2131.99 202.629 Z" fill="#000000" fill-rule="evenodd" fill-opacity="1" /><path clip-path="url(#clip080)" d="M2156.41 212.976 Q2152.98 212.976 2150.99 215.661 Q2149 218.323 2149 222.976 Q2149 227.629 2150.97 230.314 Q2152.96 232.976 2156.41 232.976 Q2159.81 232.976 2161.8 230.291 Q2163.79 227.606 2163.79 222.976 Q2163.79 218.37 2161.8 215.684 Q2159.81 212.976 2156.41 212.976 M2156.41 209.365 Q2161.96 209.365 2165.14 212.976 Q2168.31 216.587 2168.31 222.976 Q2168.31 229.342 2165.14 232.976 Q2161.96 236.587 2156.41 236.587 Q2150.83 236.587 2147.66 232.976 Q2144.51 229.342 2144.51 222.976 Q2144.51 216.587 2147.66 212.976 Q2150.83 209.365 2156.41 209.365 Z" fill="#000000" fill-rule="evenodd" fill-opacity="1" /><path clip-path="url(#clip080)" d="M2190.39 213.971 Q2189.67 213.555 2188.82 213.37 Q2187.98 213.161 2186.96 213.161 Q2183.35 213.161 2181.41 215.522 Q2179.49 217.86 2179.49 222.258 L2179.49 235.916 L2175.2 235.916 L2175.2 209.99 L2179.49 209.99 L2179.49 214.018 Q2180.83 211.657 2182.98 210.522 Q2185.14 209.365 2188.21 209.365 Q2188.65 209.365 2189.19 209.434 Q2189.72 209.481 2190.37 209.596 L2190.39 213.971 Z" fill="#000000" fill-rule="evenodd" fill-opacity="1" /><path clip-path="url(#clip080)" d="M2205.64 238.323 Q2203.84 242.953 2202.13 244.365 Q2200.41 245.777 2197.54 245.777 L2194.14 245.777 L2194.14 242.212 L2196.64 242.212 Q2198.4 242.212 2199.37 241.379 Q2200.34 240.545 2201.52 237.443 L2202.29 235.499 L2191.8 209.99 L2196.32 209.99 L2204.42 230.268 L2212.52 209.99 L2217.03 209.99 L2205.64 238.323 Z" fill="#000000" fill-rule="evenodd" fill-opacity="1" /><path clip-path="url(#clip080)" d="M2239.39 231.981 L2247.03 231.981 L2247.03 205.615 L2238.72 207.282 L2238.72 203.022 L2246.99 201.356 L2251.66 201.356 L2251.66 231.981 L2259.3 231.981 L2259.3 235.916 L2239.39 235.916 L2239.39 231.981 Z" fill="#000000" fill-rule="evenodd" fill-opacity="1" /><polyline clip-path="url(#clip080)" style="stroke:#e26f46; stroke-linecap:round; stroke-linejoin:round; stroke-width:4; stroke-opacity:1; fill:none" points="
  1820.69,270.476 1960.87,270.476 
  "/>
<path clip-path="url(#clip080)" d="M1984.23 253.196 L2013.47 253.196 L2013.47 257.131 L2001.2 257.131 L2001.2 287.756 L1996.5 287.756 L1996.5 257.131 L1984.23 257.131 L1984.23 253.196 Z" fill="#000000" fill-rule="evenodd" fill-opacity="1" /><path clip-path="url(#clip080)" d="M2025.85 265.811 Q2025.14 265.395 2024.28 265.21 Q2023.45 265.001 2022.43 265.001 Q2018.82 265.001 2016.87 267.362 Q2014.95 269.7 2014.95 274.098 L2014.95 287.756 L2010.67 287.756 L2010.67 261.83 L2014.95 261.83 L2014.95 265.858 Q2016.29 263.497 2018.45 262.362 Q2020.6 261.205 2023.68 261.205 Q2024.12 261.205 2024.65 261.274 Q2025.18 261.321 2025.83 261.436 L2025.85 265.811 Z" fill="#000000" fill-rule="evenodd" fill-opacity="1" /><path clip-path="url(#clip080)" d="M2042.1 274.723 Q2036.94 274.723 2034.95 275.904 Q2032.96 277.084 2032.96 279.932 Q2032.96 282.2 2034.44 283.543 Q2035.95 284.862 2038.52 284.862 Q2042.06 284.862 2044.19 282.362 Q2046.34 279.839 2046.34 275.672 L2046.34 274.723 L2042.1 274.723 M2050.6 272.964 L2050.6 287.756 L2046.34 287.756 L2046.34 283.821 Q2044.88 286.182 2042.71 287.316 Q2040.53 288.427 2037.38 288.427 Q2033.4 288.427 2031.04 286.205 Q2028.7 283.959 2028.7 280.209 Q2028.7 275.834 2031.62 273.612 Q2034.56 271.39 2040.37 271.39 L2046.34 271.39 L2046.34 270.973 Q2046.34 268.034 2044.4 266.436 Q2042.47 264.816 2038.98 264.816 Q2036.76 264.816 2034.65 265.348 Q2032.54 265.881 2030.6 266.946 L2030.6 263.01 Q2032.94 262.108 2035.14 261.668 Q2037.33 261.205 2039.42 261.205 Q2045.04 261.205 2047.82 264.122 Q2050.6 267.038 2050.6 272.964 Z" fill="#000000" fill-rule="evenodd" fill-opacity="1" /><path clip-path="url(#clip080)" d="M2059.37 261.83 L2063.63 261.83 L2063.63 288.219 Q2063.63 293.172 2061.73 295.395 Q2059.86 297.617 2055.67 297.617 L2054.05 297.617 L2054.05 294.006 L2055.18 294.006 Q2057.61 294.006 2058.49 292.871 Q2059.37 291.76 2059.37 288.219 L2059.37 261.83 M2059.37 251.737 L2063.63 251.737 L2063.63 257.131 L2059.37 257.131 L2059.37 251.737 Z" fill="#000000" fill-rule="evenodd" fill-opacity="1" /><path clip-path="url(#clip080)" d="M2094.72 273.728 L2094.72 275.811 L2075.14 275.811 Q2075.41 280.209 2077.77 282.524 Q2080.16 284.816 2084.39 284.816 Q2086.85 284.816 2089.14 284.214 Q2091.46 283.612 2093.72 282.409 L2093.72 286.436 Q2091.43 287.408 2089.02 287.918 Q2086.62 288.427 2084.14 288.427 Q2077.94 288.427 2074.3 284.816 Q2070.69 281.205 2070.69 275.047 Q2070.69 268.682 2074.12 264.955 Q2077.57 261.205 2083.4 261.205 Q2088.63 261.205 2091.66 264.585 Q2094.72 267.941 2094.72 273.728 M2090.46 272.478 Q2090.41 268.983 2088.49 266.899 Q2086.59 264.816 2083.45 264.816 Q2079.88 264.816 2077.73 266.83 Q2075.6 268.844 2075.27 272.501 L2090.46 272.478 Z" fill="#000000" fill-rule="evenodd" fill-opacity="1" /><path clip-path="url(#clip080)" d="M2120.37 262.825 L2120.37 266.807 Q2118.56 265.811 2116.73 265.325 Q2114.93 264.816 2113.08 264.816 Q2108.93 264.816 2106.64 267.455 Q2104.35 270.071 2104.35 274.816 Q2104.35 279.561 2106.64 282.2 Q2108.93 284.816 2113.08 284.816 Q2114.93 284.816 2116.73 284.33 Q2118.56 283.821 2120.37 282.825 L2120.37 286.76 Q2118.58 287.594 2116.66 288.01 Q2114.77 288.427 2112.61 288.427 Q2106.76 288.427 2103.31 284.746 Q2099.86 281.066 2099.86 274.816 Q2099.86 268.473 2103.33 264.839 Q2106.83 261.205 2112.89 261.205 Q2114.86 261.205 2116.73 261.622 Q2118.61 262.015 2120.37 262.825 Z" fill="#000000" fill-rule="evenodd" fill-opacity="1" /><path clip-path="url(#clip080)" d="M2131.99 254.469 L2131.99 261.83 L2140.76 261.83 L2140.76 265.14 L2131.99 265.14 L2131.99 279.214 Q2131.99 282.385 2132.84 283.288 Q2133.72 284.191 2136.39 284.191 L2140.76 284.191 L2140.76 287.756 L2136.39 287.756 Q2131.45 287.756 2129.58 285.927 Q2127.7 284.075 2127.7 279.214 L2127.7 265.14 L2124.58 265.14 L2124.58 261.83 L2127.7 261.83 L2127.7 254.469 L2131.99 254.469 Z" fill="#000000" fill-rule="evenodd" fill-opacity="1" /><path clip-path="url(#clip080)" d="M2156.41 264.816 Q2152.98 264.816 2150.99 267.501 Q2149 270.163 2149 274.816 Q2149 279.469 2150.97 282.154 Q2152.96 284.816 2156.41 284.816 Q2159.81 284.816 2161.8 282.131 Q2163.79 279.446 2163.79 274.816 Q2163.79 270.21 2161.8 267.524 Q2159.81 264.816 2156.41 264.816 M2156.41 261.205 Q2161.96 261.205 2165.14 264.816 Q2168.31 268.427 2168.31 274.816 Q2168.31 281.182 2165.14 284.816 Q2161.96 288.427 2156.41 288.427 Q2150.83 288.427 2147.66 284.816 Q2144.51 281.182 2144.51 274.816 Q2144.51 268.427 2147.66 264.816 Q2150.83 261.205 2156.41 261.205 Z" fill="#000000" fill-rule="evenodd" fill-opacity="1" /><path clip-path="url(#clip080)" d="M2190.39 265.811 Q2189.67 265.395 2188.82 265.21 Q2187.98 265.001 2186.96 265.001 Q2183.35 265.001 2181.41 267.362 Q2179.49 269.7 2179.49 274.098 L2179.49 287.756 L2175.2 287.756 L2175.2 261.83 L2179.49 261.83 L2179.49 265.858 Q2180.83 263.497 2182.98 262.362 Q2185.14 261.205 2188.21 261.205 Q2188.65 261.205 2189.19 261.274 Q2189.72 261.321 2190.37 261.436 L2190.39 265.811 Z" fill="#000000" fill-rule="evenodd" fill-opacity="1" /><path clip-path="url(#clip080)" d="M2205.64 290.163 Q2203.84 294.793 2202.13 296.205 Q2200.41 297.617 2197.54 297.617 L2194.14 297.617 L2194.14 294.052 L2196.64 294.052 Q2198.4 294.052 2199.37 293.219 Q2200.34 292.385 2201.52 289.283 L2202.29 287.339 L2191.8 261.83 L2196.32 261.83 L2204.42 282.108 L2212.52 261.83 L2217.03 261.83 L2205.64 290.163 Z" fill="#000000" fill-rule="evenodd" fill-opacity="1" /><path clip-path="url(#clip080)" d="M2242.61 283.821 L2258.93 283.821 L2258.93 287.756 L2236.99 287.756 L2236.99 283.821 Q2239.65 281.066 2244.23 276.436 Q2248.84 271.784 2250.02 270.441 Q2252.26 267.918 2253.14 266.182 Q2254.05 264.423 2254.05 262.733 Q2254.05 259.978 2252.1 258.242 Q2250.18 256.506 2247.08 256.506 Q2244.88 256.506 2242.43 257.27 Q2240 258.034 2237.22 259.585 L2237.22 254.862 Q2240.04 253.728 2242.5 253.149 Q2244.95 252.571 2246.99 252.571 Q2252.36 252.571 2255.55 255.256 Q2258.75 257.941 2258.75 262.432 Q2258.75 264.561 2257.94 266.483 Q2257.15 268.381 2255.04 270.973 Q2254.46 271.645 2251.36 274.862 Q2248.26 278.057 2242.61 283.821 Z" fill="#000000" fill-rule="evenodd" fill-opacity="1" /></svg>
