<?xml version="1.0" encoding="utf-8"?>
<svg xmlns="http://www.w3.org/2000/svg" xmlns:xlink="http://www.w3.org/1999/xlink" width="600" height="400" viewBox="0 0 2400 1600">
<defs>
  <clipPath id="clip670">
    <rect x="0" y="0" width="2400" height="1600"/>
  </clipPath>
</defs>
<path clip-path="url(#clip670)" d="
M0 1600 L2400 1600 L2400 0 L0 0  Z
  " fill="#ffffff" fill-rule="evenodd" fill-opacity="1"/>
<defs>
  <clipPath id="clip671">
    <rect x="480" y="0" width="1681" height="1600"/>
  </clipPath>
</defs>
<path clip-path="url(#clip670)" d="
M279.704 1423.18 L2352.76 1423.18 L2352.76 123.472 L279.704 123.472  Z
  " fill="#ffffff" fill-rule="evenodd" fill-opacity="1"/>
<defs>
  <clipPath id="clip672">
    <rect x="279" y="123" width="2074" height="1301"/>
  </clipPath>
</defs>
<polyline clip-path="url(#clip672)" style="stroke:#000000; stroke-linecap:butt; stroke-linejoin:round; stroke-width:2; stroke-opacity:0.1; fill:none" points="
  338.375,1423.18 338.375,123.472 
  "/>
<polyline clip-path="url(#clip672)" style="stroke:#000000; stroke-linecap:butt; stroke-linejoin:round; stroke-width:2; stroke-opacity:0.1; fill:none" points="
  693.959,1423.18 693.959,123.472 
  "/>
<polyline clip-path="url(#clip672)" style="stroke:#000000; stroke-linecap:butt; stroke-linejoin:round; stroke-width:2; stroke-opacity:0.1; fill:none" points="
  1049.54,1423.18 1049.54,123.472 
  "/>
<polyline clip-path="url(#clip672)" style="stroke:#000000; stroke-linecap:butt; stroke-linejoin:round; stroke-width:2; stroke-opacity:0.1; fill:none" points="
  1405.13,1423.18 1405.13,123.472 
  "/>
<polyline clip-path="url(#clip672)" style="stroke:#000000; stroke-linecap:butt; stroke-linejoin:round; stroke-width:2; stroke-opacity:0.1; fill:none" points="
  1760.71,1423.18 1760.71,123.472 
  "/>
<polyline clip-path="url(#clip672)" style="stroke:#000000; stroke-linecap:butt; stroke-linejoin:round; stroke-width:2; stroke-opacity:0.1; fill:none" points="
  2116.29,1423.18 2116.29,123.472 
  "/>
<polyline clip-path="url(#clip670)" style="stroke:#000000; stroke-linecap:butt; stroke-linejoin:round; stroke-width:4; stroke-opacity:1; fill:none" points="
  279.704,1423.18 2352.76,1423.18 
  "/>
<polyline clip-path="url(#clip670)" style="stroke:#000000; stroke-linecap:butt; stroke-linejoin:round; stroke-width:4; stroke-opacity:1; fill:none" points="
  338.375,1423.18 338.375,1404.28 
  "/>
<polyline clip-path="url(#clip670)" style="stroke:#000000; stroke-linecap:butt; stroke-linejoin:round; stroke-width:4; stroke-opacity:1; fill:none" points="
  693.959,1423.18 693.959,1404.28 
  "/>
<polyline clip-path="url(#clip670)" style="stroke:#000000; stroke-linecap:butt; stroke-linejoin:round; stroke-width:4; stroke-opacity:1; fill:none" points="
  1049.54,1423.18 1049.54,1404.28 
  "/>
<polyline clip-path="url(#clip670)" style="stroke:#000000; stroke-linecap:butt; stroke-linejoin:round; stroke-width:4; stroke-opacity:1; fill:none" points="
  1405.13,1423.18 1405.13,1404.28 
  "/>
<polyline clip-path="url(#clip670)" style="stroke:#000000; stroke-linecap:butt; stroke-linejoin:round; stroke-width:4; stroke-opacity:1; fill:none" points="
  1760.71,1423.18 1760.71,1404.28 
  "/>
<polyline clip-path="url(#clip670)" style="stroke:#000000; stroke-linecap:butt; stroke-linejoin:round; stroke-width:4; stroke-opacity:1; fill:none" points="
  2116.29,1423.18 2116.29,1404.28 
  "/>
<path clip-path="url(#clip670)" d="M338.375 1452.37 Q334.764 1452.37 332.935 1455.94 Q331.13 1459.48 331.13 1466.61 Q331.13 1473.71 332.935 1477.28 Q334.764 1480.82 338.375 1480.82 Q342.009 1480.82 343.815 1477.28 Q345.644 1473.71 345.644 1466.61 Q345.644 1459.48 343.815 1455.94 Q342.009 1452.37 338.375 1452.37 M338.375 1448.67 Q344.185 1448.67 347.241 1453.27 Q350.32 1457.86 350.32 1466.61 Q350.32 1475.33 347.241 1479.94 Q344.185 1484.52 338.375 1484.52 Q332.565 1484.52 329.486 1479.94 Q326.431 1475.33 326.431 1466.61 Q326.431 1457.86 329.486 1453.27 Q332.565 1448.67 338.375 1448.67 Z" fill="#000000" fill-rule="evenodd" fill-opacity="1" /><path clip-path="url(#clip670)" d="M653.565 1479.92 L661.204 1479.92 L661.204 1453.55 L652.894 1455.22 L652.894 1450.96 L661.158 1449.29 L665.834 1449.29 L665.834 1479.92 L673.473 1479.92 L673.473 1483.85 L653.565 1483.85 L653.565 1479.92 Z" fill="#000000" fill-rule="evenodd" fill-opacity="1" /><path clip-path="url(#clip670)" d="M692.917 1452.37 Q689.306 1452.37 687.477 1455.94 Q685.672 1459.48 685.672 1466.61 Q685.672 1473.71 687.477 1477.28 Q689.306 1480.82 692.917 1480.82 Q696.551 1480.82 698.357 1477.28 Q700.186 1473.71 700.186 1466.61 Q700.186 1459.48 698.357 1455.94 Q696.551 1452.37 692.917 1452.37 M692.917 1448.67 Q698.727 1448.67 701.783 1453.27 Q704.861 1457.86 704.861 1466.61 Q704.861 1475.33 701.783 1479.94 Q698.727 1484.52 692.917 1484.52 Q687.107 1484.52 684.028 1479.94 Q680.973 1475.33 680.973 1466.61 Q680.973 1457.86 684.028 1453.27 Q687.107 1448.67 692.917 1448.67 Z" fill="#000000" fill-rule="evenodd" fill-opacity="1" /><path clip-path="url(#clip670)" d="M723.079 1452.37 Q719.468 1452.37 717.639 1455.94 Q715.834 1459.48 715.834 1466.61 Q715.834 1473.71 717.639 1477.28 Q719.468 1480.82 723.079 1480.82 Q726.713 1480.82 728.519 1477.28 Q730.347 1473.71 730.347 1466.61 Q730.347 1459.48 728.519 1455.94 Q726.713 1452.37 723.079 1452.37 M723.079 1448.67 Q728.889 1448.67 731.945 1453.27 Q735.023 1457.86 735.023 1466.61 Q735.023 1475.33 731.945 1479.94 Q728.889 1484.52 723.079 1484.52 Q717.269 1484.52 714.19 1479.94 Q711.135 1475.33 711.135 1466.61 Q711.135 1457.86 714.19 1453.27 Q717.269 1448.67 723.079 1448.67 Z" fill="#000000" fill-rule="evenodd" fill-opacity="1" /><path clip-path="url(#clip670)" d="M1013.23 1479.92 L1029.55 1479.92 L1029.55 1483.85 L1007.61 1483.85 L1007.61 1479.92 Q1010.27 1477.16 1014.85 1472.53 Q1019.46 1467.88 1020.64 1466.54 Q1022.89 1464.01 1023.77 1462.28 Q1024.67 1460.52 1024.67 1458.83 Q1024.67 1456.07 1022.73 1454.34 Q1020.8 1452.6 1017.7 1452.6 Q1015.5 1452.6 1013.05 1453.37 Q1010.62 1454.13 1007.84 1455.68 L1007.84 1450.96 Q1010.67 1449.82 1013.12 1449.25 Q1015.57 1448.67 1017.61 1448.67 Q1022.98 1448.67 1026.17 1451.35 Q1029.37 1454.04 1029.37 1458.53 Q1029.37 1460.66 1028.56 1462.58 Q1027.77 1464.48 1025.67 1467.07 Q1025.09 1467.74 1021.98 1470.96 Q1018.88 1474.15 1013.23 1479.92 Z" fill="#000000" fill-rule="evenodd" fill-opacity="1" /><path clip-path="url(#clip670)" d="M1049.37 1452.37 Q1045.76 1452.37 1043.93 1455.94 Q1042.12 1459.48 1042.12 1466.61 Q1042.12 1473.71 1043.93 1477.28 Q1045.76 1480.82 1049.37 1480.82 Q1053 1480.82 1054.81 1477.28 Q1056.64 1473.71 1056.64 1466.61 Q1056.64 1459.48 1054.81 1455.94 Q1053 1452.37 1049.37 1452.37 M1049.37 1448.67 Q1055.18 1448.67 1058.23 1453.27 Q1061.31 1457.86 1061.31 1466.61 Q1061.31 1475.33 1058.23 1479.94 Q1055.18 1484.52 1049.37 1484.52 Q1043.56 1484.52 1040.48 1479.94 Q1037.42 1475.33 1037.42 1466.61 Q1037.42 1457.86 1040.48 1453.27 Q1043.56 1448.67 1049.37 1448.67 Z" fill="#000000" fill-rule="evenodd" fill-opacity="1" /><path clip-path="url(#clip670)" d="M1079.53 1452.37 Q1075.92 1452.37 1074.09 1455.94 Q1072.29 1459.48 1072.29 1466.61 Q1072.29 1473.71 1074.09 1477.28 Q1075.92 1480.82 1079.53 1480.82 Q1083.16 1480.82 1084.97 1477.28 Q1086.8 1473.71 1086.8 1466.61 Q1086.8 1459.48 1084.97 1455.94 Q1083.16 1452.37 1079.53 1452.37 M1079.53 1448.67 Q1085.34 1448.67 1088.4 1453.27 Q1091.47 1457.86 1091.47 1466.61 Q1091.47 1475.33 1088.4 1479.94 Q1085.34 1484.52 1079.53 1484.52 Q1073.72 1484.52 1070.64 1479.94 Q1067.59 1475.33 1067.59 1466.61 Q1067.59 1457.86 1070.64 1453.27 Q1073.72 1448.67 1079.53 1448.67 Z" fill="#000000" fill-rule="evenodd" fill-opacity="1" /><path clip-path="url(#clip670)" d="M1378.89 1465.22 Q1382.24 1465.94 1384.12 1468.2 Q1386.02 1470.47 1386.02 1473.81 Q1386.02 1478.92 1382.5 1481.72 Q1378.98 1484.52 1372.5 1484.52 Q1370.32 1484.52 1368.01 1484.08 Q1365.72 1483.67 1363.26 1482.81 L1363.26 1478.3 Q1365.21 1479.43 1367.52 1480.01 Q1369.84 1480.59 1372.36 1480.59 Q1376.76 1480.59 1379.05 1478.85 Q1381.36 1477.12 1381.36 1473.81 Q1381.36 1470.75 1379.21 1469.04 Q1377.08 1467.3 1373.26 1467.3 L1369.23 1467.3 L1369.23 1463.46 L1373.45 1463.46 Q1376.9 1463.46 1378.73 1462.09 Q1380.55 1460.7 1380.55 1458.11 Q1380.55 1455.45 1378.66 1454.04 Q1376.78 1452.6 1373.26 1452.6 Q1371.34 1452.6 1369.14 1453.02 Q1366.94 1453.44 1364.3 1454.31 L1364.3 1450.15 Q1366.97 1449.41 1369.28 1449.04 Q1371.62 1448.67 1373.68 1448.67 Q1379 1448.67 1382.11 1451.1 Q1385.21 1453.5 1385.21 1457.63 Q1385.21 1460.5 1383.56 1462.49 Q1381.92 1464.45 1378.89 1465.22 Z" fill="#000000" fill-rule="evenodd" fill-opacity="1" /><path clip-path="url(#clip670)" d="M1404.88 1452.37 Q1401.27 1452.37 1399.44 1455.94 Q1397.64 1459.48 1397.64 1466.61 Q1397.64 1473.71 1399.44 1477.28 Q1401.27 1480.82 1404.88 1480.82 Q1408.52 1480.82 1410.32 1477.28 Q1412.15 1473.71 1412.15 1466.61 Q1412.15 1459.48 1410.32 1455.94 Q1408.52 1452.37 1404.88 1452.37 M1404.88 1448.67 Q1410.69 1448.67 1413.75 1453.27 Q1416.83 1457.86 1416.83 1466.61 Q1416.83 1475.33 1413.75 1479.94 Q1410.69 1484.52 1404.88 1484.52 Q1399.07 1484.52 1395.99 1479.94 Q1392.94 1475.33 1392.94 1466.61 Q1392.94 1457.86 1395.99 1453.27 Q1399.07 1448.67 1404.88 1448.67 Z" fill="#000000" fill-rule="evenodd" fill-opacity="1" /><path clip-path="url(#clip670)" d="M1435.04 1452.37 Q1431.43 1452.37 1429.6 1455.94 Q1427.8 1459.48 1427.8 1466.61 Q1427.8 1473.71 1429.6 1477.28 Q1431.43 1480.82 1435.04 1480.82 Q1438.68 1480.82 1440.48 1477.28 Q1442.31 1473.71 1442.31 1466.61 Q1442.31 1459.48 1440.48 1455.94 Q1438.68 1452.37 1435.04 1452.37 M1435.04 1448.67 Q1440.85 1448.67 1443.91 1453.27 Q1446.99 1457.86 1446.99 1466.61 Q1446.99 1475.33 1443.91 1479.94 Q1440.85 1484.52 1435.04 1484.52 Q1429.23 1484.52 1426.16 1479.94 Q1423.1 1475.33 1423.1 1466.61 Q1423.1 1457.86 1426.16 1453.27 Q1429.23 1448.67 1435.04 1448.67 Z" fill="#000000" fill-rule="evenodd" fill-opacity="1" /><path clip-path="url(#clip670)" d="M1733.8 1453.37 L1721.99 1471.81 L1733.8 1471.81 L1733.8 1453.37 M1732.57 1449.29 L1738.45 1449.29 L1738.45 1471.81 L1743.38 1471.81 L1743.38 1475.7 L1738.45 1475.7 L1738.45 1483.85 L1733.8 1483.85 L1733.8 1475.7 L1718.2 1475.7 L1718.2 1471.19 L1732.57 1449.29 Z" fill="#000000" fill-rule="evenodd" fill-opacity="1" /><path clip-path="url(#clip670)" d="M1761.11 1452.37 Q1757.5 1452.37 1755.67 1455.94 Q1753.87 1459.48 1753.87 1466.61 Q1753.87 1473.71 1755.67 1477.28 Q1757.5 1480.82 1761.11 1480.82 Q1764.75 1480.82 1766.55 1477.28 Q1768.38 1473.71 1768.38 1466.61 Q1768.38 1459.48 1766.55 1455.94 Q1764.75 1452.37 1761.11 1452.37 M1761.11 1448.67 Q1766.92 1448.67 1769.98 1453.27 Q1773.06 1457.86 1773.06 1466.61 Q1773.06 1475.33 1769.98 1479.94 Q1766.92 1484.52 1761.11 1484.52 Q1755.3 1484.52 1752.23 1479.94 Q1749.17 1475.33 1749.17 1466.61 Q1749.17 1457.86 1752.23 1453.27 Q1755.3 1448.67 1761.11 1448.67 Z" fill="#000000" fill-rule="evenodd" fill-opacity="1" /><path clip-path="url(#clip670)" d="M1791.28 1452.37 Q1787.67 1452.37 1785.84 1455.94 Q1784.03 1459.48 1784.03 1466.61 Q1784.03 1473.71 1785.84 1477.28 Q1787.67 1480.82 1791.28 1480.82 Q1794.91 1480.82 1796.72 1477.28 Q1798.54 1473.71 1798.54 1466.61 Q1798.54 1459.48 1796.72 1455.94 Q1794.91 1452.37 1791.28 1452.37 M1791.28 1448.67 Q1797.09 1448.67 1800.14 1453.27 Q1803.22 1457.86 1803.22 1466.61 Q1803.22 1475.33 1800.14 1479.94 Q1797.09 1484.52 1791.28 1484.52 Q1785.47 1484.52 1782.39 1479.94 Q1779.33 1475.33 1779.33 1466.61 Q1779.33 1457.86 1782.39 1453.27 Q1785.47 1448.67 1791.28 1448.67 Z" fill="#000000" fill-rule="evenodd" fill-opacity="1" /><path clip-path="url(#clip670)" d="M2075.91 1449.29 L2094.27 1449.29 L2094.27 1453.23 L2080.19 1453.23 L2080.19 1461.7 Q2081.21 1461.35 2082.23 1461.19 Q2083.25 1461 2084.27 1461 Q2090.05 1461 2093.43 1464.18 Q2096.81 1467.35 2096.81 1472.76 Q2096.81 1478.34 2093.34 1481.44 Q2089.87 1484.52 2083.55 1484.52 Q2081.37 1484.52 2079.11 1484.15 Q2076.86 1483.78 2074.45 1483.04 L2074.45 1478.34 Q2076.54 1479.48 2078.76 1480.03 Q2080.98 1480.59 2083.46 1480.59 Q2087.46 1480.59 2089.8 1478.48 Q2092.14 1476.38 2092.14 1472.76 Q2092.14 1469.15 2089.8 1467.05 Q2087.46 1464.94 2083.46 1464.94 Q2081.58 1464.94 2079.71 1465.36 Q2077.86 1465.77 2075.91 1466.65 L2075.91 1449.29 Z" fill="#000000" fill-rule="evenodd" fill-opacity="1" /><path clip-path="url(#clip670)" d="M2116.03 1452.37 Q2112.42 1452.37 2110.59 1455.94 Q2108.78 1459.48 2108.78 1466.61 Q2108.78 1473.71 2110.59 1477.28 Q2112.42 1480.82 2116.03 1480.82 Q2119.66 1480.82 2121.47 1477.28 Q2123.3 1473.71 2123.3 1466.61 Q2123.3 1459.48 2121.47 1455.94 Q2119.66 1452.37 2116.03 1452.37 M2116.03 1448.67 Q2121.84 1448.67 2124.89 1453.27 Q2127.97 1457.86 2127.97 1466.61 Q2127.97 1475.33 2124.89 1479.94 Q2121.84 1484.52 2116.03 1484.52 Q2110.22 1484.52 2107.14 1479.94 Q2104.08 1475.33 2104.08 1466.61 Q2104.08 1457.86 2107.14 1453.27 Q2110.22 1448.67 2116.03 1448.67 Z" fill="#000000" fill-rule="evenodd" fill-opacity="1" /><path clip-path="url(#clip670)" d="M2146.19 1452.37 Q2142.58 1452.37 2140.75 1455.94 Q2138.94 1459.48 2138.94 1466.61 Q2138.94 1473.71 2140.75 1477.28 Q2142.58 1480.82 2146.19 1480.82 Q2149.82 1480.82 2151.63 1477.28 Q2153.46 1473.71 2153.46 1466.61 Q2153.46 1459.48 2151.63 1455.94 Q2149.82 1452.37 2146.19 1452.37 M2146.19 1448.67 Q2152 1448.67 2155.05 1453.27 Q2158.13 1457.86 2158.13 1466.61 Q2158.13 1475.33 2155.05 1479.94 Q2152 1484.52 2146.19 1484.52 Q2140.38 1484.52 2137.3 1479.94 Q2134.24 1475.33 2134.24 1466.61 Q2134.24 1457.86 2137.3 1453.27 Q2140.38 1448.67 2146.19 1448.67 Z" fill="#000000" fill-rule="evenodd" fill-opacity="1" /><path clip-path="url(#clip670)" d="M1315.29 1522.27 L1315.29 1532.4 L1327.35 1532.4 L1327.35 1536.95 L1315.29 1536.95 L1315.29 1556.3 Q1315.29 1560.66 1316.47 1561.9 Q1317.68 1563.14 1321.34 1563.14 L1327.35 1563.14 L1327.35 1568.04 L1321.34 1568.04 Q1314.56 1568.04 1311.98 1565.53 Q1309.4 1562.98 1309.4 1556.3 L1309.4 1536.95 L1305.11 1536.95 L1305.11 1532.4 L1309.4 1532.4 L1309.4 1522.27 L1315.29 1522.27 Z" fill="#000000" fill-rule="evenodd" fill-opacity="1" /><polyline clip-path="url(#clip672)" style="stroke:#000000; stroke-linecap:butt; stroke-linejoin:round; stroke-width:2; stroke-opacity:0.1; fill:none" points="
  279.704,1387.15 2352.76,1387.15 
  "/>
<polyline clip-path="url(#clip672)" style="stroke:#000000; stroke-linecap:butt; stroke-linejoin:round; stroke-width:2; stroke-opacity:0.1; fill:none" points="
  279.704,1079.71 2352.76,1079.71 
  "/>
<polyline clip-path="url(#clip672)" style="stroke:#000000; stroke-linecap:butt; stroke-linejoin:round; stroke-width:2; stroke-opacity:0.1; fill:none" points="
  279.704,772.282 2352.76,772.282 
  "/>
<polyline clip-path="url(#clip672)" style="stroke:#000000; stroke-linecap:butt; stroke-linejoin:round; stroke-width:2; stroke-opacity:0.1; fill:none" points="
  279.704,464.849 2352.76,464.849 
  "/>
<polyline clip-path="url(#clip672)" style="stroke:#000000; stroke-linecap:butt; stroke-linejoin:round; stroke-width:2; stroke-opacity:0.1; fill:none" points="
  279.704,157.416 2352.76,157.416 
  "/>
<polyline clip-path="url(#clip670)" style="stroke:#000000; stroke-linecap:butt; stroke-linejoin:round; stroke-width:4; stroke-opacity:1; fill:none" points="
  279.704,1423.18 279.704,123.472 
  "/>
<polyline clip-path="url(#clip670)" style="stroke:#000000; stroke-linecap:butt; stroke-linejoin:round; stroke-width:4; stroke-opacity:1; fill:none" points="
  279.704,1387.15 298.602,1387.15 
  "/>
<polyline clip-path="url(#clip670)" style="stroke:#000000; stroke-linecap:butt; stroke-linejoin:round; stroke-width:4; stroke-opacity:1; fill:none" points="
  279.704,1079.71 298.602,1079.71 
  "/>
<polyline clip-path="url(#clip670)" style="stroke:#000000; stroke-linecap:butt; stroke-linejoin:round; stroke-width:4; stroke-opacity:1; fill:none" points="
  279.704,772.282 298.602,772.282 
  "/>
<polyline clip-path="url(#clip670)" style="stroke:#000000; stroke-linecap:butt; stroke-linejoin:round; stroke-width:4; stroke-opacity:1; fill:none" points="
  279.704,464.849 298.602,464.849 
  "/>
<polyline clip-path="url(#clip670)" style="stroke:#000000; stroke-linecap:butt; stroke-linejoin:round; stroke-width:4; stroke-opacity:1; fill:none" points="
  279.704,157.416 298.602,157.416 
  "/>
<path clip-path="url(#clip670)" d="M126.205 1372.95 Q122.593 1372.95 120.765 1376.51 Q118.959 1380.05 118.959 1387.18 Q118.959 1394.29 120.765 1397.85 Q122.593 1401.39 126.205 1401.39 Q129.839 1401.39 131.644 1397.85 Q133.473 1394.29 133.473 1387.18 Q133.473 1380.05 131.644 1376.51 Q129.839 1372.95 126.205 1372.95 M126.205 1369.24 Q132.015 1369.24 135.07 1373.85 Q138.149 1378.43 138.149 1387.18 Q138.149 1395.91 135.07 1400.52 Q132.015 1405.1 126.205 1405.1 Q120.394 1405.1 117.316 1400.52 Q114.26 1395.91 114.26 1387.18 Q114.26 1378.43 117.316 1373.85 Q120.394 1369.24 126.205 1369.24 Z" fill="#000000" fill-rule="evenodd" fill-opacity="1" /><path clip-path="url(#clip670)" d="M146.366 1398.55 L151.251 1398.55 L151.251 1404.43 L146.366 1404.43 L146.366 1398.55 Z" fill="#000000" fill-rule="evenodd" fill-opacity="1" /><path clip-path="url(#clip670)" d="M171.436 1372.95 Q167.825 1372.95 165.996 1376.51 Q164.19 1380.05 164.19 1387.18 Q164.19 1394.29 165.996 1397.85 Q167.825 1401.39 171.436 1401.39 Q175.07 1401.39 176.876 1397.85 Q178.704 1394.29 178.704 1387.18 Q178.704 1380.05 176.876 1376.51 Q175.07 1372.95 171.436 1372.95 M171.436 1369.24 Q177.246 1369.24 180.301 1373.85 Q183.38 1378.43 183.38 1387.18 Q183.38 1395.91 180.301 1400.52 Q177.246 1405.1 171.436 1405.1 Q165.626 1405.1 162.547 1400.52 Q159.491 1395.91 159.491 1387.18 Q159.491 1378.43 162.547 1373.85 Q165.626 1369.24 171.436 1369.24 Z" fill="#000000" fill-rule="evenodd" fill-opacity="1" /><path clip-path="url(#clip670)" d="M201.598 1372.95 Q197.987 1372.95 196.158 1376.51 Q194.352 1380.05 194.352 1387.18 Q194.352 1394.29 196.158 1397.85 Q197.987 1401.39 201.598 1401.39 Q205.232 1401.39 207.037 1397.85 Q208.866 1394.29 208.866 1387.18 Q208.866 1380.05 207.037 1376.51 Q205.232 1372.95 201.598 1372.95 M201.598 1369.24 Q207.408 1369.24 210.463 1373.85 Q213.542 1378.43 213.542 1387.18 Q213.542 1395.91 210.463 1400.52 Q207.408 1405.1 201.598 1405.1 Q195.787 1405.1 192.709 1400.52 Q189.653 1395.91 189.653 1387.18 Q189.653 1378.43 192.709 1373.85 Q195.787 1369.24 201.598 1369.24 Z" fill="#000000" fill-rule="evenodd" fill-opacity="1" /><path clip-path="url(#clip670)" d="M231.76 1372.95 Q228.148 1372.95 226.32 1376.51 Q224.514 1380.05 224.514 1387.18 Q224.514 1394.29 226.32 1397.85 Q228.148 1401.39 231.76 1401.39 Q235.394 1401.39 237.199 1397.85 Q239.028 1394.29 239.028 1387.18 Q239.028 1380.05 237.199 1376.51 Q235.394 1372.95 231.76 1372.95 M231.76 1369.24 Q237.57 1369.24 240.625 1373.85 Q243.704 1378.43 243.704 1387.18 Q243.704 1395.91 240.625 1400.52 Q237.57 1405.1 231.76 1405.1 Q225.949 1405.1 222.871 1400.52 Q219.815 1395.91 219.815 1387.18 Q219.815 1378.43 222.871 1373.85 Q225.949 1369.24 231.76 1369.24 Z" fill="#000000" fill-rule="evenodd" fill-opacity="1" /><path clip-path="url(#clip670)" d="M127.2 1065.51 Q123.589 1065.51 121.76 1069.08 Q119.955 1072.62 119.955 1079.75 Q119.955 1086.86 121.76 1090.42 Q123.589 1093.96 127.2 1093.96 Q130.834 1093.96 132.64 1090.42 Q134.468 1086.86 134.468 1079.75 Q134.468 1072.62 132.64 1069.08 Q130.834 1065.51 127.2 1065.51 M127.2 1061.81 Q133.01 1061.81 136.066 1066.42 Q139.144 1071 139.144 1079.75 Q139.144 1088.48 136.066 1093.08 Q133.01 1097.67 127.2 1097.67 Q121.39 1097.67 118.311 1093.08 Q115.256 1088.48 115.256 1079.75 Q115.256 1071 118.311 1066.42 Q121.39 1061.81 127.2 1061.81 Z" fill="#000000" fill-rule="evenodd" fill-opacity="1" /><path clip-path="url(#clip670)" d="M147.362 1091.11 L152.246 1091.11 L152.246 1096.99 L147.362 1096.99 L147.362 1091.11 Z" fill="#000000" fill-rule="evenodd" fill-opacity="1" /><path clip-path="url(#clip670)" d="M172.431 1065.51 Q168.82 1065.51 166.991 1069.08 Q165.186 1072.62 165.186 1079.75 Q165.186 1086.86 166.991 1090.42 Q168.82 1093.96 172.431 1093.96 Q176.065 1093.96 177.871 1090.42 Q179.7 1086.86 179.7 1079.75 Q179.7 1072.62 177.871 1069.08 Q176.065 1065.51 172.431 1065.51 M172.431 1061.81 Q178.241 1061.81 181.297 1066.42 Q184.376 1071 184.376 1079.75 Q184.376 1088.48 181.297 1093.08 Q178.241 1097.67 172.431 1097.67 Q166.621 1097.67 163.542 1093.08 Q160.487 1088.48 160.487 1079.75 Q160.487 1071 163.542 1066.42 Q166.621 1061.81 172.431 1061.81 Z" fill="#000000" fill-rule="evenodd" fill-opacity="1" /><path clip-path="url(#clip670)" d="M196.621 1093.06 L212.94 1093.06 L212.94 1096.99 L190.996 1096.99 L190.996 1093.06 Q193.658 1090.3 198.241 1085.68 Q202.848 1081.02 204.028 1079.68 Q206.274 1077.16 207.153 1075.42 Q208.056 1073.66 208.056 1071.97 Q208.056 1069.22 206.112 1067.48 Q204.19 1065.74 201.088 1065.74 Q198.889 1065.74 196.436 1066.51 Q194.005 1067.27 191.227 1068.82 L191.227 1064.1 Q194.051 1062.97 196.505 1062.39 Q198.959 1061.81 200.996 1061.81 Q206.366 1061.81 209.561 1064.49 Q212.755 1067.18 212.755 1071.67 Q212.755 1073.8 211.945 1075.72 Q211.158 1077.62 209.051 1080.21 Q208.473 1080.88 205.371 1084.1 Q202.269 1087.3 196.621 1093.06 Z" fill="#000000" fill-rule="evenodd" fill-opacity="1" /><path clip-path="url(#clip670)" d="M222.801 1062.43 L241.158 1062.43 L241.158 1066.37 L227.084 1066.37 L227.084 1074.84 Q228.102 1074.49 229.121 1074.33 Q230.139 1074.15 231.158 1074.15 Q236.945 1074.15 240.324 1077.32 Q243.704 1080.49 243.704 1085.91 Q243.704 1091.49 240.232 1094.59 Q236.76 1097.67 230.44 1097.67 Q228.264 1097.67 225.996 1097.3 Q223.75 1096.93 221.343 1096.18 L221.343 1091.49 Q223.426 1092.62 225.648 1093.18 Q227.871 1093.73 230.347 1093.73 Q234.352 1093.73 236.69 1091.62 Q239.028 1089.52 239.028 1085.91 Q239.028 1082.3 236.69 1080.19 Q234.352 1078.08 230.347 1078.08 Q228.473 1078.08 226.598 1078.5 Q224.746 1078.92 222.801 1079.8 L222.801 1062.43 Z" fill="#000000" fill-rule="evenodd" fill-opacity="1" /><path clip-path="url(#clip670)" d="M126.205 758.081 Q122.593 758.081 120.765 761.645 Q118.959 765.187 118.959 772.317 Q118.959 779.423 120.765 782.988 Q122.593 786.529 126.205 786.529 Q129.839 786.529 131.644 782.988 Q133.473 779.423 133.473 772.317 Q133.473 765.187 131.644 761.645 Q129.839 758.081 126.205 758.081 M126.205 754.377 Q132.015 754.377 135.07 758.983 Q138.149 763.567 138.149 772.317 Q138.149 781.043 135.07 785.65 Q132.015 790.233 126.205 790.233 Q120.394 790.233 117.316 785.65 Q114.26 781.043 114.26 772.317 Q114.26 763.567 117.316 758.983 Q120.394 754.377 126.205 754.377 Z" fill="#000000" fill-rule="evenodd" fill-opacity="1" /><path clip-path="url(#clip670)" d="M146.366 783.682 L151.251 783.682 L151.251 789.562 L146.366 789.562 L146.366 783.682 Z" fill="#000000" fill-rule="evenodd" fill-opacity="1" /><path clip-path="url(#clip670)" d="M171.436 758.081 Q167.825 758.081 165.996 761.645 Q164.19 765.187 164.19 772.317 Q164.19 779.423 165.996 782.988 Q167.825 786.529 171.436 786.529 Q175.07 786.529 176.876 782.988 Q178.704 779.423 178.704 772.317 Q178.704 765.187 176.876 761.645 Q175.07 758.081 171.436 758.081 M171.436 754.377 Q177.246 754.377 180.301 758.983 Q183.38 763.567 183.38 772.317 Q183.38 781.043 180.301 785.65 Q177.246 790.233 171.436 790.233 Q165.626 790.233 162.547 785.65 Q159.491 781.043 159.491 772.317 Q159.491 763.567 162.547 758.983 Q165.626 754.377 171.436 754.377 Z" fill="#000000" fill-rule="evenodd" fill-opacity="1" /><path clip-path="url(#clip670)" d="M191.644 755.002 L210 755.002 L210 758.937 L195.926 758.937 L195.926 767.409 Q196.945 767.062 197.963 766.9 Q198.982 766.715 200 766.715 Q205.787 766.715 209.167 769.886 Q212.547 773.057 212.547 778.474 Q212.547 784.053 209.074 787.154 Q205.602 790.233 199.283 790.233 Q197.107 790.233 194.838 789.863 Q192.593 789.492 190.186 788.752 L190.186 784.053 Q192.269 785.187 194.491 785.742 Q196.713 786.298 199.19 786.298 Q203.195 786.298 205.533 784.192 Q207.871 782.085 207.871 778.474 Q207.871 774.863 205.533 772.756 Q203.195 770.65 199.19 770.65 Q197.315 770.65 195.44 771.067 Q193.588 771.483 191.644 772.363 L191.644 755.002 Z" fill="#000000" fill-rule="evenodd" fill-opacity="1" /><path clip-path="url(#clip670)" d="M231.76 758.081 Q228.148 758.081 226.32 761.645 Q224.514 765.187 224.514 772.317 Q224.514 779.423 226.32 782.988 Q228.148 786.529 231.76 786.529 Q235.394 786.529 237.199 782.988 Q239.028 779.423 239.028 772.317 Q239.028 765.187 237.199 761.645 Q235.394 758.081 231.76 758.081 M231.76 754.377 Q237.57 754.377 240.625 758.983 Q243.704 763.567 243.704 772.317 Q243.704 781.043 240.625 785.65 Q237.57 790.233 231.76 790.233 Q225.949 790.233 222.871 785.65 Q219.815 781.043 219.815 772.317 Q219.815 763.567 222.871 758.983 Q225.949 754.377 231.76 754.377 Z" fill="#000000" fill-rule="evenodd" fill-opacity="1" /><path clip-path="url(#clip670)" d="M127.2 450.648 Q123.589 450.648 121.76 454.213 Q119.955 457.754 119.955 464.884 Q119.955 471.99 121.76 475.555 Q123.589 479.097 127.2 479.097 Q130.834 479.097 132.64 475.555 Q134.468 471.99 134.468 464.884 Q134.468 457.754 132.64 454.213 Q130.834 450.648 127.2 450.648 M127.2 446.944 Q133.01 446.944 136.066 451.551 Q139.144 456.134 139.144 464.884 Q139.144 473.611 136.066 478.217 Q133.01 482.8 127.2 482.8 Q121.39 482.8 118.311 478.217 Q115.256 473.611 115.256 464.884 Q115.256 456.134 118.311 451.551 Q121.39 446.944 127.2 446.944 Z" fill="#000000" fill-rule="evenodd" fill-opacity="1" /><path clip-path="url(#clip670)" d="M147.362 476.25 L152.246 476.25 L152.246 482.129 L147.362 482.129 L147.362 476.25 Z" fill="#000000" fill-rule="evenodd" fill-opacity="1" /><path clip-path="url(#clip670)" d="M172.431 450.648 Q168.82 450.648 166.991 454.213 Q165.186 457.754 165.186 464.884 Q165.186 471.99 166.991 475.555 Q168.82 479.097 172.431 479.097 Q176.065 479.097 177.871 475.555 Q179.7 471.99 179.7 464.884 Q179.7 457.754 177.871 454.213 Q176.065 450.648 172.431 450.648 M172.431 446.944 Q178.241 446.944 181.297 451.551 Q184.376 456.134 184.376 464.884 Q184.376 473.611 181.297 478.217 Q178.241 482.8 172.431 482.8 Q166.621 482.8 163.542 478.217 Q160.487 473.611 160.487 464.884 Q160.487 456.134 163.542 451.551 Q166.621 446.944 172.431 446.944 Z" fill="#000000" fill-rule="evenodd" fill-opacity="1" /><path clip-path="url(#clip670)" d="M191.413 447.569 L213.635 447.569 L213.635 449.56 L201.088 482.129 L196.204 482.129 L208.01 451.504 L191.413 451.504 L191.413 447.569 Z" fill="#000000" fill-rule="evenodd" fill-opacity="1" /><path clip-path="url(#clip670)" d="M222.801 447.569 L241.158 447.569 L241.158 451.504 L227.084 451.504 L227.084 459.976 Q228.102 459.629 229.121 459.467 Q230.139 459.282 231.158 459.282 Q236.945 459.282 240.324 462.453 Q243.704 465.625 243.704 471.041 Q243.704 476.62 240.232 479.722 Q236.76 482.8 230.44 482.8 Q228.264 482.8 225.996 482.43 Q223.75 482.06 221.343 481.319 L221.343 476.62 Q223.426 477.754 225.648 478.31 Q227.871 478.865 230.347 478.865 Q234.352 478.865 236.69 476.759 Q239.028 474.652 239.028 471.041 Q239.028 467.43 236.69 465.324 Q234.352 463.217 230.347 463.217 Q228.473 463.217 226.598 463.634 Q224.746 464.051 222.801 464.93 L222.801 447.569 Z" fill="#000000" fill-rule="evenodd" fill-opacity="1" /><path clip-path="url(#clip670)" d="M126.205 143.215 Q122.593 143.215 120.765 146.78 Q118.959 150.322 118.959 157.451 Q118.959 164.558 120.765 168.122 Q122.593 171.664 126.205 171.664 Q129.839 171.664 131.644 168.122 Q133.473 164.558 133.473 157.451 Q133.473 150.322 131.644 146.78 Q129.839 143.215 126.205 143.215 M126.205 139.511 Q132.015 139.511 135.07 144.118 Q138.149 148.701 138.149 157.451 Q138.149 166.178 135.07 170.784 Q132.015 175.368 126.205 175.368 Q120.394 175.368 117.316 170.784 Q114.26 166.178 114.26 157.451 Q114.26 148.701 117.316 144.118 Q120.394 139.511 126.205 139.511 Z" fill="#000000" fill-rule="evenodd" fill-opacity="1" /><path clip-path="url(#clip670)" d="M146.366 168.817 L151.251 168.817 L151.251 174.696 L146.366 174.696 L146.366 168.817 Z" fill="#000000" fill-rule="evenodd" fill-opacity="1" /><path clip-path="url(#clip670)" d="M162.246 170.761 L169.885 170.761 L169.885 144.396 L161.575 146.062 L161.575 141.803 L169.839 140.136 L174.514 140.136 L174.514 170.761 L182.153 170.761 L182.153 174.696 L162.246 174.696 L162.246 170.761 Z" fill="#000000" fill-rule="evenodd" fill-opacity="1" /><path clip-path="url(#clip670)" d="M201.598 143.215 Q197.987 143.215 196.158 146.78 Q194.352 150.322 194.352 157.451 Q194.352 164.558 196.158 168.122 Q197.987 171.664 201.598 171.664 Q205.232 171.664 207.037 168.122 Q208.866 164.558 208.866 157.451 Q208.866 150.322 207.037 146.78 Q205.232 143.215 201.598 143.215 M201.598 139.511 Q207.408 139.511 210.463 144.118 Q213.542 148.701 213.542 157.451 Q213.542 166.178 210.463 170.784 Q207.408 175.368 201.598 175.368 Q195.787 175.368 192.709 170.784 Q189.653 166.178 189.653 157.451 Q189.653 148.701 192.709 144.118 Q195.787 139.511 201.598 139.511 Z" fill="#000000" fill-rule="evenodd" fill-opacity="1" /><path clip-path="url(#clip670)" d="M231.76 143.215 Q228.148 143.215 226.32 146.78 Q224.514 150.322 224.514 157.451 Q224.514 164.558 226.32 168.122 Q228.148 171.664 231.76 171.664 Q235.394 171.664 237.199 168.122 Q239.028 164.558 239.028 157.451 Q239.028 150.322 237.199 146.78 Q235.394 143.215 231.76 143.215 M231.76 139.511 Q237.57 139.511 240.625 144.118 Q243.704 148.701 243.704 157.451 Q243.704 166.178 240.625 170.784 Q237.57 175.368 231.76 175.368 Q225.949 175.368 222.871 170.784 Q219.815 166.178 219.815 157.451 Q219.815 148.701 222.871 144.118 Q225.949 139.511 231.76 139.511 Z" fill="#000000" fill-rule="evenodd" fill-opacity="1" /><path clip-path="url(#clip670)" d="M28.3562 814.719 L28.3562 808.863 L64.0042 808.863 L64.0042 814.719 L28.3562 814.719 M14.479 814.719 L14.479 808.863 L21.895 808.863 L21.895 814.719 L14.479 814.719 Z" fill="#000000" fill-rule="evenodd" fill-opacity="1" /><path clip-path="url(#clip670)" d="M14.5426 782.54 Q21.8632 786.805 29.0246 788.874 Q36.186 790.943 43.5384 790.943 Q50.8908 790.943 58.1159 788.874 Q65.3091 786.774 72.5979 782.54 L72.5979 787.633 Q65.1182 792.407 57.8931 794.794 Q50.668 797.15 43.5384 797.15 Q36.4406 797.15 29.2474 794.794 Q22.0542 792.439 14.5426 787.633 L14.5426 782.54 Z" fill="#000000" fill-rule="evenodd" fill-opacity="1" /><path clip-path="url(#clip670)" d="M18.2347 765.385 L28.3562 765.385 L28.3562 753.322 L32.9077 753.322 L32.9077 765.385 L52.2594 765.385 Q56.6199 765.385 57.8613 764.207 Q59.1026 762.998 59.1026 759.337 L59.1026 753.322 L64.0042 753.322 L64.0042 759.337 Q64.0042 766.117 61.4897 768.695 Q58.9434 771.273 52.2594 771.273 L32.9077 771.273 L32.9077 775.57 L28.3562 775.57 L28.3562 771.273 L18.2347 771.273 L18.2347 765.385 Z" fill="#000000" fill-rule="evenodd" fill-opacity="1" /><path clip-path="url(#clip670)" d="M14.5426 746.542 L14.5426 741.45 Q22.0542 736.675 29.2474 734.32 Q36.4406 731.933 43.5384 731.933 Q50.668 731.933 57.8931 734.32 Q65.1182 736.675 72.5979 741.45 L72.5979 746.542 Q65.3091 742.309 58.1159 740.24 Q50.8908 738.14 43.5384 738.14 Q36.186 738.14 29.0246 740.24 Q21.8632 742.309 14.5426 746.542 Z" fill="#000000" fill-rule="evenodd" fill-opacity="1" /><path clip-path="url(#clip670)" d="M666.222 17.6457 Q657.31 17.6457 652.044 24.2892 Q646.818 30.9327 646.818 42.3968 Q646.818 53.8203 652.044 60.4638 Q657.31 67.1073 666.222 67.1073 Q675.134 67.1073 680.319 60.4638 Q685.545 53.8203 685.545 42.3968 Q685.545 30.9327 680.319 24.2892 Q675.134 17.6457 666.222 17.6457 M677.686 71.4823 L688.461 83.2704 L678.577 83.2704 L669.625 73.5887 Q668.288 73.6697 667.559 73.7103 Q666.87 73.7508 666.222 73.7508 Q653.461 73.7508 645.805 65.2439 Q638.19 56.6965 638.19 42.3968 Q638.19 28.0566 645.805 19.5497 Q653.461 11.0023 666.222 11.0023 Q678.942 11.0023 686.557 19.5497 Q694.173 28.0566 694.173 42.3968 Q694.173 52.9291 689.92 60.4233 Q685.707 67.9175 677.686 71.4823 Z" fill="#000000" fill-rule="evenodd" fill-opacity="1" /><path clip-path="url(#clip670)" d="M705.88 54.671 L705.88 27.2059 L713.334 27.2059 L713.334 54.3874 Q713.334 60.8284 715.845 64.0691 Q718.357 67.2693 723.38 67.2693 Q729.416 67.2693 732.9 63.421 Q736.424 59.5726 736.424 52.9291 L736.424 27.2059 L743.878 27.2059 L743.878 72.576 L736.424 72.576 L736.424 65.6084 Q733.71 69.7404 730.105 71.7658 Q726.54 73.7508 721.8 73.7508 Q713.982 73.7508 709.931 68.8897 Q705.88 64.0286 705.88 54.671 M724.636 26.1121 L724.636 26.1121 Z" fill="#000000" fill-rule="evenodd" fill-opacity="1" /><path clip-path="url(#clip670)" d="M779.85 49.7694 Q770.816 49.7694 767.332 51.8354 Q763.849 53.9013 763.849 58.8839 Q763.849 62.8538 766.441 65.2034 Q769.074 67.5124 773.571 67.5124 Q779.769 67.5124 783.495 63.1374 Q787.263 58.7219 787.263 51.4303 L787.263 49.7694 L779.85 49.7694 M794.716 46.6907 L794.716 72.576 L787.263 72.576 L787.263 65.6895 Q784.711 69.8214 780.903 71.8063 Q777.095 73.7508 771.586 73.7508 Q764.618 73.7508 760.486 69.8619 Q756.395 65.9325 756.395 59.3701 Q756.395 51.7138 761.499 47.825 Q766.644 43.9361 776.812 43.9361 L787.263 43.9361 L787.263 43.2069 Q787.263 38.0623 783.86 35.2672 Q780.498 32.4315 774.381 32.4315 Q770.492 32.4315 766.806 33.3632 Q763.119 34.295 759.717 36.1584 L759.717 29.2718 Q763.808 27.692 767.656 26.9223 Q771.505 26.1121 775.151 26.1121 Q784.994 26.1121 789.855 31.2163 Q794.716 36.3204 794.716 46.6907 Z" fill="#000000" fill-rule="evenodd" fill-opacity="1" /><path clip-path="url(#clip670)" d="M847.783 45.1919 L847.783 72.576 L840.33 72.576 L840.33 45.4349 Q840.33 38.994 837.818 35.7938 Q835.307 32.5936 830.283 32.5936 Q824.248 32.5936 820.764 36.4419 Q817.28 40.2903 817.28 46.9338 L817.28 72.576 L809.786 72.576 L809.786 27.2059 L817.28 27.2059 L817.28 34.2544 Q819.954 30.163 823.559 28.1376 Q827.205 26.1121 831.944 26.1121 Q839.763 26.1121 843.773 30.9732 Q847.783 35.7938 847.783 45.1919 Z" fill="#000000" fill-rule="evenodd" fill-opacity="1" /><path clip-path="url(#clip670)" d="M870.023 14.324 L870.023 27.2059 L885.376 27.2059 L885.376 32.9987 L870.023 32.9987 L870.023 57.6282 Q870.023 63.1779 871.522 64.7578 Q873.061 66.3376 877.72 66.3376 L885.376 66.3376 L885.376 72.576 L877.72 72.576 Q869.091 72.576 865.81 69.3758 Q862.529 66.1351 862.529 57.6282 L862.529 32.9987 L857.06 32.9987 L857.06 27.2059 L862.529 27.2059 L862.529 14.324 L870.023 14.324 Z" fill="#000000" fill-rule="evenodd" fill-opacity="1" /><path clip-path="url(#clip670)" d="M895.179 27.2059 L902.633 27.2059 L902.633 72.576 L895.179 72.576 L895.179 27.2059 M895.179 9.54393 L902.633 9.54393 L902.633 18.9825 L895.179 18.9825 L895.179 9.54393 Z" fill="#000000" fill-rule="evenodd" fill-opacity="1" /><path clip-path="url(#clip670)" d="M918.229 9.54393 L925.682 9.54393 L925.682 72.576 L918.229 72.576 L918.229 9.54393 Z" fill="#000000" fill-rule="evenodd" fill-opacity="1" /><path clip-path="url(#clip670)" d="M980.086 48.0275 L980.086 51.6733 L945.815 51.6733 Q946.301 59.3701 950.433 63.421 Q954.606 67.4314 962.019 67.4314 Q966.313 67.4314 970.323 66.3781 Q974.374 65.3249 978.344 63.2184 L978.344 70.267 Q974.334 71.9684 970.121 72.8596 Q965.908 73.7508 961.573 73.7508 Q950.717 73.7508 944.357 67.4314 Q938.037 61.1119 938.037 50.3365 Q938.037 39.1965 944.033 32.6746 Q950.069 26.1121 960.277 26.1121 Q969.432 26.1121 974.739 32.0264 Q980.086 37.9003 980.086 48.0275 M972.632 45.84 Q972.551 39.7232 969.189 36.0774 Q965.867 32.4315 960.358 32.4315 Q954.12 32.4315 950.352 35.9558 Q946.625 39.4801 946.058 45.8805 L972.632 45.84 Z" fill="#000000" fill-rule="evenodd" fill-opacity="1" /><path clip-path="url(#clip670)" d="M1021.24 28.5427 L1021.24 35.5912 Q1018.08 33.9709 1014.68 33.1607 Q1011.28 32.3505 1007.63 32.3505 Q1002.08 32.3505 999.287 34.0519 Q996.533 35.7533 996.533 39.156 Q996.533 41.7486 998.517 43.2475 Q1000.5 44.7058 1006.5 46.0426 L1009.05 46.6097 Q1016.99 48.3111 1020.31 51.4303 Q1023.67 54.509 1023.67 60.0587 Q1023.67 66.3781 1018.65 70.0644 Q1013.67 73.7508 1004.92 73.7508 Q1001.27 73.7508 997.302 73.0216 Q993.373 72.3329 988.998 70.9151 L988.998 63.2184 Q993.13 65.3654 997.14 66.4591 Q1001.15 67.5124 1005.08 67.5124 Q1010.35 67.5124 1013.18 65.73 Q1016.02 63.9071 1016.02 60.6258 Q1016.02 57.5877 1013.95 55.9673 Q1011.93 54.3469 1005 52.8481 L1002.41 52.2405 Q995.479 50.7821 992.401 47.7845 Q989.322 44.7463 989.322 39.4801 Q989.322 33.0797 993.859 29.5959 Q998.396 26.1121 1006.74 26.1121 Q1010.87 26.1121 1014.52 26.7198 Q1018.16 27.3274 1021.24 28.5427 Z" fill="#000000" fill-rule="evenodd" fill-opacity="1" /><path clip-path="url(#clip670)" d="M1079.5 32.4315 Q1073.5 32.4315 1070.02 37.1306 Q1066.53 41.7891 1066.53 49.9314 Q1066.53 58.0738 1069.98 62.7728 Q1073.46 67.4314 1079.5 67.4314 Q1085.45 67.4314 1088.93 62.7323 Q1092.42 58.0333 1092.42 49.9314 Q1092.42 41.8701 1088.93 37.1711 Q1085.45 32.4315 1079.5 32.4315 M1079.5 26.1121 Q1089.22 26.1121 1094.77 32.4315 Q1100.32 38.7509 1100.32 49.9314 Q1100.32 61.0714 1094.77 67.4314 Q1089.22 73.7508 1079.5 73.7508 Q1069.73 73.7508 1064.18 67.4314 Q1058.67 61.0714 1058.67 49.9314 Q1058.67 38.7509 1064.18 32.4315 Q1069.73 26.1121 1079.5 26.1121 Z" fill="#000000" fill-rule="evenodd" fill-opacity="1" /><path clip-path="url(#clip670)" d="M1135.64 9.54393 L1135.64 15.7418 L1128.51 15.7418 Q1124.5 15.7418 1122.92 17.3622 Q1121.38 18.9825 1121.38 23.1955 L1121.38 27.2059 L1133.66 27.2059 L1133.66 32.9987 L1121.38 32.9987 L1121.38 72.576 L1113.89 72.576 L1113.89 32.9987 L1106.76 32.9987 L1106.76 27.2059 L1113.89 27.2059 L1113.89 24.0462 Q1113.89 16.471 1117.41 13.0277 Q1120.94 9.54393 1128.59 9.54393 L1135.64 9.54393 Z" fill="#000000" fill-rule="evenodd" fill-opacity="1" /><path clip-path="url(#clip670)" d="M1168.57 12.096 L1176.76 12.096 L1176.76 72.576 L1168.57 72.576 L1168.57 12.096 Z" fill="#000000" fill-rule="evenodd" fill-opacity="1" /><path clip-path="url(#clip670)" d="M1230.43 45.1919 L1230.43 72.576 L1222.98 72.576 L1222.98 45.4349 Q1222.98 38.994 1220.47 35.7938 Q1217.95 32.5936 1212.93 32.5936 Q1206.9 32.5936 1203.41 36.4419 Q1199.93 40.2903 1199.93 46.9338 L1199.93 72.576 L1192.43 72.576 L1192.43 27.2059 L1199.93 27.2059 L1199.93 34.2544 Q1202.6 30.163 1206.21 28.1376 Q1209.85 26.1121 1214.59 26.1121 Q1222.41 26.1121 1226.42 30.9732 Q1230.43 35.7938 1230.43 45.1919 Z" fill="#000000" fill-rule="evenodd" fill-opacity="1" /><path clip-path="url(#clip670)" d="M1268.27 9.54393 L1268.27 15.7418 L1261.14 15.7418 Q1257.13 15.7418 1255.55 17.3622 Q1254.01 18.9825 1254.01 23.1955 L1254.01 27.2059 L1266.28 27.2059 L1266.28 32.9987 L1254.01 32.9987 L1254.01 72.576 L1246.51 72.576 L1246.51 32.9987 L1239.38 32.9987 L1239.38 27.2059 L1246.51 27.2059 L1246.51 24.0462 Q1246.51 16.471 1250.04 13.0277 Q1253.56 9.54393 1261.22 9.54393 L1268.27 9.54393 Z" fill="#000000" fill-rule="evenodd" fill-opacity="1" /><path clip-path="url(#clip670)" d="M1313.31 48.0275 L1313.31 51.6733 L1279.04 51.6733 Q1279.53 59.3701 1283.66 63.421 Q1287.83 67.4314 1295.25 67.4314 Q1299.54 67.4314 1303.55 66.3781 Q1307.6 65.3249 1311.57 63.2184 L1311.57 70.267 Q1307.56 71.9684 1303.35 72.8596 Q1299.14 73.7508 1294.8 73.7508 Q1283.94 73.7508 1277.58 67.4314 Q1271.26 61.1119 1271.26 50.3365 Q1271.26 39.1965 1277.26 32.6746 Q1283.3 26.1121 1293.5 26.1121 Q1302.66 26.1121 1307.97 32.0264 Q1313.31 37.9003 1313.31 48.0275 M1305.86 45.84 Q1305.78 39.7232 1302.42 36.0774 Q1299.09 32.4315 1293.59 32.4315 Q1287.35 32.4315 1283.58 35.9558 Q1279.85 39.4801 1279.29 45.8805 L1305.86 45.84 Z" fill="#000000" fill-rule="evenodd" fill-opacity="1" /><path clip-path="url(#clip670)" d="M1358.2 28.9478 L1358.2 35.9153 Q1355.04 34.1734 1351.84 33.3227 Q1348.68 32.4315 1345.44 32.4315 Q1338.19 32.4315 1334.18 37.0496 Q1330.17 41.6271 1330.17 49.9314 Q1330.17 58.2358 1334.18 62.8538 Q1338.19 67.4314 1345.44 67.4314 Q1348.68 67.4314 1351.84 66.5807 Q1355.04 65.6895 1358.2 63.9476 L1358.2 70.8341 Q1355.08 72.2924 1351.72 73.0216 Q1348.39 73.7508 1344.63 73.7508 Q1334.38 73.7508 1328.34 67.3098 Q1322.31 60.8689 1322.31 49.9314 Q1322.31 38.832 1328.38 32.472 Q1334.5 26.1121 1345.11 26.1121 Q1348.56 26.1121 1351.84 26.8413 Q1355.12 27.5299 1358.2 28.9478 Z" fill="#000000" fill-rule="evenodd" fill-opacity="1" /><path clip-path="url(#clip670)" d="M1378.53 14.324 L1378.53 27.2059 L1393.89 27.2059 L1393.89 32.9987 L1378.53 32.9987 L1378.53 57.6282 Q1378.53 63.1779 1380.03 64.7578 Q1381.57 66.3376 1386.23 66.3376 L1393.89 66.3376 L1393.89 72.576 L1386.23 72.576 Q1377.6 72.576 1374.32 69.3758 Q1371.04 66.1351 1371.04 57.6282 L1371.04 32.9987 L1365.57 32.9987 L1365.57 27.2059 L1371.04 27.2059 L1371.04 14.324 L1378.53 14.324 Z" fill="#000000" fill-rule="evenodd" fill-opacity="1" /><path clip-path="url(#clip670)" d="M1403.69 27.2059 L1411.14 27.2059 L1411.14 72.576 L1403.69 72.576 L1403.69 27.2059 M1403.69 9.54393 L1411.14 9.54393 L1411.14 18.9825 L1403.69 18.9825 L1403.69 9.54393 Z" fill="#000000" fill-rule="evenodd" fill-opacity="1" /><path clip-path="url(#clip670)" d="M1444.32 32.4315 Q1438.32 32.4315 1434.84 37.1306 Q1431.36 41.7891 1431.36 49.9314 Q1431.36 58.0738 1434.8 62.7728 Q1438.28 67.4314 1444.32 67.4314 Q1450.27 67.4314 1453.76 62.7323 Q1457.24 58.0333 1457.24 49.9314 Q1457.24 41.8701 1453.76 37.1711 Q1450.27 32.4315 1444.32 32.4315 M1444.32 26.1121 Q1454.04 26.1121 1459.59 32.4315 Q1465.14 38.7509 1465.14 49.9314 Q1465.14 61.0714 1459.59 67.4314 Q1454.04 73.7508 1444.32 73.7508 Q1434.56 73.7508 1429.01 67.4314 Q1423.5 61.0714 1423.5 49.9314 Q1423.5 38.7509 1429.01 32.4315 Q1434.56 26.1121 1444.32 26.1121 Z" fill="#000000" fill-rule="evenodd" fill-opacity="1" /><path clip-path="url(#clip670)" d="M1515.21 45.1919 L1515.21 72.576 L1507.76 72.576 L1507.76 45.4349 Q1507.76 38.994 1505.25 35.7938 Q1502.73 32.5936 1497.71 32.5936 Q1491.67 32.5936 1488.19 36.4419 Q1484.71 40.2903 1484.71 46.9338 L1484.71 72.576 L1477.21 72.576 L1477.21 27.2059 L1484.71 27.2059 L1484.71 34.2544 Q1487.38 30.163 1490.99 28.1376 Q1494.63 26.1121 1499.37 26.1121 Q1507.19 26.1121 1511.2 30.9732 Q1515.21 35.7938 1515.21 45.1919 Z" fill="#000000" fill-rule="evenodd" fill-opacity="1" /><path clip-path="url(#clip670)" d="M1559 28.5427 L1559 35.5912 Q1555.84 33.9709 1552.44 33.1607 Q1549.04 32.3505 1545.39 32.3505 Q1539.84 32.3505 1537.04 34.0519 Q1534.29 35.7533 1534.29 39.156 Q1534.29 41.7486 1536.28 43.2475 Q1538.26 44.7058 1544.26 46.0426 L1546.81 46.6097 Q1554.75 48.3111 1558.07 51.4303 Q1561.43 54.509 1561.43 60.0587 Q1561.43 66.3781 1556.41 70.0644 Q1551.43 73.7508 1542.68 73.7508 Q1539.03 73.7508 1535.06 73.0216 Q1531.13 72.3329 1526.76 70.9151 L1526.76 63.2184 Q1530.89 65.3654 1534.9 66.4591 Q1538.91 67.5124 1542.84 67.5124 Q1548.1 67.5124 1550.94 65.73 Q1553.77 63.9071 1553.77 60.6258 Q1553.77 57.5877 1551.71 55.9673 Q1549.68 54.3469 1542.76 52.8481 L1540.16 52.2405 Q1533.24 50.7821 1530.16 47.7845 Q1527.08 44.7463 1527.08 39.4801 Q1527.08 33.0797 1531.62 29.5959 Q1536.15 26.1121 1544.5 26.1121 Q1548.63 26.1121 1552.28 26.7198 Q1555.92 27.3274 1559 28.5427 Z" fill="#000000" fill-rule="evenodd" fill-opacity="1" /><path clip-path="url(#clip670)" d="M1600 12.096 L1638.24 12.096 L1638.24 18.9825 L1608.18 18.9825 L1608.18 36.8875 L1636.98 36.8875 L1636.98 43.7741 L1608.18 43.7741 L1608.18 65.6895 L1638.97 65.6895 L1638.97 72.576 L1600 72.576 L1600 12.096 Z" fill="#000000" fill-rule="evenodd" fill-opacity="1" /><path clip-path="url(#clip670)" d="M1689.8 45.1919 L1689.8 72.576 L1682.35 72.576 L1682.35 45.4349 Q1682.35 38.994 1679.84 35.7938 Q1677.33 32.5936 1672.3 32.5936 Q1666.27 32.5936 1662.78 36.4419 Q1659.3 40.2903 1659.3 46.9338 L1659.3 72.576 L1651.81 72.576 L1651.81 27.2059 L1659.3 27.2059 L1659.3 34.2544 Q1661.97 30.163 1665.58 28.1376 Q1669.23 26.1121 1673.97 26.1121 Q1681.78 26.1121 1685.79 30.9732 Q1689.8 35.7938 1689.8 45.1919 Z" fill="#000000" fill-rule="evenodd" fill-opacity="1" /><path clip-path="url(#clip670)" d="M1733.59 28.5427 L1733.59 35.5912 Q1730.43 33.9709 1727.03 33.1607 Q1723.63 32.3505 1719.98 32.3505 Q1714.43 32.3505 1711.64 34.0519 Q1708.88 35.7533 1708.88 39.156 Q1708.88 41.7486 1710.87 43.2475 Q1712.85 44.7058 1718.85 46.0426 L1721.4 46.6097 Q1729.34 48.3111 1732.66 51.4303 Q1736.03 54.509 1736.03 60.0587 Q1736.03 66.3781 1731 70.0644 Q1726.02 73.7508 1717.27 73.7508 Q1713.62 73.7508 1709.65 73.0216 Q1705.72 72.3329 1701.35 70.9151 L1701.35 63.2184 Q1705.48 65.3654 1709.49 66.4591 Q1713.5 67.5124 1717.43 67.5124 Q1722.7 67.5124 1725.53 65.73 Q1728.37 63.9071 1728.37 60.6258 Q1728.37 57.5877 1726.3 55.9673 Q1724.28 54.3469 1717.35 52.8481 L1714.76 52.2405 Q1707.83 50.7821 1704.75 47.7845 Q1701.67 44.7463 1701.67 39.4801 Q1701.67 33.0797 1706.21 29.5959 Q1710.75 26.1121 1719.09 26.1121 Q1723.22 26.1121 1726.87 26.7198 Q1730.52 27.3274 1733.59 28.5427 Z" fill="#000000" fill-rule="evenodd" fill-opacity="1" /><path clip-path="url(#clip670)" d="M1786.7 48.0275 L1786.7 51.6733 L1752.43 51.6733 Q1752.92 59.3701 1757.05 63.421 Q1761.22 67.4314 1768.63 67.4314 Q1772.93 67.4314 1776.94 66.3781 Q1780.99 65.3249 1784.96 63.2184 L1784.96 70.267 Q1780.95 71.9684 1776.74 72.8596 Q1772.52 73.7508 1768.19 73.7508 Q1757.33 73.7508 1750.97 67.4314 Q1744.65 61.1119 1744.65 50.3365 Q1744.65 39.1965 1750.65 32.6746 Q1756.68 26.1121 1766.89 26.1121 Q1776.05 26.1121 1781.35 32.0264 Q1786.7 37.9003 1786.7 48.0275 M1779.25 45.84 Q1779.17 39.7232 1775.8 36.0774 Q1772.48 32.4315 1766.97 32.4315 Q1760.74 32.4315 1756.97 35.9558 Q1753.24 39.4801 1752.67 45.8805 L1779.25 45.84 Z" fill="#000000" fill-rule="evenodd" fill-opacity="1" /><path clip-path="url(#clip670)" d="M1834.26 35.9153 Q1837.05 30.8922 1840.94 28.5022 Q1844.83 26.1121 1850.1 26.1121 Q1857.19 26.1121 1861.04 31.0947 Q1864.88 36.0368 1864.88 45.1919 L1864.88 72.576 L1857.39 72.576 L1857.39 45.4349 Q1857.39 38.913 1855.08 35.7533 Q1852.77 32.5936 1848.03 32.5936 Q1842.24 32.5936 1838.88 36.4419 Q1835.52 40.2903 1835.52 46.9338 L1835.52 72.576 L1828.02 72.576 L1828.02 45.4349 Q1828.02 38.8725 1825.71 35.7533 Q1823.4 32.5936 1818.58 32.5936 Q1812.87 32.5936 1809.51 36.4824 Q1806.15 40.3308 1806.15 46.9338 L1806.15 72.576 L1798.65 72.576 L1798.65 27.2059 L1806.15 27.2059 L1806.15 34.2544 Q1808.7 30.082 1812.26 28.0971 Q1815.83 26.1121 1820.73 26.1121 Q1825.67 26.1121 1829.11 28.6237 Q1832.6 31.1352 1834.26 35.9153 Z" fill="#000000" fill-rule="evenodd" fill-opacity="1" /><path clip-path="url(#clip670)" d="M1912.32 49.9314 Q1912.32 41.7081 1908.92 37.0496 Q1905.56 32.3505 1899.64 32.3505 Q1893.73 32.3505 1890.32 37.0496 Q1886.96 41.7081 1886.96 49.9314 Q1886.96 58.1548 1890.32 62.8538 Q1893.73 67.5124 1899.64 67.5124 Q1905.56 67.5124 1908.92 62.8538 Q1912.32 58.1548 1912.32 49.9314 M1886.96 34.0924 Q1889.31 30.0415 1892.88 28.0971 Q1896.48 26.1121 1901.46 26.1121 Q1909.73 26.1121 1914.87 32.6746 Q1920.06 39.2371 1920.06 49.9314 Q1920.06 60.6258 1914.87 67.1883 Q1909.73 73.7508 1901.46 73.7508 Q1896.48 73.7508 1892.88 71.8063 Q1889.31 69.8214 1886.96 65.7705 L1886.96 72.576 L1879.47 72.576 L1879.47 9.54393 L1886.96 9.54393 L1886.96 34.0924 Z" fill="#000000" fill-rule="evenodd" fill-opacity="1" /><path clip-path="url(#clip670)" d="M1932.41 9.54393 L1939.87 9.54393 L1939.87 72.576 L1932.41 72.576 L1932.41 9.54393 Z" fill="#000000" fill-rule="evenodd" fill-opacity="1" /><path clip-path="url(#clip670)" d="M1994.27 48.0275 L1994.27 51.6733 L1960 51.6733 Q1960.49 59.3701 1964.62 63.421 Q1968.79 67.4314 1976.2 67.4314 Q1980.5 67.4314 1984.51 66.3781 Q1988.56 65.3249 1992.53 63.2184 L1992.53 70.267 Q1988.52 71.9684 1984.31 72.8596 Q1980.09 73.7508 1975.76 73.7508 Q1964.9 73.7508 1958.54 67.4314 Q1952.22 61.1119 1952.22 50.3365 Q1952.22 39.1965 1958.22 32.6746 Q1964.25 26.1121 1974.46 26.1121 Q1983.62 26.1121 1988.92 32.0264 Q1994.27 37.9003 1994.27 48.0275 M1986.82 45.84 Q1986.74 39.7232 1983.37 36.0774 Q1980.05 32.4315 1974.54 32.4315 Q1968.3 32.4315 1964.54 35.9558 Q1960.81 39.4801 1960.24 45.8805 L1986.82 45.84 Z" fill="#000000" fill-rule="evenodd" fill-opacity="1" /><path clip-path="url(#clip672)" d="
M338.375 1386.22 L338.428 1386.22 L338.44 1386.22 L338.455 1386.22 L338.471 1386.22 L338.488 1386.22 L338.509 1386.22 L338.531 1386.22 L338.557 1386.22 L338.586 1386.22 
  L338.618 1386.22 L338.654 1386.22 L338.695 1386.22 L338.741 1386.22 L338.793 1386.22 L338.852 1386.22 L338.917 1386.22 L338.991 1386.22 L339.074 1386.22 L339.167 1386.22 
  L339.272 1386.22 L339.391 1386.22 L339.524 1386.22 L339.673 1386.23 L339.842 1386.23 L340.031 1386.23 L340.24 1386.23 L340.467 1386.23 L340.71 1386.23 L340.969 1386.23 
  L341.244 1386.24 L341.533 1386.24 L341.836 1386.24 L342.152 1386.24 L342.481 1386.24 L342.822 1386.25 L343.173 1386.25 L343.534 1386.25 L343.902 1386.25 L344.277 1386.26 
  L344.655 1386.26 L345.039 1386.26 L345.427 1386.26 L345.82 1386.27 L346.218 1386.27 L346.62 1386.27 L347.03 1386.27 L347.445 1386.27 L347.863 1386.28 L348.288 1386.28 
  L348.719 1386.28 L349.159 1386.28 L349.606 1386.29 L350.059 1386.29 L350.514 1386.29 L350.972 1386.29 L351.429 1386.3 L351.883 1386.3 L352.34 1386.3 L352.802 1386.3 
  L353.265 1386.31 L353.732 1386.31 L354.207 1386.31 L354.69 1386.31 L355.18 1386.31 L355.673 1386.32 L356.172 1386.32 L356.678 1386.32 L357.193 1386.32 L357.713 1386.33 
  L358.239 1386.33 L358.77 1386.33 L359.305 1386.33 L359.848 1386.33 L360.391 1386.34 L360.938 1386.34 L361.492 1386.34 L362.051 1386.34 L362.62 1386.34 L363.197 1386.35 
  L363.78 1386.35 L364.373 1386.35 L364.971 1386.35 L365.568 1386.35 L366.164 1386.35 L366.765 1386.35 L367.366 1386.36 L367.971 1386.36 L368.579 1386.36 L369.187 1386.36 
  L369.804 1386.36 L370.428 1386.36 L371.062 1386.36 L371.708 1386.37 L372.358 1386.37 L373.019 1386.37 L373.699 1386.37 L374.39 1386.37 L375.087 1386.37 L375.787 1386.37 
  L376.492 1386.38 L377.203 1386.38 L377.928 1386.38 L378.669 1386.38 L379.423 1386.38 L380.186 1386.38 L380.959 1386.38 L381.737 1386.38 L382.522 1386.38 L383.315 1386.39 
  L384.117 1386.39 L384.922 1386.39 L385.744 1386.39 L386.579 1386.39 L387.421 1386.39 L388.286 1386.39 L389.173 1386.39 L390.084 1386.39 L391.018 1386.39 L391.979 1386.39 
  L392.99 1386.39 L394.037 1386.39 L395.109 1386.4 L396.214 1386.4 L397.356 1386.4 L398.529 1386.39 L399.748 1386.39 L401.017 1386.39 L402.308 1386.39 L403.637 1386.39 
  L404.976 1386.39 L406.344 1386.38 L407.733 1386.38 L409.162 1386.38 L410.653 1386.38 L412.171 1386.38 L413.721 1386.38 L415.309 1386.38 L416.983 1386.37 L418.704 1386.37 
  L420.587 1386.37 L422.524 1386.36 L424.421 1386.36 L426.435 1386.36 L428.507 1386.35 L430.628 1386.34 L432.723 1386.34 L434.786 1386.33 L436.75 1386.32 L438.713 1386.32 
  L440.602 1386.31 L442.438 1386.31 L444.221 1386.3 L445.917 1386.29 L447.636 1386.28 L449.402 1386.28 L451.24 1386.27 L453.141 1386.26 L455.101 1386.25 L457.097 1386.24 
  L459.083 1386.23 L461.091 1386.22 L463.187 1386.21 L465.253 1386.2 L467.337 1386.19 L469.454 1386.18 L471.604 1386.17 L473.756 1386.17 L475.92 1386.16 L478.103 1386.15 
  L480.202 1386.14 L482.354 1386.13 L484.577 1386.12 L486.869 1386.1 L489.447 1386.09 L492.217 1386.07 L495.333 1386.05 L498.838 1386.03 L502.782 1386 L507.044 1385.97 
  L511.403 1385.94 L516.124 1385.89 L521.169 1385.84 L526.845 1385.78 L533.23 1385.7 L540.413 1385.62 L545.699 1385.56 L551.645 1385.52 L557.051 1385.48 L561.864 1385.44 
  L567.167 1385.39 L573.133 1385.34 L579.845 1385.27 L585.951 1385.18 L592.821 1385.07 L600.55 1384.94 L609.244 1384.78 L617.234 1384.62 L624.727 1384.45 L633.156 1384.29 
  L639.237 1384.19 L646.078 1384.09 L652.018 1384 L658.702 1383.88 L666.22 1383.7 L672.044 1383.56 L678.597 1383.38 L685.397 1383.17 L690.767 1383.01 L696.656 1382.81 
  L702.485 1382.6 L708.01 1382.39 L713.223 1382.18 L718.057 1382.02 L723.496 1381.85 L728.033 1381.69 L732.766 1381.51 L737.333 1381.32 L742.471 1381.09 L748.251 1380.81 
  L754.58 1380.51 L761.071 1380.17 L768.372 1379.79 L775.594 1379.43 L782.212 1379.09 L789.657 1378.68 L798.033 1378.15 L807.447 1377.48 L818.039 1376.7 L827.541 1375.9 
  L837.574 1375.02 L848.862 1374.07 L861.561 1373.01 L874.326 1371.21 L888.688 1368.7 L904.845 1365.6 L917.563 1363.2 L931.87 1360.73 L942.023 1358 L949.315 1355.85 
  L955.864 1353.61 L962.656 1351.02 L969.999 1348.41 L976.075 1346.53 L982.472 1344.17 L987.92 1341.71 L994.05 1338.68 L999.798 1335.64 L1006.27 1332.29 L1011.75 1329.75 
  L1017.15 1327.02 L1022.58 1323.73 L1028.03 1320.32 L1034.16 1316.49 L1040.83 1312.24 L1047.74 1307.67 L1054.18 1302.49 L1061.11 1296.42 L1067.79 1290 L1074.87 1281.81 
  L1081.85 1273.04 L1088.55 1265.93 L1095.28 1258.24 L1102.02 1250.41 L1108.62 1242.92 L1115.03 1235.97 L1121.04 1229.19 L1126.64 1221.98 L1130.75 1216.16 L1134.17 1211.39 
  L1137.33 1207.37 L1140.34 1203.55 L1143.41 1199.69 L1146.49 1195.61 L1149.45 1192.27 L1152.39 1188.87 L1155.4 1185.23 L1158.27 1181.91 L1161.2 1178.18 L1164.16 1174.25 
  L1167.16 1169.63 L1170.04 1164.98 L1172.77 1160.51 L1175.56 1157.82 L1178.37 1155.27 L1181.29 1152.51 L1184.38 1149.34 L1187.52 1145.88 L1191 1141.66 L1194.47 1136.86 
  L1198.15 1129.32 L1201.94 1120.6 L1205.79 1111.71 L1209.65 1104.37 L1213.58 1098.05 L1217.49 1091.8 L1221.42 1085.57 L1225.33 1077.18 L1229.14 1068.88 L1232.78 1061.42 
  L1236.23 1053.8 L1239.77 1045.69 L1243.19 1036.69 L1246.44 1028.85 L1249.68 1023.15 L1252.69 1018.15 L1255.62 1012.77 L1258.62 1007.25 L1261.67 1001.88 L1264.73 996.696 
  L1267.74 991.63 L1270.72 986.925 L1273.7 982.422 L1276.74 977.281 L1279.78 972.059 L1282.84 966.27 L1285.88 959.827 L1288.93 953.026 L1291.98 944.917 L1295.01 934.914 
  L1298.05 924.827 L1301.08 915.24 L1304.09 905.998 L1307.11 896.951 L1310.11 888.175 L1313.11 878.598 L1316.07 868.44 L1318.98 857.395 L1321.88 848.535 L1324.8 840.257 
  L1327.71 837.134 L1330.6 833.411 L1333.53 830.092 L1336.45 827.066 L1339.39 823.969 L1342.32 820.422 L1345.25 816.779 L1348.17 813.41 L1351.1 801.798 L1354.03 789.441 
  L1356.93 776.815 L1359.79 764.327 L1362.66 751.751 L1365.49 739.266 L1368.36 730.368 L1371.19 724.774 L1373.99 719.233 L1376.7 715.824 L1379.34 718.395 L1381.95 721.063 
  L1384.58 724.528 L1387.24 727.925 L1389.93 728.781 L1392.63 723.576 L1395.31 717.621 L1397.96 711.678 L1400.68 705.226 L1403.4 713.44 L1406.12 712.501 L1408.83 704.784 
  L1411.59 697.511 L1414.41 690.784 L1417.25 689.626 L1420.12 695.317 L1423.01 701.121 L1425.89 707.061 L1428.75 713.365 L1431.53 719.682 L1434.43 726.123 L1437.31 732.029 
  L1440.06 738.318 L1442.64 737.455 L1445.15 740.018 L1447.62 739.577 L1450.05 736.581 L1452.55 733.847 L1455.11 732.184 L1457.77 731.265 L1460.58 737.016 L1463.41 748.535 
  L1466.28 760.164 L1469.25 771.849 L1472.26 783.356 L1475.21 794.583 L1478.19 805.53 L1481.18 816.029 L1484.26 826.621 L1487.37 836.94 L1490.52 847.671 L1493.59 857.983 
  L1496.58 864.527 L1499.51 870.923 L1502.45 877.434 L1505.27 883.808 L1508.12 890.339 L1510.95 896.759 L1513.89 903.245 L1517.01 909.912 L1520.27 916.859 L1523.58 923.56 
  L1527.13 930.52 L1530.76 938.823 L1534.51 949.61 L1538.23 960.356 L1542.09 969.793 L1546.05 978.113 L1549.91 985.848 L1553.99 993.878 L1558.08 1002.24 L1562.16 1011.13 
  L1566.18 1019.69 L1570.22 1028.07 L1574.37 1036.52 L1578.49 1044.5 L1582.59 1051.91 L1586.54 1058.87 L1590.84 1066.24 L1594.92 1073.01 L1599.29 1079.78 L1604.01 1087.12 
  L1608.9 1094.73 L1613.5 1101.72 L1618.05 1108.44 L1622.55 1116.97 L1627.39 1126.13 L1632.35 1135.17 L1636.48 1142.41 L1640.84 1149.68 L1644.89 1156.27 L1649.13 1163.05 
  L1653.26 1169.54 L1657.55 1176.1 L1662.37 1183.26 L1667.63 1191.05 L1672.56 1198.36 L1678.09 1206.47 L1683.66 1214.38 L1689.1 1222.03 L1694.8 1227.43 L1701.14 1233.74 
  L1708.13 1240.69 L1715.36 1247.78 L1721.69 1253.92 L1728.64 1258.68 L1736.18 1263.37 L1744.57 1268.8 L1753.47 1274.67 L1762.43 1280.57 L1771.21 1286.43 L1779.71 1291.97 
  L1789.27 1297.63 L1799.59 1303.07 L1809.05 1307.88 L1819.7 1313 L1827.97 1316.93 L1837.28 1320.92 L1847.75 1325.24 L1857.93 1329.42 L1869.39 1334.2 L1881.06 1338.85 
  L1894.19 1343.29 L1905.18 1345.99 L1917.53 1348.96 L1923.69 1350.63 L1929.11 1352.04 L1934.22 1353.36 L1939.97 1354.82 L1946.13 1356.23 L1953.07 1357.73 L1959.79 1359.08 
  L1967.35 1360.53 L1975.85 1362.08 L1984.09 1363.39 L1990.64 1364.66 L1996.21 1365.75 L2001.37 1366.71 L2006.65 1367.61 L2010.97 1368.33 L2015.07 1369 L2019.49 1369.67 
  L2023.6 1370.27 L2027.78 1370.86 L2031.68 1371.38 L2036.07 1371.96 L2040.7 1372.53 L2044.81 1373.03 L2048.87 1373.5 L2052.79 1373.95 L2057.13 1374.44 L2061.23 1374.86 
  L2065.83 1375.33 L2071.01 1375.84 L2076.83 1376.41 L2082.87 1376.98 L2087.96 1377.45 L2093.2 1377.87 L2097.41 1378.17 L2101.56 1378.45 L2105.63 1378.71 L2109.77 1378.98 
  L2113.93 1379.23 L2117.72 1379.47 L2121.79 1379.71 L2125.71 1379.94 L2129.85 1380.18 L2134.07 1380.4 L2138.65 1380.63 L2143.8 1380.88 L2149.6 1381.14 L2154.36 1381.35 
  L2158.96 1381.54 L2164.14 1381.74 L2169.96 1381.95 L2176.51 1382.18 L2182.55 1382.38 L2188.94 1382.59 L2195.51 1382.8 L2202.1 1383 L2208.46 1383.18 L2215.61 1383.37 
  L2221.43 1383.53 L2227.99 1383.69 L2235.37 1383.87 L2243.66 1384.09 L2247.68 1384.19 L2252.21 1384.29 L2257.3 1384.41 L2263.02 1384.53 L2269.29 1384.66 L2276.34 1384.8 
  L2283.35 1384.92 L2290.33 1385.03 L2294.08 1385.09 L2294.08 1358.53 L2290.33 1357.85 L2283.35 1356.55 L2276.34 1355.22 L2269.29 1353.88 L2263.02 1352.6 L2257.3 1351.42 
  L2252.21 1350.35 L2247.68 1349.38 L2243.66 1348.47 L2235.37 1346.41 L2227.99 1344.77 L2221.43 1343.42 L2215.61 1342.32 L2208.46 1341 L2202.1 1339.71 L2195.51 1338.26 
  L2188.94 1336.67 L2182.55 1335.02 L2176.51 1333.44 L2169.96 1331.72 L2164.14 1330.17 L2158.96 1328.71 L2154.36 1327.34 L2149.6 1325.86 L2143.8 1323.85 L2138.65 1322.03 
  L2134.07 1320.42 L2129.85 1318.95 L2125.71 1317.54 L2121.79 1316.22 L2117.72 1314.81 L2113.93 1313.44 L2109.77 1311.81 L2105.63 1309.35 L2101.56 1306.88 L2097.41 1304.23 
  L2093.2 1301.42 L2087.96 1297.81 L2082.87 1294.16 L2076.83 1290.96 L2071.01 1288 L2065.83 1285.35 L2061.23 1282.87 L2057.13 1280.49 L2052.79 1278.11 L2048.87 1276.15 
  L2044.81 1274.09 L2040.7 1272.02 L2036.07 1269.65 L2031.68 1267.27 L2027.78 1265.02 L2023.6 1262.45 L2019.49 1259.61 L2015.07 1256.52 L2010.97 1253.59 L2006.65 1250.36 
  L2001.37 1246.2 L1996.21 1241.72 L1990.64 1236.72 L1984.09 1231.98 L1975.85 1225.96 L1967.35 1219.8 L1959.79 1214.27 L1953.07 1209.39 L1946.13 1203.9 L1939.97 1199.07 
  L1934.22 1194.63 L1929.11 1190.63 L1923.69 1186.16 L1917.53 1181.33 L1905.18 1168.86 L1894.19 1155.78 L1881.06 1138.72 L1869.39 1125.7 L1857.93 1113.08 L1847.75 1096.13 
  L1837.28 1077.76 L1827.97 1060.63 L1819.7 1044.8 L1809.05 1022.57 L1799.59 1002.07 L1789.27 980.091 L1779.71 960.873 L1771.21 946.676 L1762.43 926.018 L1753.47 909.153 
  L1744.57 893.864 L1736.18 877.848 L1728.64 859.363 L1721.69 842.197 L1715.36 820.625 L1708.13 792.441 L1701.14 768.798 L1694.8 752.835 L1689.1 739.416 L1683.66 732.099 
  L1678.09 723.102 L1672.56 715.033 L1667.63 704.705 L1662.37 690.018 L1657.55 675.09 L1653.26 662.437 L1649.13 650.703 L1644.89 637.365 L1640.84 624.578 L1636.48 610.687 
  L1632.35 597.971 L1627.39 584.073 L1622.55 572.391 L1618.05 562.541 L1613.5 553.004 L1608.9 545.489 L1604.01 534.584 L1599.29 524.365 L1594.92 514.916 L1590.84 506.629 
  L1586.54 498.172 L1582.59 492.726 L1578.49 489.537 L1574.37 486.367 L1570.22 475.206 L1566.18 464.063 L1562.16 459.435 L1558.08 445.469 L1553.99 438.9 L1549.91 428.812 
  L1546.05 419.775 L1542.09 410.291 L1538.23 401.803 L1534.51 395.1 L1530.76 394.462 L1527.13 388.663 L1523.58 370.128 L1520.27 353.149 L1517.01 342.519 L1513.89 333.918 
  L1510.95 328.067 L1508.12 322.65 L1505.27 316.563 L1502.45 309.812 L1499.51 304.143 L1496.58 300.671 L1493.59 297.045 L1490.52 292.163 L1487.37 287.317 L1484.26 284.329 
  L1481.18 282.305 L1478.19 280.113 L1475.21 278.219 L1472.26 279.696 L1469.25 273.864 L1466.28 271.216 L1463.41 260.687 L1460.58 260.041 L1457.77 261.569 L1455.11 260.729 
  L1452.55 253.978 L1450.05 247.703 L1447.62 241.515 L1445.15 235.179 L1442.64 228.308 L1440.06 222.297 L1437.31 231.386 L1434.43 243.493 L1431.53 249.229 L1428.75 241.344 
  L1425.89 233.235 L1423.01 225.283 L1420.12 226.532 L1417.25 219.855 L1414.41 213.761 L1411.59 208.349 L1408.83 202.928 L1406.12 202.173 L1403.4 198.957 L1400.68 194.726 
  L1397.96 187.967 L1395.31 181.301 L1392.63 177.997 L1389.93 178.32 L1387.24 180.329 L1384.58 180.126 L1381.95 171.551 L1379.34 163.649 L1376.7 160.256 L1373.99 162.546 
  L1371.19 164.924 L1368.36 167.665 L1365.49 171.622 L1362.66 174.459 L1359.79 174.316 L1356.93 173.256 L1354.03 172.413 L1351.1 171.721 L1348.17 171.348 L1345.25 171.59 
  L1342.32 179.174 L1339.39 174.302 L1336.45 179.574 L1333.53 182.129 L1330.6 181.981 L1327.71 184.809 L1324.8 188.198 L1321.88 191.405 L1318.98 189.409 L1316.07 183.734 
  L1313.11 186.77 L1310.11 191.126 L1307.11 197.754 L1304.09 205.353 L1301.08 211.732 L1298.05 203.041 L1295.01 212.803 L1291.98 225.047 L1288.93 231.536 L1285.88 236.264 
  L1282.84 240.723 L1279.78 246.083 L1276.74 251.502 L1273.7 240.27 L1270.72 228.945 L1267.74 218.33 L1264.73 207.373 L1261.67 195.458 L1258.62 184.23 L1255.62 180.255 
  L1252.69 187.602 L1249.68 197.501 L1246.44 209.503 L1243.19 222.873 L1239.77 235.994 L1236.23 249.818 L1232.78 263.814 L1229.14 270.435 L1225.33 272.065 L1221.42 276.479 
  L1217.49 283.436 L1213.58 292.865 L1209.65 303.73 L1205.79 317.548 L1201.94 334.157 L1198.15 350.536 L1194.47 372.844 L1191 390.4 L1187.52 408.854 L1184.38 426.689 
  L1181.29 444.179 L1178.37 460.508 L1175.56 476.544 L1172.77 491.675 L1170.04 505.363 L1167.16 518.916 L1164.16 533.293 L1161.2 547.909 L1158.27 562.27 L1155.4 576.268 
  L1152.39 590.162 L1149.45 602.825 L1146.49 615.102 L1143.41 627.853 L1140.34 640.274 L1137.33 652.454 L1134.17 661.145 L1130.75 672.034 L1126.64 686.175 L1121.04 710.805 
  L1115.03 742.192 L1108.62 766.793 L1102.02 795.271 L1095.28 825.871 L1088.55 855.596 L1081.85 884.959 L1074.87 915.992 L1067.79 946.54 L1061.11 973.472 L1054.18 1003.31 
  L1047.74 1027.36 L1040.83 1046.34 L1034.16 1063.42 L1028.03 1080.29 L1022.58 1093.95 L1017.15 1103.94 L1011.75 1114.9 L1006.27 1126.64 L999.798 1141.07 L994.05 1154.52 
  L987.92 1168.69 L982.472 1180.6 L976.075 1195.13 L969.999 1207.92 L962.656 1221.21 L955.864 1232.17 L949.315 1242.48 L942.023 1252.94 L931.87 1268.23 L917.563 1283.96 
  L904.845 1298.12 L888.688 1310.02 L874.326 1319.9 L861.561 1327.27 L848.862 1333.7 L837.574 1338.87 L827.541 1343.3 L818.039 1348.48 L807.447 1351.71 L798.033 1354.7 
  L789.657 1357.3 L782.212 1359.43 L775.594 1361.27 L768.372 1362.8 L761.071 1363.96 L754.58 1365.07 L748.251 1366.06 L742.471 1366.97 L737.333 1368.01 L732.766 1368.76 
  L728.033 1369.59 L723.496 1370.4 L718.057 1371.3 L713.223 1372.08 L708.01 1372.89 L702.485 1373.67 L696.656 1374.28 L690.767 1374.89 L685.397 1375.44 L678.597 1376.12 
  L672.044 1376.91 L666.22 1377.66 L658.702 1378.46 L652.018 1379.16 L646.078 1379.73 L639.237 1380.3 L633.156 1380.73 L624.727 1381.14 L617.234 1381.48 L609.244 1381.96 
  L600.55 1382.39 L592.821 1382.72 L585.951 1382.95 L579.845 1383.18 L573.133 1383.41 L567.167 1383.64 L561.864 1383.84 L557.051 1384 L551.645 1384.17 L545.699 1384.36 
  L540.413 1384.49 L533.23 1384.67 L526.845 1384.85 L521.169 1384.95 L516.124 1385.09 L511.403 1385.17 L507.044 1385.23 L502.782 1385.31 L498.838 1385.39 L495.333 1385.47 
  L492.217 1385.53 L489.447 1385.57 L486.869 1385.61 L484.577 1385.65 L482.354 1385.68 L480.202 1385.71 L478.103 1385.74 L475.92 1385.76 L473.756 1385.79 L471.604 1385.81 
  L469.454 1385.83 L467.337 1385.85 L465.253 1385.87 L463.187 1385.89 L461.091 1385.91 L459.083 1385.92 L457.097 1385.94 L455.101 1385.96 L453.141 1385.97 L451.24 1385.99 
  L449.402 1386 L447.636 1386.02 L445.917 1386.02 L444.221 1386.03 L442.438 1386.05 L440.602 1386.06 L438.713 1386.07 L436.75 1386.09 L434.786 1386.1 L432.723 1386.12 
  L430.628 1386.14 L428.507 1386.15 L426.435 1386.16 L424.421 1386.17 L422.524 1386.18 L420.587 1386.19 L418.704 1386.2 L416.983 1386.21 L415.309 1386.22 L413.721 1386.22 
  L412.171 1386.23 L410.653 1386.24 L409.162 1386.24 L407.733 1386.25 L406.344 1386.25 L404.976 1386.26 L403.637 1386.26 L402.308 1386.27 L401.017 1386.27 L399.748 1386.28 
  L398.529 1386.28 L397.356 1386.28 L396.214 1386.29 L395.109 1386.29 L394.037 1386.29 L392.99 1386.3 L391.979 1386.3 L391.018 1386.3 L390.084 1386.3 L389.173 1386.3 
  L388.286 1386.31 L387.421 1386.31 L386.579 1386.31 L385.744 1386.31 L384.922 1386.31 L384.117 1386.31 L383.315 1386.32 L382.522 1386.32 L381.737 1386.32 L380.959 1386.32 
  L380.186 1386.32 L379.423 1386.32 L378.669 1386.32 L377.928 1386.32 L377.203 1386.32 L376.492 1386.32 L375.787 1386.32 L375.087 1386.32 L374.39 1386.32 L373.699 1386.32 
  L373.019 1386.32 L372.358 1386.32 L371.708 1386.32 L371.062 1386.32 L370.428 1386.32 L369.804 1386.32 L369.187 1386.32 L368.579 1386.32 L367.971 1386.32 L367.366 1386.32 
  L366.765 1386.32 L366.164 1386.32 L365.568 1386.32 L364.971 1386.32 L364.373 1386.31 L363.78 1386.31 L363.197 1386.31 L362.62 1386.31 L362.051 1386.31 L361.492 1386.31 
  L360.938 1386.31 L360.391 1386.31 L359.848 1386.31 L359.305 1386.31 L358.77 1386.3 L358.239 1386.3 L357.713 1386.3 L357.193 1386.3 L356.678 1386.3 L356.172 1386.3 
  L355.673 1386.3 L355.18 1386.3 L354.69 1386.29 L354.207 1386.29 L353.732 1386.29 L353.265 1386.29 L352.802 1386.29 L352.34 1386.29 L351.883 1386.29 L351.429 1386.28 
  L350.972 1386.28 L350.514 1386.28 L350.059 1386.28 L349.606 1386.28 L349.159 1386.28 L348.719 1386.27 L348.288 1386.27 L347.863 1386.27 L347.445 1386.27 L347.03 1386.27 
  L346.62 1386.26 L346.218 1386.26 L345.82 1386.26 L345.427 1386.26 L345.039 1386.26 L344.655 1386.25 L344.277 1386.25 L343.902 1386.25 L343.534 1386.25 L343.173 1386.25 
  L342.822 1386.24 L342.481 1386.24 L342.152 1386.24 L341.836 1386.24 L341.533 1386.24 L341.244 1386.23 L340.969 1386.23 L340.71 1386.23 L340.467 1386.23 L340.24 1386.23 
  L340.031 1386.23 L339.842 1386.23 L339.673 1386.22 L339.524 1386.22 L339.391 1386.22 L339.272 1386.22 L339.167 1386.22 L339.074 1386.22 L338.991 1386.22 L338.917 1386.22 
  L338.852 1386.22 L338.793 1386.22 L338.741 1386.22 L338.695 1386.22 L338.654 1386.22 L338.618 1386.22 L338.586 1386.22 L338.557 1386.22 L338.531 1386.22 L338.509 1386.22 
  L338.488 1386.22 L338.471 1386.22 L338.455 1386.22 L338.44 1386.22 L338.428 1386.22 L338.375 1386.22  Z
  " fill="#009af9" fill-rule="evenodd" fill-opacity="0.2"/>
<polyline clip-path="url(#clip672)" style="stroke:#009af9; stroke-linecap:butt; stroke-linejoin:round; stroke-width:12; stroke-opacity:1; fill:none" points="
  338.375,1386.22 338.428,1386.22 338.44,1386.22 338.455,1386.22 338.471,1386.22 338.488,1386.22 338.509,1386.22 338.531,1386.22 338.557,1386.22 338.586,1386.22 
  338.618,1386.22 338.654,1386.22 338.695,1386.22 338.741,1386.22 338.793,1386.22 338.852,1386.22 338.917,1386.22 338.991,1386.22 339.074,1386.22 339.167,1386.22 
  339.272,1386.22 339.391,1386.22 339.524,1386.22 339.673,1386.22 339.842,1386.23 340.031,1386.23 340.24,1386.23 340.467,1386.23 340.71,1386.23 340.969,1386.23 
  341.244,1386.24 341.533,1386.24 341.836,1386.24 342.152,1386.24 342.481,1386.24 342.822,1386.25 343.173,1386.25 343.534,1386.25 343.902,1386.25 344.277,1386.25 
  344.655,1386.26 345.039,1386.26 345.427,1386.26 345.82,1386.26 346.218,1386.27 346.62,1386.27 347.03,1386.27 347.445,1386.27 347.863,1386.27 348.288,1386.28 
  348.719,1386.28 349.159,1386.28 349.606,1386.28 350.059,1386.28 350.514,1386.29 350.972,1386.29 351.429,1386.29 351.883,1386.29 352.34,1386.29 352.802,1386.3 
  353.265,1386.3 353.732,1386.3 354.207,1386.3 354.69,1386.3 355.18,1386.31 355.673,1386.31 356.172,1386.31 356.678,1386.31 357.193,1386.31 357.713,1386.31 
  358.239,1386.32 358.77,1386.32 359.305,1386.32 359.848,1386.32 360.391,1386.32 360.938,1386.32 361.492,1386.32 362.051,1386.33 362.62,1386.33 363.197,1386.33 
  363.78,1386.33 364.373,1386.33 364.971,1386.33 365.568,1386.33 366.164,1386.33 366.765,1386.34 367.366,1386.34 367.971,1386.34 368.579,1386.34 369.187,1386.34 
  369.804,1386.34 370.428,1386.34 371.062,1386.34 371.708,1386.34 372.358,1386.34 373.019,1386.34 373.699,1386.35 374.39,1386.35 375.087,1386.35 375.787,1386.35 
  376.492,1386.35 377.203,1386.35 377.928,1386.35 378.669,1386.35 379.423,1386.35 380.186,1386.35 380.959,1386.35 381.737,1386.35 382.522,1386.35 383.315,1386.35 
  384.117,1386.35 384.922,1386.35 385.744,1386.35 386.579,1386.35 387.421,1386.35 388.286,1386.35 389.173,1386.35 390.084,1386.35 391.018,1386.34 391.979,1386.34 
  392.99,1386.34 394.037,1386.34 395.109,1386.34 396.214,1386.34 397.356,1386.34 398.529,1386.33 399.748,1386.33 401.017,1386.33 402.308,1386.33 403.637,1386.33 
  404.976,1386.32 406.344,1386.32 407.733,1386.32 409.162,1386.31 410.653,1386.31 412.171,1386.3 413.721,1386.3 415.309,1386.3 416.983,1386.29 418.704,1386.28 
  420.587,1386.28 422.524,1386.27 424.421,1386.26 426.435,1386.26 428.507,1386.25 430.628,1386.24 432.723,1386.23 434.786,1386.22 436.75,1386.21 438.713,1386.2 
  440.602,1386.19 442.438,1386.18 444.221,1386.17 445.917,1386.16 447.636,1386.15 449.402,1386.14 451.24,1386.13 453.141,1386.11 455.101,1386.1 457.097,1386.09 
  459.083,1386.07 461.091,1386.06 463.187,1386.04 465.253,1386.03 467.337,1386.01 469.454,1386 471.604,1385.98 473.756,1385.96 475.92,1385.94 478.103,1385.92 
  480.202,1385.9 482.354,1385.88 484.577,1385.86 486.869,1385.84 489.447,1385.81 492.217,1385.79 495.333,1385.75 498.838,1385.71 502.782,1385.67 507.044,1385.62 
  511.403,1385.56 516.124,1385.5 521.169,1385.43 526.845,1385.35 533.23,1385.25 540.413,1385.13 545.699,1385.04 551.645,1384.93 557.051,1384.82 561.864,1384.72 
  567.167,1384.61 573.133,1384.47 579.845,1384.31 585.951,1384.15 592.821,1383.96 600.55,1383.73 609.244,1383.45 617.234,1383.18 624.727,1382.89 633.156,1382.55 
  639.237,1382.29 646.078,1381.98 652.018,1381.69 658.702,1381.33 666.22,1380.9 672.044,1380.55 678.597,1380.13 685.397,1379.66 690.767,1379.28 696.656,1378.83 
  702.485,1378.37 708.01,1377.9 713.223,1377.44 718.057,1377 723.496,1376.47 728.033,1376.02 732.766,1375.52 737.333,1375.02 742.471,1374.44 748.251,1373.76 
  754.58,1372.97 761.071,1372.11 768.372,1371.09 775.594,1370.02 782.212,1368.98 789.657,1367.74 798.033,1366.23 807.447,1364.37 818.039,1362.07 827.541,1359.78 
  837.574,1357.16 848.862,1353.92 861.561,1349.86 874.326,1345.24 888.688,1339.33 904.845,1331.72 917.563,1324.96 931.87,1316.31 942.023,1309.54 949.315,1304.38 
  955.864,1299.47 962.656,1294.05 969.999,1287.77 976.075,1282.27 982.472,1276.11 987.92,1270.55 994.05,1263.98 999.798,1257.44 1006.27,1249.68 1011.75,1242.83 
  1017.15,1235.8 1022.58,1228.44 1028.03,1220.82 1034.16,1211.82 1040.83,1201.51 1047.74,1190.16 1054.18,1178.98 1061.11,1166.29 1067.79,1153.35 1074.87,1138.84 
  1081.85,1123.98 1088.55,1109.23 1095.28,1094 1102.02,1078.28 1108.62,1062.4 1115.03,1046.83 1121.04,1031.91 1126.64,1017.62 1130.75,1006.91 1134.17,997.818 
  1137.33,989.324 1140.34,981.128 1143.41,972.585 1146.49,963.909 1149.45,955.485 1152.39,947.079 1155.4,938.519 1158.27,930.264 1161.2,921.771 1164.16,913.185 
  1167.16,904.399 1170.04,895.939 1172.77,887.917 1175.56,879.768 1178.37,871.451 1181.29,862.722 1184.38,853.245 1187.52,843.473 1191,832.273 1194.47,820.997 
  1198.15,808.886 1201.94,796.224 1205.79,783.266 1209.65,770.366 1213.58,757.464 1217.49,744.815 1221.42,732.2 1225.33,719.733 1229.14,707.93 1232.78,696.878 
  1236.23,686.489 1239.77,675.886 1243.19,665.848 1246.44,656.477 1249.68,647.121 1252.69,638.566 1255.62,630.456 1258.62,622.357 1261.67,614.316 1264.73,606.389 
  1267.74,598.694 1270.72,591.223 1273.7,583.812 1276.74,576.389 1279.78,569.099 1282.84,561.909 1285.88,554.821 1288.93,547.789 1291.98,540.844 1295.01,534.159 
  1298.05,527.562 1301.08,521.155 1304.09,514.994 1307.11,509.015 1310.11,503.182 1313.11,497.443 1316.07,491.974 1318.98,486.81 1321.88,481.803 1324.8,477.008 
  1327.71,472.452 1330.6,468.048 1333.53,463.821 1336.45,459.811 1339.39,455.99 1342.32,452.433 1345.25,449.123 1348.17,446.112 1351.1,443.264 1354.03,440.661 
  1356.93,438.22 1359.79,435.956 1362.66,433.832 1365.49,431.901 1368.36,430.238 1371.19,428.904 1373.99,427.928 1376.7,427.203 1379.34,426.756 1381.95,426.555 
  1384.58,426.624 1387.24,426.892 1389.93,427.257 1392.63,427.709 1395.31,428.288 1397.96,428.985 1400.68,429.914 1403.4,431.069 1406.12,432.468 1408.83,433.983 
  1411.59,435.754 1414.41,437.763 1417.25,440.004 1420.12,442.477 1423.01,445.095 1425.89,447.906 1428.75,450.903 1431.53,454.015 1434.43,457.473 1437.31,461.083 
  1440.06,464.645 1442.64,468.189 1445.15,471.814 1447.62,475.429 1450.05,479.128 1452.55,483.075 1455.11,487.239 1457.77,491.703 1460.58,496.575 1463.41,501.572 
  1466.28,506.713 1469.25,512.101 1472.26,517.641 1475.21,523.18 1478.19,528.838 1481.18,534.576 1484.26,540.585 1487.37,546.773 1490.52,553.156 1493.59,559.393 
  1496.58,565.579 1499.51,571.759 1502.45,578.114 1505.27,584.401 1508.12,590.822 1510.95,597.263 1513.89,603.984 1517.01,611.183 1520.27,618.798 1523.58,626.563 
  1527.13,634.918 1530.76,643.578 1534.51,652.517 1538.23,661.453 1542.09,670.782 1546.05,680.436 1549.91,689.899 1553.99,699.976 1558.08,710.185 1562.16,720.409 
  1566.18,730.524 1570.22,740.659 1574.37,751.088 1578.49,761.373 1582.59,771.57 1586.54,781.387 1590.84,792.042 1594.92,802.162 1599.29,812.983 1604.01,824.483 
  1608.9,836.262 1613.5,847.307 1618.05,858.33 1622.55,869.247 1627.39,880.851 1632.35,892.616 1636.48,902.256 1640.84,912.3 1644.89,921.514 1649.13,931.044 
  1653.26,940.228 1657.55,949.643 1662.37,960.068 1667.63,971.326 1672.56,981.76 1678.09,993.328 1683.66,1004.77 1689.1,1015.77 1694.8,1027 1701.14,1039.15 
  1708.13,1052.19 1715.36,1065.29 1721.69,1076.39 1728.64,1088.12 1736.18,1100.44 1744.57,1113.64 1753.47,1127.01 1762.43,1139.99 1771.21,1152.3 1779.71,1163.77 
  1789.27,1176.12 1799.59,1188.8 1809.05,1199.84 1819.7,1211.62 1827.97,1220.27 1837.28,1229.43 1847.75,1239.11 1857.93,1247.95 1869.39,1257.27 1881.06,1266.2 
  1894.19,1275.62 1905.18,1282.91 1917.53,1290.5 1923.69,1294.08 1929.11,1297.12 1934.22,1299.89 1939.97,1302.92 1946.13,1306.07 1953.07,1309.49 1959.79,1312.66 
  1967.35,1316.09 1975.85,1319.78 1984.09,1323.19 1990.64,1325.79 1996.21,1327.95 2001.37,1329.89 2006.65,1331.81 2010.97,1333.32 2015.07,1334.72 2019.49,1336.18 
  2023.6,1337.5 2027.78,1338.81 2031.68,1340 2036.07,1341.3 2040.7,1342.64 2044.81,1343.79 2048.87,1344.91 2052.79,1345.95 2057.13,1347.07 2061.23,1348.09 
  2065.83,1349.2 2071.01,1350.41 2076.83,1351.72 2082.87,1353.03 2087.96,1354.11 2093.2,1355.19 2097.41,1356.03 2101.56,1356.84 2105.63,1357.61 2109.77,1358.38 
  2113.93,1359.13 2117.72,1359.8 2121.79,1360.5 2125.71,1361.16 2129.85,1361.84 2134.07,1362.51 2138.65,1363.22 2143.8,1363.99 2149.6,1364.84 2154.36,1365.51 
  2158.96,1366.14 2164.14,1366.83 2169.96,1367.56 2176.51,1368.35 2182.55,1369.05 2188.94,1369.77 2195.51,1370.47 2202.1,1371.14 2208.46,1371.77 2215.61,1372.44 
  2221.43,1372.98 2227.99,1373.56 2235.37,1374.19 2243.66,1374.86 2247.68,1375.18 2252.21,1375.52 2257.3,1375.9 2263.02,1376.31 2269.29,1376.74 2276.34,1377.21 
  2283.35,1377.64 2290.33,1378.06 2294.08,1378.28 
  "/>
<path clip-path="url(#clip670)" d="
M1567.83 270.476 L2283.65 270.476 L2283.65 166.796 L1567.83 166.796  Z
  " fill="#ffffff" fill-rule="evenodd" fill-opacity="1"/>
<polyline clip-path="url(#clip670)" style="stroke:#000000; stroke-linecap:butt; stroke-linejoin:round; stroke-width:4; stroke-opacity:1; fill:none" points="
  1567.83,270.476 2283.65,270.476 2283.65,166.796 1567.83,166.796 1567.83,270.476 
  "/>
<polyline clip-path="url(#clip670)" style="stroke:#009af9; stroke-linecap:butt; stroke-linejoin:round; stroke-width:4; stroke-opacity:1; fill:none" points="
  1590.87,218.636 1729.07,218.636 
  "/>
<path clip-path="url(#clip670)" d="M1752.1 201.356 L1759.07 201.356 L1767.89 224.874 L1776.76 201.356 L1783.72 201.356 L1783.72 235.916 L1779.16 235.916 L1779.16 205.569 L1770.25 229.272 L1765.55 229.272 L1756.64 205.569 L1756.64 235.916 L1752.1 235.916 L1752.1 201.356 Z" fill="#000000" fill-rule="evenodd" fill-opacity="1" /><path clip-path="url(#clip670)" d="M1792.82 209.99 L1797.08 209.99 L1797.08 235.916 L1792.82 235.916 L1792.82 209.99 M1792.82 199.897 L1797.08 199.897 L1797.08 205.291 L1792.82 205.291 L1792.82 199.897 Z" fill="#000000" fill-rule="evenodd" fill-opacity="1" /><path clip-path="url(#clip670)" d="M1823.05 213.925 L1823.05 199.897 L1827.31 199.897 L1827.31 235.916 L1823.05 235.916 L1823.05 232.027 Q1821.71 234.342 1819.65 235.476 Q1817.61 236.587 1814.74 236.587 Q1810.04 236.587 1807.08 232.837 Q1804.14 229.087 1804.14 222.976 Q1804.14 216.865 1807.08 213.115 Q1810.04 209.365 1814.74 209.365 Q1817.61 209.365 1819.65 210.499 Q1821.71 211.61 1823.05 213.925 M1808.54 222.976 Q1808.54 227.675 1810.46 230.36 Q1812.4 233.022 1815.78 233.022 Q1819.16 233.022 1821.11 230.36 Q1823.05 227.675 1823.05 222.976 Q1823.05 218.277 1821.11 215.615 Q1819.16 212.93 1815.78 212.93 Q1812.4 212.93 1810.46 215.615 Q1808.54 218.277 1808.54 222.976 Z" fill="#000000" fill-rule="evenodd" fill-opacity="1" /><path clip-path="url(#clip670)" d="M1853.14 213.925 L1853.14 199.897 L1857.4 199.897 L1857.4 235.916 L1853.14 235.916 L1853.14 232.027 Q1851.8 234.342 1849.74 235.476 Q1847.7 236.587 1844.83 236.587 Q1840.13 236.587 1837.17 232.837 Q1834.23 229.087 1834.23 222.976 Q1834.23 216.865 1837.17 213.115 Q1840.13 209.365 1844.83 209.365 Q1847.7 209.365 1849.74 210.499 Q1851.8 211.61 1853.14 213.925 M1838.63 222.976 Q1838.63 227.675 1840.55 230.36 Q1842.5 233.022 1845.88 233.022 Q1849.26 233.022 1851.2 230.36 Q1853.14 227.675 1853.14 222.976 Q1853.14 218.277 1851.2 215.615 Q1849.26 212.93 1845.88 212.93 Q1842.5 212.93 1840.55 215.615 Q1838.63 218.277 1838.63 222.976 Z" fill="#000000" fill-rule="evenodd" fill-opacity="1" /><path clip-path="url(#clip670)" d="M1866.18 199.897 L1870.44 199.897 L1870.44 235.916 L1866.18 235.916 L1866.18 199.897 Z" fill="#000000" fill-rule="evenodd" fill-opacity="1" /><path clip-path="url(#clip670)" d="M1901.52 221.888 L1901.52 223.971 L1881.94 223.971 Q1882.22 228.369 1884.58 230.684 Q1886.96 232.976 1891.2 232.976 Q1893.65 232.976 1895.94 232.374 Q1898.26 231.772 1900.53 230.569 L1900.53 234.596 Q1898.24 235.568 1895.83 236.078 Q1893.42 236.587 1890.94 236.587 Q1884.74 236.587 1881.11 232.976 Q1877.5 229.365 1877.5 223.207 Q1877.5 216.842 1880.92 213.115 Q1884.37 209.365 1890.2 209.365 Q1895.44 209.365 1898.47 212.745 Q1901.52 216.101 1901.52 221.888 M1897.26 220.638 Q1897.22 217.143 1895.3 215.059 Q1893.4 212.976 1890.25 212.976 Q1886.69 212.976 1884.53 214.99 Q1882.4 217.004 1882.08 220.661 L1897.26 220.638 Z" fill="#000000" fill-rule="evenodd" fill-opacity="1" /><path clip-path="url(#clip670)" d="M1924.32 235.198 L1924.32 230.939 Q1926.08 231.772 1927.89 232.212 Q1929.69 232.652 1931.43 232.652 Q1936.06 232.652 1938.49 229.55 Q1940.94 226.425 1941.29 220.082 Q1939.95 222.073 1937.89 223.138 Q1935.83 224.203 1933.33 224.203 Q1928.14 224.203 1925.11 221.078 Q1922.1 217.93 1922.1 212.49 Q1922.1 207.166 1925.25 203.948 Q1928.4 200.731 1933.63 200.731 Q1939.62 200.731 1942.77 205.337 Q1945.94 209.92 1945.94 218.67 Q1945.94 226.842 1942.06 231.726 Q1938.19 236.587 1931.64 236.587 Q1929.88 236.587 1928.07 236.24 Q1926.27 235.893 1924.32 235.198 M1933.63 220.545 Q1936.78 220.545 1938.61 218.393 Q1940.46 216.24 1940.46 212.49 Q1940.46 208.763 1938.61 206.61 Q1936.78 204.434 1933.63 204.434 Q1930.48 204.434 1928.63 206.61 Q1926.8 208.763 1926.8 212.49 Q1926.8 216.24 1928.63 218.393 Q1930.48 220.545 1933.63 220.545 Z" fill="#000000" fill-rule="evenodd" fill-opacity="1" /><path clip-path="url(#clip670)" d="M1954.39 201.356 L1972.75 201.356 L1972.75 205.291 L1958.68 205.291 L1958.68 213.763 Q1959.69 213.416 1960.71 213.254 Q1961.73 213.069 1962.75 213.069 Q1968.54 213.069 1971.92 216.24 Q1975.3 219.411 1975.3 224.828 Q1975.3 230.406 1971.82 233.508 Q1968.35 236.587 1962.03 236.587 Q1959.86 236.587 1957.59 236.217 Q1955.34 235.846 1952.94 235.106 L1952.94 230.406 Q1955.02 231.541 1957.24 232.096 Q1959.46 232.652 1961.94 232.652 Q1965.94 232.652 1968.28 230.545 Q1970.62 228.439 1970.62 224.828 Q1970.62 221.217 1968.28 219.11 Q1965.94 217.004 1961.94 217.004 Q1960.06 217.004 1958.19 217.42 Q1956.34 217.837 1954.39 218.717 L1954.39 201.356 Z" fill="#000000" fill-rule="evenodd" fill-opacity="1" /><path clip-path="url(#clip670)" d="M2013.91 220.707 Q2011.89 220.707 2010.74 222.42 Q2009.6 224.133 2009.6 227.189 Q2009.6 230.198 2010.74 231.934 Q2011.89 233.647 2013.91 233.647 Q2015.87 233.647 2017.01 231.934 Q2018.17 230.198 2018.17 227.189 Q2018.17 224.157 2017.01 222.444 Q2015.87 220.707 2013.91 220.707 M2013.91 217.768 Q2017.56 217.768 2019.72 220.314 Q2021.87 222.86 2021.87 227.189 Q2021.87 231.518 2019.69 234.064 Q2017.54 236.587 2013.91 236.587 Q2010.2 236.587 2008.05 234.064 Q2005.9 231.518 2005.9 227.189 Q2005.9 222.837 2008.05 220.314 Q2010.23 217.768 2013.91 217.768 M1990.02 203.671 Q1988.03 203.671 1986.87 205.407 Q1985.74 207.12 1985.74 210.129 Q1985.74 213.184 1986.87 214.897 Q1988 216.61 1990.02 216.61 Q1992.03 216.61 1993.17 214.897 Q1994.32 213.184 1994.32 210.129 Q1994.32 207.143 1993.17 205.407 Q1992.01 203.671 1990.02 203.671 M2010.92 200.731 L2014.62 200.731 L1993 236.587 L1989.3 236.587 L2010.92 200.731 M1990.02 200.731 Q1993.68 200.731 1995.85 203.277 Q1998.03 205.8 1998.03 210.129 Q1998.03 214.504 1995.85 217.027 Q1993.7 219.55 1990.02 219.55 Q1986.34 219.55 1984.18 217.027 Q1982.06 214.481 1982.06 210.129 Q1982.06 205.823 1984.21 203.277 Q1986.36 200.731 1990.02 200.731 Z" fill="#000000" fill-rule="evenodd" fill-opacity="1" /><path clip-path="url(#clip670)" d="M2058.24 204.527 Q2053.14 204.527 2050.13 208.323 Q2047.15 212.12 2047.15 218.67 Q2047.15 225.198 2050.13 228.994 Q2053.14 232.791 2058.24 232.791 Q2063.33 232.791 2066.29 228.994 Q2069.28 225.198 2069.28 218.67 Q2069.28 212.12 2066.29 208.323 Q2063.33 204.527 2058.24 204.527 M2064.79 235.291 L2070.94 242.027 L2065.3 242.027 L2060.18 236.494 Q2059.42 236.541 2059 236.564 Q2058.61 236.587 2058.24 236.587 Q2050.94 236.587 2046.57 231.726 Q2042.22 226.842 2042.22 218.67 Q2042.22 210.476 2046.57 205.615 Q2050.94 200.731 2058.24 200.731 Q2065.5 200.731 2069.86 205.615 Q2074.21 210.476 2074.21 218.67 Q2074.21 224.689 2071.78 228.971 Q2069.37 233.254 2064.79 235.291 Z" fill="#000000" fill-rule="evenodd" fill-opacity="1" /><path clip-path="url(#clip670)" d="M2080.9 225.684 L2080.9 209.99 L2085.16 209.99 L2085.16 225.522 Q2085.16 229.203 2086.59 231.055 Q2088.03 232.883 2090.9 232.883 Q2094.35 232.883 2096.34 230.684 Q2098.35 228.485 2098.35 224.689 L2098.35 209.99 L2102.61 209.99 L2102.61 235.916 L2098.35 235.916 L2098.35 231.934 Q2096.8 234.295 2094.74 235.453 Q2092.7 236.587 2089.99 236.587 Q2085.53 236.587 2083.21 233.809 Q2080.9 231.031 2080.9 225.684 M2091.61 209.365 L2091.61 209.365 Z" fill="#000000" fill-rule="evenodd" fill-opacity="1" /><path clip-path="url(#clip670)" d="M2123.17 222.883 Q2118 222.883 2116.01 224.064 Q2114.02 225.244 2114.02 228.092 Q2114.02 230.36 2115.5 231.703 Q2117.01 233.022 2119.58 233.022 Q2123.12 233.022 2125.25 230.522 Q2127.4 227.999 2127.4 223.832 L2127.4 222.883 L2123.17 222.883 M2131.66 221.124 L2131.66 235.916 L2127.4 235.916 L2127.4 231.981 Q2125.94 234.342 2123.77 235.476 Q2121.59 236.587 2118.44 236.587 Q2114.46 236.587 2112.1 234.365 Q2109.76 232.119 2109.76 228.369 Q2109.76 223.994 2112.68 221.772 Q2115.62 219.55 2121.43 219.55 L2127.4 219.55 L2127.4 219.133 Q2127.4 216.194 2125.46 214.596 Q2123.54 212.976 2120.04 212.976 Q2117.82 212.976 2115.71 213.508 Q2113.61 214.041 2111.66 215.106 L2111.66 211.17 Q2114 210.268 2116.2 209.828 Q2118.4 209.365 2120.48 209.365 Q2126.11 209.365 2128.88 212.282 Q2131.66 215.198 2131.66 221.124 Z" fill="#000000" fill-rule="evenodd" fill-opacity="1" /><path clip-path="url(#clip670)" d="M2161.98 220.268 L2161.98 235.916 L2157.73 235.916 L2157.73 220.407 Q2157.73 216.726 2156.29 214.897 Q2154.86 213.069 2151.98 213.069 Q2148.54 213.069 2146.55 215.268 Q2144.55 217.467 2144.55 221.263 L2144.55 235.916 L2140.27 235.916 L2140.27 209.99 L2144.55 209.99 L2144.55 214.018 Q2146.08 211.68 2148.14 210.522 Q2150.23 209.365 2152.93 209.365 Q2157.4 209.365 2159.69 212.143 Q2161.98 214.897 2161.98 220.268 Z" fill="#000000" fill-rule="evenodd" fill-opacity="1" /><path clip-path="url(#clip670)" d="M2174.69 202.629 L2174.69 209.99 L2183.47 209.99 L2183.47 213.3 L2174.69 213.3 L2174.69 227.374 Q2174.69 230.545 2175.55 231.448 Q2176.43 232.351 2179.09 232.351 L2183.47 232.351 L2183.47 235.916 L2179.09 235.916 Q2174.16 235.916 2172.29 234.087 Q2170.41 232.235 2170.41 227.374 L2170.41 213.3 L2167.29 213.3 L2167.29 209.99 L2170.41 209.99 L2170.41 202.629 L2174.69 202.629 Z" fill="#000000" fill-rule="evenodd" fill-opacity="1" /><path clip-path="url(#clip670)" d="M2189.07 209.99 L2193.33 209.99 L2193.33 235.916 L2189.07 235.916 L2189.07 209.99 M2189.07 199.897 L2193.33 199.897 L2193.33 205.291 L2189.07 205.291 L2189.07 199.897 Z" fill="#000000" fill-rule="evenodd" fill-opacity="1" /><path clip-path="url(#clip670)" d="M2202.24 199.897 L2206.5 199.897 L2206.5 235.916 L2202.24 235.916 L2202.24 199.897 Z" fill="#000000" fill-rule="evenodd" fill-opacity="1" /><path clip-path="url(#clip670)" d="M2237.59 221.888 L2237.59 223.971 L2218 223.971 Q2218.28 228.369 2220.64 230.684 Q2223.03 232.976 2227.26 232.976 Q2229.72 232.976 2232.01 232.374 Q2234.32 231.772 2236.59 230.569 L2236.59 234.596 Q2234.3 235.568 2231.89 236.078 Q2229.48 236.587 2227.01 236.587 Q2220.8 236.587 2217.17 232.976 Q2213.56 229.365 2213.56 223.207 Q2213.56 216.842 2216.98 213.115 Q2220.43 209.365 2226.27 209.365 Q2231.5 209.365 2234.53 212.745 Q2237.59 216.101 2237.59 221.888 M2233.33 220.638 Q2233.28 217.143 2231.36 215.059 Q2229.46 212.976 2226.31 212.976 Q2222.75 212.976 2220.6 214.99 Q2218.47 217.004 2218.14 220.661 L2233.33 220.638 Z" fill="#000000" fill-rule="evenodd" fill-opacity="1" /></svg>
