<?xml version="1.0" encoding="utf-8"?>
<svg xmlns="http://www.w3.org/2000/svg" xmlns:xlink="http://www.w3.org/1999/xlink" width="600" height="400" viewBox="0 0 2400 1600">
<defs>
  <clipPath id="clip450">
    <rect x="0" y="0" width="2400" height="1600"/>
  </clipPath>
</defs>
<path clip-path="url(#clip450)" d="
M0 1600 L2400 1600 L2400 0 L0 0  Z
  " fill="#ffffff" fill-rule="evenodd" fill-opacity="1"/>
<defs>
  <clipPath id="clip451">
    <rect x="480" y="0" width="1681" height="1600"/>
  </clipPath>
</defs>
<path clip-path="url(#clip450)" d="
M250.028 1423.18 L2352.76 1423.18 L2352.76 123.472 L250.028 123.472  Z
  " fill="#ffffff" fill-rule="evenodd" fill-opacity="1"/>
<defs>
  <clipPath id="clip452">
    <rect x="250" y="123" width="2104" height="1301"/>
  </clipPath>
</defs>
<polyline clip-path="url(#clip452)" style="stroke:#000000; stroke-linecap:butt; stroke-linejoin:round; stroke-width:2; stroke-opacity:0.1; fill:none" points="
  250.028,1423.18 250.028,123.472 
  "/>
<polyline clip-path="url(#clip452)" style="stroke:#000000; stroke-linecap:butt; stroke-linejoin:round; stroke-width:2; stroke-opacity:0.1; fill:none" points="
  632.342,1423.18 632.342,123.472 
  "/>
<polyline clip-path="url(#clip452)" style="stroke:#000000; stroke-linecap:butt; stroke-linejoin:round; stroke-width:2; stroke-opacity:0.1; fill:none" points="
  1014.66,1423.18 1014.66,123.472 
  "/>
<polyline clip-path="url(#clip452)" style="stroke:#000000; stroke-linecap:butt; stroke-linejoin:round; stroke-width:2; stroke-opacity:0.1; fill:none" points="
  1396.97,1423.18 1396.97,123.472 
  "/>
<polyline clip-path="url(#clip452)" style="stroke:#000000; stroke-linecap:butt; stroke-linejoin:round; stroke-width:2; stroke-opacity:0.1; fill:none" points="
  1779.28,1423.18 1779.28,123.472 
  "/>
<polyline clip-path="url(#clip452)" style="stroke:#000000; stroke-linecap:butt; stroke-linejoin:round; stroke-width:2; stroke-opacity:0.1; fill:none" points="
  2161.6,1423.18 2161.6,123.472 
  "/>
<polyline clip-path="url(#clip450)" style="stroke:#000000; stroke-linecap:butt; stroke-linejoin:round; stroke-width:4; stroke-opacity:1; fill:none" points="
  250.028,1423.18 2352.76,1423.18 
  "/>
<polyline clip-path="url(#clip450)" style="stroke:#000000; stroke-linecap:butt; stroke-linejoin:round; stroke-width:4; stroke-opacity:1; fill:none" points="
  250.028,1423.18 250.028,1404.28 
  "/>
<polyline clip-path="url(#clip450)" style="stroke:#000000; stroke-linecap:butt; stroke-linejoin:round; stroke-width:4; stroke-opacity:1; fill:none" points="
  632.342,1423.18 632.342,1404.28 
  "/>
<polyline clip-path="url(#clip450)" style="stroke:#000000; stroke-linecap:butt; stroke-linejoin:round; stroke-width:4; stroke-opacity:1; fill:none" points="
  1014.66,1423.18 1014.66,1404.28 
  "/>
<polyline clip-path="url(#clip450)" style="stroke:#000000; stroke-linecap:butt; stroke-linejoin:round; stroke-width:4; stroke-opacity:1; fill:none" points="
  1396.97,1423.18 1396.97,1404.28 
  "/>
<polyline clip-path="url(#clip450)" style="stroke:#000000; stroke-linecap:butt; stroke-linejoin:round; stroke-width:4; stroke-opacity:1; fill:none" points="
  1779.28,1423.18 1779.28,1404.28 
  "/>
<polyline clip-path="url(#clip450)" style="stroke:#000000; stroke-linecap:butt; stroke-linejoin:round; stroke-width:4; stroke-opacity:1; fill:none" points="
  2161.6,1423.18 2161.6,1404.28 
  "/>
<path clip-path="url(#clip450)" d="M250.028 1454.1 Q246.417 1454.1 244.588 1457.66 Q242.783 1461.2 242.783 1468.33 Q242.783 1475.44 244.588 1479.01 Q246.417 1482.55 250.028 1482.55 Q253.662 1482.55 255.468 1479.01 Q257.297 1475.44 257.297 1468.33 Q257.297 1461.2 255.468 1457.66 Q253.662 1454.1 250.028 1454.1 M250.028 1450.39 Q255.838 1450.39 258.894 1455 Q261.973 1459.58 261.973 1468.33 Q261.973 1477.06 258.894 1481.67 Q255.838 1486.25 250.028 1486.25 Q244.218 1486.25 241.139 1481.67 Q238.084 1477.06 238.084 1468.33 Q238.084 1459.58 241.139 1455 Q244.218 1450.39 250.028 1450.39 Z" fill="#000000" fill-rule="evenodd" fill-opacity="1" /><path clip-path="url(#clip450)" d="M591.949 1481.64 L599.588 1481.64 L599.588 1455.28 L591.278 1456.95 L591.278 1452.69 L599.542 1451.02 L604.217 1451.02 L604.217 1481.64 L611.856 1481.64 L611.856 1485.58 L591.949 1485.58 L591.949 1481.64 Z" fill="#000000" fill-rule="evenodd" fill-opacity="1" /><path clip-path="url(#clip450)" d="M631.301 1454.1 Q627.69 1454.1 625.861 1457.66 Q624.055 1461.2 624.055 1468.33 Q624.055 1475.44 625.861 1479.01 Q627.69 1482.55 631.301 1482.55 Q634.935 1482.55 636.74 1479.01 Q638.569 1475.44 638.569 1468.33 Q638.569 1461.2 636.74 1457.66 Q634.935 1454.1 631.301 1454.1 M631.301 1450.39 Q637.111 1450.39 640.166 1455 Q643.245 1459.58 643.245 1468.33 Q643.245 1477.06 640.166 1481.67 Q637.111 1486.25 631.301 1486.25 Q625.49 1486.25 622.412 1481.67 Q619.356 1477.06 619.356 1468.33 Q619.356 1459.58 622.412 1455 Q625.49 1450.39 631.301 1450.39 Z" fill="#000000" fill-rule="evenodd" fill-opacity="1" /><path clip-path="url(#clip450)" d="M661.462 1454.1 Q657.851 1454.1 656.023 1457.66 Q654.217 1461.2 654.217 1468.33 Q654.217 1475.44 656.023 1479.01 Q657.851 1482.55 661.462 1482.55 Q665.097 1482.55 666.902 1479.01 Q668.731 1475.44 668.731 1468.33 Q668.731 1461.2 666.902 1457.66 Q665.097 1454.1 661.462 1454.1 M661.462 1450.39 Q667.273 1450.39 670.328 1455 Q673.407 1459.58 673.407 1468.33 Q673.407 1477.06 670.328 1481.67 Q667.273 1486.25 661.462 1486.25 Q655.652 1486.25 652.574 1481.67 Q649.518 1477.06 649.518 1468.33 Q649.518 1459.58 652.574 1455 Q655.652 1450.39 661.462 1450.39 Z" fill="#000000" fill-rule="evenodd" fill-opacity="1" /><path clip-path="url(#clip450)" d="M978.349 1481.64 L994.668 1481.64 L994.668 1485.58 L972.724 1485.58 L972.724 1481.64 Q975.386 1478.89 979.969 1474.26 Q984.576 1469.61 985.756 1468.27 Q988.001 1465.74 988.881 1464.01 Q989.784 1462.25 989.784 1460.56 Q989.784 1457.8 987.839 1456.07 Q985.918 1454.33 982.816 1454.33 Q980.617 1454.33 978.164 1455.09 Q975.733 1455.86 972.955 1457.41 L972.955 1452.69 Q975.779 1451.55 978.233 1450.97 Q980.687 1450.39 982.724 1450.39 Q988.094 1450.39 991.288 1453.08 Q994.483 1455.77 994.483 1460.26 Q994.483 1462.39 993.673 1464.31 Q992.886 1466.2 990.779 1468.8 Q990.201 1469.47 987.099 1472.69 Q983.997 1475.88 978.349 1481.64 Z" fill="#000000" fill-rule="evenodd" fill-opacity="1" /><path clip-path="url(#clip450)" d="M1014.48 1454.1 Q1010.87 1454.1 1009.04 1457.66 Q1007.24 1461.2 1007.24 1468.33 Q1007.24 1475.44 1009.04 1479.01 Q1010.87 1482.55 1014.48 1482.55 Q1018.12 1482.55 1019.92 1479.01 Q1021.75 1475.44 1021.75 1468.33 Q1021.75 1461.2 1019.92 1457.66 Q1018.12 1454.1 1014.48 1454.1 M1014.48 1450.39 Q1020.29 1450.39 1023.35 1455 Q1026.43 1459.58 1026.43 1468.33 Q1026.43 1477.06 1023.35 1481.67 Q1020.29 1486.25 1014.48 1486.25 Q1008.67 1486.25 1005.59 1481.67 Q1002.54 1477.06 1002.54 1468.33 Q1002.54 1459.58 1005.59 1455 Q1008.67 1450.39 1014.48 1450.39 Z" fill="#000000" fill-rule="evenodd" fill-opacity="1" /><path clip-path="url(#clip450)" d="M1044.64 1454.1 Q1041.03 1454.1 1039.2 1457.66 Q1037.4 1461.2 1037.4 1468.33 Q1037.4 1475.44 1039.2 1479.01 Q1041.03 1482.55 1044.64 1482.55 Q1048.28 1482.55 1050.08 1479.01 Q1051.91 1475.44 1051.91 1468.33 Q1051.91 1461.2 1050.08 1457.66 Q1048.28 1454.1 1044.64 1454.1 M1044.64 1450.39 Q1050.45 1450.39 1053.51 1455 Q1056.59 1459.58 1056.59 1468.33 Q1056.59 1477.06 1053.51 1481.67 Q1050.45 1486.25 1044.64 1486.25 Q1038.83 1486.25 1035.76 1481.67 Q1032.7 1477.06 1032.7 1468.33 Q1032.7 1459.58 1035.76 1455 Q1038.83 1450.39 1044.64 1450.39 Z" fill="#000000" fill-rule="evenodd" fill-opacity="1" /><path clip-path="url(#clip450)" d="M1370.73 1466.95 Q1374.09 1467.66 1375.96 1469.93 Q1377.86 1472.2 1377.86 1475.53 Q1377.86 1480.65 1374.34 1483.45 Q1370.82 1486.25 1364.34 1486.25 Q1362.17 1486.25 1359.85 1485.81 Q1357.56 1485.39 1355.11 1484.54 L1355.11 1480.02 Q1357.05 1481.16 1359.37 1481.74 Q1361.68 1482.32 1364.2 1482.32 Q1368.6 1482.32 1370.89 1480.58 Q1373.21 1478.84 1373.21 1475.53 Q1373.21 1472.48 1371.06 1470.77 Q1368.93 1469.03 1365.11 1469.03 L1361.08 1469.03 L1361.08 1465.19 L1365.29 1465.19 Q1368.74 1465.19 1370.57 1463.82 Q1372.4 1462.43 1372.4 1459.84 Q1372.4 1457.18 1370.5 1455.77 Q1368.63 1454.33 1365.11 1454.33 Q1363.19 1454.33 1360.99 1454.75 Q1358.79 1455.16 1356.15 1456.04 L1356.15 1451.88 Q1358.81 1451.14 1361.13 1450.77 Q1363.46 1450.39 1365.52 1450.39 Q1370.85 1450.39 1373.95 1452.83 Q1377.05 1455.23 1377.05 1459.35 Q1377.05 1462.22 1375.41 1464.21 Q1373.76 1466.18 1370.73 1466.95 Z" fill="#000000" fill-rule="evenodd" fill-opacity="1" /><path clip-path="url(#clip450)" d="M1396.73 1454.1 Q1393.12 1454.1 1391.29 1457.66 Q1389.48 1461.2 1389.48 1468.33 Q1389.48 1475.44 1391.29 1479.01 Q1393.12 1482.55 1396.73 1482.55 Q1400.36 1482.55 1402.17 1479.01 Q1404 1475.44 1404 1468.33 Q1404 1461.2 1402.17 1457.66 Q1400.36 1454.1 1396.73 1454.1 M1396.73 1450.39 Q1402.54 1450.39 1405.59 1455 Q1408.67 1459.58 1408.67 1468.33 Q1408.67 1477.06 1405.59 1481.67 Q1402.54 1486.25 1396.73 1486.25 Q1390.92 1486.25 1387.84 1481.67 Q1384.78 1477.06 1384.78 1468.33 Q1384.78 1459.58 1387.84 1455 Q1390.92 1450.39 1396.73 1450.39 Z" fill="#000000" fill-rule="evenodd" fill-opacity="1" /><path clip-path="url(#clip450)" d="M1426.89 1454.1 Q1423.28 1454.1 1421.45 1457.66 Q1419.64 1461.2 1419.64 1468.33 Q1419.64 1475.44 1421.45 1479.01 Q1423.28 1482.55 1426.89 1482.55 Q1430.52 1482.55 1432.33 1479.01 Q1434.16 1475.44 1434.16 1468.33 Q1434.16 1461.2 1432.33 1457.66 Q1430.52 1454.1 1426.89 1454.1 M1426.89 1450.39 Q1432.7 1450.39 1435.76 1455 Q1438.83 1459.58 1438.83 1468.33 Q1438.83 1477.06 1435.76 1481.67 Q1432.7 1486.25 1426.89 1486.25 Q1421.08 1486.25 1418 1481.67 Q1414.94 1477.06 1414.94 1468.33 Q1414.94 1459.58 1418 1455 Q1421.08 1450.39 1426.89 1450.39 Z" fill="#000000" fill-rule="evenodd" fill-opacity="1" /><path clip-path="url(#clip450)" d="M1752.38 1455.09 L1740.57 1473.54 L1752.38 1473.54 L1752.38 1455.09 M1751.15 1451.02 L1757.03 1451.02 L1757.03 1473.54 L1761.96 1473.54 L1761.96 1477.43 L1757.03 1477.43 L1757.03 1485.58 L1752.38 1485.58 L1752.38 1477.43 L1736.77 1477.43 L1736.77 1472.92 L1751.15 1451.02 Z" fill="#000000" fill-rule="evenodd" fill-opacity="1" /><path clip-path="url(#clip450)" d="M1779.69 1454.1 Q1776.08 1454.1 1774.25 1457.66 Q1772.44 1461.2 1772.44 1468.33 Q1772.44 1475.44 1774.25 1479.01 Q1776.08 1482.55 1779.69 1482.55 Q1783.32 1482.55 1785.13 1479.01 Q1786.96 1475.44 1786.96 1468.33 Q1786.96 1461.2 1785.13 1457.66 Q1783.32 1454.1 1779.69 1454.1 M1779.69 1450.39 Q1785.5 1450.39 1788.56 1455 Q1791.63 1459.58 1791.63 1468.33 Q1791.63 1477.06 1788.56 1481.67 Q1785.5 1486.25 1779.69 1486.25 Q1773.88 1486.25 1770.8 1481.67 Q1767.75 1477.06 1767.75 1468.33 Q1767.75 1459.58 1770.8 1455 Q1773.88 1450.39 1779.69 1450.39 Z" fill="#000000" fill-rule="evenodd" fill-opacity="1" /><path clip-path="url(#clip450)" d="M1809.85 1454.1 Q1806.24 1454.1 1804.41 1457.66 Q1802.61 1461.2 1802.61 1468.33 Q1802.61 1475.44 1804.41 1479.01 Q1806.24 1482.55 1809.85 1482.55 Q1813.49 1482.55 1815.29 1479.01 Q1817.12 1475.44 1817.12 1468.33 Q1817.12 1461.2 1815.29 1457.66 Q1813.49 1454.1 1809.85 1454.1 M1809.85 1450.39 Q1815.66 1450.39 1818.72 1455 Q1821.8 1459.58 1821.8 1468.33 Q1821.8 1477.06 1818.72 1481.67 Q1815.66 1486.25 1809.85 1486.25 Q1804.04 1486.25 1800.96 1481.67 Q1797.91 1477.06 1797.91 1468.33 Q1797.91 1459.58 1800.96 1455 Q1804.04 1450.39 1809.85 1450.39 Z" fill="#000000" fill-rule="evenodd" fill-opacity="1" /><path clip-path="url(#clip450)" d="M2121.22 1451.02 L2139.57 1451.02 L2139.57 1454.96 L2125.5 1454.96 L2125.5 1463.43 Q2126.52 1463.08 2127.54 1462.92 Q2128.56 1462.73 2129.57 1462.73 Q2135.36 1462.73 2138.74 1465.9 Q2142.12 1469.08 2142.12 1474.49 Q2142.12 1480.07 2138.65 1483.17 Q2135.18 1486.25 2128.86 1486.25 Q2126.68 1486.25 2124.41 1485.88 Q2122.17 1485.51 2119.76 1484.77 L2119.76 1480.07 Q2121.84 1481.2 2124.06 1481.76 Q2126.29 1482.32 2128.76 1482.32 Q2132.77 1482.32 2135.11 1480.21 Q2137.44 1478.1 2137.44 1474.49 Q2137.44 1470.88 2135.11 1468.77 Q2132.77 1466.67 2128.76 1466.67 Q2126.89 1466.67 2125.01 1467.08 Q2123.16 1467.5 2121.22 1468.38 L2121.22 1451.02 Z" fill="#000000" fill-rule="evenodd" fill-opacity="1" /><path clip-path="url(#clip450)" d="M2161.33 1454.1 Q2157.72 1454.1 2155.89 1457.66 Q2154.09 1461.2 2154.09 1468.33 Q2154.09 1475.44 2155.89 1479.01 Q2157.72 1482.55 2161.33 1482.55 Q2164.97 1482.55 2166.77 1479.01 Q2168.6 1475.44 2168.6 1468.33 Q2168.6 1461.2 2166.77 1457.66 Q2164.97 1454.1 2161.33 1454.1 M2161.33 1450.39 Q2167.14 1450.39 2170.2 1455 Q2173.28 1459.58 2173.28 1468.33 Q2173.28 1477.06 2170.2 1481.67 Q2167.14 1486.25 2161.33 1486.25 Q2155.52 1486.25 2152.44 1481.67 Q2149.39 1477.06 2149.39 1468.33 Q2149.39 1459.58 2152.44 1455 Q2155.52 1450.39 2161.33 1450.39 Z" fill="#000000" fill-rule="evenodd" fill-opacity="1" /><path clip-path="url(#clip450)" d="M2191.49 1454.1 Q2187.88 1454.1 2186.05 1457.66 Q2184.25 1461.2 2184.25 1468.33 Q2184.25 1475.44 2186.05 1479.01 Q2187.88 1482.55 2191.49 1482.55 Q2195.13 1482.55 2196.93 1479.01 Q2198.76 1475.44 2198.76 1468.33 Q2198.76 1461.2 2196.93 1457.66 Q2195.13 1454.1 2191.49 1454.1 M2191.49 1450.39 Q2197.3 1450.39 2200.36 1455 Q2203.44 1459.58 2203.44 1468.33 Q2203.44 1477.06 2200.36 1481.67 Q2197.3 1486.25 2191.49 1486.25 Q2185.68 1486.25 2182.61 1481.67 Q2179.55 1477.06 2179.55 1468.33 Q2179.55 1459.58 2182.61 1455 Q2185.68 1450.39 2191.49 1450.39 Z" fill="#000000" fill-rule="evenodd" fill-opacity="1" /><path clip-path="url(#clip450)" d="M1309.86 1548.54 Q1309.86 1549.45 1309.44 1549.67 Q1309.03 1549.87 1307.87 1549.87 L1301.68 1549.87 L1296.79 1569.32 Q1296.4 1571.02 1296.4 1572.47 Q1296.4 1574.08 1296.88 1574.79 Q1297.4 1575.5 1298.46 1575.5 Q1300.56 1575.5 1302.81 1573.6 Q1305.1 1571.7 1307.03 1567.06 Q1307.29 1566.45 1307.42 1566.32 Q1307.58 1566.16 1308 1566.16 Q1308.8 1566.16 1308.8 1566.81 Q1308.8 1567.03 1308.35 1568.06 Q1307.93 1569.09 1307 1570.61 Q1306.09 1572.12 1304.9 1573.54 Q1303.74 1574.95 1301.97 1575.98 Q1300.2 1576.98 1298.3 1576.98 Q1295.63 1576.98 1293.92 1575.28 Q1292.25 1573.57 1292.25 1570.9 Q1292.25 1570.03 1292.92 1567.26 Q1293.6 1564.45 1297.27 1549.87 L1291.44 1549.87 Q1290.64 1549.87 1290.31 1549.83 Q1290.02 1549.8 1289.8 1549.64 Q1289.61 1549.45 1289.61 1549.06 Q1289.61 1548.45 1289.86 1548.19 Q1290.12 1547.9 1290.44 1547.87 Q1290.8 1547.8 1291.6 1547.8 L1297.79 1547.8 L1300.36 1537.34 Q1300.62 1536.31 1301.26 1535.73 Q1301.94 1535.12 1302.33 1535.05 Q1302.71 1534.95 1303 1534.95 Q1303.87 1534.95 1304.39 1535.44 Q1304.9 1535.89 1304.9 1536.73 Q1304.9 1537.18 1302.2 1547.8 L1308 1547.8 Q1308.74 1547.8 1309.03 1547.84 Q1309.35 1547.87 1309.61 1548.03 Q1309.86 1548.19 1309.86 1548.54 Z" fill="#000000" fill-rule="evenodd" fill-opacity="1" /><polyline clip-path="url(#clip452)" style="stroke:#000000; stroke-linecap:butt; stroke-linejoin:round; stroke-width:2; stroke-opacity:0.1; fill:none" points="
  250.028,1387.37 2352.76,1387.37 
  "/>
<polyline clip-path="url(#clip452)" style="stroke:#000000; stroke-linecap:butt; stroke-linejoin:round; stroke-width:2; stroke-opacity:0.1; fill:none" points="
  250.028,1082.52 2352.76,1082.52 
  "/>
<polyline clip-path="url(#clip452)" style="stroke:#000000; stroke-linecap:butt; stroke-linejoin:round; stroke-width:2; stroke-opacity:0.1; fill:none" points="
  250.028,777.665 2352.76,777.665 
  "/>
<polyline clip-path="url(#clip452)" style="stroke:#000000; stroke-linecap:butt; stroke-linejoin:round; stroke-width:2; stroke-opacity:0.1; fill:none" points="
  250.028,472.81 2352.76,472.81 
  "/>
<polyline clip-path="url(#clip452)" style="stroke:#000000; stroke-linecap:butt; stroke-linejoin:round; stroke-width:2; stroke-opacity:0.1; fill:none" points="
  250.028,167.956 2352.76,167.956 
  "/>
<polyline clip-path="url(#clip450)" style="stroke:#000000; stroke-linecap:butt; stroke-linejoin:round; stroke-width:4; stroke-opacity:1; fill:none" points="
  250.028,1423.18 250.028,123.472 
  "/>
<polyline clip-path="url(#clip450)" style="stroke:#000000; stroke-linecap:butt; stroke-linejoin:round; stroke-width:4; stroke-opacity:1; fill:none" points="
  250.028,1387.37 268.926,1387.37 
  "/>
<polyline clip-path="url(#clip450)" style="stroke:#000000; stroke-linecap:butt; stroke-linejoin:round; stroke-width:4; stroke-opacity:1; fill:none" points="
  250.028,1082.52 268.926,1082.52 
  "/>
<polyline clip-path="url(#clip450)" style="stroke:#000000; stroke-linecap:butt; stroke-linejoin:round; stroke-width:4; stroke-opacity:1; fill:none" points="
  250.028,777.665 268.926,777.665 
  "/>
<polyline clip-path="url(#clip450)" style="stroke:#000000; stroke-linecap:butt; stroke-linejoin:round; stroke-width:4; stroke-opacity:1; fill:none" points="
  250.028,472.81 268.926,472.81 
  "/>
<polyline clip-path="url(#clip450)" style="stroke:#000000; stroke-linecap:butt; stroke-linejoin:round; stroke-width:4; stroke-opacity:1; fill:none" points="
  250.028,167.956 268.926,167.956 
  "/>
<path clip-path="url(#clip450)" d="M126.691 1373.17 Q123.08 1373.17 121.251 1376.74 Q119.445 1380.28 119.445 1387.41 Q119.445 1394.52 121.251 1398.08 Q123.08 1401.62 126.691 1401.62 Q130.325 1401.62 132.13 1398.08 Q133.959 1394.52 133.959 1387.41 Q133.959 1380.28 132.13 1376.74 Q130.325 1373.17 126.691 1373.17 M126.691 1369.47 Q132.501 1369.47 135.556 1374.08 Q138.635 1378.66 138.635 1387.41 Q138.635 1396.14 135.556 1400.74 Q132.501 1405.33 126.691 1405.33 Q120.88 1405.33 117.802 1400.74 Q114.746 1396.14 114.746 1387.41 Q114.746 1378.66 117.802 1374.08 Q120.88 1369.47 126.691 1369.47 Z" fill="#000000" fill-rule="evenodd" fill-opacity="1" /><path clip-path="url(#clip450)" d="M146.853 1398.78 L151.737 1398.78 L151.737 1404.65 L146.853 1404.65 L146.853 1398.78 Z" fill="#000000" fill-rule="evenodd" fill-opacity="1" /><path clip-path="url(#clip450)" d="M171.922 1373.17 Q168.311 1373.17 166.482 1376.74 Q164.677 1380.28 164.677 1387.41 Q164.677 1394.52 166.482 1398.08 Q168.311 1401.62 171.922 1401.62 Q175.556 1401.62 177.362 1398.08 Q179.19 1394.52 179.19 1387.41 Q179.19 1380.28 177.362 1376.74 Q175.556 1373.17 171.922 1373.17 M171.922 1369.47 Q177.732 1369.47 180.788 1374.08 Q183.866 1378.66 183.866 1387.41 Q183.866 1396.14 180.788 1400.74 Q177.732 1405.33 171.922 1405.33 Q166.112 1405.33 163.033 1400.74 Q159.978 1396.14 159.978 1387.41 Q159.978 1378.66 163.033 1374.08 Q166.112 1369.47 171.922 1369.47 Z" fill="#000000" fill-rule="evenodd" fill-opacity="1" /><path clip-path="url(#clip450)" d="M202.084 1373.17 Q198.473 1373.17 196.644 1376.74 Q194.838 1380.28 194.838 1387.41 Q194.838 1394.52 196.644 1398.08 Q198.473 1401.62 202.084 1401.62 Q205.718 1401.62 207.524 1398.08 Q209.352 1394.52 209.352 1387.41 Q209.352 1380.28 207.524 1376.74 Q205.718 1373.17 202.084 1373.17 M202.084 1369.47 Q207.894 1369.47 210.949 1374.08 Q214.028 1378.66 214.028 1387.41 Q214.028 1396.14 210.949 1400.74 Q207.894 1405.33 202.084 1405.33 Q196.274 1405.33 193.195 1400.74 Q190.139 1396.14 190.139 1387.41 Q190.139 1378.66 193.195 1374.08 Q196.274 1369.47 202.084 1369.47 Z" fill="#000000" fill-rule="evenodd" fill-opacity="1" /><path clip-path="url(#clip450)" d="M128.288 1068.32 Q124.677 1068.32 122.848 1071.88 Q121.043 1075.43 121.043 1082.55 Q121.043 1089.66 122.848 1093.23 Q124.677 1096.77 128.288 1096.77 Q131.922 1096.77 133.728 1093.23 Q135.556 1089.66 135.556 1082.55 Q135.556 1075.43 133.728 1071.88 Q131.922 1068.32 128.288 1068.32 M128.288 1064.62 Q134.098 1064.62 137.154 1069.22 Q140.232 1073.8 140.232 1082.55 Q140.232 1091.28 137.154 1095.89 Q134.098 1100.47 128.288 1100.47 Q122.478 1100.47 119.399 1095.89 Q116.343 1091.28 116.343 1082.55 Q116.343 1073.8 119.399 1069.22 Q122.478 1064.62 128.288 1064.62 Z" fill="#000000" fill-rule="evenodd" fill-opacity="1" /><path clip-path="url(#clip450)" d="M148.45 1093.92 L153.334 1093.92 L153.334 1099.8 L148.45 1099.8 L148.45 1093.92 Z" fill="#000000" fill-rule="evenodd" fill-opacity="1" /><path clip-path="url(#clip450)" d="M173.519 1068.32 Q169.908 1068.32 168.079 1071.88 Q166.274 1075.43 166.274 1082.55 Q166.274 1089.66 168.079 1093.23 Q169.908 1096.77 173.519 1096.77 Q177.153 1096.77 178.959 1093.23 Q180.788 1089.66 180.788 1082.55 Q180.788 1075.43 178.959 1071.88 Q177.153 1068.32 173.519 1068.32 M173.519 1064.62 Q179.329 1064.62 182.385 1069.22 Q185.463 1073.8 185.463 1082.55 Q185.463 1091.28 182.385 1095.89 Q179.329 1100.47 173.519 1100.47 Q167.709 1100.47 164.63 1095.89 Q161.575 1091.28 161.575 1082.55 Q161.575 1073.8 164.63 1069.22 Q167.709 1064.62 173.519 1064.62 Z" fill="#000000" fill-rule="evenodd" fill-opacity="1" /><path clip-path="url(#clip450)" d="M197.709 1095.86 L214.028 1095.86 L214.028 1099.8 L192.084 1099.8 L192.084 1095.86 Q194.746 1093.11 199.329 1088.48 Q203.936 1083.83 205.116 1082.49 Q207.362 1079.96 208.241 1078.23 Q209.144 1076.47 209.144 1074.78 Q209.144 1072.02 207.199 1070.29 Q205.278 1068.55 202.176 1068.55 Q199.977 1068.55 197.524 1069.31 Q195.093 1070.08 192.315 1071.63 L192.315 1066.91 Q195.139 1065.77 197.593 1065.19 Q200.047 1064.62 202.084 1064.62 Q207.454 1064.62 210.649 1067.3 Q213.843 1069.99 213.843 1074.48 Q213.843 1076.61 213.033 1078.53 Q212.246 1080.43 210.139 1083.02 Q209.561 1083.69 206.459 1086.91 Q203.357 1090.1 197.709 1095.86 Z" fill="#000000" fill-rule="evenodd" fill-opacity="1" /><path clip-path="url(#clip450)" d="M126.205 763.464 Q122.593 763.464 120.765 767.029 Q118.959 770.57 118.959 777.7 Q118.959 784.806 120.765 788.371 Q122.593 791.913 126.205 791.913 Q129.839 791.913 131.644 788.371 Q133.473 784.806 133.473 777.7 Q133.473 770.57 131.644 767.029 Q129.839 763.464 126.205 763.464 M126.205 759.76 Q132.015 759.76 135.07 764.367 Q138.149 768.95 138.149 777.7 Q138.149 786.427 135.07 791.033 Q132.015 795.617 126.205 795.617 Q120.394 795.617 117.316 791.033 Q114.26 786.427 114.26 777.7 Q114.26 768.95 117.316 764.367 Q120.394 759.76 126.205 759.76 Z" fill="#000000" fill-rule="evenodd" fill-opacity="1" /><path clip-path="url(#clip450)" d="M146.366 789.066 L151.251 789.066 L151.251 794.945 L146.366 794.945 L146.366 789.066 Z" fill="#000000" fill-rule="evenodd" fill-opacity="1" /><path clip-path="url(#clip450)" d="M171.436 763.464 Q167.825 763.464 165.996 767.029 Q164.19 770.57 164.19 777.7 Q164.19 784.806 165.996 788.371 Q167.825 791.913 171.436 791.913 Q175.07 791.913 176.876 788.371 Q178.704 784.806 178.704 777.7 Q178.704 770.57 176.876 767.029 Q175.07 763.464 171.436 763.464 M171.436 759.76 Q177.246 759.76 180.301 764.367 Q183.38 768.95 183.38 777.7 Q183.38 786.427 180.301 791.033 Q177.246 795.617 171.436 795.617 Q165.626 795.617 162.547 791.033 Q159.491 786.427 159.491 777.7 Q159.491 768.95 162.547 764.367 Q165.626 759.76 171.436 759.76 Z" fill="#000000" fill-rule="evenodd" fill-opacity="1" /><path clip-path="url(#clip450)" d="M204.445 764.459 L192.639 782.908 L204.445 782.908 L204.445 764.459 M203.218 760.385 L209.098 760.385 L209.098 782.908 L214.028 782.908 L214.028 786.797 L209.098 786.797 L209.098 794.945 L204.445 794.945 L204.445 786.797 L188.843 786.797 L188.843 782.283 L203.218 760.385 Z" fill="#000000" fill-rule="evenodd" fill-opacity="1" /><path clip-path="url(#clip450)" d="M126.529 458.609 Q122.918 458.609 121.089 462.174 Q119.283 465.716 119.283 472.845 Q119.283 479.952 121.089 483.516 Q122.918 487.058 126.529 487.058 Q130.163 487.058 131.968 483.516 Q133.797 479.952 133.797 472.845 Q133.797 465.716 131.968 462.174 Q130.163 458.609 126.529 458.609 M126.529 454.905 Q132.339 454.905 135.394 459.512 Q138.473 464.095 138.473 472.845 Q138.473 481.572 135.394 486.178 Q132.339 490.762 126.529 490.762 Q120.718 490.762 117.64 486.178 Q114.584 481.572 114.584 472.845 Q114.584 464.095 117.64 459.512 Q120.718 454.905 126.529 454.905 Z" fill="#000000" fill-rule="evenodd" fill-opacity="1" /><path clip-path="url(#clip450)" d="M146.691 484.211 L151.575 484.211 L151.575 490.09 L146.691 490.09 L146.691 484.211 Z" fill="#000000" fill-rule="evenodd" fill-opacity="1" /><path clip-path="url(#clip450)" d="M171.76 458.609 Q168.149 458.609 166.32 462.174 Q164.515 465.716 164.515 472.845 Q164.515 479.952 166.32 483.516 Q168.149 487.058 171.76 487.058 Q175.394 487.058 177.2 483.516 Q179.028 479.952 179.028 472.845 Q179.028 465.716 177.2 462.174 Q175.394 458.609 171.76 458.609 M171.76 454.905 Q177.57 454.905 180.626 459.512 Q183.704 464.095 183.704 472.845 Q183.704 481.572 180.626 486.178 Q177.57 490.762 171.76 490.762 Q165.95 490.762 162.871 486.178 Q159.815 481.572 159.815 472.845 Q159.815 464.095 162.871 459.512 Q165.95 454.905 171.76 454.905 Z" fill="#000000" fill-rule="evenodd" fill-opacity="1" /><path clip-path="url(#clip450)" d="M202.5 470.947 Q199.352 470.947 197.5 473.1 Q195.672 475.253 195.672 479.003 Q195.672 482.729 197.5 484.905 Q199.352 487.058 202.5 487.058 Q205.649 487.058 207.477 484.905 Q209.329 482.729 209.329 479.003 Q209.329 475.253 207.477 473.1 Q205.649 470.947 202.5 470.947 M211.783 456.294 L211.783 460.554 Q210.024 459.72 208.218 459.28 Q206.436 458.841 204.676 458.841 Q200.047 458.841 197.593 461.966 Q195.163 465.091 194.815 471.41 Q196.181 469.396 198.241 468.331 Q200.301 467.243 202.778 467.243 Q207.987 467.243 210.996 470.415 Q214.028 473.563 214.028 479.003 Q214.028 484.327 210.88 487.544 Q207.732 490.762 202.5 490.762 Q196.505 490.762 193.334 486.178 Q190.163 481.572 190.163 472.845 Q190.163 464.651 194.051 459.79 Q197.94 454.905 204.491 454.905 Q206.25 454.905 208.033 455.253 Q209.838 455.6 211.783 456.294 Z" fill="#000000" fill-rule="evenodd" fill-opacity="1" /><path clip-path="url(#clip450)" d="M126.783 153.754 Q123.172 153.754 121.343 157.319 Q119.538 160.861 119.538 167.99 Q119.538 175.097 121.343 178.662 Q123.172 182.203 126.783 182.203 Q130.417 182.203 132.223 178.662 Q134.052 175.097 134.052 167.99 Q134.052 160.861 132.223 157.319 Q130.417 153.754 126.783 153.754 M126.783 150.051 Q132.593 150.051 135.649 154.657 Q138.728 159.24 138.728 167.99 Q138.728 176.717 135.649 181.324 Q132.593 185.907 126.783 185.907 Q120.973 185.907 117.894 181.324 Q114.839 176.717 114.839 167.99 Q114.839 159.24 117.894 154.657 Q120.973 150.051 126.783 150.051 Z" fill="#000000" fill-rule="evenodd" fill-opacity="1" /><path clip-path="url(#clip450)" d="M146.945 179.356 L151.829 179.356 L151.829 185.236 L146.945 185.236 L146.945 179.356 Z" fill="#000000" fill-rule="evenodd" fill-opacity="1" /><path clip-path="url(#clip450)" d="M172.014 153.754 Q168.403 153.754 166.575 157.319 Q164.769 160.861 164.769 167.99 Q164.769 175.097 166.575 178.662 Q168.403 182.203 172.014 182.203 Q175.649 182.203 177.454 178.662 Q179.283 175.097 179.283 167.99 Q179.283 160.861 177.454 157.319 Q175.649 153.754 172.014 153.754 M172.014 150.051 Q177.825 150.051 180.88 154.657 Q183.959 159.24 183.959 167.99 Q183.959 176.717 180.88 181.324 Q177.825 185.907 172.014 185.907 Q166.204 185.907 163.126 181.324 Q160.07 176.717 160.07 167.99 Q160.07 159.24 163.126 154.657 Q166.204 150.051 172.014 150.051 Z" fill="#000000" fill-rule="evenodd" fill-opacity="1" /><path clip-path="url(#clip450)" d="M202.176 168.824 Q198.843 168.824 196.922 170.606 Q195.024 172.388 195.024 175.513 Q195.024 178.638 196.922 180.421 Q198.843 182.203 202.176 182.203 Q205.51 182.203 207.431 180.421 Q209.352 178.615 209.352 175.513 Q209.352 172.388 207.431 170.606 Q205.533 168.824 202.176 168.824 M197.5 166.833 Q194.491 166.092 192.801 164.032 Q191.135 161.972 191.135 159.009 Q191.135 154.865 194.075 152.458 Q197.037 150.051 202.176 150.051 Q207.338 150.051 210.278 152.458 Q213.218 154.865 213.218 159.009 Q213.218 161.972 211.528 164.032 Q209.861 166.092 206.875 166.833 Q210.255 167.62 212.13 169.912 Q214.028 172.203 214.028 175.513 Q214.028 180.537 210.949 183.222 Q207.894 185.907 202.176 185.907 Q196.459 185.907 193.38 183.222 Q190.325 180.537 190.325 175.513 Q190.325 172.203 192.223 169.912 Q194.121 167.62 197.5 166.833 M195.787 159.449 Q195.787 162.134 197.454 163.639 Q199.144 165.143 202.176 165.143 Q205.186 165.143 206.875 163.639 Q208.588 162.134 208.588 159.449 Q208.588 156.764 206.875 155.259 Q205.186 153.754 202.176 153.754 Q199.144 153.754 197.454 155.259 Q195.787 156.764 195.787 159.449 Z" fill="#000000" fill-rule="evenodd" fill-opacity="1" /><path clip-path="url(#clip450)" d="M27.2366 806.044 Q28.6537 806.044 29.7164 807.204 Q30.747 808.331 30.747 809.555 Q30.747 810.682 30.0707 811.391 Q29.3622 812.067 28.3638 812.067 Q27.0434 812.067 25.9484 810.94 Q24.8534 809.812 24.8534 808.492 Q24.8534 807.397 25.5297 806.721 Q26.206 806.044 27.2366 806.044 M59.0238 805.465 Q59.2814 805.465 60.312 805.755 Q61.3104 806.044 62.8563 806.753 Q64.37 807.429 65.787 808.363 Q67.2041 809.297 68.2024 810.843 Q69.2008 812.357 69.2008 814.096 Q69.2008 816.447 67.6549 817.993 Q66.1091 819.506 63.7902 819.506 Q62.5342 819.506 58.5085 817.993 Q46.7856 813.613 46.3025 813.452 Q44.4667 812.711 42.8564 812.711 Q42.1157 812.711 41.6648 812.872 Q41.1817 813.033 41.0207 813.355 Q40.8275 813.677 40.7953 813.87 Q40.7631 814.031 40.7631 814.354 Q40.7631 816.254 42.6954 818.025 Q44.6278 819.796 48.9433 821.02 Q49.7485 821.278 49.9417 821.439 Q50.135 821.6 50.135 822.083 Q50.1028 822.888 49.4586 822.888 Q49.2654 822.888 48.5247 822.663 Q47.7517 822.437 46.5923 822.018 Q45.4007 821.6 44.1769 820.859 Q42.9208 820.118 41.8258 819.217 Q40.7308 818.283 40.0223 816.962 Q39.3138 815.642 39.3138 814.16 Q39.3138 811.745 40.8919 810.263 Q42.4378 808.75 44.7244 808.75 Q45.9804 808.75 48.2026 809.619 Q51.1011 810.682 52.0351 811.069 L58.9594 813.645 Q61.4714 814.579 62.2444 814.869 Q62.9851 815.126 63.8869 815.352 Q64.7564 815.545 65.5616 815.545 Q66.6888 815.545 67.2041 815.191 Q67.7194 814.804 67.7194 813.967 Q67.7194 811.648 65.4327 809.941 Q63.1139 808.234 59.5713 807.236 Q59.4747 807.204 59.3136 807.172 Q58.5085 806.914 58.4119 806.656 Q58.3797 806.527 58.3797 806.27 Q58.3797 805.465 59.0238 805.465 Z" fill="#000000" fill-rule="evenodd" fill-opacity="1" /><path clip-path="url(#clip450)" d="M51.9707 794.824 Q40.8275 794.824 31.842 790.669 Q28.0739 788.898 24.9178 786.418 Q21.7616 783.938 20.3767 782.296 Q18.9919 780.653 18.9919 780.202 Q18.9919 779.558 19.636 779.526 Q19.9581 779.526 20.7632 780.395 Q31.5844 791.023 51.9707 790.991 Q72.4214 790.991 82.8239 780.653 Q83.9511 779.526 84.3054 779.526 Q84.9495 779.526 84.9495 780.202 Q84.9495 780.653 83.6291 782.231 Q82.3086 783.809 79.2813 786.257 Q76.2539 788.705 72.5502 790.476 Q63.5648 794.824 51.9707 794.824 Z" fill="#000000" fill-rule="evenodd" fill-opacity="1" /><path clip-path="url(#clip450)" d="M40.7631 754.255 Q41.6648 754.255 41.8903 754.673 Q42.0835 755.092 42.0835 756.252 L42.0835 762.435 L61.5358 767.33 Q63.2427 767.717 64.692 767.717 Q66.3023 767.717 67.0108 767.234 Q67.7194 766.718 67.7194 765.656 Q67.7194 763.562 65.8192 761.308 Q63.9191 759.021 59.2814 757.089 Q58.6695 756.831 58.5407 756.702 Q58.3797 756.541 58.3797 756.123 Q58.3797 755.318 59.0238 755.318 Q59.2492 755.318 60.2798 755.768 Q61.3104 756.187 62.8241 757.121 Q64.3377 758.023 65.7548 759.215 Q67.1719 760.374 68.2024 762.145 Q69.2008 763.917 69.2008 765.817 Q69.2008 768.49 67.4939 770.197 Q65.787 771.871 63.1139 771.871 Q62.2444 771.871 59.4747 771.195 Q56.6727 770.519 42.0835 766.847 L42.0835 772.677 Q42.0835 773.482 42.0513 773.804 Q42.0191 774.094 41.8581 774.319 Q41.6648 774.512 41.2783 774.512 Q40.6664 774.512 40.4088 774.255 Q40.1189 773.997 40.0867 773.675 Q40.0223 773.321 40.0223 772.516 L40.0223 766.332 L29.5554 763.756 Q28.5248 763.498 27.9451 762.854 Q27.3332 762.177 27.2688 761.791 Q27.1722 761.405 27.1722 761.115 Q27.1722 760.245 27.6553 759.73 Q28.1062 759.215 28.9435 759.215 Q29.3944 759.215 40.0223 761.92 L40.0223 756.123 Q40.0223 755.382 40.0545 755.092 Q40.0867 754.77 40.2478 754.512 Q40.4088 754.255 40.7631 754.255 Z" fill="#000000" fill-rule="evenodd" fill-opacity="1" /><path clip-path="url(#clip450)" d="M84.3054 749.091 Q83.9833 749.091 83.1782 748.254 Q72.357 737.626 51.9707 737.626 Q31.52 737.626 21.1819 747.835 Q19.9903 749.091 19.636 749.091 Q18.9919 749.091 18.9919 748.447 Q18.9919 747.996 20.3123 746.418 Q21.6328 744.808 24.6601 742.393 Q27.6875 739.945 31.3911 738.141 Q40.3766 733.794 51.9707 733.794 Q63.1139 733.794 72.0994 737.948 Q75.8674 739.719 79.0236 742.199 Q82.1798 744.679 83.5646 746.322 Q84.9495 747.964 84.9495 748.447 Q84.9495 749.091 84.3054 749.091 Z" fill="#000000" fill-rule="evenodd" fill-opacity="1" /><path clip-path="url(#clip450)" d="M871.976 12.096 L882.994 12.096 L909.811 62.6918 L909.811 12.096 L917.751 12.096 L917.751 72.576 L906.733 72.576 L879.916 21.9802 L879.916 72.576 L871.976 72.576 L871.976 12.096 Z" fill="#000000" fill-rule="evenodd" fill-opacity="1" /><path clip-path="url(#clip450)" d="M932.942 54.671 L932.942 27.2059 L940.396 27.2059 L940.396 54.3874 Q940.396 60.8284 942.907 64.0691 Q945.419 67.2693 950.442 67.2693 Q956.478 67.2693 959.962 63.421 Q963.486 59.5726 963.486 52.9291 L963.486 27.2059 L970.94 27.2059 L970.94 72.576 L963.486 72.576 L963.486 65.6084 Q960.772 69.7404 957.166 71.7658 Q953.602 73.7508 948.862 73.7508 Q941.044 73.7508 936.993 68.8897 Q932.942 64.0286 932.942 54.671 M951.698 26.1121 L951.698 26.1121 Z" fill="#000000" fill-rule="evenodd" fill-opacity="1" /><path clip-path="url(#clip450)" d="M1021.62 35.9153 Q1024.41 30.8922 1028.3 28.5022 Q1032.19 26.1121 1037.46 26.1121 Q1044.54 26.1121 1048.39 31.0947 Q1052.24 36.0368 1052.24 45.1919 L1052.24 72.576 L1044.75 72.576 L1044.75 45.4349 Q1044.75 38.913 1042.44 35.7533 Q1040.13 32.5936 1035.39 32.5936 Q1029.6 32.5936 1026.23 36.4419 Q1022.87 40.2903 1022.87 46.9338 L1022.87 72.576 L1015.38 72.576 L1015.38 45.4349 Q1015.38 38.8725 1013.07 35.7533 Q1010.76 32.5936 1005.94 32.5936 Q1000.23 32.5936 996.865 36.4824 Q993.503 40.3308 993.503 46.9338 L993.503 72.576 L986.009 72.576 L986.009 27.2059 L993.503 27.2059 L993.503 34.2544 Q996.055 30.082 999.62 28.0971 Q1003.18 26.1121 1008.09 26.1121 Q1013.03 26.1121 1016.47 28.6237 Q1019.96 31.1352 1021.62 35.9153 Z" fill="#000000" fill-rule="evenodd" fill-opacity="1" /><path clip-path="url(#clip450)" d="M1099.68 49.9314 Q1099.68 41.7081 1096.27 37.0496 Q1092.91 32.3505 1087 32.3505 Q1081.08 32.3505 1077.68 37.0496 Q1074.32 41.7081 1074.32 49.9314 Q1074.32 58.1548 1077.68 62.8538 Q1081.08 67.5124 1087 67.5124 Q1092.91 67.5124 1096.27 62.8538 Q1099.68 58.1548 1099.68 49.9314 M1074.32 34.0924 Q1076.67 30.0415 1080.23 28.0971 Q1083.84 26.1121 1088.82 26.1121 Q1097.08 26.1121 1102.23 32.6746 Q1107.41 39.2371 1107.41 49.9314 Q1107.41 60.6258 1102.23 67.1883 Q1097.08 73.7508 1088.82 73.7508 Q1083.84 73.7508 1080.23 71.8063 Q1076.67 69.8214 1074.32 65.7705 L1074.32 72.576 L1066.82 72.576 L1066.82 9.54393 L1074.32 9.54393 L1074.32 34.0924 Z" fill="#000000" fill-rule="evenodd" fill-opacity="1" /><path clip-path="url(#clip450)" d="M1158.58 48.0275 L1158.58 51.6733 L1124.31 51.6733 Q1124.79 59.3701 1128.92 63.421 Q1133.1 67.4314 1140.51 67.4314 Q1144.8 67.4314 1148.81 66.3781 Q1152.87 65.3249 1156.84 63.2184 L1156.84 70.267 Q1152.83 71.9684 1148.61 72.8596 Q1144.4 73.7508 1140.06 73.7508 Q1129.21 73.7508 1122.85 67.4314 Q1116.53 61.1119 1116.53 50.3365 Q1116.53 39.1965 1122.52 32.6746 Q1128.56 26.1121 1138.77 26.1121 Q1147.92 26.1121 1153.23 32.0264 Q1158.58 37.9003 1158.58 48.0275 M1151.12 45.84 Q1151.04 39.7232 1147.68 36.0774 Q1144.36 32.4315 1138.85 32.4315 Q1132.61 32.4315 1128.84 35.9558 Q1125.12 39.4801 1124.55 45.8805 L1151.12 45.84 Z" fill="#000000" fill-rule="evenodd" fill-opacity="1" /><path clip-path="url(#clip450)" d="M1197.1 34.1734 Q1195.85 33.4443 1194.35 33.1202 Q1192.89 32.7556 1191.11 32.7556 Q1184.79 32.7556 1181.38 36.8875 Q1178.02 40.9789 1178.02 48.6757 L1178.02 72.576 L1170.53 72.576 L1170.53 27.2059 L1178.02 27.2059 L1178.02 34.2544 Q1180.37 30.1225 1184.14 28.1376 Q1187.91 26.1121 1193.29 26.1121 Q1194.06 26.1121 1195 26.2337 Q1195.93 26.3147 1197.06 26.5172 L1197.1 34.1734 Z" fill="#000000" fill-rule="evenodd" fill-opacity="1" /><path clip-path="url(#clip450)" d="M1248.87 32.4315 Q1242.88 32.4315 1239.39 37.1306 Q1235.91 41.7891 1235.91 49.9314 Q1235.91 58.0738 1239.35 62.7728 Q1242.84 67.4314 1248.87 67.4314 Q1254.83 67.4314 1258.31 62.7323 Q1261.79 58.0333 1261.79 49.9314 Q1261.79 41.8701 1258.31 37.1711 Q1254.83 32.4315 1248.87 32.4315 M1248.87 26.1121 Q1258.59 26.1121 1264.14 32.4315 Q1269.69 38.7509 1269.69 49.9314 Q1269.69 61.0714 1264.14 67.4314 Q1258.59 73.7508 1248.87 73.7508 Q1239.11 73.7508 1233.56 67.4314 Q1228.05 61.0714 1228.05 49.9314 Q1228.05 38.7509 1233.56 32.4315 Q1239.11 26.1121 1248.87 26.1121 Z" fill="#000000" fill-rule="evenodd" fill-opacity="1" /><path clip-path="url(#clip450)" d="M1305.02 9.54393 L1305.02 15.7418 L1297.89 15.7418 Q1293.88 15.7418 1292.3 17.3622 Q1290.76 18.9825 1290.76 23.1955 L1290.76 27.2059 L1303.03 27.2059 L1303.03 32.9987 L1290.76 32.9987 L1290.76 72.576 L1283.26 72.576 L1283.26 32.9987 L1276.13 32.9987 L1276.13 27.2059 L1283.26 27.2059 L1283.26 24.0462 Q1283.26 16.471 1286.79 13.0277 Q1290.31 9.54393 1297.97 9.54393 L1305.02 9.54393 Z" fill="#000000" fill-rule="evenodd" fill-opacity="1" /><path clip-path="url(#clip450)" d="M1337.95 12.096 L1346.13 12.096 L1346.13 72.576 L1337.95 72.576 L1337.95 12.096 Z" fill="#000000" fill-rule="evenodd" fill-opacity="1" /><path clip-path="url(#clip450)" d="M1399.81 45.1919 L1399.81 72.576 L1392.36 72.576 L1392.36 45.4349 Q1392.36 38.994 1389.84 35.7938 Q1387.33 32.5936 1382.31 32.5936 Q1376.27 32.5936 1372.79 36.4419 Q1369.31 40.2903 1369.31 46.9338 L1369.31 72.576 L1361.81 72.576 L1361.81 27.2059 L1369.31 27.2059 L1369.31 34.2544 Q1371.98 30.163 1375.58 28.1376 Q1379.23 26.1121 1383.97 26.1121 Q1391.79 26.1121 1395.8 30.9732 Q1399.81 35.7938 1399.81 45.1919 Z" fill="#000000" fill-rule="evenodd" fill-opacity="1" /><path clip-path="url(#clip450)" d="M1437.64 9.54393 L1437.64 15.7418 L1430.51 15.7418 Q1426.5 15.7418 1424.92 17.3622 Q1423.39 18.9825 1423.39 23.1955 L1423.39 27.2059 L1435.66 27.2059 L1435.66 32.9987 L1423.39 32.9987 L1423.39 72.576 L1415.89 72.576 L1415.89 32.9987 L1408.76 32.9987 L1408.76 27.2059 L1415.89 27.2059 L1415.89 24.0462 Q1415.89 16.471 1419.42 13.0277 Q1422.94 9.54393 1430.6 9.54393 L1437.64 9.54393 Z" fill="#000000" fill-rule="evenodd" fill-opacity="1" /><path clip-path="url(#clip450)" d="M1482.69 48.0275 L1482.69 51.6733 L1448.42 51.6733 Q1448.91 59.3701 1453.04 63.421 Q1457.21 67.4314 1464.62 67.4314 Q1468.92 67.4314 1472.93 66.3781 Q1476.98 65.3249 1480.95 63.2184 L1480.95 70.267 Q1476.94 71.9684 1472.73 72.8596 Q1468.51 73.7508 1464.18 73.7508 Q1453.32 73.7508 1446.96 67.4314 Q1440.64 61.1119 1440.64 50.3365 Q1440.64 39.1965 1446.64 32.6746 Q1452.67 26.1121 1462.88 26.1121 Q1472.04 26.1121 1477.34 32.0264 Q1482.69 37.9003 1482.69 48.0275 M1475.24 45.84 Q1475.16 39.7232 1471.79 36.0774 Q1468.47 32.4315 1462.96 32.4315 Q1456.72 32.4315 1452.96 35.9558 Q1449.23 39.4801 1448.66 45.8805 L1475.24 45.84 Z" fill="#000000" fill-rule="evenodd" fill-opacity="1" /><path clip-path="url(#clip450)" d="M1527.57 28.9478 L1527.57 35.9153 Q1524.41 34.1734 1521.21 33.3227 Q1518.05 32.4315 1514.81 32.4315 Q1507.56 32.4315 1503.55 37.0496 Q1499.54 41.6271 1499.54 49.9314 Q1499.54 58.2358 1503.55 62.8538 Q1507.56 67.4314 1514.81 67.4314 Q1518.05 67.4314 1521.21 66.5807 Q1524.41 65.6895 1527.57 63.9476 L1527.57 70.8341 Q1524.46 72.2924 1521.09 73.0216 Q1517.77 73.7508 1514 73.7508 Q1503.75 73.7508 1497.72 67.3098 Q1491.68 60.8689 1491.68 49.9314 Q1491.68 38.832 1497.76 32.472 Q1503.88 26.1121 1514.49 26.1121 Q1517.93 26.1121 1521.21 26.8413 Q1524.5 27.5299 1527.57 28.9478 Z" fill="#000000" fill-rule="evenodd" fill-opacity="1" /><path clip-path="url(#clip450)" d="M1547.91 14.324 L1547.91 27.2059 L1563.26 27.2059 L1563.26 32.9987 L1547.91 32.9987 L1547.91 57.6282 Q1547.91 63.1779 1549.41 64.7578 Q1550.95 66.3376 1555.61 66.3376 L1563.26 66.3376 L1563.26 72.576 L1555.61 72.576 Q1546.98 72.576 1543.7 69.3758 Q1540.42 66.1351 1540.42 57.6282 L1540.42 32.9987 L1534.95 32.9987 L1534.95 27.2059 L1540.42 27.2059 L1540.42 14.324 L1547.91 14.324 Z" fill="#000000" fill-rule="evenodd" fill-opacity="1" /><path clip-path="url(#clip450)" d="M1573.07 27.2059 L1580.52 27.2059 L1580.52 72.576 L1573.07 72.576 L1573.07 27.2059 M1573.07 9.54393 L1580.52 9.54393 L1580.52 18.9825 L1573.07 18.9825 L1573.07 9.54393 Z" fill="#000000" fill-rule="evenodd" fill-opacity="1" /><path clip-path="url(#clip450)" d="M1613.7 32.4315 Q1607.7 32.4315 1604.22 37.1306 Q1600.73 41.7891 1600.73 49.9314 Q1600.73 58.0738 1604.18 62.7728 Q1607.66 67.4314 1613.7 67.4314 Q1619.65 67.4314 1623.14 62.7323 Q1626.62 58.0333 1626.62 49.9314 Q1626.62 41.8701 1623.14 37.1711 Q1619.65 32.4315 1613.7 32.4315 M1613.7 26.1121 Q1623.42 26.1121 1628.97 32.4315 Q1634.52 38.7509 1634.52 49.9314 Q1634.52 61.0714 1628.97 67.4314 Q1623.42 73.7508 1613.7 73.7508 Q1603.93 73.7508 1598.38 67.4314 Q1592.87 61.0714 1592.87 49.9314 Q1592.87 38.7509 1598.38 32.4315 Q1603.93 26.1121 1613.7 26.1121 Z" fill="#000000" fill-rule="evenodd" fill-opacity="1" /><path clip-path="url(#clip450)" d="M1684.59 45.1919 L1684.59 72.576 L1677.13 72.576 L1677.13 45.4349 Q1677.13 38.994 1674.62 35.7938 Q1672.11 32.5936 1667.09 32.5936 Q1661.05 32.5936 1657.57 36.4419 Q1654.08 40.2903 1654.08 46.9338 L1654.08 72.576 L1646.59 72.576 L1646.59 27.2059 L1654.08 27.2059 L1654.08 34.2544 Q1656.76 30.163 1660.36 28.1376 Q1664.01 26.1121 1668.75 26.1121 Q1676.57 26.1121 1680.58 30.9732 Q1684.59 35.7938 1684.59 45.1919 Z" fill="#000000" fill-rule="evenodd" fill-opacity="1" /><path clip-path="url(#clip450)" d="M1728.38 28.5427 L1728.38 35.5912 Q1725.22 33.9709 1721.82 33.1607 Q1718.41 32.3505 1714.77 32.3505 Q1709.22 32.3505 1706.42 34.0519 Q1703.67 35.7533 1703.67 39.156 Q1703.67 41.7486 1705.65 43.2475 Q1707.64 44.7058 1713.63 46.0426 L1716.18 46.6097 Q1724.12 48.3111 1727.45 51.4303 Q1730.81 54.509 1730.81 60.0587 Q1730.81 66.3781 1725.79 70.0644 Q1720.8 73.7508 1712.05 73.7508 Q1708.41 73.7508 1704.44 73.0216 Q1700.51 72.3329 1696.13 70.9151 L1696.13 63.2184 Q1700.26 65.3654 1704.27 66.4591 Q1708.29 67.5124 1712.21 67.5124 Q1717.48 67.5124 1720.32 65.73 Q1723.15 63.9071 1723.15 60.6258 Q1723.15 57.5877 1721.09 55.9673 Q1719.06 54.3469 1712.13 52.8481 L1709.54 52.2405 Q1702.61 50.7821 1699.54 47.7845 Q1696.46 44.7463 1696.46 39.4801 Q1696.46 33.0797 1700.99 29.5959 Q1705.53 26.1121 1713.88 26.1121 Q1718.01 26.1121 1721.65 26.7198 Q1725.3 27.3274 1728.38 28.5427 Z" fill="#000000" fill-rule="evenodd" fill-opacity="1" /><polyline clip-path="url(#clip452)" style="stroke:#009af9; stroke-linecap:butt; stroke-linejoin:round; stroke-width:4; stroke-opacity:1; fill:none" points="
  250.028,1386.22 250.085,1386.22 250.098,1386.22 250.113,1386.22 250.13,1386.22 250.15,1386.22 250.171,1386.22 250.196,1386.22 250.223,1386.22 250.254,1386.22 
  250.289,1386.22 250.328,1386.22 250.372,1386.22 250.421,1386.22 250.477,1386.22 250.539,1386.22 250.61,1386.23 250.689,1386.23 250.778,1386.23 250.878,1386.23 
  250.991,1386.23 251.117,1386.23 251.26,1386.23 251.42,1386.23 251.601,1386.23 251.804,1386.23 252.029,1386.24 252.276,1386.24 252.543,1386.24 252.827,1386.24 
  253.129,1386.24 253.447,1386.25 253.779,1386.25 254.126,1386.25 254.487,1386.25 254.862,1386.26 255.248,1386.26 255.646,1386.26 256.054,1386.26 256.473,1386.27 
  256.904,1386.27 257.345,1386.27 257.796,1386.27 258.259,1386.27 258.735,1386.28 259.22,1386.28 259.715,1386.28 260.222,1386.28 260.735,1386.29 261.257,1386.29 
  261.789,1386.29 262.332,1386.29 262.881,1386.29 263.435,1386.3 263.996,1386.3 264.565,1386.3 265.145,1386.3 265.734,1386.3 266.327,1386.3 266.931,1386.31 
  267.545,1386.31 268.168,1386.31 268.799,1386.31 269.435,1386.31 270.081,1386.31 270.739,1386.32 271.409,1386.32 272.079,1386.32 272.758,1386.32 273.45,1386.32 
  274.154,1386.32 274.868,1386.32 275.59,1386.32 276.328,1386.32 277.089,1386.32 277.87,1386.33 278.672,1386.33 279.479,1386.33 280.293,1386.33 281.121,1386.33 
  281.957,1386.33 282.783,1386.33 283.611,1386.33 284.456,1386.33 285.315,1386.33 286.197,1386.33 287.109,1386.33 288.049,1386.33 288.999,1386.33 289.977,1386.32 
  290.973,1386.32 291.978,1386.32 292.985,1386.32 293.999,1386.32 295.021,1386.32 296.057,1386.32 297.099,1386.32 298.17,1386.32 299.263,1386.31 300.365,1386.31 
  301.503,1386.31 302.667,1386.31 303.867,1386.3 305.077,1386.3 306.313,1386.3 307.577,1386.3 308.878,1386.29 310.219,1386.29 311.602,1386.28 313.015,1386.28 
  314.455,1386.27 315.879,1386.27 317.329,1386.26 318.788,1386.26 320.277,1386.25 321.769,1386.25 323.325,1386.24 324.92,1386.24 326.603,1386.23 328.404,1386.22 
  330.317,1386.21 332.182,1386.2 334.14,1386.19 336.185,1386.18 338.159,1386.17 340.24,1386.16 342.438,1386.14 344.758,1386.12 347.296,1386.11 350.019,1386.09 
  352.796,1386.06 355.761,1386.04 358.849,1386.01 362.221,1385.99 365.55,1385.96 368.651,1385.93 371.927,1385.9 375.612,1385.87 379.274,1385.83 383.01,1385.79 
  387.213,1385.74 391.942,1385.68 395.534,1385.63 399.575,1385.58 403.895,1385.52 408.754,1385.45 414.221,1385.37 419.323,1385.29 425.062,1385.19 430.796,1385.1 
  436.456,1385 442.621,1384.88 449.556,1384.74 457.358,1384.55 466.135,1384.34 473.121,1384.13 480.98,1383.87 487.273,1383.65 494.353,1383.38 501.966,1383.07 
  508.848,1382.75 516.11,1382.39 522.967,1382.06 530.68,1381.66 539.358,1381.18 548.112,1380.67 557.959,1380.07 569.037,1379.42 578.51,1378.83 586.273,1378.31 
  595.007,1377.71 602.761,1377.16 610.944,1376.57 617.721,1375.99 625.346,1375.2 633.923,1374.18 642.418,1372.98 648.817,1372.02 656.017,1370.72 662.433,1369.52 
  668.216,1368.43 674.722,1367.15 680.85,1366 687.745,1364.75 695.501,1363.38 701.205,1362.32 707.21,1361.13 713.966,1359.54 721.566,1357.58 730.116,1355.18 
  737.77,1352.76 746.381,1349.66 754.425,1346.58 763.129,1342.67 770.734,1338.8 777.479,1334.99 783.513,1331.63 790.153,1327.9 796.568,1324.45 803.785,1320.6 
  811.904,1316.21 819.117,1311.73 827.231,1307.39 833.837,1303.6 839.575,1300.2 845.738,1295.87 852.671,1290.53 860.471,1283.8 869.246,1275.72 877.431,1268.5 
  886.439,1260.17 896.573,1250.68 905.551,1241.96 913.318,1233.51 922.055,1224.26 929.939,1213.96 938.809,1200.58 948.73,1182.97 956.925,1167.42 965.438,1152.05 
  974.39,1135.13 983.978,1116.4 993.35,1097.14 1002.65,1080.15 1010.65,1064.35 1018.33,1047.51 1026.21,1027.36 1034.28,1004.49 1041.51,983.904 1049.08,960.264 
  1056.15,936.448 1062.8,916.031 1069.65,893.312 1076.18,870.88 1082.42,850.812 1088.62,828.648 1094.53,810.487 1100.3,794.75 1105.58,780.149 1110.65,766.809 
  1115.51,755.557 1119.93,745.664 1124.15,737.394 1128.01,730.31 1131.61,723.852 1135.17,718.518 1138.3,714.013 1141.34,709.34 1144.28,704.907 1147.15,700.649 
  1149.92,696.077 1152.7,690.921 1155.56,685.694 1158.41,679.073 1161.41,671.283 1164.61,661.91 1168.02,651.96 1171.51,642.493 1175.05,633.382 1178.52,625.445 
  1181.99,617.497 1185.4,610.451 1188.81,602.443 1192.27,594.209 1195.74,585.962 1199.24,577.057 1202.8,568.242 1206.37,559.806 1209.94,551.763 1213.46,542.727 
  1217.06,532.93 1220.72,523.034 1224.41,512.594 1228.09,501.959 1231.81,492.335 1235.52,483.478 1239.19,473.766 1242.89,463.549 1246.59,454.806 1250.28,446.105 
  1253.93,438.179 1257.54,428.297 1261.2,418.231 1264.83,409.435 1268.45,400.419 1272.06,391.298 1275.64,381.788 1279.18,372.724 1282.71,365.46 1286.25,358.07 
  1289.77,350.919 1293.29,345.145 1296.79,339.408 1300.29,333.863 1303.77,329.721 1307.24,326.098 1310.67,322.795 1314.1,317.46 1317.56,309.846 1320.94,300.492 
  1324.13,290.151 1327.16,280.306 1330.02,270.498 1332.85,261.912 1335.6,253.836 1338.35,245.511 1341.01,237.548 1343.6,230.542 1346.23,225.153 1348.9,220.83 
  1351.66,215.142 1354.33,208.965 1356.96,202.283 1359.5,195.804 1361.98,190.348 1364.48,186.227 1367.06,182.133 1369.62,178.205 1372.17,173.767 1374.71,169.851 
  1377.21,166.351 1379.76,163.658 1382.28,161.918 1384.89,160.573 1387.51,160.256 1390.2,161.321 1393,162.247 1395.83,163.059 1398.66,163.832 1401.5,165.458 
  1404.41,165.92 1407.25,166.724 1410.11,167.432 1412.93,168.811 1415.78,170.113 1418.6,172.96 1421.52,176.047 1424.45,179.728 1427.44,183.635 1430.42,187.57 
  1433.44,191.335 1436.42,194.967 1439.39,199.422 1442.39,203.474 1445.36,208.331 1448.36,214.247 1451.45,220.781 1454.6,227.859 1457.76,235.423 1461.04,242.715 
  1464.28,250.878 1467.58,259.573 1470.98,269.796 1474.45,279.535 1477.95,289.478 1481.47,300.397 1485.09,310.725 1488.7,320.837 1492.31,329.708 1495.81,338.55 
  1499.27,347.1 1502.72,356.011 1506.14,364.102 1509.47,372.944 1512.86,383.523 1516.47,396.449 1520.25,409.607 1524.12,422.533 1528,435.236 1531.95,447.701 
  1535.89,460.741 1539.92,475.099 1544.11,490.35 1548.46,505.534 1552.82,520.977 1557.36,536.174 1561.77,551.217 1566.43,567.494 1571.15,584.335 1576.06,603.038 
  1581.09,622.529 1586.06,639.843 1591.36,656.702 1596.35,672.451 1601.61,687.565 1606.48,700.096 1610.88,711.702 1615.18,723.191 1619.47,734.622 1623.68,746.05 
  1628.09,757.932 1632.38,769.918 1636.93,782.43 1641.72,794.834 1645.87,805.764 1650.4,818.581 1655.34,832.689 1660.88,847.608 1666.12,861.196 1671.42,874.229 
  1676.36,886.681 1681.79,900.415 1687.39,914.994 1693.69,930.73 1700.2,946.016 1706.52,960.044 1712.57,973.082 1718.59,985.587 1724.36,997.556 1730.3,1009.92 
  1736.59,1023.19 1743.66,1038.64 1751.62,1055.08 1760.05,1070.51 1768.93,1085.57 1777.14,1099.37 1784.57,1111.3 1792.93,1124.43 1800.74,1136.33 1809.52,1148.69 
  1817.48,1158.79 1823.91,1166.69 1830.25,1173.94 1835.38,1179.7 1840.6,1185.31 1845.3,1190.37 1850.16,1195.89 1855.63,1202.26 1861.79,1209.23 1868.72,1216.47 
  1875.32,1223.27 1882.24,1229.65 1888.43,1234.9 1893.82,1239.34 1898.96,1243.45 1903.96,1247.51 1909.35,1251.76 1915.22,1256.11 1920.18,1259.73 1925.38,1263.42 
  1930.49,1266.96 1935.48,1270.32 1940.59,1273.72 1945.85,1277.25 1951.33,1280.71 1957.07,1284.1 1962.38,1287.16 1967.25,1289.92 1972.46,1292.83 1977.62,1295.64 
  1982.87,1298.59 1988.78,1301.92 1995.44,1305.64 2002.92,1309.54 2011.34,1313.7 2018.9,1317.44 2027.07,1321.23 2036.27,1325.06 2046.62,1329.01 2055.76,1332.29 
  2066.05,1335.82 2076.59,1339.28 2088.45,1343.11 2096.49,1345.44 2105.53,1347.9 2115.7,1350.3 2122.16,1351.78 2128.96,1353.34 2136.61,1354.96 2144.17,1356.44 
  2151.24,1357.8 2158.75,1359.17 2167.2,1360.64 2174.5,1361.86 2182.7,1363.16 2190.78,1364.41 2199.86,1365.78 2210.07,1367.27 2217.88,1368.35 2225.75,1369.38 
  2234.54,1370.47 2243.22,1371.5 2248.35,1372.13 2252.74,1372.63 2257.11,1373.13 2261.08,1373.57 2264.71,1373.97 2268.3,1374.35 2271.55,1374.69 2274.54,1375.01 
  2277.22,1375.29 2279.61,1375.53 2281.97,1375.77 2284.19,1375.99 2286.33,1376.19 2288.45,1376.39 2290.55,1376.58 2292.6,1376.76 2294.59,1376.94 2296.59,1377.11 
  2298.69,1377.28 2300.85,1377.46 2302.99,1377.63 2305.03,1377.8 2307.12,1377.96 2309.36,1378.12 2311.71,1378.3 2313.96,1378.46 2316.26,1378.62 2318.62,1378.79 
  2321,1378.95 2323.3,1379.11 2325.47,1379.26 2327.7,1379.4 2330.01,1379.55 2332.3,1379.69 2334.66,1379.83 2337.12,1379.98 2339.65,1380.13 2342.07,1380.27 
  2344.38,1380.4 2346.75,1380.53 2349.05,1380.66 2351.39,1380.79 2352.76,1380.86 
  "/>
<polyline clip-path="url(#clip452)" style="stroke:#e26f46; stroke-linecap:butt; stroke-linejoin:round; stroke-width:4; stroke-opacity:1; fill:none" points="
  250.028,1386.22 250.085,1386.22 250.098,1386.22 250.113,1386.22 250.131,1386.22 250.15,1386.22 250.171,1386.22 250.196,1386.22 250.223,1386.22 250.254,1386.22 
  250.289,1386.22 250.328,1386.22 250.372,1386.22 250.421,1386.22 250.477,1386.22 250.54,1386.22 250.61,1386.23 250.689,1386.23 250.778,1386.23 250.879,1386.23 
  250.991,1386.23 251.118,1386.23 251.261,1386.23 251.422,1386.23 251.602,1386.23 251.805,1386.23 252.031,1386.24 252.276,1386.24 252.54,1386.24 252.82,1386.24 
  253.116,1386.24 253.424,1386.25 253.743,1386.25 254.073,1386.25 254.414,1386.25 254.765,1386.26 255.125,1386.26 255.492,1386.26 255.865,1386.27 256.247,1386.27 
  256.633,1386.27 257.025,1386.27 257.421,1386.28 257.822,1386.28 258.226,1386.28 258.633,1386.28 259.045,1386.29 259.462,1386.29 259.884,1386.29 260.312,1386.3 
  260.745,1386.3 261.181,1386.3 261.623,1386.3 262.068,1386.31 262.519,1386.31 262.975,1386.31 263.434,1386.31 263.9,1386.32 264.372,1386.32 264.849,1386.32 
  265.33,1386.32 265.814,1386.32 266.305,1386.33 266.797,1386.33 267.293,1386.33 267.791,1386.33 268.293,1386.34 268.801,1386.34 269.32,1386.34 269.849,1386.34 
  270.382,1386.35 270.919,1386.35 271.462,1386.35 272.013,1386.35 272.573,1386.35 273.14,1386.35 273.713,1386.36 274.289,1386.36 274.868,1386.36 275.454,1386.36 
  276.046,1386.36 276.654,1386.37 277.273,1386.37 277.902,1386.37 278.538,1386.37 279.182,1386.37 279.824,1386.37 280.475,1386.37 281.129,1386.38 281.79,1386.38 
  282.461,1386.38 283.139,1386.38 283.83,1386.38 284.529,1386.38 285.225,1386.38 285.924,1386.38 286.635,1386.39 287.359,1386.39 288.104,1386.39 288.853,1386.39 
  289.614,1386.39 290.386,1386.39 291.168,1386.39 291.963,1386.39 292.773,1386.39 293.602,1386.39 294.441,1386.39 295.28,1386.39 296.12,1386.39 296.974,1386.39 
  297.846,1386.39 298.738,1386.39 299.637,1386.39 300.538,1386.39 301.431,1386.39 302.31,1386.39 303.176,1386.39 304.041,1386.39 304.903,1386.39 305.758,1386.39 
  306.613,1386.4 307.481,1386.4 308.357,1386.4 309.241,1386.4 310.131,1386.4 311.039,1386.4 311.96,1386.39 312.903,1386.39 313.86,1386.39 314.821,1386.39 
  315.827,1386.39 316.856,1386.39 317.908,1386.39 318.979,1386.39 320.077,1386.38 321.201,1386.38 322.349,1386.38 323.491,1386.38 324.626,1386.38 325.77,1386.38 
  326.905,1386.38 328.039,1386.37 329.178,1386.37 330.327,1386.37 331.479,1386.37 332.635,1386.37 333.818,1386.36 335.027,1386.36 336.25,1386.36 337.492,1386.36 
  338.736,1386.35 339.987,1386.35 341.257,1386.35 342.569,1386.35 343.918,1386.34 345.304,1386.34 346.687,1386.33 348.094,1386.33 349.572,1386.32 351.08,1386.32 
  352.66,1386.31 354.346,1386.3 356.099,1386.3 357.796,1386.29 359.499,1386.28 361.177,1386.28 362.917,1386.27 364.594,1386.27 366.282,1386.26 368.066,1386.25 
  369.967,1386.24 371.92,1386.23 373.962,1386.22 376.07,1386.21 378.229,1386.19 380.658,1386.17 383.367,1386.15 386.399,1386.13 389.811,1386.1 393.283,1386.07 
  397.189,1386.03 401.547,1385.99 405.727,1385.95 410.258,1385.91 414.696,1385.86 419.49,1385.81 424.091,1385.77 428.364,1385.73 432.303,1385.69 436.178,1385.65 
  440.311,1385.6 444.961,1385.55 449.332,1385.5 453.701,1385.44 458.083,1385.39 462.237,1385.34 466.224,1385.3 470.134,1385.25 473.772,1385.2 477.55,1385.15 
  481.8,1385.08 486.222,1385.02 490.707,1384.96 494.42,1384.9 498.547,1384.84 502.991,1384.76 507.417,1384.68 512.066,1384.6 516.614,1384.52 520.744,1384.45 
  525.39,1384.36 529.408,1384.29 533.603,1384.21 537.479,1384.13 541.839,1384.02 546.745,1383.91 551.681,1383.79 556.229,1383.68 561.344,1383.54 566.297,1383.4 
  571.869,1383.23 578.121,1383.01 585.154,1382.77 592.413,1382.51 600.579,1382.21 606.912,1381.97 613.479,1381.68 620.866,1381.31 629.177,1380.88 635.42,1380.53 
  642.444,1380.12 650.345,1379.67 657.453,1379.27 663.043,1378.95 669.079,1378.59 674.788,1378.24 680.634,1377.83 687.21,1377.46 692.029,1377.18 696.634,1376.87 
  701.568,1376.52 706.708,1376.15 711.733,1375.8 716.257,1375.46 721.045,1375.06 726.313,1374.56 732.24,1373.98 738.613,1373.32 745.783,1372.55 752.921,1371.76 
  760.142,1370.92 767.038,1370 774.796,1368.83 783.524,1367.61 787.92,1367.02 792.616,1366.32 797.881,1365.4 803.805,1364.3 810.469,1362.95 817.966,1361.46 
  823.868,1360.19 830.507,1358.68 837.976,1356.87 846.379,1354.76 855.336,1352.42 863.077,1350.35 871.785,1347.98 878.844,1346.02 885.975,1344.15 892.012,1342.6 
  897.303,1341.15 902.526,1339.75 907.444,1338.41 911.947,1337.04 916.622,1335.42 921.848,1333.74 926.827,1331.91 931.762,1330.09 937.314,1327.91 942.451,1325.67 
  948.231,1322.84 954.733,1319.33 962.048,1314.8 970.277,1308.93 978.062,1303.61 986.819,1297.23 996.671,1289.75 1005.91,1281.84 1016.31,1271.96 1027.13,1259.34 
  1036.2,1247.55 1043.91,1237.01 1052.37,1224.76 1060.24,1211.88 1067.9,1198.92 1075.03,1186.07 1082.39,1173.45 1090.67,1157.94 1099.15,1141.56 1106.64,1127.59 
  1115.06,1111.89 1122.71,1095.05 1131.14,1075.04 1139.23,1052.71 1146.4,1032.09 1153.4,1013.34 1160.85,992.405 1168.18,970.225 1175.18,945.789 1181.5,925.309 
  1187.95,905.633 1194.43,888.745 1200.42,874.252 1205.79,863.737 1210.61,854.009 1214.92,845.73 1219.07,836.928 1223.09,828.304 1226.99,820.509 1230.71,812.738 
  1234.31,805.23 1237.88,797.479 1241.42,789.772 1245,783.044 1248.33,777.273 1251.55,772.509 1254.51,768.004 1257.4,763.614 1260.24,759.399 1262.99,755.205 
  1265.67,750.572 1268.4,746.063 1271.11,741.404 1273.82,736.674 1276.56,732.334 1279.24,728.512 1281.78,724.636 1284.41,719.59 1287.15,714.781 1289.96,710.183 
  1292.61,705.776 1295.38,701.871 1298.02,698.646 1300.54,695.991 1303.01,693.838 1305.37,692.391 1307.63,691.127 1309.79,689.926 1311.92,688.354 1314.07,686.476 
  1316.24,684.201 1318.5,681.806 1320.75,678.857 1323.12,675.454 1325.56,671.612 1328.15,666.95 1330.83,661.917 1333.64,656.896 1336.55,651.741 1339.44,646.423 
  1342.52,640.79 1345.53,633.677 1348.89,624.99 1352.37,616.036 1355.95,604.685 1359.64,592.31 1363.3,580.672 1367.05,569.261 1370.84,559.271 1374.69,549.508 
  1378.54,538.749 1382.42,526.868 1386.26,515.791 1390.11,504.559 1393.95,494.863 1397.81,486.904 1401.64,479.535 1405.46,472.672 1409.22,466.733 1412.91,461.414 
  1416.59,455.668 1420.28,449.332 1423.99,442.545 1427.72,434.856 1431.45,424.598 1435.07,414.94 1438.62,405.741 1442.17,396.276 1445.63,387.03 1449.06,377.387 
  1452.45,367.37 1455.67,359.509 1458.97,352.019 1462.26,345.434 1465.6,339.219 1468.91,334.015 1472.31,328.225 1475.64,321.514 1478.93,312.895 1482.01,307.133 
  1485.14,301.852 1488.33,297.591 1491.53,293.882 1494.77,290.487 1498.02,287.837 1501.28,286.114 1504.62,285.262 1507.96,284.458 1511.34,284.295 1514.74,285.398 
  1518.16,286.6 1521.61,288.772 1525.07,291.122 1528.54,294.082 1532.03,296.146 1535.55,298.849 1539.1,301.231 1542.66,303.621 1546.24,306.285 1549.84,309.643 
  1553.47,312.852 1557.11,315.924 1560.76,318.642 1564.39,322.467 1568.08,328.106 1571.81,335.79 1575.49,344.888 1579.02,355.054 1582.43,363.901 1585.88,372.608 
  1589.39,381.389 1592.95,390.769 1596.46,400.066 1599.97,410.393 1603.45,421.67 1606.76,432.362 1610.02,443.024 1613.21,452.411 1616.61,462.083 1620.08,472.179 
  1623.52,483.167 1626.88,495.634 1629.88,506.689 1632.84,517.824 1635.62,528.105 1638.37,538.03 1641.1,547.363 1643.93,556.995 1646.77,566.335 1649.71,575.49 
  1652.71,584.425 1655.91,593.808 1659.3,603.589 1662.74,612.85 1666.47,622.267 1670.55,631.692 1674.83,640.505 1679.35,649.52 1683.87,659.61 1688.76,671.952 
  1693.62,684.668 1698.6,696.987 1703.73,708.696 1709.19,720.742 1714.7,733.113 1720.49,746.003 1726.4,759.567 1732.48,772.561 1738.72,785.803 1745.04,798.007 
  1751.26,810.149 1757.46,823.644 1764.19,838.192 1771.13,853.443 1778.31,868.521 1785.73,882.906 1793,897.444 1800.29,913.421 1807.92,930.614 1814.9,946.482 
  1821.4,961.793 1827.4,975.3 1832.76,986.65 1838.63,998.516 1844.49,1010.17 1850.45,1022.06 1856.11,1033.61 1861.04,1043.4 1865.81,1052.14 1871,1061.14 
  1876.75,1070.2 1883.22,1079.97 1890.31,1091.06 1898.28,1103.92 1903.8,1112.18 1910.02,1121.34 1916.22,1130.03 1922.88,1138.7 1930.36,1147.91 1938.78,1158.35 
  1947.45,1169.43 1953.88,1176.83 1961.12,1184.97 1968.19,1192.16 1976.13,1199.96 1985.06,1208.56 1994.98,1217.49 2006.13,1227.44 2016.79,1236.99 2024.97,1243.69 
  2034.18,1250.36 2044.54,1257.04 2055.28,1263.86 2067.37,1271.32 2080.96,1279.44 2096.26,1287.54 2113.47,1296.3 2132.83,1305.62 2154.46,1314.88 2169.79,1320.76 
  2187.03,1326.57 2206.43,1332.92 2228.26,1339.04 2247.33,1343.24 2257.88,1345.4 2267.57,1347.4 2278.48,1349.54 2290.76,1351.8 2301.01,1353.62 2312.4,1355.51 
  2324.7,1357.51 2338.54,1359.62 2352.76,1361.67 
  "/>
<path clip-path="url(#clip450)" d="
M1773.96 322.316 L2282.66 322.316 L2282.66 166.796 L1773.96 166.796  Z
  " fill="#ffffff" fill-rule="evenodd" fill-opacity="1"/>
<polyline clip-path="url(#clip450)" style="stroke:#000000; stroke-linecap:butt; stroke-linejoin:round; stroke-width:4; stroke-opacity:1; fill:none" points="
  1773.96,322.316 2282.66,322.316 2282.66,166.796 1773.96,166.796 1773.96,322.316 
  "/>
<polyline clip-path="url(#clip450)" style="stroke:#009af9; stroke-linecap:butt; stroke-linejoin:round; stroke-width:4; stroke-opacity:1; fill:none" points="
  1797.32,218.636 1937.51,218.636 
  "/>
<path clip-path="url(#clip450)" d="M1960.87 201.356 L1990.11 201.356 L1990.11 205.291 L1977.84 205.291 L1977.84 235.916 L1973.14 235.916 L1973.14 205.291 L1960.87 205.291 L1960.87 201.356 Z" fill="#000000" fill-rule="evenodd" fill-opacity="1" /><path clip-path="url(#clip450)" d="M2002.49 213.971 Q2001.77 213.555 2000.92 213.37 Q2000.08 213.161 1999.06 213.161 Q1995.45 213.161 1993.51 215.522 Q1991.59 217.86 1991.59 222.258 L1991.59 235.916 L1987.3 235.916 L1987.3 209.99 L1991.59 209.99 L1991.59 214.018 Q1992.93 211.657 1995.08 210.522 Q1997.24 209.365 2000.31 209.365 Q2000.75 209.365 2001.29 209.434 Q2001.82 209.481 2002.47 209.596 L2002.49 213.971 Z" fill="#000000" fill-rule="evenodd" fill-opacity="1" /><path clip-path="url(#clip450)" d="M2018.74 222.883 Q2013.58 222.883 2011.59 224.064 Q2009.6 225.244 2009.6 228.092 Q2009.6 230.36 2011.08 231.703 Q2012.58 233.022 2015.15 233.022 Q2018.69 233.022 2020.82 230.522 Q2022.98 227.999 2022.98 223.832 L2022.98 222.883 L2018.74 222.883 M2027.24 221.124 L2027.24 235.916 L2022.98 235.916 L2022.98 231.981 Q2021.52 234.342 2019.34 235.476 Q2017.17 236.587 2014.02 236.587 Q2010.04 236.587 2007.68 234.365 Q2005.34 232.119 2005.34 228.369 Q2005.34 223.994 2008.25 221.772 Q2011.19 219.55 2017 219.55 L2022.98 219.55 L2022.98 219.133 Q2022.98 216.194 2021.03 214.596 Q2019.11 212.976 2015.61 212.976 Q2013.39 212.976 2011.29 213.508 Q2009.18 214.041 2007.24 215.106 L2007.24 211.17 Q2009.57 210.268 2011.77 209.828 Q2013.97 209.365 2016.05 209.365 Q2021.68 209.365 2024.46 212.282 Q2027.24 215.198 2027.24 221.124 Z" fill="#000000" fill-rule="evenodd" fill-opacity="1" /><path clip-path="url(#clip450)" d="M2036.01 209.99 L2040.27 209.99 L2040.27 236.379 Q2040.27 241.332 2038.37 243.555 Q2036.49 245.777 2032.3 245.777 L2030.68 245.777 L2030.68 242.166 L2031.82 242.166 Q2034.25 242.166 2035.13 241.031 Q2036.01 239.92 2036.01 236.379 L2036.01 209.99 M2036.01 199.897 L2040.27 199.897 L2040.27 205.291 L2036.01 205.291 L2036.01 199.897 Z" fill="#000000" fill-rule="evenodd" fill-opacity="1" /><path clip-path="url(#clip450)" d="M2071.36 221.888 L2071.36 223.971 L2051.77 223.971 Q2052.05 228.369 2054.41 230.684 Q2056.8 232.976 2061.03 232.976 Q2063.48 232.976 2065.78 232.374 Q2068.09 231.772 2070.36 230.569 L2070.36 234.596 Q2068.07 235.568 2065.66 236.078 Q2063.25 236.587 2060.78 236.587 Q2054.57 236.587 2050.94 232.976 Q2047.33 229.365 2047.33 223.207 Q2047.33 216.842 2050.75 213.115 Q2054.2 209.365 2060.04 209.365 Q2065.27 209.365 2068.3 212.745 Q2071.36 216.101 2071.36 221.888 M2067.1 220.638 Q2067.05 217.143 2065.13 215.059 Q2063.23 212.976 2060.08 212.976 Q2056.52 212.976 2054.36 214.99 Q2052.23 217.004 2051.91 220.661 L2067.1 220.638 Z" fill="#000000" fill-rule="evenodd" fill-opacity="1" /><path clip-path="url(#clip450)" d="M2097 210.985 L2097 214.967 Q2095.2 213.971 2093.37 213.485 Q2091.56 212.976 2089.71 212.976 Q2085.57 212.976 2083.28 215.615 Q2080.98 218.231 2080.98 222.976 Q2080.98 227.721 2083.28 230.36 Q2085.57 232.976 2089.71 232.976 Q2091.56 232.976 2093.37 232.49 Q2095.2 231.981 2097 230.985 L2097 234.92 Q2095.22 235.754 2093.3 236.17 Q2091.4 236.587 2089.25 236.587 Q2083.39 236.587 2079.94 232.906 Q2076.49 229.226 2076.49 222.976 Q2076.49 216.633 2079.97 212.999 Q2083.46 209.365 2089.53 209.365 Q2091.49 209.365 2093.37 209.782 Q2095.24 210.175 2097 210.985 Z" fill="#000000" fill-rule="evenodd" fill-opacity="1" /><path clip-path="url(#clip450)" d="M2108.62 202.629 L2108.62 209.99 L2117.4 209.99 L2117.4 213.3 L2108.62 213.3 L2108.62 227.374 Q2108.62 230.545 2109.48 231.448 Q2110.36 232.351 2113.02 232.351 L2117.4 232.351 L2117.4 235.916 L2113.02 235.916 Q2108.09 235.916 2106.22 234.087 Q2104.34 232.235 2104.34 227.374 L2104.34 213.3 L2101.22 213.3 L2101.22 209.99 L2104.34 209.99 L2104.34 202.629 L2108.62 202.629 Z" fill="#000000" fill-rule="evenodd" fill-opacity="1" /><path clip-path="url(#clip450)" d="M2133.04 212.976 Q2129.62 212.976 2127.63 215.661 Q2125.64 218.323 2125.64 222.976 Q2125.64 227.629 2127.6 230.314 Q2129.6 232.976 2133.04 232.976 Q2136.45 232.976 2138.44 230.291 Q2140.43 227.606 2140.43 222.976 Q2140.43 218.37 2138.44 215.684 Q2136.45 212.976 2133.04 212.976 M2133.04 209.365 Q2138.6 209.365 2141.77 212.976 Q2144.94 216.587 2144.94 222.976 Q2144.94 229.342 2141.77 232.976 Q2138.6 236.587 2133.04 236.587 Q2127.47 236.587 2124.29 232.976 Q2121.15 229.342 2121.15 222.976 Q2121.15 216.587 2124.29 212.976 Q2127.47 209.365 2133.04 209.365 Z" fill="#000000" fill-rule="evenodd" fill-opacity="1" /><path clip-path="url(#clip450)" d="M2167.03 213.971 Q2166.31 213.555 2165.45 213.37 Q2164.62 213.161 2163.6 213.161 Q2159.99 213.161 2158.04 215.522 Q2156.12 217.86 2156.12 222.258 L2156.12 235.916 L2151.84 235.916 L2151.84 209.99 L2156.12 209.99 L2156.12 214.018 Q2157.47 211.657 2159.62 210.522 Q2161.77 209.365 2164.85 209.365 Q2165.29 209.365 2165.82 209.434 Q2166.35 209.481 2167 209.596 L2167.03 213.971 Z" fill="#000000" fill-rule="evenodd" fill-opacity="1" /><path clip-path="url(#clip450)" d="M2182.28 238.323 Q2180.48 242.953 2178.76 244.365 Q2177.05 245.777 2174.18 245.777 L2170.78 245.777 L2170.78 242.212 L2173.28 242.212 Q2175.04 242.212 2176.01 241.379 Q2176.98 240.545 2178.16 237.443 L2178.92 235.499 L2168.44 209.99 L2172.95 209.99 L2181.05 230.268 L2189.16 209.99 L2193.67 209.99 L2182.28 238.323 Z" fill="#000000" fill-rule="evenodd" fill-opacity="1" /><path clip-path="url(#clip450)" d="M2216.03 231.981 L2223.67 231.981 L2223.67 205.615 L2215.36 207.282 L2215.36 203.022 L2223.62 201.356 L2228.3 201.356 L2228.3 231.981 L2235.94 231.981 L2235.94 235.916 L2216.03 235.916 L2216.03 231.981 Z" fill="#000000" fill-rule="evenodd" fill-opacity="1" /><polyline clip-path="url(#clip450)" style="stroke:#e26f46; stroke-linecap:butt; stroke-linejoin:round; stroke-width:4; stroke-opacity:1; fill:none" points="
  1797.32,270.476 1937.51,270.476 
  "/>
<path clip-path="url(#clip450)" d="M1960.87 253.196 L1990.11 253.196 L1990.11 257.131 L1977.84 257.131 L1977.84 287.756 L1973.14 287.756 L1973.14 257.131 L1960.87 257.131 L1960.87 253.196 Z" fill="#000000" fill-rule="evenodd" fill-opacity="1" /><path clip-path="url(#clip450)" d="M2002.49 265.811 Q2001.77 265.395 2000.92 265.21 Q2000.08 265.001 1999.06 265.001 Q1995.45 265.001 1993.51 267.362 Q1991.59 269.7 1991.59 274.098 L1991.59 287.756 L1987.3 287.756 L1987.3 261.83 L1991.59 261.83 L1991.59 265.858 Q1992.93 263.497 1995.08 262.362 Q1997.24 261.205 2000.31 261.205 Q2000.75 261.205 2001.29 261.274 Q2001.82 261.321 2002.47 261.436 L2002.49 265.811 Z" fill="#000000" fill-rule="evenodd" fill-opacity="1" /><path clip-path="url(#clip450)" d="M2018.74 274.723 Q2013.58 274.723 2011.59 275.904 Q2009.6 277.084 2009.6 279.932 Q2009.6 282.2 2011.08 283.543 Q2012.58 284.862 2015.15 284.862 Q2018.69 284.862 2020.82 282.362 Q2022.98 279.839 2022.98 275.672 L2022.98 274.723 L2018.74 274.723 M2027.24 272.964 L2027.24 287.756 L2022.98 287.756 L2022.98 283.821 Q2021.52 286.182 2019.34 287.316 Q2017.17 288.427 2014.02 288.427 Q2010.04 288.427 2007.68 286.205 Q2005.34 283.959 2005.34 280.209 Q2005.34 275.834 2008.25 273.612 Q2011.19 271.39 2017 271.39 L2022.98 271.39 L2022.98 270.973 Q2022.98 268.034 2021.03 266.436 Q2019.11 264.816 2015.61 264.816 Q2013.39 264.816 2011.29 265.348 Q2009.18 265.881 2007.24 266.946 L2007.24 263.01 Q2009.57 262.108 2011.77 261.668 Q2013.97 261.205 2016.05 261.205 Q2021.68 261.205 2024.46 264.122 Q2027.24 267.038 2027.24 272.964 Z" fill="#000000" fill-rule="evenodd" fill-opacity="1" /><path clip-path="url(#clip450)" d="M2036.01 261.83 L2040.27 261.83 L2040.27 288.219 Q2040.27 293.172 2038.37 295.395 Q2036.49 297.617 2032.3 297.617 L2030.68 297.617 L2030.68 294.006 L2031.82 294.006 Q2034.25 294.006 2035.13 292.871 Q2036.01 291.76 2036.01 288.219 L2036.01 261.83 M2036.01 251.737 L2040.27 251.737 L2040.27 257.131 L2036.01 257.131 L2036.01 251.737 Z" fill="#000000" fill-rule="evenodd" fill-opacity="1" /><path clip-path="url(#clip450)" d="M2071.36 273.728 L2071.36 275.811 L2051.77 275.811 Q2052.05 280.209 2054.41 282.524 Q2056.8 284.816 2061.03 284.816 Q2063.48 284.816 2065.78 284.214 Q2068.09 283.612 2070.36 282.409 L2070.36 286.436 Q2068.07 287.408 2065.66 287.918 Q2063.25 288.427 2060.78 288.427 Q2054.57 288.427 2050.94 284.816 Q2047.33 281.205 2047.33 275.047 Q2047.33 268.682 2050.75 264.955 Q2054.2 261.205 2060.04 261.205 Q2065.27 261.205 2068.3 264.585 Q2071.36 267.941 2071.36 273.728 M2067.1 272.478 Q2067.05 268.983 2065.13 266.899 Q2063.23 264.816 2060.08 264.816 Q2056.52 264.816 2054.36 266.83 Q2052.23 268.844 2051.91 272.501 L2067.1 272.478 Z" fill="#000000" fill-rule="evenodd" fill-opacity="1" /><path clip-path="url(#clip450)" d="M2097 262.825 L2097 266.807 Q2095.2 265.811 2093.37 265.325 Q2091.56 264.816 2089.71 264.816 Q2085.57 264.816 2083.28 267.455 Q2080.98 270.071 2080.98 274.816 Q2080.98 279.561 2083.28 282.2 Q2085.57 284.816 2089.71 284.816 Q2091.56 284.816 2093.37 284.33 Q2095.2 283.821 2097 282.825 L2097 286.76 Q2095.22 287.594 2093.3 288.01 Q2091.4 288.427 2089.25 288.427 Q2083.39 288.427 2079.94 284.746 Q2076.49 281.066 2076.49 274.816 Q2076.49 268.473 2079.97 264.839 Q2083.46 261.205 2089.53 261.205 Q2091.49 261.205 2093.37 261.622 Q2095.24 262.015 2097 262.825 Z" fill="#000000" fill-rule="evenodd" fill-opacity="1" /><path clip-path="url(#clip450)" d="M2108.62 254.469 L2108.62 261.83 L2117.4 261.83 L2117.4 265.14 L2108.62 265.14 L2108.62 279.214 Q2108.62 282.385 2109.48 283.288 Q2110.36 284.191 2113.02 284.191 L2117.4 284.191 L2117.4 287.756 L2113.02 287.756 Q2108.09 287.756 2106.22 285.927 Q2104.34 284.075 2104.34 279.214 L2104.34 265.14 L2101.22 265.14 L2101.22 261.83 L2104.34 261.83 L2104.34 254.469 L2108.62 254.469 Z" fill="#000000" fill-rule="evenodd" fill-opacity="1" /><path clip-path="url(#clip450)" d="M2133.04 264.816 Q2129.62 264.816 2127.63 267.501 Q2125.64 270.163 2125.64 274.816 Q2125.64 279.469 2127.6 282.154 Q2129.6 284.816 2133.04 284.816 Q2136.45 284.816 2138.44 282.131 Q2140.43 279.446 2140.43 274.816 Q2140.43 270.21 2138.44 267.524 Q2136.45 264.816 2133.04 264.816 M2133.04 261.205 Q2138.6 261.205 2141.77 264.816 Q2144.94 268.427 2144.94 274.816 Q2144.94 281.182 2141.77 284.816 Q2138.6 288.427 2133.04 288.427 Q2127.47 288.427 2124.29 284.816 Q2121.15 281.182 2121.15 274.816 Q2121.15 268.427 2124.29 264.816 Q2127.47 261.205 2133.04 261.205 Z" fill="#000000" fill-rule="evenodd" fill-opacity="1" /><path clip-path="url(#clip450)" d="M2167.03 265.811 Q2166.31 265.395 2165.45 265.21 Q2164.62 265.001 2163.6 265.001 Q2159.99 265.001 2158.04 267.362 Q2156.12 269.7 2156.12 274.098 L2156.12 287.756 L2151.84 287.756 L2151.84 261.83 L2156.12 261.83 L2156.12 265.858 Q2157.47 263.497 2159.62 262.362 Q2161.77 261.205 2164.85 261.205 Q2165.29 261.205 2165.82 261.274 Q2166.35 261.321 2167 261.436 L2167.03 265.811 Z" fill="#000000" fill-rule="evenodd" fill-opacity="1" /><path clip-path="url(#clip450)" d="M2182.28 290.163 Q2180.48 294.793 2178.76 296.205 Q2177.05 297.617 2174.18 297.617 L2170.78 297.617 L2170.78 294.052 L2173.28 294.052 Q2175.04 294.052 2176.01 293.219 Q2176.98 292.385 2178.16 289.283 L2178.92 287.339 L2168.44 261.83 L2172.95 261.83 L2181.05 282.108 L2189.16 261.83 L2193.67 261.83 L2182.28 290.163 Z" fill="#000000" fill-rule="evenodd" fill-opacity="1" /><path clip-path="url(#clip450)" d="M2219.25 283.821 L2235.57 283.821 L2235.57 287.756 L2213.62 287.756 L2213.62 283.821 Q2216.29 281.066 2220.87 276.436 Q2225.47 271.784 2226.66 270.441 Q2228.9 267.918 2229.78 266.182 Q2230.68 264.423 2230.68 262.733 Q2230.68 259.978 2228.74 258.242 Q2226.82 256.506 2223.72 256.506 Q2221.52 256.506 2219.06 257.27 Q2216.63 258.034 2213.85 259.585 L2213.85 254.862 Q2216.68 253.728 2219.13 253.149 Q2221.59 252.571 2223.62 252.571 Q2228.99 252.571 2232.19 255.256 Q2235.38 257.941 2235.38 262.432 Q2235.38 264.561 2234.57 266.483 Q2233.78 268.381 2231.68 270.973 Q2231.1 271.645 2228 274.862 Q2224.9 278.057 2219.25 283.821 Z" fill="#000000" fill-rule="evenodd" fill-opacity="1" /></svg>
