<?xml version="1.0" encoding="utf-8"?>
<svg xmlns="http://www.w3.org/2000/svg" xmlns:xlink="http://www.w3.org/1999/xlink" width="600" height="400" viewBox="0 0 2400 1600">
<defs>
  <clipPath id="clip940">
    <rect x="0" y="0" width="2400" height="1600"/>
  </clipPath>
</defs>
<path clip-path="url(#clip940)" d="
M0 1600 L2400 1600 L2400 0 L0 0  Z
  " fill="#ffffff" fill-rule="evenodd" fill-opacity="1"/>
<defs>
  <clipPath id="clip941">
    <rect x="480" y="0" width="1681" height="1600"/>
  </clipPath>
</defs>
<path clip-path="url(#clip940)" d="
M250.028 1423.18 L2352.76 1423.18 L2352.76 123.472 L250.028 123.472  Z
  " fill="#ffffff" fill-rule="evenodd" fill-opacity="1"/>
<defs>
  <clipPath id="clip942">
    <rect x="250" y="123" width="2104" height="1301"/>
  </clipPath>
</defs>
<polyline clip-path="url(#clip942)" style="stroke:#000000; stroke-linecap:butt; stroke-linejoin:round; stroke-width:2; stroke-opacity:0.1; fill:none" points="
  250.028,1423.18 250.028,123.472 
  "/>
<polyline clip-path="url(#clip942)" style="stroke:#000000; stroke-linecap:butt; stroke-linejoin:round; stroke-width:2; stroke-opacity:0.1; fill:none" points="
  632.342,1423.18 632.342,123.472 
  "/>
<polyline clip-path="url(#clip942)" style="stroke:#000000; stroke-linecap:butt; stroke-linejoin:round; stroke-width:2; stroke-opacity:0.1; fill:none" points="
  1014.66,1423.18 1014.66,123.472 
  "/>
<polyline clip-path="url(#clip942)" style="stroke:#000000; stroke-linecap:butt; stroke-linejoin:round; stroke-width:2; stroke-opacity:0.1; fill:none" points="
  1396.97,1423.18 1396.97,123.472 
  "/>
<polyline clip-path="url(#clip942)" style="stroke:#000000; stroke-linecap:butt; stroke-linejoin:round; stroke-width:2; stroke-opacity:0.1; fill:none" points="
  1779.28,1423.18 1779.28,123.472 
  "/>
<polyline clip-path="url(#clip942)" style="stroke:#000000; stroke-linecap:butt; stroke-linejoin:round; stroke-width:2; stroke-opacity:0.1; fill:none" points="
  2161.6,1423.18 2161.6,123.472 
  "/>
<polyline clip-path="url(#clip940)" style="stroke:#000000; stroke-linecap:butt; stroke-linejoin:round; stroke-width:4; stroke-opacity:1; fill:none" points="
  250.028,1423.18 2352.76,1423.18 
  "/>
<polyline clip-path="url(#clip940)" style="stroke:#000000; stroke-linecap:butt; stroke-linejoin:round; stroke-width:4; stroke-opacity:1; fill:none" points="
  250.028,1423.18 250.028,1404.28 
  "/>
<polyline clip-path="url(#clip940)" style="stroke:#000000; stroke-linecap:butt; stroke-linejoin:round; stroke-width:4; stroke-opacity:1; fill:none" points="
  632.342,1423.18 632.342,1404.28 
  "/>
<polyline clip-path="url(#clip940)" style="stroke:#000000; stroke-linecap:butt; stroke-linejoin:round; stroke-width:4; stroke-opacity:1; fill:none" points="
  1014.66,1423.18 1014.66,1404.28 
  "/>
<polyline clip-path="url(#clip940)" style="stroke:#000000; stroke-linecap:butt; stroke-linejoin:round; stroke-width:4; stroke-opacity:1; fill:none" points="
  1396.97,1423.18 1396.97,1404.28 
  "/>
<polyline clip-path="url(#clip940)" style="stroke:#000000; stroke-linecap:butt; stroke-linejoin:round; stroke-width:4; stroke-opacity:1; fill:none" points="
  1779.28,1423.18 1779.28,1404.28 
  "/>
<polyline clip-path="url(#clip940)" style="stroke:#000000; stroke-linecap:butt; stroke-linejoin:round; stroke-width:4; stroke-opacity:1; fill:none" points="
  2161.6,1423.18 2161.6,1404.28 
  "/>
<path clip-path="url(#clip940)" d="M250.028 1452.37 Q246.417 1452.37 244.588 1455.94 Q242.783 1459.48 242.783 1466.61 Q242.783 1473.71 244.588 1477.28 Q246.417 1480.82 250.028 1480.82 Q253.662 1480.82 255.468 1477.28 Q257.297 1473.71 257.297 1466.61 Q257.297 1459.48 255.468 1455.94 Q253.662 1452.37 250.028 1452.37 M250.028 1448.67 Q255.838 1448.67 258.894 1453.27 Q261.973 1457.86 261.973 1466.61 Q261.973 1475.33 258.894 1479.94 Q255.838 1484.52 250.028 1484.52 Q244.218 1484.52 241.139 1479.94 Q238.084 1475.33 238.084 1466.61 Q238.084 1457.86 241.139 1453.27 Q244.218 1448.67 250.028 1448.67 Z" fill="#000000" fill-rule="evenodd" fill-opacity="1" /><path clip-path="url(#clip940)" d="M591.949 1479.92 L599.588 1479.92 L599.588 1453.55 L591.278 1455.22 L591.278 1450.96 L599.542 1449.29 L604.217 1449.29 L604.217 1479.92 L611.856 1479.92 L611.856 1483.85 L591.949 1483.85 L591.949 1479.92 Z" fill="#000000" fill-rule="evenodd" fill-opacity="1" /><path clip-path="url(#clip940)" d="M631.301 1452.37 Q627.69 1452.37 625.861 1455.94 Q624.055 1459.48 624.055 1466.61 Q624.055 1473.71 625.861 1477.28 Q627.69 1480.82 631.301 1480.82 Q634.935 1480.82 636.74 1477.28 Q638.569 1473.71 638.569 1466.61 Q638.569 1459.48 636.74 1455.94 Q634.935 1452.37 631.301 1452.37 M631.301 1448.67 Q637.111 1448.67 640.166 1453.27 Q643.245 1457.86 643.245 1466.61 Q643.245 1475.33 640.166 1479.94 Q637.111 1484.52 631.301 1484.52 Q625.49 1484.52 622.412 1479.94 Q619.356 1475.33 619.356 1466.61 Q619.356 1457.86 622.412 1453.27 Q625.49 1448.67 631.301 1448.67 Z" fill="#000000" fill-rule="evenodd" fill-opacity="1" /><path clip-path="url(#clip940)" d="M661.462 1452.37 Q657.851 1452.37 656.023 1455.94 Q654.217 1459.48 654.217 1466.61 Q654.217 1473.71 656.023 1477.28 Q657.851 1480.82 661.462 1480.82 Q665.097 1480.82 666.902 1477.28 Q668.731 1473.71 668.731 1466.61 Q668.731 1459.48 666.902 1455.94 Q665.097 1452.37 661.462 1452.37 M661.462 1448.67 Q667.273 1448.67 670.328 1453.27 Q673.407 1457.86 673.407 1466.61 Q673.407 1475.33 670.328 1479.94 Q667.273 1484.52 661.462 1484.52 Q655.652 1484.52 652.574 1479.94 Q649.518 1475.33 649.518 1466.61 Q649.518 1457.86 652.574 1453.27 Q655.652 1448.67 661.462 1448.67 Z" fill="#000000" fill-rule="evenodd" fill-opacity="1" /><path clip-path="url(#clip940)" d="M978.349 1479.92 L994.668 1479.92 L994.668 1483.85 L972.724 1483.85 L972.724 1479.92 Q975.386 1477.16 979.969 1472.53 Q984.576 1467.88 985.756 1466.54 Q988.001 1464.01 988.881 1462.28 Q989.784 1460.52 989.784 1458.83 Q989.784 1456.07 987.839 1454.34 Q985.918 1452.6 982.816 1452.6 Q980.617 1452.6 978.164 1453.37 Q975.733 1454.13 972.955 1455.68 L972.955 1450.96 Q975.779 1449.82 978.233 1449.25 Q980.687 1448.67 982.724 1448.67 Q988.094 1448.67 991.288 1451.35 Q994.483 1454.04 994.483 1458.53 Q994.483 1460.66 993.673 1462.58 Q992.886 1464.48 990.779 1467.07 Q990.201 1467.74 987.099 1470.96 Q983.997 1474.15 978.349 1479.92 Z" fill="#000000" fill-rule="evenodd" fill-opacity="1" /><path clip-path="url(#clip940)" d="M1014.48 1452.37 Q1010.87 1452.37 1009.04 1455.94 Q1007.24 1459.48 1007.24 1466.61 Q1007.24 1473.71 1009.04 1477.28 Q1010.87 1480.82 1014.48 1480.82 Q1018.12 1480.82 1019.92 1477.28 Q1021.75 1473.71 1021.75 1466.61 Q1021.75 1459.48 1019.92 1455.94 Q1018.12 1452.37 1014.48 1452.37 M1014.48 1448.67 Q1020.29 1448.67 1023.35 1453.27 Q1026.43 1457.86 1026.43 1466.61 Q1026.43 1475.33 1023.35 1479.94 Q1020.29 1484.52 1014.48 1484.52 Q1008.67 1484.52 1005.59 1479.94 Q1002.54 1475.33 1002.54 1466.61 Q1002.54 1457.86 1005.59 1453.27 Q1008.67 1448.67 1014.48 1448.67 Z" fill="#000000" fill-rule="evenodd" fill-opacity="1" /><path clip-path="url(#clip940)" d="M1044.64 1452.37 Q1041.03 1452.37 1039.2 1455.94 Q1037.4 1459.48 1037.4 1466.61 Q1037.4 1473.71 1039.2 1477.28 Q1041.03 1480.82 1044.64 1480.82 Q1048.28 1480.82 1050.08 1477.28 Q1051.91 1473.71 1051.91 1466.61 Q1051.91 1459.48 1050.08 1455.94 Q1048.28 1452.37 1044.64 1452.37 M1044.64 1448.67 Q1050.45 1448.67 1053.51 1453.27 Q1056.59 1457.86 1056.59 1466.61 Q1056.59 1475.33 1053.51 1479.94 Q1050.45 1484.52 1044.64 1484.52 Q1038.83 1484.52 1035.76 1479.94 Q1032.7 1475.33 1032.7 1466.61 Q1032.7 1457.86 1035.76 1453.27 Q1038.83 1448.67 1044.64 1448.67 Z" fill="#000000" fill-rule="evenodd" fill-opacity="1" /><path clip-path="url(#clip940)" d="M1370.73 1465.22 Q1374.09 1465.94 1375.96 1468.2 Q1377.86 1470.47 1377.86 1473.81 Q1377.86 1478.92 1374.34 1481.72 Q1370.82 1484.52 1364.34 1484.52 Q1362.17 1484.52 1359.85 1484.08 Q1357.56 1483.67 1355.11 1482.81 L1355.11 1478.3 Q1357.05 1479.43 1359.37 1480.01 Q1361.68 1480.59 1364.2 1480.59 Q1368.6 1480.59 1370.89 1478.85 Q1373.21 1477.12 1373.21 1473.81 Q1373.21 1470.75 1371.06 1469.04 Q1368.93 1467.3 1365.11 1467.3 L1361.08 1467.3 L1361.08 1463.46 L1365.29 1463.46 Q1368.74 1463.46 1370.57 1462.09 Q1372.4 1460.7 1372.4 1458.11 Q1372.4 1455.45 1370.5 1454.04 Q1368.63 1452.6 1365.11 1452.6 Q1363.19 1452.6 1360.99 1453.02 Q1358.79 1453.44 1356.15 1454.31 L1356.15 1450.15 Q1358.81 1449.41 1361.13 1449.04 Q1363.46 1448.67 1365.52 1448.67 Q1370.85 1448.67 1373.95 1451.1 Q1377.05 1453.5 1377.05 1457.63 Q1377.05 1460.5 1375.41 1462.49 Q1373.76 1464.45 1370.73 1465.22 Z" fill="#000000" fill-rule="evenodd" fill-opacity="1" /><path clip-path="url(#clip940)" d="M1396.73 1452.37 Q1393.12 1452.37 1391.29 1455.94 Q1389.48 1459.48 1389.48 1466.61 Q1389.48 1473.71 1391.29 1477.28 Q1393.12 1480.82 1396.73 1480.82 Q1400.36 1480.82 1402.17 1477.28 Q1404 1473.71 1404 1466.61 Q1404 1459.48 1402.17 1455.94 Q1400.36 1452.37 1396.73 1452.37 M1396.73 1448.67 Q1402.54 1448.67 1405.59 1453.27 Q1408.67 1457.86 1408.67 1466.61 Q1408.67 1475.33 1405.59 1479.94 Q1402.54 1484.52 1396.73 1484.52 Q1390.92 1484.52 1387.84 1479.94 Q1384.78 1475.33 1384.78 1466.61 Q1384.78 1457.86 1387.84 1453.27 Q1390.92 1448.67 1396.73 1448.67 Z" fill="#000000" fill-rule="evenodd" fill-opacity="1" /><path clip-path="url(#clip940)" d="M1426.89 1452.37 Q1423.28 1452.37 1421.45 1455.94 Q1419.64 1459.48 1419.64 1466.61 Q1419.64 1473.71 1421.45 1477.28 Q1423.28 1480.82 1426.89 1480.82 Q1430.52 1480.82 1432.33 1477.28 Q1434.16 1473.71 1434.16 1466.61 Q1434.16 1459.48 1432.33 1455.94 Q1430.52 1452.37 1426.89 1452.37 M1426.89 1448.67 Q1432.7 1448.67 1435.76 1453.27 Q1438.83 1457.86 1438.83 1466.61 Q1438.83 1475.33 1435.76 1479.94 Q1432.7 1484.52 1426.89 1484.52 Q1421.08 1484.52 1418 1479.94 Q1414.94 1475.33 1414.94 1466.61 Q1414.94 1457.86 1418 1453.27 Q1421.08 1448.67 1426.89 1448.67 Z" fill="#000000" fill-rule="evenodd" fill-opacity="1" /><path clip-path="url(#clip940)" d="M1752.38 1453.37 L1740.57 1471.81 L1752.38 1471.81 L1752.38 1453.37 M1751.15 1449.29 L1757.03 1449.29 L1757.03 1471.81 L1761.96 1471.81 L1761.96 1475.7 L1757.03 1475.7 L1757.03 1483.85 L1752.38 1483.85 L1752.38 1475.7 L1736.77 1475.7 L1736.77 1471.19 L1751.15 1449.29 Z" fill="#000000" fill-rule="evenodd" fill-opacity="1" /><path clip-path="url(#clip940)" d="M1779.69 1452.37 Q1776.08 1452.37 1774.25 1455.94 Q1772.44 1459.48 1772.44 1466.61 Q1772.44 1473.71 1774.25 1477.28 Q1776.08 1480.82 1779.69 1480.82 Q1783.32 1480.82 1785.13 1477.28 Q1786.96 1473.71 1786.96 1466.61 Q1786.96 1459.48 1785.13 1455.94 Q1783.32 1452.37 1779.69 1452.37 M1779.69 1448.67 Q1785.5 1448.67 1788.56 1453.27 Q1791.63 1457.86 1791.63 1466.61 Q1791.63 1475.33 1788.56 1479.94 Q1785.5 1484.52 1779.69 1484.52 Q1773.88 1484.52 1770.8 1479.94 Q1767.75 1475.33 1767.75 1466.61 Q1767.75 1457.86 1770.8 1453.27 Q1773.88 1448.67 1779.69 1448.67 Z" fill="#000000" fill-rule="evenodd" fill-opacity="1" /><path clip-path="url(#clip940)" d="M1809.85 1452.37 Q1806.24 1452.37 1804.41 1455.94 Q1802.61 1459.48 1802.61 1466.61 Q1802.61 1473.71 1804.41 1477.28 Q1806.24 1480.82 1809.85 1480.82 Q1813.49 1480.82 1815.29 1477.28 Q1817.12 1473.71 1817.12 1466.61 Q1817.12 1459.48 1815.29 1455.94 Q1813.49 1452.37 1809.85 1452.37 M1809.85 1448.67 Q1815.66 1448.67 1818.72 1453.27 Q1821.8 1457.86 1821.8 1466.61 Q1821.8 1475.33 1818.72 1479.94 Q1815.66 1484.52 1809.85 1484.52 Q1804.04 1484.52 1800.96 1479.94 Q1797.91 1475.33 1797.91 1466.61 Q1797.91 1457.86 1800.96 1453.27 Q1804.04 1448.67 1809.85 1448.67 Z" fill="#000000" fill-rule="evenodd" fill-opacity="1" /><path clip-path="url(#clip940)" d="M2121.22 1449.29 L2139.57 1449.29 L2139.57 1453.23 L2125.5 1453.23 L2125.5 1461.7 Q2126.52 1461.35 2127.54 1461.19 Q2128.56 1461 2129.57 1461 Q2135.36 1461 2138.74 1464.18 Q2142.12 1467.35 2142.12 1472.76 Q2142.12 1478.34 2138.65 1481.44 Q2135.18 1484.52 2128.86 1484.52 Q2126.68 1484.52 2124.41 1484.15 Q2122.17 1483.78 2119.76 1483.04 L2119.76 1478.34 Q2121.84 1479.48 2124.06 1480.03 Q2126.29 1480.59 2128.76 1480.59 Q2132.77 1480.59 2135.11 1478.48 Q2137.44 1476.38 2137.44 1472.76 Q2137.44 1469.15 2135.11 1467.05 Q2132.77 1464.94 2128.76 1464.94 Q2126.89 1464.94 2125.01 1465.36 Q2123.16 1465.77 2121.22 1466.65 L2121.22 1449.29 Z" fill="#000000" fill-rule="evenodd" fill-opacity="1" /><path clip-path="url(#clip940)" d="M2161.33 1452.37 Q2157.72 1452.37 2155.89 1455.94 Q2154.09 1459.48 2154.09 1466.61 Q2154.09 1473.71 2155.89 1477.28 Q2157.72 1480.82 2161.33 1480.82 Q2164.97 1480.82 2166.77 1477.28 Q2168.6 1473.71 2168.6 1466.61 Q2168.6 1459.48 2166.77 1455.94 Q2164.97 1452.37 2161.33 1452.37 M2161.33 1448.67 Q2167.14 1448.67 2170.2 1453.27 Q2173.28 1457.86 2173.28 1466.61 Q2173.28 1475.33 2170.2 1479.94 Q2167.14 1484.52 2161.33 1484.52 Q2155.52 1484.52 2152.44 1479.94 Q2149.39 1475.33 2149.39 1466.61 Q2149.39 1457.86 2152.44 1453.27 Q2155.52 1448.67 2161.33 1448.67 Z" fill="#000000" fill-rule="evenodd" fill-opacity="1" /><path clip-path="url(#clip940)" d="M2191.49 1452.37 Q2187.88 1452.37 2186.05 1455.94 Q2184.25 1459.48 2184.25 1466.61 Q2184.25 1473.71 2186.05 1477.28 Q2187.88 1480.82 2191.49 1480.82 Q2195.13 1480.82 2196.93 1477.28 Q2198.76 1473.71 2198.76 1466.61 Q2198.76 1459.48 2196.93 1455.94 Q2195.13 1452.37 2191.49 1452.37 M2191.49 1448.67 Q2197.3 1448.67 2200.36 1453.27 Q2203.44 1457.86 2203.44 1466.61 Q2203.44 1475.33 2200.36 1479.94 Q2197.3 1484.52 2191.49 1484.52 Q2185.68 1484.52 2182.61 1479.94 Q2179.55 1475.33 2179.55 1466.61 Q2179.55 1457.86 2182.61 1453.27 Q2185.68 1448.67 2191.49 1448.67 Z" fill="#000000" fill-rule="evenodd" fill-opacity="1" /><path clip-path="url(#clip940)" d="M1300.45 1522.27 L1300.45 1532.4 L1312.52 1532.4 L1312.52 1536.95 L1300.45 1536.95 L1300.45 1556.3 Q1300.45 1560.66 1301.63 1561.9 Q1302.84 1563.14 1306.5 1563.14 L1312.52 1563.14 L1312.52 1568.04 L1306.5 1568.04 Q1299.72 1568.04 1297.14 1565.53 Q1294.56 1562.98 1294.56 1556.3 L1294.56 1536.95 L1290.27 1536.95 L1290.27 1532.4 L1294.56 1532.4 L1294.56 1522.27 L1300.45 1522.27 Z" fill="#000000" fill-rule="evenodd" fill-opacity="1" /><polyline clip-path="url(#clip942)" style="stroke:#000000; stroke-linecap:butt; stroke-linejoin:round; stroke-width:2; stroke-opacity:0.1; fill:none" points="
  250.028,1387.34 2352.76,1387.34 
  "/>
<polyline clip-path="url(#clip942)" style="stroke:#000000; stroke-linecap:butt; stroke-linejoin:round; stroke-width:2; stroke-opacity:0.1; fill:none" points="
  250.028,1089.74 2352.76,1089.74 
  "/>
<polyline clip-path="url(#clip942)" style="stroke:#000000; stroke-linecap:butt; stroke-linejoin:round; stroke-width:2; stroke-opacity:0.1; fill:none" points="
  250.028,792.142 2352.76,792.142 
  "/>
<polyline clip-path="url(#clip942)" style="stroke:#000000; stroke-linecap:butt; stroke-linejoin:round; stroke-width:2; stroke-opacity:0.1; fill:none" points="
  250.028,494.544 2352.76,494.544 
  "/>
<polyline clip-path="url(#clip942)" style="stroke:#000000; stroke-linecap:butt; stroke-linejoin:round; stroke-width:2; stroke-opacity:0.1; fill:none" points="
  250.028,196.946 2352.76,196.946 
  "/>
<polyline clip-path="url(#clip940)" style="stroke:#000000; stroke-linecap:butt; stroke-linejoin:round; stroke-width:4; stroke-opacity:1; fill:none" points="
  250.028,1423.18 250.028,123.472 
  "/>
<polyline clip-path="url(#clip940)" style="stroke:#000000; stroke-linecap:butt; stroke-linejoin:round; stroke-width:4; stroke-opacity:1; fill:none" points="
  250.028,1387.34 268.926,1387.34 
  "/>
<polyline clip-path="url(#clip940)" style="stroke:#000000; stroke-linecap:butt; stroke-linejoin:round; stroke-width:4; stroke-opacity:1; fill:none" points="
  250.028,1089.74 268.926,1089.74 
  "/>
<polyline clip-path="url(#clip940)" style="stroke:#000000; stroke-linecap:butt; stroke-linejoin:round; stroke-width:4; stroke-opacity:1; fill:none" points="
  250.028,792.142 268.926,792.142 
  "/>
<polyline clip-path="url(#clip940)" style="stroke:#000000; stroke-linecap:butt; stroke-linejoin:round; stroke-width:4; stroke-opacity:1; fill:none" points="
  250.028,494.544 268.926,494.544 
  "/>
<polyline clip-path="url(#clip940)" style="stroke:#000000; stroke-linecap:butt; stroke-linejoin:round; stroke-width:4; stroke-opacity:1; fill:none" points="
  250.028,196.946 268.926,196.946 
  "/>
<path clip-path="url(#clip940)" d="M126.691 1373.14 Q123.08 1373.14 121.251 1376.7 Q119.445 1380.24 119.445 1387.37 Q119.445 1394.48 121.251 1398.04 Q123.08 1401.59 126.691 1401.59 Q130.325 1401.59 132.13 1398.04 Q133.959 1394.48 133.959 1387.37 Q133.959 1380.24 132.13 1376.7 Q130.325 1373.14 126.691 1373.14 M126.691 1369.43 Q132.501 1369.43 135.556 1374.04 Q138.635 1378.62 138.635 1387.37 Q138.635 1396.1 135.556 1400.71 Q132.501 1405.29 126.691 1405.29 Q120.88 1405.29 117.802 1400.71 Q114.746 1396.1 114.746 1387.37 Q114.746 1378.62 117.802 1374.04 Q120.88 1369.43 126.691 1369.43 Z" fill="#000000" fill-rule="evenodd" fill-opacity="1" /><path clip-path="url(#clip940)" d="M146.853 1398.74 L151.737 1398.74 L151.737 1404.62 L146.853 1404.62 L146.853 1398.74 Z" fill="#000000" fill-rule="evenodd" fill-opacity="1" /><path clip-path="url(#clip940)" d="M171.922 1373.14 Q168.311 1373.14 166.482 1376.7 Q164.677 1380.24 164.677 1387.37 Q164.677 1394.48 166.482 1398.04 Q168.311 1401.59 171.922 1401.59 Q175.556 1401.59 177.362 1398.04 Q179.19 1394.48 179.19 1387.37 Q179.19 1380.24 177.362 1376.7 Q175.556 1373.14 171.922 1373.14 M171.922 1369.43 Q177.732 1369.43 180.788 1374.04 Q183.866 1378.62 183.866 1387.37 Q183.866 1396.1 180.788 1400.71 Q177.732 1405.29 171.922 1405.29 Q166.112 1405.29 163.033 1400.71 Q159.978 1396.1 159.978 1387.37 Q159.978 1378.62 163.033 1374.04 Q166.112 1369.43 171.922 1369.43 Z" fill="#000000" fill-rule="evenodd" fill-opacity="1" /><path clip-path="url(#clip940)" d="M202.084 1373.14 Q198.473 1373.14 196.644 1376.7 Q194.838 1380.24 194.838 1387.37 Q194.838 1394.48 196.644 1398.04 Q198.473 1401.59 202.084 1401.59 Q205.718 1401.59 207.524 1398.04 Q209.352 1394.48 209.352 1387.37 Q209.352 1380.24 207.524 1376.7 Q205.718 1373.14 202.084 1373.14 M202.084 1369.43 Q207.894 1369.43 210.949 1374.04 Q214.028 1378.62 214.028 1387.37 Q214.028 1396.1 210.949 1400.71 Q207.894 1405.29 202.084 1405.29 Q196.274 1405.29 193.195 1400.71 Q190.139 1396.1 190.139 1387.37 Q190.139 1378.62 193.195 1374.04 Q196.274 1369.43 202.084 1369.43 Z" fill="#000000" fill-rule="evenodd" fill-opacity="1" /><path clip-path="url(#clip940)" d="M128.288 1075.54 Q124.677 1075.54 122.848 1079.1 Q121.043 1082.65 121.043 1089.78 Q121.043 1096.88 122.848 1100.45 Q124.677 1103.99 128.288 1103.99 Q131.922 1103.99 133.728 1100.45 Q135.556 1096.88 135.556 1089.78 Q135.556 1082.65 133.728 1079.1 Q131.922 1075.54 128.288 1075.54 M128.288 1071.84 Q134.098 1071.84 137.154 1076.44 Q140.232 1081.03 140.232 1089.78 Q140.232 1098.5 137.154 1103.11 Q134.098 1107.69 128.288 1107.69 Q122.478 1107.69 119.399 1103.11 Q116.343 1098.5 116.343 1089.78 Q116.343 1081.03 119.399 1076.44 Q122.478 1071.84 128.288 1071.84 Z" fill="#000000" fill-rule="evenodd" fill-opacity="1" /><path clip-path="url(#clip940)" d="M148.45 1101.14 L153.334 1101.14 L153.334 1107.02 L148.45 1107.02 L148.45 1101.14 Z" fill="#000000" fill-rule="evenodd" fill-opacity="1" /><path clip-path="url(#clip940)" d="M173.519 1075.54 Q169.908 1075.54 168.079 1079.1 Q166.274 1082.65 166.274 1089.78 Q166.274 1096.88 168.079 1100.45 Q169.908 1103.99 173.519 1103.99 Q177.153 1103.99 178.959 1100.45 Q180.788 1096.88 180.788 1089.78 Q180.788 1082.65 178.959 1079.1 Q177.153 1075.54 173.519 1075.54 M173.519 1071.84 Q179.329 1071.84 182.385 1076.44 Q185.463 1081.03 185.463 1089.78 Q185.463 1098.5 182.385 1103.11 Q179.329 1107.69 173.519 1107.69 Q167.709 1107.69 164.63 1103.11 Q161.575 1098.5 161.575 1089.78 Q161.575 1081.03 164.63 1076.44 Q167.709 1071.84 173.519 1071.84 Z" fill="#000000" fill-rule="evenodd" fill-opacity="1" /><path clip-path="url(#clip940)" d="M197.709 1103.09 L214.028 1103.09 L214.028 1107.02 L192.084 1107.02 L192.084 1103.09 Q194.746 1100.33 199.329 1095.7 Q203.936 1091.05 205.116 1089.71 Q207.362 1087.18 208.241 1085.45 Q209.144 1083.69 209.144 1082 Q209.144 1079.24 207.199 1077.51 Q205.278 1075.77 202.176 1075.77 Q199.977 1075.77 197.524 1076.53 Q195.093 1077.3 192.315 1078.85 L192.315 1074.13 Q195.139 1072.99 197.593 1072.41 Q200.047 1071.84 202.084 1071.84 Q207.454 1071.84 210.649 1074.52 Q213.843 1077.21 213.843 1081.7 Q213.843 1083.83 213.033 1085.75 Q212.246 1087.65 210.139 1090.24 Q209.561 1090.91 206.459 1094.13 Q203.357 1097.32 197.709 1103.09 Z" fill="#000000" fill-rule="evenodd" fill-opacity="1" /><path clip-path="url(#clip940)" d="M126.205 777.941 Q122.593 777.941 120.765 781.506 Q118.959 785.047 118.959 792.177 Q118.959 799.283 120.765 802.848 Q122.593 806.39 126.205 806.39 Q129.839 806.39 131.644 802.848 Q133.473 799.283 133.473 792.177 Q133.473 785.047 131.644 781.506 Q129.839 777.941 126.205 777.941 M126.205 774.237 Q132.015 774.237 135.07 778.844 Q138.149 783.427 138.149 792.177 Q138.149 800.904 135.07 805.51 Q132.015 810.094 126.205 810.094 Q120.394 810.094 117.316 805.51 Q114.26 800.904 114.26 792.177 Q114.26 783.427 117.316 778.844 Q120.394 774.237 126.205 774.237 Z" fill="#000000" fill-rule="evenodd" fill-opacity="1" /><path clip-path="url(#clip940)" d="M146.366 803.543 L151.251 803.543 L151.251 809.422 L146.366 809.422 L146.366 803.543 Z" fill="#000000" fill-rule="evenodd" fill-opacity="1" /><path clip-path="url(#clip940)" d="M171.436 777.941 Q167.825 777.941 165.996 781.506 Q164.19 785.047 164.19 792.177 Q164.19 799.283 165.996 802.848 Q167.825 806.39 171.436 806.39 Q175.07 806.39 176.876 802.848 Q178.704 799.283 178.704 792.177 Q178.704 785.047 176.876 781.506 Q175.07 777.941 171.436 777.941 M171.436 774.237 Q177.246 774.237 180.301 778.844 Q183.38 783.427 183.38 792.177 Q183.38 800.904 180.301 805.51 Q177.246 810.094 171.436 810.094 Q165.626 810.094 162.547 805.51 Q159.491 800.904 159.491 792.177 Q159.491 783.427 162.547 778.844 Q165.626 774.237 171.436 774.237 Z" fill="#000000" fill-rule="evenodd" fill-opacity="1" /><path clip-path="url(#clip940)" d="M204.445 778.936 L192.639 797.385 L204.445 797.385 L204.445 778.936 M203.218 774.862 L209.098 774.862 L209.098 797.385 L214.028 797.385 L214.028 801.274 L209.098 801.274 L209.098 809.422 L204.445 809.422 L204.445 801.274 L188.843 801.274 L188.843 796.76 L203.218 774.862 Z" fill="#000000" fill-rule="evenodd" fill-opacity="1" /><path clip-path="url(#clip940)" d="M126.529 480.343 Q122.918 480.343 121.089 483.908 Q119.283 487.449 119.283 494.579 Q119.283 501.685 121.089 505.25 Q122.918 508.792 126.529 508.792 Q130.163 508.792 131.968 505.25 Q133.797 501.685 133.797 494.579 Q133.797 487.449 131.968 483.908 Q130.163 480.343 126.529 480.343 M126.529 476.639 Q132.339 476.639 135.394 481.246 Q138.473 485.829 138.473 494.579 Q138.473 503.306 135.394 507.912 Q132.339 512.495 126.529 512.495 Q120.718 512.495 117.64 507.912 Q114.584 503.306 114.584 494.579 Q114.584 485.829 117.64 481.246 Q120.718 476.639 126.529 476.639 Z" fill="#000000" fill-rule="evenodd" fill-opacity="1" /><path clip-path="url(#clip940)" d="M146.691 505.945 L151.575 505.945 L151.575 511.824 L146.691 511.824 L146.691 505.945 Z" fill="#000000" fill-rule="evenodd" fill-opacity="1" /><path clip-path="url(#clip940)" d="M171.76 480.343 Q168.149 480.343 166.32 483.908 Q164.515 487.449 164.515 494.579 Q164.515 501.685 166.32 505.25 Q168.149 508.792 171.76 508.792 Q175.394 508.792 177.2 505.25 Q179.028 501.685 179.028 494.579 Q179.028 487.449 177.2 483.908 Q175.394 480.343 171.76 480.343 M171.76 476.639 Q177.57 476.639 180.626 481.246 Q183.704 485.829 183.704 494.579 Q183.704 503.306 180.626 507.912 Q177.57 512.495 171.76 512.495 Q165.95 512.495 162.871 507.912 Q159.815 503.306 159.815 494.579 Q159.815 485.829 162.871 481.246 Q165.95 476.639 171.76 476.639 Z" fill="#000000" fill-rule="evenodd" fill-opacity="1" /><path clip-path="url(#clip940)" d="M202.5 492.681 Q199.352 492.681 197.5 494.834 Q195.672 496.986 195.672 500.736 Q195.672 504.463 197.5 506.639 Q199.352 508.792 202.5 508.792 Q205.649 508.792 207.477 506.639 Q209.329 504.463 209.329 500.736 Q209.329 496.986 207.477 494.834 Q205.649 492.681 202.5 492.681 M211.783 478.028 L211.783 482.287 Q210.024 481.454 208.218 481.014 Q206.436 480.574 204.676 480.574 Q200.047 480.574 197.593 483.699 Q195.163 486.824 194.815 493.144 Q196.181 491.13 198.241 490.065 Q200.301 488.977 202.778 488.977 Q207.987 488.977 210.996 492.148 Q214.028 495.296 214.028 500.736 Q214.028 506.06 210.88 509.278 Q207.732 512.495 202.5 512.495 Q196.505 512.495 193.334 507.912 Q190.163 503.306 190.163 494.579 Q190.163 486.385 194.051 481.523 Q197.94 476.639 204.491 476.639 Q206.25 476.639 208.033 476.986 Q209.838 477.334 211.783 478.028 Z" fill="#000000" fill-rule="evenodd" fill-opacity="1" /><path clip-path="url(#clip940)" d="M126.783 182.745 Q123.172 182.745 121.343 186.31 Q119.538 189.851 119.538 196.981 Q119.538 204.087 121.343 207.652 Q123.172 211.194 126.783 211.194 Q130.417 211.194 132.223 207.652 Q134.052 204.087 134.052 196.981 Q134.052 189.851 132.223 186.31 Q130.417 182.745 126.783 182.745 M126.783 179.041 Q132.593 179.041 135.649 183.648 Q138.728 188.231 138.728 196.981 Q138.728 205.708 135.649 210.314 Q132.593 214.897 126.783 214.897 Q120.973 214.897 117.894 210.314 Q114.839 205.708 114.839 196.981 Q114.839 188.231 117.894 183.648 Q120.973 179.041 126.783 179.041 Z" fill="#000000" fill-rule="evenodd" fill-opacity="1" /><path clip-path="url(#clip940)" d="M146.945 208.347 L151.829 208.347 L151.829 214.226 L146.945 214.226 L146.945 208.347 Z" fill="#000000" fill-rule="evenodd" fill-opacity="1" /><path clip-path="url(#clip940)" d="M172.014 182.745 Q168.403 182.745 166.575 186.31 Q164.769 189.851 164.769 196.981 Q164.769 204.087 166.575 207.652 Q168.403 211.194 172.014 211.194 Q175.649 211.194 177.454 207.652 Q179.283 204.087 179.283 196.981 Q179.283 189.851 177.454 186.31 Q175.649 182.745 172.014 182.745 M172.014 179.041 Q177.825 179.041 180.88 183.648 Q183.959 188.231 183.959 196.981 Q183.959 205.708 180.88 210.314 Q177.825 214.897 172.014 214.897 Q166.204 214.897 163.126 210.314 Q160.07 205.708 160.07 196.981 Q160.07 188.231 163.126 183.648 Q166.204 179.041 172.014 179.041 Z" fill="#000000" fill-rule="evenodd" fill-opacity="1" /><path clip-path="url(#clip940)" d="M202.176 197.814 Q198.843 197.814 196.922 199.597 Q195.024 201.379 195.024 204.504 Q195.024 207.629 196.922 209.411 Q198.843 211.194 202.176 211.194 Q205.51 211.194 207.431 209.411 Q209.352 207.606 209.352 204.504 Q209.352 201.379 207.431 199.597 Q205.533 197.814 202.176 197.814 M197.5 195.823 Q194.491 195.083 192.801 193.023 Q191.135 190.962 191.135 187.999 Q191.135 183.856 194.075 181.448 Q197.037 179.041 202.176 179.041 Q207.338 179.041 210.278 181.448 Q213.218 183.856 213.218 187.999 Q213.218 190.962 211.528 193.023 Q209.861 195.083 206.875 195.823 Q210.255 196.61 212.13 198.902 Q214.028 201.194 214.028 204.504 Q214.028 209.527 210.949 212.212 Q207.894 214.897 202.176 214.897 Q196.459 214.897 193.38 212.212 Q190.325 209.527 190.325 204.504 Q190.325 201.194 192.223 198.902 Q194.121 196.61 197.5 195.823 M195.787 188.439 Q195.787 191.124 197.454 192.629 Q199.144 194.134 202.176 194.134 Q205.186 194.134 206.875 192.629 Q208.588 191.124 208.588 188.439 Q208.588 185.754 206.875 184.249 Q205.186 182.745 202.176 182.745 Q199.144 182.745 197.454 184.249 Q195.787 185.754 195.787 188.439 Z" fill="#000000" fill-rule="evenodd" fill-opacity="1" /><path clip-path="url(#clip940)" d="M28.3562 814.719 L28.3562 808.863 L64.0042 808.863 L64.0042 814.719 L28.3562 814.719 M14.479 814.719 L14.479 808.863 L21.895 808.863 L21.895 814.719 L14.479 814.719 Z" fill="#000000" fill-rule="evenodd" fill-opacity="1" /><path clip-path="url(#clip940)" d="M14.5426 782.54 Q21.8632 786.805 29.0246 788.874 Q36.186 790.943 43.5384 790.943 Q50.8908 790.943 58.1159 788.874 Q65.3091 786.774 72.5979 782.54 L72.5979 787.633 Q65.1182 792.407 57.8931 794.794 Q50.668 797.15 43.5384 797.15 Q36.4406 797.15 29.2474 794.794 Q22.0542 792.439 14.5426 787.633 L14.5426 782.54 Z" fill="#000000" fill-rule="evenodd" fill-opacity="1" /><path clip-path="url(#clip940)" d="M18.2347 765.385 L28.3562 765.385 L28.3562 753.322 L32.9077 753.322 L32.9077 765.385 L52.2594 765.385 Q56.6199 765.385 57.8613 764.207 Q59.1026 762.998 59.1026 759.337 L59.1026 753.322 L64.0042 753.322 L64.0042 759.337 Q64.0042 766.117 61.4897 768.695 Q58.9434 771.273 52.2594 771.273 L32.9077 771.273 L32.9077 775.57 L28.3562 775.57 L28.3562 771.273 L18.2347 771.273 L18.2347 765.385 Z" fill="#000000" fill-rule="evenodd" fill-opacity="1" /><path clip-path="url(#clip940)" d="M14.5426 746.542 L14.5426 741.45 Q22.0542 736.675 29.2474 734.32 Q36.4406 731.933 43.5384 731.933 Q50.668 731.933 57.8931 734.32 Q65.1182 736.675 72.5979 741.45 L72.5979 746.542 Q65.3091 742.309 58.1159 740.24 Q50.8908 738.14 43.5384 738.14 Q36.186 738.14 29.0246 740.24 Q21.8632 742.309 14.5426 746.542 Z" fill="#000000" fill-rule="evenodd" fill-opacity="1" /><path clip-path="url(#clip940)" d="M871.976 12.096 L882.994 12.096 L909.811 62.6918 L909.811 12.096 L917.751 12.096 L917.751 72.576 L906.733 72.576 L879.916 21.9802 L879.916 72.576 L871.976 72.576 L871.976 12.096 Z" fill="#000000" fill-rule="evenodd" fill-opacity="1" /><path clip-path="url(#clip940)" d="M932.942 54.671 L932.942 27.2059 L940.396 27.2059 L940.396 54.3874 Q940.396 60.8284 942.907 64.0691 Q945.419 67.2693 950.442 67.2693 Q956.478 67.2693 959.962 63.421 Q963.486 59.5726 963.486 52.9291 L963.486 27.2059 L970.94 27.2059 L970.94 72.576 L963.486 72.576 L963.486 65.6084 Q960.772 69.7404 957.166 71.7658 Q953.602 73.7508 948.862 73.7508 Q941.044 73.7508 936.993 68.8897 Q932.942 64.0286 932.942 54.671 M951.698 26.1121 L951.698 26.1121 Z" fill="#000000" fill-rule="evenodd" fill-opacity="1" /><path clip-path="url(#clip940)" d="M1021.62 35.9153 Q1024.41 30.8922 1028.3 28.5022 Q1032.19 26.1121 1037.46 26.1121 Q1044.54 26.1121 1048.39 31.0947 Q1052.24 36.0368 1052.24 45.1919 L1052.24 72.576 L1044.75 72.576 L1044.75 45.4349 Q1044.75 38.913 1042.44 35.7533 Q1040.13 32.5936 1035.39 32.5936 Q1029.6 32.5936 1026.23 36.4419 Q1022.87 40.2903 1022.87 46.9338 L1022.87 72.576 L1015.38 72.576 L1015.38 45.4349 Q1015.38 38.8725 1013.07 35.7533 Q1010.76 32.5936 1005.94 32.5936 Q1000.23 32.5936 996.865 36.4824 Q993.503 40.3308 993.503 46.9338 L993.503 72.576 L986.009 72.576 L986.009 27.2059 L993.503 27.2059 L993.503 34.2544 Q996.055 30.082 999.62 28.0971 Q1003.18 26.1121 1008.09 26.1121 Q1013.03 26.1121 1016.47 28.6237 Q1019.96 31.1352 1021.62 35.9153 Z" fill="#000000" fill-rule="evenodd" fill-opacity="1" /><path clip-path="url(#clip940)" d="M1099.68 49.9314 Q1099.68 41.7081 1096.27 37.0496 Q1092.91 32.3505 1087 32.3505 Q1081.08 32.3505 1077.68 37.0496 Q1074.32 41.7081 1074.32 49.9314 Q1074.32 58.1548 1077.68 62.8538 Q1081.08 67.5124 1087 67.5124 Q1092.91 67.5124 1096.27 62.8538 Q1099.68 58.1548 1099.68 49.9314 M1074.32 34.0924 Q1076.67 30.0415 1080.23 28.0971 Q1083.84 26.1121 1088.82 26.1121 Q1097.08 26.1121 1102.23 32.6746 Q1107.41 39.2371 1107.41 49.9314 Q1107.41 60.6258 1102.23 67.1883 Q1097.08 73.7508 1088.82 73.7508 Q1083.84 73.7508 1080.23 71.8063 Q1076.67 69.8214 1074.32 65.7705 L1074.32 72.576 L1066.82 72.576 L1066.82 9.54393 L1074.32 9.54393 L1074.32 34.0924 Z" fill="#000000" fill-rule="evenodd" fill-opacity="1" /><path clip-path="url(#clip940)" d="M1158.58 48.0275 L1158.58 51.6733 L1124.31 51.6733 Q1124.79 59.3701 1128.92 63.421 Q1133.1 67.4314 1140.51 67.4314 Q1144.8 67.4314 1148.81 66.3781 Q1152.87 65.3249 1156.84 63.2184 L1156.84 70.267 Q1152.83 71.9684 1148.61 72.8596 Q1144.4 73.7508 1140.06 73.7508 Q1129.21 73.7508 1122.85 67.4314 Q1116.53 61.1119 1116.53 50.3365 Q1116.53 39.1965 1122.52 32.6746 Q1128.56 26.1121 1138.77 26.1121 Q1147.92 26.1121 1153.23 32.0264 Q1158.58 37.9003 1158.58 48.0275 M1151.12 45.84 Q1151.04 39.7232 1147.68 36.0774 Q1144.36 32.4315 1138.85 32.4315 Q1132.61 32.4315 1128.84 35.9558 Q1125.12 39.4801 1124.55 45.8805 L1151.12 45.84 Z" fill="#000000" fill-rule="evenodd" fill-opacity="1" /><path clip-path="url(#clip940)" d="M1197.1 34.1734 Q1195.85 33.4443 1194.35 33.1202 Q1192.89 32.7556 1191.11 32.7556 Q1184.79 32.7556 1181.38 36.8875 Q1178.02 40.9789 1178.02 48.6757 L1178.02 72.576 L1170.53 72.576 L1170.53 27.2059 L1178.02 27.2059 L1178.02 34.2544 Q1180.37 30.1225 1184.14 28.1376 Q1187.91 26.1121 1193.29 26.1121 Q1194.06 26.1121 1195 26.2337 Q1195.93 26.3147 1197.06 26.5172 L1197.1 34.1734 Z" fill="#000000" fill-rule="evenodd" fill-opacity="1" /><path clip-path="url(#clip940)" d="M1248.87 32.4315 Q1242.88 32.4315 1239.39 37.1306 Q1235.91 41.7891 1235.91 49.9314 Q1235.91 58.0738 1239.35 62.7728 Q1242.84 67.4314 1248.87 67.4314 Q1254.83 67.4314 1258.31 62.7323 Q1261.79 58.0333 1261.79 49.9314 Q1261.79 41.8701 1258.31 37.1711 Q1254.83 32.4315 1248.87 32.4315 M1248.87 26.1121 Q1258.59 26.1121 1264.14 32.4315 Q1269.69 38.7509 1269.69 49.9314 Q1269.69 61.0714 1264.14 67.4314 Q1258.59 73.7508 1248.87 73.7508 Q1239.11 73.7508 1233.56 67.4314 Q1228.05 61.0714 1228.05 49.9314 Q1228.05 38.7509 1233.56 32.4315 Q1239.11 26.1121 1248.87 26.1121 Z" fill="#000000" fill-rule="evenodd" fill-opacity="1" /><path clip-path="url(#clip940)" d="M1305.02 9.54393 L1305.02 15.7418 L1297.89 15.7418 Q1293.88 15.7418 1292.3 17.3622 Q1290.76 18.9825 1290.76 23.1955 L1290.76 27.2059 L1303.03 27.2059 L1303.03 32.9987 L1290.76 32.9987 L1290.76 72.576 L1283.26 72.576 L1283.26 32.9987 L1276.13 32.9987 L1276.13 27.2059 L1283.26 27.2059 L1283.26 24.0462 Q1283.26 16.471 1286.79 13.0277 Q1290.31 9.54393 1297.97 9.54393 L1305.02 9.54393 Z" fill="#000000" fill-rule="evenodd" fill-opacity="1" /><path clip-path="url(#clip940)" d="M1337.95 12.096 L1346.13 12.096 L1346.13 72.576 L1337.95 72.576 L1337.95 12.096 Z" fill="#000000" fill-rule="evenodd" fill-opacity="1" /><path clip-path="url(#clip940)" d="M1399.81 45.1919 L1399.81 72.576 L1392.36 72.576 L1392.36 45.4349 Q1392.36 38.994 1389.84 35.7938 Q1387.33 32.5936 1382.31 32.5936 Q1376.27 32.5936 1372.79 36.4419 Q1369.31 40.2903 1369.31 46.9338 L1369.31 72.576 L1361.81 72.576 L1361.81 27.2059 L1369.31 27.2059 L1369.31 34.2544 Q1371.98 30.163 1375.58 28.1376 Q1379.23 26.1121 1383.97 26.1121 Q1391.79 26.1121 1395.8 30.9732 Q1399.81 35.7938 1399.81 45.1919 Z" fill="#000000" fill-rule="evenodd" fill-opacity="1" /><path clip-path="url(#clip940)" d="M1437.64 9.54393 L1437.64 15.7418 L1430.51 15.7418 Q1426.5 15.7418 1424.92 17.3622 Q1423.39 18.9825 1423.39 23.1955 L1423.39 27.2059 L1435.66 27.2059 L1435.66 32.9987 L1423.39 32.9987 L1423.39 72.576 L1415.89 72.576 L1415.89 32.9987 L1408.76 32.9987 L1408.76 27.2059 L1415.89 27.2059 L1415.89 24.0462 Q1415.89 16.471 1419.42 13.0277 Q1422.94 9.54393 1430.6 9.54393 L1437.64 9.54393 Z" fill="#000000" fill-rule="evenodd" fill-opacity="1" /><path clip-path="url(#clip940)" d="M1482.69 48.0275 L1482.69 51.6733 L1448.42 51.6733 Q1448.91 59.3701 1453.04 63.421 Q1457.21 67.4314 1464.62 67.4314 Q1468.92 67.4314 1472.93 66.3781 Q1476.98 65.3249 1480.95 63.2184 L1480.95 70.267 Q1476.94 71.9684 1472.73 72.8596 Q1468.51 73.7508 1464.18 73.7508 Q1453.32 73.7508 1446.96 67.4314 Q1440.64 61.1119 1440.64 50.3365 Q1440.64 39.1965 1446.64 32.6746 Q1452.67 26.1121 1462.88 26.1121 Q1472.04 26.1121 1477.34 32.0264 Q1482.69 37.9003 1482.69 48.0275 M1475.24 45.84 Q1475.16 39.7232 1471.79 36.0774 Q1468.47 32.4315 1462.96 32.4315 Q1456.72 32.4315 1452.96 35.9558 Q1449.23 39.4801 1448.66 45.8805 L1475.24 45.84 Z" fill="#000000" fill-rule="evenodd" fill-opacity="1" /><path clip-path="url(#clip940)" d="M1527.57 28.9478 L1527.57 35.9153 Q1524.41 34.1734 1521.21 33.3227 Q1518.05 32.4315 1514.81 32.4315 Q1507.56 32.4315 1503.55 37.0496 Q1499.54 41.6271 1499.54 49.9314 Q1499.54 58.2358 1503.55 62.8538 Q1507.56 67.4314 1514.81 67.4314 Q1518.05 67.4314 1521.21 66.5807 Q1524.41 65.6895 1527.57 63.9476 L1527.57 70.8341 Q1524.46 72.2924 1521.09 73.0216 Q1517.77 73.7508 1514 73.7508 Q1503.75 73.7508 1497.72 67.3098 Q1491.68 60.8689 1491.68 49.9314 Q1491.68 38.832 1497.76 32.472 Q1503.88 26.1121 1514.49 26.1121 Q1517.93 26.1121 1521.21 26.8413 Q1524.5 27.5299 1527.57 28.9478 Z" fill="#000000" fill-rule="evenodd" fill-opacity="1" /><path clip-path="url(#clip940)" d="M1547.91 14.324 L1547.91 27.2059 L1563.26 27.2059 L1563.26 32.9987 L1547.91 32.9987 L1547.91 57.6282 Q1547.91 63.1779 1549.41 64.7578 Q1550.95 66.3376 1555.61 66.3376 L1563.26 66.3376 L1563.26 72.576 L1555.61 72.576 Q1546.98 72.576 1543.7 69.3758 Q1540.42 66.1351 1540.42 57.6282 L1540.42 32.9987 L1534.95 32.9987 L1534.95 27.2059 L1540.42 27.2059 L1540.42 14.324 L1547.91 14.324 Z" fill="#000000" fill-rule="evenodd" fill-opacity="1" /><path clip-path="url(#clip940)" d="M1573.07 27.2059 L1580.52 27.2059 L1580.52 72.576 L1573.07 72.576 L1573.07 27.2059 M1573.07 9.54393 L1580.52 9.54393 L1580.52 18.9825 L1573.07 18.9825 L1573.07 9.54393 Z" fill="#000000" fill-rule="evenodd" fill-opacity="1" /><path clip-path="url(#clip940)" d="M1613.7 32.4315 Q1607.7 32.4315 1604.22 37.1306 Q1600.73 41.7891 1600.73 49.9314 Q1600.73 58.0738 1604.18 62.7728 Q1607.66 67.4314 1613.7 67.4314 Q1619.65 67.4314 1623.14 62.7323 Q1626.62 58.0333 1626.62 49.9314 Q1626.62 41.8701 1623.14 37.1711 Q1619.65 32.4315 1613.7 32.4315 M1613.7 26.1121 Q1623.42 26.1121 1628.97 32.4315 Q1634.52 38.7509 1634.52 49.9314 Q1634.52 61.0714 1628.97 67.4314 Q1623.42 73.7508 1613.7 73.7508 Q1603.93 73.7508 1598.38 67.4314 Q1592.87 61.0714 1592.87 49.9314 Q1592.87 38.7509 1598.38 32.4315 Q1603.93 26.1121 1613.7 26.1121 Z" fill="#000000" fill-rule="evenodd" fill-opacity="1" /><path clip-path="url(#clip940)" d="M1684.59 45.1919 L1684.59 72.576 L1677.13 72.576 L1677.13 45.4349 Q1677.13 38.994 1674.62 35.7938 Q1672.11 32.5936 1667.09 32.5936 Q1661.05 32.5936 1657.57 36.4419 Q1654.08 40.2903 1654.08 46.9338 L1654.08 72.576 L1646.59 72.576 L1646.59 27.2059 L1654.08 27.2059 L1654.08 34.2544 Q1656.76 30.163 1660.36 28.1376 Q1664.01 26.1121 1668.75 26.1121 Q1676.57 26.1121 1680.58 30.9732 Q1684.59 35.7938 1684.59 45.1919 Z" fill="#000000" fill-rule="evenodd" fill-opacity="1" /><path clip-path="url(#clip940)" d="M1728.38 28.5427 L1728.38 35.5912 Q1725.22 33.9709 1721.82 33.1607 Q1718.41 32.3505 1714.77 32.3505 Q1709.22 32.3505 1706.42 34.0519 Q1703.67 35.7533 1703.67 39.156 Q1703.67 41.7486 1705.65 43.2475 Q1707.64 44.7058 1713.63 46.0426 L1716.18 46.6097 Q1724.12 48.3111 1727.45 51.4303 Q1730.81 54.509 1730.81 60.0587 Q1730.81 66.3781 1725.79 70.0644 Q1720.8 73.7508 1712.05 73.7508 Q1708.41 73.7508 1704.44 73.0216 Q1700.51 72.3329 1696.13 70.9151 L1696.13 63.2184 Q1700.26 65.3654 1704.27 66.4591 Q1708.29 67.5124 1712.21 67.5124 Q1717.48 67.5124 1720.32 65.73 Q1723.15 63.9071 1723.15 60.6258 Q1723.15 57.5877 1721.09 55.9673 Q1719.06 54.3469 1712.13 52.8481 L1709.54 52.2405 Q1702.61 50.7821 1699.54 47.7845 Q1696.46 44.7463 1696.46 39.4801 Q1696.46 33.0797 1700.99 29.5959 Q1705.53 26.1121 1713.88 26.1121 Q1718.01 26.1121 1721.65 26.7198 Q1725.3 27.3274 1728.38 28.5427 Z" fill="#000000" fill-rule="evenodd" fill-opacity="1" /><polyline clip-path="url(#clip942)" style="stroke:#009af9; stroke-linecap:butt; stroke-linejoin:round; stroke-width:4; stroke-opacity:1; fill:none" points="
  250.028,1386.21 250.085,1386.21 250.098,1386.21 250.113,1386.21 250.131,1386.21 250.15,1386.21 250.172,1386.21 250.196,1386.21 250.223,1386.21 250.254,1386.21 
  250.289,1386.21 250.328,1386.21 250.372,1386.21 250.422,1386.21 250.477,1386.21 250.54,1386.22 250.61,1386.22 250.69,1386.22 250.779,1386.22 250.879,1386.22 
  250.992,1386.22 251.119,1386.22 251.262,1386.22 251.422,1386.22 251.603,1386.22 251.807,1386.23 252.032,1386.23 252.277,1386.23 252.542,1386.23 252.824,1386.23 
  253.122,1386.23 253.437,1386.24 253.766,1386.24 254.107,1386.24 254.458,1386.24 254.818,1386.25 255.188,1386.25 255.566,1386.25 255.95,1386.25 256.342,1386.26 
  256.742,1386.26 257.149,1386.26 257.561,1386.26 257.982,1386.27 258.411,1386.27 258.844,1386.27 259.281,1386.27 259.724,1386.28 260.168,1386.28 260.616,1386.28 
  261.068,1386.29 261.521,1386.29 261.978,1386.29 262.439,1386.29 262.905,1386.3 263.376,1386.3 263.85,1386.3 264.327,1386.3 264.809,1386.3 265.298,1386.31 
  265.791,1386.31 266.292,1386.31 266.799,1386.31 267.312,1386.32 267.831,1386.32 268.35,1386.32 268.873,1386.32 269.397,1386.32 269.925,1386.33 270.459,1386.33 
  270.995,1386.33 271.538,1386.33 272.086,1386.33 272.637,1386.34 273.199,1386.34 273.77,1386.34 274.346,1386.34 274.931,1386.34 275.523,1386.35 276.121,1386.35 
  276.72,1386.35 277.328,1386.35 277.945,1386.35 278.572,1386.35 279.207,1386.35 279.854,1386.36 280.506,1386.36 281.161,1386.36 281.829,1386.36 282.508,1386.36 
  283.199,1386.36 283.901,1386.36 284.608,1386.36 285.318,1386.37 286.037,1386.37 286.776,1386.37 287.534,1386.37 288.305,1386.37 289.089,1386.37 289.884,1386.37 
  290.699,1386.37 291.527,1386.37 292.367,1386.37 293.227,1386.37 294.101,1386.37 294.983,1386.37 295.874,1386.37 296.784,1386.37 297.702,1386.37 298.645,1386.37 
  299.62,1386.37 300.629,1386.36 301.684,1386.36 302.764,1386.36 303.877,1386.36 305.007,1386.36 306.167,1386.35 307.367,1386.35 308.641,1386.35 309.951,1386.34 
  311.316,1386.34 312.687,1386.34 314.094,1386.33 315.524,1386.33 316.977,1386.32 318.471,1386.32 320.008,1386.31 321.568,1386.31 323.171,1386.3 324.819,1386.29 
  326.512,1386.29 328.287,1386.28 330.198,1386.27 332.132,1386.26 334.02,1386.25 335.962,1386.24 337.995,1386.23 340.017,1386.22 342.187,1386.21 344.467,1386.2 
  346.727,1386.18 349.005,1386.17 351.201,1386.16 353.326,1386.15 355.579,1386.14 357.835,1386.13 359.997,1386.11 362.265,1386.1 364.573,1386.09 367.056,1386.07 
  369.849,1386.04 372.858,1386.02 375.995,1385.99 379.38,1385.97 382.67,1385.94 385.967,1385.91 389.358,1385.88 392.748,1385.85 396.352,1385.82 400.094,1385.79 
  403.376,1385.76 406.668,1385.73 410.302,1385.69 414.105,1385.64 418.384,1385.59 422.499,1385.55 426.972,1385.49 431.751,1385.42 437.127,1385.34 442.368,1385.26 
  448.134,1385.16 454.622,1385.03 461.92,1384.88 470.13,1384.68 475.524,1384.54 481.591,1384.39 488.417,1384.19 496.097,1383.96 503.515,1383.71 511.86,1383.42 
  521.248,1383.08 528.709,1382.78 537.102,1382.41 545.891,1382.04 555.779,1381.59 566.904,1381 577.454,1380.37 589.322,1379.56 601.416,1378.64 613.963,1377.59 
  628.078,1376.23 643.957,1374.29 654.886,1372.74 664.606,1371.32 675.54,1369.74 687.841,1367.95 701.68,1365.87 710.793,1364.28 720.968,1362.55 731.15,1360.55 
  740.772,1358.34 751.597,1355.73 763.775,1352.52 771.664,1350.34 780.539,1347.63 790.028,1344.44 800.702,1340.96 807.484,1338.36 815.115,1334.79 823.699,1330.25 
  829.913,1326.58 836.824,1321.87 842.703,1317.24 847.744,1313.07 852.564,1309.2 857.87,1304.57 863.028,1299.63 867.692,1295.16 872.634,1289.93 877.141,1285.12 
  881.954,1279.67 887.016,1273.49 891.472,1267.89 896.117,1261.81 900.872,1255.35 905.545,1248.4 910.022,1241.17 914.163,1234.39 918.506,1227.2 922.992,1219.58 
  927.571,1211.23 931.879,1203.62 936.725,1194.61 941.889,1183.92 946.378,1173.87 950.791,1164.15 955.215,1154.9 960.191,1144.72 965.79,1132.82 971.46,1121.42 
  977.839,1105.91 984.14,1089.55 989.507,1076.01 995.544,1059.54 1001.85,1040.6 1007.4,1023.37 1012.84,1007.11 1018.56,990.553 1024.67,970.709 1030.5,948.678 
  1035.31,927.595 1039.4,908.906 1043.56,888.94 1047.36,868.961 1050.91,849.448 1054.14,831.947 1057.34,814.557 1060.52,797.918 1063.63,781.826 1066.86,764.514 
  1070.02,747.894 1073.2,731.854 1076.53,715.97 1079.95,700.772 1083.56,683.291 1087.07,665.647 1090.53,646.104 1093.85,626.618 1097.02,608.943 1100.23,591.665 
  1103.51,573.678 1106.77,554.214 1109.83,535.858 1112.84,518.235 1115.85,501.569 1118.92,484.83 1121.97,470.252 1125.09,456.838 1128.28,443.544 1131.46,430.498 
  1134.66,417.327 1137.85,405.454 1141.03,393.409 1144.22,382.024 1147.38,370.951 1150.53,358.42 1153.68,343.884 1156.77,328.83 1159.82,313.265 1162.78,298.471 
  1165.7,285.077 1168.63,272.413 1171.58,259.714 1174.49,247.603 1177.4,235.757 1180.29,225.152 1183.18,215.682 1186.07,207.392 1188.95,200.473 1191.8,193.678 
  1194.64,186.986 1197.49,182.273 1200.28,178.324 1203.01,174.424 1205.75,170.748 1208.45,167.432 1211.16,164.42 1213.84,162.012 1216.52,160.952 1219.12,160.256 
  1221.69,160.847 1224.16,161.532 1226.63,163.042 1229,164.555 1231.37,165.636 1233.74,166.846 1236.11,167.643 1238.54,169.244 1240.89,170.333 1243.31,169.963 
  1245.83,170.471 1248.36,171.025 1250.9,171.781 1253.47,174.201 1255.97,176.716 1258.43,178.596 1260.99,180.654 1263.53,183.898 1266.01,187.884 1268.44,192.637 
  1270.78,197.211 1273.08,201.555 1275.43,206.959 1277.69,212.957 1279.84,218 1282,222.62 1284.23,226.875 1286.5,231.882 1288.77,237.336 1290.98,242.647 
  1293.19,247.504 1295.45,252.428 1297.74,257.162 1300.07,261.768 1302.47,266.32 1304.93,271.793 1307.33,277.2 1309.78,282.568 1312.22,288.398 1314.67,294.623 
  1317.11,300.373 1319.58,306.356 1322.08,311.898 1324.64,318.206 1327.2,325.482 1329.64,332.067 1332.13,337.706 1334.77,342.856 1337.53,347.315 1340.46,351.356 
  1343.56,356.047 1346.71,361.904 1349.91,367.097 1353.21,372.492 1356.64,378.696 1360.06,382.842 1363.64,385.553 1367.13,388.319 1370.64,390.433 1374.03,392.785 
  1377.49,394.374 1380.75,396.856 1384.08,399.883 1387.48,403.147 1390.83,406.125 1394.17,409.372 1397.51,412.815 1400.83,417.169 1404.24,423.985 1407.86,431.964 
  1411.62,439.686 1415.43,447.427 1419.29,456.355 1423.26,465.671 1427.33,476.289 1431.47,487.189 1435.69,498.733 1439.99,511.977 1444.21,525.42 1448.34,539.011 
  1452.45,552.181 1456.57,565.384 1460.71,578.878 1464.84,592.548 1468.81,605.816 1472.79,618.103 1477,631.185 1481.28,644.428 1485.6,658.294 1489.82,671.772 
  1493.96,684.451 1498.26,697.377 1502.73,710.166 1507.49,724.465 1511.99,738.494 1516.29,751.487 1520.68,763.968 1525.49,778.536 1529.86,791.823 1533.92,803.335 
  1538.38,815.137 1543.09,827.172 1548.39,841.024 1553.42,853.848 1558.46,866.716 1563.69,879.748 1569.13,892.494 1575.04,906.44 1581.25,920.835 1587.15,935.742 
  1592.32,947.623 1597.59,959.368 1603.41,972.313 1608.9,984.516 1614.2,995.902 1619.46,1007.3 1624.49,1018.35 1629.02,1027.9 1633.52,1037.08 1637.94,1045.83 
  1642.3,1054.57 1646.38,1062.51 1650.45,1070.21 1654.39,1077.46 1658.46,1084.79 1662.55,1091.68 1666.94,1098.87 1671.63,1106.24 1676.69,1114.19 1681.42,1121.38 
  1686.46,1128.66 1691.7,1136.11 1697.58,1144.55 1702.4,1151.13 1707.67,1158.47 1712.56,1165.13 1717.27,1171.18 1722.13,1176.87 1727.61,1183.13 1733.69,1190.19 
  1739.33,1196.39 1745,1202.12 1751.37,1208.4 1758.55,1215.07 1766.56,1222.14 1775.57,1229.23 1785.43,1236.2 1793.37,1241.14 1799.23,1244.13 1803.73,1246.38 
  1807.73,1248.54 1811.86,1250.73 1815.83,1252.74 1819.62,1254.65 1823.28,1256.48 1826.95,1258.24 1830.43,1259.84 1833.69,1261.4 1836.98,1263.08 1840.5,1264.95 
  1844.19,1267.06 1848.35,1269.34 1853.03,1271.93 1857.59,1274.6 1862.72,1277.62 1868.48,1280.86 1874.85,1284.53 1882.02,1288.74 1887.67,1292.03 1892.94,1294.96 
  1898.88,1298.12 1905.37,1301.59 1911.38,1304.59 1917.79,1307.6 1924.99,1310.75 1933.1,1313.92 1942.22,1317.15 1949.68,1319.49 1955.37,1321.24 1961.29,1322.95 
  1967.09,1324.58 1972.24,1326.03 1977.48,1327.55 1983.37,1329.04 1988.46,1330.24 1992.74,1331.25 1997.02,1332.3 2001.42,1333.37 2005.94,1334.49 2010.47,1335.63 
  2015.56,1336.9 2020.93,1338.28 2026.98,1339.76 2033.79,1341.43 2041.44,1343.18 2048.96,1344.8 2055.63,1346.34 2063.12,1348.13 2070.64,1349.91 2077.19,1351.39 
  2084.01,1352.86 2090.72,1354.21 2098.28,1355.63 2106.78,1357.18 2115.55,1358.63 2125.42,1360.15 2136.51,1361.75 2149,1363.5 2163.05,1365.19 2171.24,1366.05 
  2178.19,1366.7 2183.9,1367.21 2189.16,1367.68 2194.43,1368.14 2199.51,1368.58 2204.27,1369.02 2209.62,1369.49 2214.97,1369.97 2220.98,1370.53 2227.74,1371.14 
  2235.35,1371.82 2242.8,1372.44 2251.18,1373.1 2259.26,1373.72 2268.34,1374.42 2278.56,1375.21 2285.58,1375.76 2290.88,1376.14 2296.58,1376.54 2302.84,1376.94 
  2309.6,1377.37 2316.21,1377.74 2323.64,1378.15 2332.01,1378.59 2339.24,1378.94 2347.38,1379.33 2352.76,1379.59 
  "/>
<polyline clip-path="url(#clip942)" style="stroke:#e26f46; stroke-linecap:butt; stroke-linejoin:round; stroke-width:4; stroke-opacity:1; fill:none" points="
  250.028,1386.21 250.085,1386.21 250.098,1386.21 250.113,1386.21 250.131,1386.21 250.15,1386.21 250.172,1386.21 250.196,1386.21 250.223,1386.21 250.254,1386.21 
  250.289,1386.21 250.328,1386.21 250.372,1386.21 250.422,1386.21 250.477,1386.21 250.54,1386.22 250.61,1386.22 250.69,1386.22 250.779,1386.22 250.879,1386.22 
  250.992,1386.22 251.119,1386.22 251.262,1386.22 251.422,1386.22 251.603,1386.22 251.806,1386.23 252.031,1386.23 252.273,1386.23 252.533,1386.23 252.81,1386.23 
  253.103,1386.24 253.41,1386.24 253.728,1386.24 254.056,1386.24 254.396,1386.25 254.745,1386.25 255.1,1386.25 255.462,1386.25 255.831,1386.26 256.206,1386.26 
  256.589,1386.26 256.978,1386.26 257.372,1386.27 257.774,1386.27 258.179,1386.27 258.59,1386.27 259.006,1386.28 259.427,1386.28 259.851,1386.28 260.28,1386.28 
  260.713,1386.29 261.153,1386.29 261.594,1386.29 262.04,1386.29 262.491,1386.3 262.948,1386.3 263.41,1386.3 263.874,1386.3 264.345,1386.31 264.822,1386.31 
  265.31,1386.31 265.804,1386.31 266.303,1386.32 266.804,1386.32 267.314,1386.32 267.828,1386.32 268.343,1386.32 268.861,1386.33 269.383,1386.33 269.91,1386.33 
  270.444,1386.33 270.985,1386.33 271.532,1386.34 272.084,1386.34 272.633,1386.34 273.188,1386.34 273.746,1386.34 274.307,1386.35 274.868,1386.35 275.43,1386.35 
  275.996,1386.35 276.565,1386.35 277.137,1386.36 277.71,1386.36 278.289,1386.36 278.874,1386.36 279.47,1386.36 280.072,1386.37 280.684,1386.37 281.307,1386.37 
  281.942,1386.37 282.583,1386.37 283.228,1386.37 283.882,1386.37 284.537,1386.38 285.197,1386.38 285.857,1386.38 286.524,1386.38 287.202,1386.38 287.89,1386.38 
  288.582,1386.38 289.281,1386.38 289.98,1386.39 290.678,1386.39 291.389,1386.39 292.107,1386.39 292.83,1386.39 293.558,1386.39 294.288,1386.39 295.03,1386.39 
  295.781,1386.39 296.542,1386.39 297.318,1386.39 298.106,1386.39 298.902,1386.4 299.712,1386.4 300.539,1386.4 301.384,1386.4 302.244,1386.4 303.122,1386.4 
  304.016,1386.4 304.91,1386.4 305.825,1386.39 306.749,1386.39 307.669,1386.39 308.596,1386.39 309.543,1386.39 310.51,1386.39 311.504,1386.39 312.528,1386.39 
  313.561,1386.39 314.608,1386.39 315.659,1386.39 316.741,1386.39 317.851,1386.38 318.981,1386.38 320.104,1386.38 321.255,1386.38 322.449,1386.38 323.703,1386.37 
  325.005,1386.37 326.332,1386.36 327.723,1386.36 329.159,1386.36 330.64,1386.35 332.206,1386.34 333.846,1386.34 335.535,1386.33 337.315,1386.32 339.136,1386.31 
  340.984,1386.31 342.786,1386.3 344.624,1386.29 346.454,1386.29 348.376,1386.28 350.347,1386.27 352.37,1386.26 354.331,1386.25 356.295,1386.24 358.326,1386.23 
  360.442,1386.22 362.607,1386.21 364.818,1386.2 366.957,1386.19 369.021,1386.18 371.092,1386.17 373.04,1386.16 374.921,1386.16 376.81,1386.15 378.673,1386.14 
  380.491,1386.13 382.234,1386.13 383.904,1386.12 385.53,1386.12 387.094,1386.12 388.584,1386.11 390.07,1386.11 391.582,1386.1 393.084,1386.1 394.566,1386.09 
  396.036,1386.09 397.51,1386.08 399.007,1386.08 400.472,1386.07 401.912,1386.07 403.36,1386.07 404.835,1386.06 406.302,1386.05 407.836,1386.05 409.418,1386.04 
  411.06,1386.03 412.773,1386.02 414.494,1386.01 416.275,1386 418.047,1385.99 419.943,1385.98 421.861,1385.97 423.96,1385.96 426.082,1385.94 428.223,1385.93 
  430.506,1385.91 432.756,1385.9 435.002,1385.88 437.445,1385.86 440.02,1385.84 442.76,1385.81 445.785,1385.79 448.67,1385.76 451.674,1385.73 455.053,1385.69 
  458.854,1385.64 463.131,1385.58 467.942,1385.51 473.354,1385.42 477.165,1385.35 481.453,1385.27 486.276,1385.19 489.725,1385.13 493.606,1385.06 497.971,1384.97 
  502.883,1384.87 508.408,1384.76 514.624,1384.61 521.616,1384.45 528.205,1384.29 534.522,1384.13 541.628,1383.95 549.268,1383.77 555.111,1383.64 560.592,1383.5 
  565.786,1383.35 571.628,1383.16 578.201,1382.91 585.595,1382.61 593.914,1382.27 603.272,1381.88 612.881,1381.39 623.692,1380.79 634.637,1380.12 646.95,1379.25 
  658.449,1378.26 667.743,1377.44 677.626,1376.55 688.745,1375.48 701.253,1374.06 713.682,1372.49 727.664,1370.7 740.115,1368.86 754.123,1366.87 762.605,1365.65 
  768.095,1364.64 774.272,1363.39 781.221,1361.97 789.038,1360.13 797.833,1357.74 804.58,1355.7 811.275,1353.62 818.807,1350.93 825.603,1347.94 831.215,1345.36 
  836.539,1342.92 841.937,1340.53 848.01,1337.51 854.244,1334.22 860.016,1331.08 866.51,1327.9 873.816,1323.85 882.035,1319.44 891.282,1313.91 901.684,1307.37 
  913.008,1299.14 924.011,1291.26 935.885,1282.39 948.57,1271.68 960.07,1260.85 973.008,1246.63 987.304,1229.17 1001.27,1211.17 1013.07,1197.75 1022.59,1186.33 
  1029.06,1179.21 1035.01,1171.77 1040.86,1164.2 1046.86,1156.33 1052.47,1148.35 1058.42,1141.08 1063.64,1135 1068.08,1129.61 1072.45,1124.33 1076.65,1119.8 
  1080.29,1115.59 1083.91,1111.59 1087.36,1108.2 1090.46,1105.04 1093.47,1101.45 1096.58,1097.81 1099.6,1094.05 1102.68,1090.15 1105.74,1086.22 1108.85,1082.11 
  1111.96,1078.01 1115.11,1073.39 1118.37,1067.91 1122.03,1061.32 1125.99,1054.18 1130.04,1046.75 1134.39,1039.26 1138.32,1032.43 1142.47,1024.84 1146.76,1016.51 
  1151.18,1007.62 1155.8,998.564 1160.15,989.257 1165.01,978.792 1169.98,968.957 1174.54,959.483 1179.22,949.883 1183.9,941.587 1188.01,933.534 1192.31,924.782 
  1196.65,916.78 1200.57,909.983 1204.38,903.386 1208.07,896.827 1211.79,890.982 1215.17,885.914 1218.49,881.505 1221.52,877.726 1224.43,873.536 1227.35,869.101 
  1230.25,864.198 1233.29,858.695 1236.39,852.74 1239.6,845.898 1243.04,837.793 1246.7,828.828 1250.59,819.632 1254.47,809.815 1258.47,799.751 1262.68,789.529 
  1266.76,779.574 1270.97,769.549 1275.12,759.817 1279.28,748.901 1283.52,735.95 1287.95,721.064 1292.34,705.481 1296.69,688.829 1300.82,673.55 1304.99,658.946 
  1309.23,646.386 1313.5,633.881 1317.74,620.29 1321.97,605.956 1326.09,592.018 1330.21,578.749 1334.3,564.84 1338.33,550.671 1342.3,538.458 1346.23,527.54 
  1350.18,516.06 1354.1,503.276 1357.91,490.505 1361.68,476.425 1365.3,464.103 1368.88,452.439 1372.44,442.25 1376.04,432.836 1379.64,424.28 1383.23,415.887 
  1386.81,405.847 1390.35,396.002 1393.83,386.885 1397.3,379.248 1400.79,370.129 1404.24,361.835 1407.65,353.784 1411.04,344.446 1414.34,335.084 1417.59,326.197 
  1420.79,316.575 1423.86,308.127 1426.94,299.483 1429.97,289.911 1432.87,281.812 1435.75,273.668 1438.6,265.741 1441.39,257.998 1444.16,250.937 1446.91,244.707 
  1449.69,237.561 1452.37,231.253 1455.04,224.73 1457.71,219.075 1460.34,214.774 1463.03,210.586 1465.77,205.713 1468.41,202.014 1471.14,198.809 1473.86,196.105 
  1476.63,194.392 1479.45,192.73 1482.29,190.859 1485.12,188.981 1487.96,186.907 1490.76,184.14 1493.49,181.249 1496.16,178.453 1498.79,175.579 1501.38,172.016 
  1503.89,168.953 1506.33,166.754 1508.82,164.998 1511.31,163.203 1513.75,162.067 1516.2,161.991 1518.7,163.756 1521.36,165.523 1524.03,169.085 1526.8,174.362 
  1529.69,180.459 1532.63,187.28 1535.64,195.434 1538.69,204.442 1541.75,214.586 1544.8,225.463 1547.76,235.745 1550.78,246.337 1553.82,257.605 1556.85,268.58 
  1559.88,279.796 1562.92,291.343 1565.98,303.764 1568.93,315.597 1571.93,328.137 1574.79,339.531 1577.8,351.556 1580.79,363.693 1583.74,376.202 1586.64,388.799 
  1589.45,400.64 1592.27,412.306 1595.1,423.755 1597.98,435.007 1600.98,446.636 1604.05,458.151 1607.13,469.375 1610.43,481.42 1613.72,494.316 1616.95,506.554 
  1620.16,518.196 1623.63,529.966 1627.26,540.823 1631.22,552.102 1635.31,564.084 1639.58,575.751 1643.92,588.319 1648.44,601.717 1653.1,614.745 1657.82,628.183 
  1662.7,642.012 1667.76,656.522 1672.92,670.692 1678.19,684.654 1683.48,700.803 1689.06,718.111 1694.36,733.204 1700.17,750.066 1706.09,765.779 1712.2,780.635 
  1718.13,794.954 1723.9,809.555 1730.2,827.001 1736.76,846.414 1742.7,863.749 1748.31,879.469 1753.82,895.394 1758.78,909.371 1763.68,922.9 1768.21,934.735 
  1773.1,947.156 1778.09,959.578 1782.73,970.459 1787.94,982.883 1793,995.106 1797.47,1005.42 1802.03,1015.72 1806.61,1025.68 1811.31,1035.65 1816.01,1045.29 
  1820.87,1054.97 1825.71,1064.33 1830.9,1074.27 1835.79,1083.41 1840.53,1091.99 1845.32,1100.1 1850.58,1108.46 1856.5,1117.19 1863.16,1126.39 1870.64,1137.09 
  1879.07,1148.55 1887.94,1160.69 1896.29,1171.36 1904.83,1181.68 1914.43,1193.47 1921.75,1201.85 1928.9,1209.71 1936.6,1218.03 1943.55,1224.89 1950.97,1232.02 
  1959.32,1239.83 1966.21,1246.24 1972.68,1251.65 1979.71,1257.38 1987.61,1263.62 1994.15,1268.47 2001.5,1273.65 2008.98,1278.8 2017.26,1284.41 2023.95,1288.67 
  2030.87,1292.76 2038.62,1296.82 2047.33,1301.08 2056.51,1305.42 2066.84,1310.23 2077.63,1314.7 2089.78,1319.28 2096.6,1321.82 2104.27,1324.7 2112.9,1327.78 
  2121.8,1331.1 2128.93,1333.79 2134.15,1335.61 2139.61,1337.47 2145.3,1339.37 2149.92,1340.81 2155.12,1342.38 2160.31,1343.86 2165.8,1345.43 2171.03,1346.87 
  2175.87,1348.15 2181,1349.46 2186,1350.66 2191.4,1351.86 2197.48,1353.12 2204.31,1354.43 2212,1355.76 2218.68,1356.84 2224.49,1357.7 2229.98,1358.5 
  2235.23,1359.27 2240.96,1360.12 2247.33,1361.07 2254.5,1362.13 2262.57,1363.27 2271.01,1364.39 2278.63,1365.36 2287.19,1366.35 2294.25,1367.09 2300.67,1367.7 
  2306.01,1368.22 2311.75,1368.77 2317.32,1369.3 2323.16,1369.84 2329.23,1370.41 2336.05,1371.03 2342.92,1371.64 2350.65,1372.27 2352.76,1372.45 
  "/>
<path clip-path="url(#clip940)" d="
M1773.96 322.316 L2282.66 322.316 L2282.66 166.796 L1773.96 166.796  Z
  " fill="#ffffff" fill-rule="evenodd" fill-opacity="1"/>
<polyline clip-path="url(#clip940)" style="stroke:#000000; stroke-linecap:butt; stroke-linejoin:round; stroke-width:4; stroke-opacity:1; fill:none" points="
  1773.96,322.316 2282.66,322.316 2282.66,166.796 1773.96,166.796 1773.96,322.316 
  "/>
<polyline clip-path="url(#clip940)" style="stroke:#009af9; stroke-linecap:butt; stroke-linejoin:round; stroke-width:4; stroke-opacity:1; fill:none" points="
  1797.32,218.636 1937.51,218.636 
  "/>
<path clip-path="url(#clip940)" d="M1960.87 201.356 L1990.11 201.356 L1990.11 205.291 L1977.84 205.291 L1977.84 235.916 L1973.14 235.916 L1973.14 205.291 L1960.87 205.291 L1960.87 201.356 Z" fill="#000000" fill-rule="evenodd" fill-opacity="1" /><path clip-path="url(#clip940)" d="M2002.49 213.971 Q2001.77 213.555 2000.92 213.37 Q2000.08 213.161 1999.06 213.161 Q1995.45 213.161 1993.51 215.522 Q1991.59 217.86 1991.59 222.258 L1991.59 235.916 L1987.3 235.916 L1987.3 209.99 L1991.59 209.99 L1991.59 214.018 Q1992.93 211.657 1995.08 210.522 Q1997.24 209.365 2000.31 209.365 Q2000.75 209.365 2001.29 209.434 Q2001.82 209.481 2002.47 209.596 L2002.49 213.971 Z" fill="#000000" fill-rule="evenodd" fill-opacity="1" /><path clip-path="url(#clip940)" d="M2018.74 222.883 Q2013.58 222.883 2011.59 224.064 Q2009.6 225.244 2009.6 228.092 Q2009.6 230.36 2011.08 231.703 Q2012.58 233.022 2015.15 233.022 Q2018.69 233.022 2020.82 230.522 Q2022.98 227.999 2022.98 223.832 L2022.98 222.883 L2018.74 222.883 M2027.24 221.124 L2027.24 235.916 L2022.98 235.916 L2022.98 231.981 Q2021.52 234.342 2019.34 235.476 Q2017.17 236.587 2014.02 236.587 Q2010.04 236.587 2007.68 234.365 Q2005.34 232.119 2005.34 228.369 Q2005.34 223.994 2008.25 221.772 Q2011.19 219.55 2017 219.55 L2022.98 219.55 L2022.98 219.133 Q2022.98 216.194 2021.03 214.596 Q2019.11 212.976 2015.61 212.976 Q2013.39 212.976 2011.29 213.508 Q2009.18 214.041 2007.24 215.106 L2007.24 211.17 Q2009.57 210.268 2011.77 209.828 Q2013.97 209.365 2016.05 209.365 Q2021.68 209.365 2024.46 212.282 Q2027.24 215.198 2027.24 221.124 Z" fill="#000000" fill-rule="evenodd" fill-opacity="1" /><path clip-path="url(#clip940)" d="M2036.01 209.99 L2040.27 209.99 L2040.27 236.379 Q2040.27 241.332 2038.37 243.555 Q2036.49 245.777 2032.3 245.777 L2030.68 245.777 L2030.68 242.166 L2031.82 242.166 Q2034.25 242.166 2035.13 241.031 Q2036.01 239.92 2036.01 236.379 L2036.01 209.99 M2036.01 199.897 L2040.27 199.897 L2040.27 205.291 L2036.01 205.291 L2036.01 199.897 Z" fill="#000000" fill-rule="evenodd" fill-opacity="1" /><path clip-path="url(#clip940)" d="M2071.36 221.888 L2071.36 223.971 L2051.77 223.971 Q2052.05 228.369 2054.41 230.684 Q2056.8 232.976 2061.03 232.976 Q2063.48 232.976 2065.78 232.374 Q2068.09 231.772 2070.36 230.569 L2070.36 234.596 Q2068.07 235.568 2065.66 236.078 Q2063.25 236.587 2060.78 236.587 Q2054.57 236.587 2050.94 232.976 Q2047.33 229.365 2047.33 223.207 Q2047.33 216.842 2050.75 213.115 Q2054.2 209.365 2060.04 209.365 Q2065.27 209.365 2068.3 212.745 Q2071.36 216.101 2071.36 221.888 M2067.1 220.638 Q2067.05 217.143 2065.13 215.059 Q2063.23 212.976 2060.08 212.976 Q2056.52 212.976 2054.36 214.99 Q2052.23 217.004 2051.91 220.661 L2067.1 220.638 Z" fill="#000000" fill-rule="evenodd" fill-opacity="1" /><path clip-path="url(#clip940)" d="M2097 210.985 L2097 214.967 Q2095.2 213.971 2093.37 213.485 Q2091.56 212.976 2089.71 212.976 Q2085.57 212.976 2083.28 215.615 Q2080.98 218.231 2080.98 222.976 Q2080.98 227.721 2083.28 230.36 Q2085.57 232.976 2089.71 232.976 Q2091.56 232.976 2093.37 232.49 Q2095.2 231.981 2097 230.985 L2097 234.92 Q2095.22 235.754 2093.3 236.17 Q2091.4 236.587 2089.25 236.587 Q2083.39 236.587 2079.94 232.906 Q2076.49 229.226 2076.49 222.976 Q2076.49 216.633 2079.97 212.999 Q2083.46 209.365 2089.53 209.365 Q2091.49 209.365 2093.37 209.782 Q2095.24 210.175 2097 210.985 Z" fill="#000000" fill-rule="evenodd" fill-opacity="1" /><path clip-path="url(#clip940)" d="M2108.62 202.629 L2108.62 209.99 L2117.4 209.99 L2117.4 213.3 L2108.62 213.3 L2108.62 227.374 Q2108.62 230.545 2109.48 231.448 Q2110.36 232.351 2113.02 232.351 L2117.4 232.351 L2117.4 235.916 L2113.02 235.916 Q2108.09 235.916 2106.22 234.087 Q2104.34 232.235 2104.34 227.374 L2104.34 213.3 L2101.22 213.3 L2101.22 209.99 L2104.34 209.99 L2104.34 202.629 L2108.62 202.629 Z" fill="#000000" fill-rule="evenodd" fill-opacity="1" /><path clip-path="url(#clip940)" d="M2133.04 212.976 Q2129.62 212.976 2127.63 215.661 Q2125.64 218.323 2125.64 222.976 Q2125.64 227.629 2127.6 230.314 Q2129.6 232.976 2133.04 232.976 Q2136.45 232.976 2138.44 230.291 Q2140.43 227.606 2140.43 222.976 Q2140.43 218.37 2138.44 215.684 Q2136.45 212.976 2133.04 212.976 M2133.04 209.365 Q2138.6 209.365 2141.77 212.976 Q2144.94 216.587 2144.94 222.976 Q2144.94 229.342 2141.77 232.976 Q2138.6 236.587 2133.04 236.587 Q2127.47 236.587 2124.29 232.976 Q2121.15 229.342 2121.15 222.976 Q2121.15 216.587 2124.29 212.976 Q2127.47 209.365 2133.04 209.365 Z" fill="#000000" fill-rule="evenodd" fill-opacity="1" /><path clip-path="url(#clip940)" d="M2167.03 213.971 Q2166.31 213.555 2165.45 213.37 Q2164.62 213.161 2163.6 213.161 Q2159.99 213.161 2158.04 215.522 Q2156.12 217.86 2156.12 222.258 L2156.12 235.916 L2151.84 235.916 L2151.84 209.99 L2156.12 209.99 L2156.12 214.018 Q2157.47 211.657 2159.62 210.522 Q2161.77 209.365 2164.85 209.365 Q2165.29 209.365 2165.82 209.434 Q2166.35 209.481 2167 209.596 L2167.03 213.971 Z" fill="#000000" fill-rule="evenodd" fill-opacity="1" /><path clip-path="url(#clip940)" d="M2182.28 238.323 Q2180.48 242.953 2178.76 244.365 Q2177.05 245.777 2174.18 245.777 L2170.78 245.777 L2170.78 242.212 L2173.28 242.212 Q2175.04 242.212 2176.01 241.379 Q2176.98 240.545 2178.16 237.443 L2178.92 235.499 L2168.44 209.99 L2172.95 209.99 L2181.05 230.268 L2189.16 209.99 L2193.67 209.99 L2182.28 238.323 Z" fill="#000000" fill-rule="evenodd" fill-opacity="1" /><path clip-path="url(#clip940)" d="M2216.03 231.981 L2223.67 231.981 L2223.67 205.615 L2215.36 207.282 L2215.36 203.022 L2223.62 201.356 L2228.3 201.356 L2228.3 231.981 L2235.94 231.981 L2235.94 235.916 L2216.03 235.916 L2216.03 231.981 Z" fill="#000000" fill-rule="evenodd" fill-opacity="1" /><polyline clip-path="url(#clip940)" style="stroke:#e26f46; stroke-linecap:butt; stroke-linejoin:round; stroke-width:4; stroke-opacity:1; fill:none" points="
  1797.32,270.476 1937.51,270.476 
  "/>
<path clip-path="url(#clip940)" d="M1960.87 253.196 L1990.11 253.196 L1990.11 257.131 L1977.84 257.131 L1977.84 287.756 L1973.14 287.756 L1973.14 257.131 L1960.87 257.131 L1960.87 253.196 Z" fill="#000000" fill-rule="evenodd" fill-opacity="1" /><path clip-path="url(#clip940)" d="M2002.49 265.811 Q2001.77 265.395 2000.92 265.21 Q2000.08 265.001 1999.06 265.001 Q1995.45 265.001 1993.51 267.362 Q1991.59 269.7 1991.59 274.098 L1991.59 287.756 L1987.3 287.756 L1987.3 261.83 L1991.59 261.83 L1991.59 265.858 Q1992.93 263.497 1995.08 262.362 Q1997.24 261.205 2000.31 261.205 Q2000.75 261.205 2001.29 261.274 Q2001.82 261.321 2002.47 261.436 L2002.49 265.811 Z" fill="#000000" fill-rule="evenodd" fill-opacity="1" /><path clip-path="url(#clip940)" d="M2018.74 274.723 Q2013.58 274.723 2011.59 275.904 Q2009.6 277.084 2009.6 279.932 Q2009.6 282.2 2011.08 283.543 Q2012.58 284.862 2015.15 284.862 Q2018.69 284.862 2020.82 282.362 Q2022.98 279.839 2022.98 275.672 L2022.98 274.723 L2018.74 274.723 M2027.24 272.964 L2027.24 287.756 L2022.98 287.756 L2022.98 283.821 Q2021.52 286.182 2019.34 287.316 Q2017.17 288.427 2014.02 288.427 Q2010.04 288.427 2007.68 286.205 Q2005.34 283.959 2005.34 280.209 Q2005.34 275.834 2008.25 273.612 Q2011.19 271.39 2017 271.39 L2022.98 271.39 L2022.98 270.973 Q2022.98 268.034 2021.03 266.436 Q2019.11 264.816 2015.61 264.816 Q2013.39 264.816 2011.29 265.348 Q2009.18 265.881 2007.24 266.946 L2007.24 263.01 Q2009.57 262.108 2011.77 261.668 Q2013.97 261.205 2016.05 261.205 Q2021.68 261.205 2024.46 264.122 Q2027.24 267.038 2027.24 272.964 Z" fill="#000000" fill-rule="evenodd" fill-opacity="1" /><path clip-path="url(#clip940)" d="M2036.01 261.83 L2040.27 261.83 L2040.27 288.219 Q2040.27 293.172 2038.37 295.395 Q2036.49 297.617 2032.3 297.617 L2030.68 297.617 L2030.68 294.006 L2031.82 294.006 Q2034.25 294.006 2035.13 292.871 Q2036.01 291.76 2036.01 288.219 L2036.01 261.83 M2036.01 251.737 L2040.27 251.737 L2040.27 257.131 L2036.01 257.131 L2036.01 251.737 Z" fill="#000000" fill-rule="evenodd" fill-opacity="1" /><path clip-path="url(#clip940)" d="M2071.36 273.728 L2071.36 275.811 L2051.77 275.811 Q2052.05 280.209 2054.41 282.524 Q2056.8 284.816 2061.03 284.816 Q2063.48 284.816 2065.78 284.214 Q2068.09 283.612 2070.36 282.409 L2070.36 286.436 Q2068.07 287.408 2065.66 287.918 Q2063.25 288.427 2060.78 288.427 Q2054.57 288.427 2050.94 284.816 Q2047.33 281.205 2047.33 275.047 Q2047.33 268.682 2050.75 264.955 Q2054.2 261.205 2060.04 261.205 Q2065.27 261.205 2068.3 264.585 Q2071.36 267.941 2071.36 273.728 M2067.1 272.478 Q2067.05 268.983 2065.13 266.899 Q2063.23 264.816 2060.08 264.816 Q2056.52 264.816 2054.36 266.83 Q2052.23 268.844 2051.91 272.501 L2067.1 272.478 Z" fill="#000000" fill-rule="evenodd" fill-opacity="1" /><path clip-path="url(#clip940)" d="M2097 262.825 L2097 266.807 Q2095.2 265.811 2093.37 265.325 Q2091.56 264.816 2089.71 264.816 Q2085.57 264.816 2083.28 267.455 Q2080.98 270.071 2080.98 274.816 Q2080.98 279.561 2083.28 282.2 Q2085.57 284.816 2089.71 284.816 Q2091.56 284.816 2093.37 284.33 Q2095.2 283.821 2097 282.825 L2097 286.76 Q2095.22 287.594 2093.3 288.01 Q2091.4 288.427 2089.25 288.427 Q2083.39 288.427 2079.94 284.746 Q2076.49 281.066 2076.49 274.816 Q2076.49 268.473 2079.97 264.839 Q2083.46 261.205 2089.53 261.205 Q2091.49 261.205 2093.37 261.622 Q2095.24 262.015 2097 262.825 Z" fill="#000000" fill-rule="evenodd" fill-opacity="1" /><path clip-path="url(#clip940)" d="M2108.62 254.469 L2108.62 261.83 L2117.4 261.83 L2117.4 265.14 L2108.62 265.14 L2108.62 279.214 Q2108.62 282.385 2109.48 283.288 Q2110.36 284.191 2113.02 284.191 L2117.4 284.191 L2117.4 287.756 L2113.02 287.756 Q2108.09 287.756 2106.22 285.927 Q2104.34 284.075 2104.34 279.214 L2104.34 265.14 L2101.22 265.14 L2101.22 261.83 L2104.34 261.83 L2104.34 254.469 L2108.62 254.469 Z" fill="#000000" fill-rule="evenodd" fill-opacity="1" /><path clip-path="url(#clip940)" d="M2133.04 264.816 Q2129.62 264.816 2127.63 267.501 Q2125.64 270.163 2125.64 274.816 Q2125.64 279.469 2127.6 282.154 Q2129.6 284.816 2133.04 284.816 Q2136.45 284.816 2138.44 282.131 Q2140.43 279.446 2140.43 274.816 Q2140.43 270.21 2138.44 267.524 Q2136.45 264.816 2133.04 264.816 M2133.04 261.205 Q2138.6 261.205 2141.77 264.816 Q2144.94 268.427 2144.94 274.816 Q2144.94 281.182 2141.77 284.816 Q2138.6 288.427 2133.04 288.427 Q2127.47 288.427 2124.29 284.816 Q2121.15 281.182 2121.15 274.816 Q2121.15 268.427 2124.29 264.816 Q2127.47 261.205 2133.04 261.205 Z" fill="#000000" fill-rule="evenodd" fill-opacity="1" /><path clip-path="url(#clip940)" d="M2167.03 265.811 Q2166.31 265.395 2165.45 265.21 Q2164.62 265.001 2163.6 265.001 Q2159.99 265.001 2158.04 267.362 Q2156.12 269.7 2156.12 274.098 L2156.12 287.756 L2151.84 287.756 L2151.84 261.83 L2156.12 261.83 L2156.12 265.858 Q2157.47 263.497 2159.62 262.362 Q2161.77 261.205 2164.85 261.205 Q2165.29 261.205 2165.82 261.274 Q2166.35 261.321 2167 261.436 L2167.03 265.811 Z" fill="#000000" fill-rule="evenodd" fill-opacity="1" /><path clip-path="url(#clip940)" d="M2182.28 290.163 Q2180.48 294.793 2178.76 296.205 Q2177.05 297.617 2174.18 297.617 L2170.78 297.617 L2170.78 294.052 L2173.28 294.052 Q2175.04 294.052 2176.01 293.219 Q2176.98 292.385 2178.16 289.283 L2178.92 287.339 L2168.44 261.83 L2172.95 261.83 L2181.05 282.108 L2189.16 261.83 L2193.67 261.83 L2182.28 290.163 Z" fill="#000000" fill-rule="evenodd" fill-opacity="1" /><path clip-path="url(#clip940)" d="M2219.25 283.821 L2235.57 283.821 L2235.57 287.756 L2213.62 287.756 L2213.62 283.821 Q2216.29 281.066 2220.87 276.436 Q2225.47 271.784 2226.66 270.441 Q2228.9 267.918 2229.78 266.182 Q2230.68 264.423 2230.68 262.733 Q2230.68 259.978 2228.74 258.242 Q2226.82 256.506 2223.72 256.506 Q2221.52 256.506 2219.06 257.27 Q2216.63 258.034 2213.85 259.585 L2213.85 254.862 Q2216.68 253.728 2219.13 253.149 Q2221.59 252.571 2223.62 252.571 Q2228.99 252.571 2232.19 255.256 Q2235.38 257.941 2235.38 262.432 Q2235.38 264.561 2234.57 266.483 Q2233.78 268.381 2231.68 270.973 Q2231.1 271.645 2228 274.862 Q2224.9 278.057 2219.25 283.821 Z" fill="#000000" fill-rule="evenodd" fill-opacity="1" /></svg>
