<?xml version="1.0" encoding="utf-8"?>
<svg xmlns="http://www.w3.org/2000/svg" xmlns:xlink="http://www.w3.org/1999/xlink" width="600" height="400" viewBox="0 0 2400 1600">
<defs>
  <clipPath id="clip490">
    <rect x="0" y="0" width="2400" height="1600"/>
  </clipPath>
</defs>
<path clip-path="url(#clip490)" d="
M0 1600 L2400 1600 L2400 0 L0 0  Z
  " fill="#ffffff" fill-rule="evenodd" fill-opacity="1"/>
<defs>
  <clipPath id="clip491">
    <rect x="480" y="0" width="1681" height="1600"/>
  </clipPath>
</defs>
<path clip-path="url(#clip490)" d="
M279.704 1423.18 L2352.76 1423.18 L2352.76 123.472 L279.704 123.472  Z
  " fill="#ffffff" fill-rule="evenodd" fill-opacity="1"/>
<defs>
  <clipPath id="clip492">
    <rect x="279" y="123" width="2074" height="1301"/>
  </clipPath>
</defs>
<polyline clip-path="url(#clip492)" style="stroke:#000000; stroke-linecap:butt; stroke-linejoin:round; stroke-width:2; stroke-opacity:0.1; fill:none" points="
  338.375,1423.18 338.375,123.472 
  "/>
<polyline clip-path="url(#clip492)" style="stroke:#000000; stroke-linecap:butt; stroke-linejoin:round; stroke-width:2; stroke-opacity:0.1; fill:none" points="
  693.959,1423.18 693.959,123.472 
  "/>
<polyline clip-path="url(#clip492)" style="stroke:#000000; stroke-linecap:butt; stroke-linejoin:round; stroke-width:2; stroke-opacity:0.1; fill:none" points="
  1049.54,1423.18 1049.54,123.472 
  "/>
<polyline clip-path="url(#clip492)" style="stroke:#000000; stroke-linecap:butt; stroke-linejoin:round; stroke-width:2; stroke-opacity:0.1; fill:none" points="
  1405.13,1423.18 1405.13,123.472 
  "/>
<polyline clip-path="url(#clip492)" style="stroke:#000000; stroke-linecap:butt; stroke-linejoin:round; stroke-width:2; stroke-opacity:0.1; fill:none" points="
  1760.71,1423.18 1760.71,123.472 
  "/>
<polyline clip-path="url(#clip492)" style="stroke:#000000; stroke-linecap:butt; stroke-linejoin:round; stroke-width:2; stroke-opacity:0.1; fill:none" points="
  2116.29,1423.18 2116.29,123.472 
  "/>
<polyline clip-path="url(#clip490)" style="stroke:#000000; stroke-linecap:butt; stroke-linejoin:round; stroke-width:4; stroke-opacity:1; fill:none" points="
  279.704,1423.18 2352.76,1423.18 
  "/>
<polyline clip-path="url(#clip490)" style="stroke:#000000; stroke-linecap:butt; stroke-linejoin:round; stroke-width:4; stroke-opacity:1; fill:none" points="
  338.375,1423.18 338.375,1404.28 
  "/>
<polyline clip-path="url(#clip490)" style="stroke:#000000; stroke-linecap:butt; stroke-linejoin:round; stroke-width:4; stroke-opacity:1; fill:none" points="
  693.959,1423.18 693.959,1404.28 
  "/>
<polyline clip-path="url(#clip490)" style="stroke:#000000; stroke-linecap:butt; stroke-linejoin:round; stroke-width:4; stroke-opacity:1; fill:none" points="
  1049.54,1423.18 1049.54,1404.28 
  "/>
<polyline clip-path="url(#clip490)" style="stroke:#000000; stroke-linecap:butt; stroke-linejoin:round; stroke-width:4; stroke-opacity:1; fill:none" points="
  1405.13,1423.18 1405.13,1404.28 
  "/>
<polyline clip-path="url(#clip490)" style="stroke:#000000; stroke-linecap:butt; stroke-linejoin:round; stroke-width:4; stroke-opacity:1; fill:none" points="
  1760.71,1423.18 1760.71,1404.28 
  "/>
<polyline clip-path="url(#clip490)" style="stroke:#000000; stroke-linecap:butt; stroke-linejoin:round; stroke-width:4; stroke-opacity:1; fill:none" points="
  2116.29,1423.18 2116.29,1404.28 
  "/>
<path clip-path="url(#clip490)" d="M338.375 1452.37 Q334.764 1452.37 332.935 1455.94 Q331.13 1459.48 331.13 1466.61 Q331.13 1473.71 332.935 1477.28 Q334.764 1480.82 338.375 1480.82 Q342.009 1480.82 343.815 1477.28 Q345.644 1473.71 345.644 1466.61 Q345.644 1459.48 343.815 1455.94 Q342.009 1452.37 338.375 1452.37 M338.375 1448.67 Q344.185 1448.67 347.241 1453.27 Q350.32 1457.86 350.32 1466.61 Q350.32 1475.33 347.241 1479.94 Q344.185 1484.52 338.375 1484.52 Q332.565 1484.52 329.486 1479.94 Q326.431 1475.33 326.431 1466.61 Q326.431 1457.86 329.486 1453.27 Q332.565 1448.67 338.375 1448.67 Z" fill="#000000" fill-rule="evenodd" fill-opacity="1" /><path clip-path="url(#clip490)" d="M653.565 1479.92 L661.204 1479.92 L661.204 1453.55 L652.894 1455.22 L652.894 1450.96 L661.158 1449.29 L665.834 1449.29 L665.834 1479.92 L673.473 1479.92 L673.473 1483.85 L653.565 1483.85 L653.565 1479.92 Z" fill="#000000" fill-rule="evenodd" fill-opacity="1" /><path clip-path="url(#clip490)" d="M692.917 1452.37 Q689.306 1452.37 687.477 1455.94 Q685.672 1459.48 685.672 1466.61 Q685.672 1473.71 687.477 1477.28 Q689.306 1480.82 692.917 1480.82 Q696.551 1480.82 698.357 1477.28 Q700.186 1473.71 700.186 1466.61 Q700.186 1459.48 698.357 1455.94 Q696.551 1452.37 692.917 1452.37 M692.917 1448.67 Q698.727 1448.67 701.783 1453.27 Q704.861 1457.86 704.861 1466.61 Q704.861 1475.33 701.783 1479.94 Q698.727 1484.52 692.917 1484.52 Q687.107 1484.52 684.028 1479.94 Q680.973 1475.33 680.973 1466.61 Q680.973 1457.86 684.028 1453.27 Q687.107 1448.67 692.917 1448.67 Z" fill="#000000" fill-rule="evenodd" fill-opacity="1" /><path clip-path="url(#clip490)" d="M723.079 1452.37 Q719.468 1452.37 717.639 1455.94 Q715.834 1459.48 715.834 1466.61 Q715.834 1473.71 717.639 1477.28 Q719.468 1480.82 723.079 1480.82 Q726.713 1480.82 728.519 1477.28 Q730.347 1473.71 730.347 1466.61 Q730.347 1459.48 728.519 1455.94 Q726.713 1452.37 723.079 1452.37 M723.079 1448.67 Q728.889 1448.67 731.945 1453.27 Q735.023 1457.86 735.023 1466.61 Q735.023 1475.33 731.945 1479.94 Q728.889 1484.52 723.079 1484.52 Q717.269 1484.52 714.19 1479.94 Q711.135 1475.33 711.135 1466.61 Q711.135 1457.86 714.19 1453.27 Q717.269 1448.67 723.079 1448.67 Z" fill="#000000" fill-rule="evenodd" fill-opacity="1" /><path clip-path="url(#clip490)" d="M1013.23 1479.92 L1029.55 1479.92 L1029.55 1483.85 L1007.61 1483.85 L1007.61 1479.92 Q1010.27 1477.16 1014.85 1472.53 Q1019.46 1467.88 1020.64 1466.54 Q1022.89 1464.01 1023.77 1462.28 Q1024.67 1460.52 1024.67 1458.83 Q1024.67 1456.07 1022.73 1454.34 Q1020.8 1452.6 1017.7 1452.6 Q1015.5 1452.6 1013.05 1453.37 Q1010.62 1454.13 1007.84 1455.68 L1007.84 1450.96 Q1010.67 1449.82 1013.12 1449.25 Q1015.57 1448.67 1017.61 1448.67 Q1022.98 1448.67 1026.17 1451.35 Q1029.37 1454.04 1029.37 1458.53 Q1029.37 1460.66 1028.56 1462.58 Q1027.77 1464.48 1025.67 1467.07 Q1025.09 1467.74 1021.98 1470.96 Q1018.88 1474.15 1013.23 1479.92 Z" fill="#000000" fill-rule="evenodd" fill-opacity="1" /><path clip-path="url(#clip490)" d="M1049.37 1452.37 Q1045.76 1452.37 1043.93 1455.94 Q1042.12 1459.48 1042.12 1466.61 Q1042.12 1473.71 1043.93 1477.28 Q1045.76 1480.82 1049.37 1480.82 Q1053 1480.82 1054.81 1477.28 Q1056.64 1473.71 1056.64 1466.61 Q1056.64 1459.48 1054.81 1455.94 Q1053 1452.37 1049.37 1452.37 M1049.37 1448.67 Q1055.18 1448.67 1058.23 1453.27 Q1061.31 1457.86 1061.31 1466.61 Q1061.31 1475.33 1058.23 1479.94 Q1055.18 1484.52 1049.37 1484.52 Q1043.56 1484.52 1040.48 1479.94 Q1037.42 1475.33 1037.42 1466.61 Q1037.42 1457.86 1040.48 1453.27 Q1043.56 1448.67 1049.37 1448.67 Z" fill="#000000" fill-rule="evenodd" fill-opacity="1" /><path clip-path="url(#clip490)" d="M1079.53 1452.37 Q1075.92 1452.37 1074.09 1455.94 Q1072.29 1459.48 1072.29 1466.61 Q1072.29 1473.71 1074.09 1477.28 Q1075.92 1480.82 1079.53 1480.82 Q1083.16 1480.82 1084.97 1477.28 Q1086.8 1473.71 1086.8 1466.61 Q1086.8 1459.48 1084.97 1455.94 Q1083.16 1452.37 1079.53 1452.37 M1079.53 1448.67 Q1085.34 1448.67 1088.4 1453.27 Q1091.47 1457.86 1091.47 1466.61 Q1091.47 1475.33 1088.4 1479.94 Q1085.34 1484.52 1079.53 1484.52 Q1073.72 1484.52 1070.64 1479.94 Q1067.59 1475.33 1067.59 1466.61 Q1067.59 1457.86 1070.64 1453.27 Q1073.72 1448.67 1079.53 1448.67 Z" fill="#000000" fill-rule="evenodd" fill-opacity="1" /><path clip-path="url(#clip490)" d="M1378.89 1465.22 Q1382.24 1465.94 1384.12 1468.2 Q1386.02 1470.47 1386.02 1473.81 Q1386.02 1478.92 1382.5 1481.72 Q1378.98 1484.52 1372.5 1484.52 Q1370.32 1484.52 1368.01 1484.08 Q1365.72 1483.67 1363.26 1482.81 L1363.26 1478.3 Q1365.21 1479.43 1367.52 1480.01 Q1369.84 1480.59 1372.36 1480.59 Q1376.76 1480.59 1379.05 1478.85 Q1381.36 1477.12 1381.36 1473.81 Q1381.36 1470.75 1379.21 1469.04 Q1377.08 1467.3 1373.26 1467.3 L1369.23 1467.3 L1369.23 1463.46 L1373.45 1463.46 Q1376.9 1463.46 1378.73 1462.09 Q1380.55 1460.7 1380.55 1458.11 Q1380.55 1455.45 1378.66 1454.04 Q1376.78 1452.6 1373.26 1452.6 Q1371.34 1452.6 1369.14 1453.02 Q1366.94 1453.44 1364.3 1454.31 L1364.3 1450.15 Q1366.97 1449.41 1369.28 1449.04 Q1371.62 1448.67 1373.68 1448.67 Q1379 1448.67 1382.11 1451.1 Q1385.21 1453.5 1385.21 1457.63 Q1385.21 1460.5 1383.56 1462.49 Q1381.92 1464.45 1378.89 1465.22 Z" fill="#000000" fill-rule="evenodd" fill-opacity="1" /><path clip-path="url(#clip490)" d="M1404.88 1452.37 Q1401.27 1452.37 1399.44 1455.94 Q1397.64 1459.48 1397.64 1466.61 Q1397.64 1473.71 1399.44 1477.28 Q1401.27 1480.82 1404.88 1480.82 Q1408.52 1480.82 1410.32 1477.28 Q1412.15 1473.71 1412.15 1466.61 Q1412.15 1459.48 1410.32 1455.94 Q1408.52 1452.37 1404.88 1452.37 M1404.88 1448.67 Q1410.69 1448.67 1413.75 1453.27 Q1416.83 1457.86 1416.83 1466.61 Q1416.83 1475.33 1413.75 1479.94 Q1410.69 1484.52 1404.88 1484.52 Q1399.07 1484.52 1395.99 1479.94 Q1392.94 1475.33 1392.94 1466.61 Q1392.94 1457.86 1395.99 1453.27 Q1399.07 1448.67 1404.88 1448.67 Z" fill="#000000" fill-rule="evenodd" fill-opacity="1" /><path clip-path="url(#clip490)" d="M1435.04 1452.37 Q1431.43 1452.37 1429.6 1455.94 Q1427.8 1459.48 1427.8 1466.61 Q1427.8 1473.71 1429.6 1477.28 Q1431.43 1480.82 1435.04 1480.82 Q1438.68 1480.82 1440.48 1477.28 Q1442.31 1473.71 1442.31 1466.61 Q1442.31 1459.48 1440.48 1455.94 Q1438.68 1452.37 1435.04 1452.37 M1435.04 1448.67 Q1440.85 1448.67 1443.91 1453.27 Q1446.99 1457.86 1446.99 1466.61 Q1446.99 1475.33 1443.91 1479.94 Q1440.85 1484.52 1435.04 1484.52 Q1429.23 1484.52 1426.16 1479.94 Q1423.1 1475.33 1423.1 1466.61 Q1423.1 1457.86 1426.16 1453.27 Q1429.23 1448.67 1435.04 1448.67 Z" fill="#000000" fill-rule="evenodd" fill-opacity="1" /><path clip-path="url(#clip490)" d="M1733.8 1453.37 L1721.99 1471.81 L1733.8 1471.81 L1733.8 1453.37 M1732.57 1449.29 L1738.45 1449.29 L1738.45 1471.81 L1743.38 1471.81 L1743.38 1475.7 L1738.45 1475.7 L1738.45 1483.85 L1733.8 1483.85 L1733.8 1475.7 L1718.2 1475.7 L1718.2 1471.19 L1732.57 1449.29 Z" fill="#000000" fill-rule="evenodd" fill-opacity="1" /><path clip-path="url(#clip490)" d="M1761.11 1452.37 Q1757.5 1452.37 1755.67 1455.94 Q1753.87 1459.48 1753.87 1466.61 Q1753.87 1473.71 1755.67 1477.28 Q1757.5 1480.82 1761.11 1480.82 Q1764.75 1480.82 1766.55 1477.28 Q1768.38 1473.71 1768.38 1466.61 Q1768.38 1459.48 1766.55 1455.94 Q1764.75 1452.37 1761.11 1452.37 M1761.11 1448.67 Q1766.92 1448.67 1769.98 1453.27 Q1773.06 1457.86 1773.06 1466.61 Q1773.06 1475.33 1769.98 1479.94 Q1766.92 1484.52 1761.11 1484.52 Q1755.3 1484.52 1752.23 1479.94 Q1749.17 1475.33 1749.17 1466.61 Q1749.17 1457.86 1752.23 1453.27 Q1755.3 1448.67 1761.11 1448.67 Z" fill="#000000" fill-rule="evenodd" fill-opacity="1" /><path clip-path="url(#clip490)" d="M1791.28 1452.37 Q1787.67 1452.37 1785.84 1455.94 Q1784.03 1459.48 1784.03 1466.61 Q1784.03 1473.71 1785.84 1477.28 Q1787.67 1480.82 1791.28 1480.82 Q1794.91 1480.82 1796.72 1477.28 Q1798.54 1473.71 1798.54 1466.61 Q1798.54 1459.48 1796.72 1455.94 Q1794.91 1452.37 1791.28 1452.37 M1791.28 1448.67 Q1797.09 1448.67 1800.14 1453.27 Q1803.22 1457.86 1803.22 1466.61 Q1803.22 1475.33 1800.14 1479.94 Q1797.09 1484.52 1791.28 1484.52 Q1785.47 1484.52 1782.39 1479.94 Q1779.33 1475.33 1779.33 1466.61 Q1779.33 1457.86 1782.39 1453.27 Q1785.47 1448.67 1791.28 1448.67 Z" fill="#000000" fill-rule="evenodd" fill-opacity="1" /><path clip-path="url(#clip490)" d="M2075.91 1449.29 L2094.27 1449.29 L2094.27 1453.23 L2080.19 1453.23 L2080.19 1461.7 Q2081.21 1461.35 2082.23 1461.19 Q2083.25 1461 2084.27 1461 Q2090.05 1461 2093.43 1464.18 Q2096.81 1467.35 2096.81 1472.76 Q2096.81 1478.34 2093.34 1481.44 Q2089.87 1484.52 2083.55 1484.52 Q2081.37 1484.52 2079.11 1484.15 Q2076.86 1483.78 2074.45 1483.04 L2074.45 1478.34 Q2076.54 1479.48 2078.76 1480.03 Q2080.98 1480.59 2083.46 1480.59 Q2087.46 1480.59 2089.8 1478.48 Q2092.14 1476.38 2092.14 1472.76 Q2092.14 1469.15 2089.8 1467.05 Q2087.46 1464.94 2083.46 1464.94 Q2081.58 1464.94 2079.71 1465.36 Q2077.86 1465.77 2075.91 1466.65 L2075.91 1449.29 Z" fill="#000000" fill-rule="evenodd" fill-opacity="1" /><path clip-path="url(#clip490)" d="M2116.03 1452.37 Q2112.42 1452.37 2110.59 1455.94 Q2108.78 1459.48 2108.78 1466.61 Q2108.78 1473.71 2110.59 1477.28 Q2112.42 1480.82 2116.03 1480.82 Q2119.66 1480.82 2121.47 1477.28 Q2123.3 1473.71 2123.3 1466.61 Q2123.3 1459.48 2121.47 1455.94 Q2119.66 1452.37 2116.03 1452.37 M2116.03 1448.67 Q2121.84 1448.67 2124.89 1453.27 Q2127.97 1457.86 2127.97 1466.61 Q2127.97 1475.33 2124.89 1479.94 Q2121.84 1484.52 2116.03 1484.52 Q2110.22 1484.52 2107.14 1479.94 Q2104.08 1475.33 2104.08 1466.61 Q2104.08 1457.86 2107.14 1453.27 Q2110.22 1448.67 2116.03 1448.67 Z" fill="#000000" fill-rule="evenodd" fill-opacity="1" /><path clip-path="url(#clip490)" d="M2146.19 1452.37 Q2142.58 1452.37 2140.75 1455.94 Q2138.94 1459.48 2138.94 1466.61 Q2138.94 1473.71 2140.75 1477.28 Q2142.58 1480.82 2146.19 1480.82 Q2149.82 1480.82 2151.63 1477.28 Q2153.46 1473.71 2153.46 1466.61 Q2153.46 1459.48 2151.63 1455.94 Q2149.82 1452.37 2146.19 1452.37 M2146.19 1448.67 Q2152 1448.67 2155.05 1453.27 Q2158.13 1457.86 2158.13 1466.61 Q2158.13 1475.33 2155.05 1479.94 Q2152 1484.52 2146.19 1484.52 Q2140.38 1484.52 2137.3 1479.94 Q2134.24 1475.33 2134.24 1466.61 Q2134.24 1457.86 2137.3 1453.27 Q2140.38 1448.67 2146.19 1448.67 Z" fill="#000000" fill-rule="evenodd" fill-opacity="1" /><path clip-path="url(#clip490)" d="M1315.29 1522.27 L1315.29 1532.4 L1327.35 1532.4 L1327.35 1536.95 L1315.29 1536.95 L1315.29 1556.3 Q1315.29 1560.66 1316.47 1561.9 Q1317.68 1563.14 1321.34 1563.14 L1327.35 1563.14 L1327.35 1568.04 L1321.34 1568.04 Q1314.56 1568.04 1311.98 1565.53 Q1309.4 1562.98 1309.4 1556.3 L1309.4 1536.95 L1305.11 1536.95 L1305.11 1532.4 L1309.4 1532.4 L1309.4 1522.27 L1315.29 1522.27 Z" fill="#000000" fill-rule="evenodd" fill-opacity="1" /><polyline clip-path="url(#clip492)" style="stroke:#000000; stroke-linecap:butt; stroke-linejoin:round; stroke-width:2; stroke-opacity:0.1; fill:none" points="
  279.704,1387.11 2352.76,1387.11 
  "/>
<polyline clip-path="url(#clip492)" style="stroke:#000000; stroke-linecap:butt; stroke-linejoin:round; stroke-width:2; stroke-opacity:0.1; fill:none" points="
  279.704,1098.54 2352.76,1098.54 
  "/>
<polyline clip-path="url(#clip492)" style="stroke:#000000; stroke-linecap:butt; stroke-linejoin:round; stroke-width:2; stroke-opacity:0.1; fill:none" points="
  279.704,809.972 2352.76,809.972 
  "/>
<polyline clip-path="url(#clip492)" style="stroke:#000000; stroke-linecap:butt; stroke-linejoin:round; stroke-width:2; stroke-opacity:0.1; fill:none" points="
  279.704,521.402 2352.76,521.402 
  "/>
<polyline clip-path="url(#clip492)" style="stroke:#000000; stroke-linecap:butt; stroke-linejoin:round; stroke-width:2; stroke-opacity:0.1; fill:none" points="
  279.704,232.832 2352.76,232.832 
  "/>
<polyline clip-path="url(#clip490)" style="stroke:#000000; stroke-linecap:butt; stroke-linejoin:round; stroke-width:4; stroke-opacity:1; fill:none" points="
  279.704,1423.18 279.704,123.472 
  "/>
<polyline clip-path="url(#clip490)" style="stroke:#000000; stroke-linecap:butt; stroke-linejoin:round; stroke-width:4; stroke-opacity:1; fill:none" points="
  279.704,1387.11 298.602,1387.11 
  "/>
<polyline clip-path="url(#clip490)" style="stroke:#000000; stroke-linecap:butt; stroke-linejoin:round; stroke-width:4; stroke-opacity:1; fill:none" points="
  279.704,1098.54 298.602,1098.54 
  "/>
<polyline clip-path="url(#clip490)" style="stroke:#000000; stroke-linecap:butt; stroke-linejoin:round; stroke-width:4; stroke-opacity:1; fill:none" points="
  279.704,809.972 298.602,809.972 
  "/>
<polyline clip-path="url(#clip490)" style="stroke:#000000; stroke-linecap:butt; stroke-linejoin:round; stroke-width:4; stroke-opacity:1; fill:none" points="
  279.704,521.402 298.602,521.402 
  "/>
<polyline clip-path="url(#clip490)" style="stroke:#000000; stroke-linecap:butt; stroke-linejoin:round; stroke-width:4; stroke-opacity:1; fill:none" points="
  279.704,232.832 298.602,232.832 
  "/>
<path clip-path="url(#clip490)" d="M126.205 1372.91 Q122.593 1372.91 120.765 1376.48 Q118.959 1380.02 118.959 1387.15 Q118.959 1394.25 120.765 1397.82 Q122.593 1401.36 126.205 1401.36 Q129.839 1401.36 131.644 1397.82 Q133.473 1394.25 133.473 1387.15 Q133.473 1380.02 131.644 1376.48 Q129.839 1372.91 126.205 1372.91 M126.205 1369.21 Q132.015 1369.21 135.07 1373.81 Q138.149 1378.4 138.149 1387.15 Q138.149 1395.87 135.07 1400.48 Q132.015 1405.06 126.205 1405.06 Q120.394 1405.06 117.316 1400.48 Q114.26 1395.87 114.26 1387.15 Q114.26 1378.4 117.316 1373.81 Q120.394 1369.21 126.205 1369.21 Z" fill="#000000" fill-rule="evenodd" fill-opacity="1" /><path clip-path="url(#clip490)" d="M146.366 1398.51 L151.251 1398.51 L151.251 1404.39 L146.366 1404.39 L146.366 1398.51 Z" fill="#000000" fill-rule="evenodd" fill-opacity="1" /><path clip-path="url(#clip490)" d="M171.436 1372.91 Q167.825 1372.91 165.996 1376.48 Q164.19 1380.02 164.19 1387.15 Q164.19 1394.25 165.996 1397.82 Q167.825 1401.36 171.436 1401.36 Q175.07 1401.36 176.876 1397.82 Q178.704 1394.25 178.704 1387.15 Q178.704 1380.02 176.876 1376.48 Q175.07 1372.91 171.436 1372.91 M171.436 1369.21 Q177.246 1369.21 180.301 1373.81 Q183.38 1378.4 183.38 1387.15 Q183.38 1395.87 180.301 1400.48 Q177.246 1405.06 171.436 1405.06 Q165.626 1405.06 162.547 1400.48 Q159.491 1395.87 159.491 1387.15 Q159.491 1378.4 162.547 1373.81 Q165.626 1369.21 171.436 1369.21 Z" fill="#000000" fill-rule="evenodd" fill-opacity="1" /><path clip-path="url(#clip490)" d="M201.598 1372.91 Q197.987 1372.91 196.158 1376.48 Q194.352 1380.02 194.352 1387.15 Q194.352 1394.25 196.158 1397.82 Q197.987 1401.36 201.598 1401.36 Q205.232 1401.36 207.037 1397.82 Q208.866 1394.25 208.866 1387.15 Q208.866 1380.02 207.037 1376.48 Q205.232 1372.91 201.598 1372.91 M201.598 1369.21 Q207.408 1369.21 210.463 1373.81 Q213.542 1378.4 213.542 1387.15 Q213.542 1395.87 210.463 1400.48 Q207.408 1405.06 201.598 1405.06 Q195.787 1405.06 192.709 1400.48 Q189.653 1395.87 189.653 1387.15 Q189.653 1378.4 192.709 1373.81 Q195.787 1369.21 201.598 1369.21 Z" fill="#000000" fill-rule="evenodd" fill-opacity="1" /><path clip-path="url(#clip490)" d="M231.76 1372.91 Q228.148 1372.91 226.32 1376.48 Q224.514 1380.02 224.514 1387.15 Q224.514 1394.25 226.32 1397.82 Q228.148 1401.36 231.76 1401.36 Q235.394 1401.36 237.199 1397.82 Q239.028 1394.25 239.028 1387.15 Q239.028 1380.02 237.199 1376.48 Q235.394 1372.91 231.76 1372.91 M231.76 1369.21 Q237.57 1369.21 240.625 1373.81 Q243.704 1378.4 243.704 1387.15 Q243.704 1395.87 240.625 1400.48 Q237.57 1405.06 231.76 1405.06 Q225.949 1405.06 222.871 1400.48 Q219.815 1395.87 219.815 1387.15 Q219.815 1378.4 222.871 1373.81 Q225.949 1369.21 231.76 1369.21 Z" fill="#000000" fill-rule="evenodd" fill-opacity="1" /><path clip-path="url(#clip490)" d="M127.2 1084.34 Q123.589 1084.34 121.76 1087.91 Q119.955 1091.45 119.955 1098.58 Q119.955 1105.68 121.76 1109.25 Q123.589 1112.79 127.2 1112.79 Q130.834 1112.79 132.64 1109.25 Q134.468 1105.68 134.468 1098.58 Q134.468 1091.45 132.64 1087.91 Q130.834 1084.34 127.2 1084.34 M127.2 1080.64 Q133.01 1080.64 136.066 1085.24 Q139.144 1089.83 139.144 1098.58 Q139.144 1107.3 136.066 1111.91 Q133.01 1116.49 127.2 1116.49 Q121.39 1116.49 118.311 1111.91 Q115.256 1107.3 115.256 1098.58 Q115.256 1089.83 118.311 1085.24 Q121.39 1080.64 127.2 1080.64 Z" fill="#000000" fill-rule="evenodd" fill-opacity="1" /><path clip-path="url(#clip490)" d="M147.362 1109.94 L152.246 1109.94 L152.246 1115.82 L147.362 1115.82 L147.362 1109.94 Z" fill="#000000" fill-rule="evenodd" fill-opacity="1" /><path clip-path="url(#clip490)" d="M172.431 1084.34 Q168.82 1084.34 166.991 1087.91 Q165.186 1091.45 165.186 1098.58 Q165.186 1105.68 166.991 1109.25 Q168.82 1112.79 172.431 1112.79 Q176.065 1112.79 177.871 1109.25 Q179.7 1105.68 179.7 1098.58 Q179.7 1091.45 177.871 1087.91 Q176.065 1084.34 172.431 1084.34 M172.431 1080.64 Q178.241 1080.64 181.297 1085.24 Q184.376 1089.83 184.376 1098.58 Q184.376 1107.3 181.297 1111.91 Q178.241 1116.49 172.431 1116.49 Q166.621 1116.49 163.542 1111.91 Q160.487 1107.3 160.487 1098.58 Q160.487 1089.83 163.542 1085.24 Q166.621 1080.64 172.431 1080.64 Z" fill="#000000" fill-rule="evenodd" fill-opacity="1" /><path clip-path="url(#clip490)" d="M196.621 1111.89 L212.94 1111.89 L212.94 1115.82 L190.996 1115.82 L190.996 1111.89 Q193.658 1109.13 198.241 1104.5 Q202.848 1099.85 204.028 1098.51 Q206.274 1095.98 207.153 1094.25 Q208.056 1092.49 208.056 1090.8 Q208.056 1088.04 206.112 1086.31 Q204.19 1084.57 201.088 1084.57 Q198.889 1084.57 196.436 1085.34 Q194.005 1086.1 191.227 1087.65 L191.227 1082.93 Q194.051 1081.79 196.505 1081.22 Q198.959 1080.64 200.996 1080.64 Q206.366 1080.64 209.561 1083.32 Q212.755 1086.01 212.755 1090.5 Q212.755 1092.63 211.945 1094.55 Q211.158 1096.45 209.051 1099.04 Q208.473 1099.71 205.371 1102.93 Q202.269 1106.12 196.621 1111.89 Z" fill="#000000" fill-rule="evenodd" fill-opacity="1" /><path clip-path="url(#clip490)" d="M222.801 1081.26 L241.158 1081.26 L241.158 1085.2 L227.084 1085.2 L227.084 1093.67 Q228.102 1093.32 229.121 1093.16 Q230.139 1092.98 231.158 1092.98 Q236.945 1092.98 240.324 1096.15 Q243.704 1099.32 243.704 1104.73 Q243.704 1110.31 240.232 1113.42 Q236.76 1116.49 230.44 1116.49 Q228.264 1116.49 225.996 1116.12 Q223.75 1115.75 221.343 1115.01 L221.343 1110.31 Q223.426 1111.45 225.648 1112 Q227.871 1112.56 230.347 1112.56 Q234.352 1112.56 236.69 1110.45 Q239.028 1108.35 239.028 1104.73 Q239.028 1101.12 236.69 1099.02 Q234.352 1096.91 230.347 1096.91 Q228.473 1096.91 226.598 1097.33 Q224.746 1097.74 222.801 1098.62 L222.801 1081.26 Z" fill="#000000" fill-rule="evenodd" fill-opacity="1" /><path clip-path="url(#clip490)" d="M126.205 795.771 Q122.593 795.771 120.765 799.336 Q118.959 802.878 118.959 810.007 Q118.959 817.114 120.765 820.678 Q122.593 824.22 126.205 824.22 Q129.839 824.22 131.644 820.678 Q133.473 817.114 133.473 810.007 Q133.473 802.878 131.644 799.336 Q129.839 795.771 126.205 795.771 M126.205 792.067 Q132.015 792.067 135.07 796.674 Q138.149 801.257 138.149 810.007 Q138.149 818.734 135.07 823.34 Q132.015 827.924 126.205 827.924 Q120.394 827.924 117.316 823.34 Q114.26 818.734 114.26 810.007 Q114.26 801.257 117.316 796.674 Q120.394 792.067 126.205 792.067 Z" fill="#000000" fill-rule="evenodd" fill-opacity="1" /><path clip-path="url(#clip490)" d="M146.366 821.373 L151.251 821.373 L151.251 827.252 L146.366 827.252 L146.366 821.373 Z" fill="#000000" fill-rule="evenodd" fill-opacity="1" /><path clip-path="url(#clip490)" d="M171.436 795.771 Q167.825 795.771 165.996 799.336 Q164.19 802.878 164.19 810.007 Q164.19 817.114 165.996 820.678 Q167.825 824.22 171.436 824.22 Q175.07 824.22 176.876 820.678 Q178.704 817.114 178.704 810.007 Q178.704 802.878 176.876 799.336 Q175.07 795.771 171.436 795.771 M171.436 792.067 Q177.246 792.067 180.301 796.674 Q183.38 801.257 183.38 810.007 Q183.38 818.734 180.301 823.34 Q177.246 827.924 171.436 827.924 Q165.626 827.924 162.547 823.34 Q159.491 818.734 159.491 810.007 Q159.491 801.257 162.547 796.674 Q165.626 792.067 171.436 792.067 Z" fill="#000000" fill-rule="evenodd" fill-opacity="1" /><path clip-path="url(#clip490)" d="M191.644 792.692 L210 792.692 L210 796.628 L195.926 796.628 L195.926 805.1 Q196.945 804.753 197.963 804.591 Q198.982 804.405 200 804.405 Q205.787 804.405 209.167 807.577 Q212.547 810.748 212.547 816.165 Q212.547 821.743 209.074 824.845 Q205.602 827.924 199.283 827.924 Q197.107 827.924 194.838 827.553 Q192.593 827.183 190.186 826.442 L190.186 821.743 Q192.269 822.877 194.491 823.433 Q196.713 823.989 199.19 823.989 Q203.195 823.989 205.533 821.882 Q207.871 819.776 207.871 816.165 Q207.871 812.553 205.533 810.447 Q203.195 808.34 199.19 808.34 Q197.315 808.34 195.44 808.757 Q193.588 809.174 191.644 810.053 L191.644 792.692 Z" fill="#000000" fill-rule="evenodd" fill-opacity="1" /><path clip-path="url(#clip490)" d="M231.76 795.771 Q228.148 795.771 226.32 799.336 Q224.514 802.878 224.514 810.007 Q224.514 817.114 226.32 820.678 Q228.148 824.22 231.76 824.22 Q235.394 824.22 237.199 820.678 Q239.028 817.114 239.028 810.007 Q239.028 802.878 237.199 799.336 Q235.394 795.771 231.76 795.771 M231.76 792.067 Q237.57 792.067 240.625 796.674 Q243.704 801.257 243.704 810.007 Q243.704 818.734 240.625 823.34 Q237.57 827.924 231.76 827.924 Q225.949 827.924 222.871 823.34 Q219.815 818.734 219.815 810.007 Q219.815 801.257 222.871 796.674 Q225.949 792.067 231.76 792.067 Z" fill="#000000" fill-rule="evenodd" fill-opacity="1" /><path clip-path="url(#clip490)" d="M127.2 507.201 Q123.589 507.201 121.76 510.766 Q119.955 514.307 119.955 521.437 Q119.955 528.543 121.76 532.108 Q123.589 535.65 127.2 535.65 Q130.834 535.65 132.64 532.108 Q134.468 528.543 134.468 521.437 Q134.468 514.307 132.64 510.766 Q130.834 507.201 127.2 507.201 M127.2 503.497 Q133.01 503.497 136.066 508.104 Q139.144 512.687 139.144 521.437 Q139.144 530.164 136.066 534.77 Q133.01 539.354 127.2 539.354 Q121.39 539.354 118.311 534.77 Q115.256 530.164 115.256 521.437 Q115.256 512.687 118.311 508.104 Q121.39 503.497 127.2 503.497 Z" fill="#000000" fill-rule="evenodd" fill-opacity="1" /><path clip-path="url(#clip490)" d="M147.362 532.803 L152.246 532.803 L152.246 538.682 L147.362 538.682 L147.362 532.803 Z" fill="#000000" fill-rule="evenodd" fill-opacity="1" /><path clip-path="url(#clip490)" d="M172.431 507.201 Q168.82 507.201 166.991 510.766 Q165.186 514.307 165.186 521.437 Q165.186 528.543 166.991 532.108 Q168.82 535.65 172.431 535.65 Q176.065 535.65 177.871 532.108 Q179.7 528.543 179.7 521.437 Q179.7 514.307 177.871 510.766 Q176.065 507.201 172.431 507.201 M172.431 503.497 Q178.241 503.497 181.297 508.104 Q184.376 512.687 184.376 521.437 Q184.376 530.164 181.297 534.77 Q178.241 539.354 172.431 539.354 Q166.621 539.354 163.542 534.77 Q160.487 530.164 160.487 521.437 Q160.487 512.687 163.542 508.104 Q166.621 503.497 172.431 503.497 Z" fill="#000000" fill-rule="evenodd" fill-opacity="1" /><path clip-path="url(#clip490)" d="M191.413 504.122 L213.635 504.122 L213.635 506.113 L201.088 538.682 L196.204 538.682 L208.01 508.057 L191.413 508.057 L191.413 504.122 Z" fill="#000000" fill-rule="evenodd" fill-opacity="1" /><path clip-path="url(#clip490)" d="M222.801 504.122 L241.158 504.122 L241.158 508.057 L227.084 508.057 L227.084 516.53 Q228.102 516.182 229.121 516.02 Q230.139 515.835 231.158 515.835 Q236.945 515.835 240.324 519.006 Q243.704 522.178 243.704 527.594 Q243.704 533.173 240.232 536.275 Q236.76 539.354 230.44 539.354 Q228.264 539.354 225.996 538.983 Q223.75 538.613 221.343 537.872 L221.343 533.173 Q223.426 534.307 225.648 534.863 Q227.871 535.418 230.347 535.418 Q234.352 535.418 236.69 533.312 Q239.028 531.205 239.028 527.594 Q239.028 523.983 236.69 521.877 Q234.352 519.77 230.347 519.77 Q228.473 519.77 226.598 520.187 Q224.746 520.604 222.801 521.483 L222.801 504.122 Z" fill="#000000" fill-rule="evenodd" fill-opacity="1" /><path clip-path="url(#clip490)" d="M126.205 218.631 Q122.593 218.631 120.765 222.196 Q118.959 225.737 118.959 232.867 Q118.959 239.973 120.765 243.538 Q122.593 247.08 126.205 247.08 Q129.839 247.08 131.644 243.538 Q133.473 239.973 133.473 232.867 Q133.473 225.737 131.644 222.196 Q129.839 218.631 126.205 218.631 M126.205 214.927 Q132.015 214.927 135.07 219.534 Q138.149 224.117 138.149 232.867 Q138.149 241.594 135.07 246.2 Q132.015 250.783 126.205 250.783 Q120.394 250.783 117.316 246.2 Q114.26 241.594 114.26 232.867 Q114.26 224.117 117.316 219.534 Q120.394 214.927 126.205 214.927 Z" fill="#000000" fill-rule="evenodd" fill-opacity="1" /><path clip-path="url(#clip490)" d="M146.366 244.233 L151.251 244.233 L151.251 250.112 L146.366 250.112 L146.366 244.233 Z" fill="#000000" fill-rule="evenodd" fill-opacity="1" /><path clip-path="url(#clip490)" d="M162.246 246.177 L169.885 246.177 L169.885 219.811 L161.575 221.478 L161.575 217.219 L169.839 215.552 L174.514 215.552 L174.514 246.177 L182.153 246.177 L182.153 250.112 L162.246 250.112 L162.246 246.177 Z" fill="#000000" fill-rule="evenodd" fill-opacity="1" /><path clip-path="url(#clip490)" d="M201.598 218.631 Q197.987 218.631 196.158 222.196 Q194.352 225.737 194.352 232.867 Q194.352 239.973 196.158 243.538 Q197.987 247.08 201.598 247.08 Q205.232 247.08 207.037 243.538 Q208.866 239.973 208.866 232.867 Q208.866 225.737 207.037 222.196 Q205.232 218.631 201.598 218.631 M201.598 214.927 Q207.408 214.927 210.463 219.534 Q213.542 224.117 213.542 232.867 Q213.542 241.594 210.463 246.2 Q207.408 250.783 201.598 250.783 Q195.787 250.783 192.709 246.2 Q189.653 241.594 189.653 232.867 Q189.653 224.117 192.709 219.534 Q195.787 214.927 201.598 214.927 Z" fill="#000000" fill-rule="evenodd" fill-opacity="1" /><path clip-path="url(#clip490)" d="M231.76 218.631 Q228.148 218.631 226.32 222.196 Q224.514 225.737 224.514 232.867 Q224.514 239.973 226.32 243.538 Q228.148 247.08 231.76 247.08 Q235.394 247.08 237.199 243.538 Q239.028 239.973 239.028 232.867 Q239.028 225.737 237.199 222.196 Q235.394 218.631 231.76 218.631 M231.76 214.927 Q237.57 214.927 240.625 219.534 Q243.704 224.117 243.704 232.867 Q243.704 241.594 240.625 246.2 Q237.57 250.783 231.76 250.783 Q225.949 250.783 222.871 246.2 Q219.815 241.594 219.815 232.867 Q219.815 224.117 222.871 219.534 Q225.949 214.927 231.76 214.927 Z" fill="#000000" fill-rule="evenodd" fill-opacity="1" /><path clip-path="url(#clip490)" d="M28.3562 814.719 L28.3562 808.863 L64.0042 808.863 L64.0042 814.719 L28.3562 814.719 M14.479 814.719 L14.479 808.863 L21.895 808.863 L21.895 814.719 L14.479 814.719 Z" fill="#000000" fill-rule="evenodd" fill-opacity="1" /><path clip-path="url(#clip490)" d="M14.5426 782.54 Q21.8632 786.805 29.0246 788.874 Q36.186 790.943 43.5384 790.943 Q50.8908 790.943 58.1159 788.874 Q65.3091 786.774 72.5979 782.54 L72.5979 787.633 Q65.1182 792.407 57.8931 794.794 Q50.668 797.15 43.5384 797.15 Q36.4406 797.15 29.2474 794.794 Q22.0542 792.439 14.5426 787.633 L14.5426 782.54 Z" fill="#000000" fill-rule="evenodd" fill-opacity="1" /><path clip-path="url(#clip490)" d="M18.2347 765.385 L28.3562 765.385 L28.3562 753.322 L32.9077 753.322 L32.9077 765.385 L52.2594 765.385 Q56.6199 765.385 57.8613 764.207 Q59.1026 762.998 59.1026 759.337 L59.1026 753.322 L64.0042 753.322 L64.0042 759.337 Q64.0042 766.117 61.4897 768.695 Q58.9434 771.273 52.2594 771.273 L32.9077 771.273 L32.9077 775.57 L28.3562 775.57 L28.3562 771.273 L18.2347 771.273 L18.2347 765.385 Z" fill="#000000" fill-rule="evenodd" fill-opacity="1" /><path clip-path="url(#clip490)" d="M14.5426 746.542 L14.5426 741.45 Q22.0542 736.675 29.2474 734.32 Q36.4406 731.933 43.5384 731.933 Q50.668 731.933 57.8931 734.32 Q65.1182 736.675 72.5979 741.45 L72.5979 746.542 Q65.3091 742.309 58.1159 740.24 Q50.8908 738.14 43.5384 738.14 Q36.186 738.14 29.0246 740.24 Q21.8632 742.309 14.5426 746.542 Z" fill="#000000" fill-rule="evenodd" fill-opacity="1" /><path clip-path="url(#clip490)" d="M666.222 17.6457 Q657.31 17.6457 652.044 24.2892 Q646.818 30.9327 646.818 42.3968 Q646.818 53.8203 652.044 60.4638 Q657.31 67.1073 666.222 67.1073 Q675.134 67.1073 680.319 60.4638 Q685.545 53.8203 685.545 42.3968 Q685.545 30.9327 680.319 24.2892 Q675.134 17.6457 666.222 17.6457 M677.686 71.4823 L688.461 83.2704 L678.577 83.2704 L669.625 73.5887 Q668.288 73.6697 667.559 73.7103 Q666.87 73.7508 666.222 73.7508 Q653.461 73.7508 645.805 65.2439 Q638.19 56.6965 638.19 42.3968 Q638.19 28.0566 645.805 19.5497 Q653.461 11.0023 666.222 11.0023 Q678.942 11.0023 686.557 19.5497 Q694.173 28.0566 694.173 42.3968 Q694.173 52.9291 689.92 60.4233 Q685.707 67.9175 677.686 71.4823 Z" fill="#000000" fill-rule="evenodd" fill-opacity="1" /><path clip-path="url(#clip490)" d="M705.88 54.671 L705.88 27.2059 L713.334 27.2059 L713.334 54.3874 Q713.334 60.8284 715.845 64.0691 Q718.357 67.2693 723.38 67.2693 Q729.416 67.2693 732.9 63.421 Q736.424 59.5726 736.424 52.9291 L736.424 27.2059 L743.878 27.2059 L743.878 72.576 L736.424 72.576 L736.424 65.6084 Q733.71 69.7404 730.105 71.7658 Q726.54 73.7508 721.8 73.7508 Q713.982 73.7508 709.931 68.8897 Q705.88 64.0286 705.88 54.671 M724.636 26.1121 L724.636 26.1121 Z" fill="#000000" fill-rule="evenodd" fill-opacity="1" /><path clip-path="url(#clip490)" d="M779.85 49.7694 Q770.816 49.7694 767.332 51.8354 Q763.849 53.9013 763.849 58.8839 Q763.849 62.8538 766.441 65.2034 Q769.074 67.5124 773.571 67.5124 Q779.769 67.5124 783.495 63.1374 Q787.263 58.7219 787.263 51.4303 L787.263 49.7694 L779.85 49.7694 M794.716 46.6907 L794.716 72.576 L787.263 72.576 L787.263 65.6895 Q784.711 69.8214 780.903 71.8063 Q777.095 73.7508 771.586 73.7508 Q764.618 73.7508 760.486 69.8619 Q756.395 65.9325 756.395 59.3701 Q756.395 51.7138 761.499 47.825 Q766.644 43.9361 776.812 43.9361 L787.263 43.9361 L787.263 43.2069 Q787.263 38.0623 783.86 35.2672 Q780.498 32.4315 774.381 32.4315 Q770.492 32.4315 766.806 33.3632 Q763.119 34.295 759.717 36.1584 L759.717 29.2718 Q763.808 27.692 767.656 26.9223 Q771.505 26.1121 775.151 26.1121 Q784.994 26.1121 789.855 31.2163 Q794.716 36.3204 794.716 46.6907 Z" fill="#000000" fill-rule="evenodd" fill-opacity="1" /><path clip-path="url(#clip490)" d="M847.783 45.1919 L847.783 72.576 L840.33 72.576 L840.33 45.4349 Q840.33 38.994 837.818 35.7938 Q835.307 32.5936 830.283 32.5936 Q824.248 32.5936 820.764 36.4419 Q817.28 40.2903 817.28 46.9338 L817.28 72.576 L809.786 72.576 L809.786 27.2059 L817.28 27.2059 L817.28 34.2544 Q819.954 30.163 823.559 28.1376 Q827.205 26.1121 831.944 26.1121 Q839.763 26.1121 843.773 30.9732 Q847.783 35.7938 847.783 45.1919 Z" fill="#000000" fill-rule="evenodd" fill-opacity="1" /><path clip-path="url(#clip490)" d="M870.023 14.324 L870.023 27.2059 L885.376 27.2059 L885.376 32.9987 L870.023 32.9987 L870.023 57.6282 Q870.023 63.1779 871.522 64.7578 Q873.061 66.3376 877.72 66.3376 L885.376 66.3376 L885.376 72.576 L877.72 72.576 Q869.091 72.576 865.81 69.3758 Q862.529 66.1351 862.529 57.6282 L862.529 32.9987 L857.06 32.9987 L857.06 27.2059 L862.529 27.2059 L862.529 14.324 L870.023 14.324 Z" fill="#000000" fill-rule="evenodd" fill-opacity="1" /><path clip-path="url(#clip490)" d="M895.179 27.2059 L902.633 27.2059 L902.633 72.576 L895.179 72.576 L895.179 27.2059 M895.179 9.54393 L902.633 9.54393 L902.633 18.9825 L895.179 18.9825 L895.179 9.54393 Z" fill="#000000" fill-rule="evenodd" fill-opacity="1" /><path clip-path="url(#clip490)" d="M918.229 9.54393 L925.682 9.54393 L925.682 72.576 L918.229 72.576 L918.229 9.54393 Z" fill="#000000" fill-rule="evenodd" fill-opacity="1" /><path clip-path="url(#clip490)" d="M980.086 48.0275 L980.086 51.6733 L945.815 51.6733 Q946.301 59.3701 950.433 63.421 Q954.606 67.4314 962.019 67.4314 Q966.313 67.4314 970.323 66.3781 Q974.374 65.3249 978.344 63.2184 L978.344 70.267 Q974.334 71.9684 970.121 72.8596 Q965.908 73.7508 961.573 73.7508 Q950.717 73.7508 944.357 67.4314 Q938.037 61.1119 938.037 50.3365 Q938.037 39.1965 944.033 32.6746 Q950.069 26.1121 960.277 26.1121 Q969.432 26.1121 974.739 32.0264 Q980.086 37.9003 980.086 48.0275 M972.632 45.84 Q972.551 39.7232 969.189 36.0774 Q965.867 32.4315 960.358 32.4315 Q954.12 32.4315 950.352 35.9558 Q946.625 39.4801 946.058 45.8805 L972.632 45.84 Z" fill="#000000" fill-rule="evenodd" fill-opacity="1" /><path clip-path="url(#clip490)" d="M1021.24 28.5427 L1021.24 35.5912 Q1018.08 33.9709 1014.68 33.1607 Q1011.28 32.3505 1007.63 32.3505 Q1002.08 32.3505 999.287 34.0519 Q996.533 35.7533 996.533 39.156 Q996.533 41.7486 998.517 43.2475 Q1000.5 44.7058 1006.5 46.0426 L1009.05 46.6097 Q1016.99 48.3111 1020.31 51.4303 Q1023.67 54.509 1023.67 60.0587 Q1023.67 66.3781 1018.65 70.0644 Q1013.67 73.7508 1004.92 73.7508 Q1001.27 73.7508 997.302 73.0216 Q993.373 72.3329 988.998 70.9151 L988.998 63.2184 Q993.13 65.3654 997.14 66.4591 Q1001.15 67.5124 1005.08 67.5124 Q1010.35 67.5124 1013.18 65.73 Q1016.02 63.9071 1016.02 60.6258 Q1016.02 57.5877 1013.95 55.9673 Q1011.93 54.3469 1005 52.8481 L1002.41 52.2405 Q995.479 50.7821 992.401 47.7845 Q989.322 44.7463 989.322 39.4801 Q989.322 33.0797 993.859 29.5959 Q998.396 26.1121 1006.74 26.1121 Q1010.87 26.1121 1014.52 26.7198 Q1018.16 27.3274 1021.24 28.5427 Z" fill="#000000" fill-rule="evenodd" fill-opacity="1" /><path clip-path="url(#clip490)" d="M1079.5 32.4315 Q1073.5 32.4315 1070.02 37.1306 Q1066.53 41.7891 1066.53 49.9314 Q1066.53 58.0738 1069.98 62.7728 Q1073.46 67.4314 1079.5 67.4314 Q1085.45 67.4314 1088.93 62.7323 Q1092.42 58.0333 1092.42 49.9314 Q1092.42 41.8701 1088.93 37.1711 Q1085.45 32.4315 1079.5 32.4315 M1079.5 26.1121 Q1089.22 26.1121 1094.77 32.4315 Q1100.32 38.7509 1100.32 49.9314 Q1100.32 61.0714 1094.77 67.4314 Q1089.22 73.7508 1079.5 73.7508 Q1069.73 73.7508 1064.18 67.4314 Q1058.67 61.0714 1058.67 49.9314 Q1058.67 38.7509 1064.18 32.4315 Q1069.73 26.1121 1079.5 26.1121 Z" fill="#000000" fill-rule="evenodd" fill-opacity="1" /><path clip-path="url(#clip490)" d="M1135.64 9.54393 L1135.64 15.7418 L1128.51 15.7418 Q1124.5 15.7418 1122.92 17.3622 Q1121.38 18.9825 1121.38 23.1955 L1121.38 27.2059 L1133.66 27.2059 L1133.66 32.9987 L1121.38 32.9987 L1121.38 72.576 L1113.89 72.576 L1113.89 32.9987 L1106.76 32.9987 L1106.76 27.2059 L1113.89 27.2059 L1113.89 24.0462 Q1113.89 16.471 1117.41 13.0277 Q1120.94 9.54393 1128.59 9.54393 L1135.64 9.54393 Z" fill="#000000" fill-rule="evenodd" fill-opacity="1" /><path clip-path="url(#clip490)" d="M1168.57 12.096 L1176.76 12.096 L1176.76 72.576 L1168.57 72.576 L1168.57 12.096 Z" fill="#000000" fill-rule="evenodd" fill-opacity="1" /><path clip-path="url(#clip490)" d="M1230.43 45.1919 L1230.43 72.576 L1222.98 72.576 L1222.98 45.4349 Q1222.98 38.994 1220.47 35.7938 Q1217.95 32.5936 1212.93 32.5936 Q1206.9 32.5936 1203.41 36.4419 Q1199.93 40.2903 1199.93 46.9338 L1199.93 72.576 L1192.43 72.576 L1192.43 27.2059 L1199.93 27.2059 L1199.93 34.2544 Q1202.6 30.163 1206.21 28.1376 Q1209.85 26.1121 1214.59 26.1121 Q1222.41 26.1121 1226.42 30.9732 Q1230.43 35.7938 1230.43 45.1919 Z" fill="#000000" fill-rule="evenodd" fill-opacity="1" /><path clip-path="url(#clip490)" d="M1268.27 9.54393 L1268.27 15.7418 L1261.14 15.7418 Q1257.13 15.7418 1255.55 17.3622 Q1254.01 18.9825 1254.01 23.1955 L1254.01 27.2059 L1266.28 27.2059 L1266.28 32.9987 L1254.01 32.9987 L1254.01 72.576 L1246.51 72.576 L1246.51 32.9987 L1239.38 32.9987 L1239.38 27.2059 L1246.51 27.2059 L1246.51 24.0462 Q1246.51 16.471 1250.04 13.0277 Q1253.56 9.54393 1261.22 9.54393 L1268.27 9.54393 Z" fill="#000000" fill-rule="evenodd" fill-opacity="1" /><path clip-path="url(#clip490)" d="M1313.31 48.0275 L1313.31 51.6733 L1279.04 51.6733 Q1279.53 59.3701 1283.66 63.421 Q1287.83 67.4314 1295.25 67.4314 Q1299.54 67.4314 1303.55 66.3781 Q1307.6 65.3249 1311.57 63.2184 L1311.57 70.267 Q1307.56 71.9684 1303.35 72.8596 Q1299.14 73.7508 1294.8 73.7508 Q1283.94 73.7508 1277.58 67.4314 Q1271.26 61.1119 1271.26 50.3365 Q1271.26 39.1965 1277.26 32.6746 Q1283.3 26.1121 1293.5 26.1121 Q1302.66 26.1121 1307.97 32.0264 Q1313.31 37.9003 1313.31 48.0275 M1305.86 45.84 Q1305.78 39.7232 1302.42 36.0774 Q1299.09 32.4315 1293.59 32.4315 Q1287.35 32.4315 1283.58 35.9558 Q1279.85 39.4801 1279.29 45.8805 L1305.86 45.84 Z" fill="#000000" fill-rule="evenodd" fill-opacity="1" /><path clip-path="url(#clip490)" d="M1358.2 28.9478 L1358.2 35.9153 Q1355.04 34.1734 1351.84 33.3227 Q1348.68 32.4315 1345.44 32.4315 Q1338.19 32.4315 1334.18 37.0496 Q1330.17 41.6271 1330.17 49.9314 Q1330.17 58.2358 1334.18 62.8538 Q1338.19 67.4314 1345.44 67.4314 Q1348.68 67.4314 1351.84 66.5807 Q1355.04 65.6895 1358.2 63.9476 L1358.2 70.8341 Q1355.08 72.2924 1351.72 73.0216 Q1348.39 73.7508 1344.63 73.7508 Q1334.38 73.7508 1328.34 67.3098 Q1322.31 60.8689 1322.31 49.9314 Q1322.31 38.832 1328.38 32.472 Q1334.5 26.1121 1345.11 26.1121 Q1348.56 26.1121 1351.84 26.8413 Q1355.12 27.5299 1358.2 28.9478 Z" fill="#000000" fill-rule="evenodd" fill-opacity="1" /><path clip-path="url(#clip490)" d="M1378.53 14.324 L1378.53 27.2059 L1393.89 27.2059 L1393.89 32.9987 L1378.53 32.9987 L1378.53 57.6282 Q1378.53 63.1779 1380.03 64.7578 Q1381.57 66.3376 1386.23 66.3376 L1393.89 66.3376 L1393.89 72.576 L1386.23 72.576 Q1377.6 72.576 1374.32 69.3758 Q1371.04 66.1351 1371.04 57.6282 L1371.04 32.9987 L1365.57 32.9987 L1365.57 27.2059 L1371.04 27.2059 L1371.04 14.324 L1378.53 14.324 Z" fill="#000000" fill-rule="evenodd" fill-opacity="1" /><path clip-path="url(#clip490)" d="M1403.69 27.2059 L1411.14 27.2059 L1411.14 72.576 L1403.69 72.576 L1403.69 27.2059 M1403.69 9.54393 L1411.14 9.54393 L1411.14 18.9825 L1403.69 18.9825 L1403.69 9.54393 Z" fill="#000000" fill-rule="evenodd" fill-opacity="1" /><path clip-path="url(#clip490)" d="M1444.32 32.4315 Q1438.32 32.4315 1434.84 37.1306 Q1431.36 41.7891 1431.36 49.9314 Q1431.36 58.0738 1434.8 62.7728 Q1438.28 67.4314 1444.32 67.4314 Q1450.27 67.4314 1453.76 62.7323 Q1457.24 58.0333 1457.24 49.9314 Q1457.24 41.8701 1453.76 37.1711 Q1450.27 32.4315 1444.32 32.4315 M1444.32 26.1121 Q1454.04 26.1121 1459.59 32.4315 Q1465.14 38.7509 1465.14 49.9314 Q1465.14 61.0714 1459.59 67.4314 Q1454.04 73.7508 1444.32 73.7508 Q1434.56 73.7508 1429.01 67.4314 Q1423.5 61.0714 1423.5 49.9314 Q1423.5 38.7509 1429.01 32.4315 Q1434.56 26.1121 1444.32 26.1121 Z" fill="#000000" fill-rule="evenodd" fill-opacity="1" /><path clip-path="url(#clip490)" d="M1515.21 45.1919 L1515.21 72.576 L1507.76 72.576 L1507.76 45.4349 Q1507.76 38.994 1505.25 35.7938 Q1502.73 32.5936 1497.71 32.5936 Q1491.67 32.5936 1488.19 36.4419 Q1484.71 40.2903 1484.71 46.9338 L1484.71 72.576 L1477.21 72.576 L1477.21 27.2059 L1484.71 27.2059 L1484.71 34.2544 Q1487.38 30.163 1490.99 28.1376 Q1494.63 26.1121 1499.37 26.1121 Q1507.19 26.1121 1511.2 30.9732 Q1515.21 35.7938 1515.21 45.1919 Z" fill="#000000" fill-rule="evenodd" fill-opacity="1" /><path clip-path="url(#clip490)" d="M1559 28.5427 L1559 35.5912 Q1555.84 33.9709 1552.44 33.1607 Q1549.04 32.3505 1545.39 32.3505 Q1539.84 32.3505 1537.04 34.0519 Q1534.29 35.7533 1534.29 39.156 Q1534.29 41.7486 1536.28 43.2475 Q1538.26 44.7058 1544.26 46.0426 L1546.81 46.6097 Q1554.75 48.3111 1558.07 51.4303 Q1561.43 54.509 1561.43 60.0587 Q1561.43 66.3781 1556.41 70.0644 Q1551.43 73.7508 1542.68 73.7508 Q1539.03 73.7508 1535.06 73.0216 Q1531.13 72.3329 1526.76 70.9151 L1526.76 63.2184 Q1530.89 65.3654 1534.9 66.4591 Q1538.91 67.5124 1542.84 67.5124 Q1548.1 67.5124 1550.94 65.73 Q1553.77 63.9071 1553.77 60.6258 Q1553.77 57.5877 1551.71 55.9673 Q1549.68 54.3469 1542.76 52.8481 L1540.16 52.2405 Q1533.24 50.7821 1530.16 47.7845 Q1527.08 44.7463 1527.08 39.4801 Q1527.08 33.0797 1531.62 29.5959 Q1536.15 26.1121 1544.5 26.1121 Q1548.63 26.1121 1552.28 26.7198 Q1555.92 27.3274 1559 28.5427 Z" fill="#000000" fill-rule="evenodd" fill-opacity="1" /><path clip-path="url(#clip490)" d="M1600 12.096 L1638.24 12.096 L1638.24 18.9825 L1608.18 18.9825 L1608.18 36.8875 L1636.98 36.8875 L1636.98 43.7741 L1608.18 43.7741 L1608.18 65.6895 L1638.97 65.6895 L1638.97 72.576 L1600 72.576 L1600 12.096 Z" fill="#000000" fill-rule="evenodd" fill-opacity="1" /><path clip-path="url(#clip490)" d="M1689.8 45.1919 L1689.8 72.576 L1682.35 72.576 L1682.35 45.4349 Q1682.35 38.994 1679.84 35.7938 Q1677.33 32.5936 1672.3 32.5936 Q1666.27 32.5936 1662.78 36.4419 Q1659.3 40.2903 1659.3 46.9338 L1659.3 72.576 L1651.81 72.576 L1651.81 27.2059 L1659.3 27.2059 L1659.3 34.2544 Q1661.97 30.163 1665.58 28.1376 Q1669.23 26.1121 1673.97 26.1121 Q1681.78 26.1121 1685.79 30.9732 Q1689.8 35.7938 1689.8 45.1919 Z" fill="#000000" fill-rule="evenodd" fill-opacity="1" /><path clip-path="url(#clip490)" d="M1733.59 28.5427 L1733.59 35.5912 Q1730.43 33.9709 1727.03 33.1607 Q1723.63 32.3505 1719.98 32.3505 Q1714.43 32.3505 1711.64 34.0519 Q1708.88 35.7533 1708.88 39.156 Q1708.88 41.7486 1710.87 43.2475 Q1712.85 44.7058 1718.85 46.0426 L1721.4 46.6097 Q1729.34 48.3111 1732.66 51.4303 Q1736.03 54.509 1736.03 60.0587 Q1736.03 66.3781 1731 70.0644 Q1726.02 73.7508 1717.27 73.7508 Q1713.62 73.7508 1709.65 73.0216 Q1705.72 72.3329 1701.35 70.9151 L1701.35 63.2184 Q1705.48 65.3654 1709.49 66.4591 Q1713.5 67.5124 1717.43 67.5124 Q1722.7 67.5124 1725.53 65.73 Q1728.37 63.9071 1728.37 60.6258 Q1728.37 57.5877 1726.3 55.9673 Q1724.28 54.3469 1717.35 52.8481 L1714.76 52.2405 Q1707.83 50.7821 1704.75 47.7845 Q1701.67 44.7463 1701.67 39.4801 Q1701.67 33.0797 1706.21 29.5959 Q1710.75 26.1121 1719.09 26.1121 Q1723.22 26.1121 1726.87 26.7198 Q1730.52 27.3274 1733.59 28.5427 Z" fill="#000000" fill-rule="evenodd" fill-opacity="1" /><path clip-path="url(#clip490)" d="M1786.7 48.0275 L1786.7 51.6733 L1752.43 51.6733 Q1752.92 59.3701 1757.05 63.421 Q1761.22 67.4314 1768.63 67.4314 Q1772.93 67.4314 1776.94 66.3781 Q1780.99 65.3249 1784.96 63.2184 L1784.96 70.267 Q1780.95 71.9684 1776.74 72.8596 Q1772.52 73.7508 1768.19 73.7508 Q1757.33 73.7508 1750.97 67.4314 Q1744.65 61.1119 1744.65 50.3365 Q1744.65 39.1965 1750.65 32.6746 Q1756.68 26.1121 1766.89 26.1121 Q1776.05 26.1121 1781.35 32.0264 Q1786.7 37.9003 1786.7 48.0275 M1779.25 45.84 Q1779.17 39.7232 1775.8 36.0774 Q1772.48 32.4315 1766.97 32.4315 Q1760.74 32.4315 1756.97 35.9558 Q1753.24 39.4801 1752.67 45.8805 L1779.25 45.84 Z" fill="#000000" fill-rule="evenodd" fill-opacity="1" /><path clip-path="url(#clip490)" d="M1834.26 35.9153 Q1837.05 30.8922 1840.94 28.5022 Q1844.83 26.1121 1850.1 26.1121 Q1857.19 26.1121 1861.04 31.0947 Q1864.88 36.0368 1864.88 45.1919 L1864.88 72.576 L1857.39 72.576 L1857.39 45.4349 Q1857.39 38.913 1855.08 35.7533 Q1852.77 32.5936 1848.03 32.5936 Q1842.24 32.5936 1838.88 36.4419 Q1835.52 40.2903 1835.52 46.9338 L1835.52 72.576 L1828.02 72.576 L1828.02 45.4349 Q1828.02 38.8725 1825.71 35.7533 Q1823.4 32.5936 1818.58 32.5936 Q1812.87 32.5936 1809.51 36.4824 Q1806.15 40.3308 1806.15 46.9338 L1806.15 72.576 L1798.65 72.576 L1798.65 27.2059 L1806.15 27.2059 L1806.15 34.2544 Q1808.7 30.082 1812.26 28.0971 Q1815.83 26.1121 1820.73 26.1121 Q1825.67 26.1121 1829.11 28.6237 Q1832.6 31.1352 1834.26 35.9153 Z" fill="#000000" fill-rule="evenodd" fill-opacity="1" /><path clip-path="url(#clip490)" d="M1912.32 49.9314 Q1912.32 41.7081 1908.92 37.0496 Q1905.56 32.3505 1899.64 32.3505 Q1893.73 32.3505 1890.32 37.0496 Q1886.96 41.7081 1886.96 49.9314 Q1886.96 58.1548 1890.32 62.8538 Q1893.73 67.5124 1899.64 67.5124 Q1905.56 67.5124 1908.92 62.8538 Q1912.32 58.1548 1912.32 49.9314 M1886.96 34.0924 Q1889.31 30.0415 1892.88 28.0971 Q1896.48 26.1121 1901.46 26.1121 Q1909.73 26.1121 1914.87 32.6746 Q1920.06 39.2371 1920.06 49.9314 Q1920.06 60.6258 1914.87 67.1883 Q1909.73 73.7508 1901.46 73.7508 Q1896.48 73.7508 1892.88 71.8063 Q1889.31 69.8214 1886.96 65.7705 L1886.96 72.576 L1879.47 72.576 L1879.47 9.54393 L1886.96 9.54393 L1886.96 34.0924 Z" fill="#000000" fill-rule="evenodd" fill-opacity="1" /><path clip-path="url(#clip490)" d="M1932.41 9.54393 L1939.87 9.54393 L1939.87 72.576 L1932.41 72.576 L1932.41 9.54393 Z" fill="#000000" fill-rule="evenodd" fill-opacity="1" /><path clip-path="url(#clip490)" d="M1994.27 48.0275 L1994.27 51.6733 L1960 51.6733 Q1960.49 59.3701 1964.62 63.421 Q1968.79 67.4314 1976.2 67.4314 Q1980.5 67.4314 1984.51 66.3781 Q1988.56 65.3249 1992.53 63.2184 L1992.53 70.267 Q1988.52 71.9684 1984.31 72.8596 Q1980.09 73.7508 1975.76 73.7508 Q1964.9 73.7508 1958.54 67.4314 Q1952.22 61.1119 1952.22 50.3365 Q1952.22 39.1965 1958.22 32.6746 Q1964.25 26.1121 1974.46 26.1121 Q1983.62 26.1121 1988.92 32.0264 Q1994.27 37.9003 1994.27 48.0275 M1986.82 45.84 Q1986.74 39.7232 1983.37 36.0774 Q1980.05 32.4315 1974.54 32.4315 Q1968.3 32.4315 1964.54 35.9558 Q1960.81 39.4801 1960.24 45.8805 L1986.82 45.84 Z" fill="#000000" fill-rule="evenodd" fill-opacity="1" /><path clip-path="url(#clip492)" d="
M338.375 1386.24 L338.428 1386.24 L338.44 1386.24 L338.454 1386.24 L338.47 1386.24 L338.488 1386.24 L338.508 1386.24 L338.531 1386.24 L338.557 1386.24 L338.585 1386.24 
  L338.618 1386.24 L338.654 1386.24 L338.695 1386.24 L338.741 1386.24 L338.793 1386.24 L338.851 1386.24 L338.916 1386.24 L338.99 1386.24 L339.073 1386.24 L339.166 1386.24 
  L339.271 1386.24 L339.389 1386.25 L339.521 1386.25 L339.671 1386.25 L339.839 1386.25 L340.028 1386.25 L340.237 1386.25 L340.465 1386.25 L340.71 1386.25 L340.972 1386.26 
  L341.249 1386.26 L341.54 1386.26 L341.843 1386.26 L342.156 1386.26 L342.48 1386.27 L342.814 1386.27 L343.157 1386.27 L343.51 1386.27 L343.871 1386.27 L344.238 1386.28 
  L344.608 1386.28 L344.983 1386.28 L345.363 1386.28 L345.749 1386.28 L346.142 1386.29 L346.539 1386.29 L346.941 1386.29 L347.349 1386.29 L347.761 1386.3 L348.178 1386.3 
  L348.599 1386.3 L349.025 1386.3 L349.458 1386.3 L349.896 1386.31 L350.334 1386.31 L350.779 1386.31 L351.226 1386.31 L351.676 1386.32 L352.127 1386.32 L352.581 1386.32 
  L353.04 1386.32 L353.503 1386.32 L353.97 1386.32 L354.441 1386.33 L354.918 1386.33 L355.401 1386.33 L355.885 1386.33 L356.371 1386.33 L356.859 1386.34 L357.349 1386.34 
  L357.845 1386.34 L358.343 1386.34 L358.843 1386.34 L359.344 1386.35 L359.845 1386.35 L360.347 1386.35 L360.849 1386.35 L361.354 1386.35 L361.862 1386.35 L362.37 1386.36 
  L362.88 1386.36 L363.393 1386.36 L363.907 1386.36 L364.423 1386.36 L364.941 1386.36 L365.46 1386.37 L365.982 1386.37 L366.506 1386.37 L367.037 1386.37 L367.574 1386.37 
  L368.119 1386.37 L368.672 1386.37 L369.23 1386.37 L369.79 1386.38 L370.357 1386.38 L370.928 1386.38 L371.5 1386.38 L372.078 1386.38 L372.663 1386.38 L373.258 1386.38 
  L373.863 1386.38 L374.483 1386.38 L375.114 1386.38 L375.752 1386.39 L376.401 1386.39 L377.061 1386.39 L377.733 1386.39 L378.421 1386.39 L379.128 1386.39 L379.855 1386.39 
  L380.603 1386.39 L381.368 1386.39 L382.161 1386.39 L382.982 1386.39 L383.826 1386.39 L384.681 1386.39 L385.555 1386.39 L386.446 1386.4 L387.364 1386.4 L388.304 1386.4 
  L389.276 1386.39 L390.289 1386.39 L391.361 1386.39 L392.468 1386.39 L393.619 1386.39 L394.84 1386.39 L396.094 1386.39 L397.339 1386.39 L398.604 1386.39 L399.92 1386.39 
  L401.315 1386.39 L402.785 1386.39 L404.25 1386.39 L405.731 1386.38 L407.261 1386.38 L408.805 1386.38 L410.391 1386.38 L411.909 1386.38 L413.371 1386.38 L414.816 1386.38 
  L416.319 1386.38 L417.868 1386.38 L419.394 1386.38 L420.957 1386.38 L422.569 1386.37 L424.202 1386.37 L425.875 1386.37 L427.547 1386.37 L429.233 1386.36 L431 1386.35 
  L432.733 1386.35 L434.534 1386.34 L436.469 1386.33 L438.537 1386.33 L440.743 1386.32 L443.03 1386.31 L445.335 1386.3 L447.678 1386.29 L450.118 1386.29 L452.824 1386.28 
  L455.686 1386.27 L458.906 1386.26 L462.529 1386.25 L466.439 1386.23 L470.765 1386.21 L474.634 1386.19 L478.66 1386.17 L482.179 1386.15 L485.862 1386.12 L489.33 1386.11 
  L492.937 1386.09 L496.691 1386.06 L500.915 1386.03 L505.667 1386 L511.012 1385.97 L516.567 1385.94 L522.817 1385.9 L529.847 1385.87 L537.03 1385.83 L545.111 1385.75 
  L549.965 1385.7 L555.426 1385.64 L560.701 1385.6 L566.636 1385.53 L571.925 1385.46 L577.876 1385.38 L584.571 1385.29 L591.131 1385.19 L596.261 1385.1 L602.032 1385 
  L608.525 1384.87 L615.202 1384.77 L622.025 1384.64 L628.153 1384.49 L635.048 1384.36 L642.803 1384.16 L651.529 1383.92 L657.66 1383.76 L664.558 1383.58 L672.318 1383.36 
  L678.738 1383.17 L685.49 1382.98 L693.086 1382.74 L700.82 1382.45 L706.872 1382.2 L710.739 1382.02 L714.929 1381.81 L718.951 1381.65 L722.687 1381.53 L726.668 1381.39 
  L730.473 1381.24 L734.506 1381.07 L739.043 1380.88 L744.147 1380.67 L749.889 1380.43 L754.176 1380.24 L758.998 1379.99 L764.424 1379.7 L770.527 1379.35 L777.394 1378.91 
  L783.689 1378.48 L790.77 1377.92 L798.224 1377.3 L806.023 1376.54 L814.796 1375.59 L822.295 1374.7 L830.731 1373.37 L837.583 1372.53 L844.447 1371.67 L852.106 1370.62 
  L857.292 1369.95 L861.531 1369.39 L866.077 1368.74 L870.354 1368.08 L874.909 1367.32 L880.034 1366.5 L884.777 1365.71 L890.114 1364.78 L896.118 1363.59 L902.873 1362.24 
  L910.472 1360.68 L918.607 1358.78 L927.759 1356.45 L938.01 1352.92 L949.012 1349.22 L960.514 1345.01 L970.547 1340.67 L978.71 1336.83 L987.1 1332.66 L993.365 1329.43 
  L999.083 1326.29 L1004.59 1323.21 L1010.18 1320.38 L1015.56 1318.17 L1020.99 1315.57 L1025.8 1313.01 L1030.78 1310.38 L1036.37 1307.24 L1042.04 1304.69 L1047.79 1302.09 
  L1053.73 1299.53 L1058.33 1297.27 L1062.37 1295.26 L1066.17 1291.96 L1069.36 1289.18 L1072.63 1286.25 L1076 1283.23 L1079.38 1280.19 L1082.75 1276.94 L1086.43 1273.11 
  L1090.2 1269.18 L1094.4 1264.05 L1098.79 1258.17 L1103.27 1253.26 L1107.85 1248.88 L1112.47 1244.52 L1117.13 1239.92 L1121.63 1235.32 L1126.26 1229.82 L1130.65 1224.32 
  L1135.09 1218.51 L1139.48 1212.57 L1143.83 1207.77 L1148.15 1202.09 L1152.42 1196.58 L1156.59 1190.63 L1160.74 1183.93 L1164.82 1176.83 L1168.87 1170.39 L1172.85 1165.31 
  L1176.78 1160.34 L1180.59 1155.64 L1184.3 1151.06 L1187.83 1146.73 L1191.33 1142.38 L1194.76 1138.14 L1198.23 1133.88 L1201.66 1129.8 L1205.05 1125.39 L1208.32 1120.8 
  L1211.56 1115.77 L1214.83 1110.26 L1218.02 1103.99 L1221.23 1097.8 L1224.41 1091.73 L1227.57 1085.67 L1230.7 1079.66 L1233.81 1073.87 L1236.91 1067.79 L1239.99 1060.23 
  L1243.05 1052.7 L1246.1 1045.22 L1249.13 1037.46 L1252.13 1029.66 L1255.09 1021.46 L1257.99 1013.36 L1260.92 1004.99 L1263.85 996.436 L1266.77 987.632 L1269.67 978.841 
  L1272.54 970.065 L1275.39 960.999 L1278.22 951.837 L1280.97 941.897 L1283.65 935.198 L1286.42 928.891 L1289.11 922.741 L1291.73 916.93 L1294.26 911.327 L1296.76 905.839 
  L1299.25 900.379 L1301.72 895.037 L1304.15 890.066 L1306.54 885.145 L1308.85 880.624 L1311.14 877.764 L1313.44 874.592 L1315.74 870.774 L1318.02 866.244 L1320.26 861.233 
  L1322.5 856.33 L1324.81 851.277 L1327.14 845.995 L1329.5 840.572 L1331.85 835.238 L1334.14 829.668 L1336.4 822.092 L1338.68 813.776 L1340.91 808.395 L1343.17 803.253 
  L1345.43 798.327 L1347.69 793.468 L1349.9 788.74 L1352.1 783.854 L1354.3 777.936 L1356.53 771.942 L1358.8 764.322 L1361.01 755.881 L1363.24 746.775 L1365.48 737.553 
  L1367.72 731.535 L1369.99 731.956 L1372.3 728.791 L1374.6 723.498 L1376.95 716.88 L1379.3 710.628 L1381.64 704.106 L1383.99 697.473 L1386.35 690.835 L1388.64 692.241 
  L1390.93 693.278 L1393.29 693.946 L1395.7 689.26 L1398.15 683.943 L1400.59 678.202 L1403.11 677.88 L1405.63 680.207 L1408.22 685.022 L1410.87 690.168 L1413.58 695.188 
  L1416.33 699.013 L1419.09 705.723 L1421.88 711.735 L1424.68 717.338 L1427.52 722.917 L1430.27 728.01 L1433.08 727.803 L1435.91 728.221 L1438.78 729.068 L1441.72 732.167 
  L1444.65 738.857 L1447.65 744.892 L1450.76 751.994 L1453.91 758.038 L1457.1 765.769 L1460.36 772.478 L1463.67 777.604 L1466.97 782.845 L1470.2 787.735 L1473.36 793.036 
  L1476.54 798.832 L1479.85 804.925 L1483.31 811.644 L1486.82 819.173 L1490.4 827.209 L1494.03 835.407 L1497.63 843.351 L1501.42 854.017 L1505.3 866.636 L1509.2 879.677 
  L1513.06 890.189 L1516.86 896.48 L1520.77 908.394 L1524.71 921.203 L1528.8 933.912 L1532.93 945.981 L1536.74 956.757 L1540.24 966.494 L1543.71 976.367 L1547.02 985.166 
  L1550.64 994.327 L1554.24 1003.07 L1557.84 1011.4 L1561.36 1017.68 L1565.15 1024.35 L1568.92 1030.5 L1572.49 1037.56 L1576.3 1047.61 L1580.44 1057.88 L1584.59 1067.59 
  L1588.83 1077.12 L1592.71 1084.64 L1597 1091.65 L1601.75 1099.15 L1606.71 1106.71 L1611.75 1114.07 L1617.31 1121.53 L1623.01 1129.33 L1629.42 1138.47 L1635.9 1148.11 
  L1642.73 1159.06 L1650.4 1170.94 L1658.25 1181.18 L1665.61 1189.53 L1673.88 1199.33 L1681.94 1209.11 L1688.24 1216.31 L1695.32 1224.93 L1700.77 1231.87 L1705.85 1237.91 
  L1710.77 1243.52 L1715.61 1248.68 L1720.24 1253.44 L1724.92 1258.08 L1730.18 1263 L1735.37 1267.79 L1741.21 1273.01 L1747.57 1278.43 L1753.67 1283.37 L1758.97 1287.52 
  L1764.93 1291.87 L1771.63 1296.48 L1778.98 1301.33 L1787.24 1306.65 L1794.73 1310.74 L1801.7 1314 L1809.03 1317.42 L1816.65 1320.96 L1822.84 1323.78 L1829.27 1326.56 
  L1836.51 1329.85 L1842.58 1332.66 L1847.94 1335.07 L1853.42 1337.42 L1858.7 1339.59 L1864.65 1341.96 L1871.33 1344.42 L1878.85 1346.87 L1886 1349.12 L1892.08 1350.94 
  L1896.97 1352.34 L1901.87 1353.7 L1906.76 1354.96 L1911.05 1356.02 L1915.08 1356.99 L1919.11 1357.89 L1922.87 1358.73 L1926.57 1359.52 L1930.04 1360.19 L1933.62 1360.86 
  L1937.42 1361.54 L1941.25 1362.22 L1945.32 1362.9 L1949.83 1363.61 L1954.91 1364.36 L1960.25 1365.11 L1966.27 1365.94 L1970.9 1366.57 L1976.11 1367.28 L1981.61 1368.03 
  L1987.8 1368.85 L1994.77 1369.71 L2002.6 1370.7 L2011.41 1371.76 L2015.94 1372.27 L2021.03 1372.83 L2025.76 1373.32 L2030.33 1373.79 L2035.25 1374.27 L2039.27 1374.63 
  L2043.31 1374.99 L2046.9 1375.3 L2050.41 1375.6 L2053.68 1375.87 L2056.95 1376.15 L2060.25 1376.41 L2063.61 1376.68 L2066.81 1376.92 L2069.79 1377.16 L2072.67 1377.37 
  L2075.38 1377.58 L2077.98 1377.77 L2080.53 1377.95 L2083.02 1378.12 L2085.55 1378.3 L2088.1 1378.46 L2090.63 1378.63 L2093.16 1378.79 L2095.69 1378.95 L2098.27 1379.12 
  L2100.88 1379.28 L2103.46 1379.43 L2106.02 1379.58 L2108.65 1379.73 L2111.49 1379.89 L2114.4 1380.05 L2117.54 1380.22 L2121.06 1380.41 L2125.03 1380.62 L2129.49 1380.85 
  L2134.51 1381.11 L2140.15 1381.38 L2146.5 1381.67 L2153.65 1381.99 L2161.68 1382.33 L2170.73 1382.68 L2175.81 1382.87 L2181.53 1383.07 L2186.93 1383.25 L2192.68 1383.44 
  L2199.16 1383.64 L2206.44 1383.85 L2212.83 1383.99 L2220.01 1384.15 L2228.09 1384.31 L2237.18 1384.48 L2244.97 1384.62 L2252.85 1384.76 L2259.39 1384.87 L2266.07 1384.98 
  L2273.54 1385.09 L2280.66 1385.19 L2288.67 1385.3 L2294.08 1385.37 L2294.08 1366.76 L2288.67 1366.07 L2280.66 1364.96 L2273.54 1363.9 L2266.07 1362.86 L2259.39 1361.99 
  L2252.85 1361.11 L2244.97 1360 L2237.18 1358.82 L2228.09 1357.42 L2220.01 1356.04 L2212.83 1354.77 L2206.44 1353.56 L2199.16 1352.13 L2192.68 1350.76 L2186.93 1349.54 
  L2181.53 1348.36 L2175.81 1347.1 L2170.73 1345.93 L2161.68 1343.77 L2153.65 1341.67 L2146.5 1339.66 L2140.15 1337.76 L2134.51 1335.94 L2129.49 1334.24 L2125.03 1332.69 
  L2121.06 1331.28 L2117.54 1329.97 L2114.4 1328.77 L2111.49 1327.6 L2108.65 1326.4 L2106.02 1325.27 L2103.46 1324.09 L2100.88 1322.89 L2098.27 1321.63 L2095.69 1320.36 
  L2093.16 1319.11 L2090.63 1317.81 L2088.1 1316.48 L2085.55 1315.09 L2083.02 1313.69 L2080.53 1312.33 L2077.98 1310.94 L2075.38 1309.52 L2072.67 1308.03 L2069.79 1306.41 
  L2066.81 1304.74 L2063.61 1303.1 L2060.25 1301.32 L2056.95 1299.55 L2053.68 1297.77 L2050.41 1295.99 L2046.9 1293.99 L2043.31 1292.07 L2039.27 1290.24 L2035.25 1288.35 
  L2030.33 1286 L2025.76 1283.82 L2021.03 1281.3 L2015.94 1278.56 L2011.41 1276.18 L2002.6 1271.74 L1994.77 1267.82 L1987.8 1264.3 L1981.61 1261.16 L1976.11 1258.24 
  L1970.9 1255.1 L1966.27 1252.35 L1960.25 1248.66 L1954.91 1245.22 L1949.83 1241.95 L1945.32 1238.98 L1941.25 1236.3 L1937.42 1233.78 L1933.62 1231.21 L1930.04 1228.66 
  L1926.57 1226.15 L1922.87 1222.52 L1919.11 1220.32 L1915.08 1217.45 L1911.05 1214.22 L1906.76 1210.25 L1901.87 1204.91 L1896.97 1198.68 L1892.08 1191.23 L1886 1184.42 
  L1878.85 1176.31 L1871.33 1166.34 L1864.65 1156.92 L1858.7 1148.3 L1853.42 1141.65 L1847.94 1136 L1842.58 1130.53 L1836.51 1124.37 L1829.27 1114.47 L1822.84 1103.68 
  L1816.65 1092.77 L1809.03 1078.2 L1801.7 1063.2 L1794.73 1048.61 L1787.24 1032.34 L1778.98 1014.43 L1771.63 999.957 L1764.93 986.51 L1758.97 974.583 L1753.67 963.593 
  L1747.57 949.993 L1741.21 935.92 L1735.37 926.316 L1730.18 917.793 L1724.92 909.974 L1720.24 898.655 L1715.61 885.327 L1710.77 871.151 L1705.85 856.764 L1700.77 842.226 
  L1695.32 827.694 L1688.24 810.569 L1681.94 795.785 L1673.88 772.931 L1665.61 745.557 L1658.25 721.709 L1650.4 695.297 L1642.73 669.603 L1635.9 653.847 L1629.42 640.345 
  L1623.01 629.068 L1617.31 619.652 L1611.75 611.354 L1606.71 607.446 L1601.75 596.153 L1597 584.824 L1592.71 574.187 L1588.83 560.264 L1584.59 550.816 L1580.44 542.779 
  L1576.3 536.376 L1572.49 529.007 L1568.92 522.873 L1565.15 516.849 L1561.36 509.326 L1557.84 500.063 L1554.24 490.762 L1550.64 481.479 L1547.02 472.038 L1543.71 463.167 
  L1540.24 453.745 L1536.74 447.193 L1532.93 443.038 L1528.8 436.992 L1524.71 434.368 L1520.77 432.204 L1516.86 431.376 L1513.06 427.198 L1509.2 417.63 L1505.3 408.775 
  L1501.42 399.987 L1497.63 391.913 L1494.03 385.138 L1490.4 378.462 L1486.82 375.656 L1483.31 374.504 L1479.85 373.498 L1476.54 372.268 L1473.36 368.049 L1470.2 362.557 
  L1466.97 357.48 L1463.67 351.318 L1460.36 344.741 L1457.1 338.715 L1453.91 333.955 L1450.76 336.213 L1447.65 331.506 L1444.65 327.937 L1441.72 326.315 L1438.78 326.091 
  L1435.91 323.771 L1433.08 320.739 L1430.27 310.949 L1427.52 309.079 L1424.68 302.467 L1421.88 302.42 L1419.09 298.057 L1416.33 294.281 L1413.58 289.593 L1410.87 282.857 
  L1408.22 278.988 L1405.63 276.495 L1403.11 273.856 L1400.59 271.476 L1398.15 269.433 L1395.7 267.836 L1393.29 267.243 L1390.93 267.117 L1388.64 266.837 L1386.35 266.936 
  L1383.99 267.834 L1381.64 269.077 L1379.3 269.146 L1376.95 262.262 L1374.6 255.205 L1372.3 248.321 L1369.99 241.596 L1367.72 234.946 L1365.48 228.582 L1363.24 228.665 
  L1361.01 232.319 L1358.8 225.618 L1356.53 219.303 L1354.3 213.466 L1352.1 207.332 L1349.9 207.654 L1347.69 200.733 L1345.43 192.923 L1343.17 185.962 L1340.91 180.144 
  L1338.68 175.296 L1336.4 172.33 L1334.14 169.937 L1331.85 166.987 L1329.5 162.853 L1327.14 160.256 L1324.81 161.18 L1322.5 162.099 L1320.26 167.249 L1318.02 173.159 
  L1315.74 179.657 L1313.44 186.864 L1311.14 194.509 L1308.85 202.107 L1306.54 209.684 L1304.15 218.12 L1301.72 228.173 L1299.25 238.884 L1296.76 249.849 L1294.26 261.552 
  L1291.73 259.913 L1289.11 255.925 L1286.42 252.235 L1283.65 249.138 L1280.97 247.073 L1278.22 245.745 L1275.39 245.265 L1272.54 245.289 L1269.67 244.547 L1266.77 243.02 
  L1263.85 242.1 L1260.92 241.638 L1257.99 241.065 L1255.09 239.633 L1252.13 237.852 L1249.13 236.602 L1246.1 247.527 L1243.05 260.69 L1239.99 273.395 L1236.91 286.311 
  L1233.81 299.35 L1230.7 312.621 L1227.57 327.012 L1224.41 342.899 L1221.23 362.323 L1218.02 377.859 L1214.83 396.47 L1211.56 412.726 L1208.32 421.009 L1205.05 430.491 
  L1201.66 441.563 L1198.23 452.899 L1194.76 469.633 L1191.33 487.278 L1187.83 503.128 L1184.3 516.827 L1180.59 530.602 L1176.78 543.144 L1172.85 557.113 L1168.87 569.776 
  L1164.82 584.426 L1160.74 600.11 L1156.59 618.057 L1152.42 637.028 L1148.15 656.4 L1143.83 675.415 L1139.48 694.355 L1135.09 711.952 L1130.65 732.068 L1126.26 751.379 
  L1121.63 773.817 L1117.13 797.842 L1112.47 824.62 L1107.85 849.53 L1103.27 865.821 L1098.79 888.737 L1094.4 909.554 L1090.2 927.023 L1086.43 940.987 L1082.75 955.028 
  L1079.38 967.753 L1076 979.096 L1072.63 990.109 L1069.36 1000.8 L1066.17 1010.53 L1062.37 1022.19 L1058.33 1034.52 L1053.73 1049.29 L1047.79 1063.32 L1042.04 1078.07 
  L1036.37 1090.5 L1030.78 1102.19 L1025.8 1112.22 L1020.99 1122.77 L1015.56 1136.84 L1010.18 1149.34 L1004.59 1161.77 L999.083 1174.78 L993.365 1186.45 L987.1 1198.95 
  L978.71 1211.95 L970.547 1225.43 L960.514 1238.14 L949.012 1252.86 L938.01 1266.05 L927.759 1278.84 L918.607 1287.46 L910.472 1294.41 L902.873 1300.47 L896.118 1305.64 
  L890.114 1310.39 L884.777 1314.76 L880.034 1318.34 L874.909 1322.03 L870.354 1325.17 L866.077 1328.23 L861.531 1330.88 L857.292 1333.33 L852.106 1336.37 L844.447 1340.35 
  L837.583 1343.39 L830.731 1346.37 L822.295 1349.78 L814.796 1352.28 L806.023 1355.23 L798.224 1357.61 L790.77 1359.61 L783.689 1361.29 L777.394 1362.6 L770.527 1364.21 
  L764.424 1365.47 L758.998 1366.55 L754.176 1367.47 L749.889 1368.28 L744.147 1369.34 L739.043 1370.29 L734.506 1371.05 L730.473 1371.66 L726.668 1372.22 L722.687 1372.81 
  L718.951 1373.34 L714.929 1373.87 L710.739 1374.42 L706.872 1374.93 L700.82 1375.56 L693.086 1376.23 L685.49 1376.87 L678.738 1377.6 L672.318 1378.2 L664.558 1378.71 
  L657.66 1379.28 L651.529 1379.65 L642.803 1380.16 L635.048 1380.61 L628.153 1381.01 L622.025 1381.36 L615.202 1381.73 L608.525 1382.08 L602.032 1382.43 L596.261 1382.74 
  L591.131 1383 L584.571 1383.3 L577.876 1383.55 L571.925 1383.76 L566.636 1383.93 L560.701 1384.11 L555.426 1384.26 L549.965 1384.41 L545.111 1384.55 L537.03 1384.81 
  L529.847 1385.01 L522.817 1385.15 L516.567 1385.25 L511.012 1385.32 L505.667 1385.4 L500.915 1385.47 L496.691 1385.53 L492.937 1385.56 L489.33 1385.61 L485.862 1385.66 
  L482.179 1385.7 L478.66 1385.75 L474.634 1385.8 L470.765 1385.84 L466.439 1385.89 L462.529 1385.93 L458.906 1385.97 L455.686 1386 L452.824 1386.02 L450.118 1386.04 
  L447.678 1386.06 L445.335 1386.08 L443.03 1386.09 L440.743 1386.11 L438.537 1386.13 L436.469 1386.14 L434.534 1386.15 L432.733 1386.17 L431 1386.18 L429.233 1386.19 
  L427.547 1386.2 L425.875 1386.21 L424.202 1386.21 L422.569 1386.22 L420.957 1386.23 L419.394 1386.24 L417.868 1386.24 L416.319 1386.25 L414.816 1386.25 L413.371 1386.26 
  L411.909 1386.26 L410.391 1386.27 L408.805 1386.27 L407.261 1386.28 L405.731 1386.28 L404.25 1386.28 L402.785 1386.29 L401.315 1386.29 L399.92 1386.3 L398.604 1386.3 
  L397.339 1386.3 L396.094 1386.31 L394.84 1386.31 L393.619 1386.31 L392.468 1386.32 L391.361 1386.32 L390.289 1386.32 L389.276 1386.32 L388.304 1386.32 L387.364 1386.32 
  L386.446 1386.33 L385.555 1386.33 L384.681 1386.33 L383.826 1386.33 L382.982 1386.33 L382.161 1386.33 L381.368 1386.33 L380.603 1386.33 L379.855 1386.33 L379.128 1386.33 
  L378.421 1386.33 L377.733 1386.33 L377.061 1386.33 L376.401 1386.33 L375.752 1386.33 L375.114 1386.33 L374.483 1386.33 L373.863 1386.33 L373.258 1386.33 L372.663 1386.33 
  L372.078 1386.33 L371.5 1386.33 L370.928 1386.33 L370.357 1386.33 L369.79 1386.33 L369.23 1386.33 L368.672 1386.33 L368.119 1386.33 L367.574 1386.33 L367.037 1386.33 
  L366.506 1386.33 L365.982 1386.33 L365.46 1386.33 L364.941 1386.33 L364.423 1386.33 L363.907 1386.33 L363.393 1386.33 L362.88 1386.33 L362.37 1386.33 L361.862 1386.33 
  L361.354 1386.33 L360.849 1386.33 L360.347 1386.33 L359.845 1386.32 L359.344 1386.32 L358.843 1386.32 L358.343 1386.32 L357.845 1386.32 L357.349 1386.32 L356.859 1386.32 
  L356.371 1386.32 L355.885 1386.31 L355.401 1386.31 L354.918 1386.31 L354.441 1386.31 L353.97 1386.31 L353.503 1386.31 L353.04 1386.31 L352.581 1386.31 L352.127 1386.3 
  L351.676 1386.3 L351.226 1386.3 L350.779 1386.3 L350.334 1386.3 L349.896 1386.3 L349.458 1386.3 L349.025 1386.29 L348.599 1386.29 L348.178 1386.29 L347.761 1386.29 
  L347.349 1386.29 L346.941 1386.29 L346.539 1386.28 L346.142 1386.28 L345.749 1386.28 L345.363 1386.28 L344.983 1386.28 L344.608 1386.27 L344.238 1386.27 L343.871 1386.27 
  L343.51 1386.27 L343.157 1386.27 L342.814 1386.27 L342.48 1386.26 L342.156 1386.26 L341.843 1386.26 L341.54 1386.26 L341.249 1386.26 L340.972 1386.25 L340.71 1386.25 
  L340.465 1386.25 L340.237 1386.25 L340.028 1386.25 L339.839 1386.25 L339.671 1386.25 L339.521 1386.25 L339.389 1386.24 L339.271 1386.24 L339.166 1386.24 L339.073 1386.24 
  L338.99 1386.24 L338.916 1386.24 L338.851 1386.24 L338.793 1386.24 L338.741 1386.24 L338.695 1386.24 L338.654 1386.24 L338.618 1386.24 L338.585 1386.24 L338.557 1386.24 
  L338.531 1386.24 L338.508 1386.24 L338.488 1386.24 L338.47 1386.24 L338.454 1386.24 L338.44 1386.24 L338.428 1386.24 L338.375 1386.24  Z
  " fill="#009af9" fill-rule="evenodd" fill-opacity="0.2"/>
<polyline clip-path="url(#clip492)" style="stroke:#009af9; stroke-linecap:butt; stroke-linejoin:round; stroke-width:12; stroke-opacity:1; fill:none" points="
  338.375,1386.24 338.428,1386.24 338.44,1386.24 338.454,1386.24 338.47,1386.24 338.488,1386.24 338.508,1386.24 338.531,1386.24 338.557,1386.24 338.585,1386.24 
  338.618,1386.24 338.654,1386.24 338.695,1386.24 338.741,1386.24 338.793,1386.24 338.851,1386.24 338.916,1386.24 338.99,1386.24 339.073,1386.24 339.166,1386.24 
  339.271,1386.24 339.389,1386.25 339.521,1386.25 339.671,1386.25 339.839,1386.25 340.028,1386.25 340.237,1386.25 340.465,1386.25 340.71,1386.25 340.972,1386.26 
  341.249,1386.26 341.54,1386.26 341.843,1386.26 342.156,1386.26 342.48,1386.26 342.814,1386.27 343.157,1386.27 343.51,1386.27 343.871,1386.27 344.238,1386.27 
  344.608,1386.28 344.983,1386.28 345.363,1386.28 345.749,1386.28 346.142,1386.28 346.539,1386.29 346.941,1386.29 347.349,1386.29 347.761,1386.29 348.178,1386.29 
  348.599,1386.3 349.025,1386.3 349.458,1386.3 349.896,1386.3 350.334,1386.3 350.779,1386.31 351.226,1386.31 351.676,1386.31 352.127,1386.31 352.581,1386.31 
  353.04,1386.31 353.503,1386.32 353.97,1386.32 354.441,1386.32 354.918,1386.32 355.401,1386.32 355.885,1386.32 356.371,1386.33 356.859,1386.33 357.349,1386.33 
  357.845,1386.33 358.343,1386.33 358.843,1386.33 359.344,1386.33 359.845,1386.34 360.347,1386.34 360.849,1386.34 361.354,1386.34 361.862,1386.34 362.37,1386.34 
  362.88,1386.34 363.393,1386.34 363.907,1386.34 364.423,1386.35 364.941,1386.35 365.46,1386.35 365.982,1386.35 366.506,1386.35 367.037,1386.35 367.574,1386.35 
  368.119,1386.35 368.672,1386.35 369.23,1386.35 369.79,1386.35 370.357,1386.36 370.928,1386.36 371.5,1386.36 372.078,1386.36 372.663,1386.36 373.258,1386.36 
  373.863,1386.36 374.483,1386.36 375.114,1386.36 375.752,1386.36 376.401,1386.36 377.061,1386.36 377.733,1386.36 378.421,1386.36 379.128,1386.36 379.855,1386.36 
  380.603,1386.36 381.368,1386.36 382.161,1386.36 382.982,1386.36 383.826,1386.36 384.681,1386.36 385.555,1386.36 386.446,1386.36 387.364,1386.36 388.304,1386.36 
  389.276,1386.36 390.289,1386.36 391.361,1386.36 392.468,1386.36 393.619,1386.35 394.84,1386.35 396.094,1386.35 397.339,1386.35 398.604,1386.35 399.92,1386.35 
  401.315,1386.34 402.785,1386.34 404.25,1386.34 405.731,1386.33 407.261,1386.33 408.805,1386.33 410.391,1386.32 411.909,1386.32 413.371,1386.32 414.816,1386.31 
  416.319,1386.31 417.868,1386.3 419.394,1386.3 420.957,1386.29 422.569,1386.29 424.202,1386.28 425.875,1386.28 427.547,1386.27 429.233,1386.27 431,1386.26 
  432.733,1386.25 434.534,1386.24 436.469,1386.24 438.537,1386.23 440.743,1386.22 443.03,1386.21 445.335,1386.19 447.678,1386.18 450.118,1386.17 452.824,1386.16 
  455.686,1386.14 458.906,1386.12 462.529,1386.1 466.439,1386.07 470.765,1386.04 474.634,1386.02 478.66,1385.99 482.179,1385.96 485.862,1385.93 489.33,1385.9 
  492.937,1385.87 496.691,1385.84 500.915,1385.8 505.667,1385.75 511.012,1385.69 516.567,1385.63 522.817,1385.55 529.847,1385.46 537.03,1385.35 545.111,1385.22 
  549.965,1385.14 555.426,1385.05 560.701,1384.95 566.636,1384.83 571.925,1384.72 577.876,1384.59 584.571,1384.43 591.131,1384.27 596.261,1384.13 602.032,1383.96 
  608.525,1383.77 615.202,1383.56 622.025,1383.33 628.153,1383.12 635.048,1382.86 642.803,1382.55 651.529,1382.17 657.66,1381.88 664.558,1381.53 672.318,1381.12 
  678.738,1380.75 685.49,1380.34 693.086,1379.85 700.82,1379.3 706.872,1378.85 710.739,1378.54 714.929,1378.19 718.951,1377.84 722.687,1377.51 726.668,1377.14 
  730.473,1376.76 734.506,1376.35 739.043,1375.86 744.147,1375.29 749.889,1374.62 754.176,1374.1 758.998,1373.49 764.424,1372.76 770.527,1371.89 777.394,1370.85 
  783.689,1369.83 790.77,1368.61 798.224,1367.25 806.023,1365.72 814.796,1363.87 822.295,1362.15 830.731,1360.06 837.583,1358.23 844.447,1356.26 852.106,1353.91 
  857.292,1352.24 861.531,1350.83 866.077,1349.27 870.354,1347.73 874.909,1346.01 880.034,1343.98 884.777,1342.03 890.114,1339.74 896.118,1337.07 902.873,1333.9 
  910.472,1330.08 918.607,1325.68 927.759,1320.38 938.01,1314.01 949.012,1306.56 960.514,1298 970.547,1289.77 978.71,1282.59 987.1,1274.79 993.365,1268.55 
  999.083,1262.5 1004.59,1256.44 1010.18,1250.02 1015.56,1243.54 1020.99,1236.72 1025.8,1230.43 1030.78,1223.69 1036.37,1215.86 1042.04,1207.66 1047.79,1199.03 
  1053.73,1189.79 1058.33,1182.31 1062.37,1175.61 1066.17,1169.14 1069.36,1163.59 1072.63,1157.73 1076,1151.48 1079.38,1145.08 1082.75,1138.57 1086.43,1131.37 
  1090.2,1123.85 1094.4,1115.31 1098.79,1106.12 1103.27,1096.4 1107.85,1086.22 1112.47,1075.8 1117.13,1065.01 1121.63,1054.3 1126.26,1043.11 1130.65,1032.38 
  1135.09,1021.32 1139.48,1010.24 1143.83,999.061 1148.15,987.768 1152.42,976.524 1156.59,965.469 1160.74,954.409 1164.82,943.456 1168.87,932.489 1172.85,921.56 
  1176.78,910.662 1180.59,900.055 1184.3,889.602 1187.83,879.631 1191.33,869.606 1194.76,859.807 1198.23,849.994 1201.66,840.461 1205.05,831.021 1208.32,821.948 
  1211.56,812.953 1214.83,803.883 1218.02,795.03 1221.23,786.214 1224.41,777.55 1227.57,769.02 1230.7,760.556 1233.81,752.211 1236.91,743.937 1239.99,735.759 
  1243.05,727.599 1246.1,719.479 1249.13,711.433 1252.13,703.409 1255.09,695.647 1257.99,688.167 1260.92,680.742 1263.85,673.397 1266.77,666.079 1269.67,658.782 
  1272.54,651.592 1275.39,644.516 1278.22,637.513 1280.97,630.694 1283.65,624.159 1286.42,617.631 1289.11,611.476 1291.73,605.654 1294.26,600.156 1296.76,594.885 
  1299.25,589.787 1301.72,584.891 1304.15,580.179 1306.54,575.696 1308.85,571.42 1311.14,567.245 1313.44,563.105 1315.74,559.08 1318.02,555.203 1320.26,551.504 
  1322.5,547.954 1324.81,544.497 1327.14,541.143 1329.5,537.922 1331.85,534.792 1334.14,531.849 1336.4,529.091 1338.68,526.449 1340.91,524.084 1343.17,521.876 
  1345.43,519.814 1347.69,517.917 1349.9,516.194 1352.1,514.631 1354.3,513.123 1356.53,511.675 1358.8,510.241 1361.01,508.99 1363.24,507.883 1365.48,506.843 
  1367.72,505.905 1369.99,505.034 1372.3,504.23 1374.6,503.488 1376.95,502.849 1379.3,502.34 1381.64,501.976 1383.99,501.788 1386.35,501.753 1388.64,501.841 
  1390.93,502.086 1393.29,502.457 1395.7,502.864 1398.15,503.359 1400.59,503.978 1403.11,504.744 1405.63,505.593 1408.22,506.606 1410.87,507.844 1413.58,509.31 
  1416.33,510.948 1419.09,512.661 1421.88,514.608 1424.68,516.753 1427.52,519.028 1430.27,521.278 1433.08,523.745 1435.91,526.344 1438.78,529.147 1441.72,532.194 
  1444.65,535.387 1447.65,538.797 1450.76,542.503 1453.91,546.548 1457.1,550.898 1460.36,555.512 1463.67,560.312 1466.97,565.212 1470.2,570.171 1473.36,575.224 
  1476.54,580.565 1479.85,586.439 1483.31,592.75 1486.82,599.242 1490.4,606.001 1494.03,613.024 1497.63,620.089 1501.42,627.702 1505.3,635.65 1509.2,643.709 
  1513.06,651.706 1516.86,659.749 1520.77,668.13 1524.71,676.743 1528.8,685.867 1532.93,695.059 1536.74,703.573 1540.24,711.447 1543.71,719.34 1547.02,726.902 
  1550.64,735.132 1554.24,743.441 1557.84,751.823 1561.36,760.056 1565.15,768.88 1568.92,777.609 1572.49,785.884 1576.3,794.749 1580.44,804.427 1584.59,814.194 
  1588.83,824.137 1592.71,833.194 1597,843.078 1601.75,853.883 1606.71,865.05 1611.75,876.258 1617.31,888.467 1623.01,900.862 1629.42,914.711 1635.9,928.687 
  1642.73,943.209 1650.4,959.237 1658.25,975.381 1665.61,990.143 1673.88,1006.3 1681.94,1021.51 1688.24,1033.1 1695.32,1045.78 1700.77,1055.36 1705.85,1064.17 
  1710.77,1072.56 1715.61,1080.65 1720.24,1088.23 1724.92,1095.71 1730.18,1103.89 1735.37,1111.82 1741.21,1120.59 1747.57,1129.9 1753.67,1138.59 1758.97,1145.98 
  1764.93,1154.1 1771.63,1162.96 1778.98,1172.39 1787.24,1182.63 1794.73,1191.56 1801.7,1199.58 1809.03,1207.68 1816.65,1215.72 1822.84,1221.97 1829.27,1228.22 
  1836.51,1235.02 1842.58,1240.53 1847.94,1245.22 1853.42,1249.87 1858.7,1254.23 1864.65,1258.96 1871.33,1264.1 1878.85,1269.67 1886,1274.76 1892.08,1278.95 
  1896.97,1282.22 1901.87,1285.41 1906.76,1288.48 1911.05,1291.09 1915.08,1293.48 1919.11,1295.8 1922.87,1297.92 1926.57,1299.94 1930.04,1301.8 1933.62,1303.68 
  1937.42,1305.63 1941.25,1307.55 1945.32,1309.54 1949.83,1311.7 1954.91,1314.04 1960.25,1316.43 1966.27,1319.02 1970.9,1320.93 1976.11,1323.03 1981.61,1325.17 
  1987.8,1327.48 1994.77,1329.98 2002.6,1332.65 2011.41,1335.52 2015.94,1336.94 2021.03,1338.5 2025.76,1339.9 2030.33,1341.23 2035.25,1342.62 2039.27,1343.73 
  2043.31,1344.82 2046.9,1345.77 2050.41,1346.67 2053.68,1347.5 2056.95,1348.3 2060.25,1349.1 2063.61,1349.9 2066.81,1350.64 2069.79,1351.31 2072.67,1351.96 
  2075.38,1352.55 2077.98,1353.11 2080.53,1353.66 2083.02,1354.18 2085.55,1354.7 2088.1,1355.22 2090.63,1355.73 2093.16,1356.22 2095.69,1356.71 2098.27,1357.2 
  2100.88,1357.68 2103.46,1358.16 2106.02,1358.62 2108.65,1359.08 2111.49,1359.58 2114.4,1360.08 2117.54,1360.61 2121.06,1361.19 2125.03,1361.83 2129.49,1362.54 
  2134.51,1363.31 2140.15,1364.14 2146.5,1365.04 2153.65,1366.01 2161.68,1367.05 2170.73,1368.16 2175.81,1368.75 2181.53,1369.4 2186.93,1369.99 2192.68,1370.6 
  2199.16,1371.26 2206.44,1371.98 2212.83,1372.57 2220.01,1373.21 2228.09,1373.9 2237.18,1374.62 2244.97,1375.21 2252.85,1375.77 2259.39,1376.22 2266.07,1376.67 
  2273.54,1377.15 2280.66,1377.59 2288.67,1378.06 2294.08,1378.37 
  "/>
<path clip-path="url(#clip490)" d="
M1567.83 270.476 L2283.65 270.476 L2283.65 166.796 L1567.83 166.796  Z
  " fill="#ffffff" fill-rule="evenodd" fill-opacity="1"/>
<polyline clip-path="url(#clip490)" style="stroke:#000000; stroke-linecap:butt; stroke-linejoin:round; stroke-width:4; stroke-opacity:1; fill:none" points="
  1567.83,270.476 2283.65,270.476 2283.65,166.796 1567.83,166.796 1567.83,270.476 
  "/>
<polyline clip-path="url(#clip490)" style="stroke:#009af9; stroke-linecap:butt; stroke-linejoin:round; stroke-width:4; stroke-opacity:1; fill:none" points="
  1590.87,218.636 1729.07,218.636 
  "/>
<path clip-path="url(#clip490)" d="M1752.1 201.356 L1759.07 201.356 L1767.89 224.874 L1776.76 201.356 L1783.72 201.356 L1783.72 235.916 L1779.16 235.916 L1779.16 205.569 L1770.25 229.272 L1765.55 229.272 L1756.64 205.569 L1756.64 235.916 L1752.1 235.916 L1752.1 201.356 Z" fill="#000000" fill-rule="evenodd" fill-opacity="1" /><path clip-path="url(#clip490)" d="M1792.82 209.99 L1797.08 209.99 L1797.08 235.916 L1792.82 235.916 L1792.82 209.99 M1792.82 199.897 L1797.08 199.897 L1797.08 205.291 L1792.82 205.291 L1792.82 199.897 Z" fill="#000000" fill-rule="evenodd" fill-opacity="1" /><path clip-path="url(#clip490)" d="M1823.05 213.925 L1823.05 199.897 L1827.31 199.897 L1827.31 235.916 L1823.05 235.916 L1823.05 232.027 Q1821.71 234.342 1819.65 235.476 Q1817.61 236.587 1814.74 236.587 Q1810.04 236.587 1807.08 232.837 Q1804.14 229.087 1804.14 222.976 Q1804.14 216.865 1807.08 213.115 Q1810.04 209.365 1814.74 209.365 Q1817.61 209.365 1819.65 210.499 Q1821.71 211.61 1823.05 213.925 M1808.54 222.976 Q1808.54 227.675 1810.46 230.36 Q1812.4 233.022 1815.78 233.022 Q1819.16 233.022 1821.11 230.36 Q1823.05 227.675 1823.05 222.976 Q1823.05 218.277 1821.11 215.615 Q1819.16 212.93 1815.78 212.93 Q1812.4 212.93 1810.46 215.615 Q1808.54 218.277 1808.54 222.976 Z" fill="#000000" fill-rule="evenodd" fill-opacity="1" /><path clip-path="url(#clip490)" d="M1853.14 213.925 L1853.14 199.897 L1857.4 199.897 L1857.4 235.916 L1853.14 235.916 L1853.14 232.027 Q1851.8 234.342 1849.74 235.476 Q1847.7 236.587 1844.83 236.587 Q1840.13 236.587 1837.17 232.837 Q1834.23 229.087 1834.23 222.976 Q1834.23 216.865 1837.17 213.115 Q1840.13 209.365 1844.83 209.365 Q1847.7 209.365 1849.74 210.499 Q1851.8 211.61 1853.14 213.925 M1838.63 222.976 Q1838.63 227.675 1840.55 230.36 Q1842.5 233.022 1845.88 233.022 Q1849.26 233.022 1851.2 230.36 Q1853.14 227.675 1853.14 222.976 Q1853.14 218.277 1851.2 215.615 Q1849.26 212.93 1845.88 212.93 Q1842.5 212.93 1840.55 215.615 Q1838.63 218.277 1838.63 222.976 Z" fill="#000000" fill-rule="evenodd" fill-opacity="1" /><path clip-path="url(#clip490)" d="M1866.18 199.897 L1870.44 199.897 L1870.44 235.916 L1866.18 235.916 L1866.18 199.897 Z" fill="#000000" fill-rule="evenodd" fill-opacity="1" /><path clip-path="url(#clip490)" d="M1901.52 221.888 L1901.52 223.971 L1881.94 223.971 Q1882.22 228.369 1884.58 230.684 Q1886.96 232.976 1891.2 232.976 Q1893.65 232.976 1895.94 232.374 Q1898.26 231.772 1900.53 230.569 L1900.53 234.596 Q1898.24 235.568 1895.83 236.078 Q1893.42 236.587 1890.94 236.587 Q1884.74 236.587 1881.11 232.976 Q1877.5 229.365 1877.5 223.207 Q1877.5 216.842 1880.92 213.115 Q1884.37 209.365 1890.2 209.365 Q1895.44 209.365 1898.47 212.745 Q1901.52 216.101 1901.52 221.888 M1897.26 220.638 Q1897.22 217.143 1895.3 215.059 Q1893.4 212.976 1890.25 212.976 Q1886.69 212.976 1884.53 214.99 Q1882.4 217.004 1882.08 220.661 L1897.26 220.638 Z" fill="#000000" fill-rule="evenodd" fill-opacity="1" /><path clip-path="url(#clip490)" d="M1924.32 235.198 L1924.32 230.939 Q1926.08 231.772 1927.89 232.212 Q1929.69 232.652 1931.43 232.652 Q1936.06 232.652 1938.49 229.55 Q1940.94 226.425 1941.29 220.082 Q1939.95 222.073 1937.89 223.138 Q1935.83 224.203 1933.33 224.203 Q1928.14 224.203 1925.11 221.078 Q1922.1 217.93 1922.1 212.49 Q1922.1 207.166 1925.25 203.948 Q1928.4 200.731 1933.63 200.731 Q1939.62 200.731 1942.77 205.337 Q1945.94 209.92 1945.94 218.67 Q1945.94 226.842 1942.06 231.726 Q1938.19 236.587 1931.64 236.587 Q1929.88 236.587 1928.07 236.24 Q1926.27 235.893 1924.32 235.198 M1933.63 220.545 Q1936.78 220.545 1938.61 218.393 Q1940.46 216.24 1940.46 212.49 Q1940.46 208.763 1938.61 206.61 Q1936.78 204.434 1933.63 204.434 Q1930.48 204.434 1928.63 206.61 Q1926.8 208.763 1926.8 212.49 Q1926.8 216.24 1928.63 218.393 Q1930.48 220.545 1933.63 220.545 Z" fill="#000000" fill-rule="evenodd" fill-opacity="1" /><path clip-path="url(#clip490)" d="M1954.39 201.356 L1972.75 201.356 L1972.75 205.291 L1958.68 205.291 L1958.68 213.763 Q1959.69 213.416 1960.71 213.254 Q1961.73 213.069 1962.75 213.069 Q1968.54 213.069 1971.92 216.24 Q1975.3 219.411 1975.3 224.828 Q1975.3 230.406 1971.82 233.508 Q1968.35 236.587 1962.03 236.587 Q1959.86 236.587 1957.59 236.217 Q1955.34 235.846 1952.94 235.106 L1952.94 230.406 Q1955.02 231.541 1957.24 232.096 Q1959.46 232.652 1961.94 232.652 Q1965.94 232.652 1968.28 230.545 Q1970.62 228.439 1970.62 224.828 Q1970.62 221.217 1968.28 219.11 Q1965.94 217.004 1961.94 217.004 Q1960.06 217.004 1958.19 217.42 Q1956.34 217.837 1954.39 218.717 L1954.39 201.356 Z" fill="#000000" fill-rule="evenodd" fill-opacity="1" /><path clip-path="url(#clip490)" d="M2013.91 220.707 Q2011.89 220.707 2010.74 222.42 Q2009.6 224.133 2009.6 227.189 Q2009.6 230.198 2010.74 231.934 Q2011.89 233.647 2013.91 233.647 Q2015.87 233.647 2017.01 231.934 Q2018.17 230.198 2018.17 227.189 Q2018.17 224.157 2017.01 222.444 Q2015.87 220.707 2013.91 220.707 M2013.91 217.768 Q2017.56 217.768 2019.72 220.314 Q2021.87 222.86 2021.87 227.189 Q2021.87 231.518 2019.69 234.064 Q2017.54 236.587 2013.91 236.587 Q2010.2 236.587 2008.05 234.064 Q2005.9 231.518 2005.9 227.189 Q2005.9 222.837 2008.05 220.314 Q2010.23 217.768 2013.91 217.768 M1990.02 203.671 Q1988.03 203.671 1986.87 205.407 Q1985.74 207.12 1985.74 210.129 Q1985.74 213.184 1986.87 214.897 Q1988 216.61 1990.02 216.61 Q1992.03 216.61 1993.17 214.897 Q1994.32 213.184 1994.32 210.129 Q1994.32 207.143 1993.17 205.407 Q1992.01 203.671 1990.02 203.671 M2010.92 200.731 L2014.62 200.731 L1993 236.587 L1989.3 236.587 L2010.92 200.731 M1990.02 200.731 Q1993.68 200.731 1995.85 203.277 Q1998.03 205.8 1998.03 210.129 Q1998.03 214.504 1995.85 217.027 Q1993.7 219.55 1990.02 219.55 Q1986.34 219.55 1984.18 217.027 Q1982.06 214.481 1982.06 210.129 Q1982.06 205.823 1984.21 203.277 Q1986.36 200.731 1990.02 200.731 Z" fill="#000000" fill-rule="evenodd" fill-opacity="1" /><path clip-path="url(#clip490)" d="M2058.24 204.527 Q2053.14 204.527 2050.13 208.323 Q2047.15 212.12 2047.15 218.67 Q2047.15 225.198 2050.13 228.994 Q2053.14 232.791 2058.24 232.791 Q2063.33 232.791 2066.29 228.994 Q2069.28 225.198 2069.28 218.67 Q2069.28 212.12 2066.29 208.323 Q2063.33 204.527 2058.24 204.527 M2064.79 235.291 L2070.94 242.027 L2065.3 242.027 L2060.18 236.494 Q2059.42 236.541 2059 236.564 Q2058.61 236.587 2058.24 236.587 Q2050.94 236.587 2046.57 231.726 Q2042.22 226.842 2042.22 218.67 Q2042.22 210.476 2046.57 205.615 Q2050.94 200.731 2058.24 200.731 Q2065.5 200.731 2069.86 205.615 Q2074.21 210.476 2074.21 218.67 Q2074.21 224.689 2071.78 228.971 Q2069.37 233.254 2064.79 235.291 Z" fill="#000000" fill-rule="evenodd" fill-opacity="1" /><path clip-path="url(#clip490)" d="M2080.9 225.684 L2080.9 209.99 L2085.16 209.99 L2085.16 225.522 Q2085.16 229.203 2086.59 231.055 Q2088.03 232.883 2090.9 232.883 Q2094.35 232.883 2096.34 230.684 Q2098.35 228.485 2098.35 224.689 L2098.35 209.99 L2102.61 209.99 L2102.61 235.916 L2098.35 235.916 L2098.35 231.934 Q2096.8 234.295 2094.74 235.453 Q2092.7 236.587 2089.99 236.587 Q2085.53 236.587 2083.21 233.809 Q2080.9 231.031 2080.9 225.684 M2091.61 209.365 L2091.61 209.365 Z" fill="#000000" fill-rule="evenodd" fill-opacity="1" /><path clip-path="url(#clip490)" d="M2123.17 222.883 Q2118 222.883 2116.01 224.064 Q2114.02 225.244 2114.02 228.092 Q2114.02 230.36 2115.5 231.703 Q2117.01 233.022 2119.58 233.022 Q2123.12 233.022 2125.25 230.522 Q2127.4 227.999 2127.4 223.832 L2127.4 222.883 L2123.17 222.883 M2131.66 221.124 L2131.66 235.916 L2127.4 235.916 L2127.4 231.981 Q2125.94 234.342 2123.77 235.476 Q2121.59 236.587 2118.44 236.587 Q2114.46 236.587 2112.1 234.365 Q2109.76 232.119 2109.76 228.369 Q2109.76 223.994 2112.68 221.772 Q2115.62 219.55 2121.43 219.55 L2127.4 219.55 L2127.4 219.133 Q2127.4 216.194 2125.46 214.596 Q2123.54 212.976 2120.04 212.976 Q2117.82 212.976 2115.71 213.508 Q2113.61 214.041 2111.66 215.106 L2111.66 211.17 Q2114 210.268 2116.2 209.828 Q2118.4 209.365 2120.48 209.365 Q2126.11 209.365 2128.88 212.282 Q2131.66 215.198 2131.66 221.124 Z" fill="#000000" fill-rule="evenodd" fill-opacity="1" /><path clip-path="url(#clip490)" d="M2161.98 220.268 L2161.98 235.916 L2157.73 235.916 L2157.73 220.407 Q2157.73 216.726 2156.29 214.897 Q2154.86 213.069 2151.98 213.069 Q2148.54 213.069 2146.55 215.268 Q2144.55 217.467 2144.55 221.263 L2144.55 235.916 L2140.27 235.916 L2140.27 209.99 L2144.55 209.99 L2144.55 214.018 Q2146.08 211.68 2148.14 210.522 Q2150.23 209.365 2152.93 209.365 Q2157.4 209.365 2159.69 212.143 Q2161.98 214.897 2161.98 220.268 Z" fill="#000000" fill-rule="evenodd" fill-opacity="1" /><path clip-path="url(#clip490)" d="M2174.69 202.629 L2174.69 209.99 L2183.47 209.99 L2183.47 213.3 L2174.69 213.3 L2174.69 227.374 Q2174.69 230.545 2175.55 231.448 Q2176.43 232.351 2179.09 232.351 L2183.47 232.351 L2183.47 235.916 L2179.09 235.916 Q2174.16 235.916 2172.29 234.087 Q2170.41 232.235 2170.41 227.374 L2170.41 213.3 L2167.29 213.3 L2167.29 209.99 L2170.41 209.99 L2170.41 202.629 L2174.69 202.629 Z" fill="#000000" fill-rule="evenodd" fill-opacity="1" /><path clip-path="url(#clip490)" d="M2189.07 209.99 L2193.33 209.99 L2193.33 235.916 L2189.07 235.916 L2189.07 209.99 M2189.07 199.897 L2193.33 199.897 L2193.33 205.291 L2189.07 205.291 L2189.07 199.897 Z" fill="#000000" fill-rule="evenodd" fill-opacity="1" /><path clip-path="url(#clip490)" d="M2202.24 199.897 L2206.5 199.897 L2206.5 235.916 L2202.24 235.916 L2202.24 199.897 Z" fill="#000000" fill-rule="evenodd" fill-opacity="1" /><path clip-path="url(#clip490)" d="M2237.59 221.888 L2237.59 223.971 L2218 223.971 Q2218.28 228.369 2220.64 230.684 Q2223.03 232.976 2227.26 232.976 Q2229.72 232.976 2232.01 232.374 Q2234.32 231.772 2236.59 230.569 L2236.59 234.596 Q2234.3 235.568 2231.89 236.078 Q2229.48 236.587 2227.01 236.587 Q2220.8 236.587 2217.17 232.976 Q2213.56 229.365 2213.56 223.207 Q2213.56 216.842 2216.98 213.115 Q2220.43 209.365 2226.27 209.365 Q2231.5 209.365 2234.53 212.745 Q2237.59 216.101 2237.59 221.888 M2233.33 220.638 Q2233.28 217.143 2231.36 215.059 Q2229.46 212.976 2226.31 212.976 Q2222.75 212.976 2220.6 214.99 Q2218.47 217.004 2218.14 220.661 L2233.33 220.638 Z" fill="#000000" fill-rule="evenodd" fill-opacity="1" /></svg>
