<?xml version="1.0" encoding="utf-8"?>
<svg xmlns="http://www.w3.org/2000/svg" xmlns:xlink="http://www.w3.org/1999/xlink" width="600" height="400" viewBox="0 0 2400 1600">
<defs>
  <clipPath id="clip290">
    <rect x="0" y="0" width="2400" height="1600"/>
  </clipPath>
</defs>
<path clip-path="url(#clip290)" d="
M0 1600 L2400 1600 L2400 0 L0 0  Z
  " fill="#ffffff" fill-rule="evenodd" fill-opacity="1"/>
<defs>
  <clipPath id="clip291">
    <rect x="480" y="0" width="1681" height="1600"/>
  </clipPath>
</defs>
<path clip-path="url(#clip290)" d="
M250.028 1423.18 L2352.76 1423.18 L2352.76 123.472 L250.028 123.472  Z
  " fill="#ffffff" fill-rule="evenodd" fill-opacity="1"/>
<defs>
  <clipPath id="clip292">
    <rect x="250" y="123" width="2104" height="1301"/>
  </clipPath>
</defs>
<polyline clip-path="url(#clip292)" style="stroke:#000000; stroke-linecap:butt; stroke-linejoin:round; stroke-width:2; stroke-opacity:0.1; fill:none" points="
  250.028,1423.18 250.028,123.472 
  "/>
<polyline clip-path="url(#clip292)" style="stroke:#000000; stroke-linecap:butt; stroke-linejoin:round; stroke-width:2; stroke-opacity:0.1; fill:none" points="
  632.342,1423.18 632.342,123.472 
  "/>
<polyline clip-path="url(#clip292)" style="stroke:#000000; stroke-linecap:butt; stroke-linejoin:round; stroke-width:2; stroke-opacity:0.1; fill:none" points="
  1014.66,1423.18 1014.66,123.472 
  "/>
<polyline clip-path="url(#clip292)" style="stroke:#000000; stroke-linecap:butt; stroke-linejoin:round; stroke-width:2; stroke-opacity:0.1; fill:none" points="
  1396.97,1423.18 1396.97,123.472 
  "/>
<polyline clip-path="url(#clip292)" style="stroke:#000000; stroke-linecap:butt; stroke-linejoin:round; stroke-width:2; stroke-opacity:0.1; fill:none" points="
  1779.28,1423.18 1779.28,123.472 
  "/>
<polyline clip-path="url(#clip292)" style="stroke:#000000; stroke-linecap:butt; stroke-linejoin:round; stroke-width:2; stroke-opacity:0.1; fill:none" points="
  2161.6,1423.18 2161.6,123.472 
  "/>
<polyline clip-path="url(#clip290)" style="stroke:#000000; stroke-linecap:butt; stroke-linejoin:round; stroke-width:4; stroke-opacity:1; fill:none" points="
  250.028,1423.18 2352.76,1423.18 
  "/>
<polyline clip-path="url(#clip290)" style="stroke:#000000; stroke-linecap:butt; stroke-linejoin:round; stroke-width:4; stroke-opacity:1; fill:none" points="
  250.028,1423.18 250.028,1404.28 
  "/>
<polyline clip-path="url(#clip290)" style="stroke:#000000; stroke-linecap:butt; stroke-linejoin:round; stroke-width:4; stroke-opacity:1; fill:none" points="
  632.342,1423.18 632.342,1404.28 
  "/>
<polyline clip-path="url(#clip290)" style="stroke:#000000; stroke-linecap:butt; stroke-linejoin:round; stroke-width:4; stroke-opacity:1; fill:none" points="
  1014.66,1423.18 1014.66,1404.28 
  "/>
<polyline clip-path="url(#clip290)" style="stroke:#000000; stroke-linecap:butt; stroke-linejoin:round; stroke-width:4; stroke-opacity:1; fill:none" points="
  1396.97,1423.18 1396.97,1404.28 
  "/>
<polyline clip-path="url(#clip290)" style="stroke:#000000; stroke-linecap:butt; stroke-linejoin:round; stroke-width:4; stroke-opacity:1; fill:none" points="
  1779.28,1423.18 1779.28,1404.28 
  "/>
<polyline clip-path="url(#clip290)" style="stroke:#000000; stroke-linecap:butt; stroke-linejoin:round; stroke-width:4; stroke-opacity:1; fill:none" points="
  2161.6,1423.18 2161.6,1404.28 
  "/>
<path clip-path="url(#clip290)" d="M250.028 1454.1 Q246.417 1454.1 244.588 1457.66 Q242.783 1461.2 242.783 1468.33 Q242.783 1475.44 244.588 1479.01 Q246.417 1482.55 250.028 1482.55 Q253.662 1482.55 255.468 1479.01 Q257.297 1475.44 257.297 1468.33 Q257.297 1461.2 255.468 1457.66 Q253.662 1454.1 250.028 1454.1 M250.028 1450.39 Q255.838 1450.39 258.894 1455 Q261.973 1459.58 261.973 1468.33 Q261.973 1477.06 258.894 1481.67 Q255.838 1486.25 250.028 1486.25 Q244.218 1486.25 241.139 1481.67 Q238.084 1477.06 238.084 1468.33 Q238.084 1459.58 241.139 1455 Q244.218 1450.39 250.028 1450.39 Z" fill="#000000" fill-rule="evenodd" fill-opacity="1" /><path clip-path="url(#clip290)" d="M591.949 1481.64 L599.588 1481.64 L599.588 1455.28 L591.278 1456.95 L591.278 1452.69 L599.542 1451.02 L604.217 1451.02 L604.217 1481.64 L611.856 1481.64 L611.856 1485.58 L591.949 1485.58 L591.949 1481.64 Z" fill="#000000" fill-rule="evenodd" fill-opacity="1" /><path clip-path="url(#clip290)" d="M631.301 1454.1 Q627.69 1454.1 625.861 1457.66 Q624.055 1461.2 624.055 1468.33 Q624.055 1475.44 625.861 1479.01 Q627.69 1482.55 631.301 1482.55 Q634.935 1482.55 636.74 1479.01 Q638.569 1475.44 638.569 1468.33 Q638.569 1461.2 636.74 1457.66 Q634.935 1454.1 631.301 1454.1 M631.301 1450.39 Q637.111 1450.39 640.166 1455 Q643.245 1459.58 643.245 1468.33 Q643.245 1477.06 640.166 1481.67 Q637.111 1486.25 631.301 1486.25 Q625.49 1486.25 622.412 1481.67 Q619.356 1477.06 619.356 1468.33 Q619.356 1459.58 622.412 1455 Q625.49 1450.39 631.301 1450.39 Z" fill="#000000" fill-rule="evenodd" fill-opacity="1" /><path clip-path="url(#clip290)" d="M661.462 1454.1 Q657.851 1454.1 656.023 1457.66 Q654.217 1461.2 654.217 1468.33 Q654.217 1475.44 656.023 1479.01 Q657.851 1482.55 661.462 1482.55 Q665.097 1482.55 666.902 1479.01 Q668.731 1475.44 668.731 1468.33 Q668.731 1461.2 666.902 1457.66 Q665.097 1454.1 661.462 1454.1 M661.462 1450.39 Q667.273 1450.39 670.328 1455 Q673.407 1459.58 673.407 1468.33 Q673.407 1477.06 670.328 1481.67 Q667.273 1486.25 661.462 1486.25 Q655.652 1486.25 652.574 1481.67 Q649.518 1477.06 649.518 1468.33 Q649.518 1459.58 652.574 1455 Q655.652 1450.39 661.462 1450.39 Z" fill="#000000" fill-rule="evenodd" fill-opacity="1" /><path clip-path="url(#clip290)" d="M978.349 1481.64 L994.668 1481.64 L994.668 1485.58 L972.724 1485.58 L972.724 1481.64 Q975.386 1478.89 979.969 1474.26 Q984.576 1469.61 985.756 1468.27 Q988.001 1465.74 988.881 1464.01 Q989.784 1462.25 989.784 1460.56 Q989.784 1457.8 987.839 1456.07 Q985.918 1454.33 982.816 1454.33 Q980.617 1454.33 978.164 1455.09 Q975.733 1455.86 972.955 1457.41 L972.955 1452.69 Q975.779 1451.55 978.233 1450.97 Q980.687 1450.39 982.724 1450.39 Q988.094 1450.39 991.288 1453.08 Q994.483 1455.77 994.483 1460.26 Q994.483 1462.39 993.673 1464.31 Q992.886 1466.2 990.779 1468.8 Q990.201 1469.47 987.099 1472.69 Q983.997 1475.88 978.349 1481.64 Z" fill="#000000" fill-rule="evenodd" fill-opacity="1" /><path clip-path="url(#clip290)" d="M1014.48 1454.1 Q1010.87 1454.1 1009.04 1457.66 Q1007.24 1461.2 1007.24 1468.33 Q1007.24 1475.44 1009.04 1479.01 Q1010.87 1482.55 1014.48 1482.55 Q1018.12 1482.55 1019.92 1479.01 Q1021.75 1475.44 1021.75 1468.33 Q1021.75 1461.2 1019.92 1457.66 Q1018.12 1454.1 1014.48 1454.1 M1014.48 1450.39 Q1020.29 1450.39 1023.35 1455 Q1026.43 1459.58 1026.43 1468.33 Q1026.43 1477.06 1023.35 1481.67 Q1020.29 1486.25 1014.48 1486.25 Q1008.67 1486.25 1005.59 1481.67 Q1002.54 1477.06 1002.54 1468.33 Q1002.54 1459.58 1005.59 1455 Q1008.67 1450.39 1014.48 1450.39 Z" fill="#000000" fill-rule="evenodd" fill-opacity="1" /><path clip-path="url(#clip290)" d="M1044.64 1454.1 Q1041.03 1454.1 1039.2 1457.66 Q1037.4 1461.2 1037.4 1468.33 Q1037.4 1475.44 1039.2 1479.01 Q1041.03 1482.55 1044.64 1482.55 Q1048.28 1482.55 1050.08 1479.01 Q1051.91 1475.44 1051.91 1468.33 Q1051.91 1461.2 1050.08 1457.66 Q1048.28 1454.1 1044.64 1454.1 M1044.64 1450.39 Q1050.45 1450.39 1053.51 1455 Q1056.59 1459.58 1056.59 1468.33 Q1056.59 1477.06 1053.51 1481.67 Q1050.45 1486.25 1044.64 1486.25 Q1038.83 1486.25 1035.76 1481.67 Q1032.7 1477.06 1032.7 1468.33 Q1032.7 1459.58 1035.76 1455 Q1038.83 1450.39 1044.64 1450.39 Z" fill="#000000" fill-rule="evenodd" fill-opacity="1" /><path clip-path="url(#clip290)" d="M1370.73 1466.95 Q1374.09 1467.66 1375.96 1469.93 Q1377.86 1472.2 1377.86 1475.53 Q1377.86 1480.65 1374.34 1483.45 Q1370.82 1486.25 1364.34 1486.25 Q1362.17 1486.25 1359.85 1485.81 Q1357.56 1485.39 1355.11 1484.54 L1355.11 1480.02 Q1357.05 1481.16 1359.37 1481.74 Q1361.68 1482.32 1364.2 1482.32 Q1368.6 1482.32 1370.89 1480.58 Q1373.21 1478.84 1373.21 1475.53 Q1373.21 1472.48 1371.06 1470.77 Q1368.93 1469.03 1365.11 1469.03 L1361.08 1469.03 L1361.08 1465.19 L1365.29 1465.19 Q1368.74 1465.19 1370.57 1463.82 Q1372.4 1462.43 1372.4 1459.84 Q1372.4 1457.18 1370.5 1455.77 Q1368.63 1454.33 1365.11 1454.33 Q1363.19 1454.33 1360.99 1454.75 Q1358.79 1455.16 1356.15 1456.04 L1356.15 1451.88 Q1358.81 1451.14 1361.13 1450.77 Q1363.46 1450.39 1365.52 1450.39 Q1370.85 1450.39 1373.95 1452.83 Q1377.05 1455.23 1377.05 1459.35 Q1377.05 1462.22 1375.41 1464.21 Q1373.76 1466.18 1370.73 1466.95 Z" fill="#000000" fill-rule="evenodd" fill-opacity="1" /><path clip-path="url(#clip290)" d="M1396.73 1454.1 Q1393.12 1454.1 1391.29 1457.66 Q1389.48 1461.2 1389.48 1468.33 Q1389.48 1475.44 1391.29 1479.01 Q1393.12 1482.55 1396.73 1482.55 Q1400.36 1482.55 1402.17 1479.01 Q1404 1475.44 1404 1468.33 Q1404 1461.2 1402.17 1457.66 Q1400.36 1454.1 1396.73 1454.1 M1396.73 1450.39 Q1402.54 1450.39 1405.59 1455 Q1408.67 1459.58 1408.67 1468.33 Q1408.67 1477.06 1405.59 1481.67 Q1402.54 1486.25 1396.73 1486.25 Q1390.92 1486.25 1387.84 1481.67 Q1384.78 1477.06 1384.78 1468.33 Q1384.78 1459.58 1387.84 1455 Q1390.92 1450.39 1396.73 1450.39 Z" fill="#000000" fill-rule="evenodd" fill-opacity="1" /><path clip-path="url(#clip290)" d="M1426.89 1454.1 Q1423.28 1454.1 1421.45 1457.66 Q1419.64 1461.2 1419.64 1468.33 Q1419.64 1475.44 1421.45 1479.01 Q1423.28 1482.55 1426.89 1482.55 Q1430.52 1482.55 1432.33 1479.01 Q1434.16 1475.44 1434.16 1468.33 Q1434.16 1461.2 1432.33 1457.66 Q1430.52 1454.1 1426.89 1454.1 M1426.89 1450.39 Q1432.7 1450.39 1435.76 1455 Q1438.83 1459.58 1438.83 1468.33 Q1438.83 1477.06 1435.76 1481.67 Q1432.7 1486.25 1426.89 1486.25 Q1421.08 1486.25 1418 1481.67 Q1414.94 1477.06 1414.94 1468.33 Q1414.94 1459.58 1418 1455 Q1421.08 1450.39 1426.89 1450.39 Z" fill="#000000" fill-rule="evenodd" fill-opacity="1" /><path clip-path="url(#clip290)" d="M1752.38 1455.09 L1740.57 1473.54 L1752.38 1473.54 L1752.38 1455.09 M1751.15 1451.02 L1757.03 1451.02 L1757.03 1473.54 L1761.96 1473.54 L1761.96 1477.43 L1757.03 1477.43 L1757.03 1485.58 L1752.38 1485.58 L1752.38 1477.43 L1736.77 1477.43 L1736.77 1472.92 L1751.15 1451.02 Z" fill="#000000" fill-rule="evenodd" fill-opacity="1" /><path clip-path="url(#clip290)" d="M1779.69 1454.1 Q1776.08 1454.1 1774.25 1457.66 Q1772.44 1461.2 1772.44 1468.33 Q1772.44 1475.44 1774.25 1479.01 Q1776.08 1482.55 1779.69 1482.55 Q1783.32 1482.55 1785.13 1479.01 Q1786.96 1475.44 1786.96 1468.33 Q1786.96 1461.2 1785.13 1457.66 Q1783.32 1454.1 1779.69 1454.1 M1779.69 1450.39 Q1785.5 1450.39 1788.56 1455 Q1791.63 1459.58 1791.63 1468.33 Q1791.63 1477.06 1788.56 1481.67 Q1785.5 1486.25 1779.69 1486.25 Q1773.88 1486.25 1770.8 1481.67 Q1767.75 1477.06 1767.75 1468.33 Q1767.75 1459.58 1770.8 1455 Q1773.88 1450.39 1779.69 1450.39 Z" fill="#000000" fill-rule="evenodd" fill-opacity="1" /><path clip-path="url(#clip290)" d="M1809.85 1454.1 Q1806.24 1454.1 1804.41 1457.66 Q1802.61 1461.2 1802.61 1468.33 Q1802.61 1475.44 1804.41 1479.01 Q1806.24 1482.55 1809.85 1482.55 Q1813.49 1482.55 1815.29 1479.01 Q1817.12 1475.44 1817.12 1468.33 Q1817.12 1461.2 1815.29 1457.66 Q1813.49 1454.1 1809.85 1454.1 M1809.85 1450.39 Q1815.66 1450.39 1818.72 1455 Q1821.8 1459.58 1821.8 1468.33 Q1821.8 1477.06 1818.72 1481.67 Q1815.66 1486.25 1809.85 1486.25 Q1804.04 1486.25 1800.96 1481.67 Q1797.91 1477.06 1797.91 1468.33 Q1797.91 1459.58 1800.96 1455 Q1804.04 1450.39 1809.85 1450.39 Z" fill="#000000" fill-rule="evenodd" fill-opacity="1" /><path clip-path="url(#clip290)" d="M2121.22 1451.02 L2139.57 1451.02 L2139.57 1454.96 L2125.5 1454.96 L2125.5 1463.43 Q2126.52 1463.08 2127.54 1462.92 Q2128.56 1462.73 2129.57 1462.73 Q2135.36 1462.73 2138.74 1465.9 Q2142.12 1469.08 2142.12 1474.49 Q2142.12 1480.07 2138.65 1483.17 Q2135.18 1486.25 2128.86 1486.25 Q2126.68 1486.25 2124.41 1485.88 Q2122.17 1485.51 2119.76 1484.77 L2119.76 1480.07 Q2121.84 1481.2 2124.06 1481.76 Q2126.29 1482.32 2128.76 1482.32 Q2132.77 1482.32 2135.11 1480.21 Q2137.44 1478.1 2137.44 1474.49 Q2137.44 1470.88 2135.11 1468.77 Q2132.77 1466.67 2128.76 1466.67 Q2126.89 1466.67 2125.01 1467.08 Q2123.16 1467.5 2121.22 1468.38 L2121.22 1451.02 Z" fill="#000000" fill-rule="evenodd" fill-opacity="1" /><path clip-path="url(#clip290)" d="M2161.33 1454.1 Q2157.72 1454.1 2155.89 1457.66 Q2154.09 1461.2 2154.09 1468.33 Q2154.09 1475.44 2155.89 1479.01 Q2157.72 1482.55 2161.33 1482.55 Q2164.97 1482.55 2166.77 1479.01 Q2168.6 1475.44 2168.6 1468.33 Q2168.6 1461.2 2166.77 1457.66 Q2164.97 1454.1 2161.33 1454.1 M2161.33 1450.39 Q2167.14 1450.39 2170.2 1455 Q2173.28 1459.58 2173.28 1468.33 Q2173.28 1477.06 2170.2 1481.67 Q2167.14 1486.25 2161.33 1486.25 Q2155.52 1486.25 2152.44 1481.67 Q2149.39 1477.06 2149.39 1468.33 Q2149.39 1459.58 2152.44 1455 Q2155.52 1450.39 2161.33 1450.39 Z" fill="#000000" fill-rule="evenodd" fill-opacity="1" /><path clip-path="url(#clip290)" d="M2191.49 1454.1 Q2187.88 1454.1 2186.05 1457.66 Q2184.25 1461.2 2184.25 1468.33 Q2184.25 1475.44 2186.05 1479.01 Q2187.88 1482.55 2191.49 1482.55 Q2195.13 1482.55 2196.93 1479.01 Q2198.76 1475.44 2198.76 1468.33 Q2198.76 1461.2 2196.93 1457.66 Q2195.13 1454.1 2191.49 1454.1 M2191.49 1450.39 Q2197.3 1450.39 2200.36 1455 Q2203.44 1459.58 2203.44 1468.33 Q2203.44 1477.06 2200.36 1481.67 Q2197.3 1486.25 2191.49 1486.25 Q2185.68 1486.25 2182.61 1481.67 Q2179.55 1477.06 2179.55 1468.33 Q2179.55 1459.58 2182.61 1455 Q2185.68 1450.39 2191.49 1450.39 Z" fill="#000000" fill-rule="evenodd" fill-opacity="1" /><path clip-path="url(#clip290)" d="M1300.45 1522.27 L1300.45 1532.4 L1312.52 1532.4 L1312.52 1536.95 L1300.45 1536.95 L1300.45 1556.3 Q1300.45 1560.66 1301.63 1561.9 Q1302.84 1563.14 1306.5 1563.14 L1312.52 1563.14 L1312.52 1568.04 L1306.5 1568.04 Q1299.72 1568.04 1297.14 1565.53 Q1294.56 1562.98 1294.56 1556.3 L1294.56 1536.95 L1290.27 1536.95 L1290.27 1532.4 L1294.56 1532.4 L1294.56 1522.27 L1300.45 1522.27 Z" fill="#000000" fill-rule="evenodd" fill-opacity="1" /><polyline clip-path="url(#clip292)" style="stroke:#000000; stroke-linecap:butt; stroke-linejoin:round; stroke-width:2; stroke-opacity:0.1; fill:none" points="
  250.028,1387.25 2352.76,1387.25 
  "/>
<polyline clip-path="url(#clip292)" style="stroke:#000000; stroke-linecap:butt; stroke-linejoin:round; stroke-width:2; stroke-opacity:0.1; fill:none" points="
  250.028,1129.51 2352.76,1129.51 
  "/>
<polyline clip-path="url(#clip292)" style="stroke:#000000; stroke-linecap:butt; stroke-linejoin:round; stroke-width:2; stroke-opacity:0.1; fill:none" points="
  250.028,871.762 2352.76,871.762 
  "/>
<polyline clip-path="url(#clip292)" style="stroke:#000000; stroke-linecap:butt; stroke-linejoin:round; stroke-width:2; stroke-opacity:0.1; fill:none" points="
  250.028,614.018 2352.76,614.018 
  "/>
<polyline clip-path="url(#clip292)" style="stroke:#000000; stroke-linecap:butt; stroke-linejoin:round; stroke-width:2; stroke-opacity:0.1; fill:none" points="
  250.028,356.273 2352.76,356.273 
  "/>
<polyline clip-path="url(#clip290)" style="stroke:#000000; stroke-linecap:butt; stroke-linejoin:round; stroke-width:4; stroke-opacity:1; fill:none" points="
  250.028,1423.18 250.028,123.472 
  "/>
<polyline clip-path="url(#clip290)" style="stroke:#000000; stroke-linecap:butt; stroke-linejoin:round; stroke-width:4; stroke-opacity:1; fill:none" points="
  250.028,1387.25 268.926,1387.25 
  "/>
<polyline clip-path="url(#clip290)" style="stroke:#000000; stroke-linecap:butt; stroke-linejoin:round; stroke-width:4; stroke-opacity:1; fill:none" points="
  250.028,1129.51 268.926,1129.51 
  "/>
<polyline clip-path="url(#clip290)" style="stroke:#000000; stroke-linecap:butt; stroke-linejoin:round; stroke-width:4; stroke-opacity:1; fill:none" points="
  250.028,871.762 268.926,871.762 
  "/>
<polyline clip-path="url(#clip290)" style="stroke:#000000; stroke-linecap:butt; stroke-linejoin:round; stroke-width:4; stroke-opacity:1; fill:none" points="
  250.028,614.018 268.926,614.018 
  "/>
<polyline clip-path="url(#clip290)" style="stroke:#000000; stroke-linecap:butt; stroke-linejoin:round; stroke-width:4; stroke-opacity:1; fill:none" points="
  250.028,356.273 268.926,356.273 
  "/>
<path clip-path="url(#clip290)" d="M126.691 1373.05 Q123.08 1373.05 121.251 1376.61 Q119.445 1380.16 119.445 1387.28 Q119.445 1394.39 121.251 1397.96 Q123.08 1401.5 126.691 1401.5 Q130.325 1401.5 132.13 1397.96 Q133.959 1394.39 133.959 1387.28 Q133.959 1380.16 132.13 1376.61 Q130.325 1373.05 126.691 1373.05 M126.691 1369.34 Q132.501 1369.34 135.556 1373.95 Q138.635 1378.53 138.635 1387.28 Q138.635 1396.01 135.556 1400.62 Q132.501 1405.2 126.691 1405.2 Q120.88 1405.2 117.802 1400.62 Q114.746 1396.01 114.746 1387.28 Q114.746 1378.53 117.802 1373.95 Q120.88 1369.34 126.691 1369.34 Z" fill="#000000" fill-rule="evenodd" fill-opacity="1" /><path clip-path="url(#clip290)" d="M146.853 1398.65 L151.737 1398.65 L151.737 1404.53 L146.853 1404.53 L146.853 1398.65 Z" fill="#000000" fill-rule="evenodd" fill-opacity="1" /><path clip-path="url(#clip290)" d="M171.922 1373.05 Q168.311 1373.05 166.482 1376.61 Q164.677 1380.16 164.677 1387.28 Q164.677 1394.39 166.482 1397.96 Q168.311 1401.5 171.922 1401.5 Q175.556 1401.5 177.362 1397.96 Q179.19 1394.39 179.19 1387.28 Q179.19 1380.16 177.362 1376.61 Q175.556 1373.05 171.922 1373.05 M171.922 1369.34 Q177.732 1369.34 180.788 1373.95 Q183.866 1378.53 183.866 1387.28 Q183.866 1396.01 180.788 1400.62 Q177.732 1405.2 171.922 1405.2 Q166.112 1405.2 163.033 1400.62 Q159.978 1396.01 159.978 1387.28 Q159.978 1378.53 163.033 1373.95 Q166.112 1369.34 171.922 1369.34 Z" fill="#000000" fill-rule="evenodd" fill-opacity="1" /><path clip-path="url(#clip290)" d="M202.084 1373.05 Q198.473 1373.05 196.644 1376.61 Q194.838 1380.16 194.838 1387.28 Q194.838 1394.39 196.644 1397.96 Q198.473 1401.5 202.084 1401.5 Q205.718 1401.5 207.524 1397.96 Q209.352 1394.39 209.352 1387.28 Q209.352 1380.16 207.524 1376.61 Q205.718 1373.05 202.084 1373.05 M202.084 1369.34 Q207.894 1369.34 210.949 1373.95 Q214.028 1378.53 214.028 1387.28 Q214.028 1396.01 210.949 1400.62 Q207.894 1405.2 202.084 1405.2 Q196.274 1405.2 193.195 1400.62 Q190.139 1396.01 190.139 1387.28 Q190.139 1378.53 193.195 1373.95 Q196.274 1369.34 202.084 1369.34 Z" fill="#000000" fill-rule="evenodd" fill-opacity="1" /><path clip-path="url(#clip290)" d="M128.288 1115.3 Q124.677 1115.3 122.848 1118.87 Q121.043 1122.41 121.043 1129.54 Q121.043 1136.65 122.848 1140.21 Q124.677 1143.75 128.288 1143.75 Q131.922 1143.75 133.728 1140.21 Q135.556 1136.65 135.556 1129.54 Q135.556 1122.41 133.728 1118.87 Q131.922 1115.3 128.288 1115.3 M128.288 1111.6 Q134.098 1111.6 137.154 1116.21 Q140.232 1120.79 140.232 1129.54 Q140.232 1138.27 137.154 1142.87 Q134.098 1147.46 128.288 1147.46 Q122.478 1147.46 119.399 1142.87 Q116.343 1138.27 116.343 1129.54 Q116.343 1120.79 119.399 1116.21 Q122.478 1111.6 128.288 1111.6 Z" fill="#000000" fill-rule="evenodd" fill-opacity="1" /><path clip-path="url(#clip290)" d="M148.45 1140.91 L153.334 1140.91 L153.334 1146.79 L148.45 1146.79 L148.45 1140.91 Z" fill="#000000" fill-rule="evenodd" fill-opacity="1" /><path clip-path="url(#clip290)" d="M173.519 1115.3 Q169.908 1115.3 168.079 1118.87 Q166.274 1122.41 166.274 1129.54 Q166.274 1136.65 168.079 1140.21 Q169.908 1143.75 173.519 1143.75 Q177.153 1143.75 178.959 1140.21 Q180.788 1136.65 180.788 1129.54 Q180.788 1122.41 178.959 1118.87 Q177.153 1115.3 173.519 1115.3 M173.519 1111.6 Q179.329 1111.6 182.385 1116.21 Q185.463 1120.79 185.463 1129.54 Q185.463 1138.27 182.385 1142.87 Q179.329 1147.46 173.519 1147.46 Q167.709 1147.46 164.63 1142.87 Q161.575 1138.27 161.575 1129.54 Q161.575 1120.79 164.63 1116.21 Q167.709 1111.6 173.519 1111.6 Z" fill="#000000" fill-rule="evenodd" fill-opacity="1" /><path clip-path="url(#clip290)" d="M197.709 1142.85 L214.028 1142.85 L214.028 1146.79 L192.084 1146.79 L192.084 1142.85 Q194.746 1140.1 199.329 1135.47 Q203.936 1130.81 205.116 1129.47 Q207.362 1126.95 208.241 1125.21 Q209.144 1123.45 209.144 1121.76 Q209.144 1119.01 207.199 1117.27 Q205.278 1115.54 202.176 1115.54 Q199.977 1115.54 197.524 1116.3 Q195.093 1117.06 192.315 1118.61 L192.315 1113.89 Q195.139 1112.76 197.593 1112.18 Q200.047 1111.6 202.084 1111.6 Q207.454 1111.6 210.649 1114.29 Q213.843 1116.97 213.843 1121.46 Q213.843 1123.59 213.033 1125.51 Q212.246 1127.41 210.139 1130 Q209.561 1130.67 206.459 1133.89 Q203.357 1137.09 197.709 1142.85 Z" fill="#000000" fill-rule="evenodd" fill-opacity="1" /><path clip-path="url(#clip290)" d="M126.205 857.56 Q122.593 857.56 120.765 861.125 Q118.959 864.667 118.959 871.796 Q118.959 878.903 120.765 882.468 Q122.593 886.009 126.205 886.009 Q129.839 886.009 131.644 882.468 Q133.473 878.903 133.473 871.796 Q133.473 864.667 131.644 861.125 Q129.839 857.56 126.205 857.56 M126.205 853.857 Q132.015 853.857 135.07 858.463 Q138.149 863.046 138.149 871.796 Q138.149 880.523 135.07 885.13 Q132.015 889.713 126.205 889.713 Q120.394 889.713 117.316 885.13 Q114.26 880.523 114.26 871.796 Q114.26 863.046 117.316 858.463 Q120.394 853.857 126.205 853.857 Z" fill="#000000" fill-rule="evenodd" fill-opacity="1" /><path clip-path="url(#clip290)" d="M146.366 883.162 L151.251 883.162 L151.251 889.042 L146.366 889.042 L146.366 883.162 Z" fill="#000000" fill-rule="evenodd" fill-opacity="1" /><path clip-path="url(#clip290)" d="M171.436 857.56 Q167.825 857.56 165.996 861.125 Q164.19 864.667 164.19 871.796 Q164.19 878.903 165.996 882.468 Q167.825 886.009 171.436 886.009 Q175.07 886.009 176.876 882.468 Q178.704 878.903 178.704 871.796 Q178.704 864.667 176.876 861.125 Q175.07 857.56 171.436 857.56 M171.436 853.857 Q177.246 853.857 180.301 858.463 Q183.38 863.046 183.38 871.796 Q183.38 880.523 180.301 885.13 Q177.246 889.713 171.436 889.713 Q165.626 889.713 162.547 885.13 Q159.491 880.523 159.491 871.796 Q159.491 863.046 162.547 858.463 Q165.626 853.857 171.436 853.857 Z" fill="#000000" fill-rule="evenodd" fill-opacity="1" /><path clip-path="url(#clip290)" d="M204.445 858.556 L192.639 877.005 L204.445 877.005 L204.445 858.556 M203.218 854.482 L209.098 854.482 L209.098 877.005 L214.028 877.005 L214.028 880.894 L209.098 880.894 L209.098 889.042 L204.445 889.042 L204.445 880.894 L188.843 880.894 L188.843 876.38 L203.218 854.482 Z" fill="#000000" fill-rule="evenodd" fill-opacity="1" /><path clip-path="url(#clip290)" d="M126.529 599.816 Q122.918 599.816 121.089 603.381 Q119.283 606.923 119.283 614.052 Q119.283 621.159 121.089 624.723 Q122.918 628.265 126.529 628.265 Q130.163 628.265 131.968 624.723 Q133.797 621.159 133.797 614.052 Q133.797 606.923 131.968 603.381 Q130.163 599.816 126.529 599.816 M126.529 596.113 Q132.339 596.113 135.394 600.719 Q138.473 605.302 138.473 614.052 Q138.473 622.779 135.394 627.385 Q132.339 631.969 126.529 631.969 Q120.718 631.969 117.64 627.385 Q114.584 622.779 114.584 614.052 Q114.584 605.302 117.64 600.719 Q120.718 596.113 126.529 596.113 Z" fill="#000000" fill-rule="evenodd" fill-opacity="1" /><path clip-path="url(#clip290)" d="M146.691 625.418 L151.575 625.418 L151.575 631.298 L146.691 631.298 L146.691 625.418 Z" fill="#000000" fill-rule="evenodd" fill-opacity="1" /><path clip-path="url(#clip290)" d="M171.76 599.816 Q168.149 599.816 166.32 603.381 Q164.515 606.923 164.515 614.052 Q164.515 621.159 166.32 624.723 Q168.149 628.265 171.76 628.265 Q175.394 628.265 177.2 624.723 Q179.028 621.159 179.028 614.052 Q179.028 606.923 177.2 603.381 Q175.394 599.816 171.76 599.816 M171.76 596.113 Q177.57 596.113 180.626 600.719 Q183.704 605.302 183.704 614.052 Q183.704 622.779 180.626 627.385 Q177.57 631.969 171.76 631.969 Q165.95 631.969 162.871 627.385 Q159.815 622.779 159.815 614.052 Q159.815 605.302 162.871 600.719 Q165.95 596.113 171.76 596.113 Z" fill="#000000" fill-rule="evenodd" fill-opacity="1" /><path clip-path="url(#clip290)" d="M202.5 612.154 Q199.352 612.154 197.5 614.307 Q195.672 616.46 195.672 620.21 Q195.672 623.936 197.5 626.112 Q199.352 628.265 202.5 628.265 Q205.649 628.265 207.477 626.112 Q209.329 623.936 209.329 620.21 Q209.329 616.46 207.477 614.307 Q205.649 612.154 202.5 612.154 M211.783 597.501 L211.783 601.761 Q210.024 600.927 208.218 600.487 Q206.436 600.048 204.676 600.048 Q200.047 600.048 197.593 603.173 Q195.163 606.298 194.815 612.617 Q196.181 610.603 198.241 609.538 Q200.301 608.45 202.778 608.45 Q207.987 608.45 210.996 611.622 Q214.028 614.77 214.028 620.21 Q214.028 625.534 210.88 628.751 Q207.732 631.969 202.5 631.969 Q196.505 631.969 193.334 627.385 Q190.163 622.779 190.163 614.052 Q190.163 605.858 194.051 600.997 Q197.94 596.113 204.491 596.113 Q206.25 596.113 208.033 596.46 Q209.838 596.807 211.783 597.501 Z" fill="#000000" fill-rule="evenodd" fill-opacity="1" /><path clip-path="url(#clip290)" d="M126.783 342.072 Q123.172 342.072 121.343 345.637 Q119.538 349.179 119.538 356.308 Q119.538 363.415 121.343 366.979 Q123.172 370.521 126.783 370.521 Q130.417 370.521 132.223 366.979 Q134.052 363.415 134.052 356.308 Q134.052 349.179 132.223 345.637 Q130.417 342.072 126.783 342.072 M126.783 338.368 Q132.593 338.368 135.649 342.975 Q138.728 347.558 138.728 356.308 Q138.728 365.035 135.649 369.641 Q132.593 374.225 126.783 374.225 Q120.973 374.225 117.894 369.641 Q114.839 365.035 114.839 356.308 Q114.839 347.558 117.894 342.975 Q120.973 338.368 126.783 338.368 Z" fill="#000000" fill-rule="evenodd" fill-opacity="1" /><path clip-path="url(#clip290)" d="M146.945 367.674 L151.829 367.674 L151.829 373.553 L146.945 373.553 L146.945 367.674 Z" fill="#000000" fill-rule="evenodd" fill-opacity="1" /><path clip-path="url(#clip290)" d="M172.014 342.072 Q168.403 342.072 166.575 345.637 Q164.769 349.179 164.769 356.308 Q164.769 363.415 166.575 366.979 Q168.403 370.521 172.014 370.521 Q175.649 370.521 177.454 366.979 Q179.283 363.415 179.283 356.308 Q179.283 349.179 177.454 345.637 Q175.649 342.072 172.014 342.072 M172.014 338.368 Q177.825 338.368 180.88 342.975 Q183.959 347.558 183.959 356.308 Q183.959 365.035 180.88 369.641 Q177.825 374.225 172.014 374.225 Q166.204 374.225 163.126 369.641 Q160.07 365.035 160.07 356.308 Q160.07 347.558 163.126 342.975 Q166.204 338.368 172.014 338.368 Z" fill="#000000" fill-rule="evenodd" fill-opacity="1" /><path clip-path="url(#clip290)" d="M202.176 357.141 Q198.843 357.141 196.922 358.924 Q195.024 360.706 195.024 363.831 Q195.024 366.956 196.922 368.739 Q198.843 370.521 202.176 370.521 Q205.51 370.521 207.431 368.739 Q209.352 366.933 209.352 363.831 Q209.352 360.706 207.431 358.924 Q205.533 357.141 202.176 357.141 M197.5 355.151 Q194.491 354.41 192.801 352.35 Q191.135 350.29 191.135 347.327 Q191.135 343.183 194.075 340.776 Q197.037 338.368 202.176 338.368 Q207.338 338.368 210.278 340.776 Q213.218 343.183 213.218 347.327 Q213.218 350.29 211.528 352.35 Q209.861 354.41 206.875 355.151 Q210.255 355.938 212.13 358.229 Q214.028 360.521 214.028 363.831 Q214.028 368.854 210.949 371.54 Q207.894 374.225 202.176 374.225 Q196.459 374.225 193.38 371.54 Q190.325 368.854 190.325 363.831 Q190.325 360.521 192.223 358.229 Q194.121 355.938 197.5 355.151 M195.787 347.766 Q195.787 350.452 197.454 351.956 Q199.144 353.461 202.176 353.461 Q205.186 353.461 206.875 351.956 Q208.588 350.452 208.588 347.766 Q208.588 345.081 206.875 343.577 Q205.186 342.072 202.176 342.072 Q199.144 342.072 197.454 343.577 Q195.787 345.081 195.787 347.766 Z" fill="#000000" fill-rule="evenodd" fill-opacity="1" /><path clip-path="url(#clip290)" d="M28.3562 814.719 L28.3562 808.863 L64.0042 808.863 L64.0042 814.719 L28.3562 814.719 M14.479 814.719 L14.479 808.863 L21.895 808.863 L21.895 814.719 L14.479 814.719 Z" fill="#000000" fill-rule="evenodd" fill-opacity="1" /><path clip-path="url(#clip290)" d="M14.5426 782.54 Q21.8632 786.805 29.0246 788.874 Q36.186 790.943 43.5384 790.943 Q50.8908 790.943 58.1159 788.874 Q65.3091 786.774 72.5979 782.54 L72.5979 787.633 Q65.1182 792.407 57.8931 794.794 Q50.668 797.15 43.5384 797.15 Q36.4406 797.15 29.2474 794.794 Q22.0542 792.439 14.5426 787.633 L14.5426 782.54 Z" fill="#000000" fill-rule="evenodd" fill-opacity="1" /><path clip-path="url(#clip290)" d="M18.2347 765.385 L28.3562 765.385 L28.3562 753.322 L32.9077 753.322 L32.9077 765.385 L52.2594 765.385 Q56.6199 765.385 57.8613 764.207 Q59.1026 762.998 59.1026 759.337 L59.1026 753.322 L64.0042 753.322 L64.0042 759.337 Q64.0042 766.117 61.4897 768.695 Q58.9434 771.273 52.2594 771.273 L32.9077 771.273 L32.9077 775.57 L28.3562 775.57 L28.3562 771.273 L18.2347 771.273 L18.2347 765.385 Z" fill="#000000" fill-rule="evenodd" fill-opacity="1" /><path clip-path="url(#clip290)" d="M14.5426 746.542 L14.5426 741.45 Q22.0542 736.675 29.2474 734.32 Q36.4406 731.933 43.5384 731.933 Q50.668 731.933 57.8931 734.32 Q65.1182 736.675 72.5979 741.45 L72.5979 746.542 Q65.3091 742.309 58.1159 740.24 Q50.8908 738.14 43.5384 738.14 Q36.186 738.14 29.0246 740.24 Q21.8632 742.309 14.5426 746.542 Z" fill="#000000" fill-rule="evenodd" fill-opacity="1" /><path clip-path="url(#clip290)" d="M871.976 12.096 L882.994 12.096 L909.811 62.6918 L909.811 12.096 L917.751 12.096 L917.751 72.576 L906.733 72.576 L879.916 21.9802 L879.916 72.576 L871.976 72.576 L871.976 12.096 Z" fill="#000000" fill-rule="evenodd" fill-opacity="1" /><path clip-path="url(#clip290)" d="M932.942 54.671 L932.942 27.2059 L940.396 27.2059 L940.396 54.3874 Q940.396 60.8284 942.907 64.0691 Q945.419 67.2693 950.442 67.2693 Q956.478 67.2693 959.962 63.421 Q963.486 59.5726 963.486 52.9291 L963.486 27.2059 L970.94 27.2059 L970.94 72.576 L963.486 72.576 L963.486 65.6084 Q960.772 69.7404 957.166 71.7658 Q953.602 73.7508 948.862 73.7508 Q941.044 73.7508 936.993 68.8897 Q932.942 64.0286 932.942 54.671 M951.698 26.1121 L951.698 26.1121 Z" fill="#000000" fill-rule="evenodd" fill-opacity="1" /><path clip-path="url(#clip290)" d="M1021.62 35.9153 Q1024.41 30.8922 1028.3 28.5022 Q1032.19 26.1121 1037.46 26.1121 Q1044.54 26.1121 1048.39 31.0947 Q1052.24 36.0368 1052.24 45.1919 L1052.24 72.576 L1044.75 72.576 L1044.75 45.4349 Q1044.75 38.913 1042.44 35.7533 Q1040.13 32.5936 1035.39 32.5936 Q1029.6 32.5936 1026.23 36.4419 Q1022.87 40.2903 1022.87 46.9338 L1022.87 72.576 L1015.38 72.576 L1015.38 45.4349 Q1015.38 38.8725 1013.07 35.7533 Q1010.76 32.5936 1005.94 32.5936 Q1000.23 32.5936 996.865 36.4824 Q993.503 40.3308 993.503 46.9338 L993.503 72.576 L986.009 72.576 L986.009 27.2059 L993.503 27.2059 L993.503 34.2544 Q996.055 30.082 999.62 28.0971 Q1003.18 26.1121 1008.09 26.1121 Q1013.03 26.1121 1016.47 28.6237 Q1019.96 31.1352 1021.62 35.9153 Z" fill="#000000" fill-rule="evenodd" fill-opacity="1" /><path clip-path="url(#clip290)" d="M1099.68 49.9314 Q1099.68 41.7081 1096.27 37.0496 Q1092.91 32.3505 1087 32.3505 Q1081.08 32.3505 1077.68 37.0496 Q1074.32 41.7081 1074.32 49.9314 Q1074.32 58.1548 1077.68 62.8538 Q1081.08 67.5124 1087 67.5124 Q1092.91 67.5124 1096.27 62.8538 Q1099.68 58.1548 1099.68 49.9314 M1074.32 34.0924 Q1076.67 30.0415 1080.23 28.0971 Q1083.84 26.1121 1088.82 26.1121 Q1097.08 26.1121 1102.23 32.6746 Q1107.41 39.2371 1107.41 49.9314 Q1107.41 60.6258 1102.23 67.1883 Q1097.08 73.7508 1088.82 73.7508 Q1083.84 73.7508 1080.23 71.8063 Q1076.67 69.8214 1074.32 65.7705 L1074.32 72.576 L1066.82 72.576 L1066.82 9.54393 L1074.32 9.54393 L1074.32 34.0924 Z" fill="#000000" fill-rule="evenodd" fill-opacity="1" /><path clip-path="url(#clip290)" d="M1158.58 48.0275 L1158.58 51.6733 L1124.31 51.6733 Q1124.79 59.3701 1128.92 63.421 Q1133.1 67.4314 1140.51 67.4314 Q1144.8 67.4314 1148.81 66.3781 Q1152.87 65.3249 1156.84 63.2184 L1156.84 70.267 Q1152.83 71.9684 1148.61 72.8596 Q1144.4 73.7508 1140.06 73.7508 Q1129.21 73.7508 1122.85 67.4314 Q1116.53 61.1119 1116.53 50.3365 Q1116.53 39.1965 1122.52 32.6746 Q1128.56 26.1121 1138.77 26.1121 Q1147.92 26.1121 1153.23 32.0264 Q1158.58 37.9003 1158.58 48.0275 M1151.12 45.84 Q1151.04 39.7232 1147.68 36.0774 Q1144.36 32.4315 1138.85 32.4315 Q1132.61 32.4315 1128.84 35.9558 Q1125.12 39.4801 1124.55 45.8805 L1151.12 45.84 Z" fill="#000000" fill-rule="evenodd" fill-opacity="1" /><path clip-path="url(#clip290)" d="M1197.1 34.1734 Q1195.85 33.4443 1194.35 33.1202 Q1192.89 32.7556 1191.11 32.7556 Q1184.79 32.7556 1181.38 36.8875 Q1178.02 40.9789 1178.02 48.6757 L1178.02 72.576 L1170.53 72.576 L1170.53 27.2059 L1178.02 27.2059 L1178.02 34.2544 Q1180.37 30.1225 1184.14 28.1376 Q1187.91 26.1121 1193.29 26.1121 Q1194.06 26.1121 1195 26.2337 Q1195.93 26.3147 1197.06 26.5172 L1197.1 34.1734 Z" fill="#000000" fill-rule="evenodd" fill-opacity="1" /><path clip-path="url(#clip290)" d="M1248.87 32.4315 Q1242.88 32.4315 1239.39 37.1306 Q1235.91 41.7891 1235.91 49.9314 Q1235.91 58.0738 1239.35 62.7728 Q1242.84 67.4314 1248.87 67.4314 Q1254.83 67.4314 1258.31 62.7323 Q1261.79 58.0333 1261.79 49.9314 Q1261.79 41.8701 1258.31 37.1711 Q1254.83 32.4315 1248.87 32.4315 M1248.87 26.1121 Q1258.59 26.1121 1264.14 32.4315 Q1269.69 38.7509 1269.69 49.9314 Q1269.69 61.0714 1264.14 67.4314 Q1258.59 73.7508 1248.87 73.7508 Q1239.11 73.7508 1233.56 67.4314 Q1228.05 61.0714 1228.05 49.9314 Q1228.05 38.7509 1233.56 32.4315 Q1239.11 26.1121 1248.87 26.1121 Z" fill="#000000" fill-rule="evenodd" fill-opacity="1" /><path clip-path="url(#clip290)" d="M1305.02 9.54393 L1305.02 15.7418 L1297.89 15.7418 Q1293.88 15.7418 1292.3 17.3622 Q1290.76 18.9825 1290.76 23.1955 L1290.76 27.2059 L1303.03 27.2059 L1303.03 32.9987 L1290.76 32.9987 L1290.76 72.576 L1283.26 72.576 L1283.26 32.9987 L1276.13 32.9987 L1276.13 27.2059 L1283.26 27.2059 L1283.26 24.0462 Q1283.26 16.471 1286.79 13.0277 Q1290.31 9.54393 1297.97 9.54393 L1305.02 9.54393 Z" fill="#000000" fill-rule="evenodd" fill-opacity="1" /><path clip-path="url(#clip290)" d="M1337.95 12.096 L1346.13 12.096 L1346.13 72.576 L1337.95 72.576 L1337.95 12.096 Z" fill="#000000" fill-rule="evenodd" fill-opacity="1" /><path clip-path="url(#clip290)" d="M1399.81 45.1919 L1399.81 72.576 L1392.36 72.576 L1392.36 45.4349 Q1392.36 38.994 1389.84 35.7938 Q1387.33 32.5936 1382.31 32.5936 Q1376.27 32.5936 1372.79 36.4419 Q1369.31 40.2903 1369.31 46.9338 L1369.31 72.576 L1361.81 72.576 L1361.81 27.2059 L1369.31 27.2059 L1369.31 34.2544 Q1371.98 30.163 1375.58 28.1376 Q1379.23 26.1121 1383.97 26.1121 Q1391.79 26.1121 1395.8 30.9732 Q1399.81 35.7938 1399.81 45.1919 Z" fill="#000000" fill-rule="evenodd" fill-opacity="1" /><path clip-path="url(#clip290)" d="M1437.64 9.54393 L1437.64 15.7418 L1430.51 15.7418 Q1426.5 15.7418 1424.92 17.3622 Q1423.39 18.9825 1423.39 23.1955 L1423.39 27.2059 L1435.66 27.2059 L1435.66 32.9987 L1423.39 32.9987 L1423.39 72.576 L1415.89 72.576 L1415.89 32.9987 L1408.76 32.9987 L1408.76 27.2059 L1415.89 27.2059 L1415.89 24.0462 Q1415.89 16.471 1419.42 13.0277 Q1422.94 9.54393 1430.6 9.54393 L1437.64 9.54393 Z" fill="#000000" fill-rule="evenodd" fill-opacity="1" /><path clip-path="url(#clip290)" d="M1482.69 48.0275 L1482.69 51.6733 L1448.42 51.6733 Q1448.91 59.3701 1453.04 63.421 Q1457.21 67.4314 1464.62 67.4314 Q1468.92 67.4314 1472.93 66.3781 Q1476.98 65.3249 1480.95 63.2184 L1480.95 70.267 Q1476.94 71.9684 1472.73 72.8596 Q1468.51 73.7508 1464.18 73.7508 Q1453.32 73.7508 1446.96 67.4314 Q1440.64 61.1119 1440.64 50.3365 Q1440.64 39.1965 1446.64 32.6746 Q1452.67 26.1121 1462.88 26.1121 Q1472.04 26.1121 1477.34 32.0264 Q1482.69 37.9003 1482.69 48.0275 M1475.24 45.84 Q1475.16 39.7232 1471.79 36.0774 Q1468.47 32.4315 1462.96 32.4315 Q1456.72 32.4315 1452.96 35.9558 Q1449.23 39.4801 1448.66 45.8805 L1475.24 45.84 Z" fill="#000000" fill-rule="evenodd" fill-opacity="1" /><path clip-path="url(#clip290)" d="M1527.57 28.9478 L1527.57 35.9153 Q1524.41 34.1734 1521.21 33.3227 Q1518.05 32.4315 1514.81 32.4315 Q1507.56 32.4315 1503.55 37.0496 Q1499.54 41.6271 1499.54 49.9314 Q1499.54 58.2358 1503.55 62.8538 Q1507.56 67.4314 1514.81 67.4314 Q1518.05 67.4314 1521.21 66.5807 Q1524.41 65.6895 1527.57 63.9476 L1527.57 70.8341 Q1524.46 72.2924 1521.09 73.0216 Q1517.77 73.7508 1514 73.7508 Q1503.75 73.7508 1497.72 67.3098 Q1491.68 60.8689 1491.68 49.9314 Q1491.68 38.832 1497.76 32.472 Q1503.88 26.1121 1514.49 26.1121 Q1517.93 26.1121 1521.21 26.8413 Q1524.5 27.5299 1527.57 28.9478 Z" fill="#000000" fill-rule="evenodd" fill-opacity="1" /><path clip-path="url(#clip290)" d="M1547.91 14.324 L1547.91 27.2059 L1563.26 27.2059 L1563.26 32.9987 L1547.91 32.9987 L1547.91 57.6282 Q1547.91 63.1779 1549.41 64.7578 Q1550.95 66.3376 1555.61 66.3376 L1563.26 66.3376 L1563.26 72.576 L1555.61 72.576 Q1546.98 72.576 1543.7 69.3758 Q1540.42 66.1351 1540.42 57.6282 L1540.42 32.9987 L1534.95 32.9987 L1534.95 27.2059 L1540.42 27.2059 L1540.42 14.324 L1547.91 14.324 Z" fill="#000000" fill-rule="evenodd" fill-opacity="1" /><path clip-path="url(#clip290)" d="M1573.07 27.2059 L1580.52 27.2059 L1580.52 72.576 L1573.07 72.576 L1573.07 27.2059 M1573.07 9.54393 L1580.52 9.54393 L1580.52 18.9825 L1573.07 18.9825 L1573.07 9.54393 Z" fill="#000000" fill-rule="evenodd" fill-opacity="1" /><path clip-path="url(#clip290)" d="M1613.7 32.4315 Q1607.7 32.4315 1604.22 37.1306 Q1600.73 41.7891 1600.73 49.9314 Q1600.73 58.0738 1604.18 62.7728 Q1607.66 67.4314 1613.7 67.4314 Q1619.65 67.4314 1623.14 62.7323 Q1626.62 58.0333 1626.62 49.9314 Q1626.62 41.8701 1623.14 37.1711 Q1619.65 32.4315 1613.7 32.4315 M1613.7 26.1121 Q1623.42 26.1121 1628.97 32.4315 Q1634.52 38.7509 1634.52 49.9314 Q1634.52 61.0714 1628.97 67.4314 Q1623.42 73.7508 1613.7 73.7508 Q1603.93 73.7508 1598.38 67.4314 Q1592.87 61.0714 1592.87 49.9314 Q1592.87 38.7509 1598.38 32.4315 Q1603.93 26.1121 1613.7 26.1121 Z" fill="#000000" fill-rule="evenodd" fill-opacity="1" /><path clip-path="url(#clip290)" d="M1684.59 45.1919 L1684.59 72.576 L1677.13 72.576 L1677.13 45.4349 Q1677.13 38.994 1674.62 35.7938 Q1672.11 32.5936 1667.09 32.5936 Q1661.05 32.5936 1657.57 36.4419 Q1654.08 40.2903 1654.08 46.9338 L1654.08 72.576 L1646.59 72.576 L1646.59 27.2059 L1654.08 27.2059 L1654.08 34.2544 Q1656.76 30.163 1660.36 28.1376 Q1664.01 26.1121 1668.75 26.1121 Q1676.57 26.1121 1680.58 30.9732 Q1684.59 35.7938 1684.59 45.1919 Z" fill="#000000" fill-rule="evenodd" fill-opacity="1" /><path clip-path="url(#clip290)" d="M1728.38 28.5427 L1728.38 35.5912 Q1725.22 33.9709 1721.82 33.1607 Q1718.41 32.3505 1714.77 32.3505 Q1709.22 32.3505 1706.42 34.0519 Q1703.67 35.7533 1703.67 39.156 Q1703.67 41.7486 1705.65 43.2475 Q1707.64 44.7058 1713.63 46.0426 L1716.18 46.6097 Q1724.12 48.3111 1727.45 51.4303 Q1730.81 54.509 1730.81 60.0587 Q1730.81 66.3781 1725.79 70.0644 Q1720.8 73.7508 1712.05 73.7508 Q1708.41 73.7508 1704.44 73.0216 Q1700.51 72.3329 1696.13 70.9151 L1696.13 63.2184 Q1700.26 65.3654 1704.27 66.4591 Q1708.29 67.5124 1712.21 67.5124 Q1717.48 67.5124 1720.32 65.73 Q1723.15 63.9071 1723.15 60.6258 Q1723.15 57.5877 1721.09 55.9673 Q1719.06 54.3469 1712.13 52.8481 L1709.54 52.2405 Q1702.61 50.7821 1699.54 47.7845 Q1696.46 44.7463 1696.46 39.4801 Q1696.46 33.0797 1700.99 29.5959 Q1705.53 26.1121 1713.88 26.1121 Q1718.01 26.1121 1721.65 26.7198 Q1725.3 27.3274 1728.38 28.5427 Z" fill="#000000" fill-rule="evenodd" fill-opacity="1" /><polyline clip-path="url(#clip292)" style="stroke:#009af9; stroke-linecap:butt; stroke-linejoin:round; stroke-width:4; stroke-opacity:1; fill:none" points="
  250.028,1386.27 250.085,1386.27 250.098,1386.27 250.113,1386.27 250.13,1386.27 250.15,1386.27 250.171,1386.27 250.196,1386.27 250.223,1386.27 250.254,1386.28 
  250.289,1386.28 250.328,1386.28 250.372,1386.28 250.421,1386.28 250.477,1386.28 250.539,1386.28 250.609,1386.28 250.688,1386.28 250.777,1386.28 250.878,1386.28 
  250.99,1386.28 251.117,1386.28 251.26,1386.28 251.42,1386.28 251.6,1386.28 251.803,1386.29 252.029,1386.29 252.276,1386.29 252.543,1386.29 252.828,1386.29 
  253.132,1386.29 253.453,1386.3 253.79,1386.3 254.141,1386.3 254.503,1386.3 254.877,1386.3 255.262,1386.31 255.655,1386.31 256.056,1386.31 256.466,1386.31 
  256.887,1386.31 257.316,1386.32 257.752,1386.32 258.194,1386.32 258.644,1386.32 259.101,1386.32 259.562,1386.33 260.029,1386.33 260.505,1386.33 260.988,1386.33 
  261.479,1386.33 261.976,1386.34 262.483,1386.34 262.998,1386.34 263.512,1386.34 264.032,1386.34 264.556,1386.35 265.09,1386.35 265.63,1386.35 266.174,1386.35 
  266.718,1386.35 267.268,1386.36 267.82,1386.36 268.38,1386.36 268.944,1386.36 269.509,1386.36 270.08,1386.36 270.659,1386.37 271.237,1386.37 271.814,1386.37 
  272.402,1386.37 272.999,1386.37 273.601,1386.37 274.202,1386.38 274.809,1386.38 275.421,1386.38 276.044,1386.38 276.675,1386.38 277.307,1386.38 277.949,1386.38 
  278.601,1386.38 279.264,1386.39 279.935,1386.39 280.619,1386.39 281.316,1386.39 282.029,1386.39 282.754,1386.39 283.495,1386.39 284.252,1386.39 285.017,1386.39 
  285.779,1386.39 286.555,1386.39 287.34,1386.39 288.133,1386.39 288.927,1386.4 289.723,1386.4 290.537,1386.4 291.371,1386.4 292.236,1386.4 293.133,1386.39 
  294.061,1386.39 295.004,1386.39 295.96,1386.39 296.938,1386.39 297.933,1386.39 298.963,1386.39 300.03,1386.39 301.134,1386.39 302.278,1386.38 303.464,1386.38 
  304.679,1386.38 305.914,1386.38 307.144,1386.37 308.402,1386.37 309.649,1386.37 310.927,1386.37 312.215,1386.37 313.5,1386.36 314.79,1386.36 316.12,1386.36 
  317.483,1386.35 318.853,1386.35 320.26,1386.35 321.678,1386.34 323.065,1386.34 324.444,1386.34 325.818,1386.34 327.194,1386.33 328.587,1386.33 329.994,1386.33 
  331.387,1386.32 332.812,1386.32 334.245,1386.32 335.672,1386.31 337.118,1386.31 338.579,1386.31 340.004,1386.3 341.51,1386.3 343.062,1386.29 344.662,1386.29 
  346.261,1386.28 347.861,1386.28 349.459,1386.27 351.013,1386.27 352.567,1386.26 354.123,1386.26 355.685,1386.25 357.262,1386.25 358.893,1386.24 360.549,1386.24 
  362.194,1386.23 363.863,1386.23 365.54,1386.22 367.242,1386.21 368.944,1386.21 370.594,1386.2 372.298,1386.2 374.034,1386.19 375.864,1386.18 377.794,1386.17 
  379.851,1386.16 381.989,1386.14 384.242,1386.13 386.608,1386.12 389.082,1386.1 391.644,1386.08 394.404,1386.06 397.509,1386.04 401.002,1386.01 404.546,1385.98 
  407.956,1385.95 411.791,1385.91 416.106,1385.87 420.96,1385.82 425.795,1385.77 431.198,1385.71 436.663,1385.64 442.811,1385.57 449.219,1385.5 454.429,1385.44 
  459.652,1385.37 465.289,1385.3 470.752,1385.21 476.897,1385.11 483.81,1384.98 490.857,1384.84 498.785,1384.66 507.704,1384.48 516.868,1384.3 523.601,1384.16 
  529.819,1384.04 535.444,1383.91 541.289,1383.77 547.866,1383.59 555.264,1383.4 561.159,1383.23 567.791,1383.03 574.254,1382.83 580.874,1382.59 588.322,1382.28 
  596.701,1381.9 603.368,1381.59 610.868,1381.2 619.305,1380.73 625.932,1380.36 633.388,1379.92 638.057,1379.65 643.31,1379.34 648.978,1378.98 654.707,1378.59 
  661.153,1378.13 668.405,1377.6 674.74,1377.15 680.587,1376.68 687.165,1376.07 694.566,1375.25 702.891,1374.26 709.439,1373.37 716.182,1372.43 723.592,1371.32 
  731.929,1369.82 738.727,1368.45 744.914,1367.27 751.874,1365.97 759.705,1364.5 768.514,1362.93 774.891,1361.68 782.065,1360.06 790.137,1358.21 799.216,1356.23 
  804.124,1355.15 809.646,1353.84 815.733,1352.21 822.582,1350.13 830.286,1347.78 838.953,1344.83 848.525,1341.38 859.294,1336.96 870.912,1331.01 878.312,1327.1 
  886.638,1322.77 896.005,1317.5 906.542,1311.05 918.397,1302.98 929.555,1293.26 936.863,1286.38 945.073,1278.68 953.77,1270.13 963.553,1260.29 974.114,1248.37 
  985.625,1232.5 993.354,1219.42 999.152,1208.69 1004.56,1198.49 1009.99,1188.6 1015.91,1176.99 1021.57,1164.58 1026.99,1150.96 1031.57,1138.3 1035.82,1126.36 
  1039.77,1115.11 1043.82,1102.97 1047.57,1092.1 1051.4,1080.54 1055.29,1069.26 1059.28,1058.11 1063.61,1046.27 1068.29,1032.88 1072.95,1018.81 1077.6,1003.53 
  1082.05,989.945 1086.67,975.63 1091.53,960.235 1096.41,944.018 1101.15,929.181 1105.99,914.918 1110.97,898.903 1115.91,882.839 1120.78,866.868 1125.67,848.854 
  1130.24,832.421 1134.83,816.293 1139.43,799.926 1143.91,784.007 1148.35,767.761 1152.74,752.996 1157.07,738.67 1161.34,724.988 1165.54,711.593 1169.63,696.653 
  1173.7,682.003 1177.69,666.92 1181.62,649.883 1185.31,632.275 1188.82,614.573 1192.12,598.415 1195.34,582.115 1198.49,565.122 1201.44,549.762 1204.33,534.692 
  1207.19,520.654 1210.01,506.307 1212.8,491.971 1215.52,478.327 1218.2,465.98 1220.96,453.988 1223.68,441.775 1226.39,429.727 1229.08,419.468 1231.83,409.512 
  1234.59,399.461 1237.37,389.404 1240.13,378.677 1242.9,367.026 1245.54,356.226 1248.21,343.924 1250.77,333.076 1253.34,323.539 1255.93,314.106 1258.51,305.495 
  1261.12,298.35 1263.74,291.057 1266.38,283.836 1269.02,276.642 1271.66,267.804 1274.24,257.886 1276.71,248.933 1279.17,242.532 1281.7,237.106 1284.26,231.993 
  1286.83,227.234 1289.4,222.253 1291.97,216.327 1294.52,210.249 1297.04,203.871 1299.54,197.866 1302,192.712 1304.5,187.202 1306.96,182.873 1309.43,179.517 
  1311.93,176.446 1314.45,172.125 1316.91,168.14 1319.36,165.595 1321.86,162.928 1324.35,161.395 1326.86,161.055 1329.42,160.256 1331.96,160.264 1334.53,161.099 
  1337.13,161.627 1339.73,161.792 1342.33,162.535 1344.95,164.562 1347.59,166.726 1350.25,170.065 1352.92,173.419 1355.61,177.476 1358.32,182.687 1361.02,188.252 
  1363.72,194.461 1366.42,200.174 1369.13,204.448 1371.91,210.536 1374.69,218.139 1377.41,226.469 1380.12,235.375 1382.71,245.418 1385.24,255.798 1387.64,265.52 
  1390,274.711 1392.38,284.081 1394.74,293.361 1397.08,303.059 1399.37,312.505 1401.66,321.938 1403.93,331.806 1406.13,340.579 1408.4,348.779 1410.8,357.675 
  1413.22,366.325 1415.68,374.39 1418.31,383.25 1420.98,392.103 1423.69,400.759 1426.55,409.988 1429.45,418.932 1432.47,427.758 1435.58,437.175 1438.78,447.575 
  1442.02,457.985 1445.27,469.561 1448.52,481.592 1451.63,492.189 1454.9,503.065 1458.29,514.216 1461.73,524.56 1465.33,535.139 1469.06,545.167 1472.87,554.996 
  1476.75,564.678 1480.63,574.357 1484.59,583.821 1488.53,593.172 1492.42,601.594 1496.24,608.911 1499.8,616.349 1503.38,624.288 1507.06,632.888 1510.74,641.624 
  1514.39,650.744 1518.25,661.347 1522.31,673.811 1526.65,687.17 1531.09,699.899 1535.7,712.743 1540.34,726.211 1545.24,741.096 1550.21,756.04 1555.25,770.209 
  1560.57,785.439 1566.02,801.449 1571.51,816.471 1577.29,832.723 1583.21,848.98 1589.2,865.119 1595.42,881.215 1601.75,897.232 1608.39,912.726 1615.17,928.599 
  1622.09,945.642 1629.14,963.394 1635.48,978.636 1642.09,994.703 1648.03,1009.22 1653.37,1021.65 1658.52,1033.38 1663.61,1044.35 1668.83,1055.18 1674.13,1066.34 
  1678.86,1076.09 1683.3,1085.12 1687.64,1093.92 1691.67,1102.13 1695.2,1109.08 1698.62,1115.51 1702.09,1121.88 1705.47,1127.87 1709.01,1133.88 1712.51,1139.57 
  1716.42,1145.64 1720.69,1152.13 1724.88,1158.09 1729.6,1164.48 1734.9,1171.36 1740.87,1179.32 1746.39,1186.66 1751.38,1193.17 1756.3,1199.18 1761.49,1205.05 
  1767.34,1211.05 1773.92,1217.87 1781.32,1225.8 1787.01,1231.81 1792.14,1236.97 1797.59,1242.44 1802.8,1247.52 1807.4,1251.93 1812.11,1256.19 1816.48,1259.87 
  1821.4,1263.85 1826.4,1267.67 1832.03,1271.89 1837.97,1276.22 1844.52,1280.81 1850.64,1285.13 1856.44,1289.18 1861.27,1292.57 1865.04,1295.25 1868.38,1297.55 
  1871.56,1299.66 1874.6,1301.61 1877.63,1303.49 1880.57,1305.24 1883.72,1307.06 1886.86,1308.84 1890.01,1310.6 1893.1,1312.28 1896.23,1313.96 1899.27,1315.57 
  1902.25,1317.09 1905.35,1318.62 1908.51,1320.13 1911.86,1321.71 1915.13,1323.17 1918.71,1324.72 1922.58,1326.33 1926.65,1327.96 1931.22,1329.68 1936.37,1331.53 
  1942.15,1333.62 1947.68,1335.58 1952.7,1337.3 1958.12,1339.07 1963.59,1340.78 1969.75,1342.62 1976.03,1344.37 1983.1,1346.38 1989.07,1348.05 1994.35,1349.45 
  1999.92,1350.93 2004.64,1352.11 2009.56,1353.28 2014.65,1354.43 2019.83,1355.59 2025.04,1356.75 2029.53,1357.71 2033.98,1358.62 2038.31,1359.48 2042.73,1360.31 
  2047.48,1361.15 2052.8,1362.06 2058.05,1362.96 2063.22,1363.81 2068.19,1364.58 2073.63,1365.41 2079.08,1366.22 2084.02,1366.93 2089.33,1367.64 2094.62,1368.32 
  2100.57,1369.04 2106.82,1369.77 2113.76,1370.56 2120.32,1371.26 2127.56,1371.97 2135.7,1372.76 2142.67,1373.38 2150.5,1374.01 2159.31,1374.66 2164.93,1375.05 
  2171.25,1375.48 2177.51,1375.88 2183.04,1376.21 2188.91,1376.54 2194.22,1376.85 2200.19,1377.18 2205.87,1377.49 2211.72,1377.79 2217.59,1378.08 2222.79,1378.35 
  2228.64,1378.64 2235.22,1378.98 2242.61,1379.36 2250.92,1379.78 2257.51,1380.11 2264.38,1380.45 2269.2,1380.68 2273.52,1380.89 2277.75,1381.08 2282.11,1381.26 
  2286.52,1381.45 2290.6,1381.61 2294.94,1381.78 2299.18,1381.94 2303.95,1382.1 2309.31,1382.27 2315.35,1382.47 2321.21,1382.65 2326.83,1382.83 2332.12,1382.99 
  2336.94,1383.13 2341.34,1383.26 2345.61,1383.38 2349.7,1383.5 2352.76,1383.58 
  "/>
<polyline clip-path="url(#clip292)" style="stroke:#e26f46; stroke-linecap:butt; stroke-linejoin:round; stroke-width:4; stroke-opacity:1; fill:none" points="
  250.028,1386.27 250.085,1386.27 250.098,1386.27 250.113,1386.27 250.13,1386.27 250.15,1386.27 250.171,1386.27 250.196,1386.27 250.223,1386.27 250.254,1386.28 
  250.289,1386.28 250.328,1386.28 250.372,1386.28 250.421,1386.28 250.477,1386.28 250.539,1386.28 250.609,1386.28 250.688,1386.28 250.777,1386.28 250.878,1386.28 
  250.99,1386.28 251.117,1386.28 251.259,1386.28 251.42,1386.28 251.6,1386.28 251.803,1386.29 252.027,1386.29 252.272,1386.29 252.537,1386.29 252.819,1386.29 
  253.118,1386.29 253.432,1386.3 253.759,1386.3 254.098,1386.3 254.448,1386.3 254.804,1386.3 255.17,1386.31 255.542,1386.31 255.922,1386.31 256.309,1386.31 
  256.7,1386.32 257.098,1386.32 257.499,1386.32 257.906,1386.32 258.318,1386.33 258.735,1386.33 259.157,1386.33 259.584,1386.33 260.016,1386.33 260.454,1386.34 
  260.895,1386.34 261.34,1386.34 261.793,1386.34 262.251,1386.34 262.712,1386.35 263.177,1386.35 263.647,1386.35 264.119,1386.35 264.596,1386.36 265.08,1386.36 
  265.573,1386.36 266.07,1386.36 266.573,1386.36 267.084,1386.36 267.605,1386.37 268.131,1386.37 268.66,1386.37 269.2,1386.37 269.748,1386.37 270.305,1386.37 
  270.873,1386.38 271.454,1386.38 272.049,1386.38 272.652,1386.38 273.273,1386.38 273.907,1386.38 274.548,1386.38 275.199,1386.38 275.868,1386.39 276.555,1386.39 
  277.261,1386.39 277.982,1386.39 278.706,1386.39 279.439,1386.39 280.185,1386.39 280.95,1386.39 281.744,1386.39 282.554,1386.39 283.38,1386.39 284.217,1386.39 
  285.07,1386.39 285.945,1386.39 286.834,1386.39 287.74,1386.39 288.662,1386.39 289.587,1386.39 290.518,1386.39 291.454,1386.39 292.398,1386.39 293.373,1386.39 
  294.383,1386.39 295.412,1386.39 296.457,1386.38 297.506,1386.38 298.589,1386.38 299.679,1386.38 300.793,1386.38 301.947,1386.38 303.136,1386.37 304.358,1386.37 
  305.617,1386.37 306.931,1386.36 308.316,1386.36 309.764,1386.36 311.214,1386.35 312.748,1386.35 314.353,1386.34 315.983,1386.34 317.603,1386.33 319.26,1386.32 
  320.922,1386.32 322.598,1386.31 324.384,1386.31 326.266,1386.3 328.147,1386.29 330.067,1386.28 332.114,1386.27 334.301,1386.26 336.49,1386.25 338.603,1386.24 
  340.751,1386.23 342.98,1386.22 345.401,1386.21 347.907,1386.19 350.725,1386.17 353.896,1386.15 357.39,1386.12 361.039,1386.09 364.833,1386.05 369.102,1386.01 
  373.904,1385.95 379.307,1385.89 385.385,1385.8 391.17,1385.72 397.277,1385.63 404.148,1385.53 411.877,1385.42 416.981,1385.34 422.721,1385.25 429.18,1385.14 
  436.446,1385.01 444.62,1384.86 451.744,1384.71 459.758,1384.55 466.679,1384.4 474.466,1384.22 482.864,1384.03 489.795,1383.86 497.594,1383.69 503.458,1383.56 
  509.17,1383.44 513.56,1383.36 517.142,1383.29 520.436,1383.23 523.666,1383.17 526.796,1383.1 529.925,1383.03 533.054,1382.97 535.975,1382.9 538.998,1382.82 
  542.217,1382.73 545.59,1382.62 549.385,1382.5 553.654,1382.36 557.534,1382.24 561.675,1382.11 565.317,1381.99 569.127,1381.87 572.995,1381.72 577.346,1381.55 
  581.876,1381.37 586.658,1381.17 591.751,1380.94 597.338,1380.68 603.331,1380.42 608.304,1380.21 613.148,1380.02 617.619,1379.83 621.809,1379.66 625.772,1379.49 
  629.77,1379.29 633.953,1379.09 638.14,1378.87 642.274,1378.64 646.709,1378.38 651.411,1378.1 655.959,1377.83 660.648,1377.53 665.376,1377.2 670.695,1376.81 
  676.296,1376.37 682.349,1375.86 689.159,1375.29 695.522,1374.65 702.681,1373.85 710.735,1372.9 718.86,1371.91 728,1370.8 735.891,1369.86 742.678,1369.02 
  749.468,1368.11 756.76,1367.09 763.89,1366.02 771.063,1364.84 779.133,1363.45 787.819,1361.94 795.535,1360.57 802.396,1359.25 810.115,1357.62 817.858,1356.01 
  825.068,1354.54 831.59,1353.15 837.73,1351.76 843.953,1350.36 849.463,1349.01 855.328,1347.39 861.223,1345.62 867.854,1343.59 874.256,1341.58 880.712,1339.66 
  886.925,1337.78 892.107,1336.26 897.164,1334.65 902.444,1332.85 907.423,1330.78 913.025,1328.53 918.716,1325.99 924.741,1323.18 931.519,1319.64 939.065,1315.1 
  947.553,1309.77 955.88,1303.44 963.642,1297.54 972.374,1290.37 982.197,1282.19 991.747,1274.05 1001.2,1266.11 1011.44,1257.55 1019.33,1250.85 1026.06,1245.79 
  1031.98,1241.21 1037.69,1236.6 1042.81,1231.53 1048.57,1225.5 1054.88,1218.87 1061.24,1212.61 1066.74,1207.13 1072.36,1201.23 1077.4,1194.59 1083.07,1186.7 
  1089.45,1177.09 1096.31,1165.54 1103.61,1152.01 1110.65,1137.82 1117.4,1123.23 1124.1,1106.5 1130.03,1091.18 1135.82,1075.04 1141.22,1059.67 1146.44,1043.75 
  1151.38,1027.93 1156.17,1013.35 1161.07,998.825 1166.25,983.793 1171.45,969.393 1176.85,955.433 1182.23,942.709 1187.26,929.114 1192.58,914.454 1197.84,898.473 
  1203.05,882.235 1208.2,864.522 1213.08,848.603 1217.97,830.823 1222.72,812.191 1227.11,793.809 1231.29,777.179 1235.44,762.175 1239.67,746.101 1243.78,730.795 
  1247.79,715.988 1251.84,700.575 1255.76,684.373 1259.53,666.584 1263,650.083 1266.42,633.585 1269.66,618.295 1272.89,603.414 1276.06,589.315 1279.2,576.974 
  1282.41,565.332 1285.65,553.762 1288.9,543.645 1292.17,532.492 1295.42,520.554 1298.62,507.099 1301.7,495.029 1304.79,482.083 1307.78,469.527 1310.71,456.737 
  1313.59,445.38 1316.5,434.025 1319.38,423.971 1322.28,414.66 1325.17,403.991 1328.05,392.989 1330.84,382.185 1333.6,371.144 1336.31,359.305 1338.92,347.599 
  1341.44,337.239 1343.94,327.052 1346.43,315.829 1348.84,303.912 1351.13,293.172 1353.37,283.728 1355.66,274.17 1357.89,265.86 1360.18,258.467 1362.48,251.473 
  1364.83,244.167 1367.15,237.268 1369.49,231.165 1371.86,226.075 1374.27,221.951 1376.73,216.666 1379.18,212.201 1381.64,208.917 1384.16,205.983 1386.7,202.865 
  1389.24,199.648 1391.79,197.242 1394.36,194.252 1396.93,191.162 1399.49,188.306 1402.05,185.56 1404.59,183.824 1407.18,181.141 1409.71,178.88 1412.26,177.265 
  1414.8,175.145 1417.31,173.856 1419.85,173.031 1422.39,172.39 1424.95,172.946 1427.52,173.515 1430.13,173.203 1432.7,173.454 1435.26,174.296 1437.85,174.905 
  1440.43,175.253 1442.98,174.943 1445.5,173.823 1447.91,172.482 1450.29,171.654 1452.62,172.064 1455.02,171.892 1457.35,171.388 1459.63,170.681 1461.9,170.463 
  1464.11,171.329 1466.37,172.684 1468.66,173.845 1470.92,175.323 1473.18,177.063 1475.46,179.453 1477.78,182.182 1480.11,185.074 1482.46,188.44 1484.85,190.748 
  1487.16,192.332 1489.4,194.544 1491.63,196.825 1493.88,198.98 1496.07,201.252 1498.25,204.483 1500.45,208.574 1502.76,212.335 1505.01,215.698 1507.24,218.939 
  1509.43,221.626 1511.57,224.486 1513.69,227.748 1515.81,231.618 1517.95,236.246 1520.15,241.331 1522.38,246.931 1524.66,252.962 1526.99,258.979 1529.32,265.047 
  1531.7,270.955 1534.02,276.773 1536.35,282.28 1538.61,288.074 1540.96,293.521 1543.21,299.079 1545.44,305.056 1547.72,311.564 1550.02,318.27 1552.37,326.067 
  1554.78,333.862 1557.27,341.533 1559.65,348.695 1562.07,356.476 1564.52,364.113 1566.94,372.035 1569.41,380.481 1571.93,389.436 1574.49,399.715 1577.25,410.935 
  1580.13,422.703 1583.07,434.504 1586.06,445.919 1589.04,456.736 1591.96,467.119 1594.85,477.489 1597.71,487.74 1600.62,498.119 1603.47,507.973 1606.28,517.702 
  1609.05,528.117 1611.95,539.322 1614.96,551.058 1618.04,563.548 1621.39,577.438 1624.78,592.096 1628.51,608.555 1632.39,625.535 1636.44,642.984 1640.64,660.702 
  1645,679.029 1649.51,697.377 1654.18,715.859 1659.02,734.355 1663.95,752.704 1669.06,771.244 1674.25,789.271 1679.49,807.429 1684.77,825.626 1690.46,844.427 
  1696.19,862.063 1701.67,877.975 1706.77,892.631 1711.89,906.773 1716.81,919.827 1721.48,931.98 1726.01,943.591 1730.62,955.577 1735.33,967.679 1740.28,980.077 
  1745.64,992.86 1750.3,1004.16 1755.55,1016.89 1761.18,1030.41 1767.52,1044.95 1774.07,1059.77 1781.44,1074.61 1787.63,1086.65 1793.49,1097.75 1800.08,1109.57 
  1806.09,1120.3 1812.42,1130.82 1818.65,1140.51 1824.13,1148.92 1829.85,1157.13 1834.98,1163.86 1839.38,1169.58 1843.54,1174.83 1847.53,1179.67 1851.37,1184.19 
  1854.86,1188.36 1858.37,1192.57 1862.07,1196.95 1865.71,1201.27 1869.47,1205.91 1873.71,1211.06 1878.48,1216.86 1883.84,1223.19 1889.87,1229.9 1896.63,1236.96 
  1902.39,1242.48 1907.88,1247.55 1912.88,1252.07 1918.03,1256.65 1923.44,1261.37 1929.22,1266.29 1935.71,1271.44 1941.47,1276.16 1947.94,1281.49 1955.22,1287.12 
  1963.42,1293.27 1970.28,1298.47 1975.27,1302.08 1979.89,1305.34 1984.17,1308.22 1988.2,1310.85 1992.1,1313.28 1996.07,1315.65 2000.26,1318 2004.62,1320.32 
  2009.52,1322.85 2014.02,1325.1 2018.82,1327.34 2024.22,1329.68 2030.3,1332.21 2037.13,1334.89 2044.82,1337.8 2053.19,1340.84 2061.81,1343.69 2071.51,1346.6 
  2077.27,1348.29 2083.74,1350.08 2091.03,1351.98 2096.32,1353.32 2102.28,1354.79 2108.99,1356.39 2116.53,1358.09 2125.02,1359.91 2134.56,1361.82 2141.75,1363.12 
  2149.83,1364.51 2158.93,1366.03 2169.16,1367.66 2175.6,1368.61 2182.85,1369.61 2191.01,1370.66 2200.18,1371.75 2210.5,1372.85 2217.55,1373.55 2224.44,1374.19 
  2231.17,1374.78 2237.25,1375.27 2242.67,1375.71 2248.77,1376.2 2255.5,1376.71 2262.45,1377.19 2268.26,1377.57 2273.58,1377.91 2279.4,1378.27 2285.01,1378.6 
  2289.93,1378.88 2294.97,1379.15 2299.36,1379.38 2303.98,1379.62 2308.73,1379.86 2313.42,1380.09 2318,1380.31 2323.05,1380.55 2328.49,1380.81 2334.62,1381.07 
  2340.14,1381.29 2344.9,1381.48 2349.9,1381.68 2352.76,1381.79 
  "/>
<path clip-path="url(#clip290)" d="
M1773.96 322.316 L2282.66 322.316 L2282.66 166.796 L1773.96 166.796  Z
  " fill="#ffffff" fill-rule="evenodd" fill-opacity="1"/>
<polyline clip-path="url(#clip290)" style="stroke:#000000; stroke-linecap:butt; stroke-linejoin:round; stroke-width:4; stroke-opacity:1; fill:none" points="
  1773.96,322.316 2282.66,322.316 2282.66,166.796 1773.96,166.796 1773.96,322.316 
  "/>
<polyline clip-path="url(#clip290)" style="stroke:#009af9; stroke-linecap:butt; stroke-linejoin:round; stroke-width:4; stroke-opacity:1; fill:none" points="
  1797.32,218.636 1937.51,218.636 
  "/>
<path clip-path="url(#clip290)" d="M1960.87 201.356 L1990.11 201.356 L1990.11 205.291 L1977.84 205.291 L1977.84 235.916 L1973.14 235.916 L1973.14 205.291 L1960.87 205.291 L1960.87 201.356 Z" fill="#000000" fill-rule="evenodd" fill-opacity="1" /><path clip-path="url(#clip290)" d="M2002.49 213.971 Q2001.77 213.555 2000.92 213.37 Q2000.08 213.161 1999.06 213.161 Q1995.45 213.161 1993.51 215.522 Q1991.59 217.86 1991.59 222.258 L1991.59 235.916 L1987.3 235.916 L1987.3 209.99 L1991.59 209.99 L1991.59 214.018 Q1992.93 211.657 1995.08 210.522 Q1997.24 209.365 2000.31 209.365 Q2000.75 209.365 2001.29 209.434 Q2001.82 209.481 2002.47 209.596 L2002.49 213.971 Z" fill="#000000" fill-rule="evenodd" fill-opacity="1" /><path clip-path="url(#clip290)" d="M2018.74 222.883 Q2013.58 222.883 2011.59 224.064 Q2009.6 225.244 2009.6 228.092 Q2009.6 230.36 2011.08 231.703 Q2012.58 233.022 2015.15 233.022 Q2018.69 233.022 2020.82 230.522 Q2022.98 227.999 2022.98 223.832 L2022.98 222.883 L2018.74 222.883 M2027.24 221.124 L2027.24 235.916 L2022.98 235.916 L2022.98 231.981 Q2021.52 234.342 2019.34 235.476 Q2017.17 236.587 2014.02 236.587 Q2010.04 236.587 2007.68 234.365 Q2005.34 232.119 2005.34 228.369 Q2005.34 223.994 2008.25 221.772 Q2011.19 219.55 2017 219.55 L2022.98 219.55 L2022.98 219.133 Q2022.98 216.194 2021.03 214.596 Q2019.11 212.976 2015.61 212.976 Q2013.39 212.976 2011.29 213.508 Q2009.18 214.041 2007.24 215.106 L2007.24 211.17 Q2009.57 210.268 2011.77 209.828 Q2013.97 209.365 2016.05 209.365 Q2021.68 209.365 2024.46 212.282 Q2027.24 215.198 2027.24 221.124 Z" fill="#000000" fill-rule="evenodd" fill-opacity="1" /><path clip-path="url(#clip290)" d="M2036.01 209.99 L2040.27 209.99 L2040.27 236.379 Q2040.27 241.332 2038.37 243.555 Q2036.49 245.777 2032.3 245.777 L2030.68 245.777 L2030.68 242.166 L2031.82 242.166 Q2034.25 242.166 2035.13 241.031 Q2036.01 239.92 2036.01 236.379 L2036.01 209.99 M2036.01 199.897 L2040.27 199.897 L2040.27 205.291 L2036.01 205.291 L2036.01 199.897 Z" fill="#000000" fill-rule="evenodd" fill-opacity="1" /><path clip-path="url(#clip290)" d="M2071.36 221.888 L2071.36 223.971 L2051.77 223.971 Q2052.05 228.369 2054.41 230.684 Q2056.8 232.976 2061.03 232.976 Q2063.48 232.976 2065.78 232.374 Q2068.09 231.772 2070.36 230.569 L2070.36 234.596 Q2068.07 235.568 2065.66 236.078 Q2063.25 236.587 2060.78 236.587 Q2054.57 236.587 2050.94 232.976 Q2047.33 229.365 2047.33 223.207 Q2047.33 216.842 2050.75 213.115 Q2054.2 209.365 2060.04 209.365 Q2065.27 209.365 2068.3 212.745 Q2071.36 216.101 2071.36 221.888 M2067.1 220.638 Q2067.05 217.143 2065.13 215.059 Q2063.23 212.976 2060.08 212.976 Q2056.52 212.976 2054.36 214.99 Q2052.23 217.004 2051.91 220.661 L2067.1 220.638 Z" fill="#000000" fill-rule="evenodd" fill-opacity="1" /><path clip-path="url(#clip290)" d="M2097 210.985 L2097 214.967 Q2095.2 213.971 2093.37 213.485 Q2091.56 212.976 2089.71 212.976 Q2085.57 212.976 2083.28 215.615 Q2080.98 218.231 2080.98 222.976 Q2080.98 227.721 2083.28 230.36 Q2085.57 232.976 2089.71 232.976 Q2091.56 232.976 2093.37 232.49 Q2095.2 231.981 2097 230.985 L2097 234.92 Q2095.22 235.754 2093.3 236.17 Q2091.4 236.587 2089.25 236.587 Q2083.39 236.587 2079.94 232.906 Q2076.49 229.226 2076.49 222.976 Q2076.49 216.633 2079.97 212.999 Q2083.46 209.365 2089.53 209.365 Q2091.49 209.365 2093.37 209.782 Q2095.24 210.175 2097 210.985 Z" fill="#000000" fill-rule="evenodd" fill-opacity="1" /><path clip-path="url(#clip290)" d="M2108.62 202.629 L2108.62 209.99 L2117.4 209.99 L2117.4 213.3 L2108.62 213.3 L2108.62 227.374 Q2108.62 230.545 2109.48 231.448 Q2110.36 232.351 2113.02 232.351 L2117.4 232.351 L2117.4 235.916 L2113.02 235.916 Q2108.09 235.916 2106.22 234.087 Q2104.34 232.235 2104.34 227.374 L2104.34 213.3 L2101.22 213.3 L2101.22 209.99 L2104.34 209.99 L2104.34 202.629 L2108.62 202.629 Z" fill="#000000" fill-rule="evenodd" fill-opacity="1" /><path clip-path="url(#clip290)" d="M2133.04 212.976 Q2129.62 212.976 2127.63 215.661 Q2125.64 218.323 2125.64 222.976 Q2125.64 227.629 2127.6 230.314 Q2129.6 232.976 2133.04 232.976 Q2136.45 232.976 2138.44 230.291 Q2140.43 227.606 2140.43 222.976 Q2140.43 218.37 2138.44 215.684 Q2136.45 212.976 2133.04 212.976 M2133.04 209.365 Q2138.6 209.365 2141.77 212.976 Q2144.94 216.587 2144.94 222.976 Q2144.94 229.342 2141.77 232.976 Q2138.6 236.587 2133.04 236.587 Q2127.47 236.587 2124.29 232.976 Q2121.15 229.342 2121.15 222.976 Q2121.15 216.587 2124.29 212.976 Q2127.47 209.365 2133.04 209.365 Z" fill="#000000" fill-rule="evenodd" fill-opacity="1" /><path clip-path="url(#clip290)" d="M2167.03 213.971 Q2166.31 213.555 2165.45 213.37 Q2164.62 213.161 2163.6 213.161 Q2159.99 213.161 2158.04 215.522 Q2156.12 217.86 2156.12 222.258 L2156.12 235.916 L2151.84 235.916 L2151.84 209.99 L2156.12 209.99 L2156.12 214.018 Q2157.47 211.657 2159.62 210.522 Q2161.77 209.365 2164.85 209.365 Q2165.29 209.365 2165.82 209.434 Q2166.35 209.481 2167 209.596 L2167.03 213.971 Z" fill="#000000" fill-rule="evenodd" fill-opacity="1" /><path clip-path="url(#clip290)" d="M2182.28 238.323 Q2180.48 242.953 2178.76 244.365 Q2177.05 245.777 2174.18 245.777 L2170.78 245.777 L2170.78 242.212 L2173.28 242.212 Q2175.04 242.212 2176.01 241.379 Q2176.98 240.545 2178.16 237.443 L2178.92 235.499 L2168.44 209.99 L2172.95 209.99 L2181.05 230.268 L2189.16 209.99 L2193.67 209.99 L2182.28 238.323 Z" fill="#000000" fill-rule="evenodd" fill-opacity="1" /><path clip-path="url(#clip290)" d="M2216.03 231.981 L2223.67 231.981 L2223.67 205.615 L2215.36 207.282 L2215.36 203.022 L2223.62 201.356 L2228.3 201.356 L2228.3 231.981 L2235.94 231.981 L2235.94 235.916 L2216.03 235.916 L2216.03 231.981 Z" fill="#000000" fill-rule="evenodd" fill-opacity="1" /><polyline clip-path="url(#clip290)" style="stroke:#e26f46; stroke-linecap:butt; stroke-linejoin:round; stroke-width:4; stroke-opacity:1; fill:none" points="
  1797.32,270.476 1937.51,270.476 
  "/>
<path clip-path="url(#clip290)" d="M1960.87 253.196 L1990.11 253.196 L1990.11 257.131 L1977.84 257.131 L1977.84 287.756 L1973.14 287.756 L1973.14 257.131 L1960.87 257.131 L1960.87 253.196 Z" fill="#000000" fill-rule="evenodd" fill-opacity="1" /><path clip-path="url(#clip290)" d="M2002.49 265.811 Q2001.77 265.395 2000.92 265.21 Q2000.08 265.001 1999.06 265.001 Q1995.45 265.001 1993.51 267.362 Q1991.59 269.7 1991.59 274.098 L1991.59 287.756 L1987.3 287.756 L1987.3 261.83 L1991.59 261.83 L1991.59 265.858 Q1992.93 263.497 1995.08 262.362 Q1997.24 261.205 2000.31 261.205 Q2000.75 261.205 2001.29 261.274 Q2001.82 261.321 2002.47 261.436 L2002.49 265.811 Z" fill="#000000" fill-rule="evenodd" fill-opacity="1" /><path clip-path="url(#clip290)" d="M2018.74 274.723 Q2013.58 274.723 2011.59 275.904 Q2009.6 277.084 2009.6 279.932 Q2009.6 282.2 2011.08 283.543 Q2012.58 284.862 2015.15 284.862 Q2018.69 284.862 2020.82 282.362 Q2022.98 279.839 2022.98 275.672 L2022.98 274.723 L2018.74 274.723 M2027.24 272.964 L2027.24 287.756 L2022.98 287.756 L2022.98 283.821 Q2021.52 286.182 2019.34 287.316 Q2017.17 288.427 2014.02 288.427 Q2010.04 288.427 2007.68 286.205 Q2005.34 283.959 2005.34 280.209 Q2005.34 275.834 2008.25 273.612 Q2011.19 271.39 2017 271.39 L2022.98 271.39 L2022.98 270.973 Q2022.98 268.034 2021.03 266.436 Q2019.11 264.816 2015.61 264.816 Q2013.39 264.816 2011.29 265.348 Q2009.18 265.881 2007.24 266.946 L2007.24 263.01 Q2009.57 262.108 2011.77 261.668 Q2013.97 261.205 2016.05 261.205 Q2021.68 261.205 2024.46 264.122 Q2027.24 267.038 2027.24 272.964 Z" fill="#000000" fill-rule="evenodd" fill-opacity="1" /><path clip-path="url(#clip290)" d="M2036.01 261.83 L2040.27 261.83 L2040.27 288.219 Q2040.27 293.172 2038.37 295.395 Q2036.49 297.617 2032.3 297.617 L2030.68 297.617 L2030.68 294.006 L2031.82 294.006 Q2034.25 294.006 2035.13 292.871 Q2036.01 291.76 2036.01 288.219 L2036.01 261.83 M2036.01 251.737 L2040.27 251.737 L2040.27 257.131 L2036.01 257.131 L2036.01 251.737 Z" fill="#000000" fill-rule="evenodd" fill-opacity="1" /><path clip-path="url(#clip290)" d="M2071.36 273.728 L2071.36 275.811 L2051.77 275.811 Q2052.05 280.209 2054.41 282.524 Q2056.8 284.816 2061.03 284.816 Q2063.48 284.816 2065.78 284.214 Q2068.09 283.612 2070.36 282.409 L2070.36 286.436 Q2068.07 287.408 2065.66 287.918 Q2063.25 288.427 2060.78 288.427 Q2054.57 288.427 2050.94 284.816 Q2047.33 281.205 2047.33 275.047 Q2047.33 268.682 2050.75 264.955 Q2054.2 261.205 2060.04 261.205 Q2065.27 261.205 2068.3 264.585 Q2071.36 267.941 2071.36 273.728 M2067.1 272.478 Q2067.05 268.983 2065.13 266.899 Q2063.23 264.816 2060.08 264.816 Q2056.52 264.816 2054.36 266.83 Q2052.23 268.844 2051.91 272.501 L2067.1 272.478 Z" fill="#000000" fill-rule="evenodd" fill-opacity="1" /><path clip-path="url(#clip290)" d="M2097 262.825 L2097 266.807 Q2095.2 265.811 2093.37 265.325 Q2091.56 264.816 2089.71 264.816 Q2085.57 264.816 2083.28 267.455 Q2080.98 270.071 2080.98 274.816 Q2080.98 279.561 2083.28 282.2 Q2085.57 284.816 2089.71 284.816 Q2091.56 284.816 2093.37 284.33 Q2095.2 283.821 2097 282.825 L2097 286.76 Q2095.22 287.594 2093.3 288.01 Q2091.4 288.427 2089.25 288.427 Q2083.39 288.427 2079.94 284.746 Q2076.49 281.066 2076.49 274.816 Q2076.49 268.473 2079.97 264.839 Q2083.46 261.205 2089.53 261.205 Q2091.49 261.205 2093.37 261.622 Q2095.24 262.015 2097 262.825 Z" fill="#000000" fill-rule="evenodd" fill-opacity="1" /><path clip-path="url(#clip290)" d="M2108.62 254.469 L2108.62 261.83 L2117.4 261.83 L2117.4 265.14 L2108.62 265.14 L2108.62 279.214 Q2108.62 282.385 2109.48 283.288 Q2110.36 284.191 2113.02 284.191 L2117.4 284.191 L2117.4 287.756 L2113.02 287.756 Q2108.09 287.756 2106.22 285.927 Q2104.34 284.075 2104.34 279.214 L2104.34 265.14 L2101.22 265.14 L2101.22 261.83 L2104.34 261.83 L2104.34 254.469 L2108.62 254.469 Z" fill="#000000" fill-rule="evenodd" fill-opacity="1" /><path clip-path="url(#clip290)" d="M2133.04 264.816 Q2129.62 264.816 2127.63 267.501 Q2125.64 270.163 2125.64 274.816 Q2125.64 279.469 2127.6 282.154 Q2129.6 284.816 2133.04 284.816 Q2136.45 284.816 2138.44 282.131 Q2140.43 279.446 2140.43 274.816 Q2140.43 270.21 2138.44 267.524 Q2136.45 264.816 2133.04 264.816 M2133.04 261.205 Q2138.6 261.205 2141.77 264.816 Q2144.94 268.427 2144.94 274.816 Q2144.94 281.182 2141.77 284.816 Q2138.6 288.427 2133.04 288.427 Q2127.47 288.427 2124.29 284.816 Q2121.15 281.182 2121.15 274.816 Q2121.15 268.427 2124.29 264.816 Q2127.47 261.205 2133.04 261.205 Z" fill="#000000" fill-rule="evenodd" fill-opacity="1" /><path clip-path="url(#clip290)" d="M2167.03 265.811 Q2166.31 265.395 2165.45 265.21 Q2164.62 265.001 2163.6 265.001 Q2159.99 265.001 2158.04 267.362 Q2156.12 269.7 2156.12 274.098 L2156.12 287.756 L2151.84 287.756 L2151.84 261.83 L2156.12 261.83 L2156.12 265.858 Q2157.47 263.497 2159.62 262.362 Q2161.77 261.205 2164.85 261.205 Q2165.29 261.205 2165.82 261.274 Q2166.35 261.321 2167 261.436 L2167.03 265.811 Z" fill="#000000" fill-rule="evenodd" fill-opacity="1" /><path clip-path="url(#clip290)" d="M2182.28 290.163 Q2180.48 294.793 2178.76 296.205 Q2177.05 297.617 2174.18 297.617 L2170.78 297.617 L2170.78 294.052 L2173.28 294.052 Q2175.04 294.052 2176.01 293.219 Q2176.98 292.385 2178.16 289.283 L2178.92 287.339 L2168.44 261.83 L2172.95 261.83 L2181.05 282.108 L2189.16 261.83 L2193.67 261.83 L2182.28 290.163 Z" fill="#000000" fill-rule="evenodd" fill-opacity="1" /><path clip-path="url(#clip290)" d="M2219.25 283.821 L2235.57 283.821 L2235.57 287.756 L2213.62 287.756 L2213.62 283.821 Q2216.29 281.066 2220.87 276.436 Q2225.47 271.784 2226.66 270.441 Q2228.9 267.918 2229.78 266.182 Q2230.68 264.423 2230.68 262.733 Q2230.68 259.978 2228.74 258.242 Q2226.82 256.506 2223.72 256.506 Q2221.52 256.506 2219.06 257.27 Q2216.63 258.034 2213.85 259.585 L2213.85 254.862 Q2216.68 253.728 2219.13 253.149 Q2221.59 252.571 2223.62 252.571 Q2228.99 252.571 2232.19 255.256 Q2235.38 257.941 2235.38 262.432 Q2235.38 264.561 2234.57 266.483 Q2233.78 268.381 2231.68 270.973 Q2231.1 271.645 2228 274.862 Q2224.9 278.057 2219.25 283.821 Z" fill="#000000" fill-rule="evenodd" fill-opacity="1" /></svg>
