<?xml version="1.0" encoding="utf-8"?>
<svg xmlns="http://www.w3.org/2000/svg" xmlns:xlink="http://www.w3.org/1999/xlink" width="600" height="400" viewBox="0 0 2400 1600">
<defs>
  <clipPath id="clip270">
    <rect x="0" y="0" width="2400" height="1600"/>
  </clipPath>
</defs>
<path clip-path="url(#clip270)" d="
M0 1600 L2400 1600 L2400 0 L0 0  Z
  " fill="#ffffff" fill-rule="evenodd" fill-opacity="1"/>
<defs>
  <clipPath id="clip271">
    <rect x="480" y="0" width="1681" height="1600"/>
  </clipPath>
</defs>
<path clip-path="url(#clip270)" d="
M250.028 1423.18 L2352.76 1423.18 L2352.76 123.472 L250.028 123.472  Z
  " fill="#ffffff" fill-rule="evenodd" fill-opacity="1"/>
<defs>
  <clipPath id="clip272">
    <rect x="250" y="123" width="2104" height="1301"/>
  </clipPath>
</defs>
<polyline clip-path="url(#clip272)" style="stroke:#000000; stroke-linecap:butt; stroke-linejoin:round; stroke-width:2; stroke-opacity:0.1; fill:none" points="
  250.028,1423.18 250.028,123.472 
  "/>
<polyline clip-path="url(#clip272)" style="stroke:#000000; stroke-linecap:butt; stroke-linejoin:round; stroke-width:2; stroke-opacity:0.1; fill:none" points="
  632.342,1423.18 632.342,123.472 
  "/>
<polyline clip-path="url(#clip272)" style="stroke:#000000; stroke-linecap:butt; stroke-linejoin:round; stroke-width:2; stroke-opacity:0.1; fill:none" points="
  1014.66,1423.18 1014.66,123.472 
  "/>
<polyline clip-path="url(#clip272)" style="stroke:#000000; stroke-linecap:butt; stroke-linejoin:round; stroke-width:2; stroke-opacity:0.1; fill:none" points="
  1396.97,1423.18 1396.97,123.472 
  "/>
<polyline clip-path="url(#clip272)" style="stroke:#000000; stroke-linecap:butt; stroke-linejoin:round; stroke-width:2; stroke-opacity:0.1; fill:none" points="
  1779.28,1423.18 1779.28,123.472 
  "/>
<polyline clip-path="url(#clip272)" style="stroke:#000000; stroke-linecap:butt; stroke-linejoin:round; stroke-width:2; stroke-opacity:0.1; fill:none" points="
  2161.6,1423.18 2161.6,123.472 
  "/>
<polyline clip-path="url(#clip270)" style="stroke:#000000; stroke-linecap:butt; stroke-linejoin:round; stroke-width:4; stroke-opacity:1; fill:none" points="
  250.028,1423.18 2352.76,1423.18 
  "/>
<polyline clip-path="url(#clip270)" style="stroke:#000000; stroke-linecap:butt; stroke-linejoin:round; stroke-width:4; stroke-opacity:1; fill:none" points="
  250.028,1423.18 250.028,1404.28 
  "/>
<polyline clip-path="url(#clip270)" style="stroke:#000000; stroke-linecap:butt; stroke-linejoin:round; stroke-width:4; stroke-opacity:1; fill:none" points="
  632.342,1423.18 632.342,1404.28 
  "/>
<polyline clip-path="url(#clip270)" style="stroke:#000000; stroke-linecap:butt; stroke-linejoin:round; stroke-width:4; stroke-opacity:1; fill:none" points="
  1014.66,1423.18 1014.66,1404.28 
  "/>
<polyline clip-path="url(#clip270)" style="stroke:#000000; stroke-linecap:butt; stroke-linejoin:round; stroke-width:4; stroke-opacity:1; fill:none" points="
  1396.97,1423.18 1396.97,1404.28 
  "/>
<polyline clip-path="url(#clip270)" style="stroke:#000000; stroke-linecap:butt; stroke-linejoin:round; stroke-width:4; stroke-opacity:1; fill:none" points="
  1779.28,1423.18 1779.28,1404.28 
  "/>
<polyline clip-path="url(#clip270)" style="stroke:#000000; stroke-linecap:butt; stroke-linejoin:round; stroke-width:4; stroke-opacity:1; fill:none" points="
  2161.6,1423.18 2161.6,1404.28 
  "/>
<path clip-path="url(#clip270)" d="M250.028 1454.1 Q246.417 1454.1 244.588 1457.66 Q242.783 1461.2 242.783 1468.33 Q242.783 1475.44 244.588 1479.01 Q246.417 1482.55 250.028 1482.55 Q253.662 1482.55 255.468 1479.01 Q257.297 1475.44 257.297 1468.33 Q257.297 1461.2 255.468 1457.66 Q253.662 1454.1 250.028 1454.1 M250.028 1450.39 Q255.838 1450.39 258.894 1455 Q261.973 1459.58 261.973 1468.33 Q261.973 1477.06 258.894 1481.67 Q255.838 1486.25 250.028 1486.25 Q244.218 1486.25 241.139 1481.67 Q238.084 1477.06 238.084 1468.33 Q238.084 1459.58 241.139 1455 Q244.218 1450.39 250.028 1450.39 Z" fill="#000000" fill-rule="evenodd" fill-opacity="1" /><path clip-path="url(#clip270)" d="M591.949 1481.64 L599.588 1481.64 L599.588 1455.28 L591.278 1456.95 L591.278 1452.69 L599.542 1451.02 L604.217 1451.02 L604.217 1481.64 L611.856 1481.64 L611.856 1485.58 L591.949 1485.58 L591.949 1481.64 Z" fill="#000000" fill-rule="evenodd" fill-opacity="1" /><path clip-path="url(#clip270)" d="M631.301 1454.1 Q627.69 1454.1 625.861 1457.66 Q624.055 1461.2 624.055 1468.33 Q624.055 1475.44 625.861 1479.01 Q627.69 1482.55 631.301 1482.55 Q634.935 1482.55 636.74 1479.01 Q638.569 1475.44 638.569 1468.33 Q638.569 1461.2 636.74 1457.66 Q634.935 1454.1 631.301 1454.1 M631.301 1450.39 Q637.111 1450.39 640.166 1455 Q643.245 1459.58 643.245 1468.33 Q643.245 1477.06 640.166 1481.67 Q637.111 1486.25 631.301 1486.25 Q625.49 1486.25 622.412 1481.67 Q619.356 1477.06 619.356 1468.33 Q619.356 1459.58 622.412 1455 Q625.49 1450.39 631.301 1450.39 Z" fill="#000000" fill-rule="evenodd" fill-opacity="1" /><path clip-path="url(#clip270)" d="M661.462 1454.1 Q657.851 1454.1 656.023 1457.66 Q654.217 1461.2 654.217 1468.33 Q654.217 1475.44 656.023 1479.01 Q657.851 1482.55 661.462 1482.55 Q665.097 1482.55 666.902 1479.01 Q668.731 1475.44 668.731 1468.33 Q668.731 1461.2 666.902 1457.66 Q665.097 1454.1 661.462 1454.1 M661.462 1450.39 Q667.273 1450.39 670.328 1455 Q673.407 1459.58 673.407 1468.33 Q673.407 1477.06 670.328 1481.67 Q667.273 1486.25 661.462 1486.25 Q655.652 1486.25 652.574 1481.67 Q649.518 1477.06 649.518 1468.33 Q649.518 1459.58 652.574 1455 Q655.652 1450.39 661.462 1450.39 Z" fill="#000000" fill-rule="evenodd" fill-opacity="1" /><path clip-path="url(#clip270)" d="M978.349 1481.64 L994.668 1481.64 L994.668 1485.58 L972.724 1485.58 L972.724 1481.64 Q975.386 1478.89 979.969 1474.26 Q984.576 1469.61 985.756 1468.27 Q988.001 1465.74 988.881 1464.01 Q989.784 1462.25 989.784 1460.56 Q989.784 1457.8 987.839 1456.07 Q985.918 1454.33 982.816 1454.33 Q980.617 1454.33 978.164 1455.09 Q975.733 1455.86 972.955 1457.41 L972.955 1452.69 Q975.779 1451.55 978.233 1450.97 Q980.687 1450.39 982.724 1450.39 Q988.094 1450.39 991.288 1453.08 Q994.483 1455.77 994.483 1460.26 Q994.483 1462.39 993.673 1464.31 Q992.886 1466.2 990.779 1468.8 Q990.201 1469.47 987.099 1472.69 Q983.997 1475.88 978.349 1481.64 Z" fill="#000000" fill-rule="evenodd" fill-opacity="1" /><path clip-path="url(#clip270)" d="M1014.48 1454.1 Q1010.87 1454.1 1009.04 1457.66 Q1007.24 1461.2 1007.24 1468.33 Q1007.24 1475.44 1009.04 1479.01 Q1010.87 1482.55 1014.48 1482.55 Q1018.12 1482.55 1019.92 1479.01 Q1021.75 1475.44 1021.75 1468.33 Q1021.75 1461.2 1019.92 1457.66 Q1018.12 1454.1 1014.48 1454.1 M1014.48 1450.39 Q1020.29 1450.39 1023.35 1455 Q1026.43 1459.58 1026.43 1468.33 Q1026.43 1477.06 1023.35 1481.67 Q1020.29 1486.25 1014.48 1486.25 Q1008.67 1486.25 1005.59 1481.67 Q1002.54 1477.06 1002.54 1468.33 Q1002.54 1459.58 1005.59 1455 Q1008.67 1450.39 1014.48 1450.39 Z" fill="#000000" fill-rule="evenodd" fill-opacity="1" /><path clip-path="url(#clip270)" d="M1044.64 1454.1 Q1041.03 1454.1 1039.2 1457.66 Q1037.4 1461.2 1037.4 1468.33 Q1037.4 1475.44 1039.2 1479.01 Q1041.03 1482.55 1044.64 1482.55 Q1048.28 1482.55 1050.08 1479.01 Q1051.91 1475.44 1051.91 1468.33 Q1051.91 1461.2 1050.08 1457.66 Q1048.28 1454.1 1044.64 1454.1 M1044.64 1450.39 Q1050.45 1450.39 1053.51 1455 Q1056.59 1459.58 1056.59 1468.33 Q1056.59 1477.06 1053.51 1481.67 Q1050.45 1486.25 1044.64 1486.25 Q1038.83 1486.25 1035.76 1481.67 Q1032.7 1477.06 1032.7 1468.33 Q1032.7 1459.58 1035.76 1455 Q1038.83 1450.39 1044.64 1450.39 Z" fill="#000000" fill-rule="evenodd" fill-opacity="1" /><path clip-path="url(#clip270)" d="M1370.73 1466.95 Q1374.09 1467.66 1375.96 1469.93 Q1377.86 1472.2 1377.86 1475.53 Q1377.86 1480.65 1374.34 1483.45 Q1370.82 1486.25 1364.34 1486.25 Q1362.17 1486.25 1359.85 1485.81 Q1357.56 1485.39 1355.11 1484.54 L1355.11 1480.02 Q1357.05 1481.16 1359.37 1481.74 Q1361.68 1482.32 1364.2 1482.32 Q1368.6 1482.32 1370.89 1480.58 Q1373.21 1478.84 1373.21 1475.53 Q1373.21 1472.48 1371.06 1470.77 Q1368.93 1469.03 1365.11 1469.03 L1361.08 1469.03 L1361.08 1465.19 L1365.29 1465.19 Q1368.74 1465.19 1370.57 1463.82 Q1372.4 1462.43 1372.4 1459.84 Q1372.4 1457.18 1370.5 1455.77 Q1368.63 1454.33 1365.11 1454.33 Q1363.19 1454.33 1360.99 1454.75 Q1358.79 1455.16 1356.15 1456.04 L1356.15 1451.88 Q1358.81 1451.14 1361.13 1450.77 Q1363.46 1450.39 1365.52 1450.39 Q1370.85 1450.39 1373.95 1452.83 Q1377.05 1455.23 1377.05 1459.35 Q1377.05 1462.22 1375.41 1464.21 Q1373.76 1466.18 1370.73 1466.95 Z" fill="#000000" fill-rule="evenodd" fill-opacity="1" /><path clip-path="url(#clip270)" d="M1396.73 1454.1 Q1393.12 1454.1 1391.29 1457.66 Q1389.48 1461.2 1389.48 1468.33 Q1389.48 1475.44 1391.29 1479.01 Q1393.12 1482.55 1396.73 1482.55 Q1400.36 1482.55 1402.17 1479.01 Q1404 1475.44 1404 1468.33 Q1404 1461.2 1402.17 1457.66 Q1400.36 1454.1 1396.73 1454.1 M1396.73 1450.39 Q1402.54 1450.39 1405.59 1455 Q1408.67 1459.58 1408.67 1468.33 Q1408.67 1477.06 1405.59 1481.67 Q1402.54 1486.25 1396.73 1486.25 Q1390.92 1486.25 1387.84 1481.67 Q1384.78 1477.06 1384.78 1468.33 Q1384.78 1459.58 1387.84 1455 Q1390.92 1450.39 1396.73 1450.39 Z" fill="#000000" fill-rule="evenodd" fill-opacity="1" /><path clip-path="url(#clip270)" d="M1426.89 1454.1 Q1423.28 1454.1 1421.45 1457.66 Q1419.64 1461.2 1419.64 1468.33 Q1419.64 1475.44 1421.45 1479.01 Q1423.28 1482.55 1426.89 1482.55 Q1430.52 1482.55 1432.33 1479.01 Q1434.16 1475.44 1434.16 1468.33 Q1434.16 1461.2 1432.33 1457.66 Q1430.52 1454.1 1426.89 1454.1 M1426.89 1450.39 Q1432.7 1450.39 1435.76 1455 Q1438.83 1459.58 1438.83 1468.33 Q1438.83 1477.06 1435.76 1481.67 Q1432.7 1486.25 1426.89 1486.25 Q1421.08 1486.25 1418 1481.67 Q1414.94 1477.06 1414.94 1468.33 Q1414.94 1459.58 1418 1455 Q1421.08 1450.39 1426.89 1450.39 Z" fill="#000000" fill-rule="evenodd" fill-opacity="1" /><path clip-path="url(#clip270)" d="M1752.38 1455.09 L1740.57 1473.54 L1752.38 1473.54 L1752.38 1455.09 M1751.15 1451.02 L1757.03 1451.02 L1757.03 1473.54 L1761.96 1473.54 L1761.96 1477.43 L1757.03 1477.43 L1757.03 1485.58 L1752.38 1485.58 L1752.38 1477.43 L1736.77 1477.43 L1736.77 1472.92 L1751.15 1451.02 Z" fill="#000000" fill-rule="evenodd" fill-opacity="1" /><path clip-path="url(#clip270)" d="M1779.69 1454.1 Q1776.08 1454.1 1774.25 1457.66 Q1772.44 1461.2 1772.44 1468.33 Q1772.44 1475.44 1774.25 1479.01 Q1776.08 1482.55 1779.69 1482.55 Q1783.32 1482.55 1785.13 1479.01 Q1786.96 1475.44 1786.96 1468.33 Q1786.96 1461.2 1785.13 1457.66 Q1783.32 1454.1 1779.69 1454.1 M1779.69 1450.39 Q1785.5 1450.39 1788.56 1455 Q1791.63 1459.58 1791.63 1468.33 Q1791.63 1477.06 1788.56 1481.67 Q1785.5 1486.25 1779.69 1486.25 Q1773.88 1486.25 1770.8 1481.67 Q1767.75 1477.06 1767.75 1468.33 Q1767.75 1459.58 1770.8 1455 Q1773.88 1450.39 1779.69 1450.39 Z" fill="#000000" fill-rule="evenodd" fill-opacity="1" /><path clip-path="url(#clip270)" d="M1809.85 1454.1 Q1806.24 1454.1 1804.41 1457.66 Q1802.61 1461.2 1802.61 1468.33 Q1802.61 1475.44 1804.41 1479.01 Q1806.24 1482.55 1809.85 1482.55 Q1813.49 1482.55 1815.29 1479.01 Q1817.12 1475.44 1817.12 1468.33 Q1817.12 1461.2 1815.29 1457.66 Q1813.49 1454.1 1809.85 1454.1 M1809.85 1450.39 Q1815.66 1450.39 1818.72 1455 Q1821.8 1459.58 1821.8 1468.33 Q1821.8 1477.06 1818.72 1481.67 Q1815.66 1486.25 1809.85 1486.25 Q1804.04 1486.25 1800.96 1481.67 Q1797.91 1477.06 1797.91 1468.33 Q1797.91 1459.58 1800.96 1455 Q1804.04 1450.39 1809.85 1450.39 Z" fill="#000000" fill-rule="evenodd" fill-opacity="1" /><path clip-path="url(#clip270)" d="M2121.22 1451.02 L2139.57 1451.02 L2139.57 1454.96 L2125.5 1454.96 L2125.5 1463.43 Q2126.52 1463.08 2127.54 1462.92 Q2128.56 1462.73 2129.57 1462.73 Q2135.36 1462.73 2138.74 1465.9 Q2142.12 1469.08 2142.12 1474.49 Q2142.12 1480.07 2138.65 1483.17 Q2135.18 1486.25 2128.86 1486.25 Q2126.68 1486.25 2124.41 1485.88 Q2122.17 1485.51 2119.76 1484.77 L2119.76 1480.07 Q2121.84 1481.2 2124.06 1481.76 Q2126.29 1482.32 2128.76 1482.32 Q2132.77 1482.32 2135.11 1480.21 Q2137.44 1478.1 2137.44 1474.49 Q2137.44 1470.88 2135.11 1468.77 Q2132.77 1466.67 2128.76 1466.67 Q2126.89 1466.67 2125.01 1467.08 Q2123.16 1467.5 2121.22 1468.38 L2121.22 1451.02 Z" fill="#000000" fill-rule="evenodd" fill-opacity="1" /><path clip-path="url(#clip270)" d="M2161.33 1454.1 Q2157.72 1454.1 2155.89 1457.66 Q2154.09 1461.2 2154.09 1468.33 Q2154.09 1475.44 2155.89 1479.01 Q2157.72 1482.55 2161.33 1482.55 Q2164.97 1482.55 2166.77 1479.01 Q2168.6 1475.44 2168.6 1468.33 Q2168.6 1461.2 2166.77 1457.66 Q2164.97 1454.1 2161.33 1454.1 M2161.33 1450.39 Q2167.14 1450.39 2170.2 1455 Q2173.28 1459.58 2173.28 1468.33 Q2173.28 1477.06 2170.2 1481.67 Q2167.14 1486.25 2161.33 1486.25 Q2155.52 1486.25 2152.44 1481.67 Q2149.39 1477.06 2149.39 1468.33 Q2149.39 1459.58 2152.44 1455 Q2155.52 1450.39 2161.33 1450.39 Z" fill="#000000" fill-rule="evenodd" fill-opacity="1" /><path clip-path="url(#clip270)" d="M2191.49 1454.1 Q2187.88 1454.1 2186.05 1457.66 Q2184.25 1461.2 2184.25 1468.33 Q2184.25 1475.44 2186.05 1479.01 Q2187.88 1482.55 2191.49 1482.55 Q2195.13 1482.55 2196.93 1479.01 Q2198.76 1475.44 2198.76 1468.33 Q2198.76 1461.2 2196.93 1457.66 Q2195.13 1454.1 2191.49 1454.1 M2191.49 1450.39 Q2197.3 1450.39 2200.36 1455 Q2203.44 1459.58 2203.44 1468.33 Q2203.44 1477.06 2200.36 1481.67 Q2197.3 1486.25 2191.49 1486.25 Q2185.68 1486.25 2182.61 1481.67 Q2179.55 1477.06 2179.55 1468.33 Q2179.55 1459.58 2182.61 1455 Q2185.68 1450.39 2191.49 1450.39 Z" fill="#000000" fill-rule="evenodd" fill-opacity="1" /><path clip-path="url(#clip270)" d="M1309.86 1548.54 Q1309.86 1549.45 1309.44 1549.67 Q1309.03 1549.87 1307.87 1549.87 L1301.68 1549.87 L1296.79 1569.32 Q1296.4 1571.02 1296.4 1572.47 Q1296.4 1574.08 1296.88 1574.79 Q1297.4 1575.5 1298.46 1575.5 Q1300.56 1575.5 1302.81 1573.6 Q1305.1 1571.7 1307.03 1567.06 Q1307.29 1566.45 1307.42 1566.32 Q1307.58 1566.16 1308 1566.16 Q1308.8 1566.16 1308.8 1566.81 Q1308.8 1567.03 1308.35 1568.06 Q1307.93 1569.09 1307 1570.61 Q1306.09 1572.12 1304.9 1573.54 Q1303.74 1574.95 1301.97 1575.98 Q1300.2 1576.98 1298.3 1576.98 Q1295.63 1576.98 1293.92 1575.28 Q1292.25 1573.57 1292.25 1570.9 Q1292.25 1570.03 1292.92 1567.26 Q1293.6 1564.45 1297.27 1549.87 L1291.44 1549.87 Q1290.64 1549.87 1290.31 1549.83 Q1290.02 1549.8 1289.8 1549.64 Q1289.61 1549.45 1289.61 1549.06 Q1289.61 1548.45 1289.86 1548.19 Q1290.12 1547.9 1290.44 1547.87 Q1290.8 1547.8 1291.6 1547.8 L1297.79 1547.8 L1300.36 1537.34 Q1300.62 1536.31 1301.26 1535.73 Q1301.94 1535.12 1302.33 1535.05 Q1302.71 1534.95 1303 1534.95 Q1303.87 1534.95 1304.39 1535.44 Q1304.9 1535.89 1304.9 1536.73 Q1304.9 1537.18 1302.2 1547.8 L1308 1547.8 Q1308.74 1547.8 1309.03 1547.84 Q1309.35 1547.87 1309.61 1548.03 Q1309.86 1548.19 1309.86 1548.54 Z" fill="#000000" fill-rule="evenodd" fill-opacity="1" /><polyline clip-path="url(#clip272)" style="stroke:#000000; stroke-linecap:butt; stroke-linejoin:round; stroke-width:2; stroke-opacity:0.1; fill:none" points="
  250.028,1387.22 2352.76,1387.22 
  "/>
<polyline clip-path="url(#clip272)" style="stroke:#000000; stroke-linecap:butt; stroke-linejoin:round; stroke-width:2; stroke-opacity:0.1; fill:none" points="
  250.028,1119.54 2352.76,1119.54 
  "/>
<polyline clip-path="url(#clip272)" style="stroke:#000000; stroke-linecap:butt; stroke-linejoin:round; stroke-width:2; stroke-opacity:0.1; fill:none" points="
  250.028,851.868 2352.76,851.868 
  "/>
<polyline clip-path="url(#clip272)" style="stroke:#000000; stroke-linecap:butt; stroke-linejoin:round; stroke-width:2; stroke-opacity:0.1; fill:none" points="
  250.028,584.193 2352.76,584.193 
  "/>
<polyline clip-path="url(#clip272)" style="stroke:#000000; stroke-linecap:butt; stroke-linejoin:round; stroke-width:2; stroke-opacity:0.1; fill:none" points="
  250.028,316.519 2352.76,316.519 
  "/>
<polyline clip-path="url(#clip270)" style="stroke:#000000; stroke-linecap:butt; stroke-linejoin:round; stroke-width:4; stroke-opacity:1; fill:none" points="
  250.028,1423.18 250.028,123.472 
  "/>
<polyline clip-path="url(#clip270)" style="stroke:#000000; stroke-linecap:butt; stroke-linejoin:round; stroke-width:4; stroke-opacity:1; fill:none" points="
  250.028,1387.22 268.926,1387.22 
  "/>
<polyline clip-path="url(#clip270)" style="stroke:#000000; stroke-linecap:butt; stroke-linejoin:round; stroke-width:4; stroke-opacity:1; fill:none" points="
  250.028,1119.54 268.926,1119.54 
  "/>
<polyline clip-path="url(#clip270)" style="stroke:#000000; stroke-linecap:butt; stroke-linejoin:round; stroke-width:4; stroke-opacity:1; fill:none" points="
  250.028,851.868 268.926,851.868 
  "/>
<polyline clip-path="url(#clip270)" style="stroke:#000000; stroke-linecap:butt; stroke-linejoin:round; stroke-width:4; stroke-opacity:1; fill:none" points="
  250.028,584.193 268.926,584.193 
  "/>
<polyline clip-path="url(#clip270)" style="stroke:#000000; stroke-linecap:butt; stroke-linejoin:round; stroke-width:4; stroke-opacity:1; fill:none" points="
  250.028,316.519 268.926,316.519 
  "/>
<path clip-path="url(#clip270)" d="M126.691 1373.02 Q123.08 1373.02 121.251 1376.58 Q119.445 1380.12 119.445 1387.25 Q119.445 1394.36 121.251 1397.92 Q123.08 1401.46 126.691 1401.46 Q130.325 1401.46 132.13 1397.92 Q133.959 1394.36 133.959 1387.25 Q133.959 1380.12 132.13 1376.58 Q130.325 1373.02 126.691 1373.02 M126.691 1369.31 Q132.501 1369.31 135.556 1373.92 Q138.635 1378.5 138.635 1387.25 Q138.635 1395.98 135.556 1400.58 Q132.501 1405.17 126.691 1405.17 Q120.88 1405.17 117.802 1400.58 Q114.746 1395.98 114.746 1387.25 Q114.746 1378.5 117.802 1373.92 Q120.88 1369.31 126.691 1369.31 Z" fill="#000000" fill-rule="evenodd" fill-opacity="1" /><path clip-path="url(#clip270)" d="M146.853 1398.62 L151.737 1398.62 L151.737 1404.5 L146.853 1404.5 L146.853 1398.62 Z" fill="#000000" fill-rule="evenodd" fill-opacity="1" /><path clip-path="url(#clip270)" d="M171.922 1373.02 Q168.311 1373.02 166.482 1376.58 Q164.677 1380.12 164.677 1387.25 Q164.677 1394.36 166.482 1397.92 Q168.311 1401.46 171.922 1401.46 Q175.556 1401.46 177.362 1397.92 Q179.19 1394.36 179.19 1387.25 Q179.19 1380.12 177.362 1376.58 Q175.556 1373.02 171.922 1373.02 M171.922 1369.31 Q177.732 1369.31 180.788 1373.92 Q183.866 1378.5 183.866 1387.25 Q183.866 1395.98 180.788 1400.58 Q177.732 1405.17 171.922 1405.17 Q166.112 1405.17 163.033 1400.58 Q159.978 1395.98 159.978 1387.25 Q159.978 1378.5 163.033 1373.92 Q166.112 1369.31 171.922 1369.31 Z" fill="#000000" fill-rule="evenodd" fill-opacity="1" /><path clip-path="url(#clip270)" d="M202.084 1373.02 Q198.473 1373.02 196.644 1376.58 Q194.838 1380.12 194.838 1387.25 Q194.838 1394.36 196.644 1397.92 Q198.473 1401.46 202.084 1401.46 Q205.718 1401.46 207.524 1397.92 Q209.352 1394.36 209.352 1387.25 Q209.352 1380.12 207.524 1376.58 Q205.718 1373.02 202.084 1373.02 M202.084 1369.31 Q207.894 1369.31 210.949 1373.92 Q214.028 1378.5 214.028 1387.25 Q214.028 1395.98 210.949 1400.58 Q207.894 1405.17 202.084 1405.17 Q196.274 1405.17 193.195 1400.58 Q190.139 1395.98 190.139 1387.25 Q190.139 1378.5 193.195 1373.92 Q196.274 1369.31 202.084 1369.31 Z" fill="#000000" fill-rule="evenodd" fill-opacity="1" /><path clip-path="url(#clip270)" d="M128.288 1105.34 Q124.677 1105.34 122.848 1108.91 Q121.043 1112.45 121.043 1119.58 Q121.043 1126.68 122.848 1130.25 Q124.677 1133.79 128.288 1133.79 Q131.922 1133.79 133.728 1130.25 Q135.556 1126.68 135.556 1119.58 Q135.556 1112.45 133.728 1108.91 Q131.922 1105.34 128.288 1105.34 M128.288 1101.64 Q134.098 1101.64 137.154 1106.24 Q140.232 1110.83 140.232 1119.58 Q140.232 1128.3 137.154 1132.91 Q134.098 1137.49 128.288 1137.49 Q122.478 1137.49 119.399 1132.91 Q116.343 1128.3 116.343 1119.58 Q116.343 1110.83 119.399 1106.24 Q122.478 1101.64 128.288 1101.64 Z" fill="#000000" fill-rule="evenodd" fill-opacity="1" /><path clip-path="url(#clip270)" d="M148.45 1130.94 L153.334 1130.94 L153.334 1136.82 L148.45 1136.82 L148.45 1130.94 Z" fill="#000000" fill-rule="evenodd" fill-opacity="1" /><path clip-path="url(#clip270)" d="M173.519 1105.34 Q169.908 1105.34 168.079 1108.91 Q166.274 1112.45 166.274 1119.58 Q166.274 1126.68 168.079 1130.25 Q169.908 1133.79 173.519 1133.79 Q177.153 1133.79 178.959 1130.25 Q180.788 1126.68 180.788 1119.58 Q180.788 1112.45 178.959 1108.91 Q177.153 1105.34 173.519 1105.34 M173.519 1101.64 Q179.329 1101.64 182.385 1106.24 Q185.463 1110.83 185.463 1119.58 Q185.463 1128.3 182.385 1132.91 Q179.329 1137.49 173.519 1137.49 Q167.709 1137.49 164.63 1132.91 Q161.575 1128.3 161.575 1119.58 Q161.575 1110.83 164.63 1106.24 Q167.709 1101.64 173.519 1101.64 Z" fill="#000000" fill-rule="evenodd" fill-opacity="1" /><path clip-path="url(#clip270)" d="M197.709 1132.89 L214.028 1132.89 L214.028 1136.82 L192.084 1136.82 L192.084 1132.89 Q194.746 1130.13 199.329 1125.5 Q203.936 1120.85 205.116 1119.51 Q207.362 1116.98 208.241 1115.25 Q209.144 1113.49 209.144 1111.8 Q209.144 1109.04 207.199 1107.31 Q205.278 1105.57 202.176 1105.57 Q199.977 1105.57 197.524 1106.34 Q195.093 1107.1 192.315 1108.65 L192.315 1103.93 Q195.139 1102.79 197.593 1102.22 Q200.047 1101.64 202.084 1101.64 Q207.454 1101.64 210.649 1104.32 Q213.843 1107.01 213.843 1111.5 Q213.843 1113.63 213.033 1115.55 Q212.246 1117.45 210.139 1120.04 Q209.561 1120.71 206.459 1123.93 Q203.357 1127.12 197.709 1132.89 Z" fill="#000000" fill-rule="evenodd" fill-opacity="1" /><path clip-path="url(#clip270)" d="M126.205 837.667 Q122.593 837.667 120.765 841.231 Q118.959 844.773 118.959 851.903 Q118.959 859.009 120.765 862.574 Q122.593 866.116 126.205 866.116 Q129.839 866.116 131.644 862.574 Q133.473 859.009 133.473 851.903 Q133.473 844.773 131.644 841.231 Q129.839 837.667 126.205 837.667 M126.205 833.963 Q132.015 833.963 135.07 838.569 Q138.149 843.153 138.149 851.903 Q138.149 860.629 135.07 865.236 Q132.015 869.819 126.205 869.819 Q120.394 869.819 117.316 865.236 Q114.26 860.629 114.26 851.903 Q114.26 843.153 117.316 838.569 Q120.394 833.963 126.205 833.963 Z" fill="#000000" fill-rule="evenodd" fill-opacity="1" /><path clip-path="url(#clip270)" d="M146.366 863.268 L151.251 863.268 L151.251 869.148 L146.366 869.148 L146.366 863.268 Z" fill="#000000" fill-rule="evenodd" fill-opacity="1" /><path clip-path="url(#clip270)" d="M171.436 837.667 Q167.825 837.667 165.996 841.231 Q164.19 844.773 164.19 851.903 Q164.19 859.009 165.996 862.574 Q167.825 866.116 171.436 866.116 Q175.07 866.116 176.876 862.574 Q178.704 859.009 178.704 851.903 Q178.704 844.773 176.876 841.231 Q175.07 837.667 171.436 837.667 M171.436 833.963 Q177.246 833.963 180.301 838.569 Q183.38 843.153 183.38 851.903 Q183.38 860.629 180.301 865.236 Q177.246 869.819 171.436 869.819 Q165.626 869.819 162.547 865.236 Q159.491 860.629 159.491 851.903 Q159.491 843.153 162.547 838.569 Q165.626 833.963 171.436 833.963 Z" fill="#000000" fill-rule="evenodd" fill-opacity="1" /><path clip-path="url(#clip270)" d="M204.445 838.662 L192.639 857.111 L204.445 857.111 L204.445 838.662 M203.218 834.588 L209.098 834.588 L209.098 857.111 L214.028 857.111 L214.028 861 L209.098 861 L209.098 869.148 L204.445 869.148 L204.445 861 L188.843 861 L188.843 856.486 L203.218 834.588 Z" fill="#000000" fill-rule="evenodd" fill-opacity="1" /><path clip-path="url(#clip270)" d="M126.529 569.992 Q122.918 569.992 121.089 573.557 Q119.283 577.099 119.283 584.228 Q119.283 591.335 121.089 594.899 Q122.918 598.441 126.529 598.441 Q130.163 598.441 131.968 594.899 Q133.797 591.335 133.797 584.228 Q133.797 577.099 131.968 573.557 Q130.163 569.992 126.529 569.992 M126.529 566.288 Q132.339 566.288 135.394 570.895 Q138.473 575.478 138.473 584.228 Q138.473 592.955 135.394 597.561 Q132.339 602.145 126.529 602.145 Q120.718 602.145 117.64 597.561 Q114.584 592.955 114.584 584.228 Q114.584 575.478 117.64 570.895 Q120.718 566.288 126.529 566.288 Z" fill="#000000" fill-rule="evenodd" fill-opacity="1" /><path clip-path="url(#clip270)" d="M146.691 595.594 L151.575 595.594 L151.575 601.473 L146.691 601.473 L146.691 595.594 Z" fill="#000000" fill-rule="evenodd" fill-opacity="1" /><path clip-path="url(#clip270)" d="M171.76 569.992 Q168.149 569.992 166.32 573.557 Q164.515 577.099 164.515 584.228 Q164.515 591.335 166.32 594.899 Q168.149 598.441 171.76 598.441 Q175.394 598.441 177.2 594.899 Q179.028 591.335 179.028 584.228 Q179.028 577.099 177.2 573.557 Q175.394 569.992 171.76 569.992 M171.76 566.288 Q177.57 566.288 180.626 570.895 Q183.704 575.478 183.704 584.228 Q183.704 592.955 180.626 597.561 Q177.57 602.145 171.76 602.145 Q165.95 602.145 162.871 597.561 Q159.815 592.955 159.815 584.228 Q159.815 575.478 162.871 570.895 Q165.95 566.288 171.76 566.288 Z" fill="#000000" fill-rule="evenodd" fill-opacity="1" /><path clip-path="url(#clip270)" d="M202.5 582.33 Q199.352 582.33 197.5 584.483 Q195.672 586.636 195.672 590.386 Q195.672 594.112 197.5 596.288 Q199.352 598.441 202.5 598.441 Q205.649 598.441 207.477 596.288 Q209.329 594.112 209.329 590.386 Q209.329 586.636 207.477 584.483 Q205.649 582.33 202.5 582.33 M211.783 567.677 L211.783 571.937 Q210.024 571.103 208.218 570.663 Q206.436 570.224 204.676 570.224 Q200.047 570.224 197.593 573.349 Q195.163 576.474 194.815 582.793 Q196.181 580.779 198.241 579.714 Q200.301 578.626 202.778 578.626 Q207.987 578.626 210.996 581.798 Q214.028 584.946 214.028 590.386 Q214.028 595.71 210.88 598.927 Q207.732 602.145 202.5 602.145 Q196.505 602.145 193.334 597.561 Q190.163 592.955 190.163 584.228 Q190.163 576.034 194.051 571.173 Q197.94 566.288 204.491 566.288 Q206.25 566.288 208.033 566.636 Q209.838 566.983 211.783 567.677 Z" fill="#000000" fill-rule="evenodd" fill-opacity="1" /><path clip-path="url(#clip270)" d="M126.783 302.318 Q123.172 302.318 121.343 305.882 Q119.538 309.424 119.538 316.554 Q119.538 323.66 121.343 327.225 Q123.172 330.767 126.783 330.767 Q130.417 330.767 132.223 327.225 Q134.052 323.66 134.052 316.554 Q134.052 309.424 132.223 305.882 Q130.417 302.318 126.783 302.318 M126.783 298.614 Q132.593 298.614 135.649 303.22 Q138.728 307.804 138.728 316.554 Q138.728 325.28 135.649 329.887 Q132.593 334.47 126.783 334.47 Q120.973 334.47 117.894 329.887 Q114.839 325.28 114.839 316.554 Q114.839 307.804 117.894 303.22 Q120.973 298.614 126.783 298.614 Z" fill="#000000" fill-rule="evenodd" fill-opacity="1" /><path clip-path="url(#clip270)" d="M146.945 327.919 L151.829 327.919 L151.829 333.799 L146.945 333.799 L146.945 327.919 Z" fill="#000000" fill-rule="evenodd" fill-opacity="1" /><path clip-path="url(#clip270)" d="M172.014 302.318 Q168.403 302.318 166.575 305.882 Q164.769 309.424 164.769 316.554 Q164.769 323.66 166.575 327.225 Q168.403 330.767 172.014 330.767 Q175.649 330.767 177.454 327.225 Q179.283 323.66 179.283 316.554 Q179.283 309.424 177.454 305.882 Q175.649 302.318 172.014 302.318 M172.014 298.614 Q177.825 298.614 180.88 303.22 Q183.959 307.804 183.959 316.554 Q183.959 325.28 180.88 329.887 Q177.825 334.47 172.014 334.47 Q166.204 334.47 163.126 329.887 Q160.07 325.28 160.07 316.554 Q160.07 307.804 163.126 303.22 Q166.204 298.614 172.014 298.614 Z" fill="#000000" fill-rule="evenodd" fill-opacity="1" /><path clip-path="url(#clip270)" d="M202.176 317.387 Q198.843 317.387 196.922 319.169 Q195.024 320.952 195.024 324.077 Q195.024 327.202 196.922 328.984 Q198.843 330.767 202.176 330.767 Q205.51 330.767 207.431 328.984 Q209.352 327.179 209.352 324.077 Q209.352 320.952 207.431 319.169 Q205.533 317.387 202.176 317.387 M197.5 315.396 Q194.491 314.656 192.801 312.595 Q191.135 310.535 191.135 307.572 Q191.135 303.429 194.075 301.021 Q197.037 298.614 202.176 298.614 Q207.338 298.614 210.278 301.021 Q213.218 303.429 213.218 307.572 Q213.218 310.535 211.528 312.595 Q209.861 314.656 206.875 315.396 Q210.255 316.183 212.13 318.475 Q214.028 320.767 214.028 324.077 Q214.028 329.1 210.949 331.785 Q207.894 334.47 202.176 334.47 Q196.459 334.47 193.38 331.785 Q190.325 329.1 190.325 324.077 Q190.325 320.767 192.223 318.475 Q194.121 316.183 197.5 315.396 M195.787 308.012 Q195.787 310.697 197.454 312.202 Q199.144 313.706 202.176 313.706 Q205.186 313.706 206.875 312.202 Q208.588 310.697 208.588 308.012 Q208.588 305.327 206.875 303.822 Q205.186 302.318 202.176 302.318 Q199.144 302.318 197.454 303.822 Q195.787 305.327 195.787 308.012 Z" fill="#000000" fill-rule="evenodd" fill-opacity="1" /><path clip-path="url(#clip270)" d="M27.2366 806.044 Q28.6537 806.044 29.7164 807.204 Q30.747 808.331 30.747 809.555 Q30.747 810.682 30.0707 811.391 Q29.3622 812.067 28.3638 812.067 Q27.0434 812.067 25.9484 810.94 Q24.8534 809.812 24.8534 808.492 Q24.8534 807.397 25.5297 806.721 Q26.206 806.044 27.2366 806.044 M59.0238 805.465 Q59.2814 805.465 60.312 805.755 Q61.3104 806.044 62.8563 806.753 Q64.37 807.429 65.787 808.363 Q67.2041 809.297 68.2024 810.843 Q69.2008 812.357 69.2008 814.096 Q69.2008 816.447 67.6549 817.993 Q66.1091 819.506 63.7902 819.506 Q62.5342 819.506 58.5085 817.993 Q46.7856 813.613 46.3025 813.452 Q44.4667 812.711 42.8564 812.711 Q42.1157 812.711 41.6648 812.872 Q41.1817 813.033 41.0207 813.355 Q40.8275 813.677 40.7953 813.87 Q40.7631 814.031 40.7631 814.354 Q40.7631 816.254 42.6954 818.025 Q44.6278 819.796 48.9433 821.02 Q49.7485 821.278 49.9417 821.439 Q50.135 821.6 50.135 822.083 Q50.1028 822.888 49.4586 822.888 Q49.2654 822.888 48.5247 822.663 Q47.7517 822.437 46.5923 822.018 Q45.4007 821.6 44.1769 820.859 Q42.9208 820.118 41.8258 819.217 Q40.7308 818.283 40.0223 816.962 Q39.3138 815.642 39.3138 814.16 Q39.3138 811.745 40.8919 810.263 Q42.4378 808.75 44.7244 808.75 Q45.9804 808.75 48.2026 809.619 Q51.1011 810.682 52.0351 811.069 L58.9594 813.645 Q61.4714 814.579 62.2444 814.869 Q62.9851 815.126 63.8869 815.352 Q64.7564 815.545 65.5616 815.545 Q66.6888 815.545 67.2041 815.191 Q67.7194 814.804 67.7194 813.967 Q67.7194 811.648 65.4327 809.941 Q63.1139 808.234 59.5713 807.236 Q59.4747 807.204 59.3136 807.172 Q58.5085 806.914 58.4119 806.656 Q58.3797 806.527 58.3797 806.27 Q58.3797 805.465 59.0238 805.465 Z" fill="#000000" fill-rule="evenodd" fill-opacity="1" /><path clip-path="url(#clip270)" d="M51.9707 794.824 Q40.8275 794.824 31.842 790.669 Q28.0739 788.898 24.9178 786.418 Q21.7616 783.938 20.3767 782.296 Q18.9919 780.653 18.9919 780.202 Q18.9919 779.558 19.636 779.526 Q19.9581 779.526 20.7632 780.395 Q31.5844 791.023 51.9707 790.991 Q72.4214 790.991 82.8239 780.653 Q83.9511 779.526 84.3054 779.526 Q84.9495 779.526 84.9495 780.202 Q84.9495 780.653 83.6291 782.231 Q82.3086 783.809 79.2813 786.257 Q76.2539 788.705 72.5502 790.476 Q63.5648 794.824 51.9707 794.824 Z" fill="#000000" fill-rule="evenodd" fill-opacity="1" /><path clip-path="url(#clip270)" d="M40.7631 754.255 Q41.6648 754.255 41.8903 754.673 Q42.0835 755.092 42.0835 756.252 L42.0835 762.435 L61.5358 767.33 Q63.2427 767.717 64.692 767.717 Q66.3023 767.717 67.0108 767.234 Q67.7194 766.718 67.7194 765.656 Q67.7194 763.562 65.8192 761.308 Q63.9191 759.021 59.2814 757.089 Q58.6695 756.831 58.5407 756.702 Q58.3797 756.541 58.3797 756.123 Q58.3797 755.318 59.0238 755.318 Q59.2492 755.318 60.2798 755.768 Q61.3104 756.187 62.8241 757.121 Q64.3377 758.023 65.7548 759.215 Q67.1719 760.374 68.2024 762.145 Q69.2008 763.917 69.2008 765.817 Q69.2008 768.49 67.4939 770.197 Q65.787 771.871 63.1139 771.871 Q62.2444 771.871 59.4747 771.195 Q56.6727 770.519 42.0835 766.847 L42.0835 772.677 Q42.0835 773.482 42.0513 773.804 Q42.0191 774.094 41.8581 774.319 Q41.6648 774.512 41.2783 774.512 Q40.6664 774.512 40.4088 774.255 Q40.1189 773.997 40.0867 773.675 Q40.0223 773.321 40.0223 772.516 L40.0223 766.332 L29.5554 763.756 Q28.5248 763.498 27.9451 762.854 Q27.3332 762.177 27.2688 761.791 Q27.1722 761.405 27.1722 761.115 Q27.1722 760.245 27.6553 759.73 Q28.1062 759.215 28.9435 759.215 Q29.3944 759.215 40.0223 761.92 L40.0223 756.123 Q40.0223 755.382 40.0545 755.092 Q40.0867 754.77 40.2478 754.512 Q40.4088 754.255 40.7631 754.255 Z" fill="#000000" fill-rule="evenodd" fill-opacity="1" /><path clip-path="url(#clip270)" d="M84.3054 749.091 Q83.9833 749.091 83.1782 748.254 Q72.357 737.626 51.9707 737.626 Q31.52 737.626 21.1819 747.835 Q19.9903 749.091 19.636 749.091 Q18.9919 749.091 18.9919 748.447 Q18.9919 747.996 20.3123 746.418 Q21.6328 744.808 24.6601 742.393 Q27.6875 739.945 31.3911 738.141 Q40.3766 733.794 51.9707 733.794 Q63.1139 733.794 72.0994 737.948 Q75.8674 739.719 79.0236 742.199 Q82.1798 744.679 83.5646 746.322 Q84.9495 747.964 84.9495 748.447 Q84.9495 749.091 84.3054 749.091 Z" fill="#000000" fill-rule="evenodd" fill-opacity="1" /><path clip-path="url(#clip270)" d="M871.976 12.096 L882.994 12.096 L909.811 62.6918 L909.811 12.096 L917.751 12.096 L917.751 72.576 L906.733 72.576 L879.916 21.9802 L879.916 72.576 L871.976 72.576 L871.976 12.096 Z" fill="#000000" fill-rule="evenodd" fill-opacity="1" /><path clip-path="url(#clip270)" d="M932.942 54.671 L932.942 27.2059 L940.396 27.2059 L940.396 54.3874 Q940.396 60.8284 942.907 64.0691 Q945.419 67.2693 950.442 67.2693 Q956.478 67.2693 959.962 63.421 Q963.486 59.5726 963.486 52.9291 L963.486 27.2059 L970.94 27.2059 L970.94 72.576 L963.486 72.576 L963.486 65.6084 Q960.772 69.7404 957.166 71.7658 Q953.602 73.7508 948.862 73.7508 Q941.044 73.7508 936.993 68.8897 Q932.942 64.0286 932.942 54.671 M951.698 26.1121 L951.698 26.1121 Z" fill="#000000" fill-rule="evenodd" fill-opacity="1" /><path clip-path="url(#clip270)" d="M1021.62 35.9153 Q1024.41 30.8922 1028.3 28.5022 Q1032.19 26.1121 1037.46 26.1121 Q1044.54 26.1121 1048.39 31.0947 Q1052.24 36.0368 1052.24 45.1919 L1052.24 72.576 L1044.75 72.576 L1044.75 45.4349 Q1044.75 38.913 1042.44 35.7533 Q1040.13 32.5936 1035.39 32.5936 Q1029.6 32.5936 1026.23 36.4419 Q1022.87 40.2903 1022.87 46.9338 L1022.87 72.576 L1015.38 72.576 L1015.38 45.4349 Q1015.38 38.8725 1013.07 35.7533 Q1010.76 32.5936 1005.94 32.5936 Q1000.23 32.5936 996.865 36.4824 Q993.503 40.3308 993.503 46.9338 L993.503 72.576 L986.009 72.576 L986.009 27.2059 L993.503 27.2059 L993.503 34.2544 Q996.055 30.082 999.62 28.0971 Q1003.18 26.1121 1008.09 26.1121 Q1013.03 26.1121 1016.47 28.6237 Q1019.96 31.1352 1021.62 35.9153 Z" fill="#000000" fill-rule="evenodd" fill-opacity="1" /><path clip-path="url(#clip270)" d="M1099.68 49.9314 Q1099.68 41.7081 1096.27 37.0496 Q1092.91 32.3505 1087 32.3505 Q1081.08 32.3505 1077.68 37.0496 Q1074.32 41.7081 1074.32 49.9314 Q1074.32 58.1548 1077.68 62.8538 Q1081.08 67.5124 1087 67.5124 Q1092.91 67.5124 1096.27 62.8538 Q1099.68 58.1548 1099.68 49.9314 M1074.32 34.0924 Q1076.67 30.0415 1080.23 28.0971 Q1083.84 26.1121 1088.82 26.1121 Q1097.08 26.1121 1102.23 32.6746 Q1107.41 39.2371 1107.41 49.9314 Q1107.41 60.6258 1102.23 67.1883 Q1097.08 73.7508 1088.82 73.7508 Q1083.84 73.7508 1080.23 71.8063 Q1076.67 69.8214 1074.32 65.7705 L1074.32 72.576 L1066.82 72.576 L1066.82 9.54393 L1074.32 9.54393 L1074.32 34.0924 Z" fill="#000000" fill-rule="evenodd" fill-opacity="1" /><path clip-path="url(#clip270)" d="M1158.58 48.0275 L1158.58 51.6733 L1124.31 51.6733 Q1124.79 59.3701 1128.92 63.421 Q1133.1 67.4314 1140.51 67.4314 Q1144.8 67.4314 1148.81 66.3781 Q1152.87 65.3249 1156.84 63.2184 L1156.84 70.267 Q1152.83 71.9684 1148.61 72.8596 Q1144.4 73.7508 1140.06 73.7508 Q1129.21 73.7508 1122.85 67.4314 Q1116.53 61.1119 1116.53 50.3365 Q1116.53 39.1965 1122.52 32.6746 Q1128.56 26.1121 1138.77 26.1121 Q1147.92 26.1121 1153.23 32.0264 Q1158.58 37.9003 1158.58 48.0275 M1151.12 45.84 Q1151.04 39.7232 1147.68 36.0774 Q1144.36 32.4315 1138.85 32.4315 Q1132.61 32.4315 1128.84 35.9558 Q1125.12 39.4801 1124.55 45.8805 L1151.12 45.84 Z" fill="#000000" fill-rule="evenodd" fill-opacity="1" /><path clip-path="url(#clip270)" d="M1197.1 34.1734 Q1195.85 33.4443 1194.35 33.1202 Q1192.89 32.7556 1191.11 32.7556 Q1184.79 32.7556 1181.38 36.8875 Q1178.02 40.9789 1178.02 48.6757 L1178.02 72.576 L1170.53 72.576 L1170.53 27.2059 L1178.02 27.2059 L1178.02 34.2544 Q1180.37 30.1225 1184.14 28.1376 Q1187.91 26.1121 1193.29 26.1121 Q1194.06 26.1121 1195 26.2337 Q1195.93 26.3147 1197.06 26.5172 L1197.1 34.1734 Z" fill="#000000" fill-rule="evenodd" fill-opacity="1" /><path clip-path="url(#clip270)" d="M1248.87 32.4315 Q1242.88 32.4315 1239.39 37.1306 Q1235.91 41.7891 1235.91 49.9314 Q1235.91 58.0738 1239.35 62.7728 Q1242.84 67.4314 1248.87 67.4314 Q1254.83 67.4314 1258.31 62.7323 Q1261.79 58.0333 1261.79 49.9314 Q1261.79 41.8701 1258.31 37.1711 Q1254.83 32.4315 1248.87 32.4315 M1248.87 26.1121 Q1258.59 26.1121 1264.14 32.4315 Q1269.69 38.7509 1269.69 49.9314 Q1269.69 61.0714 1264.14 67.4314 Q1258.59 73.7508 1248.87 73.7508 Q1239.11 73.7508 1233.56 67.4314 Q1228.05 61.0714 1228.05 49.9314 Q1228.05 38.7509 1233.56 32.4315 Q1239.11 26.1121 1248.87 26.1121 Z" fill="#000000" fill-rule="evenodd" fill-opacity="1" /><path clip-path="url(#clip270)" d="M1305.02 9.54393 L1305.02 15.7418 L1297.89 15.7418 Q1293.88 15.7418 1292.3 17.3622 Q1290.76 18.9825 1290.76 23.1955 L1290.76 27.2059 L1303.03 27.2059 L1303.03 32.9987 L1290.76 32.9987 L1290.76 72.576 L1283.26 72.576 L1283.26 32.9987 L1276.13 32.9987 L1276.13 27.2059 L1283.26 27.2059 L1283.26 24.0462 Q1283.26 16.471 1286.79 13.0277 Q1290.31 9.54393 1297.97 9.54393 L1305.02 9.54393 Z" fill="#000000" fill-rule="evenodd" fill-opacity="1" /><path clip-path="url(#clip270)" d="M1337.95 12.096 L1346.13 12.096 L1346.13 72.576 L1337.95 72.576 L1337.95 12.096 Z" fill="#000000" fill-rule="evenodd" fill-opacity="1" /><path clip-path="url(#clip270)" d="M1399.81 45.1919 L1399.81 72.576 L1392.36 72.576 L1392.36 45.4349 Q1392.36 38.994 1389.84 35.7938 Q1387.33 32.5936 1382.31 32.5936 Q1376.27 32.5936 1372.79 36.4419 Q1369.31 40.2903 1369.31 46.9338 L1369.31 72.576 L1361.81 72.576 L1361.81 27.2059 L1369.31 27.2059 L1369.31 34.2544 Q1371.98 30.163 1375.58 28.1376 Q1379.23 26.1121 1383.97 26.1121 Q1391.79 26.1121 1395.8 30.9732 Q1399.81 35.7938 1399.81 45.1919 Z" fill="#000000" fill-rule="evenodd" fill-opacity="1" /><path clip-path="url(#clip270)" d="M1437.64 9.54393 L1437.64 15.7418 L1430.51 15.7418 Q1426.5 15.7418 1424.92 17.3622 Q1423.39 18.9825 1423.39 23.1955 L1423.39 27.2059 L1435.66 27.2059 L1435.66 32.9987 L1423.39 32.9987 L1423.39 72.576 L1415.89 72.576 L1415.89 32.9987 L1408.76 32.9987 L1408.76 27.2059 L1415.89 27.2059 L1415.89 24.0462 Q1415.89 16.471 1419.42 13.0277 Q1422.94 9.54393 1430.6 9.54393 L1437.64 9.54393 Z" fill="#000000" fill-rule="evenodd" fill-opacity="1" /><path clip-path="url(#clip270)" d="M1482.69 48.0275 L1482.69 51.6733 L1448.42 51.6733 Q1448.91 59.3701 1453.04 63.421 Q1457.21 67.4314 1464.62 67.4314 Q1468.92 67.4314 1472.93 66.3781 Q1476.98 65.3249 1480.95 63.2184 L1480.95 70.267 Q1476.94 71.9684 1472.73 72.8596 Q1468.51 73.7508 1464.18 73.7508 Q1453.32 73.7508 1446.96 67.4314 Q1440.64 61.1119 1440.64 50.3365 Q1440.64 39.1965 1446.64 32.6746 Q1452.67 26.1121 1462.88 26.1121 Q1472.04 26.1121 1477.34 32.0264 Q1482.69 37.9003 1482.69 48.0275 M1475.24 45.84 Q1475.16 39.7232 1471.79 36.0774 Q1468.47 32.4315 1462.96 32.4315 Q1456.72 32.4315 1452.96 35.9558 Q1449.23 39.4801 1448.66 45.8805 L1475.24 45.84 Z" fill="#000000" fill-rule="evenodd" fill-opacity="1" /><path clip-path="url(#clip270)" d="M1527.57 28.9478 L1527.57 35.9153 Q1524.41 34.1734 1521.21 33.3227 Q1518.05 32.4315 1514.81 32.4315 Q1507.56 32.4315 1503.55 37.0496 Q1499.54 41.6271 1499.54 49.9314 Q1499.54 58.2358 1503.55 62.8538 Q1507.56 67.4314 1514.81 67.4314 Q1518.05 67.4314 1521.21 66.5807 Q1524.41 65.6895 1527.57 63.9476 L1527.57 70.8341 Q1524.46 72.2924 1521.09 73.0216 Q1517.77 73.7508 1514 73.7508 Q1503.75 73.7508 1497.72 67.3098 Q1491.68 60.8689 1491.68 49.9314 Q1491.68 38.832 1497.76 32.472 Q1503.88 26.1121 1514.49 26.1121 Q1517.93 26.1121 1521.21 26.8413 Q1524.5 27.5299 1527.57 28.9478 Z" fill="#000000" fill-rule="evenodd" fill-opacity="1" /><path clip-path="url(#clip270)" d="M1547.91 14.324 L1547.91 27.2059 L1563.26 27.2059 L1563.26 32.9987 L1547.91 32.9987 L1547.91 57.6282 Q1547.91 63.1779 1549.41 64.7578 Q1550.95 66.3376 1555.61 66.3376 L1563.26 66.3376 L1563.26 72.576 L1555.61 72.576 Q1546.98 72.576 1543.7 69.3758 Q1540.42 66.1351 1540.42 57.6282 L1540.42 32.9987 L1534.95 32.9987 L1534.95 27.2059 L1540.42 27.2059 L1540.42 14.324 L1547.91 14.324 Z" fill="#000000" fill-rule="evenodd" fill-opacity="1" /><path clip-path="url(#clip270)" d="M1573.07 27.2059 L1580.52 27.2059 L1580.52 72.576 L1573.07 72.576 L1573.07 27.2059 M1573.07 9.54393 L1580.52 9.54393 L1580.52 18.9825 L1573.07 18.9825 L1573.07 9.54393 Z" fill="#000000" fill-rule="evenodd" fill-opacity="1" /><path clip-path="url(#clip270)" d="M1613.7 32.4315 Q1607.7 32.4315 1604.22 37.1306 Q1600.73 41.7891 1600.73 49.9314 Q1600.73 58.0738 1604.18 62.7728 Q1607.66 67.4314 1613.7 67.4314 Q1619.65 67.4314 1623.14 62.7323 Q1626.62 58.0333 1626.62 49.9314 Q1626.62 41.8701 1623.14 37.1711 Q1619.65 32.4315 1613.7 32.4315 M1613.7 26.1121 Q1623.42 26.1121 1628.97 32.4315 Q1634.52 38.7509 1634.52 49.9314 Q1634.52 61.0714 1628.97 67.4314 Q1623.42 73.7508 1613.7 73.7508 Q1603.93 73.7508 1598.38 67.4314 Q1592.87 61.0714 1592.87 49.9314 Q1592.87 38.7509 1598.38 32.4315 Q1603.93 26.1121 1613.7 26.1121 Z" fill="#000000" fill-rule="evenodd" fill-opacity="1" /><path clip-path="url(#clip270)" d="M1684.59 45.1919 L1684.59 72.576 L1677.13 72.576 L1677.13 45.4349 Q1677.13 38.994 1674.62 35.7938 Q1672.11 32.5936 1667.09 32.5936 Q1661.05 32.5936 1657.57 36.4419 Q1654.08 40.2903 1654.08 46.9338 L1654.08 72.576 L1646.59 72.576 L1646.59 27.2059 L1654.08 27.2059 L1654.08 34.2544 Q1656.76 30.163 1660.36 28.1376 Q1664.01 26.1121 1668.75 26.1121 Q1676.57 26.1121 1680.58 30.9732 Q1684.59 35.7938 1684.59 45.1919 Z" fill="#000000" fill-rule="evenodd" fill-opacity="1" /><path clip-path="url(#clip270)" d="M1728.38 28.5427 L1728.38 35.5912 Q1725.22 33.9709 1721.82 33.1607 Q1718.41 32.3505 1714.77 32.3505 Q1709.22 32.3505 1706.42 34.0519 Q1703.67 35.7533 1703.67 39.156 Q1703.67 41.7486 1705.65 43.2475 Q1707.64 44.7058 1713.63 46.0426 L1716.18 46.6097 Q1724.12 48.3111 1727.45 51.4303 Q1730.81 54.509 1730.81 60.0587 Q1730.81 66.3781 1725.79 70.0644 Q1720.8 73.7508 1712.05 73.7508 Q1708.41 73.7508 1704.44 73.0216 Q1700.51 72.3329 1696.13 70.9151 L1696.13 63.2184 Q1700.26 65.3654 1704.27 66.4591 Q1708.29 67.5124 1712.21 67.5124 Q1717.48 67.5124 1720.32 65.73 Q1723.15 63.9071 1723.15 60.6258 Q1723.15 57.5877 1721.09 55.9673 Q1719.06 54.3469 1712.13 52.8481 L1709.54 52.2405 Q1702.61 50.7821 1699.54 47.7845 Q1696.46 44.7463 1696.46 39.4801 Q1696.46 33.0797 1700.99 29.5959 Q1705.53 26.1121 1713.88 26.1121 Q1718.01 26.1121 1721.65 26.7198 Q1725.3 27.3274 1728.38 28.5427 Z" fill="#000000" fill-rule="evenodd" fill-opacity="1" /><polyline clip-path="url(#clip272)" style="stroke:#009af9; stroke-linecap:butt; stroke-linejoin:round; stroke-width:4; stroke-opacity:1; fill:none" points="
  250.028,1386.2 250.085,1386.2 250.098,1386.2 250.113,1386.2 250.131,1386.2 250.15,1386.2 250.171,1386.2 250.196,1386.2 250.223,1386.2 250.254,1386.2 
  250.289,1386.2 250.328,1386.21 250.372,1386.21 250.421,1386.21 250.477,1386.21 250.539,1386.21 250.61,1386.21 250.689,1386.21 250.778,1386.21 250.878,1386.21 
  250.991,1386.21 251.118,1386.21 251.26,1386.21 251.421,1386.21 251.601,1386.21 251.805,1386.22 252.029,1386.22 252.276,1386.22 252.542,1386.22 252.827,1386.22 
  253.13,1386.22 253.448,1386.23 253.78,1386.23 254.126,1386.23 254.485,1386.23 254.855,1386.23 255.235,1386.24 255.626,1386.24 256.024,1386.24 256.43,1386.24 
  256.843,1386.25 257.262,1386.25 257.685,1386.25 258.108,1386.25 258.535,1386.26 258.97,1386.26 259.41,1386.26 259.855,1386.26 260.308,1386.26 260.767,1386.27 
  261.227,1386.27 261.691,1386.27 262.159,1386.27 262.629,1386.28 263.104,1386.28 263.588,1386.28 264.077,1386.28 264.574,1386.28 265.073,1386.29 265.576,1386.29 
  266.082,1386.29 266.59,1386.29 267.094,1386.29 267.6,1386.3 268.108,1386.3 268.619,1386.3 269.133,1386.3 269.648,1386.3 270.169,1386.31 270.692,1386.31 
  271.219,1386.31 271.746,1386.31 272.275,1386.31 272.807,1386.32 273.341,1386.32 273.878,1386.32 274.42,1386.32 274.965,1386.32 275.518,1386.33 276.073,1386.33 
  276.637,1386.33 277.208,1386.33 277.787,1386.33 278.376,1386.33 278.975,1386.34 279.58,1386.34 280.191,1386.34 280.804,1386.34 281.418,1386.34 282.044,1386.34 
  282.682,1386.34 283.326,1386.34 283.977,1386.35 284.632,1386.35 285.293,1386.35 285.958,1386.35 286.625,1386.35 287.292,1386.35 287.959,1386.35 288.626,1386.36 
  289.302,1386.36 289.979,1386.36 290.656,1386.36 291.338,1386.36 292.024,1386.36 292.704,1386.36 293.393,1386.36 294.087,1386.37 294.788,1386.37 295.501,1386.37 
  296.229,1386.37 296.964,1386.37 297.715,1386.37 298.475,1386.37 299.248,1386.37 300.03,1386.37 300.818,1386.37 301.62,1386.37 302.431,1386.37 303.248,1386.37 
  304.079,1386.37 304.93,1386.37 305.806,1386.37 306.7,1386.37 307.609,1386.37 308.525,1386.37 309.451,1386.37 310.393,1386.37 311.335,1386.37 312.284,1386.37 
  313.251,1386.37 314.24,1386.37 315.224,1386.37 316.225,1386.37 317.243,1386.37 318.297,1386.36 319.373,1386.36 320.462,1386.36 321.579,1386.36 322.739,1386.36 
  323.906,1386.36 325.066,1386.35 326.254,1386.35 327.471,1386.35 328.718,1386.35 329.997,1386.34 331.342,1386.34 332.762,1386.34 334.273,1386.33 335.832,1386.33 
  337.49,1386.32 339.269,1386.31 341.148,1386.3 343.087,1386.3 345.056,1386.29 347.05,1386.28 349.034,1386.27 351.058,1386.26 353.077,1386.25 355.191,1386.24 
  357.341,1386.23 359.66,1386.22 362.075,1386.21 364.589,1386.19 367.278,1386.18 370.221,1386.16 373.409,1386.14 376.663,1386.11 380.252,1386.08 384.291,1386.05 
  388.834,1386 393.945,1385.95 399.695,1385.89 406.164,1385.82 413.442,1385.73 421.629,1385.63 430.839,1385.51 437.501,1385.41 444.995,1385.3 453.426,1385.18 
  458.779,1385.11 463.956,1385.04 468.992,1384.95 474.657,1384.84 481.031,1384.7 488.201,1384.54 493.88,1384.41 500.269,1384.26 506.866,1384.09 514.289,1383.9 
  520.101,1383.73 526.64,1383.54 533.997,1383.29 542.273,1382.99 548.828,1382.74 556.203,1382.45 562.634,1382.16 569.868,1381.83 578.007,1381.5 583.276,1381.27 
  589.204,1381.01 594.805,1380.76 600.861,1380.49 606.049,1380.25 611.886,1379.98 616.959,1379.72 622.667,1379.43 627.974,1379.16 633.083,1378.88 638.375,1378.61 
  642.921,1378.34 647.963,1378.04 653.035,1377.71 658.145,1377.34 663.894,1376.89 669.974,1376.44 676.185,1376.02 681.661,1375.66 686.257,1375.27 691.428,1374.81 
  697.245,1374.25 703.789,1373.6 710.186,1372.92 717.383,1372.05 725.479,1370.95 734.587,1369.71 744.834,1368.2 752.775,1366.69 761.708,1364.6 766.787,1363.29 
  772.5,1361.67 777.453,1360.2 782.747,1358.46 787.398,1356.81 792.021,1355.11 796.336,1353.48 800.725,1351.81 805.286,1349.97 809.967,1348.12 815.01,1346.28 
  820.683,1344.11 827.065,1341.7 834.245,1338.78 842.323,1335.37 851.41,1331.62 860.051,1327.19 869.771,1321.96 878.976,1316.71 889.332,1310.21 900.574,1300.92 
  907.827,1294.2 915.077,1286.91 921.819,1279.92 928.62,1272.22 935.286,1264.16 942.07,1255.75 948.595,1247.84 955.937,1238.41 963.949,1228.54 972.962,1217.39 
  982.42,1206.01 991.04,1195.22 999.574,1180.13 1009.17,1161.1 1016.6,1145.82 1024.47,1128.34 1032.21,1110.04 1039.12,1091.67 1045.51,1075.41 1052.34,1054.97 
  1058.22,1035.73 1063.48,1017.78 1068.57,999.742 1073.42,982.259 1078.03,965.852 1082.75,949.091 1087.37,931.196 1091.72,911.757 1095.59,895.082 1099.43,878.23 
  1103.28,861.703 1107,845.869 1110.85,829.186 1114.56,812.922 1118.3,797.17 1122.06,781.615 1125.89,768.107 1129.9,752.627 1133.88,737.601 1137.84,722.833 
  1141.82,708.431 1145.77,696.806 1149.61,685.471 1153.4,673.002 1157.26,661.751 1161,651.597 1164.64,639.644 1168.39,627.895 1172.06,617.394 1175.68,606.467 
  1179.28,595.453 1182.87,583.96 1186.45,572.794 1190,561.852 1193.54,552.1 1197.01,542.041 1200.46,532.28 1203.89,524.253 1207.24,515.172 1210.6,506.824 
  1213.91,497.271 1217.24,487.294 1220.56,476.554 1223.86,463.815 1227.08,450.388 1230.17,436.659 1233.21,423.745 1236.14,412.143 1239.08,400.928 1241.99,390.665 
  1244.92,381.317 1247.87,372.474 1250.83,364.051 1253.78,355.798 1256.73,347.418 1259.67,338.154 1262.56,328.655 1265.41,318.574 1268.19,308.394 1270.91,298.626 
  1273.62,289.271 1276.25,282.513 1278.99,275.392 1281.71,268.465 1284.42,262.512 1287.15,257.562 1289.91,252.435 1292.66,247.065 1295.41,241.536 1298.15,236.661 
  1300.89,231.478 1303.61,226.243 1306.31,220.586 1308.97,216.205 1311.66,213.37 1314.38,211.07 1317.12,207.823 1319.84,203.653 1322.52,199.963 1325.2,194.964 
  1327.78,190.817 1330.34,187.755 1332.92,184.792 1335.51,181.487 1338.05,177.436 1340.54,173.469 1342.97,170.148 1345.41,166.873 1347.8,164.533 1350.22,162.608 
  1352.63,161.357 1355.08,160.743 1357.56,160.256 1360.03,160.553 1362.56,160.504 1365.07,160.399 1367.55,160.754 1370.04,162.172 1372.6,163.723 1375.16,165.856 
  1377.76,168.298 1380.39,170.713 1382.98,173.615 1385.64,176.904 1388.32,180.111 1390.99,184.519 1393.71,190.523 1396.52,197.564 1399.36,204.961 1402.24,213.366 
  1405.15,222.359 1408.08,232.131 1411,241.716 1413.98,251.959 1416.97,261.899 1420.01,271.383 1423.11,281.475 1426.24,291.571 1429.41,302.928 1432.6,314.274 
  1435.8,325.721 1439.04,337.662 1442.31,349.469 1445.64,361.698 1448.98,373.112 1452.42,384.834 1455.91,397.258 1459.45,409.628 1463.03,422.477 1466.68,435.263 
  1470.37,448.501 1474.13,460.779 1477.95,473.366 1481.81,487.421 1485.75,502.188 1489.7,517.369 1493.68,533.125 1497.58,548.632 1501.44,564.99 1505.15,580.263 
  1508.78,595.126 1512.45,610.12 1516.05,624.464 1519.72,638.762 1523.39,652.766 1527.1,667.082 1530.76,681.121 1534.37,694.776 1538.04,708.522 1541.67,721.523 
  1545.49,734.841 1549.4,747.561 1553.65,760.28 1558.37,774.169 1563.28,788.952 1568.35,804.973 1573.29,820.408 1578.39,836.445 1583.03,850.293 1588.04,864.532 
  1593.31,878.38 1599.21,894.037 1605.36,910.267 1611.36,926.187 1617.55,941.708 1623.81,955.48 1630.85,969.477 1636.79,981.319 1643.13,993.22 1649.05,1004.05 
  1654.96,1014.44 1660.68,1024.1 1665.94,1033.08 1671.29,1042.33 1676.78,1051.97 1682.95,1062.55 1689.32,1072.63 1695.27,1081.99 1701.07,1091 1707.43,1100.28 
  1713.55,1108.91 1718.95,1116.29 1724.79,1124.44 1730.46,1132.36 1736.85,1140.93 1742.98,1148.66 1749.19,1155.71 1754.19,1161.44 1759.46,1167.78 1765.08,1174.16 
  1770.8,1180.44 1776.2,1186.01 1781.21,1191.15 1786.25,1196.28 1791.45,1201.37 1796.4,1205.83 1800.87,1209.74 1805.09,1213.55 1809.57,1217.57 1814.1,1221.69 
  1818.91,1225.83 1823.54,1229.83 1828.37,1234.04 1833.67,1238.6 1839.63,1243.28 1844.87,1247.2 1849.77,1250.74 1854.46,1254.24 1859.67,1258.06 1865.01,1261.79 
  1870.26,1265.37 1875.22,1268.73 1880.8,1272.47 1886.66,1276.22 1892.3,1279.83 1898.47,1283.67 1905.19,1287.95 1912.74,1292.76 1921.23,1298.03 1927.94,1301.86 
  1935.48,1305.79 1943.96,1309.9 1953.46,1314.4 1964.15,1319.57 1972.08,1323.38 1978.04,1326.18 1983.41,1328.57 1988.39,1330.68 1993.34,1332.65 1998.63,1334.59 
  2004.58,1336.6 2011.28,1338.68 2018.81,1340.92 2026.79,1343.21 2035.76,1345.78 2045.86,1348.64 2051.89,1350.18 2058.68,1351.75 2066.32,1353.46 2074.91,1355.42 
  2081.89,1357.03 2087.05,1358.17 2092.2,1359.23 2097.28,1360.18 2103,1361.18 2109.44,1362.21 2116.67,1363.33 2123.55,1364.35 2131.29,1365.49 2140,1366.72 
  2149.8,1368.05 2156.63,1368.88 2164.32,1369.74 2169.37,1370.31 2175.06,1370.94 2181.45,1371.62 2187.96,1372.27 2195.29,1372.96 2203.53,1373.68 2211.49,1374.35 
  2218.36,1374.92 2226.09,1375.54 2234.79,1376.25 2240.34,1376.68 2245.53,1377.07 2250.92,1377.44 2256.83,1377.84 2263.32,1378.25 2270.62,1378.67 2278.82,1379.1 
  2287.6,1379.54 2297.48,1380 2308.59,1380.48 2316.8,1380.82 2326.04,1381.2 2336.44,1381.6 2348.14,1382.03 2352.76,1382.2 
  "/>
<polyline clip-path="url(#clip272)" style="stroke:#e26f46; stroke-linecap:butt; stroke-linejoin:round; stroke-width:4; stroke-opacity:1; fill:none" points="
  250.028,1386.2 250.085,1386.2 250.098,1386.2 250.113,1386.2 250.131,1386.2 250.15,1386.2 250.171,1386.2 250.196,1386.2 250.223,1386.2 250.254,1386.2 
  250.289,1386.2 250.328,1386.21 250.372,1386.21 250.421,1386.21 250.477,1386.21 250.539,1386.21 250.61,1386.21 250.689,1386.21 250.778,1386.21 250.878,1386.21 
  250.991,1386.21 251.118,1386.21 251.26,1386.21 251.421,1386.21 251.601,1386.21 251.805,1386.22 252.03,1386.22 252.275,1386.22 252.538,1386.22 252.819,1386.22 
  253.118,1386.22 253.432,1386.23 253.758,1386.23 254.094,1386.23 254.44,1386.23 254.794,1386.24 255.155,1386.24 255.523,1386.24 255.898,1386.24 256.278,1386.25 
  256.665,1386.25 257.057,1386.25 257.452,1386.25 257.851,1386.25 258.253,1386.26 258.661,1386.26 259.072,1386.26 259.49,1386.26 259.911,1386.27 260.335,1386.27 
  260.761,1386.27 261.191,1386.27 261.623,1386.28 262.056,1386.28 262.493,1386.28 262.933,1386.28 263.375,1386.29 263.821,1386.29 264.273,1386.29 264.727,1386.29 
  265.185,1386.29 265.645,1386.3 266.108,1386.3 266.576,1386.3 267.046,1386.3 267.521,1386.31 268.002,1386.31 268.49,1386.31 268.984,1386.31 269.483,1386.31 
  269.989,1386.31 270.5,1386.32 271.015,1386.32 271.535,1386.32 272.059,1386.32 272.589,1386.32 273.123,1386.33 273.661,1386.33 274.201,1386.33 274.741,1386.33 
  275.282,1386.33 275.827,1386.34 276.378,1386.34 276.929,1386.34 277.481,1386.34 278.04,1386.34 278.602,1386.34 279.165,1386.35 279.728,1386.35 280.299,1386.35 
  280.876,1386.35 281.454,1386.35 282.037,1386.35 282.62,1386.36 283.209,1386.36 283.803,1386.36 284.401,1386.36 285.006,1386.36 285.615,1386.36 286.237,1386.36 
  286.866,1386.37 287.501,1386.37 288.144,1386.37 288.796,1386.37 289.457,1386.37 290.124,1386.37 290.796,1386.37 291.47,1386.37 292.152,1386.38 292.836,1386.38 
  293.513,1386.38 294.199,1386.38 294.884,1386.38 295.569,1386.38 296.257,1386.38 296.954,1386.38 297.659,1386.38 298.373,1386.39 299.096,1386.39 299.835,1386.39 
  300.582,1386.39 301.336,1386.39 302.096,1386.39 302.866,1386.39 303.624,1386.39 304.385,1386.39 305.154,1386.39 305.93,1386.39 306.709,1386.39 307.5,1386.39 
  308.304,1386.39 309.113,1386.39 309.927,1386.4 310.758,1386.4 311.614,1386.4 312.484,1386.4 313.358,1386.4 314.237,1386.4 315.12,1386.4 316.012,1386.4 
  316.902,1386.4 317.801,1386.4 318.719,1386.4 319.647,1386.4 320.577,1386.4 321.498,1386.4 322.42,1386.4 323.355,1386.39 324.301,1386.39 325.258,1386.39 
  326.226,1386.39 327.222,1386.39 328.247,1386.39 329.303,1386.39 330.392,1386.39 331.493,1386.39 332.615,1386.39 333.755,1386.38 334.907,1386.38 336.064,1386.38 
  337.252,1386.38 338.458,1386.38 339.652,1386.38 340.863,1386.37 342.124,1386.37 343.416,1386.37 344.729,1386.36 346.072,1386.36 347.468,1386.36 348.96,1386.35 
  350.535,1386.35 352.19,1386.34 353.984,1386.33 355.872,1386.32 357.805,1386.32 359.737,1386.31 361.688,1386.3 363.705,1386.29 365.68,1386.29 367.562,1386.28 
  369.438,1386.27 371.317,1386.27 373.192,1386.26 375.088,1386.25 376.976,1386.25 378.864,1386.24 380.779,1386.23 382.756,1386.22 384.827,1386.21 386.92,1386.2 
  389.12,1386.19 391.589,1386.18 394.21,1386.16 397.049,1386.14 400.075,1386.12 403.112,1386.1 406.425,1386.07 410.151,1386.05 413.848,1386.02 418.006,1385.98 
  422.071,1385.95 426.281,1385.91 430.895,1385.87 435.673,1385.83 439.593,1385.8 443.257,1385.78 446.84,1385.75 450.475,1385.71 454.565,1385.67 458.685,1385.62 
  463.32,1385.57 467.753,1385.52 472.508,1385.47 477.66,1385.4 483.457,1385.31 489.978,1385.2 497.314,1385.07 505.567,1384.91 512.879,1384.75 521.104,1384.57 
  530.358,1384.32 539.692,1384.06 545.98,1383.87 553.055,1383.67 561.015,1383.41 569.969,1383.08 575.185,1382.87 581.052,1382.61 587.493,1382.32 594.739,1381.93 
  600.687,1381.58 606.286,1381.26 612.585,1380.92 619.672,1380.53 627.644,1380.05 636.613,1379.38 641.967,1378.95 647.99,1378.44 653.716,1377.88 659.473,1377.24 
  664.255,1376.61 668.767,1375.99 672.808,1375.41 676.761,1374.87 681.066,1374.26 685.503,1373.62 690.004,1372.99 695.069,1372.29 700.766,1371.49 707.175,1370.61 
  714.386,1369.45 722.498,1368.03 726.894,1367.26 731.84,1366.38 737.405,1365.43 743.665,1364.38 748.297,1363.57 753.509,1362.57 759.371,1361.34 765.967,1359.77 
  773.388,1357.83 779.717,1355.98 786.204,1353.69 791.228,1351.89 796.756,1349.86 802.906,1347.65 809.495,1345.27 816.907,1342.59 825.246,1339.51 833.14,1336.45 
  841.081,1333.01 850.015,1328 858.208,1323.19 864.75,1319.55 872.11,1314.84 880.39,1308.9 886.611,1304.36 893.609,1298.82 900.965,1293.01 909.24,1286.62 
  918.549,1278.32 928.768,1267.94 938.614,1257.5 949.691,1244.92 960.914,1230.22 972.394,1213.82 982.524,1197.29 992.918,1179.71 1002.15,1162.54 1011.63,1144.6 
  1019.95,1125.42 1026.87,1108.55 1033.95,1091.31 1040.77,1072.21 1046.93,1056.04 1053.19,1039.8 1060.01,1022.76 1066.72,1005.55 1073.37,990.313 1079.83,975.02 
  1085.68,959.145 1091.98,941.639 1098.02,924.442 1103.99,910.068 1109.6,896.179 1114.93,882.525 1120.09,868.929 1125.24,856.964 1130.01,847.355 1134.31,838.802 
  1138.41,830.848 1142.3,823.636 1146.02,817.858 1149.47,811.646 1152.85,805.366 1156.23,799.361 1159.47,792.906 1162.78,786.88 1165.97,780.929 1169.24,775.001 
  1172.4,770.242 1175.4,766.461 1178.27,763.264 1180.94,760.642 1183.5,757.182 1186.12,753.343 1188.87,750.486 1191.4,748.317 1193.77,746.176 1196.12,743.621 
  1198.51,740.84 1200.93,737.432 1203.47,734.055 1206.02,730.699 1208.56,727.381 1211.14,723.884 1213.7,720.3 1216.34,716.543 1219,712.677 1221.68,709.053 
  1224.41,704.453 1227.29,699.204 1230.3,693.591 1233.4,688.48 1236.5,683.613 1239.61,679.256 1242.66,675.536 1245.64,672.497 1248.55,669.631 1251.43,667.301 
  1254.2,666.091 1256.81,665.163 1259.27,664.409 1261.74,663.805 1264.1,662.919 1266.47,662.808 1268.76,663.092 1270.94,663.123 1273.11,663.708 1275.2,664.372 
  1277.22,665.291 1279.2,666.331 1281.1,667.283 1282.99,668.377 1284.84,669.811 1286.61,670.936 1288.39,671.92 1290.17,672.799 1291.97,673.549 1293.79,674.326 
  1295.6,675.093 1297.43,676.116 1299.23,676.984 1301.06,677.782 1302.92,678.733 1304.75,680.332 1306.51,682.142 1308.2,683.77 1309.89,685.403 1311.57,686.699 
  1313.31,687.839 1315.04,688.98 1316.82,690.058 1318.6,691.08 1320.41,692.054 1322.26,692.959 1324.12,693.652 1326.07,694.387 1328.03,695.034 1330.03,696.026 
  1332.04,697.177 1334.02,698.333 1336,699.452 1338.01,700.974 1339.99,702.105 1341.98,702.846 1344.1,703.739 1346.22,705.124 1348.29,706.345 1350.41,707.563 
  1352.51,708.807 1354.63,710.164 1356.74,711.181 1358.92,712.251 1361.14,713.017 1363.44,713.711 1365.81,714.616 1368.21,715.435 1370.66,716.1 1373.23,716.606 
  1375.82,717.331 1378.49,718.115 1381.18,718.44 1383.99,719.207 1386.82,720.317 1389.58,721.262 1392.42,722.047 1395.33,723.217 1398.25,724.894 1401.06,726.473 
  1403.9,727.98 1406.83,730.058 1409.59,732.016 1412.38,733.662 1415.23,735.797 1418.03,737.264 1420.95,739.055 1423.91,740.941 1426.83,741.891 1430.03,741.672 
  1433.63,741.172 1437.42,739.852 1441.44,737.871 1445.59,736.079 1449.84,734.208 1454.24,731.647 1458.68,727.811 1462.83,724.041 1467.14,719.694 1470.97,715.858 
  1474.86,712.791 1478.73,709.93 1482.61,707.503 1486.52,703.371 1490.14,699.345 1493.58,694.758 1496.8,690.483 1499.88,687.433 1502.98,684.865 1506.11,682.854 
  1509.31,680.903 1512.45,679.234 1515.72,676.481 1518.78,673.572 1521.67,671.816 1524.65,670.725 1527.75,669.968 1530.89,668.824 1533.98,667.821 1537.09,666.687 
  1540.16,665.735 1543.22,665.402 1546.29,665.554 1549.49,666.259 1552.78,667.167 1556.15,667.391 1559.37,668.52 1562.65,669.657 1566.12,670.786 1569.42,672.674 
  1572.93,675.09 1576.56,678.305 1580.32,682.037 1584.25,685.932 1588.26,690.012 1592.27,693.291 1596.28,696.316 1600.12,698.966 1603.94,702.272 1607.65,706.512 
  1611.65,712.308 1615.94,720.606 1620.52,729.821 1625.03,737.725 1629.91,746.585 1634.9,755.342 1640.05,763.125 1645.16,769.77 1649.97,775.447 1654.44,781.842 
  1659.19,788.292 1663.73,794.687 1668.42,801.446 1672.98,808.712 1677.92,817.707 1683.22,826.385 1688.65,834.552 1693.45,843.538 1698.85,853.626 1704.42,863.72 
  1710.27,874.048 1716.03,884.458 1722.18,894.787 1728.12,905.324 1734.45,916.538 1741.22,929.9 1748.22,944.123 1754.91,957.489 1761.66,971.597 1767.8,983.487 
  1774.39,995.779 1781.45,1007.68 1789.12,1020.22 1797.38,1032.92 1805.63,1046.25 1814.15,1060.11 1822.92,1075.21 1829.38,1086.04 1835.24,1095.57 1841.41,1105.16 
  1847.24,1113.55 1853.8,1122.22 1861.17,1131.51 1869.47,1141.82 1878.26,1152.56 1887.04,1163.26 1894.5,1171.86 1902.74,1180.1 1912,1189.27 1922.23,1199.19 
  1932.96,1208.62 1944.19,1218.61 1956.84,1229.39 1967.92,1238.62 1978.54,1246.76 1990.5,1255.9 2000.96,1263.56 2009.64,1269.87 2015.31,1274.07 2019.64,1277.32 
  2023.47,1280.06 2027.31,1282.74 2030.92,1285.17 2034.6,1287.66 2037.86,1289.77 2041.18,1291.87 2044.41,1293.78 2047.87,1295.8 2051.56,1297.98 2054.88,1299.85 
  2058.34,1301.74 2061.88,1303.57 2065.75,1305.45 2070.1,1307.51 2074.65,1309.66 2079.36,1311.88 2084.13,1314.02 2088.52,1315.86 2093.46,1317.91 2099.02,1320.29 
  2103.54,1322.15 2108.13,1323.91 2113.09,1325.75 2118.38,1327.68 2123.44,1329.48 2129.14,1331.51 2133.75,1333.08 2138.66,1334.69 2143.68,1336.27 2148.81,1337.85 
  2154.41,1339.61 2158.86,1340.95 2163.39,1342.2 2168.42,1343.57 2173.29,1344.81 2178.76,1346.15 2184.91,1347.67 2190.44,1349.05 2195.24,1350.22 2199.56,1351.22 
  2204.21,1352.22 2209.43,1353.28 2215.07,1354.37 2221.42,1355.52 2228.43,1356.71 2236.31,1358.01 2244.39,1359.25 2253.48,1360.52 2261.94,1361.59 2267.7,1362.27 
  2274.11,1362.98 2279.71,1363.57 2285.34,1364.17 2290.98,1364.78 2297,1365.42 2303.54,1366.15 2310.9,1366.97 2319.17,1367.87 2328.48,1368.79 2338.95,1369.67 
  2344.62,1370.1 2350.31,1370.51 2352.76,1370.69 
  "/>
<path clip-path="url(#clip270)" d="
M1773.96 322.316 L2282.66 322.316 L2282.66 166.796 L1773.96 166.796  Z
  " fill="#ffffff" fill-rule="evenodd" fill-opacity="1"/>
<polyline clip-path="url(#clip270)" style="stroke:#000000; stroke-linecap:butt; stroke-linejoin:round; stroke-width:4; stroke-opacity:1; fill:none" points="
  1773.96,322.316 2282.66,322.316 2282.66,166.796 1773.96,166.796 1773.96,322.316 
  "/>
<polyline clip-path="url(#clip270)" style="stroke:#009af9; stroke-linecap:butt; stroke-linejoin:round; stroke-width:4; stroke-opacity:1; fill:none" points="
  1797.32,218.636 1937.51,218.636 
  "/>
<path clip-path="url(#clip270)" d="M1960.87 201.356 L1990.11 201.356 L1990.11 205.291 L1977.84 205.291 L1977.84 235.916 L1973.14 235.916 L1973.14 205.291 L1960.87 205.291 L1960.87 201.356 Z" fill="#000000" fill-rule="evenodd" fill-opacity="1" /><path clip-path="url(#clip270)" d="M2002.49 213.971 Q2001.77 213.555 2000.92 213.37 Q2000.08 213.161 1999.06 213.161 Q1995.45 213.161 1993.51 215.522 Q1991.59 217.86 1991.59 222.258 L1991.59 235.916 L1987.3 235.916 L1987.3 209.99 L1991.59 209.99 L1991.59 214.018 Q1992.93 211.657 1995.08 210.522 Q1997.24 209.365 2000.31 209.365 Q2000.75 209.365 2001.29 209.434 Q2001.82 209.481 2002.47 209.596 L2002.49 213.971 Z" fill="#000000" fill-rule="evenodd" fill-opacity="1" /><path clip-path="url(#clip270)" d="M2018.74 222.883 Q2013.58 222.883 2011.59 224.064 Q2009.6 225.244 2009.6 228.092 Q2009.6 230.36 2011.08 231.703 Q2012.58 233.022 2015.15 233.022 Q2018.69 233.022 2020.82 230.522 Q2022.98 227.999 2022.98 223.832 L2022.98 222.883 L2018.74 222.883 M2027.24 221.124 L2027.24 235.916 L2022.98 235.916 L2022.98 231.981 Q2021.52 234.342 2019.34 235.476 Q2017.17 236.587 2014.02 236.587 Q2010.04 236.587 2007.68 234.365 Q2005.34 232.119 2005.34 228.369 Q2005.34 223.994 2008.25 221.772 Q2011.19 219.55 2017 219.55 L2022.98 219.55 L2022.98 219.133 Q2022.98 216.194 2021.03 214.596 Q2019.11 212.976 2015.61 212.976 Q2013.39 212.976 2011.29 213.508 Q2009.18 214.041 2007.24 215.106 L2007.24 211.17 Q2009.57 210.268 2011.77 209.828 Q2013.97 209.365 2016.05 209.365 Q2021.68 209.365 2024.46 212.282 Q2027.24 215.198 2027.24 221.124 Z" fill="#000000" fill-rule="evenodd" fill-opacity="1" /><path clip-path="url(#clip270)" d="M2036.01 209.99 L2040.27 209.99 L2040.27 236.379 Q2040.27 241.332 2038.37 243.555 Q2036.49 245.777 2032.3 245.777 L2030.68 245.777 L2030.68 242.166 L2031.82 242.166 Q2034.25 242.166 2035.13 241.031 Q2036.01 239.92 2036.01 236.379 L2036.01 209.99 M2036.01 199.897 L2040.27 199.897 L2040.27 205.291 L2036.01 205.291 L2036.01 199.897 Z" fill="#000000" fill-rule="evenodd" fill-opacity="1" /><path clip-path="url(#clip270)" d="M2071.36 221.888 L2071.36 223.971 L2051.77 223.971 Q2052.05 228.369 2054.41 230.684 Q2056.8 232.976 2061.03 232.976 Q2063.48 232.976 2065.78 232.374 Q2068.09 231.772 2070.36 230.569 L2070.36 234.596 Q2068.07 235.568 2065.66 236.078 Q2063.25 236.587 2060.78 236.587 Q2054.57 236.587 2050.94 232.976 Q2047.33 229.365 2047.33 223.207 Q2047.33 216.842 2050.75 213.115 Q2054.2 209.365 2060.04 209.365 Q2065.27 209.365 2068.3 212.745 Q2071.36 216.101 2071.36 221.888 M2067.1 220.638 Q2067.05 217.143 2065.13 215.059 Q2063.23 212.976 2060.08 212.976 Q2056.52 212.976 2054.36 214.99 Q2052.23 217.004 2051.91 220.661 L2067.1 220.638 Z" fill="#000000" fill-rule="evenodd" fill-opacity="1" /><path clip-path="url(#clip270)" d="M2097 210.985 L2097 214.967 Q2095.2 213.971 2093.37 213.485 Q2091.56 212.976 2089.71 212.976 Q2085.57 212.976 2083.28 215.615 Q2080.98 218.231 2080.98 222.976 Q2080.98 227.721 2083.28 230.36 Q2085.57 232.976 2089.71 232.976 Q2091.56 232.976 2093.37 232.49 Q2095.2 231.981 2097 230.985 L2097 234.92 Q2095.22 235.754 2093.3 236.17 Q2091.4 236.587 2089.25 236.587 Q2083.39 236.587 2079.94 232.906 Q2076.49 229.226 2076.49 222.976 Q2076.49 216.633 2079.97 212.999 Q2083.46 209.365 2089.53 209.365 Q2091.49 209.365 2093.37 209.782 Q2095.24 210.175 2097 210.985 Z" fill="#000000" fill-rule="evenodd" fill-opacity="1" /><path clip-path="url(#clip270)" d="M2108.62 202.629 L2108.62 209.99 L2117.4 209.99 L2117.4 213.3 L2108.62 213.3 L2108.62 227.374 Q2108.62 230.545 2109.48 231.448 Q2110.36 232.351 2113.02 232.351 L2117.4 232.351 L2117.4 235.916 L2113.02 235.916 Q2108.09 235.916 2106.22 234.087 Q2104.34 232.235 2104.34 227.374 L2104.34 213.3 L2101.22 213.3 L2101.22 209.99 L2104.34 209.99 L2104.34 202.629 L2108.62 202.629 Z" fill="#000000" fill-rule="evenodd" fill-opacity="1" /><path clip-path="url(#clip270)" d="M2133.04 212.976 Q2129.62 212.976 2127.63 215.661 Q2125.64 218.323 2125.64 222.976 Q2125.64 227.629 2127.6 230.314 Q2129.6 232.976 2133.04 232.976 Q2136.45 232.976 2138.44 230.291 Q2140.43 227.606 2140.43 222.976 Q2140.43 218.37 2138.44 215.684 Q2136.45 212.976 2133.04 212.976 M2133.04 209.365 Q2138.6 209.365 2141.77 212.976 Q2144.94 216.587 2144.94 222.976 Q2144.94 229.342 2141.77 232.976 Q2138.6 236.587 2133.04 236.587 Q2127.47 236.587 2124.29 232.976 Q2121.15 229.342 2121.15 222.976 Q2121.15 216.587 2124.29 212.976 Q2127.47 209.365 2133.04 209.365 Z" fill="#000000" fill-rule="evenodd" fill-opacity="1" /><path clip-path="url(#clip270)" d="M2167.03 213.971 Q2166.31 213.555 2165.45 213.37 Q2164.62 213.161 2163.6 213.161 Q2159.99 213.161 2158.04 215.522 Q2156.12 217.86 2156.12 222.258 L2156.12 235.916 L2151.84 235.916 L2151.84 209.99 L2156.12 209.99 L2156.12 214.018 Q2157.47 211.657 2159.62 210.522 Q2161.77 209.365 2164.85 209.365 Q2165.29 209.365 2165.82 209.434 Q2166.35 209.481 2167 209.596 L2167.03 213.971 Z" fill="#000000" fill-rule="evenodd" fill-opacity="1" /><path clip-path="url(#clip270)" d="M2182.28 238.323 Q2180.48 242.953 2178.76 244.365 Q2177.05 245.777 2174.18 245.777 L2170.78 245.777 L2170.78 242.212 L2173.28 242.212 Q2175.04 242.212 2176.01 241.379 Q2176.98 240.545 2178.16 237.443 L2178.92 235.499 L2168.44 209.99 L2172.95 209.99 L2181.05 230.268 L2189.16 209.99 L2193.67 209.99 L2182.28 238.323 Z" fill="#000000" fill-rule="evenodd" fill-opacity="1" /><path clip-path="url(#clip270)" d="M2216.03 231.981 L2223.67 231.981 L2223.67 205.615 L2215.36 207.282 L2215.36 203.022 L2223.62 201.356 L2228.3 201.356 L2228.3 231.981 L2235.94 231.981 L2235.94 235.916 L2216.03 235.916 L2216.03 231.981 Z" fill="#000000" fill-rule="evenodd" fill-opacity="1" /><polyline clip-path="url(#clip270)" style="stroke:#e26f46; stroke-linecap:butt; stroke-linejoin:round; stroke-width:4; stroke-opacity:1; fill:none" points="
  1797.32,270.476 1937.51,270.476 
  "/>
<path clip-path="url(#clip270)" d="M1960.87 253.196 L1990.11 253.196 L1990.11 257.131 L1977.84 257.131 L1977.84 287.756 L1973.14 287.756 L1973.14 257.131 L1960.87 257.131 L1960.87 253.196 Z" fill="#000000" fill-rule="evenodd" fill-opacity="1" /><path clip-path="url(#clip270)" d="M2002.49 265.811 Q2001.77 265.395 2000.92 265.21 Q2000.08 265.001 1999.06 265.001 Q1995.45 265.001 1993.51 267.362 Q1991.59 269.7 1991.59 274.098 L1991.59 287.756 L1987.3 287.756 L1987.3 261.83 L1991.59 261.83 L1991.59 265.858 Q1992.93 263.497 1995.08 262.362 Q1997.24 261.205 2000.31 261.205 Q2000.75 261.205 2001.29 261.274 Q2001.82 261.321 2002.47 261.436 L2002.49 265.811 Z" fill="#000000" fill-rule="evenodd" fill-opacity="1" /><path clip-path="url(#clip270)" d="M2018.74 274.723 Q2013.58 274.723 2011.59 275.904 Q2009.6 277.084 2009.6 279.932 Q2009.6 282.2 2011.08 283.543 Q2012.58 284.862 2015.15 284.862 Q2018.69 284.862 2020.82 282.362 Q2022.98 279.839 2022.98 275.672 L2022.98 274.723 L2018.74 274.723 M2027.24 272.964 L2027.24 287.756 L2022.98 287.756 L2022.98 283.821 Q2021.52 286.182 2019.34 287.316 Q2017.17 288.427 2014.02 288.427 Q2010.04 288.427 2007.68 286.205 Q2005.34 283.959 2005.34 280.209 Q2005.34 275.834 2008.25 273.612 Q2011.19 271.39 2017 271.39 L2022.98 271.39 L2022.98 270.973 Q2022.98 268.034 2021.03 266.436 Q2019.11 264.816 2015.61 264.816 Q2013.39 264.816 2011.29 265.348 Q2009.18 265.881 2007.24 266.946 L2007.24 263.01 Q2009.57 262.108 2011.77 261.668 Q2013.97 261.205 2016.05 261.205 Q2021.68 261.205 2024.46 264.122 Q2027.24 267.038 2027.24 272.964 Z" fill="#000000" fill-rule="evenodd" fill-opacity="1" /><path clip-path="url(#clip270)" d="M2036.01 261.83 L2040.27 261.83 L2040.27 288.219 Q2040.27 293.172 2038.37 295.395 Q2036.49 297.617 2032.3 297.617 L2030.68 297.617 L2030.68 294.006 L2031.82 294.006 Q2034.25 294.006 2035.13 292.871 Q2036.01 291.76 2036.01 288.219 L2036.01 261.83 M2036.01 251.737 L2040.27 251.737 L2040.27 257.131 L2036.01 257.131 L2036.01 251.737 Z" fill="#000000" fill-rule="evenodd" fill-opacity="1" /><path clip-path="url(#clip270)" d="M2071.36 273.728 L2071.36 275.811 L2051.77 275.811 Q2052.05 280.209 2054.41 282.524 Q2056.8 284.816 2061.03 284.816 Q2063.48 284.816 2065.78 284.214 Q2068.09 283.612 2070.36 282.409 L2070.36 286.436 Q2068.07 287.408 2065.66 287.918 Q2063.25 288.427 2060.78 288.427 Q2054.57 288.427 2050.94 284.816 Q2047.33 281.205 2047.33 275.047 Q2047.33 268.682 2050.75 264.955 Q2054.2 261.205 2060.04 261.205 Q2065.27 261.205 2068.3 264.585 Q2071.36 267.941 2071.36 273.728 M2067.1 272.478 Q2067.05 268.983 2065.13 266.899 Q2063.23 264.816 2060.08 264.816 Q2056.52 264.816 2054.36 266.83 Q2052.23 268.844 2051.91 272.501 L2067.1 272.478 Z" fill="#000000" fill-rule="evenodd" fill-opacity="1" /><path clip-path="url(#clip270)" d="M2097 262.825 L2097 266.807 Q2095.2 265.811 2093.37 265.325 Q2091.56 264.816 2089.71 264.816 Q2085.57 264.816 2083.28 267.455 Q2080.98 270.071 2080.98 274.816 Q2080.98 279.561 2083.28 282.2 Q2085.57 284.816 2089.71 284.816 Q2091.56 284.816 2093.37 284.33 Q2095.2 283.821 2097 282.825 L2097 286.76 Q2095.22 287.594 2093.3 288.01 Q2091.4 288.427 2089.25 288.427 Q2083.39 288.427 2079.94 284.746 Q2076.49 281.066 2076.49 274.816 Q2076.49 268.473 2079.97 264.839 Q2083.46 261.205 2089.53 261.205 Q2091.49 261.205 2093.37 261.622 Q2095.24 262.015 2097 262.825 Z" fill="#000000" fill-rule="evenodd" fill-opacity="1" /><path clip-path="url(#clip270)" d="M2108.62 254.469 L2108.62 261.83 L2117.4 261.83 L2117.4 265.14 L2108.62 265.14 L2108.62 279.214 Q2108.62 282.385 2109.48 283.288 Q2110.36 284.191 2113.02 284.191 L2117.4 284.191 L2117.4 287.756 L2113.02 287.756 Q2108.09 287.756 2106.22 285.927 Q2104.34 284.075 2104.34 279.214 L2104.34 265.14 L2101.22 265.14 L2101.22 261.83 L2104.34 261.83 L2104.34 254.469 L2108.62 254.469 Z" fill="#000000" fill-rule="evenodd" fill-opacity="1" /><path clip-path="url(#clip270)" d="M2133.04 264.816 Q2129.62 264.816 2127.63 267.501 Q2125.64 270.163 2125.64 274.816 Q2125.64 279.469 2127.6 282.154 Q2129.6 284.816 2133.04 284.816 Q2136.45 284.816 2138.44 282.131 Q2140.43 279.446 2140.43 274.816 Q2140.43 270.21 2138.44 267.524 Q2136.45 264.816 2133.04 264.816 M2133.04 261.205 Q2138.6 261.205 2141.77 264.816 Q2144.94 268.427 2144.94 274.816 Q2144.94 281.182 2141.77 284.816 Q2138.6 288.427 2133.04 288.427 Q2127.47 288.427 2124.29 284.816 Q2121.15 281.182 2121.15 274.816 Q2121.15 268.427 2124.29 264.816 Q2127.47 261.205 2133.04 261.205 Z" fill="#000000" fill-rule="evenodd" fill-opacity="1" /><path clip-path="url(#clip270)" d="M2167.03 265.811 Q2166.31 265.395 2165.45 265.21 Q2164.62 265.001 2163.6 265.001 Q2159.99 265.001 2158.04 267.362 Q2156.12 269.7 2156.12 274.098 L2156.12 287.756 L2151.84 287.756 L2151.84 261.83 L2156.12 261.83 L2156.12 265.858 Q2157.47 263.497 2159.62 262.362 Q2161.77 261.205 2164.85 261.205 Q2165.29 261.205 2165.82 261.274 Q2166.35 261.321 2167 261.436 L2167.03 265.811 Z" fill="#000000" fill-rule="evenodd" fill-opacity="1" /><path clip-path="url(#clip270)" d="M2182.28 290.163 Q2180.48 294.793 2178.76 296.205 Q2177.05 297.617 2174.18 297.617 L2170.78 297.617 L2170.78 294.052 L2173.28 294.052 Q2175.04 294.052 2176.01 293.219 Q2176.98 292.385 2178.16 289.283 L2178.92 287.339 L2168.44 261.83 L2172.95 261.83 L2181.05 282.108 L2189.16 261.83 L2193.67 261.83 L2182.28 290.163 Z" fill="#000000" fill-rule="evenodd" fill-opacity="1" /><path clip-path="url(#clip270)" d="M2219.25 283.821 L2235.57 283.821 L2235.57 287.756 L2213.62 287.756 L2213.62 283.821 Q2216.29 281.066 2220.87 276.436 Q2225.47 271.784 2226.66 270.441 Q2228.9 267.918 2229.78 266.182 Q2230.68 264.423 2230.68 262.733 Q2230.68 259.978 2228.74 258.242 Q2226.82 256.506 2223.72 256.506 Q2221.52 256.506 2219.06 257.27 Q2216.63 258.034 2213.85 259.585 L2213.85 254.862 Q2216.68 253.728 2219.13 253.149 Q2221.59 252.571 2223.62 252.571 Q2228.99 252.571 2232.19 255.256 Q2235.38 257.941 2235.38 262.432 Q2235.38 264.561 2234.57 266.483 Q2233.78 268.381 2231.68 270.973 Q2231.1 271.645 2228 274.862 Q2224.9 278.057 2219.25 283.821 Z" fill="#000000" fill-rule="evenodd" fill-opacity="1" /></svg>
