<?xml version="1.0" encoding="utf-8"?>
<svg xmlns="http://www.w3.org/2000/svg" xmlns:xlink="http://www.w3.org/1999/xlink" width="600" height="400" viewBox="0 0 2400 1600">
<defs>
  <clipPath id="clip570">
    <rect x="0" y="0" width="2400" height="1600"/>
  </clipPath>
</defs>
<path clip-path="url(#clip570)" d="
M0 1600 L2400 1600 L2400 0 L0 0  Z
  " fill="#ffffff" fill-rule="evenodd" fill-opacity="1"/>
<defs>
  <clipPath id="clip571">
    <rect x="480" y="0" width="1681" height="1600"/>
  </clipPath>
</defs>
<defs>
  <clipPath id="clip572">
    <rect x="250" y="123" width="2104" height="1301"/>
  </clipPath>
</defs>
<path clip-path="url(#clip570)" d="
M279.704 1423.18 L2352.76 1423.18 L2352.76 123.472 L279.704 123.472  Z
  " fill="#ffffff" fill-rule="evenodd" fill-opacity="1"/>
<defs>
  <clipPath id="clip573">
    <rect x="279" y="123" width="2074" height="1301"/>
  </clipPath>
</defs>
<polyline clip-path="url(#clip573)" style="stroke:#000000; stroke-linecap:butt; stroke-linejoin:round; stroke-width:2; stroke-opacity:0.1; fill:none" points="
  338.375,1423.18 338.375,123.472 
  "/>
<polyline clip-path="url(#clip573)" style="stroke:#000000; stroke-linecap:butt; stroke-linejoin:round; stroke-width:2; stroke-opacity:0.1; fill:none" points="
  693.959,1423.18 693.959,123.472 
  "/>
<polyline clip-path="url(#clip573)" style="stroke:#000000; stroke-linecap:butt; stroke-linejoin:round; stroke-width:2; stroke-opacity:0.1; fill:none" points="
  1049.54,1423.18 1049.54,123.472 
  "/>
<polyline clip-path="url(#clip573)" style="stroke:#000000; stroke-linecap:butt; stroke-linejoin:round; stroke-width:2; stroke-opacity:0.1; fill:none" points="
  1405.13,1423.18 1405.13,123.472 
  "/>
<polyline clip-path="url(#clip573)" style="stroke:#000000; stroke-linecap:butt; stroke-linejoin:round; stroke-width:2; stroke-opacity:0.1; fill:none" points="
  1760.71,1423.18 1760.71,123.472 
  "/>
<polyline clip-path="url(#clip573)" style="stroke:#000000; stroke-linecap:butt; stroke-linejoin:round; stroke-width:2; stroke-opacity:0.1; fill:none" points="
  2116.29,1423.18 2116.29,123.472 
  "/>
<polyline clip-path="url(#clip570)" style="stroke:#000000; stroke-linecap:butt; stroke-linejoin:round; stroke-width:4; stroke-opacity:1; fill:none" points="
  279.704,1423.18 2352.76,1423.18 
  "/>
<polyline clip-path="url(#clip570)" style="stroke:#000000; stroke-linecap:butt; stroke-linejoin:round; stroke-width:4; stroke-opacity:1; fill:none" points="
  338.375,1423.18 338.375,1404.28 
  "/>
<polyline clip-path="url(#clip570)" style="stroke:#000000; stroke-linecap:butt; stroke-linejoin:round; stroke-width:4; stroke-opacity:1; fill:none" points="
  693.959,1423.18 693.959,1404.28 
  "/>
<polyline clip-path="url(#clip570)" style="stroke:#000000; stroke-linecap:butt; stroke-linejoin:round; stroke-width:4; stroke-opacity:1; fill:none" points="
  1049.54,1423.18 1049.54,1404.28 
  "/>
<polyline clip-path="url(#clip570)" style="stroke:#000000; stroke-linecap:butt; stroke-linejoin:round; stroke-width:4; stroke-opacity:1; fill:none" points="
  1405.13,1423.18 1405.13,1404.28 
  "/>
<polyline clip-path="url(#clip570)" style="stroke:#000000; stroke-linecap:butt; stroke-linejoin:round; stroke-width:4; stroke-opacity:1; fill:none" points="
  1760.71,1423.18 1760.71,1404.28 
  "/>
<polyline clip-path="url(#clip570)" style="stroke:#000000; stroke-linecap:butt; stroke-linejoin:round; stroke-width:4; stroke-opacity:1; fill:none" points="
  2116.29,1423.18 2116.29,1404.28 
  "/>
<path clip-path="url(#clip570)" d="M338.375 1454.1 Q334.764 1454.1 332.935 1457.66 Q331.13 1461.2 331.13 1468.33 Q331.13 1475.44 332.935 1479.01 Q334.764 1482.55 338.375 1482.55 Q342.009 1482.55 343.815 1479.01 Q345.644 1475.44 345.644 1468.33 Q345.644 1461.2 343.815 1457.66 Q342.009 1454.1 338.375 1454.1 M338.375 1450.39 Q344.185 1450.39 347.241 1455 Q350.32 1459.58 350.32 1468.33 Q350.32 1477.06 347.241 1481.67 Q344.185 1486.25 338.375 1486.25 Q332.565 1486.25 329.486 1481.67 Q326.431 1477.06 326.431 1468.33 Q326.431 1459.58 329.486 1455 Q332.565 1450.39 338.375 1450.39 Z" fill="#000000" fill-rule="evenodd" fill-opacity="1" /><path clip-path="url(#clip570)" d="M653.565 1481.64 L661.204 1481.64 L661.204 1455.28 L652.894 1456.95 L652.894 1452.69 L661.158 1451.02 L665.834 1451.02 L665.834 1481.64 L673.473 1481.64 L673.473 1485.58 L653.565 1485.58 L653.565 1481.64 Z" fill="#000000" fill-rule="evenodd" fill-opacity="1" /><path clip-path="url(#clip570)" d="M692.917 1454.1 Q689.306 1454.1 687.477 1457.66 Q685.672 1461.2 685.672 1468.33 Q685.672 1475.44 687.477 1479.01 Q689.306 1482.55 692.917 1482.55 Q696.551 1482.55 698.357 1479.01 Q700.186 1475.44 700.186 1468.33 Q700.186 1461.2 698.357 1457.66 Q696.551 1454.1 692.917 1454.1 M692.917 1450.39 Q698.727 1450.39 701.783 1455 Q704.861 1459.58 704.861 1468.33 Q704.861 1477.06 701.783 1481.67 Q698.727 1486.25 692.917 1486.25 Q687.107 1486.25 684.028 1481.67 Q680.973 1477.06 680.973 1468.33 Q680.973 1459.58 684.028 1455 Q687.107 1450.39 692.917 1450.39 Z" fill="#000000" fill-rule="evenodd" fill-opacity="1" /><path clip-path="url(#clip570)" d="M723.079 1454.1 Q719.468 1454.1 717.639 1457.66 Q715.834 1461.2 715.834 1468.33 Q715.834 1475.44 717.639 1479.01 Q719.468 1482.55 723.079 1482.55 Q726.713 1482.55 728.519 1479.01 Q730.347 1475.44 730.347 1468.33 Q730.347 1461.2 728.519 1457.66 Q726.713 1454.1 723.079 1454.1 M723.079 1450.39 Q728.889 1450.39 731.945 1455 Q735.023 1459.58 735.023 1468.33 Q735.023 1477.06 731.945 1481.67 Q728.889 1486.25 723.079 1486.25 Q717.269 1486.25 714.19 1481.67 Q711.135 1477.06 711.135 1468.33 Q711.135 1459.58 714.19 1455 Q717.269 1450.39 723.079 1450.39 Z" fill="#000000" fill-rule="evenodd" fill-opacity="1" /><path clip-path="url(#clip570)" d="M1013.23 1481.64 L1029.55 1481.64 L1029.55 1485.58 L1007.61 1485.58 L1007.61 1481.64 Q1010.27 1478.89 1014.85 1474.26 Q1019.46 1469.61 1020.64 1468.27 Q1022.89 1465.74 1023.77 1464.01 Q1024.67 1462.25 1024.67 1460.56 Q1024.67 1457.8 1022.73 1456.07 Q1020.8 1454.33 1017.7 1454.33 Q1015.5 1454.33 1013.05 1455.09 Q1010.62 1455.86 1007.84 1457.41 L1007.84 1452.69 Q1010.67 1451.55 1013.12 1450.97 Q1015.57 1450.39 1017.61 1450.39 Q1022.98 1450.39 1026.17 1453.08 Q1029.37 1455.77 1029.37 1460.26 Q1029.37 1462.39 1028.56 1464.31 Q1027.77 1466.2 1025.67 1468.8 Q1025.09 1469.47 1021.98 1472.69 Q1018.88 1475.88 1013.23 1481.64 Z" fill="#000000" fill-rule="evenodd" fill-opacity="1" /><path clip-path="url(#clip570)" d="M1049.37 1454.1 Q1045.76 1454.1 1043.93 1457.66 Q1042.12 1461.2 1042.12 1468.33 Q1042.12 1475.44 1043.93 1479.01 Q1045.76 1482.55 1049.37 1482.55 Q1053 1482.55 1054.81 1479.01 Q1056.64 1475.44 1056.64 1468.33 Q1056.64 1461.2 1054.81 1457.66 Q1053 1454.1 1049.37 1454.1 M1049.37 1450.39 Q1055.18 1450.39 1058.23 1455 Q1061.31 1459.58 1061.31 1468.33 Q1061.31 1477.06 1058.23 1481.67 Q1055.18 1486.25 1049.37 1486.25 Q1043.56 1486.25 1040.48 1481.67 Q1037.42 1477.06 1037.42 1468.33 Q1037.42 1459.58 1040.48 1455 Q1043.56 1450.39 1049.37 1450.39 Z" fill="#000000" fill-rule="evenodd" fill-opacity="1" /><path clip-path="url(#clip570)" d="M1079.53 1454.1 Q1075.92 1454.1 1074.09 1457.66 Q1072.29 1461.2 1072.29 1468.33 Q1072.29 1475.44 1074.09 1479.01 Q1075.92 1482.55 1079.53 1482.55 Q1083.16 1482.55 1084.97 1479.01 Q1086.8 1475.44 1086.8 1468.33 Q1086.8 1461.2 1084.97 1457.66 Q1083.16 1454.1 1079.53 1454.1 M1079.53 1450.39 Q1085.34 1450.39 1088.4 1455 Q1091.47 1459.58 1091.47 1468.33 Q1091.47 1477.06 1088.4 1481.67 Q1085.34 1486.25 1079.53 1486.25 Q1073.72 1486.25 1070.64 1481.67 Q1067.59 1477.06 1067.59 1468.33 Q1067.59 1459.58 1070.64 1455 Q1073.72 1450.39 1079.53 1450.39 Z" fill="#000000" fill-rule="evenodd" fill-opacity="1" /><path clip-path="url(#clip570)" d="M1378.89 1466.95 Q1382.24 1467.66 1384.12 1469.93 Q1386.02 1472.2 1386.02 1475.53 Q1386.02 1480.65 1382.5 1483.45 Q1378.98 1486.25 1372.5 1486.25 Q1370.32 1486.25 1368.01 1485.81 Q1365.72 1485.39 1363.26 1484.54 L1363.26 1480.02 Q1365.21 1481.16 1367.52 1481.74 Q1369.84 1482.32 1372.36 1482.32 Q1376.76 1482.32 1379.05 1480.58 Q1381.36 1478.84 1381.36 1475.53 Q1381.36 1472.48 1379.21 1470.77 Q1377.08 1469.03 1373.26 1469.03 L1369.23 1469.03 L1369.23 1465.19 L1373.45 1465.19 Q1376.9 1465.19 1378.73 1463.82 Q1380.55 1462.43 1380.55 1459.84 Q1380.55 1457.18 1378.66 1455.77 Q1376.78 1454.33 1373.26 1454.33 Q1371.34 1454.33 1369.14 1454.75 Q1366.94 1455.16 1364.3 1456.04 L1364.3 1451.88 Q1366.97 1451.14 1369.28 1450.77 Q1371.62 1450.39 1373.68 1450.39 Q1379 1450.39 1382.11 1452.83 Q1385.21 1455.23 1385.21 1459.35 Q1385.21 1462.22 1383.56 1464.21 Q1381.92 1466.18 1378.89 1466.95 Z" fill="#000000" fill-rule="evenodd" fill-opacity="1" /><path clip-path="url(#clip570)" d="M1404.88 1454.1 Q1401.27 1454.1 1399.44 1457.66 Q1397.64 1461.2 1397.64 1468.33 Q1397.64 1475.44 1399.44 1479.01 Q1401.27 1482.55 1404.88 1482.55 Q1408.52 1482.55 1410.32 1479.01 Q1412.15 1475.44 1412.15 1468.33 Q1412.15 1461.2 1410.32 1457.66 Q1408.52 1454.1 1404.88 1454.1 M1404.88 1450.39 Q1410.69 1450.39 1413.75 1455 Q1416.83 1459.58 1416.83 1468.33 Q1416.83 1477.06 1413.75 1481.67 Q1410.69 1486.25 1404.88 1486.25 Q1399.07 1486.25 1395.99 1481.67 Q1392.94 1477.06 1392.94 1468.33 Q1392.94 1459.58 1395.99 1455 Q1399.07 1450.39 1404.88 1450.39 Z" fill="#000000" fill-rule="evenodd" fill-opacity="1" /><path clip-path="url(#clip570)" d="M1435.04 1454.1 Q1431.43 1454.1 1429.6 1457.66 Q1427.8 1461.2 1427.8 1468.33 Q1427.8 1475.44 1429.6 1479.01 Q1431.43 1482.55 1435.04 1482.55 Q1438.68 1482.55 1440.48 1479.01 Q1442.31 1475.44 1442.31 1468.33 Q1442.31 1461.2 1440.48 1457.66 Q1438.68 1454.1 1435.04 1454.1 M1435.04 1450.39 Q1440.85 1450.39 1443.91 1455 Q1446.99 1459.58 1446.99 1468.33 Q1446.99 1477.06 1443.91 1481.67 Q1440.85 1486.25 1435.04 1486.25 Q1429.23 1486.25 1426.16 1481.67 Q1423.1 1477.06 1423.1 1468.33 Q1423.1 1459.58 1426.16 1455 Q1429.23 1450.39 1435.04 1450.39 Z" fill="#000000" fill-rule="evenodd" fill-opacity="1" /><path clip-path="url(#clip570)" d="M1733.8 1455.09 L1721.99 1473.54 L1733.8 1473.54 L1733.8 1455.09 M1732.57 1451.02 L1738.45 1451.02 L1738.45 1473.54 L1743.38 1473.54 L1743.38 1477.43 L1738.45 1477.43 L1738.45 1485.58 L1733.8 1485.58 L1733.8 1477.43 L1718.2 1477.43 L1718.2 1472.92 L1732.57 1451.02 Z" fill="#000000" fill-rule="evenodd" fill-opacity="1" /><path clip-path="url(#clip570)" d="M1761.11 1454.1 Q1757.5 1454.1 1755.67 1457.66 Q1753.87 1461.2 1753.87 1468.33 Q1753.87 1475.44 1755.67 1479.01 Q1757.5 1482.55 1761.11 1482.55 Q1764.75 1482.55 1766.55 1479.01 Q1768.38 1475.44 1768.38 1468.33 Q1768.38 1461.2 1766.55 1457.66 Q1764.75 1454.1 1761.11 1454.1 M1761.11 1450.39 Q1766.92 1450.39 1769.98 1455 Q1773.06 1459.58 1773.06 1468.33 Q1773.06 1477.06 1769.98 1481.67 Q1766.92 1486.25 1761.11 1486.25 Q1755.3 1486.25 1752.23 1481.67 Q1749.17 1477.06 1749.17 1468.33 Q1749.17 1459.58 1752.23 1455 Q1755.3 1450.39 1761.11 1450.39 Z" fill="#000000" fill-rule="evenodd" fill-opacity="1" /><path clip-path="url(#clip570)" d="M1791.28 1454.1 Q1787.67 1454.1 1785.84 1457.66 Q1784.03 1461.2 1784.03 1468.33 Q1784.03 1475.44 1785.84 1479.01 Q1787.67 1482.55 1791.28 1482.55 Q1794.91 1482.55 1796.72 1479.01 Q1798.54 1475.44 1798.54 1468.33 Q1798.54 1461.2 1796.72 1457.66 Q1794.91 1454.1 1791.28 1454.1 M1791.28 1450.39 Q1797.09 1450.39 1800.14 1455 Q1803.22 1459.58 1803.22 1468.33 Q1803.22 1477.06 1800.14 1481.67 Q1797.09 1486.25 1791.28 1486.25 Q1785.47 1486.25 1782.39 1481.67 Q1779.33 1477.06 1779.33 1468.33 Q1779.33 1459.58 1782.39 1455 Q1785.47 1450.39 1791.28 1450.39 Z" fill="#000000" fill-rule="evenodd" fill-opacity="1" /><path clip-path="url(#clip570)" d="M2075.91 1451.02 L2094.27 1451.02 L2094.27 1454.96 L2080.19 1454.96 L2080.19 1463.43 Q2081.21 1463.08 2082.23 1462.92 Q2083.25 1462.73 2084.27 1462.73 Q2090.05 1462.73 2093.43 1465.9 Q2096.81 1469.08 2096.81 1474.49 Q2096.81 1480.07 2093.34 1483.17 Q2089.87 1486.25 2083.55 1486.25 Q2081.37 1486.25 2079.11 1485.88 Q2076.86 1485.51 2074.45 1484.77 L2074.45 1480.07 Q2076.54 1481.2 2078.76 1481.76 Q2080.98 1482.32 2083.46 1482.32 Q2087.46 1482.32 2089.8 1480.21 Q2092.14 1478.1 2092.14 1474.49 Q2092.14 1470.88 2089.8 1468.77 Q2087.46 1466.67 2083.46 1466.67 Q2081.58 1466.67 2079.71 1467.08 Q2077.86 1467.5 2075.91 1468.38 L2075.91 1451.02 Z" fill="#000000" fill-rule="evenodd" fill-opacity="1" /><path clip-path="url(#clip570)" d="M2116.03 1454.1 Q2112.42 1454.1 2110.59 1457.66 Q2108.78 1461.2 2108.78 1468.33 Q2108.78 1475.44 2110.59 1479.01 Q2112.42 1482.55 2116.03 1482.55 Q2119.66 1482.55 2121.47 1479.01 Q2123.3 1475.44 2123.3 1468.33 Q2123.3 1461.2 2121.47 1457.66 Q2119.66 1454.1 2116.03 1454.1 M2116.03 1450.39 Q2121.84 1450.39 2124.89 1455 Q2127.97 1459.58 2127.97 1468.33 Q2127.97 1477.06 2124.89 1481.67 Q2121.84 1486.25 2116.03 1486.25 Q2110.22 1486.25 2107.14 1481.67 Q2104.08 1477.06 2104.08 1468.33 Q2104.08 1459.58 2107.14 1455 Q2110.22 1450.39 2116.03 1450.39 Z" fill="#000000" fill-rule="evenodd" fill-opacity="1" /><path clip-path="url(#clip570)" d="M2146.19 1454.1 Q2142.58 1454.1 2140.75 1457.66 Q2138.94 1461.2 2138.94 1468.33 Q2138.94 1475.44 2140.75 1479.01 Q2142.58 1482.55 2146.19 1482.55 Q2149.82 1482.55 2151.63 1479.01 Q2153.46 1475.44 2153.46 1468.33 Q2153.46 1461.2 2151.63 1457.66 Q2149.82 1454.1 2146.19 1454.1 M2146.19 1450.39 Q2152 1450.39 2155.05 1455 Q2158.13 1459.58 2158.13 1468.33 Q2158.13 1477.06 2155.05 1481.67 Q2152 1486.25 2146.19 1486.25 Q2140.38 1486.25 2137.3 1481.67 Q2134.24 1477.06 2134.24 1468.33 Q2134.24 1459.58 2137.3 1455 Q2140.38 1450.39 2146.19 1450.39 Z" fill="#000000" fill-rule="evenodd" fill-opacity="1" /><path clip-path="url(#clip570)" d="M1324.7 1548.54 Q1324.7 1549.45 1324.28 1549.67 Q1323.86 1549.87 1322.7 1549.87 L1316.52 1549.87 L1311.63 1569.32 Q1311.24 1571.02 1311.24 1572.47 Q1311.24 1574.08 1311.72 1574.79 Q1312.24 1575.5 1313.3 1575.5 Q1315.39 1575.5 1317.65 1573.6 Q1319.93 1571.7 1321.87 1567.06 Q1322.12 1566.45 1322.25 1566.32 Q1322.41 1566.16 1322.83 1566.16 Q1323.64 1566.16 1323.64 1566.81 Q1323.64 1567.03 1323.19 1568.06 Q1322.77 1569.09 1321.83 1570.61 Q1320.93 1572.12 1319.74 1573.54 Q1318.58 1574.95 1316.81 1575.98 Q1315.04 1576.98 1313.14 1576.98 Q1310.47 1576.98 1308.76 1575.28 Q1307.08 1573.57 1307.08 1570.9 Q1307.08 1570.03 1307.76 1567.26 Q1308.44 1564.45 1312.11 1549.87 L1306.28 1549.87 Q1305.47 1549.87 1305.15 1549.83 Q1304.86 1549.8 1304.64 1549.64 Q1304.44 1549.45 1304.44 1549.06 Q1304.44 1548.45 1304.7 1548.19 Q1304.96 1547.9 1305.28 1547.87 Q1305.64 1547.8 1306.44 1547.8 L1312.62 1547.8 L1315.2 1537.34 Q1315.46 1536.31 1316.1 1535.73 Q1316.78 1535.12 1317.16 1535.05 Q1317.55 1534.95 1317.84 1534.95 Q1318.71 1534.95 1319.23 1535.44 Q1319.74 1535.89 1319.74 1536.73 Q1319.74 1537.18 1317.04 1547.8 L1322.83 1547.8 Q1323.57 1547.8 1323.86 1547.84 Q1324.19 1547.87 1324.44 1548.03 Q1324.7 1548.19 1324.7 1548.54 Z" fill="#000000" fill-rule="evenodd" fill-opacity="1" /><polyline clip-path="url(#clip573)" style="stroke:#000000; stroke-linecap:butt; stroke-linejoin:round; stroke-width:2; stroke-opacity:0.1; fill:none" points="
  279.704,1387.16 2352.76,1387.16 
  "/>
<polyline clip-path="url(#clip573)" style="stroke:#000000; stroke-linecap:butt; stroke-linejoin:round; stroke-width:2; stroke-opacity:0.1; fill:none" points="
  279.704,1079.81 2352.76,1079.81 
  "/>
<polyline clip-path="url(#clip573)" style="stroke:#000000; stroke-linecap:butt; stroke-linejoin:round; stroke-width:2; stroke-opacity:0.1; fill:none" points="
  279.704,772.459 2352.76,772.459 
  "/>
<polyline clip-path="url(#clip573)" style="stroke:#000000; stroke-linecap:butt; stroke-linejoin:round; stroke-width:2; stroke-opacity:0.1; fill:none" points="
  279.704,465.11 2352.76,465.11 
  "/>
<polyline clip-path="url(#clip573)" style="stroke:#000000; stroke-linecap:butt; stroke-linejoin:round; stroke-width:2; stroke-opacity:0.1; fill:none" points="
  279.704,157.761 2352.76,157.761 
  "/>
<polyline clip-path="url(#clip570)" style="stroke:#000000; stroke-linecap:butt; stroke-linejoin:round; stroke-width:4; stroke-opacity:1; fill:none" points="
  279.704,1423.18 279.704,123.472 
  "/>
<polyline clip-path="url(#clip570)" style="stroke:#000000; stroke-linecap:butt; stroke-linejoin:round; stroke-width:4; stroke-opacity:1; fill:none" points="
  279.704,1387.16 298.602,1387.16 
  "/>
<polyline clip-path="url(#clip570)" style="stroke:#000000; stroke-linecap:butt; stroke-linejoin:round; stroke-width:4; stroke-opacity:1; fill:none" points="
  279.704,1079.81 298.602,1079.81 
  "/>
<polyline clip-path="url(#clip570)" style="stroke:#000000; stroke-linecap:butt; stroke-linejoin:round; stroke-width:4; stroke-opacity:1; fill:none" points="
  279.704,772.459 298.602,772.459 
  "/>
<polyline clip-path="url(#clip570)" style="stroke:#000000; stroke-linecap:butt; stroke-linejoin:round; stroke-width:4; stroke-opacity:1; fill:none" points="
  279.704,465.11 298.602,465.11 
  "/>
<polyline clip-path="url(#clip570)" style="stroke:#000000; stroke-linecap:butt; stroke-linejoin:round; stroke-width:4; stroke-opacity:1; fill:none" points="
  279.704,157.761 298.602,157.761 
  "/>
<path clip-path="url(#clip570)" d="M126.205 1372.96 Q122.593 1372.96 120.765 1376.52 Q118.959 1380.06 118.959 1387.19 Q118.959 1394.3 120.765 1397.86 Q122.593 1401.4 126.205 1401.4 Q129.839 1401.4 131.644 1397.86 Q133.473 1394.3 133.473 1387.19 Q133.473 1380.06 131.644 1376.52 Q129.839 1372.96 126.205 1372.96 M126.205 1369.25 Q132.015 1369.25 135.07 1373.86 Q138.149 1378.44 138.149 1387.19 Q138.149 1395.92 135.07 1400.53 Q132.015 1405.11 126.205 1405.11 Q120.394 1405.11 117.316 1400.53 Q114.26 1395.92 114.26 1387.19 Q114.26 1378.44 117.316 1373.86 Q120.394 1369.25 126.205 1369.25 Z" fill="#000000" fill-rule="evenodd" fill-opacity="1" /><path clip-path="url(#clip570)" d="M146.366 1398.56 L151.251 1398.56 L151.251 1404.44 L146.366 1404.44 L146.366 1398.56 Z" fill="#000000" fill-rule="evenodd" fill-opacity="1" /><path clip-path="url(#clip570)" d="M171.436 1372.96 Q167.825 1372.96 165.996 1376.52 Q164.19 1380.06 164.19 1387.19 Q164.19 1394.3 165.996 1397.86 Q167.825 1401.4 171.436 1401.4 Q175.07 1401.4 176.876 1397.86 Q178.704 1394.3 178.704 1387.19 Q178.704 1380.06 176.876 1376.52 Q175.07 1372.96 171.436 1372.96 M171.436 1369.25 Q177.246 1369.25 180.301 1373.86 Q183.38 1378.44 183.38 1387.19 Q183.38 1395.92 180.301 1400.53 Q177.246 1405.11 171.436 1405.11 Q165.626 1405.11 162.547 1400.53 Q159.491 1395.92 159.491 1387.19 Q159.491 1378.44 162.547 1373.86 Q165.626 1369.25 171.436 1369.25 Z" fill="#000000" fill-rule="evenodd" fill-opacity="1" /><path clip-path="url(#clip570)" d="M201.598 1372.96 Q197.987 1372.96 196.158 1376.52 Q194.352 1380.06 194.352 1387.19 Q194.352 1394.3 196.158 1397.86 Q197.987 1401.4 201.598 1401.4 Q205.232 1401.4 207.037 1397.86 Q208.866 1394.3 208.866 1387.19 Q208.866 1380.06 207.037 1376.52 Q205.232 1372.96 201.598 1372.96 M201.598 1369.25 Q207.408 1369.25 210.463 1373.86 Q213.542 1378.44 213.542 1387.19 Q213.542 1395.92 210.463 1400.53 Q207.408 1405.11 201.598 1405.11 Q195.787 1405.11 192.709 1400.53 Q189.653 1395.92 189.653 1387.19 Q189.653 1378.44 192.709 1373.86 Q195.787 1369.25 201.598 1369.25 Z" fill="#000000" fill-rule="evenodd" fill-opacity="1" /><path clip-path="url(#clip570)" d="M231.76 1372.96 Q228.148 1372.96 226.32 1376.52 Q224.514 1380.06 224.514 1387.19 Q224.514 1394.3 226.32 1397.86 Q228.148 1401.4 231.76 1401.4 Q235.394 1401.4 237.199 1397.86 Q239.028 1394.3 239.028 1387.19 Q239.028 1380.06 237.199 1376.52 Q235.394 1372.96 231.76 1372.96 M231.76 1369.25 Q237.57 1369.25 240.625 1373.86 Q243.704 1378.44 243.704 1387.19 Q243.704 1395.92 240.625 1400.53 Q237.57 1405.11 231.76 1405.11 Q225.949 1405.11 222.871 1400.53 Q219.815 1395.92 219.815 1387.19 Q219.815 1378.44 222.871 1373.86 Q225.949 1369.25 231.76 1369.25 Z" fill="#000000" fill-rule="evenodd" fill-opacity="1" /><path clip-path="url(#clip570)" d="M127.2 1065.61 Q123.589 1065.61 121.76 1069.17 Q119.955 1072.71 119.955 1079.84 Q119.955 1086.95 121.76 1090.51 Q123.589 1094.06 127.2 1094.06 Q130.834 1094.06 132.64 1090.51 Q134.468 1086.95 134.468 1079.84 Q134.468 1072.71 132.64 1069.17 Q130.834 1065.61 127.2 1065.61 M127.2 1061.9 Q133.01 1061.9 136.066 1066.51 Q139.144 1071.09 139.144 1079.84 Q139.144 1088.57 136.066 1093.18 Q133.01 1097.76 127.2 1097.76 Q121.39 1097.76 118.311 1093.18 Q115.256 1088.57 115.256 1079.84 Q115.256 1071.09 118.311 1066.51 Q121.39 1061.9 127.2 1061.9 Z" fill="#000000" fill-rule="evenodd" fill-opacity="1" /><path clip-path="url(#clip570)" d="M147.362 1091.21 L152.246 1091.21 L152.246 1097.09 L147.362 1097.09 L147.362 1091.21 Z" fill="#000000" fill-rule="evenodd" fill-opacity="1" /><path clip-path="url(#clip570)" d="M172.431 1065.61 Q168.82 1065.61 166.991 1069.17 Q165.186 1072.71 165.186 1079.84 Q165.186 1086.95 166.991 1090.51 Q168.82 1094.06 172.431 1094.06 Q176.065 1094.06 177.871 1090.51 Q179.7 1086.95 179.7 1079.84 Q179.7 1072.71 177.871 1069.17 Q176.065 1065.61 172.431 1065.61 M172.431 1061.9 Q178.241 1061.9 181.297 1066.51 Q184.376 1071.09 184.376 1079.84 Q184.376 1088.57 181.297 1093.18 Q178.241 1097.76 172.431 1097.76 Q166.621 1097.76 163.542 1093.18 Q160.487 1088.57 160.487 1079.84 Q160.487 1071.09 163.542 1066.51 Q166.621 1061.9 172.431 1061.9 Z" fill="#000000" fill-rule="evenodd" fill-opacity="1" /><path clip-path="url(#clip570)" d="M196.621 1093.15 L212.94 1093.15 L212.94 1097.09 L190.996 1097.09 L190.996 1093.15 Q193.658 1090.4 198.241 1085.77 Q202.848 1081.12 204.028 1079.77 Q206.274 1077.25 207.153 1075.51 Q208.056 1073.76 208.056 1072.07 Q208.056 1069.31 206.112 1067.57 Q204.19 1065.84 201.088 1065.84 Q198.889 1065.84 196.436 1066.6 Q194.005 1067.37 191.227 1068.92 L191.227 1064.19 Q194.051 1063.06 196.505 1062.48 Q198.959 1061.9 200.996 1061.9 Q206.366 1061.9 209.561 1064.59 Q212.755 1067.27 212.755 1071.76 Q212.755 1073.89 211.945 1075.82 Q211.158 1077.71 209.051 1080.31 Q208.473 1080.98 205.371 1084.19 Q202.269 1087.39 196.621 1093.15 Z" fill="#000000" fill-rule="evenodd" fill-opacity="1" /><path clip-path="url(#clip570)" d="M222.801 1062.53 L241.158 1062.53 L241.158 1066.46 L227.084 1066.46 L227.084 1074.94 Q228.102 1074.59 229.121 1074.43 Q230.139 1074.24 231.158 1074.24 Q236.945 1074.24 240.324 1077.41 Q243.704 1080.58 243.704 1086 Q243.704 1091.58 240.232 1094.68 Q236.76 1097.76 230.44 1097.76 Q228.264 1097.76 225.996 1097.39 Q223.75 1097.02 221.343 1096.28 L221.343 1091.58 Q223.426 1092.71 225.648 1093.27 Q227.871 1093.82 230.347 1093.82 Q234.352 1093.82 236.69 1091.72 Q239.028 1089.61 239.028 1086 Q239.028 1082.39 236.69 1080.28 Q234.352 1078.18 230.347 1078.18 Q228.473 1078.18 226.598 1078.59 Q224.746 1079.01 222.801 1079.89 L222.801 1062.53 Z" fill="#000000" fill-rule="evenodd" fill-opacity="1" /><path clip-path="url(#clip570)" d="M126.205 758.258 Q122.593 758.258 120.765 761.823 Q118.959 765.364 118.959 772.494 Q118.959 779.6 120.765 783.165 Q122.593 786.707 126.205 786.707 Q129.839 786.707 131.644 783.165 Q133.473 779.6 133.473 772.494 Q133.473 765.364 131.644 761.823 Q129.839 758.258 126.205 758.258 M126.205 754.554 Q132.015 754.554 135.07 759.161 Q138.149 763.744 138.149 772.494 Q138.149 781.221 135.07 785.827 Q132.015 790.411 126.205 790.411 Q120.394 790.411 117.316 785.827 Q114.26 781.221 114.26 772.494 Q114.26 763.744 117.316 759.161 Q120.394 754.554 126.205 754.554 Z" fill="#000000" fill-rule="evenodd" fill-opacity="1" /><path clip-path="url(#clip570)" d="M146.366 783.86 L151.251 783.86 L151.251 789.739 L146.366 789.739 L146.366 783.86 Z" fill="#000000" fill-rule="evenodd" fill-opacity="1" /><path clip-path="url(#clip570)" d="M171.436 758.258 Q167.825 758.258 165.996 761.823 Q164.19 765.364 164.19 772.494 Q164.19 779.6 165.996 783.165 Q167.825 786.707 171.436 786.707 Q175.07 786.707 176.876 783.165 Q178.704 779.6 178.704 772.494 Q178.704 765.364 176.876 761.823 Q175.07 758.258 171.436 758.258 M171.436 754.554 Q177.246 754.554 180.301 759.161 Q183.38 763.744 183.38 772.494 Q183.38 781.221 180.301 785.827 Q177.246 790.411 171.436 790.411 Q165.626 790.411 162.547 785.827 Q159.491 781.221 159.491 772.494 Q159.491 763.744 162.547 759.161 Q165.626 754.554 171.436 754.554 Z" fill="#000000" fill-rule="evenodd" fill-opacity="1" /><path clip-path="url(#clip570)" d="M191.644 755.179 L210 755.179 L210 759.114 L195.926 759.114 L195.926 767.587 Q196.945 767.239 197.963 767.077 Q198.982 766.892 200 766.892 Q205.787 766.892 209.167 770.063 Q212.547 773.235 212.547 778.651 Q212.547 784.23 209.074 787.332 Q205.602 790.411 199.283 790.411 Q197.107 790.411 194.838 790.04 Q192.593 789.67 190.186 788.929 L190.186 784.23 Q192.269 785.364 194.491 785.92 Q196.713 786.475 199.19 786.475 Q203.195 786.475 205.533 784.369 Q207.871 782.262 207.871 778.651 Q207.871 775.04 205.533 772.934 Q203.195 770.827 199.19 770.827 Q197.315 770.827 195.44 771.244 Q193.588 771.661 191.644 772.54 L191.644 755.179 Z" fill="#000000" fill-rule="evenodd" fill-opacity="1" /><path clip-path="url(#clip570)" d="M231.76 758.258 Q228.148 758.258 226.32 761.823 Q224.514 765.364 224.514 772.494 Q224.514 779.6 226.32 783.165 Q228.148 786.707 231.76 786.707 Q235.394 786.707 237.199 783.165 Q239.028 779.6 239.028 772.494 Q239.028 765.364 237.199 761.823 Q235.394 758.258 231.76 758.258 M231.76 754.554 Q237.57 754.554 240.625 759.161 Q243.704 763.744 243.704 772.494 Q243.704 781.221 240.625 785.827 Q237.57 790.411 231.76 790.411 Q225.949 790.411 222.871 785.827 Q219.815 781.221 219.815 772.494 Q219.815 763.744 222.871 759.161 Q225.949 754.554 231.76 754.554 Z" fill="#000000" fill-rule="evenodd" fill-opacity="1" /><path clip-path="url(#clip570)" d="M127.2 450.909 Q123.589 450.909 121.76 454.474 Q119.955 458.016 119.955 465.145 Q119.955 472.252 121.76 475.816 Q123.589 479.358 127.2 479.358 Q130.834 479.358 132.64 475.816 Q134.468 472.252 134.468 465.145 Q134.468 458.016 132.64 454.474 Q130.834 450.909 127.2 450.909 M127.2 447.205 Q133.01 447.205 136.066 451.812 Q139.144 456.395 139.144 465.145 Q139.144 473.872 136.066 478.478 Q133.01 483.062 127.2 483.062 Q121.39 483.062 118.311 478.478 Q115.256 473.872 115.256 465.145 Q115.256 456.395 118.311 451.812 Q121.39 447.205 127.2 447.205 Z" fill="#000000" fill-rule="evenodd" fill-opacity="1" /><path clip-path="url(#clip570)" d="M147.362 476.511 L152.246 476.511 L152.246 482.39 L147.362 482.39 L147.362 476.511 Z" fill="#000000" fill-rule="evenodd" fill-opacity="1" /><path clip-path="url(#clip570)" d="M172.431 450.909 Q168.82 450.909 166.991 454.474 Q165.186 458.016 165.186 465.145 Q165.186 472.252 166.991 475.816 Q168.82 479.358 172.431 479.358 Q176.065 479.358 177.871 475.816 Q179.7 472.252 179.7 465.145 Q179.7 458.016 177.871 454.474 Q176.065 450.909 172.431 450.909 M172.431 447.205 Q178.241 447.205 181.297 451.812 Q184.376 456.395 184.376 465.145 Q184.376 473.872 181.297 478.478 Q178.241 483.062 172.431 483.062 Q166.621 483.062 163.542 478.478 Q160.487 473.872 160.487 465.145 Q160.487 456.395 163.542 451.812 Q166.621 447.205 172.431 447.205 Z" fill="#000000" fill-rule="evenodd" fill-opacity="1" /><path clip-path="url(#clip570)" d="M191.413 447.83 L213.635 447.83 L213.635 449.821 L201.088 482.39 L196.204 482.39 L208.01 451.766 L191.413 451.766 L191.413 447.83 Z" fill="#000000" fill-rule="evenodd" fill-opacity="1" /><path clip-path="url(#clip570)" d="M222.801 447.83 L241.158 447.83 L241.158 451.766 L227.084 451.766 L227.084 460.238 Q228.102 459.891 229.121 459.728 Q230.139 459.543 231.158 459.543 Q236.945 459.543 240.324 462.715 Q243.704 465.886 243.704 471.302 Q243.704 476.881 240.232 479.983 Q236.76 483.062 230.44 483.062 Q228.264 483.062 225.996 482.691 Q223.75 482.321 221.343 481.58 L221.343 476.881 Q223.426 478.015 225.648 478.571 Q227.871 479.127 230.347 479.127 Q234.352 479.127 236.69 477.02 Q239.028 474.914 239.028 471.302 Q239.028 467.691 236.69 465.585 Q234.352 463.478 230.347 463.478 Q228.473 463.478 226.598 463.895 Q224.746 464.312 222.801 465.191 L222.801 447.83 Z" fill="#000000" fill-rule="evenodd" fill-opacity="1" /><path clip-path="url(#clip570)" d="M126.205 143.56 Q122.593 143.56 120.765 147.125 Q118.959 150.667 118.959 157.796 Q118.959 164.903 120.765 168.467 Q122.593 172.009 126.205 172.009 Q129.839 172.009 131.644 168.467 Q133.473 164.903 133.473 157.796 Q133.473 150.667 131.644 147.125 Q129.839 143.56 126.205 143.56 M126.205 139.856 Q132.015 139.856 135.07 144.463 Q138.149 149.046 138.149 157.796 Q138.149 166.523 135.07 171.129 Q132.015 175.713 126.205 175.713 Q120.394 175.713 117.316 171.129 Q114.26 166.523 114.26 157.796 Q114.26 149.046 117.316 144.463 Q120.394 139.856 126.205 139.856 Z" fill="#000000" fill-rule="evenodd" fill-opacity="1" /><path clip-path="url(#clip570)" d="M146.366 169.162 L151.251 169.162 L151.251 175.041 L146.366 175.041 L146.366 169.162 Z" fill="#000000" fill-rule="evenodd" fill-opacity="1" /><path clip-path="url(#clip570)" d="M162.246 171.106 L169.885 171.106 L169.885 144.741 L161.575 146.407 L161.575 142.148 L169.839 140.481 L174.514 140.481 L174.514 171.106 L182.153 171.106 L182.153 175.041 L162.246 175.041 L162.246 171.106 Z" fill="#000000" fill-rule="evenodd" fill-opacity="1" /><path clip-path="url(#clip570)" d="M201.598 143.56 Q197.987 143.56 196.158 147.125 Q194.352 150.667 194.352 157.796 Q194.352 164.903 196.158 168.467 Q197.987 172.009 201.598 172.009 Q205.232 172.009 207.037 168.467 Q208.866 164.903 208.866 157.796 Q208.866 150.667 207.037 147.125 Q205.232 143.56 201.598 143.56 M201.598 139.856 Q207.408 139.856 210.463 144.463 Q213.542 149.046 213.542 157.796 Q213.542 166.523 210.463 171.129 Q207.408 175.713 201.598 175.713 Q195.787 175.713 192.709 171.129 Q189.653 166.523 189.653 157.796 Q189.653 149.046 192.709 144.463 Q195.787 139.856 201.598 139.856 Z" fill="#000000" fill-rule="evenodd" fill-opacity="1" /><path clip-path="url(#clip570)" d="M231.76 143.56 Q228.148 143.56 226.32 147.125 Q224.514 150.667 224.514 157.796 Q224.514 164.903 226.32 168.467 Q228.148 172.009 231.76 172.009 Q235.394 172.009 237.199 168.467 Q239.028 164.903 239.028 157.796 Q239.028 150.667 237.199 147.125 Q235.394 143.56 231.76 143.56 M231.76 139.856 Q237.57 139.856 240.625 144.463 Q243.704 149.046 243.704 157.796 Q243.704 166.523 240.625 171.129 Q237.57 175.713 231.76 175.713 Q225.949 175.713 222.871 171.129 Q219.815 166.523 219.815 157.796 Q219.815 149.046 222.871 144.463 Q225.949 139.856 231.76 139.856 Z" fill="#000000" fill-rule="evenodd" fill-opacity="1" /><path clip-path="url(#clip570)" d="M27.2366 806.044 Q28.6537 806.044 29.7164 807.204 Q30.747 808.331 30.747 809.555 Q30.747 810.682 30.0707 811.391 Q29.3622 812.067 28.3638 812.067 Q27.0434 812.067 25.9484 810.94 Q24.8534 809.812 24.8534 808.492 Q24.8534 807.397 25.5297 806.721 Q26.206 806.044 27.2366 806.044 M59.0238 805.465 Q59.2814 805.465 60.312 805.755 Q61.3104 806.044 62.8563 806.753 Q64.37 807.429 65.787 808.363 Q67.2041 809.297 68.2024 810.843 Q69.2008 812.357 69.2008 814.096 Q69.2008 816.447 67.6549 817.993 Q66.1091 819.506 63.7902 819.506 Q62.5342 819.506 58.5085 817.993 Q46.7856 813.613 46.3025 813.452 Q44.4667 812.711 42.8564 812.711 Q42.1157 812.711 41.6648 812.872 Q41.1817 813.033 41.0207 813.355 Q40.8275 813.677 40.7953 813.87 Q40.7631 814.031 40.7631 814.354 Q40.7631 816.254 42.6954 818.025 Q44.6278 819.796 48.9433 821.02 Q49.7485 821.278 49.9417 821.439 Q50.135 821.6 50.135 822.083 Q50.1028 822.888 49.4586 822.888 Q49.2654 822.888 48.5247 822.663 Q47.7517 822.437 46.5923 822.018 Q45.4007 821.6 44.1769 820.859 Q42.9208 820.118 41.8258 819.217 Q40.7308 818.283 40.0223 816.962 Q39.3138 815.642 39.3138 814.16 Q39.3138 811.745 40.8919 810.263 Q42.4378 808.75 44.7244 808.75 Q45.9804 808.75 48.2026 809.619 Q51.1011 810.682 52.0351 811.069 L58.9594 813.645 Q61.4714 814.579 62.2444 814.869 Q62.9851 815.126 63.8869 815.352 Q64.7564 815.545 65.5616 815.545 Q66.6888 815.545 67.2041 815.191 Q67.7194 814.804 67.7194 813.967 Q67.7194 811.648 65.4327 809.941 Q63.1139 808.234 59.5713 807.236 Q59.4747 807.204 59.3136 807.172 Q58.5085 806.914 58.4119 806.656 Q58.3797 806.527 58.3797 806.27 Q58.3797 805.465 59.0238 805.465 Z" fill="#000000" fill-rule="evenodd" fill-opacity="1" /><path clip-path="url(#clip570)" d="M51.9707 794.824 Q40.8275 794.824 31.842 790.669 Q28.0739 788.898 24.9178 786.418 Q21.7616 783.938 20.3767 782.296 Q18.9919 780.653 18.9919 780.202 Q18.9919 779.558 19.636 779.526 Q19.9581 779.526 20.7632 780.395 Q31.5844 791.023 51.9707 790.991 Q72.4214 790.991 82.8239 780.653 Q83.9511 779.526 84.3054 779.526 Q84.9495 779.526 84.9495 780.202 Q84.9495 780.653 83.6291 782.231 Q82.3086 783.809 79.2813 786.257 Q76.2539 788.705 72.5502 790.476 Q63.5648 794.824 51.9707 794.824 Z" fill="#000000" fill-rule="evenodd" fill-opacity="1" /><path clip-path="url(#clip570)" d="M40.7631 754.255 Q41.6648 754.255 41.8903 754.673 Q42.0835 755.092 42.0835 756.252 L42.0835 762.435 L61.5358 767.33 Q63.2427 767.717 64.692 767.717 Q66.3023 767.717 67.0108 767.234 Q67.7194 766.718 67.7194 765.656 Q67.7194 763.562 65.8192 761.308 Q63.9191 759.021 59.2814 757.089 Q58.6695 756.831 58.5407 756.702 Q58.3797 756.541 58.3797 756.123 Q58.3797 755.318 59.0238 755.318 Q59.2492 755.318 60.2798 755.768 Q61.3104 756.187 62.8241 757.121 Q64.3377 758.023 65.7548 759.215 Q67.1719 760.374 68.2024 762.145 Q69.2008 763.917 69.2008 765.817 Q69.2008 768.49 67.4939 770.197 Q65.787 771.871 63.1139 771.871 Q62.2444 771.871 59.4747 771.195 Q56.6727 770.519 42.0835 766.847 L42.0835 772.677 Q42.0835 773.482 42.0513 773.804 Q42.0191 774.094 41.8581 774.319 Q41.6648 774.512 41.2783 774.512 Q40.6664 774.512 40.4088 774.255 Q40.1189 773.997 40.0867 773.675 Q40.0223 773.321 40.0223 772.516 L40.0223 766.332 L29.5554 763.756 Q28.5248 763.498 27.9451 762.854 Q27.3332 762.177 27.2688 761.791 Q27.1722 761.405 27.1722 761.115 Q27.1722 760.245 27.6553 759.73 Q28.1062 759.215 28.9435 759.215 Q29.3944 759.215 40.0223 761.92 L40.0223 756.123 Q40.0223 755.382 40.0545 755.092 Q40.0867 754.77 40.2478 754.512 Q40.4088 754.255 40.7631 754.255 Z" fill="#000000" fill-rule="evenodd" fill-opacity="1" /><path clip-path="url(#clip570)" d="M84.3054 749.091 Q83.9833 749.091 83.1782 748.254 Q72.357 737.626 51.9707 737.626 Q31.52 737.626 21.1819 747.835 Q19.9903 749.091 19.636 749.091 Q18.9919 749.091 18.9919 748.447 Q18.9919 747.996 20.3123 746.418 Q21.6328 744.808 24.6601 742.393 Q27.6875 739.945 31.3911 738.141 Q40.3766 733.794 51.9707 733.794 Q63.1139 733.794 72.0994 737.948 Q75.8674 739.719 79.0236 742.199 Q82.1798 744.679 83.5646 746.322 Q84.9495 747.964 84.9495 748.447 Q84.9495 749.091 84.3054 749.091 Z" fill="#000000" fill-rule="evenodd" fill-opacity="1" /><path clip-path="url(#clip570)" d="M666.222 17.6457 Q657.31 17.6457 652.044 24.2892 Q646.818 30.9327 646.818 42.3968 Q646.818 53.8203 652.044 60.4638 Q657.31 67.1073 666.222 67.1073 Q675.134 67.1073 680.319 60.4638 Q685.545 53.8203 685.545 42.3968 Q685.545 30.9327 680.319 24.2892 Q675.134 17.6457 666.222 17.6457 M677.686 71.4823 L688.461 83.2704 L678.577 83.2704 L669.625 73.5887 Q668.288 73.6697 667.559 73.7103 Q666.87 73.7508 666.222 73.7508 Q653.461 73.7508 645.805 65.2439 Q638.19 56.6965 638.19 42.3968 Q638.19 28.0566 645.805 19.5497 Q653.461 11.0023 666.222 11.0023 Q678.942 11.0023 686.557 19.5497 Q694.173 28.0566 694.173 42.3968 Q694.173 52.9291 689.92 60.4233 Q685.707 67.9175 677.686 71.4823 Z" fill="#000000" fill-rule="evenodd" fill-opacity="1" /><path clip-path="url(#clip570)" d="M705.88 54.671 L705.88 27.2059 L713.334 27.2059 L713.334 54.3874 Q713.334 60.8284 715.845 64.0691 Q718.357 67.2693 723.38 67.2693 Q729.416 67.2693 732.9 63.421 Q736.424 59.5726 736.424 52.9291 L736.424 27.2059 L743.878 27.2059 L743.878 72.576 L736.424 72.576 L736.424 65.6084 Q733.71 69.7404 730.105 71.7658 Q726.54 73.7508 721.8 73.7508 Q713.982 73.7508 709.931 68.8897 Q705.88 64.0286 705.88 54.671 M724.636 26.1121 L724.636 26.1121 Z" fill="#000000" fill-rule="evenodd" fill-opacity="1" /><path clip-path="url(#clip570)" d="M779.85 49.7694 Q770.816 49.7694 767.332 51.8354 Q763.849 53.9013 763.849 58.8839 Q763.849 62.8538 766.441 65.2034 Q769.074 67.5124 773.571 67.5124 Q779.769 67.5124 783.495 63.1374 Q787.263 58.7219 787.263 51.4303 L787.263 49.7694 L779.85 49.7694 M794.716 46.6907 L794.716 72.576 L787.263 72.576 L787.263 65.6895 Q784.711 69.8214 780.903 71.8063 Q777.095 73.7508 771.586 73.7508 Q764.618 73.7508 760.486 69.8619 Q756.395 65.9325 756.395 59.3701 Q756.395 51.7138 761.499 47.825 Q766.644 43.9361 776.812 43.9361 L787.263 43.9361 L787.263 43.2069 Q787.263 38.0623 783.86 35.2672 Q780.498 32.4315 774.381 32.4315 Q770.492 32.4315 766.806 33.3632 Q763.119 34.295 759.717 36.1584 L759.717 29.2718 Q763.808 27.692 767.656 26.9223 Q771.505 26.1121 775.151 26.1121 Q784.994 26.1121 789.855 31.2163 Q794.716 36.3204 794.716 46.6907 Z" fill="#000000" fill-rule="evenodd" fill-opacity="1" /><path clip-path="url(#clip570)" d="M847.783 45.1919 L847.783 72.576 L840.33 72.576 L840.33 45.4349 Q840.33 38.994 837.818 35.7938 Q835.307 32.5936 830.283 32.5936 Q824.248 32.5936 820.764 36.4419 Q817.28 40.2903 817.28 46.9338 L817.28 72.576 L809.786 72.576 L809.786 27.2059 L817.28 27.2059 L817.28 34.2544 Q819.954 30.163 823.559 28.1376 Q827.205 26.1121 831.944 26.1121 Q839.763 26.1121 843.773 30.9732 Q847.783 35.7938 847.783 45.1919 Z" fill="#000000" fill-rule="evenodd" fill-opacity="1" /><path clip-path="url(#clip570)" d="M870.023 14.324 L870.023 27.2059 L885.376 27.2059 L885.376 32.9987 L870.023 32.9987 L870.023 57.6282 Q870.023 63.1779 871.522 64.7578 Q873.061 66.3376 877.72 66.3376 L885.376 66.3376 L885.376 72.576 L877.72 72.576 Q869.091 72.576 865.81 69.3758 Q862.529 66.1351 862.529 57.6282 L862.529 32.9987 L857.06 32.9987 L857.06 27.2059 L862.529 27.2059 L862.529 14.324 L870.023 14.324 Z" fill="#000000" fill-rule="evenodd" fill-opacity="1" /><path clip-path="url(#clip570)" d="M895.179 27.2059 L902.633 27.2059 L902.633 72.576 L895.179 72.576 L895.179 27.2059 M895.179 9.54393 L902.633 9.54393 L902.633 18.9825 L895.179 18.9825 L895.179 9.54393 Z" fill="#000000" fill-rule="evenodd" fill-opacity="1" /><path clip-path="url(#clip570)" d="M918.229 9.54393 L925.682 9.54393 L925.682 72.576 L918.229 72.576 L918.229 9.54393 Z" fill="#000000" fill-rule="evenodd" fill-opacity="1" /><path clip-path="url(#clip570)" d="M980.086 48.0275 L980.086 51.6733 L945.815 51.6733 Q946.301 59.3701 950.433 63.421 Q954.606 67.4314 962.019 67.4314 Q966.313 67.4314 970.323 66.3781 Q974.374 65.3249 978.344 63.2184 L978.344 70.267 Q974.334 71.9684 970.121 72.8596 Q965.908 73.7508 961.573 73.7508 Q950.717 73.7508 944.357 67.4314 Q938.037 61.1119 938.037 50.3365 Q938.037 39.1965 944.033 32.6746 Q950.069 26.1121 960.277 26.1121 Q969.432 26.1121 974.739 32.0264 Q980.086 37.9003 980.086 48.0275 M972.632 45.84 Q972.551 39.7232 969.189 36.0774 Q965.867 32.4315 960.358 32.4315 Q954.12 32.4315 950.352 35.9558 Q946.625 39.4801 946.058 45.8805 L972.632 45.84 Z" fill="#000000" fill-rule="evenodd" fill-opacity="1" /><path clip-path="url(#clip570)" d="M1021.24 28.5427 L1021.24 35.5912 Q1018.08 33.9709 1014.68 33.1607 Q1011.28 32.3505 1007.63 32.3505 Q1002.08 32.3505 999.287 34.0519 Q996.533 35.7533 996.533 39.156 Q996.533 41.7486 998.517 43.2475 Q1000.5 44.7058 1006.5 46.0426 L1009.05 46.6097 Q1016.99 48.3111 1020.31 51.4303 Q1023.67 54.509 1023.67 60.0587 Q1023.67 66.3781 1018.65 70.0644 Q1013.67 73.7508 1004.92 73.7508 Q1001.27 73.7508 997.302 73.0216 Q993.373 72.3329 988.998 70.9151 L988.998 63.2184 Q993.13 65.3654 997.14 66.4591 Q1001.15 67.5124 1005.08 67.5124 Q1010.35 67.5124 1013.18 65.73 Q1016.02 63.9071 1016.02 60.6258 Q1016.02 57.5877 1013.95 55.9673 Q1011.93 54.3469 1005 52.8481 L1002.41 52.2405 Q995.479 50.7821 992.401 47.7845 Q989.322 44.7463 989.322 39.4801 Q989.322 33.0797 993.859 29.5959 Q998.396 26.1121 1006.74 26.1121 Q1010.87 26.1121 1014.52 26.7198 Q1018.16 27.3274 1021.24 28.5427 Z" fill="#000000" fill-rule="evenodd" fill-opacity="1" /><path clip-path="url(#clip570)" d="M1079.5 32.4315 Q1073.5 32.4315 1070.02 37.1306 Q1066.53 41.7891 1066.53 49.9314 Q1066.53 58.0738 1069.98 62.7728 Q1073.46 67.4314 1079.5 67.4314 Q1085.45 67.4314 1088.93 62.7323 Q1092.42 58.0333 1092.42 49.9314 Q1092.42 41.8701 1088.93 37.1711 Q1085.45 32.4315 1079.5 32.4315 M1079.5 26.1121 Q1089.22 26.1121 1094.77 32.4315 Q1100.32 38.7509 1100.32 49.9314 Q1100.32 61.0714 1094.77 67.4314 Q1089.22 73.7508 1079.5 73.7508 Q1069.73 73.7508 1064.18 67.4314 Q1058.67 61.0714 1058.67 49.9314 Q1058.67 38.7509 1064.18 32.4315 Q1069.73 26.1121 1079.5 26.1121 Z" fill="#000000" fill-rule="evenodd" fill-opacity="1" /><path clip-path="url(#clip570)" d="M1135.64 9.54393 L1135.64 15.7418 L1128.51 15.7418 Q1124.5 15.7418 1122.92 17.3622 Q1121.38 18.9825 1121.38 23.1955 L1121.38 27.2059 L1133.66 27.2059 L1133.66 32.9987 L1121.38 32.9987 L1121.38 72.576 L1113.89 72.576 L1113.89 32.9987 L1106.76 32.9987 L1106.76 27.2059 L1113.89 27.2059 L1113.89 24.0462 Q1113.89 16.471 1117.41 13.0277 Q1120.94 9.54393 1128.59 9.54393 L1135.64 9.54393 Z" fill="#000000" fill-rule="evenodd" fill-opacity="1" /><path clip-path="url(#clip570)" d="M1168.57 12.096 L1176.76 12.096 L1176.76 72.576 L1168.57 72.576 L1168.57 12.096 Z" fill="#000000" fill-rule="evenodd" fill-opacity="1" /><path clip-path="url(#clip570)" d="M1230.43 45.1919 L1230.43 72.576 L1222.98 72.576 L1222.98 45.4349 Q1222.98 38.994 1220.47 35.7938 Q1217.95 32.5936 1212.93 32.5936 Q1206.9 32.5936 1203.41 36.4419 Q1199.93 40.2903 1199.93 46.9338 L1199.93 72.576 L1192.43 72.576 L1192.43 27.2059 L1199.93 27.2059 L1199.93 34.2544 Q1202.6 30.163 1206.21 28.1376 Q1209.85 26.1121 1214.59 26.1121 Q1222.41 26.1121 1226.42 30.9732 Q1230.43 35.7938 1230.43 45.1919 Z" fill="#000000" fill-rule="evenodd" fill-opacity="1" /><path clip-path="url(#clip570)" d="M1268.27 9.54393 L1268.27 15.7418 L1261.14 15.7418 Q1257.13 15.7418 1255.55 17.3622 Q1254.01 18.9825 1254.01 23.1955 L1254.01 27.2059 L1266.28 27.2059 L1266.28 32.9987 L1254.01 32.9987 L1254.01 72.576 L1246.51 72.576 L1246.51 32.9987 L1239.38 32.9987 L1239.38 27.2059 L1246.51 27.2059 L1246.51 24.0462 Q1246.51 16.471 1250.04 13.0277 Q1253.56 9.54393 1261.22 9.54393 L1268.27 9.54393 Z" fill="#000000" fill-rule="evenodd" fill-opacity="1" /><path clip-path="url(#clip570)" d="M1313.31 48.0275 L1313.31 51.6733 L1279.04 51.6733 Q1279.53 59.3701 1283.66 63.421 Q1287.83 67.4314 1295.25 67.4314 Q1299.54 67.4314 1303.55 66.3781 Q1307.6 65.3249 1311.57 63.2184 L1311.57 70.267 Q1307.56 71.9684 1303.35 72.8596 Q1299.14 73.7508 1294.8 73.7508 Q1283.94 73.7508 1277.58 67.4314 Q1271.26 61.1119 1271.26 50.3365 Q1271.26 39.1965 1277.26 32.6746 Q1283.3 26.1121 1293.5 26.1121 Q1302.66 26.1121 1307.97 32.0264 Q1313.31 37.9003 1313.31 48.0275 M1305.86 45.84 Q1305.78 39.7232 1302.42 36.0774 Q1299.09 32.4315 1293.59 32.4315 Q1287.35 32.4315 1283.58 35.9558 Q1279.85 39.4801 1279.29 45.8805 L1305.86 45.84 Z" fill="#000000" fill-rule="evenodd" fill-opacity="1" /><path clip-path="url(#clip570)" d="M1358.2 28.9478 L1358.2 35.9153 Q1355.04 34.1734 1351.84 33.3227 Q1348.68 32.4315 1345.44 32.4315 Q1338.19 32.4315 1334.18 37.0496 Q1330.17 41.6271 1330.17 49.9314 Q1330.17 58.2358 1334.18 62.8538 Q1338.19 67.4314 1345.44 67.4314 Q1348.68 67.4314 1351.84 66.5807 Q1355.04 65.6895 1358.2 63.9476 L1358.2 70.8341 Q1355.08 72.2924 1351.72 73.0216 Q1348.39 73.7508 1344.63 73.7508 Q1334.38 73.7508 1328.34 67.3098 Q1322.31 60.8689 1322.31 49.9314 Q1322.31 38.832 1328.38 32.472 Q1334.5 26.1121 1345.11 26.1121 Q1348.56 26.1121 1351.84 26.8413 Q1355.12 27.5299 1358.2 28.9478 Z" fill="#000000" fill-rule="evenodd" fill-opacity="1" /><path clip-path="url(#clip570)" d="M1378.53 14.324 L1378.53 27.2059 L1393.89 27.2059 L1393.89 32.9987 L1378.53 32.9987 L1378.53 57.6282 Q1378.53 63.1779 1380.03 64.7578 Q1381.57 66.3376 1386.23 66.3376 L1393.89 66.3376 L1393.89 72.576 L1386.23 72.576 Q1377.6 72.576 1374.32 69.3758 Q1371.04 66.1351 1371.04 57.6282 L1371.04 32.9987 L1365.57 32.9987 L1365.57 27.2059 L1371.04 27.2059 L1371.04 14.324 L1378.53 14.324 Z" fill="#000000" fill-rule="evenodd" fill-opacity="1" /><path clip-path="url(#clip570)" d="M1403.69 27.2059 L1411.14 27.2059 L1411.14 72.576 L1403.69 72.576 L1403.69 27.2059 M1403.69 9.54393 L1411.14 9.54393 L1411.14 18.9825 L1403.69 18.9825 L1403.69 9.54393 Z" fill="#000000" fill-rule="evenodd" fill-opacity="1" /><path clip-path="url(#clip570)" d="M1444.32 32.4315 Q1438.32 32.4315 1434.84 37.1306 Q1431.36 41.7891 1431.36 49.9314 Q1431.36 58.0738 1434.8 62.7728 Q1438.28 67.4314 1444.32 67.4314 Q1450.27 67.4314 1453.76 62.7323 Q1457.24 58.0333 1457.24 49.9314 Q1457.24 41.8701 1453.76 37.1711 Q1450.27 32.4315 1444.32 32.4315 M1444.32 26.1121 Q1454.04 26.1121 1459.59 32.4315 Q1465.14 38.7509 1465.14 49.9314 Q1465.14 61.0714 1459.59 67.4314 Q1454.04 73.7508 1444.32 73.7508 Q1434.56 73.7508 1429.01 67.4314 Q1423.5 61.0714 1423.5 49.9314 Q1423.5 38.7509 1429.01 32.4315 Q1434.56 26.1121 1444.32 26.1121 Z" fill="#000000" fill-rule="evenodd" fill-opacity="1" /><path clip-path="url(#clip570)" d="M1515.21 45.1919 L1515.21 72.576 L1507.76 72.576 L1507.76 45.4349 Q1507.76 38.994 1505.25 35.7938 Q1502.73 32.5936 1497.71 32.5936 Q1491.67 32.5936 1488.19 36.4419 Q1484.71 40.2903 1484.71 46.9338 L1484.71 72.576 L1477.21 72.576 L1477.21 27.2059 L1484.71 27.2059 L1484.71 34.2544 Q1487.38 30.163 1490.99 28.1376 Q1494.63 26.1121 1499.37 26.1121 Q1507.19 26.1121 1511.2 30.9732 Q1515.21 35.7938 1515.21 45.1919 Z" fill="#000000" fill-rule="evenodd" fill-opacity="1" /><path clip-path="url(#clip570)" d="M1559 28.5427 L1559 35.5912 Q1555.84 33.9709 1552.44 33.1607 Q1549.04 32.3505 1545.39 32.3505 Q1539.84 32.3505 1537.04 34.0519 Q1534.29 35.7533 1534.29 39.156 Q1534.29 41.7486 1536.28 43.2475 Q1538.26 44.7058 1544.26 46.0426 L1546.81 46.6097 Q1554.75 48.3111 1558.07 51.4303 Q1561.43 54.509 1561.43 60.0587 Q1561.43 66.3781 1556.41 70.0644 Q1551.43 73.7508 1542.68 73.7508 Q1539.03 73.7508 1535.06 73.0216 Q1531.13 72.3329 1526.76 70.9151 L1526.76 63.2184 Q1530.89 65.3654 1534.9 66.4591 Q1538.91 67.5124 1542.84 67.5124 Q1548.1 67.5124 1550.94 65.73 Q1553.77 63.9071 1553.77 60.6258 Q1553.77 57.5877 1551.71 55.9673 Q1549.68 54.3469 1542.76 52.8481 L1540.16 52.2405 Q1533.24 50.7821 1530.16 47.7845 Q1527.08 44.7463 1527.08 39.4801 Q1527.08 33.0797 1531.62 29.5959 Q1536.15 26.1121 1544.5 26.1121 Q1548.63 26.1121 1552.28 26.7198 Q1555.92 27.3274 1559 28.5427 Z" fill="#000000" fill-rule="evenodd" fill-opacity="1" /><path clip-path="url(#clip570)" d="M1600 12.096 L1638.24 12.096 L1638.24 18.9825 L1608.18 18.9825 L1608.18 36.8875 L1636.98 36.8875 L1636.98 43.7741 L1608.18 43.7741 L1608.18 65.6895 L1638.97 65.6895 L1638.97 72.576 L1600 72.576 L1600 12.096 Z" fill="#000000" fill-rule="evenodd" fill-opacity="1" /><path clip-path="url(#clip570)" d="M1689.8 45.1919 L1689.8 72.576 L1682.35 72.576 L1682.35 45.4349 Q1682.35 38.994 1679.84 35.7938 Q1677.33 32.5936 1672.3 32.5936 Q1666.27 32.5936 1662.78 36.4419 Q1659.3 40.2903 1659.3 46.9338 L1659.3 72.576 L1651.81 72.576 L1651.81 27.2059 L1659.3 27.2059 L1659.3 34.2544 Q1661.97 30.163 1665.58 28.1376 Q1669.23 26.1121 1673.97 26.1121 Q1681.78 26.1121 1685.79 30.9732 Q1689.8 35.7938 1689.8 45.1919 Z" fill="#000000" fill-rule="evenodd" fill-opacity="1" /><path clip-path="url(#clip570)" d="M1733.59 28.5427 L1733.59 35.5912 Q1730.43 33.9709 1727.03 33.1607 Q1723.63 32.3505 1719.98 32.3505 Q1714.43 32.3505 1711.64 34.0519 Q1708.88 35.7533 1708.88 39.156 Q1708.88 41.7486 1710.87 43.2475 Q1712.85 44.7058 1718.85 46.0426 L1721.4 46.6097 Q1729.34 48.3111 1732.66 51.4303 Q1736.03 54.509 1736.03 60.0587 Q1736.03 66.3781 1731 70.0644 Q1726.02 73.7508 1717.27 73.7508 Q1713.62 73.7508 1709.65 73.0216 Q1705.72 72.3329 1701.35 70.9151 L1701.35 63.2184 Q1705.48 65.3654 1709.49 66.4591 Q1713.5 67.5124 1717.43 67.5124 Q1722.7 67.5124 1725.53 65.73 Q1728.37 63.9071 1728.37 60.6258 Q1728.37 57.5877 1726.3 55.9673 Q1724.28 54.3469 1717.35 52.8481 L1714.76 52.2405 Q1707.83 50.7821 1704.75 47.7845 Q1701.67 44.7463 1701.67 39.4801 Q1701.67 33.0797 1706.21 29.5959 Q1710.75 26.1121 1719.09 26.1121 Q1723.22 26.1121 1726.87 26.7198 Q1730.52 27.3274 1733.59 28.5427 Z" fill="#000000" fill-rule="evenodd" fill-opacity="1" /><path clip-path="url(#clip570)" d="M1786.7 48.0275 L1786.7 51.6733 L1752.43 51.6733 Q1752.92 59.3701 1757.05 63.421 Q1761.22 67.4314 1768.63 67.4314 Q1772.93 67.4314 1776.94 66.3781 Q1780.99 65.3249 1784.96 63.2184 L1784.96 70.267 Q1780.95 71.9684 1776.74 72.8596 Q1772.52 73.7508 1768.19 73.7508 Q1757.33 73.7508 1750.97 67.4314 Q1744.65 61.1119 1744.65 50.3365 Q1744.65 39.1965 1750.65 32.6746 Q1756.68 26.1121 1766.89 26.1121 Q1776.05 26.1121 1781.35 32.0264 Q1786.7 37.9003 1786.7 48.0275 M1779.25 45.84 Q1779.17 39.7232 1775.8 36.0774 Q1772.48 32.4315 1766.97 32.4315 Q1760.74 32.4315 1756.97 35.9558 Q1753.24 39.4801 1752.67 45.8805 L1779.25 45.84 Z" fill="#000000" fill-rule="evenodd" fill-opacity="1" /><path clip-path="url(#clip570)" d="M1834.26 35.9153 Q1837.05 30.8922 1840.94 28.5022 Q1844.83 26.1121 1850.1 26.1121 Q1857.19 26.1121 1861.04 31.0947 Q1864.88 36.0368 1864.88 45.1919 L1864.88 72.576 L1857.39 72.576 L1857.39 45.4349 Q1857.39 38.913 1855.08 35.7533 Q1852.77 32.5936 1848.03 32.5936 Q1842.24 32.5936 1838.88 36.4419 Q1835.52 40.2903 1835.52 46.9338 L1835.52 72.576 L1828.02 72.576 L1828.02 45.4349 Q1828.02 38.8725 1825.71 35.7533 Q1823.4 32.5936 1818.58 32.5936 Q1812.87 32.5936 1809.51 36.4824 Q1806.15 40.3308 1806.15 46.9338 L1806.15 72.576 L1798.65 72.576 L1798.65 27.2059 L1806.15 27.2059 L1806.15 34.2544 Q1808.7 30.082 1812.26 28.0971 Q1815.83 26.1121 1820.73 26.1121 Q1825.67 26.1121 1829.11 28.6237 Q1832.6 31.1352 1834.26 35.9153 Z" fill="#000000" fill-rule="evenodd" fill-opacity="1" /><path clip-path="url(#clip570)" d="M1912.32 49.9314 Q1912.32 41.7081 1908.92 37.0496 Q1905.56 32.3505 1899.64 32.3505 Q1893.73 32.3505 1890.32 37.0496 Q1886.96 41.7081 1886.96 49.9314 Q1886.96 58.1548 1890.32 62.8538 Q1893.73 67.5124 1899.64 67.5124 Q1905.56 67.5124 1908.92 62.8538 Q1912.32 58.1548 1912.32 49.9314 M1886.96 34.0924 Q1889.31 30.0415 1892.88 28.0971 Q1896.48 26.1121 1901.46 26.1121 Q1909.73 26.1121 1914.87 32.6746 Q1920.06 39.2371 1920.06 49.9314 Q1920.06 60.6258 1914.87 67.1883 Q1909.73 73.7508 1901.46 73.7508 Q1896.48 73.7508 1892.88 71.8063 Q1889.31 69.8214 1886.96 65.7705 L1886.96 72.576 L1879.47 72.576 L1879.47 9.54393 L1886.96 9.54393 L1886.96 34.0924 Z" fill="#000000" fill-rule="evenodd" fill-opacity="1" /><path clip-path="url(#clip570)" d="M1932.41 9.54393 L1939.87 9.54393 L1939.87 72.576 L1932.41 72.576 L1932.41 9.54393 Z" fill="#000000" fill-rule="evenodd" fill-opacity="1" /><path clip-path="url(#clip570)" d="M1994.27 48.0275 L1994.27 51.6733 L1960 51.6733 Q1960.49 59.3701 1964.62 63.421 Q1968.79 67.4314 1976.2 67.4314 Q1980.5 67.4314 1984.51 66.3781 Q1988.56 65.3249 1992.53 63.2184 L1992.53 70.267 Q1988.52 71.9684 1984.31 72.8596 Q1980.09 73.7508 1975.76 73.7508 Q1964.9 73.7508 1958.54 67.4314 Q1952.22 61.1119 1952.22 50.3365 Q1952.22 39.1965 1958.22 32.6746 Q1964.25 26.1121 1974.46 26.1121 Q1983.62 26.1121 1988.92 32.0264 Q1994.27 37.9003 1994.27 48.0275 M1986.82 45.84 Q1986.74 39.7232 1983.37 36.0774 Q1980.05 32.4315 1974.54 32.4315 Q1968.3 32.4315 1964.54 35.9558 Q1960.81 39.4801 1960.24 45.8805 L1986.82 45.84 Z" fill="#000000" fill-rule="evenodd" fill-opacity="1" /><path clip-path="url(#clip573)" d="
M338.375 1386.23 L338.428 1386.23 L338.44 1386.23 L338.454 1386.23 L338.47 1386.23 L338.488 1386.23 L338.508 1386.23 L338.531 1386.23 L338.557 1386.23 L338.585 1386.23 
  L338.618 1386.23 L338.654 1386.23 L338.695 1386.23 L338.741 1386.23 L338.792 1386.23 L338.851 1386.23 L338.916 1386.23 L338.99 1386.23 L339.072 1386.23 L339.166 1386.23 
  L339.27 1386.23 L339.388 1386.23 L339.521 1386.23 L339.67 1386.24 L339.838 1386.24 L340.027 1386.24 L340.236 1386.24 L340.464 1386.24 L340.71 1386.24 L340.975 1386.24 
  L341.258 1386.25 L341.555 1386.25 L341.866 1386.25 L342.189 1386.25 L342.523 1386.25 L342.869 1386.26 L343.225 1386.26 L343.595 1386.26 L343.975 1386.26 L344.365 1386.27 
  L344.764 1386.27 L345.173 1386.27 L345.591 1386.28 L346.018 1386.28 L346.456 1386.28 L346.899 1386.28 L347.349 1386.29 L347.805 1386.29 L348.266 1386.29 L348.734 1386.29 
  L349.204 1386.3 L349.68 1386.3 L350.159 1386.3 L350.639 1386.3 L351.123 1386.31 L351.612 1386.31 L352.108 1386.31 L352.608 1386.31 L353.109 1386.32 L353.613 1386.32 
  L354.12 1386.32 L354.626 1386.32 L355.14 1386.33 L355.659 1386.33 L356.181 1386.33 L356.709 1386.33 L357.244 1386.33 L357.781 1386.34 L358.317 1386.34 L358.855 1386.34 
  L359.396 1386.34 L359.939 1386.34 L360.481 1386.34 L361.026 1386.35 L361.566 1386.35 L362.11 1386.35 L362.657 1386.35 L363.211 1386.35 L363.773 1386.36 L364.343 1386.36 
  L364.919 1386.36 L365.506 1386.36 L366.102 1386.36 L366.706 1386.36 L367.316 1386.37 L367.94 1386.37 L368.576 1386.37 L369.215 1386.37 L369.859 1386.37 L370.503 1386.37 
  L371.155 1386.37 L371.811 1386.38 L372.476 1386.38 L373.145 1386.38 L373.828 1386.38 L374.522 1386.38 L375.224 1386.38 L375.938 1386.38 L376.666 1386.38 L377.406 1386.39 
  L378.16 1386.39 L378.914 1386.39 L379.676 1386.39 L380.446 1386.39 L381.223 1386.39 L381.997 1386.39 L382.778 1386.39 L383.559 1386.39 L384.352 1386.39 L385.163 1386.39 
  L385.982 1386.39 L386.814 1386.39 L387.652 1386.39 L388.506 1386.4 L389.376 1386.4 L390.258 1386.4 L391.14 1386.4 L392.033 1386.39 L392.925 1386.39 L393.831 1386.39 
  L394.756 1386.39 L395.696 1386.39 L396.636 1386.39 L397.601 1386.39 L398.571 1386.39 L399.545 1386.39 L400.522 1386.39 L401.516 1386.39 L402.518 1386.39 L403.554 1386.39 
  L404.608 1386.39 L405.659 1386.39 L406.726 1386.39 L407.805 1386.39 L408.916 1386.39 L410.051 1386.39 L411.192 1386.39 L412.359 1386.38 L413.534 1386.38 L414.711 1386.38 
  L415.923 1386.38 L417.203 1386.38 L418.541 1386.38 L419.939 1386.38 L421.375 1386.37 L422.776 1386.37 L424.222 1386.36 L425.668 1386.36 L427.14 1386.35 L428.64 1386.35 
  L430.149 1386.35 L431.706 1386.34 L433.297 1386.34 L434.976 1386.33 L436.731 1386.32 L438.695 1386.31 L440.905 1386.31 L443.391 1386.3 L446.187 1386.3 L449.333 1386.29 
  L452.871 1386.28 L456.851 1386.27 L461.328 1386.25 L465.127 1386.24 L469.4 1386.22 L474.208 1386.2 L479.616 1386.17 L485.701 1386.15 L492.546 1386.11 L498.125 1386.06 
  L502.747 1386.03 L507.625 1385.98 L512.988 1385.94 L519.021 1385.89 L525.809 1385.82 L532.833 1385.76 L540.735 1385.68 L548.293 1385.6 L556.795 1385.52 L566.361 1385.42 
  L577.122 1385.29 L582.612 1385.22 L588.79 1385.12 L595.739 1385.04 L603.557 1384.93 L612.352 1384.79 L617.153 1384.71 L622.555 1384.57 L628.631 1384.42 L635.467 1384.26 
  L643.054 1384.11 L651.06 1383.89 L660.066 1383.63 L668.862 1383.47 L678.14 1383.19 L688.577 1382.82 L696.878 1382.48 L704.576 1382.16 L713.235 1381.77 L722.977 1381.33 
  L733.937 1380.7 L741.449 1380.22 L749.9 1379.72 L758.611 1379.13 L768.412 1378.34 L779.437 1377.34 L787.345 1376.58 L796.242 1375.8 L806.25 1374.97 L815.588 1374.16 
  L825.067 1373.23 L833.817 1372.31 L842.419 1371.37 L849.182 1370.57 L856.058 1369.32 L863.794 1368 L872.226 1366.45 L879.778 1365.05 L888.274 1363.7 L897.831 1361.85 
  L907.917 1359.28 L919.263 1356.03 L927.63 1353.52 L934.617 1351.27 L941.874 1349.22 L950.038 1346.96 L959.223 1344.79 L968.989 1342.23 L977.178 1339.81 L986.392 1336.07 
  L993.335 1332.96 L1000.57 1329.5 L1006.72 1326.38 L1011.72 1323.13 L1017.34 1319.01 L1022.02 1315.43 L1026.82 1311.69 L1032 1307.35 L1037.84 1302.49 L1044.4 1298.1 
  L1051.25 1293.25 L1058.6 1287.65 L1065.16 1282.03 L1071.94 1276.87 L1079 1271.41 L1085.89 1266.01 L1092.5 1260.76 L1098.84 1255.63 L1104.12 1251.27 L1109.35 1246.89 
  L1114.53 1242.47 L1119.91 1236.88 L1125.47 1229.59 L1130.95 1221.96 L1136.46 1214.19 L1141.85 1206.19 L1147.15 1196.62 L1152.32 1187.31 L1157.48 1178.33 L1162.51 1169.66 
  L1167.44 1161 L1172.27 1151.55 L1176.88 1142.17 L1181.36 1132.97 L1185.73 1123.73 L1189.96 1114.49 L1194.06 1104.45 L1198.04 1094.3 L1202 1083.61 L1205.95 1072.83 
  L1209.8 1066.74 L1213.62 1060.74 L1217.39 1054.6 L1221.08 1048.69 L1224.74 1042.39 L1228.35 1034.99 L1231.85 1026.73 L1235.35 1018.74 L1238.82 1010.34 L1242.2 1001.82 
  L1245.56 992.719 L1248.89 983.247 L1252.2 974.027 L1255.46 964.867 L1258.69 955.731 L1261.92 946.531 L1265.12 937.374 L1268.3 927.71 L1271.46 917.903 L1274.59 909.528 
  L1277.67 901.896 L1280.72 893.081 L1283.72 883.696 L1286.65 874.197 L1289.52 863.409 L1292.4 848.911 L1295.2 839.458 L1297.92 830.457 L1300.53 821.326 L1303.08 814.598 
  L1305.56 807.581 L1307.96 800.962 L1310.28 794.87 L1312.57 789.585 L1314.83 784.556 L1317.09 779.884 L1319.35 774.721 L1321.61 769.078 L1323.85 762.609 L1326.11 759.014 
  L1328.41 755.997 L1330.75 749.404 L1333.07 739.054 L1335.39 736.735 L1337.75 734.797 L1340.08 732.829 L1342.43 731.223 L1344.79 729.829 L1347.15 728.605 L1349.56 727.476 
  L1351.99 726.461 L1354.44 725.326 L1356.92 722.967 L1359.43 721.197 L1361.96 719.253 L1364.51 716.894 L1367.07 714.371 L1369.61 711.808 L1372.17 708.85 L1374.74 703.297 
  L1377.28 697.36 L1379.77 691.654 L1382.24 685.872 L1384.7 679.403 L1387.22 668.834 L1389.71 661.484 L1392.26 659.927 L1394.82 654.304 L1397.41 650.736 L1400.01 650.5 
  L1402.63 649.629 L1405.3 652.317 L1407.98 652.014 L1410.67 651.403 L1413.38 652.04 L1416.1 652.257 L1418.84 650.299 L1421.62 649.482 L1424.44 653.595 L1427.28 657.998 
  L1430.15 662.292 L1433.05 657.435 L1435.96 666.221 L1438.92 674.764 L1441.9 680.068 L1444.89 688.277 L1447.92 695.324 L1451 698.744 L1454.08 704.905 L1457.21 711.169 
  L1460.35 716.794 L1463.53 722.612 L1466.68 727.758 L1469.92 732.316 L1473.19 736.818 L1476.47 740.679 L1479.68 744.435 L1482.96 748.081 L1486.36 754.504 L1489.79 761.877 
  L1493.28 770.887 L1496.8 783.689 L1500.35 795.802 L1503.91 805.315 L1507.5 811.108 L1511.15 823.015 L1514.84 834.598 L1518.58 845.986 L1522.46 857.644 L1526.38 868.281 
  L1530.29 877.131 L1534.2 886.157 L1537.95 894.853 L1541.73 903.652 L1545.83 912.631 L1550.02 923.557 L1554.33 938.082 L1558.79 952.422 L1563.36 966.554 L1568.04 979.58 
  L1572.77 991.078 L1577.68 1002.67 L1582.75 1014.33 L1587.64 1024.65 L1592.78 1034.76 L1597.93 1044.48 L1603.46 1055.39 L1608.77 1065.79 L1613.6 1074.89 L1618.48 1083.84 
  L1623.11 1092.43 L1627.58 1100.64 L1631.65 1107.93 L1635.72 1115.27 L1639.79 1122.49 L1643.86 1129.55 L1648.31 1137.06 L1652.77 1144.41 L1657.2 1151.37 L1661.72 1158.43 
  L1666.53 1165.97 L1671.34 1173.41 L1675.99 1180.4 L1680.54 1187.16 L1685.67 1194.37 L1691.44 1202.34 L1697.1 1209.9 L1703.27 1217.94 L1709.71 1226.05 L1716.95 1234.65 
  L1723.18 1241.42 L1730.2 1248.45 L1736.51 1254.43 L1743.62 1260.47 L1749.43 1265.58 L1755.82 1270.81 L1761.54 1275.15 L1766.54 1278.7 L1771.19 1282.24 L1775.85 1285.46 
  L1781.01 1288.94 L1786.82 1292.75 L1793.35 1296.92 L1800.71 1301.52 L1808.98 1306.44 L1817.06 1311.1 L1825.76 1315.9 L1832.6 1319.4 L1840.3 1323.16 L1847.78 1326.64 
  L1854.54 1329.66 L1861.4 1332.6 L1869.11 1335.78 L1877.79 1339.13 L1887.42 1342.58 L1897.2 1346.13 L1906.52 1349.15 L1917 1351.73 L1926.64 1353.9 L1937.48 1356.11 
  L1944.58 1357.58 L1952.35 1359.14 L1960.75 1360.84 L1967.33 1362 L1971.51 1362.69 L1976.22 1363.46 L1980.72 1364.18 L1985.23 1364.89 L1990.11 1365.66 L1995.6 1366.51 
  L2000.38 1367.22 L2004.59 1367.83 L2008.82 1368.41 L2012.78 1368.94 L2016.69 1369.45 L2020.43 1369.92 L2024.13 1370.38 L2027.87 1370.84 L2031.8 1371.31 L2036.07 1371.83 
  L2040.03 1372.29 L2044.47 1372.83 L2049.06 1373.39 L2053.3 1373.89 L2057.5 1374.36 L2061.53 1374.74 L2065.53 1375.07 L2069.42 1375.39 L2073.79 1375.74 L2078.02 1376.06 
  L2082.32 1376.37 L2086.81 1376.7 L2091.13 1377.01 L2095.08 1377.29 L2098.86 1377.55 L2102.42 1377.8 L2105.94 1378.04 L2109.23 1378.26 L2112.27 1378.43 L2115.36 1378.59 
  L2118.5 1378.74 L2121.65 1378.9 L2124.98 1379.06 L2128.35 1379.22 L2131.78 1379.39 L2135.59 1379.56 L2139.29 1379.73 L2143 1379.91 L2147.18 1380.11 L2151.89 1380.33 
  L2157.08 1380.55 L2162.91 1380.81 L2169.27 1381.09 L2176.42 1381.39 L2183.16 1381.65 L2189.39 1381.89 L2196.39 1382.15 L2202.98 1382.39 L2208.61 1382.57 L2214.95 1382.78 
  L2221.61 1382.98 L2229.1 1383.19 L2237.53 1383.42 L2244.35 1383.61 L2252.01 1383.81 L2259.03 1383.99 L2265.56 1384.14 L2270.98 1384.27 L2276.46 1384.38 L2281.72 1384.49 
  L2287.54 1384.6 L2294.08 1384.72 L2294.08 1366.05 L2287.54 1365.23 L2281.72 1364.44 L2276.46 1363.68 L2270.98 1362.84 L2265.56 1361.97 L2259.03 1360.83 L2252.01 1359.5 
  L2244.35 1358.11 L2237.53 1356.81 L2229.1 1355.21 L2221.61 1353.82 L2214.95 1352.51 L2208.61 1351.23 L2202.98 1350.02 L2196.39 1348.53 L2189.39 1346.84 L2183.16 1345.27 
  L2176.42 1343.54 L2169.27 1341.7 L2162.91 1340 L2157.08 1338.37 L2151.89 1336.88 L2147.18 1335.49 L2143 1334.16 L2139.29 1332.94 L2135.59 1331.6 L2131.78 1330.15 
  L2128.35 1328.75 L2124.98 1327.35 L2121.65 1325.95 L2118.5 1324.63 L2115.36 1323.28 L2112.27 1321.95 L2109.23 1320.64 L2105.94 1319.2 L2102.42 1317.66 L2098.86 1316.03 
  L2095.08 1314.28 L2091.13 1312.51 L2086.81 1310.55 L2082.32 1308.47 L2078.02 1306.46 L2073.79 1304.36 L2069.42 1302.17 L2065.53 1300.3 L2061.53 1298.38 L2057.5 1296.49 
  L2053.3 1294.47 L2049.06 1292.5 L2044.47 1290.71 L2040.03 1289.47 L2036.07 1288.44 L2031.8 1287.22 L2027.87 1286 L2024.13 1284.78 L2020.43 1283.38 L2016.69 1281.98 
  L2012.78 1280.5 L2008.82 1278.02 L2004.59 1274.78 L2000.38 1271.55 L1995.6 1267.93 L1990.11 1263.75 L1985.23 1259.92 L1980.72 1256.39 L1976.22 1253.05 L1971.51 1249.34 
  L1967.33 1246.09 L1960.75 1241.07 L1952.35 1234.97 L1944.58 1230.98 L1937.48 1227.51 L1926.64 1219.88 L1917 1207.98 L1906.52 1194.41 L1897.2 1183.28 L1887.42 1172.83 
  L1877.79 1162.44 L1869.11 1152.62 L1861.4 1143.74 L1854.54 1137.64 L1847.78 1132.07 L1840.3 1125.72 L1832.6 1119.35 L1825.76 1112.78 L1817.06 1102.53 L1808.98 1091.84 
  L1800.71 1074.64 L1793.35 1059.03 L1786.82 1045.02 L1781.01 1032.49 L1775.85 1021.22 L1771.19 1009.54 L1766.54 997.84 L1761.54 984.953 L1755.82 970.194 L1749.43 952.538 
  L1743.62 935.281 L1736.51 918.511 L1730.2 903.862 L1723.18 886.045 L1716.95 868.704 L1709.71 848.166 L1703.27 829.933 L1697.1 811.64 L1691.44 793.337 L1685.67 775.706 
  L1680.54 759.427 L1675.99 747.125 L1671.34 735.216 L1666.53 722.316 L1661.72 709.577 L1657.2 697.746 L1652.77 685.964 L1648.31 674.016 L1643.86 656.585 L1639.79 640.439 
  L1635.72 625.035 L1631.65 609.275 L1627.58 593.054 L1623.11 574.539 L1618.48 554.767 L1613.6 535.572 L1608.77 528.552 L1603.46 522.031 L1597.93 515.464 L1592.78 508.66 
  L1587.64 503.317 L1582.75 486.9 L1577.68 469.067 L1572.77 450.621 L1568.04 434.642 L1563.36 418.97 L1558.79 402.487 L1554.33 391.168 L1550.02 384.939 L1545.83 375.998 
  L1541.73 369.971 L1537.95 364.61 L1534.2 357.887 L1530.29 350.775 L1526.38 345.034 L1522.46 333.38 L1518.58 315.141 L1514.84 307.145 L1511.15 303.593 L1507.5 300.256 
  L1503.91 298.61 L1500.35 297.512 L1496.8 297.089 L1493.28 297.724 L1489.79 299.723 L1486.36 300.8 L1482.96 303.38 L1479.68 306.827 L1476.47 307.391 L1473.19 300.274 
  L1469.92 293.572 L1466.68 292.878 L1463.53 284.712 L1460.35 277.023 L1457.21 273.184 L1454.08 263.238 L1451 255.109 L1447.92 248.467 L1444.89 242.58 L1441.9 237.382 
  L1438.92 232.384 L1435.96 227.287 L1433.05 220.254 L1430.15 215.684 L1427.28 212.638 L1424.44 209.767 L1421.62 207.546 L1418.84 205.967 L1416.1 205.145 L1413.38 205.142 
  L1410.67 194.347 L1407.98 184.075 L1405.3 174.054 L1402.63 168.636 L1400.01 164.111 L1397.41 160.256 L1394.82 162.457 L1392.26 172.61 L1389.71 183.239 L1387.22 195.145 
  L1384.7 195.945 L1382.24 198.409 L1379.77 199.622 L1377.28 200.127 L1374.74 198.802 L1372.17 196.362 L1369.61 198.624 L1367.07 201.518 L1364.51 206.534 L1361.96 212.941 
  L1359.43 219.21 L1356.92 220.829 L1354.44 222.435 L1351.99 223.648 L1349.56 224.952 L1347.15 226.235 L1344.79 226.732 L1342.43 229.114 L1340.08 243.104 L1337.75 255.966 
  L1335.39 260.018 L1333.07 257.514 L1330.75 255.224 L1328.41 253.649 L1326.11 253.194 L1323.85 253.262 L1321.61 260.497 L1319.35 270.998 L1317.09 274.809 L1314.83 268.202 
  L1312.57 261.211 L1310.28 255.981 L1307.96 258.642 L1305.56 261.692 L1303.08 267.825 L1300.53 265.697 L1297.92 264.579 L1295.2 263.1 L1292.4 262.344 L1289.52 262.732 
  L1286.65 265.284 L1283.72 272.883 L1280.72 281.9 L1277.67 290.604 L1274.59 292.721 L1271.46 295.71 L1268.3 298.631 L1265.12 302.762 L1261.92 308.189 L1258.69 314.222 
  L1255.46 320.78 L1252.2 327.413 L1248.89 334.504 L1245.56 349.755 L1242.2 365.308 L1238.82 372.981 L1235.35 375.441 L1231.85 379.565 L1228.35 382.862 L1224.74 389.93 
  L1221.08 405.47 L1217.39 418.855 L1213.62 430.258 L1209.8 439.69 L1205.95 450.339 L1202 463.207 L1198.04 476.498 L1194.06 489.943 L1189.96 502.993 L1185.73 515.452 
  L1181.36 528.214 L1176.88 541.88 L1172.27 553.626 L1167.44 565.925 L1162.51 585.501 L1157.48 599.347 L1152.32 613.608 L1147.15 631.397 L1141.85 650.834 L1136.46 672.346 
  L1130.95 692.702 L1125.47 714.017 L1119.91 735.953 L1114.53 759.473 L1109.35 785.532 L1104.12 812.677 L1098.84 841.766 L1092.5 877.699 L1085.89 906.323 L1079 925.651 
  L1071.94 943.943 L1065.16 963.176 L1058.6 980.505 L1051.25 999.545 L1044.4 1016.66 L1037.84 1032.59 L1032 1050.62 L1026.82 1066.96 L1022.02 1081.19 L1017.34 1094.25 
  L1011.72 1109.33 L1006.72 1122.84 L1000.57 1139.27 L993.335 1157.99 L986.392 1175.6 L977.178 1196.48 L968.989 1208.9 L959.223 1221.32 L950.038 1234.36 L941.874 1243.88 
  L934.617 1252.52 L927.63 1263.49 L919.263 1274.25 L907.917 1288.08 L897.831 1299.47 L888.274 1304.82 L879.778 1308.67 L872.226 1311.69 L863.794 1315.07 L856.058 1318.4 
  L849.182 1321.6 L842.419 1325.55 L833.817 1330.43 L825.067 1334.71 L815.588 1338.99 L806.25 1343.46 L796.242 1348.29 L787.345 1352.06 L779.437 1355.04 L768.412 1359.14 
  L758.611 1362.39 L749.9 1364.68 L741.449 1366.7 L733.937 1368.55 L722.977 1370.96 L713.235 1372.71 L704.576 1373.78 L696.878 1374.63 L688.577 1375.52 L678.14 1376.63 
  L668.862 1377.54 L660.066 1378.36 L651.06 1379.17 L643.054 1379.76 L635.467 1380.29 L628.631 1380.75 L622.555 1381.16 L617.153 1381.47 L612.352 1381.73 L603.557 1382.21 
  L595.739 1382.67 L588.79 1383.04 L582.612 1383.32 L577.122 1383.52 L566.361 1383.84 L556.795 1384.17 L548.293 1384.35 L540.735 1384.54 L532.833 1384.74 L525.809 1384.91 
  L519.021 1385.05 L512.988 1385.18 L507.625 1385.27 L502.747 1385.35 L498.125 1385.42 L492.546 1385.51 L485.701 1385.61 L479.616 1385.69 L474.208 1385.76 L469.4 1385.81 
  L465.127 1385.86 L461.328 1385.89 L456.851 1385.94 L452.871 1385.98 L449.333 1386.01 L446.187 1386.04 L443.391 1386.06 L440.905 1386.07 L438.695 1386.09 L436.731 1386.1 
  L434.976 1386.11 L433.297 1386.11 L431.706 1386.12 L430.149 1386.13 L428.64 1386.13 L427.14 1386.14 L425.668 1386.15 L424.222 1386.15 L422.776 1386.16 L421.375 1386.17 
  L419.939 1386.18 L418.541 1386.19 L417.203 1386.2 L415.923 1386.2 L414.711 1386.21 L413.534 1386.21 L412.359 1386.22 L411.192 1386.22 L410.051 1386.23 L408.916 1386.23 
  L407.805 1386.24 L406.726 1386.24 L405.659 1386.25 L404.608 1386.25 L403.554 1386.26 L402.518 1386.26 L401.516 1386.26 L400.522 1386.27 L399.545 1386.27 L398.571 1386.28 
  L397.601 1386.28 L396.636 1386.28 L395.696 1386.29 L394.756 1386.29 L393.831 1386.29 L392.925 1386.29 L392.033 1386.3 L391.14 1386.3 L390.258 1386.3 L389.376 1386.3 
  L388.506 1386.31 L387.652 1386.31 L386.814 1386.31 L385.982 1386.31 L385.163 1386.31 L384.352 1386.31 L383.559 1386.32 L382.778 1386.32 L381.997 1386.32 L381.223 1386.32 
  L380.446 1386.32 L379.676 1386.32 L378.914 1386.32 L378.16 1386.32 L377.406 1386.32 L376.666 1386.32 L375.938 1386.32 L375.224 1386.32 L374.522 1386.32 L373.828 1386.32 
  L373.145 1386.32 L372.476 1386.32 L371.811 1386.32 L371.155 1386.32 L370.503 1386.32 L369.859 1386.32 L369.215 1386.32 L368.576 1386.32 L367.94 1386.32 L367.316 1386.32 
  L366.706 1386.32 L366.102 1386.32 L365.506 1386.32 L364.919 1386.32 L364.343 1386.32 L363.773 1386.32 L363.211 1386.32 L362.657 1386.32 L362.11 1386.32 L361.566 1386.32 
  L361.026 1386.31 L360.481 1386.31 L359.939 1386.31 L359.396 1386.31 L358.855 1386.31 L358.317 1386.31 L357.781 1386.31 L357.244 1386.31 L356.709 1386.31 L356.181 1386.31 
  L355.659 1386.3 L355.14 1386.3 L354.626 1386.3 L354.12 1386.3 L353.613 1386.3 L353.109 1386.3 L352.608 1386.3 L352.108 1386.29 L351.612 1386.29 L351.123 1386.29 
  L350.639 1386.29 L350.159 1386.29 L349.68 1386.29 L349.204 1386.28 L348.734 1386.28 L348.266 1386.28 L347.805 1386.28 L347.349 1386.28 L346.899 1386.27 L346.456 1386.27 
  L346.018 1386.27 L345.591 1386.27 L345.173 1386.27 L344.764 1386.26 L344.365 1386.26 L343.975 1386.26 L343.595 1386.26 L343.225 1386.26 L342.869 1386.25 L342.523 1386.25 
  L342.189 1386.25 L341.866 1386.25 L341.555 1386.25 L341.258 1386.24 L340.975 1386.24 L340.71 1386.24 L340.464 1386.24 L340.236 1386.24 L340.027 1386.24 L339.838 1386.24 
  L339.67 1386.23 L339.521 1386.23 L339.388 1386.23 L339.27 1386.23 L339.166 1386.23 L339.072 1386.23 L338.99 1386.23 L338.916 1386.23 L338.851 1386.23 L338.792 1386.23 
  L338.741 1386.23 L338.695 1386.23 L338.654 1386.23 L338.618 1386.23 L338.585 1386.23 L338.557 1386.23 L338.531 1386.23 L338.508 1386.23 L338.488 1386.23 L338.47 1386.23 
  L338.454 1386.23 L338.44 1386.23 L338.428 1386.23 L338.375 1386.23  Z
  " fill="#009af9" fill-rule="evenodd" fill-opacity="0.2"/>
<polyline clip-path="url(#clip573)" style="stroke:#009af9; stroke-linecap:butt; stroke-linejoin:round; stroke-width:12; stroke-opacity:1; fill:none" points="
  338.375,1386.23 338.428,1386.23 338.44,1386.23 338.454,1386.23 338.47,1386.23 338.488,1386.23 338.508,1386.23 338.531,1386.23 338.557,1386.23 338.585,1386.23 
  338.618,1386.23 338.654,1386.23 338.695,1386.23 338.741,1386.23 338.792,1386.23 338.851,1386.23 338.916,1386.23 338.99,1386.23 339.072,1386.23 339.166,1386.23 
  339.27,1386.23 339.388,1386.23 339.521,1386.23 339.67,1386.23 339.838,1386.24 340.027,1386.24 340.236,1386.24 340.464,1386.24 340.71,1386.24 340.975,1386.24 
  341.258,1386.25 341.555,1386.25 341.866,1386.25 342.189,1386.25 342.523,1386.25 342.869,1386.26 343.225,1386.26 343.595,1386.26 343.975,1386.26 344.365,1386.26 
  344.764,1386.27 345.173,1386.27 345.591,1386.27 346.018,1386.27 346.456,1386.28 346.899,1386.28 347.349,1386.28 347.805,1386.28 348.266,1386.29 348.734,1386.29 
  349.204,1386.29 349.68,1386.29 350.159,1386.29 350.639,1386.3 351.123,1386.3 351.612,1386.3 352.108,1386.3 352.608,1386.3 353.109,1386.31 353.613,1386.31 
  354.12,1386.31 354.626,1386.31 355.14,1386.31 355.659,1386.32 356.181,1386.32 356.709,1386.32 357.244,1386.32 357.781,1386.32 358.317,1386.32 358.855,1386.33 
  359.396,1386.33 359.939,1386.33 360.481,1386.33 361.026,1386.33 361.566,1386.33 362.11,1386.34 362.657,1386.34 363.211,1386.34 363.773,1386.34 364.343,1386.34 
  364.919,1386.34 365.506,1386.34 366.102,1386.34 366.706,1386.34 367.316,1386.35 367.94,1386.35 368.576,1386.35 369.215,1386.35 369.859,1386.35 370.503,1386.35 
  371.155,1386.35 371.811,1386.35 372.476,1386.35 373.145,1386.35 373.828,1386.35 374.522,1386.36 375.224,1386.36 375.938,1386.36 376.666,1386.36 377.406,1386.36 
  378.16,1386.36 378.914,1386.36 379.676,1386.36 380.446,1386.36 381.223,1386.36 381.997,1386.36 382.778,1386.36 383.559,1386.36 384.352,1386.36 385.163,1386.36 
  385.982,1386.36 386.814,1386.36 387.652,1386.36 388.506,1386.36 389.376,1386.36 390.258,1386.35 391.14,1386.35 392.033,1386.35 392.925,1386.35 393.831,1386.35 
  394.756,1386.35 395.696,1386.35 396.636,1386.35 397.601,1386.35 398.571,1386.34 399.545,1386.34 400.522,1386.34 401.516,1386.34 402.518,1386.34 403.554,1386.33 
  404.608,1386.33 405.659,1386.33 406.726,1386.33 407.805,1386.32 408.916,1386.32 410.051,1386.32 411.192,1386.32 412.359,1386.31 413.534,1386.31 414.711,1386.3 
  415.923,1386.3 417.203,1386.3 418.541,1386.29 419.939,1386.29 421.375,1386.28 422.776,1386.28 424.222,1386.27 425.668,1386.27 427.14,1386.26 428.64,1386.25 
  430.149,1386.25 431.706,1386.24 433.297,1386.23 434.976,1386.23 436.731,1386.22 438.695,1386.21 440.905,1386.2 443.391,1386.18 446.187,1386.17 449.333,1386.15 
  452.871,1386.13 456.851,1386.1 461.328,1386.07 465.127,1386.04 469.4,1386.01 474.208,1385.97 479.616,1385.92 485.701,1385.87 492.546,1385.8 498.125,1385.74 
  502.747,1385.69 507.625,1385.63 512.988,1385.56 519.021,1385.48 525.809,1385.38 532.833,1385.28 540.735,1385.15 548.293,1385.02 556.795,1384.86 566.361,1384.67 
  577.122,1384.43 582.612,1384.29 588.79,1384.13 595.739,1383.94 603.557,1383.71 612.352,1383.43 617.153,1383.26 622.555,1383.07 628.631,1382.85 635.467,1382.58 
  643.054,1382.25 651.06,1381.88 660.066,1381.42 668.862,1380.93 678.14,1380.37 688.577,1379.67 696.878,1379.06 704.576,1378.45 713.235,1377.71 722.977,1376.79 
  733.937,1375.64 741.449,1374.8 749.9,1373.78 758.611,1372.64 768.412,1371.24 779.437,1369.51 787.345,1368.15 796.242,1366.52 806.25,1364.51 815.588,1362.46 
  825.067,1360.19 833.817,1357.91 842.419,1355.47 849.182,1353.4 856.058,1351.15 863.794,1348.45 872.226,1345.35 879.778,1342.4 888.274,1338.8 897.831,1334.38 
  907.917,1329.26 919.263,1322.92 927.63,1317.85 934.617,1313.3 941.874,1308.31 950.038,1302.34 959.223,1295.17 968.989,1286.92 977.178,1279.39 986.392,1270.23 
  993.335,1262.88 1000.57,1254.7 1006.72,1247.3 1011.72,1241.07 1017.34,1233.8 1022.02,1227.6 1026.82,1221.06 1032,1213.75 1037.84,1205.22 1044.4,1195.26 
  1051.25,1184.26 1058.6,1171.72 1065.16,1159.96 1071.94,1147.3 1079,1133.45 1085.89,1119.34 1092.5,1105.29 1098.84,1091.17 1104.12,1079.05 1109.35,1066.75 
  1114.53,1054.28 1119.91,1041.04 1125.47,1027.02 1130.95,1012.81 1136.46,998.124 1141.85,983.149 1147.15,968.209 1152.32,953.316 1157.48,938.391 1162.51,923.806 
  1167.44,909.473 1172.27,895.156 1176.88,881.42 1181.36,868.034 1185.73,855.024 1189.96,842.381 1194.06,830.021 1198.04,817.917 1202,805.853 1205.95,793.787 
  1209.8,782.109 1213.62,770.631 1217.39,759.418 1221.08,748.518 1224.74,737.702 1228.35,727.048 1231.85,716.695 1235.35,706.514 1238.82,696.428 1242.2,686.661 
  1245.56,677.139 1248.89,667.727 1252.2,658.484 1255.46,649.488 1258.69,640.755 1261.92,632.291 1265.12,624.086 1268.3,616.058 1271.46,608.187 1274.59,600.413 
  1277.67,592.8 1280.72,585.258 1283.72,577.879 1286.65,570.801 1289.52,563.991 1292.4,557.289 1295.2,551.074 1297.92,545.209 1300.53,539.73 1303.08,534.605 
  1305.56,529.687 1307.96,525.026 1310.28,520.588 1312.57,516.307 1314.83,512.23 1317.09,508.286 1319.35,504.333 1321.61,500.411 1323.85,496.544 1326.11,492.68 
  1328.41,488.824 1330.75,484.998 1333.07,481.33 1335.39,477.842 1337.75,474.44 1340.08,471.195 1342.43,468.086 1344.79,465.149 1347.15,462.354 1349.56,459.61 
  1351.99,457.012 1354.44,454.468 1356.92,452.038 1359.43,449.756 1361.96,447.579 1364.51,445.479 1367.07,443.396 1369.61,441.452 1372.17,439.573 1374.74,437.817 
  1377.28,436.266 1379.77,434.924 1382.24,433.766 1384.7,432.835 1387.22,432.042 1389.71,431.432 1392.26,430.941 1394.82,430.667 1397.41,430.527 1400.01,430.513 
  1402.63,430.67 1405.3,431.043 1407.98,431.682 1410.67,432.524 1413.38,433.498 1416.1,434.607 1418.84,435.991 1421.62,437.836 1424.44,439.978 1427.28,442.323 
  1430.15,444.917 1433.05,447.84 1435.96,451.01 1438.92,454.31 1441.9,457.683 1444.89,461.236 1447.92,465.083 1451,469.173 1454.08,473.539 1457.21,478.277 
  1460.35,483.307 1463.53,488.63 1466.68,494.066 1469.92,499.647 1473.19,505.28 1476.47,511.131 1479.68,517.155 1482.96,523.501 1486.36,530.252 1489.79,537.18 
  1493.28,544.388 1496.8,551.811 1500.35,559.451 1503.91,567.296 1507.5,575.39 1511.15,583.715 1514.84,592.216 1518.58,600.934 1522.46,610.031 1526.38,619.26 
  1530.29,628.557 1534.2,637.935 1537.95,647.005 1541.73,656.229 1545.83,666.405 1550.02,676.884 1554.33,687.671 1558.79,698.878 1563.36,710.352 1568.04,722.174 
  1572.77,734.183 1577.68,746.681 1582.75,759.733 1587.64,772.33 1592.78,785.577 1597.93,798.78 1603.46,812.922 1608.77,826.379 1613.6,838.546 1618.48,850.832 
  1623.11,862.417 1627.58,873.501 1631.65,883.527 1635.72,893.428 1639.79,903.212 1643.86,912.878 1648.31,923.244 1652.77,933.493 1657.2,943.488 1661.72,953.51 
  1666.53,964.01 1671.34,974.363 1675.99,984.205 1680.54,993.737 1685.67,1004.3 1691.44,1015.94 1697.1,1027.07 1703.27,1038.96 1709.71,1051.03 1716.95,1064.21 
  1723.18,1075.28 1730.2,1087.4 1736.51,1098.02 1743.62,1109.55 1749.43,1118.65 1755.82,1128.37 1761.54,1136.84 1766.54,1144.05 1771.19,1150.61 1775.85,1157 
  1781.01,1163.98 1786.82,1171.63 1793.35,1180 1800.71,1189.07 1808.98,1198.84 1817.06,1208.03 1825.76,1217.46 1832.6,1224.56 1840.3,1232.23 1847.78,1239.37 
  1854.54,1245.56 1861.4,1251.58 1869.11,1258.02 1877.79,1264.95 1887.42,1272.18 1897.2,1279.11 1906.52,1285.37 1917,1291.99 1926.64,1297.73 1937.48,1303.77 
  1944.58,1307.49 1952.35,1311.38 1960.75,1315.35 1967.33,1318.32 1971.51,1320.14 1976.22,1322.14 1980.72,1323.99 1985.23,1325.79 1990.11,1327.68 1995.6,1329.74 
  2000.38,1331.48 2004.59,1332.98 2008.82,1334.44 2012.78,1335.76 2016.69,1337.04 2020.43,1338.24 2024.13,1339.39 2027.87,1340.52 2031.8,1341.69 2036.07,1342.92 
  2040.03,1344.02 2044.47,1345.24 2049.06,1346.46 2053.3,1347.56 2057.5,1348.63 2061.53,1349.63 2065.53,1350.6 2069.42,1351.52 2073.79,1352.52 2078.02,1353.46 
  2082.32,1354.39 2086.81,1355.33 2091.13,1356.21 2095.08,1356.99 2098.86,1357.72 2102.42,1358.39 2105.94,1359.04 2109.23,1359.62 2112.27,1360.16 2115.36,1360.69 
  2118.5,1361.22 2121.65,1361.73 2124.98,1362.27 2128.35,1362.79 2131.78,1363.31 2135.59,1363.88 2139.29,1364.41 2143,1364.94 2147.18,1365.52 2151.89,1366.15 
  2157.08,1366.83 2162.91,1367.57 2169.27,1368.34 2176.42,1369.19 2183.16,1369.95 2189.39,1370.62 2196.39,1371.35 2202.98,1372 2208.61,1372.54 2214.95,1373.12 
  2221.61,1373.7 2229.1,1374.33 2237.53,1375 2244.35,1375.52 2252.01,1376.07 2259.03,1376.56 2265.56,1376.99 2270.98,1377.34 2276.46,1377.68 2281.72,1377.99 
  2287.54,1378.32 2294.08,1378.68 
  "/>
<path clip-path="url(#clip570)" d="
M1567.83 270.476 L2283.65 270.476 L2283.65 166.796 L1567.83 166.796  Z
  " fill="#ffffff" fill-rule="evenodd" fill-opacity="1"/>
<polyline clip-path="url(#clip570)" style="stroke:#000000; stroke-linecap:butt; stroke-linejoin:round; stroke-width:4; stroke-opacity:1; fill:none" points="
  1567.83,270.476 2283.65,270.476 2283.65,166.796 1567.83,166.796 1567.83,270.476 
  "/>
<polyline clip-path="url(#clip570)" style="stroke:#009af9; stroke-linecap:butt; stroke-linejoin:round; stroke-width:4; stroke-opacity:1; fill:none" points="
  1590.87,218.636 1729.07,218.636 
  "/>
<path clip-path="url(#clip570)" d="M1752.1 201.356 L1759.07 201.356 L1767.89 224.874 L1776.76 201.356 L1783.72 201.356 L1783.72 235.916 L1779.16 235.916 L1779.16 205.569 L1770.25 229.272 L1765.55 229.272 L1756.64 205.569 L1756.64 235.916 L1752.1 235.916 L1752.1 201.356 Z" fill="#000000" fill-rule="evenodd" fill-opacity="1" /><path clip-path="url(#clip570)" d="M1792.82 209.99 L1797.08 209.99 L1797.08 235.916 L1792.82 235.916 L1792.82 209.99 M1792.82 199.897 L1797.08 199.897 L1797.08 205.291 L1792.82 205.291 L1792.82 199.897 Z" fill="#000000" fill-rule="evenodd" fill-opacity="1" /><path clip-path="url(#clip570)" d="M1823.05 213.925 L1823.05 199.897 L1827.31 199.897 L1827.31 235.916 L1823.05 235.916 L1823.05 232.027 Q1821.71 234.342 1819.65 235.476 Q1817.61 236.587 1814.74 236.587 Q1810.04 236.587 1807.08 232.837 Q1804.14 229.087 1804.14 222.976 Q1804.14 216.865 1807.08 213.115 Q1810.04 209.365 1814.74 209.365 Q1817.61 209.365 1819.65 210.499 Q1821.71 211.61 1823.05 213.925 M1808.54 222.976 Q1808.54 227.675 1810.46 230.36 Q1812.4 233.022 1815.78 233.022 Q1819.16 233.022 1821.11 230.36 Q1823.05 227.675 1823.05 222.976 Q1823.05 218.277 1821.11 215.615 Q1819.16 212.93 1815.78 212.93 Q1812.4 212.93 1810.46 215.615 Q1808.54 218.277 1808.54 222.976 Z" fill="#000000" fill-rule="evenodd" fill-opacity="1" /><path clip-path="url(#clip570)" d="M1853.14 213.925 L1853.14 199.897 L1857.4 199.897 L1857.4 235.916 L1853.14 235.916 L1853.14 232.027 Q1851.8 234.342 1849.74 235.476 Q1847.7 236.587 1844.83 236.587 Q1840.13 236.587 1837.17 232.837 Q1834.23 229.087 1834.23 222.976 Q1834.23 216.865 1837.17 213.115 Q1840.13 209.365 1844.83 209.365 Q1847.7 209.365 1849.74 210.499 Q1851.8 211.61 1853.14 213.925 M1838.63 222.976 Q1838.63 227.675 1840.55 230.36 Q1842.5 233.022 1845.88 233.022 Q1849.26 233.022 1851.2 230.36 Q1853.14 227.675 1853.14 222.976 Q1853.14 218.277 1851.2 215.615 Q1849.26 212.93 1845.88 212.93 Q1842.5 212.93 1840.55 215.615 Q1838.63 218.277 1838.63 222.976 Z" fill="#000000" fill-rule="evenodd" fill-opacity="1" /><path clip-path="url(#clip570)" d="M1866.18 199.897 L1870.44 199.897 L1870.44 235.916 L1866.18 235.916 L1866.18 199.897 Z" fill="#000000" fill-rule="evenodd" fill-opacity="1" /><path clip-path="url(#clip570)" d="M1901.52 221.888 L1901.52 223.971 L1881.94 223.971 Q1882.22 228.369 1884.58 230.684 Q1886.96 232.976 1891.2 232.976 Q1893.65 232.976 1895.94 232.374 Q1898.26 231.772 1900.53 230.569 L1900.53 234.596 Q1898.24 235.568 1895.83 236.078 Q1893.42 236.587 1890.94 236.587 Q1884.74 236.587 1881.11 232.976 Q1877.5 229.365 1877.5 223.207 Q1877.5 216.842 1880.92 213.115 Q1884.37 209.365 1890.2 209.365 Q1895.44 209.365 1898.47 212.745 Q1901.52 216.101 1901.52 221.888 M1897.26 220.638 Q1897.22 217.143 1895.3 215.059 Q1893.4 212.976 1890.25 212.976 Q1886.69 212.976 1884.53 214.99 Q1882.4 217.004 1882.08 220.661 L1897.26 220.638 Z" fill="#000000" fill-rule="evenodd" fill-opacity="1" /><path clip-path="url(#clip570)" d="M1924.32 235.198 L1924.32 230.939 Q1926.08 231.772 1927.89 232.212 Q1929.69 232.652 1931.43 232.652 Q1936.06 232.652 1938.49 229.55 Q1940.94 226.425 1941.29 220.082 Q1939.95 222.073 1937.89 223.138 Q1935.83 224.203 1933.33 224.203 Q1928.14 224.203 1925.11 221.078 Q1922.1 217.93 1922.1 212.49 Q1922.1 207.166 1925.25 203.948 Q1928.4 200.731 1933.63 200.731 Q1939.62 200.731 1942.77 205.337 Q1945.94 209.92 1945.94 218.67 Q1945.94 226.842 1942.06 231.726 Q1938.19 236.587 1931.64 236.587 Q1929.88 236.587 1928.07 236.24 Q1926.27 235.893 1924.32 235.198 M1933.63 220.545 Q1936.78 220.545 1938.61 218.393 Q1940.46 216.24 1940.46 212.49 Q1940.46 208.763 1938.61 206.61 Q1936.78 204.434 1933.63 204.434 Q1930.48 204.434 1928.63 206.61 Q1926.8 208.763 1926.8 212.49 Q1926.8 216.24 1928.63 218.393 Q1930.48 220.545 1933.63 220.545 Z" fill="#000000" fill-rule="evenodd" fill-opacity="1" /><path clip-path="url(#clip570)" d="M1954.39 201.356 L1972.75 201.356 L1972.75 205.291 L1958.68 205.291 L1958.68 213.763 Q1959.69 213.416 1960.71 213.254 Q1961.73 213.069 1962.75 213.069 Q1968.54 213.069 1971.92 216.24 Q1975.3 219.411 1975.3 224.828 Q1975.3 230.406 1971.82 233.508 Q1968.35 236.587 1962.03 236.587 Q1959.86 236.587 1957.59 236.217 Q1955.34 235.846 1952.94 235.106 L1952.94 230.406 Q1955.02 231.541 1957.24 232.096 Q1959.46 232.652 1961.94 232.652 Q1965.94 232.652 1968.28 230.545 Q1970.62 228.439 1970.62 224.828 Q1970.62 221.217 1968.28 219.11 Q1965.94 217.004 1961.94 217.004 Q1960.06 217.004 1958.19 217.42 Q1956.34 217.837 1954.39 218.717 L1954.39 201.356 Z" fill="#000000" fill-rule="evenodd" fill-opacity="1" /><path clip-path="url(#clip570)" d="M2013.91 220.707 Q2011.89 220.707 2010.74 222.42 Q2009.6 224.133 2009.6 227.189 Q2009.6 230.198 2010.74 231.934 Q2011.89 233.647 2013.91 233.647 Q2015.87 233.647 2017.01 231.934 Q2018.17 230.198 2018.17 227.189 Q2018.17 224.157 2017.01 222.444 Q2015.87 220.707 2013.91 220.707 M2013.91 217.768 Q2017.56 217.768 2019.72 220.314 Q2021.87 222.86 2021.87 227.189 Q2021.87 231.518 2019.69 234.064 Q2017.54 236.587 2013.91 236.587 Q2010.2 236.587 2008.05 234.064 Q2005.9 231.518 2005.9 227.189 Q2005.9 222.837 2008.05 220.314 Q2010.23 217.768 2013.91 217.768 M1990.02 203.671 Q1988.03 203.671 1986.87 205.407 Q1985.74 207.12 1985.74 210.129 Q1985.74 213.184 1986.87 214.897 Q1988 216.61 1990.02 216.61 Q1992.03 216.61 1993.17 214.897 Q1994.32 213.184 1994.32 210.129 Q1994.32 207.143 1993.17 205.407 Q1992.01 203.671 1990.02 203.671 M2010.92 200.731 L2014.62 200.731 L1993 236.587 L1989.3 236.587 L2010.92 200.731 M1990.02 200.731 Q1993.68 200.731 1995.85 203.277 Q1998.03 205.8 1998.03 210.129 Q1998.03 214.504 1995.85 217.027 Q1993.7 219.55 1990.02 219.55 Q1986.34 219.55 1984.18 217.027 Q1982.06 214.481 1982.06 210.129 Q1982.06 205.823 1984.21 203.277 Q1986.36 200.731 1990.02 200.731 Z" fill="#000000" fill-rule="evenodd" fill-opacity="1" /><path clip-path="url(#clip570)" d="M2058.24 204.527 Q2053.14 204.527 2050.13 208.323 Q2047.15 212.12 2047.15 218.67 Q2047.15 225.198 2050.13 228.994 Q2053.14 232.791 2058.24 232.791 Q2063.33 232.791 2066.29 228.994 Q2069.28 225.198 2069.28 218.67 Q2069.28 212.12 2066.29 208.323 Q2063.33 204.527 2058.24 204.527 M2064.79 235.291 L2070.94 242.027 L2065.3 242.027 L2060.18 236.494 Q2059.42 236.541 2059 236.564 Q2058.61 236.587 2058.24 236.587 Q2050.94 236.587 2046.57 231.726 Q2042.22 226.842 2042.22 218.67 Q2042.22 210.476 2046.57 205.615 Q2050.94 200.731 2058.24 200.731 Q2065.5 200.731 2069.86 205.615 Q2074.21 210.476 2074.21 218.67 Q2074.21 224.689 2071.78 228.971 Q2069.37 233.254 2064.79 235.291 Z" fill="#000000" fill-rule="evenodd" fill-opacity="1" /><path clip-path="url(#clip570)" d="M2080.9 225.684 L2080.9 209.99 L2085.16 209.99 L2085.16 225.522 Q2085.16 229.203 2086.59 231.055 Q2088.03 232.883 2090.9 232.883 Q2094.35 232.883 2096.34 230.684 Q2098.35 228.485 2098.35 224.689 L2098.35 209.99 L2102.61 209.99 L2102.61 235.916 L2098.35 235.916 L2098.35 231.934 Q2096.8 234.295 2094.74 235.453 Q2092.7 236.587 2089.99 236.587 Q2085.53 236.587 2083.21 233.809 Q2080.9 231.031 2080.9 225.684 M2091.61 209.365 L2091.61 209.365 Z" fill="#000000" fill-rule="evenodd" fill-opacity="1" /><path clip-path="url(#clip570)" d="M2123.17 222.883 Q2118 222.883 2116.01 224.064 Q2114.02 225.244 2114.02 228.092 Q2114.02 230.36 2115.5 231.703 Q2117.01 233.022 2119.58 233.022 Q2123.12 233.022 2125.25 230.522 Q2127.4 227.999 2127.4 223.832 L2127.4 222.883 L2123.17 222.883 M2131.66 221.124 L2131.66 235.916 L2127.4 235.916 L2127.4 231.981 Q2125.94 234.342 2123.77 235.476 Q2121.59 236.587 2118.44 236.587 Q2114.46 236.587 2112.1 234.365 Q2109.76 232.119 2109.76 228.369 Q2109.76 223.994 2112.68 221.772 Q2115.62 219.55 2121.43 219.55 L2127.4 219.55 L2127.4 219.133 Q2127.4 216.194 2125.46 214.596 Q2123.54 212.976 2120.04 212.976 Q2117.82 212.976 2115.71 213.508 Q2113.61 214.041 2111.66 215.106 L2111.66 211.17 Q2114 210.268 2116.2 209.828 Q2118.4 209.365 2120.48 209.365 Q2126.11 209.365 2128.88 212.282 Q2131.66 215.198 2131.66 221.124 Z" fill="#000000" fill-rule="evenodd" fill-opacity="1" /><path clip-path="url(#clip570)" d="M2161.98 220.268 L2161.98 235.916 L2157.73 235.916 L2157.73 220.407 Q2157.73 216.726 2156.29 214.897 Q2154.86 213.069 2151.98 213.069 Q2148.54 213.069 2146.55 215.268 Q2144.55 217.467 2144.55 221.263 L2144.55 235.916 L2140.27 235.916 L2140.27 209.99 L2144.55 209.99 L2144.55 214.018 Q2146.08 211.68 2148.14 210.522 Q2150.23 209.365 2152.93 209.365 Q2157.4 209.365 2159.69 212.143 Q2161.98 214.897 2161.98 220.268 Z" fill="#000000" fill-rule="evenodd" fill-opacity="1" /><path clip-path="url(#clip570)" d="M2174.69 202.629 L2174.69 209.99 L2183.47 209.99 L2183.47 213.3 L2174.69 213.3 L2174.69 227.374 Q2174.69 230.545 2175.55 231.448 Q2176.43 232.351 2179.09 232.351 L2183.47 232.351 L2183.47 235.916 L2179.09 235.916 Q2174.16 235.916 2172.29 234.087 Q2170.41 232.235 2170.41 227.374 L2170.41 213.3 L2167.29 213.3 L2167.29 209.99 L2170.41 209.99 L2170.41 202.629 L2174.69 202.629 Z" fill="#000000" fill-rule="evenodd" fill-opacity="1" /><path clip-path="url(#clip570)" d="M2189.07 209.99 L2193.33 209.99 L2193.33 235.916 L2189.07 235.916 L2189.07 209.99 M2189.07 199.897 L2193.33 199.897 L2193.33 205.291 L2189.07 205.291 L2189.07 199.897 Z" fill="#000000" fill-rule="evenodd" fill-opacity="1" /><path clip-path="url(#clip570)" d="M2202.24 199.897 L2206.5 199.897 L2206.5 235.916 L2202.24 235.916 L2202.24 199.897 Z" fill="#000000" fill-rule="evenodd" fill-opacity="1" /><path clip-path="url(#clip570)" d="M2237.59 221.888 L2237.59 223.971 L2218 223.971 Q2218.28 228.369 2220.64 230.684 Q2223.03 232.976 2227.26 232.976 Q2229.72 232.976 2232.01 232.374 Q2234.32 231.772 2236.59 230.569 L2236.59 234.596 Q2234.3 235.568 2231.89 236.078 Q2229.48 236.587 2227.01 236.587 Q2220.8 236.587 2217.17 232.976 Q2213.56 229.365 2213.56 223.207 Q2213.56 216.842 2216.98 213.115 Q2220.43 209.365 2226.27 209.365 Q2231.5 209.365 2234.53 212.745 Q2237.59 216.101 2237.59 221.888 M2233.33 220.638 Q2233.28 217.143 2231.36 215.059 Q2229.46 212.976 2226.31 212.976 Q2222.75 212.976 2220.6 214.99 Q2218.47 217.004 2218.14 220.661 L2233.33 220.638 Z" fill="#000000" fill-rule="evenodd" fill-opacity="1" /></svg>
