<?xml version="1.0" encoding="utf-8"?>
<svg xmlns="http://www.w3.org/2000/svg" xmlns:xlink="http://www.w3.org/1999/xlink" width="600" height="400" viewBox="0 0 2400 1600">
<defs>
  <clipPath id="clip280">
    <rect x="0" y="0" width="2400" height="1600"/>
  </clipPath>
</defs>
<path clip-path="url(#clip280)" d="
M0 1600 L2400 1600 L2400 0 L0 0  Z
  " fill="#ffffff" fill-rule="evenodd" fill-opacity="1"/>
<defs>
  <clipPath id="clip281">
    <rect x="480" y="0" width="1681" height="1600"/>
  </clipPath>
</defs>
<defs>
  <clipPath id="clip282">
    <rect x="250" y="123" width="2104" height="1301"/>
  </clipPath>
</defs>
<path clip-path="url(#clip280)" d="
M279.704 1423.18 L2352.76 1423.18 L2352.76 123.472 L279.704 123.472  Z
  " fill="#ffffff" fill-rule="evenodd" fill-opacity="1"/>
<defs>
  <clipPath id="clip283">
    <rect x="279" y="123" width="2074" height="1301"/>
  </clipPath>
</defs>
<polyline clip-path="url(#clip283)" style="stroke:#000000; stroke-linecap:butt; stroke-linejoin:round; stroke-width:2; stroke-opacity:0.1; fill:none" points="
  338.375,1423.18 338.375,123.472 
  "/>
<polyline clip-path="url(#clip283)" style="stroke:#000000; stroke-linecap:butt; stroke-linejoin:round; stroke-width:2; stroke-opacity:0.1; fill:none" points="
  693.959,1423.18 693.959,123.472 
  "/>
<polyline clip-path="url(#clip283)" style="stroke:#000000; stroke-linecap:butt; stroke-linejoin:round; stroke-width:2; stroke-opacity:0.1; fill:none" points="
  1049.54,1423.18 1049.54,123.472 
  "/>
<polyline clip-path="url(#clip283)" style="stroke:#000000; stroke-linecap:butt; stroke-linejoin:round; stroke-width:2; stroke-opacity:0.1; fill:none" points="
  1405.13,1423.18 1405.13,123.472 
  "/>
<polyline clip-path="url(#clip283)" style="stroke:#000000; stroke-linecap:butt; stroke-linejoin:round; stroke-width:2; stroke-opacity:0.1; fill:none" points="
  1760.71,1423.18 1760.71,123.472 
  "/>
<polyline clip-path="url(#clip283)" style="stroke:#000000; stroke-linecap:butt; stroke-linejoin:round; stroke-width:2; stroke-opacity:0.1; fill:none" points="
  2116.29,1423.18 2116.29,123.472 
  "/>
<polyline clip-path="url(#clip280)" style="stroke:#000000; stroke-linecap:butt; stroke-linejoin:round; stroke-width:4; stroke-opacity:1; fill:none" points="
  279.704,1423.18 2352.76,1423.18 
  "/>
<polyline clip-path="url(#clip280)" style="stroke:#000000; stroke-linecap:butt; stroke-linejoin:round; stroke-width:4; stroke-opacity:1; fill:none" points="
  338.375,1423.18 338.375,1404.28 
  "/>
<polyline clip-path="url(#clip280)" style="stroke:#000000; stroke-linecap:butt; stroke-linejoin:round; stroke-width:4; stroke-opacity:1; fill:none" points="
  693.959,1423.18 693.959,1404.28 
  "/>
<polyline clip-path="url(#clip280)" style="stroke:#000000; stroke-linecap:butt; stroke-linejoin:round; stroke-width:4; stroke-opacity:1; fill:none" points="
  1049.54,1423.18 1049.54,1404.28 
  "/>
<polyline clip-path="url(#clip280)" style="stroke:#000000; stroke-linecap:butt; stroke-linejoin:round; stroke-width:4; stroke-opacity:1; fill:none" points="
  1405.13,1423.18 1405.13,1404.28 
  "/>
<polyline clip-path="url(#clip280)" style="stroke:#000000; stroke-linecap:butt; stroke-linejoin:round; stroke-width:4; stroke-opacity:1; fill:none" points="
  1760.71,1423.18 1760.71,1404.28 
  "/>
<polyline clip-path="url(#clip280)" style="stroke:#000000; stroke-linecap:butt; stroke-linejoin:round; stroke-width:4; stroke-opacity:1; fill:none" points="
  2116.29,1423.18 2116.29,1404.28 
  "/>
<path clip-path="url(#clip280)" d="M338.375 1454.1 Q334.764 1454.1 332.935 1457.66 Q331.13 1461.2 331.13 1468.33 Q331.13 1475.44 332.935 1479.01 Q334.764 1482.55 338.375 1482.55 Q342.009 1482.55 343.815 1479.01 Q345.644 1475.44 345.644 1468.33 Q345.644 1461.2 343.815 1457.66 Q342.009 1454.1 338.375 1454.1 M338.375 1450.39 Q344.185 1450.39 347.241 1455 Q350.32 1459.58 350.32 1468.33 Q350.32 1477.06 347.241 1481.67 Q344.185 1486.25 338.375 1486.25 Q332.565 1486.25 329.486 1481.67 Q326.431 1477.06 326.431 1468.33 Q326.431 1459.58 329.486 1455 Q332.565 1450.39 338.375 1450.39 Z" fill="#000000" fill-rule="evenodd" fill-opacity="1" /><path clip-path="url(#clip280)" d="M653.565 1481.64 L661.204 1481.64 L661.204 1455.28 L652.894 1456.95 L652.894 1452.69 L661.158 1451.02 L665.834 1451.02 L665.834 1481.64 L673.473 1481.64 L673.473 1485.58 L653.565 1485.58 L653.565 1481.64 Z" fill="#000000" fill-rule="evenodd" fill-opacity="1" /><path clip-path="url(#clip280)" d="M692.917 1454.1 Q689.306 1454.1 687.477 1457.66 Q685.672 1461.2 685.672 1468.33 Q685.672 1475.44 687.477 1479.01 Q689.306 1482.55 692.917 1482.55 Q696.551 1482.55 698.357 1479.01 Q700.186 1475.44 700.186 1468.33 Q700.186 1461.2 698.357 1457.66 Q696.551 1454.1 692.917 1454.1 M692.917 1450.39 Q698.727 1450.39 701.783 1455 Q704.861 1459.58 704.861 1468.33 Q704.861 1477.06 701.783 1481.67 Q698.727 1486.25 692.917 1486.25 Q687.107 1486.25 684.028 1481.67 Q680.973 1477.06 680.973 1468.33 Q680.973 1459.58 684.028 1455 Q687.107 1450.39 692.917 1450.39 Z" fill="#000000" fill-rule="evenodd" fill-opacity="1" /><path clip-path="url(#clip280)" d="M723.079 1454.1 Q719.468 1454.1 717.639 1457.66 Q715.834 1461.2 715.834 1468.33 Q715.834 1475.44 717.639 1479.01 Q719.468 1482.55 723.079 1482.55 Q726.713 1482.55 728.519 1479.01 Q730.347 1475.44 730.347 1468.33 Q730.347 1461.2 728.519 1457.66 Q726.713 1454.1 723.079 1454.1 M723.079 1450.39 Q728.889 1450.39 731.945 1455 Q735.023 1459.58 735.023 1468.33 Q735.023 1477.06 731.945 1481.67 Q728.889 1486.25 723.079 1486.25 Q717.269 1486.25 714.19 1481.67 Q711.135 1477.06 711.135 1468.33 Q711.135 1459.58 714.19 1455 Q717.269 1450.39 723.079 1450.39 Z" fill="#000000" fill-rule="evenodd" fill-opacity="1" /><path clip-path="url(#clip280)" d="M1013.23 1481.64 L1029.55 1481.64 L1029.55 1485.58 L1007.61 1485.58 L1007.61 1481.64 Q1010.27 1478.89 1014.85 1474.26 Q1019.46 1469.61 1020.64 1468.27 Q1022.89 1465.74 1023.77 1464.01 Q1024.67 1462.25 1024.67 1460.56 Q1024.67 1457.8 1022.73 1456.07 Q1020.8 1454.33 1017.7 1454.33 Q1015.5 1454.33 1013.05 1455.09 Q1010.62 1455.86 1007.84 1457.41 L1007.84 1452.69 Q1010.67 1451.55 1013.12 1450.97 Q1015.57 1450.39 1017.61 1450.39 Q1022.98 1450.39 1026.17 1453.08 Q1029.37 1455.77 1029.37 1460.26 Q1029.37 1462.39 1028.56 1464.31 Q1027.77 1466.2 1025.67 1468.8 Q1025.09 1469.47 1021.98 1472.69 Q1018.88 1475.88 1013.23 1481.64 Z" fill="#000000" fill-rule="evenodd" fill-opacity="1" /><path clip-path="url(#clip280)" d="M1049.37 1454.1 Q1045.76 1454.1 1043.93 1457.66 Q1042.12 1461.2 1042.12 1468.33 Q1042.12 1475.44 1043.93 1479.01 Q1045.76 1482.55 1049.37 1482.55 Q1053 1482.55 1054.81 1479.01 Q1056.64 1475.44 1056.64 1468.33 Q1056.64 1461.2 1054.81 1457.66 Q1053 1454.1 1049.37 1454.1 M1049.37 1450.39 Q1055.18 1450.39 1058.23 1455 Q1061.31 1459.58 1061.31 1468.33 Q1061.31 1477.06 1058.23 1481.67 Q1055.18 1486.25 1049.37 1486.25 Q1043.56 1486.25 1040.48 1481.67 Q1037.42 1477.06 1037.42 1468.33 Q1037.42 1459.58 1040.48 1455 Q1043.56 1450.39 1049.37 1450.39 Z" fill="#000000" fill-rule="evenodd" fill-opacity="1" /><path clip-path="url(#clip280)" d="M1079.53 1454.1 Q1075.92 1454.1 1074.09 1457.66 Q1072.29 1461.2 1072.29 1468.33 Q1072.29 1475.44 1074.09 1479.01 Q1075.92 1482.55 1079.53 1482.55 Q1083.16 1482.55 1084.97 1479.01 Q1086.8 1475.44 1086.8 1468.33 Q1086.8 1461.2 1084.97 1457.66 Q1083.16 1454.1 1079.53 1454.1 M1079.53 1450.39 Q1085.34 1450.39 1088.4 1455 Q1091.47 1459.58 1091.47 1468.33 Q1091.47 1477.06 1088.4 1481.67 Q1085.34 1486.25 1079.53 1486.25 Q1073.72 1486.25 1070.64 1481.67 Q1067.59 1477.06 1067.59 1468.33 Q1067.59 1459.58 1070.64 1455 Q1073.72 1450.39 1079.53 1450.39 Z" fill="#000000" fill-rule="evenodd" fill-opacity="1" /><path clip-path="url(#clip280)" d="M1378.89 1466.95 Q1382.24 1467.66 1384.12 1469.93 Q1386.02 1472.2 1386.02 1475.53 Q1386.02 1480.65 1382.5 1483.45 Q1378.98 1486.25 1372.5 1486.25 Q1370.32 1486.25 1368.01 1485.81 Q1365.72 1485.39 1363.26 1484.54 L1363.26 1480.02 Q1365.21 1481.16 1367.52 1481.74 Q1369.84 1482.32 1372.36 1482.32 Q1376.76 1482.32 1379.05 1480.58 Q1381.36 1478.84 1381.36 1475.53 Q1381.36 1472.48 1379.21 1470.77 Q1377.08 1469.03 1373.26 1469.03 L1369.23 1469.03 L1369.23 1465.19 L1373.45 1465.19 Q1376.9 1465.19 1378.73 1463.82 Q1380.55 1462.43 1380.55 1459.84 Q1380.55 1457.18 1378.66 1455.77 Q1376.78 1454.33 1373.26 1454.33 Q1371.34 1454.33 1369.14 1454.75 Q1366.94 1455.16 1364.3 1456.04 L1364.3 1451.88 Q1366.97 1451.14 1369.28 1450.77 Q1371.62 1450.39 1373.68 1450.39 Q1379 1450.39 1382.11 1452.83 Q1385.21 1455.23 1385.21 1459.35 Q1385.21 1462.22 1383.56 1464.21 Q1381.92 1466.18 1378.89 1466.95 Z" fill="#000000" fill-rule="evenodd" fill-opacity="1" /><path clip-path="url(#clip280)" d="M1404.88 1454.1 Q1401.27 1454.1 1399.44 1457.66 Q1397.64 1461.2 1397.64 1468.33 Q1397.64 1475.44 1399.44 1479.01 Q1401.27 1482.55 1404.88 1482.55 Q1408.52 1482.55 1410.32 1479.01 Q1412.15 1475.44 1412.15 1468.33 Q1412.15 1461.2 1410.32 1457.66 Q1408.52 1454.1 1404.88 1454.1 M1404.88 1450.39 Q1410.69 1450.39 1413.75 1455 Q1416.83 1459.58 1416.83 1468.33 Q1416.83 1477.06 1413.75 1481.67 Q1410.69 1486.25 1404.88 1486.25 Q1399.07 1486.25 1395.99 1481.67 Q1392.94 1477.06 1392.94 1468.33 Q1392.94 1459.58 1395.99 1455 Q1399.07 1450.39 1404.88 1450.39 Z" fill="#000000" fill-rule="evenodd" fill-opacity="1" /><path clip-path="url(#clip280)" d="M1435.04 1454.1 Q1431.43 1454.1 1429.6 1457.66 Q1427.8 1461.2 1427.8 1468.33 Q1427.8 1475.44 1429.6 1479.01 Q1431.43 1482.55 1435.04 1482.55 Q1438.68 1482.55 1440.48 1479.01 Q1442.31 1475.44 1442.31 1468.33 Q1442.31 1461.2 1440.48 1457.66 Q1438.68 1454.1 1435.04 1454.1 M1435.04 1450.39 Q1440.85 1450.39 1443.91 1455 Q1446.99 1459.58 1446.99 1468.33 Q1446.99 1477.06 1443.91 1481.67 Q1440.85 1486.25 1435.04 1486.25 Q1429.23 1486.25 1426.16 1481.67 Q1423.1 1477.06 1423.1 1468.33 Q1423.1 1459.58 1426.16 1455 Q1429.23 1450.39 1435.04 1450.39 Z" fill="#000000" fill-rule="evenodd" fill-opacity="1" /><path clip-path="url(#clip280)" d="M1733.8 1455.09 L1721.99 1473.54 L1733.8 1473.54 L1733.8 1455.09 M1732.57 1451.02 L1738.45 1451.02 L1738.45 1473.54 L1743.38 1473.54 L1743.38 1477.43 L1738.45 1477.43 L1738.45 1485.58 L1733.8 1485.58 L1733.8 1477.43 L1718.2 1477.43 L1718.2 1472.92 L1732.57 1451.02 Z" fill="#000000" fill-rule="evenodd" fill-opacity="1" /><path clip-path="url(#clip280)" d="M1761.11 1454.1 Q1757.5 1454.1 1755.67 1457.66 Q1753.87 1461.2 1753.87 1468.33 Q1753.87 1475.44 1755.67 1479.01 Q1757.5 1482.55 1761.11 1482.55 Q1764.75 1482.55 1766.55 1479.01 Q1768.38 1475.44 1768.38 1468.33 Q1768.38 1461.2 1766.55 1457.66 Q1764.75 1454.1 1761.11 1454.1 M1761.11 1450.39 Q1766.92 1450.39 1769.98 1455 Q1773.06 1459.58 1773.06 1468.33 Q1773.06 1477.06 1769.98 1481.67 Q1766.92 1486.25 1761.11 1486.25 Q1755.3 1486.25 1752.23 1481.67 Q1749.17 1477.06 1749.17 1468.33 Q1749.17 1459.58 1752.23 1455 Q1755.3 1450.39 1761.11 1450.39 Z" fill="#000000" fill-rule="evenodd" fill-opacity="1" /><path clip-path="url(#clip280)" d="M1791.28 1454.1 Q1787.67 1454.1 1785.84 1457.66 Q1784.03 1461.2 1784.03 1468.33 Q1784.03 1475.44 1785.84 1479.01 Q1787.67 1482.55 1791.28 1482.55 Q1794.91 1482.55 1796.72 1479.01 Q1798.54 1475.44 1798.54 1468.33 Q1798.54 1461.2 1796.72 1457.66 Q1794.91 1454.1 1791.28 1454.1 M1791.28 1450.39 Q1797.09 1450.39 1800.14 1455 Q1803.22 1459.58 1803.22 1468.33 Q1803.22 1477.06 1800.14 1481.67 Q1797.09 1486.25 1791.28 1486.25 Q1785.47 1486.25 1782.39 1481.67 Q1779.33 1477.06 1779.33 1468.33 Q1779.33 1459.58 1782.39 1455 Q1785.47 1450.39 1791.28 1450.39 Z" fill="#000000" fill-rule="evenodd" fill-opacity="1" /><path clip-path="url(#clip280)" d="M2075.91 1451.02 L2094.27 1451.02 L2094.27 1454.96 L2080.19 1454.96 L2080.19 1463.43 Q2081.21 1463.08 2082.23 1462.92 Q2083.25 1462.73 2084.27 1462.73 Q2090.05 1462.73 2093.43 1465.9 Q2096.81 1469.08 2096.81 1474.49 Q2096.81 1480.07 2093.34 1483.17 Q2089.87 1486.25 2083.55 1486.25 Q2081.37 1486.25 2079.11 1485.88 Q2076.86 1485.51 2074.45 1484.77 L2074.45 1480.07 Q2076.54 1481.2 2078.76 1481.76 Q2080.98 1482.32 2083.46 1482.32 Q2087.46 1482.32 2089.8 1480.21 Q2092.14 1478.1 2092.14 1474.49 Q2092.14 1470.88 2089.8 1468.77 Q2087.46 1466.67 2083.46 1466.67 Q2081.58 1466.67 2079.71 1467.08 Q2077.86 1467.5 2075.91 1468.38 L2075.91 1451.02 Z" fill="#000000" fill-rule="evenodd" fill-opacity="1" /><path clip-path="url(#clip280)" d="M2116.03 1454.1 Q2112.42 1454.1 2110.59 1457.66 Q2108.78 1461.2 2108.78 1468.33 Q2108.78 1475.44 2110.59 1479.01 Q2112.42 1482.55 2116.03 1482.55 Q2119.66 1482.55 2121.47 1479.01 Q2123.3 1475.44 2123.3 1468.33 Q2123.3 1461.2 2121.47 1457.66 Q2119.66 1454.1 2116.03 1454.1 M2116.03 1450.39 Q2121.84 1450.39 2124.89 1455 Q2127.97 1459.58 2127.97 1468.33 Q2127.97 1477.06 2124.89 1481.67 Q2121.84 1486.25 2116.03 1486.25 Q2110.22 1486.25 2107.14 1481.67 Q2104.08 1477.06 2104.08 1468.33 Q2104.08 1459.58 2107.14 1455 Q2110.22 1450.39 2116.03 1450.39 Z" fill="#000000" fill-rule="evenodd" fill-opacity="1" /><path clip-path="url(#clip280)" d="M2146.19 1454.1 Q2142.58 1454.1 2140.75 1457.66 Q2138.94 1461.2 2138.94 1468.33 Q2138.94 1475.44 2140.75 1479.01 Q2142.58 1482.55 2146.19 1482.55 Q2149.82 1482.55 2151.63 1479.01 Q2153.46 1475.44 2153.46 1468.33 Q2153.46 1461.2 2151.63 1457.66 Q2149.82 1454.1 2146.19 1454.1 M2146.19 1450.39 Q2152 1450.39 2155.05 1455 Q2158.13 1459.58 2158.13 1468.33 Q2158.13 1477.06 2155.05 1481.67 Q2152 1486.25 2146.19 1486.25 Q2140.38 1486.25 2137.3 1481.67 Q2134.24 1477.06 2134.24 1468.33 Q2134.24 1459.58 2137.3 1455 Q2140.38 1450.39 2146.19 1450.39 Z" fill="#000000" fill-rule="evenodd" fill-opacity="1" /><path clip-path="url(#clip280)" d="M1324.7 1548.54 Q1324.7 1549.45 1324.28 1549.67 Q1323.86 1549.87 1322.7 1549.87 L1316.52 1549.87 L1311.63 1569.32 Q1311.24 1571.02 1311.24 1572.47 Q1311.24 1574.08 1311.72 1574.79 Q1312.24 1575.5 1313.3 1575.5 Q1315.39 1575.5 1317.65 1573.6 Q1319.93 1571.7 1321.87 1567.06 Q1322.12 1566.45 1322.25 1566.32 Q1322.41 1566.16 1322.83 1566.16 Q1323.64 1566.16 1323.64 1566.81 Q1323.64 1567.03 1323.19 1568.06 Q1322.77 1569.09 1321.83 1570.61 Q1320.93 1572.12 1319.74 1573.54 Q1318.58 1574.95 1316.81 1575.98 Q1315.04 1576.98 1313.14 1576.98 Q1310.47 1576.98 1308.76 1575.28 Q1307.08 1573.57 1307.08 1570.9 Q1307.08 1570.03 1307.76 1567.26 Q1308.44 1564.45 1312.11 1549.87 L1306.28 1549.87 Q1305.47 1549.87 1305.15 1549.83 Q1304.86 1549.8 1304.64 1549.64 Q1304.44 1549.45 1304.44 1549.06 Q1304.44 1548.45 1304.7 1548.19 Q1304.96 1547.9 1305.28 1547.87 Q1305.64 1547.8 1306.44 1547.8 L1312.62 1547.8 L1315.2 1537.34 Q1315.46 1536.31 1316.1 1535.73 Q1316.78 1535.12 1317.16 1535.05 Q1317.55 1534.95 1317.84 1534.95 Q1318.71 1534.95 1319.23 1535.44 Q1319.74 1535.89 1319.74 1536.73 Q1319.74 1537.18 1317.04 1547.8 L1322.83 1547.8 Q1323.57 1547.8 1323.86 1547.84 Q1324.19 1547.87 1324.44 1548.03 Q1324.7 1548.19 1324.7 1548.54 Z" fill="#000000" fill-rule="evenodd" fill-opacity="1" /><polyline clip-path="url(#clip283)" style="stroke:#000000; stroke-linecap:butt; stroke-linejoin:round; stroke-width:2; stroke-opacity:0.1; fill:none" points="
  279.704,1387.17 2352.76,1387.17 
  "/>
<polyline clip-path="url(#clip283)" style="stroke:#000000; stroke-linecap:butt; stroke-linejoin:round; stroke-width:2; stroke-opacity:0.1; fill:none" points="
  279.704,1076.76 2352.76,1076.76 
  "/>
<polyline clip-path="url(#clip283)" style="stroke:#000000; stroke-linecap:butt; stroke-linejoin:round; stroke-width:2; stroke-opacity:0.1; fill:none" points="
  279.704,766.353 2352.76,766.353 
  "/>
<polyline clip-path="url(#clip283)" style="stroke:#000000; stroke-linecap:butt; stroke-linejoin:round; stroke-width:2; stroke-opacity:0.1; fill:none" points="
  279.704,455.946 2352.76,455.946 
  "/>
<polyline clip-path="url(#clip283)" style="stroke:#000000; stroke-linecap:butt; stroke-linejoin:round; stroke-width:2; stroke-opacity:0.1; fill:none" points="
  279.704,145.54 2352.76,145.54 
  "/>
<polyline clip-path="url(#clip280)" style="stroke:#000000; stroke-linecap:butt; stroke-linejoin:round; stroke-width:4; stroke-opacity:1; fill:none" points="
  279.704,1423.18 279.704,123.472 
  "/>
<polyline clip-path="url(#clip280)" style="stroke:#000000; stroke-linecap:butt; stroke-linejoin:round; stroke-width:4; stroke-opacity:1; fill:none" points="
  279.704,1387.17 298.602,1387.17 
  "/>
<polyline clip-path="url(#clip280)" style="stroke:#000000; stroke-linecap:butt; stroke-linejoin:round; stroke-width:4; stroke-opacity:1; fill:none" points="
  279.704,1076.76 298.602,1076.76 
  "/>
<polyline clip-path="url(#clip280)" style="stroke:#000000; stroke-linecap:butt; stroke-linejoin:round; stroke-width:4; stroke-opacity:1; fill:none" points="
  279.704,766.353 298.602,766.353 
  "/>
<polyline clip-path="url(#clip280)" style="stroke:#000000; stroke-linecap:butt; stroke-linejoin:round; stroke-width:4; stroke-opacity:1; fill:none" points="
  279.704,455.946 298.602,455.946 
  "/>
<polyline clip-path="url(#clip280)" style="stroke:#000000; stroke-linecap:butt; stroke-linejoin:round; stroke-width:4; stroke-opacity:1; fill:none" points="
  279.704,145.54 298.602,145.54 
  "/>
<path clip-path="url(#clip280)" d="M126.205 1372.96 Q122.593 1372.96 120.765 1376.53 Q118.959 1380.07 118.959 1387.2 Q118.959 1394.31 120.765 1397.87 Q122.593 1401.41 126.205 1401.41 Q129.839 1401.41 131.644 1397.87 Q133.473 1394.31 133.473 1387.2 Q133.473 1380.07 131.644 1376.53 Q129.839 1372.96 126.205 1372.96 M126.205 1369.26 Q132.015 1369.26 135.07 1373.87 Q138.149 1378.45 138.149 1387.2 Q138.149 1395.93 135.07 1400.53 Q132.015 1405.12 126.205 1405.12 Q120.394 1405.12 117.316 1400.53 Q114.26 1395.93 114.26 1387.2 Q114.26 1378.45 117.316 1373.87 Q120.394 1369.26 126.205 1369.26 Z" fill="#000000" fill-rule="evenodd" fill-opacity="1" /><path clip-path="url(#clip280)" d="M146.366 1398.57 L151.251 1398.57 L151.251 1404.45 L146.366 1404.45 L146.366 1398.57 Z" fill="#000000" fill-rule="evenodd" fill-opacity="1" /><path clip-path="url(#clip280)" d="M171.436 1372.96 Q167.825 1372.96 165.996 1376.53 Q164.19 1380.07 164.19 1387.2 Q164.19 1394.31 165.996 1397.87 Q167.825 1401.41 171.436 1401.41 Q175.07 1401.41 176.876 1397.87 Q178.704 1394.31 178.704 1387.2 Q178.704 1380.07 176.876 1376.53 Q175.07 1372.96 171.436 1372.96 M171.436 1369.26 Q177.246 1369.26 180.301 1373.87 Q183.38 1378.45 183.38 1387.2 Q183.38 1395.93 180.301 1400.53 Q177.246 1405.12 171.436 1405.12 Q165.626 1405.12 162.547 1400.53 Q159.491 1395.93 159.491 1387.2 Q159.491 1378.45 162.547 1373.87 Q165.626 1369.26 171.436 1369.26 Z" fill="#000000" fill-rule="evenodd" fill-opacity="1" /><path clip-path="url(#clip280)" d="M201.598 1372.96 Q197.987 1372.96 196.158 1376.53 Q194.352 1380.07 194.352 1387.2 Q194.352 1394.31 196.158 1397.87 Q197.987 1401.41 201.598 1401.41 Q205.232 1401.41 207.037 1397.87 Q208.866 1394.31 208.866 1387.2 Q208.866 1380.07 207.037 1376.53 Q205.232 1372.96 201.598 1372.96 M201.598 1369.26 Q207.408 1369.26 210.463 1373.87 Q213.542 1378.45 213.542 1387.2 Q213.542 1395.93 210.463 1400.53 Q207.408 1405.12 201.598 1405.12 Q195.787 1405.12 192.709 1400.53 Q189.653 1395.93 189.653 1387.2 Q189.653 1378.45 192.709 1373.87 Q195.787 1369.26 201.598 1369.26 Z" fill="#000000" fill-rule="evenodd" fill-opacity="1" /><path clip-path="url(#clip280)" d="M231.76 1372.96 Q228.148 1372.96 226.32 1376.53 Q224.514 1380.07 224.514 1387.2 Q224.514 1394.31 226.32 1397.87 Q228.148 1401.41 231.76 1401.41 Q235.394 1401.41 237.199 1397.87 Q239.028 1394.31 239.028 1387.2 Q239.028 1380.07 237.199 1376.53 Q235.394 1372.96 231.76 1372.96 M231.76 1369.26 Q237.57 1369.26 240.625 1373.87 Q243.704 1378.45 243.704 1387.2 Q243.704 1395.93 240.625 1400.53 Q237.57 1405.12 231.76 1405.12 Q225.949 1405.12 222.871 1400.53 Q219.815 1395.93 219.815 1387.2 Q219.815 1378.45 222.871 1373.87 Q225.949 1369.26 231.76 1369.26 Z" fill="#000000" fill-rule="evenodd" fill-opacity="1" /><path clip-path="url(#clip280)" d="M127.2 1062.56 Q123.589 1062.56 121.76 1066.12 Q119.955 1069.66 119.955 1076.79 Q119.955 1083.9 121.76 1087.47 Q123.589 1091.01 127.2 1091.01 Q130.834 1091.01 132.64 1087.47 Q134.468 1083.9 134.468 1076.79 Q134.468 1069.66 132.64 1066.12 Q130.834 1062.56 127.2 1062.56 M127.2 1058.85 Q133.01 1058.85 136.066 1063.46 Q139.144 1068.04 139.144 1076.79 Q139.144 1085.52 136.066 1090.13 Q133.01 1094.71 127.2 1094.71 Q121.39 1094.71 118.311 1090.13 Q115.256 1085.52 115.256 1076.79 Q115.256 1068.04 118.311 1063.46 Q121.39 1058.85 127.2 1058.85 Z" fill="#000000" fill-rule="evenodd" fill-opacity="1" /><path clip-path="url(#clip280)" d="M147.362 1088.16 L152.246 1088.16 L152.246 1094.04 L147.362 1094.04 L147.362 1088.16 Z" fill="#000000" fill-rule="evenodd" fill-opacity="1" /><path clip-path="url(#clip280)" d="M172.431 1062.56 Q168.82 1062.56 166.991 1066.12 Q165.186 1069.66 165.186 1076.79 Q165.186 1083.9 166.991 1087.47 Q168.82 1091.01 172.431 1091.01 Q176.065 1091.01 177.871 1087.47 Q179.7 1083.9 179.7 1076.79 Q179.7 1069.66 177.871 1066.12 Q176.065 1062.56 172.431 1062.56 M172.431 1058.85 Q178.241 1058.85 181.297 1063.46 Q184.376 1068.04 184.376 1076.79 Q184.376 1085.52 181.297 1090.13 Q178.241 1094.71 172.431 1094.71 Q166.621 1094.71 163.542 1090.13 Q160.487 1085.52 160.487 1076.79 Q160.487 1068.04 163.542 1063.46 Q166.621 1058.85 172.431 1058.85 Z" fill="#000000" fill-rule="evenodd" fill-opacity="1" /><path clip-path="url(#clip280)" d="M196.621 1090.1 L212.94 1090.1 L212.94 1094.04 L190.996 1094.04 L190.996 1090.1 Q193.658 1087.35 198.241 1082.72 Q202.848 1078.07 204.028 1076.72 Q206.274 1074.2 207.153 1072.47 Q208.056 1070.71 208.056 1069.02 Q208.056 1066.26 206.112 1064.53 Q204.19 1062.79 201.088 1062.79 Q198.889 1062.79 196.436 1063.55 Q194.005 1064.32 191.227 1065.87 L191.227 1061.15 Q194.051 1060.01 196.505 1059.43 Q198.959 1058.85 200.996 1058.85 Q206.366 1058.85 209.561 1061.54 Q212.755 1064.22 212.755 1068.72 Q212.755 1070.85 211.945 1072.77 Q211.158 1074.66 209.051 1077.26 Q208.473 1077.93 205.371 1081.15 Q202.269 1084.34 196.621 1090.1 Z" fill="#000000" fill-rule="evenodd" fill-opacity="1" /><path clip-path="url(#clip280)" d="M222.801 1059.48 L241.158 1059.48 L241.158 1063.41 L227.084 1063.41 L227.084 1071.89 Q228.102 1071.54 229.121 1071.38 Q230.139 1071.19 231.158 1071.19 Q236.945 1071.19 240.324 1074.36 Q243.704 1077.54 243.704 1082.95 Q243.704 1088.53 240.232 1091.63 Q236.76 1094.71 230.44 1094.71 Q228.264 1094.71 225.996 1094.34 Q223.75 1093.97 221.343 1093.23 L221.343 1088.53 Q223.426 1089.66 225.648 1090.22 Q227.871 1090.78 230.347 1090.78 Q234.352 1090.78 236.69 1088.67 Q239.028 1086.56 239.028 1082.95 Q239.028 1079.34 236.69 1077.23 Q234.352 1075.13 230.347 1075.13 Q228.473 1075.13 226.598 1075.54 Q224.746 1075.96 222.801 1076.84 L222.801 1059.48 Z" fill="#000000" fill-rule="evenodd" fill-opacity="1" /><path clip-path="url(#clip280)" d="M126.205 752.152 Q122.593 752.152 120.765 755.717 Q118.959 759.258 118.959 766.388 Q118.959 773.494 120.765 777.059 Q122.593 780.601 126.205 780.601 Q129.839 780.601 131.644 777.059 Q133.473 773.494 133.473 766.388 Q133.473 759.258 131.644 755.717 Q129.839 752.152 126.205 752.152 M126.205 748.448 Q132.015 748.448 135.07 753.055 Q138.149 757.638 138.149 766.388 Q138.149 775.115 135.07 779.721 Q132.015 784.304 126.205 784.304 Q120.394 784.304 117.316 779.721 Q114.26 775.115 114.26 766.388 Q114.26 757.638 117.316 753.055 Q120.394 748.448 126.205 748.448 Z" fill="#000000" fill-rule="evenodd" fill-opacity="1" /><path clip-path="url(#clip280)" d="M146.366 777.753 L151.251 777.753 L151.251 783.633 L146.366 783.633 L146.366 777.753 Z" fill="#000000" fill-rule="evenodd" fill-opacity="1" /><path clip-path="url(#clip280)" d="M171.436 752.152 Q167.825 752.152 165.996 755.717 Q164.19 759.258 164.19 766.388 Q164.19 773.494 165.996 777.059 Q167.825 780.601 171.436 780.601 Q175.07 780.601 176.876 777.059 Q178.704 773.494 178.704 766.388 Q178.704 759.258 176.876 755.717 Q175.07 752.152 171.436 752.152 M171.436 748.448 Q177.246 748.448 180.301 753.055 Q183.38 757.638 183.38 766.388 Q183.38 775.115 180.301 779.721 Q177.246 784.304 171.436 784.304 Q165.626 784.304 162.547 779.721 Q159.491 775.115 159.491 766.388 Q159.491 757.638 162.547 753.055 Q165.626 748.448 171.436 748.448 Z" fill="#000000" fill-rule="evenodd" fill-opacity="1" /><path clip-path="url(#clip280)" d="M191.644 749.073 L210 749.073 L210 753.008 L195.926 753.008 L195.926 761.48 Q196.945 761.133 197.963 760.971 Q198.982 760.786 200 760.786 Q205.787 760.786 209.167 763.957 Q212.547 767.129 212.547 772.545 Q212.547 778.124 209.074 781.226 Q205.602 784.304 199.283 784.304 Q197.107 784.304 194.838 783.934 Q192.593 783.564 190.186 782.823 L190.186 778.124 Q192.269 779.258 194.491 779.814 Q196.713 780.369 199.19 780.369 Q203.195 780.369 205.533 778.263 Q207.871 776.156 207.871 772.545 Q207.871 768.934 205.533 766.828 Q203.195 764.721 199.19 764.721 Q197.315 764.721 195.44 765.138 Q193.588 765.554 191.644 766.434 L191.644 749.073 Z" fill="#000000" fill-rule="evenodd" fill-opacity="1" /><path clip-path="url(#clip280)" d="M231.76 752.152 Q228.148 752.152 226.32 755.717 Q224.514 759.258 224.514 766.388 Q224.514 773.494 226.32 777.059 Q228.148 780.601 231.76 780.601 Q235.394 780.601 237.199 777.059 Q239.028 773.494 239.028 766.388 Q239.028 759.258 237.199 755.717 Q235.394 752.152 231.76 752.152 M231.76 748.448 Q237.57 748.448 240.625 753.055 Q243.704 757.638 243.704 766.388 Q243.704 775.115 240.625 779.721 Q237.57 784.304 231.76 784.304 Q225.949 784.304 222.871 779.721 Q219.815 775.115 219.815 766.388 Q219.815 757.638 222.871 753.055 Q225.949 748.448 231.76 748.448 Z" fill="#000000" fill-rule="evenodd" fill-opacity="1" /><path clip-path="url(#clip280)" d="M127.2 441.745 Q123.589 441.745 121.76 445.31 Q119.955 448.852 119.955 455.981 Q119.955 463.088 121.76 466.652 Q123.589 470.194 127.2 470.194 Q130.834 470.194 132.64 466.652 Q134.468 463.088 134.468 455.981 Q134.468 448.852 132.64 445.31 Q130.834 441.745 127.2 441.745 M127.2 438.042 Q133.01 438.042 136.066 442.648 Q139.144 447.231 139.144 455.981 Q139.144 464.708 136.066 469.314 Q133.01 473.898 127.2 473.898 Q121.39 473.898 118.311 469.314 Q115.256 464.708 115.256 455.981 Q115.256 447.231 118.311 442.648 Q121.39 438.042 127.2 438.042 Z" fill="#000000" fill-rule="evenodd" fill-opacity="1" /><path clip-path="url(#clip280)" d="M147.362 467.347 L152.246 467.347 L152.246 473.226 L147.362 473.226 L147.362 467.347 Z" fill="#000000" fill-rule="evenodd" fill-opacity="1" /><path clip-path="url(#clip280)" d="M172.431 441.745 Q168.82 441.745 166.991 445.31 Q165.186 448.852 165.186 455.981 Q165.186 463.088 166.991 466.652 Q168.82 470.194 172.431 470.194 Q176.065 470.194 177.871 466.652 Q179.7 463.088 179.7 455.981 Q179.7 448.852 177.871 445.31 Q176.065 441.745 172.431 441.745 M172.431 438.042 Q178.241 438.042 181.297 442.648 Q184.376 447.231 184.376 455.981 Q184.376 464.708 181.297 469.314 Q178.241 473.898 172.431 473.898 Q166.621 473.898 163.542 469.314 Q160.487 464.708 160.487 455.981 Q160.487 447.231 163.542 442.648 Q166.621 438.042 172.431 438.042 Z" fill="#000000" fill-rule="evenodd" fill-opacity="1" /><path clip-path="url(#clip280)" d="M191.413 438.666 L213.635 438.666 L213.635 440.657 L201.088 473.226 L196.204 473.226 L208.01 442.602 L191.413 442.602 L191.413 438.666 Z" fill="#000000" fill-rule="evenodd" fill-opacity="1" /><path clip-path="url(#clip280)" d="M222.801 438.666 L241.158 438.666 L241.158 442.602 L227.084 442.602 L227.084 451.074 Q228.102 450.727 229.121 450.565 Q230.139 450.379 231.158 450.379 Q236.945 450.379 240.324 453.551 Q243.704 456.722 243.704 462.139 Q243.704 467.717 240.232 470.819 Q236.76 473.898 230.44 473.898 Q228.264 473.898 225.996 473.527 Q223.75 473.157 221.343 472.416 L221.343 467.717 Q223.426 468.852 225.648 469.407 Q227.871 469.963 230.347 469.963 Q234.352 469.963 236.69 467.856 Q239.028 465.75 239.028 462.139 Q239.028 458.528 236.69 456.421 Q234.352 454.315 230.347 454.315 Q228.473 454.315 226.598 454.731 Q224.746 455.148 222.801 456.028 L222.801 438.666 Z" fill="#000000" fill-rule="evenodd" fill-opacity="1" /><path clip-path="url(#clip280)" d="M126.205 131.339 Q122.593 131.339 120.765 134.903 Q118.959 138.445 118.959 145.575 Q118.959 152.681 120.765 156.246 Q122.593 159.788 126.205 159.788 Q129.839 159.788 131.644 156.246 Q133.473 152.681 133.473 145.575 Q133.473 138.445 131.644 134.903 Q129.839 131.339 126.205 131.339 M126.205 127.635 Q132.015 127.635 135.07 132.241 Q138.149 136.825 138.149 145.575 Q138.149 154.301 135.07 158.908 Q132.015 163.491 126.205 163.491 Q120.394 163.491 117.316 158.908 Q114.26 154.301 114.26 145.575 Q114.26 136.825 117.316 132.241 Q120.394 127.635 126.205 127.635 Z" fill="#000000" fill-rule="evenodd" fill-opacity="1" /><path clip-path="url(#clip280)" d="M146.366 156.94 L151.251 156.94 L151.251 162.82 L146.366 162.82 L146.366 156.94 Z" fill="#000000" fill-rule="evenodd" fill-opacity="1" /><path clip-path="url(#clip280)" d="M162.246 158.885 L169.885 158.885 L169.885 132.519 L161.575 134.186 L161.575 129.927 L169.839 128.26 L174.514 128.26 L174.514 158.885 L182.153 158.885 L182.153 162.82 L162.246 162.82 L162.246 158.885 Z" fill="#000000" fill-rule="evenodd" fill-opacity="1" /><path clip-path="url(#clip280)" d="M201.598 131.339 Q197.987 131.339 196.158 134.903 Q194.352 138.445 194.352 145.575 Q194.352 152.681 196.158 156.246 Q197.987 159.788 201.598 159.788 Q205.232 159.788 207.037 156.246 Q208.866 152.681 208.866 145.575 Q208.866 138.445 207.037 134.903 Q205.232 131.339 201.598 131.339 M201.598 127.635 Q207.408 127.635 210.463 132.241 Q213.542 136.825 213.542 145.575 Q213.542 154.301 210.463 158.908 Q207.408 163.491 201.598 163.491 Q195.787 163.491 192.709 158.908 Q189.653 154.301 189.653 145.575 Q189.653 136.825 192.709 132.241 Q195.787 127.635 201.598 127.635 Z" fill="#000000" fill-rule="evenodd" fill-opacity="1" /><path clip-path="url(#clip280)" d="M231.76 131.339 Q228.148 131.339 226.32 134.903 Q224.514 138.445 224.514 145.575 Q224.514 152.681 226.32 156.246 Q228.148 159.788 231.76 159.788 Q235.394 159.788 237.199 156.246 Q239.028 152.681 239.028 145.575 Q239.028 138.445 237.199 134.903 Q235.394 131.339 231.76 131.339 M231.76 127.635 Q237.57 127.635 240.625 132.241 Q243.704 136.825 243.704 145.575 Q243.704 154.301 240.625 158.908 Q237.57 163.491 231.76 163.491 Q225.949 163.491 222.871 158.908 Q219.815 154.301 219.815 145.575 Q219.815 136.825 222.871 132.241 Q225.949 127.635 231.76 127.635 Z" fill="#000000" fill-rule="evenodd" fill-opacity="1" /><path clip-path="url(#clip280)" d="M27.2366 806.044 Q28.6537 806.044 29.7164 807.204 Q30.747 808.331 30.747 809.555 Q30.747 810.682 30.0707 811.391 Q29.3622 812.067 28.3638 812.067 Q27.0434 812.067 25.9484 810.94 Q24.8534 809.812 24.8534 808.492 Q24.8534 807.397 25.5297 806.721 Q26.206 806.044 27.2366 806.044 M59.0238 805.465 Q59.2814 805.465 60.312 805.755 Q61.3104 806.044 62.8563 806.753 Q64.37 807.429 65.787 808.363 Q67.2041 809.297 68.2024 810.843 Q69.2008 812.357 69.2008 814.096 Q69.2008 816.447 67.6549 817.993 Q66.1091 819.506 63.7902 819.506 Q62.5342 819.506 58.5085 817.993 Q46.7856 813.613 46.3025 813.452 Q44.4667 812.711 42.8564 812.711 Q42.1157 812.711 41.6648 812.872 Q41.1817 813.033 41.0207 813.355 Q40.8275 813.677 40.7953 813.87 Q40.7631 814.031 40.7631 814.354 Q40.7631 816.254 42.6954 818.025 Q44.6278 819.796 48.9433 821.02 Q49.7485 821.278 49.9417 821.439 Q50.135 821.6 50.135 822.083 Q50.1028 822.888 49.4586 822.888 Q49.2654 822.888 48.5247 822.663 Q47.7517 822.437 46.5923 822.018 Q45.4007 821.6 44.1769 820.859 Q42.9208 820.118 41.8258 819.217 Q40.7308 818.283 40.0223 816.962 Q39.3138 815.642 39.3138 814.16 Q39.3138 811.745 40.8919 810.263 Q42.4378 808.75 44.7244 808.75 Q45.9804 808.75 48.2026 809.619 Q51.1011 810.682 52.0351 811.069 L58.9594 813.645 Q61.4714 814.579 62.2444 814.869 Q62.9851 815.126 63.8869 815.352 Q64.7564 815.545 65.5616 815.545 Q66.6888 815.545 67.2041 815.191 Q67.7194 814.804 67.7194 813.967 Q67.7194 811.648 65.4327 809.941 Q63.1139 808.234 59.5713 807.236 Q59.4747 807.204 59.3136 807.172 Q58.5085 806.914 58.4119 806.656 Q58.3797 806.527 58.3797 806.27 Q58.3797 805.465 59.0238 805.465 Z" fill="#000000" fill-rule="evenodd" fill-opacity="1" /><path clip-path="url(#clip280)" d="M51.9707 794.824 Q40.8275 794.824 31.842 790.669 Q28.0739 788.898 24.9178 786.418 Q21.7616 783.938 20.3767 782.296 Q18.9919 780.653 18.9919 780.202 Q18.9919 779.558 19.636 779.526 Q19.9581 779.526 20.7632 780.395 Q31.5844 791.023 51.9707 790.991 Q72.4214 790.991 82.8239 780.653 Q83.9511 779.526 84.3054 779.526 Q84.9495 779.526 84.9495 780.202 Q84.9495 780.653 83.6291 782.231 Q82.3086 783.809 79.2813 786.257 Q76.2539 788.705 72.5502 790.476 Q63.5648 794.824 51.9707 794.824 Z" fill="#000000" fill-rule="evenodd" fill-opacity="1" /><path clip-path="url(#clip280)" d="M40.7631 754.255 Q41.6648 754.255 41.8903 754.673 Q42.0835 755.092 42.0835 756.252 L42.0835 762.435 L61.5358 767.33 Q63.2427 767.717 64.692 767.717 Q66.3023 767.717 67.0108 767.234 Q67.7194 766.718 67.7194 765.656 Q67.7194 763.562 65.8192 761.308 Q63.9191 759.021 59.2814 757.089 Q58.6695 756.831 58.5407 756.702 Q58.3797 756.541 58.3797 756.123 Q58.3797 755.318 59.0238 755.318 Q59.2492 755.318 60.2798 755.768 Q61.3104 756.187 62.8241 757.121 Q64.3377 758.023 65.7548 759.215 Q67.1719 760.374 68.2024 762.145 Q69.2008 763.917 69.2008 765.817 Q69.2008 768.49 67.4939 770.197 Q65.787 771.871 63.1139 771.871 Q62.2444 771.871 59.4747 771.195 Q56.6727 770.519 42.0835 766.847 L42.0835 772.677 Q42.0835 773.482 42.0513 773.804 Q42.0191 774.094 41.8581 774.319 Q41.6648 774.512 41.2783 774.512 Q40.6664 774.512 40.4088 774.255 Q40.1189 773.997 40.0867 773.675 Q40.0223 773.321 40.0223 772.516 L40.0223 766.332 L29.5554 763.756 Q28.5248 763.498 27.9451 762.854 Q27.3332 762.177 27.2688 761.791 Q27.1722 761.405 27.1722 761.115 Q27.1722 760.245 27.6553 759.73 Q28.1062 759.215 28.9435 759.215 Q29.3944 759.215 40.0223 761.92 L40.0223 756.123 Q40.0223 755.382 40.0545 755.092 Q40.0867 754.77 40.2478 754.512 Q40.4088 754.255 40.7631 754.255 Z" fill="#000000" fill-rule="evenodd" fill-opacity="1" /><path clip-path="url(#clip280)" d="M84.3054 749.091 Q83.9833 749.091 83.1782 748.254 Q72.357 737.626 51.9707 737.626 Q31.52 737.626 21.1819 747.835 Q19.9903 749.091 19.636 749.091 Q18.9919 749.091 18.9919 748.447 Q18.9919 747.996 20.3123 746.418 Q21.6328 744.808 24.6601 742.393 Q27.6875 739.945 31.3911 738.141 Q40.3766 733.794 51.9707 733.794 Q63.1139 733.794 72.0994 737.948 Q75.8674 739.719 79.0236 742.199 Q82.1798 744.679 83.5646 746.322 Q84.9495 747.964 84.9495 748.447 Q84.9495 749.091 84.3054 749.091 Z" fill="#000000" fill-rule="evenodd" fill-opacity="1" /><path clip-path="url(#clip280)" d="M666.222 17.6457 Q657.31 17.6457 652.044 24.2892 Q646.818 30.9327 646.818 42.3968 Q646.818 53.8203 652.044 60.4638 Q657.31 67.1073 666.222 67.1073 Q675.134 67.1073 680.319 60.4638 Q685.545 53.8203 685.545 42.3968 Q685.545 30.9327 680.319 24.2892 Q675.134 17.6457 666.222 17.6457 M677.686 71.4823 L688.461 83.2704 L678.577 83.2704 L669.625 73.5887 Q668.288 73.6697 667.559 73.7103 Q666.87 73.7508 666.222 73.7508 Q653.461 73.7508 645.805 65.2439 Q638.19 56.6965 638.19 42.3968 Q638.19 28.0566 645.805 19.5497 Q653.461 11.0023 666.222 11.0023 Q678.942 11.0023 686.557 19.5497 Q694.173 28.0566 694.173 42.3968 Q694.173 52.9291 689.92 60.4233 Q685.707 67.9175 677.686 71.4823 Z" fill="#000000" fill-rule="evenodd" fill-opacity="1" /><path clip-path="url(#clip280)" d="M705.88 54.671 L705.88 27.2059 L713.334 27.2059 L713.334 54.3874 Q713.334 60.8284 715.845 64.0691 Q718.357 67.2693 723.38 67.2693 Q729.416 67.2693 732.9 63.421 Q736.424 59.5726 736.424 52.9291 L736.424 27.2059 L743.878 27.2059 L743.878 72.576 L736.424 72.576 L736.424 65.6084 Q733.71 69.7404 730.105 71.7658 Q726.54 73.7508 721.8 73.7508 Q713.982 73.7508 709.931 68.8897 Q705.88 64.0286 705.88 54.671 M724.636 26.1121 L724.636 26.1121 Z" fill="#000000" fill-rule="evenodd" fill-opacity="1" /><path clip-path="url(#clip280)" d="M779.85 49.7694 Q770.816 49.7694 767.332 51.8354 Q763.849 53.9013 763.849 58.8839 Q763.849 62.8538 766.441 65.2034 Q769.074 67.5124 773.571 67.5124 Q779.769 67.5124 783.495 63.1374 Q787.263 58.7219 787.263 51.4303 L787.263 49.7694 L779.85 49.7694 M794.716 46.6907 L794.716 72.576 L787.263 72.576 L787.263 65.6895 Q784.711 69.8214 780.903 71.8063 Q777.095 73.7508 771.586 73.7508 Q764.618 73.7508 760.486 69.8619 Q756.395 65.9325 756.395 59.3701 Q756.395 51.7138 761.499 47.825 Q766.644 43.9361 776.812 43.9361 L787.263 43.9361 L787.263 43.2069 Q787.263 38.0623 783.86 35.2672 Q780.498 32.4315 774.381 32.4315 Q770.492 32.4315 766.806 33.3632 Q763.119 34.295 759.717 36.1584 L759.717 29.2718 Q763.808 27.692 767.656 26.9223 Q771.505 26.1121 775.151 26.1121 Q784.994 26.1121 789.855 31.2163 Q794.716 36.3204 794.716 46.6907 Z" fill="#000000" fill-rule="evenodd" fill-opacity="1" /><path clip-path="url(#clip280)" d="M847.783 45.1919 L847.783 72.576 L840.33 72.576 L840.33 45.4349 Q840.33 38.994 837.818 35.7938 Q835.307 32.5936 830.283 32.5936 Q824.248 32.5936 820.764 36.4419 Q817.28 40.2903 817.28 46.9338 L817.28 72.576 L809.786 72.576 L809.786 27.2059 L817.28 27.2059 L817.28 34.2544 Q819.954 30.163 823.559 28.1376 Q827.205 26.1121 831.944 26.1121 Q839.763 26.1121 843.773 30.9732 Q847.783 35.7938 847.783 45.1919 Z" fill="#000000" fill-rule="evenodd" fill-opacity="1" /><path clip-path="url(#clip280)" d="M870.023 14.324 L870.023 27.2059 L885.376 27.2059 L885.376 32.9987 L870.023 32.9987 L870.023 57.6282 Q870.023 63.1779 871.522 64.7578 Q873.061 66.3376 877.72 66.3376 L885.376 66.3376 L885.376 72.576 L877.72 72.576 Q869.091 72.576 865.81 69.3758 Q862.529 66.1351 862.529 57.6282 L862.529 32.9987 L857.06 32.9987 L857.06 27.2059 L862.529 27.2059 L862.529 14.324 L870.023 14.324 Z" fill="#000000" fill-rule="evenodd" fill-opacity="1" /><path clip-path="url(#clip280)" d="M895.179 27.2059 L902.633 27.2059 L902.633 72.576 L895.179 72.576 L895.179 27.2059 M895.179 9.54393 L902.633 9.54393 L902.633 18.9825 L895.179 18.9825 L895.179 9.54393 Z" fill="#000000" fill-rule="evenodd" fill-opacity="1" /><path clip-path="url(#clip280)" d="M918.229 9.54393 L925.682 9.54393 L925.682 72.576 L918.229 72.576 L918.229 9.54393 Z" fill="#000000" fill-rule="evenodd" fill-opacity="1" /><path clip-path="url(#clip280)" d="M980.086 48.0275 L980.086 51.6733 L945.815 51.6733 Q946.301 59.3701 950.433 63.421 Q954.606 67.4314 962.019 67.4314 Q966.313 67.4314 970.323 66.3781 Q974.374 65.3249 978.344 63.2184 L978.344 70.267 Q974.334 71.9684 970.121 72.8596 Q965.908 73.7508 961.573 73.7508 Q950.717 73.7508 944.357 67.4314 Q938.037 61.1119 938.037 50.3365 Q938.037 39.1965 944.033 32.6746 Q950.069 26.1121 960.277 26.1121 Q969.432 26.1121 974.739 32.0264 Q980.086 37.9003 980.086 48.0275 M972.632 45.84 Q972.551 39.7232 969.189 36.0774 Q965.867 32.4315 960.358 32.4315 Q954.12 32.4315 950.352 35.9558 Q946.625 39.4801 946.058 45.8805 L972.632 45.84 Z" fill="#000000" fill-rule="evenodd" fill-opacity="1" /><path clip-path="url(#clip280)" d="M1021.24 28.5427 L1021.24 35.5912 Q1018.08 33.9709 1014.68 33.1607 Q1011.28 32.3505 1007.63 32.3505 Q1002.08 32.3505 999.287 34.0519 Q996.533 35.7533 996.533 39.156 Q996.533 41.7486 998.517 43.2475 Q1000.5 44.7058 1006.5 46.0426 L1009.05 46.6097 Q1016.99 48.3111 1020.31 51.4303 Q1023.67 54.509 1023.67 60.0587 Q1023.67 66.3781 1018.65 70.0644 Q1013.67 73.7508 1004.92 73.7508 Q1001.27 73.7508 997.302 73.0216 Q993.373 72.3329 988.998 70.9151 L988.998 63.2184 Q993.13 65.3654 997.14 66.4591 Q1001.15 67.5124 1005.08 67.5124 Q1010.35 67.5124 1013.18 65.73 Q1016.02 63.9071 1016.02 60.6258 Q1016.02 57.5877 1013.95 55.9673 Q1011.93 54.3469 1005 52.8481 L1002.41 52.2405 Q995.479 50.7821 992.401 47.7845 Q989.322 44.7463 989.322 39.4801 Q989.322 33.0797 993.859 29.5959 Q998.396 26.1121 1006.74 26.1121 Q1010.87 26.1121 1014.52 26.7198 Q1018.16 27.3274 1021.24 28.5427 Z" fill="#000000" fill-rule="evenodd" fill-opacity="1" /><path clip-path="url(#clip280)" d="M1079.5 32.4315 Q1073.5 32.4315 1070.02 37.1306 Q1066.53 41.7891 1066.53 49.9314 Q1066.53 58.0738 1069.98 62.7728 Q1073.46 67.4314 1079.5 67.4314 Q1085.45 67.4314 1088.93 62.7323 Q1092.42 58.0333 1092.42 49.9314 Q1092.42 41.8701 1088.93 37.1711 Q1085.45 32.4315 1079.5 32.4315 M1079.5 26.1121 Q1089.22 26.1121 1094.77 32.4315 Q1100.32 38.7509 1100.32 49.9314 Q1100.32 61.0714 1094.77 67.4314 Q1089.22 73.7508 1079.5 73.7508 Q1069.73 73.7508 1064.18 67.4314 Q1058.67 61.0714 1058.67 49.9314 Q1058.67 38.7509 1064.18 32.4315 Q1069.73 26.1121 1079.5 26.1121 Z" fill="#000000" fill-rule="evenodd" fill-opacity="1" /><path clip-path="url(#clip280)" d="M1135.64 9.54393 L1135.64 15.7418 L1128.51 15.7418 Q1124.5 15.7418 1122.92 17.3622 Q1121.38 18.9825 1121.38 23.1955 L1121.38 27.2059 L1133.66 27.2059 L1133.66 32.9987 L1121.38 32.9987 L1121.38 72.576 L1113.89 72.576 L1113.89 32.9987 L1106.76 32.9987 L1106.76 27.2059 L1113.89 27.2059 L1113.89 24.0462 Q1113.89 16.471 1117.41 13.0277 Q1120.94 9.54393 1128.59 9.54393 L1135.64 9.54393 Z" fill="#000000" fill-rule="evenodd" fill-opacity="1" /><path clip-path="url(#clip280)" d="M1168.57 12.096 L1176.76 12.096 L1176.76 72.576 L1168.57 72.576 L1168.57 12.096 Z" fill="#000000" fill-rule="evenodd" fill-opacity="1" /><path clip-path="url(#clip280)" d="M1230.43 45.1919 L1230.43 72.576 L1222.98 72.576 L1222.98 45.4349 Q1222.98 38.994 1220.47 35.7938 Q1217.95 32.5936 1212.93 32.5936 Q1206.9 32.5936 1203.41 36.4419 Q1199.93 40.2903 1199.93 46.9338 L1199.93 72.576 L1192.43 72.576 L1192.43 27.2059 L1199.93 27.2059 L1199.93 34.2544 Q1202.6 30.163 1206.21 28.1376 Q1209.85 26.1121 1214.59 26.1121 Q1222.41 26.1121 1226.42 30.9732 Q1230.43 35.7938 1230.43 45.1919 Z" fill="#000000" fill-rule="evenodd" fill-opacity="1" /><path clip-path="url(#clip280)" d="M1268.27 9.54393 L1268.27 15.7418 L1261.14 15.7418 Q1257.13 15.7418 1255.55 17.3622 Q1254.01 18.9825 1254.01 23.1955 L1254.01 27.2059 L1266.28 27.2059 L1266.28 32.9987 L1254.01 32.9987 L1254.01 72.576 L1246.51 72.576 L1246.51 32.9987 L1239.38 32.9987 L1239.38 27.2059 L1246.51 27.2059 L1246.51 24.0462 Q1246.51 16.471 1250.04 13.0277 Q1253.56 9.54393 1261.22 9.54393 L1268.27 9.54393 Z" fill="#000000" fill-rule="evenodd" fill-opacity="1" /><path clip-path="url(#clip280)" d="M1313.31 48.0275 L1313.31 51.6733 L1279.04 51.6733 Q1279.53 59.3701 1283.66 63.421 Q1287.83 67.4314 1295.25 67.4314 Q1299.54 67.4314 1303.55 66.3781 Q1307.6 65.3249 1311.57 63.2184 L1311.57 70.267 Q1307.56 71.9684 1303.35 72.8596 Q1299.14 73.7508 1294.8 73.7508 Q1283.94 73.7508 1277.58 67.4314 Q1271.26 61.1119 1271.26 50.3365 Q1271.26 39.1965 1277.26 32.6746 Q1283.3 26.1121 1293.5 26.1121 Q1302.66 26.1121 1307.97 32.0264 Q1313.31 37.9003 1313.31 48.0275 M1305.86 45.84 Q1305.78 39.7232 1302.42 36.0774 Q1299.09 32.4315 1293.59 32.4315 Q1287.35 32.4315 1283.58 35.9558 Q1279.85 39.4801 1279.29 45.8805 L1305.86 45.84 Z" fill="#000000" fill-rule="evenodd" fill-opacity="1" /><path clip-path="url(#clip280)" d="M1358.2 28.9478 L1358.2 35.9153 Q1355.04 34.1734 1351.84 33.3227 Q1348.68 32.4315 1345.44 32.4315 Q1338.19 32.4315 1334.18 37.0496 Q1330.17 41.6271 1330.17 49.9314 Q1330.17 58.2358 1334.18 62.8538 Q1338.19 67.4314 1345.44 67.4314 Q1348.68 67.4314 1351.84 66.5807 Q1355.04 65.6895 1358.2 63.9476 L1358.2 70.8341 Q1355.08 72.2924 1351.72 73.0216 Q1348.39 73.7508 1344.63 73.7508 Q1334.38 73.7508 1328.34 67.3098 Q1322.31 60.8689 1322.31 49.9314 Q1322.31 38.832 1328.38 32.472 Q1334.5 26.1121 1345.11 26.1121 Q1348.56 26.1121 1351.84 26.8413 Q1355.12 27.5299 1358.2 28.9478 Z" fill="#000000" fill-rule="evenodd" fill-opacity="1" /><path clip-path="url(#clip280)" d="M1378.53 14.324 L1378.53 27.2059 L1393.89 27.2059 L1393.89 32.9987 L1378.53 32.9987 L1378.53 57.6282 Q1378.53 63.1779 1380.03 64.7578 Q1381.57 66.3376 1386.23 66.3376 L1393.89 66.3376 L1393.89 72.576 L1386.23 72.576 Q1377.6 72.576 1374.32 69.3758 Q1371.04 66.1351 1371.04 57.6282 L1371.04 32.9987 L1365.57 32.9987 L1365.57 27.2059 L1371.04 27.2059 L1371.04 14.324 L1378.53 14.324 Z" fill="#000000" fill-rule="evenodd" fill-opacity="1" /><path clip-path="url(#clip280)" d="M1403.69 27.2059 L1411.14 27.2059 L1411.14 72.576 L1403.69 72.576 L1403.69 27.2059 M1403.69 9.54393 L1411.14 9.54393 L1411.14 18.9825 L1403.69 18.9825 L1403.69 9.54393 Z" fill="#000000" fill-rule="evenodd" fill-opacity="1" /><path clip-path="url(#clip280)" d="M1444.32 32.4315 Q1438.32 32.4315 1434.84 37.1306 Q1431.36 41.7891 1431.36 49.9314 Q1431.36 58.0738 1434.8 62.7728 Q1438.28 67.4314 1444.32 67.4314 Q1450.27 67.4314 1453.76 62.7323 Q1457.24 58.0333 1457.24 49.9314 Q1457.24 41.8701 1453.76 37.1711 Q1450.27 32.4315 1444.32 32.4315 M1444.32 26.1121 Q1454.04 26.1121 1459.59 32.4315 Q1465.14 38.7509 1465.14 49.9314 Q1465.14 61.0714 1459.59 67.4314 Q1454.04 73.7508 1444.32 73.7508 Q1434.56 73.7508 1429.01 67.4314 Q1423.5 61.0714 1423.5 49.9314 Q1423.5 38.7509 1429.01 32.4315 Q1434.56 26.1121 1444.32 26.1121 Z" fill="#000000" fill-rule="evenodd" fill-opacity="1" /><path clip-path="url(#clip280)" d="M1515.21 45.1919 L1515.21 72.576 L1507.76 72.576 L1507.76 45.4349 Q1507.76 38.994 1505.25 35.7938 Q1502.73 32.5936 1497.71 32.5936 Q1491.67 32.5936 1488.19 36.4419 Q1484.71 40.2903 1484.71 46.9338 L1484.71 72.576 L1477.21 72.576 L1477.21 27.2059 L1484.71 27.2059 L1484.71 34.2544 Q1487.38 30.163 1490.99 28.1376 Q1494.63 26.1121 1499.37 26.1121 Q1507.19 26.1121 1511.2 30.9732 Q1515.21 35.7938 1515.21 45.1919 Z" fill="#000000" fill-rule="evenodd" fill-opacity="1" /><path clip-path="url(#clip280)" d="M1559 28.5427 L1559 35.5912 Q1555.84 33.9709 1552.44 33.1607 Q1549.04 32.3505 1545.39 32.3505 Q1539.84 32.3505 1537.04 34.0519 Q1534.29 35.7533 1534.29 39.156 Q1534.29 41.7486 1536.28 43.2475 Q1538.26 44.7058 1544.26 46.0426 L1546.81 46.6097 Q1554.75 48.3111 1558.07 51.4303 Q1561.43 54.509 1561.43 60.0587 Q1561.43 66.3781 1556.41 70.0644 Q1551.43 73.7508 1542.68 73.7508 Q1539.03 73.7508 1535.06 73.0216 Q1531.13 72.3329 1526.76 70.9151 L1526.76 63.2184 Q1530.89 65.3654 1534.9 66.4591 Q1538.91 67.5124 1542.84 67.5124 Q1548.1 67.5124 1550.94 65.73 Q1553.77 63.9071 1553.77 60.6258 Q1553.77 57.5877 1551.71 55.9673 Q1549.68 54.3469 1542.76 52.8481 L1540.16 52.2405 Q1533.24 50.7821 1530.16 47.7845 Q1527.08 44.7463 1527.08 39.4801 Q1527.08 33.0797 1531.62 29.5959 Q1536.15 26.1121 1544.5 26.1121 Q1548.63 26.1121 1552.28 26.7198 Q1555.92 27.3274 1559 28.5427 Z" fill="#000000" fill-rule="evenodd" fill-opacity="1" /><path clip-path="url(#clip280)" d="M1600 12.096 L1638.24 12.096 L1638.24 18.9825 L1608.18 18.9825 L1608.18 36.8875 L1636.98 36.8875 L1636.98 43.7741 L1608.18 43.7741 L1608.18 65.6895 L1638.97 65.6895 L1638.97 72.576 L1600 72.576 L1600 12.096 Z" fill="#000000" fill-rule="evenodd" fill-opacity="1" /><path clip-path="url(#clip280)" d="M1689.8 45.1919 L1689.8 72.576 L1682.35 72.576 L1682.35 45.4349 Q1682.35 38.994 1679.84 35.7938 Q1677.33 32.5936 1672.3 32.5936 Q1666.27 32.5936 1662.78 36.4419 Q1659.3 40.2903 1659.3 46.9338 L1659.3 72.576 L1651.81 72.576 L1651.81 27.2059 L1659.3 27.2059 L1659.3 34.2544 Q1661.97 30.163 1665.58 28.1376 Q1669.23 26.1121 1673.97 26.1121 Q1681.78 26.1121 1685.79 30.9732 Q1689.8 35.7938 1689.8 45.1919 Z" fill="#000000" fill-rule="evenodd" fill-opacity="1" /><path clip-path="url(#clip280)" d="M1733.59 28.5427 L1733.59 35.5912 Q1730.43 33.9709 1727.03 33.1607 Q1723.63 32.3505 1719.98 32.3505 Q1714.43 32.3505 1711.64 34.0519 Q1708.88 35.7533 1708.88 39.156 Q1708.88 41.7486 1710.87 43.2475 Q1712.85 44.7058 1718.85 46.0426 L1721.4 46.6097 Q1729.34 48.3111 1732.66 51.4303 Q1736.03 54.509 1736.03 60.0587 Q1736.03 66.3781 1731 70.0644 Q1726.02 73.7508 1717.27 73.7508 Q1713.62 73.7508 1709.65 73.0216 Q1705.72 72.3329 1701.35 70.9151 L1701.35 63.2184 Q1705.48 65.3654 1709.49 66.4591 Q1713.5 67.5124 1717.43 67.5124 Q1722.7 67.5124 1725.53 65.73 Q1728.37 63.9071 1728.37 60.6258 Q1728.37 57.5877 1726.3 55.9673 Q1724.28 54.3469 1717.35 52.8481 L1714.76 52.2405 Q1707.83 50.7821 1704.75 47.7845 Q1701.67 44.7463 1701.67 39.4801 Q1701.67 33.0797 1706.21 29.5959 Q1710.75 26.1121 1719.09 26.1121 Q1723.22 26.1121 1726.87 26.7198 Q1730.52 27.3274 1733.59 28.5427 Z" fill="#000000" fill-rule="evenodd" fill-opacity="1" /><path clip-path="url(#clip280)" d="M1786.7 48.0275 L1786.7 51.6733 L1752.43 51.6733 Q1752.92 59.3701 1757.05 63.421 Q1761.22 67.4314 1768.63 67.4314 Q1772.93 67.4314 1776.94 66.3781 Q1780.99 65.3249 1784.96 63.2184 L1784.96 70.267 Q1780.95 71.9684 1776.74 72.8596 Q1772.52 73.7508 1768.19 73.7508 Q1757.33 73.7508 1750.97 67.4314 Q1744.65 61.1119 1744.65 50.3365 Q1744.65 39.1965 1750.65 32.6746 Q1756.68 26.1121 1766.89 26.1121 Q1776.05 26.1121 1781.35 32.0264 Q1786.7 37.9003 1786.7 48.0275 M1779.25 45.84 Q1779.17 39.7232 1775.8 36.0774 Q1772.48 32.4315 1766.97 32.4315 Q1760.74 32.4315 1756.97 35.9558 Q1753.24 39.4801 1752.67 45.8805 L1779.25 45.84 Z" fill="#000000" fill-rule="evenodd" fill-opacity="1" /><path clip-path="url(#clip280)" d="M1834.26 35.9153 Q1837.05 30.8922 1840.94 28.5022 Q1844.83 26.1121 1850.1 26.1121 Q1857.19 26.1121 1861.04 31.0947 Q1864.88 36.0368 1864.88 45.1919 L1864.88 72.576 L1857.39 72.576 L1857.39 45.4349 Q1857.39 38.913 1855.08 35.7533 Q1852.77 32.5936 1848.03 32.5936 Q1842.24 32.5936 1838.88 36.4419 Q1835.52 40.2903 1835.52 46.9338 L1835.52 72.576 L1828.02 72.576 L1828.02 45.4349 Q1828.02 38.8725 1825.71 35.7533 Q1823.4 32.5936 1818.58 32.5936 Q1812.87 32.5936 1809.51 36.4824 Q1806.15 40.3308 1806.15 46.9338 L1806.15 72.576 L1798.65 72.576 L1798.65 27.2059 L1806.15 27.2059 L1806.15 34.2544 Q1808.7 30.082 1812.26 28.0971 Q1815.83 26.1121 1820.73 26.1121 Q1825.67 26.1121 1829.11 28.6237 Q1832.6 31.1352 1834.26 35.9153 Z" fill="#000000" fill-rule="evenodd" fill-opacity="1" /><path clip-path="url(#clip280)" d="M1912.32 49.9314 Q1912.32 41.7081 1908.92 37.0496 Q1905.56 32.3505 1899.64 32.3505 Q1893.73 32.3505 1890.32 37.0496 Q1886.96 41.7081 1886.96 49.9314 Q1886.96 58.1548 1890.32 62.8538 Q1893.73 67.5124 1899.64 67.5124 Q1905.56 67.5124 1908.92 62.8538 Q1912.32 58.1548 1912.32 49.9314 M1886.96 34.0924 Q1889.31 30.0415 1892.88 28.0971 Q1896.48 26.1121 1901.46 26.1121 Q1909.73 26.1121 1914.87 32.6746 Q1920.06 39.2371 1920.06 49.9314 Q1920.06 60.6258 1914.87 67.1883 Q1909.73 73.7508 1901.46 73.7508 Q1896.48 73.7508 1892.88 71.8063 Q1889.31 69.8214 1886.96 65.7705 L1886.96 72.576 L1879.47 72.576 L1879.47 9.54393 L1886.96 9.54393 L1886.96 34.0924 Z" fill="#000000" fill-rule="evenodd" fill-opacity="1" /><path clip-path="url(#clip280)" d="M1932.41 9.54393 L1939.87 9.54393 L1939.87 72.576 L1932.41 72.576 L1932.41 9.54393 Z" fill="#000000" fill-rule="evenodd" fill-opacity="1" /><path clip-path="url(#clip280)" d="M1994.27 48.0275 L1994.27 51.6733 L1960 51.6733 Q1960.49 59.3701 1964.62 63.421 Q1968.79 67.4314 1976.2 67.4314 Q1980.5 67.4314 1984.51 66.3781 Q1988.56 65.3249 1992.53 63.2184 L1992.53 70.267 Q1988.52 71.9684 1984.31 72.8596 Q1980.09 73.7508 1975.76 73.7508 Q1964.9 73.7508 1958.54 67.4314 Q1952.22 61.1119 1952.22 50.3365 Q1952.22 39.1965 1958.22 32.6746 Q1964.25 26.1121 1974.46 26.1121 Q1983.62 26.1121 1988.92 32.0264 Q1994.27 37.9003 1994.27 48.0275 M1986.82 45.84 Q1986.74 39.7232 1983.37 36.0774 Q1980.05 32.4315 1974.54 32.4315 Q1968.3 32.4315 1964.54 35.9558 Q1960.81 39.4801 1960.24 45.8805 L1986.82 45.84 Z" fill="#000000" fill-rule="evenodd" fill-opacity="1" /><path clip-path="url(#clip283)" d="
M338.375 1386.23 L338.428 1386.23 L338.44 1386.23 L338.454 1386.23 L338.47 1386.23 L338.488 1386.23 L338.509 1386.23 L338.531 1386.23 L338.557 1386.23 L338.585 1386.23 
  L338.618 1386.23 L338.654 1386.23 L338.695 1386.23 L338.741 1386.23 L338.793 1386.23 L338.851 1386.23 L338.916 1386.23 L338.99 1386.23 L339.073 1386.23 L339.166 1386.23 
  L339.271 1386.23 L339.389 1386.23 L339.522 1386.23 L339.671 1386.24 L339.839 1386.24 L340.028 1386.24 L340.236 1386.24 L340.463 1386.24 L340.708 1386.24 L340.971 1386.24 
  L341.249 1386.25 L341.541 1386.25 L341.846 1386.25 L342.164 1386.25 L342.494 1386.25 L342.832 1386.26 L343.179 1386.26 L343.532 1386.26 L343.893 1386.26 L344.26 1386.27 
  L344.632 1386.27 L345.01 1386.27 L345.394 1386.27 L345.786 1386.28 L346.187 1386.28 L346.595 1386.28 L347.01 1386.28 L347.431 1386.29 L347.855 1386.29 L348.281 1386.29 
  L348.712 1386.29 L349.149 1386.29 L349.592 1386.3 L350.036 1386.3 L350.481 1386.3 L350.93 1386.3 L351.383 1386.31 L351.841 1386.31 L352.305 1386.31 L352.775 1386.31 
  L353.251 1386.32 L353.73 1386.32 L354.212 1386.32 L354.699 1386.32 L355.191 1386.32 L355.688 1386.33 L356.193 1386.33 L356.703 1386.33 L357.22 1386.33 L357.742 1386.33 
  L358.27 1386.34 L358.805 1386.34 L359.346 1386.34 L359.894 1386.34 L360.446 1386.35 L361.003 1386.35 L361.563 1386.35 L362.127 1386.35 L362.695 1386.35 L363.268 1386.35 
  L363.85 1386.36 L364.439 1386.36 L365.029 1386.36 L365.618 1386.36 L366.213 1386.36 L366.808 1386.36 L367.405 1386.36 L367.995 1386.37 L368.595 1386.37 L369.203 1386.37 
  L369.815 1386.37 L370.426 1386.37 L371.039 1386.37 L371.661 1386.37 L372.283 1386.38 L372.909 1386.38 L373.537 1386.38 L374.18 1386.38 L374.838 1386.38 L375.504 1386.38 
  L376.184 1386.38 L376.876 1386.38 L377.589 1386.38 L378.313 1386.38 L379.048 1386.38 L379.787 1386.39 L380.536 1386.39 L381.306 1386.39 L382.089 1386.39 L382.871 1386.39 
  L383.668 1386.39 L384.495 1386.39 L385.341 1386.39 L386.213 1386.39 L387.109 1386.39 L388.028 1386.39 L388.977 1386.4 L389.95 1386.4 L390.942 1386.4 L391.958 1386.4 
  L392.994 1386.4 L394.059 1386.39 L395.142 1386.39 L396.216 1386.39 L397.338 1386.39 L398.513 1386.39 L399.719 1386.39 L400.933 1386.39 L402.148 1386.39 L403.35 1386.39 
  L404.579 1386.39 L405.825 1386.39 L407.106 1386.38 L408.405 1386.38 L409.695 1386.38 L411.003 1386.38 L412.346 1386.38 L413.726 1386.38 L415.142 1386.38 L416.625 1386.37 
  L418.143 1386.37 L419.701 1386.37 L421.259 1386.36 L422.834 1386.36 L424.463 1386.36 L426.089 1386.36 L427.724 1386.36 L429.362 1386.35 L430.98 1386.35 L432.686 1386.34 
  L434.49 1386.34 L436.358 1386.33 L438.215 1386.32 L440.002 1386.32 L441.834 1386.31 L443.578 1386.31 L445.359 1386.3 L447.206 1386.29 L449.127 1386.29 L451.113 1386.28 
  L453.224 1386.27 L455.528 1386.27 L457.77 1386.26 L460.027 1386.25 L462.463 1386.24 L465.025 1386.23 L467.636 1386.22 L470.574 1386.21 L473.878 1386.19 L477.596 1386.17 
  L480.921 1386.15 L484.311 1386.13 L488.125 1386.11 L491.684 1386.08 L495.19 1386.07 L498.469 1386.04 L501.746 1386.01 L504.81 1385.99 L507.864 1385.98 L510.84 1385.96 
  L513.953 1385.94 L517.15 1385.93 L520.324 1385.9 L523.677 1385.87 L526.816 1385.84 L530.347 1385.81 L534.308 1385.78 L538.764 1385.74 L543.67 1385.68 L549.189 1385.62 
  L555.399 1385.53 L561.473 1385.44 L568.306 1385.34 L573.901 1385.26 L578.588 1385.19 L583.299 1385.11 L588.224 1385.03 L593.709 1384.97 L599.881 1384.88 L606.824 1384.7 
  L612.549 1384.57 L618.99 1384.44 L625.16 1384.3 L632.101 1384.12 L638.402 1383.93 L645.49 1383.74 L653.463 1383.56 L662.434 1383.27 L672.526 1382.96 L679.34 1382.7 
  L687.006 1382.39 L695.63 1382.04 L705.332 1381.64 L716.247 1381.09 L726.195 1380.66 L737.385 1380.09 L749.092 1379.55 L759.271 1379 L769.263 1378.47 L780.503 1377.8 
  L793.149 1376.88 L805.214 1375.72 L816.197 1374.46 L825.582 1373.57 L836.141 1372.65 L845.087 1371.61 L853.112 1370.2 L861.025 1368.82 L868.31 1367.89 L875.02 1366.88 
  L882.569 1365.6 L891.061 1363.57 L898.248 1361.61 L905.19 1359.89 L911.646 1358.37 L917.807 1356.88 L923.292 1355.39 L927.623 1354.12 L931.498 1353.07 L935.189 1352.39 
  L938.801 1351.66 L942.412 1350.83 L945.991 1350.02 L949.642 1349.28 L953.748 1347.78 L958.273 1345.97 L962.705 1344.05 L966.637 1342.23 L970.627 1340.43 L974.069 1338.84 
  L977.277 1337.34 L980.149 1336.5 L982.994 1335.67 L985.832 1334.82 L988.7 1333.95 L991.916 1332.95 L995.283 1331.85 L998.704 1330.76 L1002.51 1329.5 L1006.62 1328.25 
  L1011.13 1326.86 L1016.21 1324.72 L1021.68 1321.78 L1027.84 1318.31 L1034.77 1314.16 L1041.25 1309.49 L1046.7 1305.41 L1052.6 1300.89 L1057.39 1296.84 L1061.41 1294.17 
  L1065.31 1290.9 L1068.76 1287.98 L1072.21 1285.04 L1075.58 1281.98 L1079 1278.8 L1082.44 1275.85 L1085.58 1273.62 L1088.57 1271.41 L1091.63 1269.09 L1094.6 1266.82 
  L1097.48 1264.5 L1100.28 1261.93 L1102.99 1259.06 L1105.92 1255.97 L1108.96 1252.75 L1111.92 1249.58 L1114.81 1246.45 L1117.7 1243.34 L1120.71 1240.13 L1123.86 1236.75 
  L1127.11 1232.4 L1130.55 1227.51 L1134.02 1222.39 L1137.61 1217.13 L1141.24 1211.89 L1144.89 1206.24 L1148.51 1198.94 L1152.29 1191.08 L1155.82 1183.35 L1159.33 1175.23 
  L1162.64 1171.65 L1165.92 1168.3 L1169.11 1164.96 L1172.39 1161.41 L1175.68 1158.06 L1179.19 1154.72 L1182.42 1151.7 L1185.72 1146.13 L1189.02 1139.65 L1192.3 1132.93 
  L1195.63 1125.6 L1198.96 1118.28 L1202.31 1110.82 L1205.68 1103.32 L1209.04 1096.73 L1212.33 1089.27 L1215.68 1081.65 L1219.03 1074.71 L1222.34 1068.17 L1225.48 1062.43 
  L1228.62 1056.75 L1231.68 1051.46 L1234.69 1046.04 L1237.64 1040.06 L1240.67 1033.95 L1243.67 1027.94 L1246.67 1021.99 L1249.63 1016.12 L1252.59 1010.07 L1255.56 1003.75 
  L1258.5 997.118 L1261.38 990.302 L1264.19 983.529 L1266.96 976.547 L1269.7 969.567 L1272.48 962.126 L1275.25 954.44 L1278 946.376 L1280.74 938.844 L1283.49 930.646 
  L1286.22 919.882 L1288.93 908.528 L1291.59 901.306 L1294.21 895.118 L1296.78 889.193 L1299.39 883.325 L1302 877.586 L1304.64 871.868 L1307.28 866.129 L1309.9 860.055 
  L1312.48 853.835 L1315.05 847.615 L1317.64 841.972 L1320.19 836.926 L1322.77 832.287 L1325.35 827.463 L1327.93 822.1 L1330.51 816.648 L1333.1 811.056 L1335.68 804.691 
  L1338.27 798.488 L1340.84 792.372 L1343.43 785.898 L1346.02 779.148 L1348.62 772.191 L1351.19 765.278 L1353.8 757.749 L1356.4 749.787 L1359.01 740.897 L1361.62 731.023 
  L1364.24 720.639 L1366.86 710.106 L1369.48 700.72 L1372.12 701.08 L1374.75 701.628 L1377.39 694.483 L1380.04 682.667 L1382.7 680.269 L1385.37 686.621 L1388.03 692.97 
  L1390.72 699.044 L1393.42 698.372 L1396.13 692.086 L1398.85 685.537 L1401.58 678.55 L1404.32 684.628 L1407.08 691.016 L1409.85 697.988 L1412.64 705.326 L1415.43 713.019 
  L1418.21 714.112 L1421.03 709.897 L1423.87 703.561 L1426.72 698.721 L1429.6 709.64 L1432.49 719.535 L1435.4 725.884 L1438.34 737.579 L1441.29 746.476 L1444.27 743.52 
  L1447.27 740.558 L1450.28 740.437 L1453.33 738.307 L1456.32 734.205 L1459.24 733.46 L1462.12 740.323 L1464.9 749.419 L1467.74 758.668 L1470.54 767.56 L1473.26 771.718 
  L1475.97 776.174 L1478.69 781.811 L1481.32 790.035 L1483.97 798.039 L1486.58 805.619 L1489.11 812.709 L1491.6 819.462 L1493.99 825.65 L1496.45 831.857 L1498.97 837.958 
  L1501.41 843.754 L1503.81 849.392 L1506.35 855.043 L1508.92 860.791 L1511.45 866.578 L1514 872.561 L1516.68 879.069 L1519.45 888.272 L1522.34 898.526 L1525.24 908.632 
  L1528.2 918.81 L1531.06 928.517 L1534.08 938.578 L1536.99 947.419 L1539.89 954.855 L1542.38 961.322 L1544.79 967.938 L1547.09 974.267 L1549.35 980.37 L1551.66 986.502 
  L1553.97 992.617 L1556.34 998.751 L1558.7 1004.81 L1560.99 1010.49 L1563.18 1015.84 L1565.37 1021.14 L1567.52 1026.25 L1569.81 1031.67 L1572.18 1037.36 L1574.75 1043.6 
  L1577.59 1050.44 L1580.77 1058.11 L1584.34 1066.53 L1588.33 1075.72 L1592.35 1084.69 L1596.39 1093 L1600.29 1100.99 L1604.67 1109.42 L1608.77 1116.96 L1612.63 1123.81 
  L1615.95 1129.4 L1619.25 1134.88 L1622.61 1140.28 L1626.03 1145.5 L1629.32 1150.37 L1632.53 1154.96 L1635.59 1159 L1638.68 1162.79 L1641.58 1166.29 L1644.57 1169.84 
  L1647.87 1173.57 L1651.17 1177.29 L1654.1 1180.51 L1657.28 1183.93 L1660.52 1187.42 L1664.12 1191.14 L1668.18 1195.33 L1671.76 1198.99 L1675.35 1202.64 L1678.93 1206.31 
  L1682.36 1209.98 L1685.95 1213.84 L1689.98 1218.21 L1694.33 1222.94 L1699.04 1227.87 L1704.35 1234.11 L1710.32 1241.28 L1715.91 1247.67 L1722.21 1254.41 L1729.29 1261.43 
  L1737.25 1268.83 L1745.83 1276.16 L1755.49 1282.56 L1766.35 1289.72 L1778.14 1297.18 L1789.11 1303.97 L1797.92 1309.19 L1804.04 1312.03 L1809.41 1314.37 L1814.48 1316.53 
  L1819.89 1318.81 L1825.86 1321.4 L1830.77 1323.51 L1835.98 1325.66 L1841.04 1327.93 L1845.73 1330.1 L1851 1332.37 L1856.94 1334.8 L1863.61 1337.41 L1871.12 1340.11 
  L1879.57 1342.59 L1887.18 1344.53 L1893.1 1346.04 L1899.77 1347.72 L1907.22 1349.58 L1913.11 1351.14 L1918.29 1352.46 L1923.2 1353.66 L1928.17 1354.83 L1933.12 1355.92 
  L1937.57 1356.88 L1942.49 1357.91 L1946.99 1358.84 L1950.76 1359.63 L1954.25 1360.33 L1957.86 1361.01 L1961.37 1361.7 L1964.97 1362.33 L1968.38 1362.95 L1972.07 1363.62 
  L1976.21 1364.37 L1980.6 1365.08 L1985.53 1365.78 L1991.09 1366.54 L1997.33 1367.39 L2003.33 1368.16 L2010.07 1369.02 L2017.66 1369.96 L2026.2 1370.99 L2033.55 1371.88 
  L2038.96 1372.52 L2045.05 1373.19 L2051.3 1373.85 L2058.34 1374.44 L2064.38 1374.9 L2071.17 1375.4 L2077.99 1375.91 L2083.75 1376.33 L2089.77 1376.77 L2096.02 1377.2 
  L2103.05 1377.65 L2110.96 1378.12 L2116.99 1378.45 L2122.73 1378.87 L2128.73 1379.29 L2135.48 1379.73 L2143.07 1380.17 L2151.61 1380.62 L2157.88 1380.91 L2164.93 1381.23 
  L2171.9 1381.51 L2178.55 1381.76 L2185.86 1382.04 L2192.29 1382.26 L2199.16 1382.48 L2206.89 1382.72 L2215.19 1382.97 L2224.53 1383.23 L2234.95 1383.5 L2246.67 1383.83 
  L2255.54 1384.02 L2264.16 1384.2 L2273.71 1384.39 L2284.46 1384.58 L2294.08 1384.75 L2294.08 1363.86 L2284.46 1362.6 L2273.71 1361.22 L2264.16 1359.98 L2255.54 1358.92 
  L2246.67 1357.88 L2234.95 1356.23 L2224.53 1354.71 L2215.19 1353.27 L2206.89 1351.84 L2199.16 1350.13 L2192.29 1348.61 L2185.86 1347.38 L2178.55 1345.81 L2171.9 1344.34 
  L2164.93 1342.66 L2157.88 1340.87 L2151.61 1339.2 L2143.07 1336.86 L2135.48 1334.63 L2128.73 1332.14 L2122.73 1329.93 L2116.99 1327.84 L2110.96 1325.43 L2103.05 1322.03 
  L2096.02 1318.72 L2089.77 1315.78 L2083.75 1312.94 L2077.99 1310.22 L2071.17 1306.88 L2064.38 1303.46 L2058.34 1300.5 L2051.3 1297.22 L2045.05 1294.17 L2038.96 1291.07 
  L2033.55 1288.22 L2026.2 1284.18 L2017.66 1277.52 L2010.07 1272.16 L2003.33 1267.2 L1997.33 1263.54 L1991.09 1259.84 L1985.53 1256.49 L1980.6 1253.5 L1976.21 1250.67 
  L1972.07 1247.93 L1968.38 1244.86 L1964.97 1241.63 L1961.37 1238.24 L1957.86 1234.91 L1954.25 1231.35 L1950.76 1227.66 L1946.99 1223.66 L1942.49 1218.75 L1937.57 1212.97 
  L1933.12 1207.78 L1928.17 1201.76 L1923.2 1195.68 L1918.29 1191.18 L1913.11 1186.74 L1907.22 1181.62 L1899.77 1174.34 L1893.1 1167.35 L1887.18 1161.48 L1879.57 1150.95 
  L1871.12 1134.7 L1863.61 1119.48 L1856.94 1107.43 L1851 1098.44 L1845.73 1090.07 L1841.04 1082.43 L1835.98 1074.28 L1830.77 1065.74 L1825.86 1057.44 L1819.89 1046.77 
  L1814.48 1036.64 L1809.41 1026.71 L1804.04 1016.16 L1797.92 1003.63 L1789.11 985.467 L1778.14 959.068 L1766.35 934.268 L1755.49 909.009 L1745.83 886.682 L1737.25 865.974 
  L1729.29 846.526 L1722.21 830.18 L1715.91 815.655 L1710.32 801.924 L1704.35 786.208 L1699.04 772.911 L1694.33 761.449 L1689.98 750.688 L1685.95 740.835 L1682.36 732.731 
  L1678.93 724.633 L1675.35 716.071 L1671.76 707.446 L1668.18 699.209 L1664.12 690.716 L1660.52 683.461 L1657.28 676.889 L1654.1 669.873 L1651.17 663.25 L1647.87 655.731 
  L1644.57 648.102 L1641.58 641.15 L1638.68 634.057 L1635.59 626.264 L1632.53 618.907 L1629.32 611.325 L1626.03 604.072 L1622.61 597.116 L1619.25 590.625 L1615.95 584.271 
  L1612.63 578.212 L1608.77 571.351 L1604.67 563.332 L1600.29 554.983 L1596.39 542.312 L1592.35 525.176 L1588.33 517.584 L1584.34 514.051 L1580.77 511.366 L1577.59 503.42 
  L1574.75 489.328 L1572.18 488.008 L1569.81 488.884 L1567.52 486.914 L1565.37 482.783 L1563.18 478.708 L1560.99 474.808 L1558.7 471.495 L1556.34 468.291 L1553.97 465.2 
  L1551.66 461.961 L1549.35 458.483 L1547.09 455.435 L1544.79 446.85 L1542.38 438.103 L1539.89 429.261 L1536.99 418.481 L1534.08 408.117 L1531.06 399.665 L1528.2 403.898 
  L1525.24 405.932 L1522.34 396.529 L1519.45 386.84 L1516.68 380.214 L1514 372.355 L1511.45 365.337 L1508.92 359.083 L1506.35 353.355 L1503.81 348.211 L1501.41 343.106 
  L1498.97 336.763 L1496.45 329.813 L1493.99 323.165 L1491.6 316.645 L1489.11 310.166 L1486.58 303.65 L1483.97 296.863 L1481.32 291.418 L1478.69 287.562 L1475.97 285.256 
  L1473.26 283.334 L1470.54 278.439 L1467.74 272.163 L1464.9 273.183 L1462.12 277.808 L1459.24 282.829 L1456.32 288.068 L1453.33 280.251 L1450.28 271.514 L1447.27 263.092 
  L1444.27 254.552 L1441.29 246.32 L1438.34 243.647 L1435.4 247.477 L1432.49 251.789 L1429.6 256.282 L1426.72 261.797 L1423.87 269.01 L1421.03 266.442 L1418.21 261.707 
  L1415.43 256.285 L1412.64 251.787 L1409.85 243.202 L1407.08 242.149 L1404.32 236.963 L1401.58 233.667 L1398.85 231.461 L1396.13 230.408 L1393.42 230.485 L1390.72 231.94 
  L1388.03 235.329 L1385.37 238.094 L1382.7 229.285 L1380.04 221.168 L1377.39 214.801 L1374.75 209.852 L1372.12 204.981 L1369.48 200.226 L1366.86 195.8 L1364.24 191.503 
  L1361.62 187.341 L1359.01 183.89 L1356.4 189.605 L1353.8 201.432 L1351.19 212.986 L1348.62 215.98 L1346.02 209.34 L1343.43 202.865 L1340.84 196.3 L1338.27 190.824 
  L1335.68 186.047 L1333.1 181.161 L1330.51 176.45 L1327.93 172.653 L1325.35 167.817 L1322.77 168.342 L1320.19 169.234 L1317.64 171.456 L1315.05 173.783 L1312.48 168.993 
  L1309.9 162.973 L1307.28 162.18 L1304.64 162.048 L1302 161.219 L1299.39 160.529 L1296.78 160.256 L1294.21 160.666 L1291.59 161.868 L1288.93 163.845 L1286.22 166.792 
  L1283.49 171.706 L1280.74 176.923 L1278 182.757 L1275.25 190.344 L1272.48 199.757 L1269.7 209.945 L1266.96 220.011 L1264.19 225.185 L1261.38 225.814 L1258.5 227.318 
  L1255.56 229.708 L1252.59 234.636 L1249.63 240.842 L1246.67 253.936 L1243.67 257.197 L1240.67 260.851 L1237.64 265.145 L1234.69 269.54 L1231.68 280.274 L1228.62 286.451 
  L1225.48 287.212 L1222.34 294.349 L1219.03 302.294 L1215.68 310.748 L1212.33 318.88 L1209.04 328.09 L1205.68 338.123 L1202.31 348.532 L1198.96 360.838 L1195.63 372.111 
  L1192.3 382.284 L1189.02 392.536 L1185.72 403.806 L1182.42 415.061 L1179.19 426.663 L1175.68 439.823 L1172.39 452.279 L1169.11 466.188 L1165.92 483.774 L1162.64 503.949 
  L1159.33 523.358 L1155.82 532.285 L1152.29 543.57 L1148.51 560.027 L1144.89 575.206 L1141.24 592.465 L1137.61 610.986 L1134.02 629.995 L1130.55 649.497 L1127.11 668.675 
  L1123.86 686.231 L1120.71 703.167 L1117.7 719.683 L1114.81 735.648 L1111.92 751.432 L1108.96 767.211 L1105.92 783.05 L1102.99 795.158 L1100.28 806.283 L1097.48 818.862 
  L1094.6 833.278 L1091.63 849.134 L1088.57 864.354 L1085.58 876.89 L1082.44 890.385 L1079 905.734 L1075.58 919.497 L1072.21 930.893 L1068.76 947.051 L1065.31 957.884 
  L1061.41 969.678 L1057.39 980.483 L1052.6 993.387 L1046.7 1008.97 L1041.25 1022.82 L1034.77 1039.54 L1027.84 1057.73 L1021.68 1074.75 L1016.21 1090.5 L1011.13 1104.69 
  L1006.62 1116.2 L1002.51 1125.1 L998.704 1133.15 L995.283 1139.71 L991.916 1146.14 L988.7 1152.46 L985.832 1158.11 L982.994 1163.17 L980.149 1167.58 L977.277 1172.38 
  L974.069 1178.73 L970.627 1185.7 L966.637 1193.45 L962.705 1200.98 L958.273 1209.61 L953.748 1218 L949.642 1225.18 L945.991 1230.31 L942.412 1235 L938.801 1239.52 
  L935.189 1244.03 L931.498 1248.54 L927.623 1253.22 L923.292 1258.09 L917.807 1263.92 L911.646 1270.23 L905.19 1276.93 L898.248 1284.52 L891.061 1291.28 L882.569 1298.43 
  L875.02 1305.12 L868.31 1311 L861.025 1316.98 L853.112 1322.47 L845.087 1327.25 L836.141 1332.39 L825.582 1338.38 L816.197 1343.55 L805.214 1348.1 L793.149 1352.53 
  L780.503 1356.41 L769.263 1359.46 L759.271 1362 L749.092 1364.41 L737.385 1367.13 L726.195 1369.52 L716.247 1370.83 L705.332 1372.23 L695.63 1373.69 L687.006 1374.94 
  L679.34 1375.92 L672.526 1376.73 L662.434 1377.63 L653.463 1378.32 L645.49 1378.92 L638.402 1379.41 L632.101 1379.84 L625.16 1380.26 L618.99 1380.62 L612.549 1380.99 
  L606.824 1381.34 L599.881 1381.8 L593.709 1382.14 L588.224 1382.46 L583.299 1382.74 L578.588 1382.99 L573.901 1383.18 L568.306 1383.44 L561.473 1383.73 L555.399 1383.97 
  L549.189 1384.2 L543.67 1384.36 L538.764 1384.49 L534.308 1384.59 L530.347 1384.71 L526.816 1384.79 L523.677 1384.86 L520.324 1384.94 L517.15 1385 L513.953 1385.06 
  L510.84 1385.12 L507.864 1385.17 L504.81 1385.23 L501.746 1385.3 L498.469 1385.37 L495.19 1385.43 L491.684 1385.5 L488.125 1385.54 L484.311 1385.59 L480.921 1385.63 
  L477.596 1385.68 L473.878 1385.73 L470.574 1385.77 L467.636 1385.81 L465.025 1385.84 L462.463 1385.86 L460.027 1385.89 L457.77 1385.92 L455.528 1385.95 L453.224 1385.97 
  L451.113 1386 L449.127 1386.02 L447.206 1386.04 L445.359 1386.05 L443.578 1386.07 L441.834 1386.08 L440.002 1386.1 L438.215 1386.11 L436.358 1386.12 L434.49 1386.13 
  L432.686 1386.15 L430.98 1386.16 L429.362 1386.17 L427.724 1386.17 L426.089 1386.18 L424.463 1386.19 L422.834 1386.2 L421.259 1386.2 L419.701 1386.21 L418.143 1386.22 
  L416.625 1386.23 L415.142 1386.24 L413.726 1386.25 L412.346 1386.25 L411.003 1386.26 L409.695 1386.27 L408.405 1386.27 L407.106 1386.28 L405.825 1386.28 L404.579 1386.28 
  L403.35 1386.29 L402.148 1386.29 L400.933 1386.29 L399.719 1386.3 L398.513 1386.3 L397.338 1386.3 L396.216 1386.3 L395.142 1386.31 L394.059 1386.31 L392.994 1386.31 
  L391.958 1386.32 L390.942 1386.32 L389.95 1386.32 L388.977 1386.32 L388.028 1386.32 L387.109 1386.33 L386.213 1386.33 L385.341 1386.33 L384.495 1386.33 L383.668 1386.33 
  L382.871 1386.33 L382.089 1386.33 L381.306 1386.33 L380.536 1386.33 L379.787 1386.33 L379.048 1386.33 L378.313 1386.33 L377.589 1386.34 L376.876 1386.34 L376.184 1386.34 
  L375.504 1386.34 L374.838 1386.34 L374.18 1386.34 L373.537 1386.34 L372.909 1386.34 L372.283 1386.34 L371.661 1386.34 L371.039 1386.34 L370.426 1386.33 L369.815 1386.33 
  L369.203 1386.33 L368.595 1386.33 L367.995 1386.33 L367.405 1386.33 L366.808 1386.33 L366.213 1386.33 L365.618 1386.33 L365.029 1386.33 L364.439 1386.33 L363.85 1386.33 
  L363.268 1386.32 L362.695 1386.32 L362.127 1386.32 L361.563 1386.32 L361.003 1386.32 L360.446 1386.32 L359.894 1386.32 L359.346 1386.32 L358.805 1386.32 L358.27 1386.31 
  L357.742 1386.31 L357.22 1386.31 L356.703 1386.31 L356.193 1386.31 L355.688 1386.31 L355.191 1386.31 L354.699 1386.31 L354.212 1386.3 L353.73 1386.3 L353.251 1386.3 
  L352.775 1386.3 L352.305 1386.3 L351.841 1386.3 L351.383 1386.29 L350.93 1386.29 L350.481 1386.29 L350.036 1386.29 L349.592 1386.29 L349.149 1386.29 L348.712 1386.28 
  L348.281 1386.28 L347.855 1386.28 L347.431 1386.28 L347.01 1386.28 L346.595 1386.27 L346.187 1386.27 L345.786 1386.27 L345.394 1386.27 L345.01 1386.27 L344.632 1386.26 
  L344.26 1386.26 L343.893 1386.26 L343.532 1386.26 L343.179 1386.26 L342.832 1386.25 L342.494 1386.25 L342.164 1386.25 L341.846 1386.25 L341.541 1386.25 L341.249 1386.24 
  L340.971 1386.24 L340.708 1386.24 L340.463 1386.24 L340.236 1386.24 L340.028 1386.24 L339.839 1386.24 L339.671 1386.23 L339.522 1386.23 L339.389 1386.23 L339.271 1386.23 
  L339.166 1386.23 L339.073 1386.23 L338.99 1386.23 L338.916 1386.23 L338.851 1386.23 L338.793 1386.23 L338.741 1386.23 L338.695 1386.23 L338.654 1386.23 L338.618 1386.23 
  L338.585 1386.23 L338.557 1386.23 L338.531 1386.23 L338.509 1386.23 L338.488 1386.23 L338.47 1386.23 L338.454 1386.23 L338.44 1386.23 L338.428 1386.23 L338.375 1386.23 
   Z
  " fill="#009af9" fill-rule="evenodd" fill-opacity="0.2"/>
<polyline clip-path="url(#clip283)" style="stroke:#009af9; stroke-linecap:butt; stroke-linejoin:round; stroke-width:12; stroke-opacity:1; fill:none" points="
  338.375,1386.23 338.428,1386.23 338.44,1386.23 338.454,1386.23 338.47,1386.23 338.488,1386.23 338.509,1386.23 338.531,1386.23 338.557,1386.23 338.585,1386.23 
  338.618,1386.23 338.654,1386.23 338.695,1386.23 338.741,1386.23 338.793,1386.23 338.851,1386.23 338.916,1386.23 338.99,1386.23 339.073,1386.23 339.166,1386.23 
  339.271,1386.23 339.389,1386.23 339.522,1386.23 339.671,1386.23 339.839,1386.24 340.028,1386.24 340.236,1386.24 340.463,1386.24 340.708,1386.24 340.971,1386.24 
  341.249,1386.25 341.541,1386.25 341.846,1386.25 342.164,1386.25 342.494,1386.25 342.832,1386.26 343.179,1386.26 343.532,1386.26 343.893,1386.26 344.26,1386.26 
  344.632,1386.27 345.01,1386.27 345.394,1386.27 345.786,1386.27 346.187,1386.28 346.595,1386.28 347.01,1386.28 347.431,1386.28 347.855,1386.28 348.281,1386.29 
  348.712,1386.29 349.149,1386.29 349.592,1386.29 350.036,1386.29 350.481,1386.3 350.93,1386.3 351.383,1386.3 351.841,1386.3 352.305,1386.3 352.775,1386.31 
  353.251,1386.31 353.73,1386.31 354.212,1386.31 354.699,1386.31 355.191,1386.32 355.688,1386.32 356.193,1386.32 356.703,1386.32 357.22,1386.32 357.742,1386.32 
  358.27,1386.33 358.805,1386.33 359.346,1386.33 359.894,1386.33 360.446,1386.33 361.003,1386.33 361.563,1386.34 362.127,1386.34 362.695,1386.34 363.268,1386.34 
  363.85,1386.34 364.439,1386.34 365.029,1386.34 365.618,1386.34 366.213,1386.35 366.808,1386.35 367.405,1386.35 367.995,1386.35 368.595,1386.35 369.203,1386.35 
  369.815,1386.35 370.426,1386.35 371.039,1386.35 371.661,1386.35 372.283,1386.36 372.909,1386.36 373.537,1386.36 374.18,1386.36 374.838,1386.36 375.504,1386.36 
  376.184,1386.36 376.876,1386.36 377.589,1386.36 378.313,1386.36 379.048,1386.36 379.787,1386.36 380.536,1386.36 381.306,1386.36 382.089,1386.36 382.871,1386.36 
  383.668,1386.36 384.495,1386.36 385.341,1386.36 386.213,1386.36 387.109,1386.36 388.028,1386.36 388.977,1386.36 389.95,1386.36 390.942,1386.36 391.958,1386.36 
  392.994,1386.36 394.059,1386.35 395.142,1386.35 396.216,1386.35 397.338,1386.35 398.513,1386.35 399.719,1386.35 400.933,1386.34 402.148,1386.34 403.35,1386.34 
  404.579,1386.34 405.825,1386.33 407.106,1386.33 408.405,1386.33 409.695,1386.32 411.003,1386.32 412.346,1386.32 413.726,1386.31 415.142,1386.31 416.625,1386.3 
  418.143,1386.3 419.701,1386.29 421.259,1386.29 422.834,1386.28 424.463,1386.28 426.089,1386.27 427.724,1386.26 429.362,1386.26 430.98,1386.25 432.686,1386.24 
  434.49,1386.23 436.358,1386.23 438.215,1386.22 440.002,1386.21 441.834,1386.2 443.578,1386.19 445.359,1386.18 447.206,1386.17 449.127,1386.16 451.113,1386.15 
  453.224,1386.14 455.528,1386.12 457.77,1386.11 460.027,1386.09 462.463,1386.08 465.025,1386.06 467.636,1386.04 470.574,1386.02 473.878,1385.99 477.596,1385.96 
  480.921,1385.93 484.311,1385.9 488.125,1385.86 491.684,1385.83 495.19,1385.79 498.469,1385.76 501.746,1385.72 504.81,1385.69 507.864,1385.65 510.84,1385.61 
  513.953,1385.58 517.15,1385.53 520.324,1385.49 523.677,1385.44 526.816,1385.4 530.347,1385.35 534.308,1385.28 538.764,1385.21 543.67,1385.13 549.189,1385.03 
  555.399,1384.91 561.473,1384.78 568.306,1384.64 573.901,1384.51 578.588,1384.4 583.299,1384.29 588.224,1384.16 593.709,1384 599.881,1383.82 606.824,1383.6 
  612.549,1383.4 618.99,1383.17 625.16,1382.93 632.101,1382.64 638.402,1382.37 645.49,1382.03 653.463,1381.63 662.434,1381.14 672.526,1380.54 679.34,1380.09 
  687.006,1379.56 695.63,1378.9 705.332,1378.11 716.247,1377.12 726.195,1376.12 737.385,1374.9 749.092,1373.47 759.271,1372.08 769.263,1370.55 780.503,1368.62 
  793.149,1366.22 805.214,1363.63 816.197,1361.01 825.582,1358.54 836.141,1355.48 845.087,1352.65 853.112,1349.92 861.025,1347.02 868.31,1344.16 875.02,1341.38 
  882.569,1338.09 891.061,1334.11 898.248,1330.48 905.19,1326.74 911.646,1323.06 917.807,1319.36 923.292,1315.91 927.623,1313.04 931.498,1310.38 935.189,1307.75 
  938.801,1305.09 942.412,1302.32 945.991,1299.5 949.642,1296.52 953.748,1293.05 958.273,1289.08 962.705,1285.07 966.637,1281.38 970.627,1277.51 974.069,1274.07 
  977.277,1270.79 980.149,1267.79 982.994,1264.75 985.832,1261.66 988.7,1258.48 991.916,1254.86 995.283,1250.98 998.704,1246.93 1002.51,1242.3 1006.62,1237.1 
  1011.13,1231.19 1016.21,1224.3 1021.68,1216.58 1027.84,1207.49 1034.77,1196.77 1041.25,1186.31 1046.7,1177.13 1052.6,1166.77 1057.39,1158.02 1061.41,1150.43 
  1065.31,1142.86 1068.76,1136.03 1072.21,1129 1075.58,1121.94 1079,1114.67 1082.44,1107.28 1085.58,1100.38 1088.57,1093.74 1091.63,1086.8 1094.6,1079.93 
  1097.48,1073.16 1100.28,1066.46 1102.99,1059.86 1105.92,1052.67 1108.96,1045.06 1111.92,1037.52 1114.81,1030.06 1117.7,1022.51 1120.71,1014.55 1123.86,1006.1 
  1127.11,997.268 1130.55,987.809 1134.02,978.197 1137.61,968.052 1141.24,957.537 1144.89,946.875 1148.51,936.174 1152.29,924.863 1155.82,914.279 1159.33,903.715 
  1162.64,893.648 1165.92,883.677 1169.11,873.904 1172.39,863.873 1175.68,853.793 1179.19,843.18 1182.42,833.596 1185.72,823.968 1189.02,814.377 1192.3,804.698 
  1195.63,794.815 1198.96,784.899 1202.31,774.872 1205.68,764.802 1209.04,754.731 1212.33,744.951 1215.68,735.076 1219.03,725.135 1222.34,715.335 1225.48,706.052 
  1228.62,696.815 1231.68,687.916 1234.69,679.269 1237.64,670.848 1240.67,662.272 1243.67,653.804 1246.67,645.405 1249.63,637.21 1252.59,629.192 1255.56,621.305 
  1258.5,613.641 1261.38,606.265 1264.19,599.034 1266.96,591.949 1269.7,585.166 1272.48,578.409 1275.25,571.749 1278,565.302 1280.74,559.042 1283.49,552.931 
  1286.22,547.041 1288.93,541.401 1291.59,535.941 1294.21,530.73 1296.78,525.73 1299.39,520.889 1302,516.233 1304.64,511.825 1307.28,507.58 1309.9,503.583 
  1312.48,499.891 1315.05,496.341 1317.64,492.864 1320.19,489.597 1322.77,486.512 1325.35,483.626 1327.93,480.868 1330.51,478.176 1333.1,475.67 1335.68,473.304 
  1338.27,471.049 1340.84,468.939 1343.43,467.024 1346.02,465.306 1348.62,463.736 1351.19,462.298 1353.8,460.926 1356.4,459.747 1359.01,458.759 1361.62,457.935 
  1364.24,457.254 1366.86,456.719 1369.48,456.319 1372.12,455.949 1374.75,455.692 1377.39,455.548 1380.04,455.564 1382.7,455.781 1385.37,456.128 1388.03,456.556 
  1390.72,457.087 1393.42,457.781 1396.13,458.701 1398.85,459.788 1401.58,461.036 1404.32,462.353 1407.08,463.895 1409.85,465.607 1412.64,467.459 1415.43,469.478 
  1418.21,471.74 1421.03,474.241 1423.87,476.887 1426.72,479.65 1429.6,482.634 1432.49,485.849 1435.4,489.204 1438.34,492.649 1441.29,496.22 1444.27,499.966 
  1447.27,503.915 1450.28,508.024 1453.33,512.26 1456.32,516.535 1459.24,520.933 1462.12,525.38 1464.9,529.791 1467.74,534.421 1470.54,539.089 1473.26,543.767 
  1475.97,548.553 1478.69,553.525 1481.32,558.443 1483.97,563.554 1486.58,568.716 1489.11,573.769 1491.6,578.796 1493.99,583.659 1496.45,588.698 1498.97,593.889 
  1501.41,599.006 1503.81,604.188 1506.35,609.771 1508.92,615.499 1511.45,621.193 1514,626.894 1516.68,632.924 1519.45,639.219 1522.34,645.787 1525.24,652.398 
  1528.2,659.156 1531.06,665.687 1534.08,672.615 1536.99,679.392 1539.89,686.19 1542.38,692.006 1544.79,697.645 1547.09,703.06 1549.35,708.416 1551.66,713.879 
  1553.97,719.328 1556.34,724.936 1558.7,730.502 1560.99,735.967 1563.18,741.243 1565.37,746.515 1567.52,751.696 1569.81,757.2 1572.18,762.86 1574.75,768.977 
  1577.59,775.633 1580.77,783.106 1584.34,791.494 1588.33,800.911 1592.35,810.365 1596.39,819.836 1600.29,828.89 1604.67,839.01 1608.77,848.429 1612.63,857.284 
  1615.95,864.866 1619.25,872.394 1622.61,879.977 1626.03,887.627 1629.32,894.947 1632.53,902.061 1635.59,908.819 1638.68,915.66 1641.58,922.059 1644.57,928.657 
  1647.87,935.879 1651.17,943.027 1654.1,949.306 1657.28,956.049 1660.52,962.868 1664.12,970.349 1668.18,978.653 1671.76,985.915 1675.35,993.068 1678.93,1000.05 
  1682.36,1006.62 1685.95,1013.39 1689.98,1020.87 1694.33,1028.86 1699.04,1037.35 1704.35,1046.75 1710.32,1057.15 1715.91,1066.72 1722.21,1077.24 1729.29,1088.75 
  1737.25,1101.31 1745.83,1114.36 1755.49,1128.64 1766.35,1144.15 1778.14,1159.99 1789.11,1173.77 1797.92,1184.25 1804.04,1191.24 1809.41,1197.19 1814.48,1202.64 
  1819.89,1208.32 1825.86,1214.44 1830.77,1219.36 1835.98,1224.42 1841.04,1229.22 1845.73,1233.57 1851,1238.34 1856.94,1243.53 1863.61,1249.17 1871.12,1255.26 
  1879.57,1261.79 1887.18,1267.43 1893.1,1271.67 1899.77,1276.27 1907.22,1281.2 1913.11,1284.95 1918.29,1288.14 1923.2,1291.08 1928.17,1293.96 1933.12,1296.76 
  1937.57,1299.18 1942.49,1301.79 1946.99,1304.1 1950.76,1306.01 1954.25,1307.74 1957.86,1309.48 1961.37,1311.15 1964.97,1312.82 1968.38,1314.38 1972.07,1316.02 
  1976.21,1317.82 1980.6,1319.68 1985.53,1321.72 1991.09,1323.94 1997.33,1326.36 2003.33,1328.6 2010.07,1331.04 2017.66,1333.66 2026.2,1336.45 2033.55,1338.73 
  2038.96,1340.34 2045.05,1342.09 2051.3,1343.82 2058.34,1345.69 2064.38,1347.23 2071.17,1348.89 2077.99,1350.5 2083.75,1351.79 2089.77,1353.1 2096.02,1354.41 
  2103.05,1355.84 2110.96,1357.36 2116.99,1358.46 2122.73,1359.46 2128.73,1360.47 2135.48,1361.56 2143.07,1362.73 2151.61,1363.99 2157.88,1364.87 2164.93,1365.83 
  2171.9,1366.74 2178.55,1367.58 2185.86,1368.46 2192.29,1369.21 2199.16,1369.97 2206.89,1370.79 2215.19,1371.62 2224.53,1372.5 2234.95,1373.43 2246.67,1374.41 
  2255.54,1375.1 2264.16,1375.74 2273.71,1376.4 2284.46,1377.09 2294.08,1377.68 
  "/>
<path clip-path="url(#clip280)" d="
M1567.83 270.476 L2283.65 270.476 L2283.65 166.796 L1567.83 166.796  Z
  " fill="#ffffff" fill-rule="evenodd" fill-opacity="1"/>
<polyline clip-path="url(#clip280)" style="stroke:#000000; stroke-linecap:butt; stroke-linejoin:round; stroke-width:4; stroke-opacity:1; fill:none" points="
  1567.83,270.476 2283.65,270.476 2283.65,166.796 1567.83,166.796 1567.83,270.476 
  "/>
<polyline clip-path="url(#clip280)" style="stroke:#009af9; stroke-linecap:butt; stroke-linejoin:round; stroke-width:4; stroke-opacity:1; fill:none" points="
  1590.87,218.636 1729.07,218.636 
  "/>
<path clip-path="url(#clip280)" d="M1752.1 201.356 L1759.07 201.356 L1767.89 224.874 L1776.76 201.356 L1783.72 201.356 L1783.72 235.916 L1779.16 235.916 L1779.16 205.569 L1770.25 229.272 L1765.55 229.272 L1756.64 205.569 L1756.64 235.916 L1752.1 235.916 L1752.1 201.356 Z" fill="#000000" fill-rule="evenodd" fill-opacity="1" /><path clip-path="url(#clip280)" d="M1792.82 209.99 L1797.08 209.99 L1797.08 235.916 L1792.82 235.916 L1792.82 209.99 M1792.82 199.897 L1797.08 199.897 L1797.08 205.291 L1792.82 205.291 L1792.82 199.897 Z" fill="#000000" fill-rule="evenodd" fill-opacity="1" /><path clip-path="url(#clip280)" d="M1823.05 213.925 L1823.05 199.897 L1827.31 199.897 L1827.31 235.916 L1823.05 235.916 L1823.05 232.027 Q1821.71 234.342 1819.65 235.476 Q1817.61 236.587 1814.74 236.587 Q1810.04 236.587 1807.08 232.837 Q1804.14 229.087 1804.14 222.976 Q1804.14 216.865 1807.08 213.115 Q1810.04 209.365 1814.74 209.365 Q1817.61 209.365 1819.65 210.499 Q1821.71 211.61 1823.05 213.925 M1808.54 222.976 Q1808.54 227.675 1810.46 230.36 Q1812.4 233.022 1815.78 233.022 Q1819.16 233.022 1821.11 230.36 Q1823.05 227.675 1823.05 222.976 Q1823.05 218.277 1821.11 215.615 Q1819.16 212.93 1815.78 212.93 Q1812.4 212.93 1810.46 215.615 Q1808.54 218.277 1808.54 222.976 Z" fill="#000000" fill-rule="evenodd" fill-opacity="1" /><path clip-path="url(#clip280)" d="M1853.14 213.925 L1853.14 199.897 L1857.4 199.897 L1857.4 235.916 L1853.14 235.916 L1853.14 232.027 Q1851.8 234.342 1849.74 235.476 Q1847.7 236.587 1844.83 236.587 Q1840.13 236.587 1837.17 232.837 Q1834.23 229.087 1834.23 222.976 Q1834.23 216.865 1837.17 213.115 Q1840.13 209.365 1844.83 209.365 Q1847.7 209.365 1849.74 210.499 Q1851.8 211.61 1853.14 213.925 M1838.63 222.976 Q1838.63 227.675 1840.55 230.36 Q1842.5 233.022 1845.88 233.022 Q1849.26 233.022 1851.2 230.36 Q1853.14 227.675 1853.14 222.976 Q1853.14 218.277 1851.2 215.615 Q1849.26 212.93 1845.88 212.93 Q1842.5 212.93 1840.55 215.615 Q1838.63 218.277 1838.63 222.976 Z" fill="#000000" fill-rule="evenodd" fill-opacity="1" /><path clip-path="url(#clip280)" d="M1866.18 199.897 L1870.44 199.897 L1870.44 235.916 L1866.18 235.916 L1866.18 199.897 Z" fill="#000000" fill-rule="evenodd" fill-opacity="1" /><path clip-path="url(#clip280)" d="M1901.52 221.888 L1901.52 223.971 L1881.94 223.971 Q1882.22 228.369 1884.58 230.684 Q1886.96 232.976 1891.2 232.976 Q1893.65 232.976 1895.94 232.374 Q1898.26 231.772 1900.53 230.569 L1900.53 234.596 Q1898.24 235.568 1895.83 236.078 Q1893.42 236.587 1890.94 236.587 Q1884.74 236.587 1881.11 232.976 Q1877.5 229.365 1877.5 223.207 Q1877.5 216.842 1880.92 213.115 Q1884.37 209.365 1890.2 209.365 Q1895.44 209.365 1898.47 212.745 Q1901.52 216.101 1901.52 221.888 M1897.26 220.638 Q1897.22 217.143 1895.3 215.059 Q1893.4 212.976 1890.25 212.976 Q1886.69 212.976 1884.53 214.99 Q1882.4 217.004 1882.08 220.661 L1897.26 220.638 Z" fill="#000000" fill-rule="evenodd" fill-opacity="1" /><path clip-path="url(#clip280)" d="M1924.32 235.198 L1924.32 230.939 Q1926.08 231.772 1927.89 232.212 Q1929.69 232.652 1931.43 232.652 Q1936.06 232.652 1938.49 229.55 Q1940.94 226.425 1941.29 220.082 Q1939.95 222.073 1937.89 223.138 Q1935.83 224.203 1933.33 224.203 Q1928.14 224.203 1925.11 221.078 Q1922.1 217.93 1922.1 212.49 Q1922.1 207.166 1925.25 203.948 Q1928.4 200.731 1933.63 200.731 Q1939.62 200.731 1942.77 205.337 Q1945.94 209.92 1945.94 218.67 Q1945.94 226.842 1942.06 231.726 Q1938.19 236.587 1931.64 236.587 Q1929.88 236.587 1928.07 236.24 Q1926.27 235.893 1924.32 235.198 M1933.63 220.545 Q1936.78 220.545 1938.61 218.393 Q1940.46 216.24 1940.46 212.49 Q1940.46 208.763 1938.61 206.61 Q1936.78 204.434 1933.63 204.434 Q1930.48 204.434 1928.63 206.61 Q1926.8 208.763 1926.8 212.49 Q1926.8 216.24 1928.63 218.393 Q1930.48 220.545 1933.63 220.545 Z" fill="#000000" fill-rule="evenodd" fill-opacity="1" /><path clip-path="url(#clip280)" d="M1954.39 201.356 L1972.75 201.356 L1972.75 205.291 L1958.68 205.291 L1958.68 213.763 Q1959.69 213.416 1960.71 213.254 Q1961.73 213.069 1962.75 213.069 Q1968.54 213.069 1971.92 216.24 Q1975.3 219.411 1975.3 224.828 Q1975.3 230.406 1971.82 233.508 Q1968.35 236.587 1962.03 236.587 Q1959.86 236.587 1957.59 236.217 Q1955.34 235.846 1952.94 235.106 L1952.94 230.406 Q1955.02 231.541 1957.24 232.096 Q1959.46 232.652 1961.94 232.652 Q1965.94 232.652 1968.28 230.545 Q1970.62 228.439 1970.62 224.828 Q1970.62 221.217 1968.28 219.11 Q1965.94 217.004 1961.94 217.004 Q1960.06 217.004 1958.19 217.42 Q1956.34 217.837 1954.39 218.717 L1954.39 201.356 Z" fill="#000000" fill-rule="evenodd" fill-opacity="1" /><path clip-path="url(#clip280)" d="M2013.91 220.707 Q2011.89 220.707 2010.74 222.42 Q2009.6 224.133 2009.6 227.189 Q2009.6 230.198 2010.74 231.934 Q2011.89 233.647 2013.91 233.647 Q2015.87 233.647 2017.01 231.934 Q2018.17 230.198 2018.17 227.189 Q2018.17 224.157 2017.01 222.444 Q2015.87 220.707 2013.91 220.707 M2013.91 217.768 Q2017.56 217.768 2019.72 220.314 Q2021.87 222.86 2021.87 227.189 Q2021.87 231.518 2019.69 234.064 Q2017.54 236.587 2013.91 236.587 Q2010.2 236.587 2008.05 234.064 Q2005.9 231.518 2005.9 227.189 Q2005.9 222.837 2008.05 220.314 Q2010.23 217.768 2013.91 217.768 M1990.02 203.671 Q1988.03 203.671 1986.87 205.407 Q1985.74 207.12 1985.74 210.129 Q1985.74 213.184 1986.87 214.897 Q1988 216.61 1990.02 216.61 Q1992.03 216.61 1993.17 214.897 Q1994.32 213.184 1994.32 210.129 Q1994.32 207.143 1993.17 205.407 Q1992.01 203.671 1990.02 203.671 M2010.92 200.731 L2014.62 200.731 L1993 236.587 L1989.3 236.587 L2010.92 200.731 M1990.02 200.731 Q1993.68 200.731 1995.85 203.277 Q1998.03 205.8 1998.03 210.129 Q1998.03 214.504 1995.85 217.027 Q1993.7 219.55 1990.02 219.55 Q1986.34 219.55 1984.18 217.027 Q1982.06 214.481 1982.06 210.129 Q1982.06 205.823 1984.21 203.277 Q1986.36 200.731 1990.02 200.731 Z" fill="#000000" fill-rule="evenodd" fill-opacity="1" /><path clip-path="url(#clip280)" d="M2058.24 204.527 Q2053.14 204.527 2050.13 208.323 Q2047.15 212.12 2047.15 218.67 Q2047.15 225.198 2050.13 228.994 Q2053.14 232.791 2058.24 232.791 Q2063.33 232.791 2066.29 228.994 Q2069.28 225.198 2069.28 218.67 Q2069.28 212.12 2066.29 208.323 Q2063.33 204.527 2058.24 204.527 M2064.79 235.291 L2070.94 242.027 L2065.3 242.027 L2060.18 236.494 Q2059.42 236.541 2059 236.564 Q2058.61 236.587 2058.24 236.587 Q2050.94 236.587 2046.57 231.726 Q2042.22 226.842 2042.22 218.67 Q2042.22 210.476 2046.57 205.615 Q2050.94 200.731 2058.24 200.731 Q2065.5 200.731 2069.86 205.615 Q2074.21 210.476 2074.21 218.67 Q2074.21 224.689 2071.78 228.971 Q2069.37 233.254 2064.79 235.291 Z" fill="#000000" fill-rule="evenodd" fill-opacity="1" /><path clip-path="url(#clip280)" d="M2080.9 225.684 L2080.9 209.99 L2085.16 209.99 L2085.16 225.522 Q2085.16 229.203 2086.59 231.055 Q2088.03 232.883 2090.9 232.883 Q2094.35 232.883 2096.34 230.684 Q2098.35 228.485 2098.35 224.689 L2098.35 209.99 L2102.61 209.99 L2102.61 235.916 L2098.35 235.916 L2098.35 231.934 Q2096.8 234.295 2094.74 235.453 Q2092.7 236.587 2089.99 236.587 Q2085.53 236.587 2083.21 233.809 Q2080.9 231.031 2080.9 225.684 M2091.61 209.365 L2091.61 209.365 Z" fill="#000000" fill-rule="evenodd" fill-opacity="1" /><path clip-path="url(#clip280)" d="M2123.17 222.883 Q2118 222.883 2116.01 224.064 Q2114.02 225.244 2114.02 228.092 Q2114.02 230.36 2115.5 231.703 Q2117.01 233.022 2119.58 233.022 Q2123.12 233.022 2125.25 230.522 Q2127.4 227.999 2127.4 223.832 L2127.4 222.883 L2123.17 222.883 M2131.66 221.124 L2131.66 235.916 L2127.4 235.916 L2127.4 231.981 Q2125.94 234.342 2123.77 235.476 Q2121.59 236.587 2118.44 236.587 Q2114.46 236.587 2112.1 234.365 Q2109.76 232.119 2109.76 228.369 Q2109.76 223.994 2112.68 221.772 Q2115.62 219.55 2121.43 219.55 L2127.4 219.55 L2127.4 219.133 Q2127.4 216.194 2125.46 214.596 Q2123.54 212.976 2120.04 212.976 Q2117.82 212.976 2115.71 213.508 Q2113.61 214.041 2111.66 215.106 L2111.66 211.17 Q2114 210.268 2116.2 209.828 Q2118.4 209.365 2120.48 209.365 Q2126.11 209.365 2128.88 212.282 Q2131.66 215.198 2131.66 221.124 Z" fill="#000000" fill-rule="evenodd" fill-opacity="1" /><path clip-path="url(#clip280)" d="M2161.98 220.268 L2161.98 235.916 L2157.73 235.916 L2157.73 220.407 Q2157.73 216.726 2156.29 214.897 Q2154.86 213.069 2151.98 213.069 Q2148.54 213.069 2146.55 215.268 Q2144.55 217.467 2144.55 221.263 L2144.55 235.916 L2140.27 235.916 L2140.27 209.99 L2144.55 209.99 L2144.55 214.018 Q2146.08 211.68 2148.14 210.522 Q2150.23 209.365 2152.93 209.365 Q2157.4 209.365 2159.69 212.143 Q2161.98 214.897 2161.98 220.268 Z" fill="#000000" fill-rule="evenodd" fill-opacity="1" /><path clip-path="url(#clip280)" d="M2174.69 202.629 L2174.69 209.99 L2183.47 209.99 L2183.47 213.3 L2174.69 213.3 L2174.69 227.374 Q2174.69 230.545 2175.55 231.448 Q2176.43 232.351 2179.09 232.351 L2183.47 232.351 L2183.47 235.916 L2179.09 235.916 Q2174.16 235.916 2172.29 234.087 Q2170.41 232.235 2170.41 227.374 L2170.41 213.3 L2167.29 213.3 L2167.29 209.99 L2170.41 209.99 L2170.41 202.629 L2174.69 202.629 Z" fill="#000000" fill-rule="evenodd" fill-opacity="1" /><path clip-path="url(#clip280)" d="M2189.07 209.99 L2193.33 209.99 L2193.33 235.916 L2189.07 235.916 L2189.07 209.99 M2189.07 199.897 L2193.33 199.897 L2193.33 205.291 L2189.07 205.291 L2189.07 199.897 Z" fill="#000000" fill-rule="evenodd" fill-opacity="1" /><path clip-path="url(#clip280)" d="M2202.24 199.897 L2206.5 199.897 L2206.5 235.916 L2202.24 235.916 L2202.24 199.897 Z" fill="#000000" fill-rule="evenodd" fill-opacity="1" /><path clip-path="url(#clip280)" d="M2237.59 221.888 L2237.59 223.971 L2218 223.971 Q2218.28 228.369 2220.64 230.684 Q2223.03 232.976 2227.26 232.976 Q2229.72 232.976 2232.01 232.374 Q2234.32 231.772 2236.59 230.569 L2236.59 234.596 Q2234.3 235.568 2231.89 236.078 Q2229.48 236.587 2227.01 236.587 Q2220.8 236.587 2217.17 232.976 Q2213.56 229.365 2213.56 223.207 Q2213.56 216.842 2216.98 213.115 Q2220.43 209.365 2226.27 209.365 Q2231.5 209.365 2234.53 212.745 Q2237.59 216.101 2237.59 221.888 M2233.33 220.638 Q2233.28 217.143 2231.36 215.059 Q2229.46 212.976 2226.31 212.976 Q2222.75 212.976 2220.6 214.99 Q2218.47 217.004 2218.14 220.661 L2233.33 220.638 Z" fill="#000000" fill-rule="evenodd" fill-opacity="1" /></svg>
