<?xml version="1.0" encoding="utf-8"?>
<svg xmlns="http://www.w3.org/2000/svg" xmlns:xlink="http://www.w3.org/1999/xlink" width="600" height="400" viewBox="0 0 2400 1600">
<defs>
  <clipPath id="clip410">
    <rect x="0" y="0" width="2400" height="1600"/>
  </clipPath>
</defs>
<path clip-path="url(#clip410)" d="
M0 1600 L2400 1600 L2400 0 L0 0  Z
  " fill="#ffffff" fill-rule="evenodd" fill-opacity="1"/>
<defs>
  <clipPath id="clip411">
    <rect x="480" y="0" width="1681" height="1600"/>
  </clipPath>
</defs>
<path clip-path="url(#clip410)" d="
M279.704 1423.18 L2352.76 1423.18 L2352.76 123.472 L279.704 123.472  Z
  " fill="#ffffff" fill-rule="evenodd" fill-opacity="1"/>
<defs>
  <clipPath id="clip412">
    <rect x="279" y="123" width="2074" height="1301"/>
  </clipPath>
</defs>
<polyline clip-path="url(#clip412)" style="stroke:#000000; stroke-linecap:butt; stroke-linejoin:round; stroke-width:2; stroke-opacity:0.1; fill:none" points="
  338.375,1423.18 338.375,123.472 
  "/>
<polyline clip-path="url(#clip412)" style="stroke:#000000; stroke-linecap:butt; stroke-linejoin:round; stroke-width:2; stroke-opacity:0.1; fill:none" points="
  693.959,1423.18 693.959,123.472 
  "/>
<polyline clip-path="url(#clip412)" style="stroke:#000000; stroke-linecap:butt; stroke-linejoin:round; stroke-width:2; stroke-opacity:0.1; fill:none" points="
  1049.54,1423.18 1049.54,123.472 
  "/>
<polyline clip-path="url(#clip412)" style="stroke:#000000; stroke-linecap:butt; stroke-linejoin:round; stroke-width:2; stroke-opacity:0.1; fill:none" points="
  1405.13,1423.18 1405.13,123.472 
  "/>
<polyline clip-path="url(#clip412)" style="stroke:#000000; stroke-linecap:butt; stroke-linejoin:round; stroke-width:2; stroke-opacity:0.1; fill:none" points="
  1760.71,1423.18 1760.71,123.472 
  "/>
<polyline clip-path="url(#clip412)" style="stroke:#000000; stroke-linecap:butt; stroke-linejoin:round; stroke-width:2; stroke-opacity:0.1; fill:none" points="
  2116.29,1423.18 2116.29,123.472 
  "/>
<polyline clip-path="url(#clip410)" style="stroke:#000000; stroke-linecap:butt; stroke-linejoin:round; stroke-width:4; stroke-opacity:1; fill:none" points="
  279.704,1423.18 2352.76,1423.18 
  "/>
<polyline clip-path="url(#clip410)" style="stroke:#000000; stroke-linecap:butt; stroke-linejoin:round; stroke-width:4; stroke-opacity:1; fill:none" points="
  338.375,1423.18 338.375,1404.28 
  "/>
<polyline clip-path="url(#clip410)" style="stroke:#000000; stroke-linecap:butt; stroke-linejoin:round; stroke-width:4; stroke-opacity:1; fill:none" points="
  693.959,1423.18 693.959,1404.28 
  "/>
<polyline clip-path="url(#clip410)" style="stroke:#000000; stroke-linecap:butt; stroke-linejoin:round; stroke-width:4; stroke-opacity:1; fill:none" points="
  1049.54,1423.18 1049.54,1404.28 
  "/>
<polyline clip-path="url(#clip410)" style="stroke:#000000; stroke-linecap:butt; stroke-linejoin:round; stroke-width:4; stroke-opacity:1; fill:none" points="
  1405.13,1423.18 1405.13,1404.28 
  "/>
<polyline clip-path="url(#clip410)" style="stroke:#000000; stroke-linecap:butt; stroke-linejoin:round; stroke-width:4; stroke-opacity:1; fill:none" points="
  1760.71,1423.18 1760.71,1404.28 
  "/>
<polyline clip-path="url(#clip410)" style="stroke:#000000; stroke-linecap:butt; stroke-linejoin:round; stroke-width:4; stroke-opacity:1; fill:none" points="
  2116.29,1423.18 2116.29,1404.28 
  "/>
<path clip-path="url(#clip410)" d="M338.375 1454.1 Q334.764 1454.1 332.935 1457.66 Q331.13 1461.2 331.13 1468.33 Q331.13 1475.44 332.935 1479.01 Q334.764 1482.55 338.375 1482.55 Q342.009 1482.55 343.815 1479.01 Q345.644 1475.44 345.644 1468.33 Q345.644 1461.2 343.815 1457.66 Q342.009 1454.1 338.375 1454.1 M338.375 1450.39 Q344.185 1450.39 347.241 1455 Q350.32 1459.58 350.32 1468.33 Q350.32 1477.06 347.241 1481.67 Q344.185 1486.25 338.375 1486.25 Q332.565 1486.25 329.486 1481.67 Q326.431 1477.06 326.431 1468.33 Q326.431 1459.58 329.486 1455 Q332.565 1450.39 338.375 1450.39 Z" fill="#000000" fill-rule="evenodd" fill-opacity="1" /><path clip-path="url(#clip410)" d="M653.565 1481.64 L661.204 1481.64 L661.204 1455.28 L652.894 1456.95 L652.894 1452.69 L661.158 1451.02 L665.834 1451.02 L665.834 1481.64 L673.473 1481.64 L673.473 1485.58 L653.565 1485.58 L653.565 1481.64 Z" fill="#000000" fill-rule="evenodd" fill-opacity="1" /><path clip-path="url(#clip410)" d="M692.917 1454.1 Q689.306 1454.1 687.477 1457.66 Q685.672 1461.2 685.672 1468.33 Q685.672 1475.44 687.477 1479.01 Q689.306 1482.55 692.917 1482.55 Q696.551 1482.55 698.357 1479.01 Q700.186 1475.44 700.186 1468.33 Q700.186 1461.2 698.357 1457.66 Q696.551 1454.1 692.917 1454.1 M692.917 1450.39 Q698.727 1450.39 701.783 1455 Q704.861 1459.58 704.861 1468.33 Q704.861 1477.06 701.783 1481.67 Q698.727 1486.25 692.917 1486.25 Q687.107 1486.25 684.028 1481.67 Q680.973 1477.06 680.973 1468.33 Q680.973 1459.58 684.028 1455 Q687.107 1450.39 692.917 1450.39 Z" fill="#000000" fill-rule="evenodd" fill-opacity="1" /><path clip-path="url(#clip410)" d="M723.079 1454.1 Q719.468 1454.1 717.639 1457.66 Q715.834 1461.2 715.834 1468.33 Q715.834 1475.44 717.639 1479.01 Q719.468 1482.55 723.079 1482.55 Q726.713 1482.55 728.519 1479.01 Q730.347 1475.44 730.347 1468.33 Q730.347 1461.2 728.519 1457.66 Q726.713 1454.1 723.079 1454.1 M723.079 1450.39 Q728.889 1450.39 731.945 1455 Q735.023 1459.58 735.023 1468.33 Q735.023 1477.06 731.945 1481.67 Q728.889 1486.25 723.079 1486.25 Q717.269 1486.25 714.19 1481.67 Q711.135 1477.06 711.135 1468.33 Q711.135 1459.58 714.19 1455 Q717.269 1450.39 723.079 1450.39 Z" fill="#000000" fill-rule="evenodd" fill-opacity="1" /><path clip-path="url(#clip410)" d="M1013.23 1481.64 L1029.55 1481.64 L1029.55 1485.58 L1007.61 1485.58 L1007.61 1481.64 Q1010.27 1478.89 1014.85 1474.26 Q1019.46 1469.61 1020.64 1468.27 Q1022.89 1465.74 1023.77 1464.01 Q1024.67 1462.25 1024.67 1460.56 Q1024.67 1457.8 1022.73 1456.07 Q1020.8 1454.33 1017.7 1454.33 Q1015.5 1454.33 1013.05 1455.09 Q1010.62 1455.86 1007.84 1457.41 L1007.84 1452.69 Q1010.67 1451.55 1013.12 1450.97 Q1015.57 1450.39 1017.61 1450.39 Q1022.98 1450.39 1026.17 1453.08 Q1029.37 1455.77 1029.37 1460.26 Q1029.37 1462.39 1028.56 1464.31 Q1027.77 1466.2 1025.67 1468.8 Q1025.09 1469.47 1021.98 1472.69 Q1018.88 1475.88 1013.23 1481.64 Z" fill="#000000" fill-rule="evenodd" fill-opacity="1" /><path clip-path="url(#clip410)" d="M1049.37 1454.1 Q1045.76 1454.1 1043.93 1457.66 Q1042.12 1461.2 1042.12 1468.33 Q1042.12 1475.44 1043.93 1479.01 Q1045.76 1482.55 1049.37 1482.55 Q1053 1482.55 1054.81 1479.01 Q1056.64 1475.44 1056.64 1468.33 Q1056.64 1461.2 1054.81 1457.66 Q1053 1454.1 1049.37 1454.1 M1049.37 1450.39 Q1055.18 1450.39 1058.23 1455 Q1061.31 1459.58 1061.31 1468.33 Q1061.31 1477.06 1058.23 1481.67 Q1055.18 1486.25 1049.37 1486.25 Q1043.56 1486.25 1040.48 1481.67 Q1037.42 1477.06 1037.42 1468.33 Q1037.42 1459.58 1040.48 1455 Q1043.56 1450.39 1049.37 1450.39 Z" fill="#000000" fill-rule="evenodd" fill-opacity="1" /><path clip-path="url(#clip410)" d="M1079.53 1454.1 Q1075.92 1454.1 1074.09 1457.66 Q1072.29 1461.2 1072.29 1468.33 Q1072.29 1475.44 1074.09 1479.01 Q1075.92 1482.55 1079.53 1482.55 Q1083.16 1482.55 1084.97 1479.01 Q1086.8 1475.44 1086.8 1468.33 Q1086.8 1461.2 1084.97 1457.66 Q1083.16 1454.1 1079.53 1454.1 M1079.53 1450.39 Q1085.34 1450.39 1088.4 1455 Q1091.47 1459.58 1091.47 1468.33 Q1091.47 1477.06 1088.4 1481.67 Q1085.34 1486.25 1079.53 1486.25 Q1073.72 1486.25 1070.64 1481.67 Q1067.59 1477.06 1067.59 1468.33 Q1067.59 1459.58 1070.64 1455 Q1073.72 1450.39 1079.53 1450.39 Z" fill="#000000" fill-rule="evenodd" fill-opacity="1" /><path clip-path="url(#clip410)" d="M1378.89 1466.95 Q1382.24 1467.66 1384.12 1469.93 Q1386.02 1472.2 1386.02 1475.53 Q1386.02 1480.65 1382.5 1483.45 Q1378.98 1486.25 1372.5 1486.25 Q1370.32 1486.25 1368.01 1485.81 Q1365.72 1485.39 1363.26 1484.54 L1363.26 1480.02 Q1365.21 1481.16 1367.52 1481.74 Q1369.84 1482.32 1372.36 1482.32 Q1376.76 1482.32 1379.05 1480.58 Q1381.36 1478.84 1381.36 1475.53 Q1381.36 1472.48 1379.21 1470.77 Q1377.08 1469.03 1373.26 1469.03 L1369.23 1469.03 L1369.23 1465.19 L1373.45 1465.19 Q1376.9 1465.19 1378.73 1463.82 Q1380.55 1462.43 1380.55 1459.84 Q1380.55 1457.18 1378.66 1455.77 Q1376.78 1454.33 1373.26 1454.33 Q1371.34 1454.33 1369.14 1454.75 Q1366.94 1455.16 1364.3 1456.04 L1364.3 1451.88 Q1366.97 1451.14 1369.28 1450.77 Q1371.62 1450.39 1373.68 1450.39 Q1379 1450.39 1382.11 1452.83 Q1385.21 1455.23 1385.21 1459.35 Q1385.21 1462.22 1383.56 1464.21 Q1381.92 1466.18 1378.89 1466.95 Z" fill="#000000" fill-rule="evenodd" fill-opacity="1" /><path clip-path="url(#clip410)" d="M1404.88 1454.1 Q1401.27 1454.1 1399.44 1457.66 Q1397.64 1461.2 1397.64 1468.33 Q1397.64 1475.44 1399.44 1479.01 Q1401.27 1482.55 1404.88 1482.55 Q1408.52 1482.55 1410.32 1479.01 Q1412.15 1475.44 1412.15 1468.33 Q1412.15 1461.2 1410.32 1457.66 Q1408.52 1454.1 1404.88 1454.1 M1404.88 1450.39 Q1410.69 1450.39 1413.75 1455 Q1416.83 1459.58 1416.83 1468.33 Q1416.83 1477.06 1413.75 1481.67 Q1410.69 1486.25 1404.88 1486.25 Q1399.07 1486.25 1395.99 1481.67 Q1392.94 1477.06 1392.94 1468.33 Q1392.94 1459.58 1395.99 1455 Q1399.07 1450.39 1404.88 1450.39 Z" fill="#000000" fill-rule="evenodd" fill-opacity="1" /><path clip-path="url(#clip410)" d="M1435.04 1454.1 Q1431.43 1454.1 1429.6 1457.66 Q1427.8 1461.2 1427.8 1468.33 Q1427.8 1475.44 1429.6 1479.01 Q1431.43 1482.55 1435.04 1482.55 Q1438.68 1482.55 1440.48 1479.01 Q1442.31 1475.44 1442.31 1468.33 Q1442.31 1461.2 1440.48 1457.66 Q1438.68 1454.1 1435.04 1454.1 M1435.04 1450.39 Q1440.85 1450.39 1443.91 1455 Q1446.99 1459.58 1446.99 1468.33 Q1446.99 1477.06 1443.91 1481.67 Q1440.85 1486.25 1435.04 1486.25 Q1429.23 1486.25 1426.16 1481.67 Q1423.1 1477.06 1423.1 1468.33 Q1423.1 1459.58 1426.16 1455 Q1429.23 1450.39 1435.04 1450.39 Z" fill="#000000" fill-rule="evenodd" fill-opacity="1" /><path clip-path="url(#clip410)" d="M1733.8 1455.09 L1721.99 1473.54 L1733.8 1473.54 L1733.8 1455.09 M1732.57 1451.02 L1738.45 1451.02 L1738.45 1473.54 L1743.38 1473.54 L1743.38 1477.43 L1738.45 1477.43 L1738.45 1485.58 L1733.8 1485.58 L1733.8 1477.43 L1718.2 1477.43 L1718.2 1472.92 L1732.57 1451.02 Z" fill="#000000" fill-rule="evenodd" fill-opacity="1" /><path clip-path="url(#clip410)" d="M1761.11 1454.1 Q1757.5 1454.1 1755.67 1457.66 Q1753.87 1461.2 1753.87 1468.33 Q1753.87 1475.44 1755.67 1479.01 Q1757.5 1482.55 1761.11 1482.55 Q1764.75 1482.55 1766.55 1479.01 Q1768.38 1475.44 1768.38 1468.33 Q1768.38 1461.2 1766.55 1457.66 Q1764.75 1454.1 1761.11 1454.1 M1761.11 1450.39 Q1766.92 1450.39 1769.98 1455 Q1773.06 1459.58 1773.06 1468.33 Q1773.06 1477.06 1769.98 1481.67 Q1766.92 1486.25 1761.11 1486.25 Q1755.3 1486.25 1752.23 1481.67 Q1749.17 1477.06 1749.17 1468.33 Q1749.17 1459.58 1752.23 1455 Q1755.3 1450.39 1761.11 1450.39 Z" fill="#000000" fill-rule="evenodd" fill-opacity="1" /><path clip-path="url(#clip410)" d="M1791.28 1454.1 Q1787.67 1454.1 1785.84 1457.66 Q1784.03 1461.2 1784.03 1468.33 Q1784.03 1475.44 1785.84 1479.01 Q1787.67 1482.55 1791.28 1482.55 Q1794.91 1482.55 1796.72 1479.01 Q1798.54 1475.44 1798.54 1468.33 Q1798.54 1461.2 1796.72 1457.66 Q1794.91 1454.1 1791.28 1454.1 M1791.28 1450.39 Q1797.09 1450.39 1800.14 1455 Q1803.22 1459.58 1803.22 1468.33 Q1803.22 1477.06 1800.14 1481.67 Q1797.09 1486.25 1791.28 1486.25 Q1785.47 1486.25 1782.39 1481.67 Q1779.33 1477.06 1779.33 1468.33 Q1779.33 1459.58 1782.39 1455 Q1785.47 1450.39 1791.28 1450.39 Z" fill="#000000" fill-rule="evenodd" fill-opacity="1" /><path clip-path="url(#clip410)" d="M2075.91 1451.02 L2094.27 1451.02 L2094.27 1454.96 L2080.19 1454.96 L2080.19 1463.43 Q2081.21 1463.08 2082.23 1462.92 Q2083.25 1462.73 2084.27 1462.73 Q2090.05 1462.73 2093.43 1465.9 Q2096.81 1469.08 2096.81 1474.49 Q2096.81 1480.07 2093.34 1483.17 Q2089.87 1486.25 2083.55 1486.25 Q2081.37 1486.25 2079.11 1485.88 Q2076.86 1485.51 2074.45 1484.77 L2074.45 1480.07 Q2076.54 1481.2 2078.76 1481.76 Q2080.98 1482.32 2083.46 1482.32 Q2087.46 1482.32 2089.8 1480.21 Q2092.14 1478.1 2092.14 1474.49 Q2092.14 1470.88 2089.8 1468.77 Q2087.46 1466.67 2083.46 1466.67 Q2081.58 1466.67 2079.71 1467.08 Q2077.86 1467.5 2075.91 1468.38 L2075.91 1451.02 Z" fill="#000000" fill-rule="evenodd" fill-opacity="1" /><path clip-path="url(#clip410)" d="M2116.03 1454.1 Q2112.42 1454.1 2110.59 1457.66 Q2108.78 1461.2 2108.78 1468.33 Q2108.78 1475.44 2110.59 1479.01 Q2112.42 1482.55 2116.03 1482.55 Q2119.66 1482.55 2121.47 1479.01 Q2123.3 1475.44 2123.3 1468.33 Q2123.3 1461.2 2121.47 1457.66 Q2119.66 1454.1 2116.03 1454.1 M2116.03 1450.39 Q2121.84 1450.39 2124.89 1455 Q2127.97 1459.58 2127.97 1468.33 Q2127.97 1477.06 2124.89 1481.67 Q2121.84 1486.25 2116.03 1486.25 Q2110.22 1486.25 2107.14 1481.67 Q2104.08 1477.06 2104.08 1468.33 Q2104.08 1459.58 2107.14 1455 Q2110.22 1450.39 2116.03 1450.39 Z" fill="#000000" fill-rule="evenodd" fill-opacity="1" /><path clip-path="url(#clip410)" d="M2146.19 1454.1 Q2142.58 1454.1 2140.75 1457.66 Q2138.94 1461.2 2138.94 1468.33 Q2138.94 1475.44 2140.75 1479.01 Q2142.58 1482.55 2146.19 1482.55 Q2149.82 1482.55 2151.63 1479.01 Q2153.46 1475.44 2153.46 1468.33 Q2153.46 1461.2 2151.63 1457.66 Q2149.82 1454.1 2146.19 1454.1 M2146.19 1450.39 Q2152 1450.39 2155.05 1455 Q2158.13 1459.58 2158.13 1468.33 Q2158.13 1477.06 2155.05 1481.67 Q2152 1486.25 2146.19 1486.25 Q2140.38 1486.25 2137.3 1481.67 Q2134.24 1477.06 2134.24 1468.33 Q2134.24 1459.58 2137.3 1455 Q2140.38 1450.39 2146.19 1450.39 Z" fill="#000000" fill-rule="evenodd" fill-opacity="1" /><path clip-path="url(#clip410)" d="M1315.29 1522.27 L1315.29 1532.4 L1327.35 1532.4 L1327.35 1536.95 L1315.29 1536.95 L1315.29 1556.3 Q1315.29 1560.66 1316.47 1561.9 Q1317.68 1563.14 1321.34 1563.14 L1327.35 1563.14 L1327.35 1568.04 L1321.34 1568.04 Q1314.56 1568.04 1311.98 1565.53 Q1309.4 1562.98 1309.4 1556.3 L1309.4 1536.95 L1305.11 1536.95 L1305.11 1532.4 L1309.4 1532.4 L1309.4 1522.27 L1315.29 1522.27 Z" fill="#000000" fill-rule="evenodd" fill-opacity="1" /><polyline clip-path="url(#clip412)" style="stroke:#000000; stroke-linecap:butt; stroke-linejoin:round; stroke-width:2; stroke-opacity:0.1; fill:none" points="
  279.704,1387.11 2352.76,1387.11 
  "/>
<polyline clip-path="url(#clip412)" style="stroke:#000000; stroke-linecap:butt; stroke-linejoin:round; stroke-width:2; stroke-opacity:0.1; fill:none" points="
  279.704,1099.49 2352.76,1099.49 
  "/>
<polyline clip-path="url(#clip412)" style="stroke:#000000; stroke-linecap:butt; stroke-linejoin:round; stroke-width:2; stroke-opacity:0.1; fill:none" points="
  279.704,811.875 2352.76,811.875 
  "/>
<polyline clip-path="url(#clip412)" style="stroke:#000000; stroke-linecap:butt; stroke-linejoin:round; stroke-width:2; stroke-opacity:0.1; fill:none" points="
  279.704,524.259 2352.76,524.259 
  "/>
<polyline clip-path="url(#clip412)" style="stroke:#000000; stroke-linecap:butt; stroke-linejoin:round; stroke-width:2; stroke-opacity:0.1; fill:none" points="
  279.704,236.643 2352.76,236.643 
  "/>
<polyline clip-path="url(#clip410)" style="stroke:#000000; stroke-linecap:butt; stroke-linejoin:round; stroke-width:4; stroke-opacity:1; fill:none" points="
  279.704,1423.18 279.704,123.472 
  "/>
<polyline clip-path="url(#clip410)" style="stroke:#000000; stroke-linecap:butt; stroke-linejoin:round; stroke-width:4; stroke-opacity:1; fill:none" points="
  279.704,1387.11 298.602,1387.11 
  "/>
<polyline clip-path="url(#clip410)" style="stroke:#000000; stroke-linecap:butt; stroke-linejoin:round; stroke-width:4; stroke-opacity:1; fill:none" points="
  279.704,1099.49 298.602,1099.49 
  "/>
<polyline clip-path="url(#clip410)" style="stroke:#000000; stroke-linecap:butt; stroke-linejoin:round; stroke-width:4; stroke-opacity:1; fill:none" points="
  279.704,811.875 298.602,811.875 
  "/>
<polyline clip-path="url(#clip410)" style="stroke:#000000; stroke-linecap:butt; stroke-linejoin:round; stroke-width:4; stroke-opacity:1; fill:none" points="
  279.704,524.259 298.602,524.259 
  "/>
<polyline clip-path="url(#clip410)" style="stroke:#000000; stroke-linecap:butt; stroke-linejoin:round; stroke-width:4; stroke-opacity:1; fill:none" points="
  279.704,236.643 298.602,236.643 
  "/>
<path clip-path="url(#clip410)" d="M126.205 1372.91 Q122.593 1372.91 120.765 1376.47 Q118.959 1380.01 118.959 1387.14 Q118.959 1394.25 120.765 1397.81 Q122.593 1401.36 126.205 1401.36 Q129.839 1401.36 131.644 1397.81 Q133.473 1394.25 133.473 1387.14 Q133.473 1380.01 131.644 1376.47 Q129.839 1372.91 126.205 1372.91 M126.205 1369.2 Q132.015 1369.2 135.07 1373.81 Q138.149 1378.39 138.149 1387.14 Q138.149 1395.87 135.07 1400.48 Q132.015 1405.06 126.205 1405.06 Q120.394 1405.06 117.316 1400.48 Q114.26 1395.87 114.26 1387.14 Q114.26 1378.39 117.316 1373.81 Q120.394 1369.2 126.205 1369.2 Z" fill="#000000" fill-rule="evenodd" fill-opacity="1" /><path clip-path="url(#clip410)" d="M146.366 1398.51 L151.251 1398.51 L151.251 1404.39 L146.366 1404.39 L146.366 1398.51 Z" fill="#000000" fill-rule="evenodd" fill-opacity="1" /><path clip-path="url(#clip410)" d="M171.436 1372.91 Q167.825 1372.91 165.996 1376.47 Q164.19 1380.01 164.19 1387.14 Q164.19 1394.25 165.996 1397.81 Q167.825 1401.36 171.436 1401.36 Q175.07 1401.36 176.876 1397.81 Q178.704 1394.25 178.704 1387.14 Q178.704 1380.01 176.876 1376.47 Q175.07 1372.91 171.436 1372.91 M171.436 1369.2 Q177.246 1369.2 180.301 1373.81 Q183.38 1378.39 183.38 1387.14 Q183.38 1395.87 180.301 1400.48 Q177.246 1405.06 171.436 1405.06 Q165.626 1405.06 162.547 1400.48 Q159.491 1395.87 159.491 1387.14 Q159.491 1378.39 162.547 1373.81 Q165.626 1369.2 171.436 1369.2 Z" fill="#000000" fill-rule="evenodd" fill-opacity="1" /><path clip-path="url(#clip410)" d="M201.598 1372.91 Q197.987 1372.91 196.158 1376.47 Q194.352 1380.01 194.352 1387.14 Q194.352 1394.25 196.158 1397.81 Q197.987 1401.36 201.598 1401.36 Q205.232 1401.36 207.037 1397.81 Q208.866 1394.25 208.866 1387.14 Q208.866 1380.01 207.037 1376.47 Q205.232 1372.91 201.598 1372.91 M201.598 1369.2 Q207.408 1369.2 210.463 1373.81 Q213.542 1378.39 213.542 1387.14 Q213.542 1395.87 210.463 1400.48 Q207.408 1405.06 201.598 1405.06 Q195.787 1405.06 192.709 1400.48 Q189.653 1395.87 189.653 1387.14 Q189.653 1378.39 192.709 1373.81 Q195.787 1369.2 201.598 1369.2 Z" fill="#000000" fill-rule="evenodd" fill-opacity="1" /><path clip-path="url(#clip410)" d="M231.76 1372.91 Q228.148 1372.91 226.32 1376.47 Q224.514 1380.01 224.514 1387.14 Q224.514 1394.25 226.32 1397.81 Q228.148 1401.36 231.76 1401.36 Q235.394 1401.36 237.199 1397.81 Q239.028 1394.25 239.028 1387.14 Q239.028 1380.01 237.199 1376.47 Q235.394 1372.91 231.76 1372.91 M231.76 1369.2 Q237.57 1369.2 240.625 1373.81 Q243.704 1378.39 243.704 1387.14 Q243.704 1395.87 240.625 1400.48 Q237.57 1405.06 231.76 1405.06 Q225.949 1405.06 222.871 1400.48 Q219.815 1395.87 219.815 1387.14 Q219.815 1378.39 222.871 1373.81 Q225.949 1369.2 231.76 1369.2 Z" fill="#000000" fill-rule="evenodd" fill-opacity="1" /><path clip-path="url(#clip410)" d="M127.2 1085.29 Q123.589 1085.29 121.76 1088.85 Q119.955 1092.4 119.955 1099.53 Q119.955 1106.63 121.76 1110.2 Q123.589 1113.74 127.2 1113.74 Q130.834 1113.74 132.64 1110.2 Q134.468 1106.63 134.468 1099.53 Q134.468 1092.4 132.64 1088.85 Q130.834 1085.29 127.2 1085.29 M127.2 1081.59 Q133.01 1081.59 136.066 1086.19 Q139.144 1090.78 139.144 1099.53 Q139.144 1108.25 136.066 1112.86 Q133.01 1117.44 127.2 1117.44 Q121.39 1117.44 118.311 1112.86 Q115.256 1108.25 115.256 1099.53 Q115.256 1090.78 118.311 1086.19 Q121.39 1081.59 127.2 1081.59 Z" fill="#000000" fill-rule="evenodd" fill-opacity="1" /><path clip-path="url(#clip410)" d="M147.362 1110.89 L152.246 1110.89 L152.246 1116.77 L147.362 1116.77 L147.362 1110.89 Z" fill="#000000" fill-rule="evenodd" fill-opacity="1" /><path clip-path="url(#clip410)" d="M172.431 1085.29 Q168.82 1085.29 166.991 1088.85 Q165.186 1092.4 165.186 1099.53 Q165.186 1106.63 166.991 1110.2 Q168.82 1113.74 172.431 1113.74 Q176.065 1113.74 177.871 1110.2 Q179.7 1106.63 179.7 1099.53 Q179.7 1092.4 177.871 1088.85 Q176.065 1085.29 172.431 1085.29 M172.431 1081.59 Q178.241 1081.59 181.297 1086.19 Q184.376 1090.78 184.376 1099.53 Q184.376 1108.25 181.297 1112.86 Q178.241 1117.44 172.431 1117.44 Q166.621 1117.44 163.542 1112.86 Q160.487 1108.25 160.487 1099.53 Q160.487 1090.78 163.542 1086.19 Q166.621 1081.59 172.431 1081.59 Z" fill="#000000" fill-rule="evenodd" fill-opacity="1" /><path clip-path="url(#clip410)" d="M196.621 1112.84 L212.94 1112.84 L212.94 1116.77 L190.996 1116.77 L190.996 1112.84 Q193.658 1110.08 198.241 1105.45 Q202.848 1100.8 204.028 1099.46 Q206.274 1096.93 207.153 1095.2 Q208.056 1093.44 208.056 1091.75 Q208.056 1088.99 206.112 1087.26 Q204.19 1085.52 201.088 1085.52 Q198.889 1085.52 196.436 1086.29 Q194.005 1087.05 191.227 1088.6 L191.227 1083.88 Q194.051 1082.74 196.505 1082.17 Q198.959 1081.59 200.996 1081.59 Q206.366 1081.59 209.561 1084.27 Q212.755 1086.96 212.755 1091.45 Q212.755 1093.58 211.945 1095.5 Q211.158 1097.4 209.051 1099.99 Q208.473 1100.66 205.371 1103.88 Q202.269 1107.07 196.621 1112.84 Z" fill="#000000" fill-rule="evenodd" fill-opacity="1" /><path clip-path="url(#clip410)" d="M222.801 1082.21 L241.158 1082.21 L241.158 1086.15 L227.084 1086.15 L227.084 1094.62 Q228.102 1094.27 229.121 1094.11 Q230.139 1093.92 231.158 1093.92 Q236.945 1093.92 240.324 1097.1 Q243.704 1100.27 243.704 1105.68 Q243.704 1111.26 240.232 1114.36 Q236.76 1117.44 230.44 1117.44 Q228.264 1117.44 225.996 1117.07 Q223.75 1116.7 221.343 1115.96 L221.343 1111.26 Q223.426 1112.4 225.648 1112.95 Q227.871 1113.51 230.347 1113.51 Q234.352 1113.51 236.69 1111.4 Q239.028 1109.29 239.028 1105.68 Q239.028 1102.07 236.69 1099.97 Q234.352 1097.86 230.347 1097.86 Q228.473 1097.86 226.598 1098.28 Q224.746 1098.69 222.801 1099.57 L222.801 1082.21 Z" fill="#000000" fill-rule="evenodd" fill-opacity="1" /><path clip-path="url(#clip410)" d="M126.205 797.674 Q122.593 797.674 120.765 801.239 Q118.959 804.781 118.959 811.91 Q118.959 819.017 120.765 822.581 Q122.593 826.123 126.205 826.123 Q129.839 826.123 131.644 822.581 Q133.473 819.017 133.473 811.91 Q133.473 804.781 131.644 801.239 Q129.839 797.674 126.205 797.674 M126.205 793.97 Q132.015 793.97 135.07 798.577 Q138.149 803.16 138.149 811.91 Q138.149 820.637 135.07 825.243 Q132.015 829.827 126.205 829.827 Q120.394 829.827 117.316 825.243 Q114.26 820.637 114.26 811.91 Q114.26 803.16 117.316 798.577 Q120.394 793.97 126.205 793.97 Z" fill="#000000" fill-rule="evenodd" fill-opacity="1" /><path clip-path="url(#clip410)" d="M146.366 823.276 L151.251 823.276 L151.251 829.155 L146.366 829.155 L146.366 823.276 Z" fill="#000000" fill-rule="evenodd" fill-opacity="1" /><path clip-path="url(#clip410)" d="M171.436 797.674 Q167.825 797.674 165.996 801.239 Q164.19 804.781 164.19 811.91 Q164.19 819.017 165.996 822.581 Q167.825 826.123 171.436 826.123 Q175.07 826.123 176.876 822.581 Q178.704 819.017 178.704 811.91 Q178.704 804.781 176.876 801.239 Q175.07 797.674 171.436 797.674 M171.436 793.97 Q177.246 793.97 180.301 798.577 Q183.38 803.16 183.38 811.91 Q183.38 820.637 180.301 825.243 Q177.246 829.827 171.436 829.827 Q165.626 829.827 162.547 825.243 Q159.491 820.637 159.491 811.91 Q159.491 803.16 162.547 798.577 Q165.626 793.97 171.436 793.97 Z" fill="#000000" fill-rule="evenodd" fill-opacity="1" /><path clip-path="url(#clip410)" d="M191.644 794.595 L210 794.595 L210 798.531 L195.926 798.531 L195.926 807.003 Q196.945 806.656 197.963 806.494 Q198.982 806.308 200 806.308 Q205.787 806.308 209.167 809.48 Q212.547 812.651 212.547 818.068 Q212.547 823.646 209.074 826.748 Q205.602 829.827 199.283 829.827 Q197.107 829.827 194.838 829.456 Q192.593 829.086 190.186 828.345 L190.186 823.646 Q192.269 824.78 194.491 825.336 Q196.713 825.892 199.19 825.892 Q203.195 825.892 205.533 823.785 Q207.871 821.679 207.871 818.068 Q207.871 814.456 205.533 812.35 Q203.195 810.244 199.19 810.244 Q197.315 810.244 195.44 810.66 Q193.588 811.077 191.644 811.956 L191.644 794.595 Z" fill="#000000" fill-rule="evenodd" fill-opacity="1" /><path clip-path="url(#clip410)" d="M231.76 797.674 Q228.148 797.674 226.32 801.239 Q224.514 804.781 224.514 811.91 Q224.514 819.017 226.32 822.581 Q228.148 826.123 231.76 826.123 Q235.394 826.123 237.199 822.581 Q239.028 819.017 239.028 811.91 Q239.028 804.781 237.199 801.239 Q235.394 797.674 231.76 797.674 M231.76 793.97 Q237.57 793.97 240.625 798.577 Q243.704 803.16 243.704 811.91 Q243.704 820.637 240.625 825.243 Q237.57 829.827 231.76 829.827 Q225.949 829.827 222.871 825.243 Q219.815 820.637 219.815 811.91 Q219.815 803.16 222.871 798.577 Q225.949 793.97 231.76 793.97 Z" fill="#000000" fill-rule="evenodd" fill-opacity="1" /><path clip-path="url(#clip410)" d="M127.2 510.058 Q123.589 510.058 121.76 513.623 Q119.955 517.165 119.955 524.294 Q119.955 531.401 121.76 534.965 Q123.589 538.507 127.2 538.507 Q130.834 538.507 132.64 534.965 Q134.468 531.401 134.468 524.294 Q134.468 517.165 132.64 513.623 Q130.834 510.058 127.2 510.058 M127.2 506.354 Q133.01 506.354 136.066 510.961 Q139.144 515.544 139.144 524.294 Q139.144 533.021 136.066 537.627 Q133.01 542.211 127.2 542.211 Q121.39 542.211 118.311 537.627 Q115.256 533.021 115.256 524.294 Q115.256 515.544 118.311 510.961 Q121.39 506.354 127.2 506.354 Z" fill="#000000" fill-rule="evenodd" fill-opacity="1" /><path clip-path="url(#clip410)" d="M147.362 535.66 L152.246 535.66 L152.246 541.539 L147.362 541.539 L147.362 535.66 Z" fill="#000000" fill-rule="evenodd" fill-opacity="1" /><path clip-path="url(#clip410)" d="M172.431 510.058 Q168.82 510.058 166.991 513.623 Q165.186 517.165 165.186 524.294 Q165.186 531.401 166.991 534.965 Q168.82 538.507 172.431 538.507 Q176.065 538.507 177.871 534.965 Q179.7 531.401 179.7 524.294 Q179.7 517.165 177.871 513.623 Q176.065 510.058 172.431 510.058 M172.431 506.354 Q178.241 506.354 181.297 510.961 Q184.376 515.544 184.376 524.294 Q184.376 533.021 181.297 537.627 Q178.241 542.211 172.431 542.211 Q166.621 542.211 163.542 537.627 Q160.487 533.021 160.487 524.294 Q160.487 515.544 163.542 510.961 Q166.621 506.354 172.431 506.354 Z" fill="#000000" fill-rule="evenodd" fill-opacity="1" /><path clip-path="url(#clip410)" d="M191.413 506.979 L213.635 506.979 L213.635 508.97 L201.088 541.539 L196.204 541.539 L208.01 510.915 L191.413 510.915 L191.413 506.979 Z" fill="#000000" fill-rule="evenodd" fill-opacity="1" /><path clip-path="url(#clip410)" d="M222.801 506.979 L241.158 506.979 L241.158 510.915 L227.084 510.915 L227.084 519.387 Q228.102 519.04 229.121 518.878 Q230.139 518.692 231.158 518.692 Q236.945 518.692 240.324 521.864 Q243.704 525.035 243.704 530.452 Q243.704 536.03 240.232 539.132 Q236.76 542.211 230.44 542.211 Q228.264 542.211 225.996 541.84 Q223.75 541.47 221.343 540.729 L221.343 536.03 Q223.426 537.164 225.648 537.72 Q227.871 538.276 230.347 538.276 Q234.352 538.276 236.69 536.169 Q239.028 534.063 239.028 530.452 Q239.028 526.84 236.69 524.734 Q234.352 522.628 230.347 522.628 Q228.473 522.628 226.598 523.044 Q224.746 523.461 222.801 524.34 L222.801 506.979 Z" fill="#000000" fill-rule="evenodd" fill-opacity="1" /><path clip-path="url(#clip410)" d="M126.205 222.442 Q122.593 222.442 120.765 226.007 Q118.959 229.549 118.959 236.678 Q118.959 243.785 120.765 247.349 Q122.593 250.891 126.205 250.891 Q129.839 250.891 131.644 247.349 Q133.473 243.785 133.473 236.678 Q133.473 229.549 131.644 226.007 Q129.839 222.442 126.205 222.442 M126.205 218.738 Q132.015 218.738 135.07 223.345 Q138.149 227.928 138.149 236.678 Q138.149 245.405 135.07 250.011 Q132.015 254.595 126.205 254.595 Q120.394 254.595 117.316 250.011 Q114.26 245.405 114.26 236.678 Q114.26 227.928 117.316 223.345 Q120.394 218.738 126.205 218.738 Z" fill="#000000" fill-rule="evenodd" fill-opacity="1" /><path clip-path="url(#clip410)" d="M146.366 248.044 L151.251 248.044 L151.251 253.923 L146.366 253.923 L146.366 248.044 Z" fill="#000000" fill-rule="evenodd" fill-opacity="1" /><path clip-path="url(#clip410)" d="M162.246 249.988 L169.885 249.988 L169.885 223.623 L161.575 225.289 L161.575 221.03 L169.839 219.363 L174.514 219.363 L174.514 249.988 L182.153 249.988 L182.153 253.923 L162.246 253.923 L162.246 249.988 Z" fill="#000000" fill-rule="evenodd" fill-opacity="1" /><path clip-path="url(#clip410)" d="M201.598 222.442 Q197.987 222.442 196.158 226.007 Q194.352 229.549 194.352 236.678 Q194.352 243.785 196.158 247.349 Q197.987 250.891 201.598 250.891 Q205.232 250.891 207.037 247.349 Q208.866 243.785 208.866 236.678 Q208.866 229.549 207.037 226.007 Q205.232 222.442 201.598 222.442 M201.598 218.738 Q207.408 218.738 210.463 223.345 Q213.542 227.928 213.542 236.678 Q213.542 245.405 210.463 250.011 Q207.408 254.595 201.598 254.595 Q195.787 254.595 192.709 250.011 Q189.653 245.405 189.653 236.678 Q189.653 227.928 192.709 223.345 Q195.787 218.738 201.598 218.738 Z" fill="#000000" fill-rule="evenodd" fill-opacity="1" /><path clip-path="url(#clip410)" d="M231.76 222.442 Q228.148 222.442 226.32 226.007 Q224.514 229.549 224.514 236.678 Q224.514 243.785 226.32 247.349 Q228.148 250.891 231.76 250.891 Q235.394 250.891 237.199 247.349 Q239.028 243.785 239.028 236.678 Q239.028 229.549 237.199 226.007 Q235.394 222.442 231.76 222.442 M231.76 218.738 Q237.57 218.738 240.625 223.345 Q243.704 227.928 243.704 236.678 Q243.704 245.405 240.625 250.011 Q237.57 254.595 231.76 254.595 Q225.949 254.595 222.871 250.011 Q219.815 245.405 219.815 236.678 Q219.815 227.928 222.871 223.345 Q225.949 218.738 231.76 218.738 Z" fill="#000000" fill-rule="evenodd" fill-opacity="1" /><path clip-path="url(#clip410)" d="M28.3562 814.719 L28.3562 808.863 L64.0042 808.863 L64.0042 814.719 L28.3562 814.719 M14.479 814.719 L14.479 808.863 L21.895 808.863 L21.895 814.719 L14.479 814.719 Z" fill="#000000" fill-rule="evenodd" fill-opacity="1" /><path clip-path="url(#clip410)" d="M14.5426 782.54 Q21.8632 786.805 29.0246 788.874 Q36.186 790.943 43.5384 790.943 Q50.8908 790.943 58.1159 788.874 Q65.3091 786.774 72.5979 782.54 L72.5979 787.633 Q65.1182 792.407 57.8931 794.794 Q50.668 797.15 43.5384 797.15 Q36.4406 797.15 29.2474 794.794 Q22.0542 792.439 14.5426 787.633 L14.5426 782.54 Z" fill="#000000" fill-rule="evenodd" fill-opacity="1" /><path clip-path="url(#clip410)" d="M18.2347 765.385 L28.3562 765.385 L28.3562 753.322 L32.9077 753.322 L32.9077 765.385 L52.2594 765.385 Q56.6199 765.385 57.8613 764.207 Q59.1026 762.998 59.1026 759.337 L59.1026 753.322 L64.0042 753.322 L64.0042 759.337 Q64.0042 766.117 61.4897 768.695 Q58.9434 771.273 52.2594 771.273 L32.9077 771.273 L32.9077 775.57 L28.3562 775.57 L28.3562 771.273 L18.2347 771.273 L18.2347 765.385 Z" fill="#000000" fill-rule="evenodd" fill-opacity="1" /><path clip-path="url(#clip410)" d="M14.5426 746.542 L14.5426 741.45 Q22.0542 736.675 29.2474 734.32 Q36.4406 731.933 43.5384 731.933 Q50.668 731.933 57.8931 734.32 Q65.1182 736.675 72.5979 741.45 L72.5979 746.542 Q65.3091 742.309 58.1159 740.24 Q50.8908 738.14 43.5384 738.14 Q36.186 738.14 29.0246 740.24 Q21.8632 742.309 14.5426 746.542 Z" fill="#000000" fill-rule="evenodd" fill-opacity="1" /><path clip-path="url(#clip410)" d="M666.222 17.6457 Q657.31 17.6457 652.044 24.2892 Q646.818 30.9327 646.818 42.3968 Q646.818 53.8203 652.044 60.4638 Q657.31 67.1073 666.222 67.1073 Q675.134 67.1073 680.319 60.4638 Q685.545 53.8203 685.545 42.3968 Q685.545 30.9327 680.319 24.2892 Q675.134 17.6457 666.222 17.6457 M677.686 71.4823 L688.461 83.2704 L678.577 83.2704 L669.625 73.5887 Q668.288 73.6697 667.559 73.7103 Q666.87 73.7508 666.222 73.7508 Q653.461 73.7508 645.805 65.2439 Q638.19 56.6965 638.19 42.3968 Q638.19 28.0566 645.805 19.5497 Q653.461 11.0023 666.222 11.0023 Q678.942 11.0023 686.557 19.5497 Q694.173 28.0566 694.173 42.3968 Q694.173 52.9291 689.92 60.4233 Q685.707 67.9175 677.686 71.4823 Z" fill="#000000" fill-rule="evenodd" fill-opacity="1" /><path clip-path="url(#clip410)" d="M705.88 54.671 L705.88 27.2059 L713.334 27.2059 L713.334 54.3874 Q713.334 60.8284 715.845 64.0691 Q718.357 67.2693 723.38 67.2693 Q729.416 67.2693 732.9 63.421 Q736.424 59.5726 736.424 52.9291 L736.424 27.2059 L743.878 27.2059 L743.878 72.576 L736.424 72.576 L736.424 65.6084 Q733.71 69.7404 730.105 71.7658 Q726.54 73.7508 721.8 73.7508 Q713.982 73.7508 709.931 68.8897 Q705.88 64.0286 705.88 54.671 M724.636 26.1121 L724.636 26.1121 Z" fill="#000000" fill-rule="evenodd" fill-opacity="1" /><path clip-path="url(#clip410)" d="M779.85 49.7694 Q770.816 49.7694 767.332 51.8354 Q763.849 53.9013 763.849 58.8839 Q763.849 62.8538 766.441 65.2034 Q769.074 67.5124 773.571 67.5124 Q779.769 67.5124 783.495 63.1374 Q787.263 58.7219 787.263 51.4303 L787.263 49.7694 L779.85 49.7694 M794.716 46.6907 L794.716 72.576 L787.263 72.576 L787.263 65.6895 Q784.711 69.8214 780.903 71.8063 Q777.095 73.7508 771.586 73.7508 Q764.618 73.7508 760.486 69.8619 Q756.395 65.9325 756.395 59.3701 Q756.395 51.7138 761.499 47.825 Q766.644 43.9361 776.812 43.9361 L787.263 43.9361 L787.263 43.2069 Q787.263 38.0623 783.86 35.2672 Q780.498 32.4315 774.381 32.4315 Q770.492 32.4315 766.806 33.3632 Q763.119 34.295 759.717 36.1584 L759.717 29.2718 Q763.808 27.692 767.656 26.9223 Q771.505 26.1121 775.151 26.1121 Q784.994 26.1121 789.855 31.2163 Q794.716 36.3204 794.716 46.6907 Z" fill="#000000" fill-rule="evenodd" fill-opacity="1" /><path clip-path="url(#clip410)" d="M847.783 45.1919 L847.783 72.576 L840.33 72.576 L840.33 45.4349 Q840.33 38.994 837.818 35.7938 Q835.307 32.5936 830.283 32.5936 Q824.248 32.5936 820.764 36.4419 Q817.28 40.2903 817.28 46.9338 L817.28 72.576 L809.786 72.576 L809.786 27.2059 L817.28 27.2059 L817.28 34.2544 Q819.954 30.163 823.559 28.1376 Q827.205 26.1121 831.944 26.1121 Q839.763 26.1121 843.773 30.9732 Q847.783 35.7938 847.783 45.1919 Z" fill="#000000" fill-rule="evenodd" fill-opacity="1" /><path clip-path="url(#clip410)" d="M870.023 14.324 L870.023 27.2059 L885.376 27.2059 L885.376 32.9987 L870.023 32.9987 L870.023 57.6282 Q870.023 63.1779 871.522 64.7578 Q873.061 66.3376 877.72 66.3376 L885.376 66.3376 L885.376 72.576 L877.72 72.576 Q869.091 72.576 865.81 69.3758 Q862.529 66.1351 862.529 57.6282 L862.529 32.9987 L857.06 32.9987 L857.06 27.2059 L862.529 27.2059 L862.529 14.324 L870.023 14.324 Z" fill="#000000" fill-rule="evenodd" fill-opacity="1" /><path clip-path="url(#clip410)" d="M895.179 27.2059 L902.633 27.2059 L902.633 72.576 L895.179 72.576 L895.179 27.2059 M895.179 9.54393 L902.633 9.54393 L902.633 18.9825 L895.179 18.9825 L895.179 9.54393 Z" fill="#000000" fill-rule="evenodd" fill-opacity="1" /><path clip-path="url(#clip410)" d="M918.229 9.54393 L925.682 9.54393 L925.682 72.576 L918.229 72.576 L918.229 9.54393 Z" fill="#000000" fill-rule="evenodd" fill-opacity="1" /><path clip-path="url(#clip410)" d="M980.086 48.0275 L980.086 51.6733 L945.815 51.6733 Q946.301 59.3701 950.433 63.421 Q954.606 67.4314 962.019 67.4314 Q966.313 67.4314 970.323 66.3781 Q974.374 65.3249 978.344 63.2184 L978.344 70.267 Q974.334 71.9684 970.121 72.8596 Q965.908 73.7508 961.573 73.7508 Q950.717 73.7508 944.357 67.4314 Q938.037 61.1119 938.037 50.3365 Q938.037 39.1965 944.033 32.6746 Q950.069 26.1121 960.277 26.1121 Q969.432 26.1121 974.739 32.0264 Q980.086 37.9003 980.086 48.0275 M972.632 45.84 Q972.551 39.7232 969.189 36.0774 Q965.867 32.4315 960.358 32.4315 Q954.12 32.4315 950.352 35.9558 Q946.625 39.4801 946.058 45.8805 L972.632 45.84 Z" fill="#000000" fill-rule="evenodd" fill-opacity="1" /><path clip-path="url(#clip410)" d="M1021.24 28.5427 L1021.24 35.5912 Q1018.08 33.9709 1014.68 33.1607 Q1011.28 32.3505 1007.63 32.3505 Q1002.08 32.3505 999.287 34.0519 Q996.533 35.7533 996.533 39.156 Q996.533 41.7486 998.517 43.2475 Q1000.5 44.7058 1006.5 46.0426 L1009.05 46.6097 Q1016.99 48.3111 1020.31 51.4303 Q1023.67 54.509 1023.67 60.0587 Q1023.67 66.3781 1018.65 70.0644 Q1013.67 73.7508 1004.92 73.7508 Q1001.27 73.7508 997.302 73.0216 Q993.373 72.3329 988.998 70.9151 L988.998 63.2184 Q993.13 65.3654 997.14 66.4591 Q1001.15 67.5124 1005.08 67.5124 Q1010.35 67.5124 1013.18 65.73 Q1016.02 63.9071 1016.02 60.6258 Q1016.02 57.5877 1013.95 55.9673 Q1011.93 54.3469 1005 52.8481 L1002.41 52.2405 Q995.479 50.7821 992.401 47.7845 Q989.322 44.7463 989.322 39.4801 Q989.322 33.0797 993.859 29.5959 Q998.396 26.1121 1006.74 26.1121 Q1010.87 26.1121 1014.52 26.7198 Q1018.16 27.3274 1021.24 28.5427 Z" fill="#000000" fill-rule="evenodd" fill-opacity="1" /><path clip-path="url(#clip410)" d="M1079.5 32.4315 Q1073.5 32.4315 1070.02 37.1306 Q1066.53 41.7891 1066.53 49.9314 Q1066.53 58.0738 1069.98 62.7728 Q1073.46 67.4314 1079.5 67.4314 Q1085.45 67.4314 1088.93 62.7323 Q1092.42 58.0333 1092.42 49.9314 Q1092.42 41.8701 1088.93 37.1711 Q1085.45 32.4315 1079.5 32.4315 M1079.5 26.1121 Q1089.22 26.1121 1094.77 32.4315 Q1100.32 38.7509 1100.32 49.9314 Q1100.32 61.0714 1094.77 67.4314 Q1089.22 73.7508 1079.5 73.7508 Q1069.73 73.7508 1064.18 67.4314 Q1058.67 61.0714 1058.67 49.9314 Q1058.67 38.7509 1064.18 32.4315 Q1069.73 26.1121 1079.5 26.1121 Z" fill="#000000" fill-rule="evenodd" fill-opacity="1" /><path clip-path="url(#clip410)" d="M1135.64 9.54393 L1135.64 15.7418 L1128.51 15.7418 Q1124.5 15.7418 1122.92 17.3622 Q1121.38 18.9825 1121.38 23.1955 L1121.38 27.2059 L1133.66 27.2059 L1133.66 32.9987 L1121.38 32.9987 L1121.38 72.576 L1113.89 72.576 L1113.89 32.9987 L1106.76 32.9987 L1106.76 27.2059 L1113.89 27.2059 L1113.89 24.0462 Q1113.89 16.471 1117.41 13.0277 Q1120.94 9.54393 1128.59 9.54393 L1135.64 9.54393 Z" fill="#000000" fill-rule="evenodd" fill-opacity="1" /><path clip-path="url(#clip410)" d="M1168.57 12.096 L1176.76 12.096 L1176.76 72.576 L1168.57 72.576 L1168.57 12.096 Z" fill="#000000" fill-rule="evenodd" fill-opacity="1" /><path clip-path="url(#clip410)" d="M1230.43 45.1919 L1230.43 72.576 L1222.98 72.576 L1222.98 45.4349 Q1222.98 38.994 1220.47 35.7938 Q1217.95 32.5936 1212.93 32.5936 Q1206.9 32.5936 1203.41 36.4419 Q1199.93 40.2903 1199.93 46.9338 L1199.93 72.576 L1192.43 72.576 L1192.43 27.2059 L1199.93 27.2059 L1199.93 34.2544 Q1202.6 30.163 1206.21 28.1376 Q1209.85 26.1121 1214.59 26.1121 Q1222.41 26.1121 1226.42 30.9732 Q1230.43 35.7938 1230.43 45.1919 Z" fill="#000000" fill-rule="evenodd" fill-opacity="1" /><path clip-path="url(#clip410)" d="M1268.27 9.54393 L1268.27 15.7418 L1261.14 15.7418 Q1257.13 15.7418 1255.55 17.3622 Q1254.01 18.9825 1254.01 23.1955 L1254.01 27.2059 L1266.28 27.2059 L1266.28 32.9987 L1254.01 32.9987 L1254.01 72.576 L1246.51 72.576 L1246.51 32.9987 L1239.38 32.9987 L1239.38 27.2059 L1246.51 27.2059 L1246.51 24.0462 Q1246.51 16.471 1250.04 13.0277 Q1253.56 9.54393 1261.22 9.54393 L1268.27 9.54393 Z" fill="#000000" fill-rule="evenodd" fill-opacity="1" /><path clip-path="url(#clip410)" d="M1313.31 48.0275 L1313.31 51.6733 L1279.04 51.6733 Q1279.53 59.3701 1283.66 63.421 Q1287.83 67.4314 1295.25 67.4314 Q1299.54 67.4314 1303.55 66.3781 Q1307.6 65.3249 1311.57 63.2184 L1311.57 70.267 Q1307.56 71.9684 1303.35 72.8596 Q1299.14 73.7508 1294.8 73.7508 Q1283.94 73.7508 1277.58 67.4314 Q1271.26 61.1119 1271.26 50.3365 Q1271.26 39.1965 1277.26 32.6746 Q1283.3 26.1121 1293.5 26.1121 Q1302.66 26.1121 1307.97 32.0264 Q1313.31 37.9003 1313.31 48.0275 M1305.86 45.84 Q1305.78 39.7232 1302.42 36.0774 Q1299.09 32.4315 1293.59 32.4315 Q1287.35 32.4315 1283.58 35.9558 Q1279.85 39.4801 1279.29 45.8805 L1305.86 45.84 Z" fill="#000000" fill-rule="evenodd" fill-opacity="1" /><path clip-path="url(#clip410)" d="M1358.2 28.9478 L1358.2 35.9153 Q1355.04 34.1734 1351.84 33.3227 Q1348.68 32.4315 1345.44 32.4315 Q1338.19 32.4315 1334.18 37.0496 Q1330.17 41.6271 1330.17 49.9314 Q1330.17 58.2358 1334.18 62.8538 Q1338.19 67.4314 1345.44 67.4314 Q1348.68 67.4314 1351.84 66.5807 Q1355.04 65.6895 1358.2 63.9476 L1358.2 70.8341 Q1355.08 72.2924 1351.72 73.0216 Q1348.39 73.7508 1344.63 73.7508 Q1334.38 73.7508 1328.34 67.3098 Q1322.31 60.8689 1322.31 49.9314 Q1322.31 38.832 1328.38 32.472 Q1334.5 26.1121 1345.11 26.1121 Q1348.56 26.1121 1351.84 26.8413 Q1355.12 27.5299 1358.2 28.9478 Z" fill="#000000" fill-rule="evenodd" fill-opacity="1" /><path clip-path="url(#clip410)" d="M1378.53 14.324 L1378.53 27.2059 L1393.89 27.2059 L1393.89 32.9987 L1378.53 32.9987 L1378.53 57.6282 Q1378.53 63.1779 1380.03 64.7578 Q1381.57 66.3376 1386.23 66.3376 L1393.89 66.3376 L1393.89 72.576 L1386.23 72.576 Q1377.6 72.576 1374.32 69.3758 Q1371.04 66.1351 1371.04 57.6282 L1371.04 32.9987 L1365.57 32.9987 L1365.57 27.2059 L1371.04 27.2059 L1371.04 14.324 L1378.53 14.324 Z" fill="#000000" fill-rule="evenodd" fill-opacity="1" /><path clip-path="url(#clip410)" d="M1403.69 27.2059 L1411.14 27.2059 L1411.14 72.576 L1403.69 72.576 L1403.69 27.2059 M1403.69 9.54393 L1411.14 9.54393 L1411.14 18.9825 L1403.69 18.9825 L1403.69 9.54393 Z" fill="#000000" fill-rule="evenodd" fill-opacity="1" /><path clip-path="url(#clip410)" d="M1444.32 32.4315 Q1438.32 32.4315 1434.84 37.1306 Q1431.36 41.7891 1431.36 49.9314 Q1431.36 58.0738 1434.8 62.7728 Q1438.28 67.4314 1444.32 67.4314 Q1450.27 67.4314 1453.76 62.7323 Q1457.24 58.0333 1457.24 49.9314 Q1457.24 41.8701 1453.76 37.1711 Q1450.27 32.4315 1444.32 32.4315 M1444.32 26.1121 Q1454.04 26.1121 1459.59 32.4315 Q1465.14 38.7509 1465.14 49.9314 Q1465.14 61.0714 1459.59 67.4314 Q1454.04 73.7508 1444.32 73.7508 Q1434.56 73.7508 1429.01 67.4314 Q1423.5 61.0714 1423.5 49.9314 Q1423.5 38.7509 1429.01 32.4315 Q1434.56 26.1121 1444.32 26.1121 Z" fill="#000000" fill-rule="evenodd" fill-opacity="1" /><path clip-path="url(#clip410)" d="M1515.21 45.1919 L1515.21 72.576 L1507.76 72.576 L1507.76 45.4349 Q1507.76 38.994 1505.25 35.7938 Q1502.73 32.5936 1497.71 32.5936 Q1491.67 32.5936 1488.19 36.4419 Q1484.71 40.2903 1484.71 46.9338 L1484.71 72.576 L1477.21 72.576 L1477.21 27.2059 L1484.71 27.2059 L1484.71 34.2544 Q1487.38 30.163 1490.99 28.1376 Q1494.63 26.1121 1499.37 26.1121 Q1507.19 26.1121 1511.2 30.9732 Q1515.21 35.7938 1515.21 45.1919 Z" fill="#000000" fill-rule="evenodd" fill-opacity="1" /><path clip-path="url(#clip410)" d="M1559 28.5427 L1559 35.5912 Q1555.84 33.9709 1552.44 33.1607 Q1549.04 32.3505 1545.39 32.3505 Q1539.84 32.3505 1537.04 34.0519 Q1534.29 35.7533 1534.29 39.156 Q1534.29 41.7486 1536.28 43.2475 Q1538.26 44.7058 1544.26 46.0426 L1546.81 46.6097 Q1554.75 48.3111 1558.07 51.4303 Q1561.43 54.509 1561.43 60.0587 Q1561.43 66.3781 1556.41 70.0644 Q1551.43 73.7508 1542.68 73.7508 Q1539.03 73.7508 1535.06 73.0216 Q1531.13 72.3329 1526.76 70.9151 L1526.76 63.2184 Q1530.89 65.3654 1534.9 66.4591 Q1538.91 67.5124 1542.84 67.5124 Q1548.1 67.5124 1550.94 65.73 Q1553.77 63.9071 1553.77 60.6258 Q1553.77 57.5877 1551.71 55.9673 Q1549.68 54.3469 1542.76 52.8481 L1540.16 52.2405 Q1533.24 50.7821 1530.16 47.7845 Q1527.08 44.7463 1527.08 39.4801 Q1527.08 33.0797 1531.62 29.5959 Q1536.15 26.1121 1544.5 26.1121 Q1548.63 26.1121 1552.28 26.7198 Q1555.92 27.3274 1559 28.5427 Z" fill="#000000" fill-rule="evenodd" fill-opacity="1" /><path clip-path="url(#clip410)" d="M1600 12.096 L1638.24 12.096 L1638.24 18.9825 L1608.18 18.9825 L1608.18 36.8875 L1636.98 36.8875 L1636.98 43.7741 L1608.18 43.7741 L1608.18 65.6895 L1638.97 65.6895 L1638.97 72.576 L1600 72.576 L1600 12.096 Z" fill="#000000" fill-rule="evenodd" fill-opacity="1" /><path clip-path="url(#clip410)" d="M1689.8 45.1919 L1689.8 72.576 L1682.35 72.576 L1682.35 45.4349 Q1682.35 38.994 1679.84 35.7938 Q1677.33 32.5936 1672.3 32.5936 Q1666.27 32.5936 1662.78 36.4419 Q1659.3 40.2903 1659.3 46.9338 L1659.3 72.576 L1651.81 72.576 L1651.81 27.2059 L1659.3 27.2059 L1659.3 34.2544 Q1661.97 30.163 1665.58 28.1376 Q1669.23 26.1121 1673.97 26.1121 Q1681.78 26.1121 1685.79 30.9732 Q1689.8 35.7938 1689.8 45.1919 Z" fill="#000000" fill-rule="evenodd" fill-opacity="1" /><path clip-path="url(#clip410)" d="M1733.59 28.5427 L1733.59 35.5912 Q1730.43 33.9709 1727.03 33.1607 Q1723.63 32.3505 1719.98 32.3505 Q1714.43 32.3505 1711.64 34.0519 Q1708.88 35.7533 1708.88 39.156 Q1708.88 41.7486 1710.87 43.2475 Q1712.85 44.7058 1718.85 46.0426 L1721.4 46.6097 Q1729.34 48.3111 1732.66 51.4303 Q1736.03 54.509 1736.03 60.0587 Q1736.03 66.3781 1731 70.0644 Q1726.02 73.7508 1717.27 73.7508 Q1713.62 73.7508 1709.65 73.0216 Q1705.72 72.3329 1701.35 70.9151 L1701.35 63.2184 Q1705.48 65.3654 1709.49 66.4591 Q1713.5 67.5124 1717.43 67.5124 Q1722.7 67.5124 1725.53 65.73 Q1728.37 63.9071 1728.37 60.6258 Q1728.37 57.5877 1726.3 55.9673 Q1724.28 54.3469 1717.35 52.8481 L1714.76 52.2405 Q1707.83 50.7821 1704.75 47.7845 Q1701.67 44.7463 1701.67 39.4801 Q1701.67 33.0797 1706.21 29.5959 Q1710.75 26.1121 1719.09 26.1121 Q1723.22 26.1121 1726.87 26.7198 Q1730.52 27.3274 1733.59 28.5427 Z" fill="#000000" fill-rule="evenodd" fill-opacity="1" /><path clip-path="url(#clip410)" d="M1786.7 48.0275 L1786.7 51.6733 L1752.43 51.6733 Q1752.92 59.3701 1757.05 63.421 Q1761.22 67.4314 1768.63 67.4314 Q1772.93 67.4314 1776.94 66.3781 Q1780.99 65.3249 1784.96 63.2184 L1784.96 70.267 Q1780.95 71.9684 1776.74 72.8596 Q1772.52 73.7508 1768.19 73.7508 Q1757.33 73.7508 1750.97 67.4314 Q1744.65 61.1119 1744.65 50.3365 Q1744.65 39.1965 1750.65 32.6746 Q1756.68 26.1121 1766.89 26.1121 Q1776.05 26.1121 1781.35 32.0264 Q1786.7 37.9003 1786.7 48.0275 M1779.25 45.84 Q1779.17 39.7232 1775.8 36.0774 Q1772.48 32.4315 1766.97 32.4315 Q1760.74 32.4315 1756.97 35.9558 Q1753.24 39.4801 1752.67 45.8805 L1779.25 45.84 Z" fill="#000000" fill-rule="evenodd" fill-opacity="1" /><path clip-path="url(#clip410)" d="M1834.26 35.9153 Q1837.05 30.8922 1840.94 28.5022 Q1844.83 26.1121 1850.1 26.1121 Q1857.19 26.1121 1861.04 31.0947 Q1864.88 36.0368 1864.88 45.1919 L1864.88 72.576 L1857.39 72.576 L1857.39 45.4349 Q1857.39 38.913 1855.08 35.7533 Q1852.77 32.5936 1848.03 32.5936 Q1842.24 32.5936 1838.88 36.4419 Q1835.52 40.2903 1835.52 46.9338 L1835.52 72.576 L1828.02 72.576 L1828.02 45.4349 Q1828.02 38.8725 1825.71 35.7533 Q1823.4 32.5936 1818.58 32.5936 Q1812.87 32.5936 1809.51 36.4824 Q1806.15 40.3308 1806.15 46.9338 L1806.15 72.576 L1798.65 72.576 L1798.65 27.2059 L1806.15 27.2059 L1806.15 34.2544 Q1808.7 30.082 1812.26 28.0971 Q1815.83 26.1121 1820.73 26.1121 Q1825.67 26.1121 1829.11 28.6237 Q1832.6 31.1352 1834.26 35.9153 Z" fill="#000000" fill-rule="evenodd" fill-opacity="1" /><path clip-path="url(#clip410)" d="M1912.32 49.9314 Q1912.32 41.7081 1908.92 37.0496 Q1905.56 32.3505 1899.64 32.3505 Q1893.73 32.3505 1890.32 37.0496 Q1886.96 41.7081 1886.96 49.9314 Q1886.96 58.1548 1890.32 62.8538 Q1893.73 67.5124 1899.64 67.5124 Q1905.56 67.5124 1908.92 62.8538 Q1912.32 58.1548 1912.32 49.9314 M1886.96 34.0924 Q1889.31 30.0415 1892.88 28.0971 Q1896.48 26.1121 1901.46 26.1121 Q1909.73 26.1121 1914.87 32.6746 Q1920.06 39.2371 1920.06 49.9314 Q1920.06 60.6258 1914.87 67.1883 Q1909.73 73.7508 1901.46 73.7508 Q1896.48 73.7508 1892.88 71.8063 Q1889.31 69.8214 1886.96 65.7705 L1886.96 72.576 L1879.47 72.576 L1879.47 9.54393 L1886.96 9.54393 L1886.96 34.0924 Z" fill="#000000" fill-rule="evenodd" fill-opacity="1" /><path clip-path="url(#clip410)" d="M1932.41 9.54393 L1939.87 9.54393 L1939.87 72.576 L1932.41 72.576 L1932.41 9.54393 Z" fill="#000000" fill-rule="evenodd" fill-opacity="1" /><path clip-path="url(#clip410)" d="M1994.27 48.0275 L1994.27 51.6733 L1960 51.6733 Q1960.49 59.3701 1964.62 63.421 Q1968.79 67.4314 1976.2 67.4314 Q1980.5 67.4314 1984.51 66.3781 Q1988.56 65.3249 1992.53 63.2184 L1992.53 70.267 Q1988.52 71.9684 1984.31 72.8596 Q1980.09 73.7508 1975.76 73.7508 Q1964.9 73.7508 1958.54 67.4314 Q1952.22 61.1119 1952.22 50.3365 Q1952.22 39.1965 1958.22 32.6746 Q1964.25 26.1121 1974.46 26.1121 Q1983.62 26.1121 1988.92 32.0264 Q1994.27 37.9003 1994.27 48.0275 M1986.82 45.84 Q1986.74 39.7232 1983.37 36.0774 Q1980.05 32.4315 1974.54 32.4315 Q1968.3 32.4315 1964.54 35.9558 Q1960.81 39.4801 1960.24 45.8805 L1986.82 45.84 Z" fill="#000000" fill-rule="evenodd" fill-opacity="1" /><path clip-path="url(#clip412)" d="
M338.375 1386.24 L338.428 1386.24 L338.44 1386.24 L338.455 1386.24 L338.47 1386.24 L338.488 1386.24 L338.509 1386.24 L338.531 1386.24 L338.557 1386.24 L338.586 1386.24 
  L338.618 1386.24 L338.654 1386.24 L338.695 1386.24 L338.741 1386.24 L338.793 1386.24 L338.851 1386.24 L338.917 1386.24 L338.99 1386.24 L339.073 1386.24 L339.166 1386.24 
  L339.271 1386.24 L339.389 1386.24 L339.522 1386.24 L339.672 1386.24 L339.84 1386.25 L340.029 1386.25 L340.239 1386.25 L340.469 1386.25 L340.718 1386.25 L340.984 1386.25 
  L341.266 1386.26 L341.562 1386.26 L341.869 1386.26 L342.188 1386.26 L342.517 1386.26 L342.857 1386.27 L343.205 1386.27 L343.561 1386.27 L343.924 1386.27 L344.293 1386.27 
  L344.668 1386.28 L345.047 1386.28 L345.431 1386.28 L345.818 1386.28 L346.211 1386.28 L346.606 1386.29 L347.006 1386.29 L347.409 1386.29 L347.814 1386.29 L348.225 1386.3 
  L348.639 1386.3 L349.055 1386.3 L349.476 1386.3 L349.899 1386.3 L350.326 1386.31 L350.758 1386.31 L351.193 1386.31 L351.632 1386.31 L352.077 1386.31 L352.526 1386.31 
  L352.976 1386.32 L353.424 1386.32 L353.878 1386.32 L354.335 1386.32 L354.8 1386.32 L355.268 1386.33 L355.74 1386.33 L356.213 1386.33 L356.69 1386.33 L357.168 1386.33 
  L357.653 1386.33 L358.145 1386.34 L358.645 1386.34 L359.152 1386.34 L359.666 1386.34 L360.181 1386.34 L360.704 1386.35 L361.232 1386.35 L361.76 1386.35 L362.289 1386.35 
  L362.815 1386.35 L363.343 1386.35 L363.876 1386.36 L364.411 1386.36 L364.946 1386.36 L365.484 1386.36 L366.027 1386.36 L366.574 1386.36 L367.125 1386.37 L367.682 1386.37 
  L368.246 1386.37 L368.819 1386.37 L369.399 1386.37 L369.982 1386.37 L370.576 1386.37 L371.177 1386.37 L371.784 1386.38 L372.399 1386.38 L373.022 1386.38 L373.651 1386.38 
  L374.282 1386.38 L374.931 1386.38 L375.589 1386.38 L376.258 1386.38 L376.929 1386.38 L377.599 1386.38 L378.286 1386.38 L378.991 1386.39 L379.713 1386.39 L380.451 1386.39 
  L381.207 1386.39 L382.003 1386.39 L382.821 1386.39 L383.661 1386.39 L384.527 1386.39 L385.413 1386.39 L386.298 1386.39 L387.208 1386.4 L388.152 1386.4 L389.112 1386.4 
  L390.082 1386.4 L391.066 1386.4 L392.059 1386.4 L393.049 1386.4 L394.067 1386.4 L395.095 1386.39 L396.135 1386.39 L397.187 1386.39 L398.248 1386.39 L399.313 1386.39 
  L400.391 1386.39 L401.503 1386.39 L402.651 1386.39 L403.828 1386.39 L405.045 1386.38 L406.33 1386.38 L407.679 1386.38 L409.075 1386.38 L410.458 1386.38 L411.858 1386.38 
  L413.274 1386.38 L414.73 1386.38 L416.154 1386.37 L417.592 1386.37 L419.1 1386.37 L420.646 1386.37 L422.224 1386.36 L423.959 1386.36 L425.88 1386.36 L428.041 1386.35 
  L430.471 1386.35 L433.15 1386.34 L435.911 1386.34 L438.868 1386.33 L441.829 1386.32 L444.789 1386.31 L447.674 1386.3 L450.782 1386.28 L454.02 1386.27 L457.413 1386.25 
  L461.172 1386.24 L465.4 1386.22 L470.157 1386.19 L475.021 1386.17 L480.492 1386.15 L486.646 1386.12 L493.571 1386.09 L501.36 1386.05 L505.215 1386.02 L509.541 1385.99 
  L513.784 1385.96 L518.366 1385.92 L523.206 1385.88 L528.652 1385.83 L534.745 1385.78 L541.094 1385.71 L548.235 1385.63 L553.148 1385.58 L558.557 1385.52 L563.474 1385.46 
  L568.574 1385.4 L573.464 1385.34 L578.355 1385.28 L583.858 1385.21 L590.048 1385.13 L597.012 1385.01 L602.782 1384.92 L607.091 1384.84 L611.935 1384.75 L616.819 1384.65 
  L621.802 1384.53 L627.287 1384.41 L633.458 1384.27 L640.4 1384.09 L648.21 1383.86 L655.577 1383.65 L661.446 1383.5 L666.932 1383.36 L671.981 1383.2 L676.381 1383.09 
  L680.481 1382.98 L684.591 1382.86 L688.579 1382.73 L692.466 1382.61 L696.334 1382.5 L700.174 1382.37 L703.969 1382.25 L707.407 1382.15 L710.839 1382.05 L714.28 1381.95 
  L717.693 1381.85 L721.193 1381.72 L724.694 1381.57 L728.015 1381.42 L730.881 1381.29 L733.775 1381.15 L736.621 1381.01 L739.316 1380.88 L741.837 1380.76 L744.394 1380.64 
  L746.752 1380.52 L749.251 1380.4 L751.827 1380.28 L754.608 1380.15 L757.455 1380.01 L760.393 1379.85 L763.416 1379.68 L766.622 1379.47 L769.825 1379.26 L773.267 1379.03 
  L777.062 1378.76 L781.262 1378.44 L785.575 1378.07 L790.426 1377.58 L795.884 1377.01 L800.533 1376.53 L804.892 1376.05 L809.297 1375.53 L813.309 1375.21 L817.007 1374.97 
  L820.549 1374.71 L823.671 1374.48 L826.709 1374.26 L829.798 1374 L832.887 1373.63 L835.96 1373.25 L838.844 1372.99 L841.395 1372.77 L843.742 1372.57 L846.111 1372.36 
  L848.453 1372.17 L850.627 1371.98 L852.66 1371.78 L854.686 1371.57 L856.618 1371.37 L858.593 1371.15 L860.58 1370.92 L862.441 1370.69 L864.285 1370.47 L866.106 1370.24 
  L868.028 1369.99 L869.998 1369.73 L871.976 1369.45 L874.039 1369.21 L876.153 1369.01 L878.311 1368.8 L880.489 1368.58 L882.811 1368.32 L885.222 1368.07 L887.651 1367.82 
  L889.95 1367.54 L892.368 1367.22 L894.777 1366.89 L897.352 1366.52 L899.854 1366.15 L902.514 1365.72 L905.506 1365.2 L908.743 1364.6 L911.957 1363.96 L915.16 1363.34 
  L918.611 1362.72 L922.494 1362.04 L926.853 1361.29 L931.757 1360.5 L937.274 1359.6 L943.481 1358.01 L950.464 1356.33 L956.644 1354.85 L961.988 1353.36 L968.001 1351.58 
  L974.765 1349.53 L981.938 1346.78 L990.008 1343.52 L997.155 1340.68 L1005.2 1336.67 L1012.79 1332.31 L1018.35 1329.93 L1023.86 1328.7 L1028.71 1327.5 L1032.95 1326.36 
  L1037.26 1325.04 L1041.05 1323.99 L1044.95 1323 L1048.56 1321.09 L1051.89 1319.27 L1055.51 1317.07 L1059.11 1314.88 L1062.77 1312.64 L1066.29 1310.48 L1070.08 1308.03 
  L1073.87 1305.08 L1077.75 1302.05 L1081.43 1299.11 L1085.5 1295.86 L1090.06 1292.12 L1095.2 1287.88 L1100.99 1282.54 L1107.49 1276.32 L1113.52 1269.84 L1120.3 1262.1 
  L1127.04 1253.34 L1133.34 1245.03 L1139.87 1236.37 L1145.85 1228.41 L1152.17 1219.22 L1157.99 1210.52 L1163.39 1202.36 L1168.2 1194.92 L1173.26 1186.64 L1178.24 1178.35 
  L1183.05 1170.75 L1187.07 1163.07 L1190.76 1155.88 L1194.43 1150.95 L1198.25 1147.01 L1202.55 1142.56 L1206.97 1137.49 L1211.44 1131.9 L1215.88 1122.51 L1220.69 1109.33 
  L1225.32 1096.88 L1229.71 1089.63 L1233.68 1083.51 L1237.49 1077.73 L1241.4 1072.09 L1245.19 1067.04 L1249.07 1061.9 L1253.22 1055.95 L1257.29 1050.09 L1261.26 1043.85 
  L1265.28 1036.44 L1269.15 1025.92 L1273.13 1015.86 L1277.21 1006.56 L1281.59 997.453 L1285.83 988.564 L1290.21 978.344 L1294.63 967.55 L1298.9 957.371 L1303.11 946.806 
  L1307.19 935.932 L1311.27 925.969 L1315.37 916.623 L1319.39 907.452 L1323.47 897.967 L1327.5 888.448 L1331.46 877.96 L1335.28 865.138 L1339.03 850.176 L1342.84 833.846 
  L1346.53 816.422 L1350.21 798.356 L1353.81 783.995 L1357.35 775.317 L1360.75 767.312 L1364.19 759.131 L1367.51 751.167 L1370.86 744.25 L1374.09 737.038 L1377.3 726.769 
  L1380.5 719.756 L1383.82 716.842 L1387.12 713.955 L1390.43 710.251 L1393.74 705.941 L1397.04 701.505 L1400.34 705.176 L1403.63 702.164 L1406.9 713.214 L1410.17 718.507 
  L1413.4 725.943 L1416.58 722.904 L1419.64 724.837 L1422.61 727.026 L1425.53 729.311 L1428.48 731.768 L1431.39 734.188 L1434.29 736.602 L1437.19 738.623 L1440.04 740.81 
  L1442.91 743.898 L1445.75 747.484 L1448.64 751.582 L1451.49 759.547 L1454.33 768.176 L1457.23 776.578 L1460.14 784.645 L1463.03 792.785 L1465.94 800.271 L1468.84 807.429 
  L1471.73 814.384 L1474.63 821.257 L1477.55 827.527 L1480.42 832.197 L1483.29 834.652 L1486.1 837.485 L1488.87 840.155 L1491.58 842.703 L1494.25 844.971 L1496.96 847.94 
  L1499.66 853.752 L1502.35 859.563 L1505.04 865.266 L1507.82 871.349 L1510.63 877.405 L1513.46 883.362 L1516.31 889.467 L1519.19 895.711 L1522.06 901.927 L1524.94 908.079 
  L1527.83 914.113 L1530.73 920.28 L1533.67 926.219 L1536.61 932.126 L1539.59 938.106 L1542.51 944.075 L1545.43 950.207 L1548.36 956.28 L1551.33 962.301 L1554.31 968.268 
  L1557.24 974.191 L1560.07 979.821 L1562.89 986.465 L1565.74 992.556 L1568.55 997.861 L1571.36 1003.08 L1574.21 1008.47 L1577.15 1014.05 L1580.15 1019.85 L1583.21 1026.46 
  L1586.35 1033.53 L1589.53 1040.89 L1592.77 1048.46 L1596.06 1055.91 L1599.39 1063.28 L1602.71 1070.31 L1605.98 1076.74 L1609.27 1083.04 L1612.54 1089.15 L1615.87 1095.37 
  L1619.32 1100.83 L1622.66 1105.31 L1626.08 1111.87 L1629.59 1118.59 L1633.06 1125.2 L1636.27 1131.18 L1639.43 1135.98 L1642.55 1140.61 L1645.43 1144.88 L1648.08 1148.87 
  L1650.58 1152.62 L1653.11 1156.41 L1655.48 1159.75 L1657.77 1162.96 L1659.91 1165.96 L1662.04 1168.42 L1664.11 1170.81 L1666.13 1173.15 L1668.19 1175.5 L1670.17 1177.68 
  L1672.2 1179.91 L1674.25 1182.16 L1676.41 1184.52 L1678.58 1186.89 L1680.73 1189.52 L1682.95 1192.58 L1685.06 1195.46 L1687.19 1198.36 L1689.42 1201.38 L1691.7 1204.44 
  L1694.03 1207.58 L1696.36 1210.73 L1698.66 1213.83 L1701 1216.9 L1703.25 1219.75 L1705.57 1222.64 L1707.92 1225.37 L1710.24 1228.05 L1712.56 1230.56 L1715 1233.21 
  L1717.75 1236.05 L1720.73 1239.09 L1723.68 1242.03 L1726.69 1244.96 L1729.94 1248.1 L1733.37 1251.24 L1736.99 1254.55 L1740.51 1257.71 L1743.9 1260.73 L1747.36 1263.61 
  L1750.65 1266.24 L1754.03 1268.83 L1757.68 1271.64 L1761.61 1274.5 L1765.6 1277.23 L1769.81 1280.09 L1774.36 1283.11 L1778.32 1285.65 L1782.23 1288.09 L1786.17 1290.5 
  L1790.23 1293.07 L1794.06 1296.07 L1797.84 1299.01 L1801.61 1301.87 L1805.45 1304.17 L1809.36 1306.19 L1813.05 1308.1 L1816.68 1309.94 L1820.16 1311.63 L1823.24 1313.13 
  L1826.3 1314.59 L1829.17 1315.95 L1831.93 1317.25 L1834.63 1318.52 L1837.32 1319.79 L1840.06 1321.06 L1842.7 1322.29 L1845.43 1323.51 L1848.15 1324.78 L1850.77 1326.05 
  L1853.19 1327.2 L1855.5 1328.28 L1857.74 1329.32 L1859.99 1330.34 L1862.21 1331.35 L1864.38 1332.34 L1866.5 1333.28 L1868.58 1334.2 L1870.61 1335.1 L1872.64 1335.99 
  L1874.69 1336.88 L1876.83 1337.76 L1878.99 1338.65 L1881.27 1339.55 L1883.39 1340.38 L1885.49 1341.19 L1887.55 1341.97 L1889.67 1342.73 L1891.74 1343.45 L1893.87 1344.17 
  L1895.96 1344.85 L1897.97 1345.48 L1899.97 1346.1 L1902.04 1346.71 L1904.09 1347.32 L1906.19 1347.92 L1908.4 1348.54 L1910.68 1349.18 L1913.04 1349.84 L1915.44 1350.5 
  L1917.97 1351.19 L1920.5 1351.85 L1923.03 1352.52 L1925.6 1353.19 L1928.42 1353.9 L1931.13 1354.59 L1933.89 1355.25 L1936.82 1355.95 L1939.86 1356.67 L1942.87 1357.36 
  L1946 1358.07 L1948.92 1358.71 L1951.8 1359.33 L1954.76 1359.97 L1957.84 1360.6 L1960.9 1361.23 L1964.06 1361.88 L1967.3 1362.58 L1970.42 1363.23 L1973.64 1363.86 
  L1977.05 1364.42 L1980.63 1365.01 L1984.48 1365.63 L1988.53 1366.26 L1993.08 1366.97 L1998.21 1367.75 L2003.56 1368.53 L2009.58 1369.36 L2016.36 1370.22 L2023.98 1371.13 
  L2032.56 1372.1 L2039.05 1372.8 L2045.67 1373.49 L2051.86 1374.09 L2058.5 1374.7 L2064.71 1375.23 L2071.37 1375.78 L2078.86 1376.37 L2087.29 1377.01 L2096.77 1377.7 
  L2105.65 1378.3 L2115.64 1378.91 L2126.88 1379.54 L2139.52 1380.21 L2146.11 1380.53 L2153.51 1380.87 L2160.26 1381.22 L2165.39 1381.48 L2169.93 1381.7 L2174.59 1381.91 
  L2179.02 1382.1 L2183.16 1382.28 L2187.81 1382.47 L2193.03 1382.67 L2198.91 1382.89 L2203.55 1383.05 L2208.38 1383.22 L2213.81 1383.39 L2218.85 1383.55 L2224.16 1383.7 
  L2229.56 1383.86 L2235.63 1384.01 L2242.46 1384.15 L2248.2 1384.25 L2254.65 1384.36 L2261.85 1384.47 L2266.97 1384.55 L2272.73 1384.64 L2279.21 1384.74 L2284.41 1384.81 
  L2289.39 1384.89 L2294.08 1384.95 L2294.08 1368.16 L2289.39 1367.65 L2284.41 1367.1 L2279.21 1366.51 L2272.73 1365.64 L2266.97 1364.78 L2261.85 1364.01 L2254.65 1362.99 
  L2248.2 1362.08 L2242.46 1361.26 L2235.63 1360.32 L2229.56 1359.46 L2224.16 1358.7 L2218.85 1357.95 L2213.81 1357.22 L2208.38 1356.36 L2203.55 1355.33 L2198.91 1354.34 
  L2193.03 1353.04 L2187.81 1351.89 L2183.16 1350.82 L2179.02 1349.86 L2174.59 1348.82 L2169.93 1347.72 L2165.39 1346.61 L2160.26 1345.3 L2153.51 1343.59 L2146.11 1341.68 
  L2139.52 1339.93 L2126.88 1335.33 L2115.64 1330.7 L2105.65 1326.43 L2096.77 1322.89 L2087.29 1320.34 L2078.86 1317.99 L2071.37 1315.92 L2064.71 1313.59 L2058.5 1310.86 
  L2051.86 1307.88 L2045.67 1304.9 L2039.05 1301.66 L2032.56 1298.41 L2023.98 1293.83 L2016.36 1289.61 L2009.58 1285.51 L2003.56 1281.72 L1998.21 1278.09 L1993.08 1274.58 
  L1988.53 1271.28 L1984.48 1268.35 L1980.63 1265.44 L1977.05 1262.2 L1973.64 1258.66 L1970.42 1255.28 L1967.3 1251.95 L1964.06 1248.4 L1960.9 1244.89 L1957.84 1241.41 
  L1954.76 1237.89 L1951.8 1234.35 L1948.92 1230.84 L1946 1227.19 L1942.87 1223.08 L1939.86 1219 L1936.82 1214.79 L1933.89 1210.59 L1931.13 1206.52 L1928.42 1202.49 
  L1925.6 1198.2 L1923.03 1195.38 L1920.5 1193.14 L1917.97 1190.82 L1915.44 1188.5 L1913.04 1185.97 L1910.68 1183.28 L1908.4 1180.68 L1906.19 1178.05 L1904.09 1175.28 
  L1902.04 1172.58 L1899.97 1169.85 L1897.97 1166.99 L1895.96 1164.13 L1893.87 1161.14 L1891.74 1158.03 L1889.67 1154.96 L1887.55 1151.82 L1885.49 1148.75 L1883.39 1145.61 
  L1881.27 1142.42 L1878.99 1139.01 L1876.83 1135.82 L1874.69 1132.7 L1872.64 1129.78 L1870.61 1126.89 L1868.58 1124 L1866.5 1121.16 L1864.38 1118.34 L1862.21 1115.44 
  L1859.99 1112.49 L1857.74 1109.27 L1855.5 1106.03 L1853.19 1102.7 L1850.77 1098.99 L1848.15 1094.8 L1845.43 1090.45 L1842.7 1085.94 L1840.06 1081.56 L1837.32 1076.91 
  L1834.63 1072.17 L1831.93 1067.33 L1829.17 1062.15 L1826.3 1056.76 L1823.24 1050.96 L1820.16 1045.11 L1816.68 1038.4 L1813.05 1031.32 L1809.36 1026.66 L1805.45 1022.11 
  L1801.61 1017.19 L1797.84 1012.04 L1794.06 1006.7 L1790.23 1001.61 L1786.17 996.293 L1782.23 991.186 L1778.32 980.138 L1774.36 967.5 L1769.81 952.832 L1765.6 939.14 
  L1761.61 931.467 L1757.68 925.159 L1754.03 919.571 L1750.65 914.65 L1747.36 910.043 L1743.9 905.291 L1740.51 900.538 L1736.99 895.43 L1733.37 889.507 L1729.94 883.616 
  L1726.69 877.834 L1723.68 872.395 L1720.73 864.889 L1717.75 856.334 L1715 848.182 L1712.56 841.028 L1710.24 834.607 L1707.92 828.103 L1705.57 821.295 L1703.25 814.434 
  L1701 807.663 L1698.66 800.662 L1696.36 793.815 L1694.03 786.998 L1691.7 784.277 L1689.42 781.089 L1687.19 777.683 L1685.06 774.046 L1682.95 770.202 L1680.73 766.089 
  L1678.58 762.082 L1676.41 758.082 L1674.25 754.15 L1672.2 750.556 L1670.17 747.227 L1668.19 743.824 L1666.13 739.83 L1664.11 735.885 L1662.04 731.805 L1659.91 727.716 
  L1657.77 724.339 L1655.48 720.813 L1653.11 717.329 L1650.58 713.698 L1648.08 710.097 L1645.43 706.138 L1642.55 696.948 L1639.43 685.47 L1636.27 674.003 L1633.06 662.455 
  L1629.59 650.323 L1626.08 638.343 L1622.66 627.201 L1619.32 616.885 L1615.87 606.094 L1612.54 595.927 L1609.27 588.676 L1605.98 585.87 L1602.71 582.507 L1599.39 577.927 
  L1596.06 571.893 L1592.77 559.708 L1589.53 547.19 L1586.35 534.807 L1583.21 526.15 L1580.15 517.591 L1577.15 508.079 L1574.21 502.394 L1571.36 496.658 L1568.55 490.881 
  L1565.74 487.225 L1562.89 476.858 L1560.07 465.401 L1557.24 453.695 L1554.31 441.368 L1551.33 429.754 L1548.36 422.812 L1545.43 415.159 L1542.51 403.822 L1539.59 392.67 
  L1536.61 381.514 L1533.67 371.461 L1530.73 362.994 L1527.83 353.574 L1524.94 341.831 L1522.06 330.408 L1519.19 319.78 L1516.31 310.891 L1513.46 303.976 L1510.63 300.17 
  L1507.82 296.132 L1505.04 289.141 L1502.35 284.945 L1499.66 282.059 L1496.96 280.908 L1494.25 278.165 L1491.58 273.777 L1488.87 269.713 L1486.1 266.072 L1483.29 269.395 
  L1480.42 269.742 L1477.55 266.858 L1474.63 261.255 L1471.73 252.189 L1468.84 251.54 L1465.94 250.594 L1463.03 249.92 L1460.14 250.389 L1457.23 252.202 L1454.33 255.058 
  L1451.49 256.793 L1448.64 252.106 L1445.75 253.009 L1442.91 256.059 L1440.04 259.039 L1437.19 255.853 L1434.29 249.894 L1431.39 250.601 L1428.48 252.257 L1425.53 254.688 
  L1422.61 257.38 L1419.64 250.774 L1416.58 242.665 L1413.4 235.053 L1410.17 228.137 L1406.9 221.202 L1403.63 213.587 L1400.34 205.838 L1397.04 197.666 L1393.74 190.434 
  L1390.43 184.58 L1387.12 179.52 L1383.82 174.628 L1380.5 170.278 L1377.3 165.646 L1374.09 161.551 L1370.86 160.256 L1367.51 166.1 L1364.19 173.183 L1360.75 183.709 
  L1357.35 195.219 L1353.81 211.188 L1350.21 220.142 L1346.53 229.321 L1342.84 242.038 L1339.03 254.216 L1335.28 252.806 L1331.46 251.707 L1327.5 252.758 L1323.47 255.612 
  L1319.39 256.431 L1315.37 251.868 L1311.27 247.625 L1307.19 247.938 L1303.11 265.843 L1298.9 281.622 L1294.63 282.631 L1290.21 286.262 L1285.83 300.919 L1281.59 306.628 
  L1277.21 315.776 L1273.13 328.17 L1269.15 337.661 L1265.28 357.687 L1261.26 368.123 L1257.29 370.898 L1253.22 377.638 L1249.07 389.934 L1245.19 401.798 L1241.4 414.661 
  L1237.49 438.389 L1233.68 461.401 L1229.71 466.636 L1225.32 477.04 L1220.69 485.866 L1215.88 495.359 L1211.44 505.232 L1206.97 516.572 L1202.55 529.317 L1198.25 540.946 
  L1194.43 551.771 L1190.76 565.018 L1187.07 584.643 L1183.05 603.797 L1178.24 616.099 L1173.26 629.771 L1168.2 643.068 L1163.39 659.856 L1157.99 677.228 L1152.17 694.775 
  L1145.85 712.604 L1139.87 730.866 L1133.34 753.656 L1127.04 775.813 L1120.3 800.782 L1113.52 828.703 L1107.49 855.893 L1100.99 887.219 L1095.2 902.264 L1090.06 914.633 
  L1085.5 925.796 L1081.43 935.042 L1077.75 943.256 L1073.87 952.063 L1070.08 960.442 L1066.29 972.467 L1062.77 984.254 L1059.11 996.024 L1055.51 1008.36 L1051.89 1018.22 
  L1048.56 1025.43 L1044.95 1032.74 L1041.05 1040.39 L1037.26 1047.61 L1032.95 1054.89 L1028.71 1061.54 L1023.86 1069.8 L1018.35 1079.08 L1012.79 1090.6 L1005.2 1105.82 
  L997.155 1121.17 L990.008 1134.08 L981.938 1147.61 L974.765 1159.77 L968.001 1171.66 L961.988 1183.42 L956.644 1193.68 L950.464 1205.49 L943.481 1218.85 L937.274 1230.02 
  L931.757 1238.46 L926.853 1245.57 L922.494 1251.07 L918.611 1256.05 L915.16 1260.23 L911.957 1263.8 L908.743 1267.29 L905.506 1270.7 L902.514 1274.55 L899.854 1277.42 
  L897.352 1279.93 L894.777 1282.96 L892.368 1285.63 L889.95 1288.12 L887.651 1290.47 L885.222 1292.84 L882.811 1295.2 L880.489 1296.72 L878.311 1298.02 L876.153 1299.38 
  L874.039 1301.16 L871.976 1303.05 L869.998 1304.86 L868.028 1306.6 L866.106 1308.24 L864.285 1309.44 L862.441 1310.57 L860.58 1311.73 L858.593 1312.96 L856.618 1314.19 
  L854.686 1315.37 L852.66 1316.54 L850.627 1317.72 L848.453 1318.98 L846.111 1320.21 L843.742 1321.58 L841.395 1322.93 L838.844 1324.39 L835.96 1325.98 L832.887 1327.61 
  L829.798 1329.28 L826.709 1330.98 L823.671 1332.88 L820.549 1334.87 L817.007 1337.15 L813.309 1339.55 L809.297 1341.98 L804.892 1344.36 L800.533 1346.62 L795.884 1348.94 
  L790.426 1351.44 L785.575 1353.44 L781.262 1355.11 L777.062 1356.65 L773.267 1358.09 L769.825 1359.32 L766.622 1360.42 L763.416 1361.55 L760.393 1362.6 L757.455 1363.6 
  L754.608 1364.31 L751.827 1364.87 L749.251 1365.38 L746.752 1365.87 L744.394 1366.32 L741.837 1366.8 L739.316 1367.27 L736.621 1367.64 L733.775 1367.99 L730.881 1368.34 
  L728.015 1368.69 L724.694 1369.1 L721.193 1369.53 L717.693 1369.97 L714.28 1370.4 L710.839 1370.84 L707.407 1371.3 L703.969 1371.76 L700.174 1372.24 L696.334 1372.74 
  L692.466 1373.38 L688.579 1374.02 L684.591 1374.6 L680.481 1375.19 L676.381 1375.75 L671.981 1376.3 L666.932 1376.89 L661.446 1377.54 L655.577 1378.18 L648.21 1378.92 
  L640.4 1379.65 L633.458 1380.21 L627.287 1380.71 L621.802 1381.12 L616.819 1381.45 L611.935 1381.76 L607.091 1382.04 L602.782 1382.28 L597.012 1382.59 L590.048 1382.95 
  L583.858 1383.2 L578.355 1383.42 L573.464 1383.6 L568.574 1383.78 L563.474 1383.95 L558.557 1384.11 L553.148 1384.27 L548.235 1384.4 L541.094 1384.58 L534.745 1384.75 
  L528.652 1384.92 L523.206 1385.04 L518.366 1385.12 L513.784 1385.2 L509.541 1385.26 L505.215 1385.31 L501.36 1385.37 L493.571 1385.48 L486.646 1385.58 L480.492 1385.64 
  L475.021 1385.71 L470.157 1385.77 L465.4 1385.83 L461.172 1385.88 L457.413 1385.92 L454.02 1385.96 L450.782 1385.98 L447.674 1386.01 L444.789 1386.04 L441.829 1386.06 
  L438.868 1386.08 L435.911 1386.11 L433.15 1386.13 L430.471 1386.15 L428.041 1386.17 L425.88 1386.18 L423.959 1386.19 L422.224 1386.2 L420.646 1386.21 L419.1 1386.21 
  L417.592 1386.22 L416.154 1386.23 L414.73 1386.23 L413.274 1386.24 L411.858 1386.24 L410.458 1386.25 L409.075 1386.25 L407.679 1386.26 L406.33 1386.26 L405.045 1386.26 
  L403.828 1386.27 L402.651 1386.27 L401.503 1386.27 L400.391 1386.28 L399.313 1386.28 L398.248 1386.28 L397.187 1386.29 L396.135 1386.29 L395.095 1386.3 L394.067 1386.3 
  L393.049 1386.3 L392.059 1386.3 L391.066 1386.31 L390.082 1386.31 L389.112 1386.31 L388.152 1386.31 L387.208 1386.31 L386.298 1386.32 L385.413 1386.32 L384.527 1386.32 
  L383.661 1386.32 L382.821 1386.32 L382.003 1386.32 L381.207 1386.32 L380.451 1386.32 L379.713 1386.33 L378.991 1386.33 L378.286 1386.33 L377.599 1386.33 L376.929 1386.33 
  L376.258 1386.33 L375.589 1386.33 L374.931 1386.33 L374.282 1386.33 L373.651 1386.33 L373.022 1386.33 L372.399 1386.33 L371.784 1386.33 L371.177 1386.33 L370.576 1386.33 
  L369.982 1386.33 L369.399 1386.33 L368.819 1386.33 L368.246 1386.33 L367.682 1386.33 L367.125 1386.33 L366.574 1386.33 L366.027 1386.33 L365.484 1386.33 L364.946 1386.33 
  L364.411 1386.33 L363.876 1386.33 L363.343 1386.33 L362.815 1386.32 L362.289 1386.32 L361.76 1386.32 L361.232 1386.32 L360.704 1386.32 L360.181 1386.32 L359.666 1386.32 
  L359.152 1386.32 L358.645 1386.32 L358.145 1386.31 L357.653 1386.31 L357.168 1386.31 L356.69 1386.31 L356.213 1386.31 L355.74 1386.31 L355.268 1386.31 L354.8 1386.31 
  L354.335 1386.31 L353.878 1386.3 L353.424 1386.3 L352.976 1386.3 L352.526 1386.3 L352.077 1386.3 L351.632 1386.3 L351.193 1386.3 L350.758 1386.3 L350.326 1386.29 
  L349.899 1386.29 L349.476 1386.29 L349.055 1386.29 L348.639 1386.29 L348.225 1386.29 L347.814 1386.28 L347.409 1386.28 L347.006 1386.28 L346.606 1386.28 L346.211 1386.28 
  L345.818 1386.28 L345.431 1386.27 L345.047 1386.27 L344.668 1386.27 L344.293 1386.27 L343.924 1386.27 L343.561 1386.27 L343.205 1386.26 L342.857 1386.26 L342.517 1386.26 
  L342.188 1386.26 L341.869 1386.26 L341.562 1386.26 L341.266 1386.25 L340.984 1386.25 L340.718 1386.25 L340.469 1386.25 L340.239 1386.25 L340.029 1386.25 L339.84 1386.25 
  L339.672 1386.24 L339.522 1386.24 L339.389 1386.24 L339.271 1386.24 L339.166 1386.24 L339.073 1386.24 L338.99 1386.24 L338.917 1386.24 L338.851 1386.24 L338.793 1386.24 
  L338.741 1386.24 L338.695 1386.24 L338.654 1386.24 L338.618 1386.24 L338.586 1386.24 L338.557 1386.24 L338.531 1386.24 L338.509 1386.24 L338.488 1386.24 L338.47 1386.24 
  L338.455 1386.24 L338.44 1386.24 L338.428 1386.24 L338.375 1386.24  Z
  " fill="#009af9" fill-rule="evenodd" fill-opacity="0.2"/>
<polyline clip-path="url(#clip412)" style="stroke:#009af9; stroke-linecap:butt; stroke-linejoin:round; stroke-width:12; stroke-opacity:1; fill:none" points="
  338.375,1386.24 338.428,1386.24 338.44,1386.24 338.455,1386.24 338.47,1386.24 338.488,1386.24 338.509,1386.24 338.531,1386.24 338.557,1386.24 338.586,1386.24 
  338.618,1386.24 338.654,1386.24 338.695,1386.24 338.741,1386.24 338.793,1386.24 338.851,1386.24 338.917,1386.24 338.99,1386.24 339.073,1386.24 339.166,1386.24 
  339.271,1386.24 339.389,1386.24 339.522,1386.24 339.672,1386.24 339.84,1386.25 340.029,1386.25 340.239,1386.25 340.469,1386.25 340.718,1386.25 340.984,1386.25 
  341.266,1386.25 341.562,1386.26 341.869,1386.26 342.188,1386.26 342.517,1386.26 342.857,1386.26 343.205,1386.27 343.561,1386.27 343.924,1386.27 344.293,1386.27 
  344.668,1386.27 345.047,1386.28 345.431,1386.28 345.818,1386.28 346.211,1386.28 346.606,1386.28 347.006,1386.29 347.409,1386.29 347.814,1386.29 348.225,1386.29 
  348.639,1386.29 349.055,1386.29 349.476,1386.3 349.899,1386.3 350.326,1386.3 350.758,1386.3 351.193,1386.3 351.632,1386.31 352.077,1386.31 352.526,1386.31 
  352.976,1386.31 353.424,1386.31 353.878,1386.31 354.335,1386.32 354.8,1386.32 355.268,1386.32 355.74,1386.32 356.213,1386.32 356.69,1386.32 357.168,1386.32 
  357.653,1386.33 358.145,1386.33 358.645,1386.33 359.152,1386.33 359.666,1386.33 360.181,1386.33 360.704,1386.33 361.232,1386.34 361.76,1386.34 362.289,1386.34 
  362.815,1386.34 363.343,1386.34 363.876,1386.34 364.411,1386.34 364.946,1386.34 365.484,1386.34 366.027,1386.35 366.574,1386.35 367.125,1386.35 367.682,1386.35 
  368.246,1386.35 368.819,1386.35 369.399,1386.35 369.982,1386.35 370.576,1386.35 371.177,1386.35 371.784,1386.35 372.399,1386.35 373.022,1386.35 373.651,1386.35 
  374.282,1386.35 374.931,1386.35 375.589,1386.36 376.258,1386.36 376.929,1386.36 377.599,1386.36 378.286,1386.36 378.991,1386.36 379.713,1386.36 380.451,1386.36 
  381.207,1386.36 382.003,1386.36 382.821,1386.36 383.661,1386.36 384.527,1386.36 385.413,1386.36 386.298,1386.36 387.208,1386.35 388.152,1386.35 389.112,1386.35 
  390.082,1386.35 391.066,1386.35 392.059,1386.35 393.049,1386.35 394.067,1386.35 395.095,1386.35 396.135,1386.35 397.187,1386.34 398.248,1386.34 399.313,1386.34 
  400.391,1386.34 401.503,1386.34 402.651,1386.33 403.828,1386.33 405.045,1386.33 406.33,1386.33 407.679,1386.32 409.075,1386.32 410.458,1386.32 411.858,1386.31 
  413.274,1386.31 414.73,1386.3 416.154,1386.3 417.592,1386.29 419.1,1386.29 420.646,1386.28 422.224,1386.28 423.959,1386.27 425.88,1386.27 428.041,1386.26 
  430.471,1386.25 433.15,1386.23 435.911,1386.22 438.868,1386.21 441.829,1386.19 444.789,1386.18 447.674,1386.16 450.782,1386.15 454.02,1386.13 457.413,1386.1 
  461.172,1386.08 465.4,1386.05 470.157,1386.02 475.021,1385.98 480.492,1385.94 486.646,1385.88 493.571,1385.82 501.36,1385.74 505.215,1385.7 509.541,1385.65 
  513.784,1385.6 518.366,1385.55 523.206,1385.48 528.652,1385.41 534.745,1385.32 541.094,1385.22 548.235,1385.1 553.148,1385.02 558.557,1384.92 563.474,1384.82 
  568.574,1384.71 573.464,1384.61 578.355,1384.5 583.858,1384.37 590.048,1384.21 597.012,1384.02 602.782,1383.86 607.091,1383.73 611.935,1383.57 616.819,1383.41 
  621.802,1383.23 627.287,1383.03 633.458,1382.78 640.4,1382.49 648.21,1382.14 655.577,1381.77 661.446,1381.47 666.932,1381.16 671.981,1380.86 676.381,1380.59 
  680.481,1380.33 684.591,1380.06 688.579,1379.79 692.466,1379.52 696.334,1379.23 700.174,1378.94 703.969,1378.64 707.407,1378.36 710.839,1378.07 714.28,1377.77 
  717.693,1377.46 721.193,1377.14 724.694,1376.8 728.015,1376.47 730.881,1376.18 733.775,1375.88 736.621,1375.58 739.316,1375.28 741.837,1375 744.394,1374.7 
  746.752,1374.41 749.251,1374.11 751.827,1373.78 754.608,1373.42 757.455,1373.04 760.393,1372.63 763.416,1372.2 766.622,1371.73 769.825,1371.25 773.267,1370.72 
  777.062,1370.11 781.262,1369.41 785.575,1368.66 790.426,1367.79 795.884,1366.76 800.533,1365.84 804.892,1364.94 809.297,1363.99 813.309,1363.09 817.007,1362.22 
  820.549,1361.37 823.671,1360.58 826.709,1359.8 829.798,1358.98 832.887,1358.13 835.96,1357.26 838.844,1356.42 841.395,1355.66 843.742,1354.94 846.111,1354.2 
  848.453,1353.45 850.627,1352.74 852.66,1352.06 854.686,1351.38 856.618,1350.72 858.593,1350.04 860.58,1349.34 862.441,1348.67 864.285,1348.01 866.106,1347.34 
  868.028,1346.62 869.998,1345.88 871.976,1345.12 874.039,1344.3 876.153,1343.46 878.311,1342.58 880.489,1341.67 882.811,1340.68 885.222,1339.63 887.651,1338.55 
  889.95,1337.51 892.368,1336.39 894.777,1335.24 897.352,1333.99 899.854,1332.75 902.514,1331.4 905.506,1329.85 908.743,1328.12 911.957,1326.36 915.16,1324.56 
  918.611,1322.58 922.494,1320.3 926.853,1317.66 931.757,1314.54 937.274,1310.85 943.481,1306.51 950.464,1301.35 956.644,1296.51 961.988,1292.09 968.001,1286.92 
  974.765,1280.91 981.938,1274.2 990.008,1266.26 997.155,1258.78 1005.2,1249.8 1012.79,1240.85 1018.35,1234.09 1023.86,1227.15 1028.71,1220.78 1032.95,1215.04 
  1037.26,1209.02 1041.05,1203.58 1044.95,1197.76 1048.56,1192.17 1051.89,1186.87 1055.51,1181.03 1059.11,1175.07 1062.77,1168.79 1066.29,1162.6 1070.08,1155.74 
  1073.87,1148.72 1077.75,1141.43 1081.43,1134.39 1085.5,1126.43 1090.06,1117.25 1095.2,1106.58 1100.99,1094.15 1107.49,1079.58 1113.52,1065.66 1120.3,1049.57 
  1127.04,1033.14 1133.34,1017.54 1139.87,1001.11 1145.85,985.643 1152.17,969.123 1157.99,953.628 1163.39,939.014 1168.2,925.773 1173.26,911.704 1178.24,897.86 
  1183.05,884.562 1187.07,873.447 1190.76,863.162 1194.43,852.839 1198.25,842.075 1202.55,829.95 1206.97,817.389 1211.44,804.794 1215.88,792.327 1220.69,778.777 
  1225.32,765.638 1229.71,753.191 1233.68,742.021 1237.49,731.358 1241.4,720.444 1245.19,709.928 1249.07,699.301 1253.22,688.061 1257.29,677.195 1261.26,666.686 
  1265.28,656.387 1269.15,646.675 1273.13,636.933 1277.21,627.229 1281.59,616.977 1285.83,607.271 1290.21,597.663 1294.63,588.351 1298.9,579.582 1303.11,571.259 
  1307.19,563.502 1311.27,556.123 1315.37,548.918 1319.39,542.044 1323.47,535.454 1327.5,529.277 1331.46,523.519 1335.28,518.298 1339.03,513.558 1342.84,509.159 
  1346.53,505.263 1350.21,501.88 1353.81,498.98 1357.35,496.493 1360.75,494.305 1364.19,492.249 1367.51,490.51 1370.86,489.049 1374.09,487.798 1377.3,486.91 
  1380.5,486.388 1383.82,486.165 1387.12,486.181 1390.43,486.395 1393.74,486.768 1397.04,487.441 1400.34,488.499 1403.63,489.888 1406.9,491.454 1410.17,493.274 
  1413.4,495.269 1416.58,497.411 1419.64,499.744 1422.61,502.266 1425.53,505.006 1428.48,507.948 1431.39,510.987 1434.29,514.14 1437.19,517.404 1440.04,520.724 
  1442.91,524.279 1445.75,527.991 1448.64,531.903 1451.49,535.933 1454.33,540.048 1457.23,544.386 1460.14,548.913 1463.03,553.586 1465.94,558.411 1468.84,563.314 
  1471.73,568.286 1474.63,573.399 1477.55,578.656 1480.42,583.926 1483.29,589.277 1486.1,594.631 1488.87,600.03 1491.58,605.439 1494.25,610.857 1496.96,616.437 
  1499.66,622.061 1502.35,627.762 1505.04,633.567 1507.82,639.698 1510.63,645.941 1513.46,652.361 1516.31,658.976 1519.19,665.749 1522.06,672.6 1524.94,679.53 
  1527.83,686.504 1530.73,693.481 1533.67,700.539 1536.61,707.654 1539.59,714.911 1542.51,722.008 1545.43,729.121 1548.36,736.219 1551.33,743.427 1554.31,750.606 
  1557.24,757.644 1560.07,764.474 1562.89,771.214 1565.74,778.031 1568.55,784.744 1571.36,791.494 1574.21,798.343 1577.15,805.369 1580.15,812.579 1583.21,819.987 
  1586.35,827.578 1589.53,835.258 1592.77,843.122 1596.06,851.09 1599.39,859.1 1602.71,867.039 1605.98,874.752 1609.27,882.469 1612.54,890.121 1615.87,897.83 
  1619.32,905.735 1622.66,913.312 1626.08,920.981 1629.59,928.745 1633.06,936.3 1636.27,943.22 1639.43,950.007 1642.55,956.642 1645.43,962.689 1648.08,968.217 
  1650.58,973.423 1653.11,978.641 1655.48,983.482 1657.77,988.121 1659.91,992.437 1662.04,996.699 1664.11,1000.8 1666.13,1004.8 1668.19,1008.83 1670.17,1012.7 
  1672.2,1016.64 1674.25,1020.59 1676.41,1024.71 1678.58,1028.83 1680.73,1032.86 1682.95,1036.99 1685.06,1040.86 1687.19,1044.74 1689.42,1048.77 1691.7,1052.83 
  1694.03,1056.95 1696.36,1061.04 1698.66,1065.03 1701,1069.07 1703.25,1072.92 1705.57,1076.87 1707.92,1080.83 1710.24,1084.7 1712.56,1088.53 1715,1092.54 
  1717.75,1096.99 1720.73,1101.75 1723.68,1106.42 1726.69,1111.12 1729.94,1116.14 1733.37,1121.35 1736.99,1126.7 1740.51,1131.81 1743.9,1136.63 1747.36,1141.46 
  1750.65,1145.99 1754.03,1150.57 1757.68,1155.44 1761.61,1160.62 1765.6,1165.8 1769.81,1171.16 1774.36,1176.88 1778.32,1181.73 1782.23,1186.4 1786.17,1191.02 
  1790.23,1195.66 1794.06,1199.92 1797.84,1204.03 1801.61,1208.04 1805.45,1212.02 1809.36,1215.99 1813.05,1219.67 1816.68,1223.22 1820.16,1226.54 1823.24,1229.46 
  1826.3,1232.32 1829.17,1234.96 1831.93,1237.47 1834.63,1239.9 1837.32,1242.29 1840.06,1244.67 1842.7,1246.95 1845.43,1249.28 1848.15,1251.57 1850.77,1253.73 
  1853.19,1255.7 1855.5,1257.56 1857.74,1259.35 1859.99,1261.11 1862.21,1262.82 1864.38,1264.48 1866.5,1266.08 1868.58,1267.63 1870.61,1269.13 1872.64,1270.6 
  1874.69,1272.08 1876.83,1273.6 1878.99,1275.13 1881.27,1276.71 1883.39,1278.16 1885.49,1279.58 1887.55,1280.97 1889.67,1282.37 1891.74,1283.73 1893.87,1285.11 
  1895.96,1286.45 1897.97,1287.72 1899.97,1288.96 1902.04,1290.24 1904.09,1291.48 1906.19,1292.74 1908.4,1294.04 1910.68,1295.37 1913.04,1296.73 1915.44,1298.08 
  1917.97,1299.49 1920.5,1300.87 1923.03,1302.24 1925.6,1303.61 1928.42,1305.08 1931.13,1306.48 1933.89,1307.87 1936.82,1309.32 1939.86,1310.81 1942.87,1312.24 
  1946,1313.71 1948.92,1315.05 1951.8,1316.35 1954.76,1317.66 1957.84,1319 1960.9,1320.3 1964.06,1321.62 1967.3,1322.96 1970.42,1324.21 1973.64,1325.49 
  1977.05,1326.81 1980.63,1328.17 1984.48,1329.6 1988.53,1331.07 1993.08,1332.68 1998.21,1334.44 2003.56,1336.21 2009.58,1338.14 2016.36,1340.2 2023.98,1342.42 
  2032.56,1344.79 2039.05,1346.49 2045.67,1348.16 2051.86,1349.67 2058.5,1351.23 2064.71,1352.62 2071.37,1354.06 2078.86,1355.59 2087.29,1357.22 2096.77,1358.96 
  2105.65,1360.49 2115.64,1362.1 2126.88,1363.79 2139.52,1365.56 2146.11,1366.44 2153.51,1367.38 2160.26,1368.2 2165.39,1368.81 2169.93,1369.33 2174.59,1369.85 
  2179.02,1370.33 2183.16,1370.76 2187.81,1371.24 2193.03,1371.76 2198.91,1372.32 2203.55,1372.75 2208.38,1373.19 2213.81,1373.66 2218.85,1374.08 2224.16,1374.51 
  2229.56,1374.94 2235.63,1375.39 2242.46,1375.88 2248.2,1376.28 2254.65,1376.71 2261.85,1377.17 2266.97,1377.49 2272.73,1377.83 2279.21,1378.21 2284.41,1378.5 
  2289.39,1378.77 2294.08,1379.01 
  "/>
<path clip-path="url(#clip410)" d="
M1567.83 270.476 L2283.65 270.476 L2283.65 166.796 L1567.83 166.796  Z
  " fill="#ffffff" fill-rule="evenodd" fill-opacity="1"/>
<polyline clip-path="url(#clip410)" style="stroke:#000000; stroke-linecap:butt; stroke-linejoin:round; stroke-width:4; stroke-opacity:1; fill:none" points="
  1567.83,270.476 2283.65,270.476 2283.65,166.796 1567.83,166.796 1567.83,270.476 
  "/>
<polyline clip-path="url(#clip410)" style="stroke:#009af9; stroke-linecap:butt; stroke-linejoin:round; stroke-width:4; stroke-opacity:1; fill:none" points="
  1590.87,218.636 1729.07,218.636 
  "/>
<path clip-path="url(#clip410)" d="M1752.1 201.356 L1759.07 201.356 L1767.89 224.874 L1776.76 201.356 L1783.72 201.356 L1783.72 235.916 L1779.16 235.916 L1779.16 205.569 L1770.25 229.272 L1765.55 229.272 L1756.64 205.569 L1756.64 235.916 L1752.1 235.916 L1752.1 201.356 Z" fill="#000000" fill-rule="evenodd" fill-opacity="1" /><path clip-path="url(#clip410)" d="M1792.82 209.99 L1797.08 209.99 L1797.08 235.916 L1792.82 235.916 L1792.82 209.99 M1792.82 199.897 L1797.08 199.897 L1797.08 205.291 L1792.82 205.291 L1792.82 199.897 Z" fill="#000000" fill-rule="evenodd" fill-opacity="1" /><path clip-path="url(#clip410)" d="M1823.05 213.925 L1823.05 199.897 L1827.31 199.897 L1827.31 235.916 L1823.05 235.916 L1823.05 232.027 Q1821.71 234.342 1819.65 235.476 Q1817.61 236.587 1814.74 236.587 Q1810.04 236.587 1807.08 232.837 Q1804.14 229.087 1804.14 222.976 Q1804.14 216.865 1807.08 213.115 Q1810.04 209.365 1814.74 209.365 Q1817.61 209.365 1819.65 210.499 Q1821.71 211.61 1823.05 213.925 M1808.54 222.976 Q1808.54 227.675 1810.46 230.36 Q1812.4 233.022 1815.78 233.022 Q1819.16 233.022 1821.11 230.36 Q1823.05 227.675 1823.05 222.976 Q1823.05 218.277 1821.11 215.615 Q1819.16 212.93 1815.78 212.93 Q1812.4 212.93 1810.46 215.615 Q1808.54 218.277 1808.54 222.976 Z" fill="#000000" fill-rule="evenodd" fill-opacity="1" /><path clip-path="url(#clip410)" d="M1853.14 213.925 L1853.14 199.897 L1857.4 199.897 L1857.4 235.916 L1853.14 235.916 L1853.14 232.027 Q1851.8 234.342 1849.74 235.476 Q1847.7 236.587 1844.83 236.587 Q1840.13 236.587 1837.17 232.837 Q1834.23 229.087 1834.23 222.976 Q1834.23 216.865 1837.17 213.115 Q1840.13 209.365 1844.83 209.365 Q1847.7 209.365 1849.74 210.499 Q1851.8 211.61 1853.14 213.925 M1838.63 222.976 Q1838.63 227.675 1840.55 230.36 Q1842.5 233.022 1845.88 233.022 Q1849.26 233.022 1851.2 230.36 Q1853.14 227.675 1853.14 222.976 Q1853.14 218.277 1851.2 215.615 Q1849.26 212.93 1845.88 212.93 Q1842.5 212.93 1840.55 215.615 Q1838.63 218.277 1838.63 222.976 Z" fill="#000000" fill-rule="evenodd" fill-opacity="1" /><path clip-path="url(#clip410)" d="M1866.18 199.897 L1870.44 199.897 L1870.44 235.916 L1866.18 235.916 L1866.18 199.897 Z" fill="#000000" fill-rule="evenodd" fill-opacity="1" /><path clip-path="url(#clip410)" d="M1901.52 221.888 L1901.52 223.971 L1881.94 223.971 Q1882.22 228.369 1884.58 230.684 Q1886.96 232.976 1891.2 232.976 Q1893.65 232.976 1895.94 232.374 Q1898.26 231.772 1900.53 230.569 L1900.53 234.596 Q1898.24 235.568 1895.83 236.078 Q1893.42 236.587 1890.94 236.587 Q1884.74 236.587 1881.11 232.976 Q1877.5 229.365 1877.5 223.207 Q1877.5 216.842 1880.92 213.115 Q1884.37 209.365 1890.2 209.365 Q1895.44 209.365 1898.47 212.745 Q1901.52 216.101 1901.52 221.888 M1897.26 220.638 Q1897.22 217.143 1895.3 215.059 Q1893.4 212.976 1890.25 212.976 Q1886.69 212.976 1884.53 214.99 Q1882.4 217.004 1882.08 220.661 L1897.26 220.638 Z" fill="#000000" fill-rule="evenodd" fill-opacity="1" /><path clip-path="url(#clip410)" d="M1924.32 235.198 L1924.32 230.939 Q1926.08 231.772 1927.89 232.212 Q1929.69 232.652 1931.43 232.652 Q1936.06 232.652 1938.49 229.55 Q1940.94 226.425 1941.29 220.082 Q1939.95 222.073 1937.89 223.138 Q1935.83 224.203 1933.33 224.203 Q1928.14 224.203 1925.11 221.078 Q1922.1 217.93 1922.1 212.49 Q1922.1 207.166 1925.25 203.948 Q1928.4 200.731 1933.63 200.731 Q1939.62 200.731 1942.77 205.337 Q1945.94 209.92 1945.94 218.67 Q1945.94 226.842 1942.06 231.726 Q1938.19 236.587 1931.64 236.587 Q1929.88 236.587 1928.07 236.24 Q1926.27 235.893 1924.32 235.198 M1933.63 220.545 Q1936.78 220.545 1938.61 218.393 Q1940.46 216.24 1940.46 212.49 Q1940.46 208.763 1938.61 206.61 Q1936.78 204.434 1933.63 204.434 Q1930.48 204.434 1928.63 206.61 Q1926.8 208.763 1926.8 212.49 Q1926.8 216.24 1928.63 218.393 Q1930.48 220.545 1933.63 220.545 Z" fill="#000000" fill-rule="evenodd" fill-opacity="1" /><path clip-path="url(#clip410)" d="M1954.39 201.356 L1972.75 201.356 L1972.75 205.291 L1958.68 205.291 L1958.68 213.763 Q1959.69 213.416 1960.71 213.254 Q1961.73 213.069 1962.75 213.069 Q1968.54 213.069 1971.92 216.24 Q1975.3 219.411 1975.3 224.828 Q1975.3 230.406 1971.82 233.508 Q1968.35 236.587 1962.03 236.587 Q1959.86 236.587 1957.59 236.217 Q1955.34 235.846 1952.94 235.106 L1952.94 230.406 Q1955.02 231.541 1957.24 232.096 Q1959.46 232.652 1961.94 232.652 Q1965.94 232.652 1968.28 230.545 Q1970.62 228.439 1970.62 224.828 Q1970.62 221.217 1968.28 219.11 Q1965.94 217.004 1961.94 217.004 Q1960.06 217.004 1958.19 217.42 Q1956.34 217.837 1954.39 218.717 L1954.39 201.356 Z" fill="#000000" fill-rule="evenodd" fill-opacity="1" /><path clip-path="url(#clip410)" d="M2013.91 220.707 Q2011.89 220.707 2010.74 222.42 Q2009.6 224.133 2009.6 227.189 Q2009.6 230.198 2010.74 231.934 Q2011.89 233.647 2013.91 233.647 Q2015.87 233.647 2017.01 231.934 Q2018.17 230.198 2018.17 227.189 Q2018.17 224.157 2017.01 222.444 Q2015.87 220.707 2013.91 220.707 M2013.91 217.768 Q2017.56 217.768 2019.72 220.314 Q2021.87 222.86 2021.87 227.189 Q2021.87 231.518 2019.69 234.064 Q2017.54 236.587 2013.91 236.587 Q2010.2 236.587 2008.05 234.064 Q2005.9 231.518 2005.9 227.189 Q2005.9 222.837 2008.05 220.314 Q2010.23 217.768 2013.91 217.768 M1990.02 203.671 Q1988.03 203.671 1986.87 205.407 Q1985.74 207.12 1985.74 210.129 Q1985.74 213.184 1986.87 214.897 Q1988 216.61 1990.02 216.61 Q1992.03 216.61 1993.17 214.897 Q1994.32 213.184 1994.32 210.129 Q1994.32 207.143 1993.17 205.407 Q1992.01 203.671 1990.02 203.671 M2010.92 200.731 L2014.62 200.731 L1993 236.587 L1989.3 236.587 L2010.92 200.731 M1990.02 200.731 Q1993.68 200.731 1995.85 203.277 Q1998.03 205.8 1998.03 210.129 Q1998.03 214.504 1995.85 217.027 Q1993.7 219.55 1990.02 219.55 Q1986.34 219.55 1984.18 217.027 Q1982.06 214.481 1982.06 210.129 Q1982.06 205.823 1984.21 203.277 Q1986.36 200.731 1990.02 200.731 Z" fill="#000000" fill-rule="evenodd" fill-opacity="1" /><path clip-path="url(#clip410)" d="M2058.24 204.527 Q2053.14 204.527 2050.13 208.323 Q2047.15 212.12 2047.15 218.67 Q2047.15 225.198 2050.13 228.994 Q2053.14 232.791 2058.24 232.791 Q2063.33 232.791 2066.29 228.994 Q2069.28 225.198 2069.28 218.67 Q2069.28 212.12 2066.29 208.323 Q2063.33 204.527 2058.24 204.527 M2064.79 235.291 L2070.94 242.027 L2065.3 242.027 L2060.18 236.494 Q2059.42 236.541 2059 236.564 Q2058.61 236.587 2058.24 236.587 Q2050.94 236.587 2046.57 231.726 Q2042.22 226.842 2042.22 218.67 Q2042.22 210.476 2046.57 205.615 Q2050.94 200.731 2058.24 200.731 Q2065.5 200.731 2069.86 205.615 Q2074.21 210.476 2074.21 218.67 Q2074.21 224.689 2071.78 228.971 Q2069.37 233.254 2064.79 235.291 Z" fill="#000000" fill-rule="evenodd" fill-opacity="1" /><path clip-path="url(#clip410)" d="M2080.9 225.684 L2080.9 209.99 L2085.16 209.99 L2085.16 225.522 Q2085.16 229.203 2086.59 231.055 Q2088.03 232.883 2090.9 232.883 Q2094.35 232.883 2096.34 230.684 Q2098.35 228.485 2098.35 224.689 L2098.35 209.99 L2102.61 209.99 L2102.61 235.916 L2098.35 235.916 L2098.35 231.934 Q2096.8 234.295 2094.74 235.453 Q2092.7 236.587 2089.99 236.587 Q2085.53 236.587 2083.21 233.809 Q2080.9 231.031 2080.9 225.684 M2091.61 209.365 L2091.61 209.365 Z" fill="#000000" fill-rule="evenodd" fill-opacity="1" /><path clip-path="url(#clip410)" d="M2123.17 222.883 Q2118 222.883 2116.01 224.064 Q2114.02 225.244 2114.02 228.092 Q2114.02 230.36 2115.5 231.703 Q2117.01 233.022 2119.58 233.022 Q2123.12 233.022 2125.25 230.522 Q2127.4 227.999 2127.4 223.832 L2127.4 222.883 L2123.17 222.883 M2131.66 221.124 L2131.66 235.916 L2127.4 235.916 L2127.4 231.981 Q2125.94 234.342 2123.77 235.476 Q2121.59 236.587 2118.44 236.587 Q2114.46 236.587 2112.1 234.365 Q2109.76 232.119 2109.76 228.369 Q2109.76 223.994 2112.68 221.772 Q2115.62 219.55 2121.43 219.55 L2127.4 219.55 L2127.4 219.133 Q2127.4 216.194 2125.46 214.596 Q2123.54 212.976 2120.04 212.976 Q2117.82 212.976 2115.71 213.508 Q2113.61 214.041 2111.66 215.106 L2111.66 211.17 Q2114 210.268 2116.2 209.828 Q2118.4 209.365 2120.48 209.365 Q2126.11 209.365 2128.88 212.282 Q2131.66 215.198 2131.66 221.124 Z" fill="#000000" fill-rule="evenodd" fill-opacity="1" /><path clip-path="url(#clip410)" d="M2161.98 220.268 L2161.98 235.916 L2157.73 235.916 L2157.73 220.407 Q2157.73 216.726 2156.29 214.897 Q2154.86 213.069 2151.98 213.069 Q2148.54 213.069 2146.55 215.268 Q2144.55 217.467 2144.55 221.263 L2144.55 235.916 L2140.27 235.916 L2140.27 209.99 L2144.55 209.99 L2144.55 214.018 Q2146.08 211.68 2148.14 210.522 Q2150.23 209.365 2152.93 209.365 Q2157.4 209.365 2159.69 212.143 Q2161.98 214.897 2161.98 220.268 Z" fill="#000000" fill-rule="evenodd" fill-opacity="1" /><path clip-path="url(#clip410)" d="M2174.69 202.629 L2174.69 209.99 L2183.47 209.99 L2183.47 213.3 L2174.69 213.3 L2174.69 227.374 Q2174.69 230.545 2175.55 231.448 Q2176.43 232.351 2179.09 232.351 L2183.47 232.351 L2183.47 235.916 L2179.09 235.916 Q2174.16 235.916 2172.29 234.087 Q2170.41 232.235 2170.41 227.374 L2170.41 213.3 L2167.29 213.3 L2167.29 209.99 L2170.41 209.99 L2170.41 202.629 L2174.69 202.629 Z" fill="#000000" fill-rule="evenodd" fill-opacity="1" /><path clip-path="url(#clip410)" d="M2189.07 209.99 L2193.33 209.99 L2193.33 235.916 L2189.07 235.916 L2189.07 209.99 M2189.07 199.897 L2193.33 199.897 L2193.33 205.291 L2189.07 205.291 L2189.07 199.897 Z" fill="#000000" fill-rule="evenodd" fill-opacity="1" /><path clip-path="url(#clip410)" d="M2202.24 199.897 L2206.5 199.897 L2206.5 235.916 L2202.24 235.916 L2202.24 199.897 Z" fill="#000000" fill-rule="evenodd" fill-opacity="1" /><path clip-path="url(#clip410)" d="M2237.59 221.888 L2237.59 223.971 L2218 223.971 Q2218.28 228.369 2220.64 230.684 Q2223.03 232.976 2227.26 232.976 Q2229.72 232.976 2232.01 232.374 Q2234.32 231.772 2236.59 230.569 L2236.59 234.596 Q2234.3 235.568 2231.89 236.078 Q2229.48 236.587 2227.01 236.587 Q2220.8 236.587 2217.17 232.976 Q2213.56 229.365 2213.56 223.207 Q2213.56 216.842 2216.98 213.115 Q2220.43 209.365 2226.27 209.365 Q2231.5 209.365 2234.53 212.745 Q2237.59 216.101 2237.59 221.888 M2233.33 220.638 Q2233.28 217.143 2231.36 215.059 Q2229.46 212.976 2226.31 212.976 Q2222.75 212.976 2220.6 214.99 Q2218.47 217.004 2218.14 220.661 L2233.33 220.638 Z" fill="#000000" fill-rule="evenodd" fill-opacity="1" /></svg>
