<?xml version="1.0" encoding="utf-8"?>
<svg xmlns="http://www.w3.org/2000/svg" xmlns:xlink="http://www.w3.org/1999/xlink" width="600" height="400" viewBox="0 0 2400 1600">
<defs>
  <clipPath id="clip080">
    <rect x="0" y="0" width="2400" height="1600"/>
  </clipPath>
</defs>
<path clip-path="url(#clip080)" d="
M0 1600 L2400 1600 L2400 0 L0 0  Z
  " fill="#ffffff" fill-rule="evenodd" fill-opacity="1"/>
<defs>
  <clipPath id="clip081">
    <rect x="480" y="0" width="1681" height="1600"/>
  </clipPath>
</defs>
<path clip-path="url(#clip080)" d="
M250.028 1423.18 L2352.76 1423.18 L2352.76 123.472 L250.028 123.472  Z
  " fill="#ffffff" fill-rule="evenodd" fill-opacity="1"/>
<defs>
  <clipPath id="clip082">
    <rect x="250" y="123" width="2104" height="1301"/>
  </clipPath>
</defs>
<polyline clip-path="url(#clip082)" style="stroke:#000000; stroke-linecap:round; stroke-linejoin:round; stroke-width:2; stroke-opacity:0.1; fill:none" points="
  250.028,1423.18 250.028,123.472 
  "/>
<polyline clip-path="url(#clip082)" style="stroke:#000000; stroke-linecap:round; stroke-linejoin:round; stroke-width:2; stroke-opacity:0.1; fill:none" points="
  632.342,1423.18 632.342,123.472 
  "/>
<polyline clip-path="url(#clip082)" style="stroke:#000000; stroke-linecap:round; stroke-linejoin:round; stroke-width:2; stroke-opacity:0.1; fill:none" points="
  1014.66,1423.18 1014.66,123.472 
  "/>
<polyline clip-path="url(#clip082)" style="stroke:#000000; stroke-linecap:round; stroke-linejoin:round; stroke-width:2; stroke-opacity:0.1; fill:none" points="
  1396.97,1423.18 1396.97,123.472 
  "/>
<polyline clip-path="url(#clip082)" style="stroke:#000000; stroke-linecap:round; stroke-linejoin:round; stroke-width:2; stroke-opacity:0.1; fill:none" points="
  1779.28,1423.18 1779.28,123.472 
  "/>
<polyline clip-path="url(#clip082)" style="stroke:#000000; stroke-linecap:round; stroke-linejoin:round; stroke-width:2; stroke-opacity:0.1; fill:none" points="
  2161.6,1423.18 2161.6,123.472 
  "/>
<polyline clip-path="url(#clip080)" style="stroke:#000000; stroke-linecap:round; stroke-linejoin:round; stroke-width:4; stroke-opacity:1; fill:none" points="
  250.028,1423.18 2352.76,1423.18 
  "/>
<polyline clip-path="url(#clip080)" style="stroke:#000000; stroke-linecap:round; stroke-linejoin:round; stroke-width:4; stroke-opacity:1; fill:none" points="
  250.028,1423.18 250.028,1404.28 
  "/>
<polyline clip-path="url(#clip080)" style="stroke:#000000; stroke-linecap:round; stroke-linejoin:round; stroke-width:4; stroke-opacity:1; fill:none" points="
  632.342,1423.18 632.342,1404.28 
  "/>
<polyline clip-path="url(#clip080)" style="stroke:#000000; stroke-linecap:round; stroke-linejoin:round; stroke-width:4; stroke-opacity:1; fill:none" points="
  1014.66,1423.18 1014.66,1404.28 
  "/>
<polyline clip-path="url(#clip080)" style="stroke:#000000; stroke-linecap:round; stroke-linejoin:round; stroke-width:4; stroke-opacity:1; fill:none" points="
  1396.97,1423.18 1396.97,1404.28 
  "/>
<polyline clip-path="url(#clip080)" style="stroke:#000000; stroke-linecap:round; stroke-linejoin:round; stroke-width:4; stroke-opacity:1; fill:none" points="
  1779.28,1423.18 1779.28,1404.28 
  "/>
<polyline clip-path="url(#clip080)" style="stroke:#000000; stroke-linecap:round; stroke-linejoin:round; stroke-width:4; stroke-opacity:1; fill:none" points="
  2161.6,1423.18 2161.6,1404.28 
  "/>
<path clip-path="url(#clip080)" d="M250.028 1454.1 Q246.417 1454.1 244.588 1457.66 Q242.783 1461.2 242.783 1468.33 Q242.783 1475.44 244.588 1479.01 Q246.417 1482.55 250.028 1482.55 Q253.662 1482.55 255.468 1479.01 Q257.297 1475.44 257.297 1468.33 Q257.297 1461.2 255.468 1457.66 Q253.662 1454.1 250.028 1454.1 M250.028 1450.39 Q255.838 1450.39 258.894 1455 Q261.973 1459.58 261.973 1468.33 Q261.973 1477.06 258.894 1481.67 Q255.838 1486.25 250.028 1486.25 Q244.218 1486.25 241.139 1481.67 Q238.084 1477.06 238.084 1468.33 Q238.084 1459.58 241.139 1455 Q244.218 1450.39 250.028 1450.39 Z" fill="#000000" fill-rule="evenodd" fill-opacity="1" /><path clip-path="url(#clip080)" d="M591.949 1481.64 L599.588 1481.64 L599.588 1455.28 L591.278 1456.95 L591.278 1452.69 L599.542 1451.02 L604.217 1451.02 L604.217 1481.64 L611.856 1481.64 L611.856 1485.58 L591.949 1485.58 L591.949 1481.64 Z" fill="#000000" fill-rule="evenodd" fill-opacity="1" /><path clip-path="url(#clip080)" d="M631.301 1454.1 Q627.69 1454.1 625.861 1457.66 Q624.055 1461.2 624.055 1468.33 Q624.055 1475.44 625.861 1479.01 Q627.69 1482.55 631.301 1482.55 Q634.935 1482.55 636.74 1479.01 Q638.569 1475.44 638.569 1468.33 Q638.569 1461.2 636.74 1457.66 Q634.935 1454.1 631.301 1454.1 M631.301 1450.39 Q637.111 1450.39 640.166 1455 Q643.245 1459.58 643.245 1468.33 Q643.245 1477.06 640.166 1481.67 Q637.111 1486.25 631.301 1486.25 Q625.49 1486.25 622.412 1481.67 Q619.356 1477.06 619.356 1468.33 Q619.356 1459.58 622.412 1455 Q625.49 1450.39 631.301 1450.39 Z" fill="#000000" fill-rule="evenodd" fill-opacity="1" /><path clip-path="url(#clip080)" d="M661.462 1454.1 Q657.851 1454.1 656.023 1457.66 Q654.217 1461.2 654.217 1468.33 Q654.217 1475.44 656.023 1479.01 Q657.851 1482.55 661.462 1482.55 Q665.097 1482.55 666.902 1479.01 Q668.731 1475.44 668.731 1468.33 Q668.731 1461.2 666.902 1457.66 Q665.097 1454.1 661.462 1454.1 M661.462 1450.39 Q667.273 1450.39 670.328 1455 Q673.407 1459.58 673.407 1468.33 Q673.407 1477.06 670.328 1481.67 Q667.273 1486.25 661.462 1486.25 Q655.652 1486.25 652.574 1481.67 Q649.518 1477.06 649.518 1468.33 Q649.518 1459.58 652.574 1455 Q655.652 1450.39 661.462 1450.39 Z" fill="#000000" fill-rule="evenodd" fill-opacity="1" /><path clip-path="url(#clip080)" d="M978.349 1481.64 L994.668 1481.64 L994.668 1485.58 L972.724 1485.58 L972.724 1481.64 Q975.386 1478.89 979.969 1474.26 Q984.576 1469.61 985.756 1468.27 Q988.001 1465.74 988.881 1464.01 Q989.784 1462.25 989.784 1460.56 Q989.784 1457.8 987.839 1456.07 Q985.918 1454.33 982.816 1454.33 Q980.617 1454.33 978.164 1455.09 Q975.733 1455.86 972.955 1457.41 L972.955 1452.69 Q975.779 1451.55 978.233 1450.97 Q980.687 1450.39 982.724 1450.39 Q988.094 1450.39 991.288 1453.08 Q994.483 1455.77 994.483 1460.26 Q994.483 1462.39 993.673 1464.31 Q992.886 1466.2 990.779 1468.8 Q990.201 1469.47 987.099 1472.69 Q983.997 1475.88 978.349 1481.64 Z" fill="#000000" fill-rule="evenodd" fill-opacity="1" /><path clip-path="url(#clip080)" d="M1014.48 1454.1 Q1010.87 1454.1 1009.04 1457.66 Q1007.24 1461.2 1007.24 1468.33 Q1007.24 1475.44 1009.04 1479.01 Q1010.87 1482.55 1014.48 1482.55 Q1018.12 1482.55 1019.92 1479.01 Q1021.75 1475.44 1021.75 1468.33 Q1021.75 1461.2 1019.92 1457.66 Q1018.12 1454.1 1014.48 1454.1 M1014.48 1450.39 Q1020.29 1450.39 1023.35 1455 Q1026.43 1459.58 1026.43 1468.33 Q1026.43 1477.06 1023.35 1481.67 Q1020.29 1486.25 1014.48 1486.25 Q1008.67 1486.25 1005.59 1481.67 Q1002.54 1477.06 1002.54 1468.33 Q1002.54 1459.58 1005.59 1455 Q1008.67 1450.39 1014.48 1450.39 Z" fill="#000000" fill-rule="evenodd" fill-opacity="1" /><path clip-path="url(#clip080)" d="M1044.64 1454.1 Q1041.03 1454.1 1039.2 1457.66 Q1037.4 1461.2 1037.4 1468.33 Q1037.4 1475.44 1039.2 1479.01 Q1041.03 1482.55 1044.64 1482.55 Q1048.28 1482.55 1050.08 1479.01 Q1051.91 1475.44 1051.91 1468.33 Q1051.91 1461.2 1050.08 1457.66 Q1048.28 1454.1 1044.64 1454.1 M1044.64 1450.39 Q1050.45 1450.39 1053.51 1455 Q1056.59 1459.58 1056.59 1468.33 Q1056.59 1477.06 1053.51 1481.67 Q1050.45 1486.25 1044.64 1486.25 Q1038.83 1486.25 1035.76 1481.67 Q1032.7 1477.06 1032.7 1468.33 Q1032.7 1459.58 1035.76 1455 Q1038.83 1450.39 1044.64 1450.39 Z" fill="#000000" fill-rule="evenodd" fill-opacity="1" /><path clip-path="url(#clip080)" d="M1370.73 1466.95 Q1374.09 1467.66 1375.96 1469.93 Q1377.86 1472.2 1377.86 1475.53 Q1377.86 1480.65 1374.34 1483.45 Q1370.82 1486.25 1364.34 1486.25 Q1362.17 1486.25 1359.85 1485.81 Q1357.56 1485.39 1355.11 1484.54 L1355.11 1480.02 Q1357.05 1481.16 1359.37 1481.74 Q1361.68 1482.32 1364.2 1482.32 Q1368.6 1482.32 1370.89 1480.58 Q1373.21 1478.84 1373.21 1475.53 Q1373.21 1472.48 1371.06 1470.77 Q1368.93 1469.03 1365.11 1469.03 L1361.08 1469.03 L1361.08 1465.19 L1365.29 1465.19 Q1368.74 1465.19 1370.57 1463.82 Q1372.4 1462.43 1372.4 1459.84 Q1372.4 1457.18 1370.5 1455.77 Q1368.63 1454.33 1365.11 1454.33 Q1363.19 1454.33 1360.99 1454.75 Q1358.79 1455.16 1356.15 1456.04 L1356.15 1451.88 Q1358.81 1451.14 1361.13 1450.77 Q1363.46 1450.39 1365.52 1450.39 Q1370.85 1450.39 1373.95 1452.83 Q1377.05 1455.23 1377.05 1459.35 Q1377.05 1462.22 1375.41 1464.21 Q1373.76 1466.18 1370.73 1466.95 Z" fill="#000000" fill-rule="evenodd" fill-opacity="1" /><path clip-path="url(#clip080)" d="M1396.73 1454.1 Q1393.12 1454.1 1391.29 1457.66 Q1389.48 1461.2 1389.48 1468.33 Q1389.48 1475.44 1391.29 1479.01 Q1393.12 1482.55 1396.73 1482.55 Q1400.36 1482.55 1402.17 1479.01 Q1404 1475.44 1404 1468.33 Q1404 1461.2 1402.17 1457.66 Q1400.36 1454.1 1396.73 1454.1 M1396.73 1450.39 Q1402.54 1450.39 1405.59 1455 Q1408.67 1459.58 1408.67 1468.33 Q1408.67 1477.06 1405.59 1481.67 Q1402.54 1486.25 1396.73 1486.25 Q1390.92 1486.25 1387.84 1481.67 Q1384.78 1477.06 1384.78 1468.33 Q1384.78 1459.58 1387.84 1455 Q1390.92 1450.39 1396.73 1450.39 Z" fill="#000000" fill-rule="evenodd" fill-opacity="1" /><path clip-path="url(#clip080)" d="M1426.89 1454.1 Q1423.28 1454.1 1421.45 1457.66 Q1419.64 1461.2 1419.64 1468.33 Q1419.64 1475.44 1421.45 1479.01 Q1423.28 1482.55 1426.89 1482.55 Q1430.52 1482.55 1432.33 1479.01 Q1434.16 1475.44 1434.16 1468.33 Q1434.16 1461.2 1432.33 1457.66 Q1430.52 1454.1 1426.89 1454.1 M1426.89 1450.39 Q1432.7 1450.39 1435.76 1455 Q1438.83 1459.58 1438.83 1468.33 Q1438.83 1477.06 1435.76 1481.67 Q1432.7 1486.25 1426.89 1486.25 Q1421.08 1486.25 1418 1481.67 Q1414.94 1477.06 1414.94 1468.33 Q1414.94 1459.58 1418 1455 Q1421.08 1450.39 1426.89 1450.39 Z" fill="#000000" fill-rule="evenodd" fill-opacity="1" /><path clip-path="url(#clip080)" d="M1752.38 1455.09 L1740.57 1473.54 L1752.38 1473.54 L1752.38 1455.09 M1751.15 1451.02 L1757.03 1451.02 L1757.03 1473.54 L1761.96 1473.54 L1761.96 1477.43 L1757.03 1477.43 L1757.03 1485.58 L1752.38 1485.58 L1752.38 1477.43 L1736.77 1477.43 L1736.77 1472.92 L1751.15 1451.02 Z" fill="#000000" fill-rule="evenodd" fill-opacity="1" /><path clip-path="url(#clip080)" d="M1779.69 1454.1 Q1776.08 1454.1 1774.25 1457.66 Q1772.44 1461.2 1772.44 1468.33 Q1772.44 1475.44 1774.25 1479.01 Q1776.08 1482.55 1779.69 1482.55 Q1783.32 1482.55 1785.13 1479.01 Q1786.96 1475.44 1786.96 1468.33 Q1786.96 1461.2 1785.13 1457.66 Q1783.32 1454.1 1779.69 1454.1 M1779.69 1450.39 Q1785.5 1450.39 1788.56 1455 Q1791.63 1459.58 1791.63 1468.33 Q1791.63 1477.06 1788.56 1481.67 Q1785.5 1486.25 1779.69 1486.25 Q1773.88 1486.25 1770.8 1481.67 Q1767.75 1477.06 1767.75 1468.33 Q1767.75 1459.58 1770.8 1455 Q1773.88 1450.39 1779.69 1450.39 Z" fill="#000000" fill-rule="evenodd" fill-opacity="1" /><path clip-path="url(#clip080)" d="M1809.85 1454.1 Q1806.24 1454.1 1804.41 1457.66 Q1802.61 1461.2 1802.61 1468.33 Q1802.61 1475.44 1804.41 1479.01 Q1806.24 1482.55 1809.85 1482.55 Q1813.49 1482.55 1815.29 1479.01 Q1817.12 1475.44 1817.12 1468.33 Q1817.12 1461.2 1815.29 1457.66 Q1813.49 1454.1 1809.85 1454.1 M1809.85 1450.39 Q1815.66 1450.39 1818.72 1455 Q1821.8 1459.58 1821.8 1468.33 Q1821.8 1477.06 1818.72 1481.67 Q1815.66 1486.25 1809.85 1486.25 Q1804.04 1486.25 1800.96 1481.67 Q1797.91 1477.06 1797.91 1468.33 Q1797.91 1459.58 1800.96 1455 Q1804.04 1450.39 1809.85 1450.39 Z" fill="#000000" fill-rule="evenodd" fill-opacity="1" /><path clip-path="url(#clip080)" d="M2121.22 1451.02 L2139.57 1451.02 L2139.57 1454.96 L2125.5 1454.96 L2125.5 1463.43 Q2126.52 1463.08 2127.54 1462.92 Q2128.56 1462.73 2129.57 1462.73 Q2135.36 1462.73 2138.74 1465.9 Q2142.12 1469.08 2142.12 1474.49 Q2142.12 1480.07 2138.65 1483.17 Q2135.18 1486.25 2128.86 1486.25 Q2126.68 1486.25 2124.41 1485.88 Q2122.17 1485.51 2119.76 1484.77 L2119.76 1480.07 Q2121.84 1481.2 2124.06 1481.76 Q2126.29 1482.32 2128.76 1482.32 Q2132.77 1482.32 2135.11 1480.21 Q2137.44 1478.1 2137.44 1474.49 Q2137.44 1470.88 2135.11 1468.77 Q2132.77 1466.67 2128.76 1466.67 Q2126.89 1466.67 2125.01 1467.08 Q2123.16 1467.5 2121.22 1468.38 L2121.22 1451.02 Z" fill="#000000" fill-rule="evenodd" fill-opacity="1" /><path clip-path="url(#clip080)" d="M2161.33 1454.1 Q2157.72 1454.1 2155.89 1457.66 Q2154.09 1461.2 2154.09 1468.33 Q2154.09 1475.44 2155.89 1479.01 Q2157.72 1482.55 2161.33 1482.55 Q2164.97 1482.55 2166.77 1479.01 Q2168.6 1475.44 2168.6 1468.33 Q2168.6 1461.2 2166.77 1457.66 Q2164.97 1454.1 2161.33 1454.1 M2161.33 1450.39 Q2167.14 1450.39 2170.2 1455 Q2173.28 1459.58 2173.28 1468.33 Q2173.28 1477.06 2170.2 1481.67 Q2167.14 1486.25 2161.33 1486.25 Q2155.52 1486.25 2152.44 1481.67 Q2149.39 1477.06 2149.39 1468.33 Q2149.39 1459.58 2152.44 1455 Q2155.52 1450.39 2161.33 1450.39 Z" fill="#000000" fill-rule="evenodd" fill-opacity="1" /><path clip-path="url(#clip080)" d="M2191.49 1454.1 Q2187.88 1454.1 2186.05 1457.66 Q2184.25 1461.2 2184.25 1468.33 Q2184.25 1475.44 2186.05 1479.01 Q2187.88 1482.55 2191.49 1482.55 Q2195.13 1482.55 2196.93 1479.01 Q2198.76 1475.44 2198.76 1468.33 Q2198.76 1461.2 2196.93 1457.66 Q2195.13 1454.1 2191.49 1454.1 M2191.49 1450.39 Q2197.3 1450.39 2200.36 1455 Q2203.44 1459.58 2203.44 1468.33 Q2203.44 1477.06 2200.36 1481.67 Q2197.3 1486.25 2191.49 1486.25 Q2185.68 1486.25 2182.61 1481.67 Q2179.55 1477.06 2179.55 1468.33 Q2179.55 1459.58 2182.61 1455 Q2185.68 1450.39 2191.49 1450.39 Z" fill="#000000" fill-rule="evenodd" fill-opacity="1" /><path clip-path="url(#clip080)" d="M1309.86 1531.91 Q1309.86 1532.81 1309.44 1533.04 Q1309.03 1533.23 1307.87 1533.23 L1301.68 1533.23 L1296.79 1552.69 Q1296.4 1554.39 1296.4 1555.84 Q1296.4 1557.45 1296.88 1558.16 Q1297.4 1558.87 1298.46 1558.87 Q1300.56 1558.87 1302.81 1556.97 Q1305.1 1555.07 1307.03 1550.43 Q1307.29 1549.82 1307.42 1549.69 Q1307.58 1549.53 1308 1549.53 Q1308.8 1549.53 1308.8 1550.17 Q1308.8 1550.4 1308.35 1551.43 Q1307.93 1552.46 1307 1553.97 Q1306.09 1555.49 1304.9 1556.9 Q1303.74 1558.32 1301.97 1559.35 Q1300.2 1560.35 1298.3 1560.35 Q1295.63 1560.35 1293.92 1558.64 Q1292.25 1556.94 1292.25 1554.26 Q1292.25 1553.39 1292.92 1550.62 Q1293.6 1547.82 1297.27 1533.23 L1291.44 1533.23 Q1290.64 1533.23 1290.31 1533.2 Q1290.02 1533.17 1289.8 1533.01 Q1289.61 1532.81 1289.61 1532.43 Q1289.61 1531.82 1289.86 1531.56 Q1290.12 1531.27 1290.44 1531.24 Q1290.8 1531.17 1291.6 1531.17 L1297.79 1531.17 L1300.36 1520.71 Q1300.62 1519.67 1301.26 1519.09 Q1301.94 1518.48 1302.33 1518.42 Q1302.71 1518.32 1303 1518.32 Q1303.87 1518.32 1304.39 1518.81 Q1304.9 1519.26 1304.9 1520.09 Q1304.9 1520.54 1302.2 1531.17 L1308 1531.17 Q1308.74 1531.17 1309.03 1531.2 Q1309.35 1531.24 1309.61 1531.4 Q1309.86 1531.56 1309.86 1531.91 Z" fill="#000000" fill-rule="evenodd" fill-opacity="1" /><polyline clip-path="url(#clip082)" style="stroke:#000000; stroke-linecap:round; stroke-linejoin:round; stroke-width:2; stroke-opacity:0.1; fill:none" points="
  250.028,1387.26 2352.76,1387.26 
  "/>
<polyline clip-path="url(#clip082)" style="stroke:#000000; stroke-linecap:round; stroke-linejoin:round; stroke-width:2; stroke-opacity:0.1; fill:none" points="
  250.028,1106.4 2352.76,1106.4 
  "/>
<polyline clip-path="url(#clip082)" style="stroke:#000000; stroke-linecap:round; stroke-linejoin:round; stroke-width:2; stroke-opacity:0.1; fill:none" points="
  250.028,825.54 2352.76,825.54 
  "/>
<polyline clip-path="url(#clip082)" style="stroke:#000000; stroke-linecap:round; stroke-linejoin:round; stroke-width:2; stroke-opacity:0.1; fill:none" points="
  250.028,544.68 2352.76,544.68 
  "/>
<polyline clip-path="url(#clip082)" style="stroke:#000000; stroke-linecap:round; stroke-linejoin:round; stroke-width:2; stroke-opacity:0.1; fill:none" points="
  250.028,263.819 2352.76,263.819 
  "/>
<polyline clip-path="url(#clip080)" style="stroke:#000000; stroke-linecap:round; stroke-linejoin:round; stroke-width:4; stroke-opacity:1; fill:none" points="
  250.028,1423.18 250.028,123.472 
  "/>
<polyline clip-path="url(#clip080)" style="stroke:#000000; stroke-linecap:round; stroke-linejoin:round; stroke-width:4; stroke-opacity:1; fill:none" points="
  250.028,1387.26 268.926,1387.26 
  "/>
<polyline clip-path="url(#clip080)" style="stroke:#000000; stroke-linecap:round; stroke-linejoin:round; stroke-width:4; stroke-opacity:1; fill:none" points="
  250.028,1106.4 268.926,1106.4 
  "/>
<polyline clip-path="url(#clip080)" style="stroke:#000000; stroke-linecap:round; stroke-linejoin:round; stroke-width:4; stroke-opacity:1; fill:none" points="
  250.028,825.54 268.926,825.54 
  "/>
<polyline clip-path="url(#clip080)" style="stroke:#000000; stroke-linecap:round; stroke-linejoin:round; stroke-width:4; stroke-opacity:1; fill:none" points="
  250.028,544.68 268.926,544.68 
  "/>
<polyline clip-path="url(#clip080)" style="stroke:#000000; stroke-linecap:round; stroke-linejoin:round; stroke-width:4; stroke-opacity:1; fill:none" points="
  250.028,263.819 268.926,263.819 
  "/>
<path clip-path="url(#clip080)" d="M126.691 1373.06 Q123.08 1373.06 121.251 1376.63 Q119.445 1380.17 119.445 1387.3 Q119.445 1394.4 121.251 1397.97 Q123.08 1401.51 126.691 1401.51 Q130.325 1401.51 132.13 1397.97 Q133.959 1394.4 133.959 1387.3 Q133.959 1380.17 132.13 1376.63 Q130.325 1373.06 126.691 1373.06 M126.691 1369.36 Q132.501 1369.36 135.556 1373.96 Q138.635 1378.55 138.635 1387.3 Q138.635 1396.02 135.556 1400.63 Q132.501 1405.21 126.691 1405.21 Q120.88 1405.21 117.802 1400.63 Q114.746 1396.02 114.746 1387.3 Q114.746 1378.55 117.802 1373.96 Q120.88 1369.36 126.691 1369.36 Z" fill="#000000" fill-rule="evenodd" fill-opacity="1" /><path clip-path="url(#clip080)" d="M146.853 1398.66 L151.737 1398.66 L151.737 1404.54 L146.853 1404.54 L146.853 1398.66 Z" fill="#000000" fill-rule="evenodd" fill-opacity="1" /><path clip-path="url(#clip080)" d="M171.922 1373.06 Q168.311 1373.06 166.482 1376.63 Q164.677 1380.17 164.677 1387.3 Q164.677 1394.4 166.482 1397.97 Q168.311 1401.51 171.922 1401.51 Q175.556 1401.51 177.362 1397.97 Q179.19 1394.4 179.19 1387.3 Q179.19 1380.17 177.362 1376.63 Q175.556 1373.06 171.922 1373.06 M171.922 1369.36 Q177.732 1369.36 180.788 1373.96 Q183.866 1378.55 183.866 1387.3 Q183.866 1396.02 180.788 1400.63 Q177.732 1405.21 171.922 1405.21 Q166.112 1405.21 163.033 1400.63 Q159.978 1396.02 159.978 1387.3 Q159.978 1378.55 163.033 1373.96 Q166.112 1369.36 171.922 1369.36 Z" fill="#000000" fill-rule="evenodd" fill-opacity="1" /><path clip-path="url(#clip080)" d="M202.084 1373.06 Q198.473 1373.06 196.644 1376.63 Q194.838 1380.17 194.838 1387.3 Q194.838 1394.4 196.644 1397.97 Q198.473 1401.51 202.084 1401.51 Q205.718 1401.51 207.524 1397.97 Q209.352 1394.4 209.352 1387.3 Q209.352 1380.17 207.524 1376.63 Q205.718 1373.06 202.084 1373.06 M202.084 1369.36 Q207.894 1369.36 210.949 1373.96 Q214.028 1378.55 214.028 1387.3 Q214.028 1396.02 210.949 1400.63 Q207.894 1405.21 202.084 1405.21 Q196.274 1405.21 193.195 1400.63 Q190.139 1396.02 190.139 1387.3 Q190.139 1378.55 193.195 1373.96 Q196.274 1369.36 202.084 1369.36 Z" fill="#000000" fill-rule="evenodd" fill-opacity="1" /><path clip-path="url(#clip080)" d="M128.288 1092.2 Q124.677 1092.2 122.848 1095.76 Q121.043 1099.31 121.043 1106.44 Q121.043 1113.54 122.848 1117.11 Q124.677 1120.65 128.288 1120.65 Q131.922 1120.65 133.728 1117.11 Q135.556 1113.54 135.556 1106.44 Q135.556 1099.31 133.728 1095.76 Q131.922 1092.2 128.288 1092.2 M128.288 1088.5 Q134.098 1088.5 137.154 1093.1 Q140.232 1097.69 140.232 1106.44 Q140.232 1115.16 137.154 1119.77 Q134.098 1124.35 128.288 1124.35 Q122.478 1124.35 119.399 1119.77 Q116.343 1115.16 116.343 1106.44 Q116.343 1097.69 119.399 1093.1 Q122.478 1088.5 128.288 1088.5 Z" fill="#000000" fill-rule="evenodd" fill-opacity="1" /><path clip-path="url(#clip080)" d="M148.45 1117.8 L153.334 1117.8 L153.334 1123.68 L148.45 1123.68 L148.45 1117.8 Z" fill="#000000" fill-rule="evenodd" fill-opacity="1" /><path clip-path="url(#clip080)" d="M173.519 1092.2 Q169.908 1092.2 168.079 1095.76 Q166.274 1099.31 166.274 1106.44 Q166.274 1113.54 168.079 1117.11 Q169.908 1120.65 173.519 1120.65 Q177.153 1120.65 178.959 1117.11 Q180.788 1113.54 180.788 1106.44 Q180.788 1099.31 178.959 1095.76 Q177.153 1092.2 173.519 1092.2 M173.519 1088.5 Q179.329 1088.5 182.385 1093.1 Q185.463 1097.69 185.463 1106.44 Q185.463 1115.16 182.385 1119.77 Q179.329 1124.35 173.519 1124.35 Q167.709 1124.35 164.63 1119.77 Q161.575 1115.16 161.575 1106.44 Q161.575 1097.69 164.63 1093.1 Q167.709 1088.5 173.519 1088.5 Z" fill="#000000" fill-rule="evenodd" fill-opacity="1" /><path clip-path="url(#clip080)" d="M197.709 1119.75 L214.028 1119.75 L214.028 1123.68 L192.084 1123.68 L192.084 1119.75 Q194.746 1116.99 199.329 1112.36 Q203.936 1107.71 205.116 1106.37 Q207.362 1103.84 208.241 1102.11 Q209.144 1100.35 209.144 1098.66 Q209.144 1095.9 207.199 1094.17 Q205.278 1092.43 202.176 1092.43 Q199.977 1092.43 197.524 1093.2 Q195.093 1093.96 192.315 1095.51 L192.315 1090.79 Q195.139 1089.65 197.593 1089.07 Q200.047 1088.5 202.084 1088.5 Q207.454 1088.5 210.649 1091.18 Q213.843 1093.87 213.843 1098.36 Q213.843 1100.49 213.033 1102.41 Q212.246 1104.31 210.139 1106.9 Q209.561 1107.57 206.459 1110.79 Q203.357 1113.98 197.709 1119.75 Z" fill="#000000" fill-rule="evenodd" fill-opacity="1" /><path clip-path="url(#clip080)" d="M126.205 811.339 Q122.593 811.339 120.765 814.904 Q118.959 818.445 118.959 825.575 Q118.959 832.682 120.765 836.246 Q122.593 839.788 126.205 839.788 Q129.839 839.788 131.644 836.246 Q133.473 832.682 133.473 825.575 Q133.473 818.445 131.644 814.904 Q129.839 811.339 126.205 811.339 M126.205 807.635 Q132.015 807.635 135.07 812.242 Q138.149 816.825 138.149 825.575 Q138.149 834.302 135.07 838.908 Q132.015 843.492 126.205 843.492 Q120.394 843.492 117.316 838.908 Q114.26 834.302 114.26 825.575 Q114.26 816.825 117.316 812.242 Q120.394 807.635 126.205 807.635 Z" fill="#000000" fill-rule="evenodd" fill-opacity="1" /><path clip-path="url(#clip080)" d="M146.366 836.941 L151.251 836.941 L151.251 842.82 L146.366 842.82 L146.366 836.941 Z" fill="#000000" fill-rule="evenodd" fill-opacity="1" /><path clip-path="url(#clip080)" d="M171.436 811.339 Q167.825 811.339 165.996 814.904 Q164.19 818.445 164.19 825.575 Q164.19 832.682 165.996 836.246 Q167.825 839.788 171.436 839.788 Q175.07 839.788 176.876 836.246 Q178.704 832.682 178.704 825.575 Q178.704 818.445 176.876 814.904 Q175.07 811.339 171.436 811.339 M171.436 807.635 Q177.246 807.635 180.301 812.242 Q183.38 816.825 183.38 825.575 Q183.38 834.302 180.301 838.908 Q177.246 843.492 171.436 843.492 Q165.626 843.492 162.547 838.908 Q159.491 834.302 159.491 825.575 Q159.491 816.825 162.547 812.242 Q165.626 807.635 171.436 807.635 Z" fill="#000000" fill-rule="evenodd" fill-opacity="1" /><path clip-path="url(#clip080)" d="M204.445 812.334 L192.639 830.783 L204.445 830.783 L204.445 812.334 M203.218 808.26 L209.098 808.26 L209.098 830.783 L214.028 830.783 L214.028 834.672 L209.098 834.672 L209.098 842.82 L204.445 842.82 L204.445 834.672 L188.843 834.672 L188.843 830.158 L203.218 808.26 Z" fill="#000000" fill-rule="evenodd" fill-opacity="1" /><path clip-path="url(#clip080)" d="M126.529 530.478 Q122.918 530.478 121.089 534.043 Q119.283 537.585 119.283 544.714 Q119.283 551.821 121.089 555.386 Q122.918 558.927 126.529 558.927 Q130.163 558.927 131.968 555.386 Q133.797 551.821 133.797 544.714 Q133.797 537.585 131.968 534.043 Q130.163 530.478 126.529 530.478 M126.529 526.775 Q132.339 526.775 135.394 531.381 Q138.473 535.964 138.473 544.714 Q138.473 553.441 135.394 558.048 Q132.339 562.631 126.529 562.631 Q120.718 562.631 117.64 558.048 Q114.584 553.441 114.584 544.714 Q114.584 535.964 117.64 531.381 Q120.718 526.775 126.529 526.775 Z" fill="#000000" fill-rule="evenodd" fill-opacity="1" /><path clip-path="url(#clip080)" d="M146.691 556.08 L151.575 556.08 L151.575 561.96 L146.691 561.96 L146.691 556.08 Z" fill="#000000" fill-rule="evenodd" fill-opacity="1" /><path clip-path="url(#clip080)" d="M171.76 530.478 Q168.149 530.478 166.32 534.043 Q164.515 537.585 164.515 544.714 Q164.515 551.821 166.32 555.386 Q168.149 558.927 171.76 558.927 Q175.394 558.927 177.2 555.386 Q179.028 551.821 179.028 544.714 Q179.028 537.585 177.2 534.043 Q175.394 530.478 171.76 530.478 M171.76 526.775 Q177.57 526.775 180.626 531.381 Q183.704 535.964 183.704 544.714 Q183.704 553.441 180.626 558.048 Q177.57 562.631 171.76 562.631 Q165.95 562.631 162.871 558.048 Q159.815 553.441 159.815 544.714 Q159.815 535.964 162.871 531.381 Q165.95 526.775 171.76 526.775 Z" fill="#000000" fill-rule="evenodd" fill-opacity="1" /><path clip-path="url(#clip080)" d="M202.5 542.816 Q199.352 542.816 197.5 544.969 Q195.672 547.122 195.672 550.872 Q195.672 554.599 197.5 556.774 Q199.352 558.927 202.5 558.927 Q205.649 558.927 207.477 556.774 Q209.329 554.599 209.329 550.872 Q209.329 547.122 207.477 544.969 Q205.649 542.816 202.5 542.816 M211.783 528.163 L211.783 532.423 Q210.024 531.589 208.218 531.15 Q206.436 530.71 204.676 530.71 Q200.047 530.71 197.593 533.835 Q195.163 536.96 194.815 543.279 Q196.181 541.265 198.241 540.2 Q200.301 539.112 202.778 539.112 Q207.987 539.112 210.996 542.284 Q214.028 545.432 214.028 550.872 Q214.028 556.196 210.88 559.413 Q207.732 562.631 202.5 562.631 Q196.505 562.631 193.334 558.048 Q190.163 553.441 190.163 544.714 Q190.163 536.52 194.051 531.659 Q197.94 526.775 204.491 526.775 Q206.25 526.775 208.033 527.122 Q209.838 527.469 211.783 528.163 Z" fill="#000000" fill-rule="evenodd" fill-opacity="1" /><path clip-path="url(#clip080)" d="M126.783 249.618 Q123.172 249.618 121.343 253.182 Q119.538 256.724 119.538 263.854 Q119.538 270.96 121.343 274.525 Q123.172 278.066 126.783 278.066 Q130.417 278.066 132.223 274.525 Q134.052 270.96 134.052 263.854 Q134.052 256.724 132.223 253.182 Q130.417 249.618 126.783 249.618 M126.783 245.914 Q132.593 245.914 135.649 250.52 Q138.728 255.104 138.728 263.854 Q138.728 272.58 135.649 277.187 Q132.593 281.77 126.783 281.77 Q120.973 281.77 117.894 277.187 Q114.839 272.58 114.839 263.854 Q114.839 255.104 117.894 250.52 Q120.973 245.914 126.783 245.914 Z" fill="#000000" fill-rule="evenodd" fill-opacity="1" /><path clip-path="url(#clip080)" d="M146.945 275.219 L151.829 275.219 L151.829 281.099 L146.945 281.099 L146.945 275.219 Z" fill="#000000" fill-rule="evenodd" fill-opacity="1" /><path clip-path="url(#clip080)" d="M172.014 249.618 Q168.403 249.618 166.575 253.182 Q164.769 256.724 164.769 263.854 Q164.769 270.96 166.575 274.525 Q168.403 278.066 172.014 278.066 Q175.649 278.066 177.454 274.525 Q179.283 270.96 179.283 263.854 Q179.283 256.724 177.454 253.182 Q175.649 249.618 172.014 249.618 M172.014 245.914 Q177.825 245.914 180.88 250.52 Q183.959 255.104 183.959 263.854 Q183.959 272.58 180.88 277.187 Q177.825 281.77 172.014 281.77 Q166.204 281.77 163.126 277.187 Q160.07 272.58 160.07 263.854 Q160.07 255.104 163.126 250.52 Q166.204 245.914 172.014 245.914 Z" fill="#000000" fill-rule="evenodd" fill-opacity="1" /><path clip-path="url(#clip080)" d="M202.176 264.687 Q198.843 264.687 196.922 266.469 Q195.024 268.252 195.024 271.377 Q195.024 274.502 196.922 276.284 Q198.843 278.066 202.176 278.066 Q205.51 278.066 207.431 276.284 Q209.352 274.478 209.352 271.377 Q209.352 268.252 207.431 266.469 Q205.533 264.687 202.176 264.687 M197.5 262.696 Q194.491 261.955 192.801 259.895 Q191.135 257.835 191.135 254.872 Q191.135 250.729 194.075 248.321 Q197.037 245.914 202.176 245.914 Q207.338 245.914 210.278 248.321 Q213.218 250.729 213.218 254.872 Q213.218 257.835 211.528 259.895 Q209.861 261.955 206.875 262.696 Q210.255 263.483 212.13 265.775 Q214.028 268.066 214.028 271.377 Q214.028 276.4 210.949 279.085 Q207.894 281.77 202.176 281.77 Q196.459 281.77 193.38 279.085 Q190.325 276.4 190.325 271.377 Q190.325 268.066 192.223 265.775 Q194.121 263.483 197.5 262.696 M195.787 255.312 Q195.787 257.997 197.454 259.502 Q199.144 261.006 202.176 261.006 Q205.186 261.006 206.875 259.502 Q208.588 257.997 208.588 255.312 Q208.588 252.627 206.875 251.122 Q205.186 249.618 202.176 249.618 Q199.144 249.618 197.454 251.122 Q195.787 252.627 195.787 255.312 Z" fill="#000000" fill-rule="evenodd" fill-opacity="1" /><path clip-path="url(#clip080)" d="M24.8606 806.044 Q26.2777 806.044 27.3404 807.204 Q28.371 808.331 28.371 809.555 Q28.371 810.682 27.6947 811.391 Q26.9862 812.067 25.9878 812.067 Q24.6674 812.067 23.5724 810.94 Q22.4774 809.812 22.4774 808.492 Q22.4774 807.397 23.1537 806.721 Q23.83 806.044 24.8606 806.044 M56.6478 805.465 Q56.9054 805.465 57.936 805.755 Q58.9344 806.044 60.4803 806.753 Q61.994 807.429 63.411 808.363 Q64.8281 809.297 65.8264 810.843 Q66.8248 812.357 66.8248 814.096 Q66.8248 816.447 65.2789 817.993 Q63.7331 819.506 61.4142 819.506 Q60.1582 819.506 56.1325 817.993 Q44.4096 813.613 43.9265 813.452 Q42.0907 812.711 40.4804 812.711 Q39.7397 812.711 39.2888 812.872 Q38.8057 813.033 38.6447 813.355 Q38.4515 813.677 38.4193 813.87 Q38.3871 814.031 38.3871 814.354 Q38.3871 816.254 40.3194 818.025 Q42.2518 819.796 46.5673 821.02 Q47.3725 821.278 47.5657 821.439 Q47.759 821.6 47.759 822.083 Q47.7268 822.888 47.0826 822.888 Q46.8894 822.888 46.1487 822.663 Q45.3757 822.437 44.2163 822.018 Q43.0247 821.6 41.8009 820.859 Q40.5448 820.118 39.4498 819.217 Q38.3548 818.283 37.6463 816.962 Q36.9378 815.642 36.9378 814.16 Q36.9378 811.745 38.5159 810.263 Q40.0618 808.75 42.3484 808.75 Q43.6044 808.75 45.8266 809.619 Q48.7251 810.682 49.6591 811.069 L56.5834 813.645 Q59.0954 814.579 59.8684 814.869 Q60.6091 815.126 61.5109 815.352 Q62.3804 815.545 63.1856 815.545 Q64.3128 815.545 64.8281 815.191 Q65.3434 814.804 65.3434 813.967 Q65.3434 811.648 63.0567 809.941 Q60.7379 808.234 57.1953 807.236 Q57.0987 807.204 56.9376 807.172 Q56.1325 806.914 56.0359 806.656 Q56.0037 806.527 56.0037 806.27 Q56.0037 805.465 56.6478 805.465 Z" fill="#000000" fill-rule="evenodd" fill-opacity="1" /><path clip-path="url(#clip080)" d="M49.5947 794.824 Q38.4515 794.824 29.466 790.669 Q25.6979 788.898 22.5418 786.418 Q19.3856 783.938 18.0007 782.296 Q16.6159 780.653 16.6159 780.202 Q16.6159 779.558 17.26 779.526 Q17.5821 779.526 18.3872 780.395 Q29.2084 791.023 49.5947 790.991 Q70.0454 790.991 80.4479 780.653 Q81.5751 779.526 81.9294 779.526 Q82.5735 779.526 82.5735 780.202 Q82.5735 780.653 81.2531 782.231 Q79.9326 783.809 76.9053 786.257 Q73.8779 788.705 70.1742 790.476 Q61.1888 794.824 49.5947 794.824 Z" fill="#000000" fill-rule="evenodd" fill-opacity="1" /><path clip-path="url(#clip080)" d="M38.3871 754.255 Q39.2888 754.255 39.5143 754.673 Q39.7075 755.092 39.7075 756.252 L39.7075 762.435 L59.1598 767.33 Q60.8667 767.717 62.316 767.717 Q63.9263 767.717 64.6348 767.234 Q65.3434 766.718 65.3434 765.656 Q65.3434 763.562 63.4432 761.308 Q61.5431 759.021 56.9054 757.089 Q56.2935 756.831 56.1647 756.702 Q56.0037 756.541 56.0037 756.123 Q56.0037 755.318 56.6478 755.318 Q56.8732 755.318 57.9038 755.768 Q58.9344 756.187 60.4481 757.121 Q61.9617 758.023 63.3788 759.215 Q64.7959 760.374 65.8264 762.145 Q66.8248 763.917 66.8248 765.817 Q66.8248 768.49 65.1179 770.197 Q63.411 771.871 60.7379 771.871 Q59.8684 771.871 57.0987 771.195 Q54.2967 770.519 39.7075 766.847 L39.7075 772.677 Q39.7075 773.482 39.6753 773.804 Q39.6431 774.094 39.4821 774.319 Q39.2888 774.512 38.9023 774.512 Q38.2904 774.512 38.0328 774.255 Q37.7429 773.997 37.7107 773.675 Q37.6463 773.321 37.6463 772.516 L37.6463 766.332 L27.1794 763.756 Q26.1488 763.498 25.5691 762.854 Q24.9572 762.177 24.8928 761.791 Q24.7962 761.405 24.7962 761.115 Q24.7962 760.245 25.2793 759.73 Q25.7302 759.215 26.5675 759.215 Q27.0184 759.215 37.6463 761.92 L37.6463 756.123 Q37.6463 755.382 37.6785 755.092 Q37.7107 754.77 37.8718 754.512 Q38.0328 754.255 38.3871 754.255 Z" fill="#000000" fill-rule="evenodd" fill-opacity="1" /><path clip-path="url(#clip080)" d="M81.9294 749.091 Q81.6073 749.091 80.8022 748.254 Q69.981 737.626 49.5947 737.626 Q29.144 737.626 18.8059 747.835 Q17.6143 749.091 17.26 749.091 Q16.6159 749.091 16.6159 748.447 Q16.6159 747.996 17.9363 746.418 Q19.2568 744.808 22.2841 742.393 Q25.3115 739.945 29.0151 738.141 Q38.0006 733.794 49.5947 733.794 Q60.7379 733.794 69.7234 737.948 Q73.4914 739.719 76.6476 742.199 Q79.8038 744.679 81.1886 746.322 Q82.5735 747.964 82.5735 748.447 Q82.5735 749.091 81.9294 749.091 Z" fill="#000000" fill-rule="evenodd" fill-opacity="1" /><path clip-path="url(#clip080)" d="M871.976 12.096 L882.994 12.096 L909.811 62.6918 L909.811 12.096 L917.751 12.096 L917.751 72.576 L906.733 72.576 L879.916 21.9802 L879.916 72.576 L871.976 72.576 L871.976 12.096 Z" fill="#000000" fill-rule="evenodd" fill-opacity="1" /><path clip-path="url(#clip080)" d="M932.942 54.671 L932.942 27.2059 L940.396 27.2059 L940.396 54.3874 Q940.396 60.8284 942.907 64.0691 Q945.419 67.2693 950.442 67.2693 Q956.478 67.2693 959.962 63.421 Q963.486 59.5726 963.486 52.9291 L963.486 27.2059 L970.94 27.2059 L970.94 72.576 L963.486 72.576 L963.486 65.6084 Q960.772 69.7404 957.166 71.7658 Q953.602 73.7508 948.862 73.7508 Q941.044 73.7508 936.993 68.8897 Q932.942 64.0286 932.942 54.671 M951.698 26.1121 L951.698 26.1121 Z" fill="#000000" fill-rule="evenodd" fill-opacity="1" /><path clip-path="url(#clip080)" d="M1021.62 35.9153 Q1024.41 30.8922 1028.3 28.5022 Q1032.19 26.1121 1037.46 26.1121 Q1044.54 26.1121 1048.39 31.0947 Q1052.24 36.0368 1052.24 45.1919 L1052.24 72.576 L1044.75 72.576 L1044.75 45.4349 Q1044.75 38.913 1042.44 35.7533 Q1040.13 32.5936 1035.39 32.5936 Q1029.6 32.5936 1026.23 36.4419 Q1022.87 40.2903 1022.87 46.9338 L1022.87 72.576 L1015.38 72.576 L1015.38 45.4349 Q1015.38 38.8725 1013.07 35.7533 Q1010.76 32.5936 1005.94 32.5936 Q1000.23 32.5936 996.865 36.4824 Q993.503 40.3308 993.503 46.9338 L993.503 72.576 L986.009 72.576 L986.009 27.2059 L993.503 27.2059 L993.503 34.2544 Q996.055 30.082 999.62 28.0971 Q1003.18 26.1121 1008.09 26.1121 Q1013.03 26.1121 1016.47 28.6237 Q1019.96 31.1352 1021.62 35.9153 Z" fill="#000000" fill-rule="evenodd" fill-opacity="1" /><path clip-path="url(#clip080)" d="M1099.68 49.9314 Q1099.68 41.7081 1096.27 37.0496 Q1092.91 32.3505 1087 32.3505 Q1081.08 32.3505 1077.68 37.0496 Q1074.32 41.7081 1074.32 49.9314 Q1074.32 58.1548 1077.68 62.8538 Q1081.08 67.5124 1087 67.5124 Q1092.91 67.5124 1096.27 62.8538 Q1099.68 58.1548 1099.68 49.9314 M1074.32 34.0924 Q1076.67 30.0415 1080.23 28.0971 Q1083.84 26.1121 1088.82 26.1121 Q1097.08 26.1121 1102.23 32.6746 Q1107.41 39.2371 1107.41 49.9314 Q1107.41 60.6258 1102.23 67.1883 Q1097.08 73.7508 1088.82 73.7508 Q1083.84 73.7508 1080.23 71.8063 Q1076.67 69.8214 1074.32 65.7705 L1074.32 72.576 L1066.82 72.576 L1066.82 9.54393 L1074.32 9.54393 L1074.32 34.0924 Z" fill="#000000" fill-rule="evenodd" fill-opacity="1" /><path clip-path="url(#clip080)" d="M1158.58 48.0275 L1158.58 51.6733 L1124.31 51.6733 Q1124.79 59.3701 1128.92 63.421 Q1133.1 67.4314 1140.51 67.4314 Q1144.8 67.4314 1148.81 66.3781 Q1152.87 65.3249 1156.84 63.2184 L1156.84 70.267 Q1152.83 71.9684 1148.61 72.8596 Q1144.4 73.7508 1140.06 73.7508 Q1129.21 73.7508 1122.85 67.4314 Q1116.53 61.1119 1116.53 50.3365 Q1116.53 39.1965 1122.52 32.6746 Q1128.56 26.1121 1138.77 26.1121 Q1147.92 26.1121 1153.23 32.0264 Q1158.58 37.9003 1158.58 48.0275 M1151.12 45.84 Q1151.04 39.7232 1147.68 36.0774 Q1144.36 32.4315 1138.85 32.4315 Q1132.61 32.4315 1128.84 35.9558 Q1125.12 39.4801 1124.55 45.8805 L1151.12 45.84 Z" fill="#000000" fill-rule="evenodd" fill-opacity="1" /><path clip-path="url(#clip080)" d="M1197.1 34.1734 Q1195.85 33.4443 1194.35 33.1202 Q1192.89 32.7556 1191.11 32.7556 Q1184.79 32.7556 1181.38 36.8875 Q1178.02 40.9789 1178.02 48.6757 L1178.02 72.576 L1170.53 72.576 L1170.53 27.2059 L1178.02 27.2059 L1178.02 34.2544 Q1180.37 30.1225 1184.14 28.1376 Q1187.91 26.1121 1193.29 26.1121 Q1194.06 26.1121 1195 26.2337 Q1195.93 26.3147 1197.06 26.5172 L1197.1 34.1734 Z" fill="#000000" fill-rule="evenodd" fill-opacity="1" /><path clip-path="url(#clip080)" d="M1248.87 32.4315 Q1242.88 32.4315 1239.39 37.1306 Q1235.91 41.7891 1235.91 49.9314 Q1235.91 58.0738 1239.35 62.7728 Q1242.84 67.4314 1248.87 67.4314 Q1254.83 67.4314 1258.31 62.7323 Q1261.79 58.0333 1261.79 49.9314 Q1261.79 41.8701 1258.31 37.1711 Q1254.83 32.4315 1248.87 32.4315 M1248.87 26.1121 Q1258.59 26.1121 1264.14 32.4315 Q1269.69 38.7509 1269.69 49.9314 Q1269.69 61.0714 1264.14 67.4314 Q1258.59 73.7508 1248.87 73.7508 Q1239.11 73.7508 1233.56 67.4314 Q1228.05 61.0714 1228.05 49.9314 Q1228.05 38.7509 1233.56 32.4315 Q1239.11 26.1121 1248.87 26.1121 Z" fill="#000000" fill-rule="evenodd" fill-opacity="1" /><path clip-path="url(#clip080)" d="M1305.02 9.54393 L1305.02 15.7418 L1297.89 15.7418 Q1293.88 15.7418 1292.3 17.3622 Q1290.76 18.9825 1290.76 23.1955 L1290.76 27.2059 L1303.03 27.2059 L1303.03 32.9987 L1290.76 32.9987 L1290.76 72.576 L1283.26 72.576 L1283.26 32.9987 L1276.13 32.9987 L1276.13 27.2059 L1283.26 27.2059 L1283.26 24.0462 Q1283.26 16.471 1286.79 13.0277 Q1290.31 9.54393 1297.97 9.54393 L1305.02 9.54393 Z" fill="#000000" fill-rule="evenodd" fill-opacity="1" /><path clip-path="url(#clip080)" d="M1337.95 12.096 L1346.13 12.096 L1346.13 72.576 L1337.95 72.576 L1337.95 12.096 Z" fill="#000000" fill-rule="evenodd" fill-opacity="1" /><path clip-path="url(#clip080)" d="M1399.81 45.1919 L1399.81 72.576 L1392.36 72.576 L1392.36 45.4349 Q1392.36 38.994 1389.84 35.7938 Q1387.33 32.5936 1382.31 32.5936 Q1376.27 32.5936 1372.79 36.4419 Q1369.31 40.2903 1369.31 46.9338 L1369.31 72.576 L1361.81 72.576 L1361.81 27.2059 L1369.31 27.2059 L1369.31 34.2544 Q1371.98 30.163 1375.58 28.1376 Q1379.23 26.1121 1383.97 26.1121 Q1391.79 26.1121 1395.8 30.9732 Q1399.81 35.7938 1399.81 45.1919 Z" fill="#000000" fill-rule="evenodd" fill-opacity="1" /><path clip-path="url(#clip080)" d="M1437.64 9.54393 L1437.64 15.7418 L1430.51 15.7418 Q1426.5 15.7418 1424.92 17.3622 Q1423.39 18.9825 1423.39 23.1955 L1423.39 27.2059 L1435.66 27.2059 L1435.66 32.9987 L1423.39 32.9987 L1423.39 72.576 L1415.89 72.576 L1415.89 32.9987 L1408.76 32.9987 L1408.76 27.2059 L1415.89 27.2059 L1415.89 24.0462 Q1415.89 16.471 1419.42 13.0277 Q1422.94 9.54393 1430.6 9.54393 L1437.64 9.54393 Z" fill="#000000" fill-rule="evenodd" fill-opacity="1" /><path clip-path="url(#clip080)" d="M1482.69 48.0275 L1482.69 51.6733 L1448.42 51.6733 Q1448.91 59.3701 1453.04 63.421 Q1457.21 67.4314 1464.62 67.4314 Q1468.92 67.4314 1472.93 66.3781 Q1476.98 65.3249 1480.95 63.2184 L1480.95 70.267 Q1476.94 71.9684 1472.73 72.8596 Q1468.51 73.7508 1464.18 73.7508 Q1453.32 73.7508 1446.96 67.4314 Q1440.64 61.1119 1440.64 50.3365 Q1440.64 39.1965 1446.64 32.6746 Q1452.67 26.1121 1462.88 26.1121 Q1472.04 26.1121 1477.34 32.0264 Q1482.69 37.9003 1482.69 48.0275 M1475.24 45.84 Q1475.16 39.7232 1471.79 36.0774 Q1468.47 32.4315 1462.96 32.4315 Q1456.72 32.4315 1452.96 35.9558 Q1449.23 39.4801 1448.66 45.8805 L1475.24 45.84 Z" fill="#000000" fill-rule="evenodd" fill-opacity="1" /><path clip-path="url(#clip080)" d="M1527.57 28.9478 L1527.57 35.9153 Q1524.41 34.1734 1521.21 33.3227 Q1518.05 32.4315 1514.81 32.4315 Q1507.56 32.4315 1503.55 37.0496 Q1499.54 41.6271 1499.54 49.9314 Q1499.54 58.2358 1503.55 62.8538 Q1507.56 67.4314 1514.81 67.4314 Q1518.05 67.4314 1521.21 66.5807 Q1524.41 65.6895 1527.57 63.9476 L1527.57 70.8341 Q1524.46 72.2924 1521.09 73.0216 Q1517.77 73.7508 1514 73.7508 Q1503.75 73.7508 1497.72 67.3098 Q1491.68 60.8689 1491.68 49.9314 Q1491.68 38.832 1497.76 32.472 Q1503.88 26.1121 1514.49 26.1121 Q1517.93 26.1121 1521.21 26.8413 Q1524.5 27.5299 1527.57 28.9478 Z" fill="#000000" fill-rule="evenodd" fill-opacity="1" /><path clip-path="url(#clip080)" d="M1547.91 14.324 L1547.91 27.2059 L1563.26 27.2059 L1563.26 32.9987 L1547.91 32.9987 L1547.91 57.6282 Q1547.91 63.1779 1549.41 64.7578 Q1550.95 66.3376 1555.61 66.3376 L1563.26 66.3376 L1563.26 72.576 L1555.61 72.576 Q1546.98 72.576 1543.7 69.3758 Q1540.42 66.1351 1540.42 57.6282 L1540.42 32.9987 L1534.95 32.9987 L1534.95 27.2059 L1540.42 27.2059 L1540.42 14.324 L1547.91 14.324 Z" fill="#000000" fill-rule="evenodd" fill-opacity="1" /><path clip-path="url(#clip080)" d="M1573.07 27.2059 L1580.52 27.2059 L1580.52 72.576 L1573.07 72.576 L1573.07 27.2059 M1573.07 9.54393 L1580.52 9.54393 L1580.52 18.9825 L1573.07 18.9825 L1573.07 9.54393 Z" fill="#000000" fill-rule="evenodd" fill-opacity="1" /><path clip-path="url(#clip080)" d="M1613.7 32.4315 Q1607.7 32.4315 1604.22 37.1306 Q1600.73 41.7891 1600.73 49.9314 Q1600.73 58.0738 1604.18 62.7728 Q1607.66 67.4314 1613.7 67.4314 Q1619.65 67.4314 1623.14 62.7323 Q1626.62 58.0333 1626.62 49.9314 Q1626.62 41.8701 1623.14 37.1711 Q1619.65 32.4315 1613.7 32.4315 M1613.7 26.1121 Q1623.42 26.1121 1628.97 32.4315 Q1634.52 38.7509 1634.52 49.9314 Q1634.52 61.0714 1628.97 67.4314 Q1623.42 73.7508 1613.7 73.7508 Q1603.93 73.7508 1598.38 67.4314 Q1592.87 61.0714 1592.87 49.9314 Q1592.87 38.7509 1598.38 32.4315 Q1603.93 26.1121 1613.7 26.1121 Z" fill="#000000" fill-rule="evenodd" fill-opacity="1" /><path clip-path="url(#clip080)" d="M1684.59 45.1919 L1684.59 72.576 L1677.13 72.576 L1677.13 45.4349 Q1677.13 38.994 1674.62 35.7938 Q1672.11 32.5936 1667.09 32.5936 Q1661.05 32.5936 1657.57 36.4419 Q1654.08 40.2903 1654.08 46.9338 L1654.08 72.576 L1646.59 72.576 L1646.59 27.2059 L1654.08 27.2059 L1654.08 34.2544 Q1656.76 30.163 1660.36 28.1376 Q1664.01 26.1121 1668.75 26.1121 Q1676.57 26.1121 1680.58 30.9732 Q1684.59 35.7938 1684.59 45.1919 Z" fill="#000000" fill-rule="evenodd" fill-opacity="1" /><path clip-path="url(#clip080)" d="M1728.38 28.5427 L1728.38 35.5912 Q1725.22 33.9709 1721.82 33.1607 Q1718.41 32.3505 1714.77 32.3505 Q1709.22 32.3505 1706.42 34.0519 Q1703.67 35.7533 1703.67 39.156 Q1703.67 41.7486 1705.65 43.2475 Q1707.64 44.7058 1713.63 46.0426 L1716.18 46.6097 Q1724.12 48.3111 1727.45 51.4303 Q1730.81 54.509 1730.81 60.0587 Q1730.81 66.3781 1725.79 70.0644 Q1720.8 73.7508 1712.05 73.7508 Q1708.41 73.7508 1704.44 73.0216 Q1700.51 72.3329 1696.13 70.9151 L1696.13 63.2184 Q1700.26 65.3654 1704.27 66.4591 Q1708.29 67.5124 1712.21 67.5124 Q1717.48 67.5124 1720.32 65.73 Q1723.15 63.9071 1723.15 60.6258 Q1723.15 57.5877 1721.09 55.9673 Q1719.06 54.3469 1712.13 52.8481 L1709.54 52.2405 Q1702.61 50.7821 1699.54 47.7845 Q1696.46 44.7463 1696.46 39.4801 Q1696.46 33.0797 1700.99 29.5959 Q1705.53 26.1121 1713.88 26.1121 Q1718.01 26.1121 1721.65 26.7198 Q1725.3 27.3274 1728.38 28.5427 Z" fill="#000000" fill-rule="evenodd" fill-opacity="1" /><polyline clip-path="url(#clip082)" style="stroke:#009af9; stroke-linecap:round; stroke-linejoin:round; stroke-width:4; stroke-opacity:1; fill:none" points="
  250.028,1386.2 250.085,1386.2 250.098,1386.2 250.113,1386.2 250.131,1386.2 250.15,1386.2 250.172,1386.2 250.196,1386.2 250.223,1386.2 250.254,1386.2 
  250.289,1386.2 250.328,1386.2 250.372,1386.2 250.422,1386.2 250.477,1386.2 250.54,1386.2 250.61,1386.2 250.689,1386.2 250.779,1386.2 250.879,1386.2 
  250.992,1386.21 251.119,1386.21 251.261,1386.21 251.422,1386.21 251.603,1386.21 251.805,1386.21 252.026,1386.21 252.267,1386.22 252.527,1386.22 252.804,1386.22 
  253.097,1386.22 253.404,1386.22 253.723,1386.23 254.055,1386.23 254.398,1386.23 254.752,1386.23 255.117,1386.23 255.492,1386.24 255.875,1386.24 256.265,1386.24 
  256.661,1386.24 257.061,1386.25 257.466,1386.25 257.879,1386.25 258.298,1386.25 258.721,1386.26 259.149,1386.26 259.583,1386.26 260.022,1386.26 260.467,1386.27 
  260.918,1386.27 261.374,1386.27 261.838,1386.27 262.312,1386.28 262.792,1386.28 263.277,1386.28 263.771,1386.28 264.272,1386.28 264.775,1386.29 265.288,1386.29 
  265.804,1386.29 266.324,1386.29 266.85,1386.29 267.381,1386.3 267.917,1386.3 268.46,1386.3 269.013,1386.3 269.575,1386.3 270.145,1386.3 270.727,1386.31 
  271.318,1386.31 271.916,1386.31 272.521,1386.31 273.135,1386.31 273.759,1386.31 274.396,1386.31 275.047,1386.32 275.706,1386.32 276.374,1386.32 277.049,1386.32 
  277.721,1386.32 278.396,1386.32 279.071,1386.32 279.749,1386.33 280.423,1386.33 281.101,1386.33 281.773,1386.33 282.451,1386.33 283.135,1386.33 283.818,1386.33 
  284.503,1386.34 285.186,1386.34 285.875,1386.34 286.576,1386.34 287.287,1386.34 288.005,1386.34 288.734,1386.34 289.476,1386.34 290.228,1386.34 290.995,1386.34 
  291.772,1386.34 292.554,1386.34 293.344,1386.35 294.139,1386.35 294.943,1386.35 295.756,1386.35 296.561,1386.35 297.375,1386.35 298.197,1386.35 299.013,1386.35 
  299.826,1386.35 300.635,1386.35 301.445,1386.35 302.249,1386.35 303.053,1386.35 303.872,1386.35 304.693,1386.35 305.494,1386.36 306.309,1386.36 307.132,1386.36 
  307.971,1386.36 308.823,1386.36 309.665,1386.36 310.506,1386.36 311.341,1386.36 312.169,1386.36 313,1386.36 313.83,1386.36 314.664,1386.36 315.494,1386.36 
  316.327,1386.36 317.157,1386.36 317.987,1386.36 318.808,1386.36 319.632,1386.36 320.468,1386.37 321.31,1386.37 322.149,1386.37 322.991,1386.37 323.853,1386.37 
  324.725,1386.37 325.609,1386.37 326.502,1386.37 327.407,1386.37 328.328,1386.37 329.272,1386.36 330.243,1386.36 331.232,1386.36 332.272,1386.36 333.347,1386.36 
  334.463,1386.36 335.637,1386.35 336.867,1386.35 338.138,1386.35 339.457,1386.34 340.819,1386.34 342.253,1386.33 343.784,1386.33 345.37,1386.32 347.079,1386.32 
  348.815,1386.31 350.592,1386.3 352.484,1386.29 354.592,1386.28 356.963,1386.26 359.623,1386.25 362.601,1386.23 365.952,1386.2 368.943,1386.19 371.91,1386.17 
  374.892,1386.15 378.096,1386.13 381.412,1386.1 384.878,1386.08 388.496,1386.05 392.093,1386.03 395.852,1385.99 400.07,1385.96 404.365,1385.92 408.739,1385.87 
  413.659,1385.82 419.195,1385.76 424.437,1385.7 429.595,1385.64 434.921,1385.58 440.913,1385.5 447.654,1385.42 453.174,1385.35 458.19,1385.3 462.59,1385.24 
  467.472,1385.18 472.419,1385.1 477.984,1385.01 483.763,1384.91 489.361,1384.82 495.268,1384.72 500.583,1384.61 506.563,1384.5 512.492,1384.38 517.922,1384.28 
  522.723,1384.21 526.852,1384.14 530.747,1384.08 534.602,1384.01 538.259,1383.94 541.959,1383.87 545.552,1383.8 549.302,1383.72 553.105,1383.64 556.665,1383.56 
  560.353,1383.48 564.07,1383.39 567.852,1383.29 571.932,1383.18 576.394,1383.05 581.3,1382.9 586.282,1382.74 591.886,1382.57 596.574,1382.41 601.848,1382.24 
  606.659,1382.08 611.526,1381.92 616.354,1381.76 620.831,1381.61 625.319,1381.44 630.109,1381.25 635.115,1381.05 640.046,1380.85 644.419,1380.68 648.928,1380.5 
  653.137,1380.3 657.872,1380.07 662.927,1379.79 668.413,1379.46 674.585,1379.06 681.528,1378.57 689.339,1378.01 696.589,1377.47 704.744,1376.77 713.127,1375.97 
  722.558,1374.89 729.151,1374.1 736.569,1373.11 743.918,1371.99 750.248,1371.08 757.371,1369.96 765.383,1368.72 774.397,1367.26 784.538,1365.46 795.946,1363.62 
  802.254,1362.49 809.35,1361.39 815.128,1360.5 820.227,1359.57 825.791,1358.4 832.05,1356.95 839.092,1354.95 847.014,1352.55 852.877,1350.71 859.474,1348.14 
  863.707,1346.23 867.622,1344.48 871.934,1342.55 876.785,1340.37 882.241,1337.85 888.205,1334.93 894.215,1331.94 900.978,1328.05 907.03,1324.23 913.31,1319.7 
  918.88,1314.99 923.588,1310.68 927.825,1306.73 932.021,1302.95 936.396,1299.31 941.318,1295.35 946.856,1290.79 953.085,1285.61 960.094,1279.6 967.978,1272.48 
  976.848,1263.79 986.743,1254.31 997.143,1245.31 1004.65,1239.03 1011.22,1233.66 1016.58,1229.48 1021.33,1225.36 1026.13,1221.09 1030.82,1216.31 1035.79,1211.04 
  1040.98,1205.23 1046.41,1198.43 1052.52,1188.86 1059.39,1176.67 1065.09,1165.8 1071.51,1153.16 1077.54,1140.82 1084.1,1127.23 1091.16,1114.16 1098.64,1100.55 
  1105.58,1089.88 1111.3,1082.14 1116.34,1074.61 1121.23,1066.27 1126.63,1056.53 1131.56,1046.51 1137.1,1034.72 1142.63,1022.77 1148.17,1009.02 1154.18,992.43 
  1160.19,974.495 1165.75,957.529 1171.62,940.797 1177.4,927.258 1182.89,914.161 1188.1,901.594 1193.53,890.566 1198.11,881.563 1202.49,871.351 1207.1,858.254 
  1211.93,843.511 1216.83,826.723 1221.65,811.511 1226.48,797.032 1231.26,782.197 1235.99,766.568 1240.7,751.463 1245.35,736.322 1249.96,721.24 1254.5,707.639 
  1258.98,694.36 1263.38,679.418 1267.75,663.145 1272.02,649.505 1276.26,637.324 1280.4,625.819 1284.46,611.817 1288.53,597.365 1292.5,583.075 1296.41,568.179 
  1300.25,552.229 1303.9,536.346 1307.4,521.271 1310.86,506.5 1314.2,491.125 1317.45,474.197 1320.44,460.903 1323.48,448.581 1326.6,434.375 1329.56,421.465 
  1332.49,408.785 1335.41,398.281 1338.36,388.536 1341.4,377.644 1344.37,368.149 1347.37,357.942 1350.36,347.999 1353.31,338.832 1356.29,330.547 1359.28,323.391 
  1362.29,317.106 1365.32,310.061 1368.34,302.795 1371.35,294.496 1374.3,286.902 1377.25,279.219 1380.18,271.651 1383.09,263.149 1385.93,255.713 1388.74,248.471 
  1391.56,241.853 1394.36,236.38 1397.18,232.43 1400.06,228.632 1402.93,224.463 1405.8,219.021 1408.61,214.122 1411.42,210.693 1414.26,208.031 1417.13,206.098 
  1420.01,203.275 1422.88,199.017 1425.69,194.488 1428.42,191.327 1431.18,187.801 1433.92,183.093 1436.54,179.426 1439.17,175.872 1441.79,172.384 1444.37,169.509 
  1446.95,165.958 1449.48,163.249 1451.97,161.624 1454.52,160.48 1457.06,160.256 1459.69,160.995 1462.32,162.987 1465.04,166.022 1467.81,170.733 1470.63,176.657 
  1473.46,183.094 1476.32,189.653 1479.2,196.356 1482.1,203.001 1485.07,210.405 1488.05,218.419 1491,227.098 1493.98,236.025 1496.93,245.146 1499.91,253.715 
  1502.92,262.284 1505.99,271.086 1509.1,278.225 1512.31,285.275 1515.53,291.897 1518.79,299.119 1522.08,306.648 1525.42,313.388 1528.76,319.48 1531.99,324.964 
  1535.18,331.145 1538.38,339.266 1541.74,349.008 1545.18,358.15 1548.67,366.247 1552.06,374.48 1555.47,383.133 1558.93,393.664 1562.55,404.695 1566.23,414.585 
  1569.84,423.433 1573.46,432.709 1576.92,443.221 1580.73,456.094 1584.58,469.18 1588.52,481.617 1592.51,494.363 1596.59,507.29 1600.67,521.367 1604.93,534.912 
  1609.23,547.861 1613.48,560.511 1617.76,573.257 1622.1,584.835 1626.21,595.404 1630.12,606.686 1634.2,618.543 1638.35,630.528 1642.57,643.054 1646.87,655.512 
  1651.21,668.09 1655.52,679.874 1659.88,691.593 1664.08,703.259 1668.44,715.471 1672.92,727.867 1677.29,739.575 1681.61,750.989 1685.84,761.966 1690.05,772.651 
  1694.24,783.457 1698.48,793.645 1702.56,803.069 1706.42,812.036 1710.16,820.772 1713.9,830.51 1718.11,841.466 1722.4,853.253 1727.21,866.065 1732.5,878.959 
  1737.26,890.117 1741.81,900.679 1746.34,911.582 1751.27,923.526 1756.44,936.693 1762.26,951.6 1768.64,967.134 1775.44,983.973 1782.68,1001.14 1789.93,1017.38 
  1797.92,1035.03 1806.62,1054.08 1814.02,1070.59 1819.39,1082.58 1824.19,1093.01 1828.5,1101.82 1832.85,1110.25 1837.34,1118.66 1842.04,1127.4 1846.31,1135.03 
  1850.67,1142.6 1855,1149.91 1859.44,1157.19 1863.81,1164.25 1868,1170.64 1872.42,1177.08 1877.18,1183.55 1882.53,1190.38 1888.56,1197.43 1895.34,1205.02 
  1902.32,1212.75 1910.17,1221.1 1919.01,1230.22 1928.95,1240.05 1937.67,1248.39 1946.4,1256.11 1956.21,1264.44 1966.98,1272.82 1977.41,1280.36 1989.14,1288.07 
  2002.35,1295.43 2012.49,1300.71 2020.66,1304.58 2027.58,1307.69 2033.67,1310.42 2040.06,1313.21 2046.37,1315.92 2053.42,1318.65 2059.1,1320.76 2064.36,1322.62 
  2069.31,1324.44 2074.65,1326.43 2080.67,1328.66 2087.43,1331.09 2095.04,1333.59 2101.9,1335.72 2108.36,1337.68 2115.1,1339.7 2122.68,1341.92 2131.21,1344.43 
  2140.8,1347.24 2147.23,1348.98 2154.46,1350.83 2162.13,1352.66 2170.75,1354.61 2180.46,1356.73 2186.8,1358.03 2193.93,1359.46 2200.73,1360.83 2205.89,1361.85 
  2210.7,1362.77 2215.18,1363.59 2219.57,1364.35 2223.98,1365.11 2228.19,1365.8 2232.31,1366.45 2236.32,1367.07 2240.38,1367.66 2244.75,1368.28 2248.92,1368.86 
  2253.25,1369.45 2257.36,1369.98 2261.55,1370.5 2265.99,1371.05 2270.36,1371.57 2274.43,1372.05 2278.47,1372.5 2282.25,1372.92 2286.06,1373.31 2290.35,1373.72 
  2295.16,1374.17 2300.2,1374.62 2305.87,1375.13 2310.76,1375.57 2314.76,1375.94 2318.48,1376.27 2321.85,1376.56 2324.95,1376.83 2327.76,1377.07 2330.45,1377.29 
  2333.13,1377.5 2335.73,1377.7 2338.33,1377.9 2341.05,1378.09 2343.75,1378.28 2346.5,1378.48 2349.18,1378.66 2351.86,1378.85 2352.76,1378.91 
  "/>
<polyline clip-path="url(#clip082)" style="stroke:#e26f46; stroke-linecap:round; stroke-linejoin:round; stroke-width:4; stroke-opacity:1; fill:none" points="
  250.028,1386.2 250.085,1386.2 250.098,1386.2 250.113,1386.2 250.131,1386.2 250.15,1386.2 250.172,1386.2 250.196,1386.2 250.223,1386.2 250.254,1386.2 
  250.289,1386.2 250.328,1386.2 250.372,1386.2 250.422,1386.2 250.477,1386.2 250.54,1386.2 250.61,1386.2 250.69,1386.2 250.779,1386.2 250.879,1386.2 
  250.992,1386.21 251.119,1386.21 251.262,1386.21 251.422,1386.21 251.603,1386.21 251.807,1386.21 252.032,1386.21 252.277,1386.21 252.54,1386.22 252.82,1386.22 
  253.115,1386.22 253.423,1386.22 253.744,1386.23 254.076,1386.23 254.417,1386.23 254.767,1386.23 255.123,1386.23 255.486,1386.24 255.856,1386.24 256.233,1386.24 
  256.616,1386.24 257.003,1386.25 257.391,1386.25 257.784,1386.25 258.182,1386.26 258.586,1386.26 258.997,1386.26 259.413,1386.26 259.832,1386.26 260.257,1386.27 
  260.688,1386.27 261.122,1386.27 261.561,1386.27 262.007,1386.28 262.458,1386.28 262.916,1386.28 263.379,1386.28 263.844,1386.29 264.312,1386.29 264.785,1386.29 
  265.263,1386.29 265.746,1386.29 266.234,1386.3 266.727,1386.3 267.228,1386.3 267.732,1386.3 268.243,1386.31 268.759,1386.31 269.278,1386.31 269.799,1386.31 
  270.317,1386.31 270.836,1386.32 271.358,1386.32 271.879,1386.32 272.398,1386.32 272.917,1386.32 273.436,1386.33 273.955,1386.33 274.474,1386.33 274.994,1386.33 
  275.515,1386.34 276.039,1386.34 276.565,1386.34 277.094,1386.34 277.628,1386.34 278.165,1386.35 278.703,1386.35 279.242,1386.35 279.786,1386.35 280.333,1386.35 
  280.884,1386.35 281.441,1386.36 282.006,1386.36 282.576,1386.36 283.154,1386.36 283.739,1386.36 284.33,1386.36 284.933,1386.37 285.544,1386.37 286.157,1386.37 
  286.773,1386.37 287.395,1386.37 288.025,1386.37 288.664,1386.37 289.307,1386.38 289.951,1386.38 290.591,1386.38 291.239,1386.38 291.893,1386.38 292.553,1386.38 
  293.222,1386.38 293.889,1386.39 294.563,1386.39 295.238,1386.39 295.917,1386.39 296.611,1386.39 297.318,1386.39 298.045,1386.39 298.789,1386.39 299.54,1386.39 
  300.303,1386.39 301.081,1386.39 301.868,1386.39 302.669,1386.39 303.48,1386.39 304.302,1386.39 305.127,1386.39 305.969,1386.4 306.822,1386.4 307.675,1386.4 
  308.538,1386.4 309.414,1386.4 310.307,1386.4 311.206,1386.4 312.146,1386.39 313.114,1386.39 314.123,1386.39 315.165,1386.39 316.223,1386.39 317.309,1386.39 
  318.454,1386.38 319.644,1386.38 320.884,1386.38 322.177,1386.38 323.528,1386.37 324.899,1386.37 326.368,1386.36 327.885,1386.36 329.482,1386.35 331.148,1386.34 
  332.975,1386.34 334.894,1386.33 336.881,1386.32 338.998,1386.31 341.166,1386.3 343.551,1386.28 346.025,1386.27 348.642,1386.25 351.291,1386.24 353.964,1386.22 
  356.906,1386.21 360.011,1386.18 363.199,1386.16 366.583,1386.14 370.39,1386.1 374.673,1386.07 378.735,1386.03 383.304,1385.99 388.035,1385.95 393.358,1385.89 
  399.345,1385.82 406.082,1385.73 413.66,1385.61 418.453,1385.54 423.845,1385.45 429.912,1385.34 436.25,1385.21 442.703,1385.08 449.854,1384.92 457.677,1384.73 
  466.478,1384.51 473.586,1384.32 481.583,1384.08 490.425,1383.78 496.921,1383.55 504.229,1383.31 512.451,1383.07 520.419,1382.84 525.843,1382.66 531.945,1382.46 
  537.855,1382.25 543.651,1382.07 548.971,1381.89 553.802,1381.73 558.773,1381.55 563.501,1381.38 568.339,1381.2 573.081,1381.02 577.564,1380.84 582,1380.64 
  586.992,1380.4 592.226,1380.15 597.301,1379.91 602.751,1379.63 607.886,1379.34 613.6,1379.01 619.232,1378.65 625.568,1378.2 632.146,1377.66 639.547,1376.99 
  645.973,1376.43 653.202,1375.78 658.738,1375.24 664.965,1374.56 671.971,1373.8 679.853,1372.82 688.72,1371.57 697.067,1370.06 702.294,1369.1 708.173,1367.91 
  713.886,1366.63 719.333,1365.34 724.486,1364.04 729.539,1362.72 734.643,1361.3 739.921,1359.76 745.057,1358.12 749.729,1356.56 754.633,1354.85 759.505,1353.01 
  764.129,1351.27 768.836,1349.45 774.133,1347.18 778.914,1344.99 783.675,1342.78 788.713,1340.35 793.631,1338.19 799.165,1335.64 805.39,1332.71 812.393,1329.43 
  820.271,1325.37 828.903,1320.05 836.74,1314.02 842.424,1309.58 848.546,1304.62 854.677,1299.8 861.574,1294.35 869.334,1286.85 875.332,1280.76 881.379,1274.69 
  888.182,1267.62 895.75,1259.1 904.264,1247.72 910.726,1238.45 917.767,1226.94 923.721,1216.39 929.376,1205.74 934.496,1195.43 939.525,1184.93 944.405,1173.58 
  948.816,1162.09 952.822,1150.49 956.4,1139.89 959.736,1130.07 963.122,1120.02 966.43,1109.99 969.741,1100.28 973.196,1091.32 977.083,1081.67 981.456,1071.22 
  986.338,1060.84 991.524,1050.43 996.358,1040.31 1001.48,1028.74 1006.66,1015.71 1012.34,1001.4 1018.1,986.503 1023.91,973.043 1029.33,961.007 1034.46,949.572 
  1039.42,939.521 1044.08,931.909 1048.06,924.927 1051.94,916.908 1055.93,907.661 1060.06,897.473 1064.37,886.702 1068.58,875.806 1073.03,862.564 1077.61,847.82 
  1082.27,831.894 1086.95,814.019 1091.45,796.592 1095.9,779.092 1100.34,761.237 1104.6,743.766 1108.93,726.215 1113.05,709.128 1117.21,691.898 1121.29,673.509 
  1125.21,657.271 1129.16,642.532 1133.11,630.689 1136.99,619.897 1140.8,609.551 1144.46,598.877 1148.15,586.555 1151.91,574.032 1155.62,563.991 1159.27,553.823 
  1162.81,541.872 1166.46,529.342 1170.04,516.74 1173.61,503.839 1177.12,491.827 1180.63,479.464 1184.09,468.806 1187.55,458.858 1190.97,449.937 1194.37,441.472 
  1197.74,433.607 1201.06,424.731 1204.4,413.597 1207.7,402.826 1210.95,392.821 1214.2,384.566 1217.45,375.934 1220.68,366.827 1223.89,356.68 1227.03,347.538 
  1230.17,340.185 1233.33,332.648 1236.47,326.19 1239.6,319.97 1242.73,315.134 1245.84,310.32 1248.94,306.662 1252.03,303.577 1255.1,300.637 1258.16,298.333 
  1261.19,295.787 1264.24,294.231 1267.25,293.237 1270.26,291.688 1273.26,290.321 1276.28,290.142 1279.28,291.664 1282.19,292.585 1285.09,293.332 1288.06,295.321 
  1290.92,297.84 1293.72,300.306 1296.53,304.183 1299.25,308.62 1301.89,313.008 1304.47,317.635 1307.02,321.418 1309.63,325.036 1312.27,329 1314.9,332.715 
  1317.56,335.68 1320.32,339.034 1323.12,342.057 1325.99,345.176 1328.92,347.827 1331.95,351.348 1334.96,355.219 1338.02,360.574 1340.97,365.615 1343.97,372.521 
  1346.87,380.393 1349.52,387.074 1352.23,393.899 1354.87,400.446 1357.53,407.049 1360.18,412.994 1362.92,419.284 1365.66,426.185 1368.35,432.4 1371.12,438.279 
  1373.99,443.922 1377.02,451.108 1380,458.906 1382.8,466.384 1385.63,473.543 1388.52,480.896 1391.44,487.391 1394.51,493.698 1397.79,500.516 1401.07,506.772 
  1404.61,514.308 1408.13,522.683 1411.64,532.014 1414.94,540.637 1418.31,548.838 1421.81,557.41 1425.35,566.857 1428.78,575.268 1432.28,583.8 1435.98,593.729 
  1439.47,603.01 1442.97,611.941 1446.62,621.75 1450.13,630.667 1453.73,638.828 1457.7,648.291 1461.72,658.859 1465.46,668.412 1469.36,678.335 1473.28,687.491 
  1477.48,696.248 1482.01,705.996 1486.61,714.772 1491.51,724.478 1496.53,735.984 1501.53,746.848 1506.8,759.075 1511.97,770.636 1517.32,783.092 1522.7,796.136 
  1527.84,809.102 1532.53,820.769 1537.45,832.579 1542.17,842.362 1547.49,853.22 1553.21,864.653 1559.05,876.508 1565.23,889.801 1570.93,901.984 1577,916.106 
  1582.08,927.907 1586.7,938.351 1591.57,949.206 1596.17,959.154 1600.78,969.135 1605.23,978.722 1609.42,987.228 1613.84,996.269 1618.04,1004.96 1622.02,1012.98 
  1625.94,1020.38 1630.02,1027.54 1634.62,1035.51 1639.6,1043.84 1644.47,1051.44 1649.95,1058.97 1656.11,1066.55 1661.65,1073.07 1667.48,1080.03 1673.49,1087.06 
  1679.75,1094.53 1686.65,1102.75 1694.23,1112.01 1702.75,1122.5 1712.11,1133.45 1722.65,1144.3 1731.33,1152.26 1739.08,1159.88 1747.62,1168.29 1757.24,1177.19 
  1765.57,1184.31 1773.61,1190.39 1780.24,1195.56 1787.26,1201.15 1794.34,1207.19 1802.31,1213.82 1811.28,1221.18 1821.14,1228.99 1832.24,1237.12 1844.73,1245.2 
  1853.5,1250.53 1862.91,1256.41 1871.48,1262.07 1881.13,1268.38 1891.68,1275.45 1898.41,1280.06 1903.53,1283.57 1908.1,1286.62 1912.5,1289.5 1916.4,1291.86 
  1920.67,1294.43 1924.62,1296.78 1928.38,1298.95 1932.05,1301.05 1935.55,1303.02 1938.93,1304.92 1942.07,1306.66 1945.05,1308.34 1947.79,1309.87 1950.36,1311.29 
  1952.81,1312.62 1955.12,1313.86 1957.36,1315.04 1959.55,1316.16 1961.69,1317.24 1963.83,1318.29 1965.98,1319.3 1968.21,1320.3 1970.59,1321.31 1973.16,1322.39 
  1975.89,1323.51 1978.69,1324.67 1981.49,1325.81 1984.18,1326.92 1986.9,1328 1989.61,1329.05 1992.38,1330.1 1995.22,1331.11 1998.29,1332.17 2001.68,1333.29 
  2005.36,1334.44 2009.49,1335.71 2014.13,1337.11 2018.79,1338.48 2023.36,1339.85 2027.8,1341.17 2031.93,1342.33 2036.45,1343.58 2040.73,1344.7 2045.31,1345.88 
  2049.86,1347.02 2054.25,1348.08 2059.16,1349.19 2064.06,1350.22 2069.57,1351.37 2075.77,1352.65 2081.52,1353.77 2087.51,1354.92 2094.24,1356.15 2100.7,1357.29 
  2107.91,1358.47 2115.91,1359.65 2124.91,1360.86 2134.57,1362.12 2143.97,1363.32 2154.54,1364.6 2166.43,1366.02 2179.8,1367.58 2188.06,1368.47 2197.35,1369.44 
  2205.62,1370.25 2214.92,1371.1 2225.39,1371.95 2237.16,1372.83 2245.35,1373.4 2253.96,1373.97 2262.67,1374.52 2271.06,1375.02 2280.24,1375.59 2290.56,1376.2 
  2302.12,1376.77 2310.55,1377.15 2317.78,1377.48 2325.02,1377.8 2332.71,1378.1 2339.18,1378.35 2345.14,1378.58 2350.85,1378.79 2352.76,1378.87 
  "/>
<path clip-path="url(#clip080)" d="
M1797.32 322.316 L2282.66 322.316 L2282.66 166.796 L1797.32 166.796  Z
  " fill="#ffffff" fill-rule="evenodd" fill-opacity="1"/>
<polyline clip-path="url(#clip080)" style="stroke:#000000; stroke-linecap:round; stroke-linejoin:round; stroke-width:4; stroke-opacity:1; fill:none" points="
  1797.32,322.316 2282.66,322.316 2282.66,166.796 1797.32,166.796 1797.32,322.316 
  "/>
<polyline clip-path="url(#clip080)" style="stroke:#009af9; stroke-linecap:round; stroke-linejoin:round; stroke-width:4; stroke-opacity:1; fill:none" points="
  1820.69,218.636 1960.87,218.636 
  "/>
<path clip-path="url(#clip080)" d="M1984.23 201.356 L2013.47 201.356 L2013.47 205.291 L2001.2 205.291 L2001.2 235.916 L1996.5 235.916 L1996.5 205.291 L1984.23 205.291 L1984.23 201.356 Z" fill="#000000" fill-rule="evenodd" fill-opacity="1" /><path clip-path="url(#clip080)" d="M2025.85 213.971 Q2025.14 213.555 2024.28 213.37 Q2023.45 213.161 2022.43 213.161 Q2018.82 213.161 2016.87 215.522 Q2014.95 217.86 2014.95 222.258 L2014.95 235.916 L2010.67 235.916 L2010.67 209.99 L2014.95 209.99 L2014.95 214.018 Q2016.29 211.657 2018.45 210.522 Q2020.6 209.365 2023.68 209.365 Q2024.12 209.365 2024.65 209.434 Q2025.18 209.481 2025.83 209.596 L2025.85 213.971 Z" fill="#000000" fill-rule="evenodd" fill-opacity="1" /><path clip-path="url(#clip080)" d="M2042.1 222.883 Q2036.94 222.883 2034.95 224.064 Q2032.96 225.244 2032.96 228.092 Q2032.96 230.36 2034.44 231.703 Q2035.95 233.022 2038.52 233.022 Q2042.06 233.022 2044.19 230.522 Q2046.34 227.999 2046.34 223.832 L2046.34 222.883 L2042.1 222.883 M2050.6 221.124 L2050.6 235.916 L2046.34 235.916 L2046.34 231.981 Q2044.88 234.342 2042.71 235.476 Q2040.53 236.587 2037.38 236.587 Q2033.4 236.587 2031.04 234.365 Q2028.7 232.119 2028.7 228.369 Q2028.7 223.994 2031.62 221.772 Q2034.56 219.55 2040.37 219.55 L2046.34 219.55 L2046.34 219.133 Q2046.34 216.194 2044.4 214.596 Q2042.47 212.976 2038.98 212.976 Q2036.76 212.976 2034.65 213.508 Q2032.54 214.041 2030.6 215.106 L2030.6 211.17 Q2032.94 210.268 2035.14 209.828 Q2037.33 209.365 2039.42 209.365 Q2045.04 209.365 2047.82 212.282 Q2050.6 215.198 2050.6 221.124 Z" fill="#000000" fill-rule="evenodd" fill-opacity="1" /><path clip-path="url(#clip080)" d="M2059.37 209.99 L2063.63 209.99 L2063.63 236.379 Q2063.63 241.332 2061.73 243.555 Q2059.86 245.777 2055.67 245.777 L2054.05 245.777 L2054.05 242.166 L2055.18 242.166 Q2057.61 242.166 2058.49 241.031 Q2059.37 239.92 2059.37 236.379 L2059.37 209.99 M2059.37 199.897 L2063.63 199.897 L2063.63 205.291 L2059.37 205.291 L2059.37 199.897 Z" fill="#000000" fill-rule="evenodd" fill-opacity="1" /><path clip-path="url(#clip080)" d="M2094.72 221.888 L2094.72 223.971 L2075.14 223.971 Q2075.41 228.369 2077.77 230.684 Q2080.16 232.976 2084.39 232.976 Q2086.85 232.976 2089.14 232.374 Q2091.46 231.772 2093.72 230.569 L2093.72 234.596 Q2091.43 235.568 2089.02 236.078 Q2086.62 236.587 2084.14 236.587 Q2077.94 236.587 2074.3 232.976 Q2070.69 229.365 2070.69 223.207 Q2070.69 216.842 2074.12 213.115 Q2077.57 209.365 2083.4 209.365 Q2088.63 209.365 2091.66 212.745 Q2094.72 216.101 2094.72 221.888 M2090.46 220.638 Q2090.41 217.143 2088.49 215.059 Q2086.59 212.976 2083.45 212.976 Q2079.88 212.976 2077.73 214.99 Q2075.6 217.004 2075.27 220.661 L2090.46 220.638 Z" fill="#000000" fill-rule="evenodd" fill-opacity="1" /><path clip-path="url(#clip080)" d="M2120.37 210.985 L2120.37 214.967 Q2118.56 213.971 2116.73 213.485 Q2114.93 212.976 2113.08 212.976 Q2108.93 212.976 2106.64 215.615 Q2104.35 218.231 2104.35 222.976 Q2104.35 227.721 2106.64 230.36 Q2108.93 232.976 2113.08 232.976 Q2114.93 232.976 2116.73 232.49 Q2118.56 231.981 2120.37 230.985 L2120.37 234.92 Q2118.58 235.754 2116.66 236.17 Q2114.77 236.587 2112.61 236.587 Q2106.76 236.587 2103.31 232.906 Q2099.86 229.226 2099.86 222.976 Q2099.86 216.633 2103.33 212.999 Q2106.83 209.365 2112.89 209.365 Q2114.86 209.365 2116.73 209.782 Q2118.61 210.175 2120.37 210.985 Z" fill="#000000" fill-rule="evenodd" fill-opacity="1" /><path clip-path="url(#clip080)" d="M2131.99 202.629 L2131.99 209.99 L2140.76 209.99 L2140.76 213.3 L2131.99 213.3 L2131.99 227.374 Q2131.99 230.545 2132.84 231.448 Q2133.72 232.351 2136.39 232.351 L2140.76 232.351 L2140.76 235.916 L2136.39 235.916 Q2131.45 235.916 2129.58 234.087 Q2127.7 232.235 2127.7 227.374 L2127.7 213.3 L2124.58 213.3 L2124.58 209.99 L2127.7 209.99 L2127.7 202.629 L2131.99 202.629 Z" fill="#000000" fill-rule="evenodd" fill-opacity="1" /><path clip-path="url(#clip080)" d="M2156.41 212.976 Q2152.98 212.976 2150.99 215.661 Q2149 218.323 2149 222.976 Q2149 227.629 2150.97 230.314 Q2152.96 232.976 2156.41 232.976 Q2159.81 232.976 2161.8 230.291 Q2163.79 227.606 2163.79 222.976 Q2163.79 218.37 2161.8 215.684 Q2159.81 212.976 2156.41 212.976 M2156.41 209.365 Q2161.96 209.365 2165.14 212.976 Q2168.31 216.587 2168.31 222.976 Q2168.31 229.342 2165.14 232.976 Q2161.96 236.587 2156.41 236.587 Q2150.83 236.587 2147.66 232.976 Q2144.51 229.342 2144.51 222.976 Q2144.51 216.587 2147.66 212.976 Q2150.83 209.365 2156.41 209.365 Z" fill="#000000" fill-rule="evenodd" fill-opacity="1" /><path clip-path="url(#clip080)" d="M2190.39 213.971 Q2189.67 213.555 2188.82 213.37 Q2187.98 213.161 2186.96 213.161 Q2183.35 213.161 2181.41 215.522 Q2179.49 217.86 2179.49 222.258 L2179.49 235.916 L2175.2 235.916 L2175.2 209.99 L2179.49 209.99 L2179.49 214.018 Q2180.83 211.657 2182.98 210.522 Q2185.14 209.365 2188.21 209.365 Q2188.65 209.365 2189.19 209.434 Q2189.72 209.481 2190.37 209.596 L2190.39 213.971 Z" fill="#000000" fill-rule="evenodd" fill-opacity="1" /><path clip-path="url(#clip080)" d="M2205.64 238.323 Q2203.84 242.953 2202.13 244.365 Q2200.41 245.777 2197.54 245.777 L2194.14 245.777 L2194.14 242.212 L2196.64 242.212 Q2198.4 242.212 2199.37 241.379 Q2200.34 240.545 2201.52 237.443 L2202.29 235.499 L2191.8 209.99 L2196.32 209.99 L2204.42 230.268 L2212.52 209.99 L2217.03 209.99 L2205.64 238.323 Z" fill="#000000" fill-rule="evenodd" fill-opacity="1" /><path clip-path="url(#clip080)" d="M2239.39 231.981 L2247.03 231.981 L2247.03 205.615 L2238.72 207.282 L2238.72 203.022 L2246.99 201.356 L2251.66 201.356 L2251.66 231.981 L2259.3 231.981 L2259.3 235.916 L2239.39 235.916 L2239.39 231.981 Z" fill="#000000" fill-rule="evenodd" fill-opacity="1" /><polyline clip-path="url(#clip080)" style="stroke:#e26f46; stroke-linecap:round; stroke-linejoin:round; stroke-width:4; stroke-opacity:1; fill:none" points="
  1820.69,270.476 1960.87,270.476 
  "/>
<path clip-path="url(#clip080)" d="M1984.23 253.196 L2013.47 253.196 L2013.47 257.131 L2001.2 257.131 L2001.2 287.756 L1996.5 287.756 L1996.5 257.131 L1984.23 257.131 L1984.23 253.196 Z" fill="#000000" fill-rule="evenodd" fill-opacity="1" /><path clip-path="url(#clip080)" d="M2025.85 265.811 Q2025.14 265.395 2024.28 265.21 Q2023.45 265.001 2022.43 265.001 Q2018.82 265.001 2016.87 267.362 Q2014.95 269.7 2014.95 274.098 L2014.95 287.756 L2010.67 287.756 L2010.67 261.83 L2014.95 261.83 L2014.95 265.858 Q2016.29 263.497 2018.45 262.362 Q2020.6 261.205 2023.68 261.205 Q2024.12 261.205 2024.65 261.274 Q2025.18 261.321 2025.83 261.436 L2025.85 265.811 Z" fill="#000000" fill-rule="evenodd" fill-opacity="1" /><path clip-path="url(#clip080)" d="M2042.1 274.723 Q2036.94 274.723 2034.95 275.904 Q2032.96 277.084 2032.96 279.932 Q2032.96 282.2 2034.44 283.543 Q2035.95 284.862 2038.52 284.862 Q2042.06 284.862 2044.19 282.362 Q2046.34 279.839 2046.34 275.672 L2046.34 274.723 L2042.1 274.723 M2050.6 272.964 L2050.6 287.756 L2046.34 287.756 L2046.34 283.821 Q2044.88 286.182 2042.71 287.316 Q2040.53 288.427 2037.38 288.427 Q2033.4 288.427 2031.04 286.205 Q2028.7 283.959 2028.7 280.209 Q2028.7 275.834 2031.62 273.612 Q2034.56 271.39 2040.37 271.39 L2046.34 271.39 L2046.34 270.973 Q2046.34 268.034 2044.4 266.436 Q2042.47 264.816 2038.98 264.816 Q2036.76 264.816 2034.65 265.348 Q2032.54 265.881 2030.6 266.946 L2030.6 263.01 Q2032.94 262.108 2035.14 261.668 Q2037.33 261.205 2039.42 261.205 Q2045.04 261.205 2047.82 264.122 Q2050.6 267.038 2050.6 272.964 Z" fill="#000000" fill-rule="evenodd" fill-opacity="1" /><path clip-path="url(#clip080)" d="M2059.37 261.83 L2063.63 261.83 L2063.63 288.219 Q2063.63 293.172 2061.73 295.395 Q2059.86 297.617 2055.67 297.617 L2054.05 297.617 L2054.05 294.006 L2055.18 294.006 Q2057.61 294.006 2058.49 292.871 Q2059.37 291.76 2059.37 288.219 L2059.37 261.83 M2059.37 251.737 L2063.63 251.737 L2063.63 257.131 L2059.37 257.131 L2059.37 251.737 Z" fill="#000000" fill-rule="evenodd" fill-opacity="1" /><path clip-path="url(#clip080)" d="M2094.72 273.728 L2094.72 275.811 L2075.14 275.811 Q2075.41 280.209 2077.77 282.524 Q2080.16 284.816 2084.39 284.816 Q2086.85 284.816 2089.14 284.214 Q2091.46 283.612 2093.72 282.409 L2093.72 286.436 Q2091.43 287.408 2089.02 287.918 Q2086.62 288.427 2084.14 288.427 Q2077.94 288.427 2074.3 284.816 Q2070.69 281.205 2070.69 275.047 Q2070.69 268.682 2074.12 264.955 Q2077.57 261.205 2083.4 261.205 Q2088.63 261.205 2091.66 264.585 Q2094.72 267.941 2094.72 273.728 M2090.46 272.478 Q2090.41 268.983 2088.49 266.899 Q2086.59 264.816 2083.45 264.816 Q2079.88 264.816 2077.73 266.83 Q2075.6 268.844 2075.27 272.501 L2090.46 272.478 Z" fill="#000000" fill-rule="evenodd" fill-opacity="1" /><path clip-path="url(#clip080)" d="M2120.37 262.825 L2120.37 266.807 Q2118.56 265.811 2116.73 265.325 Q2114.93 264.816 2113.08 264.816 Q2108.93 264.816 2106.64 267.455 Q2104.35 270.071 2104.35 274.816 Q2104.35 279.561 2106.64 282.2 Q2108.93 284.816 2113.08 284.816 Q2114.93 284.816 2116.73 284.33 Q2118.56 283.821 2120.37 282.825 L2120.37 286.76 Q2118.58 287.594 2116.66 288.01 Q2114.77 288.427 2112.61 288.427 Q2106.76 288.427 2103.31 284.746 Q2099.86 281.066 2099.86 274.816 Q2099.86 268.473 2103.33 264.839 Q2106.83 261.205 2112.89 261.205 Q2114.86 261.205 2116.73 261.622 Q2118.61 262.015 2120.37 262.825 Z" fill="#000000" fill-rule="evenodd" fill-opacity="1" /><path clip-path="url(#clip080)" d="M2131.99 254.469 L2131.99 261.83 L2140.76 261.83 L2140.76 265.14 L2131.99 265.14 L2131.99 279.214 Q2131.99 282.385 2132.84 283.288 Q2133.72 284.191 2136.39 284.191 L2140.76 284.191 L2140.76 287.756 L2136.39 287.756 Q2131.45 287.756 2129.58 285.927 Q2127.7 284.075 2127.7 279.214 L2127.7 265.14 L2124.58 265.14 L2124.58 261.83 L2127.7 261.83 L2127.7 254.469 L2131.99 254.469 Z" fill="#000000" fill-rule="evenodd" fill-opacity="1" /><path clip-path="url(#clip080)" d="M2156.41 264.816 Q2152.98 264.816 2150.99 267.501 Q2149 270.163 2149 274.816 Q2149 279.469 2150.97 282.154 Q2152.96 284.816 2156.41 284.816 Q2159.81 284.816 2161.8 282.131 Q2163.79 279.446 2163.79 274.816 Q2163.79 270.21 2161.8 267.524 Q2159.81 264.816 2156.41 264.816 M2156.41 261.205 Q2161.96 261.205 2165.14 264.816 Q2168.31 268.427 2168.31 274.816 Q2168.31 281.182 2165.14 284.816 Q2161.96 288.427 2156.41 288.427 Q2150.83 288.427 2147.66 284.816 Q2144.51 281.182 2144.51 274.816 Q2144.51 268.427 2147.66 264.816 Q2150.83 261.205 2156.41 261.205 Z" fill="#000000" fill-rule="evenodd" fill-opacity="1" /><path clip-path="url(#clip080)" d="M2190.39 265.811 Q2189.67 265.395 2188.82 265.21 Q2187.98 265.001 2186.96 265.001 Q2183.35 265.001 2181.41 267.362 Q2179.49 269.7 2179.49 274.098 L2179.49 287.756 L2175.2 287.756 L2175.2 261.83 L2179.49 261.83 L2179.49 265.858 Q2180.83 263.497 2182.98 262.362 Q2185.14 261.205 2188.21 261.205 Q2188.65 261.205 2189.19 261.274 Q2189.72 261.321 2190.37 261.436 L2190.39 265.811 Z" fill="#000000" fill-rule="evenodd" fill-opacity="1" /><path clip-path="url(#clip080)" d="M2205.64 290.163 Q2203.84 294.793 2202.13 296.205 Q2200.41 297.617 2197.54 297.617 L2194.14 297.617 L2194.14 294.052 L2196.64 294.052 Q2198.4 294.052 2199.37 293.219 Q2200.34 292.385 2201.52 289.283 L2202.29 287.339 L2191.8 261.83 L2196.32 261.83 L2204.42 282.108 L2212.52 261.83 L2217.03 261.83 L2205.64 290.163 Z" fill="#000000" fill-rule="evenodd" fill-opacity="1" /><path clip-path="url(#clip080)" d="M2242.61 283.821 L2258.93 283.821 L2258.93 287.756 L2236.99 287.756 L2236.99 283.821 Q2239.65 281.066 2244.23 276.436 Q2248.84 271.784 2250.02 270.441 Q2252.26 267.918 2253.14 266.182 Q2254.05 264.423 2254.05 262.733 Q2254.05 259.978 2252.1 258.242 Q2250.18 256.506 2247.08 256.506 Q2244.88 256.506 2242.43 257.27 Q2240 258.034 2237.22 259.585 L2237.22 254.862 Q2240.04 253.728 2242.5 253.149 Q2244.95 252.571 2246.99 252.571 Q2252.36 252.571 2255.55 255.256 Q2258.75 257.941 2258.75 262.432 Q2258.75 264.561 2257.94 266.483 Q2257.15 268.381 2255.04 270.973 Q2254.46 271.645 2251.36 274.862 Q2248.26 278.057 2242.61 283.821 Z" fill="#000000" fill-rule="evenodd" fill-opacity="1" /></svg>
