<?xml version="1.0" encoding="utf-8"?>
<svg xmlns="http://www.w3.org/2000/svg" xmlns:xlink="http://www.w3.org/1999/xlink" width="600" height="400" viewBox="0 0 2400 1600">
<defs>
  <clipPath id="clip330">
    <rect x="0" y="0" width="2400" height="1600"/>
  </clipPath>
</defs>
<path clip-path="url(#clip330)" d="
M0 1600 L2400 1600 L2400 0 L0 0  Z
  " fill="#ffffff" fill-rule="evenodd" fill-opacity="1"/>
<defs>
  <clipPath id="clip331">
    <rect x="480" y="0" width="1681" height="1600"/>
  </clipPath>
</defs>
<defs>
  <clipPath id="clip332">
    <rect x="250" y="123" width="2104" height="1301"/>
  </clipPath>
</defs>
<path clip-path="url(#clip330)" d="
M279.704 1423.18 L2352.76 1423.18 L2352.76 123.472 L279.704 123.472  Z
  " fill="#ffffff" fill-rule="evenodd" fill-opacity="1"/>
<defs>
  <clipPath id="clip333">
    <rect x="279" y="123" width="2074" height="1301"/>
  </clipPath>
</defs>
<polyline clip-path="url(#clip333)" style="stroke:#000000; stroke-linecap:butt; stroke-linejoin:round; stroke-width:2; stroke-opacity:0.1; fill:none" points="
  338.375,1423.18 338.375,123.472 
  "/>
<polyline clip-path="url(#clip333)" style="stroke:#000000; stroke-linecap:butt; stroke-linejoin:round; stroke-width:2; stroke-opacity:0.1; fill:none" points="
  693.959,1423.18 693.959,123.472 
  "/>
<polyline clip-path="url(#clip333)" style="stroke:#000000; stroke-linecap:butt; stroke-linejoin:round; stroke-width:2; stroke-opacity:0.1; fill:none" points="
  1049.54,1423.18 1049.54,123.472 
  "/>
<polyline clip-path="url(#clip333)" style="stroke:#000000; stroke-linecap:butt; stroke-linejoin:round; stroke-width:2; stroke-opacity:0.1; fill:none" points="
  1405.13,1423.18 1405.13,123.472 
  "/>
<polyline clip-path="url(#clip333)" style="stroke:#000000; stroke-linecap:butt; stroke-linejoin:round; stroke-width:2; stroke-opacity:0.1; fill:none" points="
  1760.71,1423.18 1760.71,123.472 
  "/>
<polyline clip-path="url(#clip333)" style="stroke:#000000; stroke-linecap:butt; stroke-linejoin:round; stroke-width:2; stroke-opacity:0.1; fill:none" points="
  2116.29,1423.18 2116.29,123.472 
  "/>
<polyline clip-path="url(#clip330)" style="stroke:#000000; stroke-linecap:butt; stroke-linejoin:round; stroke-width:4; stroke-opacity:1; fill:none" points="
  279.704,1423.18 2352.76,1423.18 
  "/>
<polyline clip-path="url(#clip330)" style="stroke:#000000; stroke-linecap:butt; stroke-linejoin:round; stroke-width:4; stroke-opacity:1; fill:none" points="
  338.375,1423.18 338.375,1404.28 
  "/>
<polyline clip-path="url(#clip330)" style="stroke:#000000; stroke-linecap:butt; stroke-linejoin:round; stroke-width:4; stroke-opacity:1; fill:none" points="
  693.959,1423.18 693.959,1404.28 
  "/>
<polyline clip-path="url(#clip330)" style="stroke:#000000; stroke-linecap:butt; stroke-linejoin:round; stroke-width:4; stroke-opacity:1; fill:none" points="
  1049.54,1423.18 1049.54,1404.28 
  "/>
<polyline clip-path="url(#clip330)" style="stroke:#000000; stroke-linecap:butt; stroke-linejoin:round; stroke-width:4; stroke-opacity:1; fill:none" points="
  1405.13,1423.18 1405.13,1404.28 
  "/>
<polyline clip-path="url(#clip330)" style="stroke:#000000; stroke-linecap:butt; stroke-linejoin:round; stroke-width:4; stroke-opacity:1; fill:none" points="
  1760.71,1423.18 1760.71,1404.28 
  "/>
<polyline clip-path="url(#clip330)" style="stroke:#000000; stroke-linecap:butt; stroke-linejoin:round; stroke-width:4; stroke-opacity:1; fill:none" points="
  2116.29,1423.18 2116.29,1404.28 
  "/>
<path clip-path="url(#clip330)" d="M338.375 1454.1 Q334.764 1454.1 332.935 1457.66 Q331.13 1461.2 331.13 1468.33 Q331.13 1475.44 332.935 1479.01 Q334.764 1482.55 338.375 1482.55 Q342.009 1482.55 343.815 1479.01 Q345.644 1475.44 345.644 1468.33 Q345.644 1461.2 343.815 1457.66 Q342.009 1454.1 338.375 1454.1 M338.375 1450.39 Q344.185 1450.39 347.241 1455 Q350.32 1459.58 350.32 1468.33 Q350.32 1477.06 347.241 1481.67 Q344.185 1486.25 338.375 1486.25 Q332.565 1486.25 329.486 1481.67 Q326.431 1477.06 326.431 1468.33 Q326.431 1459.58 329.486 1455 Q332.565 1450.39 338.375 1450.39 Z" fill="#000000" fill-rule="evenodd" fill-opacity="1" /><path clip-path="url(#clip330)" d="M653.565 1481.64 L661.204 1481.64 L661.204 1455.28 L652.894 1456.95 L652.894 1452.69 L661.158 1451.02 L665.834 1451.02 L665.834 1481.64 L673.473 1481.64 L673.473 1485.58 L653.565 1485.58 L653.565 1481.64 Z" fill="#000000" fill-rule="evenodd" fill-opacity="1" /><path clip-path="url(#clip330)" d="M692.917 1454.1 Q689.306 1454.1 687.477 1457.66 Q685.672 1461.2 685.672 1468.33 Q685.672 1475.44 687.477 1479.01 Q689.306 1482.55 692.917 1482.55 Q696.551 1482.55 698.357 1479.01 Q700.186 1475.44 700.186 1468.33 Q700.186 1461.2 698.357 1457.66 Q696.551 1454.1 692.917 1454.1 M692.917 1450.39 Q698.727 1450.39 701.783 1455 Q704.861 1459.58 704.861 1468.33 Q704.861 1477.06 701.783 1481.67 Q698.727 1486.25 692.917 1486.25 Q687.107 1486.25 684.028 1481.67 Q680.973 1477.06 680.973 1468.33 Q680.973 1459.58 684.028 1455 Q687.107 1450.39 692.917 1450.39 Z" fill="#000000" fill-rule="evenodd" fill-opacity="1" /><path clip-path="url(#clip330)" d="M723.079 1454.1 Q719.468 1454.1 717.639 1457.66 Q715.834 1461.2 715.834 1468.33 Q715.834 1475.44 717.639 1479.01 Q719.468 1482.55 723.079 1482.55 Q726.713 1482.55 728.519 1479.01 Q730.347 1475.44 730.347 1468.33 Q730.347 1461.2 728.519 1457.66 Q726.713 1454.1 723.079 1454.1 M723.079 1450.39 Q728.889 1450.39 731.945 1455 Q735.023 1459.58 735.023 1468.33 Q735.023 1477.06 731.945 1481.67 Q728.889 1486.25 723.079 1486.25 Q717.269 1486.25 714.19 1481.67 Q711.135 1477.06 711.135 1468.33 Q711.135 1459.58 714.19 1455 Q717.269 1450.39 723.079 1450.39 Z" fill="#000000" fill-rule="evenodd" fill-opacity="1" /><path clip-path="url(#clip330)" d="M1013.23 1481.64 L1029.55 1481.64 L1029.55 1485.58 L1007.61 1485.58 L1007.61 1481.64 Q1010.27 1478.89 1014.85 1474.26 Q1019.46 1469.61 1020.64 1468.27 Q1022.89 1465.74 1023.77 1464.01 Q1024.67 1462.25 1024.67 1460.56 Q1024.67 1457.8 1022.73 1456.07 Q1020.8 1454.33 1017.7 1454.33 Q1015.5 1454.33 1013.05 1455.09 Q1010.62 1455.86 1007.84 1457.41 L1007.84 1452.69 Q1010.67 1451.55 1013.12 1450.97 Q1015.57 1450.39 1017.61 1450.39 Q1022.98 1450.39 1026.17 1453.08 Q1029.37 1455.77 1029.37 1460.26 Q1029.37 1462.39 1028.56 1464.31 Q1027.77 1466.2 1025.67 1468.8 Q1025.09 1469.47 1021.98 1472.69 Q1018.88 1475.88 1013.23 1481.64 Z" fill="#000000" fill-rule="evenodd" fill-opacity="1" /><path clip-path="url(#clip330)" d="M1049.37 1454.1 Q1045.76 1454.1 1043.93 1457.66 Q1042.12 1461.2 1042.12 1468.33 Q1042.12 1475.44 1043.93 1479.01 Q1045.76 1482.55 1049.37 1482.55 Q1053 1482.55 1054.81 1479.01 Q1056.64 1475.44 1056.64 1468.33 Q1056.64 1461.2 1054.81 1457.66 Q1053 1454.1 1049.37 1454.1 M1049.37 1450.39 Q1055.18 1450.39 1058.23 1455 Q1061.31 1459.58 1061.31 1468.33 Q1061.31 1477.06 1058.23 1481.67 Q1055.18 1486.25 1049.37 1486.25 Q1043.56 1486.25 1040.48 1481.67 Q1037.42 1477.06 1037.42 1468.33 Q1037.42 1459.58 1040.48 1455 Q1043.56 1450.39 1049.37 1450.39 Z" fill="#000000" fill-rule="evenodd" fill-opacity="1" /><path clip-path="url(#clip330)" d="M1079.53 1454.1 Q1075.92 1454.1 1074.09 1457.66 Q1072.29 1461.2 1072.29 1468.33 Q1072.29 1475.44 1074.09 1479.01 Q1075.92 1482.55 1079.53 1482.55 Q1083.16 1482.55 1084.97 1479.01 Q1086.8 1475.44 1086.8 1468.33 Q1086.8 1461.2 1084.97 1457.66 Q1083.16 1454.1 1079.53 1454.1 M1079.53 1450.39 Q1085.34 1450.39 1088.4 1455 Q1091.47 1459.58 1091.47 1468.33 Q1091.47 1477.06 1088.4 1481.67 Q1085.34 1486.25 1079.53 1486.25 Q1073.72 1486.25 1070.64 1481.67 Q1067.59 1477.06 1067.59 1468.33 Q1067.59 1459.58 1070.64 1455 Q1073.72 1450.39 1079.53 1450.39 Z" fill="#000000" fill-rule="evenodd" fill-opacity="1" /><path clip-path="url(#clip330)" d="M1378.89 1466.95 Q1382.24 1467.66 1384.12 1469.93 Q1386.02 1472.2 1386.02 1475.53 Q1386.02 1480.65 1382.5 1483.45 Q1378.98 1486.25 1372.5 1486.25 Q1370.32 1486.25 1368.01 1485.81 Q1365.72 1485.39 1363.26 1484.54 L1363.26 1480.02 Q1365.21 1481.16 1367.52 1481.74 Q1369.84 1482.32 1372.36 1482.32 Q1376.76 1482.32 1379.05 1480.58 Q1381.36 1478.84 1381.36 1475.53 Q1381.36 1472.48 1379.21 1470.77 Q1377.08 1469.03 1373.26 1469.03 L1369.23 1469.03 L1369.23 1465.19 L1373.45 1465.19 Q1376.9 1465.19 1378.73 1463.82 Q1380.55 1462.43 1380.55 1459.84 Q1380.55 1457.18 1378.66 1455.77 Q1376.78 1454.33 1373.26 1454.33 Q1371.34 1454.33 1369.14 1454.75 Q1366.94 1455.16 1364.3 1456.04 L1364.3 1451.88 Q1366.97 1451.14 1369.28 1450.77 Q1371.62 1450.39 1373.68 1450.39 Q1379 1450.39 1382.11 1452.83 Q1385.21 1455.23 1385.21 1459.35 Q1385.21 1462.22 1383.56 1464.21 Q1381.92 1466.18 1378.89 1466.95 Z" fill="#000000" fill-rule="evenodd" fill-opacity="1" /><path clip-path="url(#clip330)" d="M1404.88 1454.1 Q1401.27 1454.1 1399.44 1457.66 Q1397.64 1461.2 1397.64 1468.33 Q1397.64 1475.44 1399.44 1479.01 Q1401.27 1482.55 1404.88 1482.55 Q1408.52 1482.55 1410.32 1479.01 Q1412.15 1475.44 1412.15 1468.33 Q1412.15 1461.2 1410.32 1457.66 Q1408.52 1454.1 1404.88 1454.1 M1404.88 1450.39 Q1410.69 1450.39 1413.75 1455 Q1416.83 1459.58 1416.83 1468.33 Q1416.83 1477.06 1413.75 1481.67 Q1410.69 1486.25 1404.88 1486.25 Q1399.07 1486.25 1395.99 1481.67 Q1392.94 1477.06 1392.94 1468.33 Q1392.94 1459.58 1395.99 1455 Q1399.07 1450.39 1404.88 1450.39 Z" fill="#000000" fill-rule="evenodd" fill-opacity="1" /><path clip-path="url(#clip330)" d="M1435.04 1454.1 Q1431.43 1454.1 1429.6 1457.66 Q1427.8 1461.2 1427.8 1468.33 Q1427.8 1475.44 1429.6 1479.01 Q1431.43 1482.55 1435.04 1482.55 Q1438.68 1482.55 1440.48 1479.01 Q1442.31 1475.44 1442.31 1468.33 Q1442.31 1461.2 1440.48 1457.66 Q1438.68 1454.1 1435.04 1454.1 M1435.04 1450.39 Q1440.85 1450.39 1443.91 1455 Q1446.99 1459.58 1446.99 1468.33 Q1446.99 1477.06 1443.91 1481.67 Q1440.85 1486.25 1435.04 1486.25 Q1429.23 1486.25 1426.16 1481.67 Q1423.1 1477.06 1423.1 1468.33 Q1423.1 1459.58 1426.16 1455 Q1429.23 1450.39 1435.04 1450.39 Z" fill="#000000" fill-rule="evenodd" fill-opacity="1" /><path clip-path="url(#clip330)" d="M1733.8 1455.09 L1721.99 1473.54 L1733.8 1473.54 L1733.8 1455.09 M1732.57 1451.02 L1738.45 1451.02 L1738.45 1473.54 L1743.38 1473.54 L1743.38 1477.43 L1738.45 1477.43 L1738.45 1485.58 L1733.8 1485.58 L1733.8 1477.43 L1718.2 1477.43 L1718.2 1472.92 L1732.57 1451.02 Z" fill="#000000" fill-rule="evenodd" fill-opacity="1" /><path clip-path="url(#clip330)" d="M1761.11 1454.1 Q1757.5 1454.1 1755.67 1457.66 Q1753.87 1461.2 1753.87 1468.33 Q1753.87 1475.44 1755.67 1479.01 Q1757.5 1482.55 1761.11 1482.55 Q1764.75 1482.55 1766.55 1479.01 Q1768.38 1475.44 1768.38 1468.33 Q1768.38 1461.2 1766.55 1457.66 Q1764.75 1454.1 1761.11 1454.1 M1761.11 1450.39 Q1766.92 1450.39 1769.98 1455 Q1773.06 1459.58 1773.06 1468.33 Q1773.06 1477.06 1769.98 1481.67 Q1766.92 1486.25 1761.11 1486.25 Q1755.3 1486.25 1752.23 1481.67 Q1749.17 1477.06 1749.17 1468.33 Q1749.17 1459.58 1752.23 1455 Q1755.3 1450.39 1761.11 1450.39 Z" fill="#000000" fill-rule="evenodd" fill-opacity="1" /><path clip-path="url(#clip330)" d="M1791.28 1454.1 Q1787.67 1454.1 1785.84 1457.66 Q1784.03 1461.2 1784.03 1468.33 Q1784.03 1475.44 1785.84 1479.01 Q1787.67 1482.55 1791.28 1482.55 Q1794.91 1482.55 1796.72 1479.01 Q1798.54 1475.44 1798.54 1468.33 Q1798.54 1461.2 1796.72 1457.66 Q1794.91 1454.1 1791.28 1454.1 M1791.28 1450.39 Q1797.09 1450.39 1800.14 1455 Q1803.22 1459.58 1803.22 1468.33 Q1803.22 1477.06 1800.14 1481.67 Q1797.09 1486.25 1791.28 1486.25 Q1785.47 1486.25 1782.39 1481.67 Q1779.33 1477.06 1779.33 1468.33 Q1779.33 1459.58 1782.39 1455 Q1785.47 1450.39 1791.28 1450.39 Z" fill="#000000" fill-rule="evenodd" fill-opacity="1" /><path clip-path="url(#clip330)" d="M2075.91 1451.02 L2094.27 1451.02 L2094.27 1454.96 L2080.19 1454.96 L2080.19 1463.43 Q2081.21 1463.08 2082.23 1462.92 Q2083.25 1462.73 2084.27 1462.73 Q2090.05 1462.73 2093.43 1465.9 Q2096.81 1469.08 2096.81 1474.49 Q2096.81 1480.07 2093.34 1483.17 Q2089.87 1486.25 2083.55 1486.25 Q2081.37 1486.25 2079.11 1485.88 Q2076.86 1485.51 2074.45 1484.77 L2074.45 1480.07 Q2076.54 1481.2 2078.76 1481.76 Q2080.98 1482.32 2083.46 1482.32 Q2087.46 1482.32 2089.8 1480.21 Q2092.14 1478.1 2092.14 1474.49 Q2092.14 1470.88 2089.8 1468.77 Q2087.46 1466.67 2083.46 1466.67 Q2081.58 1466.67 2079.71 1467.08 Q2077.86 1467.5 2075.91 1468.38 L2075.91 1451.02 Z" fill="#000000" fill-rule="evenodd" fill-opacity="1" /><path clip-path="url(#clip330)" d="M2116.03 1454.1 Q2112.42 1454.1 2110.59 1457.66 Q2108.78 1461.2 2108.78 1468.33 Q2108.78 1475.44 2110.59 1479.01 Q2112.42 1482.55 2116.03 1482.55 Q2119.66 1482.55 2121.47 1479.01 Q2123.3 1475.44 2123.3 1468.33 Q2123.3 1461.2 2121.47 1457.66 Q2119.66 1454.1 2116.03 1454.1 M2116.03 1450.39 Q2121.84 1450.39 2124.89 1455 Q2127.97 1459.58 2127.97 1468.33 Q2127.97 1477.06 2124.89 1481.67 Q2121.84 1486.25 2116.03 1486.25 Q2110.22 1486.25 2107.14 1481.67 Q2104.08 1477.06 2104.08 1468.33 Q2104.08 1459.58 2107.14 1455 Q2110.22 1450.39 2116.03 1450.39 Z" fill="#000000" fill-rule="evenodd" fill-opacity="1" /><path clip-path="url(#clip330)" d="M2146.19 1454.1 Q2142.58 1454.1 2140.75 1457.66 Q2138.94 1461.2 2138.94 1468.33 Q2138.94 1475.44 2140.75 1479.01 Q2142.58 1482.55 2146.19 1482.55 Q2149.82 1482.55 2151.63 1479.01 Q2153.46 1475.44 2153.46 1468.33 Q2153.46 1461.2 2151.63 1457.66 Q2149.82 1454.1 2146.19 1454.1 M2146.19 1450.39 Q2152 1450.39 2155.05 1455 Q2158.13 1459.58 2158.13 1468.33 Q2158.13 1477.06 2155.05 1481.67 Q2152 1486.25 2146.19 1486.25 Q2140.38 1486.25 2137.3 1481.67 Q2134.24 1477.06 2134.24 1468.33 Q2134.24 1459.58 2137.3 1455 Q2140.38 1450.39 2146.19 1450.39 Z" fill="#000000" fill-rule="evenodd" fill-opacity="1" /><path clip-path="url(#clip330)" d="M1324.7 1548.54 Q1324.7 1549.45 1324.28 1549.67 Q1323.86 1549.87 1322.7 1549.87 L1316.52 1549.87 L1311.63 1569.32 Q1311.24 1571.02 1311.24 1572.47 Q1311.24 1574.08 1311.72 1574.79 Q1312.24 1575.5 1313.3 1575.5 Q1315.39 1575.5 1317.65 1573.6 Q1319.93 1571.7 1321.87 1567.06 Q1322.12 1566.45 1322.25 1566.32 Q1322.41 1566.16 1322.83 1566.16 Q1323.64 1566.16 1323.64 1566.81 Q1323.64 1567.03 1323.19 1568.06 Q1322.77 1569.09 1321.83 1570.61 Q1320.93 1572.12 1319.74 1573.54 Q1318.58 1574.95 1316.81 1575.98 Q1315.04 1576.98 1313.14 1576.98 Q1310.47 1576.98 1308.76 1575.28 Q1307.08 1573.57 1307.08 1570.9 Q1307.08 1570.03 1307.76 1567.26 Q1308.44 1564.45 1312.11 1549.87 L1306.28 1549.87 Q1305.47 1549.87 1305.15 1549.83 Q1304.86 1549.8 1304.64 1549.64 Q1304.44 1549.45 1304.44 1549.06 Q1304.44 1548.45 1304.7 1548.19 Q1304.96 1547.9 1305.28 1547.87 Q1305.64 1547.8 1306.44 1547.8 L1312.62 1547.8 L1315.2 1537.34 Q1315.46 1536.31 1316.1 1535.73 Q1316.78 1535.12 1317.16 1535.05 Q1317.55 1534.95 1317.84 1534.95 Q1318.71 1534.95 1319.23 1535.44 Q1319.74 1535.89 1319.74 1536.73 Q1319.74 1537.18 1317.04 1547.8 L1322.83 1547.8 Q1323.57 1547.8 1323.86 1547.84 Q1324.19 1547.87 1324.44 1548.03 Q1324.7 1548.19 1324.7 1548.54 Z" fill="#000000" fill-rule="evenodd" fill-opacity="1" /><polyline clip-path="url(#clip333)" style="stroke:#000000; stroke-linecap:butt; stroke-linejoin:round; stroke-width:2; stroke-opacity:0.1; fill:none" points="
  279.704,1387.14 2352.76,1387.14 
  "/>
<polyline clip-path="url(#clip333)" style="stroke:#000000; stroke-linecap:butt; stroke-linejoin:round; stroke-width:2; stroke-opacity:0.1; fill:none" points="
  279.704,1088.01 2352.76,1088.01 
  "/>
<polyline clip-path="url(#clip333)" style="stroke:#000000; stroke-linecap:butt; stroke-linejoin:round; stroke-width:2; stroke-opacity:0.1; fill:none" points="
  279.704,788.882 2352.76,788.882 
  "/>
<polyline clip-path="url(#clip333)" style="stroke:#000000; stroke-linecap:butt; stroke-linejoin:round; stroke-width:2; stroke-opacity:0.1; fill:none" points="
  279.704,489.754 2352.76,489.754 
  "/>
<polyline clip-path="url(#clip333)" style="stroke:#000000; stroke-linecap:butt; stroke-linejoin:round; stroke-width:2; stroke-opacity:0.1; fill:none" points="
  279.704,190.627 2352.76,190.627 
  "/>
<polyline clip-path="url(#clip330)" style="stroke:#000000; stroke-linecap:butt; stroke-linejoin:round; stroke-width:4; stroke-opacity:1; fill:none" points="
  279.704,1423.18 279.704,123.472 
  "/>
<polyline clip-path="url(#clip330)" style="stroke:#000000; stroke-linecap:butt; stroke-linejoin:round; stroke-width:4; stroke-opacity:1; fill:none" points="
  279.704,1387.14 298.602,1387.14 
  "/>
<polyline clip-path="url(#clip330)" style="stroke:#000000; stroke-linecap:butt; stroke-linejoin:round; stroke-width:4; stroke-opacity:1; fill:none" points="
  279.704,1088.01 298.602,1088.01 
  "/>
<polyline clip-path="url(#clip330)" style="stroke:#000000; stroke-linecap:butt; stroke-linejoin:round; stroke-width:4; stroke-opacity:1; fill:none" points="
  279.704,788.882 298.602,788.882 
  "/>
<polyline clip-path="url(#clip330)" style="stroke:#000000; stroke-linecap:butt; stroke-linejoin:round; stroke-width:4; stroke-opacity:1; fill:none" points="
  279.704,489.754 298.602,489.754 
  "/>
<polyline clip-path="url(#clip330)" style="stroke:#000000; stroke-linecap:butt; stroke-linejoin:round; stroke-width:4; stroke-opacity:1; fill:none" points="
  279.704,190.627 298.602,190.627 
  "/>
<path clip-path="url(#clip330)" d="M126.205 1372.94 Q122.593 1372.94 120.765 1376.5 Q118.959 1380.04 118.959 1387.17 Q118.959 1394.28 120.765 1397.84 Q122.593 1401.39 126.205 1401.39 Q129.839 1401.39 131.644 1397.84 Q133.473 1394.28 133.473 1387.17 Q133.473 1380.04 131.644 1376.5 Q129.839 1372.94 126.205 1372.94 M126.205 1369.23 Q132.015 1369.23 135.07 1373.84 Q138.149 1378.42 138.149 1387.17 Q138.149 1395.9 135.07 1400.51 Q132.015 1405.09 126.205 1405.09 Q120.394 1405.09 117.316 1400.51 Q114.26 1395.9 114.26 1387.17 Q114.26 1378.42 117.316 1373.84 Q120.394 1369.23 126.205 1369.23 Z" fill="#000000" fill-rule="evenodd" fill-opacity="1" /><path clip-path="url(#clip330)" d="M146.366 1398.54 L151.251 1398.54 L151.251 1404.42 L146.366 1404.42 L146.366 1398.54 Z" fill="#000000" fill-rule="evenodd" fill-opacity="1" /><path clip-path="url(#clip330)" d="M171.436 1372.94 Q167.825 1372.94 165.996 1376.5 Q164.19 1380.04 164.19 1387.17 Q164.19 1394.28 165.996 1397.84 Q167.825 1401.39 171.436 1401.39 Q175.07 1401.39 176.876 1397.84 Q178.704 1394.28 178.704 1387.17 Q178.704 1380.04 176.876 1376.5 Q175.07 1372.94 171.436 1372.94 M171.436 1369.23 Q177.246 1369.23 180.301 1373.84 Q183.38 1378.42 183.38 1387.17 Q183.38 1395.9 180.301 1400.51 Q177.246 1405.09 171.436 1405.09 Q165.626 1405.09 162.547 1400.51 Q159.491 1395.9 159.491 1387.17 Q159.491 1378.42 162.547 1373.84 Q165.626 1369.23 171.436 1369.23 Z" fill="#000000" fill-rule="evenodd" fill-opacity="1" /><path clip-path="url(#clip330)" d="M201.598 1372.94 Q197.987 1372.94 196.158 1376.5 Q194.352 1380.04 194.352 1387.17 Q194.352 1394.28 196.158 1397.84 Q197.987 1401.39 201.598 1401.39 Q205.232 1401.39 207.037 1397.84 Q208.866 1394.28 208.866 1387.17 Q208.866 1380.04 207.037 1376.5 Q205.232 1372.94 201.598 1372.94 M201.598 1369.23 Q207.408 1369.23 210.463 1373.84 Q213.542 1378.42 213.542 1387.17 Q213.542 1395.9 210.463 1400.51 Q207.408 1405.09 201.598 1405.09 Q195.787 1405.09 192.709 1400.51 Q189.653 1395.9 189.653 1387.17 Q189.653 1378.42 192.709 1373.84 Q195.787 1369.23 201.598 1369.23 Z" fill="#000000" fill-rule="evenodd" fill-opacity="1" /><path clip-path="url(#clip330)" d="M231.76 1372.94 Q228.148 1372.94 226.32 1376.5 Q224.514 1380.04 224.514 1387.17 Q224.514 1394.28 226.32 1397.84 Q228.148 1401.39 231.76 1401.39 Q235.394 1401.39 237.199 1397.84 Q239.028 1394.28 239.028 1387.17 Q239.028 1380.04 237.199 1376.5 Q235.394 1372.94 231.76 1372.94 M231.76 1369.23 Q237.57 1369.23 240.625 1373.84 Q243.704 1378.42 243.704 1387.17 Q243.704 1395.9 240.625 1400.51 Q237.57 1405.09 231.76 1405.09 Q225.949 1405.09 222.871 1400.51 Q219.815 1395.9 219.815 1387.17 Q219.815 1378.42 222.871 1373.84 Q225.949 1369.23 231.76 1369.23 Z" fill="#000000" fill-rule="evenodd" fill-opacity="1" /><path clip-path="url(#clip330)" d="M127.2 1073.81 Q123.589 1073.81 121.76 1077.37 Q119.955 1080.91 119.955 1088.04 Q119.955 1095.15 121.76 1098.72 Q123.589 1102.26 127.2 1102.26 Q130.834 1102.26 132.64 1098.72 Q134.468 1095.15 134.468 1088.04 Q134.468 1080.91 132.64 1077.37 Q130.834 1073.81 127.2 1073.81 M127.2 1070.1 Q133.01 1070.1 136.066 1074.71 Q139.144 1079.29 139.144 1088.04 Q139.144 1096.77 136.066 1101.38 Q133.01 1105.96 127.2 1105.96 Q121.39 1105.96 118.311 1101.38 Q115.256 1096.77 115.256 1088.04 Q115.256 1079.29 118.311 1074.71 Q121.39 1070.1 127.2 1070.1 Z" fill="#000000" fill-rule="evenodd" fill-opacity="1" /><path clip-path="url(#clip330)" d="M147.362 1099.41 L152.246 1099.41 L152.246 1105.29 L147.362 1105.29 L147.362 1099.41 Z" fill="#000000" fill-rule="evenodd" fill-opacity="1" /><path clip-path="url(#clip330)" d="M172.431 1073.81 Q168.82 1073.81 166.991 1077.37 Q165.186 1080.91 165.186 1088.04 Q165.186 1095.15 166.991 1098.72 Q168.82 1102.26 172.431 1102.26 Q176.065 1102.26 177.871 1098.72 Q179.7 1095.15 179.7 1088.04 Q179.7 1080.91 177.871 1077.37 Q176.065 1073.81 172.431 1073.81 M172.431 1070.1 Q178.241 1070.1 181.297 1074.71 Q184.376 1079.29 184.376 1088.04 Q184.376 1096.77 181.297 1101.38 Q178.241 1105.96 172.431 1105.96 Q166.621 1105.96 163.542 1101.38 Q160.487 1096.77 160.487 1088.04 Q160.487 1079.29 163.542 1074.71 Q166.621 1070.1 172.431 1070.1 Z" fill="#000000" fill-rule="evenodd" fill-opacity="1" /><path clip-path="url(#clip330)" d="M196.621 1101.35 L212.94 1101.35 L212.94 1105.29 L190.996 1105.29 L190.996 1101.35 Q193.658 1098.6 198.241 1093.97 Q202.848 1089.32 204.028 1087.98 Q206.274 1085.45 207.153 1083.72 Q208.056 1081.96 208.056 1080.27 Q208.056 1077.51 206.112 1075.78 Q204.19 1074.04 201.088 1074.04 Q198.889 1074.04 196.436 1074.8 Q194.005 1075.57 191.227 1077.12 L191.227 1072.4 Q194.051 1071.26 196.505 1070.68 Q198.959 1070.1 200.996 1070.1 Q206.366 1070.1 209.561 1072.79 Q212.755 1075.48 212.755 1079.97 Q212.755 1082.1 211.945 1084.02 Q211.158 1085.91 209.051 1088.51 Q208.473 1089.18 205.371 1092.4 Q202.269 1095.59 196.621 1101.35 Z" fill="#000000" fill-rule="evenodd" fill-opacity="1" /><path clip-path="url(#clip330)" d="M222.801 1070.73 L241.158 1070.73 L241.158 1074.66 L227.084 1074.66 L227.084 1083.14 Q228.102 1082.79 229.121 1082.63 Q230.139 1082.44 231.158 1082.44 Q236.945 1082.44 240.324 1085.61 Q243.704 1088.79 243.704 1094.2 Q243.704 1099.78 240.232 1102.88 Q236.76 1105.96 230.44 1105.96 Q228.264 1105.96 225.996 1105.59 Q223.75 1105.22 221.343 1104.48 L221.343 1099.78 Q223.426 1100.91 225.648 1101.47 Q227.871 1102.03 230.347 1102.03 Q234.352 1102.03 236.69 1099.92 Q239.028 1097.81 239.028 1094.2 Q239.028 1090.59 236.69 1088.48 Q234.352 1086.38 230.347 1086.38 Q228.473 1086.38 226.598 1086.79 Q224.746 1087.21 222.801 1088.09 L222.801 1070.73 Z" fill="#000000" fill-rule="evenodd" fill-opacity="1" /><path clip-path="url(#clip330)" d="M126.205 774.681 Q122.593 774.681 120.765 778.246 Q118.959 781.787 118.959 788.917 Q118.959 796.023 120.765 799.588 Q122.593 803.13 126.205 803.13 Q129.839 803.13 131.644 799.588 Q133.473 796.023 133.473 788.917 Q133.473 781.787 131.644 778.246 Q129.839 774.681 126.205 774.681 M126.205 770.977 Q132.015 770.977 135.07 775.584 Q138.149 780.167 138.149 788.917 Q138.149 797.644 135.07 802.25 Q132.015 806.833 126.205 806.833 Q120.394 806.833 117.316 802.25 Q114.26 797.644 114.26 788.917 Q114.26 780.167 117.316 775.584 Q120.394 770.977 126.205 770.977 Z" fill="#000000" fill-rule="evenodd" fill-opacity="1" /><path clip-path="url(#clip330)" d="M146.366 800.283 L151.251 800.283 L151.251 806.162 L146.366 806.162 L146.366 800.283 Z" fill="#000000" fill-rule="evenodd" fill-opacity="1" /><path clip-path="url(#clip330)" d="M171.436 774.681 Q167.825 774.681 165.996 778.246 Q164.19 781.787 164.19 788.917 Q164.19 796.023 165.996 799.588 Q167.825 803.13 171.436 803.13 Q175.07 803.13 176.876 799.588 Q178.704 796.023 178.704 788.917 Q178.704 781.787 176.876 778.246 Q175.07 774.681 171.436 774.681 M171.436 770.977 Q177.246 770.977 180.301 775.584 Q183.38 780.167 183.38 788.917 Q183.38 797.644 180.301 802.25 Q177.246 806.833 171.436 806.833 Q165.626 806.833 162.547 802.25 Q159.491 797.644 159.491 788.917 Q159.491 780.167 162.547 775.584 Q165.626 770.977 171.436 770.977 Z" fill="#000000" fill-rule="evenodd" fill-opacity="1" /><path clip-path="url(#clip330)" d="M191.644 771.602 L210 771.602 L210 775.537 L195.926 775.537 L195.926 784.009 Q196.945 783.662 197.963 783.5 Q198.982 783.315 200 783.315 Q205.787 783.315 209.167 786.486 Q212.547 789.658 212.547 795.074 Q212.547 800.653 209.074 803.755 Q205.602 806.833 199.283 806.833 Q197.107 806.833 194.838 806.463 Q192.593 806.093 190.186 805.352 L190.186 800.653 Q192.269 801.787 194.491 802.343 Q196.713 802.898 199.19 802.898 Q203.195 802.898 205.533 800.792 Q207.871 798.685 207.871 795.074 Q207.871 791.463 205.533 789.357 Q203.195 787.25 199.19 787.25 Q197.315 787.25 195.44 787.667 Q193.588 788.084 191.644 788.963 L191.644 771.602 Z" fill="#000000" fill-rule="evenodd" fill-opacity="1" /><path clip-path="url(#clip330)" d="M231.76 774.681 Q228.148 774.681 226.32 778.246 Q224.514 781.787 224.514 788.917 Q224.514 796.023 226.32 799.588 Q228.148 803.13 231.76 803.13 Q235.394 803.13 237.199 799.588 Q239.028 796.023 239.028 788.917 Q239.028 781.787 237.199 778.246 Q235.394 774.681 231.76 774.681 M231.76 770.977 Q237.57 770.977 240.625 775.584 Q243.704 780.167 243.704 788.917 Q243.704 797.644 240.625 802.25 Q237.57 806.833 231.76 806.833 Q225.949 806.833 222.871 802.25 Q219.815 797.644 219.815 788.917 Q219.815 780.167 222.871 775.584 Q225.949 770.977 231.76 770.977 Z" fill="#000000" fill-rule="evenodd" fill-opacity="1" /><path clip-path="url(#clip330)" d="M127.2 475.553 Q123.589 475.553 121.76 479.118 Q119.955 482.66 119.955 489.789 Q119.955 496.896 121.76 500.46 Q123.589 504.002 127.2 504.002 Q130.834 504.002 132.64 500.46 Q134.468 496.896 134.468 489.789 Q134.468 482.66 132.64 479.118 Q130.834 475.553 127.2 475.553 M127.2 471.849 Q133.01 471.849 136.066 476.456 Q139.144 481.039 139.144 489.789 Q139.144 498.516 136.066 503.122 Q133.01 507.706 127.2 507.706 Q121.39 507.706 118.311 503.122 Q115.256 498.516 115.256 489.789 Q115.256 481.039 118.311 476.456 Q121.39 471.849 127.2 471.849 Z" fill="#000000" fill-rule="evenodd" fill-opacity="1" /><path clip-path="url(#clip330)" d="M147.362 501.155 L152.246 501.155 L152.246 507.034 L147.362 507.034 L147.362 501.155 Z" fill="#000000" fill-rule="evenodd" fill-opacity="1" /><path clip-path="url(#clip330)" d="M172.431 475.553 Q168.82 475.553 166.991 479.118 Q165.186 482.66 165.186 489.789 Q165.186 496.896 166.991 500.46 Q168.82 504.002 172.431 504.002 Q176.065 504.002 177.871 500.46 Q179.7 496.896 179.7 489.789 Q179.7 482.66 177.871 479.118 Q176.065 475.553 172.431 475.553 M172.431 471.849 Q178.241 471.849 181.297 476.456 Q184.376 481.039 184.376 489.789 Q184.376 498.516 181.297 503.122 Q178.241 507.706 172.431 507.706 Q166.621 507.706 163.542 503.122 Q160.487 498.516 160.487 489.789 Q160.487 481.039 163.542 476.456 Q166.621 471.849 172.431 471.849 Z" fill="#000000" fill-rule="evenodd" fill-opacity="1" /><path clip-path="url(#clip330)" d="M191.413 472.474 L213.635 472.474 L213.635 474.465 L201.088 507.034 L196.204 507.034 L208.01 476.41 L191.413 476.41 L191.413 472.474 Z" fill="#000000" fill-rule="evenodd" fill-opacity="1" /><path clip-path="url(#clip330)" d="M222.801 472.474 L241.158 472.474 L241.158 476.41 L227.084 476.41 L227.084 484.882 Q228.102 484.535 229.121 484.373 Q230.139 484.187 231.158 484.187 Q236.945 484.187 240.324 487.359 Q243.704 490.53 243.704 495.947 Q243.704 501.525 240.232 504.627 Q236.76 507.706 230.44 507.706 Q228.264 507.706 225.996 507.335 Q223.75 506.965 221.343 506.224 L221.343 501.525 Q223.426 502.66 225.648 503.215 Q227.871 503.771 230.347 503.771 Q234.352 503.771 236.69 501.664 Q239.028 499.558 239.028 495.947 Q239.028 492.335 236.69 490.229 Q234.352 488.123 230.347 488.123 Q228.473 488.123 226.598 488.539 Q224.746 488.956 222.801 489.836 L222.801 472.474 Z" fill="#000000" fill-rule="evenodd" fill-opacity="1" /><path clip-path="url(#clip330)" d="M126.205 176.426 Q122.593 176.426 120.765 179.99 Q118.959 183.532 118.959 190.662 Q118.959 197.768 120.765 201.333 Q122.593 204.874 126.205 204.874 Q129.839 204.874 131.644 201.333 Q133.473 197.768 133.473 190.662 Q133.473 183.532 131.644 179.99 Q129.839 176.426 126.205 176.426 M126.205 172.722 Q132.015 172.722 135.07 177.328 Q138.149 181.912 138.149 190.662 Q138.149 199.388 135.07 203.995 Q132.015 208.578 126.205 208.578 Q120.394 208.578 117.316 203.995 Q114.26 199.388 114.26 190.662 Q114.26 181.912 117.316 177.328 Q120.394 172.722 126.205 172.722 Z" fill="#000000" fill-rule="evenodd" fill-opacity="1" /><path clip-path="url(#clip330)" d="M146.366 202.027 L151.251 202.027 L151.251 207.907 L146.366 207.907 L146.366 202.027 Z" fill="#000000" fill-rule="evenodd" fill-opacity="1" /><path clip-path="url(#clip330)" d="M162.246 203.972 L169.885 203.972 L169.885 177.606 L161.575 179.273 L161.575 175.013 L169.839 173.347 L174.514 173.347 L174.514 203.972 L182.153 203.972 L182.153 207.907 L162.246 207.907 L162.246 203.972 Z" fill="#000000" fill-rule="evenodd" fill-opacity="1" /><path clip-path="url(#clip330)" d="M201.598 176.426 Q197.987 176.426 196.158 179.99 Q194.352 183.532 194.352 190.662 Q194.352 197.768 196.158 201.333 Q197.987 204.874 201.598 204.874 Q205.232 204.874 207.037 201.333 Q208.866 197.768 208.866 190.662 Q208.866 183.532 207.037 179.99 Q205.232 176.426 201.598 176.426 M201.598 172.722 Q207.408 172.722 210.463 177.328 Q213.542 181.912 213.542 190.662 Q213.542 199.388 210.463 203.995 Q207.408 208.578 201.598 208.578 Q195.787 208.578 192.709 203.995 Q189.653 199.388 189.653 190.662 Q189.653 181.912 192.709 177.328 Q195.787 172.722 201.598 172.722 Z" fill="#000000" fill-rule="evenodd" fill-opacity="1" /><path clip-path="url(#clip330)" d="M231.76 176.426 Q228.148 176.426 226.32 179.99 Q224.514 183.532 224.514 190.662 Q224.514 197.768 226.32 201.333 Q228.148 204.874 231.76 204.874 Q235.394 204.874 237.199 201.333 Q239.028 197.768 239.028 190.662 Q239.028 183.532 237.199 179.99 Q235.394 176.426 231.76 176.426 M231.76 172.722 Q237.57 172.722 240.625 177.328 Q243.704 181.912 243.704 190.662 Q243.704 199.388 240.625 203.995 Q237.57 208.578 231.76 208.578 Q225.949 208.578 222.871 203.995 Q219.815 199.388 219.815 190.662 Q219.815 181.912 222.871 177.328 Q225.949 172.722 231.76 172.722 Z" fill="#000000" fill-rule="evenodd" fill-opacity="1" /><path clip-path="url(#clip330)" d="M27.2366 806.044 Q28.6537 806.044 29.7164 807.204 Q30.747 808.331 30.747 809.555 Q30.747 810.682 30.0707 811.391 Q29.3622 812.067 28.3638 812.067 Q27.0434 812.067 25.9484 810.94 Q24.8534 809.812 24.8534 808.492 Q24.8534 807.397 25.5297 806.721 Q26.206 806.044 27.2366 806.044 M59.0238 805.465 Q59.2814 805.465 60.312 805.755 Q61.3104 806.044 62.8563 806.753 Q64.37 807.429 65.787 808.363 Q67.2041 809.297 68.2024 810.843 Q69.2008 812.357 69.2008 814.096 Q69.2008 816.447 67.6549 817.993 Q66.1091 819.506 63.7902 819.506 Q62.5342 819.506 58.5085 817.993 Q46.7856 813.613 46.3025 813.452 Q44.4667 812.711 42.8564 812.711 Q42.1157 812.711 41.6648 812.872 Q41.1817 813.033 41.0207 813.355 Q40.8275 813.677 40.7953 813.87 Q40.7631 814.031 40.7631 814.354 Q40.7631 816.254 42.6954 818.025 Q44.6278 819.796 48.9433 821.02 Q49.7485 821.278 49.9417 821.439 Q50.135 821.6 50.135 822.083 Q50.1028 822.888 49.4586 822.888 Q49.2654 822.888 48.5247 822.663 Q47.7517 822.437 46.5923 822.018 Q45.4007 821.6 44.1769 820.859 Q42.9208 820.118 41.8258 819.217 Q40.7308 818.283 40.0223 816.962 Q39.3138 815.642 39.3138 814.16 Q39.3138 811.745 40.8919 810.263 Q42.4378 808.75 44.7244 808.75 Q45.9804 808.75 48.2026 809.619 Q51.1011 810.682 52.0351 811.069 L58.9594 813.645 Q61.4714 814.579 62.2444 814.869 Q62.9851 815.126 63.8869 815.352 Q64.7564 815.545 65.5616 815.545 Q66.6888 815.545 67.2041 815.191 Q67.7194 814.804 67.7194 813.967 Q67.7194 811.648 65.4327 809.941 Q63.1139 808.234 59.5713 807.236 Q59.4747 807.204 59.3136 807.172 Q58.5085 806.914 58.4119 806.656 Q58.3797 806.527 58.3797 806.27 Q58.3797 805.465 59.0238 805.465 Z" fill="#000000" fill-rule="evenodd" fill-opacity="1" /><path clip-path="url(#clip330)" d="M51.9707 794.824 Q40.8275 794.824 31.842 790.669 Q28.0739 788.898 24.9178 786.418 Q21.7616 783.938 20.3767 782.296 Q18.9919 780.653 18.9919 780.202 Q18.9919 779.558 19.636 779.526 Q19.9581 779.526 20.7632 780.395 Q31.5844 791.023 51.9707 790.991 Q72.4214 790.991 82.8239 780.653 Q83.9511 779.526 84.3054 779.526 Q84.9495 779.526 84.9495 780.202 Q84.9495 780.653 83.6291 782.231 Q82.3086 783.809 79.2813 786.257 Q76.2539 788.705 72.5502 790.476 Q63.5648 794.824 51.9707 794.824 Z" fill="#000000" fill-rule="evenodd" fill-opacity="1" /><path clip-path="url(#clip330)" d="M40.7631 754.255 Q41.6648 754.255 41.8903 754.673 Q42.0835 755.092 42.0835 756.252 L42.0835 762.435 L61.5358 767.33 Q63.2427 767.717 64.692 767.717 Q66.3023 767.717 67.0108 767.234 Q67.7194 766.718 67.7194 765.656 Q67.7194 763.562 65.8192 761.308 Q63.9191 759.021 59.2814 757.089 Q58.6695 756.831 58.5407 756.702 Q58.3797 756.541 58.3797 756.123 Q58.3797 755.318 59.0238 755.318 Q59.2492 755.318 60.2798 755.768 Q61.3104 756.187 62.8241 757.121 Q64.3377 758.023 65.7548 759.215 Q67.1719 760.374 68.2024 762.145 Q69.2008 763.917 69.2008 765.817 Q69.2008 768.49 67.4939 770.197 Q65.787 771.871 63.1139 771.871 Q62.2444 771.871 59.4747 771.195 Q56.6727 770.519 42.0835 766.847 L42.0835 772.677 Q42.0835 773.482 42.0513 773.804 Q42.0191 774.094 41.8581 774.319 Q41.6648 774.512 41.2783 774.512 Q40.6664 774.512 40.4088 774.255 Q40.1189 773.997 40.0867 773.675 Q40.0223 773.321 40.0223 772.516 L40.0223 766.332 L29.5554 763.756 Q28.5248 763.498 27.9451 762.854 Q27.3332 762.177 27.2688 761.791 Q27.1722 761.405 27.1722 761.115 Q27.1722 760.245 27.6553 759.73 Q28.1062 759.215 28.9435 759.215 Q29.3944 759.215 40.0223 761.92 L40.0223 756.123 Q40.0223 755.382 40.0545 755.092 Q40.0867 754.77 40.2478 754.512 Q40.4088 754.255 40.7631 754.255 Z" fill="#000000" fill-rule="evenodd" fill-opacity="1" /><path clip-path="url(#clip330)" d="M84.3054 749.091 Q83.9833 749.091 83.1782 748.254 Q72.357 737.626 51.9707 737.626 Q31.52 737.626 21.1819 747.835 Q19.9903 749.091 19.636 749.091 Q18.9919 749.091 18.9919 748.447 Q18.9919 747.996 20.3123 746.418 Q21.6328 744.808 24.6601 742.393 Q27.6875 739.945 31.3911 738.141 Q40.3766 733.794 51.9707 733.794 Q63.1139 733.794 72.0994 737.948 Q75.8674 739.719 79.0236 742.199 Q82.1798 744.679 83.5646 746.322 Q84.9495 747.964 84.9495 748.447 Q84.9495 749.091 84.3054 749.091 Z" fill="#000000" fill-rule="evenodd" fill-opacity="1" /><path clip-path="url(#clip330)" d="M666.222 17.6457 Q657.31 17.6457 652.044 24.2892 Q646.818 30.9327 646.818 42.3968 Q646.818 53.8203 652.044 60.4638 Q657.31 67.1073 666.222 67.1073 Q675.134 67.1073 680.319 60.4638 Q685.545 53.8203 685.545 42.3968 Q685.545 30.9327 680.319 24.2892 Q675.134 17.6457 666.222 17.6457 M677.686 71.4823 L688.461 83.2704 L678.577 83.2704 L669.625 73.5887 Q668.288 73.6697 667.559 73.7103 Q666.87 73.7508 666.222 73.7508 Q653.461 73.7508 645.805 65.2439 Q638.19 56.6965 638.19 42.3968 Q638.19 28.0566 645.805 19.5497 Q653.461 11.0023 666.222 11.0023 Q678.942 11.0023 686.557 19.5497 Q694.173 28.0566 694.173 42.3968 Q694.173 52.9291 689.92 60.4233 Q685.707 67.9175 677.686 71.4823 Z" fill="#000000" fill-rule="evenodd" fill-opacity="1" /><path clip-path="url(#clip330)" d="M705.88 54.671 L705.88 27.2059 L713.334 27.2059 L713.334 54.3874 Q713.334 60.8284 715.845 64.0691 Q718.357 67.2693 723.38 67.2693 Q729.416 67.2693 732.9 63.421 Q736.424 59.5726 736.424 52.9291 L736.424 27.2059 L743.878 27.2059 L743.878 72.576 L736.424 72.576 L736.424 65.6084 Q733.71 69.7404 730.105 71.7658 Q726.54 73.7508 721.8 73.7508 Q713.982 73.7508 709.931 68.8897 Q705.88 64.0286 705.88 54.671 M724.636 26.1121 L724.636 26.1121 Z" fill="#000000" fill-rule="evenodd" fill-opacity="1" /><path clip-path="url(#clip330)" d="M779.85 49.7694 Q770.816 49.7694 767.332 51.8354 Q763.849 53.9013 763.849 58.8839 Q763.849 62.8538 766.441 65.2034 Q769.074 67.5124 773.571 67.5124 Q779.769 67.5124 783.495 63.1374 Q787.263 58.7219 787.263 51.4303 L787.263 49.7694 L779.85 49.7694 M794.716 46.6907 L794.716 72.576 L787.263 72.576 L787.263 65.6895 Q784.711 69.8214 780.903 71.8063 Q777.095 73.7508 771.586 73.7508 Q764.618 73.7508 760.486 69.8619 Q756.395 65.9325 756.395 59.3701 Q756.395 51.7138 761.499 47.825 Q766.644 43.9361 776.812 43.9361 L787.263 43.9361 L787.263 43.2069 Q787.263 38.0623 783.86 35.2672 Q780.498 32.4315 774.381 32.4315 Q770.492 32.4315 766.806 33.3632 Q763.119 34.295 759.717 36.1584 L759.717 29.2718 Q763.808 27.692 767.656 26.9223 Q771.505 26.1121 775.151 26.1121 Q784.994 26.1121 789.855 31.2163 Q794.716 36.3204 794.716 46.6907 Z" fill="#000000" fill-rule="evenodd" fill-opacity="1" /><path clip-path="url(#clip330)" d="M847.783 45.1919 L847.783 72.576 L840.33 72.576 L840.33 45.4349 Q840.33 38.994 837.818 35.7938 Q835.307 32.5936 830.283 32.5936 Q824.248 32.5936 820.764 36.4419 Q817.28 40.2903 817.28 46.9338 L817.28 72.576 L809.786 72.576 L809.786 27.2059 L817.28 27.2059 L817.28 34.2544 Q819.954 30.163 823.559 28.1376 Q827.205 26.1121 831.944 26.1121 Q839.763 26.1121 843.773 30.9732 Q847.783 35.7938 847.783 45.1919 Z" fill="#000000" fill-rule="evenodd" fill-opacity="1" /><path clip-path="url(#clip330)" d="M870.023 14.324 L870.023 27.2059 L885.376 27.2059 L885.376 32.9987 L870.023 32.9987 L870.023 57.6282 Q870.023 63.1779 871.522 64.7578 Q873.061 66.3376 877.72 66.3376 L885.376 66.3376 L885.376 72.576 L877.72 72.576 Q869.091 72.576 865.81 69.3758 Q862.529 66.1351 862.529 57.6282 L862.529 32.9987 L857.06 32.9987 L857.06 27.2059 L862.529 27.2059 L862.529 14.324 L870.023 14.324 Z" fill="#000000" fill-rule="evenodd" fill-opacity="1" /><path clip-path="url(#clip330)" d="M895.179 27.2059 L902.633 27.2059 L902.633 72.576 L895.179 72.576 L895.179 27.2059 M895.179 9.54393 L902.633 9.54393 L902.633 18.9825 L895.179 18.9825 L895.179 9.54393 Z" fill="#000000" fill-rule="evenodd" fill-opacity="1" /><path clip-path="url(#clip330)" d="M918.229 9.54393 L925.682 9.54393 L925.682 72.576 L918.229 72.576 L918.229 9.54393 Z" fill="#000000" fill-rule="evenodd" fill-opacity="1" /><path clip-path="url(#clip330)" d="M980.086 48.0275 L980.086 51.6733 L945.815 51.6733 Q946.301 59.3701 950.433 63.421 Q954.606 67.4314 962.019 67.4314 Q966.313 67.4314 970.323 66.3781 Q974.374 65.3249 978.344 63.2184 L978.344 70.267 Q974.334 71.9684 970.121 72.8596 Q965.908 73.7508 961.573 73.7508 Q950.717 73.7508 944.357 67.4314 Q938.037 61.1119 938.037 50.3365 Q938.037 39.1965 944.033 32.6746 Q950.069 26.1121 960.277 26.1121 Q969.432 26.1121 974.739 32.0264 Q980.086 37.9003 980.086 48.0275 M972.632 45.84 Q972.551 39.7232 969.189 36.0774 Q965.867 32.4315 960.358 32.4315 Q954.12 32.4315 950.352 35.9558 Q946.625 39.4801 946.058 45.8805 L972.632 45.84 Z" fill="#000000" fill-rule="evenodd" fill-opacity="1" /><path clip-path="url(#clip330)" d="M1021.24 28.5427 L1021.24 35.5912 Q1018.08 33.9709 1014.68 33.1607 Q1011.28 32.3505 1007.63 32.3505 Q1002.08 32.3505 999.287 34.0519 Q996.533 35.7533 996.533 39.156 Q996.533 41.7486 998.517 43.2475 Q1000.5 44.7058 1006.5 46.0426 L1009.05 46.6097 Q1016.99 48.3111 1020.31 51.4303 Q1023.67 54.509 1023.67 60.0587 Q1023.67 66.3781 1018.65 70.0644 Q1013.67 73.7508 1004.92 73.7508 Q1001.27 73.7508 997.302 73.0216 Q993.373 72.3329 988.998 70.9151 L988.998 63.2184 Q993.13 65.3654 997.14 66.4591 Q1001.15 67.5124 1005.08 67.5124 Q1010.35 67.5124 1013.18 65.73 Q1016.02 63.9071 1016.02 60.6258 Q1016.02 57.5877 1013.95 55.9673 Q1011.93 54.3469 1005 52.8481 L1002.41 52.2405 Q995.479 50.7821 992.401 47.7845 Q989.322 44.7463 989.322 39.4801 Q989.322 33.0797 993.859 29.5959 Q998.396 26.1121 1006.74 26.1121 Q1010.87 26.1121 1014.52 26.7198 Q1018.16 27.3274 1021.24 28.5427 Z" fill="#000000" fill-rule="evenodd" fill-opacity="1" /><path clip-path="url(#clip330)" d="M1079.5 32.4315 Q1073.5 32.4315 1070.02 37.1306 Q1066.53 41.7891 1066.53 49.9314 Q1066.53 58.0738 1069.98 62.7728 Q1073.46 67.4314 1079.5 67.4314 Q1085.45 67.4314 1088.93 62.7323 Q1092.42 58.0333 1092.42 49.9314 Q1092.42 41.8701 1088.93 37.1711 Q1085.45 32.4315 1079.5 32.4315 M1079.5 26.1121 Q1089.22 26.1121 1094.77 32.4315 Q1100.32 38.7509 1100.32 49.9314 Q1100.32 61.0714 1094.77 67.4314 Q1089.22 73.7508 1079.5 73.7508 Q1069.73 73.7508 1064.18 67.4314 Q1058.67 61.0714 1058.67 49.9314 Q1058.67 38.7509 1064.18 32.4315 Q1069.73 26.1121 1079.5 26.1121 Z" fill="#000000" fill-rule="evenodd" fill-opacity="1" /><path clip-path="url(#clip330)" d="M1135.64 9.54393 L1135.64 15.7418 L1128.51 15.7418 Q1124.5 15.7418 1122.92 17.3622 Q1121.38 18.9825 1121.38 23.1955 L1121.38 27.2059 L1133.66 27.2059 L1133.66 32.9987 L1121.38 32.9987 L1121.38 72.576 L1113.89 72.576 L1113.89 32.9987 L1106.76 32.9987 L1106.76 27.2059 L1113.89 27.2059 L1113.89 24.0462 Q1113.89 16.471 1117.41 13.0277 Q1120.94 9.54393 1128.59 9.54393 L1135.64 9.54393 Z" fill="#000000" fill-rule="evenodd" fill-opacity="1" /><path clip-path="url(#clip330)" d="M1168.57 12.096 L1176.76 12.096 L1176.76 72.576 L1168.57 72.576 L1168.57 12.096 Z" fill="#000000" fill-rule="evenodd" fill-opacity="1" /><path clip-path="url(#clip330)" d="M1230.43 45.1919 L1230.43 72.576 L1222.98 72.576 L1222.98 45.4349 Q1222.98 38.994 1220.47 35.7938 Q1217.95 32.5936 1212.93 32.5936 Q1206.9 32.5936 1203.41 36.4419 Q1199.93 40.2903 1199.93 46.9338 L1199.93 72.576 L1192.43 72.576 L1192.43 27.2059 L1199.93 27.2059 L1199.93 34.2544 Q1202.6 30.163 1206.21 28.1376 Q1209.85 26.1121 1214.59 26.1121 Q1222.41 26.1121 1226.42 30.9732 Q1230.43 35.7938 1230.43 45.1919 Z" fill="#000000" fill-rule="evenodd" fill-opacity="1" /><path clip-path="url(#clip330)" d="M1268.27 9.54393 L1268.27 15.7418 L1261.14 15.7418 Q1257.13 15.7418 1255.55 17.3622 Q1254.01 18.9825 1254.01 23.1955 L1254.01 27.2059 L1266.28 27.2059 L1266.28 32.9987 L1254.01 32.9987 L1254.01 72.576 L1246.51 72.576 L1246.51 32.9987 L1239.38 32.9987 L1239.38 27.2059 L1246.51 27.2059 L1246.51 24.0462 Q1246.51 16.471 1250.04 13.0277 Q1253.56 9.54393 1261.22 9.54393 L1268.27 9.54393 Z" fill="#000000" fill-rule="evenodd" fill-opacity="1" /><path clip-path="url(#clip330)" d="M1313.31 48.0275 L1313.31 51.6733 L1279.04 51.6733 Q1279.53 59.3701 1283.66 63.421 Q1287.83 67.4314 1295.25 67.4314 Q1299.54 67.4314 1303.55 66.3781 Q1307.6 65.3249 1311.57 63.2184 L1311.57 70.267 Q1307.56 71.9684 1303.35 72.8596 Q1299.14 73.7508 1294.8 73.7508 Q1283.94 73.7508 1277.58 67.4314 Q1271.26 61.1119 1271.26 50.3365 Q1271.26 39.1965 1277.26 32.6746 Q1283.3 26.1121 1293.5 26.1121 Q1302.66 26.1121 1307.97 32.0264 Q1313.31 37.9003 1313.31 48.0275 M1305.86 45.84 Q1305.78 39.7232 1302.42 36.0774 Q1299.09 32.4315 1293.59 32.4315 Q1287.35 32.4315 1283.58 35.9558 Q1279.85 39.4801 1279.29 45.8805 L1305.86 45.84 Z" fill="#000000" fill-rule="evenodd" fill-opacity="1" /><path clip-path="url(#clip330)" d="M1358.2 28.9478 L1358.2 35.9153 Q1355.04 34.1734 1351.84 33.3227 Q1348.68 32.4315 1345.44 32.4315 Q1338.19 32.4315 1334.18 37.0496 Q1330.17 41.6271 1330.17 49.9314 Q1330.17 58.2358 1334.18 62.8538 Q1338.19 67.4314 1345.44 67.4314 Q1348.68 67.4314 1351.84 66.5807 Q1355.04 65.6895 1358.2 63.9476 L1358.2 70.8341 Q1355.08 72.2924 1351.72 73.0216 Q1348.39 73.7508 1344.63 73.7508 Q1334.38 73.7508 1328.34 67.3098 Q1322.31 60.8689 1322.31 49.9314 Q1322.31 38.832 1328.38 32.472 Q1334.5 26.1121 1345.11 26.1121 Q1348.56 26.1121 1351.84 26.8413 Q1355.12 27.5299 1358.2 28.9478 Z" fill="#000000" fill-rule="evenodd" fill-opacity="1" /><path clip-path="url(#clip330)" d="M1378.53 14.324 L1378.53 27.2059 L1393.89 27.2059 L1393.89 32.9987 L1378.53 32.9987 L1378.53 57.6282 Q1378.53 63.1779 1380.03 64.7578 Q1381.57 66.3376 1386.23 66.3376 L1393.89 66.3376 L1393.89 72.576 L1386.23 72.576 Q1377.6 72.576 1374.32 69.3758 Q1371.04 66.1351 1371.04 57.6282 L1371.04 32.9987 L1365.57 32.9987 L1365.57 27.2059 L1371.04 27.2059 L1371.04 14.324 L1378.53 14.324 Z" fill="#000000" fill-rule="evenodd" fill-opacity="1" /><path clip-path="url(#clip330)" d="M1403.69 27.2059 L1411.14 27.2059 L1411.14 72.576 L1403.69 72.576 L1403.69 27.2059 M1403.69 9.54393 L1411.14 9.54393 L1411.14 18.9825 L1403.69 18.9825 L1403.69 9.54393 Z" fill="#000000" fill-rule="evenodd" fill-opacity="1" /><path clip-path="url(#clip330)" d="M1444.32 32.4315 Q1438.32 32.4315 1434.84 37.1306 Q1431.36 41.7891 1431.36 49.9314 Q1431.36 58.0738 1434.8 62.7728 Q1438.28 67.4314 1444.32 67.4314 Q1450.27 67.4314 1453.76 62.7323 Q1457.24 58.0333 1457.24 49.9314 Q1457.24 41.8701 1453.76 37.1711 Q1450.27 32.4315 1444.32 32.4315 M1444.32 26.1121 Q1454.04 26.1121 1459.59 32.4315 Q1465.14 38.7509 1465.14 49.9314 Q1465.14 61.0714 1459.59 67.4314 Q1454.04 73.7508 1444.32 73.7508 Q1434.56 73.7508 1429.01 67.4314 Q1423.5 61.0714 1423.5 49.9314 Q1423.5 38.7509 1429.01 32.4315 Q1434.56 26.1121 1444.32 26.1121 Z" fill="#000000" fill-rule="evenodd" fill-opacity="1" /><path clip-path="url(#clip330)" d="M1515.21 45.1919 L1515.21 72.576 L1507.76 72.576 L1507.76 45.4349 Q1507.76 38.994 1505.25 35.7938 Q1502.73 32.5936 1497.71 32.5936 Q1491.67 32.5936 1488.19 36.4419 Q1484.71 40.2903 1484.71 46.9338 L1484.71 72.576 L1477.21 72.576 L1477.21 27.2059 L1484.71 27.2059 L1484.71 34.2544 Q1487.38 30.163 1490.99 28.1376 Q1494.63 26.1121 1499.37 26.1121 Q1507.19 26.1121 1511.2 30.9732 Q1515.21 35.7938 1515.21 45.1919 Z" fill="#000000" fill-rule="evenodd" fill-opacity="1" /><path clip-path="url(#clip330)" d="M1559 28.5427 L1559 35.5912 Q1555.84 33.9709 1552.44 33.1607 Q1549.04 32.3505 1545.39 32.3505 Q1539.84 32.3505 1537.04 34.0519 Q1534.29 35.7533 1534.29 39.156 Q1534.29 41.7486 1536.28 43.2475 Q1538.26 44.7058 1544.26 46.0426 L1546.81 46.6097 Q1554.75 48.3111 1558.07 51.4303 Q1561.43 54.509 1561.43 60.0587 Q1561.43 66.3781 1556.41 70.0644 Q1551.43 73.7508 1542.68 73.7508 Q1539.03 73.7508 1535.06 73.0216 Q1531.13 72.3329 1526.76 70.9151 L1526.76 63.2184 Q1530.89 65.3654 1534.9 66.4591 Q1538.91 67.5124 1542.84 67.5124 Q1548.1 67.5124 1550.94 65.73 Q1553.77 63.9071 1553.77 60.6258 Q1553.77 57.5877 1551.71 55.9673 Q1549.68 54.3469 1542.76 52.8481 L1540.16 52.2405 Q1533.24 50.7821 1530.16 47.7845 Q1527.08 44.7463 1527.08 39.4801 Q1527.08 33.0797 1531.62 29.5959 Q1536.15 26.1121 1544.5 26.1121 Q1548.63 26.1121 1552.28 26.7198 Q1555.92 27.3274 1559 28.5427 Z" fill="#000000" fill-rule="evenodd" fill-opacity="1" /><path clip-path="url(#clip330)" d="M1600 12.096 L1638.24 12.096 L1638.24 18.9825 L1608.18 18.9825 L1608.18 36.8875 L1636.98 36.8875 L1636.98 43.7741 L1608.18 43.7741 L1608.18 65.6895 L1638.97 65.6895 L1638.97 72.576 L1600 72.576 L1600 12.096 Z" fill="#000000" fill-rule="evenodd" fill-opacity="1" /><path clip-path="url(#clip330)" d="M1689.8 45.1919 L1689.8 72.576 L1682.35 72.576 L1682.35 45.4349 Q1682.35 38.994 1679.84 35.7938 Q1677.33 32.5936 1672.3 32.5936 Q1666.27 32.5936 1662.78 36.4419 Q1659.3 40.2903 1659.3 46.9338 L1659.3 72.576 L1651.81 72.576 L1651.81 27.2059 L1659.3 27.2059 L1659.3 34.2544 Q1661.97 30.163 1665.58 28.1376 Q1669.23 26.1121 1673.97 26.1121 Q1681.78 26.1121 1685.79 30.9732 Q1689.8 35.7938 1689.8 45.1919 Z" fill="#000000" fill-rule="evenodd" fill-opacity="1" /><path clip-path="url(#clip330)" d="M1733.59 28.5427 L1733.59 35.5912 Q1730.43 33.9709 1727.03 33.1607 Q1723.63 32.3505 1719.98 32.3505 Q1714.43 32.3505 1711.64 34.0519 Q1708.88 35.7533 1708.88 39.156 Q1708.88 41.7486 1710.87 43.2475 Q1712.85 44.7058 1718.85 46.0426 L1721.4 46.6097 Q1729.34 48.3111 1732.66 51.4303 Q1736.03 54.509 1736.03 60.0587 Q1736.03 66.3781 1731 70.0644 Q1726.02 73.7508 1717.27 73.7508 Q1713.62 73.7508 1709.65 73.0216 Q1705.72 72.3329 1701.35 70.9151 L1701.35 63.2184 Q1705.48 65.3654 1709.49 66.4591 Q1713.5 67.5124 1717.43 67.5124 Q1722.7 67.5124 1725.53 65.73 Q1728.37 63.9071 1728.37 60.6258 Q1728.37 57.5877 1726.3 55.9673 Q1724.28 54.3469 1717.35 52.8481 L1714.76 52.2405 Q1707.83 50.7821 1704.75 47.7845 Q1701.67 44.7463 1701.67 39.4801 Q1701.67 33.0797 1706.21 29.5959 Q1710.75 26.1121 1719.09 26.1121 Q1723.22 26.1121 1726.87 26.7198 Q1730.52 27.3274 1733.59 28.5427 Z" fill="#000000" fill-rule="evenodd" fill-opacity="1" /><path clip-path="url(#clip330)" d="M1786.7 48.0275 L1786.7 51.6733 L1752.43 51.6733 Q1752.92 59.3701 1757.05 63.421 Q1761.22 67.4314 1768.63 67.4314 Q1772.93 67.4314 1776.94 66.3781 Q1780.99 65.3249 1784.96 63.2184 L1784.96 70.267 Q1780.95 71.9684 1776.74 72.8596 Q1772.52 73.7508 1768.19 73.7508 Q1757.33 73.7508 1750.97 67.4314 Q1744.65 61.1119 1744.65 50.3365 Q1744.65 39.1965 1750.65 32.6746 Q1756.68 26.1121 1766.89 26.1121 Q1776.05 26.1121 1781.35 32.0264 Q1786.7 37.9003 1786.7 48.0275 M1779.25 45.84 Q1779.17 39.7232 1775.8 36.0774 Q1772.48 32.4315 1766.97 32.4315 Q1760.74 32.4315 1756.97 35.9558 Q1753.24 39.4801 1752.67 45.8805 L1779.25 45.84 Z" fill="#000000" fill-rule="evenodd" fill-opacity="1" /><path clip-path="url(#clip330)" d="M1834.26 35.9153 Q1837.05 30.8922 1840.94 28.5022 Q1844.83 26.1121 1850.1 26.1121 Q1857.19 26.1121 1861.04 31.0947 Q1864.88 36.0368 1864.88 45.1919 L1864.88 72.576 L1857.39 72.576 L1857.39 45.4349 Q1857.39 38.913 1855.08 35.7533 Q1852.77 32.5936 1848.03 32.5936 Q1842.24 32.5936 1838.88 36.4419 Q1835.52 40.2903 1835.52 46.9338 L1835.52 72.576 L1828.02 72.576 L1828.02 45.4349 Q1828.02 38.8725 1825.71 35.7533 Q1823.4 32.5936 1818.58 32.5936 Q1812.87 32.5936 1809.51 36.4824 Q1806.15 40.3308 1806.15 46.9338 L1806.15 72.576 L1798.65 72.576 L1798.65 27.2059 L1806.15 27.2059 L1806.15 34.2544 Q1808.7 30.082 1812.26 28.0971 Q1815.83 26.1121 1820.73 26.1121 Q1825.67 26.1121 1829.11 28.6237 Q1832.6 31.1352 1834.26 35.9153 Z" fill="#000000" fill-rule="evenodd" fill-opacity="1" /><path clip-path="url(#clip330)" d="M1912.32 49.9314 Q1912.32 41.7081 1908.92 37.0496 Q1905.56 32.3505 1899.64 32.3505 Q1893.73 32.3505 1890.32 37.0496 Q1886.96 41.7081 1886.96 49.9314 Q1886.96 58.1548 1890.32 62.8538 Q1893.73 67.5124 1899.64 67.5124 Q1905.56 67.5124 1908.92 62.8538 Q1912.32 58.1548 1912.32 49.9314 M1886.96 34.0924 Q1889.31 30.0415 1892.88 28.0971 Q1896.48 26.1121 1901.46 26.1121 Q1909.73 26.1121 1914.87 32.6746 Q1920.06 39.2371 1920.06 49.9314 Q1920.06 60.6258 1914.87 67.1883 Q1909.73 73.7508 1901.46 73.7508 Q1896.48 73.7508 1892.88 71.8063 Q1889.31 69.8214 1886.96 65.7705 L1886.96 72.576 L1879.47 72.576 L1879.47 9.54393 L1886.96 9.54393 L1886.96 34.0924 Z" fill="#000000" fill-rule="evenodd" fill-opacity="1" /><path clip-path="url(#clip330)" d="M1932.41 9.54393 L1939.87 9.54393 L1939.87 72.576 L1932.41 72.576 L1932.41 9.54393 Z" fill="#000000" fill-rule="evenodd" fill-opacity="1" /><path clip-path="url(#clip330)" d="M1994.27 48.0275 L1994.27 51.6733 L1960 51.6733 Q1960.49 59.3701 1964.62 63.421 Q1968.79 67.4314 1976.2 67.4314 Q1980.5 67.4314 1984.51 66.3781 Q1988.56 65.3249 1992.53 63.2184 L1992.53 70.267 Q1988.52 71.9684 1984.31 72.8596 Q1980.09 73.7508 1975.76 73.7508 Q1964.9 73.7508 1958.54 67.4314 Q1952.22 61.1119 1952.22 50.3365 Q1952.22 39.1965 1958.22 32.6746 Q1964.25 26.1121 1974.46 26.1121 Q1983.62 26.1121 1988.92 32.0264 Q1994.27 37.9003 1994.27 48.0275 M1986.82 45.84 Q1986.74 39.7232 1983.37 36.0774 Q1980.05 32.4315 1974.54 32.4315 Q1968.3 32.4315 1964.54 35.9558 Q1960.81 39.4801 1960.24 45.8805 L1986.82 45.84 Z" fill="#000000" fill-rule="evenodd" fill-opacity="1" /><path clip-path="url(#clip333)" d="
M338.375 1386.23 L338.428 1386.23 L338.44 1386.23 L338.455 1386.23 L338.471 1386.23 L338.488 1386.23 L338.509 1386.23 L338.531 1386.23 L338.557 1386.23 L338.586 1386.23 
  L338.618 1386.23 L338.655 1386.23 L338.696 1386.23 L338.742 1386.23 L338.793 1386.23 L338.852 1386.23 L338.917 1386.23 L338.991 1386.24 L339.074 1386.24 L339.168 1386.24 
  L339.273 1386.24 L339.391 1386.24 L339.524 1386.24 L339.674 1386.24 L339.842 1386.24 L340.032 1386.24 L340.24 1386.24 L340.467 1386.25 L340.712 1386.25 L340.973 1386.25 
  L341.248 1386.25 L341.537 1386.25 L341.84 1386.25 L342.154 1386.26 L342.479 1386.26 L342.812 1386.26 L343.154 1386.26 L343.504 1386.27 L343.859 1386.27 L344.219 1386.27 
  L344.584 1386.27 L344.956 1386.27 L345.333 1386.28 L345.713 1386.28 L346.095 1386.28 L346.482 1386.28 L346.872 1386.29 L347.267 1386.29 L347.665 1386.29 L348.066 1386.29 
  L348.471 1386.29 L348.879 1386.3 L349.288 1386.3 L349.7 1386.3 L350.114 1386.3 L350.532 1386.3 L350.951 1386.31 L351.373 1386.31 L351.8 1386.31 L352.23 1386.31 
  L352.66 1386.31 L353.095 1386.32 L353.533 1386.32 L353.972 1386.32 L354.414 1386.32 L354.863 1386.32 L355.314 1386.33 L355.77 1386.33 L356.231 1386.33 L356.695 1386.33 
  L357.16 1386.33 L357.631 1386.34 L358.105 1386.34 L358.58 1386.34 L359.058 1386.34 L359.542 1386.34 L360.029 1386.35 L360.518 1386.35 L361.013 1386.35 L361.513 1386.35 
  L362.019 1386.35 L362.528 1386.35 L363.04 1386.36 L363.559 1386.36 L364.088 1386.36 L364.623 1386.36 L365.163 1386.36 L365.708 1386.36 L366.26 1386.36 L366.818 1386.37 
  L367.38 1386.37 L367.95 1386.37 L368.527 1386.37 L369.107 1386.37 L369.689 1386.37 L370.268 1386.38 L370.86 1386.38 L371.462 1386.38 L372.076 1386.38 L372.702 1386.38 
  L373.335 1386.38 L373.977 1386.38 L374.629 1386.39 L375.304 1386.39 L375.995 1386.39 L376.689 1386.39 L377.395 1386.39 L378.109 1386.39 L378.834 1386.39 L379.574 1386.39 
  L380.328 1386.39 L381.097 1386.39 L381.881 1386.39 L382.681 1386.39 L383.514 1386.4 L384.367 1386.4 L385.24 1386.4 L386.135 1386.4 L387.047 1386.4 L387.959 1386.4 
  L388.893 1386.39 L389.856 1386.39 L390.841 1386.39 L391.841 1386.39 L392.873 1386.39 L393.945 1386.39 L395.038 1386.39 L396.142 1386.39 L397.274 1386.39 L398.421 1386.39 
  L399.575 1386.39 L400.767 1386.39 L402.005 1386.39 L403.305 1386.39 L404.651 1386.39 L405.957 1386.39 L407.313 1386.38 L408.706 1386.38 L410.111 1386.38 L411.575 1386.38 
  L413.044 1386.37 L414.527 1386.37 L415.978 1386.37 L417.438 1386.37 L418.879 1386.36 L420.33 1386.36 L421.828 1386.36 L423.417 1386.36 L425.127 1386.35 L426.868 1386.35 
  L428.63 1386.34 L430.472 1386.34 L432.463 1386.34 L434.576 1386.33 L436.827 1386.33 L439.183 1386.32 L441.558 1386.32 L444.21 1386.31 L447.1 1386.3 L450.095 1386.28 
  L453.313 1386.27 L456.02 1386.26 L458.719 1386.25 L461.537 1386.23 L464.268 1386.22 L467.024 1386.21 L470.056 1386.2 L472.955 1386.18 L475.961 1386.17 L479.046 1386.16 
  L482.141 1386.14 L485.259 1386.12 L488.539 1386.1 L491.928 1386.08 L495.342 1386.07 L498.635 1386.05 L501.971 1386.02 L505.414 1385.99 L509.285 1385.96 L513.314 1385.93 
  L517.846 1385.91 L522.912 1385.87 L528.611 1385.82 L535.023 1385.75 L542.236 1385.68 L547.991 1385.61 L554.465 1385.53 L560.444 1385.47 L567.169 1385.39 L574.225 1385.32 
  L579.233 1385.24 L584.867 1385.13 L590.181 1385.03 L595.138 1384.93 L600.714 1384.84 L606.988 1384.75 L614.045 1384.63 L621.985 1384.48 L629.611 1384.31 L638.189 1384.12 
  L645.767 1383.95 L654.292 1383.74 L658.186 1383.64 L662.567 1383.53 L667.495 1383.38 L673.015 1383.17 L679.225 1382.92 L684.375 1382.69 L690.17 1382.52 L695.494 1382.41 
  L700.83 1382.21 L705.914 1382 L711.288 1381.76 L716.538 1381.53 L722.445 1381.19 L728.16 1380.88 L733.229 1380.63 L738.932 1380.26 L745.347 1379.79 L752.564 1379.35 
  L760.684 1378.94 L764.429 1378.73 L768.642 1378.47 L773.382 1378.16 L778.715 1377.8 L784.714 1377.33 L791.463 1376.74 L795.881 1376.29 L800.851 1375.76 L806.122 1375.16 
  L811.72 1374.53 L818.017 1373.79 L825.101 1372.84 L830.724 1372.15 L836.671 1371.49 L843.361 1370.68 L850.124 1369.56 L857.733 1368.48 L866.293 1367.22 L875.923 1365.54 
  L886.533 1363.32 L895.011 1361.71 L904.55 1359.74 L915.28 1357.02 L920.594 1355.37 L924.972 1353.94 L929.625 1352.27 L934.117 1350.6 L938.615 1348.86 L943.189 1346.97 
  L947.787 1345.57 L952.192 1344.21 L957.148 1342.55 L961.886 1340.88 L966.313 1339.15 L970.897 1337.34 L975.552 1335.47 L980.789 1333.27 L985.674 1330.99 L991.169 1328.29 
  L995.893 1326.02 L999.96 1324.11 L1003.85 1321.77 L1007.52 1319.86 L1011.52 1317.76 L1015.7 1315.56 L1019.56 1312.84 L1023.3 1310.07 L1027.42 1307.9 L1031.35 1305.63 
  L1035.58 1302.62 L1040.34 1299.16 L1045.7 1295.2 L1049.51 1292.34 L1053.64 1289.01 L1058.28 1284.78 L1063.51 1280.62 L1069.15 1276.35 L1075.5 1270.78 L1080.7 1265.48 
  L1086.04 1259.32 L1091.91 1254.18 L1097.82 1249.19 L1104.48 1240.92 L1111.67 1230.13 L1119.16 1218.63 L1126.7 1206.19 L1134.22 1196.36 L1141.4 1185.3 L1149.06 1176.84 
  L1156.36 1166.97 L1162.85 1154.8 L1169.22 1142.8 L1174.59 1138.62 L1180.23 1129.76 L1185.43 1119.98 L1190.68 1108 L1196.16 1094.72 L1201.4 1081.61 L1206.51 1069.33 
  L1211.62 1058.4 L1216.67 1047.41 L1221.53 1036.57 L1226.02 1025.7 L1230.41 1017.48 L1234.72 1009.43 L1238.93 1000.62 L1243.04 991.232 L1247.08 983.23 L1251.11 975.491 
  L1255.07 967.957 L1258.98 960.277 L1262.85 952.295 L1266.63 943.92 L1270.37 934.502 L1274.07 925.429 L1277.72 916.192 L1281.25 907.196 L1284.74 898.356 L1288.13 889.268 
  L1291.54 879.542 L1294.9 869.784 L1298.17 859.996 L1301.43 849.955 L1304.68 840.407 L1307.9 831.09 L1311.09 822.019 L1314.25 813.343 L1317.38 805.775 L1320.5 798.13 
  L1323.59 794.292 L1326.67 791.562 L1329.68 788.505 L1332.6 785.057 L1335.49 782.046 L1338.36 778.381 L1341.08 774.634 L1343.63 771.083 L1346.17 767.609 L1348.69 764.258 
  L1351.24 761.415 L1353.79 758.706 L1356.38 756.088 L1358.97 753.656 L1361.59 752.157 L1364.26 750.856 L1366.98 749.459 L1369.76 747.938 L1372.56 739.321 L1375.35 725.884 
  L1378.09 722.974 L1380.79 721.928 L1383.52 720.844 L1386.24 720.237 L1388.99 719.898 L1391.76 719.608 L1394.45 720.545 L1397.13 722.262 L1399.76 724.096 L1402.32 719.875 
  L1404.77 726.464 L1407.15 728.021 L1409.4 729.895 L1411.73 738.579 L1414.11 747.534 L1416.49 756.643 L1418.98 766.344 L1421.62 767.185 L1424.34 768.045 L1427.13 768.785 
  L1429.99 769.172 L1432.92 768.897 L1435.89 768.544 L1438.89 767.789 L1441.92 766.422 L1445.01 761.394 L1448.13 756.59 L1451.29 761.343 L1454.48 761.963 L1457.67 770.207 
  L1460.78 777.964 L1463.99 785.561 L1467.2 792.601 L1470.5 799.329 L1473.81 805.936 L1477.15 812.564 L1480.53 818.963 L1483.86 824.813 L1487.24 830.013 L1490.67 834.284 
  L1494.11 839.162 L1497.61 846.035 L1501.11 858.837 L1504.67 866.122 L1508.17 866.351 L1511.6 873.148 L1515.14 885.976 L1518.65 898.396 L1522.17 910.859 L1525.7 922.977 
  L1529.17 934.375 L1532.68 945.467 L1536.27 956.675 L1539.88 967.884 L1543.36 977.355 L1547.07 984.737 L1550.74 991.719 L1554.24 998.285 L1557.87 1005.25 L1561.69 1012.03 
  L1565.51 1018.6 L1569.43 1025.15 L1573.42 1032.94 L1577.49 1043.16 L1581.63 1053.27 L1585.57 1062.6 L1589.51 1069.36 L1593.2 1074.91 L1596.87 1080.48 L1600.41 1086.09 
  L1604.06 1091.94 L1607.77 1097.98 L1611.79 1104.49 L1615.93 1111.24 L1620.2 1117.97 L1624.67 1125 L1629.19 1132.08 L1634.06 1140.61 L1638.88 1149.43 L1643.8 1158.02 
  L1648.37 1165.71 L1652.7 1172.7 L1657.07 1179.62 L1661.44 1186.38 L1665.98 1193.14 L1670.48 1199.69 L1675.32 1206.63 L1680.17 1213.15 L1685.62 1220.19 L1691.24 1227.05 
  L1697.32 1234.45 L1703.42 1241.67 L1709.4 1248.53 L1716.02 1255.96 L1722.04 1261.89 L1727.85 1266.78 L1734 1271.61 L1739.52 1275.78 L1745.61 1280.23 L1752.16 1284.85 
  L1759.53 1289.93 L1765.94 1294.21 L1771.1 1297.51 L1776.74 1300.94 L1782.11 1304.07 L1787.43 1307.05 L1791.85 1309.46 L1796.27 1311.78 L1800.19 1313.77 L1803.7 1315.51 
  L1807.08 1317.2 L1810.7 1319.01 L1814.46 1320.79 L1818.02 1322.42 L1822.03 1324.18 L1826.53 1326.06 L1831.6 1328.08 L1837.31 1330.34 L1843.72 1332.92 L1849.72 1335.22 
  L1856.46 1337.77 L1862.96 1340.07 L1870.28 1342.36 L1878.51 1344.62 L1885.67 1346.37 L1893.18 1348.08 L1900.53 1349.73 L1907.97 1351.38 L1914.48 1353.25 L1920.21 1354.83 
  L1926.13 1356.39 L1931.57 1357.79 L1937.14 1359.19 L1942.45 1360.47 L1947.75 1361.68 L1952.1 1362.62 L1956.58 1363.55 L1961.21 1364.45 L1965.77 1365.29 L1970.1 1366.05 
  L1973.87 1366.68 L1977.56 1367.27 L1981.33 1367.85 L1985.56 1368.47 L1989.89 1369.07 L1994.75 1369.73 L1999.43 1370.33 L2004.69 1370.99 L2010.61 1371.7 L2017.27 1372.48 
  L2023.44 1373.19 L2030.38 1373.92 L2038.18 1374.71 L2046.34 1375.47 L2053.77 1376.14 L2062.12 1376.84 L2071.51 1377.57 L2080.51 1378.21 L2090.63 1378.87 L2097.16 1379.3 
  L2104.51 1379.77 L2110.03 1380.12 L2116.23 1380.49 L2122.03 1380.81 L2128.56 1381.15 L2135.9 1381.51 L2142.71 1381.81 L2149.89 1382.1 L2157.97 1382.41 L2162.51 1382.57 
  L2167.63 1382.74 L2173.38 1382.93 L2179.76 1383.12 L2185.11 1383.27 L2191.13 1383.43 L2197.89 1383.61 L2203.56 1383.75 L2209.94 1383.91 L2217.11 1384.07 L2225.18 1384.24 
  L2234.26 1384.42 L2239.94 1384.53 L2246.33 1384.64 L2252.48 1384.74 L2259.4 1384.84 L2264.02 1384.92 L2268.6 1384.98 L2273.15 1385.06 L2277.12 1385.11 L2281.46 1385.18 
  L2286.35 1385.23 L2291.1 1385.28 L2294.08 1385.31 L2294.08 1366.08 L2291.1 1365.67 L2286.35 1365.01 L2281.46 1364.33 L2277.12 1363.71 L2273.15 1363.14 L2268.6 1362.49 
  L2264.02 1361.84 L2259.4 1361.18 L2252.48 1360.18 L2246.33 1359.27 L2239.94 1358.31 L2234.26 1357.44 L2225.18 1355.91 L2217.11 1354.47 L2209.94 1353.12 L2203.56 1351.86 
  L2197.89 1350.73 L2191.13 1349.31 L2185.11 1347.67 L2179.76 1346.13 L2173.38 1344.26 L2167.63 1342.48 L2162.51 1340.8 L2157.97 1339.22 L2149.89 1336.81 L2142.71 1334.69 
  L2135.9 1332.58 L2128.56 1330.26 L2122.03 1328.15 L2116.23 1326.19 L2110.03 1324.01 L2104.51 1322.19 L2097.16 1319.51 L2090.63 1316.64 L2080.51 1311.76 L2071.51 1307.39 
  L2062.12 1302.49 L2053.77 1297.82 L2046.34 1293.37 L2038.18 1288.04 L2030.38 1282.7 L2023.44 1277.59 L2017.27 1273.35 L2010.61 1269.86 L2004.69 1266.79 L1999.43 1264.18 
  L1994.75 1260.97 L1989.89 1256.56 L1985.56 1252.53 L1981.33 1248.55 L1977.56 1244.84 L1973.87 1241.18 L1970.1 1237.62 L1965.77 1234.34 L1961.21 1230.85 L1956.58 1227.23 
  L1952.1 1223.69 L1947.75 1219.69 L1942.45 1214.81 L1937.14 1209.46 L1931.57 1203.82 L1926.13 1198.35 L1920.21 1191.62 L1914.48 1184.78 L1907.97 1177.25 L1900.53 1168.59 
  L1893.18 1161.58 L1885.67 1153.98 L1878.51 1145.72 L1870.28 1135.69 L1862.96 1126.71 L1856.46 1118.3 L1849.72 1109.87 L1843.72 1102.41 L1837.31 1093.85 L1831.6 1085.45 
  L1826.53 1077.54 L1822.03 1070.31 L1818.02 1063.68 L1814.46 1057.59 L1810.7 1050.93 L1807.08 1044.28 L1803.7 1037.58 L1800.19 1030.72 L1796.27 1023.16 L1791.85 1014.52 
  L1787.43 1005.29 L1782.11 993.721 L1776.74 983.078 L1771.1 974.221 L1765.94 960.599 L1759.53 947.264 L1752.16 931.688 L1745.61 917.885 L1739.52 905.178 L1734 894.089 
  L1727.85 881.578 L1722.04 869.128 L1716.02 855.475 L1709.4 840.535 L1703.42 826.729 L1697.32 816.683 L1691.24 815.994 L1685.62 802.08 L1680.17 787.305 L1675.32 775.54 
  L1670.48 764.422 L1665.98 748.83 L1661.44 741.99 L1657.07 735.691 L1652.7 728.183 L1648.37 720.721 L1643.8 713.592 L1638.88 706.317 L1634.06 698.737 L1629.19 687.941 
  L1624.67 668.43 L1620.2 649.726 L1615.93 632.158 L1611.79 624.311 L1607.77 618.308 L1604.06 613.166 L1600.41 608.681 L1596.87 605.282 L1593.2 589.897 L1589.51 572.86 
  L1585.57 554.192 L1581.63 535.116 L1577.49 514.6 L1573.42 497.908 L1569.43 501.619 L1565.51 505.87 L1561.69 510.069 L1557.87 514.435 L1554.24 516.51 L1550.74 507.521 
  L1547.07 497.861 L1543.36 487.016 L1539.88 476.199 L1536.27 465.335 L1532.68 454.909 L1529.17 445.078 L1525.7 435.589 L1522.17 426.348 L1518.65 417.392 L1515.14 411.886 
  L1511.6 411.243 L1508.17 411.467 L1504.67 410.416 L1501.11 401.382 L1497.61 387.841 L1494.11 376.237 L1490.67 372.287 L1487.24 369.699 L1483.86 368.12 L1480.53 365.718 
  L1477.15 363.971 L1473.81 363.013 L1470.5 360.282 L1467.2 354.471 L1463.99 349.609 L1460.78 350.236 L1457.67 344.837 L1454.48 339.812 L1451.29 337.579 L1448.13 336.265 
  L1445.01 329.772 L1441.92 312.928 L1438.89 296.436 L1435.89 280.315 L1432.92 264.91 L1429.99 263.746 L1427.13 268.474 L1424.34 273.522 L1421.62 278.082 L1418.98 274.915 
  L1416.49 270.85 L1414.11 267.1 L1411.73 262.786 L1409.4 258.272 L1407.15 253.797 L1404.77 249.134 L1402.32 244.763 L1399.76 241.115 L1397.13 239.851 L1394.45 251.595 
  L1391.76 263.529 L1388.99 269.158 L1386.24 263.73 L1383.52 257.767 L1380.79 252.328 L1378.09 247.189 L1375.35 242.453 L1372.56 238.148 L1369.76 235.046 L1366.98 232.167 
  L1364.26 229.544 L1361.59 224.666 L1358.97 224.613 L1356.38 222.909 L1353.79 221.409 L1351.24 213.121 L1348.69 212.134 L1346.17 213.313 L1343.63 213.374 L1341.08 209.393 
  L1338.36 205.336 L1335.49 200.935 L1332.6 195.829 L1329.68 189.153 L1326.67 190.627 L1323.59 193.016 L1320.5 192.868 L1317.38 194.193 L1314.25 187.283 L1311.09 195.229 
  L1307.9 200.551 L1304.68 193.809 L1301.43 198.78 L1298.17 178.837 L1294.9 170.305 L1291.54 163.411 L1288.13 160.256 L1284.74 165.203 L1281.25 169.604 L1277.72 176.646 
  L1274.07 186.589 L1270.37 195.482 L1266.63 202.743 L1262.85 209.305 L1258.98 216.388 L1255.07 217.553 L1251.11 220.717 L1247.08 223.077 L1243.04 226.162 L1238.93 231.755 
  L1234.72 239.438 L1230.41 250.99 L1226.02 265.866 L1221.53 284.975 L1216.67 306.821 L1211.62 330.914 L1206.51 356.839 L1201.4 384.576 L1196.16 410.451 L1190.68 416.981 
  L1185.43 432.603 L1180.23 462.612 L1174.59 498.441 L1169.22 532.445 L1162.85 566.188 L1156.36 594.622 L1149.06 623.414 L1141.4 662.91 L1134.22 701.778 L1126.7 743.6 
  L1119.16 784.768 L1111.67 820.662 L1104.48 853.349 L1097.82 883.57 L1091.91 912.151 L1086.04 934.969 L1080.7 952.428 L1075.5 970.016 L1069.15 990.82 L1063.51 1008.9 
  L1058.28 1024.71 L1053.64 1037.13 L1049.51 1050.91 L1045.7 1061.35 L1040.34 1075.54 L1035.58 1087.76 L1031.35 1098.21 L1027.42 1104.59 L1023.3 1111.52 L1019.56 1120.66 
  L1015.7 1131.76 L1011.52 1143.64 L1007.52 1152.85 L1003.85 1159.07 L999.96 1165.16 L995.893 1170.8 L991.169 1178.84 L985.674 1190.54 L980.789 1199.06 L975.552 1204.64 
  L970.897 1209.83 L966.313 1215.03 L961.886 1220.54 L957.148 1226.38 L952.192 1232.36 L947.787 1237.39 L943.189 1242.72 L938.615 1249.42 L934.117 1255.69 L929.625 1261.61 
  L924.972 1266.96 L920.594 1272.07 L915.28 1278.21 L904.55 1289.96 L895.011 1298.87 L886.533 1305.54 L875.923 1314.19 L866.293 1319.6 L857.733 1324.8 L850.124 1328.84 
  L843.361 1332.8 L836.671 1336.75 L830.724 1339.54 L825.101 1341.69 L818.017 1344.64 L811.72 1347.49 L806.122 1349.71 L800.851 1351.62 L795.881 1353.35 L791.463 1354.82 
  L784.714 1356.79 L778.715 1358.35 L773.382 1359.7 L768.642 1360.86 L764.429 1361.8 L760.684 1362.55 L752.564 1364.25 L745.347 1365.6 L738.932 1366.78 L733.229 1367.88 
  L728.16 1369.05 L722.445 1370.07 L716.538 1370.94 L711.288 1371.74 L705.914 1372.69 L700.83 1373.53 L695.494 1374.26 L690.17 1374.97 L684.375 1375.71 L679.225 1376.33 
  L673.015 1377.08 L667.495 1377.72 L662.567 1378.25 L658.186 1378.68 L654.292 1379.05 L645.767 1379.7 L638.189 1380.18 L629.611 1380.77 L621.985 1381.38 L614.045 1381.8 
  L606.988 1382.12 L600.714 1382.38 L595.138 1382.61 L590.181 1382.82 L584.867 1383.05 L579.233 1383.28 L574.225 1383.46 L567.169 1383.7 L560.444 1383.91 L554.465 1384.11 
  L547.991 1384.31 L542.236 1384.48 L535.023 1384.69 L528.611 1384.85 L522.912 1384.96 L517.846 1385.07 L513.314 1385.18 L509.285 1385.26 L505.414 1385.33 L501.971 1385.39 
  L498.635 1385.45 L495.342 1385.5 L491.928 1385.55 L488.539 1385.6 L485.259 1385.65 L482.141 1385.69 L479.046 1385.73 L475.961 1385.77 L472.955 1385.81 L470.056 1385.84 
  L467.024 1385.87 L464.268 1385.9 L461.537 1385.92 L458.719 1385.95 L456.02 1385.97 L453.313 1385.98 L450.095 1386.01 L447.1 1386.03 L444.21 1386.05 L441.558 1386.06 
  L439.183 1386.08 L436.827 1386.1 L434.576 1386.12 L432.463 1386.13 L430.472 1386.15 L428.63 1386.16 L426.868 1386.17 L425.127 1386.18 L423.417 1386.19 L421.828 1386.19 
  L420.33 1386.2 L418.879 1386.21 L417.438 1386.22 L415.978 1386.23 L414.527 1386.23 L413.044 1386.24 L411.575 1386.25 L410.111 1386.26 L408.706 1386.27 L407.313 1386.27 
  L405.957 1386.28 L404.651 1386.28 L403.305 1386.29 L402.005 1386.29 L400.767 1386.3 L399.575 1386.3 L398.421 1386.3 L397.274 1386.3 L396.142 1386.3 L395.038 1386.31 
  L393.945 1386.31 L392.873 1386.31 L391.841 1386.31 L390.841 1386.31 L389.856 1386.32 L388.893 1386.32 L387.959 1386.32 L387.047 1386.32 L386.135 1386.32 L385.24 1386.33 
  L384.367 1386.33 L383.514 1386.33 L382.681 1386.33 L381.881 1386.33 L381.097 1386.33 L380.328 1386.33 L379.574 1386.33 L378.834 1386.33 L378.109 1386.33 L377.395 1386.33 
  L376.689 1386.33 L375.995 1386.33 L375.304 1386.33 L374.629 1386.33 L373.977 1386.33 L373.335 1386.33 L372.702 1386.33 L372.076 1386.33 L371.462 1386.33 L370.86 1386.33 
  L370.268 1386.33 L369.689 1386.33 L369.107 1386.33 L368.527 1386.33 L367.95 1386.33 L367.38 1386.33 L366.818 1386.33 L366.26 1386.33 L365.708 1386.33 L365.163 1386.33 
  L364.623 1386.33 L364.088 1386.33 L363.559 1386.33 L363.04 1386.33 L362.528 1386.32 L362.019 1386.32 L361.513 1386.32 L361.013 1386.32 L360.518 1386.32 L360.029 1386.32 
  L359.542 1386.32 L359.058 1386.32 L358.58 1386.32 L358.105 1386.32 L357.631 1386.31 L357.16 1386.31 L356.695 1386.31 L356.231 1386.31 L355.77 1386.31 L355.314 1386.31 
  L354.863 1386.31 L354.414 1386.31 L353.972 1386.31 L353.533 1386.3 L353.095 1386.3 L352.66 1386.3 L352.23 1386.3 L351.8 1386.3 L351.373 1386.3 L350.951 1386.3 
  L350.532 1386.29 L350.114 1386.29 L349.7 1386.29 L349.288 1386.29 L348.879 1386.29 L348.471 1386.29 L348.066 1386.28 L347.665 1386.28 L347.267 1386.28 L346.872 1386.28 
  L346.482 1386.28 L346.095 1386.28 L345.713 1386.27 L345.333 1386.27 L344.956 1386.27 L344.584 1386.27 L344.219 1386.27 L343.859 1386.26 L343.504 1386.26 L343.154 1386.26 
  L342.812 1386.26 L342.479 1386.26 L342.154 1386.25 L341.84 1386.25 L341.537 1386.25 L341.248 1386.25 L340.973 1386.25 L340.712 1386.25 L340.467 1386.24 L340.24 1386.24 
  L340.032 1386.24 L339.842 1386.24 L339.674 1386.24 L339.524 1386.24 L339.391 1386.24 L339.273 1386.24 L339.168 1386.24 L339.074 1386.24 L338.991 1386.24 L338.917 1386.23 
  L338.852 1386.23 L338.793 1386.23 L338.742 1386.23 L338.696 1386.23 L338.655 1386.23 L338.618 1386.23 L338.586 1386.23 L338.557 1386.23 L338.531 1386.23 L338.509 1386.23 
  L338.488 1386.23 L338.471 1386.23 L338.455 1386.23 L338.44 1386.23 L338.428 1386.23 L338.375 1386.23  Z
  " fill="#009af9" fill-rule="evenodd" fill-opacity="0.2"/>
<polyline clip-path="url(#clip333)" style="stroke:#009af9; stroke-linecap:butt; stroke-linejoin:round; stroke-width:12; stroke-opacity:1; fill:none" points="
  338.375,1386.23 338.428,1386.23 338.44,1386.23 338.455,1386.23 338.471,1386.23 338.488,1386.23 338.509,1386.23 338.531,1386.23 338.557,1386.23 338.586,1386.23 
  338.618,1386.23 338.655,1386.23 338.696,1386.23 338.742,1386.23 338.793,1386.23 338.852,1386.23 338.917,1386.23 338.991,1386.24 339.074,1386.24 339.168,1386.24 
  339.273,1386.24 339.391,1386.24 339.524,1386.24 339.674,1386.24 339.842,1386.24 340.032,1386.24 340.24,1386.24 340.467,1386.25 340.712,1386.25 340.973,1386.25 
  341.248,1386.25 341.537,1386.25 341.84,1386.25 342.154,1386.26 342.479,1386.26 342.812,1386.26 343.154,1386.26 343.504,1386.26 343.859,1386.27 344.219,1386.27 
  344.584,1386.27 344.956,1386.27 345.333,1386.27 345.713,1386.28 346.095,1386.28 346.482,1386.28 346.872,1386.28 347.267,1386.28 347.665,1386.29 348.066,1386.29 
  348.471,1386.29 348.879,1386.29 349.288,1386.29 349.7,1386.3 350.114,1386.3 350.532,1386.3 350.951,1386.3 351.373,1386.3 351.8,1386.3 352.23,1386.31 
  352.66,1386.31 353.095,1386.31 353.533,1386.31 353.972,1386.31 354.414,1386.32 354.863,1386.32 355.314,1386.32 355.77,1386.32 356.231,1386.32 356.695,1386.32 
  357.16,1386.32 357.631,1386.33 358.105,1386.33 358.58,1386.33 359.058,1386.33 359.542,1386.33 360.029,1386.33 360.518,1386.33 361.013,1386.34 361.513,1386.34 
  362.019,1386.34 362.528,1386.34 363.04,1386.34 363.559,1386.34 364.088,1386.34 364.623,1386.34 365.163,1386.35 365.708,1386.35 366.26,1386.35 366.818,1386.35 
  367.38,1386.35 367.95,1386.35 368.527,1386.35 369.107,1386.35 369.689,1386.35 370.268,1386.35 370.86,1386.35 371.462,1386.35 372.076,1386.36 372.702,1386.36 
  373.335,1386.36 373.977,1386.36 374.629,1386.36 375.304,1386.36 375.995,1386.36 376.689,1386.36 377.395,1386.36 378.109,1386.36 378.834,1386.36 379.574,1386.36 
  380.328,1386.36 381.097,1386.36 381.881,1386.36 382.681,1386.36 383.514,1386.36 384.367,1386.36 385.24,1386.36 386.135,1386.36 387.047,1386.36 387.959,1386.36 
  388.893,1386.36 389.856,1386.36 390.841,1386.35 391.841,1386.35 392.873,1386.35 393.945,1386.35 395.038,1386.35 396.142,1386.35 397.274,1386.35 398.421,1386.34 
  399.575,1386.34 400.767,1386.34 402.005,1386.34 403.305,1386.34 404.651,1386.33 405.957,1386.33 407.313,1386.33 408.706,1386.32 410.111,1386.32 411.575,1386.32 
  413.044,1386.31 414.527,1386.31 415.978,1386.31 417.438,1386.3 418.879,1386.3 420.33,1386.29 421.828,1386.29 423.417,1386.28 425.127,1386.28 426.868,1386.27 
  428.63,1386.26 430.472,1386.25 432.463,1386.25 434.576,1386.24 436.827,1386.23 439.183,1386.22 441.558,1386.2 444.21,1386.19 447.1,1386.17 450.095,1386.16 
  453.313,1386.14 456.02,1386.12 458.719,1386.1 461.537,1386.09 464.268,1386.07 467.024,1386.05 470.056,1386.02 472.955,1386 475.961,1385.98 479.046,1385.95 
  482.141,1385.93 485.259,1385.9 488.539,1385.87 491.928,1385.84 495.342,1385.8 498.635,1385.77 501.971,1385.73 505.414,1385.69 509.285,1385.65 513.314,1385.6 
  517.846,1385.54 522.912,1385.47 528.611,1385.39 535.023,1385.29 542.236,1385.17 547.991,1385.07 554.465,1384.95 560.444,1384.83 567.169,1384.69 574.225,1384.53 
  579.233,1384.41 584.867,1384.27 590.181,1384.13 595.138,1383.99 600.714,1383.82 606.988,1383.62 614.045,1383.38 621.985,1383.09 629.611,1382.79 638.189,1382.43 
  645.767,1382.09 654.292,1381.67 658.186,1381.47 662.567,1381.23 667.495,1380.95 673.015,1380.62 679.225,1380.23 684.375,1379.89 690.17,1379.48 695.494,1379.09 
  700.83,1378.67 705.914,1378.25 711.288,1377.78 716.538,1377.29 722.445,1376.7 728.16,1376.11 733.229,1375.56 738.932,1374.91 745.347,1374.15 752.564,1373.24 
  760.684,1372.13 764.429,1371.6 768.642,1370.97 773.382,1370.24 778.715,1369.38 784.714,1368.36 791.463,1367.15 795.881,1366.31 800.851,1365.33 806.122,1364.25 
  811.72,1363.03 818.017,1361.59 825.101,1359.88 830.724,1358.44 836.671,1356.84 843.361,1354.91 850.124,1352.84 857.733,1350.37 866.293,1347.38 875.923,1343.69 
  886.533,1339.28 895.011,1335.44 904.55,1330.74 915.28,1324.98 920.594,1321.9 924.972,1319.26 929.625,1316.36 934.117,1313.45 938.615,1310.42 943.189,1307.2 
  947.787,1303.85 952.192,1300.5 957.148,1296.61 961.886,1292.71 966.313,1288.93 970.897,1284.9 975.552,1280.7 980.789,1275.8 985.674,1271.01 991.169,1265.36 
  995.893,1260.24 999.96,1255.64 1003.85,1251.09 1007.52,1246.67 1011.52,1241.66 1015.7,1236.3 1019.56,1231.2 1023.3,1226.14 1027.42,1220.39 1031.35,1214.74 
  1035.58,1208.48 1040.34,1201.15 1045.7,1192.59 1049.51,1186.26 1053.64,1179.23 1058.28,1171.04 1063.51,1161.46 1069.15,1150.66 1075.5,1137.83 1080.7,1126.77 
  1086.04,1115.06 1091.91,1101.79 1097.82,1088.09 1104.48,1072.24 1111.67,1054.47 1119.16,1035.55 1126.7,1016.15 1134.22,996.334 1141.4,976.868 1149.06,955.599 
  1156.36,934.937 1162.85,916.239 1169.22,897.447 1174.59,881.307 1180.23,864.627 1185.43,849.181 1190.68,833.621 1196.16,817.184 1201.4,801.322 1206.51,786.006 
  1211.62,770.759 1216.67,755.516 1221.53,741.177 1226.02,728.034 1230.41,715.349 1234.72,703.105 1238.93,691.253 1243.04,679.804 1247.08,668.739 1251.11,657.807 
  1255.07,647.397 1258.98,637.413 1262.85,627.826 1266.63,618.586 1270.37,609.751 1274.07,601.257 1277.72,593.039 1281.25,585.327 1284.74,578.109 1288.13,571.338 
  1291.54,564.751 1294.9,558.428 1298.17,552.469 1301.43,546.873 1304.68,541.505 1307.9,536.413 1311.09,531.526 1314.25,526.885 1317.38,522.564 1320.5,518.592 
  1323.59,514.981 1326.67,511.618 1329.68,508.593 1332.6,505.812 1335.49,503.243 1338.36,500.826 1341.08,498.631 1343.63,496.67 1346.17,494.833 1348.69,493.13 
  1351.24,491.604 1353.79,490.19 1356.38,488.9 1358.97,487.774 1361.59,486.878 1364.26,486.27 1366.98,485.874 1369.76,485.654 1372.56,485.546 1375.35,485.529 
  1378.09,485.647 1380.79,486.023 1383.52,486.604 1386.24,487.338 1388.99,488.258 1391.76,489.414 1394.45,490.732 1397.13,492.196 1399.76,493.709 1402.32,495.251 
  1404.77,496.809 1407.15,498.408 1409.4,499.951 1411.73,501.64 1414.11,503.472 1416.49,505.387 1418.98,507.449 1421.62,509.747 1424.34,512.245 1427.13,514.971 
  1429.99,517.92 1432.92,521.106 1435.89,524.476 1438.89,528.037 1441.92,531.716 1445.01,535.54 1448.13,539.561 1451.29,543.811 1454.48,548.337 1457.67,553.072 
  1460.78,557.852 1463.99,562.925 1467.2,568.063 1470.5,573.42 1473.81,578.859 1477.15,584.515 1480.53,590.414 1483.86,596.332 1487.24,602.502 1490.67,608.847 
  1494.11,615.277 1497.61,621.966 1501.11,628.783 1504.67,635.849 1508.17,642.932 1511.6,649.955 1515.14,657.262 1518.65,664.705 1522.17,672.246 1525.7,679.885 
  1529.17,687.478 1532.68,695.217 1536.27,703.168 1539.88,711.184 1543.36,718.947 1547.07,727.237 1550.74,735.43 1554.24,743.324 1557.87,751.682 1561.69,760.531 
  1565.51,769.476 1569.43,778.601 1573.42,787.826 1577.49,797.255 1581.63,806.814 1585.57,815.793 1589.51,824.758 1593.2,833.15 1596.87,841.464 1600.41,849.477 
  1604.06,857.729 1607.77,866.114 1611.79,875.098 1615.93,884.249 1620.2,893.525 1624.67,903.125 1629.19,912.668 1634.06,922.842 1638.88,932.802 1643.8,942.877 
  1648.37,952.169 1652.7,960.902 1657.07,969.605 1661.44,978.157 1665.98,986.927 1670.48,995.531 1675.32,1004.65 1680.17,1013.62 1685.62,1023.57 1691.24,1033.6 
  1697.32,1044.18 1703.42,1054.62 1709.4,1064.67 1716.02,1075.6 1722.04,1085.23 1727.85,1094.29 1734,1103.64 1739.52,1111.82 1745.61,1120.61 1752.16,1129.78 
  1759.53,1139.79 1765.94,1148.18 1771.1,1154.74 1776.74,1161.75 1782.11,1168.25 1787.43,1174.6 1791.85,1179.75 1796.27,1184.81 1800.19,1189.24 1803.7,1193.14 
  1807.08,1196.84 1810.7,1200.72 1814.46,1204.69 1818.02,1208.38 1822.03,1212.44 1826.53,1216.92 1831.6,1221.88 1837.31,1227.33 1843.72,1233.25 1849.72,1238.58 
  1856.46,1244.33 1862.96,1249.66 1870.28,1255.43 1878.51,1261.64 1885.67,1266.8 1893.18,1271.99 1900.53,1276.87 1907.97,1281.63 1914.48,1285.64 1920.21,1289.08 
  1926.13,1292.5 1931.57,1295.56 1937.14,1298.58 1942.45,1301.37 1947.75,1304.06 1952.1,1306.21 1956.58,1308.38 1961.21,1310.56 1965.77,1312.65 1970.1,1314.57 
  1973.87,1316.2 1977.56,1317.76 1981.33,1319.32 1985.56,1321.04 1989.89,1322.75 1994.75,1324.62 1999.43,1326.36 2004.69,1328.26 2010.61,1330.34 2017.27,1332.6 
  2023.44,1334.62 2030.38,1336.82 2038.18,1339.18 2046.34,1341.55 2053.77,1343.59 2062.12,1345.78 2071.51,1348.1 2080.51,1350.21 2090.63,1352.45 2097.16,1353.82 
  2104.51,1355.3 2110.03,1356.36 2116.23,1357.52 2122.03,1358.58 2128.56,1359.72 2135.9,1360.96 2142.71,1362.06 2149.89,1363.16 2157.97,1364.35 2162.51,1364.99 
  2167.63,1365.69 2173.38,1366.45 2179.76,1367.26 2185.11,1367.92 2191.13,1368.63 2197.89,1369.41 2203.56,1370.04 2209.94,1370.72 2217.11,1371.46 2225.18,1372.25 
  2234.26,1373.08 2239.94,1373.57 2246.33,1374.1 2252.48,1374.6 2259.4,1375.12 2264.02,1375.46 2268.6,1375.79 2273.15,1376.11 2277.12,1376.37 2281.46,1376.66 
  2286.35,1376.97 2291.1,1377.27 2294.08,1377.45 
  "/>
<path clip-path="url(#clip330)" d="
M1567.83 270.476 L2283.65 270.476 L2283.65 166.796 L1567.83 166.796  Z
  " fill="#ffffff" fill-rule="evenodd" fill-opacity="1"/>
<polyline clip-path="url(#clip330)" style="stroke:#000000; stroke-linecap:butt; stroke-linejoin:round; stroke-width:4; stroke-opacity:1; fill:none" points="
  1567.83,270.476 2283.65,270.476 2283.65,166.796 1567.83,166.796 1567.83,270.476 
  "/>
<polyline clip-path="url(#clip330)" style="stroke:#009af9; stroke-linecap:butt; stroke-linejoin:round; stroke-width:4; stroke-opacity:1; fill:none" points="
  1590.87,218.636 1729.07,218.636 
  "/>
<path clip-path="url(#clip330)" d="M1752.1 201.356 L1759.07 201.356 L1767.89 224.874 L1776.76 201.356 L1783.72 201.356 L1783.72 235.916 L1779.16 235.916 L1779.16 205.569 L1770.25 229.272 L1765.55 229.272 L1756.64 205.569 L1756.64 235.916 L1752.1 235.916 L1752.1 201.356 Z" fill="#000000" fill-rule="evenodd" fill-opacity="1" /><path clip-path="url(#clip330)" d="M1792.82 209.99 L1797.08 209.99 L1797.08 235.916 L1792.82 235.916 L1792.82 209.99 M1792.82 199.897 L1797.08 199.897 L1797.08 205.291 L1792.82 205.291 L1792.82 199.897 Z" fill="#000000" fill-rule="evenodd" fill-opacity="1" /><path clip-path="url(#clip330)" d="M1823.05 213.925 L1823.05 199.897 L1827.31 199.897 L1827.31 235.916 L1823.05 235.916 L1823.05 232.027 Q1821.71 234.342 1819.65 235.476 Q1817.61 236.587 1814.74 236.587 Q1810.04 236.587 1807.08 232.837 Q1804.14 229.087 1804.14 222.976 Q1804.14 216.865 1807.08 213.115 Q1810.04 209.365 1814.74 209.365 Q1817.61 209.365 1819.65 210.499 Q1821.71 211.61 1823.05 213.925 M1808.54 222.976 Q1808.54 227.675 1810.46 230.36 Q1812.4 233.022 1815.78 233.022 Q1819.16 233.022 1821.11 230.36 Q1823.05 227.675 1823.05 222.976 Q1823.05 218.277 1821.11 215.615 Q1819.16 212.93 1815.78 212.93 Q1812.4 212.93 1810.46 215.615 Q1808.54 218.277 1808.54 222.976 Z" fill="#000000" fill-rule="evenodd" fill-opacity="1" /><path clip-path="url(#clip330)" d="M1853.14 213.925 L1853.14 199.897 L1857.4 199.897 L1857.4 235.916 L1853.14 235.916 L1853.14 232.027 Q1851.8 234.342 1849.74 235.476 Q1847.7 236.587 1844.83 236.587 Q1840.13 236.587 1837.17 232.837 Q1834.23 229.087 1834.23 222.976 Q1834.23 216.865 1837.17 213.115 Q1840.13 209.365 1844.83 209.365 Q1847.7 209.365 1849.74 210.499 Q1851.8 211.61 1853.14 213.925 M1838.63 222.976 Q1838.63 227.675 1840.55 230.36 Q1842.5 233.022 1845.88 233.022 Q1849.26 233.022 1851.2 230.36 Q1853.14 227.675 1853.14 222.976 Q1853.14 218.277 1851.2 215.615 Q1849.26 212.93 1845.88 212.93 Q1842.5 212.93 1840.55 215.615 Q1838.63 218.277 1838.63 222.976 Z" fill="#000000" fill-rule="evenodd" fill-opacity="1" /><path clip-path="url(#clip330)" d="M1866.18 199.897 L1870.44 199.897 L1870.44 235.916 L1866.18 235.916 L1866.18 199.897 Z" fill="#000000" fill-rule="evenodd" fill-opacity="1" /><path clip-path="url(#clip330)" d="M1901.52 221.888 L1901.52 223.971 L1881.94 223.971 Q1882.22 228.369 1884.58 230.684 Q1886.96 232.976 1891.2 232.976 Q1893.65 232.976 1895.94 232.374 Q1898.26 231.772 1900.53 230.569 L1900.53 234.596 Q1898.24 235.568 1895.83 236.078 Q1893.42 236.587 1890.94 236.587 Q1884.74 236.587 1881.11 232.976 Q1877.5 229.365 1877.5 223.207 Q1877.5 216.842 1880.92 213.115 Q1884.37 209.365 1890.2 209.365 Q1895.44 209.365 1898.47 212.745 Q1901.52 216.101 1901.52 221.888 M1897.26 220.638 Q1897.22 217.143 1895.3 215.059 Q1893.4 212.976 1890.25 212.976 Q1886.69 212.976 1884.53 214.99 Q1882.4 217.004 1882.08 220.661 L1897.26 220.638 Z" fill="#000000" fill-rule="evenodd" fill-opacity="1" /><path clip-path="url(#clip330)" d="M1924.32 235.198 L1924.32 230.939 Q1926.08 231.772 1927.89 232.212 Q1929.69 232.652 1931.43 232.652 Q1936.06 232.652 1938.49 229.55 Q1940.94 226.425 1941.29 220.082 Q1939.95 222.073 1937.89 223.138 Q1935.83 224.203 1933.33 224.203 Q1928.14 224.203 1925.11 221.078 Q1922.1 217.93 1922.1 212.49 Q1922.1 207.166 1925.25 203.948 Q1928.4 200.731 1933.63 200.731 Q1939.62 200.731 1942.77 205.337 Q1945.94 209.92 1945.94 218.67 Q1945.94 226.842 1942.06 231.726 Q1938.19 236.587 1931.64 236.587 Q1929.88 236.587 1928.07 236.24 Q1926.27 235.893 1924.32 235.198 M1933.63 220.545 Q1936.78 220.545 1938.61 218.393 Q1940.46 216.24 1940.46 212.49 Q1940.46 208.763 1938.61 206.61 Q1936.78 204.434 1933.63 204.434 Q1930.48 204.434 1928.63 206.61 Q1926.8 208.763 1926.8 212.49 Q1926.8 216.24 1928.63 218.393 Q1930.48 220.545 1933.63 220.545 Z" fill="#000000" fill-rule="evenodd" fill-opacity="1" /><path clip-path="url(#clip330)" d="M1954.39 201.356 L1972.75 201.356 L1972.75 205.291 L1958.68 205.291 L1958.68 213.763 Q1959.69 213.416 1960.71 213.254 Q1961.73 213.069 1962.75 213.069 Q1968.54 213.069 1971.92 216.24 Q1975.3 219.411 1975.3 224.828 Q1975.3 230.406 1971.82 233.508 Q1968.35 236.587 1962.03 236.587 Q1959.86 236.587 1957.59 236.217 Q1955.34 235.846 1952.94 235.106 L1952.94 230.406 Q1955.02 231.541 1957.24 232.096 Q1959.46 232.652 1961.94 232.652 Q1965.94 232.652 1968.28 230.545 Q1970.62 228.439 1970.62 224.828 Q1970.62 221.217 1968.28 219.11 Q1965.94 217.004 1961.94 217.004 Q1960.06 217.004 1958.19 217.42 Q1956.34 217.837 1954.39 218.717 L1954.39 201.356 Z" fill="#000000" fill-rule="evenodd" fill-opacity="1" /><path clip-path="url(#clip330)" d="M2013.91 220.707 Q2011.89 220.707 2010.74 222.42 Q2009.6 224.133 2009.6 227.189 Q2009.6 230.198 2010.74 231.934 Q2011.89 233.647 2013.91 233.647 Q2015.87 233.647 2017.01 231.934 Q2018.17 230.198 2018.17 227.189 Q2018.17 224.157 2017.01 222.444 Q2015.87 220.707 2013.91 220.707 M2013.91 217.768 Q2017.56 217.768 2019.72 220.314 Q2021.87 222.86 2021.87 227.189 Q2021.87 231.518 2019.69 234.064 Q2017.54 236.587 2013.91 236.587 Q2010.2 236.587 2008.05 234.064 Q2005.9 231.518 2005.9 227.189 Q2005.9 222.837 2008.05 220.314 Q2010.23 217.768 2013.91 217.768 M1990.02 203.671 Q1988.03 203.671 1986.87 205.407 Q1985.74 207.12 1985.74 210.129 Q1985.74 213.184 1986.87 214.897 Q1988 216.61 1990.02 216.61 Q1992.03 216.61 1993.17 214.897 Q1994.32 213.184 1994.32 210.129 Q1994.32 207.143 1993.17 205.407 Q1992.01 203.671 1990.02 203.671 M2010.92 200.731 L2014.62 200.731 L1993 236.587 L1989.3 236.587 L2010.92 200.731 M1990.02 200.731 Q1993.68 200.731 1995.85 203.277 Q1998.03 205.8 1998.03 210.129 Q1998.03 214.504 1995.85 217.027 Q1993.7 219.55 1990.02 219.55 Q1986.34 219.55 1984.18 217.027 Q1982.06 214.481 1982.06 210.129 Q1982.06 205.823 1984.21 203.277 Q1986.36 200.731 1990.02 200.731 Z" fill="#000000" fill-rule="evenodd" fill-opacity="1" /><path clip-path="url(#clip330)" d="M2058.24 204.527 Q2053.14 204.527 2050.13 208.323 Q2047.15 212.12 2047.15 218.67 Q2047.15 225.198 2050.13 228.994 Q2053.14 232.791 2058.24 232.791 Q2063.33 232.791 2066.29 228.994 Q2069.28 225.198 2069.28 218.67 Q2069.28 212.12 2066.29 208.323 Q2063.33 204.527 2058.24 204.527 M2064.79 235.291 L2070.94 242.027 L2065.3 242.027 L2060.18 236.494 Q2059.42 236.541 2059 236.564 Q2058.61 236.587 2058.24 236.587 Q2050.94 236.587 2046.57 231.726 Q2042.22 226.842 2042.22 218.67 Q2042.22 210.476 2046.57 205.615 Q2050.94 200.731 2058.24 200.731 Q2065.5 200.731 2069.86 205.615 Q2074.21 210.476 2074.21 218.67 Q2074.21 224.689 2071.78 228.971 Q2069.37 233.254 2064.79 235.291 Z" fill="#000000" fill-rule="evenodd" fill-opacity="1" /><path clip-path="url(#clip330)" d="M2080.9 225.684 L2080.9 209.99 L2085.16 209.99 L2085.16 225.522 Q2085.16 229.203 2086.59 231.055 Q2088.03 232.883 2090.9 232.883 Q2094.35 232.883 2096.34 230.684 Q2098.35 228.485 2098.35 224.689 L2098.35 209.99 L2102.61 209.99 L2102.61 235.916 L2098.35 235.916 L2098.35 231.934 Q2096.8 234.295 2094.74 235.453 Q2092.7 236.587 2089.99 236.587 Q2085.53 236.587 2083.21 233.809 Q2080.9 231.031 2080.9 225.684 M2091.61 209.365 L2091.61 209.365 Z" fill="#000000" fill-rule="evenodd" fill-opacity="1" /><path clip-path="url(#clip330)" d="M2123.17 222.883 Q2118 222.883 2116.01 224.064 Q2114.02 225.244 2114.02 228.092 Q2114.02 230.36 2115.5 231.703 Q2117.01 233.022 2119.58 233.022 Q2123.12 233.022 2125.25 230.522 Q2127.4 227.999 2127.4 223.832 L2127.4 222.883 L2123.17 222.883 M2131.66 221.124 L2131.66 235.916 L2127.4 235.916 L2127.4 231.981 Q2125.94 234.342 2123.77 235.476 Q2121.59 236.587 2118.44 236.587 Q2114.46 236.587 2112.1 234.365 Q2109.76 232.119 2109.76 228.369 Q2109.76 223.994 2112.68 221.772 Q2115.62 219.55 2121.43 219.55 L2127.4 219.55 L2127.4 219.133 Q2127.4 216.194 2125.46 214.596 Q2123.54 212.976 2120.04 212.976 Q2117.82 212.976 2115.71 213.508 Q2113.61 214.041 2111.66 215.106 L2111.66 211.17 Q2114 210.268 2116.2 209.828 Q2118.4 209.365 2120.48 209.365 Q2126.11 209.365 2128.88 212.282 Q2131.66 215.198 2131.66 221.124 Z" fill="#000000" fill-rule="evenodd" fill-opacity="1" /><path clip-path="url(#clip330)" d="M2161.98 220.268 L2161.98 235.916 L2157.73 235.916 L2157.73 220.407 Q2157.73 216.726 2156.29 214.897 Q2154.86 213.069 2151.98 213.069 Q2148.54 213.069 2146.55 215.268 Q2144.55 217.467 2144.55 221.263 L2144.55 235.916 L2140.27 235.916 L2140.27 209.99 L2144.55 209.99 L2144.55 214.018 Q2146.08 211.68 2148.14 210.522 Q2150.23 209.365 2152.93 209.365 Q2157.4 209.365 2159.69 212.143 Q2161.98 214.897 2161.98 220.268 Z" fill="#000000" fill-rule="evenodd" fill-opacity="1" /><path clip-path="url(#clip330)" d="M2174.69 202.629 L2174.69 209.99 L2183.47 209.99 L2183.47 213.3 L2174.69 213.3 L2174.69 227.374 Q2174.69 230.545 2175.55 231.448 Q2176.43 232.351 2179.09 232.351 L2183.47 232.351 L2183.47 235.916 L2179.09 235.916 Q2174.16 235.916 2172.29 234.087 Q2170.41 232.235 2170.41 227.374 L2170.41 213.3 L2167.29 213.3 L2167.29 209.99 L2170.41 209.99 L2170.41 202.629 L2174.69 202.629 Z" fill="#000000" fill-rule="evenodd" fill-opacity="1" /><path clip-path="url(#clip330)" d="M2189.07 209.99 L2193.33 209.99 L2193.33 235.916 L2189.07 235.916 L2189.07 209.99 M2189.07 199.897 L2193.33 199.897 L2193.33 205.291 L2189.07 205.291 L2189.07 199.897 Z" fill="#000000" fill-rule="evenodd" fill-opacity="1" /><path clip-path="url(#clip330)" d="M2202.24 199.897 L2206.5 199.897 L2206.5 235.916 L2202.24 235.916 L2202.24 199.897 Z" fill="#000000" fill-rule="evenodd" fill-opacity="1" /><path clip-path="url(#clip330)" d="M2237.59 221.888 L2237.59 223.971 L2218 223.971 Q2218.28 228.369 2220.64 230.684 Q2223.03 232.976 2227.26 232.976 Q2229.72 232.976 2232.01 232.374 Q2234.32 231.772 2236.59 230.569 L2236.59 234.596 Q2234.3 235.568 2231.89 236.078 Q2229.48 236.587 2227.01 236.587 Q2220.8 236.587 2217.17 232.976 Q2213.56 229.365 2213.56 223.207 Q2213.56 216.842 2216.98 213.115 Q2220.43 209.365 2226.27 209.365 Q2231.5 209.365 2234.53 212.745 Q2237.59 216.101 2237.59 221.888 M2233.33 220.638 Q2233.28 217.143 2231.36 215.059 Q2229.46 212.976 2226.31 212.976 Q2222.75 212.976 2220.6 214.99 Q2218.47 217.004 2218.14 220.661 L2233.33 220.638 Z" fill="#000000" fill-rule="evenodd" fill-opacity="1" /></svg>
