<?xml version="1.0" encoding="utf-8"?>
<svg xmlns="http://www.w3.org/2000/svg" xmlns:xlink="http://www.w3.org/1999/xlink" width="600" height="400" viewBox="0 0 2400 1600">
<defs>
  <clipPath id="clip830">
    <rect x="0" y="0" width="2400" height="1600"/>
  </clipPath>
</defs>
<path clip-path="url(#clip830)" d="
M0 1600 L2400 1600 L2400 0 L0 0  Z
  " fill="#ffffff" fill-rule="evenodd" fill-opacity="1"/>
<defs>
  <clipPath id="clip831">
    <rect x="480" y="0" width="1681" height="1600"/>
  </clipPath>
</defs>
<path clip-path="url(#clip830)" d="
M250.028 1423.18 L2352.76 1423.18 L2352.76 123.472 L250.028 123.472  Z
  " fill="#ffffff" fill-rule="evenodd" fill-opacity="1"/>
<defs>
  <clipPath id="clip832">
    <rect x="250" y="123" width="2104" height="1301"/>
  </clipPath>
</defs>
<polyline clip-path="url(#clip832)" style="stroke:#000000; stroke-linecap:round; stroke-linejoin:round; stroke-width:2; stroke-opacity:0.1; fill:none" points="
  250.028,1423.18 250.028,123.472 
  "/>
<polyline clip-path="url(#clip832)" style="stroke:#000000; stroke-linecap:round; stroke-linejoin:round; stroke-width:2; stroke-opacity:0.1; fill:none" points="
  632.342,1423.18 632.342,123.472 
  "/>
<polyline clip-path="url(#clip832)" style="stroke:#000000; stroke-linecap:round; stroke-linejoin:round; stroke-width:2; stroke-opacity:0.1; fill:none" points="
  1014.66,1423.18 1014.66,123.472 
  "/>
<polyline clip-path="url(#clip832)" style="stroke:#000000; stroke-linecap:round; stroke-linejoin:round; stroke-width:2; stroke-opacity:0.1; fill:none" points="
  1396.97,1423.18 1396.97,123.472 
  "/>
<polyline clip-path="url(#clip832)" style="stroke:#000000; stroke-linecap:round; stroke-linejoin:round; stroke-width:2; stroke-opacity:0.1; fill:none" points="
  1779.28,1423.18 1779.28,123.472 
  "/>
<polyline clip-path="url(#clip832)" style="stroke:#000000; stroke-linecap:round; stroke-linejoin:round; stroke-width:2; stroke-opacity:0.1; fill:none" points="
  2161.6,1423.18 2161.6,123.472 
  "/>
<polyline clip-path="url(#clip830)" style="stroke:#000000; stroke-linecap:round; stroke-linejoin:round; stroke-width:4; stroke-opacity:1; fill:none" points="
  250.028,1423.18 2352.76,1423.18 
  "/>
<polyline clip-path="url(#clip830)" style="stroke:#000000; stroke-linecap:round; stroke-linejoin:round; stroke-width:4; stroke-opacity:1; fill:none" points="
  250.028,1423.18 250.028,1404.28 
  "/>
<polyline clip-path="url(#clip830)" style="stroke:#000000; stroke-linecap:round; stroke-linejoin:round; stroke-width:4; stroke-opacity:1; fill:none" points="
  632.342,1423.18 632.342,1404.28 
  "/>
<polyline clip-path="url(#clip830)" style="stroke:#000000; stroke-linecap:round; stroke-linejoin:round; stroke-width:4; stroke-opacity:1; fill:none" points="
  1014.66,1423.18 1014.66,1404.28 
  "/>
<polyline clip-path="url(#clip830)" style="stroke:#000000; stroke-linecap:round; stroke-linejoin:round; stroke-width:4; stroke-opacity:1; fill:none" points="
  1396.97,1423.18 1396.97,1404.28 
  "/>
<polyline clip-path="url(#clip830)" style="stroke:#000000; stroke-linecap:round; stroke-linejoin:round; stroke-width:4; stroke-opacity:1; fill:none" points="
  1779.28,1423.18 1779.28,1404.28 
  "/>
<polyline clip-path="url(#clip830)" style="stroke:#000000; stroke-linecap:round; stroke-linejoin:round; stroke-width:4; stroke-opacity:1; fill:none" points="
  2161.6,1423.18 2161.6,1404.28 
  "/>
<path clip-path="url(#clip830)" d="M250.028 1454.1 Q246.417 1454.1 244.588 1457.66 Q242.783 1461.2 242.783 1468.33 Q242.783 1475.44 244.588 1479.01 Q246.417 1482.55 250.028 1482.55 Q253.662 1482.55 255.468 1479.01 Q257.297 1475.44 257.297 1468.33 Q257.297 1461.2 255.468 1457.66 Q253.662 1454.1 250.028 1454.1 M250.028 1450.39 Q255.838 1450.39 258.894 1455 Q261.973 1459.58 261.973 1468.33 Q261.973 1477.06 258.894 1481.67 Q255.838 1486.25 250.028 1486.25 Q244.218 1486.25 241.139 1481.67 Q238.084 1477.06 238.084 1468.33 Q238.084 1459.58 241.139 1455 Q244.218 1450.39 250.028 1450.39 Z" fill="#000000" fill-rule="evenodd" fill-opacity="1" /><path clip-path="url(#clip830)" d="M591.949 1481.64 L599.588 1481.64 L599.588 1455.28 L591.278 1456.95 L591.278 1452.69 L599.542 1451.02 L604.217 1451.02 L604.217 1481.64 L611.856 1481.64 L611.856 1485.58 L591.949 1485.58 L591.949 1481.64 Z" fill="#000000" fill-rule="evenodd" fill-opacity="1" /><path clip-path="url(#clip830)" d="M631.301 1454.1 Q627.69 1454.1 625.861 1457.66 Q624.055 1461.2 624.055 1468.33 Q624.055 1475.44 625.861 1479.01 Q627.69 1482.55 631.301 1482.55 Q634.935 1482.55 636.74 1479.01 Q638.569 1475.44 638.569 1468.33 Q638.569 1461.2 636.74 1457.66 Q634.935 1454.1 631.301 1454.1 M631.301 1450.39 Q637.111 1450.39 640.166 1455 Q643.245 1459.58 643.245 1468.33 Q643.245 1477.06 640.166 1481.67 Q637.111 1486.25 631.301 1486.25 Q625.49 1486.25 622.412 1481.67 Q619.356 1477.06 619.356 1468.33 Q619.356 1459.58 622.412 1455 Q625.49 1450.39 631.301 1450.39 Z" fill="#000000" fill-rule="evenodd" fill-opacity="1" /><path clip-path="url(#clip830)" d="M661.462 1454.1 Q657.851 1454.1 656.023 1457.66 Q654.217 1461.2 654.217 1468.33 Q654.217 1475.44 656.023 1479.01 Q657.851 1482.55 661.462 1482.55 Q665.097 1482.55 666.902 1479.01 Q668.731 1475.44 668.731 1468.33 Q668.731 1461.2 666.902 1457.66 Q665.097 1454.1 661.462 1454.1 M661.462 1450.39 Q667.273 1450.39 670.328 1455 Q673.407 1459.58 673.407 1468.33 Q673.407 1477.06 670.328 1481.67 Q667.273 1486.25 661.462 1486.25 Q655.652 1486.25 652.574 1481.67 Q649.518 1477.06 649.518 1468.33 Q649.518 1459.58 652.574 1455 Q655.652 1450.39 661.462 1450.39 Z" fill="#000000" fill-rule="evenodd" fill-opacity="1" /><path clip-path="url(#clip830)" d="M978.349 1481.64 L994.668 1481.64 L994.668 1485.58 L972.724 1485.58 L972.724 1481.64 Q975.386 1478.89 979.969 1474.26 Q984.576 1469.61 985.756 1468.27 Q988.001 1465.74 988.881 1464.01 Q989.784 1462.25 989.784 1460.56 Q989.784 1457.8 987.839 1456.07 Q985.918 1454.33 982.816 1454.33 Q980.617 1454.33 978.164 1455.09 Q975.733 1455.86 972.955 1457.41 L972.955 1452.69 Q975.779 1451.55 978.233 1450.97 Q980.687 1450.39 982.724 1450.39 Q988.094 1450.39 991.288 1453.08 Q994.483 1455.77 994.483 1460.26 Q994.483 1462.39 993.673 1464.31 Q992.886 1466.2 990.779 1468.8 Q990.201 1469.47 987.099 1472.69 Q983.997 1475.88 978.349 1481.64 Z" fill="#000000" fill-rule="evenodd" fill-opacity="1" /><path clip-path="url(#clip830)" d="M1014.48 1454.1 Q1010.87 1454.1 1009.04 1457.66 Q1007.24 1461.2 1007.24 1468.33 Q1007.24 1475.44 1009.04 1479.01 Q1010.87 1482.55 1014.48 1482.55 Q1018.12 1482.55 1019.92 1479.01 Q1021.75 1475.44 1021.75 1468.33 Q1021.75 1461.2 1019.92 1457.66 Q1018.12 1454.1 1014.48 1454.1 M1014.48 1450.39 Q1020.29 1450.39 1023.35 1455 Q1026.43 1459.58 1026.43 1468.33 Q1026.43 1477.06 1023.35 1481.67 Q1020.29 1486.25 1014.48 1486.25 Q1008.67 1486.25 1005.59 1481.67 Q1002.54 1477.06 1002.54 1468.33 Q1002.54 1459.58 1005.59 1455 Q1008.67 1450.39 1014.48 1450.39 Z" fill="#000000" fill-rule="evenodd" fill-opacity="1" /><path clip-path="url(#clip830)" d="M1044.64 1454.1 Q1041.03 1454.1 1039.2 1457.66 Q1037.4 1461.2 1037.4 1468.33 Q1037.4 1475.44 1039.2 1479.01 Q1041.03 1482.55 1044.64 1482.55 Q1048.28 1482.55 1050.08 1479.01 Q1051.91 1475.44 1051.91 1468.33 Q1051.91 1461.2 1050.08 1457.66 Q1048.28 1454.1 1044.64 1454.1 M1044.64 1450.39 Q1050.45 1450.39 1053.51 1455 Q1056.59 1459.58 1056.59 1468.33 Q1056.59 1477.06 1053.51 1481.67 Q1050.45 1486.25 1044.64 1486.25 Q1038.83 1486.25 1035.76 1481.67 Q1032.7 1477.06 1032.7 1468.33 Q1032.7 1459.58 1035.76 1455 Q1038.83 1450.39 1044.64 1450.39 Z" fill="#000000" fill-rule="evenodd" fill-opacity="1" /><path clip-path="url(#clip830)" d="M1370.73 1466.95 Q1374.09 1467.66 1375.96 1469.93 Q1377.86 1472.2 1377.86 1475.53 Q1377.86 1480.65 1374.34 1483.45 Q1370.82 1486.25 1364.34 1486.25 Q1362.17 1486.25 1359.85 1485.81 Q1357.56 1485.39 1355.11 1484.54 L1355.11 1480.02 Q1357.05 1481.16 1359.37 1481.74 Q1361.68 1482.32 1364.2 1482.32 Q1368.6 1482.32 1370.89 1480.58 Q1373.21 1478.84 1373.21 1475.53 Q1373.21 1472.48 1371.06 1470.77 Q1368.93 1469.03 1365.11 1469.03 L1361.08 1469.03 L1361.08 1465.19 L1365.29 1465.19 Q1368.74 1465.19 1370.57 1463.82 Q1372.4 1462.43 1372.4 1459.84 Q1372.4 1457.18 1370.5 1455.77 Q1368.63 1454.33 1365.11 1454.33 Q1363.19 1454.33 1360.99 1454.75 Q1358.79 1455.16 1356.15 1456.04 L1356.15 1451.88 Q1358.81 1451.14 1361.13 1450.77 Q1363.46 1450.39 1365.52 1450.39 Q1370.85 1450.39 1373.95 1452.83 Q1377.05 1455.23 1377.05 1459.35 Q1377.05 1462.22 1375.41 1464.21 Q1373.76 1466.18 1370.73 1466.95 Z" fill="#000000" fill-rule="evenodd" fill-opacity="1" /><path clip-path="url(#clip830)" d="M1396.73 1454.1 Q1393.12 1454.1 1391.29 1457.66 Q1389.48 1461.2 1389.48 1468.33 Q1389.48 1475.44 1391.29 1479.01 Q1393.12 1482.55 1396.73 1482.55 Q1400.36 1482.55 1402.17 1479.01 Q1404 1475.44 1404 1468.33 Q1404 1461.2 1402.17 1457.66 Q1400.36 1454.1 1396.73 1454.1 M1396.73 1450.39 Q1402.54 1450.39 1405.59 1455 Q1408.67 1459.58 1408.67 1468.33 Q1408.67 1477.06 1405.59 1481.67 Q1402.54 1486.25 1396.73 1486.25 Q1390.92 1486.25 1387.84 1481.67 Q1384.78 1477.06 1384.78 1468.33 Q1384.78 1459.58 1387.84 1455 Q1390.92 1450.39 1396.73 1450.39 Z" fill="#000000" fill-rule="evenodd" fill-opacity="1" /><path clip-path="url(#clip830)" d="M1426.89 1454.1 Q1423.28 1454.1 1421.45 1457.66 Q1419.64 1461.2 1419.64 1468.33 Q1419.64 1475.44 1421.45 1479.01 Q1423.28 1482.55 1426.89 1482.55 Q1430.52 1482.55 1432.33 1479.01 Q1434.16 1475.44 1434.16 1468.33 Q1434.16 1461.2 1432.33 1457.66 Q1430.52 1454.1 1426.89 1454.1 M1426.89 1450.39 Q1432.7 1450.39 1435.76 1455 Q1438.83 1459.58 1438.83 1468.33 Q1438.83 1477.06 1435.76 1481.67 Q1432.7 1486.25 1426.89 1486.25 Q1421.08 1486.25 1418 1481.67 Q1414.94 1477.06 1414.94 1468.33 Q1414.94 1459.58 1418 1455 Q1421.08 1450.39 1426.89 1450.39 Z" fill="#000000" fill-rule="evenodd" fill-opacity="1" /><path clip-path="url(#clip830)" d="M1752.38 1455.09 L1740.57 1473.54 L1752.38 1473.54 L1752.38 1455.09 M1751.15 1451.02 L1757.03 1451.02 L1757.03 1473.54 L1761.96 1473.54 L1761.96 1477.43 L1757.03 1477.43 L1757.03 1485.58 L1752.38 1485.58 L1752.38 1477.43 L1736.77 1477.43 L1736.77 1472.92 L1751.15 1451.02 Z" fill="#000000" fill-rule="evenodd" fill-opacity="1" /><path clip-path="url(#clip830)" d="M1779.69 1454.1 Q1776.08 1454.1 1774.25 1457.66 Q1772.44 1461.2 1772.44 1468.33 Q1772.44 1475.44 1774.25 1479.01 Q1776.08 1482.55 1779.69 1482.55 Q1783.32 1482.55 1785.13 1479.01 Q1786.96 1475.44 1786.96 1468.33 Q1786.96 1461.2 1785.13 1457.66 Q1783.32 1454.1 1779.69 1454.1 M1779.69 1450.39 Q1785.5 1450.39 1788.56 1455 Q1791.63 1459.58 1791.63 1468.33 Q1791.63 1477.06 1788.56 1481.67 Q1785.5 1486.25 1779.69 1486.25 Q1773.88 1486.25 1770.8 1481.67 Q1767.75 1477.06 1767.75 1468.33 Q1767.75 1459.58 1770.8 1455 Q1773.88 1450.39 1779.69 1450.39 Z" fill="#000000" fill-rule="evenodd" fill-opacity="1" /><path clip-path="url(#clip830)" d="M1809.85 1454.1 Q1806.24 1454.1 1804.41 1457.66 Q1802.61 1461.2 1802.61 1468.33 Q1802.61 1475.44 1804.41 1479.01 Q1806.24 1482.55 1809.85 1482.55 Q1813.49 1482.55 1815.29 1479.01 Q1817.12 1475.44 1817.12 1468.33 Q1817.12 1461.2 1815.29 1457.66 Q1813.49 1454.1 1809.85 1454.1 M1809.85 1450.39 Q1815.66 1450.39 1818.72 1455 Q1821.8 1459.58 1821.8 1468.33 Q1821.8 1477.06 1818.72 1481.67 Q1815.66 1486.25 1809.85 1486.25 Q1804.04 1486.25 1800.96 1481.67 Q1797.91 1477.06 1797.91 1468.33 Q1797.91 1459.58 1800.96 1455 Q1804.04 1450.39 1809.85 1450.39 Z" fill="#000000" fill-rule="evenodd" fill-opacity="1" /><path clip-path="url(#clip830)" d="M2121.22 1451.02 L2139.57 1451.02 L2139.57 1454.96 L2125.5 1454.96 L2125.5 1463.43 Q2126.52 1463.08 2127.54 1462.92 Q2128.56 1462.73 2129.57 1462.73 Q2135.36 1462.73 2138.74 1465.9 Q2142.12 1469.08 2142.12 1474.49 Q2142.12 1480.07 2138.65 1483.17 Q2135.18 1486.25 2128.86 1486.25 Q2126.68 1486.25 2124.41 1485.88 Q2122.17 1485.51 2119.76 1484.77 L2119.76 1480.07 Q2121.84 1481.2 2124.06 1481.76 Q2126.29 1482.32 2128.76 1482.32 Q2132.77 1482.32 2135.11 1480.21 Q2137.44 1478.1 2137.44 1474.49 Q2137.44 1470.88 2135.11 1468.77 Q2132.77 1466.67 2128.76 1466.67 Q2126.89 1466.67 2125.01 1467.08 Q2123.16 1467.5 2121.22 1468.38 L2121.22 1451.02 Z" fill="#000000" fill-rule="evenodd" fill-opacity="1" /><path clip-path="url(#clip830)" d="M2161.33 1454.1 Q2157.72 1454.1 2155.89 1457.66 Q2154.09 1461.2 2154.09 1468.33 Q2154.09 1475.44 2155.89 1479.01 Q2157.72 1482.55 2161.33 1482.55 Q2164.97 1482.55 2166.77 1479.01 Q2168.6 1475.44 2168.6 1468.33 Q2168.6 1461.2 2166.77 1457.66 Q2164.97 1454.1 2161.33 1454.1 M2161.33 1450.39 Q2167.14 1450.39 2170.2 1455 Q2173.28 1459.58 2173.28 1468.33 Q2173.28 1477.06 2170.2 1481.67 Q2167.14 1486.25 2161.33 1486.25 Q2155.52 1486.25 2152.44 1481.67 Q2149.39 1477.06 2149.39 1468.33 Q2149.39 1459.58 2152.44 1455 Q2155.52 1450.39 2161.33 1450.39 Z" fill="#000000" fill-rule="evenodd" fill-opacity="1" /><path clip-path="url(#clip830)" d="M2191.49 1454.1 Q2187.88 1454.1 2186.05 1457.66 Q2184.25 1461.2 2184.25 1468.33 Q2184.25 1475.44 2186.05 1479.01 Q2187.88 1482.55 2191.49 1482.55 Q2195.13 1482.55 2196.93 1479.01 Q2198.76 1475.44 2198.76 1468.33 Q2198.76 1461.2 2196.93 1457.66 Q2195.13 1454.1 2191.49 1454.1 M2191.49 1450.39 Q2197.3 1450.39 2200.36 1455 Q2203.44 1459.58 2203.44 1468.33 Q2203.44 1477.06 2200.36 1481.67 Q2197.3 1486.25 2191.49 1486.25 Q2185.68 1486.25 2182.61 1481.67 Q2179.55 1477.06 2179.55 1468.33 Q2179.55 1459.58 2182.61 1455 Q2185.68 1450.39 2191.49 1450.39 Z" fill="#000000" fill-rule="evenodd" fill-opacity="1" /><path clip-path="url(#clip830)" d="M1309.86 1531.91 Q1309.86 1532.81 1309.44 1533.04 Q1309.03 1533.23 1307.87 1533.23 L1301.68 1533.23 L1296.79 1552.69 Q1296.4 1554.39 1296.4 1555.84 Q1296.4 1557.45 1296.88 1558.16 Q1297.4 1558.87 1298.46 1558.87 Q1300.56 1558.87 1302.81 1556.97 Q1305.1 1555.07 1307.03 1550.43 Q1307.29 1549.82 1307.42 1549.69 Q1307.58 1549.53 1308 1549.53 Q1308.8 1549.53 1308.8 1550.17 Q1308.8 1550.4 1308.35 1551.43 Q1307.93 1552.46 1307 1553.97 Q1306.09 1555.49 1304.9 1556.9 Q1303.74 1558.32 1301.97 1559.35 Q1300.2 1560.35 1298.3 1560.35 Q1295.63 1560.35 1293.92 1558.64 Q1292.25 1556.94 1292.25 1554.26 Q1292.25 1553.39 1292.92 1550.62 Q1293.6 1547.82 1297.27 1533.23 L1291.44 1533.23 Q1290.64 1533.23 1290.31 1533.2 Q1290.02 1533.17 1289.8 1533.01 Q1289.61 1532.81 1289.61 1532.43 Q1289.61 1531.82 1289.86 1531.56 Q1290.12 1531.27 1290.44 1531.24 Q1290.8 1531.17 1291.6 1531.17 L1297.79 1531.17 L1300.36 1520.71 Q1300.62 1519.67 1301.26 1519.09 Q1301.94 1518.48 1302.33 1518.42 Q1302.71 1518.32 1303 1518.32 Q1303.87 1518.32 1304.39 1518.81 Q1304.9 1519.26 1304.9 1520.09 Q1304.9 1520.54 1302.2 1531.17 L1308 1531.17 Q1308.74 1531.17 1309.03 1531.2 Q1309.35 1531.24 1309.61 1531.4 Q1309.86 1531.56 1309.86 1531.91 Z" fill="#000000" fill-rule="evenodd" fill-opacity="1" /><polyline clip-path="url(#clip832)" style="stroke:#000000; stroke-linecap:round; stroke-linejoin:round; stroke-width:2; stroke-opacity:0.1; fill:none" points="
  250.028,1387.24 2352.76,1387.24 
  "/>
<polyline clip-path="url(#clip832)" style="stroke:#000000; stroke-linecap:round; stroke-linejoin:round; stroke-width:2; stroke-opacity:0.1; fill:none" points="
  250.028,1129.85 2352.76,1129.85 
  "/>
<polyline clip-path="url(#clip832)" style="stroke:#000000; stroke-linecap:round; stroke-linejoin:round; stroke-width:2; stroke-opacity:0.1; fill:none" points="
  250.028,872.468 2352.76,872.468 
  "/>
<polyline clip-path="url(#clip832)" style="stroke:#000000; stroke-linecap:round; stroke-linejoin:round; stroke-width:2; stroke-opacity:0.1; fill:none" points="
  250.028,615.084 2352.76,615.084 
  "/>
<polyline clip-path="url(#clip832)" style="stroke:#000000; stroke-linecap:round; stroke-linejoin:round; stroke-width:2; stroke-opacity:0.1; fill:none" points="
  250.028,357.7 2352.76,357.7 
  "/>
<polyline clip-path="url(#clip830)" style="stroke:#000000; stroke-linecap:round; stroke-linejoin:round; stroke-width:4; stroke-opacity:1; fill:none" points="
  250.028,1423.18 250.028,123.472 
  "/>
<polyline clip-path="url(#clip830)" style="stroke:#000000; stroke-linecap:round; stroke-linejoin:round; stroke-width:4; stroke-opacity:1; fill:none" points="
  250.028,1387.24 268.926,1387.24 
  "/>
<polyline clip-path="url(#clip830)" style="stroke:#000000; stroke-linecap:round; stroke-linejoin:round; stroke-width:4; stroke-opacity:1; fill:none" points="
  250.028,1129.85 268.926,1129.85 
  "/>
<polyline clip-path="url(#clip830)" style="stroke:#000000; stroke-linecap:round; stroke-linejoin:round; stroke-width:4; stroke-opacity:1; fill:none" points="
  250.028,872.468 268.926,872.468 
  "/>
<polyline clip-path="url(#clip830)" style="stroke:#000000; stroke-linecap:round; stroke-linejoin:round; stroke-width:4; stroke-opacity:1; fill:none" points="
  250.028,615.084 268.926,615.084 
  "/>
<polyline clip-path="url(#clip830)" style="stroke:#000000; stroke-linecap:round; stroke-linejoin:round; stroke-width:4; stroke-opacity:1; fill:none" points="
  250.028,357.7 268.926,357.7 
  "/>
<path clip-path="url(#clip830)" d="M126.691 1373.04 Q123.08 1373.04 121.251 1376.6 Q119.445 1380.14 119.445 1387.27 Q119.445 1394.38 121.251 1397.94 Q123.08 1401.48 126.691 1401.48 Q130.325 1401.48 132.13 1397.94 Q133.959 1394.38 133.959 1387.27 Q133.959 1380.14 132.13 1376.6 Q130.325 1373.04 126.691 1373.04 M126.691 1369.33 Q132.501 1369.33 135.556 1373.94 Q138.635 1378.52 138.635 1387.27 Q138.635 1396 135.556 1400.6 Q132.501 1405.19 126.691 1405.19 Q120.88 1405.19 117.802 1400.6 Q114.746 1396 114.746 1387.27 Q114.746 1378.52 117.802 1373.94 Q120.88 1369.33 126.691 1369.33 Z" fill="#000000" fill-rule="evenodd" fill-opacity="1" /><path clip-path="url(#clip830)" d="M146.853 1398.64 L151.737 1398.64 L151.737 1404.52 L146.853 1404.52 L146.853 1398.64 Z" fill="#000000" fill-rule="evenodd" fill-opacity="1" /><path clip-path="url(#clip830)" d="M171.922 1373.04 Q168.311 1373.04 166.482 1376.6 Q164.677 1380.14 164.677 1387.27 Q164.677 1394.38 166.482 1397.94 Q168.311 1401.48 171.922 1401.48 Q175.556 1401.48 177.362 1397.94 Q179.19 1394.38 179.19 1387.27 Q179.19 1380.14 177.362 1376.6 Q175.556 1373.04 171.922 1373.04 M171.922 1369.33 Q177.732 1369.33 180.788 1373.94 Q183.866 1378.52 183.866 1387.27 Q183.866 1396 180.788 1400.6 Q177.732 1405.19 171.922 1405.19 Q166.112 1405.19 163.033 1400.6 Q159.978 1396 159.978 1387.27 Q159.978 1378.52 163.033 1373.94 Q166.112 1369.33 171.922 1369.33 Z" fill="#000000" fill-rule="evenodd" fill-opacity="1" /><path clip-path="url(#clip830)" d="M202.084 1373.04 Q198.473 1373.04 196.644 1376.6 Q194.838 1380.14 194.838 1387.27 Q194.838 1394.38 196.644 1397.94 Q198.473 1401.48 202.084 1401.48 Q205.718 1401.48 207.524 1397.94 Q209.352 1394.38 209.352 1387.27 Q209.352 1380.14 207.524 1376.6 Q205.718 1373.04 202.084 1373.04 M202.084 1369.33 Q207.894 1369.33 210.949 1373.94 Q214.028 1378.52 214.028 1387.27 Q214.028 1396 210.949 1400.6 Q207.894 1405.19 202.084 1405.19 Q196.274 1405.19 193.195 1400.6 Q190.139 1396 190.139 1387.27 Q190.139 1378.52 193.195 1373.94 Q196.274 1369.33 202.084 1369.33 Z" fill="#000000" fill-rule="evenodd" fill-opacity="1" /><path clip-path="url(#clip830)" d="M128.288 1115.65 Q124.677 1115.65 122.848 1119.22 Q121.043 1122.76 121.043 1129.89 Q121.043 1136.99 122.848 1140.56 Q124.677 1144.1 128.288 1144.1 Q131.922 1144.1 133.728 1140.56 Q135.556 1136.99 135.556 1129.89 Q135.556 1122.76 133.728 1119.22 Q131.922 1115.65 128.288 1115.65 M128.288 1111.95 Q134.098 1111.95 137.154 1116.55 Q140.232 1121.14 140.232 1129.89 Q140.232 1138.61 137.154 1143.22 Q134.098 1147.8 128.288 1147.8 Q122.478 1147.8 119.399 1143.22 Q116.343 1138.61 116.343 1129.89 Q116.343 1121.14 119.399 1116.55 Q122.478 1111.95 128.288 1111.95 Z" fill="#000000" fill-rule="evenodd" fill-opacity="1" /><path clip-path="url(#clip830)" d="M148.45 1141.25 L153.334 1141.25 L153.334 1147.13 L148.45 1147.13 L148.45 1141.25 Z" fill="#000000" fill-rule="evenodd" fill-opacity="1" /><path clip-path="url(#clip830)" d="M173.519 1115.65 Q169.908 1115.65 168.079 1119.22 Q166.274 1122.76 166.274 1129.89 Q166.274 1136.99 168.079 1140.56 Q169.908 1144.1 173.519 1144.1 Q177.153 1144.1 178.959 1140.56 Q180.788 1136.99 180.788 1129.89 Q180.788 1122.76 178.959 1119.22 Q177.153 1115.65 173.519 1115.65 M173.519 1111.95 Q179.329 1111.95 182.385 1116.55 Q185.463 1121.14 185.463 1129.89 Q185.463 1138.61 182.385 1143.22 Q179.329 1147.8 173.519 1147.8 Q167.709 1147.8 164.63 1143.22 Q161.575 1138.61 161.575 1129.89 Q161.575 1121.14 164.63 1116.55 Q167.709 1111.95 173.519 1111.95 Z" fill="#000000" fill-rule="evenodd" fill-opacity="1" /><path clip-path="url(#clip830)" d="M197.709 1143.2 L214.028 1143.2 L214.028 1147.13 L192.084 1147.13 L192.084 1143.2 Q194.746 1140.44 199.329 1135.81 Q203.936 1131.16 205.116 1129.82 Q207.362 1127.29 208.241 1125.56 Q209.144 1123.8 209.144 1122.11 Q209.144 1119.36 207.199 1117.62 Q205.278 1115.88 202.176 1115.88 Q199.977 1115.88 197.524 1116.65 Q195.093 1117.41 192.315 1118.96 L192.315 1114.24 Q195.139 1113.11 197.593 1112.53 Q200.047 1111.95 202.084 1111.95 Q207.454 1111.95 210.649 1114.63 Q213.843 1117.32 213.843 1121.81 Q213.843 1123.94 213.033 1125.86 Q212.246 1127.76 210.139 1130.35 Q209.561 1131.02 206.459 1134.24 Q203.357 1137.43 197.709 1143.2 Z" fill="#000000" fill-rule="evenodd" fill-opacity="1" /><path clip-path="url(#clip830)" d="M126.205 858.267 Q122.593 858.267 120.765 861.832 Q118.959 865.373 118.959 872.503 Q118.959 879.609 120.765 883.174 Q122.593 886.716 126.205 886.716 Q129.839 886.716 131.644 883.174 Q133.473 879.609 133.473 872.503 Q133.473 865.373 131.644 861.832 Q129.839 858.267 126.205 858.267 M126.205 854.563 Q132.015 854.563 135.07 859.17 Q138.149 863.753 138.149 872.503 Q138.149 881.23 135.07 885.836 Q132.015 890.42 126.205 890.42 Q120.394 890.42 117.316 885.836 Q114.26 881.23 114.26 872.503 Q114.26 863.753 117.316 859.17 Q120.394 854.563 126.205 854.563 Z" fill="#000000" fill-rule="evenodd" fill-opacity="1" /><path clip-path="url(#clip830)" d="M146.366 883.869 L151.251 883.869 L151.251 889.748 L146.366 889.748 L146.366 883.869 Z" fill="#000000" fill-rule="evenodd" fill-opacity="1" /><path clip-path="url(#clip830)" d="M171.436 858.267 Q167.825 858.267 165.996 861.832 Q164.19 865.373 164.19 872.503 Q164.19 879.609 165.996 883.174 Q167.825 886.716 171.436 886.716 Q175.07 886.716 176.876 883.174 Q178.704 879.609 178.704 872.503 Q178.704 865.373 176.876 861.832 Q175.07 858.267 171.436 858.267 M171.436 854.563 Q177.246 854.563 180.301 859.17 Q183.38 863.753 183.38 872.503 Q183.38 881.23 180.301 885.836 Q177.246 890.42 171.436 890.42 Q165.626 890.42 162.547 885.836 Q159.491 881.23 159.491 872.503 Q159.491 863.753 162.547 859.17 Q165.626 854.563 171.436 854.563 Z" fill="#000000" fill-rule="evenodd" fill-opacity="1" /><path clip-path="url(#clip830)" d="M204.445 859.262 L192.639 877.711 L204.445 877.711 L204.445 859.262 M203.218 855.188 L209.098 855.188 L209.098 877.711 L214.028 877.711 L214.028 881.6 L209.098 881.6 L209.098 889.748 L204.445 889.748 L204.445 881.6 L188.843 881.6 L188.843 877.086 L203.218 855.188 Z" fill="#000000" fill-rule="evenodd" fill-opacity="1" /><path clip-path="url(#clip830)" d="M126.529 600.883 Q122.918 600.883 121.089 604.447 Q119.283 607.989 119.283 615.119 Q119.283 622.225 121.089 625.79 Q122.918 629.332 126.529 629.332 Q130.163 629.332 131.968 625.79 Q133.797 622.225 133.797 615.119 Q133.797 607.989 131.968 604.447 Q130.163 600.883 126.529 600.883 M126.529 597.179 Q132.339 597.179 135.394 601.785 Q138.473 606.369 138.473 615.119 Q138.473 623.845 135.394 628.452 Q132.339 633.035 126.529 633.035 Q120.718 633.035 117.64 628.452 Q114.584 623.845 114.584 615.119 Q114.584 606.369 117.64 601.785 Q120.718 597.179 126.529 597.179 Z" fill="#000000" fill-rule="evenodd" fill-opacity="1" /><path clip-path="url(#clip830)" d="M146.691 626.484 L151.575 626.484 L151.575 632.364 L146.691 632.364 L146.691 626.484 Z" fill="#000000" fill-rule="evenodd" fill-opacity="1" /><path clip-path="url(#clip830)" d="M171.76 600.883 Q168.149 600.883 166.32 604.447 Q164.515 607.989 164.515 615.119 Q164.515 622.225 166.32 625.79 Q168.149 629.332 171.76 629.332 Q175.394 629.332 177.2 625.79 Q179.028 622.225 179.028 615.119 Q179.028 607.989 177.2 604.447 Q175.394 600.883 171.76 600.883 M171.76 597.179 Q177.57 597.179 180.626 601.785 Q183.704 606.369 183.704 615.119 Q183.704 623.845 180.626 628.452 Q177.57 633.035 171.76 633.035 Q165.95 633.035 162.871 628.452 Q159.815 623.845 159.815 615.119 Q159.815 606.369 162.871 601.785 Q165.95 597.179 171.76 597.179 Z" fill="#000000" fill-rule="evenodd" fill-opacity="1" /><path clip-path="url(#clip830)" d="M202.5 613.221 Q199.352 613.221 197.5 615.373 Q195.672 617.526 195.672 621.276 Q195.672 625.003 197.5 627.179 Q199.352 629.332 202.5 629.332 Q205.649 629.332 207.477 627.179 Q209.329 625.003 209.329 621.276 Q209.329 617.526 207.477 615.373 Q205.649 613.221 202.5 613.221 M211.783 598.568 L211.783 602.827 Q210.024 601.994 208.218 601.554 Q206.436 601.114 204.676 601.114 Q200.047 601.114 197.593 604.239 Q195.163 607.364 194.815 613.683 Q196.181 611.67 198.241 610.605 Q200.301 609.517 202.778 609.517 Q207.987 609.517 210.996 612.688 Q214.028 615.836 214.028 621.276 Q214.028 626.6 210.88 629.818 Q207.732 633.035 202.5 633.035 Q196.505 633.035 193.334 628.452 Q190.163 623.845 190.163 615.119 Q190.163 606.924 194.051 602.063 Q197.94 597.179 204.491 597.179 Q206.25 597.179 208.033 597.526 Q209.838 597.873 211.783 598.568 Z" fill="#000000" fill-rule="evenodd" fill-opacity="1" /><path clip-path="url(#clip830)" d="M126.783 343.498 Q123.172 343.498 121.343 347.063 Q119.538 350.605 119.538 357.734 Q119.538 364.841 121.343 368.406 Q123.172 371.947 126.783 371.947 Q130.417 371.947 132.223 368.406 Q134.052 364.841 134.052 357.734 Q134.052 350.605 132.223 347.063 Q130.417 343.498 126.783 343.498 M126.783 339.795 Q132.593 339.795 135.649 344.401 Q138.728 348.984 138.728 357.734 Q138.728 366.461 135.649 371.068 Q132.593 375.651 126.783 375.651 Q120.973 375.651 117.894 371.068 Q114.839 366.461 114.839 357.734 Q114.839 348.984 117.894 344.401 Q120.973 339.795 126.783 339.795 Z" fill="#000000" fill-rule="evenodd" fill-opacity="1" /><path clip-path="url(#clip830)" d="M146.945 369.1 L151.829 369.1 L151.829 374.98 L146.945 374.98 L146.945 369.1 Z" fill="#000000" fill-rule="evenodd" fill-opacity="1" /><path clip-path="url(#clip830)" d="M172.014 343.498 Q168.403 343.498 166.575 347.063 Q164.769 350.605 164.769 357.734 Q164.769 364.841 166.575 368.406 Q168.403 371.947 172.014 371.947 Q175.649 371.947 177.454 368.406 Q179.283 364.841 179.283 357.734 Q179.283 350.605 177.454 347.063 Q175.649 343.498 172.014 343.498 M172.014 339.795 Q177.825 339.795 180.88 344.401 Q183.959 348.984 183.959 357.734 Q183.959 366.461 180.88 371.068 Q177.825 375.651 172.014 375.651 Q166.204 375.651 163.126 371.068 Q160.07 366.461 160.07 357.734 Q160.07 348.984 163.126 344.401 Q166.204 339.795 172.014 339.795 Z" fill="#000000" fill-rule="evenodd" fill-opacity="1" /><path clip-path="url(#clip830)" d="M202.176 358.568 Q198.843 358.568 196.922 360.35 Q195.024 362.132 195.024 365.257 Q195.024 368.382 196.922 370.165 Q198.843 371.947 202.176 371.947 Q205.51 371.947 207.431 370.165 Q209.352 368.359 209.352 365.257 Q209.352 362.132 207.431 360.35 Q205.533 358.568 202.176 358.568 M197.5 356.577 Q194.491 355.836 192.801 353.776 Q191.135 351.716 191.135 348.753 Q191.135 344.609 194.075 342.202 Q197.037 339.795 202.176 339.795 Q207.338 339.795 210.278 342.202 Q213.218 344.609 213.218 348.753 Q213.218 351.716 211.528 353.776 Q209.861 355.836 206.875 356.577 Q210.255 357.364 212.13 359.656 Q214.028 361.947 214.028 365.257 Q214.028 370.281 210.949 372.966 Q207.894 375.651 202.176 375.651 Q196.459 375.651 193.38 372.966 Q190.325 370.281 190.325 365.257 Q190.325 361.947 192.223 359.656 Q194.121 357.364 197.5 356.577 M195.787 349.193 Q195.787 351.878 197.454 353.382 Q199.144 354.887 202.176 354.887 Q205.186 354.887 206.875 353.382 Q208.588 351.878 208.588 349.193 Q208.588 346.508 206.875 345.003 Q205.186 343.498 202.176 343.498 Q199.144 343.498 197.454 345.003 Q195.787 346.508 195.787 349.193 Z" fill="#000000" fill-rule="evenodd" fill-opacity="1" /><path clip-path="url(#clip830)" d="M24.8606 806.044 Q26.2777 806.044 27.3404 807.204 Q28.371 808.331 28.371 809.555 Q28.371 810.682 27.6947 811.391 Q26.9862 812.067 25.9878 812.067 Q24.6674 812.067 23.5724 810.94 Q22.4774 809.812 22.4774 808.492 Q22.4774 807.397 23.1537 806.721 Q23.83 806.044 24.8606 806.044 M56.6478 805.465 Q56.9054 805.465 57.936 805.755 Q58.9344 806.044 60.4803 806.753 Q61.994 807.429 63.411 808.363 Q64.8281 809.297 65.8264 810.843 Q66.8248 812.357 66.8248 814.096 Q66.8248 816.447 65.2789 817.993 Q63.7331 819.506 61.4142 819.506 Q60.1582 819.506 56.1325 817.993 Q44.4096 813.613 43.9265 813.452 Q42.0907 812.711 40.4804 812.711 Q39.7397 812.711 39.2888 812.872 Q38.8057 813.033 38.6447 813.355 Q38.4515 813.677 38.4193 813.87 Q38.3871 814.031 38.3871 814.354 Q38.3871 816.254 40.3194 818.025 Q42.2518 819.796 46.5673 821.02 Q47.3725 821.278 47.5657 821.439 Q47.759 821.6 47.759 822.083 Q47.7268 822.888 47.0826 822.888 Q46.8894 822.888 46.1487 822.663 Q45.3757 822.437 44.2163 822.018 Q43.0247 821.6 41.8009 820.859 Q40.5448 820.118 39.4498 819.217 Q38.3548 818.283 37.6463 816.962 Q36.9378 815.642 36.9378 814.16 Q36.9378 811.745 38.5159 810.263 Q40.0618 808.75 42.3484 808.75 Q43.6044 808.75 45.8266 809.619 Q48.7251 810.682 49.6591 811.069 L56.5834 813.645 Q59.0954 814.579 59.8684 814.869 Q60.6091 815.126 61.5109 815.352 Q62.3804 815.545 63.1856 815.545 Q64.3128 815.545 64.8281 815.191 Q65.3434 814.804 65.3434 813.967 Q65.3434 811.648 63.0567 809.941 Q60.7379 808.234 57.1953 807.236 Q57.0987 807.204 56.9376 807.172 Q56.1325 806.914 56.0359 806.656 Q56.0037 806.527 56.0037 806.27 Q56.0037 805.465 56.6478 805.465 Z" fill="#000000" fill-rule="evenodd" fill-opacity="1" /><path clip-path="url(#clip830)" d="M49.5947 794.824 Q38.4515 794.824 29.466 790.669 Q25.6979 788.898 22.5418 786.418 Q19.3856 783.938 18.0007 782.296 Q16.6159 780.653 16.6159 780.202 Q16.6159 779.558 17.26 779.526 Q17.5821 779.526 18.3872 780.395 Q29.2084 791.023 49.5947 790.991 Q70.0454 790.991 80.4479 780.653 Q81.5751 779.526 81.9294 779.526 Q82.5735 779.526 82.5735 780.202 Q82.5735 780.653 81.2531 782.231 Q79.9326 783.809 76.9053 786.257 Q73.8779 788.705 70.1742 790.476 Q61.1888 794.824 49.5947 794.824 Z" fill="#000000" fill-rule="evenodd" fill-opacity="1" /><path clip-path="url(#clip830)" d="M38.3871 754.255 Q39.2888 754.255 39.5143 754.673 Q39.7075 755.092 39.7075 756.252 L39.7075 762.435 L59.1598 767.33 Q60.8667 767.717 62.316 767.717 Q63.9263 767.717 64.6348 767.234 Q65.3434 766.718 65.3434 765.656 Q65.3434 763.562 63.4432 761.308 Q61.5431 759.021 56.9054 757.089 Q56.2935 756.831 56.1647 756.702 Q56.0037 756.541 56.0037 756.123 Q56.0037 755.318 56.6478 755.318 Q56.8732 755.318 57.9038 755.768 Q58.9344 756.187 60.4481 757.121 Q61.9617 758.023 63.3788 759.215 Q64.7959 760.374 65.8264 762.145 Q66.8248 763.917 66.8248 765.817 Q66.8248 768.49 65.1179 770.197 Q63.411 771.871 60.7379 771.871 Q59.8684 771.871 57.0987 771.195 Q54.2967 770.519 39.7075 766.847 L39.7075 772.677 Q39.7075 773.482 39.6753 773.804 Q39.6431 774.094 39.4821 774.319 Q39.2888 774.512 38.9023 774.512 Q38.2904 774.512 38.0328 774.255 Q37.7429 773.997 37.7107 773.675 Q37.6463 773.321 37.6463 772.516 L37.6463 766.332 L27.1794 763.756 Q26.1488 763.498 25.5691 762.854 Q24.9572 762.177 24.8928 761.791 Q24.7962 761.405 24.7962 761.115 Q24.7962 760.245 25.2793 759.73 Q25.7302 759.215 26.5675 759.215 Q27.0184 759.215 37.6463 761.92 L37.6463 756.123 Q37.6463 755.382 37.6785 755.092 Q37.7107 754.77 37.8718 754.512 Q38.0328 754.255 38.3871 754.255 Z" fill="#000000" fill-rule="evenodd" fill-opacity="1" /><path clip-path="url(#clip830)" d="M81.9294 749.091 Q81.6073 749.091 80.8022 748.254 Q69.981 737.626 49.5947 737.626 Q29.144 737.626 18.8059 747.835 Q17.6143 749.091 17.26 749.091 Q16.6159 749.091 16.6159 748.447 Q16.6159 747.996 17.9363 746.418 Q19.2568 744.808 22.2841 742.393 Q25.3115 739.945 29.0151 738.141 Q38.0006 733.794 49.5947 733.794 Q60.7379 733.794 69.7234 737.948 Q73.4914 739.719 76.6476 742.199 Q79.8038 744.679 81.1886 746.322 Q82.5735 747.964 82.5735 748.447 Q82.5735 749.091 81.9294 749.091 Z" fill="#000000" fill-rule="evenodd" fill-opacity="1" /><path clip-path="url(#clip830)" d="M871.976 12.096 L882.994 12.096 L909.811 62.6918 L909.811 12.096 L917.751 12.096 L917.751 72.576 L906.733 72.576 L879.916 21.9802 L879.916 72.576 L871.976 72.576 L871.976 12.096 Z" fill="#000000" fill-rule="evenodd" fill-opacity="1" /><path clip-path="url(#clip830)" d="M932.942 54.671 L932.942 27.2059 L940.396 27.2059 L940.396 54.3874 Q940.396 60.8284 942.907 64.0691 Q945.419 67.2693 950.442 67.2693 Q956.478 67.2693 959.962 63.421 Q963.486 59.5726 963.486 52.9291 L963.486 27.2059 L970.94 27.2059 L970.94 72.576 L963.486 72.576 L963.486 65.6084 Q960.772 69.7404 957.166 71.7658 Q953.602 73.7508 948.862 73.7508 Q941.044 73.7508 936.993 68.8897 Q932.942 64.0286 932.942 54.671 M951.698 26.1121 L951.698 26.1121 Z" fill="#000000" fill-rule="evenodd" fill-opacity="1" /><path clip-path="url(#clip830)" d="M1021.62 35.9153 Q1024.41 30.8922 1028.3 28.5022 Q1032.19 26.1121 1037.46 26.1121 Q1044.54 26.1121 1048.39 31.0947 Q1052.24 36.0368 1052.24 45.1919 L1052.24 72.576 L1044.75 72.576 L1044.75 45.4349 Q1044.75 38.913 1042.44 35.7533 Q1040.13 32.5936 1035.39 32.5936 Q1029.6 32.5936 1026.23 36.4419 Q1022.87 40.2903 1022.87 46.9338 L1022.87 72.576 L1015.38 72.576 L1015.38 45.4349 Q1015.38 38.8725 1013.07 35.7533 Q1010.76 32.5936 1005.94 32.5936 Q1000.23 32.5936 996.865 36.4824 Q993.503 40.3308 993.503 46.9338 L993.503 72.576 L986.009 72.576 L986.009 27.2059 L993.503 27.2059 L993.503 34.2544 Q996.055 30.082 999.62 28.0971 Q1003.18 26.1121 1008.09 26.1121 Q1013.03 26.1121 1016.47 28.6237 Q1019.96 31.1352 1021.62 35.9153 Z" fill="#000000" fill-rule="evenodd" fill-opacity="1" /><path clip-path="url(#clip830)" d="M1099.68 49.9314 Q1099.68 41.7081 1096.27 37.0496 Q1092.91 32.3505 1087 32.3505 Q1081.08 32.3505 1077.68 37.0496 Q1074.32 41.7081 1074.32 49.9314 Q1074.32 58.1548 1077.68 62.8538 Q1081.08 67.5124 1087 67.5124 Q1092.91 67.5124 1096.27 62.8538 Q1099.68 58.1548 1099.68 49.9314 M1074.32 34.0924 Q1076.67 30.0415 1080.23 28.0971 Q1083.84 26.1121 1088.82 26.1121 Q1097.08 26.1121 1102.23 32.6746 Q1107.41 39.2371 1107.41 49.9314 Q1107.41 60.6258 1102.23 67.1883 Q1097.08 73.7508 1088.82 73.7508 Q1083.84 73.7508 1080.23 71.8063 Q1076.67 69.8214 1074.32 65.7705 L1074.32 72.576 L1066.82 72.576 L1066.82 9.54393 L1074.32 9.54393 L1074.32 34.0924 Z" fill="#000000" fill-rule="evenodd" fill-opacity="1" /><path clip-path="url(#clip830)" d="M1158.58 48.0275 L1158.58 51.6733 L1124.31 51.6733 Q1124.79 59.3701 1128.92 63.421 Q1133.1 67.4314 1140.51 67.4314 Q1144.8 67.4314 1148.81 66.3781 Q1152.87 65.3249 1156.84 63.2184 L1156.84 70.267 Q1152.83 71.9684 1148.61 72.8596 Q1144.4 73.7508 1140.06 73.7508 Q1129.21 73.7508 1122.85 67.4314 Q1116.53 61.1119 1116.53 50.3365 Q1116.53 39.1965 1122.52 32.6746 Q1128.56 26.1121 1138.77 26.1121 Q1147.92 26.1121 1153.23 32.0264 Q1158.58 37.9003 1158.58 48.0275 M1151.12 45.84 Q1151.04 39.7232 1147.68 36.0774 Q1144.36 32.4315 1138.85 32.4315 Q1132.61 32.4315 1128.84 35.9558 Q1125.12 39.4801 1124.55 45.8805 L1151.12 45.84 Z" fill="#000000" fill-rule="evenodd" fill-opacity="1" /><path clip-path="url(#clip830)" d="M1197.1 34.1734 Q1195.85 33.4443 1194.35 33.1202 Q1192.89 32.7556 1191.11 32.7556 Q1184.79 32.7556 1181.38 36.8875 Q1178.02 40.9789 1178.02 48.6757 L1178.02 72.576 L1170.53 72.576 L1170.53 27.2059 L1178.02 27.2059 L1178.02 34.2544 Q1180.37 30.1225 1184.14 28.1376 Q1187.91 26.1121 1193.29 26.1121 Q1194.06 26.1121 1195 26.2337 Q1195.93 26.3147 1197.06 26.5172 L1197.1 34.1734 Z" fill="#000000" fill-rule="evenodd" fill-opacity="1" /><path clip-path="url(#clip830)" d="M1248.87 32.4315 Q1242.88 32.4315 1239.39 37.1306 Q1235.91 41.7891 1235.91 49.9314 Q1235.91 58.0738 1239.35 62.7728 Q1242.84 67.4314 1248.87 67.4314 Q1254.83 67.4314 1258.31 62.7323 Q1261.79 58.0333 1261.79 49.9314 Q1261.79 41.8701 1258.31 37.1711 Q1254.83 32.4315 1248.87 32.4315 M1248.87 26.1121 Q1258.59 26.1121 1264.14 32.4315 Q1269.69 38.7509 1269.69 49.9314 Q1269.69 61.0714 1264.14 67.4314 Q1258.59 73.7508 1248.87 73.7508 Q1239.11 73.7508 1233.56 67.4314 Q1228.05 61.0714 1228.05 49.9314 Q1228.05 38.7509 1233.56 32.4315 Q1239.11 26.1121 1248.87 26.1121 Z" fill="#000000" fill-rule="evenodd" fill-opacity="1" /><path clip-path="url(#clip830)" d="M1305.02 9.54393 L1305.02 15.7418 L1297.89 15.7418 Q1293.88 15.7418 1292.3 17.3622 Q1290.76 18.9825 1290.76 23.1955 L1290.76 27.2059 L1303.03 27.2059 L1303.03 32.9987 L1290.76 32.9987 L1290.76 72.576 L1283.26 72.576 L1283.26 32.9987 L1276.13 32.9987 L1276.13 27.2059 L1283.26 27.2059 L1283.26 24.0462 Q1283.26 16.471 1286.79 13.0277 Q1290.31 9.54393 1297.97 9.54393 L1305.02 9.54393 Z" fill="#000000" fill-rule="evenodd" fill-opacity="1" /><path clip-path="url(#clip830)" d="M1337.95 12.096 L1346.13 12.096 L1346.13 72.576 L1337.95 72.576 L1337.95 12.096 Z" fill="#000000" fill-rule="evenodd" fill-opacity="1" /><path clip-path="url(#clip830)" d="M1399.81 45.1919 L1399.81 72.576 L1392.36 72.576 L1392.36 45.4349 Q1392.36 38.994 1389.84 35.7938 Q1387.33 32.5936 1382.31 32.5936 Q1376.27 32.5936 1372.79 36.4419 Q1369.31 40.2903 1369.31 46.9338 L1369.31 72.576 L1361.81 72.576 L1361.81 27.2059 L1369.31 27.2059 L1369.31 34.2544 Q1371.98 30.163 1375.58 28.1376 Q1379.23 26.1121 1383.97 26.1121 Q1391.79 26.1121 1395.8 30.9732 Q1399.81 35.7938 1399.81 45.1919 Z" fill="#000000" fill-rule="evenodd" fill-opacity="1" /><path clip-path="url(#clip830)" d="M1437.64 9.54393 L1437.64 15.7418 L1430.51 15.7418 Q1426.5 15.7418 1424.92 17.3622 Q1423.39 18.9825 1423.39 23.1955 L1423.39 27.2059 L1435.66 27.2059 L1435.66 32.9987 L1423.39 32.9987 L1423.39 72.576 L1415.89 72.576 L1415.89 32.9987 L1408.76 32.9987 L1408.76 27.2059 L1415.89 27.2059 L1415.89 24.0462 Q1415.89 16.471 1419.42 13.0277 Q1422.94 9.54393 1430.6 9.54393 L1437.64 9.54393 Z" fill="#000000" fill-rule="evenodd" fill-opacity="1" /><path clip-path="url(#clip830)" d="M1482.69 48.0275 L1482.69 51.6733 L1448.42 51.6733 Q1448.91 59.3701 1453.04 63.421 Q1457.21 67.4314 1464.62 67.4314 Q1468.92 67.4314 1472.93 66.3781 Q1476.98 65.3249 1480.95 63.2184 L1480.95 70.267 Q1476.94 71.9684 1472.73 72.8596 Q1468.51 73.7508 1464.18 73.7508 Q1453.32 73.7508 1446.96 67.4314 Q1440.64 61.1119 1440.64 50.3365 Q1440.64 39.1965 1446.64 32.6746 Q1452.67 26.1121 1462.88 26.1121 Q1472.04 26.1121 1477.34 32.0264 Q1482.69 37.9003 1482.69 48.0275 M1475.24 45.84 Q1475.16 39.7232 1471.79 36.0774 Q1468.47 32.4315 1462.96 32.4315 Q1456.72 32.4315 1452.96 35.9558 Q1449.23 39.4801 1448.66 45.8805 L1475.24 45.84 Z" fill="#000000" fill-rule="evenodd" fill-opacity="1" /><path clip-path="url(#clip830)" d="M1527.57 28.9478 L1527.57 35.9153 Q1524.41 34.1734 1521.21 33.3227 Q1518.05 32.4315 1514.81 32.4315 Q1507.56 32.4315 1503.55 37.0496 Q1499.54 41.6271 1499.54 49.9314 Q1499.54 58.2358 1503.55 62.8538 Q1507.56 67.4314 1514.81 67.4314 Q1518.05 67.4314 1521.21 66.5807 Q1524.41 65.6895 1527.57 63.9476 L1527.57 70.8341 Q1524.46 72.2924 1521.09 73.0216 Q1517.77 73.7508 1514 73.7508 Q1503.75 73.7508 1497.72 67.3098 Q1491.68 60.8689 1491.68 49.9314 Q1491.68 38.832 1497.76 32.472 Q1503.88 26.1121 1514.49 26.1121 Q1517.93 26.1121 1521.21 26.8413 Q1524.5 27.5299 1527.57 28.9478 Z" fill="#000000" fill-rule="evenodd" fill-opacity="1" /><path clip-path="url(#clip830)" d="M1547.91 14.324 L1547.91 27.2059 L1563.26 27.2059 L1563.26 32.9987 L1547.91 32.9987 L1547.91 57.6282 Q1547.91 63.1779 1549.41 64.7578 Q1550.95 66.3376 1555.61 66.3376 L1563.26 66.3376 L1563.26 72.576 L1555.61 72.576 Q1546.98 72.576 1543.7 69.3758 Q1540.42 66.1351 1540.42 57.6282 L1540.42 32.9987 L1534.95 32.9987 L1534.95 27.2059 L1540.42 27.2059 L1540.42 14.324 L1547.91 14.324 Z" fill="#000000" fill-rule="evenodd" fill-opacity="1" /><path clip-path="url(#clip830)" d="M1573.07 27.2059 L1580.52 27.2059 L1580.52 72.576 L1573.07 72.576 L1573.07 27.2059 M1573.07 9.54393 L1580.52 9.54393 L1580.52 18.9825 L1573.07 18.9825 L1573.07 9.54393 Z" fill="#000000" fill-rule="evenodd" fill-opacity="1" /><path clip-path="url(#clip830)" d="M1613.7 32.4315 Q1607.7 32.4315 1604.22 37.1306 Q1600.73 41.7891 1600.73 49.9314 Q1600.73 58.0738 1604.18 62.7728 Q1607.66 67.4314 1613.7 67.4314 Q1619.65 67.4314 1623.14 62.7323 Q1626.62 58.0333 1626.62 49.9314 Q1626.62 41.8701 1623.14 37.1711 Q1619.65 32.4315 1613.7 32.4315 M1613.7 26.1121 Q1623.42 26.1121 1628.97 32.4315 Q1634.52 38.7509 1634.52 49.9314 Q1634.52 61.0714 1628.97 67.4314 Q1623.42 73.7508 1613.7 73.7508 Q1603.93 73.7508 1598.38 67.4314 Q1592.87 61.0714 1592.87 49.9314 Q1592.87 38.7509 1598.38 32.4315 Q1603.93 26.1121 1613.7 26.1121 Z" fill="#000000" fill-rule="evenodd" fill-opacity="1" /><path clip-path="url(#clip830)" d="M1684.59 45.1919 L1684.59 72.576 L1677.13 72.576 L1677.13 45.4349 Q1677.13 38.994 1674.62 35.7938 Q1672.11 32.5936 1667.09 32.5936 Q1661.05 32.5936 1657.57 36.4419 Q1654.08 40.2903 1654.08 46.9338 L1654.08 72.576 L1646.59 72.576 L1646.59 27.2059 L1654.08 27.2059 L1654.08 34.2544 Q1656.76 30.163 1660.36 28.1376 Q1664.01 26.1121 1668.75 26.1121 Q1676.57 26.1121 1680.58 30.9732 Q1684.59 35.7938 1684.59 45.1919 Z" fill="#000000" fill-rule="evenodd" fill-opacity="1" /><path clip-path="url(#clip830)" d="M1728.38 28.5427 L1728.38 35.5912 Q1725.22 33.9709 1721.82 33.1607 Q1718.41 32.3505 1714.77 32.3505 Q1709.22 32.3505 1706.42 34.0519 Q1703.67 35.7533 1703.67 39.156 Q1703.67 41.7486 1705.65 43.2475 Q1707.64 44.7058 1713.63 46.0426 L1716.18 46.6097 Q1724.12 48.3111 1727.45 51.4303 Q1730.81 54.509 1730.81 60.0587 Q1730.81 66.3781 1725.79 70.0644 Q1720.8 73.7508 1712.05 73.7508 Q1708.41 73.7508 1704.44 73.0216 Q1700.51 72.3329 1696.13 70.9151 L1696.13 63.2184 Q1700.26 65.3654 1704.27 66.4591 Q1708.29 67.5124 1712.21 67.5124 Q1717.48 67.5124 1720.32 65.73 Q1723.15 63.9071 1723.15 60.6258 Q1723.15 57.5877 1721.09 55.9673 Q1719.06 54.3469 1712.13 52.8481 L1709.54 52.2405 Q1702.61 50.7821 1699.54 47.7845 Q1696.46 44.7463 1696.46 39.4801 Q1696.46 33.0797 1700.99 29.5959 Q1705.53 26.1121 1713.88 26.1121 Q1718.01 26.1121 1721.65 26.7198 Q1725.3 27.3274 1728.38 28.5427 Z" fill="#000000" fill-rule="evenodd" fill-opacity="1" /><polyline clip-path="url(#clip832)" style="stroke:#009af9; stroke-linecap:round; stroke-linejoin:round; stroke-width:4; stroke-opacity:1; fill:none" points="
  250.028,1386.26 250.085,1386.26 250.098,1386.26 250.113,1386.26 250.131,1386.26 250.15,1386.26 250.171,1386.26 250.196,1386.26 250.223,1386.26 250.254,1386.26 
  250.289,1386.26 250.328,1386.26 250.372,1386.26 250.421,1386.26 250.477,1386.27 250.539,1386.27 250.61,1386.27 250.689,1386.27 250.778,1386.27 250.878,1386.27 
  250.991,1386.27 251.118,1386.27 251.26,1386.27 251.421,1386.27 251.601,1386.27 251.805,1386.27 252.031,1386.28 252.278,1386.28 252.543,1386.28 252.828,1386.28 
  253.129,1386.28 253.446,1386.28 253.777,1386.29 254.12,1386.29 254.475,1386.29 254.842,1386.29 255.219,1386.29 255.603,1386.3 255.996,1386.3 256.397,1386.3 
  256.807,1386.3 257.226,1386.31 257.652,1386.31 258.083,1386.31 258.522,1386.31 258.966,1386.31 259.415,1386.32 259.874,1386.32 260.341,1386.32 260.813,1386.32 
  261.285,1386.32 261.761,1386.33 262.24,1386.33 262.724,1386.33 263.21,1386.33 263.696,1386.34 264.188,1386.34 264.684,1386.34 265.181,1386.34 265.679,1386.34 
  266.173,1386.35 266.665,1386.35 267.155,1386.35 267.648,1386.35 268.14,1386.35 268.637,1386.36 269.14,1386.36 269.653,1386.36 270.175,1386.36 270.7,1386.36 
  271.231,1386.37 271.767,1386.37 272.306,1386.37 272.858,1386.37 273.418,1386.37 273.986,1386.37 274.567,1386.37 275.164,1386.38 275.773,1386.38 276.393,1386.38 
  277.027,1386.38 277.678,1386.38 278.346,1386.38 279.023,1386.38 279.719,1386.38 280.435,1386.38 281.169,1386.38 281.922,1386.38 282.688,1386.38 283.464,1386.38 
  284.261,1386.39 285.064,1386.39 285.872,1386.39 286.699,1386.39 287.546,1386.39 288.405,1386.39 289.274,1386.39 290.159,1386.39 291.065,1386.39 291.981,1386.39 
  292.898,1386.39 293.836,1386.38 294.796,1386.38 295.772,1386.38 296.778,1386.38 297.818,1386.38 298.873,1386.38 299.98,1386.38 301.13,1386.37 302.308,1386.37 
  303.513,1386.37 304.769,1386.37 306.072,1386.36 307.427,1386.36 308.853,1386.36 310.318,1386.35 311.863,1386.35 313.426,1386.34 315.015,1386.34 316.659,1386.33 
  318.373,1386.32 320.189,1386.32 322.043,1386.31 323.943,1386.3 325.931,1386.29 328.063,1386.28 330.298,1386.27 332.626,1386.26 335.059,1386.25 337.382,1386.23 
  339.74,1386.22 342.186,1386.21 344.537,1386.2 346.945,1386.19 349.205,1386.18 351.553,1386.16 354.194,1386.15 357.14,1386.12 360.454,1386.1 364.183,1386.07 
  367.626,1386.05 370.879,1386.02 374.539,1385.99 378.507,1385.96 382.615,1385.92 387.216,1385.88 391.679,1385.84 396.584,1385.78 402.101,1385.71 408.309,1385.62 
  415.292,1385.51 420.877,1385.41 427.139,1385.3 434.184,1385.15 441.722,1384.99 448.174,1384.84 455.434,1384.67 463.6,1384.45 470.43,1384.25 477.776,1384.07 
  486.04,1383.85 491.229,1383.7 497.066,1383.52 503.632,1383.33 507.074,1383.22 510.947,1383.09 515.303,1382.95 519.527,1382.83 522.971,1382.74 526.588,1382.64 
  530.063,1382.54 533.757,1382.41 537.913,1382.27 542.581,1382.1 547.105,1381.93 552.193,1381.73 557.918,1381.5 563.544,1381.3 568.103,1381.14 572.843,1380.97 
  577.126,1380.82 581.129,1380.67 585.202,1380.5 589.168,1380.32 593.603,1380.12 598.017,1379.9 602.913,1379.62 608.422,1379.32 614.297,1378.96 620.906,1378.52 
  627.29,1378.06 634.472,1377.53 642.552,1376.91 649.61,1376.36 657.231,1375.7 665.657,1374.86 675.136,1373.82 685.275,1372.56 696.681,1370.85 707.475,1368.95 
  715.75,1367.23 722.653,1365.63 729.675,1363.96 736.344,1362.29 743.846,1360.18 750.161,1358.41 757.251,1356.18 763.879,1353.69 768.578,1351.79 773.408,1349.77 
  777.924,1347.79 782.726,1345.55 787.201,1343.28 791.456,1340.97 795.492,1338.65 799.355,1336.58 803.694,1334.34 808.575,1331.65 813.982,1328.53 819.215,1325.07 
  824.277,1321.29 828.74,1317.6 832.908,1313.98 836.884,1310.32 840.675,1306.66 844.364,1302.99 847.95,1299.11 851.402,1295.41 854.761,1291.76 858.345,1287.84 
  861.988,1283.6 865.631,1279.31 869.257,1275.24 873.336,1270.54 877.654,1265.44 882.298,1260.12 887.522,1254.33 893.399,1247.34 900.011,1239.86 907.449,1231.57 
  915.243,1222.72 922.758,1213.87 930.456,1202.65 939.117,1189.12 947.71,1173.92 956.301,1156.3 963.752,1140.84 970.945,1125.29 978.224,1109.93 985.904,1094.85 
  993.486,1078.77 1001.01,1063.82 1008.46,1048.82 1015.41,1033.46 1022.28,1017.62 1029.02,1000.38 1035.75,983.005 1042.3,967.514 1048.62,953.479 1054.35,939.806 
  1060.09,924.186 1065.85,906.613 1071.48,886.926 1076.85,865.374 1081.53,847.201 1086.24,829.063 1090.79,812.608 1095.43,795.578 1099.88,778.209 1104.24,760.906 
  1108.42,743.315 1112.49,723.825 1116.17,706.826 1119.84,688.657 1123.21,672.263 1126.52,656.336 1129.8,640.475 1133.03,624.49 1136.07,608.545 1139.04,592.599 
  1141.88,576.834 1144.65,561.168 1147.29,546.273 1149.91,530.93 1152.46,515.678 1154.91,500.819 1157.28,486.823 1159.67,472.961 1162.01,459.374 1164.32,445.149 
  1166.57,431.379 1168.76,418.041 1170.96,405.144 1173.13,392.928 1175.33,380.505 1177.47,369.121 1179.71,357.161 1181.88,346.25 1184.12,335.326 1186.35,325.162 
  1188.64,315.071 1190.92,305.098 1193.24,294.588 1195.51,284.623 1197.81,274.706 1200.09,266.936 1202.45,260.531 1204.87,254.605 1207.33,248.49 1209.8,242.191 
  1212.29,236.174 1214.8,230.288 1217.31,224.037 1219.83,218.501 1222.35,212.72 1224.88,206.081 1227.39,198.709 1229.84,191.045 1232.26,184.626 1234.68,179.036 
  1237.12,173.585 1239.55,169.437 1242.02,165.599 1244.5,162.501 1246.98,161.036 1249.5,160.256 1252.02,160.996 1254.54,161.084 1257.08,160.5 1259.64,160.863 
  1262.21,162.102 1264.77,163.231 1267.35,164.206 1269.95,164.885 1272.56,165.172 1275.18,165.324 1277.8,167.311 1280.45,170.636 1283.08,174.131 1285.72,177.946 
  1288.38,182.086 1291.03,186.533 1293.7,190.783 1296.39,194.737 1299.09,197.918 1301.83,200.398 1304.57,202.833 1307.32,205.347 1310.08,208.494 1312.86,213.218 
  1315.67,220.075 1318.47,226.895 1321.26,233.253 1324.11,239.7 1326.97,246.091 1329.87,251.059 1332.79,254.731 1335.66,258.683 1338.53,263.37 1341.42,268.106 
  1344.33,272.985 1347.24,277.006 1350.1,280.807 1352.89,285.049 1355.71,290.883 1358.63,297.572 1361.6,303.825 1364.56,309.902 1367.52,315.87 1370.43,321.67 
  1373.39,327.061 1376.22,331.921 1379.05,337.183 1381.81,343.22 1384.65,350.362 1387.59,358.037 1390.53,365.531 1393.56,373.518 1396.54,381.684 1399.62,390.884 
  1402.76,400.379 1405.94,410.749 1409.24,421.676 1412.61,431.455 1415.92,440.95 1419.23,451.056 1422.56,460.574 1425.87,470.281 1429.2,480.344 1432.54,490.968 
  1436.01,501.469 1439.48,511.441 1442.86,521.208 1446.18,531.292 1449.59,541.754 1453.02,552.333 1456.49,563.317 1460.09,574.791 1463.64,587.25 1467.48,601.082 
  1471.48,615.412 1475.59,630.593 1479.86,646.476 1484.22,662.719 1488.73,678.639 1493.38,695.488 1498.16,711.939 1503.09,728.276 1508.14,744.226 1513.09,759.687 
  1518.22,775.442 1523.43,790.163 1528.38,804.296 1533.22,818.797 1538.67,835.635 1544.36,853.135 1550.26,870.698 1556.41,888.987 1562.74,906.454 1569.4,924.436 
  1576.16,942.412 1583.37,961.201 1590.73,979.862 1598.44,998.525 1606.09,1016.58 1614.38,1035.48 1622.89,1054.46 1630.29,1069.98 1638.22,1085.39 1647.13,1102.35 
  1655.74,1117.21 1665.42,1132.81 1675.08,1148.56 1684.47,1163.82 1691.14,1173.79 1698.64,1184.64 1705.6,1194.29 1712.37,1203.53 1717.99,1210.54 1724.31,1218.37 
  1730.47,1225.88 1735.48,1231.61 1740.93,1237.46 1746.8,1243.43 1753.08,1249.58 1760.11,1255.84 1768.02,1262.33 1776.92,1269.22 1786.28,1275.74 1793.65,1280.39 
  1800.3,1284.63 1807.61,1289.26 1815.72,1294.38 1824.85,1299.86 1835.03,1305.64 1846.49,1311.96 1855.31,1316.52 1864.6,1321.06 1873.01,1325.04 1880.54,1328.29 
  1888.53,1331.39 1897.53,1334.71 1907.65,1338.39 1914.26,1340.68 1920.72,1342.79 1927.64,1344.89 1935.42,1347.04 1944.17,1349.31 1954.01,1351.85 1963.7,1354.34 
  1968.65,1355.57 1973.26,1356.66 1977.93,1357.72 1982.67,1358.76 1987.49,1359.74 1992.68,1360.77 1998.01,1361.77 2004.02,1362.85 2009.95,1363.86 2016.58,1364.92 
  2024.03,1366.04 2032.42,1367.23 2041.85,1368.44 2052.47,1369.71 2060.16,1370.6 2068.81,1371.51 2075.82,1372.19 2082.11,1372.76 2088.09,1373.3 2094.24,1373.84 
  2101.16,1374.45 2108.95,1375.1 2117.71,1375.81 2127.56,1376.54 2138.65,1377.28 2147.19,1377.82 2156.8,1378.37 2165.64,1378.82 2173,1379.19 2179.78,1379.54 
  2187.41,1379.9 2195.19,1380.25 2203.01,1380.56 2208.68,1380.78 2213.71,1380.97 2219.19,1381.18 2225.1,1381.41 2231.62,1381.64 2238.51,1381.88 2244.99,1382.09 
  2251.59,1382.31 2259.01,1382.55 2267.36,1382.81 2276.76,1383.08 2287.33,1383.39 2290.6,1383.49 2294.29,1383.59 2297.67,1383.68 2301.42,1383.78 2305.61,1383.88 
  2310.32,1383.99 2315.62,1384.12 2321.11,1384.24 2326.39,1384.35 2331.45,1384.46 2337.14,1384.56 2343.54,1384.68 2350.74,1384.8 2352.76,1384.83 
  "/>
<polyline clip-path="url(#clip832)" style="stroke:#e26f46; stroke-linecap:round; stroke-linejoin:round; stroke-width:4; stroke-opacity:1; fill:none" points="
  250.028,1386.26 250.085,1386.26 250.098,1386.26 250.113,1386.26 250.131,1386.26 250.15,1386.26 250.171,1386.26 250.196,1386.26 250.223,1386.26 250.254,1386.26 
  250.289,1386.26 250.328,1386.26 250.372,1386.26 250.421,1386.26 250.477,1386.27 250.54,1386.27 250.61,1386.27 250.689,1386.27 250.778,1386.27 250.879,1386.27 
  250.991,1386.27 251.118,1386.27 251.261,1386.27 251.422,1386.27 251.602,1386.27 251.805,1386.27 252.032,1386.28 252.278,1386.28 252.545,1386.28 252.828,1386.28 
  253.127,1386.28 253.441,1386.28 253.768,1386.29 254.105,1386.29 254.454,1386.29 254.813,1386.29 255.181,1386.3 255.558,1386.3 255.942,1386.3 256.33,1386.3 
  256.725,1386.3 257.125,1386.31 257.528,1386.31 257.933,1386.31 258.341,1386.31 258.755,1386.32 259.171,1386.32 259.591,1386.32 260.014,1386.32 260.441,1386.32 
  260.871,1386.33 261.303,1386.33 261.737,1386.33 262.175,1386.33 262.618,1386.34 263.065,1386.34 263.514,1386.34 263.968,1386.34 264.424,1386.34 264.887,1386.35 
  265.355,1386.35 265.828,1386.35 266.305,1386.35 266.786,1386.35 267.272,1386.36 267.764,1386.36 268.26,1386.36 268.76,1386.36 269.267,1386.36 269.781,1386.37 
  270.3,1386.37 270.826,1386.37 271.359,1386.37 271.902,1386.37 272.453,1386.37 273.008,1386.38 273.577,1386.38 274.158,1386.38 274.744,1386.38 275.342,1386.38 
  275.958,1386.38 276.586,1386.38 277.232,1386.39 277.887,1386.39 278.55,1386.39 279.224,1386.39 279.915,1386.39 280.622,1386.39 281.342,1386.39 282.077,1386.39 
  282.807,1386.39 283.547,1386.39 284.295,1386.39 285.048,1386.39 285.816,1386.39 286.598,1386.4 287.392,1386.4 288.195,1386.4 289.022,1386.4 289.871,1386.4 
  290.738,1386.4 291.616,1386.4 292.51,1386.4 293.407,1386.4 294.323,1386.39 295.256,1386.39 296.191,1386.39 297.138,1386.39 298.093,1386.39 299.056,1386.39 
  300.021,1386.39 301.009,1386.39 302.021,1386.39 303.046,1386.39 304.092,1386.39 305.145,1386.39 306.216,1386.39 307.315,1386.38 308.43,1386.38 309.576,1386.38 
  310.736,1386.38 311.894,1386.38 313.075,1386.38 314.308,1386.37 315.569,1386.37 316.886,1386.37 318.209,1386.36 319.519,1386.36 320.882,1386.36 322.281,1386.35 
  323.738,1386.35 325.295,1386.34 326.945,1386.34 328.691,1386.33 330.609,1386.32 332.662,1386.31 334.837,1386.3 337.196,1386.29 339.699,1386.27 342.474,1386.26 
  345.324,1386.24 348.189,1386.22 351.286,1386.2 354.488,1386.18 357.722,1386.16 360.794,1386.14 363.976,1386.13 367.029,1386.11 369.826,1386.09 372.804,1386.07 
  375.7,1386.06 378.73,1386.03 381.849,1386.01 385.076,1385.99 388.53,1385.96 391.701,1385.94 395.036,1385.91 398.693,1385.88 402.808,1385.83 407.366,1385.79 
  412.493,1385.73 418.261,1385.66 424.751,1385.58 430.969,1385.49 437.964,1385.4 443.8,1385.31 450.364,1385.21 457.75,1385.09 464.021,1384.98 470.892,1384.86 
  478.622,1384.69 487.319,1384.53 492.956,1384.42 497.865,1384.32 503.389,1384.21 508.67,1384.1 513.818,1384.01 518.235,1383.93 522.422,1383.85 526.674,1383.77 
  530.563,1383.69 534.427,1383.6 538.641,1383.51 542.789,1383.41 546.82,1383.31 550.948,1383.2 555.389,1383.07 560.079,1382.93 565.355,1382.77 570.64,1382.61 
  575.491,1382.46 580.399,1382.33 584.452,1382.23 588.089,1382.13 591.828,1382.03 595.504,1381.91 599.321,1381.79 603.054,1381.64 607.254,1381.48 611.979,1381.3 
  616.291,1381.14 620.39,1380.99 624.357,1380.85 628.062,1380.7 632.094,1380.53 636.22,1380.34 640.861,1380.11 645.679,1379.85 651.099,1379.51 657.197,1379.12 
  664.057,1378.61 671.775,1378.02 680.457,1377.23 685.217,1376.74 690.572,1376.13 695.444,1375.54 700.109,1374.98 705.357,1374.37 711.26,1373.65 717.902,1372.78 
  725.374,1371.7 731.663,1370.73 738.738,1369.54 746.698,1368.16 754.306,1366.59 762.068,1365.02 770.265,1363.3 779.486,1361.52 789.86,1359.52 798.392,1358.03 
  804.251,1357 809.543,1355.97 815.256,1354.96 820.23,1354.07 824.561,1353.32 828.741,1352.61 832.606,1351.97 836.179,1351.36 839.586,1350.8 842.848,1350.19 
  846.132,1349.5 849.574,1348.77 852.925,1348.04 856.297,1347.25 859.864,1346.35 863.576,1345.29 867.752,1344.03 872.45,1342.7 876.663,1341.43 881.047,1340.01 
  885.979,1338.29 891.179,1336.33 897.028,1334.02 903.467,1331.31 910.712,1327.68 918.862,1323.17 928.03,1317.23 935.572,1311.49 942.11,1305.96 948.107,1300.45 
  953.774,1294.84 959.017,1289.32 964.242,1283.71 969.067,1278.27 974.22,1272.27 979.083,1266.87 984.553,1260.57 990.401,1253.32 996.429,1244.97 1001.85,1237.69 
  1007.77,1230.78 1014.43,1222.04 1021.63,1211.95 1028.81,1201.88 1036.89,1190.21 1045.18,1178.27 1053.52,1166.65 1061.16,1155.14 1068.81,1142.56 1076.75,1127.98 
  1085.11,1111.21 1093.31,1094.01 1101.15,1077.12 1109.14,1058.8 1116.84,1037.78 1123.98,1016.99 1130.36,999.325 1136.97,981.89 1143.57,963.242 1149.92,943.264 
  1155.94,923.618 1161.69,904.006 1167.24,883.19 1172.38,861.749 1177.02,841.492 1181.33,822.519 1185.42,804.736 1189.51,786.499 1193.33,770.543 1197.28,755.198 
  1201.22,740.169 1205.15,725.336 1209.09,710.241 1212.95,697.52 1216.86,686.111 1220.67,673.475 1224.5,659.958 1228.27,646.67 1232.03,634.996 1235.75,624.186 
  1239.41,612.289 1243.07,599.299 1246.65,586.308 1250.21,572.217 1253.61,560.425 1257.08,548.93 1260.51,537.337 1263.91,526.599 1267.28,516.409 1270.64,507.496 
  1273.96,499.594 1277.25,491.799 1280.5,485.062 1283.72,477.219 1286.94,469.634 1290.15,462.756 1293.33,456.981 1296.44,450.909 1299.58,444.202 1302.71,438.167 
  1305.83,432.48 1308.93,426.601 1312.04,421.308 1315.13,416.33 1318.21,410.374 1321.29,404.961 1324.37,399.834 1327.45,395.403 1330.52,391.694 1333.56,388.388 
  1336.61,384.878 1339.64,380.167 1342.69,374.108 1345.72,367.975 1348.69,363.411 1351.7,359.373 1354.72,354.841 1357.72,350.34 1360.7,347.439 1363.71,345.146 
  1366.72,342.855 1369.74,342.478 1372.76,342.151 1375.76,340.046 1378.79,337.483 1381.79,336.302 1384.82,334.729 1387.86,333.185 1390.88,332.344 1393.92,332.13 
  1396.96,332.678 1400.03,333.236 1403.1,334.715 1406.18,336.675 1409.28,338.315 1412.39,339.616 1415.5,339.394 1418.59,339.195 1421.6,339.325 1424.65,339.093 
  1427.62,338.886 1430.58,339.141 1433.54,340.047 1436.51,340.313 1439.45,340.675 1442.34,339.438 1445.09,337.571 1447.71,335.451 1450.21,333.771 1452.7,331.505 
  1455.05,329.486 1457.36,327.874 1459.63,326.773 1461.89,326.346 1464.16,326.38 1466.44,327.234 1468.79,328.33 1471.12,329.352 1473.51,330.328 1475.84,331.468 
  1478.21,332.404 1480.51,333.464 1482.82,335.23 1485.16,337.119 1487.51,338.772 1489.86,339.607 1492.11,339.638 1494.23,339.297 1496.29,339.287 1498.31,339.285 
  1500.29,339.559 1502.25,339.94 1504.18,340.836 1506.14,342.298 1508.11,344.233 1510.11,346.508 1512.15,349.08 1514.2,351.855 1516.32,354.33 1518.37,357.01 
  1520.44,359.48 1522.5,362.011 1524.56,364.482 1526.56,367.328 1528.61,370.948 1530.73,375.205 1532.89,380.298 1535.16,386.937 1537.65,394.363 1540.21,402.126 
  1542.86,410.526 1545.64,419.573 1548.5,430.266 1551.59,442.733 1554.78,456.811 1557.99,470.92 1561.26,485.746 1564.55,501.539 1567.68,516.7 1570.71,530.832 
  1573.83,545.548 1576.89,559.988 1579.8,573.802 1582.73,587.212 1585.7,600.321 1588.76,613.187 1592.02,626.985 1595.31,640.609 1598.7,654.483 1602.08,667.63 
  1605.73,681.627 1609.5,695.976 1613.4,709.847 1617.64,725.638 1621.71,741.012 1625.67,756.12 1629.52,771.38 1633.06,784.741 1636.56,797.822 1640.02,809.983 
  1643.73,822.095 1647.85,835.091 1652.33,849.015 1656.97,863.226 1661.81,877.734 1666.79,891.954 1672.17,906.846 1677.99,922.684 1683.9,938.118 1690.2,954.202 
  1696.8,969.775 1703.94,987.325 1711.03,1004.95 1717.1,1018.37 1723.93,1033.51 1731.62,1050.91 1737.49,1063.96 1742.84,1075.61 1747.92,1086.41 1752.78,1096.12 
  1757.59,1105.38 1762.73,1115.18 1767.14,1123.71 1771.33,1131.57 1775.18,1138.7 1778.82,1145.35 1782.14,1151.21 1785.39,1156.85 1788.56,1162.32 1791.41,1167.15 
  1794.2,1171.69 1796.95,1175.99 1799.82,1180.34 1802.77,1184.71 1805.75,1188.97 1808.88,1193.38 1811.98,1197.65 1815.03,1201.7 1818.34,1206.03 1821.62,1210.41 
  1824.67,1214.48 1827.49,1218.15 1830.22,1221.67 1832.92,1225.06 1835.53,1228.23 1838.19,1231.35 1840.87,1234.41 1843.64,1237.57 1846.33,1240.57 1848.99,1243.38 
  1851.87,1246.34 1854.82,1249.31 1857.87,1252.25 1861.15,1255.33 1864.64,1258.54 1868.31,1261.9 1871.8,1265.07 1875.16,1268.09 1878.41,1270.81 1881.98,1273.8 
  1885.45,1276.58 1889.1,1279.37 1893.01,1282.28 1897.28,1285.35 1901.53,1288.29 1906.31,1291.32 1911.68,1294.47 1917.73,1297.83 1923.26,1300.93 1929.47,1304.32 
  1935.98,1307.54 1943.29,1311.05 1949.92,1314.22 1957.38,1317.75 1964.27,1320.82 1971.77,1323.87 1980.21,1327.06 1987.89,1329.6 1993.21,1331.26 1998.68,1332.96 
  2004.33,1334.6 2009.44,1335.96 2013.94,1337.13 2018.2,1338.31 2022.87,1339.58 2027.71,1340.85 2032.64,1342.09 2037.1,1343.19 2042.05,1344.37 2046.49,1345.48 
  2051.48,1346.74 2057.1,1348.15 2063.25,1349.71 2070.17,1351.42 2075.52,1352.69 2081.53,1354.09 2086.78,1355.23 2092.69,1356.44 2099.33,1357.65 2106.81,1358.92 
  2112.15,1359.81 2118.16,1360.77 2124.36,1361.72 2130.04,1362.54 2136.05,1363.36 2141.3,1364.07 2146.86,1364.79 2152.34,1365.51 2158.26,1366.29 2164.92,1367.17 
  2172.4,1368.14 2180.83,1369.17 2187.3,1369.92 2194.58,1370.74 2200.8,1371.38 2207.8,1372.1 2215.67,1372.88 2219.79,1373.28 2224.42,1373.72 2229.41,1374.16 
  2235.03,1374.65 2240.79,1375.13 2246.64,1375.6 2253.21,1376.11 2260.61,1376.67 2266.91,1377.14 2272.41,1377.54 2277.49,1377.89 2282.75,1378.24 2288.14,1378.6 
  2292.73,1378.9 2296.87,1379.15 2301.1,1379.41 2305.23,1379.64 2309.54,1379.88 2313.61,1380.1 2317.57,1380.3 2321.73,1380.51 2325.92,1380.71 2330.53,1380.92 
  2335.35,1381.14 2339.97,1381.34 2344.74,1381.54 2349.97,1381.74 2352.76,1381.84 
  "/>
<path clip-path="url(#clip830)" d="
M1797.32 322.316 L2282.66 322.316 L2282.66 166.796 L1797.32 166.796  Z
  " fill="#ffffff" fill-rule="evenodd" fill-opacity="1"/>
<polyline clip-path="url(#clip830)" style="stroke:#000000; stroke-linecap:round; stroke-linejoin:round; stroke-width:4; stroke-opacity:1; fill:none" points="
  1797.32,322.316 2282.66,322.316 2282.66,166.796 1797.32,166.796 1797.32,322.316 
  "/>
<polyline clip-path="url(#clip830)" style="stroke:#009af9; stroke-linecap:round; stroke-linejoin:round; stroke-width:4; stroke-opacity:1; fill:none" points="
  1820.69,218.636 1960.87,218.636 
  "/>
<path clip-path="url(#clip830)" d="M1984.23 201.356 L2013.47 201.356 L2013.47 205.291 L2001.2 205.291 L2001.2 235.916 L1996.5 235.916 L1996.5 205.291 L1984.23 205.291 L1984.23 201.356 Z" fill="#000000" fill-rule="evenodd" fill-opacity="1" /><path clip-path="url(#clip830)" d="M2025.85 213.971 Q2025.14 213.555 2024.28 213.37 Q2023.45 213.161 2022.43 213.161 Q2018.82 213.161 2016.87 215.522 Q2014.95 217.86 2014.95 222.258 L2014.95 235.916 L2010.67 235.916 L2010.67 209.99 L2014.95 209.99 L2014.95 214.018 Q2016.29 211.657 2018.45 210.522 Q2020.6 209.365 2023.68 209.365 Q2024.12 209.365 2024.65 209.434 Q2025.18 209.481 2025.83 209.596 L2025.85 213.971 Z" fill="#000000" fill-rule="evenodd" fill-opacity="1" /><path clip-path="url(#clip830)" d="M2042.1 222.883 Q2036.94 222.883 2034.95 224.064 Q2032.96 225.244 2032.96 228.092 Q2032.96 230.36 2034.44 231.703 Q2035.95 233.022 2038.52 233.022 Q2042.06 233.022 2044.19 230.522 Q2046.34 227.999 2046.34 223.832 L2046.34 222.883 L2042.1 222.883 M2050.6 221.124 L2050.6 235.916 L2046.34 235.916 L2046.34 231.981 Q2044.88 234.342 2042.71 235.476 Q2040.53 236.587 2037.38 236.587 Q2033.4 236.587 2031.04 234.365 Q2028.7 232.119 2028.7 228.369 Q2028.7 223.994 2031.62 221.772 Q2034.56 219.55 2040.37 219.55 L2046.34 219.55 L2046.34 219.133 Q2046.34 216.194 2044.4 214.596 Q2042.47 212.976 2038.98 212.976 Q2036.76 212.976 2034.65 213.508 Q2032.54 214.041 2030.6 215.106 L2030.6 211.17 Q2032.94 210.268 2035.14 209.828 Q2037.33 209.365 2039.42 209.365 Q2045.04 209.365 2047.82 212.282 Q2050.6 215.198 2050.6 221.124 Z" fill="#000000" fill-rule="evenodd" fill-opacity="1" /><path clip-path="url(#clip830)" d="M2059.37 209.99 L2063.63 209.99 L2063.63 236.379 Q2063.63 241.332 2061.73 243.555 Q2059.86 245.777 2055.67 245.777 L2054.05 245.777 L2054.05 242.166 L2055.18 242.166 Q2057.61 242.166 2058.49 241.031 Q2059.37 239.92 2059.37 236.379 L2059.37 209.99 M2059.37 199.897 L2063.63 199.897 L2063.63 205.291 L2059.37 205.291 L2059.37 199.897 Z" fill="#000000" fill-rule="evenodd" fill-opacity="1" /><path clip-path="url(#clip830)" d="M2094.72 221.888 L2094.72 223.971 L2075.14 223.971 Q2075.41 228.369 2077.77 230.684 Q2080.16 232.976 2084.39 232.976 Q2086.85 232.976 2089.14 232.374 Q2091.46 231.772 2093.72 230.569 L2093.72 234.596 Q2091.43 235.568 2089.02 236.078 Q2086.62 236.587 2084.14 236.587 Q2077.94 236.587 2074.3 232.976 Q2070.69 229.365 2070.69 223.207 Q2070.69 216.842 2074.12 213.115 Q2077.57 209.365 2083.4 209.365 Q2088.63 209.365 2091.66 212.745 Q2094.72 216.101 2094.72 221.888 M2090.46 220.638 Q2090.41 217.143 2088.49 215.059 Q2086.59 212.976 2083.45 212.976 Q2079.88 212.976 2077.73 214.99 Q2075.6 217.004 2075.27 220.661 L2090.46 220.638 Z" fill="#000000" fill-rule="evenodd" fill-opacity="1" /><path clip-path="url(#clip830)" d="M2120.37 210.985 L2120.37 214.967 Q2118.56 213.971 2116.73 213.485 Q2114.93 212.976 2113.08 212.976 Q2108.93 212.976 2106.64 215.615 Q2104.35 218.231 2104.35 222.976 Q2104.35 227.721 2106.64 230.36 Q2108.93 232.976 2113.08 232.976 Q2114.93 232.976 2116.73 232.49 Q2118.56 231.981 2120.37 230.985 L2120.37 234.92 Q2118.58 235.754 2116.66 236.17 Q2114.77 236.587 2112.61 236.587 Q2106.76 236.587 2103.31 232.906 Q2099.86 229.226 2099.86 222.976 Q2099.86 216.633 2103.33 212.999 Q2106.83 209.365 2112.89 209.365 Q2114.86 209.365 2116.73 209.782 Q2118.61 210.175 2120.37 210.985 Z" fill="#000000" fill-rule="evenodd" fill-opacity="1" /><path clip-path="url(#clip830)" d="M2131.99 202.629 L2131.99 209.99 L2140.76 209.99 L2140.76 213.3 L2131.99 213.3 L2131.99 227.374 Q2131.99 230.545 2132.84 231.448 Q2133.72 232.351 2136.39 232.351 L2140.76 232.351 L2140.76 235.916 L2136.39 235.916 Q2131.45 235.916 2129.58 234.087 Q2127.7 232.235 2127.7 227.374 L2127.7 213.3 L2124.58 213.3 L2124.58 209.99 L2127.7 209.99 L2127.7 202.629 L2131.99 202.629 Z" fill="#000000" fill-rule="evenodd" fill-opacity="1" /><path clip-path="url(#clip830)" d="M2156.41 212.976 Q2152.98 212.976 2150.99 215.661 Q2149 218.323 2149 222.976 Q2149 227.629 2150.97 230.314 Q2152.96 232.976 2156.41 232.976 Q2159.81 232.976 2161.8 230.291 Q2163.79 227.606 2163.79 222.976 Q2163.79 218.37 2161.8 215.684 Q2159.81 212.976 2156.41 212.976 M2156.41 209.365 Q2161.96 209.365 2165.14 212.976 Q2168.31 216.587 2168.31 222.976 Q2168.31 229.342 2165.14 232.976 Q2161.96 236.587 2156.41 236.587 Q2150.83 236.587 2147.66 232.976 Q2144.51 229.342 2144.51 222.976 Q2144.51 216.587 2147.66 212.976 Q2150.83 209.365 2156.41 209.365 Z" fill="#000000" fill-rule="evenodd" fill-opacity="1" /><path clip-path="url(#clip830)" d="M2190.39 213.971 Q2189.67 213.555 2188.82 213.37 Q2187.98 213.161 2186.96 213.161 Q2183.35 213.161 2181.41 215.522 Q2179.49 217.86 2179.49 222.258 L2179.49 235.916 L2175.2 235.916 L2175.2 209.99 L2179.49 209.99 L2179.49 214.018 Q2180.83 211.657 2182.98 210.522 Q2185.14 209.365 2188.21 209.365 Q2188.65 209.365 2189.19 209.434 Q2189.72 209.481 2190.37 209.596 L2190.39 213.971 Z" fill="#000000" fill-rule="evenodd" fill-opacity="1" /><path clip-path="url(#clip830)" d="M2205.64 238.323 Q2203.84 242.953 2202.13 244.365 Q2200.41 245.777 2197.54 245.777 L2194.14 245.777 L2194.14 242.212 L2196.64 242.212 Q2198.4 242.212 2199.37 241.379 Q2200.34 240.545 2201.52 237.443 L2202.29 235.499 L2191.8 209.99 L2196.32 209.99 L2204.42 230.268 L2212.52 209.99 L2217.03 209.99 L2205.64 238.323 Z" fill="#000000" fill-rule="evenodd" fill-opacity="1" /><path clip-path="url(#clip830)" d="M2239.39 231.981 L2247.03 231.981 L2247.03 205.615 L2238.72 207.282 L2238.72 203.022 L2246.99 201.356 L2251.66 201.356 L2251.66 231.981 L2259.3 231.981 L2259.3 235.916 L2239.39 235.916 L2239.39 231.981 Z" fill="#000000" fill-rule="evenodd" fill-opacity="1" /><polyline clip-path="url(#clip830)" style="stroke:#e26f46; stroke-linecap:round; stroke-linejoin:round; stroke-width:4; stroke-opacity:1; fill:none" points="
  1820.69,270.476 1960.87,270.476 
  "/>
<path clip-path="url(#clip830)" d="M1984.23 253.196 L2013.47 253.196 L2013.47 257.131 L2001.2 257.131 L2001.2 287.756 L1996.5 287.756 L1996.5 257.131 L1984.23 257.131 L1984.23 253.196 Z" fill="#000000" fill-rule="evenodd" fill-opacity="1" /><path clip-path="url(#clip830)" d="M2025.85 265.811 Q2025.14 265.395 2024.28 265.21 Q2023.45 265.001 2022.43 265.001 Q2018.82 265.001 2016.87 267.362 Q2014.95 269.7 2014.95 274.098 L2014.95 287.756 L2010.67 287.756 L2010.67 261.83 L2014.95 261.83 L2014.95 265.858 Q2016.29 263.497 2018.45 262.362 Q2020.6 261.205 2023.68 261.205 Q2024.12 261.205 2024.65 261.274 Q2025.18 261.321 2025.83 261.436 L2025.85 265.811 Z" fill="#000000" fill-rule="evenodd" fill-opacity="1" /><path clip-path="url(#clip830)" d="M2042.1 274.723 Q2036.94 274.723 2034.95 275.904 Q2032.96 277.084 2032.96 279.932 Q2032.96 282.2 2034.44 283.543 Q2035.95 284.862 2038.52 284.862 Q2042.06 284.862 2044.19 282.362 Q2046.34 279.839 2046.34 275.672 L2046.34 274.723 L2042.1 274.723 M2050.6 272.964 L2050.6 287.756 L2046.34 287.756 L2046.34 283.821 Q2044.88 286.182 2042.71 287.316 Q2040.53 288.427 2037.38 288.427 Q2033.4 288.427 2031.04 286.205 Q2028.7 283.959 2028.7 280.209 Q2028.7 275.834 2031.62 273.612 Q2034.56 271.39 2040.37 271.39 L2046.34 271.39 L2046.34 270.973 Q2046.34 268.034 2044.4 266.436 Q2042.47 264.816 2038.98 264.816 Q2036.76 264.816 2034.65 265.348 Q2032.54 265.881 2030.6 266.946 L2030.6 263.01 Q2032.94 262.108 2035.14 261.668 Q2037.33 261.205 2039.42 261.205 Q2045.04 261.205 2047.82 264.122 Q2050.6 267.038 2050.6 272.964 Z" fill="#000000" fill-rule="evenodd" fill-opacity="1" /><path clip-path="url(#clip830)" d="M2059.37 261.83 L2063.63 261.83 L2063.63 288.219 Q2063.63 293.172 2061.73 295.395 Q2059.86 297.617 2055.67 297.617 L2054.05 297.617 L2054.05 294.006 L2055.18 294.006 Q2057.61 294.006 2058.49 292.871 Q2059.37 291.76 2059.37 288.219 L2059.37 261.83 M2059.37 251.737 L2063.63 251.737 L2063.63 257.131 L2059.37 257.131 L2059.37 251.737 Z" fill="#000000" fill-rule="evenodd" fill-opacity="1" /><path clip-path="url(#clip830)" d="M2094.72 273.728 L2094.72 275.811 L2075.14 275.811 Q2075.41 280.209 2077.77 282.524 Q2080.16 284.816 2084.39 284.816 Q2086.85 284.816 2089.14 284.214 Q2091.46 283.612 2093.72 282.409 L2093.72 286.436 Q2091.43 287.408 2089.02 287.918 Q2086.62 288.427 2084.14 288.427 Q2077.94 288.427 2074.3 284.816 Q2070.69 281.205 2070.69 275.047 Q2070.69 268.682 2074.12 264.955 Q2077.57 261.205 2083.4 261.205 Q2088.63 261.205 2091.66 264.585 Q2094.72 267.941 2094.72 273.728 M2090.46 272.478 Q2090.41 268.983 2088.49 266.899 Q2086.59 264.816 2083.45 264.816 Q2079.88 264.816 2077.73 266.83 Q2075.6 268.844 2075.27 272.501 L2090.46 272.478 Z" fill="#000000" fill-rule="evenodd" fill-opacity="1" /><path clip-path="url(#clip830)" d="M2120.37 262.825 L2120.37 266.807 Q2118.56 265.811 2116.73 265.325 Q2114.93 264.816 2113.08 264.816 Q2108.93 264.816 2106.64 267.455 Q2104.35 270.071 2104.35 274.816 Q2104.35 279.561 2106.64 282.2 Q2108.93 284.816 2113.08 284.816 Q2114.93 284.816 2116.73 284.33 Q2118.56 283.821 2120.37 282.825 L2120.37 286.76 Q2118.58 287.594 2116.66 288.01 Q2114.77 288.427 2112.61 288.427 Q2106.76 288.427 2103.31 284.746 Q2099.86 281.066 2099.86 274.816 Q2099.86 268.473 2103.33 264.839 Q2106.83 261.205 2112.89 261.205 Q2114.86 261.205 2116.73 261.622 Q2118.61 262.015 2120.37 262.825 Z" fill="#000000" fill-rule="evenodd" fill-opacity="1" /><path clip-path="url(#clip830)" d="M2131.99 254.469 L2131.99 261.83 L2140.76 261.83 L2140.76 265.14 L2131.99 265.14 L2131.99 279.214 Q2131.99 282.385 2132.84 283.288 Q2133.72 284.191 2136.39 284.191 L2140.76 284.191 L2140.76 287.756 L2136.39 287.756 Q2131.45 287.756 2129.58 285.927 Q2127.7 284.075 2127.7 279.214 L2127.7 265.14 L2124.58 265.14 L2124.58 261.83 L2127.7 261.83 L2127.7 254.469 L2131.99 254.469 Z" fill="#000000" fill-rule="evenodd" fill-opacity="1" /><path clip-path="url(#clip830)" d="M2156.41 264.816 Q2152.98 264.816 2150.99 267.501 Q2149 270.163 2149 274.816 Q2149 279.469 2150.97 282.154 Q2152.96 284.816 2156.41 284.816 Q2159.81 284.816 2161.8 282.131 Q2163.79 279.446 2163.79 274.816 Q2163.79 270.21 2161.8 267.524 Q2159.81 264.816 2156.41 264.816 M2156.41 261.205 Q2161.96 261.205 2165.14 264.816 Q2168.31 268.427 2168.31 274.816 Q2168.31 281.182 2165.14 284.816 Q2161.96 288.427 2156.41 288.427 Q2150.83 288.427 2147.66 284.816 Q2144.51 281.182 2144.51 274.816 Q2144.51 268.427 2147.66 264.816 Q2150.83 261.205 2156.41 261.205 Z" fill="#000000" fill-rule="evenodd" fill-opacity="1" /><path clip-path="url(#clip830)" d="M2190.39 265.811 Q2189.67 265.395 2188.82 265.21 Q2187.98 265.001 2186.96 265.001 Q2183.35 265.001 2181.41 267.362 Q2179.49 269.7 2179.49 274.098 L2179.49 287.756 L2175.2 287.756 L2175.2 261.83 L2179.49 261.83 L2179.49 265.858 Q2180.83 263.497 2182.98 262.362 Q2185.14 261.205 2188.21 261.205 Q2188.65 261.205 2189.19 261.274 Q2189.72 261.321 2190.37 261.436 L2190.39 265.811 Z" fill="#000000" fill-rule="evenodd" fill-opacity="1" /><path clip-path="url(#clip830)" d="M2205.64 290.163 Q2203.84 294.793 2202.13 296.205 Q2200.41 297.617 2197.54 297.617 L2194.14 297.617 L2194.14 294.052 L2196.64 294.052 Q2198.4 294.052 2199.37 293.219 Q2200.34 292.385 2201.52 289.283 L2202.29 287.339 L2191.8 261.83 L2196.32 261.83 L2204.42 282.108 L2212.52 261.83 L2217.03 261.83 L2205.64 290.163 Z" fill="#000000" fill-rule="evenodd" fill-opacity="1" /><path clip-path="url(#clip830)" d="M2242.61 283.821 L2258.93 283.821 L2258.93 287.756 L2236.99 287.756 L2236.99 283.821 Q2239.65 281.066 2244.23 276.436 Q2248.84 271.784 2250.02 270.441 Q2252.26 267.918 2253.14 266.182 Q2254.05 264.423 2254.05 262.733 Q2254.05 259.978 2252.1 258.242 Q2250.18 256.506 2247.08 256.506 Q2244.88 256.506 2242.43 257.27 Q2240 258.034 2237.22 259.585 L2237.22 254.862 Q2240.04 253.728 2242.5 253.149 Q2244.95 252.571 2246.99 252.571 Q2252.36 252.571 2255.55 255.256 Q2258.75 257.941 2258.75 262.432 Q2258.75 264.561 2257.94 266.483 Q2257.15 268.381 2255.04 270.973 Q2254.46 271.645 2251.36 274.862 Q2248.26 278.057 2242.61 283.821 Z" fill="#000000" fill-rule="evenodd" fill-opacity="1" /></svg>
