<?xml version="1.0" encoding="utf-8"?>
<svg xmlns="http://www.w3.org/2000/svg" xmlns:xlink="http://www.w3.org/1999/xlink" width="600" height="400" viewBox="0 0 2400 1600">
<defs>
  <clipPath id="clip210">
    <rect x="0" y="0" width="2400" height="1600"/>
  </clipPath>
</defs>
<path clip-path="url(#clip210)" d="
M0 1600 L2400 1600 L2400 0 L0 0  Z
  " fill="#ffffff" fill-rule="evenodd" fill-opacity="1"/>
<defs>
  <clipPath id="clip211">
    <rect x="480" y="0" width="1681" height="1600"/>
  </clipPath>
</defs>
<path clip-path="url(#clip210)" d="
M250.028 1423.18 L2352.76 1423.18 L2352.76 123.472 L250.028 123.472  Z
  " fill="#ffffff" fill-rule="evenodd" fill-opacity="1"/>
<defs>
  <clipPath id="clip212">
    <rect x="250" y="123" width="2104" height="1301"/>
  </clipPath>
</defs>
<polyline clip-path="url(#clip212)" style="stroke:#000000; stroke-linecap:butt; stroke-linejoin:round; stroke-width:2; stroke-opacity:0.1; fill:none" points="
  250.028,1423.18 250.028,123.472 
  "/>
<polyline clip-path="url(#clip212)" style="stroke:#000000; stroke-linecap:butt; stroke-linejoin:round; stroke-width:2; stroke-opacity:0.1; fill:none" points="
  632.342,1423.18 632.342,123.472 
  "/>
<polyline clip-path="url(#clip212)" style="stroke:#000000; stroke-linecap:butt; stroke-linejoin:round; stroke-width:2; stroke-opacity:0.1; fill:none" points="
  1014.66,1423.18 1014.66,123.472 
  "/>
<polyline clip-path="url(#clip212)" style="stroke:#000000; stroke-linecap:butt; stroke-linejoin:round; stroke-width:2; stroke-opacity:0.1; fill:none" points="
  1396.97,1423.18 1396.97,123.472 
  "/>
<polyline clip-path="url(#clip212)" style="stroke:#000000; stroke-linecap:butt; stroke-linejoin:round; stroke-width:2; stroke-opacity:0.1; fill:none" points="
  1779.28,1423.18 1779.28,123.472 
  "/>
<polyline clip-path="url(#clip212)" style="stroke:#000000; stroke-linecap:butt; stroke-linejoin:round; stroke-width:2; stroke-opacity:0.1; fill:none" points="
  2161.6,1423.18 2161.6,123.472 
  "/>
<polyline clip-path="url(#clip210)" style="stroke:#000000; stroke-linecap:butt; stroke-linejoin:round; stroke-width:4; stroke-opacity:1; fill:none" points="
  250.028,1423.18 2352.76,1423.18 
  "/>
<polyline clip-path="url(#clip210)" style="stroke:#000000; stroke-linecap:butt; stroke-linejoin:round; stroke-width:4; stroke-opacity:1; fill:none" points="
  250.028,1423.18 250.028,1404.28 
  "/>
<polyline clip-path="url(#clip210)" style="stroke:#000000; stroke-linecap:butt; stroke-linejoin:round; stroke-width:4; stroke-opacity:1; fill:none" points="
  632.342,1423.18 632.342,1404.28 
  "/>
<polyline clip-path="url(#clip210)" style="stroke:#000000; stroke-linecap:butt; stroke-linejoin:round; stroke-width:4; stroke-opacity:1; fill:none" points="
  1014.66,1423.18 1014.66,1404.28 
  "/>
<polyline clip-path="url(#clip210)" style="stroke:#000000; stroke-linecap:butt; stroke-linejoin:round; stroke-width:4; stroke-opacity:1; fill:none" points="
  1396.97,1423.18 1396.97,1404.28 
  "/>
<polyline clip-path="url(#clip210)" style="stroke:#000000; stroke-linecap:butt; stroke-linejoin:round; stroke-width:4; stroke-opacity:1; fill:none" points="
  1779.28,1423.18 1779.28,1404.28 
  "/>
<polyline clip-path="url(#clip210)" style="stroke:#000000; stroke-linecap:butt; stroke-linejoin:round; stroke-width:4; stroke-opacity:1; fill:none" points="
  2161.6,1423.18 2161.6,1404.28 
  "/>
<path clip-path="url(#clip210)" d="M250.028 1454.1 Q246.417 1454.1 244.588 1457.66 Q242.783 1461.2 242.783 1468.33 Q242.783 1475.44 244.588 1479.01 Q246.417 1482.55 250.028 1482.55 Q253.662 1482.55 255.468 1479.01 Q257.297 1475.44 257.297 1468.33 Q257.297 1461.2 255.468 1457.66 Q253.662 1454.1 250.028 1454.1 M250.028 1450.39 Q255.838 1450.39 258.894 1455 Q261.973 1459.58 261.973 1468.33 Q261.973 1477.06 258.894 1481.67 Q255.838 1486.25 250.028 1486.25 Q244.218 1486.25 241.139 1481.67 Q238.084 1477.06 238.084 1468.33 Q238.084 1459.58 241.139 1455 Q244.218 1450.39 250.028 1450.39 Z" fill="#000000" fill-rule="evenodd" fill-opacity="1" /><path clip-path="url(#clip210)" d="M591.949 1481.64 L599.588 1481.64 L599.588 1455.28 L591.278 1456.95 L591.278 1452.69 L599.542 1451.02 L604.217 1451.02 L604.217 1481.64 L611.856 1481.64 L611.856 1485.58 L591.949 1485.58 L591.949 1481.64 Z" fill="#000000" fill-rule="evenodd" fill-opacity="1" /><path clip-path="url(#clip210)" d="M631.301 1454.1 Q627.69 1454.1 625.861 1457.66 Q624.055 1461.2 624.055 1468.33 Q624.055 1475.44 625.861 1479.01 Q627.69 1482.55 631.301 1482.55 Q634.935 1482.55 636.74 1479.01 Q638.569 1475.44 638.569 1468.33 Q638.569 1461.2 636.74 1457.66 Q634.935 1454.1 631.301 1454.1 M631.301 1450.39 Q637.111 1450.39 640.166 1455 Q643.245 1459.58 643.245 1468.33 Q643.245 1477.06 640.166 1481.67 Q637.111 1486.25 631.301 1486.25 Q625.49 1486.25 622.412 1481.67 Q619.356 1477.06 619.356 1468.33 Q619.356 1459.58 622.412 1455 Q625.49 1450.39 631.301 1450.39 Z" fill="#000000" fill-rule="evenodd" fill-opacity="1" /><path clip-path="url(#clip210)" d="M661.462 1454.1 Q657.851 1454.1 656.023 1457.66 Q654.217 1461.2 654.217 1468.33 Q654.217 1475.44 656.023 1479.01 Q657.851 1482.55 661.462 1482.55 Q665.097 1482.55 666.902 1479.01 Q668.731 1475.44 668.731 1468.33 Q668.731 1461.2 666.902 1457.66 Q665.097 1454.1 661.462 1454.1 M661.462 1450.39 Q667.273 1450.39 670.328 1455 Q673.407 1459.58 673.407 1468.33 Q673.407 1477.06 670.328 1481.67 Q667.273 1486.25 661.462 1486.25 Q655.652 1486.25 652.574 1481.67 Q649.518 1477.06 649.518 1468.33 Q649.518 1459.58 652.574 1455 Q655.652 1450.39 661.462 1450.39 Z" fill="#000000" fill-rule="evenodd" fill-opacity="1" /><path clip-path="url(#clip210)" d="M978.349 1481.64 L994.668 1481.64 L994.668 1485.58 L972.724 1485.58 L972.724 1481.64 Q975.386 1478.89 979.969 1474.26 Q984.576 1469.61 985.756 1468.27 Q988.001 1465.74 988.881 1464.01 Q989.784 1462.25 989.784 1460.56 Q989.784 1457.8 987.839 1456.07 Q985.918 1454.33 982.816 1454.33 Q980.617 1454.33 978.164 1455.09 Q975.733 1455.86 972.955 1457.41 L972.955 1452.69 Q975.779 1451.55 978.233 1450.97 Q980.687 1450.39 982.724 1450.39 Q988.094 1450.39 991.288 1453.08 Q994.483 1455.77 994.483 1460.26 Q994.483 1462.39 993.673 1464.31 Q992.886 1466.2 990.779 1468.8 Q990.201 1469.47 987.099 1472.69 Q983.997 1475.88 978.349 1481.64 Z" fill="#000000" fill-rule="evenodd" fill-opacity="1" /><path clip-path="url(#clip210)" d="M1014.48 1454.1 Q1010.87 1454.1 1009.04 1457.66 Q1007.24 1461.2 1007.24 1468.33 Q1007.24 1475.44 1009.04 1479.01 Q1010.87 1482.55 1014.48 1482.55 Q1018.12 1482.55 1019.92 1479.01 Q1021.75 1475.44 1021.75 1468.33 Q1021.75 1461.2 1019.92 1457.66 Q1018.12 1454.1 1014.48 1454.1 M1014.48 1450.39 Q1020.29 1450.39 1023.35 1455 Q1026.43 1459.58 1026.43 1468.33 Q1026.43 1477.06 1023.35 1481.67 Q1020.29 1486.25 1014.48 1486.25 Q1008.67 1486.25 1005.59 1481.67 Q1002.54 1477.06 1002.54 1468.33 Q1002.54 1459.58 1005.59 1455 Q1008.67 1450.39 1014.48 1450.39 Z" fill="#000000" fill-rule="evenodd" fill-opacity="1" /><path clip-path="url(#clip210)" d="M1044.64 1454.1 Q1041.03 1454.1 1039.2 1457.66 Q1037.4 1461.2 1037.4 1468.33 Q1037.4 1475.44 1039.2 1479.01 Q1041.03 1482.55 1044.64 1482.55 Q1048.28 1482.55 1050.08 1479.01 Q1051.91 1475.44 1051.91 1468.33 Q1051.91 1461.2 1050.08 1457.66 Q1048.28 1454.1 1044.64 1454.1 M1044.64 1450.39 Q1050.45 1450.39 1053.51 1455 Q1056.59 1459.58 1056.59 1468.33 Q1056.59 1477.06 1053.51 1481.67 Q1050.45 1486.25 1044.64 1486.25 Q1038.83 1486.25 1035.76 1481.67 Q1032.7 1477.06 1032.7 1468.33 Q1032.7 1459.58 1035.76 1455 Q1038.83 1450.39 1044.64 1450.39 Z" fill="#000000" fill-rule="evenodd" fill-opacity="1" /><path clip-path="url(#clip210)" d="M1370.73 1466.95 Q1374.09 1467.66 1375.96 1469.93 Q1377.86 1472.2 1377.86 1475.53 Q1377.86 1480.65 1374.34 1483.45 Q1370.82 1486.25 1364.34 1486.25 Q1362.17 1486.25 1359.85 1485.81 Q1357.56 1485.39 1355.11 1484.54 L1355.11 1480.02 Q1357.05 1481.16 1359.37 1481.74 Q1361.68 1482.32 1364.2 1482.32 Q1368.6 1482.32 1370.89 1480.58 Q1373.21 1478.84 1373.21 1475.53 Q1373.21 1472.48 1371.06 1470.77 Q1368.93 1469.03 1365.11 1469.03 L1361.08 1469.03 L1361.08 1465.19 L1365.29 1465.19 Q1368.74 1465.19 1370.57 1463.82 Q1372.4 1462.43 1372.4 1459.84 Q1372.4 1457.18 1370.5 1455.77 Q1368.63 1454.33 1365.11 1454.33 Q1363.19 1454.33 1360.99 1454.75 Q1358.79 1455.16 1356.15 1456.04 L1356.15 1451.88 Q1358.81 1451.14 1361.13 1450.77 Q1363.46 1450.39 1365.52 1450.39 Q1370.85 1450.39 1373.95 1452.83 Q1377.05 1455.23 1377.05 1459.35 Q1377.05 1462.22 1375.41 1464.21 Q1373.76 1466.18 1370.73 1466.95 Z" fill="#000000" fill-rule="evenodd" fill-opacity="1" /><path clip-path="url(#clip210)" d="M1396.73 1454.1 Q1393.12 1454.1 1391.29 1457.66 Q1389.48 1461.2 1389.48 1468.33 Q1389.48 1475.44 1391.29 1479.01 Q1393.12 1482.55 1396.73 1482.55 Q1400.36 1482.55 1402.17 1479.01 Q1404 1475.44 1404 1468.33 Q1404 1461.2 1402.17 1457.66 Q1400.36 1454.1 1396.73 1454.1 M1396.73 1450.39 Q1402.54 1450.39 1405.59 1455 Q1408.67 1459.58 1408.67 1468.33 Q1408.67 1477.06 1405.59 1481.67 Q1402.54 1486.25 1396.73 1486.25 Q1390.92 1486.25 1387.84 1481.67 Q1384.78 1477.06 1384.78 1468.33 Q1384.78 1459.58 1387.84 1455 Q1390.92 1450.39 1396.73 1450.39 Z" fill="#000000" fill-rule="evenodd" fill-opacity="1" /><path clip-path="url(#clip210)" d="M1426.89 1454.1 Q1423.28 1454.1 1421.45 1457.66 Q1419.64 1461.2 1419.64 1468.33 Q1419.64 1475.44 1421.45 1479.01 Q1423.28 1482.55 1426.89 1482.55 Q1430.52 1482.55 1432.33 1479.01 Q1434.16 1475.44 1434.16 1468.33 Q1434.16 1461.2 1432.33 1457.66 Q1430.52 1454.1 1426.89 1454.1 M1426.89 1450.39 Q1432.7 1450.39 1435.76 1455 Q1438.83 1459.58 1438.83 1468.33 Q1438.83 1477.06 1435.76 1481.67 Q1432.7 1486.25 1426.89 1486.25 Q1421.08 1486.25 1418 1481.67 Q1414.94 1477.06 1414.94 1468.33 Q1414.94 1459.58 1418 1455 Q1421.08 1450.39 1426.89 1450.39 Z" fill="#000000" fill-rule="evenodd" fill-opacity="1" /><path clip-path="url(#clip210)" d="M1752.38 1455.09 L1740.57 1473.54 L1752.38 1473.54 L1752.38 1455.09 M1751.15 1451.02 L1757.03 1451.02 L1757.03 1473.54 L1761.96 1473.54 L1761.96 1477.43 L1757.03 1477.43 L1757.03 1485.58 L1752.38 1485.58 L1752.38 1477.43 L1736.77 1477.43 L1736.77 1472.92 L1751.15 1451.02 Z" fill="#000000" fill-rule="evenodd" fill-opacity="1" /><path clip-path="url(#clip210)" d="M1779.69 1454.1 Q1776.08 1454.1 1774.25 1457.66 Q1772.44 1461.2 1772.44 1468.33 Q1772.44 1475.44 1774.25 1479.01 Q1776.08 1482.55 1779.69 1482.55 Q1783.32 1482.55 1785.13 1479.01 Q1786.96 1475.44 1786.96 1468.33 Q1786.96 1461.2 1785.13 1457.66 Q1783.32 1454.1 1779.69 1454.1 M1779.69 1450.39 Q1785.5 1450.39 1788.56 1455 Q1791.63 1459.58 1791.63 1468.33 Q1791.63 1477.06 1788.56 1481.67 Q1785.5 1486.25 1779.69 1486.25 Q1773.88 1486.25 1770.8 1481.67 Q1767.75 1477.06 1767.75 1468.33 Q1767.75 1459.58 1770.8 1455 Q1773.88 1450.39 1779.69 1450.39 Z" fill="#000000" fill-rule="evenodd" fill-opacity="1" /><path clip-path="url(#clip210)" d="M1809.85 1454.1 Q1806.24 1454.1 1804.41 1457.66 Q1802.61 1461.2 1802.61 1468.33 Q1802.61 1475.44 1804.41 1479.01 Q1806.24 1482.55 1809.85 1482.55 Q1813.49 1482.55 1815.29 1479.01 Q1817.12 1475.44 1817.12 1468.33 Q1817.12 1461.2 1815.29 1457.66 Q1813.49 1454.1 1809.85 1454.1 M1809.85 1450.39 Q1815.66 1450.39 1818.72 1455 Q1821.8 1459.58 1821.8 1468.33 Q1821.8 1477.06 1818.72 1481.67 Q1815.66 1486.25 1809.85 1486.25 Q1804.04 1486.25 1800.96 1481.67 Q1797.91 1477.06 1797.91 1468.33 Q1797.91 1459.58 1800.96 1455 Q1804.04 1450.39 1809.85 1450.39 Z" fill="#000000" fill-rule="evenodd" fill-opacity="1" /><path clip-path="url(#clip210)" d="M2121.22 1451.02 L2139.57 1451.02 L2139.57 1454.96 L2125.5 1454.96 L2125.5 1463.43 Q2126.52 1463.08 2127.54 1462.92 Q2128.56 1462.73 2129.57 1462.73 Q2135.36 1462.73 2138.74 1465.9 Q2142.12 1469.08 2142.12 1474.49 Q2142.12 1480.07 2138.65 1483.17 Q2135.18 1486.25 2128.86 1486.25 Q2126.68 1486.25 2124.41 1485.88 Q2122.17 1485.51 2119.76 1484.77 L2119.76 1480.07 Q2121.84 1481.2 2124.06 1481.76 Q2126.29 1482.32 2128.76 1482.32 Q2132.77 1482.32 2135.11 1480.21 Q2137.44 1478.1 2137.44 1474.49 Q2137.44 1470.88 2135.11 1468.77 Q2132.77 1466.67 2128.76 1466.67 Q2126.89 1466.67 2125.01 1467.08 Q2123.16 1467.5 2121.22 1468.38 L2121.22 1451.02 Z" fill="#000000" fill-rule="evenodd" fill-opacity="1" /><path clip-path="url(#clip210)" d="M2161.33 1454.1 Q2157.72 1454.1 2155.89 1457.66 Q2154.09 1461.2 2154.09 1468.33 Q2154.09 1475.44 2155.89 1479.01 Q2157.72 1482.55 2161.33 1482.55 Q2164.97 1482.55 2166.77 1479.01 Q2168.6 1475.44 2168.6 1468.33 Q2168.6 1461.2 2166.77 1457.66 Q2164.97 1454.1 2161.33 1454.1 M2161.33 1450.39 Q2167.14 1450.39 2170.2 1455 Q2173.28 1459.58 2173.28 1468.33 Q2173.28 1477.06 2170.2 1481.67 Q2167.14 1486.25 2161.33 1486.25 Q2155.52 1486.25 2152.44 1481.67 Q2149.39 1477.06 2149.39 1468.33 Q2149.39 1459.58 2152.44 1455 Q2155.52 1450.39 2161.33 1450.39 Z" fill="#000000" fill-rule="evenodd" fill-opacity="1" /><path clip-path="url(#clip210)" d="M2191.49 1454.1 Q2187.88 1454.1 2186.05 1457.66 Q2184.25 1461.2 2184.25 1468.33 Q2184.25 1475.44 2186.05 1479.01 Q2187.88 1482.55 2191.49 1482.55 Q2195.13 1482.55 2196.93 1479.01 Q2198.76 1475.44 2198.76 1468.33 Q2198.76 1461.2 2196.93 1457.66 Q2195.13 1454.1 2191.49 1454.1 M2191.49 1450.39 Q2197.3 1450.39 2200.36 1455 Q2203.44 1459.58 2203.44 1468.33 Q2203.44 1477.06 2200.36 1481.67 Q2197.3 1486.25 2191.49 1486.25 Q2185.68 1486.25 2182.61 1481.67 Q2179.55 1477.06 2179.55 1468.33 Q2179.55 1459.58 2182.61 1455 Q2185.68 1450.39 2191.49 1450.39 Z" fill="#000000" fill-rule="evenodd" fill-opacity="1" /><path clip-path="url(#clip210)" d="M1309.86 1548.54 Q1309.86 1549.45 1309.44 1549.67 Q1309.03 1549.87 1307.87 1549.87 L1301.68 1549.87 L1296.79 1569.32 Q1296.4 1571.02 1296.4 1572.47 Q1296.4 1574.08 1296.88 1574.79 Q1297.4 1575.5 1298.46 1575.5 Q1300.56 1575.5 1302.81 1573.6 Q1305.1 1571.7 1307.03 1567.06 Q1307.29 1566.45 1307.42 1566.32 Q1307.58 1566.16 1308 1566.16 Q1308.8 1566.16 1308.8 1566.81 Q1308.8 1567.03 1308.35 1568.06 Q1307.93 1569.09 1307 1570.61 Q1306.09 1572.12 1304.9 1573.54 Q1303.74 1574.95 1301.97 1575.98 Q1300.2 1576.98 1298.3 1576.98 Q1295.63 1576.98 1293.92 1575.28 Q1292.25 1573.57 1292.25 1570.9 Q1292.25 1570.03 1292.92 1567.26 Q1293.6 1564.45 1297.27 1549.87 L1291.44 1549.87 Q1290.64 1549.87 1290.31 1549.83 Q1290.02 1549.8 1289.8 1549.64 Q1289.61 1549.45 1289.61 1549.06 Q1289.61 1548.45 1289.86 1548.19 Q1290.12 1547.9 1290.44 1547.87 Q1290.8 1547.8 1291.6 1547.8 L1297.79 1547.8 L1300.36 1537.34 Q1300.62 1536.31 1301.26 1535.73 Q1301.94 1535.12 1302.33 1535.05 Q1302.71 1534.95 1303 1534.95 Q1303.87 1534.95 1304.39 1535.44 Q1304.9 1535.89 1304.9 1536.73 Q1304.9 1537.18 1302.2 1547.8 L1308 1547.8 Q1308.74 1547.8 1309.03 1547.84 Q1309.35 1547.87 1309.61 1548.03 Q1309.86 1548.19 1309.86 1548.54 Z" fill="#000000" fill-rule="evenodd" fill-opacity="1" /><polyline clip-path="url(#clip212)" style="stroke:#000000; stroke-linecap:butt; stroke-linejoin:round; stroke-width:2; stroke-opacity:0.1; fill:none" points="
  250.028,1387.22 2352.76,1387.22 
  "/>
<polyline clip-path="url(#clip212)" style="stroke:#000000; stroke-linecap:butt; stroke-linejoin:round; stroke-width:2; stroke-opacity:0.1; fill:none" points="
  250.028,1130.03 2352.76,1130.03 
  "/>
<polyline clip-path="url(#clip212)" style="stroke:#000000; stroke-linecap:butt; stroke-linejoin:round; stroke-width:2; stroke-opacity:0.1; fill:none" points="
  250.028,872.834 2352.76,872.834 
  "/>
<polyline clip-path="url(#clip212)" style="stroke:#000000; stroke-linecap:butt; stroke-linejoin:round; stroke-width:2; stroke-opacity:0.1; fill:none" points="
  250.028,615.643 2352.76,615.643 
  "/>
<polyline clip-path="url(#clip212)" style="stroke:#000000; stroke-linecap:butt; stroke-linejoin:round; stroke-width:2; stroke-opacity:0.1; fill:none" points="
  250.028,358.452 2352.76,358.452 
  "/>
<polyline clip-path="url(#clip210)" style="stroke:#000000; stroke-linecap:butt; stroke-linejoin:round; stroke-width:4; stroke-opacity:1; fill:none" points="
  250.028,1423.18 250.028,123.472 
  "/>
<polyline clip-path="url(#clip210)" style="stroke:#000000; stroke-linecap:butt; stroke-linejoin:round; stroke-width:4; stroke-opacity:1; fill:none" points="
  250.028,1387.22 268.926,1387.22 
  "/>
<polyline clip-path="url(#clip210)" style="stroke:#000000; stroke-linecap:butt; stroke-linejoin:round; stroke-width:4; stroke-opacity:1; fill:none" points="
  250.028,1130.03 268.926,1130.03 
  "/>
<polyline clip-path="url(#clip210)" style="stroke:#000000; stroke-linecap:butt; stroke-linejoin:round; stroke-width:4; stroke-opacity:1; fill:none" points="
  250.028,872.834 268.926,872.834 
  "/>
<polyline clip-path="url(#clip210)" style="stroke:#000000; stroke-linecap:butt; stroke-linejoin:round; stroke-width:4; stroke-opacity:1; fill:none" points="
  250.028,615.643 268.926,615.643 
  "/>
<polyline clip-path="url(#clip210)" style="stroke:#000000; stroke-linecap:butt; stroke-linejoin:round; stroke-width:4; stroke-opacity:1; fill:none" points="
  250.028,358.452 268.926,358.452 
  "/>
<path clip-path="url(#clip210)" d="M126.691 1373.01 Q123.08 1373.01 121.251 1376.58 Q119.445 1380.12 119.445 1387.25 Q119.445 1394.36 121.251 1397.92 Q123.08 1401.46 126.691 1401.46 Q130.325 1401.46 132.13 1397.92 Q133.959 1394.36 133.959 1387.25 Q133.959 1380.12 132.13 1376.58 Q130.325 1373.01 126.691 1373.01 M126.691 1369.31 Q132.501 1369.31 135.556 1373.92 Q138.635 1378.5 138.635 1387.25 Q138.635 1395.98 135.556 1400.58 Q132.501 1405.17 126.691 1405.17 Q120.88 1405.17 117.802 1400.58 Q114.746 1395.98 114.746 1387.25 Q114.746 1378.5 117.802 1373.92 Q120.88 1369.31 126.691 1369.31 Z" fill="#000000" fill-rule="evenodd" fill-opacity="1" /><path clip-path="url(#clip210)" d="M146.853 1398.62 L151.737 1398.62 L151.737 1404.5 L146.853 1404.5 L146.853 1398.62 Z" fill="#000000" fill-rule="evenodd" fill-opacity="1" /><path clip-path="url(#clip210)" d="M171.922 1373.01 Q168.311 1373.01 166.482 1376.58 Q164.677 1380.12 164.677 1387.25 Q164.677 1394.36 166.482 1397.92 Q168.311 1401.46 171.922 1401.46 Q175.556 1401.46 177.362 1397.92 Q179.19 1394.36 179.19 1387.25 Q179.19 1380.12 177.362 1376.58 Q175.556 1373.01 171.922 1373.01 M171.922 1369.31 Q177.732 1369.31 180.788 1373.92 Q183.866 1378.5 183.866 1387.25 Q183.866 1395.98 180.788 1400.58 Q177.732 1405.17 171.922 1405.17 Q166.112 1405.17 163.033 1400.58 Q159.978 1395.98 159.978 1387.25 Q159.978 1378.5 163.033 1373.92 Q166.112 1369.31 171.922 1369.31 Z" fill="#000000" fill-rule="evenodd" fill-opacity="1" /><path clip-path="url(#clip210)" d="M202.084 1373.01 Q198.473 1373.01 196.644 1376.58 Q194.838 1380.12 194.838 1387.25 Q194.838 1394.36 196.644 1397.92 Q198.473 1401.46 202.084 1401.46 Q205.718 1401.46 207.524 1397.92 Q209.352 1394.36 209.352 1387.25 Q209.352 1380.12 207.524 1376.58 Q205.718 1373.01 202.084 1373.01 M202.084 1369.31 Q207.894 1369.31 210.949 1373.92 Q214.028 1378.5 214.028 1387.25 Q214.028 1395.98 210.949 1400.58 Q207.894 1405.17 202.084 1405.17 Q196.274 1405.17 193.195 1400.58 Q190.139 1395.98 190.139 1387.25 Q190.139 1378.5 193.195 1373.92 Q196.274 1369.31 202.084 1369.31 Z" fill="#000000" fill-rule="evenodd" fill-opacity="1" /><path clip-path="url(#clip210)" d="M128.288 1115.82 Q124.677 1115.82 122.848 1119.39 Q121.043 1122.93 121.043 1130.06 Q121.043 1137.17 122.848 1140.73 Q124.677 1144.27 128.288 1144.27 Q131.922 1144.27 133.728 1140.73 Q135.556 1137.17 135.556 1130.06 Q135.556 1122.93 133.728 1119.39 Q131.922 1115.82 128.288 1115.82 M128.288 1112.12 Q134.098 1112.12 137.154 1116.73 Q140.232 1121.31 140.232 1130.06 Q140.232 1138.79 137.154 1143.39 Q134.098 1147.98 128.288 1147.98 Q122.478 1147.98 119.399 1143.39 Q116.343 1138.79 116.343 1130.06 Q116.343 1121.31 119.399 1116.73 Q122.478 1112.12 128.288 1112.12 Z" fill="#000000" fill-rule="evenodd" fill-opacity="1" /><path clip-path="url(#clip210)" d="M148.45 1141.43 L153.334 1141.43 L153.334 1147.31 L148.45 1147.31 L148.45 1141.43 Z" fill="#000000" fill-rule="evenodd" fill-opacity="1" /><path clip-path="url(#clip210)" d="M173.519 1115.82 Q169.908 1115.82 168.079 1119.39 Q166.274 1122.93 166.274 1130.06 Q166.274 1137.17 168.079 1140.73 Q169.908 1144.27 173.519 1144.27 Q177.153 1144.27 178.959 1140.73 Q180.788 1137.17 180.788 1130.06 Q180.788 1122.93 178.959 1119.39 Q177.153 1115.82 173.519 1115.82 M173.519 1112.12 Q179.329 1112.12 182.385 1116.73 Q185.463 1121.31 185.463 1130.06 Q185.463 1138.79 182.385 1143.39 Q179.329 1147.98 173.519 1147.98 Q167.709 1147.98 164.63 1143.39 Q161.575 1138.79 161.575 1130.06 Q161.575 1121.31 164.63 1116.73 Q167.709 1112.12 173.519 1112.12 Z" fill="#000000" fill-rule="evenodd" fill-opacity="1" /><path clip-path="url(#clip210)" d="M197.709 1143.37 L214.028 1143.37 L214.028 1147.31 L192.084 1147.31 L192.084 1143.37 Q194.746 1140.62 199.329 1135.99 Q203.936 1131.33 205.116 1129.99 Q207.362 1127.47 208.241 1125.73 Q209.144 1123.97 209.144 1122.28 Q209.144 1119.53 207.199 1117.79 Q205.278 1116.06 202.176 1116.06 Q199.977 1116.06 197.524 1116.82 Q195.093 1117.58 192.315 1119.13 L192.315 1114.41 Q195.139 1113.28 197.593 1112.7 Q200.047 1112.12 202.084 1112.12 Q207.454 1112.12 210.649 1114.81 Q213.843 1117.49 213.843 1121.98 Q213.843 1124.11 213.033 1126.03 Q212.246 1127.93 210.139 1130.52 Q209.561 1131.19 206.459 1134.41 Q203.357 1137.61 197.709 1143.37 Z" fill="#000000" fill-rule="evenodd" fill-opacity="1" /><path clip-path="url(#clip210)" d="M126.205 858.633 Q122.593 858.633 120.765 862.198 Q118.959 865.739 118.959 872.869 Q118.959 879.975 120.765 883.54 Q122.593 887.082 126.205 887.082 Q129.839 887.082 131.644 883.54 Q133.473 879.975 133.473 872.869 Q133.473 865.739 131.644 862.198 Q129.839 858.633 126.205 858.633 M126.205 854.929 Q132.015 854.929 135.07 859.536 Q138.149 864.119 138.149 872.869 Q138.149 881.596 135.07 886.202 Q132.015 890.785 126.205 890.785 Q120.394 890.785 117.316 886.202 Q114.26 881.596 114.26 872.869 Q114.26 864.119 117.316 859.536 Q120.394 854.929 126.205 854.929 Z" fill="#000000" fill-rule="evenodd" fill-opacity="1" /><path clip-path="url(#clip210)" d="M146.366 884.234 L151.251 884.234 L151.251 890.114 L146.366 890.114 L146.366 884.234 Z" fill="#000000" fill-rule="evenodd" fill-opacity="1" /><path clip-path="url(#clip210)" d="M171.436 858.633 Q167.825 858.633 165.996 862.198 Q164.19 865.739 164.19 872.869 Q164.19 879.975 165.996 883.54 Q167.825 887.082 171.436 887.082 Q175.07 887.082 176.876 883.54 Q178.704 879.975 178.704 872.869 Q178.704 865.739 176.876 862.198 Q175.07 858.633 171.436 858.633 M171.436 854.929 Q177.246 854.929 180.301 859.536 Q183.38 864.119 183.38 872.869 Q183.38 881.596 180.301 886.202 Q177.246 890.785 171.436 890.785 Q165.626 890.785 162.547 886.202 Q159.491 881.596 159.491 872.869 Q159.491 864.119 162.547 859.536 Q165.626 854.929 171.436 854.929 Z" fill="#000000" fill-rule="evenodd" fill-opacity="1" /><path clip-path="url(#clip210)" d="M204.445 859.628 L192.639 878.077 L204.445 878.077 L204.445 859.628 M203.218 855.554 L209.098 855.554 L209.098 878.077 L214.028 878.077 L214.028 881.966 L209.098 881.966 L209.098 890.114 L204.445 890.114 L204.445 881.966 L188.843 881.966 L188.843 877.452 L203.218 855.554 Z" fill="#000000" fill-rule="evenodd" fill-opacity="1" /><path clip-path="url(#clip210)" d="M126.529 601.442 Q122.918 601.442 121.089 605.007 Q119.283 608.548 119.283 615.678 Q119.283 622.784 121.089 626.349 Q122.918 629.891 126.529 629.891 Q130.163 629.891 131.968 626.349 Q133.797 622.784 133.797 615.678 Q133.797 608.548 131.968 605.007 Q130.163 601.442 126.529 601.442 M126.529 597.738 Q132.339 597.738 135.394 602.344 Q138.473 606.928 138.473 615.678 Q138.473 624.405 135.394 629.011 Q132.339 633.594 126.529 633.594 Q120.718 633.594 117.64 629.011 Q114.584 624.405 114.584 615.678 Q114.584 606.928 117.64 602.344 Q120.718 597.738 126.529 597.738 Z" fill="#000000" fill-rule="evenodd" fill-opacity="1" /><path clip-path="url(#clip210)" d="M146.691 627.043 L151.575 627.043 L151.575 632.923 L146.691 632.923 L146.691 627.043 Z" fill="#000000" fill-rule="evenodd" fill-opacity="1" /><path clip-path="url(#clip210)" d="M171.76 601.442 Q168.149 601.442 166.32 605.007 Q164.515 608.548 164.515 615.678 Q164.515 622.784 166.32 626.349 Q168.149 629.891 171.76 629.891 Q175.394 629.891 177.2 626.349 Q179.028 622.784 179.028 615.678 Q179.028 608.548 177.2 605.007 Q175.394 601.442 171.76 601.442 M171.76 597.738 Q177.57 597.738 180.626 602.344 Q183.704 606.928 183.704 615.678 Q183.704 624.405 180.626 629.011 Q177.57 633.594 171.76 633.594 Q165.95 633.594 162.871 629.011 Q159.815 624.405 159.815 615.678 Q159.815 606.928 162.871 602.344 Q165.95 597.738 171.76 597.738 Z" fill="#000000" fill-rule="evenodd" fill-opacity="1" /><path clip-path="url(#clip210)" d="M202.5 613.78 Q199.352 613.78 197.5 615.932 Q195.672 618.085 195.672 621.835 Q195.672 625.562 197.5 627.738 Q199.352 629.891 202.5 629.891 Q205.649 629.891 207.477 627.738 Q209.329 625.562 209.329 621.835 Q209.329 618.085 207.477 615.932 Q205.649 613.78 202.5 613.78 M211.783 599.127 L211.783 603.386 Q210.024 602.553 208.218 602.113 Q206.436 601.673 204.676 601.673 Q200.047 601.673 197.593 604.798 Q195.163 607.923 194.815 614.243 Q196.181 612.229 198.241 611.164 Q200.301 610.076 202.778 610.076 Q207.987 610.076 210.996 613.247 Q214.028 616.395 214.028 621.835 Q214.028 627.159 210.88 630.377 Q207.732 633.594 202.5 633.594 Q196.505 633.594 193.334 629.011 Q190.163 624.405 190.163 615.678 Q190.163 607.483 194.051 602.622 Q197.94 597.738 204.491 597.738 Q206.25 597.738 208.033 598.085 Q209.838 598.432 211.783 599.127 Z" fill="#000000" fill-rule="evenodd" fill-opacity="1" /><path clip-path="url(#clip210)" d="M126.783 344.251 Q123.172 344.251 121.343 347.815 Q119.538 351.357 119.538 358.487 Q119.538 365.593 121.343 369.158 Q123.172 372.7 126.783 372.7 Q130.417 372.7 132.223 369.158 Q134.052 365.593 134.052 358.487 Q134.052 351.357 132.223 347.815 Q130.417 344.251 126.783 344.251 M126.783 340.547 Q132.593 340.547 135.649 345.153 Q138.728 349.737 138.728 358.487 Q138.728 367.213 135.649 371.82 Q132.593 376.403 126.783 376.403 Q120.973 376.403 117.894 371.82 Q114.839 367.213 114.839 358.487 Q114.839 349.737 117.894 345.153 Q120.973 340.547 126.783 340.547 Z" fill="#000000" fill-rule="evenodd" fill-opacity="1" /><path clip-path="url(#clip210)" d="M146.945 369.852 L151.829 369.852 L151.829 375.732 L146.945 375.732 L146.945 369.852 Z" fill="#000000" fill-rule="evenodd" fill-opacity="1" /><path clip-path="url(#clip210)" d="M172.014 344.251 Q168.403 344.251 166.575 347.815 Q164.769 351.357 164.769 358.487 Q164.769 365.593 166.575 369.158 Q168.403 372.7 172.014 372.7 Q175.649 372.7 177.454 369.158 Q179.283 365.593 179.283 358.487 Q179.283 351.357 177.454 347.815 Q175.649 344.251 172.014 344.251 M172.014 340.547 Q177.825 340.547 180.88 345.153 Q183.959 349.737 183.959 358.487 Q183.959 367.213 180.88 371.82 Q177.825 376.403 172.014 376.403 Q166.204 376.403 163.126 371.82 Q160.07 367.213 160.07 358.487 Q160.07 349.737 163.126 345.153 Q166.204 340.547 172.014 340.547 Z" fill="#000000" fill-rule="evenodd" fill-opacity="1" /><path clip-path="url(#clip210)" d="M202.176 359.32 Q198.843 359.32 196.922 361.102 Q195.024 362.885 195.024 366.01 Q195.024 369.135 196.922 370.917 Q198.843 372.7 202.176 372.7 Q205.51 372.7 207.431 370.917 Q209.352 369.112 209.352 366.01 Q209.352 362.885 207.431 361.102 Q205.533 359.32 202.176 359.32 M197.5 357.329 Q194.491 356.589 192.801 354.528 Q191.135 352.468 191.135 349.505 Q191.135 345.362 194.075 342.954 Q197.037 340.547 202.176 340.547 Q207.338 340.547 210.278 342.954 Q213.218 345.362 213.218 349.505 Q213.218 352.468 211.528 354.528 Q209.861 356.589 206.875 357.329 Q210.255 358.116 212.13 360.408 Q214.028 362.7 214.028 366.01 Q214.028 371.033 210.949 373.718 Q207.894 376.403 202.176 376.403 Q196.459 376.403 193.38 373.718 Q190.325 371.033 190.325 366.01 Q190.325 362.7 192.223 360.408 Q194.121 358.116 197.5 357.329 M195.787 349.945 Q195.787 352.63 197.454 354.135 Q199.144 355.639 202.176 355.639 Q205.186 355.639 206.875 354.135 Q208.588 352.63 208.588 349.945 Q208.588 347.26 206.875 345.755 Q205.186 344.251 202.176 344.251 Q199.144 344.251 197.454 345.755 Q195.787 347.26 195.787 349.945 Z" fill="#000000" fill-rule="evenodd" fill-opacity="1" /><path clip-path="url(#clip210)" d="M27.2366 806.044 Q28.6537 806.044 29.7164 807.204 Q30.747 808.331 30.747 809.555 Q30.747 810.682 30.0707 811.391 Q29.3622 812.067 28.3638 812.067 Q27.0434 812.067 25.9484 810.94 Q24.8534 809.812 24.8534 808.492 Q24.8534 807.397 25.5297 806.721 Q26.206 806.044 27.2366 806.044 M59.0238 805.465 Q59.2814 805.465 60.312 805.755 Q61.3104 806.044 62.8563 806.753 Q64.37 807.429 65.787 808.363 Q67.2041 809.297 68.2024 810.843 Q69.2008 812.357 69.2008 814.096 Q69.2008 816.447 67.6549 817.993 Q66.1091 819.506 63.7902 819.506 Q62.5342 819.506 58.5085 817.993 Q46.7856 813.613 46.3025 813.452 Q44.4667 812.711 42.8564 812.711 Q42.1157 812.711 41.6648 812.872 Q41.1817 813.033 41.0207 813.355 Q40.8275 813.677 40.7953 813.87 Q40.7631 814.031 40.7631 814.354 Q40.7631 816.254 42.6954 818.025 Q44.6278 819.796 48.9433 821.02 Q49.7485 821.278 49.9417 821.439 Q50.135 821.6 50.135 822.083 Q50.1028 822.888 49.4586 822.888 Q49.2654 822.888 48.5247 822.663 Q47.7517 822.437 46.5923 822.018 Q45.4007 821.6 44.1769 820.859 Q42.9208 820.118 41.8258 819.217 Q40.7308 818.283 40.0223 816.962 Q39.3138 815.642 39.3138 814.16 Q39.3138 811.745 40.8919 810.263 Q42.4378 808.75 44.7244 808.75 Q45.9804 808.75 48.2026 809.619 Q51.1011 810.682 52.0351 811.069 L58.9594 813.645 Q61.4714 814.579 62.2444 814.869 Q62.9851 815.126 63.8869 815.352 Q64.7564 815.545 65.5616 815.545 Q66.6888 815.545 67.2041 815.191 Q67.7194 814.804 67.7194 813.967 Q67.7194 811.648 65.4327 809.941 Q63.1139 808.234 59.5713 807.236 Q59.4747 807.204 59.3136 807.172 Q58.5085 806.914 58.4119 806.656 Q58.3797 806.527 58.3797 806.27 Q58.3797 805.465 59.0238 805.465 Z" fill="#000000" fill-rule="evenodd" fill-opacity="1" /><path clip-path="url(#clip210)" d="M51.9707 794.824 Q40.8275 794.824 31.842 790.669 Q28.0739 788.898 24.9178 786.418 Q21.7616 783.938 20.3767 782.296 Q18.9919 780.653 18.9919 780.202 Q18.9919 779.558 19.636 779.526 Q19.9581 779.526 20.7632 780.395 Q31.5844 791.023 51.9707 790.991 Q72.4214 790.991 82.8239 780.653 Q83.9511 779.526 84.3054 779.526 Q84.9495 779.526 84.9495 780.202 Q84.9495 780.653 83.6291 782.231 Q82.3086 783.809 79.2813 786.257 Q76.2539 788.705 72.5502 790.476 Q63.5648 794.824 51.9707 794.824 Z" fill="#000000" fill-rule="evenodd" fill-opacity="1" /><path clip-path="url(#clip210)" d="M40.7631 754.255 Q41.6648 754.255 41.8903 754.673 Q42.0835 755.092 42.0835 756.252 L42.0835 762.435 L61.5358 767.33 Q63.2427 767.717 64.692 767.717 Q66.3023 767.717 67.0108 767.234 Q67.7194 766.718 67.7194 765.656 Q67.7194 763.562 65.8192 761.308 Q63.9191 759.021 59.2814 757.089 Q58.6695 756.831 58.5407 756.702 Q58.3797 756.541 58.3797 756.123 Q58.3797 755.318 59.0238 755.318 Q59.2492 755.318 60.2798 755.768 Q61.3104 756.187 62.8241 757.121 Q64.3377 758.023 65.7548 759.215 Q67.1719 760.374 68.2024 762.145 Q69.2008 763.917 69.2008 765.817 Q69.2008 768.49 67.4939 770.197 Q65.787 771.871 63.1139 771.871 Q62.2444 771.871 59.4747 771.195 Q56.6727 770.519 42.0835 766.847 L42.0835 772.677 Q42.0835 773.482 42.0513 773.804 Q42.0191 774.094 41.8581 774.319 Q41.6648 774.512 41.2783 774.512 Q40.6664 774.512 40.4088 774.255 Q40.1189 773.997 40.0867 773.675 Q40.0223 773.321 40.0223 772.516 L40.0223 766.332 L29.5554 763.756 Q28.5248 763.498 27.9451 762.854 Q27.3332 762.177 27.2688 761.791 Q27.1722 761.405 27.1722 761.115 Q27.1722 760.245 27.6553 759.73 Q28.1062 759.215 28.9435 759.215 Q29.3944 759.215 40.0223 761.92 L40.0223 756.123 Q40.0223 755.382 40.0545 755.092 Q40.0867 754.77 40.2478 754.512 Q40.4088 754.255 40.7631 754.255 Z" fill="#000000" fill-rule="evenodd" fill-opacity="1" /><path clip-path="url(#clip210)" d="M84.3054 749.091 Q83.9833 749.091 83.1782 748.254 Q72.357 737.626 51.9707 737.626 Q31.52 737.626 21.1819 747.835 Q19.9903 749.091 19.636 749.091 Q18.9919 749.091 18.9919 748.447 Q18.9919 747.996 20.3123 746.418 Q21.6328 744.808 24.6601 742.393 Q27.6875 739.945 31.3911 738.141 Q40.3766 733.794 51.9707 733.794 Q63.1139 733.794 72.0994 737.948 Q75.8674 739.719 79.0236 742.199 Q82.1798 744.679 83.5646 746.322 Q84.9495 747.964 84.9495 748.447 Q84.9495 749.091 84.3054 749.091 Z" fill="#000000" fill-rule="evenodd" fill-opacity="1" /><path clip-path="url(#clip210)" d="M871.976 12.096 L882.994 12.096 L909.811 62.6918 L909.811 12.096 L917.751 12.096 L917.751 72.576 L906.733 72.576 L879.916 21.9802 L879.916 72.576 L871.976 72.576 L871.976 12.096 Z" fill="#000000" fill-rule="evenodd" fill-opacity="1" /><path clip-path="url(#clip210)" d="M932.942 54.671 L932.942 27.2059 L940.396 27.2059 L940.396 54.3874 Q940.396 60.8284 942.907 64.0691 Q945.419 67.2693 950.442 67.2693 Q956.478 67.2693 959.962 63.421 Q963.486 59.5726 963.486 52.9291 L963.486 27.2059 L970.94 27.2059 L970.94 72.576 L963.486 72.576 L963.486 65.6084 Q960.772 69.7404 957.166 71.7658 Q953.602 73.7508 948.862 73.7508 Q941.044 73.7508 936.993 68.8897 Q932.942 64.0286 932.942 54.671 M951.698 26.1121 L951.698 26.1121 Z" fill="#000000" fill-rule="evenodd" fill-opacity="1" /><path clip-path="url(#clip210)" d="M1021.62 35.9153 Q1024.41 30.8922 1028.3 28.5022 Q1032.19 26.1121 1037.46 26.1121 Q1044.54 26.1121 1048.39 31.0947 Q1052.24 36.0368 1052.24 45.1919 L1052.24 72.576 L1044.75 72.576 L1044.75 45.4349 Q1044.75 38.913 1042.44 35.7533 Q1040.13 32.5936 1035.39 32.5936 Q1029.6 32.5936 1026.23 36.4419 Q1022.87 40.2903 1022.87 46.9338 L1022.87 72.576 L1015.38 72.576 L1015.38 45.4349 Q1015.38 38.8725 1013.07 35.7533 Q1010.76 32.5936 1005.94 32.5936 Q1000.23 32.5936 996.865 36.4824 Q993.503 40.3308 993.503 46.9338 L993.503 72.576 L986.009 72.576 L986.009 27.2059 L993.503 27.2059 L993.503 34.2544 Q996.055 30.082 999.62 28.0971 Q1003.18 26.1121 1008.09 26.1121 Q1013.03 26.1121 1016.47 28.6237 Q1019.96 31.1352 1021.62 35.9153 Z" fill="#000000" fill-rule="evenodd" fill-opacity="1" /><path clip-path="url(#clip210)" d="M1099.68 49.9314 Q1099.68 41.7081 1096.27 37.0496 Q1092.91 32.3505 1087 32.3505 Q1081.08 32.3505 1077.68 37.0496 Q1074.32 41.7081 1074.32 49.9314 Q1074.32 58.1548 1077.68 62.8538 Q1081.08 67.5124 1087 67.5124 Q1092.91 67.5124 1096.27 62.8538 Q1099.68 58.1548 1099.68 49.9314 M1074.32 34.0924 Q1076.67 30.0415 1080.23 28.0971 Q1083.84 26.1121 1088.82 26.1121 Q1097.08 26.1121 1102.23 32.6746 Q1107.41 39.2371 1107.41 49.9314 Q1107.41 60.6258 1102.23 67.1883 Q1097.08 73.7508 1088.82 73.7508 Q1083.84 73.7508 1080.23 71.8063 Q1076.67 69.8214 1074.32 65.7705 L1074.32 72.576 L1066.82 72.576 L1066.82 9.54393 L1074.32 9.54393 L1074.32 34.0924 Z" fill="#000000" fill-rule="evenodd" fill-opacity="1" /><path clip-path="url(#clip210)" d="M1158.58 48.0275 L1158.58 51.6733 L1124.31 51.6733 Q1124.79 59.3701 1128.92 63.421 Q1133.1 67.4314 1140.51 67.4314 Q1144.8 67.4314 1148.81 66.3781 Q1152.87 65.3249 1156.84 63.2184 L1156.84 70.267 Q1152.83 71.9684 1148.61 72.8596 Q1144.4 73.7508 1140.06 73.7508 Q1129.21 73.7508 1122.85 67.4314 Q1116.53 61.1119 1116.53 50.3365 Q1116.53 39.1965 1122.52 32.6746 Q1128.56 26.1121 1138.77 26.1121 Q1147.92 26.1121 1153.23 32.0264 Q1158.58 37.9003 1158.58 48.0275 M1151.12 45.84 Q1151.04 39.7232 1147.68 36.0774 Q1144.36 32.4315 1138.85 32.4315 Q1132.61 32.4315 1128.84 35.9558 Q1125.12 39.4801 1124.55 45.8805 L1151.12 45.84 Z" fill="#000000" fill-rule="evenodd" fill-opacity="1" /><path clip-path="url(#clip210)" d="M1197.1 34.1734 Q1195.85 33.4443 1194.35 33.1202 Q1192.89 32.7556 1191.11 32.7556 Q1184.79 32.7556 1181.38 36.8875 Q1178.02 40.9789 1178.02 48.6757 L1178.02 72.576 L1170.53 72.576 L1170.53 27.2059 L1178.02 27.2059 L1178.02 34.2544 Q1180.37 30.1225 1184.14 28.1376 Q1187.91 26.1121 1193.29 26.1121 Q1194.06 26.1121 1195 26.2337 Q1195.93 26.3147 1197.06 26.5172 L1197.1 34.1734 Z" fill="#000000" fill-rule="evenodd" fill-opacity="1" /><path clip-path="url(#clip210)" d="M1248.87 32.4315 Q1242.88 32.4315 1239.39 37.1306 Q1235.91 41.7891 1235.91 49.9314 Q1235.91 58.0738 1239.35 62.7728 Q1242.84 67.4314 1248.87 67.4314 Q1254.83 67.4314 1258.31 62.7323 Q1261.79 58.0333 1261.79 49.9314 Q1261.79 41.8701 1258.31 37.1711 Q1254.83 32.4315 1248.87 32.4315 M1248.87 26.1121 Q1258.59 26.1121 1264.14 32.4315 Q1269.69 38.7509 1269.69 49.9314 Q1269.69 61.0714 1264.14 67.4314 Q1258.59 73.7508 1248.87 73.7508 Q1239.11 73.7508 1233.56 67.4314 Q1228.05 61.0714 1228.05 49.9314 Q1228.05 38.7509 1233.56 32.4315 Q1239.11 26.1121 1248.87 26.1121 Z" fill="#000000" fill-rule="evenodd" fill-opacity="1" /><path clip-path="url(#clip210)" d="M1305.02 9.54393 L1305.02 15.7418 L1297.89 15.7418 Q1293.88 15.7418 1292.3 17.3622 Q1290.76 18.9825 1290.76 23.1955 L1290.76 27.2059 L1303.03 27.2059 L1303.03 32.9987 L1290.76 32.9987 L1290.76 72.576 L1283.26 72.576 L1283.26 32.9987 L1276.13 32.9987 L1276.13 27.2059 L1283.26 27.2059 L1283.26 24.0462 Q1283.26 16.471 1286.79 13.0277 Q1290.31 9.54393 1297.97 9.54393 L1305.02 9.54393 Z" fill="#000000" fill-rule="evenodd" fill-opacity="1" /><path clip-path="url(#clip210)" d="M1337.95 12.096 L1346.13 12.096 L1346.13 72.576 L1337.95 72.576 L1337.95 12.096 Z" fill="#000000" fill-rule="evenodd" fill-opacity="1" /><path clip-path="url(#clip210)" d="M1399.81 45.1919 L1399.81 72.576 L1392.36 72.576 L1392.36 45.4349 Q1392.36 38.994 1389.84 35.7938 Q1387.33 32.5936 1382.31 32.5936 Q1376.27 32.5936 1372.79 36.4419 Q1369.31 40.2903 1369.31 46.9338 L1369.31 72.576 L1361.81 72.576 L1361.81 27.2059 L1369.31 27.2059 L1369.31 34.2544 Q1371.98 30.163 1375.58 28.1376 Q1379.23 26.1121 1383.97 26.1121 Q1391.79 26.1121 1395.8 30.9732 Q1399.81 35.7938 1399.81 45.1919 Z" fill="#000000" fill-rule="evenodd" fill-opacity="1" /><path clip-path="url(#clip210)" d="M1437.64 9.54393 L1437.64 15.7418 L1430.51 15.7418 Q1426.5 15.7418 1424.92 17.3622 Q1423.39 18.9825 1423.39 23.1955 L1423.39 27.2059 L1435.66 27.2059 L1435.66 32.9987 L1423.39 32.9987 L1423.39 72.576 L1415.89 72.576 L1415.89 32.9987 L1408.76 32.9987 L1408.76 27.2059 L1415.89 27.2059 L1415.89 24.0462 Q1415.89 16.471 1419.42 13.0277 Q1422.94 9.54393 1430.6 9.54393 L1437.64 9.54393 Z" fill="#000000" fill-rule="evenodd" fill-opacity="1" /><path clip-path="url(#clip210)" d="M1482.69 48.0275 L1482.69 51.6733 L1448.42 51.6733 Q1448.91 59.3701 1453.04 63.421 Q1457.21 67.4314 1464.62 67.4314 Q1468.92 67.4314 1472.93 66.3781 Q1476.98 65.3249 1480.95 63.2184 L1480.95 70.267 Q1476.94 71.9684 1472.73 72.8596 Q1468.51 73.7508 1464.18 73.7508 Q1453.32 73.7508 1446.96 67.4314 Q1440.64 61.1119 1440.64 50.3365 Q1440.64 39.1965 1446.64 32.6746 Q1452.67 26.1121 1462.88 26.1121 Q1472.04 26.1121 1477.34 32.0264 Q1482.69 37.9003 1482.69 48.0275 M1475.24 45.84 Q1475.16 39.7232 1471.79 36.0774 Q1468.47 32.4315 1462.96 32.4315 Q1456.72 32.4315 1452.96 35.9558 Q1449.23 39.4801 1448.66 45.8805 L1475.24 45.84 Z" fill="#000000" fill-rule="evenodd" fill-opacity="1" /><path clip-path="url(#clip210)" d="M1527.57 28.9478 L1527.57 35.9153 Q1524.41 34.1734 1521.21 33.3227 Q1518.05 32.4315 1514.81 32.4315 Q1507.56 32.4315 1503.55 37.0496 Q1499.54 41.6271 1499.54 49.9314 Q1499.54 58.2358 1503.55 62.8538 Q1507.56 67.4314 1514.81 67.4314 Q1518.05 67.4314 1521.21 66.5807 Q1524.41 65.6895 1527.57 63.9476 L1527.57 70.8341 Q1524.46 72.2924 1521.09 73.0216 Q1517.77 73.7508 1514 73.7508 Q1503.75 73.7508 1497.72 67.3098 Q1491.68 60.8689 1491.68 49.9314 Q1491.68 38.832 1497.76 32.472 Q1503.88 26.1121 1514.49 26.1121 Q1517.93 26.1121 1521.21 26.8413 Q1524.5 27.5299 1527.57 28.9478 Z" fill="#000000" fill-rule="evenodd" fill-opacity="1" /><path clip-path="url(#clip210)" d="M1547.91 14.324 L1547.91 27.2059 L1563.26 27.2059 L1563.26 32.9987 L1547.91 32.9987 L1547.91 57.6282 Q1547.91 63.1779 1549.41 64.7578 Q1550.95 66.3376 1555.61 66.3376 L1563.26 66.3376 L1563.26 72.576 L1555.61 72.576 Q1546.98 72.576 1543.7 69.3758 Q1540.42 66.1351 1540.42 57.6282 L1540.42 32.9987 L1534.95 32.9987 L1534.95 27.2059 L1540.42 27.2059 L1540.42 14.324 L1547.91 14.324 Z" fill="#000000" fill-rule="evenodd" fill-opacity="1" /><path clip-path="url(#clip210)" d="M1573.07 27.2059 L1580.52 27.2059 L1580.52 72.576 L1573.07 72.576 L1573.07 27.2059 M1573.07 9.54393 L1580.52 9.54393 L1580.52 18.9825 L1573.07 18.9825 L1573.07 9.54393 Z" fill="#000000" fill-rule="evenodd" fill-opacity="1" /><path clip-path="url(#clip210)" d="M1613.7 32.4315 Q1607.7 32.4315 1604.22 37.1306 Q1600.73 41.7891 1600.73 49.9314 Q1600.73 58.0738 1604.18 62.7728 Q1607.66 67.4314 1613.7 67.4314 Q1619.65 67.4314 1623.14 62.7323 Q1626.62 58.0333 1626.62 49.9314 Q1626.62 41.8701 1623.14 37.1711 Q1619.65 32.4315 1613.7 32.4315 M1613.7 26.1121 Q1623.42 26.1121 1628.97 32.4315 Q1634.52 38.7509 1634.52 49.9314 Q1634.52 61.0714 1628.97 67.4314 Q1623.42 73.7508 1613.7 73.7508 Q1603.93 73.7508 1598.38 67.4314 Q1592.87 61.0714 1592.87 49.9314 Q1592.87 38.7509 1598.38 32.4315 Q1603.93 26.1121 1613.7 26.1121 Z" fill="#000000" fill-rule="evenodd" fill-opacity="1" /><path clip-path="url(#clip210)" d="M1684.59 45.1919 L1684.59 72.576 L1677.13 72.576 L1677.13 45.4349 Q1677.13 38.994 1674.62 35.7938 Q1672.11 32.5936 1667.09 32.5936 Q1661.05 32.5936 1657.57 36.4419 Q1654.08 40.2903 1654.08 46.9338 L1654.08 72.576 L1646.59 72.576 L1646.59 27.2059 L1654.08 27.2059 L1654.08 34.2544 Q1656.76 30.163 1660.36 28.1376 Q1664.01 26.1121 1668.75 26.1121 Q1676.57 26.1121 1680.58 30.9732 Q1684.59 35.7938 1684.59 45.1919 Z" fill="#000000" fill-rule="evenodd" fill-opacity="1" /><path clip-path="url(#clip210)" d="M1728.38 28.5427 L1728.38 35.5912 Q1725.22 33.9709 1721.82 33.1607 Q1718.41 32.3505 1714.77 32.3505 Q1709.22 32.3505 1706.42 34.0519 Q1703.67 35.7533 1703.67 39.156 Q1703.67 41.7486 1705.65 43.2475 Q1707.64 44.7058 1713.63 46.0426 L1716.18 46.6097 Q1724.12 48.3111 1727.45 51.4303 Q1730.81 54.509 1730.81 60.0587 Q1730.81 66.3781 1725.79 70.0644 Q1720.8 73.7508 1712.05 73.7508 Q1708.41 73.7508 1704.44 73.0216 Q1700.51 72.3329 1696.13 70.9151 L1696.13 63.2184 Q1700.26 65.3654 1704.27 66.4591 Q1708.29 67.5124 1712.21 67.5124 Q1717.48 67.5124 1720.32 65.73 Q1723.15 63.9071 1723.15 60.6258 Q1723.15 57.5877 1721.09 55.9673 Q1719.06 54.3469 1712.13 52.8481 L1709.54 52.2405 Q1702.61 50.7821 1699.54 47.7845 Q1696.46 44.7463 1696.46 39.4801 Q1696.46 33.0797 1700.99 29.5959 Q1705.53 26.1121 1713.88 26.1121 Q1718.01 26.1121 1721.65 26.7198 Q1725.3 27.3274 1728.38 28.5427 Z" fill="#000000" fill-rule="evenodd" fill-opacity="1" /><polyline clip-path="url(#clip212)" style="stroke:#009af9; stroke-linecap:butt; stroke-linejoin:round; stroke-width:4; stroke-opacity:1; fill:none" points="
  250.028,1386.24 250.085,1386.24 250.098,1386.24 250.113,1386.24 250.131,1386.24 250.15,1386.24 250.171,1386.24 250.196,1386.24 250.223,1386.24 250.254,1386.24 
  250.289,1386.24 250.328,1386.24 250.372,1386.24 250.421,1386.24 250.477,1386.25 250.539,1386.25 250.61,1386.25 250.689,1386.25 250.778,1386.25 250.878,1386.25 
  250.991,1386.25 251.118,1386.25 251.26,1386.25 251.421,1386.25 251.601,1386.25 251.804,1386.25 252.031,1386.26 252.28,1386.26 252.55,1386.26 252.839,1386.26 
  253.145,1386.26 253.467,1386.26 253.803,1386.27 254.149,1386.27 254.507,1386.27 254.875,1386.27 255.252,1386.27 255.64,1386.28 256.039,1386.28 256.446,1386.28 
  256.859,1386.28 257.276,1386.29 257.696,1386.29 258.122,1386.29 258.552,1386.29 258.982,1386.29 259.416,1386.3 259.852,1386.3 260.291,1386.3 260.733,1386.3 
  261.178,1386.31 261.625,1386.31 262.072,1386.31 262.517,1386.31 262.961,1386.32 263.408,1386.32 263.855,1386.32 264.304,1386.32 264.756,1386.32 265.211,1386.33 
  265.669,1386.33 266.129,1386.33 266.591,1386.33 267.055,1386.33 267.522,1386.34 267.996,1386.34 268.478,1386.34 268.973,1386.34 269.478,1386.34 269.994,1386.35 
  270.52,1386.35 271.061,1386.35 271.615,1386.35 272.178,1386.35 272.752,1386.35 273.337,1386.35 273.932,1386.36 274.532,1386.36 275.14,1386.36 275.757,1386.36 
  276.389,1386.36 277.034,1386.36 277.695,1386.36 278.376,1386.36 279.079,1386.36 279.793,1386.37 280.516,1386.37 281.251,1386.37 282.002,1386.37 282.761,1386.37 
  283.543,1386.37 284.355,1386.37 285.202,1386.37 286.078,1386.37 286.978,1386.37 287.9,1386.37 288.841,1386.36 289.804,1386.36 290.784,1386.36 291.791,1386.36 
  292.844,1386.36 293.943,1386.36 295.079,1386.36 296.284,1386.35 297.557,1386.35 298.887,1386.34 300.3,1386.34 301.789,1386.34 303.353,1386.33 304.986,1386.32 
  306.719,1386.32 308.487,1386.31 310.34,1386.3 312.259,1386.29 314.287,1386.28 316.399,1386.28 318.424,1386.27 320.655,1386.25 323.101,1386.24 325.618,1386.23 
  328.222,1386.21 330.704,1386.2 333.289,1386.19 335.87,1386.17 338.603,1386.16 341.433,1386.14 344.412,1386.12 347.497,1386.1 350.436,1386.08 353.381,1386.06 
  356.391,1386.04 359.28,1386.03 362.097,1386.01 364.88,1385.99 367.562,1385.98 370.392,1385.96 373.112,1385.94 375.804,1385.93 378.507,1385.91 381.303,1385.89 
  384.226,1385.87 387.12,1385.84 390.074,1385.82 393.216,1385.8 396.121,1385.77 399.151,1385.75 402.269,1385.72 405.626,1385.68 409.403,1385.64 413.544,1385.6 
  417.435,1385.56 421.271,1385.52 425.587,1385.46 430.442,1385.41 435.221,1385.34 440.427,1385.28 445.258,1385.22 449.729,1385.17 453.982,1385.12 457.965,1385.07 
  461.947,1385.02 465.782,1384.96 469.648,1384.9 473.996,1384.83 478.807,1384.75 484.22,1384.66 489.103,1384.56 494.596,1384.45 500.576,1384.33 506.111,1384.23 
  511.268,1384.12 516.463,1384.03 520.861,1383.95 524.895,1383.88 529.039,1383.79 533.283,1383.7 537.498,1383.61 541.541,1383.52 545.416,1383.44 549.128,1383.36 
  552.914,1383.26 556.933,1383.16 560.838,1383.07 564.758,1382.97 568.703,1382.85 573.14,1382.72 577.421,1382.6 581.81,1382.47 586.117,1382.32 590.917,1382.17 
  595.447,1382.01 600.151,1381.83 605.443,1381.61 610.826,1381.4 615.856,1381.2 620.747,1381 626.25,1380.76 631.326,1380.53 636.84,1380.24 643.043,1379.88 
  650.022,1379.42 657.873,1378.94 663.505,1378.58 669.616,1378.19 675.502,1377.75 682.124,1377.24 689.574,1376.63 696.986,1375.99 705.304,1375.22 714.662,1374.35 
  723.182,1373.55 730.436,1372.78 738.598,1371.87 747.352,1370.98 753.834,1370.25 760.576,1369.43 767.37,1368.53 774.536,1367.59 781.607,1366.66 787.657,1365.85 
  793.576,1364.97 799.659,1363.98 806.127,1362.75 813.403,1361.18 821.589,1359.19 830.799,1356.58 837.561,1354.31 844.059,1351.91 849.816,1349.43 855.144,1347.04 
  859.866,1344.81 864.768,1342.36 869.348,1340.09 874.405,1337.64 880.056,1334.58 885.514,1330.95 889.973,1327.72 894.063,1324.76 898.19,1321.64 902.218,1318.46 
  906.155,1315.21 910.014,1311.87 913.847,1308.4 917.556,1304.97 921.425,1301.21 925.128,1297.54 928.949,1293.54 932.649,1289.16 936.202,1284.57 939.42,1279.94 
  942.456,1275.38 945.296,1270.81 947.977,1266.35 950.557,1261.87 953.033,1257.61 955.53,1253.2 957.998,1248.69 960.43,1244.23 962.878,1239.66 965.337,1235.08 
  967.841,1230.51 970.499,1225.35 973.161,1219.77 975.701,1214.41 978.258,1209.1 980.907,1203.83 983.838,1197.55 986.7,1191.3 989.626,1185.33 992.851,1179.3 
  996.479,1172.47 1000.56,1164.9 1005.15,1155.67 1010.06,1144.7 1014.54,1134.21 1019,1122.2 1023.08,1110.47 1026.92,1099.18 1030.71,1087.19 1034.34,1074.57 
  1037.73,1062.67 1040.96,1051.82 1044.37,1041.34 1048.06,1030.48 1052.2,1017.01 1056.13,1003.74 1059.97,990.889 1064.08,977.524 1068.29,963.314 1072.56,949.344 
  1077.02,933.251 1081.29,917.246 1085.48,900.909 1089.58,885.012 1093.72,869.209 1097.94,852.565 1102.01,835.533 1106.04,817.825 1109.8,800.94 1113.6,782.976 
  1117.25,764.426 1120.57,747.723 1123.91,731.393 1127.2,716.419 1130.62,700.568 1133.98,685.012 1137.31,668.176 1140.54,652.451 1143.71,635.921 1146.79,619.837 
  1149.82,605.19 1152.88,591.384 1155.97,576.65 1159.02,563.033 1162.11,549.226 1165.19,534.307 1168.19,519.731 1171.13,505.452 1174.06,491.837 1177,478.46 
  1179.89,466.346 1182.82,455.687 1185.75,445.475 1188.7,435.945 1191.64,427.429 1194.56,418.333 1197.49,409.32 1200.41,400.749 1203.32,393.241 1206.19,386.404 
  1209.05,381.003 1211.86,375.851 1214.64,371.318 1217.4,367.903 1220.07,366.667 1222.61,366.519 1224.99,366.533 1227.33,366.528 1229.62,367.34 1231.82,367.41 
  1234.04,367.349 1236.25,367.339 1238.47,367.722 1240.67,367.527 1242.89,367.345 1245.14,367.267 1247.39,367.247 1249.65,368.386 1251.84,369.927 1253.99,371.065 
  1256.15,372.375 1258.32,373.863 1260.44,375.916 1262.53,377.796 1264.61,379.378 1266.73,380.714 1268.88,381.667 1271.09,382.836 1273.3,384.967 1275.49,386.608 
  1277.68,387.176 1280.04,388.852 1282.34,390.978 1284.61,392.651 1286.94,394.201 1289.3,395.257 1291.73,396.303 1294.21,398.169 1296.72,401.014 1299.12,403.619 
  1301.53,405.203 1304.08,405.95 1306.71,405.376 1309.48,403.047 1312.31,399.854 1315.14,395.711 1317.93,392.246 1320.75,388.877 1323.6,384.302 1326.31,380.287 
  1329.06,376.633 1331.77,373.257 1334.54,370.428 1337.28,368.074 1340.05,365.677 1342.79,362.802 1345.49,361.182 1348.26,360.46 1351.07,360.928 1353.97,360.702 
  1356.87,359.35 1359.68,357.554 1362.42,357.578 1365.27,357.811 1368.13,357.38 1370.91,357.461 1373.73,358.101 1376.56,359.236 1379.43,360.103 1382.28,360.735 
  1385.07,362.189 1387.89,365.251 1390.86,368.901 1393.86,371.936 1396.85,374.912 1399.84,376.905 1402.75,378.731 1405.58,381.658 1408.51,384.88 1411.47,387.875 
  1414.34,390.941 1417.23,394.46 1420.12,398.442 1423.07,402.503 1425.96,407.204 1428.96,413.133 1432.06,418.987 1435.18,425.036 1438.34,431.527 1441.54,438.043 
  1444.76,445.355 1448.06,453.392 1451.45,461.826 1454.87,470.622 1458.39,479.216 1461.88,489.27 1465.53,500.851 1469.23,513.522 1473,527.559 1476.62,541.336 
  1480.18,555.311 1483.65,568.652 1487.07,580.88 1490.7,593.088 1494.51,605.659 1498.4,617.485 1502.53,630.305 1506.74,643.209 1511.09,657.073 1515.5,670.612 
  1520,683.228 1524.65,696.578 1529.42,711.497 1534.29,726.832 1539.21,742.887 1543.98,757.268 1548.98,770.487 1554.28,783.974 1559.47,796.082 1564.27,807.513 
  1569.23,818.801 1574.05,827.976 1578.44,836.563 1582.43,845.061 1586.77,855.312 1591.45,865.734 1596.23,875.746 1600.59,885.109 1605.04,895.358 1610.04,907.181 
  1615.49,920.188 1621.36,933.954 1627.59,947.35 1633.75,959.524 1639.19,970.232 1644.74,981.733 1650.69,993.874 1657.3,1007.12 1664.32,1020.89 1671,1034.22 
  1678.52,1049.04 1686.39,1063.71 1694.96,1079.42 1704.04,1095.42 1713.05,1111.36 1722.41,1127.23 1730.14,1139.49 1738.83,1153.06 1745.96,1163.67 1753.42,1174.07 
  1761,1183.72 1769.53,1193.97 1779.12,1205.21 1788.86,1215.59 1799.83,1225.96 1810.25,1235.82 1821.97,1247.02 1831.37,1255.18 1841.94,1263.91 1851.37,1271.11 
  1861.97,1279.05 1871.97,1286.15 1880.51,1291.8 1888.52,1296.43 1897.53,1301.27 1907.16,1306.18 1917.54,1311.16 1929.21,1316.22 1937.48,1319.64 1946.08,1323.22 
  1955.76,1327.01 1966.65,1330.71 1973.6,1333 1981.41,1335.3 1987.3,1336.88 1992.64,1338.32 1997.78,1339.73 2003.4,1341.2 2009.16,1342.63 2014.27,1343.88 
  2019.78,1345.27 2025.32,1346.69 2031.54,1348.19 2036.51,1349.34 2042.01,1350.6 2048.2,1351.94 2054.62,1353.23 2060.82,1354.51 2067.75,1355.94 2075.54,1357.42 
  2082.16,1358.62 2089.61,1359.89 2096.22,1361.01 2103.66,1362.27 2112.03,1363.57 2121.45,1364.91 2130.85,1366.08 2137.58,1366.84 2143.69,1367.53 2149.49,1368.16 
  2155.29,1368.77 2161.3,1369.37 2166.45,1369.88 2172.17,1370.43 2177.46,1370.91 2182.92,1371.41 2187.97,1371.88 2193.65,1372.4 2200.03,1372.96 2207.14,1373.55 
  2213.13,1374.05 2219.88,1374.63 2227.46,1375.24 2232.62,1375.64 2238.41,1376.08 2244.37,1376.53 2250.16,1376.94 2256.66,1377.38 2263.98,1377.85 2272.22,1378.34 
  2281.48,1378.85 2291.91,1379.39 2300.05,1379.79 2309.22,1380.21 2318.22,1380.59 2326.27,1380.92 2335.32,1381.26 2342.06,1381.49 2348.27,1381.69 2352.76,1381.83 
  
  "/>
<polyline clip-path="url(#clip212)" style="stroke:#e26f46; stroke-linecap:butt; stroke-linejoin:round; stroke-width:4; stroke-opacity:1; fill:none" points="
  250.028,1386.24 250.085,1386.24 250.098,1386.24 250.113,1386.24 250.131,1386.24 250.15,1386.24 250.172,1386.24 250.196,1386.24 250.224,1386.24 250.255,1386.24 
  250.289,1386.24 250.328,1386.24 250.373,1386.24 250.422,1386.24 250.478,1386.25 250.54,1386.25 250.611,1386.25 250.69,1386.25 250.78,1386.25 250.88,1386.25 
  250.993,1386.25 251.12,1386.25 251.263,1386.25 251.424,1386.25 251.605,1386.25 251.809,1386.25 252.034,1386.26 252.281,1386.26 252.547,1386.26 252.829,1386.26 
  253.128,1386.26 253.442,1386.26 253.772,1386.27 254.115,1386.27 254.472,1386.27 254.843,1386.27 255.225,1386.27 255.617,1386.28 256.017,1386.28 256.429,1386.28 
  256.848,1386.28 257.273,1386.28 257.705,1386.29 258.144,1386.29 258.587,1386.29 259.035,1386.29 259.487,1386.3 259.939,1386.3 260.395,1386.3 260.856,1386.3 
  261.319,1386.3 261.787,1386.31 262.26,1386.31 262.736,1386.31 263.215,1386.31 263.695,1386.32 264.175,1386.32 264.656,1386.32 265.142,1386.32 265.637,1386.32 
  266.138,1386.33 266.644,1386.33 267.153,1386.33 267.664,1386.33 268.174,1386.33 268.681,1386.34 269.192,1386.34 269.706,1386.34 270.222,1386.34 270.741,1386.34 
  271.268,1386.35 271.8,1386.35 272.336,1386.35 272.876,1386.35 273.42,1386.35 273.966,1386.35 274.515,1386.36 275.065,1386.36 275.62,1386.36 276.179,1386.36 
  276.747,1386.36 277.32,1386.36 277.892,1386.37 278.47,1386.37 279.051,1386.37 279.635,1386.37 280.22,1386.37 280.804,1386.37 281.392,1386.38 281.985,1386.38 
  282.584,1386.38 283.189,1386.38 283.801,1386.38 284.427,1386.38 285.062,1386.38 285.706,1386.38 286.359,1386.39 287.028,1386.39 287.707,1386.39 288.399,1386.39 
  289.108,1386.39 289.827,1386.39 290.554,1386.39 291.282,1386.39 292.016,1386.39 292.762,1386.39 293.526,1386.39 294.301,1386.39 295.077,1386.39 295.872,1386.4 
  296.67,1386.4 297.478,1386.4 298.308,1386.4 299.166,1386.4 300.04,1386.4 300.933,1386.39 301.853,1386.39 302.791,1386.39 303.746,1386.39 304.724,1386.39 
  305.741,1386.39 306.776,1386.39 307.839,1386.39 308.931,1386.39 310.046,1386.39 311.189,1386.38 312.372,1386.38 313.587,1386.38 314.842,1386.38 316.094,1386.37 
  317.376,1386.37 318.726,1386.37 320.105,1386.36 321.52,1386.36 322.93,1386.36 324.371,1386.35 325.846,1386.35 327.381,1386.34 328.96,1386.34 330.582,1386.33 
  332.259,1386.33 333.946,1386.32 335.71,1386.32 337.486,1386.31 339.242,1386.3 341.093,1386.3 343.019,1386.29 344.975,1386.28 347.05,1386.27 349.119,1386.26 
  351.422,1386.25 354.012,1386.23 356.926,1386.21 360.205,1386.18 363.632,1386.16 367.206,1386.13 371.226,1386.1 375.372,1386.07 379.869,1386.03 384.391,1385.99 
  389.479,1385.95 394.455,1385.91 399.241,1385.86 404.448,1385.81 410.053,1385.75 415.903,1385.68 422.484,1385.6 429.888,1385.49 438.218,1385.34 442.461,1385.27 
  447.235,1385.18 452.605,1385.07 457.836,1384.96 463.413,1384.84 469.66,1384.7 476.688,1384.54 484.594,1384.35 492.959,1384.11 500.428,1383.91 508.831,1383.64 
  518.285,1383.32 525.998,1383.05 534.675,1382.7 544.436,1382.29 553.989,1381.79 562.998,1381.21 570.244,1380.7 576.524,1380.22 582.398,1379.77 588.993,1379.23 
  594.771,1378.78 601.27,1378.25 608.582,1377.53 613.422,1377.07 618.867,1376.56 624.993,1376.04 631.884,1375.46 636.452,1375.09 641.592,1374.67 646.248,1374.29 
  651.11,1373.83 656.203,1373.29 661.933,1372.65 668.378,1371.98 672.765,1371.5 677.7,1370.96 682.537,1370.38 687.868,1369.67 693.866,1368.81 700.614,1367.75 
  708.205,1366.39 716.745,1364.78 725.833,1363 736.058,1360.96 745.044,1359.05 754.784,1356.94 762.906,1355.12 771.091,1352.97 780.299,1350.67 788.83,1348.6 
  794.78,1347.27 800.427,1345.95 805.532,1344.6 811.055,1342.96 816.901,1341.01 823.477,1338.6 830.875,1336 837.118,1333.77 843.166,1331.48 849.282,1328.79 
  856.164,1325.86 863.143,1322.55 870.173,1318.67 878.082,1313.77 886.98,1307.54 895.013,1301.96 904.051,1295.17 914.219,1285.98 921.576,1278.8 929.853,1271.02 
  939.164,1262.14 949.639,1251.92 959.18,1242.42 968.603,1233.09 976.648,1225.36 983.166,1217.98 990.499,1208.73 998.399,1196.8 1007.29,1182.16 1015.32,1167.89 
  1023.76,1151.98 1031.97,1134.58 1039.33,1115.71 1044.15,1101.5 1048.33,1089.35 1052.66,1076.76 1056.86,1064.4 1061.18,1051.62 1065.43,1038.59 1069.81,1024.26 
  1073.87,1011.35 1078.11,998.614 1082.61,985.045 1087.29,970.528 1091.91,954.931 1096.58,939.268 1101.04,924.909 1105.78,909.903 1110.54,896.11 1115.4,882.016 
  1120.21,869.583 1124.92,858.905 1129.18,849.294 1133.37,840.743 1137.42,832.162 1141.26,823.912 1145.13,815.978 1148.84,806.268 1152.8,795.802 1156.78,784.193 
  1160.85,772.148 1164.91,759.902 1168.99,745.727 1173.06,731.759 1177.08,718.154 1181.08,706.152 1185.07,693.848 1189.04,683.316 1192.91,672.312 1196.75,659.906 
  1200.61,646.032 1204.39,632.387 1208.05,617.884 1211.65,603.775 1215.08,591.458 1218.63,579.473 1222.11,566.815 1225.54,553.408 1228.9,538.621 1232.09,523.485 
  1235.08,508.054 1237.91,493.471 1240.62,480.013 1243.31,467.166 1245.98,454.526 1248.59,443.015 1251.2,430.473 1253.73,417.888 1256.18,405.253 1258.54,392.881 
  1260.86,381.512 1263.14,370.891 1265.46,360.753 1267.76,351.81 1270.14,342.484 1272.5,333.716 1274.87,324.225 1277.24,315.055 1279.56,306.435 1281.94,298.266 
  1284.3,290.449 1286.69,282.404 1289.06,273.959 1291.4,264.925 1293.68,256.131 1295.93,248.114 1298.19,241.126 1300.47,234.63 1302.78,226.966 1305.05,220.914 
  1307.34,215.163 1309.66,209.524 1311.98,204.678 1314.33,199.008 1316.66,193.595 1318.99,188.401 1321.31,184.174 1323.66,180.074 1326,177.634 1328.41,175.667 
  1330.85,174.358 1333.32,172.146 1335.8,169.871 1338.25,167.315 1340.69,165.442 1343.16,163.547 1345.61,162.305 1348.09,161.17 1350.55,160.256 1353.02,162.377 
  1355.58,164.931 1358.16,168.035 1360.77,171.39 1363.41,175.212 1366.07,178.98 1368.75,182.578 1371.45,186.43 1374.17,190.468 1376.91,194.822 1379.67,198.36 
  1382.44,202.607 1385.22,207.539 1388.03,213.081 1390.87,218.488 1393.72,224.364 1396.6,231.572 1399.5,238.48 1402.42,246.513 1405.36,255.029 1408.32,265.262 
  1411.26,275.949 1414.09,286.023 1416.99,297.18 1419.81,308.234 1422.62,318.773 1425.48,329.327 1428.36,339.291 1431.32,349.644 1434.3,359.976 1437.35,369.499 
  1440.5,378.791 1443.73,388.177 1447,397.752 1450.34,406.914 1453.7,416.39 1457.13,426.721 1460.62,437.222 1464.15,447.719 1467.75,458.041 1471.35,469.389 
  1475.06,480.712 1478.79,491.992 1482.57,503.758 1486.4,515.258 1490.26,527.117 1494.18,540.05 1498.2,554.191 1502.27,568.629 1506.37,582.736 1510.59,596.437 
  1514.9,609.824 1519.26,621.971 1523.51,633.713 1527.68,645.25 1531.87,656.583 1535.94,667.466 1539.94,678.567 1544.07,690.562 1548.41,702.299 1552.64,713.728 
  1556.73,724.437 1560.79,734.497 1564.71,744.281 1568.55,753.93 1572.51,763.918 1576.31,774.096 1580.42,786.077 1584.88,799.645 1589.81,814.085 1594.9,828.969 
  1600.28,845.194 1605.88,861.1 1611.7,875.328 1617.09,887.998 1622.14,899.849 1627.12,912.234 1632.72,925.404 1637.93,936.982 1643.22,948.196 1647.93,958.078 
  1652.79,967.937 1657.52,977.718 1662.59,987.962 1667.31,997.227 1672.02,1006.97 1677.14,1017.15 1682.51,1027.17 1687.52,1036.63 1692.71,1046.54 1698.49,1057.18 
  1704.47,1067.94 1710.46,1077.99 1716.05,1087.04 1721.74,1095.87 1726.81,1103.71 1732.01,1111.8 1737.73,1120.45 1743.49,1129.14 1749.69,1138.27 1756.02,1146.97 
  1761.96,1155.17 1768.3,1164.05 1775.43,1173.86 1783.46,1184.61 1792.49,1196.72 1801,1207.85 1807.34,1215.56 1814.47,1223.82 1822.49,1232.87 1828.86,1239.82 
  1835.23,1246.46 1841.06,1252.21 1847.23,1258.12 1853.1,1263.58 1858.47,1268.34 1864.2,1273.17 1869.25,1277.17 1874.93,1281.61 1880.55,1285.86 1885.79,1289.71 
  1890.84,1293.21 1896.33,1296.97 1901.47,1300.5 1905.58,1303.24 1909.55,1305.88 1913.07,1308.16 1916.28,1310.17 1919.42,1312.01 1922.68,1313.83 1926.23,1315.72 
  1930.15,1317.71 1934.57,1319.92 1938.68,1321.95 1942.98,1324.02 1946.9,1325.88 1950.96,1327.74 1954.86,1329.49 1958.62,1331.12 1962.33,1332.66 1966.23,1334.25 
  1969.99,1335.76 1973.68,1337.19 1977.3,1338.53 1981.04,1339.89 1984.89,1341.25 1988.64,1342.53 1992.5,1343.82 1996.37,1345.03 2000.68,1346.36 2004.88,1347.59 
  2009.6,1348.9 2014.78,1350.26 2020.6,1351.73 2027.16,1353.27 2034.53,1354.9 2042.83,1356.61 2049.69,1357.9 2056.05,1359.04 2062.7,1360.17 2069.06,1361.22 
  2075.71,1362.26 2082.86,1363.29 2088.71,1364.09 2094.07,1364.8 2099.57,1365.56 2105.72,1366.39 2112.63,1367.28 2119.75,1368.16 2127.25,1369.05 2135.45,1370.01 
  2144.68,1371.05 2155.07,1372.16 2164.82,1373.15 2174.25,1374.06 2183.77,1374.94 2191.99,1375.63 2200.87,1376.34 2210.87,1377.04 2221.24,1377.71 2232.92,1378.44 
  2244.15,1379.11 2253.37,1379.64 2259.64,1379.99 2265.56,1380.31 2271.22,1380.61 2275.2,1380.82 2278.73,1380.99 2282.26,1381.16 2285.99,1381.33 2289.8,1381.5 
  2293.63,1381.66 2297.88,1381.84 2302.04,1382 2306.63,1382.16 2311.8,1382.34 2317.61,1382.54 2323.33,1382.72 2329.78,1382.91 2337.03,1383.12 2344.58,1383.33 
  2352.76,1383.54 
  "/>
<path clip-path="url(#clip210)" d="
M1773.96 322.316 L2282.66 322.316 L2282.66 166.796 L1773.96 166.796  Z
  " fill="#ffffff" fill-rule="evenodd" fill-opacity="1"/>
<polyline clip-path="url(#clip210)" style="stroke:#000000; stroke-linecap:butt; stroke-linejoin:round; stroke-width:4; stroke-opacity:1; fill:none" points="
  1773.96,322.316 2282.66,322.316 2282.66,166.796 1773.96,166.796 1773.96,322.316 
  "/>
<polyline clip-path="url(#clip210)" style="stroke:#009af9; stroke-linecap:butt; stroke-linejoin:round; stroke-width:4; stroke-opacity:1; fill:none" points="
  1797.32,218.636 1937.51,218.636 
  "/>
<path clip-path="url(#clip210)" d="M1960.87 201.356 L1990.11 201.356 L1990.11 205.291 L1977.84 205.291 L1977.84 235.916 L1973.14 235.916 L1973.14 205.291 L1960.87 205.291 L1960.87 201.356 Z" fill="#000000" fill-rule="evenodd" fill-opacity="1" /><path clip-path="url(#clip210)" d="M2002.49 213.971 Q2001.77 213.555 2000.92 213.37 Q2000.08 213.161 1999.06 213.161 Q1995.45 213.161 1993.51 215.522 Q1991.59 217.86 1991.59 222.258 L1991.59 235.916 L1987.3 235.916 L1987.3 209.99 L1991.59 209.99 L1991.59 214.018 Q1992.93 211.657 1995.08 210.522 Q1997.24 209.365 2000.31 209.365 Q2000.75 209.365 2001.29 209.434 Q2001.82 209.481 2002.47 209.596 L2002.49 213.971 Z" fill="#000000" fill-rule="evenodd" fill-opacity="1" /><path clip-path="url(#clip210)" d="M2018.74 222.883 Q2013.58 222.883 2011.59 224.064 Q2009.6 225.244 2009.6 228.092 Q2009.6 230.36 2011.08 231.703 Q2012.58 233.022 2015.15 233.022 Q2018.69 233.022 2020.82 230.522 Q2022.98 227.999 2022.98 223.832 L2022.98 222.883 L2018.74 222.883 M2027.24 221.124 L2027.24 235.916 L2022.98 235.916 L2022.98 231.981 Q2021.52 234.342 2019.34 235.476 Q2017.17 236.587 2014.02 236.587 Q2010.04 236.587 2007.68 234.365 Q2005.34 232.119 2005.34 228.369 Q2005.34 223.994 2008.25 221.772 Q2011.19 219.55 2017 219.55 L2022.98 219.55 L2022.98 219.133 Q2022.98 216.194 2021.03 214.596 Q2019.11 212.976 2015.61 212.976 Q2013.39 212.976 2011.29 213.508 Q2009.18 214.041 2007.24 215.106 L2007.24 211.17 Q2009.57 210.268 2011.77 209.828 Q2013.97 209.365 2016.05 209.365 Q2021.68 209.365 2024.46 212.282 Q2027.24 215.198 2027.24 221.124 Z" fill="#000000" fill-rule="evenodd" fill-opacity="1" /><path clip-path="url(#clip210)" d="M2036.01 209.99 L2040.27 209.99 L2040.27 236.379 Q2040.27 241.332 2038.37 243.555 Q2036.49 245.777 2032.3 245.777 L2030.68 245.777 L2030.68 242.166 L2031.82 242.166 Q2034.25 242.166 2035.13 241.031 Q2036.01 239.92 2036.01 236.379 L2036.01 209.99 M2036.01 199.897 L2040.27 199.897 L2040.27 205.291 L2036.01 205.291 L2036.01 199.897 Z" fill="#000000" fill-rule="evenodd" fill-opacity="1" /><path clip-path="url(#clip210)" d="M2071.36 221.888 L2071.36 223.971 L2051.77 223.971 Q2052.05 228.369 2054.41 230.684 Q2056.8 232.976 2061.03 232.976 Q2063.48 232.976 2065.78 232.374 Q2068.09 231.772 2070.36 230.569 L2070.36 234.596 Q2068.07 235.568 2065.66 236.078 Q2063.25 236.587 2060.78 236.587 Q2054.57 236.587 2050.94 232.976 Q2047.33 229.365 2047.33 223.207 Q2047.33 216.842 2050.75 213.115 Q2054.2 209.365 2060.04 209.365 Q2065.27 209.365 2068.3 212.745 Q2071.36 216.101 2071.36 221.888 M2067.1 220.638 Q2067.05 217.143 2065.13 215.059 Q2063.23 212.976 2060.08 212.976 Q2056.52 212.976 2054.36 214.99 Q2052.23 217.004 2051.91 220.661 L2067.1 220.638 Z" fill="#000000" fill-rule="evenodd" fill-opacity="1" /><path clip-path="url(#clip210)" d="M2097 210.985 L2097 214.967 Q2095.2 213.971 2093.37 213.485 Q2091.56 212.976 2089.71 212.976 Q2085.57 212.976 2083.28 215.615 Q2080.98 218.231 2080.98 222.976 Q2080.98 227.721 2083.28 230.36 Q2085.57 232.976 2089.71 232.976 Q2091.56 232.976 2093.37 232.49 Q2095.2 231.981 2097 230.985 L2097 234.92 Q2095.22 235.754 2093.3 236.17 Q2091.4 236.587 2089.25 236.587 Q2083.39 236.587 2079.94 232.906 Q2076.49 229.226 2076.49 222.976 Q2076.49 216.633 2079.97 212.999 Q2083.46 209.365 2089.53 209.365 Q2091.49 209.365 2093.37 209.782 Q2095.24 210.175 2097 210.985 Z" fill="#000000" fill-rule="evenodd" fill-opacity="1" /><path clip-path="url(#clip210)" d="M2108.62 202.629 L2108.62 209.99 L2117.4 209.99 L2117.4 213.3 L2108.62 213.3 L2108.62 227.374 Q2108.62 230.545 2109.48 231.448 Q2110.36 232.351 2113.02 232.351 L2117.4 232.351 L2117.4 235.916 L2113.02 235.916 Q2108.09 235.916 2106.22 234.087 Q2104.34 232.235 2104.34 227.374 L2104.34 213.3 L2101.22 213.3 L2101.22 209.99 L2104.34 209.99 L2104.34 202.629 L2108.62 202.629 Z" fill="#000000" fill-rule="evenodd" fill-opacity="1" /><path clip-path="url(#clip210)" d="M2133.04 212.976 Q2129.62 212.976 2127.63 215.661 Q2125.64 218.323 2125.64 222.976 Q2125.64 227.629 2127.6 230.314 Q2129.6 232.976 2133.04 232.976 Q2136.45 232.976 2138.44 230.291 Q2140.43 227.606 2140.43 222.976 Q2140.43 218.37 2138.44 215.684 Q2136.45 212.976 2133.04 212.976 M2133.04 209.365 Q2138.6 209.365 2141.77 212.976 Q2144.94 216.587 2144.94 222.976 Q2144.94 229.342 2141.77 232.976 Q2138.6 236.587 2133.04 236.587 Q2127.47 236.587 2124.29 232.976 Q2121.15 229.342 2121.15 222.976 Q2121.15 216.587 2124.29 212.976 Q2127.47 209.365 2133.04 209.365 Z" fill="#000000" fill-rule="evenodd" fill-opacity="1" /><path clip-path="url(#clip210)" d="M2167.03 213.971 Q2166.31 213.555 2165.45 213.37 Q2164.62 213.161 2163.6 213.161 Q2159.99 213.161 2158.04 215.522 Q2156.12 217.86 2156.12 222.258 L2156.12 235.916 L2151.84 235.916 L2151.84 209.99 L2156.12 209.99 L2156.12 214.018 Q2157.47 211.657 2159.62 210.522 Q2161.77 209.365 2164.85 209.365 Q2165.29 209.365 2165.82 209.434 Q2166.35 209.481 2167 209.596 L2167.03 213.971 Z" fill="#000000" fill-rule="evenodd" fill-opacity="1" /><path clip-path="url(#clip210)" d="M2182.28 238.323 Q2180.48 242.953 2178.76 244.365 Q2177.05 245.777 2174.18 245.777 L2170.78 245.777 L2170.78 242.212 L2173.28 242.212 Q2175.04 242.212 2176.01 241.379 Q2176.98 240.545 2178.16 237.443 L2178.92 235.499 L2168.44 209.99 L2172.95 209.99 L2181.05 230.268 L2189.16 209.99 L2193.67 209.99 L2182.28 238.323 Z" fill="#000000" fill-rule="evenodd" fill-opacity="1" /><path clip-path="url(#clip210)" d="M2216.03 231.981 L2223.67 231.981 L2223.67 205.615 L2215.36 207.282 L2215.36 203.022 L2223.62 201.356 L2228.3 201.356 L2228.3 231.981 L2235.94 231.981 L2235.94 235.916 L2216.03 235.916 L2216.03 231.981 Z" fill="#000000" fill-rule="evenodd" fill-opacity="1" /><polyline clip-path="url(#clip210)" style="stroke:#e26f46; stroke-linecap:butt; stroke-linejoin:round; stroke-width:4; stroke-opacity:1; fill:none" points="
  1797.32,270.476 1937.51,270.476 
  "/>
<path clip-path="url(#clip210)" d="M1960.87 253.196 L1990.11 253.196 L1990.11 257.131 L1977.84 257.131 L1977.84 287.756 L1973.14 287.756 L1973.14 257.131 L1960.87 257.131 L1960.87 253.196 Z" fill="#000000" fill-rule="evenodd" fill-opacity="1" /><path clip-path="url(#clip210)" d="M2002.49 265.811 Q2001.77 265.395 2000.92 265.21 Q2000.08 265.001 1999.06 265.001 Q1995.45 265.001 1993.51 267.362 Q1991.59 269.7 1991.59 274.098 L1991.59 287.756 L1987.3 287.756 L1987.3 261.83 L1991.59 261.83 L1991.59 265.858 Q1992.93 263.497 1995.08 262.362 Q1997.24 261.205 2000.31 261.205 Q2000.75 261.205 2001.29 261.274 Q2001.82 261.321 2002.47 261.436 L2002.49 265.811 Z" fill="#000000" fill-rule="evenodd" fill-opacity="1" /><path clip-path="url(#clip210)" d="M2018.74 274.723 Q2013.58 274.723 2011.59 275.904 Q2009.6 277.084 2009.6 279.932 Q2009.6 282.2 2011.08 283.543 Q2012.58 284.862 2015.15 284.862 Q2018.69 284.862 2020.82 282.362 Q2022.98 279.839 2022.98 275.672 L2022.98 274.723 L2018.74 274.723 M2027.24 272.964 L2027.24 287.756 L2022.98 287.756 L2022.98 283.821 Q2021.52 286.182 2019.34 287.316 Q2017.17 288.427 2014.02 288.427 Q2010.04 288.427 2007.68 286.205 Q2005.34 283.959 2005.34 280.209 Q2005.34 275.834 2008.25 273.612 Q2011.19 271.39 2017 271.39 L2022.98 271.39 L2022.98 270.973 Q2022.98 268.034 2021.03 266.436 Q2019.11 264.816 2015.61 264.816 Q2013.39 264.816 2011.29 265.348 Q2009.18 265.881 2007.24 266.946 L2007.24 263.01 Q2009.57 262.108 2011.77 261.668 Q2013.97 261.205 2016.05 261.205 Q2021.68 261.205 2024.46 264.122 Q2027.24 267.038 2027.24 272.964 Z" fill="#000000" fill-rule="evenodd" fill-opacity="1" /><path clip-path="url(#clip210)" d="M2036.01 261.83 L2040.27 261.83 L2040.27 288.219 Q2040.27 293.172 2038.37 295.395 Q2036.49 297.617 2032.3 297.617 L2030.68 297.617 L2030.68 294.006 L2031.82 294.006 Q2034.25 294.006 2035.13 292.871 Q2036.01 291.76 2036.01 288.219 L2036.01 261.83 M2036.01 251.737 L2040.27 251.737 L2040.27 257.131 L2036.01 257.131 L2036.01 251.737 Z" fill="#000000" fill-rule="evenodd" fill-opacity="1" /><path clip-path="url(#clip210)" d="M2071.36 273.728 L2071.36 275.811 L2051.77 275.811 Q2052.05 280.209 2054.41 282.524 Q2056.8 284.816 2061.03 284.816 Q2063.48 284.816 2065.78 284.214 Q2068.09 283.612 2070.36 282.409 L2070.36 286.436 Q2068.07 287.408 2065.66 287.918 Q2063.25 288.427 2060.78 288.427 Q2054.57 288.427 2050.94 284.816 Q2047.33 281.205 2047.33 275.047 Q2047.33 268.682 2050.75 264.955 Q2054.2 261.205 2060.04 261.205 Q2065.27 261.205 2068.3 264.585 Q2071.36 267.941 2071.36 273.728 M2067.1 272.478 Q2067.05 268.983 2065.13 266.899 Q2063.23 264.816 2060.08 264.816 Q2056.52 264.816 2054.36 266.83 Q2052.23 268.844 2051.91 272.501 L2067.1 272.478 Z" fill="#000000" fill-rule="evenodd" fill-opacity="1" /><path clip-path="url(#clip210)" d="M2097 262.825 L2097 266.807 Q2095.2 265.811 2093.37 265.325 Q2091.56 264.816 2089.71 264.816 Q2085.57 264.816 2083.28 267.455 Q2080.98 270.071 2080.98 274.816 Q2080.98 279.561 2083.28 282.2 Q2085.57 284.816 2089.71 284.816 Q2091.56 284.816 2093.37 284.33 Q2095.2 283.821 2097 282.825 L2097 286.76 Q2095.22 287.594 2093.3 288.01 Q2091.4 288.427 2089.25 288.427 Q2083.39 288.427 2079.94 284.746 Q2076.49 281.066 2076.49 274.816 Q2076.49 268.473 2079.97 264.839 Q2083.46 261.205 2089.53 261.205 Q2091.49 261.205 2093.37 261.622 Q2095.24 262.015 2097 262.825 Z" fill="#000000" fill-rule="evenodd" fill-opacity="1" /><path clip-path="url(#clip210)" d="M2108.62 254.469 L2108.62 261.83 L2117.4 261.83 L2117.4 265.14 L2108.62 265.14 L2108.62 279.214 Q2108.62 282.385 2109.48 283.288 Q2110.36 284.191 2113.02 284.191 L2117.4 284.191 L2117.4 287.756 L2113.02 287.756 Q2108.09 287.756 2106.22 285.927 Q2104.34 284.075 2104.34 279.214 L2104.34 265.14 L2101.22 265.14 L2101.22 261.83 L2104.34 261.83 L2104.34 254.469 L2108.62 254.469 Z" fill="#000000" fill-rule="evenodd" fill-opacity="1" /><path clip-path="url(#clip210)" d="M2133.04 264.816 Q2129.62 264.816 2127.63 267.501 Q2125.64 270.163 2125.64 274.816 Q2125.64 279.469 2127.6 282.154 Q2129.6 284.816 2133.04 284.816 Q2136.45 284.816 2138.44 282.131 Q2140.43 279.446 2140.43 274.816 Q2140.43 270.21 2138.44 267.524 Q2136.45 264.816 2133.04 264.816 M2133.04 261.205 Q2138.6 261.205 2141.77 264.816 Q2144.94 268.427 2144.94 274.816 Q2144.94 281.182 2141.77 284.816 Q2138.6 288.427 2133.04 288.427 Q2127.47 288.427 2124.29 284.816 Q2121.15 281.182 2121.15 274.816 Q2121.15 268.427 2124.29 264.816 Q2127.47 261.205 2133.04 261.205 Z" fill="#000000" fill-rule="evenodd" fill-opacity="1" /><path clip-path="url(#clip210)" d="M2167.03 265.811 Q2166.31 265.395 2165.45 265.21 Q2164.62 265.001 2163.6 265.001 Q2159.99 265.001 2158.04 267.362 Q2156.12 269.7 2156.12 274.098 L2156.12 287.756 L2151.84 287.756 L2151.84 261.83 L2156.12 261.83 L2156.12 265.858 Q2157.47 263.497 2159.62 262.362 Q2161.77 261.205 2164.85 261.205 Q2165.29 261.205 2165.82 261.274 Q2166.35 261.321 2167 261.436 L2167.03 265.811 Z" fill="#000000" fill-rule="evenodd" fill-opacity="1" /><path clip-path="url(#clip210)" d="M2182.28 290.163 Q2180.48 294.793 2178.76 296.205 Q2177.05 297.617 2174.18 297.617 L2170.78 297.617 L2170.78 294.052 L2173.28 294.052 Q2175.04 294.052 2176.01 293.219 Q2176.98 292.385 2178.16 289.283 L2178.92 287.339 L2168.44 261.83 L2172.95 261.83 L2181.05 282.108 L2189.16 261.83 L2193.67 261.83 L2182.28 290.163 Z" fill="#000000" fill-rule="evenodd" fill-opacity="1" /><path clip-path="url(#clip210)" d="M2219.25 283.821 L2235.57 283.821 L2235.57 287.756 L2213.62 287.756 L2213.62 283.821 Q2216.29 281.066 2220.87 276.436 Q2225.47 271.784 2226.66 270.441 Q2228.9 267.918 2229.78 266.182 Q2230.68 264.423 2230.68 262.733 Q2230.68 259.978 2228.74 258.242 Q2226.82 256.506 2223.72 256.506 Q2221.52 256.506 2219.06 257.27 Q2216.63 258.034 2213.85 259.585 L2213.85 254.862 Q2216.68 253.728 2219.13 253.149 Q2221.59 252.571 2223.62 252.571 Q2228.99 252.571 2232.19 255.256 Q2235.38 257.941 2235.38 262.432 Q2235.38 264.561 2234.57 266.483 Q2233.78 268.381 2231.68 270.973 Q2231.1 271.645 2228 274.862 Q2224.9 278.057 2219.25 283.821 Z" fill="#000000" fill-rule="evenodd" fill-opacity="1" /></svg>
