<?xml version="1.0" encoding="utf-8"?>
<svg xmlns="http://www.w3.org/2000/svg" xmlns:xlink="http://www.w3.org/1999/xlink" width="600" height="400" viewBox="0 0 2400 1600">
<defs>
  <clipPath id="clip060">
    <rect x="0" y="0" width="2400" height="1600"/>
  </clipPath>
</defs>
<path clip-path="url(#clip060)" d="
M0 1600 L2400 1600 L2400 0 L0 0  Z
  " fill="#ffffff" fill-rule="evenodd" fill-opacity="1"/>
<defs>
  <clipPath id="clip061">
    <rect x="480" y="0" width="1681" height="1600"/>
  </clipPath>
</defs>
<path clip-path="url(#clip060)" d="
M279.704 1423.18 L2352.76 1423.18 L2352.76 123.472 L279.704 123.472  Z
  " fill="#ffffff" fill-rule="evenodd" fill-opacity="1"/>
<defs>
  <clipPath id="clip062">
    <rect x="279" y="123" width="2074" height="1301"/>
  </clipPath>
</defs>
<polyline clip-path="url(#clip062)" style="stroke:#000000; stroke-linecap:butt; stroke-linejoin:round; stroke-width:2; stroke-opacity:0.1; fill:none" points="
  338.375,1423.18 338.375,123.472 
  "/>
<polyline clip-path="url(#clip062)" style="stroke:#000000; stroke-linecap:butt; stroke-linejoin:round; stroke-width:2; stroke-opacity:0.1; fill:none" points="
  693.959,1423.18 693.959,123.472 
  "/>
<polyline clip-path="url(#clip062)" style="stroke:#000000; stroke-linecap:butt; stroke-linejoin:round; stroke-width:2; stroke-opacity:0.1; fill:none" points="
  1049.54,1423.18 1049.54,123.472 
  "/>
<polyline clip-path="url(#clip062)" style="stroke:#000000; stroke-linecap:butt; stroke-linejoin:round; stroke-width:2; stroke-opacity:0.1; fill:none" points="
  1405.13,1423.18 1405.13,123.472 
  "/>
<polyline clip-path="url(#clip062)" style="stroke:#000000; stroke-linecap:butt; stroke-linejoin:round; stroke-width:2; stroke-opacity:0.1; fill:none" points="
  1760.71,1423.18 1760.71,123.472 
  "/>
<polyline clip-path="url(#clip062)" style="stroke:#000000; stroke-linecap:butt; stroke-linejoin:round; stroke-width:2; stroke-opacity:0.1; fill:none" points="
  2116.29,1423.18 2116.29,123.472 
  "/>
<polyline clip-path="url(#clip060)" style="stroke:#000000; stroke-linecap:butt; stroke-linejoin:round; stroke-width:4; stroke-opacity:1; fill:none" points="
  279.704,1423.18 2352.76,1423.18 
  "/>
<polyline clip-path="url(#clip060)" style="stroke:#000000; stroke-linecap:butt; stroke-linejoin:round; stroke-width:4; stroke-opacity:1; fill:none" points="
  338.375,1423.18 338.375,1404.28 
  "/>
<polyline clip-path="url(#clip060)" style="stroke:#000000; stroke-linecap:butt; stroke-linejoin:round; stroke-width:4; stroke-opacity:1; fill:none" points="
  693.959,1423.18 693.959,1404.28 
  "/>
<polyline clip-path="url(#clip060)" style="stroke:#000000; stroke-linecap:butt; stroke-linejoin:round; stroke-width:4; stroke-opacity:1; fill:none" points="
  1049.54,1423.18 1049.54,1404.28 
  "/>
<polyline clip-path="url(#clip060)" style="stroke:#000000; stroke-linecap:butt; stroke-linejoin:round; stroke-width:4; stroke-opacity:1; fill:none" points="
  1405.13,1423.18 1405.13,1404.28 
  "/>
<polyline clip-path="url(#clip060)" style="stroke:#000000; stroke-linecap:butt; stroke-linejoin:round; stroke-width:4; stroke-opacity:1; fill:none" points="
  1760.71,1423.18 1760.71,1404.28 
  "/>
<polyline clip-path="url(#clip060)" style="stroke:#000000; stroke-linecap:butt; stroke-linejoin:round; stroke-width:4; stroke-opacity:1; fill:none" points="
  2116.29,1423.18 2116.29,1404.28 
  "/>
<path clip-path="url(#clip060)" d="M338.375 1452.37 Q334.764 1452.37 332.935 1455.94 Q331.13 1459.48 331.13 1466.61 Q331.13 1473.71 332.935 1477.28 Q334.764 1480.82 338.375 1480.82 Q342.009 1480.82 343.815 1477.28 Q345.644 1473.71 345.644 1466.61 Q345.644 1459.48 343.815 1455.94 Q342.009 1452.37 338.375 1452.37 M338.375 1448.67 Q344.185 1448.67 347.241 1453.27 Q350.32 1457.86 350.32 1466.61 Q350.32 1475.33 347.241 1479.94 Q344.185 1484.52 338.375 1484.52 Q332.565 1484.52 329.486 1479.94 Q326.431 1475.33 326.431 1466.61 Q326.431 1457.86 329.486 1453.27 Q332.565 1448.67 338.375 1448.67 Z" fill="#000000" fill-rule="evenodd" fill-opacity="1" /><path clip-path="url(#clip060)" d="M653.565 1479.92 L661.204 1479.92 L661.204 1453.55 L652.894 1455.22 L652.894 1450.96 L661.158 1449.29 L665.834 1449.29 L665.834 1479.92 L673.473 1479.92 L673.473 1483.85 L653.565 1483.85 L653.565 1479.92 Z" fill="#000000" fill-rule="evenodd" fill-opacity="1" /><path clip-path="url(#clip060)" d="M692.917 1452.37 Q689.306 1452.37 687.477 1455.94 Q685.672 1459.48 685.672 1466.61 Q685.672 1473.71 687.477 1477.28 Q689.306 1480.82 692.917 1480.82 Q696.551 1480.82 698.357 1477.28 Q700.186 1473.71 700.186 1466.61 Q700.186 1459.48 698.357 1455.94 Q696.551 1452.37 692.917 1452.37 M692.917 1448.67 Q698.727 1448.67 701.783 1453.27 Q704.861 1457.86 704.861 1466.61 Q704.861 1475.33 701.783 1479.94 Q698.727 1484.52 692.917 1484.52 Q687.107 1484.52 684.028 1479.94 Q680.973 1475.33 680.973 1466.61 Q680.973 1457.86 684.028 1453.27 Q687.107 1448.67 692.917 1448.67 Z" fill="#000000" fill-rule="evenodd" fill-opacity="1" /><path clip-path="url(#clip060)" d="M723.079 1452.37 Q719.468 1452.37 717.639 1455.94 Q715.834 1459.48 715.834 1466.61 Q715.834 1473.71 717.639 1477.28 Q719.468 1480.82 723.079 1480.82 Q726.713 1480.82 728.519 1477.28 Q730.347 1473.71 730.347 1466.61 Q730.347 1459.48 728.519 1455.94 Q726.713 1452.37 723.079 1452.37 M723.079 1448.67 Q728.889 1448.67 731.945 1453.27 Q735.023 1457.86 735.023 1466.61 Q735.023 1475.33 731.945 1479.94 Q728.889 1484.52 723.079 1484.52 Q717.269 1484.52 714.19 1479.94 Q711.135 1475.33 711.135 1466.61 Q711.135 1457.86 714.19 1453.27 Q717.269 1448.67 723.079 1448.67 Z" fill="#000000" fill-rule="evenodd" fill-opacity="1" /><path clip-path="url(#clip060)" d="M1013.23 1479.92 L1029.55 1479.92 L1029.55 1483.85 L1007.61 1483.85 L1007.61 1479.92 Q1010.27 1477.16 1014.85 1472.53 Q1019.46 1467.88 1020.64 1466.54 Q1022.89 1464.01 1023.77 1462.28 Q1024.67 1460.52 1024.67 1458.83 Q1024.67 1456.07 1022.73 1454.34 Q1020.8 1452.6 1017.7 1452.6 Q1015.5 1452.6 1013.05 1453.37 Q1010.62 1454.13 1007.84 1455.68 L1007.84 1450.96 Q1010.67 1449.82 1013.12 1449.25 Q1015.57 1448.67 1017.61 1448.67 Q1022.98 1448.67 1026.17 1451.35 Q1029.37 1454.04 1029.37 1458.53 Q1029.37 1460.66 1028.56 1462.58 Q1027.77 1464.48 1025.67 1467.07 Q1025.09 1467.74 1021.98 1470.96 Q1018.88 1474.15 1013.23 1479.92 Z" fill="#000000" fill-rule="evenodd" fill-opacity="1" /><path clip-path="url(#clip060)" d="M1049.37 1452.37 Q1045.76 1452.37 1043.93 1455.94 Q1042.12 1459.48 1042.12 1466.61 Q1042.12 1473.71 1043.93 1477.28 Q1045.76 1480.82 1049.37 1480.82 Q1053 1480.82 1054.81 1477.28 Q1056.64 1473.71 1056.64 1466.61 Q1056.64 1459.48 1054.81 1455.94 Q1053 1452.37 1049.37 1452.37 M1049.37 1448.67 Q1055.18 1448.67 1058.23 1453.27 Q1061.31 1457.86 1061.31 1466.61 Q1061.31 1475.33 1058.23 1479.94 Q1055.18 1484.52 1049.37 1484.52 Q1043.56 1484.52 1040.48 1479.94 Q1037.42 1475.33 1037.42 1466.61 Q1037.42 1457.86 1040.48 1453.27 Q1043.56 1448.67 1049.37 1448.67 Z" fill="#000000" fill-rule="evenodd" fill-opacity="1" /><path clip-path="url(#clip060)" d="M1079.53 1452.37 Q1075.92 1452.37 1074.09 1455.94 Q1072.29 1459.48 1072.29 1466.61 Q1072.29 1473.71 1074.09 1477.28 Q1075.92 1480.82 1079.53 1480.82 Q1083.16 1480.82 1084.97 1477.28 Q1086.8 1473.71 1086.8 1466.61 Q1086.8 1459.48 1084.97 1455.94 Q1083.16 1452.37 1079.53 1452.37 M1079.53 1448.67 Q1085.34 1448.67 1088.4 1453.27 Q1091.47 1457.86 1091.47 1466.61 Q1091.47 1475.33 1088.4 1479.94 Q1085.34 1484.52 1079.53 1484.52 Q1073.72 1484.52 1070.64 1479.94 Q1067.59 1475.33 1067.59 1466.61 Q1067.59 1457.86 1070.64 1453.27 Q1073.72 1448.67 1079.53 1448.67 Z" fill="#000000" fill-rule="evenodd" fill-opacity="1" /><path clip-path="url(#clip060)" d="M1378.89 1465.22 Q1382.24 1465.94 1384.12 1468.2 Q1386.02 1470.47 1386.02 1473.81 Q1386.02 1478.92 1382.5 1481.72 Q1378.98 1484.52 1372.5 1484.52 Q1370.32 1484.52 1368.01 1484.08 Q1365.72 1483.67 1363.26 1482.81 L1363.26 1478.3 Q1365.21 1479.43 1367.52 1480.01 Q1369.84 1480.59 1372.36 1480.59 Q1376.76 1480.59 1379.05 1478.85 Q1381.36 1477.12 1381.36 1473.81 Q1381.36 1470.75 1379.21 1469.04 Q1377.08 1467.3 1373.26 1467.3 L1369.23 1467.3 L1369.23 1463.46 L1373.45 1463.46 Q1376.9 1463.46 1378.73 1462.09 Q1380.55 1460.7 1380.55 1458.11 Q1380.55 1455.45 1378.66 1454.04 Q1376.78 1452.6 1373.26 1452.6 Q1371.34 1452.6 1369.14 1453.02 Q1366.94 1453.44 1364.3 1454.31 L1364.3 1450.15 Q1366.97 1449.41 1369.28 1449.04 Q1371.62 1448.67 1373.68 1448.67 Q1379 1448.67 1382.11 1451.1 Q1385.21 1453.5 1385.21 1457.63 Q1385.21 1460.5 1383.56 1462.49 Q1381.92 1464.45 1378.89 1465.22 Z" fill="#000000" fill-rule="evenodd" fill-opacity="1" /><path clip-path="url(#clip060)" d="M1404.88 1452.37 Q1401.27 1452.37 1399.44 1455.94 Q1397.64 1459.48 1397.64 1466.61 Q1397.64 1473.71 1399.44 1477.28 Q1401.27 1480.82 1404.88 1480.82 Q1408.52 1480.82 1410.32 1477.28 Q1412.15 1473.71 1412.15 1466.61 Q1412.15 1459.48 1410.32 1455.94 Q1408.52 1452.37 1404.88 1452.37 M1404.88 1448.67 Q1410.69 1448.67 1413.75 1453.27 Q1416.83 1457.86 1416.83 1466.61 Q1416.83 1475.33 1413.75 1479.94 Q1410.69 1484.52 1404.88 1484.52 Q1399.07 1484.52 1395.99 1479.94 Q1392.94 1475.33 1392.94 1466.61 Q1392.94 1457.86 1395.99 1453.27 Q1399.07 1448.67 1404.88 1448.67 Z" fill="#000000" fill-rule="evenodd" fill-opacity="1" /><path clip-path="url(#clip060)" d="M1435.04 1452.37 Q1431.43 1452.37 1429.6 1455.94 Q1427.8 1459.48 1427.8 1466.61 Q1427.8 1473.71 1429.6 1477.28 Q1431.43 1480.82 1435.04 1480.82 Q1438.68 1480.82 1440.48 1477.28 Q1442.31 1473.71 1442.31 1466.61 Q1442.31 1459.48 1440.48 1455.94 Q1438.68 1452.37 1435.04 1452.37 M1435.04 1448.67 Q1440.85 1448.67 1443.91 1453.27 Q1446.99 1457.86 1446.99 1466.61 Q1446.99 1475.33 1443.91 1479.94 Q1440.85 1484.52 1435.04 1484.52 Q1429.23 1484.52 1426.16 1479.94 Q1423.1 1475.33 1423.1 1466.61 Q1423.1 1457.86 1426.16 1453.27 Q1429.23 1448.67 1435.04 1448.67 Z" fill="#000000" fill-rule="evenodd" fill-opacity="1" /><path clip-path="url(#clip060)" d="M1733.8 1453.37 L1721.99 1471.81 L1733.8 1471.81 L1733.8 1453.37 M1732.57 1449.29 L1738.45 1449.29 L1738.45 1471.81 L1743.38 1471.81 L1743.38 1475.7 L1738.45 1475.7 L1738.45 1483.85 L1733.8 1483.85 L1733.8 1475.7 L1718.2 1475.7 L1718.2 1471.19 L1732.57 1449.29 Z" fill="#000000" fill-rule="evenodd" fill-opacity="1" /><path clip-path="url(#clip060)" d="M1761.11 1452.37 Q1757.5 1452.37 1755.67 1455.94 Q1753.87 1459.48 1753.87 1466.61 Q1753.87 1473.71 1755.67 1477.28 Q1757.5 1480.82 1761.11 1480.82 Q1764.75 1480.82 1766.55 1477.28 Q1768.38 1473.71 1768.38 1466.61 Q1768.38 1459.48 1766.55 1455.94 Q1764.75 1452.37 1761.11 1452.37 M1761.11 1448.67 Q1766.92 1448.67 1769.98 1453.27 Q1773.06 1457.86 1773.06 1466.61 Q1773.06 1475.33 1769.98 1479.94 Q1766.92 1484.52 1761.11 1484.52 Q1755.3 1484.52 1752.23 1479.94 Q1749.17 1475.33 1749.17 1466.61 Q1749.17 1457.86 1752.23 1453.27 Q1755.3 1448.67 1761.11 1448.67 Z" fill="#000000" fill-rule="evenodd" fill-opacity="1" /><path clip-path="url(#clip060)" d="M1791.28 1452.37 Q1787.67 1452.37 1785.84 1455.94 Q1784.03 1459.48 1784.03 1466.61 Q1784.03 1473.71 1785.84 1477.28 Q1787.67 1480.82 1791.28 1480.82 Q1794.91 1480.82 1796.72 1477.28 Q1798.54 1473.71 1798.54 1466.61 Q1798.54 1459.48 1796.72 1455.94 Q1794.91 1452.37 1791.28 1452.37 M1791.28 1448.67 Q1797.09 1448.67 1800.14 1453.27 Q1803.22 1457.86 1803.22 1466.61 Q1803.22 1475.33 1800.14 1479.94 Q1797.09 1484.52 1791.28 1484.52 Q1785.47 1484.52 1782.39 1479.94 Q1779.33 1475.33 1779.33 1466.61 Q1779.33 1457.86 1782.39 1453.27 Q1785.47 1448.67 1791.28 1448.67 Z" fill="#000000" fill-rule="evenodd" fill-opacity="1" /><path clip-path="url(#clip060)" d="M2075.91 1449.29 L2094.27 1449.29 L2094.27 1453.23 L2080.19 1453.23 L2080.19 1461.7 Q2081.21 1461.35 2082.23 1461.19 Q2083.25 1461 2084.27 1461 Q2090.05 1461 2093.43 1464.18 Q2096.81 1467.35 2096.81 1472.76 Q2096.81 1478.34 2093.34 1481.44 Q2089.87 1484.52 2083.55 1484.52 Q2081.37 1484.52 2079.11 1484.15 Q2076.86 1483.78 2074.45 1483.04 L2074.45 1478.34 Q2076.54 1479.48 2078.76 1480.03 Q2080.98 1480.59 2083.46 1480.59 Q2087.46 1480.59 2089.8 1478.48 Q2092.14 1476.38 2092.14 1472.76 Q2092.14 1469.15 2089.8 1467.05 Q2087.46 1464.94 2083.46 1464.94 Q2081.58 1464.94 2079.71 1465.36 Q2077.86 1465.77 2075.91 1466.65 L2075.91 1449.29 Z" fill="#000000" fill-rule="evenodd" fill-opacity="1" /><path clip-path="url(#clip060)" d="M2116.03 1452.37 Q2112.42 1452.37 2110.59 1455.94 Q2108.78 1459.48 2108.78 1466.61 Q2108.78 1473.71 2110.59 1477.28 Q2112.42 1480.82 2116.03 1480.82 Q2119.66 1480.82 2121.47 1477.28 Q2123.3 1473.71 2123.3 1466.61 Q2123.3 1459.48 2121.47 1455.94 Q2119.66 1452.37 2116.03 1452.37 M2116.03 1448.67 Q2121.84 1448.67 2124.89 1453.27 Q2127.97 1457.86 2127.97 1466.61 Q2127.97 1475.33 2124.89 1479.94 Q2121.84 1484.52 2116.03 1484.52 Q2110.22 1484.52 2107.14 1479.94 Q2104.08 1475.33 2104.08 1466.61 Q2104.08 1457.86 2107.14 1453.27 Q2110.22 1448.67 2116.03 1448.67 Z" fill="#000000" fill-rule="evenodd" fill-opacity="1" /><path clip-path="url(#clip060)" d="M2146.19 1452.37 Q2142.58 1452.37 2140.75 1455.94 Q2138.94 1459.48 2138.94 1466.61 Q2138.94 1473.71 2140.75 1477.28 Q2142.58 1480.82 2146.19 1480.82 Q2149.82 1480.82 2151.63 1477.28 Q2153.46 1473.71 2153.46 1466.61 Q2153.46 1459.48 2151.63 1455.94 Q2149.82 1452.37 2146.19 1452.37 M2146.19 1448.67 Q2152 1448.67 2155.05 1453.27 Q2158.13 1457.86 2158.13 1466.61 Q2158.13 1475.33 2155.05 1479.94 Q2152 1484.52 2146.19 1484.52 Q2140.38 1484.52 2137.3 1479.94 Q2134.24 1475.33 2134.24 1466.61 Q2134.24 1457.86 2137.3 1453.27 Q2140.38 1448.67 2146.19 1448.67 Z" fill="#000000" fill-rule="evenodd" fill-opacity="1" /><path clip-path="url(#clip060)" d="M1315.29 1522.27 L1315.29 1532.4 L1327.35 1532.4 L1327.35 1536.95 L1315.29 1536.95 L1315.29 1556.3 Q1315.29 1560.66 1316.47 1561.9 Q1317.68 1563.14 1321.34 1563.14 L1327.35 1563.14 L1327.35 1568.04 L1321.34 1568.04 Q1314.56 1568.04 1311.98 1565.53 Q1309.4 1562.98 1309.4 1556.3 L1309.4 1536.95 L1305.11 1536.95 L1305.11 1532.4 L1309.4 1532.4 L1309.4 1522.27 L1315.29 1522.27 Z" fill="#000000" fill-rule="evenodd" fill-opacity="1" /><polyline clip-path="url(#clip062)" style="stroke:#000000; stroke-linecap:butt; stroke-linejoin:round; stroke-width:2; stroke-opacity:0.1; fill:none" points="
  279.704,1387.12 2352.76,1387.12 
  "/>
<polyline clip-path="url(#clip062)" style="stroke:#000000; stroke-linecap:butt; stroke-linejoin:round; stroke-width:2; stroke-opacity:0.1; fill:none" points="
  279.704,1091.04 2352.76,1091.04 
  "/>
<polyline clip-path="url(#clip062)" style="stroke:#000000; stroke-linecap:butt; stroke-linejoin:round; stroke-width:2; stroke-opacity:0.1; fill:none" points="
  279.704,794.947 2352.76,794.947 
  "/>
<polyline clip-path="url(#clip062)" style="stroke:#000000; stroke-linecap:butt; stroke-linejoin:round; stroke-width:2; stroke-opacity:0.1; fill:none" points="
  279.704,498.858 2352.76,498.858 
  "/>
<polyline clip-path="url(#clip062)" style="stroke:#000000; stroke-linecap:butt; stroke-linejoin:round; stroke-width:2; stroke-opacity:0.1; fill:none" points="
  279.704,202.77 2352.76,202.77 
  "/>
<polyline clip-path="url(#clip060)" style="stroke:#000000; stroke-linecap:butt; stroke-linejoin:round; stroke-width:4; stroke-opacity:1; fill:none" points="
  279.704,1423.18 279.704,123.472 
  "/>
<polyline clip-path="url(#clip060)" style="stroke:#000000; stroke-linecap:butt; stroke-linejoin:round; stroke-width:4; stroke-opacity:1; fill:none" points="
  279.704,1387.12 298.602,1387.12 
  "/>
<polyline clip-path="url(#clip060)" style="stroke:#000000; stroke-linecap:butt; stroke-linejoin:round; stroke-width:4; stroke-opacity:1; fill:none" points="
  279.704,1091.04 298.602,1091.04 
  "/>
<polyline clip-path="url(#clip060)" style="stroke:#000000; stroke-linecap:butt; stroke-linejoin:round; stroke-width:4; stroke-opacity:1; fill:none" points="
  279.704,794.947 298.602,794.947 
  "/>
<polyline clip-path="url(#clip060)" style="stroke:#000000; stroke-linecap:butt; stroke-linejoin:round; stroke-width:4; stroke-opacity:1; fill:none" points="
  279.704,498.858 298.602,498.858 
  "/>
<polyline clip-path="url(#clip060)" style="stroke:#000000; stroke-linecap:butt; stroke-linejoin:round; stroke-width:4; stroke-opacity:1; fill:none" points="
  279.704,202.77 298.602,202.77 
  "/>
<path clip-path="url(#clip060)" d="M126.205 1372.92 Q122.593 1372.92 120.765 1376.49 Q118.959 1380.03 118.959 1387.16 Q118.959 1394.27 120.765 1397.83 Q122.593 1401.37 126.205 1401.37 Q129.839 1401.37 131.644 1397.83 Q133.473 1394.27 133.473 1387.16 Q133.473 1380.03 131.644 1376.49 Q129.839 1372.92 126.205 1372.92 M126.205 1369.22 Q132.015 1369.22 135.07 1373.83 Q138.149 1378.41 138.149 1387.16 Q138.149 1395.89 135.07 1400.49 Q132.015 1405.08 126.205 1405.08 Q120.394 1405.08 117.316 1400.49 Q114.26 1395.89 114.26 1387.16 Q114.26 1378.41 117.316 1373.83 Q120.394 1369.22 126.205 1369.22 Z" fill="#000000" fill-rule="evenodd" fill-opacity="1" /><path clip-path="url(#clip060)" d="M146.366 1398.52 L151.251 1398.52 L151.251 1404.4 L146.366 1404.4 L146.366 1398.52 Z" fill="#000000" fill-rule="evenodd" fill-opacity="1" /><path clip-path="url(#clip060)" d="M171.436 1372.92 Q167.825 1372.92 165.996 1376.49 Q164.19 1380.03 164.19 1387.16 Q164.19 1394.27 165.996 1397.83 Q167.825 1401.37 171.436 1401.37 Q175.07 1401.37 176.876 1397.83 Q178.704 1394.27 178.704 1387.16 Q178.704 1380.03 176.876 1376.49 Q175.07 1372.92 171.436 1372.92 M171.436 1369.22 Q177.246 1369.22 180.301 1373.83 Q183.38 1378.41 183.38 1387.16 Q183.38 1395.89 180.301 1400.49 Q177.246 1405.08 171.436 1405.08 Q165.626 1405.08 162.547 1400.49 Q159.491 1395.89 159.491 1387.16 Q159.491 1378.41 162.547 1373.83 Q165.626 1369.22 171.436 1369.22 Z" fill="#000000" fill-rule="evenodd" fill-opacity="1" /><path clip-path="url(#clip060)" d="M201.598 1372.92 Q197.987 1372.92 196.158 1376.49 Q194.352 1380.03 194.352 1387.16 Q194.352 1394.27 196.158 1397.83 Q197.987 1401.37 201.598 1401.37 Q205.232 1401.37 207.037 1397.83 Q208.866 1394.27 208.866 1387.16 Q208.866 1380.03 207.037 1376.49 Q205.232 1372.92 201.598 1372.92 M201.598 1369.22 Q207.408 1369.22 210.463 1373.83 Q213.542 1378.41 213.542 1387.16 Q213.542 1395.89 210.463 1400.49 Q207.408 1405.08 201.598 1405.08 Q195.787 1405.08 192.709 1400.49 Q189.653 1395.89 189.653 1387.16 Q189.653 1378.41 192.709 1373.83 Q195.787 1369.22 201.598 1369.22 Z" fill="#000000" fill-rule="evenodd" fill-opacity="1" /><path clip-path="url(#clip060)" d="M231.76 1372.92 Q228.148 1372.92 226.32 1376.49 Q224.514 1380.03 224.514 1387.16 Q224.514 1394.27 226.32 1397.83 Q228.148 1401.37 231.76 1401.37 Q235.394 1401.37 237.199 1397.83 Q239.028 1394.27 239.028 1387.16 Q239.028 1380.03 237.199 1376.49 Q235.394 1372.92 231.76 1372.92 M231.76 1369.22 Q237.57 1369.22 240.625 1373.83 Q243.704 1378.41 243.704 1387.16 Q243.704 1395.89 240.625 1400.49 Q237.57 1405.08 231.76 1405.08 Q225.949 1405.08 222.871 1400.49 Q219.815 1395.89 219.815 1387.16 Q219.815 1378.41 222.871 1373.83 Q225.949 1369.22 231.76 1369.22 Z" fill="#000000" fill-rule="evenodd" fill-opacity="1" /><path clip-path="url(#clip060)" d="M127.2 1076.83 Q123.589 1076.83 121.76 1080.4 Q119.955 1083.94 119.955 1091.07 Q119.955 1098.18 121.76 1101.74 Q123.589 1105.28 127.2 1105.28 Q130.834 1105.28 132.64 1101.74 Q134.468 1098.18 134.468 1091.07 Q134.468 1083.94 132.64 1080.4 Q130.834 1076.83 127.2 1076.83 M127.2 1073.13 Q133.01 1073.13 136.066 1077.74 Q139.144 1082.32 139.144 1091.07 Q139.144 1099.8 136.066 1104.4 Q133.01 1108.99 127.2 1108.99 Q121.39 1108.99 118.311 1104.4 Q115.256 1099.8 115.256 1091.07 Q115.256 1082.32 118.311 1077.74 Q121.39 1073.13 127.2 1073.13 Z" fill="#000000" fill-rule="evenodd" fill-opacity="1" /><path clip-path="url(#clip060)" d="M147.362 1102.44 L152.246 1102.44 L152.246 1108.32 L147.362 1108.32 L147.362 1102.44 Z" fill="#000000" fill-rule="evenodd" fill-opacity="1" /><path clip-path="url(#clip060)" d="M172.431 1076.83 Q168.82 1076.83 166.991 1080.4 Q165.186 1083.94 165.186 1091.07 Q165.186 1098.18 166.991 1101.74 Q168.82 1105.28 172.431 1105.28 Q176.065 1105.28 177.871 1101.74 Q179.7 1098.18 179.7 1091.07 Q179.7 1083.94 177.871 1080.4 Q176.065 1076.83 172.431 1076.83 M172.431 1073.13 Q178.241 1073.13 181.297 1077.74 Q184.376 1082.32 184.376 1091.07 Q184.376 1099.8 181.297 1104.4 Q178.241 1108.99 172.431 1108.99 Q166.621 1108.99 163.542 1104.4 Q160.487 1099.8 160.487 1091.07 Q160.487 1082.32 163.542 1077.74 Q166.621 1073.13 172.431 1073.13 Z" fill="#000000" fill-rule="evenodd" fill-opacity="1" /><path clip-path="url(#clip060)" d="M196.621 1104.38 L212.94 1104.38 L212.94 1108.32 L190.996 1108.32 L190.996 1104.38 Q193.658 1101.63 198.241 1097 Q202.848 1092.34 204.028 1091 Q206.274 1088.48 207.153 1086.74 Q208.056 1084.98 208.056 1083.29 Q208.056 1080.54 206.112 1078.8 Q204.19 1077.07 201.088 1077.07 Q198.889 1077.07 196.436 1077.83 Q194.005 1078.59 191.227 1080.14 L191.227 1075.42 Q194.051 1074.29 196.505 1073.71 Q198.959 1073.13 200.996 1073.13 Q206.366 1073.13 209.561 1075.82 Q212.755 1078.5 212.755 1082.99 Q212.755 1085.12 211.945 1087.04 Q211.158 1088.94 209.051 1091.53 Q208.473 1092.2 205.371 1095.42 Q202.269 1098.62 196.621 1104.38 Z" fill="#000000" fill-rule="evenodd" fill-opacity="1" /><path clip-path="url(#clip060)" d="M222.801 1073.76 L241.158 1073.76 L241.158 1077.69 L227.084 1077.69 L227.084 1086.16 Q228.102 1085.82 229.121 1085.65 Q230.139 1085.47 231.158 1085.47 Q236.945 1085.47 240.324 1088.64 Q243.704 1091.81 243.704 1097.23 Q243.704 1102.81 240.232 1105.91 Q236.76 1108.99 230.44 1108.99 Q228.264 1108.99 225.996 1108.62 Q223.75 1108.25 221.343 1107.51 L221.343 1102.81 Q223.426 1103.94 225.648 1104.5 Q227.871 1105.05 230.347 1105.05 Q234.352 1105.05 236.69 1102.95 Q239.028 1100.84 239.028 1097.23 Q239.028 1093.62 236.69 1091.51 Q234.352 1089.4 230.347 1089.4 Q228.473 1089.4 226.598 1089.82 Q224.746 1090.24 222.801 1091.12 L222.801 1073.76 Z" fill="#000000" fill-rule="evenodd" fill-opacity="1" /><path clip-path="url(#clip060)" d="M126.205 780.746 Q122.593 780.746 120.765 784.31 Q118.959 787.852 118.959 794.982 Q118.959 802.088 120.765 805.653 Q122.593 809.195 126.205 809.195 Q129.839 809.195 131.644 805.653 Q133.473 802.088 133.473 794.982 Q133.473 787.852 131.644 784.31 Q129.839 780.746 126.205 780.746 M126.205 777.042 Q132.015 777.042 135.07 781.648 Q138.149 786.232 138.149 794.982 Q138.149 803.708 135.07 808.315 Q132.015 812.898 126.205 812.898 Q120.394 812.898 117.316 808.315 Q114.26 803.708 114.26 794.982 Q114.26 786.232 117.316 781.648 Q120.394 777.042 126.205 777.042 Z" fill="#000000" fill-rule="evenodd" fill-opacity="1" /><path clip-path="url(#clip060)" d="M146.366 806.347 L151.251 806.347 L151.251 812.227 L146.366 812.227 L146.366 806.347 Z" fill="#000000" fill-rule="evenodd" fill-opacity="1" /><path clip-path="url(#clip060)" d="M171.436 780.746 Q167.825 780.746 165.996 784.31 Q164.19 787.852 164.19 794.982 Q164.19 802.088 165.996 805.653 Q167.825 809.195 171.436 809.195 Q175.07 809.195 176.876 805.653 Q178.704 802.088 178.704 794.982 Q178.704 787.852 176.876 784.31 Q175.07 780.746 171.436 780.746 M171.436 777.042 Q177.246 777.042 180.301 781.648 Q183.38 786.232 183.38 794.982 Q183.38 803.708 180.301 808.315 Q177.246 812.898 171.436 812.898 Q165.626 812.898 162.547 808.315 Q159.491 803.708 159.491 794.982 Q159.491 786.232 162.547 781.648 Q165.626 777.042 171.436 777.042 Z" fill="#000000" fill-rule="evenodd" fill-opacity="1" /><path clip-path="url(#clip060)" d="M191.644 777.667 L210 777.667 L210 781.602 L195.926 781.602 L195.926 790.074 Q196.945 789.727 197.963 789.565 Q198.982 789.38 200 789.38 Q205.787 789.38 209.167 792.551 Q212.547 795.722 212.547 801.139 Q212.547 806.718 209.074 809.82 Q205.602 812.898 199.283 812.898 Q197.107 812.898 194.838 812.528 Q192.593 812.158 190.186 811.417 L190.186 806.718 Q192.269 807.852 194.491 808.408 Q196.713 808.963 199.19 808.963 Q203.195 808.963 205.533 806.857 Q207.871 804.75 207.871 801.139 Q207.871 797.528 205.533 795.421 Q203.195 793.315 199.19 793.315 Q197.315 793.315 195.44 793.732 Q193.588 794.148 191.644 795.028 L191.644 777.667 Z" fill="#000000" fill-rule="evenodd" fill-opacity="1" /><path clip-path="url(#clip060)" d="M231.76 780.746 Q228.148 780.746 226.32 784.31 Q224.514 787.852 224.514 794.982 Q224.514 802.088 226.32 805.653 Q228.148 809.195 231.76 809.195 Q235.394 809.195 237.199 805.653 Q239.028 802.088 239.028 794.982 Q239.028 787.852 237.199 784.31 Q235.394 780.746 231.76 780.746 M231.76 777.042 Q237.57 777.042 240.625 781.648 Q243.704 786.232 243.704 794.982 Q243.704 803.708 240.625 808.315 Q237.57 812.898 231.76 812.898 Q225.949 812.898 222.871 808.315 Q219.815 803.708 219.815 794.982 Q219.815 786.232 222.871 781.648 Q225.949 777.042 231.76 777.042 Z" fill="#000000" fill-rule="evenodd" fill-opacity="1" /><path clip-path="url(#clip060)" d="M127.2 484.657 Q123.589 484.657 121.76 488.222 Q119.955 491.763 119.955 498.893 Q119.955 505.999 121.76 509.564 Q123.589 513.106 127.2 513.106 Q130.834 513.106 132.64 509.564 Q134.468 505.999 134.468 498.893 Q134.468 491.763 132.64 488.222 Q130.834 484.657 127.2 484.657 M127.2 480.953 Q133.01 480.953 136.066 485.56 Q139.144 490.143 139.144 498.893 Q139.144 507.62 136.066 512.226 Q133.01 516.81 127.2 516.81 Q121.39 516.81 118.311 512.226 Q115.256 507.62 115.256 498.893 Q115.256 490.143 118.311 485.56 Q121.39 480.953 127.2 480.953 Z" fill="#000000" fill-rule="evenodd" fill-opacity="1" /><path clip-path="url(#clip060)" d="M147.362 510.259 L152.246 510.259 L152.246 516.138 L147.362 516.138 L147.362 510.259 Z" fill="#000000" fill-rule="evenodd" fill-opacity="1" /><path clip-path="url(#clip060)" d="M172.431 484.657 Q168.82 484.657 166.991 488.222 Q165.186 491.763 165.186 498.893 Q165.186 505.999 166.991 509.564 Q168.82 513.106 172.431 513.106 Q176.065 513.106 177.871 509.564 Q179.7 505.999 179.7 498.893 Q179.7 491.763 177.871 488.222 Q176.065 484.657 172.431 484.657 M172.431 480.953 Q178.241 480.953 181.297 485.56 Q184.376 490.143 184.376 498.893 Q184.376 507.62 181.297 512.226 Q178.241 516.81 172.431 516.81 Q166.621 516.81 163.542 512.226 Q160.487 507.62 160.487 498.893 Q160.487 490.143 163.542 485.56 Q166.621 480.953 172.431 480.953 Z" fill="#000000" fill-rule="evenodd" fill-opacity="1" /><path clip-path="url(#clip060)" d="M191.413 481.578 L213.635 481.578 L213.635 483.569 L201.088 516.138 L196.204 516.138 L208.01 485.513 L191.413 485.513 L191.413 481.578 Z" fill="#000000" fill-rule="evenodd" fill-opacity="1" /><path clip-path="url(#clip060)" d="M222.801 481.578 L241.158 481.578 L241.158 485.513 L227.084 485.513 L227.084 493.986 Q228.102 493.638 229.121 493.476 Q230.139 493.291 231.158 493.291 Q236.945 493.291 240.324 496.462 Q243.704 499.634 243.704 505.05 Q243.704 510.629 240.232 513.731 Q236.76 516.81 230.44 516.81 Q228.264 516.81 225.996 516.439 Q223.75 516.069 221.343 515.328 L221.343 510.629 Q223.426 511.763 225.648 512.319 Q227.871 512.874 230.347 512.874 Q234.352 512.874 236.69 510.768 Q239.028 508.661 239.028 505.05 Q239.028 501.439 236.69 499.333 Q234.352 497.226 230.347 497.226 Q228.473 497.226 226.598 497.643 Q224.746 498.06 222.801 498.939 L222.801 481.578 Z" fill="#000000" fill-rule="evenodd" fill-opacity="1" /><path clip-path="url(#clip060)" d="M126.205 188.568 Q122.593 188.568 120.765 192.133 Q118.959 195.675 118.959 202.804 Q118.959 209.911 120.765 213.476 Q122.593 217.017 126.205 217.017 Q129.839 217.017 131.644 213.476 Q133.473 209.911 133.473 202.804 Q133.473 195.675 131.644 192.133 Q129.839 188.568 126.205 188.568 M126.205 184.865 Q132.015 184.865 135.07 189.471 Q138.149 194.054 138.149 202.804 Q138.149 211.531 135.07 216.138 Q132.015 220.721 126.205 220.721 Q120.394 220.721 117.316 216.138 Q114.26 211.531 114.26 202.804 Q114.26 194.054 117.316 189.471 Q120.394 184.865 126.205 184.865 Z" fill="#000000" fill-rule="evenodd" fill-opacity="1" /><path clip-path="url(#clip060)" d="M146.366 214.17 L151.251 214.17 L151.251 220.05 L146.366 220.05 L146.366 214.17 Z" fill="#000000" fill-rule="evenodd" fill-opacity="1" /><path clip-path="url(#clip060)" d="M162.246 216.114 L169.885 216.114 L169.885 189.749 L161.575 191.416 L161.575 187.156 L169.839 185.49 L174.514 185.49 L174.514 216.114 L182.153 216.114 L182.153 220.05 L162.246 220.05 L162.246 216.114 Z" fill="#000000" fill-rule="evenodd" fill-opacity="1" /><path clip-path="url(#clip060)" d="M201.598 188.568 Q197.987 188.568 196.158 192.133 Q194.352 195.675 194.352 202.804 Q194.352 209.911 196.158 213.476 Q197.987 217.017 201.598 217.017 Q205.232 217.017 207.037 213.476 Q208.866 209.911 208.866 202.804 Q208.866 195.675 207.037 192.133 Q205.232 188.568 201.598 188.568 M201.598 184.865 Q207.408 184.865 210.463 189.471 Q213.542 194.054 213.542 202.804 Q213.542 211.531 210.463 216.138 Q207.408 220.721 201.598 220.721 Q195.787 220.721 192.709 216.138 Q189.653 211.531 189.653 202.804 Q189.653 194.054 192.709 189.471 Q195.787 184.865 201.598 184.865 Z" fill="#000000" fill-rule="evenodd" fill-opacity="1" /><path clip-path="url(#clip060)" d="M231.76 188.568 Q228.148 188.568 226.32 192.133 Q224.514 195.675 224.514 202.804 Q224.514 209.911 226.32 213.476 Q228.148 217.017 231.76 217.017 Q235.394 217.017 237.199 213.476 Q239.028 209.911 239.028 202.804 Q239.028 195.675 237.199 192.133 Q235.394 188.568 231.76 188.568 M231.76 184.865 Q237.57 184.865 240.625 189.471 Q243.704 194.054 243.704 202.804 Q243.704 211.531 240.625 216.138 Q237.57 220.721 231.76 220.721 Q225.949 220.721 222.871 216.138 Q219.815 211.531 219.815 202.804 Q219.815 194.054 222.871 189.471 Q225.949 184.865 231.76 184.865 Z" fill="#000000" fill-rule="evenodd" fill-opacity="1" /><path clip-path="url(#clip060)" d="M28.3562 814.719 L28.3562 808.863 L64.0042 808.863 L64.0042 814.719 L28.3562 814.719 M14.479 814.719 L14.479 808.863 L21.895 808.863 L21.895 814.719 L14.479 814.719 Z" fill="#000000" fill-rule="evenodd" fill-opacity="1" /><path clip-path="url(#clip060)" d="M14.5426 782.54 Q21.8632 786.805 29.0246 788.874 Q36.186 790.943 43.5384 790.943 Q50.8908 790.943 58.1159 788.874 Q65.3091 786.774 72.5979 782.54 L72.5979 787.633 Q65.1182 792.407 57.8931 794.794 Q50.668 797.15 43.5384 797.15 Q36.4406 797.15 29.2474 794.794 Q22.0542 792.439 14.5426 787.633 L14.5426 782.54 Z" fill="#000000" fill-rule="evenodd" fill-opacity="1" /><path clip-path="url(#clip060)" d="M18.2347 765.385 L28.3562 765.385 L28.3562 753.322 L32.9077 753.322 L32.9077 765.385 L52.2594 765.385 Q56.6199 765.385 57.8613 764.207 Q59.1026 762.998 59.1026 759.337 L59.1026 753.322 L64.0042 753.322 L64.0042 759.337 Q64.0042 766.117 61.4897 768.695 Q58.9434 771.273 52.2594 771.273 L32.9077 771.273 L32.9077 775.57 L28.3562 775.57 L28.3562 771.273 L18.2347 771.273 L18.2347 765.385 Z" fill="#000000" fill-rule="evenodd" fill-opacity="1" /><path clip-path="url(#clip060)" d="M14.5426 746.542 L14.5426 741.45 Q22.0542 736.675 29.2474 734.32 Q36.4406 731.933 43.5384 731.933 Q50.668 731.933 57.8931 734.32 Q65.1182 736.675 72.5979 741.45 L72.5979 746.542 Q65.3091 742.309 58.1159 740.24 Q50.8908 738.14 43.5384 738.14 Q36.186 738.14 29.0246 740.24 Q21.8632 742.309 14.5426 746.542 Z" fill="#000000" fill-rule="evenodd" fill-opacity="1" /><path clip-path="url(#clip060)" d="M666.222 17.6457 Q657.31 17.6457 652.044 24.2892 Q646.818 30.9327 646.818 42.3968 Q646.818 53.8203 652.044 60.4638 Q657.31 67.1073 666.222 67.1073 Q675.134 67.1073 680.319 60.4638 Q685.545 53.8203 685.545 42.3968 Q685.545 30.9327 680.319 24.2892 Q675.134 17.6457 666.222 17.6457 M677.686 71.4823 L688.461 83.2704 L678.577 83.2704 L669.625 73.5887 Q668.288 73.6697 667.559 73.7103 Q666.87 73.7508 666.222 73.7508 Q653.461 73.7508 645.805 65.2439 Q638.19 56.6965 638.19 42.3968 Q638.19 28.0566 645.805 19.5497 Q653.461 11.0023 666.222 11.0023 Q678.942 11.0023 686.557 19.5497 Q694.173 28.0566 694.173 42.3968 Q694.173 52.9291 689.92 60.4233 Q685.707 67.9175 677.686 71.4823 Z" fill="#000000" fill-rule="evenodd" fill-opacity="1" /><path clip-path="url(#clip060)" d="M705.88 54.671 L705.88 27.2059 L713.334 27.2059 L713.334 54.3874 Q713.334 60.8284 715.845 64.0691 Q718.357 67.2693 723.38 67.2693 Q729.416 67.2693 732.9 63.421 Q736.424 59.5726 736.424 52.9291 L736.424 27.2059 L743.878 27.2059 L743.878 72.576 L736.424 72.576 L736.424 65.6084 Q733.71 69.7404 730.105 71.7658 Q726.54 73.7508 721.8 73.7508 Q713.982 73.7508 709.931 68.8897 Q705.88 64.0286 705.88 54.671 M724.636 26.1121 L724.636 26.1121 Z" fill="#000000" fill-rule="evenodd" fill-opacity="1" /><path clip-path="url(#clip060)" d="M779.85 49.7694 Q770.816 49.7694 767.332 51.8354 Q763.849 53.9013 763.849 58.8839 Q763.849 62.8538 766.441 65.2034 Q769.074 67.5124 773.571 67.5124 Q779.769 67.5124 783.495 63.1374 Q787.263 58.7219 787.263 51.4303 L787.263 49.7694 L779.85 49.7694 M794.716 46.6907 L794.716 72.576 L787.263 72.576 L787.263 65.6895 Q784.711 69.8214 780.903 71.8063 Q777.095 73.7508 771.586 73.7508 Q764.618 73.7508 760.486 69.8619 Q756.395 65.9325 756.395 59.3701 Q756.395 51.7138 761.499 47.825 Q766.644 43.9361 776.812 43.9361 L787.263 43.9361 L787.263 43.2069 Q787.263 38.0623 783.86 35.2672 Q780.498 32.4315 774.381 32.4315 Q770.492 32.4315 766.806 33.3632 Q763.119 34.295 759.717 36.1584 L759.717 29.2718 Q763.808 27.692 767.656 26.9223 Q771.505 26.1121 775.151 26.1121 Q784.994 26.1121 789.855 31.2163 Q794.716 36.3204 794.716 46.6907 Z" fill="#000000" fill-rule="evenodd" fill-opacity="1" /><path clip-path="url(#clip060)" d="M847.783 45.1919 L847.783 72.576 L840.33 72.576 L840.33 45.4349 Q840.33 38.994 837.818 35.7938 Q835.307 32.5936 830.283 32.5936 Q824.248 32.5936 820.764 36.4419 Q817.28 40.2903 817.28 46.9338 L817.28 72.576 L809.786 72.576 L809.786 27.2059 L817.28 27.2059 L817.28 34.2544 Q819.954 30.163 823.559 28.1376 Q827.205 26.1121 831.944 26.1121 Q839.763 26.1121 843.773 30.9732 Q847.783 35.7938 847.783 45.1919 Z" fill="#000000" fill-rule="evenodd" fill-opacity="1" /><path clip-path="url(#clip060)" d="M870.023 14.324 L870.023 27.2059 L885.376 27.2059 L885.376 32.9987 L870.023 32.9987 L870.023 57.6282 Q870.023 63.1779 871.522 64.7578 Q873.061 66.3376 877.72 66.3376 L885.376 66.3376 L885.376 72.576 L877.72 72.576 Q869.091 72.576 865.81 69.3758 Q862.529 66.1351 862.529 57.6282 L862.529 32.9987 L857.06 32.9987 L857.06 27.2059 L862.529 27.2059 L862.529 14.324 L870.023 14.324 Z" fill="#000000" fill-rule="evenodd" fill-opacity="1" /><path clip-path="url(#clip060)" d="M895.179 27.2059 L902.633 27.2059 L902.633 72.576 L895.179 72.576 L895.179 27.2059 M895.179 9.54393 L902.633 9.54393 L902.633 18.9825 L895.179 18.9825 L895.179 9.54393 Z" fill="#000000" fill-rule="evenodd" fill-opacity="1" /><path clip-path="url(#clip060)" d="M918.229 9.54393 L925.682 9.54393 L925.682 72.576 L918.229 72.576 L918.229 9.54393 Z" fill="#000000" fill-rule="evenodd" fill-opacity="1" /><path clip-path="url(#clip060)" d="M980.086 48.0275 L980.086 51.6733 L945.815 51.6733 Q946.301 59.3701 950.433 63.421 Q954.606 67.4314 962.019 67.4314 Q966.313 67.4314 970.323 66.3781 Q974.374 65.3249 978.344 63.2184 L978.344 70.267 Q974.334 71.9684 970.121 72.8596 Q965.908 73.7508 961.573 73.7508 Q950.717 73.7508 944.357 67.4314 Q938.037 61.1119 938.037 50.3365 Q938.037 39.1965 944.033 32.6746 Q950.069 26.1121 960.277 26.1121 Q969.432 26.1121 974.739 32.0264 Q980.086 37.9003 980.086 48.0275 M972.632 45.84 Q972.551 39.7232 969.189 36.0774 Q965.867 32.4315 960.358 32.4315 Q954.12 32.4315 950.352 35.9558 Q946.625 39.4801 946.058 45.8805 L972.632 45.84 Z" fill="#000000" fill-rule="evenodd" fill-opacity="1" /><path clip-path="url(#clip060)" d="M1021.24 28.5427 L1021.24 35.5912 Q1018.08 33.9709 1014.68 33.1607 Q1011.28 32.3505 1007.63 32.3505 Q1002.08 32.3505 999.287 34.0519 Q996.533 35.7533 996.533 39.156 Q996.533 41.7486 998.517 43.2475 Q1000.5 44.7058 1006.5 46.0426 L1009.05 46.6097 Q1016.99 48.3111 1020.31 51.4303 Q1023.67 54.509 1023.67 60.0587 Q1023.67 66.3781 1018.65 70.0644 Q1013.67 73.7508 1004.92 73.7508 Q1001.27 73.7508 997.302 73.0216 Q993.373 72.3329 988.998 70.9151 L988.998 63.2184 Q993.13 65.3654 997.14 66.4591 Q1001.15 67.5124 1005.08 67.5124 Q1010.35 67.5124 1013.18 65.73 Q1016.02 63.9071 1016.02 60.6258 Q1016.02 57.5877 1013.95 55.9673 Q1011.93 54.3469 1005 52.8481 L1002.41 52.2405 Q995.479 50.7821 992.401 47.7845 Q989.322 44.7463 989.322 39.4801 Q989.322 33.0797 993.859 29.5959 Q998.396 26.1121 1006.74 26.1121 Q1010.87 26.1121 1014.52 26.7198 Q1018.16 27.3274 1021.24 28.5427 Z" fill="#000000" fill-rule="evenodd" fill-opacity="1" /><path clip-path="url(#clip060)" d="M1079.5 32.4315 Q1073.5 32.4315 1070.02 37.1306 Q1066.53 41.7891 1066.53 49.9314 Q1066.53 58.0738 1069.98 62.7728 Q1073.46 67.4314 1079.5 67.4314 Q1085.45 67.4314 1088.93 62.7323 Q1092.42 58.0333 1092.42 49.9314 Q1092.42 41.8701 1088.93 37.1711 Q1085.45 32.4315 1079.5 32.4315 M1079.5 26.1121 Q1089.22 26.1121 1094.77 32.4315 Q1100.32 38.7509 1100.32 49.9314 Q1100.32 61.0714 1094.77 67.4314 Q1089.22 73.7508 1079.5 73.7508 Q1069.73 73.7508 1064.18 67.4314 Q1058.67 61.0714 1058.67 49.9314 Q1058.67 38.7509 1064.18 32.4315 Q1069.73 26.1121 1079.5 26.1121 Z" fill="#000000" fill-rule="evenodd" fill-opacity="1" /><path clip-path="url(#clip060)" d="M1135.64 9.54393 L1135.64 15.7418 L1128.51 15.7418 Q1124.5 15.7418 1122.92 17.3622 Q1121.38 18.9825 1121.38 23.1955 L1121.38 27.2059 L1133.66 27.2059 L1133.66 32.9987 L1121.38 32.9987 L1121.38 72.576 L1113.89 72.576 L1113.89 32.9987 L1106.76 32.9987 L1106.76 27.2059 L1113.89 27.2059 L1113.89 24.0462 Q1113.89 16.471 1117.41 13.0277 Q1120.94 9.54393 1128.59 9.54393 L1135.64 9.54393 Z" fill="#000000" fill-rule="evenodd" fill-opacity="1" /><path clip-path="url(#clip060)" d="M1168.57 12.096 L1176.76 12.096 L1176.76 72.576 L1168.57 72.576 L1168.57 12.096 Z" fill="#000000" fill-rule="evenodd" fill-opacity="1" /><path clip-path="url(#clip060)" d="M1230.43 45.1919 L1230.43 72.576 L1222.98 72.576 L1222.98 45.4349 Q1222.98 38.994 1220.47 35.7938 Q1217.95 32.5936 1212.93 32.5936 Q1206.9 32.5936 1203.41 36.4419 Q1199.93 40.2903 1199.93 46.9338 L1199.93 72.576 L1192.43 72.576 L1192.43 27.2059 L1199.93 27.2059 L1199.93 34.2544 Q1202.6 30.163 1206.21 28.1376 Q1209.85 26.1121 1214.59 26.1121 Q1222.41 26.1121 1226.42 30.9732 Q1230.43 35.7938 1230.43 45.1919 Z" fill="#000000" fill-rule="evenodd" fill-opacity="1" /><path clip-path="url(#clip060)" d="M1268.27 9.54393 L1268.27 15.7418 L1261.14 15.7418 Q1257.13 15.7418 1255.55 17.3622 Q1254.01 18.9825 1254.01 23.1955 L1254.01 27.2059 L1266.28 27.2059 L1266.28 32.9987 L1254.01 32.9987 L1254.01 72.576 L1246.51 72.576 L1246.51 32.9987 L1239.38 32.9987 L1239.38 27.2059 L1246.51 27.2059 L1246.51 24.0462 Q1246.51 16.471 1250.04 13.0277 Q1253.56 9.54393 1261.22 9.54393 L1268.27 9.54393 Z" fill="#000000" fill-rule="evenodd" fill-opacity="1" /><path clip-path="url(#clip060)" d="M1313.31 48.0275 L1313.31 51.6733 L1279.04 51.6733 Q1279.53 59.3701 1283.66 63.421 Q1287.83 67.4314 1295.25 67.4314 Q1299.54 67.4314 1303.55 66.3781 Q1307.6 65.3249 1311.57 63.2184 L1311.57 70.267 Q1307.56 71.9684 1303.35 72.8596 Q1299.14 73.7508 1294.8 73.7508 Q1283.94 73.7508 1277.58 67.4314 Q1271.26 61.1119 1271.26 50.3365 Q1271.26 39.1965 1277.26 32.6746 Q1283.3 26.1121 1293.5 26.1121 Q1302.66 26.1121 1307.97 32.0264 Q1313.31 37.9003 1313.31 48.0275 M1305.86 45.84 Q1305.78 39.7232 1302.42 36.0774 Q1299.09 32.4315 1293.59 32.4315 Q1287.35 32.4315 1283.58 35.9558 Q1279.85 39.4801 1279.29 45.8805 L1305.86 45.84 Z" fill="#000000" fill-rule="evenodd" fill-opacity="1" /><path clip-path="url(#clip060)" d="M1358.2 28.9478 L1358.2 35.9153 Q1355.04 34.1734 1351.84 33.3227 Q1348.68 32.4315 1345.44 32.4315 Q1338.19 32.4315 1334.18 37.0496 Q1330.17 41.6271 1330.17 49.9314 Q1330.17 58.2358 1334.18 62.8538 Q1338.19 67.4314 1345.44 67.4314 Q1348.68 67.4314 1351.84 66.5807 Q1355.04 65.6895 1358.2 63.9476 L1358.2 70.8341 Q1355.08 72.2924 1351.72 73.0216 Q1348.39 73.7508 1344.63 73.7508 Q1334.38 73.7508 1328.34 67.3098 Q1322.31 60.8689 1322.31 49.9314 Q1322.31 38.832 1328.38 32.472 Q1334.5 26.1121 1345.11 26.1121 Q1348.56 26.1121 1351.84 26.8413 Q1355.12 27.5299 1358.2 28.9478 Z" fill="#000000" fill-rule="evenodd" fill-opacity="1" /><path clip-path="url(#clip060)" d="M1378.53 14.324 L1378.53 27.2059 L1393.89 27.2059 L1393.89 32.9987 L1378.53 32.9987 L1378.53 57.6282 Q1378.53 63.1779 1380.03 64.7578 Q1381.57 66.3376 1386.23 66.3376 L1393.89 66.3376 L1393.89 72.576 L1386.23 72.576 Q1377.6 72.576 1374.32 69.3758 Q1371.04 66.1351 1371.04 57.6282 L1371.04 32.9987 L1365.57 32.9987 L1365.57 27.2059 L1371.04 27.2059 L1371.04 14.324 L1378.53 14.324 Z" fill="#000000" fill-rule="evenodd" fill-opacity="1" /><path clip-path="url(#clip060)" d="M1403.69 27.2059 L1411.14 27.2059 L1411.14 72.576 L1403.69 72.576 L1403.69 27.2059 M1403.69 9.54393 L1411.14 9.54393 L1411.14 18.9825 L1403.69 18.9825 L1403.69 9.54393 Z" fill="#000000" fill-rule="evenodd" fill-opacity="1" /><path clip-path="url(#clip060)" d="M1444.32 32.4315 Q1438.32 32.4315 1434.84 37.1306 Q1431.36 41.7891 1431.36 49.9314 Q1431.36 58.0738 1434.8 62.7728 Q1438.28 67.4314 1444.32 67.4314 Q1450.27 67.4314 1453.76 62.7323 Q1457.24 58.0333 1457.24 49.9314 Q1457.24 41.8701 1453.76 37.1711 Q1450.27 32.4315 1444.32 32.4315 M1444.32 26.1121 Q1454.04 26.1121 1459.59 32.4315 Q1465.14 38.7509 1465.14 49.9314 Q1465.14 61.0714 1459.59 67.4314 Q1454.04 73.7508 1444.32 73.7508 Q1434.56 73.7508 1429.01 67.4314 Q1423.5 61.0714 1423.5 49.9314 Q1423.5 38.7509 1429.01 32.4315 Q1434.56 26.1121 1444.32 26.1121 Z" fill="#000000" fill-rule="evenodd" fill-opacity="1" /><path clip-path="url(#clip060)" d="M1515.21 45.1919 L1515.21 72.576 L1507.76 72.576 L1507.76 45.4349 Q1507.76 38.994 1505.25 35.7938 Q1502.73 32.5936 1497.71 32.5936 Q1491.67 32.5936 1488.19 36.4419 Q1484.71 40.2903 1484.71 46.9338 L1484.71 72.576 L1477.21 72.576 L1477.21 27.2059 L1484.71 27.2059 L1484.71 34.2544 Q1487.38 30.163 1490.99 28.1376 Q1494.63 26.1121 1499.37 26.1121 Q1507.19 26.1121 1511.2 30.9732 Q1515.21 35.7938 1515.21 45.1919 Z" fill="#000000" fill-rule="evenodd" fill-opacity="1" /><path clip-path="url(#clip060)" d="M1559 28.5427 L1559 35.5912 Q1555.84 33.9709 1552.44 33.1607 Q1549.04 32.3505 1545.39 32.3505 Q1539.84 32.3505 1537.04 34.0519 Q1534.29 35.7533 1534.29 39.156 Q1534.29 41.7486 1536.28 43.2475 Q1538.26 44.7058 1544.26 46.0426 L1546.81 46.6097 Q1554.75 48.3111 1558.07 51.4303 Q1561.43 54.509 1561.43 60.0587 Q1561.43 66.3781 1556.41 70.0644 Q1551.43 73.7508 1542.68 73.7508 Q1539.03 73.7508 1535.06 73.0216 Q1531.13 72.3329 1526.76 70.9151 L1526.76 63.2184 Q1530.89 65.3654 1534.9 66.4591 Q1538.91 67.5124 1542.84 67.5124 Q1548.1 67.5124 1550.94 65.73 Q1553.77 63.9071 1553.77 60.6258 Q1553.77 57.5877 1551.71 55.9673 Q1549.68 54.3469 1542.76 52.8481 L1540.16 52.2405 Q1533.24 50.7821 1530.16 47.7845 Q1527.08 44.7463 1527.08 39.4801 Q1527.08 33.0797 1531.62 29.5959 Q1536.15 26.1121 1544.5 26.1121 Q1548.63 26.1121 1552.28 26.7198 Q1555.92 27.3274 1559 28.5427 Z" fill="#000000" fill-rule="evenodd" fill-opacity="1" /><path clip-path="url(#clip060)" d="M1600 12.096 L1638.24 12.096 L1638.24 18.9825 L1608.18 18.9825 L1608.18 36.8875 L1636.98 36.8875 L1636.98 43.7741 L1608.18 43.7741 L1608.18 65.6895 L1638.97 65.6895 L1638.97 72.576 L1600 72.576 L1600 12.096 Z" fill="#000000" fill-rule="evenodd" fill-opacity="1" /><path clip-path="url(#clip060)" d="M1689.8 45.1919 L1689.8 72.576 L1682.35 72.576 L1682.35 45.4349 Q1682.35 38.994 1679.84 35.7938 Q1677.33 32.5936 1672.3 32.5936 Q1666.27 32.5936 1662.78 36.4419 Q1659.3 40.2903 1659.3 46.9338 L1659.3 72.576 L1651.81 72.576 L1651.81 27.2059 L1659.3 27.2059 L1659.3 34.2544 Q1661.97 30.163 1665.58 28.1376 Q1669.23 26.1121 1673.97 26.1121 Q1681.78 26.1121 1685.79 30.9732 Q1689.8 35.7938 1689.8 45.1919 Z" fill="#000000" fill-rule="evenodd" fill-opacity="1" /><path clip-path="url(#clip060)" d="M1733.59 28.5427 L1733.59 35.5912 Q1730.43 33.9709 1727.03 33.1607 Q1723.63 32.3505 1719.98 32.3505 Q1714.43 32.3505 1711.64 34.0519 Q1708.88 35.7533 1708.88 39.156 Q1708.88 41.7486 1710.87 43.2475 Q1712.85 44.7058 1718.85 46.0426 L1721.4 46.6097 Q1729.34 48.3111 1732.66 51.4303 Q1736.03 54.509 1736.03 60.0587 Q1736.03 66.3781 1731 70.0644 Q1726.02 73.7508 1717.27 73.7508 Q1713.62 73.7508 1709.65 73.0216 Q1705.72 72.3329 1701.35 70.9151 L1701.35 63.2184 Q1705.48 65.3654 1709.49 66.4591 Q1713.5 67.5124 1717.43 67.5124 Q1722.7 67.5124 1725.53 65.73 Q1728.37 63.9071 1728.37 60.6258 Q1728.37 57.5877 1726.3 55.9673 Q1724.28 54.3469 1717.35 52.8481 L1714.76 52.2405 Q1707.83 50.7821 1704.75 47.7845 Q1701.67 44.7463 1701.67 39.4801 Q1701.67 33.0797 1706.21 29.5959 Q1710.75 26.1121 1719.09 26.1121 Q1723.22 26.1121 1726.87 26.7198 Q1730.52 27.3274 1733.59 28.5427 Z" fill="#000000" fill-rule="evenodd" fill-opacity="1" /><path clip-path="url(#clip060)" d="M1786.7 48.0275 L1786.7 51.6733 L1752.43 51.6733 Q1752.92 59.3701 1757.05 63.421 Q1761.22 67.4314 1768.63 67.4314 Q1772.93 67.4314 1776.94 66.3781 Q1780.99 65.3249 1784.96 63.2184 L1784.96 70.267 Q1780.95 71.9684 1776.74 72.8596 Q1772.52 73.7508 1768.19 73.7508 Q1757.33 73.7508 1750.97 67.4314 Q1744.65 61.1119 1744.65 50.3365 Q1744.65 39.1965 1750.65 32.6746 Q1756.68 26.1121 1766.89 26.1121 Q1776.05 26.1121 1781.35 32.0264 Q1786.7 37.9003 1786.7 48.0275 M1779.25 45.84 Q1779.17 39.7232 1775.8 36.0774 Q1772.48 32.4315 1766.97 32.4315 Q1760.74 32.4315 1756.97 35.9558 Q1753.24 39.4801 1752.67 45.8805 L1779.25 45.84 Z" fill="#000000" fill-rule="evenodd" fill-opacity="1" /><path clip-path="url(#clip060)" d="M1834.26 35.9153 Q1837.05 30.8922 1840.94 28.5022 Q1844.83 26.1121 1850.1 26.1121 Q1857.19 26.1121 1861.04 31.0947 Q1864.88 36.0368 1864.88 45.1919 L1864.88 72.576 L1857.39 72.576 L1857.39 45.4349 Q1857.39 38.913 1855.08 35.7533 Q1852.77 32.5936 1848.03 32.5936 Q1842.24 32.5936 1838.88 36.4419 Q1835.52 40.2903 1835.52 46.9338 L1835.52 72.576 L1828.02 72.576 L1828.02 45.4349 Q1828.02 38.8725 1825.71 35.7533 Q1823.4 32.5936 1818.58 32.5936 Q1812.87 32.5936 1809.51 36.4824 Q1806.15 40.3308 1806.15 46.9338 L1806.15 72.576 L1798.65 72.576 L1798.65 27.2059 L1806.15 27.2059 L1806.15 34.2544 Q1808.7 30.082 1812.26 28.0971 Q1815.83 26.1121 1820.73 26.1121 Q1825.67 26.1121 1829.11 28.6237 Q1832.6 31.1352 1834.26 35.9153 Z" fill="#000000" fill-rule="evenodd" fill-opacity="1" /><path clip-path="url(#clip060)" d="M1912.32 49.9314 Q1912.32 41.7081 1908.92 37.0496 Q1905.56 32.3505 1899.64 32.3505 Q1893.73 32.3505 1890.32 37.0496 Q1886.96 41.7081 1886.96 49.9314 Q1886.96 58.1548 1890.32 62.8538 Q1893.73 67.5124 1899.64 67.5124 Q1905.56 67.5124 1908.92 62.8538 Q1912.32 58.1548 1912.32 49.9314 M1886.96 34.0924 Q1889.31 30.0415 1892.88 28.0971 Q1896.48 26.1121 1901.46 26.1121 Q1909.73 26.1121 1914.87 32.6746 Q1920.06 39.2371 1920.06 49.9314 Q1920.06 60.6258 1914.87 67.1883 Q1909.73 73.7508 1901.46 73.7508 Q1896.48 73.7508 1892.88 71.8063 Q1889.31 69.8214 1886.96 65.7705 L1886.96 72.576 L1879.47 72.576 L1879.47 9.54393 L1886.96 9.54393 L1886.96 34.0924 Z" fill="#000000" fill-rule="evenodd" fill-opacity="1" /><path clip-path="url(#clip060)" d="M1932.41 9.54393 L1939.87 9.54393 L1939.87 72.576 L1932.41 72.576 L1932.41 9.54393 Z" fill="#000000" fill-rule="evenodd" fill-opacity="1" /><path clip-path="url(#clip060)" d="M1994.27 48.0275 L1994.27 51.6733 L1960 51.6733 Q1960.49 59.3701 1964.62 63.421 Q1968.79 67.4314 1976.2 67.4314 Q1980.5 67.4314 1984.51 66.3781 Q1988.56 65.3249 1992.53 63.2184 L1992.53 70.267 Q1988.52 71.9684 1984.31 72.8596 Q1980.09 73.7508 1975.76 73.7508 Q1964.9 73.7508 1958.54 67.4314 Q1952.22 61.1119 1952.22 50.3365 Q1952.22 39.1965 1958.22 32.6746 Q1964.25 26.1121 1974.46 26.1121 Q1983.62 26.1121 1988.92 32.0264 Q1994.27 37.9003 1994.27 48.0275 M1986.82 45.84 Q1986.74 39.7232 1983.37 36.0774 Q1980.05 32.4315 1974.54 32.4315 Q1968.3 32.4315 1964.54 35.9558 Q1960.81 39.4801 1960.24 45.8805 L1986.82 45.84 Z" fill="#000000" fill-rule="evenodd" fill-opacity="1" /><path clip-path="url(#clip062)" d="
M338.375 1386.23 L338.428 1386.23 L338.44 1386.23 L338.455 1386.23 L338.47 1386.23 L338.488 1386.23 L338.509 1386.23 L338.531 1386.23 L338.557 1386.23 L338.586 1386.23 
  L338.618 1386.23 L338.654 1386.23 L338.695 1386.23 L338.741 1386.23 L338.793 1386.23 L338.851 1386.23 L338.917 1386.23 L338.991 1386.23 L339.074 1386.23 L339.167 1386.23 
  L339.272 1386.23 L339.39 1386.23 L339.523 1386.24 L339.672 1386.24 L339.841 1386.24 L340.03 1386.24 L340.239 1386.24 L340.466 1386.24 L340.712 1386.24 L340.973 1386.24 
  L341.247 1386.25 L341.536 1386.25 L341.836 1386.25 L342.148 1386.25 L342.469 1386.25 L342.799 1386.26 L343.138 1386.26 L343.485 1386.26 L343.84 1386.26 L344.2 1386.26 
  L344.566 1386.27 L344.939 1386.27 L345.318 1386.27 L345.704 1386.27 L346.094 1386.28 L346.487 1386.28 L346.888 1386.28 L347.294 1386.28 L347.707 1386.28 L348.124 1386.29 
  L348.544 1386.29 L348.969 1386.29 L349.396 1386.29 L349.824 1386.3 L350.252 1386.3 L350.682 1386.3 L351.111 1386.3 L351.543 1386.3 L351.978 1386.31 L352.413 1386.31 
  L352.852 1386.31 L353.294 1386.31 L353.74 1386.31 L354.19 1386.32 L354.642 1386.32 L355.095 1386.32 L355.552 1386.32 L356.011 1386.32 L356.474 1386.33 L356.939 1386.33 
  L357.403 1386.33 L357.867 1386.33 L358.335 1386.33 L358.804 1386.33 L359.276 1386.34 L359.746 1386.34 L360.219 1386.34 L360.694 1386.34 L361.173 1386.34 L361.658 1386.34 
  L362.148 1386.35 L362.643 1386.35 L363.146 1386.35 L363.661 1386.35 L364.182 1386.35 L364.707 1386.35 L365.25 1386.36 L365.805 1386.36 L366.366 1386.36 L366.933 1386.36 
  L367.504 1386.36 L368.083 1386.36 L368.665 1386.36 L369.255 1386.37 L369.85 1386.37 L370.451 1386.37 L371.051 1386.37 L371.656 1386.37 L372.257 1386.37 L372.866 1386.38 
  L373.479 1386.38 L374.093 1386.38 L374.714 1386.38 L375.334 1386.38 L375.955 1386.38 L376.57 1386.38 L377.189 1386.39 L377.809 1386.39 L378.43 1386.39 L379.052 1386.39 
  L379.677 1386.39 L380.307 1386.39 L380.938 1386.39 L381.573 1386.39 L382.214 1386.39 L382.86 1386.39 L383.515 1386.39 L384.169 1386.39 L384.824 1386.39 L385.477 1386.39 
  L386.131 1386.39 L386.787 1386.39 L387.449 1386.39 L388.112 1386.39 L388.767 1386.39 L389.425 1386.39 L390.085 1386.4 L390.753 1386.4 L391.427 1386.4 L392.109 1386.4 
  L392.791 1386.4 L393.476 1386.4 L394.167 1386.39 L394.863 1386.39 L395.563 1386.39 L396.272 1386.39 L396.994 1386.39 L397.715 1386.39 L398.441 1386.39 L399.173 1386.39 
  L399.9 1386.39 L400.637 1386.39 L401.382 1386.39 L402.131 1386.39 L402.893 1386.39 L403.662 1386.39 L404.443 1386.39 L405.222 1386.39 L405.995 1386.39 L406.777 1386.39 
  L407.568 1386.39 L408.362 1386.38 L409.172 1386.38 L409.996 1386.38 L410.819 1386.38 L411.654 1386.38 L412.517 1386.38 L413.394 1386.38 L414.296 1386.38 L415.234 1386.38 
  L416.208 1386.37 L417.196 1386.37 L418.182 1386.37 L419.174 1386.37 L420.185 1386.37 L421.219 1386.37 L422.267 1386.37 L423.337 1386.37 L424.435 1386.36 L425.553 1386.36 
  L426.685 1386.36 L427.855 1386.35 L429.045 1386.35 L430.233 1386.35 L431.403 1386.34 L432.594 1386.34 L433.793 1386.34 L435.006 1386.34 L436.232 1386.33 L437.482 1386.33 
  L438.773 1386.33 L440.1 1386.33 L441.443 1386.32 L442.779 1386.32 L444.14 1386.31 L445.512 1386.31 L446.901 1386.31 L448.315 1386.3 L449.775 1386.3 L451.29 1386.29 
  L452.855 1386.28 L454.478 1386.28 L456.168 1386.27 L457.953 1386.27 L459.826 1386.26 L461.731 1386.25 L463.829 1386.24 L466.012 1386.24 L468.338 1386.23 L470.748 1386.22 
  L473.459 1386.2 L476.442 1386.19 L479.561 1386.18 L482.863 1386.16 L486.346 1386.14 L489.814 1386.11 L493.715 1386.09 L497.601 1386.07 L501.972 1386.04 L506.89 1385.99 
  L512.423 1385.95 L518.647 1385.9 L525.65 1385.85 L531.39 1385.8 L536.055 1385.77 L541.303 1385.72 L546.221 1385.67 L550.922 1385.62 L556.141 1385.56 L561.683 1385.51 
  L567.919 1385.45 L574.934 1385.36 L579.233 1385.29 L583.639 1385.23 L587.792 1385.17 L591.758 1385.13 L596.219 1385.08 L601.239 1385.01 L606.42 1384.94 L612.249 1384.86 
  L618.807 1384.75 L625.369 1384.61 L631.207 1384.49 L635.951 1384.39 L640.385 1384.3 L645.078 1384.2 L649.595 1384.1 L654.676 1383.97 L659.386 1383.85 L663.919 1383.73 
  L667.659 1383.62 L671.038 1383.52 L674.395 1383.4 L677.944 1383.28 L681.307 1383.17 L685.09 1383.05 L689.346 1382.9 L693.54 1382.75 L697.833 1382.58 L702.236 1382.41 
  L707.19 1382.23 L712.763 1382.05 L717.704 1381.89 L722.713 1381.72 L728.348 1381.51 L734.688 1381.27 L741.193 1381 L747.496 1380.69 L754.073 1380.35 L761.472 1379.95 
  L767.267 1379.61 L773.787 1379.16 L781.121 1378.63 L789.372 1378.09 L798.655 1377.31 L809.098 1376.33 L818.617 1375.49 L829.326 1374.58 L841.374 1373.56 L848.073 1372.86 
  L853.802 1372.19 L860.247 1371.33 L867.08 1370.24 L874.21 1368.91 L881.796 1367.5 L890.181 1366.24 L898.145 1364.81 L907.104 1362.86 L916.922 1360.68 L926.068 1358.03 
  L934.05 1355.46 L939.089 1353.75 L943.515 1352.16 L947.575 1350.76 L951.483 1349.64 L955.333 1348.38 L959.407 1346.85 L963.275 1345.41 L967.576 1343.78 L972.413 1341.93 
  L977.405 1340.1 L981.993 1338.45 L987.156 1336.58 L992.488 1334.72 L998.486 1331.54 L1004.32 1327.92 L1010.88 1324 L1018.26 1320.42 L1026.57 1316.47 L1035.15 1311.98 
  L1043.13 1308.08 L1051.04 1303.84 L1058.9 1299.09 L1067.76 1293.75 L1076.04 1288.32 L1085.16 1283.24 L1094.24 1277.2 L1100.27 1273.2 L1104.81 1270.19 L1109 1266.99 
  L1113.09 1263.63 L1117.22 1260.25 L1121.62 1256.38 L1126.24 1251.49 L1130.91 1246.33 L1135.58 1241.14 L1140.82 1235.21 L1146 1229.16 L1150.82 1223.24 L1155.28 1217.02 
  L1159.19 1211.42 L1163.19 1205.52 L1167.03 1200.85 L1170.73 1196.12 L1174.57 1190.43 L1178.55 1184.44 L1182.34 1178.8 L1185.77 1173.59 L1189.17 1167.72 L1192.53 1161.83 
  L1195.83 1156.02 L1199.24 1150.01 L1202.43 1144.38 L1205.52 1138.93 L1208.5 1133.69 L1211.43 1128.54 L1214.15 1123.77 L1216.77 1119.15 L1219.18 1114.57 L1221.48 1109.79 
  L1223.78 1105.02 L1225.98 1100.46 L1228.06 1095.94 L1230.14 1091.14 L1232.12 1086.58 L1234.02 1083.08 L1235.88 1079.9 L1237.65 1076.84 L1239.36 1073.69 L1241.03 1070.38 
  L1242.69 1067.07 L1244.33 1063.56 L1246 1059.94 L1247.64 1056.38 L1249.28 1052.67 L1250.9 1048.95 L1252.51 1045.3 L1254.1 1041.34 L1255.71 1037.24 L1257.34 1033.09 
  L1258.96 1029.27 L1260.6 1025.59 L1262.23 1021.92 L1263.85 1018.34 L1265.5 1014.77 L1267.15 1011.2 L1268.79 1007.59 L1270.45 1003.75 L1272.16 999.796 L1273.88 995.868 
  L1275.63 992.097 L1277.44 988.08 L1279.23 982.018 L1280.99 976.037 L1282.75 969.967 L1284.54 963.79 L1286.33 957.544 L1288.12 951.039 L1289.91 945.265 L1291.68 941.016 
  L1293.48 936.833 L1295.27 932.701 L1297.08 928.543 L1298.89 924.31 L1300.72 919.999 L1302.55 915.562 L1304.41 911.008 L1306.23 906.475 L1308.04 900.715 L1309.83 894.699 
  L1311.64 888.756 L1313.45 882.813 L1315.26 876.9 L1317.08 870.968 L1318.87 864.798 L1320.68 859.28 L1322.47 855.281 L1324.25 851.392 L1326.03 847.587 L1327.82 843.869 
  L1329.62 837.641 L1331.43 831.285 L1333.27 824.856 L1335.15 821.198 L1337.03 817.841 L1338.92 814.441 L1340.79 810.994 L1342.65 807.606 L1344.5 804.318 L1346.4 801.047 
  L1348.3 797.778 L1350.21 794.573 L1352.13 791.205 L1354.03 784.573 L1355.91 777.596 L1357.81 770.507 L1359.72 763.31 L1361.66 759.909 L1363.62 756.246 L1365.61 753.682 
  L1367.59 751.36 L1369.57 749.251 L1371.55 744.065 L1373.51 737.956 L1375.49 731.374 L1377.49 726.815 L1379.42 723.458 L1381.36 720.084 L1383.31 722.722 L1385.23 728.395 
  L1387.18 724.636 L1389.13 720.728 L1391.11 716.538 L1393.12 712.085 L1395.14 709.658 L1397.19 708.823 L1399.26 705.753 L1401.34 706.398 L1403.44 705.423 L1405.55 704.995 
  L1407.64 704.434 L1409.77 703.795 L1411.9 697.12 L1414.05 689.728 L1416.22 682.067 L1418.4 682.191 L1420.59 685.198 L1422.82 687.962 L1425.06 690.463 L1427.35 687.233 
  L1429.63 680.203 L1431.95 679.978 L1434.28 685.876 L1436.66 691.904 L1439.07 697.895 L1441.52 701.62 L1444.02 700.574 L1446.55 699.945 L1449.12 699.248 L1451.72 698.64 
  L1454.35 699.08 L1456.99 702.714 L1459.62 704.851 L1462.3 706.59 L1465.02 708.21 L1467.8 709.976 L1470.63 711.989 L1473.48 718.65 L1476.4 727 L1479.34 735.176 
  L1482.22 742.892 L1485.12 747.707 L1488.04 750.208 L1491.02 754.247 L1494.1 761.901 L1497.25 771.129 L1500.49 780.661 L1503.81 790.1 L1507.19 799.369 L1510.65 809.321 
  L1514.1 819.368 L1517.52 829.482 L1521.01 840.353 L1524.73 851.387 L1528.51 861.935 L1532.39 872.878 L1536.38 884.229 L1540.46 895.641 L1544.65 907.106 L1548.96 917.686 
  L1553.27 927.3 L1557.24 935.803 L1561.49 944.448 L1565.6 952.14 L1569.88 958.436 L1574.59 967.288 L1579.37 978.824 L1584.14 990.14 L1589.34 1002.73 L1594.69 1015.33 
  L1599.96 1025.23 L1605.1 1036.45 L1610.65 1048.2 L1615.29 1057.76 L1619.94 1067.54 L1624.85 1077.29 L1629.34 1085.83 L1633.81 1094.11 L1638.84 1103.32 L1644.49 1113.27 
  L1650.68 1123.51 L1656.32 1132.63 L1662.66 1142.76 L1669.77 1153.88 L1677.11 1164.36 L1684.29 1175.41 L1692.38 1187.65 L1701.05 1197.74 L1710.68 1207.29 L1720.82 1219.18 
  L1730.74 1229.38 L1741.89 1240.18 L1753.02 1253.28 L1762.16 1263.35 L1772.44 1273.64 L1784.01 1282.56 L1795.61 1290.61 L1803.82 1295.83 L1810.38 1299.7 L1816.7 1303.29 
  L1823.19 1307 L1830.04 1310.82 L1835.71 1313.96 L1841.32 1317.24 L1846.78 1320.27 L1852.87 1323.49 L1858.6 1326.3 L1865.05 1329.12 L1871.67 1331.98 L1876.96 1334.46 
  L1881.75 1336.67 L1886.48 1338.76 L1890.99 1340.69 L1895.39 1342.51 L1900.35 1344.48 L1905.28 1346.36 L1910.82 1348.34 L1917.06 1350.48 L1924.08 1352.57 L1931.98 1354.75 
  L1940.86 1356.82 L1947.8 1358.23 L1954.35 1359.52 L1961.16 1360.81 L1966.73 1361.81 L1970.84 1362.52 L1974.62 1363.15 L1978.27 1363.74 L1982.1 1364.35 L1985.82 1364.95 
  L1989.24 1365.47 L1992.42 1365.93 L1995.8 1366.43 L1999.35 1366.92 L2003.25 1367.44 L2007.64 1368.02 L2012.58 1368.75 L2018.14 1369.56 L2024.39 1370.43 L2029.62 1371.13 
  L2035.35 1371.79 L2041.79 1372.49 L2049.04 1373.24 L2055.8 1373.93 L2063.41 1374.67 L2069.99 1375.31 L2077.4 1376.01 L2085.73 1376.71 L2095.1 1377.43 L2100.92 1377.85 
  L2107.46 1378.28 L2114.82 1378.74 L2123.1 1379.21 L2127.08 1379.43 L2131.56 1379.65 L2136.6 1379.9 L2142.27 1380.16 L2147.23 1380.4 L2152.24 1380.63 L2157.87 1380.89 
  L2164.2 1381.15 L2169.87 1381.37 L2175.88 1381.59 L2181.03 1381.82 L2185.28 1382.02 L2189.26 1382.2 L2193.02 1382.36 L2196.37 1382.5 L2199.6 1382.63 L2202.85 1382.75 
  L2206.1 1382.88 L2209.31 1382.99 L2212.56 1383.1 L2215.65 1383.21 L2219.05 1383.31 L2222.53 1383.42 L2226.28 1383.53 L2229.99 1383.63 L2234.16 1383.74 L2238.84 1383.86 
  L2243.77 1383.97 L2249.3 1384.1 L2255.54 1384.25 L2262.54 1384.4 L2270.43 1384.57 L2275.83 1384.67 L2280.44 1384.76 L2285.56 1384.85 L2289.94 1384.93 L2293.89 1385 
  L2294.08 1385.01 L2294.08 1366.6 L2293.89 1366.58 L2289.94 1366.09 L2285.56 1365.52 L2280.44 1364.83 L2275.83 1364.2 L2270.43 1363.51 L2262.54 1362.49 L2255.54 1361.6 
  L2249.3 1360.84 L2243.77 1360.19 L2238.84 1359.44 L2234.16 1358.61 L2229.99 1357.79 L2226.28 1357.04 L2222.53 1356.27 L2219.05 1355.58 L2215.65 1355.07 L2212.56 1354.61 
  L2209.31 1354.1 L2206.1 1353.51 L2202.85 1352.79 L2199.6 1352.07 L2196.37 1351.32 L2193.02 1350.53 L2189.26 1349.61 L2185.28 1348.62 L2181.03 1347.52 L2175.88 1346.1 
  L2169.87 1344.36 L2164.2 1342.59 L2157.87 1340.44 L2152.24 1338.69 L2147.23 1337.13 L2142.27 1335.56 L2136.6 1333.76 L2131.56 1332.17 L2127.08 1330.74 L2123.1 1329.47 
  L2114.82 1326.72 L2107.46 1324.25 L2100.92 1322.08 L2095.1 1319.96 L2085.73 1316.56 L2077.4 1313.42 L2069.99 1310.34 L2063.41 1307.56 L2055.8 1304.31 L2049.04 1301.38 
  L2041.79 1298.26 L2035.35 1295.38 L2029.62 1292.64 L2024.39 1290.09 L2018.14 1286.75 L2012.58 1283.72 L2007.64 1280.81 L2003.25 1277.91 L1999.35 1275.21 L1995.8 1272.74 
  L1992.42 1270.35 L1989.24 1268.12 L1985.82 1265.75 L1982.1 1263.19 L1978.27 1260.22 L1974.62 1257.22 L1970.84 1254.09 L1966.73 1250.32 L1961.16 1245.19 L1954.35 1238.87 
  L1947.8 1233.73 L1940.86 1228.25 L1931.98 1220.55 L1924.08 1212.89 L1917.06 1205.66 L1910.82 1198.93 L1905.28 1192.59 L1900.35 1186.6 L1895.39 1180.19 L1890.99 1174.38 
  L1886.48 1168.59 L1881.75 1162.65 L1876.96 1156.64 L1871.67 1149.77 L1865.05 1140.54 L1858.6 1130.33 L1852.87 1120.93 L1846.78 1111 L1841.32 1102.03 L1835.71 1092.94 
  L1830.04 1084.37 L1823.19 1071.21 L1816.7 1059.11 L1810.38 1047.23 L1803.82 1037.59 L1795.61 1027.14 L1784.01 1002.88 L1772.44 976.809 L1762.16 953.401 L1753.02 931.649 
  L1741.89 906.524 L1730.74 882.724 L1720.82 859.301 L1710.68 836.13 L1701.05 815.289 L1692.38 795.184 L1684.29 781.018 L1677.11 765.588 L1669.77 749.385 L1662.66 730.403 
  L1656.32 707.906 L1650.68 688.129 L1644.49 667.784 L1638.84 662.004 L1633.81 646.082 L1629.34 631.766 L1624.85 617.158 L1619.94 601.619 L1615.29 587.712 L1610.65 573.807 
  L1605.1 557.687 L1599.96 542.989 L1594.69 526.364 L1589.34 507.438 L1584.14 486.168 L1579.37 466.358 L1574.59 460.086 L1569.88 459.655 L1565.6 452.806 L1561.49 449.116 
  L1557.24 447.065 L1553.27 445.643 L1548.96 444.893 L1544.65 443.565 L1540.46 431.776 L1536.38 417.595 L1532.39 404.276 L1528.51 392.291 L1524.73 382.276 L1521.01 372.846 
  L1517.52 364.532 L1514.1 357.006 L1510.65 350.497 L1507.19 342.669 L1503.81 334.548 L1500.49 326.317 L1497.25 318.448 L1494.1 311.066 L1491.02 304.488 L1488.04 298.788 
  L1485.12 293.63 L1482.22 285.543 L1479.34 281.375 L1476.4 277.404 L1473.48 274.835 L1470.63 272.554 L1467.8 270.83 L1465.02 273.441 L1462.3 279.689 L1459.62 279.588 
  L1456.99 276.497 L1454.35 273.76 L1451.72 270.875 L1449.12 260.977 L1446.55 259.516 L1444.02 261.867 L1441.52 258.852 L1439.07 255.668 L1436.66 252.337 L1434.28 254.426 
  L1431.95 250.91 L1429.63 246.301 L1427.35 244.046 L1425.06 241.023 L1422.82 238.127 L1420.59 237.468 L1418.4 234.115 L1416.22 227.47 L1414.05 224.179 L1411.9 221.323 
  L1409.77 218.367 L1407.64 215.13 L1405.55 211.037 L1403.44 204.368 L1401.34 198.095 L1399.26 191.933 L1397.19 187.655 L1395.14 184.875 L1393.12 181.924 L1391.11 178.343 
  L1389.13 175.1 L1387.18 171.855 L1385.23 168.455 L1383.31 164.966 L1381.36 161.243 L1379.42 160.256 L1377.49 162.332 L1375.49 164.998 L1373.51 167.418 L1371.55 170.451 
  L1369.57 174.625 L1367.59 179.768 L1365.61 185.361 L1363.62 191.028 L1361.66 194.972 L1359.72 192.739 L1357.81 190.359 L1355.91 188.57 L1354.03 188.315 L1352.13 188.12 
  L1350.21 188.587 L1348.3 189.495 L1346.4 191.348 L1344.5 193.257 L1342.65 195.155 L1340.79 197.77 L1338.92 201.081 L1337.03 204.769 L1335.15 208.457 L1333.27 211.838 
  L1331.43 214.805 L1329.62 217.515 L1327.82 219.706 L1326.03 221.677 L1324.25 223.648 L1322.47 224.82 L1320.68 227.553 L1318.87 230.526 L1317.08 233.857 L1315.26 239.1 
  L1313.45 245.073 L1311.64 251.66 L1309.83 253.958 L1308.04 257.117 L1306.23 260.859 L1304.41 264.824 L1302.55 270.075 L1300.72 276.236 L1298.89 282.442 L1297.08 288.206 
  L1295.27 293.938 L1293.48 299.525 L1291.68 303.649 L1289.91 301.82 L1288.12 306.518 L1286.33 311.543 L1284.54 317.128 L1282.75 322.956 L1280.99 327.852 L1279.23 331.242 
  L1277.44 335.005 L1275.63 338.867 L1273.88 342.857 L1272.16 347.127 L1270.45 351.935 L1268.79 356.561 L1267.15 362.313 L1265.5 364.889 L1263.85 368.078 L1262.23 373.345 
  L1260.6 380.174 L1258.96 383.444 L1257.34 385.664 L1255.71 390.61 L1254.1 396.344 L1252.51 401.695 L1250.9 406.852 L1249.28 411.969 L1247.64 417.411 L1246 423.261 
  L1244.33 429.872 L1242.69 437.398 L1241.03 446.458 L1239.36 455.918 L1237.65 465.961 L1235.88 476.583 L1234.02 479.54 L1232.12 481.243 L1230.14 482.785 L1228.06 484.207 
  L1225.98 485.677 L1223.78 487.321 L1221.48 496.265 L1219.18 505.644 L1216.77 515.759 L1214.15 527.916 L1211.43 541.473 L1208.5 546.455 L1205.52 549.873 L1202.43 556.587 
  L1199.24 575.19 L1195.83 596.168 L1192.53 614.965 L1189.17 626.73 L1185.77 632.655 L1182.34 640.048 L1178.55 650.296 L1174.57 670.464 L1170.73 690.707 L1167.03 710.636 
  L1163.19 730.978 L1159.19 751.673 L1155.28 768.807 L1150.82 782.924 L1146 796.614 L1140.82 811.969 L1135.58 827.477 L1130.91 839.293 L1126.24 851.155 L1121.62 863.901 
  L1117.22 875.395 L1113.09 886.16 L1109 896.837 L1104.81 907.371 L1100.27 917.301 L1094.24 939.626 L1085.16 974.93 L1076.04 1002.1 L1067.76 1022.16 L1058.9 1045.88 
  L1051.04 1067.79 L1043.13 1087.54 L1035.15 1105.04 L1026.57 1124.48 L1018.26 1144.47 L1010.88 1159.62 L1004.32 1171.22 L998.486 1180.34 L992.488 1188.69 L987.156 1195.66 
  L981.993 1202.61 L977.405 1208.75 L972.413 1215.23 L967.576 1221.2 L963.275 1226.4 L959.407 1231.03 L955.333 1235.9 L951.483 1240.05 L947.575 1244.26 L943.515 1248.72 
  L939.089 1254.73 L934.05 1263.16 L926.068 1275.75 L916.922 1283.93 L907.104 1291.15 L898.145 1296.92 L890.181 1303.07 L881.796 1309.79 L874.21 1315.37 L867.08 1320.25 
  L860.247 1324.52 L853.802 1328.47 L848.073 1332.24 L841.374 1336.42 L829.326 1341.82 L818.617 1345.37 L809.098 1349.48 L798.655 1354.06 L789.372 1357.87 L781.121 1360.74 
  L773.787 1362.27 L767.267 1363.92 L761.472 1365.05 L754.073 1366.39 L747.496 1367.48 L741.193 1368.56 L734.688 1369.67 L728.348 1370.72 L722.713 1371.63 L717.704 1372.41 
  L712.763 1373.11 L707.19 1373.89 L702.236 1374.57 L697.833 1375.14 L693.54 1375.71 L689.346 1376.23 L685.09 1376.75 L681.307 1377.16 L677.944 1377.51 L674.395 1377.87 
  L671.038 1378.19 L667.659 1378.52 L663.919 1378.88 L659.386 1379.32 L654.676 1379.62 L649.595 1379.91 L645.078 1380.25 L640.385 1380.61 L635.951 1380.92 L631.207 1381.24 
  L625.369 1381.61 L618.807 1382.01 L612.249 1382.26 L606.42 1382.44 L601.239 1382.62 L596.219 1382.79 L591.758 1382.95 L587.792 1383.07 L583.639 1383.19 L579.233 1383.32 
  L574.934 1383.45 L567.919 1383.73 L561.683 1383.95 L556.141 1384.13 L550.922 1384.29 L546.221 1384.42 L541.303 1384.56 L536.055 1384.7 L531.39 1384.83 L525.65 1384.96 
  L518.647 1385.12 L512.423 1385.24 L506.89 1385.32 L501.972 1385.41 L497.601 1385.49 L493.715 1385.56 L489.814 1385.61 L486.346 1385.65 L482.863 1385.69 L479.561 1385.73 
  L476.442 1385.76 L473.459 1385.78 L470.748 1385.81 L468.338 1385.83 L466.012 1385.85 L463.829 1385.86 L461.731 1385.88 L459.826 1385.9 L457.953 1385.92 L456.168 1385.94 
  L454.478 1385.95 L452.855 1385.97 L451.29 1385.98 L449.775 1386 L448.315 1386.01 L446.901 1386.03 L445.512 1386.04 L444.14 1386.05 L442.779 1386.06 L441.443 1386.07 
  L440.1 1386.08 L438.773 1386.08 L437.482 1386.09 L436.232 1386.1 L435.006 1386.11 L433.793 1386.12 L432.594 1386.12 L431.403 1386.13 L430.233 1386.14 L429.045 1386.15 
  L427.855 1386.15 L426.685 1386.16 L425.553 1386.17 L424.435 1386.17 L423.337 1386.18 L422.267 1386.18 L421.219 1386.19 L420.185 1386.19 L419.174 1386.2 L418.182 1386.2 
  L417.196 1386.21 L416.208 1386.21 L415.234 1386.22 L414.296 1386.22 L413.394 1386.23 L412.517 1386.23 L411.654 1386.24 L410.819 1386.24 L409.996 1386.24 L409.172 1386.25 
  L408.362 1386.25 L407.568 1386.25 L406.777 1386.26 L405.995 1386.26 L405.222 1386.26 L404.443 1386.27 L403.662 1386.27 L402.893 1386.27 L402.131 1386.28 L401.382 1386.28 
  L400.637 1386.28 L399.9 1386.28 L399.173 1386.29 L398.441 1386.29 L397.715 1386.29 L396.994 1386.29 L396.272 1386.29 L395.563 1386.3 L394.863 1386.3 L394.167 1386.3 
  L393.476 1386.3 L392.791 1386.3 L392.109 1386.31 L391.427 1386.31 L390.753 1386.31 L390.085 1386.31 L389.425 1386.31 L388.767 1386.31 L388.112 1386.31 L387.449 1386.31 
  L386.787 1386.31 L386.131 1386.31 L385.477 1386.31 L384.824 1386.31 L384.169 1386.32 L383.515 1386.32 L382.86 1386.32 L382.214 1386.32 L381.573 1386.32 L380.938 1386.32 
  L380.307 1386.32 L379.677 1386.32 L379.052 1386.32 L378.43 1386.32 L377.809 1386.32 L377.189 1386.32 L376.57 1386.32 L375.955 1386.32 L375.334 1386.32 L374.714 1386.32 
  L374.093 1386.32 L373.479 1386.32 L372.866 1386.32 L372.257 1386.32 L371.656 1386.32 L371.051 1386.32 L370.451 1386.32 L369.85 1386.32 L369.255 1386.32 L368.665 1386.32 
  L368.083 1386.32 L367.504 1386.32 L366.933 1386.32 L366.366 1386.32 L365.805 1386.32 L365.25 1386.32 L364.707 1386.32 L364.182 1386.32 L363.661 1386.32 L363.146 1386.32 
  L362.643 1386.32 L362.148 1386.32 L361.658 1386.32 L361.173 1386.32 L360.694 1386.31 L360.219 1386.31 L359.746 1386.31 L359.276 1386.31 L358.804 1386.31 L358.335 1386.31 
  L357.867 1386.31 L357.403 1386.31 L356.939 1386.31 L356.474 1386.31 L356.011 1386.31 L355.552 1386.3 L355.095 1386.3 L354.642 1386.3 L354.19 1386.3 L353.74 1386.3 
  L353.294 1386.3 L352.852 1386.3 L352.413 1386.29 L351.978 1386.29 L351.543 1386.29 L351.111 1386.29 L350.682 1386.29 L350.252 1386.29 L349.824 1386.29 L349.396 1386.28 
  L348.969 1386.28 L348.544 1386.28 L348.124 1386.28 L347.707 1386.28 L347.294 1386.28 L346.888 1386.27 L346.487 1386.27 L346.094 1386.27 L345.704 1386.27 L345.318 1386.27 
  L344.939 1386.27 L344.566 1386.26 L344.2 1386.26 L343.84 1386.26 L343.485 1386.26 L343.138 1386.26 L342.799 1386.25 L342.469 1386.25 L342.148 1386.25 L341.836 1386.25 
  L341.536 1386.25 L341.247 1386.25 L340.973 1386.24 L340.712 1386.24 L340.466 1386.24 L340.239 1386.24 L340.03 1386.24 L339.841 1386.24 L339.672 1386.24 L339.523 1386.23 
  L339.39 1386.23 L339.272 1386.23 L339.167 1386.23 L339.074 1386.23 L338.991 1386.23 L338.917 1386.23 L338.851 1386.23 L338.793 1386.23 L338.741 1386.23 L338.695 1386.23 
  L338.654 1386.23 L338.618 1386.23 L338.586 1386.23 L338.557 1386.23 L338.531 1386.23 L338.509 1386.23 L338.488 1386.23 L338.47 1386.23 L338.455 1386.23 L338.44 1386.23 
  L338.428 1386.23 L338.375 1386.23  Z
  " fill="#009af9" fill-rule="evenodd" fill-opacity="0.2"/>
<polyline clip-path="url(#clip062)" style="stroke:#009af9; stroke-linecap:butt; stroke-linejoin:round; stroke-width:12; stroke-opacity:1; fill:none" points="
  338.375,1386.23 338.428,1386.23 338.44,1386.23 338.455,1386.23 338.47,1386.23 338.488,1386.23 338.509,1386.23 338.531,1386.23 338.557,1386.23 338.586,1386.23 
  338.618,1386.23 338.654,1386.23 338.695,1386.23 338.741,1386.23 338.793,1386.23 338.851,1386.23 338.917,1386.23 338.991,1386.23 339.074,1386.23 339.167,1386.23 
  339.272,1386.23 339.39,1386.23 339.523,1386.23 339.672,1386.24 339.841,1386.24 340.03,1386.24 340.239,1386.24 340.466,1386.24 340.712,1386.24 340.973,1386.24 
  341.247,1386.25 341.536,1386.25 341.836,1386.25 342.148,1386.25 342.469,1386.25 342.799,1386.26 343.138,1386.26 343.485,1386.26 343.84,1386.26 344.2,1386.26 
  344.566,1386.27 344.939,1386.27 345.318,1386.27 345.704,1386.27 346.094,1386.27 346.487,1386.28 346.888,1386.28 347.294,1386.28 347.707,1386.28 348.124,1386.28 
  348.544,1386.29 348.969,1386.29 349.396,1386.29 349.824,1386.29 350.252,1386.29 350.682,1386.29 351.111,1386.3 351.543,1386.3 351.978,1386.3 352.413,1386.3 
  352.852,1386.3 353.294,1386.3 353.74,1386.31 354.19,1386.31 354.642,1386.31 355.095,1386.31 355.552,1386.31 356.011,1386.31 356.474,1386.32 356.939,1386.32 
  357.403,1386.32 357.867,1386.32 358.335,1386.32 358.804,1386.32 359.276,1386.32 359.746,1386.33 360.219,1386.33 360.694,1386.33 361.173,1386.33 361.658,1386.33 
  362.148,1386.33 362.643,1386.33 363.146,1386.33 363.661,1386.33 364.182,1386.34 364.707,1386.34 365.25,1386.34 365.805,1386.34 366.366,1386.34 366.933,1386.34 
  367.504,1386.34 368.083,1386.34 368.665,1386.34 369.255,1386.34 369.85,1386.35 370.451,1386.35 371.051,1386.35 371.656,1386.35 372.257,1386.35 372.866,1386.35 
  373.479,1386.35 374.093,1386.35 374.714,1386.35 375.334,1386.35 375.955,1386.35 376.57,1386.35 377.189,1386.35 377.809,1386.35 378.43,1386.35 379.052,1386.35 
  379.677,1386.35 380.307,1386.35 380.938,1386.35 381.573,1386.35 382.214,1386.35 382.86,1386.35 383.515,1386.35 384.169,1386.35 384.824,1386.35 385.477,1386.35 
  386.131,1386.35 386.787,1386.35 387.449,1386.35 388.112,1386.35 388.767,1386.35 389.425,1386.35 390.085,1386.35 390.753,1386.35 391.427,1386.35 392.109,1386.35 
  392.791,1386.35 393.476,1386.34 394.167,1386.34 394.863,1386.34 395.563,1386.34 396.272,1386.34 396.994,1386.34 397.715,1386.34 398.441,1386.34 399.173,1386.34 
  399.9,1386.34 400.637,1386.33 401.382,1386.33 402.131,1386.33 402.893,1386.33 403.662,1386.33 404.443,1386.33 405.222,1386.32 405.995,1386.32 406.777,1386.32 
  407.568,1386.32 408.362,1386.32 409.172,1386.32 409.996,1386.31 410.819,1386.31 411.654,1386.31 412.517,1386.31 413.394,1386.3 414.296,1386.3 415.234,1386.3 
  416.208,1386.3 417.196,1386.29 418.182,1386.29 419.174,1386.29 420.185,1386.28 421.219,1386.28 422.267,1386.28 423.337,1386.27 424.435,1386.27 425.553,1386.27 
  426.685,1386.26 427.855,1386.26 429.045,1386.25 430.233,1386.25 431.403,1386.24 432.594,1386.24 433.793,1386.23 435.006,1386.23 436.232,1386.22 437.482,1386.21 
  438.773,1386.21 440.1,1386.2 441.443,1386.2 442.779,1386.19 444.14,1386.18 445.512,1386.17 446.901,1386.17 448.315,1386.16 449.775,1386.15 451.29,1386.14 
  452.855,1386.13 454.478,1386.12 456.168,1386.11 457.953,1386.1 459.826,1386.09 461.731,1386.08 463.829,1386.06 466.012,1386.05 468.338,1386.03 470.748,1386.01 
  473.459,1385.99 476.442,1385.97 479.561,1385.94 482.863,1385.92 486.346,1385.89 489.814,1385.85 493.715,1385.82 497.601,1385.78 501.972,1385.73 506.89,1385.68 
  512.423,1385.61 518.647,1385.54 525.65,1385.44 531.39,1385.36 536.055,1385.29 541.303,1385.2 546.221,1385.12 550.922,1385.03 556.141,1384.93 561.683,1384.82 
  567.919,1384.69 574.934,1384.53 579.233,1384.43 583.639,1384.32 587.792,1384.21 591.758,1384.11 596.219,1383.99 601.239,1383.84 606.42,1383.68 612.249,1383.5 
  618.807,1383.28 625.369,1383.05 631.207,1382.83 635.951,1382.65 640.385,1382.47 645.078,1382.27 649.595,1382.07 654.676,1381.83 659.386,1381.6 663.919,1381.37 
  667.659,1381.17 671.038,1380.98 674.395,1380.79 677.944,1380.58 681.307,1380.38 685.09,1380.14 689.346,1379.86 693.54,1379.58 697.833,1379.27 702.236,1378.95 
  707.19,1378.58 712.763,1378.14 717.704,1377.74 722.713,1377.31 728.348,1376.8 734.688,1376.19 741.193,1375.53 747.496,1374.84 754.073,1374.08 761.472,1373.17 
  767.267,1372.41 773.787,1371.52 781.121,1370.44 789.372,1369.14 798.655,1367.54 809.098,1365.58 818.617,1363.6 829.326,1361.16 841.374,1358.09 848.073,1356.24 
  853.802,1354.57 860.247,1352.58 867.08,1350.35 874.21,1347.86 881.796,1345.07 890.181,1341.77 898.145,1338.39 907.104,1334.29 916.922,1329.37 926.068,1324.44 
  934.05,1319.78 939.089,1316.64 943.515,1313.76 947.575,1311.04 951.483,1308.33 955.333,1305.59 959.407,1302.6 963.275,1299.71 967.576,1296.4 972.413,1292.53 
  977.405,1288.37 981.993,1284.37 987.156,1279.68 992.488,1274.63 998.486,1268.63 1004.32,1262.5 1010.88,1255.23 1018.26,1246.67 1026.57,1236.53 1035.15,1225.34 
  1043.13,1214.24 1051.04,1202.74 1058.9,1190.8 1067.76,1176.43 1076.04,1162.1 1085.16,1145.67 1094.24,1128.66 1100.27,1117 1104.81,1107.93 1109,1099.38 
  1113.09,1090.81 1117.22,1082.03 1121.62,1072.52 1126.24,1062.32 1130.91,1051.79 1135.58,1041.01 1140.82,1028.65 1146,1016.21 1150.82,1004.36 1155.28,993.161 
  1159.19,983.222 1163.19,972.871 1167.03,962.808 1170.73,953.065 1174.57,942.872 1178.55,932.28 1182.34,922.013 1185.77,912.638 1189.17,903.217 1192.53,893.862 
  1195.83,884.649 1199.24,875.078 1202.43,866.152 1205.52,857.467 1208.5,848.997 1211.43,840.628 1214.15,832.857 1216.77,825.273 1219.18,818.251 1221.48,811.478 
  1223.78,804.65 1225.98,798.074 1228.06,791.865 1230.14,785.669 1232.12,779.855 1234.02,774.325 1235.88,768.971 1237.65,763.845 1239.36,758.876 1241.03,754.098 
  1242.69,749.343 1244.33,744.642 1246,739.841 1247.64,735.133 1249.28,730.453 1250.9,725.783 1252.51,721.181 1254.1,716.646 1255.71,712.06 1257.34,707.457 
  1258.96,702.914 1260.6,698.314 1262.23,693.745 1263.85,689.226 1265.5,684.603 1267.15,679.959 1268.79,675.341 1270.45,670.684 1272.16,665.87 1273.88,661.08 
  1275.63,656.235 1277.44,651.236 1279.23,646.351 1280.99,641.602 1282.75,636.927 1284.54,632.159 1286.33,627.414 1288.12,622.765 1289.91,618.218 1291.68,613.782 
  1293.48,609.356 1295.27,604.915 1297.08,600.497 1298.89,596.14 1300.72,591.774 1302.55,587.429 1304.41,583.079 1306.23,578.81 1308.04,574.631 1309.83,570.528 
  1311.64,566.436 1313.45,562.42 1315.26,558.481 1317.08,554.598 1318.87,550.807 1320.68,547.021 1322.47,543.373 1324.25,539.847 1326.03,536.387 1327.82,532.957 
  1329.62,529.602 1331.43,526.252 1333.27,522.906 1335.15,519.537 1337.03,516.193 1338.92,512.877 1340.79,509.69 1342.65,506.606 1344.5,503.62 1346.4,500.577 
  1348.3,497.651 1350.21,494.817 1352.13,491.968 1354.03,489.245 1355.91,486.617 1357.81,484.069 1359.72,481.603 1361.66,479.254 1363.62,476.938 1365.61,474.699 
  1367.59,472.573 1369.57,470.607 1371.55,468.788 1373.51,467.127 1375.49,465.526 1377.49,463.942 1379.42,462.533 1381.36,461.28 1383.31,460.128 1385.23,459.113 
  1387.18,458.202 1389.13,457.456 1391.11,456.874 1393.12,456.42 1395.14,456.05 1397.19,455.785 1399.26,455.676 1401.34,455.659 1403.44,455.69 1405.55,455.839 
  1407.64,456.131 1409.77,456.516 1411.9,457.076 1414.05,457.747 1416.22,458.515 1418.4,459.349 1420.59,460.246 1422.82,461.198 1425.06,462.258 1427.35,463.494 
  1429.63,464.855 1431.95,466.332 1434.28,468.009 1436.66,469.942 1439.07,472.033 1441.52,474.4 1444.02,477.145 1446.55,480.105 1449.12,483.208 1451.72,486.417 
  1454.35,489.754 1456.99,493.259 1459.62,496.915 1462.3,500.796 1465.02,504.911 1467.8,509.319 1470.63,513.994 1473.48,518.891 1476.4,524.019 1479.34,529.256 
  1482.22,534.573 1485.12,540.106 1488.04,545.836 1491.02,551.795 1494.1,558.015 1497.25,564.524 1500.49,571.373 1503.81,578.5 1507.19,585.926 1510.65,593.622 
  1514.1,601.383 1517.52,609.175 1521.01,617.129 1524.73,625.786 1528.51,634.701 1532.39,643.944 1536.38,653.564 1540.46,663.506 1544.65,673.75 1548.96,684.278 
  1553.27,694.748 1557.24,704.318 1561.49,714.658 1565.6,724.679 1569.88,735.225 1574.59,746.861 1579.37,758.567 1584.14,770.299 1589.34,783.142 1594.69,796.16 
  1599.96,809.022 1605.1,821.559 1610.65,834.97 1615.29,846.043 1619.94,856.959 1624.85,868.343 1629.34,878.619 1633.81,888.713 1638.84,899.904 1644.49,912.337 
  1650.68,925.847 1656.32,937.955 1662.66,951.443 1669.77,966.458 1677.11,981.761 1684.29,996.4 1692.38,1012.33 1701.05,1028.92 1710.68,1046.76 1720.82,1065.04 
  1730.74,1082.15 1741.89,1100.76 1753.02,1118.44 1762.16,1132.38 1772.44,1147.38 1784.01,1163.28 1795.61,1178.2 1803.82,1188.16 1810.38,1195.8 1816.7,1202.89 
  1823.19,1209.94 1830.04,1217.15 1835.71,1222.95 1841.32,1228.49 1846.78,1233.72 1852.87,1239.34 1858.6,1244.45 1865.05,1249.98 1871.67,1255.42 1876.96,1259.63 
  1881.75,1263.32 1886.48,1266.86 1890.99,1270.16 1895.39,1273.3 1900.35,1276.74 1905.28,1280.05 1910.82,1283.65 1917.06,1287.56 1924.08,1291.78 1931.98,1296.33 
  1940.86,1301.23 1947.8,1304.9 1954.35,1308.23 1961.16,1311.56 1966.73,1314.19 1970.84,1316.08 1974.62,1317.78 1978.27,1319.38 1982.1,1321.02 1985.82,1322.59 
  1989.24,1323.99 1992.42,1325.27 1995.8,1326.6 1999.35,1327.97 2003.25,1329.44 2007.64,1331.07 2012.58,1332.84 2018.14,1334.77 2024.39,1336.87 2029.62,1338.56 
  2035.35,1340.33 2041.79,1342.25 2049.04,1344.32 2055.8,1346.16 2063.41,1348.15 2069.99,1349.78 2077.4,1351.55 2085.73,1353.44 2095.1,1355.44 2100.92,1356.62 
  2107.46,1357.89 2114.82,1359.27 2123.1,1360.72 2127.08,1361.4 2131.56,1362.13 2136.6,1362.93 2142.27,1363.81 2147.23,1364.55 2152.24,1365.28 2157.87,1366.07 
  2164.2,1366.92 2169.87,1367.66 2175.88,1368.41 2181.03,1369.03 2185.28,1369.53 2189.26,1369.99 2193.02,1370.4 2196.37,1370.77 2199.6,1371.11 2202.85,1371.44 
  2206.1,1371.77 2209.31,1372.09 2212.56,1372.4 2215.65,1372.69 2219.05,1373.01 2222.53,1373.32 2226.28,1373.65 2229.99,1373.97 2234.16,1374.32 2238.84,1374.7 
  2243.77,1375.09 2249.3,1375.52 2255.54,1375.98 2262.54,1376.48 2270.43,1377.01 2275.83,1377.36 2280.44,1377.65 2285.56,1377.95 2289.94,1378.21 2293.89,1378.43 
  2294.08,1378.45 
  "/>
<path clip-path="url(#clip060)" d="
M1567.83 270.476 L2283.65 270.476 L2283.65 166.796 L1567.83 166.796  Z
  " fill="#ffffff" fill-rule="evenodd" fill-opacity="1"/>
<polyline clip-path="url(#clip060)" style="stroke:#000000; stroke-linecap:butt; stroke-linejoin:round; stroke-width:4; stroke-opacity:1; fill:none" points="
  1567.83,270.476 2283.65,270.476 2283.65,166.796 1567.83,166.796 1567.83,270.476 
  "/>
<polyline clip-path="url(#clip060)" style="stroke:#009af9; stroke-linecap:butt; stroke-linejoin:round; stroke-width:4; stroke-opacity:1; fill:none" points="
  1590.87,218.636 1729.07,218.636 
  "/>
<path clip-path="url(#clip060)" d="M1752.1 201.356 L1759.07 201.356 L1767.89 224.874 L1776.76 201.356 L1783.72 201.356 L1783.72 235.916 L1779.16 235.916 L1779.16 205.569 L1770.25 229.272 L1765.55 229.272 L1756.64 205.569 L1756.64 235.916 L1752.1 235.916 L1752.1 201.356 Z" fill="#000000" fill-rule="evenodd" fill-opacity="1" /><path clip-path="url(#clip060)" d="M1792.82 209.99 L1797.08 209.99 L1797.08 235.916 L1792.82 235.916 L1792.82 209.99 M1792.82 199.897 L1797.08 199.897 L1797.08 205.291 L1792.82 205.291 L1792.82 199.897 Z" fill="#000000" fill-rule="evenodd" fill-opacity="1" /><path clip-path="url(#clip060)" d="M1823.05 213.925 L1823.05 199.897 L1827.31 199.897 L1827.31 235.916 L1823.05 235.916 L1823.05 232.027 Q1821.71 234.342 1819.65 235.476 Q1817.61 236.587 1814.74 236.587 Q1810.04 236.587 1807.08 232.837 Q1804.14 229.087 1804.14 222.976 Q1804.14 216.865 1807.08 213.115 Q1810.04 209.365 1814.74 209.365 Q1817.61 209.365 1819.65 210.499 Q1821.71 211.61 1823.05 213.925 M1808.54 222.976 Q1808.54 227.675 1810.46 230.36 Q1812.4 233.022 1815.78 233.022 Q1819.16 233.022 1821.11 230.36 Q1823.05 227.675 1823.05 222.976 Q1823.05 218.277 1821.11 215.615 Q1819.16 212.93 1815.78 212.93 Q1812.4 212.93 1810.46 215.615 Q1808.54 218.277 1808.54 222.976 Z" fill="#000000" fill-rule="evenodd" fill-opacity="1" /><path clip-path="url(#clip060)" d="M1853.14 213.925 L1853.14 199.897 L1857.4 199.897 L1857.4 235.916 L1853.14 235.916 L1853.14 232.027 Q1851.8 234.342 1849.74 235.476 Q1847.7 236.587 1844.83 236.587 Q1840.13 236.587 1837.17 232.837 Q1834.23 229.087 1834.23 222.976 Q1834.23 216.865 1837.17 213.115 Q1840.13 209.365 1844.83 209.365 Q1847.7 209.365 1849.74 210.499 Q1851.8 211.61 1853.14 213.925 M1838.63 222.976 Q1838.63 227.675 1840.55 230.36 Q1842.5 233.022 1845.88 233.022 Q1849.26 233.022 1851.2 230.36 Q1853.14 227.675 1853.14 222.976 Q1853.14 218.277 1851.2 215.615 Q1849.26 212.93 1845.88 212.93 Q1842.5 212.93 1840.55 215.615 Q1838.63 218.277 1838.63 222.976 Z" fill="#000000" fill-rule="evenodd" fill-opacity="1" /><path clip-path="url(#clip060)" d="M1866.18 199.897 L1870.44 199.897 L1870.44 235.916 L1866.18 235.916 L1866.18 199.897 Z" fill="#000000" fill-rule="evenodd" fill-opacity="1" /><path clip-path="url(#clip060)" d="M1901.52 221.888 L1901.52 223.971 L1881.94 223.971 Q1882.22 228.369 1884.58 230.684 Q1886.96 232.976 1891.2 232.976 Q1893.65 232.976 1895.94 232.374 Q1898.26 231.772 1900.53 230.569 L1900.53 234.596 Q1898.24 235.568 1895.83 236.078 Q1893.42 236.587 1890.94 236.587 Q1884.74 236.587 1881.11 232.976 Q1877.5 229.365 1877.5 223.207 Q1877.5 216.842 1880.92 213.115 Q1884.37 209.365 1890.2 209.365 Q1895.44 209.365 1898.47 212.745 Q1901.52 216.101 1901.52 221.888 M1897.26 220.638 Q1897.22 217.143 1895.3 215.059 Q1893.4 212.976 1890.25 212.976 Q1886.69 212.976 1884.53 214.99 Q1882.4 217.004 1882.08 220.661 L1897.26 220.638 Z" fill="#000000" fill-rule="evenodd" fill-opacity="1" /><path clip-path="url(#clip060)" d="M1924.32 235.198 L1924.32 230.939 Q1926.08 231.772 1927.89 232.212 Q1929.69 232.652 1931.43 232.652 Q1936.06 232.652 1938.49 229.55 Q1940.94 226.425 1941.29 220.082 Q1939.95 222.073 1937.89 223.138 Q1935.83 224.203 1933.33 224.203 Q1928.14 224.203 1925.11 221.078 Q1922.1 217.93 1922.1 212.49 Q1922.1 207.166 1925.25 203.948 Q1928.4 200.731 1933.63 200.731 Q1939.62 200.731 1942.77 205.337 Q1945.94 209.92 1945.94 218.67 Q1945.94 226.842 1942.06 231.726 Q1938.19 236.587 1931.64 236.587 Q1929.88 236.587 1928.07 236.24 Q1926.27 235.893 1924.32 235.198 M1933.63 220.545 Q1936.78 220.545 1938.61 218.393 Q1940.46 216.24 1940.46 212.49 Q1940.46 208.763 1938.61 206.61 Q1936.78 204.434 1933.63 204.434 Q1930.48 204.434 1928.63 206.61 Q1926.8 208.763 1926.8 212.49 Q1926.8 216.24 1928.63 218.393 Q1930.48 220.545 1933.63 220.545 Z" fill="#000000" fill-rule="evenodd" fill-opacity="1" /><path clip-path="url(#clip060)" d="M1954.39 201.356 L1972.75 201.356 L1972.75 205.291 L1958.68 205.291 L1958.68 213.763 Q1959.69 213.416 1960.71 213.254 Q1961.73 213.069 1962.75 213.069 Q1968.54 213.069 1971.92 216.24 Q1975.3 219.411 1975.3 224.828 Q1975.3 230.406 1971.82 233.508 Q1968.35 236.587 1962.03 236.587 Q1959.86 236.587 1957.59 236.217 Q1955.34 235.846 1952.94 235.106 L1952.94 230.406 Q1955.02 231.541 1957.24 232.096 Q1959.46 232.652 1961.94 232.652 Q1965.94 232.652 1968.28 230.545 Q1970.62 228.439 1970.62 224.828 Q1970.62 221.217 1968.28 219.11 Q1965.94 217.004 1961.94 217.004 Q1960.06 217.004 1958.19 217.42 Q1956.34 217.837 1954.39 218.717 L1954.39 201.356 Z" fill="#000000" fill-rule="evenodd" fill-opacity="1" /><path clip-path="url(#clip060)" d="M2013.91 220.707 Q2011.89 220.707 2010.74 222.42 Q2009.6 224.133 2009.6 227.189 Q2009.6 230.198 2010.74 231.934 Q2011.89 233.647 2013.91 233.647 Q2015.87 233.647 2017.01 231.934 Q2018.17 230.198 2018.17 227.189 Q2018.17 224.157 2017.01 222.444 Q2015.87 220.707 2013.91 220.707 M2013.91 217.768 Q2017.56 217.768 2019.72 220.314 Q2021.87 222.86 2021.87 227.189 Q2021.87 231.518 2019.69 234.064 Q2017.54 236.587 2013.91 236.587 Q2010.2 236.587 2008.05 234.064 Q2005.9 231.518 2005.9 227.189 Q2005.9 222.837 2008.05 220.314 Q2010.23 217.768 2013.91 217.768 M1990.02 203.671 Q1988.03 203.671 1986.87 205.407 Q1985.74 207.12 1985.74 210.129 Q1985.74 213.184 1986.87 214.897 Q1988 216.61 1990.02 216.61 Q1992.03 216.61 1993.17 214.897 Q1994.32 213.184 1994.32 210.129 Q1994.32 207.143 1993.17 205.407 Q1992.01 203.671 1990.02 203.671 M2010.92 200.731 L2014.62 200.731 L1993 236.587 L1989.3 236.587 L2010.92 200.731 M1990.02 200.731 Q1993.68 200.731 1995.85 203.277 Q1998.03 205.8 1998.03 210.129 Q1998.03 214.504 1995.85 217.027 Q1993.7 219.55 1990.02 219.55 Q1986.34 219.55 1984.18 217.027 Q1982.06 214.481 1982.06 210.129 Q1982.06 205.823 1984.21 203.277 Q1986.36 200.731 1990.02 200.731 Z" fill="#000000" fill-rule="evenodd" fill-opacity="1" /><path clip-path="url(#clip060)" d="M2058.24 204.527 Q2053.14 204.527 2050.13 208.323 Q2047.15 212.12 2047.15 218.67 Q2047.15 225.198 2050.13 228.994 Q2053.14 232.791 2058.24 232.791 Q2063.33 232.791 2066.29 228.994 Q2069.28 225.198 2069.28 218.67 Q2069.28 212.12 2066.29 208.323 Q2063.33 204.527 2058.24 204.527 M2064.79 235.291 L2070.94 242.027 L2065.3 242.027 L2060.18 236.494 Q2059.42 236.541 2059 236.564 Q2058.61 236.587 2058.24 236.587 Q2050.94 236.587 2046.57 231.726 Q2042.22 226.842 2042.22 218.67 Q2042.22 210.476 2046.57 205.615 Q2050.94 200.731 2058.24 200.731 Q2065.5 200.731 2069.86 205.615 Q2074.21 210.476 2074.21 218.67 Q2074.21 224.689 2071.78 228.971 Q2069.37 233.254 2064.79 235.291 Z" fill="#000000" fill-rule="evenodd" fill-opacity="1" /><path clip-path="url(#clip060)" d="M2080.9 225.684 L2080.9 209.99 L2085.16 209.99 L2085.16 225.522 Q2085.16 229.203 2086.59 231.055 Q2088.03 232.883 2090.9 232.883 Q2094.35 232.883 2096.34 230.684 Q2098.35 228.485 2098.35 224.689 L2098.35 209.99 L2102.61 209.99 L2102.61 235.916 L2098.35 235.916 L2098.35 231.934 Q2096.8 234.295 2094.74 235.453 Q2092.7 236.587 2089.99 236.587 Q2085.53 236.587 2083.21 233.809 Q2080.9 231.031 2080.9 225.684 M2091.61 209.365 L2091.61 209.365 Z" fill="#000000" fill-rule="evenodd" fill-opacity="1" /><path clip-path="url(#clip060)" d="M2123.17 222.883 Q2118 222.883 2116.01 224.064 Q2114.02 225.244 2114.02 228.092 Q2114.02 230.36 2115.5 231.703 Q2117.01 233.022 2119.58 233.022 Q2123.12 233.022 2125.25 230.522 Q2127.4 227.999 2127.4 223.832 L2127.4 222.883 L2123.17 222.883 M2131.66 221.124 L2131.66 235.916 L2127.4 235.916 L2127.4 231.981 Q2125.94 234.342 2123.77 235.476 Q2121.59 236.587 2118.44 236.587 Q2114.46 236.587 2112.1 234.365 Q2109.76 232.119 2109.76 228.369 Q2109.76 223.994 2112.68 221.772 Q2115.62 219.55 2121.43 219.55 L2127.4 219.55 L2127.4 219.133 Q2127.4 216.194 2125.46 214.596 Q2123.54 212.976 2120.04 212.976 Q2117.82 212.976 2115.71 213.508 Q2113.61 214.041 2111.66 215.106 L2111.66 211.17 Q2114 210.268 2116.2 209.828 Q2118.4 209.365 2120.48 209.365 Q2126.11 209.365 2128.88 212.282 Q2131.66 215.198 2131.66 221.124 Z" fill="#000000" fill-rule="evenodd" fill-opacity="1" /><path clip-path="url(#clip060)" d="M2161.98 220.268 L2161.98 235.916 L2157.73 235.916 L2157.73 220.407 Q2157.73 216.726 2156.29 214.897 Q2154.86 213.069 2151.98 213.069 Q2148.54 213.069 2146.55 215.268 Q2144.55 217.467 2144.55 221.263 L2144.55 235.916 L2140.27 235.916 L2140.27 209.99 L2144.55 209.99 L2144.55 214.018 Q2146.08 211.68 2148.14 210.522 Q2150.23 209.365 2152.93 209.365 Q2157.4 209.365 2159.69 212.143 Q2161.98 214.897 2161.98 220.268 Z" fill="#000000" fill-rule="evenodd" fill-opacity="1" /><path clip-path="url(#clip060)" d="M2174.69 202.629 L2174.69 209.99 L2183.47 209.99 L2183.47 213.3 L2174.69 213.3 L2174.69 227.374 Q2174.69 230.545 2175.55 231.448 Q2176.43 232.351 2179.09 232.351 L2183.47 232.351 L2183.47 235.916 L2179.09 235.916 Q2174.16 235.916 2172.29 234.087 Q2170.41 232.235 2170.41 227.374 L2170.41 213.3 L2167.29 213.3 L2167.29 209.99 L2170.41 209.99 L2170.41 202.629 L2174.69 202.629 Z" fill="#000000" fill-rule="evenodd" fill-opacity="1" /><path clip-path="url(#clip060)" d="M2189.07 209.99 L2193.33 209.99 L2193.33 235.916 L2189.07 235.916 L2189.07 209.99 M2189.07 199.897 L2193.33 199.897 L2193.33 205.291 L2189.07 205.291 L2189.07 199.897 Z" fill="#000000" fill-rule="evenodd" fill-opacity="1" /><path clip-path="url(#clip060)" d="M2202.24 199.897 L2206.5 199.897 L2206.5 235.916 L2202.24 235.916 L2202.24 199.897 Z" fill="#000000" fill-rule="evenodd" fill-opacity="1" /><path clip-path="url(#clip060)" d="M2237.59 221.888 L2237.59 223.971 L2218 223.971 Q2218.28 228.369 2220.64 230.684 Q2223.03 232.976 2227.26 232.976 Q2229.72 232.976 2232.01 232.374 Q2234.32 231.772 2236.59 230.569 L2236.59 234.596 Q2234.3 235.568 2231.89 236.078 Q2229.48 236.587 2227.01 236.587 Q2220.8 236.587 2217.17 232.976 Q2213.56 229.365 2213.56 223.207 Q2213.56 216.842 2216.98 213.115 Q2220.43 209.365 2226.27 209.365 Q2231.5 209.365 2234.53 212.745 Q2237.59 216.101 2237.59 221.888 M2233.33 220.638 Q2233.28 217.143 2231.36 215.059 Q2229.46 212.976 2226.31 212.976 Q2222.75 212.976 2220.6 214.99 Q2218.47 217.004 2218.14 220.661 L2233.33 220.638 Z" fill="#000000" fill-rule="evenodd" fill-opacity="1" /></svg>
