<?xml version="1.0" encoding="utf-8"?>
<svg xmlns="http://www.w3.org/2000/svg" xmlns:xlink="http://www.w3.org/1999/xlink" width="600" height="400" viewBox="0 0 2400 1600">
<defs>
  <clipPath id="clip180">
    <rect x="0" y="0" width="2400" height="1600"/>
  </clipPath>
</defs>
<path clip-path="url(#clip180)" d="
M0 1600 L2400 1600 L2400 0 L0 0  Z
  " fill="#ffffff" fill-rule="evenodd" fill-opacity="1"/>
<defs>
  <clipPath id="clip181">
    <rect x="480" y="0" width="1681" height="1600"/>
  </clipPath>
</defs>
<path clip-path="url(#clip180)" d="
M279.704 1423.18 L2352.76 1423.18 L2352.76 123.472 L279.704 123.472  Z
  " fill="#ffffff" fill-rule="evenodd" fill-opacity="1"/>
<defs>
  <clipPath id="clip182">
    <rect x="279" y="123" width="2074" height="1301"/>
  </clipPath>
</defs>
<polyline clip-path="url(#clip182)" style="stroke:#000000; stroke-linecap:butt; stroke-linejoin:round; stroke-width:2; stroke-opacity:0.1; fill:none" points="
  338.375,1423.18 338.375,123.472 
  "/>
<polyline clip-path="url(#clip182)" style="stroke:#000000; stroke-linecap:butt; stroke-linejoin:round; stroke-width:2; stroke-opacity:0.1; fill:none" points="
  693.959,1423.18 693.959,123.472 
  "/>
<polyline clip-path="url(#clip182)" style="stroke:#000000; stroke-linecap:butt; stroke-linejoin:round; stroke-width:2; stroke-opacity:0.1; fill:none" points="
  1049.54,1423.18 1049.54,123.472 
  "/>
<polyline clip-path="url(#clip182)" style="stroke:#000000; stroke-linecap:butt; stroke-linejoin:round; stroke-width:2; stroke-opacity:0.1; fill:none" points="
  1405.13,1423.18 1405.13,123.472 
  "/>
<polyline clip-path="url(#clip182)" style="stroke:#000000; stroke-linecap:butt; stroke-linejoin:round; stroke-width:2; stroke-opacity:0.1; fill:none" points="
  1760.71,1423.18 1760.71,123.472 
  "/>
<polyline clip-path="url(#clip182)" style="stroke:#000000; stroke-linecap:butt; stroke-linejoin:round; stroke-width:2; stroke-opacity:0.1; fill:none" points="
  2116.29,1423.18 2116.29,123.472 
  "/>
<polyline clip-path="url(#clip180)" style="stroke:#000000; stroke-linecap:butt; stroke-linejoin:round; stroke-width:4; stroke-opacity:1; fill:none" points="
  279.704,1423.18 2352.76,1423.18 
  "/>
<polyline clip-path="url(#clip180)" style="stroke:#000000; stroke-linecap:butt; stroke-linejoin:round; stroke-width:4; stroke-opacity:1; fill:none" points="
  338.375,1423.18 338.375,1404.28 
  "/>
<polyline clip-path="url(#clip180)" style="stroke:#000000; stroke-linecap:butt; stroke-linejoin:round; stroke-width:4; stroke-opacity:1; fill:none" points="
  693.959,1423.18 693.959,1404.28 
  "/>
<polyline clip-path="url(#clip180)" style="stroke:#000000; stroke-linecap:butt; stroke-linejoin:round; stroke-width:4; stroke-opacity:1; fill:none" points="
  1049.54,1423.18 1049.54,1404.28 
  "/>
<polyline clip-path="url(#clip180)" style="stroke:#000000; stroke-linecap:butt; stroke-linejoin:round; stroke-width:4; stroke-opacity:1; fill:none" points="
  1405.13,1423.18 1405.13,1404.28 
  "/>
<polyline clip-path="url(#clip180)" style="stroke:#000000; stroke-linecap:butt; stroke-linejoin:round; stroke-width:4; stroke-opacity:1; fill:none" points="
  1760.71,1423.18 1760.71,1404.28 
  "/>
<polyline clip-path="url(#clip180)" style="stroke:#000000; stroke-linecap:butt; stroke-linejoin:round; stroke-width:4; stroke-opacity:1; fill:none" points="
  2116.29,1423.18 2116.29,1404.28 
  "/>
<path clip-path="url(#clip180)" d="M338.375 1454.1 Q334.764 1454.1 332.935 1457.66 Q331.13 1461.2 331.13 1468.33 Q331.13 1475.44 332.935 1479.01 Q334.764 1482.55 338.375 1482.55 Q342.009 1482.55 343.815 1479.01 Q345.644 1475.44 345.644 1468.33 Q345.644 1461.2 343.815 1457.66 Q342.009 1454.1 338.375 1454.1 M338.375 1450.39 Q344.185 1450.39 347.241 1455 Q350.32 1459.58 350.32 1468.33 Q350.32 1477.06 347.241 1481.67 Q344.185 1486.25 338.375 1486.25 Q332.565 1486.25 329.486 1481.67 Q326.431 1477.06 326.431 1468.33 Q326.431 1459.58 329.486 1455 Q332.565 1450.39 338.375 1450.39 Z" fill="#000000" fill-rule="evenodd" fill-opacity="1" /><path clip-path="url(#clip180)" d="M653.565 1481.64 L661.204 1481.64 L661.204 1455.28 L652.894 1456.95 L652.894 1452.69 L661.158 1451.02 L665.834 1451.02 L665.834 1481.64 L673.473 1481.64 L673.473 1485.58 L653.565 1485.58 L653.565 1481.64 Z" fill="#000000" fill-rule="evenodd" fill-opacity="1" /><path clip-path="url(#clip180)" d="M692.917 1454.1 Q689.306 1454.1 687.477 1457.66 Q685.672 1461.2 685.672 1468.33 Q685.672 1475.44 687.477 1479.01 Q689.306 1482.55 692.917 1482.55 Q696.551 1482.55 698.357 1479.01 Q700.186 1475.44 700.186 1468.33 Q700.186 1461.2 698.357 1457.66 Q696.551 1454.1 692.917 1454.1 M692.917 1450.39 Q698.727 1450.39 701.783 1455 Q704.861 1459.58 704.861 1468.33 Q704.861 1477.06 701.783 1481.67 Q698.727 1486.25 692.917 1486.25 Q687.107 1486.25 684.028 1481.67 Q680.973 1477.06 680.973 1468.33 Q680.973 1459.58 684.028 1455 Q687.107 1450.39 692.917 1450.39 Z" fill="#000000" fill-rule="evenodd" fill-opacity="1" /><path clip-path="url(#clip180)" d="M723.079 1454.1 Q719.468 1454.1 717.639 1457.66 Q715.834 1461.2 715.834 1468.33 Q715.834 1475.44 717.639 1479.01 Q719.468 1482.55 723.079 1482.55 Q726.713 1482.55 728.519 1479.01 Q730.347 1475.44 730.347 1468.33 Q730.347 1461.2 728.519 1457.66 Q726.713 1454.1 723.079 1454.1 M723.079 1450.39 Q728.889 1450.39 731.945 1455 Q735.023 1459.58 735.023 1468.33 Q735.023 1477.06 731.945 1481.67 Q728.889 1486.25 723.079 1486.25 Q717.269 1486.25 714.19 1481.67 Q711.135 1477.06 711.135 1468.33 Q711.135 1459.58 714.19 1455 Q717.269 1450.39 723.079 1450.39 Z" fill="#000000" fill-rule="evenodd" fill-opacity="1" /><path clip-path="url(#clip180)" d="M1013.23 1481.64 L1029.55 1481.64 L1029.55 1485.58 L1007.61 1485.58 L1007.61 1481.64 Q1010.27 1478.89 1014.85 1474.26 Q1019.46 1469.61 1020.64 1468.27 Q1022.89 1465.74 1023.77 1464.01 Q1024.67 1462.25 1024.67 1460.56 Q1024.67 1457.8 1022.73 1456.07 Q1020.8 1454.33 1017.7 1454.33 Q1015.5 1454.33 1013.05 1455.09 Q1010.62 1455.86 1007.84 1457.41 L1007.84 1452.69 Q1010.67 1451.55 1013.12 1450.97 Q1015.57 1450.39 1017.61 1450.39 Q1022.98 1450.39 1026.17 1453.08 Q1029.37 1455.77 1029.37 1460.26 Q1029.37 1462.39 1028.56 1464.31 Q1027.77 1466.2 1025.67 1468.8 Q1025.09 1469.47 1021.98 1472.69 Q1018.88 1475.88 1013.23 1481.64 Z" fill="#000000" fill-rule="evenodd" fill-opacity="1" /><path clip-path="url(#clip180)" d="M1049.37 1454.1 Q1045.76 1454.1 1043.93 1457.66 Q1042.12 1461.2 1042.12 1468.33 Q1042.12 1475.44 1043.93 1479.01 Q1045.76 1482.55 1049.37 1482.55 Q1053 1482.55 1054.81 1479.01 Q1056.64 1475.44 1056.64 1468.33 Q1056.64 1461.2 1054.81 1457.66 Q1053 1454.1 1049.37 1454.1 M1049.37 1450.39 Q1055.18 1450.39 1058.23 1455 Q1061.31 1459.58 1061.31 1468.33 Q1061.31 1477.06 1058.23 1481.67 Q1055.18 1486.25 1049.37 1486.25 Q1043.56 1486.25 1040.48 1481.67 Q1037.42 1477.06 1037.42 1468.33 Q1037.42 1459.58 1040.48 1455 Q1043.56 1450.39 1049.37 1450.39 Z" fill="#000000" fill-rule="evenodd" fill-opacity="1" /><path clip-path="url(#clip180)" d="M1079.53 1454.1 Q1075.92 1454.1 1074.09 1457.66 Q1072.29 1461.2 1072.29 1468.33 Q1072.29 1475.44 1074.09 1479.01 Q1075.92 1482.55 1079.53 1482.55 Q1083.16 1482.55 1084.97 1479.01 Q1086.8 1475.44 1086.8 1468.33 Q1086.8 1461.2 1084.97 1457.66 Q1083.16 1454.1 1079.53 1454.1 M1079.53 1450.39 Q1085.34 1450.39 1088.4 1455 Q1091.47 1459.58 1091.47 1468.33 Q1091.47 1477.06 1088.4 1481.67 Q1085.34 1486.25 1079.53 1486.25 Q1073.72 1486.25 1070.64 1481.67 Q1067.59 1477.06 1067.59 1468.33 Q1067.59 1459.58 1070.64 1455 Q1073.72 1450.39 1079.53 1450.39 Z" fill="#000000" fill-rule="evenodd" fill-opacity="1" /><path clip-path="url(#clip180)" d="M1378.89 1466.95 Q1382.24 1467.66 1384.12 1469.93 Q1386.02 1472.2 1386.02 1475.53 Q1386.02 1480.65 1382.5 1483.45 Q1378.98 1486.25 1372.5 1486.25 Q1370.32 1486.25 1368.01 1485.81 Q1365.72 1485.39 1363.26 1484.54 L1363.26 1480.02 Q1365.21 1481.16 1367.52 1481.74 Q1369.84 1482.32 1372.36 1482.32 Q1376.76 1482.32 1379.05 1480.58 Q1381.36 1478.84 1381.36 1475.53 Q1381.36 1472.48 1379.21 1470.77 Q1377.08 1469.03 1373.26 1469.03 L1369.23 1469.03 L1369.23 1465.19 L1373.45 1465.19 Q1376.9 1465.19 1378.73 1463.82 Q1380.55 1462.43 1380.55 1459.84 Q1380.55 1457.18 1378.66 1455.77 Q1376.78 1454.33 1373.26 1454.33 Q1371.34 1454.33 1369.14 1454.75 Q1366.94 1455.16 1364.3 1456.04 L1364.3 1451.88 Q1366.97 1451.14 1369.28 1450.77 Q1371.62 1450.39 1373.68 1450.39 Q1379 1450.39 1382.11 1452.83 Q1385.21 1455.23 1385.21 1459.35 Q1385.21 1462.22 1383.56 1464.21 Q1381.92 1466.18 1378.89 1466.95 Z" fill="#000000" fill-rule="evenodd" fill-opacity="1" /><path clip-path="url(#clip180)" d="M1404.88 1454.1 Q1401.27 1454.1 1399.44 1457.66 Q1397.64 1461.2 1397.64 1468.33 Q1397.64 1475.44 1399.44 1479.01 Q1401.27 1482.55 1404.88 1482.55 Q1408.52 1482.55 1410.32 1479.01 Q1412.15 1475.44 1412.15 1468.33 Q1412.15 1461.2 1410.32 1457.66 Q1408.52 1454.1 1404.88 1454.1 M1404.88 1450.39 Q1410.69 1450.39 1413.75 1455 Q1416.83 1459.58 1416.83 1468.33 Q1416.83 1477.06 1413.75 1481.67 Q1410.69 1486.25 1404.88 1486.25 Q1399.07 1486.25 1395.99 1481.67 Q1392.94 1477.06 1392.94 1468.33 Q1392.94 1459.58 1395.99 1455 Q1399.07 1450.39 1404.88 1450.39 Z" fill="#000000" fill-rule="evenodd" fill-opacity="1" /><path clip-path="url(#clip180)" d="M1435.04 1454.1 Q1431.43 1454.1 1429.6 1457.66 Q1427.8 1461.2 1427.8 1468.33 Q1427.8 1475.44 1429.6 1479.01 Q1431.43 1482.55 1435.04 1482.55 Q1438.68 1482.55 1440.48 1479.01 Q1442.31 1475.44 1442.31 1468.33 Q1442.31 1461.2 1440.48 1457.66 Q1438.68 1454.1 1435.04 1454.1 M1435.04 1450.39 Q1440.85 1450.39 1443.91 1455 Q1446.99 1459.58 1446.99 1468.33 Q1446.99 1477.06 1443.91 1481.67 Q1440.85 1486.25 1435.04 1486.25 Q1429.23 1486.25 1426.16 1481.67 Q1423.1 1477.06 1423.1 1468.33 Q1423.1 1459.58 1426.16 1455 Q1429.23 1450.39 1435.04 1450.39 Z" fill="#000000" fill-rule="evenodd" fill-opacity="1" /><path clip-path="url(#clip180)" d="M1733.8 1455.09 L1721.99 1473.54 L1733.8 1473.54 L1733.8 1455.09 M1732.57 1451.02 L1738.45 1451.02 L1738.45 1473.54 L1743.38 1473.54 L1743.38 1477.43 L1738.45 1477.43 L1738.45 1485.58 L1733.8 1485.58 L1733.8 1477.43 L1718.2 1477.43 L1718.2 1472.92 L1732.57 1451.02 Z" fill="#000000" fill-rule="evenodd" fill-opacity="1" /><path clip-path="url(#clip180)" d="M1761.11 1454.1 Q1757.5 1454.1 1755.67 1457.66 Q1753.87 1461.2 1753.87 1468.33 Q1753.87 1475.44 1755.67 1479.01 Q1757.5 1482.55 1761.11 1482.55 Q1764.75 1482.55 1766.55 1479.01 Q1768.38 1475.44 1768.38 1468.33 Q1768.38 1461.2 1766.55 1457.66 Q1764.75 1454.1 1761.11 1454.1 M1761.11 1450.39 Q1766.92 1450.39 1769.98 1455 Q1773.06 1459.58 1773.06 1468.33 Q1773.06 1477.06 1769.98 1481.67 Q1766.92 1486.25 1761.11 1486.25 Q1755.3 1486.25 1752.23 1481.67 Q1749.17 1477.06 1749.17 1468.33 Q1749.17 1459.58 1752.23 1455 Q1755.3 1450.39 1761.11 1450.39 Z" fill="#000000" fill-rule="evenodd" fill-opacity="1" /><path clip-path="url(#clip180)" d="M1791.28 1454.1 Q1787.67 1454.1 1785.84 1457.66 Q1784.03 1461.2 1784.03 1468.33 Q1784.03 1475.44 1785.84 1479.01 Q1787.67 1482.55 1791.28 1482.55 Q1794.91 1482.55 1796.72 1479.01 Q1798.54 1475.44 1798.54 1468.33 Q1798.54 1461.2 1796.72 1457.66 Q1794.91 1454.1 1791.28 1454.1 M1791.28 1450.39 Q1797.09 1450.39 1800.14 1455 Q1803.22 1459.58 1803.22 1468.33 Q1803.22 1477.06 1800.14 1481.67 Q1797.09 1486.25 1791.28 1486.25 Q1785.47 1486.25 1782.39 1481.67 Q1779.33 1477.06 1779.33 1468.33 Q1779.33 1459.58 1782.39 1455 Q1785.47 1450.39 1791.28 1450.39 Z" fill="#000000" fill-rule="evenodd" fill-opacity="1" /><path clip-path="url(#clip180)" d="M2075.91 1451.02 L2094.27 1451.02 L2094.27 1454.96 L2080.19 1454.96 L2080.19 1463.43 Q2081.21 1463.08 2082.23 1462.92 Q2083.25 1462.73 2084.27 1462.73 Q2090.05 1462.73 2093.43 1465.9 Q2096.81 1469.08 2096.81 1474.49 Q2096.81 1480.07 2093.34 1483.17 Q2089.87 1486.25 2083.55 1486.25 Q2081.37 1486.25 2079.11 1485.88 Q2076.86 1485.51 2074.45 1484.77 L2074.45 1480.07 Q2076.54 1481.2 2078.76 1481.76 Q2080.98 1482.32 2083.46 1482.32 Q2087.46 1482.32 2089.8 1480.21 Q2092.14 1478.1 2092.14 1474.49 Q2092.14 1470.88 2089.8 1468.77 Q2087.46 1466.67 2083.46 1466.67 Q2081.58 1466.67 2079.71 1467.08 Q2077.86 1467.5 2075.91 1468.38 L2075.91 1451.02 Z" fill="#000000" fill-rule="evenodd" fill-opacity="1" /><path clip-path="url(#clip180)" d="M2116.03 1454.1 Q2112.42 1454.1 2110.59 1457.66 Q2108.78 1461.2 2108.78 1468.33 Q2108.78 1475.44 2110.59 1479.01 Q2112.42 1482.55 2116.03 1482.55 Q2119.66 1482.55 2121.47 1479.01 Q2123.3 1475.44 2123.3 1468.33 Q2123.3 1461.2 2121.47 1457.66 Q2119.66 1454.1 2116.03 1454.1 M2116.03 1450.39 Q2121.84 1450.39 2124.89 1455 Q2127.97 1459.58 2127.97 1468.33 Q2127.97 1477.06 2124.89 1481.67 Q2121.84 1486.25 2116.03 1486.25 Q2110.22 1486.25 2107.14 1481.67 Q2104.08 1477.06 2104.08 1468.33 Q2104.08 1459.58 2107.14 1455 Q2110.22 1450.39 2116.03 1450.39 Z" fill="#000000" fill-rule="evenodd" fill-opacity="1" /><path clip-path="url(#clip180)" d="M2146.19 1454.1 Q2142.58 1454.1 2140.75 1457.66 Q2138.94 1461.2 2138.94 1468.33 Q2138.94 1475.44 2140.75 1479.01 Q2142.58 1482.55 2146.19 1482.55 Q2149.82 1482.55 2151.63 1479.01 Q2153.46 1475.44 2153.46 1468.33 Q2153.46 1461.2 2151.63 1457.66 Q2149.82 1454.1 2146.19 1454.1 M2146.19 1450.39 Q2152 1450.39 2155.05 1455 Q2158.13 1459.58 2158.13 1468.33 Q2158.13 1477.06 2155.05 1481.67 Q2152 1486.25 2146.19 1486.25 Q2140.38 1486.25 2137.3 1481.67 Q2134.24 1477.06 2134.24 1468.33 Q2134.24 1459.58 2137.3 1455 Q2140.38 1450.39 2146.19 1450.39 Z" fill="#000000" fill-rule="evenodd" fill-opacity="1" /><path clip-path="url(#clip180)" d="M1315.29 1522.27 L1315.29 1532.4 L1327.35 1532.4 L1327.35 1536.95 L1315.29 1536.95 L1315.29 1556.3 Q1315.29 1560.66 1316.47 1561.9 Q1317.68 1563.14 1321.34 1563.14 L1327.35 1563.14 L1327.35 1568.04 L1321.34 1568.04 Q1314.56 1568.04 1311.98 1565.53 Q1309.4 1562.98 1309.4 1556.3 L1309.4 1536.95 L1305.11 1536.95 L1305.11 1532.4 L1309.4 1532.4 L1309.4 1522.27 L1315.29 1522.27 Z" fill="#000000" fill-rule="evenodd" fill-opacity="1" /><polyline clip-path="url(#clip182)" style="stroke:#000000; stroke-linecap:butt; stroke-linejoin:round; stroke-width:2; stroke-opacity:0.1; fill:none" points="
  279.704,1387.18 2352.76,1387.18 
  "/>
<polyline clip-path="url(#clip182)" style="stroke:#000000; stroke-linecap:butt; stroke-linejoin:round; stroke-width:2; stroke-opacity:0.1; fill:none" points="
  279.704,1073.68 2352.76,1073.68 
  "/>
<polyline clip-path="url(#clip182)" style="stroke:#000000; stroke-linecap:butt; stroke-linejoin:round; stroke-width:2; stroke-opacity:0.1; fill:none" points="
  279.704,760.174 2352.76,760.174 
  "/>
<polyline clip-path="url(#clip182)" style="stroke:#000000; stroke-linecap:butt; stroke-linejoin:round; stroke-width:2; stroke-opacity:0.1; fill:none" points="
  279.704,446.668 2352.76,446.668 
  "/>
<polyline clip-path="url(#clip182)" style="stroke:#000000; stroke-linecap:butt; stroke-linejoin:round; stroke-width:2; stroke-opacity:0.1; fill:none" points="
  279.704,133.162 2352.76,133.162 
  "/>
<polyline clip-path="url(#clip180)" style="stroke:#000000; stroke-linecap:butt; stroke-linejoin:round; stroke-width:4; stroke-opacity:1; fill:none" points="
  279.704,1423.18 279.704,123.472 
  "/>
<polyline clip-path="url(#clip180)" style="stroke:#000000; stroke-linecap:butt; stroke-linejoin:round; stroke-width:4; stroke-opacity:1; fill:none" points="
  279.704,1387.18 298.602,1387.18 
  "/>
<polyline clip-path="url(#clip180)" style="stroke:#000000; stroke-linecap:butt; stroke-linejoin:round; stroke-width:4; stroke-opacity:1; fill:none" points="
  279.704,1073.68 298.602,1073.68 
  "/>
<polyline clip-path="url(#clip180)" style="stroke:#000000; stroke-linecap:butt; stroke-linejoin:round; stroke-width:4; stroke-opacity:1; fill:none" points="
  279.704,760.174 298.602,760.174 
  "/>
<polyline clip-path="url(#clip180)" style="stroke:#000000; stroke-linecap:butt; stroke-linejoin:round; stroke-width:4; stroke-opacity:1; fill:none" points="
  279.704,446.668 298.602,446.668 
  "/>
<polyline clip-path="url(#clip180)" style="stroke:#000000; stroke-linecap:butt; stroke-linejoin:round; stroke-width:4; stroke-opacity:1; fill:none" points="
  279.704,133.162 298.602,133.162 
  "/>
<path clip-path="url(#clip180)" d="M126.205 1372.98 Q122.593 1372.98 120.765 1376.55 Q118.959 1380.09 118.959 1387.22 Q118.959 1394.33 120.765 1397.89 Q122.593 1401.43 126.205 1401.43 Q129.839 1401.43 131.644 1397.89 Q133.473 1394.33 133.473 1387.22 Q133.473 1380.09 131.644 1376.55 Q129.839 1372.98 126.205 1372.98 M126.205 1369.28 Q132.015 1369.28 135.07 1373.89 Q138.149 1378.47 138.149 1387.22 Q138.149 1395.95 135.07 1400.55 Q132.015 1405.14 126.205 1405.14 Q120.394 1405.14 117.316 1400.55 Q114.26 1395.95 114.26 1387.22 Q114.26 1378.47 117.316 1373.89 Q120.394 1369.28 126.205 1369.28 Z" fill="#000000" fill-rule="evenodd" fill-opacity="1" /><path clip-path="url(#clip180)" d="M146.366 1398.59 L151.251 1398.59 L151.251 1404.46 L146.366 1404.46 L146.366 1398.59 Z" fill="#000000" fill-rule="evenodd" fill-opacity="1" /><path clip-path="url(#clip180)" d="M171.436 1372.98 Q167.825 1372.98 165.996 1376.55 Q164.19 1380.09 164.19 1387.22 Q164.19 1394.33 165.996 1397.89 Q167.825 1401.43 171.436 1401.43 Q175.07 1401.43 176.876 1397.89 Q178.704 1394.33 178.704 1387.22 Q178.704 1380.09 176.876 1376.55 Q175.07 1372.98 171.436 1372.98 M171.436 1369.28 Q177.246 1369.28 180.301 1373.89 Q183.38 1378.47 183.38 1387.22 Q183.38 1395.95 180.301 1400.55 Q177.246 1405.14 171.436 1405.14 Q165.626 1405.14 162.547 1400.55 Q159.491 1395.95 159.491 1387.22 Q159.491 1378.47 162.547 1373.89 Q165.626 1369.28 171.436 1369.28 Z" fill="#000000" fill-rule="evenodd" fill-opacity="1" /><path clip-path="url(#clip180)" d="M201.598 1372.98 Q197.987 1372.98 196.158 1376.55 Q194.352 1380.09 194.352 1387.22 Q194.352 1394.33 196.158 1397.89 Q197.987 1401.43 201.598 1401.43 Q205.232 1401.43 207.037 1397.89 Q208.866 1394.33 208.866 1387.22 Q208.866 1380.09 207.037 1376.55 Q205.232 1372.98 201.598 1372.98 M201.598 1369.28 Q207.408 1369.28 210.463 1373.89 Q213.542 1378.47 213.542 1387.22 Q213.542 1395.95 210.463 1400.55 Q207.408 1405.14 201.598 1405.14 Q195.787 1405.14 192.709 1400.55 Q189.653 1395.95 189.653 1387.22 Q189.653 1378.47 192.709 1373.89 Q195.787 1369.28 201.598 1369.28 Z" fill="#000000" fill-rule="evenodd" fill-opacity="1" /><path clip-path="url(#clip180)" d="M231.76 1372.98 Q228.148 1372.98 226.32 1376.55 Q224.514 1380.09 224.514 1387.22 Q224.514 1394.33 226.32 1397.89 Q228.148 1401.43 231.76 1401.43 Q235.394 1401.43 237.199 1397.89 Q239.028 1394.33 239.028 1387.22 Q239.028 1380.09 237.199 1376.55 Q235.394 1372.98 231.76 1372.98 M231.76 1369.28 Q237.57 1369.28 240.625 1373.89 Q243.704 1378.47 243.704 1387.22 Q243.704 1395.95 240.625 1400.55 Q237.57 1405.14 231.76 1405.14 Q225.949 1405.14 222.871 1400.55 Q219.815 1395.95 219.815 1387.22 Q219.815 1378.47 222.871 1373.89 Q225.949 1369.28 231.76 1369.28 Z" fill="#000000" fill-rule="evenodd" fill-opacity="1" /><path clip-path="url(#clip180)" d="M127.2 1059.48 Q123.589 1059.48 121.76 1063.04 Q119.955 1066.58 119.955 1073.71 Q119.955 1080.82 121.76 1084.39 Q123.589 1087.93 127.2 1087.93 Q130.834 1087.93 132.64 1084.39 Q134.468 1080.82 134.468 1073.71 Q134.468 1066.58 132.64 1063.04 Q130.834 1059.48 127.2 1059.48 M127.2 1055.77 Q133.01 1055.77 136.066 1060.38 Q139.144 1064.96 139.144 1073.71 Q139.144 1082.44 136.066 1087.05 Q133.01 1091.63 127.2 1091.63 Q121.39 1091.63 118.311 1087.05 Q115.256 1082.44 115.256 1073.71 Q115.256 1064.96 118.311 1060.38 Q121.39 1055.77 127.2 1055.77 Z" fill="#000000" fill-rule="evenodd" fill-opacity="1" /><path clip-path="url(#clip180)" d="M147.362 1085.08 L152.246 1085.08 L152.246 1090.96 L147.362 1090.96 L147.362 1085.08 Z" fill="#000000" fill-rule="evenodd" fill-opacity="1" /><path clip-path="url(#clip180)" d="M172.431 1059.48 Q168.82 1059.48 166.991 1063.04 Q165.186 1066.58 165.186 1073.71 Q165.186 1080.82 166.991 1084.39 Q168.82 1087.93 172.431 1087.93 Q176.065 1087.93 177.871 1084.39 Q179.7 1080.82 179.7 1073.71 Q179.7 1066.58 177.871 1063.04 Q176.065 1059.48 172.431 1059.48 M172.431 1055.77 Q178.241 1055.77 181.297 1060.38 Q184.376 1064.96 184.376 1073.71 Q184.376 1082.44 181.297 1087.05 Q178.241 1091.63 172.431 1091.63 Q166.621 1091.63 163.542 1087.05 Q160.487 1082.44 160.487 1073.71 Q160.487 1064.96 163.542 1060.38 Q166.621 1055.77 172.431 1055.77 Z" fill="#000000" fill-rule="evenodd" fill-opacity="1" /><path clip-path="url(#clip180)" d="M196.621 1087.02 L212.94 1087.02 L212.94 1090.96 L190.996 1090.96 L190.996 1087.02 Q193.658 1084.27 198.241 1079.64 Q202.848 1074.99 204.028 1073.64 Q206.274 1071.12 207.153 1069.39 Q208.056 1067.63 208.056 1065.94 Q208.056 1063.18 206.112 1061.45 Q204.19 1059.71 201.088 1059.71 Q198.889 1059.71 196.436 1060.47 Q194.005 1061.24 191.227 1062.79 L191.227 1058.07 Q194.051 1056.93 196.505 1056.35 Q198.959 1055.77 200.996 1055.77 Q206.366 1055.77 209.561 1058.46 Q212.755 1061.14 212.755 1065.64 Q212.755 1067.76 211.945 1069.69 Q211.158 1071.58 209.051 1074.18 Q208.473 1074.85 205.371 1078.07 Q202.269 1081.26 196.621 1087.02 Z" fill="#000000" fill-rule="evenodd" fill-opacity="1" /><path clip-path="url(#clip180)" d="M222.801 1056.4 L241.158 1056.4 L241.158 1060.33 L227.084 1060.33 L227.084 1068.81 Q228.102 1068.46 229.121 1068.3 Q230.139 1068.11 231.158 1068.11 Q236.945 1068.11 240.324 1071.28 Q243.704 1074.45 243.704 1079.87 Q243.704 1085.45 240.232 1088.55 Q236.76 1091.63 230.44 1091.63 Q228.264 1091.63 225.996 1091.26 Q223.75 1090.89 221.343 1090.15 L221.343 1085.45 Q223.426 1086.58 225.648 1087.14 Q227.871 1087.7 230.347 1087.7 Q234.352 1087.7 236.69 1085.59 Q239.028 1083.48 239.028 1079.87 Q239.028 1076.26 236.69 1074.15 Q234.352 1072.05 230.347 1072.05 Q228.473 1072.05 226.598 1072.46 Q224.746 1072.88 222.801 1073.76 L222.801 1056.4 Z" fill="#000000" fill-rule="evenodd" fill-opacity="1" /><path clip-path="url(#clip180)" d="M126.205 745.972 Q122.593 745.972 120.765 749.537 Q118.959 753.079 118.959 760.208 Q118.959 767.315 120.765 770.88 Q122.593 774.421 126.205 774.421 Q129.839 774.421 131.644 770.88 Q133.473 767.315 133.473 760.208 Q133.473 753.079 131.644 749.537 Q129.839 745.972 126.205 745.972 M126.205 742.269 Q132.015 742.269 135.07 746.875 Q138.149 751.458 138.149 760.208 Q138.149 768.935 135.07 773.542 Q132.015 778.125 126.205 778.125 Q120.394 778.125 117.316 773.542 Q114.26 768.935 114.26 760.208 Q114.26 751.458 117.316 746.875 Q120.394 742.269 126.205 742.269 Z" fill="#000000" fill-rule="evenodd" fill-opacity="1" /><path clip-path="url(#clip180)" d="M146.366 771.574 L151.251 771.574 L151.251 777.454 L146.366 777.454 L146.366 771.574 Z" fill="#000000" fill-rule="evenodd" fill-opacity="1" /><path clip-path="url(#clip180)" d="M171.436 745.972 Q167.825 745.972 165.996 749.537 Q164.19 753.079 164.19 760.208 Q164.19 767.315 165.996 770.88 Q167.825 774.421 171.436 774.421 Q175.07 774.421 176.876 770.88 Q178.704 767.315 178.704 760.208 Q178.704 753.079 176.876 749.537 Q175.07 745.972 171.436 745.972 M171.436 742.269 Q177.246 742.269 180.301 746.875 Q183.38 751.458 183.38 760.208 Q183.38 768.935 180.301 773.542 Q177.246 778.125 171.436 778.125 Q165.626 778.125 162.547 773.542 Q159.491 768.935 159.491 760.208 Q159.491 751.458 162.547 746.875 Q165.626 742.269 171.436 742.269 Z" fill="#000000" fill-rule="evenodd" fill-opacity="1" /><path clip-path="url(#clip180)" d="M191.644 742.894 L210 742.894 L210 746.829 L195.926 746.829 L195.926 755.301 Q196.945 754.954 197.963 754.792 Q198.982 754.607 200 754.607 Q205.787 754.607 209.167 757.778 Q212.547 760.949 212.547 766.366 Q212.547 771.944 209.074 775.046 Q205.602 778.125 199.283 778.125 Q197.107 778.125 194.838 777.755 Q192.593 777.384 190.186 776.643 L190.186 771.944 Q192.269 773.079 194.491 773.634 Q196.713 774.19 199.19 774.19 Q203.195 774.19 205.533 772.083 Q207.871 769.977 207.871 766.366 Q207.871 762.755 205.533 760.648 Q203.195 758.542 199.19 758.542 Q197.315 758.542 195.44 758.958 Q193.588 759.375 191.644 760.255 L191.644 742.894 Z" fill="#000000" fill-rule="evenodd" fill-opacity="1" /><path clip-path="url(#clip180)" d="M231.76 745.972 Q228.148 745.972 226.32 749.537 Q224.514 753.079 224.514 760.208 Q224.514 767.315 226.32 770.88 Q228.148 774.421 231.76 774.421 Q235.394 774.421 237.199 770.88 Q239.028 767.315 239.028 760.208 Q239.028 753.079 237.199 749.537 Q235.394 745.972 231.76 745.972 M231.76 742.269 Q237.57 742.269 240.625 746.875 Q243.704 751.458 243.704 760.208 Q243.704 768.935 240.625 773.542 Q237.57 778.125 231.76 778.125 Q225.949 778.125 222.871 773.542 Q219.815 768.935 219.815 760.208 Q219.815 751.458 222.871 746.875 Q225.949 742.269 231.76 742.269 Z" fill="#000000" fill-rule="evenodd" fill-opacity="1" /><path clip-path="url(#clip180)" d="M127.2 432.467 Q123.589 432.467 121.76 436.031 Q119.955 439.573 119.955 446.703 Q119.955 453.809 121.76 457.374 Q123.589 460.916 127.2 460.916 Q130.834 460.916 132.64 457.374 Q134.468 453.809 134.468 446.703 Q134.468 439.573 132.64 436.031 Q130.834 432.467 127.2 432.467 M127.2 428.763 Q133.01 428.763 136.066 433.369 Q139.144 437.953 139.144 446.703 Q139.144 455.429 136.066 460.036 Q133.01 464.619 127.2 464.619 Q121.39 464.619 118.311 460.036 Q115.256 455.429 115.256 446.703 Q115.256 437.953 118.311 433.369 Q121.39 428.763 127.2 428.763 Z" fill="#000000" fill-rule="evenodd" fill-opacity="1" /><path clip-path="url(#clip180)" d="M147.362 458.068 L152.246 458.068 L152.246 463.948 L147.362 463.948 L147.362 458.068 Z" fill="#000000" fill-rule="evenodd" fill-opacity="1" /><path clip-path="url(#clip180)" d="M172.431 432.467 Q168.82 432.467 166.991 436.031 Q165.186 439.573 165.186 446.703 Q165.186 453.809 166.991 457.374 Q168.82 460.916 172.431 460.916 Q176.065 460.916 177.871 457.374 Q179.7 453.809 179.7 446.703 Q179.7 439.573 177.871 436.031 Q176.065 432.467 172.431 432.467 M172.431 428.763 Q178.241 428.763 181.297 433.369 Q184.376 437.953 184.376 446.703 Q184.376 455.429 181.297 460.036 Q178.241 464.619 172.431 464.619 Q166.621 464.619 163.542 460.036 Q160.487 455.429 160.487 446.703 Q160.487 437.953 163.542 433.369 Q166.621 428.763 172.431 428.763 Z" fill="#000000" fill-rule="evenodd" fill-opacity="1" /><path clip-path="url(#clip180)" d="M191.413 429.388 L213.635 429.388 L213.635 431.379 L201.088 463.948 L196.204 463.948 L208.01 433.323 L191.413 433.323 L191.413 429.388 Z" fill="#000000" fill-rule="evenodd" fill-opacity="1" /><path clip-path="url(#clip180)" d="M222.801 429.388 L241.158 429.388 L241.158 433.323 L227.084 433.323 L227.084 441.795 Q228.102 441.448 229.121 441.286 Q230.139 441.101 231.158 441.101 Q236.945 441.101 240.324 444.272 Q243.704 447.443 243.704 452.86 Q243.704 458.439 240.232 461.541 Q236.76 464.619 230.44 464.619 Q228.264 464.619 225.996 464.249 Q223.75 463.879 221.343 463.138 L221.343 458.439 Q223.426 459.573 225.648 460.129 Q227.871 460.684 230.347 460.684 Q234.352 460.684 236.69 458.578 Q239.028 456.471 239.028 452.86 Q239.028 449.249 236.69 447.142 Q234.352 445.036 230.347 445.036 Q228.473 445.036 226.598 445.453 Q224.746 445.869 222.801 446.749 L222.801 429.388 Z" fill="#000000" fill-rule="evenodd" fill-opacity="1" /><path clip-path="url(#clip180)" d="M126.205 118.961 Q122.593 118.961 120.765 122.526 Q118.959 126.067 118.959 133.197 Q118.959 140.303 120.765 143.868 Q122.593 147.41 126.205 147.41 Q129.839 147.41 131.644 143.868 Q133.473 140.303 133.473 133.197 Q133.473 126.067 131.644 122.526 Q129.839 118.961 126.205 118.961 M126.205 115.257 Q132.015 115.257 135.07 119.864 Q138.149 124.447 138.149 133.197 Q138.149 141.924 135.07 146.53 Q132.015 151.114 126.205 151.114 Q120.394 151.114 117.316 146.53 Q114.26 141.924 114.26 133.197 Q114.26 124.447 117.316 119.864 Q120.394 115.257 126.205 115.257 Z" fill="#000000" fill-rule="evenodd" fill-opacity="1" /><path clip-path="url(#clip180)" d="M146.366 144.563 L151.251 144.563 L151.251 150.442 L146.366 150.442 L146.366 144.563 Z" fill="#000000" fill-rule="evenodd" fill-opacity="1" /><path clip-path="url(#clip180)" d="M162.246 146.507 L169.885 146.507 L169.885 120.142 L161.575 121.808 L161.575 117.549 L169.839 115.882 L174.514 115.882 L174.514 146.507 L182.153 146.507 L182.153 150.442 L162.246 150.442 L162.246 146.507 Z" fill="#000000" fill-rule="evenodd" fill-opacity="1" /><path clip-path="url(#clip180)" d="M201.598 118.961 Q197.987 118.961 196.158 122.526 Q194.352 126.067 194.352 133.197 Q194.352 140.303 196.158 143.868 Q197.987 147.41 201.598 147.41 Q205.232 147.41 207.037 143.868 Q208.866 140.303 208.866 133.197 Q208.866 126.067 207.037 122.526 Q205.232 118.961 201.598 118.961 M201.598 115.257 Q207.408 115.257 210.463 119.864 Q213.542 124.447 213.542 133.197 Q213.542 141.924 210.463 146.53 Q207.408 151.114 201.598 151.114 Q195.787 151.114 192.709 146.53 Q189.653 141.924 189.653 133.197 Q189.653 124.447 192.709 119.864 Q195.787 115.257 201.598 115.257 Z" fill="#000000" fill-rule="evenodd" fill-opacity="1" /><path clip-path="url(#clip180)" d="M231.76 118.961 Q228.148 118.961 226.32 122.526 Q224.514 126.067 224.514 133.197 Q224.514 140.303 226.32 143.868 Q228.148 147.41 231.76 147.41 Q235.394 147.41 237.199 143.868 Q239.028 140.303 239.028 133.197 Q239.028 126.067 237.199 122.526 Q235.394 118.961 231.76 118.961 M231.76 115.257 Q237.57 115.257 240.625 119.864 Q243.704 124.447 243.704 133.197 Q243.704 141.924 240.625 146.53 Q237.57 151.114 231.76 151.114 Q225.949 151.114 222.871 146.53 Q219.815 141.924 219.815 133.197 Q219.815 124.447 222.871 119.864 Q225.949 115.257 231.76 115.257 Z" fill="#000000" fill-rule="evenodd" fill-opacity="1" /><path clip-path="url(#clip180)" d="M28.3562 814.719 L28.3562 808.863 L64.0042 808.863 L64.0042 814.719 L28.3562 814.719 M14.479 814.719 L14.479 808.863 L21.895 808.863 L21.895 814.719 L14.479 814.719 Z" fill="#000000" fill-rule="evenodd" fill-opacity="1" /><path clip-path="url(#clip180)" d="M14.5426 782.54 Q21.8632 786.805 29.0246 788.874 Q36.186 790.943 43.5384 790.943 Q50.8908 790.943 58.1159 788.874 Q65.3091 786.774 72.5979 782.54 L72.5979 787.633 Q65.1182 792.407 57.8931 794.794 Q50.668 797.15 43.5384 797.15 Q36.4406 797.15 29.2474 794.794 Q22.0542 792.439 14.5426 787.633 L14.5426 782.54 Z" fill="#000000" fill-rule="evenodd" fill-opacity="1" /><path clip-path="url(#clip180)" d="M18.2347 765.385 L28.3562 765.385 L28.3562 753.322 L32.9077 753.322 L32.9077 765.385 L52.2594 765.385 Q56.6199 765.385 57.8613 764.207 Q59.1026 762.998 59.1026 759.337 L59.1026 753.322 L64.0042 753.322 L64.0042 759.337 Q64.0042 766.117 61.4897 768.695 Q58.9434 771.273 52.2594 771.273 L32.9077 771.273 L32.9077 775.57 L28.3562 775.57 L28.3562 771.273 L18.2347 771.273 L18.2347 765.385 Z" fill="#000000" fill-rule="evenodd" fill-opacity="1" /><path clip-path="url(#clip180)" d="M14.5426 746.542 L14.5426 741.45 Q22.0542 736.675 29.2474 734.32 Q36.4406 731.933 43.5384 731.933 Q50.668 731.933 57.8931 734.32 Q65.1182 736.675 72.5979 741.45 L72.5979 746.542 Q65.3091 742.309 58.1159 740.24 Q50.8908 738.14 43.5384 738.14 Q36.186 738.14 29.0246 740.24 Q21.8632 742.309 14.5426 746.542 Z" fill="#000000" fill-rule="evenodd" fill-opacity="1" /><path clip-path="url(#clip180)" d="M666.222 17.6457 Q657.31 17.6457 652.044 24.2892 Q646.818 30.9327 646.818 42.3968 Q646.818 53.8203 652.044 60.4638 Q657.31 67.1073 666.222 67.1073 Q675.134 67.1073 680.319 60.4638 Q685.545 53.8203 685.545 42.3968 Q685.545 30.9327 680.319 24.2892 Q675.134 17.6457 666.222 17.6457 M677.686 71.4823 L688.461 83.2704 L678.577 83.2704 L669.625 73.5887 Q668.288 73.6697 667.559 73.7103 Q666.87 73.7508 666.222 73.7508 Q653.461 73.7508 645.805 65.2439 Q638.19 56.6965 638.19 42.3968 Q638.19 28.0566 645.805 19.5497 Q653.461 11.0023 666.222 11.0023 Q678.942 11.0023 686.557 19.5497 Q694.173 28.0566 694.173 42.3968 Q694.173 52.9291 689.92 60.4233 Q685.707 67.9175 677.686 71.4823 Z" fill="#000000" fill-rule="evenodd" fill-opacity="1" /><path clip-path="url(#clip180)" d="M705.88 54.671 L705.88 27.2059 L713.334 27.2059 L713.334 54.3874 Q713.334 60.8284 715.845 64.0691 Q718.357 67.2693 723.38 67.2693 Q729.416 67.2693 732.9 63.421 Q736.424 59.5726 736.424 52.9291 L736.424 27.2059 L743.878 27.2059 L743.878 72.576 L736.424 72.576 L736.424 65.6084 Q733.71 69.7404 730.105 71.7658 Q726.54 73.7508 721.8 73.7508 Q713.982 73.7508 709.931 68.8897 Q705.88 64.0286 705.88 54.671 M724.636 26.1121 L724.636 26.1121 Z" fill="#000000" fill-rule="evenodd" fill-opacity="1" /><path clip-path="url(#clip180)" d="M779.85 49.7694 Q770.816 49.7694 767.332 51.8354 Q763.849 53.9013 763.849 58.8839 Q763.849 62.8538 766.441 65.2034 Q769.074 67.5124 773.571 67.5124 Q779.769 67.5124 783.495 63.1374 Q787.263 58.7219 787.263 51.4303 L787.263 49.7694 L779.85 49.7694 M794.716 46.6907 L794.716 72.576 L787.263 72.576 L787.263 65.6895 Q784.711 69.8214 780.903 71.8063 Q777.095 73.7508 771.586 73.7508 Q764.618 73.7508 760.486 69.8619 Q756.395 65.9325 756.395 59.3701 Q756.395 51.7138 761.499 47.825 Q766.644 43.9361 776.812 43.9361 L787.263 43.9361 L787.263 43.2069 Q787.263 38.0623 783.86 35.2672 Q780.498 32.4315 774.381 32.4315 Q770.492 32.4315 766.806 33.3632 Q763.119 34.295 759.717 36.1584 L759.717 29.2718 Q763.808 27.692 767.656 26.9223 Q771.505 26.1121 775.151 26.1121 Q784.994 26.1121 789.855 31.2163 Q794.716 36.3204 794.716 46.6907 Z" fill="#000000" fill-rule="evenodd" fill-opacity="1" /><path clip-path="url(#clip180)" d="M847.783 45.1919 L847.783 72.576 L840.33 72.576 L840.33 45.4349 Q840.33 38.994 837.818 35.7938 Q835.307 32.5936 830.283 32.5936 Q824.248 32.5936 820.764 36.4419 Q817.28 40.2903 817.28 46.9338 L817.28 72.576 L809.786 72.576 L809.786 27.2059 L817.28 27.2059 L817.28 34.2544 Q819.954 30.163 823.559 28.1376 Q827.205 26.1121 831.944 26.1121 Q839.763 26.1121 843.773 30.9732 Q847.783 35.7938 847.783 45.1919 Z" fill="#000000" fill-rule="evenodd" fill-opacity="1" /><path clip-path="url(#clip180)" d="M870.023 14.324 L870.023 27.2059 L885.376 27.2059 L885.376 32.9987 L870.023 32.9987 L870.023 57.6282 Q870.023 63.1779 871.522 64.7578 Q873.061 66.3376 877.72 66.3376 L885.376 66.3376 L885.376 72.576 L877.72 72.576 Q869.091 72.576 865.81 69.3758 Q862.529 66.1351 862.529 57.6282 L862.529 32.9987 L857.06 32.9987 L857.06 27.2059 L862.529 27.2059 L862.529 14.324 L870.023 14.324 Z" fill="#000000" fill-rule="evenodd" fill-opacity="1" /><path clip-path="url(#clip180)" d="M895.179 27.2059 L902.633 27.2059 L902.633 72.576 L895.179 72.576 L895.179 27.2059 M895.179 9.54393 L902.633 9.54393 L902.633 18.9825 L895.179 18.9825 L895.179 9.54393 Z" fill="#000000" fill-rule="evenodd" fill-opacity="1" /><path clip-path="url(#clip180)" d="M918.229 9.54393 L925.682 9.54393 L925.682 72.576 L918.229 72.576 L918.229 9.54393 Z" fill="#000000" fill-rule="evenodd" fill-opacity="1" /><path clip-path="url(#clip180)" d="M980.086 48.0275 L980.086 51.6733 L945.815 51.6733 Q946.301 59.3701 950.433 63.421 Q954.606 67.4314 962.019 67.4314 Q966.313 67.4314 970.323 66.3781 Q974.374 65.3249 978.344 63.2184 L978.344 70.267 Q974.334 71.9684 970.121 72.8596 Q965.908 73.7508 961.573 73.7508 Q950.717 73.7508 944.357 67.4314 Q938.037 61.1119 938.037 50.3365 Q938.037 39.1965 944.033 32.6746 Q950.069 26.1121 960.277 26.1121 Q969.432 26.1121 974.739 32.0264 Q980.086 37.9003 980.086 48.0275 M972.632 45.84 Q972.551 39.7232 969.189 36.0774 Q965.867 32.4315 960.358 32.4315 Q954.12 32.4315 950.352 35.9558 Q946.625 39.4801 946.058 45.8805 L972.632 45.84 Z" fill="#000000" fill-rule="evenodd" fill-opacity="1" /><path clip-path="url(#clip180)" d="M1021.24 28.5427 L1021.24 35.5912 Q1018.08 33.9709 1014.68 33.1607 Q1011.28 32.3505 1007.63 32.3505 Q1002.08 32.3505 999.287 34.0519 Q996.533 35.7533 996.533 39.156 Q996.533 41.7486 998.517 43.2475 Q1000.5 44.7058 1006.5 46.0426 L1009.05 46.6097 Q1016.99 48.3111 1020.31 51.4303 Q1023.67 54.509 1023.67 60.0587 Q1023.67 66.3781 1018.65 70.0644 Q1013.67 73.7508 1004.92 73.7508 Q1001.27 73.7508 997.302 73.0216 Q993.373 72.3329 988.998 70.9151 L988.998 63.2184 Q993.13 65.3654 997.14 66.4591 Q1001.15 67.5124 1005.08 67.5124 Q1010.35 67.5124 1013.18 65.73 Q1016.02 63.9071 1016.02 60.6258 Q1016.02 57.5877 1013.95 55.9673 Q1011.93 54.3469 1005 52.8481 L1002.41 52.2405 Q995.479 50.7821 992.401 47.7845 Q989.322 44.7463 989.322 39.4801 Q989.322 33.0797 993.859 29.5959 Q998.396 26.1121 1006.74 26.1121 Q1010.87 26.1121 1014.52 26.7198 Q1018.16 27.3274 1021.24 28.5427 Z" fill="#000000" fill-rule="evenodd" fill-opacity="1" /><path clip-path="url(#clip180)" d="M1079.5 32.4315 Q1073.5 32.4315 1070.02 37.1306 Q1066.53 41.7891 1066.53 49.9314 Q1066.53 58.0738 1069.98 62.7728 Q1073.46 67.4314 1079.5 67.4314 Q1085.45 67.4314 1088.93 62.7323 Q1092.42 58.0333 1092.42 49.9314 Q1092.42 41.8701 1088.93 37.1711 Q1085.45 32.4315 1079.5 32.4315 M1079.5 26.1121 Q1089.22 26.1121 1094.77 32.4315 Q1100.32 38.7509 1100.32 49.9314 Q1100.32 61.0714 1094.77 67.4314 Q1089.22 73.7508 1079.5 73.7508 Q1069.73 73.7508 1064.18 67.4314 Q1058.67 61.0714 1058.67 49.9314 Q1058.67 38.7509 1064.18 32.4315 Q1069.73 26.1121 1079.5 26.1121 Z" fill="#000000" fill-rule="evenodd" fill-opacity="1" /><path clip-path="url(#clip180)" d="M1135.64 9.54393 L1135.64 15.7418 L1128.51 15.7418 Q1124.5 15.7418 1122.92 17.3622 Q1121.38 18.9825 1121.38 23.1955 L1121.38 27.2059 L1133.66 27.2059 L1133.66 32.9987 L1121.38 32.9987 L1121.38 72.576 L1113.89 72.576 L1113.89 32.9987 L1106.76 32.9987 L1106.76 27.2059 L1113.89 27.2059 L1113.89 24.0462 Q1113.89 16.471 1117.41 13.0277 Q1120.94 9.54393 1128.59 9.54393 L1135.64 9.54393 Z" fill="#000000" fill-rule="evenodd" fill-opacity="1" /><path clip-path="url(#clip180)" d="M1168.57 12.096 L1176.76 12.096 L1176.76 72.576 L1168.57 72.576 L1168.57 12.096 Z" fill="#000000" fill-rule="evenodd" fill-opacity="1" /><path clip-path="url(#clip180)" d="M1230.43 45.1919 L1230.43 72.576 L1222.98 72.576 L1222.98 45.4349 Q1222.98 38.994 1220.47 35.7938 Q1217.95 32.5936 1212.93 32.5936 Q1206.9 32.5936 1203.41 36.4419 Q1199.93 40.2903 1199.93 46.9338 L1199.93 72.576 L1192.43 72.576 L1192.43 27.2059 L1199.93 27.2059 L1199.93 34.2544 Q1202.6 30.163 1206.21 28.1376 Q1209.85 26.1121 1214.59 26.1121 Q1222.41 26.1121 1226.42 30.9732 Q1230.43 35.7938 1230.43 45.1919 Z" fill="#000000" fill-rule="evenodd" fill-opacity="1" /><path clip-path="url(#clip180)" d="M1268.27 9.54393 L1268.27 15.7418 L1261.14 15.7418 Q1257.13 15.7418 1255.55 17.3622 Q1254.01 18.9825 1254.01 23.1955 L1254.01 27.2059 L1266.28 27.2059 L1266.28 32.9987 L1254.01 32.9987 L1254.01 72.576 L1246.51 72.576 L1246.51 32.9987 L1239.38 32.9987 L1239.38 27.2059 L1246.51 27.2059 L1246.51 24.0462 Q1246.51 16.471 1250.04 13.0277 Q1253.56 9.54393 1261.22 9.54393 L1268.27 9.54393 Z" fill="#000000" fill-rule="evenodd" fill-opacity="1" /><path clip-path="url(#clip180)" d="M1313.31 48.0275 L1313.31 51.6733 L1279.04 51.6733 Q1279.53 59.3701 1283.66 63.421 Q1287.83 67.4314 1295.25 67.4314 Q1299.54 67.4314 1303.55 66.3781 Q1307.6 65.3249 1311.57 63.2184 L1311.57 70.267 Q1307.56 71.9684 1303.35 72.8596 Q1299.14 73.7508 1294.8 73.7508 Q1283.94 73.7508 1277.58 67.4314 Q1271.26 61.1119 1271.26 50.3365 Q1271.26 39.1965 1277.26 32.6746 Q1283.3 26.1121 1293.5 26.1121 Q1302.66 26.1121 1307.97 32.0264 Q1313.31 37.9003 1313.31 48.0275 M1305.86 45.84 Q1305.78 39.7232 1302.42 36.0774 Q1299.09 32.4315 1293.59 32.4315 Q1287.35 32.4315 1283.58 35.9558 Q1279.85 39.4801 1279.29 45.8805 L1305.86 45.84 Z" fill="#000000" fill-rule="evenodd" fill-opacity="1" /><path clip-path="url(#clip180)" d="M1358.2 28.9478 L1358.2 35.9153 Q1355.04 34.1734 1351.84 33.3227 Q1348.68 32.4315 1345.44 32.4315 Q1338.19 32.4315 1334.18 37.0496 Q1330.17 41.6271 1330.17 49.9314 Q1330.17 58.2358 1334.18 62.8538 Q1338.19 67.4314 1345.44 67.4314 Q1348.68 67.4314 1351.84 66.5807 Q1355.04 65.6895 1358.2 63.9476 L1358.2 70.8341 Q1355.08 72.2924 1351.72 73.0216 Q1348.39 73.7508 1344.63 73.7508 Q1334.38 73.7508 1328.34 67.3098 Q1322.31 60.8689 1322.31 49.9314 Q1322.31 38.832 1328.38 32.472 Q1334.5 26.1121 1345.11 26.1121 Q1348.56 26.1121 1351.84 26.8413 Q1355.12 27.5299 1358.2 28.9478 Z" fill="#000000" fill-rule="evenodd" fill-opacity="1" /><path clip-path="url(#clip180)" d="M1378.53 14.324 L1378.53 27.2059 L1393.89 27.2059 L1393.89 32.9987 L1378.53 32.9987 L1378.53 57.6282 Q1378.53 63.1779 1380.03 64.7578 Q1381.57 66.3376 1386.23 66.3376 L1393.89 66.3376 L1393.89 72.576 L1386.23 72.576 Q1377.6 72.576 1374.32 69.3758 Q1371.04 66.1351 1371.04 57.6282 L1371.04 32.9987 L1365.57 32.9987 L1365.57 27.2059 L1371.04 27.2059 L1371.04 14.324 L1378.53 14.324 Z" fill="#000000" fill-rule="evenodd" fill-opacity="1" /><path clip-path="url(#clip180)" d="M1403.69 27.2059 L1411.14 27.2059 L1411.14 72.576 L1403.69 72.576 L1403.69 27.2059 M1403.69 9.54393 L1411.14 9.54393 L1411.14 18.9825 L1403.69 18.9825 L1403.69 9.54393 Z" fill="#000000" fill-rule="evenodd" fill-opacity="1" /><path clip-path="url(#clip180)" d="M1444.32 32.4315 Q1438.32 32.4315 1434.84 37.1306 Q1431.36 41.7891 1431.36 49.9314 Q1431.36 58.0738 1434.8 62.7728 Q1438.28 67.4314 1444.32 67.4314 Q1450.27 67.4314 1453.76 62.7323 Q1457.24 58.0333 1457.24 49.9314 Q1457.24 41.8701 1453.76 37.1711 Q1450.27 32.4315 1444.32 32.4315 M1444.32 26.1121 Q1454.04 26.1121 1459.59 32.4315 Q1465.14 38.7509 1465.14 49.9314 Q1465.14 61.0714 1459.59 67.4314 Q1454.04 73.7508 1444.32 73.7508 Q1434.56 73.7508 1429.01 67.4314 Q1423.5 61.0714 1423.5 49.9314 Q1423.5 38.7509 1429.01 32.4315 Q1434.56 26.1121 1444.32 26.1121 Z" fill="#000000" fill-rule="evenodd" fill-opacity="1" /><path clip-path="url(#clip180)" d="M1515.21 45.1919 L1515.21 72.576 L1507.76 72.576 L1507.76 45.4349 Q1507.76 38.994 1505.25 35.7938 Q1502.73 32.5936 1497.71 32.5936 Q1491.67 32.5936 1488.19 36.4419 Q1484.71 40.2903 1484.71 46.9338 L1484.71 72.576 L1477.21 72.576 L1477.21 27.2059 L1484.71 27.2059 L1484.71 34.2544 Q1487.38 30.163 1490.99 28.1376 Q1494.63 26.1121 1499.37 26.1121 Q1507.19 26.1121 1511.2 30.9732 Q1515.21 35.7938 1515.21 45.1919 Z" fill="#000000" fill-rule="evenodd" fill-opacity="1" /><path clip-path="url(#clip180)" d="M1559 28.5427 L1559 35.5912 Q1555.84 33.9709 1552.44 33.1607 Q1549.04 32.3505 1545.39 32.3505 Q1539.84 32.3505 1537.04 34.0519 Q1534.29 35.7533 1534.29 39.156 Q1534.29 41.7486 1536.28 43.2475 Q1538.26 44.7058 1544.26 46.0426 L1546.81 46.6097 Q1554.75 48.3111 1558.07 51.4303 Q1561.43 54.509 1561.43 60.0587 Q1561.43 66.3781 1556.41 70.0644 Q1551.43 73.7508 1542.68 73.7508 Q1539.03 73.7508 1535.06 73.0216 Q1531.13 72.3329 1526.76 70.9151 L1526.76 63.2184 Q1530.89 65.3654 1534.9 66.4591 Q1538.91 67.5124 1542.84 67.5124 Q1548.1 67.5124 1550.94 65.73 Q1553.77 63.9071 1553.77 60.6258 Q1553.77 57.5877 1551.71 55.9673 Q1549.68 54.3469 1542.76 52.8481 L1540.16 52.2405 Q1533.24 50.7821 1530.16 47.7845 Q1527.08 44.7463 1527.08 39.4801 Q1527.08 33.0797 1531.62 29.5959 Q1536.15 26.1121 1544.5 26.1121 Q1548.63 26.1121 1552.28 26.7198 Q1555.92 27.3274 1559 28.5427 Z" fill="#000000" fill-rule="evenodd" fill-opacity="1" /><path clip-path="url(#clip180)" d="M1600 12.096 L1638.24 12.096 L1638.24 18.9825 L1608.18 18.9825 L1608.18 36.8875 L1636.98 36.8875 L1636.98 43.7741 L1608.18 43.7741 L1608.18 65.6895 L1638.97 65.6895 L1638.97 72.576 L1600 72.576 L1600 12.096 Z" fill="#000000" fill-rule="evenodd" fill-opacity="1" /><path clip-path="url(#clip180)" d="M1689.8 45.1919 L1689.8 72.576 L1682.35 72.576 L1682.35 45.4349 Q1682.35 38.994 1679.84 35.7938 Q1677.33 32.5936 1672.3 32.5936 Q1666.27 32.5936 1662.78 36.4419 Q1659.3 40.2903 1659.3 46.9338 L1659.3 72.576 L1651.81 72.576 L1651.81 27.2059 L1659.3 27.2059 L1659.3 34.2544 Q1661.97 30.163 1665.58 28.1376 Q1669.23 26.1121 1673.97 26.1121 Q1681.78 26.1121 1685.79 30.9732 Q1689.8 35.7938 1689.8 45.1919 Z" fill="#000000" fill-rule="evenodd" fill-opacity="1" /><path clip-path="url(#clip180)" d="M1733.59 28.5427 L1733.59 35.5912 Q1730.43 33.9709 1727.03 33.1607 Q1723.63 32.3505 1719.98 32.3505 Q1714.43 32.3505 1711.64 34.0519 Q1708.88 35.7533 1708.88 39.156 Q1708.88 41.7486 1710.87 43.2475 Q1712.85 44.7058 1718.85 46.0426 L1721.4 46.6097 Q1729.34 48.3111 1732.66 51.4303 Q1736.03 54.509 1736.03 60.0587 Q1736.03 66.3781 1731 70.0644 Q1726.02 73.7508 1717.27 73.7508 Q1713.62 73.7508 1709.65 73.0216 Q1705.72 72.3329 1701.35 70.9151 L1701.35 63.2184 Q1705.48 65.3654 1709.49 66.4591 Q1713.5 67.5124 1717.43 67.5124 Q1722.7 67.5124 1725.53 65.73 Q1728.37 63.9071 1728.37 60.6258 Q1728.37 57.5877 1726.3 55.9673 Q1724.28 54.3469 1717.35 52.8481 L1714.76 52.2405 Q1707.83 50.7821 1704.75 47.7845 Q1701.67 44.7463 1701.67 39.4801 Q1701.67 33.0797 1706.21 29.5959 Q1710.75 26.1121 1719.09 26.1121 Q1723.22 26.1121 1726.87 26.7198 Q1730.52 27.3274 1733.59 28.5427 Z" fill="#000000" fill-rule="evenodd" fill-opacity="1" /><path clip-path="url(#clip180)" d="M1786.7 48.0275 L1786.7 51.6733 L1752.43 51.6733 Q1752.92 59.3701 1757.05 63.421 Q1761.22 67.4314 1768.63 67.4314 Q1772.93 67.4314 1776.94 66.3781 Q1780.99 65.3249 1784.96 63.2184 L1784.96 70.267 Q1780.95 71.9684 1776.74 72.8596 Q1772.52 73.7508 1768.19 73.7508 Q1757.33 73.7508 1750.97 67.4314 Q1744.65 61.1119 1744.65 50.3365 Q1744.65 39.1965 1750.65 32.6746 Q1756.68 26.1121 1766.89 26.1121 Q1776.05 26.1121 1781.35 32.0264 Q1786.7 37.9003 1786.7 48.0275 M1779.25 45.84 Q1779.17 39.7232 1775.8 36.0774 Q1772.48 32.4315 1766.97 32.4315 Q1760.74 32.4315 1756.97 35.9558 Q1753.24 39.4801 1752.67 45.8805 L1779.25 45.84 Z" fill="#000000" fill-rule="evenodd" fill-opacity="1" /><path clip-path="url(#clip180)" d="M1834.26 35.9153 Q1837.05 30.8922 1840.94 28.5022 Q1844.83 26.1121 1850.1 26.1121 Q1857.19 26.1121 1861.04 31.0947 Q1864.88 36.0368 1864.88 45.1919 L1864.88 72.576 L1857.39 72.576 L1857.39 45.4349 Q1857.39 38.913 1855.08 35.7533 Q1852.77 32.5936 1848.03 32.5936 Q1842.24 32.5936 1838.88 36.4419 Q1835.52 40.2903 1835.52 46.9338 L1835.52 72.576 L1828.02 72.576 L1828.02 45.4349 Q1828.02 38.8725 1825.71 35.7533 Q1823.4 32.5936 1818.58 32.5936 Q1812.87 32.5936 1809.51 36.4824 Q1806.15 40.3308 1806.15 46.9338 L1806.15 72.576 L1798.65 72.576 L1798.65 27.2059 L1806.15 27.2059 L1806.15 34.2544 Q1808.7 30.082 1812.26 28.0971 Q1815.83 26.1121 1820.73 26.1121 Q1825.67 26.1121 1829.11 28.6237 Q1832.6 31.1352 1834.26 35.9153 Z" fill="#000000" fill-rule="evenodd" fill-opacity="1" /><path clip-path="url(#clip180)" d="M1912.32 49.9314 Q1912.32 41.7081 1908.92 37.0496 Q1905.56 32.3505 1899.64 32.3505 Q1893.73 32.3505 1890.32 37.0496 Q1886.96 41.7081 1886.96 49.9314 Q1886.96 58.1548 1890.32 62.8538 Q1893.73 67.5124 1899.64 67.5124 Q1905.56 67.5124 1908.92 62.8538 Q1912.32 58.1548 1912.32 49.9314 M1886.96 34.0924 Q1889.31 30.0415 1892.88 28.0971 Q1896.48 26.1121 1901.46 26.1121 Q1909.73 26.1121 1914.87 32.6746 Q1920.06 39.2371 1920.06 49.9314 Q1920.06 60.6258 1914.87 67.1883 Q1909.73 73.7508 1901.46 73.7508 Q1896.48 73.7508 1892.88 71.8063 Q1889.31 69.8214 1886.96 65.7705 L1886.96 72.576 L1879.47 72.576 L1879.47 9.54393 L1886.96 9.54393 L1886.96 34.0924 Z" fill="#000000" fill-rule="evenodd" fill-opacity="1" /><path clip-path="url(#clip180)" d="M1932.41 9.54393 L1939.87 9.54393 L1939.87 72.576 L1932.41 72.576 L1932.41 9.54393 Z" fill="#000000" fill-rule="evenodd" fill-opacity="1" /><path clip-path="url(#clip180)" d="M1994.27 48.0275 L1994.27 51.6733 L1960 51.6733 Q1960.49 59.3701 1964.62 63.421 Q1968.79 67.4314 1976.2 67.4314 Q1980.5 67.4314 1984.51 66.3781 Q1988.56 65.3249 1992.53 63.2184 L1992.53 70.267 Q1988.52 71.9684 1984.31 72.8596 Q1980.09 73.7508 1975.76 73.7508 Q1964.9 73.7508 1958.54 67.4314 Q1952.22 61.1119 1952.22 50.3365 Q1952.22 39.1965 1958.22 32.6746 Q1964.25 26.1121 1974.46 26.1121 Q1983.62 26.1121 1988.92 32.0264 Q1994.27 37.9003 1994.27 48.0275 M1986.82 45.84 Q1986.74 39.7232 1983.37 36.0774 Q1980.05 32.4315 1974.54 32.4315 Q1968.3 32.4315 1964.54 35.9558 Q1960.81 39.4801 1960.24 45.8805 L1986.82 45.84 Z" fill="#000000" fill-rule="evenodd" fill-opacity="1" /><path clip-path="url(#clip182)" d="
M338.375 1386.23 L338.428 1386.24 L338.44 1386.24 L338.454 1386.24 L338.47 1386.24 L338.488 1386.24 L338.508 1386.24 L338.531 1386.24 L338.557 1386.24 L338.585 1386.24 
  L338.618 1386.24 L338.654 1386.24 L338.695 1386.24 L338.741 1386.24 L338.792 1386.24 L338.851 1386.24 L338.916 1386.24 L338.99 1386.24 L339.073 1386.24 L339.166 1386.24 
  L339.271 1386.24 L339.389 1386.24 L339.521 1386.24 L339.67 1386.24 L339.838 1386.25 L340.027 1386.25 L340.237 1386.25 L340.465 1386.25 L340.712 1386.25 L340.976 1386.25 
  L341.256 1386.26 L341.548 1386.26 L341.852 1386.26 L342.165 1386.26 L342.491 1386.26 L342.825 1386.27 L343.168 1386.27 L343.517 1386.27 L343.873 1386.27 L344.233 1386.28 
  L344.597 1386.28 L344.968 1386.28 L345.343 1386.28 L345.723 1386.29 L346.104 1386.29 L346.489 1386.29 L346.876 1386.29 L347.267 1386.29 L347.663 1386.3 L348.066 1386.3 
  L348.472 1386.3 L348.882 1386.3 L349.3 1386.31 L349.723 1386.31 L350.153 1386.31 L350.591 1386.31 L351.038 1386.32 L351.489 1386.32 L351.941 1386.32 L352.398 1386.32 
  L352.861 1386.32 L353.329 1386.33 L353.802 1386.33 L354.277 1386.33 L354.753 1386.33 L355.238 1386.33 L355.73 1386.34 L356.231 1386.34 L356.737 1386.34 L357.249 1386.34 
  L357.766 1386.35 L358.289 1386.35 L358.818 1386.35 L359.352 1386.35 L359.895 1386.35 L360.447 1386.36 L361.006 1386.36 L361.569 1386.36 L362.136 1386.36 L362.71 1386.36 
  L363.289 1386.36 L363.874 1386.36 L364.469 1386.37 L365.071 1386.37 L365.681 1386.37 L366.3 1386.37 L366.928 1386.37 L367.565 1386.37 L368.207 1386.37 L368.861 1386.38 
  L369.527 1386.38 L370.2 1386.38 L370.884 1386.38 L371.579 1386.38 L372.275 1386.38 L372.977 1386.38 L373.687 1386.39 L374.409 1386.39 L375.145 1386.39 L375.895 1386.39 
  L376.664 1386.39 L377.444 1386.39 L378.243 1386.39 L379.057 1386.39 L379.88 1386.39 L380.717 1386.39 L381.581 1386.39 L382.472 1386.39 L383.392 1386.39 L384.345 1386.39 
  L385.335 1386.39 L386.354 1386.39 L387.401 1386.39 L388.45 1386.39 L389.52 1386.39 L390.59 1386.39 L391.701 1386.39 L392.837 1386.4 L393.967 1386.4 L395.148 1386.39 
  L396.305 1386.39 L397.494 1386.39 L398.738 1386.39 L400.017 1386.39 L401.334 1386.39 L402.705 1386.39 L404.172 1386.39 L405.682 1386.39 L407.318 1386.39 L409.042 1386.38 
  L410.876 1386.38 L412.917 1386.38 L415.135 1386.38 L417.472 1386.37 L419.825 1386.36 L422.298 1386.35 L424.783 1386.34 L427.579 1386.34 L430.725 1386.33 L434.264 1386.32 
  L438.245 1386.31 L442.723 1386.3 L447.762 1386.29 L453.43 1386.27 L457.261 1386.26 L461.571 1386.24 L465.855 1386.23 L470.674 1386.2 L476.095 1386.17 L482.194 1386.13 
  L489.056 1386.1 L493.853 1386.08 L499.251 1386.05 L505.323 1385.99 L509.543 1385.95 L514.291 1385.9 L519.633 1385.87 L522.784 1385.85 L526.329 1385.84 L530.268 1385.81 
  L534.219 1385.77 L538.394 1385.73 L542.545 1385.68 L547.214 1385.64 L552.466 1385.59 L557.613 1385.54 L563.402 1385.47 L569.503 1385.39 L576.367 1385.3 L584.089 1385.19 
  L592.777 1385.06 L602.55 1384.89 L613.545 1384.69 L625.876 1384.45 L635.159 1384.26 L641.921 1384.12 L649.528 1383.96 L655.866 1383.81 L662.997 1383.63 L668.125 1383.49 
  L673.199 1383.35 L678.773 1383.17 L683.948 1383 L689.77 1382.78 L696.319 1382.52 L702.032 1382.22 L707.978 1381.86 L712.719 1381.54 L717.039 1381.37 L721.173 1381.19 
  L724.765 1381.03 L728.438 1380.82 L732.34 1380.56 L736.616 1380.35 L741.086 1380.12 L745.809 1379.84 L751.122 1379.48 L757.099 1379 L763.823 1378.56 L771.387 1377.87 
  L779.235 1377.27 L788.063 1376.72 L797.994 1375.94 L805.076 1375.3 L811.331 1374.66 L818.367 1373.97 L826.284 1373.18 L835.189 1372.17 L845.208 1370.86 L856.292 1369.41 
  L863.068 1368.39 L870.691 1367.3 L879.267 1365.89 L886.581 1364.55 L894.809 1362.91 L900.841 1361.39 L907.627 1359.72 L915.26 1357.53 L922.59 1354.87 L927.338 1353.1 
  L932.193 1351.45 L936.957 1349.72 L941.188 1348.13 L945.819 1346.21 L951.029 1343.99 L956.731 1341.56 L962.274 1339.16 L967.943 1336.64 L974.034 1333.61 L980.887 1330.89 
  L988.596 1327.82 L995.797 1324.54 L1003.9 1320.2 L1010.08 1317.75 L1016.33 1315.58 L1022.08 1312.39 L1028.1 1308.5 L1034.54 1305.22 L1039.99 1302.28 L1045.83 1299.13 
  L1051.13 1295.68 L1056.13 1291.6 L1061.17 1287.2 L1066.27 1282.38 L1071.63 1276.79 L1076.86 1271.21 L1081.82 1266.09 L1087.4 1261.04 L1093.11 1255.62 L1098.57 1250.07 
  L1104.29 1244.39 L1110.42 1237.7 L1116.17 1230.82 L1122.16 1222.45 L1128.21 1213.54 L1134.1 1204.17 L1139.92 1194.24 L1144.91 1187.47 L1149.5 1179.53 L1154.06 1169.06 
  L1158.17 1162.96 L1162.09 1156.78 L1166.01 1150.46 L1169.67 1143.71 L1173.15 1137.02 L1176.59 1132.23 L1180.13 1127.51 L1183.55 1123.3 L1187.35 1118.43 L1191.27 1113.15 
  L1195.38 1107.51 L1199.45 1098.31 L1203.61 1088.9 L1207.68 1079.75 L1211.66 1071.6 L1215.64 1063.38 L1219.61 1055.07 L1223.61 1046.09 L1227.61 1035.46 L1231.59 1022.99 
  L1235.56 1010.21 L1239.5 998.153 L1243.4 986.62 L1247.17 975.723 L1250.56 965.857 L1254.01 956.568 L1257.23 950.059 L1260.46 943.428 L1263.7 936.45 L1267.02 927.116 
  L1270.44 915.07 L1273.85 905.778 L1277.28 897.669 L1280.68 889.809 L1284.01 881.978 L1287.3 873.719 L1290.61 865.811 L1293.91 858.067 L1297.14 850.769 L1300.35 844.091 
  L1303.5 837.437 L1306.68 827.506 L1309.86 816.782 L1313.04 805.659 L1316.22 793.764 L1319.4 780.357 L1322.55 765.997 L1325.71 751.463 L1328.86 736.805 L1332 728.473 
  L1335.12 724.365 L1338.25 719.523 L1341.35 714.879 L1344.47 711.336 L1347.54 709.23 L1350.53 707.097 L1353.45 704.629 L1356.39 699.411 L1359.25 694.233 L1362.12 689.544 
  L1365.04 684.879 L1367.92 680.623 L1370.67 676.928 L1373.3 673.679 L1375.87 670.698 L1378.42 667.943 L1380.91 663.9 L1383.35 659.904 L1385.76 655.523 L1388.07 651.543 
  L1390.44 646.745 L1392.82 641.239 L1395.3 637.639 L1397.79 637.281 L1400.29 636.586 L1402.71 636.202 L1405.14 636.253 L1407.61 639.459 L1410.17 641.321 L1412.74 639.661 
  L1415.35 641.13 L1418.04 650.07 L1420.74 647.178 L1423.48 643.285 L1426.26 644.219 L1429.07 650.677 L1431.91 657.759 L1434.77 665.043 L1437.65 672.31 L1440.57 679.068 
  L1443.48 679.827 L1446.31 678.252 L1449.21 686.499 L1452.05 694.677 L1454.76 702.506 L1457.44 710.408 L1460.12 718.355 L1462.66 725.861 L1465.12 732.764 L1467.68 739.021 
  L1470.2 744.953 L1472.76 750.896 L1475.42 757 L1478.17 763.238 L1480.91 769.521 L1483.85 776.498 L1486.78 782.907 L1489.77 789.18 L1492.88 795.527 L1496.02 801.183 
  L1499.16 806.87 L1502.32 812.64 L1505.73 819.76 L1509.17 828.051 L1512.68 840.206 L1516.28 847.907 L1519.97 855.509 L1523.69 863.134 L1527.48 870.482 L1531.36 877.142 
  L1535.15 886.546 L1538.88 894.826 L1542.76 904.937 L1546.79 914.654 L1550.88 923.619 L1555.09 932.375 L1559.22 940.972 L1563.6 949.967 L1567.79 958.167 L1572.21 966.443 
  L1576.61 977.076 L1581.2 988.863 L1585.83 1000.71 L1590.67 1013.03 L1595.53 1025.47 L1600.37 1037.6 L1605.36 1049.42 L1610.44 1060.89 L1615.79 1072.43 L1620.96 1082.96 
  L1626.09 1093.18 L1631.39 1103.9 L1636.61 1114 L1641.21 1121.31 L1645.81 1128.39 L1650.23 1135.12 L1654.62 1141.7 L1658.85 1148.02 L1662.96 1154.09 L1666.96 1160 
  L1670.8 1165.61 L1674.43 1170.86 L1678.06 1176.09 L1681.77 1181.36 L1685.34 1186.42 L1688.99 1191.08 L1692.6 1196.29 L1696.26 1201.85 L1699.96 1207.29 L1703.43 1212.38 
  L1707.03 1216.83 L1711.08 1221.27 L1715.25 1225.82 L1719.72 1230.56 L1724.26 1235.32 L1729.37 1240.65 L1735.12 1246.6 L1741.29 1252.73 L1747.99 1259.6 L1754.49 1265.98 
  L1761.07 1272.1 L1768.46 1278.52 L1776.7 1285.26 L1785.04 1291.71 L1794.41 1298.59 L1801.08 1303.23 L1808.59 1308.14 L1817.03 1313.19 L1826.53 1318.53 L1833.61 1322.31 
  L1839.75 1325.38 L1845.72 1328.13 L1852.44 1330.73 L1860.01 1333.62 L1868.52 1336.75 L1876.32 1339.45 L1883.18 1341.49 L1890.29 1343.58 L1898.07 1345.79 L1905.6 1347.75 
  L1910.41 1348.94 L1914.52 1349.9 L1918.26 1350.78 L1922.39 1351.74 L1926.57 1352.72 L1930.83 1353.73 L1935.59 1354.81 L1940.4 1355.9 L1945.64 1357.04 L1951.54 1358.3 
  L1958.17 1359.6 L1964.49 1360.82 L1971.61 1362.16 L1977.1 1363.03 L1982.33 1363.82 L1987.14 1364.62 L1992.29 1365.45 L1997.11 1366.14 L2002.31 1366.85 L2008.04 1367.61 
  L2013.78 1368.35 L2018.83 1368.99 L2024.45 1369.67 L2029.6 1370.27 L2034.66 1370.83 L2039.41 1371.33 L2044.08 1371.81 L2048.92 1372.27 L2054.13 1372.77 L2059.53 1373.27 
  L2065.6 1373.83 L2072.43 1374.45 L2078.23 1374.95 L2084.76 1375.51 L2089.74 1375.94 L2094.8 1376.35 L2099.61 1376.73 L2104.73 1377.12 L2110.49 1377.54 L2116.97 1377.97 
  L2124.26 1378.43 L2132.46 1378.93 L2141.68 1379.39 L2147.55 1379.7 L2151.91 1379.92 L2156.82 1380.16 L2162.18 1380.41 L2167.78 1380.66 L2174.09 1380.94 L2181.18 1381.25 
  L2189.16 1381.6 L2194.12 1381.81 L2198.73 1381.99 L2203.36 1382.17 L2207.83 1382.33 L2212.82 1382.51 L2217.35 1382.66 L2222.02 1382.81 L2226.87 1382.96 L2231.71 1383.11 
  L2236.61 1383.24 L2240.62 1383.35 L2244.72 1383.46 L2248.58 1383.56 L2252.23 1383.66 L2255.98 1383.75 L2259.7 1383.84 L2263.57 1383.93 L2267.11 1384.01 L2270.63 1384.09 
  L2274.04 1384.16 L2277.5 1384.24 L2280.8 1384.31 L2284.05 1384.37 L2287.25 1384.44 L2290.04 1384.49 L2292.98 1384.55 L2294.08 1384.57 L2294.08 1366.19 L2292.98 1366.04 
  L2290.04 1365.61 L2287.25 1365.2 L2284.05 1364.73 L2280.8 1364.25 L2277.5 1363.74 L2274.04 1363.17 L2270.63 1362.58 L2267.11 1361.93 L2263.57 1361.28 L2259.7 1360.59 
  L2255.98 1359.9 L2252.23 1359.19 L2248.58 1358.48 L2244.72 1357.72 L2240.62 1356.89 L2236.61 1356.05 L2231.71 1354.98 L2226.87 1353.89 L2222.02 1352.77 L2217.35 1351.7 
  L2212.82 1350.63 L2207.83 1349.37 L2203.36 1348.18 L2198.73 1346.96 L2194.12 1345.7 L2189.16 1344.3 L2181.18 1342.02 L2174.09 1339.97 L2167.78 1338.04 L2162.18 1336.31 
  L2156.82 1334.57 L2151.91 1332.92 L2147.55 1331.43 L2141.68 1329.44 L2132.46 1326.34 L2124.26 1323.5 L2116.97 1320.97 L2110.49 1318.66 L2104.73 1316.5 L2099.61 1314.55 
  L2094.8 1312.62 L2089.74 1310.58 L2084.76 1308.52 L2078.23 1305.84 L2072.43 1303.44 L2065.6 1301.35 L2059.53 1299.59 L2054.13 1297.87 L2048.92 1296.23 L2044.08 1294.77 
  L2039.41 1293.25 L2034.66 1291.59 L2029.6 1289.75 L2024.45 1287.98 L2018.83 1285.89 L2013.78 1284.02 L2008.04 1281.85 L2002.31 1279.36 L1997.11 1276.67 L1992.29 1273.2 
  L1987.14 1269.64 L1982.33 1266.45 L1977.1 1263.01 L1971.61 1259.28 L1964.49 1254.02 L1958.17 1248.9 L1951.54 1243.21 L1945.64 1237.94 L1940.4 1233.11 L1935.59 1228.25 
  L1930.83 1223.42 L1926.57 1218.93 L1922.39 1214.53 L1918.26 1210.05 L1914.52 1206 L1910.41 1201.43 L1905.6 1196.02 L1898.07 1187.69 L1890.29 1179.14 L1883.18 1171.31 
  L1876.32 1163.93 L1868.52 1155.59 L1860.01 1145.13 L1852.44 1134.73 L1845.72 1125.32 L1839.75 1117.3 L1833.61 1111.03 L1826.53 1100.7 L1817.03 1085.31 L1808.59 1070.56 
  L1801.08 1057.32 L1794.41 1044.62 L1785.04 1025.32 L1776.7 1008.77 L1768.46 989.37 L1761.07 971.096 L1754.49 955.458 L1747.99 939.667 L1741.29 923.135 L1735.12 907.312 
  L1729.37 892.26 L1724.26 877.851 L1719.72 865.151 L1715.25 853.556 L1711.08 843.865 L1707.03 834.717 L1703.43 826.783 L1699.96 819.583 L1696.26 812.183 L1692.6 804.454 
  L1688.99 796.226 L1685.34 787.721 L1681.77 776.927 L1678.06 766.131 L1674.43 758.19 L1670.8 750.927 L1666.96 743.856 L1662.96 736.353 L1658.85 722.519 L1654.62 705.982 
  L1650.23 688.959 L1645.81 672.211 L1641.21 658.726 L1636.61 648.072 L1631.39 635.264 L1626.09 621.842 L1620.96 607.955 L1615.79 593.704 L1610.44 582.093 L1605.36 566.851 
  L1600.37 554.064 L1595.53 550.009 L1590.67 535.5 L1585.83 520.208 L1581.2 508.053 L1576.61 484.819 L1572.21 466.718 L1567.79 452.378 L1563.6 441.829 L1559.22 432.567 
  L1555.09 425.349 L1550.88 419.791 L1546.79 413.845 L1542.76 402.829 L1538.88 386.474 L1535.15 375.243 L1531.36 368.409 L1527.48 361.275 L1523.69 353.568 L1519.97 340.263 
  L1516.28 328.203 L1512.68 311.556 L1509.17 295.49 L1505.73 280.207 L1502.32 270.444 L1499.16 265.525 L1496.02 259.363 L1492.88 253.21 L1489.77 247.892 L1486.78 244.334 
  L1483.85 241.676 L1480.91 238.679 L1478.17 235.262 L1475.42 232.165 L1472.76 227.112 L1470.2 217.91 L1467.68 209.074 L1465.12 200.296 L1462.66 201.654 L1460.12 204.532 
  L1457.44 203.766 L1454.76 199.462 L1452.05 197.842 L1449.21 192.674 L1446.31 185.573 L1443.48 179.309 L1440.57 174.825 L1437.65 171.101 L1434.77 168 L1431.91 165.881 
  L1429.07 163.769 L1426.26 161.899 L1423.48 161.334 L1420.74 161.383 L1418.04 160.938 L1415.35 160.318 L1412.74 160.256 L1410.17 160.77 L1407.61 162.301 L1405.14 164.392 
  L1402.71 166.04 L1400.29 170.051 L1397.79 169.008 L1395.3 170.742 L1392.82 169.725 L1390.44 169.586 L1388.07 170.374 L1385.76 171.575 L1383.35 172.694 L1380.91 174.701 
  L1378.42 176.884 L1375.87 180.272 L1373.3 183.807 L1370.67 181.087 L1367.92 180.6 L1365.04 189.206 L1362.12 198.114 L1359.25 205.666 L1356.39 212.835 L1353.45 219.454 
  L1350.53 221.929 L1347.54 229.226 L1344.47 236.805 L1341.35 242.549 L1338.25 249.327 L1335.12 255.903 L1332 249.143 L1328.86 242.314 L1325.71 246.402 L1322.55 248.945 
  L1319.4 246.932 L1316.22 245.784 L1313.04 245.673 L1309.86 245.583 L1306.68 245.638 L1303.5 246.703 L1300.35 248.405 L1297.14 251.202 L1293.91 254.39 L1290.61 255.766 
  L1287.3 255.871 L1284.01 256.519 L1280.68 256.795 L1277.28 259.095 L1273.85 267.237 L1270.44 267.211 L1267.02 270.504 L1263.7 279.16 L1260.46 282.446 L1257.23 290.785 
  L1254.01 295.676 L1250.56 300.978 L1247.17 305.597 L1243.4 310.762 L1239.5 315.965 L1235.56 319.798 L1231.59 323.753 L1227.61 324.701 L1223.61 326.213 L1219.61 339.783 
  L1215.64 348.166 L1211.66 356.172 L1207.68 364.745 L1203.61 375.626 L1199.45 387.747 L1195.38 400.527 L1191.27 422.978 L1187.35 443.31 L1183.55 461.629 L1180.13 478.723 
  L1176.59 496.459 L1173.15 515.262 L1169.67 535.541 L1166.01 557.2 L1162.09 577.045 L1158.17 590.554 L1154.06 605.467 L1149.5 623.107 L1144.91 640.737 L1139.92 657.865 
  L1134.1 680.41 L1128.21 702.777 L1122.16 726.454 L1116.17 751.139 L1110.42 773.327 L1104.29 796.892 L1098.57 819.7 L1093.11 842.997 L1087.4 868.525 L1081.82 893.994 
  L1076.86 914.351 L1071.63 931.478 L1066.27 948.737 L1061.17 964.502 L1056.13 986.824 L1051.13 1008.64 L1045.83 1030.13 L1039.99 1049.9 L1034.54 1063.08 L1028.1 1079.79 
  L1022.08 1097.22 L1016.33 1113.13 L1010.08 1120.44 L1003.9 1126.83 L995.797 1138.9 L988.596 1154.46 L980.887 1171.34 L974.034 1181.86 L967.943 1189.19 L962.274 1195.86 
  L956.731 1202.6 L951.029 1209.28 L945.819 1215.45 L941.188 1221.18 L936.957 1225.99 L932.193 1231.21 L927.338 1236.25 L922.59 1241.06 L915.26 1248.87 L907.627 1260.26 
  L900.841 1270.62 L894.809 1278.43 L886.581 1288.51 L879.267 1296.65 L870.691 1305.98 L863.068 1313.54 L856.292 1319.78 L845.208 1329.28 L835.189 1335.21 L826.284 1338.85 
  L818.367 1341.45 L811.331 1344.09 L805.076 1346.72 L797.994 1349.74 L788.063 1353.85 L779.235 1357.38 L771.387 1359.83 L763.823 1361.99 L757.099 1363.71 L751.122 1365.36 
  L745.809 1366.26 L741.086 1367.18 L736.616 1367.99 L732.34 1368.74 L728.438 1369.38 L724.765 1369.93 L721.173 1370.46 L717.039 1371.12 L712.719 1371.82 L707.978 1372.58 
  L702.032 1373.51 L696.319 1374.37 L689.77 1375.27 L683.948 1376 L678.773 1376.64 L673.199 1377.21 L668.125 1377.73 L662.997 1378.35 L655.866 1379 L649.528 1379.41 
  L641.921 1379.98 L635.159 1380.49 L625.876 1381.14 L613.545 1381.88 L602.55 1382.44 L592.777 1382.87 L584.089 1383.2 L576.367 1383.47 L569.503 1383.72 L563.402 1383.94 
  L557.613 1384.15 L552.466 1384.31 L547.214 1384.48 L542.545 1384.59 L538.394 1384.68 L534.219 1384.78 L530.268 1384.88 L526.329 1384.97 L522.784 1385.05 L519.633 1385.09 
  L514.291 1385.17 L509.543 1385.25 L505.323 1385.32 L499.251 1385.41 L493.853 1385.48 L489.056 1385.54 L482.194 1385.64 L476.095 1385.71 L470.674 1385.79 L465.855 1385.84 
  L461.571 1385.88 L457.261 1385.92 L453.43 1385.96 L447.762 1386.01 L442.723 1386.06 L438.245 1386.1 L434.264 1386.13 L430.725 1386.15 L427.579 1386.18 L424.783 1386.19 
  L422.298 1386.21 L419.825 1386.22 L417.472 1386.23 L415.135 1386.24 L412.917 1386.25 L410.876 1386.26 L409.042 1386.26 L407.318 1386.27 L405.682 1386.28 L404.172 1386.28 
  L402.705 1386.29 L401.334 1386.29 L400.017 1386.3 L398.738 1386.3 L397.494 1386.3 L396.305 1386.31 L395.148 1386.31 L393.967 1386.31 L392.837 1386.32 L391.701 1386.32 
  L390.59 1386.32 L389.52 1386.32 L388.45 1386.33 L387.401 1386.33 L386.354 1386.33 L385.335 1386.33 L384.345 1386.33 L383.392 1386.34 L382.472 1386.34 L381.581 1386.34 
  L380.717 1386.34 L379.88 1386.34 L379.057 1386.34 L378.243 1386.34 L377.444 1386.34 L376.664 1386.34 L375.895 1386.34 L375.145 1386.34 L374.409 1386.34 L373.687 1386.34 
  L372.977 1386.34 L372.275 1386.34 L371.579 1386.34 L370.884 1386.34 L370.2 1386.34 L369.527 1386.34 L368.861 1386.34 L368.207 1386.34 L367.565 1386.34 L366.928 1386.34 
  L366.3 1386.34 L365.681 1386.34 L365.071 1386.34 L364.469 1386.34 L363.874 1386.34 L363.289 1386.33 L362.71 1386.33 L362.136 1386.33 L361.569 1386.33 L361.006 1386.33 
  L360.447 1386.33 L359.895 1386.33 L359.352 1386.33 L358.818 1386.33 L358.289 1386.32 L357.766 1386.32 L357.249 1386.32 L356.737 1386.32 L356.231 1386.32 L355.73 1386.32 
  L355.238 1386.32 L354.753 1386.31 L354.277 1386.31 L353.802 1386.31 L353.329 1386.31 L352.861 1386.31 L352.398 1386.31 L351.941 1386.31 L351.489 1386.3 L351.038 1386.3 
  L350.591 1386.3 L350.153 1386.3 L349.723 1386.3 L349.3 1386.3 L348.882 1386.29 L348.472 1386.29 L348.066 1386.29 L347.663 1386.29 L347.267 1386.29 L346.876 1386.28 
  L346.489 1386.28 L346.104 1386.28 L345.723 1386.28 L345.343 1386.28 L344.968 1386.28 L344.597 1386.27 L344.233 1386.27 L343.873 1386.27 L343.517 1386.27 L343.168 1386.27 
  L342.825 1386.26 L342.491 1386.26 L342.165 1386.26 L341.852 1386.26 L341.548 1386.26 L341.256 1386.25 L340.976 1386.25 L340.712 1386.25 L340.465 1386.25 L340.237 1386.25 
  L340.027 1386.25 L339.838 1386.25 L339.67 1386.24 L339.521 1386.24 L339.389 1386.24 L339.271 1386.24 L339.166 1386.24 L339.073 1386.24 L338.99 1386.24 L338.916 1386.24 
  L338.851 1386.24 L338.792 1386.24 L338.741 1386.24 L338.695 1386.24 L338.654 1386.24 L338.618 1386.24 L338.585 1386.24 L338.557 1386.24 L338.531 1386.24 L338.508 1386.24 
  L338.488 1386.24 L338.47 1386.24 L338.454 1386.24 L338.44 1386.24 L338.428 1386.24 L338.375 1386.23  Z
  " fill="#009af9" fill-rule="evenodd" fill-opacity="0.2"/>
<polyline clip-path="url(#clip182)" style="stroke:#009af9; stroke-linecap:butt; stroke-linejoin:round; stroke-width:12; stroke-opacity:1; fill:none" points="
  338.375,1386.23 338.428,1386.24 338.44,1386.24 338.454,1386.24 338.47,1386.24 338.488,1386.24 338.508,1386.24 338.531,1386.24 338.557,1386.24 338.585,1386.24 
  338.618,1386.24 338.654,1386.24 338.695,1386.24 338.741,1386.24 338.792,1386.24 338.851,1386.24 338.916,1386.24 338.99,1386.24 339.073,1386.24 339.166,1386.24 
  339.271,1386.24 339.389,1386.24 339.521,1386.24 339.67,1386.24 339.838,1386.25 340.027,1386.25 340.237,1386.25 340.465,1386.25 340.712,1386.25 340.976,1386.25 
  341.256,1386.26 341.548,1386.26 341.852,1386.26 342.165,1386.26 342.491,1386.26 342.825,1386.27 343.168,1386.27 343.517,1386.27 343.873,1386.27 344.233,1386.27 
  344.597,1386.28 344.968,1386.28 345.343,1386.28 345.723,1386.28 346.104,1386.28 346.489,1386.29 346.876,1386.29 347.267,1386.29 347.663,1386.29 348.066,1386.29 
  348.472,1386.3 348.882,1386.3 349.3,1386.3 349.723,1386.3 350.153,1386.3 350.591,1386.31 351.038,1386.31 351.489,1386.31 351.941,1386.31 352.398,1386.31 
  352.861,1386.32 353.329,1386.32 353.802,1386.32 354.277,1386.32 354.753,1386.32 355.238,1386.33 355.73,1386.33 356.231,1386.33 356.737,1386.33 357.249,1386.33 
  357.766,1386.33 358.289,1386.34 358.818,1386.34 359.352,1386.34 359.895,1386.34 360.447,1386.34 361.006,1386.34 361.569,1386.34 362.136,1386.35 362.71,1386.35 
  363.289,1386.35 363.874,1386.35 364.469,1386.35 365.071,1386.35 365.681,1386.35 366.3,1386.35 366.928,1386.36 367.565,1386.36 368.207,1386.36 368.861,1386.36 
  369.527,1386.36 370.2,1386.36 370.884,1386.36 371.579,1386.36 372.275,1386.36 372.977,1386.36 373.687,1386.36 374.409,1386.36 375.145,1386.37 375.895,1386.37 
  376.664,1386.37 377.444,1386.37 378.243,1386.37 379.057,1386.37 379.88,1386.37 380.717,1386.37 381.581,1386.37 382.472,1386.37 383.392,1386.37 384.345,1386.37 
  385.335,1386.37 386.354,1386.37 387.401,1386.36 388.45,1386.36 389.52,1386.36 390.59,1386.36 391.701,1386.36 392.837,1386.36 393.967,1386.36 395.148,1386.36 
  396.305,1386.35 397.494,1386.35 398.738,1386.35 400.017,1386.35 401.334,1386.34 402.705,1386.34 404.172,1386.34 405.682,1386.33 407.318,1386.33 409.042,1386.33 
  410.876,1386.32 412.917,1386.31 415.135,1386.31 417.472,1386.3 419.825,1386.29 422.298,1386.28 424.783,1386.27 427.579,1386.26 430.725,1386.25 434.264,1386.23 
  438.245,1386.21 442.723,1386.19 447.762,1386.16 453.43,1386.13 457.261,1386.1 461.571,1386.08 465.855,1386.05 470.674,1386.01 476.095,1385.97 482.194,1385.91 
  489.056,1385.85 493.853,1385.8 499.251,1385.75 505.323,1385.68 509.543,1385.63 514.291,1385.57 519.633,1385.5 522.784,1385.46 526.329,1385.41 530.268,1385.35 
  534.219,1385.29 538.394,1385.23 542.545,1385.16 547.214,1385.08 552.466,1384.98 557.613,1384.88 563.402,1384.76 569.503,1384.63 576.367,1384.46 584.089,1384.27 
  592.777,1384.03 602.55,1383.74 613.545,1383.38 625.876,1382.93 635.159,1382.54 641.921,1382.24 649.528,1381.87 655.866,1381.55 662.997,1381.17 668.125,1380.88 
  673.199,1380.58 678.773,1380.23 683.948,1379.89 689.77,1379.49 696.319,1379.01 702.032,1378.56 707.978,1378.07 712.719,1377.66 717.039,1377.27 721.173,1376.88 
  724.765,1376.53 728.438,1376.15 732.34,1375.74 736.616,1375.27 741.086,1374.76 745.809,1374.19 751.122,1373.51 757.099,1372.71 763.823,1371.75 771.387,1370.6 
  779.235,1369.33 788.063,1367.78 797.994,1365.88 805.076,1364.42 811.331,1363.05 818.367,1361.4 826.284,1359.42 835.189,1357.05 845.208,1354.12 856.292,1350.57 
  863.068,1348.22 870.691,1345.42 879.267,1342.05 886.581,1338.95 894.809,1335.19 900.841,1332.2 907.627,1328.63 915.26,1324.33 922.59,1319.86 927.338,1316.8 
  932.193,1313.52 936.957,1310.14 941.188,1307.01 945.819,1303.44 951.029,1299.25 956.731,1294.48 962.274,1289.6 967.943,1284.32 974.034,1278.31 980.887,1271.19 
  988.596,1262.79 995.797,1254.52 1003.9,1244.62 1010.08,1236.63 1016.33,1228.19 1022.08,1220.07 1028.1,1211.08 1034.54,1201.1 1039.99,1192.41 1045.83,1182.77 
  1051.13,1173.69 1056.13,1164.79 1061.17,1155.49 1066.27,1145.74 1071.63,1135.16 1076.86,1124.58 1081.82,1114.3 1087.4,1102.24 1093.11,1089.47 1098.57,1076.97 
  1104.29,1063.51 1110.42,1048.72 1116.17,1034.46 1122.16,1019.25 1128.21,1003.56 1134.1,987.956 1139.92,972.119 1144.91,958.099 1149.5,944.965 1154.06,931.774 
  1158.17,919.775 1162.09,908.28 1166.01,896.707 1169.67,885.823 1173.15,875.438 1176.59,865.02 1180.13,854.112 1183.55,843.423 1187.35,831.434 1191.27,818.974 
  1195.38,805.825 1199.45,792.669 1203.61,779.248 1207.68,766.314 1211.66,753.982 1215.64,741.669 1219.61,729.459 1223.61,717.356 1227.61,705.333 1231.59,693.577 
  1235.56,681.989 1239.5,670.551 1243.4,659.372 1247.17,648.862 1250.56,639.586 1254.01,630.155 1257.23,621.491 1260.46,612.981 1263.7,604.564 1267.02,596.163 
  1270.44,587.723 1273.85,579.368 1277.28,571.014 1280.68,562.731 1284.01,554.736 1287.3,546.91 1290.61,539.197 1293.91,531.744 1297.14,524.702 1300.35,517.843 
  1303.5,511.171 1306.68,504.527 1309.86,497.994 1313.04,491.564 1316.22,485.42 1319.4,479.59 1322.55,474.067 1325.71,468.851 1328.86,463.849 1332,459.09 
  1335.12,454.557 1338.25,450.301 1341.35,446.336 1344.47,442.711 1347.54,439.398 1350.53,436.295 1353.45,433.457 1356.39,430.802 1359.25,428.316 1362.12,425.932 
  1365.04,423.662 1367.92,421.768 1370.67,420.257 1373.3,419.037 1375.87,417.999 1378.42,417.131 1380.91,416.35 1383.35,415.679 1385.76,415.197 1388.07,414.922 
  1390.44,414.743 1392.82,414.737 1395.3,414.884 1397.79,415.207 1400.29,415.749 1402.71,416.509 1405.14,417.417 1407.61,418.455 1410.17,419.713 1412.74,421.165 
  1415.35,422.839 1418.04,424.676 1420.74,426.645 1423.48,428.896 1426.26,431.365 1429.07,434.043 1431.91,436.965 1434.77,440.132 1437.65,443.555 1440.57,447.268 
  1443.48,451.148 1446.31,455.043 1449.21,459.149 1452.05,463.296 1454.76,467.418 1457.44,471.73 1460.12,476.183 1462.66,480.503 1465.12,484.773 1467.68,489.331 
  1470.2,493.851 1472.76,498.505 1475.42,503.461 1478.17,508.686 1480.91,514.027 1483.85,519.886 1486.78,525.831 1489.77,532.063 1492.88,538.689 1496.02,545.473 
  1499.16,552.429 1502.32,559.549 1505.73,567.478 1509.17,575.744 1512.68,584.359 1516.28,593.188 1519.97,602.194 1523.69,611.428 1527.48,620.966 1531.36,630.744 
  1535.15,640.29 1538.88,649.724 1542.76,659.644 1546.79,670.043 1550.88,680.701 1555.09,691.788 1559.22,702.767 1563.6,714.401 1567.79,725.516 1572.21,737.255 
  1576.61,748.925 1581.2,761.063 1585.83,773.208 1590.67,785.776 1595.53,798.247 1600.37,810.585 1605.36,823.306 1610.44,836.214 1615.79,849.696 1620.96,862.559 
  1626.09,875.1 1631.39,887.778 1636.61,900.14 1641.21,910.92 1645.81,921.605 1650.23,931.701 1654.62,941.569 1658.85,950.922 1662.96,959.916 1666.96,968.571 
  1670.8,976.715 1674.43,984.301 1678.06,991.782 1681.77,999.323 1685.34,1006.52 1688.99,1013.83 1692.6,1020.96 1696.26,1028.03 1699.96,1035.05 1703.43,1041.54 
  1707.03,1048.2 1711.08,1055.57 1715.25,1063.02 1719.72,1070.9 1724.26,1078.78 1729.37,1087.45 1735.12,1096.9 1741.29,1106.73 1747.99,1117.17 1754.49,1127.04 
  1761.07,1136.73 1768.46,1147.29 1776.7,1158.6 1785.04,1169.58 1794.41,1181.32 1801.08,1189.35 1808.59,1198.07 1817.03,1207.53 1826.53,1217.72 1833.61,1224.99 
  1839.75,1231.05 1845.72,1236.74 1852.44,1242.86 1860.01,1249.43 1868.52,1256.51 1876.32,1262.72 1883.18,1267.93 1890.29,1273.1 1898.07,1278.55 1905.6,1283.58 
  1910.41,1286.66 1914.52,1289.24 1918.26,1291.51 1922.39,1293.95 1926.57,1296.37 1930.83,1298.78 1935.59,1301.38 1940.4,1303.95 1945.64,1306.63 1951.54,1309.54 
  1958.17,1312.67 1964.49,1315.53 1971.61,1318.6 1977.1,1320.87 1982.33,1322.98 1987.14,1324.87 1992.29,1326.83 1997.11,1328.61 2002.31,1330.48 2008.04,1332.48 
  2013.78,1334.4 2018.83,1336.03 2024.45,1337.79 2029.6,1339.35 2034.66,1340.83 2039.41,1342.18 2044.08,1343.48 2048.92,1344.77 2054.13,1346.13 2059.53,1347.49 
  2065.6,1348.97 2072.43,1350.57 2078.23,1351.87 2084.76,1353.28 2089.74,1354.32 2094.8,1355.35 2099.61,1356.3 2104.73,1357.28 2110.49,1358.35 2116.97,1359.5 
  2124.26,1360.75 2132.46,1362.08 2141.68,1363.5 2147.55,1364.37 2151.91,1364.99 2156.82,1365.67 2162.18,1366.4 2167.78,1367.12 2174.09,1367.92 2181.18,1368.77 
  2189.16,1369.69 2194.12,1370.23 2198.73,1370.73 2203.36,1371.21 2207.83,1371.66 2212.82,1372.15 2217.35,1372.58 2222.02,1373.01 2226.87,1373.44 2231.71,1373.87 
  2236.61,1374.27 2240.62,1374.6 2244.72,1374.93 2248.58,1375.23 2252.23,1375.5 2255.98,1375.78 2259.7,1376.05 2263.57,1376.32 2267.11,1376.56 2270.63,1376.8 
  2274.04,1377.02 2277.5,1377.25 2280.8,1377.45 2284.05,1377.65 2287.25,1377.84 2290.04,1378 2292.98,1378.16 2294.08,1378.23 
  "/>
<path clip-path="url(#clip180)" d="
M1567.83 270.476 L2283.65 270.476 L2283.65 166.796 L1567.83 166.796  Z
  " fill="#ffffff" fill-rule="evenodd" fill-opacity="1"/>
<polyline clip-path="url(#clip180)" style="stroke:#000000; stroke-linecap:butt; stroke-linejoin:round; stroke-width:4; stroke-opacity:1; fill:none" points="
  1567.83,270.476 2283.65,270.476 2283.65,166.796 1567.83,166.796 1567.83,270.476 
  "/>
<polyline clip-path="url(#clip180)" style="stroke:#009af9; stroke-linecap:butt; stroke-linejoin:round; stroke-width:4; stroke-opacity:1; fill:none" points="
  1590.87,218.636 1729.07,218.636 
  "/>
<path clip-path="url(#clip180)" d="M1752.1 201.356 L1759.07 201.356 L1767.89 224.874 L1776.76 201.356 L1783.72 201.356 L1783.72 235.916 L1779.16 235.916 L1779.16 205.569 L1770.25 229.272 L1765.55 229.272 L1756.64 205.569 L1756.64 235.916 L1752.1 235.916 L1752.1 201.356 Z" fill="#000000" fill-rule="evenodd" fill-opacity="1" /><path clip-path="url(#clip180)" d="M1792.82 209.99 L1797.08 209.99 L1797.08 235.916 L1792.82 235.916 L1792.82 209.99 M1792.82 199.897 L1797.08 199.897 L1797.08 205.291 L1792.82 205.291 L1792.82 199.897 Z" fill="#000000" fill-rule="evenodd" fill-opacity="1" /><path clip-path="url(#clip180)" d="M1823.05 213.925 L1823.05 199.897 L1827.31 199.897 L1827.31 235.916 L1823.05 235.916 L1823.05 232.027 Q1821.71 234.342 1819.65 235.476 Q1817.61 236.587 1814.74 236.587 Q1810.04 236.587 1807.08 232.837 Q1804.14 229.087 1804.14 222.976 Q1804.14 216.865 1807.08 213.115 Q1810.04 209.365 1814.74 209.365 Q1817.61 209.365 1819.65 210.499 Q1821.71 211.61 1823.05 213.925 M1808.54 222.976 Q1808.54 227.675 1810.46 230.36 Q1812.4 233.022 1815.78 233.022 Q1819.16 233.022 1821.11 230.36 Q1823.05 227.675 1823.05 222.976 Q1823.05 218.277 1821.11 215.615 Q1819.16 212.93 1815.78 212.93 Q1812.4 212.93 1810.46 215.615 Q1808.54 218.277 1808.54 222.976 Z" fill="#000000" fill-rule="evenodd" fill-opacity="1" /><path clip-path="url(#clip180)" d="M1853.14 213.925 L1853.14 199.897 L1857.4 199.897 L1857.4 235.916 L1853.14 235.916 L1853.14 232.027 Q1851.8 234.342 1849.74 235.476 Q1847.7 236.587 1844.83 236.587 Q1840.13 236.587 1837.17 232.837 Q1834.23 229.087 1834.23 222.976 Q1834.23 216.865 1837.17 213.115 Q1840.13 209.365 1844.83 209.365 Q1847.7 209.365 1849.74 210.499 Q1851.8 211.61 1853.14 213.925 M1838.63 222.976 Q1838.63 227.675 1840.55 230.36 Q1842.5 233.022 1845.88 233.022 Q1849.26 233.022 1851.2 230.36 Q1853.14 227.675 1853.14 222.976 Q1853.14 218.277 1851.2 215.615 Q1849.26 212.93 1845.88 212.93 Q1842.5 212.93 1840.55 215.615 Q1838.63 218.277 1838.63 222.976 Z" fill="#000000" fill-rule="evenodd" fill-opacity="1" /><path clip-path="url(#clip180)" d="M1866.18 199.897 L1870.44 199.897 L1870.44 235.916 L1866.18 235.916 L1866.18 199.897 Z" fill="#000000" fill-rule="evenodd" fill-opacity="1" /><path clip-path="url(#clip180)" d="M1901.52 221.888 L1901.52 223.971 L1881.94 223.971 Q1882.22 228.369 1884.58 230.684 Q1886.96 232.976 1891.2 232.976 Q1893.65 232.976 1895.94 232.374 Q1898.26 231.772 1900.53 230.569 L1900.53 234.596 Q1898.24 235.568 1895.83 236.078 Q1893.42 236.587 1890.94 236.587 Q1884.74 236.587 1881.11 232.976 Q1877.5 229.365 1877.5 223.207 Q1877.5 216.842 1880.92 213.115 Q1884.37 209.365 1890.2 209.365 Q1895.44 209.365 1898.47 212.745 Q1901.52 216.101 1901.52 221.888 M1897.26 220.638 Q1897.22 217.143 1895.3 215.059 Q1893.4 212.976 1890.25 212.976 Q1886.69 212.976 1884.53 214.99 Q1882.4 217.004 1882.08 220.661 L1897.26 220.638 Z" fill="#000000" fill-rule="evenodd" fill-opacity="1" /><path clip-path="url(#clip180)" d="M1924.32 235.198 L1924.32 230.939 Q1926.08 231.772 1927.89 232.212 Q1929.69 232.652 1931.43 232.652 Q1936.06 232.652 1938.49 229.55 Q1940.94 226.425 1941.29 220.082 Q1939.95 222.073 1937.89 223.138 Q1935.83 224.203 1933.33 224.203 Q1928.14 224.203 1925.11 221.078 Q1922.1 217.93 1922.1 212.49 Q1922.1 207.166 1925.25 203.948 Q1928.4 200.731 1933.63 200.731 Q1939.62 200.731 1942.77 205.337 Q1945.94 209.92 1945.94 218.67 Q1945.94 226.842 1942.06 231.726 Q1938.19 236.587 1931.64 236.587 Q1929.88 236.587 1928.07 236.24 Q1926.27 235.893 1924.32 235.198 M1933.63 220.545 Q1936.78 220.545 1938.61 218.393 Q1940.46 216.24 1940.46 212.49 Q1940.46 208.763 1938.61 206.61 Q1936.78 204.434 1933.63 204.434 Q1930.48 204.434 1928.63 206.61 Q1926.8 208.763 1926.8 212.49 Q1926.8 216.24 1928.63 218.393 Q1930.48 220.545 1933.63 220.545 Z" fill="#000000" fill-rule="evenodd" fill-opacity="1" /><path clip-path="url(#clip180)" d="M1954.39 201.356 L1972.75 201.356 L1972.75 205.291 L1958.68 205.291 L1958.68 213.763 Q1959.69 213.416 1960.71 213.254 Q1961.73 213.069 1962.75 213.069 Q1968.54 213.069 1971.92 216.24 Q1975.3 219.411 1975.3 224.828 Q1975.3 230.406 1971.82 233.508 Q1968.35 236.587 1962.03 236.587 Q1959.86 236.587 1957.59 236.217 Q1955.34 235.846 1952.94 235.106 L1952.94 230.406 Q1955.02 231.541 1957.24 232.096 Q1959.46 232.652 1961.94 232.652 Q1965.94 232.652 1968.28 230.545 Q1970.62 228.439 1970.62 224.828 Q1970.62 221.217 1968.28 219.11 Q1965.94 217.004 1961.94 217.004 Q1960.06 217.004 1958.19 217.42 Q1956.34 217.837 1954.39 218.717 L1954.39 201.356 Z" fill="#000000" fill-rule="evenodd" fill-opacity="1" /><path clip-path="url(#clip180)" d="M2013.91 220.707 Q2011.89 220.707 2010.74 222.42 Q2009.6 224.133 2009.6 227.189 Q2009.6 230.198 2010.74 231.934 Q2011.89 233.647 2013.91 233.647 Q2015.87 233.647 2017.01 231.934 Q2018.17 230.198 2018.17 227.189 Q2018.17 224.157 2017.01 222.444 Q2015.87 220.707 2013.91 220.707 M2013.91 217.768 Q2017.56 217.768 2019.72 220.314 Q2021.87 222.86 2021.87 227.189 Q2021.87 231.518 2019.69 234.064 Q2017.54 236.587 2013.91 236.587 Q2010.2 236.587 2008.05 234.064 Q2005.9 231.518 2005.9 227.189 Q2005.9 222.837 2008.05 220.314 Q2010.23 217.768 2013.91 217.768 M1990.02 203.671 Q1988.03 203.671 1986.87 205.407 Q1985.74 207.12 1985.74 210.129 Q1985.74 213.184 1986.87 214.897 Q1988 216.61 1990.02 216.61 Q1992.03 216.61 1993.17 214.897 Q1994.32 213.184 1994.32 210.129 Q1994.32 207.143 1993.17 205.407 Q1992.01 203.671 1990.02 203.671 M2010.92 200.731 L2014.62 200.731 L1993 236.587 L1989.3 236.587 L2010.92 200.731 M1990.02 200.731 Q1993.68 200.731 1995.85 203.277 Q1998.03 205.8 1998.03 210.129 Q1998.03 214.504 1995.85 217.027 Q1993.7 219.55 1990.02 219.55 Q1986.34 219.55 1984.18 217.027 Q1982.06 214.481 1982.06 210.129 Q1982.06 205.823 1984.21 203.277 Q1986.36 200.731 1990.02 200.731 Z" fill="#000000" fill-rule="evenodd" fill-opacity="1" /><path clip-path="url(#clip180)" d="M2058.24 204.527 Q2053.14 204.527 2050.13 208.323 Q2047.15 212.12 2047.15 218.67 Q2047.15 225.198 2050.13 228.994 Q2053.14 232.791 2058.24 232.791 Q2063.33 232.791 2066.29 228.994 Q2069.28 225.198 2069.28 218.67 Q2069.28 212.12 2066.29 208.323 Q2063.33 204.527 2058.24 204.527 M2064.79 235.291 L2070.94 242.027 L2065.3 242.027 L2060.18 236.494 Q2059.42 236.541 2059 236.564 Q2058.61 236.587 2058.24 236.587 Q2050.94 236.587 2046.57 231.726 Q2042.22 226.842 2042.22 218.67 Q2042.22 210.476 2046.57 205.615 Q2050.94 200.731 2058.24 200.731 Q2065.5 200.731 2069.86 205.615 Q2074.21 210.476 2074.21 218.67 Q2074.21 224.689 2071.78 228.971 Q2069.37 233.254 2064.79 235.291 Z" fill="#000000" fill-rule="evenodd" fill-opacity="1" /><path clip-path="url(#clip180)" d="M2080.9 225.684 L2080.9 209.99 L2085.16 209.99 L2085.16 225.522 Q2085.16 229.203 2086.59 231.055 Q2088.03 232.883 2090.9 232.883 Q2094.35 232.883 2096.34 230.684 Q2098.35 228.485 2098.35 224.689 L2098.35 209.99 L2102.61 209.99 L2102.61 235.916 L2098.35 235.916 L2098.35 231.934 Q2096.8 234.295 2094.74 235.453 Q2092.7 236.587 2089.99 236.587 Q2085.53 236.587 2083.21 233.809 Q2080.9 231.031 2080.9 225.684 M2091.61 209.365 L2091.61 209.365 Z" fill="#000000" fill-rule="evenodd" fill-opacity="1" /><path clip-path="url(#clip180)" d="M2123.17 222.883 Q2118 222.883 2116.01 224.064 Q2114.02 225.244 2114.02 228.092 Q2114.02 230.36 2115.5 231.703 Q2117.01 233.022 2119.58 233.022 Q2123.12 233.022 2125.25 230.522 Q2127.4 227.999 2127.4 223.832 L2127.4 222.883 L2123.17 222.883 M2131.66 221.124 L2131.66 235.916 L2127.4 235.916 L2127.4 231.981 Q2125.94 234.342 2123.77 235.476 Q2121.59 236.587 2118.44 236.587 Q2114.46 236.587 2112.1 234.365 Q2109.76 232.119 2109.76 228.369 Q2109.76 223.994 2112.68 221.772 Q2115.62 219.55 2121.43 219.55 L2127.4 219.55 L2127.4 219.133 Q2127.4 216.194 2125.46 214.596 Q2123.54 212.976 2120.04 212.976 Q2117.82 212.976 2115.71 213.508 Q2113.61 214.041 2111.66 215.106 L2111.66 211.17 Q2114 210.268 2116.2 209.828 Q2118.4 209.365 2120.48 209.365 Q2126.11 209.365 2128.88 212.282 Q2131.66 215.198 2131.66 221.124 Z" fill="#000000" fill-rule="evenodd" fill-opacity="1" /><path clip-path="url(#clip180)" d="M2161.98 220.268 L2161.98 235.916 L2157.73 235.916 L2157.73 220.407 Q2157.73 216.726 2156.29 214.897 Q2154.86 213.069 2151.98 213.069 Q2148.54 213.069 2146.55 215.268 Q2144.55 217.467 2144.55 221.263 L2144.55 235.916 L2140.27 235.916 L2140.27 209.99 L2144.55 209.99 L2144.55 214.018 Q2146.08 211.68 2148.14 210.522 Q2150.23 209.365 2152.93 209.365 Q2157.4 209.365 2159.69 212.143 Q2161.98 214.897 2161.98 220.268 Z" fill="#000000" fill-rule="evenodd" fill-opacity="1" /><path clip-path="url(#clip180)" d="M2174.69 202.629 L2174.69 209.99 L2183.47 209.99 L2183.47 213.3 L2174.69 213.3 L2174.69 227.374 Q2174.69 230.545 2175.55 231.448 Q2176.43 232.351 2179.09 232.351 L2183.47 232.351 L2183.47 235.916 L2179.09 235.916 Q2174.16 235.916 2172.29 234.087 Q2170.41 232.235 2170.41 227.374 L2170.41 213.3 L2167.29 213.3 L2167.29 209.99 L2170.41 209.99 L2170.41 202.629 L2174.69 202.629 Z" fill="#000000" fill-rule="evenodd" fill-opacity="1" /><path clip-path="url(#clip180)" d="M2189.07 209.99 L2193.33 209.99 L2193.33 235.916 L2189.07 235.916 L2189.07 209.99 M2189.07 199.897 L2193.33 199.897 L2193.33 205.291 L2189.07 205.291 L2189.07 199.897 Z" fill="#000000" fill-rule="evenodd" fill-opacity="1" /><path clip-path="url(#clip180)" d="M2202.24 199.897 L2206.5 199.897 L2206.5 235.916 L2202.24 235.916 L2202.24 199.897 Z" fill="#000000" fill-rule="evenodd" fill-opacity="1" /><path clip-path="url(#clip180)" d="M2237.59 221.888 L2237.59 223.971 L2218 223.971 Q2218.28 228.369 2220.64 230.684 Q2223.03 232.976 2227.26 232.976 Q2229.72 232.976 2232.01 232.374 Q2234.32 231.772 2236.59 230.569 L2236.59 234.596 Q2234.3 235.568 2231.89 236.078 Q2229.48 236.587 2227.01 236.587 Q2220.8 236.587 2217.17 232.976 Q2213.56 229.365 2213.56 223.207 Q2213.56 216.842 2216.98 213.115 Q2220.43 209.365 2226.27 209.365 Q2231.5 209.365 2234.53 212.745 Q2237.59 216.101 2237.59 221.888 M2233.33 220.638 Q2233.28 217.143 2231.36 215.059 Q2229.46 212.976 2226.31 212.976 Q2222.75 212.976 2220.6 214.99 Q2218.47 217.004 2218.14 220.661 L2233.33 220.638 Z" fill="#000000" fill-rule="evenodd" fill-opacity="1" /></svg>
