<?xml version="1.0" encoding="utf-8"?>
<svg xmlns="http://www.w3.org/2000/svg" xmlns:xlink="http://www.w3.org/1999/xlink" width="600" height="400" viewBox="0 0 2400 1600">
<defs>
  <clipPath id="clip390">
    <rect x="0" y="0" width="2400" height="1600"/>
  </clipPath>
</defs>
<path clip-path="url(#clip390)" d="
M0 1600 L2400 1600 L2400 0 L0 0  Z
  " fill="#ffffff" fill-rule="evenodd" fill-opacity="1"/>
<defs>
  <clipPath id="clip391">
    <rect x="480" y="0" width="1681" height="1600"/>
  </clipPath>
</defs>
<defs>
  <clipPath id="clip392">
    <rect x="250" y="123" width="2104" height="1301"/>
  </clipPath>
</defs>
<path clip-path="url(#clip390)" d="
M279.704 1423.18 L2352.76 1423.18 L2352.76 123.472 L279.704 123.472  Z
  " fill="#ffffff" fill-rule="evenodd" fill-opacity="1"/>
<defs>
  <clipPath id="clip393">
    <rect x="279" y="123" width="2074" height="1301"/>
  </clipPath>
</defs>
<polyline clip-path="url(#clip393)" style="stroke:#000000; stroke-linecap:butt; stroke-linejoin:round; stroke-width:2; stroke-opacity:0.1; fill:none" points="
  338.375,1423.18 338.375,123.472 
  "/>
<polyline clip-path="url(#clip393)" style="stroke:#000000; stroke-linecap:butt; stroke-linejoin:round; stroke-width:2; stroke-opacity:0.1; fill:none" points="
  693.959,1423.18 693.959,123.472 
  "/>
<polyline clip-path="url(#clip393)" style="stroke:#000000; stroke-linecap:butt; stroke-linejoin:round; stroke-width:2; stroke-opacity:0.1; fill:none" points="
  1049.54,1423.18 1049.54,123.472 
  "/>
<polyline clip-path="url(#clip393)" style="stroke:#000000; stroke-linecap:butt; stroke-linejoin:round; stroke-width:2; stroke-opacity:0.1; fill:none" points="
  1405.13,1423.18 1405.13,123.472 
  "/>
<polyline clip-path="url(#clip393)" style="stroke:#000000; stroke-linecap:butt; stroke-linejoin:round; stroke-width:2; stroke-opacity:0.1; fill:none" points="
  1760.71,1423.18 1760.71,123.472 
  "/>
<polyline clip-path="url(#clip393)" style="stroke:#000000; stroke-linecap:butt; stroke-linejoin:round; stroke-width:2; stroke-opacity:0.1; fill:none" points="
  2116.29,1423.18 2116.29,123.472 
  "/>
<polyline clip-path="url(#clip390)" style="stroke:#000000; stroke-linecap:butt; stroke-linejoin:round; stroke-width:4; stroke-opacity:1; fill:none" points="
  279.704,1423.18 2352.76,1423.18 
  "/>
<polyline clip-path="url(#clip390)" style="stroke:#000000; stroke-linecap:butt; stroke-linejoin:round; stroke-width:4; stroke-opacity:1; fill:none" points="
  338.375,1423.18 338.375,1404.28 
  "/>
<polyline clip-path="url(#clip390)" style="stroke:#000000; stroke-linecap:butt; stroke-linejoin:round; stroke-width:4; stroke-opacity:1; fill:none" points="
  693.959,1423.18 693.959,1404.28 
  "/>
<polyline clip-path="url(#clip390)" style="stroke:#000000; stroke-linecap:butt; stroke-linejoin:round; stroke-width:4; stroke-opacity:1; fill:none" points="
  1049.54,1423.18 1049.54,1404.28 
  "/>
<polyline clip-path="url(#clip390)" style="stroke:#000000; stroke-linecap:butt; stroke-linejoin:round; stroke-width:4; stroke-opacity:1; fill:none" points="
  1405.13,1423.18 1405.13,1404.28 
  "/>
<polyline clip-path="url(#clip390)" style="stroke:#000000; stroke-linecap:butt; stroke-linejoin:round; stroke-width:4; stroke-opacity:1; fill:none" points="
  1760.71,1423.18 1760.71,1404.28 
  "/>
<polyline clip-path="url(#clip390)" style="stroke:#000000; stroke-linecap:butt; stroke-linejoin:round; stroke-width:4; stroke-opacity:1; fill:none" points="
  2116.29,1423.18 2116.29,1404.28 
  "/>
<path clip-path="url(#clip390)" d="M338.375 1454.1 Q334.764 1454.1 332.935 1457.66 Q331.13 1461.2 331.13 1468.33 Q331.13 1475.44 332.935 1479.01 Q334.764 1482.55 338.375 1482.55 Q342.009 1482.55 343.815 1479.01 Q345.644 1475.44 345.644 1468.33 Q345.644 1461.2 343.815 1457.66 Q342.009 1454.1 338.375 1454.1 M338.375 1450.39 Q344.185 1450.39 347.241 1455 Q350.32 1459.58 350.32 1468.33 Q350.32 1477.06 347.241 1481.67 Q344.185 1486.25 338.375 1486.25 Q332.565 1486.25 329.486 1481.67 Q326.431 1477.06 326.431 1468.33 Q326.431 1459.58 329.486 1455 Q332.565 1450.39 338.375 1450.39 Z" fill="#000000" fill-rule="evenodd" fill-opacity="1" /><path clip-path="url(#clip390)" d="M653.565 1481.64 L661.204 1481.64 L661.204 1455.28 L652.894 1456.95 L652.894 1452.69 L661.158 1451.02 L665.834 1451.02 L665.834 1481.64 L673.473 1481.64 L673.473 1485.58 L653.565 1485.58 L653.565 1481.64 Z" fill="#000000" fill-rule="evenodd" fill-opacity="1" /><path clip-path="url(#clip390)" d="M692.917 1454.1 Q689.306 1454.1 687.477 1457.66 Q685.672 1461.2 685.672 1468.33 Q685.672 1475.44 687.477 1479.01 Q689.306 1482.55 692.917 1482.55 Q696.551 1482.55 698.357 1479.01 Q700.186 1475.44 700.186 1468.33 Q700.186 1461.2 698.357 1457.66 Q696.551 1454.1 692.917 1454.1 M692.917 1450.39 Q698.727 1450.39 701.783 1455 Q704.861 1459.58 704.861 1468.33 Q704.861 1477.06 701.783 1481.67 Q698.727 1486.25 692.917 1486.25 Q687.107 1486.25 684.028 1481.67 Q680.973 1477.06 680.973 1468.33 Q680.973 1459.58 684.028 1455 Q687.107 1450.39 692.917 1450.39 Z" fill="#000000" fill-rule="evenodd" fill-opacity="1" /><path clip-path="url(#clip390)" d="M723.079 1454.1 Q719.468 1454.1 717.639 1457.66 Q715.834 1461.2 715.834 1468.33 Q715.834 1475.44 717.639 1479.01 Q719.468 1482.55 723.079 1482.55 Q726.713 1482.55 728.519 1479.01 Q730.347 1475.44 730.347 1468.33 Q730.347 1461.2 728.519 1457.66 Q726.713 1454.1 723.079 1454.1 M723.079 1450.39 Q728.889 1450.39 731.945 1455 Q735.023 1459.58 735.023 1468.33 Q735.023 1477.06 731.945 1481.67 Q728.889 1486.25 723.079 1486.25 Q717.269 1486.25 714.19 1481.67 Q711.135 1477.06 711.135 1468.33 Q711.135 1459.58 714.19 1455 Q717.269 1450.39 723.079 1450.39 Z" fill="#000000" fill-rule="evenodd" fill-opacity="1" /><path clip-path="url(#clip390)" d="M1013.23 1481.64 L1029.55 1481.64 L1029.55 1485.58 L1007.61 1485.58 L1007.61 1481.64 Q1010.27 1478.89 1014.85 1474.26 Q1019.46 1469.61 1020.64 1468.27 Q1022.89 1465.74 1023.77 1464.01 Q1024.67 1462.25 1024.67 1460.56 Q1024.67 1457.8 1022.73 1456.07 Q1020.8 1454.33 1017.7 1454.33 Q1015.5 1454.33 1013.05 1455.09 Q1010.62 1455.86 1007.84 1457.41 L1007.84 1452.69 Q1010.67 1451.55 1013.12 1450.97 Q1015.57 1450.39 1017.61 1450.39 Q1022.98 1450.39 1026.17 1453.08 Q1029.37 1455.77 1029.37 1460.26 Q1029.37 1462.39 1028.56 1464.31 Q1027.77 1466.2 1025.67 1468.8 Q1025.09 1469.47 1021.98 1472.69 Q1018.88 1475.88 1013.23 1481.64 Z" fill="#000000" fill-rule="evenodd" fill-opacity="1" /><path clip-path="url(#clip390)" d="M1049.37 1454.1 Q1045.76 1454.1 1043.93 1457.66 Q1042.12 1461.2 1042.12 1468.33 Q1042.12 1475.44 1043.93 1479.01 Q1045.76 1482.55 1049.37 1482.55 Q1053 1482.55 1054.81 1479.01 Q1056.64 1475.44 1056.64 1468.33 Q1056.64 1461.2 1054.81 1457.66 Q1053 1454.1 1049.37 1454.1 M1049.37 1450.39 Q1055.18 1450.39 1058.23 1455 Q1061.31 1459.58 1061.31 1468.33 Q1061.31 1477.06 1058.23 1481.67 Q1055.18 1486.25 1049.37 1486.25 Q1043.56 1486.25 1040.48 1481.67 Q1037.42 1477.06 1037.42 1468.33 Q1037.42 1459.58 1040.48 1455 Q1043.56 1450.39 1049.37 1450.39 Z" fill="#000000" fill-rule="evenodd" fill-opacity="1" /><path clip-path="url(#clip390)" d="M1079.53 1454.1 Q1075.92 1454.1 1074.09 1457.66 Q1072.29 1461.2 1072.29 1468.33 Q1072.29 1475.44 1074.09 1479.01 Q1075.92 1482.55 1079.53 1482.55 Q1083.16 1482.55 1084.97 1479.01 Q1086.8 1475.44 1086.8 1468.33 Q1086.8 1461.2 1084.97 1457.66 Q1083.16 1454.1 1079.53 1454.1 M1079.53 1450.39 Q1085.34 1450.39 1088.4 1455 Q1091.47 1459.58 1091.47 1468.33 Q1091.47 1477.06 1088.4 1481.67 Q1085.34 1486.25 1079.53 1486.25 Q1073.72 1486.25 1070.64 1481.67 Q1067.59 1477.06 1067.59 1468.33 Q1067.59 1459.58 1070.64 1455 Q1073.72 1450.39 1079.53 1450.39 Z" fill="#000000" fill-rule="evenodd" fill-opacity="1" /><path clip-path="url(#clip390)" d="M1378.89 1466.95 Q1382.24 1467.66 1384.12 1469.93 Q1386.02 1472.2 1386.02 1475.53 Q1386.02 1480.65 1382.5 1483.45 Q1378.98 1486.25 1372.5 1486.25 Q1370.32 1486.25 1368.01 1485.81 Q1365.72 1485.39 1363.26 1484.54 L1363.26 1480.02 Q1365.21 1481.16 1367.52 1481.74 Q1369.84 1482.32 1372.36 1482.32 Q1376.76 1482.32 1379.05 1480.58 Q1381.36 1478.84 1381.36 1475.53 Q1381.36 1472.48 1379.21 1470.77 Q1377.08 1469.03 1373.26 1469.03 L1369.23 1469.03 L1369.23 1465.19 L1373.45 1465.19 Q1376.9 1465.19 1378.73 1463.82 Q1380.55 1462.43 1380.55 1459.84 Q1380.55 1457.18 1378.66 1455.77 Q1376.78 1454.33 1373.26 1454.33 Q1371.34 1454.33 1369.14 1454.75 Q1366.94 1455.16 1364.3 1456.04 L1364.3 1451.88 Q1366.97 1451.14 1369.28 1450.77 Q1371.62 1450.39 1373.68 1450.39 Q1379 1450.39 1382.11 1452.83 Q1385.21 1455.23 1385.21 1459.35 Q1385.21 1462.22 1383.56 1464.21 Q1381.92 1466.18 1378.89 1466.95 Z" fill="#000000" fill-rule="evenodd" fill-opacity="1" /><path clip-path="url(#clip390)" d="M1404.88 1454.1 Q1401.27 1454.1 1399.44 1457.66 Q1397.64 1461.2 1397.64 1468.33 Q1397.64 1475.44 1399.44 1479.01 Q1401.27 1482.55 1404.88 1482.55 Q1408.52 1482.55 1410.32 1479.01 Q1412.15 1475.44 1412.15 1468.33 Q1412.15 1461.2 1410.32 1457.66 Q1408.52 1454.1 1404.88 1454.1 M1404.88 1450.39 Q1410.69 1450.39 1413.75 1455 Q1416.83 1459.58 1416.83 1468.33 Q1416.83 1477.06 1413.75 1481.67 Q1410.69 1486.25 1404.88 1486.25 Q1399.07 1486.25 1395.99 1481.67 Q1392.94 1477.06 1392.94 1468.33 Q1392.94 1459.58 1395.99 1455 Q1399.07 1450.39 1404.88 1450.39 Z" fill="#000000" fill-rule="evenodd" fill-opacity="1" /><path clip-path="url(#clip390)" d="M1435.04 1454.1 Q1431.43 1454.1 1429.6 1457.66 Q1427.8 1461.2 1427.8 1468.33 Q1427.8 1475.44 1429.6 1479.01 Q1431.43 1482.55 1435.04 1482.55 Q1438.68 1482.55 1440.48 1479.01 Q1442.31 1475.44 1442.31 1468.33 Q1442.31 1461.2 1440.48 1457.66 Q1438.68 1454.1 1435.04 1454.1 M1435.04 1450.39 Q1440.85 1450.39 1443.91 1455 Q1446.99 1459.58 1446.99 1468.33 Q1446.99 1477.06 1443.91 1481.67 Q1440.85 1486.25 1435.04 1486.25 Q1429.23 1486.25 1426.16 1481.67 Q1423.1 1477.06 1423.1 1468.33 Q1423.1 1459.58 1426.16 1455 Q1429.23 1450.39 1435.04 1450.39 Z" fill="#000000" fill-rule="evenodd" fill-opacity="1" /><path clip-path="url(#clip390)" d="M1733.8 1455.09 L1721.99 1473.54 L1733.8 1473.54 L1733.8 1455.09 M1732.57 1451.02 L1738.45 1451.02 L1738.45 1473.54 L1743.38 1473.54 L1743.38 1477.43 L1738.45 1477.43 L1738.45 1485.58 L1733.8 1485.58 L1733.8 1477.43 L1718.2 1477.43 L1718.2 1472.92 L1732.57 1451.02 Z" fill="#000000" fill-rule="evenodd" fill-opacity="1" /><path clip-path="url(#clip390)" d="M1761.11 1454.1 Q1757.5 1454.1 1755.67 1457.66 Q1753.87 1461.2 1753.87 1468.33 Q1753.87 1475.44 1755.67 1479.01 Q1757.5 1482.55 1761.11 1482.55 Q1764.75 1482.55 1766.55 1479.01 Q1768.38 1475.44 1768.38 1468.33 Q1768.38 1461.2 1766.55 1457.66 Q1764.75 1454.1 1761.11 1454.1 M1761.11 1450.39 Q1766.92 1450.39 1769.98 1455 Q1773.06 1459.58 1773.06 1468.33 Q1773.06 1477.06 1769.98 1481.67 Q1766.92 1486.25 1761.11 1486.25 Q1755.3 1486.25 1752.23 1481.67 Q1749.17 1477.06 1749.17 1468.33 Q1749.17 1459.58 1752.23 1455 Q1755.3 1450.39 1761.11 1450.39 Z" fill="#000000" fill-rule="evenodd" fill-opacity="1" /><path clip-path="url(#clip390)" d="M1791.28 1454.1 Q1787.67 1454.1 1785.84 1457.66 Q1784.03 1461.2 1784.03 1468.33 Q1784.03 1475.44 1785.84 1479.01 Q1787.67 1482.55 1791.28 1482.55 Q1794.91 1482.55 1796.72 1479.01 Q1798.54 1475.44 1798.54 1468.33 Q1798.54 1461.2 1796.72 1457.66 Q1794.91 1454.1 1791.28 1454.1 M1791.28 1450.39 Q1797.09 1450.39 1800.14 1455 Q1803.22 1459.58 1803.22 1468.33 Q1803.22 1477.06 1800.14 1481.67 Q1797.09 1486.25 1791.28 1486.25 Q1785.47 1486.25 1782.39 1481.67 Q1779.33 1477.06 1779.33 1468.33 Q1779.33 1459.58 1782.39 1455 Q1785.47 1450.39 1791.28 1450.39 Z" fill="#000000" fill-rule="evenodd" fill-opacity="1" /><path clip-path="url(#clip390)" d="M2075.91 1451.02 L2094.27 1451.02 L2094.27 1454.96 L2080.19 1454.96 L2080.19 1463.43 Q2081.21 1463.08 2082.23 1462.92 Q2083.25 1462.73 2084.27 1462.73 Q2090.05 1462.73 2093.43 1465.9 Q2096.81 1469.08 2096.81 1474.49 Q2096.81 1480.07 2093.34 1483.17 Q2089.87 1486.25 2083.55 1486.25 Q2081.37 1486.25 2079.11 1485.88 Q2076.86 1485.51 2074.45 1484.77 L2074.45 1480.07 Q2076.54 1481.2 2078.76 1481.76 Q2080.98 1482.32 2083.46 1482.32 Q2087.46 1482.32 2089.8 1480.21 Q2092.14 1478.1 2092.14 1474.49 Q2092.14 1470.88 2089.8 1468.77 Q2087.46 1466.67 2083.46 1466.67 Q2081.58 1466.67 2079.71 1467.08 Q2077.86 1467.5 2075.91 1468.38 L2075.91 1451.02 Z" fill="#000000" fill-rule="evenodd" fill-opacity="1" /><path clip-path="url(#clip390)" d="M2116.03 1454.1 Q2112.42 1454.1 2110.59 1457.66 Q2108.78 1461.2 2108.78 1468.33 Q2108.78 1475.44 2110.59 1479.01 Q2112.42 1482.55 2116.03 1482.55 Q2119.66 1482.55 2121.47 1479.01 Q2123.3 1475.44 2123.3 1468.33 Q2123.3 1461.2 2121.47 1457.66 Q2119.66 1454.1 2116.03 1454.1 M2116.03 1450.39 Q2121.84 1450.39 2124.89 1455 Q2127.97 1459.58 2127.97 1468.33 Q2127.97 1477.06 2124.89 1481.67 Q2121.84 1486.25 2116.03 1486.25 Q2110.22 1486.25 2107.14 1481.67 Q2104.08 1477.06 2104.08 1468.33 Q2104.08 1459.58 2107.14 1455 Q2110.22 1450.39 2116.03 1450.39 Z" fill="#000000" fill-rule="evenodd" fill-opacity="1" /><path clip-path="url(#clip390)" d="M2146.19 1454.1 Q2142.58 1454.1 2140.75 1457.66 Q2138.94 1461.2 2138.94 1468.33 Q2138.94 1475.44 2140.75 1479.01 Q2142.58 1482.55 2146.19 1482.55 Q2149.82 1482.55 2151.63 1479.01 Q2153.46 1475.44 2153.46 1468.33 Q2153.46 1461.2 2151.63 1457.66 Q2149.82 1454.1 2146.19 1454.1 M2146.19 1450.39 Q2152 1450.39 2155.05 1455 Q2158.13 1459.58 2158.13 1468.33 Q2158.13 1477.06 2155.05 1481.67 Q2152 1486.25 2146.19 1486.25 Q2140.38 1486.25 2137.3 1481.67 Q2134.24 1477.06 2134.24 1468.33 Q2134.24 1459.58 2137.3 1455 Q2140.38 1450.39 2146.19 1450.39 Z" fill="#000000" fill-rule="evenodd" fill-opacity="1" /><path clip-path="url(#clip390)" d="M1324.7 1548.54 Q1324.7 1549.45 1324.28 1549.67 Q1323.86 1549.87 1322.7 1549.87 L1316.52 1549.87 L1311.63 1569.32 Q1311.24 1571.02 1311.24 1572.47 Q1311.24 1574.08 1311.72 1574.79 Q1312.24 1575.5 1313.3 1575.5 Q1315.39 1575.5 1317.65 1573.6 Q1319.93 1571.7 1321.87 1567.06 Q1322.12 1566.45 1322.25 1566.32 Q1322.41 1566.16 1322.83 1566.16 Q1323.64 1566.16 1323.64 1566.81 Q1323.64 1567.03 1323.19 1568.06 Q1322.77 1569.09 1321.83 1570.61 Q1320.93 1572.12 1319.74 1573.54 Q1318.58 1574.95 1316.81 1575.98 Q1315.04 1576.98 1313.14 1576.98 Q1310.47 1576.98 1308.76 1575.28 Q1307.08 1573.57 1307.08 1570.9 Q1307.08 1570.03 1307.76 1567.26 Q1308.44 1564.45 1312.11 1549.87 L1306.28 1549.87 Q1305.47 1549.87 1305.15 1549.83 Q1304.86 1549.8 1304.64 1549.64 Q1304.44 1549.45 1304.44 1549.06 Q1304.44 1548.45 1304.7 1548.19 Q1304.96 1547.9 1305.28 1547.87 Q1305.64 1547.8 1306.44 1547.8 L1312.62 1547.8 L1315.2 1537.34 Q1315.46 1536.31 1316.1 1535.73 Q1316.78 1535.12 1317.16 1535.05 Q1317.55 1534.95 1317.84 1534.95 Q1318.71 1534.95 1319.23 1535.44 Q1319.74 1535.89 1319.74 1536.73 Q1319.74 1537.18 1317.04 1547.8 L1322.83 1547.8 Q1323.57 1547.8 1323.86 1547.84 Q1324.19 1547.87 1324.44 1548.03 Q1324.7 1548.19 1324.7 1548.54 Z" fill="#000000" fill-rule="evenodd" fill-opacity="1" /><polyline clip-path="url(#clip393)" style="stroke:#000000; stroke-linecap:butt; stroke-linejoin:round; stroke-width:2; stroke-opacity:0.1; fill:none" points="
  279.704,1387.15 2352.76,1387.15 
  "/>
<polyline clip-path="url(#clip393)" style="stroke:#000000; stroke-linecap:butt; stroke-linejoin:round; stroke-width:2; stroke-opacity:0.1; fill:none" points="
  279.704,1081.08 2352.76,1081.08 
  "/>
<polyline clip-path="url(#clip393)" style="stroke:#000000; stroke-linecap:butt; stroke-linejoin:round; stroke-width:2; stroke-opacity:0.1; fill:none" points="
  279.704,775.018 2352.76,775.018 
  "/>
<polyline clip-path="url(#clip393)" style="stroke:#000000; stroke-linecap:butt; stroke-linejoin:round; stroke-width:2; stroke-opacity:0.1; fill:none" points="
  279.704,468.952 2352.76,468.952 
  "/>
<polyline clip-path="url(#clip393)" style="stroke:#000000; stroke-linecap:butt; stroke-linejoin:round; stroke-width:2; stroke-opacity:0.1; fill:none" points="
  279.704,162.886 2352.76,162.886 
  "/>
<polyline clip-path="url(#clip390)" style="stroke:#000000; stroke-linecap:butt; stroke-linejoin:round; stroke-width:4; stroke-opacity:1; fill:none" points="
  279.704,1423.18 279.704,123.472 
  "/>
<polyline clip-path="url(#clip390)" style="stroke:#000000; stroke-linecap:butt; stroke-linejoin:round; stroke-width:4; stroke-opacity:1; fill:none" points="
  279.704,1387.15 298.602,1387.15 
  "/>
<polyline clip-path="url(#clip390)" style="stroke:#000000; stroke-linecap:butt; stroke-linejoin:round; stroke-width:4; stroke-opacity:1; fill:none" points="
  279.704,1081.08 298.602,1081.08 
  "/>
<polyline clip-path="url(#clip390)" style="stroke:#000000; stroke-linecap:butt; stroke-linejoin:round; stroke-width:4; stroke-opacity:1; fill:none" points="
  279.704,775.018 298.602,775.018 
  "/>
<polyline clip-path="url(#clip390)" style="stroke:#000000; stroke-linecap:butt; stroke-linejoin:round; stroke-width:4; stroke-opacity:1; fill:none" points="
  279.704,468.952 298.602,468.952 
  "/>
<polyline clip-path="url(#clip390)" style="stroke:#000000; stroke-linecap:butt; stroke-linejoin:round; stroke-width:4; stroke-opacity:1; fill:none" points="
  279.704,162.886 298.602,162.886 
  "/>
<path clip-path="url(#clip390)" d="M126.205 1372.95 Q122.593 1372.95 120.765 1376.51 Q118.959 1380.05 118.959 1387.18 Q118.959 1394.29 120.765 1397.86 Q122.593 1401.4 126.205 1401.4 Q129.839 1401.4 131.644 1397.86 Q133.473 1394.29 133.473 1387.18 Q133.473 1380.05 131.644 1376.51 Q129.839 1372.95 126.205 1372.95 M126.205 1369.24 Q132.015 1369.24 135.07 1373.85 Q138.149 1378.43 138.149 1387.18 Q138.149 1395.91 135.07 1400.52 Q132.015 1405.1 126.205 1405.1 Q120.394 1405.1 117.316 1400.52 Q114.26 1395.91 114.26 1387.18 Q114.26 1378.43 117.316 1373.85 Q120.394 1369.24 126.205 1369.24 Z" fill="#000000" fill-rule="evenodd" fill-opacity="1" /><path clip-path="url(#clip390)" d="M146.366 1398.55 L151.251 1398.55 L151.251 1404.43 L146.366 1404.43 L146.366 1398.55 Z" fill="#000000" fill-rule="evenodd" fill-opacity="1" /><path clip-path="url(#clip390)" d="M171.436 1372.95 Q167.825 1372.95 165.996 1376.51 Q164.19 1380.05 164.19 1387.18 Q164.19 1394.29 165.996 1397.86 Q167.825 1401.4 171.436 1401.4 Q175.07 1401.4 176.876 1397.86 Q178.704 1394.29 178.704 1387.18 Q178.704 1380.05 176.876 1376.51 Q175.07 1372.95 171.436 1372.95 M171.436 1369.24 Q177.246 1369.24 180.301 1373.85 Q183.38 1378.43 183.38 1387.18 Q183.38 1395.91 180.301 1400.52 Q177.246 1405.1 171.436 1405.1 Q165.626 1405.1 162.547 1400.52 Q159.491 1395.91 159.491 1387.18 Q159.491 1378.43 162.547 1373.85 Q165.626 1369.24 171.436 1369.24 Z" fill="#000000" fill-rule="evenodd" fill-opacity="1" /><path clip-path="url(#clip390)" d="M201.598 1372.95 Q197.987 1372.95 196.158 1376.51 Q194.352 1380.05 194.352 1387.18 Q194.352 1394.29 196.158 1397.86 Q197.987 1401.4 201.598 1401.4 Q205.232 1401.4 207.037 1397.86 Q208.866 1394.29 208.866 1387.18 Q208.866 1380.05 207.037 1376.51 Q205.232 1372.95 201.598 1372.95 M201.598 1369.24 Q207.408 1369.24 210.463 1373.85 Q213.542 1378.43 213.542 1387.18 Q213.542 1395.91 210.463 1400.52 Q207.408 1405.1 201.598 1405.1 Q195.787 1405.1 192.709 1400.52 Q189.653 1395.91 189.653 1387.18 Q189.653 1378.43 192.709 1373.85 Q195.787 1369.24 201.598 1369.24 Z" fill="#000000" fill-rule="evenodd" fill-opacity="1" /><path clip-path="url(#clip390)" d="M231.76 1372.95 Q228.148 1372.95 226.32 1376.51 Q224.514 1380.05 224.514 1387.18 Q224.514 1394.29 226.32 1397.86 Q228.148 1401.4 231.76 1401.4 Q235.394 1401.4 237.199 1397.86 Q239.028 1394.29 239.028 1387.18 Q239.028 1380.05 237.199 1376.51 Q235.394 1372.95 231.76 1372.95 M231.76 1369.24 Q237.57 1369.24 240.625 1373.85 Q243.704 1378.43 243.704 1387.18 Q243.704 1395.91 240.625 1400.52 Q237.57 1405.1 231.76 1405.1 Q225.949 1405.1 222.871 1400.52 Q219.815 1395.91 219.815 1387.18 Q219.815 1378.43 222.871 1373.85 Q225.949 1369.24 231.76 1369.24 Z" fill="#000000" fill-rule="evenodd" fill-opacity="1" /><path clip-path="url(#clip390)" d="M127.2 1066.88 Q123.589 1066.88 121.76 1070.45 Q119.955 1073.99 119.955 1081.12 Q119.955 1088.22 121.76 1091.79 Q123.589 1095.33 127.2 1095.33 Q130.834 1095.33 132.64 1091.79 Q134.468 1088.22 134.468 1081.12 Q134.468 1073.99 132.64 1070.45 Q130.834 1066.88 127.2 1066.88 M127.2 1063.18 Q133.01 1063.18 136.066 1067.78 Q139.144 1072.37 139.144 1081.12 Q139.144 1089.84 136.066 1094.45 Q133.01 1099.03 127.2 1099.03 Q121.39 1099.03 118.311 1094.45 Q115.256 1089.84 115.256 1081.12 Q115.256 1072.37 118.311 1067.78 Q121.39 1063.18 127.2 1063.18 Z" fill="#000000" fill-rule="evenodd" fill-opacity="1" /><path clip-path="url(#clip390)" d="M147.362 1092.48 L152.246 1092.48 L152.246 1098.36 L147.362 1098.36 L147.362 1092.48 Z" fill="#000000" fill-rule="evenodd" fill-opacity="1" /><path clip-path="url(#clip390)" d="M172.431 1066.88 Q168.82 1066.88 166.991 1070.45 Q165.186 1073.99 165.186 1081.12 Q165.186 1088.22 166.991 1091.79 Q168.82 1095.33 172.431 1095.33 Q176.065 1095.33 177.871 1091.79 Q179.7 1088.22 179.7 1081.12 Q179.7 1073.99 177.871 1070.45 Q176.065 1066.88 172.431 1066.88 M172.431 1063.18 Q178.241 1063.18 181.297 1067.78 Q184.376 1072.37 184.376 1081.12 Q184.376 1089.84 181.297 1094.45 Q178.241 1099.03 172.431 1099.03 Q166.621 1099.03 163.542 1094.45 Q160.487 1089.84 160.487 1081.12 Q160.487 1072.37 163.542 1067.78 Q166.621 1063.18 172.431 1063.18 Z" fill="#000000" fill-rule="evenodd" fill-opacity="1" /><path clip-path="url(#clip390)" d="M196.621 1094.43 L212.94 1094.43 L212.94 1098.36 L190.996 1098.36 L190.996 1094.43 Q193.658 1091.67 198.241 1087.04 Q202.848 1082.39 204.028 1081.05 Q206.274 1078.53 207.153 1076.79 Q208.056 1075.03 208.056 1073.34 Q208.056 1070.59 206.112 1068.85 Q204.19 1067.11 201.088 1067.11 Q198.889 1067.11 196.436 1067.88 Q194.005 1068.64 191.227 1070.19 L191.227 1065.47 Q194.051 1064.34 196.505 1063.76 Q198.959 1063.18 200.996 1063.18 Q206.366 1063.18 209.561 1065.86 Q212.755 1068.55 212.755 1073.04 Q212.755 1075.17 211.945 1077.09 Q211.158 1078.99 209.051 1081.58 Q208.473 1082.25 205.371 1085.47 Q202.269 1088.66 196.621 1094.43 Z" fill="#000000" fill-rule="evenodd" fill-opacity="1" /><path clip-path="url(#clip390)" d="M222.801 1063.8 L241.158 1063.8 L241.158 1067.74 L227.084 1067.74 L227.084 1076.21 Q228.102 1075.86 229.121 1075.7 Q230.139 1075.52 231.158 1075.52 Q236.945 1075.52 240.324 1078.69 Q243.704 1081.86 243.704 1087.28 Q243.704 1092.85 240.232 1095.96 Q236.76 1099.03 230.44 1099.03 Q228.264 1099.03 225.996 1098.66 Q223.75 1098.29 221.343 1097.55 L221.343 1092.85 Q223.426 1093.99 225.648 1094.54 Q227.871 1095.1 230.347 1095.1 Q234.352 1095.1 236.69 1092.99 Q239.028 1090.89 239.028 1087.28 Q239.028 1083.66 236.69 1081.56 Q234.352 1079.45 230.347 1079.45 Q228.473 1079.45 226.598 1079.87 Q224.746 1080.28 222.801 1081.16 L222.801 1063.8 Z" fill="#000000" fill-rule="evenodd" fill-opacity="1" /><path clip-path="url(#clip390)" d="M126.205 760.816 Q122.593 760.816 120.765 764.381 Q118.959 767.923 118.959 775.052 Q118.959 782.159 120.765 785.724 Q122.593 789.265 126.205 789.265 Q129.839 789.265 131.644 785.724 Q133.473 782.159 133.473 775.052 Q133.473 767.923 131.644 764.381 Q129.839 760.816 126.205 760.816 M126.205 757.113 Q132.015 757.113 135.07 761.719 Q138.149 766.302 138.149 775.052 Q138.149 783.779 135.07 788.386 Q132.015 792.969 126.205 792.969 Q120.394 792.969 117.316 788.386 Q114.26 783.779 114.26 775.052 Q114.26 766.302 117.316 761.719 Q120.394 757.113 126.205 757.113 Z" fill="#000000" fill-rule="evenodd" fill-opacity="1" /><path clip-path="url(#clip390)" d="M146.366 786.418 L151.251 786.418 L151.251 792.298 L146.366 792.298 L146.366 786.418 Z" fill="#000000" fill-rule="evenodd" fill-opacity="1" /><path clip-path="url(#clip390)" d="M171.436 760.816 Q167.825 760.816 165.996 764.381 Q164.19 767.923 164.19 775.052 Q164.19 782.159 165.996 785.724 Q167.825 789.265 171.436 789.265 Q175.07 789.265 176.876 785.724 Q178.704 782.159 178.704 775.052 Q178.704 767.923 176.876 764.381 Q175.07 760.816 171.436 760.816 M171.436 757.113 Q177.246 757.113 180.301 761.719 Q183.38 766.302 183.38 775.052 Q183.38 783.779 180.301 788.386 Q177.246 792.969 171.436 792.969 Q165.626 792.969 162.547 788.386 Q159.491 783.779 159.491 775.052 Q159.491 766.302 162.547 761.719 Q165.626 757.113 171.436 757.113 Z" fill="#000000" fill-rule="evenodd" fill-opacity="1" /><path clip-path="url(#clip390)" d="M191.644 757.738 L210 757.738 L210 761.673 L195.926 761.673 L195.926 770.145 Q196.945 769.798 197.963 769.636 Q198.982 769.45 200 769.45 Q205.787 769.45 209.167 772.622 Q212.547 775.793 212.547 781.21 Q212.547 786.788 209.074 789.89 Q205.602 792.969 199.283 792.969 Q197.107 792.969 194.838 792.598 Q192.593 792.228 190.186 791.487 L190.186 786.788 Q192.269 787.923 194.491 788.478 Q196.713 789.034 199.19 789.034 Q203.195 789.034 205.533 786.927 Q207.871 784.821 207.871 781.21 Q207.871 777.599 205.533 775.492 Q203.195 773.386 199.19 773.386 Q197.315 773.386 195.44 773.802 Q193.588 774.219 191.644 775.099 L191.644 757.738 Z" fill="#000000" fill-rule="evenodd" fill-opacity="1" /><path clip-path="url(#clip390)" d="M231.76 760.816 Q228.148 760.816 226.32 764.381 Q224.514 767.923 224.514 775.052 Q224.514 782.159 226.32 785.724 Q228.148 789.265 231.76 789.265 Q235.394 789.265 237.199 785.724 Q239.028 782.159 239.028 775.052 Q239.028 767.923 237.199 764.381 Q235.394 760.816 231.76 760.816 M231.76 757.113 Q237.57 757.113 240.625 761.719 Q243.704 766.302 243.704 775.052 Q243.704 783.779 240.625 788.386 Q237.57 792.969 231.76 792.969 Q225.949 792.969 222.871 788.386 Q219.815 783.779 219.815 775.052 Q219.815 766.302 222.871 761.719 Q225.949 757.113 231.76 757.113 Z" fill="#000000" fill-rule="evenodd" fill-opacity="1" /><path clip-path="url(#clip390)" d="M127.2 454.75 Q123.589 454.75 121.76 458.315 Q119.955 461.857 119.955 468.986 Q119.955 476.093 121.76 479.658 Q123.589 483.199 127.2 483.199 Q130.834 483.199 132.64 479.658 Q134.468 476.093 134.468 468.986 Q134.468 461.857 132.64 458.315 Q130.834 454.75 127.2 454.75 M127.2 451.047 Q133.01 451.047 136.066 455.653 Q139.144 460.236 139.144 468.986 Q139.144 477.713 136.066 482.32 Q133.01 486.903 127.2 486.903 Q121.39 486.903 118.311 482.32 Q115.256 477.713 115.256 468.986 Q115.256 460.236 118.311 455.653 Q121.39 451.047 127.2 451.047 Z" fill="#000000" fill-rule="evenodd" fill-opacity="1" /><path clip-path="url(#clip390)" d="M147.362 480.352 L152.246 480.352 L152.246 486.232 L147.362 486.232 L147.362 480.352 Z" fill="#000000" fill-rule="evenodd" fill-opacity="1" /><path clip-path="url(#clip390)" d="M172.431 454.75 Q168.82 454.75 166.991 458.315 Q165.186 461.857 165.186 468.986 Q165.186 476.093 166.991 479.658 Q168.82 483.199 172.431 483.199 Q176.065 483.199 177.871 479.658 Q179.7 476.093 179.7 468.986 Q179.7 461.857 177.871 458.315 Q176.065 454.75 172.431 454.75 M172.431 451.047 Q178.241 451.047 181.297 455.653 Q184.376 460.236 184.376 468.986 Q184.376 477.713 181.297 482.32 Q178.241 486.903 172.431 486.903 Q166.621 486.903 163.542 482.32 Q160.487 477.713 160.487 468.986 Q160.487 460.236 163.542 455.653 Q166.621 451.047 172.431 451.047 Z" fill="#000000" fill-rule="evenodd" fill-opacity="1" /><path clip-path="url(#clip390)" d="M191.413 451.672 L213.635 451.672 L213.635 453.662 L201.088 486.232 L196.204 486.232 L208.01 455.607 L191.413 455.607 L191.413 451.672 Z" fill="#000000" fill-rule="evenodd" fill-opacity="1" /><path clip-path="url(#clip390)" d="M222.801 451.672 L241.158 451.672 L241.158 455.607 L227.084 455.607 L227.084 464.079 Q228.102 463.732 229.121 463.57 Q230.139 463.385 231.158 463.385 Q236.945 463.385 240.324 466.556 Q243.704 469.727 243.704 475.144 Q243.704 480.722 240.232 483.824 Q236.76 486.903 230.44 486.903 Q228.264 486.903 225.996 486.533 Q223.75 486.162 221.343 485.422 L221.343 480.722 Q223.426 481.857 225.648 482.412 Q227.871 482.968 230.347 482.968 Q234.352 482.968 236.69 480.861 Q239.028 478.755 239.028 475.144 Q239.028 471.533 236.69 469.426 Q234.352 467.32 230.347 467.32 Q228.473 467.32 226.598 467.736 Q224.746 468.153 222.801 469.033 L222.801 451.672 Z" fill="#000000" fill-rule="evenodd" fill-opacity="1" /><path clip-path="url(#clip390)" d="M126.205 148.685 Q122.593 148.685 120.765 152.249 Q118.959 155.791 118.959 162.921 Q118.959 170.027 120.765 173.592 Q122.593 177.133 126.205 177.133 Q129.839 177.133 131.644 173.592 Q133.473 170.027 133.473 162.921 Q133.473 155.791 131.644 152.249 Q129.839 148.685 126.205 148.685 M126.205 144.981 Q132.015 144.981 135.07 149.587 Q138.149 154.171 138.149 162.921 Q138.149 171.647 135.07 176.254 Q132.015 180.837 126.205 180.837 Q120.394 180.837 117.316 176.254 Q114.26 171.647 114.26 162.921 Q114.26 154.171 117.316 149.587 Q120.394 144.981 126.205 144.981 Z" fill="#000000" fill-rule="evenodd" fill-opacity="1" /><path clip-path="url(#clip390)" d="M146.366 174.286 L151.251 174.286 L151.251 180.166 L146.366 180.166 L146.366 174.286 Z" fill="#000000" fill-rule="evenodd" fill-opacity="1" /><path clip-path="url(#clip390)" d="M162.246 176.231 L169.885 176.231 L169.885 149.865 L161.575 151.532 L161.575 147.273 L169.839 145.606 L174.514 145.606 L174.514 176.231 L182.153 176.231 L182.153 180.166 L162.246 180.166 L162.246 176.231 Z" fill="#000000" fill-rule="evenodd" fill-opacity="1" /><path clip-path="url(#clip390)" d="M201.598 148.685 Q197.987 148.685 196.158 152.249 Q194.352 155.791 194.352 162.921 Q194.352 170.027 196.158 173.592 Q197.987 177.133 201.598 177.133 Q205.232 177.133 207.037 173.592 Q208.866 170.027 208.866 162.921 Q208.866 155.791 207.037 152.249 Q205.232 148.685 201.598 148.685 M201.598 144.981 Q207.408 144.981 210.463 149.587 Q213.542 154.171 213.542 162.921 Q213.542 171.647 210.463 176.254 Q207.408 180.837 201.598 180.837 Q195.787 180.837 192.709 176.254 Q189.653 171.647 189.653 162.921 Q189.653 154.171 192.709 149.587 Q195.787 144.981 201.598 144.981 Z" fill="#000000" fill-rule="evenodd" fill-opacity="1" /><path clip-path="url(#clip390)" d="M231.76 148.685 Q228.148 148.685 226.32 152.249 Q224.514 155.791 224.514 162.921 Q224.514 170.027 226.32 173.592 Q228.148 177.133 231.76 177.133 Q235.394 177.133 237.199 173.592 Q239.028 170.027 239.028 162.921 Q239.028 155.791 237.199 152.249 Q235.394 148.685 231.76 148.685 M231.76 144.981 Q237.57 144.981 240.625 149.587 Q243.704 154.171 243.704 162.921 Q243.704 171.647 240.625 176.254 Q237.57 180.837 231.76 180.837 Q225.949 180.837 222.871 176.254 Q219.815 171.647 219.815 162.921 Q219.815 154.171 222.871 149.587 Q225.949 144.981 231.76 144.981 Z" fill="#000000" fill-rule="evenodd" fill-opacity="1" /><path clip-path="url(#clip390)" d="M27.2366 806.044 Q28.6537 806.044 29.7164 807.204 Q30.747 808.331 30.747 809.555 Q30.747 810.682 30.0707 811.391 Q29.3622 812.067 28.3638 812.067 Q27.0434 812.067 25.9484 810.94 Q24.8534 809.812 24.8534 808.492 Q24.8534 807.397 25.5297 806.721 Q26.206 806.044 27.2366 806.044 M59.0238 805.465 Q59.2814 805.465 60.312 805.755 Q61.3104 806.044 62.8563 806.753 Q64.37 807.429 65.787 808.363 Q67.2041 809.297 68.2024 810.843 Q69.2008 812.357 69.2008 814.096 Q69.2008 816.447 67.6549 817.993 Q66.1091 819.506 63.7902 819.506 Q62.5342 819.506 58.5085 817.993 Q46.7856 813.613 46.3025 813.452 Q44.4667 812.711 42.8564 812.711 Q42.1157 812.711 41.6648 812.872 Q41.1817 813.033 41.0207 813.355 Q40.8275 813.677 40.7953 813.87 Q40.7631 814.031 40.7631 814.354 Q40.7631 816.254 42.6954 818.025 Q44.6278 819.796 48.9433 821.02 Q49.7485 821.278 49.9417 821.439 Q50.135 821.6 50.135 822.083 Q50.1028 822.888 49.4586 822.888 Q49.2654 822.888 48.5247 822.663 Q47.7517 822.437 46.5923 822.018 Q45.4007 821.6 44.1769 820.859 Q42.9208 820.118 41.8258 819.217 Q40.7308 818.283 40.0223 816.962 Q39.3138 815.642 39.3138 814.16 Q39.3138 811.745 40.8919 810.263 Q42.4378 808.75 44.7244 808.75 Q45.9804 808.75 48.2026 809.619 Q51.1011 810.682 52.0351 811.069 L58.9594 813.645 Q61.4714 814.579 62.2444 814.869 Q62.9851 815.126 63.8869 815.352 Q64.7564 815.545 65.5616 815.545 Q66.6888 815.545 67.2041 815.191 Q67.7194 814.804 67.7194 813.967 Q67.7194 811.648 65.4327 809.941 Q63.1139 808.234 59.5713 807.236 Q59.4747 807.204 59.3136 807.172 Q58.5085 806.914 58.4119 806.656 Q58.3797 806.527 58.3797 806.27 Q58.3797 805.465 59.0238 805.465 Z" fill="#000000" fill-rule="evenodd" fill-opacity="1" /><path clip-path="url(#clip390)" d="M51.9707 794.824 Q40.8275 794.824 31.842 790.669 Q28.0739 788.898 24.9178 786.418 Q21.7616 783.938 20.3767 782.296 Q18.9919 780.653 18.9919 780.202 Q18.9919 779.558 19.636 779.526 Q19.9581 779.526 20.7632 780.395 Q31.5844 791.023 51.9707 790.991 Q72.4214 790.991 82.8239 780.653 Q83.9511 779.526 84.3054 779.526 Q84.9495 779.526 84.9495 780.202 Q84.9495 780.653 83.6291 782.231 Q82.3086 783.809 79.2813 786.257 Q76.2539 788.705 72.5502 790.476 Q63.5648 794.824 51.9707 794.824 Z" fill="#000000" fill-rule="evenodd" fill-opacity="1" /><path clip-path="url(#clip390)" d="M40.7631 754.255 Q41.6648 754.255 41.8903 754.673 Q42.0835 755.092 42.0835 756.252 L42.0835 762.435 L61.5358 767.33 Q63.2427 767.717 64.692 767.717 Q66.3023 767.717 67.0108 767.234 Q67.7194 766.718 67.7194 765.656 Q67.7194 763.562 65.8192 761.308 Q63.9191 759.021 59.2814 757.089 Q58.6695 756.831 58.5407 756.702 Q58.3797 756.541 58.3797 756.123 Q58.3797 755.318 59.0238 755.318 Q59.2492 755.318 60.2798 755.768 Q61.3104 756.187 62.8241 757.121 Q64.3377 758.023 65.7548 759.215 Q67.1719 760.374 68.2024 762.145 Q69.2008 763.917 69.2008 765.817 Q69.2008 768.49 67.4939 770.197 Q65.787 771.871 63.1139 771.871 Q62.2444 771.871 59.4747 771.195 Q56.6727 770.519 42.0835 766.847 L42.0835 772.677 Q42.0835 773.482 42.0513 773.804 Q42.0191 774.094 41.8581 774.319 Q41.6648 774.512 41.2783 774.512 Q40.6664 774.512 40.4088 774.255 Q40.1189 773.997 40.0867 773.675 Q40.0223 773.321 40.0223 772.516 L40.0223 766.332 L29.5554 763.756 Q28.5248 763.498 27.9451 762.854 Q27.3332 762.177 27.2688 761.791 Q27.1722 761.405 27.1722 761.115 Q27.1722 760.245 27.6553 759.73 Q28.1062 759.215 28.9435 759.215 Q29.3944 759.215 40.0223 761.92 L40.0223 756.123 Q40.0223 755.382 40.0545 755.092 Q40.0867 754.77 40.2478 754.512 Q40.4088 754.255 40.7631 754.255 Z" fill="#000000" fill-rule="evenodd" fill-opacity="1" /><path clip-path="url(#clip390)" d="M84.3054 749.091 Q83.9833 749.091 83.1782 748.254 Q72.357 737.626 51.9707 737.626 Q31.52 737.626 21.1819 747.835 Q19.9903 749.091 19.636 749.091 Q18.9919 749.091 18.9919 748.447 Q18.9919 747.996 20.3123 746.418 Q21.6328 744.808 24.6601 742.393 Q27.6875 739.945 31.3911 738.141 Q40.3766 733.794 51.9707 733.794 Q63.1139 733.794 72.0994 737.948 Q75.8674 739.719 79.0236 742.199 Q82.1798 744.679 83.5646 746.322 Q84.9495 747.964 84.9495 748.447 Q84.9495 749.091 84.3054 749.091 Z" fill="#000000" fill-rule="evenodd" fill-opacity="1" /><path clip-path="url(#clip390)" d="M666.222 17.6457 Q657.31 17.6457 652.044 24.2892 Q646.818 30.9327 646.818 42.3968 Q646.818 53.8203 652.044 60.4638 Q657.31 67.1073 666.222 67.1073 Q675.134 67.1073 680.319 60.4638 Q685.545 53.8203 685.545 42.3968 Q685.545 30.9327 680.319 24.2892 Q675.134 17.6457 666.222 17.6457 M677.686 71.4823 L688.461 83.2704 L678.577 83.2704 L669.625 73.5887 Q668.288 73.6697 667.559 73.7103 Q666.87 73.7508 666.222 73.7508 Q653.461 73.7508 645.805 65.2439 Q638.19 56.6965 638.19 42.3968 Q638.19 28.0566 645.805 19.5497 Q653.461 11.0023 666.222 11.0023 Q678.942 11.0023 686.557 19.5497 Q694.173 28.0566 694.173 42.3968 Q694.173 52.9291 689.92 60.4233 Q685.707 67.9175 677.686 71.4823 Z" fill="#000000" fill-rule="evenodd" fill-opacity="1" /><path clip-path="url(#clip390)" d="M705.88 54.671 L705.88 27.2059 L713.334 27.2059 L713.334 54.3874 Q713.334 60.8284 715.845 64.0691 Q718.357 67.2693 723.38 67.2693 Q729.416 67.2693 732.9 63.421 Q736.424 59.5726 736.424 52.9291 L736.424 27.2059 L743.878 27.2059 L743.878 72.576 L736.424 72.576 L736.424 65.6084 Q733.71 69.7404 730.105 71.7658 Q726.54 73.7508 721.8 73.7508 Q713.982 73.7508 709.931 68.8897 Q705.88 64.0286 705.88 54.671 M724.636 26.1121 L724.636 26.1121 Z" fill="#000000" fill-rule="evenodd" fill-opacity="1" /><path clip-path="url(#clip390)" d="M779.85 49.7694 Q770.816 49.7694 767.332 51.8354 Q763.849 53.9013 763.849 58.8839 Q763.849 62.8538 766.441 65.2034 Q769.074 67.5124 773.571 67.5124 Q779.769 67.5124 783.495 63.1374 Q787.263 58.7219 787.263 51.4303 L787.263 49.7694 L779.85 49.7694 M794.716 46.6907 L794.716 72.576 L787.263 72.576 L787.263 65.6895 Q784.711 69.8214 780.903 71.8063 Q777.095 73.7508 771.586 73.7508 Q764.618 73.7508 760.486 69.8619 Q756.395 65.9325 756.395 59.3701 Q756.395 51.7138 761.499 47.825 Q766.644 43.9361 776.812 43.9361 L787.263 43.9361 L787.263 43.2069 Q787.263 38.0623 783.86 35.2672 Q780.498 32.4315 774.381 32.4315 Q770.492 32.4315 766.806 33.3632 Q763.119 34.295 759.717 36.1584 L759.717 29.2718 Q763.808 27.692 767.656 26.9223 Q771.505 26.1121 775.151 26.1121 Q784.994 26.1121 789.855 31.2163 Q794.716 36.3204 794.716 46.6907 Z" fill="#000000" fill-rule="evenodd" fill-opacity="1" /><path clip-path="url(#clip390)" d="M847.783 45.1919 L847.783 72.576 L840.33 72.576 L840.33 45.4349 Q840.33 38.994 837.818 35.7938 Q835.307 32.5936 830.283 32.5936 Q824.248 32.5936 820.764 36.4419 Q817.28 40.2903 817.28 46.9338 L817.28 72.576 L809.786 72.576 L809.786 27.2059 L817.28 27.2059 L817.28 34.2544 Q819.954 30.163 823.559 28.1376 Q827.205 26.1121 831.944 26.1121 Q839.763 26.1121 843.773 30.9732 Q847.783 35.7938 847.783 45.1919 Z" fill="#000000" fill-rule="evenodd" fill-opacity="1" /><path clip-path="url(#clip390)" d="M870.023 14.324 L870.023 27.2059 L885.376 27.2059 L885.376 32.9987 L870.023 32.9987 L870.023 57.6282 Q870.023 63.1779 871.522 64.7578 Q873.061 66.3376 877.72 66.3376 L885.376 66.3376 L885.376 72.576 L877.72 72.576 Q869.091 72.576 865.81 69.3758 Q862.529 66.1351 862.529 57.6282 L862.529 32.9987 L857.06 32.9987 L857.06 27.2059 L862.529 27.2059 L862.529 14.324 L870.023 14.324 Z" fill="#000000" fill-rule="evenodd" fill-opacity="1" /><path clip-path="url(#clip390)" d="M895.179 27.2059 L902.633 27.2059 L902.633 72.576 L895.179 72.576 L895.179 27.2059 M895.179 9.54393 L902.633 9.54393 L902.633 18.9825 L895.179 18.9825 L895.179 9.54393 Z" fill="#000000" fill-rule="evenodd" fill-opacity="1" /><path clip-path="url(#clip390)" d="M918.229 9.54393 L925.682 9.54393 L925.682 72.576 L918.229 72.576 L918.229 9.54393 Z" fill="#000000" fill-rule="evenodd" fill-opacity="1" /><path clip-path="url(#clip390)" d="M980.086 48.0275 L980.086 51.6733 L945.815 51.6733 Q946.301 59.3701 950.433 63.421 Q954.606 67.4314 962.019 67.4314 Q966.313 67.4314 970.323 66.3781 Q974.374 65.3249 978.344 63.2184 L978.344 70.267 Q974.334 71.9684 970.121 72.8596 Q965.908 73.7508 961.573 73.7508 Q950.717 73.7508 944.357 67.4314 Q938.037 61.1119 938.037 50.3365 Q938.037 39.1965 944.033 32.6746 Q950.069 26.1121 960.277 26.1121 Q969.432 26.1121 974.739 32.0264 Q980.086 37.9003 980.086 48.0275 M972.632 45.84 Q972.551 39.7232 969.189 36.0774 Q965.867 32.4315 960.358 32.4315 Q954.12 32.4315 950.352 35.9558 Q946.625 39.4801 946.058 45.8805 L972.632 45.84 Z" fill="#000000" fill-rule="evenodd" fill-opacity="1" /><path clip-path="url(#clip390)" d="M1021.24 28.5427 L1021.24 35.5912 Q1018.08 33.9709 1014.68 33.1607 Q1011.28 32.3505 1007.63 32.3505 Q1002.08 32.3505 999.287 34.0519 Q996.533 35.7533 996.533 39.156 Q996.533 41.7486 998.517 43.2475 Q1000.5 44.7058 1006.5 46.0426 L1009.05 46.6097 Q1016.99 48.3111 1020.31 51.4303 Q1023.67 54.509 1023.67 60.0587 Q1023.67 66.3781 1018.65 70.0644 Q1013.67 73.7508 1004.92 73.7508 Q1001.27 73.7508 997.302 73.0216 Q993.373 72.3329 988.998 70.9151 L988.998 63.2184 Q993.13 65.3654 997.14 66.4591 Q1001.15 67.5124 1005.08 67.5124 Q1010.35 67.5124 1013.18 65.73 Q1016.02 63.9071 1016.02 60.6258 Q1016.02 57.5877 1013.95 55.9673 Q1011.93 54.3469 1005 52.8481 L1002.41 52.2405 Q995.479 50.7821 992.401 47.7845 Q989.322 44.7463 989.322 39.4801 Q989.322 33.0797 993.859 29.5959 Q998.396 26.1121 1006.74 26.1121 Q1010.87 26.1121 1014.52 26.7198 Q1018.16 27.3274 1021.24 28.5427 Z" fill="#000000" fill-rule="evenodd" fill-opacity="1" /><path clip-path="url(#clip390)" d="M1079.5 32.4315 Q1073.5 32.4315 1070.02 37.1306 Q1066.53 41.7891 1066.53 49.9314 Q1066.53 58.0738 1069.98 62.7728 Q1073.46 67.4314 1079.5 67.4314 Q1085.45 67.4314 1088.93 62.7323 Q1092.42 58.0333 1092.42 49.9314 Q1092.42 41.8701 1088.93 37.1711 Q1085.45 32.4315 1079.5 32.4315 M1079.5 26.1121 Q1089.22 26.1121 1094.77 32.4315 Q1100.32 38.7509 1100.32 49.9314 Q1100.32 61.0714 1094.77 67.4314 Q1089.22 73.7508 1079.5 73.7508 Q1069.73 73.7508 1064.18 67.4314 Q1058.67 61.0714 1058.67 49.9314 Q1058.67 38.7509 1064.18 32.4315 Q1069.73 26.1121 1079.5 26.1121 Z" fill="#000000" fill-rule="evenodd" fill-opacity="1" /><path clip-path="url(#clip390)" d="M1135.64 9.54393 L1135.64 15.7418 L1128.51 15.7418 Q1124.5 15.7418 1122.92 17.3622 Q1121.38 18.9825 1121.38 23.1955 L1121.38 27.2059 L1133.66 27.2059 L1133.66 32.9987 L1121.38 32.9987 L1121.38 72.576 L1113.89 72.576 L1113.89 32.9987 L1106.76 32.9987 L1106.76 27.2059 L1113.89 27.2059 L1113.89 24.0462 Q1113.89 16.471 1117.41 13.0277 Q1120.94 9.54393 1128.59 9.54393 L1135.64 9.54393 Z" fill="#000000" fill-rule="evenodd" fill-opacity="1" /><path clip-path="url(#clip390)" d="M1168.57 12.096 L1176.76 12.096 L1176.76 72.576 L1168.57 72.576 L1168.57 12.096 Z" fill="#000000" fill-rule="evenodd" fill-opacity="1" /><path clip-path="url(#clip390)" d="M1230.43 45.1919 L1230.43 72.576 L1222.98 72.576 L1222.98 45.4349 Q1222.98 38.994 1220.47 35.7938 Q1217.95 32.5936 1212.93 32.5936 Q1206.9 32.5936 1203.41 36.4419 Q1199.93 40.2903 1199.93 46.9338 L1199.93 72.576 L1192.43 72.576 L1192.43 27.2059 L1199.93 27.2059 L1199.93 34.2544 Q1202.6 30.163 1206.21 28.1376 Q1209.85 26.1121 1214.59 26.1121 Q1222.41 26.1121 1226.42 30.9732 Q1230.43 35.7938 1230.43 45.1919 Z" fill="#000000" fill-rule="evenodd" fill-opacity="1" /><path clip-path="url(#clip390)" d="M1268.27 9.54393 L1268.27 15.7418 L1261.14 15.7418 Q1257.13 15.7418 1255.55 17.3622 Q1254.01 18.9825 1254.01 23.1955 L1254.01 27.2059 L1266.28 27.2059 L1266.28 32.9987 L1254.01 32.9987 L1254.01 72.576 L1246.51 72.576 L1246.51 32.9987 L1239.38 32.9987 L1239.38 27.2059 L1246.51 27.2059 L1246.51 24.0462 Q1246.51 16.471 1250.04 13.0277 Q1253.56 9.54393 1261.22 9.54393 L1268.27 9.54393 Z" fill="#000000" fill-rule="evenodd" fill-opacity="1" /><path clip-path="url(#clip390)" d="M1313.31 48.0275 L1313.31 51.6733 L1279.04 51.6733 Q1279.53 59.3701 1283.66 63.421 Q1287.83 67.4314 1295.25 67.4314 Q1299.54 67.4314 1303.55 66.3781 Q1307.6 65.3249 1311.57 63.2184 L1311.57 70.267 Q1307.56 71.9684 1303.35 72.8596 Q1299.14 73.7508 1294.8 73.7508 Q1283.94 73.7508 1277.58 67.4314 Q1271.26 61.1119 1271.26 50.3365 Q1271.26 39.1965 1277.26 32.6746 Q1283.3 26.1121 1293.5 26.1121 Q1302.66 26.1121 1307.97 32.0264 Q1313.31 37.9003 1313.31 48.0275 M1305.86 45.84 Q1305.78 39.7232 1302.42 36.0774 Q1299.09 32.4315 1293.59 32.4315 Q1287.35 32.4315 1283.58 35.9558 Q1279.85 39.4801 1279.29 45.8805 L1305.86 45.84 Z" fill="#000000" fill-rule="evenodd" fill-opacity="1" /><path clip-path="url(#clip390)" d="M1358.2 28.9478 L1358.2 35.9153 Q1355.04 34.1734 1351.84 33.3227 Q1348.68 32.4315 1345.44 32.4315 Q1338.19 32.4315 1334.18 37.0496 Q1330.17 41.6271 1330.17 49.9314 Q1330.17 58.2358 1334.18 62.8538 Q1338.19 67.4314 1345.44 67.4314 Q1348.68 67.4314 1351.84 66.5807 Q1355.04 65.6895 1358.2 63.9476 L1358.2 70.8341 Q1355.08 72.2924 1351.72 73.0216 Q1348.39 73.7508 1344.63 73.7508 Q1334.38 73.7508 1328.34 67.3098 Q1322.31 60.8689 1322.31 49.9314 Q1322.31 38.832 1328.38 32.472 Q1334.5 26.1121 1345.11 26.1121 Q1348.56 26.1121 1351.84 26.8413 Q1355.12 27.5299 1358.2 28.9478 Z" fill="#000000" fill-rule="evenodd" fill-opacity="1" /><path clip-path="url(#clip390)" d="M1378.53 14.324 L1378.53 27.2059 L1393.89 27.2059 L1393.89 32.9987 L1378.53 32.9987 L1378.53 57.6282 Q1378.53 63.1779 1380.03 64.7578 Q1381.57 66.3376 1386.23 66.3376 L1393.89 66.3376 L1393.89 72.576 L1386.23 72.576 Q1377.6 72.576 1374.32 69.3758 Q1371.04 66.1351 1371.04 57.6282 L1371.04 32.9987 L1365.57 32.9987 L1365.57 27.2059 L1371.04 27.2059 L1371.04 14.324 L1378.53 14.324 Z" fill="#000000" fill-rule="evenodd" fill-opacity="1" /><path clip-path="url(#clip390)" d="M1403.69 27.2059 L1411.14 27.2059 L1411.14 72.576 L1403.69 72.576 L1403.69 27.2059 M1403.69 9.54393 L1411.14 9.54393 L1411.14 18.9825 L1403.69 18.9825 L1403.69 9.54393 Z" fill="#000000" fill-rule="evenodd" fill-opacity="1" /><path clip-path="url(#clip390)" d="M1444.32 32.4315 Q1438.32 32.4315 1434.84 37.1306 Q1431.36 41.7891 1431.36 49.9314 Q1431.36 58.0738 1434.8 62.7728 Q1438.28 67.4314 1444.32 67.4314 Q1450.27 67.4314 1453.76 62.7323 Q1457.24 58.0333 1457.24 49.9314 Q1457.24 41.8701 1453.76 37.1711 Q1450.27 32.4315 1444.32 32.4315 M1444.32 26.1121 Q1454.04 26.1121 1459.59 32.4315 Q1465.14 38.7509 1465.14 49.9314 Q1465.14 61.0714 1459.59 67.4314 Q1454.04 73.7508 1444.32 73.7508 Q1434.56 73.7508 1429.01 67.4314 Q1423.5 61.0714 1423.5 49.9314 Q1423.5 38.7509 1429.01 32.4315 Q1434.56 26.1121 1444.32 26.1121 Z" fill="#000000" fill-rule="evenodd" fill-opacity="1" /><path clip-path="url(#clip390)" d="M1515.21 45.1919 L1515.21 72.576 L1507.76 72.576 L1507.76 45.4349 Q1507.76 38.994 1505.25 35.7938 Q1502.73 32.5936 1497.71 32.5936 Q1491.67 32.5936 1488.19 36.4419 Q1484.71 40.2903 1484.71 46.9338 L1484.71 72.576 L1477.21 72.576 L1477.21 27.2059 L1484.71 27.2059 L1484.71 34.2544 Q1487.38 30.163 1490.99 28.1376 Q1494.63 26.1121 1499.37 26.1121 Q1507.19 26.1121 1511.2 30.9732 Q1515.21 35.7938 1515.21 45.1919 Z" fill="#000000" fill-rule="evenodd" fill-opacity="1" /><path clip-path="url(#clip390)" d="M1559 28.5427 L1559 35.5912 Q1555.84 33.9709 1552.44 33.1607 Q1549.04 32.3505 1545.39 32.3505 Q1539.84 32.3505 1537.04 34.0519 Q1534.29 35.7533 1534.29 39.156 Q1534.29 41.7486 1536.28 43.2475 Q1538.26 44.7058 1544.26 46.0426 L1546.81 46.6097 Q1554.75 48.3111 1558.07 51.4303 Q1561.43 54.509 1561.43 60.0587 Q1561.43 66.3781 1556.41 70.0644 Q1551.43 73.7508 1542.68 73.7508 Q1539.03 73.7508 1535.06 73.0216 Q1531.13 72.3329 1526.76 70.9151 L1526.76 63.2184 Q1530.89 65.3654 1534.9 66.4591 Q1538.91 67.5124 1542.84 67.5124 Q1548.1 67.5124 1550.94 65.73 Q1553.77 63.9071 1553.77 60.6258 Q1553.77 57.5877 1551.71 55.9673 Q1549.68 54.3469 1542.76 52.8481 L1540.16 52.2405 Q1533.24 50.7821 1530.16 47.7845 Q1527.08 44.7463 1527.08 39.4801 Q1527.08 33.0797 1531.62 29.5959 Q1536.15 26.1121 1544.5 26.1121 Q1548.63 26.1121 1552.28 26.7198 Q1555.92 27.3274 1559 28.5427 Z" fill="#000000" fill-rule="evenodd" fill-opacity="1" /><path clip-path="url(#clip390)" d="M1600 12.096 L1638.24 12.096 L1638.24 18.9825 L1608.18 18.9825 L1608.18 36.8875 L1636.98 36.8875 L1636.98 43.7741 L1608.18 43.7741 L1608.18 65.6895 L1638.97 65.6895 L1638.97 72.576 L1600 72.576 L1600 12.096 Z" fill="#000000" fill-rule="evenodd" fill-opacity="1" /><path clip-path="url(#clip390)" d="M1689.8 45.1919 L1689.8 72.576 L1682.35 72.576 L1682.35 45.4349 Q1682.35 38.994 1679.84 35.7938 Q1677.33 32.5936 1672.3 32.5936 Q1666.27 32.5936 1662.78 36.4419 Q1659.3 40.2903 1659.3 46.9338 L1659.3 72.576 L1651.81 72.576 L1651.81 27.2059 L1659.3 27.2059 L1659.3 34.2544 Q1661.97 30.163 1665.58 28.1376 Q1669.23 26.1121 1673.97 26.1121 Q1681.78 26.1121 1685.79 30.9732 Q1689.8 35.7938 1689.8 45.1919 Z" fill="#000000" fill-rule="evenodd" fill-opacity="1" /><path clip-path="url(#clip390)" d="M1733.59 28.5427 L1733.59 35.5912 Q1730.43 33.9709 1727.03 33.1607 Q1723.63 32.3505 1719.98 32.3505 Q1714.43 32.3505 1711.64 34.0519 Q1708.88 35.7533 1708.88 39.156 Q1708.88 41.7486 1710.87 43.2475 Q1712.85 44.7058 1718.85 46.0426 L1721.4 46.6097 Q1729.34 48.3111 1732.66 51.4303 Q1736.03 54.509 1736.03 60.0587 Q1736.03 66.3781 1731 70.0644 Q1726.02 73.7508 1717.27 73.7508 Q1713.62 73.7508 1709.65 73.0216 Q1705.72 72.3329 1701.35 70.9151 L1701.35 63.2184 Q1705.48 65.3654 1709.49 66.4591 Q1713.5 67.5124 1717.43 67.5124 Q1722.7 67.5124 1725.53 65.73 Q1728.37 63.9071 1728.37 60.6258 Q1728.37 57.5877 1726.3 55.9673 Q1724.28 54.3469 1717.35 52.8481 L1714.76 52.2405 Q1707.83 50.7821 1704.75 47.7845 Q1701.67 44.7463 1701.67 39.4801 Q1701.67 33.0797 1706.21 29.5959 Q1710.75 26.1121 1719.09 26.1121 Q1723.22 26.1121 1726.87 26.7198 Q1730.52 27.3274 1733.59 28.5427 Z" fill="#000000" fill-rule="evenodd" fill-opacity="1" /><path clip-path="url(#clip390)" d="M1786.7 48.0275 L1786.7 51.6733 L1752.43 51.6733 Q1752.92 59.3701 1757.05 63.421 Q1761.22 67.4314 1768.63 67.4314 Q1772.93 67.4314 1776.94 66.3781 Q1780.99 65.3249 1784.96 63.2184 L1784.96 70.267 Q1780.95 71.9684 1776.74 72.8596 Q1772.52 73.7508 1768.19 73.7508 Q1757.33 73.7508 1750.97 67.4314 Q1744.65 61.1119 1744.65 50.3365 Q1744.65 39.1965 1750.65 32.6746 Q1756.68 26.1121 1766.89 26.1121 Q1776.05 26.1121 1781.35 32.0264 Q1786.7 37.9003 1786.7 48.0275 M1779.25 45.84 Q1779.17 39.7232 1775.8 36.0774 Q1772.48 32.4315 1766.97 32.4315 Q1760.74 32.4315 1756.97 35.9558 Q1753.24 39.4801 1752.67 45.8805 L1779.25 45.84 Z" fill="#000000" fill-rule="evenodd" fill-opacity="1" /><path clip-path="url(#clip390)" d="M1834.26 35.9153 Q1837.05 30.8922 1840.94 28.5022 Q1844.83 26.1121 1850.1 26.1121 Q1857.19 26.1121 1861.04 31.0947 Q1864.88 36.0368 1864.88 45.1919 L1864.88 72.576 L1857.39 72.576 L1857.39 45.4349 Q1857.39 38.913 1855.08 35.7533 Q1852.77 32.5936 1848.03 32.5936 Q1842.24 32.5936 1838.88 36.4419 Q1835.52 40.2903 1835.52 46.9338 L1835.52 72.576 L1828.02 72.576 L1828.02 45.4349 Q1828.02 38.8725 1825.71 35.7533 Q1823.4 32.5936 1818.58 32.5936 Q1812.87 32.5936 1809.51 36.4824 Q1806.15 40.3308 1806.15 46.9338 L1806.15 72.576 L1798.65 72.576 L1798.65 27.2059 L1806.15 27.2059 L1806.15 34.2544 Q1808.7 30.082 1812.26 28.0971 Q1815.83 26.1121 1820.73 26.1121 Q1825.67 26.1121 1829.11 28.6237 Q1832.6 31.1352 1834.26 35.9153 Z" fill="#000000" fill-rule="evenodd" fill-opacity="1" /><path clip-path="url(#clip390)" d="M1912.32 49.9314 Q1912.32 41.7081 1908.92 37.0496 Q1905.56 32.3505 1899.64 32.3505 Q1893.73 32.3505 1890.32 37.0496 Q1886.96 41.7081 1886.96 49.9314 Q1886.96 58.1548 1890.32 62.8538 Q1893.73 67.5124 1899.64 67.5124 Q1905.56 67.5124 1908.92 62.8538 Q1912.32 58.1548 1912.32 49.9314 M1886.96 34.0924 Q1889.31 30.0415 1892.88 28.0971 Q1896.48 26.1121 1901.46 26.1121 Q1909.73 26.1121 1914.87 32.6746 Q1920.06 39.2371 1920.06 49.9314 Q1920.06 60.6258 1914.87 67.1883 Q1909.73 73.7508 1901.46 73.7508 Q1896.48 73.7508 1892.88 71.8063 Q1889.31 69.8214 1886.96 65.7705 L1886.96 72.576 L1879.47 72.576 L1879.47 9.54393 L1886.96 9.54393 L1886.96 34.0924 Z" fill="#000000" fill-rule="evenodd" fill-opacity="1" /><path clip-path="url(#clip390)" d="M1932.41 9.54393 L1939.87 9.54393 L1939.87 72.576 L1932.41 72.576 L1932.41 9.54393 Z" fill="#000000" fill-rule="evenodd" fill-opacity="1" /><path clip-path="url(#clip390)" d="M1994.27 48.0275 L1994.27 51.6733 L1960 51.6733 Q1960.49 59.3701 1964.62 63.421 Q1968.79 67.4314 1976.2 67.4314 Q1980.5 67.4314 1984.51 66.3781 Q1988.56 65.3249 1992.53 63.2184 L1992.53 70.267 Q1988.52 71.9684 1984.31 72.8596 Q1980.09 73.7508 1975.76 73.7508 Q1964.9 73.7508 1958.54 67.4314 Q1952.22 61.1119 1952.22 50.3365 Q1952.22 39.1965 1958.22 32.6746 Q1964.25 26.1121 1974.46 26.1121 Q1983.62 26.1121 1988.92 32.0264 Q1994.27 37.9003 1994.27 48.0275 M1986.82 45.84 Q1986.74 39.7232 1983.37 36.0774 Q1980.05 32.4315 1974.54 32.4315 Q1968.3 32.4315 1964.54 35.9558 Q1960.81 39.4801 1960.24 45.8805 L1986.82 45.84 Z" fill="#000000" fill-rule="evenodd" fill-opacity="1" /><path clip-path="url(#clip393)" d="
M338.375 1386.22 L338.428 1386.22 L338.44 1386.22 L338.455 1386.22 L338.471 1386.22 L338.489 1386.22 L338.509 1386.22 L338.532 1386.22 L338.557 1386.22 L338.586 1386.22 
  L338.618 1386.22 L338.655 1386.22 L338.696 1386.22 L338.742 1386.22 L338.794 1386.22 L338.852 1386.23 L338.918 1386.23 L338.992 1386.23 L339.075 1386.23 L339.169 1386.23 
  L339.274 1386.23 L339.392 1386.23 L339.525 1386.23 L339.675 1386.23 L339.844 1386.23 L340.034 1386.23 L340.243 1386.24 L340.47 1386.24 L340.714 1386.24 L340.976 1386.24 
  L341.252 1386.24 L341.544 1386.24 L341.848 1386.25 L342.164 1386.25 L342.492 1386.25 L342.833 1386.25 L343.184 1386.25 L343.544 1386.26 L343.914 1386.26 L344.295 1386.26 
  L344.684 1386.26 L345.079 1386.27 L345.485 1386.27 L345.9 1386.27 L346.32 1386.27 L346.745 1386.28 L347.176 1386.28 L347.61 1386.28 L348.047 1386.28 L348.488 1386.29 
  L348.933 1386.29 L349.379 1386.29 L349.827 1386.29 L350.276 1386.3 L350.725 1386.3 L351.177 1386.3 L351.631 1386.3 L352.089 1386.3 L352.549 1386.31 L353.009 1386.31 
  L353.476 1386.31 L353.949 1386.31 L354.428 1386.32 L354.912 1386.32 L355.401 1386.32 L355.896 1386.32 L356.395 1386.32 L356.898 1386.33 L357.407 1386.33 L357.919 1386.33 
  L358.438 1386.33 L358.967 1386.33 L359.505 1386.34 L360.051 1386.34 L360.602 1386.34 L361.156 1386.34 L361.715 1386.34 L362.279 1386.34 L362.849 1386.35 L363.43 1386.35 
  L364.013 1386.35 L364.598 1386.35 L365.185 1386.35 L365.779 1386.35 L366.379 1386.36 L366.985 1386.36 L367.596 1386.36 L368.213 1386.36 L368.823 1386.36 L369.439 1386.37 
  L370.067 1386.37 L370.704 1386.37 L371.349 1386.37 L371.999 1386.37 L372.666 1386.37 L373.35 1386.37 L374.046 1386.38 L374.754 1386.38 L375.473 1386.38 L376.201 1386.38 
  L376.947 1386.38 L377.71 1386.38 L378.484 1386.38 L379.275 1386.38 L380.074 1386.38 L380.89 1386.39 L381.722 1386.39 L382.571 1386.39 L383.442 1386.39 L384.348 1386.39 
  L385.261 1386.39 L386.201 1386.39 L387.164 1386.39 L388.126 1386.39 L389.091 1386.39 L390.055 1386.39 L391.028 1386.39 L392.012 1386.39 L393.007 1386.39 L394.01 1386.4 
  L395.03 1386.4 L396.043 1386.4 L397.032 1386.39 L398.01 1386.39 L398.985 1386.39 L399.966 1386.39 L400.963 1386.39 L401.985 1386.39 L403.039 1386.39 L404.127 1386.39 
  L405.217 1386.39 L406.331 1386.39 L407.463 1386.39 L408.622 1386.39 L409.782 1386.38 L410.959 1386.38 L412.147 1386.38 L413.336 1386.37 L414.564 1386.37 L415.783 1386.37 
  L417.032 1386.36 L418.267 1386.36 L419.512 1386.36 L420.749 1386.36 L421.938 1386.35 L423.129 1386.35 L424.32 1386.35 L425.508 1386.35 L426.717 1386.35 L427.955 1386.34 
  L429.229 1386.34 L430.522 1386.34 L431.874 1386.33 L433.261 1386.33 L434.652 1386.33 L436.033 1386.33 L437.486 1386.32 L439.006 1386.32 L440.562 1386.31 L442.143 1386.31 
  L443.701 1386.3 L445.268 1386.29 L446.818 1386.29 L448.342 1386.28 L449.828 1386.27 L451.334 1386.27 L452.876 1386.26 L454.54 1386.25 L456.313 1386.24 L458.201 1386.23 
  L460.142 1386.22 L462.108 1386.21 L464.22 1386.2 L466.382 1386.2 L468.509 1386.18 L470.558 1386.17 L472.644 1386.16 L474.735 1386.14 L476.862 1386.12 L478.982 1386.11 
  L481.014 1386.09 L483.072 1386.08 L485.058 1386.06 L487.106 1386.05 L489.134 1386.04 L490.982 1386.02 L492.723 1386.01 L494.384 1386 L495.978 1386 L497.589 1385.99 
  L499.175 1385.99 L500.727 1385.98 L502.299 1385.97 L503.889 1385.96 L505.468 1385.95 L507.062 1385.94 L508.684 1385.93 L510.328 1385.92 L511.996 1385.91 L513.794 1385.89 
  L515.69 1385.88 L517.594 1385.86 L519.61 1385.84 L521.745 1385.82 L524.029 1385.79 L526.455 1385.77 L528.881 1385.74 L531.258 1385.72 L533.695 1385.7 L536.277 1385.68 
  L538.972 1385.66 L541.769 1385.64 L544.599 1385.62 L547.469 1385.59 L550.622 1385.57 L553.917 1385.52 L557.625 1385.48 L561.796 1385.43 L565.532 1385.4 L569.68 1385.37 
  L573.72 1385.33 L577.86 1385.28 L581.987 1385.23 L586.242 1385.2 L590.112 1385.16 L594.083 1385.1 L598.396 1385.03 L602.386 1384.96 L606.14 1384.89 L610.022 1384.83 
  L613.978 1384.77 L617.781 1384.71 L621.267 1384.66 L624.964 1384.6 L628.494 1384.55 L631.476 1384.52 L634.301 1384.48 L636.97 1384.41 L639.648 1384.33 L642.228 1384.25 
  L644.802 1384.17 L647.217 1384.09 L649.539 1384.03 L651.778 1383.98 L654.102 1383.92 L656.484 1383.87 L658.867 1383.82 L661.15 1383.77 L663.462 1383.72 L665.759 1383.66 
  L668.077 1383.6 L670.347 1383.54 L672.652 1383.48 L674.806 1383.43 L676.978 1383.37 L679.323 1383.3 L681.812 1383.22 L684.359 1383.14 L686.876 1383.05 L689.469 1382.96 
  L692.234 1382.85 L695.344 1382.72 L698.844 1382.57 L702.459 1382.4 L706.228 1382.25 L709.989 1382.09 L713.76 1381.95 L718.003 1381.78 L722.776 1381.59 L728.146 1381.35 
  L732.728 1381.12 L737.883 1380.84 L742.766 1380.57 L747.11 1380.32 L751.84 1380.07 L756.699 1379.8 L762.013 1379.49 L767.499 1379.13 L773.671 1378.68 L780.615 1378.07 
  L783.623 1377.84 L786.962 1377.59 L790.422 1377.27 L793.934 1376.93 L797.566 1376.56 L801.245 1376.15 L804.912 1375.75 L809.038 1375.42 L813.679 1375.08 L818.9 1374.69 
  L823.911 1374.26 L829.032 1373.68 L833.58 1373.15 L838.696 1372.54 L844.452 1371.82 L850.928 1370.94 L858.213 1369.85 L863.81 1368.94 L870.106 1367.86 L876.488 1366.7 
  L883.667 1365.3 L891.744 1363.64 L900.831 1361.86 L911.053 1358.76 L916.418 1357.26 L922.454 1355.64 L929.244 1353.57 L935.901 1351.45 L942.01 1349.32 L948.883 1346.85 
  L956.04 1344.36 L962.37 1342.36 L969.491 1340.32 L975.485 1337.4 L981.316 1334.84 L986.755 1332.33 L992.681 1329.23 L998.438 1326 L1004.58 1322.53 L1010.66 1319.13 
  L1016.47 1315.61 L1022.96 1311.39 L1029.07 1307.72 L1034.39 1303.49 L1039.32 1298.96 L1044.37 1296.67 L1049.26 1294.62 L1053.86 1292.14 L1058.15 1288.97 L1062.24 1284.43 
  L1066.17 1278.95 L1069.95 1275.4 L1073.66 1272.11 L1077.23 1268.8 L1080.71 1265.54 L1084.33 1262.14 L1088.4 1258.37 L1092.99 1254.13 L1098.15 1249.14 L1103.81 1243.33 
  L1109.04 1236.63 L1114.78 1229.41 L1119.53 1224.34 L1124.14 1220.15 L1128.51 1215.01 L1133.13 1209.41 L1137.86 1203.75 L1142.07 1198.91 L1145.85 1194.33 L1149.46 1189.7 
  L1152.99 1184.8 L1156.27 1180.05 L1159.58 1175.15 L1162.81 1170.51 L1166.06 1165.86 L1169.35 1161.11 L1172.89 1155.97 L1176.35 1150.09 L1180.02 1143.87 L1183.76 1137.68 
  L1187.71 1130.9 L1191.67 1123.84 L1195.69 1116.15 L1199.71 1108.4 L1203.73 1100.64 L1207.72 1091.96 L1211.67 1082.75 L1215.6 1072.91 L1219.4 1063.07 L1223.01 1052.55 
  L1226.61 1041.72 L1230.16 1030.65 L1233.69 1019.84 L1237.12 1009.34 L1240.55 998.841 L1243.94 988.222 L1247.34 977.682 L1250.69 967.565 L1254.02 958.129 L1257.24 949.02 
  L1260.26 940.117 L1263.34 930.795 L1266.39 922.631 L1269.37 915.368 L1272.4 907.746 L1275.37 900.305 L1278.28 892.002 L1281.15 883.799 L1283.94 875.949 L1286.62 869.923 
  L1289.24 864.331 L1291.76 859.301 L1294.2 854.724 L1296.52 850.497 L1298.88 846.425 L1301.23 841.834 L1303.53 837.115 L1305.8 832.578 L1308.11 828.375 L1310.46 824.211 
  L1312.8 820.222 L1315.15 816.467 L1317.52 812.783 L1319.87 808.973 L1322.24 804.866 L1324.59 800.631 L1326.89 795.852 L1329.17 789.242 L1331.45 778.623 L1333.67 767.8 
  L1335.9 756.45 L1338.1 744.189 L1340.31 734.891 L1342.48 733.55 L1344.63 732.313 L1346.76 730.713 L1348.86 729.028 L1350.96 727.183 L1353.05 725.025 L1355.16 721.997 
  L1357.25 715.208 L1359.32 708.383 L1361.41 701.51 L1363.5 694.63 L1365.65 687.768 L1367.82 681.006 L1370.03 674.652 L1372.24 668.02 L1374.5 661.849 L1376.77 665.743 
  L1379.05 669.437 L1381.35 672.731 L1383.65 669.33 L1385.91 664.633 L1388.13 660.084 L1390.32 655.629 L1392.53 651.421 L1394.7 647.68 L1396.8 646.267 L1398.88 647.469 
  L1400.9 648.877 L1402.9 650.325 L1404.89 651.684 L1406.9 652.896 L1408.9 653.974 L1410.85 654.051 L1412.77 655.76 L1414.7 657.426 L1416.67 658.922 L1418.69 660.227 
  L1420.73 661.321 L1422.8 662.523 L1424.94 666.201 L1427.05 669.782 L1429.23 673.44 L1431.43 675.481 L1433.62 680.803 L1435.89 680.678 L1438.15 684.156 L1440.48 688.081 
  L1442.91 692.142 L1445.43 696.43 L1448.06 701.402 L1450.76 706.683 L1453.52 712.187 L1456.32 717.609 L1459.2 725.588 L1462.13 734.397 L1465.06 743.234 L1468.06 752.734 
  L1471.11 761.56 L1474.22 770.585 L1477.37 781.218 L1480.53 788.855 L1483.66 796.372 L1486.83 803.923 L1490 811.521 L1493.08 819.027 L1496.16 828.394 L1499.29 838.374 
  L1502.43 848.376 L1505.63 858.434 L1508.84 868.362 L1512.12 878.538 L1515.42 888.89 L1518.62 898.991 L1521.84 906.946 L1525.03 914.485 L1528.34 922.465 L1531.7 929.945 
  L1535.26 937.428 L1538.81 944.983 L1542.41 952.86 L1546.05 960.733 L1549.9 968.96 L1553.81 976.831 L1557.56 986.453 L1561.41 996.792 L1565.43 1006.95 L1569.52 1016.78 
  L1573.63 1026.24 L1577.9 1035.69 L1582.22 1044.11 L1586.63 1050.67 L1590.8 1056.59 L1595.23 1063.31 L1599.75 1070.05 L1604.32 1076.78 L1608.84 1082.71 L1613.7 1091.82 
  L1618.53 1101.47 L1623.01 1110.29 L1627.47 1118.64 L1631.56 1126.28 L1635.11 1132.6 L1638.74 1139 L1641.92 1144.52 L1645.04 1149.84 L1648.14 1155.13 L1651.26 1160.45 
  L1654.25 1163.68 L1657.24 1166.91 L1660.14 1170.07 L1663.1 1173.32 L1665.71 1175.96 L1668.3 1178.56 L1670.86 1181.15 L1673.4 1184.63 L1675.93 1188.44 L1678.52 1192.14 
  L1681.09 1195.72 L1683.84 1199.56 L1686.62 1203.38 L1689.74 1207.6 L1693.21 1212.08 L1696.98 1216.83 L1701.02 1221.84 L1705.33 1226.97 L1710.19 1232.51 L1715.64 1238.54 
  L1721.62 1245.01 L1728.1 1251.88 L1735.03 1258.16 L1741.78 1263.17 L1749.39 1268.96 L1756.88 1275.88 L1765.06 1281.83 L1771.58 1286.24 L1778.62 1290.86 L1785.29 1295.06 
  L1791.58 1298.7 L1798.04 1302.23 L1805.31 1306.32 L1813.48 1310.7 L1820.79 1314.45 L1825.39 1316.73 L1828.92 1318.43 L1832.14 1319.95 L1835.22 1321.37 L1838.23 1322.73 
  L1841.27 1324.1 L1844.47 1325.62 L1847.93 1327.21 L1851.81 1328.95 L1856.17 1330.83 L1860.96 1332.81 L1866.36 1334.92 L1871.63 1336.86 L1877.56 1338.95 L1884.23 1341.14 
  L1891.74 1343.49 L1900.18 1346.55 L1907.46 1348.69 L1915.17 1350.74 L1922.52 1352.64 L1929.63 1354.39 L1935.54 1355.76 L1940.45 1356.82 L1944.84 1357.74 L1949.02 1358.59 
  L1953.23 1359.41 L1957.43 1360.2 L1961.95 1361 L1966.72 1361.89 L1971.81 1362.93 L1977.54 1364.08 L1983.98 1365.3 L1988.96 1366.16 L1994.56 1367.06 L2000.68 1367.95 
  L2006.74 1368.78 L2012.32 1369.53 L2018.6 1370.35 L2025.21 1371.21 L2032.65 1372.15 L2041.01 1373.12 L2050.42 1374.15 L2061 1375.24 L2067.01 1375.81 L2073.77 1376.37 
  L2081.37 1376.94 L2089.93 1377.59 L2097.4 1378.14 L2105.8 1378.71 L2115.25 1379.31 L2124.64 1379.88 L2130.59 1380.22 L2137.29 1380.57 L2143.81 1380.89 L2150.88 1381.21 
  L2158.82 1381.55 L2163.36 1381.74 L2168.33 1381.95 L2173.02 1382.12 L2178.31 1382.32 L2184.25 1382.53 L2190.8 1382.75 L2198.16 1382.98 L2203.78 1383.15 L2208.76 1383.3 
  L2214.37 1383.46 L2220.67 1383.62 L2226.21 1383.76 L2231.3 1383.87 L2236.46 1383.99 L2240.93 1384.09 L2245.56 1384.19 L2250.03 1384.28 L2254.71 1384.38 L2259.12 1384.47 
  L2263.86 1384.56 L2269.19 1384.68 L2274.39 1384.78 L2279.28 1384.86 L2284.25 1384.93 L2288.86 1385 L2293.1 1385.07 L2294.08 1385.08 L2294.08 1364.86 L2293.1 1364.75 
  L2288.86 1364.29 L2284.25 1363.81 L2279.28 1363.28 L2274.39 1362.73 L2269.19 1362.15 L2263.86 1361.49 L2259.12 1360.9 L2254.71 1360.31 L2250.03 1359.67 L2245.56 1359.03 
  L2240.93 1358.31 L2236.46 1357.61 L2231.3 1356.79 L2226.21 1355.98 L2220.67 1355.08 L2214.37 1353.98 L2208.76 1352.98 L2203.78 1352.1 L2198.16 1351.04 L2190.8 1349.63 
  L2184.25 1348.25 L2178.31 1346.92 L2173.02 1345.68 L2168.33 1344.56 L2163.36 1343.48 L2158.82 1342.56 L2150.88 1340.93 L2143.81 1339.64 L2137.29 1338.45 L2130.59 1337.12 
  L2124.64 1335.88 L2115.25 1333.87 L2105.8 1331.74 L2097.4 1329.72 L2089.93 1327.07 L2081.37 1323.03 L2073.77 1319.29 L2067.01 1315.77 L2061 1312.61 L2050.42 1306.72 
  L2041.01 1301.76 L2032.65 1298.07 L2025.21 1294.96 L2018.6 1292.24 L2012.32 1289.64 L2006.74 1287.29 L2000.68 1284.82 L1994.56 1282.17 L1988.96 1278.01 L1983.98 1274.28 
  L1977.54 1269.16 L1971.81 1264.38 L1966.72 1259.86 L1961.95 1255.31 L1957.43 1250.94 L1953.23 1246.89 L1949.02 1242.82 L1944.84 1238.72 L1940.45 1234.23 L1935.54 1229.14 
  L1929.63 1222.9 L1922.52 1215.11 L1915.17 1206.94 L1907.46 1198.44 L1900.18 1190.34 L1891.74 1180.62 L1884.23 1172.04 L1877.56 1164.12 L1871.63 1156.7 L1866.36 1149.87 
  L1860.96 1142.44 L1856.17 1135.58 L1851.81 1129.51 L1847.93 1124.27 L1844.47 1119.69 L1841.27 1115.52 L1838.23 1111.74 L1835.22 1107.01 L1832.14 1101.87 L1828.92 1096.34 
  L1825.39 1089.91 L1820.79 1081.33 L1813.48 1066.71 L1805.31 1049.31 L1798.04 1032.76 L1791.58 1017.25 L1785.29 1001.91 L1778.62 984.878 L1771.58 968.784 L1765.06 957.251 
  L1756.88 944.577 L1749.39 932.571 L1741.78 920.709 L1735.03 909.307 L1728.1 891.036 L1721.62 872.278 L1715.64 853.272 L1710.19 835.218 L1705.33 819.263 L1701.02 807.9 
  L1696.98 801.635 L1693.21 796.254 L1689.74 791.51 L1686.62 787.585 L1683.84 780.909 L1681.09 771.565 L1678.52 762.8 L1675.93 754.007 L1673.4 745.332 L1670.86 738.039 
  L1668.3 731.576 L1665.71 722.363 L1663.1 713.316 L1660.14 703.284 L1657.24 693.417 L1654.25 682.616 L1651.26 671.713 L1648.14 660.503 L1645.04 649.551 L1641.92 639.027 
  L1638.74 629.149 L1635.11 618.403 L1631.56 608.205 L1627.47 597.093 L1623.01 595.942 L1618.53 594.56 L1613.7 591.372 L1608.84 588.471 L1604.32 575.359 L1599.75 559.505 
  L1595.23 544.08 L1590.8 534.681 L1586.63 536.72 L1582.22 539.272 L1577.9 526.723 L1573.63 505.15 L1569.52 484.304 L1565.43 463.749 L1561.41 444.3 L1557.56 434.231 
  L1553.81 425.602 L1549.9 416.611 L1546.05 407.195 L1542.41 399.423 L1538.81 401.379 L1535.26 405.66 L1531.7 407.65 L1528.34 395.11 L1525.03 383.704 L1521.84 375.385 
  L1518.62 371.809 L1515.42 368.097 L1512.12 363.426 L1508.84 358.292 L1505.63 354.697 L1502.43 352.089 L1499.29 348.709 L1496.16 344.969 L1493.08 333.522 L1490 320.554 
  L1486.83 319.35 L1483.66 320.347 L1480.53 313.439 L1477.37 310.569 L1474.22 310.57 L1471.11 303.938 L1468.06 298.93 L1465.06 294.84 L1462.13 290.062 L1459.2 284.2 
  L1456.32 278.671 L1453.52 278.957 L1450.76 270.94 L1448.06 263.182 L1445.43 256.578 L1442.91 250.715 L1440.48 245.691 L1438.15 241.653 L1435.89 237.911 L1433.62 234.793 
  L1431.43 231.952 L1429.23 229.441 L1427.05 229.671 L1424.94 229.821 L1422.8 222.738 L1420.73 220.935 L1418.69 219.446 L1416.67 218.116 L1414.7 217.041 L1412.77 214.8 
  L1410.85 205.696 L1408.9 196.296 L1406.9 193.758 L1404.89 192.544 L1402.9 191.407 L1400.9 190.874 L1398.88 190.69 L1396.8 190.653 L1394.7 190.83 L1392.53 191.441 
  L1390.32 192.525 L1388.13 194.44 L1385.91 196.595 L1383.65 198.291 L1381.35 194.293 L1379.05 191.409 L1376.77 189.82 L1374.5 188.248 L1372.24 187.241 L1370.03 187.346 
  L1367.82 189.243 L1365.65 191.51 L1363.5 189.966 L1361.41 193.172 L1359.32 190.405 L1357.25 190.437 L1355.16 191.273 L1353.05 188.849 L1350.96 186.29 L1348.86 184.165 
  L1346.76 182.568 L1344.63 181.165 L1342.48 175.793 L1340.31 171.459 L1338.1 168.402 L1335.9 166.33 L1333.67 169.352 L1331.45 165.899 L1329.17 163.087 L1326.89 160.981 
  L1324.59 160.256 L1322.24 160.998 L1319.87 163.13 L1317.52 166.129 L1315.15 169.648 L1312.8 173.011 L1310.46 177.477 L1308.11 183.06 L1305.8 188.938 L1303.53 196.016 
  L1301.23 203.508 L1298.88 210.856 L1296.52 215.426 L1294.2 219.739 L1291.76 229.848 L1289.24 238.048 L1286.62 239.599 L1283.94 239.266 L1281.15 239.933 L1278.28 243.085 
  L1275.37 246.14 L1272.4 249.491 L1269.37 254.367 L1266.39 260.374 L1263.34 263.574 L1260.26 262.762 L1257.24 267.088 L1254.02 280.119 L1250.69 294.527 L1247.34 307.699 
  L1243.94 315.628 L1240.55 323.617 L1237.12 333.242 L1233.69 344.19 L1230.16 356.161 L1226.61 368.867 L1223.01 382.365 L1219.4 396.648 L1215.6 410.142 L1211.67 423.138 
  L1207.72 435.011 L1203.73 447.45 L1199.71 461.86 L1195.69 475.663 L1191.67 488.942 L1187.71 503.669 L1183.76 525.578 L1180.02 547.418 L1176.35 562.886 L1172.89 577.593 
  L1169.35 591.626 L1166.06 604.657 L1162.81 613.714 L1159.58 621.137 L1156.27 629.694 L1152.99 642.564 L1149.46 655.564 L1145.85 668.036 L1142.07 680.693 L1137.86 695.467 
  L1133.13 712.845 L1128.51 730.312 L1124.14 744.082 L1119.53 758.118 L1114.78 774.678 L1109.04 797.315 L1103.81 816.141 L1098.15 839.173 L1092.99 859.94 L1088.4 877.726 
  L1084.33 892.702 L1080.71 905.752 L1077.23 917.636 L1073.66 929.112 L1069.95 941.972 L1066.17 955.663 L1062.24 965.432 L1058.15 977.425 L1053.86 990.652 L1049.26 1004.45 
  L1044.37 1018.6 L1039.32 1032.45 L1034.39 1043.83 L1029.07 1055.5 L1022.96 1069.19 L1016.47 1084.63 L1010.66 1098.89 L1004.58 1113.83 L998.438 1128.83 L992.681 1143.3 
  L986.755 1154.03 L981.316 1160.85 L975.485 1169.48 L969.491 1182.08 L962.37 1196.72 L956.04 1208.58 L948.883 1219.78 L942.01 1230.86 L935.901 1241.1 L929.244 1251.97 
  L922.454 1261.79 L916.418 1270.03 L911.053 1275.17 L900.831 1283.56 L891.744 1290.61 L883.667 1296.21 L876.488 1301.18 L870.106 1305.2 L863.81 1309.45 L858.213 1314.26 
  L850.928 1320.34 L844.452 1325.31 L838.696 1329.52 L833.58 1333.09 L829.032 1335.6 L823.911 1338.34 L818.9 1340.37 L813.679 1342.56 L809.038 1344.51 L804.912 1346.16 
  L801.245 1347.56 L797.566 1349.2 L793.934 1350.73 L790.422 1351.97 L786.962 1353.12 L783.623 1354.26 L780.615 1355.54 L773.671 1357.76 L767.499 1359.62 L762.013 1361.19 
  L756.699 1362.72 L751.84 1363.99 L747.11 1365.01 L742.766 1365.89 L737.883 1366.83 L732.728 1367.82 L728.146 1368.75 L722.776 1369.82 L718.003 1370.73 L713.76 1371.38 
  L709.989 1371.95 L706.228 1372.47 L702.459 1373.05 L698.844 1373.61 L695.344 1373.99 L692.234 1374.45 L689.469 1374.85 L686.876 1375.22 L684.359 1375.57 L681.812 1375.92 
  L679.323 1376.26 L676.978 1376.5 L674.806 1376.71 L672.652 1376.91 L670.347 1377.13 L668.077 1377.35 L665.759 1377.57 L663.462 1377.79 L661.15 1378.01 L658.867 1378.22 
  L656.484 1378.45 L654.102 1378.67 L651.778 1378.88 L649.539 1379.08 L647.217 1379.29 L644.802 1379.5 L642.228 1379.7 L639.648 1379.9 L636.97 1380.1 L634.301 1380.3 
  L631.476 1380.5 L628.494 1380.7 L624.964 1380.94 L621.267 1381.21 L617.781 1381.41 L613.978 1381.61 L610.022 1381.8 L606.14 1381.98 L602.386 1382.16 L598.396 1382.36 
  L594.083 1382.55 L590.112 1382.73 L586.242 1382.87 L581.987 1383.03 L577.86 1383.17 L573.72 1383.35 L569.68 1383.53 L565.532 1383.7 L561.796 1383.84 L557.625 1383.99 
  L553.917 1384.12 L550.622 1384.23 L547.469 1384.33 L544.599 1384.41 L541.769 1384.5 L538.972 1384.56 L536.277 1384.63 L533.695 1384.7 L531.258 1384.76 L528.881 1384.81 
  L526.455 1384.86 L524.029 1384.91 L521.745 1384.96 L519.61 1385.01 L517.594 1385.05 L515.69 1385.09 L513.794 1385.13 L511.996 1385.16 L510.328 1385.19 L508.684 1385.22 
  L507.062 1385.24 L505.468 1385.27 L503.889 1385.3 L502.299 1385.33 L500.727 1385.36 L499.175 1385.39 L497.589 1385.42 L495.978 1385.45 L494.384 1385.48 L492.723 1385.51 
  L490.982 1385.54 L489.134 1385.56 L487.106 1385.59 L485.058 1385.62 L483.072 1385.65 L481.014 1385.68 L478.982 1385.7 L476.862 1385.73 L474.735 1385.76 L472.644 1385.79 
  L470.558 1385.82 L468.509 1385.84 L466.382 1385.86 L464.22 1385.87 L462.108 1385.89 L460.142 1385.91 L458.201 1385.92 L456.313 1385.94 L454.54 1385.95 L452.876 1385.97 
  L451.334 1385.98 L449.828 1385.99 L448.342 1386 L446.818 1386.02 L445.268 1386.03 L443.701 1386.05 L442.143 1386.06 L440.562 1386.07 L439.006 1386.08 L437.486 1386.09 
  L436.033 1386.1 L434.652 1386.11 L433.261 1386.12 L431.874 1386.13 L430.522 1386.14 L429.229 1386.14 L427.955 1386.15 L426.717 1386.16 L425.508 1386.16 L424.32 1386.17 
  L423.129 1386.18 L421.938 1386.18 L420.749 1386.19 L419.512 1386.2 L418.267 1386.21 L417.032 1386.21 L415.783 1386.22 L414.564 1386.22 L413.336 1386.23 L412.147 1386.23 
  L410.959 1386.24 L409.782 1386.24 L408.622 1386.25 L407.463 1386.25 L406.331 1386.26 L405.217 1386.26 L404.127 1386.26 L403.039 1386.27 L401.985 1386.27 L400.963 1386.28 
  L399.966 1386.28 L398.985 1386.28 L398.01 1386.28 L397.032 1386.29 L396.043 1386.29 L395.03 1386.29 L394.01 1386.29 L393.007 1386.3 L392.012 1386.3 L391.028 1386.3 
  L390.055 1386.3 L389.091 1386.3 L388.126 1386.31 L387.164 1386.31 L386.201 1386.31 L385.261 1386.31 L384.348 1386.31 L383.442 1386.32 L382.571 1386.32 L381.722 1386.32 
  L380.89 1386.32 L380.074 1386.32 L379.275 1386.32 L378.484 1386.32 L377.71 1386.32 L376.947 1386.32 L376.201 1386.32 L375.473 1386.32 L374.754 1386.33 L374.046 1386.33 
  L373.35 1386.33 L372.666 1386.33 L371.999 1386.33 L371.349 1386.33 L370.704 1386.33 L370.067 1386.33 L369.439 1386.33 L368.823 1386.32 L368.213 1386.32 L367.596 1386.32 
  L366.985 1386.32 L366.379 1386.32 L365.779 1386.32 L365.185 1386.32 L364.598 1386.32 L364.013 1386.32 L363.43 1386.32 L362.849 1386.32 L362.279 1386.32 L361.715 1386.32 
  L361.156 1386.32 L360.602 1386.31 L360.051 1386.31 L359.505 1386.31 L358.967 1386.31 L358.438 1386.31 L357.919 1386.31 L357.407 1386.31 L356.898 1386.3 L356.395 1386.3 
  L355.896 1386.3 L355.401 1386.3 L354.912 1386.3 L354.428 1386.3 L353.949 1386.3 L353.476 1386.29 L353.009 1386.29 L352.549 1386.29 L352.089 1386.29 L351.631 1386.29 
  L351.177 1386.29 L350.725 1386.29 L350.276 1386.28 L349.827 1386.28 L349.379 1386.28 L348.933 1386.28 L348.488 1386.28 L348.047 1386.28 L347.61 1386.27 L347.176 1386.27 
  L346.745 1386.27 L346.32 1386.27 L345.9 1386.27 L345.485 1386.26 L345.079 1386.26 L344.684 1386.26 L344.295 1386.26 L343.914 1386.26 L343.544 1386.25 L343.184 1386.25 
  L342.833 1386.25 L342.492 1386.25 L342.164 1386.25 L341.848 1386.24 L341.544 1386.24 L341.252 1386.24 L340.976 1386.24 L340.714 1386.24 L340.47 1386.24 L340.243 1386.23 
  L340.034 1386.23 L339.844 1386.23 L339.675 1386.23 L339.525 1386.23 L339.392 1386.23 L339.274 1386.23 L339.169 1386.23 L339.075 1386.23 L338.992 1386.23 L338.918 1386.23 
  L338.852 1386.23 L338.794 1386.22 L338.742 1386.22 L338.696 1386.22 L338.655 1386.22 L338.618 1386.22 L338.586 1386.22 L338.557 1386.22 L338.532 1386.22 L338.509 1386.22 
  L338.489 1386.22 L338.471 1386.22 L338.455 1386.22 L338.44 1386.22 L338.428 1386.22 L338.375 1386.22  Z
  " fill="#009af9" fill-rule="evenodd" fill-opacity="0.2"/>
<polyline clip-path="url(#clip393)" style="stroke:#009af9; stroke-linecap:butt; stroke-linejoin:round; stroke-width:12; stroke-opacity:1; fill:none" points="
  338.375,1386.22 338.428,1386.22 338.44,1386.22 338.455,1386.22 338.471,1386.22 338.489,1386.22 338.509,1386.22 338.532,1386.22 338.557,1386.22 338.586,1386.22 
  338.618,1386.22 338.655,1386.22 338.696,1386.22 338.742,1386.22 338.794,1386.22 338.852,1386.23 338.918,1386.23 338.992,1386.23 339.075,1386.23 339.169,1386.23 
  339.274,1386.23 339.392,1386.23 339.525,1386.23 339.675,1386.23 339.844,1386.23 340.034,1386.23 340.243,1386.23 340.47,1386.24 340.714,1386.24 340.976,1386.24 
  341.252,1386.24 341.544,1386.24 341.848,1386.25 342.164,1386.25 342.492,1386.25 342.833,1386.25 343.184,1386.25 343.544,1386.26 343.914,1386.26 344.295,1386.26 
  344.684,1386.26 345.079,1386.26 345.485,1386.27 345.9,1386.27 346.32,1386.27 346.745,1386.27 347.176,1386.28 347.61,1386.28 348.047,1386.28 348.488,1386.28 
  348.933,1386.28 349.379,1386.29 349.827,1386.29 350.276,1386.29 350.725,1386.29 351.177,1386.29 351.631,1386.3 352.089,1386.3 352.549,1386.3 353.009,1386.3 
  353.476,1386.3 353.949,1386.31 354.428,1386.31 354.912,1386.31 355.401,1386.31 355.896,1386.31 356.395,1386.31 356.898,1386.32 357.407,1386.32 357.919,1386.32 
  358.438,1386.32 358.967,1386.32 359.505,1386.32 360.051,1386.33 360.602,1386.33 361.156,1386.33 361.715,1386.33 362.279,1386.33 362.849,1386.33 363.43,1386.33 
  364.013,1386.34 364.598,1386.34 365.185,1386.34 365.779,1386.34 366.379,1386.34 366.985,1386.34 367.596,1386.34 368.213,1386.34 368.823,1386.34 369.439,1386.35 
  370.067,1386.35 370.704,1386.35 371.349,1386.35 371.999,1386.35 372.666,1386.35 373.35,1386.35 374.046,1386.35 374.754,1386.35 375.473,1386.35 376.201,1386.35 
  376.947,1386.35 377.71,1386.35 378.484,1386.35 379.275,1386.35 380.074,1386.35 380.89,1386.35 381.722,1386.35 382.571,1386.35 383.442,1386.35 384.348,1386.35 
  385.261,1386.35 386.201,1386.35 387.164,1386.35 388.126,1386.35 389.091,1386.35 390.055,1386.35 391.028,1386.35 392.012,1386.35 393.007,1386.35 394.01,1386.34 
  395.03,1386.34 396.043,1386.34 397.032,1386.34 398.01,1386.34 398.985,1386.34 399.966,1386.33 400.963,1386.33 401.985,1386.33 403.039,1386.33 404.127,1386.33 
  405.217,1386.32 406.331,1386.32 407.463,1386.32 408.622,1386.31 409.782,1386.31 410.959,1386.31 412.147,1386.3 413.336,1386.3 414.564,1386.3 415.783,1386.29 
  417.032,1386.29 418.267,1386.28 419.512,1386.28 420.749,1386.28 421.938,1386.27 423.129,1386.27 424.32,1386.26 425.508,1386.26 426.717,1386.25 427.955,1386.25 
  429.229,1386.24 430.522,1386.24 431.874,1386.23 433.261,1386.22 434.652,1386.22 436.033,1386.21 437.486,1386.2 439.006,1386.2 440.562,1386.19 442.143,1386.18 
  443.701,1386.17 445.268,1386.16 446.818,1386.15 448.342,1386.14 449.828,1386.14 451.334,1386.13 452.876,1386.12 454.54,1386.11 456.313,1386.09 458.201,1386.08 
  460.142,1386.07 462.108,1386.05 464.22,1386.04 466.382,1386.02 468.509,1386.01 470.558,1385.99 472.644,1385.97 474.735,1385.95 476.862,1385.94 478.982,1385.92 
  481.014,1385.9 483.072,1385.88 485.058,1385.86 487.106,1385.84 489.134,1385.82 490.982,1385.8 492.723,1385.78 494.384,1385.77 495.978,1385.75 497.589,1385.73 
  499.175,1385.71 500.727,1385.7 502.299,1385.68 503.889,1385.66 505.468,1385.64 507.062,1385.62 508.684,1385.6 510.328,1385.58 511.996,1385.56 513.794,1385.54 
  515.69,1385.52 517.594,1385.49 519.61,1385.46 521.745,1385.43 524.029,1385.4 526.455,1385.36 528.881,1385.33 531.258,1385.29 533.695,1385.25 536.277,1385.21 
  538.972,1385.16 541.769,1385.11 544.599,1385.06 547.469,1385.01 550.622,1384.95 553.917,1384.89 557.625,1384.81 561.796,1384.72 565.532,1384.64 569.68,1384.55 
  573.72,1384.45 577.86,1384.35 581.987,1384.24 586.242,1384.13 590.112,1384.02 594.083,1383.91 598.396,1383.78 602.386,1383.66 606.14,1383.54 610.022,1383.41 
  613.978,1383.27 617.781,1383.13 621.267,1382.99 624.964,1382.85 628.494,1382.7 631.476,1382.58 634.301,1382.45 636.97,1382.33 639.648,1382.21 642.228,1382.09 
  644.802,1381.97 647.217,1381.85 649.539,1381.74 651.778,1381.62 654.102,1381.5 656.484,1381.37 658.867,1381.24 661.15,1381.11 663.462,1380.98 665.759,1380.85 
  668.077,1380.71 670.347,1380.57 672.652,1380.43 674.806,1380.29 676.978,1380.15 679.323,1380 681.812,1379.84 684.359,1379.66 686.876,1379.49 689.469,1379.3 
  692.234,1379.1 695.344,1378.86 698.844,1378.59 702.459,1378.29 706.228,1377.97 709.989,1377.64 713.76,1377.29 718.003,1376.89 722.776,1376.41 728.146,1375.84 
  732.728,1375.33 737.883,1374.72 742.766,1374.13 747.11,1373.58 751.84,1372.95 756.699,1372.28 762.013,1371.5 767.499,1370.65 773.671,1369.63 780.615,1368.41 
  783.623,1367.85 786.962,1367.21 790.422,1366.53 793.934,1365.81 797.566,1365.04 801.245,1364.23 804.912,1363.38 809.038,1362.41 813.679,1361.27 818.9,1359.93 
  823.911,1358.56 829.032,1357.1 833.58,1355.74 838.696,1354.14 844.452,1352.27 850.928,1350.05 858.213,1347.41 863.81,1345.26 870.106,1342.73 876.488,1340.03 
  883.667,1336.81 891.744,1332.95 900.831,1328.24 911.053,1322.46 916.418,1319.23 922.454,1315.4 929.244,1310.86 935.901,1306.1 942.01,1301.44 948.883,1295.94 
  956.04,1289.92 962.37,1284.37 969.491,1277.79 975.485,1271.97 981.316,1266.07 986.755,1260.3 992.681,1253.72 998.438,1246.97 1004.58,1239.45 1010.66,1231.75 
  1016.47,1224.02 1022.96,1214.99 1029.07,1206.12 1034.39,1197.97 1039.32,1190.13 1044.37,1181.77 1049.26,1173.34 1053.86,1165.23 1058.15,1157.4 1062.24,1149.77 
  1066.17,1142.3 1069.95,1134.94 1073.66,1127.58 1077.23,1120.43 1080.71,1113.36 1084.33,1105.82 1088.4,1097.14 1092.99,1087.08 1098.15,1075.49 1103.81,1062.44 
  1109.04,1050.07 1114.78,1036.04 1119.53,1024.15 1124.14,1012.41 1128.51,1001.06 1133.13,988.787 1137.86,975.981 1142.07,964.324 1145.85,953.719 1149.46,943.445 
  1152.99,933.259 1156.27,923.572 1159.58,913.608 1162.81,903.808 1166.06,893.964 1169.35,883.993 1172.89,873.184 1176.35,862.492 1180.02,851.087 1183.76,839.476 
  1187.71,827.254 1191.67,815.054 1195.69,802.851 1199.71,790.599 1203.73,778.307 1207.72,766.104 1211.67,754.05 1215.6,741.956 1219.4,730.222 1223.01,719.08 
  1226.61,707.996 1230.16,697.161 1233.69,686.405 1237.12,675.973 1240.55,665.874 1243.94,655.991 1247.34,646.091 1250.69,636.341 1254.02,626.707 1257.24,617.556 
  1260.26,609.091 1263.34,600.592 1266.39,592.31 1269.37,584.286 1272.4,576.19 1275.37,568.332 1278.28,560.698 1281.15,553.228 1283.94,546.149 1286.62,539.454 
  1289.24,533.059 1291.76,527.027 1294.2,521.369 1296.52,516.16 1298.88,511.049 1301.23,506.11 1303.53,501.388 1305.8,496.851 1308.11,492.375 1310.46,487.955 
  1312.8,483.781 1315.15,479.752 1317.52,475.852 1319.87,472.117 1322.24,468.518 1324.59,465.06 1326.89,461.758 1329.17,458.615 1331.45,455.598 1333.67,452.698 
  1335.9,449.933 1338.1,447.38 1340.31,444.887 1342.48,442.491 1344.63,440.252 1346.76,438.147 1348.86,436.17 1350.96,434.281 1353.05,432.455 1355.16,430.671 
  1357.25,429.028 1359.32,427.568 1361.41,426.219 1363.5,424.965 1365.65,423.734 1367.82,422.637 1370.03,421.718 1372.24,421.011 1374.5,420.492 1376.77,420.145 
  1379.05,419.936 1381.35,419.874 1383.65,419.973 1385.91,420.275 1388.13,420.681 1390.32,421.172 1392.53,421.849 1394.7,422.67 1396.8,423.667 1398.88,424.844 
  1400.9,426.06 1402.9,427.415 1404.89,428.831 1406.9,430.336 1408.9,431.928 1410.85,433.595 1412.77,435.318 1414.7,437.121 1416.67,439.055 1418.69,441.182 
  1420.73,443.45 1422.8,445.878 1424.94,448.507 1427.05,451.211 1429.23,454.082 1431.43,457.062 1433.62,460.106 1435.89,463.329 1438.15,466.604 1440.48,470.094 
  1442.91,473.828 1445.43,477.784 1448.06,482.037 1450.76,486.537 1453.52,491.205 1456.32,495.974 1459.2,500.864 1462.13,505.929 1465.06,511.2 1468.06,516.749 
  1471.11,522.681 1474.22,528.941 1477.37,535.422 1480.53,542.083 1483.66,548.817 1486.83,555.782 1490,562.838 1493.08,569.827 1496.16,576.92 1499.29,584.218 
  1502.43,591.622 1505.63,599.215 1508.84,606.924 1512.12,614.837 1515.42,622.858 1518.62,630.654 1521.84,638.47 1525.03,646.199 1528.34,654.266 1531.7,662.567 
  1535.26,671.487 1538.81,680.449 1542.41,689.67 1546.05,699.091 1549.9,709.08 1553.81,719.174 1557.56,728.822 1561.41,738.757 1565.43,749.141 1569.52,759.712 
  1573.63,770.321 1577.9,781.284 1582.22,792.327 1586.63,803.424 1590.8,813.82 1595.23,824.803 1599.75,835.936 1604.32,847.153 1608.84,858.185 1613.7,869.976 
  1618.53,881.557 1623.01,892.159 1627.47,902.505 1631.56,911.871 1635.11,919.901 1638.74,928.056 1641.92,935.192 1645.04,942.156 1648.14,949.036 1651.26,955.883 
  1654.25,962.354 1657.24,968.785 1660.14,974.971 1663.1,981.23 1665.71,986.696 1668.3,992.071 1670.86,997.336 1673.4,1002.5 1675.93,1007.59 1678.52,1012.7 
  1681.09,1017.71 1683.84,1023.01 1686.62,1028.35 1689.74,1034.33 1693.21,1040.92 1696.98,1047.94 1701.02,1055.38 1705.33,1063.22 1710.19,1071.92 1715.64,1081.47 
  1721.62,1091.69 1728.1,1102.44 1735.03,1113.56 1741.78,1124 1749.39,1135.32 1756.88,1146.06 1765.06,1157.3 1771.58,1165.88 1778.62,1174.8 1785.29,1182.96 
  1791.58,1190.42 1798.04,1197.83 1805.31,1205.82 1813.48,1214.42 1820.79,1221.8 1825.39,1226.29 1828.92,1229.66 1832.14,1232.68 1835.22,1235.51 1838.23,1238.24 
  1841.27,1240.95 1844.47,1243.77 1847.93,1246.75 1851.81,1250.03 1856.17,1253.64 1860.96,1257.5 1866.36,1261.74 1871.63,1265.74 1877.56,1270.09 1884.23,1274.84 
  1891.74,1279.93 1900.18,1285.39 1907.46,1289.92 1915.17,1294.5 1922.52,1298.68 1929.63,1302.52 1935.54,1305.6 1940.45,1308.07 1944.84,1310.21 1949.02,1312.19 
  1953.23,1314.13 1957.43,1316.01 1961.95,1317.99 1966.72,1320.02 1971.81,1322.12 1977.54,1324.42 1983.98,1326.93 1988.96,1328.81 1994.56,1330.88 2000.68,1333.06 
  2006.74,1335.12 2012.32,1336.95 2018.6,1338.93 2025.21,1340.94 2032.65,1343.11 2041.01,1345.45 2050.42,1347.94 2061,1350.56 2067.01,1351.97 2073.77,1353.49 
  2081.37,1355.12 2089.93,1356.87 2097.4,1358.3 2105.8,1359.84 2115.25,1361.46 2124.64,1362.98 2130.59,1363.88 2137.29,1364.86 2143.81,1365.77 2150.88,1366.71 
  2158.82,1367.73 2163.36,1368.28 2168.33,1368.87 2173.02,1369.41 2178.31,1369.99 2184.25,1370.63 2190.8,1371.31 2198.16,1372.03 2203.78,1372.56 2208.76,1373.01 
  2214.37,1373.51 2220.67,1374.05 2226.21,1374.51 2231.3,1374.92 2236.46,1375.32 2240.93,1375.65 2245.56,1375.99 2250.03,1376.3 2254.71,1376.63 2259.12,1376.92 
  2263.86,1377.23 2269.19,1377.56 2274.39,1377.87 2279.28,1378.16 2284.25,1378.45 2288.86,1378.7 2293.1,1378.93 2294.08,1378.98 
  "/>
<path clip-path="url(#clip390)" d="
M1567.83 270.476 L2283.65 270.476 L2283.65 166.796 L1567.83 166.796  Z
  " fill="#ffffff" fill-rule="evenodd" fill-opacity="1"/>
<polyline clip-path="url(#clip390)" style="stroke:#000000; stroke-linecap:butt; stroke-linejoin:round; stroke-width:4; stroke-opacity:1; fill:none" points="
  1567.83,270.476 2283.65,270.476 2283.65,166.796 1567.83,166.796 1567.83,270.476 
  "/>
<polyline clip-path="url(#clip390)" style="stroke:#009af9; stroke-linecap:butt; stroke-linejoin:round; stroke-width:4; stroke-opacity:1; fill:none" points="
  1590.87,218.636 1729.07,218.636 
  "/>
<path clip-path="url(#clip390)" d="M1752.1 201.356 L1759.07 201.356 L1767.89 224.874 L1776.76 201.356 L1783.72 201.356 L1783.72 235.916 L1779.16 235.916 L1779.16 205.569 L1770.25 229.272 L1765.55 229.272 L1756.64 205.569 L1756.64 235.916 L1752.1 235.916 L1752.1 201.356 Z" fill="#000000" fill-rule="evenodd" fill-opacity="1" /><path clip-path="url(#clip390)" d="M1792.82 209.99 L1797.08 209.99 L1797.08 235.916 L1792.82 235.916 L1792.82 209.99 M1792.82 199.897 L1797.08 199.897 L1797.08 205.291 L1792.82 205.291 L1792.82 199.897 Z" fill="#000000" fill-rule="evenodd" fill-opacity="1" /><path clip-path="url(#clip390)" d="M1823.05 213.925 L1823.05 199.897 L1827.31 199.897 L1827.31 235.916 L1823.05 235.916 L1823.05 232.027 Q1821.71 234.342 1819.65 235.476 Q1817.61 236.587 1814.74 236.587 Q1810.04 236.587 1807.08 232.837 Q1804.14 229.087 1804.14 222.976 Q1804.14 216.865 1807.08 213.115 Q1810.04 209.365 1814.74 209.365 Q1817.61 209.365 1819.65 210.499 Q1821.71 211.61 1823.05 213.925 M1808.54 222.976 Q1808.54 227.675 1810.46 230.36 Q1812.4 233.022 1815.78 233.022 Q1819.16 233.022 1821.11 230.36 Q1823.05 227.675 1823.05 222.976 Q1823.05 218.277 1821.11 215.615 Q1819.16 212.93 1815.78 212.93 Q1812.4 212.93 1810.46 215.615 Q1808.54 218.277 1808.54 222.976 Z" fill="#000000" fill-rule="evenodd" fill-opacity="1" /><path clip-path="url(#clip390)" d="M1853.14 213.925 L1853.14 199.897 L1857.4 199.897 L1857.4 235.916 L1853.14 235.916 L1853.14 232.027 Q1851.8 234.342 1849.74 235.476 Q1847.7 236.587 1844.83 236.587 Q1840.13 236.587 1837.17 232.837 Q1834.23 229.087 1834.23 222.976 Q1834.23 216.865 1837.17 213.115 Q1840.13 209.365 1844.83 209.365 Q1847.7 209.365 1849.74 210.499 Q1851.8 211.61 1853.14 213.925 M1838.63 222.976 Q1838.63 227.675 1840.55 230.36 Q1842.5 233.022 1845.88 233.022 Q1849.26 233.022 1851.2 230.36 Q1853.14 227.675 1853.14 222.976 Q1853.14 218.277 1851.2 215.615 Q1849.26 212.93 1845.88 212.93 Q1842.5 212.93 1840.55 215.615 Q1838.63 218.277 1838.63 222.976 Z" fill="#000000" fill-rule="evenodd" fill-opacity="1" /><path clip-path="url(#clip390)" d="M1866.18 199.897 L1870.44 199.897 L1870.44 235.916 L1866.18 235.916 L1866.18 199.897 Z" fill="#000000" fill-rule="evenodd" fill-opacity="1" /><path clip-path="url(#clip390)" d="M1901.52 221.888 L1901.52 223.971 L1881.94 223.971 Q1882.22 228.369 1884.58 230.684 Q1886.96 232.976 1891.2 232.976 Q1893.65 232.976 1895.94 232.374 Q1898.26 231.772 1900.53 230.569 L1900.53 234.596 Q1898.24 235.568 1895.83 236.078 Q1893.42 236.587 1890.94 236.587 Q1884.74 236.587 1881.11 232.976 Q1877.5 229.365 1877.5 223.207 Q1877.5 216.842 1880.92 213.115 Q1884.37 209.365 1890.2 209.365 Q1895.44 209.365 1898.47 212.745 Q1901.52 216.101 1901.52 221.888 M1897.26 220.638 Q1897.22 217.143 1895.3 215.059 Q1893.4 212.976 1890.25 212.976 Q1886.69 212.976 1884.53 214.99 Q1882.4 217.004 1882.08 220.661 L1897.26 220.638 Z" fill="#000000" fill-rule="evenodd" fill-opacity="1" /><path clip-path="url(#clip390)" d="M1924.32 235.198 L1924.32 230.939 Q1926.08 231.772 1927.89 232.212 Q1929.69 232.652 1931.43 232.652 Q1936.06 232.652 1938.49 229.55 Q1940.94 226.425 1941.29 220.082 Q1939.95 222.073 1937.89 223.138 Q1935.83 224.203 1933.33 224.203 Q1928.14 224.203 1925.11 221.078 Q1922.1 217.93 1922.1 212.49 Q1922.1 207.166 1925.25 203.948 Q1928.4 200.731 1933.63 200.731 Q1939.62 200.731 1942.77 205.337 Q1945.94 209.92 1945.94 218.67 Q1945.94 226.842 1942.06 231.726 Q1938.19 236.587 1931.64 236.587 Q1929.88 236.587 1928.07 236.24 Q1926.27 235.893 1924.32 235.198 M1933.63 220.545 Q1936.78 220.545 1938.61 218.393 Q1940.46 216.24 1940.46 212.49 Q1940.46 208.763 1938.61 206.61 Q1936.78 204.434 1933.63 204.434 Q1930.48 204.434 1928.63 206.61 Q1926.8 208.763 1926.8 212.49 Q1926.8 216.24 1928.63 218.393 Q1930.48 220.545 1933.63 220.545 Z" fill="#000000" fill-rule="evenodd" fill-opacity="1" /><path clip-path="url(#clip390)" d="M1954.39 201.356 L1972.75 201.356 L1972.75 205.291 L1958.68 205.291 L1958.68 213.763 Q1959.69 213.416 1960.71 213.254 Q1961.73 213.069 1962.75 213.069 Q1968.54 213.069 1971.92 216.24 Q1975.3 219.411 1975.3 224.828 Q1975.3 230.406 1971.82 233.508 Q1968.35 236.587 1962.03 236.587 Q1959.86 236.587 1957.59 236.217 Q1955.34 235.846 1952.94 235.106 L1952.94 230.406 Q1955.02 231.541 1957.24 232.096 Q1959.46 232.652 1961.94 232.652 Q1965.94 232.652 1968.28 230.545 Q1970.62 228.439 1970.62 224.828 Q1970.62 221.217 1968.28 219.11 Q1965.94 217.004 1961.94 217.004 Q1960.06 217.004 1958.19 217.42 Q1956.34 217.837 1954.39 218.717 L1954.39 201.356 Z" fill="#000000" fill-rule="evenodd" fill-opacity="1" /><path clip-path="url(#clip390)" d="M2013.91 220.707 Q2011.89 220.707 2010.74 222.42 Q2009.6 224.133 2009.6 227.189 Q2009.6 230.198 2010.74 231.934 Q2011.89 233.647 2013.91 233.647 Q2015.87 233.647 2017.01 231.934 Q2018.17 230.198 2018.17 227.189 Q2018.17 224.157 2017.01 222.444 Q2015.87 220.707 2013.91 220.707 M2013.91 217.768 Q2017.56 217.768 2019.72 220.314 Q2021.87 222.86 2021.87 227.189 Q2021.87 231.518 2019.69 234.064 Q2017.54 236.587 2013.91 236.587 Q2010.2 236.587 2008.05 234.064 Q2005.9 231.518 2005.9 227.189 Q2005.9 222.837 2008.05 220.314 Q2010.23 217.768 2013.91 217.768 M1990.02 203.671 Q1988.03 203.671 1986.87 205.407 Q1985.74 207.12 1985.74 210.129 Q1985.74 213.184 1986.87 214.897 Q1988 216.61 1990.02 216.61 Q1992.03 216.61 1993.17 214.897 Q1994.32 213.184 1994.32 210.129 Q1994.32 207.143 1993.17 205.407 Q1992.01 203.671 1990.02 203.671 M2010.92 200.731 L2014.62 200.731 L1993 236.587 L1989.3 236.587 L2010.92 200.731 M1990.02 200.731 Q1993.68 200.731 1995.85 203.277 Q1998.03 205.8 1998.03 210.129 Q1998.03 214.504 1995.85 217.027 Q1993.7 219.55 1990.02 219.55 Q1986.34 219.55 1984.18 217.027 Q1982.06 214.481 1982.06 210.129 Q1982.06 205.823 1984.21 203.277 Q1986.36 200.731 1990.02 200.731 Z" fill="#000000" fill-rule="evenodd" fill-opacity="1" /><path clip-path="url(#clip390)" d="M2058.24 204.527 Q2053.14 204.527 2050.13 208.323 Q2047.15 212.12 2047.15 218.67 Q2047.15 225.198 2050.13 228.994 Q2053.14 232.791 2058.24 232.791 Q2063.33 232.791 2066.29 228.994 Q2069.28 225.198 2069.28 218.67 Q2069.28 212.12 2066.29 208.323 Q2063.33 204.527 2058.24 204.527 M2064.79 235.291 L2070.94 242.027 L2065.3 242.027 L2060.18 236.494 Q2059.42 236.541 2059 236.564 Q2058.61 236.587 2058.24 236.587 Q2050.94 236.587 2046.57 231.726 Q2042.22 226.842 2042.22 218.67 Q2042.22 210.476 2046.57 205.615 Q2050.94 200.731 2058.24 200.731 Q2065.5 200.731 2069.86 205.615 Q2074.21 210.476 2074.21 218.67 Q2074.21 224.689 2071.78 228.971 Q2069.37 233.254 2064.79 235.291 Z" fill="#000000" fill-rule="evenodd" fill-opacity="1" /><path clip-path="url(#clip390)" d="M2080.9 225.684 L2080.9 209.99 L2085.16 209.99 L2085.16 225.522 Q2085.16 229.203 2086.59 231.055 Q2088.03 232.883 2090.9 232.883 Q2094.35 232.883 2096.34 230.684 Q2098.35 228.485 2098.35 224.689 L2098.35 209.99 L2102.61 209.99 L2102.61 235.916 L2098.35 235.916 L2098.35 231.934 Q2096.8 234.295 2094.74 235.453 Q2092.7 236.587 2089.99 236.587 Q2085.53 236.587 2083.21 233.809 Q2080.9 231.031 2080.9 225.684 M2091.61 209.365 L2091.61 209.365 Z" fill="#000000" fill-rule="evenodd" fill-opacity="1" /><path clip-path="url(#clip390)" d="M2123.17 222.883 Q2118 222.883 2116.01 224.064 Q2114.02 225.244 2114.02 228.092 Q2114.02 230.36 2115.5 231.703 Q2117.01 233.022 2119.58 233.022 Q2123.12 233.022 2125.25 230.522 Q2127.4 227.999 2127.4 223.832 L2127.4 222.883 L2123.17 222.883 M2131.66 221.124 L2131.66 235.916 L2127.4 235.916 L2127.4 231.981 Q2125.94 234.342 2123.77 235.476 Q2121.59 236.587 2118.44 236.587 Q2114.46 236.587 2112.1 234.365 Q2109.76 232.119 2109.76 228.369 Q2109.76 223.994 2112.68 221.772 Q2115.62 219.55 2121.43 219.55 L2127.4 219.55 L2127.4 219.133 Q2127.4 216.194 2125.46 214.596 Q2123.54 212.976 2120.04 212.976 Q2117.82 212.976 2115.71 213.508 Q2113.61 214.041 2111.66 215.106 L2111.66 211.17 Q2114 210.268 2116.2 209.828 Q2118.4 209.365 2120.48 209.365 Q2126.11 209.365 2128.88 212.282 Q2131.66 215.198 2131.66 221.124 Z" fill="#000000" fill-rule="evenodd" fill-opacity="1" /><path clip-path="url(#clip390)" d="M2161.98 220.268 L2161.98 235.916 L2157.73 235.916 L2157.73 220.407 Q2157.73 216.726 2156.29 214.897 Q2154.86 213.069 2151.98 213.069 Q2148.54 213.069 2146.55 215.268 Q2144.55 217.467 2144.55 221.263 L2144.55 235.916 L2140.27 235.916 L2140.27 209.99 L2144.55 209.99 L2144.55 214.018 Q2146.08 211.68 2148.14 210.522 Q2150.23 209.365 2152.93 209.365 Q2157.4 209.365 2159.69 212.143 Q2161.98 214.897 2161.98 220.268 Z" fill="#000000" fill-rule="evenodd" fill-opacity="1" /><path clip-path="url(#clip390)" d="M2174.69 202.629 L2174.69 209.99 L2183.47 209.99 L2183.47 213.3 L2174.69 213.3 L2174.69 227.374 Q2174.69 230.545 2175.55 231.448 Q2176.43 232.351 2179.09 232.351 L2183.47 232.351 L2183.47 235.916 L2179.09 235.916 Q2174.16 235.916 2172.29 234.087 Q2170.41 232.235 2170.41 227.374 L2170.41 213.3 L2167.29 213.3 L2167.29 209.99 L2170.41 209.99 L2170.41 202.629 L2174.69 202.629 Z" fill="#000000" fill-rule="evenodd" fill-opacity="1" /><path clip-path="url(#clip390)" d="M2189.07 209.99 L2193.33 209.99 L2193.33 235.916 L2189.07 235.916 L2189.07 209.99 M2189.07 199.897 L2193.33 199.897 L2193.33 205.291 L2189.07 205.291 L2189.07 199.897 Z" fill="#000000" fill-rule="evenodd" fill-opacity="1" /><path clip-path="url(#clip390)" d="M2202.24 199.897 L2206.5 199.897 L2206.5 235.916 L2202.24 235.916 L2202.24 199.897 Z" fill="#000000" fill-rule="evenodd" fill-opacity="1" /><path clip-path="url(#clip390)" d="M2237.59 221.888 L2237.59 223.971 L2218 223.971 Q2218.28 228.369 2220.64 230.684 Q2223.03 232.976 2227.26 232.976 Q2229.72 232.976 2232.01 232.374 Q2234.32 231.772 2236.59 230.569 L2236.59 234.596 Q2234.3 235.568 2231.89 236.078 Q2229.48 236.587 2227.01 236.587 Q2220.8 236.587 2217.17 232.976 Q2213.56 229.365 2213.56 223.207 Q2213.56 216.842 2216.98 213.115 Q2220.43 209.365 2226.27 209.365 Q2231.5 209.365 2234.53 212.745 Q2237.59 216.101 2237.59 221.888 M2233.33 220.638 Q2233.28 217.143 2231.36 215.059 Q2229.46 212.976 2226.31 212.976 Q2222.75 212.976 2220.6 214.99 Q2218.47 217.004 2218.14 220.661 L2233.33 220.638 Z" fill="#000000" fill-rule="evenodd" fill-opacity="1" /></svg>
