<?xml version="1.0" encoding="utf-8"?>
<svg xmlns="http://www.w3.org/2000/svg" xmlns:xlink="http://www.w3.org/1999/xlink" width="600" height="400" viewBox="0 0 2400 1600">
<defs>
  <clipPath id="clip090">
    <rect x="0" y="0" width="2400" height="1600"/>
  </clipPath>
</defs>
<path clip-path="url(#clip090)" d="
M0 1600 L2400 1600 L2400 0 L0 0  Z
  " fill="#ffffff" fill-rule="evenodd" fill-opacity="1"/>
<defs>
  <clipPath id="clip091">
    <rect x="480" y="0" width="1681" height="1600"/>
  </clipPath>
</defs>
<path clip-path="url(#clip090)" d="
M250.028 1423.18 L2352.76 1423.18 L2352.76 123.472 L250.028 123.472  Z
  " fill="#ffffff" fill-rule="evenodd" fill-opacity="1"/>
<defs>
  <clipPath id="clip092">
    <rect x="250" y="123" width="2104" height="1301"/>
  </clipPath>
</defs>
<polyline clip-path="url(#clip092)" style="stroke:#000000; stroke-linecap:butt; stroke-linejoin:round; stroke-width:2; stroke-opacity:0.1; fill:none" points="
  250.028,1423.18 250.028,123.472 
  "/>
<polyline clip-path="url(#clip092)" style="stroke:#000000; stroke-linecap:butt; stroke-linejoin:round; stroke-width:2; stroke-opacity:0.1; fill:none" points="
  632.342,1423.18 632.342,123.472 
  "/>
<polyline clip-path="url(#clip092)" style="stroke:#000000; stroke-linecap:butt; stroke-linejoin:round; stroke-width:2; stroke-opacity:0.1; fill:none" points="
  1014.66,1423.18 1014.66,123.472 
  "/>
<polyline clip-path="url(#clip092)" style="stroke:#000000; stroke-linecap:butt; stroke-linejoin:round; stroke-width:2; stroke-opacity:0.1; fill:none" points="
  1396.97,1423.18 1396.97,123.472 
  "/>
<polyline clip-path="url(#clip092)" style="stroke:#000000; stroke-linecap:butt; stroke-linejoin:round; stroke-width:2; stroke-opacity:0.1; fill:none" points="
  1779.28,1423.18 1779.28,123.472 
  "/>
<polyline clip-path="url(#clip092)" style="stroke:#000000; stroke-linecap:butt; stroke-linejoin:round; stroke-width:2; stroke-opacity:0.1; fill:none" points="
  2161.6,1423.18 2161.6,123.472 
  "/>
<polyline clip-path="url(#clip090)" style="stroke:#000000; stroke-linecap:butt; stroke-linejoin:round; stroke-width:4; stroke-opacity:1; fill:none" points="
  250.028,1423.18 2352.76,1423.18 
  "/>
<polyline clip-path="url(#clip090)" style="stroke:#000000; stroke-linecap:butt; stroke-linejoin:round; stroke-width:4; stroke-opacity:1; fill:none" points="
  250.028,1423.18 250.028,1404.28 
  "/>
<polyline clip-path="url(#clip090)" style="stroke:#000000; stroke-linecap:butt; stroke-linejoin:round; stroke-width:4; stroke-opacity:1; fill:none" points="
  632.342,1423.18 632.342,1404.28 
  "/>
<polyline clip-path="url(#clip090)" style="stroke:#000000; stroke-linecap:butt; stroke-linejoin:round; stroke-width:4; stroke-opacity:1; fill:none" points="
  1014.66,1423.18 1014.66,1404.28 
  "/>
<polyline clip-path="url(#clip090)" style="stroke:#000000; stroke-linecap:butt; stroke-linejoin:round; stroke-width:4; stroke-opacity:1; fill:none" points="
  1396.97,1423.18 1396.97,1404.28 
  "/>
<polyline clip-path="url(#clip090)" style="stroke:#000000; stroke-linecap:butt; stroke-linejoin:round; stroke-width:4; stroke-opacity:1; fill:none" points="
  1779.28,1423.18 1779.28,1404.28 
  "/>
<polyline clip-path="url(#clip090)" style="stroke:#000000; stroke-linecap:butt; stroke-linejoin:round; stroke-width:4; stroke-opacity:1; fill:none" points="
  2161.6,1423.18 2161.6,1404.28 
  "/>
<path clip-path="url(#clip090)" d="M250.028 1454.1 Q246.417 1454.1 244.588 1457.66 Q242.783 1461.2 242.783 1468.33 Q242.783 1475.44 244.588 1479.01 Q246.417 1482.55 250.028 1482.55 Q253.662 1482.55 255.468 1479.01 Q257.297 1475.44 257.297 1468.33 Q257.297 1461.2 255.468 1457.66 Q253.662 1454.1 250.028 1454.1 M250.028 1450.39 Q255.838 1450.39 258.894 1455 Q261.973 1459.58 261.973 1468.33 Q261.973 1477.06 258.894 1481.67 Q255.838 1486.25 250.028 1486.25 Q244.218 1486.25 241.139 1481.67 Q238.084 1477.06 238.084 1468.33 Q238.084 1459.58 241.139 1455 Q244.218 1450.39 250.028 1450.39 Z" fill="#000000" fill-rule="evenodd" fill-opacity="1" /><path clip-path="url(#clip090)" d="M591.949 1481.64 L599.588 1481.64 L599.588 1455.28 L591.278 1456.95 L591.278 1452.69 L599.542 1451.02 L604.217 1451.02 L604.217 1481.64 L611.856 1481.64 L611.856 1485.58 L591.949 1485.58 L591.949 1481.64 Z" fill="#000000" fill-rule="evenodd" fill-opacity="1" /><path clip-path="url(#clip090)" d="M631.301 1454.1 Q627.69 1454.1 625.861 1457.66 Q624.055 1461.2 624.055 1468.33 Q624.055 1475.44 625.861 1479.01 Q627.69 1482.55 631.301 1482.55 Q634.935 1482.55 636.74 1479.01 Q638.569 1475.44 638.569 1468.33 Q638.569 1461.2 636.74 1457.66 Q634.935 1454.1 631.301 1454.1 M631.301 1450.39 Q637.111 1450.39 640.166 1455 Q643.245 1459.58 643.245 1468.33 Q643.245 1477.06 640.166 1481.67 Q637.111 1486.25 631.301 1486.25 Q625.49 1486.25 622.412 1481.67 Q619.356 1477.06 619.356 1468.33 Q619.356 1459.58 622.412 1455 Q625.49 1450.39 631.301 1450.39 Z" fill="#000000" fill-rule="evenodd" fill-opacity="1" /><path clip-path="url(#clip090)" d="M661.462 1454.1 Q657.851 1454.1 656.023 1457.66 Q654.217 1461.2 654.217 1468.33 Q654.217 1475.44 656.023 1479.01 Q657.851 1482.55 661.462 1482.55 Q665.097 1482.55 666.902 1479.01 Q668.731 1475.44 668.731 1468.33 Q668.731 1461.2 666.902 1457.66 Q665.097 1454.1 661.462 1454.1 M661.462 1450.39 Q667.273 1450.39 670.328 1455 Q673.407 1459.58 673.407 1468.33 Q673.407 1477.06 670.328 1481.67 Q667.273 1486.25 661.462 1486.25 Q655.652 1486.25 652.574 1481.67 Q649.518 1477.06 649.518 1468.33 Q649.518 1459.58 652.574 1455 Q655.652 1450.39 661.462 1450.39 Z" fill="#000000" fill-rule="evenodd" fill-opacity="1" /><path clip-path="url(#clip090)" d="M978.349 1481.64 L994.668 1481.64 L994.668 1485.58 L972.724 1485.58 L972.724 1481.64 Q975.386 1478.89 979.969 1474.26 Q984.576 1469.61 985.756 1468.27 Q988.001 1465.74 988.881 1464.01 Q989.784 1462.25 989.784 1460.56 Q989.784 1457.8 987.839 1456.07 Q985.918 1454.33 982.816 1454.33 Q980.617 1454.33 978.164 1455.09 Q975.733 1455.86 972.955 1457.41 L972.955 1452.69 Q975.779 1451.55 978.233 1450.97 Q980.687 1450.39 982.724 1450.39 Q988.094 1450.39 991.288 1453.08 Q994.483 1455.77 994.483 1460.26 Q994.483 1462.39 993.673 1464.31 Q992.886 1466.2 990.779 1468.8 Q990.201 1469.47 987.099 1472.69 Q983.997 1475.88 978.349 1481.64 Z" fill="#000000" fill-rule="evenodd" fill-opacity="1" /><path clip-path="url(#clip090)" d="M1014.48 1454.1 Q1010.87 1454.1 1009.04 1457.66 Q1007.24 1461.2 1007.24 1468.33 Q1007.24 1475.44 1009.04 1479.01 Q1010.87 1482.55 1014.48 1482.55 Q1018.12 1482.55 1019.92 1479.01 Q1021.75 1475.44 1021.75 1468.33 Q1021.75 1461.2 1019.92 1457.66 Q1018.12 1454.1 1014.48 1454.1 M1014.48 1450.39 Q1020.29 1450.39 1023.35 1455 Q1026.43 1459.58 1026.43 1468.33 Q1026.43 1477.06 1023.35 1481.67 Q1020.29 1486.25 1014.48 1486.25 Q1008.67 1486.25 1005.59 1481.67 Q1002.54 1477.06 1002.54 1468.33 Q1002.54 1459.58 1005.59 1455 Q1008.67 1450.39 1014.48 1450.39 Z" fill="#000000" fill-rule="evenodd" fill-opacity="1" /><path clip-path="url(#clip090)" d="M1044.64 1454.1 Q1041.03 1454.1 1039.2 1457.66 Q1037.4 1461.2 1037.4 1468.33 Q1037.4 1475.44 1039.2 1479.01 Q1041.03 1482.55 1044.64 1482.55 Q1048.28 1482.55 1050.08 1479.01 Q1051.91 1475.44 1051.91 1468.33 Q1051.91 1461.2 1050.08 1457.66 Q1048.28 1454.1 1044.64 1454.1 M1044.64 1450.39 Q1050.45 1450.39 1053.51 1455 Q1056.59 1459.58 1056.59 1468.33 Q1056.59 1477.06 1053.51 1481.67 Q1050.45 1486.25 1044.64 1486.25 Q1038.83 1486.25 1035.76 1481.67 Q1032.7 1477.06 1032.7 1468.33 Q1032.7 1459.58 1035.76 1455 Q1038.83 1450.39 1044.64 1450.39 Z" fill="#000000" fill-rule="evenodd" fill-opacity="1" /><path clip-path="url(#clip090)" d="M1370.73 1466.95 Q1374.09 1467.66 1375.96 1469.93 Q1377.86 1472.2 1377.86 1475.53 Q1377.86 1480.65 1374.34 1483.45 Q1370.82 1486.25 1364.34 1486.25 Q1362.17 1486.25 1359.85 1485.81 Q1357.56 1485.39 1355.11 1484.54 L1355.11 1480.02 Q1357.05 1481.16 1359.37 1481.74 Q1361.68 1482.32 1364.2 1482.32 Q1368.6 1482.32 1370.89 1480.58 Q1373.21 1478.84 1373.21 1475.53 Q1373.21 1472.48 1371.06 1470.77 Q1368.93 1469.03 1365.11 1469.03 L1361.08 1469.03 L1361.08 1465.19 L1365.29 1465.19 Q1368.74 1465.19 1370.57 1463.82 Q1372.4 1462.43 1372.4 1459.84 Q1372.4 1457.18 1370.5 1455.77 Q1368.63 1454.33 1365.11 1454.33 Q1363.19 1454.33 1360.99 1454.75 Q1358.79 1455.16 1356.15 1456.04 L1356.15 1451.88 Q1358.81 1451.14 1361.13 1450.77 Q1363.46 1450.39 1365.52 1450.39 Q1370.85 1450.39 1373.95 1452.83 Q1377.05 1455.23 1377.05 1459.35 Q1377.05 1462.22 1375.41 1464.21 Q1373.76 1466.18 1370.73 1466.95 Z" fill="#000000" fill-rule="evenodd" fill-opacity="1" /><path clip-path="url(#clip090)" d="M1396.73 1454.1 Q1393.12 1454.1 1391.29 1457.66 Q1389.48 1461.2 1389.48 1468.33 Q1389.48 1475.44 1391.29 1479.01 Q1393.12 1482.55 1396.73 1482.55 Q1400.36 1482.55 1402.17 1479.01 Q1404 1475.44 1404 1468.33 Q1404 1461.2 1402.17 1457.66 Q1400.36 1454.1 1396.73 1454.1 M1396.73 1450.39 Q1402.54 1450.39 1405.59 1455 Q1408.67 1459.58 1408.67 1468.33 Q1408.67 1477.06 1405.59 1481.67 Q1402.54 1486.25 1396.73 1486.25 Q1390.92 1486.25 1387.84 1481.67 Q1384.78 1477.06 1384.78 1468.33 Q1384.78 1459.58 1387.84 1455 Q1390.92 1450.39 1396.73 1450.39 Z" fill="#000000" fill-rule="evenodd" fill-opacity="1" /><path clip-path="url(#clip090)" d="M1426.89 1454.1 Q1423.28 1454.1 1421.45 1457.66 Q1419.64 1461.2 1419.64 1468.33 Q1419.64 1475.44 1421.45 1479.01 Q1423.28 1482.55 1426.89 1482.55 Q1430.52 1482.55 1432.33 1479.01 Q1434.16 1475.44 1434.16 1468.33 Q1434.16 1461.2 1432.33 1457.66 Q1430.52 1454.1 1426.89 1454.1 M1426.89 1450.39 Q1432.7 1450.39 1435.76 1455 Q1438.83 1459.58 1438.83 1468.33 Q1438.83 1477.06 1435.76 1481.67 Q1432.7 1486.25 1426.89 1486.25 Q1421.08 1486.25 1418 1481.67 Q1414.94 1477.06 1414.94 1468.33 Q1414.94 1459.58 1418 1455 Q1421.08 1450.39 1426.89 1450.39 Z" fill="#000000" fill-rule="evenodd" fill-opacity="1" /><path clip-path="url(#clip090)" d="M1752.38 1455.09 L1740.57 1473.54 L1752.38 1473.54 L1752.38 1455.09 M1751.15 1451.02 L1757.03 1451.02 L1757.03 1473.54 L1761.96 1473.54 L1761.96 1477.43 L1757.03 1477.43 L1757.03 1485.58 L1752.38 1485.58 L1752.38 1477.43 L1736.77 1477.43 L1736.77 1472.92 L1751.15 1451.02 Z" fill="#000000" fill-rule="evenodd" fill-opacity="1" /><path clip-path="url(#clip090)" d="M1779.69 1454.1 Q1776.08 1454.1 1774.25 1457.66 Q1772.44 1461.2 1772.44 1468.33 Q1772.44 1475.44 1774.25 1479.01 Q1776.08 1482.55 1779.69 1482.55 Q1783.32 1482.55 1785.13 1479.01 Q1786.96 1475.44 1786.96 1468.33 Q1786.96 1461.2 1785.13 1457.66 Q1783.32 1454.1 1779.69 1454.1 M1779.69 1450.39 Q1785.5 1450.39 1788.56 1455 Q1791.63 1459.58 1791.63 1468.33 Q1791.63 1477.06 1788.56 1481.67 Q1785.5 1486.25 1779.69 1486.25 Q1773.88 1486.25 1770.8 1481.67 Q1767.75 1477.06 1767.75 1468.33 Q1767.75 1459.58 1770.8 1455 Q1773.88 1450.39 1779.69 1450.39 Z" fill="#000000" fill-rule="evenodd" fill-opacity="1" /><path clip-path="url(#clip090)" d="M1809.85 1454.1 Q1806.24 1454.1 1804.41 1457.66 Q1802.61 1461.2 1802.61 1468.33 Q1802.61 1475.44 1804.41 1479.01 Q1806.24 1482.55 1809.85 1482.55 Q1813.49 1482.55 1815.29 1479.01 Q1817.12 1475.44 1817.12 1468.33 Q1817.12 1461.2 1815.29 1457.66 Q1813.49 1454.1 1809.85 1454.1 M1809.85 1450.39 Q1815.66 1450.39 1818.72 1455 Q1821.8 1459.58 1821.8 1468.33 Q1821.8 1477.06 1818.72 1481.67 Q1815.66 1486.25 1809.85 1486.25 Q1804.04 1486.25 1800.96 1481.67 Q1797.91 1477.06 1797.91 1468.33 Q1797.91 1459.58 1800.96 1455 Q1804.04 1450.39 1809.85 1450.39 Z" fill="#000000" fill-rule="evenodd" fill-opacity="1" /><path clip-path="url(#clip090)" d="M2121.22 1451.02 L2139.57 1451.02 L2139.57 1454.96 L2125.5 1454.96 L2125.5 1463.43 Q2126.52 1463.08 2127.54 1462.92 Q2128.56 1462.73 2129.57 1462.73 Q2135.36 1462.73 2138.74 1465.9 Q2142.12 1469.08 2142.12 1474.49 Q2142.12 1480.07 2138.65 1483.17 Q2135.18 1486.25 2128.86 1486.25 Q2126.68 1486.25 2124.41 1485.88 Q2122.17 1485.51 2119.76 1484.77 L2119.76 1480.07 Q2121.84 1481.2 2124.06 1481.76 Q2126.29 1482.32 2128.76 1482.32 Q2132.77 1482.32 2135.11 1480.21 Q2137.44 1478.1 2137.44 1474.49 Q2137.44 1470.88 2135.11 1468.77 Q2132.77 1466.67 2128.76 1466.67 Q2126.89 1466.67 2125.01 1467.08 Q2123.16 1467.5 2121.22 1468.38 L2121.22 1451.02 Z" fill="#000000" fill-rule="evenodd" fill-opacity="1" /><path clip-path="url(#clip090)" d="M2161.33 1454.1 Q2157.72 1454.1 2155.89 1457.66 Q2154.09 1461.2 2154.09 1468.33 Q2154.09 1475.44 2155.89 1479.01 Q2157.72 1482.55 2161.33 1482.55 Q2164.97 1482.55 2166.77 1479.01 Q2168.6 1475.44 2168.6 1468.33 Q2168.6 1461.2 2166.77 1457.66 Q2164.97 1454.1 2161.33 1454.1 M2161.33 1450.39 Q2167.14 1450.39 2170.2 1455 Q2173.28 1459.58 2173.28 1468.33 Q2173.28 1477.06 2170.2 1481.67 Q2167.14 1486.25 2161.33 1486.25 Q2155.52 1486.25 2152.44 1481.67 Q2149.39 1477.06 2149.39 1468.33 Q2149.39 1459.58 2152.44 1455 Q2155.52 1450.39 2161.33 1450.39 Z" fill="#000000" fill-rule="evenodd" fill-opacity="1" /><path clip-path="url(#clip090)" d="M2191.49 1454.1 Q2187.88 1454.1 2186.05 1457.66 Q2184.25 1461.2 2184.25 1468.33 Q2184.25 1475.44 2186.05 1479.01 Q2187.88 1482.55 2191.49 1482.55 Q2195.13 1482.55 2196.93 1479.01 Q2198.76 1475.44 2198.76 1468.33 Q2198.76 1461.2 2196.93 1457.66 Q2195.13 1454.1 2191.49 1454.1 M2191.49 1450.39 Q2197.3 1450.39 2200.36 1455 Q2203.44 1459.58 2203.44 1468.33 Q2203.44 1477.06 2200.36 1481.67 Q2197.3 1486.25 2191.49 1486.25 Q2185.68 1486.25 2182.61 1481.67 Q2179.55 1477.06 2179.55 1468.33 Q2179.55 1459.58 2182.61 1455 Q2185.68 1450.39 2191.49 1450.39 Z" fill="#000000" fill-rule="evenodd" fill-opacity="1" /><path clip-path="url(#clip090)" d="M1309.86 1548.54 Q1309.86 1549.45 1309.44 1549.67 Q1309.03 1549.87 1307.87 1549.87 L1301.68 1549.87 L1296.79 1569.32 Q1296.4 1571.02 1296.4 1572.47 Q1296.4 1574.08 1296.88 1574.79 Q1297.4 1575.5 1298.46 1575.5 Q1300.56 1575.5 1302.81 1573.6 Q1305.1 1571.7 1307.03 1567.06 Q1307.29 1566.45 1307.42 1566.32 Q1307.58 1566.16 1308 1566.16 Q1308.8 1566.16 1308.8 1566.81 Q1308.8 1567.03 1308.35 1568.06 Q1307.93 1569.09 1307 1570.61 Q1306.09 1572.12 1304.9 1573.54 Q1303.74 1574.95 1301.97 1575.98 Q1300.2 1576.98 1298.3 1576.98 Q1295.63 1576.98 1293.92 1575.28 Q1292.25 1573.57 1292.25 1570.9 Q1292.25 1570.03 1292.92 1567.26 Q1293.6 1564.45 1297.27 1549.87 L1291.44 1549.87 Q1290.64 1549.87 1290.31 1549.83 Q1290.02 1549.8 1289.8 1549.64 Q1289.61 1549.45 1289.61 1549.06 Q1289.61 1548.45 1289.86 1548.19 Q1290.12 1547.9 1290.44 1547.87 Q1290.8 1547.8 1291.6 1547.8 L1297.79 1547.8 L1300.36 1537.34 Q1300.62 1536.31 1301.26 1535.73 Q1301.94 1535.12 1302.33 1535.05 Q1302.71 1534.95 1303 1534.95 Q1303.87 1534.95 1304.39 1535.44 Q1304.9 1535.89 1304.9 1536.73 Q1304.9 1537.18 1302.2 1547.8 L1308 1547.8 Q1308.74 1547.8 1309.03 1547.84 Q1309.35 1547.87 1309.61 1548.03 Q1309.86 1548.19 1309.86 1548.54 Z" fill="#000000" fill-rule="evenodd" fill-opacity="1" /><polyline clip-path="url(#clip092)" style="stroke:#000000; stroke-linecap:butt; stroke-linejoin:round; stroke-width:2; stroke-opacity:0.1; fill:none" points="
  250.028,1387.22 2352.76,1387.22 
  "/>
<polyline clip-path="url(#clip092)" style="stroke:#000000; stroke-linecap:butt; stroke-linejoin:round; stroke-width:2; stroke-opacity:0.1; fill:none" points="
  250.028,1125.59 2352.76,1125.59 
  "/>
<polyline clip-path="url(#clip092)" style="stroke:#000000; stroke-linecap:butt; stroke-linejoin:round; stroke-width:2; stroke-opacity:0.1; fill:none" points="
  250.028,863.964 2352.76,863.964 
  "/>
<polyline clip-path="url(#clip092)" style="stroke:#000000; stroke-linecap:butt; stroke-linejoin:round; stroke-width:2; stroke-opacity:0.1; fill:none" points="
  250.028,602.336 2352.76,602.336 
  "/>
<polyline clip-path="url(#clip092)" style="stroke:#000000; stroke-linecap:butt; stroke-linejoin:round; stroke-width:2; stroke-opacity:0.1; fill:none" points="
  250.028,340.708 2352.76,340.708 
  "/>
<polyline clip-path="url(#clip090)" style="stroke:#000000; stroke-linecap:butt; stroke-linejoin:round; stroke-width:4; stroke-opacity:1; fill:none" points="
  250.028,1423.18 250.028,123.472 
  "/>
<polyline clip-path="url(#clip090)" style="stroke:#000000; stroke-linecap:butt; stroke-linejoin:round; stroke-width:4; stroke-opacity:1; fill:none" points="
  250.028,1387.22 268.926,1387.22 
  "/>
<polyline clip-path="url(#clip090)" style="stroke:#000000; stroke-linecap:butt; stroke-linejoin:round; stroke-width:4; stroke-opacity:1; fill:none" points="
  250.028,1125.59 268.926,1125.59 
  "/>
<polyline clip-path="url(#clip090)" style="stroke:#000000; stroke-linecap:butt; stroke-linejoin:round; stroke-width:4; stroke-opacity:1; fill:none" points="
  250.028,863.964 268.926,863.964 
  "/>
<polyline clip-path="url(#clip090)" style="stroke:#000000; stroke-linecap:butt; stroke-linejoin:round; stroke-width:4; stroke-opacity:1; fill:none" points="
  250.028,602.336 268.926,602.336 
  "/>
<polyline clip-path="url(#clip090)" style="stroke:#000000; stroke-linecap:butt; stroke-linejoin:round; stroke-width:4; stroke-opacity:1; fill:none" points="
  250.028,340.708 268.926,340.708 
  "/>
<path clip-path="url(#clip090)" d="M126.691 1373.02 Q123.08 1373.02 121.251 1376.58 Q119.445 1380.13 119.445 1387.26 Q119.445 1394.36 121.251 1397.93 Q123.08 1401.47 126.691 1401.47 Q130.325 1401.47 132.13 1397.93 Q133.959 1394.36 133.959 1387.26 Q133.959 1380.13 132.13 1376.58 Q130.325 1373.02 126.691 1373.02 M126.691 1369.32 Q132.501 1369.32 135.556 1373.92 Q138.635 1378.51 138.635 1387.26 Q138.635 1395.98 135.556 1400.59 Q132.501 1405.17 126.691 1405.17 Q120.88 1405.17 117.802 1400.59 Q114.746 1395.98 114.746 1387.26 Q114.746 1378.51 117.802 1373.92 Q120.88 1369.32 126.691 1369.32 Z" fill="#000000" fill-rule="evenodd" fill-opacity="1" /><path clip-path="url(#clip090)" d="M146.853 1398.62 L151.737 1398.62 L151.737 1404.5 L146.853 1404.5 L146.853 1398.62 Z" fill="#000000" fill-rule="evenodd" fill-opacity="1" /><path clip-path="url(#clip090)" d="M171.922 1373.02 Q168.311 1373.02 166.482 1376.58 Q164.677 1380.13 164.677 1387.26 Q164.677 1394.36 166.482 1397.93 Q168.311 1401.47 171.922 1401.47 Q175.556 1401.47 177.362 1397.93 Q179.19 1394.36 179.19 1387.26 Q179.19 1380.13 177.362 1376.58 Q175.556 1373.02 171.922 1373.02 M171.922 1369.32 Q177.732 1369.32 180.788 1373.92 Q183.866 1378.51 183.866 1387.26 Q183.866 1395.98 180.788 1400.59 Q177.732 1405.17 171.922 1405.17 Q166.112 1405.17 163.033 1400.59 Q159.978 1395.98 159.978 1387.26 Q159.978 1378.51 163.033 1373.92 Q166.112 1369.32 171.922 1369.32 Z" fill="#000000" fill-rule="evenodd" fill-opacity="1" /><path clip-path="url(#clip090)" d="M202.084 1373.02 Q198.473 1373.02 196.644 1376.58 Q194.838 1380.13 194.838 1387.26 Q194.838 1394.36 196.644 1397.93 Q198.473 1401.47 202.084 1401.47 Q205.718 1401.47 207.524 1397.93 Q209.352 1394.36 209.352 1387.26 Q209.352 1380.13 207.524 1376.58 Q205.718 1373.02 202.084 1373.02 M202.084 1369.32 Q207.894 1369.32 210.949 1373.92 Q214.028 1378.51 214.028 1387.26 Q214.028 1395.98 210.949 1400.59 Q207.894 1405.17 202.084 1405.17 Q196.274 1405.17 193.195 1400.59 Q190.139 1395.98 190.139 1387.26 Q190.139 1378.51 193.195 1373.92 Q196.274 1369.32 202.084 1369.32 Z" fill="#000000" fill-rule="evenodd" fill-opacity="1" /><path clip-path="url(#clip090)" d="M128.288 1111.39 Q124.677 1111.39 122.848 1114.96 Q121.043 1118.5 121.043 1125.63 Q121.043 1132.73 122.848 1136.3 Q124.677 1139.84 128.288 1139.84 Q131.922 1139.84 133.728 1136.3 Q135.556 1132.73 135.556 1125.63 Q135.556 1118.5 133.728 1114.96 Q131.922 1111.39 128.288 1111.39 M128.288 1107.69 Q134.098 1107.69 137.154 1112.29 Q140.232 1116.88 140.232 1125.63 Q140.232 1134.35 137.154 1138.96 Q134.098 1143.54 128.288 1143.54 Q122.478 1143.54 119.399 1138.96 Q116.343 1134.35 116.343 1125.63 Q116.343 1116.88 119.399 1112.29 Q122.478 1107.69 128.288 1107.69 Z" fill="#000000" fill-rule="evenodd" fill-opacity="1" /><path clip-path="url(#clip090)" d="M148.45 1136.99 L153.334 1136.99 L153.334 1142.87 L148.45 1142.87 L148.45 1136.99 Z" fill="#000000" fill-rule="evenodd" fill-opacity="1" /><path clip-path="url(#clip090)" d="M173.519 1111.39 Q169.908 1111.39 168.079 1114.96 Q166.274 1118.5 166.274 1125.63 Q166.274 1132.73 168.079 1136.3 Q169.908 1139.84 173.519 1139.84 Q177.153 1139.84 178.959 1136.3 Q180.788 1132.73 180.788 1125.63 Q180.788 1118.5 178.959 1114.96 Q177.153 1111.39 173.519 1111.39 M173.519 1107.69 Q179.329 1107.69 182.385 1112.29 Q185.463 1116.88 185.463 1125.63 Q185.463 1134.35 182.385 1138.96 Q179.329 1143.54 173.519 1143.54 Q167.709 1143.54 164.63 1138.96 Q161.575 1134.35 161.575 1125.63 Q161.575 1116.88 164.63 1112.29 Q167.709 1107.69 173.519 1107.69 Z" fill="#000000" fill-rule="evenodd" fill-opacity="1" /><path clip-path="url(#clip090)" d="M197.709 1138.94 L214.028 1138.94 L214.028 1142.87 L192.084 1142.87 L192.084 1138.94 Q194.746 1136.18 199.329 1131.55 Q203.936 1126.9 205.116 1125.56 Q207.362 1123.03 208.241 1121.3 Q209.144 1119.54 209.144 1117.85 Q209.144 1115.09 207.199 1113.36 Q205.278 1111.62 202.176 1111.62 Q199.977 1111.62 197.524 1112.39 Q195.093 1113.15 192.315 1114.7 L192.315 1109.98 Q195.139 1108.84 197.593 1108.27 Q200.047 1107.69 202.084 1107.69 Q207.454 1107.69 210.649 1110.37 Q213.843 1113.06 213.843 1117.55 Q213.843 1119.68 213.033 1121.6 Q212.246 1123.5 210.139 1126.09 Q209.561 1126.76 206.459 1129.98 Q203.357 1133.17 197.709 1138.94 Z" fill="#000000" fill-rule="evenodd" fill-opacity="1" /><path clip-path="url(#clip090)" d="M126.205 849.763 Q122.593 849.763 120.765 853.328 Q118.959 856.869 118.959 863.999 Q118.959 871.105 120.765 874.67 Q122.593 878.212 126.205 878.212 Q129.839 878.212 131.644 874.67 Q133.473 871.105 133.473 863.999 Q133.473 856.869 131.644 853.328 Q129.839 849.763 126.205 849.763 M126.205 846.059 Q132.015 846.059 135.07 850.666 Q138.149 855.249 138.149 863.999 Q138.149 872.726 135.07 877.332 Q132.015 881.915 126.205 881.915 Q120.394 881.915 117.316 877.332 Q114.26 872.726 114.26 863.999 Q114.26 855.249 117.316 850.666 Q120.394 846.059 126.205 846.059 Z" fill="#000000" fill-rule="evenodd" fill-opacity="1" /><path clip-path="url(#clip090)" d="M146.366 875.365 L151.251 875.365 L151.251 881.244 L146.366 881.244 L146.366 875.365 Z" fill="#000000" fill-rule="evenodd" fill-opacity="1" /><path clip-path="url(#clip090)" d="M171.436 849.763 Q167.825 849.763 165.996 853.328 Q164.19 856.869 164.19 863.999 Q164.19 871.105 165.996 874.67 Q167.825 878.212 171.436 878.212 Q175.07 878.212 176.876 874.67 Q178.704 871.105 178.704 863.999 Q178.704 856.869 176.876 853.328 Q175.07 849.763 171.436 849.763 M171.436 846.059 Q177.246 846.059 180.301 850.666 Q183.38 855.249 183.38 863.999 Q183.38 872.726 180.301 877.332 Q177.246 881.915 171.436 881.915 Q165.626 881.915 162.547 877.332 Q159.491 872.726 159.491 863.999 Q159.491 855.249 162.547 850.666 Q165.626 846.059 171.436 846.059 Z" fill="#000000" fill-rule="evenodd" fill-opacity="1" /><path clip-path="url(#clip090)" d="M204.445 850.758 L192.639 869.207 L204.445 869.207 L204.445 850.758 M203.218 846.684 L209.098 846.684 L209.098 869.207 L214.028 869.207 L214.028 873.096 L209.098 873.096 L209.098 881.244 L204.445 881.244 L204.445 873.096 L188.843 873.096 L188.843 868.582 L203.218 846.684 Z" fill="#000000" fill-rule="evenodd" fill-opacity="1" /><path clip-path="url(#clip090)" d="M126.529 588.135 Q122.918 588.135 121.089 591.7 Q119.283 595.241 119.283 602.371 Q119.283 609.477 121.089 613.042 Q122.918 616.584 126.529 616.584 Q130.163 616.584 131.968 613.042 Q133.797 609.477 133.797 602.371 Q133.797 595.241 131.968 591.7 Q130.163 588.135 126.529 588.135 M126.529 584.431 Q132.339 584.431 135.394 589.038 Q138.473 593.621 138.473 602.371 Q138.473 611.098 135.394 615.704 Q132.339 620.287 126.529 620.287 Q120.718 620.287 117.64 615.704 Q114.584 611.098 114.584 602.371 Q114.584 593.621 117.64 589.038 Q120.718 584.431 126.529 584.431 Z" fill="#000000" fill-rule="evenodd" fill-opacity="1" /><path clip-path="url(#clip090)" d="M146.691 613.737 L151.575 613.737 L151.575 619.616 L146.691 619.616 L146.691 613.737 Z" fill="#000000" fill-rule="evenodd" fill-opacity="1" /><path clip-path="url(#clip090)" d="M171.76 588.135 Q168.149 588.135 166.32 591.7 Q164.515 595.241 164.515 602.371 Q164.515 609.477 166.32 613.042 Q168.149 616.584 171.76 616.584 Q175.394 616.584 177.2 613.042 Q179.028 609.477 179.028 602.371 Q179.028 595.241 177.2 591.7 Q175.394 588.135 171.76 588.135 M171.76 584.431 Q177.57 584.431 180.626 589.038 Q183.704 593.621 183.704 602.371 Q183.704 611.098 180.626 615.704 Q177.57 620.287 171.76 620.287 Q165.95 620.287 162.871 615.704 Q159.815 611.098 159.815 602.371 Q159.815 593.621 162.871 589.038 Q165.95 584.431 171.76 584.431 Z" fill="#000000" fill-rule="evenodd" fill-opacity="1" /><path clip-path="url(#clip090)" d="M202.5 600.473 Q199.352 600.473 197.5 602.626 Q195.672 604.778 195.672 608.528 Q195.672 612.255 197.5 614.431 Q199.352 616.584 202.5 616.584 Q205.649 616.584 207.477 614.431 Q209.329 612.255 209.329 608.528 Q209.329 604.778 207.477 602.626 Q205.649 600.473 202.5 600.473 M211.783 585.82 L211.783 590.079 Q210.024 589.246 208.218 588.806 Q206.436 588.366 204.676 588.366 Q200.047 588.366 197.593 591.491 Q195.163 594.616 194.815 600.936 Q196.181 598.922 198.241 597.857 Q200.301 596.769 202.778 596.769 Q207.987 596.769 210.996 599.94 Q214.028 603.088 214.028 608.528 Q214.028 613.852 210.88 617.07 Q207.732 620.287 202.5 620.287 Q196.505 620.287 193.334 615.704 Q190.163 611.098 190.163 602.371 Q190.163 594.176 194.051 589.315 Q197.94 584.431 204.491 584.431 Q206.25 584.431 208.033 584.778 Q209.838 585.126 211.783 585.82 Z" fill="#000000" fill-rule="evenodd" fill-opacity="1" /><path clip-path="url(#clip090)" d="M126.783 326.507 Q123.172 326.507 121.343 330.072 Q119.538 333.613 119.538 340.743 Q119.538 347.849 121.343 351.414 Q123.172 354.956 126.783 354.956 Q130.417 354.956 132.223 351.414 Q134.052 347.849 134.052 340.743 Q134.052 333.613 132.223 330.072 Q130.417 326.507 126.783 326.507 M126.783 322.803 Q132.593 322.803 135.649 327.41 Q138.728 331.993 138.728 340.743 Q138.728 349.47 135.649 354.076 Q132.593 358.659 126.783 358.659 Q120.973 358.659 117.894 354.076 Q114.839 349.47 114.839 340.743 Q114.839 331.993 117.894 327.41 Q120.973 322.803 126.783 322.803 Z" fill="#000000" fill-rule="evenodd" fill-opacity="1" /><path clip-path="url(#clip090)" d="M146.945 352.109 L151.829 352.109 L151.829 357.988 L146.945 357.988 L146.945 352.109 Z" fill="#000000" fill-rule="evenodd" fill-opacity="1" /><path clip-path="url(#clip090)" d="M172.014 326.507 Q168.403 326.507 166.575 330.072 Q164.769 333.613 164.769 340.743 Q164.769 347.849 166.575 351.414 Q168.403 354.956 172.014 354.956 Q175.649 354.956 177.454 351.414 Q179.283 347.849 179.283 340.743 Q179.283 333.613 177.454 330.072 Q175.649 326.507 172.014 326.507 M172.014 322.803 Q177.825 322.803 180.88 327.41 Q183.959 331.993 183.959 340.743 Q183.959 349.47 180.88 354.076 Q177.825 358.659 172.014 358.659 Q166.204 358.659 163.126 354.076 Q160.07 349.47 160.07 340.743 Q160.07 331.993 163.126 327.41 Q166.204 322.803 172.014 322.803 Z" fill="#000000" fill-rule="evenodd" fill-opacity="1" /><path clip-path="url(#clip090)" d="M202.176 341.576 Q198.843 341.576 196.922 343.359 Q195.024 345.141 195.024 348.266 Q195.024 351.391 196.922 353.173 Q198.843 354.956 202.176 354.956 Q205.51 354.956 207.431 353.173 Q209.352 351.368 209.352 348.266 Q209.352 345.141 207.431 343.359 Q205.533 341.576 202.176 341.576 M197.5 339.585 Q194.491 338.845 192.801 336.785 Q191.135 334.724 191.135 331.761 Q191.135 327.618 194.075 325.211 Q197.037 322.803 202.176 322.803 Q207.338 322.803 210.278 325.211 Q213.218 327.618 213.218 331.761 Q213.218 334.724 211.528 336.785 Q209.861 338.845 206.875 339.585 Q210.255 340.372 212.13 342.664 Q214.028 344.956 214.028 348.266 Q214.028 353.289 210.949 355.974 Q207.894 358.659 202.176 358.659 Q196.459 358.659 193.38 355.974 Q190.325 353.289 190.325 348.266 Q190.325 344.956 192.223 342.664 Q194.121 340.372 197.5 339.585 M195.787 332.201 Q195.787 334.886 197.454 336.391 Q199.144 337.896 202.176 337.896 Q205.186 337.896 206.875 336.391 Q208.588 334.886 208.588 332.201 Q208.588 329.516 206.875 328.011 Q205.186 326.507 202.176 326.507 Q199.144 326.507 197.454 328.011 Q195.787 329.516 195.787 332.201 Z" fill="#000000" fill-rule="evenodd" fill-opacity="1" /><path clip-path="url(#clip090)" d="M27.2366 806.044 Q28.6537 806.044 29.7164 807.204 Q30.747 808.331 30.747 809.555 Q30.747 810.682 30.0707 811.391 Q29.3622 812.067 28.3638 812.067 Q27.0434 812.067 25.9484 810.94 Q24.8534 809.812 24.8534 808.492 Q24.8534 807.397 25.5297 806.721 Q26.206 806.044 27.2366 806.044 M59.0238 805.465 Q59.2814 805.465 60.312 805.755 Q61.3104 806.044 62.8563 806.753 Q64.37 807.429 65.787 808.363 Q67.2041 809.297 68.2024 810.843 Q69.2008 812.357 69.2008 814.096 Q69.2008 816.447 67.6549 817.993 Q66.1091 819.506 63.7902 819.506 Q62.5342 819.506 58.5085 817.993 Q46.7856 813.613 46.3025 813.452 Q44.4667 812.711 42.8564 812.711 Q42.1157 812.711 41.6648 812.872 Q41.1817 813.033 41.0207 813.355 Q40.8275 813.677 40.7953 813.87 Q40.7631 814.031 40.7631 814.354 Q40.7631 816.254 42.6954 818.025 Q44.6278 819.796 48.9433 821.02 Q49.7485 821.278 49.9417 821.439 Q50.135 821.6 50.135 822.083 Q50.1028 822.888 49.4586 822.888 Q49.2654 822.888 48.5247 822.663 Q47.7517 822.437 46.5923 822.018 Q45.4007 821.6 44.1769 820.859 Q42.9208 820.118 41.8258 819.217 Q40.7308 818.283 40.0223 816.962 Q39.3138 815.642 39.3138 814.16 Q39.3138 811.745 40.8919 810.263 Q42.4378 808.75 44.7244 808.75 Q45.9804 808.75 48.2026 809.619 Q51.1011 810.682 52.0351 811.069 L58.9594 813.645 Q61.4714 814.579 62.2444 814.869 Q62.9851 815.126 63.8869 815.352 Q64.7564 815.545 65.5616 815.545 Q66.6888 815.545 67.2041 815.191 Q67.7194 814.804 67.7194 813.967 Q67.7194 811.648 65.4327 809.941 Q63.1139 808.234 59.5713 807.236 Q59.4747 807.204 59.3136 807.172 Q58.5085 806.914 58.4119 806.656 Q58.3797 806.527 58.3797 806.27 Q58.3797 805.465 59.0238 805.465 Z" fill="#000000" fill-rule="evenodd" fill-opacity="1" /><path clip-path="url(#clip090)" d="M51.9707 794.824 Q40.8275 794.824 31.842 790.669 Q28.0739 788.898 24.9178 786.418 Q21.7616 783.938 20.3767 782.296 Q18.9919 780.653 18.9919 780.202 Q18.9919 779.558 19.636 779.526 Q19.9581 779.526 20.7632 780.395 Q31.5844 791.023 51.9707 790.991 Q72.4214 790.991 82.8239 780.653 Q83.9511 779.526 84.3054 779.526 Q84.9495 779.526 84.9495 780.202 Q84.9495 780.653 83.6291 782.231 Q82.3086 783.809 79.2813 786.257 Q76.2539 788.705 72.5502 790.476 Q63.5648 794.824 51.9707 794.824 Z" fill="#000000" fill-rule="evenodd" fill-opacity="1" /><path clip-path="url(#clip090)" d="M40.7631 754.255 Q41.6648 754.255 41.8903 754.673 Q42.0835 755.092 42.0835 756.252 L42.0835 762.435 L61.5358 767.33 Q63.2427 767.717 64.692 767.717 Q66.3023 767.717 67.0108 767.234 Q67.7194 766.718 67.7194 765.656 Q67.7194 763.562 65.8192 761.308 Q63.9191 759.021 59.2814 757.089 Q58.6695 756.831 58.5407 756.702 Q58.3797 756.541 58.3797 756.123 Q58.3797 755.318 59.0238 755.318 Q59.2492 755.318 60.2798 755.768 Q61.3104 756.187 62.8241 757.121 Q64.3377 758.023 65.7548 759.215 Q67.1719 760.374 68.2024 762.145 Q69.2008 763.917 69.2008 765.817 Q69.2008 768.49 67.4939 770.197 Q65.787 771.871 63.1139 771.871 Q62.2444 771.871 59.4747 771.195 Q56.6727 770.519 42.0835 766.847 L42.0835 772.677 Q42.0835 773.482 42.0513 773.804 Q42.0191 774.094 41.8581 774.319 Q41.6648 774.512 41.2783 774.512 Q40.6664 774.512 40.4088 774.255 Q40.1189 773.997 40.0867 773.675 Q40.0223 773.321 40.0223 772.516 L40.0223 766.332 L29.5554 763.756 Q28.5248 763.498 27.9451 762.854 Q27.3332 762.177 27.2688 761.791 Q27.1722 761.405 27.1722 761.115 Q27.1722 760.245 27.6553 759.73 Q28.1062 759.215 28.9435 759.215 Q29.3944 759.215 40.0223 761.92 L40.0223 756.123 Q40.0223 755.382 40.0545 755.092 Q40.0867 754.77 40.2478 754.512 Q40.4088 754.255 40.7631 754.255 Z" fill="#000000" fill-rule="evenodd" fill-opacity="1" /><path clip-path="url(#clip090)" d="M84.3054 749.091 Q83.9833 749.091 83.1782 748.254 Q72.357 737.626 51.9707 737.626 Q31.52 737.626 21.1819 747.835 Q19.9903 749.091 19.636 749.091 Q18.9919 749.091 18.9919 748.447 Q18.9919 747.996 20.3123 746.418 Q21.6328 744.808 24.6601 742.393 Q27.6875 739.945 31.3911 738.141 Q40.3766 733.794 51.9707 733.794 Q63.1139 733.794 72.0994 737.948 Q75.8674 739.719 79.0236 742.199 Q82.1798 744.679 83.5646 746.322 Q84.9495 747.964 84.9495 748.447 Q84.9495 749.091 84.3054 749.091 Z" fill="#000000" fill-rule="evenodd" fill-opacity="1" /><path clip-path="url(#clip090)" d="M871.976 12.096 L882.994 12.096 L909.811 62.6918 L909.811 12.096 L917.751 12.096 L917.751 72.576 L906.733 72.576 L879.916 21.9802 L879.916 72.576 L871.976 72.576 L871.976 12.096 Z" fill="#000000" fill-rule="evenodd" fill-opacity="1" /><path clip-path="url(#clip090)" d="M932.942 54.671 L932.942 27.2059 L940.396 27.2059 L940.396 54.3874 Q940.396 60.8284 942.907 64.0691 Q945.419 67.2693 950.442 67.2693 Q956.478 67.2693 959.962 63.421 Q963.486 59.5726 963.486 52.9291 L963.486 27.2059 L970.94 27.2059 L970.94 72.576 L963.486 72.576 L963.486 65.6084 Q960.772 69.7404 957.166 71.7658 Q953.602 73.7508 948.862 73.7508 Q941.044 73.7508 936.993 68.8897 Q932.942 64.0286 932.942 54.671 M951.698 26.1121 L951.698 26.1121 Z" fill="#000000" fill-rule="evenodd" fill-opacity="1" /><path clip-path="url(#clip090)" d="M1021.62 35.9153 Q1024.41 30.8922 1028.3 28.5022 Q1032.19 26.1121 1037.46 26.1121 Q1044.54 26.1121 1048.39 31.0947 Q1052.24 36.0368 1052.24 45.1919 L1052.24 72.576 L1044.75 72.576 L1044.75 45.4349 Q1044.75 38.913 1042.44 35.7533 Q1040.13 32.5936 1035.39 32.5936 Q1029.6 32.5936 1026.23 36.4419 Q1022.87 40.2903 1022.87 46.9338 L1022.87 72.576 L1015.38 72.576 L1015.38 45.4349 Q1015.38 38.8725 1013.07 35.7533 Q1010.76 32.5936 1005.94 32.5936 Q1000.23 32.5936 996.865 36.4824 Q993.503 40.3308 993.503 46.9338 L993.503 72.576 L986.009 72.576 L986.009 27.2059 L993.503 27.2059 L993.503 34.2544 Q996.055 30.082 999.62 28.0971 Q1003.18 26.1121 1008.09 26.1121 Q1013.03 26.1121 1016.47 28.6237 Q1019.96 31.1352 1021.62 35.9153 Z" fill="#000000" fill-rule="evenodd" fill-opacity="1" /><path clip-path="url(#clip090)" d="M1099.68 49.9314 Q1099.68 41.7081 1096.27 37.0496 Q1092.91 32.3505 1087 32.3505 Q1081.08 32.3505 1077.68 37.0496 Q1074.32 41.7081 1074.32 49.9314 Q1074.32 58.1548 1077.68 62.8538 Q1081.08 67.5124 1087 67.5124 Q1092.91 67.5124 1096.27 62.8538 Q1099.68 58.1548 1099.68 49.9314 M1074.32 34.0924 Q1076.67 30.0415 1080.23 28.0971 Q1083.84 26.1121 1088.82 26.1121 Q1097.08 26.1121 1102.23 32.6746 Q1107.41 39.2371 1107.41 49.9314 Q1107.41 60.6258 1102.23 67.1883 Q1097.08 73.7508 1088.82 73.7508 Q1083.84 73.7508 1080.23 71.8063 Q1076.67 69.8214 1074.32 65.7705 L1074.32 72.576 L1066.82 72.576 L1066.82 9.54393 L1074.32 9.54393 L1074.32 34.0924 Z" fill="#000000" fill-rule="evenodd" fill-opacity="1" /><path clip-path="url(#clip090)" d="M1158.58 48.0275 L1158.58 51.6733 L1124.31 51.6733 Q1124.79 59.3701 1128.92 63.421 Q1133.1 67.4314 1140.51 67.4314 Q1144.8 67.4314 1148.81 66.3781 Q1152.87 65.3249 1156.84 63.2184 L1156.84 70.267 Q1152.83 71.9684 1148.61 72.8596 Q1144.4 73.7508 1140.06 73.7508 Q1129.21 73.7508 1122.85 67.4314 Q1116.53 61.1119 1116.53 50.3365 Q1116.53 39.1965 1122.52 32.6746 Q1128.56 26.1121 1138.77 26.1121 Q1147.92 26.1121 1153.23 32.0264 Q1158.58 37.9003 1158.58 48.0275 M1151.12 45.84 Q1151.04 39.7232 1147.68 36.0774 Q1144.36 32.4315 1138.85 32.4315 Q1132.61 32.4315 1128.84 35.9558 Q1125.12 39.4801 1124.55 45.8805 L1151.12 45.84 Z" fill="#000000" fill-rule="evenodd" fill-opacity="1" /><path clip-path="url(#clip090)" d="M1197.1 34.1734 Q1195.85 33.4443 1194.35 33.1202 Q1192.89 32.7556 1191.11 32.7556 Q1184.79 32.7556 1181.38 36.8875 Q1178.02 40.9789 1178.02 48.6757 L1178.02 72.576 L1170.53 72.576 L1170.53 27.2059 L1178.02 27.2059 L1178.02 34.2544 Q1180.37 30.1225 1184.14 28.1376 Q1187.91 26.1121 1193.29 26.1121 Q1194.06 26.1121 1195 26.2337 Q1195.93 26.3147 1197.06 26.5172 L1197.1 34.1734 Z" fill="#000000" fill-rule="evenodd" fill-opacity="1" /><path clip-path="url(#clip090)" d="M1248.87 32.4315 Q1242.88 32.4315 1239.39 37.1306 Q1235.91 41.7891 1235.91 49.9314 Q1235.91 58.0738 1239.35 62.7728 Q1242.84 67.4314 1248.87 67.4314 Q1254.83 67.4314 1258.31 62.7323 Q1261.79 58.0333 1261.79 49.9314 Q1261.79 41.8701 1258.31 37.1711 Q1254.83 32.4315 1248.87 32.4315 M1248.87 26.1121 Q1258.59 26.1121 1264.14 32.4315 Q1269.69 38.7509 1269.69 49.9314 Q1269.69 61.0714 1264.14 67.4314 Q1258.59 73.7508 1248.87 73.7508 Q1239.11 73.7508 1233.56 67.4314 Q1228.05 61.0714 1228.05 49.9314 Q1228.05 38.7509 1233.56 32.4315 Q1239.11 26.1121 1248.87 26.1121 Z" fill="#000000" fill-rule="evenodd" fill-opacity="1" /><path clip-path="url(#clip090)" d="M1305.02 9.54393 L1305.02 15.7418 L1297.89 15.7418 Q1293.88 15.7418 1292.3 17.3622 Q1290.76 18.9825 1290.76 23.1955 L1290.76 27.2059 L1303.03 27.2059 L1303.03 32.9987 L1290.76 32.9987 L1290.76 72.576 L1283.26 72.576 L1283.26 32.9987 L1276.13 32.9987 L1276.13 27.2059 L1283.26 27.2059 L1283.26 24.0462 Q1283.26 16.471 1286.79 13.0277 Q1290.31 9.54393 1297.97 9.54393 L1305.02 9.54393 Z" fill="#000000" fill-rule="evenodd" fill-opacity="1" /><path clip-path="url(#clip090)" d="M1337.95 12.096 L1346.13 12.096 L1346.13 72.576 L1337.95 72.576 L1337.95 12.096 Z" fill="#000000" fill-rule="evenodd" fill-opacity="1" /><path clip-path="url(#clip090)" d="M1399.81 45.1919 L1399.81 72.576 L1392.36 72.576 L1392.36 45.4349 Q1392.36 38.994 1389.84 35.7938 Q1387.33 32.5936 1382.31 32.5936 Q1376.27 32.5936 1372.79 36.4419 Q1369.31 40.2903 1369.31 46.9338 L1369.31 72.576 L1361.81 72.576 L1361.81 27.2059 L1369.31 27.2059 L1369.31 34.2544 Q1371.98 30.163 1375.58 28.1376 Q1379.23 26.1121 1383.97 26.1121 Q1391.79 26.1121 1395.8 30.9732 Q1399.81 35.7938 1399.81 45.1919 Z" fill="#000000" fill-rule="evenodd" fill-opacity="1" /><path clip-path="url(#clip090)" d="M1437.64 9.54393 L1437.64 15.7418 L1430.51 15.7418 Q1426.5 15.7418 1424.92 17.3622 Q1423.39 18.9825 1423.39 23.1955 L1423.39 27.2059 L1435.66 27.2059 L1435.66 32.9987 L1423.39 32.9987 L1423.39 72.576 L1415.89 72.576 L1415.89 32.9987 L1408.76 32.9987 L1408.76 27.2059 L1415.89 27.2059 L1415.89 24.0462 Q1415.89 16.471 1419.42 13.0277 Q1422.94 9.54393 1430.6 9.54393 L1437.64 9.54393 Z" fill="#000000" fill-rule="evenodd" fill-opacity="1" /><path clip-path="url(#clip090)" d="M1482.69 48.0275 L1482.69 51.6733 L1448.42 51.6733 Q1448.91 59.3701 1453.04 63.421 Q1457.21 67.4314 1464.62 67.4314 Q1468.92 67.4314 1472.93 66.3781 Q1476.98 65.3249 1480.95 63.2184 L1480.95 70.267 Q1476.94 71.9684 1472.73 72.8596 Q1468.51 73.7508 1464.18 73.7508 Q1453.32 73.7508 1446.96 67.4314 Q1440.64 61.1119 1440.64 50.3365 Q1440.64 39.1965 1446.64 32.6746 Q1452.67 26.1121 1462.88 26.1121 Q1472.04 26.1121 1477.34 32.0264 Q1482.69 37.9003 1482.69 48.0275 M1475.24 45.84 Q1475.16 39.7232 1471.79 36.0774 Q1468.47 32.4315 1462.96 32.4315 Q1456.72 32.4315 1452.96 35.9558 Q1449.23 39.4801 1448.66 45.8805 L1475.24 45.84 Z" fill="#000000" fill-rule="evenodd" fill-opacity="1" /><path clip-path="url(#clip090)" d="M1527.57 28.9478 L1527.57 35.9153 Q1524.41 34.1734 1521.21 33.3227 Q1518.05 32.4315 1514.81 32.4315 Q1507.56 32.4315 1503.55 37.0496 Q1499.54 41.6271 1499.54 49.9314 Q1499.54 58.2358 1503.55 62.8538 Q1507.56 67.4314 1514.81 67.4314 Q1518.05 67.4314 1521.21 66.5807 Q1524.41 65.6895 1527.57 63.9476 L1527.57 70.8341 Q1524.46 72.2924 1521.09 73.0216 Q1517.77 73.7508 1514 73.7508 Q1503.75 73.7508 1497.72 67.3098 Q1491.68 60.8689 1491.68 49.9314 Q1491.68 38.832 1497.76 32.472 Q1503.88 26.1121 1514.49 26.1121 Q1517.93 26.1121 1521.21 26.8413 Q1524.5 27.5299 1527.57 28.9478 Z" fill="#000000" fill-rule="evenodd" fill-opacity="1" /><path clip-path="url(#clip090)" d="M1547.91 14.324 L1547.91 27.2059 L1563.26 27.2059 L1563.26 32.9987 L1547.91 32.9987 L1547.91 57.6282 Q1547.91 63.1779 1549.41 64.7578 Q1550.95 66.3376 1555.61 66.3376 L1563.26 66.3376 L1563.26 72.576 L1555.61 72.576 Q1546.98 72.576 1543.7 69.3758 Q1540.42 66.1351 1540.42 57.6282 L1540.42 32.9987 L1534.95 32.9987 L1534.95 27.2059 L1540.42 27.2059 L1540.42 14.324 L1547.91 14.324 Z" fill="#000000" fill-rule="evenodd" fill-opacity="1" /><path clip-path="url(#clip090)" d="M1573.07 27.2059 L1580.52 27.2059 L1580.52 72.576 L1573.07 72.576 L1573.07 27.2059 M1573.07 9.54393 L1580.52 9.54393 L1580.52 18.9825 L1573.07 18.9825 L1573.07 9.54393 Z" fill="#000000" fill-rule="evenodd" fill-opacity="1" /><path clip-path="url(#clip090)" d="M1613.7 32.4315 Q1607.7 32.4315 1604.22 37.1306 Q1600.73 41.7891 1600.73 49.9314 Q1600.73 58.0738 1604.18 62.7728 Q1607.66 67.4314 1613.7 67.4314 Q1619.65 67.4314 1623.14 62.7323 Q1626.62 58.0333 1626.62 49.9314 Q1626.62 41.8701 1623.14 37.1711 Q1619.65 32.4315 1613.7 32.4315 M1613.7 26.1121 Q1623.42 26.1121 1628.97 32.4315 Q1634.52 38.7509 1634.52 49.9314 Q1634.52 61.0714 1628.97 67.4314 Q1623.42 73.7508 1613.7 73.7508 Q1603.93 73.7508 1598.38 67.4314 Q1592.87 61.0714 1592.87 49.9314 Q1592.87 38.7509 1598.38 32.4315 Q1603.93 26.1121 1613.7 26.1121 Z" fill="#000000" fill-rule="evenodd" fill-opacity="1" /><path clip-path="url(#clip090)" d="M1684.59 45.1919 L1684.59 72.576 L1677.13 72.576 L1677.13 45.4349 Q1677.13 38.994 1674.62 35.7938 Q1672.11 32.5936 1667.09 32.5936 Q1661.05 32.5936 1657.57 36.4419 Q1654.08 40.2903 1654.08 46.9338 L1654.08 72.576 L1646.59 72.576 L1646.59 27.2059 L1654.08 27.2059 L1654.08 34.2544 Q1656.76 30.163 1660.36 28.1376 Q1664.01 26.1121 1668.75 26.1121 Q1676.57 26.1121 1680.58 30.9732 Q1684.59 35.7938 1684.59 45.1919 Z" fill="#000000" fill-rule="evenodd" fill-opacity="1" /><path clip-path="url(#clip090)" d="M1728.38 28.5427 L1728.38 35.5912 Q1725.22 33.9709 1721.82 33.1607 Q1718.41 32.3505 1714.77 32.3505 Q1709.22 32.3505 1706.42 34.0519 Q1703.67 35.7533 1703.67 39.156 Q1703.67 41.7486 1705.65 43.2475 Q1707.64 44.7058 1713.63 46.0426 L1716.18 46.6097 Q1724.12 48.3111 1727.45 51.4303 Q1730.81 54.509 1730.81 60.0587 Q1730.81 66.3781 1725.79 70.0644 Q1720.8 73.7508 1712.05 73.7508 Q1708.41 73.7508 1704.44 73.0216 Q1700.51 72.3329 1696.13 70.9151 L1696.13 63.2184 Q1700.26 65.3654 1704.27 66.4591 Q1708.29 67.5124 1712.21 67.5124 Q1717.48 67.5124 1720.32 65.73 Q1723.15 63.9071 1723.15 60.6258 Q1723.15 57.5877 1721.09 55.9673 Q1719.06 54.3469 1712.13 52.8481 L1709.54 52.2405 Q1702.61 50.7821 1699.54 47.7845 Q1696.46 44.7463 1696.46 39.4801 Q1696.46 33.0797 1700.99 29.5959 Q1705.53 26.1121 1713.88 26.1121 Q1718.01 26.1121 1721.65 26.7198 Q1725.3 27.3274 1728.38 28.5427 Z" fill="#000000" fill-rule="evenodd" fill-opacity="1" /><polyline clip-path="url(#clip092)" style="stroke:#009af9; stroke-linecap:butt; stroke-linejoin:round; stroke-width:4; stroke-opacity:1; fill:none" points="
  250.028,1386.23 250.085,1386.23 250.098,1386.23 250.113,1386.23 250.131,1386.23 250.15,1386.23 250.171,1386.23 250.196,1386.23 250.223,1386.23 250.254,1386.23 
  250.289,1386.23 250.328,1386.23 250.372,1386.23 250.421,1386.23 250.477,1386.23 250.539,1386.23 250.61,1386.23 250.689,1386.23 250.778,1386.23 250.878,1386.24 
  250.991,1386.24 251.118,1386.24 251.26,1386.24 251.421,1386.24 251.601,1386.24 251.804,1386.24 252.029,1386.24 252.274,1386.24 252.538,1386.25 252.818,1386.25 
  253.113,1386.25 253.421,1386.25 253.74,1386.25 254.071,1386.26 254.41,1386.26 254.759,1386.26 255.117,1386.26 255.482,1386.27 255.855,1386.27 256.234,1386.27 
  256.619,1386.27 257.011,1386.28 257.407,1386.28 257.808,1386.28 258.216,1386.28 258.629,1386.28 259.047,1386.29 259.468,1386.29 259.898,1386.29 260.335,1386.29 
  260.779,1386.3 261.23,1386.3 261.686,1386.3 262.149,1386.3 262.623,1386.3 263.103,1386.31 263.591,1386.31 264.084,1386.31 264.582,1386.31 265.087,1386.31 
  265.598,1386.32 266.115,1386.32 266.642,1386.32 267.175,1386.32 267.712,1386.32 268.259,1386.32 268.815,1386.33 269.377,1386.33 269.943,1386.33 270.515,1386.33 
  271.092,1386.33 271.675,1386.33 272.268,1386.34 272.87,1386.34 273.479,1386.34 274.093,1386.34 274.717,1386.34 275.352,1386.34 275.995,1386.34 276.647,1386.34 
  277.306,1386.35 277.976,1386.35 278.653,1386.35 279.333,1386.35 280.019,1386.35 280.715,1386.35 281.418,1386.35 282.136,1386.35 282.869,1386.35 283.625,1386.35 
  284.391,1386.35 285.158,1386.35 285.935,1386.36 286.729,1386.36 287.533,1386.36 288.354,1386.36 289.185,1386.36 290.016,1386.36 290.845,1386.36 291.684,1386.36 
  292.523,1386.36 293.37,1386.36 294.236,1386.36 295.1,1386.36 295.963,1386.36 296.818,1386.36 297.658,1386.36 298.512,1386.36 299.368,1386.36 300.219,1386.36 
  301.054,1386.36 301.869,1386.36 302.679,1386.37 303.488,1386.37 304.293,1386.37 305.11,1386.37 305.937,1386.37 306.775,1386.37 307.633,1386.37 308.509,1386.37 
  309.397,1386.37 310.312,1386.37 311.247,1386.37 312.223,1386.36 313.244,1386.36 314.307,1386.36 315.414,1386.36 316.548,1386.36 317.713,1386.35 318.92,1386.35 
  320.138,1386.35 321.377,1386.35 322.671,1386.34 324.028,1386.34 325.433,1386.34 326.894,1386.33 328.432,1386.33 329.954,1386.32 331.529,1386.32 333.108,1386.31 
  334.772,1386.31 336.484,1386.3 338.295,1386.29 340.153,1386.28 342.172,1386.27 344.312,1386.26 346.411,1386.26 348.521,1386.25 350.643,1386.24 352.807,1386.23 
  355.148,1386.21 357.651,1386.2 360.025,1386.19 362.295,1386.18 364.673,1386.17 367.109,1386.15 369.793,1386.13 372.812,1386.11 376.191,1386.08 379.992,1386.05 
  384.268,1386.01 388.559,1385.98 392.641,1385.95 396.681,1385.91 400.879,1385.88 404.98,1385.84 409.141,1385.8 413.593,1385.76 417.684,1385.73 421.405,1385.71 
  424.653,1385.69 427.771,1385.66 430.785,1385.64 433.693,1385.62 436.384,1385.6 438.985,1385.59 441.543,1385.57 444.12,1385.55 446.709,1385.52 449.311,1385.5 
  451.804,1385.48 454.417,1385.46 457.103,1385.43 459.916,1385.4 462.759,1385.37 465.777,1385.34 468.87,1385.3 472.239,1385.25 476.029,1385.19 480.293,1385.13 
  484.87,1385.05 490.019,1384.96 495.463,1384.87 500.604,1384.79 505.96,1384.69 511.853,1384.56 518.482,1384.42 525.352,1384.27 532.365,1384.09 540.254,1383.87 
  549.129,1383.62 556.166,1383.43 561.752,1383.27 568.036,1383.07 575.105,1382.78 583.058,1382.45 590.36,1382.08 598.173,1381.64 604.556,1381.25 611.327,1380.78 
  617.246,1380.34 622.854,1379.91 628.973,1379.45 635.855,1378.97 643.599,1378.47 650.005,1378.04 657.212,1377.62 662.295,1377.33 667.188,1377.03 671.894,1376.73 
  676.767,1376.38 681.726,1376.06 686.317,1375.73 691.131,1375.39 695.523,1375.05 700.17,1374.65 705.397,1374.17 710.453,1373.68 716.141,1373.12 722.166,1372.41 
  728.944,1371.51 736.569,1370.3 742.415,1369.32 748.574,1368.31 755.502,1367.05 763.296,1365.5 769.792,1364.02 776.609,1362.22 782.191,1360.77 788.471,1359.14 
  795.536,1357.25 803.351,1355.14 812.144,1352.59 822.035,1349.74 833.162,1345.61 842.939,1341.07 849.928,1337.24 856.123,1333.59 861.844,1330.31 868.065,1326.66 
  874.918,1322.12 881.186,1317.88 887.725,1313.36 895.082,1308.02 903.05,1301.12 910.187,1293.99 915.93,1288.22 921.941,1282.11 927.992,1276.07 934.799,1269.35 
  942.457,1261.19 951.072,1250.66 957.838,1242.04 965.449,1232.65 974.012,1221.87 983.391,1209.45 992.742,1198.96 1000.76,1190.13 1007.47,1182.81 1012.25,1178.36 
  1016.57,1173.99 1020.72,1170.21 1024.54,1166.63 1028.09,1162.74 1031.82,1158.83 1035.45,1154.63 1039.14,1150.54 1042.76,1146.51 1046.18,1142.76 1049.65,1138.51 
  1053.12,1134.3 1056.82,1129.39 1060.41,1124.42 1064.41,1118.47 1068.46,1112.51 1072.59,1105.83 1077.07,1097.11 1082.12,1085.74 1087.55,1072.71 1092.94,1059.4 
  1098.63,1046.01 1104.38,1031.3 1110.37,1016 1116.21,1000.93 1122.26,983.792 1128.06,967.951 1133.99,951.579 1139.72,935.395 1145.5,918.54 1151.17,902.504 
  1156.76,888.083 1162.15,875.716 1167.17,863.752 1172.07,850.852 1176.93,835.79 1181.9,820.722 1186.76,804.063 1191.49,788.448 1196.16,773.582 1200.78,759.278 
  1205.32,745.96 1209.8,732.805 1214.2,718.389 1218.54,703.861 1222.78,689.567 1226.96,676.837 1231.1,662.887 1235.17,647.953 1239.12,631.761 1242.89,616.346 
  1246.44,601.085 1249.97,586.869 1253.41,574.582 1256.93,561.226 1260.34,548.764 1263.68,538.415 1267.12,528.164 1270.51,517.231 1273.88,507.28 1277.24,497.477 
  1280.59,488.695 1283.92,480.718 1287.24,472.214 1290.54,464.14 1293.83,455.65 1297.09,447.565 1300.34,441.098 1303.58,436.461 1306.77,432.809 1309.9,428.976 
  1313.01,424.072 1316.16,419.3 1319.31,414.574 1322.46,409.628 1325.61,404.363 1328.76,400.196 1331.9,396.034 1335.05,392.082 1338.19,389.691 1341.3,387.524 
  1344.41,386.126 1347.48,384.302 1350.57,381.39 1353.7,378.832 1356.83,376.881 1359.96,375.885 1363.08,374.588 1366.22,373.734 1369.37,373.594 1372.49,373.031 
  1375.64,370.724 1378.8,367.442 1381.9,363.115 1384.94,357.306 1387.81,351.107 1390.53,345.316 1393.21,339.858 1395.79,335.612 1398.39,332.322 1401.04,329.461 
  1403.69,327.163 1406.37,324.524 1408.99,322.836 1411.69,321.475 1414.39,321.274 1417.15,322.169 1420.01,324.203 1422.93,326.876 1425.9,329.825 1428.91,332.987 
  1431.97,336.783 1435.06,341.638 1438.18,348.226 1441.29,355.332 1444.37,362.143 1447.5,369.68 1450.57,377.432 1453.65,385.596 1456.71,393.925 1459.74,402.792 
  1462.77,412.002 1465.66,420.279 1468.66,429.203 1471.6,437.377 1474.68,444.784 1477.9,452.516 1481.21,461.678 1484.48,471.133 1487.73,481.372 1490.85,490.162 
  1494.16,498.831 1497.59,507.796 1501.07,516.61 1504.7,526.129 1508.35,535.935 1512.04,545.425 1515.85,556.358 1519.65,567.186 1523.41,577.807 1527.31,589.071 
  1531.19,600.077 1535.22,612.077 1539.13,625.112 1542.79,637.581 1546.23,650.068 1549.55,662.103 1552.6,673.266 1555.58,684.751 1558.31,695.671 1560.76,705.451 
  1563.11,714.443 1565.46,723.014 1567.8,731.293 1570.14,739.863 1572.37,748.047 1574.53,755.514 1576.78,763.178 1579.03,770.907 1581.25,778.104 1583.58,786.046 
  1585.8,793.633 1587.95,800.864 1590.12,808.029 1592.32,815.316 1594.47,822.028 1596.72,828.562 1599.18,835.423 1601.76,842.631 1604.39,849.83 1607.22,857.454 
  1610.11,864.999 1613.22,873.202 1616.31,881.093 1619.55,889.621 1622.7,897.494 1625.97,905.33 1629.62,913.871 1633.33,921.98 1637.5,931.388 1641.72,941.456 
  1645.54,950.493 1649.26,959.656 1652.68,967.961 1655.96,975.598 1659.35,983.562 1662.45,990.527 1665.66,997.237 1669.28,1004.71 1672.93,1011.82 1676.84,1019.51 
  1680.84,1026.54 1685.34,1033.95 1690.39,1042.1 1696.08,1051.4 1702.18,1061.55 1708.31,1071.56 1714.22,1081.22 1720.21,1091.27 1725.61,1100.43 1730.26,1108.23 
  1734.81,1115.53 1739.18,1122.04 1743.97,1128.75 1749.23,1135.74 1755.14,1143.15 1761.79,1151.41 1768.94,1160.26 1775.48,1167.9 1782.7,1176.61 1789.58,1184.25 
  1796.61,1191.74 1804.53,1199.83 1811.67,1206.85 1819.69,1214.68 1826.85,1221.45 1833.86,1227.83 1840.91,1234.26 1847.33,1240.02 1853.14,1245.03 1858.86,1249.67 
  1865.08,1254.59 1870.81,1258.93 1876.8,1263.2 1883.54,1268.06 1889.69,1272.39 1895.51,1276.33 1901.07,1280.21 1905.8,1283.32 1910.49,1286.31 1915.16,1289.19 
  1919.91,1292.17 1923.97,1294.61 1927.94,1296.89 1931.92,1299.07 1936.24,1301.34 1940.61,1303.59 1945.03,1305.73 1950.01,1308.09 1955.33,1310.59 1960.15,1312.7 
  1965.57,1314.89 1971.67,1317.14 1978.54,1319.31 1982.66,1320.52 1986.99,1321.84 1991.79,1323.24 1996.98,1324.64 2001.68,1325.91 2006.37,1327.04 2010.71,1328.03 
  2014.68,1328.92 2018.59,1329.73 2022.23,1330.46 2025.66,1331.15 2028.92,1331.83 2032.3,1332.55 2035.63,1333.23 2038.9,1333.91 2042.3,1334.65 2045.75,1335.43 
  2049.52,1336.28 2053.62,1337.12 2057.4,1337.92 2061.25,1338.76 2065.57,1339.68 2070.05,1340.57 2074.21,1341.33 2077.97,1342.03 2081.84,1342.78 2085.9,1343.59 
  2090.3,1344.49 2095.25,1345.45 2100.06,1346.38 2105.46,1347.36 2110.47,1348.24 2115.31,1349.11 2120.74,1350.08 2126.38,1351.02 2132.03,1351.88 2136.65,1352.59 
  2141.75,1353.33 2146.51,1353.98 2150.77,1354.56 2155.05,1355.14 2159.34,1355.7 2163.4,1356.22 2167.42,1356.72 2171.21,1357.19 2175.05,1357.7 2179.36,1358.31 
  2184.19,1358.99 2189.42,1359.73 2195.31,1360.57 2201.92,1361.44 2209.19,1362.3 2214.61,1362.95 2220.71,1363.65 2226.79,1364.33 2232.96,1365 2239.09,1365.59 
  2244.8,1366.11 2249.92,1366.57 2254.78,1367.01 2259.67,1367.47 2265.09,1367.95 2270.24,1368.4 2275.34,1368.84 2280.87,1369.31 2286.5,1369.77 2291.78,1370.19 
  2297.06,1370.61 2302.85,1371.03 2307.95,1371.43 2313.69,1371.85 2319.04,1372.23 2325.04,1372.63 2329.98,1372.95 2335.13,1373.3 2340.76,1373.69 2347.09,1374.11 
  2352.76,1374.49 
  "/>
<polyline clip-path="url(#clip092)" style="stroke:#e26f46; stroke-linecap:butt; stroke-linejoin:round; stroke-width:4; stroke-opacity:1; fill:none" points="
  250.028,1386.23 250.085,1386.23 250.098,1386.23 250.113,1386.23 250.131,1386.23 250.15,1386.23 250.172,1386.23 250.196,1386.23 250.224,1386.23 250.255,1386.23 
  250.289,1386.23 250.329,1386.23 250.373,1386.23 250.422,1386.23 250.478,1386.23 250.541,1386.23 250.611,1386.23 250.691,1386.23 250.78,1386.23 250.881,1386.24 
  250.994,1386.24 251.121,1386.24 251.264,1386.24 251.425,1386.24 251.606,1386.24 251.81,1386.24 252.037,1386.24 252.284,1386.24 252.55,1386.25 252.833,1386.25 
  253.132,1386.25 253.447,1386.25 253.776,1386.25 254.116,1386.26 254.469,1386.26 254.834,1386.26 255.211,1386.26 255.597,1386.26 255.991,1386.27 256.391,1386.27 
  256.801,1386.27 257.218,1386.27 257.644,1386.28 258.079,1386.28 258.519,1386.28 258.966,1386.28 259.419,1386.28 259.874,1386.29 260.334,1386.29 260.801,1386.29 
  261.271,1386.29 261.744,1386.3 262.226,1386.3 262.718,1386.3 263.217,1386.3 263.721,1386.3 264.227,1386.3 264.736,1386.31 265.243,1386.31 265.75,1386.31 
  266.256,1386.31 266.763,1386.32 267.273,1386.32 267.784,1386.32 268.291,1386.32 268.804,1386.32 269.318,1386.33 269.833,1386.33 270.351,1386.33 270.873,1386.33 
  271.401,1386.33 271.935,1386.34 272.476,1386.34 273.027,1386.34 273.585,1386.34 274.15,1386.34 274.723,1386.34 275.302,1386.35 275.889,1386.35 276.484,1386.35 
  277.085,1386.35 277.685,1386.35 278.292,1386.35 278.904,1386.35 279.525,1386.36 280.153,1386.36 280.793,1386.36 281.439,1386.36 282.091,1386.36 282.758,1386.36 
  283.43,1386.36 284.105,1386.36 284.793,1386.36 285.487,1386.37 286.177,1386.37 286.864,1386.37 287.556,1386.37 288.25,1386.37 288.942,1386.37 289.638,1386.37 
  290.331,1386.37 291.027,1386.38 291.726,1386.38 292.427,1386.38 293.126,1386.38 293.829,1386.38 294.532,1386.38 295.239,1386.38 295.954,1386.38 296.676,1386.38 
  297.406,1386.38 298.145,1386.39 298.89,1386.39 299.636,1386.39 300.382,1386.39 301.132,1386.39 301.895,1386.39 302.661,1386.39 303.443,1386.39 304.236,1386.39 
  305.021,1386.39 305.823,1386.39 306.638,1386.39 307.463,1386.39 308.297,1386.39 309.138,1386.39 309.986,1386.39 310.828,1386.39 311.662,1386.39 312.501,1386.4 
  313.354,1386.4 314.212,1386.4 315.085,1386.4 315.965,1386.4 316.866,1386.4 317.772,1386.4 318.678,1386.4 319.596,1386.39 320.549,1386.39 321.523,1386.39 
  322.513,1386.39 323.535,1386.39 324.585,1386.39 325.662,1386.39 326.776,1386.39 327.923,1386.38 329.087,1386.38 330.25,1386.38 331.424,1386.38 332.616,1386.38 
  333.813,1386.38 334.996,1386.37 336.195,1386.37 337.391,1386.37 338.631,1386.37 339.917,1386.37 341.223,1386.36 342.553,1386.36 343.905,1386.36 345.26,1386.35 
  346.639,1386.35 348.067,1386.35 349.566,1386.34 351.082,1386.34 352.641,1386.33 354.238,1386.33 355.919,1386.32 357.806,1386.31 359.775,1386.3 361.783,1386.29 
  363.893,1386.28 366.045,1386.27 368.312,1386.26 370.7,1386.25 373.197,1386.24 375.875,1386.22 378.503,1386.2 381.35,1386.19 384.396,1386.17 387.654,1386.14 
  391.142,1386.12 394.907,1386.09 399.119,1386.05 403.857,1386.01 408.681,1385.97 413.583,1385.93 418.145,1385.9 422.403,1385.86 426.721,1385.82 431.247,1385.78 
  435.748,1385.73 440.724,1385.67 446.322,1385.6 452.619,1385.52 458.851,1385.43 465.863,1385.34 472.304,1385.23 479.09,1385.12 486.724,1384.99 492.88,1384.89 
  499.285,1384.78 505.398,1384.67 511.192,1384.56 517.605,1384.43 523.655,1384.29 530.461,1384.11 538.118,1383.87 542.433,1383.72 547.287,1383.55 552.747,1383.35 
  558.891,1383.12 565.237,1382.9 572.377,1382.62 580.409,1382.29 589.446,1381.91 594.95,1381.67 601.142,1381.41 606.078,1381.21 611.14,1380.98 616.592,1380.75 
  622.027,1380.51 626.822,1380.27 632.215,1379.98 638.282,1379.65 643.841,1379.35 650.094,1379.02 655.247,1378.75 660.229,1378.47 665.342,1378.17 670.387,1377.84 
  676.063,1377.44 682.222,1376.9 689.15,1376.26 696.945,1375.47 705.714,1374.46 710.098,1373.98 715.03,1373.37 720.579,1372.68 726.821,1371.78 730.31,1371.25 
  734.235,1370.65 738.65,1369.87 743.005,1368.97 746.546,1368.24 750.41,1367.45 754.757,1366.47 758.971,1365.34 762.596,1364.32 766.147,1363.33 769.814,1362.31 
  773.568,1361.27 777.791,1360.04 781.753,1358.85 786.21,1357.48 790.914,1356.08 796.205,1354.51 802.158,1352.68 808.855,1350.5 816.39,1347.96 824.547,1345.16 
  833.724,1341.59 844.048,1337.01 852.284,1333.53 861.55,1329.51 868.202,1326.61 875.685,1323.39 882.653,1320.32 888.805,1317.23 895.726,1313.8 902.209,1310.29 
  909.485,1306.27 916.459,1302.31 923.664,1297.93 931.013,1293.27 938.838,1288.44 945.409,1284.97 951.012,1281.94 955.633,1279.52 959.903,1277.39 963.815,1275.35 
  967.513,1273.56 970.926,1272.17 973.934,1271 976.725,1269.65 979.584,1268.21 982.377,1266.77 985.177,1265.34 987.912,1263.81 990.664,1262.07 993.571,1260.18 
  996.517,1258.08 999.78,1255.66 1003.2,1252.94 1006.86,1249.96 1010.79,1246.91 1014.51,1243.89 1018.45,1240.65 1022.62,1237.29 1026.53,1234.38 1030.23,1231.74 
  1033.66,1229.29 1036.97,1226.81 1040.32,1224.46 1043.43,1222.31 1046.44,1220.24 1049.39,1218.69 1051.99,1217.23 1054.54,1215.69 1057.01,1214.11 1059.48,1212.27 
  1062.1,1210.33 1064.78,1208.38 1067.37,1206.58 1069.9,1204.83 1072.42,1203.08 1074.94,1201.35 1077.37,1199.74 1079.74,1197.93 1082.22,1195.85 1084.86,1193.63 
  1087.5,1191.33 1090.25,1188.95 1092.98,1186.61 1095.8,1184.15 1098.58,1181.93 1101.29,1179.55 1104.03,1177.07 1106.81,1174.85 1109.48,1172.67 1112.1,1170.21 
  1114.91,1167.59 1117.72,1164.92 1120.6,1161.62 1123.82,1157.7 1127.45,1153.4 1130.95,1148.88 1134.78,1143.65 1138.93,1138.08 1143.25,1132.21 1147.55,1126.77 
  1151.72,1122.06 1155.51,1118.01 1159.06,1114.23 1162.57,1110.59 1165.86,1107.03 1169.16,1102.81 1172.68,1097.79 1176.44,1092.1 1180.32,1085.73 1184.69,1077.74 
  1189.44,1069 1194.46,1059.4 1199.77,1048.64 1205.35,1035.45 1211.16,1020.39 1216.68,1006.83 1222.49,992.476 1228.41,978.329 1234.3,962.977 1240.21,946.301 
  1245.9,928.309 1251.27,910.898 1256.55,892.536 1261.35,877.555 1266.43,861.225 1271.39,846.038 1276.28,829.832 1281.09,811.1 1285.49,792.704 1289.5,774.616 
  1293.3,756.235 1296.82,738.448 1300.06,721.891 1303.17,705.406 1306.13,688.758 1308.92,672.967 1311.57,658.856 1314.21,645.156 1316.85,632.852 1319.61,619.463 
  1322.32,606.405 1324.97,594.474 1327.73,581.251 1330.43,567.519 1333.04,555.025 1335.69,542.406 1338.32,530.036 1340.97,518.048 1343.6,507.046 1346.31,495.62 
  1349.03,483.899 1351.72,473.379 1354.46,462.112 1357.2,450.814 1359.92,441.142 1362.7,430.908 1365.48,420.464 1368.23,410.464 1371,399.291 1373.68,387.738 
  1376.31,375.627 1378.81,364.337 1381.33,354.501 1383.83,345.291 1386.4,334.548 1388.84,324.437 1391.28,314.396 1393.68,304.46 1396.04,295.158 1398.39,285.352 
  1400.72,275.382 1402.95,266.547 1405.2,258.841 1407.5,251.844 1409.82,245.164 1412.15,240.33 1414.59,234.355 1417.02,227.22 1419.39,219.165 1421.67,212.026 
  1423.96,205.768 1426.28,200.698 1428.62,197.289 1431.06,193.178 1433.49,188.268 1435.89,184.067 1438.3,179.912 1440.7,177.096 1443.17,173.689 1445.62,170.392 
  1448.05,167.931 1450.51,166.127 1452.99,164.608 1455.5,163.295 1458.01,162.794 1460.56,162.565 1463.12,162.816 1465.71,161.857 1468.25,160.798 1470.79,160.256 
  1473.31,161.539 1475.91,163.343 1478.53,165.478 1481.17,168.749 1483.86,171.734 1486.55,174.472 1489.26,176.208 1491.91,177.775 1494.56,179.481 1497.2,180.066 
  1499.76,180.972 1502.29,182.438 1504.84,184.874 1507.39,188.058 1509.99,192.791 1512.66,198.647 1515.4,205.476 1518.19,212.462 1521.01,219.739 1523.87,227.716 
  1526.77,237.025 1529.7,245.713 1532.67,254.857 1535.67,263.6 1538.71,271.417 1541.74,279.196 1544.78,288.203 1547.9,298.136 1551.06,307.676 1554.25,316.76 
  1557.46,325.921 1560.68,335.514 1563.93,345.509 1567.23,355.988 1570.56,367.384 1573.96,380.362 1577.4,392.978 1580.88,403.923 1584.39,415.594 1587.93,427.494 
  1591.55,440.441 1595.23,453.88 1598.97,468.006 1602.76,482.235 1606.62,497.452 1610.47,513.068 1614.35,528.533 1618.29,543.491 1622.35,558.718 1626.5,574.272 
  1630.71,591.225 1634.87,608.002 1638.87,624.172 1642.88,640.11 1646.87,655.401 1650.98,670.2 1655.37,684.863 1659.98,701.358 1664.53,717.651 1669.1,733.748 
  1673.7,749.48 1678.5,765.476 1683.43,781.363 1688.44,796.57 1693.91,812.492 1699.48,828.043 1705.07,843.499 1711.04,859.02 1716.87,873.97 1722.93,888.415 
  1728.39,900.62 1733.67,912.307 1738.56,922.956 1743.64,934.235 1748.64,945.634 1754.26,957.449 1759.36,968.436 1764.7,979.781 1770.07,991.22 1776.03,1003.22 
  1781.72,1014.1 1786.89,1024.17 1792.53,1034.77 1798.44,1045.88 1804.24,1056.9 1810.77,1068.97 1817.54,1080.65 1824.09,1091.96 1831.01,1103.25 1838.35,1115.03 
  1846.22,1127.63 1854.84,1140.8 1864.53,1154.36 1873.68,1166.8 1883.67,1179.62 1894.9,1193.25 1905.38,1205.08 1915.68,1215.71 1924.58,1224.62 1934.05,1233.61 
  1942.32,1240.5 1949.08,1246.06 1955.61,1251.02 1961.51,1255.38 1967.22,1259.49 1972.47,1263.25 1978.02,1267.02 1983.25,1270.39 1987.98,1273.24 1992.36,1275.92 
  1996.64,1278.47 2000.92,1280.88 2004.71,1283.08 2008.81,1285.41 2012.85,1287.68 2016.81,1289.87 2020.82,1292.08 2025.1,1294.44 2029.5,1296.91 2034.46,1299.55 
  2039.47,1302.09 2044.04,1304.27 2048.35,1306.33 2053.02,1308.64 2058.27,1311.22 2064.18,1314.02 2070.82,1317.08 2078.3,1320.28 2085.31,1323.27 2093.2,1326.45 
  2102.08,1329.74 2109.39,1332.41 2117.41,1335.23 2126.43,1338.24 2136.57,1341.26 2146.14,1343.86 2152.96,1345.51 2158.63,1346.83 2163.78,1348 2168.84,1349.11 
  2173.59,1350.14 2178.35,1351.15 2183.08,1352.15 2187.82,1353.1 2192.37,1354.01 2197.16,1354.93 2201.72,1355.77 2206.16,1356.56 2210.42,1357.33 2215.16,1358.19 
  2220.31,1359.14 2226.1,1360.22 2232.61,1361.4 2239.94,1362.68 2245.93,1363.72 2251.9,1364.76 2256.61,1365.56 2260.99,1366.3 2265.15,1366.96 2269.25,1367.57 
  2273.7,1368.21 2278.54,1368.89 2283.27,1369.54 2287.58,1370.12 2291.77,1370.66 2296.07,1371.18 2300.72,1371.73 2305.53,1372.27 2310.25,1372.79 2315.31,1373.33 
  2320.11,1373.83 2324.77,1374.31 2328.82,1374.7 2333.16,1375.12 2337.3,1375.49 2341.61,1375.86 2346.38,1376.27 2350.73,1376.62 2352.76,1376.79 
  "/>
<path clip-path="url(#clip090)" d="
M1773.96 322.316 L2282.66 322.316 L2282.66 166.796 L1773.96 166.796  Z
  " fill="#ffffff" fill-rule="evenodd" fill-opacity="1"/>
<polyline clip-path="url(#clip090)" style="stroke:#000000; stroke-linecap:butt; stroke-linejoin:round; stroke-width:4; stroke-opacity:1; fill:none" points="
  1773.96,322.316 2282.66,322.316 2282.66,166.796 1773.96,166.796 1773.96,322.316 
  "/>
<polyline clip-path="url(#clip090)" style="stroke:#009af9; stroke-linecap:butt; stroke-linejoin:round; stroke-width:4; stroke-opacity:1; fill:none" points="
  1797.32,218.636 1937.51,218.636 
  "/>
<path clip-path="url(#clip090)" d="M1960.87 201.356 L1990.11 201.356 L1990.11 205.291 L1977.84 205.291 L1977.84 235.916 L1973.14 235.916 L1973.14 205.291 L1960.87 205.291 L1960.87 201.356 Z" fill="#000000" fill-rule="evenodd" fill-opacity="1" /><path clip-path="url(#clip090)" d="M2002.49 213.971 Q2001.77 213.555 2000.92 213.37 Q2000.08 213.161 1999.06 213.161 Q1995.45 213.161 1993.51 215.522 Q1991.59 217.86 1991.59 222.258 L1991.59 235.916 L1987.3 235.916 L1987.3 209.99 L1991.59 209.99 L1991.59 214.018 Q1992.93 211.657 1995.08 210.522 Q1997.24 209.365 2000.31 209.365 Q2000.75 209.365 2001.29 209.434 Q2001.82 209.481 2002.47 209.596 L2002.49 213.971 Z" fill="#000000" fill-rule="evenodd" fill-opacity="1" /><path clip-path="url(#clip090)" d="M2018.74 222.883 Q2013.58 222.883 2011.59 224.064 Q2009.6 225.244 2009.6 228.092 Q2009.6 230.36 2011.08 231.703 Q2012.58 233.022 2015.15 233.022 Q2018.69 233.022 2020.82 230.522 Q2022.98 227.999 2022.98 223.832 L2022.98 222.883 L2018.74 222.883 M2027.24 221.124 L2027.24 235.916 L2022.98 235.916 L2022.98 231.981 Q2021.52 234.342 2019.34 235.476 Q2017.17 236.587 2014.02 236.587 Q2010.04 236.587 2007.68 234.365 Q2005.34 232.119 2005.34 228.369 Q2005.34 223.994 2008.25 221.772 Q2011.19 219.55 2017 219.55 L2022.98 219.55 L2022.98 219.133 Q2022.98 216.194 2021.03 214.596 Q2019.11 212.976 2015.61 212.976 Q2013.39 212.976 2011.29 213.508 Q2009.18 214.041 2007.24 215.106 L2007.24 211.17 Q2009.57 210.268 2011.77 209.828 Q2013.97 209.365 2016.05 209.365 Q2021.68 209.365 2024.46 212.282 Q2027.24 215.198 2027.24 221.124 Z" fill="#000000" fill-rule="evenodd" fill-opacity="1" /><path clip-path="url(#clip090)" d="M2036.01 209.99 L2040.27 209.99 L2040.27 236.379 Q2040.27 241.332 2038.37 243.555 Q2036.49 245.777 2032.3 245.777 L2030.68 245.777 L2030.68 242.166 L2031.82 242.166 Q2034.25 242.166 2035.13 241.031 Q2036.01 239.92 2036.01 236.379 L2036.01 209.99 M2036.01 199.897 L2040.27 199.897 L2040.27 205.291 L2036.01 205.291 L2036.01 199.897 Z" fill="#000000" fill-rule="evenodd" fill-opacity="1" /><path clip-path="url(#clip090)" d="M2071.36 221.888 L2071.36 223.971 L2051.77 223.971 Q2052.05 228.369 2054.41 230.684 Q2056.8 232.976 2061.03 232.976 Q2063.48 232.976 2065.78 232.374 Q2068.09 231.772 2070.36 230.569 L2070.36 234.596 Q2068.07 235.568 2065.66 236.078 Q2063.25 236.587 2060.78 236.587 Q2054.57 236.587 2050.94 232.976 Q2047.33 229.365 2047.33 223.207 Q2047.33 216.842 2050.75 213.115 Q2054.2 209.365 2060.04 209.365 Q2065.27 209.365 2068.3 212.745 Q2071.36 216.101 2071.36 221.888 M2067.1 220.638 Q2067.05 217.143 2065.13 215.059 Q2063.23 212.976 2060.08 212.976 Q2056.52 212.976 2054.36 214.99 Q2052.23 217.004 2051.91 220.661 L2067.1 220.638 Z" fill="#000000" fill-rule="evenodd" fill-opacity="1" /><path clip-path="url(#clip090)" d="M2097 210.985 L2097 214.967 Q2095.2 213.971 2093.37 213.485 Q2091.56 212.976 2089.71 212.976 Q2085.57 212.976 2083.28 215.615 Q2080.98 218.231 2080.98 222.976 Q2080.98 227.721 2083.28 230.36 Q2085.57 232.976 2089.71 232.976 Q2091.56 232.976 2093.37 232.49 Q2095.2 231.981 2097 230.985 L2097 234.92 Q2095.22 235.754 2093.3 236.17 Q2091.4 236.587 2089.25 236.587 Q2083.39 236.587 2079.94 232.906 Q2076.49 229.226 2076.49 222.976 Q2076.49 216.633 2079.97 212.999 Q2083.46 209.365 2089.53 209.365 Q2091.49 209.365 2093.37 209.782 Q2095.24 210.175 2097 210.985 Z" fill="#000000" fill-rule="evenodd" fill-opacity="1" /><path clip-path="url(#clip090)" d="M2108.62 202.629 L2108.62 209.99 L2117.4 209.99 L2117.4 213.3 L2108.62 213.3 L2108.62 227.374 Q2108.62 230.545 2109.48 231.448 Q2110.36 232.351 2113.02 232.351 L2117.4 232.351 L2117.4 235.916 L2113.02 235.916 Q2108.09 235.916 2106.22 234.087 Q2104.34 232.235 2104.34 227.374 L2104.34 213.3 L2101.22 213.3 L2101.22 209.99 L2104.34 209.99 L2104.34 202.629 L2108.62 202.629 Z" fill="#000000" fill-rule="evenodd" fill-opacity="1" /><path clip-path="url(#clip090)" d="M2133.04 212.976 Q2129.62 212.976 2127.63 215.661 Q2125.64 218.323 2125.64 222.976 Q2125.64 227.629 2127.6 230.314 Q2129.6 232.976 2133.04 232.976 Q2136.45 232.976 2138.44 230.291 Q2140.43 227.606 2140.43 222.976 Q2140.43 218.37 2138.44 215.684 Q2136.45 212.976 2133.04 212.976 M2133.04 209.365 Q2138.6 209.365 2141.77 212.976 Q2144.94 216.587 2144.94 222.976 Q2144.94 229.342 2141.77 232.976 Q2138.6 236.587 2133.04 236.587 Q2127.47 236.587 2124.29 232.976 Q2121.15 229.342 2121.15 222.976 Q2121.15 216.587 2124.29 212.976 Q2127.47 209.365 2133.04 209.365 Z" fill="#000000" fill-rule="evenodd" fill-opacity="1" /><path clip-path="url(#clip090)" d="M2167.03 213.971 Q2166.31 213.555 2165.45 213.37 Q2164.62 213.161 2163.6 213.161 Q2159.99 213.161 2158.04 215.522 Q2156.12 217.86 2156.12 222.258 L2156.12 235.916 L2151.84 235.916 L2151.84 209.99 L2156.12 209.99 L2156.12 214.018 Q2157.47 211.657 2159.62 210.522 Q2161.77 209.365 2164.85 209.365 Q2165.29 209.365 2165.82 209.434 Q2166.35 209.481 2167 209.596 L2167.03 213.971 Z" fill="#000000" fill-rule="evenodd" fill-opacity="1" /><path clip-path="url(#clip090)" d="M2182.28 238.323 Q2180.48 242.953 2178.76 244.365 Q2177.05 245.777 2174.18 245.777 L2170.78 245.777 L2170.78 242.212 L2173.28 242.212 Q2175.04 242.212 2176.01 241.379 Q2176.98 240.545 2178.16 237.443 L2178.92 235.499 L2168.44 209.99 L2172.95 209.99 L2181.05 230.268 L2189.16 209.99 L2193.67 209.99 L2182.28 238.323 Z" fill="#000000" fill-rule="evenodd" fill-opacity="1" /><path clip-path="url(#clip090)" d="M2216.03 231.981 L2223.67 231.981 L2223.67 205.615 L2215.36 207.282 L2215.36 203.022 L2223.62 201.356 L2228.3 201.356 L2228.3 231.981 L2235.94 231.981 L2235.94 235.916 L2216.03 235.916 L2216.03 231.981 Z" fill="#000000" fill-rule="evenodd" fill-opacity="1" /><polyline clip-path="url(#clip090)" style="stroke:#e26f46; stroke-linecap:butt; stroke-linejoin:round; stroke-width:4; stroke-opacity:1; fill:none" points="
  1797.32,270.476 1937.51,270.476 
  "/>
<path clip-path="url(#clip090)" d="M1960.87 253.196 L1990.11 253.196 L1990.11 257.131 L1977.84 257.131 L1977.84 287.756 L1973.14 287.756 L1973.14 257.131 L1960.87 257.131 L1960.87 253.196 Z" fill="#000000" fill-rule="evenodd" fill-opacity="1" /><path clip-path="url(#clip090)" d="M2002.49 265.811 Q2001.77 265.395 2000.92 265.21 Q2000.08 265.001 1999.06 265.001 Q1995.45 265.001 1993.51 267.362 Q1991.59 269.7 1991.59 274.098 L1991.59 287.756 L1987.3 287.756 L1987.3 261.83 L1991.59 261.83 L1991.59 265.858 Q1992.93 263.497 1995.08 262.362 Q1997.24 261.205 2000.31 261.205 Q2000.75 261.205 2001.29 261.274 Q2001.82 261.321 2002.47 261.436 L2002.49 265.811 Z" fill="#000000" fill-rule="evenodd" fill-opacity="1" /><path clip-path="url(#clip090)" d="M2018.74 274.723 Q2013.58 274.723 2011.59 275.904 Q2009.6 277.084 2009.6 279.932 Q2009.6 282.2 2011.08 283.543 Q2012.58 284.862 2015.15 284.862 Q2018.69 284.862 2020.82 282.362 Q2022.98 279.839 2022.98 275.672 L2022.98 274.723 L2018.74 274.723 M2027.24 272.964 L2027.24 287.756 L2022.98 287.756 L2022.98 283.821 Q2021.52 286.182 2019.34 287.316 Q2017.17 288.427 2014.02 288.427 Q2010.04 288.427 2007.68 286.205 Q2005.34 283.959 2005.34 280.209 Q2005.34 275.834 2008.25 273.612 Q2011.19 271.39 2017 271.39 L2022.98 271.39 L2022.98 270.973 Q2022.98 268.034 2021.03 266.436 Q2019.11 264.816 2015.61 264.816 Q2013.39 264.816 2011.29 265.348 Q2009.18 265.881 2007.24 266.946 L2007.24 263.01 Q2009.57 262.108 2011.77 261.668 Q2013.97 261.205 2016.05 261.205 Q2021.68 261.205 2024.46 264.122 Q2027.24 267.038 2027.24 272.964 Z" fill="#000000" fill-rule="evenodd" fill-opacity="1" /><path clip-path="url(#clip090)" d="M2036.01 261.83 L2040.27 261.83 L2040.27 288.219 Q2040.27 293.172 2038.37 295.395 Q2036.49 297.617 2032.3 297.617 L2030.68 297.617 L2030.68 294.006 L2031.82 294.006 Q2034.25 294.006 2035.13 292.871 Q2036.01 291.76 2036.01 288.219 L2036.01 261.83 M2036.01 251.737 L2040.27 251.737 L2040.27 257.131 L2036.01 257.131 L2036.01 251.737 Z" fill="#000000" fill-rule="evenodd" fill-opacity="1" /><path clip-path="url(#clip090)" d="M2071.36 273.728 L2071.36 275.811 L2051.77 275.811 Q2052.05 280.209 2054.41 282.524 Q2056.8 284.816 2061.03 284.816 Q2063.48 284.816 2065.78 284.214 Q2068.09 283.612 2070.36 282.409 L2070.36 286.436 Q2068.07 287.408 2065.66 287.918 Q2063.25 288.427 2060.78 288.427 Q2054.57 288.427 2050.94 284.816 Q2047.33 281.205 2047.33 275.047 Q2047.33 268.682 2050.75 264.955 Q2054.2 261.205 2060.04 261.205 Q2065.27 261.205 2068.3 264.585 Q2071.36 267.941 2071.36 273.728 M2067.1 272.478 Q2067.05 268.983 2065.13 266.899 Q2063.23 264.816 2060.08 264.816 Q2056.52 264.816 2054.36 266.83 Q2052.23 268.844 2051.91 272.501 L2067.1 272.478 Z" fill="#000000" fill-rule="evenodd" fill-opacity="1" /><path clip-path="url(#clip090)" d="M2097 262.825 L2097 266.807 Q2095.2 265.811 2093.37 265.325 Q2091.56 264.816 2089.71 264.816 Q2085.57 264.816 2083.28 267.455 Q2080.98 270.071 2080.98 274.816 Q2080.98 279.561 2083.28 282.2 Q2085.57 284.816 2089.71 284.816 Q2091.56 284.816 2093.37 284.33 Q2095.2 283.821 2097 282.825 L2097 286.76 Q2095.22 287.594 2093.3 288.01 Q2091.4 288.427 2089.25 288.427 Q2083.39 288.427 2079.94 284.746 Q2076.49 281.066 2076.49 274.816 Q2076.49 268.473 2079.97 264.839 Q2083.46 261.205 2089.53 261.205 Q2091.49 261.205 2093.37 261.622 Q2095.24 262.015 2097 262.825 Z" fill="#000000" fill-rule="evenodd" fill-opacity="1" /><path clip-path="url(#clip090)" d="M2108.62 254.469 L2108.62 261.83 L2117.4 261.83 L2117.4 265.14 L2108.62 265.14 L2108.62 279.214 Q2108.62 282.385 2109.48 283.288 Q2110.36 284.191 2113.02 284.191 L2117.4 284.191 L2117.4 287.756 L2113.02 287.756 Q2108.09 287.756 2106.22 285.927 Q2104.34 284.075 2104.34 279.214 L2104.34 265.14 L2101.22 265.14 L2101.22 261.83 L2104.34 261.83 L2104.34 254.469 L2108.62 254.469 Z" fill="#000000" fill-rule="evenodd" fill-opacity="1" /><path clip-path="url(#clip090)" d="M2133.04 264.816 Q2129.62 264.816 2127.63 267.501 Q2125.64 270.163 2125.64 274.816 Q2125.64 279.469 2127.6 282.154 Q2129.6 284.816 2133.04 284.816 Q2136.45 284.816 2138.44 282.131 Q2140.43 279.446 2140.43 274.816 Q2140.43 270.21 2138.44 267.524 Q2136.45 264.816 2133.04 264.816 M2133.04 261.205 Q2138.6 261.205 2141.77 264.816 Q2144.94 268.427 2144.94 274.816 Q2144.94 281.182 2141.77 284.816 Q2138.6 288.427 2133.04 288.427 Q2127.47 288.427 2124.29 284.816 Q2121.15 281.182 2121.15 274.816 Q2121.15 268.427 2124.29 264.816 Q2127.47 261.205 2133.04 261.205 Z" fill="#000000" fill-rule="evenodd" fill-opacity="1" /><path clip-path="url(#clip090)" d="M2167.03 265.811 Q2166.31 265.395 2165.45 265.21 Q2164.62 265.001 2163.6 265.001 Q2159.99 265.001 2158.04 267.362 Q2156.12 269.7 2156.12 274.098 L2156.12 287.756 L2151.84 287.756 L2151.84 261.83 L2156.12 261.83 L2156.12 265.858 Q2157.47 263.497 2159.62 262.362 Q2161.77 261.205 2164.85 261.205 Q2165.29 261.205 2165.82 261.274 Q2166.35 261.321 2167 261.436 L2167.03 265.811 Z" fill="#000000" fill-rule="evenodd" fill-opacity="1" /><path clip-path="url(#clip090)" d="M2182.28 290.163 Q2180.48 294.793 2178.76 296.205 Q2177.05 297.617 2174.18 297.617 L2170.78 297.617 L2170.78 294.052 L2173.28 294.052 Q2175.04 294.052 2176.01 293.219 Q2176.98 292.385 2178.16 289.283 L2178.92 287.339 L2168.44 261.83 L2172.95 261.83 L2181.05 282.108 L2189.16 261.83 L2193.67 261.83 L2182.28 290.163 Z" fill="#000000" fill-rule="evenodd" fill-opacity="1" /><path clip-path="url(#clip090)" d="M2219.25 283.821 L2235.57 283.821 L2235.57 287.756 L2213.62 287.756 L2213.62 283.821 Q2216.29 281.066 2220.87 276.436 Q2225.47 271.784 2226.66 270.441 Q2228.9 267.918 2229.78 266.182 Q2230.68 264.423 2230.68 262.733 Q2230.68 259.978 2228.74 258.242 Q2226.82 256.506 2223.72 256.506 Q2221.52 256.506 2219.06 257.27 Q2216.63 258.034 2213.85 259.585 L2213.85 254.862 Q2216.68 253.728 2219.13 253.149 Q2221.59 252.571 2223.62 252.571 Q2228.99 252.571 2232.19 255.256 Q2235.38 257.941 2235.38 262.432 Q2235.38 264.561 2234.57 266.483 Q2233.78 268.381 2231.68 270.973 Q2231.1 271.645 2228 274.862 Q2224.9 278.057 2219.25 283.821 Z" fill="#000000" fill-rule="evenodd" fill-opacity="1" /></svg>
