<?xml version="1.0" encoding="utf-8"?>
<svg xmlns="http://www.w3.org/2000/svg" xmlns:xlink="http://www.w3.org/1999/xlink" width="600" height="400" viewBox="0 0 2400 1600">
<defs>
  <clipPath id="clip160">
    <rect x="0" y="0" width="2400" height="1600"/>
  </clipPath>
</defs>
<path clip-path="url(#clip160)" d="
M0 1600 L2400 1600 L2400 0 L0 0  Z
  " fill="#ffffff" fill-rule="evenodd" fill-opacity="1"/>
<defs>
  <clipPath id="clip161">
    <rect x="480" y="0" width="1681" height="1600"/>
  </clipPath>
</defs>
<path clip-path="url(#clip160)" d="
M250.028 1423.18 L2352.76 1423.18 L2352.76 123.472 L250.028 123.472  Z
  " fill="#ffffff" fill-rule="evenodd" fill-opacity="1"/>
<defs>
  <clipPath id="clip162">
    <rect x="250" y="123" width="2104" height="1301"/>
  </clipPath>
</defs>
<polyline clip-path="url(#clip162)" style="stroke:#000000; stroke-linecap:butt; stroke-linejoin:round; stroke-width:2; stroke-opacity:0.1; fill:none" points="
  250.028,1423.18 250.028,123.472 
  "/>
<polyline clip-path="url(#clip162)" style="stroke:#000000; stroke-linecap:butt; stroke-linejoin:round; stroke-width:2; stroke-opacity:0.1; fill:none" points="
  632.342,1423.18 632.342,123.472 
  "/>
<polyline clip-path="url(#clip162)" style="stroke:#000000; stroke-linecap:butt; stroke-linejoin:round; stroke-width:2; stroke-opacity:0.1; fill:none" points="
  1014.66,1423.18 1014.66,123.472 
  "/>
<polyline clip-path="url(#clip162)" style="stroke:#000000; stroke-linecap:butt; stroke-linejoin:round; stroke-width:2; stroke-opacity:0.1; fill:none" points="
  1396.97,1423.18 1396.97,123.472 
  "/>
<polyline clip-path="url(#clip162)" style="stroke:#000000; stroke-linecap:butt; stroke-linejoin:round; stroke-width:2; stroke-opacity:0.1; fill:none" points="
  1779.28,1423.18 1779.28,123.472 
  "/>
<polyline clip-path="url(#clip162)" style="stroke:#000000; stroke-linecap:butt; stroke-linejoin:round; stroke-width:2; stroke-opacity:0.1; fill:none" points="
  2161.6,1423.18 2161.6,123.472 
  "/>
<polyline clip-path="url(#clip160)" style="stroke:#000000; stroke-linecap:butt; stroke-linejoin:round; stroke-width:4; stroke-opacity:1; fill:none" points="
  250.028,1423.18 2352.76,1423.18 
  "/>
<polyline clip-path="url(#clip160)" style="stroke:#000000; stroke-linecap:butt; stroke-linejoin:round; stroke-width:4; stroke-opacity:1; fill:none" points="
  250.028,1423.18 250.028,1404.28 
  "/>
<polyline clip-path="url(#clip160)" style="stroke:#000000; stroke-linecap:butt; stroke-linejoin:round; stroke-width:4; stroke-opacity:1; fill:none" points="
  632.342,1423.18 632.342,1404.28 
  "/>
<polyline clip-path="url(#clip160)" style="stroke:#000000; stroke-linecap:butt; stroke-linejoin:round; stroke-width:4; stroke-opacity:1; fill:none" points="
  1014.66,1423.18 1014.66,1404.28 
  "/>
<polyline clip-path="url(#clip160)" style="stroke:#000000; stroke-linecap:butt; stroke-linejoin:round; stroke-width:4; stroke-opacity:1; fill:none" points="
  1396.97,1423.18 1396.97,1404.28 
  "/>
<polyline clip-path="url(#clip160)" style="stroke:#000000; stroke-linecap:butt; stroke-linejoin:round; stroke-width:4; stroke-opacity:1; fill:none" points="
  1779.28,1423.18 1779.28,1404.28 
  "/>
<polyline clip-path="url(#clip160)" style="stroke:#000000; stroke-linecap:butt; stroke-linejoin:round; stroke-width:4; stroke-opacity:1; fill:none" points="
  2161.6,1423.18 2161.6,1404.28 
  "/>
<path clip-path="url(#clip160)" d="M250.028 1454.1 Q246.417 1454.1 244.588 1457.66 Q242.783 1461.2 242.783 1468.33 Q242.783 1475.44 244.588 1479.01 Q246.417 1482.55 250.028 1482.55 Q253.662 1482.55 255.468 1479.01 Q257.297 1475.44 257.297 1468.33 Q257.297 1461.2 255.468 1457.66 Q253.662 1454.1 250.028 1454.1 M250.028 1450.39 Q255.838 1450.39 258.894 1455 Q261.973 1459.58 261.973 1468.33 Q261.973 1477.06 258.894 1481.67 Q255.838 1486.25 250.028 1486.25 Q244.218 1486.25 241.139 1481.67 Q238.084 1477.06 238.084 1468.33 Q238.084 1459.58 241.139 1455 Q244.218 1450.39 250.028 1450.39 Z" fill="#000000" fill-rule="evenodd" fill-opacity="1" /><path clip-path="url(#clip160)" d="M591.949 1481.64 L599.588 1481.64 L599.588 1455.28 L591.278 1456.95 L591.278 1452.69 L599.542 1451.02 L604.217 1451.02 L604.217 1481.64 L611.856 1481.64 L611.856 1485.58 L591.949 1485.58 L591.949 1481.64 Z" fill="#000000" fill-rule="evenodd" fill-opacity="1" /><path clip-path="url(#clip160)" d="M631.301 1454.1 Q627.69 1454.1 625.861 1457.66 Q624.055 1461.2 624.055 1468.33 Q624.055 1475.44 625.861 1479.01 Q627.69 1482.55 631.301 1482.55 Q634.935 1482.55 636.74 1479.01 Q638.569 1475.44 638.569 1468.33 Q638.569 1461.2 636.74 1457.66 Q634.935 1454.1 631.301 1454.1 M631.301 1450.39 Q637.111 1450.39 640.166 1455 Q643.245 1459.58 643.245 1468.33 Q643.245 1477.06 640.166 1481.67 Q637.111 1486.25 631.301 1486.25 Q625.49 1486.25 622.412 1481.67 Q619.356 1477.06 619.356 1468.33 Q619.356 1459.58 622.412 1455 Q625.49 1450.39 631.301 1450.39 Z" fill="#000000" fill-rule="evenodd" fill-opacity="1" /><path clip-path="url(#clip160)" d="M661.462 1454.1 Q657.851 1454.1 656.023 1457.66 Q654.217 1461.2 654.217 1468.33 Q654.217 1475.44 656.023 1479.01 Q657.851 1482.55 661.462 1482.55 Q665.097 1482.55 666.902 1479.01 Q668.731 1475.44 668.731 1468.33 Q668.731 1461.2 666.902 1457.66 Q665.097 1454.1 661.462 1454.1 M661.462 1450.39 Q667.273 1450.39 670.328 1455 Q673.407 1459.58 673.407 1468.33 Q673.407 1477.06 670.328 1481.67 Q667.273 1486.25 661.462 1486.25 Q655.652 1486.25 652.574 1481.67 Q649.518 1477.06 649.518 1468.33 Q649.518 1459.58 652.574 1455 Q655.652 1450.39 661.462 1450.39 Z" fill="#000000" fill-rule="evenodd" fill-opacity="1" /><path clip-path="url(#clip160)" d="M978.349 1481.64 L994.668 1481.64 L994.668 1485.58 L972.724 1485.58 L972.724 1481.64 Q975.386 1478.89 979.969 1474.26 Q984.576 1469.61 985.756 1468.27 Q988.001 1465.74 988.881 1464.01 Q989.784 1462.25 989.784 1460.56 Q989.784 1457.8 987.839 1456.07 Q985.918 1454.33 982.816 1454.33 Q980.617 1454.33 978.164 1455.09 Q975.733 1455.86 972.955 1457.41 L972.955 1452.69 Q975.779 1451.55 978.233 1450.97 Q980.687 1450.39 982.724 1450.39 Q988.094 1450.39 991.288 1453.08 Q994.483 1455.77 994.483 1460.26 Q994.483 1462.39 993.673 1464.31 Q992.886 1466.2 990.779 1468.8 Q990.201 1469.47 987.099 1472.69 Q983.997 1475.88 978.349 1481.64 Z" fill="#000000" fill-rule="evenodd" fill-opacity="1" /><path clip-path="url(#clip160)" d="M1014.48 1454.1 Q1010.87 1454.1 1009.04 1457.66 Q1007.24 1461.2 1007.24 1468.33 Q1007.24 1475.44 1009.04 1479.01 Q1010.87 1482.55 1014.48 1482.55 Q1018.12 1482.55 1019.92 1479.01 Q1021.75 1475.44 1021.75 1468.33 Q1021.75 1461.2 1019.92 1457.66 Q1018.12 1454.1 1014.48 1454.1 M1014.48 1450.39 Q1020.29 1450.39 1023.35 1455 Q1026.43 1459.58 1026.43 1468.33 Q1026.43 1477.06 1023.35 1481.67 Q1020.29 1486.25 1014.48 1486.25 Q1008.67 1486.25 1005.59 1481.67 Q1002.54 1477.06 1002.54 1468.33 Q1002.54 1459.58 1005.59 1455 Q1008.67 1450.39 1014.48 1450.39 Z" fill="#000000" fill-rule="evenodd" fill-opacity="1" /><path clip-path="url(#clip160)" d="M1044.64 1454.1 Q1041.03 1454.1 1039.2 1457.66 Q1037.4 1461.2 1037.4 1468.33 Q1037.4 1475.44 1039.2 1479.01 Q1041.03 1482.55 1044.64 1482.55 Q1048.28 1482.55 1050.08 1479.01 Q1051.91 1475.44 1051.91 1468.33 Q1051.91 1461.2 1050.08 1457.66 Q1048.28 1454.1 1044.64 1454.1 M1044.64 1450.39 Q1050.45 1450.39 1053.51 1455 Q1056.59 1459.58 1056.59 1468.33 Q1056.59 1477.06 1053.51 1481.67 Q1050.45 1486.25 1044.64 1486.25 Q1038.83 1486.25 1035.76 1481.67 Q1032.7 1477.06 1032.7 1468.33 Q1032.7 1459.58 1035.76 1455 Q1038.83 1450.39 1044.64 1450.39 Z" fill="#000000" fill-rule="evenodd" fill-opacity="1" /><path clip-path="url(#clip160)" d="M1370.73 1466.95 Q1374.09 1467.66 1375.96 1469.93 Q1377.86 1472.2 1377.86 1475.53 Q1377.86 1480.65 1374.34 1483.45 Q1370.82 1486.25 1364.34 1486.25 Q1362.17 1486.25 1359.85 1485.81 Q1357.56 1485.39 1355.11 1484.54 L1355.11 1480.02 Q1357.05 1481.16 1359.37 1481.74 Q1361.68 1482.32 1364.2 1482.32 Q1368.6 1482.32 1370.89 1480.58 Q1373.21 1478.84 1373.21 1475.53 Q1373.21 1472.48 1371.06 1470.77 Q1368.93 1469.03 1365.11 1469.03 L1361.08 1469.03 L1361.08 1465.19 L1365.29 1465.19 Q1368.74 1465.19 1370.57 1463.82 Q1372.4 1462.43 1372.4 1459.84 Q1372.4 1457.18 1370.5 1455.77 Q1368.63 1454.33 1365.11 1454.33 Q1363.19 1454.33 1360.99 1454.75 Q1358.79 1455.16 1356.15 1456.04 L1356.15 1451.88 Q1358.81 1451.14 1361.13 1450.77 Q1363.46 1450.39 1365.52 1450.39 Q1370.85 1450.39 1373.95 1452.83 Q1377.05 1455.23 1377.05 1459.35 Q1377.05 1462.22 1375.41 1464.21 Q1373.76 1466.18 1370.73 1466.95 Z" fill="#000000" fill-rule="evenodd" fill-opacity="1" /><path clip-path="url(#clip160)" d="M1396.73 1454.1 Q1393.12 1454.1 1391.29 1457.66 Q1389.48 1461.2 1389.48 1468.33 Q1389.48 1475.44 1391.29 1479.01 Q1393.12 1482.55 1396.73 1482.55 Q1400.36 1482.55 1402.17 1479.01 Q1404 1475.44 1404 1468.33 Q1404 1461.2 1402.17 1457.66 Q1400.36 1454.1 1396.73 1454.1 M1396.73 1450.39 Q1402.54 1450.39 1405.59 1455 Q1408.67 1459.58 1408.67 1468.33 Q1408.67 1477.06 1405.59 1481.67 Q1402.54 1486.25 1396.73 1486.25 Q1390.92 1486.25 1387.84 1481.67 Q1384.78 1477.06 1384.78 1468.33 Q1384.78 1459.58 1387.84 1455 Q1390.92 1450.39 1396.73 1450.39 Z" fill="#000000" fill-rule="evenodd" fill-opacity="1" /><path clip-path="url(#clip160)" d="M1426.89 1454.1 Q1423.28 1454.1 1421.45 1457.66 Q1419.64 1461.2 1419.64 1468.33 Q1419.64 1475.44 1421.45 1479.01 Q1423.28 1482.55 1426.89 1482.55 Q1430.52 1482.55 1432.33 1479.01 Q1434.16 1475.44 1434.16 1468.33 Q1434.16 1461.2 1432.33 1457.66 Q1430.52 1454.1 1426.89 1454.1 M1426.89 1450.39 Q1432.7 1450.39 1435.76 1455 Q1438.83 1459.58 1438.83 1468.33 Q1438.83 1477.06 1435.76 1481.67 Q1432.7 1486.25 1426.89 1486.25 Q1421.08 1486.25 1418 1481.67 Q1414.94 1477.06 1414.94 1468.33 Q1414.94 1459.58 1418 1455 Q1421.08 1450.39 1426.89 1450.39 Z" fill="#000000" fill-rule="evenodd" fill-opacity="1" /><path clip-path="url(#clip160)" d="M1752.38 1455.09 L1740.57 1473.54 L1752.38 1473.54 L1752.38 1455.09 M1751.15 1451.02 L1757.03 1451.02 L1757.03 1473.54 L1761.96 1473.54 L1761.96 1477.43 L1757.03 1477.43 L1757.03 1485.58 L1752.38 1485.58 L1752.38 1477.43 L1736.77 1477.43 L1736.77 1472.92 L1751.15 1451.02 Z" fill="#000000" fill-rule="evenodd" fill-opacity="1" /><path clip-path="url(#clip160)" d="M1779.69 1454.1 Q1776.08 1454.1 1774.25 1457.66 Q1772.44 1461.2 1772.44 1468.33 Q1772.44 1475.44 1774.25 1479.01 Q1776.08 1482.55 1779.69 1482.55 Q1783.32 1482.55 1785.13 1479.01 Q1786.96 1475.44 1786.96 1468.33 Q1786.96 1461.2 1785.13 1457.66 Q1783.32 1454.1 1779.69 1454.1 M1779.69 1450.39 Q1785.5 1450.39 1788.56 1455 Q1791.63 1459.58 1791.63 1468.33 Q1791.63 1477.06 1788.56 1481.67 Q1785.5 1486.25 1779.69 1486.25 Q1773.88 1486.25 1770.8 1481.67 Q1767.75 1477.06 1767.75 1468.33 Q1767.75 1459.58 1770.8 1455 Q1773.88 1450.39 1779.69 1450.39 Z" fill="#000000" fill-rule="evenodd" fill-opacity="1" /><path clip-path="url(#clip160)" d="M1809.85 1454.1 Q1806.24 1454.1 1804.41 1457.66 Q1802.61 1461.2 1802.61 1468.33 Q1802.61 1475.44 1804.41 1479.01 Q1806.24 1482.55 1809.85 1482.55 Q1813.49 1482.55 1815.29 1479.01 Q1817.12 1475.44 1817.12 1468.33 Q1817.12 1461.2 1815.29 1457.66 Q1813.49 1454.1 1809.85 1454.1 M1809.85 1450.39 Q1815.66 1450.39 1818.72 1455 Q1821.8 1459.58 1821.8 1468.33 Q1821.8 1477.06 1818.72 1481.67 Q1815.66 1486.25 1809.85 1486.25 Q1804.04 1486.25 1800.96 1481.67 Q1797.91 1477.06 1797.91 1468.33 Q1797.91 1459.58 1800.96 1455 Q1804.04 1450.39 1809.85 1450.39 Z" fill="#000000" fill-rule="evenodd" fill-opacity="1" /><path clip-path="url(#clip160)" d="M2121.22 1451.02 L2139.57 1451.02 L2139.57 1454.96 L2125.5 1454.96 L2125.5 1463.43 Q2126.52 1463.08 2127.54 1462.92 Q2128.56 1462.73 2129.57 1462.73 Q2135.36 1462.73 2138.74 1465.9 Q2142.12 1469.08 2142.12 1474.49 Q2142.12 1480.07 2138.65 1483.17 Q2135.18 1486.25 2128.86 1486.25 Q2126.68 1486.25 2124.41 1485.88 Q2122.17 1485.51 2119.76 1484.77 L2119.76 1480.07 Q2121.84 1481.2 2124.06 1481.76 Q2126.29 1482.32 2128.76 1482.32 Q2132.77 1482.32 2135.11 1480.21 Q2137.44 1478.1 2137.44 1474.49 Q2137.44 1470.88 2135.11 1468.77 Q2132.77 1466.67 2128.76 1466.67 Q2126.89 1466.67 2125.01 1467.08 Q2123.16 1467.5 2121.22 1468.38 L2121.22 1451.02 Z" fill="#000000" fill-rule="evenodd" fill-opacity="1" /><path clip-path="url(#clip160)" d="M2161.33 1454.1 Q2157.72 1454.1 2155.89 1457.66 Q2154.09 1461.2 2154.09 1468.33 Q2154.09 1475.44 2155.89 1479.01 Q2157.72 1482.55 2161.33 1482.55 Q2164.97 1482.55 2166.77 1479.01 Q2168.6 1475.44 2168.6 1468.33 Q2168.6 1461.2 2166.77 1457.66 Q2164.97 1454.1 2161.33 1454.1 M2161.33 1450.39 Q2167.14 1450.39 2170.2 1455 Q2173.28 1459.58 2173.28 1468.33 Q2173.28 1477.06 2170.2 1481.67 Q2167.14 1486.25 2161.33 1486.25 Q2155.52 1486.25 2152.44 1481.67 Q2149.39 1477.06 2149.39 1468.33 Q2149.39 1459.58 2152.44 1455 Q2155.52 1450.39 2161.33 1450.39 Z" fill="#000000" fill-rule="evenodd" fill-opacity="1" /><path clip-path="url(#clip160)" d="M2191.49 1454.1 Q2187.88 1454.1 2186.05 1457.66 Q2184.25 1461.2 2184.25 1468.33 Q2184.25 1475.44 2186.05 1479.01 Q2187.88 1482.55 2191.49 1482.55 Q2195.13 1482.55 2196.93 1479.01 Q2198.76 1475.44 2198.76 1468.33 Q2198.76 1461.2 2196.93 1457.66 Q2195.13 1454.1 2191.49 1454.1 M2191.49 1450.39 Q2197.3 1450.39 2200.36 1455 Q2203.44 1459.58 2203.44 1468.33 Q2203.44 1477.06 2200.36 1481.67 Q2197.3 1486.25 2191.49 1486.25 Q2185.68 1486.25 2182.61 1481.67 Q2179.55 1477.06 2179.55 1468.33 Q2179.55 1459.58 2182.61 1455 Q2185.68 1450.39 2191.49 1450.39 Z" fill="#000000" fill-rule="evenodd" fill-opacity="1" /><path clip-path="url(#clip160)" d="M1309.86 1548.54 Q1309.86 1549.45 1309.44 1549.67 Q1309.03 1549.87 1307.87 1549.87 L1301.68 1549.87 L1296.79 1569.32 Q1296.4 1571.02 1296.4 1572.47 Q1296.4 1574.08 1296.88 1574.79 Q1297.4 1575.5 1298.46 1575.5 Q1300.56 1575.5 1302.81 1573.6 Q1305.1 1571.7 1307.03 1567.06 Q1307.29 1566.45 1307.42 1566.32 Q1307.58 1566.16 1308 1566.16 Q1308.8 1566.16 1308.8 1566.81 Q1308.8 1567.03 1308.35 1568.06 Q1307.93 1569.09 1307 1570.61 Q1306.09 1572.12 1304.9 1573.54 Q1303.74 1574.95 1301.97 1575.98 Q1300.2 1576.98 1298.3 1576.98 Q1295.63 1576.98 1293.92 1575.28 Q1292.25 1573.57 1292.25 1570.9 Q1292.25 1570.03 1292.92 1567.26 Q1293.6 1564.45 1297.27 1549.87 L1291.44 1549.87 Q1290.64 1549.87 1290.31 1549.83 Q1290.02 1549.8 1289.8 1549.64 Q1289.61 1549.45 1289.61 1549.06 Q1289.61 1548.45 1289.86 1548.19 Q1290.12 1547.9 1290.44 1547.87 Q1290.8 1547.8 1291.6 1547.8 L1297.79 1547.8 L1300.36 1537.34 Q1300.62 1536.31 1301.26 1535.73 Q1301.94 1535.12 1302.33 1535.05 Q1302.71 1534.95 1303 1534.95 Q1303.87 1534.95 1304.39 1535.44 Q1304.9 1535.89 1304.9 1536.73 Q1304.9 1537.18 1302.2 1547.8 L1308 1547.8 Q1308.74 1547.8 1309.03 1547.84 Q1309.35 1547.87 1309.61 1548.03 Q1309.86 1548.19 1309.86 1548.54 Z" fill="#000000" fill-rule="evenodd" fill-opacity="1" /><polyline clip-path="url(#clip162)" style="stroke:#000000; stroke-linecap:butt; stroke-linejoin:round; stroke-width:2; stroke-opacity:0.1; fill:none" points="
  250.028,1387.25 2352.76,1387.25 
  "/>
<polyline clip-path="url(#clip162)" style="stroke:#000000; stroke-linecap:butt; stroke-linejoin:round; stroke-width:2; stroke-opacity:0.1; fill:none" points="
  250.028,1124.31 2352.76,1124.31 
  "/>
<polyline clip-path="url(#clip162)" style="stroke:#000000; stroke-linecap:butt; stroke-linejoin:round; stroke-width:2; stroke-opacity:0.1; fill:none" points="
  250.028,861.382 2352.76,861.382 
  "/>
<polyline clip-path="url(#clip162)" style="stroke:#000000; stroke-linecap:butt; stroke-linejoin:round; stroke-width:2; stroke-opacity:0.1; fill:none" points="
  250.028,598.449 2352.76,598.449 
  "/>
<polyline clip-path="url(#clip162)" style="stroke:#000000; stroke-linecap:butt; stroke-linejoin:round; stroke-width:2; stroke-opacity:0.1; fill:none" points="
  250.028,335.516 2352.76,335.516 
  "/>
<polyline clip-path="url(#clip160)" style="stroke:#000000; stroke-linecap:butt; stroke-linejoin:round; stroke-width:4; stroke-opacity:1; fill:none" points="
  250.028,1423.18 250.028,123.472 
  "/>
<polyline clip-path="url(#clip160)" style="stroke:#000000; stroke-linecap:butt; stroke-linejoin:round; stroke-width:4; stroke-opacity:1; fill:none" points="
  250.028,1387.25 268.926,1387.25 
  "/>
<polyline clip-path="url(#clip160)" style="stroke:#000000; stroke-linecap:butt; stroke-linejoin:round; stroke-width:4; stroke-opacity:1; fill:none" points="
  250.028,1124.31 268.926,1124.31 
  "/>
<polyline clip-path="url(#clip160)" style="stroke:#000000; stroke-linecap:butt; stroke-linejoin:round; stroke-width:4; stroke-opacity:1; fill:none" points="
  250.028,861.382 268.926,861.382 
  "/>
<polyline clip-path="url(#clip160)" style="stroke:#000000; stroke-linecap:butt; stroke-linejoin:round; stroke-width:4; stroke-opacity:1; fill:none" points="
  250.028,598.449 268.926,598.449 
  "/>
<polyline clip-path="url(#clip160)" style="stroke:#000000; stroke-linecap:butt; stroke-linejoin:round; stroke-width:4; stroke-opacity:1; fill:none" points="
  250.028,335.516 268.926,335.516 
  "/>
<path clip-path="url(#clip160)" d="M126.691 1373.05 Q123.08 1373.05 121.251 1376.61 Q119.445 1380.15 119.445 1387.28 Q119.445 1394.39 121.251 1397.95 Q123.08 1401.5 126.691 1401.5 Q130.325 1401.5 132.13 1397.95 Q133.959 1394.39 133.959 1387.28 Q133.959 1380.15 132.13 1376.61 Q130.325 1373.05 126.691 1373.05 M126.691 1369.34 Q132.501 1369.34 135.556 1373.95 Q138.635 1378.53 138.635 1387.28 Q138.635 1396.01 135.556 1400.62 Q132.501 1405.2 126.691 1405.2 Q120.88 1405.2 117.802 1400.62 Q114.746 1396.01 114.746 1387.28 Q114.746 1378.53 117.802 1373.95 Q120.88 1369.34 126.691 1369.34 Z" fill="#000000" fill-rule="evenodd" fill-opacity="1" /><path clip-path="url(#clip160)" d="M146.853 1398.65 L151.737 1398.65 L151.737 1404.53 L146.853 1404.53 L146.853 1398.65 Z" fill="#000000" fill-rule="evenodd" fill-opacity="1" /><path clip-path="url(#clip160)" d="M171.922 1373.05 Q168.311 1373.05 166.482 1376.61 Q164.677 1380.15 164.677 1387.28 Q164.677 1394.39 166.482 1397.95 Q168.311 1401.5 171.922 1401.5 Q175.556 1401.5 177.362 1397.95 Q179.19 1394.39 179.19 1387.28 Q179.19 1380.15 177.362 1376.61 Q175.556 1373.05 171.922 1373.05 M171.922 1369.34 Q177.732 1369.34 180.788 1373.95 Q183.866 1378.53 183.866 1387.28 Q183.866 1396.01 180.788 1400.62 Q177.732 1405.2 171.922 1405.2 Q166.112 1405.2 163.033 1400.62 Q159.978 1396.01 159.978 1387.28 Q159.978 1378.53 163.033 1373.95 Q166.112 1369.34 171.922 1369.34 Z" fill="#000000" fill-rule="evenodd" fill-opacity="1" /><path clip-path="url(#clip160)" d="M202.084 1373.05 Q198.473 1373.05 196.644 1376.61 Q194.838 1380.15 194.838 1387.28 Q194.838 1394.39 196.644 1397.95 Q198.473 1401.5 202.084 1401.5 Q205.718 1401.5 207.524 1397.95 Q209.352 1394.39 209.352 1387.28 Q209.352 1380.15 207.524 1376.61 Q205.718 1373.05 202.084 1373.05 M202.084 1369.34 Q207.894 1369.34 210.949 1373.95 Q214.028 1378.53 214.028 1387.28 Q214.028 1396.01 210.949 1400.62 Q207.894 1405.2 202.084 1405.2 Q196.274 1405.2 193.195 1400.62 Q190.139 1396.01 190.139 1387.28 Q190.139 1378.53 193.195 1373.95 Q196.274 1369.34 202.084 1369.34 Z" fill="#000000" fill-rule="evenodd" fill-opacity="1" /><path clip-path="url(#clip160)" d="M128.288 1110.11 Q124.677 1110.11 122.848 1113.68 Q121.043 1117.22 121.043 1124.35 Q121.043 1131.46 122.848 1135.02 Q124.677 1138.56 128.288 1138.56 Q131.922 1138.56 133.728 1135.02 Q135.556 1131.46 135.556 1124.35 Q135.556 1117.22 133.728 1113.68 Q131.922 1110.11 128.288 1110.11 M128.288 1106.41 Q134.098 1106.41 137.154 1111.02 Q140.232 1115.6 140.232 1124.35 Q140.232 1133.08 137.154 1137.68 Q134.098 1142.27 128.288 1142.27 Q122.478 1142.27 119.399 1137.68 Q116.343 1133.08 116.343 1124.35 Q116.343 1115.6 119.399 1111.02 Q122.478 1106.41 128.288 1106.41 Z" fill="#000000" fill-rule="evenodd" fill-opacity="1" /><path clip-path="url(#clip160)" d="M148.45 1135.71 L153.334 1135.71 L153.334 1141.59 L148.45 1141.59 L148.45 1135.71 Z" fill="#000000" fill-rule="evenodd" fill-opacity="1" /><path clip-path="url(#clip160)" d="M173.519 1110.11 Q169.908 1110.11 168.079 1113.68 Q166.274 1117.22 166.274 1124.35 Q166.274 1131.46 168.079 1135.02 Q169.908 1138.56 173.519 1138.56 Q177.153 1138.56 178.959 1135.02 Q180.788 1131.46 180.788 1124.35 Q180.788 1117.22 178.959 1113.68 Q177.153 1110.11 173.519 1110.11 M173.519 1106.41 Q179.329 1106.41 182.385 1111.02 Q185.463 1115.6 185.463 1124.35 Q185.463 1133.08 182.385 1137.68 Q179.329 1142.27 173.519 1142.27 Q167.709 1142.27 164.63 1137.68 Q161.575 1133.08 161.575 1124.35 Q161.575 1115.6 164.63 1111.02 Q167.709 1106.41 173.519 1106.41 Z" fill="#000000" fill-rule="evenodd" fill-opacity="1" /><path clip-path="url(#clip160)" d="M197.709 1137.66 L214.028 1137.66 L214.028 1141.59 L192.084 1141.59 L192.084 1137.66 Q194.746 1134.9 199.329 1130.28 Q203.936 1125.62 205.116 1124.28 Q207.362 1121.76 208.241 1120.02 Q209.144 1118.26 209.144 1116.57 Q209.144 1113.82 207.199 1112.08 Q205.278 1110.34 202.176 1110.34 Q199.977 1110.34 197.524 1111.11 Q195.093 1111.87 192.315 1113.42 L192.315 1108.7 Q195.139 1107.57 197.593 1106.99 Q200.047 1106.41 202.084 1106.41 Q207.454 1106.41 210.649 1109.09 Q213.843 1111.78 213.843 1116.27 Q213.843 1118.4 213.033 1120.32 Q212.246 1122.22 210.139 1124.81 Q209.561 1125.48 206.459 1128.7 Q203.357 1131.9 197.709 1137.66 Z" fill="#000000" fill-rule="evenodd" fill-opacity="1" /><path clip-path="url(#clip160)" d="M126.205 847.18 Q122.593 847.18 120.765 850.745 Q118.959 854.287 118.959 861.416 Q118.959 868.523 120.765 872.088 Q122.593 875.629 126.205 875.629 Q129.839 875.629 131.644 872.088 Q133.473 868.523 133.473 861.416 Q133.473 854.287 131.644 850.745 Q129.839 847.18 126.205 847.18 M126.205 843.477 Q132.015 843.477 135.07 848.083 Q138.149 852.666 138.149 861.416 Q138.149 870.143 135.07 874.75 Q132.015 879.333 126.205 879.333 Q120.394 879.333 117.316 874.75 Q114.26 870.143 114.26 861.416 Q114.26 852.666 117.316 848.083 Q120.394 843.477 126.205 843.477 Z" fill="#000000" fill-rule="evenodd" fill-opacity="1" /><path clip-path="url(#clip160)" d="M146.366 872.782 L151.251 872.782 L151.251 878.662 L146.366 878.662 L146.366 872.782 Z" fill="#000000" fill-rule="evenodd" fill-opacity="1" /><path clip-path="url(#clip160)" d="M171.436 847.18 Q167.825 847.18 165.996 850.745 Q164.19 854.287 164.19 861.416 Q164.19 868.523 165.996 872.088 Q167.825 875.629 171.436 875.629 Q175.07 875.629 176.876 872.088 Q178.704 868.523 178.704 861.416 Q178.704 854.287 176.876 850.745 Q175.07 847.18 171.436 847.18 M171.436 843.477 Q177.246 843.477 180.301 848.083 Q183.38 852.666 183.38 861.416 Q183.38 870.143 180.301 874.75 Q177.246 879.333 171.436 879.333 Q165.626 879.333 162.547 874.75 Q159.491 870.143 159.491 861.416 Q159.491 852.666 162.547 848.083 Q165.626 843.477 171.436 843.477 Z" fill="#000000" fill-rule="evenodd" fill-opacity="1" /><path clip-path="url(#clip160)" d="M204.445 848.176 L192.639 866.625 L204.445 866.625 L204.445 848.176 M203.218 844.102 L209.098 844.102 L209.098 866.625 L214.028 866.625 L214.028 870.514 L209.098 870.514 L209.098 878.662 L204.445 878.662 L204.445 870.514 L188.843 870.514 L188.843 866 L203.218 844.102 Z" fill="#000000" fill-rule="evenodd" fill-opacity="1" /><path clip-path="url(#clip160)" d="M126.529 584.248 Q122.918 584.248 121.089 587.812 Q119.283 591.354 119.283 598.484 Q119.283 605.59 121.089 609.155 Q122.918 612.696 126.529 612.696 Q130.163 612.696 131.968 609.155 Q133.797 605.59 133.797 598.484 Q133.797 591.354 131.968 587.812 Q130.163 584.248 126.529 584.248 M126.529 580.544 Q132.339 580.544 135.394 585.15 Q138.473 589.734 138.473 598.484 Q138.473 607.21 135.394 611.817 Q132.339 616.4 126.529 616.4 Q120.718 616.4 117.64 611.817 Q114.584 607.21 114.584 598.484 Q114.584 589.734 117.64 585.15 Q120.718 580.544 126.529 580.544 Z" fill="#000000" fill-rule="evenodd" fill-opacity="1" /><path clip-path="url(#clip160)" d="M146.691 609.849 L151.575 609.849 L151.575 615.729 L146.691 615.729 L146.691 609.849 Z" fill="#000000" fill-rule="evenodd" fill-opacity="1" /><path clip-path="url(#clip160)" d="M171.76 584.248 Q168.149 584.248 166.32 587.812 Q164.515 591.354 164.515 598.484 Q164.515 605.59 166.32 609.155 Q168.149 612.696 171.76 612.696 Q175.394 612.696 177.2 609.155 Q179.028 605.59 179.028 598.484 Q179.028 591.354 177.2 587.812 Q175.394 584.248 171.76 584.248 M171.76 580.544 Q177.57 580.544 180.626 585.15 Q183.704 589.734 183.704 598.484 Q183.704 607.21 180.626 611.817 Q177.57 616.4 171.76 616.4 Q165.95 616.4 162.871 611.817 Q159.815 607.21 159.815 598.484 Q159.815 589.734 162.871 585.15 Q165.95 580.544 171.76 580.544 Z" fill="#000000" fill-rule="evenodd" fill-opacity="1" /><path clip-path="url(#clip160)" d="M202.5 596.585 Q199.352 596.585 197.5 598.738 Q195.672 600.891 195.672 604.641 Q195.672 608.368 197.5 610.544 Q199.352 612.696 202.5 612.696 Q205.649 612.696 207.477 610.544 Q209.329 608.368 209.329 604.641 Q209.329 600.891 207.477 598.738 Q205.649 596.585 202.5 596.585 M211.783 581.933 L211.783 586.192 Q210.024 585.359 208.218 584.919 Q206.436 584.479 204.676 584.479 Q200.047 584.479 197.593 587.604 Q195.163 590.729 194.815 597.048 Q196.181 595.035 198.241 593.97 Q200.301 592.882 202.778 592.882 Q207.987 592.882 210.996 596.053 Q214.028 599.201 214.028 604.641 Q214.028 609.965 210.88 613.183 Q207.732 616.4 202.5 616.4 Q196.505 616.4 193.334 611.817 Q190.163 607.21 190.163 598.484 Q190.163 590.289 194.051 585.428 Q197.94 580.544 204.491 580.544 Q206.25 580.544 208.033 580.891 Q209.838 581.238 211.783 581.933 Z" fill="#000000" fill-rule="evenodd" fill-opacity="1" /><path clip-path="url(#clip160)" d="M126.783 321.315 Q123.172 321.315 121.343 324.879 Q119.538 328.421 119.538 335.551 Q119.538 342.657 121.343 346.222 Q123.172 349.764 126.783 349.764 Q130.417 349.764 132.223 346.222 Q134.052 342.657 134.052 335.551 Q134.052 328.421 132.223 324.879 Q130.417 321.315 126.783 321.315 M126.783 317.611 Q132.593 317.611 135.649 322.217 Q138.728 326.801 138.728 335.551 Q138.728 344.278 135.649 348.884 Q132.593 353.467 126.783 353.467 Q120.973 353.467 117.894 348.884 Q114.839 344.278 114.839 335.551 Q114.839 326.801 117.894 322.217 Q120.973 317.611 126.783 317.611 Z" fill="#000000" fill-rule="evenodd" fill-opacity="1" /><path clip-path="url(#clip160)" d="M146.945 346.916 L151.829 346.916 L151.829 352.796 L146.945 352.796 L146.945 346.916 Z" fill="#000000" fill-rule="evenodd" fill-opacity="1" /><path clip-path="url(#clip160)" d="M172.014 321.315 Q168.403 321.315 166.575 324.879 Q164.769 328.421 164.769 335.551 Q164.769 342.657 166.575 346.222 Q168.403 349.764 172.014 349.764 Q175.649 349.764 177.454 346.222 Q179.283 342.657 179.283 335.551 Q179.283 328.421 177.454 324.879 Q175.649 321.315 172.014 321.315 M172.014 317.611 Q177.825 317.611 180.88 322.217 Q183.959 326.801 183.959 335.551 Q183.959 344.278 180.88 348.884 Q177.825 353.467 172.014 353.467 Q166.204 353.467 163.126 348.884 Q160.07 344.278 160.07 335.551 Q160.07 326.801 163.126 322.217 Q166.204 317.611 172.014 317.611 Z" fill="#000000" fill-rule="evenodd" fill-opacity="1" /><path clip-path="url(#clip160)" d="M202.176 336.384 Q198.843 336.384 196.922 338.166 Q195.024 339.949 195.024 343.074 Q195.024 346.199 196.922 347.981 Q198.843 349.764 202.176 349.764 Q205.51 349.764 207.431 347.981 Q209.352 346.176 209.352 343.074 Q209.352 339.949 207.431 338.166 Q205.533 336.384 202.176 336.384 M197.5 334.393 Q194.491 333.653 192.801 331.592 Q191.135 329.532 191.135 326.569 Q191.135 322.426 194.075 320.018 Q197.037 317.611 202.176 317.611 Q207.338 317.611 210.278 320.018 Q213.218 322.426 213.218 326.569 Q213.218 329.532 211.528 331.592 Q209.861 333.653 206.875 334.393 Q210.255 335.18 212.13 337.472 Q214.028 339.764 214.028 343.074 Q214.028 348.097 210.949 350.782 Q207.894 353.467 202.176 353.467 Q196.459 353.467 193.38 350.782 Q190.325 348.097 190.325 343.074 Q190.325 339.764 192.223 337.472 Q194.121 335.18 197.5 334.393 M195.787 327.009 Q195.787 329.694 197.454 331.199 Q199.144 332.704 202.176 332.704 Q205.186 332.704 206.875 331.199 Q208.588 329.694 208.588 327.009 Q208.588 324.324 206.875 322.819 Q205.186 321.315 202.176 321.315 Q199.144 321.315 197.454 322.819 Q195.787 324.324 195.787 327.009 Z" fill="#000000" fill-rule="evenodd" fill-opacity="1" /><path clip-path="url(#clip160)" d="M27.2366 806.044 Q28.6537 806.044 29.7164 807.204 Q30.747 808.331 30.747 809.555 Q30.747 810.682 30.0707 811.391 Q29.3622 812.067 28.3638 812.067 Q27.0434 812.067 25.9484 810.94 Q24.8534 809.812 24.8534 808.492 Q24.8534 807.397 25.5297 806.721 Q26.206 806.044 27.2366 806.044 M59.0238 805.465 Q59.2814 805.465 60.312 805.755 Q61.3104 806.044 62.8563 806.753 Q64.37 807.429 65.787 808.363 Q67.2041 809.297 68.2024 810.843 Q69.2008 812.357 69.2008 814.096 Q69.2008 816.447 67.6549 817.993 Q66.1091 819.506 63.7902 819.506 Q62.5342 819.506 58.5085 817.993 Q46.7856 813.613 46.3025 813.452 Q44.4667 812.711 42.8564 812.711 Q42.1157 812.711 41.6648 812.872 Q41.1817 813.033 41.0207 813.355 Q40.8275 813.677 40.7953 813.87 Q40.7631 814.031 40.7631 814.354 Q40.7631 816.254 42.6954 818.025 Q44.6278 819.796 48.9433 821.02 Q49.7485 821.278 49.9417 821.439 Q50.135 821.6 50.135 822.083 Q50.1028 822.888 49.4586 822.888 Q49.2654 822.888 48.5247 822.663 Q47.7517 822.437 46.5923 822.018 Q45.4007 821.6 44.1769 820.859 Q42.9208 820.118 41.8258 819.217 Q40.7308 818.283 40.0223 816.962 Q39.3138 815.642 39.3138 814.16 Q39.3138 811.745 40.8919 810.263 Q42.4378 808.75 44.7244 808.75 Q45.9804 808.75 48.2026 809.619 Q51.1011 810.682 52.0351 811.069 L58.9594 813.645 Q61.4714 814.579 62.2444 814.869 Q62.9851 815.126 63.8869 815.352 Q64.7564 815.545 65.5616 815.545 Q66.6888 815.545 67.2041 815.191 Q67.7194 814.804 67.7194 813.967 Q67.7194 811.648 65.4327 809.941 Q63.1139 808.234 59.5713 807.236 Q59.4747 807.204 59.3136 807.172 Q58.5085 806.914 58.4119 806.656 Q58.3797 806.527 58.3797 806.27 Q58.3797 805.465 59.0238 805.465 Z" fill="#000000" fill-rule="evenodd" fill-opacity="1" /><path clip-path="url(#clip160)" d="M51.9707 794.824 Q40.8275 794.824 31.842 790.669 Q28.0739 788.898 24.9178 786.418 Q21.7616 783.938 20.3767 782.296 Q18.9919 780.653 18.9919 780.202 Q18.9919 779.558 19.636 779.526 Q19.9581 779.526 20.7632 780.395 Q31.5844 791.023 51.9707 790.991 Q72.4214 790.991 82.8239 780.653 Q83.9511 779.526 84.3054 779.526 Q84.9495 779.526 84.9495 780.202 Q84.9495 780.653 83.6291 782.231 Q82.3086 783.809 79.2813 786.257 Q76.2539 788.705 72.5502 790.476 Q63.5648 794.824 51.9707 794.824 Z" fill="#000000" fill-rule="evenodd" fill-opacity="1" /><path clip-path="url(#clip160)" d="M40.7631 754.255 Q41.6648 754.255 41.8903 754.673 Q42.0835 755.092 42.0835 756.252 L42.0835 762.435 L61.5358 767.33 Q63.2427 767.717 64.692 767.717 Q66.3023 767.717 67.0108 767.234 Q67.7194 766.718 67.7194 765.656 Q67.7194 763.562 65.8192 761.308 Q63.9191 759.021 59.2814 757.089 Q58.6695 756.831 58.5407 756.702 Q58.3797 756.541 58.3797 756.123 Q58.3797 755.318 59.0238 755.318 Q59.2492 755.318 60.2798 755.768 Q61.3104 756.187 62.8241 757.121 Q64.3377 758.023 65.7548 759.215 Q67.1719 760.374 68.2024 762.145 Q69.2008 763.917 69.2008 765.817 Q69.2008 768.49 67.4939 770.197 Q65.787 771.871 63.1139 771.871 Q62.2444 771.871 59.4747 771.195 Q56.6727 770.519 42.0835 766.847 L42.0835 772.677 Q42.0835 773.482 42.0513 773.804 Q42.0191 774.094 41.8581 774.319 Q41.6648 774.512 41.2783 774.512 Q40.6664 774.512 40.4088 774.255 Q40.1189 773.997 40.0867 773.675 Q40.0223 773.321 40.0223 772.516 L40.0223 766.332 L29.5554 763.756 Q28.5248 763.498 27.9451 762.854 Q27.3332 762.177 27.2688 761.791 Q27.1722 761.405 27.1722 761.115 Q27.1722 760.245 27.6553 759.73 Q28.1062 759.215 28.9435 759.215 Q29.3944 759.215 40.0223 761.92 L40.0223 756.123 Q40.0223 755.382 40.0545 755.092 Q40.0867 754.77 40.2478 754.512 Q40.4088 754.255 40.7631 754.255 Z" fill="#000000" fill-rule="evenodd" fill-opacity="1" /><path clip-path="url(#clip160)" d="M84.3054 749.091 Q83.9833 749.091 83.1782 748.254 Q72.357 737.626 51.9707 737.626 Q31.52 737.626 21.1819 747.835 Q19.9903 749.091 19.636 749.091 Q18.9919 749.091 18.9919 748.447 Q18.9919 747.996 20.3123 746.418 Q21.6328 744.808 24.6601 742.393 Q27.6875 739.945 31.3911 738.141 Q40.3766 733.794 51.9707 733.794 Q63.1139 733.794 72.0994 737.948 Q75.8674 739.719 79.0236 742.199 Q82.1798 744.679 83.5646 746.322 Q84.9495 747.964 84.9495 748.447 Q84.9495 749.091 84.3054 749.091 Z" fill="#000000" fill-rule="evenodd" fill-opacity="1" /><path clip-path="url(#clip160)" d="M871.976 12.096 L882.994 12.096 L909.811 62.6918 L909.811 12.096 L917.751 12.096 L917.751 72.576 L906.733 72.576 L879.916 21.9802 L879.916 72.576 L871.976 72.576 L871.976 12.096 Z" fill="#000000" fill-rule="evenodd" fill-opacity="1" /><path clip-path="url(#clip160)" d="M932.942 54.671 L932.942 27.2059 L940.396 27.2059 L940.396 54.3874 Q940.396 60.8284 942.907 64.0691 Q945.419 67.2693 950.442 67.2693 Q956.478 67.2693 959.962 63.421 Q963.486 59.5726 963.486 52.9291 L963.486 27.2059 L970.94 27.2059 L970.94 72.576 L963.486 72.576 L963.486 65.6084 Q960.772 69.7404 957.166 71.7658 Q953.602 73.7508 948.862 73.7508 Q941.044 73.7508 936.993 68.8897 Q932.942 64.0286 932.942 54.671 M951.698 26.1121 L951.698 26.1121 Z" fill="#000000" fill-rule="evenodd" fill-opacity="1" /><path clip-path="url(#clip160)" d="M1021.62 35.9153 Q1024.41 30.8922 1028.3 28.5022 Q1032.19 26.1121 1037.46 26.1121 Q1044.54 26.1121 1048.39 31.0947 Q1052.24 36.0368 1052.24 45.1919 L1052.24 72.576 L1044.75 72.576 L1044.75 45.4349 Q1044.75 38.913 1042.44 35.7533 Q1040.13 32.5936 1035.39 32.5936 Q1029.6 32.5936 1026.23 36.4419 Q1022.87 40.2903 1022.87 46.9338 L1022.87 72.576 L1015.38 72.576 L1015.38 45.4349 Q1015.38 38.8725 1013.07 35.7533 Q1010.76 32.5936 1005.94 32.5936 Q1000.23 32.5936 996.865 36.4824 Q993.503 40.3308 993.503 46.9338 L993.503 72.576 L986.009 72.576 L986.009 27.2059 L993.503 27.2059 L993.503 34.2544 Q996.055 30.082 999.62 28.0971 Q1003.18 26.1121 1008.09 26.1121 Q1013.03 26.1121 1016.47 28.6237 Q1019.96 31.1352 1021.62 35.9153 Z" fill="#000000" fill-rule="evenodd" fill-opacity="1" /><path clip-path="url(#clip160)" d="M1099.68 49.9314 Q1099.68 41.7081 1096.27 37.0496 Q1092.91 32.3505 1087 32.3505 Q1081.08 32.3505 1077.68 37.0496 Q1074.32 41.7081 1074.32 49.9314 Q1074.32 58.1548 1077.68 62.8538 Q1081.08 67.5124 1087 67.5124 Q1092.91 67.5124 1096.27 62.8538 Q1099.68 58.1548 1099.68 49.9314 M1074.32 34.0924 Q1076.67 30.0415 1080.23 28.0971 Q1083.84 26.1121 1088.82 26.1121 Q1097.08 26.1121 1102.23 32.6746 Q1107.41 39.2371 1107.41 49.9314 Q1107.41 60.6258 1102.23 67.1883 Q1097.08 73.7508 1088.82 73.7508 Q1083.84 73.7508 1080.23 71.8063 Q1076.67 69.8214 1074.32 65.7705 L1074.32 72.576 L1066.82 72.576 L1066.82 9.54393 L1074.32 9.54393 L1074.32 34.0924 Z" fill="#000000" fill-rule="evenodd" fill-opacity="1" /><path clip-path="url(#clip160)" d="M1158.58 48.0275 L1158.58 51.6733 L1124.31 51.6733 Q1124.79 59.3701 1128.92 63.421 Q1133.1 67.4314 1140.51 67.4314 Q1144.8 67.4314 1148.81 66.3781 Q1152.87 65.3249 1156.84 63.2184 L1156.84 70.267 Q1152.83 71.9684 1148.61 72.8596 Q1144.4 73.7508 1140.06 73.7508 Q1129.21 73.7508 1122.85 67.4314 Q1116.53 61.1119 1116.53 50.3365 Q1116.53 39.1965 1122.52 32.6746 Q1128.56 26.1121 1138.77 26.1121 Q1147.92 26.1121 1153.23 32.0264 Q1158.58 37.9003 1158.58 48.0275 M1151.12 45.84 Q1151.04 39.7232 1147.68 36.0774 Q1144.36 32.4315 1138.85 32.4315 Q1132.61 32.4315 1128.84 35.9558 Q1125.12 39.4801 1124.55 45.8805 L1151.12 45.84 Z" fill="#000000" fill-rule="evenodd" fill-opacity="1" /><path clip-path="url(#clip160)" d="M1197.1 34.1734 Q1195.85 33.4443 1194.35 33.1202 Q1192.89 32.7556 1191.11 32.7556 Q1184.79 32.7556 1181.38 36.8875 Q1178.02 40.9789 1178.02 48.6757 L1178.02 72.576 L1170.53 72.576 L1170.53 27.2059 L1178.02 27.2059 L1178.02 34.2544 Q1180.37 30.1225 1184.14 28.1376 Q1187.91 26.1121 1193.29 26.1121 Q1194.06 26.1121 1195 26.2337 Q1195.93 26.3147 1197.06 26.5172 L1197.1 34.1734 Z" fill="#000000" fill-rule="evenodd" fill-opacity="1" /><path clip-path="url(#clip160)" d="M1248.87 32.4315 Q1242.88 32.4315 1239.39 37.1306 Q1235.91 41.7891 1235.91 49.9314 Q1235.91 58.0738 1239.35 62.7728 Q1242.84 67.4314 1248.87 67.4314 Q1254.83 67.4314 1258.31 62.7323 Q1261.79 58.0333 1261.79 49.9314 Q1261.79 41.8701 1258.31 37.1711 Q1254.83 32.4315 1248.87 32.4315 M1248.87 26.1121 Q1258.59 26.1121 1264.14 32.4315 Q1269.69 38.7509 1269.69 49.9314 Q1269.69 61.0714 1264.14 67.4314 Q1258.59 73.7508 1248.87 73.7508 Q1239.11 73.7508 1233.56 67.4314 Q1228.05 61.0714 1228.05 49.9314 Q1228.05 38.7509 1233.56 32.4315 Q1239.11 26.1121 1248.87 26.1121 Z" fill="#000000" fill-rule="evenodd" fill-opacity="1" /><path clip-path="url(#clip160)" d="M1305.02 9.54393 L1305.02 15.7418 L1297.89 15.7418 Q1293.88 15.7418 1292.3 17.3622 Q1290.76 18.9825 1290.76 23.1955 L1290.76 27.2059 L1303.03 27.2059 L1303.03 32.9987 L1290.76 32.9987 L1290.76 72.576 L1283.26 72.576 L1283.26 32.9987 L1276.13 32.9987 L1276.13 27.2059 L1283.26 27.2059 L1283.26 24.0462 Q1283.26 16.471 1286.79 13.0277 Q1290.31 9.54393 1297.97 9.54393 L1305.02 9.54393 Z" fill="#000000" fill-rule="evenodd" fill-opacity="1" /><path clip-path="url(#clip160)" d="M1337.95 12.096 L1346.13 12.096 L1346.13 72.576 L1337.95 72.576 L1337.95 12.096 Z" fill="#000000" fill-rule="evenodd" fill-opacity="1" /><path clip-path="url(#clip160)" d="M1399.81 45.1919 L1399.81 72.576 L1392.36 72.576 L1392.36 45.4349 Q1392.36 38.994 1389.84 35.7938 Q1387.33 32.5936 1382.31 32.5936 Q1376.27 32.5936 1372.79 36.4419 Q1369.31 40.2903 1369.31 46.9338 L1369.31 72.576 L1361.81 72.576 L1361.81 27.2059 L1369.31 27.2059 L1369.31 34.2544 Q1371.98 30.163 1375.58 28.1376 Q1379.23 26.1121 1383.97 26.1121 Q1391.79 26.1121 1395.8 30.9732 Q1399.81 35.7938 1399.81 45.1919 Z" fill="#000000" fill-rule="evenodd" fill-opacity="1" /><path clip-path="url(#clip160)" d="M1437.64 9.54393 L1437.64 15.7418 L1430.51 15.7418 Q1426.5 15.7418 1424.92 17.3622 Q1423.39 18.9825 1423.39 23.1955 L1423.39 27.2059 L1435.66 27.2059 L1435.66 32.9987 L1423.39 32.9987 L1423.39 72.576 L1415.89 72.576 L1415.89 32.9987 L1408.76 32.9987 L1408.76 27.2059 L1415.89 27.2059 L1415.89 24.0462 Q1415.89 16.471 1419.42 13.0277 Q1422.94 9.54393 1430.6 9.54393 L1437.64 9.54393 Z" fill="#000000" fill-rule="evenodd" fill-opacity="1" /><path clip-path="url(#clip160)" d="M1482.69 48.0275 L1482.69 51.6733 L1448.42 51.6733 Q1448.91 59.3701 1453.04 63.421 Q1457.21 67.4314 1464.62 67.4314 Q1468.92 67.4314 1472.93 66.3781 Q1476.98 65.3249 1480.95 63.2184 L1480.95 70.267 Q1476.94 71.9684 1472.73 72.8596 Q1468.51 73.7508 1464.18 73.7508 Q1453.32 73.7508 1446.96 67.4314 Q1440.64 61.1119 1440.64 50.3365 Q1440.64 39.1965 1446.64 32.6746 Q1452.67 26.1121 1462.88 26.1121 Q1472.04 26.1121 1477.34 32.0264 Q1482.69 37.9003 1482.69 48.0275 M1475.24 45.84 Q1475.16 39.7232 1471.79 36.0774 Q1468.47 32.4315 1462.96 32.4315 Q1456.72 32.4315 1452.96 35.9558 Q1449.23 39.4801 1448.66 45.8805 L1475.24 45.84 Z" fill="#000000" fill-rule="evenodd" fill-opacity="1" /><path clip-path="url(#clip160)" d="M1527.57 28.9478 L1527.57 35.9153 Q1524.41 34.1734 1521.21 33.3227 Q1518.05 32.4315 1514.81 32.4315 Q1507.56 32.4315 1503.55 37.0496 Q1499.54 41.6271 1499.54 49.9314 Q1499.54 58.2358 1503.55 62.8538 Q1507.56 67.4314 1514.81 67.4314 Q1518.05 67.4314 1521.21 66.5807 Q1524.41 65.6895 1527.57 63.9476 L1527.57 70.8341 Q1524.46 72.2924 1521.09 73.0216 Q1517.77 73.7508 1514 73.7508 Q1503.75 73.7508 1497.72 67.3098 Q1491.68 60.8689 1491.68 49.9314 Q1491.68 38.832 1497.76 32.472 Q1503.88 26.1121 1514.49 26.1121 Q1517.93 26.1121 1521.21 26.8413 Q1524.5 27.5299 1527.57 28.9478 Z" fill="#000000" fill-rule="evenodd" fill-opacity="1" /><path clip-path="url(#clip160)" d="M1547.91 14.324 L1547.91 27.2059 L1563.26 27.2059 L1563.26 32.9987 L1547.91 32.9987 L1547.91 57.6282 Q1547.91 63.1779 1549.41 64.7578 Q1550.95 66.3376 1555.61 66.3376 L1563.26 66.3376 L1563.26 72.576 L1555.61 72.576 Q1546.98 72.576 1543.7 69.3758 Q1540.42 66.1351 1540.42 57.6282 L1540.42 32.9987 L1534.95 32.9987 L1534.95 27.2059 L1540.42 27.2059 L1540.42 14.324 L1547.91 14.324 Z" fill="#000000" fill-rule="evenodd" fill-opacity="1" /><path clip-path="url(#clip160)" d="M1573.07 27.2059 L1580.52 27.2059 L1580.52 72.576 L1573.07 72.576 L1573.07 27.2059 M1573.07 9.54393 L1580.52 9.54393 L1580.52 18.9825 L1573.07 18.9825 L1573.07 9.54393 Z" fill="#000000" fill-rule="evenodd" fill-opacity="1" /><path clip-path="url(#clip160)" d="M1613.7 32.4315 Q1607.7 32.4315 1604.22 37.1306 Q1600.73 41.7891 1600.73 49.9314 Q1600.73 58.0738 1604.18 62.7728 Q1607.66 67.4314 1613.7 67.4314 Q1619.65 67.4314 1623.14 62.7323 Q1626.62 58.0333 1626.62 49.9314 Q1626.62 41.8701 1623.14 37.1711 Q1619.65 32.4315 1613.7 32.4315 M1613.7 26.1121 Q1623.42 26.1121 1628.97 32.4315 Q1634.52 38.7509 1634.52 49.9314 Q1634.52 61.0714 1628.97 67.4314 Q1623.42 73.7508 1613.7 73.7508 Q1603.93 73.7508 1598.38 67.4314 Q1592.87 61.0714 1592.87 49.9314 Q1592.87 38.7509 1598.38 32.4315 Q1603.93 26.1121 1613.7 26.1121 Z" fill="#000000" fill-rule="evenodd" fill-opacity="1" /><path clip-path="url(#clip160)" d="M1684.59 45.1919 L1684.59 72.576 L1677.13 72.576 L1677.13 45.4349 Q1677.13 38.994 1674.62 35.7938 Q1672.11 32.5936 1667.09 32.5936 Q1661.05 32.5936 1657.57 36.4419 Q1654.08 40.2903 1654.08 46.9338 L1654.08 72.576 L1646.59 72.576 L1646.59 27.2059 L1654.08 27.2059 L1654.08 34.2544 Q1656.76 30.163 1660.36 28.1376 Q1664.01 26.1121 1668.75 26.1121 Q1676.57 26.1121 1680.58 30.9732 Q1684.59 35.7938 1684.59 45.1919 Z" fill="#000000" fill-rule="evenodd" fill-opacity="1" /><path clip-path="url(#clip160)" d="M1728.38 28.5427 L1728.38 35.5912 Q1725.22 33.9709 1721.82 33.1607 Q1718.41 32.3505 1714.77 32.3505 Q1709.22 32.3505 1706.42 34.0519 Q1703.67 35.7533 1703.67 39.156 Q1703.67 41.7486 1705.65 43.2475 Q1707.64 44.7058 1713.63 46.0426 L1716.18 46.6097 Q1724.12 48.3111 1727.45 51.4303 Q1730.81 54.509 1730.81 60.0587 Q1730.81 66.3781 1725.79 70.0644 Q1720.8 73.7508 1712.05 73.7508 Q1708.41 73.7508 1704.44 73.0216 Q1700.51 72.3329 1696.13 70.9151 L1696.13 63.2184 Q1700.26 65.3654 1704.27 66.4591 Q1708.29 67.5124 1712.21 67.5124 Q1717.48 67.5124 1720.32 65.73 Q1723.15 63.9071 1723.15 60.6258 Q1723.15 57.5877 1721.09 55.9673 Q1719.06 54.3469 1712.13 52.8481 L1709.54 52.2405 Q1702.61 50.7821 1699.54 47.7845 Q1696.46 44.7463 1696.46 39.4801 Q1696.46 33.0797 1700.99 29.5959 Q1705.53 26.1121 1713.88 26.1121 Q1718.01 26.1121 1721.65 26.7198 Q1725.3 27.3274 1728.38 28.5427 Z" fill="#000000" fill-rule="evenodd" fill-opacity="1" /><polyline clip-path="url(#clip162)" style="stroke:#009af9; stroke-linecap:butt; stroke-linejoin:round; stroke-width:4; stroke-opacity:1; fill:none" points="
  250.028,1386.25 250.085,1386.25 250.098,1386.25 250.113,1386.25 250.131,1386.25 250.15,1386.25 250.171,1386.25 250.196,1386.25 250.223,1386.25 250.254,1386.25 
  250.289,1386.25 250.328,1386.25 250.372,1386.25 250.421,1386.25 250.477,1386.25 250.539,1386.26 250.61,1386.26 250.689,1386.26 250.778,1386.26 250.878,1386.26 
  250.991,1386.26 251.118,1386.26 251.26,1386.26 251.421,1386.26 251.602,1386.26 251.805,1386.26 252.03,1386.27 252.276,1386.27 252.542,1386.27 252.825,1386.27 
  253.126,1386.27 253.441,1386.27 253.771,1386.28 254.111,1386.28 254.461,1386.28 254.817,1386.28 255.182,1386.29 255.555,1386.29 255.934,1386.29 256.322,1386.29 
  256.715,1386.29 257.114,1386.3 257.518,1386.3 257.926,1386.3 258.338,1386.3 258.756,1386.31 259.178,1386.31 259.603,1386.31 260.029,1386.31 260.459,1386.32 
  260.89,1386.32 261.322,1386.32 261.759,1386.32 262.203,1386.32 262.653,1386.33 263.111,1386.33 263.575,1386.33 264.045,1386.33 264.52,1386.34 265,1386.34 
  265.485,1386.34 265.972,1386.34 266.462,1386.34 266.956,1386.35 267.457,1386.35 267.961,1386.35 268.47,1386.35 268.982,1386.35 269.493,1386.36 270.007,1386.36 
  270.519,1386.36 271.031,1386.36 271.549,1386.36 272.069,1386.37 272.59,1386.37 273.117,1386.37 273.65,1386.37 274.192,1386.37 274.744,1386.37 275.311,1386.38 
  275.892,1386.38 276.479,1386.38 277.079,1386.38 277.694,1386.38 278.323,1386.38 278.96,1386.38 279.614,1386.38 280.29,1386.38 280.982,1386.39 281.682,1386.39 
  282.391,1386.39 283.115,1386.39 283.852,1386.39 284.605,1386.39 285.376,1386.39 286.155,1386.39 286.942,1386.39 287.738,1386.39 288.545,1386.39 289.367,1386.39 
  290.198,1386.39 291.044,1386.39 291.9,1386.39 292.748,1386.39 293.585,1386.39 294.427,1386.39 295.265,1386.39 296.101,1386.39 296.95,1386.39 297.808,1386.4 
  298.663,1386.4 299.531,1386.4 300.413,1386.4 301.302,1386.4 302.194,1386.4 303.108,1386.4 304.031,1386.39 304.977,1386.39 305.944,1386.39 306.93,1386.39 
  307.928,1386.39 308.961,1386.39 310.013,1386.39 311.084,1386.39 312.182,1386.39 313.307,1386.38 314.452,1386.38 315.608,1386.38 316.786,1386.38 317.981,1386.38 
  319.198,1386.37 320.407,1386.37 321.634,1386.37 322.877,1386.37 324.161,1386.37 325.497,1386.36 326.868,1386.36 328.292,1386.35 329.808,1386.35 331.356,1386.34 
  332.998,1386.34 334.728,1386.33 336.554,1386.32 338.513,1386.31 340.59,1386.3 342.887,1386.29 345.164,1386.28 347.558,1386.27 349.876,1386.26 352.267,1386.24 
  354.678,1386.23 357.184,1386.22 359.671,1386.21 362.241,1386.19 365.016,1386.17 367.994,1386.15 371.344,1386.13 375.073,1386.1 378.984,1386.06 383.383,1386.03 
  388.332,1385.98 393.115,1385.94 398.174,1385.88 403.865,1385.82 410.267,1385.74 417.47,1385.65 421.354,1385.6 425.724,1385.54 430.64,1385.46 436.17,1385.38 
  441.691,1385.3 447.902,1385.2 454.889,1385.08 461.206,1384.96 468.312,1384.82 475.363,1384.67 483.295,1384.5 489.855,1384.34 497.236,1384.14 505.539,1383.91 
  513.555,1383.68 522.573,1383.39 532.718,1382.98 540.992,1382.6 549.663,1382.11 554.649,1381.78 559.253,1381.44 563.43,1381.14 567.537,1380.83 571.686,1380.51 
  575.969,1380.2 580.777,1379.84 585.755,1379.42 590.763,1378.98 595.85,1378.49 600.796,1378.01 605.596,1377.54 610.995,1376.99 616.62,1376.43 622.948,1375.81 
  630.066,1375.03 638.075,1374.06 645.762,1372.97 652.024,1372.05 659.046,1370.96 665.856,1369.88 673.518,1368.7 682.137,1367.46 687.892,1366.59 694.365,1365.59 
  700.067,1364.75 705.521,1363.85 711.648,1362.75 718.541,1361.47 725.252,1359.98 732.802,1358.13 741.295,1355.82 750.851,1352.95 758.864,1350.55 767.878,1347.98 
  775.679,1345.71 783.079,1343.32 791.258,1340.62 799.152,1337.97 806.77,1335.23 814.477,1332.61 820.239,1330.9 825.206,1329.29 829.998,1327.47 835.112,1325.34 
  840.865,1322.75 847.141,1319.54 854.202,1315.48 862.145,1310.57 871.082,1304.7 881.135,1298.12 888.984,1292.29 897.815,1285.54 907.671,1278.05 915.634,1272.22 
  922.67,1267.06 929.364,1262.24 935.651,1256.6 942.724,1248.52 950.682,1238.64 958.256,1229.24 966.777,1217.64 975.825,1203.85 984.395,1189.41 991.775,1176.1 
  999.41,1162.76 1008,1146.57 1016.22,1128.86 1023.82,1113.14 1031.73,1096.79 1039.87,1078.28 1047.58,1057.57 1054.72,1036.83 1061.02,1017.65 1067.28,996.366 
  1072.84,974.729 1077.68,956.401 1082.4,937.8 1086.88,919.597 1091.1,902.007 1095.08,884.983 1099.01,867.142 1102.74,849.099 1106.19,832.348 1109.55,816.703 
  1112.85,800.739 1116.17,785.206 1119.42,770.742 1122.82,756.391 1126.31,741.791 1129.84,726.512 1133.3,712.861 1136.87,698.579 1140.48,683.888 1144.07,668.507 
  1147.59,652.662 1151.04,637.186 1154.44,621.167 1157.78,604.799 1161,588.583 1164.13,573.193 1167.22,559.334 1170.36,545.449 1173.52,531.168 1176.58,518.517 
  1179.7,505.83 1182.82,493.902 1185.94,481.616 1189.04,469.291 1192.09,457.998 1195.17,447.837 1198.24,438.289 1201.31,428.52 1204.37,419.059 1207.41,410.536 
  1210.44,402.427 1213.46,395.089 1216.46,388.625 1219.43,383.44 1222.35,379.394 1225.21,375.401 1228.02,372.616 1230.77,370.776 1233.43,370.713 1235.92,371.163 
  1238.34,371.583 1240.7,371.89 1243.03,372.501 1245.31,373.446 1247.54,375.257 1249.68,377.635 1251.73,380.038 1253.77,382.639 1255.71,384.73 1257.68,386.937 
  1259.63,389.283 1261.55,391.38 1263.49,392.871 1265.48,394.216 1267.51,395.021 1269.63,395.183 1271.86,395.996 1274.1,396.656 1276.39,396.459 1278.78,396.455 
  1281.23,397.187 1283.67,398.579 1286.07,400.672 1288.46,402.772 1290.8,404.418 1293.24,406.873 1295.58,409.256 1297.96,412.252 1300.26,415.864 1302.49,419.326 
  1304.72,422.607 1306.92,425.778 1309.16,429.528 1311.34,433.291 1313.51,436.259 1315.79,438.958 1318.13,442.025 1320.48,445.117 1322.86,447.997 1325.31,451.009 
  1327.77,455.341 1330.13,459.735 1332.46,463.345 1334.86,466.92 1337.29,469.827 1339.85,472.8 1342.51,476.575 1345.16,481.401 1347.71,486.705 1350.13,492.783 
  1352.45,498.467 1354.69,504.127 1356.91,509.868 1359.06,514.937 1361.25,520.201 1363.43,525.476 1365.58,530.99 1367.69,535.507 1369.89,539.23 1372.3,543.108 
  1374.82,546.658 1377.52,550.854 1380.26,554.556 1383.19,558.608 1386.19,563.833 1389.18,569.885 1392,575.835 1394.87,581.152 1397.78,586.083 1400.92,590.959 
  1404.15,596.493 1407.45,601.662 1410.86,607.171 1414.36,614.193 1417.74,622.331 1420.77,628.954 1423.94,635.185 1427.29,641.52 1430.7,647.277 1434.29,652.503 
  1438.15,658.721 1442.09,666.246 1445.88,672.935 1449.88,679.704 1454.05,686.714 1458.33,693.928 1462.6,700.454 1467.16,707.595 1471.83,716.711 1476.41,725.358 
  1480.97,733.5 1485.81,742.009 1490.71,748.78 1495.79,756.025 1500.92,763.324 1506.08,771.466 1511.41,780.642 1516.91,790.253 1522.48,800.097 1528.22,809.298 
  1534.04,818.183 1539.84,828.294 1545.93,840.581 1551.68,852.405 1557.38,864.301 1562.99,875.601 1568.62,885.526 1574.95,895.975 1581.41,904.569 1587.45,911.638 
  1592.6,917.113 1597.81,922.815 1602.36,928.803 1607.41,935.362 1612.38,941.39 1617.32,946.952 1621.67,951.67 1626.14,956.811 1630.28,962.262 1634.72,968.493 
  1639.61,975.838 1645.05,983.237 1650.22,989.691 1654.98,995.678 1659.78,1001.44 1664.5,1006.81 1668.84,1012.25 1673.58,1017.57 1678.08,1022.43 1682.07,1026.59 
  1686.21,1030.67 1689.9,1034.26 1693.44,1037.9 1697.07,1041.42 1700.58,1044.98 1703.92,1048.35 1707.42,1051.87 1710.69,1055.24 1714.11,1058.67 1717.43,1061.99 
  1720.76,1065.49 1724.24,1069.34 1727.74,1073.43 1731.61,1078.23 1735.86,1083.57 1740.48,1089.69 1745.68,1096.1 1751.11,1102.81 1756.86,1110.06 1762.93,1117.62 
  1769.77,1126.19 1777.3,1136.35 1785.77,1147.36 1793.25,1157.27 1801.04,1167.67 1807.04,1174.69 1813.79,1182.54 1820.39,1189.9 1827.27,1197.08 1835,1204.54 
  1843.7,1212.31 1853.49,1220.81 1864.5,1230.22 1876.46,1239.95 1889.91,1250.04 1905.03,1260.12 1921.31,1270.41 1932.67,1277.56 1945.45,1285.52 1955.89,1291.21 
  1967.64,1297.23 1980.85,1303.72 1995.23,1310.18 2011.42,1317.12 2029.12,1324.34 2034.58,1326.55 2039.37,1328.42 2044.39,1330.29 2049.12,1332.01 2053.85,1333.65 
  2058.72,1335.34 2063.1,1336.8 2067.54,1338.21 2072.28,1339.65 2077.08,1341.05 2082.29,1342.52 2087.52,1343.97 2092.74,1345.4 2097.47,1346.69 2101.99,1347.9 
  2106.28,1349 2110.38,1349.99 2114.84,1351 2119.85,1352.13 2124.76,1353.17 2130.03,1354.28 2135.42,1355.39 2140.68,1356.44 2145.84,1357.43 2150.95,1358.35 
  2156.41,1359.25 2162.56,1360.17 2169.48,1361.21 2177.26,1362.32 2186.02,1363.53 2195.87,1364.81 2206.94,1366.2 2219.41,1367.69 2227.4,1368.63 2235.04,1369.48 
  2242.42,1370.24 2250.71,1371.03 2260.05,1371.89 2270.55,1372.79 2282.36,1373.74 2293.81,1374.6 2306.68,1375.41 2314.39,1375.84 2319.35,1376.12 2324.93,1376.42 
  2330.93,1376.73 2336.68,1377.04 2342.87,1377.35 2349.46,1377.65 2352.76,1377.8 
  "/>
<polyline clip-path="url(#clip162)" style="stroke:#e26f46; stroke-linecap:butt; stroke-linejoin:round; stroke-width:4; stroke-opacity:1; fill:none" points="
  250.028,1386.25 250.085,1386.25 250.098,1386.25 250.113,1386.25 250.131,1386.25 250.15,1386.25 250.171,1386.25 250.196,1386.25 250.223,1386.25 250.254,1386.25 
  250.289,1386.25 250.328,1386.25 250.372,1386.25 250.421,1386.25 250.477,1386.25 250.539,1386.26 250.61,1386.26 250.689,1386.26 250.778,1386.26 250.878,1386.26 
  250.991,1386.26 251.117,1386.26 251.26,1386.26 251.421,1386.26 251.601,1386.26 251.804,1386.26 252.03,1386.27 252.276,1386.27 252.541,1386.27 252.824,1386.27 
  253.124,1386.27 253.437,1386.27 253.764,1386.28 254.103,1386.28 254.456,1386.28 254.819,1386.28 255.191,1386.29 255.574,1386.29 255.966,1386.29 256.368,1386.29 
  256.778,1386.29 257.196,1386.3 257.624,1386.3 258.061,1386.3 258.504,1386.3 258.954,1386.3 259.411,1386.31 259.876,1386.31 260.349,1386.31 260.827,1386.31 
  261.303,1386.31 261.786,1386.32 262.272,1386.32 262.765,1386.32 263.261,1386.32 263.761,1386.33 264.263,1386.33 264.766,1386.33 265.279,1386.33 265.798,1386.33 
  266.323,1386.34 266.853,1386.34 267.392,1386.34 267.936,1386.34 268.484,1386.34 269.041,1386.34 269.608,1386.35 270.184,1386.35 270.771,1386.35 271.364,1386.35 
  271.965,1386.35 272.571,1386.35 273.185,1386.35 273.813,1386.36 274.46,1386.36 275.125,1386.36 275.803,1386.36 276.497,1386.36 277.206,1386.36 277.93,1386.36 
  278.668,1386.36 279.413,1386.36 280.173,1386.36 280.942,1386.36 281.714,1386.36 282.481,1386.36 283.255,1386.37 284.038,1386.37 284.832,1386.37 285.638,1386.37 
  286.464,1386.37 287.307,1386.37 288.17,1386.37 289.048,1386.37 289.936,1386.37 290.828,1386.37 291.739,1386.37 292.652,1386.37 293.575,1386.37 294.517,1386.36 
  295.471,1386.36 296.452,1386.36 297.441,1386.36 298.439,1386.36 299.453,1386.36 300.493,1386.36 301.561,1386.36 302.628,1386.36 303.687,1386.36 304.771,1386.36 
  305.874,1386.35 306.979,1386.35 308.127,1386.35 309.305,1386.35 310.514,1386.35 311.761,1386.34 313.045,1386.34 314.327,1386.34 315.676,1386.33 317.069,1386.33 
  318.512,1386.32 320.027,1386.32 321.524,1386.31 323.074,1386.31 324.693,1386.3 326.27,1386.3 327.912,1386.29 329.601,1386.29 331.362,1386.28 333.161,1386.27 
  335.084,1386.26 337.054,1386.25 339.15,1386.24 341.435,1386.23 343.887,1386.22 346.444,1386.2 348.842,1386.19 351.285,1386.17 353.97,1386.16 356.992,1386.13 
  360.391,1386.1 364.215,1386.06 368.517,1386.02 373.357,1385.97 377.803,1385.93 382.804,1385.87 388.431,1385.81 394.229,1385.75 400.493,1385.68 407.541,1385.58 
  415.469,1385.45 424.389,1385.28 428.268,1385.2 432.631,1385.1 436.668,1385.01 441.21,1384.89 445.578,1384.79 450.492,1384.66 455.807,1384.51 461.404,1384.36 
  467.701,1384.17 474.785,1383.93 480.459,1383.72 485.973,1383.49 491.123,1383.26 496.33,1383.01 500.939,1382.78 505.738,1382.5 509.973,1382.25 514.071,1382.01 
  518.381,1381.74 522.514,1381.46 526.598,1381.19 530.84,1380.9 535.573,1380.56 540.188,1380.21 544.744,1379.85 549.804,1379.4 554.307,1379.01 558.965,1378.62 
  564.204,1378.16 570.099,1377.61 575.307,1377.05 580.76,1376.42 585.825,1375.81 591.052,1375.12 596.047,1374.46 601.656,1373.62 606.473,1372.92 611.891,1372.06 
  617.463,1371.16 623.32,1370.19 629.565,1369.13 636.591,1367.82 644.48,1366.16 651.355,1364.57 657.729,1363.02 664.381,1361.21 671.004,1359.2 676.697,1357.42 
  682.494,1355.45 688.29,1353.22 693.42,1351.01 697.998,1348.93 702.378,1346.7 706.416,1344.54 710.155,1342.39 713.665,1340.41 717.27,1338.42 720.967,1336.39 
  725.126,1333.95 729.19,1331.46 733.186,1328.95 737.355,1326.2 741.562,1323.29 745.709,1320.19 749.813,1316.95 753.719,1313.79 757.864,1310.41 762.057,1307.2 
  766.774,1303.4 772.08,1298.9 776.971,1294.96 782.473,1290.65 788.663,1285.43 795.626,1278.8 802.499,1271.24 808.41,1264.35 814.263,1257.2 820.635,1249.39 
  827.524,1239.48 833.951,1229.65 839.762,1220.1 845.736,1210.05 851.32,1200.69 857.602,1189.91 864.197,1176.1 869.633,1163.64 874.521,1151.98 879.438,1140.05 
  884.247,1127.18 888.7,1114.21 892.82,1101.64 896.715,1089.53 900.564,1077.97 904.527,1066.16 908.649,1053.4 912.772,1039.31 916.631,1026.05 920.414,1013.47 
  924.435,1000.53 928.741,987.09 933.19,973.597 938.004,957.375 942.584,940.726 946.962,926.647 951.737,910.812 956.498,893.837 961.182,878.67 965.912,863.781 
  970.693,849.103 975.433,834.054 980.053,817.001 984.598,800.445 989.15,782.574 993.556,763.951 997.723,746.504 1001.82,728.498 1005.82,710.008 1009.57,690.333 
  1013.11,671.392 1016.45,652.207 1019.61,633.284 1022.54,615.341 1025.4,595.716 1028.04,577.388 1030.51,560.595 1032.96,543.969 1035.31,528.56 1037.67,514.411 
  1040.06,499.476 1042.42,483.93 1044.67,469.117 1046.92,453.725 1049.1,440.147 1051.31,427.236 1053.56,414.793 1055.86,402.439 1058.17,390.327 1060.53,378.996 
  1062.93,366.743 1065.34,353.18 1067.66,339.957 1069.97,327.22 1072.27,314.641 1074.54,302.899 1076.87,291.487 1079.19,281.679 1081.57,272.903 1084.01,264.006 
  1086.46,256.279 1088.95,249.452 1091.46,242.927 1093.98,236.06 1096.52,229.644 1099.07,224.505 1101.61,218.937 1104.17,212.527 1106.74,206.401 1109.31,201.172 
  1111.88,196.821 1114.45,192.137 1117.03,188.186 1119.61,185.762 1122.18,182.498 1124.75,179.964 1127.32,178.726 1129.87,178.276 1132.4,177.52 1134.93,175.757 
  1137.49,173.38 1140.07,171.339 1142.65,169.04 1145.25,166.781 1147.85,164.77 1150.46,162.543 1153.07,160.909 1155.69,160.256 1158.33,160.394 1160.96,162.091 
  1163.56,165.569 1166.11,169.048 1168.63,172.942 1171.16,177.639 1173.62,182.531 1176.06,186.24 1178.56,190.395 1181.06,193.834 1183.63,197.946 1186.19,202.929 
  1188.7,207.358 1191.27,211.134 1193.92,216.828 1196.5,222.695 1199.04,227.745 1201.65,232.215 1204.34,236.354 1207.08,239.659 1209.87,244.457 1212.69,251.595 
  1215.42,258.224 1218.18,263.768 1221.03,269.462 1223.92,275.813 1226.81,282.472 1229.74,289.094 1232.71,295.871 1235.73,303.757 1238.7,312.482 1241.63,321.24 
  1244.58,329.166 1247.63,337.166 1250.71,345.704 1253.78,354.555 1256.88,364.619 1259.91,374.773 1262.92,384.127 1266,392.299 1269.24,401.645 1272.49,411.983 
  1275.73,423.009 1278.86,434.205 1281.94,445.942 1284.94,457.126 1287.9,467.907 1290.88,478.168 1293.95,488.291 1297.14,497.854 1300.55,506.882 1304.1,516.744 
  1307.75,527.244 1311.46,537.571 1315.3,547.827 1319.23,557.764 1323.22,568.187 1327.32,578.689 1331.44,588.772 1335.67,598.944 1339.78,610.173 1344.19,621.674 
  1348.58,634.166 1353.13,646.49 1357.76,658.311 1362.34,669.832 1366.92,681.036 1371.46,693.252 1376.23,705.633 1381.14,718.37 1385.98,730.226 1390.84,741.388 
  1395.5,751.642 1400.05,762.236 1404.43,773.273 1409.34,786.095 1414.34,799.237 1419.73,813.685 1425.28,828.698 1431.06,843.237 1436.95,857.71 1442.97,872.366 
  1449.28,886.41 1455.36,899.437 1461.11,911.496 1466.72,923.656 1473.02,937.045 1479.08,950.906 1485.9,967.198 1492.55,982.044 1499.93,998.238 1507.51,1013.64 
  1515.76,1030.38 1524.38,1047.67 1532.73,1063.29 1541.48,1078.35 1551.33,1094.46 1560.77,1110.29 1571.03,1126.88 1579.75,1139.61 1589.56,1154.13 1598.46,1165.9 
  1607.94,1177.18 1617.96,1188.61 1627.3,1199.69 1637.81,1211.53 1646.54,1220.04 1656.35,1228.88 1664.17,1235.73 1672.97,1243.01 1682.07,1249.54 1687.36,1252.93 
  1692.1,1256.01 1697.02,1259.08 1701.41,1261.72 1705.81,1264.24 1709.71,1266.49 1713.6,1268.7 1717.37,1270.87 1721.3,1273.12 1725.04,1275.2 1728.87,1277.36 
  1732.7,1279.43 1736.71,1281.48 1740.25,1283.31 1743.97,1285.15 1747.48,1286.94 1751.18,1288.74 1754.78,1290.46 1758.34,1292.06 1761.74,1293.48 1764.8,1294.82 
  1767.99,1296.21 1771.2,1297.6 1774.29,1298.99 1777.7,1300.6 1781.42,1302.29 1785.41,1304.11 1789.55,1306.07 1794.22,1308.26 1799.47,1310.57 1804.06,1312.46 
  1808.7,1314.31 1813.24,1316.15 1818.33,1318.19 1824.07,1320.48 1830.2,1322.85 1837.1,1325.31 1842.81,1327.32 1849.23,1329.57 1856.14,1331.87 1863.61,1334.05 
  1869.75,1335.8 1875.54,1337.44 1881.72,1339.16 1888.68,1340.94 1894.22,1342.22 1899.16,1343.38 1903.99,1344.49 1908.9,1345.64 1913.84,1346.79 1919.33,1348.03 
  1925.11,1349.33 1931.42,1350.79 1938.52,1352.31 1946.5,1353.93 1952.21,1355.1 1958.63,1356.39 1965.86,1357.84 1970.86,1358.8 1976.48,1359.86 1982.3,1360.95 
  1987.84,1361.95 1993.42,1362.91 1998.98,1363.8 2005.23,1364.78 2011.52,1365.73 2017.3,1366.59 2023.37,1367.5 2027.98,1368.14 2033.18,1368.84 2038,1369.43 
  2043.43,1370.06 2049.53,1370.69 2056.4,1371.37 2062.17,1371.92 2068.66,1372.51 2075.97,1373.14 2082.28,1373.68 2089.37,1374.27 2097.35,1374.88 2106.33,1375.54 
  2115.92,1376.19 2124.53,1376.75 2132.76,1377.3 2142.01,1377.87 2148.46,1378.22 2155.31,1378.59 2162.27,1378.94 2170.11,1379.33 2177.44,1379.68 2185.69,1380.1 
  2194.05,1380.52 2199.93,1380.8 2205.39,1381.03 2211.53,1381.27 2218.44,1381.53 2226.21,1381.82 2231.59,1382.02 2236.2,1382.19 2241.11,1382.35 2246.63,1382.53 
  2252.83,1382.73 2258.4,1382.89 2264.67,1383.06 2271.73,1383.24 2278.99,1383.41 2284.72,1383.54 2291.17,1383.68 2298.43,1383.85 2306.59,1384.02 2315.77,1384.21 
  2326.09,1384.41 2337.7,1384.61 2350.24,1384.81 2352.76,1384.84 
  "/>
<path clip-path="url(#clip160)" d="
M1773.96 322.316 L2282.66 322.316 L2282.66 166.796 L1773.96 166.796  Z
  " fill="#ffffff" fill-rule="evenodd" fill-opacity="1"/>
<polyline clip-path="url(#clip160)" style="stroke:#000000; stroke-linecap:butt; stroke-linejoin:round; stroke-width:4; stroke-opacity:1; fill:none" points="
  1773.96,322.316 2282.66,322.316 2282.66,166.796 1773.96,166.796 1773.96,322.316 
  "/>
<polyline clip-path="url(#clip160)" style="stroke:#009af9; stroke-linecap:butt; stroke-linejoin:round; stroke-width:4; stroke-opacity:1; fill:none" points="
  1797.32,218.636 1937.51,218.636 
  "/>
<path clip-path="url(#clip160)" d="M1960.87 201.356 L1990.11 201.356 L1990.11 205.291 L1977.84 205.291 L1977.84 235.916 L1973.14 235.916 L1973.14 205.291 L1960.87 205.291 L1960.87 201.356 Z" fill="#000000" fill-rule="evenodd" fill-opacity="1" /><path clip-path="url(#clip160)" d="M2002.49 213.971 Q2001.77 213.555 2000.92 213.37 Q2000.08 213.161 1999.06 213.161 Q1995.45 213.161 1993.51 215.522 Q1991.59 217.86 1991.59 222.258 L1991.59 235.916 L1987.3 235.916 L1987.3 209.99 L1991.59 209.99 L1991.59 214.018 Q1992.93 211.657 1995.08 210.522 Q1997.24 209.365 2000.31 209.365 Q2000.75 209.365 2001.29 209.434 Q2001.82 209.481 2002.47 209.596 L2002.49 213.971 Z" fill="#000000" fill-rule="evenodd" fill-opacity="1" /><path clip-path="url(#clip160)" d="M2018.74 222.883 Q2013.58 222.883 2011.59 224.064 Q2009.6 225.244 2009.6 228.092 Q2009.6 230.36 2011.08 231.703 Q2012.58 233.022 2015.15 233.022 Q2018.69 233.022 2020.82 230.522 Q2022.98 227.999 2022.98 223.832 L2022.98 222.883 L2018.74 222.883 M2027.24 221.124 L2027.24 235.916 L2022.98 235.916 L2022.98 231.981 Q2021.52 234.342 2019.34 235.476 Q2017.17 236.587 2014.02 236.587 Q2010.04 236.587 2007.68 234.365 Q2005.34 232.119 2005.34 228.369 Q2005.34 223.994 2008.25 221.772 Q2011.19 219.55 2017 219.55 L2022.98 219.55 L2022.98 219.133 Q2022.98 216.194 2021.03 214.596 Q2019.11 212.976 2015.61 212.976 Q2013.39 212.976 2011.29 213.508 Q2009.18 214.041 2007.24 215.106 L2007.24 211.17 Q2009.57 210.268 2011.77 209.828 Q2013.97 209.365 2016.05 209.365 Q2021.68 209.365 2024.46 212.282 Q2027.24 215.198 2027.24 221.124 Z" fill="#000000" fill-rule="evenodd" fill-opacity="1" /><path clip-path="url(#clip160)" d="M2036.01 209.99 L2040.27 209.99 L2040.27 236.379 Q2040.27 241.332 2038.37 243.555 Q2036.49 245.777 2032.3 245.777 L2030.68 245.777 L2030.68 242.166 L2031.82 242.166 Q2034.25 242.166 2035.13 241.031 Q2036.01 239.92 2036.01 236.379 L2036.01 209.99 M2036.01 199.897 L2040.27 199.897 L2040.27 205.291 L2036.01 205.291 L2036.01 199.897 Z" fill="#000000" fill-rule="evenodd" fill-opacity="1" /><path clip-path="url(#clip160)" d="M2071.36 221.888 L2071.36 223.971 L2051.77 223.971 Q2052.05 228.369 2054.41 230.684 Q2056.8 232.976 2061.03 232.976 Q2063.48 232.976 2065.78 232.374 Q2068.09 231.772 2070.36 230.569 L2070.36 234.596 Q2068.07 235.568 2065.66 236.078 Q2063.25 236.587 2060.78 236.587 Q2054.57 236.587 2050.94 232.976 Q2047.33 229.365 2047.33 223.207 Q2047.33 216.842 2050.75 213.115 Q2054.2 209.365 2060.04 209.365 Q2065.27 209.365 2068.3 212.745 Q2071.36 216.101 2071.36 221.888 M2067.1 220.638 Q2067.05 217.143 2065.13 215.059 Q2063.23 212.976 2060.08 212.976 Q2056.52 212.976 2054.36 214.99 Q2052.23 217.004 2051.91 220.661 L2067.1 220.638 Z" fill="#000000" fill-rule="evenodd" fill-opacity="1" /><path clip-path="url(#clip160)" d="M2097 210.985 L2097 214.967 Q2095.2 213.971 2093.37 213.485 Q2091.56 212.976 2089.71 212.976 Q2085.57 212.976 2083.28 215.615 Q2080.98 218.231 2080.98 222.976 Q2080.98 227.721 2083.28 230.36 Q2085.57 232.976 2089.71 232.976 Q2091.56 232.976 2093.37 232.49 Q2095.2 231.981 2097 230.985 L2097 234.92 Q2095.22 235.754 2093.3 236.17 Q2091.4 236.587 2089.25 236.587 Q2083.39 236.587 2079.94 232.906 Q2076.49 229.226 2076.49 222.976 Q2076.49 216.633 2079.97 212.999 Q2083.46 209.365 2089.53 209.365 Q2091.49 209.365 2093.37 209.782 Q2095.24 210.175 2097 210.985 Z" fill="#000000" fill-rule="evenodd" fill-opacity="1" /><path clip-path="url(#clip160)" d="M2108.62 202.629 L2108.62 209.99 L2117.4 209.99 L2117.4 213.3 L2108.62 213.3 L2108.62 227.374 Q2108.62 230.545 2109.48 231.448 Q2110.36 232.351 2113.02 232.351 L2117.4 232.351 L2117.4 235.916 L2113.02 235.916 Q2108.09 235.916 2106.22 234.087 Q2104.34 232.235 2104.34 227.374 L2104.34 213.3 L2101.22 213.3 L2101.22 209.99 L2104.34 209.99 L2104.34 202.629 L2108.62 202.629 Z" fill="#000000" fill-rule="evenodd" fill-opacity="1" /><path clip-path="url(#clip160)" d="M2133.04 212.976 Q2129.62 212.976 2127.63 215.661 Q2125.64 218.323 2125.64 222.976 Q2125.64 227.629 2127.6 230.314 Q2129.6 232.976 2133.04 232.976 Q2136.45 232.976 2138.44 230.291 Q2140.43 227.606 2140.43 222.976 Q2140.43 218.37 2138.44 215.684 Q2136.45 212.976 2133.04 212.976 M2133.04 209.365 Q2138.6 209.365 2141.77 212.976 Q2144.94 216.587 2144.94 222.976 Q2144.94 229.342 2141.77 232.976 Q2138.6 236.587 2133.04 236.587 Q2127.47 236.587 2124.29 232.976 Q2121.15 229.342 2121.15 222.976 Q2121.15 216.587 2124.29 212.976 Q2127.47 209.365 2133.04 209.365 Z" fill="#000000" fill-rule="evenodd" fill-opacity="1" /><path clip-path="url(#clip160)" d="M2167.03 213.971 Q2166.31 213.555 2165.45 213.37 Q2164.62 213.161 2163.6 213.161 Q2159.99 213.161 2158.04 215.522 Q2156.12 217.86 2156.12 222.258 L2156.12 235.916 L2151.84 235.916 L2151.84 209.99 L2156.12 209.99 L2156.12 214.018 Q2157.47 211.657 2159.62 210.522 Q2161.77 209.365 2164.85 209.365 Q2165.29 209.365 2165.82 209.434 Q2166.35 209.481 2167 209.596 L2167.03 213.971 Z" fill="#000000" fill-rule="evenodd" fill-opacity="1" /><path clip-path="url(#clip160)" d="M2182.28 238.323 Q2180.48 242.953 2178.76 244.365 Q2177.05 245.777 2174.18 245.777 L2170.78 245.777 L2170.78 242.212 L2173.28 242.212 Q2175.04 242.212 2176.01 241.379 Q2176.98 240.545 2178.16 237.443 L2178.92 235.499 L2168.44 209.99 L2172.95 209.99 L2181.05 230.268 L2189.16 209.99 L2193.67 209.99 L2182.28 238.323 Z" fill="#000000" fill-rule="evenodd" fill-opacity="1" /><path clip-path="url(#clip160)" d="M2216.03 231.981 L2223.67 231.981 L2223.67 205.615 L2215.36 207.282 L2215.36 203.022 L2223.62 201.356 L2228.3 201.356 L2228.3 231.981 L2235.94 231.981 L2235.94 235.916 L2216.03 235.916 L2216.03 231.981 Z" fill="#000000" fill-rule="evenodd" fill-opacity="1" /><polyline clip-path="url(#clip160)" style="stroke:#e26f46; stroke-linecap:butt; stroke-linejoin:round; stroke-width:4; stroke-opacity:1; fill:none" points="
  1797.32,270.476 1937.51,270.476 
  "/>
<path clip-path="url(#clip160)" d="M1960.87 253.196 L1990.11 253.196 L1990.11 257.131 L1977.84 257.131 L1977.84 287.756 L1973.14 287.756 L1973.14 257.131 L1960.87 257.131 L1960.87 253.196 Z" fill="#000000" fill-rule="evenodd" fill-opacity="1" /><path clip-path="url(#clip160)" d="M2002.49 265.811 Q2001.77 265.395 2000.92 265.21 Q2000.08 265.001 1999.06 265.001 Q1995.45 265.001 1993.51 267.362 Q1991.59 269.7 1991.59 274.098 L1991.59 287.756 L1987.3 287.756 L1987.3 261.83 L1991.59 261.83 L1991.59 265.858 Q1992.93 263.497 1995.08 262.362 Q1997.24 261.205 2000.31 261.205 Q2000.75 261.205 2001.29 261.274 Q2001.82 261.321 2002.47 261.436 L2002.49 265.811 Z" fill="#000000" fill-rule="evenodd" fill-opacity="1" /><path clip-path="url(#clip160)" d="M2018.74 274.723 Q2013.58 274.723 2011.59 275.904 Q2009.6 277.084 2009.6 279.932 Q2009.6 282.2 2011.08 283.543 Q2012.58 284.862 2015.15 284.862 Q2018.69 284.862 2020.82 282.362 Q2022.98 279.839 2022.98 275.672 L2022.98 274.723 L2018.74 274.723 M2027.24 272.964 L2027.24 287.756 L2022.98 287.756 L2022.98 283.821 Q2021.52 286.182 2019.34 287.316 Q2017.17 288.427 2014.02 288.427 Q2010.04 288.427 2007.68 286.205 Q2005.34 283.959 2005.34 280.209 Q2005.34 275.834 2008.25 273.612 Q2011.19 271.39 2017 271.39 L2022.98 271.39 L2022.98 270.973 Q2022.98 268.034 2021.03 266.436 Q2019.11 264.816 2015.61 264.816 Q2013.39 264.816 2011.29 265.348 Q2009.18 265.881 2007.24 266.946 L2007.24 263.01 Q2009.57 262.108 2011.77 261.668 Q2013.97 261.205 2016.05 261.205 Q2021.68 261.205 2024.46 264.122 Q2027.24 267.038 2027.24 272.964 Z" fill="#000000" fill-rule="evenodd" fill-opacity="1" /><path clip-path="url(#clip160)" d="M2036.01 261.83 L2040.27 261.83 L2040.27 288.219 Q2040.27 293.172 2038.37 295.395 Q2036.49 297.617 2032.3 297.617 L2030.68 297.617 L2030.68 294.006 L2031.82 294.006 Q2034.25 294.006 2035.13 292.871 Q2036.01 291.76 2036.01 288.219 L2036.01 261.83 M2036.01 251.737 L2040.27 251.737 L2040.27 257.131 L2036.01 257.131 L2036.01 251.737 Z" fill="#000000" fill-rule="evenodd" fill-opacity="1" /><path clip-path="url(#clip160)" d="M2071.36 273.728 L2071.36 275.811 L2051.77 275.811 Q2052.05 280.209 2054.41 282.524 Q2056.8 284.816 2061.03 284.816 Q2063.48 284.816 2065.78 284.214 Q2068.09 283.612 2070.36 282.409 L2070.36 286.436 Q2068.07 287.408 2065.66 287.918 Q2063.25 288.427 2060.78 288.427 Q2054.57 288.427 2050.94 284.816 Q2047.33 281.205 2047.33 275.047 Q2047.33 268.682 2050.75 264.955 Q2054.2 261.205 2060.04 261.205 Q2065.27 261.205 2068.3 264.585 Q2071.36 267.941 2071.36 273.728 M2067.1 272.478 Q2067.05 268.983 2065.13 266.899 Q2063.23 264.816 2060.08 264.816 Q2056.52 264.816 2054.36 266.83 Q2052.23 268.844 2051.91 272.501 L2067.1 272.478 Z" fill="#000000" fill-rule="evenodd" fill-opacity="1" /><path clip-path="url(#clip160)" d="M2097 262.825 L2097 266.807 Q2095.2 265.811 2093.37 265.325 Q2091.56 264.816 2089.71 264.816 Q2085.57 264.816 2083.28 267.455 Q2080.98 270.071 2080.98 274.816 Q2080.98 279.561 2083.28 282.2 Q2085.57 284.816 2089.71 284.816 Q2091.56 284.816 2093.37 284.33 Q2095.2 283.821 2097 282.825 L2097 286.76 Q2095.22 287.594 2093.3 288.01 Q2091.4 288.427 2089.25 288.427 Q2083.39 288.427 2079.94 284.746 Q2076.49 281.066 2076.49 274.816 Q2076.49 268.473 2079.97 264.839 Q2083.46 261.205 2089.53 261.205 Q2091.49 261.205 2093.37 261.622 Q2095.24 262.015 2097 262.825 Z" fill="#000000" fill-rule="evenodd" fill-opacity="1" /><path clip-path="url(#clip160)" d="M2108.62 254.469 L2108.62 261.83 L2117.4 261.83 L2117.4 265.14 L2108.62 265.14 L2108.62 279.214 Q2108.62 282.385 2109.48 283.288 Q2110.36 284.191 2113.02 284.191 L2117.4 284.191 L2117.4 287.756 L2113.02 287.756 Q2108.09 287.756 2106.22 285.927 Q2104.34 284.075 2104.34 279.214 L2104.34 265.14 L2101.22 265.14 L2101.22 261.83 L2104.34 261.83 L2104.34 254.469 L2108.62 254.469 Z" fill="#000000" fill-rule="evenodd" fill-opacity="1" /><path clip-path="url(#clip160)" d="M2133.04 264.816 Q2129.62 264.816 2127.63 267.501 Q2125.64 270.163 2125.64 274.816 Q2125.64 279.469 2127.6 282.154 Q2129.6 284.816 2133.04 284.816 Q2136.45 284.816 2138.44 282.131 Q2140.43 279.446 2140.43 274.816 Q2140.43 270.21 2138.44 267.524 Q2136.45 264.816 2133.04 264.816 M2133.04 261.205 Q2138.6 261.205 2141.77 264.816 Q2144.94 268.427 2144.94 274.816 Q2144.94 281.182 2141.77 284.816 Q2138.6 288.427 2133.04 288.427 Q2127.47 288.427 2124.29 284.816 Q2121.15 281.182 2121.15 274.816 Q2121.15 268.427 2124.29 264.816 Q2127.47 261.205 2133.04 261.205 Z" fill="#000000" fill-rule="evenodd" fill-opacity="1" /><path clip-path="url(#clip160)" d="M2167.03 265.811 Q2166.31 265.395 2165.45 265.21 Q2164.62 265.001 2163.6 265.001 Q2159.99 265.001 2158.04 267.362 Q2156.12 269.7 2156.12 274.098 L2156.12 287.756 L2151.84 287.756 L2151.84 261.83 L2156.12 261.83 L2156.12 265.858 Q2157.47 263.497 2159.62 262.362 Q2161.77 261.205 2164.85 261.205 Q2165.29 261.205 2165.82 261.274 Q2166.35 261.321 2167 261.436 L2167.03 265.811 Z" fill="#000000" fill-rule="evenodd" fill-opacity="1" /><path clip-path="url(#clip160)" d="M2182.28 290.163 Q2180.48 294.793 2178.76 296.205 Q2177.05 297.617 2174.18 297.617 L2170.78 297.617 L2170.78 294.052 L2173.28 294.052 Q2175.04 294.052 2176.01 293.219 Q2176.98 292.385 2178.16 289.283 L2178.92 287.339 L2168.44 261.83 L2172.95 261.83 L2181.05 282.108 L2189.16 261.83 L2193.67 261.83 L2182.28 290.163 Z" fill="#000000" fill-rule="evenodd" fill-opacity="1" /><path clip-path="url(#clip160)" d="M2219.25 283.821 L2235.57 283.821 L2235.57 287.756 L2213.62 287.756 L2213.62 283.821 Q2216.29 281.066 2220.87 276.436 Q2225.47 271.784 2226.66 270.441 Q2228.9 267.918 2229.78 266.182 Q2230.68 264.423 2230.68 262.733 Q2230.68 259.978 2228.74 258.242 Q2226.82 256.506 2223.72 256.506 Q2221.52 256.506 2219.06 257.27 Q2216.63 258.034 2213.85 259.585 L2213.85 254.862 Q2216.68 253.728 2219.13 253.149 Q2221.59 252.571 2223.62 252.571 Q2228.99 252.571 2232.19 255.256 Q2235.38 257.941 2235.38 262.432 Q2235.38 264.561 2234.57 266.483 Q2233.78 268.381 2231.68 270.973 Q2231.1 271.645 2228 274.862 Q2224.9 278.057 2219.25 283.821 Z" fill="#000000" fill-rule="evenodd" fill-opacity="1" /></svg>
