<?xml version="1.0" encoding="utf-8"?>
<svg xmlns="http://www.w3.org/2000/svg" xmlns:xlink="http://www.w3.org/1999/xlink" width="600" height="400" viewBox="0 0 2400 1600">
<defs>
  <clipPath id="clip200">
    <rect x="0" y="0" width="2400" height="1600"/>
  </clipPath>
</defs>
<path clip-path="url(#clip200)" d="
M0 1600 L2400 1600 L2400 0 L0 0  Z
  " fill="#ffffff" fill-rule="evenodd" fill-opacity="1"/>
<defs>
  <clipPath id="clip201">
    <rect x="480" y="0" width="1681" height="1600"/>
  </clipPath>
</defs>
<path clip-path="url(#clip200)" d="
M279.704 1423.18 L2352.76 1423.18 L2352.76 123.472 L279.704 123.472  Z
  " fill="#ffffff" fill-rule="evenodd" fill-opacity="1"/>
<defs>
  <clipPath id="clip202">
    <rect x="279" y="123" width="2074" height="1301"/>
  </clipPath>
</defs>
<polyline clip-path="url(#clip202)" style="stroke:#000000; stroke-linecap:butt; stroke-linejoin:round; stroke-width:2; stroke-opacity:0.1; fill:none" points="
  279.704,1423.18 279.704,123.472 
  "/>
<polyline clip-path="url(#clip202)" style="stroke:#000000; stroke-linecap:butt; stroke-linejoin:round; stroke-width:2; stroke-opacity:0.1; fill:none" points="
  656.622,1423.18 656.622,123.472 
  "/>
<polyline clip-path="url(#clip202)" style="stroke:#000000; stroke-linecap:butt; stroke-linejoin:round; stroke-width:2; stroke-opacity:0.1; fill:none" points="
  1033.54,1423.18 1033.54,123.472 
  "/>
<polyline clip-path="url(#clip202)" style="stroke:#000000; stroke-linecap:butt; stroke-linejoin:round; stroke-width:2; stroke-opacity:0.1; fill:none" points="
  1410.46,1423.18 1410.46,123.472 
  "/>
<polyline clip-path="url(#clip202)" style="stroke:#000000; stroke-linecap:butt; stroke-linejoin:round; stroke-width:2; stroke-opacity:0.1; fill:none" points="
  1787.38,1423.18 1787.38,123.472 
  "/>
<polyline clip-path="url(#clip202)" style="stroke:#000000; stroke-linecap:butt; stroke-linejoin:round; stroke-width:2; stroke-opacity:0.1; fill:none" points="
  2164.3,1423.18 2164.3,123.472 
  "/>
<polyline clip-path="url(#clip200)" style="stroke:#000000; stroke-linecap:butt; stroke-linejoin:round; stroke-width:4; stroke-opacity:1; fill:none" points="
  279.704,1423.18 2352.76,1423.18 
  "/>
<polyline clip-path="url(#clip200)" style="stroke:#000000; stroke-linecap:butt; stroke-linejoin:round; stroke-width:4; stroke-opacity:1; fill:none" points="
  279.704,1423.18 279.704,1404.28 
  "/>
<polyline clip-path="url(#clip200)" style="stroke:#000000; stroke-linecap:butt; stroke-linejoin:round; stroke-width:4; stroke-opacity:1; fill:none" points="
  656.622,1423.18 656.622,1404.28 
  "/>
<polyline clip-path="url(#clip200)" style="stroke:#000000; stroke-linecap:butt; stroke-linejoin:round; stroke-width:4; stroke-opacity:1; fill:none" points="
  1033.54,1423.18 1033.54,1404.28 
  "/>
<polyline clip-path="url(#clip200)" style="stroke:#000000; stroke-linecap:butt; stroke-linejoin:round; stroke-width:4; stroke-opacity:1; fill:none" points="
  1410.46,1423.18 1410.46,1404.28 
  "/>
<polyline clip-path="url(#clip200)" style="stroke:#000000; stroke-linecap:butt; stroke-linejoin:round; stroke-width:4; stroke-opacity:1; fill:none" points="
  1787.38,1423.18 1787.38,1404.28 
  "/>
<polyline clip-path="url(#clip200)" style="stroke:#000000; stroke-linecap:butt; stroke-linejoin:round; stroke-width:4; stroke-opacity:1; fill:none" points="
  2164.3,1423.18 2164.3,1404.28 
  "/>
<path clip-path="url(#clip200)" d="M279.704 1454.1 Q276.093 1454.1 274.264 1457.66 Q272.459 1461.2 272.459 1468.33 Q272.459 1475.44 274.264 1479.01 Q276.093 1482.55 279.704 1482.55 Q283.338 1482.55 285.144 1479.01 Q286.972 1475.44 286.972 1468.33 Q286.972 1461.2 285.144 1457.66 Q283.338 1454.1 279.704 1454.1 M279.704 1450.39 Q285.514 1450.39 288.57 1455 Q291.648 1459.58 291.648 1468.33 Q291.648 1477.06 288.57 1481.67 Q285.514 1486.25 279.704 1486.25 Q273.894 1486.25 270.815 1481.67 Q267.76 1477.06 267.76 1468.33 Q267.76 1459.58 270.815 1455 Q273.894 1450.39 279.704 1450.39 Z" fill="#000000" fill-rule="evenodd" fill-opacity="1" /><path clip-path="url(#clip200)" d="M616.229 1481.64 L623.868 1481.64 L623.868 1455.28 L615.558 1456.95 L615.558 1452.69 L623.822 1451.02 L628.498 1451.02 L628.498 1481.64 L636.136 1481.64 L636.136 1485.58 L616.229 1485.58 L616.229 1481.64 Z" fill="#000000" fill-rule="evenodd" fill-opacity="1" /><path clip-path="url(#clip200)" d="M655.581 1454.1 Q651.97 1454.1 650.141 1457.66 Q648.335 1461.2 648.335 1468.33 Q648.335 1475.44 650.141 1479.01 Q651.97 1482.55 655.581 1482.55 Q659.215 1482.55 661.021 1479.01 Q662.849 1475.44 662.849 1468.33 Q662.849 1461.2 661.021 1457.66 Q659.215 1454.1 655.581 1454.1 M655.581 1450.39 Q661.391 1450.39 664.446 1455 Q667.525 1459.58 667.525 1468.33 Q667.525 1477.06 664.446 1481.67 Q661.391 1486.25 655.581 1486.25 Q649.771 1486.25 646.692 1481.67 Q643.636 1477.06 643.636 1468.33 Q643.636 1459.58 646.692 1455 Q649.771 1450.39 655.581 1450.39 Z" fill="#000000" fill-rule="evenodd" fill-opacity="1" /><path clip-path="url(#clip200)" d="M685.743 1454.1 Q682.132 1454.1 680.303 1457.66 Q678.497 1461.2 678.497 1468.33 Q678.497 1475.44 680.303 1479.01 Q682.132 1482.55 685.743 1482.55 Q689.377 1482.55 691.182 1479.01 Q693.011 1475.44 693.011 1468.33 Q693.011 1461.2 691.182 1457.66 Q689.377 1454.1 685.743 1454.1 M685.743 1450.39 Q691.553 1450.39 694.608 1455 Q697.687 1459.58 697.687 1468.33 Q697.687 1477.06 694.608 1481.67 Q691.553 1486.25 685.743 1486.25 Q679.933 1486.25 676.854 1481.67 Q673.798 1477.06 673.798 1468.33 Q673.798 1459.58 676.854 1455 Q679.933 1450.39 685.743 1450.39 Z" fill="#000000" fill-rule="evenodd" fill-opacity="1" /><path clip-path="url(#clip200)" d="M997.233 1481.64 L1013.55 1481.64 L1013.55 1485.58 L991.608 1485.58 L991.608 1481.64 Q994.27 1478.89 998.854 1474.26 Q1003.46 1469.61 1004.64 1468.27 Q1006.89 1465.74 1007.77 1464.01 Q1008.67 1462.25 1008.67 1460.56 Q1008.67 1457.8 1006.72 1456.07 Q1004.8 1454.33 1001.7 1454.33 Q999.502 1454.33 997.048 1455.09 Q994.618 1455.86 991.84 1457.41 L991.84 1452.69 Q994.664 1451.55 997.118 1450.97 Q999.571 1450.39 1001.61 1450.39 Q1006.98 1450.39 1010.17 1453.08 Q1013.37 1455.77 1013.37 1460.26 Q1013.37 1462.39 1012.56 1464.31 Q1011.77 1466.2 1009.66 1468.8 Q1009.09 1469.47 1005.98 1472.69 Q1002.88 1475.88 997.233 1481.64 Z" fill="#000000" fill-rule="evenodd" fill-opacity="1" /><path clip-path="url(#clip200)" d="M1033.37 1454.1 Q1029.76 1454.1 1027.93 1457.66 Q1026.12 1461.2 1026.12 1468.33 Q1026.12 1475.44 1027.93 1479.01 Q1029.76 1482.55 1033.37 1482.55 Q1037 1482.55 1038.81 1479.01 Q1040.64 1475.44 1040.64 1468.33 Q1040.64 1461.2 1038.81 1457.66 Q1037 1454.1 1033.37 1454.1 M1033.37 1450.39 Q1039.18 1450.39 1042.23 1455 Q1045.31 1459.58 1045.31 1468.33 Q1045.31 1477.06 1042.23 1481.67 Q1039.18 1486.25 1033.37 1486.25 Q1027.56 1486.25 1024.48 1481.67 Q1021.42 1477.06 1021.42 1468.33 Q1021.42 1459.58 1024.48 1455 Q1027.56 1450.39 1033.37 1450.39 Z" fill="#000000" fill-rule="evenodd" fill-opacity="1" /><path clip-path="url(#clip200)" d="M1063.53 1454.1 Q1059.92 1454.1 1058.09 1457.66 Q1056.28 1461.2 1056.28 1468.33 Q1056.28 1475.44 1058.09 1479.01 Q1059.92 1482.55 1063.53 1482.55 Q1067.16 1482.55 1068.97 1479.01 Q1070.8 1475.44 1070.8 1468.33 Q1070.8 1461.2 1068.97 1457.66 Q1067.16 1454.1 1063.53 1454.1 M1063.53 1450.39 Q1069.34 1450.39 1072.39 1455 Q1075.47 1459.58 1075.47 1468.33 Q1075.47 1477.06 1072.39 1481.67 Q1069.34 1486.25 1063.53 1486.25 Q1057.72 1486.25 1054.64 1481.67 Q1051.58 1477.06 1051.58 1468.33 Q1051.58 1459.58 1054.64 1455 Q1057.72 1450.39 1063.53 1450.39 Z" fill="#000000" fill-rule="evenodd" fill-opacity="1" /><path clip-path="url(#clip200)" d="M1384.22 1466.95 Q1387.58 1467.66 1389.45 1469.93 Q1391.35 1472.2 1391.35 1475.53 Q1391.35 1480.65 1387.83 1483.45 Q1384.31 1486.25 1377.83 1486.25 Q1375.66 1486.25 1373.34 1485.81 Q1371.05 1485.39 1368.6 1484.54 L1368.6 1480.02 Q1370.54 1481.16 1372.86 1481.74 Q1375.17 1482.32 1377.69 1482.32 Q1382.09 1482.32 1384.38 1480.58 Q1386.7 1478.84 1386.7 1475.53 Q1386.7 1472.48 1384.55 1470.77 Q1382.42 1469.03 1378.6 1469.03 L1374.57 1469.03 L1374.57 1465.19 L1378.78 1465.19 Q1382.23 1465.19 1384.06 1463.82 Q1385.89 1462.43 1385.89 1459.84 Q1385.89 1457.18 1383.99 1455.77 Q1382.11 1454.33 1378.6 1454.33 Q1376.68 1454.33 1374.48 1454.75 Q1372.28 1455.16 1369.64 1456.04 L1369.64 1451.88 Q1372.3 1451.14 1374.61 1450.77 Q1376.95 1450.39 1379.01 1450.39 Q1384.34 1450.39 1387.44 1452.83 Q1390.54 1455.23 1390.54 1459.35 Q1390.54 1462.22 1388.9 1464.21 Q1387.25 1466.18 1384.22 1466.95 Z" fill="#000000" fill-rule="evenodd" fill-opacity="1" /><path clip-path="url(#clip200)" d="M1410.22 1454.1 Q1406.61 1454.1 1404.78 1457.66 Q1402.97 1461.2 1402.97 1468.33 Q1402.97 1475.44 1404.78 1479.01 Q1406.61 1482.55 1410.22 1482.55 Q1413.85 1482.55 1415.66 1479.01 Q1417.48 1475.44 1417.48 1468.33 Q1417.48 1461.2 1415.66 1457.66 Q1413.85 1454.1 1410.22 1454.1 M1410.22 1450.39 Q1416.03 1450.39 1419.08 1455 Q1422.16 1459.58 1422.16 1468.33 Q1422.16 1477.06 1419.08 1481.67 Q1416.03 1486.25 1410.22 1486.25 Q1404.41 1486.25 1401.33 1481.67 Q1398.27 1477.06 1398.27 1468.33 Q1398.27 1459.58 1401.33 1455 Q1404.41 1450.39 1410.22 1450.39 Z" fill="#000000" fill-rule="evenodd" fill-opacity="1" /><path clip-path="url(#clip200)" d="M1440.38 1454.1 Q1436.77 1454.1 1434.94 1457.66 Q1433.13 1461.2 1433.13 1468.33 Q1433.13 1475.44 1434.94 1479.01 Q1436.77 1482.55 1440.38 1482.55 Q1444.01 1482.55 1445.82 1479.01 Q1447.65 1475.44 1447.65 1468.33 Q1447.65 1461.2 1445.82 1457.66 Q1444.01 1454.1 1440.38 1454.1 M1440.38 1450.39 Q1446.19 1450.39 1449.24 1455 Q1452.32 1459.58 1452.32 1468.33 Q1452.32 1477.06 1449.24 1481.67 Q1446.19 1486.25 1440.38 1486.25 Q1434.57 1486.25 1431.49 1481.67 Q1428.43 1477.06 1428.43 1468.33 Q1428.43 1459.58 1431.49 1455 Q1434.57 1450.39 1440.38 1450.39 Z" fill="#000000" fill-rule="evenodd" fill-opacity="1" /><path clip-path="url(#clip200)" d="M1760.47 1455.09 L1748.66 1473.54 L1760.47 1473.54 L1760.47 1455.09 M1759.24 1451.02 L1765.12 1451.02 L1765.12 1473.54 L1770.05 1473.54 L1770.05 1477.43 L1765.12 1477.43 L1765.12 1485.58 L1760.47 1485.58 L1760.47 1477.43 L1744.87 1477.43 L1744.87 1472.92 L1759.24 1451.02 Z" fill="#000000" fill-rule="evenodd" fill-opacity="1" /><path clip-path="url(#clip200)" d="M1787.78 1454.1 Q1784.17 1454.1 1782.34 1457.66 Q1780.54 1461.2 1780.54 1468.33 Q1780.54 1475.44 1782.34 1479.01 Q1784.17 1482.55 1787.78 1482.55 Q1791.42 1482.55 1793.22 1479.01 Q1795.05 1475.44 1795.05 1468.33 Q1795.05 1461.2 1793.22 1457.66 Q1791.42 1454.1 1787.78 1454.1 M1787.78 1450.39 Q1793.59 1450.39 1796.65 1455 Q1799.73 1459.58 1799.73 1468.33 Q1799.73 1477.06 1796.65 1481.67 Q1793.59 1486.25 1787.78 1486.25 Q1781.97 1486.25 1778.89 1481.67 Q1775.84 1477.06 1775.84 1468.33 Q1775.84 1459.58 1778.89 1455 Q1781.97 1450.39 1787.78 1450.39 Z" fill="#000000" fill-rule="evenodd" fill-opacity="1" /><path clip-path="url(#clip200)" d="M1817.95 1454.1 Q1814.33 1454.1 1812.51 1457.66 Q1810.7 1461.2 1810.7 1468.33 Q1810.7 1475.44 1812.51 1479.01 Q1814.33 1482.55 1817.95 1482.55 Q1821.58 1482.55 1823.38 1479.01 Q1825.21 1475.44 1825.21 1468.33 Q1825.21 1461.2 1823.38 1457.66 Q1821.58 1454.1 1817.95 1454.1 M1817.95 1450.39 Q1823.76 1450.39 1826.81 1455 Q1829.89 1459.58 1829.89 1468.33 Q1829.89 1477.06 1826.81 1481.67 Q1823.76 1486.25 1817.95 1486.25 Q1812.13 1486.25 1809.06 1481.67 Q1806 1477.06 1806 1468.33 Q1806 1459.58 1809.06 1455 Q1812.13 1450.39 1817.95 1450.39 Z" fill="#000000" fill-rule="evenodd" fill-opacity="1" /><path clip-path="url(#clip200)" d="M2123.91 1451.02 L2142.27 1451.02 L2142.27 1454.96 L2128.2 1454.96 L2128.2 1463.43 Q2129.22 1463.08 2130.23 1462.92 Q2131.25 1462.73 2132.27 1462.73 Q2138.06 1462.73 2141.44 1465.9 Q2144.82 1469.08 2144.82 1474.49 Q2144.82 1480.07 2141.35 1483.17 Q2137.87 1486.25 2131.55 1486.25 Q2129.38 1486.25 2127.11 1485.88 Q2124.86 1485.51 2122.46 1484.77 L2122.46 1480.07 Q2124.54 1481.2 2126.76 1481.76 Q2128.98 1482.32 2131.46 1482.32 Q2135.47 1482.32 2137.8 1480.21 Q2140.14 1478.1 2140.14 1474.49 Q2140.14 1470.88 2137.8 1468.77 Q2135.47 1466.67 2131.46 1466.67 Q2129.59 1466.67 2127.71 1467.08 Q2125.86 1467.5 2123.91 1468.38 L2123.91 1451.02 Z" fill="#000000" fill-rule="evenodd" fill-opacity="1" /><path clip-path="url(#clip200)" d="M2164.03 1454.1 Q2160.42 1454.1 2158.59 1457.66 Q2156.79 1461.2 2156.79 1468.33 Q2156.79 1475.44 2158.59 1479.01 Q2160.42 1482.55 2164.03 1482.55 Q2167.66 1482.55 2169.47 1479.01 Q2171.3 1475.44 2171.3 1468.33 Q2171.3 1461.2 2169.47 1457.66 Q2167.66 1454.1 2164.03 1454.1 M2164.03 1450.39 Q2169.84 1450.39 2172.9 1455 Q2175.97 1459.58 2175.97 1468.33 Q2175.97 1477.06 2172.9 1481.67 Q2169.84 1486.25 2164.03 1486.25 Q2158.22 1486.25 2155.14 1481.67 Q2152.09 1477.06 2152.09 1468.33 Q2152.09 1459.58 2155.14 1455 Q2158.22 1450.39 2164.03 1450.39 Z" fill="#000000" fill-rule="evenodd" fill-opacity="1" /><path clip-path="url(#clip200)" d="M2194.19 1454.1 Q2190.58 1454.1 2188.75 1457.66 Q2186.95 1461.2 2186.95 1468.33 Q2186.95 1475.44 2188.75 1479.01 Q2190.58 1482.55 2194.19 1482.55 Q2197.83 1482.55 2199.63 1479.01 Q2201.46 1475.44 2201.46 1468.33 Q2201.46 1461.2 2199.63 1457.66 Q2197.83 1454.1 2194.19 1454.1 M2194.19 1450.39 Q2200 1450.39 2203.06 1455 Q2206.14 1459.58 2206.14 1468.33 Q2206.14 1477.06 2203.06 1481.67 Q2200 1486.25 2194.19 1486.25 Q2188.38 1486.25 2185.3 1481.67 Q2182.25 1477.06 2182.25 1468.33 Q2182.25 1459.58 2185.3 1455 Q2188.38 1450.39 2194.19 1450.39 Z" fill="#000000" fill-rule="evenodd" fill-opacity="1" /><path clip-path="url(#clip200)" d="M1324.7 1548.54 Q1324.7 1549.45 1324.28 1549.67 Q1323.86 1549.87 1322.7 1549.87 L1316.52 1549.87 L1311.63 1569.32 Q1311.24 1571.02 1311.24 1572.47 Q1311.24 1574.08 1311.72 1574.79 Q1312.24 1575.5 1313.3 1575.5 Q1315.39 1575.5 1317.65 1573.6 Q1319.93 1571.7 1321.87 1567.06 Q1322.12 1566.45 1322.25 1566.32 Q1322.41 1566.16 1322.83 1566.16 Q1323.64 1566.16 1323.64 1566.81 Q1323.64 1567.03 1323.19 1568.06 Q1322.77 1569.09 1321.83 1570.61 Q1320.93 1572.12 1319.74 1573.54 Q1318.58 1574.95 1316.81 1575.98 Q1315.04 1576.98 1313.14 1576.98 Q1310.47 1576.98 1308.76 1575.28 Q1307.08 1573.57 1307.08 1570.9 Q1307.08 1570.03 1307.76 1567.26 Q1308.44 1564.45 1312.11 1549.87 L1306.28 1549.87 Q1305.47 1549.87 1305.15 1549.83 Q1304.86 1549.8 1304.64 1549.64 Q1304.44 1549.45 1304.44 1549.06 Q1304.44 1548.45 1304.7 1548.19 Q1304.96 1547.9 1305.28 1547.87 Q1305.64 1547.8 1306.44 1547.8 L1312.62 1547.8 L1315.2 1537.34 Q1315.46 1536.31 1316.1 1535.73 Q1316.78 1535.12 1317.16 1535.05 Q1317.55 1534.95 1317.84 1534.95 Q1318.71 1534.95 1319.23 1535.44 Q1319.74 1535.89 1319.74 1536.73 Q1319.74 1537.18 1317.04 1547.8 L1322.83 1547.8 Q1323.57 1547.8 1323.86 1547.84 Q1324.19 1547.87 1324.44 1548.03 Q1324.7 1548.19 1324.7 1548.54 Z" fill="#000000" fill-rule="evenodd" fill-opacity="1" /><polyline clip-path="url(#clip202)" style="stroke:#000000; stroke-linecap:butt; stroke-linejoin:round; stroke-width:2; stroke-opacity:0.1; fill:none" points="
  279.704,1387.14 2352.76,1387.14 
  "/>
<polyline clip-path="url(#clip202)" style="stroke:#000000; stroke-linecap:butt; stroke-linejoin:round; stroke-width:2; stroke-opacity:0.1; fill:none" points="
  279.704,1107.46 2352.76,1107.46 
  "/>
<polyline clip-path="url(#clip202)" style="stroke:#000000; stroke-linecap:butt; stroke-linejoin:round; stroke-width:2; stroke-opacity:0.1; fill:none" points="
  279.704,827.778 2352.76,827.778 
  "/>
<polyline clip-path="url(#clip202)" style="stroke:#000000; stroke-linecap:butt; stroke-linejoin:round; stroke-width:2; stroke-opacity:0.1; fill:none" points="
  279.704,548.097 2352.76,548.097 
  "/>
<polyline clip-path="url(#clip202)" style="stroke:#000000; stroke-linecap:butt; stroke-linejoin:round; stroke-width:2; stroke-opacity:0.1; fill:none" points="
  279.704,268.416 2352.76,268.416 
  "/>
<polyline clip-path="url(#clip200)" style="stroke:#000000; stroke-linecap:butt; stroke-linejoin:round; stroke-width:4; stroke-opacity:1; fill:none" points="
  279.704,1423.18 279.704,123.472 
  "/>
<polyline clip-path="url(#clip200)" style="stroke:#000000; stroke-linecap:butt; stroke-linejoin:round; stroke-width:4; stroke-opacity:1; fill:none" points="
  279.704,1387.14 298.602,1387.14 
  "/>
<polyline clip-path="url(#clip200)" style="stroke:#000000; stroke-linecap:butt; stroke-linejoin:round; stroke-width:4; stroke-opacity:1; fill:none" points="
  279.704,1107.46 298.602,1107.46 
  "/>
<polyline clip-path="url(#clip200)" style="stroke:#000000; stroke-linecap:butt; stroke-linejoin:round; stroke-width:4; stroke-opacity:1; fill:none" points="
  279.704,827.778 298.602,827.778 
  "/>
<polyline clip-path="url(#clip200)" style="stroke:#000000; stroke-linecap:butt; stroke-linejoin:round; stroke-width:4; stroke-opacity:1; fill:none" points="
  279.704,548.097 298.602,548.097 
  "/>
<polyline clip-path="url(#clip200)" style="stroke:#000000; stroke-linecap:butt; stroke-linejoin:round; stroke-width:4; stroke-opacity:1; fill:none" points="
  279.704,268.416 298.602,268.416 
  "/>
<path clip-path="url(#clip200)" d="M126.205 1372.94 Q122.593 1372.94 120.765 1376.5 Q118.959 1380.05 118.959 1387.18 Q118.959 1394.28 120.765 1397.85 Q122.593 1401.39 126.205 1401.39 Q129.839 1401.39 131.644 1397.85 Q133.473 1394.28 133.473 1387.18 Q133.473 1380.05 131.644 1376.5 Q129.839 1372.94 126.205 1372.94 M126.205 1369.24 Q132.015 1369.24 135.07 1373.84 Q138.149 1378.43 138.149 1387.18 Q138.149 1395.9 135.07 1400.51 Q132.015 1405.09 126.205 1405.09 Q120.394 1405.09 117.316 1400.51 Q114.26 1395.9 114.26 1387.18 Q114.26 1378.43 117.316 1373.84 Q120.394 1369.24 126.205 1369.24 Z" fill="#000000" fill-rule="evenodd" fill-opacity="1" /><path clip-path="url(#clip200)" d="M146.366 1398.54 L151.251 1398.54 L151.251 1404.42 L146.366 1404.42 L146.366 1398.54 Z" fill="#000000" fill-rule="evenodd" fill-opacity="1" /><path clip-path="url(#clip200)" d="M171.436 1372.94 Q167.825 1372.94 165.996 1376.5 Q164.19 1380.05 164.19 1387.18 Q164.19 1394.28 165.996 1397.85 Q167.825 1401.39 171.436 1401.39 Q175.07 1401.39 176.876 1397.85 Q178.704 1394.28 178.704 1387.18 Q178.704 1380.05 176.876 1376.5 Q175.07 1372.94 171.436 1372.94 M171.436 1369.24 Q177.246 1369.24 180.301 1373.84 Q183.38 1378.43 183.38 1387.18 Q183.38 1395.9 180.301 1400.51 Q177.246 1405.09 171.436 1405.09 Q165.626 1405.09 162.547 1400.51 Q159.491 1395.9 159.491 1387.18 Q159.491 1378.43 162.547 1373.84 Q165.626 1369.24 171.436 1369.24 Z" fill="#000000" fill-rule="evenodd" fill-opacity="1" /><path clip-path="url(#clip200)" d="M201.598 1372.94 Q197.987 1372.94 196.158 1376.5 Q194.352 1380.05 194.352 1387.18 Q194.352 1394.28 196.158 1397.85 Q197.987 1401.39 201.598 1401.39 Q205.232 1401.39 207.037 1397.85 Q208.866 1394.28 208.866 1387.18 Q208.866 1380.05 207.037 1376.5 Q205.232 1372.94 201.598 1372.94 M201.598 1369.24 Q207.408 1369.24 210.463 1373.84 Q213.542 1378.43 213.542 1387.18 Q213.542 1395.9 210.463 1400.51 Q207.408 1405.09 201.598 1405.09 Q195.787 1405.09 192.709 1400.51 Q189.653 1395.9 189.653 1387.18 Q189.653 1378.43 192.709 1373.84 Q195.787 1369.24 201.598 1369.24 Z" fill="#000000" fill-rule="evenodd" fill-opacity="1" /><path clip-path="url(#clip200)" d="M231.76 1372.94 Q228.148 1372.94 226.32 1376.5 Q224.514 1380.05 224.514 1387.18 Q224.514 1394.28 226.32 1397.85 Q228.148 1401.39 231.76 1401.39 Q235.394 1401.39 237.199 1397.85 Q239.028 1394.28 239.028 1387.18 Q239.028 1380.05 237.199 1376.5 Q235.394 1372.94 231.76 1372.94 M231.76 1369.24 Q237.57 1369.24 240.625 1373.84 Q243.704 1378.43 243.704 1387.18 Q243.704 1395.9 240.625 1400.51 Q237.57 1405.09 231.76 1405.09 Q225.949 1405.09 222.871 1400.51 Q219.815 1395.9 219.815 1387.18 Q219.815 1378.43 222.871 1373.84 Q225.949 1369.24 231.76 1369.24 Z" fill="#000000" fill-rule="evenodd" fill-opacity="1" /><path clip-path="url(#clip200)" d="M127.2 1093.26 Q123.589 1093.26 121.76 1096.82 Q119.955 1100.36 119.955 1107.49 Q119.955 1114.6 121.76 1118.17 Q123.589 1121.71 127.2 1121.71 Q130.834 1121.71 132.64 1118.17 Q134.468 1114.6 134.468 1107.49 Q134.468 1100.36 132.64 1096.82 Q130.834 1093.26 127.2 1093.26 M127.2 1089.55 Q133.01 1089.55 136.066 1094.16 Q139.144 1098.74 139.144 1107.49 Q139.144 1116.22 136.066 1120.83 Q133.01 1125.41 127.2 1125.41 Q121.39 1125.41 118.311 1120.83 Q115.256 1116.22 115.256 1107.49 Q115.256 1098.74 118.311 1094.16 Q121.39 1089.55 127.2 1089.55 Z" fill="#000000" fill-rule="evenodd" fill-opacity="1" /><path clip-path="url(#clip200)" d="M147.362 1118.86 L152.246 1118.86 L152.246 1124.74 L147.362 1124.74 L147.362 1118.86 Z" fill="#000000" fill-rule="evenodd" fill-opacity="1" /><path clip-path="url(#clip200)" d="M172.431 1093.26 Q168.82 1093.26 166.991 1096.82 Q165.186 1100.36 165.186 1107.49 Q165.186 1114.6 166.991 1118.17 Q168.82 1121.71 172.431 1121.71 Q176.065 1121.71 177.871 1118.17 Q179.7 1114.6 179.7 1107.49 Q179.7 1100.36 177.871 1096.82 Q176.065 1093.26 172.431 1093.26 M172.431 1089.55 Q178.241 1089.55 181.297 1094.16 Q184.376 1098.74 184.376 1107.49 Q184.376 1116.22 181.297 1120.83 Q178.241 1125.41 172.431 1125.41 Q166.621 1125.41 163.542 1120.83 Q160.487 1116.22 160.487 1107.49 Q160.487 1098.74 163.542 1094.16 Q166.621 1089.55 172.431 1089.55 Z" fill="#000000" fill-rule="evenodd" fill-opacity="1" /><path clip-path="url(#clip200)" d="M196.621 1120.8 L212.94 1120.8 L212.94 1124.74 L190.996 1124.74 L190.996 1120.8 Q193.658 1118.05 198.241 1113.42 Q202.848 1108.77 204.028 1107.42 Q206.274 1104.9 207.153 1103.17 Q208.056 1101.41 208.056 1099.72 Q208.056 1096.96 206.112 1095.23 Q204.19 1093.49 201.088 1093.49 Q198.889 1093.49 196.436 1094.25 Q194.005 1095.02 191.227 1096.57 L191.227 1091.85 Q194.051 1090.71 196.505 1090.13 Q198.959 1089.55 200.996 1089.55 Q206.366 1089.55 209.561 1092.24 Q212.755 1094.92 212.755 1099.42 Q212.755 1101.55 211.945 1103.47 Q211.158 1105.36 209.051 1107.96 Q208.473 1108.63 205.371 1111.85 Q202.269 1115.04 196.621 1120.8 Z" fill="#000000" fill-rule="evenodd" fill-opacity="1" /><path clip-path="url(#clip200)" d="M222.801 1090.18 L241.158 1090.18 L241.158 1094.11 L227.084 1094.11 L227.084 1102.59 Q228.102 1102.24 229.121 1102.08 Q230.139 1101.89 231.158 1101.89 Q236.945 1101.89 240.324 1105.06 Q243.704 1108.23 243.704 1113.65 Q243.704 1119.23 240.232 1122.33 Q236.76 1125.41 230.44 1125.41 Q228.264 1125.41 225.996 1125.04 Q223.75 1124.67 221.343 1123.93 L221.343 1119.23 Q223.426 1120.36 225.648 1120.92 Q227.871 1121.48 230.347 1121.48 Q234.352 1121.48 236.69 1119.37 Q239.028 1117.26 239.028 1113.65 Q239.028 1110.04 236.69 1107.93 Q234.352 1105.83 230.347 1105.83 Q228.473 1105.83 226.598 1106.24 Q224.746 1106.66 222.801 1107.54 L222.801 1090.18 Z" fill="#000000" fill-rule="evenodd" fill-opacity="1" /><path clip-path="url(#clip200)" d="M126.205 813.577 Q122.593 813.577 120.765 817.142 Q118.959 820.684 118.959 827.813 Q118.959 834.92 120.765 838.484 Q122.593 842.026 126.205 842.026 Q129.839 842.026 131.644 838.484 Q133.473 834.92 133.473 827.813 Q133.473 820.684 131.644 817.142 Q129.839 813.577 126.205 813.577 M126.205 809.873 Q132.015 809.873 135.07 814.48 Q138.149 819.063 138.149 827.813 Q138.149 836.54 135.07 841.146 Q132.015 845.73 126.205 845.73 Q120.394 845.73 117.316 841.146 Q114.26 836.54 114.26 827.813 Q114.26 819.063 117.316 814.48 Q120.394 809.873 126.205 809.873 Z" fill="#000000" fill-rule="evenodd" fill-opacity="1" /><path clip-path="url(#clip200)" d="M146.366 839.179 L151.251 839.179 L151.251 845.058 L146.366 845.058 L146.366 839.179 Z" fill="#000000" fill-rule="evenodd" fill-opacity="1" /><path clip-path="url(#clip200)" d="M171.436 813.577 Q167.825 813.577 165.996 817.142 Q164.19 820.684 164.19 827.813 Q164.19 834.92 165.996 838.484 Q167.825 842.026 171.436 842.026 Q175.07 842.026 176.876 838.484 Q178.704 834.92 178.704 827.813 Q178.704 820.684 176.876 817.142 Q175.07 813.577 171.436 813.577 M171.436 809.873 Q177.246 809.873 180.301 814.48 Q183.38 819.063 183.38 827.813 Q183.38 836.54 180.301 841.146 Q177.246 845.73 171.436 845.73 Q165.626 845.73 162.547 841.146 Q159.491 836.54 159.491 827.813 Q159.491 819.063 162.547 814.48 Q165.626 809.873 171.436 809.873 Z" fill="#000000" fill-rule="evenodd" fill-opacity="1" /><path clip-path="url(#clip200)" d="M191.644 810.498 L210 810.498 L210 814.434 L195.926 814.434 L195.926 822.906 Q196.945 822.559 197.963 822.397 Q198.982 822.211 200 822.211 Q205.787 822.211 209.167 825.383 Q212.547 828.554 212.547 833.971 Q212.547 839.549 209.074 842.651 Q205.602 845.73 199.283 845.73 Q197.107 845.73 194.838 845.359 Q192.593 844.989 190.186 844.248 L190.186 839.549 Q192.269 840.683 194.491 841.239 Q196.713 841.795 199.19 841.795 Q203.195 841.795 205.533 839.688 Q207.871 837.582 207.871 833.971 Q207.871 830.359 205.533 828.253 Q203.195 826.147 199.19 826.147 Q197.315 826.147 195.44 826.563 Q193.588 826.98 191.644 827.859 L191.644 810.498 Z" fill="#000000" fill-rule="evenodd" fill-opacity="1" /><path clip-path="url(#clip200)" d="M231.76 813.577 Q228.148 813.577 226.32 817.142 Q224.514 820.684 224.514 827.813 Q224.514 834.92 226.32 838.484 Q228.148 842.026 231.76 842.026 Q235.394 842.026 237.199 838.484 Q239.028 834.92 239.028 827.813 Q239.028 820.684 237.199 817.142 Q235.394 813.577 231.76 813.577 M231.76 809.873 Q237.57 809.873 240.625 814.48 Q243.704 819.063 243.704 827.813 Q243.704 836.54 240.625 841.146 Q237.57 845.73 231.76 845.73 Q225.949 845.73 222.871 841.146 Q219.815 836.54 219.815 827.813 Q219.815 819.063 222.871 814.48 Q225.949 809.873 231.76 809.873 Z" fill="#000000" fill-rule="evenodd" fill-opacity="1" /><path clip-path="url(#clip200)" d="M127.2 533.896 Q123.589 533.896 121.76 537.461 Q119.955 541.003 119.955 548.132 Q119.955 555.239 121.76 558.803 Q123.589 562.345 127.2 562.345 Q130.834 562.345 132.64 558.803 Q134.468 555.239 134.468 548.132 Q134.468 541.003 132.64 537.461 Q130.834 533.896 127.2 533.896 M127.2 530.192 Q133.01 530.192 136.066 534.799 Q139.144 539.382 139.144 548.132 Q139.144 556.859 136.066 561.465 Q133.01 566.049 127.2 566.049 Q121.39 566.049 118.311 561.465 Q115.256 556.859 115.256 548.132 Q115.256 539.382 118.311 534.799 Q121.39 530.192 127.2 530.192 Z" fill="#000000" fill-rule="evenodd" fill-opacity="1" /><path clip-path="url(#clip200)" d="M147.362 559.498 L152.246 559.498 L152.246 565.377 L147.362 565.377 L147.362 559.498 Z" fill="#000000" fill-rule="evenodd" fill-opacity="1" /><path clip-path="url(#clip200)" d="M172.431 533.896 Q168.82 533.896 166.991 537.461 Q165.186 541.003 165.186 548.132 Q165.186 555.239 166.991 558.803 Q168.82 562.345 172.431 562.345 Q176.065 562.345 177.871 558.803 Q179.7 555.239 179.7 548.132 Q179.7 541.003 177.871 537.461 Q176.065 533.896 172.431 533.896 M172.431 530.192 Q178.241 530.192 181.297 534.799 Q184.376 539.382 184.376 548.132 Q184.376 556.859 181.297 561.465 Q178.241 566.049 172.431 566.049 Q166.621 566.049 163.542 561.465 Q160.487 556.859 160.487 548.132 Q160.487 539.382 163.542 534.799 Q166.621 530.192 172.431 530.192 Z" fill="#000000" fill-rule="evenodd" fill-opacity="1" /><path clip-path="url(#clip200)" d="M191.413 530.817 L213.635 530.817 L213.635 532.808 L201.088 565.377 L196.204 565.377 L208.01 534.753 L191.413 534.753 L191.413 530.817 Z" fill="#000000" fill-rule="evenodd" fill-opacity="1" /><path clip-path="url(#clip200)" d="M222.801 530.817 L241.158 530.817 L241.158 534.753 L227.084 534.753 L227.084 543.225 Q228.102 542.878 229.121 542.716 Q230.139 542.53 231.158 542.53 Q236.945 542.53 240.324 545.702 Q243.704 548.873 243.704 554.29 Q243.704 559.868 240.232 562.97 Q236.76 566.049 230.44 566.049 Q228.264 566.049 225.996 565.678 Q223.75 565.308 221.343 564.567 L221.343 559.868 Q223.426 561.002 225.648 561.558 Q227.871 562.114 230.347 562.114 Q234.352 562.114 236.69 560.007 Q239.028 557.901 239.028 554.29 Q239.028 550.678 236.69 548.572 Q234.352 546.466 230.347 546.466 Q228.473 546.466 226.598 546.882 Q224.746 547.299 222.801 548.178 L222.801 530.817 Z" fill="#000000" fill-rule="evenodd" fill-opacity="1" /><path clip-path="url(#clip200)" d="M126.205 254.215 Q122.593 254.215 120.765 257.78 Q118.959 261.322 118.959 268.451 Q118.959 275.558 120.765 279.122 Q122.593 282.664 126.205 282.664 Q129.839 282.664 131.644 279.122 Q133.473 275.558 133.473 268.451 Q133.473 261.322 131.644 257.78 Q129.839 254.215 126.205 254.215 M126.205 250.511 Q132.015 250.511 135.07 255.118 Q138.149 259.701 138.149 268.451 Q138.149 277.178 135.07 281.784 Q132.015 286.368 126.205 286.368 Q120.394 286.368 117.316 281.784 Q114.26 277.178 114.26 268.451 Q114.26 259.701 117.316 255.118 Q120.394 250.511 126.205 250.511 Z" fill="#000000" fill-rule="evenodd" fill-opacity="1" /><path clip-path="url(#clip200)" d="M146.366 279.817 L151.251 279.817 L151.251 285.696 L146.366 285.696 L146.366 279.817 Z" fill="#000000" fill-rule="evenodd" fill-opacity="1" /><path clip-path="url(#clip200)" d="M162.246 281.761 L169.885 281.761 L169.885 255.396 L161.575 257.062 L161.575 252.803 L169.839 251.136 L174.514 251.136 L174.514 281.761 L182.153 281.761 L182.153 285.696 L162.246 285.696 L162.246 281.761 Z" fill="#000000" fill-rule="evenodd" fill-opacity="1" /><path clip-path="url(#clip200)" d="M201.598 254.215 Q197.987 254.215 196.158 257.78 Q194.352 261.322 194.352 268.451 Q194.352 275.558 196.158 279.122 Q197.987 282.664 201.598 282.664 Q205.232 282.664 207.037 279.122 Q208.866 275.558 208.866 268.451 Q208.866 261.322 207.037 257.78 Q205.232 254.215 201.598 254.215 M201.598 250.511 Q207.408 250.511 210.463 255.118 Q213.542 259.701 213.542 268.451 Q213.542 277.178 210.463 281.784 Q207.408 286.368 201.598 286.368 Q195.787 286.368 192.709 281.784 Q189.653 277.178 189.653 268.451 Q189.653 259.701 192.709 255.118 Q195.787 250.511 201.598 250.511 Z" fill="#000000" fill-rule="evenodd" fill-opacity="1" /><path clip-path="url(#clip200)" d="M231.76 254.215 Q228.148 254.215 226.32 257.78 Q224.514 261.322 224.514 268.451 Q224.514 275.558 226.32 279.122 Q228.148 282.664 231.76 282.664 Q235.394 282.664 237.199 279.122 Q239.028 275.558 239.028 268.451 Q239.028 261.322 237.199 257.78 Q235.394 254.215 231.76 254.215 M231.76 250.511 Q237.57 250.511 240.625 255.118 Q243.704 259.701 243.704 268.451 Q243.704 277.178 240.625 281.784 Q237.57 286.368 231.76 286.368 Q225.949 286.368 222.871 281.784 Q219.815 277.178 219.815 268.451 Q219.815 259.701 222.871 255.118 Q225.949 250.511 231.76 250.511 Z" fill="#000000" fill-rule="evenodd" fill-opacity="1" /><path clip-path="url(#clip200)" d="M27.2366 806.044 Q28.6537 806.044 29.7164 807.204 Q30.747 808.331 30.747 809.555 Q30.747 810.682 30.0707 811.391 Q29.3622 812.067 28.3638 812.067 Q27.0434 812.067 25.9484 810.94 Q24.8534 809.812 24.8534 808.492 Q24.8534 807.397 25.5297 806.721 Q26.206 806.044 27.2366 806.044 M59.0238 805.465 Q59.2814 805.465 60.312 805.755 Q61.3104 806.044 62.8563 806.753 Q64.37 807.429 65.787 808.363 Q67.2041 809.297 68.2024 810.843 Q69.2008 812.357 69.2008 814.096 Q69.2008 816.447 67.6549 817.993 Q66.1091 819.506 63.7902 819.506 Q62.5342 819.506 58.5085 817.993 Q46.7856 813.613 46.3025 813.452 Q44.4667 812.711 42.8564 812.711 Q42.1157 812.711 41.6648 812.872 Q41.1817 813.033 41.0207 813.355 Q40.8275 813.677 40.7953 813.87 Q40.7631 814.031 40.7631 814.354 Q40.7631 816.254 42.6954 818.025 Q44.6278 819.796 48.9433 821.02 Q49.7485 821.278 49.9417 821.439 Q50.135 821.6 50.135 822.083 Q50.1028 822.888 49.4586 822.888 Q49.2654 822.888 48.5247 822.663 Q47.7517 822.437 46.5923 822.018 Q45.4007 821.6 44.1769 820.859 Q42.9208 820.118 41.8258 819.217 Q40.7308 818.283 40.0223 816.962 Q39.3138 815.642 39.3138 814.16 Q39.3138 811.745 40.8919 810.263 Q42.4378 808.75 44.7244 808.75 Q45.9804 808.75 48.2026 809.619 Q51.1011 810.682 52.0351 811.069 L58.9594 813.645 Q61.4714 814.579 62.2444 814.869 Q62.9851 815.126 63.8869 815.352 Q64.7564 815.545 65.5616 815.545 Q66.6888 815.545 67.2041 815.191 Q67.7194 814.804 67.7194 813.967 Q67.7194 811.648 65.4327 809.941 Q63.1139 808.234 59.5713 807.236 Q59.4747 807.204 59.3136 807.172 Q58.5085 806.914 58.4119 806.656 Q58.3797 806.527 58.3797 806.27 Q58.3797 805.465 59.0238 805.465 Z" fill="#000000" fill-rule="evenodd" fill-opacity="1" /><path clip-path="url(#clip200)" d="M51.9707 794.824 Q40.8275 794.824 31.842 790.669 Q28.0739 788.898 24.9178 786.418 Q21.7616 783.938 20.3767 782.296 Q18.9919 780.653 18.9919 780.202 Q18.9919 779.558 19.636 779.526 Q19.9581 779.526 20.7632 780.395 Q31.5844 791.023 51.9707 790.991 Q72.4214 790.991 82.8239 780.653 Q83.9511 779.526 84.3054 779.526 Q84.9495 779.526 84.9495 780.202 Q84.9495 780.653 83.6291 782.231 Q82.3086 783.809 79.2813 786.257 Q76.2539 788.705 72.5502 790.476 Q63.5648 794.824 51.9707 794.824 Z" fill="#000000" fill-rule="evenodd" fill-opacity="1" /><path clip-path="url(#clip200)" d="M40.7631 754.255 Q41.6648 754.255 41.8903 754.673 Q42.0835 755.092 42.0835 756.252 L42.0835 762.435 L61.5358 767.33 Q63.2427 767.717 64.692 767.717 Q66.3023 767.717 67.0108 767.234 Q67.7194 766.718 67.7194 765.656 Q67.7194 763.562 65.8192 761.308 Q63.9191 759.021 59.2814 757.089 Q58.6695 756.831 58.5407 756.702 Q58.3797 756.541 58.3797 756.123 Q58.3797 755.318 59.0238 755.318 Q59.2492 755.318 60.2798 755.768 Q61.3104 756.187 62.8241 757.121 Q64.3377 758.023 65.7548 759.215 Q67.1719 760.374 68.2024 762.145 Q69.2008 763.917 69.2008 765.817 Q69.2008 768.49 67.4939 770.197 Q65.787 771.871 63.1139 771.871 Q62.2444 771.871 59.4747 771.195 Q56.6727 770.519 42.0835 766.847 L42.0835 772.677 Q42.0835 773.482 42.0513 773.804 Q42.0191 774.094 41.8581 774.319 Q41.6648 774.512 41.2783 774.512 Q40.6664 774.512 40.4088 774.255 Q40.1189 773.997 40.0867 773.675 Q40.0223 773.321 40.0223 772.516 L40.0223 766.332 L29.5554 763.756 Q28.5248 763.498 27.9451 762.854 Q27.3332 762.177 27.2688 761.791 Q27.1722 761.405 27.1722 761.115 Q27.1722 760.245 27.6553 759.73 Q28.1062 759.215 28.9435 759.215 Q29.3944 759.215 40.0223 761.92 L40.0223 756.123 Q40.0223 755.382 40.0545 755.092 Q40.0867 754.77 40.2478 754.512 Q40.4088 754.255 40.7631 754.255 Z" fill="#000000" fill-rule="evenodd" fill-opacity="1" /><path clip-path="url(#clip200)" d="M84.3054 749.091 Q83.9833 749.091 83.1782 748.254 Q72.357 737.626 51.9707 737.626 Q31.52 737.626 21.1819 747.835 Q19.9903 749.091 19.636 749.091 Q18.9919 749.091 18.9919 748.447 Q18.9919 747.996 20.3123 746.418 Q21.6328 744.808 24.6601 742.393 Q27.6875 739.945 31.3911 738.141 Q40.3766 733.794 51.9707 733.794 Q63.1139 733.794 72.0994 737.948 Q75.8674 739.719 79.0236 742.199 Q82.1798 744.679 83.5646 746.322 Q84.9495 747.964 84.9495 748.447 Q84.9495 749.091 84.3054 749.091 Z" fill="#000000" fill-rule="evenodd" fill-opacity="1" /><path clip-path="url(#clip200)" d="M886.814 12.096 L897.832 12.096 L924.649 62.6918 L924.649 12.096 L932.589 12.096 L932.589 72.576 L921.571 72.576 L894.754 21.9802 L894.754 72.576 L886.814 72.576 L886.814 12.096 Z" fill="#000000" fill-rule="evenodd" fill-opacity="1" /><path clip-path="url(#clip200)" d="M947.78 54.671 L947.78 27.2059 L955.234 27.2059 L955.234 54.3874 Q955.234 60.8284 957.745 64.0691 Q960.257 67.2693 965.28 67.2693 Q971.316 67.2693 974.799 63.421 Q978.324 59.5726 978.324 52.9291 L978.324 27.2059 L985.777 27.2059 L985.777 72.576 L978.324 72.576 L978.324 65.6084 Q975.61 69.7404 972.004 71.7658 Q968.44 73.7508 963.7 73.7508 Q955.882 73.7508 951.831 68.8897 Q947.78 64.0286 947.78 54.671 M966.536 26.1121 L966.536 26.1121 Z" fill="#000000" fill-rule="evenodd" fill-opacity="1" /><path clip-path="url(#clip200)" d="M1036.45 35.9153 Q1039.25 30.8922 1043.14 28.5022 Q1047.03 26.1121 1052.29 26.1121 Q1059.38 26.1121 1063.23 31.0947 Q1067.08 36.0368 1067.08 45.1919 L1067.08 72.576 L1059.58 72.576 L1059.58 45.4349 Q1059.58 38.913 1057.28 35.7533 Q1054.97 32.5936 1050.23 32.5936 Q1044.43 32.5936 1041.07 36.4419 Q1037.71 40.2903 1037.71 46.9338 L1037.71 72.576 L1030.22 72.576 L1030.22 45.4349 Q1030.22 38.8725 1027.91 35.7533 Q1025.6 32.5936 1020.78 32.5936 Q1015.07 32.5936 1011.7 36.4824 Q1008.34 40.3308 1008.34 46.9338 L1008.34 72.576 L1000.85 72.576 L1000.85 27.2059 L1008.34 27.2059 L1008.34 34.2544 Q1010.89 30.082 1014.46 28.0971 Q1018.02 26.1121 1022.92 26.1121 Q1027.87 26.1121 1031.31 28.6237 Q1034.79 31.1352 1036.45 35.9153 Z" fill="#000000" fill-rule="evenodd" fill-opacity="1" /><path clip-path="url(#clip200)" d="M1114.52 49.9314 Q1114.52 41.7081 1111.11 37.0496 Q1107.75 32.3505 1101.84 32.3505 Q1095.92 32.3505 1092.52 37.0496 Q1089.16 41.7081 1089.16 49.9314 Q1089.16 58.1548 1092.52 62.8538 Q1095.92 67.5124 1101.84 67.5124 Q1107.75 67.5124 1111.11 62.8538 Q1114.52 58.1548 1114.52 49.9314 M1089.16 34.0924 Q1091.51 30.0415 1095.07 28.0971 Q1098.68 26.1121 1103.66 26.1121 Q1111.92 26.1121 1117.07 32.6746 Q1122.25 39.2371 1122.25 49.9314 Q1122.25 60.6258 1117.07 67.1883 Q1111.92 73.7508 1103.66 73.7508 Q1098.68 73.7508 1095.07 71.8063 Q1091.51 69.8214 1089.16 65.7705 L1089.16 72.576 L1081.66 72.576 L1081.66 9.54393 L1089.16 9.54393 L1089.16 34.0924 Z" fill="#000000" fill-rule="evenodd" fill-opacity="1" /><path clip-path="url(#clip200)" d="M1173.42 48.0275 L1173.42 51.6733 L1139.14 51.6733 Q1139.63 59.3701 1143.76 63.421 Q1147.94 67.4314 1155.35 67.4314 Q1159.64 67.4314 1163.65 66.3781 Q1167.7 65.3249 1171.67 63.2184 L1171.67 70.267 Q1167.66 71.9684 1163.45 72.8596 Q1159.24 73.7508 1154.9 73.7508 Q1144.05 73.7508 1137.69 67.4314 Q1131.37 61.1119 1131.37 50.3365 Q1131.37 39.1965 1137.36 32.6746 Q1143.4 26.1121 1153.61 26.1121 Q1162.76 26.1121 1168.07 32.0264 Q1173.42 37.9003 1173.42 48.0275 M1165.96 45.84 Q1165.88 39.7232 1162.52 36.0774 Q1159.2 32.4315 1153.69 32.4315 Q1147.45 32.4315 1143.68 35.9558 Q1139.95 39.4801 1139.39 45.8805 L1165.96 45.84 Z" fill="#000000" fill-rule="evenodd" fill-opacity="1" /><path clip-path="url(#clip200)" d="M1211.94 34.1734 Q1210.68 33.4443 1209.18 33.1202 Q1207.73 32.7556 1205.94 32.7556 Q1199.62 32.7556 1196.22 36.8875 Q1192.86 40.9789 1192.86 48.6757 L1192.86 72.576 L1185.37 72.576 L1185.37 27.2059 L1192.86 27.2059 L1192.86 34.2544 Q1195.21 30.1225 1198.98 28.1376 Q1202.74 26.1121 1208.13 26.1121 Q1208.9 26.1121 1209.83 26.2337 Q1210.76 26.3147 1211.9 26.5172 L1211.94 34.1734 Z" fill="#000000" fill-rule="evenodd" fill-opacity="1" /><path clip-path="url(#clip200)" d="M1263.71 32.4315 Q1257.71 32.4315 1254.23 37.1306 Q1250.75 41.7891 1250.75 49.9314 Q1250.75 58.0738 1254.19 62.7728 Q1257.67 67.4314 1263.71 67.4314 Q1269.66 67.4314 1273.15 62.7323 Q1276.63 58.0333 1276.63 49.9314 Q1276.63 41.8701 1273.15 37.1711 Q1269.66 32.4315 1263.71 32.4315 M1263.71 26.1121 Q1273.43 26.1121 1278.98 32.4315 Q1284.53 38.7509 1284.53 49.9314 Q1284.53 61.0714 1278.98 67.4314 Q1273.43 73.7508 1263.71 73.7508 Q1253.95 73.7508 1248.4 67.4314 Q1242.89 61.0714 1242.89 49.9314 Q1242.89 38.7509 1248.4 32.4315 Q1253.95 26.1121 1263.71 26.1121 Z" fill="#000000" fill-rule="evenodd" fill-opacity="1" /><path clip-path="url(#clip200)" d="M1319.86 9.54393 L1319.86 15.7418 L1312.73 15.7418 Q1308.72 15.7418 1307.14 17.3622 Q1305.6 18.9825 1305.6 23.1955 L1305.6 27.2059 L1317.87 27.2059 L1317.87 32.9987 L1305.6 32.9987 L1305.6 72.576 L1298.1 72.576 L1298.1 32.9987 L1290.97 32.9987 L1290.97 27.2059 L1298.1 27.2059 L1298.1 24.0462 Q1298.1 16.471 1301.63 13.0277 Q1305.15 9.54393 1312.81 9.54393 L1319.86 9.54393 Z" fill="#000000" fill-rule="evenodd" fill-opacity="1" /><path clip-path="url(#clip200)" d="M1352.79 12.096 L1360.97 12.096 L1360.97 72.576 L1352.79 72.576 L1352.79 12.096 Z" fill="#000000" fill-rule="evenodd" fill-opacity="1" /><path clip-path="url(#clip200)" d="M1414.65 45.1919 L1414.65 72.576 L1407.19 72.576 L1407.19 45.4349 Q1407.19 38.994 1404.68 35.7938 Q1402.17 32.5936 1397.15 32.5936 Q1391.11 32.5936 1387.63 36.4419 Q1384.14 40.2903 1384.14 46.9338 L1384.14 72.576 L1376.65 72.576 L1376.65 27.2059 L1384.14 27.2059 L1384.14 34.2544 Q1386.82 30.163 1390.42 28.1376 Q1394.07 26.1121 1398.81 26.1121 Q1406.63 26.1121 1410.64 30.9732 Q1414.65 35.7938 1414.65 45.1919 Z" fill="#000000" fill-rule="evenodd" fill-opacity="1" /><path clip-path="url(#clip200)" d="M1452.48 9.54393 L1452.48 15.7418 L1445.35 15.7418 Q1441.34 15.7418 1439.76 17.3622 Q1438.22 18.9825 1438.22 23.1955 L1438.22 27.2059 L1450.5 27.2059 L1450.5 32.9987 L1438.22 32.9987 L1438.22 72.576 L1430.73 72.576 L1430.73 32.9987 L1423.6 32.9987 L1423.6 27.2059 L1430.73 27.2059 L1430.73 24.0462 Q1430.73 16.471 1434.25 13.0277 Q1437.78 9.54393 1445.43 9.54393 L1452.48 9.54393 Z" fill="#000000" fill-rule="evenodd" fill-opacity="1" /><path clip-path="url(#clip200)" d="M1497.53 48.0275 L1497.53 51.6733 L1463.26 51.6733 Q1463.74 59.3701 1467.88 63.421 Q1472.05 67.4314 1479.46 67.4314 Q1483.76 67.4314 1487.77 66.3781 Q1491.82 65.3249 1495.79 63.2184 L1495.79 70.267 Q1491.78 71.9684 1487.56 72.8596 Q1483.35 73.7508 1479.02 73.7508 Q1468.16 73.7508 1461.8 67.4314 Q1455.48 61.1119 1455.48 50.3365 Q1455.48 39.1965 1461.48 32.6746 Q1467.51 26.1121 1477.72 26.1121 Q1486.87 26.1121 1492.18 32.0264 Q1497.53 37.9003 1497.53 48.0275 M1490.07 45.84 Q1489.99 39.7232 1486.63 36.0774 Q1483.31 32.4315 1477.8 32.4315 Q1471.56 32.4315 1467.79 35.9558 Q1464.07 39.4801 1463.5 45.8805 L1490.07 45.84 Z" fill="#000000" fill-rule="evenodd" fill-opacity="1" /><path clip-path="url(#clip200)" d="M1542.41 28.9478 L1542.41 35.9153 Q1539.25 34.1734 1536.05 33.3227 Q1532.89 32.4315 1529.65 32.4315 Q1522.4 32.4315 1518.39 37.0496 Q1514.38 41.6271 1514.38 49.9314 Q1514.38 58.2358 1518.39 62.8538 Q1522.4 67.4314 1529.65 67.4314 Q1532.89 67.4314 1536.05 66.5807 Q1539.25 65.6895 1542.41 63.9476 L1542.41 70.8341 Q1539.29 72.2924 1535.93 73.0216 Q1532.61 73.7508 1528.84 73.7508 Q1518.59 73.7508 1512.56 67.3098 Q1506.52 60.8689 1506.52 49.9314 Q1506.52 38.832 1512.6 32.472 Q1518.71 26.1121 1529.33 26.1121 Q1532.77 26.1121 1536.05 26.8413 Q1539.33 27.5299 1542.41 28.9478 Z" fill="#000000" fill-rule="evenodd" fill-opacity="1" /><path clip-path="url(#clip200)" d="M1562.75 14.324 L1562.75 27.2059 L1578.1 27.2059 L1578.1 32.9987 L1562.75 32.9987 L1562.75 57.6282 Q1562.75 63.1779 1564.25 64.7578 Q1565.79 66.3376 1570.44 66.3376 L1578.1 66.3376 L1578.1 72.576 L1570.44 72.576 Q1561.82 72.576 1558.53 69.3758 Q1555.25 66.1351 1555.25 57.6282 L1555.25 32.9987 L1549.78 32.9987 L1549.78 27.2059 L1555.25 27.2059 L1555.25 14.324 L1562.75 14.324 Z" fill="#000000" fill-rule="evenodd" fill-opacity="1" /><path clip-path="url(#clip200)" d="M1587.9 27.2059 L1595.36 27.2059 L1595.36 72.576 L1587.9 72.576 L1587.9 27.2059 M1587.9 9.54393 L1595.36 9.54393 L1595.36 18.9825 L1587.9 18.9825 L1587.9 9.54393 Z" fill="#000000" fill-rule="evenodd" fill-opacity="1" /><path clip-path="url(#clip200)" d="M1628.53 32.4315 Q1622.54 32.4315 1619.06 37.1306 Q1615.57 41.7891 1615.57 49.9314 Q1615.57 58.0738 1619.01 62.7728 Q1622.5 67.4314 1628.53 67.4314 Q1634.49 67.4314 1637.97 62.7323 Q1641.46 58.0333 1641.46 49.9314 Q1641.46 41.8701 1637.97 37.1711 Q1634.49 32.4315 1628.53 32.4315 M1628.53 26.1121 Q1638.26 26.1121 1643.81 32.4315 Q1649.36 38.7509 1649.36 49.9314 Q1649.36 61.0714 1643.81 67.4314 Q1638.26 73.7508 1628.53 73.7508 Q1618.77 73.7508 1613.22 67.4314 Q1607.71 61.0714 1607.71 49.9314 Q1607.71 38.7509 1613.22 32.4315 Q1618.77 26.1121 1628.53 26.1121 Z" fill="#000000" fill-rule="evenodd" fill-opacity="1" /><path clip-path="url(#clip200)" d="M1699.43 45.1919 L1699.43 72.576 L1691.97 72.576 L1691.97 45.4349 Q1691.97 38.994 1689.46 35.7938 Q1686.95 32.5936 1681.93 32.5936 Q1675.89 32.5936 1672.41 36.4419 Q1668.92 40.2903 1668.92 46.9338 L1668.92 72.576 L1661.43 72.576 L1661.43 27.2059 L1668.92 27.2059 L1668.92 34.2544 Q1671.6 30.163 1675.2 28.1376 Q1678.85 26.1121 1683.59 26.1121 Q1691.4 26.1121 1695.41 30.9732 Q1699.43 35.7938 1699.43 45.1919 Z" fill="#000000" fill-rule="evenodd" fill-opacity="1" /><path clip-path="url(#clip200)" d="M1743.22 28.5427 L1743.22 35.5912 Q1740.06 33.9709 1736.65 33.1607 Q1733.25 32.3505 1729.6 32.3505 Q1724.05 32.3505 1721.26 34.0519 Q1718.5 35.7533 1718.5 39.156 Q1718.5 41.7486 1720.49 43.2475 Q1722.47 44.7058 1728.47 46.0426 L1731.02 46.6097 Q1738.96 48.3111 1742.28 51.4303 Q1745.65 54.509 1745.65 60.0587 Q1745.65 66.3781 1740.62 70.0644 Q1735.64 73.7508 1726.89 73.7508 Q1723.24 73.7508 1719.27 73.0216 Q1715.35 72.3329 1710.97 70.9151 L1710.97 63.2184 Q1715.1 65.3654 1719.11 66.4591 Q1723.12 67.5124 1727.05 67.5124 Q1732.32 67.5124 1735.15 65.73 Q1737.99 63.9071 1737.99 60.6258 Q1737.99 57.5877 1735.92 55.9673 Q1733.9 54.3469 1726.97 52.8481 L1724.38 52.2405 Q1717.45 50.7821 1714.37 47.7845 Q1711.29 44.7463 1711.29 39.4801 Q1711.29 33.0797 1715.83 29.5959 Q1720.37 26.1121 1728.71 26.1121 Q1732.85 26.1121 1736.49 26.7198 Q1740.14 27.3274 1743.22 28.5427 Z" fill="#000000" fill-rule="evenodd" fill-opacity="1" /><polyline clip-path="url(#clip202)" style="stroke:#009af9; stroke-linecap:butt; stroke-linejoin:round; stroke-width:4; stroke-opacity:1; fill:none" points="
  279.704,1386.29 279.76,1386.29 279.773,1386.29 279.788,1386.29 279.805,1386.29 279.824,1386.29 279.845,1386.29 279.869,1386.29 279.896,1386.29 279.927,1386.29 
  279.961,1386.29 280,1386.29 280.043,1386.3 280.092,1386.3 280.146,1386.3 280.208,1386.3 280.278,1386.3 280.356,1386.3 280.444,1386.3 280.542,1386.3 
  280.654,1386.3 280.779,1386.3 280.919,1386.3 281.078,1386.3 281.256,1386.3 281.456,1386.3 281.679,1386.3 281.923,1386.31 282.188,1386.31 282.47,1386.31 
  282.769,1386.31 283.082,1386.31 283.409,1386.31 283.748,1386.32 284.097,1386.32 284.456,1386.32 284.821,1386.32 285.194,1386.32 285.573,1386.33 285.957,1386.33 
  286.345,1386.33 286.738,1386.33 287.137,1386.33 287.544,1386.34 287.958,1386.34 288.383,1386.34 288.815,1386.34 289.255,1386.34 289.703,1386.34 290.155,1386.35 
  290.613,1386.35 291.08,1386.35 291.558,1386.35 292.043,1386.35 292.531,1386.35 293.027,1386.36 293.524,1386.36 294.028,1386.36 294.538,1386.36 295.054,1386.36 
  295.571,1386.36 296.089,1386.37 296.614,1386.37 297.143,1386.37 297.674,1386.37 298.211,1386.37 298.749,1386.37 299.291,1386.38 299.84,1386.38 300.395,1386.38 
  300.958,1386.38 301.533,1386.38 302.116,1386.38 302.708,1386.38 303.312,1386.38 303.925,1386.39 304.548,1386.39 305.184,1386.39 305.83,1386.39 306.485,1386.39 
  307.153,1386.39 307.837,1386.39 308.534,1386.39 309.243,1386.39 309.964,1386.39 310.692,1386.39 311.431,1386.39 312.18,1386.39 312.933,1386.4 313.7,1386.4 
  314.493,1386.4 315.315,1386.4 316.156,1386.4 317.009,1386.4 317.87,1386.4 318.751,1386.4 319.645,1386.39 320.556,1386.39 321.478,1386.39 322.406,1386.39 
  323.341,1386.39 324.287,1386.39 325.245,1386.39 326.207,1386.39 327.162,1386.39 328.13,1386.39 329.101,1386.39 330.059,1386.39 331.027,1386.39 332.002,1386.39 
  332.993,1386.39 334.005,1386.39 335.039,1386.39 336.083,1386.39 337.124,1386.39 338.168,1386.39 339.228,1386.38 340.301,1386.38 341.38,1386.38 342.469,1386.38 
  343.583,1386.38 344.746,1386.38 345.934,1386.38 347.13,1386.37 348.34,1386.37 349.566,1386.37 350.794,1386.37 352.048,1386.37 353.338,1386.36 354.676,1386.36 
  356.067,1386.36 357.48,1386.35 358.915,1386.35 360.324,1386.35 361.774,1386.34 363.279,1386.34 364.836,1386.33 366.441,1386.33 368.012,1386.32 369.6,1386.32 
  371.255,1386.31 372.96,1386.31 374.734,1386.3 376.564,1386.3 378.449,1386.29 380.311,1386.28 382.203,1386.27 384.195,1386.27 386.244,1386.26 388.363,1386.25 
  390.597,1386.24 393.045,1386.23 395.407,1386.21 398.032,1386.2 400.711,1386.19 403.245,1386.17 405.876,1386.16 408.72,1386.14 411.637,1386.12 414.704,1386.11 
  417.691,1386.09 420.683,1386.07 423.865,1386.05 427.275,1386.02 431.048,1385.99 434.946,1385.96 439.079,1385.92 443.729,1385.88 448.961,1385.83 454.55,1385.76 
  460.839,1385.66 463.249,1385.63 465.96,1385.59 469.011,1385.54 472.442,1385.49 476.302,1385.44 480.001,1385.39 483.771,1385.33 488.013,1385.27 492.784,1385.19 
  498.153,1385.1 503.996,1385 510.57,1384.87 517.966,1384.73 523.582,1384.61 529.899,1384.46 537.006,1384.3 544.491,1384.09 552.159,1383.85 558.897,1383.62 
  565.744,1383.37 573.446,1383.06 581.514,1382.68 587.978,1382.36 594.627,1381.99 600.809,1381.63 606.566,1381.24 612.281,1380.85 617.494,1380.45 622.521,1380.02 
  627.066,1379.62 631.764,1379.16 635.892,1378.72 639.811,1378.28 643.52,1377.84 647.08,1377.42 650.668,1376.97 654.361,1376.42 657.358,1375.96 660.345,1375.48 
  663.219,1375.01 666.035,1374.53 668.813,1374.04 671.533,1373.55 674.261,1373.05 676.978,1372.53 679.719,1372 682.463,1371.47 685.339,1370.91 688.433,1370.29 
  691.48,1369.67 694.766,1368.93 697.917,1368.17 700.876,1367.45 703.904,1366.65 706.969,1365.75 709.692,1364.89 712.327,1364.02 714.87,1363.17 717.375,1362.3 
  719.888,1361.38 722.272,1360.5 724.697,1359.59 727.135,1358.67 729.59,1357.73 732.143,1356.7 734.603,1355.67 737.073,1354.61 739.589,1353.47 742.075,1352.3 
  744.523,1351.18 747.107,1350.05 749.943,1348.78 752.849,1347.45 755.988,1345.91 759.004,1344.43 762.208,1342.87 765.745,1341.11 769.407,1339.21 773.356,1337.08 
  777.279,1334.99 781.692,1332.57 786.497,1329.9 791.683,1326.93 797.519,1323.66 804.083,1320.07 811.468,1315.63 819.776,1309.46 826.182,1304.41 832.067,1299.67 
  838.687,1293.78 845.208,1287.39 850.791,1282.22 857.073,1276.3 864.139,1269.49 872.088,1261.07 880.755,1250.85 888.207,1241.86 896.591,1231.33 905.268,1220.4 
  914.449,1210.21 920.659,1204.16 925.879,1198.69 931.08,1193.13 936.122,1187.85 940.936,1181.96 946.116,1175.3 951.546,1168.56 956.762,1161 962.271,1152.23 
  968.469,1142.44 974.798,1132.54 980.708,1123.62 986.427,1115.38 991.76,1107.96 996.897,1100.79 1001.53,1093.84 1006.47,1086.54 1011.02,1079.09 1015.77,1070.55 
  1020.83,1060.42 1026.11,1048.59 1031.6,1035.14 1036.99,1020.48 1042.21,1006.52 1047.43,992.268 1052.52,977.949 1057.69,962.887 1062.53,949.672 1067.6,936.596 
  1072.57,924.205 1077.48,911.298 1082.34,897.998 1087.12,885.913 1091.82,872.311 1096.45,856.584 1100.7,841.902 1104.95,826.959 1108.94,813.765 1113.02,800.433 
  1116.99,788.261 1120.95,775.483 1124.86,760.919 1128.52,746.651 1132.05,732.944 1135.42,719.064 1138.71,704.578 1141.78,690.361 1144.71,676.642 1147.59,662.347 
  1150.24,648.76 1152.78,635.605 1155.26,622.616 1157.65,610.435 1160,599.086 1162.33,587.504 1164.65,576.124 1166.9,565.791 1169.21,555.116 1171.47,544.784 
  1173.71,534.317 1175.97,524.065 1178.18,513.569 1180.37,503.335 1182.52,494.205 1184.76,484.749 1186.97,475.321 1189.19,465.198 1191.32,455.149 1193.42,445.11 
  1195.48,435.007 1197.49,425.752 1199.51,416.546 1201.53,407.203 1203.5,398.854 1205.5,390.203 1207.49,381.481 1209.44,373.589 1211.43,364.661 1213.34,355.309 
  1215.2,346.251 1217.03,337.809 1218.86,329.085 1220.65,320.58 1222.41,312.654 1224.18,304.712 1225.93,296.983 1227.67,289.297 1229.4,281.786 1231.12,274.357 
  1232.83,266.978 1234.53,260.63 1236.25,254.995 1238.03,249.011 1239.78,243.586 1241.55,237.564 1243.3,231.229 1245.03,225.419 1246.76,220.244 1248.5,215.962 
  1250.3,211.278 1252.07,206.885 1253.86,202.622 1255.66,198.753 1257.46,195.211 1259.28,192.043 1261.13,188.898 1262.97,185.451 1264.82,181.568 1266.63,177.851 
  1268.43,175.025 1270.25,172.646 1272.09,170.225 1273.92,168.01 1275.77,166.53 1277.64,164.865 1279.5,162.688 1281.35,160.787 1283.17,160.256 1285.07,160.44 
  1286.99,161.243 1288.95,162.498 1290.95,164.212 1292.99,165.431 1295.03,166.592 1297.06,167.497 1299.08,167.909 1301.06,168.705 1303.05,169.668 1305.05,169.788 
  1306.98,170.504 1308.91,171.541 1310.86,173.219 1312.81,175.473 1314.8,178.183 1316.79,181.516 1318.85,185.32 1320.92,189.707 1323.04,193.991 1325.17,198.457 
  1327.31,203.308 1329.47,208.883 1331.69,214.932 1333.93,220.989 1336.19,227.59 1338.5,235.246 1340.87,244.064 1343.3,252.975 1345.78,261.841 1348.27,271.127 
  1350.83,280.491 1353.4,289.487 1355.98,298.693 1358.6,307.446 1361.19,315.977 1363.77,324.608 1366.38,333.473 1369.01,341.943 1371.58,350.319 1374.15,359.473 
  1376.78,369.059 1379.46,378.934 1382.13,389.685 1384.92,400.439 1387.7,411.343 1390.53,423.27 1393.46,435.793 1396.45,448.244 1399.5,460.327 1402.53,472.469 
  1405.62,484.777 1408.73,496.723 1411.86,508.491 1414.9,520.254 1418.07,532.276 1421.2,544.848 1424.44,558.387 1427.81,572.816 1431.28,587.824 1434.85,602.974 
  1438.5,618.504 1442.25,634.273 1446.07,650.518 1450,666.782 1454.03,682.82 1458.14,699.077 1462.31,715.142 1466.62,731.959 1471.01,749.626 1475.48,766.793 
  1480.03,783.787 1484.8,801.125 1489.69,818.376 1494.72,835.673 1499.89,853.108 1505.18,870.828 1510.68,888.865 1516.36,907.972 1521.9,926.402 1526.99,942.669 
  1532.32,958.95 1537.48,974.21 1542.72,989.014 1548.2,1003.5 1554.32,1018.87 1561.02,1034.98 1567.98,1051.23 1575.46,1068.55 1582.95,1085.32 1590.09,1100.54 
  1596.91,1114.16 1604.6,1129.25 1612.09,1142.81 1620.16,1156.93 1628.52,1170.34 1636.75,1183.26 1645.93,1196.33 1654.18,1207.27 1663.46,1218.97 1673.9,1231.46 
  1683.45,1242.33 1693.28,1252.53 1701.9,1260.6 1711.6,1269.29 1722.51,1278.22 1734.78,1287.68 1748.36,1297.37 1758,1303.63 1768.84,1310.27 1776.67,1314.63 
  1785.49,1319.33 1795.04,1323.78 1805.78,1328.37 1812.26,1331 1819.55,1333.75 1826.74,1336.37 1834.13,1339 1842.45,1341.93 1851.8,1345.13 1857.69,1346.96 
  1864.31,1348.99 1870.38,1350.74 1876.96,1352.63 1882.72,1354.25 1887.43,1355.5 1892.24,1356.68 1897.59,1357.96 1903.34,1359.25 1908.97,1360.44 1915.3,1361.69 
  1922.42,1363.06 1929.99,1364.44 1937.12,1365.66 1945.14,1366.96 1953.42,1368.16 1962.73,1369.43 1973.21,1370.72 1985,1372.07 1994.64,1373.08 2004.95,1374.11 
  2016.54,1375.22 2029.59,1376.32 2039.93,1377.14 2051.57,1378.02 2057.3,1378.41 2063.76,1378.84 2071.02,1379.29 2079.19,1379.78 2087.48,1380.24 2095.03,1380.64 
  2103.53,1381.07 2110.22,1381.38 2117.6,1381.7 2125.91,1382.05 2133.14,1382.32 2141.27,1382.59 2150.35,1382.86 2157.79,1383.08 2164.16,1383.25 2171.33,1383.45 
  2179.4,1383.65 2187.27,1383.83 2194,1383.98 2200.37,1384.11 2205.88,1384.22 2211.91,1384.34 2218.38,1384.47 2225.66,1384.62 2233.85,1384.77 2243.06,1384.92 
  2249.59,1385.02 2256.49,1385.12 2262.35,1385.19 2268.21,1385.27 2274.54,1385.36 2281.67,1385.45 2289.69,1385.55 2298.7,1385.66 2303.28,1385.71 2308.42,1385.76 
  2314.21,1385.82 2320.72,1385.89 2328.05,1385.95 2336.29,1386.02 2341.08,1386.06 2346.46,1386.1 2350.7,1386.14 2352.76,1386.15 
  "/>
<polyline clip-path="url(#clip202)" style="stroke:#e26f46; stroke-linecap:butt; stroke-linejoin:round; stroke-width:4; stroke-opacity:1; fill:none" points="
  279.704,1386.29 279.76,1386.29 279.773,1386.29 279.788,1386.29 279.805,1386.29 279.824,1386.29 279.845,1386.29 279.869,1386.29 279.896,1386.29 279.927,1386.29 
  279.961,1386.29 279.999,1386.29 280.043,1386.3 280.091,1386.3 280.146,1386.3 280.208,1386.3 280.277,1386.3 280.355,1386.3 280.443,1386.3 280.542,1386.3 
  280.653,1386.3 280.778,1386.3 280.919,1386.3 281.077,1386.3 281.255,1386.3 281.455,1386.3 281.677,1386.3 281.918,1386.31 282.179,1386.31 282.457,1386.31 
  282.753,1386.31 283.064,1386.31 283.389,1386.31 283.727,1386.32 284.075,1386.32 284.433,1386.32 284.801,1386.32 285.177,1386.32 285.562,1386.33 285.955,1386.33 
  286.354,1386.33 286.759,1386.33 287.17,1386.33 287.587,1386.34 288.01,1386.34 288.442,1386.34 288.886,1386.34 289.338,1386.34 289.794,1386.34 290.253,1386.35 
  290.716,1386.35 291.184,1386.35 291.66,1386.35 292.143,1386.35 292.633,1386.35 293.129,1386.36 293.629,1386.36 294.132,1386.36 294.638,1386.36 295.144,1386.36 
  295.655,1386.36 296.173,1386.37 296.705,1386.37 297.25,1386.37 297.806,1386.37 298.375,1386.37 298.955,1386.37 299.55,1386.37 300.159,1386.37 300.784,1386.38 
  301.421,1386.38 302.065,1386.38 302.716,1386.38 303.372,1386.38 304.04,1386.38 304.719,1386.38 305.402,1386.38 306.093,1386.38 306.79,1386.38 307.491,1386.38 
  308.19,1386.39 308.895,1386.39 309.614,1386.39 310.337,1386.39 311.076,1386.39 311.827,1386.39 312.588,1386.39 313.368,1386.39 314.182,1386.39 315.033,1386.39 
  315.914,1386.39 316.819,1386.39 317.728,1386.39 318.627,1386.39 319.542,1386.39 320.48,1386.39 321.442,1386.39 322.425,1386.39 323.426,1386.38 324.465,1386.38 
  325.57,1386.38 326.743,1386.38 327.973,1386.37 329.259,1386.37 330.571,1386.37 331.913,1386.37 333.289,1386.36 334.708,1386.36 336.156,1386.35 337.651,1386.35 
  339.18,1386.35 340.747,1386.34 342.346,1386.34 343.98,1386.33 345.684,1386.33 347.455,1386.32 349.21,1386.31 350.954,1386.31 352.687,1386.3 354.403,1386.3 
  356.047,1386.3 357.706,1386.29 359.383,1386.29 361.102,1386.28 362.861,1386.27 364.685,1386.27 366.64,1386.26 368.634,1386.25 370.682,1386.24 372.987,1386.23 
  375.364,1386.22 377.763,1386.21 380.108,1386.2 382.395,1386.19 384.701,1386.17 387.216,1386.16 389.837,1386.15 392.433,1386.13 395.281,1386.11 398.425,1386.09 
  401.578,1386.07 404.875,1386.05 408.157,1386.02 411.767,1386 415.696,1385.96 419.971,1385.92 424.781,1385.88 430.192,1385.82 435.366,1385.77 441.187,1385.71 
  447.372,1385.64 453.824,1385.56 460.657,1385.49 466.57,1385.41 472.941,1385.34 479.24,1385.25 485.234,1385.17 491.135,1385.09 497.768,1385 502.754,1384.94 
  507.121,1384.88 511.586,1384.81 516.3,1384.73 521.603,1384.64 527.044,1384.53 533.051,1384.41 539.598,1384.28 545.53,1384.15 552.205,1384.01 558.196,1383.89 
  563.014,1383.78 568.093,1383.66 573.643,1383.5 579.886,1383.33 585.965,1383.14 592.804,1382.93 599.615,1382.69 607.278,1382.41 615.589,1382.11 622.665,1381.83 
  630.626,1381.43 639.582,1380.91 647.481,1380.35 653.098,1379.93 658.994,1379.43 664.404,1378.96 669.945,1378.48 675.872,1377.99 682.54,1377.43 690.041,1376.79 
  698.481,1376.04 703.57,1375.55 709.296,1374.96 715.737,1374.34 721.887,1373.71 727.655,1373.12 733.309,1372.47 739.67,1371.61 746.826,1370.58 752.035,1369.85 
  757.895,1368.95 764.488,1367.87 771.904,1366.7 777.347,1365.73 783.471,1364.5 790.36,1362.91 795.378,1361.66 800.598,1360.33 806.471,1358.85 813.077,1357.28 
  820.51,1355.41 828.717,1353.04 837.951,1350.09 846.965,1346.71 857.106,1342.28 864.207,1339.16 872.194,1335.59 881.18,1331.33 891.289,1325.77 899.782,1320.22 
  907.557,1315.41 915.618,1310.38 924.688,1304.52 934.751,1298.32 942.355,1292.93 950.91,1287.53 958.389,1282.38 965.788,1276.93 973.077,1270.87 981.277,1264.29 
  988.447,1259.26 994.633,1254.32 1000.5,1248.92 1007.1,1242.34 1013.77,1234.98 1021.28,1225.78 1029.72,1215.57 1038.39,1205.64 1045.78,1197.02 1052.85,1188.68 
  1059.93,1180.8 1066.06,1172.62 1072.6,1163.19 1079.71,1152.48 1086.56,1141.28 1094.08,1127.13 1101.29,1111.46 1108.13,1094.79 1114.43,1079.96 1120.57,1066.12 
  1127,1051.48 1133.4,1036.2 1139.61,1022.14 1145.79,1010.18 1151.45,997.045 1157.34,983.185 1163.05,970.455 1168.55,957.88 1173.97,944.779 1179.27,931.963 
  1184.47,918.445 1189.59,904.28 1194.58,889.426 1199.39,874.225 1204.03,859.698 1208.51,848.115 1213.06,835.724 1217.49,822.416 1221.79,810.522 1226.08,799.165 
  1230.28,789.884 1234.38,779.772 1238.4,770.795 1242.38,761.904 1246.25,752.683 1250.1,743.399 1253.92,733.683 1257.72,722.018 1261.44,708.484 1264.86,696.058 
  1268.24,682.696 1271.47,668.698 1274.43,656.526 1277.36,644.074 1280.19,632.625 1282.97,622.16 1285.77,611.471 1288.52,601.088 1291.22,591.163 1293.93,582.678 
  1296.7,575.44 1299.55,568.586 1302.43,561.977 1305.33,555.873 1308.26,548.927 1311.17,542.417 1314.11,535.874 1317.05,528.678 1319.93,522.682 1322.86,515.711 
  1325.75,508.454 1328.56,503.091 1331.44,497.825 1334.32,493.301 1337.19,489.46 1340.1,486.408 1343,483.453 1345.91,480.905 1348.82,478.121 1351.74,474.673 
  1354.65,470.881 1357.55,468.445 1360.47,466.82 1363.39,466.024 1366.32,465.111 1369.24,464.471 1372.17,462.94 1375.11,460.502 1378.02,458.643 1380.94,457.763 
  1383.88,456.511 1386.82,456.195 1389.77,457.162 1392.74,458.135 1395.71,460.161 1398.69,463.709 1401.59,467.295 1404.47,471.306 1407.36,475.6 1410.19,479.236 
  1413.07,482.768 1416,485.99 1418.96,489.671 1421.96,493.475 1424.95,496.925 1428.02,499.594 1431.12,502.218 1434.24,504.979 1437.4,507.673 1440.57,511.176 
  1443.78,514.867 1447.01,519.514 1450.28,524.944 1453.56,530.976 1456.84,537.485 1460.13,544.349 1463.4,550.69 1466.73,557.421 1470.1,564.147 1473.45,570.865 
  1476.9,578.018 1480.37,585.299 1483.84,592.568 1487.38,599.278 1490.99,605.7 1494.65,612.616 1498.35,620.016 1502.11,627.012 1505.9,634.841 1509.75,643.298 
  1513.65,652.323 1517.59,662.102 1521.48,671.219 1525.49,681.507 1529.41,690.911 1533.46,699.724 1537.64,708.529 1541.85,718.371 1546.17,728.107 1550.55,737.615 
  1555.01,747.352 1559.51,757.495 1564.13,768.232 1568.83,779.829 1573.58,791.364 1578.39,803.421 1583.27,815.537 1588.16,828.989 1592.68,842.012 1596.74,852.348 
  1601.22,863.087 1605.98,874.432 1610.92,885.93 1615.85,897.182 1621.1,909.448 1626.3,922.018 1631.28,934.275 1635.93,946.033 1640.13,955.949 1644.51,965.801 
  1649.08,975.19 1654.22,985.328 1659.99,995.599 1666.06,1006.32 1672.4,1017.3 1679.14,1028.61 1686.23,1038.34 1691.9,1045.63 1697,1052.35 1702.07,1059.07 
  1707.19,1065.14 1711.61,1070.12 1715.71,1074.91 1719.75,1079.72 1723.79,1084.5 1727.7,1089.09 1731.67,1093.86 1735.63,1098.75 1739.72,1103.98 1743.97,1109.57 
  1748.74,1116.01 1753.81,1123.2 1759.51,1130.62 1765.3,1137.83 1771.17,1145.2 1777.35,1152.9 1784.31,1161.5 1791.71,1170.65 1800.04,1180.29 1809.26,1190.21 
  1819.02,1200.82 1829.85,1212.02 1841.15,1222.94 1853.43,1234.11 1867.25,1245.59 1882.11,1257.83 1898.83,1270.29 1911.03,1278.77 1924.75,1287.89 1934.77,1294.01 
  1946.05,1300.45 1955.41,1305.09 1965.94,1309.91 1977.13,1314.71 1987.55,1319.1 1999.27,1323.54 2012.46,1328.28 2021.94,1331.61 2032.6,1335.21 2044.08,1338.72 
  2057,1342.61 2066.29,1345.21 2075.49,1347.67 2084.19,1349.82 2093.98,1352.01 2104.99,1354.2 2117.38,1356.59 2131.31,1358.95 2143.74,1360.88 2155.1,1362.62 
  2167.87,1364.35 2181.54,1366.04 2190.54,1367.13 2200.67,1368.32 2212.06,1369.56 2224.88,1370.94 2233.83,1371.85 2243.91,1372.8 2255.25,1373.72 2266.8,1374.6 
  2276.14,1375.27 2286.65,1375.98 2298.01,1376.72 2309.56,1377.47 2321.87,1378.2 2335.72,1378.93 2351.29,1379.68 2352.76,1379.74 
  "/>
<path clip-path="url(#clip200)" d="
M1778.25 322.316 L2283.65 322.316 L2283.65 166.796 L1778.25 166.796  Z
  " fill="#ffffff" fill-rule="evenodd" fill-opacity="1"/>
<polyline clip-path="url(#clip200)" style="stroke:#000000; stroke-linecap:butt; stroke-linejoin:round; stroke-width:4; stroke-opacity:1; fill:none" points="
  1778.25,322.316 2283.65,322.316 2283.65,166.796 1778.25,166.796 1778.25,322.316 
  "/>
<polyline clip-path="url(#clip200)" style="stroke:#009af9; stroke-linecap:butt; stroke-linejoin:round; stroke-width:4; stroke-opacity:1; fill:none" points="
  1801.28,218.636 1939.48,218.636 
  "/>
<path clip-path="url(#clip200)" d="M1962.52 201.356 L1991.75 201.356 L1991.75 205.291 L1979.49 205.291 L1979.49 235.916 L1974.79 235.916 L1974.79 205.291 L1962.52 205.291 L1962.52 201.356 Z" fill="#000000" fill-rule="evenodd" fill-opacity="1" /><path clip-path="url(#clip200)" d="M2004.14 213.971 Q2003.42 213.555 2002.56 213.37 Q2001.73 213.161 2000.71 213.161 Q1997.1 213.161 1995.16 215.522 Q1993.24 217.86 1993.24 222.258 L1993.24 235.916 L1988.95 235.916 L1988.95 209.99 L1993.24 209.99 L1993.24 214.018 Q1994.58 211.657 1996.73 210.522 Q1998.88 209.365 2001.96 209.365 Q2002.4 209.365 2002.93 209.434 Q2003.47 209.481 2004.12 209.596 L2004.14 213.971 Z" fill="#000000" fill-rule="evenodd" fill-opacity="1" /><path clip-path="url(#clip200)" d="M2020.39 222.883 Q2015.23 222.883 2013.24 224.064 Q2011.24 225.244 2011.24 228.092 Q2011.24 230.36 2012.73 231.703 Q2014.23 233.022 2016.8 233.022 Q2020.34 233.022 2022.47 230.522 Q2024.62 227.999 2024.62 223.832 L2024.62 222.883 L2020.39 222.883 M2028.88 221.124 L2028.88 235.916 L2024.62 235.916 L2024.62 231.981 Q2023.17 234.342 2020.99 235.476 Q2018.81 236.587 2015.67 236.587 Q2011.68 236.587 2009.32 234.365 Q2006.99 232.119 2006.99 228.369 Q2006.99 223.994 2009.9 221.772 Q2012.84 219.55 2018.65 219.55 L2024.62 219.55 L2024.62 219.133 Q2024.62 216.194 2022.68 214.596 Q2020.76 212.976 2017.26 212.976 Q2015.04 212.976 2012.93 213.508 Q2010.83 214.041 2008.88 215.106 L2008.88 211.17 Q2011.22 210.268 2013.42 209.828 Q2015.62 209.365 2017.7 209.365 Q2023.33 209.365 2026.11 212.282 Q2028.88 215.198 2028.88 221.124 Z" fill="#000000" fill-rule="evenodd" fill-opacity="1" /><path clip-path="url(#clip200)" d="M2037.66 209.99 L2041.92 209.99 L2041.92 236.379 Q2041.92 241.332 2040.02 243.555 Q2038.14 245.777 2033.95 245.777 L2032.33 245.777 L2032.33 242.166 L2033.47 242.166 Q2035.9 242.166 2036.78 241.031 Q2037.66 239.92 2037.66 236.379 L2037.66 209.99 M2037.66 199.897 L2041.92 199.897 L2041.92 205.291 L2037.66 205.291 L2037.66 199.897 Z" fill="#000000" fill-rule="evenodd" fill-opacity="1" /><path clip-path="url(#clip200)" d="M2073 221.888 L2073 223.971 L2053.42 223.971 Q2053.7 228.369 2056.06 230.684 Q2058.44 232.976 2062.68 232.976 Q2065.13 232.976 2067.43 232.374 Q2069.74 231.772 2072.01 230.569 L2072.01 234.596 Q2069.72 235.568 2067.31 236.078 Q2064.9 236.587 2062.43 236.587 Q2056.22 236.587 2052.59 232.976 Q2048.98 229.365 2048.98 223.207 Q2048.98 216.842 2052.4 213.115 Q2055.85 209.365 2061.68 209.365 Q2066.92 209.365 2069.95 212.745 Q2073 216.101 2073 221.888 M2068.74 220.638 Q2068.7 217.143 2066.78 215.059 Q2064.88 212.976 2061.73 212.976 Q2058.17 212.976 2056.01 214.99 Q2053.88 217.004 2053.56 220.661 L2068.74 220.638 Z" fill="#000000" fill-rule="evenodd" fill-opacity="1" /><path clip-path="url(#clip200)" d="M2098.65 210.985 L2098.65 214.967 Q2096.85 213.971 2095.02 213.485 Q2093.21 212.976 2091.36 212.976 Q2087.22 212.976 2084.93 215.615 Q2082.63 218.231 2082.63 222.976 Q2082.63 227.721 2084.93 230.36 Q2087.22 232.976 2091.36 232.976 Q2093.21 232.976 2095.02 232.49 Q2096.85 231.981 2098.65 230.985 L2098.65 234.92 Q2096.87 235.754 2094.95 236.17 Q2093.05 236.587 2090.9 236.587 Q2085.04 236.587 2081.59 232.906 Q2078.14 229.226 2078.14 222.976 Q2078.14 216.633 2081.61 212.999 Q2085.11 209.365 2091.18 209.365 Q2093.14 209.365 2095.02 209.782 Q2096.89 210.175 2098.65 210.985 Z" fill="#000000" fill-rule="evenodd" fill-opacity="1" /><path clip-path="url(#clip200)" d="M2110.27 202.629 L2110.27 209.99 L2119.05 209.99 L2119.05 213.3 L2110.27 213.3 L2110.27 227.374 Q2110.27 230.545 2111.13 231.448 Q2112.01 232.351 2114.67 232.351 L2119.05 232.351 L2119.05 235.916 L2114.67 235.916 Q2109.74 235.916 2107.86 234.087 Q2105.99 232.235 2105.99 227.374 L2105.99 213.3 L2102.86 213.3 L2102.86 209.99 L2105.99 209.99 L2105.99 202.629 L2110.27 202.629 Z" fill="#000000" fill-rule="evenodd" fill-opacity="1" /><path clip-path="url(#clip200)" d="M2134.69 212.976 Q2131.27 212.976 2129.28 215.661 Q2127.29 218.323 2127.29 222.976 Q2127.29 227.629 2129.25 230.314 Q2131.24 232.976 2134.69 232.976 Q2138.1 232.976 2140.09 230.291 Q2142.08 227.606 2142.08 222.976 Q2142.08 218.37 2140.09 215.684 Q2138.1 212.976 2134.69 212.976 M2134.69 209.365 Q2140.25 209.365 2143.42 212.976 Q2146.59 216.587 2146.59 222.976 Q2146.59 229.342 2143.42 232.976 Q2140.25 236.587 2134.69 236.587 Q2129.11 236.587 2125.94 232.976 Q2122.8 229.342 2122.8 222.976 Q2122.8 216.587 2125.94 212.976 Q2129.11 209.365 2134.69 209.365 Z" fill="#000000" fill-rule="evenodd" fill-opacity="1" /><path clip-path="url(#clip200)" d="M2168.67 213.971 Q2167.96 213.555 2167.1 213.37 Q2166.27 213.161 2165.25 213.161 Q2161.64 213.161 2159.69 215.522 Q2157.77 217.86 2157.77 222.258 L2157.77 235.916 L2153.49 235.916 L2153.49 209.99 L2157.77 209.99 L2157.77 214.018 Q2159.11 211.657 2161.27 210.522 Q2163.42 209.365 2166.5 209.365 Q2166.94 209.365 2167.47 209.434 Q2168 209.481 2168.65 209.596 L2168.67 213.971 Z" fill="#000000" fill-rule="evenodd" fill-opacity="1" /><path clip-path="url(#clip200)" d="M2183.93 238.323 Q2182.12 242.953 2180.41 244.365 Q2178.7 245.777 2175.83 245.777 L2172.42 245.777 L2172.42 242.212 L2174.92 242.212 Q2176.68 242.212 2177.66 241.379 Q2178.63 240.545 2179.81 237.443 L2180.57 235.499 L2170.09 209.99 L2174.6 209.99 L2182.7 230.268 L2190.8 209.99 L2195.32 209.99 L2183.93 238.323 Z" fill="#000000" fill-rule="evenodd" fill-opacity="1" /><path clip-path="url(#clip200)" d="M2217.68 231.981 L2225.32 231.981 L2225.32 205.615 L2217.01 207.282 L2217.01 203.022 L2225.27 201.356 L2229.95 201.356 L2229.95 231.981 L2237.59 231.981 L2237.59 235.916 L2217.68 235.916 L2217.68 231.981 Z" fill="#000000" fill-rule="evenodd" fill-opacity="1" /><polyline clip-path="url(#clip200)" style="stroke:#e26f46; stroke-linecap:butt; stroke-linejoin:round; stroke-width:4; stroke-opacity:1; fill:none" points="
  1801.28,270.476 1939.48,270.476 
  "/>
<path clip-path="url(#clip200)" d="M1962.52 253.196 L1991.75 253.196 L1991.75 257.131 L1979.49 257.131 L1979.49 287.756 L1974.79 287.756 L1974.79 257.131 L1962.52 257.131 L1962.52 253.196 Z" fill="#000000" fill-rule="evenodd" fill-opacity="1" /><path clip-path="url(#clip200)" d="M2004.14 265.811 Q2003.42 265.395 2002.56 265.21 Q2001.73 265.001 2000.71 265.001 Q1997.1 265.001 1995.16 267.362 Q1993.24 269.7 1993.24 274.098 L1993.24 287.756 L1988.95 287.756 L1988.95 261.83 L1993.24 261.83 L1993.24 265.858 Q1994.58 263.497 1996.73 262.362 Q1998.88 261.205 2001.96 261.205 Q2002.4 261.205 2002.93 261.274 Q2003.47 261.321 2004.12 261.436 L2004.14 265.811 Z" fill="#000000" fill-rule="evenodd" fill-opacity="1" /><path clip-path="url(#clip200)" d="M2020.39 274.723 Q2015.23 274.723 2013.24 275.904 Q2011.24 277.084 2011.24 279.932 Q2011.24 282.2 2012.73 283.543 Q2014.23 284.862 2016.8 284.862 Q2020.34 284.862 2022.47 282.362 Q2024.62 279.839 2024.62 275.672 L2024.62 274.723 L2020.39 274.723 M2028.88 272.964 L2028.88 287.756 L2024.62 287.756 L2024.62 283.821 Q2023.17 286.182 2020.99 287.316 Q2018.81 288.427 2015.67 288.427 Q2011.68 288.427 2009.32 286.205 Q2006.99 283.959 2006.99 280.209 Q2006.99 275.834 2009.9 273.612 Q2012.84 271.39 2018.65 271.39 L2024.62 271.39 L2024.62 270.973 Q2024.62 268.034 2022.68 266.436 Q2020.76 264.816 2017.26 264.816 Q2015.04 264.816 2012.93 265.348 Q2010.83 265.881 2008.88 266.946 L2008.88 263.01 Q2011.22 262.108 2013.42 261.668 Q2015.62 261.205 2017.7 261.205 Q2023.33 261.205 2026.11 264.122 Q2028.88 267.038 2028.88 272.964 Z" fill="#000000" fill-rule="evenodd" fill-opacity="1" /><path clip-path="url(#clip200)" d="M2037.66 261.83 L2041.92 261.83 L2041.92 288.219 Q2041.92 293.172 2040.02 295.395 Q2038.14 297.617 2033.95 297.617 L2032.33 297.617 L2032.33 294.006 L2033.47 294.006 Q2035.9 294.006 2036.78 292.871 Q2037.66 291.76 2037.66 288.219 L2037.66 261.83 M2037.66 251.737 L2041.92 251.737 L2041.92 257.131 L2037.66 257.131 L2037.66 251.737 Z" fill="#000000" fill-rule="evenodd" fill-opacity="1" /><path clip-path="url(#clip200)" d="M2073 273.728 L2073 275.811 L2053.42 275.811 Q2053.7 280.209 2056.06 282.524 Q2058.44 284.816 2062.68 284.816 Q2065.13 284.816 2067.43 284.214 Q2069.74 283.612 2072.01 282.409 L2072.01 286.436 Q2069.72 287.408 2067.31 287.918 Q2064.9 288.427 2062.43 288.427 Q2056.22 288.427 2052.59 284.816 Q2048.98 281.205 2048.98 275.047 Q2048.98 268.682 2052.4 264.955 Q2055.85 261.205 2061.68 261.205 Q2066.92 261.205 2069.95 264.585 Q2073 267.941 2073 273.728 M2068.74 272.478 Q2068.7 268.983 2066.78 266.899 Q2064.88 264.816 2061.73 264.816 Q2058.17 264.816 2056.01 266.83 Q2053.88 268.844 2053.56 272.501 L2068.74 272.478 Z" fill="#000000" fill-rule="evenodd" fill-opacity="1" /><path clip-path="url(#clip200)" d="M2098.65 262.825 L2098.65 266.807 Q2096.85 265.811 2095.02 265.325 Q2093.21 264.816 2091.36 264.816 Q2087.22 264.816 2084.93 267.455 Q2082.63 270.071 2082.63 274.816 Q2082.63 279.561 2084.93 282.2 Q2087.22 284.816 2091.36 284.816 Q2093.21 284.816 2095.02 284.33 Q2096.85 283.821 2098.65 282.825 L2098.65 286.76 Q2096.87 287.594 2094.95 288.01 Q2093.05 288.427 2090.9 288.427 Q2085.04 288.427 2081.59 284.746 Q2078.14 281.066 2078.14 274.816 Q2078.14 268.473 2081.61 264.839 Q2085.11 261.205 2091.18 261.205 Q2093.14 261.205 2095.02 261.622 Q2096.89 262.015 2098.65 262.825 Z" fill="#000000" fill-rule="evenodd" fill-opacity="1" /><path clip-path="url(#clip200)" d="M2110.27 254.469 L2110.27 261.83 L2119.05 261.83 L2119.05 265.14 L2110.27 265.14 L2110.27 279.214 Q2110.27 282.385 2111.13 283.288 Q2112.01 284.191 2114.67 284.191 L2119.05 284.191 L2119.05 287.756 L2114.67 287.756 Q2109.74 287.756 2107.86 285.927 Q2105.99 284.075 2105.99 279.214 L2105.99 265.14 L2102.86 265.14 L2102.86 261.83 L2105.99 261.83 L2105.99 254.469 L2110.27 254.469 Z" fill="#000000" fill-rule="evenodd" fill-opacity="1" /><path clip-path="url(#clip200)" d="M2134.69 264.816 Q2131.27 264.816 2129.28 267.501 Q2127.29 270.163 2127.29 274.816 Q2127.29 279.469 2129.25 282.154 Q2131.24 284.816 2134.69 284.816 Q2138.1 284.816 2140.09 282.131 Q2142.08 279.446 2142.08 274.816 Q2142.08 270.21 2140.09 267.524 Q2138.1 264.816 2134.69 264.816 M2134.69 261.205 Q2140.25 261.205 2143.42 264.816 Q2146.59 268.427 2146.59 274.816 Q2146.59 281.182 2143.42 284.816 Q2140.25 288.427 2134.69 288.427 Q2129.11 288.427 2125.94 284.816 Q2122.8 281.182 2122.8 274.816 Q2122.8 268.427 2125.94 264.816 Q2129.11 261.205 2134.69 261.205 Z" fill="#000000" fill-rule="evenodd" fill-opacity="1" /><path clip-path="url(#clip200)" d="M2168.67 265.811 Q2167.96 265.395 2167.1 265.21 Q2166.27 265.001 2165.25 265.001 Q2161.64 265.001 2159.69 267.362 Q2157.77 269.7 2157.77 274.098 L2157.77 287.756 L2153.49 287.756 L2153.49 261.83 L2157.77 261.83 L2157.77 265.858 Q2159.11 263.497 2161.27 262.362 Q2163.42 261.205 2166.5 261.205 Q2166.94 261.205 2167.47 261.274 Q2168 261.321 2168.65 261.436 L2168.67 265.811 Z" fill="#000000" fill-rule="evenodd" fill-opacity="1" /><path clip-path="url(#clip200)" d="M2183.93 290.163 Q2182.12 294.793 2180.41 296.205 Q2178.7 297.617 2175.83 297.617 L2172.42 297.617 L2172.42 294.052 L2174.92 294.052 Q2176.68 294.052 2177.66 293.219 Q2178.63 292.385 2179.81 289.283 L2180.57 287.339 L2170.09 261.83 L2174.6 261.83 L2182.7 282.108 L2190.8 261.83 L2195.32 261.83 L2183.93 290.163 Z" fill="#000000" fill-rule="evenodd" fill-opacity="1" /><path clip-path="url(#clip200)" d="M2220.9 283.821 L2237.22 283.821 L2237.22 287.756 L2215.27 287.756 L2215.27 283.821 Q2217.93 281.066 2222.52 276.436 Q2227.12 271.784 2228.3 270.441 Q2230.55 267.918 2231.43 266.182 Q2232.33 264.423 2232.33 262.733 Q2232.33 259.978 2230.39 258.242 Q2228.47 256.506 2225.36 256.506 Q2223.17 256.506 2220.71 257.27 Q2218.28 258.034 2215.5 259.585 L2215.5 254.862 Q2218.33 253.728 2220.78 253.149 Q2223.23 252.571 2225.27 252.571 Q2230.64 252.571 2233.84 255.256 Q2237.03 257.941 2237.03 262.432 Q2237.03 264.561 2236.22 266.483 Q2235.43 268.381 2233.33 270.973 Q2232.75 271.645 2229.65 274.862 Q2226.54 278.057 2220.9 283.821 Z" fill="#000000" fill-rule="evenodd" fill-opacity="1" /></svg>
