<?xml version="1.0" encoding="utf-8"?>
<svg xmlns="http://www.w3.org/2000/svg" xmlns:xlink="http://www.w3.org/1999/xlink" width="600" height="400" viewBox="0 0 2400 1600">
<defs>
  <clipPath id="clip060">
    <rect x="0" y="0" width="2400" height="1600"/>
  </clipPath>
</defs>
<path clip-path="url(#clip060)" d="
M0 1600 L2400 1600 L2400 0 L0 0  Z
  " fill="#ffffff" fill-rule="evenodd" fill-opacity="1"/>
<defs>
  <clipPath id="clip061">
    <rect x="480" y="0" width="1681" height="1600"/>
  </clipPath>
</defs>
<path clip-path="url(#clip060)" d="
M279.704 1423.18 L2352.76 1423.18 L2352.76 123.472 L279.704 123.472  Z
  " fill="#ffffff" fill-rule="evenodd" fill-opacity="1"/>
<defs>
  <clipPath id="clip062">
    <rect x="279" y="123" width="2074" height="1301"/>
  </clipPath>
</defs>
<polyline clip-path="url(#clip062)" style="stroke:#000000; stroke-linecap:butt; stroke-linejoin:round; stroke-width:2; stroke-opacity:0.1; fill:none" points="
  279.704,1423.18 279.704,123.472 
  "/>
<polyline clip-path="url(#clip062)" style="stroke:#000000; stroke-linecap:butt; stroke-linejoin:round; stroke-width:2; stroke-opacity:0.1; fill:none" points="
  656.622,1423.18 656.622,123.472 
  "/>
<polyline clip-path="url(#clip062)" style="stroke:#000000; stroke-linecap:butt; stroke-linejoin:round; stroke-width:2; stroke-opacity:0.1; fill:none" points="
  1033.54,1423.18 1033.54,123.472 
  "/>
<polyline clip-path="url(#clip062)" style="stroke:#000000; stroke-linecap:butt; stroke-linejoin:round; stroke-width:2; stroke-opacity:0.1; fill:none" points="
  1410.46,1423.18 1410.46,123.472 
  "/>
<polyline clip-path="url(#clip062)" style="stroke:#000000; stroke-linecap:butt; stroke-linejoin:round; stroke-width:2; stroke-opacity:0.1; fill:none" points="
  1787.38,1423.18 1787.38,123.472 
  "/>
<polyline clip-path="url(#clip062)" style="stroke:#000000; stroke-linecap:butt; stroke-linejoin:round; stroke-width:2; stroke-opacity:0.1; fill:none" points="
  2164.3,1423.18 2164.3,123.472 
  "/>
<polyline clip-path="url(#clip060)" style="stroke:#000000; stroke-linecap:butt; stroke-linejoin:round; stroke-width:4; stroke-opacity:1; fill:none" points="
  279.704,1423.18 2352.76,1423.18 
  "/>
<polyline clip-path="url(#clip060)" style="stroke:#000000; stroke-linecap:butt; stroke-linejoin:round; stroke-width:4; stroke-opacity:1; fill:none" points="
  279.704,1423.18 279.704,1404.28 
  "/>
<polyline clip-path="url(#clip060)" style="stroke:#000000; stroke-linecap:butt; stroke-linejoin:round; stroke-width:4; stroke-opacity:1; fill:none" points="
  656.622,1423.18 656.622,1404.28 
  "/>
<polyline clip-path="url(#clip060)" style="stroke:#000000; stroke-linecap:butt; stroke-linejoin:round; stroke-width:4; stroke-opacity:1; fill:none" points="
  1033.54,1423.18 1033.54,1404.28 
  "/>
<polyline clip-path="url(#clip060)" style="stroke:#000000; stroke-linecap:butt; stroke-linejoin:round; stroke-width:4; stroke-opacity:1; fill:none" points="
  1410.46,1423.18 1410.46,1404.28 
  "/>
<polyline clip-path="url(#clip060)" style="stroke:#000000; stroke-linecap:butt; stroke-linejoin:round; stroke-width:4; stroke-opacity:1; fill:none" points="
  1787.38,1423.18 1787.38,1404.28 
  "/>
<polyline clip-path="url(#clip060)" style="stroke:#000000; stroke-linecap:butt; stroke-linejoin:round; stroke-width:4; stroke-opacity:1; fill:none" points="
  2164.3,1423.18 2164.3,1404.28 
  "/>
<path clip-path="url(#clip060)" d="M279.704 1454.1 Q276.093 1454.1 274.264 1457.66 Q272.459 1461.2 272.459 1468.33 Q272.459 1475.44 274.264 1479.01 Q276.093 1482.55 279.704 1482.55 Q283.338 1482.55 285.144 1479.01 Q286.972 1475.44 286.972 1468.33 Q286.972 1461.2 285.144 1457.66 Q283.338 1454.1 279.704 1454.1 M279.704 1450.39 Q285.514 1450.39 288.57 1455 Q291.648 1459.58 291.648 1468.33 Q291.648 1477.06 288.57 1481.67 Q285.514 1486.25 279.704 1486.25 Q273.894 1486.25 270.815 1481.67 Q267.76 1477.06 267.76 1468.33 Q267.76 1459.58 270.815 1455 Q273.894 1450.39 279.704 1450.39 Z" fill="#000000" fill-rule="evenodd" fill-opacity="1" /><path clip-path="url(#clip060)" d="M616.229 1481.64 L623.868 1481.64 L623.868 1455.28 L615.558 1456.95 L615.558 1452.69 L623.822 1451.02 L628.498 1451.02 L628.498 1481.64 L636.136 1481.64 L636.136 1485.58 L616.229 1485.58 L616.229 1481.64 Z" fill="#000000" fill-rule="evenodd" fill-opacity="1" /><path clip-path="url(#clip060)" d="M655.581 1454.1 Q651.97 1454.1 650.141 1457.66 Q648.335 1461.2 648.335 1468.33 Q648.335 1475.44 650.141 1479.01 Q651.97 1482.55 655.581 1482.55 Q659.215 1482.55 661.021 1479.01 Q662.849 1475.44 662.849 1468.33 Q662.849 1461.2 661.021 1457.66 Q659.215 1454.1 655.581 1454.1 M655.581 1450.39 Q661.391 1450.39 664.446 1455 Q667.525 1459.58 667.525 1468.33 Q667.525 1477.06 664.446 1481.67 Q661.391 1486.25 655.581 1486.25 Q649.771 1486.25 646.692 1481.67 Q643.636 1477.06 643.636 1468.33 Q643.636 1459.58 646.692 1455 Q649.771 1450.39 655.581 1450.39 Z" fill="#000000" fill-rule="evenodd" fill-opacity="1" /><path clip-path="url(#clip060)" d="M685.743 1454.1 Q682.132 1454.1 680.303 1457.66 Q678.497 1461.2 678.497 1468.33 Q678.497 1475.44 680.303 1479.01 Q682.132 1482.55 685.743 1482.55 Q689.377 1482.55 691.182 1479.01 Q693.011 1475.44 693.011 1468.33 Q693.011 1461.2 691.182 1457.66 Q689.377 1454.1 685.743 1454.1 M685.743 1450.39 Q691.553 1450.39 694.608 1455 Q697.687 1459.58 697.687 1468.33 Q697.687 1477.06 694.608 1481.67 Q691.553 1486.25 685.743 1486.25 Q679.933 1486.25 676.854 1481.67 Q673.798 1477.06 673.798 1468.33 Q673.798 1459.58 676.854 1455 Q679.933 1450.39 685.743 1450.39 Z" fill="#000000" fill-rule="evenodd" fill-opacity="1" /><path clip-path="url(#clip060)" d="M997.233 1481.64 L1013.55 1481.64 L1013.55 1485.58 L991.608 1485.58 L991.608 1481.64 Q994.27 1478.89 998.854 1474.26 Q1003.46 1469.61 1004.64 1468.27 Q1006.89 1465.74 1007.77 1464.01 Q1008.67 1462.25 1008.67 1460.56 Q1008.67 1457.8 1006.72 1456.07 Q1004.8 1454.33 1001.7 1454.33 Q999.502 1454.33 997.048 1455.09 Q994.618 1455.86 991.84 1457.41 L991.84 1452.69 Q994.664 1451.55 997.118 1450.97 Q999.571 1450.39 1001.61 1450.39 Q1006.98 1450.39 1010.17 1453.08 Q1013.37 1455.77 1013.37 1460.26 Q1013.37 1462.39 1012.56 1464.31 Q1011.77 1466.2 1009.66 1468.8 Q1009.09 1469.47 1005.98 1472.69 Q1002.88 1475.88 997.233 1481.64 Z" fill="#000000" fill-rule="evenodd" fill-opacity="1" /><path clip-path="url(#clip060)" d="M1033.37 1454.1 Q1029.76 1454.1 1027.93 1457.66 Q1026.12 1461.2 1026.12 1468.33 Q1026.12 1475.44 1027.93 1479.01 Q1029.76 1482.55 1033.37 1482.55 Q1037 1482.55 1038.81 1479.01 Q1040.64 1475.44 1040.64 1468.33 Q1040.64 1461.2 1038.81 1457.66 Q1037 1454.1 1033.37 1454.1 M1033.37 1450.39 Q1039.18 1450.39 1042.23 1455 Q1045.31 1459.58 1045.31 1468.33 Q1045.31 1477.06 1042.23 1481.67 Q1039.18 1486.25 1033.37 1486.25 Q1027.56 1486.25 1024.48 1481.67 Q1021.42 1477.06 1021.42 1468.33 Q1021.42 1459.58 1024.48 1455 Q1027.56 1450.39 1033.37 1450.39 Z" fill="#000000" fill-rule="evenodd" fill-opacity="1" /><path clip-path="url(#clip060)" d="M1063.53 1454.1 Q1059.92 1454.1 1058.09 1457.66 Q1056.28 1461.2 1056.28 1468.33 Q1056.28 1475.44 1058.09 1479.01 Q1059.92 1482.55 1063.53 1482.55 Q1067.16 1482.55 1068.97 1479.01 Q1070.8 1475.44 1070.8 1468.33 Q1070.8 1461.2 1068.97 1457.66 Q1067.16 1454.1 1063.53 1454.1 M1063.53 1450.39 Q1069.34 1450.39 1072.39 1455 Q1075.47 1459.58 1075.47 1468.33 Q1075.47 1477.06 1072.39 1481.67 Q1069.34 1486.25 1063.53 1486.25 Q1057.72 1486.25 1054.64 1481.67 Q1051.58 1477.06 1051.58 1468.33 Q1051.58 1459.58 1054.64 1455 Q1057.72 1450.39 1063.53 1450.39 Z" fill="#000000" fill-rule="evenodd" fill-opacity="1" /><path clip-path="url(#clip060)" d="M1384.22 1466.95 Q1387.58 1467.66 1389.45 1469.93 Q1391.35 1472.2 1391.35 1475.53 Q1391.35 1480.65 1387.83 1483.45 Q1384.31 1486.25 1377.83 1486.25 Q1375.66 1486.25 1373.34 1485.81 Q1371.05 1485.39 1368.6 1484.54 L1368.6 1480.02 Q1370.54 1481.16 1372.86 1481.74 Q1375.17 1482.32 1377.69 1482.32 Q1382.09 1482.32 1384.38 1480.58 Q1386.7 1478.84 1386.7 1475.53 Q1386.7 1472.48 1384.55 1470.77 Q1382.42 1469.03 1378.6 1469.03 L1374.57 1469.03 L1374.57 1465.19 L1378.78 1465.19 Q1382.23 1465.19 1384.06 1463.82 Q1385.89 1462.43 1385.89 1459.84 Q1385.89 1457.18 1383.99 1455.77 Q1382.11 1454.33 1378.6 1454.33 Q1376.68 1454.33 1374.48 1454.75 Q1372.28 1455.16 1369.64 1456.04 L1369.64 1451.88 Q1372.3 1451.14 1374.61 1450.77 Q1376.95 1450.39 1379.01 1450.39 Q1384.34 1450.39 1387.44 1452.83 Q1390.54 1455.23 1390.54 1459.35 Q1390.54 1462.22 1388.9 1464.21 Q1387.25 1466.18 1384.22 1466.95 Z" fill="#000000" fill-rule="evenodd" fill-opacity="1" /><path clip-path="url(#clip060)" d="M1410.22 1454.1 Q1406.61 1454.1 1404.78 1457.66 Q1402.97 1461.2 1402.97 1468.33 Q1402.97 1475.44 1404.78 1479.01 Q1406.61 1482.55 1410.22 1482.55 Q1413.85 1482.55 1415.66 1479.01 Q1417.48 1475.44 1417.48 1468.33 Q1417.48 1461.2 1415.66 1457.66 Q1413.85 1454.1 1410.22 1454.1 M1410.22 1450.39 Q1416.03 1450.39 1419.08 1455 Q1422.16 1459.58 1422.16 1468.33 Q1422.16 1477.06 1419.08 1481.67 Q1416.03 1486.25 1410.22 1486.25 Q1404.41 1486.25 1401.33 1481.67 Q1398.27 1477.06 1398.27 1468.33 Q1398.27 1459.58 1401.33 1455 Q1404.41 1450.39 1410.22 1450.39 Z" fill="#000000" fill-rule="evenodd" fill-opacity="1" /><path clip-path="url(#clip060)" d="M1440.38 1454.1 Q1436.77 1454.1 1434.94 1457.66 Q1433.13 1461.2 1433.13 1468.33 Q1433.13 1475.44 1434.94 1479.01 Q1436.77 1482.55 1440.38 1482.55 Q1444.01 1482.55 1445.82 1479.01 Q1447.65 1475.44 1447.65 1468.33 Q1447.65 1461.2 1445.82 1457.66 Q1444.01 1454.1 1440.38 1454.1 M1440.38 1450.39 Q1446.19 1450.39 1449.24 1455 Q1452.32 1459.58 1452.32 1468.33 Q1452.32 1477.06 1449.24 1481.67 Q1446.19 1486.25 1440.38 1486.25 Q1434.57 1486.25 1431.49 1481.67 Q1428.43 1477.06 1428.43 1468.33 Q1428.43 1459.58 1431.49 1455 Q1434.57 1450.39 1440.38 1450.39 Z" fill="#000000" fill-rule="evenodd" fill-opacity="1" /><path clip-path="url(#clip060)" d="M1760.47 1455.09 L1748.66 1473.54 L1760.47 1473.54 L1760.47 1455.09 M1759.24 1451.02 L1765.12 1451.02 L1765.12 1473.54 L1770.05 1473.54 L1770.05 1477.43 L1765.12 1477.43 L1765.12 1485.58 L1760.47 1485.58 L1760.47 1477.43 L1744.87 1477.43 L1744.87 1472.92 L1759.24 1451.02 Z" fill="#000000" fill-rule="evenodd" fill-opacity="1" /><path clip-path="url(#clip060)" d="M1787.78 1454.1 Q1784.17 1454.1 1782.34 1457.66 Q1780.54 1461.2 1780.54 1468.33 Q1780.54 1475.44 1782.34 1479.01 Q1784.17 1482.55 1787.78 1482.55 Q1791.42 1482.55 1793.22 1479.01 Q1795.05 1475.44 1795.05 1468.33 Q1795.05 1461.2 1793.22 1457.66 Q1791.42 1454.1 1787.78 1454.1 M1787.78 1450.39 Q1793.59 1450.39 1796.65 1455 Q1799.73 1459.58 1799.73 1468.33 Q1799.73 1477.06 1796.65 1481.67 Q1793.59 1486.25 1787.78 1486.25 Q1781.97 1486.25 1778.89 1481.67 Q1775.84 1477.06 1775.84 1468.33 Q1775.84 1459.58 1778.89 1455 Q1781.97 1450.39 1787.78 1450.39 Z" fill="#000000" fill-rule="evenodd" fill-opacity="1" /><path clip-path="url(#clip060)" d="M1817.95 1454.1 Q1814.33 1454.1 1812.51 1457.66 Q1810.7 1461.2 1810.7 1468.33 Q1810.7 1475.44 1812.51 1479.01 Q1814.33 1482.55 1817.95 1482.55 Q1821.58 1482.55 1823.38 1479.01 Q1825.21 1475.44 1825.21 1468.33 Q1825.21 1461.2 1823.38 1457.66 Q1821.58 1454.1 1817.95 1454.1 M1817.95 1450.39 Q1823.76 1450.39 1826.81 1455 Q1829.89 1459.58 1829.89 1468.33 Q1829.89 1477.06 1826.81 1481.67 Q1823.76 1486.25 1817.95 1486.25 Q1812.13 1486.25 1809.06 1481.67 Q1806 1477.06 1806 1468.33 Q1806 1459.58 1809.06 1455 Q1812.13 1450.39 1817.95 1450.39 Z" fill="#000000" fill-rule="evenodd" fill-opacity="1" /><path clip-path="url(#clip060)" d="M2123.91 1451.02 L2142.27 1451.02 L2142.27 1454.96 L2128.2 1454.96 L2128.2 1463.43 Q2129.22 1463.08 2130.23 1462.92 Q2131.25 1462.73 2132.27 1462.73 Q2138.06 1462.73 2141.44 1465.9 Q2144.82 1469.08 2144.82 1474.49 Q2144.82 1480.07 2141.35 1483.17 Q2137.87 1486.25 2131.55 1486.25 Q2129.38 1486.25 2127.11 1485.88 Q2124.86 1485.51 2122.46 1484.77 L2122.46 1480.07 Q2124.54 1481.2 2126.76 1481.76 Q2128.98 1482.32 2131.46 1482.32 Q2135.47 1482.32 2137.8 1480.21 Q2140.14 1478.1 2140.14 1474.49 Q2140.14 1470.88 2137.8 1468.77 Q2135.47 1466.67 2131.46 1466.67 Q2129.59 1466.67 2127.71 1467.08 Q2125.86 1467.5 2123.91 1468.38 L2123.91 1451.02 Z" fill="#000000" fill-rule="evenodd" fill-opacity="1" /><path clip-path="url(#clip060)" d="M2164.03 1454.1 Q2160.42 1454.1 2158.59 1457.66 Q2156.79 1461.2 2156.79 1468.33 Q2156.79 1475.44 2158.59 1479.01 Q2160.42 1482.55 2164.03 1482.55 Q2167.66 1482.55 2169.47 1479.01 Q2171.3 1475.44 2171.3 1468.33 Q2171.3 1461.2 2169.47 1457.66 Q2167.66 1454.1 2164.03 1454.1 M2164.03 1450.39 Q2169.84 1450.39 2172.9 1455 Q2175.97 1459.58 2175.97 1468.33 Q2175.97 1477.06 2172.9 1481.67 Q2169.84 1486.25 2164.03 1486.25 Q2158.22 1486.25 2155.14 1481.67 Q2152.09 1477.06 2152.09 1468.33 Q2152.09 1459.58 2155.14 1455 Q2158.22 1450.39 2164.03 1450.39 Z" fill="#000000" fill-rule="evenodd" fill-opacity="1" /><path clip-path="url(#clip060)" d="M2194.19 1454.1 Q2190.58 1454.1 2188.75 1457.66 Q2186.95 1461.2 2186.95 1468.33 Q2186.95 1475.44 2188.75 1479.01 Q2190.58 1482.55 2194.19 1482.55 Q2197.83 1482.55 2199.63 1479.01 Q2201.46 1475.44 2201.46 1468.33 Q2201.46 1461.2 2199.63 1457.66 Q2197.83 1454.1 2194.19 1454.1 M2194.19 1450.39 Q2200 1450.39 2203.06 1455 Q2206.14 1459.58 2206.14 1468.33 Q2206.14 1477.06 2203.06 1481.67 Q2200 1486.25 2194.19 1486.25 Q2188.38 1486.25 2185.3 1481.67 Q2182.25 1477.06 2182.25 1468.33 Q2182.25 1459.58 2185.3 1455 Q2188.38 1450.39 2194.19 1450.39 Z" fill="#000000" fill-rule="evenodd" fill-opacity="1" /><path clip-path="url(#clip060)" d="M1315.29 1522.27 L1315.29 1532.4 L1327.35 1532.4 L1327.35 1536.95 L1315.29 1536.95 L1315.29 1556.3 Q1315.29 1560.66 1316.47 1561.9 Q1317.68 1563.14 1321.34 1563.14 L1327.35 1563.14 L1327.35 1568.04 L1321.34 1568.04 Q1314.56 1568.04 1311.98 1565.53 Q1309.4 1562.98 1309.4 1556.3 L1309.4 1536.95 L1305.11 1536.95 L1305.11 1532.4 L1309.4 1532.4 L1309.4 1522.27 L1315.29 1522.27 Z" fill="#000000" fill-rule="evenodd" fill-opacity="1" /><polyline clip-path="url(#clip062)" style="stroke:#000000; stroke-linecap:butt; stroke-linejoin:round; stroke-width:2; stroke-opacity:0.1; fill:none" points="
  279.704,1387.13 2352.76,1387.13 
  "/>
<polyline clip-path="url(#clip062)" style="stroke:#000000; stroke-linecap:butt; stroke-linejoin:round; stroke-width:2; stroke-opacity:0.1; fill:none" points="
  279.704,1103.11 2352.76,1103.11 
  "/>
<polyline clip-path="url(#clip062)" style="stroke:#000000; stroke-linecap:butt; stroke-linejoin:round; stroke-width:2; stroke-opacity:0.1; fill:none" points="
  279.704,819.08 2352.76,819.08 
  "/>
<polyline clip-path="url(#clip062)" style="stroke:#000000; stroke-linecap:butt; stroke-linejoin:round; stroke-width:2; stroke-opacity:0.1; fill:none" points="
  279.704,535.055 2352.76,535.055 
  "/>
<polyline clip-path="url(#clip062)" style="stroke:#000000; stroke-linecap:butt; stroke-linejoin:round; stroke-width:2; stroke-opacity:0.1; fill:none" points="
  279.704,251.029 2352.76,251.029 
  "/>
<polyline clip-path="url(#clip060)" style="stroke:#000000; stroke-linecap:butt; stroke-linejoin:round; stroke-width:4; stroke-opacity:1; fill:none" points="
  279.704,1423.18 279.704,123.472 
  "/>
<polyline clip-path="url(#clip060)" style="stroke:#000000; stroke-linecap:butt; stroke-linejoin:round; stroke-width:4; stroke-opacity:1; fill:none" points="
  279.704,1387.13 298.602,1387.13 
  "/>
<polyline clip-path="url(#clip060)" style="stroke:#000000; stroke-linecap:butt; stroke-linejoin:round; stroke-width:4; stroke-opacity:1; fill:none" points="
  279.704,1103.11 298.602,1103.11 
  "/>
<polyline clip-path="url(#clip060)" style="stroke:#000000; stroke-linecap:butt; stroke-linejoin:round; stroke-width:4; stroke-opacity:1; fill:none" points="
  279.704,819.08 298.602,819.08 
  "/>
<polyline clip-path="url(#clip060)" style="stroke:#000000; stroke-linecap:butt; stroke-linejoin:round; stroke-width:4; stroke-opacity:1; fill:none" points="
  279.704,535.055 298.602,535.055 
  "/>
<polyline clip-path="url(#clip060)" style="stroke:#000000; stroke-linecap:butt; stroke-linejoin:round; stroke-width:4; stroke-opacity:1; fill:none" points="
  279.704,251.029 298.602,251.029 
  "/>
<path clip-path="url(#clip060)" d="M126.205 1372.93 Q122.593 1372.93 120.765 1376.49 Q118.959 1380.04 118.959 1387.17 Q118.959 1394.27 120.765 1397.84 Q122.593 1401.38 126.205 1401.38 Q129.839 1401.38 131.644 1397.84 Q133.473 1394.27 133.473 1387.17 Q133.473 1380.04 131.644 1376.49 Q129.839 1372.93 126.205 1372.93 M126.205 1369.23 Q132.015 1369.23 135.07 1373.83 Q138.149 1378.42 138.149 1387.17 Q138.149 1395.89 135.07 1400.5 Q132.015 1405.08 126.205 1405.08 Q120.394 1405.08 117.316 1400.5 Q114.26 1395.89 114.26 1387.17 Q114.26 1378.42 117.316 1373.83 Q120.394 1369.23 126.205 1369.23 Z" fill="#000000" fill-rule="evenodd" fill-opacity="1" /><path clip-path="url(#clip060)" d="M146.366 1398.53 L151.251 1398.53 L151.251 1404.41 L146.366 1404.41 L146.366 1398.53 Z" fill="#000000" fill-rule="evenodd" fill-opacity="1" /><path clip-path="url(#clip060)" d="M171.436 1372.93 Q167.825 1372.93 165.996 1376.49 Q164.19 1380.04 164.19 1387.17 Q164.19 1394.27 165.996 1397.84 Q167.825 1401.38 171.436 1401.38 Q175.07 1401.38 176.876 1397.84 Q178.704 1394.27 178.704 1387.17 Q178.704 1380.04 176.876 1376.49 Q175.07 1372.93 171.436 1372.93 M171.436 1369.23 Q177.246 1369.23 180.301 1373.83 Q183.38 1378.42 183.38 1387.17 Q183.38 1395.89 180.301 1400.5 Q177.246 1405.08 171.436 1405.08 Q165.626 1405.08 162.547 1400.5 Q159.491 1395.89 159.491 1387.17 Q159.491 1378.42 162.547 1373.83 Q165.626 1369.23 171.436 1369.23 Z" fill="#000000" fill-rule="evenodd" fill-opacity="1" /><path clip-path="url(#clip060)" d="M201.598 1372.93 Q197.987 1372.93 196.158 1376.49 Q194.352 1380.04 194.352 1387.17 Q194.352 1394.27 196.158 1397.84 Q197.987 1401.38 201.598 1401.38 Q205.232 1401.38 207.037 1397.84 Q208.866 1394.27 208.866 1387.17 Q208.866 1380.04 207.037 1376.49 Q205.232 1372.93 201.598 1372.93 M201.598 1369.23 Q207.408 1369.23 210.463 1373.83 Q213.542 1378.42 213.542 1387.17 Q213.542 1395.89 210.463 1400.5 Q207.408 1405.08 201.598 1405.08 Q195.787 1405.08 192.709 1400.5 Q189.653 1395.89 189.653 1387.17 Q189.653 1378.42 192.709 1373.83 Q195.787 1369.23 201.598 1369.23 Z" fill="#000000" fill-rule="evenodd" fill-opacity="1" /><path clip-path="url(#clip060)" d="M231.76 1372.93 Q228.148 1372.93 226.32 1376.49 Q224.514 1380.04 224.514 1387.17 Q224.514 1394.27 226.32 1397.84 Q228.148 1401.38 231.76 1401.38 Q235.394 1401.38 237.199 1397.84 Q239.028 1394.27 239.028 1387.17 Q239.028 1380.04 237.199 1376.49 Q235.394 1372.93 231.76 1372.93 M231.76 1369.23 Q237.57 1369.23 240.625 1373.83 Q243.704 1378.42 243.704 1387.17 Q243.704 1395.89 240.625 1400.5 Q237.57 1405.08 231.76 1405.08 Q225.949 1405.08 222.871 1400.5 Q219.815 1395.89 219.815 1387.17 Q219.815 1378.42 222.871 1373.83 Q225.949 1369.23 231.76 1369.23 Z" fill="#000000" fill-rule="evenodd" fill-opacity="1" /><path clip-path="url(#clip060)" d="M127.2 1088.9 Q123.589 1088.9 121.76 1092.47 Q119.955 1096.01 119.955 1103.14 Q119.955 1110.25 121.76 1113.81 Q123.589 1117.35 127.2 1117.35 Q130.834 1117.35 132.64 1113.81 Q134.468 1110.25 134.468 1103.14 Q134.468 1096.01 132.64 1092.47 Q130.834 1088.9 127.2 1088.9 M127.2 1085.2 Q133.01 1085.2 136.066 1089.81 Q139.144 1094.39 139.144 1103.14 Q139.144 1111.87 136.066 1116.47 Q133.01 1121.06 127.2 1121.06 Q121.39 1121.06 118.311 1116.47 Q115.256 1111.87 115.256 1103.14 Q115.256 1094.39 118.311 1089.81 Q121.39 1085.2 127.2 1085.2 Z" fill="#000000" fill-rule="evenodd" fill-opacity="1" /><path clip-path="url(#clip060)" d="M147.362 1114.51 L152.246 1114.51 L152.246 1120.39 L147.362 1120.39 L147.362 1114.51 Z" fill="#000000" fill-rule="evenodd" fill-opacity="1" /><path clip-path="url(#clip060)" d="M172.431 1088.9 Q168.82 1088.9 166.991 1092.47 Q165.186 1096.01 165.186 1103.14 Q165.186 1110.25 166.991 1113.81 Q168.82 1117.35 172.431 1117.35 Q176.065 1117.35 177.871 1113.81 Q179.7 1110.25 179.7 1103.14 Q179.7 1096.01 177.871 1092.47 Q176.065 1088.9 172.431 1088.9 M172.431 1085.2 Q178.241 1085.2 181.297 1089.81 Q184.376 1094.39 184.376 1103.14 Q184.376 1111.87 181.297 1116.47 Q178.241 1121.06 172.431 1121.06 Q166.621 1121.06 163.542 1116.47 Q160.487 1111.87 160.487 1103.14 Q160.487 1094.39 163.542 1089.81 Q166.621 1085.2 172.431 1085.2 Z" fill="#000000" fill-rule="evenodd" fill-opacity="1" /><path clip-path="url(#clip060)" d="M196.621 1116.45 L212.94 1116.45 L212.94 1120.39 L190.996 1120.39 L190.996 1116.45 Q193.658 1113.7 198.241 1109.07 Q202.848 1104.41 204.028 1103.07 Q206.274 1100.55 207.153 1098.81 Q208.056 1097.05 208.056 1095.36 Q208.056 1092.61 206.112 1090.87 Q204.19 1089.14 201.088 1089.14 Q198.889 1089.14 196.436 1089.9 Q194.005 1090.66 191.227 1092.21 L191.227 1087.49 Q194.051 1086.36 196.505 1085.78 Q198.959 1085.2 200.996 1085.2 Q206.366 1085.2 209.561 1087.89 Q212.755 1090.57 212.755 1095.06 Q212.755 1097.19 211.945 1099.11 Q211.158 1101.01 209.051 1103.6 Q208.473 1104.27 205.371 1107.49 Q202.269 1110.69 196.621 1116.45 Z" fill="#000000" fill-rule="evenodd" fill-opacity="1" /><path clip-path="url(#clip060)" d="M222.801 1085.83 L241.158 1085.83 L241.158 1089.76 L227.084 1089.76 L227.084 1098.23 Q228.102 1097.89 229.121 1097.72 Q230.139 1097.54 231.158 1097.54 Q236.945 1097.54 240.324 1100.71 Q243.704 1103.88 243.704 1109.3 Q243.704 1114.88 240.232 1117.98 Q236.76 1121.06 230.44 1121.06 Q228.264 1121.06 225.996 1120.69 Q223.75 1120.32 221.343 1119.58 L221.343 1114.88 Q223.426 1116.01 225.648 1116.57 Q227.871 1117.12 230.347 1117.12 Q234.352 1117.12 236.69 1115.02 Q239.028 1112.91 239.028 1109.3 Q239.028 1105.69 236.69 1103.58 Q234.352 1101.47 230.347 1101.47 Q228.473 1101.47 226.598 1101.89 Q224.746 1102.31 222.801 1103.19 L222.801 1085.83 Z" fill="#000000" fill-rule="evenodd" fill-opacity="1" /><path clip-path="url(#clip060)" d="M126.205 804.879 Q122.593 804.879 120.765 808.444 Q118.959 811.985 118.959 819.115 Q118.959 826.221 120.765 829.786 Q122.593 833.328 126.205 833.328 Q129.839 833.328 131.644 829.786 Q133.473 826.221 133.473 819.115 Q133.473 811.985 131.644 808.444 Q129.839 804.879 126.205 804.879 M126.205 801.175 Q132.015 801.175 135.07 805.781 Q138.149 810.365 138.149 819.115 Q138.149 827.842 135.07 832.448 Q132.015 837.031 126.205 837.031 Q120.394 837.031 117.316 832.448 Q114.26 827.842 114.26 819.115 Q114.26 810.365 117.316 805.781 Q120.394 801.175 126.205 801.175 Z" fill="#000000" fill-rule="evenodd" fill-opacity="1" /><path clip-path="url(#clip060)" d="M146.366 830.48 L151.251 830.48 L151.251 836.36 L146.366 836.36 L146.366 830.48 Z" fill="#000000" fill-rule="evenodd" fill-opacity="1" /><path clip-path="url(#clip060)" d="M171.436 804.879 Q167.825 804.879 165.996 808.444 Q164.19 811.985 164.19 819.115 Q164.19 826.221 165.996 829.786 Q167.825 833.328 171.436 833.328 Q175.07 833.328 176.876 829.786 Q178.704 826.221 178.704 819.115 Q178.704 811.985 176.876 808.444 Q175.07 804.879 171.436 804.879 M171.436 801.175 Q177.246 801.175 180.301 805.781 Q183.38 810.365 183.38 819.115 Q183.38 827.842 180.301 832.448 Q177.246 837.031 171.436 837.031 Q165.626 837.031 162.547 832.448 Q159.491 827.842 159.491 819.115 Q159.491 810.365 162.547 805.781 Q165.626 801.175 171.436 801.175 Z" fill="#000000" fill-rule="evenodd" fill-opacity="1" /><path clip-path="url(#clip060)" d="M191.644 801.8 L210 801.8 L210 805.735 L195.926 805.735 L195.926 814.207 Q196.945 813.86 197.963 813.698 Q198.982 813.513 200 813.513 Q205.787 813.513 209.167 816.684 Q212.547 819.855 212.547 825.272 Q212.547 830.851 209.074 833.953 Q205.602 837.031 199.283 837.031 Q197.107 837.031 194.838 836.661 Q192.593 836.291 190.186 835.55 L190.186 830.851 Q192.269 831.985 194.491 832.541 Q196.713 833.096 199.19 833.096 Q203.195 833.096 205.533 830.99 Q207.871 828.883 207.871 825.272 Q207.871 821.661 205.533 819.555 Q203.195 817.448 199.19 817.448 Q197.315 817.448 195.44 817.865 Q193.588 818.281 191.644 819.161 L191.644 801.8 Z" fill="#000000" fill-rule="evenodd" fill-opacity="1" /><path clip-path="url(#clip060)" d="M231.76 804.879 Q228.148 804.879 226.32 808.444 Q224.514 811.985 224.514 819.115 Q224.514 826.221 226.32 829.786 Q228.148 833.328 231.76 833.328 Q235.394 833.328 237.199 829.786 Q239.028 826.221 239.028 819.115 Q239.028 811.985 237.199 808.444 Q235.394 804.879 231.76 804.879 M231.76 801.175 Q237.57 801.175 240.625 805.781 Q243.704 810.365 243.704 819.115 Q243.704 827.842 240.625 832.448 Q237.57 837.031 231.76 837.031 Q225.949 837.031 222.871 832.448 Q219.815 827.842 219.815 819.115 Q219.815 810.365 222.871 805.781 Q225.949 801.175 231.76 801.175 Z" fill="#000000" fill-rule="evenodd" fill-opacity="1" /><path clip-path="url(#clip060)" d="M127.2 520.853 Q123.589 520.853 121.76 524.418 Q119.955 527.96 119.955 535.089 Q119.955 542.196 121.76 545.76 Q123.589 549.302 127.2 549.302 Q130.834 549.302 132.64 545.76 Q134.468 542.196 134.468 535.089 Q134.468 527.96 132.64 524.418 Q130.834 520.853 127.2 520.853 M127.2 517.15 Q133.01 517.15 136.066 521.756 Q139.144 526.339 139.144 535.089 Q139.144 543.816 136.066 548.422 Q133.01 553.006 127.2 553.006 Q121.39 553.006 118.311 548.422 Q115.256 543.816 115.256 535.089 Q115.256 526.339 118.311 521.756 Q121.39 517.15 127.2 517.15 Z" fill="#000000" fill-rule="evenodd" fill-opacity="1" /><path clip-path="url(#clip060)" d="M147.362 546.455 L152.246 546.455 L152.246 552.335 L147.362 552.335 L147.362 546.455 Z" fill="#000000" fill-rule="evenodd" fill-opacity="1" /><path clip-path="url(#clip060)" d="M172.431 520.853 Q168.82 520.853 166.991 524.418 Q165.186 527.96 165.186 535.089 Q165.186 542.196 166.991 545.76 Q168.82 549.302 172.431 549.302 Q176.065 549.302 177.871 545.76 Q179.7 542.196 179.7 535.089 Q179.7 527.96 177.871 524.418 Q176.065 520.853 172.431 520.853 M172.431 517.15 Q178.241 517.15 181.297 521.756 Q184.376 526.339 184.376 535.089 Q184.376 543.816 181.297 548.422 Q178.241 553.006 172.431 553.006 Q166.621 553.006 163.542 548.422 Q160.487 543.816 160.487 535.089 Q160.487 526.339 163.542 521.756 Q166.621 517.15 172.431 517.15 Z" fill="#000000" fill-rule="evenodd" fill-opacity="1" /><path clip-path="url(#clip060)" d="M191.413 517.775 L213.635 517.775 L213.635 519.765 L201.088 552.335 L196.204 552.335 L208.01 521.71 L191.413 521.71 L191.413 517.775 Z" fill="#000000" fill-rule="evenodd" fill-opacity="1" /><path clip-path="url(#clip060)" d="M222.801 517.775 L241.158 517.775 L241.158 521.71 L227.084 521.71 L227.084 530.182 Q228.102 529.835 229.121 529.673 Q230.139 529.487 231.158 529.487 Q236.945 529.487 240.324 532.659 Q243.704 535.83 243.704 541.247 Q243.704 546.825 240.232 549.927 Q236.76 553.006 230.44 553.006 Q228.264 553.006 225.996 552.635 Q223.75 552.265 221.343 551.524 L221.343 546.825 Q223.426 547.96 225.648 548.515 Q227.871 549.071 230.347 549.071 Q234.352 549.071 236.69 546.964 Q239.028 544.858 239.028 541.247 Q239.028 537.636 236.69 535.529 Q234.352 533.423 230.347 533.423 Q228.473 533.423 226.598 533.839 Q224.746 534.256 222.801 535.136 L222.801 517.775 Z" fill="#000000" fill-rule="evenodd" fill-opacity="1" /><path clip-path="url(#clip060)" d="M126.205 236.828 Q122.593 236.828 120.765 240.392 Q118.959 243.934 118.959 251.064 Q118.959 258.17 120.765 261.735 Q122.593 265.277 126.205 265.277 Q129.839 265.277 131.644 261.735 Q133.473 258.17 133.473 251.064 Q133.473 243.934 131.644 240.392 Q129.839 236.828 126.205 236.828 M126.205 233.124 Q132.015 233.124 135.07 237.73 Q138.149 242.314 138.149 251.064 Q138.149 259.791 135.07 264.397 Q132.015 268.98 126.205 268.98 Q120.394 268.98 117.316 264.397 Q114.26 259.791 114.26 251.064 Q114.26 242.314 117.316 237.73 Q120.394 233.124 126.205 233.124 Z" fill="#000000" fill-rule="evenodd" fill-opacity="1" /><path clip-path="url(#clip060)" d="M146.366 262.429 L151.251 262.429 L151.251 268.309 L146.366 268.309 L146.366 262.429 Z" fill="#000000" fill-rule="evenodd" fill-opacity="1" /><path clip-path="url(#clip060)" d="M162.246 264.374 L169.885 264.374 L169.885 238.008 L161.575 239.675 L161.575 235.416 L169.839 233.749 L174.514 233.749 L174.514 264.374 L182.153 264.374 L182.153 268.309 L162.246 268.309 L162.246 264.374 Z" fill="#000000" fill-rule="evenodd" fill-opacity="1" /><path clip-path="url(#clip060)" d="M201.598 236.828 Q197.987 236.828 196.158 240.392 Q194.352 243.934 194.352 251.064 Q194.352 258.17 196.158 261.735 Q197.987 265.277 201.598 265.277 Q205.232 265.277 207.037 261.735 Q208.866 258.17 208.866 251.064 Q208.866 243.934 207.037 240.392 Q205.232 236.828 201.598 236.828 M201.598 233.124 Q207.408 233.124 210.463 237.73 Q213.542 242.314 213.542 251.064 Q213.542 259.791 210.463 264.397 Q207.408 268.98 201.598 268.98 Q195.787 268.98 192.709 264.397 Q189.653 259.791 189.653 251.064 Q189.653 242.314 192.709 237.73 Q195.787 233.124 201.598 233.124 Z" fill="#000000" fill-rule="evenodd" fill-opacity="1" /><path clip-path="url(#clip060)" d="M231.76 236.828 Q228.148 236.828 226.32 240.392 Q224.514 243.934 224.514 251.064 Q224.514 258.17 226.32 261.735 Q228.148 265.277 231.76 265.277 Q235.394 265.277 237.199 261.735 Q239.028 258.17 239.028 251.064 Q239.028 243.934 237.199 240.392 Q235.394 236.828 231.76 236.828 M231.76 233.124 Q237.57 233.124 240.625 237.73 Q243.704 242.314 243.704 251.064 Q243.704 259.791 240.625 264.397 Q237.57 268.98 231.76 268.98 Q225.949 268.98 222.871 264.397 Q219.815 259.791 219.815 251.064 Q219.815 242.314 222.871 237.73 Q225.949 233.124 231.76 233.124 Z" fill="#000000" fill-rule="evenodd" fill-opacity="1" /><path clip-path="url(#clip060)" d="M28.3562 814.719 L28.3562 808.863 L64.0042 808.863 L64.0042 814.719 L28.3562 814.719 M14.479 814.719 L14.479 808.863 L21.895 808.863 L21.895 814.719 L14.479 814.719 Z" fill="#000000" fill-rule="evenodd" fill-opacity="1" /><path clip-path="url(#clip060)" d="M14.5426 782.54 Q21.8632 786.805 29.0246 788.874 Q36.186 790.943 43.5384 790.943 Q50.8908 790.943 58.1159 788.874 Q65.3091 786.774 72.5979 782.54 L72.5979 787.633 Q65.1182 792.407 57.8931 794.794 Q50.668 797.15 43.5384 797.15 Q36.4406 797.15 29.2474 794.794 Q22.0542 792.439 14.5426 787.633 L14.5426 782.54 Z" fill="#000000" fill-rule="evenodd" fill-opacity="1" /><path clip-path="url(#clip060)" d="M18.2347 765.385 L28.3562 765.385 L28.3562 753.322 L32.9077 753.322 L32.9077 765.385 L52.2594 765.385 Q56.6199 765.385 57.8613 764.207 Q59.1026 762.998 59.1026 759.337 L59.1026 753.322 L64.0042 753.322 L64.0042 759.337 Q64.0042 766.117 61.4897 768.695 Q58.9434 771.273 52.2594 771.273 L32.9077 771.273 L32.9077 775.57 L28.3562 775.57 L28.3562 771.273 L18.2347 771.273 L18.2347 765.385 Z" fill="#000000" fill-rule="evenodd" fill-opacity="1" /><path clip-path="url(#clip060)" d="M14.5426 746.542 L14.5426 741.45 Q22.0542 736.675 29.2474 734.32 Q36.4406 731.933 43.5384 731.933 Q50.668 731.933 57.8931 734.32 Q65.1182 736.675 72.5979 741.45 L72.5979 746.542 Q65.3091 742.309 58.1159 740.24 Q50.8908 738.14 43.5384 738.14 Q36.186 738.14 29.0246 740.24 Q21.8632 742.309 14.5426 746.542 Z" fill="#000000" fill-rule="evenodd" fill-opacity="1" /><path clip-path="url(#clip060)" d="M886.814 12.096 L897.832 12.096 L924.649 62.6918 L924.649 12.096 L932.589 12.096 L932.589 72.576 L921.571 72.576 L894.754 21.9802 L894.754 72.576 L886.814 72.576 L886.814 12.096 Z" fill="#000000" fill-rule="evenodd" fill-opacity="1" /><path clip-path="url(#clip060)" d="M947.78 54.671 L947.78 27.2059 L955.234 27.2059 L955.234 54.3874 Q955.234 60.8284 957.745 64.0691 Q960.257 67.2693 965.28 67.2693 Q971.316 67.2693 974.799 63.421 Q978.324 59.5726 978.324 52.9291 L978.324 27.2059 L985.777 27.2059 L985.777 72.576 L978.324 72.576 L978.324 65.6084 Q975.61 69.7404 972.004 71.7658 Q968.44 73.7508 963.7 73.7508 Q955.882 73.7508 951.831 68.8897 Q947.78 64.0286 947.78 54.671 M966.536 26.1121 L966.536 26.1121 Z" fill="#000000" fill-rule="evenodd" fill-opacity="1" /><path clip-path="url(#clip060)" d="M1036.45 35.9153 Q1039.25 30.8922 1043.14 28.5022 Q1047.03 26.1121 1052.29 26.1121 Q1059.38 26.1121 1063.23 31.0947 Q1067.08 36.0368 1067.08 45.1919 L1067.08 72.576 L1059.58 72.576 L1059.58 45.4349 Q1059.58 38.913 1057.28 35.7533 Q1054.97 32.5936 1050.23 32.5936 Q1044.43 32.5936 1041.07 36.4419 Q1037.71 40.2903 1037.71 46.9338 L1037.71 72.576 L1030.22 72.576 L1030.22 45.4349 Q1030.22 38.8725 1027.91 35.7533 Q1025.6 32.5936 1020.78 32.5936 Q1015.07 32.5936 1011.7 36.4824 Q1008.34 40.3308 1008.34 46.9338 L1008.34 72.576 L1000.85 72.576 L1000.85 27.2059 L1008.34 27.2059 L1008.34 34.2544 Q1010.89 30.082 1014.46 28.0971 Q1018.02 26.1121 1022.92 26.1121 Q1027.87 26.1121 1031.31 28.6237 Q1034.79 31.1352 1036.45 35.9153 Z" fill="#000000" fill-rule="evenodd" fill-opacity="1" /><path clip-path="url(#clip060)" d="M1114.52 49.9314 Q1114.52 41.7081 1111.11 37.0496 Q1107.75 32.3505 1101.84 32.3505 Q1095.92 32.3505 1092.52 37.0496 Q1089.16 41.7081 1089.16 49.9314 Q1089.16 58.1548 1092.52 62.8538 Q1095.92 67.5124 1101.84 67.5124 Q1107.75 67.5124 1111.11 62.8538 Q1114.52 58.1548 1114.52 49.9314 M1089.16 34.0924 Q1091.51 30.0415 1095.07 28.0971 Q1098.68 26.1121 1103.66 26.1121 Q1111.92 26.1121 1117.07 32.6746 Q1122.25 39.2371 1122.25 49.9314 Q1122.25 60.6258 1117.07 67.1883 Q1111.92 73.7508 1103.66 73.7508 Q1098.68 73.7508 1095.07 71.8063 Q1091.51 69.8214 1089.16 65.7705 L1089.16 72.576 L1081.66 72.576 L1081.66 9.54393 L1089.16 9.54393 L1089.16 34.0924 Z" fill="#000000" fill-rule="evenodd" fill-opacity="1" /><path clip-path="url(#clip060)" d="M1173.42 48.0275 L1173.42 51.6733 L1139.14 51.6733 Q1139.63 59.3701 1143.76 63.421 Q1147.94 67.4314 1155.35 67.4314 Q1159.64 67.4314 1163.65 66.3781 Q1167.7 65.3249 1171.67 63.2184 L1171.67 70.267 Q1167.66 71.9684 1163.45 72.8596 Q1159.24 73.7508 1154.9 73.7508 Q1144.05 73.7508 1137.69 67.4314 Q1131.37 61.1119 1131.37 50.3365 Q1131.37 39.1965 1137.36 32.6746 Q1143.4 26.1121 1153.61 26.1121 Q1162.76 26.1121 1168.07 32.0264 Q1173.42 37.9003 1173.42 48.0275 M1165.96 45.84 Q1165.88 39.7232 1162.52 36.0774 Q1159.2 32.4315 1153.69 32.4315 Q1147.45 32.4315 1143.68 35.9558 Q1139.95 39.4801 1139.39 45.8805 L1165.96 45.84 Z" fill="#000000" fill-rule="evenodd" fill-opacity="1" /><path clip-path="url(#clip060)" d="M1211.94 34.1734 Q1210.68 33.4443 1209.18 33.1202 Q1207.73 32.7556 1205.94 32.7556 Q1199.62 32.7556 1196.22 36.8875 Q1192.86 40.9789 1192.86 48.6757 L1192.86 72.576 L1185.37 72.576 L1185.37 27.2059 L1192.86 27.2059 L1192.86 34.2544 Q1195.21 30.1225 1198.98 28.1376 Q1202.74 26.1121 1208.13 26.1121 Q1208.9 26.1121 1209.83 26.2337 Q1210.76 26.3147 1211.9 26.5172 L1211.94 34.1734 Z" fill="#000000" fill-rule="evenodd" fill-opacity="1" /><path clip-path="url(#clip060)" d="M1263.71 32.4315 Q1257.71 32.4315 1254.23 37.1306 Q1250.75 41.7891 1250.75 49.9314 Q1250.75 58.0738 1254.19 62.7728 Q1257.67 67.4314 1263.71 67.4314 Q1269.66 67.4314 1273.15 62.7323 Q1276.63 58.0333 1276.63 49.9314 Q1276.63 41.8701 1273.15 37.1711 Q1269.66 32.4315 1263.71 32.4315 M1263.71 26.1121 Q1273.43 26.1121 1278.98 32.4315 Q1284.53 38.7509 1284.53 49.9314 Q1284.53 61.0714 1278.98 67.4314 Q1273.43 73.7508 1263.71 73.7508 Q1253.95 73.7508 1248.4 67.4314 Q1242.89 61.0714 1242.89 49.9314 Q1242.89 38.7509 1248.4 32.4315 Q1253.95 26.1121 1263.71 26.1121 Z" fill="#000000" fill-rule="evenodd" fill-opacity="1" /><path clip-path="url(#clip060)" d="M1319.86 9.54393 L1319.86 15.7418 L1312.73 15.7418 Q1308.72 15.7418 1307.14 17.3622 Q1305.6 18.9825 1305.6 23.1955 L1305.6 27.2059 L1317.87 27.2059 L1317.87 32.9987 L1305.6 32.9987 L1305.6 72.576 L1298.1 72.576 L1298.1 32.9987 L1290.97 32.9987 L1290.97 27.2059 L1298.1 27.2059 L1298.1 24.0462 Q1298.1 16.471 1301.63 13.0277 Q1305.15 9.54393 1312.81 9.54393 L1319.86 9.54393 Z" fill="#000000" fill-rule="evenodd" fill-opacity="1" /><path clip-path="url(#clip060)" d="M1352.79 12.096 L1360.97 12.096 L1360.97 72.576 L1352.79 72.576 L1352.79 12.096 Z" fill="#000000" fill-rule="evenodd" fill-opacity="1" /><path clip-path="url(#clip060)" d="M1414.65 45.1919 L1414.65 72.576 L1407.19 72.576 L1407.19 45.4349 Q1407.19 38.994 1404.68 35.7938 Q1402.17 32.5936 1397.15 32.5936 Q1391.11 32.5936 1387.63 36.4419 Q1384.14 40.2903 1384.14 46.9338 L1384.14 72.576 L1376.65 72.576 L1376.65 27.2059 L1384.14 27.2059 L1384.14 34.2544 Q1386.82 30.163 1390.42 28.1376 Q1394.07 26.1121 1398.81 26.1121 Q1406.63 26.1121 1410.64 30.9732 Q1414.65 35.7938 1414.65 45.1919 Z" fill="#000000" fill-rule="evenodd" fill-opacity="1" /><path clip-path="url(#clip060)" d="M1452.48 9.54393 L1452.48 15.7418 L1445.35 15.7418 Q1441.34 15.7418 1439.76 17.3622 Q1438.22 18.9825 1438.22 23.1955 L1438.22 27.2059 L1450.5 27.2059 L1450.5 32.9987 L1438.22 32.9987 L1438.22 72.576 L1430.73 72.576 L1430.73 32.9987 L1423.6 32.9987 L1423.6 27.2059 L1430.73 27.2059 L1430.73 24.0462 Q1430.73 16.471 1434.25 13.0277 Q1437.78 9.54393 1445.43 9.54393 L1452.48 9.54393 Z" fill="#000000" fill-rule="evenodd" fill-opacity="1" /><path clip-path="url(#clip060)" d="M1497.53 48.0275 L1497.53 51.6733 L1463.26 51.6733 Q1463.74 59.3701 1467.88 63.421 Q1472.05 67.4314 1479.46 67.4314 Q1483.76 67.4314 1487.77 66.3781 Q1491.82 65.3249 1495.79 63.2184 L1495.79 70.267 Q1491.78 71.9684 1487.56 72.8596 Q1483.35 73.7508 1479.02 73.7508 Q1468.16 73.7508 1461.8 67.4314 Q1455.48 61.1119 1455.48 50.3365 Q1455.48 39.1965 1461.48 32.6746 Q1467.51 26.1121 1477.72 26.1121 Q1486.87 26.1121 1492.18 32.0264 Q1497.53 37.9003 1497.53 48.0275 M1490.07 45.84 Q1489.99 39.7232 1486.63 36.0774 Q1483.31 32.4315 1477.8 32.4315 Q1471.56 32.4315 1467.79 35.9558 Q1464.07 39.4801 1463.5 45.8805 L1490.07 45.84 Z" fill="#000000" fill-rule="evenodd" fill-opacity="1" /><path clip-path="url(#clip060)" d="M1542.41 28.9478 L1542.41 35.9153 Q1539.25 34.1734 1536.05 33.3227 Q1532.89 32.4315 1529.65 32.4315 Q1522.4 32.4315 1518.39 37.0496 Q1514.38 41.6271 1514.38 49.9314 Q1514.38 58.2358 1518.39 62.8538 Q1522.4 67.4314 1529.65 67.4314 Q1532.89 67.4314 1536.05 66.5807 Q1539.25 65.6895 1542.41 63.9476 L1542.41 70.8341 Q1539.29 72.2924 1535.93 73.0216 Q1532.61 73.7508 1528.84 73.7508 Q1518.59 73.7508 1512.56 67.3098 Q1506.52 60.8689 1506.52 49.9314 Q1506.52 38.832 1512.6 32.472 Q1518.71 26.1121 1529.33 26.1121 Q1532.77 26.1121 1536.05 26.8413 Q1539.33 27.5299 1542.41 28.9478 Z" fill="#000000" fill-rule="evenodd" fill-opacity="1" /><path clip-path="url(#clip060)" d="M1562.75 14.324 L1562.75 27.2059 L1578.1 27.2059 L1578.1 32.9987 L1562.75 32.9987 L1562.75 57.6282 Q1562.75 63.1779 1564.25 64.7578 Q1565.79 66.3376 1570.44 66.3376 L1578.1 66.3376 L1578.1 72.576 L1570.44 72.576 Q1561.82 72.576 1558.53 69.3758 Q1555.25 66.1351 1555.25 57.6282 L1555.25 32.9987 L1549.78 32.9987 L1549.78 27.2059 L1555.25 27.2059 L1555.25 14.324 L1562.75 14.324 Z" fill="#000000" fill-rule="evenodd" fill-opacity="1" /><path clip-path="url(#clip060)" d="M1587.9 27.2059 L1595.36 27.2059 L1595.36 72.576 L1587.9 72.576 L1587.9 27.2059 M1587.9 9.54393 L1595.36 9.54393 L1595.36 18.9825 L1587.9 18.9825 L1587.9 9.54393 Z" fill="#000000" fill-rule="evenodd" fill-opacity="1" /><path clip-path="url(#clip060)" d="M1628.53 32.4315 Q1622.54 32.4315 1619.06 37.1306 Q1615.57 41.7891 1615.57 49.9314 Q1615.57 58.0738 1619.01 62.7728 Q1622.5 67.4314 1628.53 67.4314 Q1634.49 67.4314 1637.97 62.7323 Q1641.46 58.0333 1641.46 49.9314 Q1641.46 41.8701 1637.97 37.1711 Q1634.49 32.4315 1628.53 32.4315 M1628.53 26.1121 Q1638.26 26.1121 1643.81 32.4315 Q1649.36 38.7509 1649.36 49.9314 Q1649.36 61.0714 1643.81 67.4314 Q1638.26 73.7508 1628.53 73.7508 Q1618.77 73.7508 1613.22 67.4314 Q1607.71 61.0714 1607.71 49.9314 Q1607.71 38.7509 1613.22 32.4315 Q1618.77 26.1121 1628.53 26.1121 Z" fill="#000000" fill-rule="evenodd" fill-opacity="1" /><path clip-path="url(#clip060)" d="M1699.43 45.1919 L1699.43 72.576 L1691.97 72.576 L1691.97 45.4349 Q1691.97 38.994 1689.46 35.7938 Q1686.95 32.5936 1681.93 32.5936 Q1675.89 32.5936 1672.41 36.4419 Q1668.92 40.2903 1668.92 46.9338 L1668.92 72.576 L1661.43 72.576 L1661.43 27.2059 L1668.92 27.2059 L1668.92 34.2544 Q1671.6 30.163 1675.2 28.1376 Q1678.85 26.1121 1683.59 26.1121 Q1691.4 26.1121 1695.41 30.9732 Q1699.43 35.7938 1699.43 45.1919 Z" fill="#000000" fill-rule="evenodd" fill-opacity="1" /><path clip-path="url(#clip060)" d="M1743.22 28.5427 L1743.22 35.5912 Q1740.06 33.9709 1736.65 33.1607 Q1733.25 32.3505 1729.6 32.3505 Q1724.05 32.3505 1721.26 34.0519 Q1718.5 35.7533 1718.5 39.156 Q1718.5 41.7486 1720.49 43.2475 Q1722.47 44.7058 1728.47 46.0426 L1731.02 46.6097 Q1738.96 48.3111 1742.28 51.4303 Q1745.65 54.509 1745.65 60.0587 Q1745.65 66.3781 1740.62 70.0644 Q1735.64 73.7508 1726.89 73.7508 Q1723.24 73.7508 1719.27 73.0216 Q1715.35 72.3329 1710.97 70.9151 L1710.97 63.2184 Q1715.1 65.3654 1719.11 66.4591 Q1723.12 67.5124 1727.05 67.5124 Q1732.32 67.5124 1735.15 65.73 Q1737.99 63.9071 1737.99 60.6258 Q1737.99 57.5877 1735.92 55.9673 Q1733.9 54.3469 1726.97 52.8481 L1724.38 52.2405 Q1717.45 50.7821 1714.37 47.7845 Q1711.29 44.7463 1711.29 39.4801 Q1711.29 33.0797 1715.83 29.5959 Q1720.37 26.1121 1728.71 26.1121 Q1732.85 26.1121 1736.49 26.7198 Q1740.14 27.3274 1743.22 28.5427 Z" fill="#000000" fill-rule="evenodd" fill-opacity="1" /><polyline clip-path="url(#clip062)" style="stroke:#009af9; stroke-linecap:butt; stroke-linejoin:round; stroke-width:4; stroke-opacity:1; fill:none" points="
  279.704,1386.27 279.76,1386.27 279.773,1386.27 279.788,1386.27 279.805,1386.27 279.824,1386.27 279.845,1386.27 279.869,1386.27 279.896,1386.27 279.927,1386.27 
  279.961,1386.27 280,1386.27 280.043,1386.27 280.092,1386.27 280.147,1386.27 280.209,1386.27 280.278,1386.27 280.356,1386.27 280.444,1386.27 280.543,1386.28 
  280.655,1386.28 280.78,1386.28 280.921,1386.28 281.079,1386.28 281.257,1386.28 281.458,1386.28 281.68,1386.28 281.923,1386.28 282.187,1386.29 282.468,1386.29 
  282.766,1386.29 283.081,1386.29 283.409,1386.29 283.752,1386.29 284.107,1386.3 284.474,1386.3 284.852,1386.3 285.239,1386.3 285.636,1386.3 286.041,1386.3 
  286.453,1386.31 286.868,1386.31 287.29,1386.31 287.719,1386.31 288.157,1386.31 288.601,1386.32 289.05,1386.32 289.502,1386.32 289.96,1386.32 290.418,1386.32 
  290.878,1386.33 291.341,1386.33 291.81,1386.33 292.285,1386.33 292.77,1386.33 293.26,1386.33 293.748,1386.34 294.24,1386.34 294.735,1386.34 295.233,1386.34 
  295.734,1386.34 296.236,1386.35 296.739,1386.35 297.244,1386.35 297.751,1386.35 298.264,1386.35 298.781,1386.35 299.302,1386.36 299.827,1386.36 300.352,1386.36 
  300.882,1386.36 301.417,1386.36 301.954,1386.36 302.493,1386.37 303.038,1386.37 303.586,1386.37 304.139,1386.37 304.698,1386.37 305.26,1386.37 305.829,1386.37 
  306.405,1386.38 306.984,1386.38 307.56,1386.38 308.145,1386.38 308.735,1386.38 309.331,1386.38 309.935,1386.38 310.548,1386.38 311.172,1386.39 311.808,1386.39 
  312.461,1386.39 313.124,1386.39 313.796,1386.39 314.481,1386.39 315.178,1386.39 315.884,1386.39 316.607,1386.39 317.347,1386.39 318.1,1386.39 318.857,1386.39 
  319.632,1386.39 320.411,1386.39 321.193,1386.39 321.987,1386.39 322.785,1386.4 323.593,1386.4 324.413,1386.4 325.247,1386.4 326.1,1386.4 326.968,1386.4 
  327.842,1386.4 328.734,1386.4 329.651,1386.39 330.571,1386.39 331.507,1386.39 332.436,1386.39 333.373,1386.39 334.315,1386.39 335.268,1386.39 336.234,1386.39 
  337.212,1386.39 338.18,1386.39 339.151,1386.39 340.123,1386.39 341.114,1386.39 342.136,1386.39 343.176,1386.39 344.23,1386.39 345.319,1386.39 346.426,1386.38 
  347.585,1386.38 348.788,1386.38 350.027,1386.38 351.303,1386.37 352.64,1386.37 353.975,1386.37 355.329,1386.37 356.735,1386.36 358.168,1386.36 359.595,1386.36 
  361.067,1386.35 362.625,1386.35 364.262,1386.34 365.977,1386.34 367.718,1386.33 369.426,1386.32 371.204,1386.32 372.97,1386.31 374.757,1386.31 376.459,1386.3 
  378.277,1386.3 380.23,1386.29 382.325,1386.28 384.559,1386.27 386.89,1386.26 389.255,1386.25 391.761,1386.23 394.483,1386.22 397.546,1386.19 400.992,1386.17 
  404.868,1386.14 409.229,1386.1 414.135,1386.05 419.654,1386 425.863,1385.93 432.097,1385.86 439.111,1385.78 446.909,1385.7 453.209,1385.63 459.972,1385.57 
  464.456,1385.53 468.472,1385.5 472.404,1385.46 476.157,1385.42 480.205,1385.38 483.902,1385.34 487.569,1385.3 491.334,1385.26 495.196,1385.21 499.087,1385.16 
  503.463,1385.1 507.55,1385.05 511.605,1384.99 515.961,1384.93 520.463,1384.87 524.325,1384.82 528.063,1384.78 531.456,1384.73 535.016,1384.68 538.455,1384.64 
  541.604,1384.6 544.774,1384.55 547.914,1384.51 551.052,1384.46 554.349,1384.4 558.058,1384.33 562.014,1384.24 566.465,1384.13 571.471,1384.01 576.695,1383.87 
  582.572,1383.72 589.184,1383.54 594.494,1383.37 600.468,1383.2 605.601,1383.07 609.645,1382.96 613.811,1382.85 617.918,1382.74 622.086,1382.62 626.138,1382.5 
  630.553,1382.35 635.107,1382.21 639.521,1382.06 644.092,1381.89 648.971,1381.69 654.461,1381.43 660.636,1381.1 667.584,1380.73 675.4,1380.31 680.826,1379.99 
  686.932,1379.61 693.8,1379.19 700.25,1378.79 706.662,1378.36 713.718,1377.84 721.605,1377.26 730.064,1376.6 739.581,1375.84 746.819,1375.27 754.362,1374.61 
  761.022,1373.92 768.516,1373.11 776.946,1372.15 784.487,1371.21 792.971,1370.05 802.515,1368.58 813.253,1366.59 822.662,1364.6 830.111,1363.03 838.492,1361 
  847.493,1358.53 855.498,1356.24 862.966,1354.01 871.367,1351.38 880.819,1348.38 891.452,1345 900.12,1341.94 909.872,1338.29 919.322,1334.35 929.953,1329.18 
  941.913,1322.55 952.603,1316.29 964.629,1308.29 977.28,1300.61 989.443,1293.39 998.012,1287.32 1007.65,1281.27 1013.17,1278 1018.19,1274.53 1023.58,1270.38 
  1029.48,1264.97 1036.12,1258.79 1043.59,1252.95 1049.12,1248.22 1054.95,1242.88 1060.75,1236.63 1067.28,1229.6 1073.82,1222.43 1080.35,1214.78 1087.7,1206.09 
  1095.02,1196.98 1102.04,1188.55 1108.34,1180.98 1114.14,1175.09 1118.74,1169.81 1123.65,1164.06 1128.67,1157.71 1133.49,1151.09 1138.88,1142.99 1144.36,1134.97 
  1149.83,1126.41 1155.58,1116.95 1161.44,1106.27 1167.69,1094.54 1174.04,1082.44 1180.2,1070 1186.62,1056.06 1192.91,1041.03 1199.04,1026.84 1205.2,1011.62 
  1211.18,996.837 1217.09,980.283 1222.74,961.02 1227.64,943.641 1232.18,926.551 1236.36,911.155 1240.5,894.961 1244.4,878.625 1248.05,861.578 1251.35,846.229 
  1254.44,831.441 1257.48,816.275 1260.31,801.508 1262.99,787.615 1265.62,773.618 1268.11,760.74 1270.6,748.026 1273.04,735.518 1275.45,724.312 1277.94,712.688 
  1280.45,700.71 1282.93,688.709 1285.42,677.075 1287.9,665.609 1290.4,654.358 1292.94,643.595 1295.54,632.188 1298.1,620.519 1300.66,607.505 1303.07,594.708 
  1305.42,582.453 1307.71,570.768 1310.03,559.006 1312.3,547.216 1314.55,534.745 1316.71,523.111 1318.84,511.609 1320.94,500.361 1323.04,489.298 1325.12,477.586 
  1327.14,464.372 1329.04,451.77 1330.87,439.863 1332.68,428.23 1334.45,417.188 1336.21,405.668 1337.92,394.278 1339.6,382.948 1341.25,372.099 1342.87,361.919 
  1344.52,351.33 1346.12,340.559 1347.69,330.123 1349.26,320.039 1350.82,310.378 1352.39,301.576 1353.98,292.728 1355.58,284.267 1357.2,275.89 1358.83,267.505 
  1360.46,259.254 1362.11,251.606 1363.76,244.058 1365.44,236.763 1367.15,230.001 1368.88,223.816 1370.65,218.227 1372.46,212.763 1374.29,207.724 1376.17,202.804 
  1378.06,198.923 1380.01,195.115 1382.01,191.465 1384.01,187.24 1386.01,183.011 1388.01,179.826 1390.05,176.467 1392.1,172.632 1394.13,169.144 1396.17,165.652 
  1398.19,162.995 1400.24,161.567 1402.33,160.698 1404.46,160.256 1406.6,161.067 1408.78,162.278 1410.99,163.781 1413.22,164.607 1415.46,164.824 1417.69,165.721 
  1419.93,168.181 1422.23,171.78 1424.53,175.697 1426.85,180.169 1429.18,184.61 1431.53,189.186 1433.9,193.744 1436.29,198.728 1438.7,204.098 1441.12,208.846 
  1443.57,213.987 1446.03,219.721 1448.51,226.168 1451,233.105 1453.51,240.968 1456,248.877 1458.5,256.111 1461.05,263.562 1463.61,270.446 1466.22,277.427 
  1468.84,284.435 1471.5,291.537 1474.17,297.822 1476.86,304.017 1479.53,310.402 1482.23,316.53 1484.92,322.677 1487.59,328.666 1490.28,335.009 1492.95,341.747 
  1495.66,349.693 1498.43,357.437 1501.23,364.874 1504.01,371.893 1506.78,378.619 1509.5,384.665 1512.16,390.586 1514.75,396.692 1517.4,402.965 1519.97,409.136 
  1522.58,415.935 1525.19,423.383 1527.87,431.195 1530.56,439.694 1533.35,448.225 1536.13,456.421 1538.93,464.1 1541.66,471.942 1544.38,480.429 1547.22,489.42 
  1550.06,498.098 1552.92,507.519 1555.82,517.559 1558.86,528.869 1562,541.377 1565.3,554.9 1568.66,568.654 1572.13,582.598 1575.69,596.812 1579.33,610.986 
  1583.07,625.385 1586.9,640.234 1590.81,654.929 1594.83,670.596 1598.92,687.286 1602.9,703.607 1606.89,720.05 1610.68,736.159 1614.31,751.833 1617.57,765.734 
  1620.82,779.19 1623.95,791.897 1627.06,804.476 1630.03,815.881 1633.19,827.837 1636.21,838.575 1639.61,850.14 1643.23,862.502 1646.84,874.84 1650.39,886.305 
  1654.24,898.763 1658.26,911.371 1662.22,923.39 1666.37,935.234 1671.05,948.153 1676.06,962.047 1681.09,975.8 1685.97,988.657 1691.24,1002.15 1696.54,1015.12 
  1702.49,1028.74 1708.87,1042.48 1715.84,1057.56 1723.23,1072.27 1731.08,1086.36 1738.06,1099.06 1745.91,1113.54 1754.49,1128.76 1762.83,1142.49 1772.21,1157.23 
  1782.14,1172.22 1792.33,1187.02 1801.09,1198.84 1810.02,1209.82 1820.07,1221.27 1831.37,1233.17 1843.2,1245.58 1856.51,1258.26 1865.91,1266.21 1876.48,1274.44 
  1888.11,1283.05 1900.63,1291.24 1911.37,1297.54 1918.1,1301.45 1925.67,1305.88 1934.18,1310.68 1941.62,1314.73 1949.08,1318.72 1955.04,1321.74 1961.32,1324.84 
  1966.83,1327.4 1972.38,1329.92 1977.68,1332.22 1982.65,1334.26 1988.07,1336.33 1994.15,1338.39 2000.99,1340.67 2007.92,1342.98 2014.25,1345.01 2020.38,1346.89 
  2026.29,1348.61 2032.94,1350.41 2040.42,1352.41 2046.56,1353.96 2052.57,1355.39 2059.32,1356.95 2066.46,1358.48 2074.5,1360.12 2083.54,1361.79 2093.7,1363.52 
  2105.14,1365.31 2118.01,1367.19 2128.31,1368.55 2139.91,1369.97 2149.65,1371.1 2160.61,1372.29 2172.94,1373.57 2181.4,1374.38 2190.92,1375.25 2200.72,1376.09 
  2208.64,1376.71 2217.54,1377.33 2227.57,1377.99 2237.51,1378.64 2248.7,1379.32 2256.53,1379.76 2265.34,1380.22 2275.26,1380.69 2286.41,1381.18 2298.95,1381.7 
  2305.2,1381.92 2312.22,1382.16 2315.08,1382.26 2318.29,1382.37 2321.91,1382.48 2325.72,1382.6 2329.37,1382.71 2333.49,1382.83 2338.11,1382.95 2342.34,1383.06 
  2346.09,1383.15 2350.24,1383.25 2352.76,1383.31 
  "/>
<polyline clip-path="url(#clip062)" style="stroke:#e26f46; stroke-linecap:butt; stroke-linejoin:round; stroke-width:4; stroke-opacity:1; fill:none" points="
  279.704,1386.27 279.76,1386.27 279.773,1386.27 279.788,1386.27 279.805,1386.27 279.824,1386.27 279.845,1386.27 279.869,1386.27 279.896,1386.27 279.927,1386.27 
  279.961,1386.27 279.999,1386.27 280.043,1386.27 280.092,1386.27 280.146,1386.27 280.208,1386.27 280.277,1386.27 280.355,1386.27 280.443,1386.27 280.542,1386.28 
  280.653,1386.28 280.778,1386.28 280.919,1386.28 281.077,1386.28 281.255,1386.28 281.456,1386.28 281.677,1386.28 281.92,1386.28 282.181,1386.29 282.46,1386.29 
  282.756,1386.29 283.067,1386.29 283.392,1386.29 283.73,1386.29 284.081,1386.3 284.442,1386.3 284.811,1386.3 285.188,1386.3 285.574,1386.3 285.969,1386.31 
  286.371,1386.31 286.779,1386.31 287.193,1386.31 287.613,1386.31 288.038,1386.32 288.467,1386.32 288.903,1386.32 289.344,1386.32 289.79,1386.32 290.246,1386.32 
  290.71,1386.33 291.183,1386.33 291.662,1386.33 292.143,1386.33 292.633,1386.33 293.131,1386.33 293.635,1386.34 294.145,1386.34 294.655,1386.34 295.165,1386.34 
  295.683,1386.34 296.207,1386.34 296.729,1386.35 297.254,1386.35 297.781,1386.35 298.315,1386.35 298.857,1386.35 299.409,1386.35 299.968,1386.36 300.536,1386.36 
  301.113,1386.36 301.702,1386.36 302.303,1386.36 302.915,1386.36 303.537,1386.36 304.174,1386.36 304.824,1386.36 305.475,1386.37 306.137,1386.37 306.805,1386.37 
  307.475,1386.37 308.15,1386.37 308.831,1386.37 309.516,1386.37 310.215,1386.37 310.929,1386.37 311.66,1386.37 312.405,1386.37 313.171,1386.37 313.965,1386.37 
  314.776,1386.37 315.585,1386.37 316.391,1386.38 317.197,1386.38 318.017,1386.38 318.846,1386.38 319.68,1386.38 320.537,1386.38 321.423,1386.38 322.333,1386.37 
  323.27,1386.37 324.233,1386.37 325.202,1386.37 326.18,1386.37 327.172,1386.37 328.178,1386.37 329.214,1386.37 330.282,1386.37 331.387,1386.37 332.523,1386.36 
  333.691,1386.36 334.857,1386.36 336.046,1386.36 337.251,1386.36 338.486,1386.35 339.766,1386.35 341.083,1386.35 342.46,1386.34 343.897,1386.34 345.375,1386.34 
  346.906,1386.33 348.419,1386.33 349.954,1386.32 351.56,1386.32 353.222,1386.31 354.915,1386.31 356.677,1386.3 358.572,1386.29 360.452,1386.29 362.424,1386.28 
  364.389,1386.27 366.29,1386.27 368.196,1386.26 370.122,1386.25 372.041,1386.25 373.925,1386.24 375.818,1386.23 377.8,1386.22 379.803,1386.22 381.753,1386.21 
  383.637,1386.2 385.538,1386.2 387.448,1386.19 389.36,1386.18 391.288,1386.18 393.192,1386.17 395.145,1386.16 397.142,1386.15 399.115,1386.15 401.026,1386.14 
  402.822,1386.13 404.614,1386.13 406.355,1386.12 408.099,1386.12 409.902,1386.11 411.715,1386.1 413.592,1386.09 415.563,1386.08 417.733,1386.07 420.097,1386.05 
  422.756,1386.03 425.658,1386.01 428.669,1385.99 431.605,1385.97 434.545,1385.96 437.465,1385.94 440.353,1385.91 443.522,1385.89 446.84,1385.86 450.345,1385.83 
  454.287,1385.79 458.142,1385.76 462.433,1385.72 467.072,1385.67 471.352,1385.62 476.083,1385.57 480.814,1385.52 485.983,1385.46 491.753,1385.39 497.125,1385.32 
  503.072,1385.23 509.592,1385.12 516.928,1384.99 525.181,1384.84 534.465,1384.65 544.91,1384.42 556.66,1384.14 566.115,1383.92 573.864,1383.73 581.39,1383.51 
  589.857,1383.22 599.382,1382.86 609.524,1382.44 620.934,1381.87 628.238,1381.49 636.456,1381.08 645.701,1380.66 650.884,1380.41 656.429,1380.14 662.139,1379.86 
  667.552,1379.53 673.641,1379.11 680.492,1378.7 684.455,1378.48 688.315,1378.26 692.003,1378.05 695.904,1377.79 700.252,1377.49 705.143,1377.16 709.824,1376.84 
  714.527,1376.48 719.817,1376.07 725.311,1375.59 731.491,1375.07 737.517,1374.49 744.05,1373.79 751.399,1373.01 756.102,1372.48 761.392,1371.87 766.983,1371.14 
  773.274,1370.37 780.17,1369.54 785.343,1368.81 791.164,1367.99 797.144,1367.02 803.872,1365.75 811.44,1364.35 819.954,1362.96 825.294,1362.06 831.134,1361.05 
  836.573,1359.99 842.639,1358.83 848.415,1357.56 854.914,1356.1 862.11,1354.33 869.665,1352.24 878.164,1349.93 885.77,1347.47 894.326,1344.28 903.419,1340.44 
  911.113,1336.58 918.933,1332.65 926.519,1329.16 935.054,1324.96 943.084,1320.38 952.117,1314.76 962.28,1307.36 970.24,1300.95 978.238,1293.46 984.937,1286.04 
  990.27,1279.51 995.471,1272.71 1000.07,1266 1004.28,1259.6 1008.22,1253.11 1011.86,1246.75 1015.3,1240.57 1018.6,1234.37 1021.77,1227.99 1024.76,1221.93 
  1027.68,1215.79 1030.5,1210.07 1033.56,1203.21 1036.36,1196.82 1039.14,1190.46 1041.97,1183.87 1044.82,1177.05 1047.7,1169.53 1050.36,1162.26 1053.05,1154.68 
  1055.59,1147.59 1058.22,1140.95 1061.13,1133.91 1064.4,1126.24 1067.96,1117.76 1071.82,1108.1 1075.83,1098.36 1079.82,1088.52 1084.3,1077.36 1088.6,1067.04 
  1093.44,1054.5 1098.29,1041.5 1103.12,1028.93 1108.16,1016.55 1113.3,1004.82 1118.44,992.321 1123.37,980.197 1128.52,967.356 1133.56,955.816 1138.44,944.792 
  1143.16,933.284 1147.84,922.683 1152.46,913.112 1156.84,904.824 1160.83,896.754 1164.81,887.364 1168.98,876.738 1173.18,865.96 1177.32,855.338 1181.46,843.152 
  1185.64,830.357 1189.76,817.234 1193.86,801.995 1197.73,787.691 1201.51,774.488 1205.32,761.359 1209.06,748.76 1212.76,737.783 1216.49,727.304 1220.17,718.185 
  1223.8,709.92 1227.31,702.845 1230.74,696.464 1234.03,690.432 1237.35,684.033 1240.59,677.09 1243.91,670.463 1247.16,664.771 1250.34,658.714 1253.51,652.628 
  1256.7,646.188 1259.87,638.401 1263.12,629.286 1266.34,618.541 1269.47,607.031 1272.44,595.871 1275.35,585.488 1278.27,575.728 1281.14,566.427 1284.02,557.598 
  1286.91,548.455 1289.75,540.667 1292.63,533.374 1295.51,525.647 1298.39,518.608 1301.25,512.468 1304.15,505.219 1307.01,499.097 1309.89,493.822 1312.78,489.812 
  1315.69,487.02 1318.58,484.967 1321.46,483.322 1324.32,482.759 1327.14,482.813 1329.89,482.199 1332.68,481.925 1335.45,483.475 1338.12,485.9 1340.63,488.318 
  1343.14,490.769 1345.57,493.32 1348,496.554 1350.32,500.03 1352.58,503.473 1354.79,506.795 1356.98,509.824 1359.19,513.542 1361.33,516.974 1363.45,519.832 
  1365.66,522.654 1367.91,526.01 1370.1,529.529 1372.28,532.886 1374.5,536.418 1376.71,539.941 1378.9,543.329 1381.16,547.016 1383.42,550.857 1385.66,554.708 
  1387.9,558.384 1390.18,561.802 1392.52,565.148 1394.94,568.698 1397.37,572.098 1399.9,575.724 1402.47,579.628 1404.99,584.321 1407.49,588.574 1409.97,593.018 
  1412.51,597.816 1415.01,602.152 1417.55,605.905 1420.24,609.666 1423.03,614.454 1425.72,619.302 1428.42,623.818 1431.17,627.949 1434.12,632.522 1437.05,636.88 
  1440.1,641.21 1443.29,647.162 1446.29,653.277 1449.23,659.295 1452.17,665.605 1455.05,671.633 1457.96,677.541 1460.91,683.288 1463.9,688.283 1467.08,693.324 
  1470.44,698.52 1473.85,703.423 1477.46,708.304 1481.21,712.124 1485.06,715.756 1488.91,719.166 1492.82,722.055 1496.68,724.119 1500.19,725.743 1503.73,727.58 
  1507.12,730.103 1510.6,732.112 1514.03,733.662 1517.18,735.032 1520.3,736.043 1523.25,736.608 1526.01,737.201 1528.72,738.382 1531.42,740.144 1534.19,742.81 
  1537.07,746.13 1540.22,749.319 1543.19,753.237 1546.44,757.565 1549.8,762.937 1553.37,768.815 1557.17,775.536 1561.09,782.928 1565.27,790.703 1569.52,798.822 
  1573.98,808.031 1578.63,817.31 1583.42,826.805 1588.36,837.339 1593.44,848.669 1598.54,860.314 1603.45,871.32 1608.52,882.295 1613.71,892.81 1619.27,903.946 
  1625,914.227 1630.88,923.606 1636.4,931.404 1641.24,938.063 1645.9,944.243 1650.34,950.506 1654.69,956.946 1659.3,963.69 1663.7,970.152 1668.18,976.175 
  1672.34,982.082 1676.42,988.386 1681,995.26 1685.65,1001.24 1689.66,1005.9 1693.41,1009.98 1696.96,1013.47 1700.08,1016.45 1703.13,1019.56 1706.02,1022.64 
  1708.93,1025.89 1711.77,1029.31 1714.72,1033.07 1717.77,1036.76 1720.77,1040.71 1723.99,1044.71 1727.17,1048.68 1730.32,1052.18 1733.28,1055.74 1736.33,1059.56 
  1739.54,1063.79 1742.84,1067.96 1746.34,1072.43 1749.78,1076.83 1753.36,1081.23 1756.81,1085.7 1760.48,1090.23 1764.28,1095.08 1768.12,1100.01 1772.08,1105.2 
  1776.41,1110.89 1780.97,1117.58 1786.09,1124.84 1791.85,1132.97 1798.33,1141.55 1805.62,1150.08 1811.77,1156.51 1817.06,1161.88 1822.19,1167.14 1827.17,1172.02 
  1831.78,1176.53 1836.27,1180.99 1841.14,1185.92 1846.22,1190.95 1851.65,1195.81 1856.31,1199.87 1860.77,1203.81 1865.4,1207.8 1869.75,1211.58 1874.45,1215.68 
  1879.22,1219.67 1884,1223.53 1888.51,1227.1 1893.05,1230.65 1897.71,1234.33 1902.6,1238.25 1908.08,1242.7 1914.14,1247.59 1920.95,1252.7 1927.76,1257.66 
  1934.1,1261.88 1940.52,1266.03 1946.28,1269.88 1952.75,1274.37 1960.03,1279.4 1968.22,1284.73 1975.41,1288.95 1983.49,1293.46 1991.15,1297.77 1999.77,1302.38 
  2009.46,1306.94 2017.15,1310.15 2023.39,1312.6 2029.1,1314.89 2035.27,1317.17 2041.17,1319.2 2045.99,1320.73 2050.61,1322.21 2054.83,1323.58 2059.21,1324.97 
  2063.51,1326.31 2067.59,1327.65 2072.19,1329.27 2077.36,1331.09 2083.18,1333.06 2089.72,1335.25 2097.08,1337.65 2105.35,1340.18 2114.26,1342.7 2124.27,1345.38 
  2135.54,1348.09 2143.53,1349.81 2151.31,1351.51 2159.55,1353.27 2168.81,1355.16 2178.03,1356.9 2188.39,1358.7 2194.69,1359.76 2201.78,1360.89 2209.5,1362.1 
  2218.19,1363.47 2227.96,1364.94 2236.7,1366.26 2242.48,1367.08 2248.97,1368.01 2254.2,1368.72 2259.24,1369.38 2263.98,1369.96 2269.28,1370.58 2275.05,1371.23 
  2281.02,1371.89 2286.71,1372.47 2292.46,1373.02 2298.92,1373.59 2306.2,1374.18 2313.54,1374.73 2319.94,1375.18 2325.9,1375.56 2331.33,1375.91 2336.88,1376.26 
  2343.11,1376.65 2349.48,1377.02 2352.76,1377.2 
  "/>
<path clip-path="url(#clip060)" d="
M1778.25 322.316 L2283.65 322.316 L2283.65 166.796 L1778.25 166.796  Z
  " fill="#ffffff" fill-rule="evenodd" fill-opacity="1"/>
<polyline clip-path="url(#clip060)" style="stroke:#000000; stroke-linecap:butt; stroke-linejoin:round; stroke-width:4; stroke-opacity:1; fill:none" points="
  1778.25,322.316 2283.65,322.316 2283.65,166.796 1778.25,166.796 1778.25,322.316 
  "/>
<polyline clip-path="url(#clip060)" style="stroke:#009af9; stroke-linecap:butt; stroke-linejoin:round; stroke-width:4; stroke-opacity:1; fill:none" points="
  1801.28,218.636 1939.48,218.636 
  "/>
<path clip-path="url(#clip060)" d="M1962.52 201.356 L1991.75 201.356 L1991.75 205.291 L1979.49 205.291 L1979.49 235.916 L1974.79 235.916 L1974.79 205.291 L1962.52 205.291 L1962.52 201.356 Z" fill="#000000" fill-rule="evenodd" fill-opacity="1" /><path clip-path="url(#clip060)" d="M2004.14 213.971 Q2003.42 213.555 2002.56 213.37 Q2001.73 213.161 2000.71 213.161 Q1997.1 213.161 1995.16 215.522 Q1993.24 217.86 1993.24 222.258 L1993.24 235.916 L1988.95 235.916 L1988.95 209.99 L1993.24 209.99 L1993.24 214.018 Q1994.58 211.657 1996.73 210.522 Q1998.88 209.365 2001.96 209.365 Q2002.4 209.365 2002.93 209.434 Q2003.47 209.481 2004.12 209.596 L2004.14 213.971 Z" fill="#000000" fill-rule="evenodd" fill-opacity="1" /><path clip-path="url(#clip060)" d="M2020.39 222.883 Q2015.23 222.883 2013.24 224.064 Q2011.24 225.244 2011.24 228.092 Q2011.24 230.36 2012.73 231.703 Q2014.23 233.022 2016.8 233.022 Q2020.34 233.022 2022.47 230.522 Q2024.62 227.999 2024.62 223.832 L2024.62 222.883 L2020.39 222.883 M2028.88 221.124 L2028.88 235.916 L2024.62 235.916 L2024.62 231.981 Q2023.17 234.342 2020.99 235.476 Q2018.81 236.587 2015.67 236.587 Q2011.68 236.587 2009.32 234.365 Q2006.99 232.119 2006.99 228.369 Q2006.99 223.994 2009.9 221.772 Q2012.84 219.55 2018.65 219.55 L2024.62 219.55 L2024.62 219.133 Q2024.62 216.194 2022.68 214.596 Q2020.76 212.976 2017.26 212.976 Q2015.04 212.976 2012.93 213.508 Q2010.83 214.041 2008.88 215.106 L2008.88 211.17 Q2011.22 210.268 2013.42 209.828 Q2015.62 209.365 2017.7 209.365 Q2023.33 209.365 2026.11 212.282 Q2028.88 215.198 2028.88 221.124 Z" fill="#000000" fill-rule="evenodd" fill-opacity="1" /><path clip-path="url(#clip060)" d="M2037.66 209.99 L2041.92 209.99 L2041.92 236.379 Q2041.92 241.332 2040.02 243.555 Q2038.14 245.777 2033.95 245.777 L2032.33 245.777 L2032.33 242.166 L2033.47 242.166 Q2035.9 242.166 2036.78 241.031 Q2037.66 239.92 2037.66 236.379 L2037.66 209.99 M2037.66 199.897 L2041.92 199.897 L2041.92 205.291 L2037.66 205.291 L2037.66 199.897 Z" fill="#000000" fill-rule="evenodd" fill-opacity="1" /><path clip-path="url(#clip060)" d="M2073 221.888 L2073 223.971 L2053.42 223.971 Q2053.7 228.369 2056.06 230.684 Q2058.44 232.976 2062.68 232.976 Q2065.13 232.976 2067.43 232.374 Q2069.74 231.772 2072.01 230.569 L2072.01 234.596 Q2069.72 235.568 2067.31 236.078 Q2064.9 236.587 2062.43 236.587 Q2056.22 236.587 2052.59 232.976 Q2048.98 229.365 2048.98 223.207 Q2048.98 216.842 2052.4 213.115 Q2055.85 209.365 2061.68 209.365 Q2066.92 209.365 2069.95 212.745 Q2073 216.101 2073 221.888 M2068.74 220.638 Q2068.7 217.143 2066.78 215.059 Q2064.88 212.976 2061.73 212.976 Q2058.17 212.976 2056.01 214.99 Q2053.88 217.004 2053.56 220.661 L2068.74 220.638 Z" fill="#000000" fill-rule="evenodd" fill-opacity="1" /><path clip-path="url(#clip060)" d="M2098.65 210.985 L2098.65 214.967 Q2096.85 213.971 2095.02 213.485 Q2093.21 212.976 2091.36 212.976 Q2087.22 212.976 2084.93 215.615 Q2082.63 218.231 2082.63 222.976 Q2082.63 227.721 2084.93 230.36 Q2087.22 232.976 2091.36 232.976 Q2093.21 232.976 2095.02 232.49 Q2096.85 231.981 2098.65 230.985 L2098.65 234.92 Q2096.87 235.754 2094.95 236.17 Q2093.05 236.587 2090.9 236.587 Q2085.04 236.587 2081.59 232.906 Q2078.14 229.226 2078.14 222.976 Q2078.14 216.633 2081.61 212.999 Q2085.11 209.365 2091.18 209.365 Q2093.14 209.365 2095.02 209.782 Q2096.89 210.175 2098.65 210.985 Z" fill="#000000" fill-rule="evenodd" fill-opacity="1" /><path clip-path="url(#clip060)" d="M2110.27 202.629 L2110.27 209.99 L2119.05 209.99 L2119.05 213.3 L2110.27 213.3 L2110.27 227.374 Q2110.27 230.545 2111.13 231.448 Q2112.01 232.351 2114.67 232.351 L2119.05 232.351 L2119.05 235.916 L2114.67 235.916 Q2109.74 235.916 2107.86 234.087 Q2105.99 232.235 2105.99 227.374 L2105.99 213.3 L2102.86 213.3 L2102.86 209.99 L2105.99 209.99 L2105.99 202.629 L2110.27 202.629 Z" fill="#000000" fill-rule="evenodd" fill-opacity="1" /><path clip-path="url(#clip060)" d="M2134.69 212.976 Q2131.27 212.976 2129.28 215.661 Q2127.29 218.323 2127.29 222.976 Q2127.29 227.629 2129.25 230.314 Q2131.24 232.976 2134.69 232.976 Q2138.1 232.976 2140.09 230.291 Q2142.08 227.606 2142.08 222.976 Q2142.08 218.37 2140.09 215.684 Q2138.1 212.976 2134.69 212.976 M2134.69 209.365 Q2140.25 209.365 2143.42 212.976 Q2146.59 216.587 2146.59 222.976 Q2146.59 229.342 2143.42 232.976 Q2140.25 236.587 2134.69 236.587 Q2129.11 236.587 2125.94 232.976 Q2122.8 229.342 2122.8 222.976 Q2122.8 216.587 2125.94 212.976 Q2129.11 209.365 2134.69 209.365 Z" fill="#000000" fill-rule="evenodd" fill-opacity="1" /><path clip-path="url(#clip060)" d="M2168.67 213.971 Q2167.96 213.555 2167.1 213.37 Q2166.27 213.161 2165.25 213.161 Q2161.64 213.161 2159.69 215.522 Q2157.77 217.86 2157.77 222.258 L2157.77 235.916 L2153.49 235.916 L2153.49 209.99 L2157.77 209.99 L2157.77 214.018 Q2159.11 211.657 2161.27 210.522 Q2163.42 209.365 2166.5 209.365 Q2166.94 209.365 2167.47 209.434 Q2168 209.481 2168.65 209.596 L2168.67 213.971 Z" fill="#000000" fill-rule="evenodd" fill-opacity="1" /><path clip-path="url(#clip060)" d="M2183.93 238.323 Q2182.12 242.953 2180.41 244.365 Q2178.7 245.777 2175.83 245.777 L2172.42 245.777 L2172.42 242.212 L2174.92 242.212 Q2176.68 242.212 2177.66 241.379 Q2178.63 240.545 2179.81 237.443 L2180.57 235.499 L2170.09 209.99 L2174.6 209.99 L2182.7 230.268 L2190.8 209.99 L2195.32 209.99 L2183.93 238.323 Z" fill="#000000" fill-rule="evenodd" fill-opacity="1" /><path clip-path="url(#clip060)" d="M2217.68 231.981 L2225.32 231.981 L2225.32 205.615 L2217.01 207.282 L2217.01 203.022 L2225.27 201.356 L2229.95 201.356 L2229.95 231.981 L2237.59 231.981 L2237.59 235.916 L2217.68 235.916 L2217.68 231.981 Z" fill="#000000" fill-rule="evenodd" fill-opacity="1" /><polyline clip-path="url(#clip060)" style="stroke:#e26f46; stroke-linecap:butt; stroke-linejoin:round; stroke-width:4; stroke-opacity:1; fill:none" points="
  1801.28,270.476 1939.48,270.476 
  "/>
<path clip-path="url(#clip060)" d="M1962.52 253.196 L1991.75 253.196 L1991.75 257.131 L1979.49 257.131 L1979.49 287.756 L1974.79 287.756 L1974.79 257.131 L1962.52 257.131 L1962.52 253.196 Z" fill="#000000" fill-rule="evenodd" fill-opacity="1" /><path clip-path="url(#clip060)" d="M2004.14 265.811 Q2003.42 265.395 2002.56 265.21 Q2001.73 265.001 2000.71 265.001 Q1997.1 265.001 1995.16 267.362 Q1993.24 269.7 1993.24 274.098 L1993.24 287.756 L1988.95 287.756 L1988.95 261.83 L1993.24 261.83 L1993.24 265.858 Q1994.58 263.497 1996.73 262.362 Q1998.88 261.205 2001.96 261.205 Q2002.4 261.205 2002.93 261.274 Q2003.47 261.321 2004.12 261.436 L2004.14 265.811 Z" fill="#000000" fill-rule="evenodd" fill-opacity="1" /><path clip-path="url(#clip060)" d="M2020.39 274.723 Q2015.23 274.723 2013.24 275.904 Q2011.24 277.084 2011.24 279.932 Q2011.24 282.2 2012.73 283.543 Q2014.23 284.862 2016.8 284.862 Q2020.34 284.862 2022.47 282.362 Q2024.62 279.839 2024.62 275.672 L2024.62 274.723 L2020.39 274.723 M2028.88 272.964 L2028.88 287.756 L2024.62 287.756 L2024.62 283.821 Q2023.17 286.182 2020.99 287.316 Q2018.81 288.427 2015.67 288.427 Q2011.68 288.427 2009.32 286.205 Q2006.99 283.959 2006.99 280.209 Q2006.99 275.834 2009.9 273.612 Q2012.84 271.39 2018.65 271.39 L2024.62 271.39 L2024.62 270.973 Q2024.62 268.034 2022.68 266.436 Q2020.76 264.816 2017.26 264.816 Q2015.04 264.816 2012.93 265.348 Q2010.83 265.881 2008.88 266.946 L2008.88 263.01 Q2011.22 262.108 2013.42 261.668 Q2015.62 261.205 2017.7 261.205 Q2023.33 261.205 2026.11 264.122 Q2028.88 267.038 2028.88 272.964 Z" fill="#000000" fill-rule="evenodd" fill-opacity="1" /><path clip-path="url(#clip060)" d="M2037.66 261.83 L2041.92 261.83 L2041.92 288.219 Q2041.92 293.172 2040.02 295.395 Q2038.14 297.617 2033.95 297.617 L2032.33 297.617 L2032.33 294.006 L2033.47 294.006 Q2035.9 294.006 2036.78 292.871 Q2037.66 291.76 2037.66 288.219 L2037.66 261.83 M2037.66 251.737 L2041.92 251.737 L2041.92 257.131 L2037.66 257.131 L2037.66 251.737 Z" fill="#000000" fill-rule="evenodd" fill-opacity="1" /><path clip-path="url(#clip060)" d="M2073 273.728 L2073 275.811 L2053.42 275.811 Q2053.7 280.209 2056.06 282.524 Q2058.44 284.816 2062.68 284.816 Q2065.13 284.816 2067.43 284.214 Q2069.74 283.612 2072.01 282.409 L2072.01 286.436 Q2069.72 287.408 2067.31 287.918 Q2064.9 288.427 2062.43 288.427 Q2056.22 288.427 2052.59 284.816 Q2048.98 281.205 2048.98 275.047 Q2048.98 268.682 2052.4 264.955 Q2055.85 261.205 2061.68 261.205 Q2066.92 261.205 2069.95 264.585 Q2073 267.941 2073 273.728 M2068.74 272.478 Q2068.7 268.983 2066.78 266.899 Q2064.88 264.816 2061.73 264.816 Q2058.17 264.816 2056.01 266.83 Q2053.88 268.844 2053.56 272.501 L2068.74 272.478 Z" fill="#000000" fill-rule="evenodd" fill-opacity="1" /><path clip-path="url(#clip060)" d="M2098.65 262.825 L2098.65 266.807 Q2096.85 265.811 2095.02 265.325 Q2093.21 264.816 2091.36 264.816 Q2087.22 264.816 2084.93 267.455 Q2082.63 270.071 2082.63 274.816 Q2082.63 279.561 2084.93 282.2 Q2087.22 284.816 2091.36 284.816 Q2093.21 284.816 2095.02 284.33 Q2096.85 283.821 2098.65 282.825 L2098.65 286.76 Q2096.87 287.594 2094.95 288.01 Q2093.05 288.427 2090.9 288.427 Q2085.04 288.427 2081.59 284.746 Q2078.14 281.066 2078.14 274.816 Q2078.14 268.473 2081.61 264.839 Q2085.11 261.205 2091.18 261.205 Q2093.14 261.205 2095.02 261.622 Q2096.89 262.015 2098.65 262.825 Z" fill="#000000" fill-rule="evenodd" fill-opacity="1" /><path clip-path="url(#clip060)" d="M2110.27 254.469 L2110.27 261.83 L2119.05 261.83 L2119.05 265.14 L2110.27 265.14 L2110.27 279.214 Q2110.27 282.385 2111.13 283.288 Q2112.01 284.191 2114.67 284.191 L2119.05 284.191 L2119.05 287.756 L2114.67 287.756 Q2109.74 287.756 2107.86 285.927 Q2105.99 284.075 2105.99 279.214 L2105.99 265.14 L2102.86 265.14 L2102.86 261.83 L2105.99 261.83 L2105.99 254.469 L2110.27 254.469 Z" fill="#000000" fill-rule="evenodd" fill-opacity="1" /><path clip-path="url(#clip060)" d="M2134.69 264.816 Q2131.27 264.816 2129.28 267.501 Q2127.29 270.163 2127.29 274.816 Q2127.29 279.469 2129.25 282.154 Q2131.24 284.816 2134.69 284.816 Q2138.1 284.816 2140.09 282.131 Q2142.08 279.446 2142.08 274.816 Q2142.08 270.21 2140.09 267.524 Q2138.1 264.816 2134.69 264.816 M2134.69 261.205 Q2140.25 261.205 2143.42 264.816 Q2146.59 268.427 2146.59 274.816 Q2146.59 281.182 2143.42 284.816 Q2140.25 288.427 2134.69 288.427 Q2129.11 288.427 2125.94 284.816 Q2122.8 281.182 2122.8 274.816 Q2122.8 268.427 2125.94 264.816 Q2129.11 261.205 2134.69 261.205 Z" fill="#000000" fill-rule="evenodd" fill-opacity="1" /><path clip-path="url(#clip060)" d="M2168.67 265.811 Q2167.96 265.395 2167.1 265.21 Q2166.27 265.001 2165.25 265.001 Q2161.64 265.001 2159.69 267.362 Q2157.77 269.7 2157.77 274.098 L2157.77 287.756 L2153.49 287.756 L2153.49 261.83 L2157.77 261.83 L2157.77 265.858 Q2159.11 263.497 2161.27 262.362 Q2163.42 261.205 2166.5 261.205 Q2166.94 261.205 2167.47 261.274 Q2168 261.321 2168.65 261.436 L2168.67 265.811 Z" fill="#000000" fill-rule="evenodd" fill-opacity="1" /><path clip-path="url(#clip060)" d="M2183.93 290.163 Q2182.12 294.793 2180.41 296.205 Q2178.7 297.617 2175.83 297.617 L2172.42 297.617 L2172.42 294.052 L2174.92 294.052 Q2176.68 294.052 2177.66 293.219 Q2178.63 292.385 2179.81 289.283 L2180.57 287.339 L2170.09 261.83 L2174.6 261.83 L2182.7 282.108 L2190.8 261.83 L2195.32 261.83 L2183.93 290.163 Z" fill="#000000" fill-rule="evenodd" fill-opacity="1" /><path clip-path="url(#clip060)" d="M2220.9 283.821 L2237.22 283.821 L2237.22 287.756 L2215.27 287.756 L2215.27 283.821 Q2217.93 281.066 2222.52 276.436 Q2227.12 271.784 2228.3 270.441 Q2230.55 267.918 2231.43 266.182 Q2232.33 264.423 2232.33 262.733 Q2232.33 259.978 2230.39 258.242 Q2228.47 256.506 2225.36 256.506 Q2223.17 256.506 2220.71 257.27 Q2218.28 258.034 2215.5 259.585 L2215.5 254.862 Q2218.33 253.728 2220.78 253.149 Q2223.23 252.571 2225.27 252.571 Q2230.64 252.571 2233.84 255.256 Q2237.03 257.941 2237.03 262.432 Q2237.03 264.561 2236.22 266.483 Q2235.43 268.381 2233.33 270.973 Q2232.75 271.645 2229.65 274.862 Q2226.54 278.057 2220.9 283.821 Z" fill="#000000" fill-rule="evenodd" fill-opacity="1" /></svg>
