<?xml version="1.0" encoding="utf-8"?>
<svg xmlns="http://www.w3.org/2000/svg" xmlns:xlink="http://www.w3.org/1999/xlink" width="600" height="400" viewBox="0 0 2400 1600">
<defs>
  <clipPath id="clip550">
    <rect x="0" y="0" width="2400" height="1600"/>
  </clipPath>
</defs>
<path clip-path="url(#clip550)" d="
M0 1600 L2400 1600 L2400 0 L0 0  Z
  " fill="#ffffff" fill-rule="evenodd" fill-opacity="1"/>
<defs>
  <clipPath id="clip551">
    <rect x="480" y="0" width="1681" height="1600"/>
  </clipPath>
</defs>
<path clip-path="url(#clip550)" d="
M250.028 1423.18 L2352.76 1423.18 L2352.76 123.472 L250.028 123.472  Z
  " fill="#ffffff" fill-rule="evenodd" fill-opacity="1"/>
<defs>
  <clipPath id="clip552">
    <rect x="250" y="123" width="2104" height="1301"/>
  </clipPath>
</defs>
<polyline clip-path="url(#clip552)" style="stroke:#000000; stroke-linecap:butt; stroke-linejoin:round; stroke-width:2; stroke-opacity:0.1; fill:none" points="
  250.028,1423.18 250.028,123.472 
  "/>
<polyline clip-path="url(#clip552)" style="stroke:#000000; stroke-linecap:butt; stroke-linejoin:round; stroke-width:2; stroke-opacity:0.1; fill:none" points="
  632.342,1423.18 632.342,123.472 
  "/>
<polyline clip-path="url(#clip552)" style="stroke:#000000; stroke-linecap:butt; stroke-linejoin:round; stroke-width:2; stroke-opacity:0.1; fill:none" points="
  1014.66,1423.18 1014.66,123.472 
  "/>
<polyline clip-path="url(#clip552)" style="stroke:#000000; stroke-linecap:butt; stroke-linejoin:round; stroke-width:2; stroke-opacity:0.1; fill:none" points="
  1396.97,1423.18 1396.97,123.472 
  "/>
<polyline clip-path="url(#clip552)" style="stroke:#000000; stroke-linecap:butt; stroke-linejoin:round; stroke-width:2; stroke-opacity:0.1; fill:none" points="
  1779.28,1423.18 1779.28,123.472 
  "/>
<polyline clip-path="url(#clip552)" style="stroke:#000000; stroke-linecap:butt; stroke-linejoin:round; stroke-width:2; stroke-opacity:0.1; fill:none" points="
  2161.6,1423.18 2161.6,123.472 
  "/>
<polyline clip-path="url(#clip550)" style="stroke:#000000; stroke-linecap:butt; stroke-linejoin:round; stroke-width:4; stroke-opacity:1; fill:none" points="
  250.028,1423.18 2352.76,1423.18 
  "/>
<polyline clip-path="url(#clip550)" style="stroke:#000000; stroke-linecap:butt; stroke-linejoin:round; stroke-width:4; stroke-opacity:1; fill:none" points="
  250.028,1423.18 250.028,1404.28 
  "/>
<polyline clip-path="url(#clip550)" style="stroke:#000000; stroke-linecap:butt; stroke-linejoin:round; stroke-width:4; stroke-opacity:1; fill:none" points="
  632.342,1423.18 632.342,1404.28 
  "/>
<polyline clip-path="url(#clip550)" style="stroke:#000000; stroke-linecap:butt; stroke-linejoin:round; stroke-width:4; stroke-opacity:1; fill:none" points="
  1014.66,1423.18 1014.66,1404.28 
  "/>
<polyline clip-path="url(#clip550)" style="stroke:#000000; stroke-linecap:butt; stroke-linejoin:round; stroke-width:4; stroke-opacity:1; fill:none" points="
  1396.97,1423.18 1396.97,1404.28 
  "/>
<polyline clip-path="url(#clip550)" style="stroke:#000000; stroke-linecap:butt; stroke-linejoin:round; stroke-width:4; stroke-opacity:1; fill:none" points="
  1779.28,1423.18 1779.28,1404.28 
  "/>
<polyline clip-path="url(#clip550)" style="stroke:#000000; stroke-linecap:butt; stroke-linejoin:round; stroke-width:4; stroke-opacity:1; fill:none" points="
  2161.6,1423.18 2161.6,1404.28 
  "/>
<path clip-path="url(#clip550)" d="M250.028 1452.37 Q246.417 1452.37 244.588 1455.94 Q242.783 1459.48 242.783 1466.61 Q242.783 1473.71 244.588 1477.28 Q246.417 1480.82 250.028 1480.82 Q253.662 1480.82 255.468 1477.28 Q257.297 1473.71 257.297 1466.61 Q257.297 1459.48 255.468 1455.94 Q253.662 1452.37 250.028 1452.37 M250.028 1448.67 Q255.838 1448.67 258.894 1453.27 Q261.973 1457.86 261.973 1466.61 Q261.973 1475.33 258.894 1479.94 Q255.838 1484.52 250.028 1484.52 Q244.218 1484.52 241.139 1479.94 Q238.084 1475.33 238.084 1466.61 Q238.084 1457.86 241.139 1453.27 Q244.218 1448.67 250.028 1448.67 Z" fill="#000000" fill-rule="evenodd" fill-opacity="1" /><path clip-path="url(#clip550)" d="M591.949 1479.92 L599.588 1479.92 L599.588 1453.55 L591.278 1455.22 L591.278 1450.96 L599.542 1449.29 L604.217 1449.29 L604.217 1479.92 L611.856 1479.92 L611.856 1483.85 L591.949 1483.85 L591.949 1479.92 Z" fill="#000000" fill-rule="evenodd" fill-opacity="1" /><path clip-path="url(#clip550)" d="M631.301 1452.37 Q627.69 1452.37 625.861 1455.94 Q624.055 1459.48 624.055 1466.61 Q624.055 1473.71 625.861 1477.28 Q627.69 1480.82 631.301 1480.82 Q634.935 1480.82 636.74 1477.28 Q638.569 1473.71 638.569 1466.61 Q638.569 1459.48 636.74 1455.94 Q634.935 1452.37 631.301 1452.37 M631.301 1448.67 Q637.111 1448.67 640.166 1453.27 Q643.245 1457.86 643.245 1466.61 Q643.245 1475.33 640.166 1479.94 Q637.111 1484.52 631.301 1484.52 Q625.49 1484.52 622.412 1479.94 Q619.356 1475.33 619.356 1466.61 Q619.356 1457.86 622.412 1453.27 Q625.49 1448.67 631.301 1448.67 Z" fill="#000000" fill-rule="evenodd" fill-opacity="1" /><path clip-path="url(#clip550)" d="M661.462 1452.37 Q657.851 1452.37 656.023 1455.94 Q654.217 1459.48 654.217 1466.61 Q654.217 1473.71 656.023 1477.28 Q657.851 1480.82 661.462 1480.82 Q665.097 1480.82 666.902 1477.28 Q668.731 1473.71 668.731 1466.61 Q668.731 1459.48 666.902 1455.94 Q665.097 1452.37 661.462 1452.37 M661.462 1448.67 Q667.273 1448.67 670.328 1453.27 Q673.407 1457.86 673.407 1466.61 Q673.407 1475.33 670.328 1479.94 Q667.273 1484.52 661.462 1484.52 Q655.652 1484.52 652.574 1479.94 Q649.518 1475.33 649.518 1466.61 Q649.518 1457.86 652.574 1453.27 Q655.652 1448.67 661.462 1448.67 Z" fill="#000000" fill-rule="evenodd" fill-opacity="1" /><path clip-path="url(#clip550)" d="M978.349 1479.92 L994.668 1479.92 L994.668 1483.85 L972.724 1483.85 L972.724 1479.92 Q975.386 1477.16 979.969 1472.53 Q984.576 1467.88 985.756 1466.54 Q988.001 1464.01 988.881 1462.28 Q989.784 1460.52 989.784 1458.83 Q989.784 1456.07 987.839 1454.34 Q985.918 1452.6 982.816 1452.6 Q980.617 1452.6 978.164 1453.37 Q975.733 1454.13 972.955 1455.68 L972.955 1450.96 Q975.779 1449.82 978.233 1449.25 Q980.687 1448.67 982.724 1448.67 Q988.094 1448.67 991.288 1451.35 Q994.483 1454.04 994.483 1458.53 Q994.483 1460.66 993.673 1462.58 Q992.886 1464.48 990.779 1467.07 Q990.201 1467.74 987.099 1470.96 Q983.997 1474.15 978.349 1479.92 Z" fill="#000000" fill-rule="evenodd" fill-opacity="1" /><path clip-path="url(#clip550)" d="M1014.48 1452.37 Q1010.87 1452.37 1009.04 1455.94 Q1007.24 1459.48 1007.24 1466.61 Q1007.24 1473.71 1009.04 1477.28 Q1010.87 1480.82 1014.48 1480.82 Q1018.12 1480.82 1019.92 1477.28 Q1021.75 1473.71 1021.75 1466.61 Q1021.75 1459.48 1019.92 1455.94 Q1018.12 1452.37 1014.48 1452.37 M1014.48 1448.67 Q1020.29 1448.67 1023.35 1453.27 Q1026.43 1457.86 1026.43 1466.61 Q1026.43 1475.33 1023.35 1479.94 Q1020.29 1484.52 1014.48 1484.52 Q1008.67 1484.52 1005.59 1479.94 Q1002.54 1475.33 1002.54 1466.61 Q1002.54 1457.86 1005.59 1453.27 Q1008.67 1448.67 1014.48 1448.67 Z" fill="#000000" fill-rule="evenodd" fill-opacity="1" /><path clip-path="url(#clip550)" d="M1044.64 1452.37 Q1041.03 1452.37 1039.2 1455.94 Q1037.4 1459.48 1037.4 1466.61 Q1037.4 1473.71 1039.2 1477.28 Q1041.03 1480.82 1044.64 1480.82 Q1048.28 1480.82 1050.08 1477.28 Q1051.91 1473.71 1051.91 1466.61 Q1051.91 1459.48 1050.08 1455.94 Q1048.28 1452.37 1044.64 1452.37 M1044.64 1448.67 Q1050.45 1448.67 1053.51 1453.27 Q1056.59 1457.86 1056.59 1466.61 Q1056.59 1475.33 1053.51 1479.94 Q1050.45 1484.52 1044.64 1484.52 Q1038.83 1484.52 1035.76 1479.94 Q1032.7 1475.33 1032.7 1466.61 Q1032.7 1457.86 1035.76 1453.27 Q1038.83 1448.67 1044.64 1448.67 Z" fill="#000000" fill-rule="evenodd" fill-opacity="1" /><path clip-path="url(#clip550)" d="M1370.73 1465.22 Q1374.09 1465.94 1375.96 1468.2 Q1377.86 1470.47 1377.86 1473.81 Q1377.86 1478.92 1374.34 1481.72 Q1370.82 1484.52 1364.34 1484.52 Q1362.17 1484.52 1359.85 1484.08 Q1357.56 1483.67 1355.11 1482.81 L1355.11 1478.3 Q1357.05 1479.43 1359.37 1480.01 Q1361.68 1480.59 1364.2 1480.59 Q1368.6 1480.59 1370.89 1478.85 Q1373.21 1477.12 1373.21 1473.81 Q1373.21 1470.75 1371.06 1469.04 Q1368.93 1467.3 1365.11 1467.3 L1361.08 1467.3 L1361.08 1463.46 L1365.29 1463.46 Q1368.74 1463.46 1370.57 1462.09 Q1372.4 1460.7 1372.4 1458.11 Q1372.4 1455.45 1370.5 1454.04 Q1368.63 1452.6 1365.11 1452.6 Q1363.19 1452.6 1360.99 1453.02 Q1358.79 1453.44 1356.15 1454.31 L1356.15 1450.15 Q1358.81 1449.41 1361.13 1449.04 Q1363.46 1448.67 1365.52 1448.67 Q1370.85 1448.67 1373.95 1451.1 Q1377.05 1453.5 1377.05 1457.63 Q1377.05 1460.5 1375.41 1462.49 Q1373.76 1464.45 1370.73 1465.22 Z" fill="#000000" fill-rule="evenodd" fill-opacity="1" /><path clip-path="url(#clip550)" d="M1396.73 1452.37 Q1393.12 1452.37 1391.29 1455.94 Q1389.48 1459.48 1389.48 1466.61 Q1389.48 1473.71 1391.29 1477.28 Q1393.12 1480.82 1396.73 1480.82 Q1400.36 1480.82 1402.17 1477.28 Q1404 1473.71 1404 1466.61 Q1404 1459.48 1402.17 1455.94 Q1400.36 1452.37 1396.73 1452.37 M1396.73 1448.67 Q1402.54 1448.67 1405.59 1453.27 Q1408.67 1457.86 1408.67 1466.61 Q1408.67 1475.33 1405.59 1479.94 Q1402.54 1484.52 1396.73 1484.52 Q1390.92 1484.52 1387.84 1479.94 Q1384.78 1475.33 1384.78 1466.61 Q1384.78 1457.86 1387.84 1453.27 Q1390.92 1448.67 1396.73 1448.67 Z" fill="#000000" fill-rule="evenodd" fill-opacity="1" /><path clip-path="url(#clip550)" d="M1426.89 1452.37 Q1423.28 1452.37 1421.45 1455.94 Q1419.64 1459.48 1419.64 1466.61 Q1419.64 1473.71 1421.45 1477.28 Q1423.28 1480.82 1426.89 1480.82 Q1430.52 1480.82 1432.33 1477.28 Q1434.16 1473.71 1434.16 1466.61 Q1434.16 1459.48 1432.33 1455.94 Q1430.52 1452.37 1426.89 1452.37 M1426.89 1448.67 Q1432.7 1448.67 1435.76 1453.27 Q1438.83 1457.86 1438.83 1466.61 Q1438.83 1475.33 1435.76 1479.94 Q1432.7 1484.52 1426.89 1484.52 Q1421.08 1484.52 1418 1479.94 Q1414.94 1475.33 1414.94 1466.61 Q1414.94 1457.86 1418 1453.27 Q1421.08 1448.67 1426.89 1448.67 Z" fill="#000000" fill-rule="evenodd" fill-opacity="1" /><path clip-path="url(#clip550)" d="M1752.38 1453.37 L1740.57 1471.81 L1752.38 1471.81 L1752.38 1453.37 M1751.15 1449.29 L1757.03 1449.29 L1757.03 1471.81 L1761.96 1471.81 L1761.96 1475.7 L1757.03 1475.7 L1757.03 1483.85 L1752.38 1483.85 L1752.38 1475.7 L1736.77 1475.7 L1736.77 1471.19 L1751.15 1449.29 Z" fill="#000000" fill-rule="evenodd" fill-opacity="1" /><path clip-path="url(#clip550)" d="M1779.69 1452.37 Q1776.08 1452.37 1774.25 1455.94 Q1772.44 1459.48 1772.44 1466.61 Q1772.44 1473.71 1774.25 1477.28 Q1776.08 1480.82 1779.69 1480.82 Q1783.32 1480.82 1785.13 1477.28 Q1786.96 1473.71 1786.96 1466.61 Q1786.96 1459.48 1785.13 1455.94 Q1783.32 1452.37 1779.69 1452.37 M1779.69 1448.67 Q1785.5 1448.67 1788.56 1453.27 Q1791.63 1457.86 1791.63 1466.61 Q1791.63 1475.33 1788.56 1479.94 Q1785.5 1484.52 1779.69 1484.52 Q1773.88 1484.52 1770.8 1479.94 Q1767.75 1475.33 1767.75 1466.61 Q1767.75 1457.86 1770.8 1453.27 Q1773.88 1448.67 1779.69 1448.67 Z" fill="#000000" fill-rule="evenodd" fill-opacity="1" /><path clip-path="url(#clip550)" d="M1809.85 1452.37 Q1806.24 1452.37 1804.41 1455.94 Q1802.61 1459.48 1802.61 1466.61 Q1802.61 1473.71 1804.41 1477.28 Q1806.24 1480.82 1809.85 1480.82 Q1813.49 1480.82 1815.29 1477.28 Q1817.12 1473.71 1817.12 1466.61 Q1817.12 1459.48 1815.29 1455.94 Q1813.49 1452.37 1809.85 1452.37 M1809.85 1448.67 Q1815.66 1448.67 1818.72 1453.27 Q1821.8 1457.86 1821.8 1466.61 Q1821.8 1475.33 1818.72 1479.94 Q1815.66 1484.52 1809.85 1484.52 Q1804.04 1484.52 1800.96 1479.94 Q1797.91 1475.33 1797.91 1466.61 Q1797.91 1457.86 1800.96 1453.27 Q1804.04 1448.67 1809.85 1448.67 Z" fill="#000000" fill-rule="evenodd" fill-opacity="1" /><path clip-path="url(#clip550)" d="M2121.22 1449.29 L2139.57 1449.29 L2139.57 1453.23 L2125.5 1453.23 L2125.5 1461.7 Q2126.52 1461.35 2127.54 1461.19 Q2128.56 1461 2129.57 1461 Q2135.36 1461 2138.74 1464.18 Q2142.12 1467.35 2142.12 1472.76 Q2142.12 1478.34 2138.65 1481.44 Q2135.18 1484.52 2128.86 1484.52 Q2126.68 1484.52 2124.41 1484.15 Q2122.17 1483.78 2119.76 1483.04 L2119.76 1478.34 Q2121.84 1479.48 2124.06 1480.03 Q2126.29 1480.59 2128.76 1480.59 Q2132.77 1480.59 2135.11 1478.48 Q2137.44 1476.38 2137.44 1472.76 Q2137.44 1469.15 2135.11 1467.05 Q2132.77 1464.94 2128.76 1464.94 Q2126.89 1464.94 2125.01 1465.36 Q2123.16 1465.77 2121.22 1466.65 L2121.22 1449.29 Z" fill="#000000" fill-rule="evenodd" fill-opacity="1" /><path clip-path="url(#clip550)" d="M2161.33 1452.37 Q2157.72 1452.37 2155.89 1455.94 Q2154.09 1459.48 2154.09 1466.61 Q2154.09 1473.71 2155.89 1477.28 Q2157.72 1480.82 2161.33 1480.82 Q2164.97 1480.82 2166.77 1477.28 Q2168.6 1473.71 2168.6 1466.61 Q2168.6 1459.48 2166.77 1455.94 Q2164.97 1452.37 2161.33 1452.37 M2161.33 1448.67 Q2167.14 1448.67 2170.2 1453.27 Q2173.28 1457.86 2173.28 1466.61 Q2173.28 1475.33 2170.2 1479.94 Q2167.14 1484.52 2161.33 1484.52 Q2155.52 1484.52 2152.44 1479.94 Q2149.39 1475.33 2149.39 1466.61 Q2149.39 1457.86 2152.44 1453.27 Q2155.52 1448.67 2161.33 1448.67 Z" fill="#000000" fill-rule="evenodd" fill-opacity="1" /><path clip-path="url(#clip550)" d="M2191.49 1452.37 Q2187.88 1452.37 2186.05 1455.94 Q2184.25 1459.48 2184.25 1466.61 Q2184.25 1473.71 2186.05 1477.28 Q2187.88 1480.82 2191.49 1480.82 Q2195.13 1480.82 2196.93 1477.28 Q2198.76 1473.71 2198.76 1466.61 Q2198.76 1459.48 2196.93 1455.94 Q2195.13 1452.37 2191.49 1452.37 M2191.49 1448.67 Q2197.3 1448.67 2200.36 1453.27 Q2203.44 1457.86 2203.44 1466.61 Q2203.44 1475.33 2200.36 1479.94 Q2197.3 1484.52 2191.49 1484.52 Q2185.68 1484.52 2182.61 1479.94 Q2179.55 1475.33 2179.55 1466.61 Q2179.55 1457.86 2182.61 1453.27 Q2185.68 1448.67 2191.49 1448.67 Z" fill="#000000" fill-rule="evenodd" fill-opacity="1" /><path clip-path="url(#clip550)" d="M1300.45 1522.27 L1300.45 1532.4 L1312.52 1532.4 L1312.52 1536.95 L1300.45 1536.95 L1300.45 1556.3 Q1300.45 1560.66 1301.63 1561.9 Q1302.84 1563.14 1306.5 1563.14 L1312.52 1563.14 L1312.52 1568.04 L1306.5 1568.04 Q1299.72 1568.04 1297.14 1565.53 Q1294.56 1562.98 1294.56 1556.3 L1294.56 1536.95 L1290.27 1536.95 L1290.27 1532.4 L1294.56 1532.4 L1294.56 1522.27 L1300.45 1522.27 Z" fill="#000000" fill-rule="evenodd" fill-opacity="1" /><polyline clip-path="url(#clip552)" style="stroke:#000000; stroke-linecap:butt; stroke-linejoin:round; stroke-width:2; stroke-opacity:0.1; fill:none" points="
  250.028,1387.37 2352.76,1387.37 
  "/>
<polyline clip-path="url(#clip552)" style="stroke:#000000; stroke-linecap:butt; stroke-linejoin:round; stroke-width:2; stroke-opacity:0.1; fill:none" points="
  250.028,1089.24 2352.76,1089.24 
  "/>
<polyline clip-path="url(#clip552)" style="stroke:#000000; stroke-linecap:butt; stroke-linejoin:round; stroke-width:2; stroke-opacity:0.1; fill:none" points="
  250.028,791.118 2352.76,791.118 
  "/>
<polyline clip-path="url(#clip552)" style="stroke:#000000; stroke-linecap:butt; stroke-linejoin:round; stroke-width:2; stroke-opacity:0.1; fill:none" points="
  250.028,492.992 2352.76,492.992 
  "/>
<polyline clip-path="url(#clip552)" style="stroke:#000000; stroke-linecap:butt; stroke-linejoin:round; stroke-width:2; stroke-opacity:0.1; fill:none" points="
  250.028,194.866 2352.76,194.866 
  "/>
<polyline clip-path="url(#clip550)" style="stroke:#000000; stroke-linecap:butt; stroke-linejoin:round; stroke-width:4; stroke-opacity:1; fill:none" points="
  250.028,1423.18 250.028,123.472 
  "/>
<polyline clip-path="url(#clip550)" style="stroke:#000000; stroke-linecap:butt; stroke-linejoin:round; stroke-width:4; stroke-opacity:1; fill:none" points="
  250.028,1387.37 268.926,1387.37 
  "/>
<polyline clip-path="url(#clip550)" style="stroke:#000000; stroke-linecap:butt; stroke-linejoin:round; stroke-width:4; stroke-opacity:1; fill:none" points="
  250.028,1089.24 268.926,1089.24 
  "/>
<polyline clip-path="url(#clip550)" style="stroke:#000000; stroke-linecap:butt; stroke-linejoin:round; stroke-width:4; stroke-opacity:1; fill:none" points="
  250.028,791.118 268.926,791.118 
  "/>
<polyline clip-path="url(#clip550)" style="stroke:#000000; stroke-linecap:butt; stroke-linejoin:round; stroke-width:4; stroke-opacity:1; fill:none" points="
  250.028,492.992 268.926,492.992 
  "/>
<polyline clip-path="url(#clip550)" style="stroke:#000000; stroke-linecap:butt; stroke-linejoin:round; stroke-width:4; stroke-opacity:1; fill:none" points="
  250.028,194.866 268.926,194.866 
  "/>
<path clip-path="url(#clip550)" d="M126.691 1373.17 Q123.08 1373.17 121.251 1376.73 Q119.445 1380.28 119.445 1387.41 Q119.445 1394.51 121.251 1398.08 Q123.08 1401.62 126.691 1401.62 Q130.325 1401.62 132.13 1398.08 Q133.959 1394.51 133.959 1387.41 Q133.959 1380.28 132.13 1376.73 Q130.325 1373.17 126.691 1373.17 M126.691 1369.47 Q132.501 1369.47 135.556 1374.07 Q138.635 1378.66 138.635 1387.41 Q138.635 1396.13 135.556 1400.74 Q132.501 1405.32 126.691 1405.32 Q120.88 1405.32 117.802 1400.74 Q114.746 1396.13 114.746 1387.41 Q114.746 1378.66 117.802 1374.07 Q120.88 1369.47 126.691 1369.47 Z" fill="#000000" fill-rule="evenodd" fill-opacity="1" /><path clip-path="url(#clip550)" d="M146.853 1398.77 L151.737 1398.77 L151.737 1404.65 L146.853 1404.65 L146.853 1398.77 Z" fill="#000000" fill-rule="evenodd" fill-opacity="1" /><path clip-path="url(#clip550)" d="M171.922 1373.17 Q168.311 1373.17 166.482 1376.73 Q164.677 1380.28 164.677 1387.41 Q164.677 1394.51 166.482 1398.08 Q168.311 1401.62 171.922 1401.62 Q175.556 1401.62 177.362 1398.08 Q179.19 1394.51 179.19 1387.41 Q179.19 1380.28 177.362 1376.73 Q175.556 1373.17 171.922 1373.17 M171.922 1369.47 Q177.732 1369.47 180.788 1374.07 Q183.866 1378.66 183.866 1387.41 Q183.866 1396.13 180.788 1400.74 Q177.732 1405.32 171.922 1405.32 Q166.112 1405.32 163.033 1400.74 Q159.978 1396.13 159.978 1387.41 Q159.978 1378.66 163.033 1374.07 Q166.112 1369.47 171.922 1369.47 Z" fill="#000000" fill-rule="evenodd" fill-opacity="1" /><path clip-path="url(#clip550)" d="M202.084 1373.17 Q198.473 1373.17 196.644 1376.73 Q194.838 1380.28 194.838 1387.41 Q194.838 1394.51 196.644 1398.08 Q198.473 1401.62 202.084 1401.62 Q205.718 1401.62 207.524 1398.08 Q209.352 1394.51 209.352 1387.41 Q209.352 1380.28 207.524 1376.73 Q205.718 1373.17 202.084 1373.17 M202.084 1369.47 Q207.894 1369.47 210.949 1374.07 Q214.028 1378.66 214.028 1387.41 Q214.028 1396.13 210.949 1400.74 Q207.894 1405.32 202.084 1405.32 Q196.274 1405.32 193.195 1400.74 Q190.139 1396.13 190.139 1387.41 Q190.139 1378.66 193.195 1374.07 Q196.274 1369.47 202.084 1369.47 Z" fill="#000000" fill-rule="evenodd" fill-opacity="1" /><path clip-path="url(#clip550)" d="M128.288 1075.04 Q124.677 1075.04 122.848 1078.61 Q121.043 1082.15 121.043 1089.28 Q121.043 1096.39 122.848 1099.95 Q124.677 1103.49 128.288 1103.49 Q131.922 1103.49 133.728 1099.95 Q135.556 1096.39 135.556 1089.28 Q135.556 1082.15 133.728 1078.61 Q131.922 1075.04 128.288 1075.04 M128.288 1071.34 Q134.098 1071.34 137.154 1075.95 Q140.232 1080.53 140.232 1089.28 Q140.232 1098.01 137.154 1102.61 Q134.098 1107.2 128.288 1107.2 Q122.478 1107.2 119.399 1102.61 Q116.343 1098.01 116.343 1089.28 Q116.343 1080.53 119.399 1075.95 Q122.478 1071.34 128.288 1071.34 Z" fill="#000000" fill-rule="evenodd" fill-opacity="1" /><path clip-path="url(#clip550)" d="M148.45 1100.64 L153.334 1100.64 L153.334 1106.52 L148.45 1106.52 L148.45 1100.64 Z" fill="#000000" fill-rule="evenodd" fill-opacity="1" /><path clip-path="url(#clip550)" d="M173.519 1075.04 Q169.908 1075.04 168.079 1078.61 Q166.274 1082.15 166.274 1089.28 Q166.274 1096.39 168.079 1099.95 Q169.908 1103.49 173.519 1103.49 Q177.153 1103.49 178.959 1099.95 Q180.788 1096.39 180.788 1089.28 Q180.788 1082.15 178.959 1078.61 Q177.153 1075.04 173.519 1075.04 M173.519 1071.34 Q179.329 1071.34 182.385 1075.95 Q185.463 1080.53 185.463 1089.28 Q185.463 1098.01 182.385 1102.61 Q179.329 1107.2 173.519 1107.2 Q167.709 1107.2 164.63 1102.61 Q161.575 1098.01 161.575 1089.28 Q161.575 1080.53 164.63 1075.95 Q167.709 1071.34 173.519 1071.34 Z" fill="#000000" fill-rule="evenodd" fill-opacity="1" /><path clip-path="url(#clip550)" d="M197.709 1102.59 L214.028 1102.59 L214.028 1106.52 L192.084 1106.52 L192.084 1102.59 Q194.746 1099.83 199.329 1095.2 Q203.936 1090.55 205.116 1089.21 Q207.362 1086.69 208.241 1084.95 Q209.144 1083.19 209.144 1081.5 Q209.144 1078.75 207.199 1077.01 Q205.278 1075.27 202.176 1075.27 Q199.977 1075.27 197.524 1076.04 Q195.093 1076.8 192.315 1078.35 L192.315 1073.63 Q195.139 1072.5 197.593 1071.92 Q200.047 1071.34 202.084 1071.34 Q207.454 1071.34 210.649 1074.02 Q213.843 1076.71 213.843 1081.2 Q213.843 1083.33 213.033 1085.25 Q212.246 1087.15 210.139 1089.74 Q209.561 1090.41 206.459 1093.63 Q203.357 1096.83 197.709 1102.59 Z" fill="#000000" fill-rule="evenodd" fill-opacity="1" /><path clip-path="url(#clip550)" d="M126.205 776.917 Q122.593 776.917 120.765 780.482 Q118.959 784.023 118.959 791.153 Q118.959 798.259 120.765 801.824 Q122.593 805.366 126.205 805.366 Q129.839 805.366 131.644 801.824 Q133.473 798.259 133.473 791.153 Q133.473 784.023 131.644 780.482 Q129.839 776.917 126.205 776.917 M126.205 773.213 Q132.015 773.213 135.07 777.82 Q138.149 782.403 138.149 791.153 Q138.149 799.88 135.07 804.486 Q132.015 809.069 126.205 809.069 Q120.394 809.069 117.316 804.486 Q114.26 799.88 114.26 791.153 Q114.26 782.403 117.316 777.82 Q120.394 773.213 126.205 773.213 Z" fill="#000000" fill-rule="evenodd" fill-opacity="1" /><path clip-path="url(#clip550)" d="M146.366 802.519 L151.251 802.519 L151.251 808.398 L146.366 808.398 L146.366 802.519 Z" fill="#000000" fill-rule="evenodd" fill-opacity="1" /><path clip-path="url(#clip550)" d="M171.436 776.917 Q167.825 776.917 165.996 780.482 Q164.19 784.023 164.19 791.153 Q164.19 798.259 165.996 801.824 Q167.825 805.366 171.436 805.366 Q175.07 805.366 176.876 801.824 Q178.704 798.259 178.704 791.153 Q178.704 784.023 176.876 780.482 Q175.07 776.917 171.436 776.917 M171.436 773.213 Q177.246 773.213 180.301 777.82 Q183.38 782.403 183.38 791.153 Q183.38 799.88 180.301 804.486 Q177.246 809.069 171.436 809.069 Q165.626 809.069 162.547 804.486 Q159.491 799.88 159.491 791.153 Q159.491 782.403 162.547 777.82 Q165.626 773.213 171.436 773.213 Z" fill="#000000" fill-rule="evenodd" fill-opacity="1" /><path clip-path="url(#clip550)" d="M204.445 777.912 L192.639 796.361 L204.445 796.361 L204.445 777.912 M203.218 773.838 L209.098 773.838 L209.098 796.361 L214.028 796.361 L214.028 800.25 L209.098 800.25 L209.098 808.398 L204.445 808.398 L204.445 800.25 L188.843 800.25 L188.843 795.736 L203.218 773.838 Z" fill="#000000" fill-rule="evenodd" fill-opacity="1" /><path clip-path="url(#clip550)" d="M126.529 478.791 Q122.918 478.791 121.089 482.355 Q119.283 485.897 119.283 493.027 Q119.283 500.133 121.089 503.698 Q122.918 507.24 126.529 507.24 Q130.163 507.24 131.968 503.698 Q133.797 500.133 133.797 493.027 Q133.797 485.897 131.968 482.355 Q130.163 478.791 126.529 478.791 M126.529 475.087 Q132.339 475.087 135.394 479.693 Q138.473 484.277 138.473 493.027 Q138.473 501.753 135.394 506.36 Q132.339 510.943 126.529 510.943 Q120.718 510.943 117.64 506.36 Q114.584 501.753 114.584 493.027 Q114.584 484.277 117.64 479.693 Q120.718 475.087 126.529 475.087 Z" fill="#000000" fill-rule="evenodd" fill-opacity="1" /><path clip-path="url(#clip550)" d="M146.691 504.392 L151.575 504.392 L151.575 510.272 L146.691 510.272 L146.691 504.392 Z" fill="#000000" fill-rule="evenodd" fill-opacity="1" /><path clip-path="url(#clip550)" d="M171.76 478.791 Q168.149 478.791 166.32 482.355 Q164.515 485.897 164.515 493.027 Q164.515 500.133 166.32 503.698 Q168.149 507.24 171.76 507.24 Q175.394 507.24 177.2 503.698 Q179.028 500.133 179.028 493.027 Q179.028 485.897 177.2 482.355 Q175.394 478.791 171.76 478.791 M171.76 475.087 Q177.57 475.087 180.626 479.693 Q183.704 484.277 183.704 493.027 Q183.704 501.753 180.626 506.36 Q177.57 510.943 171.76 510.943 Q165.95 510.943 162.871 506.36 Q159.815 501.753 159.815 493.027 Q159.815 484.277 162.871 479.693 Q165.95 475.087 171.76 475.087 Z" fill="#000000" fill-rule="evenodd" fill-opacity="1" /><path clip-path="url(#clip550)" d="M202.5 491.129 Q199.352 491.129 197.5 493.281 Q195.672 495.434 195.672 499.184 Q195.672 502.911 197.5 505.087 Q199.352 507.24 202.5 507.24 Q205.649 507.24 207.477 505.087 Q209.329 502.911 209.329 499.184 Q209.329 495.434 207.477 493.281 Q205.649 491.129 202.5 491.129 M211.783 476.476 L211.783 480.735 Q210.024 479.902 208.218 479.462 Q206.436 479.022 204.676 479.022 Q200.047 479.022 197.593 482.147 Q195.163 485.272 194.815 491.591 Q196.181 489.578 198.241 488.513 Q200.301 487.425 202.778 487.425 Q207.987 487.425 210.996 490.596 Q214.028 493.744 214.028 499.184 Q214.028 504.508 210.88 507.726 Q207.732 510.943 202.5 510.943 Q196.505 510.943 193.334 506.36 Q190.163 501.753 190.163 493.027 Q190.163 484.832 194.051 479.971 Q197.94 475.087 204.491 475.087 Q206.25 475.087 208.033 475.434 Q209.838 475.781 211.783 476.476 Z" fill="#000000" fill-rule="evenodd" fill-opacity="1" /><path clip-path="url(#clip550)" d="M126.783 180.664 Q123.172 180.664 121.343 184.229 Q119.538 187.771 119.538 194.9 Q119.538 202.007 121.343 205.572 Q123.172 209.113 126.783 209.113 Q130.417 209.113 132.223 205.572 Q134.052 202.007 134.052 194.9 Q134.052 187.771 132.223 184.229 Q130.417 180.664 126.783 180.664 M126.783 176.961 Q132.593 176.961 135.649 181.567 Q138.728 186.151 138.728 194.9 Q138.728 203.627 135.649 208.234 Q132.593 212.817 126.783 212.817 Q120.973 212.817 117.894 208.234 Q114.839 203.627 114.839 194.9 Q114.839 186.151 117.894 181.567 Q120.973 176.961 126.783 176.961 Z" fill="#000000" fill-rule="evenodd" fill-opacity="1" /><path clip-path="url(#clip550)" d="M146.945 206.266 L151.829 206.266 L151.829 212.146 L146.945 212.146 L146.945 206.266 Z" fill="#000000" fill-rule="evenodd" fill-opacity="1" /><path clip-path="url(#clip550)" d="M172.014 180.664 Q168.403 180.664 166.575 184.229 Q164.769 187.771 164.769 194.9 Q164.769 202.007 166.575 205.572 Q168.403 209.113 172.014 209.113 Q175.649 209.113 177.454 205.572 Q179.283 202.007 179.283 194.9 Q179.283 187.771 177.454 184.229 Q175.649 180.664 172.014 180.664 M172.014 176.961 Q177.825 176.961 180.88 181.567 Q183.959 186.151 183.959 194.9 Q183.959 203.627 180.88 208.234 Q177.825 212.817 172.014 212.817 Q166.204 212.817 163.126 208.234 Q160.07 203.627 160.07 194.9 Q160.07 186.151 163.126 181.567 Q166.204 176.961 172.014 176.961 Z" fill="#000000" fill-rule="evenodd" fill-opacity="1" /><path clip-path="url(#clip550)" d="M202.176 195.734 Q198.843 195.734 196.922 197.516 Q195.024 199.299 195.024 202.424 Q195.024 205.549 196.922 207.331 Q198.843 209.113 202.176 209.113 Q205.51 209.113 207.431 207.331 Q209.352 205.525 209.352 202.424 Q209.352 199.299 207.431 197.516 Q205.533 195.734 202.176 195.734 M197.5 193.743 Q194.491 193.002 192.801 190.942 Q191.135 188.882 191.135 185.919 Q191.135 181.776 194.075 179.368 Q197.037 176.961 202.176 176.961 Q207.338 176.961 210.278 179.368 Q213.218 181.776 213.218 185.919 Q213.218 188.882 211.528 190.942 Q209.861 193.002 206.875 193.743 Q210.255 194.53 212.13 196.822 Q214.028 199.113 214.028 202.424 Q214.028 207.447 210.949 210.132 Q207.894 212.817 202.176 212.817 Q196.459 212.817 193.38 210.132 Q190.325 207.447 190.325 202.424 Q190.325 199.113 192.223 196.822 Q194.121 194.53 197.5 193.743 M195.787 186.359 Q195.787 189.044 197.454 190.549 Q199.144 192.053 202.176 192.053 Q205.186 192.053 206.875 190.549 Q208.588 189.044 208.588 186.359 Q208.588 183.674 206.875 182.169 Q205.186 180.664 202.176 180.664 Q199.144 180.664 197.454 182.169 Q195.787 183.674 195.787 186.359 Z" fill="#000000" fill-rule="evenodd" fill-opacity="1" /><path clip-path="url(#clip550)" d="M28.3562 814.719 L28.3562 808.863 L64.0042 808.863 L64.0042 814.719 L28.3562 814.719 M14.479 814.719 L14.479 808.863 L21.895 808.863 L21.895 814.719 L14.479 814.719 Z" fill="#000000" fill-rule="evenodd" fill-opacity="1" /><path clip-path="url(#clip550)" d="M14.5426 782.54 Q21.8632 786.805 29.0246 788.874 Q36.186 790.943 43.5384 790.943 Q50.8908 790.943 58.1159 788.874 Q65.3091 786.774 72.5979 782.54 L72.5979 787.633 Q65.1182 792.407 57.8931 794.794 Q50.668 797.15 43.5384 797.15 Q36.4406 797.15 29.2474 794.794 Q22.0542 792.439 14.5426 787.633 L14.5426 782.54 Z" fill="#000000" fill-rule="evenodd" fill-opacity="1" /><path clip-path="url(#clip550)" d="M18.2347 765.385 L28.3562 765.385 L28.3562 753.322 L32.9077 753.322 L32.9077 765.385 L52.2594 765.385 Q56.6199 765.385 57.8613 764.207 Q59.1026 762.998 59.1026 759.337 L59.1026 753.322 L64.0042 753.322 L64.0042 759.337 Q64.0042 766.117 61.4897 768.695 Q58.9434 771.273 52.2594 771.273 L32.9077 771.273 L32.9077 775.57 L28.3562 775.57 L28.3562 771.273 L18.2347 771.273 L18.2347 765.385 Z" fill="#000000" fill-rule="evenodd" fill-opacity="1" /><path clip-path="url(#clip550)" d="M14.5426 746.542 L14.5426 741.45 Q22.0542 736.675 29.2474 734.32 Q36.4406 731.933 43.5384 731.933 Q50.668 731.933 57.8931 734.32 Q65.1182 736.675 72.5979 741.45 L72.5979 746.542 Q65.3091 742.309 58.1159 740.24 Q50.8908 738.14 43.5384 738.14 Q36.186 738.14 29.0246 740.24 Q21.8632 742.309 14.5426 746.542 Z" fill="#000000" fill-rule="evenodd" fill-opacity="1" /><path clip-path="url(#clip550)" d="M871.976 12.096 L882.994 12.096 L909.811 62.6918 L909.811 12.096 L917.751 12.096 L917.751 72.576 L906.733 72.576 L879.916 21.9802 L879.916 72.576 L871.976 72.576 L871.976 12.096 Z" fill="#000000" fill-rule="evenodd" fill-opacity="1" /><path clip-path="url(#clip550)" d="M932.942 54.671 L932.942 27.2059 L940.396 27.2059 L940.396 54.3874 Q940.396 60.8284 942.907 64.0691 Q945.419 67.2693 950.442 67.2693 Q956.478 67.2693 959.962 63.421 Q963.486 59.5726 963.486 52.9291 L963.486 27.2059 L970.94 27.2059 L970.94 72.576 L963.486 72.576 L963.486 65.6084 Q960.772 69.7404 957.166 71.7658 Q953.602 73.7508 948.862 73.7508 Q941.044 73.7508 936.993 68.8897 Q932.942 64.0286 932.942 54.671 M951.698 26.1121 L951.698 26.1121 Z" fill="#000000" fill-rule="evenodd" fill-opacity="1" /><path clip-path="url(#clip550)" d="M1021.62 35.9153 Q1024.41 30.8922 1028.3 28.5022 Q1032.19 26.1121 1037.46 26.1121 Q1044.54 26.1121 1048.39 31.0947 Q1052.24 36.0368 1052.24 45.1919 L1052.24 72.576 L1044.75 72.576 L1044.75 45.4349 Q1044.75 38.913 1042.44 35.7533 Q1040.13 32.5936 1035.39 32.5936 Q1029.6 32.5936 1026.23 36.4419 Q1022.87 40.2903 1022.87 46.9338 L1022.87 72.576 L1015.38 72.576 L1015.38 45.4349 Q1015.38 38.8725 1013.07 35.7533 Q1010.76 32.5936 1005.94 32.5936 Q1000.23 32.5936 996.865 36.4824 Q993.503 40.3308 993.503 46.9338 L993.503 72.576 L986.009 72.576 L986.009 27.2059 L993.503 27.2059 L993.503 34.2544 Q996.055 30.082 999.62 28.0971 Q1003.18 26.1121 1008.09 26.1121 Q1013.03 26.1121 1016.47 28.6237 Q1019.96 31.1352 1021.62 35.9153 Z" fill="#000000" fill-rule="evenodd" fill-opacity="1" /><path clip-path="url(#clip550)" d="M1099.68 49.9314 Q1099.68 41.7081 1096.27 37.0496 Q1092.91 32.3505 1087 32.3505 Q1081.08 32.3505 1077.68 37.0496 Q1074.32 41.7081 1074.32 49.9314 Q1074.32 58.1548 1077.68 62.8538 Q1081.08 67.5124 1087 67.5124 Q1092.91 67.5124 1096.27 62.8538 Q1099.68 58.1548 1099.68 49.9314 M1074.32 34.0924 Q1076.67 30.0415 1080.23 28.0971 Q1083.84 26.1121 1088.82 26.1121 Q1097.08 26.1121 1102.23 32.6746 Q1107.41 39.2371 1107.41 49.9314 Q1107.41 60.6258 1102.23 67.1883 Q1097.08 73.7508 1088.82 73.7508 Q1083.84 73.7508 1080.23 71.8063 Q1076.67 69.8214 1074.32 65.7705 L1074.32 72.576 L1066.82 72.576 L1066.82 9.54393 L1074.32 9.54393 L1074.32 34.0924 Z" fill="#000000" fill-rule="evenodd" fill-opacity="1" /><path clip-path="url(#clip550)" d="M1158.58 48.0275 L1158.58 51.6733 L1124.31 51.6733 Q1124.79 59.3701 1128.92 63.421 Q1133.1 67.4314 1140.51 67.4314 Q1144.8 67.4314 1148.81 66.3781 Q1152.87 65.3249 1156.84 63.2184 L1156.84 70.267 Q1152.83 71.9684 1148.61 72.8596 Q1144.4 73.7508 1140.06 73.7508 Q1129.21 73.7508 1122.85 67.4314 Q1116.53 61.1119 1116.53 50.3365 Q1116.53 39.1965 1122.52 32.6746 Q1128.56 26.1121 1138.77 26.1121 Q1147.92 26.1121 1153.23 32.0264 Q1158.58 37.9003 1158.58 48.0275 M1151.12 45.84 Q1151.04 39.7232 1147.68 36.0774 Q1144.36 32.4315 1138.85 32.4315 Q1132.61 32.4315 1128.84 35.9558 Q1125.12 39.4801 1124.55 45.8805 L1151.12 45.84 Z" fill="#000000" fill-rule="evenodd" fill-opacity="1" /><path clip-path="url(#clip550)" d="M1197.1 34.1734 Q1195.85 33.4443 1194.35 33.1202 Q1192.89 32.7556 1191.11 32.7556 Q1184.79 32.7556 1181.38 36.8875 Q1178.02 40.9789 1178.02 48.6757 L1178.02 72.576 L1170.53 72.576 L1170.53 27.2059 L1178.02 27.2059 L1178.02 34.2544 Q1180.37 30.1225 1184.14 28.1376 Q1187.91 26.1121 1193.29 26.1121 Q1194.06 26.1121 1195 26.2337 Q1195.93 26.3147 1197.06 26.5172 L1197.1 34.1734 Z" fill="#000000" fill-rule="evenodd" fill-opacity="1" /><path clip-path="url(#clip550)" d="M1248.87 32.4315 Q1242.88 32.4315 1239.39 37.1306 Q1235.91 41.7891 1235.91 49.9314 Q1235.91 58.0738 1239.35 62.7728 Q1242.84 67.4314 1248.87 67.4314 Q1254.83 67.4314 1258.31 62.7323 Q1261.79 58.0333 1261.79 49.9314 Q1261.79 41.8701 1258.31 37.1711 Q1254.83 32.4315 1248.87 32.4315 M1248.87 26.1121 Q1258.59 26.1121 1264.14 32.4315 Q1269.69 38.7509 1269.69 49.9314 Q1269.69 61.0714 1264.14 67.4314 Q1258.59 73.7508 1248.87 73.7508 Q1239.11 73.7508 1233.56 67.4314 Q1228.05 61.0714 1228.05 49.9314 Q1228.05 38.7509 1233.56 32.4315 Q1239.11 26.1121 1248.87 26.1121 Z" fill="#000000" fill-rule="evenodd" fill-opacity="1" /><path clip-path="url(#clip550)" d="M1305.02 9.54393 L1305.02 15.7418 L1297.89 15.7418 Q1293.88 15.7418 1292.3 17.3622 Q1290.76 18.9825 1290.76 23.1955 L1290.76 27.2059 L1303.03 27.2059 L1303.03 32.9987 L1290.76 32.9987 L1290.76 72.576 L1283.26 72.576 L1283.26 32.9987 L1276.13 32.9987 L1276.13 27.2059 L1283.26 27.2059 L1283.26 24.0462 Q1283.26 16.471 1286.79 13.0277 Q1290.31 9.54393 1297.97 9.54393 L1305.02 9.54393 Z" fill="#000000" fill-rule="evenodd" fill-opacity="1" /><path clip-path="url(#clip550)" d="M1337.95 12.096 L1346.13 12.096 L1346.13 72.576 L1337.95 72.576 L1337.95 12.096 Z" fill="#000000" fill-rule="evenodd" fill-opacity="1" /><path clip-path="url(#clip550)" d="M1399.81 45.1919 L1399.81 72.576 L1392.36 72.576 L1392.36 45.4349 Q1392.36 38.994 1389.84 35.7938 Q1387.33 32.5936 1382.31 32.5936 Q1376.27 32.5936 1372.79 36.4419 Q1369.31 40.2903 1369.31 46.9338 L1369.31 72.576 L1361.81 72.576 L1361.81 27.2059 L1369.31 27.2059 L1369.31 34.2544 Q1371.98 30.163 1375.58 28.1376 Q1379.23 26.1121 1383.97 26.1121 Q1391.79 26.1121 1395.8 30.9732 Q1399.81 35.7938 1399.81 45.1919 Z" fill="#000000" fill-rule="evenodd" fill-opacity="1" /><path clip-path="url(#clip550)" d="M1437.64 9.54393 L1437.64 15.7418 L1430.51 15.7418 Q1426.5 15.7418 1424.92 17.3622 Q1423.39 18.9825 1423.39 23.1955 L1423.39 27.2059 L1435.66 27.2059 L1435.66 32.9987 L1423.39 32.9987 L1423.39 72.576 L1415.89 72.576 L1415.89 32.9987 L1408.76 32.9987 L1408.76 27.2059 L1415.89 27.2059 L1415.89 24.0462 Q1415.89 16.471 1419.42 13.0277 Q1422.94 9.54393 1430.6 9.54393 L1437.64 9.54393 Z" fill="#000000" fill-rule="evenodd" fill-opacity="1" /><path clip-path="url(#clip550)" d="M1482.69 48.0275 L1482.69 51.6733 L1448.42 51.6733 Q1448.91 59.3701 1453.04 63.421 Q1457.21 67.4314 1464.62 67.4314 Q1468.92 67.4314 1472.93 66.3781 Q1476.98 65.3249 1480.95 63.2184 L1480.95 70.267 Q1476.94 71.9684 1472.73 72.8596 Q1468.51 73.7508 1464.18 73.7508 Q1453.32 73.7508 1446.96 67.4314 Q1440.64 61.1119 1440.64 50.3365 Q1440.64 39.1965 1446.64 32.6746 Q1452.67 26.1121 1462.88 26.1121 Q1472.04 26.1121 1477.34 32.0264 Q1482.69 37.9003 1482.69 48.0275 M1475.24 45.84 Q1475.16 39.7232 1471.79 36.0774 Q1468.47 32.4315 1462.96 32.4315 Q1456.72 32.4315 1452.96 35.9558 Q1449.23 39.4801 1448.66 45.8805 L1475.24 45.84 Z" fill="#000000" fill-rule="evenodd" fill-opacity="1" /><path clip-path="url(#clip550)" d="M1527.57 28.9478 L1527.57 35.9153 Q1524.41 34.1734 1521.21 33.3227 Q1518.05 32.4315 1514.81 32.4315 Q1507.56 32.4315 1503.55 37.0496 Q1499.54 41.6271 1499.54 49.9314 Q1499.54 58.2358 1503.55 62.8538 Q1507.56 67.4314 1514.81 67.4314 Q1518.05 67.4314 1521.21 66.5807 Q1524.41 65.6895 1527.57 63.9476 L1527.57 70.8341 Q1524.46 72.2924 1521.09 73.0216 Q1517.77 73.7508 1514 73.7508 Q1503.75 73.7508 1497.72 67.3098 Q1491.68 60.8689 1491.68 49.9314 Q1491.68 38.832 1497.76 32.472 Q1503.88 26.1121 1514.49 26.1121 Q1517.93 26.1121 1521.21 26.8413 Q1524.5 27.5299 1527.57 28.9478 Z" fill="#000000" fill-rule="evenodd" fill-opacity="1" /><path clip-path="url(#clip550)" d="M1547.91 14.324 L1547.91 27.2059 L1563.26 27.2059 L1563.26 32.9987 L1547.91 32.9987 L1547.91 57.6282 Q1547.91 63.1779 1549.41 64.7578 Q1550.95 66.3376 1555.61 66.3376 L1563.26 66.3376 L1563.26 72.576 L1555.61 72.576 Q1546.98 72.576 1543.7 69.3758 Q1540.42 66.1351 1540.42 57.6282 L1540.42 32.9987 L1534.95 32.9987 L1534.95 27.2059 L1540.42 27.2059 L1540.42 14.324 L1547.91 14.324 Z" fill="#000000" fill-rule="evenodd" fill-opacity="1" /><path clip-path="url(#clip550)" d="M1573.07 27.2059 L1580.52 27.2059 L1580.52 72.576 L1573.07 72.576 L1573.07 27.2059 M1573.07 9.54393 L1580.52 9.54393 L1580.52 18.9825 L1573.07 18.9825 L1573.07 9.54393 Z" fill="#000000" fill-rule="evenodd" fill-opacity="1" /><path clip-path="url(#clip550)" d="M1613.7 32.4315 Q1607.7 32.4315 1604.22 37.1306 Q1600.73 41.7891 1600.73 49.9314 Q1600.73 58.0738 1604.18 62.7728 Q1607.66 67.4314 1613.7 67.4314 Q1619.65 67.4314 1623.14 62.7323 Q1626.62 58.0333 1626.62 49.9314 Q1626.62 41.8701 1623.14 37.1711 Q1619.65 32.4315 1613.7 32.4315 M1613.7 26.1121 Q1623.42 26.1121 1628.97 32.4315 Q1634.52 38.7509 1634.52 49.9314 Q1634.52 61.0714 1628.97 67.4314 Q1623.42 73.7508 1613.7 73.7508 Q1603.93 73.7508 1598.38 67.4314 Q1592.87 61.0714 1592.87 49.9314 Q1592.87 38.7509 1598.38 32.4315 Q1603.93 26.1121 1613.7 26.1121 Z" fill="#000000" fill-rule="evenodd" fill-opacity="1" /><path clip-path="url(#clip550)" d="M1684.59 45.1919 L1684.59 72.576 L1677.13 72.576 L1677.13 45.4349 Q1677.13 38.994 1674.62 35.7938 Q1672.11 32.5936 1667.09 32.5936 Q1661.05 32.5936 1657.57 36.4419 Q1654.08 40.2903 1654.08 46.9338 L1654.08 72.576 L1646.59 72.576 L1646.59 27.2059 L1654.08 27.2059 L1654.08 34.2544 Q1656.76 30.163 1660.36 28.1376 Q1664.01 26.1121 1668.75 26.1121 Q1676.57 26.1121 1680.58 30.9732 Q1684.59 35.7938 1684.59 45.1919 Z" fill="#000000" fill-rule="evenodd" fill-opacity="1" /><path clip-path="url(#clip550)" d="M1728.38 28.5427 L1728.38 35.5912 Q1725.22 33.9709 1721.82 33.1607 Q1718.41 32.3505 1714.77 32.3505 Q1709.22 32.3505 1706.42 34.0519 Q1703.67 35.7533 1703.67 39.156 Q1703.67 41.7486 1705.65 43.2475 Q1707.64 44.7058 1713.63 46.0426 L1716.18 46.6097 Q1724.12 48.3111 1727.45 51.4303 Q1730.81 54.509 1730.81 60.0587 Q1730.81 66.3781 1725.79 70.0644 Q1720.8 73.7508 1712.05 73.7508 Q1708.41 73.7508 1704.44 73.0216 Q1700.51 72.3329 1696.13 70.9151 L1696.13 63.2184 Q1700.26 65.3654 1704.27 66.4591 Q1708.29 67.5124 1712.21 67.5124 Q1717.48 67.5124 1720.32 65.73 Q1723.15 63.9071 1723.15 60.6258 Q1723.15 57.5877 1721.09 55.9673 Q1719.06 54.3469 1712.13 52.8481 L1709.54 52.2405 Q1702.61 50.7821 1699.54 47.7845 Q1696.46 44.7463 1696.46 39.4801 Q1696.46 33.0797 1700.99 29.5959 Q1705.53 26.1121 1713.88 26.1121 Q1718.01 26.1121 1721.65 26.7198 Q1725.3 27.3274 1728.38 28.5427 Z" fill="#000000" fill-rule="evenodd" fill-opacity="1" /><polyline clip-path="url(#clip552)" style="stroke:#009af9; stroke-linecap:butt; stroke-linejoin:round; stroke-width:4; stroke-opacity:1; fill:none" points="
  250.028,1386.24 250.085,1386.24 250.098,1386.24 250.113,1386.24 250.13,1386.24 250.15,1386.24 250.171,1386.24 250.196,1386.24 250.223,1386.24 250.254,1386.24 
  250.289,1386.24 250.328,1386.24 250.372,1386.24 250.421,1386.24 250.477,1386.24 250.539,1386.25 250.609,1386.25 250.689,1386.25 250.778,1386.25 250.878,1386.25 
  250.99,1386.25 251.117,1386.25 251.26,1386.25 251.42,1386.25 251.601,1386.25 251.804,1386.26 252.028,1386.26 252.274,1386.26 252.538,1386.26 252.817,1386.26 
  253.113,1386.27 253.424,1386.27 253.749,1386.27 254.088,1386.27 254.438,1386.27 254.8,1386.28 255.171,1386.28 255.551,1386.28 255.942,1386.28 256.34,1386.29 
  256.75,1386.29 257.169,1386.29 257.592,1386.29 258.021,1386.3 258.457,1386.3 258.898,1386.3 259.343,1386.3 259.793,1386.31 260.25,1386.31 260.711,1386.31 
  261.176,1386.31 261.65,1386.32 262.128,1386.32 262.61,1386.32 263.095,1386.32 263.583,1386.33 264.068,1386.33 264.554,1386.33 265.038,1386.33 265.525,1386.34 
  266.017,1386.34 266.513,1386.34 267.019,1386.34 267.529,1386.35 268.044,1386.35 268.564,1386.35 269.086,1386.35 269.611,1386.35 270.143,1386.36 270.678,1386.36 
  271.219,1386.36 271.768,1386.36 272.323,1386.36 272.882,1386.37 273.456,1386.37 274.039,1386.37 274.627,1386.37 275.221,1386.37 275.823,1386.37 276.439,1386.38 
  277.07,1386.38 277.718,1386.38 278.374,1386.38 279.039,1386.38 279.719,1386.38 280.411,1386.38 281.113,1386.38 281.829,1386.38 282.551,1386.39 283.275,1386.39 
  284.005,1386.39 284.741,1386.39 285.493,1386.39 286.253,1386.39 287.02,1386.39 287.8,1386.39 288.585,1386.39 289.386,1386.39 290.193,1386.39 291.002,1386.39 
  291.82,1386.39 292.639,1386.39 293.464,1386.4 294.298,1386.4 295.142,1386.4 295.996,1386.4 296.868,1386.4 297.766,1386.39 298.688,1386.39 299.631,1386.39 
  300.587,1386.39 301.564,1386.39 302.562,1386.39 303.578,1386.39 304.627,1386.39 305.69,1386.39 306.783,1386.38 307.919,1386.38 309.094,1386.38 310.308,1386.38 
  311.541,1386.37 312.812,1386.37 314.106,1386.37 315.409,1386.36 316.737,1386.36 318.068,1386.36 319.401,1386.35 320.77,1386.35 322.144,1386.35 323.572,1386.34 
  325.025,1386.34 326.505,1386.33 328.01,1386.33 329.542,1386.32 331.099,1386.32 332.642,1386.31 334.205,1386.31 335.787,1386.3 337.366,1386.3 338.958,1386.29 
  340.564,1386.29 342.191,1386.28 343.819,1386.27 345.471,1386.27 347.159,1386.26 348.877,1386.25 350.559,1386.25 352.224,1386.24 353.92,1386.24 355.625,1386.23 
  357.31,1386.22 359.011,1386.22 360.726,1386.21 362.416,1386.2 364.057,1386.2 365.705,1386.19 367.368,1386.18 369.103,1386.18 370.827,1386.17 372.633,1386.16 
  374.489,1386.15 376.407,1386.14 378.296,1386.13 380.267,1386.12 382.362,1386.1 384.54,1386.09 386.752,1386.08 388.991,1386.06 391.244,1386.05 393.348,1386.04 
  395.57,1386.03 397.836,1386.01 400.155,1385.99 402.59,1385.98 405.174,1385.96 407.759,1385.94 410.446,1385.91 413.223,1385.89 416.015,1385.87 418.773,1385.85 
  421.512,1385.83 424.182,1385.81 426.94,1385.78 429.738,1385.76 432.761,1385.72 436.092,1385.69 439.531,1385.65 443.211,1385.61 446.891,1385.56 451.032,1385.5 
  455.691,1385.43 460.931,1385.34 466.827,1385.26 471.235,1385.2 475.728,1385.13 480.007,1385.07 484.535,1385 489.242,1384.91 494.536,1384.81 500.492,1384.67 
  507.193,1384.51 514.731,1384.33 523.212,1384.11 531.613,1383.87 541.065,1383.57 551.698,1383.16 562.565,1382.6 568.38,1382.24 573.042,1381.93 577.366,1381.63 
  581.7,1381.32 585.838,1381 589.992,1380.67 593.711,1380.35 597.463,1380.02 601.206,1379.66 604.685,1379.31 608.025,1378.96 611.369,1378.62 614.834,1378.26 
  618.733,1377.85 622.436,1377.44 626.349,1376.96 630.013,1376.51 633.762,1376.03 637.526,1375.54 641.455,1375 645.6,1374.4 649.532,1373.77 653.344,1373.12 
  656.998,1372.46 660.686,1371.75 664.16,1371.05 667.572,1370.28 670.691,1369.55 673.741,1368.84 676.74,1368.17 680.073,1367.35 683.301,1366.48 686.26,1365.58 
  689.035,1364.68 691.706,1363.81 694.265,1362.95 696.852,1362.11 699.51,1361.23 702.241,1360.29 704.91,1359.39 707.785,1358.39 710.692,1357.37 713.792,1356.21 
  716.929,1354.99 719.992,1353.78 723.126,1352.52 726.536,1351.14 729.915,1349.84 733.717,1348.49 737.994,1346.9 742.806,1345.01 747.266,1343.22 752.284,1340.97 
  757.383,1338.54 762.724,1335.78 767.801,1333.11 773.514,1329.86 778.826,1326.89 784.802,1323.36 791.525,1319.75 799.089,1315.87 805.275,1312.87 810.666,1310.46 
  815.545,1308 820.636,1305.19 826.363,1301.79 832.387,1297.75 839.165,1292.73 846.79,1286.76 855.368,1279.27 865.018,1270.08 874.806,1260.87 885.566,1248.95 
  897.671,1235.97 909.698,1220.98 921.473,1205.17 934.066,1185.32 946.175,1167.28 956.865,1152.84 964.921,1142.24 970.178,1136.25 975.076,1130.11 979.6,1123.85 
  984.372,1116.67 989.28,1108.29 994.656,1097.89 1000.7,1087.6 1006.37,1078.58 1011.35,1070.43 1016.23,1061.55 1021.36,1050.85 1026.95,1038.88 1033.02,1027.37 
  1038.05,1016.49 1043.59,1002.58 1049.76,986.255 1055.89,970.504 1062.08,953.316 1068.3,937.436 1074.25,922.026 1080.2,906.212 1085.97,891.509 1091.51,875.668 
  1097.21,861.692 1102.51,849.678 1107.36,839.786 1111.81,829.945 1116.13,818.507 1120.74,804.607 1125.51,789.048 1130.32,773.278 1135.1,757.642 1139.87,739.901 
  1144.56,721.112 1149.12,700.877 1153.43,682.523 1157.61,664.651 1161.86,649.344 1166.12,635.388 1170.35,619.917 1174.54,604.549 1178.68,590.574 1182.79,576.839 
  1186.86,563.437 1190.87,548.83 1194.85,532.327 1198.66,516.03 1202.4,499.076 1205.98,482.858 1209.46,466.776 1212.92,450.948 1216.25,435.962 1219.53,422.149 
  1222.8,409.524 1226.06,398.137 1229.39,387.04 1232.7,374.5 1235.94,360.111 1239.06,346.152 1242.08,332.552 1245.06,319.948 1248.02,306.862 1250.9,293.053 
  1253.7,277.479 1256.29,264.374 1258.86,252.67 1261.45,241.921 1264.05,232.079 1266.69,221.796 1269.29,210.635 1271.82,200.938 1274.4,193.082 1277.02,187.713 
  1279.75,183.219 1282.5,178.278 1285.29,174.527 1288.1,171.071 1290.93,166.868 1293.78,164.662 1296.64,163.813 1299.49,163.985 1302.29,164.349 1305.1,164.025 
  1307.94,163.349 1310.8,161.775 1313.71,160.59 1316.63,160.35 1319.56,160.256 1322.5,160.471 1325.47,160.599 1328.44,160.979 1331.43,162.012 1334.42,162.568 
  1337.44,163.339 1340.47,164.639 1343.52,165.702 1346.58,166.573 1349.65,168.485 1352.74,172.353 1355.82,177.731 1358.84,183.63 1361.84,189.537 1364.85,194.615 
  1367.91,199.518 1371.01,204.876 1374.13,210.378 1377.28,215.404 1380.46,219.426 1383.68,223.903 1386.93,229.729 1390.22,235.533 1393.53,242.544 1396.87,251.927 
  1400.12,260.819 1403.35,269.707 1406.63,279.463 1409.84,288.841 1413.09,299.29 1416.26,309.048 1419.48,318.965 1422.75,328.804 1426,338.853 1429.3,349.288 
  1432.58,359.088 1435.98,369.044 1439.44,379.423 1442.93,389.468 1446.54,401.091 1450.11,413.684 1453.53,426.176 1456.99,439.517 1460.16,451.29 1463.41,462.481 
  1466.81,473.734 1470.28,484.537 1473.92,494.794 1477.83,506.387 1481.79,518.746 1485.78,529.991 1490,541.98 1494.31,555.255 1498.59,569.134 1502.78,581.933 
  1507.1,595.541 1511.57,608.481 1516.19,620.859 1521.04,633.258 1525.97,645.599 1530.98,658.075 1536.03,672.408 1541.37,687.173 1546.74,701.37 1552.29,715.896 
  1557.99,730.883 1563.85,747.384 1569.72,763.363 1575.64,779.166 1581.86,794.228 1588.28,808.882 1594.45,823.204 1600.69,838.507 1607.58,855.459 1614.59,873.215 
  1621.6,890.35 1629.09,908.435 1636.69,926.444 1643.94,941.16 1652.09,955.933 1659.22,968.855 1665.75,980.655 1673.07,993.189 1679.98,1004.47 1686.13,1015.31 
  1693.05,1027.45 1700.81,1040.62 1708.85,1053.14 1716.34,1063.36 1722.07,1070.91 1727.13,1077.93 1732.82,1085.35 1737.94,1092.07 1743.15,1099.16 1748.98,1107.27 
  1755.38,1116.24 1762.5,1126.12 1770.51,1136.01 1777.21,1144.08 1783.97,1152.29 1791.57,1161.14 1798.92,1169.22 1806.17,1177.09 1813.23,1184.55 1820.89,1192.67 
  1829.22,1201.29 1838.59,1210.72 1849.13,1220.93 1860.99,1231.79 1874.21,1243.44 1888.44,1254.68 1904.45,1265.68 1917.03,1273.8 1931.18,1282.19 1940.09,1286.63 
  1946.58,1289.65 1952.43,1292.27 1957.88,1294.76 1963.34,1297.24 1968.87,1299.65 1974.02,1301.94 1979.67,1304.4 1985.43,1306.89 1991.27,1309.32 1997.29,1311.61 
  2002.45,1313.38 2007.13,1315.05 2011.83,1316.65 2016.42,1318.16 2020.65,1319.51 2024.68,1320.81 2028.93,1322.16 2033.02,1323.46 2037.13,1324.8 2041.63,1326.19 
  2045.94,1327.48 2050.07,1328.72 2054.59,1330.06 2059.01,1331.25 2063.23,1332.3 2066.88,1333.22 2070.76,1334.17 2074.23,1335.02 2077.77,1335.91 2081.46,1336.84 
  2085.26,1337.77 2089.04,1338.67 2092.68,1339.55 2096.59,1340.53 2100.94,1341.6 2105.57,1342.74 2110.58,1343.99 2116.21,1345.36 2122.2,1346.78 2128.93,1348.19 
  2133.84,1349.19 2139.09,1350.21 2144.34,1351.18 2149.21,1351.99 2153.44,1352.67 2157.46,1353.31 2161.35,1353.93 2165.17,1354.55 2169.09,1355.19 2173.03,1355.81 
  2177.15,1356.47 2181.19,1357.08 2185.19,1357.68 2189.14,1358.24 2192.95,1358.76 2196.66,1359.25 2200.32,1359.72 2203.7,1360.12 2206.94,1360.51 2210.02,1360.87 
  2213.12,1361.25 2216.23,1361.62 2219.28,1361.96 2222.24,1362.29 2225.1,1362.59 2227.83,1362.9 2230.66,1363.23 2233.67,1363.59 2236.9,1363.97 2240.28,1364.36 
  2243.57,1364.75 2247.27,1365.19 2251.2,1365.64 2255.15,1366.06 2259.06,1366.46 2262.62,1366.84 2266.52,1367.26 2270.92,1367.72 2275.18,1368.15 2279.59,1368.57 
  2283.71,1368.95 2287.72,1369.31 2291.59,1369.66 2295.49,1370.01 2299.67,1370.39 2304.2,1370.81 2309.17,1371.3 2314.77,1371.85 2321.06,1372.45 2327.28,1372.99 
  2334.27,1373.57 2339.64,1374 2345.28,1374.43 2351.64,1374.9 2352.76,1374.98 
  "/>
<polyline clip-path="url(#clip552)" style="stroke:#e26f46; stroke-linecap:butt; stroke-linejoin:round; stroke-width:4; stroke-opacity:1; fill:none" points="
  250.028,1386.24 250.085,1386.24 250.098,1386.24 250.113,1386.24 250.131,1386.24 250.15,1386.24 250.171,1386.24 250.196,1386.24 250.223,1386.24 250.254,1386.24 
  250.289,1386.24 250.328,1386.24 250.372,1386.24 250.421,1386.24 250.477,1386.24 250.539,1386.25 250.61,1386.25 250.689,1386.25 250.778,1386.25 250.878,1386.25 
  250.991,1386.25 251.117,1386.25 251.26,1386.25 251.42,1386.25 251.601,1386.25 251.804,1386.26 252.029,1386.26 252.274,1386.26 252.537,1386.26 252.818,1386.26 
  253.117,1386.26 253.432,1386.27 253.762,1386.27 254.105,1386.27 254.457,1386.27 254.822,1386.28 255.197,1386.28 255.583,1386.28 255.978,1386.28 256.384,1386.29 
  256.797,1386.29 257.218,1386.29 257.649,1386.29 258.088,1386.3 258.534,1386.3 258.984,1386.3 259.439,1386.3 259.896,1386.31 260.355,1386.31 260.817,1386.31 
  261.283,1386.31 261.751,1386.32 262.223,1386.32 262.695,1386.32 263.172,1386.32 263.651,1386.33 264.13,1386.33 264.612,1386.33 265.099,1386.33 265.588,1386.34 
  266.082,1386.34 266.579,1386.34 267.085,1386.34 267.594,1386.34 268.107,1386.35 268.625,1386.35 269.147,1386.35 269.673,1386.35 270.205,1386.36 270.738,1386.36 
  271.278,1386.36 271.824,1386.36 272.375,1386.36 272.934,1386.37 273.504,1386.37 274.084,1386.37 274.673,1386.37 275.272,1386.37 275.878,1386.37 276.49,1386.38 
  277.117,1386.38 277.761,1386.38 278.417,1386.38 279.086,1386.38 279.767,1386.38 280.463,1386.38 281.174,1386.38 281.886,1386.38 282.607,1386.39 283.339,1386.39 
  284.082,1386.39 284.842,1386.39 285.607,1386.39 286.39,1386.39 287.184,1386.39 287.989,1386.39 288.794,1386.39 289.604,1386.39 290.426,1386.39 291.253,1386.39 
  292.079,1386.39 292.91,1386.39 293.73,1386.39 294.561,1386.39 295.4,1386.39 296.25,1386.39 297.109,1386.39 297.983,1386.39 298.878,1386.39 299.786,1386.39 
  300.717,1386.39 301.683,1386.39 302.67,1386.39 303.668,1386.39 304.688,1386.39 305.715,1386.39 306.77,1386.39 307.853,1386.38 308.935,1386.38 310.048,1386.38 
  311.194,1386.38 312.381,1386.38 313.588,1386.37 314.782,1386.37 315.955,1386.37 317.099,1386.37 318.226,1386.37 319.373,1386.37 320.526,1386.36 321.682,1386.36 
  322.853,1386.36 324.033,1386.36 325.228,1386.36 326.43,1386.35 327.683,1386.35 328.96,1386.35 330.238,1386.35 331.541,1386.34 332.831,1386.34 334.164,1386.34 
  335.543,1386.33 336.952,1386.33 338.391,1386.32 339.846,1386.32 341.333,1386.31 342.83,1386.31 344.315,1386.3 345.82,1386.3 347.381,1386.29 348.949,1386.29 
  350.526,1386.28 352.122,1386.28 353.795,1386.27 355.496,1386.26 357.238,1386.25 359.009,1386.25 360.819,1386.24 362.612,1386.23 364.462,1386.22 366.276,1386.21 
  368.07,1386.21 369.902,1386.2 371.845,1386.19 373.933,1386.17 376.13,1386.16 378.43,1386.15 380.749,1386.13 383.081,1386.12 385.481,1386.1 387.866,1386.09 
  390.258,1386.07 392.687,1386.06 395.117,1386.04 397.652,1386.02 400.357,1386 402.924,1385.98 405.53,1385.97 408.178,1385.95 410.747,1385.93 413.28,1385.91 
  415.754,1385.9 418.276,1385.88 420.78,1385.86 423.179,1385.85 425.461,1385.83 427.826,1385.81 430.257,1385.8 432.6,1385.78 434.956,1385.76 437.281,1385.75 
  439.632,1385.73 442.008,1385.71 444.358,1385.69 446.81,1385.67 449.319,1385.65 452.032,1385.62 454.793,1385.59 457.834,1385.55 461.254,1385.51 464.802,1385.47 
  468.377,1385.43 471.806,1385.39 475.157,1385.35 478.684,1385.31 481.929,1385.28 485.098,1385.24 488.454,1385.19 491.886,1385.15 495.172,1385.12 498.187,1385.08 
  501.235,1385.05 504.041,1385.02 506.989,1384.98 509.966,1384.94 513.145,1384.89 516.551,1384.83 520.352,1384.77 523.961,1384.71 527.934,1384.64 531.922,1384.57 
  536.06,1384.49 540.145,1384.42 544.058,1384.34 548.258,1384.25 552.983,1384.16 557.05,1384.08 561.043,1384.01 564.759,1383.94 568.188,1383.88 571.715,1383.79 
  575.683,1383.67 580.147,1383.54 585.169,1383.39 589.974,1383.23 595.38,1383.05 600.967,1382.85 607.252,1382.59 614.323,1382.24 618.55,1381.99 623.045,1381.71 
  627.087,1381.44 631.315,1381.17 636.072,1380.85 641.105,1380.48 646.009,1380.13 651.526,1379.7 657.116,1379.21 662.094,1378.73 666.898,1378.25 671.771,1377.72 
  676.477,1377.19 681.02,1376.65 685.752,1376.05 690.247,1375.46 694.971,1374.83 699.884,1374.12 704.808,1373.37 709.527,1372.65 714.676,1371.88 720.469,1371.03 
  726.985,1370.2 734.317,1369.23 738.875,1368.62 744.002,1367.87 749.77,1367.03 756.133,1366.15 761.2,1365.44 766.303,1364.65 771.7,1363.8 777.485,1362.76 
  783.911,1361.68 790.547,1360.46 796.272,1359.4 802.555,1358.21 808.335,1357.13 813.714,1356.16 818.698,1355.38 822.927,1354.7 826.972,1353.94 831.039,1353.17 
  835.1,1352.33 839.215,1351.57 842.871,1350.89 846.333,1350.25 849.727,1349.46 853.544,1348.48 857.837,1347.32 862.395,1346.08 866.804,1344.78 871.764,1343.21 
  877.011,1341.57 882.346,1339.91 887.368,1338.26 892.687,1336.38 898.481,1334.08 904.999,1331.1 912.332,1327.43 920.582,1323.08 929.863,1318.01 939.529,1312.11 
  950.405,1305.67 960.552,1299.91 967.802,1295.84 975.02,1291.81 981.142,1288.01 987.487,1283.64 994.626,1278.29 1001.79,1272.42 1009.67,1265.91 1017.68,1258.23 
  1026.7,1247.92 1036.84,1233.8 1045.26,1221.58 1052.98,1210.25 1061.66,1196.6 1070.6,1179.62 1078.35,1163.63 1084.9,1149.78 1092.25,1134.78 1099.38,1120.46 
  1107.4,1103.14 1115.27,1086.47 1123.39,1069.6 1131.14,1051.76 1139.11,1031.56 1146.91,1011.47 1154.57,989.973 1161.88,971.092 1169.21,950.277 1176.22,927.59 
  1183.07,902.418 1189.24,878.095 1194.93,855.066 1200.23,833.964 1205.62,811.697 1210.71,790.557 1215.69,768.221 1220.23,747.521 1224.78,725.093 1228.96,704.879 
  1233.14,682.842 1237.03,662.391 1240.76,645.493 1244.6,629.768 1248.59,613.136 1252.5,598.033 1256.4,582 1260.29,564.207 1264.07,548.228 1267.85,532.655 
  1271.6,517.099 1275.32,502.537 1279.01,487.523 1282.65,473.021 1286.26,459.22 1289.83,445.972 1293.38,432.83 1296.88,419.928 1300.36,408.238 1303.81,397.136 
  1307.21,385.293 1310.6,374.245 1313.96,361.919 1317.29,350.083 1320.59,338.301 1323.83,330.224 1327.07,321.967 1330.27,313.435 1333.47,305.927 1336.63,297.38 
  1339.79,289.287 1342.95,282.292 1346.08,275.896 1349.2,270.42 1352.26,265.022 1355.34,259.81 1358.39,253.582 1361.46,247.35 1364.53,241.845 1367.59,236.793 
  1370.64,230.878 1373.7,226.11 1376.76,222.223 1379.79,219.944 1382.81,218.73 1385.77,217.296 1388.71,216.235 1391.63,214.6 1394.6,212.77 1397.58,211.733 
  1400.55,211.276 1403.53,211.843 1406.42,212.107 1409.39,210.795 1412.38,207.908 1415.4,205.28 1418.44,202.585 1421.48,198.279 1424.47,193.586 1427.43,189.205 
  1430.34,185.262 1433.24,182.992 1436.19,182.058 1439.2,181.904 1442.23,183.217 1445.28,184.372 1448.36,184.936 1451.45,183.986 1454.49,183.34 1457.5,184.436 
  1460.59,187.658 1463.71,191.988 1466.85,196.718 1469.99,202.087 1473.14,207.923 1476.28,213.458 1479.47,220.805 1482.64,228.772 1485.77,237.965 1488.73,246.527 
  1491.72,254.724 1494.77,263.27 1497.8,271.212 1500.87,279.258 1504.03,289.297 1507.08,300.683 1509.86,311.838 1512.56,322.785 1515.11,333.573 1517.6,343.64 
  1520.07,353.212 1522.6,363.487 1525.04,372.603 1527.56,381.777 1530.13,390.909 1532.73,399.214 1535.54,407.892 1538.44,416.938 1541.42,426.053 1544.54,435.851 
  1547.65,445.593 1550.85,455.627 1554.12,465.073 1557.61,475.372 1561.15,487.015 1564.6,497.99 1568.13,509.036 1571.73,520.266 1575.4,532.571 1578.97,544.603 
  1582.49,556.334 1586,567.97 1589.55,580.776 1592.93,593.195 1596.18,605.258 1599.23,616.516 1602.26,627.753 1605.22,637.855 1608.3,648.17 1611.45,658.918 
  1614.52,669.149 1617.64,678.696 1621.12,689.631 1624.46,699.838 1627.92,710.374 1631.49,721.306 1634.97,731.938 1638.57,743.383 1641.94,753.8 1645.41,764.229 
  1648.89,774.343 1652.62,784.94 1656.3,795.086 1660.17,805.522 1664.29,815.79 1668.72,826.306 1673.69,837.851 1678.89,849.139 1684.7,860.418 1690.56,870.966 
  1696.16,881.292 1701.74,891.415 1707.67,901.327 1713.13,911.827 1719.28,924.314 1726.2,937.753 1733.38,951.017 1740.83,964.36 1748.5,978.17 1756.66,992.203 
  1764.99,1005.88 1773.51,1019.65 1782.25,1032.9 1790.61,1044.59 1797.67,1056.17 1805.62,1068.94 1813.98,1081.45 1823.4,1093.13 1830.63,1102.31 1838.18,1112.15 
  1846.67,1122.95 1855.29,1133.24 1864.99,1143.62 1872.56,1150.98 1878.98,1157.32 1885.65,1163.26 1890.7,1167.41 1895.31,1171.65 1900.25,1176.26 1905.48,1180.97 
  1910.35,1185.3 1915.47,1190.12 1920.89,1195.43 1927,1201.67 1933.86,1208.96 1939.81,1215.12 1945.58,1221.07 1951.18,1226.64 1956.91,1231.96 1963.09,1237.51 
  1969.67,1242.95 1977.08,1248.76 1985.41,1255.29 1993.41,1261.07 2002.41,1267.46 2011.43,1273.83 2018.65,1278.79 2025.65,1283.24 2032.69,1287.47 2040.61,1292.02 
  2049.21,1296.65 2057.7,1300.81 2067.25,1305.08 2077.99,1309.45 2085.51,1312.46 2093.97,1315.98 2103.49,1319.75 2112.65,1323.2 2122.96,1326.93 2133.95,1330.39 
  2145.12,1333.84 2157.66,1337.31 2169.51,1340.17 2177.1,1342 2185.64,1343.84 2192.08,1345.13 2198,1346.28 2203.87,1347.37 2209.16,1348.4 2214.84,1349.47 
  2220.73,1350.6 2227.35,1351.88 2234.81,1353.37 2243.19,1354.99 2252.63,1356.64 2263.24,1358.41 2275.18,1360.07 2282.35,1360.93 2288.59,1361.7 2294.33,1362.38 
  2300.24,1363.09 2306.22,1363.76 2311.83,1364.35 2316.94,1364.86 2321.58,1365.33 2326.21,1365.8 2330.67,1366.27 2335.7,1366.81 2341.26,1367.4 2347.51,1368.05 
  2352.76,1368.55 
  "/>
<path clip-path="url(#clip550)" d="
M1773.96 322.316 L2282.66 322.316 L2282.66 166.796 L1773.96 166.796  Z
  " fill="#ffffff" fill-rule="evenodd" fill-opacity="1"/>
<polyline clip-path="url(#clip550)" style="stroke:#000000; stroke-linecap:butt; stroke-linejoin:round; stroke-width:4; stroke-opacity:1; fill:none" points="
  1773.96,322.316 2282.66,322.316 2282.66,166.796 1773.96,166.796 1773.96,322.316 
  "/>
<polyline clip-path="url(#clip550)" style="stroke:#009af9; stroke-linecap:butt; stroke-linejoin:round; stroke-width:4; stroke-opacity:1; fill:none" points="
  1797.32,218.636 1937.51,218.636 
  "/>
<path clip-path="url(#clip550)" d="M1960.87 201.356 L1990.11 201.356 L1990.11 205.291 L1977.84 205.291 L1977.84 235.916 L1973.14 235.916 L1973.14 205.291 L1960.87 205.291 L1960.87 201.356 Z" fill="#000000" fill-rule="evenodd" fill-opacity="1" /><path clip-path="url(#clip550)" d="M2002.49 213.971 Q2001.77 213.555 2000.92 213.37 Q2000.08 213.161 1999.06 213.161 Q1995.45 213.161 1993.51 215.522 Q1991.59 217.86 1991.59 222.258 L1991.59 235.916 L1987.3 235.916 L1987.3 209.99 L1991.59 209.99 L1991.59 214.018 Q1992.93 211.657 1995.08 210.522 Q1997.24 209.365 2000.31 209.365 Q2000.75 209.365 2001.29 209.434 Q2001.82 209.481 2002.47 209.596 L2002.49 213.971 Z" fill="#000000" fill-rule="evenodd" fill-opacity="1" /><path clip-path="url(#clip550)" d="M2018.74 222.883 Q2013.58 222.883 2011.59 224.064 Q2009.6 225.244 2009.6 228.092 Q2009.6 230.36 2011.08 231.703 Q2012.58 233.022 2015.15 233.022 Q2018.69 233.022 2020.82 230.522 Q2022.98 227.999 2022.98 223.832 L2022.98 222.883 L2018.74 222.883 M2027.24 221.124 L2027.24 235.916 L2022.98 235.916 L2022.98 231.981 Q2021.52 234.342 2019.34 235.476 Q2017.17 236.587 2014.02 236.587 Q2010.04 236.587 2007.68 234.365 Q2005.34 232.119 2005.34 228.369 Q2005.34 223.994 2008.25 221.772 Q2011.19 219.55 2017 219.55 L2022.98 219.55 L2022.98 219.133 Q2022.98 216.194 2021.03 214.596 Q2019.11 212.976 2015.61 212.976 Q2013.39 212.976 2011.29 213.508 Q2009.18 214.041 2007.24 215.106 L2007.24 211.17 Q2009.57 210.268 2011.77 209.828 Q2013.97 209.365 2016.05 209.365 Q2021.68 209.365 2024.46 212.282 Q2027.24 215.198 2027.24 221.124 Z" fill="#000000" fill-rule="evenodd" fill-opacity="1" /><path clip-path="url(#clip550)" d="M2036.01 209.99 L2040.27 209.99 L2040.27 236.379 Q2040.27 241.332 2038.37 243.555 Q2036.49 245.777 2032.3 245.777 L2030.68 245.777 L2030.68 242.166 L2031.82 242.166 Q2034.25 242.166 2035.13 241.031 Q2036.01 239.92 2036.01 236.379 L2036.01 209.99 M2036.01 199.897 L2040.27 199.897 L2040.27 205.291 L2036.01 205.291 L2036.01 199.897 Z" fill="#000000" fill-rule="evenodd" fill-opacity="1" /><path clip-path="url(#clip550)" d="M2071.36 221.888 L2071.36 223.971 L2051.77 223.971 Q2052.05 228.369 2054.41 230.684 Q2056.8 232.976 2061.03 232.976 Q2063.48 232.976 2065.78 232.374 Q2068.09 231.772 2070.36 230.569 L2070.36 234.596 Q2068.07 235.568 2065.66 236.078 Q2063.25 236.587 2060.78 236.587 Q2054.57 236.587 2050.94 232.976 Q2047.33 229.365 2047.33 223.207 Q2047.33 216.842 2050.75 213.115 Q2054.2 209.365 2060.04 209.365 Q2065.27 209.365 2068.3 212.745 Q2071.36 216.101 2071.36 221.888 M2067.1 220.638 Q2067.05 217.143 2065.13 215.059 Q2063.23 212.976 2060.08 212.976 Q2056.52 212.976 2054.36 214.99 Q2052.23 217.004 2051.91 220.661 L2067.1 220.638 Z" fill="#000000" fill-rule="evenodd" fill-opacity="1" /><path clip-path="url(#clip550)" d="M2097 210.985 L2097 214.967 Q2095.2 213.971 2093.37 213.485 Q2091.56 212.976 2089.71 212.976 Q2085.57 212.976 2083.28 215.615 Q2080.98 218.231 2080.98 222.976 Q2080.98 227.721 2083.28 230.36 Q2085.57 232.976 2089.71 232.976 Q2091.56 232.976 2093.37 232.49 Q2095.2 231.981 2097 230.985 L2097 234.92 Q2095.22 235.754 2093.3 236.17 Q2091.4 236.587 2089.25 236.587 Q2083.39 236.587 2079.94 232.906 Q2076.49 229.226 2076.49 222.976 Q2076.49 216.633 2079.97 212.999 Q2083.46 209.365 2089.53 209.365 Q2091.49 209.365 2093.37 209.782 Q2095.24 210.175 2097 210.985 Z" fill="#000000" fill-rule="evenodd" fill-opacity="1" /><path clip-path="url(#clip550)" d="M2108.62 202.629 L2108.62 209.99 L2117.4 209.99 L2117.4 213.3 L2108.62 213.3 L2108.62 227.374 Q2108.62 230.545 2109.48 231.448 Q2110.36 232.351 2113.02 232.351 L2117.4 232.351 L2117.4 235.916 L2113.02 235.916 Q2108.09 235.916 2106.22 234.087 Q2104.34 232.235 2104.34 227.374 L2104.34 213.3 L2101.22 213.3 L2101.22 209.99 L2104.34 209.99 L2104.34 202.629 L2108.62 202.629 Z" fill="#000000" fill-rule="evenodd" fill-opacity="1" /><path clip-path="url(#clip550)" d="M2133.04 212.976 Q2129.62 212.976 2127.63 215.661 Q2125.64 218.323 2125.64 222.976 Q2125.64 227.629 2127.6 230.314 Q2129.6 232.976 2133.04 232.976 Q2136.45 232.976 2138.44 230.291 Q2140.43 227.606 2140.43 222.976 Q2140.43 218.37 2138.44 215.684 Q2136.45 212.976 2133.04 212.976 M2133.04 209.365 Q2138.6 209.365 2141.77 212.976 Q2144.94 216.587 2144.94 222.976 Q2144.94 229.342 2141.77 232.976 Q2138.6 236.587 2133.04 236.587 Q2127.47 236.587 2124.29 232.976 Q2121.15 229.342 2121.15 222.976 Q2121.15 216.587 2124.29 212.976 Q2127.47 209.365 2133.04 209.365 Z" fill="#000000" fill-rule="evenodd" fill-opacity="1" /><path clip-path="url(#clip550)" d="M2167.03 213.971 Q2166.31 213.555 2165.45 213.37 Q2164.62 213.161 2163.6 213.161 Q2159.99 213.161 2158.04 215.522 Q2156.12 217.86 2156.12 222.258 L2156.12 235.916 L2151.84 235.916 L2151.84 209.99 L2156.12 209.99 L2156.12 214.018 Q2157.47 211.657 2159.62 210.522 Q2161.77 209.365 2164.85 209.365 Q2165.29 209.365 2165.82 209.434 Q2166.35 209.481 2167 209.596 L2167.03 213.971 Z" fill="#000000" fill-rule="evenodd" fill-opacity="1" /><path clip-path="url(#clip550)" d="M2182.28 238.323 Q2180.48 242.953 2178.76 244.365 Q2177.05 245.777 2174.18 245.777 L2170.78 245.777 L2170.78 242.212 L2173.28 242.212 Q2175.04 242.212 2176.01 241.379 Q2176.98 240.545 2178.16 237.443 L2178.92 235.499 L2168.44 209.99 L2172.95 209.99 L2181.05 230.268 L2189.16 209.99 L2193.67 209.99 L2182.28 238.323 Z" fill="#000000" fill-rule="evenodd" fill-opacity="1" /><path clip-path="url(#clip550)" d="M2216.03 231.981 L2223.67 231.981 L2223.67 205.615 L2215.36 207.282 L2215.36 203.022 L2223.62 201.356 L2228.3 201.356 L2228.3 231.981 L2235.94 231.981 L2235.94 235.916 L2216.03 235.916 L2216.03 231.981 Z" fill="#000000" fill-rule="evenodd" fill-opacity="1" /><polyline clip-path="url(#clip550)" style="stroke:#e26f46; stroke-linecap:butt; stroke-linejoin:round; stroke-width:4; stroke-opacity:1; fill:none" points="
  1797.32,270.476 1937.51,270.476 
  "/>
<path clip-path="url(#clip550)" d="M1960.87 253.196 L1990.11 253.196 L1990.11 257.131 L1977.84 257.131 L1977.84 287.756 L1973.14 287.756 L1973.14 257.131 L1960.87 257.131 L1960.87 253.196 Z" fill="#000000" fill-rule="evenodd" fill-opacity="1" /><path clip-path="url(#clip550)" d="M2002.49 265.811 Q2001.77 265.395 2000.92 265.21 Q2000.08 265.001 1999.06 265.001 Q1995.45 265.001 1993.51 267.362 Q1991.59 269.7 1991.59 274.098 L1991.59 287.756 L1987.3 287.756 L1987.3 261.83 L1991.59 261.83 L1991.59 265.858 Q1992.93 263.497 1995.08 262.362 Q1997.24 261.205 2000.31 261.205 Q2000.75 261.205 2001.29 261.274 Q2001.82 261.321 2002.47 261.436 L2002.49 265.811 Z" fill="#000000" fill-rule="evenodd" fill-opacity="1" /><path clip-path="url(#clip550)" d="M2018.74 274.723 Q2013.58 274.723 2011.59 275.904 Q2009.6 277.084 2009.6 279.932 Q2009.6 282.2 2011.08 283.543 Q2012.58 284.862 2015.15 284.862 Q2018.69 284.862 2020.82 282.362 Q2022.98 279.839 2022.98 275.672 L2022.98 274.723 L2018.74 274.723 M2027.24 272.964 L2027.24 287.756 L2022.98 287.756 L2022.98 283.821 Q2021.52 286.182 2019.34 287.316 Q2017.17 288.427 2014.02 288.427 Q2010.04 288.427 2007.68 286.205 Q2005.34 283.959 2005.34 280.209 Q2005.34 275.834 2008.25 273.612 Q2011.19 271.39 2017 271.39 L2022.98 271.39 L2022.98 270.973 Q2022.98 268.034 2021.03 266.436 Q2019.11 264.816 2015.61 264.816 Q2013.39 264.816 2011.29 265.348 Q2009.18 265.881 2007.24 266.946 L2007.24 263.01 Q2009.57 262.108 2011.77 261.668 Q2013.97 261.205 2016.05 261.205 Q2021.68 261.205 2024.46 264.122 Q2027.24 267.038 2027.24 272.964 Z" fill="#000000" fill-rule="evenodd" fill-opacity="1" /><path clip-path="url(#clip550)" d="M2036.01 261.83 L2040.27 261.83 L2040.27 288.219 Q2040.27 293.172 2038.37 295.395 Q2036.49 297.617 2032.3 297.617 L2030.68 297.617 L2030.68 294.006 L2031.82 294.006 Q2034.25 294.006 2035.13 292.871 Q2036.01 291.76 2036.01 288.219 L2036.01 261.83 M2036.01 251.737 L2040.27 251.737 L2040.27 257.131 L2036.01 257.131 L2036.01 251.737 Z" fill="#000000" fill-rule="evenodd" fill-opacity="1" /><path clip-path="url(#clip550)" d="M2071.36 273.728 L2071.36 275.811 L2051.77 275.811 Q2052.05 280.209 2054.41 282.524 Q2056.8 284.816 2061.03 284.816 Q2063.48 284.816 2065.78 284.214 Q2068.09 283.612 2070.36 282.409 L2070.36 286.436 Q2068.07 287.408 2065.66 287.918 Q2063.25 288.427 2060.78 288.427 Q2054.57 288.427 2050.94 284.816 Q2047.33 281.205 2047.33 275.047 Q2047.33 268.682 2050.75 264.955 Q2054.2 261.205 2060.04 261.205 Q2065.27 261.205 2068.3 264.585 Q2071.36 267.941 2071.36 273.728 M2067.1 272.478 Q2067.05 268.983 2065.13 266.899 Q2063.23 264.816 2060.08 264.816 Q2056.52 264.816 2054.36 266.83 Q2052.23 268.844 2051.91 272.501 L2067.1 272.478 Z" fill="#000000" fill-rule="evenodd" fill-opacity="1" /><path clip-path="url(#clip550)" d="M2097 262.825 L2097 266.807 Q2095.2 265.811 2093.37 265.325 Q2091.56 264.816 2089.71 264.816 Q2085.57 264.816 2083.28 267.455 Q2080.98 270.071 2080.98 274.816 Q2080.98 279.561 2083.28 282.2 Q2085.57 284.816 2089.71 284.816 Q2091.56 284.816 2093.37 284.33 Q2095.2 283.821 2097 282.825 L2097 286.76 Q2095.22 287.594 2093.3 288.01 Q2091.4 288.427 2089.25 288.427 Q2083.39 288.427 2079.94 284.746 Q2076.49 281.066 2076.49 274.816 Q2076.49 268.473 2079.97 264.839 Q2083.46 261.205 2089.53 261.205 Q2091.49 261.205 2093.37 261.622 Q2095.24 262.015 2097 262.825 Z" fill="#000000" fill-rule="evenodd" fill-opacity="1" /><path clip-path="url(#clip550)" d="M2108.62 254.469 L2108.62 261.83 L2117.4 261.83 L2117.4 265.14 L2108.62 265.14 L2108.62 279.214 Q2108.62 282.385 2109.48 283.288 Q2110.36 284.191 2113.02 284.191 L2117.4 284.191 L2117.4 287.756 L2113.02 287.756 Q2108.09 287.756 2106.22 285.927 Q2104.34 284.075 2104.34 279.214 L2104.34 265.14 L2101.22 265.14 L2101.22 261.83 L2104.34 261.83 L2104.34 254.469 L2108.62 254.469 Z" fill="#000000" fill-rule="evenodd" fill-opacity="1" /><path clip-path="url(#clip550)" d="M2133.04 264.816 Q2129.62 264.816 2127.63 267.501 Q2125.64 270.163 2125.64 274.816 Q2125.64 279.469 2127.6 282.154 Q2129.6 284.816 2133.04 284.816 Q2136.45 284.816 2138.44 282.131 Q2140.43 279.446 2140.43 274.816 Q2140.43 270.21 2138.44 267.524 Q2136.45 264.816 2133.04 264.816 M2133.04 261.205 Q2138.6 261.205 2141.77 264.816 Q2144.94 268.427 2144.94 274.816 Q2144.94 281.182 2141.77 284.816 Q2138.6 288.427 2133.04 288.427 Q2127.47 288.427 2124.29 284.816 Q2121.15 281.182 2121.15 274.816 Q2121.15 268.427 2124.29 264.816 Q2127.47 261.205 2133.04 261.205 Z" fill="#000000" fill-rule="evenodd" fill-opacity="1" /><path clip-path="url(#clip550)" d="M2167.03 265.811 Q2166.31 265.395 2165.45 265.21 Q2164.62 265.001 2163.6 265.001 Q2159.99 265.001 2158.04 267.362 Q2156.12 269.7 2156.12 274.098 L2156.12 287.756 L2151.84 287.756 L2151.84 261.83 L2156.12 261.83 L2156.12 265.858 Q2157.47 263.497 2159.62 262.362 Q2161.77 261.205 2164.85 261.205 Q2165.29 261.205 2165.82 261.274 Q2166.35 261.321 2167 261.436 L2167.03 265.811 Z" fill="#000000" fill-rule="evenodd" fill-opacity="1" /><path clip-path="url(#clip550)" d="M2182.28 290.163 Q2180.48 294.793 2178.76 296.205 Q2177.05 297.617 2174.18 297.617 L2170.78 297.617 L2170.78 294.052 L2173.28 294.052 Q2175.04 294.052 2176.01 293.219 Q2176.98 292.385 2178.16 289.283 L2178.92 287.339 L2168.44 261.83 L2172.95 261.83 L2181.05 282.108 L2189.16 261.83 L2193.67 261.83 L2182.28 290.163 Z" fill="#000000" fill-rule="evenodd" fill-opacity="1" /><path clip-path="url(#clip550)" d="M2219.25 283.821 L2235.57 283.821 L2235.57 287.756 L2213.62 287.756 L2213.62 283.821 Q2216.29 281.066 2220.87 276.436 Q2225.47 271.784 2226.66 270.441 Q2228.9 267.918 2229.78 266.182 Q2230.68 264.423 2230.68 262.733 Q2230.68 259.978 2228.74 258.242 Q2226.82 256.506 2223.72 256.506 Q2221.52 256.506 2219.06 257.27 Q2216.63 258.034 2213.85 259.585 L2213.85 254.862 Q2216.68 253.728 2219.13 253.149 Q2221.59 252.571 2223.62 252.571 Q2228.99 252.571 2232.19 255.256 Q2235.38 257.941 2235.38 262.432 Q2235.38 264.561 2234.57 266.483 Q2233.78 268.381 2231.68 270.973 Q2231.1 271.645 2228 274.862 Q2224.9 278.057 2219.25 283.821 Z" fill="#000000" fill-rule="evenodd" fill-opacity="1" /></svg>
