<?xml version="1.0" encoding="utf-8"?>
<svg xmlns="http://www.w3.org/2000/svg" xmlns:xlink="http://www.w3.org/1999/xlink" width="600" height="400" viewBox="0 0 2400 1600">
<defs>
  <clipPath id="clip320">
    <rect x="0" y="0" width="2400" height="1600"/>
  </clipPath>
</defs>
<path clip-path="url(#clip320)" d="
M0 1600 L2400 1600 L2400 0 L0 0  Z
  " fill="#ffffff" fill-rule="evenodd" fill-opacity="1"/>
<defs>
  <clipPath id="clip321">
    <rect x="480" y="0" width="1681" height="1600"/>
  </clipPath>
</defs>
<defs>
  <clipPath id="clip322">
    <rect x="250" y="123" width="2104" height="1301"/>
  </clipPath>
</defs>
<path clip-path="url(#clip320)" d="
M279.704 1423.18 L2352.76 1423.18 L2352.76 123.472 L279.704 123.472  Z
  " fill="#ffffff" fill-rule="evenodd" fill-opacity="1"/>
<defs>
  <clipPath id="clip323">
    <rect x="279" y="123" width="2074" height="1301"/>
  </clipPath>
</defs>
<polyline clip-path="url(#clip323)" style="stroke:#000000; stroke-linecap:butt; stroke-linejoin:round; stroke-width:2; stroke-opacity:0.1; fill:none" points="
  338.375,1423.18 338.375,123.472 
  "/>
<polyline clip-path="url(#clip323)" style="stroke:#000000; stroke-linecap:butt; stroke-linejoin:round; stroke-width:2; stroke-opacity:0.1; fill:none" points="
  693.959,1423.18 693.959,123.472 
  "/>
<polyline clip-path="url(#clip323)" style="stroke:#000000; stroke-linecap:butt; stroke-linejoin:round; stroke-width:2; stroke-opacity:0.1; fill:none" points="
  1049.54,1423.18 1049.54,123.472 
  "/>
<polyline clip-path="url(#clip323)" style="stroke:#000000; stroke-linecap:butt; stroke-linejoin:round; stroke-width:2; stroke-opacity:0.1; fill:none" points="
  1405.13,1423.18 1405.13,123.472 
  "/>
<polyline clip-path="url(#clip323)" style="stroke:#000000; stroke-linecap:butt; stroke-linejoin:round; stroke-width:2; stroke-opacity:0.1; fill:none" points="
  1760.71,1423.18 1760.71,123.472 
  "/>
<polyline clip-path="url(#clip323)" style="stroke:#000000; stroke-linecap:butt; stroke-linejoin:round; stroke-width:2; stroke-opacity:0.1; fill:none" points="
  2116.29,1423.18 2116.29,123.472 
  "/>
<polyline clip-path="url(#clip320)" style="stroke:#000000; stroke-linecap:butt; stroke-linejoin:round; stroke-width:4; stroke-opacity:1; fill:none" points="
  279.704,1423.18 2352.76,1423.18 
  "/>
<polyline clip-path="url(#clip320)" style="stroke:#000000; stroke-linecap:butt; stroke-linejoin:round; stroke-width:4; stroke-opacity:1; fill:none" points="
  338.375,1423.18 338.375,1404.28 
  "/>
<polyline clip-path="url(#clip320)" style="stroke:#000000; stroke-linecap:butt; stroke-linejoin:round; stroke-width:4; stroke-opacity:1; fill:none" points="
  693.959,1423.18 693.959,1404.28 
  "/>
<polyline clip-path="url(#clip320)" style="stroke:#000000; stroke-linecap:butt; stroke-linejoin:round; stroke-width:4; stroke-opacity:1; fill:none" points="
  1049.54,1423.18 1049.54,1404.28 
  "/>
<polyline clip-path="url(#clip320)" style="stroke:#000000; stroke-linecap:butt; stroke-linejoin:round; stroke-width:4; stroke-opacity:1; fill:none" points="
  1405.13,1423.18 1405.13,1404.28 
  "/>
<polyline clip-path="url(#clip320)" style="stroke:#000000; stroke-linecap:butt; stroke-linejoin:round; stroke-width:4; stroke-opacity:1; fill:none" points="
  1760.71,1423.18 1760.71,1404.28 
  "/>
<polyline clip-path="url(#clip320)" style="stroke:#000000; stroke-linecap:butt; stroke-linejoin:round; stroke-width:4; stroke-opacity:1; fill:none" points="
  2116.29,1423.18 2116.29,1404.28 
  "/>
<path clip-path="url(#clip320)" d="M338.375 1454.1 Q334.764 1454.1 332.935 1457.66 Q331.13 1461.2 331.13 1468.33 Q331.13 1475.44 332.935 1479.01 Q334.764 1482.55 338.375 1482.55 Q342.009 1482.55 343.815 1479.01 Q345.644 1475.44 345.644 1468.33 Q345.644 1461.2 343.815 1457.66 Q342.009 1454.1 338.375 1454.1 M338.375 1450.39 Q344.185 1450.39 347.241 1455 Q350.32 1459.58 350.32 1468.33 Q350.32 1477.06 347.241 1481.67 Q344.185 1486.25 338.375 1486.25 Q332.565 1486.25 329.486 1481.67 Q326.431 1477.06 326.431 1468.33 Q326.431 1459.58 329.486 1455 Q332.565 1450.39 338.375 1450.39 Z" fill="#000000" fill-rule="evenodd" fill-opacity="1" /><path clip-path="url(#clip320)" d="M653.565 1481.64 L661.204 1481.64 L661.204 1455.28 L652.894 1456.95 L652.894 1452.69 L661.158 1451.02 L665.834 1451.02 L665.834 1481.64 L673.473 1481.64 L673.473 1485.58 L653.565 1485.58 L653.565 1481.64 Z" fill="#000000" fill-rule="evenodd" fill-opacity="1" /><path clip-path="url(#clip320)" d="M692.917 1454.1 Q689.306 1454.1 687.477 1457.66 Q685.672 1461.2 685.672 1468.33 Q685.672 1475.44 687.477 1479.01 Q689.306 1482.55 692.917 1482.55 Q696.551 1482.55 698.357 1479.01 Q700.186 1475.44 700.186 1468.33 Q700.186 1461.2 698.357 1457.66 Q696.551 1454.1 692.917 1454.1 M692.917 1450.39 Q698.727 1450.39 701.783 1455 Q704.861 1459.58 704.861 1468.33 Q704.861 1477.06 701.783 1481.67 Q698.727 1486.25 692.917 1486.25 Q687.107 1486.25 684.028 1481.67 Q680.973 1477.06 680.973 1468.33 Q680.973 1459.58 684.028 1455 Q687.107 1450.39 692.917 1450.39 Z" fill="#000000" fill-rule="evenodd" fill-opacity="1" /><path clip-path="url(#clip320)" d="M723.079 1454.1 Q719.468 1454.1 717.639 1457.66 Q715.834 1461.2 715.834 1468.33 Q715.834 1475.44 717.639 1479.01 Q719.468 1482.55 723.079 1482.55 Q726.713 1482.55 728.519 1479.01 Q730.347 1475.44 730.347 1468.33 Q730.347 1461.2 728.519 1457.66 Q726.713 1454.1 723.079 1454.1 M723.079 1450.39 Q728.889 1450.39 731.945 1455 Q735.023 1459.58 735.023 1468.33 Q735.023 1477.06 731.945 1481.67 Q728.889 1486.25 723.079 1486.25 Q717.269 1486.25 714.19 1481.67 Q711.135 1477.06 711.135 1468.33 Q711.135 1459.58 714.19 1455 Q717.269 1450.39 723.079 1450.39 Z" fill="#000000" fill-rule="evenodd" fill-opacity="1" /><path clip-path="url(#clip320)" d="M1013.23 1481.64 L1029.55 1481.64 L1029.55 1485.58 L1007.61 1485.58 L1007.61 1481.64 Q1010.27 1478.89 1014.85 1474.26 Q1019.46 1469.61 1020.64 1468.27 Q1022.89 1465.74 1023.77 1464.01 Q1024.67 1462.25 1024.67 1460.56 Q1024.67 1457.8 1022.73 1456.07 Q1020.8 1454.33 1017.7 1454.33 Q1015.5 1454.33 1013.05 1455.09 Q1010.62 1455.86 1007.84 1457.41 L1007.84 1452.69 Q1010.67 1451.55 1013.12 1450.97 Q1015.57 1450.39 1017.61 1450.39 Q1022.98 1450.39 1026.17 1453.08 Q1029.37 1455.77 1029.37 1460.26 Q1029.37 1462.39 1028.56 1464.31 Q1027.77 1466.2 1025.67 1468.8 Q1025.09 1469.47 1021.98 1472.69 Q1018.88 1475.88 1013.23 1481.64 Z" fill="#000000" fill-rule="evenodd" fill-opacity="1" /><path clip-path="url(#clip320)" d="M1049.37 1454.1 Q1045.76 1454.1 1043.93 1457.66 Q1042.12 1461.2 1042.12 1468.33 Q1042.12 1475.44 1043.93 1479.01 Q1045.76 1482.55 1049.37 1482.55 Q1053 1482.55 1054.81 1479.01 Q1056.64 1475.44 1056.64 1468.33 Q1056.64 1461.2 1054.81 1457.66 Q1053 1454.1 1049.37 1454.1 M1049.37 1450.39 Q1055.18 1450.39 1058.23 1455 Q1061.31 1459.58 1061.31 1468.33 Q1061.31 1477.06 1058.23 1481.67 Q1055.18 1486.25 1049.37 1486.25 Q1043.56 1486.25 1040.48 1481.67 Q1037.42 1477.06 1037.42 1468.33 Q1037.42 1459.58 1040.48 1455 Q1043.56 1450.39 1049.37 1450.39 Z" fill="#000000" fill-rule="evenodd" fill-opacity="1" /><path clip-path="url(#clip320)" d="M1079.53 1454.1 Q1075.92 1454.1 1074.09 1457.66 Q1072.29 1461.2 1072.29 1468.33 Q1072.29 1475.44 1074.09 1479.01 Q1075.92 1482.55 1079.53 1482.55 Q1083.16 1482.55 1084.97 1479.01 Q1086.8 1475.44 1086.8 1468.33 Q1086.8 1461.2 1084.97 1457.66 Q1083.16 1454.1 1079.53 1454.1 M1079.53 1450.39 Q1085.34 1450.39 1088.4 1455 Q1091.47 1459.58 1091.47 1468.33 Q1091.47 1477.06 1088.4 1481.67 Q1085.34 1486.25 1079.53 1486.25 Q1073.72 1486.25 1070.64 1481.67 Q1067.59 1477.06 1067.59 1468.33 Q1067.59 1459.58 1070.64 1455 Q1073.72 1450.39 1079.53 1450.39 Z" fill="#000000" fill-rule="evenodd" fill-opacity="1" /><path clip-path="url(#clip320)" d="M1378.89 1466.95 Q1382.24 1467.66 1384.12 1469.93 Q1386.02 1472.2 1386.02 1475.53 Q1386.02 1480.65 1382.5 1483.45 Q1378.98 1486.25 1372.5 1486.25 Q1370.32 1486.25 1368.01 1485.81 Q1365.72 1485.39 1363.26 1484.54 L1363.26 1480.02 Q1365.21 1481.16 1367.52 1481.74 Q1369.84 1482.32 1372.36 1482.32 Q1376.76 1482.32 1379.05 1480.58 Q1381.36 1478.84 1381.36 1475.53 Q1381.36 1472.48 1379.21 1470.77 Q1377.08 1469.03 1373.26 1469.03 L1369.23 1469.03 L1369.23 1465.19 L1373.45 1465.19 Q1376.9 1465.19 1378.73 1463.82 Q1380.55 1462.43 1380.55 1459.84 Q1380.55 1457.18 1378.66 1455.77 Q1376.78 1454.33 1373.26 1454.33 Q1371.34 1454.33 1369.14 1454.75 Q1366.94 1455.16 1364.3 1456.04 L1364.3 1451.88 Q1366.97 1451.14 1369.28 1450.77 Q1371.62 1450.39 1373.68 1450.39 Q1379 1450.39 1382.11 1452.83 Q1385.21 1455.23 1385.21 1459.35 Q1385.21 1462.22 1383.56 1464.21 Q1381.92 1466.18 1378.89 1466.95 Z" fill="#000000" fill-rule="evenodd" fill-opacity="1" /><path clip-path="url(#clip320)" d="M1404.88 1454.1 Q1401.27 1454.1 1399.44 1457.66 Q1397.64 1461.2 1397.64 1468.33 Q1397.64 1475.44 1399.44 1479.01 Q1401.27 1482.55 1404.88 1482.55 Q1408.52 1482.55 1410.32 1479.01 Q1412.15 1475.44 1412.15 1468.33 Q1412.15 1461.2 1410.32 1457.66 Q1408.52 1454.1 1404.88 1454.1 M1404.88 1450.39 Q1410.69 1450.39 1413.75 1455 Q1416.83 1459.58 1416.83 1468.33 Q1416.83 1477.06 1413.75 1481.67 Q1410.69 1486.25 1404.88 1486.25 Q1399.07 1486.25 1395.99 1481.67 Q1392.94 1477.06 1392.94 1468.33 Q1392.94 1459.58 1395.99 1455 Q1399.07 1450.39 1404.88 1450.39 Z" fill="#000000" fill-rule="evenodd" fill-opacity="1" /><path clip-path="url(#clip320)" d="M1435.04 1454.1 Q1431.43 1454.1 1429.6 1457.66 Q1427.8 1461.2 1427.8 1468.33 Q1427.8 1475.44 1429.6 1479.01 Q1431.43 1482.55 1435.04 1482.55 Q1438.68 1482.55 1440.48 1479.01 Q1442.31 1475.44 1442.31 1468.33 Q1442.31 1461.2 1440.48 1457.66 Q1438.68 1454.1 1435.04 1454.1 M1435.04 1450.39 Q1440.85 1450.39 1443.91 1455 Q1446.99 1459.58 1446.99 1468.33 Q1446.99 1477.06 1443.91 1481.67 Q1440.85 1486.25 1435.04 1486.25 Q1429.23 1486.25 1426.16 1481.67 Q1423.1 1477.06 1423.1 1468.33 Q1423.1 1459.58 1426.16 1455 Q1429.23 1450.39 1435.04 1450.39 Z" fill="#000000" fill-rule="evenodd" fill-opacity="1" /><path clip-path="url(#clip320)" d="M1733.8 1455.09 L1721.99 1473.54 L1733.8 1473.54 L1733.8 1455.09 M1732.57 1451.02 L1738.45 1451.02 L1738.45 1473.54 L1743.38 1473.54 L1743.38 1477.43 L1738.45 1477.43 L1738.45 1485.58 L1733.8 1485.58 L1733.8 1477.43 L1718.2 1477.43 L1718.2 1472.92 L1732.57 1451.02 Z" fill="#000000" fill-rule="evenodd" fill-opacity="1" /><path clip-path="url(#clip320)" d="M1761.11 1454.1 Q1757.5 1454.1 1755.67 1457.66 Q1753.87 1461.2 1753.87 1468.33 Q1753.87 1475.44 1755.67 1479.01 Q1757.5 1482.55 1761.11 1482.55 Q1764.75 1482.55 1766.55 1479.01 Q1768.38 1475.44 1768.38 1468.33 Q1768.38 1461.2 1766.55 1457.66 Q1764.75 1454.1 1761.11 1454.1 M1761.11 1450.39 Q1766.92 1450.39 1769.98 1455 Q1773.06 1459.58 1773.06 1468.33 Q1773.06 1477.06 1769.98 1481.67 Q1766.92 1486.25 1761.11 1486.25 Q1755.3 1486.25 1752.23 1481.67 Q1749.17 1477.06 1749.17 1468.33 Q1749.17 1459.58 1752.23 1455 Q1755.3 1450.39 1761.11 1450.39 Z" fill="#000000" fill-rule="evenodd" fill-opacity="1" /><path clip-path="url(#clip320)" d="M1791.28 1454.1 Q1787.67 1454.1 1785.84 1457.66 Q1784.03 1461.2 1784.03 1468.33 Q1784.03 1475.44 1785.84 1479.01 Q1787.67 1482.55 1791.28 1482.55 Q1794.91 1482.55 1796.72 1479.01 Q1798.54 1475.44 1798.54 1468.33 Q1798.54 1461.2 1796.72 1457.66 Q1794.91 1454.1 1791.28 1454.1 M1791.28 1450.39 Q1797.09 1450.39 1800.14 1455 Q1803.22 1459.58 1803.22 1468.33 Q1803.22 1477.06 1800.14 1481.67 Q1797.09 1486.25 1791.28 1486.25 Q1785.47 1486.25 1782.39 1481.67 Q1779.33 1477.06 1779.33 1468.33 Q1779.33 1459.58 1782.39 1455 Q1785.47 1450.39 1791.28 1450.39 Z" fill="#000000" fill-rule="evenodd" fill-opacity="1" /><path clip-path="url(#clip320)" d="M2075.91 1451.02 L2094.27 1451.02 L2094.27 1454.96 L2080.19 1454.96 L2080.19 1463.43 Q2081.21 1463.08 2082.23 1462.92 Q2083.25 1462.73 2084.27 1462.73 Q2090.05 1462.73 2093.43 1465.9 Q2096.81 1469.08 2096.81 1474.49 Q2096.81 1480.07 2093.34 1483.17 Q2089.87 1486.25 2083.55 1486.25 Q2081.37 1486.25 2079.11 1485.88 Q2076.86 1485.51 2074.45 1484.77 L2074.45 1480.07 Q2076.54 1481.2 2078.76 1481.76 Q2080.98 1482.32 2083.46 1482.32 Q2087.46 1482.32 2089.8 1480.21 Q2092.14 1478.1 2092.14 1474.49 Q2092.14 1470.88 2089.8 1468.77 Q2087.46 1466.67 2083.46 1466.67 Q2081.58 1466.67 2079.71 1467.08 Q2077.86 1467.5 2075.91 1468.38 L2075.91 1451.02 Z" fill="#000000" fill-rule="evenodd" fill-opacity="1" /><path clip-path="url(#clip320)" d="M2116.03 1454.1 Q2112.42 1454.1 2110.59 1457.66 Q2108.78 1461.2 2108.78 1468.33 Q2108.78 1475.44 2110.59 1479.01 Q2112.42 1482.55 2116.03 1482.55 Q2119.66 1482.55 2121.47 1479.01 Q2123.3 1475.44 2123.3 1468.33 Q2123.3 1461.2 2121.47 1457.66 Q2119.66 1454.1 2116.03 1454.1 M2116.03 1450.39 Q2121.84 1450.39 2124.89 1455 Q2127.97 1459.58 2127.97 1468.33 Q2127.97 1477.06 2124.89 1481.67 Q2121.84 1486.25 2116.03 1486.25 Q2110.22 1486.25 2107.14 1481.67 Q2104.08 1477.06 2104.08 1468.33 Q2104.08 1459.58 2107.14 1455 Q2110.22 1450.39 2116.03 1450.39 Z" fill="#000000" fill-rule="evenodd" fill-opacity="1" /><path clip-path="url(#clip320)" d="M2146.19 1454.1 Q2142.58 1454.1 2140.75 1457.66 Q2138.94 1461.2 2138.94 1468.33 Q2138.94 1475.44 2140.75 1479.01 Q2142.58 1482.55 2146.19 1482.55 Q2149.82 1482.55 2151.63 1479.01 Q2153.46 1475.44 2153.46 1468.33 Q2153.46 1461.2 2151.63 1457.66 Q2149.82 1454.1 2146.19 1454.1 M2146.19 1450.39 Q2152 1450.39 2155.05 1455 Q2158.13 1459.58 2158.13 1468.33 Q2158.13 1477.06 2155.05 1481.67 Q2152 1486.25 2146.19 1486.25 Q2140.38 1486.25 2137.3 1481.67 Q2134.24 1477.06 2134.24 1468.33 Q2134.24 1459.58 2137.3 1455 Q2140.38 1450.39 2146.19 1450.39 Z" fill="#000000" fill-rule="evenodd" fill-opacity="1" /><path clip-path="url(#clip320)" d="M1324.7 1548.54 Q1324.7 1549.45 1324.28 1549.67 Q1323.86 1549.87 1322.7 1549.87 L1316.52 1549.87 L1311.63 1569.32 Q1311.24 1571.02 1311.24 1572.47 Q1311.24 1574.08 1311.72 1574.79 Q1312.24 1575.5 1313.3 1575.5 Q1315.39 1575.5 1317.65 1573.6 Q1319.93 1571.7 1321.87 1567.06 Q1322.12 1566.45 1322.25 1566.32 Q1322.41 1566.16 1322.83 1566.16 Q1323.64 1566.16 1323.64 1566.81 Q1323.64 1567.03 1323.19 1568.06 Q1322.77 1569.09 1321.83 1570.61 Q1320.93 1572.12 1319.74 1573.54 Q1318.58 1574.95 1316.81 1575.98 Q1315.04 1576.98 1313.14 1576.98 Q1310.47 1576.98 1308.76 1575.28 Q1307.08 1573.57 1307.08 1570.9 Q1307.08 1570.03 1307.76 1567.26 Q1308.44 1564.45 1312.11 1549.87 L1306.28 1549.87 Q1305.47 1549.87 1305.15 1549.83 Q1304.86 1549.8 1304.64 1549.64 Q1304.44 1549.45 1304.44 1549.06 Q1304.44 1548.45 1304.7 1548.19 Q1304.96 1547.9 1305.28 1547.87 Q1305.64 1547.8 1306.44 1547.8 L1312.62 1547.8 L1315.2 1537.34 Q1315.46 1536.31 1316.1 1535.73 Q1316.78 1535.12 1317.16 1535.05 Q1317.55 1534.95 1317.84 1534.95 Q1318.71 1534.95 1319.23 1535.44 Q1319.74 1535.89 1319.74 1536.73 Q1319.74 1537.18 1317.04 1547.8 L1322.83 1547.8 Q1323.57 1547.8 1323.86 1547.84 Q1324.19 1547.87 1324.44 1548.03 Q1324.7 1548.19 1324.7 1548.54 Z" fill="#000000" fill-rule="evenodd" fill-opacity="1" /><polyline clip-path="url(#clip323)" style="stroke:#000000; stroke-linecap:butt; stroke-linejoin:round; stroke-width:2; stroke-opacity:0.1; fill:none" points="
  279.704,1387.16 2352.76,1387.16 
  "/>
<polyline clip-path="url(#clip323)" style="stroke:#000000; stroke-linecap:butt; stroke-linejoin:round; stroke-width:2; stroke-opacity:0.1; fill:none" points="
  279.704,1080.74 2352.76,1080.74 
  "/>
<polyline clip-path="url(#clip323)" style="stroke:#000000; stroke-linecap:butt; stroke-linejoin:round; stroke-width:2; stroke-opacity:0.1; fill:none" points="
  279.704,774.322 2352.76,774.322 
  "/>
<polyline clip-path="url(#clip323)" style="stroke:#000000; stroke-linecap:butt; stroke-linejoin:round; stroke-width:2; stroke-opacity:0.1; fill:none" points="
  279.704,467.902 2352.76,467.902 
  "/>
<polyline clip-path="url(#clip323)" style="stroke:#000000; stroke-linecap:butt; stroke-linejoin:round; stroke-width:2; stroke-opacity:0.1; fill:none" points="
  279.704,161.483 2352.76,161.483 
  "/>
<polyline clip-path="url(#clip320)" style="stroke:#000000; stroke-linecap:butt; stroke-linejoin:round; stroke-width:4; stroke-opacity:1; fill:none" points="
  279.704,1423.18 279.704,123.472 
  "/>
<polyline clip-path="url(#clip320)" style="stroke:#000000; stroke-linecap:butt; stroke-linejoin:round; stroke-width:4; stroke-opacity:1; fill:none" points="
  279.704,1387.16 298.602,1387.16 
  "/>
<polyline clip-path="url(#clip320)" style="stroke:#000000; stroke-linecap:butt; stroke-linejoin:round; stroke-width:4; stroke-opacity:1; fill:none" points="
  279.704,1080.74 298.602,1080.74 
  "/>
<polyline clip-path="url(#clip320)" style="stroke:#000000; stroke-linecap:butt; stroke-linejoin:round; stroke-width:4; stroke-opacity:1; fill:none" points="
  279.704,774.322 298.602,774.322 
  "/>
<polyline clip-path="url(#clip320)" style="stroke:#000000; stroke-linecap:butt; stroke-linejoin:round; stroke-width:4; stroke-opacity:1; fill:none" points="
  279.704,467.902 298.602,467.902 
  "/>
<polyline clip-path="url(#clip320)" style="stroke:#000000; stroke-linecap:butt; stroke-linejoin:round; stroke-width:4; stroke-opacity:1; fill:none" points="
  279.704,161.483 298.602,161.483 
  "/>
<path clip-path="url(#clip320)" d="M126.205 1372.96 Q122.593 1372.96 120.765 1376.52 Q118.959 1380.07 118.959 1387.19 Q118.959 1394.3 120.765 1397.87 Q122.593 1401.41 126.205 1401.41 Q129.839 1401.41 131.644 1397.87 Q133.473 1394.3 133.473 1387.19 Q133.473 1380.07 131.644 1376.52 Q129.839 1372.96 126.205 1372.96 M126.205 1369.26 Q132.015 1369.26 135.07 1373.86 Q138.149 1378.44 138.149 1387.19 Q138.149 1395.92 135.07 1400.53 Q132.015 1405.11 126.205 1405.11 Q120.394 1405.11 117.316 1400.53 Q114.26 1395.92 114.26 1387.19 Q114.26 1378.44 117.316 1373.86 Q120.394 1369.26 126.205 1369.26 Z" fill="#000000" fill-rule="evenodd" fill-opacity="1" /><path clip-path="url(#clip320)" d="M146.366 1398.56 L151.251 1398.56 L151.251 1404.44 L146.366 1404.44 L146.366 1398.56 Z" fill="#000000" fill-rule="evenodd" fill-opacity="1" /><path clip-path="url(#clip320)" d="M171.436 1372.96 Q167.825 1372.96 165.996 1376.52 Q164.19 1380.07 164.19 1387.19 Q164.19 1394.3 165.996 1397.87 Q167.825 1401.41 171.436 1401.41 Q175.07 1401.41 176.876 1397.87 Q178.704 1394.3 178.704 1387.19 Q178.704 1380.07 176.876 1376.52 Q175.07 1372.96 171.436 1372.96 M171.436 1369.26 Q177.246 1369.26 180.301 1373.86 Q183.38 1378.44 183.38 1387.19 Q183.38 1395.92 180.301 1400.53 Q177.246 1405.11 171.436 1405.11 Q165.626 1405.11 162.547 1400.53 Q159.491 1395.92 159.491 1387.19 Q159.491 1378.44 162.547 1373.86 Q165.626 1369.26 171.436 1369.26 Z" fill="#000000" fill-rule="evenodd" fill-opacity="1" /><path clip-path="url(#clip320)" d="M201.598 1372.96 Q197.987 1372.96 196.158 1376.52 Q194.352 1380.07 194.352 1387.19 Q194.352 1394.3 196.158 1397.87 Q197.987 1401.41 201.598 1401.41 Q205.232 1401.41 207.037 1397.87 Q208.866 1394.3 208.866 1387.19 Q208.866 1380.07 207.037 1376.52 Q205.232 1372.96 201.598 1372.96 M201.598 1369.26 Q207.408 1369.26 210.463 1373.86 Q213.542 1378.44 213.542 1387.19 Q213.542 1395.92 210.463 1400.53 Q207.408 1405.11 201.598 1405.11 Q195.787 1405.11 192.709 1400.53 Q189.653 1395.92 189.653 1387.19 Q189.653 1378.44 192.709 1373.86 Q195.787 1369.26 201.598 1369.26 Z" fill="#000000" fill-rule="evenodd" fill-opacity="1" /><path clip-path="url(#clip320)" d="M231.76 1372.96 Q228.148 1372.96 226.32 1376.52 Q224.514 1380.07 224.514 1387.19 Q224.514 1394.3 226.32 1397.87 Q228.148 1401.41 231.76 1401.41 Q235.394 1401.41 237.199 1397.87 Q239.028 1394.3 239.028 1387.19 Q239.028 1380.07 237.199 1376.52 Q235.394 1372.96 231.76 1372.96 M231.76 1369.26 Q237.57 1369.26 240.625 1373.86 Q243.704 1378.44 243.704 1387.19 Q243.704 1395.92 240.625 1400.53 Q237.57 1405.11 231.76 1405.11 Q225.949 1405.11 222.871 1400.53 Q219.815 1395.92 219.815 1387.19 Q219.815 1378.44 222.871 1373.86 Q225.949 1369.26 231.76 1369.26 Z" fill="#000000" fill-rule="evenodd" fill-opacity="1" /><path clip-path="url(#clip320)" d="M127.2 1066.54 Q123.589 1066.54 121.76 1070.1 Q119.955 1073.65 119.955 1080.78 Q119.955 1087.88 121.76 1091.45 Q123.589 1094.99 127.2 1094.99 Q130.834 1094.99 132.64 1091.45 Q134.468 1087.88 134.468 1080.78 Q134.468 1073.65 132.64 1070.1 Q130.834 1066.54 127.2 1066.54 M127.2 1062.84 Q133.01 1062.84 136.066 1067.44 Q139.144 1072.03 139.144 1080.78 Q139.144 1089.5 136.066 1094.11 Q133.01 1098.69 127.2 1098.69 Q121.39 1098.69 118.311 1094.11 Q115.256 1089.5 115.256 1080.78 Q115.256 1072.03 118.311 1067.44 Q121.39 1062.84 127.2 1062.84 Z" fill="#000000" fill-rule="evenodd" fill-opacity="1" /><path clip-path="url(#clip320)" d="M147.362 1092.14 L152.246 1092.14 L152.246 1098.02 L147.362 1098.02 L147.362 1092.14 Z" fill="#000000" fill-rule="evenodd" fill-opacity="1" /><path clip-path="url(#clip320)" d="M172.431 1066.54 Q168.82 1066.54 166.991 1070.1 Q165.186 1073.65 165.186 1080.78 Q165.186 1087.88 166.991 1091.45 Q168.82 1094.99 172.431 1094.99 Q176.065 1094.99 177.871 1091.45 Q179.7 1087.88 179.7 1080.78 Q179.7 1073.65 177.871 1070.1 Q176.065 1066.54 172.431 1066.54 M172.431 1062.84 Q178.241 1062.84 181.297 1067.44 Q184.376 1072.03 184.376 1080.78 Q184.376 1089.5 181.297 1094.11 Q178.241 1098.69 172.431 1098.69 Q166.621 1098.69 163.542 1094.11 Q160.487 1089.5 160.487 1080.78 Q160.487 1072.03 163.542 1067.44 Q166.621 1062.84 172.431 1062.84 Z" fill="#000000" fill-rule="evenodd" fill-opacity="1" /><path clip-path="url(#clip320)" d="M196.621 1094.09 L212.94 1094.09 L212.94 1098.02 L190.996 1098.02 L190.996 1094.09 Q193.658 1091.33 198.241 1086.7 Q202.848 1082.05 204.028 1080.71 Q206.274 1078.18 207.153 1076.45 Q208.056 1074.69 208.056 1073 Q208.056 1070.24 206.112 1068.51 Q204.19 1066.77 201.088 1066.77 Q198.889 1066.77 196.436 1067.53 Q194.005 1068.3 191.227 1069.85 L191.227 1065.13 Q194.051 1063.99 196.505 1063.41 Q198.959 1062.84 200.996 1062.84 Q206.366 1062.84 209.561 1065.52 Q212.755 1068.21 212.755 1072.7 Q212.755 1074.83 211.945 1076.75 Q211.158 1078.65 209.051 1081.24 Q208.473 1081.91 205.371 1085.13 Q202.269 1088.32 196.621 1094.09 Z" fill="#000000" fill-rule="evenodd" fill-opacity="1" /><path clip-path="url(#clip320)" d="M222.801 1063.46 L241.158 1063.46 L241.158 1067.4 L227.084 1067.4 L227.084 1075.87 Q228.102 1075.52 229.121 1075.36 Q230.139 1075.17 231.158 1075.17 Q236.945 1075.17 240.324 1078.35 Q243.704 1081.52 243.704 1086.93 Q243.704 1092.51 240.232 1095.61 Q236.76 1098.69 230.44 1098.69 Q228.264 1098.69 225.996 1098.32 Q223.75 1097.95 221.343 1097.21 L221.343 1092.51 Q223.426 1093.65 225.648 1094.2 Q227.871 1094.76 230.347 1094.76 Q234.352 1094.76 236.69 1092.65 Q239.028 1090.54 239.028 1086.93 Q239.028 1083.32 236.69 1081.22 Q234.352 1079.11 230.347 1079.11 Q228.473 1079.11 226.598 1079.53 Q224.746 1079.94 222.801 1080.82 L222.801 1063.46 Z" fill="#000000" fill-rule="evenodd" fill-opacity="1" /><path clip-path="url(#clip320)" d="M126.205 760.12 Q122.593 760.12 120.765 763.685 Q118.959 767.227 118.959 774.356 Q118.959 781.463 120.765 785.028 Q122.593 788.569 126.205 788.569 Q129.839 788.569 131.644 785.028 Q133.473 781.463 133.473 774.356 Q133.473 767.227 131.644 763.685 Q129.839 760.12 126.205 760.12 M126.205 756.417 Q132.015 756.417 135.07 761.023 Q138.149 765.606 138.149 774.356 Q138.149 783.083 135.07 787.69 Q132.015 792.273 126.205 792.273 Q120.394 792.273 117.316 787.69 Q114.26 783.083 114.26 774.356 Q114.26 765.606 117.316 761.023 Q120.394 756.417 126.205 756.417 Z" fill="#000000" fill-rule="evenodd" fill-opacity="1" /><path clip-path="url(#clip320)" d="M146.366 785.722 L151.251 785.722 L151.251 791.602 L146.366 791.602 L146.366 785.722 Z" fill="#000000" fill-rule="evenodd" fill-opacity="1" /><path clip-path="url(#clip320)" d="M171.436 760.12 Q167.825 760.12 165.996 763.685 Q164.19 767.227 164.19 774.356 Q164.19 781.463 165.996 785.028 Q167.825 788.569 171.436 788.569 Q175.07 788.569 176.876 785.028 Q178.704 781.463 178.704 774.356 Q178.704 767.227 176.876 763.685 Q175.07 760.12 171.436 760.12 M171.436 756.417 Q177.246 756.417 180.301 761.023 Q183.38 765.606 183.38 774.356 Q183.38 783.083 180.301 787.69 Q177.246 792.273 171.436 792.273 Q165.626 792.273 162.547 787.69 Q159.491 783.083 159.491 774.356 Q159.491 765.606 162.547 761.023 Q165.626 756.417 171.436 756.417 Z" fill="#000000" fill-rule="evenodd" fill-opacity="1" /><path clip-path="url(#clip320)" d="M191.644 757.042 L210 757.042 L210 760.977 L195.926 760.977 L195.926 769.449 Q196.945 769.102 197.963 768.94 Q198.982 768.755 200 768.755 Q205.787 768.755 209.167 771.926 Q212.547 775.097 212.547 780.514 Q212.547 786.092 209.074 789.194 Q205.602 792.273 199.283 792.273 Q197.107 792.273 194.838 791.903 Q192.593 791.532 190.186 790.791 L190.186 786.092 Q192.269 787.227 194.491 787.782 Q196.713 788.338 199.19 788.338 Q203.195 788.338 205.533 786.231 Q207.871 784.125 207.871 780.514 Q207.871 776.903 205.533 774.796 Q203.195 772.69 199.19 772.69 Q197.315 772.69 195.44 773.106 Q193.588 773.523 191.644 774.403 L191.644 757.042 Z" fill="#000000" fill-rule="evenodd" fill-opacity="1" /><path clip-path="url(#clip320)" d="M231.76 760.12 Q228.148 760.12 226.32 763.685 Q224.514 767.227 224.514 774.356 Q224.514 781.463 226.32 785.028 Q228.148 788.569 231.76 788.569 Q235.394 788.569 237.199 785.028 Q239.028 781.463 239.028 774.356 Q239.028 767.227 237.199 763.685 Q235.394 760.12 231.76 760.12 M231.76 756.417 Q237.57 756.417 240.625 761.023 Q243.704 765.606 243.704 774.356 Q243.704 783.083 240.625 787.69 Q237.57 792.273 231.76 792.273 Q225.949 792.273 222.871 787.69 Q219.815 783.083 219.815 774.356 Q219.815 765.606 222.871 761.023 Q225.949 756.417 231.76 756.417 Z" fill="#000000" fill-rule="evenodd" fill-opacity="1" /><path clip-path="url(#clip320)" d="M127.2 453.701 Q123.589 453.701 121.76 457.266 Q119.955 460.808 119.955 467.937 Q119.955 475.044 121.76 478.608 Q123.589 482.15 127.2 482.15 Q130.834 482.15 132.64 478.608 Q134.468 475.044 134.468 467.937 Q134.468 460.808 132.64 457.266 Q130.834 453.701 127.2 453.701 M127.2 449.997 Q133.01 449.997 136.066 454.604 Q139.144 459.187 139.144 467.937 Q139.144 476.664 136.066 481.27 Q133.01 485.854 127.2 485.854 Q121.39 485.854 118.311 481.27 Q115.256 476.664 115.256 467.937 Q115.256 459.187 118.311 454.604 Q121.39 449.997 127.2 449.997 Z" fill="#000000" fill-rule="evenodd" fill-opacity="1" /><path clip-path="url(#clip320)" d="M147.362 479.303 L152.246 479.303 L152.246 485.182 L147.362 485.182 L147.362 479.303 Z" fill="#000000" fill-rule="evenodd" fill-opacity="1" /><path clip-path="url(#clip320)" d="M172.431 453.701 Q168.82 453.701 166.991 457.266 Q165.186 460.808 165.186 467.937 Q165.186 475.044 166.991 478.608 Q168.82 482.15 172.431 482.15 Q176.065 482.15 177.871 478.608 Q179.7 475.044 179.7 467.937 Q179.7 460.808 177.871 457.266 Q176.065 453.701 172.431 453.701 M172.431 449.997 Q178.241 449.997 181.297 454.604 Q184.376 459.187 184.376 467.937 Q184.376 476.664 181.297 481.27 Q178.241 485.854 172.431 485.854 Q166.621 485.854 163.542 481.27 Q160.487 476.664 160.487 467.937 Q160.487 459.187 163.542 454.604 Q166.621 449.997 172.431 449.997 Z" fill="#000000" fill-rule="evenodd" fill-opacity="1" /><path clip-path="url(#clip320)" d="M191.413 450.622 L213.635 450.622 L213.635 452.613 L201.088 485.182 L196.204 485.182 L208.01 454.558 L191.413 454.558 L191.413 450.622 Z" fill="#000000" fill-rule="evenodd" fill-opacity="1" /><path clip-path="url(#clip320)" d="M222.801 450.622 L241.158 450.622 L241.158 454.558 L227.084 454.558 L227.084 463.03 Q228.102 462.683 229.121 462.52 Q230.139 462.335 231.158 462.335 Q236.945 462.335 240.324 465.507 Q243.704 468.678 243.704 474.094 Q243.704 479.673 240.232 482.775 Q236.76 485.854 230.44 485.854 Q228.264 485.854 225.996 485.483 Q223.75 485.113 221.343 484.372 L221.343 479.673 Q223.426 480.807 225.648 481.363 Q227.871 481.919 230.347 481.919 Q234.352 481.919 236.69 479.812 Q239.028 477.706 239.028 474.094 Q239.028 470.483 236.69 468.377 Q234.352 466.27 230.347 466.27 Q228.473 466.27 226.598 466.687 Q224.746 467.104 222.801 467.983 L222.801 450.622 Z" fill="#000000" fill-rule="evenodd" fill-opacity="1" /><path clip-path="url(#clip320)" d="M126.205 147.282 Q122.593 147.282 120.765 150.847 Q118.959 154.388 118.959 161.518 Q118.959 168.624 120.765 172.189 Q122.593 175.731 126.205 175.731 Q129.839 175.731 131.644 172.189 Q133.473 168.624 133.473 161.518 Q133.473 154.388 131.644 150.847 Q129.839 147.282 126.205 147.282 M126.205 143.578 Q132.015 143.578 135.07 148.185 Q138.149 152.768 138.149 161.518 Q138.149 170.245 135.07 174.851 Q132.015 179.434 126.205 179.434 Q120.394 179.434 117.316 174.851 Q114.26 170.245 114.26 161.518 Q114.26 152.768 117.316 148.185 Q120.394 143.578 126.205 143.578 Z" fill="#000000" fill-rule="evenodd" fill-opacity="1" /><path clip-path="url(#clip320)" d="M146.366 172.884 L151.251 172.884 L151.251 178.763 L146.366 178.763 L146.366 172.884 Z" fill="#000000" fill-rule="evenodd" fill-opacity="1" /><path clip-path="url(#clip320)" d="M162.246 174.828 L169.885 174.828 L169.885 148.462 L161.575 150.129 L161.575 145.87 L169.839 144.203 L174.514 144.203 L174.514 174.828 L182.153 174.828 L182.153 178.763 L162.246 178.763 L162.246 174.828 Z" fill="#000000" fill-rule="evenodd" fill-opacity="1" /><path clip-path="url(#clip320)" d="M201.598 147.282 Q197.987 147.282 196.158 150.847 Q194.352 154.388 194.352 161.518 Q194.352 168.624 196.158 172.189 Q197.987 175.731 201.598 175.731 Q205.232 175.731 207.037 172.189 Q208.866 168.624 208.866 161.518 Q208.866 154.388 207.037 150.847 Q205.232 147.282 201.598 147.282 M201.598 143.578 Q207.408 143.578 210.463 148.185 Q213.542 152.768 213.542 161.518 Q213.542 170.245 210.463 174.851 Q207.408 179.434 201.598 179.434 Q195.787 179.434 192.709 174.851 Q189.653 170.245 189.653 161.518 Q189.653 152.768 192.709 148.185 Q195.787 143.578 201.598 143.578 Z" fill="#000000" fill-rule="evenodd" fill-opacity="1" /><path clip-path="url(#clip320)" d="M231.76 147.282 Q228.148 147.282 226.32 150.847 Q224.514 154.388 224.514 161.518 Q224.514 168.624 226.32 172.189 Q228.148 175.731 231.76 175.731 Q235.394 175.731 237.199 172.189 Q239.028 168.624 239.028 161.518 Q239.028 154.388 237.199 150.847 Q235.394 147.282 231.76 147.282 M231.76 143.578 Q237.57 143.578 240.625 148.185 Q243.704 152.768 243.704 161.518 Q243.704 170.245 240.625 174.851 Q237.57 179.434 231.76 179.434 Q225.949 179.434 222.871 174.851 Q219.815 170.245 219.815 161.518 Q219.815 152.768 222.871 148.185 Q225.949 143.578 231.76 143.578 Z" fill="#000000" fill-rule="evenodd" fill-opacity="1" /><path clip-path="url(#clip320)" d="M27.2366 806.044 Q28.6537 806.044 29.7164 807.204 Q30.747 808.331 30.747 809.555 Q30.747 810.682 30.0707 811.391 Q29.3622 812.067 28.3638 812.067 Q27.0434 812.067 25.9484 810.94 Q24.8534 809.812 24.8534 808.492 Q24.8534 807.397 25.5297 806.721 Q26.206 806.044 27.2366 806.044 M59.0238 805.465 Q59.2814 805.465 60.312 805.755 Q61.3104 806.044 62.8563 806.753 Q64.37 807.429 65.787 808.363 Q67.2041 809.297 68.2024 810.843 Q69.2008 812.357 69.2008 814.096 Q69.2008 816.447 67.6549 817.993 Q66.1091 819.506 63.7902 819.506 Q62.5342 819.506 58.5085 817.993 Q46.7856 813.613 46.3025 813.452 Q44.4667 812.711 42.8564 812.711 Q42.1157 812.711 41.6648 812.872 Q41.1817 813.033 41.0207 813.355 Q40.8275 813.677 40.7953 813.87 Q40.7631 814.031 40.7631 814.354 Q40.7631 816.254 42.6954 818.025 Q44.6278 819.796 48.9433 821.02 Q49.7485 821.278 49.9417 821.439 Q50.135 821.6 50.135 822.083 Q50.1028 822.888 49.4586 822.888 Q49.2654 822.888 48.5247 822.663 Q47.7517 822.437 46.5923 822.018 Q45.4007 821.6 44.1769 820.859 Q42.9208 820.118 41.8258 819.217 Q40.7308 818.283 40.0223 816.962 Q39.3138 815.642 39.3138 814.16 Q39.3138 811.745 40.8919 810.263 Q42.4378 808.75 44.7244 808.75 Q45.9804 808.75 48.2026 809.619 Q51.1011 810.682 52.0351 811.069 L58.9594 813.645 Q61.4714 814.579 62.2444 814.869 Q62.9851 815.126 63.8869 815.352 Q64.7564 815.545 65.5616 815.545 Q66.6888 815.545 67.2041 815.191 Q67.7194 814.804 67.7194 813.967 Q67.7194 811.648 65.4327 809.941 Q63.1139 808.234 59.5713 807.236 Q59.4747 807.204 59.3136 807.172 Q58.5085 806.914 58.4119 806.656 Q58.3797 806.527 58.3797 806.27 Q58.3797 805.465 59.0238 805.465 Z" fill="#000000" fill-rule="evenodd" fill-opacity="1" /><path clip-path="url(#clip320)" d="M51.9707 794.824 Q40.8275 794.824 31.842 790.669 Q28.0739 788.898 24.9178 786.418 Q21.7616 783.938 20.3767 782.296 Q18.9919 780.653 18.9919 780.202 Q18.9919 779.558 19.636 779.526 Q19.9581 779.526 20.7632 780.395 Q31.5844 791.023 51.9707 790.991 Q72.4214 790.991 82.8239 780.653 Q83.9511 779.526 84.3054 779.526 Q84.9495 779.526 84.9495 780.202 Q84.9495 780.653 83.6291 782.231 Q82.3086 783.809 79.2813 786.257 Q76.2539 788.705 72.5502 790.476 Q63.5648 794.824 51.9707 794.824 Z" fill="#000000" fill-rule="evenodd" fill-opacity="1" /><path clip-path="url(#clip320)" d="M40.7631 754.255 Q41.6648 754.255 41.8903 754.673 Q42.0835 755.092 42.0835 756.252 L42.0835 762.435 L61.5358 767.33 Q63.2427 767.717 64.692 767.717 Q66.3023 767.717 67.0108 767.234 Q67.7194 766.718 67.7194 765.656 Q67.7194 763.562 65.8192 761.308 Q63.9191 759.021 59.2814 757.089 Q58.6695 756.831 58.5407 756.702 Q58.3797 756.541 58.3797 756.123 Q58.3797 755.318 59.0238 755.318 Q59.2492 755.318 60.2798 755.768 Q61.3104 756.187 62.8241 757.121 Q64.3377 758.023 65.7548 759.215 Q67.1719 760.374 68.2024 762.145 Q69.2008 763.917 69.2008 765.817 Q69.2008 768.49 67.4939 770.197 Q65.787 771.871 63.1139 771.871 Q62.2444 771.871 59.4747 771.195 Q56.6727 770.519 42.0835 766.847 L42.0835 772.677 Q42.0835 773.482 42.0513 773.804 Q42.0191 774.094 41.8581 774.319 Q41.6648 774.512 41.2783 774.512 Q40.6664 774.512 40.4088 774.255 Q40.1189 773.997 40.0867 773.675 Q40.0223 773.321 40.0223 772.516 L40.0223 766.332 L29.5554 763.756 Q28.5248 763.498 27.9451 762.854 Q27.3332 762.177 27.2688 761.791 Q27.1722 761.405 27.1722 761.115 Q27.1722 760.245 27.6553 759.73 Q28.1062 759.215 28.9435 759.215 Q29.3944 759.215 40.0223 761.92 L40.0223 756.123 Q40.0223 755.382 40.0545 755.092 Q40.0867 754.77 40.2478 754.512 Q40.4088 754.255 40.7631 754.255 Z" fill="#000000" fill-rule="evenodd" fill-opacity="1" /><path clip-path="url(#clip320)" d="M84.3054 749.091 Q83.9833 749.091 83.1782 748.254 Q72.357 737.626 51.9707 737.626 Q31.52 737.626 21.1819 747.835 Q19.9903 749.091 19.636 749.091 Q18.9919 749.091 18.9919 748.447 Q18.9919 747.996 20.3123 746.418 Q21.6328 744.808 24.6601 742.393 Q27.6875 739.945 31.3911 738.141 Q40.3766 733.794 51.9707 733.794 Q63.1139 733.794 72.0994 737.948 Q75.8674 739.719 79.0236 742.199 Q82.1798 744.679 83.5646 746.322 Q84.9495 747.964 84.9495 748.447 Q84.9495 749.091 84.3054 749.091 Z" fill="#000000" fill-rule="evenodd" fill-opacity="1" /><path clip-path="url(#clip320)" d="M666.222 17.6457 Q657.31 17.6457 652.044 24.2892 Q646.818 30.9327 646.818 42.3968 Q646.818 53.8203 652.044 60.4638 Q657.31 67.1073 666.222 67.1073 Q675.134 67.1073 680.319 60.4638 Q685.545 53.8203 685.545 42.3968 Q685.545 30.9327 680.319 24.2892 Q675.134 17.6457 666.222 17.6457 M677.686 71.4823 L688.461 83.2704 L678.577 83.2704 L669.625 73.5887 Q668.288 73.6697 667.559 73.7103 Q666.87 73.7508 666.222 73.7508 Q653.461 73.7508 645.805 65.2439 Q638.19 56.6965 638.19 42.3968 Q638.19 28.0566 645.805 19.5497 Q653.461 11.0023 666.222 11.0023 Q678.942 11.0023 686.557 19.5497 Q694.173 28.0566 694.173 42.3968 Q694.173 52.9291 689.92 60.4233 Q685.707 67.9175 677.686 71.4823 Z" fill="#000000" fill-rule="evenodd" fill-opacity="1" /><path clip-path="url(#clip320)" d="M705.88 54.671 L705.88 27.2059 L713.334 27.2059 L713.334 54.3874 Q713.334 60.8284 715.845 64.0691 Q718.357 67.2693 723.38 67.2693 Q729.416 67.2693 732.9 63.421 Q736.424 59.5726 736.424 52.9291 L736.424 27.2059 L743.878 27.2059 L743.878 72.576 L736.424 72.576 L736.424 65.6084 Q733.71 69.7404 730.105 71.7658 Q726.54 73.7508 721.8 73.7508 Q713.982 73.7508 709.931 68.8897 Q705.88 64.0286 705.88 54.671 M724.636 26.1121 L724.636 26.1121 Z" fill="#000000" fill-rule="evenodd" fill-opacity="1" /><path clip-path="url(#clip320)" d="M779.85 49.7694 Q770.816 49.7694 767.332 51.8354 Q763.849 53.9013 763.849 58.8839 Q763.849 62.8538 766.441 65.2034 Q769.074 67.5124 773.571 67.5124 Q779.769 67.5124 783.495 63.1374 Q787.263 58.7219 787.263 51.4303 L787.263 49.7694 L779.85 49.7694 M794.716 46.6907 L794.716 72.576 L787.263 72.576 L787.263 65.6895 Q784.711 69.8214 780.903 71.8063 Q777.095 73.7508 771.586 73.7508 Q764.618 73.7508 760.486 69.8619 Q756.395 65.9325 756.395 59.3701 Q756.395 51.7138 761.499 47.825 Q766.644 43.9361 776.812 43.9361 L787.263 43.9361 L787.263 43.2069 Q787.263 38.0623 783.86 35.2672 Q780.498 32.4315 774.381 32.4315 Q770.492 32.4315 766.806 33.3632 Q763.119 34.295 759.717 36.1584 L759.717 29.2718 Q763.808 27.692 767.656 26.9223 Q771.505 26.1121 775.151 26.1121 Q784.994 26.1121 789.855 31.2163 Q794.716 36.3204 794.716 46.6907 Z" fill="#000000" fill-rule="evenodd" fill-opacity="1" /><path clip-path="url(#clip320)" d="M847.783 45.1919 L847.783 72.576 L840.33 72.576 L840.33 45.4349 Q840.33 38.994 837.818 35.7938 Q835.307 32.5936 830.283 32.5936 Q824.248 32.5936 820.764 36.4419 Q817.28 40.2903 817.28 46.9338 L817.28 72.576 L809.786 72.576 L809.786 27.2059 L817.28 27.2059 L817.28 34.2544 Q819.954 30.163 823.559 28.1376 Q827.205 26.1121 831.944 26.1121 Q839.763 26.1121 843.773 30.9732 Q847.783 35.7938 847.783 45.1919 Z" fill="#000000" fill-rule="evenodd" fill-opacity="1" /><path clip-path="url(#clip320)" d="M870.023 14.324 L870.023 27.2059 L885.376 27.2059 L885.376 32.9987 L870.023 32.9987 L870.023 57.6282 Q870.023 63.1779 871.522 64.7578 Q873.061 66.3376 877.72 66.3376 L885.376 66.3376 L885.376 72.576 L877.72 72.576 Q869.091 72.576 865.81 69.3758 Q862.529 66.1351 862.529 57.6282 L862.529 32.9987 L857.06 32.9987 L857.06 27.2059 L862.529 27.2059 L862.529 14.324 L870.023 14.324 Z" fill="#000000" fill-rule="evenodd" fill-opacity="1" /><path clip-path="url(#clip320)" d="M895.179 27.2059 L902.633 27.2059 L902.633 72.576 L895.179 72.576 L895.179 27.2059 M895.179 9.54393 L902.633 9.54393 L902.633 18.9825 L895.179 18.9825 L895.179 9.54393 Z" fill="#000000" fill-rule="evenodd" fill-opacity="1" /><path clip-path="url(#clip320)" d="M918.229 9.54393 L925.682 9.54393 L925.682 72.576 L918.229 72.576 L918.229 9.54393 Z" fill="#000000" fill-rule="evenodd" fill-opacity="1" /><path clip-path="url(#clip320)" d="M980.086 48.0275 L980.086 51.6733 L945.815 51.6733 Q946.301 59.3701 950.433 63.421 Q954.606 67.4314 962.019 67.4314 Q966.313 67.4314 970.323 66.3781 Q974.374 65.3249 978.344 63.2184 L978.344 70.267 Q974.334 71.9684 970.121 72.8596 Q965.908 73.7508 961.573 73.7508 Q950.717 73.7508 944.357 67.4314 Q938.037 61.1119 938.037 50.3365 Q938.037 39.1965 944.033 32.6746 Q950.069 26.1121 960.277 26.1121 Q969.432 26.1121 974.739 32.0264 Q980.086 37.9003 980.086 48.0275 M972.632 45.84 Q972.551 39.7232 969.189 36.0774 Q965.867 32.4315 960.358 32.4315 Q954.12 32.4315 950.352 35.9558 Q946.625 39.4801 946.058 45.8805 L972.632 45.84 Z" fill="#000000" fill-rule="evenodd" fill-opacity="1" /><path clip-path="url(#clip320)" d="M1021.24 28.5427 L1021.24 35.5912 Q1018.08 33.9709 1014.68 33.1607 Q1011.28 32.3505 1007.63 32.3505 Q1002.08 32.3505 999.287 34.0519 Q996.533 35.7533 996.533 39.156 Q996.533 41.7486 998.517 43.2475 Q1000.5 44.7058 1006.5 46.0426 L1009.05 46.6097 Q1016.99 48.3111 1020.31 51.4303 Q1023.67 54.509 1023.67 60.0587 Q1023.67 66.3781 1018.65 70.0644 Q1013.67 73.7508 1004.92 73.7508 Q1001.27 73.7508 997.302 73.0216 Q993.373 72.3329 988.998 70.9151 L988.998 63.2184 Q993.13 65.3654 997.14 66.4591 Q1001.15 67.5124 1005.08 67.5124 Q1010.35 67.5124 1013.18 65.73 Q1016.02 63.9071 1016.02 60.6258 Q1016.02 57.5877 1013.95 55.9673 Q1011.93 54.3469 1005 52.8481 L1002.41 52.2405 Q995.479 50.7821 992.401 47.7845 Q989.322 44.7463 989.322 39.4801 Q989.322 33.0797 993.859 29.5959 Q998.396 26.1121 1006.74 26.1121 Q1010.87 26.1121 1014.52 26.7198 Q1018.16 27.3274 1021.24 28.5427 Z" fill="#000000" fill-rule="evenodd" fill-opacity="1" /><path clip-path="url(#clip320)" d="M1079.5 32.4315 Q1073.5 32.4315 1070.02 37.1306 Q1066.53 41.7891 1066.53 49.9314 Q1066.53 58.0738 1069.98 62.7728 Q1073.46 67.4314 1079.5 67.4314 Q1085.45 67.4314 1088.93 62.7323 Q1092.42 58.0333 1092.42 49.9314 Q1092.42 41.8701 1088.93 37.1711 Q1085.45 32.4315 1079.5 32.4315 M1079.5 26.1121 Q1089.22 26.1121 1094.77 32.4315 Q1100.32 38.7509 1100.32 49.9314 Q1100.32 61.0714 1094.77 67.4314 Q1089.22 73.7508 1079.5 73.7508 Q1069.73 73.7508 1064.18 67.4314 Q1058.67 61.0714 1058.67 49.9314 Q1058.67 38.7509 1064.18 32.4315 Q1069.73 26.1121 1079.5 26.1121 Z" fill="#000000" fill-rule="evenodd" fill-opacity="1" /><path clip-path="url(#clip320)" d="M1135.64 9.54393 L1135.64 15.7418 L1128.51 15.7418 Q1124.5 15.7418 1122.92 17.3622 Q1121.38 18.9825 1121.38 23.1955 L1121.38 27.2059 L1133.66 27.2059 L1133.66 32.9987 L1121.38 32.9987 L1121.38 72.576 L1113.89 72.576 L1113.89 32.9987 L1106.76 32.9987 L1106.76 27.2059 L1113.89 27.2059 L1113.89 24.0462 Q1113.89 16.471 1117.41 13.0277 Q1120.94 9.54393 1128.59 9.54393 L1135.64 9.54393 Z" fill="#000000" fill-rule="evenodd" fill-opacity="1" /><path clip-path="url(#clip320)" d="M1168.57 12.096 L1176.76 12.096 L1176.76 72.576 L1168.57 72.576 L1168.57 12.096 Z" fill="#000000" fill-rule="evenodd" fill-opacity="1" /><path clip-path="url(#clip320)" d="M1230.43 45.1919 L1230.43 72.576 L1222.98 72.576 L1222.98 45.4349 Q1222.98 38.994 1220.47 35.7938 Q1217.95 32.5936 1212.93 32.5936 Q1206.9 32.5936 1203.41 36.4419 Q1199.93 40.2903 1199.93 46.9338 L1199.93 72.576 L1192.43 72.576 L1192.43 27.2059 L1199.93 27.2059 L1199.93 34.2544 Q1202.6 30.163 1206.21 28.1376 Q1209.85 26.1121 1214.59 26.1121 Q1222.41 26.1121 1226.42 30.9732 Q1230.43 35.7938 1230.43 45.1919 Z" fill="#000000" fill-rule="evenodd" fill-opacity="1" /><path clip-path="url(#clip320)" d="M1268.27 9.54393 L1268.27 15.7418 L1261.14 15.7418 Q1257.13 15.7418 1255.55 17.3622 Q1254.01 18.9825 1254.01 23.1955 L1254.01 27.2059 L1266.28 27.2059 L1266.28 32.9987 L1254.01 32.9987 L1254.01 72.576 L1246.51 72.576 L1246.51 32.9987 L1239.38 32.9987 L1239.38 27.2059 L1246.51 27.2059 L1246.51 24.0462 Q1246.51 16.471 1250.04 13.0277 Q1253.56 9.54393 1261.22 9.54393 L1268.27 9.54393 Z" fill="#000000" fill-rule="evenodd" fill-opacity="1" /><path clip-path="url(#clip320)" d="M1313.31 48.0275 L1313.31 51.6733 L1279.04 51.6733 Q1279.53 59.3701 1283.66 63.421 Q1287.83 67.4314 1295.25 67.4314 Q1299.54 67.4314 1303.55 66.3781 Q1307.6 65.3249 1311.57 63.2184 L1311.57 70.267 Q1307.56 71.9684 1303.35 72.8596 Q1299.14 73.7508 1294.8 73.7508 Q1283.94 73.7508 1277.58 67.4314 Q1271.26 61.1119 1271.26 50.3365 Q1271.26 39.1965 1277.26 32.6746 Q1283.3 26.1121 1293.5 26.1121 Q1302.66 26.1121 1307.97 32.0264 Q1313.31 37.9003 1313.31 48.0275 M1305.86 45.84 Q1305.78 39.7232 1302.42 36.0774 Q1299.09 32.4315 1293.59 32.4315 Q1287.35 32.4315 1283.58 35.9558 Q1279.85 39.4801 1279.29 45.8805 L1305.86 45.84 Z" fill="#000000" fill-rule="evenodd" fill-opacity="1" /><path clip-path="url(#clip320)" d="M1358.2 28.9478 L1358.2 35.9153 Q1355.04 34.1734 1351.84 33.3227 Q1348.68 32.4315 1345.44 32.4315 Q1338.19 32.4315 1334.18 37.0496 Q1330.17 41.6271 1330.17 49.9314 Q1330.17 58.2358 1334.18 62.8538 Q1338.19 67.4314 1345.44 67.4314 Q1348.68 67.4314 1351.84 66.5807 Q1355.04 65.6895 1358.2 63.9476 L1358.2 70.8341 Q1355.08 72.2924 1351.72 73.0216 Q1348.39 73.7508 1344.63 73.7508 Q1334.38 73.7508 1328.34 67.3098 Q1322.31 60.8689 1322.31 49.9314 Q1322.31 38.832 1328.38 32.472 Q1334.5 26.1121 1345.11 26.1121 Q1348.56 26.1121 1351.84 26.8413 Q1355.12 27.5299 1358.2 28.9478 Z" fill="#000000" fill-rule="evenodd" fill-opacity="1" /><path clip-path="url(#clip320)" d="M1378.53 14.324 L1378.53 27.2059 L1393.89 27.2059 L1393.89 32.9987 L1378.53 32.9987 L1378.53 57.6282 Q1378.53 63.1779 1380.03 64.7578 Q1381.57 66.3376 1386.23 66.3376 L1393.89 66.3376 L1393.89 72.576 L1386.23 72.576 Q1377.6 72.576 1374.32 69.3758 Q1371.04 66.1351 1371.04 57.6282 L1371.04 32.9987 L1365.57 32.9987 L1365.57 27.2059 L1371.04 27.2059 L1371.04 14.324 L1378.53 14.324 Z" fill="#000000" fill-rule="evenodd" fill-opacity="1" /><path clip-path="url(#clip320)" d="M1403.69 27.2059 L1411.14 27.2059 L1411.14 72.576 L1403.69 72.576 L1403.69 27.2059 M1403.69 9.54393 L1411.14 9.54393 L1411.14 18.9825 L1403.69 18.9825 L1403.69 9.54393 Z" fill="#000000" fill-rule="evenodd" fill-opacity="1" /><path clip-path="url(#clip320)" d="M1444.32 32.4315 Q1438.32 32.4315 1434.84 37.1306 Q1431.36 41.7891 1431.36 49.9314 Q1431.36 58.0738 1434.8 62.7728 Q1438.28 67.4314 1444.32 67.4314 Q1450.27 67.4314 1453.76 62.7323 Q1457.24 58.0333 1457.24 49.9314 Q1457.24 41.8701 1453.76 37.1711 Q1450.27 32.4315 1444.32 32.4315 M1444.32 26.1121 Q1454.04 26.1121 1459.59 32.4315 Q1465.14 38.7509 1465.14 49.9314 Q1465.14 61.0714 1459.59 67.4314 Q1454.04 73.7508 1444.32 73.7508 Q1434.56 73.7508 1429.01 67.4314 Q1423.5 61.0714 1423.5 49.9314 Q1423.5 38.7509 1429.01 32.4315 Q1434.56 26.1121 1444.32 26.1121 Z" fill="#000000" fill-rule="evenodd" fill-opacity="1" /><path clip-path="url(#clip320)" d="M1515.21 45.1919 L1515.21 72.576 L1507.76 72.576 L1507.76 45.4349 Q1507.76 38.994 1505.25 35.7938 Q1502.73 32.5936 1497.71 32.5936 Q1491.67 32.5936 1488.19 36.4419 Q1484.71 40.2903 1484.71 46.9338 L1484.71 72.576 L1477.21 72.576 L1477.21 27.2059 L1484.71 27.2059 L1484.71 34.2544 Q1487.38 30.163 1490.99 28.1376 Q1494.63 26.1121 1499.37 26.1121 Q1507.19 26.1121 1511.2 30.9732 Q1515.21 35.7938 1515.21 45.1919 Z" fill="#000000" fill-rule="evenodd" fill-opacity="1" /><path clip-path="url(#clip320)" d="M1559 28.5427 L1559 35.5912 Q1555.84 33.9709 1552.44 33.1607 Q1549.04 32.3505 1545.39 32.3505 Q1539.84 32.3505 1537.04 34.0519 Q1534.29 35.7533 1534.29 39.156 Q1534.29 41.7486 1536.28 43.2475 Q1538.26 44.7058 1544.26 46.0426 L1546.81 46.6097 Q1554.75 48.3111 1558.07 51.4303 Q1561.43 54.509 1561.43 60.0587 Q1561.43 66.3781 1556.41 70.0644 Q1551.43 73.7508 1542.68 73.7508 Q1539.03 73.7508 1535.06 73.0216 Q1531.13 72.3329 1526.76 70.9151 L1526.76 63.2184 Q1530.89 65.3654 1534.9 66.4591 Q1538.91 67.5124 1542.84 67.5124 Q1548.1 67.5124 1550.94 65.73 Q1553.77 63.9071 1553.77 60.6258 Q1553.77 57.5877 1551.71 55.9673 Q1549.68 54.3469 1542.76 52.8481 L1540.16 52.2405 Q1533.24 50.7821 1530.16 47.7845 Q1527.08 44.7463 1527.08 39.4801 Q1527.08 33.0797 1531.62 29.5959 Q1536.15 26.1121 1544.5 26.1121 Q1548.63 26.1121 1552.28 26.7198 Q1555.92 27.3274 1559 28.5427 Z" fill="#000000" fill-rule="evenodd" fill-opacity="1" /><path clip-path="url(#clip320)" d="M1600 12.096 L1638.24 12.096 L1638.24 18.9825 L1608.18 18.9825 L1608.18 36.8875 L1636.98 36.8875 L1636.98 43.7741 L1608.18 43.7741 L1608.18 65.6895 L1638.97 65.6895 L1638.97 72.576 L1600 72.576 L1600 12.096 Z" fill="#000000" fill-rule="evenodd" fill-opacity="1" /><path clip-path="url(#clip320)" d="M1689.8 45.1919 L1689.8 72.576 L1682.35 72.576 L1682.35 45.4349 Q1682.35 38.994 1679.84 35.7938 Q1677.33 32.5936 1672.3 32.5936 Q1666.27 32.5936 1662.78 36.4419 Q1659.3 40.2903 1659.3 46.9338 L1659.3 72.576 L1651.81 72.576 L1651.81 27.2059 L1659.3 27.2059 L1659.3 34.2544 Q1661.97 30.163 1665.58 28.1376 Q1669.23 26.1121 1673.97 26.1121 Q1681.78 26.1121 1685.79 30.9732 Q1689.8 35.7938 1689.8 45.1919 Z" fill="#000000" fill-rule="evenodd" fill-opacity="1" /><path clip-path="url(#clip320)" d="M1733.59 28.5427 L1733.59 35.5912 Q1730.43 33.9709 1727.03 33.1607 Q1723.63 32.3505 1719.98 32.3505 Q1714.43 32.3505 1711.64 34.0519 Q1708.88 35.7533 1708.88 39.156 Q1708.88 41.7486 1710.87 43.2475 Q1712.85 44.7058 1718.85 46.0426 L1721.4 46.6097 Q1729.34 48.3111 1732.66 51.4303 Q1736.03 54.509 1736.03 60.0587 Q1736.03 66.3781 1731 70.0644 Q1726.02 73.7508 1717.27 73.7508 Q1713.62 73.7508 1709.65 73.0216 Q1705.72 72.3329 1701.35 70.9151 L1701.35 63.2184 Q1705.48 65.3654 1709.49 66.4591 Q1713.5 67.5124 1717.43 67.5124 Q1722.7 67.5124 1725.53 65.73 Q1728.37 63.9071 1728.37 60.6258 Q1728.37 57.5877 1726.3 55.9673 Q1724.28 54.3469 1717.35 52.8481 L1714.76 52.2405 Q1707.83 50.7821 1704.75 47.7845 Q1701.67 44.7463 1701.67 39.4801 Q1701.67 33.0797 1706.21 29.5959 Q1710.75 26.1121 1719.09 26.1121 Q1723.22 26.1121 1726.87 26.7198 Q1730.52 27.3274 1733.59 28.5427 Z" fill="#000000" fill-rule="evenodd" fill-opacity="1" /><path clip-path="url(#clip320)" d="M1786.7 48.0275 L1786.7 51.6733 L1752.43 51.6733 Q1752.92 59.3701 1757.05 63.421 Q1761.22 67.4314 1768.63 67.4314 Q1772.93 67.4314 1776.94 66.3781 Q1780.99 65.3249 1784.96 63.2184 L1784.96 70.267 Q1780.95 71.9684 1776.74 72.8596 Q1772.52 73.7508 1768.19 73.7508 Q1757.33 73.7508 1750.97 67.4314 Q1744.65 61.1119 1744.65 50.3365 Q1744.65 39.1965 1750.65 32.6746 Q1756.68 26.1121 1766.89 26.1121 Q1776.05 26.1121 1781.35 32.0264 Q1786.7 37.9003 1786.7 48.0275 M1779.25 45.84 Q1779.17 39.7232 1775.8 36.0774 Q1772.48 32.4315 1766.97 32.4315 Q1760.74 32.4315 1756.97 35.9558 Q1753.24 39.4801 1752.67 45.8805 L1779.25 45.84 Z" fill="#000000" fill-rule="evenodd" fill-opacity="1" /><path clip-path="url(#clip320)" d="M1834.26 35.9153 Q1837.05 30.8922 1840.94 28.5022 Q1844.83 26.1121 1850.1 26.1121 Q1857.19 26.1121 1861.04 31.0947 Q1864.88 36.0368 1864.88 45.1919 L1864.88 72.576 L1857.39 72.576 L1857.39 45.4349 Q1857.39 38.913 1855.08 35.7533 Q1852.77 32.5936 1848.03 32.5936 Q1842.24 32.5936 1838.88 36.4419 Q1835.52 40.2903 1835.52 46.9338 L1835.52 72.576 L1828.02 72.576 L1828.02 45.4349 Q1828.02 38.8725 1825.71 35.7533 Q1823.4 32.5936 1818.58 32.5936 Q1812.87 32.5936 1809.51 36.4824 Q1806.15 40.3308 1806.15 46.9338 L1806.15 72.576 L1798.65 72.576 L1798.65 27.2059 L1806.15 27.2059 L1806.15 34.2544 Q1808.7 30.082 1812.26 28.0971 Q1815.83 26.1121 1820.73 26.1121 Q1825.67 26.1121 1829.11 28.6237 Q1832.6 31.1352 1834.26 35.9153 Z" fill="#000000" fill-rule="evenodd" fill-opacity="1" /><path clip-path="url(#clip320)" d="M1912.32 49.9314 Q1912.32 41.7081 1908.92 37.0496 Q1905.56 32.3505 1899.64 32.3505 Q1893.73 32.3505 1890.32 37.0496 Q1886.96 41.7081 1886.96 49.9314 Q1886.96 58.1548 1890.32 62.8538 Q1893.73 67.5124 1899.64 67.5124 Q1905.56 67.5124 1908.92 62.8538 Q1912.32 58.1548 1912.32 49.9314 M1886.96 34.0924 Q1889.31 30.0415 1892.88 28.0971 Q1896.48 26.1121 1901.46 26.1121 Q1909.73 26.1121 1914.87 32.6746 Q1920.06 39.2371 1920.06 49.9314 Q1920.06 60.6258 1914.87 67.1883 Q1909.73 73.7508 1901.46 73.7508 Q1896.48 73.7508 1892.88 71.8063 Q1889.31 69.8214 1886.96 65.7705 L1886.96 72.576 L1879.47 72.576 L1879.47 9.54393 L1886.96 9.54393 L1886.96 34.0924 Z" fill="#000000" fill-rule="evenodd" fill-opacity="1" /><path clip-path="url(#clip320)" d="M1932.41 9.54393 L1939.87 9.54393 L1939.87 72.576 L1932.41 72.576 L1932.41 9.54393 Z" fill="#000000" fill-rule="evenodd" fill-opacity="1" /><path clip-path="url(#clip320)" d="M1994.27 48.0275 L1994.27 51.6733 L1960 51.6733 Q1960.49 59.3701 1964.62 63.421 Q1968.79 67.4314 1976.2 67.4314 Q1980.5 67.4314 1984.51 66.3781 Q1988.56 65.3249 1992.53 63.2184 L1992.53 70.267 Q1988.52 71.9684 1984.31 72.8596 Q1980.09 73.7508 1975.76 73.7508 Q1964.9 73.7508 1958.54 67.4314 Q1952.22 61.1119 1952.22 50.3365 Q1952.22 39.1965 1958.22 32.6746 Q1964.25 26.1121 1974.46 26.1121 Q1983.62 26.1121 1988.92 32.0264 Q1994.27 37.9003 1994.27 48.0275 M1986.82 45.84 Q1986.74 39.7232 1983.37 36.0774 Q1980.05 32.4315 1974.54 32.4315 Q1968.3 32.4315 1964.54 35.9558 Q1960.81 39.4801 1960.24 45.8805 L1986.82 45.84 Z" fill="#000000" fill-rule="evenodd" fill-opacity="1" /><path clip-path="url(#clip323)" d="
M338.375 1386.23 L338.428 1386.23 L338.44 1386.23 L338.454 1386.23 L338.47 1386.23 L338.488 1386.23 L338.508 1386.23 L338.531 1386.23 L338.557 1386.23 L338.585 1386.23 
  L338.618 1386.23 L338.654 1386.23 L338.695 1386.23 L338.741 1386.23 L338.792 1386.23 L338.851 1386.24 L338.916 1386.24 L338.99 1386.24 L339.073 1386.24 L339.166 1386.24 
  L339.271 1386.24 L339.388 1386.24 L339.521 1386.24 L339.67 1386.24 L339.838 1386.24 L340.027 1386.24 L340.237 1386.24 L340.466 1386.25 L340.712 1386.25 L340.973 1386.25 
  L341.248 1386.25 L341.536 1386.25 L341.835 1386.26 L342.145 1386.26 L342.466 1386.26 L342.796 1386.26 L343.135 1386.26 L343.483 1386.27 L343.836 1386.27 L344.193 1386.27 
  L344.559 1386.27 L344.93 1386.28 L345.306 1386.28 L345.686 1386.28 L346.072 1386.28 L346.461 1386.28 L346.854 1386.29 L347.252 1386.29 L347.654 1386.29 L348.063 1386.29 
  L348.481 1386.3 L348.906 1386.3 L349.339 1386.3 L349.776 1386.3 L350.216 1386.3 L350.664 1386.31 L351.119 1386.31 L351.581 1386.31 L352.052 1386.31 L352.53 1386.31 
  L353.015 1386.32 L353.507 1386.32 L354.006 1386.32 L354.512 1386.32 L355.023 1386.33 L355.537 1386.33 L356.056 1386.33 L356.582 1386.33 L357.119 1386.33 L357.661 1386.34 
  L358.213 1386.34 L358.774 1386.34 L359.344 1386.34 L359.925 1386.35 L360.516 1386.35 L361.117 1386.35 L361.726 1386.35 L362.342 1386.35 L362.965 1386.36 L363.601 1386.36 
  L364.241 1386.36 L364.899 1386.36 L365.567 1386.36 L366.248 1386.37 L366.95 1386.37 L367.668 1386.37 L368.398 1386.37 L369.142 1386.37 L369.908 1386.37 L370.702 1386.38 
  L371.523 1386.38 L372.379 1386.38 L373.259 1386.38 L374.164 1386.38 L375.096 1386.38 L376.034 1386.38 L376.996 1386.38 L377.985 1386.39 L379.011 1386.39 L380.046 1386.39 
  L381.094 1386.39 L382.169 1386.39 L383.243 1386.39 L384.342 1386.39 L385.49 1386.39 L386.677 1386.39 L387.907 1386.4 L389.132 1386.4 L390.341 1386.4 L391.584 1386.39 
  L392.872 1386.39 L394.179 1386.39 L395.508 1386.39 L396.861 1386.39 L398.231 1386.39 L399.596 1386.39 L400.989 1386.39 L402.395 1386.39 L403.841 1386.39 L405.303 1386.39 
  L406.734 1386.39 L408.259 1386.39 L409.815 1386.39 L411.426 1386.39 L412.99 1386.38 L414.62 1386.38 L416.337 1386.38 L418.148 1386.38 L419.954 1386.37 L421.856 1386.36 
  L423.896 1386.36 L425.972 1386.36 L428.034 1386.35 L430.112 1386.34 L432.189 1386.34 L434.35 1386.33 L436.587 1386.32 L439.103 1386.31 L441.934 1386.31 L445.119 1386.3 
  L448.412 1386.29 L451.617 1386.28 L454.745 1386.28 L458.052 1386.27 L461.342 1386.25 L464.859 1386.24 L468.622 1386.23 L472.21 1386.21 L475.925 1386.2 L479.701 1386.18 
  L483.737 1386.16 L487.999 1386.14 L492.158 1386.11 L496.837 1386.08 L500.835 1386.06 L504.728 1386.03 L508.871 1386.01 L512.798 1385.98 L517.124 1385.94 L521.992 1385.9 
  L527.467 1385.84 L533.441 1385.79 L538.312 1385.75 L543.17 1385.71 L548.635 1385.66 L554.783 1385.59 L560.845 1385.51 L567.665 1385.43 L575.338 1385.33 L582.932 1385.22 
  L591.136 1385.08 L598.89 1384.94 L607.104 1384.8 L613.935 1384.64 L621.595 1384.47 L630.212 1384.28 L639.906 1384.04 L650.813 1383.74 L662.17 1383.39 L672.052 1383.07 
  L679.801 1382.82 L687.907 1382.53 L694.585 1382.25 L701.756 1382.01 L709.726 1381.68 L718.693 1381.23 L724.678 1380.92 L731.412 1380.55 L738.988 1380.09 L747.511 1379.55 
  L754.567 1379.14 L761.824 1378.71 L769.06 1378.27 L776.664 1377.6 L782.571 1376.99 L788.285 1376.43 L793.567 1375.91 L799.444 1375.31 L804.963 1374.71 L811.172 1373.99 
  L818.157 1373.15 L826.015 1372.2 L834.856 1371.13 L842.903 1370.02 L851.236 1368.75 L857.963 1367.4 L864.234 1366.07 L870.615 1364.72 L876.455 1363.73 L882.228 1362.62 
  L887.091 1361.53 L890.98 1360.71 L894.446 1360.01 L898.015 1359.3 L901.666 1358.53 L904.991 1357.79 L908.174 1357.08 L911.439 1356.36 L914.79 1355.63 L918.236 1354.89 
  L921.517 1354.04 L924.868 1353.08 L928.394 1352.02 L931.847 1351.09 L935.534 1350.16 L939.102 1349.22 L942.628 1348.26 L946.071 1347.32 L949.219 1346.46 L952.439 1345.59 
  L955.662 1344.65 L958.926 1343.68 L962.213 1342.68 L965.86 1341.49 L969.346 1340.25 L972.586 1339.03 L975.94 1337.75 L979.281 1336.37 L982.799 1334.92 L986.639 1333.32 
  L990.633 1331.55 L994.887 1329.6 L999.539 1327.13 L1004.01 1324.95 L1008.47 1323.3 L1012.76 1320.19 L1017.59 1317.01 L1023.02 1313.16 L1028.54 1309.09 L1034.25 1304.92 
  L1040.1 1300.47 L1045.98 1295.78 L1051.89 1290.95 L1057.7 1285.86 L1063.53 1279.12 L1069.23 1273.74 L1074.88 1268.32 L1080.4 1264.77 L1085.83 1260.18 L1090.97 1256.25 
  L1096.14 1252.28 L1101.17 1247.85 L1105.84 1242.9 L1110.66 1236.65 L1115.27 1229.87 L1119.78 1222.63 L1124.2 1214.89 L1128.54 1206.5 L1132.73 1197.67 L1136.9 1188.22 
  L1140.94 1179.98 L1144.76 1173.84 L1148.49 1167.84 L1152.17 1161.79 L1155.69 1155.99 L1159.11 1149.72 L1162.45 1143.23 L1165.72 1136.59 L1168.9 1129.71 L1171.94 1123.12 
  L1174.94 1117.22 L1177.96 1111.5 L1181.04 1105.59 L1184.09 1099.03 L1187.14 1091.12 L1190.18 1083.11 L1193.21 1075.62 L1196.22 1068.24 L1199.19 1061.15 L1202.13 1054.04 
  L1205.09 1045.99 L1208.03 1035.99 L1210.97 1025.94 L1213.85 1016.01 L1216.76 1005.66 L1219.65 999.479 L1222.49 994.469 L1225.35 988.29 L1228.12 979.266 L1230.92 969.992 
  L1233.72 963.244 L1236.53 952.825 L1239.34 945.542 L1242.12 939.18 L1244.92 932.724 L1247.69 926.165 L1250.44 919.505 L1253.21 912.406 L1255.98 905.501 L1258.75 898.609 
  L1261.5 891.459 L1264.22 884.392 L1266.98 877.343 L1269.73 869.726 L1272.47 862.384 L1275.21 855.771 L1277.96 849.835 L1280.71 844.273 L1283.47 833.999 L1286.23 823.164 
  L1288.99 812.229 L1291.72 801.337 L1294.46 790.526 L1297.19 780.163 L1299.95 770.512 L1302.62 761.404 L1305.24 752.655 L1307.86 744.239 L1310.5 737.745 L1313.14 734.013 
  L1315.86 730.454 L1318.61 727.006 L1321.39 723.029 L1324.22 718.692 L1327.07 718.32 L1329.94 717.786 L1332.84 717.404 L1335.75 705.75 L1338.68 699.266 L1341.62 694.642 
  L1344.58 689.003 L1347.55 683.855 L1350.57 678.449 L1353.62 673.391 L1356.69 668.782 L1359.78 667.383 L1362.89 665.936 L1366.01 658.599 L1369.1 654.793 L1372.1 660.794 
  L1374.99 659.068 L1377.85 656.963 L1380.7 662.157 L1383.52 663.528 L1386.39 659.186 L1389.21 655.399 L1391.95 651.679 L1394.51 646.748 L1396.97 645.119 L1399.34 643.556 
  L1401.71 641.946 L1404.11 638.049 L1406.58 633.627 L1408.97 633.369 L1411.33 638.1 L1413.64 638.521 L1415.93 639.048 L1418.22 639.882 L1420.56 642.654 L1422.86 644.541 
  L1425.25 644.58 L1427.6 645.284 L1429.93 646.579 L1432.26 648.241 L1434.59 649.918 L1436.91 654.831 L1439.12 660.189 L1441.39 666.025 L1443.64 671.916 L1445.93 677.994 
  L1448.16 683.736 L1450.42 689.606 L1452.73 694.879 L1455.05 702.328 L1457.42 708.745 L1459.85 712.834 L1462.32 716.939 L1464.84 721.023 L1467.36 726.32 L1469.8 734.226 
  L1472.3 742.532 L1474.76 750.663 L1477.2 758.976 L1479.66 766.783 L1482.12 774.741 L1484.67 782.605 L1487.22 789.839 L1489.91 797.494 L1492.57 805.13 L1495.3 813.065 
  L1498.1 821.113 L1501.1 829.692 L1503.95 837.913 L1506.9 846.321 L1509.82 854.039 L1512.84 857.34 L1515.8 862.882 L1519.05 872.6 L1522.3 882.513 L1525.88 893.533 
  L1529.67 902.891 L1533.51 910.1 L1537.45 916.601 L1541.34 922.6 L1545.34 931.504 L1549.27 942.509 L1553.45 952.49 L1557.58 960.662 L1561.71 968.701 L1565.91 976.772 
  L1570.07 984.913 L1574.13 992.768 L1578.16 1000.43 L1582.47 1009.16 L1586.36 1017.15 L1590.42 1026.12 L1594.14 1034.35 L1598.17 1043.32 L1602.19 1052.42 L1606.42 1061.7 
  L1610.58 1070.31 L1614.4 1077.72 L1618.7 1085.65 L1623.48 1093.7 L1627.4 1100.14 L1631.55 1106.69 L1635.65 1112.89 L1640.11 1119.25 L1644.44 1124.86 L1648.76 1130.3 
  L1652.75 1137.28 L1657.1 1144.93 L1660.95 1151.47 L1664.42 1157.14 L1667.77 1162.34 L1671.15 1167.49 L1674.55 1172.58 L1677.84 1177.48 L1681.3 1182.45 L1684.73 1187.25 
  L1688.12 1191.94 L1691.59 1196.7 L1695.07 1201.44 L1698.39 1205.88 L1701.69 1210.15 L1705.16 1214.55 L1708.83 1219.2 L1712.2 1223.36 L1715.57 1227.37 L1718.79 1231.11 
  L1721.8 1234.54 L1724.65 1237.75 L1727.35 1240.78 L1729.89 1243.62 L1732.49 1246.5 L1735.25 1249.54 L1738.01 1252.54 L1740.77 1255.45 L1743.57 1258.09 L1746.29 1260.39 
  L1748.97 1262.64 L1751.73 1265.01 L1754.5 1267.78 L1757.32 1270.54 L1760.12 1273.22 L1763.26 1276.15 L1766.43 1278.91 L1769.99 1281.88 L1774 1285.2 L1778.51 1288.8 
  L1783.59 1292.69 L1789.3 1296.87 L1794.92 1300.65 L1799.68 1303.62 L1803.85 1306.18 L1808.28 1308.79 L1812.63 1311.25 L1817.25 1313.87 L1821.99 1316.46 L1827.31 1319.25 
  L1833.31 1322.28 L1840.05 1325.54 L1846.78 1328.29 L1854.35 1331.14 L1862.87 1334.32 L1869.66 1336.82 L1875.96 1338.96 L1883.05 1341.15 L1891.02 1343.47 L1899.11 1345.69 
  L1908.22 1348.16 L1914.65 1349.9 L1921.89 1351.71 L1930.04 1353.96 L1939.2 1355.99 L1949.52 1357.96 L1961.11 1360.38 L1972.59 1362.76 L1984.19 1364.92 L1991.57 1366.18 
  L1999.87 1367.51 L2008.66 1368.79 L2018.56 1370.12 L2029.68 1371.45 L2038.84 1372.44 L2049.14 1373.6 L2054.99 1374.24 L2061.17 1374.89 L2066.11 1375.4 L2071.67 1375.96 
  L2076.81 1376.46 L2081.76 1376.92 L2085.77 1377.27 L2089.76 1377.6 L2093.5 1377.9 L2097.32 1378.15 L2101.32 1378.4 L2105.42 1378.66 L2109.72 1378.9 L2113.87 1379.13 
  L2117.46 1379.32 L2121.01 1379.5 L2124.53 1379.68 L2128.27 1379.86 L2132.21 1380.06 L2135.74 1380.25 L2139.12 1380.43 L2142.42 1380.6 L2145.77 1380.76 L2149.2 1380.93 
  L2152.74 1381.1 L2156.05 1381.25 L2159.31 1381.4 L2162.38 1381.53 L2165.27 1381.65 L2168.35 1381.78 L2171.48 1381.92 L2174.88 1382.05 L2178.64 1382.21 L2182.15 1382.35 
  L2186.1 1382.5 L2190.44 1382.66 L2194.75 1382.81 L2199.08 1382.96 L2203.31 1383.11 L2207.48 1383.24 L2211.72 1383.38 L2216.11 1383.51 L2220.56 1383.64 L2225.52 1383.79 
  L2231.09 1383.94 L2236.29 1384.08 L2241.45 1384.21 L2247.24 1384.35 L2252.8 1384.47 L2257.88 1384.58 L2262.81 1384.69 L2268.36 1384.8 L2273.23 1384.89 L2277.82 1384.97 
  L2282.22 1385.04 L2286.63 1385.11 L2290.64 1385.17 L2294.08 1385.23 L2294.08 1369.92 L2290.64 1369.69 L2286.63 1369.42 L2282.22 1368.9 L2277.82 1368.36 L2273.23 1367.78 
  L2268.36 1367.15 L2262.81 1366.4 L2257.88 1365.71 L2252.8 1365 L2247.24 1364.2 L2241.45 1363.39 L2236.29 1362.66 L2231.09 1361.92 L2225.52 1361.11 L2220.56 1360.41 
  L2216.11 1359.77 L2211.72 1359.13 L2207.48 1358.47 L2203.31 1357.77 L2199.08 1357.01 L2194.75 1356.21 L2190.44 1355.36 L2186.1 1354.36 L2182.15 1353.46 L2178.64 1352.65 
  L2174.88 1351.78 L2171.48 1350.96 L2168.35 1350.18 L2165.27 1349.42 L2162.38 1348.7 L2159.31 1347.92 L2156.05 1347.04 L2152.74 1346.14 L2149.2 1345.12 L2145.77 1344.13 
  L2142.42 1343.17 L2139.12 1342.22 L2135.74 1341.19 L2132.21 1340.09 L2128.27 1338.83 L2124.53 1337.56 L2121.01 1336.35 L2117.46 1335.1 L2113.87 1333.8 L2109.72 1332.31 
  L2105.42 1330.76 L2101.32 1329.27 L2097.32 1327.78 L2093.5 1326.36 L2089.76 1324.76 L2085.77 1322.94 L2081.76 1321.09 L2076.81 1318.76 L2071.67 1316.3 L2066.11 1313.54 
  L2061.17 1311.1 L2054.99 1308.14 L2049.14 1304.91 L2038.84 1299.16 L2029.68 1294.73 L2018.56 1288.93 L2008.66 1282.97 L1999.87 1276.08 L1991.57 1270.57 L1984.19 1265.97 
  L1972.59 1258.46 L1961.11 1249.62 L1949.52 1240.21 L1939.2 1231.82 L1930.04 1223.82 L1921.89 1216.72 L1914.65 1210.69 L1908.22 1205.15 L1899.11 1196.83 L1891.02 1189.33 
  L1883.05 1182.31 L1875.96 1176.44 L1869.66 1171.5 L1862.87 1164.58 L1854.35 1156.05 L1846.78 1148.3 L1840.05 1141.04 L1833.31 1133.73 L1827.31 1123.35 L1821.99 1113.59 
  L1817.25 1104.95 L1812.63 1096.64 L1808.28 1088.69 L1803.85 1079.95 L1799.68 1071.33 L1794.92 1061.29 L1789.3 1049.11 L1783.59 1036.19 L1778.51 1026.16 L1774 1018.45 
  L1769.99 1011.12 L1766.43 1004.5 L1763.26 998.584 L1760.12 992.358 L1757.32 986.818 L1754.5 980.936 L1751.73 975.129 L1748.97 969.368 L1746.29 963.753 L1743.57 958.089 
  L1740.77 952.253 L1738.01 946.418 L1735.25 940.576 L1732.49 934.945 L1729.89 929.673 L1727.35 924.614 L1724.65 919.272 L1721.8 913.737 L1718.79 907.71 L1715.57 901.1 
  L1712.2 894.011 L1708.83 886.624 L1705.16 877.783 L1701.69 869.578 L1698.39 862.04 L1695.07 854.819 L1691.59 847.681 L1688.12 840.28 L1684.73 832.77 L1681.3 824.894 
  L1677.84 815.174 L1674.55 805.686 L1671.15 796.291 L1667.77 786.952 L1664.42 777.816 L1660.95 768.397 L1657.1 758.313 L1652.75 746.855 L1648.76 736.055 L1644.44 726.653 
  L1640.11 721.32 L1635.65 714.433 L1631.55 703.324 L1627.4 686.836 L1623.48 671.052 L1618.7 658.83 L1614.4 647.695 L1610.58 638.393 L1606.42 627.273 L1602.19 618.943 
  L1598.17 608.724 L1594.14 599.169 L1590.42 590.69 L1586.36 579.827 L1582.47 568.194 L1578.16 554.87 L1574.13 544.31 L1570.07 533.69 L1565.91 524.09 L1561.71 514.843 
  L1557.58 505.007 L1553.45 494.222 L1549.27 478.838 L1545.34 462.849 L1541.34 453.232 L1537.45 440.938 L1533.51 428.783 L1529.67 418.534 L1525.88 404.454 L1522.3 398.463 
  L1519.05 395.506 L1515.8 393.567 L1512.84 388.768 L1509.82 383.732 L1506.9 372.657 L1503.95 358.465 L1501.1 345.367 L1498.1 337.594 L1495.3 333.413 L1492.57 329.796 
  L1489.91 326.057 L1487.22 323.059 L1484.67 321.552 L1482.12 320.381 L1479.66 320.294 L1477.2 312.936 L1474.76 305.131 L1472.3 297.211 L1469.8 289.202 L1467.36 281.723 
  L1464.84 274.312 L1462.32 267.067 L1459.85 260.586 L1457.42 255.033 L1455.05 249.821 L1452.73 245.047 L1450.42 244.977 L1448.16 246.373 L1445.93 238.342 L1443.64 234.679 
  L1441.39 234.806 L1439.12 236.082 L1436.91 238.5 L1434.59 233.281 L1432.26 229.849 L1429.93 228.479 L1427.6 222.601 L1425.25 216.644 L1422.86 210.91 L1420.56 210.487 
  L1418.22 211.769 L1415.93 212.741 L1413.64 210.452 L1411.33 208.04 L1408.97 205.497 L1406.58 203.223 L1404.11 201.619 L1401.71 201.306 L1399.34 201.171 L1396.97 201.48 
  L1394.51 202.342 L1391.95 202.244 L1389.21 202.579 L1386.39 202.48 L1383.52 203.898 L1380.7 206.623 L1377.85 205.099 L1374.99 199.271 L1372.1 193.222 L1369.1 186.891 
  L1366.01 181.408 L1362.89 176.393 L1359.78 172.664 L1356.69 175.176 L1353.62 171.001 L1350.57 167.741 L1347.55 165.851 L1344.58 160.256 L1341.62 162.766 L1338.68 168.646 
  L1335.75 169.618 L1332.84 168.661 L1329.94 168.624 L1327.07 175.573 L1324.22 189.908 L1321.39 193.563 L1318.61 196.02 L1315.86 199.829 L1313.14 205.253 L1310.5 210.778 
  L1307.86 212.944 L1305.24 216.051 L1302.62 222.053 L1299.95 225.046 L1297.19 228.55 L1294.46 232.717 L1291.72 237.586 L1288.99 242.846 L1286.23 248.96 L1283.47 253.257 
  L1280.71 253.69 L1277.96 256.933 L1275.21 261.034 L1272.47 265.804 L1269.73 272.341 L1266.98 277.671 L1264.22 287.603 L1261.5 294.065 L1258.75 298.669 L1255.98 303.911 
  L1253.21 310.074 L1250.44 316.713 L1247.69 322.943 L1244.92 329.004 L1242.12 335.038 L1239.34 343.325 L1236.53 352.255 L1233.72 360.043 L1230.92 367.978 L1228.12 374.019 
  L1225.35 377.658 L1222.49 380.877 L1219.65 386.206 L1216.76 397.207 L1213.85 409.143 L1210.97 419.846 L1208.03 429.05 L1205.09 438.057 L1202.13 447.479 L1199.19 458.984 
  L1196.22 472.688 L1193.21 487.146 L1190.18 500.117 L1187.14 514.755 L1184.09 528.423 L1181.04 534.85 L1177.96 543.074 L1174.94 552.846 L1171.94 562.469 L1168.9 572.779 
  L1165.72 583.698 L1162.45 595.026 L1159.11 608.616 L1155.69 624.694 L1152.17 640.894 L1148.49 658.09 L1144.76 674.511 L1140.94 689.695 L1136.9 706.368 L1132.73 723.874 
  L1128.54 741.597 L1124.2 760.192 L1119.78 777.549 L1115.27 792.777 L1110.66 810.97 L1105.84 828.703 L1101.17 844.755 L1096.14 861.108 L1090.97 882.52 L1085.83 904.526 
  L1080.4 927.868 L1074.88 948.993 L1069.23 968.317 L1063.53 985.195 L1057.7 1002.42 L1051.89 1020.94 L1045.98 1039.59 L1040.1 1058.82 L1034.25 1075.32 L1028.54 1085.01 
  L1023.02 1093.85 L1017.59 1103.39 L1012.76 1116.45 L1008.47 1124.56 L1004.01 1129.4 L999.539 1135.38 L994.887 1144.17 L990.633 1152.59 L986.639 1160.64 L982.799 1168.41 
  L979.281 1175.37 L975.94 1181.88 L972.586 1188.06 L969.346 1193.56 L965.86 1199.41 L962.213 1205.11 L958.926 1210.54 L955.662 1216.36 L952.439 1220.36 L949.219 1225.62 
  L946.071 1230.54 L942.628 1235.8 L939.102 1240.92 L935.534 1244.47 L931.847 1247.38 L928.394 1249.89 L924.868 1252.49 L921.517 1257.39 L918.236 1262.1 L914.79 1266.86 
  L911.439 1271.46 L908.174 1275.2 L904.991 1278.4 L901.666 1281.75 L898.015 1285.19 L894.446 1288.45 L890.98 1291.55 L887.091 1295.07 L882.228 1299.33 L876.455 1303.13 
  L870.615 1306.67 L864.234 1310.4 L857.963 1314.01 L851.236 1317.92 L842.903 1323.04 L834.856 1327.97 L826.015 1333.12 L818.157 1337.51 L811.172 1340.02 L804.963 1342.08 
  L799.444 1343.58 L793.567 1346.03 L788.285 1348.79 L782.571 1351.52 L776.664 1354.24 L769.06 1356.96 L761.824 1359.21 L754.567 1361.59 L747.511 1363.9 L738.988 1366.04 
  L731.412 1368.1 L724.678 1369.29 L718.693 1370.2 L709.726 1371.58 L701.756 1372.92 L694.585 1374.04 L687.907 1374.97 L679.801 1375.84 L672.052 1376.61 L662.17 1377.54 
  L650.813 1378.49 L639.906 1379.26 L630.212 1379.88 L621.595 1380.54 L613.935 1381.14 L607.104 1381.69 L598.89 1382.09 L591.136 1382.45 L582.932 1382.83 L575.338 1383.15 
  L567.665 1383.47 L560.845 1383.78 L554.783 1384.01 L548.635 1384.22 L543.17 1384.38 L538.312 1384.54 L533.441 1384.68 L527.467 1384.84 L521.992 1384.96 L517.124 1385.06 
  L512.798 1385.15 L508.871 1385.24 L504.728 1385.32 L500.835 1385.39 L496.837 1385.45 L492.158 1385.52 L487.999 1385.58 L483.737 1385.63 L479.701 1385.68 L475.925 1385.72 
  L472.21 1385.77 L468.622 1385.81 L464.859 1385.84 L461.342 1385.88 L458.052 1385.91 L454.745 1385.94 L451.617 1385.97 L448.412 1385.99 L445.119 1386.02 L441.934 1386.05 
  L439.103 1386.07 L436.587 1386.09 L434.35 1386.11 L432.189 1386.12 L430.112 1386.13 L428.034 1386.14 L425.972 1386.16 L423.896 1386.17 L421.856 1386.18 L419.954 1386.19 
  L418.148 1386.2 L416.337 1386.21 L414.62 1386.22 L412.99 1386.23 L411.426 1386.24 L409.815 1386.25 L408.259 1386.25 L406.734 1386.25 L405.303 1386.26 L403.841 1386.26 
  L402.395 1386.27 L400.989 1386.27 L399.596 1386.28 L398.231 1386.28 L396.861 1386.29 L395.508 1386.29 L394.179 1386.29 L392.872 1386.3 L391.584 1386.3 L390.341 1386.3 
  L389.132 1386.31 L387.907 1386.31 L386.677 1386.31 L385.49 1386.32 L384.342 1386.32 L383.243 1386.32 L382.169 1386.33 L381.094 1386.33 L380.046 1386.33 L379.011 1386.33 
  L377.985 1386.33 L376.996 1386.33 L376.034 1386.33 L375.096 1386.33 L374.164 1386.33 L373.259 1386.33 L372.379 1386.33 L371.523 1386.33 L370.702 1386.33 L369.908 1386.33 
  L369.142 1386.33 L368.398 1386.33 L367.668 1386.33 L366.95 1386.33 L366.248 1386.33 L365.567 1386.33 L364.899 1386.33 L364.241 1386.33 L363.601 1386.33 L362.965 1386.33 
  L362.342 1386.33 L361.726 1386.32 L361.117 1386.32 L360.516 1386.32 L359.925 1386.32 L359.344 1386.32 L358.774 1386.32 L358.213 1386.32 L357.661 1386.32 L357.119 1386.32 
  L356.582 1386.31 L356.056 1386.31 L355.537 1386.31 L355.023 1386.31 L354.512 1386.31 L354.006 1386.31 L353.507 1386.31 L353.015 1386.3 L352.53 1386.3 L352.052 1386.3 
  L351.581 1386.3 L351.119 1386.3 L350.664 1386.3 L350.216 1386.29 L349.776 1386.29 L349.339 1386.29 L348.906 1386.29 L348.481 1386.29 L348.063 1386.29 L347.654 1386.28 
  L347.252 1386.28 L346.854 1386.28 L346.461 1386.28 L346.072 1386.28 L345.686 1386.27 L345.306 1386.27 L344.93 1386.27 L344.559 1386.27 L344.193 1386.27 L343.836 1386.27 
  L343.483 1386.26 L343.135 1386.26 L342.796 1386.26 L342.466 1386.26 L342.145 1386.26 L341.835 1386.25 L341.536 1386.25 L341.248 1386.25 L340.973 1386.25 L340.712 1386.25 
  L340.466 1386.25 L340.237 1386.24 L340.027 1386.24 L339.838 1386.24 L339.67 1386.24 L339.521 1386.24 L339.388 1386.24 L339.271 1386.24 L339.166 1386.24 L339.073 1386.24 
  L338.99 1386.24 L338.916 1386.24 L338.851 1386.23 L338.792 1386.23 L338.741 1386.23 L338.695 1386.23 L338.654 1386.23 L338.618 1386.23 L338.585 1386.23 L338.557 1386.23 
  L338.531 1386.23 L338.508 1386.23 L338.488 1386.23 L338.47 1386.23 L338.454 1386.23 L338.44 1386.23 L338.428 1386.23 L338.375 1386.23  Z
  " fill="#009af9" fill-rule="evenodd" fill-opacity="0.2"/>
<polyline clip-path="url(#clip323)" style="stroke:#009af9; stroke-linecap:butt; stroke-linejoin:round; stroke-width:12; stroke-opacity:1; fill:none" points="
  338.375,1386.23 338.428,1386.23 338.44,1386.23 338.454,1386.23 338.47,1386.23 338.488,1386.23 338.508,1386.23 338.531,1386.23 338.557,1386.23 338.585,1386.23 
  338.618,1386.23 338.654,1386.23 338.695,1386.23 338.741,1386.23 338.792,1386.23 338.851,1386.23 338.916,1386.24 338.99,1386.24 339.073,1386.24 339.166,1386.24 
  339.271,1386.24 339.388,1386.24 339.521,1386.24 339.67,1386.24 339.838,1386.24 340.027,1386.24 340.237,1386.24 340.466,1386.25 340.712,1386.25 340.973,1386.25 
  341.248,1386.25 341.536,1386.25 341.835,1386.25 342.145,1386.26 342.466,1386.26 342.796,1386.26 343.135,1386.26 343.483,1386.26 343.836,1386.27 344.193,1386.27 
  344.559,1386.27 344.93,1386.27 345.306,1386.28 345.686,1386.28 346.072,1386.28 346.461,1386.28 346.854,1386.28 347.252,1386.29 347.654,1386.29 348.063,1386.29 
  348.481,1386.29 348.906,1386.29 349.339,1386.3 349.776,1386.3 350.216,1386.3 350.664,1386.3 351.119,1386.3 351.581,1386.31 352.052,1386.31 352.53,1386.31 
  353.015,1386.31 353.507,1386.31 354.006,1386.31 354.512,1386.32 355.023,1386.32 355.537,1386.32 356.056,1386.32 356.582,1386.32 357.119,1386.32 357.661,1386.33 
  358.213,1386.33 358.774,1386.33 359.344,1386.33 359.925,1386.33 360.516,1386.33 361.117,1386.34 361.726,1386.34 362.342,1386.34 362.965,1386.34 363.601,1386.34 
  364.241,1386.34 364.899,1386.34 365.567,1386.35 366.248,1386.35 366.95,1386.35 367.668,1386.35 368.398,1386.35 369.142,1386.35 369.908,1386.35 370.702,1386.35 
  371.523,1386.35 372.379,1386.35 373.259,1386.36 374.164,1386.36 375.096,1386.36 376.034,1386.36 376.996,1386.36 377.985,1386.36 379.011,1386.36 380.046,1386.36 
  381.094,1386.36 382.169,1386.36 383.243,1386.36 384.342,1386.36 385.49,1386.36 386.677,1386.36 387.907,1386.35 389.132,1386.35 390.341,1386.35 391.584,1386.35 
  392.872,1386.35 394.179,1386.35 395.508,1386.35 396.861,1386.34 398.231,1386.34 399.596,1386.34 400.989,1386.34 402.395,1386.33 403.841,1386.33 405.303,1386.33 
  406.734,1386.32 408.259,1386.32 409.815,1386.32 411.426,1386.31 412.99,1386.31 414.62,1386.3 416.337,1386.3 418.148,1386.29 419.954,1386.28 421.856,1386.28 
  423.896,1386.27 425.972,1386.26 428.034,1386.25 430.112,1386.24 432.189,1386.23 434.35,1386.22 436.587,1386.21 439.103,1386.2 441.934,1386.19 445.119,1386.17 
  448.412,1386.15 451.617,1386.13 454.745,1386.11 458.052,1386.09 461.342,1386.06 464.859,1386.04 468.622,1386.01 472.21,1385.98 475.925,1385.95 479.701,1385.92 
  483.737,1385.88 487.999,1385.84 492.158,1385.8 496.837,1385.75 500.835,1385.71 504.728,1385.66 508.871,1385.61 512.798,1385.56 517.124,1385.5 521.992,1385.43 
  527.467,1385.35 533.441,1385.25 538.312,1385.17 543.17,1385.08 548.635,1384.97 554.783,1384.85 560.845,1384.72 567.665,1384.56 575.338,1384.37 582.932,1384.17 
  591.136,1383.93 598.89,1383.69 607.104,1383.41 613.935,1383.17 621.595,1382.87 630.212,1382.51 639.906,1382.07 650.813,1381.53 662.17,1380.91 672.052,1380.31 
  679.801,1379.79 687.907,1379.2 694.585,1378.68 701.756,1378.09 709.726,1377.38 718.693,1376.53 724.678,1375.91 731.412,1375.19 738.988,1374.33 747.511,1373.26 
  754.567,1372.3 761.824,1371.24 769.06,1370.12 776.664,1368.85 782.571,1367.81 788.285,1366.74 793.567,1365.72 799.444,1364.53 804.963,1363.37 811.172,1362 
  818.157,1360.35 826.015,1358.36 834.856,1355.92 842.903,1353.52 851.236,1350.87 857.963,1348.61 864.234,1346.37 870.615,1343.94 876.455,1341.56 882.228,1339.06 
  887.091,1336.83 890.98,1334.98 894.446,1333.29 898.015,1331.51 901.666,1329.62 904.991,1327.85 908.174,1326.12 911.439,1324.29 914.79,1322.36 918.236,1320.32 
  921.517,1318.3 924.868,1316.18 928.394,1313.88 931.847,1311.57 935.534,1309.03 939.102,1306.51 942.628,1303.94 946.071,1301.35 949.219,1298.91 952.439,1296.34 
  955.662,1293.69 958.926,1290.94 962.213,1288.11 965.86,1284.86 969.346,1281.68 972.586,1278.64 975.94,1275.4 979.281,1272.1 982.799,1268.5 986.639,1264.44 
  990.633,1260.04 994.887,1255.17 999.539,1249.61 1004.01,1244.07 1008.47,1238.39 1012.76,1232.78 1017.59,1226.22 1023.02,1218.51 1028.54,1210.36 1034.25,1201.61 
  1040.1,1192.31 1045.98,1182.6 1051.89,1172.45 1057.7,1162.05 1063.53,1151.29 1069.23,1140.34 1074.88,1128.98 1080.4,1117.43 1085.83,1105.72 1090.97,1094.32 
  1096.14,1082.45 1101.17,1070.51 1105.84,1059.1 1110.66,1047.09 1115.27,1035.37 1119.78,1023.55 1124.2,1011.64 1128.54,999.669 1132.73,987.986 1136.9,976.133 
  1140.94,964.47 1144.76,953.275 1148.49,942.283 1152.17,931.189 1155.69,920.406 1159.11,909.757 1162.45,899.146 1165.72,888.755 1168.9,878.62 1171.94,868.823 
  1174.94,859.067 1177.96,849.241 1181.04,839.14 1184.09,829.081 1187.14,818.95 1190.18,808.84 1193.21,798.915 1196.22,789.016 1199.19,779.268 1202.13,769.609 
  1205.09,759.987 1208.03,750.449 1210.97,740.957 1213.85,731.663 1216.76,722.426 1219.65,713.33 1222.49,704.437 1225.35,695.537 1228.12,686.933 1230.92,678.289 
  1233.72,669.804 1236.53,661.313 1239.34,652.836 1242.12,644.503 1244.92,636.175 1247.69,627.875 1250.44,619.729 1253.21,611.645 1255.98,603.726 1258.75,595.863 
  1261.5,588.188 1264.22,580.692 1266.98,573.208 1269.73,565.728 1272.47,558.327 1275.21,551.059 1277.96,543.958 1280.71,536.944 1283.47,529.943 1286.23,523.105 
  1288.99,516.474 1291.72,510.106 1294.46,503.86 1297.19,497.774 1299.95,491.837 1302.62,486.272 1305.24,480.984 1307.86,475.813 1310.5,470.763 1313.14,465.954 
  1315.86,461.227 1318.61,456.67 1321.39,452.273 1324.22,447.969 1327.07,443.87 1329.94,440.173 1332.84,436.64 1335.75,433.33 1338.68,430.373 1341.62,427.666 
  1344.58,425.142 1347.55,422.824 1350.57,420.734 1353.62,418.964 1356.69,417.411 1359.78,416.089 1362.89,414.899 1366.01,413.902 1369.1,413.113 1372.1,412.505 
  1374.99,412.165 1377.85,412.166 1380.7,412.346 1383.52,412.703 1386.39,413.37 1389.21,414.285 1391.95,415.376 1394.51,416.494 1396.97,417.687 1399.34,418.992 
  1401.71,420.427 1404.11,422.011 1406.58,423.807 1408.97,425.703 1411.33,427.724 1413.64,429.842 1415.93,432.024 1418.22,434.302 1420.56,436.77 1422.86,439.353 
  1425.25,442.175 1427.6,445.117 1429.93,448.167 1432.26,451.309 1434.59,454.537 1436.91,457.893 1439.12,461.261 1441.39,464.79 1443.64,468.375 1445.93,472.111 
  1448.16,475.871 1450.42,479.813 1452.73,483.976 1455.05,488.285 1457.42,492.878 1459.85,497.737 1462.32,502.778 1464.84,508.019 1467.36,513.379 1469.8,518.652 
  1472.3,524.083 1474.76,529.478 1477.2,534.909 1479.66,540.432 1482.12,546.094 1484.67,552.007 1487.22,557.91 1489.91,564.188 1492.57,570.53 1495.3,577.12 
  1498.1,583.978 1501.1,591.491 1503.95,598.726 1506.9,606.197 1509.82,613.664 1512.84,621.426 1515.8,629.121 1519.05,637.539 1522.3,646.119 1525.88,655.663 
  1529.67,665.774 1533.51,676.013 1537.45,686.507 1541.34,696.849 1545.34,707.576 1549.27,718.095 1553.45,729.221 1557.58,740.155 1561.71,751.043 1565.91,761.935 
  1570.07,772.672 1574.13,783.093 1578.16,793.313 1582.47,804.225 1586.36,813.989 1590.42,824.116 1594.14,833.284 1598.17,843.201 1602.19,852.991 1606.42,863.2 
  1610.58,873.102 1614.4,882.184 1618.7,892.327 1623.48,903.403 1627.4,912.379 1631.55,921.777 1635.65,930.933 1640.11,940.815 1644.44,950.313 1648.76,959.607 
  1652.75,968.085 1657.1,977.23 1660.95,985.215 1664.42,992.302 1667.77,999.052 1671.15,1005.8 1674.55,1012.47 1677.84,1018.89 1681.3,1025.57 1684.73,1032.1 
  1688.12,1038.51 1691.59,1044.93 1695.07,1051.26 1698.39,1057.22 1701.69,1063.08 1705.16,1069.16 1708.83,1075.51 1712.2,1081.29 1715.57,1087 1718.79,1092.38 
  1721.8,1097.38 1724.65,1102.06 1727.35,1106.43 1729.89,1110.49 1732.49,1114.58 1735.25,1118.88 1738.01,1123.1 1740.77,1127.28 1743.57,1131.47 1746.29,1135.49 
  1748.97,1139.38 1751.73,1143.33 1754.5,1147.25 1757.32,1151.19 1760.12,1155.03 1763.26,1159.31 1766.43,1163.54 1769.99,1168.2 1774,1173.34 1778.51,1179.01 
  1783.59,1185.25 1789.3,1192.05 1794.92,1198.55 1799.68,1203.89 1803.85,1208.45 1808.28,1213.18 1812.63,1217.69 1817.25,1222.4 1821.99,1227.1 1827.31,1232.27 
  1833.31,1237.87 1840.05,1243.93 1846.78,1249.74 1854.35,1256.02 1862.87,1262.72 1869.66,1267.85 1875.96,1272.43 1883.05,1277.38 1891.02,1282.73 1899.11,1287.94 
  1908.22,1293.53 1914.65,1297.3 1921.89,1301.38 1930.04,1305.8 1939.2,1310.51 1949.52,1315.49 1961.11,1320.66 1972.59,1325.39 1984.19,1329.8 1991.57,1332.46 
  1999.87,1335.32 2008.66,1338.18 2018.56,1341.23 2029.68,1344.45 2038.84,1346.93 2049.14,1349.54 2054.99,1350.93 2061.17,1352.35 2066.11,1353.44 2071.67,1354.63 
  2076.81,1355.7 2081.76,1356.69 2085.77,1357.46 2089.76,1358.22 2093.5,1358.91 2097.32,1359.6 2101.32,1360.3 2105.42,1360.99 2109.72,1361.7 2113.87,1362.36 
  2117.46,1362.92 2121.01,1363.46 2124.53,1363.99 2128.27,1364.53 2132.21,1365.09 2135.74,1365.57 2139.12,1366.03 2142.42,1366.46 2145.77,1366.89 2149.2,1367.32 
  2152.74,1367.76 2156.05,1368.16 2159.31,1368.55 2162.38,1368.9 2165.27,1369.23 2168.35,1369.57 2171.48,1369.92 2174.88,1370.29 2178.64,1370.68 2182.15,1371.04 
  2186.1,1371.44 2190.44,1371.86 2194.75,1372.27 2199.08,1372.68 2203.31,1373.06 2207.48,1373.42 2211.72,1373.78 2216.11,1374.14 2220.56,1374.5 2225.52,1374.89 
  2231.09,1375.31 2236.29,1375.69 2241.45,1376.05 2247.24,1376.45 2252.8,1376.83 2257.88,1377.16 2262.81,1377.47 2268.36,1377.8 2273.23,1378.09 2277.82,1378.35 
  2282.22,1378.59 2286.63,1378.82 2290.64,1379.03 2294.08,1379.21 
  "/>
<path clip-path="url(#clip320)" d="
M1567.83 270.476 L2283.65 270.476 L2283.65 166.796 L1567.83 166.796  Z
  " fill="#ffffff" fill-rule="evenodd" fill-opacity="1"/>
<polyline clip-path="url(#clip320)" style="stroke:#000000; stroke-linecap:butt; stroke-linejoin:round; stroke-width:4; stroke-opacity:1; fill:none" points="
  1567.83,270.476 2283.65,270.476 2283.65,166.796 1567.83,166.796 1567.83,270.476 
  "/>
<polyline clip-path="url(#clip320)" style="stroke:#009af9; stroke-linecap:butt; stroke-linejoin:round; stroke-width:4; stroke-opacity:1; fill:none" points="
  1590.87,218.636 1729.07,218.636 
  "/>
<path clip-path="url(#clip320)" d="M1752.1 201.356 L1759.07 201.356 L1767.89 224.874 L1776.76 201.356 L1783.72 201.356 L1783.72 235.916 L1779.16 235.916 L1779.16 205.569 L1770.25 229.272 L1765.55 229.272 L1756.64 205.569 L1756.64 235.916 L1752.1 235.916 L1752.1 201.356 Z" fill="#000000" fill-rule="evenodd" fill-opacity="1" /><path clip-path="url(#clip320)" d="M1792.82 209.99 L1797.08 209.99 L1797.08 235.916 L1792.82 235.916 L1792.82 209.99 M1792.82 199.897 L1797.08 199.897 L1797.08 205.291 L1792.82 205.291 L1792.82 199.897 Z" fill="#000000" fill-rule="evenodd" fill-opacity="1" /><path clip-path="url(#clip320)" d="M1823.05 213.925 L1823.05 199.897 L1827.31 199.897 L1827.31 235.916 L1823.05 235.916 L1823.05 232.027 Q1821.71 234.342 1819.65 235.476 Q1817.61 236.587 1814.74 236.587 Q1810.04 236.587 1807.08 232.837 Q1804.14 229.087 1804.14 222.976 Q1804.14 216.865 1807.08 213.115 Q1810.04 209.365 1814.74 209.365 Q1817.61 209.365 1819.65 210.499 Q1821.71 211.61 1823.05 213.925 M1808.54 222.976 Q1808.54 227.675 1810.46 230.36 Q1812.4 233.022 1815.78 233.022 Q1819.16 233.022 1821.11 230.36 Q1823.05 227.675 1823.05 222.976 Q1823.05 218.277 1821.11 215.615 Q1819.16 212.93 1815.78 212.93 Q1812.4 212.93 1810.46 215.615 Q1808.54 218.277 1808.54 222.976 Z" fill="#000000" fill-rule="evenodd" fill-opacity="1" /><path clip-path="url(#clip320)" d="M1853.14 213.925 L1853.14 199.897 L1857.4 199.897 L1857.4 235.916 L1853.14 235.916 L1853.14 232.027 Q1851.8 234.342 1849.74 235.476 Q1847.7 236.587 1844.83 236.587 Q1840.13 236.587 1837.17 232.837 Q1834.23 229.087 1834.23 222.976 Q1834.23 216.865 1837.17 213.115 Q1840.13 209.365 1844.83 209.365 Q1847.7 209.365 1849.74 210.499 Q1851.8 211.61 1853.14 213.925 M1838.63 222.976 Q1838.63 227.675 1840.55 230.36 Q1842.5 233.022 1845.88 233.022 Q1849.26 233.022 1851.2 230.36 Q1853.14 227.675 1853.14 222.976 Q1853.14 218.277 1851.2 215.615 Q1849.26 212.93 1845.88 212.93 Q1842.5 212.93 1840.55 215.615 Q1838.63 218.277 1838.63 222.976 Z" fill="#000000" fill-rule="evenodd" fill-opacity="1" /><path clip-path="url(#clip320)" d="M1866.18 199.897 L1870.44 199.897 L1870.44 235.916 L1866.18 235.916 L1866.18 199.897 Z" fill="#000000" fill-rule="evenodd" fill-opacity="1" /><path clip-path="url(#clip320)" d="M1901.52 221.888 L1901.52 223.971 L1881.94 223.971 Q1882.22 228.369 1884.58 230.684 Q1886.96 232.976 1891.2 232.976 Q1893.65 232.976 1895.94 232.374 Q1898.26 231.772 1900.53 230.569 L1900.53 234.596 Q1898.24 235.568 1895.83 236.078 Q1893.42 236.587 1890.94 236.587 Q1884.74 236.587 1881.11 232.976 Q1877.5 229.365 1877.5 223.207 Q1877.5 216.842 1880.92 213.115 Q1884.37 209.365 1890.2 209.365 Q1895.44 209.365 1898.47 212.745 Q1901.52 216.101 1901.52 221.888 M1897.26 220.638 Q1897.22 217.143 1895.3 215.059 Q1893.4 212.976 1890.25 212.976 Q1886.69 212.976 1884.53 214.99 Q1882.4 217.004 1882.08 220.661 L1897.26 220.638 Z" fill="#000000" fill-rule="evenodd" fill-opacity="1" /><path clip-path="url(#clip320)" d="M1924.32 235.198 L1924.32 230.939 Q1926.08 231.772 1927.89 232.212 Q1929.69 232.652 1931.43 232.652 Q1936.06 232.652 1938.49 229.55 Q1940.94 226.425 1941.29 220.082 Q1939.95 222.073 1937.89 223.138 Q1935.83 224.203 1933.33 224.203 Q1928.14 224.203 1925.11 221.078 Q1922.1 217.93 1922.1 212.49 Q1922.1 207.166 1925.25 203.948 Q1928.4 200.731 1933.63 200.731 Q1939.62 200.731 1942.77 205.337 Q1945.94 209.92 1945.94 218.67 Q1945.94 226.842 1942.06 231.726 Q1938.19 236.587 1931.64 236.587 Q1929.88 236.587 1928.07 236.24 Q1926.27 235.893 1924.32 235.198 M1933.63 220.545 Q1936.78 220.545 1938.61 218.393 Q1940.46 216.24 1940.46 212.49 Q1940.46 208.763 1938.61 206.61 Q1936.78 204.434 1933.63 204.434 Q1930.48 204.434 1928.63 206.61 Q1926.8 208.763 1926.8 212.49 Q1926.8 216.24 1928.63 218.393 Q1930.48 220.545 1933.63 220.545 Z" fill="#000000" fill-rule="evenodd" fill-opacity="1" /><path clip-path="url(#clip320)" d="M1954.39 201.356 L1972.75 201.356 L1972.75 205.291 L1958.68 205.291 L1958.68 213.763 Q1959.69 213.416 1960.71 213.254 Q1961.73 213.069 1962.75 213.069 Q1968.54 213.069 1971.92 216.24 Q1975.3 219.411 1975.3 224.828 Q1975.3 230.406 1971.82 233.508 Q1968.35 236.587 1962.03 236.587 Q1959.86 236.587 1957.59 236.217 Q1955.34 235.846 1952.94 235.106 L1952.94 230.406 Q1955.02 231.541 1957.24 232.096 Q1959.46 232.652 1961.94 232.652 Q1965.94 232.652 1968.28 230.545 Q1970.62 228.439 1970.62 224.828 Q1970.62 221.217 1968.28 219.11 Q1965.94 217.004 1961.94 217.004 Q1960.06 217.004 1958.19 217.42 Q1956.34 217.837 1954.39 218.717 L1954.39 201.356 Z" fill="#000000" fill-rule="evenodd" fill-opacity="1" /><path clip-path="url(#clip320)" d="M2013.91 220.707 Q2011.89 220.707 2010.74 222.42 Q2009.6 224.133 2009.6 227.189 Q2009.6 230.198 2010.74 231.934 Q2011.89 233.647 2013.91 233.647 Q2015.87 233.647 2017.01 231.934 Q2018.17 230.198 2018.17 227.189 Q2018.17 224.157 2017.01 222.444 Q2015.87 220.707 2013.91 220.707 M2013.91 217.768 Q2017.56 217.768 2019.72 220.314 Q2021.87 222.86 2021.87 227.189 Q2021.87 231.518 2019.69 234.064 Q2017.54 236.587 2013.91 236.587 Q2010.2 236.587 2008.05 234.064 Q2005.9 231.518 2005.9 227.189 Q2005.9 222.837 2008.05 220.314 Q2010.23 217.768 2013.91 217.768 M1990.02 203.671 Q1988.03 203.671 1986.87 205.407 Q1985.74 207.12 1985.74 210.129 Q1985.74 213.184 1986.87 214.897 Q1988 216.61 1990.02 216.61 Q1992.03 216.61 1993.17 214.897 Q1994.32 213.184 1994.32 210.129 Q1994.32 207.143 1993.17 205.407 Q1992.01 203.671 1990.02 203.671 M2010.92 200.731 L2014.62 200.731 L1993 236.587 L1989.3 236.587 L2010.92 200.731 M1990.02 200.731 Q1993.68 200.731 1995.85 203.277 Q1998.03 205.8 1998.03 210.129 Q1998.03 214.504 1995.85 217.027 Q1993.7 219.55 1990.02 219.55 Q1986.34 219.55 1984.18 217.027 Q1982.06 214.481 1982.06 210.129 Q1982.06 205.823 1984.21 203.277 Q1986.36 200.731 1990.02 200.731 Z" fill="#000000" fill-rule="evenodd" fill-opacity="1" /><path clip-path="url(#clip320)" d="M2058.24 204.527 Q2053.14 204.527 2050.13 208.323 Q2047.15 212.12 2047.15 218.67 Q2047.15 225.198 2050.13 228.994 Q2053.14 232.791 2058.24 232.791 Q2063.33 232.791 2066.29 228.994 Q2069.28 225.198 2069.28 218.67 Q2069.28 212.12 2066.29 208.323 Q2063.33 204.527 2058.24 204.527 M2064.79 235.291 L2070.94 242.027 L2065.3 242.027 L2060.18 236.494 Q2059.42 236.541 2059 236.564 Q2058.61 236.587 2058.24 236.587 Q2050.94 236.587 2046.57 231.726 Q2042.22 226.842 2042.22 218.67 Q2042.22 210.476 2046.57 205.615 Q2050.94 200.731 2058.24 200.731 Q2065.5 200.731 2069.86 205.615 Q2074.21 210.476 2074.21 218.67 Q2074.21 224.689 2071.78 228.971 Q2069.37 233.254 2064.79 235.291 Z" fill="#000000" fill-rule="evenodd" fill-opacity="1" /><path clip-path="url(#clip320)" d="M2080.9 225.684 L2080.9 209.99 L2085.16 209.99 L2085.16 225.522 Q2085.16 229.203 2086.59 231.055 Q2088.03 232.883 2090.9 232.883 Q2094.35 232.883 2096.34 230.684 Q2098.35 228.485 2098.35 224.689 L2098.35 209.99 L2102.61 209.99 L2102.61 235.916 L2098.35 235.916 L2098.35 231.934 Q2096.8 234.295 2094.74 235.453 Q2092.7 236.587 2089.99 236.587 Q2085.53 236.587 2083.21 233.809 Q2080.9 231.031 2080.9 225.684 M2091.61 209.365 L2091.61 209.365 Z" fill="#000000" fill-rule="evenodd" fill-opacity="1" /><path clip-path="url(#clip320)" d="M2123.17 222.883 Q2118 222.883 2116.01 224.064 Q2114.02 225.244 2114.02 228.092 Q2114.02 230.36 2115.5 231.703 Q2117.01 233.022 2119.58 233.022 Q2123.12 233.022 2125.25 230.522 Q2127.4 227.999 2127.4 223.832 L2127.4 222.883 L2123.17 222.883 M2131.66 221.124 L2131.66 235.916 L2127.4 235.916 L2127.4 231.981 Q2125.94 234.342 2123.77 235.476 Q2121.59 236.587 2118.44 236.587 Q2114.46 236.587 2112.1 234.365 Q2109.76 232.119 2109.76 228.369 Q2109.76 223.994 2112.68 221.772 Q2115.62 219.55 2121.43 219.55 L2127.4 219.55 L2127.4 219.133 Q2127.4 216.194 2125.46 214.596 Q2123.54 212.976 2120.04 212.976 Q2117.82 212.976 2115.71 213.508 Q2113.61 214.041 2111.66 215.106 L2111.66 211.17 Q2114 210.268 2116.2 209.828 Q2118.4 209.365 2120.48 209.365 Q2126.11 209.365 2128.88 212.282 Q2131.66 215.198 2131.66 221.124 Z" fill="#000000" fill-rule="evenodd" fill-opacity="1" /><path clip-path="url(#clip320)" d="M2161.98 220.268 L2161.98 235.916 L2157.73 235.916 L2157.73 220.407 Q2157.73 216.726 2156.29 214.897 Q2154.86 213.069 2151.98 213.069 Q2148.54 213.069 2146.55 215.268 Q2144.55 217.467 2144.55 221.263 L2144.55 235.916 L2140.27 235.916 L2140.27 209.99 L2144.55 209.99 L2144.55 214.018 Q2146.08 211.68 2148.14 210.522 Q2150.23 209.365 2152.93 209.365 Q2157.4 209.365 2159.69 212.143 Q2161.98 214.897 2161.98 220.268 Z" fill="#000000" fill-rule="evenodd" fill-opacity="1" /><path clip-path="url(#clip320)" d="M2174.69 202.629 L2174.69 209.99 L2183.47 209.99 L2183.47 213.3 L2174.69 213.3 L2174.69 227.374 Q2174.69 230.545 2175.55 231.448 Q2176.43 232.351 2179.09 232.351 L2183.47 232.351 L2183.47 235.916 L2179.09 235.916 Q2174.16 235.916 2172.29 234.087 Q2170.41 232.235 2170.41 227.374 L2170.41 213.3 L2167.29 213.3 L2167.29 209.99 L2170.41 209.99 L2170.41 202.629 L2174.69 202.629 Z" fill="#000000" fill-rule="evenodd" fill-opacity="1" /><path clip-path="url(#clip320)" d="M2189.07 209.99 L2193.33 209.99 L2193.33 235.916 L2189.07 235.916 L2189.07 209.99 M2189.07 199.897 L2193.33 199.897 L2193.33 205.291 L2189.07 205.291 L2189.07 199.897 Z" fill="#000000" fill-rule="evenodd" fill-opacity="1" /><path clip-path="url(#clip320)" d="M2202.24 199.897 L2206.5 199.897 L2206.5 235.916 L2202.24 235.916 L2202.24 199.897 Z" fill="#000000" fill-rule="evenodd" fill-opacity="1" /><path clip-path="url(#clip320)" d="M2237.59 221.888 L2237.59 223.971 L2218 223.971 Q2218.28 228.369 2220.64 230.684 Q2223.03 232.976 2227.26 232.976 Q2229.72 232.976 2232.01 232.374 Q2234.32 231.772 2236.59 230.569 L2236.59 234.596 Q2234.3 235.568 2231.89 236.078 Q2229.48 236.587 2227.01 236.587 Q2220.8 236.587 2217.17 232.976 Q2213.56 229.365 2213.56 223.207 Q2213.56 216.842 2216.98 213.115 Q2220.43 209.365 2226.27 209.365 Q2231.5 209.365 2234.53 212.745 Q2237.59 216.101 2237.59 221.888 M2233.33 220.638 Q2233.28 217.143 2231.36 215.059 Q2229.46 212.976 2226.31 212.976 Q2222.75 212.976 2220.6 214.99 Q2218.47 217.004 2218.14 220.661 L2233.33 220.638 Z" fill="#000000" fill-rule="evenodd" fill-opacity="1" /></svg>
