<?xml version="1.0" encoding="utf-8"?>
<svg xmlns="http://www.w3.org/2000/svg" xmlns:xlink="http://www.w3.org/1999/xlink" width="600" height="400" viewBox="0 0 2400 1600">
<defs>
  <clipPath id="clip210">
    <rect x="0" y="0" width="2400" height="1600"/>
  </clipPath>
</defs>
<path clip-path="url(#clip210)" d="
M0 1600 L2400 1600 L2400 0 L0 0  Z
  " fill="#ffffff" fill-rule="evenodd" fill-opacity="1"/>
<defs>
  <clipPath id="clip211">
    <rect x="480" y="0" width="1681" height="1600"/>
  </clipPath>
</defs>
<defs>
  <clipPath id="clip212">
    <rect x="250" y="123" width="2104" height="1301"/>
  </clipPath>
</defs>
<path clip-path="url(#clip210)" d="
M250.028 1423.18 L2352.76 1423.18 L2352.76 123.472 L250.028 123.472  Z
  " fill="#ffffff" fill-rule="evenodd" fill-opacity="1"/>
<polyline clip-path="url(#clip212)" style="stroke:#000000; stroke-linecap:butt; stroke-linejoin:round; stroke-width:2; stroke-opacity:0.1; fill:none" points="
  309.539,1423.18 309.539,123.472 
  "/>
<polyline clip-path="url(#clip212)" style="stroke:#000000; stroke-linecap:butt; stroke-linejoin:round; stroke-width:2; stroke-opacity:0.1; fill:none" points="
  670.213,1423.18 670.213,123.472 
  "/>
<polyline clip-path="url(#clip212)" style="stroke:#000000; stroke-linecap:butt; stroke-linejoin:round; stroke-width:2; stroke-opacity:0.1; fill:none" points="
  1030.89,1423.18 1030.89,123.472 
  "/>
<polyline clip-path="url(#clip212)" style="stroke:#000000; stroke-linecap:butt; stroke-linejoin:round; stroke-width:2; stroke-opacity:0.1; fill:none" points="
  1391.56,1423.18 1391.56,123.472 
  "/>
<polyline clip-path="url(#clip212)" style="stroke:#000000; stroke-linecap:butt; stroke-linejoin:round; stroke-width:2; stroke-opacity:0.1; fill:none" points="
  1752.23,1423.18 1752.23,123.472 
  "/>
<polyline clip-path="url(#clip212)" style="stroke:#000000; stroke-linecap:butt; stroke-linejoin:round; stroke-width:2; stroke-opacity:0.1; fill:none" points="
  2112.91,1423.18 2112.91,123.472 
  "/>
<polyline clip-path="url(#clip210)" style="stroke:#000000; stroke-linecap:butt; stroke-linejoin:round; stroke-width:4; stroke-opacity:1; fill:none" points="
  250.028,1423.18 2352.76,1423.18 
  "/>
<polyline clip-path="url(#clip210)" style="stroke:#000000; stroke-linecap:butt; stroke-linejoin:round; stroke-width:4; stroke-opacity:1; fill:none" points="
  309.539,1423.18 309.539,1404.28 
  "/>
<polyline clip-path="url(#clip210)" style="stroke:#000000; stroke-linecap:butt; stroke-linejoin:round; stroke-width:4; stroke-opacity:1; fill:none" points="
  670.213,1423.18 670.213,1404.28 
  "/>
<polyline clip-path="url(#clip210)" style="stroke:#000000; stroke-linecap:butt; stroke-linejoin:round; stroke-width:4; stroke-opacity:1; fill:none" points="
  1030.89,1423.18 1030.89,1404.28 
  "/>
<polyline clip-path="url(#clip210)" style="stroke:#000000; stroke-linecap:butt; stroke-linejoin:round; stroke-width:4; stroke-opacity:1; fill:none" points="
  1391.56,1423.18 1391.56,1404.28 
  "/>
<polyline clip-path="url(#clip210)" style="stroke:#000000; stroke-linecap:butt; stroke-linejoin:round; stroke-width:4; stroke-opacity:1; fill:none" points="
  1752.23,1423.18 1752.23,1404.28 
  "/>
<polyline clip-path="url(#clip210)" style="stroke:#000000; stroke-linecap:butt; stroke-linejoin:round; stroke-width:4; stroke-opacity:1; fill:none" points="
  2112.91,1423.18 2112.91,1404.28 
  "/>
<path clip-path="url(#clip210)" d="M309.539 1454.1 Q305.928 1454.1 304.1 1457.66 Q302.294 1461.2 302.294 1468.33 Q302.294 1475.44 304.1 1479.01 Q305.928 1482.55 309.539 1482.55 Q313.174 1482.55 314.979 1479.01 Q316.808 1475.44 316.808 1468.33 Q316.808 1461.2 314.979 1457.66 Q313.174 1454.1 309.539 1454.1 M309.539 1450.39 Q315.349 1450.39 318.405 1455 Q321.484 1459.58 321.484 1468.33 Q321.484 1477.06 318.405 1481.67 Q315.349 1486.25 309.539 1486.25 Q303.729 1486.25 300.65 1481.67 Q297.595 1477.06 297.595 1468.33 Q297.595 1459.58 300.65 1455 Q303.729 1450.39 309.539 1450.39 Z" fill="#000000" fill-rule="evenodd" fill-opacity="1" /><path clip-path="url(#clip210)" d="M629.82 1481.64 L637.459 1481.64 L637.459 1455.28 L629.148 1456.95 L629.148 1452.69 L637.412 1451.02 L642.088 1451.02 L642.088 1481.64 L649.727 1481.64 L649.727 1485.58 L629.82 1485.58 L629.82 1481.64 Z" fill="#000000" fill-rule="evenodd" fill-opacity="1" /><path clip-path="url(#clip210)" d="M669.171 1454.1 Q665.56 1454.1 663.732 1457.66 Q661.926 1461.2 661.926 1468.33 Q661.926 1475.44 663.732 1479.01 Q665.56 1482.55 669.171 1482.55 Q672.806 1482.55 674.611 1479.01 Q676.44 1475.44 676.44 1468.33 Q676.44 1461.2 674.611 1457.66 Q672.806 1454.1 669.171 1454.1 M669.171 1450.39 Q674.982 1450.39 678.037 1455 Q681.116 1459.58 681.116 1468.33 Q681.116 1477.06 678.037 1481.67 Q674.982 1486.25 669.171 1486.25 Q663.361 1486.25 660.283 1481.67 Q657.227 1477.06 657.227 1468.33 Q657.227 1459.58 660.283 1455 Q663.361 1450.39 669.171 1450.39 Z" fill="#000000" fill-rule="evenodd" fill-opacity="1" /><path clip-path="url(#clip210)" d="M699.333 1454.1 Q695.722 1454.1 693.893 1457.66 Q692.088 1461.2 692.088 1468.33 Q692.088 1475.44 693.893 1479.01 Q695.722 1482.55 699.333 1482.55 Q702.967 1482.55 704.773 1479.01 Q706.602 1475.44 706.602 1468.33 Q706.602 1461.2 704.773 1457.66 Q702.967 1454.1 699.333 1454.1 M699.333 1450.39 Q705.143 1450.39 708.199 1455 Q711.278 1459.58 711.278 1468.33 Q711.278 1477.06 708.199 1481.67 Q705.143 1486.25 699.333 1486.25 Q693.523 1486.25 690.444 1481.67 Q687.389 1477.06 687.389 1468.33 Q687.389 1459.58 690.444 1455 Q693.523 1450.39 699.333 1450.39 Z" fill="#000000" fill-rule="evenodd" fill-opacity="1" /><path clip-path="url(#clip210)" d="M994.579 1481.64 L1010.9 1481.64 L1010.9 1485.58 L988.954 1485.58 L988.954 1481.64 Q991.616 1478.89 996.199 1474.26 Q1000.81 1469.61 1001.99 1468.27 Q1004.23 1465.74 1005.11 1464.01 Q1006.01 1462.25 1006.01 1460.56 Q1006.01 1457.8 1004.07 1456.07 Q1002.15 1454.33 999.047 1454.33 Q996.848 1454.33 994.394 1455.09 Q991.963 1455.86 989.186 1457.41 L989.186 1452.69 Q992.01 1451.55 994.463 1450.97 Q996.917 1450.39 998.954 1450.39 Q1004.32 1450.39 1007.52 1453.08 Q1010.71 1455.77 1010.71 1460.26 Q1010.71 1462.39 1009.9 1464.31 Q1009.12 1466.2 1007.01 1468.8 Q1006.43 1469.47 1003.33 1472.69 Q1000.23 1475.88 994.579 1481.64 Z" fill="#000000" fill-rule="evenodd" fill-opacity="1" /><path clip-path="url(#clip210)" d="M1030.71 1454.1 Q1027.1 1454.1 1025.27 1457.66 Q1023.47 1461.2 1023.47 1468.33 Q1023.47 1475.44 1025.27 1479.01 Q1027.1 1482.55 1030.71 1482.55 Q1034.35 1482.55 1036.15 1479.01 Q1037.98 1475.44 1037.98 1468.33 Q1037.98 1461.2 1036.15 1457.66 Q1034.35 1454.1 1030.71 1454.1 M1030.71 1450.39 Q1036.52 1450.39 1039.58 1455 Q1042.66 1459.58 1042.66 1468.33 Q1042.66 1477.06 1039.58 1481.67 Q1036.52 1486.25 1030.71 1486.25 Q1024.9 1486.25 1021.82 1481.67 Q1018.77 1477.06 1018.77 1468.33 Q1018.77 1459.58 1021.82 1455 Q1024.9 1450.39 1030.71 1450.39 Z" fill="#000000" fill-rule="evenodd" fill-opacity="1" /><path clip-path="url(#clip210)" d="M1060.88 1454.1 Q1057.26 1454.1 1055.44 1457.66 Q1053.63 1461.2 1053.63 1468.33 Q1053.63 1475.44 1055.44 1479.01 Q1057.26 1482.55 1060.88 1482.55 Q1064.51 1482.55 1066.31 1479.01 Q1068.14 1475.44 1068.14 1468.33 Q1068.14 1461.2 1066.31 1457.66 Q1064.51 1454.1 1060.88 1454.1 M1060.88 1450.39 Q1066.69 1450.39 1069.74 1455 Q1072.82 1459.58 1072.82 1468.33 Q1072.82 1477.06 1069.74 1481.67 Q1066.69 1486.25 1060.88 1486.25 Q1055.06 1486.25 1051.99 1481.67 Q1048.93 1477.06 1048.93 1468.33 Q1048.93 1459.58 1051.99 1455 Q1055.06 1450.39 1060.88 1450.39 Z" fill="#000000" fill-rule="evenodd" fill-opacity="1" /><path clip-path="url(#clip210)" d="M1365.32 1466.95 Q1368.68 1467.66 1370.55 1469.93 Q1372.45 1472.2 1372.45 1475.53 Q1372.45 1480.65 1368.93 1483.45 Q1365.41 1486.25 1358.93 1486.25 Q1356.76 1486.25 1354.44 1485.81 Q1352.15 1485.39 1349.7 1484.54 L1349.7 1480.02 Q1351.64 1481.16 1353.96 1481.74 Q1356.27 1482.32 1358.79 1482.32 Q1363.19 1482.32 1365.48 1480.58 Q1367.8 1478.84 1367.8 1475.53 Q1367.8 1472.48 1365.65 1470.77 Q1363.52 1469.03 1359.7 1469.03 L1355.67 1469.03 L1355.67 1465.19 L1359.88 1465.19 Q1363.33 1465.19 1365.16 1463.82 Q1366.99 1462.43 1366.99 1459.84 Q1366.99 1457.18 1365.09 1455.77 Q1363.22 1454.33 1359.7 1454.33 Q1357.78 1454.33 1355.58 1454.75 Q1353.38 1455.16 1350.74 1456.04 L1350.74 1451.88 Q1353.4 1451.14 1355.72 1450.77 Q1358.05 1450.39 1360.11 1450.39 Q1365.44 1450.39 1368.54 1452.83 Q1371.64 1455.23 1371.64 1459.35 Q1371.64 1462.22 1370 1464.21 Q1368.35 1466.18 1365.32 1466.95 Z" fill="#000000" fill-rule="evenodd" fill-opacity="1" /><path clip-path="url(#clip210)" d="M1391.32 1454.1 Q1387.71 1454.1 1385.88 1457.66 Q1384.07 1461.2 1384.07 1468.33 Q1384.07 1475.44 1385.88 1479.01 Q1387.71 1482.55 1391.32 1482.55 Q1394.95 1482.55 1396.76 1479.01 Q1398.59 1475.44 1398.59 1468.33 Q1398.59 1461.2 1396.76 1457.66 Q1394.95 1454.1 1391.32 1454.1 M1391.32 1450.39 Q1397.13 1450.39 1400.18 1455 Q1403.26 1459.58 1403.26 1468.33 Q1403.26 1477.06 1400.18 1481.67 Q1397.13 1486.25 1391.32 1486.25 Q1385.51 1486.25 1382.43 1481.67 Q1379.37 1477.06 1379.37 1468.33 Q1379.37 1459.58 1382.43 1455 Q1385.51 1450.39 1391.32 1450.39 Z" fill="#000000" fill-rule="evenodd" fill-opacity="1" /><path clip-path="url(#clip210)" d="M1421.48 1454.1 Q1417.87 1454.1 1416.04 1457.66 Q1414.23 1461.2 1414.23 1468.33 Q1414.23 1475.44 1416.04 1479.01 Q1417.87 1482.55 1421.48 1482.55 Q1425.11 1482.55 1426.92 1479.01 Q1428.75 1475.44 1428.75 1468.33 Q1428.75 1461.2 1426.92 1457.66 Q1425.11 1454.1 1421.48 1454.1 M1421.48 1450.39 Q1427.29 1450.39 1430.34 1455 Q1433.42 1459.58 1433.42 1468.33 Q1433.42 1477.06 1430.34 1481.67 Q1427.29 1486.25 1421.48 1486.25 Q1415.67 1486.25 1412.59 1481.67 Q1409.53 1477.06 1409.53 1468.33 Q1409.53 1459.58 1412.59 1455 Q1415.67 1450.39 1421.48 1450.39 Z" fill="#000000" fill-rule="evenodd" fill-opacity="1" /><path clip-path="url(#clip210)" d="M1725.32 1455.09 L1713.52 1473.54 L1725.32 1473.54 L1725.32 1455.09 M1724.1 1451.02 L1729.98 1451.02 L1729.98 1473.54 L1734.91 1473.54 L1734.91 1477.43 L1729.98 1477.43 L1729.98 1485.58 L1725.32 1485.58 L1725.32 1477.43 L1709.72 1477.43 L1709.72 1472.92 L1724.1 1451.02 Z" fill="#000000" fill-rule="evenodd" fill-opacity="1" /><path clip-path="url(#clip210)" d="M1752.64 1454.1 Q1749.03 1454.1 1747.2 1457.66 Q1745.39 1461.2 1745.39 1468.33 Q1745.39 1475.44 1747.2 1479.01 Q1749.03 1482.55 1752.64 1482.55 Q1756.27 1482.55 1758.08 1479.01 Q1759.91 1475.44 1759.91 1468.33 Q1759.91 1461.2 1758.08 1457.66 Q1756.27 1454.1 1752.64 1454.1 M1752.64 1450.39 Q1758.45 1450.39 1761.5 1455 Q1764.58 1459.58 1764.58 1468.33 Q1764.58 1477.06 1761.5 1481.67 Q1758.45 1486.25 1752.64 1486.25 Q1746.83 1486.25 1743.75 1481.67 Q1740.69 1477.06 1740.69 1468.33 Q1740.69 1459.58 1743.75 1455 Q1746.83 1450.39 1752.64 1450.39 Z" fill="#000000" fill-rule="evenodd" fill-opacity="1" /><path clip-path="url(#clip210)" d="M1782.8 1454.1 Q1779.19 1454.1 1777.36 1457.66 Q1775.56 1461.2 1775.56 1468.33 Q1775.56 1475.44 1777.36 1479.01 Q1779.19 1482.55 1782.8 1482.55 Q1786.44 1482.55 1788.24 1479.01 Q1790.07 1475.44 1790.07 1468.33 Q1790.07 1461.2 1788.24 1457.66 Q1786.44 1454.1 1782.8 1454.1 M1782.8 1450.39 Q1788.61 1450.39 1791.67 1455 Q1794.75 1459.58 1794.75 1468.33 Q1794.75 1477.06 1791.67 1481.67 Q1788.61 1486.25 1782.8 1486.25 Q1776.99 1486.25 1773.91 1481.67 Q1770.86 1477.06 1770.86 1468.33 Q1770.86 1459.58 1773.91 1455 Q1776.99 1450.39 1782.8 1450.39 Z" fill="#000000" fill-rule="evenodd" fill-opacity="1" /><path clip-path="url(#clip210)" d="M2072.53 1451.02 L2090.88 1451.02 L2090.88 1454.96 L2076.81 1454.96 L2076.81 1463.43 Q2077.83 1463.08 2078.85 1462.92 Q2079.86 1462.73 2080.88 1462.73 Q2086.67 1462.73 2090.05 1465.9 Q2093.43 1469.08 2093.43 1474.49 Q2093.43 1480.07 2089.96 1483.17 Q2086.48 1486.25 2080.17 1486.25 Q2077.99 1486.25 2075.72 1485.88 Q2073.48 1485.51 2071.07 1484.77 L2071.07 1480.07 Q2073.15 1481.2 2075.37 1481.76 Q2077.6 1482.32 2080.07 1482.32 Q2084.08 1482.32 2086.41 1480.21 Q2088.75 1478.1 2088.75 1474.49 Q2088.75 1470.88 2086.41 1468.77 Q2084.08 1466.67 2080.07 1466.67 Q2078.2 1466.67 2076.32 1467.08 Q2074.47 1467.5 2072.53 1468.38 L2072.53 1451.02 Z" fill="#000000" fill-rule="evenodd" fill-opacity="1" /><path clip-path="url(#clip210)" d="M2112.64 1454.1 Q2109.03 1454.1 2107.2 1457.66 Q2105.4 1461.2 2105.4 1468.33 Q2105.4 1475.44 2107.2 1479.01 Q2109.03 1482.55 2112.64 1482.55 Q2116.28 1482.55 2118.08 1479.01 Q2119.91 1475.44 2119.91 1468.33 Q2119.91 1461.2 2118.08 1457.66 Q2116.28 1454.1 2112.64 1454.1 M2112.64 1450.39 Q2118.45 1450.39 2121.51 1455 Q2124.59 1459.58 2124.59 1468.33 Q2124.59 1477.06 2121.51 1481.67 Q2118.45 1486.25 2112.64 1486.25 Q2106.83 1486.25 2103.75 1481.67 Q2100.7 1477.06 2100.7 1468.33 Q2100.7 1459.58 2103.75 1455 Q2106.83 1450.39 2112.64 1450.39 Z" fill="#000000" fill-rule="evenodd" fill-opacity="1" /><path clip-path="url(#clip210)" d="M2142.8 1454.1 Q2139.19 1454.1 2137.36 1457.66 Q2135.56 1461.2 2135.56 1468.33 Q2135.56 1475.44 2137.36 1479.01 Q2139.19 1482.55 2142.8 1482.55 Q2146.44 1482.55 2148.24 1479.01 Q2150.07 1475.44 2150.07 1468.33 Q2150.07 1461.2 2148.24 1457.66 Q2146.44 1454.1 2142.8 1454.1 M2142.8 1450.39 Q2148.61 1450.39 2151.67 1455 Q2154.75 1459.58 2154.75 1468.33 Q2154.75 1477.06 2151.67 1481.67 Q2148.61 1486.25 2142.8 1486.25 Q2136.99 1486.25 2133.91 1481.67 Q2130.86 1477.06 2130.86 1468.33 Q2130.86 1459.58 2133.91 1455 Q2136.99 1450.39 2142.8 1450.39 Z" fill="#000000" fill-rule="evenodd" fill-opacity="1" /><path clip-path="url(#clip210)" d="M1309.86 1548.54 Q1309.86 1549.45 1309.44 1549.67 Q1309.03 1549.87 1307.87 1549.87 L1301.68 1549.87 L1296.79 1569.32 Q1296.4 1571.02 1296.4 1572.47 Q1296.4 1574.08 1296.88 1574.79 Q1297.4 1575.5 1298.46 1575.5 Q1300.56 1575.5 1302.81 1573.6 Q1305.1 1571.7 1307.03 1567.06 Q1307.29 1566.45 1307.42 1566.32 Q1307.58 1566.16 1308 1566.16 Q1308.8 1566.16 1308.8 1566.81 Q1308.8 1567.03 1308.35 1568.06 Q1307.93 1569.09 1307 1570.61 Q1306.09 1572.12 1304.9 1573.54 Q1303.74 1574.95 1301.97 1575.98 Q1300.2 1576.98 1298.3 1576.98 Q1295.63 1576.98 1293.92 1575.28 Q1292.25 1573.57 1292.25 1570.9 Q1292.25 1570.03 1292.92 1567.26 Q1293.6 1564.45 1297.27 1549.87 L1291.44 1549.87 Q1290.64 1549.87 1290.31 1549.83 Q1290.02 1549.8 1289.8 1549.64 Q1289.61 1549.45 1289.61 1549.06 Q1289.61 1548.45 1289.86 1548.19 Q1290.12 1547.9 1290.44 1547.87 Q1290.8 1547.8 1291.6 1547.8 L1297.79 1547.8 L1300.36 1537.34 Q1300.62 1536.31 1301.26 1535.73 Q1301.94 1535.12 1302.33 1535.05 Q1302.71 1534.95 1303 1534.95 Q1303.87 1534.95 1304.39 1535.44 Q1304.9 1535.89 1304.9 1536.73 Q1304.9 1537.18 1302.2 1547.8 L1308 1547.8 Q1308.74 1547.8 1309.03 1547.84 Q1309.35 1547.87 1309.61 1548.03 Q1309.86 1548.19 1309.86 1548.54 Z" fill="#000000" fill-rule="evenodd" fill-opacity="1" /><polyline clip-path="url(#clip212)" style="stroke:#000000; stroke-linecap:butt; stroke-linejoin:round; stroke-width:2; stroke-opacity:0.1; fill:none" points="
  250.028,1387.2 2352.76,1387.2 
  "/>
<polyline clip-path="url(#clip212)" style="stroke:#000000; stroke-linecap:butt; stroke-linejoin:round; stroke-width:2; stroke-opacity:0.1; fill:none" points="
  250.028,1131.03 2352.76,1131.03 
  "/>
<polyline clip-path="url(#clip212)" style="stroke:#000000; stroke-linecap:butt; stroke-linejoin:round; stroke-width:2; stroke-opacity:0.1; fill:none" points="
  250.028,874.857 2352.76,874.857 
  "/>
<polyline clip-path="url(#clip212)" style="stroke:#000000; stroke-linecap:butt; stroke-linejoin:round; stroke-width:2; stroke-opacity:0.1; fill:none" points="
  250.028,618.687 2352.76,618.687 
  "/>
<polyline clip-path="url(#clip212)" style="stroke:#000000; stroke-linecap:butt; stroke-linejoin:round; stroke-width:2; stroke-opacity:0.1; fill:none" points="
  250.028,362.518 2352.76,362.518 
  "/>
<polyline clip-path="url(#clip210)" style="stroke:#000000; stroke-linecap:butt; stroke-linejoin:round; stroke-width:4; stroke-opacity:1; fill:none" points="
  250.028,1423.18 250.028,123.472 
  "/>
<polyline clip-path="url(#clip210)" style="stroke:#000000; stroke-linecap:butt; stroke-linejoin:round; stroke-width:4; stroke-opacity:1; fill:none" points="
  250.028,1387.2 268.926,1387.2 
  "/>
<polyline clip-path="url(#clip210)" style="stroke:#000000; stroke-linecap:butt; stroke-linejoin:round; stroke-width:4; stroke-opacity:1; fill:none" points="
  250.028,1131.03 268.926,1131.03 
  "/>
<polyline clip-path="url(#clip210)" style="stroke:#000000; stroke-linecap:butt; stroke-linejoin:round; stroke-width:4; stroke-opacity:1; fill:none" points="
  250.028,874.857 268.926,874.857 
  "/>
<polyline clip-path="url(#clip210)" style="stroke:#000000; stroke-linecap:butt; stroke-linejoin:round; stroke-width:4; stroke-opacity:1; fill:none" points="
  250.028,618.687 268.926,618.687 
  "/>
<polyline clip-path="url(#clip210)" style="stroke:#000000; stroke-linecap:butt; stroke-linejoin:round; stroke-width:4; stroke-opacity:1; fill:none" points="
  250.028,362.518 268.926,362.518 
  "/>
<path clip-path="url(#clip210)" d="M126.691 1373 Q123.08 1373 121.251 1376.56 Q119.445 1380.1 119.445 1387.23 Q119.445 1394.34 121.251 1397.9 Q123.08 1401.44 126.691 1401.44 Q130.325 1401.44 132.13 1397.9 Q133.959 1394.34 133.959 1387.23 Q133.959 1380.1 132.13 1376.56 Q130.325 1373 126.691 1373 M126.691 1369.29 Q132.501 1369.29 135.556 1373.9 Q138.635 1378.48 138.635 1387.23 Q138.635 1395.96 135.556 1400.56 Q132.501 1405.15 126.691 1405.15 Q120.88 1405.15 117.802 1400.56 Q114.746 1395.96 114.746 1387.23 Q114.746 1378.48 117.802 1373.9 Q120.88 1369.29 126.691 1369.29 Z" fill="#000000" fill-rule="evenodd" fill-opacity="1" /><path clip-path="url(#clip210)" d="M146.853 1398.6 L151.737 1398.6 L151.737 1404.48 L146.853 1404.48 L146.853 1398.6 Z" fill="#000000" fill-rule="evenodd" fill-opacity="1" /><path clip-path="url(#clip210)" d="M171.922 1373 Q168.311 1373 166.482 1376.56 Q164.677 1380.1 164.677 1387.23 Q164.677 1394.34 166.482 1397.9 Q168.311 1401.44 171.922 1401.44 Q175.556 1401.44 177.362 1397.9 Q179.19 1394.34 179.19 1387.23 Q179.19 1380.1 177.362 1376.56 Q175.556 1373 171.922 1373 M171.922 1369.29 Q177.732 1369.29 180.788 1373.9 Q183.866 1378.48 183.866 1387.23 Q183.866 1395.96 180.788 1400.56 Q177.732 1405.15 171.922 1405.15 Q166.112 1405.15 163.033 1400.56 Q159.978 1395.96 159.978 1387.23 Q159.978 1378.48 163.033 1373.9 Q166.112 1369.29 171.922 1369.29 Z" fill="#000000" fill-rule="evenodd" fill-opacity="1" /><path clip-path="url(#clip210)" d="M202.084 1373 Q198.473 1373 196.644 1376.56 Q194.838 1380.1 194.838 1387.23 Q194.838 1394.34 196.644 1397.9 Q198.473 1401.44 202.084 1401.44 Q205.718 1401.44 207.524 1397.9 Q209.352 1394.34 209.352 1387.23 Q209.352 1380.1 207.524 1376.56 Q205.718 1373 202.084 1373 M202.084 1369.29 Q207.894 1369.29 210.949 1373.9 Q214.028 1378.48 214.028 1387.23 Q214.028 1395.96 210.949 1400.56 Q207.894 1405.15 202.084 1405.15 Q196.274 1405.15 193.195 1400.56 Q190.139 1395.96 190.139 1387.23 Q190.139 1378.48 193.195 1373.9 Q196.274 1369.29 202.084 1369.29 Z" fill="#000000" fill-rule="evenodd" fill-opacity="1" /><path clip-path="url(#clip210)" d="M128.288 1116.83 Q124.677 1116.83 122.848 1120.39 Q121.043 1123.93 121.043 1131.06 Q121.043 1138.17 122.848 1141.73 Q124.677 1145.27 128.288 1145.27 Q131.922 1145.27 133.728 1141.73 Q135.556 1138.17 135.556 1131.06 Q135.556 1123.93 133.728 1120.39 Q131.922 1116.83 128.288 1116.83 M128.288 1113.12 Q134.098 1113.12 137.154 1117.73 Q140.232 1122.31 140.232 1131.06 Q140.232 1139.79 137.154 1144.4 Q134.098 1148.98 128.288 1148.98 Q122.478 1148.98 119.399 1144.4 Q116.343 1139.79 116.343 1131.06 Q116.343 1122.31 119.399 1117.73 Q122.478 1113.12 128.288 1113.12 Z" fill="#000000" fill-rule="evenodd" fill-opacity="1" /><path clip-path="url(#clip210)" d="M148.45 1142.43 L153.334 1142.43 L153.334 1148.31 L148.45 1148.31 L148.45 1142.43 Z" fill="#000000" fill-rule="evenodd" fill-opacity="1" /><path clip-path="url(#clip210)" d="M173.519 1116.83 Q169.908 1116.83 168.079 1120.39 Q166.274 1123.93 166.274 1131.06 Q166.274 1138.17 168.079 1141.73 Q169.908 1145.27 173.519 1145.27 Q177.153 1145.27 178.959 1141.73 Q180.788 1138.17 180.788 1131.06 Q180.788 1123.93 178.959 1120.39 Q177.153 1116.83 173.519 1116.83 M173.519 1113.12 Q179.329 1113.12 182.385 1117.73 Q185.463 1122.31 185.463 1131.06 Q185.463 1139.79 182.385 1144.4 Q179.329 1148.98 173.519 1148.98 Q167.709 1148.98 164.63 1144.4 Q161.575 1139.79 161.575 1131.06 Q161.575 1122.31 164.63 1117.73 Q167.709 1113.12 173.519 1113.12 Z" fill="#000000" fill-rule="evenodd" fill-opacity="1" /><path clip-path="url(#clip210)" d="M197.709 1144.37 L214.028 1144.37 L214.028 1148.31 L192.084 1148.31 L192.084 1144.37 Q194.746 1141.62 199.329 1136.99 Q203.936 1132.33 205.116 1130.99 Q207.362 1128.47 208.241 1126.73 Q209.144 1124.97 209.144 1123.28 Q209.144 1120.53 207.199 1118.79 Q205.278 1117.06 202.176 1117.06 Q199.977 1117.06 197.524 1117.82 Q195.093 1118.59 192.315 1120.14 L192.315 1115.41 Q195.139 1114.28 197.593 1113.7 Q200.047 1113.12 202.084 1113.12 Q207.454 1113.12 210.649 1115.81 Q213.843 1118.49 213.843 1122.98 Q213.843 1125.11 213.033 1127.03 Q212.246 1128.93 210.139 1131.52 Q209.561 1132.2 206.459 1135.41 Q203.357 1138.61 197.709 1144.37 Z" fill="#000000" fill-rule="evenodd" fill-opacity="1" /><path clip-path="url(#clip210)" d="M126.205 860.656 Q122.593 860.656 120.765 864.221 Q118.959 867.762 118.959 874.892 Q118.959 881.998 120.765 885.563 Q122.593 889.105 126.205 889.105 Q129.839 889.105 131.644 885.563 Q133.473 881.998 133.473 874.892 Q133.473 867.762 131.644 864.221 Q129.839 860.656 126.205 860.656 M126.205 856.952 Q132.015 856.952 135.07 861.559 Q138.149 866.142 138.149 874.892 Q138.149 883.619 135.07 888.225 Q132.015 892.809 126.205 892.809 Q120.394 892.809 117.316 888.225 Q114.26 883.619 114.26 874.892 Q114.26 866.142 117.316 861.559 Q120.394 856.952 126.205 856.952 Z" fill="#000000" fill-rule="evenodd" fill-opacity="1" /><path clip-path="url(#clip210)" d="M146.366 886.258 L151.251 886.258 L151.251 892.137 L146.366 892.137 L146.366 886.258 Z" fill="#000000" fill-rule="evenodd" fill-opacity="1" /><path clip-path="url(#clip210)" d="M171.436 860.656 Q167.825 860.656 165.996 864.221 Q164.19 867.762 164.19 874.892 Q164.19 881.998 165.996 885.563 Q167.825 889.105 171.436 889.105 Q175.07 889.105 176.876 885.563 Q178.704 881.998 178.704 874.892 Q178.704 867.762 176.876 864.221 Q175.07 860.656 171.436 860.656 M171.436 856.952 Q177.246 856.952 180.301 861.559 Q183.38 866.142 183.38 874.892 Q183.38 883.619 180.301 888.225 Q177.246 892.809 171.436 892.809 Q165.626 892.809 162.547 888.225 Q159.491 883.619 159.491 874.892 Q159.491 866.142 162.547 861.559 Q165.626 856.952 171.436 856.952 Z" fill="#000000" fill-rule="evenodd" fill-opacity="1" /><path clip-path="url(#clip210)" d="M204.445 861.651 L192.639 880.1 L204.445 880.1 L204.445 861.651 M203.218 857.577 L209.098 857.577 L209.098 880.1 L214.028 880.1 L214.028 883.989 L209.098 883.989 L209.098 892.137 L204.445 892.137 L204.445 883.989 L188.843 883.989 L188.843 879.475 L203.218 857.577 Z" fill="#000000" fill-rule="evenodd" fill-opacity="1" /><path clip-path="url(#clip210)" d="M126.529 604.486 Q122.918 604.486 121.089 608.051 Q119.283 611.593 119.283 618.722 Q119.283 625.829 121.089 629.393 Q122.918 632.935 126.529 632.935 Q130.163 632.935 131.968 629.393 Q133.797 625.829 133.797 618.722 Q133.797 611.593 131.968 608.051 Q130.163 604.486 126.529 604.486 M126.529 600.782 Q132.339 600.782 135.394 605.389 Q138.473 609.972 138.473 618.722 Q138.473 627.449 135.394 632.055 Q132.339 636.639 126.529 636.639 Q120.718 636.639 117.64 632.055 Q114.584 627.449 114.584 618.722 Q114.584 609.972 117.64 605.389 Q120.718 600.782 126.529 600.782 Z" fill="#000000" fill-rule="evenodd" fill-opacity="1" /><path clip-path="url(#clip210)" d="M146.691 630.088 L151.575 630.088 L151.575 635.967 L146.691 635.967 L146.691 630.088 Z" fill="#000000" fill-rule="evenodd" fill-opacity="1" /><path clip-path="url(#clip210)" d="M171.76 604.486 Q168.149 604.486 166.32 608.051 Q164.515 611.593 164.515 618.722 Q164.515 625.829 166.32 629.393 Q168.149 632.935 171.76 632.935 Q175.394 632.935 177.2 629.393 Q179.028 625.829 179.028 618.722 Q179.028 611.593 177.2 608.051 Q175.394 604.486 171.76 604.486 M171.76 600.782 Q177.57 600.782 180.626 605.389 Q183.704 609.972 183.704 618.722 Q183.704 627.449 180.626 632.055 Q177.57 636.639 171.76 636.639 Q165.95 636.639 162.871 632.055 Q159.815 627.449 159.815 618.722 Q159.815 609.972 162.871 605.389 Q165.95 600.782 171.76 600.782 Z" fill="#000000" fill-rule="evenodd" fill-opacity="1" /><path clip-path="url(#clip210)" d="M202.5 616.824 Q199.352 616.824 197.5 618.977 Q195.672 621.129 195.672 624.879 Q195.672 628.606 197.5 630.782 Q199.352 632.935 202.5 632.935 Q205.649 632.935 207.477 630.782 Q209.329 628.606 209.329 624.879 Q209.329 621.129 207.477 618.977 Q205.649 616.824 202.5 616.824 M211.783 602.171 L211.783 606.43 Q210.024 605.597 208.218 605.157 Q206.436 604.718 204.676 604.718 Q200.047 604.718 197.593 607.843 Q195.163 610.968 194.815 617.287 Q196.181 615.273 198.241 614.208 Q200.301 613.12 202.778 613.12 Q207.987 613.12 210.996 616.292 Q214.028 619.44 214.028 624.879 Q214.028 630.204 210.88 633.421 Q207.732 636.639 202.5 636.639 Q196.505 636.639 193.334 632.055 Q190.163 627.449 190.163 618.722 Q190.163 610.528 194.051 605.667 Q197.94 600.782 204.491 600.782 Q206.25 600.782 208.033 601.13 Q209.838 601.477 211.783 602.171 Z" fill="#000000" fill-rule="evenodd" fill-opacity="1" /><path clip-path="url(#clip210)" d="M126.783 348.316 Q123.172 348.316 121.343 351.881 Q119.538 355.423 119.538 362.552 Q119.538 369.659 121.343 373.223 Q123.172 376.765 126.783 376.765 Q130.417 376.765 132.223 373.223 Q134.052 369.659 134.052 362.552 Q134.052 355.423 132.223 351.881 Q130.417 348.316 126.783 348.316 M126.783 344.613 Q132.593 344.613 135.649 349.219 Q138.728 353.802 138.728 362.552 Q138.728 371.279 135.649 375.885 Q132.593 380.469 126.783 380.469 Q120.973 380.469 117.894 375.885 Q114.839 371.279 114.839 362.552 Q114.839 353.802 117.894 349.219 Q120.973 344.613 126.783 344.613 Z" fill="#000000" fill-rule="evenodd" fill-opacity="1" /><path clip-path="url(#clip210)" d="M146.945 373.918 L151.829 373.918 L151.829 379.798 L146.945 379.798 L146.945 373.918 Z" fill="#000000" fill-rule="evenodd" fill-opacity="1" /><path clip-path="url(#clip210)" d="M172.014 348.316 Q168.403 348.316 166.575 351.881 Q164.769 355.423 164.769 362.552 Q164.769 369.659 166.575 373.223 Q168.403 376.765 172.014 376.765 Q175.649 376.765 177.454 373.223 Q179.283 369.659 179.283 362.552 Q179.283 355.423 177.454 351.881 Q175.649 348.316 172.014 348.316 M172.014 344.613 Q177.825 344.613 180.88 349.219 Q183.959 353.802 183.959 362.552 Q183.959 371.279 180.88 375.885 Q177.825 380.469 172.014 380.469 Q166.204 380.469 163.126 375.885 Q160.07 371.279 160.07 362.552 Q160.07 353.802 163.126 349.219 Q166.204 344.613 172.014 344.613 Z" fill="#000000" fill-rule="evenodd" fill-opacity="1" /><path clip-path="url(#clip210)" d="M202.176 363.386 Q198.843 363.386 196.922 365.168 Q195.024 366.95 195.024 370.075 Q195.024 373.2 196.922 374.983 Q198.843 376.765 202.176 376.765 Q205.51 376.765 207.431 374.983 Q209.352 373.177 209.352 370.075 Q209.352 366.95 207.431 365.168 Q205.533 363.386 202.176 363.386 M197.5 361.395 Q194.491 360.654 192.801 358.594 Q191.135 356.534 191.135 353.571 Q191.135 349.427 194.075 347.02 Q197.037 344.613 202.176 344.613 Q207.338 344.613 210.278 347.02 Q213.218 349.427 213.218 353.571 Q213.218 356.534 211.528 358.594 Q209.861 360.654 206.875 361.395 Q210.255 362.182 212.13 364.474 Q214.028 366.765 214.028 370.075 Q214.028 375.098 210.949 377.784 Q207.894 380.469 202.176 380.469 Q196.459 380.469 193.38 377.784 Q190.325 375.098 190.325 370.075 Q190.325 366.765 192.223 364.474 Q194.121 362.182 197.5 361.395 M195.787 354.011 Q195.787 356.696 197.454 358.2 Q199.144 359.705 202.176 359.705 Q205.186 359.705 206.875 358.2 Q208.588 356.696 208.588 354.011 Q208.588 351.325 206.875 349.821 Q205.186 348.316 202.176 348.316 Q199.144 348.316 197.454 349.821 Q195.787 351.325 195.787 354.011 Z" fill="#000000" fill-rule="evenodd" fill-opacity="1" /><path clip-path="url(#clip210)" d="M27.2366 806.044 Q28.6537 806.044 29.7164 807.204 Q30.747 808.331 30.747 809.555 Q30.747 810.682 30.0707 811.391 Q29.3622 812.067 28.3638 812.067 Q27.0434 812.067 25.9484 810.94 Q24.8534 809.812 24.8534 808.492 Q24.8534 807.397 25.5297 806.721 Q26.206 806.044 27.2366 806.044 M59.0238 805.465 Q59.2814 805.465 60.312 805.755 Q61.3104 806.044 62.8563 806.753 Q64.37 807.429 65.787 808.363 Q67.2041 809.297 68.2024 810.843 Q69.2008 812.357 69.2008 814.096 Q69.2008 816.447 67.6549 817.993 Q66.1091 819.506 63.7902 819.506 Q62.5342 819.506 58.5085 817.993 Q46.7856 813.613 46.3025 813.452 Q44.4667 812.711 42.8564 812.711 Q42.1157 812.711 41.6648 812.872 Q41.1817 813.033 41.0207 813.355 Q40.8275 813.677 40.7953 813.87 Q40.7631 814.031 40.7631 814.354 Q40.7631 816.254 42.6954 818.025 Q44.6278 819.796 48.9433 821.02 Q49.7485 821.278 49.9417 821.439 Q50.135 821.6 50.135 822.083 Q50.1028 822.888 49.4586 822.888 Q49.2654 822.888 48.5247 822.663 Q47.7517 822.437 46.5923 822.018 Q45.4007 821.6 44.1769 820.859 Q42.9208 820.118 41.8258 819.217 Q40.7308 818.283 40.0223 816.962 Q39.3138 815.642 39.3138 814.16 Q39.3138 811.745 40.8919 810.263 Q42.4378 808.75 44.7244 808.75 Q45.9804 808.75 48.2026 809.619 Q51.1011 810.682 52.0351 811.069 L58.9594 813.645 Q61.4714 814.579 62.2444 814.869 Q62.9851 815.126 63.8869 815.352 Q64.7564 815.545 65.5616 815.545 Q66.6888 815.545 67.2041 815.191 Q67.7194 814.804 67.7194 813.967 Q67.7194 811.648 65.4327 809.941 Q63.1139 808.234 59.5713 807.236 Q59.4747 807.204 59.3136 807.172 Q58.5085 806.914 58.4119 806.656 Q58.3797 806.527 58.3797 806.27 Q58.3797 805.465 59.0238 805.465 Z" fill="#000000" fill-rule="evenodd" fill-opacity="1" /><path clip-path="url(#clip210)" d="M51.9707 794.824 Q40.8275 794.824 31.842 790.669 Q28.0739 788.898 24.9178 786.418 Q21.7616 783.938 20.3767 782.296 Q18.9919 780.653 18.9919 780.202 Q18.9919 779.558 19.636 779.526 Q19.9581 779.526 20.7632 780.395 Q31.5844 791.023 51.9707 790.991 Q72.4214 790.991 82.8239 780.653 Q83.9511 779.526 84.3054 779.526 Q84.9495 779.526 84.9495 780.202 Q84.9495 780.653 83.6291 782.231 Q82.3086 783.809 79.2813 786.257 Q76.2539 788.705 72.5502 790.476 Q63.5648 794.824 51.9707 794.824 Z" fill="#000000" fill-rule="evenodd" fill-opacity="1" /><path clip-path="url(#clip210)" d="M40.7631 754.255 Q41.6648 754.255 41.8903 754.673 Q42.0835 755.092 42.0835 756.252 L42.0835 762.435 L61.5358 767.33 Q63.2427 767.717 64.692 767.717 Q66.3023 767.717 67.0108 767.234 Q67.7194 766.718 67.7194 765.656 Q67.7194 763.562 65.8192 761.308 Q63.9191 759.021 59.2814 757.089 Q58.6695 756.831 58.5407 756.702 Q58.3797 756.541 58.3797 756.123 Q58.3797 755.318 59.0238 755.318 Q59.2492 755.318 60.2798 755.768 Q61.3104 756.187 62.8241 757.121 Q64.3377 758.023 65.7548 759.215 Q67.1719 760.374 68.2024 762.145 Q69.2008 763.917 69.2008 765.817 Q69.2008 768.49 67.4939 770.197 Q65.787 771.871 63.1139 771.871 Q62.2444 771.871 59.4747 771.195 Q56.6727 770.519 42.0835 766.847 L42.0835 772.677 Q42.0835 773.482 42.0513 773.804 Q42.0191 774.094 41.8581 774.319 Q41.6648 774.512 41.2783 774.512 Q40.6664 774.512 40.4088 774.255 Q40.1189 773.997 40.0867 773.675 Q40.0223 773.321 40.0223 772.516 L40.0223 766.332 L29.5554 763.756 Q28.5248 763.498 27.9451 762.854 Q27.3332 762.177 27.2688 761.791 Q27.1722 761.405 27.1722 761.115 Q27.1722 760.245 27.6553 759.73 Q28.1062 759.215 28.9435 759.215 Q29.3944 759.215 40.0223 761.92 L40.0223 756.123 Q40.0223 755.382 40.0545 755.092 Q40.0867 754.77 40.2478 754.512 Q40.4088 754.255 40.7631 754.255 Z" fill="#000000" fill-rule="evenodd" fill-opacity="1" /><path clip-path="url(#clip210)" d="M84.3054 749.091 Q83.9833 749.091 83.1782 748.254 Q72.357 737.626 51.9707 737.626 Q31.52 737.626 21.1819 747.835 Q19.9903 749.091 19.636 749.091 Q18.9919 749.091 18.9919 748.447 Q18.9919 747.996 20.3123 746.418 Q21.6328 744.808 24.6601 742.393 Q27.6875 739.945 31.3911 738.141 Q40.3766 733.794 51.9707 733.794 Q63.1139 733.794 72.0994 737.948 Q75.8674 739.719 79.0236 742.199 Q82.1798 744.679 83.5646 746.322 Q84.9495 747.964 84.9495 748.447 Q84.9495 749.091 84.3054 749.091 Z" fill="#000000" fill-rule="evenodd" fill-opacity="1" /><path clip-path="url(#clip210)" d="M651.384 17.6457 Q642.472 17.6457 637.206 24.2892 Q631.98 30.9327 631.98 42.3968 Q631.98 53.8203 637.206 60.4638 Q642.472 67.1073 651.384 67.1073 Q660.296 67.1073 665.481 60.4638 Q670.707 53.8203 670.707 42.3968 Q670.707 30.9327 665.481 24.2892 Q660.296 17.6457 651.384 17.6457 M662.848 71.4823 L673.623 83.2704 L663.739 83.2704 L654.787 73.5887 Q653.45 73.6697 652.721 73.7103 Q652.032 73.7508 651.384 73.7508 Q638.624 73.7508 630.967 65.2439 Q623.352 56.6965 623.352 42.3968 Q623.352 28.0566 630.967 19.5497 Q638.624 11.0023 651.384 11.0023 Q664.104 11.0023 671.719 19.5497 Q679.335 28.0566 679.335 42.3968 Q679.335 52.9291 675.082 60.4233 Q670.869 67.9175 662.848 71.4823 Z" fill="#000000" fill-rule="evenodd" fill-opacity="1" /><path clip-path="url(#clip210)" d="M691.042 54.671 L691.042 27.2059 L698.496 27.2059 L698.496 54.3874 Q698.496 60.8284 701.008 64.0691 Q703.519 67.2693 708.542 67.2693 Q714.578 67.2693 718.062 63.421 Q721.586 59.5726 721.586 52.9291 L721.586 27.2059 L729.04 27.2059 L729.04 72.576 L721.586 72.576 L721.586 65.6084 Q718.872 69.7404 715.267 71.7658 Q711.702 73.7508 706.962 73.7508 Q699.144 73.7508 695.093 68.8897 Q691.042 64.0286 691.042 54.671 M709.798 26.1121 L709.798 26.1121 Z" fill="#000000" fill-rule="evenodd" fill-opacity="1" /><path clip-path="url(#clip210)" d="M765.012 49.7694 Q755.978 49.7694 752.495 51.8354 Q749.011 53.9013 749.011 58.8839 Q749.011 62.8538 751.603 65.2034 Q754.236 67.5124 758.733 67.5124 Q764.931 67.5124 768.658 63.1374 Q772.425 58.7219 772.425 51.4303 L772.425 49.7694 L765.012 49.7694 M779.879 46.6907 L779.879 72.576 L772.425 72.576 L772.425 65.6895 Q769.873 69.8214 766.065 71.8063 Q762.257 73.7508 756.748 73.7508 Q749.78 73.7508 745.648 69.8619 Q741.557 65.9325 741.557 59.3701 Q741.557 51.7138 746.661 47.825 Q751.806 43.9361 761.974 43.9361 L772.425 43.9361 L772.425 43.2069 Q772.425 38.0623 769.022 35.2672 Q765.66 32.4315 759.543 32.4315 Q755.654 32.4315 751.968 33.3632 Q748.282 34.295 744.879 36.1584 L744.879 29.2718 Q748.97 27.692 752.819 26.9223 Q756.667 26.1121 760.313 26.1121 Q770.156 26.1121 775.018 31.2163 Q779.879 36.3204 779.879 46.6907 Z" fill="#000000" fill-rule="evenodd" fill-opacity="1" /><path clip-path="url(#clip210)" d="M832.945 45.1919 L832.945 72.576 L825.492 72.576 L825.492 45.4349 Q825.492 38.994 822.98 35.7938 Q820.469 32.5936 815.446 32.5936 Q809.41 32.5936 805.926 36.4419 Q802.442 40.2903 802.442 46.9338 L802.442 72.576 L794.948 72.576 L794.948 27.2059 L802.442 27.2059 L802.442 34.2544 Q805.116 30.163 808.721 28.1376 Q812.367 26.1121 817.106 26.1121 Q824.925 26.1121 828.935 30.9732 Q832.945 35.7938 832.945 45.1919 Z" fill="#000000" fill-rule="evenodd" fill-opacity="1" /><path clip-path="url(#clip210)" d="M855.185 14.324 L855.185 27.2059 L870.538 27.2059 L870.538 32.9987 L855.185 32.9987 L855.185 57.6282 Q855.185 63.1779 856.684 64.7578 Q858.223 66.3376 862.882 66.3376 L870.538 66.3376 L870.538 72.576 L862.882 72.576 Q854.253 72.576 850.972 69.3758 Q847.691 66.1351 847.691 57.6282 L847.691 32.9987 L842.222 32.9987 L842.222 27.2059 L847.691 27.2059 L847.691 14.324 L855.185 14.324 Z" fill="#000000" fill-rule="evenodd" fill-opacity="1" /><path clip-path="url(#clip210)" d="M880.341 27.2059 L887.795 27.2059 L887.795 72.576 L880.341 72.576 L880.341 27.2059 M880.341 9.54393 L887.795 9.54393 L887.795 18.9825 L880.341 18.9825 L880.341 9.54393 Z" fill="#000000" fill-rule="evenodd" fill-opacity="1" /><path clip-path="url(#clip210)" d="M903.391 9.54393 L910.844 9.54393 L910.844 72.576 L903.391 72.576 L903.391 9.54393 Z" fill="#000000" fill-rule="evenodd" fill-opacity="1" /><path clip-path="url(#clip210)" d="M965.248 48.0275 L965.248 51.6733 L930.977 51.6733 Q931.463 59.3701 935.595 63.421 Q939.768 67.4314 947.181 67.4314 Q951.475 67.4314 955.485 66.3781 Q959.536 65.3249 963.506 63.2184 L963.506 70.267 Q959.496 71.9684 955.283 72.8596 Q951.07 73.7508 946.735 73.7508 Q935.879 73.7508 929.519 67.4314 Q923.2 61.1119 923.2 50.3365 Q923.2 39.1965 929.195 32.6746 Q935.231 26.1121 945.439 26.1121 Q954.594 26.1121 959.901 32.0264 Q965.248 37.9003 965.248 48.0275 M957.794 45.84 Q957.713 39.7232 954.351 36.0774 Q951.029 32.4315 945.52 32.4315 Q939.282 32.4315 935.514 35.9558 Q931.788 39.4801 931.22 45.8805 L957.794 45.84 Z" fill="#000000" fill-rule="evenodd" fill-opacity="1" /><path clip-path="url(#clip210)" d="M1006.41 28.5427 L1006.41 35.5912 Q1003.25 33.9709 999.843 33.1607 Q996.44 32.3505 992.794 32.3505 Q987.244 32.3505 984.449 34.0519 Q981.695 35.7533 981.695 39.156 Q981.695 41.7486 983.68 43.2475 Q985.665 44.7058 991.66 46.0426 L994.212 46.6097 Q1002.15 48.3111 1005.47 51.4303 Q1008.84 54.509 1008.84 60.0587 Q1008.84 66.3781 1003.81 70.0644 Q998.83 73.7508 990.08 73.7508 Q986.434 73.7508 982.464 73.0216 Q978.535 72.3329 974.16 70.9151 L974.16 63.2184 Q978.292 65.3654 982.302 66.4591 Q986.313 67.5124 990.242 67.5124 Q995.508 67.5124 998.344 65.73 Q1001.18 63.9071 1001.18 60.6258 Q1001.18 57.5877 999.114 55.9673 Q997.088 54.3469 990.161 52.8481 L987.568 52.2405 Q980.641 50.7821 977.563 47.7845 Q974.484 44.7463 974.484 39.4801 Q974.484 33.0797 979.021 29.5959 Q983.558 26.1121 991.903 26.1121 Q996.035 26.1121 999.681 26.7198 Q1003.33 27.3274 1006.41 28.5427 Z" fill="#000000" fill-rule="evenodd" fill-opacity="1" /><path clip-path="url(#clip210)" d="M1064.66 32.4315 Q1058.66 32.4315 1055.18 37.1306 Q1051.69 41.7891 1051.69 49.9314 Q1051.69 58.0738 1055.14 62.7728 Q1058.62 67.4314 1064.66 67.4314 Q1070.61 67.4314 1074.1 62.7323 Q1077.58 58.0333 1077.58 49.9314 Q1077.58 41.8701 1074.1 37.1711 Q1070.61 32.4315 1064.66 32.4315 M1064.66 26.1121 Q1074.38 26.1121 1079.93 32.4315 Q1085.48 38.7509 1085.48 49.9314 Q1085.48 61.0714 1079.93 67.4314 Q1074.38 73.7508 1064.66 73.7508 Q1054.89 73.7508 1049.34 67.4314 Q1043.84 61.0714 1043.84 49.9314 Q1043.84 38.7509 1049.34 32.4315 Q1054.89 26.1121 1064.66 26.1121 Z" fill="#000000" fill-rule="evenodd" fill-opacity="1" /><path clip-path="url(#clip210)" d="M1120.8 9.54393 L1120.8 15.7418 L1113.67 15.7418 Q1109.66 15.7418 1108.08 17.3622 Q1106.54 18.9825 1106.54 23.1955 L1106.54 27.2059 L1118.82 27.2059 L1118.82 32.9987 L1106.54 32.9987 L1106.54 72.576 L1099.05 72.576 L1099.05 32.9987 L1091.92 32.9987 L1091.92 27.2059 L1099.05 27.2059 L1099.05 24.0462 Q1099.05 16.471 1102.57 13.0277 Q1106.1 9.54393 1113.75 9.54393 L1120.8 9.54393 Z" fill="#000000" fill-rule="evenodd" fill-opacity="1" /><path clip-path="url(#clip210)" d="M1153.74 12.096 L1161.92 12.096 L1161.92 72.576 L1153.74 72.576 L1153.74 12.096 Z" fill="#000000" fill-rule="evenodd" fill-opacity="1" /><path clip-path="url(#clip210)" d="M1215.59 45.1919 L1215.59 72.576 L1208.14 72.576 L1208.14 45.4349 Q1208.14 38.994 1205.63 35.7938 Q1203.12 32.5936 1198.09 32.5936 Q1192.06 32.5936 1188.57 36.4419 Q1185.09 40.2903 1185.09 46.9338 L1185.09 72.576 L1177.6 72.576 L1177.6 27.2059 L1185.09 27.2059 L1185.09 34.2544 Q1187.76 30.163 1191.37 28.1376 Q1195.02 26.1121 1199.75 26.1121 Q1207.57 26.1121 1211.58 30.9732 Q1215.59 35.7938 1215.59 45.1919 Z" fill="#000000" fill-rule="evenodd" fill-opacity="1" /><path clip-path="url(#clip210)" d="M1253.43 9.54393 L1253.43 15.7418 L1246.3 15.7418 Q1242.29 15.7418 1240.71 17.3622 Q1239.17 18.9825 1239.17 23.1955 L1239.17 27.2059 L1251.44 27.2059 L1251.44 32.9987 L1239.17 32.9987 L1239.17 72.576 L1231.68 72.576 L1231.68 32.9987 L1224.55 32.9987 L1224.55 27.2059 L1231.68 27.2059 L1231.68 24.0462 Q1231.68 16.471 1235.2 13.0277 Q1238.72 9.54393 1246.38 9.54393 L1253.43 9.54393 Z" fill="#000000" fill-rule="evenodd" fill-opacity="1" /><path clip-path="url(#clip210)" d="M1298.48 48.0275 L1298.48 51.6733 L1264.2 51.6733 Q1264.69 59.3701 1268.82 63.421 Q1273 67.4314 1280.41 67.4314 Q1284.7 67.4314 1288.71 66.3781 Q1292.76 65.3249 1296.73 63.2184 L1296.73 70.267 Q1292.72 71.9684 1288.51 72.8596 Q1284.3 73.7508 1279.96 73.7508 Q1269.11 73.7508 1262.75 67.4314 Q1256.43 61.1119 1256.43 50.3365 Q1256.43 39.1965 1262.42 32.6746 Q1268.46 26.1121 1278.67 26.1121 Q1287.82 26.1121 1293.13 32.0264 Q1298.48 37.9003 1298.48 48.0275 M1291.02 45.84 Q1290.94 39.7232 1287.58 36.0774 Q1284.26 32.4315 1278.75 32.4315 Q1272.51 32.4315 1268.74 35.9558 Q1265.01 39.4801 1264.45 45.8805 L1291.02 45.84 Z" fill="#000000" fill-rule="evenodd" fill-opacity="1" /><path clip-path="url(#clip210)" d="M1343.36 28.9478 L1343.36 35.9153 Q1340.2 34.1734 1337 33.3227 Q1333.84 32.4315 1330.6 32.4315 Q1323.35 32.4315 1319.34 37.0496 Q1315.33 41.6271 1315.33 49.9314 Q1315.33 58.2358 1319.34 62.8538 Q1323.35 67.4314 1330.6 67.4314 Q1333.84 67.4314 1337 66.5807 Q1340.2 65.6895 1343.36 63.9476 L1343.36 70.8341 Q1340.24 72.2924 1336.88 73.0216 Q1333.56 73.7508 1329.79 73.7508 Q1319.54 73.7508 1313.5 67.3098 Q1307.47 60.8689 1307.47 49.9314 Q1307.47 38.832 1313.54 32.472 Q1319.66 26.1121 1330.27 26.1121 Q1333.72 26.1121 1337 26.8413 Q1340.28 27.5299 1343.36 28.9478 Z" fill="#000000" fill-rule="evenodd" fill-opacity="1" /><path clip-path="url(#clip210)" d="M1363.69 14.324 L1363.69 27.2059 L1379.05 27.2059 L1379.05 32.9987 L1363.69 32.9987 L1363.69 57.6282 Q1363.69 63.1779 1365.19 64.7578 Q1366.73 66.3376 1371.39 66.3376 L1379.05 66.3376 L1379.05 72.576 L1371.39 72.576 Q1362.76 72.576 1359.48 69.3758 Q1356.2 66.1351 1356.2 57.6282 L1356.2 32.9987 L1350.73 32.9987 L1350.73 27.2059 L1356.2 27.2059 L1356.2 14.324 L1363.69 14.324 Z" fill="#000000" fill-rule="evenodd" fill-opacity="1" /><path clip-path="url(#clip210)" d="M1388.85 27.2059 L1396.3 27.2059 L1396.3 72.576 L1388.85 72.576 L1388.85 27.2059 M1388.85 9.54393 L1396.3 9.54393 L1396.3 18.9825 L1388.85 18.9825 L1388.85 9.54393 Z" fill="#000000" fill-rule="evenodd" fill-opacity="1" /><path clip-path="url(#clip210)" d="M1429.48 32.4315 Q1423.49 32.4315 1420 37.1306 Q1416.52 41.7891 1416.52 49.9314 Q1416.52 58.0738 1419.96 62.7728 Q1423.45 67.4314 1429.48 67.4314 Q1435.44 67.4314 1438.92 62.7323 Q1442.4 58.0333 1442.4 49.9314 Q1442.4 41.8701 1438.92 37.1711 Q1435.44 32.4315 1429.48 32.4315 M1429.48 26.1121 Q1439.2 26.1121 1444.75 32.4315 Q1450.3 38.7509 1450.3 49.9314 Q1450.3 61.0714 1444.75 67.4314 Q1439.2 73.7508 1429.48 73.7508 Q1419.72 73.7508 1414.17 67.4314 Q1408.66 61.0714 1408.66 49.9314 Q1408.66 38.7509 1414.17 32.4315 Q1419.72 26.1121 1429.48 26.1121 Z" fill="#000000" fill-rule="evenodd" fill-opacity="1" /><path clip-path="url(#clip210)" d="M1500.37 45.1919 L1500.37 72.576 L1492.92 72.576 L1492.92 45.4349 Q1492.92 38.994 1490.41 35.7938 Q1487.9 32.5936 1482.87 32.5936 Q1476.84 32.5936 1473.35 36.4419 Q1469.87 40.2903 1469.87 46.9338 L1469.87 72.576 L1462.37 72.576 L1462.37 27.2059 L1469.87 27.2059 L1469.87 34.2544 Q1472.54 30.163 1476.15 28.1376 Q1479.79 26.1121 1484.53 26.1121 Q1492.35 26.1121 1496.36 30.9732 Q1500.37 35.7938 1500.37 45.1919 Z" fill="#000000" fill-rule="evenodd" fill-opacity="1" /><path clip-path="url(#clip210)" d="M1544.16 28.5427 L1544.16 35.5912 Q1541 33.9709 1537.6 33.1607 Q1534.2 32.3505 1530.55 32.3505 Q1525 32.3505 1522.21 34.0519 Q1519.45 35.7533 1519.45 39.156 Q1519.45 41.7486 1521.44 43.2475 Q1523.42 44.7058 1529.42 46.0426 L1531.97 46.6097 Q1539.91 48.3111 1543.23 51.4303 Q1546.59 54.509 1546.59 60.0587 Q1546.59 66.3781 1541.57 70.0644 Q1536.59 73.7508 1527.84 73.7508 Q1524.19 73.7508 1520.22 73.0216 Q1516.29 72.3329 1511.92 70.9151 L1511.92 63.2184 Q1516.05 65.3654 1520.06 66.4591 Q1524.07 67.5124 1528 67.5124 Q1533.27 67.5124 1536.1 65.73 Q1538.94 63.9071 1538.94 60.6258 Q1538.94 57.5877 1536.87 55.9673 Q1534.85 54.3469 1527.92 52.8481 L1525.33 52.2405 Q1518.4 50.7821 1515.32 47.7845 Q1512.24 44.7463 1512.24 39.4801 Q1512.24 33.0797 1516.78 29.5959 Q1521.32 26.1121 1529.66 26.1121 Q1533.79 26.1121 1537.44 26.7198 Q1541.08 27.3274 1544.16 28.5427 Z" fill="#000000" fill-rule="evenodd" fill-opacity="1" /><path clip-path="url(#clip210)" d="M1585.16 12.096 L1623.4 12.096 L1623.4 18.9825 L1593.34 18.9825 L1593.34 36.8875 L1622.14 36.8875 L1622.14 43.7741 L1593.34 43.7741 L1593.34 65.6895 L1624.13 65.6895 L1624.13 72.576 L1585.16 72.576 L1585.16 12.096 Z" fill="#000000" fill-rule="evenodd" fill-opacity="1" /><path clip-path="url(#clip210)" d="M1674.97 45.1919 L1674.97 72.576 L1667.51 72.576 L1667.51 45.4349 Q1667.51 38.994 1665 35.7938 Q1662.49 32.5936 1657.47 32.5936 Q1651.43 32.5936 1647.95 36.4419 Q1644.46 40.2903 1644.46 46.9338 L1644.46 72.576 L1636.97 72.576 L1636.97 27.2059 L1644.46 27.2059 L1644.46 34.2544 Q1647.14 30.163 1650.74 28.1376 Q1654.39 26.1121 1659.13 26.1121 Q1666.95 26.1121 1670.96 30.9732 Q1674.97 35.7938 1674.97 45.1919 Z" fill="#000000" fill-rule="evenodd" fill-opacity="1" /><path clip-path="url(#clip210)" d="M1718.76 28.5427 L1718.76 35.5912 Q1715.6 33.9709 1712.19 33.1607 Q1708.79 32.3505 1705.15 32.3505 Q1699.6 32.3505 1696.8 34.0519 Q1694.05 35.7533 1694.05 39.156 Q1694.05 41.7486 1696.03 43.2475 Q1698.02 44.7058 1704.01 46.0426 L1706.56 46.6097 Q1714.5 48.3111 1717.82 51.4303 Q1721.19 54.509 1721.19 60.0587 Q1721.19 66.3781 1716.16 70.0644 Q1711.18 73.7508 1702.43 73.7508 Q1698.79 73.7508 1694.82 73.0216 Q1690.89 72.3329 1686.51 70.9151 L1686.51 63.2184 Q1690.64 65.3654 1694.65 66.4591 Q1698.66 67.5124 1702.59 67.5124 Q1707.86 67.5124 1710.7 65.73 Q1713.53 63.9071 1713.53 60.6258 Q1713.53 57.5877 1711.47 55.9673 Q1709.44 54.3469 1702.51 52.8481 L1699.92 52.2405 Q1692.99 50.7821 1689.91 47.7845 Q1686.84 44.7463 1686.84 39.4801 Q1686.84 33.0797 1691.37 29.5959 Q1695.91 26.1121 1704.25 26.1121 Q1708.39 26.1121 1712.03 26.7198 Q1715.68 27.3274 1718.76 28.5427 Z" fill="#000000" fill-rule="evenodd" fill-opacity="1" /><path clip-path="url(#clip210)" d="M1771.86 48.0275 L1771.86 51.6733 L1737.59 51.6733 Q1738.08 59.3701 1742.21 63.421 Q1746.38 67.4314 1753.8 67.4314 Q1758.09 67.4314 1762.1 66.3781 Q1766.15 65.3249 1770.12 63.2184 L1770.12 70.267 Q1766.11 71.9684 1761.9 72.8596 Q1757.69 73.7508 1753.35 73.7508 Q1742.49 73.7508 1736.14 67.4314 Q1729.82 61.1119 1729.82 50.3365 Q1729.82 39.1965 1735.81 32.6746 Q1741.85 26.1121 1752.06 26.1121 Q1761.21 26.1121 1766.52 32.0264 Q1771.86 37.9003 1771.86 48.0275 M1764.41 45.84 Q1764.33 39.7232 1760.97 36.0774 Q1757.65 32.4315 1752.14 32.4315 Q1745.9 32.4315 1742.13 35.9558 Q1738.4 39.4801 1737.84 45.8805 L1764.41 45.84 Z" fill="#000000" fill-rule="evenodd" fill-opacity="1" /><path clip-path="url(#clip210)" d="M1819.42 35.9153 Q1822.22 30.8922 1826.11 28.5022 Q1829.99 26.1121 1835.26 26.1121 Q1842.35 26.1121 1846.2 31.0947 Q1850.05 36.0368 1850.05 45.1919 L1850.05 72.576 L1842.55 72.576 L1842.55 45.4349 Q1842.55 38.913 1840.24 35.7533 Q1837.93 32.5936 1833.19 32.5936 Q1827.4 32.5936 1824.04 36.4419 Q1820.68 40.2903 1820.68 46.9338 L1820.68 72.576 L1813.18 72.576 L1813.18 45.4349 Q1813.18 38.8725 1810.87 35.7533 Q1808.57 32.5936 1803.74 32.5936 Q1798.03 32.5936 1794.67 36.4824 Q1791.31 40.3308 1791.31 46.9338 L1791.31 72.576 L1783.81 72.576 L1783.81 27.2059 L1791.31 27.2059 L1791.31 34.2544 Q1793.86 30.082 1797.43 28.0971 Q1800.99 26.1121 1805.89 26.1121 Q1810.83 26.1121 1814.28 28.6237 Q1817.76 31.1352 1819.42 35.9153 Z" fill="#000000" fill-rule="evenodd" fill-opacity="1" /><path clip-path="url(#clip210)" d="M1897.48 49.9314 Q1897.48 41.7081 1894.08 37.0496 Q1890.72 32.3505 1884.8 32.3505 Q1878.89 32.3505 1875.49 37.0496 Q1872.12 41.7081 1872.12 49.9314 Q1872.12 58.1548 1875.49 62.8538 Q1878.89 67.5124 1884.8 67.5124 Q1890.72 67.5124 1894.08 62.8538 Q1897.48 58.1548 1897.48 49.9314 M1872.12 34.0924 Q1874.47 30.0415 1878.04 28.0971 Q1881.64 26.1121 1886.63 26.1121 Q1894.89 26.1121 1900.03 32.6746 Q1905.22 39.2371 1905.22 49.9314 Q1905.22 60.6258 1900.03 67.1883 Q1894.89 73.7508 1886.63 73.7508 Q1881.64 73.7508 1878.04 71.8063 Q1874.47 69.8214 1872.12 65.7705 L1872.12 72.576 L1864.63 72.576 L1864.63 9.54393 L1872.12 9.54393 L1872.12 34.0924 Z" fill="#000000" fill-rule="evenodd" fill-opacity="1" /><path clip-path="url(#clip210)" d="M1917.58 9.54393 L1925.03 9.54393 L1925.03 72.576 L1917.58 72.576 L1917.58 9.54393 Z" fill="#000000" fill-rule="evenodd" fill-opacity="1" /><path clip-path="url(#clip210)" d="M1979.43 48.0275 L1979.43 51.6733 L1945.16 51.6733 Q1945.65 59.3701 1949.78 63.421 Q1953.95 67.4314 1961.37 67.4314 Q1965.66 67.4314 1969.67 66.3781 Q1973.72 65.3249 1977.69 63.2184 L1977.69 70.267 Q1973.68 71.9684 1969.47 72.8596 Q1965.25 73.7508 1960.92 73.7508 Q1950.06 73.7508 1943.7 67.4314 Q1937.38 61.1119 1937.38 50.3365 Q1937.38 39.1965 1943.38 32.6746 Q1949.42 26.1121 1959.62 26.1121 Q1968.78 26.1121 1974.09 32.0264 Q1979.43 37.9003 1979.43 48.0275 M1971.98 45.84 Q1971.9 39.7232 1968.54 36.0774 Q1965.21 32.4315 1959.7 32.4315 Q1953.47 32.4315 1949.7 35.9558 Q1945.97 39.4801 1945.4 45.8805 L1971.98 45.84 Z" fill="#000000" fill-rule="evenodd" fill-opacity="1" /><path clip-path="url(#clip212)" d="
M309.539 1386.23 L309.593 1386.23 L309.605 1386.23 L309.62 1386.23 L309.636 1386.23 L309.654 1386.23 L309.675 1386.23 L309.698 1386.23 L309.723 1386.23 L309.753 1386.23 
  L309.785 1386.23 L309.822 1386.23 L309.864 1386.23 L309.91 1386.23 L309.963 1386.23 L310.022 1386.23 L310.088 1386.23 L310.163 1386.23 L310.247 1386.23 L310.342 1386.23 
  L310.448 1386.23 L310.568 1386.23 L310.702 1386.24 L310.854 1386.24 L311.024 1386.24 L311.216 1386.24 L311.429 1386.24 L311.662 1386.24 L311.913 1386.24 L312.181 1386.25 
  L312.465 1386.25 L312.764 1386.25 L313.077 1386.25 L313.401 1386.25 L313.736 1386.26 L314.08 1386.26 L314.432 1386.26 L314.793 1386.26 L315.162 1386.27 L315.536 1386.27 
  L315.919 1386.27 L316.309 1386.27 L316.706 1386.28 L317.104 1386.28 L317.509 1386.28 L317.918 1386.28 L318.333 1386.28 L318.752 1386.29 L319.174 1386.29 L319.6 1386.29 
  L320.034 1386.29 L320.472 1386.3 L320.917 1386.3 L321.368 1386.3 L321.828 1386.3 L322.296 1386.31 L322.771 1386.31 L323.253 1386.31 L323.74 1386.31 L324.233 1386.32 
  L324.729 1386.32 L325.234 1386.32 L325.75 1386.32 L326.274 1386.32 L326.803 1386.33 L327.339 1386.33 L327.876 1386.33 L328.419 1386.33 L328.966 1386.33 L329.523 1386.34 
  L330.089 1386.34 L330.659 1386.34 L331.232 1386.34 L331.818 1386.35 L332.412 1386.35 L333.017 1386.35 L333.631 1386.35 L334.255 1386.35 L334.895 1386.35 L335.54 1386.36 
  L336.191 1386.36 L336.854 1386.36 L337.525 1386.36 L338.203 1386.36 L338.893 1386.37 L339.599 1386.37 L340.32 1386.37 L341.055 1386.37 L341.807 1386.37 L342.571 1386.37 
  L343.353 1386.38 L344.15 1386.38 L344.962 1386.38 L345.793 1386.38 L346.655 1386.38 L347.532 1386.38 L348.417 1386.38 L349.321 1386.38 L350.239 1386.39 L351.182 1386.39 
  L352.15 1386.39 L353.139 1386.39 L354.162 1386.39 L355.196 1386.39 L356.264 1386.39 L357.359 1386.39 L358.469 1386.39 L359.593 1386.39 L360.716 1386.39 L361.845 1386.39 
  L362.989 1386.39 L364.128 1386.4 L365.237 1386.4 L366.342 1386.4 L367.459 1386.39 L368.589 1386.39 L369.694 1386.39 L370.766 1386.39 L371.838 1386.39 L372.914 1386.39 
  L373.96 1386.39 L375 1386.39 L376.06 1386.39 L377.098 1386.39 L378.115 1386.39 L379.131 1386.39 L380.161 1386.39 L381.161 1386.39 L382.168 1386.38 L383.172 1386.38 
  L384.195 1386.38 L385.219 1386.38 L386.269 1386.38 L387.349 1386.37 L388.455 1386.37 L389.564 1386.37 L390.675 1386.37 L391.804 1386.37 L392.914 1386.36 L394.03 1386.36 
  L395.163 1386.36 L396.33 1386.35 L397.507 1386.35 L398.724 1386.35 L399.991 1386.34 L401.261 1386.34 L402.538 1386.34 L403.875 1386.33 L405.258 1386.33 L406.667 1386.33 
  L408.099 1386.32 L409.479 1386.32 L410.88 1386.31 L412.286 1386.31 L413.738 1386.3 L415.196 1386.3 L416.646 1386.29 L418.119 1386.29 L419.593 1386.28 L421.079 1386.28 
  L422.637 1386.27 L424.302 1386.26 L426.049 1386.26 L427.849 1386.25 L429.695 1386.24 L431.512 1386.23 L433.355 1386.23 L435.218 1386.22 L437.154 1386.21 L439.165 1386.2 
  L441.427 1386.19 L443.922 1386.18 L446.527 1386.16 L449.334 1386.15 L452.285 1386.13 L455.489 1386.11 L458.556 1386.1 L461.817 1386.08 L465.486 1386.05 L469.612 1386.02 
  L473.764 1385.99 L477.906 1385.96 L482.565 1385.93 L487.806 1385.89 L493.34 1385.85 L498.918 1385.8 L505.193 1385.74 L508.441 1385.7 L511.99 1385.67 L515.416 1385.63 
  L518.942 1385.59 L522.628 1385.56 L526.014 1385.53 L529.49 1385.49 L533.125 1385.46 L537.062 1385.41 L540.946 1385.35 L544.946 1385.3 L549.184 1385.24 L553.952 1385.18 
  L558.966 1385.11 L564.607 1385.03 L570.421 1384.95 L576.961 1384.85 L583.129 1384.73 L590.067 1384.58 L597.873 1384.4 L605.417 1384.2 L611.269 1384.05 L616.533 1383.91 
  L622.455 1383.74 L629.117 1383.56 L636.612 1383.36 L645.043 1383.11 L649.675 1382.97 L654.762 1382.8 L659.266 1382.65 L663.936 1382.49 L669.19 1382.3 L675.1 1382.09 
  L681.749 1381.85 L689.23 1381.56 L697.645 1381.23 L702.968 1380.97 L708.957 1380.62 L715.694 1380.2 L723.274 1379.71 L727.639 1379.41 L732.55 1379.06 L738.075 1378.61 
  L744.2 1378.1 L750.47 1377.53 L757.524 1376.86 L761.802 1376.45 L766.562 1376.1 L771.041 1375.78 L775.21 1375.3 L779.901 1374.75 L784.386 1374.19 L789.412 1373.51 
  L794.336 1372.76 L799.282 1372.17 L804.573 1371.56 L809.986 1370.97 L815.95 1370.37 L822.66 1369.63 L830.209 1368.79 L834.958 1368.33 L840.206 1367.82 L845.795 1367.25 
  L852.082 1366.58 L859.154 1365.2 L867.111 1363.53 L876.063 1361.7 L886.133 1359.39 L897.463 1356.71 L903.474 1355.31 L908.07 1354.2 L912.932 1352.7 L917.756 1351.2 
  L922.645 1349.85 L927.394 1348.55 L932.136 1347.28 L937.471 1345.85 L943.367 1343.46 L950.001 1340.51 L957.018 1337.33 L964.913 1333.73 L973.795 1329.79 L983.26 1325.63 
  L990.718 1322.04 L996.487 1319.23 L1002.2 1316.25 L1007.9 1313.19 L1014.27 1309.85 L1020.46 1306.23 L1025.59 1302.73 L1031.27 1298.41 L1037.08 1293.52 L1042.72 1289.99 
  L1049.07 1285.72 L1055.3 1280.83 L1061.4 1275.52 L1066.82 1270.4 L1072.21 1264.78 L1076.97 1259.4 L1081.79 1253.74 L1086.92 1247.42 L1092.51 1239.85 L1098.68 1231.04 
  L1105.27 1221.41 L1111.85 1212.09 L1117.34 1203.63 L1123.52 1193.59 L1129.16 1186.19 L1134.86 1178.4 L1140.57 1169.91 L1146.35 1160.7 L1152.22 1150.88 L1157.96 1140.68 
  L1163.67 1128.28 L1169.19 1116.17 L1174.62 1107.91 L1179.93 1101.45 L1185.16 1090.89 L1190.25 1076.72 L1195.15 1065.8 L1199.52 1057.26 L1204 1048.1 L1208.5 1039.03 
  L1212.99 1030.3 L1217.27 1021.72 L1221.69 1012.29 L1225.98 1003.98 L1230.18 999.983 L1234.31 993.183 L1238.24 984.378 L1242.03 976.112 L1245.56 968.71 L1248.96 961.869 
  L1252.07 956.273 L1255.24 950.641 L1258.22 945.386 L1261.43 939.59 L1264.68 933.953 L1267.92 928.308 L1271.03 922.657 L1274.17 916.418 L1277.44 910.083 L1280.83 904.243 
  L1284.24 897.875 L1287.69 890.722 L1291.13 883.593 L1294.59 877.027 L1298.06 870.543 L1301.53 861.815 L1304.99 850.792 L1308.38 840.52 L1311.76 829.954 L1315.12 819.204 
  L1318.44 808.36 L1321.8 797.212 L1325.13 784.871 L1328.46 771.867 L1331.77 758.457 L1335.06 744.713 L1338.36 730.261 L1341.63 715.502 L1344.89 704.11 L1348.14 696.596 
  L1351.38 700.205 L1354.59 704.322 L1357.73 707.959 L1360.81 709.737 L1363.82 701.413 L1366.75 692.966 L1369.62 684.958 L1372.38 677.812 L1375.23 678.426 L1378.03 678.745 
  L1380.95 679.013 L1383.87 679.502 L1386.83 680.152 L1389.79 680.459 L1392.77 679.925 L1395.77 678.764 L1398.77 677.152 L1401.77 674.518 L1404.77 671.805 L1407.81 671.016 
  L1410.85 673.963 L1413.88 676.959 L1416.92 677.638 L1419.99 672.06 L1423.06 681.017 L1426.16 689.946 L1429.26 695.859 L1432.38 700.83 L1435.51 703.662 L1438.62 700.296 
  L1441.76 702.375 L1444.88 696.628 L1448.02 697.625 L1451.18 689.657 L1454.35 689.61 L1457.54 697.627 L1460.74 707.264 L1463.94 719.615 L1467.2 732.601 L1470.46 745.03 
  L1473.74 757.229 L1477 769.279 L1480.24 776.144 L1483.41 780.342 L1486.51 784.217 L1489.49 788.687 L1492.42 796.381 L1495.35 805.402 L1498.23 814.276 L1500.98 819.262 
  L1503.62 821.705 L1506.14 824.071 L1508.67 831.991 L1511.16 840.156 L1513.53 848.251 L1515.94 856.33 L1518.31 864.052 L1520.69 871.478 L1523.07 878.723 L1525.51 886.066 
  L1528 893.31 L1530.64 900.964 L1533.34 908.019 L1536.02 914.587 L1538.72 921.036 L1541.42 927.563 L1544.24 934.406 L1547.14 941.378 L1550.09 948.47 L1552.93 954.853 
  L1555.66 961.001 L1558.3 966.883 L1560.78 972.423 L1563.3 978.06 L1565.89 983.835 L1568.42 989.279 L1570.91 994.497 L1573.54 1000.23 L1576.23 1006.39 L1579.01 1012.77 
  L1581.93 1019.37 L1584.96 1026.13 L1588.09 1032.8 L1591.5 1040.07 L1595.07 1047.43 L1598.78 1053.32 L1602.57 1058.85 L1606.3 1064.24 L1610.04 1069.7 L1613.57 1074.86 
  L1617.1 1080.08 L1620.3 1084.81 L1623.4 1089.47 L1626.46 1094.15 L1629.51 1098.79 L1632.64 1103.62 L1635.9 1108.66 L1639.02 1113.45 L1642.35 1118.52 L1645.69 1123.58 
  L1649.25 1129.57 L1653.09 1136.73 L1657.29 1144.27 L1661.77 1152.05 L1666.36 1159.19 L1671.13 1164.02 L1676.03 1168.87 L1681.31 1176.59 L1686.71 1184.76 L1692.39 1193.09 
  L1697.74 1200.65 L1703.18 1207.83 L1709.3 1215.5 L1715.62 1223.22 L1720.81 1229.28 L1726 1235.08 L1731.79 1241.26 L1737.59 1246.95 L1742.33 1251.49 L1747.38 1256.25 
  L1753.06 1261.38 L1759.45 1267.01 L1765.28 1271.75 L1770.17 1275.57 L1774.97 1279.24 L1780 1282.84 L1785.54 1286.73 L1791.22 1290.38 L1796.99 1294.04 L1802.48 1297.51 
  L1808.48 1301.26 L1815.24 1305.4 L1822.84 1309.93 L1831.4 1314.84 L1841.02 1319.83 L1849.55 1323.92 L1856.72 1327.19 L1862.76 1329.74 L1868.16 1331.97 L1874.17 1334.4 
  L1880.44 1336.83 L1887.49 1339.28 L1894.66 1341.47 L1901.83 1343.52 L1908.75 1345.47 L1916.54 1347.66 L1923.62 1349.5 L1931.59 1351.53 L1940.56 1353.69 L1950.65 1356.04 
  L1960.5 1358.08 L1971.59 1360.14 L1982.65 1362.07 L1994.31 1364.04 L2007.42 1366.07 L2016.57 1367.38 L2026.86 1368.78 L2038.44 1370.26 L2049.73 1371.62 L2059.98 1372.77 
  L2070.45 1373.86 L2082.24 1374.96 L2095.5 1376.06 L2110.42 1377.28 L2119.05 1377.94 L2125.04 1378.36 L2130.77 1378.74 L2136.13 1379.07 L2141.18 1379.38 L2146.85 1379.69 
  L2153.24 1380.02 L2159.78 1380.36 L2164.97 1380.61 L2170.29 1380.83 L2175.66 1381.05 L2180.1 1381.22 L2184.75 1381.4 L2188.8 1381.55 L2192.87 1381.69 L2196.6 1381.83 
  L2200.15 1381.96 L2203.65 1382.09 L2207.1 1382.21 L2210.74 1382.33 L2214.25 1382.45 L2217.83 1382.57 L2221.26 1382.68 L2225.05 1382.8 L2228.69 1382.91 L2232.41 1383.02 
  L2236.08 1383.12 L2239.54 1383.22 L2243 1383.31 L2246.45 1383.41 L2249.56 1383.49 L2252.6 1383.57 L2255.77 1383.65 L2258.53 1383.71 L2261.25 1383.77 L2264.04 1383.84 
  L2266.74 1383.9 L2269.19 1383.95 L2271.63 1384 L2274.11 1384.05 L2276.7 1384.1 L2279.3 1384.16 L2282.22 1384.22 L2285.52 1384.28 L2289.22 1384.35 L2293.24 1384.42 
  L2293.24 1364.54 L2289.22 1364.08 L2285.52 1363.66 L2282.22 1363.27 L2279.3 1362.91 L2276.7 1362.57 L2274.11 1362.23 L2271.63 1361.9 L2269.19 1361.58 L2266.74 1361.25 
  L2264.04 1360.87 L2261.25 1360.47 L2258.53 1360.09 L2255.77 1359.69 L2252.6 1359.21 L2249.56 1358.74 L2246.45 1358.27 L2243 1357.77 L2239.54 1357.26 L2236.08 1356.76 
  L2232.41 1356.24 L2228.69 1355.73 L2225.05 1355.2 L2221.26 1354.65 L2217.83 1354.17 L2214.25 1353.64 L2210.74 1352.96 L2207.1 1352.09 L2203.65 1351.23 L2200.15 1350.36 
  L2196.6 1349.46 L2192.87 1348.5 L2188.8 1347.45 L2184.75 1346.33 L2180.1 1345.05 L2175.66 1343.8 L2170.29 1342.28 L2164.97 1340.68 L2159.78 1339.04 L2153.24 1336.97 
  L2146.85 1334.9 L2141.18 1333.05 L2136.13 1331.39 L2130.77 1329.61 L2125.04 1327.7 L2119.05 1325.59 L2110.42 1322.52 L2095.5 1317.17 L2082.24 1312.41 L2070.45 1307.85 
  L2059.98 1303.31 L2049.73 1298.78 L2038.44 1293.71 L2026.86 1288.63 L2016.57 1283.27 L2007.42 1277.32 L1994.31 1268.75 L1982.65 1260.76 L1971.59 1252.43 L1960.5 1244.13 
  L1950.65 1236 L1940.56 1224.18 L1931.59 1212.39 L1923.62 1201.99 L1916.54 1194.6 L1908.75 1186.46 L1901.83 1178.42 L1894.66 1169.35 L1887.49 1160.14 L1880.44 1150.88 
  L1874.17 1142.24 L1868.16 1133.46 L1862.76 1125.64 L1856.72 1116.44 L1849.55 1104.79 L1841.02 1090.52 L1831.4 1074.2 L1822.84 1060.01 L1815.24 1046.82 L1808.48 1032.92 
  L1802.48 1019.06 L1796.99 1005.42 L1791.22 990.603 L1785.54 976.138 L1780 962.616 L1774.97 950.719 L1770.17 939.381 L1765.28 927.289 L1759.45 912.83 L1753.06 896.366 
  L1747.38 880.54 L1742.33 870.528 L1737.59 863.003 L1731.79 854.792 L1726 846.32 L1720.81 838.205 L1715.62 822.822 L1709.3 804.297 L1703.18 786.835 L1697.74 770.864 
  L1692.39 754.314 L1686.71 736.829 L1681.31 721.187 L1676.03 704.269 L1671.13 686.459 L1666.36 676.251 L1661.77 670.586 L1657.29 661.412 L1653.09 650.921 L1649.25 641.093 
  L1645.69 631.563 L1642.35 622.474 L1639.02 613.268 L1635.9 604.212 L1632.64 593.676 L1629.51 583.43 L1626.46 573.935 L1623.4 564.784 L1620.3 555.633 L1617.1 542.019 
  L1613.57 524.568 L1610.04 507.586 L1606.3 489.466 L1602.57 470.621 L1598.78 451.822 L1595.07 447.141 L1591.5 444.267 L1588.09 442.314 L1584.96 439.706 L1581.93 436.793 
  L1579.01 434.29 L1576.23 432.084 L1573.54 430.766 L1570.91 429.959 L1568.42 426.171 L1565.89 424.509 L1563.3 424.799 L1560.78 423.092 L1558.3 424.145 L1555.66 430.046 
  L1552.93 426.887 L1550.09 418.796 L1547.14 413.627 L1544.24 411.322 L1541.42 409.289 L1538.72 406.643 L1536.02 403.986 L1533.34 396.499 L1530.64 388.023 L1528 380.187 
  L1525.51 373.163 L1523.07 366.106 L1520.69 358.832 L1518.31 351.197 L1515.94 343.474 L1513.53 336.21 L1511.16 334.649 L1508.67 335.986 L1506.14 337.828 L1503.62 335.529 
  L1500.98 336.067 L1498.23 328.436 L1495.35 321.615 L1492.42 315.235 L1489.49 305.729 L1486.51 299.174 L1483.41 292.961 L1480.24 286.84 L1477 281.729 L1473.74 276.419 
  L1470.46 270.354 L1467.2 264.515 L1463.94 259.422 L1460.74 253.967 L1457.54 248.173 L1454.35 241.139 L1451.18 234.167 L1448.02 234.671 L1444.88 229.914 L1441.76 225.384 
  L1438.62 222.107 L1435.51 214.147 L1432.38 208.234 L1429.26 207.677 L1426.16 203.086 L1423.06 199.294 L1419.99 197.349 L1416.92 196.195 L1413.88 195.088 L1410.85 198.976 
  L1407.81 200.508 L1404.77 198.457 L1401.77 195.379 L1398.77 195.992 L1395.77 193.165 L1392.77 186.225 L1389.79 179.063 L1386.83 172.119 L1383.87 166.296 L1380.95 164.409 
  L1378.03 165.665 L1375.23 165.579 L1372.38 162.631 L1369.62 160.256 L1366.75 160.379 L1363.82 161.97 L1360.81 163.337 L1357.73 164.572 L1354.59 165.575 L1351.38 166.679 
  L1348.14 166.778 L1344.89 168.639 L1341.63 172.562 L1338.36 174.159 L1335.06 180.155 L1331.77 180.751 L1328.46 177.475 L1325.13 176.527 L1321.8 173.699 L1318.44 177.449 
  L1315.12 181.67 L1311.76 185.496 L1308.38 189.076 L1304.99 191.097 L1301.53 193.19 L1298.06 194.401 L1294.59 192.504 L1291.13 188.492 L1287.69 183.677 L1284.24 190.487 
  L1280.83 195.117 L1277.44 202.938 L1274.17 211.983 L1271.03 221.196 L1267.92 226.2 L1264.68 233.072 L1261.43 240.711 L1258.22 248.507 L1255.24 257.599 L1252.07 267.805 
  L1248.96 279.251 L1245.56 287.435 L1242.03 301.381 L1238.24 315.411 L1234.31 329.58 L1230.18 345.079 L1225.98 348.467 L1221.69 354.544 L1217.27 366.629 L1212.99 384.806 
  L1208.5 406.233 L1204 426.6 L1199.52 447.482 L1195.15 458.224 L1190.25 466.139 L1185.16 474.275 L1179.93 483.243 L1174.62 494.704 L1169.19 514.976 L1163.67 535.845 
  L1157.96 559.348 L1152.22 579.624 L1146.35 593.001 L1140.57 608.26 L1134.86 627.75 L1129.16 646.628 L1123.52 666.587 L1117.34 691.22 L1111.85 712.322 L1105.27 738.187 
  L1098.68 764.01 L1092.51 789.376 L1086.92 803.29 L1081.79 822.404 L1076.97 843.127 L1072.21 861.379 L1066.82 884.876 L1061.4 909.783 L1055.3 934.386 L1049.07 954.089 
  L1042.72 979.889 L1037.08 996.345 L1031.27 1012.48 L1025.59 1027.03 L1020.46 1039.15 L1014.27 1053.26 L1007.9 1066.1 L1002.2 1077.44 L996.487 1090.7 L990.718 1107.99 
  L983.26 1129.37 L973.795 1152.48 L964.913 1168.76 L957.018 1184.2 L950.001 1198.25 L943.367 1210.71 L937.471 1219.25 L932.136 1225.53 L927.394 1232.32 L922.645 1239.81 
  L917.756 1247.16 L912.932 1251.64 L908.07 1256 L903.474 1261.42 L897.463 1267.54 L886.133 1278.58 L876.063 1287.31 L867.111 1297.73 L859.154 1306.21 L852.082 1313.07 
  L845.795 1317.59 L840.206 1320.51 L834.958 1323.19 L830.209 1325.59 L822.66 1329.05 L815.95 1331.97 L809.986 1334.65 L804.573 1337.99 L799.282 1341.18 L794.336 1342.72 
  L789.412 1344.18 L784.386 1345.7 L779.901 1346.88 L775.21 1348.66 L771.041 1350.43 L766.562 1352.14 L761.802 1353.87 L757.524 1355.5 L750.47 1357.89 L744.2 1359.94 
  L738.075 1361.75 L732.55 1363.21 L727.639 1364.13 L723.274 1364.92 L715.694 1366.29 L708.957 1367.61 L702.968 1368.79 L697.645 1369.68 L689.23 1371.18 L681.749 1372.59 
  L675.1 1373.45 L669.19 1374.11 L663.936 1374.65 L659.266 1375.13 L654.762 1375.59 L649.675 1376.07 L645.043 1376.44 L636.612 1377.01 L629.117 1377.54 L622.455 1378.07 
  L616.533 1378.76 L611.269 1379.32 L605.417 1379.9 L597.873 1380.59 L590.067 1381.21 L583.129 1381.62 L576.961 1381.94 L570.421 1382.26 L564.607 1382.55 L558.966 1382.83 
  L553.952 1383.06 L549.184 1383.23 L544.946 1383.36 L540.946 1383.51 L537.062 1383.67 L533.125 1383.82 L529.49 1383.94 L526.014 1384.05 L522.628 1384.15 L518.942 1384.25 
  L515.416 1384.37 L511.99 1384.46 L508.441 1384.56 L505.193 1384.65 L498.918 1384.8 L493.34 1384.91 L487.806 1385 L482.565 1385.06 L477.906 1385.15 L473.764 1385.24 
  L469.612 1385.32 L465.486 1385.4 L461.817 1385.44 L458.556 1385.48 L455.489 1385.51 L452.285 1385.57 L449.334 1385.62 L446.527 1385.67 L443.922 1385.71 L441.427 1385.74 
  L439.165 1385.78 L437.154 1385.81 L435.218 1385.83 L433.355 1385.85 L431.512 1385.88 L429.695 1385.9 L427.849 1385.92 L426.049 1385.94 L424.302 1385.95 L422.637 1385.97 
  L421.079 1385.99 L419.593 1386 L418.119 1386.01 L416.646 1386.03 L415.196 1386.04 L413.738 1386.05 L412.286 1386.06 L410.88 1386.07 L409.479 1386.08 L408.099 1386.09 
  L406.667 1386.1 L405.258 1386.12 L403.875 1386.12 L402.538 1386.13 L401.261 1386.14 L399.991 1386.15 L398.724 1386.16 L397.507 1386.17 L396.33 1386.18 L395.163 1386.18 
  L394.03 1386.19 L392.914 1386.2 L391.804 1386.2 L390.675 1386.21 L389.564 1386.21 L388.455 1386.22 L387.349 1386.22 L386.269 1386.23 L385.219 1386.23 L384.195 1386.24 
  L383.172 1386.24 L382.168 1386.25 L381.161 1386.25 L380.161 1386.25 L379.131 1386.26 L378.115 1386.26 L377.098 1386.26 L376.06 1386.27 L375 1386.27 L373.96 1386.27 
  L372.914 1386.28 L371.838 1386.28 L370.766 1386.29 L369.694 1386.29 L368.589 1386.3 L367.459 1386.3 L366.342 1386.3 L365.237 1386.31 L364.128 1386.31 L362.989 1386.32 
  L361.845 1386.32 L360.716 1386.32 L359.593 1386.32 L358.469 1386.33 L357.359 1386.33 L356.264 1386.33 L355.196 1386.33 L354.162 1386.33 L353.139 1386.33 L352.15 1386.33 
  L351.182 1386.34 L350.239 1386.34 L349.321 1386.34 L348.417 1386.34 L347.532 1386.34 L346.655 1386.34 L345.793 1386.34 L344.962 1386.34 L344.15 1386.34 L343.353 1386.34 
  L342.571 1386.34 L341.807 1386.34 L341.055 1386.33 L340.32 1386.33 L339.599 1386.33 L338.893 1386.33 L338.203 1386.33 L337.525 1386.33 L336.854 1386.33 L336.191 1386.33 
  L335.54 1386.33 L334.895 1386.33 L334.255 1386.33 L333.631 1386.32 L333.017 1386.32 L332.412 1386.32 L331.818 1386.32 L331.232 1386.32 L330.659 1386.32 L330.089 1386.32 
  L329.523 1386.32 L328.966 1386.31 L328.419 1386.31 L327.876 1386.31 L327.339 1386.31 L326.803 1386.31 L326.274 1386.31 L325.75 1386.31 L325.234 1386.3 L324.729 1386.3 
  L324.233 1386.3 L323.74 1386.3 L323.253 1386.3 L322.771 1386.3 L322.296 1386.29 L321.828 1386.29 L321.368 1386.29 L320.917 1386.29 L320.472 1386.29 L320.034 1386.29 
  L319.6 1386.28 L319.174 1386.28 L318.752 1386.28 L318.333 1386.28 L317.918 1386.28 L317.509 1386.27 L317.104 1386.27 L316.706 1386.27 L316.309 1386.27 L315.919 1386.27 
  L315.536 1386.26 L315.162 1386.26 L314.793 1386.26 L314.432 1386.26 L314.08 1386.26 L313.736 1386.25 L313.401 1386.25 L313.077 1386.25 L312.764 1386.25 L312.465 1386.25 
  L312.181 1386.24 L311.913 1386.24 L311.662 1386.24 L311.429 1386.24 L311.216 1386.24 L311.024 1386.24 L310.854 1386.24 L310.702 1386.23 L310.568 1386.23 L310.448 1386.23 
  L310.342 1386.23 L310.247 1386.23 L310.163 1386.23 L310.088 1386.23 L310.022 1386.23 L309.963 1386.23 L309.91 1386.23 L309.864 1386.23 L309.822 1386.23 L309.785 1386.23 
  L309.753 1386.23 L309.723 1386.23 L309.698 1386.23 L309.675 1386.23 L309.654 1386.23 L309.636 1386.23 L309.62 1386.23 L309.605 1386.23 L309.593 1386.23 L309.539 1386.23 
   Z
  " fill="#009af9" fill-rule="evenodd" fill-opacity="0.2"/>
<polyline clip-path="url(#clip212)" style="stroke:#009af9; stroke-linecap:butt; stroke-linejoin:round; stroke-width:12; stroke-opacity:1; fill:none" points="
  309.539,1386.23 309.593,1386.23 309.605,1386.23 309.62,1386.23 309.636,1386.23 309.654,1386.23 309.675,1386.23 309.698,1386.23 309.723,1386.23 309.753,1386.23 
  309.785,1386.23 309.822,1386.23 309.864,1386.23 309.91,1386.23 309.963,1386.23 310.022,1386.23 310.088,1386.23 310.163,1386.23 310.247,1386.23 310.342,1386.23 
  310.448,1386.23 310.568,1386.23 310.702,1386.24 310.854,1386.24 311.024,1386.24 311.216,1386.24 311.429,1386.24 311.662,1386.24 311.913,1386.24 312.181,1386.25 
  312.465,1386.25 312.764,1386.25 313.077,1386.25 313.401,1386.25 313.736,1386.26 314.08,1386.26 314.432,1386.26 314.793,1386.26 315.162,1386.26 315.536,1386.27 
  315.919,1386.27 316.309,1386.27 316.706,1386.27 317.104,1386.28 317.509,1386.28 317.918,1386.28 318.333,1386.28 318.752,1386.28 319.174,1386.29 319.6,1386.29 
  320.034,1386.29 320.472,1386.29 320.917,1386.29 321.368,1386.3 321.828,1386.3 322.296,1386.3 322.771,1386.3 323.253,1386.3 323.74,1386.31 324.233,1386.31 
  324.729,1386.31 325.234,1386.31 325.75,1386.31 326.274,1386.32 326.803,1386.32 327.339,1386.32 327.876,1386.32 328.419,1386.32 328.966,1386.33 329.523,1386.33 
  330.089,1386.33 330.659,1386.33 331.232,1386.33 331.818,1386.33 332.412,1386.34 333.017,1386.34 333.631,1386.34 334.255,1386.34 334.895,1386.34 335.54,1386.34 
  336.191,1386.34 336.854,1386.35 337.525,1386.35 338.203,1386.35 338.893,1386.35 339.599,1386.35 340.32,1386.35 341.055,1386.35 341.807,1386.35 342.571,1386.36 
  343.353,1386.36 344.15,1386.36 344.962,1386.36 345.793,1386.36 346.655,1386.36 347.532,1386.36 348.417,1386.36 349.321,1386.36 350.239,1386.36 351.182,1386.36 
  352.15,1386.36 353.139,1386.36 354.162,1386.36 355.196,1386.36 356.264,1386.36 357.359,1386.36 358.469,1386.36 359.593,1386.36 360.716,1386.36 361.845,1386.36 
  362.989,1386.36 364.128,1386.36 365.237,1386.35 366.342,1386.35 367.459,1386.35 368.589,1386.35 369.694,1386.35 370.766,1386.35 371.838,1386.34 372.914,1386.34 
  373.96,1386.34 375,1386.34 376.06,1386.33 377.098,1386.33 378.115,1386.33 379.131,1386.33 380.161,1386.32 381.161,1386.32 382.168,1386.32 383.172,1386.32 
  384.195,1386.31 385.219,1386.31 386.269,1386.31 387.349,1386.3 388.455,1386.3 389.564,1386.3 390.675,1386.29 391.804,1386.29 392.914,1386.28 394.03,1386.28 
  395.163,1386.28 396.33,1386.27 397.507,1386.27 398.724,1386.26 399.991,1386.26 401.261,1386.25 402.538,1386.24 403.875,1386.24 405.258,1386.23 406.667,1386.23 
  408.099,1386.22 409.479,1386.21 410.88,1386.2 412.286,1386.2 413.738,1386.19 415.196,1386.18 416.646,1386.17 418.119,1386.17 419.593,1386.16 421.079,1386.15 
  422.637,1386.14 424.302,1386.13 426.049,1386.12 427.849,1386.1 429.695,1386.09 431.512,1386.08 433.355,1386.07 435.218,1386.05 437.154,1386.04 439.165,1386.02 
  441.427,1386.01 443.922,1385.99 446.527,1385.96 449.334,1385.94 452.285,1385.91 455.489,1385.88 458.556,1385.86 461.817,1385.82 465.486,1385.79 469.612,1385.74 
  473.764,1385.69 477.906,1385.65 482.565,1385.59 487.806,1385.52 493.34,1385.44 498.918,1385.36 505.193,1385.26 508.441,1385.21 511.99,1385.14 515.416,1385.08 
  518.942,1385.02 522.628,1384.95 526.014,1384.88 529.49,1384.81 533.125,1384.73 537.062,1384.64 540.946,1384.55 544.946,1384.46 549.184,1384.35 553.952,1384.22 
  558.966,1384.08 564.607,1383.92 570.421,1383.74 576.961,1383.53 583.129,1383.31 590.067,1383.06 597.873,1382.74 605.417,1382.42 611.269,1382.15 616.533,1381.9 
  622.455,1381.6 629.117,1381.24 636.612,1380.82 645.043,1380.31 649.675,1380.01 654.762,1379.67 659.266,1379.35 663.936,1379.01 669.19,1378.61 675.1,1378.14 
  681.749,1377.57 689.23,1376.87 697.645,1376.02 702.968,1375.46 708.957,1374.8 715.694,1374.02 723.274,1373.08 727.639,1372.51 732.55,1371.84 738.075,1371.04 
  744.2,1370.11 750.47,1369.1 757.524,1367.9 761.802,1367.14 766.562,1366.24 771.041,1365.37 775.21,1364.53 779.901,1363.54 784.386,1362.57 789.412,1361.43 
  794.336,1360.27 799.282,1359.07 804.573,1357.73 809.986,1356.29 815.95,1354.61 822.66,1352.64 830.209,1350.29 834.958,1348.72 840.206,1346.89 845.795,1344.84 
  852.082,1342.4 859.154,1339.46 867.111,1335.95 876.063,1331.73 886.133,1326.62 897.463,1320.32 903.474,1316.69 908.07,1313.75 912.932,1310.54 917.756,1307.21 
  922.645,1303.68 927.394,1300.1 932.136,1296.37 937.471,1292.04 943.367,1287.03 950.001,1281.13 957.018,1274.51 964.913,1266.6 973.795,1257.15 983.26,1246.37 
  990.718,1237.32 996.487,1230.02 1002.2,1222.44 1007.9,1214.49 1014.27,1205.18 1020.46,1195.68 1025.59,1187.41 1031.27,1177.83 1037.08,1167.57 1042.72,1157.19 
  1049.07,1144.99 1055.3,1132.5 1061.4,1119.88 1066.82,1108.13 1072.21,1096.17 1076.97,1085.3 1081.79,1073.98 1086.92,1061.78 1092.51,1048 1098.68,1032.43 
  1105.27,1015.56 1111.85,998.399 1117.34,983.852 1123.52,967.116 1129.16,951.585 1134.86,935.559 1140.57,919.236 1146.35,902.545 1152.22,885.388 1157.96,868.502 
  1163.67,851.64 1169.19,835.275 1174.62,819.037 1179.93,803.158 1185.16,787.528 1190.25,772.302 1195.15,757.626 1199.52,744.611 1204,731.345 1208.5,718.092 
  1212.99,704.902 1217.27,692.361 1221.69,679.664 1225.98,667.506 1230.18,655.728 1234.31,644.324 1238.24,633.626 1242.03,623.414 1245.56,614.002 1248.96,605.027 
  1252.07,596.898 1255.24,588.76 1258.22,581.244 1261.43,573.335 1264.68,565.44 1267.92,557.663 1271.03,550.437 1274.17,543.308 1277.44,536.111 1280.83,528.904 
  1284.24,521.801 1287.69,514.886 1291.13,508.033 1294.59,501.206 1298.06,494.536 1301.53,488.134 1304.99,481.986 1308.38,476.207 1311.76,470.578 1315.12,465.273 
  1318.44,460.344 1321.8,455.635 1325.13,451.348 1328.46,447.294 1331.77,443.559 1335.06,440.19 1338.36,437.138 1341.63,434.398 1344.89,431.921 1348.14,429.744 
  1351.38,427.897 1354.59,426.34 1357.73,425.047 1360.81,423.919 1363.82,422.901 1366.75,422.047 1369.62,421.363 1372.38,420.909 1375.23,420.701 1378.03,420.785 
  1380.95,421.022 1383.87,421.429 1386.83,422.125 1389.79,423.089 1392.77,424.208 1395.77,425.507 1398.77,426.845 1401.77,428.31 1404.77,429.993 1407.81,431.864 
  1410.85,433.876 1413.88,436.131 1416.92,438.616 1419.99,441.481 1423.06,444.626 1426.16,448.005 1429.26,451.651 1432.38,455.525 1435.51,459.604 1438.62,463.933 
  1441.76,468.494 1444.88,473.14 1448.02,477.951 1451.18,482.915 1454.35,488.117 1457.54,493.49 1460.74,499.008 1463.94,504.667 1467.2,510.573 1470.46,516.662 
  1473.74,522.91 1477,529.358 1480.24,535.853 1483.41,542.303 1486.51,548.663 1489.49,554.933 1492.42,561.252 1495.35,567.539 1498.23,573.758 1500.98,579.759 
  1503.62,585.574 1506.14,591.219 1508.67,596.909 1511.16,602.533 1513.53,607.888 1515.94,613.344 1518.31,618.788 1520.69,624.249 1523.07,629.771 1525.51,635.472 
  1528,641.334 1530.64,647.6 1533.34,654.023 1536.02,660.478 1538.72,667.045 1541.42,673.644 1544.24,680.527 1547.14,687.584 1550.09,694.747 1552.93,701.598 
  1555.66,708.236 1558.3,714.593 1560.78,720.571 1563.3,726.658 1565.89,732.873 1568.42,738.926 1570.91,744.866 1573.54,751.17 1576.23,757.635 1579.01,764.33 
  1581.93,771.364 1584.96,778.701 1588.09,786.317 1591.5,794.618 1595.07,803.289 1598.78,812.27 1602.57,821.373 1606.3,830.271 1610.04,839.178 1613.57,847.568 
  1617.1,855.817 1620.3,863.222 1623.4,870.344 1626.46,877.356 1629.51,884.286 1632.64,891.39 1635.9,898.766 1639.02,905.783 1642.35,913.182 1645.69,920.576 
  1649.25,928.43 1653.09,936.791 1657.29,945.828 1661.77,955.294 1666.36,964.853 1671.13,974.634 1676.03,984.505 1681.31,994.97 1686.71,1005.43 1692.39,1016.19 
  1697.74,1026.1 1703.18,1036.01 1709.3,1046.95 1715.62,1057.9 1720.81,1066.64 1726,1075.13 1731.79,1084.43 1737.59,1093.51 1742.33,1100.81 1747.38,1108.46 
  1753.06,1116.92 1759.45,1126.12 1765.28,1134.27 1770.17,1140.93 1774.97,1147.32 1780,1153.89 1785.54,1160.9 1791.22,1167.89 1796.99,1174.84 1802.48,1181.26 
  1808.48,1188.11 1815.24,1195.58 1822.84,1203.78 1831.4,1212.73 1841.02,1222.39 1849.55,1230.54 1856.72,1237.07 1862.76,1242.37 1868.16,1246.95 1874.17,1251.89 
  1880.44,1256.87 1887.49,1262.26 1894.66,1267.5 1901.83,1272.54 1908.75,1277.2 1916.54,1282.23 1923.62,1286.65 1931.59,1291.41 1940.56,1296.54 1950.65,1301.94 
  1960.5,1306.91 1971.59,1312.16 1982.65,1317.09 1994.31,1321.95 2007.42,1327 2016.57,1330.32 2026.86,1333.88 2038.44,1337.61 2049.73,1341.01 2059.98,1343.87 
  2070.45,1346.63 2082.24,1349.52 2095.5,1352.51 2110.42,1355.6 2119.05,1357.27 2125.04,1358.38 2130.77,1359.4 2136.13,1360.33 2141.18,1361.18 2146.85,1362.11 
  2153.24,1363.11 2159.78,1364.1 2164.97,1364.84 2170.29,1365.58 2175.66,1366.31 2180.1,1366.89 2184.75,1367.48 2188.8,1367.98 2192.87,1368.47 2196.6,1368.91 
  2200.15,1369.31 2203.65,1369.7 2207.1,1370.08 2210.74,1370.47 2214.25,1370.84 2217.83,1371.2 2221.26,1371.55 2225.05,1371.92 2228.69,1372.27 2232.41,1372.62 
  2236.08,1372.95 2239.54,1373.26 2243,1373.56 2246.45,1373.86 2249.56,1374.12 2252.6,1374.37 2255.77,1374.63 2258.53,1374.85 2261.25,1375.06 2264.04,1375.28 
  2266.74,1375.48 2269.19,1375.66 2271.63,1375.84 2274.11,1376.02 2276.7,1376.2 2279.3,1376.38 2282.22,1376.58 2285.52,1376.8 2289.22,1377.04 2293.24,1377.3 
  
  "/>
<path clip-path="url(#clip210)" d="
M1563.55 270.476 L2282.66 270.476 L2282.66 166.796 L1563.55 166.796  Z
  " fill="#ffffff" fill-rule="evenodd" fill-opacity="1"/>
<polyline clip-path="url(#clip210)" style="stroke:#000000; stroke-linecap:butt; stroke-linejoin:round; stroke-width:4; stroke-opacity:1; fill:none" points="
  1563.55,270.476 2282.66,270.476 2282.66,166.796 1563.55,166.796 1563.55,270.476 
  "/>
<polyline clip-path="url(#clip210)" style="stroke:#009af9; stroke-linecap:butt; stroke-linejoin:round; stroke-width:4; stroke-opacity:1; fill:none" points="
  1586.91,218.636 1727.09,218.636 
  "/>
<path clip-path="url(#clip210)" d="M1750.45 201.356 L1757.42 201.356 L1766.24 224.874 L1775.11 201.356 L1782.07 201.356 L1782.07 235.916 L1777.51 235.916 L1777.51 205.569 L1768.6 229.272 L1763.9 229.272 L1754.99 205.569 L1754.99 235.916 L1750.45 235.916 L1750.45 201.356 Z" fill="#000000" fill-rule="evenodd" fill-opacity="1" /><path clip-path="url(#clip210)" d="M1791.17 209.99 L1795.43 209.99 L1795.43 235.916 L1791.17 235.916 L1791.17 209.99 M1791.17 199.897 L1795.43 199.897 L1795.43 205.291 L1791.17 205.291 L1791.17 199.897 Z" fill="#000000" fill-rule="evenodd" fill-opacity="1" /><path clip-path="url(#clip210)" d="M1821.4 213.925 L1821.4 199.897 L1825.66 199.897 L1825.66 235.916 L1821.4 235.916 L1821.4 232.027 Q1820.06 234.342 1818 235.476 Q1815.96 236.587 1813.09 236.587 Q1808.39 236.587 1805.43 232.837 Q1802.49 229.087 1802.49 222.976 Q1802.49 216.865 1805.43 213.115 Q1808.39 209.365 1813.09 209.365 Q1815.96 209.365 1818 210.499 Q1820.06 211.61 1821.4 213.925 M1806.89 222.976 Q1806.89 227.675 1808.81 230.36 Q1810.75 233.022 1814.13 233.022 Q1817.51 233.022 1819.46 230.36 Q1821.4 227.675 1821.4 222.976 Q1821.4 218.277 1819.46 215.615 Q1817.51 212.93 1814.13 212.93 Q1810.75 212.93 1808.81 215.615 Q1806.89 218.277 1806.89 222.976 Z" fill="#000000" fill-rule="evenodd" fill-opacity="1" /><path clip-path="url(#clip210)" d="M1851.5 213.925 L1851.5 199.897 L1855.75 199.897 L1855.75 235.916 L1851.5 235.916 L1851.5 232.027 Q1850.15 234.342 1848.09 235.476 Q1846.06 236.587 1843.19 236.587 Q1838.49 236.587 1835.52 232.837 Q1832.58 229.087 1832.58 222.976 Q1832.58 216.865 1835.52 213.115 Q1838.49 209.365 1843.19 209.365 Q1846.06 209.365 1848.09 210.499 Q1850.15 211.61 1851.5 213.925 M1836.98 222.976 Q1836.98 227.675 1838.9 230.36 Q1840.85 233.022 1844.23 233.022 Q1847.61 233.022 1849.55 230.36 Q1851.5 227.675 1851.5 222.976 Q1851.5 218.277 1849.55 215.615 Q1847.61 212.93 1844.23 212.93 Q1840.85 212.93 1838.9 215.615 Q1836.98 218.277 1836.98 222.976 Z" fill="#000000" fill-rule="evenodd" fill-opacity="1" /><path clip-path="url(#clip210)" d="M1864.53 199.897 L1868.79 199.897 L1868.79 235.916 L1864.53 235.916 L1864.53 199.897 Z" fill="#000000" fill-rule="evenodd" fill-opacity="1" /><path clip-path="url(#clip210)" d="M1899.87 221.888 L1899.87 223.971 L1880.29 223.971 Q1880.57 228.369 1882.93 230.684 Q1885.31 232.976 1889.55 232.976 Q1892 232.976 1894.3 232.374 Q1896.61 231.772 1898.88 230.569 L1898.88 234.596 Q1896.59 235.568 1894.18 236.078 Q1891.77 236.587 1889.3 236.587 Q1883.09 236.587 1879.46 232.976 Q1875.85 229.365 1875.85 223.207 Q1875.85 216.842 1879.27 213.115 Q1882.72 209.365 1888.56 209.365 Q1893.79 209.365 1896.82 212.745 Q1899.87 216.101 1899.87 221.888 M1895.62 220.638 Q1895.57 217.143 1893.65 215.059 Q1891.75 212.976 1888.6 212.976 Q1885.04 212.976 1882.88 214.99 Q1880.75 217.004 1880.43 220.661 L1895.62 220.638 Z" fill="#000000" fill-rule="evenodd" fill-opacity="1" /><path clip-path="url(#clip210)" d="M1922.68 235.198 L1922.68 230.939 Q1924.43 231.772 1926.24 232.212 Q1928.05 232.652 1929.78 232.652 Q1934.41 232.652 1936.84 229.55 Q1939.3 226.425 1939.64 220.082 Q1938.3 222.073 1936.24 223.138 Q1934.18 224.203 1931.68 224.203 Q1926.49 224.203 1923.46 221.078 Q1920.45 217.93 1920.45 212.49 Q1920.45 207.166 1923.6 203.948 Q1926.75 200.731 1931.98 200.731 Q1937.98 200.731 1941.12 205.337 Q1944.3 209.92 1944.3 218.67 Q1944.3 226.842 1940.41 231.726 Q1936.54 236.587 1929.99 236.587 Q1928.23 236.587 1926.43 236.24 Q1924.62 235.893 1922.68 235.198 M1931.98 220.545 Q1935.13 220.545 1936.96 218.393 Q1938.81 216.24 1938.81 212.49 Q1938.81 208.763 1936.96 206.61 Q1935.13 204.434 1931.98 204.434 Q1928.83 204.434 1926.98 206.61 Q1925.15 208.763 1925.15 212.49 Q1925.15 216.24 1926.98 218.393 Q1928.83 220.545 1931.98 220.545 Z" fill="#000000" fill-rule="evenodd" fill-opacity="1" /><path clip-path="url(#clip210)" d="M1952.74 201.356 L1971.1 201.356 L1971.1 205.291 L1957.03 205.291 L1957.03 213.763 Q1958.05 213.416 1959.06 213.254 Q1960.08 213.069 1961.1 213.069 Q1966.89 213.069 1970.27 216.24 Q1973.65 219.411 1973.65 224.828 Q1973.65 230.406 1970.18 233.508 Q1966.7 236.587 1960.38 236.587 Q1958.21 236.587 1955.94 236.217 Q1953.69 235.846 1951.29 235.106 L1951.29 230.406 Q1953.37 231.541 1955.59 232.096 Q1957.81 232.652 1960.29 232.652 Q1964.3 232.652 1966.63 230.545 Q1968.97 228.439 1968.97 224.828 Q1968.97 221.217 1966.63 219.11 Q1964.3 217.004 1960.29 217.004 Q1958.42 217.004 1956.54 217.42 Q1954.69 217.837 1952.74 218.717 L1952.74 201.356 Z" fill="#000000" fill-rule="evenodd" fill-opacity="1" /><path clip-path="url(#clip210)" d="M2012.26 220.707 Q2010.24 220.707 2009.09 222.42 Q2007.95 224.133 2007.95 227.189 Q2007.95 230.198 2009.09 231.934 Q2010.24 233.647 2012.26 233.647 Q2014.23 233.647 2015.36 231.934 Q2016.52 230.198 2016.52 227.189 Q2016.52 224.157 2015.36 222.444 Q2014.23 220.707 2012.26 220.707 M2012.26 217.768 Q2015.92 217.768 2018.07 220.314 Q2020.22 222.86 2020.22 227.189 Q2020.22 231.518 2018.05 234.064 Q2015.89 236.587 2012.26 236.587 Q2008.55 236.587 2006.4 234.064 Q2004.25 231.518 2004.25 227.189 Q2004.25 222.837 2006.4 220.314 Q2008.58 217.768 2012.26 217.768 M1988.37 203.671 Q1986.38 203.671 1985.22 205.407 Q1984.09 207.12 1984.09 210.129 Q1984.09 213.184 1985.22 214.897 Q1986.36 216.61 1988.37 216.61 Q1990.38 216.61 1991.52 214.897 Q1992.68 213.184 1992.68 210.129 Q1992.68 207.143 1991.52 205.407 Q1990.36 203.671 1988.37 203.671 M2009.27 200.731 L2012.98 200.731 L1991.36 236.587 L1987.65 236.587 L2009.27 200.731 M1988.37 200.731 Q1992.03 200.731 1994.2 203.277 Q1996.38 205.8 1996.38 210.129 Q1996.38 214.504 1994.2 217.027 Q1992.05 219.55 1988.37 219.55 Q1984.69 219.55 1982.54 217.027 Q1980.41 214.481 1980.41 210.129 Q1980.41 205.823 1982.56 203.277 Q1984.71 200.731 1988.37 200.731 Z" fill="#000000" fill-rule="evenodd" fill-opacity="1" /><path clip-path="url(#clip210)" d="M2056.59 204.527 Q2051.49 204.527 2048.48 208.323 Q2045.5 212.12 2045.5 218.67 Q2045.5 225.198 2048.48 228.994 Q2051.49 232.791 2056.59 232.791 Q2061.68 232.791 2064.64 228.994 Q2067.63 225.198 2067.63 218.67 Q2067.63 212.12 2064.64 208.323 Q2061.68 204.527 2056.59 204.527 M2063.14 235.291 L2069.3 242.027 L2063.65 242.027 L2058.53 236.494 Q2057.77 236.541 2057.35 236.564 Q2056.96 236.587 2056.59 236.587 Q2049.3 236.587 2044.92 231.726 Q2040.57 226.842 2040.57 218.67 Q2040.57 210.476 2044.92 205.615 Q2049.3 200.731 2056.59 200.731 Q2063.86 200.731 2068.21 205.615 Q2072.56 210.476 2072.56 218.67 Q2072.56 224.689 2070.13 228.971 Q2067.72 233.254 2063.14 235.291 Z" fill="#000000" fill-rule="evenodd" fill-opacity="1" /><path clip-path="url(#clip210)" d="M2079.25 225.684 L2079.25 209.99 L2083.51 209.99 L2083.51 225.522 Q2083.51 229.203 2084.94 231.055 Q2086.38 232.883 2089.25 232.883 Q2092.7 232.883 2094.69 230.684 Q2096.7 228.485 2096.7 224.689 L2096.7 209.99 L2100.96 209.99 L2100.96 235.916 L2096.7 235.916 L2096.7 231.934 Q2095.15 234.295 2093.09 235.453 Q2091.05 236.587 2088.35 236.587 Q2083.88 236.587 2081.56 233.809 Q2079.25 231.031 2079.25 225.684 M2089.97 209.365 L2089.97 209.365 Z" fill="#000000" fill-rule="evenodd" fill-opacity="1" /><path clip-path="url(#clip210)" d="M2121.52 222.883 Q2116.36 222.883 2114.36 224.064 Q2112.37 225.244 2112.37 228.092 Q2112.37 230.36 2113.86 231.703 Q2115.36 233.022 2117.93 233.022 Q2121.47 233.022 2123.6 230.522 Q2125.75 227.999 2125.75 223.832 L2125.75 222.883 L2121.52 222.883 M2130.01 221.124 L2130.01 235.916 L2125.75 235.916 L2125.75 231.981 Q2124.29 234.342 2122.12 235.476 Q2119.94 236.587 2116.79 236.587 Q2112.81 236.587 2110.45 234.365 Q2108.11 232.119 2108.11 228.369 Q2108.11 223.994 2111.03 221.772 Q2113.97 219.55 2119.78 219.55 L2125.75 219.55 L2125.75 219.133 Q2125.75 216.194 2123.81 214.596 Q2121.89 212.976 2118.39 212.976 Q2116.17 212.976 2114.06 213.508 Q2111.96 214.041 2110.01 215.106 L2110.01 211.17 Q2112.35 210.268 2114.55 209.828 Q2116.75 209.365 2118.83 209.365 Q2124.46 209.365 2127.23 212.282 Q2130.01 215.198 2130.01 221.124 Z" fill="#000000" fill-rule="evenodd" fill-opacity="1" /><path clip-path="url(#clip210)" d="M2160.34 220.268 L2160.34 235.916 L2156.08 235.916 L2156.08 220.407 Q2156.08 216.726 2154.64 214.897 Q2153.21 213.069 2150.34 213.069 Q2146.89 213.069 2144.9 215.268 Q2142.91 217.467 2142.91 221.263 L2142.91 235.916 L2138.62 235.916 L2138.62 209.99 L2142.91 209.99 L2142.91 214.018 Q2144.43 211.68 2146.49 210.522 Q2148.58 209.365 2151.29 209.365 Q2155.75 209.365 2158.04 212.143 Q2160.34 214.897 2160.34 220.268 Z" fill="#000000" fill-rule="evenodd" fill-opacity="1" /><path clip-path="url(#clip210)" d="M2173.04 202.629 L2173.04 209.99 L2181.82 209.99 L2181.82 213.3 L2173.04 213.3 L2173.04 227.374 Q2173.04 230.545 2173.9 231.448 Q2174.78 232.351 2177.44 232.351 L2181.82 232.351 L2181.82 235.916 L2177.44 235.916 Q2172.51 235.916 2170.64 234.087 Q2168.76 232.235 2168.76 227.374 L2168.76 213.3 L2165.64 213.3 L2165.64 209.99 L2168.76 209.99 L2168.76 202.629 L2173.04 202.629 Z" fill="#000000" fill-rule="evenodd" fill-opacity="1" /><path clip-path="url(#clip210)" d="M2187.42 209.99 L2191.68 209.99 L2191.68 235.916 L2187.42 235.916 L2187.42 209.99 M2187.42 199.897 L2191.68 199.897 L2191.68 205.291 L2187.42 205.291 L2187.42 199.897 Z" fill="#000000" fill-rule="evenodd" fill-opacity="1" /><path clip-path="url(#clip210)" d="M2200.59 199.897 L2204.85 199.897 L2204.85 235.916 L2200.59 235.916 L2200.59 199.897 Z" fill="#000000" fill-rule="evenodd" fill-opacity="1" /><path clip-path="url(#clip210)" d="M2235.94 221.888 L2235.94 223.971 L2216.35 223.971 Q2216.63 228.369 2218.99 230.684 Q2221.38 232.976 2225.61 232.976 Q2228.07 232.976 2230.36 232.374 Q2232.67 231.772 2234.94 230.569 L2234.94 234.596 Q2232.65 235.568 2230.24 236.078 Q2227.84 236.587 2225.36 236.587 Q2219.16 236.587 2215.52 232.976 Q2211.91 229.365 2211.91 223.207 Q2211.91 216.842 2215.34 213.115 Q2218.79 209.365 2224.62 209.365 Q2229.85 209.365 2232.88 212.745 Q2235.94 216.101 2235.94 221.888 M2231.68 220.638 Q2231.63 217.143 2229.71 215.059 Q2227.81 212.976 2224.66 212.976 Q2221.1 212.976 2218.95 214.99 Q2216.82 217.004 2216.49 220.661 L2231.68 220.638 Z" fill="#000000" fill-rule="evenodd" fill-opacity="1" /></svg>
