<?xml version="1.0" encoding="utf-8"?>
<svg xmlns="http://www.w3.org/2000/svg" xmlns:xlink="http://www.w3.org/1999/xlink" width="600" height="400" viewBox="0 0 2400 1600">
<defs>
  <clipPath id="clip860">
    <rect x="0" y="0" width="2400" height="1600"/>
  </clipPath>
</defs>
<path clip-path="url(#clip860)" d="
M0 1600 L2400 1600 L2400 0 L0 0  Z
  " fill="#ffffff" fill-rule="evenodd" fill-opacity="1"/>
<defs>
  <clipPath id="clip861">
    <rect x="480" y="0" width="1681" height="1600"/>
  </clipPath>
</defs>
<path clip-path="url(#clip860)" d="
M179.353 1486.45 L2352.76 1486.45 L2352.76 47.2441 L179.353 47.2441  Z
  " fill="#ffffff" fill-rule="evenodd" fill-opacity="1"/>
<defs>
  <clipPath id="clip862">
    <rect x="179" y="47" width="2174" height="1440"/>
  </clipPath>
</defs>
<polyline clip-path="url(#clip862)" style="stroke:#000000; stroke-linecap:butt; stroke-linejoin:round; stroke-width:2; stroke-opacity:0.1; fill:none" points="
  240.863,1486.45 240.863,47.2441 
  "/>
<polyline clip-path="url(#clip862)" style="stroke:#000000; stroke-linecap:butt; stroke-linejoin:round; stroke-width:2; stroke-opacity:0.1; fill:none" points="
  753.458,1486.45 753.458,47.2441 
  "/>
<polyline clip-path="url(#clip862)" style="stroke:#000000; stroke-linecap:butt; stroke-linejoin:round; stroke-width:2; stroke-opacity:0.1; fill:none" points="
  1266.05,1486.45 1266.05,47.2441 
  "/>
<polyline clip-path="url(#clip862)" style="stroke:#000000; stroke-linecap:butt; stroke-linejoin:round; stroke-width:2; stroke-opacity:0.1; fill:none" points="
  1778.65,1486.45 1778.65,47.2441 
  "/>
<polyline clip-path="url(#clip862)" style="stroke:#000000; stroke-linecap:butt; stroke-linejoin:round; stroke-width:2; stroke-opacity:0.1; fill:none" points="
  2291.24,1486.45 2291.24,47.2441 
  "/>
<polyline clip-path="url(#clip860)" style="stroke:#000000; stroke-linecap:butt; stroke-linejoin:round; stroke-width:4; stroke-opacity:1; fill:none" points="
  179.353,1486.45 2352.76,1486.45 
  "/>
<polyline clip-path="url(#clip860)" style="stroke:#000000; stroke-linecap:butt; stroke-linejoin:round; stroke-width:4; stroke-opacity:1; fill:none" points="
  240.863,1486.45 240.863,1467.55 
  "/>
<polyline clip-path="url(#clip860)" style="stroke:#000000; stroke-linecap:butt; stroke-linejoin:round; stroke-width:4; stroke-opacity:1; fill:none" points="
  753.458,1486.45 753.458,1467.55 
  "/>
<polyline clip-path="url(#clip860)" style="stroke:#000000; stroke-linecap:butt; stroke-linejoin:round; stroke-width:4; stroke-opacity:1; fill:none" points="
  1266.05,1486.45 1266.05,1467.55 
  "/>
<polyline clip-path="url(#clip860)" style="stroke:#000000; stroke-linecap:butt; stroke-linejoin:round; stroke-width:4; stroke-opacity:1; fill:none" points="
  1778.65,1486.45 1778.65,1467.55 
  "/>
<polyline clip-path="url(#clip860)" style="stroke:#000000; stroke-linecap:butt; stroke-linejoin:round; stroke-width:4; stroke-opacity:1; fill:none" points="
  2291.24,1486.45 2291.24,1467.55 
  "/>
<path clip-path="url(#clip860)" d="M218.248 1517.37 Q214.636 1517.37 212.808 1520.93 Q211.002 1524.47 211.002 1531.6 Q211.002 1538.71 212.808 1542.27 Q214.636 1545.82 218.248 1545.82 Q221.882 1545.82 223.687 1542.27 Q225.516 1538.71 225.516 1531.6 Q225.516 1524.47 223.687 1520.93 Q221.882 1517.37 218.248 1517.37 M218.248 1513.66 Q224.058 1513.66 227.113 1518.27 Q230.192 1522.85 230.192 1531.6 Q230.192 1540.33 227.113 1544.94 Q224.058 1549.52 218.248 1549.52 Q212.437 1549.52 209.359 1544.94 Q206.303 1540.33 206.303 1531.6 Q206.303 1522.85 209.359 1518.27 Q212.437 1513.66 218.248 1513.66 Z" fill="#000000" fill-rule="evenodd" fill-opacity="1" /><path clip-path="url(#clip860)" d="M238.409 1542.97 L243.294 1542.97 L243.294 1548.85 L238.409 1548.85 L238.409 1542.97 Z" fill="#000000" fill-rule="evenodd" fill-opacity="1" /><path clip-path="url(#clip860)" d="M263.479 1517.37 Q259.868 1517.37 258.039 1520.93 Q256.233 1524.47 256.233 1531.6 Q256.233 1538.71 258.039 1542.27 Q259.868 1545.82 263.479 1545.82 Q267.113 1545.82 268.919 1542.27 Q270.747 1538.71 270.747 1531.6 Q270.747 1524.47 268.919 1520.93 Q267.113 1517.37 263.479 1517.37 M263.479 1513.66 Q269.289 1513.66 272.344 1518.27 Q275.423 1522.85 275.423 1531.6 Q275.423 1540.33 272.344 1544.94 Q269.289 1549.52 263.479 1549.52 Q257.669 1549.52 254.59 1544.94 Q251.534 1540.33 251.534 1531.6 Q251.534 1522.85 254.59 1518.27 Q257.669 1513.66 263.479 1513.66 Z" fill="#000000" fill-rule="evenodd" fill-opacity="1" /><path clip-path="url(#clip860)" d="M731.341 1517.37 Q727.729 1517.37 725.901 1520.93 Q724.095 1524.47 724.095 1531.6 Q724.095 1538.71 725.901 1542.27 Q727.729 1545.82 731.341 1545.82 Q734.975 1545.82 736.78 1542.27 Q738.609 1538.71 738.609 1531.6 Q738.609 1524.47 736.78 1520.93 Q734.975 1517.37 731.341 1517.37 M731.341 1513.66 Q737.151 1513.66 740.206 1518.27 Q743.285 1522.85 743.285 1531.6 Q743.285 1540.33 740.206 1544.94 Q737.151 1549.52 731.341 1549.52 Q725.53 1549.52 722.452 1544.94 Q719.396 1540.33 719.396 1531.6 Q719.396 1522.85 722.452 1518.27 Q725.53 1513.66 731.341 1513.66 Z" fill="#000000" fill-rule="evenodd" fill-opacity="1" /><path clip-path="url(#clip860)" d="M751.502 1542.97 L756.387 1542.97 L756.387 1548.85 L751.502 1548.85 L751.502 1542.97 Z" fill="#000000" fill-rule="evenodd" fill-opacity="1" /><path clip-path="url(#clip860)" d="M766.618 1514.29 L784.975 1514.29 L784.975 1518.22 L770.901 1518.22 L770.901 1526.7 Q771.919 1526.35 772.938 1526.19 Q773.956 1526 774.975 1526 Q780.762 1526 784.141 1529.17 Q787.521 1532.34 787.521 1537.76 Q787.521 1543.34 784.049 1546.44 Q780.576 1549.52 774.257 1549.52 Q772.081 1549.52 769.813 1549.15 Q767.567 1548.78 765.16 1548.04 L765.16 1543.34 Q767.243 1544.47 769.465 1545.03 Q771.688 1545.58 774.164 1545.58 Q778.169 1545.58 780.507 1543.48 Q782.845 1541.37 782.845 1537.76 Q782.845 1534.15 780.507 1532.04 Q778.169 1529.94 774.164 1529.94 Q772.289 1529.94 770.414 1530.35 Q768.563 1530.77 766.618 1531.65 L766.618 1514.29 Z" fill="#000000" fill-rule="evenodd" fill-opacity="1" /><path clip-path="url(#clip860)" d="M1233.21 1544.91 L1240.85 1544.91 L1240.85 1518.55 L1232.54 1520.21 L1232.54 1515.95 L1240.8 1514.29 L1245.48 1514.29 L1245.48 1544.91 L1253.11 1544.91 L1253.11 1548.85 L1233.21 1548.85 L1233.21 1544.91 Z" fill="#000000" fill-rule="evenodd" fill-opacity="1" /><path clip-path="url(#clip860)" d="M1262.56 1542.97 L1267.44 1542.97 L1267.44 1548.85 L1262.56 1548.85 L1262.56 1542.97 Z" fill="#000000" fill-rule="evenodd" fill-opacity="1" /><path clip-path="url(#clip860)" d="M1287.63 1517.37 Q1284.02 1517.37 1282.19 1520.93 Q1280.38 1524.47 1280.38 1531.6 Q1280.38 1538.71 1282.19 1542.27 Q1284.02 1545.82 1287.63 1545.82 Q1291.26 1545.82 1293.07 1542.27 Q1294.9 1538.71 1294.9 1531.6 Q1294.9 1524.47 1293.07 1520.93 Q1291.26 1517.37 1287.63 1517.37 M1287.63 1513.66 Q1293.44 1513.66 1296.49 1518.27 Q1299.57 1522.85 1299.57 1531.6 Q1299.57 1540.33 1296.49 1544.94 Q1293.44 1549.52 1287.63 1549.52 Q1281.82 1549.52 1278.74 1544.94 Q1275.68 1540.33 1275.68 1531.6 Q1275.68 1522.85 1278.74 1518.27 Q1281.82 1513.66 1287.63 1513.66 Z" fill="#000000" fill-rule="evenodd" fill-opacity="1" /><path clip-path="url(#clip860)" d="M1746.3 1544.91 L1753.94 1544.91 L1753.94 1518.55 L1745.63 1520.21 L1745.63 1515.95 L1753.89 1514.29 L1758.57 1514.29 L1758.57 1544.91 L1766.21 1544.91 L1766.21 1548.85 L1746.3 1548.85 L1746.3 1544.91 Z" fill="#000000" fill-rule="evenodd" fill-opacity="1" /><path clip-path="url(#clip860)" d="M1775.65 1542.97 L1780.54 1542.97 L1780.54 1548.85 L1775.65 1548.85 L1775.65 1542.97 Z" fill="#000000" fill-rule="evenodd" fill-opacity="1" /><path clip-path="url(#clip860)" d="M1790.77 1514.29 L1809.12 1514.29 L1809.12 1518.22 L1795.05 1518.22 L1795.05 1526.7 Q1796.07 1526.35 1797.09 1526.19 Q1798.11 1526 1799.12 1526 Q1804.91 1526 1808.29 1529.17 Q1811.67 1532.34 1811.67 1537.76 Q1811.67 1543.34 1808.2 1546.44 Q1804.73 1549.52 1798.41 1549.52 Q1796.23 1549.52 1793.96 1549.15 Q1791.72 1548.78 1789.31 1548.04 L1789.31 1543.34 Q1791.39 1544.47 1793.61 1545.03 Q1795.84 1545.58 1798.31 1545.58 Q1802.32 1545.58 1804.66 1543.48 Q1806.99 1541.37 1806.99 1537.76 Q1806.99 1534.15 1804.66 1532.04 Q1802.32 1529.94 1798.31 1529.94 Q1796.44 1529.94 1794.56 1530.35 Q1792.71 1530.77 1790.77 1531.65 L1790.77 1514.29 Z" fill="#000000" fill-rule="evenodd" fill-opacity="1" /><path clip-path="url(#clip860)" d="M2262.48 1544.91 L2278.8 1544.91 L2278.8 1548.85 L2256.86 1548.85 L2256.86 1544.91 Q2259.52 1542.16 2264.1 1537.53 Q2268.71 1532.88 2269.89 1531.53 Q2272.14 1529.01 2273.02 1527.27 Q2273.92 1525.51 2273.92 1523.82 Q2273.92 1521.07 2271.97 1519.33 Q2270.05 1517.6 2266.95 1517.6 Q2264.75 1517.6 2262.3 1518.36 Q2259.87 1519.13 2257.09 1520.68 L2257.09 1515.95 Q2259.91 1514.82 2262.37 1514.24 Q2264.82 1513.66 2266.86 1513.66 Q2272.23 1513.66 2275.42 1516.35 Q2278.62 1519.03 2278.62 1523.52 Q2278.62 1525.65 2277.81 1527.57 Q2277.02 1529.47 2274.91 1532.07 Q2274.33 1532.74 2271.23 1535.95 Q2268.13 1539.15 2262.48 1544.91 Z" fill="#000000" fill-rule="evenodd" fill-opacity="1" /><path clip-path="url(#clip860)" d="M2288.62 1542.97 L2293.5 1542.97 L2293.5 1548.85 L2288.62 1548.85 L2288.62 1542.97 Z" fill="#000000" fill-rule="evenodd" fill-opacity="1" /><path clip-path="url(#clip860)" d="M2313.69 1517.37 Q2310.08 1517.37 2308.25 1520.93 Q2306.44 1524.47 2306.44 1531.6 Q2306.44 1538.71 2308.25 1542.27 Q2310.08 1545.82 2313.69 1545.82 Q2317.32 1545.82 2319.13 1542.27 Q2320.95 1538.71 2320.95 1531.6 Q2320.95 1524.47 2319.13 1520.93 Q2317.32 1517.37 2313.69 1517.37 M2313.69 1513.66 Q2319.5 1513.66 2322.55 1518.27 Q2325.63 1522.85 2325.63 1531.6 Q2325.63 1540.33 2322.55 1544.94 Q2319.5 1549.52 2313.69 1549.52 Q2307.88 1549.52 2304.8 1544.94 Q2301.74 1540.33 2301.74 1531.6 Q2301.74 1522.85 2304.8 1518.27 Q2307.88 1513.66 2313.69 1513.66 Z" fill="#000000" fill-rule="evenodd" fill-opacity="1" /><polyline clip-path="url(#clip862)" style="stroke:#000000; stroke-linecap:butt; stroke-linejoin:round; stroke-width:2; stroke-opacity:0.1; fill:none" points="
  179.353,1486.45 2352.76,1486.45 
  "/>
<polyline clip-path="url(#clip862)" style="stroke:#000000; stroke-linecap:butt; stroke-linejoin:round; stroke-width:2; stroke-opacity:0.1; fill:none" points="
  179.353,1126.65 2352.76,1126.65 
  "/>
<polyline clip-path="url(#clip862)" style="stroke:#000000; stroke-linecap:butt; stroke-linejoin:round; stroke-width:2; stroke-opacity:0.1; fill:none" points="
  179.353,766.846 2352.76,766.846 
  "/>
<polyline clip-path="url(#clip862)" style="stroke:#000000; stroke-linecap:butt; stroke-linejoin:round; stroke-width:2; stroke-opacity:0.1; fill:none" points="
  179.353,407.045 2352.76,407.045 
  "/>
<polyline clip-path="url(#clip862)" style="stroke:#000000; stroke-linecap:butt; stroke-linejoin:round; stroke-width:2; stroke-opacity:0.1; fill:none" points="
  179.353,47.2441 2352.76,47.2441 
  "/>
<polyline clip-path="url(#clip860)" style="stroke:#000000; stroke-linecap:butt; stroke-linejoin:round; stroke-width:4; stroke-opacity:1; fill:none" points="
  179.353,1486.45 179.353,47.2441 
  "/>
<polyline clip-path="url(#clip860)" style="stroke:#000000; stroke-linecap:butt; stroke-linejoin:round; stroke-width:4; stroke-opacity:1; fill:none" points="
  179.353,1486.45 198.25,1486.45 
  "/>
<polyline clip-path="url(#clip860)" style="stroke:#000000; stroke-linecap:butt; stroke-linejoin:round; stroke-width:4; stroke-opacity:1; fill:none" points="
  179.353,1126.65 198.25,1126.65 
  "/>
<polyline clip-path="url(#clip860)" style="stroke:#000000; stroke-linecap:butt; stroke-linejoin:round; stroke-width:4; stroke-opacity:1; fill:none" points="
  179.353,766.846 198.25,766.846 
  "/>
<polyline clip-path="url(#clip860)" style="stroke:#000000; stroke-linecap:butt; stroke-linejoin:round; stroke-width:4; stroke-opacity:1; fill:none" points="
  179.353,407.045 198.25,407.045 
  "/>
<polyline clip-path="url(#clip860)" style="stroke:#000000; stroke-linecap:butt; stroke-linejoin:round; stroke-width:4; stroke-opacity:1; fill:none" points="
  179.353,47.2441 198.25,47.2441 
  "/>
<path clip-path="url(#clip860)" d="M51.4782 1486.9 L81.154 1486.9 L81.154 1490.83 L51.4782 1490.83 L51.4782 1486.9 Z" fill="#000000" fill-rule="evenodd" fill-opacity="1" /><path clip-path="url(#clip860)" d="M104.094 1473.24 L92.2882 1491.69 L104.094 1491.69 L104.094 1473.24 M102.867 1469.17 L108.746 1469.17 L108.746 1491.69 L113.677 1491.69 L113.677 1495.58 L108.746 1495.58 L108.746 1503.73 L104.094 1503.73 L104.094 1495.58 L88.4919 1495.58 L88.4919 1491.07 L102.867 1469.17 Z" fill="#000000" fill-rule="evenodd" fill-opacity="1" /><path clip-path="url(#clip860)" d="M131.408 1472.25 Q127.797 1472.25 125.969 1475.81 Q124.163 1479.35 124.163 1486.48 Q124.163 1493.59 125.969 1497.15 Q127.797 1500.7 131.408 1500.7 Q135.043 1500.7 136.848 1497.15 Q138.677 1493.59 138.677 1486.48 Q138.677 1479.35 136.848 1475.81 Q135.043 1472.25 131.408 1472.25 M131.408 1468.54 Q137.219 1468.54 140.274 1473.15 Q143.353 1477.73 143.353 1486.48 Q143.353 1495.21 140.274 1499.82 Q137.219 1504.4 131.408 1504.4 Q125.598 1504.4 122.52 1499.82 Q119.464 1495.21 119.464 1486.48 Q119.464 1477.73 122.52 1473.15 Q125.598 1468.54 131.408 1468.54 Z" fill="#000000" fill-rule="evenodd" fill-opacity="1" /><path clip-path="url(#clip860)" d="M51.5708 1127.1 L81.2466 1127.1 L81.2466 1131.03 L51.5708 1131.03 L51.5708 1127.1 Z" fill="#000000" fill-rule="evenodd" fill-opacity="1" /><path clip-path="url(#clip860)" d="M105.506 1125.29 Q108.862 1126.01 110.737 1128.28 Q112.635 1130.55 112.635 1133.88 Q112.635 1139 109.117 1141.8 Q105.598 1144.6 99.1169 1144.6 Q96.941 1144.6 94.6262 1144.16 Q92.3345 1143.74 89.8808 1142.89 L89.8808 1138.37 Q91.8252 1139.51 94.14 1140.08 Q96.4548 1140.66 98.978 1140.66 Q103.376 1140.66 105.668 1138.93 Q107.983 1137.19 107.983 1133.88 Q107.983 1130.83 105.83 1129.11 Q103.7 1127.38 99.8808 1127.38 L95.853 1127.38 L95.853 1123.53 L100.066 1123.53 Q103.515 1123.53 105.344 1122.17 Q107.172 1120.78 107.172 1118.19 Q107.172 1115.52 105.274 1114.11 Q103.399 1112.68 99.8808 1112.68 Q97.9595 1112.68 95.7604 1113.09 Q93.5613 1113.51 90.9225 1114.39 L90.9225 1110.22 Q93.5845 1109.48 95.8993 1109.11 Q98.2372 1108.74 100.297 1108.74 Q105.621 1108.74 108.723 1111.17 Q111.825 1113.58 111.825 1117.7 Q111.825 1120.57 110.182 1122.56 Q108.538 1124.53 105.506 1125.29 Z" fill="#000000" fill-rule="evenodd" fill-opacity="1" /><path clip-path="url(#clip860)" d="M131.501 1127.51 Q128.168 1127.51 126.246 1129.3 Q124.348 1131.08 124.348 1134.2 Q124.348 1137.33 126.246 1139.11 Q128.168 1140.89 131.501 1140.89 Q134.834 1140.89 136.756 1139.11 Q138.677 1137.31 138.677 1134.2 Q138.677 1131.08 136.756 1129.3 Q134.857 1127.51 131.501 1127.51 M126.825 1125.52 Q123.816 1124.78 122.126 1122.72 Q120.459 1120.66 120.459 1117.7 Q120.459 1113.56 123.399 1111.15 Q126.362 1108.74 131.501 1108.74 Q136.663 1108.74 139.603 1111.15 Q142.543 1113.56 142.543 1117.7 Q142.543 1120.66 140.853 1122.72 Q139.186 1124.78 136.2 1125.52 Q139.58 1126.31 141.455 1128.6 Q143.353 1130.89 143.353 1134.2 Q143.353 1139.23 140.274 1141.91 Q137.219 1144.6 131.501 1144.6 Q125.783 1144.6 122.705 1141.91 Q119.649 1139.23 119.649 1134.2 Q119.649 1130.89 121.547 1128.6 Q123.445 1126.31 126.825 1125.52 M125.112 1118.14 Q125.112 1120.83 126.779 1122.33 Q128.469 1123.83 131.501 1123.83 Q134.51 1123.83 136.2 1122.33 Q137.913 1120.83 137.913 1118.14 Q137.913 1115.45 136.2 1113.95 Q134.51 1112.45 131.501 1112.45 Q128.469 1112.45 126.779 1113.95 Q125.112 1115.45 125.112 1118.14 Z" fill="#000000" fill-rule="evenodd" fill-opacity="1" /><path clip-path="url(#clip860)" d="M51.3162 767.297 L80.992 767.297 L80.992 771.233 L51.3162 771.233 L51.3162 767.297 Z" fill="#000000" fill-rule="evenodd" fill-opacity="1" /><path clip-path="url(#clip860)" d="M105.251 765.492 Q108.608 766.209 110.483 768.478 Q112.381 770.746 112.381 774.08 Q112.381 779.195 108.862 781.996 Q105.344 784.797 98.8622 784.797 Q96.6863 784.797 94.3715 784.357 Q92.0799 783.941 89.6262 783.084 L89.6262 778.57 Q91.5706 779.705 93.8854 780.283 Q96.2002 780.862 98.7234 780.862 Q103.121 780.862 105.413 779.126 Q107.728 777.39 107.728 774.08 Q107.728 771.024 105.575 769.311 Q103.446 767.575 99.6261 767.575 L95.5984 767.575 L95.5984 763.733 L99.8113 763.733 Q103.26 763.733 105.089 762.367 Q106.918 760.978 106.918 758.385 Q106.918 755.723 105.02 754.311 Q103.145 752.876 99.6261 752.876 Q97.7048 752.876 95.5058 753.293 Q93.3067 753.709 90.6678 754.589 L90.6678 750.422 Q93.3299 749.682 95.6447 749.311 Q97.9826 748.941 100.043 748.941 Q105.367 748.941 108.469 751.372 Q111.571 753.779 111.571 757.899 Q111.571 760.77 109.927 762.76 Q108.283 764.728 105.251 765.492 Z" fill="#000000" fill-rule="evenodd" fill-opacity="1" /><path clip-path="url(#clip860)" d="M131.825 764.983 Q128.677 764.983 126.825 767.135 Q124.996 769.288 124.996 773.038 Q124.996 776.765 126.825 778.941 Q128.677 781.094 131.825 781.094 Q134.973 781.094 136.802 778.941 Q138.654 776.765 138.654 773.038 Q138.654 769.288 136.802 767.135 Q134.973 764.983 131.825 764.983 M141.107 750.33 L141.107 754.589 Q139.348 753.756 137.543 753.316 Q135.76 752.876 134.001 752.876 Q129.371 752.876 126.918 756.001 Q124.487 759.126 124.14 765.446 Q125.506 763.432 127.566 762.367 Q129.626 761.279 132.103 761.279 Q137.311 761.279 140.32 764.45 Q143.353 767.598 143.353 773.038 Q143.353 778.362 140.205 781.58 Q137.056 784.797 131.825 784.797 Q125.83 784.797 122.658 780.214 Q119.487 775.608 119.487 766.881 Q119.487 758.686 123.376 753.825 Q127.265 748.941 133.816 748.941 Q135.575 748.941 137.357 749.288 Q139.163 749.635 141.107 750.33 Z" fill="#000000" fill-rule="evenodd" fill-opacity="1" /><path clip-path="url(#clip860)" d="M50.9921 407.496 L80.6679 407.496 L80.6679 411.432 L50.9921 411.432 L50.9921 407.496 Z" fill="#000000" fill-rule="evenodd" fill-opacity="1" /><path clip-path="url(#clip860)" d="M104.927 405.691 Q108.283 406.408 110.158 408.677 Q112.057 410.945 112.057 414.279 Q112.057 419.395 108.538 422.195 Q105.02 424.996 98.5382 424.996 Q96.3623 424.996 94.0475 424.557 Q91.7558 424.14 89.3021 423.283 L89.3021 418.77 Q91.2465 419.904 93.5613 420.482 Q95.8761 421.061 98.3993 421.061 Q102.797 421.061 105.089 419.325 Q107.404 417.589 107.404 414.279 Q107.404 411.223 105.251 409.51 Q103.121 407.774 99.3021 407.774 L95.2743 407.774 L95.2743 403.932 L99.4872 403.932 Q102.936 403.932 104.765 402.566 Q106.594 401.177 106.594 398.584 Q106.594 395.922 104.696 394.51 Q102.821 393.075 99.3021 393.075 Q97.3808 393.075 95.1817 393.492 Q92.9826 393.909 90.3438 394.788 L90.3438 390.622 Q93.0058 389.881 95.3206 389.51 Q97.6585 389.14 99.7187 389.14 Q105.043 389.14 108.145 391.571 Q111.246 393.978 111.246 398.098 Q111.246 400.969 109.603 402.959 Q107.959 404.927 104.927 405.691 Z" fill="#000000" fill-rule="evenodd" fill-opacity="1" /><path clip-path="url(#clip860)" d="M133.769 393.839 L121.964 412.288 L133.769 412.288 L133.769 393.839 M132.543 389.765 L138.422 389.765 L138.422 412.288 L143.353 412.288 L143.353 416.177 L138.422 416.177 L138.422 424.325 L133.769 424.325 L133.769 416.177 L118.168 416.177 L118.168 411.663 L132.543 389.765 Z" fill="#000000" fill-rule="evenodd" fill-opacity="1" /><path clip-path="url(#clip860)" d="M53.0754 47.6955 L82.7512 47.6955 L82.7512 51.6306 L53.0754 51.6306 L53.0754 47.6955 Z" fill="#000000" fill-rule="evenodd" fill-opacity="1" /><path clip-path="url(#clip860)" d="M107.01 45.8899 Q110.367 46.6075 112.242 48.876 Q114.14 51.1445 114.14 54.4779 Q114.14 59.5936 110.621 62.3945 Q107.103 65.1954 100.621 65.1954 Q98.4456 65.1954 96.1308 64.7556 Q93.8391 64.3389 91.3854 63.4824 L91.3854 58.9686 Q93.3299 60.1028 95.6447 60.6815 Q97.9595 61.2602 100.483 61.2602 Q104.881 61.2602 107.172 59.5241 Q109.487 57.788 109.487 54.4779 Q109.487 51.4223 107.334 49.7094 Q105.205 47.9733 101.385 47.9733 L97.3576 47.9733 L97.3576 44.1307 L101.571 44.1307 Q105.02 44.1307 106.848 42.765 Q108.677 41.3761 108.677 38.7835 Q108.677 36.1215 106.779 34.7094 Q104.904 33.2743 101.385 33.2743 Q99.4641 33.2743 97.265 33.6909 Q95.066 34.1076 92.4271 34.9872 L92.4271 30.8206 Q95.0891 30.0798 97.4039 29.7095 Q99.7419 29.3391 101.802 29.3391 Q107.126 29.3391 110.228 31.7696 Q113.33 34.177 113.33 38.2974 Q113.33 41.1677 111.686 43.1585 Q110.043 45.1261 107.01 45.8899 Z" fill="#000000" fill-rule="evenodd" fill-opacity="1" /><path clip-path="url(#clip860)" d="M127.033 60.5889 L143.353 60.5889 L143.353 64.5241 L121.408 64.5241 L121.408 60.5889 Q124.07 57.8343 128.654 53.2047 Q133.26 48.552 134.441 47.2094 Q136.686 44.6862 137.566 42.9501 Q138.469 41.1909 138.469 39.5011 Q138.469 36.7465 136.524 35.0104 Q134.603 33.2743 131.501 33.2743 Q129.302 33.2743 126.848 34.0381 Q124.418 34.802 121.64 36.3529 L121.64 31.6308 Q124.464 30.4965 126.918 29.9178 Q129.371 29.3391 131.408 29.3391 Q136.779 29.3391 139.973 32.0243 Q143.168 34.7094 143.168 39.2002 Q143.168 41.3298 142.357 43.2511 Q141.57 45.1492 139.464 47.7418 Q138.885 48.4131 135.783 51.6306 Q132.682 54.8251 127.033 60.5889 Z" fill="#000000" fill-rule="evenodd" fill-opacity="1" /><polyline clip-path="url(#clip862)" style="stroke:#009af9; stroke-linecap:butt; stroke-linejoin:round; stroke-width:8; stroke-opacity:1; fill:none" points="
  240.864,26629.5 244.973,2237.95 249.082,2024.82 253.191,1900.47 257.3,1812.84 261.409,1743.99 265.518,1688.4 269.627,1641.02 273.736,1600.46 277.845,1564.19 
  281.954,1531.91 286.063,1502.81 290.172,1476.32 294.281,1451.87 298.39,1429.15 302.499,1408.03 306.608,1388.27 310.717,1369.68 314.826,1352.24 318.935,1335.69 
  323.044,1319.99 327.153,1305.1 331.262,1290.92 335.371,1277.33 339.48,1264.31 343.589,1251.84 347.698,1239.83 351.807,1228.25 355.916,1217.16 360.025,1206.42 
  364.134,1196.03 368.242,1186.03 372.351,1176.36 376.46,1166.94 380.569,1157.79 384.678,1148.91 388.787,1140.28 392.896,1131.95 397.005,1123.79 401.114,1115.83 
  405.223,1108.09 409.332,1100.56 413.441,1093.19 417.55,1085.98 421.659,1078.93 425.768,1072.09 429.877,1065.36 433.986,1058.79 438.095,1052.35 442.204,1046.05 
  446.313,1039.85 450.422,1033.8 454.531,1027.89 458.64,1022.05 462.749,1016.32 466.858,1010.72 470.967,1005.21 475.076,999.791 479.185,994.475 483.294,989.251 
  487.403,984.103 491.512,979.052 495.621,974.073 499.73,969.137 503.839,964.359 507.948,959.624 512.057,954.955 516.166,950.374 520.275,945.829 524.384,941.382 
  528.493,936.991 532.602,932.629 536.711,928.376 540.82,924.158 544.929,920 549.038,915.888 553.147,911.824 557.256,907.852 561.364,903.912 565.473,900.008 
  569.582,896.177 573.691,892.367 577.8,888.611 581.909,884.908 586.018,881.226 590.127,877.624 594.236,874.055 598.345,870.531 602.454,867.035 606.563,863.569 
  610.672,860.161 614.781,856.788 618.89,853.447 622.999,850.131 627.108,846.861 631.217,843.624 635.326,840.424 639.435,837.255 643.544,834.098 647.653,831.007 
  651.762,827.938 655.871,824.91 659.98,821.891 664.089,818.922 668.198,815.966 672.307,813.038 676.416,810.143 680.525,807.257 684.634,804.42 688.743,801.603 
  692.852,798.821 696.961,796.048 701.07,793.316 705.179,790.589 709.288,787.892 713.397,785.216 717.506,782.573 721.615,779.945 725.724,777.344 729.833,774.762 
  733.942,772.206 738.051,769.669 742.16,767.152 746.269,764.654 750.378,762.16 754.486,759.706 758.595,757.279 762.704,754.866 766.813,752.468 770.922,750.092 
  775.031,747.742 779.14,745.403 783.249,743.067 787.358,740.764 791.467,738.483 795.576,736.213 799.685,733.951 803.794,731.715 807.903,729.486 812.012,727.282 
  816.121,725.09 820.23,722.914 824.339,720.739 828.448,718.596 832.557,716.47 836.666,714.355 840.775,712.254 844.884,710.167 848.993,708.105 853.102,706.045 
  857.211,703.996 861.32,701.963 865.429,699.956 869.538,697.949 873.647,695.953 877.756,693.969 881.865,692.006 885.974,690.046 890.083,688.107 894.192,686.171 
  898.301,684.259 902.41,682.354 906.519,680.464 910.628,678.576 914.737,676.708 918.846,674.849 922.955,673.002 927.064,671.165 931.173,669.338 935.282,667.529 
  939.391,665.722 943.5,663.934 947.608,662.146 951.717,660.378 955.826,658.61 959.935,656.861 964.044,655.115 968.153,653.378 972.262,651.644 976.371,649.93 
  980.48,648.232 984.589,646.535 988.698,644.856 992.807,643.184 996.916,641.521 1001.03,639.864 1005.13,638.217 1009.24,636.578 1013.35,634.946 1017.46,633.331 
  1021.57,631.714 1025.68,630.115 1029.79,628.523 1033.9,626.938 1038.01,625.359 1042.11,623.788 1046.22,622.214 1050.33,620.657 1054.44,619.115 1058.55,617.572 
  1062.66,616.043 1066.77,614.524 1070.88,613.008 1074.99,611.501 1079.1,609.998 1083.2,608.501 1087.31,607.01 1091.42,605.533 1095.53,604.059 1099.64,602.595 
  1103.75,601.129 1107.86,599.676 1111.97,598.236 1116.08,596.794 1120.19,595.366 1124.29,593.937 1128.4,592.52 1132.51,591.108 1136.62,589.701 1140.73,588.292 
  1144.84,586.896 1148.95,585.512 1153.06,584.131 1157.17,582.757 1161.28,581.396 1165.38,580.032 1169.49,578.68 1173.6,577.327 1177.71,575.985 1181.82,574.647 
  1185.93,573.314 1190.04,571.99 1194.15,570.666 1198.26,569.354 1202.37,568.052 1206.47,566.749 1210.58,565.452 1214.69,564.156 1218.8,562.871 1222.91,561.584 
  1227.02,560.308 1231.13,559.036 1235.24,557.768 1239.35,556.51 1243.45,555.263 1247.56,554.013 1251.67,552.766 1255.78,551.524 1259.89,550.289 1264,549.055 
  1268.11,547.83 1272.22,546.606 1276.33,545.389 1280.44,544.181 1284.54,542.975 1288.65,541.774 1292.76,540.573 1296.87,539.379 1300.98,538.195 1305.09,537.011 
  1309.2,535.833 1313.31,534.653 1317.42,533.483 1321.53,532.321 1325.63,531.163 1329.74,530.007 1333.85,528.857 1337.96,527.708 1342.07,526.567 1346.18,525.43 
  1350.29,524.295 1354.4,523.161 1358.51,522.032 1362.62,520.912 1366.72,519.795 1370.83,518.681 1374.94,517.574 1379.05,516.465 1383.16,515.364 1387.27,514.267 
  1391.38,513.172 1395.49,512.084 1399.6,510.996 1403.71,509.914 1407.81,508.835 1411.92,507.758 1416.03,506.689 1420.14,505.627 1424.25,504.563 1428.36,503.502 
  1432.47,502.443 1436.58,501.391 1440.69,500.347 1444.79,499.302 1448.9,498.259 1453.01,497.217 1457.12,496.182 1461.23,495.155 1465.34,494.128 1469.45,493.105 
  1473.56,492.079 1477.67,491.06 1481.78,490.049 1485.88,489.039 1489.99,488.031 1494.1,487.026 1498.21,486.023 1502.32,485.026 1506.43,484.028 1510.54,483.035 
  1514.65,482.04 1518.76,481.052 1522.87,480.071 1526.97,479.093 1531.08,478.115 1535.19,477.144 1539.3,476.179 1543.41,475.213 1547.52,474.251 1551.63,473.288 
  1555.74,472.33 1559.85,471.379 1563.96,470.432 1568.06,469.484 1572.17,468.542 1576.28,467.599 1580.39,466.66 1584.5,465.728 1588.61,464.793 1592.72,463.864 
  1596.83,462.935 1600.94,462.009 1605.05,461.09 1609.15,460.169 1613.26,459.253 1617.37,458.34 1621.48,457.427 1625.59,456.519 1629.7,455.613 1633.81,454.709 
  1637.92,453.81 1642.03,452.916 1646.13,452.021 1650.24,451.128 1654.35,450.235 1658.46,449.348 1662.57,448.466 1666.68,447.586 1670.79,446.707 1674.9,445.833 
  1679.01,444.958 1683.12,444.087 1687.22,443.22 1691.33,442.352 1695.44,441.489 1699.55,440.626 1703.66,439.766 1707.77,438.91 1711.88,438.054 1715.99,437.198 
  1720.1,436.343 1724.21,435.493 1728.31,434.648 1732.42,433.804 1736.53,432.961 1740.64,432.123 1744.75,431.29 1748.86,430.458 1752.97,429.627 1757.08,428.795 
  1761.19,427.966 1765.3,427.143 1769.4,426.323 1773.51,425.502 1777.62,424.685 1781.73,423.872 1785.84,423.057 1789.95,422.247 1794.06,421.437 1798.17,420.629 
  1802.28,419.826 1806.39,419.023 1810.49,418.222 1814.6,417.423 1818.71,416.625 1822.82,415.83 1826.93,415.035 1831.04,414.243 1835.15,413.455 1839.26,412.665 
  1843.37,411.879 1847.47,411.097 1851.58,410.319 1855.69,409.54 1859.8,408.764 1863.91,407.989 1868.02,407.215 1872.13,406.445 1876.24,405.677 1880.35,404.909 
  1884.46,404.141 1888.56,403.375 1892.67,402.613 1896.78,401.855 1900.89,401.096 1905,400.34 1909.11,399.587 1913.22,398.838 1917.33,398.089 1921.44,397.34 
  1925.55,396.591 1929.65,395.846 1933.76,395.105 1937.87,394.366 1941.98,393.626 1946.09,392.887 1950.2,392.149 1954.31,391.415 1958.42,390.685 1962.53,389.954 
  1966.64,389.225 1970.74,388.499 1974.85,387.773 1978.96,387.05 1983.07,386.328 1987.18,385.606 1991.29,384.884 1995.4,384.163 1999.51,383.446 2003.62,382.733 
  2007.72,382.019 2011.83,381.307 2015.94,380.599 2020.05,379.893 2024.16,379.189 2028.27,378.486 2032.38,377.785 2036.49,377.083 2040.6,376.384 2044.71,375.688 
  2048.81,374.992 2052.92,374.297 2057.03,373.606 2061.14,372.918 2065.25,372.231 2069.36,371.543 2073.47,370.855 2077.58,370.17 2081.69,369.488 2085.8,368.809 
  2089.9,368.128 2094.01,367.45 2098.12,366.77 2102.23,366.094 2106.34,365.421 2110.45,364.75 2114.56,364.078 2118.67,363.409 2122.78,362.741 2126.89,362.073 
  2130.99,361.408 2135.1,360.744 2139.21,360.08 2143.32,359.42 2147.43,358.762 2151.54,358.105 2155.65,357.448 2159.76,356.79 2163.87,356.135 2167.98,355.483 
  2172.08,354.833 2176.19,354.184 2180.3,353.536 2184.41,352.89 2188.52,352.247 2192.63,351.606 2196.74,350.965 2200.85,350.322 2204.96,349.681 2209.06,349.044 
  2213.17,348.406 2217.28,347.77 2221.39,347.135 2225.5,346.499 2229.61,345.866 2233.72,345.236 2237.83,344.608 2241.94,343.979 2246.05,343.35 2250.15,342.722 
  2254.26,342.097 2258.37,341.474 2262.48,340.853 2266.59,340.231 2270.7,339.612 2274.81,338.994 2278.92,338.376 2283.03,337.76 2287.14,337.145 2291.24,336.53 
  
  "/>
<polyline clip-path="url(#clip862)" style="stroke:#e26f46; stroke-linecap:butt; stroke-linejoin:round; stroke-width:8; stroke-opacity:1; fill:none" points="
  240.864,4771.96 244.973,2235.67 249.082,2023.81 253.191,1899.86 257.3,1811.92 261.409,1743.71 265.518,1687.97 269.627,1640.85 273.736,1600.03 277.845,1564.02 
  281.954,1531.81 286.063,1502.67 290.172,1476.07 294.281,1451.6 298.39,1428.95 302.499,1407.86 306.608,1388.13 310.717,1369.59 314.826,1352.12 318.935,1335.59 
  323.044,1319.91 327.153,1304.99 331.262,1290.77 335.371,1277.18 339.48,1264.17 343.589,1251.69 347.698,1239.7 351.807,1228.16 355.916,1217.05 360.025,1206.32 
  364.134,1195.95 368.242,1185.93 372.351,1176.22 376.46,1166.82 380.569,1157.69 384.678,1148.83 388.787,1140.22 392.896,1131.84 397.005,1123.69 401.114,1115.75 
  405.223,1108.01 409.332,1100.46 413.441,1093.09 417.55,1085.9 421.659,1078.87 425.768,1072 429.877,1065.28 433.986,1058.71 438.095,1052.27 442.204,1045.97 
  446.313,1039.79 450.422,1033.74 454.531,1027.8 458.64,1021.98 462.749,1016.26 466.858,1010.65 470.967,1005.14 475.076,999.732 479.185,994.415 483.294,989.19 
  487.403,984.051 491.512,978.998 495.621,974.027 499.73,969.136 503.839,964.321 507.948,959.581 512.057,954.914 516.166,950.317 520.275,945.788 524.384,941.324 
  528.493,936.926 532.602,932.589 536.711,928.313 540.82,924.097 544.929,919.937 549.038,915.834 553.147,911.784 557.256,907.788 561.364,903.843 565.473,899.949 
  569.582,896.103 573.691,892.306 577.8,888.555 581.909,884.849 586.018,881.188 590.127,877.57 594.236,873.994 598.345,870.46 602.454,866.966 606.563,863.512 
  610.672,860.096 614.781,856.718 618.89,853.377 622.999,850.072 627.108,846.802 631.217,843.567 635.326,840.366 639.435,837.198 643.544,834.062 647.653,830.958 
  651.762,827.886 655.871,824.844 659.98,821.832 664.089,818.849 668.198,815.895 672.307,812.97 676.416,810.072 680.525,807.202 684.634,804.358 688.743,801.54 
  692.852,798.748 696.961,795.982 701.07,793.24 705.179,790.522 709.288,787.829 713.397,785.159 717.506,782.512 721.615,779.888 725.724,777.286 729.833,774.706 
  733.942,772.148 738.051,769.611 742.16,767.095 746.269,764.599 750.378,762.124 754.486,759.668 758.595,757.232 762.704,754.815 766.813,752.418 770.922,750.038 
  775.031,747.678 779.14,745.335 783.249,743.01 787.358,740.703 791.467,738.413 795.576,736.14 799.685,733.884 803.794,731.644 807.903,729.421 812.012,727.213 
  816.121,725.022 820.23,722.846 824.339,720.686 828.448,718.54 832.557,716.41 836.666,714.294 840.775,712.193 844.884,710.106 848.993,708.034 853.102,705.975 
  857.211,703.93 861.32,701.899 865.429,699.881 869.538,697.876 873.647,695.884 877.756,693.906 881.865,691.94 885.974,689.986 890.083,688.045 894.192,686.116 
  898.301,684.2 902.41,682.295 906.519,680.402 910.628,678.521 914.737,676.651 918.846,674.792 922.955,672.945 927.064,671.109 931.173,669.284 935.282,667.47 
  939.391,665.666 943.5,663.873 947.608,662.09 951.717,660.318 955.826,658.556 959.935,656.804 964.044,655.062 968.153,653.33 972.262,651.608 976.371,649.895 
  980.48,648.192 984.589,646.498 988.698,644.814 992.807,643.139 996.916,641.473 1001.03,639.816 1005.13,638.168 1009.24,636.528 1013.35,634.898 1017.46,633.276 
  1021.57,631.663 1025.68,630.058 1029.79,628.462 1033.9,626.874 1038.01,625.294 1042.11,623.722 1046.22,622.158 1050.33,620.602 1054.44,619.054 1058.55,617.514 
  1062.66,615.982 1066.77,614.457 1070.88,612.94 1074.99,611.43 1079.1,609.928 1083.2,608.433 1087.31,606.945 1091.42,605.465 1095.53,603.992 1099.64,602.525 
  1103.75,601.066 1107.86,599.614 1111.97,598.168 1116.08,596.73 1120.19,595.298 1124.29,593.873 1128.4,592.454 1132.51,591.042 1136.62,589.636 1140.73,588.237 
  1144.84,586.844 1148.95,585.458 1153.06,584.078 1157.17,582.704 1161.28,581.336 1165.38,579.974 1169.49,578.618 1173.6,577.269 1177.71,575.925 1181.82,574.587 
  1185.93,573.255 1190.04,571.929 1194.15,570.608 1198.26,569.293 1202.37,567.984 1206.47,566.68 1210.58,565.382 1214.69,564.089 1218.8,562.802 1222.91,561.52 
  1227.02,560.244 1231.13,558.973 1235.24,557.707 1239.35,556.446 1243.45,555.191 1247.56,553.94 1251.67,552.695 1255.78,551.455 1259.89,550.22 1264,548.989 
  1268.11,547.764 1272.22,546.544 1276.33,545.328 1280.44,544.117 1284.54,542.911 1288.65,541.71 1292.76,540.514 1296.87,539.322 1300.98,538.134 1305.09,536.952 
  1309.2,535.774 1313.31,534.6 1317.42,533.431 1321.53,532.266 1325.63,531.106 1329.74,529.95 1333.85,528.799 1337.96,527.652 1342.07,526.509 1346.18,525.37 
  1350.29,524.236 1354.4,523.106 1358.51,521.98 1362.62,520.858 1366.72,519.74 1370.83,518.626 1374.94,517.517 1379.05,516.411 1383.16,515.309 1387.27,514.212 
  1391.38,513.118 1395.49,512.028 1399.6,510.942 1403.71,509.86 1407.81,508.782 1411.92,507.707 1416.03,506.636 1420.14,505.569 1424.25,504.506 1428.36,503.446 
  1432.47,502.39 1436.58,501.338 1440.69,500.289 1444.79,499.244 1448.9,498.202 1453.01,497.164 1457.12,496.13 1461.23,495.098 1465.34,494.071 1469.45,493.047 
  1473.56,492.026 1477.67,491.009 1481.78,489.995 1485.88,488.984 1489.99,487.977 1494.1,486.973 1498.21,485.972 1502.32,484.975 1506.43,483.98 1510.54,482.989 
  1514.65,482.002 1518.76,481.017 1522.87,480.036 1526.97,479.057 1531.08,478.082 1535.19,477.11 1539.3,476.141 1543.41,475.175 1547.52,474.212 1551.63,473.253 
  1555.74,472.296 1559.85,471.342 1563.96,470.391 1568.06,469.443 1572.17,468.498 1576.28,467.556 1580.39,466.617 1584.5,465.68 1588.61,464.747 1592.72,463.816 
  1596.83,462.888 1600.94,461.963 1605.05,461.041 1609.15,460.122 1613.26,459.205 1617.37,458.291 1621.48,457.38 1625.59,456.471 1629.7,455.566 1633.81,454.662 
  1637.92,453.762 1642.03,452.864 1646.13,451.969 1650.24,451.076 1654.35,450.186 1658.46,449.299 1662.57,448.414 1666.68,447.532 1670.79,446.652 1674.9,445.775 
  1679.01,444.9 1683.12,444.028 1687.22,443.158 1691.33,442.291 1695.44,441.426 1699.55,440.564 1703.66,439.704 1707.77,438.846 1711.88,437.991 1715.99,437.138 
  1720.1,436.288 1724.21,435.44 1728.31,434.594 1732.42,433.751 1736.53,432.91 1740.64,432.071 1744.75,431.235 1748.86,430.401 1752.97,429.569 1757.08,428.739 
  1761.19,427.912 1765.3,427.087 1769.4,426.264 1773.51,425.443 1777.62,424.624 1781.73,423.808 1785.84,422.994 1789.95,422.182 1794.06,421.372 1798.17,420.564 
  1802.28,419.759 1806.39,418.955 1810.49,418.154 1814.6,417.355 1818.71,416.558 1822.82,415.763 1826.93,414.97 1831.04,414.179 1835.15,413.39 1839.26,412.603 
  1843.37,411.818 1847.47,411.035 1851.58,410.254 1855.69,409.475 1859.8,408.698 1863.91,407.923 1868.02,407.15 1872.13,406.379 1876.24,405.61 1880.35,404.843 
  1884.46,404.078 1888.56,403.314 1892.67,402.553 1896.78,401.794 1900.89,401.036 1905,400.28 1909.11,399.526 1913.22,398.774 1917.33,398.024 1921.44,397.276 
  1925.55,396.529 1929.65,395.784 1933.76,395.041 1937.87,394.3 1941.98,393.561 1946.09,392.823 1950.2,392.088 1954.31,391.354 1958.42,390.621 1962.53,389.891 
  1966.64,389.162 1970.74,388.435 1974.85,387.71 1978.96,386.986 1983.07,386.264 1987.18,385.544 1991.29,384.826 1995.4,384.109 1999.51,383.394 2003.62,382.68 
  2007.72,381.968 2011.83,381.258 2015.94,380.55 2020.05,379.843 2024.16,379.138 2028.27,378.434 2032.38,377.732 2036.49,377.032 2040.6,376.333 2044.71,375.636 
  2048.81,374.94 2052.92,374.246 2057.03,373.554 2061.14,372.863 2065.25,372.174 2069.36,371.486 2073.47,370.8 2077.58,370.115 2081.69,369.432 2085.8,368.75 
  2089.9,368.07 2094.01,367.391 2098.12,366.714 2102.23,366.039 2106.34,365.365 2110.45,364.692 2114.56,364.021 2118.67,363.351 2122.78,362.683 2126.89,362.016 
  2130.99,361.351 2135.1,360.687 2139.21,360.024 2143.32,359.363 2147.43,358.704 2151.54,358.046 2155.65,357.389 2159.76,356.734 2163.87,356.08 2167.98,355.427 
  2172.08,354.776 2176.19,354.126 2180.3,353.478 2184.41,352.831 2188.52,352.185 2192.63,351.541 2196.74,350.898 2200.85,350.256 2204.96,349.616 2209.06,348.977 
  2213.17,348.34 2217.28,347.703 2221.39,347.069 2225.5,346.435 2229.61,345.803 2233.72,345.172 2237.83,344.542 2241.94,343.914 2246.05,343.287 2250.15,342.661 
  2254.26,342.036 2258.37,341.413 2262.48,340.791 2266.59,340.17 2270.7,339.551 2274.81,338.932 2278.92,338.315 2283.03,337.7 2287.14,337.085 2291.24,336.472 
  
  "/>
<path clip-path="url(#clip860)" d="
M1783.03 250.738 L2280.31 250.738 L2280.31 95.2176 L1783.03 95.2176  Z
  " fill="#ffffff" fill-rule="evenodd" fill-opacity="1"/>
<polyline clip-path="url(#clip860)" style="stroke:#000000; stroke-linecap:butt; stroke-linejoin:round; stroke-width:4; stroke-opacity:1; fill:none" points="
  1783.03,250.738 2280.31,250.738 2280.31,95.2176 1783.03,95.2176 1783.03,250.738 
  "/>
<polyline clip-path="url(#clip860)" style="stroke:#009af9; stroke-linecap:butt; stroke-linejoin:round; stroke-width:4; stroke-opacity:1; fill:none" points="
  1807.18,147.058 1952.08,147.058 
  "/>
<path clip-path="url(#clip860)" d="M1995.14 142.347 L1995.14 128.319 L1999.4 128.319 L1999.4 164.338 L1995.14 164.338 L1995.14 160.449 Q1993.79 162.763 1991.73 163.898 Q1989.7 165.009 1986.83 165.009 Q1982.13 165.009 1979.17 161.259 Q1976.23 157.509 1976.23 151.398 Q1976.23 145.287 1979.17 141.537 Q1982.13 137.787 1986.83 137.787 Q1989.7 137.787 1991.73 138.921 Q1993.79 140.032 1995.14 142.347 M1980.62 151.398 Q1980.62 156.097 1982.55 158.782 Q1984.49 161.444 1987.87 161.444 Q1991.25 161.444 1993.19 158.782 Q1995.14 156.097 1995.14 151.398 Q1995.14 146.699 1993.19 144.037 Q1991.25 141.352 1987.87 141.352 Q1984.49 141.352 1982.55 144.037 Q1980.62 146.699 1980.62 151.398 Z" fill="#000000" fill-rule="evenodd" fill-opacity="1" /><path clip-path="url(#clip860)" d="M2008.17 138.412 L2012.43 138.412 L2012.43 164.338 L2008.17 164.338 L2008.17 138.412 M2008.17 128.319 L2012.43 128.319 L2012.43 133.713 L2008.17 133.713 L2008.17 128.319 Z" fill="#000000" fill-rule="evenodd" fill-opacity="1" /><path clip-path="url(#clip860)" d="M2037.87 139.176 L2037.87 143.203 Q2036.06 142.277 2034.12 141.815 Q2032.17 141.352 2030.09 141.352 Q2026.92 141.352 2025.32 142.324 Q2023.75 143.296 2023.75 145.24 Q2023.75 146.722 2024.88 147.578 Q2026.02 148.412 2029.44 149.176 L2030.9 149.5 Q2035.44 150.472 2037.34 152.254 Q2039.26 154.014 2039.26 157.185 Q2039.26 160.796 2036.39 162.902 Q2033.54 165.009 2028.54 165.009 Q2026.46 165.009 2024.19 164.592 Q2021.94 164.199 2019.44 163.388 L2019.44 158.99 Q2021.8 160.217 2024.1 160.842 Q2026.39 161.444 2028.63 161.444 Q2031.64 161.444 2033.26 160.426 Q2034.88 159.384 2034.88 157.509 Q2034.88 155.773 2033.7 154.847 Q2032.54 153.921 2028.59 153.064 L2027.1 152.717 Q2023.15 151.884 2021.39 150.171 Q2019.63 148.435 2019.63 145.426 Q2019.63 141.768 2022.22 139.778 Q2024.81 137.787 2029.58 137.787 Q2031.94 137.787 2034.03 138.134 Q2036.11 138.481 2037.87 139.176 Z" fill="#000000" fill-rule="evenodd" fill-opacity="1" /><path clip-path="url(#clip860)" d="M2064.7 139.407 L2064.7 143.389 Q2062.89 142.393 2061.06 141.907 Q2059.26 141.398 2057.41 141.398 Q2053.26 141.398 2050.97 144.037 Q2048.68 146.652 2048.68 151.398 Q2048.68 156.143 2050.97 158.782 Q2053.26 161.398 2057.41 161.398 Q2059.26 161.398 2061.06 160.912 Q2062.89 160.402 2064.7 159.407 L2064.7 163.342 Q2062.91 164.176 2060.99 164.592 Q2059.1 165.009 2056.94 165.009 Q2051.09 165.009 2047.64 161.328 Q2044.19 157.648 2044.19 151.398 Q2044.19 145.055 2047.66 141.421 Q2051.16 137.787 2057.22 137.787 Q2059.19 137.787 2061.06 138.203 Q2062.94 138.597 2064.7 139.407 Z" fill="#000000" fill-rule="evenodd" fill-opacity="1" /><path clip-path="url(#clip860)" d="M2087.13 142.393 Q2086.41 141.977 2085.55 141.791 Q2084.72 141.583 2083.7 141.583 Q2080.09 141.583 2078.15 143.944 Q2076.23 146.282 2076.23 150.68 L2076.23 164.338 L2071.94 164.338 L2071.94 138.412 L2076.23 138.412 L2076.23 142.44 Q2077.57 140.078 2079.72 138.944 Q2081.87 137.787 2084.95 137.787 Q2085.39 137.787 2085.92 137.856 Q2086.46 137.903 2087.1 138.018 L2087.13 142.393 Z" fill="#000000" fill-rule="evenodd" fill-opacity="1" /><path clip-path="url(#clip860)" d="M2112.73 150.31 L2112.73 152.393 L2093.15 152.393 Q2093.42 156.791 2095.79 159.106 Q2098.17 161.398 2102.41 161.398 Q2104.86 161.398 2107.15 160.796 Q2109.47 160.194 2111.73 158.99 L2111.73 163.018 Q2109.44 163.99 2107.04 164.5 Q2104.63 165.009 2102.15 165.009 Q2095.95 165.009 2092.31 161.398 Q2088.7 157.787 2088.7 151.629 Q2088.7 145.264 2092.13 141.537 Q2095.58 137.787 2101.41 137.787 Q2106.64 137.787 2109.67 141.166 Q2112.73 144.523 2112.73 150.31 M2108.47 149.06 Q2108.42 145.565 2106.5 143.481 Q2104.6 141.398 2101.46 141.398 Q2097.89 141.398 2095.74 143.412 Q2093.61 145.426 2093.29 149.083 L2108.47 149.06 Z" fill="#000000" fill-rule="evenodd" fill-opacity="1" /><path clip-path="url(#clip860)" d="M2123.93 131.051 L2123.93 138.412 L2132.71 138.412 L2132.71 141.722 L2123.93 141.722 L2123.93 155.796 Q2123.93 158.967 2124.79 159.87 Q2125.67 160.773 2128.33 160.773 L2132.71 160.773 L2132.71 164.338 L2128.33 164.338 Q2123.4 164.338 2121.53 162.509 Q2119.65 160.657 2119.65 155.796 L2119.65 141.722 L2116.53 141.722 L2116.53 138.412 L2119.65 138.412 L2119.65 131.051 L2123.93 131.051 Z" fill="#000000" fill-rule="evenodd" fill-opacity="1" /><path clip-path="url(#clip860)" d="M2160.48 150.31 L2160.48 152.393 L2140.9 152.393 Q2141.18 156.791 2143.54 159.106 Q2145.92 161.398 2150.16 161.398 Q2152.61 161.398 2154.91 160.796 Q2157.22 160.194 2159.49 158.99 L2159.49 163.018 Q2157.2 163.99 2154.79 164.5 Q2152.38 165.009 2149.91 165.009 Q2143.7 165.009 2140.07 161.398 Q2136.46 157.787 2136.46 151.629 Q2136.46 145.264 2139.88 141.537 Q2143.33 137.787 2149.16 137.787 Q2154.4 137.787 2157.43 141.166 Q2160.48 144.523 2160.48 150.31 M2156.22 149.06 Q2156.18 145.565 2154.26 143.481 Q2152.36 141.398 2149.21 141.398 Q2145.65 141.398 2143.49 143.412 Q2141.36 145.426 2141.04 149.083 L2156.22 149.06 Z" fill="#000000" fill-rule="evenodd" fill-opacity="1" /><polyline clip-path="url(#clip860)" style="stroke:#e26f46; stroke-linecap:butt; stroke-linejoin:round; stroke-width:4; stroke-opacity:1; fill:none" points="
  1807.18,198.898 1952.08,198.898 
  "/>
<path clip-path="url(#clip860)" d="M1996.73 191.247 L1996.73 195.229 Q1994.93 194.233 1993.1 193.747 Q1991.29 193.238 1989.44 193.238 Q1985.3 193.238 1983.01 195.877 Q1980.72 198.492 1980.72 203.238 Q1980.72 207.983 1983.01 210.622 Q1985.3 213.238 1989.44 213.238 Q1991.29 213.238 1993.1 212.752 Q1994.93 212.242 1996.73 211.247 L1996.73 215.182 Q1994.95 216.016 1993.03 216.432 Q1991.13 216.849 1988.98 216.849 Q1983.12 216.849 1979.67 213.168 Q1976.23 209.488 1976.23 203.238 Q1976.23 196.895 1979.7 193.261 Q1983.19 189.627 1989.26 189.627 Q1991.23 189.627 1993.1 190.043 Q1994.98 190.437 1996.73 191.247 Z" fill="#000000" fill-rule="evenodd" fill-opacity="1" /><path clip-path="url(#clip860)" d="M2014.19 193.238 Q2010.76 193.238 2008.77 195.923 Q2006.78 198.585 2006.78 203.238 Q2006.78 207.891 2008.75 210.576 Q2010.74 213.238 2014.19 213.238 Q2017.59 213.238 2019.58 210.553 Q2021.57 207.867 2021.57 203.238 Q2021.57 198.631 2019.58 195.946 Q2017.59 193.238 2014.19 193.238 M2014.19 189.627 Q2019.74 189.627 2022.92 193.238 Q2026.09 196.849 2026.09 203.238 Q2026.09 209.604 2022.92 213.238 Q2019.74 216.849 2014.19 216.849 Q2008.61 216.849 2005.44 213.238 Q2002.29 209.604 2002.29 203.238 Q2002.29 196.849 2005.44 193.238 Q2008.61 189.627 2014.19 189.627 Z" fill="#000000" fill-rule="evenodd" fill-opacity="1" /><path clip-path="url(#clip860)" d="M2054.7 200.529 L2054.7 216.178 L2050.44 216.178 L2050.44 200.668 Q2050.44 196.988 2049 195.159 Q2047.57 193.33 2044.7 193.33 Q2041.25 193.33 2039.26 195.53 Q2037.27 197.729 2037.27 201.525 L2037.27 216.178 L2032.98 216.178 L2032.98 190.252 L2037.27 190.252 L2037.27 194.28 Q2038.79 191.942 2040.85 190.784 Q2042.94 189.627 2045.65 189.627 Q2050.11 189.627 2052.41 192.405 Q2054.7 195.159 2054.7 200.529 Z" fill="#000000" fill-rule="evenodd" fill-opacity="1" /><path clip-path="url(#clip860)" d="M2067.41 182.891 L2067.41 190.252 L2076.18 190.252 L2076.18 193.562 L2067.41 193.562 L2067.41 207.636 Q2067.41 210.807 2068.26 211.71 Q2069.14 212.613 2071.8 212.613 L2076.18 212.613 L2076.18 216.178 L2071.8 216.178 Q2066.87 216.178 2065 214.349 Q2063.12 212.497 2063.12 207.636 L2063.12 193.562 L2060 193.562 L2060 190.252 L2063.12 190.252 L2063.12 182.891 L2067.41 182.891 Z" fill="#000000" fill-rule="evenodd" fill-opacity="1" /><path clip-path="url(#clip860)" d="M2081.78 190.252 L2086.04 190.252 L2086.04 216.178 L2081.78 216.178 L2081.78 190.252 M2081.78 180.159 L2086.04 180.159 L2086.04 185.553 L2081.78 185.553 L2081.78 180.159 Z" fill="#000000" fill-rule="evenodd" fill-opacity="1" /><path clip-path="url(#clip860)" d="M2116.5 200.529 L2116.5 216.178 L2112.24 216.178 L2112.24 200.668 Q2112.24 196.988 2110.81 195.159 Q2109.37 193.33 2106.5 193.33 Q2103.05 193.33 2101.06 195.53 Q2099.07 197.729 2099.07 201.525 L2099.07 216.178 L2094.79 216.178 L2094.79 190.252 L2099.07 190.252 L2099.07 194.28 Q2100.6 191.942 2102.66 190.784 Q2104.74 189.627 2107.45 189.627 Q2111.92 189.627 2114.21 192.405 Q2116.5 195.159 2116.5 200.529 Z" fill="#000000" fill-rule="evenodd" fill-opacity="1" /><path clip-path="url(#clip860)" d="M2124.56 205.946 L2124.56 190.252 L2128.82 190.252 L2128.82 205.784 Q2128.82 209.465 2130.25 211.316 Q2131.69 213.145 2134.56 213.145 Q2138.01 213.145 2140 210.946 Q2142.01 208.747 2142.01 204.951 L2142.01 190.252 L2146.27 190.252 L2146.27 216.178 L2142.01 216.178 L2142.01 212.196 Q2140.46 214.557 2138.4 215.715 Q2136.36 216.849 2133.66 216.849 Q2129.19 216.849 2126.87 214.071 Q2124.56 211.293 2124.56 205.946 M2135.28 189.627 L2135.28 189.627 Z" fill="#000000" fill-rule="evenodd" fill-opacity="1" /><path clip-path="url(#clip860)" d="M2165.09 193.238 Q2161.66 193.238 2159.67 195.923 Q2157.68 198.585 2157.68 203.238 Q2157.68 207.891 2159.65 210.576 Q2161.64 213.238 2165.09 213.238 Q2168.49 213.238 2170.48 210.553 Q2172.47 207.867 2172.47 203.238 Q2172.47 198.631 2170.48 195.946 Q2168.49 193.238 2165.09 193.238 M2165.09 189.627 Q2170.65 189.627 2173.82 193.238 Q2176.99 196.849 2176.99 203.238 Q2176.99 209.604 2173.82 213.238 Q2170.65 216.849 2165.09 216.849 Q2159.51 216.849 2156.34 213.238 Q2153.19 209.604 2153.19 203.238 Q2153.19 196.849 2156.34 193.238 Q2159.51 189.627 2165.09 189.627 Z" fill="#000000" fill-rule="evenodd" fill-opacity="1" /><path clip-path="url(#clip860)" d="M2183.61 205.946 L2183.61 190.252 L2187.87 190.252 L2187.87 205.784 Q2187.87 209.465 2189.3 211.316 Q2190.74 213.145 2193.61 213.145 Q2197.06 213.145 2199.05 210.946 Q2201.06 208.747 2201.06 204.951 L2201.06 190.252 L2205.32 190.252 L2205.32 216.178 L2201.06 216.178 L2201.06 212.196 Q2199.51 214.557 2197.45 215.715 Q2195.41 216.849 2192.71 216.849 Q2188.24 216.849 2185.92 214.071 Q2183.61 211.293 2183.61 205.946 M2194.33 189.627 L2194.33 189.627 Z" fill="#000000" fill-rule="evenodd" fill-opacity="1" /><path clip-path="url(#clip860)" d="M2230.62 191.016 L2230.62 195.043 Q2228.82 194.117 2226.87 193.655 Q2224.93 193.192 2222.84 193.192 Q2219.67 193.192 2218.08 194.164 Q2216.5 195.136 2216.5 197.08 Q2216.5 198.562 2217.64 199.418 Q2218.77 200.252 2222.2 201.016 L2223.65 201.34 Q2228.19 202.312 2230.09 204.094 Q2232.01 205.854 2232.01 209.025 Q2232.01 212.636 2229.14 214.742 Q2226.29 216.849 2221.29 216.849 Q2219.21 216.849 2216.94 216.432 Q2214.7 216.039 2212.2 215.228 L2212.2 210.83 Q2214.56 212.057 2216.85 212.682 Q2219.14 213.284 2221.39 213.284 Q2224.4 213.284 2226.02 212.266 Q2227.64 211.224 2227.64 209.349 Q2227.64 207.613 2226.46 206.687 Q2225.3 205.761 2221.34 204.904 L2219.86 204.557 Q2215.9 203.724 2214.14 202.011 Q2212.38 200.275 2212.38 197.266 Q2212.38 193.608 2214.97 191.618 Q2217.57 189.627 2222.34 189.627 Q2224.7 189.627 2226.78 189.974 Q2228.86 190.321 2230.62 191.016 Z" fill="#000000" fill-rule="evenodd" fill-opacity="1" /></svg>
