<?xml version="1.0" encoding="utf-8"?>
<svg xmlns="http://www.w3.org/2000/svg" xmlns:xlink="http://www.w3.org/1999/xlink" width="600" height="400" viewBox="0 0 2400 1600">
<defs>
  <clipPath id="clip330">
    <rect x="0" y="0" width="2400" height="1600"/>
  </clipPath>
</defs>
<path clip-path="url(#clip330)" d="
M0 1600 L2400 1600 L2400 0 L0 0  Z
  " fill="#ffffff" fill-rule="evenodd" fill-opacity="1"/>
<defs>
  <clipPath id="clip331">
    <rect x="480" y="0" width="1681" height="1600"/>
  </clipPath>
</defs>
<path clip-path="url(#clip330)" d="
M249.542 1423.18 L2352.76 1423.18 L2352.76 47.2441 L249.542 47.2441  Z
  " fill="#ffffff" fill-rule="evenodd" fill-opacity="1"/>
<defs>
  <clipPath id="clip332">
    <rect x="249" y="47" width="2104" height="1377"/>
  </clipPath>
</defs>
<polyline clip-path="url(#clip332)" style="stroke:#000000; stroke-linecap:butt; stroke-linejoin:round; stroke-width:2; stroke-opacity:0.1; fill:none" points="
  639.761,1423.18 639.761,47.2441 
  "/>
<polyline clip-path="url(#clip332)" style="stroke:#000000; stroke-linecap:butt; stroke-linejoin:round; stroke-width:2; stroke-opacity:0.1; fill:none" points="
  1053.13,1423.18 1053.13,47.2441 
  "/>
<polyline clip-path="url(#clip332)" style="stroke:#000000; stroke-linecap:butt; stroke-linejoin:round; stroke-width:2; stroke-opacity:0.1; fill:none" points="
  1466.5,1423.18 1466.5,47.2441 
  "/>
<polyline clip-path="url(#clip332)" style="stroke:#000000; stroke-linecap:butt; stroke-linejoin:round; stroke-width:2; stroke-opacity:0.1; fill:none" points="
  1879.86,1423.18 1879.86,47.2441 
  "/>
<polyline clip-path="url(#clip332)" style="stroke:#000000; stroke-linecap:butt; stroke-linejoin:round; stroke-width:2; stroke-opacity:0.1; fill:none" points="
  2293.23,1423.18 2293.23,47.2441 
  "/>
<polyline clip-path="url(#clip330)" style="stroke:#000000; stroke-linecap:butt; stroke-linejoin:round; stroke-width:4; stroke-opacity:1; fill:none" points="
  249.542,1423.18 2352.76,1423.18 
  "/>
<polyline clip-path="url(#clip330)" style="stroke:#000000; stroke-linecap:butt; stroke-linejoin:round; stroke-width:4; stroke-opacity:1; fill:none" points="
  639.761,1423.18 639.761,1404.28 
  "/>
<polyline clip-path="url(#clip330)" style="stroke:#000000; stroke-linecap:butt; stroke-linejoin:round; stroke-width:4; stroke-opacity:1; fill:none" points="
  1053.13,1423.18 1053.13,1404.28 
  "/>
<polyline clip-path="url(#clip330)" style="stroke:#000000; stroke-linecap:butt; stroke-linejoin:round; stroke-width:4; stroke-opacity:1; fill:none" points="
  1466.5,1423.18 1466.5,1404.28 
  "/>
<polyline clip-path="url(#clip330)" style="stroke:#000000; stroke-linecap:butt; stroke-linejoin:round; stroke-width:4; stroke-opacity:1; fill:none" points="
  1879.86,1423.18 1879.86,1404.28 
  "/>
<polyline clip-path="url(#clip330)" style="stroke:#000000; stroke-linecap:butt; stroke-linejoin:round; stroke-width:4; stroke-opacity:1; fill:none" points="
  2293.23,1423.18 2293.23,1404.28 
  "/>
<path clip-path="url(#clip330)" d="M630.039 1451.02 L648.395 1451.02 L648.395 1454.96 L634.321 1454.96 L634.321 1463.43 Q635.34 1463.08 636.358 1462.92 Q637.377 1462.73 638.395 1462.73 Q644.182 1462.73 647.562 1465.9 Q650.941 1469.08 650.941 1474.49 Q650.941 1480.07 647.469 1483.17 Q643.997 1486.25 637.678 1486.25 Q635.502 1486.25 633.233 1485.88 Q630.988 1485.51 628.58 1484.77 L628.58 1480.07 Q630.664 1481.2 632.886 1481.76 Q635.108 1482.32 637.585 1482.32 Q641.59 1482.32 643.928 1480.21 Q646.266 1478.1 646.266 1474.49 Q646.266 1470.88 643.928 1468.77 Q641.59 1466.67 637.585 1466.67 Q635.71 1466.67 633.835 1467.08 Q631.983 1467.5 630.039 1468.38 L630.039 1451.02 Z" fill="#000000" fill-rule="evenodd" fill-opacity="1" /><path clip-path="url(#clip330)" d="M1027.82 1481.64 L1035.45 1481.64 L1035.45 1455.28 L1027.14 1456.95 L1027.14 1452.69 L1035.41 1451.02 L1040.08 1451.02 L1040.08 1481.64 L1047.72 1481.64 L1047.72 1485.58 L1027.82 1485.58 L1027.82 1481.64 Z" fill="#000000" fill-rule="evenodd" fill-opacity="1" /><path clip-path="url(#clip330)" d="M1067.17 1454.1 Q1063.56 1454.1 1061.73 1457.66 Q1059.92 1461.2 1059.92 1468.33 Q1059.92 1475.44 1061.73 1479.01 Q1063.56 1482.55 1067.17 1482.55 Q1070.8 1482.55 1072.61 1479.01 Q1074.44 1475.44 1074.44 1468.33 Q1074.44 1461.2 1072.61 1457.66 Q1070.8 1454.1 1067.17 1454.1 M1067.17 1450.39 Q1072.98 1450.39 1076.03 1455 Q1079.11 1459.58 1079.11 1468.33 Q1079.11 1477.06 1076.03 1481.67 Q1072.98 1486.25 1067.17 1486.25 Q1061.36 1486.25 1058.28 1481.67 Q1055.22 1477.06 1055.22 1468.33 Q1055.22 1459.58 1058.28 1455 Q1061.36 1450.39 1067.17 1450.39 Z" fill="#000000" fill-rule="evenodd" fill-opacity="1" /><path clip-path="url(#clip330)" d="M1441.68 1481.64 L1449.32 1481.64 L1449.32 1455.28 L1441.01 1456.95 L1441.01 1452.69 L1449.27 1451.02 L1453.95 1451.02 L1453.95 1481.64 L1461.59 1481.64 L1461.59 1485.58 L1441.68 1485.58 L1441.68 1481.64 Z" fill="#000000" fill-rule="evenodd" fill-opacity="1" /><path clip-path="url(#clip330)" d="M1471.08 1451.02 L1489.44 1451.02 L1489.44 1454.96 L1475.36 1454.96 L1475.36 1463.43 Q1476.38 1463.08 1477.4 1462.92 Q1478.42 1462.73 1479.44 1462.73 Q1485.22 1462.73 1488.6 1465.9 Q1491.98 1469.08 1491.98 1474.49 Q1491.98 1480.07 1488.51 1483.17 Q1485.04 1486.25 1478.72 1486.25 Q1476.54 1486.25 1474.27 1485.88 Q1472.03 1485.51 1469.62 1484.77 L1469.62 1480.07 Q1471.7 1481.2 1473.93 1481.76 Q1476.15 1482.32 1478.63 1482.32 Q1482.63 1482.32 1484.97 1480.21 Q1487.31 1478.1 1487.31 1474.49 Q1487.31 1470.88 1484.97 1468.77 Q1482.63 1466.67 1478.63 1466.67 Q1476.75 1466.67 1474.88 1467.08 Q1473.02 1467.5 1471.08 1468.38 L1471.08 1451.02 Z" fill="#000000" fill-rule="evenodd" fill-opacity="1" /><path clip-path="url(#clip330)" d="M1858.64 1481.64 L1874.96 1481.64 L1874.96 1485.58 L1853.01 1485.58 L1853.01 1481.64 Q1855.67 1478.89 1860.26 1474.26 Q1864.86 1469.61 1866.04 1468.27 Q1868.29 1465.74 1869.17 1464.01 Q1870.07 1462.25 1870.07 1460.56 Q1870.07 1457.8 1868.13 1456.07 Q1866.21 1454.33 1863.1 1454.33 Q1860.91 1454.33 1858.45 1455.09 Q1856.02 1455.86 1853.24 1457.41 L1853.24 1452.69 Q1856.07 1451.55 1858.52 1450.97 Q1860.97 1450.39 1863.01 1450.39 Q1868.38 1450.39 1871.58 1453.08 Q1874.77 1455.77 1874.77 1460.26 Q1874.77 1462.39 1873.96 1464.31 Q1873.17 1466.2 1871.07 1468.8 Q1870.49 1469.47 1867.39 1472.69 Q1864.28 1475.88 1858.64 1481.64 Z" fill="#000000" fill-rule="evenodd" fill-opacity="1" /><path clip-path="url(#clip330)" d="M1894.77 1454.1 Q1891.16 1454.1 1889.33 1457.66 Q1887.53 1461.2 1887.53 1468.33 Q1887.53 1475.44 1889.33 1479.01 Q1891.16 1482.55 1894.77 1482.55 Q1898.41 1482.55 1900.21 1479.01 Q1902.04 1475.44 1902.04 1468.33 Q1902.04 1461.2 1900.21 1457.66 Q1898.41 1454.1 1894.77 1454.1 M1894.77 1450.39 Q1900.58 1450.39 1903.64 1455 Q1906.72 1459.58 1906.72 1468.33 Q1906.72 1477.06 1903.64 1481.67 Q1900.58 1486.25 1894.77 1486.25 Q1888.96 1486.25 1885.88 1481.67 Q1882.83 1477.06 1882.83 1468.33 Q1882.83 1459.58 1885.88 1455 Q1888.96 1450.39 1894.77 1450.39 Z" fill="#000000" fill-rule="evenodd" fill-opacity="1" /><path clip-path="url(#clip330)" d="M2272.5 1481.64 L2288.82 1481.64 L2288.82 1485.58 L2266.88 1485.58 L2266.88 1481.64 Q2269.54 1478.89 2274.12 1474.26 Q2278.73 1469.61 2279.91 1468.27 Q2282.15 1465.74 2283.03 1464.01 Q2283.94 1462.25 2283.94 1460.56 Q2283.94 1457.8 2281.99 1456.07 Q2280.07 1454.33 2276.97 1454.33 Q2274.77 1454.33 2272.32 1455.09 Q2269.89 1455.86 2267.11 1457.41 L2267.11 1452.69 Q2269.93 1451.55 2272.39 1450.97 Q2274.84 1450.39 2276.88 1450.39 Q2282.25 1450.39 2285.44 1453.08 Q2288.64 1455.77 2288.64 1460.26 Q2288.64 1462.39 2287.83 1464.31 Q2287.04 1466.2 2284.93 1468.8 Q2284.35 1469.47 2281.25 1472.69 Q2278.15 1475.88 2272.5 1481.64 Z" fill="#000000" fill-rule="evenodd" fill-opacity="1" /><path clip-path="url(#clip330)" d="M2298.68 1451.02 L2317.04 1451.02 L2317.04 1454.96 L2302.96 1454.96 L2302.96 1463.43 Q2303.98 1463.08 2305 1462.92 Q2306.02 1462.73 2307.04 1462.73 Q2312.83 1462.73 2316.21 1465.9 Q2319.59 1469.08 2319.59 1474.49 Q2319.59 1480.07 2316.11 1483.17 Q2312.64 1486.25 2306.32 1486.25 Q2304.15 1486.25 2301.88 1485.88 Q2299.63 1485.51 2297.22 1484.77 L2297.22 1480.07 Q2299.31 1481.2 2301.53 1481.76 Q2303.75 1482.32 2306.23 1482.32 Q2310.23 1482.32 2312.57 1480.21 Q2314.91 1478.1 2314.91 1474.49 Q2314.91 1470.88 2312.57 1468.77 Q2310.23 1466.67 2306.23 1466.67 Q2304.35 1466.67 2302.48 1467.08 Q2300.63 1467.5 2298.68 1468.38 L2298.68 1451.02 Z" fill="#000000" fill-rule="evenodd" fill-opacity="1" /><path clip-path="url(#clip330)" d="M1240.31 1522.27 L1240.31 1532.4 L1252.37 1532.4 L1252.37 1536.95 L1240.31 1536.95 L1240.31 1556.3 Q1240.31 1560.66 1241.49 1561.9 Q1242.7 1563.14 1246.36 1563.14 L1252.37 1563.14 L1252.37 1568.04 L1246.36 1568.04 Q1239.58 1568.04 1237 1565.53 Q1234.42 1562.98 1234.42 1556.3 L1234.42 1536.95 L1230.12 1536.95 L1230.12 1532.4 L1234.42 1532.4 L1234.42 1522.27 L1240.31 1522.27 Z" fill="#000000" fill-rule="evenodd" fill-opacity="1" /><path clip-path="url(#clip330)" d="M1260.07 1532.4 L1265.93 1532.4 L1265.93 1568.04 L1260.07 1568.04 L1260.07 1532.4 M1260.07 1518.52 L1265.93 1518.52 L1265.93 1525.93 L1260.07 1525.93 L1260.07 1518.52 Z" fill="#000000" fill-rule="evenodd" fill-opacity="1" /><path clip-path="url(#clip330)" d="M1305.94 1539.24 Q1308.14 1535.29 1311.19 1533.41 Q1314.25 1531.54 1318.38 1531.54 Q1323.95 1531.54 1326.98 1535.45 Q1330 1539.33 1330 1546.53 L1330 1568.04 L1324.11 1568.04 L1324.11 1546.72 Q1324.11 1541.59 1322.3 1539.11 Q1320.48 1536.63 1316.76 1536.63 Q1312.21 1536.63 1309.57 1539.65 Q1306.93 1542.68 1306.93 1547.9 L1306.93 1568.04 L1301.04 1568.04 L1301.04 1546.72 Q1301.04 1541.56 1299.22 1539.11 Q1297.41 1536.63 1293.62 1536.63 Q1289.13 1536.63 1286.49 1539.68 Q1283.85 1542.71 1283.85 1547.9 L1283.85 1568.04 L1277.96 1568.04 L1277.96 1532.4 L1283.85 1532.4 L1283.85 1537.93 Q1285.86 1534.66 1288.66 1533.1 Q1291.46 1531.54 1295.31 1531.54 Q1299.19 1531.54 1301.9 1533.51 Q1304.63 1535.48 1305.94 1539.24 Z" fill="#000000" fill-rule="evenodd" fill-opacity="1" /><path clip-path="url(#clip330)" d="M1372.17 1548.76 L1372.17 1551.62 L1345.25 1551.62 Q1345.63 1557.67 1348.88 1560.85 Q1352.15 1564 1357.98 1564 Q1361.35 1564 1364.5 1563.17 Q1367.69 1562.35 1370.81 1560.69 L1370.81 1566.23 Q1367.65 1567.57 1364.34 1568.27 Q1361.03 1568.97 1357.63 1568.97 Q1349.1 1568.97 1344.1 1564 Q1339.14 1559.04 1339.14 1550.57 Q1339.14 1541.82 1343.85 1536.69 Q1348.59 1531.54 1356.61 1531.54 Q1363.8 1531.54 1367.97 1536.18 Q1372.17 1540.8 1372.17 1548.76 M1366.32 1547.04 Q1366.25 1542.23 1363.61 1539.37 Q1361 1536.5 1356.67 1536.5 Q1351.77 1536.5 1348.81 1539.27 Q1345.88 1542.04 1345.44 1547.07 L1366.32 1547.04 Z" fill="#000000" fill-rule="evenodd" fill-opacity="1" /><polyline clip-path="url(#clip332)" style="stroke:#000000; stroke-linecap:butt; stroke-linejoin:round; stroke-width:2; stroke-opacity:0.1; fill:none" points="
  249.542,1423.18 2352.76,1423.18 
  "/>
<polyline clip-path="url(#clip332)" style="stroke:#000000; stroke-linecap:butt; stroke-linejoin:round; stroke-width:2; stroke-opacity:0.1; fill:none" points="
  249.542,1079.2 2352.76,1079.2 
  "/>
<polyline clip-path="url(#clip332)" style="stroke:#000000; stroke-linecap:butt; stroke-linejoin:round; stroke-width:2; stroke-opacity:0.1; fill:none" points="
  249.542,735.212 2352.76,735.212 
  "/>
<polyline clip-path="url(#clip332)" style="stroke:#000000; stroke-linecap:butt; stroke-linejoin:round; stroke-width:2; stroke-opacity:0.1; fill:none" points="
  249.542,391.228 2352.76,391.228 
  "/>
<polyline clip-path="url(#clip330)" style="stroke:#000000; stroke-linecap:butt; stroke-linejoin:round; stroke-width:4; stroke-opacity:1; fill:none" points="
  249.542,1423.18 249.542,47.2441 
  "/>
<polyline clip-path="url(#clip330)" style="stroke:#000000; stroke-linecap:butt; stroke-linejoin:round; stroke-width:4; stroke-opacity:1; fill:none" points="
  249.542,1423.18 268.44,1423.18 
  "/>
<polyline clip-path="url(#clip330)" style="stroke:#000000; stroke-linecap:butt; stroke-linejoin:round; stroke-width:4; stroke-opacity:1; fill:none" points="
  249.542,1079.2 268.44,1079.2 
  "/>
<polyline clip-path="url(#clip330)" style="stroke:#000000; stroke-linecap:butt; stroke-linejoin:round; stroke-width:4; stroke-opacity:1; fill:none" points="
  249.542,735.212 268.44,735.212 
  "/>
<polyline clip-path="url(#clip330)" style="stroke:#000000; stroke-linecap:butt; stroke-linejoin:round; stroke-width:4; stroke-opacity:1; fill:none" points="
  249.542,391.228 268.44,391.228 
  "/>
<path clip-path="url(#clip330)" d="M126.205 1408.98 Q122.593 1408.98 120.765 1412.54 Q118.959 1416.08 118.959 1423.21 Q118.959 1430.32 120.765 1433.89 Q122.593 1437.43 126.205 1437.43 Q129.839 1437.43 131.644 1433.89 Q133.473 1430.32 133.473 1423.21 Q133.473 1416.08 131.644 1412.54 Q129.839 1408.98 126.205 1408.98 M126.205 1405.27 Q132.015 1405.27 135.07 1409.88 Q138.149 1414.46 138.149 1423.21 Q138.149 1431.94 135.07 1436.55 Q132.015 1441.13 126.205 1441.13 Q120.394 1441.13 117.316 1436.55 Q114.26 1431.94 114.26 1423.21 Q114.26 1414.46 117.316 1409.88 Q120.394 1405.27 126.205 1405.27 Z" fill="#000000" fill-rule="evenodd" fill-opacity="1" /><path clip-path="url(#clip330)" d="M146.366 1434.58 L151.251 1434.58 L151.251 1440.46 L146.366 1440.46 L146.366 1434.58 Z" fill="#000000" fill-rule="evenodd" fill-opacity="1" /><path clip-path="url(#clip330)" d="M162.246 1436.52 L169.885 1436.52 L169.885 1410.16 L161.575 1411.83 L161.575 1407.57 L169.839 1405.9 L174.514 1405.9 L174.514 1436.52 L182.153 1436.52 L182.153 1440.46 L162.246 1440.46 L162.246 1436.52 Z" fill="#000000" fill-rule="evenodd" fill-opacity="1" /><path clip-path="url(#clip330)" d="M201.598 1408.98 Q197.987 1408.98 196.158 1412.54 Q194.352 1416.08 194.352 1423.21 Q194.352 1430.32 196.158 1433.89 Q197.987 1437.43 201.598 1437.43 Q205.232 1437.43 207.037 1433.89 Q208.866 1430.32 208.866 1423.21 Q208.866 1416.08 207.037 1412.54 Q205.232 1408.98 201.598 1408.98 M201.598 1405.27 Q207.408 1405.27 210.463 1409.88 Q213.542 1414.46 213.542 1423.21 Q213.542 1431.94 210.463 1436.55 Q207.408 1441.13 201.598 1441.13 Q195.787 1441.13 192.709 1436.55 Q189.653 1431.94 189.653 1423.21 Q189.653 1414.46 192.709 1409.88 Q195.787 1405.27 201.598 1405.27 Z" fill="#000000" fill-rule="evenodd" fill-opacity="1" /><path clip-path="url(#clip330)" d="M127.2 1064.99 Q123.589 1064.99 121.76 1068.56 Q119.955 1072.1 119.955 1079.23 Q119.955 1086.34 121.76 1089.9 Q123.589 1093.44 127.2 1093.44 Q130.834 1093.44 132.64 1089.9 Q134.468 1086.34 134.468 1079.23 Q134.468 1072.1 132.64 1068.56 Q130.834 1064.99 127.2 1064.99 M127.2 1061.29 Q133.01 1061.29 136.066 1065.9 Q139.144 1070.48 139.144 1079.23 Q139.144 1087.96 136.066 1092.56 Q133.01 1097.15 127.2 1097.15 Q121.39 1097.15 118.311 1092.56 Q115.256 1087.96 115.256 1079.23 Q115.256 1070.48 118.311 1065.9 Q121.39 1061.29 127.2 1061.29 Z" fill="#000000" fill-rule="evenodd" fill-opacity="1" /><path clip-path="url(#clip330)" d="M147.362 1090.6 L152.246 1090.6 L152.246 1096.48 L147.362 1096.48 L147.362 1090.6 Z" fill="#000000" fill-rule="evenodd" fill-opacity="1" /><path clip-path="url(#clip330)" d="M163.241 1092.54 L170.88 1092.54 L170.88 1066.18 L162.57 1067.84 L162.57 1063.58 L170.834 1061.92 L175.51 1061.92 L175.51 1092.54 L183.149 1092.54 L183.149 1096.48 L163.241 1096.48 L163.241 1092.54 Z" fill="#000000" fill-rule="evenodd" fill-opacity="1" /><path clip-path="url(#clip330)" d="M192.639 1061.92 L210.996 1061.92 L210.996 1065.85 L196.922 1065.85 L196.922 1074.32 Q197.94 1073.98 198.959 1073.81 Q199.977 1073.63 200.996 1073.63 Q206.783 1073.63 210.162 1076.8 Q213.542 1079.97 213.542 1085.39 Q213.542 1090.97 210.07 1094.07 Q206.598 1097.15 200.278 1097.15 Q198.102 1097.15 195.834 1096.78 Q193.588 1096.41 191.181 1095.67 L191.181 1090.97 Q193.264 1092.1 195.487 1092.66 Q197.709 1093.21 200.186 1093.21 Q204.19 1093.21 206.528 1091.11 Q208.866 1089 208.866 1085.39 Q208.866 1081.78 206.528 1079.67 Q204.19 1077.56 200.186 1077.56 Q198.311 1077.56 196.436 1077.98 Q194.584 1078.4 192.639 1079.28 L192.639 1061.92 Z" fill="#000000" fill-rule="evenodd" fill-opacity="1" /><path clip-path="url(#clip330)" d="M126.205 721.011 Q122.593 721.011 120.765 724.575 Q118.959 728.117 118.959 735.247 Q118.959 742.353 120.765 745.918 Q122.593 749.46 126.205 749.46 Q129.839 749.46 131.644 745.918 Q133.473 742.353 133.473 735.247 Q133.473 728.117 131.644 724.575 Q129.839 721.011 126.205 721.011 M126.205 717.307 Q132.015 717.307 135.07 721.913 Q138.149 726.497 138.149 735.247 Q138.149 743.973 135.07 748.58 Q132.015 753.163 126.205 753.163 Q120.394 753.163 117.316 748.58 Q114.26 743.973 114.26 735.247 Q114.26 726.497 117.316 721.913 Q120.394 717.307 126.205 717.307 Z" fill="#000000" fill-rule="evenodd" fill-opacity="1" /><path clip-path="url(#clip330)" d="M146.366 746.612 L151.251 746.612 L151.251 752.492 L146.366 752.492 L146.366 746.612 Z" fill="#000000" fill-rule="evenodd" fill-opacity="1" /><path clip-path="url(#clip330)" d="M165.464 748.557 L181.783 748.557 L181.783 752.492 L159.839 752.492 L159.839 748.557 Q162.501 745.802 167.084 741.173 Q171.69 736.52 172.871 735.177 Q175.116 732.654 175.996 730.918 Q176.899 729.159 176.899 727.469 Q176.899 724.714 174.954 722.978 Q173.033 721.242 169.931 721.242 Q167.732 721.242 165.278 722.006 Q162.848 722.77 160.07 724.321 L160.07 719.599 Q162.894 718.464 165.348 717.886 Q167.802 717.307 169.839 717.307 Q175.209 717.307 178.403 719.992 Q181.598 722.677 181.598 727.168 Q181.598 729.298 180.788 731.219 Q180.001 733.117 177.894 735.71 Q177.315 736.381 174.214 739.599 Q171.112 742.793 165.464 748.557 Z" fill="#000000" fill-rule="evenodd" fill-opacity="1" /><path clip-path="url(#clip330)" d="M201.598 721.011 Q197.987 721.011 196.158 724.575 Q194.352 728.117 194.352 735.247 Q194.352 742.353 196.158 745.918 Q197.987 749.46 201.598 749.46 Q205.232 749.46 207.037 745.918 Q208.866 742.353 208.866 735.247 Q208.866 728.117 207.037 724.575 Q205.232 721.011 201.598 721.011 M201.598 717.307 Q207.408 717.307 210.463 721.913 Q213.542 726.497 213.542 735.247 Q213.542 743.973 210.463 748.58 Q207.408 753.163 201.598 753.163 Q195.787 753.163 192.709 748.58 Q189.653 743.973 189.653 735.247 Q189.653 726.497 192.709 721.913 Q195.787 717.307 201.598 717.307 Z" fill="#000000" fill-rule="evenodd" fill-opacity="1" /><path clip-path="url(#clip330)" d="M127.2 377.027 Q123.589 377.027 121.76 380.592 Q119.955 384.133 119.955 391.263 Q119.955 398.369 121.76 401.934 Q123.589 405.476 127.2 405.476 Q130.834 405.476 132.64 401.934 Q134.468 398.369 134.468 391.263 Q134.468 384.133 132.64 380.592 Q130.834 377.027 127.2 377.027 M127.2 373.323 Q133.01 373.323 136.066 377.929 Q139.144 382.513 139.144 391.263 Q139.144 399.99 136.066 404.596 Q133.01 409.179 127.2 409.179 Q121.39 409.179 118.311 404.596 Q115.256 399.99 115.256 391.263 Q115.256 382.513 118.311 377.929 Q121.39 373.323 127.2 373.323 Z" fill="#000000" fill-rule="evenodd" fill-opacity="1" /><path clip-path="url(#clip330)" d="M147.362 402.628 L152.246 402.628 L152.246 408.508 L147.362 408.508 L147.362 402.628 Z" fill="#000000" fill-rule="evenodd" fill-opacity="1" /><path clip-path="url(#clip330)" d="M166.459 404.573 L182.778 404.573 L182.778 408.508 L160.834 408.508 L160.834 404.573 Q163.496 401.818 168.079 397.189 Q172.686 392.536 173.866 391.193 Q176.112 388.67 176.991 386.934 Q177.894 385.175 177.894 383.485 Q177.894 380.73 175.95 378.994 Q174.028 377.258 170.927 377.258 Q168.727 377.258 166.274 378.022 Q163.843 378.786 161.065 380.337 L161.065 375.615 Q163.89 374.48 166.343 373.902 Q168.797 373.323 170.834 373.323 Q176.204 373.323 179.399 376.008 Q182.593 378.693 182.593 383.184 Q182.593 385.314 181.783 387.235 Q180.996 389.133 178.889 391.726 Q178.311 392.397 175.209 395.615 Q172.107 398.809 166.459 404.573 Z" fill="#000000" fill-rule="evenodd" fill-opacity="1" /><path clip-path="url(#clip330)" d="M192.639 373.948 L210.996 373.948 L210.996 377.883 L196.922 377.883 L196.922 386.355 Q197.94 386.008 198.959 385.846 Q199.977 385.661 200.996 385.661 Q206.783 385.661 210.162 388.832 Q213.542 392.003 213.542 397.42 Q213.542 402.999 210.07 406.101 Q206.598 409.179 200.278 409.179 Q198.102 409.179 195.834 408.809 Q193.588 408.439 191.181 407.698 L191.181 402.999 Q193.264 404.133 195.487 404.689 Q197.709 405.244 200.186 405.244 Q204.19 405.244 206.528 403.138 Q208.866 401.031 208.866 397.42 Q208.866 393.809 206.528 391.703 Q204.19 389.596 200.186 389.596 Q198.311 389.596 196.436 390.013 Q194.584 390.429 192.639 391.309 L192.639 373.948 Z" fill="#000000" fill-rule="evenodd" fill-opacity="1" /><path clip-path="url(#clip330)" d="M29.7248 811.6 L35.1993 811.6 Q33.8307 814.083 33.1623 816.598 Q32.4621 819.08 32.4621 821.626 Q32.4621 827.324 36.0905 830.475 Q39.6872 833.626 46.212 833.626 Q52.7369 833.626 56.3653 830.475 Q59.9619 827.324 59.9619 821.626 Q59.9619 819.08 59.2935 816.598 Q58.5933 814.083 57.2247 811.6 L62.6355 811.6 Q63.7814 814.051 64.3543 816.693 Q64.9272 819.303 64.9272 822.263 Q64.9272 830.316 59.8664 835.058 Q54.8057 839.801 46.212 839.801 Q37.491 839.801 32.4939 835.026 Q27.4968 830.22 27.4968 821.881 Q27.4968 819.176 28.0697 816.598 Q28.6108 814.019 29.7248 811.6 Z" fill="#000000" fill-rule="evenodd" fill-opacity="1" /><path clip-path="url(#clip330)" d="M46.0847 785.215 Q46.0847 792.312 47.7079 795.05 Q49.3312 797.787 53.2461 797.787 Q56.3653 797.787 58.2114 795.75 Q60.0256 793.681 60.0256 790.148 Q60.0256 785.278 56.5881 782.35 Q53.1188 779.39 47.3897 779.39 L46.0847 779.39 L46.0847 785.215 M43.6657 773.534 L64.0042 773.534 L64.0042 779.39 L58.5933 779.39 Q61.8398 781.395 63.3994 784.387 Q64.9272 787.379 64.9272 791.708 Q64.9272 797.182 61.8716 800.429 Q58.7843 803.643 53.6281 803.643 Q47.6125 803.643 44.5569 799.633 Q41.5014 795.591 41.5014 787.602 L41.5014 779.39 L40.9285 779.39 Q36.8862 779.39 34.6901 782.064 Q32.4621 784.705 32.4621 789.511 Q32.4621 792.567 33.1941 795.463 Q33.9262 798.36 35.3903 801.033 L29.9795 801.033 Q28.7381 797.819 28.1334 794.795 Q27.4968 791.771 27.4968 788.907 Q27.4968 781.172 31.5072 777.353 Q35.5176 773.534 43.6657 773.534 Z" fill="#000000" fill-rule="evenodd" fill-opacity="1" /><path clip-path="url(#clip330)" d="M58.657 755.805 L77.5631 755.805 L77.5631 761.693 L28.3562 761.693 L28.3562 755.805 L33.7671 755.805 Q30.5842 753.959 29.0564 751.158 Q27.4968 748.325 27.4968 744.41 Q27.4968 737.917 32.6531 733.875 Q37.8093 729.801 46.212 729.801 Q54.6147 729.801 59.771 733.875 Q64.9272 737.917 64.9272 744.41 Q64.9272 748.325 63.3994 751.158 Q61.8398 753.959 58.657 755.805 M46.212 735.88 Q39.7508 735.88 36.0905 738.554 Q32.3984 741.196 32.3984 745.843 Q32.3984 750.49 36.0905 753.163 Q39.7508 755.805 46.212 755.805 Q52.6732 755.805 56.3653 753.163 Q60.0256 750.49 60.0256 745.843 Q60.0256 741.196 56.3653 738.554 Q52.6732 735.88 46.212 735.88 Z" fill="#000000" fill-rule="evenodd" fill-opacity="1" /><path clip-path="url(#clip330)" d="M28.3562 720.093 L28.3562 714.237 L64.0042 714.237 L64.0042 720.093 L28.3562 720.093 M14.479 720.093 L14.479 714.237 L21.895 714.237 L21.895 720.093 L14.479 720.093 Z" fill="#000000" fill-rule="evenodd" fill-opacity="1" /><path clip-path="url(#clip330)" d="M18.2347 696.19 L28.3562 696.19 L28.3562 684.127 L32.9077 684.127 L32.9077 696.19 L52.2594 696.19 Q56.6199 696.19 57.8613 695.013 Q59.1026 693.803 59.1026 690.143 L59.1026 684.127 L64.0042 684.127 L64.0042 690.143 Q64.0042 696.922 61.4897 699.5 Q58.9434 702.078 52.2594 702.078 L32.9077 702.078 L32.9077 706.375 L28.3562 706.375 L28.3562 702.078 L18.2347 702.078 L18.2347 696.19 Z" fill="#000000" fill-rule="evenodd" fill-opacity="1" /><path clip-path="url(#clip330)" d="M46.0847 660.224 Q46.0847 667.322 47.7079 670.059 Q49.3312 672.796 53.2461 672.796 Q56.3653 672.796 58.2114 670.759 Q60.0256 668.69 60.0256 665.157 Q60.0256 660.288 56.5881 657.359 Q53.1188 654.399 47.3897 654.399 L46.0847 654.399 L46.0847 660.224 M43.6657 648.543 L64.0042 648.543 L64.0042 654.399 L58.5933 654.399 Q61.8398 656.405 63.3994 659.396 Q64.9272 662.388 64.9272 666.717 Q64.9272 672.191 61.8716 675.438 Q58.7843 678.653 53.6281 678.653 Q47.6125 678.653 44.5569 674.642 Q41.5014 670.6 41.5014 662.611 L41.5014 654.399 L40.9285 654.399 Q36.8862 654.399 34.6901 657.073 Q32.4621 659.715 32.4621 664.521 Q32.4621 667.576 33.1941 670.473 Q33.9262 673.369 35.3903 676.043 L29.9795 676.043 Q28.7381 672.828 28.1334 669.804 Q27.4968 666.781 27.4968 663.916 Q27.4968 656.182 31.5072 652.362 Q35.5176 648.543 43.6657 648.543 Z" fill="#000000" fill-rule="evenodd" fill-opacity="1" /><path clip-path="url(#clip330)" d="M14.479 636.48 L14.479 630.623 L64.0042 630.623 L64.0042 636.48 L14.479 636.48 Z" fill="#000000" fill-rule="evenodd" fill-opacity="1" /><polyline clip-path="url(#clip332)" style="stroke:#009af9; stroke-linecap:butt; stroke-linejoin:round; stroke-width:8; stroke-opacity:1; fill:none" points="
  309.067,1394.22 391.74,1173.63 474.414,1008.19 557.087,870.318 639.761,787.596 722.434,732.448 805.108,677.301 887.781,649.727 970.455,622.153 1053.13,594.579 
  1135.8,594.579 1218.48,594.579 1301.15,594.579 1383.82,594.579 1466.5,594.579 1549.17,594.579 1631.84,594.579 1714.52,594.579 1797.19,594.579 1879.86,594.579 
  1962.54,594.579 2045.21,594.579 2127.88,594.579 2210.56,594.579 2293.23,594.579 
  "/>
<circle clip-path="url(#clip332)" cx="309.067" cy="1394.22" r="14" fill="#009af9" fill-rule="evenodd" fill-opacity="1" stroke="#000000" stroke-opacity="1" stroke-width="3.2"/>
<circle clip-path="url(#clip332)" cx="391.74" cy="1173.63" r="14" fill="#009af9" fill-rule="evenodd" fill-opacity="1" stroke="#000000" stroke-opacity="1" stroke-width="3.2"/>
<circle clip-path="url(#clip332)" cx="474.414" cy="1008.19" r="14" fill="#009af9" fill-rule="evenodd" fill-opacity="1" stroke="#000000" stroke-opacity="1" stroke-width="3.2"/>
<circle clip-path="url(#clip332)" cx="557.087" cy="870.318" r="14" fill="#009af9" fill-rule="evenodd" fill-opacity="1" stroke="#000000" stroke-opacity="1" stroke-width="3.2"/>
<circle clip-path="url(#clip332)" cx="639.761" cy="787.596" r="14" fill="#009af9" fill-rule="evenodd" fill-opacity="1" stroke="#000000" stroke-opacity="1" stroke-width="3.2"/>
<circle clip-path="url(#clip332)" cx="722.434" cy="732.448" r="14" fill="#009af9" fill-rule="evenodd" fill-opacity="1" stroke="#000000" stroke-opacity="1" stroke-width="3.2"/>
<circle clip-path="url(#clip332)" cx="805.108" cy="677.301" r="14" fill="#009af9" fill-rule="evenodd" fill-opacity="1" stroke="#000000" stroke-opacity="1" stroke-width="3.2"/>
<circle clip-path="url(#clip332)" cx="887.781" cy="649.727" r="14" fill="#009af9" fill-rule="evenodd" fill-opacity="1" stroke="#000000" stroke-opacity="1" stroke-width="3.2"/>
<circle clip-path="url(#clip332)" cx="970.455" cy="622.153" r="14" fill="#009af9" fill-rule="evenodd" fill-opacity="1" stroke="#000000" stroke-opacity="1" stroke-width="3.2"/>
<circle clip-path="url(#clip332)" cx="1053.13" cy="594.579" r="14" fill="#009af9" fill-rule="evenodd" fill-opacity="1" stroke="#000000" stroke-opacity="1" stroke-width="3.2"/>
<circle clip-path="url(#clip332)" cx="1135.8" cy="594.579" r="14" fill="#009af9" fill-rule="evenodd" fill-opacity="1" stroke="#000000" stroke-opacity="1" stroke-width="3.2"/>
<circle clip-path="url(#clip332)" cx="1218.48" cy="594.579" r="14" fill="#009af9" fill-rule="evenodd" fill-opacity="1" stroke="#000000" stroke-opacity="1" stroke-width="3.2"/>
<circle clip-path="url(#clip332)" cx="1301.15" cy="594.579" r="14" fill="#009af9" fill-rule="evenodd" fill-opacity="1" stroke="#000000" stroke-opacity="1" stroke-width="3.2"/>
<circle clip-path="url(#clip332)" cx="1383.82" cy="594.579" r="14" fill="#009af9" fill-rule="evenodd" fill-opacity="1" stroke="#000000" stroke-opacity="1" stroke-width="3.2"/>
<circle clip-path="url(#clip332)" cx="1466.5" cy="594.579" r="14" fill="#009af9" fill-rule="evenodd" fill-opacity="1" stroke="#000000" stroke-opacity="1" stroke-width="3.2"/>
<circle clip-path="url(#clip332)" cx="1549.17" cy="594.579" r="14" fill="#009af9" fill-rule="evenodd" fill-opacity="1" stroke="#000000" stroke-opacity="1" stroke-width="3.2"/>
<circle clip-path="url(#clip332)" cx="1631.84" cy="594.579" r="14" fill="#009af9" fill-rule="evenodd" fill-opacity="1" stroke="#000000" stroke-opacity="1" stroke-width="3.2"/>
<circle clip-path="url(#clip332)" cx="1714.52" cy="594.579" r="14" fill="#009af9" fill-rule="evenodd" fill-opacity="1" stroke="#000000" stroke-opacity="1" stroke-width="3.2"/>
<circle clip-path="url(#clip332)" cx="1797.19" cy="594.579" r="14" fill="#009af9" fill-rule="evenodd" fill-opacity="1" stroke="#000000" stroke-opacity="1" stroke-width="3.2"/>
<circle clip-path="url(#clip332)" cx="1879.86" cy="594.579" r="14" fill="#009af9" fill-rule="evenodd" fill-opacity="1" stroke="#000000" stroke-opacity="1" stroke-width="3.2"/>
<circle clip-path="url(#clip332)" cx="1962.54" cy="594.579" r="14" fill="#009af9" fill-rule="evenodd" fill-opacity="1" stroke="#000000" stroke-opacity="1" stroke-width="3.2"/>
<circle clip-path="url(#clip332)" cx="2045.21" cy="594.579" r="14" fill="#009af9" fill-rule="evenodd" fill-opacity="1" stroke="#000000" stroke-opacity="1" stroke-width="3.2"/>
<circle clip-path="url(#clip332)" cx="2127.88" cy="594.579" r="14" fill="#009af9" fill-rule="evenodd" fill-opacity="1" stroke="#000000" stroke-opacity="1" stroke-width="3.2"/>
<circle clip-path="url(#clip332)" cx="2210.56" cy="594.579" r="14" fill="#009af9" fill-rule="evenodd" fill-opacity="1" stroke="#000000" stroke-opacity="1" stroke-width="3.2"/>
<circle clip-path="url(#clip332)" cx="2293.23" cy="594.579" r="14" fill="#009af9" fill-rule="evenodd" fill-opacity="1" stroke="#000000" stroke-opacity="1" stroke-width="3.2"/>
<polyline clip-path="url(#clip332)" style="stroke:#e26f46; stroke-linecap:butt; stroke-linejoin:round; stroke-width:8; stroke-opacity:1; fill:none" points="
  309.067,1394.22 391.74,1146.06 474.414,925.465 557.087,760.022 639.761,649.727 722.434,567.005 805.108,511.858 887.781,484.284 970.455,456.71 1053.13,429.136 
  1135.8,401.562 1218.48,401.562 1301.15,401.562 1383.82,401.562 1466.5,401.562 1549.17,401.562 1631.84,401.562 1714.52,401.562 1797.19,401.562 1879.86,401.562 
  1962.54,401.562 2045.21,401.562 2127.88,401.562 2210.56,401.562 2293.23,401.562 
  "/>
<circle clip-path="url(#clip332)" cx="309.067" cy="1394.22" r="14" fill="#e26f46" fill-rule="evenodd" fill-opacity="1" stroke="#000000" stroke-opacity="1" stroke-width="3.2"/>
<circle clip-path="url(#clip332)" cx="391.74" cy="1146.06" r="14" fill="#e26f46" fill-rule="evenodd" fill-opacity="1" stroke="#000000" stroke-opacity="1" stroke-width="3.2"/>
<circle clip-path="url(#clip332)" cx="474.414" cy="925.465" r="14" fill="#e26f46" fill-rule="evenodd" fill-opacity="1" stroke="#000000" stroke-opacity="1" stroke-width="3.2"/>
<circle clip-path="url(#clip332)" cx="557.087" cy="760.022" r="14" fill="#e26f46" fill-rule="evenodd" fill-opacity="1" stroke="#000000" stroke-opacity="1" stroke-width="3.2"/>
<circle clip-path="url(#clip332)" cx="639.761" cy="649.727" r="14" fill="#e26f46" fill-rule="evenodd" fill-opacity="1" stroke="#000000" stroke-opacity="1" stroke-width="3.2"/>
<circle clip-path="url(#clip332)" cx="722.434" cy="567.005" r="14" fill="#e26f46" fill-rule="evenodd" fill-opacity="1" stroke="#000000" stroke-opacity="1" stroke-width="3.2"/>
<circle clip-path="url(#clip332)" cx="805.108" cy="511.858" r="14" fill="#e26f46" fill-rule="evenodd" fill-opacity="1" stroke="#000000" stroke-opacity="1" stroke-width="3.2"/>
<circle clip-path="url(#clip332)" cx="887.781" cy="484.284" r="14" fill="#e26f46" fill-rule="evenodd" fill-opacity="1" stroke="#000000" stroke-opacity="1" stroke-width="3.2"/>
<circle clip-path="url(#clip332)" cx="970.455" cy="456.71" r="14" fill="#e26f46" fill-rule="evenodd" fill-opacity="1" stroke="#000000" stroke-opacity="1" stroke-width="3.2"/>
<circle clip-path="url(#clip332)" cx="1053.13" cy="429.136" r="14" fill="#e26f46" fill-rule="evenodd" fill-opacity="1" stroke="#000000" stroke-opacity="1" stroke-width="3.2"/>
<circle clip-path="url(#clip332)" cx="1135.8" cy="401.562" r="14" fill="#e26f46" fill-rule="evenodd" fill-opacity="1" stroke="#000000" stroke-opacity="1" stroke-width="3.2"/>
<circle clip-path="url(#clip332)" cx="1218.48" cy="401.562" r="14" fill="#e26f46" fill-rule="evenodd" fill-opacity="1" stroke="#000000" stroke-opacity="1" stroke-width="3.2"/>
<circle clip-path="url(#clip332)" cx="1301.15" cy="401.562" r="14" fill="#e26f46" fill-rule="evenodd" fill-opacity="1" stroke="#000000" stroke-opacity="1" stroke-width="3.2"/>
<circle clip-path="url(#clip332)" cx="1383.82" cy="401.562" r="14" fill="#e26f46" fill-rule="evenodd" fill-opacity="1" stroke="#000000" stroke-opacity="1" stroke-width="3.2"/>
<circle clip-path="url(#clip332)" cx="1466.5" cy="401.562" r="14" fill="#e26f46" fill-rule="evenodd" fill-opacity="1" stroke="#000000" stroke-opacity="1" stroke-width="3.2"/>
<circle clip-path="url(#clip332)" cx="1549.17" cy="401.562" r="14" fill="#e26f46" fill-rule="evenodd" fill-opacity="1" stroke="#000000" stroke-opacity="1" stroke-width="3.2"/>
<circle clip-path="url(#clip332)" cx="1631.84" cy="401.562" r="14" fill="#e26f46" fill-rule="evenodd" fill-opacity="1" stroke="#000000" stroke-opacity="1" stroke-width="3.2"/>
<circle clip-path="url(#clip332)" cx="1714.52" cy="401.562" r="14" fill="#e26f46" fill-rule="evenodd" fill-opacity="1" stroke="#000000" stroke-opacity="1" stroke-width="3.2"/>
<circle clip-path="url(#clip332)" cx="1797.19" cy="401.562" r="14" fill="#e26f46" fill-rule="evenodd" fill-opacity="1" stroke="#000000" stroke-opacity="1" stroke-width="3.2"/>
<circle clip-path="url(#clip332)" cx="1879.86" cy="401.562" r="14" fill="#e26f46" fill-rule="evenodd" fill-opacity="1" stroke="#000000" stroke-opacity="1" stroke-width="3.2"/>
<circle clip-path="url(#clip332)" cx="1962.54" cy="401.562" r="14" fill="#e26f46" fill-rule="evenodd" fill-opacity="1" stroke="#000000" stroke-opacity="1" stroke-width="3.2"/>
<circle clip-path="url(#clip332)" cx="2045.21" cy="401.562" r="14" fill="#e26f46" fill-rule="evenodd" fill-opacity="1" stroke="#000000" stroke-opacity="1" stroke-width="3.2"/>
<circle clip-path="url(#clip332)" cx="2127.88" cy="401.562" r="14" fill="#e26f46" fill-rule="evenodd" fill-opacity="1" stroke="#000000" stroke-opacity="1" stroke-width="3.2"/>
<circle clip-path="url(#clip332)" cx="2210.56" cy="401.562" r="14" fill="#e26f46" fill-rule="evenodd" fill-opacity="1" stroke="#000000" stroke-opacity="1" stroke-width="3.2"/>
<circle clip-path="url(#clip332)" cx="2293.23" cy="401.562" r="14" fill="#e26f46" fill-rule="evenodd" fill-opacity="1" stroke="#000000" stroke-opacity="1" stroke-width="3.2"/>
<polyline clip-path="url(#clip332)" style="stroke:#3da44d; stroke-linecap:butt; stroke-linejoin:round; stroke-width:8; stroke-opacity:1; fill:none" points="
  309.067,1394.22 391.74,1090.91 474.414,842.744 557.087,649.727 639.761,511.858 722.434,401.562 805.108,318.841 887.781,263.693 970.455,236.119 1053.13,208.545 
  1135.8,180.971 1218.48,180.971 1301.15,180.971 1383.82,180.971 1466.5,180.971 1549.17,180.971 1631.84,180.971 1714.52,180.971 1797.19,180.971 1879.86,180.971 
  1962.54,180.971 2045.21,180.971 2127.88,180.971 2210.56,180.971 2293.23,180.971 
  "/>
<circle clip-path="url(#clip332)" cx="309.067" cy="1394.22" r="14" fill="#3da44d" fill-rule="evenodd" fill-opacity="1" stroke="#000000" stroke-opacity="1" stroke-width="3.2"/>
<circle clip-path="url(#clip332)" cx="391.74" cy="1090.91" r="14" fill="#3da44d" fill-rule="evenodd" fill-opacity="1" stroke="#000000" stroke-opacity="1" stroke-width="3.2"/>
<circle clip-path="url(#clip332)" cx="474.414" cy="842.744" r="14" fill="#3da44d" fill-rule="evenodd" fill-opacity="1" stroke="#000000" stroke-opacity="1" stroke-width="3.2"/>
<circle clip-path="url(#clip332)" cx="557.087" cy="649.727" r="14" fill="#3da44d" fill-rule="evenodd" fill-opacity="1" stroke="#000000" stroke-opacity="1" stroke-width="3.2"/>
<circle clip-path="url(#clip332)" cx="639.761" cy="511.858" r="14" fill="#3da44d" fill-rule="evenodd" fill-opacity="1" stroke="#000000" stroke-opacity="1" stroke-width="3.2"/>
<circle clip-path="url(#clip332)" cx="722.434" cy="401.562" r="14" fill="#3da44d" fill-rule="evenodd" fill-opacity="1" stroke="#000000" stroke-opacity="1" stroke-width="3.2"/>
<circle clip-path="url(#clip332)" cx="805.108" cy="318.841" r="14" fill="#3da44d" fill-rule="evenodd" fill-opacity="1" stroke="#000000" stroke-opacity="1" stroke-width="3.2"/>
<circle clip-path="url(#clip332)" cx="887.781" cy="263.693" r="14" fill="#3da44d" fill-rule="evenodd" fill-opacity="1" stroke="#000000" stroke-opacity="1" stroke-width="3.2"/>
<circle clip-path="url(#clip332)" cx="970.455" cy="236.119" r="14" fill="#3da44d" fill-rule="evenodd" fill-opacity="1" stroke="#000000" stroke-opacity="1" stroke-width="3.2"/>
<circle clip-path="url(#clip332)" cx="1053.13" cy="208.545" r="14" fill="#3da44d" fill-rule="evenodd" fill-opacity="1" stroke="#000000" stroke-opacity="1" stroke-width="3.2"/>
<circle clip-path="url(#clip332)" cx="1135.8" cy="180.971" r="14" fill="#3da44d" fill-rule="evenodd" fill-opacity="1" stroke="#000000" stroke-opacity="1" stroke-width="3.2"/>
<circle clip-path="url(#clip332)" cx="1218.48" cy="180.971" r="14" fill="#3da44d" fill-rule="evenodd" fill-opacity="1" stroke="#000000" stroke-opacity="1" stroke-width="3.2"/>
<circle clip-path="url(#clip332)" cx="1301.15" cy="180.971" r="14" fill="#3da44d" fill-rule="evenodd" fill-opacity="1" stroke="#000000" stroke-opacity="1" stroke-width="3.2"/>
<circle clip-path="url(#clip332)" cx="1383.82" cy="180.971" r="14" fill="#3da44d" fill-rule="evenodd" fill-opacity="1" stroke="#000000" stroke-opacity="1" stroke-width="3.2"/>
<circle clip-path="url(#clip332)" cx="1466.5" cy="180.971" r="14" fill="#3da44d" fill-rule="evenodd" fill-opacity="1" stroke="#000000" stroke-opacity="1" stroke-width="3.2"/>
<circle clip-path="url(#clip332)" cx="1549.17" cy="180.971" r="14" fill="#3da44d" fill-rule="evenodd" fill-opacity="1" stroke="#000000" stroke-opacity="1" stroke-width="3.2"/>
<circle clip-path="url(#clip332)" cx="1631.84" cy="180.971" r="14" fill="#3da44d" fill-rule="evenodd" fill-opacity="1" stroke="#000000" stroke-opacity="1" stroke-width="3.2"/>
<circle clip-path="url(#clip332)" cx="1714.52" cy="180.971" r="14" fill="#3da44d" fill-rule="evenodd" fill-opacity="1" stroke="#000000" stroke-opacity="1" stroke-width="3.2"/>
<circle clip-path="url(#clip332)" cx="1797.19" cy="180.971" r="14" fill="#3da44d" fill-rule="evenodd" fill-opacity="1" stroke="#000000" stroke-opacity="1" stroke-width="3.2"/>
<circle clip-path="url(#clip332)" cx="1879.86" cy="180.971" r="14" fill="#3da44d" fill-rule="evenodd" fill-opacity="1" stroke="#000000" stroke-opacity="1" stroke-width="3.2"/>
<circle clip-path="url(#clip332)" cx="1962.54" cy="180.971" r="14" fill="#3da44d" fill-rule="evenodd" fill-opacity="1" stroke="#000000" stroke-opacity="1" stroke-width="3.2"/>
<circle clip-path="url(#clip332)" cx="2045.21" cy="180.971" r="14" fill="#3da44d" fill-rule="evenodd" fill-opacity="1" stroke="#000000" stroke-opacity="1" stroke-width="3.2"/>
<circle clip-path="url(#clip332)" cx="2127.88" cy="180.971" r="14" fill="#3da44d" fill-rule="evenodd" fill-opacity="1" stroke="#000000" stroke-opacity="1" stroke-width="3.2"/>
<circle clip-path="url(#clip332)" cx="2210.56" cy="180.971" r="14" fill="#3da44d" fill-rule="evenodd" fill-opacity="1" stroke="#000000" stroke-opacity="1" stroke-width="3.2"/>
<circle clip-path="url(#clip332)" cx="2293.23" cy="180.971" r="14" fill="#3da44d" fill-rule="evenodd" fill-opacity="1" stroke="#000000" stroke-opacity="1" stroke-width="3.2"/>
<path clip-path="url(#clip330)" d="
M1850.39 300.469 L2282.65 300.469 L2282.65 93.1086 L1850.39 93.1086  Z
  " fill="#ffffff" fill-rule="evenodd" fill-opacity="1"/>
<polyline clip-path="url(#clip330)" style="stroke:#000000; stroke-linecap:butt; stroke-linejoin:round; stroke-width:4; stroke-opacity:1; fill:none" points="
  1850.39,300.469 2282.65,300.469 2282.65,93.1086 1850.39,93.1086 1850.39,300.469 
  "/>
<polyline clip-path="url(#clip330)" style="stroke:#009af9; stroke-linecap:butt; stroke-linejoin:round; stroke-width:4; stroke-opacity:1; fill:none" points="
  1873.76,144.949 2013.98,144.949 
  "/>
<circle clip-path="url(#clip330)" cx="1943.87" cy="144.949" r="23" fill="#009af9" fill-rule="evenodd" fill-opacity="1" stroke="#000000" stroke-opacity="1" stroke-width="5.12"/>
<path clip-path="url(#clip330)" d="M2041.63 160.631 L2041.63 172.09 L2037.35 172.09 L2037.35 136.465 Q2037.35 125.909 2047.21 125.909 Q2057.25 125.909 2057.25 134.821 Q2057.25 141.164 2053.27 143.479 Q2059.75 145.562 2059.75 151.743 Q2059.75 162.715 2048.6 162.715 Q2043.69 162.715 2041.63 160.631 M2041.63 155.076 Q2044.2 159.08 2048.76 159.08 Q2055.43 159.08 2055.43 151.812 Q2055.43 145.284 2044.68 145.794 L2044.68 141.858 Q2053.09 141.858 2053.09 134.451 Q2053.09 129.382 2047.67 129.382 Q2041.63 129.382 2041.63 136.604 L2041.63 155.076 Z" fill="#000000" fill-rule="evenodd" fill-opacity="1" /><path clip-path="url(#clip330)" d="M2083.25 140.701 L2112.93 140.701 L2112.93 144.59 L2083.25 144.59 L2083.25 140.701 M2083.25 150.145 L2112.93 150.145 L2112.93 154.081 L2083.25 154.081 L2083.25 150.145 Z" fill="#000000" fill-rule="evenodd" fill-opacity="1" /><path clip-path="url(#clip330)" d="M2148.09 130.747 Q2144.48 130.747 2142.65 134.312 Q2140.84 137.854 2140.84 144.983 Q2140.84 152.09 2142.65 155.655 Q2144.48 159.196 2148.09 159.196 Q2151.72 159.196 2153.53 155.655 Q2155.36 152.09 2155.36 144.983 Q2155.36 137.854 2153.53 134.312 Q2151.72 130.747 2148.09 130.747 M2148.09 127.044 Q2153.9 127.044 2156.95 131.65 Q2160.03 136.233 2160.03 144.983 Q2160.03 153.71 2156.95 158.317 Q2153.9 162.9 2148.09 162.9 Q2142.28 162.9 2139.2 158.317 Q2136.14 153.71 2136.14 144.983 Q2136.14 136.233 2139.2 131.65 Q2142.28 127.044 2148.09 127.044 Z" fill="#000000" fill-rule="evenodd" fill-opacity="1" /><path clip-path="url(#clip330)" d="M2168.25 156.349 L2173.13 156.349 L2173.13 162.229 L2168.25 162.229 L2168.25 156.349 Z" fill="#000000" fill-rule="evenodd" fill-opacity="1" /><path clip-path="url(#clip330)" d="M2183.46 161.511 L2183.46 157.252 Q2185.22 158.085 2187.02 158.525 Q2188.83 158.965 2190.56 158.965 Q2195.19 158.965 2197.62 155.863 Q2200.08 152.738 2200.42 146.395 Q2199.08 148.386 2197.02 149.451 Q2194.96 150.516 2192.46 150.516 Q2187.28 150.516 2184.24 147.391 Q2181.24 144.243 2181.24 138.803 Q2181.24 133.479 2184.38 130.261 Q2187.53 127.044 2192.76 127.044 Q2198.76 127.044 2201.91 131.65 Q2205.08 136.233 2205.08 144.983 Q2205.08 153.155 2201.19 158.039 Q2197.32 162.9 2190.77 162.9 Q2189.01 162.9 2187.21 162.553 Q2185.4 162.205 2183.46 161.511 M2192.76 146.858 Q2195.91 146.858 2197.74 144.706 Q2199.59 142.553 2199.59 138.803 Q2199.59 135.076 2197.74 132.923 Q2195.91 130.747 2192.76 130.747 Q2189.61 130.747 2187.76 132.923 Q2185.93 135.076 2185.93 138.803 Q2185.93 142.553 2187.76 144.706 Q2189.61 146.858 2192.76 146.858 Z" fill="#000000" fill-rule="evenodd" fill-opacity="1" /><polyline clip-path="url(#clip330)" style="stroke:#e26f46; stroke-linecap:butt; stroke-linejoin:round; stroke-width:4; stroke-opacity:1; fill:none" points="
  1873.76,196.789 2013.98,196.789 
  "/>
<circle clip-path="url(#clip330)" cx="1943.87" cy="196.789" r="23" fill="#e26f46" fill-rule="evenodd" fill-opacity="1" stroke="#000000" stroke-opacity="1" stroke-width="5.12"/>
<path clip-path="url(#clip330)" d="M2041.63 212.471 L2041.63 223.93 L2037.35 223.93 L2037.35 188.305 Q2037.35 177.749 2047.21 177.749 Q2057.25 177.749 2057.25 186.661 Q2057.25 193.004 2053.27 195.319 Q2059.75 197.402 2059.75 203.583 Q2059.75 214.555 2048.6 214.555 Q2043.69 214.555 2041.63 212.471 M2041.63 206.916 Q2044.2 210.92 2048.76 210.92 Q2055.43 210.92 2055.43 203.652 Q2055.43 197.124 2044.68 197.634 L2044.68 193.698 Q2053.09 193.698 2053.09 186.291 Q2053.09 181.222 2047.67 181.222 Q2041.63 181.222 2041.63 188.444 L2041.63 206.916 Z" fill="#000000" fill-rule="evenodd" fill-opacity="1" /><path clip-path="url(#clip330)" d="M2083.25 192.541 L2112.93 192.541 L2112.93 196.43 L2083.25 196.43 L2083.25 192.541 M2083.25 201.985 L2112.93 201.985 L2112.93 205.921 L2083.25 205.921 L2083.25 201.985 Z" fill="#000000" fill-rule="evenodd" fill-opacity="1" /><path clip-path="url(#clip330)" d="M2148.09 182.587 Q2144.48 182.587 2142.65 186.152 Q2140.84 189.694 2140.84 196.823 Q2140.84 203.93 2142.65 207.495 Q2144.48 211.036 2148.09 211.036 Q2151.72 211.036 2153.53 207.495 Q2155.36 203.93 2155.36 196.823 Q2155.36 189.694 2153.53 186.152 Q2151.72 182.587 2148.09 182.587 M2148.09 178.884 Q2153.9 178.884 2156.95 183.49 Q2160.03 188.073 2160.03 196.823 Q2160.03 205.55 2156.95 210.157 Q2153.9 214.74 2148.09 214.74 Q2142.28 214.74 2139.2 210.157 Q2136.14 205.55 2136.14 196.823 Q2136.14 188.073 2139.2 183.49 Q2142.28 178.884 2148.09 178.884 Z" fill="#000000" fill-rule="evenodd" fill-opacity="1" /><path clip-path="url(#clip330)" d="M2168.25 208.189 L2173.13 208.189 L2173.13 214.069 L2168.25 214.069 L2168.25 208.189 Z" fill="#000000" fill-rule="evenodd" fill-opacity="1" /><path clip-path="url(#clip330)" d="M2183.46 213.351 L2183.46 209.092 Q2185.22 209.925 2187.02 210.365 Q2188.83 210.805 2190.56 210.805 Q2195.19 210.805 2197.62 207.703 Q2200.08 204.578 2200.42 198.235 Q2199.08 200.226 2197.02 201.291 Q2194.96 202.356 2192.46 202.356 Q2187.28 202.356 2184.24 199.231 Q2181.24 196.083 2181.24 190.643 Q2181.24 185.319 2184.38 182.101 Q2187.53 178.884 2192.76 178.884 Q2198.76 178.884 2201.91 183.49 Q2205.08 188.073 2205.08 196.823 Q2205.08 204.995 2201.19 209.879 Q2197.32 214.74 2190.77 214.74 Q2189.01 214.74 2187.21 214.393 Q2185.4 214.045 2183.46 213.351 M2192.76 198.698 Q2195.91 198.698 2197.74 196.546 Q2199.59 194.393 2199.59 190.643 Q2199.59 186.916 2197.74 184.763 Q2195.91 182.587 2192.76 182.587 Q2189.61 182.587 2187.76 184.763 Q2185.93 186.916 2185.93 190.643 Q2185.93 194.393 2187.76 196.546 Q2189.61 198.698 2192.76 198.698 Z" fill="#000000" fill-rule="evenodd" fill-opacity="1" /><path clip-path="url(#clip330)" d="M2226.33 183.583 L2214.52 202.032 L2226.33 202.032 L2226.33 183.583 M2225.1 179.509 L2230.98 179.509 L2230.98 202.032 L2235.91 202.032 L2235.91 205.921 L2230.98 205.921 L2230.98 214.069 L2226.33 214.069 L2226.33 205.921 L2210.73 205.921 L2210.73 201.407 L2225.1 179.509 Z" fill="#000000" fill-rule="evenodd" fill-opacity="1" /><polyline clip-path="url(#clip330)" style="stroke:#3da44d; stroke-linecap:butt; stroke-linejoin:round; stroke-width:4; stroke-opacity:1; fill:none" points="
  1873.76,248.629 2013.98,248.629 
  "/>
<circle clip-path="url(#clip330)" cx="1943.87" cy="248.629" r="23" fill="#3da44d" fill-rule="evenodd" fill-opacity="1" stroke="#000000" stroke-opacity="1" stroke-width="5.12"/>
<path clip-path="url(#clip330)" d="M2041.63 264.311 L2041.63 275.77 L2037.35 275.77 L2037.35 240.145 Q2037.35 229.589 2047.21 229.589 Q2057.25 229.589 2057.25 238.501 Q2057.25 244.844 2053.27 247.159 Q2059.75 249.242 2059.75 255.423 Q2059.75 266.395 2048.6 266.395 Q2043.69 266.395 2041.63 264.311 M2041.63 258.756 Q2044.2 262.76 2048.76 262.76 Q2055.43 262.76 2055.43 255.492 Q2055.43 248.964 2044.68 249.474 L2044.68 245.538 Q2053.09 245.538 2053.09 238.131 Q2053.09 233.062 2047.67 233.062 Q2041.63 233.062 2041.63 240.284 L2041.63 258.756 Z" fill="#000000" fill-rule="evenodd" fill-opacity="1" /><path clip-path="url(#clip330)" d="M2083.25 244.381 L2112.93 244.381 L2112.93 248.27 L2083.25 248.27 L2083.25 244.381 M2083.25 253.825 L2112.93 253.825 L2112.93 257.761 L2083.25 257.761 L2083.25 253.825 Z" fill="#000000" fill-rule="evenodd" fill-opacity="1" /><path clip-path="url(#clip330)" d="M2148.09 234.427 Q2144.48 234.427 2142.65 237.992 Q2140.84 241.534 2140.84 248.663 Q2140.84 255.77 2142.65 259.335 Q2144.48 262.876 2148.09 262.876 Q2151.72 262.876 2153.53 259.335 Q2155.36 255.77 2155.36 248.663 Q2155.36 241.534 2153.53 237.992 Q2151.72 234.427 2148.09 234.427 M2148.09 230.724 Q2153.9 230.724 2156.95 235.33 Q2160.03 239.913 2160.03 248.663 Q2160.03 257.39 2156.95 261.997 Q2153.9 266.58 2148.09 266.58 Q2142.28 266.58 2139.2 261.997 Q2136.14 257.39 2136.14 248.663 Q2136.14 239.913 2139.2 235.33 Q2142.28 230.724 2148.09 230.724 Z" fill="#000000" fill-rule="evenodd" fill-opacity="1" /><path clip-path="url(#clip330)" d="M2168.25 260.029 L2173.13 260.029 L2173.13 265.909 L2168.25 265.909 L2168.25 260.029 Z" fill="#000000" fill-rule="evenodd" fill-opacity="1" /><path clip-path="url(#clip330)" d="M2183.46 265.191 L2183.46 260.932 Q2185.22 261.765 2187.02 262.205 Q2188.83 262.645 2190.56 262.645 Q2195.19 262.645 2197.62 259.543 Q2200.08 256.418 2200.42 250.075 Q2199.08 252.066 2197.02 253.131 Q2194.96 254.196 2192.46 254.196 Q2187.28 254.196 2184.24 251.071 Q2181.24 247.923 2181.24 242.483 Q2181.24 237.159 2184.38 233.941 Q2187.53 230.724 2192.76 230.724 Q2198.76 230.724 2201.91 235.33 Q2205.08 239.913 2205.08 248.663 Q2205.08 256.835 2201.19 261.719 Q2197.32 266.58 2190.77 266.58 Q2189.01 266.58 2187.21 266.233 Q2185.4 265.885 2183.46 265.191 M2192.76 250.538 Q2195.91 250.538 2197.74 248.386 Q2199.59 246.233 2199.59 242.483 Q2199.59 238.756 2197.74 236.603 Q2195.91 234.427 2192.76 234.427 Q2189.61 234.427 2187.76 236.603 Q2185.93 238.756 2185.93 242.483 Q2185.93 246.233 2187.76 248.386 Q2189.61 250.538 2192.76 250.538 Z" fill="#000000" fill-rule="evenodd" fill-opacity="1" /><path clip-path="url(#clip330)" d="M2223.48 249.497 Q2220.15 249.497 2218.23 251.279 Q2216.33 253.061 2216.33 256.186 Q2216.33 259.311 2218.23 261.094 Q2220.15 262.876 2223.48 262.876 Q2226.81 262.876 2228.73 261.094 Q2230.66 259.288 2230.66 256.186 Q2230.66 253.061 2228.73 251.279 Q2226.84 249.497 2223.48 249.497 M2218.8 247.506 Q2215.8 246.765 2214.11 244.705 Q2212.44 242.645 2212.44 239.682 Q2212.44 235.538 2215.38 233.131 Q2218.34 230.724 2223.48 230.724 Q2228.64 230.724 2231.58 233.131 Q2234.52 235.538 2234.52 239.682 Q2234.52 242.645 2232.83 244.705 Q2231.17 246.765 2228.18 247.506 Q2231.56 248.293 2233.43 250.585 Q2235.33 252.876 2235.33 256.186 Q2235.33 261.21 2232.25 263.895 Q2229.2 266.58 2223.48 266.58 Q2217.76 266.58 2214.68 263.895 Q2211.63 261.21 2211.63 256.186 Q2211.63 252.876 2213.53 250.585 Q2215.42 248.293 2218.8 247.506 M2217.09 240.122 Q2217.09 242.807 2218.76 244.312 Q2220.45 245.816 2223.48 245.816 Q2226.49 245.816 2228.18 244.312 Q2229.89 242.807 2229.89 240.122 Q2229.89 237.437 2228.18 235.932 Q2226.49 234.427 2223.48 234.427 Q2220.45 234.427 2218.76 235.932 Q2217.09 237.437 2217.09 240.122 Z" fill="#000000" fill-rule="evenodd" fill-opacity="1" /></svg>
