<?xml version="1.0" encoding="utf-8"?>
<svg xmlns="http://www.w3.org/2000/svg" xmlns:xlink="http://www.w3.org/1999/xlink" width="600" height="400" viewBox="0 0 2400 1600">
<defs>
  <clipPath id="clip830">
    <rect x="0" y="0" width="2400" height="1600"/>
  </clipPath>
</defs>
<path clip-path="url(#clip830)" d="
M0 1600 L2400 1600 L2400 0 L0 0  Z
  " fill="#ffffff" fill-rule="evenodd" fill-opacity="1"/>
<defs>
  <clipPath id="clip831">
    <rect x="480" y="0" width="1681" height="1600"/>
  </clipPath>
</defs>
<path clip-path="url(#clip830)" d="
M112.177 1423.18 L2352.76 1423.18 L2352.76 123.472 L112.177 123.472  Z
  " fill="#ffffff" fill-rule="evenodd" fill-opacity="1"/>
<defs>
  <clipPath id="clip832">
    <rect x="112" y="123" width="2242" height="1301"/>
  </clipPath>
</defs>
<polyline clip-path="url(#clip832)" style="stroke:#000000; stroke-linecap:round; stroke-linejoin:round; stroke-width:2; stroke-opacity:0.1; fill:none" points="
  168.544,1423.18 168.544,123.472 
  "/>
<polyline clip-path="url(#clip832)" style="stroke:#000000; stroke-linecap:round; stroke-linejoin:round; stroke-width:2; stroke-opacity:0.1; fill:none" points="
  873.128,1423.18 873.128,123.472 
  "/>
<polyline clip-path="url(#clip832)" style="stroke:#000000; stroke-linecap:round; stroke-linejoin:round; stroke-width:2; stroke-opacity:0.1; fill:none" points="
  1577.71,1423.18 1577.71,123.472 
  "/>
<polyline clip-path="url(#clip832)" style="stroke:#000000; stroke-linecap:round; stroke-linejoin:round; stroke-width:2; stroke-opacity:0.1; fill:none" points="
  2282.3,1423.18 2282.3,123.472 
  "/>
<polyline clip-path="url(#clip830)" style="stroke:#000000; stroke-linecap:round; stroke-linejoin:round; stroke-width:4; stroke-opacity:1; fill:none" points="
  112.177,1423.18 2352.76,1423.18 
  "/>
<polyline clip-path="url(#clip830)" style="stroke:#000000; stroke-linecap:round; stroke-linejoin:round; stroke-width:4; stroke-opacity:1; fill:none" points="
  168.544,1423.18 168.544,1404.28 
  "/>
<polyline clip-path="url(#clip830)" style="stroke:#000000; stroke-linecap:round; stroke-linejoin:round; stroke-width:4; stroke-opacity:1; fill:none" points="
  873.128,1423.18 873.128,1404.28 
  "/>
<polyline clip-path="url(#clip830)" style="stroke:#000000; stroke-linecap:round; stroke-linejoin:round; stroke-width:4; stroke-opacity:1; fill:none" points="
  1577.71,1423.18 1577.71,1404.28 
  "/>
<polyline clip-path="url(#clip830)" style="stroke:#000000; stroke-linecap:round; stroke-linejoin:round; stroke-width:4; stroke-opacity:1; fill:none" points="
  2282.3,1423.18 2282.3,1404.28 
  "/>
<path clip-path="url(#clip830)" d="M168.544 1454.1 Q164.933 1454.1 163.104 1457.66 Q161.299 1461.2 161.299 1468.33 Q161.299 1475.44 163.104 1479.01 Q164.933 1482.55 168.544 1482.55 Q172.178 1482.55 173.984 1479.01 Q175.812 1475.44 175.812 1468.33 Q175.812 1461.2 173.984 1457.66 Q172.178 1454.1 168.544 1454.1 M168.544 1450.39 Q174.354 1450.39 177.41 1455 Q180.488 1459.58 180.488 1468.33 Q180.488 1477.06 177.41 1481.67 Q174.354 1486.25 168.544 1486.25 Q162.734 1486.25 159.655 1481.67 Q156.6 1477.06 156.6 1468.33 Q156.6 1459.58 159.655 1455 Q162.734 1450.39 168.544 1450.39 Z" fill="#000000" fill-rule="evenodd" fill-opacity="1" /><path clip-path="url(#clip830)" d="M832.735 1481.64 L840.374 1481.64 L840.374 1455.28 L832.064 1456.95 L832.064 1452.69 L840.328 1451.02 L845.004 1451.02 L845.004 1481.64 L852.642 1481.64 L852.642 1485.58 L832.735 1485.58 L832.735 1481.64 Z" fill="#000000" fill-rule="evenodd" fill-opacity="1" /><path clip-path="url(#clip830)" d="M872.087 1454.1 Q868.476 1454.1 866.647 1457.66 Q864.841 1461.2 864.841 1468.33 Q864.841 1475.44 866.647 1479.01 Q868.476 1482.55 872.087 1482.55 Q875.721 1482.55 877.527 1479.01 Q879.355 1475.44 879.355 1468.33 Q879.355 1461.2 877.527 1457.66 Q875.721 1454.1 872.087 1454.1 M872.087 1450.39 Q877.897 1450.39 880.952 1455 Q884.031 1459.58 884.031 1468.33 Q884.031 1477.06 880.952 1481.67 Q877.897 1486.25 872.087 1486.25 Q866.277 1486.25 863.198 1481.67 Q860.142 1477.06 860.142 1468.33 Q860.142 1459.58 863.198 1455 Q866.277 1450.39 872.087 1450.39 Z" fill="#000000" fill-rule="evenodd" fill-opacity="1" /><path clip-path="url(#clip830)" d="M902.249 1454.1 Q898.638 1454.1 896.809 1457.66 Q895.003 1461.2 895.003 1468.33 Q895.003 1475.44 896.809 1479.01 Q898.638 1482.55 902.249 1482.55 Q905.883 1482.55 907.688 1479.01 Q909.517 1475.44 909.517 1468.33 Q909.517 1461.2 907.688 1457.66 Q905.883 1454.1 902.249 1454.1 M902.249 1450.39 Q908.059 1450.39 911.114 1455 Q914.193 1459.58 914.193 1468.33 Q914.193 1477.06 911.114 1481.67 Q908.059 1486.25 902.249 1486.25 Q896.439 1486.25 893.36 1481.67 Q890.304 1477.06 890.304 1468.33 Q890.304 1459.58 893.36 1455 Q896.439 1450.39 902.249 1450.39 Z" fill="#000000" fill-rule="evenodd" fill-opacity="1" /><path clip-path="url(#clip830)" d="M1541.41 1481.64 L1557.72 1481.64 L1557.72 1485.58 L1535.78 1485.58 L1535.78 1481.64 Q1538.44 1478.89 1543.03 1474.26 Q1547.63 1469.61 1548.81 1468.27 Q1551.06 1465.74 1551.94 1464.01 Q1552.84 1462.25 1552.84 1460.56 Q1552.84 1457.8 1550.9 1456.07 Q1548.97 1454.33 1545.87 1454.33 Q1543.67 1454.33 1541.22 1455.09 Q1538.79 1455.86 1536.01 1457.41 L1536.01 1452.69 Q1538.84 1451.55 1541.29 1450.97 Q1543.74 1450.39 1545.78 1450.39 Q1551.15 1450.39 1554.35 1453.08 Q1557.54 1455.77 1557.54 1460.26 Q1557.54 1462.39 1556.73 1464.31 Q1555.94 1466.2 1553.84 1468.8 Q1553.26 1469.47 1550.16 1472.69 Q1547.05 1475.88 1541.41 1481.64 Z" fill="#000000" fill-rule="evenodd" fill-opacity="1" /><path clip-path="url(#clip830)" d="M1577.54 1454.1 Q1573.93 1454.1 1572.1 1457.66 Q1570.29 1461.2 1570.29 1468.33 Q1570.29 1475.44 1572.1 1479.01 Q1573.93 1482.55 1577.54 1482.55 Q1581.17 1482.55 1582.98 1479.01 Q1584.81 1475.44 1584.81 1468.33 Q1584.81 1461.2 1582.98 1457.66 Q1581.17 1454.1 1577.54 1454.1 M1577.54 1450.39 Q1583.35 1450.39 1586.41 1455 Q1589.48 1459.58 1589.48 1468.33 Q1589.48 1477.06 1586.41 1481.67 Q1583.35 1486.25 1577.54 1486.25 Q1571.73 1486.25 1568.65 1481.67 Q1565.59 1477.06 1565.59 1468.33 Q1565.59 1459.58 1568.65 1455 Q1571.73 1450.39 1577.54 1450.39 Z" fill="#000000" fill-rule="evenodd" fill-opacity="1" /><path clip-path="url(#clip830)" d="M1607.7 1454.1 Q1604.09 1454.1 1602.26 1457.66 Q1600.46 1461.2 1600.46 1468.33 Q1600.46 1475.44 1602.26 1479.01 Q1604.09 1482.55 1607.7 1482.55 Q1611.34 1482.55 1613.14 1479.01 Q1614.97 1475.44 1614.97 1468.33 Q1614.97 1461.2 1613.14 1457.66 Q1611.34 1454.1 1607.7 1454.1 M1607.7 1450.39 Q1613.51 1450.39 1616.57 1455 Q1619.65 1459.58 1619.65 1468.33 Q1619.65 1477.06 1616.57 1481.67 Q1613.51 1486.25 1607.7 1486.25 Q1601.89 1486.25 1598.81 1481.67 Q1595.76 1477.06 1595.76 1468.33 Q1595.76 1459.58 1598.81 1455 Q1601.89 1450.39 1607.7 1450.39 Z" fill="#000000" fill-rule="evenodd" fill-opacity="1" /><path clip-path="url(#clip830)" d="M2256.06 1466.95 Q2259.42 1467.66 2261.29 1469.93 Q2263.19 1472.2 2263.19 1475.53 Q2263.19 1480.65 2259.67 1483.45 Q2256.15 1486.25 2249.67 1486.25 Q2247.49 1486.25 2245.18 1485.81 Q2242.89 1485.39 2240.43 1484.54 L2240.43 1480.02 Q2242.38 1481.16 2244.69 1481.74 Q2247.01 1482.32 2249.53 1482.32 Q2253.93 1482.32 2256.22 1480.58 Q2258.54 1478.84 2258.54 1475.53 Q2258.54 1472.48 2256.38 1470.77 Q2254.25 1469.03 2250.43 1469.03 L2246.41 1469.03 L2246.41 1465.19 L2250.62 1465.19 Q2254.07 1465.19 2255.9 1463.82 Q2257.73 1462.43 2257.73 1459.84 Q2257.73 1457.18 2255.83 1455.77 Q2253.95 1454.33 2250.43 1454.33 Q2248.51 1454.33 2246.31 1454.75 Q2244.11 1455.16 2241.48 1456.04 L2241.48 1451.88 Q2244.14 1451.14 2246.45 1450.77 Q2248.79 1450.39 2250.85 1450.39 Q2256.17 1450.39 2259.28 1452.83 Q2262.38 1455.23 2262.38 1459.35 Q2262.38 1462.22 2260.74 1464.21 Q2259.09 1466.18 2256.06 1466.95 Z" fill="#000000" fill-rule="evenodd" fill-opacity="1" /><path clip-path="url(#clip830)" d="M2282.05 1454.1 Q2278.44 1454.1 2276.61 1457.66 Q2274.81 1461.2 2274.81 1468.33 Q2274.81 1475.44 2276.61 1479.01 Q2278.44 1482.55 2282.05 1482.55 Q2285.69 1482.55 2287.49 1479.01 Q2289.32 1475.44 2289.32 1468.33 Q2289.32 1461.2 2287.49 1457.66 Q2285.69 1454.1 2282.05 1454.1 M2282.05 1450.39 Q2287.86 1450.39 2290.92 1455 Q2294 1459.58 2294 1468.33 Q2294 1477.06 2290.92 1481.67 Q2287.86 1486.25 2282.05 1486.25 Q2276.24 1486.25 2273.17 1481.67 Q2270.11 1477.06 2270.11 1468.33 Q2270.11 1459.58 2273.17 1455 Q2276.24 1450.39 2282.05 1450.39 Z" fill="#000000" fill-rule="evenodd" fill-opacity="1" /><path clip-path="url(#clip830)" d="M2312.22 1454.1 Q2308.61 1454.1 2306.78 1457.66 Q2304.97 1461.2 2304.97 1468.33 Q2304.97 1475.44 2306.78 1479.01 Q2308.61 1482.55 2312.22 1482.55 Q2315.85 1482.55 2317.66 1479.01 Q2319.48 1475.44 2319.48 1468.33 Q2319.48 1461.2 2317.66 1457.66 Q2315.85 1454.1 2312.22 1454.1 M2312.22 1450.39 Q2318.03 1450.39 2321.08 1455 Q2324.16 1459.58 2324.16 1468.33 Q2324.16 1477.06 2321.08 1481.67 Q2318.03 1486.25 2312.22 1486.25 Q2306.41 1486.25 2303.33 1481.67 Q2300.27 1477.06 2300.27 1468.33 Q2300.27 1459.58 2303.33 1455 Q2306.41 1450.39 2312.22 1450.39 Z" fill="#000000" fill-rule="evenodd" fill-opacity="1" /><path clip-path="url(#clip830)" d="M1240.94 1531.91 Q1240.94 1532.81 1240.52 1533.04 Q1240.1 1533.23 1238.94 1533.23 L1232.76 1533.23 L1227.86 1552.69 Q1227.48 1554.39 1227.48 1555.84 Q1227.48 1557.45 1227.96 1558.16 Q1228.47 1558.87 1229.54 1558.87 Q1231.63 1558.87 1233.88 1556.97 Q1236.17 1555.07 1238.1 1550.43 Q1238.36 1549.82 1238.49 1549.69 Q1238.65 1549.53 1239.07 1549.53 Q1239.87 1549.53 1239.87 1550.17 Q1239.87 1550.4 1239.42 1551.43 Q1239.01 1552.46 1238.07 1553.97 Q1237.17 1555.49 1235.98 1556.9 Q1234.82 1558.32 1233.05 1559.35 Q1231.28 1560.35 1229.38 1560.35 Q1226.7 1560.35 1225 1558.64 Q1223.32 1556.94 1223.32 1554.26 Q1223.32 1553.39 1224 1550.62 Q1224.67 1547.82 1228.35 1533.23 L1222.52 1533.23 Q1221.71 1533.23 1221.39 1533.2 Q1221.1 1533.17 1220.87 1533.01 Q1220.68 1532.81 1220.68 1532.43 Q1220.68 1531.82 1220.94 1531.56 Q1221.2 1531.27 1221.52 1531.24 Q1221.87 1531.17 1222.68 1531.17 L1228.86 1531.17 L1231.44 1520.71 Q1231.69 1519.67 1232.34 1519.09 Q1233.01 1518.48 1233.4 1518.42 Q1233.79 1518.32 1234.08 1518.32 Q1234.95 1518.32 1235.46 1518.81 Q1235.98 1519.26 1235.98 1520.09 Q1235.98 1520.54 1233.27 1531.17 L1239.07 1531.17 Q1239.81 1531.17 1240.1 1531.2 Q1240.42 1531.24 1240.68 1531.4 Q1240.94 1531.56 1240.94 1531.91 Z" fill="#000000" fill-rule="evenodd" fill-opacity="1" /><polyline clip-path="url(#clip832)" style="stroke:#000000; stroke-linecap:round; stroke-linejoin:round; stroke-width:2; stroke-opacity:0.1; fill:none" points="
  112.177,1386.4 2352.76,1386.4 
  "/>
<polyline clip-path="url(#clip832)" style="stroke:#000000; stroke-linecap:round; stroke-linejoin:round; stroke-width:2; stroke-opacity:0.1; fill:none" points="
  112.177,1141.17 2352.76,1141.17 
  "/>
<polyline clip-path="url(#clip832)" style="stroke:#000000; stroke-linecap:round; stroke-linejoin:round; stroke-width:2; stroke-opacity:0.1; fill:none" points="
  112.177,895.94 2352.76,895.94 
  "/>
<polyline clip-path="url(#clip832)" style="stroke:#000000; stroke-linecap:round; stroke-linejoin:round; stroke-width:2; stroke-opacity:0.1; fill:none" points="
  112.177,650.712 2352.76,650.712 
  "/>
<polyline clip-path="url(#clip832)" style="stroke:#000000; stroke-linecap:round; stroke-linejoin:round; stroke-width:2; stroke-opacity:0.1; fill:none" points="
  112.177,405.484 2352.76,405.484 
  "/>
<polyline clip-path="url(#clip832)" style="stroke:#000000; stroke-linecap:round; stroke-linejoin:round; stroke-width:2; stroke-opacity:0.1; fill:none" points="
  112.177,160.256 2352.76,160.256 
  "/>
<polyline clip-path="url(#clip830)" style="stroke:#000000; stroke-linecap:round; stroke-linejoin:round; stroke-width:4; stroke-opacity:1; fill:none" points="
  112.177,1423.18 112.177,123.472 
  "/>
<polyline clip-path="url(#clip830)" style="stroke:#000000; stroke-linecap:round; stroke-linejoin:round; stroke-width:4; stroke-opacity:1; fill:none" points="
  112.177,1386.4 131.075,1386.4 
  "/>
<polyline clip-path="url(#clip830)" style="stroke:#000000; stroke-linecap:round; stroke-linejoin:round; stroke-width:4; stroke-opacity:1; fill:none" points="
  112.177,1141.17 131.075,1141.17 
  "/>
<polyline clip-path="url(#clip830)" style="stroke:#000000; stroke-linecap:round; stroke-linejoin:round; stroke-width:4; stroke-opacity:1; fill:none" points="
  112.177,895.94 131.075,895.94 
  "/>
<polyline clip-path="url(#clip830)" style="stroke:#000000; stroke-linecap:round; stroke-linejoin:round; stroke-width:4; stroke-opacity:1; fill:none" points="
  112.177,650.712 131.075,650.712 
  "/>
<polyline clip-path="url(#clip830)" style="stroke:#000000; stroke-linecap:round; stroke-linejoin:round; stroke-width:4; stroke-opacity:1; fill:none" points="
  112.177,405.484 131.075,405.484 
  "/>
<polyline clip-path="url(#clip830)" style="stroke:#000000; stroke-linecap:round; stroke-linejoin:round; stroke-width:4; stroke-opacity:1; fill:none" points="
  112.177,160.256 131.075,160.256 
  "/>
<path clip-path="url(#clip830)" d="M56.2699 1399.74 L63.9087 1399.74 L63.9087 1373.37 L55.5986 1375.04 L55.5986 1370.78 L63.8624 1369.12 L68.5383 1369.12 L68.5383 1399.74 L76.1772 1399.74 L76.1772 1403.68 L56.2699 1403.68 L56.2699 1399.74 Z" fill="#000000" fill-rule="evenodd" fill-opacity="1" /><path clip-path="url(#clip830)" d="M59.8578 1154.51 L76.1772 1154.51 L76.1772 1158.45 L54.2328 1158.45 L54.2328 1154.51 Q56.8949 1151.76 61.4782 1147.13 Q66.0846 1142.48 67.2652 1141.13 Q69.5105 1138.61 70.3902 1136.87 Q71.2929 1135.11 71.2929 1133.42 Q71.2929 1130.67 69.3485 1128.93 Q67.4272 1127.2 64.3254 1127.2 Q62.1263 1127.2 59.6726 1127.96 Q57.2421 1128.73 54.4643 1130.28 L54.4643 1125.55 Q57.2884 1124.42 59.7421 1123.84 Q62.1958 1123.26 64.2328 1123.26 Q69.6031 1123.26 72.7976 1125.95 Q75.992 1128.63 75.992 1133.12 Q75.992 1135.25 75.1818 1137.17 Q74.3948 1139.07 72.2883 1141.67 Q71.7096 1142.34 68.6078 1145.55 Q65.5059 1148.75 59.8578 1154.51 Z" fill="#000000" fill-rule="evenodd" fill-opacity="1" /><path clip-path="url(#clip830)" d="M69.0476 894.586 Q72.404 895.303 74.279 897.572 Q76.1772 899.84 76.1772 903.174 Q76.1772 908.289 72.6587 911.09 Q69.1402 913.891 62.6587 913.891 Q60.4828 913.891 58.168 913.451 Q55.8764 913.035 53.4227 912.178 L53.4227 907.664 Q55.3671 908.799 57.6819 909.377 Q59.9967 909.956 62.5198 909.956 Q66.918 909.956 69.2096 908.22 Q71.5244 906.484 71.5244 903.174 Q71.5244 900.118 69.3717 898.405 Q67.242 896.669 63.4226 896.669 L59.3949 896.669 L59.3949 892.827 L63.6078 892.827 Q67.0569 892.827 68.8855 891.461 Q70.7142 890.072 70.7142 887.479 Q70.7142 884.817 68.8161 883.405 Q66.9411 881.97 63.4226 881.97 Q61.5013 881.97 59.3023 882.387 Q57.1032 882.803 54.4643 883.683 L54.4643 879.516 Q57.1264 878.776 59.4412 878.405 Q61.7791 878.035 63.8393 878.035 Q69.1633 878.035 72.2652 880.465 Q75.367 882.873 75.367 886.993 Q75.367 889.864 73.7235 891.854 Q72.08 893.822 69.0476 894.586 Z" fill="#000000" fill-rule="evenodd" fill-opacity="1" /><path clip-path="url(#clip830)" d="M66.5939 637.506 L54.7884 655.955 L66.5939 655.955 L66.5939 637.506 M65.367 633.432 L71.2466 633.432 L71.2466 655.955 L76.1772 655.955 L76.1772 659.844 L71.2466 659.844 L71.2466 667.992 L66.5939 667.992 L66.5939 659.844 L50.9921 659.844 L50.9921 655.33 L65.367 633.432 Z" fill="#000000" fill-rule="evenodd" fill-opacity="1" /><path clip-path="url(#clip830)" d="M55.2745 388.204 L73.6309 388.204 L73.6309 392.139 L59.5569 392.139 L59.5569 400.612 Q60.5754 400.264 61.5939 400.102 Q62.6124 399.917 63.6309 399.917 Q69.418 399.917 72.7976 403.088 Q76.1772 406.26 76.1772 411.676 Q76.1772 417.255 72.705 420.357 Q69.2328 423.435 62.9134 423.435 Q60.7374 423.435 58.4689 423.065 Q56.2236 422.695 53.8162 421.954 L53.8162 417.255 Q55.8995 418.389 58.1217 418.945 Q60.3439 419.5 62.8208 419.5 Q66.8254 419.5 69.1633 417.394 Q71.5013 415.287 71.5013 411.676 Q71.5013 408.065 69.1633 405.959 Q66.8254 403.852 62.8208 403.852 Q60.9458 403.852 59.0708 404.269 Q57.2189 404.686 55.2745 405.565 L55.2745 388.204 Z" fill="#000000" fill-rule="evenodd" fill-opacity="1" /><path clip-path="url(#clip830)" d="M64.6495 158.393 Q61.5013 158.393 59.6495 160.546 Q57.8208 162.698 57.8208 166.448 Q57.8208 170.175 59.6495 172.351 Q61.5013 174.504 64.6495 174.504 Q67.7976 174.504 69.6263 172.351 Q71.4781 170.175 71.4781 166.448 Q71.4781 162.698 69.6263 160.546 Q67.7976 158.393 64.6495 158.393 M73.9318 143.74 L73.9318 147.999 Q72.1726 147.166 70.367 146.726 Q68.5846 146.286 66.8254 146.286 Q62.1958 146.286 59.7421 149.411 Q57.3115 152.536 56.9643 158.856 Q58.33 156.842 60.3902 155.777 Q62.4504 154.689 64.9272 154.689 Q70.1355 154.689 73.1448 157.86 Q76.1772 161.009 76.1772 166.448 Q76.1772 171.772 73.029 174.99 Q69.8809 178.208 64.6495 178.208 Q58.6541 178.208 55.4828 173.624 Q52.3116 169.018 52.3116 160.291 Q52.3116 152.097 56.2004 147.236 Q60.0893 142.351 66.6402 142.351 Q68.3994 142.351 70.1818 142.699 Q71.9874 143.046 73.9318 143.74 Z" fill="#000000" fill-rule="evenodd" fill-opacity="1" /><path clip-path="url(#clip830)" d="M436.889 17.6457 Q427.977 17.6457 422.711 24.2892 Q417.485 30.9327 417.485 42.3968 Q417.485 53.8203 422.711 60.4638 Q427.977 67.1073 436.889 67.1073 Q445.801 67.1073 450.986 60.4638 Q456.212 53.8203 456.212 42.3968 Q456.212 30.9327 450.986 24.2892 Q445.801 17.6457 436.889 17.6457 M436.889 11.0023 Q449.609 11.0023 457.225 19.5497 Q464.84 28.0566 464.84 42.3968 Q464.84 56.6965 457.225 65.2439 Q449.609 73.7508 436.889 73.7508 Q424.129 73.7508 416.473 65.2439 Q408.857 56.737 408.857 42.3968 Q408.857 28.0566 416.473 19.5497 Q424.129 11.0023 436.889 11.0023 Z" fill="#000000" fill-rule="evenodd" fill-opacity="1" /><path clip-path="url(#clip830)" d="M476.548 54.671 L476.548 27.2059 L484.001 27.2059 L484.001 54.3874 Q484.001 60.8284 486.513 64.0691 Q489.024 67.2693 494.047 67.2693 Q500.083 67.2693 503.567 63.421 Q507.091 59.5726 507.091 52.9291 L507.091 27.2059 L514.545 27.2059 L514.545 72.576 L507.091 72.576 L507.091 65.6084 Q504.377 69.7404 500.772 71.7658 Q497.207 73.7508 492.468 73.7508 Q484.649 73.7508 480.598 68.8897 Q476.548 64.0286 476.548 54.671 M495.303 26.1121 L495.303 26.1121 Z" fill="#000000" fill-rule="evenodd" fill-opacity="1" /><path clip-path="url(#clip830)" d="M537.271 14.324 L537.271 27.2059 L552.624 27.2059 L552.624 32.9987 L537.271 32.9987 L537.271 57.6282 Q537.271 63.1779 538.769 64.7578 Q540.309 66.3376 544.967 66.3376 L552.624 66.3376 L552.624 72.576 L544.967 72.576 Q536.339 72.576 533.058 69.3758 Q529.776 66.1351 529.776 57.6282 L529.776 32.9987 L524.308 32.9987 L524.308 27.2059 L529.776 27.2059 L529.776 14.324 L537.271 14.324 Z" fill="#000000" fill-rule="evenodd" fill-opacity="1" /><path clip-path="url(#clip830)" d="M569.637 65.7705 L569.637 89.8329 L562.143 89.8329 L562.143 27.2059 L569.637 27.2059 L569.637 34.0924 Q571.987 30.0415 575.552 28.0971 Q579.157 26.1121 584.14 26.1121 Q592.403 26.1121 597.548 32.6746 Q602.733 39.2371 602.733 49.9314 Q602.733 60.6258 597.548 67.1883 Q592.403 73.7508 584.14 73.7508 Q579.157 73.7508 575.552 71.8063 Q571.987 69.8214 569.637 65.7705 M594.996 49.9314 Q594.996 41.7081 591.593 37.0496 Q588.231 32.3505 582.317 32.3505 Q576.402 32.3505 573 37.0496 Q569.637 41.7081 569.637 49.9314 Q569.637 58.1548 573 62.8538 Q576.402 67.5124 582.317 67.5124 Q588.231 67.5124 591.593 62.8538 Q594.996 58.1548 594.996 49.9314 Z" fill="#000000" fill-rule="evenodd" fill-opacity="1" /><path clip-path="url(#clip830)" d="M614.319 54.671 L614.319 27.2059 L621.772 27.2059 L621.772 54.3874 Q621.772 60.8284 624.284 64.0691 Q626.796 67.2693 631.819 67.2693 Q637.855 67.2693 641.338 63.421 Q644.863 59.5726 644.863 52.9291 L644.863 27.2059 L652.316 27.2059 L652.316 72.576 L644.863 72.576 L644.863 65.6084 Q642.149 69.7404 638.543 71.7658 Q634.978 73.7508 630.239 73.7508 Q622.421 73.7508 618.37 68.8897 Q614.319 64.0286 614.319 54.671 M633.074 26.1121 L633.074 26.1121 Z" fill="#000000" fill-rule="evenodd" fill-opacity="1" /><path clip-path="url(#clip830)" d="M675.042 14.324 L675.042 27.2059 L690.395 27.2059 L690.395 32.9987 L675.042 32.9987 L675.042 57.6282 Q675.042 63.1779 676.541 64.7578 Q678.08 66.3376 682.739 66.3376 L690.395 66.3376 L690.395 72.576 L682.739 72.576 Q674.11 72.576 670.829 69.3758 Q667.548 66.1351 667.548 57.6282 L667.548 32.9987 L662.079 32.9987 L662.079 27.2059 L667.548 27.2059 L667.548 14.324 L675.042 14.324 Z" fill="#000000" fill-rule="evenodd" fill-opacity="1" /><path clip-path="url(#clip830)" d="M747.188 49.7694 Q738.155 49.7694 734.671 51.8354 Q731.187 53.9013 731.187 58.8839 Q731.187 62.8538 733.78 65.2034 Q736.413 67.5124 740.91 67.5124 Q747.107 67.5124 750.834 63.1374 Q754.602 58.7219 754.602 51.4303 L754.602 49.7694 L747.188 49.7694 M762.055 46.6907 L762.055 72.576 L754.602 72.576 L754.602 65.6895 Q752.05 69.8214 748.242 71.8063 Q744.434 73.7508 738.925 73.7508 Q731.957 73.7508 727.825 69.8619 Q723.734 65.9325 723.734 59.3701 Q723.734 51.7138 728.838 47.825 Q733.983 43.9361 744.15 43.9361 L754.602 43.9361 L754.602 43.2069 Q754.602 38.0623 751.199 35.2672 Q747.837 32.4315 741.72 32.4315 Q737.831 32.4315 734.145 33.3632 Q730.458 34.295 727.055 36.1584 L727.055 29.2718 Q731.147 27.692 734.995 26.9223 Q738.844 26.1121 742.489 26.1121 Q752.333 26.1121 757.194 31.2163 Q762.055 36.3204 762.055 46.6907 Z" fill="#000000" fill-rule="evenodd" fill-opacity="1" /><path clip-path="url(#clip830)" d="M815.122 45.1919 L815.122 72.576 L807.668 72.576 L807.668 45.4349 Q807.668 38.994 805.157 35.7938 Q802.645 32.5936 797.622 32.5936 Q791.586 32.5936 788.103 36.4419 Q784.619 40.2903 784.619 46.9338 L784.619 72.576 L777.125 72.576 L777.125 27.2059 L784.619 27.2059 L784.619 34.2544 Q787.292 30.163 790.898 28.1376 Q794.544 26.1121 799.283 26.1121 Q807.101 26.1121 811.112 30.9732 Q815.122 35.7938 815.122 45.1919 Z" fill="#000000" fill-rule="evenodd" fill-opacity="1" /><path clip-path="url(#clip830)" d="M859.844 34.0924 L859.844 9.54393 L867.298 9.54393 L867.298 72.576 L859.844 72.576 L859.844 65.7705 Q857.495 69.8214 853.889 71.8063 Q850.324 73.7508 845.301 73.7508 Q837.078 73.7508 831.893 67.1883 Q826.748 60.6258 826.748 49.9314 Q826.748 39.2371 831.893 32.6746 Q837.078 26.1121 845.301 26.1121 Q850.324 26.1121 853.889 28.0971 Q857.495 30.0415 859.844 34.0924 M834.445 49.9314 Q834.445 58.1548 837.807 62.8538 Q841.21 67.5124 847.124 67.5124 Q853.039 67.5124 856.441 62.8538 Q859.844 58.1548 859.844 49.9314 Q859.844 41.7081 856.441 37.0496 Q853.039 32.3505 847.124 32.3505 Q841.21 32.3505 837.807 37.0496 Q834.445 41.7081 834.445 49.9314 Z" fill="#000000" fill-rule="evenodd" fill-opacity="1" /><path clip-path="url(#clip830)" d="M917.529 18.8205 L917.529 41.5461 L927.818 41.5461 Q933.53 41.5461 936.649 38.5889 Q939.768 35.6318 939.768 30.163 Q939.768 24.7348 936.649 21.7777 Q933.53 18.8205 927.818 18.8205 L917.529 18.8205 M909.346 12.096 L927.818 12.096 Q937.986 12.096 943.171 16.714 Q948.397 21.2916 948.397 30.163 Q948.397 39.1155 943.171 43.6931 Q937.986 48.2706 927.818 48.2706 L917.529 48.2706 L917.529 72.576 L909.346 72.576 L909.346 12.096 Z" fill="#000000" fill-rule="evenodd" fill-opacity="1" /><path clip-path="url(#clip830)" d="M983.883 34.1734 Q982.627 33.4443 981.128 33.1202 Q979.67 32.7556 977.887 32.7556 Q971.568 32.7556 968.165 36.8875 Q964.803 40.9789 964.803 48.6757 L964.803 72.576 L957.309 72.576 L957.309 27.2059 L964.803 27.2059 L964.803 34.2544 Q967.153 30.1225 970.92 28.1376 Q974.687 26.1121 980.075 26.1121 Q980.845 26.1121 981.776 26.2337 Q982.708 26.3147 983.842 26.5172 L983.883 34.1734 Z" fill="#000000" fill-rule="evenodd" fill-opacity="1" /><path clip-path="url(#clip830)" d="M991.701 27.2059 L999.155 27.2059 L999.155 72.576 L991.701 72.576 L991.701 27.2059 M991.701 9.54393 L999.155 9.54393 L999.155 18.9825 L991.701 18.9825 L991.701 9.54393 Z" fill="#000000" fill-rule="evenodd" fill-opacity="1" /><path clip-path="url(#clip830)" d="M1047.4 28.9478 L1047.4 35.9153 Q1044.24 34.1734 1041.04 33.3227 Q1037.88 32.4315 1034.64 32.4315 Q1027.39 32.4315 1023.38 37.0496 Q1019.37 41.6271 1019.37 49.9314 Q1019.37 58.2358 1023.38 62.8538 Q1027.39 67.4314 1034.64 67.4314 Q1037.88 67.4314 1041.04 66.5807 Q1044.24 65.6895 1047.4 63.9476 L1047.4 70.8341 Q1044.28 72.2924 1040.92 73.0216 Q1037.6 73.7508 1033.83 73.7508 Q1023.58 73.7508 1017.55 67.3098 Q1011.51 60.8689 1011.51 49.9314 Q1011.51 38.832 1017.59 32.472 Q1023.7 26.1121 1034.32 26.1121 Q1037.76 26.1121 1041.04 26.8413 Q1044.32 27.5299 1047.4 28.9478 Z" fill="#000000" fill-rule="evenodd" fill-opacity="1" /><path clip-path="url(#clip830)" d="M1099.17 48.0275 L1099.17 51.6733 L1064.9 51.6733 Q1065.39 59.3701 1069.52 63.421 Q1073.69 67.4314 1081.1 67.4314 Q1085.4 67.4314 1089.41 66.3781 Q1093.46 65.3249 1097.43 63.2184 L1097.43 70.267 Q1093.42 71.9684 1089.21 72.8596 Q1084.99 73.7508 1080.66 73.7508 Q1069.8 73.7508 1063.44 67.4314 Q1057.12 61.1119 1057.12 50.3365 Q1057.12 39.1965 1063.12 32.6746 Q1069.15 26.1121 1079.36 26.1121 Q1088.52 26.1121 1093.82 32.0264 Q1099.17 37.9003 1099.17 48.0275 M1091.72 45.84 Q1091.64 39.7232 1088.27 36.0774 Q1084.95 32.4315 1079.44 32.4315 Q1073.21 32.4315 1069.44 35.9558 Q1065.71 39.4801 1065.14 45.8805 L1091.72 45.84 Z" fill="#000000" fill-rule="evenodd" fill-opacity="1" /><path clip-path="url(#clip830)" d="M1140.33 28.5427 L1140.33 35.5912 Q1137.17 33.9709 1133.77 33.1607 Q1130.36 32.3505 1126.72 32.3505 Q1121.17 32.3505 1118.37 34.0519 Q1115.62 35.7533 1115.62 39.156 Q1115.62 41.7486 1117.6 43.2475 Q1119.59 44.7058 1125.58 46.0426 L1128.14 46.6097 Q1136.08 48.3111 1139.4 51.4303 Q1142.76 54.509 1142.76 60.0587 Q1142.76 66.3781 1137.74 70.0644 Q1132.75 73.7508 1124 73.7508 Q1120.36 73.7508 1116.39 73.0216 Q1112.46 72.3329 1108.08 70.9151 L1108.08 63.2184 Q1112.22 65.3654 1116.23 66.4591 Q1120.24 67.5124 1124.17 67.5124 Q1129.43 67.5124 1132.27 65.73 Q1135.1 63.9071 1135.1 60.6258 Q1135.1 57.5877 1133.04 55.9673 Q1131.01 54.3469 1124.08 52.8481 L1121.49 52.2405 Q1114.56 50.7821 1111.49 47.7845 Q1108.41 44.7463 1108.41 39.4801 Q1108.41 33.0797 1112.94 29.5959 Q1117.48 26.1121 1125.83 26.1121 Q1129.96 26.1121 1133.6 26.7198 Q1137.25 27.3274 1140.33 28.5427 Z" fill="#000000" fill-rule="evenodd" fill-opacity="1" /><path clip-path="url(#clip830)" d="M1156.53 62.2867 L1165.08 62.2867 L1165.08 69.2543 L1158.44 82.2172 L1153.21 82.2172 L1156.53 69.2543 L1156.53 62.2867 Z" fill="#000000" fill-rule="evenodd" fill-opacity="1" /><path clip-path="url(#clip830)" d="M1243.95 14.0809 L1243.95 22.0612 Q1239.29 19.8332 1235.16 18.7395 Q1231.03 17.6457 1227.18 17.6457 Q1220.5 17.6457 1216.85 20.2383 Q1213.25 22.8309 1213.25 27.611 Q1213.25 31.6214 1215.64 33.6873 Q1218.07 35.7128 1224.79 36.9686 L1229.73 37.9813 Q1238.89 39.7232 1243.22 44.1387 Q1247.6 48.5136 1247.6 55.8863 Q1247.6 64.6767 1241.68 69.2137 Q1235.81 73.7508 1224.43 73.7508 Q1220.13 73.7508 1215.27 72.7785 Q1210.45 71.8063 1205.26 69.9024 L1205.26 61.4765 Q1210.25 64.2716 1215.03 65.6895 Q1219.81 67.1073 1224.43 67.1073 Q1231.43 67.1073 1235.24 64.3527 Q1239.05 61.598 1239.05 56.4939 Q1239.05 52.0379 1236.29 49.5264 Q1233.58 47.0148 1227.34 45.759 L1222.36 44.7868 Q1213.2 42.9639 1209.11 39.075 Q1205.02 35.1862 1205.02 28.2591 Q1205.02 20.2383 1210.65 15.6203 Q1216.32 11.0023 1226.25 11.0023 Q1230.5 11.0023 1234.92 11.7719 Q1239.33 12.5416 1243.95 14.0809 Z" fill="#000000" fill-rule="evenodd" fill-opacity="1" /><path clip-path="url(#clip830)" d="M1267.41 14.324 L1267.41 27.2059 L1282.76 27.2059 L1282.76 32.9987 L1267.41 32.9987 L1267.41 57.6282 Q1267.41 63.1779 1268.9 64.7578 Q1270.44 66.3376 1275.1 66.3376 L1282.76 66.3376 L1282.76 72.576 L1275.1 72.576 Q1266.47 72.576 1263.19 69.3758 Q1259.91 66.1351 1259.91 57.6282 L1259.91 32.9987 L1254.44 32.9987 L1254.44 27.2059 L1259.91 27.2059 L1259.91 14.324 L1267.41 14.324 Z" fill="#000000" fill-rule="evenodd" fill-opacity="1" /><path clip-path="url(#clip830)" d="M1313.18 49.7694 Q1304.15 49.7694 1300.66 51.8354 Q1297.18 53.9013 1297.18 58.8839 Q1297.18 62.8538 1299.77 65.2034 Q1302.41 67.5124 1306.9 67.5124 Q1313.1 67.5124 1316.83 63.1374 Q1320.59 58.7219 1320.59 51.4303 L1320.59 49.7694 L1313.18 49.7694 M1328.05 46.6907 L1328.05 72.576 L1320.59 72.576 L1320.59 65.6895 Q1318.04 69.8214 1314.23 71.8063 Q1310.43 73.7508 1304.92 73.7508 Q1297.95 73.7508 1293.82 69.8619 Q1289.73 65.9325 1289.73 59.3701 Q1289.73 51.7138 1294.83 47.825 Q1299.97 43.9361 1310.14 43.9361 L1320.59 43.9361 L1320.59 43.2069 Q1320.59 38.0623 1317.19 35.2672 Q1313.83 32.4315 1307.71 32.4315 Q1303.82 32.4315 1300.14 33.3632 Q1296.45 34.295 1293.05 36.1584 L1293.05 29.2718 Q1297.14 27.692 1300.99 26.9223 Q1304.84 26.1121 1308.48 26.1121 Q1318.33 26.1121 1323.19 31.2163 Q1328.05 36.3204 1328.05 46.6907 Z" fill="#000000" fill-rule="evenodd" fill-opacity="1" /><path clip-path="url(#clip830)" d="M1376.05 28.9478 L1376.05 35.9153 Q1372.89 34.1734 1369.69 33.3227 Q1366.53 32.4315 1363.29 32.4315 Q1356.04 32.4315 1352.03 37.0496 Q1348.02 41.6271 1348.02 49.9314 Q1348.02 58.2358 1352.03 62.8538 Q1356.04 67.4314 1363.29 67.4314 Q1366.53 67.4314 1369.69 66.5807 Q1372.89 65.6895 1376.05 63.9476 L1376.05 70.8341 Q1372.93 72.2924 1369.57 73.0216 Q1366.25 73.7508 1362.48 73.7508 Q1352.23 73.7508 1346.2 67.3098 Q1340.16 60.8689 1340.16 49.9314 Q1340.16 38.832 1346.24 32.472 Q1352.35 26.1121 1362.97 26.1121 Q1366.41 26.1121 1369.69 26.8413 Q1372.97 27.5299 1376.05 28.9478 Z" fill="#000000" fill-rule="evenodd" fill-opacity="1" /><path clip-path="url(#clip830)" d="M1388.73 9.54393 L1396.22 9.54393 L1396.22 46.7717 L1418.46 27.2059 L1427.98 27.2059 L1403.92 48.4326 L1429 72.576 L1419.27 72.576 L1396.22 50.4176 L1396.22 72.576 L1388.73 72.576 L1388.73 9.54393 Z" fill="#000000" fill-rule="evenodd" fill-opacity="1" /><path clip-path="url(#clip830)" d="M1472.91 48.0275 L1472.91 51.6733 L1438.64 51.6733 Q1439.12 59.3701 1443.26 63.421 Q1447.43 67.4314 1454.84 67.4314 Q1459.13 67.4314 1463.15 66.3781 Q1467.2 65.3249 1471.17 63.2184 L1471.17 70.267 Q1467.16 71.9684 1462.94 72.8596 Q1458.73 73.7508 1454.4 73.7508 Q1443.54 73.7508 1437.18 67.4314 Q1430.86 61.1119 1430.86 50.3365 Q1430.86 39.1965 1436.85 32.6746 Q1442.89 26.1121 1453.1 26.1121 Q1462.25 26.1121 1467.56 32.0264 Q1472.91 37.9003 1472.91 48.0275 M1465.45 45.84 Q1465.37 39.7232 1462.01 36.0774 Q1458.69 32.4315 1453.18 32.4315 Q1446.94 32.4315 1443.17 35.9558 Q1439.45 39.4801 1438.88 45.8805 L1465.45 45.84 Z" fill="#000000" fill-rule="evenodd" fill-opacity="1" /><path clip-path="url(#clip830)" d="M1485.14 9.54393 L1492.6 9.54393 L1492.6 72.576 L1485.14 72.576 L1485.14 9.54393 Z" fill="#000000" fill-rule="evenodd" fill-opacity="1" /><path clip-path="url(#clip830)" d="M1540.76 49.9314 Q1540.76 41.7081 1537.36 37.0496 Q1534 32.3505 1528.08 32.3505 Q1522.17 32.3505 1518.76 37.0496 Q1515.4 41.7081 1515.4 49.9314 Q1515.4 58.1548 1518.76 62.8538 Q1522.17 67.5124 1528.08 67.5124 Q1534 67.5124 1537.36 62.8538 Q1540.76 58.1548 1540.76 49.9314 M1515.4 34.0924 Q1517.75 30.0415 1521.32 28.0971 Q1524.92 26.1121 1529.9 26.1121 Q1538.17 26.1121 1543.31 32.6746 Q1548.5 39.2371 1548.5 49.9314 Q1548.5 60.6258 1543.31 67.1883 Q1538.17 73.7508 1529.9 73.7508 Q1524.92 73.7508 1521.32 71.8063 Q1517.75 69.8214 1515.4 65.7705 L1515.4 72.576 L1507.91 72.576 L1507.91 9.54393 L1515.4 9.54393 L1515.4 34.0924 Z" fill="#000000" fill-rule="evenodd" fill-opacity="1" /><path clip-path="url(#clip830)" d="M1599.66 48.0275 L1599.66 51.6733 L1565.39 51.6733 Q1565.88 59.3701 1570.01 63.421 Q1574.18 67.4314 1581.59 67.4314 Q1585.89 67.4314 1589.9 66.3781 Q1593.95 65.3249 1597.92 63.2184 L1597.92 70.267 Q1593.91 71.9684 1589.7 72.8596 Q1585.48 73.7508 1581.15 73.7508 Q1570.29 73.7508 1563.93 67.4314 Q1557.61 61.1119 1557.61 50.3365 Q1557.61 39.1965 1563.61 32.6746 Q1569.64 26.1121 1579.85 26.1121 Q1589.01 26.1121 1594.31 32.0264 Q1599.66 37.9003 1599.66 48.0275 M1592.21 45.84 Q1592.13 39.7232 1588.76 36.0774 Q1585.44 32.4315 1579.93 32.4315 Q1573.69 32.4315 1569.93 35.9558 Q1566.2 39.4801 1565.63 45.8805 L1592.21 45.84 Z" fill="#000000" fill-rule="evenodd" fill-opacity="1" /><path clip-path="url(#clip830)" d="M1638.18 34.1734 Q1636.93 33.4443 1635.43 33.1202 Q1633.97 32.7556 1632.19 32.7556 Q1625.87 32.7556 1622.47 36.8875 Q1619.11 40.9789 1619.11 48.6757 L1619.11 72.576 L1611.61 72.576 L1611.61 27.2059 L1619.11 27.2059 L1619.11 34.2544 Q1621.45 30.1225 1625.22 28.1376 Q1628.99 26.1121 1634.38 26.1121 Q1635.15 26.1121 1636.08 26.2337 Q1637.01 26.3147 1638.14 26.5172 L1638.18 34.1734 Z" fill="#000000" fill-rule="evenodd" fill-opacity="1" /><path clip-path="url(#clip830)" d="M1674.4 49.3643 Q1674.4 41.2625 1671.04 36.8065 Q1667.72 32.3505 1661.68 32.3505 Q1655.68 32.3505 1652.32 36.8065 Q1649 41.2625 1649 49.3643 Q1649 57.4256 1652.32 61.8816 Q1655.68 66.3376 1661.68 66.3376 Q1667.72 66.3376 1671.04 61.8816 Q1674.4 57.4256 1674.4 49.3643 M1681.85 66.9452 Q1681.85 78.5308 1676.71 84.1616 Q1671.56 89.8329 1660.95 89.8329 Q1657.02 89.8329 1653.54 89.2252 Q1650.05 88.6581 1646.77 87.4428 L1646.77 80.1917 Q1650.05 81.9741 1653.25 82.8248 Q1656.45 83.6755 1659.78 83.6755 Q1667.11 83.6755 1670.75 79.8271 Q1674.4 76.0193 1674.4 68.282 L1674.4 64.5957 Q1672.09 68.6061 1668.49 70.5911 Q1664.88 72.576 1659.86 72.576 Q1651.51 72.576 1646.41 66.2161 Q1641.3 59.8562 1641.3 49.3643 Q1641.3 38.832 1646.41 32.472 Q1651.51 26.1121 1659.86 26.1121 Q1664.88 26.1121 1668.49 28.0971 Q1672.09 30.082 1674.4 34.0924 L1674.4 27.2059 L1681.85 27.2059 L1681.85 66.9452 Z" fill="#000000" fill-rule="evenodd" fill-opacity="1" /><path clip-path="url(#clip830)" d="M1732.08 18.8205 L1732.08 65.8515 L1741.97 65.8515 Q1754.49 65.8515 1760.28 60.1802 Q1766.11 54.509 1766.11 42.2752 Q1766.11 30.1225 1760.28 24.4918 Q1754.49 18.8205 1741.97 18.8205 L1732.08 18.8205 M1723.9 12.096 L1740.71 12.096 Q1758.29 12.096 1766.52 19.4281 Q1774.74 26.7198 1774.74 42.2752 Q1774.74 57.9117 1766.48 65.2439 Q1758.21 72.576 1740.71 72.576 L1723.9 72.576 L1723.9 12.096 Z" fill="#000000" fill-rule="evenodd" fill-opacity="1" /><path clip-path="url(#clip830)" d="M1786.69 54.671 L1786.69 27.2059 L1794.14 27.2059 L1794.14 54.3874 Q1794.14 60.8284 1796.66 64.0691 Q1799.17 67.2693 1804.19 67.2693 Q1810.23 67.2693 1813.71 63.421 Q1817.23 59.5726 1817.23 52.9291 L1817.23 27.2059 L1824.69 27.2059 L1824.69 72.576 L1817.23 72.576 L1817.23 65.6084 Q1814.52 69.7404 1810.92 71.7658 Q1807.35 73.7508 1802.61 73.7508 Q1794.79 73.7508 1790.74 68.8897 Q1786.69 64.0286 1786.69 54.671 M1805.45 26.1121 L1805.45 26.1121 Z" fill="#000000" fill-rule="evenodd" fill-opacity="1" /><path clip-path="url(#clip830)" d="M1857.62 32.4315 Q1851.63 32.4315 1848.14 37.1306 Q1844.66 41.7891 1844.66 49.9314 Q1844.66 58.0738 1848.1 62.7728 Q1851.59 67.4314 1857.62 67.4314 Q1863.58 67.4314 1867.06 62.7323 Q1870.54 58.0333 1870.54 49.9314 Q1870.54 41.8701 1867.06 37.1711 Q1863.58 32.4315 1857.62 32.4315 M1857.62 26.1121 Q1867.34 26.1121 1872.89 32.4315 Q1878.44 38.7509 1878.44 49.9314 Q1878.44 61.0714 1872.89 67.4314 Q1867.34 73.7508 1857.62 73.7508 Q1847.86 73.7508 1842.31 67.4314 Q1836.8 61.0714 1836.8 49.9314 Q1836.8 38.7509 1842.31 32.4315 Q1847.86 26.1121 1857.62 26.1121 Z" fill="#000000" fill-rule="evenodd" fill-opacity="1" /><path clip-path="url(#clip830)" d="M1898.01 65.7705 L1898.01 89.8329 L1890.52 89.8329 L1890.52 27.2059 L1898.01 27.2059 L1898.01 34.0924 Q1900.36 30.0415 1903.92 28.0971 Q1907.53 26.1121 1912.51 26.1121 Q1920.78 26.1121 1925.92 32.6746 Q1931.11 39.2371 1931.11 49.9314 Q1931.11 60.6258 1925.92 67.1883 Q1920.78 73.7508 1912.51 73.7508 Q1907.53 73.7508 1903.92 71.8063 Q1900.36 69.8214 1898.01 65.7705 M1923.37 49.9314 Q1923.37 41.7081 1919.97 37.0496 Q1916.6 32.3505 1910.69 32.3505 Q1904.77 32.3505 1901.37 37.0496 Q1898.01 41.7081 1898.01 49.9314 Q1898.01 58.1548 1901.37 62.8538 Q1904.77 67.5124 1910.69 67.5124 Q1916.6 67.5124 1919.97 62.8538 Q1923.37 58.1548 1923.37 49.9314 Z" fill="#000000" fill-rule="evenodd" fill-opacity="1" /><path clip-path="url(#clip830)" d="M1961.04 32.4315 Q1955.05 32.4315 1951.56 37.1306 Q1948.08 41.7891 1948.08 49.9314 Q1948.08 58.0738 1951.52 62.7728 Q1955.01 67.4314 1961.04 67.4314 Q1967 67.4314 1970.48 62.7323 Q1973.96 58.0333 1973.96 49.9314 Q1973.96 41.8701 1970.48 37.1711 Q1967 32.4315 1961.04 32.4315 M1961.04 26.1121 Q1970.76 26.1121 1976.31 32.4315 Q1981.86 38.7509 1981.86 49.9314 Q1981.86 61.0714 1976.31 67.4314 Q1970.76 73.7508 1961.04 73.7508 Q1951.28 73.7508 1945.73 67.4314 Q1940.22 61.0714 1940.22 49.9314 Q1940.22 38.7509 1945.73 32.4315 Q1951.28 26.1121 1961.04 26.1121 Z" fill="#000000" fill-rule="evenodd" fill-opacity="1" /><path clip-path="url(#clip830)" d="M1994.22 9.54393 L2001.67 9.54393 L2001.67 72.576 L1994.22 72.576 L1994.22 9.54393 Z" fill="#000000" fill-rule="evenodd" fill-opacity="1" /><path clip-path="url(#clip830)" d="M2036.15 76.7889 Q2032.99 84.8907 2029.99 87.3618 Q2026.99 89.8329 2021.97 89.8329 L2016.01 89.8329 L2016.01 83.5945 L2020.39 83.5945 Q2023.47 83.5945 2025.17 82.1361 Q2026.87 80.6778 2028.94 75.2496 L2030.27 71.8468 L2011.92 27.2059 L2019.82 27.2059 L2034 62.6918 L2048.18 27.2059 L2056.08 27.2059 L2036.15 76.7889 Z" fill="#000000" fill-rule="evenodd" fill-opacity="1" /><polyline clip-path="url(#clip832)" style="stroke:#009af9; stroke-linecap:round; stroke-linejoin:round; stroke-width:4; stroke-opacity:1; fill:none" points="
  175.59,1386.4 182.636,1359.42 189.681,1334.97 196.727,1312.75 203.773,1292.51 210.819,1274.03 217.865,1257.12 224.911,1241.62 231.957,1227.38 239.002,1214.27 
  246.048,1202.18 253.094,1191 260.14,1180.65 267.186,1171.05 274.232,1162.13 281.277,1153.83 288.323,1146.09 295.369,1138.87 302.415,1132.12 309.461,1125.81 
  316.507,1119.9 323.553,1114.35 330.598,1109.15 337.644,1104.25 344.69,1099.65 351.736,1095.32 358.782,1091.25 365.828,1087.4 372.873,1083.78 379.919,1080.36 
  386.965,1077.13 394.011,1074.08 401.057,1071.19 408.103,1068.47 415.149,1065.89 422.194,1063.45 429.24,1061.14 436.286,1058.95 443.332,1056.88 450.378,1054.92 
  457.424,1053.06 464.469,1051.3 471.515,1049.63 478.561,1048.05 485.607,1046.55 492.653,1045.13 499.699,1043.78 506.744,1042.5 513.79,1041.28 520.836,1040.13 
  527.882,1039.04 534.928,1038 541.974,1037.02 549.02,1036.08 556.065,1035.2 563.111,1034.36 570.157,1033.56 577.203,1032.8 584.249,1032.08 591.295,1031.4 
  598.34,1030.75 605.386,1030.13 612.432,1029.55 619.478,1028.99 626.524,1028.47 633.57,1027.97 640.616,1027.49 647.661,1027.04 654.707,1026.61 661.753,1026.21 
  668.799,1025.82 675.845,1025.46 682.891,1025.11 689.936,1024.78 696.982,1024.46 704.028,1024.17 711.074,1023.88 718.12,1023.61 725.166,1023.36 732.212,1023.12 
  739.257,1022.89 746.303,1022.67 753.349,1022.46 760.395,1022.26 767.441,1022.08 774.487,1021.9 781.532,1021.73 788.578,1021.57 795.624,1021.42 802.67,1021.28 
  809.716,1021.14 816.762,1021.01 823.808,1020.88 830.853,1020.77 837.899,1020.66 844.945,1020.55 851.991,1020.45 859.037,1020.35 866.083,1020.26 873.128,1020.18 
  880.174,1020.1 887.22,1020.02 894.266,1019.94 901.312,1019.87 908.358,1019.81 915.404,1019.74 922.449,1019.68 929.495,1019.63 936.541,1019.57 943.587,1019.52 
  950.633,1019.47 957.679,1019.43 964.724,1019.38 971.77,1019.34 978.816,1019.3 985.862,1019.26 992.908,1019.23 999.954,1019.19 1007,1019.16 1014.05,1019.13 
  1021.09,1019.1 1028.14,1019.07 1035.18,1019.05 1042.23,1019.02 1049.27,1019 1056.32,1018.98 1063.37,1018.96 1070.41,1018.94 1077.46,1018.92 1084.5,1018.9 
  1091.55,1018.88 1098.6,1018.86 1105.64,1018.85 1112.69,1018.83 1119.73,1018.82 1126.78,1018.81 1133.82,1018.79 1140.87,1018.78 1147.92,1018.77 1154.96,1018.76 
  1162.01,1018.75 1169.05,1018.74 1176.1,1018.73 1183.15,1018.72 1190.19,1018.71 1197.24,1018.7 1204.28,1018.7 1211.33,1018.69 1218.37,1018.68 1225.42,1018.68 
  1232.47,1018.67 1239.51,1018.66 1246.56,1018.66 1253.6,1018.65 1260.65,1018.65 1267.7,1018.64 1274.74,1018.64 1281.79,1018.63 1288.83,1018.63 1295.88,1018.63 
  1302.92,1018.62 1309.97,1018.62 1317.02,1018.62 1324.06,1018.61 1331.11,1018.61 1338.15,1018.61 1345.2,1018.6 1352.25,1018.6 1359.29,1018.6 1366.34,1018.6 
  1373.38,1018.6 1380.43,1018.59 1387.48,1018.59 1394.52,1018.59 1401.57,1018.59 1408.61,1018.59 1415.66,1018.58 1422.7,1018.58 1429.75,1018.58 1436.8,1018.58 
  1443.84,1018.58 1450.89,1018.58 1457.93,1018.58 1464.98,1018.57 1472.03,1018.57 1479.07,1018.57 1486.12,1018.57 1493.16,1018.57 1500.21,1018.57 1507.25,1018.57 
  1514.3,1018.57 1521.35,1018.57 1528.39,1018.57 1535.44,1018.57 1542.48,1018.57 1549.53,1018.57 1556.58,1018.56 1563.62,1018.56 1570.67,1018.56 1577.71,1018.56 
  1584.76,1018.56 1591.8,1018.56 1598.85,1018.56 1605.9,1018.56 1612.94,1018.56 1619.99,1018.56 1627.03,1018.56 1634.08,1018.56 1641.13,1018.56 1648.17,1018.56 
  1655.22,1018.56 1662.26,1018.56 1669.31,1018.56 1676.35,1018.56 1683.4,1018.56 1690.45,1018.56 1697.49,1018.56 1704.54,1018.56 1711.58,1018.56 1718.63,1018.56 
  1725.68,1018.56 1732.72,1018.56 1739.77,1018.56 1746.81,1018.56 1753.86,1018.56 1760.9,1018.56 1767.95,1018.56 1775,1018.56 1782.04,1018.56 1789.09,1018.56 
  1796.13,1018.56 1803.18,1018.56 1810.23,1018.56 1817.27,1018.56 1824.32,1018.56 1831.36,1018.56 1838.41,1018.56 1845.46,1018.56 1852.5,1018.56 1859.55,1018.56 
  1866.59,1018.55 1873.64,1018.55 1880.68,1018.55 1887.73,1018.55 1894.78,1018.55 1901.82,1018.55 1908.87,1018.55 1915.91,1018.55 1922.96,1018.55 1930.01,1018.55 
  1937.05,1018.55 1944.1,1018.55 1951.14,1018.55 1958.19,1018.55 1965.23,1018.55 1972.28,1018.55 1979.33,1018.55 1986.37,1018.55 1993.42,1018.55 2000.46,1018.55 
  2007.51,1018.55 2014.56,1018.55 2021.6,1018.55 2028.65,1018.55 2035.69,1018.55 2042.74,1018.55 2049.78,1018.55 2056.83,1018.55 2063.88,1018.55 2070.92,1018.55 
  2077.97,1018.55 2085.01,1018.55 2092.06,1018.55 2099.11,1018.55 2106.15,1018.55 2113.2,1018.55 2120.24,1018.55 2127.29,1018.55 2134.33,1018.55 2141.38,1018.55 
  2148.43,1018.55 2155.47,1018.55 2162.52,1018.55 2169.56,1018.55 2176.61,1018.55 2183.66,1018.55 2190.7,1018.55 2197.75,1018.55 2204.79,1018.55 2211.84,1018.55 
  2218.88,1018.55 2225.93,1018.55 2232.98,1018.55 2240.02,1018.55 2247.07,1018.55 2254.11,1018.55 2261.16,1018.55 2268.21,1018.55 2275.25,1018.55 2282.3,1018.55 
  2289.34,1018.55 
  "/>
<polyline clip-path="url(#clip832)" style="stroke:#e26f46; stroke-linecap:round; stroke-linejoin:round; stroke-width:4; stroke-opacity:1; fill:none" points="
  175.59,1386.4 182.636,1367.62 189.681,1351.62 196.727,1338.02 203.773,1326.53 210.819,1316.87 217.865,1308.79 224.911,1302.09 231.957,1296.6 239.002,1292.13 
  246.048,1288.57 253.094,1285.77 260.14,1283.64 267.186,1282.08 274.232,1281.02 281.277,1280.37 288.323,1280.07 295.369,1280.07 302.415,1280.33 309.461,1280.8 
  316.507,1281.44 323.553,1282.23 330.598,1283.13 337.644,1284.13 344.69,1285.2 351.736,1286.32 358.782,1287.49 365.828,1288.68 372.873,1289.89 379.919,1291.11 
  386.965,1292.32 394.011,1293.53 401.057,1294.73 408.103,1295.9 415.149,1297.06 422.194,1298.19 429.24,1299.3 436.286,1300.38 443.332,1301.42 450.378,1302.44 
  457.424,1303.42 464.469,1304.37 471.515,1305.29 478.561,1306.17 485.607,1307.03 492.653,1307.85 499.699,1308.64 506.744,1309.39 513.79,1310.12 520.836,1310.82 
  527.882,1311.48 534.928,1312.12 541.974,1312.74 549.02,1313.32 556.065,1313.88 563.111,1314.42 570.157,1314.93 577.203,1315.42 584.249,1315.88 591.295,1316.33 
  598.34,1316.75 605.386,1317.16 612.432,1317.54 619.478,1317.91 626.524,1318.26 633.57,1318.6 640.616,1318.92 647.661,1319.22 654.707,1319.51 661.753,1319.78 
  668.799,1320.04 675.845,1320.29 682.891,1320.53 689.936,1320.76 696.982,1320.97 704.028,1321.17 711.074,1321.37 718.12,1321.55 725.166,1321.73 732.212,1321.9 
  739.257,1322.06 746.303,1322.21 753.349,1322.35 760.395,1322.49 767.441,1322.62 774.487,1322.74 781.532,1322.86 788.578,1322.97 795.624,1323.08 802.67,1323.18 
  809.716,1323.27 816.762,1323.36 823.808,1323.45 830.853,1323.53 837.899,1323.61 844.945,1323.68 851.991,1323.75 859.037,1323.82 866.083,1323.88 873.128,1323.94 
  880.174,1324 887.22,1324.06 894.266,1324.11 901.312,1324.16 908.358,1324.2 915.404,1324.25 922.449,1324.29 929.495,1324.33 936.541,1324.37 943.587,1324.41 
  950.633,1324.44 957.679,1324.47 964.724,1324.5 971.77,1324.53 978.816,1324.56 985.862,1324.59 992.908,1324.61 999.954,1324.64 1007,1324.66 1014.05,1324.68 
  1021.09,1324.7 1028.14,1324.72 1035.18,1324.74 1042.23,1324.76 1049.27,1324.77 1056.32,1324.79 1063.37,1324.8 1070.41,1324.82 1077.46,1324.83 1084.5,1324.85 
  1091.55,1324.86 1098.6,1324.87 1105.64,1324.88 1112.69,1324.89 1119.73,1324.9 1126.78,1324.91 1133.82,1324.92 1140.87,1324.93 1147.92,1324.94 1154.96,1324.94 
  1162.01,1324.95 1169.05,1324.96 1176.1,1324.96 1183.15,1324.97 1190.19,1324.98 1197.24,1324.98 1204.28,1324.99 1211.33,1324.99 1218.37,1325 1225.42,1325 
  1232.47,1325.01 1239.51,1325.01 1246.56,1325.01 1253.6,1325.02 1260.65,1325.02 1267.7,1325.03 1274.74,1325.03 1281.79,1325.03 1288.83,1325.03 1295.88,1325.04 
  1302.92,1325.04 1309.97,1325.04 1317.02,1325.04 1324.06,1325.05 1331.11,1325.05 1338.15,1325.05 1345.2,1325.05 1352.25,1325.05 1359.29,1325.06 1366.34,1325.06 
  1373.38,1325.06 1380.43,1325.06 1387.48,1325.06 1394.52,1325.06 1401.57,1325.06 1408.61,1325.07 1415.66,1325.07 1422.7,1325.07 1429.75,1325.07 1436.8,1325.07 
  1443.84,1325.07 1450.89,1325.07 1457.93,1325.07 1464.98,1325.07 1472.03,1325.07 1479.07,1325.08 1486.12,1325.08 1493.16,1325.08 1500.21,1325.08 1507.25,1325.08 
  1514.3,1325.08 1521.35,1325.08 1528.39,1325.08 1535.44,1325.08 1542.48,1325.08 1549.53,1325.08 1556.58,1325.08 1563.62,1325.08 1570.67,1325.08 1577.71,1325.08 
  1584.76,1325.08 1591.8,1325.08 1598.85,1325.08 1605.9,1325.08 1612.94,1325.08 1619.99,1325.08 1627.03,1325.08 1634.08,1325.08 1641.13,1325.08 1648.17,1325.08 
  1655.22,1325.08 1662.26,1325.09 1669.31,1325.09 1676.35,1325.09 1683.4,1325.09 1690.45,1325.09 1697.49,1325.09 1704.54,1325.09 1711.58,1325.09 1718.63,1325.09 
  1725.68,1325.09 1732.72,1325.09 1739.77,1325.09 1746.81,1325.09 1753.86,1325.09 1760.9,1325.09 1767.95,1325.09 1775,1325.09 1782.04,1325.09 1789.09,1325.09 
  1796.13,1325.09 1803.18,1325.09 1810.23,1325.09 1817.27,1325.09 1824.32,1325.09 1831.36,1325.09 1838.41,1325.09 1845.46,1325.09 1852.5,1325.09 1859.55,1325.09 
  1866.59,1325.09 1873.64,1325.09 1880.68,1325.09 1887.73,1325.09 1894.78,1325.09 1901.82,1325.09 1908.87,1325.09 1915.91,1325.09 1922.96,1325.09 1930.01,1325.09 
  1937.05,1325.09 1944.1,1325.09 1951.14,1325.09 1958.19,1325.09 1965.23,1325.09 1972.28,1325.09 1979.33,1325.09 1986.37,1325.09 1993.42,1325.09 2000.46,1325.09 
  2007.51,1325.09 2014.56,1325.09 2021.6,1325.09 2028.65,1325.09 2035.69,1325.09 2042.74,1325.09 2049.78,1325.09 2056.83,1325.09 2063.88,1325.09 2070.92,1325.09 
  2077.97,1325.09 2085.01,1325.09 2092.06,1325.09 2099.11,1325.09 2106.15,1325.09 2113.2,1325.09 2120.24,1325.09 2127.29,1325.09 2134.33,1325.09 2141.38,1325.09 
  2148.43,1325.09 2155.47,1325.09 2162.52,1325.09 2169.56,1325.09 2176.61,1325.09 2183.66,1325.09 2190.7,1325.09 2197.75,1325.09 2204.79,1325.09 2211.84,1325.09 
  2218.88,1325.09 2225.93,1325.09 2232.98,1325.09 2240.02,1325.09 2247.07,1325.09 2254.11,1325.09 2261.16,1325.09 2268.21,1325.09 2275.25,1325.09 2282.3,1325.09 
  2289.34,1325.09 
  "/>
<polyline clip-path="url(#clip832)" style="stroke:#3da44d; stroke-linecap:round; stroke-linejoin:round; stroke-width:4; stroke-opacity:1; fill:none" points="
  175.59,160.256 182.636,251.745 189.681,332.666 196.727,404.299 203.773,467.767 210.819,524.051 217.865,574.012 224.911,618.402 231.957,657.881 239.002,693.029 
  246.048,724.353 253.094,752.299 260.14,777.258 267.186,799.575 274.232,819.552 281.277,837.456 288.323,853.521 295.369,867.953 302.415,880.934 309.461,892.624 
  316.507,903.166 323.553,912.684 330.598,921.289 337.644,929.079 344.69,936.14 351.736,942.549 358.782,948.373 365.828,953.674 372.873,958.505 379.919,962.912 
  386.965,966.939 394.011,970.624 401.057,973.999 408.103,977.095 415.149,979.938 422.194,982.553 429.24,984.96 436.286,987.18 443.332,989.228 450.378,991.121 
  457.424,992.871 464.469,994.493 471.515,995.996 478.561,997.391 485.607,998.687 492.653,999.893 499.699,1001.01 506.744,1002.06 513.79,1003.04 520.836,1003.95 
  527.882,1004.8 534.928,1005.59 541.974,1006.33 549.02,1007.03 556.065,1007.68 563.111,1008.29 570.157,1008.87 577.203,1009.41 584.249,1009.91 591.295,1010.39 
  598.34,1010.84 605.386,1011.26 612.432,1011.65 619.478,1012.03 626.524,1012.38 633.57,1012.71 640.616,1013.02 647.661,1013.32 654.707,1013.6 661.753,1013.86 
  668.799,1014.11 675.845,1014.34 682.891,1014.56 689.936,1014.77 696.982,1014.97 704.028,1015.16 711.074,1015.33 718.12,1015.5 725.166,1015.66 732.212,1015.81 
  739.257,1015.95 746.303,1016.09 753.349,1016.21 760.395,1016.34 767.441,1016.45 774.487,1016.56 781.532,1016.66 788.578,1016.76 795.624,1016.85 802.67,1016.94 
  809.716,1017.02 816.762,1017.1 823.808,1017.17 830.853,1017.24 837.899,1017.31 844.945,1017.37 851.991,1017.43 859.037,1017.49 866.083,1017.54 873.128,1017.6 
  880.174,1017.64 887.22,1017.69 894.266,1017.73 901.312,1017.78 908.358,1017.82 915.404,1017.85 922.449,1017.89 929.495,1017.92 936.541,1017.95 943.587,1017.98 
  950.633,1018.01 957.679,1018.04 964.724,1018.07 971.77,1018.09 978.816,1018.11 985.862,1018.14 992.908,1018.16 999.954,1018.18 1007,1018.2 1014.05,1018.21 
  1021.09,1018.23 1028.14,1018.25 1035.18,1018.26 1042.23,1018.28 1049.27,1018.29 1056.32,1018.31 1063.37,1018.32 1070.41,1018.33 1077.46,1018.34 1084.5,1018.35 
  1091.55,1018.36 1098.6,1018.37 1105.64,1018.38 1112.69,1018.39 1119.73,1018.4 1126.78,1018.41 1133.82,1018.41 1140.87,1018.42 1147.92,1018.43 1154.96,1018.43 
  1162.01,1018.44 1169.05,1018.45 1176.1,1018.45 1183.15,1018.46 1190.19,1018.46 1197.24,1018.47 1204.28,1018.47 1211.33,1018.47 1218.37,1018.48 1225.42,1018.48 
  1232.47,1018.49 1239.51,1018.49 1246.56,1018.49 1253.6,1018.5 1260.65,1018.5 1267.7,1018.5 1274.74,1018.5 1281.79,1018.51 1288.83,1018.51 1295.88,1018.51 
  1302.92,1018.51 1309.97,1018.52 1317.02,1018.52 1324.06,1018.52 1331.11,1018.52 1338.15,1018.52 1345.2,1018.52 1352.25,1018.53 1359.29,1018.53 1366.34,1018.53 
  1373.38,1018.53 1380.43,1018.53 1387.48,1018.53 1394.52,1018.53 1401.57,1018.53 1408.61,1018.54 1415.66,1018.54 1422.7,1018.54 1429.75,1018.54 1436.8,1018.54 
  1443.84,1018.54 1450.89,1018.54 1457.93,1018.54 1464.98,1018.54 1472.03,1018.54 1479.07,1018.54 1486.12,1018.54 1493.16,1018.54 1500.21,1018.54 1507.25,1018.54 
  1514.3,1018.55 1521.35,1018.55 1528.39,1018.55 1535.44,1018.55 1542.48,1018.55 1549.53,1018.55 1556.58,1018.55 1563.62,1018.55 1570.67,1018.55 1577.71,1018.55 
  1584.76,1018.55 1591.8,1018.55 1598.85,1018.55 1605.9,1018.55 1612.94,1018.55 1619.99,1018.55 1627.03,1018.55 1634.08,1018.55 1641.13,1018.55 1648.17,1018.55 
  1655.22,1018.55 1662.26,1018.55 1669.31,1018.55 1676.35,1018.55 1683.4,1018.55 1690.45,1018.55 1697.49,1018.55 1704.54,1018.55 1711.58,1018.55 1718.63,1018.55 
  1725.68,1018.55 1732.72,1018.55 1739.77,1018.55 1746.81,1018.55 1753.86,1018.55 1760.9,1018.55 1767.95,1018.55 1775,1018.55 1782.04,1018.55 1789.09,1018.55 
  1796.13,1018.55 1803.18,1018.55 1810.23,1018.55 1817.27,1018.55 1824.32,1018.55 1831.36,1018.55 1838.41,1018.55 1845.46,1018.55 1852.5,1018.55 1859.55,1018.55 
  1866.59,1018.55 1873.64,1018.55 1880.68,1018.55 1887.73,1018.55 1894.78,1018.55 1901.82,1018.55 1908.87,1018.55 1915.91,1018.55 1922.96,1018.55 1930.01,1018.55 
  1937.05,1018.55 1944.1,1018.55 1951.14,1018.55 1958.19,1018.55 1965.23,1018.55 1972.28,1018.55 1979.33,1018.55 1986.37,1018.55 1993.42,1018.55 2000.46,1018.55 
  2007.51,1018.55 2014.56,1018.55 2021.6,1018.55 2028.65,1018.55 2035.69,1018.55 2042.74,1018.55 2049.78,1018.55 2056.83,1018.55 2063.88,1018.55 2070.92,1018.55 
  2077.97,1018.55 2085.01,1018.55 2092.06,1018.55 2099.11,1018.55 2106.15,1018.55 2113.2,1018.55 2120.24,1018.55 2127.29,1018.55 2134.33,1018.55 2141.38,1018.55 
  2148.43,1018.55 2155.47,1018.55 2162.52,1018.55 2169.56,1018.55 2176.61,1018.55 2183.66,1018.55 2190.7,1018.55 2197.75,1018.55 2204.79,1018.55 2211.84,1018.55 
  2218.88,1018.55 2225.93,1018.55 2232.98,1018.55 2240.02,1018.55 2247.07,1018.55 2254.11,1018.55 2261.16,1018.55 2268.21,1018.55 2275.25,1018.55 2282.3,1018.55 
  2289.34,1018.55 
  "/>
<path clip-path="url(#clip830)" d="
M1696.33 374.156 L2278.07 374.156 L2278.07 166.796 L1696.33 166.796  Z
  " fill="#ffffff" fill-rule="evenodd" fill-opacity="1"/>
<polyline clip-path="url(#clip830)" style="stroke:#000000; stroke-linecap:round; stroke-linejoin:round; stroke-width:4; stroke-opacity:1; fill:none" points="
  1696.33,374.156 2278.07,374.156 2278.07,166.796 1696.33,166.796 1696.33,374.156 
  "/>
<polyline clip-path="url(#clip830)" style="stroke:#009af9; stroke-linecap:round; stroke-linejoin:round; stroke-width:4; stroke-opacity:1; fill:none" points="
  1721.22,218.636 1870.6,218.636 
  "/>
<path clip-path="url(#clip830)" d="M1895.49 199.897 L1899.75 199.897 L1899.75 235.916 L1895.49 235.916 L1895.49 199.897 Z" fill="#000000" fill-rule="evenodd" fill-opacity="1" /><path clip-path="url(#clip830)" d="M1930.84 221.888 L1930.84 223.971 L1911.26 223.971 Q1911.53 228.369 1913.89 230.684 Q1916.28 232.976 1920.51 232.976 Q1922.97 232.976 1925.26 232.374 Q1927.57 231.772 1929.84 230.569 L1929.84 234.596 Q1927.55 235.568 1925.14 236.078 Q1922.74 236.587 1920.26 236.587 Q1914.06 236.587 1910.42 232.976 Q1906.81 229.365 1906.81 223.207 Q1906.81 216.842 1910.24 213.115 Q1913.69 209.365 1919.52 209.365 Q1924.75 209.365 1927.78 212.745 Q1930.84 216.101 1930.84 221.888 M1926.58 220.638 Q1926.53 217.143 1924.61 215.059 Q1922.71 212.976 1919.57 212.976 Q1916 212.976 1913.85 214.99 Q1911.72 217.004 1911.39 220.661 L1926.58 220.638 Z" fill="#000000" fill-rule="evenodd" fill-opacity="1" /><path clip-path="url(#clip830)" d="M1949.61 222.883 Q1944.45 222.883 1942.46 224.064 Q1940.47 225.244 1940.47 228.092 Q1940.47 230.36 1941.95 231.703 Q1943.45 233.022 1946.02 233.022 Q1949.57 233.022 1951.69 230.522 Q1953.85 227.999 1953.85 223.832 L1953.85 222.883 L1949.61 222.883 M1958.11 221.124 L1958.11 235.916 L1953.85 235.916 L1953.85 231.981 Q1952.39 234.342 1950.21 235.476 Q1948.04 236.587 1944.89 236.587 Q1940.91 236.587 1938.55 234.365 Q1936.21 232.119 1936.21 228.369 Q1936.21 223.994 1939.13 221.772 Q1942.07 219.55 1947.88 219.55 L1953.85 219.55 L1953.85 219.133 Q1953.85 216.194 1951.9 214.596 Q1949.98 212.976 1946.49 212.976 Q1944.26 212.976 1942.16 213.508 Q1940.05 214.041 1938.11 215.106 L1938.11 211.17 Q1940.44 210.268 1942.64 209.828 Q1944.84 209.365 1946.93 209.365 Q1952.55 209.365 1955.33 212.282 Q1958.11 215.198 1958.11 221.124 Z" fill="#000000" fill-rule="evenodd" fill-opacity="1" /><path clip-path="url(#clip830)" d="M1983.94 213.925 L1983.94 199.897 L1988.2 199.897 L1988.2 235.916 L1983.94 235.916 L1983.94 232.027 Q1982.6 234.342 1980.54 235.476 Q1978.5 236.587 1975.63 236.587 Q1970.93 236.587 1967.97 232.837 Q1965.03 229.087 1965.03 222.976 Q1965.03 216.865 1967.97 213.115 Q1970.93 209.365 1975.63 209.365 Q1978.5 209.365 1980.54 210.499 Q1982.6 211.61 1983.94 213.925 M1969.43 222.976 Q1969.43 227.675 1971.35 230.36 Q1973.29 233.022 1976.67 233.022 Q1980.05 233.022 1982 230.36 Q1983.94 227.675 1983.94 222.976 Q1983.94 218.277 1982 215.615 Q1980.05 212.93 1976.67 212.93 Q1973.29 212.93 1971.35 215.615 Q1969.43 218.277 1969.43 222.976 Z" fill="#000000" fill-rule="evenodd" fill-opacity="1" /><path clip-path="url(#clip830)" d="M2019.15 221.888 L2019.15 223.971 L1999.56 223.971 Q1999.84 228.369 2002.2 230.684 Q2004.59 232.976 2008.82 232.976 Q2011.28 232.976 2013.57 232.374 Q2015.88 231.772 2018.15 230.569 L2018.15 234.596 Q2015.86 235.568 2013.45 236.078 Q2011.05 236.587 2008.57 236.587 Q2002.37 236.587 1998.73 232.976 Q1995.12 229.365 1995.12 223.207 Q1995.12 216.842 1998.55 213.115 Q2002 209.365 2007.83 209.365 Q2013.06 209.365 2016.09 212.745 Q2019.15 216.101 2019.15 221.888 M2014.89 220.638 Q2014.84 217.143 2012.92 215.059 Q2011.02 212.976 2007.88 212.976 Q2004.31 212.976 2002.16 214.99 Q2000.03 217.004 1999.7 220.661 L2014.89 220.638 Z" fill="#000000" fill-rule="evenodd" fill-opacity="1" /><path clip-path="url(#clip830)" d="M2041.16 213.971 Q2040.44 213.555 2039.59 213.37 Q2038.75 213.161 2037.74 213.161 Q2034.12 213.161 2032.18 215.522 Q2030.26 217.86 2030.26 222.258 L2030.26 235.916 L2025.98 235.916 L2025.98 209.99 L2030.26 209.99 L2030.26 214.018 Q2031.6 211.657 2033.75 210.522 Q2035.91 209.365 2038.99 209.365 Q2039.43 209.365 2039.96 209.434 Q2040.49 209.481 2041.14 209.596 L2041.16 213.971 Z" fill="#000000" fill-rule="evenodd" fill-opacity="1" /><path clip-path="url(#clip830)" d="M2070.75 212.976 Q2067.32 212.976 2065.33 215.661 Q2063.34 218.323 2063.34 222.976 Q2063.34 227.629 2065.31 230.314 Q2067.3 232.976 2070.75 232.976 Q2074.15 232.976 2076.14 230.291 Q2078.13 227.606 2078.13 222.976 Q2078.13 218.37 2076.14 215.684 Q2074.15 212.976 2070.75 212.976 M2070.75 209.365 Q2076.3 209.365 2079.47 212.976 Q2082.64 216.587 2082.64 222.976 Q2082.64 229.342 2079.47 232.976 Q2076.3 236.587 2070.75 236.587 Q2065.17 236.587 2062 232.976 Q2058.85 229.342 2058.85 222.976 Q2058.85 216.587 2062 212.976 Q2065.17 209.365 2070.75 209.365 Z" fill="#000000" fill-rule="evenodd" fill-opacity="1" /><path clip-path="url(#clip830)" d="M2089.26 225.684 L2089.26 209.99 L2093.52 209.99 L2093.52 225.522 Q2093.52 229.203 2094.96 231.055 Q2096.39 232.883 2099.26 232.883 Q2102.71 232.883 2104.7 230.684 Q2106.72 228.485 2106.72 224.689 L2106.72 209.99 L2110.98 209.99 L2110.98 235.916 L2106.72 235.916 L2106.72 231.934 Q2105.17 234.295 2103.11 235.453 Q2101.07 236.587 2098.36 236.587 Q2093.89 236.587 2091.58 233.809 Q2089.26 231.031 2089.26 225.684 M2099.98 209.365 L2099.98 209.365 Z" fill="#000000" fill-rule="evenodd" fill-opacity="1" /><path clip-path="url(#clip830)" d="M2123.96 202.629 L2123.96 209.99 L2132.74 209.99 L2132.74 213.3 L2123.96 213.3 L2123.96 227.374 Q2123.96 230.545 2124.82 231.448 Q2125.7 232.351 2128.36 232.351 L2132.74 232.351 L2132.74 235.916 L2128.36 235.916 Q2123.43 235.916 2121.55 234.087 Q2119.68 232.235 2119.68 227.374 L2119.68 213.3 L2116.55 213.3 L2116.55 209.99 L2119.68 209.99 L2119.68 202.629 L2123.96 202.629 Z" fill="#000000" fill-rule="evenodd" fill-opacity="1" /><path clip-path="url(#clip830)" d="M2142.46 232.027 L2142.46 245.777 L2138.18 245.777 L2138.18 209.99 L2142.46 209.99 L2142.46 213.925 Q2143.8 211.61 2145.84 210.499 Q2147.9 209.365 2150.74 209.365 Q2155.47 209.365 2158.41 213.115 Q2161.37 216.865 2161.37 222.976 Q2161.37 229.087 2158.41 232.837 Q2155.47 236.587 2150.74 236.587 Q2147.9 236.587 2145.84 235.476 Q2143.8 234.342 2142.46 232.027 M2156.95 222.976 Q2156.95 218.277 2155 215.615 Q2153.08 212.93 2149.7 212.93 Q2146.32 212.93 2144.38 215.615 Q2142.46 218.277 2142.46 222.976 Q2142.46 227.675 2144.38 230.36 Q2146.32 233.022 2149.7 233.022 Q2153.08 233.022 2155 230.36 Q2156.95 227.675 2156.95 222.976 Z" fill="#000000" fill-rule="evenodd" fill-opacity="1" /><path clip-path="url(#clip830)" d="M2167.99 225.684 L2167.99 209.99 L2172.25 209.99 L2172.25 225.522 Q2172.25 229.203 2173.68 231.055 Q2175.12 232.883 2177.99 232.883 Q2181.44 232.883 2183.43 230.684 Q2185.44 228.485 2185.44 224.689 L2185.44 209.99 L2189.7 209.99 L2189.7 235.916 L2185.44 235.916 L2185.44 231.934 Q2183.89 234.295 2181.83 235.453 Q2179.8 236.587 2177.09 236.587 Q2172.62 236.587 2170.3 233.809 Q2167.99 231.031 2167.99 225.684 M2178.71 209.365 L2178.71 209.365 Z" fill="#000000" fill-rule="evenodd" fill-opacity="1" /><path clip-path="url(#clip830)" d="M2202.69 202.629 L2202.69 209.99 L2211.46 209.99 L2211.46 213.3 L2202.69 213.3 L2202.69 227.374 Q2202.69 230.545 2203.55 231.448 Q2204.42 232.351 2207.09 232.351 L2211.46 232.351 L2211.46 235.916 L2207.09 235.916 Q2202.16 235.916 2200.28 234.087 Q2198.41 232.235 2198.41 227.374 L2198.41 213.3 L2195.28 213.3 L2195.28 209.99 L2198.41 209.99 L2198.41 202.629 L2202.69 202.629 Z" fill="#000000" fill-rule="evenodd" fill-opacity="1" /><polyline clip-path="url(#clip830)" style="stroke:#e26f46; stroke-linecap:round; stroke-linejoin:round; stroke-width:4; stroke-opacity:1; fill:none" points="
  1721.22,270.476 1870.6,270.476 
  "/>
<path clip-path="url(#clip830)" d="M1912 251.737 L1912 255.279 L1907.92 255.279 Q1905.63 255.279 1904.73 256.205 Q1903.85 257.131 1903.85 259.538 L1903.85 261.83 L1910.86 261.83 L1910.86 265.14 L1903.85 265.14 L1903.85 287.756 L1899.57 287.756 L1899.57 265.14 L1895.49 265.14 L1895.49 261.83 L1899.57 261.83 L1899.57 260.024 Q1899.57 255.696 1901.58 253.728 Q1903.59 251.737 1907.97 251.737 L1912 251.737 Z" fill="#000000" fill-rule="evenodd" fill-opacity="1" /><path clip-path="url(#clip830)" d="M1925.61 264.816 Q1922.18 264.816 1920.19 267.501 Q1918.2 270.163 1918.2 274.816 Q1918.2 279.469 1920.17 282.154 Q1922.16 284.816 1925.61 284.816 Q1929.01 284.816 1931 282.131 Q1932.99 279.446 1932.99 274.816 Q1932.99 270.21 1931 267.524 Q1929.01 264.816 1925.61 264.816 M1925.61 261.205 Q1931.16 261.205 1934.33 264.816 Q1937.51 268.427 1937.51 274.816 Q1937.51 281.182 1934.33 284.816 Q1931.16 288.427 1925.61 288.427 Q1920.03 288.427 1916.86 284.816 Q1913.71 281.182 1913.71 274.816 Q1913.71 268.427 1916.86 264.816 Q1920.03 261.205 1925.61 261.205 Z" fill="#000000" fill-rule="evenodd" fill-opacity="1" /><path clip-path="url(#clip830)" d="M1944.57 251.737 L1948.82 251.737 L1948.82 287.756 L1944.57 287.756 L1944.57 251.737 Z" fill="#000000" fill-rule="evenodd" fill-opacity="1" /><path clip-path="url(#clip830)" d="M1957.74 251.737 L1962 251.737 L1962 287.756 L1957.74 287.756 L1957.74 251.737 Z" fill="#000000" fill-rule="evenodd" fill-opacity="1" /><path clip-path="url(#clip830)" d="M1980.95 264.816 Q1977.53 264.816 1975.54 267.501 Q1973.55 270.163 1973.55 274.816 Q1973.55 279.469 1975.51 282.154 Q1977.5 284.816 1980.95 284.816 Q1984.36 284.816 1986.35 282.131 Q1988.34 279.446 1988.34 274.816 Q1988.34 270.21 1986.35 267.524 Q1984.36 264.816 1980.95 264.816 M1980.95 261.205 Q1986.51 261.205 1989.68 264.816 Q1992.85 268.427 1992.85 274.816 Q1992.85 281.182 1989.68 284.816 Q1986.51 288.427 1980.95 288.427 Q1975.38 288.427 1972.2 284.816 Q1969.06 281.182 1969.06 274.816 Q1969.06 268.427 1972.2 264.816 Q1975.38 261.205 1980.95 261.205 Z" fill="#000000" fill-rule="evenodd" fill-opacity="1" /><path clip-path="url(#clip830)" d="M1997.44 261.83 L2001.69 261.83 L2007.02 282.061 L2012.32 261.83 L2017.34 261.83 L2022.67 282.061 L2027.97 261.83 L2032.23 261.83 L2025.44 287.756 L2020.42 287.756 L2014.84 266.506 L2009.24 287.756 L2004.22 287.756 L1997.44 261.83 Z" fill="#000000" fill-rule="evenodd" fill-opacity="1" /><path clip-path="url(#clip830)" d="M2060.86 273.728 L2060.86 275.811 L2041.28 275.811 Q2041.56 280.209 2043.92 282.524 Q2046.3 284.816 2050.54 284.816 Q2052.99 284.816 2055.28 284.214 Q2057.6 283.612 2059.87 282.409 L2059.87 286.436 Q2057.57 287.408 2055.17 287.918 Q2052.76 288.427 2050.28 288.427 Q2044.08 288.427 2040.44 284.816 Q2036.83 281.205 2036.83 275.047 Q2036.83 268.682 2040.26 264.955 Q2043.71 261.205 2049.54 261.205 Q2054.77 261.205 2057.81 264.585 Q2060.86 267.941 2060.86 273.728 M2056.6 272.478 Q2056.56 268.983 2054.63 266.899 Q2052.74 264.816 2049.59 264.816 Q2046.02 264.816 2043.87 266.83 Q2041.74 268.844 2041.42 272.501 L2056.6 272.478 Z" fill="#000000" fill-rule="evenodd" fill-opacity="1" /><path clip-path="url(#clip830)" d="M2082.87 265.811 Q2082.16 265.395 2081.3 265.21 Q2080.47 265.001 2079.45 265.001 Q2075.84 265.001 2073.89 267.362 Q2071.97 269.7 2071.97 274.098 L2071.97 287.756 L2067.69 287.756 L2067.69 261.83 L2071.97 261.83 L2071.97 265.858 Q2073.31 263.497 2075.47 262.362 Q2077.62 261.205 2080.7 261.205 Q2081.14 261.205 2081.67 261.274 Q2082.2 261.321 2082.85 261.436 L2082.87 265.811 Z" fill="#000000" fill-rule="evenodd" fill-opacity="1" /><path clip-path="url(#clip830)" d="M2112.46 264.816 Q2109.03 264.816 2107.04 267.501 Q2105.05 270.163 2105.05 274.816 Q2105.05 279.469 2107.02 282.154 Q2109.01 284.816 2112.46 284.816 Q2115.86 284.816 2117.85 282.131 Q2119.84 279.446 2119.84 274.816 Q2119.84 270.21 2117.85 267.524 Q2115.86 264.816 2112.46 264.816 M2112.46 261.205 Q2118.01 261.205 2121.18 264.816 Q2124.36 268.427 2124.36 274.816 Q2124.36 281.182 2121.18 284.816 Q2118.01 288.427 2112.46 288.427 Q2106.88 288.427 2103.71 284.816 Q2100.56 281.182 2100.56 274.816 Q2100.56 268.427 2103.71 264.816 Q2106.88 261.205 2112.46 261.205 Z" fill="#000000" fill-rule="evenodd" fill-opacity="1" /><path clip-path="url(#clip830)" d="M2130.98 277.524 L2130.98 261.83 L2135.24 261.83 L2135.24 277.362 Q2135.24 281.043 2136.67 282.895 Q2138.11 284.723 2140.98 284.723 Q2144.43 284.723 2146.42 282.524 Q2148.43 280.325 2148.43 276.529 L2148.43 261.83 L2152.69 261.83 L2152.69 287.756 L2148.43 287.756 L2148.43 283.774 Q2146.88 286.135 2144.82 287.293 Q2142.78 288.427 2140.07 288.427 Q2135.61 288.427 2133.29 285.649 Q2130.98 282.871 2130.98 277.524 M2141.69 261.205 L2141.69 261.205 Z" fill="#000000" fill-rule="evenodd" fill-opacity="1" /><path clip-path="url(#clip830)" d="M2165.68 254.469 L2165.68 261.83 L2174.45 261.83 L2174.45 265.14 L2165.68 265.14 L2165.68 279.214 Q2165.68 282.385 2166.53 283.288 Q2167.41 284.191 2170.07 284.191 L2174.45 284.191 L2174.45 287.756 L2170.07 287.756 Q2165.14 287.756 2163.27 285.927 Q2161.39 284.075 2161.39 279.214 L2161.39 265.14 L2158.27 265.14 L2158.27 261.83 L2161.39 261.83 L2161.39 254.469 L2165.68 254.469 Z" fill="#000000" fill-rule="evenodd" fill-opacity="1" /><path clip-path="url(#clip830)" d="M2184.17 283.867 L2184.17 297.617 L2179.89 297.617 L2179.89 261.83 L2184.17 261.83 L2184.17 265.765 Q2185.51 263.45 2187.55 262.339 Q2189.61 261.205 2192.46 261.205 Q2197.18 261.205 2200.12 264.955 Q2203.08 268.705 2203.08 274.816 Q2203.08 280.927 2200.12 284.677 Q2197.18 288.427 2192.46 288.427 Q2189.61 288.427 2187.55 287.316 Q2185.51 286.182 2184.17 283.867 M2198.66 274.816 Q2198.66 270.117 2196.72 267.455 Q2194.8 264.77 2191.42 264.77 Q2188.04 264.77 2186.09 267.455 Q2184.17 270.117 2184.17 274.816 Q2184.17 279.515 2186.09 282.2 Q2188.04 284.862 2191.42 284.862 Q2194.8 284.862 2196.72 282.2 Q2198.66 279.515 2198.66 274.816 Z" fill="#000000" fill-rule="evenodd" fill-opacity="1" /><path clip-path="url(#clip830)" d="M2209.7 277.524 L2209.7 261.83 L2213.96 261.83 L2213.96 277.362 Q2213.96 281.043 2215.4 282.895 Q2216.83 284.723 2219.7 284.723 Q2223.15 284.723 2225.14 282.524 Q2227.16 280.325 2227.16 276.529 L2227.16 261.83 L2231.42 261.83 L2231.42 287.756 L2227.16 287.756 L2227.16 283.774 Q2225.61 286.135 2223.55 287.293 Q2221.51 288.427 2218.8 288.427 Q2214.33 288.427 2212.02 285.649 Q2209.7 282.871 2209.7 277.524 M2220.42 261.205 L2220.42 261.205 Z" fill="#000000" fill-rule="evenodd" fill-opacity="1" /><path clip-path="url(#clip830)" d="M2244.4 254.469 L2244.4 261.83 L2253.17 261.83 L2253.17 265.14 L2244.4 265.14 L2244.4 279.214 Q2244.4 282.385 2245.26 283.288 Q2246.14 284.191 2248.8 284.191 L2253.17 284.191 L2253.17 287.756 L2248.8 287.756 Q2243.87 287.756 2241.99 285.927 Q2240.12 284.075 2240.12 279.214 L2240.12 265.14 L2236.99 265.14 L2236.99 261.83 L2240.12 261.83 L2240.12 254.469 L2244.4 254.469 Z" fill="#000000" fill-rule="evenodd" fill-opacity="1" /><polyline clip-path="url(#clip830)" style="stroke:#3da44d; stroke-linecap:round; stroke-linejoin:round; stroke-width:4; stroke-opacity:1; fill:none" points="
  1721.22,322.316 1870.6,322.316 
  "/>
<path clip-path="url(#clip830)" d="M1899.77 335.707 L1899.77 349.457 L1895.49 349.457 L1895.49 313.67 L1899.77 313.67 L1899.77 317.605 Q1901.12 315.29 1903.15 314.179 Q1905.21 313.045 1908.06 313.045 Q1912.78 313.045 1915.72 316.795 Q1918.69 320.545 1918.69 326.656 Q1918.69 332.767 1915.72 336.517 Q1912.78 340.267 1908.06 340.267 Q1905.21 340.267 1903.15 339.156 Q1901.12 338.022 1899.77 335.707 M1914.26 326.656 Q1914.26 321.957 1912.32 319.295 Q1910.4 316.61 1907.02 316.61 Q1903.64 316.61 1901.7 319.295 Q1899.77 321.957 1899.77 326.656 Q1899.77 331.355 1901.7 334.04 Q1903.64 336.702 1907.02 336.702 Q1910.4 336.702 1912.32 334.04 Q1914.26 331.355 1914.26 326.656 Z" fill="#000000" fill-rule="evenodd" fill-opacity="1" /><path clip-path="url(#clip830)" d="M1940.77 317.651 Q1940.05 317.235 1939.19 317.05 Q1938.36 316.841 1937.34 316.841 Q1933.73 316.841 1931.79 319.202 Q1929.87 321.54 1929.87 325.938 L1929.87 339.596 L1925.58 339.596 L1925.58 313.67 L1929.87 313.67 L1929.87 317.698 Q1931.21 315.337 1933.36 314.202 Q1935.51 313.045 1938.59 313.045 Q1939.03 313.045 1939.57 313.114 Q1940.1 313.161 1940.75 313.276 L1940.77 317.651 Z" fill="#000000" fill-rule="evenodd" fill-opacity="1" /><path clip-path="url(#clip830)" d="M1945.24 313.67 L1949.5 313.67 L1949.5 339.596 L1945.24 339.596 L1945.24 313.67 M1945.24 303.577 L1949.5 303.577 L1949.5 308.971 L1945.24 308.971 L1945.24 303.577 Z" fill="#000000" fill-rule="evenodd" fill-opacity="1" /><path clip-path="url(#clip830)" d="M1977.06 314.665 L1977.06 318.647 Q1975.26 317.651 1973.43 317.165 Q1971.63 316.656 1969.77 316.656 Q1965.63 316.656 1963.34 319.295 Q1961.05 321.911 1961.05 326.656 Q1961.05 331.401 1963.34 334.04 Q1965.63 336.656 1969.77 336.656 Q1971.63 336.656 1973.43 336.17 Q1975.26 335.661 1977.06 334.665 L1977.06 338.6 Q1975.28 339.434 1973.36 339.85 Q1971.46 340.267 1969.31 340.267 Q1963.45 340.267 1960 336.586 Q1956.56 332.906 1956.56 326.656 Q1956.56 320.313 1960.03 316.679 Q1963.52 313.045 1969.59 313.045 Q1971.56 313.045 1973.43 313.462 Q1975.31 313.855 1977.06 314.665 Z" fill="#000000" fill-rule="evenodd" fill-opacity="1" /><path clip-path="url(#clip830)" d="M2006.65 325.568 L2006.65 327.651 L1987.06 327.651 Q1987.34 332.049 1989.7 334.364 Q1992.09 336.656 1996.32 336.656 Q1998.78 336.656 2001.07 336.054 Q2003.38 335.452 2005.65 334.249 L2005.65 338.276 Q2003.36 339.248 2000.95 339.758 Q1998.55 340.267 1996.07 340.267 Q1989.87 340.267 1986.23 336.656 Q1982.62 333.045 1982.62 326.887 Q1982.62 320.522 1986.05 316.795 Q1989.5 313.045 1995.33 313.045 Q2000.56 313.045 2003.59 316.425 Q2006.65 319.781 2006.65 325.568 M2002.39 324.318 Q2002.34 320.823 2000.42 318.739 Q1998.52 316.656 1995.38 316.656 Q1991.81 316.656 1989.66 318.67 Q1987.53 320.684 1987.2 324.341 L2002.39 324.318 Z" fill="#000000" fill-rule="evenodd" fill-opacity="1" /></svg>
