<?xml version="1.0" encoding="utf-8"?>
<svg xmlns="http://www.w3.org/2000/svg" xmlns:xlink="http://www.w3.org/1999/xlink" width="600" height="400" viewBox="0 0 2400 1600">
<defs>
  <clipPath id="clip460">
    <rect x="0" y="0" width="2400" height="1600"/>
  </clipPath>
</defs>
<path clip-path="url(#clip460)" d="
M0 1600 L2400 1600 L2400 0 L0 0  Z
  " fill="#ffffff" fill-rule="evenodd" fill-opacity="1"/>
<defs>
  <clipPath id="clip461">
    <rect x="480" y="0" width="1681" height="1600"/>
  </clipPath>
</defs>
<defs>
  <clipPath id="clip462">
    <rect x="112" y="123" width="2242" height="1301"/>
  </clipPath>
</defs>
<path clip-path="url(#clip460)" d="
M169.121 1423.18 L2352.76 1423.18 L2352.76 123.472 L169.121 123.472  Z
  " fill="#ffffff" fill-rule="evenodd" fill-opacity="1"/>
<defs>
  <clipPath id="clip463">
    <rect x="169" y="123" width="2185" height="1301"/>
  </clipPath>
</defs>
<polyline clip-path="url(#clip463)" style="stroke:#000000; stroke-linecap:butt; stroke-linejoin:round; stroke-width:2; stroke-opacity:0.1; fill:none" points="
  224.033,1423.18 224.033,123.472 
  "/>
<polyline clip-path="url(#clip463)" style="stroke:#000000; stroke-linecap:butt; stroke-linejoin:round; stroke-width:2; stroke-opacity:0.1; fill:none" points="
  913.007,1423.18 913.007,123.472 
  "/>
<polyline clip-path="url(#clip463)" style="stroke:#000000; stroke-linecap:butt; stroke-linejoin:round; stroke-width:2; stroke-opacity:0.1; fill:none" points="
  1601.98,1423.18 1601.98,123.472 
  "/>
<polyline clip-path="url(#clip463)" style="stroke:#000000; stroke-linecap:butt; stroke-linejoin:round; stroke-width:2; stroke-opacity:0.1; fill:none" points="
  2290.95,1423.18 2290.95,123.472 
  "/>
<polyline clip-path="url(#clip460)" style="stroke:#000000; stroke-linecap:butt; stroke-linejoin:round; stroke-width:4; stroke-opacity:1; fill:none" points="
  169.121,1423.18 2352.76,1423.18 
  "/>
<polyline clip-path="url(#clip460)" style="stroke:#000000; stroke-linecap:butt; stroke-linejoin:round; stroke-width:4; stroke-opacity:1; fill:none" points="
  224.033,1423.18 224.033,1404.28 
  "/>
<polyline clip-path="url(#clip460)" style="stroke:#000000; stroke-linecap:butt; stroke-linejoin:round; stroke-width:4; stroke-opacity:1; fill:none" points="
  913.007,1423.18 913.007,1404.28 
  "/>
<polyline clip-path="url(#clip460)" style="stroke:#000000; stroke-linecap:butt; stroke-linejoin:round; stroke-width:4; stroke-opacity:1; fill:none" points="
  1601.98,1423.18 1601.98,1404.28 
  "/>
<polyline clip-path="url(#clip460)" style="stroke:#000000; stroke-linecap:butt; stroke-linejoin:round; stroke-width:4; stroke-opacity:1; fill:none" points="
  2290.95,1423.18 2290.95,1404.28 
  "/>
<path clip-path="url(#clip460)" d="M224.033 1454.1 Q220.421 1454.1 218.593 1457.66 Q216.787 1461.2 216.787 1468.33 Q216.787 1475.44 218.593 1479.01 Q220.421 1482.55 224.033 1482.55 Q227.667 1482.55 229.472 1479.01 Q231.301 1475.44 231.301 1468.33 Q231.301 1461.2 229.472 1457.66 Q227.667 1454.1 224.033 1454.1 M224.033 1450.39 Q229.843 1450.39 232.898 1455 Q235.977 1459.58 235.977 1468.33 Q235.977 1477.06 232.898 1481.67 Q229.843 1486.25 224.033 1486.25 Q218.222 1486.25 215.144 1481.67 Q212.088 1477.06 212.088 1468.33 Q212.088 1459.58 215.144 1455 Q218.222 1450.39 224.033 1450.39 Z" fill="#000000" fill-rule="evenodd" fill-opacity="1" /><path clip-path="url(#clip460)" d="M872.613 1481.64 L880.252 1481.64 L880.252 1455.28 L871.942 1456.95 L871.942 1452.69 L880.206 1451.02 L884.882 1451.02 L884.882 1481.64 L892.521 1481.64 L892.521 1485.58 L872.613 1485.58 L872.613 1481.64 Z" fill="#000000" fill-rule="evenodd" fill-opacity="1" /><path clip-path="url(#clip460)" d="M911.965 1454.1 Q908.354 1454.1 906.525 1457.66 Q904.72 1461.2 904.72 1468.33 Q904.72 1475.44 906.525 1479.01 Q908.354 1482.55 911.965 1482.55 Q915.599 1482.55 917.405 1479.01 Q919.233 1475.44 919.233 1468.33 Q919.233 1461.2 917.405 1457.66 Q915.599 1454.1 911.965 1454.1 M911.965 1450.39 Q917.775 1450.39 920.831 1455 Q923.909 1459.58 923.909 1468.33 Q923.909 1477.06 920.831 1481.67 Q917.775 1486.25 911.965 1486.25 Q906.155 1486.25 903.076 1481.67 Q900.021 1477.06 900.021 1468.33 Q900.021 1459.58 903.076 1455 Q906.155 1450.39 911.965 1450.39 Z" fill="#000000" fill-rule="evenodd" fill-opacity="1" /><path clip-path="url(#clip460)" d="M942.127 1454.1 Q938.516 1454.1 936.687 1457.66 Q934.882 1461.2 934.882 1468.33 Q934.882 1475.44 936.687 1479.01 Q938.516 1482.55 942.127 1482.55 Q945.761 1482.55 947.567 1479.01 Q949.395 1475.44 949.395 1468.33 Q949.395 1461.2 947.567 1457.66 Q945.761 1454.1 942.127 1454.1 M942.127 1450.39 Q947.937 1450.39 950.993 1455 Q954.071 1459.58 954.071 1468.33 Q954.071 1477.06 950.993 1481.67 Q947.937 1486.25 942.127 1486.25 Q936.317 1486.25 933.238 1481.67 Q930.183 1477.06 930.183 1468.33 Q930.183 1459.58 933.238 1455 Q936.317 1450.39 942.127 1450.39 Z" fill="#000000" fill-rule="evenodd" fill-opacity="1" /><path clip-path="url(#clip460)" d="M1565.67 1481.64 L1581.99 1481.64 L1581.99 1485.58 L1560.05 1485.58 L1560.05 1481.64 Q1562.71 1478.89 1567.29 1474.26 Q1571.9 1469.61 1573.08 1468.27 Q1575.33 1465.74 1576.21 1464.01 Q1577.11 1462.25 1577.11 1460.56 Q1577.11 1457.8 1575.16 1456.07 Q1573.24 1454.33 1570.14 1454.33 Q1567.94 1454.33 1565.49 1455.09 Q1563.06 1455.86 1560.28 1457.41 L1560.28 1452.69 Q1563.1 1451.55 1565.56 1450.97 Q1568.01 1450.39 1570.05 1450.39 Q1575.42 1450.39 1578.61 1453.08 Q1581.81 1455.77 1581.81 1460.26 Q1581.81 1462.39 1581 1464.31 Q1580.21 1466.2 1578.1 1468.8 Q1577.52 1469.47 1574.42 1472.69 Q1571.32 1475.88 1565.67 1481.64 Z" fill="#000000" fill-rule="evenodd" fill-opacity="1" /><path clip-path="url(#clip460)" d="M1601.81 1454.1 Q1598.2 1454.1 1596.37 1457.66 Q1594.56 1461.2 1594.56 1468.33 Q1594.56 1475.44 1596.37 1479.01 Q1598.2 1482.55 1601.81 1482.55 Q1605.44 1482.55 1607.25 1479.01 Q1609.08 1475.44 1609.08 1468.33 Q1609.08 1461.2 1607.25 1457.66 Q1605.44 1454.1 1601.81 1454.1 M1601.81 1450.39 Q1607.62 1450.39 1610.67 1455 Q1613.75 1459.58 1613.75 1468.33 Q1613.75 1477.06 1610.67 1481.67 Q1607.62 1486.25 1601.81 1486.25 Q1596 1486.25 1592.92 1481.67 Q1589.86 1477.06 1589.86 1468.33 Q1589.86 1459.58 1592.92 1455 Q1596 1450.39 1601.81 1450.39 Z" fill="#000000" fill-rule="evenodd" fill-opacity="1" /><path clip-path="url(#clip460)" d="M1631.97 1454.1 Q1628.36 1454.1 1626.53 1457.66 Q1624.72 1461.2 1624.72 1468.33 Q1624.72 1475.44 1626.53 1479.01 Q1628.36 1482.55 1631.97 1482.55 Q1635.6 1482.55 1637.41 1479.01 Q1639.24 1475.44 1639.24 1468.33 Q1639.24 1461.2 1637.41 1457.66 Q1635.6 1454.1 1631.97 1454.1 M1631.97 1450.39 Q1637.78 1450.39 1640.83 1455 Q1643.91 1459.58 1643.91 1468.33 Q1643.91 1477.06 1640.83 1481.67 Q1637.78 1486.25 1631.97 1486.25 Q1626.16 1486.25 1623.08 1481.67 Q1620.02 1477.06 1620.02 1468.33 Q1620.02 1459.58 1623.08 1455 Q1626.16 1450.39 1631.97 1450.39 Z" fill="#000000" fill-rule="evenodd" fill-opacity="1" /><path clip-path="url(#clip460)" d="M2264.72 1466.95 Q2268.07 1467.66 2269.95 1469.93 Q2271.85 1472.2 2271.85 1475.53 Q2271.85 1480.65 2268.33 1483.45 Q2264.81 1486.25 2258.33 1486.25 Q2256.15 1486.25 2253.84 1485.81 Q2251.55 1485.39 2249.09 1484.54 L2249.09 1480.02 Q2251.04 1481.16 2253.35 1481.74 Q2255.67 1482.32 2258.19 1482.32 Q2262.59 1482.32 2264.88 1480.58 Q2267.19 1478.84 2267.19 1475.53 Q2267.19 1472.48 2265.04 1470.77 Q2262.91 1469.03 2259.09 1469.03 L2255.06 1469.03 L2255.06 1465.19 L2259.28 1465.19 Q2262.73 1465.19 2264.55 1463.82 Q2266.38 1462.43 2266.38 1459.84 Q2266.38 1457.18 2264.49 1455.77 Q2262.61 1454.33 2259.09 1454.33 Q2257.17 1454.33 2254.97 1454.75 Q2252.77 1455.16 2250.13 1456.04 L2250.13 1451.88 Q2252.8 1451.14 2255.11 1450.77 Q2257.45 1450.39 2259.51 1450.39 Q2264.83 1450.39 2267.93 1452.83 Q2271.04 1455.23 2271.04 1459.35 Q2271.04 1462.22 2269.39 1464.21 Q2267.75 1466.18 2264.72 1466.95 Z" fill="#000000" fill-rule="evenodd" fill-opacity="1" /><path clip-path="url(#clip460)" d="M2290.71 1454.1 Q2287.1 1454.1 2285.27 1457.66 Q2283.47 1461.2 2283.47 1468.33 Q2283.47 1475.44 2285.27 1479.01 Q2287.1 1482.55 2290.71 1482.55 Q2294.35 1482.55 2296.15 1479.01 Q2297.98 1475.44 2297.98 1468.33 Q2297.98 1461.2 2296.15 1457.66 Q2294.35 1454.1 2290.71 1454.1 M2290.71 1450.39 Q2296.52 1450.39 2299.58 1455 Q2302.66 1459.58 2302.66 1468.33 Q2302.66 1477.06 2299.58 1481.67 Q2296.52 1486.25 2290.71 1486.25 Q2284.9 1486.25 2281.82 1481.67 Q2278.77 1477.06 2278.77 1468.33 Q2278.77 1459.58 2281.82 1455 Q2284.9 1450.39 2290.71 1450.39 Z" fill="#000000" fill-rule="evenodd" fill-opacity="1" /><path clip-path="url(#clip460)" d="M2320.87 1454.1 Q2317.26 1454.1 2315.43 1457.66 Q2313.63 1461.2 2313.63 1468.33 Q2313.63 1475.44 2315.43 1479.01 Q2317.26 1482.55 2320.87 1482.55 Q2324.51 1482.55 2326.31 1479.01 Q2328.14 1475.44 2328.14 1468.33 Q2328.14 1461.2 2326.31 1457.66 Q2324.51 1454.1 2320.87 1454.1 M2320.87 1450.39 Q2326.68 1450.39 2329.74 1455 Q2332.82 1459.58 2332.82 1468.33 Q2332.82 1477.06 2329.74 1481.67 Q2326.68 1486.25 2320.87 1486.25 Q2315.06 1486.25 2311.98 1481.67 Q2308.93 1477.06 2308.93 1468.33 Q2308.93 1459.58 2311.98 1455 Q2315.06 1450.39 2320.87 1450.39 Z" fill="#000000" fill-rule="evenodd" fill-opacity="1" /><path clip-path="url(#clip460)" d="M1269.41 1548.54 Q1269.41 1549.45 1268.99 1549.67 Q1268.57 1549.87 1267.41 1549.87 L1261.23 1549.87 L1256.33 1569.32 Q1255.95 1571.02 1255.95 1572.47 Q1255.95 1574.08 1256.43 1574.79 Q1256.95 1575.5 1258.01 1575.5 Q1260.1 1575.5 1262.36 1573.6 Q1264.64 1571.7 1266.58 1567.06 Q1266.83 1566.45 1266.96 1566.32 Q1267.12 1566.16 1267.54 1566.16 Q1268.35 1566.16 1268.35 1566.81 Q1268.35 1567.03 1267.9 1568.06 Q1267.48 1569.09 1266.54 1570.61 Q1265.64 1572.12 1264.45 1573.54 Q1263.29 1574.95 1261.52 1575.98 Q1259.75 1576.98 1257.85 1576.98 Q1255.17 1576.98 1253.47 1575.28 Q1251.79 1573.57 1251.79 1570.9 Q1251.79 1570.03 1252.47 1567.26 Q1253.15 1564.45 1256.82 1549.87 L1250.99 1549.87 Q1250.18 1549.87 1249.86 1549.83 Q1249.57 1549.8 1249.35 1549.64 Q1249.15 1549.45 1249.15 1549.06 Q1249.15 1548.45 1249.41 1548.19 Q1249.67 1547.9 1249.99 1547.87 Q1250.34 1547.8 1251.15 1547.8 L1257.33 1547.8 L1259.91 1537.34 Q1260.17 1536.31 1260.81 1535.73 Q1261.49 1535.12 1261.87 1535.05 Q1262.26 1534.95 1262.55 1534.95 Q1263.42 1534.95 1263.93 1535.44 Q1264.45 1535.89 1264.45 1536.73 Q1264.45 1537.18 1261.74 1547.8 L1267.54 1547.8 Q1268.28 1547.8 1268.57 1547.84 Q1268.89 1547.87 1269.15 1548.03 Q1269.41 1548.19 1269.41 1548.54 Z" fill="#000000" fill-rule="evenodd" fill-opacity="1" /><polyline clip-path="url(#clip463)" style="stroke:#000000; stroke-linecap:butt; stroke-linejoin:round; stroke-width:2; stroke-opacity:0.1; fill:none" points="
  169.121,1356.97 2352.76,1356.97 
  "/>
<polyline clip-path="url(#clip463)" style="stroke:#000000; stroke-linecap:butt; stroke-linejoin:round; stroke-width:2; stroke-opacity:0.1; fill:none" points="
  169.121,1043.08 2352.76,1043.08 
  "/>
<polyline clip-path="url(#clip463)" style="stroke:#000000; stroke-linecap:butt; stroke-linejoin:round; stroke-width:2; stroke-opacity:0.1; fill:none" points="
  169.121,729.185 2352.76,729.185 
  "/>
<polyline clip-path="url(#clip463)" style="stroke:#000000; stroke-linecap:butt; stroke-linejoin:round; stroke-width:2; stroke-opacity:0.1; fill:none" points="
  169.121,415.293 2352.76,415.293 
  "/>
<polyline clip-path="url(#clip460)" style="stroke:#000000; stroke-linecap:butt; stroke-linejoin:round; stroke-width:4; stroke-opacity:1; fill:none" points="
  169.121,1423.18 169.121,123.472 
  "/>
<polyline clip-path="url(#clip460)" style="stroke:#000000; stroke-linecap:butt; stroke-linejoin:round; stroke-width:4; stroke-opacity:1; fill:none" points="
  169.121,1356.97 188.019,1356.97 
  "/>
<polyline clip-path="url(#clip460)" style="stroke:#000000; stroke-linecap:butt; stroke-linejoin:round; stroke-width:4; stroke-opacity:1; fill:none" points="
  169.121,1043.08 188.019,1043.08 
  "/>
<polyline clip-path="url(#clip460)" style="stroke:#000000; stroke-linecap:butt; stroke-linejoin:round; stroke-width:4; stroke-opacity:1; fill:none" points="
  169.121,729.185 188.019,729.185 
  "/>
<polyline clip-path="url(#clip460)" style="stroke:#000000; stroke-linecap:butt; stroke-linejoin:round; stroke-width:4; stroke-opacity:1; fill:none" points="
  169.121,415.293 188.019,415.293 
  "/>
<path clip-path="url(#clip460)" d="M91.0151 1357.84 Q87.6817 1357.84 85.7605 1359.62 Q83.8623 1361.4 83.8623 1364.53 Q83.8623 1367.65 85.7605 1369.43 Q87.6817 1371.22 91.0151 1371.22 Q94.3484 1371.22 96.2697 1369.43 Q98.1909 1367.63 98.1909 1364.53 Q98.1909 1361.4 96.2697 1359.62 Q94.3715 1357.84 91.0151 1357.84 M86.3392 1355.85 Q83.3299 1355.1 81.6401 1353.04 Q79.9735 1350.98 79.9735 1348.02 Q79.9735 1343.88 82.9133 1341.47 Q85.8762 1339.06 91.0151 1339.06 Q96.1771 1339.06 99.1169 1341.47 Q102.057 1343.88 102.057 1348.02 Q102.057 1350.98 100.367 1353.04 Q98.7002 1355.1 95.7141 1355.85 Q99.0937 1356.63 100.969 1358.92 Q102.867 1361.22 102.867 1364.53 Q102.867 1369.55 99.7882 1372.23 Q96.7326 1374.92 91.0151 1374.92 Q85.2975 1374.92 82.2188 1372.23 Q79.1633 1369.55 79.1633 1364.53 Q79.1633 1361.22 81.0614 1358.92 Q82.9595 1356.63 86.3392 1355.85 M84.6262 1348.46 Q84.6262 1351.15 86.2929 1352.65 Q87.9827 1354.16 91.0151 1354.16 Q94.0243 1354.16 95.7141 1352.65 Q97.4271 1351.15 97.4271 1348.46 Q97.4271 1345.78 95.7141 1344.27 Q94.0243 1342.77 91.0151 1342.77 Q87.9827 1342.77 86.2929 1344.27 Q84.6262 1345.78 84.6262 1348.46 Z" fill="#000000" fill-rule="evenodd" fill-opacity="1" /><path clip-path="url(#clip460)" d="M121.177 1342.77 Q117.566 1342.77 115.737 1346.33 Q113.932 1349.87 113.932 1357 Q113.932 1364.11 115.737 1367.67 Q117.566 1371.22 121.177 1371.22 Q124.811 1371.22 126.617 1367.67 Q128.445 1364.11 128.445 1357 Q128.445 1349.87 126.617 1346.33 Q124.811 1342.77 121.177 1342.77 M121.177 1339.06 Q126.987 1339.06 130.043 1343.67 Q133.121 1348.25 133.121 1357 Q133.121 1365.73 130.043 1370.34 Q126.987 1374.92 121.177 1374.92 Q115.367 1374.92 112.288 1370.34 Q109.233 1365.73 109.233 1357 Q109.233 1348.25 112.288 1343.67 Q115.367 1339.06 121.177 1339.06 Z" fill="#000000" fill-rule="evenodd" fill-opacity="1" /><path clip-path="url(#clip460)" d="M51.6634 1056.42 L59.3023 1056.42 L59.3023 1030.06 L50.9921 1031.72 L50.9921 1027.46 L59.256 1025.8 L63.9319 1025.8 L63.9319 1056.42 L71.5707 1056.42 L71.5707 1060.36 L51.6634 1060.36 L51.6634 1056.42 Z" fill="#000000" fill-rule="evenodd" fill-opacity="1" /><path clip-path="url(#clip460)" d="M91.0151 1028.88 Q87.404 1028.88 85.5753 1032.44 Q83.7697 1035.98 83.7697 1043.11 Q83.7697 1050.22 85.5753 1053.78 Q87.404 1057.32 91.0151 1057.32 Q94.6493 1057.32 96.4548 1053.78 Q98.2835 1050.22 98.2835 1043.11 Q98.2835 1035.98 96.4548 1032.44 Q94.6493 1028.88 91.0151 1028.88 M91.0151 1025.17 Q96.8252 1025.17 99.8808 1029.78 Q102.959 1034.36 102.959 1043.11 Q102.959 1051.84 99.8808 1056.44 Q96.8252 1061.03 91.0151 1061.03 Q85.2049 1061.03 82.1262 1056.44 Q79.0707 1051.84 79.0707 1043.11 Q79.0707 1034.36 82.1262 1029.78 Q85.2049 1025.17 91.0151 1025.17 Z" fill="#000000" fill-rule="evenodd" fill-opacity="1" /><path clip-path="url(#clip460)" d="M121.177 1028.88 Q117.566 1028.88 115.737 1032.44 Q113.932 1035.98 113.932 1043.11 Q113.932 1050.22 115.737 1053.78 Q117.566 1057.32 121.177 1057.32 Q124.811 1057.32 126.617 1053.78 Q128.445 1050.22 128.445 1043.11 Q128.445 1035.98 126.617 1032.44 Q124.811 1028.88 121.177 1028.88 M121.177 1025.17 Q126.987 1025.17 130.043 1029.78 Q133.121 1034.36 133.121 1043.11 Q133.121 1051.84 130.043 1056.44 Q126.987 1061.03 121.177 1061.03 Q115.367 1061.03 112.288 1056.44 Q109.233 1051.84 109.233 1043.11 Q109.233 1034.36 112.288 1029.78 Q115.367 1025.17 121.177 1025.17 Z" fill="#000000" fill-rule="evenodd" fill-opacity="1" /><path clip-path="url(#clip460)" d="M51.6634 742.53 L59.3023 742.53 L59.3023 716.164 L50.9921 717.831 L50.9921 713.572 L59.256 711.905 L63.9319 711.905 L63.9319 742.53 L71.5707 742.53 L71.5707 746.465 L51.6634 746.465 L51.6634 742.53 Z" fill="#000000" fill-rule="evenodd" fill-opacity="1" /><path clip-path="url(#clip460)" d="M85.0429 742.53 L101.362 742.53 L101.362 746.465 L79.4179 746.465 L79.4179 742.53 Q82.0799 739.775 86.6632 735.146 Q91.2697 730.493 92.4502 729.15 Q94.6956 726.627 95.5752 724.891 Q96.478 723.132 96.478 721.442 Q96.478 718.687 94.5336 716.951 Q92.6123 715.215 89.5104 715.215 Q87.3114 715.215 84.8577 715.979 Q82.4271 716.743 79.6494 718.294 L79.6494 713.572 Q82.4734 712.437 84.9271 711.859 Q87.3808 711.28 89.4178 711.28 Q94.7882 711.28 97.9826 713.965 Q101.177 716.65 101.177 721.141 Q101.177 723.271 100.367 725.192 Q99.5798 727.09 97.4734 729.683 Q96.8947 730.354 93.7928 733.572 Q90.691 736.766 85.0429 742.53 Z" fill="#000000" fill-rule="evenodd" fill-opacity="1" /><path clip-path="url(#clip460)" d="M121.177 714.984 Q117.566 714.984 115.737 718.548 Q113.932 722.09 113.932 729.22 Q113.932 736.326 115.737 739.891 Q117.566 743.433 121.177 743.433 Q124.811 743.433 126.617 739.891 Q128.445 736.326 128.445 729.22 Q128.445 722.09 126.617 718.548 Q124.811 714.984 121.177 714.984 M121.177 711.28 Q126.987 711.28 130.043 715.886 Q133.121 720.47 133.121 729.22 Q133.121 737.947 130.043 742.553 Q126.987 747.136 121.177 747.136 Q115.367 747.136 112.288 742.553 Q109.233 737.947 109.233 729.22 Q109.233 720.47 112.288 715.886 Q115.367 711.28 121.177 711.28 Z" fill="#000000" fill-rule="evenodd" fill-opacity="1" /><path clip-path="url(#clip460)" d="M51.6634 428.638 L59.3023 428.638 L59.3023 402.273 L50.9921 403.939 L50.9921 399.68 L59.256 398.013 L63.9319 398.013 L63.9319 428.638 L71.5707 428.638 L71.5707 432.573 L51.6634 432.573 L51.6634 428.638 Z" fill="#000000" fill-rule="evenodd" fill-opacity="1" /><path clip-path="url(#clip460)" d="M93.8623 402.087 L82.0568 420.536 L93.8623 420.536 L93.8623 402.087 M92.6354 398.013 L98.515 398.013 L98.515 420.536 L103.446 420.536 L103.446 424.425 L98.515 424.425 L98.515 432.573 L93.8623 432.573 L93.8623 424.425 L78.2605 424.425 L78.2605 419.911 L92.6354 398.013 Z" fill="#000000" fill-rule="evenodd" fill-opacity="1" /><path clip-path="url(#clip460)" d="M121.177 401.092 Q117.566 401.092 115.737 404.657 Q113.932 408.198 113.932 415.328 Q113.932 422.434 115.737 425.999 Q117.566 429.541 121.177 429.541 Q124.811 429.541 126.617 425.999 Q128.445 422.434 128.445 415.328 Q128.445 408.198 126.617 404.657 Q124.811 401.092 121.177 401.092 M121.177 397.388 Q126.987 397.388 130.043 401.995 Q133.121 406.578 133.121 415.328 Q133.121 424.055 130.043 428.661 Q126.987 433.245 121.177 433.245 Q115.367 433.245 112.288 428.661 Q109.233 424.055 109.233 415.328 Q109.233 406.578 112.288 401.995 Q115.367 397.388 121.177 397.388 Z" fill="#000000" fill-rule="evenodd" fill-opacity="1" /><path clip-path="url(#clip460)" d="M713.864 12.096 L726.057 12.096 L741.491 53.2532 L757.006 12.096 L769.199 12.096 L769.199 72.576 L761.219 72.576 L761.219 19.4686 L745.623 60.9499 L737.4 60.9499 L721.804 19.4686 L721.804 72.576 L713.864 72.576 L713.864 12.096 Z" fill="#000000" fill-rule="evenodd" fill-opacity="1" /><path clip-path="url(#clip460)" d="M793.626 18.8205 L793.626 41.5461 L803.916 41.5461 Q809.627 41.5461 812.747 38.5889 Q815.866 35.6318 815.866 30.163 Q815.866 24.7348 812.747 21.7777 Q809.627 18.8205 803.916 18.8205 L793.626 18.8205 M785.443 12.096 L803.916 12.096 Q814.083 12.096 819.269 16.714 Q824.494 21.2916 824.494 30.163 Q824.494 39.1155 819.269 43.6931 Q814.083 48.2706 803.916 48.2706 L793.626 48.2706 L793.626 72.576 L785.443 72.576 L785.443 12.096 Z" fill="#000000" fill-rule="evenodd" fill-opacity="1" /><path clip-path="url(#clip460)" d="M835.472 12.096 L873.713 12.096 L873.713 18.9825 L843.655 18.9825 L843.655 36.8875 L872.457 36.8875 L872.457 43.7741 L843.655 43.7741 L843.655 65.6895 L874.442 65.6895 L874.442 72.576 L835.472 72.576 L835.472 12.096 Z" fill="#000000" fill-rule="evenodd" fill-opacity="1" /><path clip-path="url(#clip460)" d="M908.591 27.2059 L916.49 27.2059 L930.668 65.2844 L944.847 27.2059 L952.746 27.2059 L935.732 72.576 L925.605 72.576 L908.591 27.2059 Z" fill="#000000" fill-rule="evenodd" fill-opacity="1" /><path clip-path="url(#clip460)" d="M991.959 28.5427 L991.959 35.5912 Q988.799 33.9709 985.396 33.1607 Q981.993 32.3505 978.348 32.3505 Q972.798 32.3505 970.003 34.0519 Q967.248 35.7533 967.248 39.156 Q967.248 41.7486 969.233 43.2475 Q971.218 44.7058 977.213 46.0426 L979.765 46.6097 Q987.705 48.3111 991.027 51.4303 Q994.389 54.509 994.389 60.0587 Q994.389 66.3781 989.366 70.0644 Q984.383 73.7508 975.633 73.7508 Q971.988 73.7508 968.018 73.0216 Q964.088 72.3329 959.713 70.9151 L959.713 63.2184 Q963.845 65.3654 967.856 66.4591 Q971.866 67.5124 975.795 67.5124 Q981.062 67.5124 983.897 65.73 Q986.733 63.9071 986.733 60.6258 Q986.733 57.5877 984.667 55.9673 Q982.641 54.3469 975.714 52.8481 L973.122 52.2405 Q966.195 50.7821 963.116 47.7845 Q960.037 44.7463 960.037 39.4801 Q960.037 33.0797 964.574 29.5959 Q969.111 26.1121 977.456 26.1121 Q981.588 26.1121 985.234 26.7198 Q988.88 27.3274 991.959 28.5427 Z" fill="#000000" fill-rule="evenodd" fill-opacity="1" /><path clip-path="url(#clip460)" d="M1069.21 14.0809 L1069.21 22.0612 Q1064.55 19.8332 1060.42 18.7395 Q1056.29 17.6457 1052.44 17.6457 Q1045.75 17.6457 1042.11 20.2383 Q1038.5 22.8309 1038.5 27.611 Q1038.5 31.6214 1040.89 33.6873 Q1043.32 35.7128 1050.05 36.9686 L1054.99 37.9813 Q1064.15 39.7232 1068.48 44.1387 Q1072.86 48.5136 1072.86 55.8863 Q1072.86 64.6767 1066.94 69.2137 Q1061.07 73.7508 1049.68 73.7508 Q1045.39 73.7508 1040.53 72.7785 Q1035.71 71.8063 1030.52 69.9024 L1030.52 61.4765 Q1035.51 64.2716 1040.29 65.6895 Q1045.07 67.1073 1049.68 67.1073 Q1056.69 67.1073 1060.5 64.3527 Q1064.31 61.598 1064.31 56.4939 Q1064.31 52.0379 1061.55 49.5264 Q1058.84 47.0148 1052.6 45.759 L1047.62 44.7868 Q1038.46 42.9639 1034.37 39.075 Q1030.28 35.1862 1030.28 28.2591 Q1030.28 20.2383 1035.91 15.6203 Q1041.58 11.0023 1051.51 11.0023 Q1055.76 11.0023 1060.18 11.7719 Q1064.59 12.5416 1069.21 14.0809 Z" fill="#000000" fill-rule="evenodd" fill-opacity="1" /><path clip-path="url(#clip460)" d="M1092.66 14.324 L1092.66 27.2059 L1108.02 27.2059 L1108.02 32.9987 L1092.66 32.9987 L1092.66 57.6282 Q1092.66 63.1779 1094.16 64.7578 Q1095.7 66.3376 1100.36 66.3376 L1108.02 66.3376 L1108.02 72.576 L1100.36 72.576 Q1091.73 72.576 1088.45 69.3758 Q1085.17 66.1351 1085.17 57.6282 L1085.17 32.9987 L1079.7 32.9987 L1079.7 27.2059 L1085.17 27.2059 L1085.17 14.324 L1092.66 14.324 Z" fill="#000000" fill-rule="evenodd" fill-opacity="1" /><path clip-path="url(#clip460)" d="M1138.44 49.7694 Q1129.41 49.7694 1125.92 51.8354 Q1122.44 53.9013 1122.44 58.8839 Q1122.44 62.8538 1125.03 65.2034 Q1127.66 67.5124 1132.16 67.5124 Q1138.36 67.5124 1142.09 63.1374 Q1145.85 58.7219 1145.85 51.4303 L1145.85 49.7694 L1138.44 49.7694 M1153.31 46.6907 L1153.31 72.576 L1145.85 72.576 L1145.85 65.6895 Q1143.3 69.8214 1139.49 71.8063 Q1135.68 73.7508 1130.18 73.7508 Q1123.21 73.7508 1119.08 69.8619 Q1114.98 65.9325 1114.98 59.3701 Q1114.98 51.7138 1120.09 47.825 Q1125.23 43.9361 1135.4 43.9361 L1145.85 43.9361 L1145.85 43.2069 Q1145.85 38.0623 1142.45 35.2672 Q1139.09 32.4315 1132.97 32.4315 Q1129.08 32.4315 1125.4 33.3632 Q1121.71 34.295 1118.31 36.1584 L1118.31 29.2718 Q1122.4 27.692 1126.25 26.9223 Q1130.09 26.1121 1133.74 26.1121 Q1143.58 26.1121 1148.45 31.2163 Q1153.31 36.3204 1153.31 46.6907 Z" fill="#000000" fill-rule="evenodd" fill-opacity="1" /><path clip-path="url(#clip460)" d="M1201.31 28.9478 L1201.31 35.9153 Q1198.15 34.1734 1194.95 33.3227 Q1191.79 32.4315 1188.55 32.4315 Q1181.3 32.4315 1177.29 37.0496 Q1173.28 41.6271 1173.28 49.9314 Q1173.28 58.2358 1177.29 62.8538 Q1181.3 67.4314 1188.55 67.4314 Q1191.79 67.4314 1194.95 66.5807 Q1198.15 65.6895 1201.31 63.9476 L1201.31 70.8341 Q1198.19 72.2924 1194.83 73.0216 Q1191.51 73.7508 1187.74 73.7508 Q1177.49 73.7508 1171.45 67.3098 Q1165.42 60.8689 1165.42 49.9314 Q1165.42 38.832 1171.49 32.472 Q1177.61 26.1121 1188.22 26.1121 Q1191.67 26.1121 1194.95 26.8413 Q1198.23 27.5299 1201.31 28.9478 Z" fill="#000000" fill-rule="evenodd" fill-opacity="1" /><path clip-path="url(#clip460)" d="M1213.99 9.54393 L1221.48 9.54393 L1221.48 46.7717 L1243.72 27.2059 L1253.24 27.2059 L1229.18 48.4326 L1254.25 72.576 L1244.53 72.576 L1221.48 50.4176 L1221.48 72.576 L1213.99 72.576 L1213.99 9.54393 Z" fill="#000000" fill-rule="evenodd" fill-opacity="1" /><path clip-path="url(#clip460)" d="M1298.17 48.0275 L1298.17 51.6733 L1263.9 51.6733 Q1264.38 59.3701 1268.51 63.421 Q1272.69 67.4314 1280.1 67.4314 Q1284.39 67.4314 1288.4 66.3781 Q1292.45 65.3249 1296.42 63.2184 L1296.42 70.267 Q1292.41 71.9684 1288.2 72.8596 Q1283.99 73.7508 1279.65 73.7508 Q1268.8 73.7508 1262.44 67.4314 Q1256.12 61.1119 1256.12 50.3365 Q1256.12 39.1965 1262.11 32.6746 Q1268.15 26.1121 1278.36 26.1121 Q1287.51 26.1121 1292.82 32.0264 Q1298.17 37.9003 1298.17 48.0275 M1290.71 45.84 Q1290.63 39.7232 1287.27 36.0774 Q1283.95 32.4315 1278.44 32.4315 Q1272.2 32.4315 1268.43 35.9558 Q1264.71 39.4801 1264.14 45.8805 L1290.71 45.84 Z" fill="#000000" fill-rule="evenodd" fill-opacity="1" /><path clip-path="url(#clip460)" d="M1310.4 9.54393 L1317.85 9.54393 L1317.85 72.576 L1310.4 72.576 L1310.4 9.54393 Z" fill="#000000" fill-rule="evenodd" fill-opacity="1" /><path clip-path="url(#clip460)" d="M1366.02 49.9314 Q1366.02 41.7081 1362.62 37.0496 Q1359.25 32.3505 1353.34 32.3505 Q1347.43 32.3505 1344.02 37.0496 Q1340.66 41.7081 1340.66 49.9314 Q1340.66 58.1548 1344.02 62.8538 Q1347.43 67.5124 1353.34 67.5124 Q1359.25 67.5124 1362.62 62.8538 Q1366.02 58.1548 1366.02 49.9314 M1340.66 34.0924 Q1343.01 30.0415 1346.57 28.0971 Q1350.18 26.1121 1355.16 26.1121 Q1363.43 26.1121 1368.57 32.6746 Q1373.76 39.2371 1373.76 49.9314 Q1373.76 60.6258 1368.57 67.1883 Q1363.43 73.7508 1355.16 73.7508 Q1350.18 73.7508 1346.57 71.8063 Q1343.01 69.8214 1340.66 65.7705 L1340.66 72.576 L1333.17 72.576 L1333.17 9.54393 L1340.66 9.54393 L1340.66 34.0924 Z" fill="#000000" fill-rule="evenodd" fill-opacity="1" /><path clip-path="url(#clip460)" d="M1424.92 48.0275 L1424.92 51.6733 L1390.65 51.6733 Q1391.13 59.3701 1395.27 63.421 Q1399.44 67.4314 1406.85 67.4314 Q1411.15 67.4314 1415.16 66.3781 Q1419.21 65.3249 1423.18 63.2184 L1423.18 70.267 Q1419.17 71.9684 1414.95 72.8596 Q1410.74 73.7508 1406.41 73.7508 Q1395.55 73.7508 1389.19 67.4314 Q1382.87 61.1119 1382.87 50.3365 Q1382.87 39.1965 1388.87 32.6746 Q1394.9 26.1121 1405.11 26.1121 Q1414.27 26.1121 1419.57 32.0264 Q1424.92 37.9003 1424.92 48.0275 M1417.47 45.84 Q1417.38 39.7232 1414.02 36.0774 Q1410.7 32.4315 1405.19 32.4315 Q1398.95 32.4315 1395.19 35.9558 Q1391.46 39.4801 1390.89 45.8805 L1417.47 45.84 Z" fill="#000000" fill-rule="evenodd" fill-opacity="1" /><path clip-path="url(#clip460)" d="M1463.44 34.1734 Q1462.19 33.4443 1460.69 33.1202 Q1459.23 32.7556 1457.45 32.7556 Q1451.13 32.7556 1447.73 36.8875 Q1444.36 40.9789 1444.36 48.6757 L1444.36 72.576 L1436.87 72.576 L1436.87 27.2059 L1444.36 27.2059 L1444.36 34.2544 Q1446.71 30.1225 1450.48 28.1376 Q1454.25 26.1121 1459.64 26.1121 Q1460.41 26.1121 1461.34 26.2337 Q1462.27 26.3147 1463.4 26.5172 L1463.44 34.1734 Z" fill="#000000" fill-rule="evenodd" fill-opacity="1" /><path clip-path="url(#clip460)" d="M1499.66 49.3643 Q1499.66 41.2625 1496.3 36.8065 Q1492.97 32.3505 1486.94 32.3505 Q1480.94 32.3505 1477.58 36.8065 Q1474.26 41.2625 1474.26 49.3643 Q1474.26 57.4256 1477.58 61.8816 Q1480.94 66.3376 1486.94 66.3376 Q1492.97 66.3376 1496.3 61.8816 Q1499.66 57.4256 1499.66 49.3643 M1507.11 66.9452 Q1507.11 78.5308 1501.97 84.1616 Q1496.82 89.8329 1486.21 89.8329 Q1482.28 89.8329 1478.8 89.2252 Q1475.31 88.6581 1472.03 87.4428 L1472.03 80.1917 Q1475.31 81.9741 1478.51 82.8248 Q1481.71 83.6755 1485.03 83.6755 Q1492.37 83.6755 1496.01 79.8271 Q1499.66 76.0193 1499.66 68.282 L1499.66 64.5957 Q1497.35 68.6061 1493.74 70.5911 Q1490.14 72.576 1485.12 72.576 Q1476.77 72.576 1471.67 66.2161 Q1466.56 59.8562 1466.56 49.3643 Q1466.56 38.832 1471.67 32.472 Q1476.77 26.1121 1485.12 26.1121 Q1490.14 26.1121 1493.74 28.0971 Q1497.35 30.082 1499.66 34.0924 L1499.66 27.2059 L1507.11 27.2059 L1507.11 66.9452 Z" fill="#000000" fill-rule="evenodd" fill-opacity="1" /><path clip-path="url(#clip460)" d="M1564.76 72.576 L1541.67 12.096 L1550.21 12.096 L1569.37 63.0159 L1588.58 12.096 L1597.08 12.096 L1574.03 72.576 L1564.76 72.576 Z" fill="#000000" fill-rule="evenodd" fill-opacity="1" /><path clip-path="url(#clip460)" d="M1619.77 49.7694 Q1610.73 49.7694 1607.25 51.8354 Q1603.77 53.9013 1603.77 58.8839 Q1603.77 62.8538 1606.36 65.2034 Q1608.99 67.5124 1613.49 67.5124 Q1619.69 67.5124 1623.41 63.1374 Q1627.18 58.7219 1627.18 51.4303 L1627.18 49.7694 L1619.77 49.7694 M1634.63 46.6907 L1634.63 72.576 L1627.18 72.576 L1627.18 65.6895 Q1624.63 69.8214 1620.82 71.8063 Q1617.01 73.7508 1611.5 73.7508 Q1604.54 73.7508 1600.4 69.8619 Q1596.31 65.9325 1596.31 59.3701 Q1596.31 51.7138 1601.42 47.825 Q1606.56 43.9361 1616.73 43.9361 L1627.18 43.9361 L1627.18 43.2069 Q1627.18 38.0623 1623.78 35.2672 Q1620.42 32.4315 1614.3 32.4315 Q1610.41 32.4315 1606.72 33.3632 Q1603.04 34.295 1599.63 36.1584 L1599.63 29.2718 Q1603.73 27.692 1607.57 26.9223 Q1611.42 26.1121 1615.07 26.1121 Q1624.91 26.1121 1629.77 31.2163 Q1634.63 36.3204 1634.63 46.6907 Z" fill="#000000" fill-rule="evenodd" fill-opacity="1" /><path clip-path="url(#clip460)" d="M1649.99 9.54393 L1657.44 9.54393 L1657.44 72.576 L1649.99 72.576 L1649.99 9.54393 Z" fill="#000000" fill-rule="evenodd" fill-opacity="1" /><path clip-path="url(#clip460)" d="M1672.27 54.671 L1672.27 27.2059 L1679.72 27.2059 L1679.72 54.3874 Q1679.72 60.8284 1682.23 64.0691 Q1684.74 67.2693 1689.77 67.2693 Q1695.8 67.2693 1699.29 63.421 Q1702.81 59.5726 1702.81 52.9291 L1702.81 27.2059 L1710.26 27.2059 L1710.26 72.576 L1702.81 72.576 L1702.81 65.6084 Q1700.1 69.7404 1696.49 71.7658 Q1692.93 73.7508 1688.19 73.7508 Q1680.37 73.7508 1676.32 68.8897 Q1672.27 64.0286 1672.27 54.671 M1691.02 26.1121 L1691.02 26.1121 Z" fill="#000000" fill-rule="evenodd" fill-opacity="1" /><path clip-path="url(#clip460)" d="M1764.43 48.0275 L1764.43 51.6733 L1730.15 51.6733 Q1730.64 59.3701 1734.77 63.421 Q1738.95 67.4314 1746.36 67.4314 Q1750.65 67.4314 1754.66 66.3781 Q1758.71 65.3249 1762.68 63.2184 L1762.68 70.267 Q1758.67 71.9684 1754.46 72.8596 Q1750.25 73.7508 1745.91 73.7508 Q1735.06 73.7508 1728.7 67.4314 Q1722.38 61.1119 1722.38 50.3365 Q1722.38 39.1965 1728.37 32.6746 Q1734.41 26.1121 1744.62 26.1121 Q1753.77 26.1121 1759.08 32.0264 Q1764.43 37.9003 1764.43 48.0275 M1756.97 45.84 Q1756.89 39.7232 1753.53 36.0774 Q1750.21 32.4315 1744.7 32.4315 Q1738.46 32.4315 1734.69 35.9558 Q1730.97 39.4801 1730.4 45.8805 L1756.97 45.84 Z" fill="#000000" fill-rule="evenodd" fill-opacity="1" /><path clip-path="url(#clip460)" d="M1805.58 28.5427 L1805.58 35.5912 Q1802.42 33.9709 1799.02 33.1607 Q1795.62 32.3505 1791.97 32.3505 Q1786.42 32.3505 1783.63 34.0519 Q1780.87 35.7533 1780.87 39.156 Q1780.87 41.7486 1782.86 43.2475 Q1784.84 44.7058 1790.84 46.0426 L1793.39 46.6097 Q1801.33 48.3111 1804.65 51.4303 Q1808.01 54.509 1808.01 60.0587 Q1808.01 66.3781 1802.99 70.0644 Q1798.01 73.7508 1789.26 73.7508 Q1785.61 73.7508 1781.64 73.0216 Q1777.71 72.3329 1773.34 70.9151 L1773.34 63.2184 Q1777.47 65.3654 1781.48 66.4591 Q1785.49 67.5124 1789.42 67.5124 Q1794.69 67.5124 1797.52 65.73 Q1800.36 63.9071 1800.36 60.6258 Q1800.36 57.5877 1798.29 55.9673 Q1796.27 54.3469 1789.34 52.8481 L1786.75 52.2405 Q1779.82 50.7821 1776.74 47.7845 Q1773.66 44.7463 1773.66 39.4801 Q1773.66 33.0797 1778.2 29.5959 Q1782.74 26.1121 1791.08 26.1121 Q1795.21 26.1121 1798.86 26.7198 Q1802.5 27.3274 1805.58 28.5427 Z" fill="#000000" fill-rule="evenodd" fill-opacity="1" /><polyline clip-path="url(#clip463)" style="stroke:#009af9; stroke-linecap:butt; stroke-linejoin:round; stroke-width:4; stroke-opacity:1; fill:none" points="
  230.922,519.984 237.812,510.775 244.702,508.563 251.592,511.091 258.481,516.712 265.371,524.232 272.261,532.799 279.15,541.81 286.04,550.852 292.93,559.645 
  299.82,568.013 306.709,575.848 313.599,583.094 320.489,589.732 327.379,595.767 334.268,601.221 341.158,606.124 348.048,610.514 354.938,614.431 361.827,617.916 
  368.717,621.008 375.607,623.748 382.497,626.169 389.386,628.307 396.276,630.191 403.166,631.851 410.056,633.311 416.945,634.595 423.835,635.722 430.725,636.712 
  437.615,637.58 444.504,638.342 451.394,639.009 458.284,639.595 465.173,640.107 472.063,640.556 478.953,640.949 485.843,641.293 492.732,641.594 499.622,641.858 
  506.512,642.089 513.402,642.291 520.291,642.467 527.181,642.622 534.071,642.757 540.961,642.875 547.85,642.978 554.74,643.069 561.63,643.148 568.52,643.217 
  575.409,643.277 582.299,643.33 589.189,643.376 596.079,643.417 602.968,643.452 609.858,643.483 616.748,643.51 623.638,643.533 630.527,643.554 637.417,643.572 
  644.307,643.588 651.197,643.602 658.086,643.614 664.976,643.624 671.866,643.634 678.755,643.642 685.645,643.649 692.535,643.655 699.425,643.66 706.314,643.665 
  713.204,643.669 720.094,643.673 726.984,643.676 733.873,643.678 740.763,643.681 747.653,643.683 754.543,643.685 761.432,643.686 768.322,643.688 775.212,643.689 
  782.102,643.69 788.991,643.691 795.881,643.692 802.771,643.693 809.661,643.693 816.55,643.694 823.44,643.694 830.33,643.695 837.22,643.695 844.109,643.695 
  850.999,643.696 857.889,643.696 864.778,643.696 871.668,643.696 878.558,643.696 885.448,643.697 892.337,643.697 899.227,643.697 906.117,643.697 913.007,643.697 
  919.896,643.697 926.786,643.697 933.676,643.697 940.566,643.697 947.455,643.697 954.345,643.697 961.235,643.697 968.125,643.697 975.014,643.697 981.904,643.697 
  988.794,643.697 995.684,643.698 1002.57,643.698 1009.46,643.698 1016.35,643.698 1023.24,643.698 1030.13,643.698 1037.02,643.698 1043.91,643.698 1050.8,643.698 
  1057.69,643.698 1064.58,643.698 1071.47,643.698 1078.36,643.698 1085.25,643.698 1092.14,643.698 1099.03,643.698 1105.92,643.698 1112.81,643.698 1119.7,643.698 
  1126.59,643.698 1133.48,643.698 1140.37,643.698 1147.26,643.698 1154.15,643.698 1161.04,643.698 1167.93,643.698 1174.82,643.698 1181.71,643.698 1188.6,643.698 
  1195.49,643.698 1202.38,643.698 1209.27,643.698 1216.16,643.698 1223.05,643.698 1229.93,643.698 1236.82,643.698 1243.71,643.698 1250.6,643.698 1257.49,643.698 
  1264.38,643.698 1271.27,643.698 1278.16,643.698 1285.05,643.698 1291.94,643.698 1298.83,643.698 1305.72,643.698 1312.61,643.698 1319.5,643.698 1326.39,643.698 
  1333.28,643.698 1340.17,643.698 1347.06,643.698 1353.95,643.698 1360.84,643.698 1367.73,643.698 1374.62,643.698 1381.51,643.698 1388.4,643.698 1395.29,643.698 
  1402.18,643.698 1409.07,643.698 1415.96,643.698 1422.85,643.698 1429.74,643.698 1436.63,643.698 1443.52,643.698 1450.41,643.698 1457.3,643.698 1464.19,643.698 
  1471.08,643.698 1477.97,643.698 1484.86,643.698 1491.74,643.698 1498.63,643.698 1505.52,643.698 1512.41,643.698 1519.3,643.698 1526.19,643.698 1533.08,643.698 
  1539.97,643.698 1546.86,643.698 1553.75,643.698 1560.64,643.698 1567.53,643.698 1574.42,643.698 1581.31,643.698 1588.2,643.698 1595.09,643.698 1601.98,643.698 
  1608.87,643.698 1615.76,643.698 1622.65,643.698 1629.54,643.698 1636.43,643.698 1643.32,643.698 1650.21,643.698 1657.1,643.698 1663.99,643.698 1670.88,643.698 
  1677.77,643.698 1684.66,643.698 1691.55,643.698 1698.44,643.698 1705.33,643.698 1712.22,643.698 1719.11,643.698 1726,643.698 1732.89,643.698 1739.78,643.698 
  1746.67,643.698 1753.56,643.698 1760.44,643.698 1767.33,643.698 1774.22,643.698 1781.11,643.698 1788,643.698 1794.89,643.698 1801.78,643.698 1808.67,643.698 
  1815.56,643.698 1822.45,643.698 1829.34,643.698 1836.23,643.698 1843.12,643.698 1850.01,643.698 1856.9,643.698 1863.79,643.698 1870.68,643.698 1877.57,643.698 
  1884.46,643.698 1891.35,643.698 1898.24,643.698 1905.13,643.698 1912.02,643.698 1918.91,643.698 1925.8,643.698 1932.69,643.698 1939.58,643.698 1946.47,643.698 
  1953.36,643.698 1960.25,643.698 1967.14,643.698 1974.03,643.698 1980.92,643.698 1987.81,643.698 1994.7,643.698 2001.59,643.698 2008.48,643.698 2015.37,643.698 
  2022.26,643.698 2029.14,643.698 2036.03,643.698 2042.92,643.698 2049.81,643.698 2056.7,643.698 2063.59,643.698 2070.48,643.698 2077.37,643.698 2084.26,643.698 
  2091.15,643.698 2098.04,643.698 2104.93,643.698 2111.82,643.698 2118.71,643.698 2125.6,643.698 2132.49,643.698 2139.38,643.698 2146.27,643.698 2153.16,643.698 
  2160.05,643.698 2166.94,643.698 2173.83,643.698 2180.72,643.698 2187.61,643.698 2194.5,643.698 2201.39,643.698 2208.28,643.698 2215.17,643.698 2222.06,643.698 
  2228.95,643.698 2235.84,643.698 2242.73,643.698 2249.62,643.698 2256.51,643.698 2263.4,643.698 2270.29,643.698 2277.18,643.698 2284.07,643.698 2290.95,643.698 
  
  "/>
<polyline clip-path="url(#clip463)" style="stroke:#e26f46; stroke-linecap:butt; stroke-linejoin:round; stroke-width:4; stroke-opacity:1; fill:none" points="
  230.922,257.839 237.812,234.086 244.702,217.585 251.592,206.442 258.481,199.217 265.371,194.822 272.261,192.433 279.15,191.434 286.04,191.365 292.93,191.884 
  299.82,192.744 306.709,193.764 313.599,194.818 320.489,195.818 327.379,196.707 334.268,197.448 341.158,198.023 348.048,198.424 354.938,198.651 361.827,198.71 
  368.717,198.612 375.607,198.369 382.497,197.994 389.386,197.503 396.276,196.909 403.166,196.227 410.056,195.469 416.945,194.649 423.835,193.777 430.725,192.865 
  437.615,191.921 444.504,190.955 451.394,189.974 458.284,188.984 465.173,187.993 472.063,187.004 478.953,186.023 485.843,185.053 492.732,184.098 499.622,183.16 
  506.512,182.241 513.402,181.344 520.291,180.47 527.181,179.62 534.071,178.795 540.961,177.996 547.85,177.222 554.74,176.475 561.63,175.753 568.52,175.058 
  575.409,174.389 582.299,173.745 589.189,173.127 596.079,172.533 602.968,171.963 609.858,171.417 616.748,170.893 623.638,170.392 630.527,169.912 637.417,169.453 
  644.307,169.014 651.197,168.595 658.086,168.194 664.976,167.812 671.866,167.447 678.755,167.099 685.645,166.766 692.535,166.449 699.425,166.147 706.314,165.859 
  713.204,165.585 720.094,165.323 726.984,165.074 733.873,164.837 740.763,164.612 747.653,164.397 754.543,164.192 761.432,163.997 768.322,163.812 775.212,163.636 
  782.102,163.468 788.991,163.308 795.881,163.157 802.771,163.012 809.661,162.875 816.55,162.745 823.44,162.621 830.33,162.503 837.22,162.39 844.109,162.284 
  850.999,162.182 857.889,162.086 864.778,161.995 871.668,161.908 878.558,161.825 885.448,161.746 892.337,161.672 899.227,161.601 906.117,161.533 913.007,161.469 
  919.896,161.409 926.786,161.351 933.676,161.296 940.566,161.244 947.455,161.194 954.345,161.147 961.235,161.102 968.125,161.06 975.014,161.019 981.904,160.981 
  988.794,160.945 995.684,160.91 1002.57,160.877 1009.46,160.846 1016.35,160.816 1023.24,160.788 1030.13,160.761 1037.02,160.736 1043.91,160.712 1050.8,160.689 
  1057.69,160.667 1064.58,160.646 1071.47,160.627 1078.36,160.608 1085.25,160.59 1092.14,160.574 1099.03,160.558 1105.92,160.543 1112.81,160.528 1119.7,160.514 
  1126.59,160.501 1133.48,160.489 1140.37,160.477 1147.26,160.466 1154.15,160.456 1161.04,160.446 1167.93,160.436 1174.82,160.427 1181.71,160.418 1188.6,160.41 
  1195.49,160.403 1202.38,160.395 1209.27,160.388 1216.16,160.382 1223.05,160.375 1229.93,160.369 1236.82,160.364 1243.71,160.358 1250.6,160.353 1257.49,160.348 
  1264.38,160.344 1271.27,160.339 1278.16,160.335 1285.05,160.331 1291.94,160.327 1298.83,160.324 1305.72,160.32 1312.61,160.317 1319.5,160.314 1326.39,160.311 
  1333.28,160.308 1340.17,160.306 1347.06,160.303 1353.95,160.301 1360.84,160.299 1367.73,160.296 1374.62,160.294 1381.51,160.293 1388.4,160.291 1395.29,160.289 
  1402.18,160.287 1409.07,160.286 1415.96,160.284 1422.85,160.283 1429.74,160.282 1436.63,160.28 1443.52,160.279 1450.41,160.278 1457.3,160.277 1464.19,160.276 
  1471.08,160.275 1477.97,160.274 1484.86,160.273 1491.74,160.272 1498.63,160.271 1505.52,160.271 1512.41,160.27 1519.3,160.269 1526.19,160.269 1533.08,160.268 
  1539.97,160.267 1546.86,160.267 1553.75,160.266 1560.64,160.266 1567.53,160.265 1574.42,160.265 1581.31,160.264 1588.2,160.264 1595.09,160.264 1601.98,160.263 
  1608.87,160.263 1615.76,160.263 1622.65,160.262 1629.54,160.262 1636.43,160.262 1643.32,160.261 1650.21,160.261 1657.1,160.261 1663.99,160.261 1670.88,160.26 
  1677.77,160.26 1684.66,160.26 1691.55,160.26 1698.44,160.26 1705.33,160.259 1712.22,160.259 1719.11,160.259 1726,160.259 1732.89,160.259 1739.78,160.259 
  1746.67,160.259 1753.56,160.258 1760.44,160.258 1767.33,160.258 1774.22,160.258 1781.11,160.258 1788,160.258 1794.89,160.258 1801.78,160.258 1808.67,160.258 
  1815.56,160.258 1822.45,160.258 1829.34,160.258 1836.23,160.257 1843.12,160.257 1850.01,160.257 1856.9,160.257 1863.79,160.257 1870.68,160.257 1877.57,160.257 
  1884.46,160.257 1891.35,160.257 1898.24,160.257 1905.13,160.257 1912.02,160.257 1918.91,160.257 1925.8,160.257 1932.69,160.257 1939.58,160.257 1946.47,160.257 
  1953.36,160.257 1960.25,160.257 1967.14,160.257 1974.03,160.257 1980.92,160.257 1987.81,160.257 1994.7,160.257 2001.59,160.257 2008.48,160.257 2015.37,160.257 
  2022.26,160.257 2029.14,160.257 2036.03,160.257 2042.92,160.257 2049.81,160.257 2056.7,160.256 2063.59,160.256 2070.48,160.256 2077.37,160.256 2084.26,160.256 
  2091.15,160.256 2098.04,160.256 2104.93,160.256 2111.82,160.256 2118.71,160.256 2125.6,160.256 2132.49,160.256 2139.38,160.256 2146.27,160.256 2153.16,160.256 
  2160.05,160.256 2166.94,160.256 2173.83,160.256 2180.72,160.256 2187.61,160.256 2194.5,160.256 2201.39,160.256 2208.28,160.256 2215.17,160.256 2222.06,160.256 
  2228.95,160.256 2235.84,160.256 2242.73,160.256 2249.62,160.256 2256.51,160.256 2263.4,160.256 2270.29,160.256 2277.18,160.256 2284.07,160.256 2290.95,160.256 
  
  "/>
<polyline clip-path="url(#clip463)" style="stroke:#3da44d; stroke-linecap:butt; stroke-linejoin:round; stroke-width:4; stroke-opacity:1; fill:none" points="
  230.922,844.447 237.812,857.371 244.702,874.916 251.592,895.366 258.481,917.469 265.371,940.326 272.261,963.297 279.15,985.937 286.04,1007.94 292.93,1029.12 
  299.82,1049.36 306.709,1068.59 313.599,1086.78 320.489,1103.96 327.379,1120.13 334.268,1135.33 341.158,1149.61 348.048,1163.02 354.938,1175.61 361.827,1187.42 
  368.717,1198.51 375.607,1208.92 382.497,1218.7 389.386,1227.89 396.276,1236.53 403.166,1244.65 410.056,1252.3 416.945,1259.5 423.835,1266.28 430.725,1272.67 
  437.615,1278.7 444.504,1284.39 451.394,1289.75 458.284,1294.82 465.173,1299.61 472.063,1304.14 478.953,1308.41 485.843,1312.46 492.732,1316.29 499.622,1319.91 
  506.512,1323.34 513.402,1326.58 520.291,1329.66 527.181,1332.57 534.071,1335.33 540.961,1337.94 547.85,1340.42 554.74,1342.77 561.63,1344.99 568.52,1347.1 
  575.409,1349.1 582.299,1351 589.189,1352.8 596.079,1354.51 602.968,1356.13 609.858,1357.66 616.748,1359.12 623.638,1360.5 630.527,1361.81 637.417,1363.06 
  644.307,1364.24 651.197,1365.36 658.086,1366.43 664.976,1367.44 671.866,1368.4 678.755,1369.31 685.645,1370.17 692.535,1370.99 699.425,1371.77 706.314,1372.51 
  713.204,1373.21 720.094,1373.87 726.984,1374.51 733.873,1375.11 740.763,1375.68 747.653,1376.22 754.543,1376.73 761.432,1377.22 768.322,1377.68 775.212,1378.12 
  782.102,1378.54 788.991,1378.94 795.881,1379.31 802.771,1379.67 809.661,1380.01 816.55,1380.33 823.44,1380.64 830.33,1380.93 837.22,1381.2 844.109,1381.46 
  850.999,1381.71 857.889,1381.95 864.778,1382.17 871.668,1382.39 878.558,1382.59 885.448,1382.78 892.337,1382.96 899.227,1383.13 906.117,1383.3 913.007,1383.46 
  919.896,1383.6 926.786,1383.74 933.676,1383.88 940.566,1384 947.455,1384.13 954.345,1384.24 961.235,1384.35 968.125,1384.45 975.014,1384.55 981.904,1384.64 
  988.794,1384.73 995.684,1384.81 1002.57,1384.89 1009.46,1384.97 1016.35,1385.04 1023.24,1385.11 1030.13,1385.17 1037.02,1385.24 1043.91,1385.29 1050.8,1385.35 
  1057.69,1385.4 1064.58,1385.45 1071.47,1385.5 1078.36,1385.55 1085.25,1385.59 1092.14,1385.63 1099.03,1385.67 1105.92,1385.7 1112.81,1385.74 1119.7,1385.77 
  1126.59,1385.8 1133.48,1385.83 1140.37,1385.86 1147.26,1385.89 1154.15,1385.91 1161.04,1385.94 1167.93,1385.96 1174.82,1385.98 1181.71,1386 1188.6,1386.02 
  1195.49,1386.04 1202.38,1386.06 1209.27,1386.08 1216.16,1386.09 1223.05,1386.11 1229.93,1386.12 1236.82,1386.14 1243.71,1386.15 1250.6,1386.16 1257.49,1386.17 
  1264.38,1386.19 1271.27,1386.2 1278.16,1386.21 1285.05,1386.22 1291.94,1386.22 1298.83,1386.23 1305.72,1386.24 1312.61,1386.25 1319.5,1386.26 1326.39,1386.26 
  1333.28,1386.27 1340.17,1386.28 1347.06,1386.28 1353.95,1386.29 1360.84,1386.29 1367.73,1386.3 1374.62,1386.3 1381.51,1386.31 1388.4,1386.31 1395.29,1386.32 
  1402.18,1386.32 1409.07,1386.32 1415.96,1386.33 1422.85,1386.33 1429.74,1386.33 1436.63,1386.34 1443.52,1386.34 1450.41,1386.34 1457.3,1386.35 1464.19,1386.35 
  1471.08,1386.35 1477.97,1386.35 1484.86,1386.36 1491.74,1386.36 1498.63,1386.36 1505.52,1386.36 1512.41,1386.36 1519.3,1386.36 1526.19,1386.37 1533.08,1386.37 
  1539.97,1386.37 1546.86,1386.37 1553.75,1386.37 1560.64,1386.37 1567.53,1386.37 1574.42,1386.38 1581.31,1386.38 1588.2,1386.38 1595.09,1386.38 1601.98,1386.38 
  1608.87,1386.38 1615.76,1386.38 1622.65,1386.38 1629.54,1386.38 1636.43,1386.38 1643.32,1386.38 1650.21,1386.38 1657.1,1386.38 1663.99,1386.39 1670.88,1386.39 
  1677.77,1386.39 1684.66,1386.39 1691.55,1386.39 1698.44,1386.39 1705.33,1386.39 1712.22,1386.39 1719.11,1386.39 1726,1386.39 1732.89,1386.39 1739.78,1386.39 
  1746.67,1386.39 1753.56,1386.39 1760.44,1386.39 1767.33,1386.39 1774.22,1386.39 1781.11,1386.39 1788,1386.39 1794.89,1386.39 1801.78,1386.39 1808.67,1386.39 
  1815.56,1386.39 1822.45,1386.39 1829.34,1386.39 1836.23,1386.39 1843.12,1386.39 1850.01,1386.39 1856.9,1386.39 1863.79,1386.39 1870.68,1386.39 1877.57,1386.39 
  1884.46,1386.39 1891.35,1386.39 1898.24,1386.39 1905.13,1386.39 1912.02,1386.39 1918.91,1386.39 1925.8,1386.39 1932.69,1386.39 1939.58,1386.39 1946.47,1386.39 
  1953.36,1386.39 1960.25,1386.39 1967.14,1386.39 1974.03,1386.39 1980.92,1386.39 1987.81,1386.39 1994.7,1386.39 2001.59,1386.39 2008.48,1386.39 2015.37,1386.4 
  2022.26,1386.4 2029.14,1386.4 2036.03,1386.4 2042.92,1386.4 2049.81,1386.4 2056.7,1386.4 2063.59,1386.4 2070.48,1386.4 2077.37,1386.4 2084.26,1386.4 
  2091.15,1386.4 2098.04,1386.4 2104.93,1386.4 2111.82,1386.4 2118.71,1386.4 2125.6,1386.4 2132.49,1386.4 2139.38,1386.4 2146.27,1386.4 2153.16,1386.4 
  2160.05,1386.4 2166.94,1386.4 2173.83,1386.4 2180.72,1386.4 2187.61,1386.4 2194.5,1386.4 2201.39,1386.4 2208.28,1386.4 2215.17,1386.4 2222.06,1386.4 
  2228.95,1386.4 2235.84,1386.4 2242.73,1386.4 2249.62,1386.4 2256.51,1386.4 2263.4,1386.4 2270.29,1386.4 2277.18,1386.4 2284.07,1386.4 2290.95,1386.4 
  
  "/>
<path clip-path="url(#clip460)" d="
M1557.02 374.156 L2279.97 374.156 L2279.97 166.796 L1557.02 166.796  Z
  " fill="#ffffff" fill-rule="evenodd" fill-opacity="1"/>
<polyline clip-path="url(#clip460)" style="stroke:#000000; stroke-linecap:butt; stroke-linejoin:round; stroke-width:4; stroke-opacity:1; fill:none" points="
  1557.02,374.156 2279.97,374.156 2279.97,166.796 1557.02,166.796 1557.02,374.156 
  "/>
<polyline clip-path="url(#clip460)" style="stroke:#009af9; stroke-linecap:butt; stroke-linejoin:round; stroke-width:4; stroke-opacity:1; fill:none" points="
  1581.28,218.636 1726.86,218.636 
  "/>
<path clip-path="url(#clip460)" d="M1751.12 201.356 L1758.09 201.356 L1766.91 224.874 L1775.77 201.356 L1782.74 201.356 L1782.74 235.916 L1778.18 235.916 L1778.18 205.569 L1769.27 229.272 L1764.57 229.272 L1755.66 205.569 L1755.66 235.916 L1751.12 235.916 L1751.12 201.356 Z" fill="#000000" fill-rule="evenodd" fill-opacity="1" /><path clip-path="url(#clip460)" d="M1796.7 205.198 L1796.7 218.184 L1802.58 218.184 Q1805.84 218.184 1807.63 216.495 Q1809.41 214.805 1809.41 211.68 Q1809.41 208.578 1807.63 206.888 Q1805.84 205.198 1802.58 205.198 L1796.7 205.198 M1792.02 201.356 L1802.58 201.356 Q1808.39 201.356 1811.35 203.995 Q1814.34 206.61 1814.34 211.68 Q1814.34 216.795 1811.35 219.411 Q1808.39 222.027 1802.58 222.027 L1796.7 222.027 L1796.7 235.916 L1792.02 235.916 L1792.02 201.356 Z" fill="#000000" fill-rule="evenodd" fill-opacity="1" /><path clip-path="url(#clip460)" d="M1820.61 201.356 L1842.46 201.356 L1842.46 205.291 L1825.29 205.291 L1825.29 215.522 L1841.75 215.522 L1841.75 219.457 L1825.29 219.457 L1825.29 231.981 L1842.88 231.981 L1842.88 235.916 L1820.61 235.916 L1820.61 201.356 Z" fill="#000000" fill-rule="evenodd" fill-opacity="1" /><polyline clip-path="url(#clip460)" style="stroke:#e26f46; stroke-linecap:butt; stroke-linejoin:round; stroke-width:4; stroke-opacity:1; fill:none" points="
  1581.28,270.476 1726.86,270.476 
  "/>
<path clip-path="url(#clip460)" d="M1773.37 254.33 L1773.37 258.89 Q1770.7 257.617 1768.34 256.992 Q1765.98 256.367 1763.78 256.367 Q1759.96 256.367 1757.88 257.848 Q1755.82 259.33 1755.82 262.061 Q1755.82 264.353 1757.19 265.534 Q1758.58 266.691 1762.42 267.409 L1765.24 267.987 Q1770.47 268.983 1772.95 271.506 Q1775.45 274.006 1775.45 278.219 Q1775.45 283.242 1772.07 285.834 Q1768.71 288.427 1762.21 288.427 Q1759.76 288.427 1756.98 287.871 Q1754.22 287.316 1751.26 286.228 L1751.26 281.413 Q1754.11 283.01 1756.84 283.821 Q1759.57 284.631 1762.21 284.631 Q1766.21 284.631 1768.39 283.057 Q1770.57 281.483 1770.57 278.566 Q1770.57 276.02 1768.99 274.584 Q1767.44 273.149 1763.88 272.432 L1761.03 271.876 Q1755.8 270.835 1753.46 268.612 Q1751.12 266.39 1751.12 262.432 Q1751.12 257.848 1754.34 255.21 Q1757.58 252.571 1763.25 252.571 Q1765.68 252.571 1768.2 253.011 Q1770.73 253.45 1773.37 254.33 Z" fill="#000000" fill-rule="evenodd" fill-opacity="1" /><path clip-path="url(#clip460)" d="M1786.77 254.469 L1786.77 261.83 L1795.54 261.83 L1795.54 265.14 L1786.77 265.14 L1786.77 279.214 Q1786.77 282.385 1787.63 283.288 Q1788.51 284.191 1791.17 284.191 L1795.54 284.191 L1795.54 287.756 L1791.17 287.756 Q1786.24 287.756 1784.36 285.927 Q1782.49 284.075 1782.49 279.214 L1782.49 265.14 L1779.36 265.14 L1779.36 261.83 L1782.49 261.83 L1782.49 254.469 L1786.77 254.469 Z" fill="#000000" fill-rule="evenodd" fill-opacity="1" /><path clip-path="url(#clip460)" d="M1812.93 274.723 Q1807.76 274.723 1805.77 275.904 Q1803.78 277.084 1803.78 279.932 Q1803.78 282.2 1805.26 283.543 Q1806.77 284.862 1809.34 284.862 Q1812.88 284.862 1815.01 282.362 Q1817.16 279.839 1817.16 275.672 L1817.16 274.723 L1812.93 274.723 M1821.42 272.964 L1821.42 287.756 L1817.16 287.756 L1817.16 283.821 Q1815.7 286.182 1813.53 287.316 Q1811.35 288.427 1808.2 288.427 Q1804.22 288.427 1801.86 286.205 Q1799.52 283.959 1799.52 280.209 Q1799.52 275.834 1802.44 273.612 Q1805.38 271.39 1811.19 271.39 L1817.16 271.39 L1817.16 270.973 Q1817.16 268.034 1815.22 266.436 Q1813.3 264.816 1809.8 264.816 Q1807.58 264.816 1805.47 265.348 Q1803.37 265.881 1801.42 266.946 L1801.42 263.01 Q1803.76 262.108 1805.96 261.668 Q1808.16 261.205 1810.24 261.205 Q1815.87 261.205 1818.64 264.122 Q1821.42 267.038 1821.42 272.964 Z" fill="#000000" fill-rule="evenodd" fill-opacity="1" /><path clip-path="url(#clip460)" d="M1848.85 262.825 L1848.85 266.807 Q1847.05 265.811 1845.22 265.325 Q1843.41 264.816 1841.56 264.816 Q1837.42 264.816 1835.13 267.455 Q1832.83 270.071 1832.83 274.816 Q1832.83 279.561 1835.13 282.2 Q1837.42 284.816 1841.56 284.816 Q1843.41 284.816 1845.22 284.33 Q1847.05 283.821 1848.85 282.825 L1848.85 286.76 Q1847.07 287.594 1845.15 288.01 Q1843.25 288.427 1841.1 288.427 Q1835.24 288.427 1831.79 284.746 Q1828.34 281.066 1828.34 274.816 Q1828.34 268.473 1831.82 264.839 Q1835.31 261.205 1841.38 261.205 Q1843.34 261.205 1845.22 261.622 Q1847.09 262.015 1848.85 262.825 Z" fill="#000000" fill-rule="evenodd" fill-opacity="1" /><path clip-path="url(#clip460)" d="M1856.1 251.737 L1860.38 251.737 L1860.38 273.01 L1873.09 261.83 L1878.53 261.83 L1864.78 273.959 L1879.11 287.756 L1873.55 287.756 L1860.38 275.094 L1860.38 287.756 L1856.1 287.756 L1856.1 251.737 Z" fill="#000000" fill-rule="evenodd" fill-opacity="1" /><path clip-path="url(#clip460)" d="M1904.2 273.728 L1904.2 275.811 L1884.62 275.811 Q1884.89 280.209 1887.25 282.524 Q1889.64 284.816 1893.88 284.816 Q1896.33 284.816 1898.62 284.214 Q1900.94 283.612 1903.2 282.409 L1903.2 286.436 Q1900.91 287.408 1898.5 287.918 Q1896.1 288.427 1893.62 288.427 Q1887.42 288.427 1883.78 284.816 Q1880.17 281.205 1880.17 275.047 Q1880.17 268.682 1883.6 264.955 Q1887.05 261.205 1892.88 261.205 Q1898.11 261.205 1901.14 264.585 Q1904.2 267.941 1904.2 273.728 M1899.94 272.478 Q1899.89 268.983 1897.97 266.899 Q1896.07 264.816 1892.93 264.816 Q1889.36 264.816 1887.21 266.83 Q1885.08 268.844 1884.75 272.501 L1899.94 272.478 Z" fill="#000000" fill-rule="evenodd" fill-opacity="1" /><path clip-path="url(#clip460)" d="M1911.19 251.737 L1915.45 251.737 L1915.45 287.756 L1911.19 287.756 L1911.19 251.737 Z" fill="#000000" fill-rule="evenodd" fill-opacity="1" /><path clip-path="url(#clip460)" d="M1942.97 274.816 Q1942.97 270.117 1941.03 267.455 Q1939.11 264.77 1935.73 264.77 Q1932.35 264.77 1930.4 267.455 Q1928.48 270.117 1928.48 274.816 Q1928.48 279.515 1930.4 282.2 Q1932.35 284.862 1935.73 284.862 Q1939.11 284.862 1941.03 282.2 Q1942.97 279.515 1942.97 274.816 M1928.48 265.765 Q1929.82 263.45 1931.86 262.339 Q1933.92 261.205 1936.77 261.205 Q1941.49 261.205 1944.43 264.955 Q1947.39 268.705 1947.39 274.816 Q1947.39 280.927 1944.43 284.677 Q1941.49 288.427 1936.77 288.427 Q1933.92 288.427 1931.86 287.316 Q1929.82 286.182 1928.48 283.867 L1928.48 287.756 L1924.2 287.756 L1924.2 251.737 L1928.48 251.737 L1928.48 265.765 Z" fill="#000000" fill-rule="evenodd" fill-opacity="1" /><path clip-path="url(#clip460)" d="M1976.63 273.728 L1976.63 275.811 L1957.05 275.811 Q1957.32 280.209 1959.69 282.524 Q1962.07 284.816 1966.31 284.816 Q1968.76 284.816 1971.05 284.214 Q1973.37 283.612 1975.63 282.409 L1975.63 286.436 Q1973.34 287.408 1970.94 287.918 Q1968.53 288.427 1966.05 288.427 Q1959.85 288.427 1956.21 284.816 Q1952.6 281.205 1952.6 275.047 Q1952.6 268.682 1956.03 264.955 Q1959.48 261.205 1965.31 261.205 Q1970.54 261.205 1973.57 264.585 Q1976.63 267.941 1976.63 273.728 M1972.37 272.478 Q1972.32 268.983 1970.4 266.899 Q1968.5 264.816 1965.36 264.816 Q1961.79 264.816 1959.64 266.83 Q1957.51 268.844 1957.19 272.501 L1972.37 272.478 Z" fill="#000000" fill-rule="evenodd" fill-opacity="1" /><path clip-path="url(#clip460)" d="M1998.64 265.811 Q1997.93 265.395 1997.07 265.21 Q1996.24 265.001 1995.22 265.001 Q1991.61 265.001 1989.66 267.362 Q1987.74 269.7 1987.74 274.098 L1987.74 287.756 L1983.46 287.756 L1983.46 261.83 L1987.74 261.83 L1987.74 265.858 Q1989.08 263.497 1991.24 262.362 Q1993.39 261.205 1996.47 261.205 Q1996.91 261.205 1997.44 261.274 Q1997.97 261.321 1998.62 261.436 L1998.64 265.811 Z" fill="#000000" fill-rule="evenodd" fill-opacity="1" /><path clip-path="url(#clip460)" d="M2019.34 274.492 Q2019.34 269.862 2017.42 267.316 Q2015.52 264.77 2012.07 264.77 Q2008.64 264.77 2006.72 267.316 Q2004.82 269.862 2004.82 274.492 Q2004.82 279.098 2006.72 281.645 Q2008.64 284.191 2012.07 284.191 Q2015.52 284.191 2017.42 281.645 Q2019.34 279.098 2019.34 274.492 M2023.6 284.538 Q2023.6 291.158 2020.66 294.376 Q2017.72 297.617 2011.65 297.617 Q2009.41 297.617 2007.42 297.27 Q2005.43 296.945 2003.55 296.251 L2003.55 292.108 Q2005.43 293.126 2007.25 293.612 Q2009.08 294.098 2010.98 294.098 Q2015.17 294.098 2017.25 291.899 Q2019.34 289.723 2019.34 285.302 L2019.34 283.196 Q2018.02 285.487 2015.96 286.621 Q2013.9 287.756 2011.03 287.756 Q2006.26 287.756 2003.34 284.121 Q2000.43 280.487 2000.43 274.492 Q2000.43 268.473 2003.34 264.839 Q2006.26 261.205 2011.03 261.205 Q2013.9 261.205 2015.96 262.339 Q2018.02 263.473 2019.34 265.765 L2019.34 261.83 L2023.6 261.83 L2023.6 284.538 Z" fill="#000000" fill-rule="evenodd" fill-opacity="1" /><path clip-path="url(#clip460)" d="M2047.44 251.737 L2051.7 251.737 L2051.7 287.756 L2047.44 287.756 L2047.44 251.737 Z" fill="#000000" fill-rule="evenodd" fill-opacity="1" /><path clip-path="url(#clip460)" d="M2082.79 273.728 L2082.79 275.811 L2063.2 275.811 Q2063.48 280.209 2065.84 282.524 Q2068.23 284.816 2072.46 284.816 Q2074.92 284.816 2077.21 284.214 Q2079.52 283.612 2081.79 282.409 L2081.79 286.436 Q2079.5 287.408 2077.09 287.918 Q2074.68 288.427 2072.21 288.427 Q2066 288.427 2062.37 284.816 Q2058.76 281.205 2058.76 275.047 Q2058.76 268.682 2062.18 264.955 Q2065.63 261.205 2071.47 261.205 Q2076.7 261.205 2079.73 264.585 Q2082.79 267.941 2082.79 273.728 M2078.53 272.478 Q2078.48 268.983 2076.56 266.899 Q2074.66 264.816 2071.51 264.816 Q2067.95 264.816 2065.8 266.83 Q2063.67 268.844 2063.34 272.501 L2078.53 272.478 Z" fill="#000000" fill-rule="evenodd" fill-opacity="1" /><path clip-path="url(#clip460)" d="M2101.56 274.723 Q2096.4 274.723 2094.41 275.904 Q2092.42 277.084 2092.42 279.932 Q2092.42 282.2 2093.9 283.543 Q2095.4 284.862 2097.97 284.862 Q2101.51 284.862 2103.64 282.362 Q2105.8 279.839 2105.8 275.672 L2105.8 274.723 L2101.56 274.723 M2110.05 272.964 L2110.05 287.756 L2105.8 287.756 L2105.8 283.821 Q2104.34 286.182 2102.16 287.316 Q2099.99 288.427 2096.84 288.427 Q2092.86 288.427 2090.49 286.205 Q2088.16 283.959 2088.16 280.209 Q2088.16 275.834 2091.07 273.612 Q2094.01 271.39 2099.82 271.39 L2105.8 271.39 L2105.8 270.973 Q2105.8 268.034 2103.85 266.436 Q2101.93 264.816 2098.43 264.816 Q2096.21 264.816 2094.11 265.348 Q2092 265.881 2090.05 266.946 L2090.05 263.01 Q2092.39 262.108 2094.59 261.668 Q2096.79 261.205 2098.87 261.205 Q2104.5 261.205 2107.28 264.122 Q2110.05 267.038 2110.05 272.964 Z" fill="#000000" fill-rule="evenodd" fill-opacity="1" /><path clip-path="url(#clip460)" d="M2135.89 265.765 L2135.89 251.737 L2140.15 251.737 L2140.15 287.756 L2135.89 287.756 L2135.89 283.867 Q2134.55 286.182 2132.49 287.316 Q2130.45 288.427 2127.58 288.427 Q2122.88 288.427 2119.92 284.677 Q2116.98 280.927 2116.98 274.816 Q2116.98 268.705 2119.92 264.955 Q2122.88 261.205 2127.58 261.205 Q2130.45 261.205 2132.49 262.339 Q2134.55 263.45 2135.89 265.765 M2121.37 274.816 Q2121.37 279.515 2123.3 282.2 Q2125.24 284.862 2128.62 284.862 Q2132 284.862 2133.94 282.2 Q2135.89 279.515 2135.89 274.816 Q2135.89 270.117 2133.94 267.455 Q2132 264.77 2128.62 264.77 Q2125.24 264.77 2123.3 267.455 Q2121.37 270.117 2121.37 274.816 Z" fill="#000000" fill-rule="evenodd" fill-opacity="1" /><path clip-path="url(#clip460)" d="M2171.1 273.728 L2171.1 275.811 L2151.51 275.811 Q2151.79 280.209 2154.15 282.524 Q2156.54 284.816 2160.77 284.816 Q2163.23 284.816 2165.52 284.214 Q2167.83 283.612 2170.1 282.409 L2170.1 286.436 Q2167.81 287.408 2165.4 287.918 Q2162.99 288.427 2160.52 288.427 Q2154.31 288.427 2150.68 284.816 Q2147.07 281.205 2147.07 275.047 Q2147.07 268.682 2150.49 264.955 Q2153.94 261.205 2159.78 261.205 Q2165.01 261.205 2168.04 264.585 Q2171.1 267.941 2171.1 273.728 M2166.84 272.478 Q2166.79 268.983 2164.87 266.899 Q2162.97 264.816 2159.82 264.816 Q2156.26 264.816 2154.11 266.83 Q2151.98 268.844 2151.65 272.501 L2166.84 272.478 Z" fill="#000000" fill-rule="evenodd" fill-opacity="1" /><path clip-path="url(#clip460)" d="M2193.11 265.811 Q2192.39 265.395 2191.54 265.21 Q2190.7 265.001 2189.68 265.001 Q2186.07 265.001 2184.13 267.362 Q2182.21 269.7 2182.21 274.098 L2182.21 287.756 L2177.92 287.756 L2177.92 261.83 L2182.21 261.83 L2182.21 265.858 Q2183.55 263.497 2185.7 262.362 Q2187.86 261.205 2190.93 261.205 Q2191.37 261.205 2191.91 261.274 Q2192.44 261.321 2193.09 261.436 L2193.11 265.811 Z" fill="#000000" fill-rule="evenodd" fill-opacity="1" /><polyline clip-path="url(#clip460)" style="stroke:#3da44d; stroke-linecap:butt; stroke-linejoin:round; stroke-width:4; stroke-opacity:1; fill:none" points="
  1581.28,322.316 1726.86,322.316 
  "/>
<path clip-path="url(#clip460)" d="M1773.37 306.17 L1773.37 310.73 Q1770.7 309.457 1768.34 308.832 Q1765.98 308.207 1763.78 308.207 Q1759.96 308.207 1757.88 309.688 Q1755.82 311.17 1755.82 313.901 Q1755.82 316.193 1757.19 317.374 Q1758.58 318.531 1762.42 319.249 L1765.24 319.827 Q1770.47 320.823 1772.95 323.346 Q1775.45 325.846 1775.45 330.059 Q1775.45 335.082 1772.07 337.674 Q1768.71 340.267 1762.21 340.267 Q1759.76 340.267 1756.98 339.711 Q1754.22 339.156 1751.26 338.068 L1751.26 333.253 Q1754.11 334.85 1756.84 335.661 Q1759.57 336.471 1762.21 336.471 Q1766.21 336.471 1768.39 334.897 Q1770.57 333.323 1770.57 330.406 Q1770.57 327.86 1768.99 326.424 Q1767.44 324.989 1763.88 324.272 L1761.03 323.716 Q1755.8 322.675 1753.46 320.452 Q1751.12 318.23 1751.12 314.272 Q1751.12 309.688 1754.34 307.05 Q1757.58 304.411 1763.25 304.411 Q1765.68 304.411 1768.2 304.851 Q1770.73 305.29 1773.37 306.17 Z" fill="#000000" fill-rule="evenodd" fill-opacity="1" /><path clip-path="url(#clip460)" d="M1786.77 306.309 L1786.77 313.67 L1795.54 313.67 L1795.54 316.98 L1786.77 316.98 L1786.77 331.054 Q1786.77 334.225 1787.63 335.128 Q1788.51 336.031 1791.17 336.031 L1795.54 336.031 L1795.54 339.596 L1791.17 339.596 Q1786.24 339.596 1784.36 337.767 Q1782.49 335.915 1782.49 331.054 L1782.49 316.98 L1779.36 316.98 L1779.36 313.67 L1782.49 313.67 L1782.49 306.309 L1786.77 306.309 Z" fill="#000000" fill-rule="evenodd" fill-opacity="1" /><path clip-path="url(#clip460)" d="M1812.93 326.563 Q1807.76 326.563 1805.77 327.744 Q1803.78 328.924 1803.78 331.772 Q1803.78 334.04 1805.26 335.383 Q1806.77 336.702 1809.34 336.702 Q1812.88 336.702 1815.01 334.202 Q1817.16 331.679 1817.16 327.512 L1817.16 326.563 L1812.93 326.563 M1821.42 324.804 L1821.42 339.596 L1817.16 339.596 L1817.16 335.661 Q1815.7 338.022 1813.53 339.156 Q1811.35 340.267 1808.2 340.267 Q1804.22 340.267 1801.86 338.045 Q1799.52 335.799 1799.52 332.049 Q1799.52 327.674 1802.44 325.452 Q1805.38 323.23 1811.19 323.23 L1817.16 323.23 L1817.16 322.813 Q1817.16 319.874 1815.22 318.276 Q1813.3 316.656 1809.8 316.656 Q1807.58 316.656 1805.47 317.188 Q1803.37 317.721 1801.42 318.786 L1801.42 314.85 Q1803.76 313.948 1805.96 313.508 Q1808.16 313.045 1810.24 313.045 Q1815.87 313.045 1818.64 315.962 Q1821.42 318.878 1821.42 324.804 Z" fill="#000000" fill-rule="evenodd" fill-opacity="1" /><path clip-path="url(#clip460)" d="M1848.85 314.665 L1848.85 318.647 Q1847.05 317.651 1845.22 317.165 Q1843.41 316.656 1841.56 316.656 Q1837.42 316.656 1835.13 319.295 Q1832.83 321.911 1832.83 326.656 Q1832.83 331.401 1835.13 334.04 Q1837.42 336.656 1841.56 336.656 Q1843.41 336.656 1845.22 336.17 Q1847.05 335.661 1848.85 334.665 L1848.85 338.6 Q1847.07 339.434 1845.15 339.85 Q1843.25 340.267 1841.1 340.267 Q1835.24 340.267 1831.79 336.586 Q1828.34 332.906 1828.34 326.656 Q1828.34 320.313 1831.82 316.679 Q1835.31 313.045 1841.38 313.045 Q1843.34 313.045 1845.22 313.462 Q1847.09 313.855 1848.85 314.665 Z" fill="#000000" fill-rule="evenodd" fill-opacity="1" /><path clip-path="url(#clip460)" d="M1856.1 303.577 L1860.38 303.577 L1860.38 324.85 L1873.09 313.67 L1878.53 313.67 L1864.78 325.799 L1879.11 339.596 L1873.55 339.596 L1860.38 326.934 L1860.38 339.596 L1856.1 339.596 L1856.1 303.577 Z" fill="#000000" fill-rule="evenodd" fill-opacity="1" /><path clip-path="url(#clip460)" d="M1904.2 325.568 L1904.2 327.651 L1884.62 327.651 Q1884.89 332.049 1887.25 334.364 Q1889.64 336.656 1893.88 336.656 Q1896.33 336.656 1898.62 336.054 Q1900.94 335.452 1903.2 334.249 L1903.2 338.276 Q1900.91 339.248 1898.5 339.758 Q1896.1 340.267 1893.62 340.267 Q1887.42 340.267 1883.78 336.656 Q1880.17 333.045 1880.17 326.887 Q1880.17 320.522 1883.6 316.795 Q1887.05 313.045 1892.88 313.045 Q1898.11 313.045 1901.14 316.425 Q1904.2 319.781 1904.2 325.568 M1899.94 324.318 Q1899.89 320.823 1897.97 318.739 Q1896.07 316.656 1892.93 316.656 Q1889.36 316.656 1887.21 318.67 Q1885.08 320.684 1884.75 324.341 L1899.94 324.318 Z" fill="#000000" fill-rule="evenodd" fill-opacity="1" /><path clip-path="url(#clip460)" d="M1911.19 303.577 L1915.45 303.577 L1915.45 339.596 L1911.19 339.596 L1911.19 303.577 Z" fill="#000000" fill-rule="evenodd" fill-opacity="1" /><path clip-path="url(#clip460)" d="M1942.97 326.656 Q1942.97 321.957 1941.03 319.295 Q1939.11 316.61 1935.73 316.61 Q1932.35 316.61 1930.4 319.295 Q1928.48 321.957 1928.48 326.656 Q1928.48 331.355 1930.4 334.04 Q1932.35 336.702 1935.73 336.702 Q1939.11 336.702 1941.03 334.04 Q1942.97 331.355 1942.97 326.656 M1928.48 317.605 Q1929.82 315.29 1931.86 314.179 Q1933.92 313.045 1936.77 313.045 Q1941.49 313.045 1944.43 316.795 Q1947.39 320.545 1947.39 326.656 Q1947.39 332.767 1944.43 336.517 Q1941.49 340.267 1936.77 340.267 Q1933.92 340.267 1931.86 339.156 Q1929.82 338.022 1928.48 335.707 L1928.48 339.596 L1924.2 339.596 L1924.2 303.577 L1928.48 303.577 L1928.48 317.605 Z" fill="#000000" fill-rule="evenodd" fill-opacity="1" /><path clip-path="url(#clip460)" d="M1976.63 325.568 L1976.63 327.651 L1957.05 327.651 Q1957.32 332.049 1959.69 334.364 Q1962.07 336.656 1966.31 336.656 Q1968.76 336.656 1971.05 336.054 Q1973.37 335.452 1975.63 334.249 L1975.63 338.276 Q1973.34 339.248 1970.94 339.758 Q1968.53 340.267 1966.05 340.267 Q1959.85 340.267 1956.21 336.656 Q1952.6 333.045 1952.6 326.887 Q1952.6 320.522 1956.03 316.795 Q1959.48 313.045 1965.31 313.045 Q1970.54 313.045 1973.57 316.425 Q1976.63 319.781 1976.63 325.568 M1972.37 324.318 Q1972.32 320.823 1970.4 318.739 Q1968.5 316.656 1965.36 316.656 Q1961.79 316.656 1959.64 318.67 Q1957.51 320.684 1957.19 324.341 L1972.37 324.318 Z" fill="#000000" fill-rule="evenodd" fill-opacity="1" /><path clip-path="url(#clip460)" d="M1998.64 317.651 Q1997.93 317.235 1997.07 317.05 Q1996.24 316.841 1995.22 316.841 Q1991.61 316.841 1989.66 319.202 Q1987.74 321.54 1987.74 325.938 L1987.74 339.596 L1983.46 339.596 L1983.46 313.67 L1987.74 313.67 L1987.74 317.698 Q1989.08 315.337 1991.24 314.202 Q1993.39 313.045 1996.47 313.045 Q1996.91 313.045 1997.44 313.114 Q1997.97 313.161 1998.62 313.276 L1998.64 317.651 Z" fill="#000000" fill-rule="evenodd" fill-opacity="1" /><path clip-path="url(#clip460)" d="M2019.34 326.332 Q2019.34 321.702 2017.42 319.156 Q2015.52 316.61 2012.07 316.61 Q2008.64 316.61 2006.72 319.156 Q2004.82 321.702 2004.82 326.332 Q2004.82 330.938 2006.72 333.485 Q2008.64 336.031 2012.07 336.031 Q2015.52 336.031 2017.42 333.485 Q2019.34 330.938 2019.34 326.332 M2023.6 336.378 Q2023.6 342.998 2020.66 346.216 Q2017.72 349.457 2011.65 349.457 Q2009.41 349.457 2007.42 349.11 Q2005.43 348.785 2003.55 348.091 L2003.55 343.948 Q2005.43 344.966 2007.25 345.452 Q2009.08 345.938 2010.98 345.938 Q2015.17 345.938 2017.25 343.739 Q2019.34 341.563 2019.34 337.142 L2019.34 335.036 Q2018.02 337.327 2015.96 338.461 Q2013.9 339.596 2011.03 339.596 Q2006.26 339.596 2003.34 335.961 Q2000.43 332.327 2000.43 326.332 Q2000.43 320.313 2003.34 316.679 Q2006.26 313.045 2011.03 313.045 Q2013.9 313.045 2015.96 314.179 Q2018.02 315.313 2019.34 317.605 L2019.34 313.67 L2023.6 313.67 L2023.6 336.378 Z" fill="#000000" fill-rule="evenodd" fill-opacity="1" /><path clip-path="url(#clip460)" d="M2060.56 303.577 L2060.56 307.119 L2056.49 307.119 Q2054.2 307.119 2053.3 308.045 Q2052.42 308.971 2052.42 311.378 L2052.42 313.67 L2059.43 313.67 L2059.43 316.98 L2052.42 316.98 L2052.42 339.596 L2048.13 339.596 L2048.13 316.98 L2044.06 316.98 L2044.06 313.67 L2048.13 313.67 L2048.13 311.864 Q2048.13 307.536 2050.15 305.568 Q2052.16 303.577 2056.54 303.577 L2060.56 303.577 Z" fill="#000000" fill-rule="evenodd" fill-opacity="1" /><path clip-path="url(#clip460)" d="M2074.18 316.656 Q2070.75 316.656 2068.76 319.341 Q2066.77 322.003 2066.77 326.656 Q2066.77 331.309 2068.74 333.994 Q2070.73 336.656 2074.18 336.656 Q2077.58 336.656 2079.57 333.971 Q2081.56 331.286 2081.56 326.656 Q2081.56 322.05 2079.57 319.364 Q2077.58 316.656 2074.18 316.656 M2074.18 313.045 Q2079.73 313.045 2082.9 316.656 Q2086.07 320.267 2086.07 326.656 Q2086.07 333.022 2082.9 336.656 Q2079.73 340.267 2074.18 340.267 Q2068.6 340.267 2065.43 336.656 Q2062.28 333.022 2062.28 326.656 Q2062.28 320.267 2065.43 316.656 Q2068.6 313.045 2074.18 313.045 Z" fill="#000000" fill-rule="evenodd" fill-opacity="1" /><path clip-path="url(#clip460)" d="M2093.13 303.577 L2097.39 303.577 L2097.39 339.596 L2093.13 339.596 L2093.13 303.577 Z" fill="#000000" fill-rule="evenodd" fill-opacity="1" /><path clip-path="url(#clip460)" d="M2106.3 303.577 L2110.56 303.577 L2110.56 339.596 L2106.3 339.596 L2106.3 303.577 Z" fill="#000000" fill-rule="evenodd" fill-opacity="1" /><path clip-path="url(#clip460)" d="M2129.52 316.656 Q2126.1 316.656 2124.11 319.341 Q2122.11 322.003 2122.11 326.656 Q2122.11 331.309 2124.08 333.994 Q2126.07 336.656 2129.52 336.656 Q2132.92 336.656 2134.92 333.971 Q2136.91 331.286 2136.91 326.656 Q2136.91 322.05 2134.92 319.364 Q2132.92 316.656 2129.52 316.656 M2129.52 313.045 Q2135.08 313.045 2138.25 316.656 Q2141.42 320.267 2141.42 326.656 Q2141.42 333.022 2138.25 336.656 Q2135.08 340.267 2129.52 340.267 Q2123.94 340.267 2120.77 336.656 Q2117.62 333.022 2117.62 326.656 Q2117.62 320.267 2120.77 316.656 Q2123.94 313.045 2129.52 313.045 Z" fill="#000000" fill-rule="evenodd" fill-opacity="1" /><path clip-path="url(#clip460)" d="M2146 313.67 L2150.26 313.67 L2155.59 333.901 L2160.89 313.67 L2165.91 313.67 L2171.23 333.901 L2176.54 313.67 L2180.79 313.67 L2174.01 339.596 L2168.99 339.596 L2163.41 318.346 L2157.81 339.596 L2152.79 339.596 L2146 313.67 Z" fill="#000000" fill-rule="evenodd" fill-opacity="1" /><path clip-path="url(#clip460)" d="M2209.43 325.568 L2209.43 327.651 L2189.85 327.651 Q2190.12 332.049 2192.48 334.364 Q2194.87 336.656 2199.11 336.656 Q2201.56 336.656 2203.85 336.054 Q2206.17 335.452 2208.43 334.249 L2208.43 338.276 Q2206.14 339.248 2203.73 339.758 Q2201.33 340.267 2198.85 340.267 Q2192.65 340.267 2189.01 336.656 Q2185.4 333.045 2185.4 326.887 Q2185.4 320.522 2188.83 316.795 Q2192.28 313.045 2198.11 313.045 Q2203.34 313.045 2206.37 316.425 Q2209.43 319.781 2209.43 325.568 M2205.17 324.318 Q2205.12 320.823 2203.2 318.739 Q2201.3 316.656 2198.16 316.656 Q2194.59 316.656 2192.44 318.67 Q2190.31 320.684 2189.98 324.341 L2205.17 324.318 Z" fill="#000000" fill-rule="evenodd" fill-opacity="1" /><path clip-path="url(#clip460)" d="M2231.44 317.651 Q2230.73 317.235 2229.87 317.05 Q2229.04 316.841 2228.02 316.841 Q2224.41 316.841 2222.46 319.202 Q2220.54 321.54 2220.54 325.938 L2220.54 339.596 L2216.26 339.596 L2216.26 313.67 L2220.54 313.67 L2220.54 317.698 Q2221.88 315.337 2224.04 314.202 Q2226.19 313.045 2229.27 313.045 Q2229.71 313.045 2230.24 313.114 Q2230.77 313.161 2231.42 313.276 L2231.44 317.651 Z" fill="#000000" fill-rule="evenodd" fill-opacity="1" /></svg>
