<?xml version="1.0" encoding="utf-8"?>
<svg xmlns="http://www.w3.org/2000/svg" xmlns:xlink="http://www.w3.org/1999/xlink" width="600" height="400" viewBox="0 0 2400 1600">
<defs>
  <clipPath id="clip110">
    <rect x="0" y="0" width="2400" height="1600"/>
  </clipPath>
</defs>
<path clip-path="url(#clip110)" d="
M0 1600 L2400 1600 L2400 0 L0 0  Z
  " fill="#ffffff" fill-rule="evenodd" fill-opacity="1"/>
<defs>
  <clipPath id="clip111">
    <rect x="480" y="0" width="1681" height="1600"/>
  </clipPath>
</defs>
<path clip-path="url(#clip110)" d="
M154.515 1486.45 L2352.76 1486.45 L2352.76 47.2441 L154.515 47.2441  Z
  " fill="#ffffff" fill-rule="evenodd" fill-opacity="1"/>
<defs>
  <clipPath id="clip112">
    <rect x="154" y="47" width="2199" height="1440"/>
  </clipPath>
</defs>
<polyline clip-path="url(#clip112)" style="stroke:#000000; stroke-linecap:butt; stroke-linejoin:round; stroke-width:2; stroke-opacity:0.1; fill:none" points="
  209.817,1486.45 209.817,47.2441 
  "/>
<polyline clip-path="url(#clip112)" style="stroke:#000000; stroke-linecap:butt; stroke-linejoin:round; stroke-width:2; stroke-opacity:0.1; fill:none" points="
  901.087,1486.45 901.087,47.2441 
  "/>
<polyline clip-path="url(#clip112)" style="stroke:#000000; stroke-linecap:butt; stroke-linejoin:round; stroke-width:2; stroke-opacity:0.1; fill:none" points="
  1592.36,1486.45 1592.36,47.2441 
  "/>
<polyline clip-path="url(#clip112)" style="stroke:#000000; stroke-linecap:butt; stroke-linejoin:round; stroke-width:2; stroke-opacity:0.1; fill:none" points="
  2283.63,1486.45 2283.63,47.2441 
  "/>
<polyline clip-path="url(#clip110)" style="stroke:#000000; stroke-linecap:butt; stroke-linejoin:round; stroke-width:4; stroke-opacity:1; fill:none" points="
  154.515,1486.45 2352.76,1486.45 
  "/>
<polyline clip-path="url(#clip110)" style="stroke:#000000; stroke-linecap:butt; stroke-linejoin:round; stroke-width:4; stroke-opacity:1; fill:none" points="
  209.817,1486.45 209.817,1467.55 
  "/>
<polyline clip-path="url(#clip110)" style="stroke:#000000; stroke-linecap:butt; stroke-linejoin:round; stroke-width:4; stroke-opacity:1; fill:none" points="
  901.087,1486.45 901.087,1467.55 
  "/>
<polyline clip-path="url(#clip110)" style="stroke:#000000; stroke-linecap:butt; stroke-linejoin:round; stroke-width:4; stroke-opacity:1; fill:none" points="
  1592.36,1486.45 1592.36,1467.55 
  "/>
<polyline clip-path="url(#clip110)" style="stroke:#000000; stroke-linecap:butt; stroke-linejoin:round; stroke-width:4; stroke-opacity:1; fill:none" points="
  2283.63,1486.45 2283.63,1467.55 
  "/>
<path clip-path="url(#clip110)" d="M209.817 1517.37 Q206.205 1517.37 204.377 1520.93 Q202.571 1524.47 202.571 1531.6 Q202.571 1538.71 204.377 1542.27 Q206.205 1545.82 209.817 1545.82 Q213.451 1545.82 215.256 1542.27 Q217.085 1538.71 217.085 1531.6 Q217.085 1524.47 215.256 1520.93 Q213.451 1517.37 209.817 1517.37 M209.817 1513.66 Q215.627 1513.66 218.682 1518.27 Q221.761 1522.85 221.761 1531.6 Q221.761 1540.33 218.682 1544.94 Q215.627 1549.52 209.817 1549.52 Q204.006 1549.52 200.928 1544.94 Q197.872 1540.33 197.872 1531.6 Q197.872 1522.85 200.928 1518.27 Q204.006 1513.66 209.817 1513.66 Z" fill="#000000" fill-rule="evenodd" fill-opacity="1" /><path clip-path="url(#clip110)" d="M860.694 1544.91 L868.333 1544.91 L868.333 1518.55 L860.023 1520.21 L860.023 1515.95 L868.287 1514.29 L872.962 1514.29 L872.962 1544.91 L880.601 1544.91 L880.601 1548.85 L860.694 1548.85 L860.694 1544.91 Z" fill="#000000" fill-rule="evenodd" fill-opacity="1" /><path clip-path="url(#clip110)" d="M900.046 1517.37 Q896.435 1517.37 894.606 1520.93 Q892.8 1524.47 892.8 1531.6 Q892.8 1538.71 894.606 1542.27 Q896.435 1545.82 900.046 1545.82 Q903.68 1545.82 905.485 1542.27 Q907.314 1538.71 907.314 1531.6 Q907.314 1524.47 905.485 1520.93 Q903.68 1517.37 900.046 1517.37 M900.046 1513.66 Q905.856 1513.66 908.911 1518.27 Q911.99 1522.85 911.99 1531.6 Q911.99 1540.33 908.911 1544.94 Q905.856 1549.52 900.046 1549.52 Q894.236 1549.52 891.157 1544.94 Q888.101 1540.33 888.101 1531.6 Q888.101 1522.85 891.157 1518.27 Q894.236 1513.66 900.046 1513.66 Z" fill="#000000" fill-rule="evenodd" fill-opacity="1" /><path clip-path="url(#clip110)" d="M930.208 1517.37 Q926.596 1517.37 924.768 1520.93 Q922.962 1524.47 922.962 1531.6 Q922.962 1538.71 924.768 1542.27 Q926.596 1545.82 930.208 1545.82 Q933.842 1545.82 935.647 1542.27 Q937.476 1538.71 937.476 1531.6 Q937.476 1524.47 935.647 1520.93 Q933.842 1517.37 930.208 1517.37 M930.208 1513.66 Q936.018 1513.66 939.073 1518.27 Q942.152 1522.85 942.152 1531.6 Q942.152 1540.33 939.073 1544.94 Q936.018 1549.52 930.208 1549.52 Q924.397 1549.52 921.319 1544.94 Q918.263 1540.33 918.263 1531.6 Q918.263 1522.85 921.319 1518.27 Q924.397 1513.66 930.208 1513.66 Z" fill="#000000" fill-rule="evenodd" fill-opacity="1" /><path clip-path="url(#clip110)" d="M1556.05 1544.91 L1572.37 1544.91 L1572.37 1548.85 L1550.43 1548.85 L1550.43 1544.91 Q1553.09 1542.16 1557.67 1537.53 Q1562.28 1532.88 1563.46 1531.53 Q1565.7 1529.01 1566.58 1527.27 Q1567.49 1525.51 1567.49 1523.82 Q1567.49 1521.07 1565.54 1519.33 Q1563.62 1517.6 1560.52 1517.6 Q1558.32 1517.6 1555.87 1518.36 Q1553.43 1519.13 1550.66 1520.68 L1550.66 1515.95 Q1553.48 1514.82 1555.93 1514.24 Q1558.39 1513.66 1560.43 1513.66 Q1565.8 1513.66 1568.99 1516.35 Q1572.18 1519.03 1572.18 1523.52 Q1572.18 1525.65 1571.37 1527.57 Q1570.59 1529.47 1568.48 1532.07 Q1567.9 1532.74 1564.8 1535.95 Q1561.7 1539.15 1556.05 1544.91 Z" fill="#000000" fill-rule="evenodd" fill-opacity="1" /><path clip-path="url(#clip110)" d="M1592.18 1517.37 Q1588.57 1517.37 1586.74 1520.93 Q1584.94 1524.47 1584.94 1531.6 Q1584.94 1538.71 1586.74 1542.27 Q1588.57 1545.82 1592.18 1545.82 Q1595.82 1545.82 1597.62 1542.27 Q1599.45 1538.71 1599.45 1531.6 Q1599.45 1524.47 1597.62 1520.93 Q1595.82 1517.37 1592.18 1517.37 M1592.18 1513.66 Q1597.99 1513.66 1601.05 1518.27 Q1604.13 1522.85 1604.13 1531.6 Q1604.13 1540.33 1601.05 1544.94 Q1597.99 1549.52 1592.18 1549.52 Q1586.37 1549.52 1583.3 1544.94 Q1580.24 1540.33 1580.24 1531.6 Q1580.24 1522.85 1583.3 1518.27 Q1586.37 1513.66 1592.18 1513.66 Z" fill="#000000" fill-rule="evenodd" fill-opacity="1" /><path clip-path="url(#clip110)" d="M1622.35 1517.37 Q1618.74 1517.37 1616.91 1520.93 Q1615.1 1524.47 1615.1 1531.6 Q1615.1 1538.71 1616.91 1542.27 Q1618.74 1545.82 1622.35 1545.82 Q1625.98 1545.82 1627.79 1542.27 Q1629.61 1538.71 1629.61 1531.6 Q1629.61 1524.47 1627.79 1520.93 Q1625.98 1517.37 1622.35 1517.37 M1622.35 1513.66 Q1628.16 1513.66 1631.21 1518.27 Q1634.29 1522.85 1634.29 1531.6 Q1634.29 1540.33 1631.21 1544.94 Q1628.16 1549.52 1622.35 1549.52 Q1616.54 1549.52 1613.46 1544.94 Q1610.4 1540.33 1610.4 1531.6 Q1610.4 1522.85 1613.46 1518.27 Q1616.54 1513.66 1622.35 1513.66 Z" fill="#000000" fill-rule="evenodd" fill-opacity="1" /><path clip-path="url(#clip110)" d="M2257.39 1530.21 Q2260.75 1530.93 2262.62 1533.2 Q2264.52 1535.47 2264.52 1538.8 Q2264.52 1543.92 2261 1546.72 Q2257.48 1549.52 2251 1549.52 Q2248.83 1549.52 2246.51 1549.08 Q2244.22 1548.66 2241.77 1547.81 L2241.77 1543.29 Q2243.71 1544.43 2246.02 1545.01 Q2248.34 1545.58 2250.86 1545.58 Q2255.26 1545.58 2257.55 1543.85 Q2259.87 1542.11 2259.87 1538.8 Q2259.87 1535.75 2257.71 1534.03 Q2255.58 1532.3 2251.77 1532.3 L2247.74 1532.3 L2247.74 1528.45 L2251.95 1528.45 Q2255.4 1528.45 2257.23 1527.09 Q2259.06 1525.7 2259.06 1523.11 Q2259.06 1520.45 2257.16 1519.03 Q2255.28 1517.6 2251.77 1517.6 Q2249.84 1517.6 2247.65 1518.01 Q2245.45 1518.43 2242.81 1519.31 L2242.81 1515.14 Q2245.47 1514.4 2247.78 1514.03 Q2250.12 1513.66 2252.18 1513.66 Q2257.51 1513.66 2260.61 1516.09 Q2263.71 1518.5 2263.71 1522.62 Q2263.71 1525.49 2262.07 1527.48 Q2260.42 1529.45 2257.39 1530.21 Z" fill="#000000" fill-rule="evenodd" fill-opacity="1" /><path clip-path="url(#clip110)" d="M2283.39 1517.37 Q2279.77 1517.37 2277.95 1520.93 Q2276.14 1524.47 2276.14 1531.6 Q2276.14 1538.71 2277.95 1542.27 Q2279.77 1545.82 2283.39 1545.82 Q2287.02 1545.82 2288.83 1542.27 Q2290.65 1538.71 2290.65 1531.6 Q2290.65 1524.47 2288.83 1520.93 Q2287.02 1517.37 2283.39 1517.37 M2283.39 1513.66 Q2289.2 1513.66 2292.25 1518.27 Q2295.33 1522.85 2295.33 1531.6 Q2295.33 1540.33 2292.25 1544.94 Q2289.2 1549.52 2283.39 1549.52 Q2277.58 1549.52 2274.5 1544.94 Q2271.44 1540.33 2271.44 1531.6 Q2271.44 1522.85 2274.5 1518.27 Q2277.58 1513.66 2283.39 1513.66 Z" fill="#000000" fill-rule="evenodd" fill-opacity="1" /><path clip-path="url(#clip110)" d="M2313.55 1517.37 Q2309.94 1517.37 2308.11 1520.93 Q2306.3 1524.47 2306.3 1531.6 Q2306.3 1538.71 2308.11 1542.27 Q2309.94 1545.82 2313.55 1545.82 Q2317.18 1545.82 2318.99 1542.27 Q2320.82 1538.71 2320.82 1531.6 Q2320.82 1524.47 2318.99 1520.93 Q2317.18 1517.37 2313.55 1517.37 M2313.55 1513.66 Q2319.36 1513.66 2322.41 1518.27 Q2325.49 1522.85 2325.49 1531.6 Q2325.49 1540.33 2322.41 1544.94 Q2319.36 1549.52 2313.55 1549.52 Q2307.74 1549.52 2304.66 1544.94 Q2301.6 1540.33 2301.6 1531.6 Q2301.6 1522.85 2304.66 1518.27 Q2307.74 1513.66 2313.55 1513.66 Z" fill="#000000" fill-rule="evenodd" fill-opacity="1" /><polyline clip-path="url(#clip112)" style="stroke:#000000; stroke-linecap:butt; stroke-linejoin:round; stroke-width:2; stroke-opacity:0.1; fill:none" points="
  154.515,1445.72 2352.76,1445.72 
  "/>
<polyline clip-path="url(#clip112)" style="stroke:#000000; stroke-linecap:butt; stroke-linejoin:round; stroke-width:2; stroke-opacity:0.1; fill:none" points="
  154.515,1132.57 2352.76,1132.57 
  "/>
<polyline clip-path="url(#clip112)" style="stroke:#000000; stroke-linecap:butt; stroke-linejoin:round; stroke-width:2; stroke-opacity:0.1; fill:none" points="
  154.515,819.426 2352.76,819.426 
  "/>
<polyline clip-path="url(#clip112)" style="stroke:#000000; stroke-linecap:butt; stroke-linejoin:round; stroke-width:2; stroke-opacity:0.1; fill:none" points="
  154.515,506.281 2352.76,506.281 
  "/>
<polyline clip-path="url(#clip112)" style="stroke:#000000; stroke-linecap:butt; stroke-linejoin:round; stroke-width:2; stroke-opacity:0.1; fill:none" points="
  154.515,193.137 2352.76,193.137 
  "/>
<polyline clip-path="url(#clip110)" style="stroke:#000000; stroke-linecap:butt; stroke-linejoin:round; stroke-width:4; stroke-opacity:1; fill:none" points="
  154.515,1486.45 154.515,47.2441 
  "/>
<polyline clip-path="url(#clip110)" style="stroke:#000000; stroke-linecap:butt; stroke-linejoin:round; stroke-width:4; stroke-opacity:1; fill:none" points="
  154.515,1445.72 173.413,1445.72 
  "/>
<polyline clip-path="url(#clip110)" style="stroke:#000000; stroke-linecap:butt; stroke-linejoin:round; stroke-width:4; stroke-opacity:1; fill:none" points="
  154.515,1132.57 173.413,1132.57 
  "/>
<polyline clip-path="url(#clip110)" style="stroke:#000000; stroke-linecap:butt; stroke-linejoin:round; stroke-width:4; stroke-opacity:1; fill:none" points="
  154.515,819.426 173.413,819.426 
  "/>
<polyline clip-path="url(#clip110)" style="stroke:#000000; stroke-linecap:butt; stroke-linejoin:round; stroke-width:4; stroke-opacity:1; fill:none" points="
  154.515,506.281 173.413,506.281 
  "/>
<polyline clip-path="url(#clip110)" style="stroke:#000000; stroke-linecap:butt; stroke-linejoin:round; stroke-width:4; stroke-opacity:1; fill:none" points="
  154.515,193.137 173.413,193.137 
  "/>
<path clip-path="url(#clip110)" d="M52.1495 1459.06 L59.7884 1459.06 L59.7884 1432.69 L51.4782 1434.36 L51.4782 1430.1 L59.7421 1428.44 L64.418 1428.44 L64.418 1459.06 L72.0568 1459.06 L72.0568 1463 L52.1495 1463 L52.1495 1459.06 Z" fill="#000000" fill-rule="evenodd" fill-opacity="1" /><path clip-path="url(#clip110)" d="M81.5012 1457.12 L86.3855 1457.12 L86.3855 1463 L81.5012 1463 L81.5012 1457.12 Z" fill="#000000" fill-rule="evenodd" fill-opacity="1" /><path clip-path="url(#clip110)" d="M106.571 1431.51 Q102.959 1431.51 101.131 1435.08 Q99.3252 1438.62 99.3252 1445.75 Q99.3252 1452.86 101.131 1456.42 Q102.959 1459.96 106.571 1459.96 Q110.205 1459.96 112.01 1456.42 Q113.839 1452.86 113.839 1445.75 Q113.839 1438.62 112.01 1435.08 Q110.205 1431.51 106.571 1431.51 M106.571 1427.81 Q112.381 1427.81 115.436 1432.42 Q118.515 1437 118.515 1445.75 Q118.515 1454.48 115.436 1459.08 Q112.381 1463.67 106.571 1463.67 Q100.76 1463.67 97.6817 1459.08 Q94.6262 1454.48 94.6262 1445.75 Q94.6262 1437 97.6817 1432.42 Q100.76 1427.81 106.571 1427.81 Z" fill="#000000" fill-rule="evenodd" fill-opacity="1" /><path clip-path="url(#clip110)" d="M53.3764 1145.92 L61.0152 1145.92 L61.0152 1119.55 L52.7051 1121.22 L52.7051 1116.96 L60.9689 1115.29 L65.6448 1115.29 L65.6448 1145.92 L73.2837 1145.92 L73.2837 1149.85 L53.3764 1149.85 L53.3764 1145.92 Z" fill="#000000" fill-rule="evenodd" fill-opacity="1" /><path clip-path="url(#clip110)" d="M82.7281 1143.97 L87.6123 1143.97 L87.6123 1149.85 L82.7281 1149.85 L82.7281 1143.97 Z" fill="#000000" fill-rule="evenodd" fill-opacity="1" /><path clip-path="url(#clip110)" d="M98.6076 1145.92 L106.246 1145.92 L106.246 1119.55 L97.9363 1121.22 L97.9363 1116.96 L106.2 1115.29 L110.876 1115.29 L110.876 1145.92 L118.515 1145.92 L118.515 1149.85 L98.6076 1149.85 L98.6076 1145.92 Z" fill="#000000" fill-rule="evenodd" fill-opacity="1" /><path clip-path="url(#clip110)" d="M53.7467 832.771 L61.3856 832.771 L61.3856 806.405 L53.0754 808.072 L53.0754 803.813 L61.3393 802.146 L66.0152 802.146 L66.0152 832.771 L73.654 832.771 L73.654 836.706 L53.7467 836.706 L53.7467 832.771 Z" fill="#000000" fill-rule="evenodd" fill-opacity="1" /><path clip-path="url(#clip110)" d="M83.0984 830.827 L87.9827 830.827 L87.9827 836.706 L83.0984 836.706 L83.0984 830.827 Z" fill="#000000" fill-rule="evenodd" fill-opacity="1" /><path clip-path="url(#clip110)" d="M102.196 832.771 L118.515 832.771 L118.515 836.706 L96.5706 836.706 L96.5706 832.771 Q99.2326 830.016 103.816 825.387 Q108.422 820.734 109.603 819.391 Q111.848 816.868 112.728 815.132 Q113.631 813.373 113.631 811.683 Q113.631 808.929 111.686 807.192 Q109.765 805.456 106.663 805.456 Q104.464 805.456 102.01 806.22 Q99.5798 806.984 96.8021 808.535 L96.8021 803.813 Q99.6261 802.679 102.08 802.1 Q104.534 801.521 106.571 801.521 Q111.941 801.521 115.135 804.206 Q118.33 806.892 118.33 811.382 Q118.33 813.512 117.52 815.433 Q116.733 817.331 114.626 819.924 Q114.047 820.595 110.946 823.813 Q107.844 827.007 102.196 832.771 Z" fill="#000000" fill-rule="evenodd" fill-opacity="1" /><path clip-path="url(#clip110)" d="M52.7977 519.626 L60.4365 519.626 L60.4365 493.261 L52.1264 494.927 L52.1264 490.668 L60.3902 489.001 L65.0661 489.001 L65.0661 519.626 L72.705 519.626 L72.705 523.561 L52.7977 523.561 L52.7977 519.626 Z" fill="#000000" fill-rule="evenodd" fill-opacity="1" /><path clip-path="url(#clip110)" d="M82.1494 517.682 L87.0336 517.682 L87.0336 523.561 L82.1494 523.561 L82.1494 517.682 Z" fill="#000000" fill-rule="evenodd" fill-opacity="1" /><path clip-path="url(#clip110)" d="M111.385 504.927 Q114.742 505.645 116.617 507.913 Q118.515 510.182 118.515 513.515 Q118.515 518.631 114.996 521.432 Q111.478 524.233 104.996 524.233 Q102.821 524.233 100.506 523.793 Q98.2141 523.376 95.7604 522.52 L95.7604 518.006 Q97.7048 519.14 100.02 519.719 Q102.334 520.298 104.858 520.298 Q109.256 520.298 111.547 518.561 Q113.862 516.825 113.862 513.515 Q113.862 510.46 111.709 508.747 Q109.58 507.011 105.76 507.011 L101.733 507.011 L101.733 503.168 L105.946 503.168 Q109.395 503.168 111.223 501.802 Q113.052 500.413 113.052 497.821 Q113.052 495.159 111.154 493.747 Q109.279 492.312 105.76 492.312 Q103.839 492.312 101.64 492.728 Q99.4409 493.145 96.8021 494.025 L96.8021 489.858 Q99.4641 489.117 101.779 488.747 Q104.117 488.376 106.177 488.376 Q111.501 488.376 114.603 490.807 Q117.705 493.214 117.705 497.335 Q117.705 500.205 116.061 502.196 Q114.418 504.163 111.385 504.927 Z" fill="#000000" fill-rule="evenodd" fill-opacity="1" /><path clip-path="url(#clip110)" d="M51.6634 206.482 L59.3023 206.482 L59.3023 180.116 L50.9921 181.783 L50.9921 177.523 L59.256 175.857 L63.9319 175.857 L63.9319 206.482 L71.5707 206.482 L71.5707 210.417 L51.6634 210.417 L51.6634 206.482 Z" fill="#000000" fill-rule="evenodd" fill-opacity="1" /><path clip-path="url(#clip110)" d="M81.0151 204.537 L85.8993 204.537 L85.8993 210.417 L81.0151 210.417 L81.0151 204.537 Z" fill="#000000" fill-rule="evenodd" fill-opacity="1" /><path clip-path="url(#clip110)" d="M108.932 179.931 L97.1261 198.38 L108.932 198.38 L108.932 179.931 M107.705 175.857 L113.584 175.857 L113.584 198.38 L118.515 198.38 L118.515 202.269 L113.584 202.269 L113.584 210.417 L108.932 210.417 L108.932 202.269 L93.3299 202.269 L93.3299 197.755 L107.705 175.857 Z" fill="#000000" fill-rule="evenodd" fill-opacity="1" /><polyline clip-path="url(#clip112)" style="stroke:#009af9; stroke-linecap:butt; stroke-linejoin:round; stroke-width:4; stroke-opacity:1; fill:none" points="
  216.729,1445.72 223.642,1205.99 230.555,1001.61 237.467,828.022 244.38,681.262 251.293,557.847 258.206,454.724 265.118,369.223 272.031,299.004 278.944,242.016 
  285.856,196.467 292.769,160.787 299.682,133.603 306.594,113.714 313.507,100.072 320.42,91.7589 327.333,87.9763 334.245,88.0263 341.158,91.301 348.071,97.2716 
  354.983,105.478 361.896,115.521 368.809,127.054 375.722,139.778 382.634,153.434 389.547,167.798 396.46,182.68 403.372,197.914 410.285,213.36 417.198,228.899 
  424.111,244.43 431.023,259.868 437.936,275.14 444.849,290.189 451.761,304.965 458.674,319.429 465.587,333.549 472.499,347.3 479.412,360.664 486.325,373.628 
  493.238,386.18 500.15,398.317 507.063,410.035 513.976,421.334 520.888,432.218 527.801,442.691 534.714,452.757 541.627,462.426 548.539,471.705 555.452,480.603 
  562.365,489.131 569.277,497.298 576.19,505.116 583.103,512.595 590.015,519.746 596.928,526.582 603.841,533.112 610.754,539.349 617.666,545.303 624.579,550.985 
  631.492,556.406 638.404,561.577 645.317,566.507 652.23,571.207 659.143,575.686 666.055,579.954 672.968,584.02 679.881,587.892 686.793,591.58 693.706,595.091 
  700.619,598.434 707.532,601.616 714.444,604.644 721.357,607.525 728.27,610.266 735.182,612.875 742.095,615.356 749.008,617.715 755.92,619.96 762.833,622.094 
  769.746,624.124 776.659,626.054 783.571,627.888 790.484,629.633 797.397,631.291 804.309,632.867 811.222,634.365 818.135,635.789 825.048,637.143 831.96,638.429 
  838.873,639.652 845.786,640.813 852.698,641.917 859.611,642.966 866.524,643.963 873.436,644.91 880.349,645.81 887.262,646.664 894.175,647.477 901.087,648.248 
  908,648.981 914.913,649.678 921.825,650.339 928.738,650.968 935.651,651.565 942.564,652.132 949.476,652.671 956.389,653.182 963.302,653.668 970.214,654.13 
  977.127,654.569 984.04,654.985 990.953,655.381 997.865,655.756 1004.78,656.113 1011.69,656.452 1018.6,656.774 1025.52,657.08 1032.43,657.371 1039.34,657.646 
  1046.25,657.908 1053.17,658.157 1060.08,658.394 1066.99,658.618 1073.91,658.831 1080.82,659.034 1087.73,659.226 1094.64,659.409 1101.56,659.582 1108.47,659.747 
  1115.38,659.903 1122.29,660.052 1129.21,660.193 1136.12,660.327 1143.03,660.454 1149.94,660.575 1156.86,660.689 1163.77,660.798 1170.68,660.902 1177.6,661 
  1184.51,661.093 1191.42,661.182 1198.33,661.266 1205.25,661.346 1212.16,661.422 1219.07,661.494 1225.98,661.563 1232.9,661.628 1239.81,661.689 1246.72,661.748 
  1253.64,661.804 1260.55,661.857 1267.46,661.907 1274.37,661.955 1281.29,662 1288.2,662.043 1295.11,662.084 1302.02,662.122 1308.94,662.159 1315.85,662.194 
  1322.76,662.228 1329.68,662.259 1336.59,662.289 1343.5,662.317 1350.41,662.344 1357.33,662.37 1364.24,662.394 1371.15,662.418 1378.06,662.44 1384.98,662.46 
  1391.89,662.48 1398.8,662.499 1405.71,662.517 1412.63,662.534 1419.54,662.55 1426.45,662.565 1433.37,662.58 1440.28,662.594 1447.19,662.607 1454.1,662.619 
  1461.02,662.631 1467.93,662.642 1474.84,662.653 1481.75,662.663 1488.67,662.673 1495.58,662.682 1502.49,662.69 1509.41,662.699 1516.32,662.706 1523.23,662.714 
  1530.14,662.721 1537.06,662.728 1543.97,662.734 1550.88,662.74 1557.79,662.746 1564.71,662.751 1571.62,662.756 1578.53,662.761 1585.45,662.766 1592.36,662.77 
  1599.27,662.775 1606.18,662.779 1613.1,662.782 1620.01,662.786 1626.92,662.789 1633.83,662.793 1640.75,662.796 1647.66,662.799 1654.57,662.801 1661.49,662.804 
  1668.4,662.807 1675.31,662.809 1682.22,662.811 1689.14,662.813 1696.05,662.815 1702.96,662.817 1709.87,662.819 1716.79,662.821 1723.7,662.823 1730.61,662.824 
  1737.52,662.826 1744.44,662.827 1751.35,662.828 1758.26,662.83 1765.18,662.831 1772.09,662.832 1779,662.833 1785.91,662.834 1792.83,662.835 1799.74,662.836 
  1806.65,662.837 1813.56,662.838 1820.48,662.839 1827.39,662.839 1834.3,662.84 1841.22,662.841 1848.13,662.841 1855.04,662.842 1861.95,662.843 1868.87,662.843 
  1875.78,662.844 1882.69,662.844 1889.6,662.845 1896.52,662.845 1903.43,662.846 1910.34,662.846 1917.26,662.846 1924.17,662.847 1931.08,662.847 1937.99,662.848 
  1944.91,662.848 1951.82,662.848 1958.73,662.848 1965.64,662.849 1972.56,662.849 1979.47,662.849 1986.38,662.849 1993.3,662.85 2000.21,662.85 2007.12,662.85 
  2014.03,662.85 2020.95,662.85 2027.86,662.851 2034.77,662.851 2041.68,662.851 2048.6,662.851 2055.51,662.851 2062.42,662.851 2069.33,662.851 2076.25,662.852 
  2083.16,662.852 2090.07,662.852 2096.99,662.852 2103.9,662.852 2110.81,662.852 2117.72,662.852 2124.64,662.852 2131.55,662.852 2138.46,662.852 2145.37,662.852 
  2152.29,662.853 2159.2,662.853 2166.11,662.853 2173.03,662.853 2179.94,662.853 2186.85,662.853 2193.76,662.853 2200.68,662.853 2207.59,662.853 2214.5,662.853 
  2221.41,662.853 2228.33,662.853 2235.24,662.853 2242.15,662.853 2249.07,662.853 2255.98,662.853 2262.89,662.853 2269.8,662.853 2276.72,662.853 2283.63,662.853 
  2290.54,662.853 
  "/>
<polyline clip-path="url(#clip112)" style="stroke:#e26f46; stroke-linecap:butt; stroke-linejoin:round; stroke-width:4; stroke-opacity:1; fill:none" points="
  216.729,1445.72 223.642,1205.99 230.555,1001.61 237.467,828.022 244.38,681.262 251.293,557.847 258.206,454.724 265.118,369.223 272.031,299.004 278.944,242.016 
  285.856,196.467 292.769,160.787 299.682,133.603 306.594,113.714 313.507,100.072 320.42,91.7589 327.333,87.9763 334.245,88.0263 341.158,91.301 348.071,97.2716 
  354.983,105.478 361.896,115.521 368.809,127.054 375.722,139.778 382.634,153.434 389.547,167.798 396.46,182.68 403.372,197.914 410.285,213.36 417.198,228.899 
  424.111,244.43 431.023,259.868 437.936,275.14 444.849,290.189 451.761,304.965 458.674,319.429 465.587,333.549 472.499,347.3 479.412,360.664 486.325,373.628 
  493.238,386.18 500.15,398.317 507.063,410.035 513.976,421.334 520.888,432.218 527.801,442.691 534.714,452.757 541.627,462.426 548.539,471.705 555.452,480.603 
  562.365,489.131 569.277,497.298 576.19,505.116 583.103,512.595 590.015,519.746 596.928,526.582 603.841,533.112 610.754,539.349 617.666,545.303 624.579,550.985 
  631.492,556.406 638.404,561.577 645.317,566.507 652.23,571.207 659.143,575.686 666.055,579.954 672.968,584.02 679.881,587.892 686.793,591.58 693.706,595.091 
  700.619,598.434 707.532,601.616 714.444,604.644 721.357,607.525 728.27,610.266 735.182,612.875 742.095,615.356 749.008,617.715 755.92,619.96 762.833,622.094 
  769.746,624.124 776.659,626.054 783.571,627.888 790.484,629.633 797.397,631.291 804.309,632.867 811.222,634.365 818.135,635.789 825.048,637.143 831.96,638.429 
  838.873,639.652 845.786,640.813 852.698,641.917 859.611,642.966 866.524,643.963 873.436,644.91 880.349,645.81 887.262,646.664 894.175,647.477 901.087,648.248 
  908,648.981 914.913,649.678 921.825,650.339 928.738,650.968 935.651,651.565 942.564,652.132 949.476,652.671 956.389,653.182 963.302,653.668 970.214,654.13 
  977.127,654.569 984.04,654.985 990.953,655.381 997.865,655.756 1004.78,656.113 1011.69,656.452 1018.6,656.774 1025.52,657.08 1032.43,657.371 1039.34,657.646 
  1046.25,657.908 1053.17,658.157 1060.08,658.394 1066.99,658.618 1073.91,658.831 1080.82,659.034 1087.73,659.226 1094.64,659.409 1101.56,659.582 1108.47,659.747 
  1115.38,659.903 1122.29,660.052 1129.21,660.193 1136.12,660.327 1143.03,660.454 1149.94,660.575 1156.86,660.689 1163.77,660.798 1170.68,660.902 1177.6,661 
  1184.51,661.093 1191.42,661.182 1198.33,661.266 1205.25,661.346 1212.16,661.422 1219.07,661.494 1225.98,661.563 1232.9,661.628 1239.81,661.689 1246.72,661.748 
  1253.64,661.804 1260.55,661.857 1267.46,661.907 1274.37,661.955 1281.29,662 1288.2,662.043 1295.11,662.084 1302.02,662.122 1308.94,662.159 1315.85,662.194 
  1322.76,662.228 1329.68,662.259 1336.59,662.289 1343.5,662.317 1350.41,662.344 1357.33,662.37 1364.24,662.394 1371.15,662.418 1378.06,662.44 1384.98,662.46 
  1391.89,662.48 1398.8,662.499 1405.71,662.517 1412.63,662.534 1419.54,662.55 1426.45,662.565 1433.37,662.58 1440.28,662.594 1447.19,662.607 1454.1,662.619 
  1461.02,662.631 1467.93,662.642 1474.84,662.653 1481.75,662.663 1488.67,662.673 1495.58,662.682 1502.49,662.69 1509.41,662.699 1516.32,662.706 1523.23,662.714 
  1530.14,662.721 1537.06,662.728 1543.97,662.734 1550.88,662.74 1557.79,662.746 1564.71,662.751 1571.62,662.756 1578.53,662.761 1585.45,662.766 1592.36,662.77 
  1599.27,662.775 1606.18,662.779 1613.1,662.782 1620.01,662.786 1626.92,662.789 1633.83,662.793 1640.75,662.796 1647.66,662.799 1654.57,662.801 1661.49,662.804 
  1668.4,662.807 1675.31,662.809 1682.22,662.811 1689.14,662.813 1696.05,662.815 1702.96,662.817 1709.87,662.819 1716.79,662.821 1723.7,662.823 1730.61,662.824 
  1737.52,662.826 1744.44,662.827 1751.35,662.828 1758.26,662.83 1765.18,662.831 1772.09,662.832 1779,662.833 1785.91,662.834 1792.83,662.835 1799.74,662.836 
  1806.65,662.837 1813.56,662.838 1820.48,662.839 1827.39,662.839 1834.3,662.84 1841.22,662.841 1848.13,662.841 1855.04,662.842 1861.95,662.843 1868.87,662.843 
  1875.78,662.844 1882.69,662.844 1889.6,662.845 1896.52,662.845 1903.43,662.846 1910.34,662.846 1917.26,662.846 1924.17,662.847 1931.08,662.847 1937.99,662.848 
  1944.91,662.848 1951.82,662.848 1958.73,662.848 1965.64,662.849 1972.56,662.849 1979.47,662.849 1986.38,662.849 1993.3,662.85 2000.21,662.85 2007.12,662.85 
  2014.03,662.85 2020.95,662.85 2027.86,662.851 2034.77,662.851 2041.68,662.851 2048.6,662.851 2055.51,662.851 2062.42,662.851 2069.33,662.851 2076.25,662.852 
  2083.16,662.852 2090.07,662.852 2096.99,662.852 2103.9,662.852 2110.81,662.852 2117.72,662.852 2124.64,662.852 2131.55,662.852 2138.46,662.852 2145.37,662.852 
  2152.29,662.853 2159.2,662.853 2166.11,662.853 2173.03,662.853 2179.94,662.853 2186.85,662.853 2193.76,662.853 2200.68,662.853 2207.59,662.853 2214.5,662.853 
  2221.41,662.853 2228.33,662.853 2235.24,662.853 2242.15,662.853 2249.07,662.853 2255.98,662.853 2262.89,662.853 2269.8,662.853 2276.72,662.853 2283.63,662.853 
  2290.54,662.853 
  "/>
<path clip-path="url(#clip110)" d="
M1882.39 250.738 L2279.48 250.738 L2279.48 95.2176 L1882.39 95.2176  Z
  " fill="#ffffff" fill-rule="evenodd" fill-opacity="1"/>
<polyline clip-path="url(#clip110)" style="stroke:#000000; stroke-linecap:butt; stroke-linejoin:round; stroke-width:4; stroke-opacity:1; fill:none" points="
  1882.39,250.738 2279.48,250.738 2279.48,95.2176 1882.39,95.2176 1882.39,250.738 
  "/>
<polyline clip-path="url(#clip110)" style="stroke:#009af9; stroke-linecap:butt; stroke-linejoin:round; stroke-width:4; stroke-opacity:1; fill:none" points="
  1906.81,147.058 2053.36,147.058 
  "/>
<path clip-path="url(#clip110)" d="M2082.18 151.398 Q2082.18 156.097 2084.1 158.782 Q2086.05 161.444 2089.43 161.444 Q2092.81 161.444 2094.75 158.782 Q2096.7 156.097 2096.7 151.398 Q2096.7 146.699 2094.75 144.037 Q2092.81 141.352 2089.43 141.352 Q2086.05 141.352 2084.1 144.037 Q2082.18 146.699 2082.18 151.398 M2096.7 160.449 Q2095.35 162.763 2093.29 163.898 Q2091.26 165.009 2088.39 165.009 Q2083.69 165.009 2080.72 161.259 Q2077.79 157.509 2077.79 151.398 Q2077.79 145.287 2080.72 141.537 Q2083.69 137.787 2088.39 137.787 Q2091.26 137.787 2093.29 138.921 Q2095.35 140.032 2096.7 142.347 L2096.7 138.412 L2100.96 138.412 L2100.96 174.199 L2096.7 174.199 L2096.7 160.449 Z" fill="#000000" fill-rule="evenodd" fill-opacity="1" /><path clip-path="url(#clip110)" d="M2129.43 172.208 L2129.43 175.518 L2104.8 175.518 L2104.8 172.208 L2129.43 172.208 Z" fill="#000000" fill-rule="evenodd" fill-opacity="1" /><path clip-path="url(#clip110)" d="M2137.65 131.051 L2137.65 138.412 L2146.42 138.412 L2146.42 141.722 L2137.65 141.722 L2137.65 155.796 Q2137.65 158.967 2138.5 159.87 Q2139.38 160.773 2142.04 160.773 L2146.42 160.773 L2146.42 164.338 L2142.04 164.338 Q2137.11 164.338 2135.24 162.509 Q2133.36 160.657 2133.36 155.796 L2133.36 141.722 L2130.24 141.722 L2130.24 138.412 L2133.36 138.412 L2133.36 131.051 L2137.65 131.051 Z" fill="#000000" fill-rule="evenodd" fill-opacity="1" /><path clip-path="url(#clip110)" d="M2152.02 138.412 L2156.28 138.412 L2156.28 164.338 L2152.02 164.338 L2152.02 138.412 M2152.02 128.319 L2156.28 128.319 L2156.28 133.713 L2152.02 133.713 L2152.02 128.319 Z" fill="#000000" fill-rule="evenodd" fill-opacity="1" /><path clip-path="url(#clip110)" d="M2165.19 128.319 L2169.45 128.319 L2169.45 164.338 L2165.19 164.338 L2165.19 128.319 Z" fill="#000000" fill-rule="evenodd" fill-opacity="1" /><path clip-path="url(#clip110)" d="M2195.42 142.347 L2195.42 128.319 L2199.68 128.319 L2199.68 164.338 L2195.42 164.338 L2195.42 160.449 Q2194.08 162.763 2192.02 163.898 Q2189.98 165.009 2187.11 165.009 Q2182.41 165.009 2179.45 161.259 Q2176.51 157.509 2176.51 151.398 Q2176.51 145.287 2179.45 141.537 Q2182.41 137.787 2187.11 137.787 Q2189.98 137.787 2192.02 138.921 Q2194.08 140.032 2195.42 142.347 M2180.91 151.398 Q2180.91 156.097 2182.83 158.782 Q2184.78 161.444 2188.15 161.444 Q2191.53 161.444 2193.48 158.782 Q2195.42 156.097 2195.42 151.398 Q2195.42 146.699 2193.48 144.037 Q2191.53 141.352 2188.15 141.352 Q2184.78 141.352 2182.83 144.037 Q2180.91 146.699 2180.91 151.398 Z" fill="#000000" fill-rule="evenodd" fill-opacity="1" /><path clip-path="url(#clip110)" d="M2230.63 150.31 L2230.63 152.393 L2211.05 152.393 Q2211.33 156.791 2213.69 159.106 Q2216.07 161.398 2220.31 161.398 Q2222.76 161.398 2225.05 160.796 Q2227.37 160.194 2229.64 158.99 L2229.64 163.018 Q2227.34 163.99 2224.94 164.5 Q2222.53 165.009 2220.05 165.009 Q2213.85 165.009 2210.21 161.398 Q2206.6 157.787 2206.6 151.629 Q2206.6 145.264 2210.03 141.537 Q2213.48 137.787 2219.31 137.787 Q2224.54 137.787 2227.58 141.166 Q2230.63 144.523 2230.63 150.31 M2226.37 149.06 Q2226.33 145.565 2224.4 143.481 Q2222.51 141.398 2219.36 141.398 Q2215.79 141.398 2213.64 143.412 Q2211.51 145.426 2211.19 149.083 L2226.37 149.06 Z" fill="#000000" fill-rule="evenodd" fill-opacity="1" /><polyline clip-path="url(#clip110)" style="stroke:#e26f46; stroke-linecap:butt; stroke-linejoin:round; stroke-width:4; stroke-opacity:1; fill:none" points="
  1906.81,198.898 2053.36,198.898 
  "/>
<path clip-path="url(#clip110)" d="M2082.18 203.238 Q2082.18 207.937 2084.1 210.622 Q2086.05 213.284 2089.43 213.284 Q2092.81 213.284 2094.75 210.622 Q2096.7 207.937 2096.7 203.238 Q2096.7 198.539 2094.75 195.877 Q2092.81 193.192 2089.43 193.192 Q2086.05 193.192 2084.1 195.877 Q2082.18 198.539 2082.18 203.238 M2096.7 212.289 Q2095.35 214.603 2093.29 215.738 Q2091.26 216.849 2088.39 216.849 Q2083.69 216.849 2080.72 213.099 Q2077.79 209.349 2077.79 203.238 Q2077.79 197.127 2080.72 193.377 Q2083.69 189.627 2088.39 189.627 Q2091.26 189.627 2093.29 190.761 Q2095.35 191.872 2096.7 194.187 L2096.7 190.252 L2100.96 190.252 L2100.96 226.039 L2096.7 226.039 L2096.7 212.289 Z" fill="#000000" fill-rule="evenodd" fill-opacity="1" /></svg>
