<?xml version="1.0" encoding="utf-8"?>
<svg xmlns="http://www.w3.org/2000/svg" xmlns:xlink="http://www.w3.org/1999/xlink" width="600" height="400" viewBox="0 0 2400 1600">
<defs>
  <clipPath id="clip300">
    <rect x="0" y="0" width="2400" height="1600"/>
  </clipPath>
</defs>
<path clip-path="url(#clip300)" d="
M0 1600 L2400 1600 L2400 0 L0 0  Z
  " fill="#ffffff" fill-rule="evenodd" fill-opacity="1"/>
<defs>
  <clipPath id="clip301">
    <rect x="480" y="0" width="1681" height="1600"/>
  </clipPath>
</defs>
<path clip-path="url(#clip300)" d="
M184.191 1486.45 L2352.76 1486.45 L2352.76 47.2441 L184.191 47.2441  Z
  " fill="#ffffff" fill-rule="evenodd" fill-opacity="1"/>
<defs>
  <clipPath id="clip302">
    <rect x="184" y="47" width="2170" height="1440"/>
  </clipPath>
</defs>
<polyline clip-path="url(#clip302)" style="stroke:#000000; stroke-linecap:butt; stroke-linejoin:round; stroke-width:2; stroke-opacity:0.1; fill:none" points="
  245.565,1486.45 245.565,47.2441 
  "/>
<polyline clip-path="url(#clip302)" style="stroke:#000000; stroke-linecap:butt; stroke-linejoin:round; stroke-width:2; stroke-opacity:0.1; fill:none" points="
  757.019,1486.45 757.019,47.2441 
  "/>
<polyline clip-path="url(#clip302)" style="stroke:#000000; stroke-linecap:butt; stroke-linejoin:round; stroke-width:2; stroke-opacity:0.1; fill:none" points="
  1268.47,1486.45 1268.47,47.2441 
  "/>
<polyline clip-path="url(#clip302)" style="stroke:#000000; stroke-linecap:butt; stroke-linejoin:round; stroke-width:2; stroke-opacity:0.1; fill:none" points="
  1779.93,1486.45 1779.93,47.2441 
  "/>
<polyline clip-path="url(#clip302)" style="stroke:#000000; stroke-linecap:butt; stroke-linejoin:round; stroke-width:2; stroke-opacity:0.1; fill:none" points="
  2291.38,1486.45 2291.38,47.2441 
  "/>
<polyline clip-path="url(#clip300)" style="stroke:#000000; stroke-linecap:butt; stroke-linejoin:round; stroke-width:4; stroke-opacity:1; fill:none" points="
  184.191,1486.45 2352.76,1486.45 
  "/>
<polyline clip-path="url(#clip300)" style="stroke:#000000; stroke-linecap:butt; stroke-linejoin:round; stroke-width:4; stroke-opacity:1; fill:none" points="
  245.565,1486.45 245.565,1467.55 
  "/>
<polyline clip-path="url(#clip300)" style="stroke:#000000; stroke-linecap:butt; stroke-linejoin:round; stroke-width:4; stroke-opacity:1; fill:none" points="
  757.019,1486.45 757.019,1467.55 
  "/>
<polyline clip-path="url(#clip300)" style="stroke:#000000; stroke-linecap:butt; stroke-linejoin:round; stroke-width:4; stroke-opacity:1; fill:none" points="
  1268.47,1486.45 1268.47,1467.55 
  "/>
<polyline clip-path="url(#clip300)" style="stroke:#000000; stroke-linecap:butt; stroke-linejoin:round; stroke-width:4; stroke-opacity:1; fill:none" points="
  1779.93,1486.45 1779.93,1467.55 
  "/>
<polyline clip-path="url(#clip300)" style="stroke:#000000; stroke-linecap:butt; stroke-linejoin:round; stroke-width:4; stroke-opacity:1; fill:none" points="
  2291.38,1486.45 2291.38,1467.55 
  "/>
<path clip-path="url(#clip300)" d="M222.95 1515.64 Q219.338 1515.64 217.51 1519.2 Q215.704 1522.75 215.704 1529.87 Q215.704 1536.98 217.51 1540.55 Q219.338 1544.09 222.95 1544.09 Q226.584 1544.09 228.389 1540.55 Q230.218 1536.98 230.218 1529.87 Q230.218 1522.75 228.389 1519.2 Q226.584 1515.64 222.95 1515.64 M222.95 1511.93 Q228.76 1511.93 231.815 1516.54 Q234.894 1521.12 234.894 1529.87 Q234.894 1538.6 231.815 1543.21 Q228.76 1547.79 222.95 1547.79 Q217.139 1547.79 214.061 1543.21 Q211.005 1538.6 211.005 1529.87 Q211.005 1521.12 214.061 1516.54 Q217.139 1511.93 222.95 1511.93 Z" fill="#000000" fill-rule="evenodd" fill-opacity="1" /><path clip-path="url(#clip300)" d="M243.111 1541.24 L247.996 1541.24 L247.996 1547.12 L243.111 1547.12 L243.111 1541.24 Z" fill="#000000" fill-rule="evenodd" fill-opacity="1" /><path clip-path="url(#clip300)" d="M268.181 1515.64 Q264.57 1515.64 262.741 1519.2 Q260.935 1522.75 260.935 1529.87 Q260.935 1536.98 262.741 1540.55 Q264.57 1544.09 268.181 1544.09 Q271.815 1544.09 273.621 1540.55 Q275.449 1536.98 275.449 1529.87 Q275.449 1522.75 273.621 1519.2 Q271.815 1515.64 268.181 1515.64 M268.181 1511.93 Q273.991 1511.93 277.046 1516.54 Q280.125 1521.12 280.125 1529.87 Q280.125 1538.6 277.046 1543.21 Q273.991 1547.79 268.181 1547.79 Q262.371 1547.79 259.292 1543.21 Q256.236 1538.6 256.236 1529.87 Q256.236 1521.12 259.292 1516.54 Q262.371 1511.93 268.181 1511.93 Z" fill="#000000" fill-rule="evenodd" fill-opacity="1" /><path clip-path="url(#clip300)" d="M734.901 1515.64 Q731.29 1515.64 729.462 1519.2 Q727.656 1522.75 727.656 1529.87 Q727.656 1536.98 729.462 1540.55 Q731.29 1544.09 734.901 1544.09 Q738.536 1544.09 740.341 1540.55 Q742.17 1536.98 742.17 1529.87 Q742.17 1522.75 740.341 1519.2 Q738.536 1515.64 734.901 1515.64 M734.901 1511.93 Q740.711 1511.93 743.767 1516.54 Q746.846 1521.12 746.846 1529.87 Q746.846 1538.6 743.767 1543.21 Q740.711 1547.79 734.901 1547.79 Q729.091 1547.79 726.012 1543.21 Q722.957 1538.6 722.957 1529.87 Q722.957 1521.12 726.012 1516.54 Q729.091 1511.93 734.901 1511.93 Z" fill="#000000" fill-rule="evenodd" fill-opacity="1" /><path clip-path="url(#clip300)" d="M755.063 1541.24 L759.947 1541.24 L759.947 1547.12 L755.063 1547.12 L755.063 1541.24 Z" fill="#000000" fill-rule="evenodd" fill-opacity="1" /><path clip-path="url(#clip300)" d="M770.179 1512.56 L788.535 1512.56 L788.535 1516.5 L774.461 1516.5 L774.461 1524.97 Q775.48 1524.62 776.498 1524.46 Q777.517 1524.27 778.535 1524.27 Q784.322 1524.27 787.702 1527.44 Q791.082 1530.62 791.082 1536.03 Q791.082 1541.61 787.609 1544.71 Q784.137 1547.79 777.818 1547.79 Q775.642 1547.79 773.373 1547.42 Q771.128 1547.05 768.721 1546.31 L768.721 1541.61 Q770.804 1542.74 773.026 1543.3 Q775.248 1543.86 777.725 1543.86 Q781.73 1543.86 784.068 1541.75 Q786.406 1539.64 786.406 1536.03 Q786.406 1532.42 784.068 1530.31 Q781.73 1528.21 777.725 1528.21 Q775.85 1528.21 773.975 1528.62 Q772.123 1529.04 770.179 1529.92 L770.179 1512.56 Z" fill="#000000" fill-rule="evenodd" fill-opacity="1" /><path clip-path="url(#clip300)" d="M1235.63 1543.18 L1243.27 1543.18 L1243.27 1516.82 L1234.95 1518.49 L1234.95 1514.23 L1243.22 1512.56 L1247.89 1512.56 L1247.89 1543.18 L1255.53 1543.18 L1255.53 1547.12 L1235.63 1547.12 L1235.63 1543.18 Z" fill="#000000" fill-rule="evenodd" fill-opacity="1" /><path clip-path="url(#clip300)" d="M1264.98 1541.24 L1269.86 1541.24 L1269.86 1547.12 L1264.98 1547.12 L1264.98 1541.24 Z" fill="#000000" fill-rule="evenodd" fill-opacity="1" /><path clip-path="url(#clip300)" d="M1290.05 1515.64 Q1286.44 1515.64 1284.61 1519.2 Q1282.8 1522.75 1282.8 1529.87 Q1282.8 1536.98 1284.61 1540.55 Q1286.44 1544.09 1290.05 1544.09 Q1293.68 1544.09 1295.49 1540.55 Q1297.32 1536.98 1297.32 1529.87 Q1297.32 1522.75 1295.49 1519.2 Q1293.68 1515.64 1290.05 1515.64 M1290.05 1511.93 Q1295.86 1511.93 1298.91 1516.54 Q1301.99 1521.12 1301.99 1529.87 Q1301.99 1538.6 1298.91 1543.21 Q1295.86 1547.79 1290.05 1547.79 Q1284.24 1547.79 1281.16 1543.21 Q1278.1 1538.6 1278.1 1529.87 Q1278.1 1521.12 1281.16 1516.54 Q1284.24 1511.93 1290.05 1511.93 Z" fill="#000000" fill-rule="evenodd" fill-opacity="1" /><path clip-path="url(#clip300)" d="M1747.58 1543.18 L1755.22 1543.18 L1755.22 1516.82 L1746.91 1518.49 L1746.91 1514.23 L1755.17 1512.56 L1759.85 1512.56 L1759.85 1543.18 L1767.49 1543.18 L1767.49 1547.12 L1747.58 1547.12 L1747.58 1543.18 Z" fill="#000000" fill-rule="evenodd" fill-opacity="1" /><path clip-path="url(#clip300)" d="M1776.93 1541.24 L1781.81 1541.24 L1781.81 1547.12 L1776.93 1547.12 L1776.93 1541.24 Z" fill="#000000" fill-rule="evenodd" fill-opacity="1" /><path clip-path="url(#clip300)" d="M1792.05 1512.56 L1810.4 1512.56 L1810.4 1516.5 L1796.33 1516.5 L1796.33 1524.97 Q1797.35 1524.62 1798.36 1524.46 Q1799.38 1524.27 1800.4 1524.27 Q1806.19 1524.27 1809.57 1527.44 Q1812.95 1530.62 1812.95 1536.03 Q1812.95 1541.61 1809.48 1544.71 Q1806 1547.79 1799.68 1547.79 Q1797.51 1547.79 1795.24 1547.42 Q1792.99 1547.05 1790.59 1546.31 L1790.59 1541.61 Q1792.67 1542.74 1794.89 1543.3 Q1797.11 1543.86 1799.59 1543.86 Q1803.6 1543.86 1805.93 1541.75 Q1808.27 1539.64 1808.27 1536.03 Q1808.27 1532.42 1805.93 1530.31 Q1803.6 1528.21 1799.59 1528.21 Q1797.72 1528.21 1795.84 1528.62 Q1793.99 1529.04 1792.05 1529.92 L1792.05 1512.56 Z" fill="#000000" fill-rule="evenodd" fill-opacity="1" /><path clip-path="url(#clip300)" d="M2262.62 1543.18 L2278.94 1543.18 L2278.94 1547.12 L2257 1547.12 L2257 1543.18 Q2259.66 1540.43 2264.24 1535.8 Q2268.85 1531.15 2270.03 1529.81 Q2272.27 1527.28 2273.15 1525.55 Q2274.06 1523.79 2274.06 1522.1 Q2274.06 1519.34 2272.11 1517.61 Q2270.19 1515.87 2267.09 1515.87 Q2264.89 1515.87 2262.43 1516.63 Q2260 1517.4 2257.23 1518.95 L2257.23 1514.23 Q2260.05 1513.09 2262.5 1512.51 Q2264.96 1511.93 2266.99 1511.93 Q2272.37 1511.93 2275.56 1514.62 Q2278.75 1517.31 2278.75 1521.8 Q2278.75 1523.93 2277.94 1525.85 Q2277.16 1527.74 2275.05 1530.34 Q2274.47 1531.01 2271.37 1534.23 Q2268.27 1537.42 2262.62 1543.18 Z" fill="#000000" fill-rule="evenodd" fill-opacity="1" /><path clip-path="url(#clip300)" d="M2288.75 1541.24 L2293.64 1541.24 L2293.64 1547.12 L2288.75 1547.12 L2288.75 1541.24 Z" fill="#000000" fill-rule="evenodd" fill-opacity="1" /><path clip-path="url(#clip300)" d="M2313.82 1515.64 Q2310.21 1515.64 2308.38 1519.2 Q2306.58 1522.75 2306.58 1529.87 Q2306.58 1536.98 2308.38 1540.55 Q2310.21 1544.09 2313.82 1544.09 Q2317.46 1544.09 2319.26 1540.55 Q2321.09 1536.98 2321.09 1529.87 Q2321.09 1522.75 2319.26 1519.2 Q2317.46 1515.64 2313.82 1515.64 M2313.82 1511.93 Q2319.63 1511.93 2322.69 1516.54 Q2325.77 1521.12 2325.77 1529.87 Q2325.77 1538.6 2322.69 1543.21 Q2319.63 1547.79 2313.82 1547.79 Q2308.01 1547.79 2304.93 1543.21 Q2301.88 1538.6 2301.88 1529.87 Q2301.88 1521.12 2304.93 1516.54 Q2308.01 1511.93 2313.82 1511.93 Z" fill="#000000" fill-rule="evenodd" fill-opacity="1" /><polyline clip-path="url(#clip302)" style="stroke:#000000; stroke-linecap:butt; stroke-linejoin:round; stroke-width:2; stroke-opacity:0.1; fill:none" points="
  184.191,1445.72 2352.76,1445.72 
  "/>
<polyline clip-path="url(#clip302)" style="stroke:#000000; stroke-linecap:butt; stroke-linejoin:round; stroke-width:2; stroke-opacity:0.1; fill:none" points="
  184.191,1106.28 2352.76,1106.28 
  "/>
<polyline clip-path="url(#clip302)" style="stroke:#000000; stroke-linecap:butt; stroke-linejoin:round; stroke-width:2; stroke-opacity:0.1; fill:none" points="
  184.191,766.846 2352.76,766.846 
  "/>
<polyline clip-path="url(#clip302)" style="stroke:#000000; stroke-linecap:butt; stroke-linejoin:round; stroke-width:2; stroke-opacity:0.1; fill:none" points="
  184.191,427.411 2352.76,427.411 
  "/>
<polyline clip-path="url(#clip302)" style="stroke:#000000; stroke-linecap:butt; stroke-linejoin:round; stroke-width:2; stroke-opacity:0.1; fill:none" points="
  184.191,87.9763 2352.76,87.9763 
  "/>
<polyline clip-path="url(#clip300)" style="stroke:#000000; stroke-linecap:butt; stroke-linejoin:round; stroke-width:4; stroke-opacity:1; fill:none" points="
  184.191,1486.45 184.191,47.2441 
  "/>
<polyline clip-path="url(#clip300)" style="stroke:#000000; stroke-linecap:butt; stroke-linejoin:round; stroke-width:4; stroke-opacity:1; fill:none" points="
  184.191,1445.72 203.088,1445.72 
  "/>
<polyline clip-path="url(#clip300)" style="stroke:#000000; stroke-linecap:butt; stroke-linejoin:round; stroke-width:4; stroke-opacity:1; fill:none" points="
  184.191,1106.28 203.088,1106.28 
  "/>
<polyline clip-path="url(#clip300)" style="stroke:#000000; stroke-linecap:butt; stroke-linejoin:round; stroke-width:4; stroke-opacity:1; fill:none" points="
  184.191,766.846 203.088,766.846 
  "/>
<polyline clip-path="url(#clip300)" style="stroke:#000000; stroke-linecap:butt; stroke-linejoin:round; stroke-width:4; stroke-opacity:1; fill:none" points="
  184.191,427.411 203.088,427.411 
  "/>
<polyline clip-path="url(#clip300)" style="stroke:#000000; stroke-linecap:butt; stroke-linejoin:round; stroke-width:4; stroke-opacity:1; fill:none" points="
  184.191,87.9763 203.088,87.9763 
  "/>
<path clip-path="url(#clip300)" d="M91.0151 1431.51 Q87.404 1431.51 85.5753 1435.08 Q83.7697 1438.62 83.7697 1445.75 Q83.7697 1452.86 85.5753 1456.42 Q87.404 1459.96 91.0151 1459.96 Q94.6493 1459.96 96.4548 1456.42 Q98.2835 1452.86 98.2835 1445.75 Q98.2835 1438.62 96.4548 1435.08 Q94.6493 1431.51 91.0151 1431.51 M91.0151 1427.81 Q96.8252 1427.81 99.8808 1432.42 Q102.959 1437 102.959 1445.75 Q102.959 1454.48 99.8808 1459.08 Q96.8252 1463.67 91.0151 1463.67 Q85.2049 1463.67 82.1262 1459.08 Q79.0707 1454.48 79.0707 1445.75 Q79.0707 1437 82.1262 1432.42 Q85.2049 1427.81 91.0151 1427.81 Z" fill="#000000" fill-rule="evenodd" fill-opacity="1" /><path clip-path="url(#clip300)" d="M111.177 1457.12 L116.061 1457.12 L116.061 1463 L111.177 1463 L111.177 1457.12 Z" fill="#000000" fill-rule="evenodd" fill-opacity="1" /><path clip-path="url(#clip300)" d="M136.246 1431.51 Q132.635 1431.51 130.807 1435.08 Q129.001 1438.62 129.001 1445.75 Q129.001 1452.86 130.807 1456.42 Q132.635 1459.96 136.246 1459.96 Q139.881 1459.96 141.686 1456.42 Q143.515 1452.86 143.515 1445.75 Q143.515 1438.62 141.686 1435.08 Q139.881 1431.51 136.246 1431.51 M136.246 1427.81 Q142.056 1427.81 145.112 1432.42 Q148.191 1437 148.191 1445.75 Q148.191 1454.48 145.112 1459.08 Q142.056 1463.67 136.246 1463.67 Q130.436 1463.67 127.357 1459.08 Q124.302 1454.48 124.302 1445.75 Q124.302 1437 127.357 1432.42 Q130.436 1427.81 136.246 1427.81 Z" fill="#000000" fill-rule="evenodd" fill-opacity="1" /><path clip-path="url(#clip300)" d="M86.0382 1119.63 L102.358 1119.63 L102.358 1123.56 L80.4133 1123.56 L80.4133 1119.63 Q83.0753 1116.87 87.6586 1112.24 Q92.2651 1107.59 93.4456 1106.25 Q95.691 1103.72 96.5706 1101.99 Q97.4734 1100.23 97.4734 1098.54 Q97.4734 1095.78 95.5289 1094.05 Q93.6076 1092.31 90.5058 1092.31 Q88.3067 1092.31 85.8531 1093.07 Q83.4225 1093.84 80.6447 1095.39 L80.6447 1090.67 Q83.4688 1089.53 85.9225 1088.95 Q88.3762 1088.38 90.4132 1088.38 Q95.7836 1088.38 98.978 1091.06 Q102.172 1093.75 102.172 1098.24 Q102.172 1100.37 101.362 1102.29 Q100.575 1104.19 98.4687 1106.78 Q97.89 1107.45 94.7882 1110.67 Q91.6864 1113.86 86.0382 1119.63 Z" fill="#000000" fill-rule="evenodd" fill-opacity="1" /><path clip-path="url(#clip300)" d="M112.172 1117.68 L117.057 1117.68 L117.057 1123.56 L112.172 1123.56 L112.172 1117.68 Z" fill="#000000" fill-rule="evenodd" fill-opacity="1" /><path clip-path="url(#clip300)" d="M127.288 1089 L145.644 1089 L145.644 1092.94 L131.57 1092.94 L131.57 1101.41 Q132.589 1101.06 133.607 1100.9 Q134.626 1100.71 135.644 1100.71 Q141.431 1100.71 144.811 1103.89 Q148.191 1107.06 148.191 1112.47 Q148.191 1118.05 144.718 1121.15 Q141.246 1124.23 134.927 1124.23 Q132.751 1124.23 130.482 1123.86 Q128.237 1123.49 125.83 1122.75 L125.83 1118.05 Q127.913 1119.19 130.135 1119.74 Q132.357 1120.3 134.834 1120.3 Q138.839 1120.3 141.177 1118.19 Q143.515 1116.08 143.515 1112.47 Q143.515 1108.86 141.177 1106.76 Q138.839 1104.65 134.834 1104.65 Q132.959 1104.65 131.084 1105.07 Q129.232 1105.48 127.288 1106.36 L127.288 1089 Z" fill="#000000" fill-rule="evenodd" fill-opacity="1" /><path clip-path="url(#clip300)" d="M81.0614 749.566 L99.4178 749.566 L99.4178 753.501 L85.3438 753.501 L85.3438 761.973 Q86.3623 761.626 87.3808 761.464 Q88.3993 761.279 89.4178 761.279 Q95.2049 761.279 98.5845 764.45 Q101.964 767.621 101.964 773.038 Q101.964 778.617 98.4919 781.719 Q95.0197 784.797 88.7003 784.797 Q86.5243 784.797 84.2558 784.427 Q82.0105 784.057 79.6031 783.316 L79.6031 778.617 Q81.6864 779.751 83.9086 780.307 Q86.1308 780.862 88.6077 780.862 Q92.6123 780.862 94.9502 778.756 Q97.2882 776.649 97.2882 773.038 Q97.2882 769.427 94.9502 767.321 Q92.6123 765.214 88.6077 765.214 Q86.7327 765.214 84.8577 765.631 Q83.0058 766.047 81.0614 766.927 L81.0614 749.566 Z" fill="#000000" fill-rule="evenodd" fill-opacity="1" /><path clip-path="url(#clip300)" d="M111.177 778.246 L116.061 778.246 L116.061 784.126 L111.177 784.126 L111.177 778.246 Z" fill="#000000" fill-rule="evenodd" fill-opacity="1" /><path clip-path="url(#clip300)" d="M136.246 752.645 Q132.635 752.645 130.807 756.209 Q129.001 759.751 129.001 766.881 Q129.001 773.987 130.807 777.552 Q132.635 781.094 136.246 781.094 Q139.881 781.094 141.686 777.552 Q143.515 773.987 143.515 766.881 Q143.515 759.751 141.686 756.209 Q139.881 752.645 136.246 752.645 M136.246 748.941 Q142.056 748.941 145.112 753.547 Q148.191 758.131 148.191 766.881 Q148.191 775.608 145.112 780.214 Q142.056 784.797 136.246 784.797 Q130.436 784.797 127.357 780.214 Q124.302 775.608 124.302 766.881 Q124.302 758.131 127.357 753.547 Q130.436 748.941 136.246 748.941 Z" fill="#000000" fill-rule="evenodd" fill-opacity="1" /><path clip-path="url(#clip300)" d="M80.8299 410.131 L103.052 410.131 L103.052 412.122 L90.5058 444.691 L85.6216 444.691 L97.4271 414.066 L80.8299 414.066 L80.8299 410.131 Z" fill="#000000" fill-rule="evenodd" fill-opacity="1" /><path clip-path="url(#clip300)" d="M112.172 438.812 L117.057 438.812 L117.057 444.691 L112.172 444.691 L112.172 438.812 Z" fill="#000000" fill-rule="evenodd" fill-opacity="1" /><path clip-path="url(#clip300)" d="M127.288 410.131 L145.644 410.131 L145.644 414.066 L131.57 414.066 L131.57 422.538 Q132.589 422.191 133.607 422.029 Q134.626 421.844 135.644 421.844 Q141.431 421.844 144.811 425.015 Q148.191 428.187 148.191 433.603 Q148.191 439.182 144.718 442.284 Q141.246 445.362 134.927 445.362 Q132.751 445.362 130.482 444.992 Q128.237 444.622 125.83 443.881 L125.83 439.182 Q127.913 440.316 130.135 440.872 Q132.357 441.427 134.834 441.427 Q138.839 441.427 141.177 439.321 Q143.515 437.214 143.515 433.603 Q143.515 429.992 141.177 427.886 Q138.839 425.779 134.834 425.779 Q132.959 425.779 131.084 426.196 Q129.232 426.613 127.288 427.492 L127.288 410.131 Z" fill="#000000" fill-rule="evenodd" fill-opacity="1" /><path clip-path="url(#clip300)" d="M51.6634 101.321 L59.3023 101.321 L59.3023 74.9555 L50.9921 76.6222 L50.9921 72.3629 L59.256 70.6963 L63.9319 70.6963 L63.9319 101.321 L71.5707 101.321 L71.5707 105.256 L51.6634 105.256 L51.6634 101.321 Z" fill="#000000" fill-rule="evenodd" fill-opacity="1" /><path clip-path="url(#clip300)" d="M91.0151 73.775 Q87.404 73.775 85.5753 77.3398 Q83.7697 80.8814 83.7697 88.011 Q83.7697 95.1174 85.5753 98.6822 Q87.404 102.224 91.0151 102.224 Q94.6493 102.224 96.4548 98.6822 Q98.2835 95.1174 98.2835 88.011 Q98.2835 80.8814 96.4548 77.3398 Q94.6493 73.775 91.0151 73.775 M91.0151 70.0713 Q96.8252 70.0713 99.8808 74.6777 Q102.959 79.261 102.959 88.011 Q102.959 96.7378 99.8808 101.344 Q96.8252 105.928 91.0151 105.928 Q85.2049 105.928 82.1262 101.344 Q79.0707 96.7378 79.0707 88.011 Q79.0707 79.261 82.1262 74.6777 Q85.2049 70.0713 91.0151 70.0713 Z" fill="#000000" fill-rule="evenodd" fill-opacity="1" /><path clip-path="url(#clip300)" d="M111.177 99.3767 L116.061 99.3767 L116.061 105.256 L111.177 105.256 L111.177 99.3767 Z" fill="#000000" fill-rule="evenodd" fill-opacity="1" /><path clip-path="url(#clip300)" d="M136.246 73.775 Q132.635 73.775 130.807 77.3398 Q129.001 80.8814 129.001 88.011 Q129.001 95.1174 130.807 98.6822 Q132.635 102.224 136.246 102.224 Q139.881 102.224 141.686 98.6822 Q143.515 95.1174 143.515 88.011 Q143.515 80.8814 141.686 77.3398 Q139.881 73.775 136.246 73.775 M136.246 70.0713 Q142.056 70.0713 145.112 74.6777 Q148.191 79.261 148.191 88.011 Q148.191 96.7378 145.112 101.344 Q142.056 105.928 136.246 105.928 Q130.436 105.928 127.357 101.344 Q124.302 96.7378 124.302 88.011 Q124.302 79.261 127.357 74.6777 Q130.436 70.0713 136.246 70.0713 Z" fill="#000000" fill-rule="evenodd" fill-opacity="1" /><polyline clip-path="url(#clip302)" style="stroke:#009af9; stroke-linecap:butt; stroke-linejoin:round; stroke-width:4; stroke-opacity:1; fill:none" points="
  245.565,87.9763 248.063,120.723 250.56,152.681 253.057,183.867 255.555,214.302 258.052,244.002 260.549,272.986 263.047,301.271 265.544,328.874 277.09,448.082 
  288.636,554.566 300.182,649.684 311.728,734.65 323.274,810.547 334.82,878.343 346.366,938.902 357.912,992.998 369.458,1041.32 381.004,1084.48 392.55,1123.04 
  404.096,1157.48 427.188,1215.73 450.28,1262.2 478.034,1305.81 505.789,1339.06 533.543,1364.4 561.298,1383.73 608.23,1406.54 655.162,1420.95 757.126,1436.58 
  851.127,1442.07 951.906,1444.35 1068.67,1445.28 1172.43,1445.56 1263.42,1445.65 1362.63,1445.69 1462.43,1445.71 1572.76,1445.71 1677.75,1445.71 1786.9,1445.72 
  1878.79,1445.72 1990.98,1445.72 2096.43,1445.72 2265.38,1445.72 2291.38,1445.72 
  "/>
<path clip-path="url(#clip300)" d="
M1987.09 198.898 L2280.47 198.898 L2280.47 95.2176 L1987.09 95.2176  Z
  " fill="#ffffff" fill-rule="evenodd" fill-opacity="1"/>
<polyline clip-path="url(#clip300)" style="stroke:#000000; stroke-linecap:butt; stroke-linejoin:round; stroke-width:4; stroke-opacity:1; fill:none" points="
  1987.09,198.898 2280.47,198.898 2280.47,95.2176 1987.09,95.2176 1987.09,198.898 
  "/>
<polyline clip-path="url(#clip300)" style="stroke:#009af9; stroke-linecap:butt; stroke-linejoin:round; stroke-width:4; stroke-opacity:1; fill:none" points="
  2011.18,147.058 2155.75,147.058 
  "/>
<path clip-path="url(#clip300)" d="M2193.69 166.745 Q2191.89 171.375 2190.17 172.787 Q2188.46 174.199 2185.59 174.199 L2182.19 174.199 L2182.19 170.634 L2184.69 170.634 Q2186.45 170.634 2187.42 169.8 Q2188.39 168.967 2189.57 165.865 L2190.34 163.921 L2179.85 138.412 L2184.36 138.412 L2192.47 158.689 L2200.57 138.412 L2205.08 138.412 L2193.69 166.745 Z" fill="#000000" fill-rule="evenodd" fill-opacity="1" /><path clip-path="url(#clip300)" d="M2212.37 160.402 L2220.01 160.402 L2220.01 134.037 L2211.7 135.703 L2211.7 131.444 L2219.97 129.778 L2224.64 129.778 L2224.64 160.402 L2232.28 160.402 L2232.28 164.338 L2212.37 164.338 L2212.37 160.402 Z" fill="#000000" fill-rule="evenodd" fill-opacity="1" /></svg>
