<?xml version="1.0" encoding="utf-8"?>
<svg xmlns="http://www.w3.org/2000/svg" xmlns:xlink="http://www.w3.org/1999/xlink" width="600" height="400" viewBox="0 0 2400 1600">
<defs>
  <clipPath id="clip460">
    <rect x="0" y="0" width="2400" height="1600"/>
  </clipPath>
</defs>
<path clip-path="url(#clip460)" d="
M0 1600 L2400 1600 L2400 0 L0 0  Z
  " fill="#ffffff" fill-rule="evenodd" fill-opacity="1"/>
<defs>
  <clipPath id="clip461">
    <rect x="480" y="0" width="1681" height="1600"/>
  </clipPath>
</defs>
<path clip-path="url(#clip460)" d="
M202.227 1423.18 L2352.76 1423.18 L2352.76 123.472 L202.227 123.472  Z
  " fill="#ffffff" fill-rule="evenodd" fill-opacity="1"/>
<defs>
  <clipPath id="clip462">
    <rect x="202" y="123" width="2152" height="1301"/>
  </clipPath>
</defs>
<polyline clip-path="url(#clip462)" style="stroke:#000000; stroke-linecap:butt; stroke-linejoin:round; stroke-width:2; stroke-opacity:0.1; fill:none" points="
  299.979,1423.18 299.979,123.472 
  "/>
<polyline clip-path="url(#clip462)" style="stroke:#000000; stroke-linecap:butt; stroke-linejoin:round; stroke-width:2; stroke-opacity:0.1; fill:none" points="
  788.735,1423.18 788.735,123.472 
  "/>
<polyline clip-path="url(#clip462)" style="stroke:#000000; stroke-linecap:butt; stroke-linejoin:round; stroke-width:2; stroke-opacity:0.1; fill:none" points="
  1277.49,1423.18 1277.49,123.472 
  "/>
<polyline clip-path="url(#clip462)" style="stroke:#000000; stroke-linecap:butt; stroke-linejoin:round; stroke-width:2; stroke-opacity:0.1; fill:none" points="
  1766.25,1423.18 1766.25,123.472 
  "/>
<polyline clip-path="url(#clip462)" style="stroke:#000000; stroke-linecap:butt; stroke-linejoin:round; stroke-width:2; stroke-opacity:0.1; fill:none" points="
  2255,1423.18 2255,123.472 
  "/>
<polyline clip-path="url(#clip460)" style="stroke:#000000; stroke-linecap:butt; stroke-linejoin:round; stroke-width:4; stroke-opacity:1; fill:none" points="
  202.227,1423.18 2352.76,1423.18 
  "/>
<polyline clip-path="url(#clip460)" style="stroke:#000000; stroke-linecap:butt; stroke-linejoin:round; stroke-width:4; stroke-opacity:1; fill:none" points="
  299.979,1423.18 299.979,1404.28 
  "/>
<polyline clip-path="url(#clip460)" style="stroke:#000000; stroke-linecap:butt; stroke-linejoin:round; stroke-width:4; stroke-opacity:1; fill:none" points="
  788.735,1423.18 788.735,1404.28 
  "/>
<polyline clip-path="url(#clip460)" style="stroke:#000000; stroke-linecap:butt; stroke-linejoin:round; stroke-width:4; stroke-opacity:1; fill:none" points="
  1277.49,1423.18 1277.49,1404.28 
  "/>
<polyline clip-path="url(#clip460)" style="stroke:#000000; stroke-linecap:butt; stroke-linejoin:round; stroke-width:4; stroke-opacity:1; fill:none" points="
  1766.25,1423.18 1766.25,1404.28 
  "/>
<polyline clip-path="url(#clip460)" style="stroke:#000000; stroke-linecap:butt; stroke-linejoin:round; stroke-width:4; stroke-opacity:1; fill:none" points="
  2255,1423.18 2255,1404.28 
  "/>
<path clip-path="url(#clip460)" d="M277.363 1452.37 Q273.752 1452.37 271.923 1455.94 Q270.118 1459.48 270.118 1466.61 Q270.118 1473.71 271.923 1477.28 Q273.752 1480.82 277.363 1480.82 Q280.997 1480.82 282.803 1477.28 Q284.632 1473.71 284.632 1466.61 Q284.632 1459.48 282.803 1455.94 Q280.997 1452.37 277.363 1452.37 M277.363 1448.67 Q283.173 1448.67 286.229 1453.27 Q289.308 1457.86 289.308 1466.61 Q289.308 1475.33 286.229 1479.94 Q283.173 1484.52 277.363 1484.52 Q271.553 1484.52 268.474 1479.94 Q265.419 1475.33 265.419 1466.61 Q265.419 1457.86 268.474 1453.27 Q271.553 1448.67 277.363 1448.67 Z" fill="#000000" fill-rule="evenodd" fill-opacity="1" /><path clip-path="url(#clip460)" d="M297.525 1477.97 L302.409 1477.97 L302.409 1483.85 L297.525 1483.85 L297.525 1477.97 Z" fill="#000000" fill-rule="evenodd" fill-opacity="1" /><path clip-path="url(#clip460)" d="M322.594 1452.37 Q318.983 1452.37 317.155 1455.94 Q315.349 1459.48 315.349 1466.61 Q315.349 1473.71 317.155 1477.28 Q318.983 1480.82 322.594 1480.82 Q326.229 1480.82 328.034 1477.28 Q329.863 1473.71 329.863 1466.61 Q329.863 1459.48 328.034 1455.94 Q326.229 1452.37 322.594 1452.37 M322.594 1448.67 Q328.405 1448.67 331.46 1453.27 Q334.539 1457.86 334.539 1466.61 Q334.539 1475.33 331.46 1479.94 Q328.405 1484.52 322.594 1484.52 Q316.784 1484.52 313.706 1479.94 Q310.65 1475.33 310.65 1466.61 Q310.65 1457.86 313.706 1453.27 Q316.784 1448.67 322.594 1448.67 Z" fill="#000000" fill-rule="evenodd" fill-opacity="1" /><path clip-path="url(#clip460)" d="M760.471 1479.92 L776.791 1479.92 L776.791 1483.85 L754.847 1483.85 L754.847 1479.92 Q757.509 1477.16 762.092 1472.53 Q766.698 1467.88 767.879 1466.54 Q770.124 1464.01 771.004 1462.28 Q771.907 1460.52 771.907 1458.83 Q771.907 1456.07 769.962 1454.34 Q768.041 1452.6 764.939 1452.6 Q762.74 1452.6 760.286 1453.37 Q757.856 1454.13 755.078 1455.68 L755.078 1450.96 Q757.902 1449.82 760.356 1449.25 Q762.809 1448.67 764.846 1448.67 Q770.217 1448.67 773.411 1451.35 Q776.606 1454.04 776.606 1458.53 Q776.606 1460.66 775.795 1462.58 Q775.008 1464.48 772.902 1467.07 Q772.323 1467.74 769.221 1470.96 Q766.12 1474.15 760.471 1479.92 Z" fill="#000000" fill-rule="evenodd" fill-opacity="1" /><path clip-path="url(#clip460)" d="M786.606 1477.97 L791.49 1477.97 L791.49 1483.85 L786.606 1483.85 L786.606 1477.97 Z" fill="#000000" fill-rule="evenodd" fill-opacity="1" /><path clip-path="url(#clip460)" d="M801.721 1449.29 L820.078 1449.29 L820.078 1453.23 L806.004 1453.23 L806.004 1461.7 Q807.022 1461.35 808.041 1461.19 Q809.059 1461 810.078 1461 Q815.865 1461 819.244 1464.18 Q822.624 1467.35 822.624 1472.76 Q822.624 1478.34 819.152 1481.44 Q815.68 1484.52 809.36 1484.52 Q807.184 1484.52 804.916 1484.15 Q802.67 1483.78 800.263 1483.04 L800.263 1478.34 Q802.346 1479.48 804.568 1480.03 Q806.791 1480.59 809.268 1480.59 Q813.272 1480.59 815.61 1478.48 Q817.948 1476.38 817.948 1472.76 Q817.948 1469.15 815.61 1467.05 Q813.272 1464.94 809.268 1464.94 Q807.393 1464.94 805.518 1465.36 Q803.666 1465.77 801.721 1466.65 L801.721 1449.29 Z" fill="#000000" fill-rule="evenodd" fill-opacity="1" /><path clip-path="url(#clip460)" d="M1244.66 1449.29 L1263.01 1449.29 L1263.01 1453.23 L1248.94 1453.23 L1248.94 1461.7 Q1249.96 1461.35 1250.98 1461.19 Q1251.99 1461 1253.01 1461 Q1258.8 1461 1262.18 1464.18 Q1265.56 1467.35 1265.56 1472.76 Q1265.56 1478.34 1262.09 1481.44 Q1258.61 1484.52 1252.3 1484.52 Q1250.12 1484.52 1247.85 1484.15 Q1245.61 1483.78 1243.2 1483.04 L1243.2 1478.34 Q1245.28 1479.48 1247.5 1480.03 Q1249.73 1480.59 1252.2 1480.59 Q1256.21 1480.59 1258.55 1478.48 Q1260.88 1476.38 1260.88 1472.76 Q1260.88 1469.15 1258.55 1467.05 Q1256.21 1464.94 1252.2 1464.94 Q1250.33 1464.94 1248.45 1465.36 Q1246.6 1465.77 1244.66 1466.65 L1244.66 1449.29 Z" fill="#000000" fill-rule="evenodd" fill-opacity="1" /><path clip-path="url(#clip460)" d="M1274.77 1477.97 L1279.66 1477.97 L1279.66 1483.85 L1274.77 1483.85 L1274.77 1477.97 Z" fill="#000000" fill-rule="evenodd" fill-opacity="1" /><path clip-path="url(#clip460)" d="M1299.84 1452.37 Q1296.23 1452.37 1294.4 1455.94 Q1292.6 1459.48 1292.6 1466.61 Q1292.6 1473.71 1294.4 1477.28 Q1296.23 1480.82 1299.84 1480.82 Q1303.48 1480.82 1305.28 1477.28 Q1307.11 1473.71 1307.11 1466.61 Q1307.11 1459.48 1305.28 1455.94 Q1303.48 1452.37 1299.84 1452.37 M1299.84 1448.67 Q1305.65 1448.67 1308.71 1453.27 Q1311.79 1457.86 1311.79 1466.61 Q1311.79 1475.33 1308.71 1479.94 Q1305.65 1484.52 1299.84 1484.52 Q1294.03 1484.52 1290.95 1479.94 Q1287.9 1475.33 1287.9 1466.61 Q1287.9 1457.86 1290.95 1453.27 Q1294.03 1448.67 1299.84 1448.67 Z" fill="#000000" fill-rule="evenodd" fill-opacity="1" /><path clip-path="url(#clip460)" d="M1732.57 1449.29 L1754.79 1449.29 L1754.79 1451.28 L1742.24 1483.85 L1737.36 1483.85 L1749.16 1453.23 L1732.57 1453.23 L1732.57 1449.29 Z" fill="#000000" fill-rule="evenodd" fill-opacity="1" /><path clip-path="url(#clip460)" d="M1763.91 1477.97 L1768.79 1477.97 L1768.79 1483.85 L1763.91 1483.85 L1763.91 1477.97 Z" fill="#000000" fill-rule="evenodd" fill-opacity="1" /><path clip-path="url(#clip460)" d="M1779.03 1449.29 L1797.38 1449.29 L1797.38 1453.23 L1783.31 1453.23 L1783.31 1461.7 Q1784.33 1461.35 1785.35 1461.19 Q1786.36 1461 1787.38 1461 Q1793.17 1461 1796.55 1464.18 Q1799.93 1467.35 1799.93 1472.76 Q1799.93 1478.34 1796.46 1481.44 Q1792.98 1484.52 1786.66 1484.52 Q1784.49 1484.52 1782.22 1484.15 Q1779.97 1483.78 1777.57 1483.04 L1777.57 1478.34 Q1779.65 1479.48 1781.87 1480.03 Q1784.1 1480.59 1786.57 1480.59 Q1790.58 1480.59 1792.91 1478.48 Q1795.25 1476.38 1795.25 1472.76 Q1795.25 1469.15 1792.91 1467.05 Q1790.58 1464.94 1786.57 1464.94 Q1784.7 1464.94 1782.82 1465.36 Q1780.97 1465.77 1779.03 1466.65 L1779.03 1449.29 Z" fill="#000000" fill-rule="evenodd" fill-opacity="1" /><path clip-path="url(#clip460)" d="M2207.08 1479.92 L2214.72 1479.92 L2214.72 1453.55 L2206.41 1455.22 L2206.41 1450.96 L2214.67 1449.29 L2219.35 1449.29 L2219.35 1479.92 L2226.98 1479.92 L2226.98 1483.85 L2207.08 1483.85 L2207.08 1479.92 Z" fill="#000000" fill-rule="evenodd" fill-opacity="1" /><path clip-path="url(#clip460)" d="M2246.43 1452.37 Q2242.82 1452.37 2240.99 1455.94 Q2239.18 1459.48 2239.18 1466.61 Q2239.18 1473.71 2240.99 1477.28 Q2242.82 1480.82 2246.43 1480.82 Q2250.06 1480.82 2251.87 1477.28 Q2253.7 1473.71 2253.7 1466.61 Q2253.7 1459.48 2251.87 1455.94 Q2250.06 1452.37 2246.43 1452.37 M2246.43 1448.67 Q2252.24 1448.67 2255.29 1453.27 Q2258.37 1457.86 2258.37 1466.61 Q2258.37 1475.33 2255.29 1479.94 Q2252.24 1484.52 2246.43 1484.52 Q2240.62 1484.52 2237.54 1479.94 Q2234.48 1475.33 2234.48 1466.61 Q2234.48 1457.86 2237.54 1453.27 Q2240.62 1448.67 2246.43 1448.67 Z" fill="#000000" fill-rule="evenodd" fill-opacity="1" /><path clip-path="url(#clip460)" d="M2266.59 1477.97 L2271.47 1477.97 L2271.47 1483.85 L2266.59 1483.85 L2266.59 1477.97 Z" fill="#000000" fill-rule="evenodd" fill-opacity="1" /><path clip-path="url(#clip460)" d="M2291.66 1452.37 Q2288.05 1452.37 2286.22 1455.94 Q2284.41 1459.48 2284.41 1466.61 Q2284.41 1473.71 2286.22 1477.28 Q2288.05 1480.82 2291.66 1480.82 Q2295.29 1480.82 2297.1 1477.28 Q2298.93 1473.71 2298.93 1466.61 Q2298.93 1459.48 2297.1 1455.94 Q2295.29 1452.37 2291.66 1452.37 M2291.66 1448.67 Q2297.47 1448.67 2300.53 1453.27 Q2303.6 1457.86 2303.6 1466.61 Q2303.6 1475.33 2300.53 1479.94 Q2297.47 1484.52 2291.66 1484.52 Q2285.85 1484.52 2282.77 1479.94 Q2279.72 1475.33 2279.72 1466.61 Q2279.72 1457.86 2282.77 1453.27 Q2285.85 1448.67 2291.66 1448.67 Z" fill="#000000" fill-rule="evenodd" fill-opacity="1" /><path clip-path="url(#clip460)" d="M1017.58 1520.52 L1057.78 1520.52 L1057.78 1525.93 L1040.91 1525.93 L1040.91 1568.04 L1034.45 1568.04 L1034.45 1525.93 L1017.58 1525.93 L1017.58 1520.52 Z" fill="#000000" fill-rule="evenodd" fill-opacity="1" /><path clip-path="url(#clip460)" d="M1090.12 1562.7 L1090.12 1581.6 L1084.23 1581.6 L1084.23 1532.4 L1090.12 1532.4 L1090.12 1537.81 Q1091.96 1534.62 1094.76 1533.1 Q1097.6 1531.54 1101.51 1531.54 Q1108 1531.54 1112.05 1536.69 Q1116.12 1541.85 1116.12 1550.25 Q1116.12 1558.65 1112.05 1563.81 Q1108 1568.97 1101.51 1568.97 Q1097.6 1568.97 1094.76 1567.44 Q1091.96 1565.88 1090.12 1562.7 M1110.04 1550.25 Q1110.04 1543.79 1107.37 1540.13 Q1104.73 1536.44 1100.08 1536.44 Q1095.43 1536.44 1092.76 1540.13 Q1090.12 1543.79 1090.12 1550.25 Q1090.12 1556.71 1092.76 1560.4 Q1095.43 1564.07 1100.08 1564.07 Q1104.73 1564.07 1107.37 1560.4 Q1110.04 1556.71 1110.04 1550.25 Z" fill="#000000" fill-rule="evenodd" fill-opacity="1" /><path clip-path="url(#clip460)" d="M1156.32 1548.76 L1156.32 1551.62 L1129.39 1551.62 Q1129.78 1557.67 1133.02 1560.85 Q1136.3 1564 1142.12 1564 Q1145.5 1564 1148.65 1563.17 Q1151.83 1562.35 1154.95 1560.69 L1154.95 1566.23 Q1151.8 1567.57 1148.49 1568.27 Q1145.18 1568.97 1141.77 1568.97 Q1133.24 1568.97 1128.25 1564 Q1123.28 1559.04 1123.28 1550.57 Q1123.28 1541.82 1127.99 1536.69 Q1132.74 1531.54 1140.76 1531.54 Q1147.95 1531.54 1152.12 1536.18 Q1156.32 1540.8 1156.32 1548.76 M1150.46 1547.04 Q1150.4 1542.23 1147.76 1539.37 Q1145.15 1536.5 1140.82 1536.5 Q1135.92 1536.5 1132.96 1539.27 Q1130.03 1542.04 1129.58 1547.07 L1150.46 1547.04 Z" fill="#000000" fill-rule="evenodd" fill-opacity="1" /><path clip-path="url(#clip460)" d="M1186.59 1537.87 Q1185.6 1537.3 1184.43 1537.04 Q1183.28 1536.76 1181.88 1536.76 Q1176.91 1536.76 1174.24 1540 Q1171.6 1543.22 1171.6 1549.27 L1171.6 1568.04 L1165.71 1568.04 L1165.71 1532.4 L1171.6 1532.4 L1171.6 1537.93 Q1173.44 1534.69 1176.4 1533.13 Q1179.36 1531.54 1183.6 1531.54 Q1184.2 1531.54 1184.93 1531.63 Q1185.67 1531.7 1186.56 1531.85 L1186.59 1537.87 Z" fill="#000000" fill-rule="evenodd" fill-opacity="1" /><path clip-path="url(#clip460)" d="M1192.73 1532.4 L1198.59 1532.4 L1198.59 1568.04 L1192.73 1568.04 L1192.73 1532.4 M1192.73 1518.52 L1198.59 1518.52 L1198.59 1525.93 L1192.73 1525.93 L1192.73 1518.52 Z" fill="#000000" fill-rule="evenodd" fill-opacity="1" /><path clip-path="url(#clip460)" d="M1224.66 1536.5 Q1219.95 1536.5 1217.21 1540.19 Q1214.47 1543.85 1214.47 1550.25 Q1214.47 1556.65 1217.18 1560.34 Q1219.91 1564 1224.66 1564 Q1229.34 1564 1232.07 1560.31 Q1234.81 1556.62 1234.81 1550.25 Q1234.81 1543.92 1232.07 1540.23 Q1229.34 1536.5 1224.66 1536.5 M1224.66 1531.54 Q1232.3 1531.54 1236.66 1536.5 Q1241.02 1541.47 1241.02 1550.25 Q1241.02 1559 1236.66 1564 Q1232.3 1568.97 1224.66 1568.97 Q1216.99 1568.97 1212.63 1564 Q1208.3 1559 1208.3 1550.25 Q1208.3 1541.47 1212.63 1536.5 Q1216.99 1531.54 1224.66 1531.54 Z" fill="#000000" fill-rule="evenodd" fill-opacity="1" /><path clip-path="url(#clip460)" d="M1274.18 1537.81 L1274.18 1518.52 L1280.04 1518.52 L1280.04 1568.04 L1274.18 1568.04 L1274.18 1562.7 Q1272.34 1565.88 1269.5 1567.44 Q1266.7 1568.97 1262.76 1568.97 Q1256.29 1568.97 1252.22 1563.81 Q1248.18 1558.65 1248.18 1550.25 Q1248.18 1541.85 1252.22 1536.69 Q1256.29 1531.54 1262.76 1531.54 Q1266.7 1531.54 1269.5 1533.1 Q1272.34 1534.62 1274.18 1537.81 M1254.23 1550.25 Q1254.23 1556.71 1256.87 1560.4 Q1259.54 1564.07 1264.19 1564.07 Q1268.83 1564.07 1271.51 1560.4 Q1274.18 1556.71 1274.18 1550.25 Q1274.18 1543.79 1271.51 1540.13 Q1268.83 1536.44 1264.19 1536.44 Q1259.54 1536.44 1256.87 1540.13 Q1254.23 1543.79 1254.23 1550.25 Z" fill="#000000" fill-rule="evenodd" fill-opacity="1" /><path clip-path="url(#clip460)" d="M1314.83 1533.45 L1314.83 1538.98 Q1312.34 1537.71 1309.67 1537.07 Q1307 1536.44 1304.13 1536.44 Q1299.77 1536.44 1297.58 1537.77 Q1295.41 1539.11 1295.41 1541.79 Q1295.41 1543.82 1296.97 1545 Q1298.53 1546.15 1303.24 1547.2 L1305.25 1547.64 Q1311.48 1548.98 1314.09 1551.43 Q1316.74 1553.85 1316.74 1558.21 Q1316.74 1563.17 1312.79 1566.07 Q1308.87 1568.97 1302 1568.97 Q1299.14 1568.97 1296.02 1568.39 Q1292.93 1567.85 1289.49 1566.74 L1289.49 1560.69 Q1292.74 1562.38 1295.89 1563.24 Q1299.04 1564.07 1302.13 1564.07 Q1306.26 1564.07 1308.49 1562.66 Q1310.72 1561.23 1310.72 1558.65 Q1310.72 1556.27 1309.1 1554.99 Q1307.51 1553.72 1302.06 1552.54 L1300.03 1552.07 Q1294.58 1550.92 1292.16 1548.56 Q1289.75 1546.18 1289.75 1542.04 Q1289.75 1537.01 1293.31 1534.27 Q1296.88 1531.54 1303.43 1531.54 Q1306.68 1531.54 1309.54 1532.01 Q1312.41 1532.49 1314.83 1533.45 Z" fill="#000000" fill-rule="evenodd" fill-opacity="1" /><path clip-path="url(#clip460)" d="M1362.98 1550.12 Q1355.89 1550.12 1353.15 1551.75 Q1350.41 1553.37 1350.41 1557.29 Q1350.41 1560.4 1352.45 1562.25 Q1354.52 1564.07 1358.05 1564.07 Q1362.92 1564.07 1365.85 1560.63 Q1368.81 1557.16 1368.81 1551.43 L1368.81 1550.12 L1362.98 1550.12 M1374.66 1547.71 L1374.66 1568.04 L1368.81 1568.04 L1368.81 1562.63 Q1366.8 1565.88 1363.81 1567.44 Q1360.82 1568.97 1356.49 1568.97 Q1351.02 1568.97 1347.77 1565.91 Q1344.55 1562.82 1344.55 1557.67 Q1344.55 1551.65 1348.56 1548.6 Q1352.61 1545.54 1360.6 1545.54 L1368.81 1545.54 L1368.81 1544.97 Q1368.81 1540.93 1366.13 1538.73 Q1363.49 1536.5 1358.69 1536.5 Q1355.63 1536.5 1352.73 1537.23 Q1349.84 1537.97 1347.16 1539.43 L1347.16 1534.02 Q1350.38 1532.78 1353.4 1532.17 Q1356.43 1531.54 1359.29 1531.54 Q1367.03 1531.54 1370.84 1535.55 Q1374.66 1539.56 1374.66 1547.71 Z" fill="#000000" fill-rule="evenodd" fill-opacity="1" /><path clip-path="url(#clip460)" d="M1416.36 1546.53 L1416.36 1568.04 L1410.5 1568.04 L1410.5 1546.72 Q1410.5 1541.66 1408.53 1539.14 Q1406.56 1536.63 1402.61 1536.63 Q1397.87 1536.63 1395.13 1539.65 Q1392.39 1542.68 1392.39 1547.9 L1392.39 1568.04 L1386.5 1568.04 L1386.5 1518.52 L1392.39 1518.52 L1392.39 1537.93 Q1394.49 1534.72 1397.33 1533.13 Q1400.19 1531.54 1403.91 1531.54 Q1410.06 1531.54 1413.21 1535.36 Q1416.36 1539.14 1416.36 1546.53 Z" fill="#000000" fill-rule="evenodd" fill-opacity="1" /><path clip-path="url(#clip460)" d="M1458.53 1548.76 L1458.53 1551.62 L1431.61 1551.62 Q1431.99 1557.67 1435.23 1560.85 Q1438.51 1564 1444.34 1564 Q1447.71 1564 1450.86 1563.17 Q1454.04 1562.35 1457.16 1560.69 L1457.16 1566.23 Q1454.01 1567.57 1450.7 1568.27 Q1447.39 1568.97 1443.99 1568.97 Q1435.46 1568.97 1430.46 1564 Q1425.49 1559.04 1425.49 1550.57 Q1425.49 1541.82 1430.2 1536.69 Q1434.95 1531.54 1442.97 1531.54 Q1450.16 1531.54 1454.33 1536.18 Q1458.53 1540.8 1458.53 1548.76 M1452.68 1547.04 Q1452.61 1542.23 1449.97 1539.37 Q1447.36 1536.5 1443.03 1536.5 Q1438.13 1536.5 1435.17 1539.27 Q1432.24 1542.04 1431.8 1547.07 L1452.68 1547.04 Z" fill="#000000" fill-rule="evenodd" fill-opacity="1" /><path clip-path="url(#clip460)" d="M1484.35 1550.12 Q1477.25 1550.12 1474.51 1551.75 Q1471.77 1553.37 1471.77 1557.29 Q1471.77 1560.4 1473.81 1562.25 Q1475.88 1564.07 1479.41 1564.07 Q1484.28 1564.07 1487.21 1560.63 Q1490.17 1557.16 1490.17 1551.43 L1490.17 1550.12 L1484.35 1550.12 M1496.03 1547.71 L1496.03 1568.04 L1490.17 1568.04 L1490.17 1562.63 Q1488.16 1565.88 1485.17 1567.44 Q1482.18 1568.97 1477.85 1568.97 Q1472.38 1568.97 1469.13 1565.91 Q1465.92 1562.82 1465.92 1557.67 Q1465.92 1551.65 1469.93 1548.6 Q1473.97 1545.54 1481.96 1545.54 L1490.17 1545.54 L1490.17 1544.97 Q1490.17 1540.93 1487.5 1538.73 Q1484.85 1536.5 1480.05 1536.5 Q1476.99 1536.5 1474.1 1537.23 Q1471.2 1537.97 1468.53 1539.43 L1468.53 1534.02 Q1471.74 1532.78 1474.76 1532.17 Q1477.79 1531.54 1480.65 1531.54 Q1488.39 1531.54 1492.21 1535.55 Q1496.03 1539.56 1496.03 1547.71 Z" fill="#000000" fill-rule="evenodd" fill-opacity="1" /><path clip-path="url(#clip460)" d="M1531.55 1537.81 L1531.55 1518.52 L1537.4 1518.52 L1537.4 1568.04 L1531.55 1568.04 L1531.55 1562.7 Q1529.7 1565.88 1526.87 1567.44 Q1524.07 1568.97 1520.12 1568.97 Q1513.66 1568.97 1509.59 1563.81 Q1505.54 1558.65 1505.54 1550.25 Q1505.54 1541.85 1509.59 1536.69 Q1513.66 1531.54 1520.12 1531.54 Q1524.07 1531.54 1526.87 1533.1 Q1529.7 1534.62 1531.55 1537.81 M1511.59 1550.25 Q1511.59 1556.71 1514.23 1560.4 Q1516.91 1564.07 1521.55 1564.07 Q1526.2 1564.07 1528.87 1560.4 Q1531.55 1556.71 1531.55 1550.25 Q1531.55 1543.79 1528.87 1540.13 Q1526.2 1536.44 1521.55 1536.44 Q1516.91 1536.44 1514.23 1540.13 Q1511.59 1543.79 1511.59 1550.25 Z" fill="#000000" fill-rule="evenodd" fill-opacity="1" /><polyline clip-path="url(#clip462)" style="stroke:#000000; stroke-linecap:butt; stroke-linejoin:round; stroke-width:2; stroke-opacity:0.1; fill:none" points="
  202.227,1403.26 2352.76,1403.26 
  "/>
<polyline clip-path="url(#clip462)" style="stroke:#000000; stroke-linecap:butt; stroke-linejoin:round; stroke-width:2; stroke-opacity:0.1; fill:none" points="
  202.227,1020.09 2352.76,1020.09 
  "/>
<polyline clip-path="url(#clip462)" style="stroke:#000000; stroke-linecap:butt; stroke-linejoin:round; stroke-width:2; stroke-opacity:0.1; fill:none" points="
  202.227,636.918 2352.76,636.918 
  "/>
<polyline clip-path="url(#clip462)" style="stroke:#000000; stroke-linecap:butt; stroke-linejoin:round; stroke-width:2; stroke-opacity:0.1; fill:none" points="
  202.227,253.749 2352.76,253.749 
  "/>
<polyline clip-path="url(#clip460)" style="stroke:#000000; stroke-linecap:butt; stroke-linejoin:round; stroke-width:4; stroke-opacity:1; fill:none" points="
  202.227,1423.18 202.227,123.472 
  "/>
<polyline clip-path="url(#clip460)" style="stroke:#000000; stroke-linecap:butt; stroke-linejoin:round; stroke-width:4; stroke-opacity:1; fill:none" points="
  202.227,1403.26 221.125,1403.26 
  "/>
<polyline clip-path="url(#clip460)" style="stroke:#000000; stroke-linecap:butt; stroke-linejoin:round; stroke-width:4; stroke-opacity:1; fill:none" points="
  202.227,1020.09 221.125,1020.09 
  "/>
<polyline clip-path="url(#clip460)" style="stroke:#000000; stroke-linecap:butt; stroke-linejoin:round; stroke-width:4; stroke-opacity:1; fill:none" points="
  202.227,636.918 221.125,636.918 
  "/>
<polyline clip-path="url(#clip460)" style="stroke:#000000; stroke-linecap:butt; stroke-linejoin:round; stroke-width:4; stroke-opacity:1; fill:none" points="
  202.227,253.749 221.125,253.749 
  "/>
<path clip-path="url(#clip460)" d="M154.283 1389.05 Q150.672 1389.05 148.843 1392.62 Q147.038 1396.16 147.038 1403.29 Q147.038 1410.4 148.843 1413.96 Q150.672 1417.5 154.283 1417.5 Q157.917 1417.5 159.723 1413.96 Q161.552 1410.4 161.552 1403.29 Q161.552 1396.16 159.723 1392.62 Q157.917 1389.05 154.283 1389.05 M154.283 1385.35 Q160.093 1385.35 163.149 1389.96 Q166.227 1394.54 166.227 1403.29 Q166.227 1412.02 163.149 1416.62 Q160.093 1421.21 154.283 1421.21 Q148.473 1421.21 145.394 1416.62 Q142.339 1412.02 142.339 1403.29 Q142.339 1394.54 145.394 1389.96 Q148.473 1385.35 154.283 1385.35 Z" fill="#000000" fill-rule="evenodd" fill-opacity="1" /><path clip-path="url(#clip460)" d="M145.325 1002.81 L163.681 1002.81 L163.681 1006.74 L149.607 1006.74 L149.607 1015.21 Q150.626 1014.87 151.644 1014.7 Q152.663 1014.52 153.681 1014.52 Q159.468 1014.52 162.848 1017.69 Q166.227 1020.86 166.227 1026.28 Q166.227 1031.86 162.755 1034.96 Q159.283 1038.04 152.964 1038.04 Q150.788 1038.04 148.519 1037.67 Q146.274 1037.3 143.866 1036.56 L143.866 1031.86 Q145.95 1032.99 148.172 1033.55 Q150.394 1034.1 152.871 1034.1 Q156.876 1034.1 159.214 1032 Q161.552 1029.89 161.552 1026.28 Q161.552 1022.67 159.214 1020.56 Q156.876 1018.45 152.871 1018.45 Q150.996 1018.45 149.121 1018.87 Q147.269 1019.29 145.325 1020.17 L145.325 1002.81 Z" fill="#000000" fill-rule="evenodd" fill-opacity="1" /><path clip-path="url(#clip460)" d="M114.931 650.263 L122.57 650.263 L122.57 623.897 L114.26 625.564 L114.26 621.305 L122.524 619.638 L127.2 619.638 L127.2 650.263 L134.839 650.263 L134.839 654.198 L114.931 654.198 L114.931 650.263 Z" fill="#000000" fill-rule="evenodd" fill-opacity="1" /><path clip-path="url(#clip460)" d="M154.283 622.717 Q150.672 622.717 148.843 626.281 Q147.038 629.823 147.038 636.953 Q147.038 644.059 148.843 647.624 Q150.672 651.166 154.283 651.166 Q157.917 651.166 159.723 647.624 Q161.552 644.059 161.552 636.953 Q161.552 629.823 159.723 626.281 Q157.917 622.717 154.283 622.717 M154.283 619.013 Q160.093 619.013 163.149 623.619 Q166.227 628.203 166.227 636.953 Q166.227 645.68 163.149 650.286 Q160.093 654.869 154.283 654.869 Q148.473 654.869 145.394 650.286 Q142.339 645.68 142.339 636.953 Q142.339 628.203 145.394 623.619 Q148.473 619.013 154.283 619.013 Z" fill="#000000" fill-rule="evenodd" fill-opacity="1" /><path clip-path="url(#clip460)" d="M115.927 267.094 L123.566 267.094 L123.566 240.729 L115.256 242.395 L115.256 238.136 L123.519 236.469 L128.195 236.469 L128.195 267.094 L135.834 267.094 L135.834 271.029 L115.927 271.029 L115.927 267.094 Z" fill="#000000" fill-rule="evenodd" fill-opacity="1" /><path clip-path="url(#clip460)" d="M145.325 236.469 L163.681 236.469 L163.681 240.405 L149.607 240.405 L149.607 248.877 Q150.626 248.53 151.644 248.368 Q152.663 248.182 153.681 248.182 Q159.468 248.182 162.848 251.354 Q166.227 254.525 166.227 259.942 Q166.227 265.52 162.755 268.622 Q159.283 271.701 152.964 271.701 Q150.788 271.701 148.519 271.33 Q146.274 270.96 143.866 270.219 L143.866 265.52 Q145.95 266.654 148.172 267.21 Q150.394 267.766 152.871 267.766 Q156.876 267.766 159.214 265.659 Q161.552 263.553 161.552 259.942 Q161.552 256.33 159.214 254.224 Q156.876 252.117 152.871 252.117 Q150.996 252.117 149.121 252.534 Q147.269 252.951 145.325 253.83 L145.325 236.469 Z" fill="#000000" fill-rule="evenodd" fill-opacity="1" /><path clip-path="url(#clip460)" d="M21.7677 1045.83 L39.6235 1045.83 L39.6235 1037.74 Q39.6235 1033.25 37.3 1030.8 Q34.9765 1028.35 30.6797 1028.35 Q26.4147 1028.35 24.0912 1030.8 Q21.7677 1033.25 21.7677 1037.74 L21.7677 1045.83 M16.4842 1052.26 L16.4842 1037.74 Q16.4842 1029.75 20.1126 1025.68 Q23.7092 1021.57 30.6797 1021.57 Q37.7138 1021.57 41.3104 1025.68 Q44.907 1029.75 44.907 1037.74 L44.907 1045.83 L64.0042 1045.83 L64.0042 1052.26 L16.4842 1052.26 Z" fill="#000000" fill-rule="evenodd" fill-opacity="1" /><path clip-path="url(#clip460)" d="M33.8307 993.691 Q33.2578 994.678 33.0032 995.855 Q32.7167 997.001 32.7167 998.401 Q32.7167 1003.37 35.9632 1006.04 Q39.1779 1008.68 45.2253 1008.68 L64.0042 1008.68 L64.0042 1014.57 L28.3562 1014.57 L28.3562 1008.68 L33.8944 1008.68 Q30.6479 1006.84 29.0883 1003.88 Q27.4968 1000.92 27.4968 996.683 Q27.4968 996.078 27.5923 995.346 Q27.656 994.614 27.8151 993.723 L33.8307 993.691 Z" fill="#000000" fill-rule="evenodd" fill-opacity="1" /><path clip-path="url(#clip460)" d="M44.7161 958.488 L47.5806 958.488 L47.5806 985.415 Q53.6281 985.033 56.8109 981.787 Q59.9619 978.509 59.9619 972.684 Q59.9619 969.31 59.1344 966.159 Q58.3069 962.976 56.6518 959.857 L62.1899 959.857 Q63.5267 963.008 64.227 966.318 Q64.9272 969.628 64.9272 973.034 Q64.9272 981.564 59.9619 986.561 Q54.9967 991.526 46.5303 991.526 Q37.7774 991.526 32.6531 986.816 Q27.4968 982.073 27.4968 974.053 Q27.4968 966.859 32.1438 962.69 Q36.7589 958.488 44.7161 958.488 M42.9973 964.345 Q38.1912 964.409 35.3266 967.05 Q32.4621 969.66 32.4621 973.989 Q32.4621 978.891 35.2312 981.851 Q38.0002 984.779 43.0292 985.224 L42.9973 964.345 Z" fill="#000000" fill-rule="evenodd" fill-opacity="1" /><path clip-path="url(#clip460)" d="M29.4065 926.151 L34.9447 926.151 Q33.6716 928.633 33.035 931.307 Q32.3984 933.981 32.3984 936.845 Q32.3984 941.206 33.7352 943.402 Q35.072 945.566 37.7456 945.566 Q39.7826 945.566 40.9603 944.006 Q42.1061 942.447 43.1565 937.736 L43.6021 935.731 Q44.9389 929.493 47.3897 926.883 Q49.8086 924.241 54.1691 924.241 Q59.1344 924.241 62.0308 928.188 Q64.9272 932.103 64.9272 938.978 Q64.9272 941.842 64.3543 944.961 Q63.8132 948.049 62.6992 951.486 L56.6518 951.486 Q58.3387 948.24 59.198 945.089 Q60.0256 941.938 60.0256 938.85 Q60.0256 934.713 58.6251 932.485 Q57.1929 930.257 54.6147 930.257 Q52.2276 930.257 50.9545 931.88 Q49.6813 933.471 48.5037 938.914 L48.0262 940.951 Q46.8804 946.394 44.5251 948.813 Q42.138 951.232 38.0002 951.232 Q32.9713 951.232 30.2341 947.667 Q27.4968 944.102 27.4968 937.545 Q27.4968 934.299 27.9743 931.434 Q28.4517 928.57 29.4065 926.151 Z" fill="#000000" fill-rule="evenodd" fill-opacity="1" /><path clip-path="url(#clip460)" d="M44.7161 884.423 L47.5806 884.423 L47.5806 911.35 Q53.6281 910.968 56.8109 907.722 Q59.9619 904.444 59.9619 898.619 Q59.9619 895.245 59.1344 892.094 Q58.3069 888.911 56.6518 885.792 L62.1899 885.792 Q63.5267 888.943 64.227 892.253 Q64.9272 895.563 64.9272 898.969 Q64.9272 907.499 59.9619 912.496 Q54.9967 917.461 46.5303 917.461 Q37.7774 917.461 32.6531 912.751 Q27.4968 908.008 27.4968 899.988 Q27.4968 892.794 32.1438 888.625 Q36.7589 884.423 44.7161 884.423 M42.9973 890.28 Q38.1912 890.344 35.3266 892.985 Q32.4621 895.595 32.4621 899.924 Q32.4621 904.826 35.2312 907.786 Q38.0002 910.714 43.0292 911.159 L42.9973 890.28 Z" fill="#000000" fill-rule="evenodd" fill-opacity="1" /><path clip-path="url(#clip460)" d="M42.4881 845.179 L64.0042 845.179 L64.0042 851.035 L42.679 851.035 Q37.6183 851.035 35.1038 853.009 Q32.5894 854.982 32.5894 858.929 Q32.5894 863.671 35.6131 866.409 Q38.6368 869.146 43.8567 869.146 L64.0042 869.146 L64.0042 875.034 L28.3562 875.034 L28.3562 869.146 L33.8944 869.146 Q30.6797 867.045 29.0883 864.212 Q27.4968 861.348 27.4968 857.624 Q27.4968 851.481 31.3163 848.33 Q35.1038 845.179 42.4881 845.179 Z" fill="#000000" fill-rule="evenodd" fill-opacity="1" /><path clip-path="url(#clip460)" d="M18.2347 827.705 L28.3562 827.705 L28.3562 815.642 L32.9077 815.642 L32.9077 827.705 L52.2594 827.705 Q56.6199 827.705 57.8613 826.527 Q59.1026 825.318 59.1026 821.658 L59.1026 815.642 L64.0042 815.642 L64.0042 821.658 Q64.0042 828.437 61.4897 831.015 Q58.9434 833.593 52.2594 833.593 L32.9077 833.593 L32.9077 837.89 L28.3562 837.89 L28.3562 833.593 L18.2347 833.593 L18.2347 827.705 Z" fill="#000000" fill-rule="evenodd" fill-opacity="1" /><path clip-path="url(#clip460)" d="M64.0042 774.711 L16.4842 792.853 L16.4842 786.137 L56.4926 771.082 L16.4842 755.995 L16.4842 749.311 L64.0042 767.422 L64.0042 774.711 Z" fill="#000000" fill-rule="evenodd" fill-opacity="1" /><path clip-path="url(#clip460)" d="M46.0847 731.487 Q46.0847 738.585 47.7079 741.322 Q49.3312 744.06 53.2461 744.06 Q56.3653 744.06 58.2114 742.023 Q60.0256 739.954 60.0256 736.421 Q60.0256 731.551 56.5881 728.623 Q53.1188 725.663 47.3897 725.663 L46.0847 725.663 L46.0847 731.487 M43.6657 719.806 L64.0042 719.806 L64.0042 725.663 L58.5933 725.663 Q61.8398 727.668 63.3994 730.66 Q64.9272 733.652 64.9272 737.98 Q64.9272 743.455 61.8716 746.701 Q58.7843 749.916 53.6281 749.916 Q47.6125 749.916 44.5569 745.906 Q41.5014 741.863 41.5014 733.875 L41.5014 725.663 L40.9285 725.663 Q36.8862 725.663 34.6901 728.336 Q32.4621 730.978 32.4621 735.784 Q32.4621 738.84 33.1941 741.736 Q33.9262 744.633 35.3903 747.306 L29.9795 747.306 Q28.7381 744.091 28.1334 741.068 Q27.4968 738.044 27.4968 735.179 Q27.4968 727.445 31.5072 723.626 Q35.5176 719.806 43.6657 719.806 Z" fill="#000000" fill-rule="evenodd" fill-opacity="1" /><path clip-path="url(#clip460)" d="M14.479 707.743 L14.479 701.887 L64.0042 701.887 L64.0042 707.743 L14.479 707.743 Z" fill="#000000" fill-rule="evenodd" fill-opacity="1" /><path clip-path="url(#clip460)" d="M49.9359 690.238 L28.3562 690.238 L28.3562 684.381 L49.7131 684.381 Q54.7739 684.381 57.3202 682.408 Q59.8346 680.434 59.8346 676.488 Q59.8346 671.745 56.8109 669.008 Q53.7872 666.239 48.5673 666.239 L28.3562 666.239 L28.3562 660.382 L64.0042 660.382 L64.0042 666.239 L58.5296 666.239 Q61.7762 668.371 63.3676 671.204 Q64.9272 674.005 64.9272 677.729 Q64.9272 683.872 61.1078 687.055 Q57.2883 690.238 49.9359 690.238 M27.4968 675.501 L27.4968 675.501 Z" fill="#000000" fill-rule="evenodd" fill-opacity="1" /><path clip-path="url(#clip460)" d="M44.7161 617.828 L47.5806 617.828 L47.5806 644.755 Q53.6281 644.373 56.8109 641.126 Q59.9619 637.848 59.9619 632.023 Q59.9619 628.649 59.1344 625.498 Q58.3069 622.316 56.6518 619.196 L62.1899 619.196 Q63.5267 622.347 64.227 625.658 Q64.9272 628.968 64.9272 632.373 Q64.9272 640.903 59.9619 645.9 Q54.9967 650.866 46.5303 650.866 Q37.7774 650.866 32.6531 646.155 Q27.4968 641.413 27.4968 633.392 Q27.4968 626.199 32.1438 622.029 Q36.7589 617.828 44.7161 617.828 M42.9973 623.684 Q38.1912 623.748 35.3266 626.39 Q32.4621 629 32.4621 633.328 Q32.4621 638.23 35.2312 641.19 Q38.0002 644.118 43.0292 644.564 L42.9973 623.684 Z" fill="#000000" fill-rule="evenodd" fill-opacity="1" /><path clip-path="url(#clip460)" d="M55.9197 606.72 L55.9197 600.004 L61.3942 600.004 L71.5793 605.224 L71.5793 609.329 L61.3942 606.72 L55.9197 606.72 Z" fill="#000000" fill-rule="evenodd" fill-opacity="1" /><path clip-path="url(#clip460)" d="M58.657 561.109 L77.5631 561.109 L77.5631 566.998 L28.3562 566.998 L28.3562 561.109 L33.7671 561.109 Q30.5842 559.263 29.0564 556.462 Q27.4968 553.63 27.4968 549.715 Q27.4968 543.222 32.6531 539.179 Q37.8093 535.105 46.212 535.105 Q54.6147 535.105 59.771 539.179 Q64.9272 543.222 64.9272 549.715 Q64.9272 553.63 63.3994 556.462 Q61.8398 559.263 58.657 561.109 M46.212 541.185 Q39.7508 541.185 36.0905 543.858 Q32.3984 546.5 32.3984 551.147 Q32.3984 555.794 36.0905 558.467 Q39.7508 561.109 46.212 561.109 Q52.6732 561.109 56.3653 558.467 Q60.0256 555.794 60.0256 551.147 Q60.0256 546.5 56.3653 543.858 Q52.6732 541.185 46.212 541.185 Z" fill="#000000" fill-rule="evenodd" fill-opacity="1" /><path clip-path="url(#clip460)" d="M20.7174 510.82 Q20.7174 515.785 25.6189 518.3 Q30.4887 520.782 40.2919 520.782 Q50.0633 520.782 54.9649 518.3 Q59.8346 515.785 59.8346 510.82 Q59.8346 505.823 54.9649 503.34 Q50.0633 500.826 40.2919 500.826 Q30.4887 500.826 25.6189 503.34 Q20.7174 505.823 20.7174 510.82 M15.6248 510.82 Q15.6248 502.831 21.9587 498.63 Q28.2607 494.397 40.2919 494.397 Q52.2913 494.397 58.6251 498.63 Q64.9272 502.831 64.9272 510.82 Q64.9272 518.809 58.6251 523.042 Q52.2913 527.244 40.2919 527.244 Q28.2607 527.244 21.9587 523.042 Q15.6248 518.809 15.6248 510.82 Z" fill="#000000" fill-rule="evenodd" fill-opacity="1" /><path clip-path="url(#clip460)" d="M773.823 72.576 L750.732 12.096 L759.28 12.096 L778.441 63.0159 L797.642 12.096 L806.149 12.096 L783.099 72.576 L773.823 72.576 Z" fill="#000000" fill-rule="evenodd" fill-opacity="1" /><path clip-path="url(#clip460)" d="M828.834 49.7694 Q819.8 49.7694 816.316 51.8354 Q812.833 53.9013 812.833 58.8839 Q812.833 62.8538 815.425 65.2034 Q818.058 67.5124 822.555 67.5124 Q828.753 67.5124 832.48 63.1374 Q836.247 58.7219 836.247 51.4303 L836.247 49.7694 L828.834 49.7694 M843.701 46.6907 L843.701 72.576 L836.247 72.576 L836.247 65.6895 Q833.695 69.8214 829.887 71.8063 Q826.079 73.7508 820.57 73.7508 Q813.602 73.7508 809.47 69.8619 Q805.379 65.9325 805.379 59.3701 Q805.379 51.7138 810.483 47.825 Q815.628 43.9361 825.796 43.9361 L836.247 43.9361 L836.247 43.2069 Q836.247 38.0623 832.844 35.2672 Q829.482 32.4315 823.365 32.4315 Q819.476 32.4315 815.79 33.3632 Q812.104 34.295 808.701 36.1584 L808.701 29.2718 Q812.792 27.692 816.641 26.9223 Q820.489 26.1121 824.135 26.1121 Q833.978 26.1121 838.84 31.2163 Q843.701 36.3204 843.701 46.6907 Z" fill="#000000" fill-rule="evenodd" fill-opacity="1" /><path clip-path="url(#clip460)" d="M859.054 9.54393 L866.507 9.54393 L866.507 72.576 L859.054 72.576 L859.054 9.54393 Z" fill="#000000" fill-rule="evenodd" fill-opacity="1" /><path clip-path="url(#clip460)" d="M881.334 54.671 L881.334 27.2059 L888.787 27.2059 L888.787 54.3874 Q888.787 60.8284 891.299 64.0691 Q893.81 67.2693 898.833 67.2693 Q904.869 67.2693 908.353 63.421 Q911.877 59.5726 911.877 52.9291 L911.877 27.2059 L919.331 27.2059 L919.331 72.576 L911.877 72.576 L911.877 65.6084 Q909.163 69.7404 905.558 71.7658 Q901.993 73.7508 897.254 73.7508 Q889.435 73.7508 885.384 68.8897 Q881.334 64.0286 881.334 54.671 M900.089 26.1121 L900.089 26.1121 Z" fill="#000000" fill-rule="evenodd" fill-opacity="1" /><path clip-path="url(#clip460)" d="M973.492 48.0275 L973.492 51.6733 L939.221 51.6733 Q939.707 59.3701 943.839 63.421 Q948.011 67.4314 955.425 67.4314 Q959.719 67.4314 963.729 66.3781 Q967.78 65.3249 971.75 63.2184 L971.75 70.267 Q967.739 71.9684 963.526 72.8596 Q959.313 73.7508 954.979 73.7508 Q944.123 73.7508 937.763 67.4314 Q931.443 61.1119 931.443 50.3365 Q931.443 39.1965 937.439 32.6746 Q943.474 26.1121 953.683 26.1121 Q962.838 26.1121 968.144 32.0264 Q973.492 37.9003 973.492 48.0275 M966.038 45.84 Q965.957 39.7232 962.595 36.0774 Q959.273 32.4315 953.764 32.4315 Q947.525 32.4315 943.758 35.9558 Q940.031 39.4801 939.464 45.8805 L966.038 45.84 Z" fill="#000000" fill-rule="evenodd" fill-opacity="1" /><path clip-path="url(#clip460)" d="M1029.68 32.4315 Q1023.68 32.4315 1020.2 37.1306 Q1016.71 41.7891 1016.71 49.9314 Q1016.71 58.0738 1020.16 62.7728 Q1023.64 67.4314 1029.68 67.4314 Q1035.63 67.4314 1039.12 62.7323 Q1042.6 58.0333 1042.6 49.9314 Q1042.6 41.8701 1039.12 37.1711 Q1035.63 32.4315 1029.68 32.4315 M1029.68 26.1121 Q1039.4 26.1121 1044.95 32.4315 Q1050.5 38.7509 1050.5 49.9314 Q1050.5 61.0714 1044.95 67.4314 Q1039.4 73.7508 1029.68 73.7508 Q1019.91 73.7508 1014.37 67.4314 Q1008.86 61.0714 1008.86 49.9314 Q1008.86 38.7509 1014.37 32.4315 Q1019.91 26.1121 1029.68 26.1121 Z" fill="#000000" fill-rule="evenodd" fill-opacity="1" /><path clip-path="url(#clip460)" d="M1085.82 9.54393 L1085.82 15.7418 L1078.69 15.7418 Q1074.68 15.7418 1073.1 17.3622 Q1071.56 18.9825 1071.56 23.1955 L1071.56 27.2059 L1083.84 27.2059 L1083.84 32.9987 L1071.56 32.9987 L1071.56 72.576 L1064.07 72.576 L1064.07 32.9987 L1056.94 32.9987 L1056.94 27.2059 L1064.07 27.2059 L1064.07 24.0462 Q1064.07 16.471 1067.59 13.0277 Q1071.12 9.54393 1078.77 9.54393 L1085.82 9.54393 Z" fill="#000000" fill-rule="evenodd" fill-opacity="1" /><path clip-path="url(#clip460)" d="M1118.43 9.54393 L1125.89 9.54393 L1125.89 72.576 L1118.43 72.576 L1118.43 9.54393 Z" fill="#000000" fill-rule="evenodd" fill-opacity="1" /><path clip-path="url(#clip460)" d="M1180.29 48.0275 L1180.29 51.6733 L1146.02 51.6733 Q1146.51 59.3701 1150.64 63.421 Q1154.81 67.4314 1162.22 67.4314 Q1166.52 67.4314 1170.53 66.3781 Q1174.58 65.3249 1178.55 63.2184 L1178.55 70.267 Q1174.54 71.9684 1170.33 72.8596 Q1166.11 73.7508 1161.78 73.7508 Q1150.92 73.7508 1144.56 67.4314 Q1138.24 61.1119 1138.24 50.3365 Q1138.24 39.1965 1144.24 32.6746 Q1150.27 26.1121 1160.48 26.1121 Q1169.64 26.1121 1174.94 32.0264 Q1180.29 37.9003 1180.29 48.0275 M1172.84 45.84 Q1172.76 39.7232 1169.39 36.0774 Q1166.07 32.4315 1160.56 32.4315 Q1154.32 32.4315 1150.56 35.9558 Q1146.83 39.4801 1146.26 45.8805 L1172.84 45.84 Z" fill="#000000" fill-rule="evenodd" fill-opacity="1" /><path clip-path="url(#clip460)" d="M1213.14 49.7694 Q1204.11 49.7694 1200.63 51.8354 Q1197.14 53.9013 1197.14 58.8839 Q1197.14 62.8538 1199.73 65.2034 Q1202.37 67.5124 1206.86 67.5124 Q1213.06 67.5124 1216.79 63.1374 Q1220.56 58.7219 1220.56 51.4303 L1220.56 49.7694 L1213.14 49.7694 M1228.01 46.6907 L1228.01 72.576 L1220.56 72.576 L1220.56 65.6895 Q1218 69.8214 1214.2 71.8063 Q1210.39 73.7508 1204.88 73.7508 Q1197.91 73.7508 1193.78 69.8619 Q1189.69 65.9325 1189.69 59.3701 Q1189.69 51.7138 1194.79 47.825 Q1199.94 43.9361 1210.1 43.9361 L1220.56 43.9361 L1220.56 43.2069 Q1220.56 38.0623 1217.15 35.2672 Q1213.79 32.4315 1207.67 32.4315 Q1203.79 32.4315 1200.1 33.3632 Q1196.41 34.295 1193.01 36.1584 L1193.01 29.2718 Q1197.1 27.692 1200.95 26.9223 Q1204.8 26.1121 1208.44 26.1121 Q1218.29 26.1121 1223.15 31.2163 Q1228.01 36.3204 1228.01 46.6907 Z" fill="#000000" fill-rule="evenodd" fill-opacity="1" /><path clip-path="url(#clip460)" d="M1272.29 28.5427 L1272.29 35.5912 Q1269.13 33.9709 1265.72 33.1607 Q1262.32 32.3505 1258.68 32.3505 Q1253.13 32.3505 1250.33 34.0519 Q1247.58 35.7533 1247.58 39.156 Q1247.58 41.7486 1249.56 43.2475 Q1251.55 44.7058 1257.54 46.0426 L1260.09 46.6097 Q1268.03 48.3111 1271.35 51.4303 Q1274.72 54.509 1274.72 60.0587 Q1274.72 66.3781 1269.69 70.0644 Q1264.71 73.7508 1255.96 73.7508 Q1252.32 73.7508 1248.35 73.0216 Q1244.42 72.3329 1240.04 70.9151 L1240.04 63.2184 Q1244.17 65.3654 1248.18 66.4591 Q1252.19 67.5124 1256.12 67.5124 Q1261.39 67.5124 1264.22 65.73 Q1267.06 63.9071 1267.06 60.6258 Q1267.06 57.5877 1264.99 55.9673 Q1262.97 54.3469 1256.04 52.8481 L1253.45 52.2405 Q1246.52 50.7821 1243.44 47.7845 Q1240.37 44.7463 1240.37 39.4801 Q1240.37 33.0797 1244.9 29.5959 Q1249.44 26.1121 1257.78 26.1121 Q1261.92 26.1121 1265.56 26.7198 Q1269.21 27.3274 1272.29 28.5427 Z" fill="#000000" fill-rule="evenodd" fill-opacity="1" /><path clip-path="url(#clip460)" d="M1325.39 48.0275 L1325.39 51.6733 L1291.12 51.6733 Q1291.61 59.3701 1295.74 63.421 Q1299.91 67.4314 1307.33 67.4314 Q1311.62 67.4314 1315.63 66.3781 Q1319.68 65.3249 1323.65 63.2184 L1323.65 70.267 Q1319.64 71.9684 1315.43 72.8596 Q1311.22 73.7508 1306.88 73.7508 Q1296.02 73.7508 1289.66 67.4314 Q1283.35 61.1119 1283.35 50.3365 Q1283.35 39.1965 1289.34 32.6746 Q1295.38 26.1121 1305.58 26.1121 Q1314.74 26.1121 1320.05 32.0264 Q1325.39 37.9003 1325.39 48.0275 M1317.94 45.84 Q1317.86 39.7232 1314.5 36.0774 Q1311.17 32.4315 1305.67 32.4315 Q1299.43 32.4315 1295.66 35.9558 Q1291.93 39.4801 1291.37 45.8805 L1317.94 45.84 Z" fill="#000000" fill-rule="evenodd" fill-opacity="1" /><path clip-path="url(#clip460)" d="M1381.58 32.4315 Q1375.58 32.4315 1372.1 37.1306 Q1368.62 41.7891 1368.62 49.9314 Q1368.62 58.0738 1372.06 62.7728 Q1375.54 67.4314 1381.58 67.4314 Q1387.53 67.4314 1391.02 62.7323 Q1394.5 58.0333 1394.5 49.9314 Q1394.5 41.8701 1391.02 37.1711 Q1387.53 32.4315 1381.58 32.4315 M1381.58 26.1121 Q1391.3 26.1121 1396.85 32.4315 Q1402.4 38.7509 1402.4 49.9314 Q1402.4 61.0714 1396.85 67.4314 Q1391.3 73.7508 1381.58 73.7508 Q1371.82 73.7508 1366.27 67.4314 Q1360.76 61.0714 1360.76 49.9314 Q1360.76 38.7509 1366.27 32.4315 Q1371.82 26.1121 1381.58 26.1121 Z" fill="#000000" fill-rule="evenodd" fill-opacity="1" /><path clip-path="url(#clip460)" d="M1437.73 9.54393 L1437.73 15.7418 L1430.6 15.7418 Q1426.59 15.7418 1425.01 17.3622 Q1423.47 18.9825 1423.47 23.1955 L1423.47 27.2059 L1435.74 27.2059 L1435.74 32.9987 L1423.47 32.9987 L1423.47 72.576 L1415.97 72.576 L1415.97 32.9987 L1408.84 32.9987 L1408.84 27.2059 L1415.97 27.2059 L1415.97 24.0462 Q1415.97 16.471 1419.5 13.0277 Q1423.02 9.54393 1430.68 9.54393 L1437.73 9.54393 Z" fill="#000000" fill-rule="evenodd" fill-opacity="1" /><path clip-path="url(#clip460)" d="M1470.33 9.54393 L1477.79 9.54393 L1477.79 72.576 L1470.33 72.576 L1470.33 9.54393 Z" fill="#000000" fill-rule="evenodd" fill-opacity="1" /><path clip-path="url(#clip460)" d="M1532.19 48.0275 L1532.19 51.6733 L1497.92 51.6733 Q1498.41 59.3701 1502.54 63.421 Q1506.71 67.4314 1514.13 67.4314 Q1518.42 67.4314 1522.43 66.3781 Q1526.48 65.3249 1530.45 63.2184 L1530.45 70.267 Q1526.44 71.9684 1522.23 72.8596 Q1518.01 73.7508 1513.68 73.7508 Q1502.82 73.7508 1496.46 67.4314 Q1490.14 61.1119 1490.14 50.3365 Q1490.14 39.1965 1496.14 32.6746 Q1502.18 26.1121 1512.38 26.1121 Q1521.54 26.1121 1526.85 32.0264 Q1532.19 37.9003 1532.19 48.0275 M1524.74 45.84 Q1524.66 39.7232 1521.3 36.0774 Q1517.97 32.4315 1512.46 32.4315 Q1506.23 32.4315 1502.46 35.9558 Q1498.73 39.4801 1498.16 45.8805 L1524.74 45.84 Z" fill="#000000" fill-rule="evenodd" fill-opacity="1" /><path clip-path="url(#clip460)" d="M1582.14 45.1919 L1582.14 72.576 L1574.69 72.576 L1574.69 45.4349 Q1574.69 38.994 1572.17 35.7938 Q1569.66 32.5936 1564.64 32.5936 Q1558.6 32.5936 1555.12 36.4419 Q1551.64 40.2903 1551.64 46.9338 L1551.64 72.576 L1544.14 72.576 L1544.14 27.2059 L1551.64 27.2059 L1551.64 34.2544 Q1554.31 30.163 1557.92 28.1376 Q1561.56 26.1121 1566.3 26.1121 Q1574.12 26.1121 1578.13 30.9732 Q1582.14 35.7938 1582.14 45.1919 Z" fill="#000000" fill-rule="evenodd" fill-opacity="1" /><path clip-path="url(#clip460)" d="M1626.86 49.3643 Q1626.86 41.2625 1623.5 36.8065 Q1620.18 32.3505 1614.14 32.3505 Q1608.15 32.3505 1604.78 36.8065 Q1601.46 41.2625 1601.46 49.3643 Q1601.46 57.4256 1604.78 61.8816 Q1608.15 66.3376 1614.14 66.3376 Q1620.18 66.3376 1623.5 61.8816 Q1626.86 57.4256 1626.86 49.3643 M1634.32 66.9452 Q1634.32 78.5308 1629.17 84.1616 Q1624.03 89.8329 1613.41 89.8329 Q1609.48 89.8329 1606 89.2252 Q1602.52 88.6581 1599.23 87.4428 L1599.23 80.1917 Q1602.52 81.9741 1605.72 82.8248 Q1608.92 83.6755 1612.24 83.6755 Q1619.57 83.6755 1623.22 79.8271 Q1626.86 76.0193 1626.86 68.282 L1626.86 64.5957 Q1624.55 68.6061 1620.95 70.5911 Q1617.34 72.576 1612.32 72.576 Q1603.97 72.576 1598.87 66.2161 Q1593.77 59.8562 1593.77 49.3643 Q1593.77 38.832 1598.87 32.472 Q1603.97 26.1121 1612.32 26.1121 Q1617.34 26.1121 1620.95 28.0971 Q1624.55 30.082 1626.86 34.0924 L1626.86 27.2059 L1634.32 27.2059 L1634.32 66.9452 Z" fill="#000000" fill-rule="evenodd" fill-opacity="1" /><path clip-path="url(#clip460)" d="M1657.04 14.324 L1657.04 27.2059 L1672.39 27.2059 L1672.39 32.9987 L1657.04 32.9987 L1657.04 57.6282 Q1657.04 63.1779 1658.54 64.7578 Q1660.08 66.3376 1664.74 66.3376 L1672.39 66.3376 L1672.39 72.576 L1664.74 72.576 Q1656.11 72.576 1652.83 69.3758 Q1649.55 66.1351 1649.55 57.6282 L1649.55 32.9987 L1644.08 32.9987 L1644.08 27.2059 L1649.55 27.2059 L1649.55 14.324 L1657.04 14.324 Z" fill="#000000" fill-rule="evenodd" fill-opacity="1" /><path clip-path="url(#clip460)" d="M1719.91 45.1919 L1719.91 72.576 L1712.46 72.576 L1712.46 45.4349 Q1712.46 38.994 1709.95 35.7938 Q1707.43 32.5936 1702.41 32.5936 Q1696.38 32.5936 1692.89 36.4419 Q1689.41 40.2903 1689.41 46.9338 L1689.41 72.576 L1681.91 72.576 L1681.91 9.54393 L1689.41 9.54393 L1689.41 34.2544 Q1692.08 30.163 1695.69 28.1376 Q1699.33 26.1121 1704.07 26.1121 Q1711.89 26.1121 1715.9 30.9732 Q1719.91 35.7938 1719.91 45.1919 Z" fill="#000000" fill-rule="evenodd" fill-opacity="1" /><path clip-path="url(#clip460)" d="M1753.09 12.096 L1804.25 12.096 L1804.25 18.9825 L1782.78 18.9825 L1782.78 72.576 L1774.56 72.576 L1774.56 18.9825 L1753.09 18.9825 L1753.09 12.096 Z" fill="#000000" fill-rule="evenodd" fill-opacity="1" /><polyline clip-path="url(#clip462)" style="stroke:#009af9; stroke-linecap:butt; stroke-linejoin:round; stroke-width:4; stroke-opacity:1; fill:none" points="
  495.481,1326.62 690.984,1270.15 886.487,1228.55 1081.99,1197.89 1277.49,1175.3 1472.99,1158.65 1668.5,1146.39 1864,1137.35 2059.5,1130.69 2255,1125.79 
  2450.51,1122.17 
  "/>
<polyline clip-path="url(#clip462)" style="stroke:#008000; stroke-linecap:butt; stroke-linejoin:round; stroke-width:4; stroke-opacity:1; fill:none" points="
  495.481,1326.62 690.984,1255.1 886.487,1188.34 1081.99,1126.03 1277.49,1067.88 1472.99,1013.61 1668.5,962.949 1864,915.669 2059.5,871.541 2255,830.355 
  2450.51,791.915 
  "/>
<polyline clip-path="url(#clip462)" style="stroke:#ffa500; stroke-linecap:butt; stroke-linejoin:round; stroke-width:4; stroke-opacity:1; fill:none" points="
  495.481,1326.62 690.984,1249.99 886.487,1173.37 1081.99,1096.75 1277.49,1020.14 1472.99,943.535 1668.5,866.934 1864,790.339 2059.5,713.749 2255,637.164 
  2450.51,560.585 
  "/>
<polyline clip-path="url(#clip462)" style="stroke:#ff0000; stroke-linecap:butt; stroke-linejoin:round; stroke-width:4; stroke-opacity:1; fill:none" points="
  495.481,1326.62 690.984,1244.51 886.487,1156.54 1081.99,1062.29 1277.49,961.297 1472.99,853.094 1668.5,737.164 1864,612.952 2059.5,479.868 2255,337.278 
  2450.51,184.503 
  "/>
<path clip-path="url(#clip460)" d="
M273.912 425.996 L1018.62 425.996 L1018.62 166.796 L273.912 166.796  Z
  " fill="#ffffff" fill-rule="evenodd" fill-opacity="1"/>
<polyline clip-path="url(#clip460)" style="stroke:#000000; stroke-linecap:butt; stroke-linejoin:round; stroke-width:4; stroke-opacity:1; fill:none" points="
  273.912,425.996 1018.62,425.996 1018.62,166.796 273.912,166.796 273.912,425.996 
  "/>
<polyline clip-path="url(#clip460)" style="stroke:#009af9; stroke-linecap:butt; stroke-linejoin:round; stroke-width:4; stroke-opacity:1; fill:none" points="
  297.807,218.636 441.175,218.636 
  "/>
<path clip-path="url(#clip460)" d="M480.255 213.971 Q479.537 213.555 478.681 213.37 Q477.848 213.161 476.829 213.161 Q473.218 213.161 471.274 215.522 Q469.352 217.86 469.352 222.258 L469.352 235.916 L465.07 235.916 L465.07 209.99 L469.352 209.99 L469.352 214.018 Q470.695 211.657 472.848 210.522 Q475 209.365 478.079 209.365 Q478.519 209.365 479.051 209.434 Q479.584 209.481 480.232 209.596 L480.255 213.971 Z" fill="#000000" fill-rule="evenodd" fill-opacity="1" /><path clip-path="url(#clip460)" d="M494.954 199.944 Q491.852 205.268 490.347 210.476 Q488.843 215.684 488.843 221.032 Q488.843 226.379 490.347 231.633 Q491.875 236.865 494.954 242.166 L491.25 242.166 Q487.778 236.726 486.042 231.471 Q484.329 226.217 484.329 221.032 Q484.329 215.87 486.042 210.638 Q487.755 205.407 491.25 199.944 L494.954 199.944 Z" fill="#000000" fill-rule="evenodd" fill-opacity="1" /><path clip-path="url(#clip460)" d="M503.773 214.388 L533.449 214.388 L533.449 218.277 L503.773 218.277 L503.773 214.388 M503.773 223.832 L533.449 223.832 L533.449 227.768 L503.773 227.768 L503.773 223.832 Z" fill="#000000" fill-rule="evenodd" fill-opacity="1" /><path clip-path="url(#clip460)" d="M553.542 204.434 Q549.93 204.434 548.102 207.999 Q546.296 211.541 546.296 218.67 Q546.296 225.777 548.102 229.342 Q549.93 232.883 553.542 232.883 Q557.176 232.883 558.981 229.342 Q560.81 225.777 560.81 218.67 Q560.81 211.541 558.981 207.999 Q557.176 204.434 553.542 204.434 M553.542 200.731 Q559.352 200.731 562.407 205.337 Q565.486 209.92 565.486 218.67 Q565.486 227.397 562.407 232.004 Q559.352 236.587 553.542 236.587 Q547.731 236.587 544.653 232.004 Q541.597 227.397 541.597 218.67 Q541.597 209.92 544.653 205.337 Q547.731 200.731 553.542 200.731 Z" fill="#000000" fill-rule="evenodd" fill-opacity="1" /><path clip-path="url(#clip460)" d="M573.704 230.036 L578.588 230.036 L578.588 235.916 L573.704 235.916 L573.704 230.036 Z" fill="#000000" fill-rule="evenodd" fill-opacity="1" /><path clip-path="url(#clip460)" d="M588.912 235.198 L588.912 230.939 Q590.671 231.772 592.477 232.212 Q594.282 232.652 596.018 232.652 Q600.648 232.652 603.078 229.55 Q605.532 226.425 605.879 220.082 Q604.537 222.073 602.477 223.138 Q600.416 224.203 597.916 224.203 Q592.731 224.203 589.699 221.078 Q586.69 217.93 586.69 212.49 Q586.69 207.166 589.838 203.948 Q592.986 200.731 598.217 200.731 Q604.213 200.731 607.361 205.337 Q610.532 209.92 610.532 218.67 Q610.532 226.842 606.643 231.726 Q602.777 236.587 596.227 236.587 Q594.467 236.587 592.662 236.24 Q590.856 235.893 588.912 235.198 M598.217 220.545 Q601.365 220.545 603.194 218.393 Q605.046 216.24 605.046 212.49 Q605.046 208.763 603.194 206.61 Q601.365 204.434 598.217 204.434 Q595.069 204.434 593.217 206.61 Q591.389 208.763 591.389 212.49 Q591.389 216.24 593.217 218.393 Q595.069 220.545 598.217 220.545 Z" fill="#000000" fill-rule="evenodd" fill-opacity="1" /><path clip-path="url(#clip460)" d="M617.662 199.944 L621.365 199.944 Q624.837 205.407 626.55 210.638 Q628.287 215.87 628.287 221.032 Q628.287 226.217 626.55 231.471 Q624.837 236.726 621.365 242.166 L617.662 242.166 Q620.74 236.865 622.245 231.633 Q623.773 226.379 623.773 221.032 Q623.773 215.684 622.245 210.476 Q620.74 205.268 617.662 199.944 Z" fill="#000000" fill-rule="evenodd" fill-opacity="1" /><path clip-path="url(#clip460)" d="M652.453 212.583 L652.453 208.37 L682.129 219.133 L682.129 222.976 L652.453 233.74 L652.453 229.527 L676.296 221.078 L652.453 212.583 Z" fill="#000000" fill-rule="evenodd" fill-opacity="1" /><path clip-path="url(#clip460)" d="M692.175 212.583 L692.175 208.37 L721.851 219.133 L721.851 222.976 L692.175 233.74 L692.175 229.527 L716.018 221.078 L692.175 212.583 Z" fill="#000000" fill-rule="evenodd" fill-opacity="1" /><path clip-path="url(#clip460)" d="M763.471 222.652 Q763.471 218.022 761.55 215.476 Q759.652 212.93 756.203 212.93 Q752.777 212.93 750.855 215.476 Q748.957 218.022 748.957 222.652 Q748.957 227.258 750.855 229.805 Q752.777 232.351 756.203 232.351 Q759.652 232.351 761.55 229.805 Q763.471 227.258 763.471 222.652 M767.73 232.698 Q767.73 239.318 764.79 242.536 Q761.851 245.777 755.786 245.777 Q753.541 245.777 751.55 245.43 Q749.559 245.105 747.684 244.411 L747.684 240.268 Q749.559 241.286 751.388 241.772 Q753.216 242.258 755.115 242.258 Q759.304 242.258 761.388 240.059 Q763.471 237.883 763.471 233.462 L763.471 231.356 Q762.152 233.647 760.091 234.781 Q758.031 235.916 755.161 235.916 Q750.392 235.916 747.476 232.281 Q744.559 228.647 744.559 222.652 Q744.559 216.633 747.476 212.999 Q750.392 209.365 755.161 209.365 Q758.031 209.365 760.091 210.499 Q762.152 211.633 763.471 213.925 L763.471 209.99 L767.73 209.99 L767.73 232.698 Z" fill="#000000" fill-rule="evenodd" fill-opacity="1" /><path clip-path="url(#clip460)" d="M786.735 199.944 Q783.633 205.268 782.128 210.476 Q780.624 215.684 780.624 221.032 Q780.624 226.379 782.128 231.633 Q783.656 236.865 786.735 242.166 L783.031 242.166 Q779.559 236.726 777.823 231.471 Q776.11 226.217 776.11 221.032 Q776.11 215.87 777.823 210.638 Q779.536 205.407 783.031 199.944 L786.735 199.944 Z" fill="#000000" fill-rule="evenodd" fill-opacity="1" /><path clip-path="url(#clip460)" d="M795.554 214.388 L825.23 214.388 L825.23 218.277 L795.554 218.277 L795.554 214.388 M795.554 223.832 L825.23 223.832 L825.23 227.768 L795.554 227.768 L795.554 223.832 Z" fill="#000000" fill-rule="evenodd" fill-opacity="1" /><path clip-path="url(#clip460)" d="M845.322 204.434 Q841.711 204.434 839.883 207.999 Q838.077 211.541 838.077 218.67 Q838.077 225.777 839.883 229.342 Q841.711 232.883 845.322 232.883 Q848.957 232.883 850.762 229.342 Q852.591 225.777 852.591 218.67 Q852.591 211.541 850.762 207.999 Q848.957 204.434 845.322 204.434 M845.322 200.731 Q851.133 200.731 854.188 205.337 Q857.267 209.92 857.267 218.67 Q857.267 227.397 854.188 232.004 Q851.133 236.587 845.322 236.587 Q839.512 236.587 836.434 232.004 Q833.378 227.397 833.378 218.67 Q833.378 209.92 836.434 205.337 Q839.512 200.731 845.322 200.731 Z" fill="#000000" fill-rule="evenodd" fill-opacity="1" /><path clip-path="url(#clip460)" d="M865.484 230.036 L870.369 230.036 L870.369 235.916 L865.484 235.916 L865.484 230.036 Z" fill="#000000" fill-rule="evenodd" fill-opacity="1" /><path clip-path="url(#clip460)" d="M893.401 205.43 L881.595 223.879 L893.401 223.879 L893.401 205.43 M892.174 201.356 L898.054 201.356 L898.054 223.879 L902.984 223.879 L902.984 227.768 L898.054 227.768 L898.054 235.916 L893.401 235.916 L893.401 227.768 L877.799 227.768 L877.799 223.254 L892.174 201.356 Z" fill="#000000" fill-rule="evenodd" fill-opacity="1" /><path clip-path="url(#clip460)" d="M909.442 199.944 L913.146 199.944 Q916.618 205.407 918.331 210.638 Q920.067 215.87 920.067 221.032 Q920.067 226.217 918.331 231.471 Q916.618 236.726 913.146 242.166 L909.442 242.166 Q912.521 236.865 914.026 231.633 Q915.554 226.379 915.554 221.032 Q915.554 215.684 914.026 210.476 Q912.521 205.268 909.442 199.944 Z" fill="#000000" fill-rule="evenodd" fill-opacity="1" /><polyline clip-path="url(#clip460)" style="stroke:#008000; stroke-linecap:butt; stroke-linejoin:round; stroke-width:4; stroke-opacity:1; fill:none" points="
  297.807,270.476 441.175,270.476 
  "/>
<path clip-path="url(#clip460)" d="M480.255 265.811 Q479.537 265.395 478.681 265.21 Q477.848 265.001 476.829 265.001 Q473.218 265.001 471.274 267.362 Q469.352 269.7 469.352 274.098 L469.352 287.756 L465.07 287.756 L465.07 261.83 L469.352 261.83 L469.352 265.858 Q470.695 263.497 472.848 262.362 Q475 261.205 478.079 261.205 Q478.519 261.205 479.051 261.274 Q479.584 261.321 480.232 261.436 L480.255 265.811 Z" fill="#000000" fill-rule="evenodd" fill-opacity="1" /><path clip-path="url(#clip460)" d="M494.954 251.784 Q491.852 257.108 490.347 262.316 Q488.843 267.524 488.843 272.872 Q488.843 278.219 490.347 283.473 Q491.875 288.705 494.954 294.006 L491.25 294.006 Q487.778 288.566 486.042 283.311 Q484.329 278.057 484.329 272.872 Q484.329 267.71 486.042 262.478 Q487.755 257.247 491.25 251.784 L494.954 251.784 Z" fill="#000000" fill-rule="evenodd" fill-opacity="1" /><path clip-path="url(#clip460)" d="M503.773 266.228 L533.449 266.228 L533.449 270.117 L503.773 270.117 L503.773 266.228 M503.773 275.672 L533.449 275.672 L533.449 279.608 L503.773 279.608 L503.773 275.672 Z" fill="#000000" fill-rule="evenodd" fill-opacity="1" /><path clip-path="url(#clip460)" d="M553.542 256.274 Q549.93 256.274 548.102 259.839 Q546.296 263.381 546.296 270.51 Q546.296 277.617 548.102 281.182 Q549.93 284.723 553.542 284.723 Q557.176 284.723 558.981 281.182 Q560.81 277.617 560.81 270.51 Q560.81 263.381 558.981 259.839 Q557.176 256.274 553.542 256.274 M553.542 252.571 Q559.352 252.571 562.407 257.177 Q565.486 261.76 565.486 270.51 Q565.486 279.237 562.407 283.844 Q559.352 288.427 553.542 288.427 Q547.731 288.427 544.653 283.844 Q541.597 279.237 541.597 270.51 Q541.597 261.76 544.653 257.177 Q547.731 252.571 553.542 252.571 Z" fill="#000000" fill-rule="evenodd" fill-opacity="1" /><path clip-path="url(#clip460)" d="M573.704 281.876 L578.588 281.876 L578.588 287.756 L573.704 287.756 L573.704 281.876 Z" fill="#000000" fill-rule="evenodd" fill-opacity="1" /><path clip-path="url(#clip460)" d="M588.819 253.196 L607.176 253.196 L607.176 257.131 L593.102 257.131 L593.102 265.603 Q594.12 265.256 595.139 265.094 Q596.157 264.909 597.176 264.909 Q602.963 264.909 606.342 268.08 Q609.722 271.251 609.722 276.668 Q609.722 282.246 606.25 285.348 Q602.777 288.427 596.458 288.427 Q594.282 288.427 592.014 288.057 Q589.768 287.686 587.361 286.946 L587.361 282.246 Q589.444 283.381 591.666 283.936 Q593.889 284.492 596.365 284.492 Q600.37 284.492 602.708 282.385 Q605.046 280.279 605.046 276.668 Q605.046 273.057 602.708 270.95 Q600.37 268.844 596.365 268.844 Q594.49 268.844 592.615 269.26 Q590.764 269.677 588.819 270.557 L588.819 253.196 Z" fill="#000000" fill-rule="evenodd" fill-opacity="1" /><path clip-path="url(#clip460)" d="M617.662 251.784 L621.365 251.784 Q624.837 257.247 626.55 262.478 Q628.287 267.71 628.287 272.872 Q628.287 278.057 626.55 283.311 Q624.837 288.566 621.365 294.006 L617.662 294.006 Q620.74 288.705 622.245 283.473 Q623.773 278.219 623.773 272.872 Q623.773 267.524 622.245 262.316 Q620.74 257.108 617.662 251.784 Z" fill="#000000" fill-rule="evenodd" fill-opacity="1" /><path clip-path="url(#clip460)" d="M652.453 264.423 L652.453 260.21 L682.129 270.973 L682.129 274.816 L652.453 285.58 L652.453 281.367 L676.296 272.918 L652.453 264.423 Z" fill="#000000" fill-rule="evenodd" fill-opacity="1" /><path clip-path="url(#clip460)" d="M723.749 274.492 Q723.749 269.862 721.828 267.316 Q719.93 264.77 716.481 264.77 Q713.055 264.77 711.133 267.316 Q709.235 269.862 709.235 274.492 Q709.235 279.098 711.133 281.645 Q713.055 284.191 716.481 284.191 Q719.93 284.191 721.828 281.645 Q723.749 279.098 723.749 274.492 M728.008 284.538 Q728.008 291.158 725.068 294.376 Q722.129 297.617 716.064 297.617 Q713.819 297.617 711.828 297.27 Q709.837 296.945 707.962 296.251 L707.962 292.108 Q709.837 293.126 711.666 293.612 Q713.494 294.098 715.393 294.098 Q719.582 294.098 721.666 291.899 Q723.749 289.723 723.749 285.302 L723.749 283.196 Q722.43 285.487 720.369 286.621 Q718.309 287.756 715.439 287.756 Q710.67 287.756 707.754 284.121 Q704.837 280.487 704.837 274.492 Q704.837 268.473 707.754 264.839 Q710.67 261.205 715.439 261.205 Q718.309 261.205 720.369 262.339 Q722.43 263.473 723.749 265.765 L723.749 261.83 L728.008 261.83 L728.008 284.538 Z" fill="#000000" fill-rule="evenodd" fill-opacity="1" /><path clip-path="url(#clip460)" d="M747.013 251.784 Q743.911 257.108 742.406 262.316 Q740.902 267.524 740.902 272.872 Q740.902 278.219 742.406 283.473 Q743.934 288.705 747.013 294.006 L743.309 294.006 Q739.837 288.566 738.101 283.311 Q736.388 278.057 736.388 272.872 Q736.388 267.71 738.101 262.478 Q739.814 257.247 743.309 251.784 L747.013 251.784 Z" fill="#000000" fill-rule="evenodd" fill-opacity="1" /><path clip-path="url(#clip460)" d="M755.832 266.228 L785.508 266.228 L785.508 270.117 L755.832 270.117 L755.832 266.228 M755.832 275.672 L785.508 275.672 L785.508 279.608 L755.832 279.608 L755.832 275.672 Z" fill="#000000" fill-rule="evenodd" fill-opacity="1" /><path clip-path="url(#clip460)" d="M805.6 256.274 Q801.989 256.274 800.161 259.839 Q798.355 263.381 798.355 270.51 Q798.355 277.617 800.161 281.182 Q801.989 284.723 805.6 284.723 Q809.235 284.723 811.04 281.182 Q812.869 277.617 812.869 270.51 Q812.869 263.381 811.04 259.839 Q809.235 256.274 805.6 256.274 M805.6 252.571 Q811.411 252.571 814.466 257.177 Q817.545 261.76 817.545 270.51 Q817.545 279.237 814.466 283.844 Q811.411 288.427 805.6 288.427 Q799.79 288.427 796.712 283.844 Q793.656 279.237 793.656 270.51 Q793.656 261.76 796.712 257.177 Q799.79 252.571 805.6 252.571 Z" fill="#000000" fill-rule="evenodd" fill-opacity="1" /><path clip-path="url(#clip460)" d="M825.762 281.876 L830.647 281.876 L830.647 287.756 L825.762 287.756 L825.762 281.876 Z" fill="#000000" fill-rule="evenodd" fill-opacity="1" /><path clip-path="url(#clip460)" d="M853.679 257.27 L841.873 275.719 L853.679 275.719 L853.679 257.27 M852.452 253.196 L858.332 253.196 L858.332 275.719 L863.262 275.719 L863.262 279.608 L858.332 279.608 L858.332 287.756 L853.679 287.756 L853.679 279.608 L838.077 279.608 L838.077 275.094 L852.452 253.196 Z" fill="#000000" fill-rule="evenodd" fill-opacity="1" /><path clip-path="url(#clip460)" d="M869.72 251.784 L873.424 251.784 Q876.896 257.247 878.609 262.478 Q880.345 267.71 880.345 272.872 Q880.345 278.057 878.609 283.311 Q876.896 288.566 873.424 294.006 L869.72 294.006 Q872.799 288.705 874.304 283.473 Q875.832 278.219 875.832 272.872 Q875.832 267.524 874.304 262.316 Q872.799 257.108 869.72 251.784 Z" fill="#000000" fill-rule="evenodd" fill-opacity="1" /><polyline clip-path="url(#clip460)" style="stroke:#ffa500; stroke-linecap:butt; stroke-linejoin:round; stroke-width:4; stroke-opacity:1; fill:none" points="
  297.807,322.316 441.175,322.316 
  "/>
<path clip-path="url(#clip460)" d="M480.255 317.651 Q479.537 317.235 478.681 317.05 Q477.848 316.841 476.829 316.841 Q473.218 316.841 471.274 319.202 Q469.352 321.54 469.352 325.938 L469.352 339.596 L465.07 339.596 L465.07 313.67 L469.352 313.67 L469.352 317.698 Q470.695 315.337 472.848 314.202 Q475 313.045 478.079 313.045 Q478.519 313.045 479.051 313.114 Q479.584 313.161 480.232 313.276 L480.255 317.651 Z" fill="#000000" fill-rule="evenodd" fill-opacity="1" /><path clip-path="url(#clip460)" d="M494.954 303.624 Q491.852 308.948 490.347 314.156 Q488.843 319.364 488.843 324.712 Q488.843 330.059 490.347 335.313 Q491.875 340.545 494.954 345.846 L491.25 345.846 Q487.778 340.406 486.042 335.151 Q484.329 329.897 484.329 324.712 Q484.329 319.55 486.042 314.318 Q487.755 309.087 491.25 303.624 L494.954 303.624 Z" fill="#000000" fill-rule="evenodd" fill-opacity="1" /><path clip-path="url(#clip460)" d="M503.773 318.068 L533.449 318.068 L533.449 321.957 L503.773 321.957 L503.773 318.068 M503.773 327.512 L533.449 327.512 L533.449 331.448 L503.773 331.448 L503.773 327.512 Z" fill="#000000" fill-rule="evenodd" fill-opacity="1" /><path clip-path="url(#clip460)" d="M553.542 308.114 Q549.93 308.114 548.102 311.679 Q546.296 315.221 546.296 322.35 Q546.296 329.457 548.102 333.022 Q549.93 336.563 553.542 336.563 Q557.176 336.563 558.981 333.022 Q560.81 329.457 560.81 322.35 Q560.81 315.221 558.981 311.679 Q557.176 308.114 553.542 308.114 M553.542 304.411 Q559.352 304.411 562.407 309.017 Q565.486 313.6 565.486 322.35 Q565.486 331.077 562.407 335.684 Q559.352 340.267 553.542 340.267 Q547.731 340.267 544.653 335.684 Q541.597 331.077 541.597 322.35 Q541.597 313.6 544.653 309.017 Q547.731 304.411 553.542 304.411 Z" fill="#000000" fill-rule="evenodd" fill-opacity="1" /><path clip-path="url(#clip460)" d="M573.704 333.716 L578.588 333.716 L578.588 339.596 L573.704 339.596 L573.704 333.716 Z" fill="#000000" fill-rule="evenodd" fill-opacity="1" /><path clip-path="url(#clip460)" d="M601.62 309.11 L589.815 327.559 L601.62 327.559 L601.62 309.11 M600.393 305.036 L606.273 305.036 L606.273 327.559 L611.203 327.559 L611.203 331.448 L606.273 331.448 L606.273 339.596 L601.62 339.596 L601.62 331.448 L586.018 331.448 L586.018 326.934 L600.393 305.036 Z" fill="#000000" fill-rule="evenodd" fill-opacity="1" /><path clip-path="url(#clip460)" d="M628.935 308.114 Q625.324 308.114 623.495 311.679 Q621.689 315.221 621.689 322.35 Q621.689 329.457 623.495 333.022 Q625.324 336.563 628.935 336.563 Q632.569 336.563 634.374 333.022 Q636.203 329.457 636.203 322.35 Q636.203 315.221 634.374 311.679 Q632.569 308.114 628.935 308.114 M628.935 304.411 Q634.745 304.411 637.8 309.017 Q640.879 313.6 640.879 322.35 Q640.879 331.077 637.8 335.684 Q634.745 340.267 628.935 340.267 Q623.125 340.267 620.046 335.684 Q616.99 331.077 616.99 322.35 Q616.99 313.6 620.046 309.017 Q623.125 304.411 628.935 304.411 Z" fill="#000000" fill-rule="evenodd" fill-opacity="1" /><path clip-path="url(#clip460)" d="M659.097 308.114 Q655.485 308.114 653.657 311.679 Q651.851 315.221 651.851 322.35 Q651.851 329.457 653.657 333.022 Q655.485 336.563 659.097 336.563 Q662.731 336.563 664.536 333.022 Q666.365 329.457 666.365 322.35 Q666.365 315.221 664.536 311.679 Q662.731 308.114 659.097 308.114 M659.097 304.411 Q664.907 304.411 667.962 309.017 Q671.041 313.6 671.041 322.35 Q671.041 331.077 667.962 335.684 Q664.907 340.267 659.097 340.267 Q653.286 340.267 650.208 335.684 Q647.152 331.077 647.152 322.35 Q647.152 313.6 650.208 309.017 Q653.286 304.411 659.097 304.411 Z" fill="#000000" fill-rule="evenodd" fill-opacity="1" /><path clip-path="url(#clip460)" d="M680.069 335.661 L687.708 335.661 L687.708 309.295 L679.397 310.962 L679.397 306.702 L687.661 305.036 L692.337 305.036 L692.337 335.661 L699.976 335.661 L699.976 339.596 L680.069 339.596 L680.069 335.661 Z" fill="#000000" fill-rule="evenodd" fill-opacity="1" /><path clip-path="url(#clip460)" d="M708.147 303.624 L711.851 303.624 Q715.323 309.087 717.036 314.318 Q718.772 319.55 718.772 324.712 Q718.772 329.897 717.036 335.151 Q715.323 340.406 711.851 345.846 L708.147 345.846 Q711.226 340.545 712.731 335.313 Q714.258 330.059 714.258 324.712 Q714.258 319.364 712.731 314.156 Q711.226 308.948 708.147 303.624 Z" fill="#000000" fill-rule="evenodd" fill-opacity="1" /><path clip-path="url(#clip460)" d="M772.614 320.684 L772.614 324.804 Q770.184 326.633 768.101 327.42 Q766.04 328.207 763.795 328.207 Q761.249 328.207 757.869 326.841 Q757.615 326.749 757.499 326.702 Q757.337 326.633 756.99 326.517 Q753.402 325.082 751.226 325.082 Q749.189 325.082 747.198 325.985 Q745.207 326.864 742.939 328.786 L742.939 324.665 Q745.369 322.837 747.429 322.05 Q749.513 321.239 751.758 321.239 Q754.304 321.239 757.707 322.628 Q757.939 322.721 758.054 322.767 Q758.24 322.837 758.564 322.952 Q762.152 324.387 764.327 324.387 Q766.318 324.387 768.263 323.508 Q770.23 322.628 772.614 320.684 Z" fill="#000000" fill-rule="evenodd" fill-opacity="1" /><path clip-path="url(#clip460)" d="M814.235 326.332 Q814.235 321.702 812.313 319.156 Q810.415 316.61 806.966 316.61 Q803.54 316.61 801.619 319.156 Q799.721 321.702 799.721 326.332 Q799.721 330.938 801.619 333.485 Q803.54 336.031 806.966 336.031 Q810.415 336.031 812.313 333.485 Q814.235 330.938 814.235 326.332 M818.494 336.378 Q818.494 342.998 815.554 346.216 Q812.614 349.457 806.549 349.457 Q804.304 349.457 802.313 349.11 Q800.323 348.785 798.448 348.091 L798.448 343.948 Q800.323 344.966 802.151 345.452 Q803.98 345.938 805.878 345.938 Q810.068 345.938 812.151 343.739 Q814.235 341.563 814.235 337.142 L814.235 335.036 Q812.915 337.327 810.855 338.461 Q808.795 339.596 805.924 339.596 Q801.156 339.596 798.239 335.961 Q795.323 332.327 795.323 326.332 Q795.323 320.313 798.239 316.679 Q801.156 313.045 805.924 313.045 Q808.795 313.045 810.855 314.179 Q812.915 315.313 814.235 317.605 L814.235 313.67 L818.494 313.67 L818.494 336.378 Z" fill="#000000" fill-rule="evenodd" fill-opacity="1" /><path clip-path="url(#clip460)" d="M837.498 303.624 Q834.397 308.948 832.892 314.156 Q831.387 319.364 831.387 324.712 Q831.387 330.059 832.892 335.313 Q834.42 340.545 837.498 345.846 L833.795 345.846 Q830.323 340.406 828.586 335.151 Q826.873 329.897 826.873 324.712 Q826.873 319.55 828.586 314.318 Q830.299 309.087 833.795 303.624 L837.498 303.624 Z" fill="#000000" fill-rule="evenodd" fill-opacity="1" /><path clip-path="url(#clip460)" d="M846.318 318.068 L875.994 318.068 L875.994 321.957 L846.318 321.957 L846.318 318.068 M846.318 327.512 L875.994 327.512 L875.994 331.448 L846.318 331.448 L846.318 327.512 Z" fill="#000000" fill-rule="evenodd" fill-opacity="1" /><path clip-path="url(#clip460)" d="M896.086 308.114 Q892.475 308.114 890.646 311.679 Q888.841 315.221 888.841 322.35 Q888.841 329.457 890.646 333.022 Q892.475 336.563 896.086 336.563 Q899.72 336.563 901.526 333.022 Q903.355 329.457 903.355 322.35 Q903.355 315.221 901.526 311.679 Q899.72 308.114 896.086 308.114 M896.086 304.411 Q901.896 304.411 904.952 309.017 Q908.03 313.6 908.03 322.35 Q908.03 331.077 904.952 335.684 Q901.896 340.267 896.086 340.267 Q890.276 340.267 887.197 335.684 Q884.142 331.077 884.142 322.35 Q884.142 313.6 887.197 309.017 Q890.276 304.411 896.086 304.411 Z" fill="#000000" fill-rule="evenodd" fill-opacity="1" /><path clip-path="url(#clip460)" d="M916.248 333.716 L921.132 333.716 L921.132 339.596 L916.248 339.596 L916.248 333.716 Z" fill="#000000" fill-rule="evenodd" fill-opacity="1" /><path clip-path="url(#clip460)" d="M944.164 309.11 L932.359 327.559 L944.164 327.559 L944.164 309.11 M942.938 305.036 L948.817 305.036 L948.817 327.559 L953.748 327.559 L953.748 331.448 L948.817 331.448 L948.817 339.596 L944.164 339.596 L944.164 331.448 L928.563 331.448 L928.563 326.934 L942.938 305.036 Z" fill="#000000" fill-rule="evenodd" fill-opacity="1" /><path clip-path="url(#clip460)" d="M960.206 303.624 L963.91 303.624 Q967.382 309.087 969.095 314.318 Q970.831 319.55 970.831 324.712 Q970.831 329.897 969.095 335.151 Q967.382 340.406 963.91 345.846 L960.206 345.846 Q963.285 340.545 964.789 335.313 Q966.317 330.059 966.317 324.712 Q966.317 319.364 964.789 314.156 Q963.285 308.948 960.206 303.624 Z" fill="#000000" fill-rule="evenodd" fill-opacity="1" /><polyline clip-path="url(#clip460)" style="stroke:#ff0000; stroke-linecap:butt; stroke-linejoin:round; stroke-width:4; stroke-opacity:1; fill:none" points="
  297.807,374.156 441.175,374.156 
  "/>
<path clip-path="url(#clip460)" d="M480.255 369.491 Q479.537 369.075 478.681 368.89 Q477.848 368.681 476.829 368.681 Q473.218 368.681 471.274 371.042 Q469.352 373.38 469.352 377.778 L469.352 391.436 L465.07 391.436 L465.07 365.51 L469.352 365.51 L469.352 369.538 Q470.695 367.177 472.848 366.042 Q475 364.885 478.079 364.885 Q478.519 364.885 479.051 364.954 Q479.584 365.001 480.232 365.116 L480.255 369.491 Z" fill="#000000" fill-rule="evenodd" fill-opacity="1" /><path clip-path="url(#clip460)" d="M494.954 355.464 Q491.852 360.788 490.347 365.996 Q488.843 371.204 488.843 376.552 Q488.843 381.899 490.347 387.153 Q491.875 392.385 494.954 397.686 L491.25 397.686 Q487.778 392.246 486.042 386.991 Q484.329 381.737 484.329 376.552 Q484.329 371.39 486.042 366.158 Q487.755 360.927 491.25 355.464 L494.954 355.464 Z" fill="#000000" fill-rule="evenodd" fill-opacity="1" /><path clip-path="url(#clip460)" d="M503.773 369.908 L533.449 369.908 L533.449 373.797 L503.773 373.797 L503.773 369.908 M503.773 379.352 L533.449 379.352 L533.449 383.288 L503.773 383.288 L503.773 379.352 Z" fill="#000000" fill-rule="evenodd" fill-opacity="1" /><path clip-path="url(#clip460)" d="M553.542 359.954 Q549.93 359.954 548.102 363.519 Q546.296 367.061 546.296 374.19 Q546.296 381.297 548.102 384.862 Q549.93 388.403 553.542 388.403 Q557.176 388.403 558.981 384.862 Q560.81 381.297 560.81 374.19 Q560.81 367.061 558.981 363.519 Q557.176 359.954 553.542 359.954 M553.542 356.251 Q559.352 356.251 562.407 360.857 Q565.486 365.44 565.486 374.19 Q565.486 382.917 562.407 387.524 Q559.352 392.107 553.542 392.107 Q547.731 392.107 544.653 387.524 Q541.597 382.917 541.597 374.19 Q541.597 365.44 544.653 360.857 Q547.731 356.251 553.542 356.251 Z" fill="#000000" fill-rule="evenodd" fill-opacity="1" /><path clip-path="url(#clip460)" d="M573.704 385.556 L578.588 385.556 L578.588 391.436 L573.704 391.436 L573.704 385.556 Z" fill="#000000" fill-rule="evenodd" fill-opacity="1" /><path clip-path="url(#clip460)" d="M601.62 360.95 L589.815 379.399 L601.62 379.399 L601.62 360.95 M600.393 356.876 L606.273 356.876 L606.273 379.399 L611.203 379.399 L611.203 383.288 L606.273 383.288 L606.273 391.436 L601.62 391.436 L601.62 383.288 L586.018 383.288 L586.018 378.774 L600.393 356.876 Z" fill="#000000" fill-rule="evenodd" fill-opacity="1" /><path clip-path="url(#clip460)" d="M617.662 355.464 L621.365 355.464 Q624.837 360.927 626.55 366.158 Q628.287 371.39 628.287 376.552 Q628.287 381.737 626.55 386.991 Q624.837 392.246 621.365 397.686 L617.662 397.686 Q620.74 392.385 622.245 387.153 Q623.773 381.899 623.773 376.552 Q623.773 371.204 622.245 365.996 Q620.74 360.788 617.662 355.464 Z" fill="#000000" fill-rule="evenodd" fill-opacity="1" /><path clip-path="url(#clip460)" d="M682.129 368.103 L658.24 376.598 L682.129 385.047 L682.129 389.26 L652.453 378.496 L652.453 374.653 L682.129 363.89 L682.129 368.103 Z" fill="#000000" fill-rule="evenodd" fill-opacity="1" /><path clip-path="url(#clip460)" d="M723.749 378.172 Q723.749 373.542 721.828 370.996 Q719.93 368.45 716.481 368.45 Q713.055 368.45 711.133 370.996 Q709.235 373.542 709.235 378.172 Q709.235 382.778 711.133 385.325 Q713.055 387.871 716.481 387.871 Q719.93 387.871 721.828 385.325 Q723.749 382.778 723.749 378.172 M728.008 388.218 Q728.008 394.838 725.068 398.056 Q722.129 401.297 716.064 401.297 Q713.819 401.297 711.828 400.95 Q709.837 400.625 707.962 399.931 L707.962 395.788 Q709.837 396.806 711.666 397.292 Q713.494 397.778 715.393 397.778 Q719.582 397.778 721.666 395.579 Q723.749 393.403 723.749 388.982 L723.749 386.876 Q722.43 389.167 720.369 390.301 Q718.309 391.436 715.439 391.436 Q710.67 391.436 707.754 387.801 Q704.837 384.167 704.837 378.172 Q704.837 372.153 707.754 368.519 Q710.67 364.885 715.439 364.885 Q718.309 364.885 720.369 366.019 Q722.43 367.153 723.749 369.445 L723.749 365.51 L728.008 365.51 L728.008 388.218 Z" fill="#000000" fill-rule="evenodd" fill-opacity="1" /><path clip-path="url(#clip460)" d="M747.013 355.464 Q743.911 360.788 742.406 365.996 Q740.902 371.204 740.902 376.552 Q740.902 381.899 742.406 387.153 Q743.934 392.385 747.013 397.686 L743.309 397.686 Q739.837 392.246 738.101 386.991 Q736.388 381.737 736.388 376.552 Q736.388 371.39 738.101 366.158 Q739.814 360.927 743.309 355.464 L747.013 355.464 Z" fill="#000000" fill-rule="evenodd" fill-opacity="1" /><path clip-path="url(#clip460)" d="M755.832 369.908 L785.508 369.908 L785.508 373.797 L755.832 373.797 L755.832 369.908 M755.832 379.352 L785.508 379.352 L785.508 383.288 L755.832 383.288 L755.832 379.352 Z" fill="#000000" fill-rule="evenodd" fill-opacity="1" /><path clip-path="url(#clip460)" d="M805.6 359.954 Q801.989 359.954 800.161 363.519 Q798.355 367.061 798.355 374.19 Q798.355 381.297 800.161 384.862 Q801.989 388.403 805.6 388.403 Q809.235 388.403 811.04 384.862 Q812.869 381.297 812.869 374.19 Q812.869 367.061 811.04 363.519 Q809.235 359.954 805.6 359.954 M805.6 356.251 Q811.411 356.251 814.466 360.857 Q817.545 365.44 817.545 374.19 Q817.545 382.917 814.466 387.524 Q811.411 392.107 805.6 392.107 Q799.79 392.107 796.712 387.524 Q793.656 382.917 793.656 374.19 Q793.656 365.44 796.712 360.857 Q799.79 356.251 805.6 356.251 Z" fill="#000000" fill-rule="evenodd" fill-opacity="1" /><path clip-path="url(#clip460)" d="M825.762 385.556 L830.647 385.556 L830.647 391.436 L825.762 391.436 L825.762 385.556 Z" fill="#000000" fill-rule="evenodd" fill-opacity="1" /><path clip-path="url(#clip460)" d="M840.878 356.876 L859.234 356.876 L859.234 360.811 L845.16 360.811 L845.16 369.283 Q846.179 368.936 847.197 368.774 Q848.216 368.589 849.234 368.589 Q855.021 368.589 858.401 371.76 Q861.781 374.931 861.781 380.348 Q861.781 385.926 858.308 389.028 Q854.836 392.107 848.517 392.107 Q846.341 392.107 844.072 391.737 Q841.827 391.366 839.42 390.626 L839.42 385.926 Q841.503 387.061 843.725 387.616 Q845.947 388.172 848.424 388.172 Q852.429 388.172 854.767 386.065 Q857.105 383.959 857.105 380.348 Q857.105 376.737 854.767 374.63 Q852.429 372.524 848.424 372.524 Q846.549 372.524 844.674 372.94 Q842.822 373.357 840.878 374.237 L840.878 356.876 Z" fill="#000000" fill-rule="evenodd" fill-opacity="1" /><path clip-path="url(#clip460)" d="M869.72 355.464 L873.424 355.464 Q876.896 360.927 878.609 366.158 Q880.345 371.39 880.345 376.552 Q880.345 381.737 878.609 386.991 Q876.896 392.246 873.424 397.686 L869.72 397.686 Q872.799 392.385 874.304 387.153 Q875.832 381.899 875.832 376.552 Q875.832 371.204 874.304 365.996 Q872.799 360.788 869.72 355.464 Z" fill="#000000" fill-rule="evenodd" fill-opacity="1" /></svg>
