<?xml version="1.0" encoding="utf-8"?>
<svg xmlns="http://www.w3.org/2000/svg" xmlns:xlink="http://www.w3.org/1999/xlink" width="600" height="400" viewBox="0 0 2400 1600">
<defs>
  <clipPath id="clip400">
    <rect x="0" y="0" width="2400" height="1600"/>
  </clipPath>
</defs>
<path clip-path="url(#clip400)" d="
M0 1600 L2400 1600 L2400 0 L0 0  Z
  " fill="#ffffff" fill-rule="evenodd" fill-opacity="1"/>
<defs>
  <clipPath id="clip401">
    <rect x="480" y="0" width="1681" height="1600"/>
  </clipPath>
</defs>
<path clip-path="url(#clip400)" d="
M175.445 1423.18 L2352.76 1423.18 L2352.76 47.2441 L175.445 47.2441  Z
  " fill="#ffffff" fill-rule="evenodd" fill-opacity="1"/>
<defs>
  <clipPath id="clip402">
    <rect x="175" y="47" width="2178" height="1377"/>
  </clipPath>
</defs>
<polyline clip-path="url(#clip402)" style="stroke:#000000; stroke-linecap:butt; stroke-linejoin:round; stroke-width:2; stroke-opacity:0.1; fill:none" points="
  237.067,1423.18 237.067,47.2441 
  "/>
<polyline clip-path="url(#clip402)" style="stroke:#000000; stroke-linecap:butt; stroke-linejoin:round; stroke-width:2; stroke-opacity:0.1; fill:none" points="
  750.584,1423.18 750.584,47.2441 
  "/>
<polyline clip-path="url(#clip402)" style="stroke:#000000; stroke-linecap:butt; stroke-linejoin:round; stroke-width:2; stroke-opacity:0.1; fill:none" points="
  1264.1,1423.18 1264.1,47.2441 
  "/>
<polyline clip-path="url(#clip402)" style="stroke:#000000; stroke-linecap:butt; stroke-linejoin:round; stroke-width:2; stroke-opacity:0.1; fill:none" points="
  1777.62,1423.18 1777.62,47.2441 
  "/>
<polyline clip-path="url(#clip402)" style="stroke:#000000; stroke-linecap:butt; stroke-linejoin:round; stroke-width:2; stroke-opacity:0.1; fill:none" points="
  2291.13,1423.18 2291.13,47.2441 
  "/>
<polyline clip-path="url(#clip400)" style="stroke:#000000; stroke-linecap:butt; stroke-linejoin:round; stroke-width:4; stroke-opacity:1; fill:none" points="
  175.445,1423.18 2352.76,1423.18 
  "/>
<polyline clip-path="url(#clip400)" style="stroke:#000000; stroke-linecap:butt; stroke-linejoin:round; stroke-width:4; stroke-opacity:1; fill:none" points="
  237.067,1423.18 237.067,1404.28 
  "/>
<polyline clip-path="url(#clip400)" style="stroke:#000000; stroke-linecap:butt; stroke-linejoin:round; stroke-width:4; stroke-opacity:1; fill:none" points="
  750.584,1423.18 750.584,1404.28 
  "/>
<polyline clip-path="url(#clip400)" style="stroke:#000000; stroke-linecap:butt; stroke-linejoin:round; stroke-width:4; stroke-opacity:1; fill:none" points="
  1264.1,1423.18 1264.1,1404.28 
  "/>
<polyline clip-path="url(#clip400)" style="stroke:#000000; stroke-linecap:butt; stroke-linejoin:round; stroke-width:4; stroke-opacity:1; fill:none" points="
  1777.62,1423.18 1777.62,1404.28 
  "/>
<polyline clip-path="url(#clip400)" style="stroke:#000000; stroke-linecap:butt; stroke-linejoin:round; stroke-width:4; stroke-opacity:1; fill:none" points="
  2291.13,1423.18 2291.13,1404.28 
  "/>
<path clip-path="url(#clip400)" d="M237.067 1454.1 Q233.456 1454.1 231.627 1457.66 Q229.822 1461.2 229.822 1468.33 Q229.822 1475.44 231.627 1479.01 Q233.456 1482.55 237.067 1482.55 Q240.701 1482.55 242.507 1479.01 Q244.336 1475.44 244.336 1468.33 Q244.336 1461.2 242.507 1457.66 Q240.701 1454.1 237.067 1454.1 M237.067 1450.39 Q242.877 1450.39 245.933 1455 Q249.012 1459.58 249.012 1468.33 Q249.012 1477.06 245.933 1481.67 Q242.877 1486.25 237.067 1486.25 Q231.257 1486.25 228.178 1481.67 Q225.123 1477.06 225.123 1468.33 Q225.123 1459.58 228.178 1455 Q231.257 1450.39 237.067 1450.39 Z" fill="#000000" fill-rule="evenodd" fill-opacity="1" /><path clip-path="url(#clip400)" d="M740.966 1481.64 L748.605 1481.64 L748.605 1455.28 L740.295 1456.95 L740.295 1452.69 L748.558 1451.02 L753.234 1451.02 L753.234 1481.64 L760.873 1481.64 L760.873 1485.58 L740.966 1485.58 L740.966 1481.64 Z" fill="#000000" fill-rule="evenodd" fill-opacity="1" /><path clip-path="url(#clip400)" d="M1258.75 1481.64 L1275.07 1481.64 L1275.07 1485.58 L1253.13 1485.58 L1253.13 1481.64 Q1255.79 1478.89 1260.37 1474.26 Q1264.98 1469.61 1266.16 1468.27 Q1268.41 1465.74 1269.29 1464.01 Q1270.19 1462.25 1270.19 1460.56 Q1270.19 1457.8 1268.24 1456.07 Q1266.32 1454.33 1263.22 1454.33 Q1261.02 1454.33 1258.57 1455.09 Q1256.14 1455.86 1253.36 1457.41 L1253.36 1452.69 Q1256.18 1451.55 1258.64 1450.97 Q1261.09 1450.39 1263.13 1450.39 Q1268.5 1450.39 1271.69 1453.08 Q1274.89 1455.77 1274.89 1460.26 Q1274.89 1462.39 1274.08 1464.31 Q1273.29 1466.2 1271.18 1468.8 Q1270.61 1469.47 1267.5 1472.69 Q1264.4 1475.88 1258.75 1481.64 Z" fill="#000000" fill-rule="evenodd" fill-opacity="1" /><path clip-path="url(#clip400)" d="M1781.86 1466.95 Q1785.22 1467.66 1787.1 1469.93 Q1788.99 1472.2 1788.99 1475.53 Q1788.99 1480.65 1785.48 1483.45 Q1781.96 1486.25 1775.48 1486.25 Q1773.3 1486.25 1770.99 1485.81 Q1768.69 1485.39 1766.24 1484.54 L1766.24 1480.02 Q1768.18 1481.16 1770.5 1481.74 Q1772.81 1482.32 1775.34 1482.32 Q1779.74 1482.32 1782.03 1480.58 Q1784.34 1478.84 1784.34 1475.53 Q1784.34 1472.48 1782.19 1470.77 Q1780.06 1469.03 1776.24 1469.03 L1772.21 1469.03 L1772.21 1465.19 L1776.43 1465.19 Q1779.87 1465.19 1781.7 1463.82 Q1783.53 1462.43 1783.53 1459.84 Q1783.53 1457.18 1781.63 1455.77 Q1779.76 1454.33 1776.24 1454.33 Q1774.32 1454.33 1772.12 1454.75 Q1769.92 1455.16 1767.28 1456.04 L1767.28 1451.88 Q1769.94 1451.14 1772.26 1450.77 Q1774.6 1450.39 1776.66 1450.39 Q1781.98 1450.39 1785.08 1452.83 Q1788.18 1455.23 1788.18 1459.35 Q1788.18 1462.22 1786.54 1464.21 Q1784.9 1466.18 1781.86 1466.95 Z" fill="#000000" fill-rule="evenodd" fill-opacity="1" /><path clip-path="url(#clip400)" d="M2294.14 1455.09 L2282.34 1473.54 L2294.14 1473.54 L2294.14 1455.09 M2292.92 1451.02 L2298.8 1451.02 L2298.8 1473.54 L2303.73 1473.54 L2303.73 1477.43 L2298.8 1477.43 L2298.8 1485.58 L2294.14 1485.58 L2294.14 1477.43 L2278.54 1477.43 L2278.54 1472.92 L2292.92 1451.02 Z" fill="#000000" fill-rule="evenodd" fill-opacity="1" /><path clip-path="url(#clip400)" d="M1069.33 1524.18 L1069.33 1530.96 Q1066.08 1527.94 1062.39 1526.44 Q1058.73 1524.95 1054.59 1524.95 Q1046.44 1524.95 1042.11 1529.95 Q1037.78 1534.91 1037.78 1544.33 Q1037.78 1553.72 1042.11 1558.72 Q1046.44 1563.68 1054.59 1563.68 Q1058.73 1563.68 1062.39 1562.19 Q1066.08 1560.69 1069.33 1557.67 L1069.33 1564.38 Q1065.95 1566.68 1062.16 1567.82 Q1058.41 1568.97 1054.21 1568.97 Q1043.42 1568.97 1037.21 1562.38 Q1031 1555.76 1031 1544.33 Q1031 1532.87 1037.21 1526.28 Q1043.42 1519.66 1054.21 1519.66 Q1058.47 1519.66 1062.23 1520.81 Q1066.02 1521.92 1069.33 1524.18 Z" fill="#000000" fill-rule="evenodd" fill-opacity="1" /><path clip-path="url(#clip400)" d="M1078.4 1553.98 L1078.4 1532.4 L1084.25 1532.4 L1084.25 1553.75 Q1084.25 1558.81 1086.23 1561.36 Q1088.2 1563.87 1092.15 1563.87 Q1096.89 1563.87 1099.63 1560.85 Q1102.4 1557.83 1102.4 1552.61 L1102.4 1532.4 L1108.25 1532.4 L1108.25 1568.04 L1102.4 1568.04 L1102.4 1562.57 Q1100.26 1565.82 1097.43 1567.41 Q1094.63 1568.97 1090.91 1568.97 Q1084.76 1568.97 1081.58 1565.15 Q1078.4 1561.33 1078.4 1553.98 M1093.13 1531.54 L1093.13 1531.54 Z" fill="#000000" fill-rule="evenodd" fill-opacity="1" /><path clip-path="url(#clip400)" d="M1140.97 1537.87 Q1139.99 1537.3 1138.81 1537.04 Q1137.66 1536.76 1136.26 1536.76 Q1131.3 1536.76 1128.62 1540 Q1125.98 1543.22 1125.98 1549.27 L1125.98 1568.04 L1120.09 1568.04 L1120.09 1532.4 L1125.98 1532.4 L1125.98 1537.93 Q1127.83 1534.69 1130.79 1533.13 Q1133.75 1531.54 1137.98 1531.54 Q1138.58 1531.54 1139.32 1531.63 Q1140.05 1531.7 1140.94 1531.85 L1140.97 1537.87 Z" fill="#000000" fill-rule="evenodd" fill-opacity="1" /><path clip-path="url(#clip400)" d="M1166.63 1537.87 Q1165.64 1537.3 1164.46 1537.04 Q1163.32 1536.76 1161.92 1536.76 Q1156.95 1536.76 1154.28 1540 Q1151.63 1543.22 1151.63 1549.27 L1151.63 1568.04 L1145.75 1568.04 L1145.75 1532.4 L1151.63 1532.4 L1151.63 1537.93 Q1153.48 1534.69 1156.44 1533.13 Q1159.4 1531.54 1163.63 1531.54 Q1164.24 1531.54 1164.97 1531.63 Q1165.7 1531.7 1166.59 1531.85 L1166.63 1537.87 Z" fill="#000000" fill-rule="evenodd" fill-opacity="1" /><path clip-path="url(#clip400)" d="M1201.83 1548.76 L1201.83 1551.62 L1174.9 1551.62 Q1175.28 1557.67 1178.53 1560.85 Q1181.81 1564 1187.63 1564 Q1191.01 1564 1194.16 1563.17 Q1197.34 1562.35 1200.46 1560.69 L1200.46 1566.23 Q1197.31 1567.57 1194 1568.27 Q1190.69 1568.97 1187.28 1568.97 Q1178.75 1568.97 1173.76 1564 Q1168.79 1559.04 1168.79 1550.57 Q1168.79 1541.82 1173.5 1536.69 Q1178.24 1531.54 1186.26 1531.54 Q1193.46 1531.54 1197.63 1536.18 Q1201.83 1540.8 1201.83 1548.76 M1195.97 1547.04 Q1195.91 1542.23 1193.27 1539.37 Q1190.66 1536.5 1186.33 1536.5 Q1181.43 1536.5 1178.47 1539.27 Q1175.54 1542.04 1175.09 1547.07 L1195.97 1547.04 Z" fill="#000000" fill-rule="evenodd" fill-opacity="1" /><path clip-path="url(#clip400)" d="M1241.07 1546.53 L1241.07 1568.04 L1235.22 1568.04 L1235.22 1546.72 Q1235.22 1541.66 1233.24 1539.14 Q1231.27 1536.63 1227.32 1536.63 Q1222.58 1536.63 1219.84 1539.65 Q1217.11 1542.68 1217.11 1547.9 L1217.11 1568.04 L1211.22 1568.04 L1211.22 1532.4 L1217.11 1532.4 L1217.11 1537.93 Q1219.21 1534.72 1222.04 1533.13 Q1224.9 1531.54 1228.63 1531.54 Q1234.77 1531.54 1237.92 1535.36 Q1241.07 1539.14 1241.07 1546.53 Z" fill="#000000" fill-rule="evenodd" fill-opacity="1" /><path clip-path="url(#clip400)" d="M1258.55 1522.27 L1258.55 1532.4 L1270.61 1532.4 L1270.61 1536.95 L1258.55 1536.95 L1258.55 1556.3 Q1258.55 1560.66 1259.72 1561.9 Q1260.93 1563.14 1264.59 1563.14 L1270.61 1563.14 L1270.61 1568.04 L1264.59 1568.04 Q1257.81 1568.04 1255.24 1565.53 Q1252.66 1562.98 1252.66 1556.3 L1252.66 1536.95 L1248.36 1536.95 L1248.36 1532.4 L1252.66 1532.4 L1252.66 1522.27 L1258.55 1522.27 Z" fill="#000000" fill-rule="evenodd" fill-opacity="1" /><path clip-path="url(#clip400)" d="M1315.23 1550.12 Q1308.14 1550.12 1305.4 1551.75 Q1302.66 1553.37 1302.66 1557.29 Q1302.66 1560.4 1304.7 1562.25 Q1306.77 1564.07 1310.3 1564.07 Q1315.17 1564.07 1318.1 1560.63 Q1321.06 1557.16 1321.06 1551.43 L1321.06 1550.12 L1315.23 1550.12 M1326.91 1547.71 L1326.91 1568.04 L1321.06 1568.04 L1321.06 1562.63 Q1319.05 1565.88 1316.06 1567.44 Q1313.07 1568.97 1308.74 1568.97 Q1303.27 1568.97 1300.02 1565.91 Q1296.8 1562.82 1296.8 1557.67 Q1296.8 1551.65 1300.81 1548.6 Q1304.86 1545.54 1312.85 1545.54 L1321.06 1545.54 L1321.06 1544.97 Q1321.06 1540.93 1318.38 1538.73 Q1315.74 1536.5 1310.94 1536.5 Q1307.88 1536.5 1304.98 1537.23 Q1302.09 1537.97 1299.41 1539.43 L1299.41 1534.02 Q1302.63 1532.78 1305.65 1532.17 Q1308.68 1531.54 1311.54 1531.54 Q1319.28 1531.54 1323.09 1535.55 Q1326.91 1539.56 1326.91 1547.71 Z" fill="#000000" fill-rule="evenodd" fill-opacity="1" /><path clip-path="url(#clip400)" d="M1361.7 1533.45 L1361.7 1538.98 Q1359.22 1537.71 1356.55 1537.07 Q1353.87 1536.44 1351.01 1536.44 Q1346.65 1536.44 1344.45 1537.77 Q1342.29 1539.11 1342.29 1541.79 Q1342.29 1543.82 1343.85 1545 Q1345.41 1546.15 1350.12 1547.2 L1352.12 1547.64 Q1358.36 1548.98 1360.97 1551.43 Q1363.61 1553.85 1363.61 1558.21 Q1363.61 1563.17 1359.67 1566.07 Q1355.75 1568.97 1348.88 1568.97 Q1346.01 1568.97 1342.89 1568.39 Q1339.8 1567.85 1336.37 1566.74 L1336.37 1560.69 Q1339.61 1562.38 1342.76 1563.24 Q1345.92 1564.07 1349 1564.07 Q1353.14 1564.07 1355.37 1562.66 Q1357.6 1561.23 1357.6 1558.65 Q1357.6 1556.27 1355.97 1554.99 Q1354.38 1553.72 1348.94 1552.54 L1346.9 1552.07 Q1341.46 1550.92 1339.04 1548.56 Q1336.62 1546.18 1336.62 1542.04 Q1336.62 1537.01 1340.19 1534.27 Q1343.75 1531.54 1350.31 1531.54 Q1353.55 1531.54 1356.42 1532.01 Q1359.28 1532.49 1361.7 1533.45 Z" fill="#000000" fill-rule="evenodd" fill-opacity="1" /><path clip-path="url(#clip400)" d="M1395.66 1533.45 L1395.66 1538.98 Q1393.18 1537.71 1390.51 1537.07 Q1387.83 1536.44 1384.97 1536.44 Q1380.61 1536.44 1378.41 1537.77 Q1376.25 1539.11 1376.25 1541.79 Q1376.25 1543.82 1377.81 1545 Q1379.37 1546.15 1384.08 1547.2 L1386.08 1547.64 Q1392.32 1548.98 1394.93 1551.43 Q1397.57 1553.85 1397.57 1558.21 Q1397.57 1563.17 1393.63 1566.07 Q1389.71 1568.97 1382.84 1568.97 Q1379.97 1568.97 1376.85 1568.39 Q1373.77 1567.85 1370.33 1566.74 L1370.33 1560.69 Q1373.57 1562.38 1376.73 1563.24 Q1379.88 1564.07 1382.96 1564.07 Q1387.1 1564.07 1389.33 1562.66 Q1391.56 1561.23 1391.56 1558.65 Q1391.56 1556.27 1389.93 1554.99 Q1388.34 1553.72 1382.9 1552.54 L1380.86 1552.07 Q1375.42 1550.92 1373 1548.56 Q1370.58 1546.18 1370.58 1542.04 Q1370.58 1537.01 1374.15 1534.27 Q1377.71 1531.54 1384.27 1531.54 Q1387.52 1531.54 1390.38 1532.01 Q1393.24 1532.49 1395.66 1533.45 Z" fill="#000000" fill-rule="evenodd" fill-opacity="1" /><path clip-path="url(#clip400)" d="M1437.39 1548.76 L1437.39 1551.62 L1410.46 1551.62 Q1410.85 1557.67 1414.09 1560.85 Q1417.37 1564 1423.2 1564 Q1426.57 1564 1429.72 1563.17 Q1432.9 1562.35 1436.02 1560.69 L1436.02 1566.23 Q1432.87 1567.57 1429.56 1568.27 Q1426.25 1568.97 1422.85 1568.97 Q1414.32 1568.97 1409.32 1564 Q1404.35 1559.04 1404.35 1550.57 Q1404.35 1541.82 1409.06 1536.69 Q1413.81 1531.54 1421.83 1531.54 Q1429.02 1531.54 1433.19 1536.18 Q1437.39 1540.8 1437.39 1548.76 M1431.53 1547.04 Q1431.47 1542.23 1428.83 1539.37 Q1426.22 1536.5 1421.89 1536.5 Q1416.99 1536.5 1414.03 1539.27 Q1411.1 1542.04 1410.66 1547.07 L1431.53 1547.04 Z" fill="#000000" fill-rule="evenodd" fill-opacity="1" /><path clip-path="url(#clip400)" d="M1452.8 1522.27 L1452.8 1532.4 L1464.86 1532.4 L1464.86 1536.95 L1452.8 1536.95 L1452.8 1556.3 Q1452.8 1560.66 1453.97 1561.9 Q1455.18 1563.14 1458.84 1563.14 L1464.86 1563.14 L1464.86 1568.04 L1458.84 1568.04 Q1452.06 1568.04 1449.49 1565.53 Q1446.91 1562.98 1446.91 1556.3 L1446.91 1536.95 L1442.61 1536.95 L1442.61 1532.4 L1446.91 1532.4 L1446.91 1522.27 L1452.8 1522.27 Z" fill="#000000" fill-rule="evenodd" fill-opacity="1" /><path clip-path="url(#clip400)" d="M1495.29 1533.45 L1495.29 1538.98 Q1492.8 1537.71 1490.13 1537.07 Q1487.46 1536.44 1484.59 1536.44 Q1480.23 1536.44 1478.04 1537.77 Q1475.87 1539.11 1475.87 1541.79 Q1475.87 1543.82 1477.43 1545 Q1478.99 1546.15 1483.7 1547.2 L1485.71 1547.64 Q1491.95 1548.98 1494.56 1551.43 Q1497.2 1553.85 1497.2 1558.21 Q1497.2 1563.17 1493.25 1566.07 Q1489.34 1568.97 1482.46 1568.97 Q1479.6 1568.97 1476.48 1568.39 Q1473.39 1567.85 1469.95 1566.74 L1469.95 1560.69 Q1473.2 1562.38 1476.35 1563.24 Q1479.5 1564.07 1482.59 1564.07 Q1486.73 1564.07 1488.95 1562.66 Q1491.18 1561.23 1491.18 1558.65 Q1491.18 1556.27 1489.56 1554.99 Q1487.97 1553.72 1482.52 1552.54 L1480.49 1552.07 Q1475.04 1550.92 1472.63 1548.56 Q1470.21 1546.18 1470.21 1542.04 Q1470.21 1537.01 1473.77 1534.27 Q1477.34 1531.54 1483.89 1531.54 Q1487.14 1531.54 1490 1532.01 Q1492.87 1532.49 1495.29 1533.45 Z" fill="#000000" fill-rule="evenodd" fill-opacity="1" /><polyline clip-path="url(#clip402)" style="stroke:#000000; stroke-linecap:butt; stroke-linejoin:round; stroke-width:2; stroke-opacity:0.1; fill:none" points="
  175.445,1384.24 2352.76,1384.24 
  "/>
<polyline clip-path="url(#clip402)" style="stroke:#000000; stroke-linecap:butt; stroke-linejoin:round; stroke-width:2; stroke-opacity:0.1; fill:none" points="
  175.445,1059.73 2352.76,1059.73 
  "/>
<polyline clip-path="url(#clip402)" style="stroke:#000000; stroke-linecap:butt; stroke-linejoin:round; stroke-width:2; stroke-opacity:0.1; fill:none" points="
  175.445,735.212 2352.76,735.212 
  "/>
<polyline clip-path="url(#clip402)" style="stroke:#000000; stroke-linecap:butt; stroke-linejoin:round; stroke-width:2; stroke-opacity:0.1; fill:none" points="
  175.445,410.699 2352.76,410.699 
  "/>
<polyline clip-path="url(#clip402)" style="stroke:#000000; stroke-linecap:butt; stroke-linejoin:round; stroke-width:2; stroke-opacity:0.1; fill:none" points="
  175.445,86.1857 2352.76,86.1857 
  "/>
<polyline clip-path="url(#clip400)" style="stroke:#000000; stroke-linecap:butt; stroke-linejoin:round; stroke-width:4; stroke-opacity:1; fill:none" points="
  175.445,1423.18 175.445,47.2441 
  "/>
<polyline clip-path="url(#clip400)" style="stroke:#000000; stroke-linecap:butt; stroke-linejoin:round; stroke-width:4; stroke-opacity:1; fill:none" points="
  175.445,1384.24 194.343,1384.24 
  "/>
<polyline clip-path="url(#clip400)" style="stroke:#000000; stroke-linecap:butt; stroke-linejoin:round; stroke-width:4; stroke-opacity:1; fill:none" points="
  175.445,1059.73 194.343,1059.73 
  "/>
<polyline clip-path="url(#clip400)" style="stroke:#000000; stroke-linecap:butt; stroke-linejoin:round; stroke-width:4; stroke-opacity:1; fill:none" points="
  175.445,735.212 194.343,735.212 
  "/>
<polyline clip-path="url(#clip400)" style="stroke:#000000; stroke-linecap:butt; stroke-linejoin:round; stroke-width:4; stroke-opacity:1; fill:none" points="
  175.445,410.699 194.343,410.699 
  "/>
<polyline clip-path="url(#clip400)" style="stroke:#000000; stroke-linecap:butt; stroke-linejoin:round; stroke-width:4; stroke-opacity:1; fill:none" points="
  175.445,86.1857 194.343,86.1857 
  "/>
<path clip-path="url(#clip400)" d="M127.501 1370.04 Q123.89 1370.04 122.061 1373.6 Q120.255 1377.14 120.255 1384.27 Q120.255 1391.38 122.061 1394.94 Q123.89 1398.49 127.501 1398.49 Q131.135 1398.49 132.941 1394.94 Q134.769 1391.38 134.769 1384.27 Q134.769 1377.14 132.941 1373.6 Q131.135 1370.04 127.501 1370.04 M127.501 1366.33 Q133.311 1366.33 136.367 1370.94 Q139.445 1375.52 139.445 1384.27 Q139.445 1393 136.367 1397.61 Q133.311 1402.19 127.501 1402.19 Q121.691 1402.19 118.612 1397.61 Q115.556 1393 115.556 1384.27 Q115.556 1375.52 118.612 1370.94 Q121.691 1366.33 127.501 1366.33 Z" fill="#000000" fill-rule="evenodd" fill-opacity="1" /><path clip-path="url(#clip400)" d="M119.538 1073.07 L127.177 1073.07 L127.177 1046.7 L118.867 1048.37 L118.867 1044.11 L127.13 1042.45 L131.806 1042.45 L131.806 1073.07 L139.445 1073.07 L139.445 1077.01 L119.538 1077.01 L119.538 1073.07 Z" fill="#000000" fill-rule="evenodd" fill-opacity="1" /><path clip-path="url(#clip400)" d="M123.126 748.557 L139.445 748.557 L139.445 752.492 L117.501 752.492 L117.501 748.557 Q120.163 745.802 124.746 741.173 Q129.353 736.52 130.533 735.177 Q132.779 732.654 133.658 730.918 Q134.561 729.159 134.561 727.469 Q134.561 724.714 132.617 722.978 Q130.695 721.242 127.593 721.242 Q125.394 721.242 122.941 722.006 Q120.51 722.77 117.732 724.321 L117.732 719.599 Q120.556 718.464 123.01 717.886 Q125.464 717.307 127.501 717.307 Q132.871 717.307 136.066 719.992 Q139.26 722.677 139.26 727.168 Q139.26 729.298 138.45 731.219 Q137.663 733.117 135.556 735.71 Q134.978 736.381 131.876 739.599 Q128.774 742.793 123.126 748.557 Z" fill="#000000" fill-rule="evenodd" fill-opacity="1" /><path clip-path="url(#clip400)" d="M132.316 409.345 Q135.672 410.062 137.547 412.331 Q139.445 414.599 139.445 417.933 Q139.445 423.048 135.927 425.849 Q132.408 428.65 125.927 428.65 Q123.751 428.65 121.436 428.21 Q119.144 427.794 116.691 426.937 L116.691 422.423 Q118.635 423.558 120.95 424.136 Q123.265 424.715 125.788 424.715 Q130.186 424.715 132.478 422.979 Q134.792 421.243 134.792 417.933 Q134.792 414.877 132.64 413.164 Q130.51 411.428 126.691 411.428 L122.663 411.428 L122.663 407.585 L126.876 407.585 Q130.325 407.585 132.154 406.22 Q133.982 404.831 133.982 402.238 Q133.982 399.576 132.084 398.164 Q130.209 396.729 126.691 396.729 Q124.769 396.729 122.57 397.146 Q120.371 397.562 117.732 398.442 L117.732 394.275 Q120.394 393.535 122.709 393.164 Q125.047 392.794 127.107 392.794 Q132.431 392.794 135.533 395.224 Q138.635 397.632 138.635 401.752 Q138.635 404.622 136.992 406.613 Q135.348 408.581 132.316 409.345 Z" fill="#000000" fill-rule="evenodd" fill-opacity="1" /><path clip-path="url(#clip400)" d="M129.862 72.9797 L118.056 91.4287 L129.862 91.4287 L129.862 72.9797 M128.635 68.9057 L134.515 68.9057 L134.515 91.4287 L139.445 91.4287 L139.445 95.3176 L134.515 95.3176 L134.515 103.466 L129.862 103.466 L129.862 95.3176 L114.26 95.3176 L114.26 90.8037 L128.635 68.9057 Z" fill="#000000" fill-rule="evenodd" fill-opacity="1" /><path clip-path="url(#clip400)" d="M16.4842 1034.64 L16.4842 1025.98 L56.238 1004.91 L16.4842 1004.91 L16.4842 998.673 L64.0042 998.673 L64.0042 1007.33 L24.2503 1028.4 L64.0042 1028.4 L64.0042 1034.64 L16.4842 1034.64 Z" fill="#000000" fill-rule="evenodd" fill-opacity="1" /><path clip-path="url(#clip400)" d="M44.7161 955.64 L47.5806 955.64 L47.5806 982.567 Q53.6281 982.185 56.8109 978.939 Q59.9619 975.661 59.9619 969.836 Q59.9619 966.462 59.1344 963.311 Q58.3069 960.128 56.6518 957.009 L62.1899 957.009 Q63.5267 960.16 64.227 963.47 Q64.9272 966.78 64.9272 970.186 Q64.9272 978.716 59.9619 983.713 Q54.9967 988.678 46.5303 988.678 Q37.7774 988.678 32.6531 983.968 Q27.4968 979.225 27.4968 971.205 Q27.4968 964.011 32.1438 959.842 Q36.7589 955.64 44.7161 955.64 M42.9973 961.497 Q38.1912 961.561 35.3266 964.202 Q32.4621 966.812 32.4621 971.141 Q32.4621 976.043 35.2312 979.003 Q38.0002 981.931 43.0292 982.376 L42.9973 961.497 Z" fill="#000000" fill-rule="evenodd" fill-opacity="1" /><path clip-path="url(#clip400)" d="M28.3562 917.542 L45.7028 930.432 L64.0042 916.873 L64.0042 923.78 L49.9996 934.156 L64.0042 944.532 L64.0042 951.439 L45.3526 937.594 L28.3562 950.261 L28.3562 943.355 L41.0558 933.902 L28.3562 924.449 L28.3562 917.542 Z" fill="#000000" fill-rule="evenodd" fill-opacity="1" /><path clip-path="url(#clip400)" d="M18.2347 902.805 L28.3562 902.805 L28.3562 890.742 L32.9077 890.742 L32.9077 902.805 L52.2594 902.805 Q56.6199 902.805 57.8613 901.627 Q59.1026 900.418 59.1026 896.758 L59.1026 890.742 L64.0042 890.742 L64.0042 896.758 Q64.0042 903.537 61.4897 906.115 Q58.9434 908.693 52.2594 908.693 L32.9077 908.693 L32.9077 912.99 L28.3562 912.99 L28.3562 908.693 L18.2347 908.693 L18.2347 902.805 Z" fill="#000000" fill-rule="evenodd" fill-opacity="1" /><path clip-path="url(#clip400)" d="M58.657 856.654 L77.5631 856.654 L77.5631 862.542 L28.3562 862.542 L28.3562 856.654 L33.7671 856.654 Q30.5842 854.808 29.0564 852.007 Q27.4968 849.174 27.4968 845.259 Q27.4968 838.766 32.6531 834.724 Q37.8093 830.65 46.212 830.65 Q54.6147 830.65 59.771 834.724 Q64.9272 838.766 64.9272 845.259 Q64.9272 849.174 63.3994 852.007 Q61.8398 854.808 58.657 856.654 M46.212 836.729 Q39.7508 836.729 36.0905 839.403 Q32.3984 842.044 32.3984 846.691 Q32.3984 851.338 36.0905 854.012 Q39.7508 856.654 46.212 856.654 Q52.6732 856.654 56.3653 854.012 Q60.0256 851.338 60.0256 846.691 Q60.0256 842.044 56.3653 839.403 Q52.6732 836.729 46.212 836.729 Z" fill="#000000" fill-rule="evenodd" fill-opacity="1" /><path clip-path="url(#clip400)" d="M44.7161 790.45 L47.5806 790.45 L47.5806 817.377 Q53.6281 816.995 56.8109 813.749 Q59.9619 810.471 59.9619 804.646 Q59.9619 801.272 59.1344 798.121 Q58.3069 794.938 56.6518 791.819 L62.1899 791.819 Q63.5267 794.97 64.227 798.28 Q64.9272 801.59 64.9272 804.996 Q64.9272 813.526 59.9619 818.523 Q54.9967 823.488 46.5303 823.488 Q37.7774 823.488 32.6531 818.778 Q27.4968 814.035 27.4968 806.015 Q27.4968 798.821 32.1438 794.652 Q36.7589 790.45 44.7161 790.45 M42.9973 796.307 Q38.1912 796.37 35.3266 799.012 Q32.4621 801.622 32.4621 805.951 Q32.4621 810.852 35.2312 813.813 Q38.0002 816.741 43.0292 817.186 L42.9973 796.307 Z" fill="#000000" fill-rule="evenodd" fill-opacity="1" /><path clip-path="url(#clip400)" d="M33.8307 760.181 Q33.2578 761.168 33.0032 762.346 Q32.7167 763.492 32.7167 764.892 Q32.7167 769.857 35.9632 772.531 Q39.1779 775.173 45.2253 775.173 L64.0042 775.173 L64.0042 781.061 L28.3562 781.061 L28.3562 775.173 L33.8944 775.173 Q30.6479 773.327 29.0883 770.367 Q27.4968 767.407 27.4968 763.173 Q27.4968 762.569 27.5923 761.837 Q27.656 761.104 27.8151 760.213 L33.8307 760.181 Z" fill="#000000" fill-rule="evenodd" fill-opacity="1" /><path clip-path="url(#clip400)" d="M28.3562 754.039 L28.3562 748.182 L64.0042 748.182 L64.0042 754.039 L28.3562 754.039 M14.479 754.039 L14.479 748.182 L21.895 748.182 L21.895 754.039 L14.479 754.039 Z" fill="#000000" fill-rule="evenodd" fill-opacity="1" /><path clip-path="url(#clip400)" d="M32.4621 722.115 Q32.4621 726.825 36.1542 729.562 Q39.8145 732.3 46.212 732.3 Q52.6095 732.3 56.3017 729.594 Q59.9619 726.857 59.9619 722.115 Q59.9619 717.436 56.2698 714.698 Q52.5777 711.961 46.212 711.961 Q39.8781 711.961 36.186 714.698 Q32.4621 717.436 32.4621 722.115 M27.4968 722.115 Q27.4968 714.476 32.4621 710.115 Q37.4273 705.755 46.212 705.755 Q54.9649 705.755 59.9619 710.115 Q64.9272 714.476 64.9272 722.115 Q64.9272 729.785 59.9619 734.146 Q54.9649 738.474 46.212 738.474 Q37.4273 738.474 32.4621 734.146 Q27.4968 729.785 27.4968 722.115 Z" fill="#000000" fill-rule="evenodd" fill-opacity="1" /><path clip-path="url(#clip400)" d="M33.7671 672.589 L14.479 672.589 L14.479 666.733 L64.0042 666.733 L64.0042 672.589 L58.657 672.589 Q61.8398 674.435 63.3994 677.268 Q64.9272 680.069 64.9272 684.016 Q64.9272 690.477 59.771 694.551 Q54.6147 698.593 46.212 698.593 Q37.8093 698.593 32.6531 694.551 Q27.4968 690.477 27.4968 684.016 Q27.4968 680.069 29.0564 677.268 Q30.5842 674.435 33.7671 672.589 M46.212 692.546 Q52.6732 692.546 56.3653 689.904 Q60.0256 687.23 60.0256 682.583 Q60.0256 677.937 56.3653 675.263 Q52.6732 672.589 46.212 672.589 Q39.7508 672.589 36.0905 675.263 Q32.3984 677.937 32.3984 682.583 Q32.3984 687.23 36.0905 689.904 Q39.7508 692.546 46.212 692.546 Z" fill="#000000" fill-rule="evenodd" fill-opacity="1" /><path clip-path="url(#clip400)" d="M46.0847 617.749 Q46.0847 624.847 47.7079 627.584 Q49.3312 630.321 53.2461 630.321 Q56.3653 630.321 58.2114 628.284 Q60.0256 626.215 60.0256 622.682 Q60.0256 617.812 56.5881 614.884 Q53.1188 611.924 47.3897 611.924 L46.0847 611.924 L46.0847 617.749 M43.6657 606.068 L64.0042 606.068 L64.0042 611.924 L58.5933 611.924 Q61.8398 613.929 63.3994 616.921 Q64.9272 619.913 64.9272 624.242 Q64.9272 629.716 61.8716 632.963 Q58.7843 636.177 53.6281 636.177 Q47.6125 636.177 44.5569 632.167 Q41.5014 628.125 41.5014 620.136 L41.5014 611.924 L40.9285 611.924 Q36.8862 611.924 34.6901 614.598 Q32.4621 617.24 32.4621 622.046 Q32.4621 625.101 33.1941 627.998 Q33.9262 630.894 35.3903 633.568 L29.9795 633.568 Q28.7381 630.353 28.1334 627.329 Q27.4968 624.305 27.4968 621.441 Q27.4968 613.707 31.5072 609.887 Q35.5176 606.068 43.6657 606.068 Z" fill="#000000" fill-rule="evenodd" fill-opacity="1" /><path clip-path="url(#clip400)" d="M29.4065 571.279 L34.9447 571.279 Q33.6716 573.762 33.035 576.435 Q32.3984 579.109 32.3984 581.973 Q32.3984 586.334 33.7352 588.53 Q35.072 590.695 37.7456 590.695 Q39.7826 590.695 40.9603 589.135 Q42.1061 587.575 43.1565 582.865 L43.6021 580.859 Q44.9389 574.621 47.3897 572.011 Q49.8086 569.369 54.1691 569.369 Q59.1344 569.369 62.0308 573.316 Q64.9272 577.231 64.9272 584.106 Q64.9272 586.971 64.3543 590.09 Q63.8132 593.177 62.6992 596.615 L56.6518 596.615 Q58.3387 593.368 59.198 590.217 Q60.0256 587.066 60.0256 583.979 Q60.0256 579.841 58.6251 577.613 Q57.1929 575.385 54.6147 575.385 Q52.2276 575.385 50.9545 577.008 Q49.6813 578.6 48.5037 584.042 L48.0262 586.079 Q46.8804 591.522 44.5251 593.941 Q42.138 596.36 38.0002 596.36 Q32.9713 596.36 30.2341 592.795 Q27.4968 589.23 27.4968 582.674 Q27.4968 579.427 27.9743 576.563 Q28.4517 573.698 29.4065 571.279 Z" fill="#000000" fill-rule="evenodd" fill-opacity="1" /><path clip-path="url(#clip400)" d="M29.4065 537.318 L34.9447 537.318 Q33.6716 539.801 33.035 542.474 Q32.3984 545.148 32.3984 548.012 Q32.3984 552.373 33.7352 554.569 Q35.072 556.733 37.7456 556.733 Q39.7826 556.733 40.9603 555.174 Q42.1061 553.614 43.1565 548.904 L43.6021 546.898 Q44.9389 540.66 47.3897 538.05 Q49.8086 535.408 54.1691 535.408 Q59.1344 535.408 62.0308 539.355 Q64.9272 543.27 64.9272 550.145 Q64.9272 553.01 64.3543 556.129 Q63.8132 559.216 62.6992 562.654 L56.6518 562.654 Q58.3387 559.407 59.198 556.256 Q60.0256 553.105 60.0256 550.018 Q60.0256 545.88 58.6251 543.652 Q57.1929 541.424 54.6147 541.424 Q52.2276 541.424 50.9545 543.047 Q49.6813 544.639 48.5037 550.081 L48.0262 552.118 Q46.8804 557.561 44.5251 559.98 Q42.138 562.399 38.0002 562.399 Q32.9713 562.399 30.2341 558.834 Q27.4968 555.269 27.4968 548.713 Q27.4968 545.466 27.9743 542.602 Q28.4517 539.737 29.4065 537.318 Z" fill="#000000" fill-rule="evenodd" fill-opacity="1" /><path clip-path="url(#clip400)" d="M44.7161 495.591 L47.5806 495.591 L47.5806 522.518 Q53.6281 522.136 56.8109 518.889 Q59.9619 515.611 59.9619 509.786 Q59.9619 506.413 59.1344 503.262 Q58.3069 500.079 56.6518 496.959 L62.1899 496.959 Q63.5267 500.111 64.227 503.421 Q64.9272 506.731 64.9272 510.136 Q64.9272 518.667 59.9619 523.664 Q54.9967 528.629 46.5303 528.629 Q37.7774 528.629 32.6531 523.918 Q27.4968 519.176 27.4968 511.155 Q27.4968 503.962 32.1438 499.792 Q36.7589 495.591 44.7161 495.591 M42.9973 501.447 Q38.1912 501.511 35.3266 504.153 Q32.4621 506.763 32.4621 511.091 Q32.4621 515.993 35.2312 518.953 Q38.0002 521.881 43.0292 522.327 L42.9973 501.447 Z" fill="#000000" fill-rule="evenodd" fill-opacity="1" /><path clip-path="url(#clip400)" d="M18.2347 480.186 L28.3562 480.186 L28.3562 468.123 L32.9077 468.123 L32.9077 480.186 L52.2594 480.186 Q56.6199 480.186 57.8613 479.008 Q59.1026 477.799 59.1026 474.138 L59.1026 468.123 L64.0042 468.123 L64.0042 474.138 Q64.0042 480.918 61.4897 483.496 Q58.9434 486.074 52.2594 486.074 L32.9077 486.074 L32.9077 490.371 L28.3562 490.371 L28.3562 486.074 L18.2347 486.074 L18.2347 480.186 Z" fill="#000000" fill-rule="evenodd" fill-opacity="1" /><path clip-path="url(#clip400)" d="M29.4065 437.695 L34.9447 437.695 Q33.6716 440.177 33.035 442.851 Q32.3984 445.525 32.3984 448.389 Q32.3984 452.75 33.7352 454.946 Q35.072 457.11 37.7456 457.11 Q39.7826 457.11 40.9603 455.551 Q42.1061 453.991 43.1565 449.28 L43.6021 447.275 Q44.9389 441.037 47.3897 438.427 Q49.8086 435.785 54.1691 435.785 Q59.1344 435.785 62.0308 439.732 Q64.9272 443.647 64.9272 450.522 Q64.9272 453.386 64.3543 456.505 Q63.8132 459.593 62.6992 463.03 L56.6518 463.03 Q58.3387 459.784 59.198 456.633 Q60.0256 453.482 60.0256 450.394 Q60.0256 446.257 58.6251 444.029 Q57.1929 441.801 54.6147 441.801 Q52.2276 441.801 50.9545 443.424 Q49.6813 445.015 48.5037 450.458 L48.0262 452.495 Q46.8804 457.938 44.5251 460.357 Q42.138 462.776 38.0002 462.776 Q32.9713 462.776 30.2341 459.211 Q27.4968 455.646 27.4968 449.089 Q27.4968 445.843 27.9743 442.978 Q28.4517 440.114 29.4065 437.695 Z" fill="#000000" fill-rule="evenodd" fill-opacity="1" /><polyline clip-path="url(#clip402)" style="stroke:#009af9; stroke-linecap:butt; stroke-linejoin:round; stroke-width:4; stroke-opacity:1; fill:none" points="
  237.067,1384.24 278.987,1384.24 320.907,1375.93 362.826,1361.81 404.746,1345.81 446.666,1328.69 488.586,1309.64 530.505,1289.91 572.425,1269.69 614.345,1248.99 
  656.264,1227.46 698.184,1205.58 740.104,1183.46 782.024,1161.11 823.943,1138.46 865.863,1115.45 907.783,1092.25 949.703,1068.91 991.622,1045.43 1033.54,1021.81 
  1075.46,997.996 1117.38,974.043 1159.3,949.991 1201.22,925.854 1243.14,901.635 1285.06,877.324 1326.98,852.908 1368.9,828.406 1410.82,803.837 1452.74,779.212 
  1494.66,754.535 1536.58,729.801 1578.5,705.004 1620.42,680.15 1662.34,655.247 1704.26,630.303 1746.18,605.323 1788.1,580.306 1830.02,555.25 1871.94,530.155 
  1913.86,505.024 1955.78,479.86 1997.7,454.668 2039.62,429.451 2081.54,404.208 2123.45,378.937 2165.37,353.64 2207.29,328.318 2249.21,302.973 2291.13,277.607 
  
  "/>
<polyline clip-path="url(#clip402)" style="stroke:#e26f46; stroke-linecap:butt; stroke-linejoin:round; stroke-width:4; stroke-opacity:1; fill:none" points="
  237.067,1357.15 278.987,1335.17 320.907,1312.52 362.826,1289.49 404.746,1266.19 446.666,1242.62 488.586,1218.82 530.505,1194.89 572.425,1170.85 614.345,1146.69 
  656.264,1122.32 698.184,1097.87 740.104,1073.34 782.024,1048.76 823.943,1024.11 865.863,999.402 907.783,974.624 949.703,949.791 991.622,924.91 1033.54,899.985 
  1075.46,875.018 1117.38,850.009 1159.3,824.96 1201.22,799.874 1243.14,774.755 1285.06,749.604 1326.98,724.423 1368.9,699.211 1410.82,673.971 1452.74,648.704 
  1494.66,623.413 1536.58,598.098 1578.5,572.762 1620.42,547.404 1662.34,522.025 1704.26,496.627 1746.18,471.21 1788.1,445.776 1830.02,420.324 1871.94,394.857 
  1913.86,369.374 1955.78,343.875 1997.7,318.362 2039.62,292.835 2081.54,267.294 2123.45,241.741 2165.37,216.175 2207.29,190.597 2249.21,165.007 2291.13,139.406 
  
  "/>
<polyline clip-path="url(#clip402)" style="stroke:#000000; stroke-linecap:butt; stroke-linejoin:round; stroke-width:4; stroke-opacity:1; fill:none" stroke-dasharray="16, 10" points="
  237.067,1384.24 278.987,1357.75 320.907,1331.26 362.826,1304.77 404.746,1278.27 446.666,1251.78 488.586,1225.29 530.505,1198.8 572.425,1172.31 614.345,1145.82 
  656.264,1119.33 698.184,1092.84 740.104,1066.35 782.024,1039.86 823.943,1013.37 865.863,986.875 907.783,960.384 949.703,933.893 991.622,907.403 1033.54,880.912 
  1075.46,854.421 1117.38,827.93 1159.3,801.439 1201.22,774.948 1243.14,748.457 1285.06,721.967 1326.98,695.476 1368.9,668.985 1410.82,642.494 1452.74,616.003 
  1494.66,589.512 1536.58,563.021 1578.5,536.53 1620.42,510.04 1662.34,483.549 1704.26,457.058 1746.18,430.567 1788.1,404.076 1830.02,377.585 1871.94,351.094 
  1913.86,324.603 1955.78,298.113 1997.7,271.622 2039.62,245.131 2081.54,218.64 2123.45,192.149 2165.37,165.658 2207.29,139.167 2249.21,112.677 2291.13,86.1857 
  
  "/>
<path clip-path="url(#clip400)" d="
M248.022 248.629 L780.43 248.629 L780.43 93.1086 L248.022 93.1086  Z
  " fill="#ffffff" fill-rule="evenodd" fill-opacity="1"/>
<polyline clip-path="url(#clip400)" style="stroke:#000000; stroke-linecap:butt; stroke-linejoin:round; stroke-width:4; stroke-opacity:1; fill:none" points="
  248.022,248.629 780.43,248.629 780.43,93.1086 248.022,93.1086 248.022,248.629 
  "/>
<polyline clip-path="url(#clip400)" style="stroke:#009af9; stroke-linecap:butt; stroke-linejoin:round; stroke-width:4; stroke-opacity:1; fill:none" points="
  272.215,144.949 417.369,144.949 
  "/>
<path clip-path="url(#clip400)" d="M441.561 127.669 L446.237 127.669 L446.237 158.293 L463.065 158.293 L463.065 162.229 L441.561 162.229 L441.561 127.669 Z" fill="#000000" fill-rule="evenodd" fill-opacity="1" /><path clip-path="url(#clip400)" d="M477.001 139.289 Q473.575 139.289 471.584 141.974 Q469.593 144.636 469.593 149.289 Q469.593 153.942 471.561 156.627 Q473.552 159.289 477.001 159.289 Q480.403 159.289 482.394 156.604 Q484.385 153.918 484.385 149.289 Q484.385 144.682 482.394 141.997 Q480.403 139.289 477.001 139.289 M477.001 135.678 Q482.556 135.678 485.727 139.289 Q488.899 142.9 488.899 149.289 Q488.899 155.655 485.727 159.289 Q482.556 162.9 477.001 162.9 Q471.422 162.9 468.251 159.289 Q465.103 155.655 465.103 149.289 Q465.103 142.9 468.251 139.289 Q471.422 135.678 477.001 135.678 Z" fill="#000000" fill-rule="evenodd" fill-opacity="1" /><path clip-path="url(#clip400)" d="M493.482 136.303 L497.741 136.303 L503.065 156.534 L508.366 136.303 L513.389 136.303 L518.713 156.534 L524.014 136.303 L528.273 136.303 L521.491 162.229 L516.468 162.229 L510.889 140.979 L505.287 162.229 L500.264 162.229 L493.482 136.303 Z" fill="#000000" fill-rule="evenodd" fill-opacity="1" /><path clip-path="url(#clip400)" d="M549.801 136.303 L554.06 136.303 L554.06 162.229 L549.801 162.229 L549.801 136.303 M549.801 126.21 L554.06 126.21 L554.06 131.604 L549.801 131.604 L549.801 126.21 Z" fill="#000000" fill-rule="evenodd" fill-opacity="1" /><path clip-path="url(#clip400)" d="M584.523 146.581 L584.523 162.229 L580.264 162.229 L580.264 146.719 Q580.264 143.039 578.829 141.21 Q577.394 139.382 574.523 139.382 Q571.074 139.382 569.083 141.581 Q567.093 143.78 567.093 147.576 L567.093 162.229 L562.81 162.229 L562.81 136.303 L567.093 136.303 L567.093 140.331 Q568.62 137.993 570.681 136.835 Q572.764 135.678 575.472 135.678 Q579.94 135.678 582.232 138.456 Q584.523 141.21 584.523 146.581 Z" fill="#000000" fill-rule="evenodd" fill-opacity="1" /><path clip-path="url(#clip400)" d="M611.676 137.298 L611.676 141.28 Q609.87 140.284 608.042 139.798 Q606.236 139.289 604.384 139.289 Q600.241 139.289 597.949 141.928 Q595.657 144.544 595.657 149.289 Q595.657 154.034 597.949 156.673 Q600.241 159.289 604.384 159.289 Q606.236 159.289 608.042 158.803 Q609.87 158.293 611.676 157.298 L611.676 161.233 Q609.893 162.067 607.972 162.483 Q606.074 162.9 603.921 162.9 Q598.065 162.9 594.616 159.219 Q591.167 155.539 591.167 149.289 Q591.167 142.946 594.639 139.312 Q598.134 135.678 604.199 135.678 Q606.167 135.678 608.042 136.095 Q609.917 136.488 611.676 137.298 Z" fill="#000000" fill-rule="evenodd" fill-opacity="1" /><path clip-path="url(#clip400)" d="M629.129 139.289 Q625.703 139.289 623.713 141.974 Q621.722 144.636 621.722 149.289 Q621.722 153.942 623.69 156.627 Q625.68 159.289 629.129 159.289 Q632.532 159.289 634.523 156.604 Q636.514 153.918 636.514 149.289 Q636.514 144.682 634.523 141.997 Q632.532 139.289 629.129 139.289 M629.129 135.678 Q634.685 135.678 637.856 139.289 Q641.027 142.9 641.027 149.289 Q641.027 155.655 637.856 159.289 Q634.685 162.9 629.129 162.9 Q623.551 162.9 620.379 159.289 Q617.231 155.655 617.231 149.289 Q617.231 142.9 620.379 139.289 Q623.551 135.678 629.129 135.678 Z" fill="#000000" fill-rule="evenodd" fill-opacity="1" /><path clip-path="url(#clip400)" d="M668.273 141.28 Q669.87 138.409 672.092 137.044 Q674.314 135.678 677.324 135.678 Q681.374 135.678 683.574 138.525 Q685.773 141.349 685.773 146.581 L685.773 162.229 L681.49 162.229 L681.49 146.719 Q681.49 142.993 680.171 141.187 Q678.851 139.382 676.143 139.382 Q672.833 139.382 670.912 141.581 Q668.99 143.78 668.99 147.576 L668.99 162.229 L664.708 162.229 L664.708 146.719 Q664.708 142.969 663.388 141.187 Q662.069 139.382 659.314 139.382 Q656.051 139.382 654.129 141.604 Q652.208 143.803 652.208 147.576 L652.208 162.229 L647.926 162.229 L647.926 136.303 L652.208 136.303 L652.208 140.331 Q653.666 137.946 655.703 136.812 Q657.74 135.678 660.541 135.678 Q663.365 135.678 665.333 137.113 Q667.324 138.548 668.273 141.28 Z" fill="#000000" fill-rule="evenodd" fill-opacity="1" /><path clip-path="url(#clip400)" d="M716.444 148.201 L716.444 150.284 L696.861 150.284 Q697.138 154.682 699.499 156.997 Q701.884 159.289 706.12 159.289 Q708.573 159.289 710.865 158.687 Q713.18 158.085 715.448 156.881 L715.448 160.909 Q713.157 161.881 710.749 162.391 Q708.342 162.9 705.865 162.9 Q699.661 162.9 696.027 159.289 Q692.416 155.678 692.416 149.52 Q692.416 143.155 695.842 139.428 Q699.291 135.678 705.124 135.678 Q710.356 135.678 713.388 139.057 Q716.444 142.414 716.444 148.201 M712.185 146.951 Q712.138 143.456 710.217 141.372 Q708.319 139.289 705.171 139.289 Q701.606 139.289 699.453 141.303 Q697.323 143.317 696.999 146.974 L712.185 146.951 Z" fill="#000000" fill-rule="evenodd" fill-opacity="1" /><polyline clip-path="url(#clip400)" style="stroke:#e26f46; stroke-linecap:butt; stroke-linejoin:round; stroke-width:4; stroke-opacity:1; fill:none" points="
  272.215,196.789 417.369,196.789 
  "/>
<path clip-path="url(#clip400)" d="M441.561 179.509 L446.237 179.509 L446.237 193.675 L463.228 193.675 L463.228 179.509 L467.903 179.509 L467.903 214.069 L463.228 214.069 L463.228 197.61 L446.237 197.61 L446.237 214.069 L441.561 214.069 L441.561 179.509 Z" fill="#000000" fill-rule="evenodd" fill-opacity="1" /><path clip-path="url(#clip400)" d="M477.024 188.143 L481.283 188.143 L481.283 214.069 L477.024 214.069 L477.024 188.143 M477.024 178.05 L481.283 178.05 L481.283 183.444 L477.024 183.444 L477.024 178.05 Z" fill="#000000" fill-rule="evenodd" fill-opacity="1" /><path clip-path="url(#clip400)" d="M507.255 200.805 Q507.255 196.175 505.334 193.629 Q503.436 191.083 499.987 191.083 Q496.561 191.083 494.639 193.629 Q492.741 196.175 492.741 200.805 Q492.741 205.411 494.639 207.958 Q496.561 210.504 499.987 210.504 Q503.436 210.504 505.334 207.958 Q507.255 205.411 507.255 200.805 M511.514 210.851 Q511.514 217.471 508.574 220.689 Q505.635 223.93 499.57 223.93 Q497.325 223.93 495.334 223.582 Q493.343 223.258 491.468 222.564 L491.468 218.42 Q493.343 219.439 495.172 219.925 Q497 220.411 498.899 220.411 Q503.088 220.411 505.172 218.212 Q507.255 216.036 507.255 211.615 L507.255 209.508 Q505.936 211.8 503.875 212.934 Q501.815 214.069 498.945 214.069 Q494.176 214.069 491.26 210.434 Q488.343 206.8 488.343 200.805 Q488.343 194.786 491.26 191.152 Q494.176 187.518 498.945 187.518 Q501.815 187.518 503.875 188.652 Q505.936 189.786 507.255 192.078 L507.255 188.143 L511.514 188.143 L511.514 210.851 Z" fill="#000000" fill-rule="evenodd" fill-opacity="1" /><path clip-path="url(#clip400)" d="M541.838 198.421 L541.838 214.069 L537.579 214.069 L537.579 198.559 Q537.579 194.879 536.144 193.05 Q534.709 191.222 531.838 191.222 Q528.389 191.222 526.398 193.421 Q524.408 195.62 524.408 199.416 L524.408 214.069 L520.125 214.069 L520.125 178.05 L524.408 178.05 L524.408 192.171 Q525.936 189.833 527.996 188.675 Q530.079 187.518 532.787 187.518 Q537.255 187.518 539.547 190.296 Q541.838 193.05 541.838 198.421 Z" fill="#000000" fill-rule="evenodd" fill-opacity="1" /><path clip-path="url(#clip400)" d="M565.403 188.143 L569.662 188.143 L569.662 214.069 L565.403 214.069 L565.403 188.143 M565.403 178.05 L569.662 178.05 L569.662 183.444 L565.403 183.444 L565.403 178.05 Z" fill="#000000" fill-rule="evenodd" fill-opacity="1" /><path clip-path="url(#clip400)" d="M600.125 198.421 L600.125 214.069 L595.866 214.069 L595.866 198.559 Q595.866 194.879 594.431 193.05 Q592.995 191.222 590.125 191.222 Q586.676 191.222 584.685 193.421 Q582.694 195.62 582.694 199.416 L582.694 214.069 L578.412 214.069 L578.412 188.143 L582.694 188.143 L582.694 192.171 Q584.222 189.833 586.282 188.675 Q588.366 187.518 591.074 187.518 Q595.542 187.518 597.833 190.296 Q600.125 193.05 600.125 198.421 Z" fill="#000000" fill-rule="evenodd" fill-opacity="1" /><path clip-path="url(#clip400)" d="M627.278 189.138 L627.278 193.12 Q625.472 192.124 623.643 191.638 Q621.838 191.129 619.986 191.129 Q615.842 191.129 613.551 193.768 Q611.259 196.384 611.259 201.129 Q611.259 205.874 613.551 208.513 Q615.842 211.129 619.986 211.129 Q621.838 211.129 623.643 210.643 Q625.472 210.133 627.278 209.138 L627.278 213.073 Q625.495 213.907 623.574 214.323 Q621.676 214.74 619.523 214.74 Q613.667 214.74 610.217 211.059 Q606.768 207.379 606.768 201.129 Q606.768 194.786 610.241 191.152 Q613.736 187.518 619.801 187.518 Q621.768 187.518 623.643 187.935 Q625.518 188.328 627.278 189.138 Z" fill="#000000" fill-rule="evenodd" fill-opacity="1" /><path clip-path="url(#clip400)" d="M644.731 191.129 Q641.305 191.129 639.315 193.814 Q637.324 196.476 637.324 201.129 Q637.324 205.782 639.291 208.467 Q641.282 211.129 644.731 211.129 Q648.134 211.129 650.125 208.444 Q652.115 205.758 652.115 201.129 Q652.115 196.522 650.125 193.837 Q648.134 191.129 644.731 191.129 M644.731 187.518 Q650.287 187.518 653.458 191.129 Q656.629 194.74 656.629 201.129 Q656.629 207.495 653.458 211.129 Q650.287 214.74 644.731 214.74 Q639.152 214.74 635.981 211.129 Q632.833 207.495 632.833 201.129 Q632.833 194.74 635.981 191.129 Q639.152 187.518 644.731 187.518 Z" fill="#000000" fill-rule="evenodd" fill-opacity="1" /><path clip-path="url(#clip400)" d="M683.874 193.12 Q685.472 190.249 687.694 188.884 Q689.916 187.518 692.925 187.518 Q696.976 187.518 699.175 190.365 Q701.374 193.189 701.374 198.421 L701.374 214.069 L697.092 214.069 L697.092 198.559 Q697.092 194.833 695.773 193.027 Q694.453 191.222 691.745 191.222 Q688.435 191.222 686.513 193.421 Q684.592 195.62 684.592 199.416 L684.592 214.069 L680.31 214.069 L680.31 198.559 Q680.31 194.809 678.99 193.027 Q677.671 191.222 674.916 191.222 Q671.652 191.222 669.731 193.444 Q667.81 195.643 667.81 199.416 L667.81 214.069 L663.527 214.069 L663.527 188.143 L667.81 188.143 L667.81 192.171 Q669.268 189.786 671.305 188.652 Q673.342 187.518 676.143 187.518 Q678.967 187.518 680.935 188.953 Q682.925 190.388 683.874 193.12 Z" fill="#000000" fill-rule="evenodd" fill-opacity="1" /><path clip-path="url(#clip400)" d="M732.046 200.041 L732.046 202.124 L712.462 202.124 Q712.74 206.522 715.101 208.837 Q717.485 211.129 721.721 211.129 Q724.175 211.129 726.467 210.527 Q728.782 209.925 731.05 208.721 L731.05 212.749 Q728.758 213.721 726.351 214.231 Q723.944 214.74 721.467 214.74 Q715.263 214.74 711.629 211.129 Q708.018 207.518 708.018 201.36 Q708.018 194.995 711.444 191.268 Q714.893 187.518 720.726 187.518 Q725.958 187.518 728.99 190.897 Q732.046 194.254 732.046 200.041 M727.786 198.791 Q727.74 195.296 725.819 193.212 Q723.921 191.129 720.772 191.129 Q717.208 191.129 715.055 193.143 Q712.925 195.157 712.601 198.814 L727.786 198.791 Z" fill="#000000" fill-rule="evenodd" fill-opacity="1" /></svg>
