<?xml version="1.0" encoding="utf-8"?>
<svg xmlns="http://www.w3.org/2000/svg" xmlns:xlink="http://www.w3.org/1999/xlink" width="600" height="400" viewBox="0 0 2400 1600">
<defs>
  <clipPath id="clip480">
    <rect x="0" y="0" width="2400" height="1600"/>
  </clipPath>
</defs>
<path clip-path="url(#clip480)" d="
M0 1600 L2400 1600 L2400 0 L0 0  Z
  " fill="#ffffff" fill-rule="evenodd" fill-opacity="1"/>
<defs>
  <clipPath id="clip481">
    <rect x="480" y="0" width="1681" height="1600"/>
  </clipPath>
</defs>
<path clip-path="url(#clip480)" d="
M219.033 1423.18 L2352.76 1423.18 L2352.76 47.2441 L219.033 47.2441  Z
  " fill="#ffffff" fill-rule="evenodd" fill-opacity="1"/>
<defs>
  <clipPath id="clip482">
    <rect x="219" y="47" width="2135" height="1377"/>
  </clipPath>
</defs>
<polyline clip-path="url(#clip482)" style="stroke:#000000; stroke-linecap:butt; stroke-linejoin:round; stroke-width:2; stroke-opacity:0.1; fill:none" points="
  238.341,1423.18 238.341,47.2441 
  "/>
<polyline clip-path="url(#clip482)" style="stroke:#000000; stroke-linecap:butt; stroke-linejoin:round; stroke-width:2; stroke-opacity:0.1; fill:none" points="
  649.146,1423.18 649.146,47.2441 
  "/>
<polyline clip-path="url(#clip482)" style="stroke:#000000; stroke-linecap:butt; stroke-linejoin:round; stroke-width:2; stroke-opacity:0.1; fill:none" points="
  1059.95,1423.18 1059.95,47.2441 
  "/>
<polyline clip-path="url(#clip482)" style="stroke:#000000; stroke-linecap:butt; stroke-linejoin:round; stroke-width:2; stroke-opacity:0.1; fill:none" points="
  1470.76,1423.18 1470.76,47.2441 
  "/>
<polyline clip-path="url(#clip482)" style="stroke:#000000; stroke-linecap:butt; stroke-linejoin:round; stroke-width:2; stroke-opacity:0.1; fill:none" points="
  1881.56,1423.18 1881.56,47.2441 
  "/>
<polyline clip-path="url(#clip482)" style="stroke:#000000; stroke-linecap:butt; stroke-linejoin:round; stroke-width:2; stroke-opacity:0.1; fill:none" points="
  2292.37,1423.18 2292.37,47.2441 
  "/>
<polyline clip-path="url(#clip480)" style="stroke:#000000; stroke-linecap:butt; stroke-linejoin:round; stroke-width:4; stroke-opacity:1; fill:none" points="
  219.033,1423.18 2352.76,1423.18 
  "/>
<polyline clip-path="url(#clip480)" style="stroke:#000000; stroke-linecap:butt; stroke-linejoin:round; stroke-width:4; stroke-opacity:1; fill:none" points="
  238.341,1423.18 238.341,1404.28 
  "/>
<polyline clip-path="url(#clip480)" style="stroke:#000000; stroke-linecap:butt; stroke-linejoin:round; stroke-width:4; stroke-opacity:1; fill:none" points="
  649.146,1423.18 649.146,1404.28 
  "/>
<polyline clip-path="url(#clip480)" style="stroke:#000000; stroke-linecap:butt; stroke-linejoin:round; stroke-width:4; stroke-opacity:1; fill:none" points="
  1059.95,1423.18 1059.95,1404.28 
  "/>
<polyline clip-path="url(#clip480)" style="stroke:#000000; stroke-linecap:butt; stroke-linejoin:round; stroke-width:4; stroke-opacity:1; fill:none" points="
  1470.76,1423.18 1470.76,1404.28 
  "/>
<polyline clip-path="url(#clip480)" style="stroke:#000000; stroke-linecap:butt; stroke-linejoin:round; stroke-width:4; stroke-opacity:1; fill:none" points="
  1881.56,1423.18 1881.56,1404.28 
  "/>
<polyline clip-path="url(#clip480)" style="stroke:#000000; stroke-linecap:butt; stroke-linejoin:round; stroke-width:4; stroke-opacity:1; fill:none" points="
  2292.37,1423.18 2292.37,1404.28 
  "/>
<path clip-path="url(#clip480)" d="M238.341 1452.37 Q234.73 1452.37 232.901 1455.94 Q231.095 1459.48 231.095 1466.61 Q231.095 1473.71 232.901 1477.28 Q234.73 1480.82 238.341 1480.82 Q241.975 1480.82 243.781 1477.28 Q245.609 1473.71 245.609 1466.61 Q245.609 1459.48 243.781 1455.94 Q241.975 1452.37 238.341 1452.37 M238.341 1448.67 Q244.151 1448.67 247.206 1453.27 Q250.285 1457.86 250.285 1466.61 Q250.285 1475.33 247.206 1479.94 Q244.151 1484.52 238.341 1484.52 Q232.531 1484.52 229.452 1479.94 Q226.396 1475.33 226.396 1466.61 Q226.396 1457.86 229.452 1453.27 Q232.531 1448.67 238.341 1448.67 Z" fill="#000000" fill-rule="evenodd" fill-opacity="1" /><path clip-path="url(#clip480)" d="M623.834 1479.92 L631.473 1479.92 L631.473 1453.55 L623.162 1455.22 L623.162 1450.96 L631.426 1449.29 L636.102 1449.29 L636.102 1479.92 L643.741 1479.92 L643.741 1483.85 L623.834 1483.85 L623.834 1479.92 Z" fill="#000000" fill-rule="evenodd" fill-opacity="1" /><path clip-path="url(#clip480)" d="M663.185 1452.37 Q659.574 1452.37 657.746 1455.94 Q655.94 1459.48 655.94 1466.61 Q655.94 1473.71 657.746 1477.28 Q659.574 1480.82 663.185 1480.82 Q666.82 1480.82 668.625 1477.28 Q670.454 1473.71 670.454 1466.61 Q670.454 1459.48 668.625 1455.94 Q666.82 1452.37 663.185 1452.37 M663.185 1448.67 Q668.996 1448.67 672.051 1453.27 Q675.13 1457.86 675.13 1466.61 Q675.13 1475.33 672.051 1479.94 Q668.996 1484.52 663.185 1484.52 Q657.375 1484.52 654.297 1479.94 Q651.241 1475.33 651.241 1466.61 Q651.241 1457.86 654.297 1453.27 Q657.375 1448.67 663.185 1448.67 Z" fill="#000000" fill-rule="evenodd" fill-opacity="1" /><path clip-path="url(#clip480)" d="M1038.72 1479.92 L1055.04 1479.92 L1055.04 1483.85 L1033.1 1483.85 L1033.1 1479.92 Q1035.76 1477.16 1040.35 1472.53 Q1044.95 1467.88 1046.13 1466.54 Q1048.38 1464.01 1049.26 1462.28 Q1050.16 1460.52 1050.16 1458.83 Q1050.16 1456.07 1048.22 1454.34 Q1046.29 1452.6 1043.19 1452.6 Q1040.99 1452.6 1038.54 1453.37 Q1036.11 1454.13 1033.33 1455.68 L1033.33 1450.96 Q1036.16 1449.82 1038.61 1449.25 Q1041.06 1448.67 1043.1 1448.67 Q1048.47 1448.67 1051.66 1451.35 Q1054.86 1454.04 1054.86 1458.53 Q1054.86 1460.66 1054.05 1462.58 Q1053.26 1464.48 1051.16 1467.07 Q1050.58 1467.74 1047.47 1470.96 Q1044.37 1474.15 1038.72 1479.92 Z" fill="#000000" fill-rule="evenodd" fill-opacity="1" /><path clip-path="url(#clip480)" d="M1074.86 1452.37 Q1071.25 1452.37 1069.42 1455.94 Q1067.61 1459.48 1067.61 1466.61 Q1067.61 1473.71 1069.42 1477.28 Q1071.25 1480.82 1074.86 1480.82 Q1078.49 1480.82 1080.3 1477.28 Q1082.13 1473.71 1082.13 1466.61 Q1082.13 1459.48 1080.3 1455.94 Q1078.49 1452.37 1074.86 1452.37 M1074.86 1448.67 Q1080.67 1448.67 1083.72 1453.27 Q1086.8 1457.86 1086.8 1466.61 Q1086.8 1475.33 1083.72 1479.94 Q1080.67 1484.52 1074.86 1484.52 Q1069.05 1484.52 1065.97 1479.94 Q1062.91 1475.33 1062.91 1466.61 Q1062.91 1457.86 1065.97 1453.27 Q1069.05 1448.67 1074.86 1448.67 Z" fill="#000000" fill-rule="evenodd" fill-opacity="1" /><path clip-path="url(#clip480)" d="M1459.6 1465.22 Q1462.96 1465.94 1464.83 1468.2 Q1466.73 1470.47 1466.73 1473.81 Q1466.73 1478.92 1463.21 1481.72 Q1459.69 1484.52 1453.21 1484.52 Q1451.03 1484.52 1448.72 1484.08 Q1446.43 1483.67 1443.97 1482.81 L1443.97 1478.3 Q1445.92 1479.43 1448.23 1480.01 Q1450.55 1480.59 1453.07 1480.59 Q1457.47 1480.59 1459.76 1478.85 Q1462.08 1477.12 1462.08 1473.81 Q1462.08 1470.75 1459.92 1469.04 Q1457.79 1467.3 1453.97 1467.3 L1449.95 1467.3 L1449.95 1463.46 L1454.16 1463.46 Q1457.61 1463.46 1459.44 1462.09 Q1461.27 1460.7 1461.27 1458.11 Q1461.27 1455.45 1459.37 1454.04 Q1457.49 1452.6 1453.97 1452.6 Q1452.05 1452.6 1449.85 1453.02 Q1447.66 1453.44 1445.02 1454.31 L1445.02 1450.15 Q1447.68 1449.41 1449.99 1449.04 Q1452.33 1448.67 1454.39 1448.67 Q1459.72 1448.67 1462.82 1451.1 Q1465.92 1453.5 1465.92 1457.63 Q1465.92 1460.5 1464.28 1462.49 Q1462.63 1464.45 1459.6 1465.22 Z" fill="#000000" fill-rule="evenodd" fill-opacity="1" /><path clip-path="url(#clip480)" d="M1485.59 1452.37 Q1481.98 1452.37 1480.15 1455.94 Q1478.35 1459.48 1478.35 1466.61 Q1478.35 1473.71 1480.15 1477.28 Q1481.98 1480.82 1485.59 1480.82 Q1489.23 1480.82 1491.03 1477.28 Q1492.86 1473.71 1492.86 1466.61 Q1492.86 1459.48 1491.03 1455.94 Q1489.23 1452.37 1485.59 1452.37 M1485.59 1448.67 Q1491.4 1448.67 1494.46 1453.27 Q1497.54 1457.86 1497.54 1466.61 Q1497.54 1475.33 1494.46 1479.94 Q1491.4 1484.52 1485.59 1484.52 Q1479.78 1484.52 1476.71 1479.94 Q1473.65 1475.33 1473.65 1466.61 Q1473.65 1457.86 1476.71 1453.27 Q1479.78 1448.67 1485.59 1448.67 Z" fill="#000000" fill-rule="evenodd" fill-opacity="1" /><path clip-path="url(#clip480)" d="M1869.73 1453.37 L1857.93 1471.81 L1869.73 1471.81 L1869.73 1453.37 M1868.51 1449.29 L1874.39 1449.29 L1874.39 1471.81 L1879.32 1471.81 L1879.32 1475.7 L1874.39 1475.7 L1874.39 1483.85 L1869.73 1483.85 L1869.73 1475.7 L1854.13 1475.7 L1854.13 1471.19 L1868.51 1449.29 Z" fill="#000000" fill-rule="evenodd" fill-opacity="1" /><path clip-path="url(#clip480)" d="M1897.05 1452.37 Q1893.44 1452.37 1891.61 1455.94 Q1889.8 1459.48 1889.8 1466.61 Q1889.8 1473.71 1891.61 1477.28 Q1893.44 1480.82 1897.05 1480.82 Q1900.68 1480.82 1902.49 1477.28 Q1904.32 1473.71 1904.32 1466.61 Q1904.32 1459.48 1902.49 1455.94 Q1900.68 1452.37 1897.05 1452.37 M1897.05 1448.67 Q1902.86 1448.67 1905.91 1453.27 Q1908.99 1457.86 1908.99 1466.61 Q1908.99 1475.33 1905.91 1479.94 Q1902.86 1484.52 1897.05 1484.52 Q1891.24 1484.52 1888.16 1479.94 Q1885.1 1475.33 1885.1 1466.61 Q1885.1 1457.86 1888.16 1453.27 Q1891.24 1448.67 1897.05 1448.67 Z" fill="#000000" fill-rule="evenodd" fill-opacity="1" /><path clip-path="url(#clip480)" d="M2267.07 1449.29 L2285.42 1449.29 L2285.42 1453.23 L2271.35 1453.23 L2271.35 1461.7 Q2272.37 1461.35 2273.39 1461.19 Q2274.4 1461 2275.42 1461 Q2281.21 1461 2284.59 1464.18 Q2287.97 1467.35 2287.97 1472.76 Q2287.97 1478.34 2284.5 1481.44 Q2281.02 1484.52 2274.71 1484.52 Q2272.53 1484.52 2270.26 1484.15 Q2268.02 1483.78 2265.61 1483.04 L2265.61 1478.34 Q2267.69 1479.48 2269.91 1480.03 Q2272.14 1480.59 2274.61 1480.59 Q2278.62 1480.59 2280.96 1478.48 Q2283.29 1476.38 2283.29 1472.76 Q2283.29 1469.15 2280.96 1467.05 Q2278.62 1464.94 2274.61 1464.94 Q2272.74 1464.94 2270.86 1465.36 Q2269.01 1465.77 2267.07 1466.65 L2267.07 1449.29 Z" fill="#000000" fill-rule="evenodd" fill-opacity="1" /><path clip-path="url(#clip480)" d="M2307.18 1452.37 Q2303.57 1452.37 2301.74 1455.94 Q2299.94 1459.48 2299.94 1466.61 Q2299.94 1473.71 2301.74 1477.28 Q2303.57 1480.82 2307.18 1480.82 Q2310.82 1480.82 2312.62 1477.28 Q2314.45 1473.71 2314.45 1466.61 Q2314.45 1459.48 2312.62 1455.94 Q2310.82 1452.37 2307.18 1452.37 M2307.18 1448.67 Q2312.99 1448.67 2316.05 1453.27 Q2319.13 1457.86 2319.13 1466.61 Q2319.13 1475.33 2316.05 1479.94 Q2312.99 1484.52 2307.18 1484.52 Q2301.37 1484.52 2298.29 1479.94 Q2295.24 1475.33 2295.24 1466.61 Q2295.24 1457.86 2298.29 1453.27 Q2301.37 1448.67 2307.18 1448.67 Z" fill="#000000" fill-rule="evenodd" fill-opacity="1" /><path clip-path="url(#clip480)" d="M1134.71 1550.12 Q1127.61 1550.12 1124.87 1551.75 Q1122.14 1553.37 1122.14 1557.29 Q1122.14 1560.4 1124.17 1562.25 Q1126.24 1564.07 1129.78 1564.07 Q1134.65 1564.07 1137.57 1560.63 Q1140.53 1557.16 1140.53 1551.43 L1140.53 1550.12 L1134.71 1550.12 M1146.39 1547.71 L1146.39 1568.04 L1140.53 1568.04 L1140.53 1562.63 Q1138.53 1565.88 1135.54 1567.44 Q1132.54 1568.97 1128.22 1568.97 Q1122.74 1568.97 1119.49 1565.91 Q1116.28 1562.82 1116.28 1557.67 Q1116.28 1551.65 1120.29 1548.6 Q1124.33 1545.54 1132.32 1545.54 L1140.53 1545.54 L1140.53 1544.97 Q1140.53 1540.93 1137.86 1538.73 Q1135.22 1536.5 1130.41 1536.5 Q1127.36 1536.5 1124.46 1537.23 Q1121.56 1537.97 1118.89 1539.43 L1118.89 1534.02 Q1122.1 1532.78 1125.13 1532.17 Q1128.15 1531.54 1131.02 1531.54 Q1138.75 1531.54 1142.57 1535.55 Q1146.39 1539.56 1146.39 1547.71 Z" fill="#000000" fill-rule="evenodd" fill-opacity="1" /><path clip-path="url(#clip480)" d="M1181.18 1533.45 L1181.18 1538.98 Q1178.7 1537.71 1176.02 1537.07 Q1173.35 1536.44 1170.48 1536.44 Q1166.12 1536.44 1163.93 1537.77 Q1161.76 1539.11 1161.76 1541.79 Q1161.76 1543.82 1163.32 1545 Q1164.88 1546.15 1169.59 1547.2 L1171.6 1547.64 Q1177.84 1548.98 1180.45 1551.43 Q1183.09 1553.85 1183.09 1558.21 Q1183.09 1563.17 1179.14 1566.07 Q1175.23 1568.97 1168.35 1568.97 Q1165.49 1568.97 1162.37 1568.39 Q1159.28 1567.85 1155.84 1566.74 L1155.84 1560.69 Q1159.09 1562.38 1162.24 1563.24 Q1165.39 1564.07 1168.48 1564.07 Q1172.62 1564.07 1174.84 1562.66 Q1177.07 1561.23 1177.07 1558.65 Q1177.07 1556.27 1175.45 1554.99 Q1173.86 1553.72 1168.42 1552.54 L1166.38 1552.07 Q1160.94 1550.92 1158.52 1548.56 Q1156.1 1546.18 1156.1 1542.04 Q1156.1 1537.01 1159.66 1534.27 Q1163.23 1531.54 1169.78 1531.54 Q1173.03 1531.54 1175.9 1532.01 Q1178.76 1532.49 1181.18 1533.45 Z" fill="#000000" fill-rule="evenodd" fill-opacity="1" /><path clip-path="url(#clip480)" d="M1215.14 1533.45 L1215.14 1538.98 Q1212.66 1537.71 1209.98 1537.07 Q1207.31 1536.44 1204.45 1536.44 Q1200.08 1536.44 1197.89 1537.77 Q1195.72 1539.11 1195.72 1541.79 Q1195.72 1543.82 1197.28 1545 Q1198.84 1546.15 1203.55 1547.2 L1205.56 1547.64 Q1211.8 1548.98 1214.41 1551.43 Q1217.05 1553.85 1217.05 1558.21 Q1217.05 1563.17 1213.1 1566.07 Q1209.19 1568.97 1202.31 1568.97 Q1199.45 1568.97 1196.33 1568.39 Q1193.24 1567.85 1189.8 1566.74 L1189.8 1560.69 Q1193.05 1562.38 1196.2 1563.24 Q1199.35 1564.07 1202.44 1564.07 Q1206.58 1564.07 1208.81 1562.66 Q1211.03 1561.23 1211.03 1558.65 Q1211.03 1556.27 1209.41 1554.99 Q1207.82 1553.72 1202.38 1552.54 L1200.34 1552.07 Q1194.9 1550.92 1192.48 1548.56 Q1190.06 1546.18 1190.06 1542.04 Q1190.06 1537.01 1193.62 1534.27 Q1197.19 1531.54 1203.74 1531.54 Q1206.99 1531.54 1209.86 1532.01 Q1212.72 1532.49 1215.14 1533.45 Z" fill="#000000" fill-rule="evenodd" fill-opacity="1" /><path clip-path="url(#clip480)" d="M1256.87 1548.76 L1256.87 1551.62 L1229.94 1551.62 Q1230.32 1557.67 1233.57 1560.85 Q1236.85 1564 1242.67 1564 Q1246.05 1564 1249.2 1563.17 Q1252.38 1562.35 1255.5 1560.69 L1255.5 1566.23 Q1252.35 1567.57 1249.04 1568.27 Q1245.73 1568.97 1242.32 1568.97 Q1233.79 1568.97 1228.79 1564 Q1223.83 1559.04 1223.83 1550.57 Q1223.83 1541.82 1228.54 1536.69 Q1233.28 1531.54 1241.3 1531.54 Q1248.5 1531.54 1252.67 1536.18 Q1256.87 1540.8 1256.87 1548.76 M1251.01 1547.04 Q1250.95 1542.23 1248.3 1539.37 Q1245.69 1536.5 1241.37 1536.5 Q1236.46 1536.5 1233.5 1539.27 Q1230.58 1542.04 1230.13 1547.07 L1251.01 1547.04 Z" fill="#000000" fill-rule="evenodd" fill-opacity="1" /><path clip-path="url(#clip480)" d="M1272.27 1522.27 L1272.27 1532.4 L1284.33 1532.4 L1284.33 1536.95 L1272.27 1536.95 L1272.27 1556.3 Q1272.27 1560.66 1273.45 1561.9 Q1274.66 1563.14 1278.32 1563.14 L1284.33 1563.14 L1284.33 1568.04 L1278.32 1568.04 Q1271.54 1568.04 1268.96 1565.53 Q1266.38 1562.98 1266.38 1556.3 L1266.38 1536.95 L1262.09 1536.95 L1262.09 1532.4 L1266.38 1532.4 L1266.38 1522.27 L1272.27 1522.27 Z" fill="#000000" fill-rule="evenodd" fill-opacity="1" /><path clip-path="url(#clip480)" d="M1312.76 1518.52 L1318.61 1518.52 L1318.61 1568.04 L1312.76 1568.04 L1312.76 1518.52 Z" fill="#000000" fill-rule="evenodd" fill-opacity="1" /><path clip-path="url(#clip480)" d="M1361.36 1548.76 L1361.36 1551.62 L1334.43 1551.62 Q1334.81 1557.67 1338.06 1560.85 Q1341.34 1564 1347.16 1564 Q1350.54 1564 1353.69 1563.17 Q1356.87 1562.35 1359.99 1560.69 L1359.99 1566.23 Q1356.84 1567.57 1353.53 1568.27 Q1350.22 1568.97 1346.81 1568.97 Q1338.28 1568.97 1333.29 1564 Q1328.32 1559.04 1328.32 1550.57 Q1328.32 1541.82 1333.03 1536.69 Q1337.77 1531.54 1345.8 1531.54 Q1352.99 1531.54 1357.16 1536.18 Q1361.36 1540.8 1361.36 1548.76 M1355.5 1547.04 Q1355.44 1542.23 1352.8 1539.37 Q1350.19 1536.5 1345.86 1536.5 Q1340.96 1536.5 1338 1539.27 Q1335.07 1542.04 1334.62 1547.07 L1355.5 1547.04 Z" fill="#000000" fill-rule="evenodd" fill-opacity="1" /><path clip-path="url(#clip480)" d="M1366.77 1532.4 L1372.98 1532.4 L1384.12 1562.31 L1395.26 1532.4 L1401.46 1532.4 L1388.1 1568.04 L1380.14 1568.04 L1366.77 1532.4 Z" fill="#000000" fill-rule="evenodd" fill-opacity="1" /><path clip-path="url(#clip480)" d="M1440.04 1548.76 L1440.04 1551.62 L1413.11 1551.62 Q1413.5 1557.67 1416.74 1560.85 Q1420.02 1564 1425.84 1564 Q1429.22 1564 1432.37 1563.17 Q1435.55 1562.35 1438.67 1560.69 L1438.67 1566.23 Q1435.52 1567.57 1432.21 1568.27 Q1428.9 1568.97 1425.49 1568.97 Q1416.96 1568.97 1411.97 1564 Q1407 1559.04 1407 1550.57 Q1407 1541.82 1411.71 1536.69 Q1416.46 1531.54 1424.48 1531.54 Q1431.67 1531.54 1435.84 1536.18 Q1440.04 1540.8 1440.04 1548.76 M1434.18 1547.04 Q1434.12 1542.23 1431.48 1539.37 Q1428.87 1536.5 1424.54 1536.5 Q1419.64 1536.5 1416.68 1539.27 Q1413.75 1542.04 1413.3 1547.07 L1434.18 1547.04 Z" fill="#000000" fill-rule="evenodd" fill-opacity="1" /><path clip-path="url(#clip480)" d="M1449.65 1518.52 L1455.51 1518.52 L1455.51 1568.04 L1449.65 1568.04 L1449.65 1518.52 Z" fill="#000000" fill-rule="evenodd" fill-opacity="1" /><polyline clip-path="url(#clip482)" style="stroke:#000000; stroke-linecap:butt; stroke-linejoin:round; stroke-width:2; stroke-opacity:0.1; fill:none" points="
  219.033,1384.24 2352.76,1384.24 
  "/>
<polyline clip-path="url(#clip482)" style="stroke:#000000; stroke-linecap:butt; stroke-linejoin:round; stroke-width:2; stroke-opacity:0.1; fill:none" points="
  219.033,1037.29 2352.76,1037.29 
  "/>
<polyline clip-path="url(#clip482)" style="stroke:#000000; stroke-linecap:butt; stroke-linejoin:round; stroke-width:2; stroke-opacity:0.1; fill:none" points="
  219.033,690.339 2352.76,690.339 
  "/>
<polyline clip-path="url(#clip482)" style="stroke:#000000; stroke-linecap:butt; stroke-linejoin:round; stroke-width:2; stroke-opacity:0.1; fill:none" points="
  219.033,343.389 2352.76,343.389 
  "/>
<polyline clip-path="url(#clip480)" style="stroke:#000000; stroke-linecap:butt; stroke-linejoin:round; stroke-width:4; stroke-opacity:1; fill:none" points="
  219.033,1423.18 219.033,47.2441 
  "/>
<polyline clip-path="url(#clip480)" style="stroke:#000000; stroke-linecap:butt; stroke-linejoin:round; stroke-width:4; stroke-opacity:1; fill:none" points="
  219.033,1384.24 237.931,1384.24 
  "/>
<polyline clip-path="url(#clip480)" style="stroke:#000000; stroke-linecap:butt; stroke-linejoin:round; stroke-width:4; stroke-opacity:1; fill:none" points="
  219.033,1037.29 237.931,1037.29 
  "/>
<polyline clip-path="url(#clip480)" style="stroke:#000000; stroke-linecap:butt; stroke-linejoin:round; stroke-width:4; stroke-opacity:1; fill:none" points="
  219.033,690.339 237.931,690.339 
  "/>
<polyline clip-path="url(#clip480)" style="stroke:#000000; stroke-linecap:butt; stroke-linejoin:round; stroke-width:4; stroke-opacity:1; fill:none" points="
  219.033,343.389 237.931,343.389 
  "/>
<path clip-path="url(#clip480)" d="M126.853 1370.04 Q123.242 1370.04 121.413 1373.6 Q119.607 1377.14 119.607 1384.27 Q119.607 1391.38 121.413 1394.94 Q123.242 1398.49 126.853 1398.49 Q130.487 1398.49 132.292 1394.94 Q134.121 1391.38 134.121 1384.27 Q134.121 1377.14 132.292 1373.6 Q130.487 1370.04 126.853 1370.04 M126.853 1366.33 Q132.663 1366.33 135.718 1370.94 Q138.797 1375.52 138.797 1384.27 Q138.797 1393 135.718 1397.61 Q132.663 1402.19 126.853 1402.19 Q121.043 1402.19 117.964 1397.61 Q114.908 1393 114.908 1384.27 Q114.908 1375.52 117.964 1370.94 Q121.043 1366.33 126.853 1366.33 Z" fill="#000000" fill-rule="evenodd" fill-opacity="1" /><path clip-path="url(#clip480)" d="M147.015 1395.64 L151.899 1395.64 L151.899 1401.52 L147.015 1401.52 L147.015 1395.64 Z" fill="#000000" fill-rule="evenodd" fill-opacity="1" /><path clip-path="url(#clip480)" d="M162.13 1366.96 L180.487 1366.96 L180.487 1370.89 L166.413 1370.89 L166.413 1379.37 Q167.431 1379.02 168.45 1378.86 Q169.468 1378.67 170.487 1378.67 Q176.274 1378.67 179.653 1381.84 Q183.033 1385.01 183.033 1390.43 Q183.033 1396.01 179.561 1399.11 Q176.089 1402.19 169.769 1402.19 Q167.593 1402.19 165.325 1401.82 Q163.079 1401.45 160.672 1400.71 L160.672 1396.01 Q162.755 1397.14 164.977 1397.7 Q167.2 1398.25 169.677 1398.25 Q173.681 1398.25 176.019 1396.15 Q178.357 1394.04 178.357 1390.43 Q178.357 1386.82 176.019 1384.71 Q173.681 1382.61 169.677 1382.61 Q167.802 1382.61 165.927 1383.02 Q164.075 1383.44 162.13 1384.32 L162.13 1366.96 Z" fill="#000000" fill-rule="evenodd" fill-opacity="1" /><path clip-path="url(#clip480)" d="M116.668 1050.63 L124.306 1050.63 L124.306 1024.27 L115.996 1025.93 L115.996 1021.68 L124.26 1020.01 L128.936 1020.01 L128.936 1050.63 L136.575 1050.63 L136.575 1054.57 L116.668 1054.57 L116.668 1050.63 Z" fill="#000000" fill-rule="evenodd" fill-opacity="1" /><path clip-path="url(#clip480)" d="M146.019 1048.69 L150.903 1048.69 L150.903 1054.57 L146.019 1054.57 L146.019 1048.69 Z" fill="#000000" fill-rule="evenodd" fill-opacity="1" /><path clip-path="url(#clip480)" d="M171.089 1023.09 Q167.477 1023.09 165.649 1026.65 Q163.843 1030.19 163.843 1037.32 Q163.843 1044.43 165.649 1047.99 Q167.477 1051.54 171.089 1051.54 Q174.723 1051.54 176.528 1047.99 Q178.357 1044.43 178.357 1037.32 Q178.357 1030.19 176.528 1026.65 Q174.723 1023.09 171.089 1023.09 M171.089 1019.38 Q176.899 1019.38 179.954 1023.99 Q183.033 1028.57 183.033 1037.32 Q183.033 1046.05 179.954 1050.66 Q176.899 1055.24 171.089 1055.24 Q165.278 1055.24 162.2 1050.66 Q159.144 1046.05 159.144 1037.32 Q159.144 1028.57 162.2 1023.99 Q165.278 1019.38 171.089 1019.38 Z" fill="#000000" fill-rule="evenodd" fill-opacity="1" /><path clip-path="url(#clip480)" d="M117.663 703.683 L125.302 703.683 L125.302 677.318 L116.992 678.984 L116.992 674.725 L125.255 673.059 L129.931 673.059 L129.931 703.683 L137.57 703.683 L137.57 707.619 L117.663 707.619 L117.663 703.683 Z" fill="#000000" fill-rule="evenodd" fill-opacity="1" /><path clip-path="url(#clip480)" d="M147.015 701.739 L151.899 701.739 L151.899 707.619 L147.015 707.619 L147.015 701.739 Z" fill="#000000" fill-rule="evenodd" fill-opacity="1" /><path clip-path="url(#clip480)" d="M162.13 673.059 L180.487 673.059 L180.487 676.994 L166.413 676.994 L166.413 685.466 Q167.431 685.119 168.45 684.957 Q169.468 684.771 170.487 684.771 Q176.274 684.771 179.653 687.943 Q183.033 691.114 183.033 696.531 Q183.033 702.109 179.561 705.211 Q176.089 708.29 169.769 708.29 Q167.593 708.29 165.325 707.919 Q163.079 707.549 160.672 706.808 L160.672 702.109 Q162.755 703.244 164.977 703.799 Q167.2 704.355 169.677 704.355 Q173.681 704.355 176.019 702.248 Q178.357 700.142 178.357 696.531 Q178.357 692.92 176.019 690.813 Q173.681 688.707 169.677 688.707 Q167.802 688.707 165.927 689.123 Q164.075 689.54 162.13 690.42 L162.13 673.059 Z" fill="#000000" fill-rule="evenodd" fill-opacity="1" /><path clip-path="url(#clip480)" d="M119.885 356.734 L136.204 356.734 L136.204 360.669 L114.26 360.669 L114.26 356.734 Q116.922 353.979 121.505 349.349 Q126.112 344.697 127.292 343.354 Q129.538 340.831 130.417 339.095 Q131.32 337.335 131.32 335.646 Q131.32 332.891 129.376 331.155 Q127.455 329.419 124.353 329.419 Q122.154 329.419 119.7 330.183 Q117.269 330.947 114.492 332.498 L114.492 327.775 Q117.316 326.641 119.769 326.062 Q122.223 325.484 124.26 325.484 Q129.63 325.484 132.825 328.169 Q136.019 330.854 136.019 335.345 Q136.019 337.474 135.209 339.396 Q134.422 341.294 132.316 343.886 Q131.737 344.558 128.635 347.775 Q125.533 350.97 119.885 356.734 Z" fill="#000000" fill-rule="evenodd" fill-opacity="1" /><path clip-path="url(#clip480)" d="M146.019 354.789 L150.903 354.789 L150.903 360.669 L146.019 360.669 L146.019 354.789 Z" fill="#000000" fill-rule="evenodd" fill-opacity="1" /><path clip-path="url(#clip480)" d="M171.089 329.187 Q167.477 329.187 165.649 332.752 Q163.843 336.294 163.843 343.423 Q163.843 350.53 165.649 354.095 Q167.477 357.636 171.089 357.636 Q174.723 357.636 176.528 354.095 Q178.357 350.53 178.357 343.423 Q178.357 336.294 176.528 332.752 Q174.723 329.187 171.089 329.187 M171.089 325.484 Q176.899 325.484 179.954 330.09 Q183.033 334.673 183.033 343.423 Q183.033 352.15 179.954 356.757 Q176.899 361.34 171.089 361.34 Q165.278 361.34 162.2 356.757 Q159.144 352.15 159.144 343.423 Q159.144 334.673 162.2 330.09 Q165.278 325.484 171.089 325.484 Z" fill="#000000" fill-rule="evenodd" fill-opacity="1" /><path clip-path="url(#clip480)" d="M20.1444 1129.3 L26.9239 1129.3 Q23.9002 1132.54 22.4043 1136.24 Q20.9083 1139.9 20.9083 1144.03 Q20.9083 1152.18 25.9054 1156.51 Q30.8707 1160.84 40.2919 1160.84 Q49.6813 1160.84 54.6784 1156.51 Q59.6436 1152.18 59.6436 1144.03 Q59.6436 1139.9 58.1477 1136.24 Q56.6518 1132.54 53.6281 1129.3 L60.3439 1129.3 Q62.6355 1132.67 63.7814 1136.46 Q64.9272 1140.21 64.9272 1144.42 Q64.9272 1155.21 58.3387 1161.41 Q51.7183 1167.62 40.2919 1167.62 Q28.8336 1167.62 22.2451 1161.41 Q15.6248 1155.21 15.6248 1144.42 Q15.6248 1140.15 16.7706 1136.39 Q17.8846 1132.61 20.1444 1129.3 Z" fill="#000000" fill-rule="evenodd" fill-opacity="1" /><path clip-path="url(#clip480)" d="M32.4621 1105.81 Q32.4621 1110.52 36.1542 1113.26 Q39.8145 1115.99 46.212 1115.99 Q52.6095 1115.99 56.3017 1113.29 Q59.9619 1110.55 59.9619 1105.81 Q59.9619 1101.13 56.2698 1098.39 Q52.5777 1095.65 46.212 1095.65 Q39.8781 1095.65 36.186 1098.39 Q32.4621 1101.13 32.4621 1105.81 M27.4968 1105.81 Q27.4968 1098.17 32.4621 1093.81 Q37.4273 1089.45 46.212 1089.45 Q54.9649 1089.45 59.9619 1093.81 Q64.9272 1098.17 64.9272 1105.81 Q64.9272 1113.48 59.9619 1117.84 Q54.9649 1122.17 46.212 1122.17 Q37.4273 1122.17 32.4621 1117.84 Q27.4968 1113.48 27.4968 1105.81 Z" fill="#000000" fill-rule="evenodd" fill-opacity="1" /><path clip-path="url(#clip480)" d="M42.4881 1050.11 L64.0042 1050.11 L64.0042 1055.96 L42.679 1055.96 Q37.6183 1055.96 35.1038 1057.94 Q32.5894 1059.91 32.5894 1063.86 Q32.5894 1068.6 35.6131 1071.34 Q38.6368 1074.07 43.8567 1074.07 L64.0042 1074.07 L64.0042 1079.96 L28.3562 1079.96 L28.3562 1074.07 L33.8944 1074.07 Q30.6797 1071.97 29.0883 1069.14 Q27.4968 1066.28 27.4968 1062.55 Q27.4968 1056.41 31.3163 1053.26 Q35.1038 1050.11 42.4881 1050.11 Z" fill="#000000" fill-rule="evenodd" fill-opacity="1" /><path clip-path="url(#clip480)" d="M29.4065 1015.7 L34.9447 1015.7 Q33.6716 1018.18 33.035 1020.86 Q32.3984 1023.53 32.3984 1026.4 Q32.3984 1030.76 33.7352 1032.95 Q35.072 1035.12 37.7456 1035.12 Q39.7826 1035.12 40.9603 1033.56 Q42.1061 1032 43.1565 1027.29 L43.6021 1025.28 Q44.9389 1019.04 47.3897 1016.43 Q49.8086 1013.79 54.1691 1013.79 Q59.1344 1013.79 62.0308 1017.74 Q64.9272 1021.65 64.9272 1028.53 Q64.9272 1031.39 64.3543 1034.51 Q63.8132 1037.6 62.6992 1041.04 L56.6518 1041.04 Q58.3387 1037.79 59.198 1034.64 Q60.0256 1031.49 60.0256 1028.4 Q60.0256 1024.26 58.6251 1022.03 Q57.1929 1019.81 54.6147 1019.81 Q52.2276 1019.81 50.9545 1021.43 Q49.6813 1023.02 48.5037 1028.46 L48.0262 1030.5 Q46.8804 1035.94 44.5251 1038.36 Q42.138 1040.78 38.0002 1040.78 Q32.9713 1040.78 30.2341 1037.22 Q27.4968 1033.65 27.4968 1027.1 Q27.4968 1023.85 27.9743 1020.98 Q28.4517 1018.12 29.4065 1015.7 Z" fill="#000000" fill-rule="evenodd" fill-opacity="1" /><path clip-path="url(#clip480)" d="M49.9359 1005.07 L28.3562 1005.07 L28.3562 999.214 L49.7131 999.214 Q54.7739 999.214 57.3202 997.24 Q59.8346 995.267 59.8346 991.32 Q59.8346 986.578 56.8109 983.841 Q53.7872 981.071 48.5673 981.071 L28.3562 981.071 L28.3562 975.215 L64.0042 975.215 L64.0042 981.071 L58.5296 981.071 Q61.7762 983.204 63.3676 986.037 Q64.9272 988.838 64.9272 992.562 Q64.9272 998.704 61.1078 1001.89 Q57.2883 1005.07 49.9359 1005.07 M27.4968 990.334 L27.4968 990.334 Z" fill="#000000" fill-rule="evenodd" fill-opacity="1" /><path clip-path="url(#clip480)" d="M35.1993 935.398 Q31.2526 933.201 29.3747 930.146 Q27.4968 927.09 27.4968 922.953 Q27.4968 917.383 31.4117 914.359 Q35.2948 911.335 42.4881 911.335 L64.0042 911.335 L64.0042 917.223 L42.679 917.223 Q37.5546 917.223 35.072 919.038 Q32.5894 920.852 32.5894 924.576 Q32.5894 929.127 35.6131 931.769 Q38.6368 934.411 43.8567 934.411 L64.0042 934.411 L64.0042 940.299 L42.679 940.299 Q37.5228 940.299 35.072 942.113 Q32.5894 943.928 32.5894 947.715 Q32.5894 952.203 35.6449 954.845 Q38.6686 957.487 43.8567 957.487 L64.0042 957.487 L64.0042 963.375 L28.3562 963.375 L28.3562 957.487 L33.8944 957.487 Q30.616 955.481 29.0564 952.68 Q27.4968 949.88 27.4968 946.028 Q27.4968 942.145 29.4702 939.44 Q31.4436 936.702 35.1993 935.398 Z" fill="#000000" fill-rule="evenodd" fill-opacity="1" /><path clip-path="url(#clip480)" d="M58.657 893.989 L77.5631 893.989 L77.5631 899.877 L28.3562 899.877 L28.3562 893.989 L33.7671 893.989 Q30.5842 892.143 29.0564 889.342 Q27.4968 886.509 27.4968 882.594 Q27.4968 876.101 32.6531 872.059 Q37.8093 867.985 46.212 867.985 Q54.6147 867.985 59.771 872.059 Q64.9272 876.101 64.9272 882.594 Q64.9272 886.509 63.3994 889.342 Q61.8398 892.143 58.657 893.989 M46.212 874.064 Q39.7508 874.064 36.0905 876.738 Q32.3984 879.379 32.3984 884.026 Q32.3984 888.673 36.0905 891.347 Q39.7508 893.989 46.212 893.989 Q52.6732 893.989 56.3653 891.347 Q60.0256 888.673 60.0256 884.026 Q60.0256 879.379 56.3653 876.738 Q52.6732 874.064 46.212 874.064 Z" fill="#000000" fill-rule="evenodd" fill-opacity="1" /><path clip-path="url(#clip480)" d="M18.2347 852.484 L28.3562 852.484 L28.3562 840.421 L32.9077 840.421 L32.9077 852.484 L52.2594 852.484 Q56.6199 852.484 57.8613 851.307 Q59.1026 850.097 59.1026 846.437 L59.1026 840.421 L64.0042 840.421 L64.0042 846.437 Q64.0042 853.216 61.4897 855.794 Q58.9434 858.372 52.2594 858.372 L32.9077 858.372 L32.9077 862.669 L28.3562 862.669 L28.3562 858.372 L18.2347 858.372 L18.2347 852.484 Z" fill="#000000" fill-rule="evenodd" fill-opacity="1" /><path clip-path="url(#clip480)" d="M28.3562 832.719 L28.3562 826.862 L64.0042 826.862 L64.0042 832.719 L28.3562 832.719 M14.479 832.719 L14.479 826.862 L21.895 826.862 L21.895 832.719 L14.479 832.719 Z" fill="#000000" fill-rule="evenodd" fill-opacity="1" /><path clip-path="url(#clip480)" d="M32.4621 800.795 Q32.4621 805.505 36.1542 808.243 Q39.8145 810.98 46.212 810.98 Q52.6095 810.98 56.3017 808.274 Q59.9619 805.537 59.9619 800.795 Q59.9619 796.116 56.2698 793.379 Q52.5777 790.641 46.212 790.641 Q39.8781 790.641 36.186 793.379 Q32.4621 796.116 32.4621 800.795 M27.4968 800.795 Q27.4968 793.156 32.4621 788.795 Q37.4273 784.435 46.212 784.435 Q54.9649 784.435 59.9619 788.795 Q64.9272 793.156 64.9272 800.795 Q64.9272 808.465 59.9619 812.826 Q54.9649 817.155 46.212 817.155 Q37.4273 817.155 32.4621 812.826 Q27.4968 808.465 27.4968 800.795 Z" fill="#000000" fill-rule="evenodd" fill-opacity="1" /><path clip-path="url(#clip480)" d="M42.4881 745.095 L64.0042 745.095 L64.0042 750.951 L42.679 750.951 Q37.6183 750.951 35.1038 752.925 Q32.5894 754.898 32.5894 758.845 Q32.5894 763.587 35.6131 766.324 Q38.6368 769.062 43.8567 769.062 L64.0042 769.062 L64.0042 774.95 L28.3562 774.95 L28.3562 769.062 L33.8944 769.062 Q30.6797 766.961 29.0883 764.128 Q27.4968 761.264 27.4968 757.54 Q27.4968 751.397 31.3163 748.246 Q35.1038 745.095 42.4881 745.095 Z" fill="#000000" fill-rule="evenodd" fill-opacity="1" /><path clip-path="url(#clip480)" d="M14.5426 698.625 Q21.8632 702.89 29.0246 704.959 Q36.186 707.028 43.5384 707.028 Q50.8908 707.028 58.1159 704.959 Q65.3091 702.858 72.5979 698.625 L72.5979 703.718 Q65.1182 708.492 57.8931 710.879 Q50.668 713.234 43.5384 713.234 Q36.4406 713.234 29.2474 710.879 Q22.0542 708.524 14.5426 703.718 L14.5426 698.625 Z" fill="#000000" fill-rule="evenodd" fill-opacity="1" /><path clip-path="url(#clip480)" d="M14.479 687.262 L14.479 681.406 L64.0042 681.406 L64.0042 687.262 L14.479 687.262 Z" fill="#000000" fill-rule="evenodd" fill-opacity="1" /><path clip-path="url(#clip480)" d="M32.4621 655.338 Q32.4621 660.049 36.1542 662.786 Q39.8145 665.523 46.212 665.523 Q52.6095 665.523 56.3017 662.818 Q59.9619 660.081 59.9619 655.338 Q59.9619 650.659 56.2698 647.922 Q52.5777 645.185 46.212 645.185 Q39.8781 645.185 36.186 647.922 Q32.4621 650.659 32.4621 655.338 M27.4968 655.338 Q27.4968 647.699 32.4621 643.339 Q37.4273 638.978 46.212 638.978 Q54.9649 638.978 59.9619 643.339 Q64.9272 647.699 64.9272 655.338 Q64.9272 663.009 59.9619 667.369 Q54.9649 671.698 46.212 671.698 Q37.4273 671.698 32.4621 667.369 Q27.4968 663.009 27.4968 655.338 Z" fill="#000000" fill-rule="evenodd" fill-opacity="1" /><path clip-path="url(#clip480)" d="M28.3562 632.676 L28.3562 626.82 L56.1743 619.499 L28.3562 612.211 L28.3562 605.304 L56.1743 597.983 L28.3562 590.695 L28.3562 584.838 L64.0042 594.164 L64.0042 601.071 L34.7856 608.741 L64.0042 616.444 L64.0042 623.351 L28.3562 632.676 Z" fill="#000000" fill-rule="evenodd" fill-opacity="1" /><path clip-path="url(#clip480)" d="M28.3562 555.238 L28.3562 549.381 L64.0042 549.381 L64.0042 555.238 L28.3562 555.238 M14.479 555.238 L14.479 549.381 L21.895 549.381 L21.895 555.238 L14.479 555.238 Z" fill="#000000" fill-rule="evenodd" fill-opacity="1" /><path clip-path="url(#clip480)" d="M42.4881 507.495 L64.0042 507.495 L64.0042 513.351 L42.679 513.351 Q37.6183 513.351 35.1038 515.325 Q32.5894 517.298 32.5894 521.245 Q32.5894 525.987 35.6131 528.724 Q38.6368 531.462 43.8567 531.462 L64.0042 531.462 L64.0042 537.35 L28.3562 537.35 L28.3562 531.462 L33.8944 531.462 Q30.6797 529.361 29.0883 526.528 Q27.4968 523.664 27.4968 519.94 Q27.4968 513.797 31.3163 510.646 Q35.1038 507.495 42.4881 507.495 Z" fill="#000000" fill-rule="evenodd" fill-opacity="1" /><path clip-path="url(#clip480)" d="M29.7248 470.16 L35.1993 470.16 Q33.8307 472.642 33.1623 475.157 Q32.4621 477.64 32.4621 480.186 Q32.4621 485.883 36.0905 489.034 Q39.6872 492.185 46.212 492.185 Q52.7369 492.185 56.3653 489.034 Q59.9619 485.883 59.9619 480.186 Q59.9619 477.64 59.2935 475.157 Q58.5933 472.642 57.2247 470.16 L62.6355 470.16 Q63.7814 472.611 64.3543 475.252 Q64.9272 477.862 64.9272 480.822 Q64.9272 488.875 59.8664 493.617 Q54.8057 498.36 46.212 498.36 Q37.491 498.36 32.4939 493.586 Q27.4968 488.78 27.4968 480.44 Q27.4968 477.735 28.0697 475.157 Q28.6108 472.579 29.7248 470.16 Z" fill="#000000" fill-rule="evenodd" fill-opacity="1" /><path clip-path="url(#clip480)" d="M32.4621 446.161 Q32.4621 450.872 36.1542 453.609 Q39.8145 456.346 46.212 456.346 Q52.6095 456.346 56.3017 453.641 Q59.9619 450.904 59.9619 446.161 Q59.9619 441.482 56.2698 438.745 Q52.5777 436.008 46.212 436.008 Q39.8781 436.008 36.186 438.745 Q32.4621 441.482 32.4621 446.161 M27.4968 446.161 Q27.4968 438.522 32.4621 434.162 Q37.4273 429.801 46.212 429.801 Q54.9649 429.801 59.9619 434.162 Q64.9272 438.522 64.9272 446.161 Q64.9272 453.832 59.9619 458.192 Q54.9649 462.521 46.212 462.521 Q37.4273 462.521 32.4621 458.192 Q27.4968 453.832 27.4968 446.161 Z" fill="#000000" fill-rule="evenodd" fill-opacity="1" /><path clip-path="url(#clip480)" d="M35.1993 392.339 Q31.2526 390.143 29.3747 387.087 Q27.4968 384.032 27.4968 379.894 Q27.4968 374.324 31.4117 371.3 Q35.2948 368.277 42.4881 368.277 L64.0042 368.277 L64.0042 374.165 L42.679 374.165 Q37.5546 374.165 35.072 375.979 Q32.5894 377.793 32.5894 381.517 Q32.5894 386.069 35.6131 388.711 Q38.6368 391.352 43.8567 391.352 L64.0042 391.352 L64.0042 397.241 L42.679 397.241 Q37.5228 397.241 35.072 399.055 Q32.5894 400.869 32.5894 404.657 Q32.5894 409.145 35.6449 411.786 Q38.6686 414.428 43.8567 414.428 L64.0042 414.428 L64.0042 420.316 L28.3562 420.316 L28.3562 414.428 L33.8944 414.428 Q30.616 412.423 29.0564 409.622 Q27.4968 406.821 27.4968 402.97 Q27.4968 399.087 29.4702 396.381 Q31.4436 393.644 35.1993 392.339 Z" fill="#000000" fill-rule="evenodd" fill-opacity="1" /><path clip-path="url(#clip480)" d="M44.7161 326.104 L47.5806 326.104 L47.5806 353.031 Q53.6281 352.649 56.8109 349.402 Q59.9619 346.124 59.9619 340.299 Q59.9619 336.926 59.1344 333.775 Q58.3069 330.592 56.6518 327.473 L62.1899 327.473 Q63.5267 330.624 64.227 333.934 Q64.9272 337.244 64.9272 340.65 Q64.9272 349.18 59.9619 354.177 Q54.9967 359.142 46.5303 359.142 Q37.7774 359.142 32.6531 354.431 Q27.4968 349.689 27.4968 341.668 Q27.4968 334.475 32.1438 330.305 Q36.7589 326.104 44.7161 326.104 M42.9973 331.96 Q38.1912 332.024 35.3266 334.666 Q32.4621 337.276 32.4621 341.604 Q32.4621 346.506 35.2312 349.466 Q38.0002 352.394 43.0292 352.84 L42.9973 331.96 Z" fill="#000000" fill-rule="evenodd" fill-opacity="1" /><path clip-path="url(#clip480)" d="M14.5426 317.415 L14.5426 312.322 Q22.0542 307.548 29.2474 305.193 Q36.4406 302.805 43.5384 302.805 Q50.668 302.805 57.8931 305.193 Q65.1182 307.548 72.5979 312.322 L72.5979 317.415 Q65.3091 313.182 58.1159 311.113 Q50.8908 309.012 43.5384 309.012 Q36.186 309.012 29.0246 311.113 Q21.8632 313.182 14.5426 317.415 Z" fill="#000000" fill-rule="evenodd" fill-opacity="1" /><polyline clip-path="url(#clip482)" style="stroke:#009af9; stroke-linecap:butt; stroke-linejoin:round; stroke-width:4; stroke-opacity:1; fill:none" points="
  279.421,1384.24 320.502,1231.45 361.582,1142.94 402.663,1079.47 443.743,1026.24 484.824,980.84 525.905,940.17 566.985,904.002 608.066,870.47 649.146,839.36 
  690.227,810.127 731.307,782.388 772.388,755.982 813.468,730.681 854.549,706.312 895.629,682.877 936.71,660.155 977.79,638.054 1018.87,616.555 1059.95,595.581 
  1101.03,575.066 1142.11,554.977 1183.19,535.284 1224.27,515.952 1265.35,496.943 1306.43,478.238 1347.52,459.844 1388.6,441.711 1429.68,423.817 1470.76,406.149 
  1511.84,388.705 1552.92,371.465 1594,354.413 1635.08,337.539 1676.16,320.837 1717.24,304.3 1758.32,287.915 1799.4,271.676 1840.48,255.575 1881.56,239.614 
  1922.64,223.783 1963.72,208.073 2004.8,192.477 2045.88,176.99 2086.96,161.612 2128.05,146.338 2169.13,131.163 2210.21,116.081 2251.29,101.089 2292.37,86.1857 
  
  "/>
<polyline clip-path="url(#clip482)" style="stroke:#e26f46; stroke-linecap:butt; stroke-linejoin:round; stroke-width:4; stroke-opacity:1; fill:none" points="
  279.421,1384.24 320.502,1238.46 361.582,1153.17 402.663,1094.93 443.743,1047.05 484.824,1006.62 525.905,970.896 566.985,938.871 608.066,909.49 649.146,882.504 
  690.227,857.132 731.307,833.221 772.388,810.451 813.468,788.668 854.549,767.739 895.629,747.535 936.71,727.972 977.79,708.975 1018.87,690.477 1059.95,672.427 
  1101.03,654.78 1142.11,637.502 1183.19,620.57 1224.27,603.937 1265.35,587.581 1306.43,571.485 1347.52,555.624 1388.6,539.98 1429.68,524.54 1470.76,509.291 
  1511.84,494.219 1552.92,479.314 1594,464.567 1635.08,449.969 1676.16,435.509 1717.24,421.183 1758.32,406.981 1799.4,392.899 1840.48,378.93 1881.56,365.068 
  1922.64,351.311 1963.72,337.654 2004.8,324.089 2045.88,310.614 2086.96,297.225 2128.05,283.918 2169.13,270.69 2210.21,257.536 2251.29,244.455 2292.37,231.444 
  
  "/>
<polyline clip-path="url(#clip482)" style="stroke:#3da44d; stroke-linecap:butt; stroke-linejoin:round; stroke-width:4; stroke-opacity:1; fill:none" points="
  279.421,1384.24 320.502,1247.07 361.582,1169.24 402.663,1115.69 443.743,1074.26 484.824,1039.75 525.905,1009.94 566.985,983.443 608.066,959.428 649.146,937.311 
  690.227,916.695 731.307,897.286 772.388,878.869 813.468,861.277 854.549,844.389 895.629,828.113 936.71,812.348 977.79,797.036 1018.87,782.113 1059.95,767.539 
  1101.03,753.273 1142.11,739.285 1183.19,725.546 1224.27,712.034 1265.35,698.728 1306.43,685.611 1347.52,672.669 1388.6,659.888 1429.68,647.256 1470.76,634.762 
  1511.84,622.397 1552.92,610.152 1594,598.018 1635.08,585.989 1676.16,574.058 1717.24,562.219 1758.32,550.467 1799.4,538.796 1840.48,527.202 1881.56,515.681 
  1922.64,504.229 1963.72,492.842 2004.8,481.517 2045.88,470.25 2086.96,459.04 2128.05,447.882 2169.13,436.775 2210.21,425.716 2251.29,414.703 2292.37,403.735 
  
  "/>
<polyline clip-path="url(#clip482)" style="stroke:#c271d2; stroke-linecap:butt; stroke-linejoin:round; stroke-width:4; stroke-opacity:1; fill:none" points="
  279.421,1384.24 320.502,1259.98 361.582,1193.81 402.663,1149.41 443.743,1116.57 484.824,1090.79 525.905,1069.3 566.985,1050.71 608.066,1034.16 649.146,1019.11 
  690.227,1005.19 731.307,992.13 772.388,979.743 813.468,967.885 854.549,956.448 895.629,945.351 936.71,934.53 977.79,923.932 1018.87,913.518 1059.95,903.255 
  1101.03,893.118 1142.11,883.085 1183.19,873.138 1224.27,863.263 1265.35,853.448 1306.43,843.684 1347.52,833.962 1388.6,824.276 1429.68,814.62 1470.76,804.989 
  1511.84,795.38 1552.92,785.788 1594,776.212 1635.08,766.649 1676.16,757.097 1717.24,747.553 1758.32,738.018 1799.4,728.49 1840.48,718.967 1881.56,709.449 
  1922.64,699.935 1963.72,690.425 2004.8,680.918 2045.88,671.413 2086.96,661.911 2128.05,652.411 2169.13,642.912 2210.21,633.415 2251.29,623.919 2292.37,614.425 
  
  "/>
<path clip-path="url(#clip480)" d="
M290.157 352.309 L744.204 352.309 L744.204 93.1086 L290.157 93.1086  Z
  " fill="#ffffff" fill-rule="evenodd" fill-opacity="1"/>
<polyline clip-path="url(#clip480)" style="stroke:#000000; stroke-linecap:butt; stroke-linejoin:round; stroke-width:4; stroke-opacity:1; fill:none" points="
  290.157,352.309 744.204,352.309 744.204,93.1086 290.157,93.1086 290.157,352.309 
  "/>
<polyline clip-path="url(#clip480)" style="stroke:#009af9; stroke-linecap:butt; stroke-linejoin:round; stroke-width:4; stroke-opacity:1; fill:none" points="
  313.865,144.949 456.113,144.949 
  "/>
<path clip-path="url(#clip480)" d="M495.006 140.284 Q494.289 139.868 493.432 139.682 Q492.599 139.474 491.58 139.474 Q487.969 139.474 486.025 141.835 Q484.104 144.173 484.104 148.571 L484.104 162.229 L479.821 162.229 L479.821 136.303 L484.104 136.303 L484.104 140.331 Q485.446 137.969 487.599 136.835 Q489.752 135.678 492.83 135.678 Q493.27 135.678 493.803 135.747 Q494.335 135.794 494.983 135.909 L495.006 140.284 Z" fill="#000000" fill-rule="evenodd" fill-opacity="1" /><path clip-path="url(#clip480)" d="M515.099 140.701 L544.775 140.701 L544.775 144.59 L515.099 144.59 L515.099 140.701 M515.099 150.145 L544.775 150.145 L544.775 154.081 L515.099 154.081 L515.099 150.145 Z" fill="#000000" fill-rule="evenodd" fill-opacity="1" /><path clip-path="url(#clip480)" d="M579.937 130.747 Q576.325 130.747 574.497 134.312 Q572.691 137.854 572.691 144.983 Q572.691 152.09 574.497 155.655 Q576.325 159.196 579.937 159.196 Q583.571 159.196 585.376 155.655 Q587.205 152.09 587.205 144.983 Q587.205 137.854 585.376 134.312 Q583.571 130.747 579.937 130.747 M579.937 127.044 Q585.747 127.044 588.802 131.65 Q591.881 136.233 591.881 144.983 Q591.881 153.71 588.802 158.317 Q585.747 162.9 579.937 162.9 Q574.126 162.9 571.048 158.317 Q567.992 153.71 567.992 144.983 Q567.992 136.233 571.048 131.65 Q574.126 127.044 579.937 127.044 Z" fill="#000000" fill-rule="evenodd" fill-opacity="1" /><path clip-path="url(#clip480)" d="M600.098 156.349 L604.983 156.349 L604.983 162.229 L600.098 162.229 L600.098 156.349 Z" fill="#000000" fill-rule="evenodd" fill-opacity="1" /><path clip-path="url(#clip480)" d="M625.168 130.747 Q621.557 130.747 619.728 134.312 Q617.922 137.854 617.922 144.983 Q617.922 152.09 619.728 155.655 Q621.557 159.196 625.168 159.196 Q628.802 159.196 630.608 155.655 Q632.436 152.09 632.436 144.983 Q632.436 137.854 630.608 134.312 Q628.802 130.747 625.168 130.747 M625.168 127.044 Q630.978 127.044 634.033 131.65 Q637.112 136.233 637.112 144.983 Q637.112 153.71 634.033 158.317 Q630.978 162.9 625.168 162.9 Q619.358 162.9 616.279 158.317 Q613.223 153.71 613.223 144.983 Q613.223 136.233 616.279 131.65 Q619.358 127.044 625.168 127.044 Z" fill="#000000" fill-rule="evenodd" fill-opacity="1" /><polyline clip-path="url(#clip480)" style="stroke:#e26f46; stroke-linecap:butt; stroke-linejoin:round; stroke-width:4; stroke-opacity:1; fill:none" points="
  313.865,196.789 456.113,196.789 
  "/>
<path clip-path="url(#clip480)" d="M495.006 192.124 Q494.289 191.708 493.432 191.522 Q492.599 191.314 491.58 191.314 Q487.969 191.314 486.025 193.675 Q484.104 196.013 484.104 200.411 L484.104 214.069 L479.821 214.069 L479.821 188.143 L484.104 188.143 L484.104 192.171 Q485.446 189.809 487.599 188.675 Q489.752 187.518 492.83 187.518 Q493.27 187.518 493.803 187.587 Q494.335 187.634 494.983 187.749 L495.006 192.124 Z" fill="#000000" fill-rule="evenodd" fill-opacity="1" /><path clip-path="url(#clip480)" d="M515.099 192.541 L544.775 192.541 L544.775 196.43 L515.099 196.43 L515.099 192.541 M515.099 201.985 L544.775 201.985 L544.775 205.921 L515.099 205.921 L515.099 201.985 Z" fill="#000000" fill-rule="evenodd" fill-opacity="1" /><path clip-path="url(#clip480)" d="M579.937 182.587 Q576.325 182.587 574.497 186.152 Q572.691 189.694 572.691 196.823 Q572.691 203.93 574.497 207.495 Q576.325 211.036 579.937 211.036 Q583.571 211.036 585.376 207.495 Q587.205 203.93 587.205 196.823 Q587.205 189.694 585.376 186.152 Q583.571 182.587 579.937 182.587 M579.937 178.884 Q585.747 178.884 588.802 183.49 Q591.881 188.073 591.881 196.823 Q591.881 205.55 588.802 210.157 Q585.747 214.74 579.937 214.74 Q574.126 214.74 571.048 210.157 Q567.992 205.55 567.992 196.823 Q567.992 188.073 571.048 183.49 Q574.126 178.884 579.937 178.884 Z" fill="#000000" fill-rule="evenodd" fill-opacity="1" /><path clip-path="url(#clip480)" d="M600.098 208.189 L604.983 208.189 L604.983 214.069 L600.098 214.069 L600.098 208.189 Z" fill="#000000" fill-rule="evenodd" fill-opacity="1" /><path clip-path="url(#clip480)" d="M625.168 182.587 Q621.557 182.587 619.728 186.152 Q617.922 189.694 617.922 196.823 Q617.922 203.93 619.728 207.495 Q621.557 211.036 625.168 211.036 Q628.802 211.036 630.608 207.495 Q632.436 203.93 632.436 196.823 Q632.436 189.694 630.608 186.152 Q628.802 182.587 625.168 182.587 M625.168 178.884 Q630.978 178.884 634.033 183.49 Q637.112 188.073 637.112 196.823 Q637.112 205.55 634.033 210.157 Q630.978 214.74 625.168 214.74 Q619.358 214.74 616.279 210.157 Q613.223 205.55 613.223 196.823 Q613.223 188.073 616.279 183.49 Q619.358 178.884 625.168 178.884 Z" fill="#000000" fill-rule="evenodd" fill-opacity="1" /><path clip-path="url(#clip480)" d="M646.14 210.133 L653.779 210.133 L653.779 183.768 L645.469 185.435 L645.469 181.175 L653.732 179.509 L658.408 179.509 L658.408 210.133 L666.047 210.133 L666.047 214.069 L646.14 214.069 L646.14 210.133 Z" fill="#000000" fill-rule="evenodd" fill-opacity="1" /><path clip-path="url(#clip480)" d="M689.658 195.434 Q693.015 196.152 694.89 198.421 Q696.788 200.689 696.788 204.022 Q696.788 209.138 693.269 211.939 Q689.751 214.74 683.269 214.74 Q681.093 214.74 678.779 214.3 Q676.487 213.883 674.033 213.027 L674.033 208.513 Q675.978 209.647 678.292 210.226 Q680.607 210.805 683.13 210.805 Q687.529 210.805 689.82 209.069 Q692.135 207.333 692.135 204.022 Q692.135 200.967 689.982 199.254 Q687.853 197.518 684.033 197.518 L680.005 197.518 L680.005 193.675 L684.218 193.675 Q687.667 193.675 689.496 192.309 Q691.325 190.921 691.325 188.328 Q691.325 185.666 689.427 184.254 Q687.552 182.819 684.033 182.819 Q682.112 182.819 679.913 183.235 Q677.714 183.652 675.075 184.532 L675.075 180.365 Q677.737 179.624 680.052 179.254 Q682.39 178.884 684.45 178.884 Q689.774 178.884 692.876 181.314 Q695.978 183.722 695.978 187.842 Q695.978 190.712 694.334 192.703 Q692.691 194.671 689.658 195.434 Z" fill="#000000" fill-rule="evenodd" fill-opacity="1" /><polyline clip-path="url(#clip480)" style="stroke:#3da44d; stroke-linecap:butt; stroke-linejoin:round; stroke-width:4; stroke-opacity:1; fill:none" points="
  313.865,248.629 456.113,248.629 
  "/>
<path clip-path="url(#clip480)" d="M495.006 243.964 Q494.289 243.548 493.432 243.362 Q492.599 243.154 491.58 243.154 Q487.969 243.154 486.025 245.515 Q484.104 247.853 484.104 252.251 L484.104 265.909 L479.821 265.909 L479.821 239.983 L484.104 239.983 L484.104 244.011 Q485.446 241.649 487.599 240.515 Q489.752 239.358 492.83 239.358 Q493.27 239.358 493.803 239.427 Q494.335 239.474 494.983 239.589 L495.006 243.964 Z" fill="#000000" fill-rule="evenodd" fill-opacity="1" /><path clip-path="url(#clip480)" d="M515.099 244.381 L544.775 244.381 L544.775 248.27 L515.099 248.27 L515.099 244.381 M515.099 253.825 L544.775 253.825 L544.775 257.761 L515.099 257.761 L515.099 253.825 Z" fill="#000000" fill-rule="evenodd" fill-opacity="1" /><path clip-path="url(#clip480)" d="M579.937 234.427 Q576.325 234.427 574.497 237.992 Q572.691 241.534 572.691 248.663 Q572.691 255.77 574.497 259.335 Q576.325 262.876 579.937 262.876 Q583.571 262.876 585.376 259.335 Q587.205 255.77 587.205 248.663 Q587.205 241.534 585.376 237.992 Q583.571 234.427 579.937 234.427 M579.937 230.724 Q585.747 230.724 588.802 235.33 Q591.881 239.913 591.881 248.663 Q591.881 257.39 588.802 261.997 Q585.747 266.58 579.937 266.58 Q574.126 266.58 571.048 261.997 Q567.992 257.39 567.992 248.663 Q567.992 239.913 571.048 235.33 Q574.126 230.724 579.937 230.724 Z" fill="#000000" fill-rule="evenodd" fill-opacity="1" /><path clip-path="url(#clip480)" d="M600.098 260.029 L604.983 260.029 L604.983 265.909 L600.098 265.909 L600.098 260.029 Z" fill="#000000" fill-rule="evenodd" fill-opacity="1" /><path clip-path="url(#clip480)" d="M625.168 234.427 Q621.557 234.427 619.728 237.992 Q617.922 241.534 617.922 248.663 Q617.922 255.77 619.728 259.335 Q621.557 262.876 625.168 262.876 Q628.802 262.876 630.608 259.335 Q632.436 255.77 632.436 248.663 Q632.436 241.534 630.608 237.992 Q628.802 234.427 625.168 234.427 M625.168 230.724 Q630.978 230.724 634.033 235.33 Q637.112 239.913 637.112 248.663 Q637.112 257.39 634.033 261.997 Q630.978 266.58 625.168 266.58 Q619.358 266.58 616.279 261.997 Q613.223 257.39 613.223 248.663 Q613.223 239.913 616.279 235.33 Q619.358 230.724 625.168 230.724 Z" fill="#000000" fill-rule="evenodd" fill-opacity="1" /><path clip-path="url(#clip480)" d="M649.357 261.973 L665.677 261.973 L665.677 265.909 L643.732 265.909 L643.732 261.973 Q646.394 259.219 650.978 254.589 Q655.584 249.936 656.765 248.594 Q659.01 246.071 659.89 244.335 Q660.793 242.575 660.793 240.886 Q660.793 238.131 658.848 236.395 Q656.927 234.659 653.825 234.659 Q651.626 234.659 649.172 235.423 Q646.742 236.187 643.964 237.737 L643.964 233.015 Q646.788 231.881 649.242 231.302 Q651.695 230.724 653.732 230.724 Q659.103 230.724 662.297 233.409 Q665.492 236.094 665.492 240.585 Q665.492 242.714 664.681 244.636 Q663.894 246.534 661.788 249.126 Q661.209 249.798 658.107 253.015 Q655.006 256.21 649.357 261.973 Z" fill="#000000" fill-rule="evenodd" fill-opacity="1" /><path clip-path="url(#clip480)" d="M674.311 231.349 L696.533 231.349 L696.533 233.339 L683.987 265.909 L679.103 265.909 L690.908 235.284 L674.311 235.284 L674.311 231.349 Z" fill="#000000" fill-rule="evenodd" fill-opacity="1" /><polyline clip-path="url(#clip480)" style="stroke:#c271d2; stroke-linecap:butt; stroke-linejoin:round; stroke-width:4; stroke-opacity:1; fill:none" points="
  313.865,300.469 456.113,300.469 
  "/>
<path clip-path="url(#clip480)" d="M495.006 295.804 Q494.289 295.388 493.432 295.202 Q492.599 294.994 491.58 294.994 Q487.969 294.994 486.025 297.355 Q484.104 299.693 484.104 304.091 L484.104 317.749 L479.821 317.749 L479.821 291.823 L484.104 291.823 L484.104 295.851 Q485.446 293.489 487.599 292.355 Q489.752 291.198 492.83 291.198 Q493.27 291.198 493.803 291.267 Q494.335 291.314 494.983 291.429 L495.006 295.804 Z" fill="#000000" fill-rule="evenodd" fill-opacity="1" /><path clip-path="url(#clip480)" d="M515.099 296.221 L544.775 296.221 L544.775 300.11 L515.099 300.11 L515.099 296.221 M515.099 305.665 L544.775 305.665 L544.775 309.601 L515.099 309.601 L515.099 305.665 Z" fill="#000000" fill-rule="evenodd" fill-opacity="1" /><path clip-path="url(#clip480)" d="M579.937 286.267 Q576.325 286.267 574.497 289.832 Q572.691 293.374 572.691 300.503 Q572.691 307.61 574.497 311.175 Q576.325 314.716 579.937 314.716 Q583.571 314.716 585.376 311.175 Q587.205 307.61 587.205 300.503 Q587.205 293.374 585.376 289.832 Q583.571 286.267 579.937 286.267 M579.937 282.564 Q585.747 282.564 588.802 287.17 Q591.881 291.753 591.881 300.503 Q591.881 309.23 588.802 313.837 Q585.747 318.42 579.937 318.42 Q574.126 318.42 571.048 313.837 Q567.992 309.23 567.992 300.503 Q567.992 291.753 571.048 287.17 Q574.126 282.564 579.937 282.564 Z" fill="#000000" fill-rule="evenodd" fill-opacity="1" /><path clip-path="url(#clip480)" d="M600.098 311.869 L604.983 311.869 L604.983 317.749 L600.098 317.749 L600.098 311.869 Z" fill="#000000" fill-rule="evenodd" fill-opacity="1" /><path clip-path="url(#clip480)" d="M625.168 286.267 Q621.557 286.267 619.728 289.832 Q617.922 293.374 617.922 300.503 Q617.922 307.61 619.728 311.175 Q621.557 314.716 625.168 314.716 Q628.802 314.716 630.608 311.175 Q632.436 307.61 632.436 300.503 Q632.436 293.374 630.608 289.832 Q628.802 286.267 625.168 286.267 M625.168 282.564 Q630.978 282.564 634.033 287.17 Q637.112 291.753 637.112 300.503 Q637.112 309.23 634.033 313.837 Q630.978 318.42 625.168 318.42 Q619.358 318.42 616.279 313.837 Q613.223 309.23 613.223 300.503 Q613.223 291.753 616.279 287.17 Q619.358 282.564 625.168 282.564 Z" fill="#000000" fill-rule="evenodd" fill-opacity="1" /><path clip-path="url(#clip480)" d="M658.177 287.263 L646.371 305.712 L658.177 305.712 L658.177 287.263 M656.95 283.189 L662.83 283.189 L662.83 305.712 L667.76 305.712 L667.76 309.601 L662.83 309.601 L662.83 317.749 L658.177 317.749 L658.177 309.601 L642.575 309.601 L642.575 305.087 L656.95 283.189 Z" fill="#000000" fill-rule="evenodd" fill-opacity="1" /></svg>
