<?xml version="1.0" encoding="utf-8"?>
<svg xmlns="http://www.w3.org/2000/svg" xmlns:xlink="http://www.w3.org/1999/xlink" width="600" height="400" viewBox="0 0 2400 1600">
<defs>
  <clipPath id="clip880">
    <rect x="0" y="0" width="2400" height="1600"/>
  </clipPath>
</defs>
<path clip-path="url(#clip880)" d="
M0 1600 L2400 1600 L2400 0 L0 0  Z
  " fill="#ffffff" fill-rule="evenodd" fill-opacity="1"/>
<defs>
  <clipPath id="clip881">
    <rect x="480" y="0" width="1681" height="1600"/>
  </clipPath>
</defs>
<defs>
  <clipPath id="clip882">
    <rect x="156" y="47" width="2197" height="1440"/>
  </clipPath>
</defs>
<path clip-path="url(#clip880)" d="
M156.598 1486.45 L2352.76 1486.45 L2352.76 47.2441 L156.598 47.2441  Z
  " fill="#ffffff" fill-rule="evenodd" fill-opacity="1"/>
<polyline clip-path="url(#clip882)" style="stroke:#000000; stroke-linecap:butt; stroke-linejoin:round; stroke-width:2; stroke-opacity:0.1; fill:none" points="
  218.754,1486.45 218.754,47.2441 
  "/>
<polyline clip-path="url(#clip882)" style="stroke:#000000; stroke-linecap:butt; stroke-linejoin:round; stroke-width:2; stroke-opacity:0.1; fill:none" points="
  736.715,1486.45 736.715,47.2441 
  "/>
<polyline clip-path="url(#clip882)" style="stroke:#000000; stroke-linecap:butt; stroke-linejoin:round; stroke-width:2; stroke-opacity:0.1; fill:none" points="
  1254.68,1486.45 1254.68,47.2441 
  "/>
<polyline clip-path="url(#clip882)" style="stroke:#000000; stroke-linecap:butt; stroke-linejoin:round; stroke-width:2; stroke-opacity:0.1; fill:none" points="
  1772.64,1486.45 1772.64,47.2441 
  "/>
<polyline clip-path="url(#clip882)" style="stroke:#000000; stroke-linecap:butt; stroke-linejoin:round; stroke-width:2; stroke-opacity:0.1; fill:none" points="
  2290.6,1486.45 2290.6,47.2441 
  "/>
<polyline clip-path="url(#clip880)" style="stroke:#000000; stroke-linecap:butt; stroke-linejoin:round; stroke-width:4; stroke-opacity:1; fill:none" points="
  156.598,1486.45 2352.76,1486.45 
  "/>
<polyline clip-path="url(#clip880)" style="stroke:#000000; stroke-linecap:butt; stroke-linejoin:round; stroke-width:4; stroke-opacity:1; fill:none" points="
  218.754,1486.45 218.754,1467.55 
  "/>
<polyline clip-path="url(#clip880)" style="stroke:#000000; stroke-linecap:butt; stroke-linejoin:round; stroke-width:4; stroke-opacity:1; fill:none" points="
  736.715,1486.45 736.715,1467.55 
  "/>
<polyline clip-path="url(#clip880)" style="stroke:#000000; stroke-linecap:butt; stroke-linejoin:round; stroke-width:4; stroke-opacity:1; fill:none" points="
  1254.68,1486.45 1254.68,1467.55 
  "/>
<polyline clip-path="url(#clip880)" style="stroke:#000000; stroke-linecap:butt; stroke-linejoin:round; stroke-width:4; stroke-opacity:1; fill:none" points="
  1772.64,1486.45 1772.64,1467.55 
  "/>
<polyline clip-path="url(#clip880)" style="stroke:#000000; stroke-linecap:butt; stroke-linejoin:round; stroke-width:4; stroke-opacity:1; fill:none" points="
  2290.6,1486.45 2290.6,1467.55 
  "/>
<path clip-path="url(#clip880)" d="M165.282 1532.02 L194.957 1532.02 L194.957 1535.95 L165.282 1535.95 L165.282 1532.02 Z" fill="#000000" fill-rule="evenodd" fill-opacity="1" /><path clip-path="url(#clip880)" d="M205.86 1544.91 L213.499 1544.91 L213.499 1518.55 L205.189 1520.21 L205.189 1515.95 L213.453 1514.29 L218.129 1514.29 L218.129 1544.91 L225.767 1544.91 L225.767 1548.85 L205.86 1548.85 L205.86 1544.91 Z" fill="#000000" fill-rule="evenodd" fill-opacity="1" /><path clip-path="url(#clip880)" d="M235.212 1542.97 L240.096 1542.97 L240.096 1548.85 L235.212 1548.85 L235.212 1542.97 Z" fill="#000000" fill-rule="evenodd" fill-opacity="1" /><path clip-path="url(#clip880)" d="M260.281 1517.37 Q256.67 1517.37 254.841 1520.93 Q253.036 1524.47 253.036 1531.6 Q253.036 1538.71 254.841 1542.27 Q256.67 1545.82 260.281 1545.82 Q263.915 1545.82 265.721 1542.27 Q267.55 1538.71 267.55 1531.6 Q267.55 1524.47 265.721 1520.93 Q263.915 1517.37 260.281 1517.37 M260.281 1513.66 Q266.091 1513.66 269.147 1518.27 Q272.226 1522.85 272.226 1531.6 Q272.226 1540.33 269.147 1544.94 Q266.091 1549.52 260.281 1549.52 Q254.471 1549.52 251.392 1544.94 Q248.337 1540.33 248.337 1531.6 Q248.337 1522.85 251.392 1518.27 Q254.471 1513.66 260.281 1513.66 Z" fill="#000000" fill-rule="evenodd" fill-opacity="1" /><path clip-path="url(#clip880)" d="M683.741 1532.02 L713.417 1532.02 L713.417 1535.95 L683.741 1535.95 L683.741 1532.02 Z" fill="#000000" fill-rule="evenodd" fill-opacity="1" /><path clip-path="url(#clip880)" d="M733.509 1517.37 Q729.898 1517.37 728.07 1520.93 Q726.264 1524.47 726.264 1531.6 Q726.264 1538.71 728.07 1542.27 Q729.898 1545.82 733.509 1545.82 Q737.144 1545.82 738.949 1542.27 Q740.778 1538.71 740.778 1531.6 Q740.778 1524.47 738.949 1520.93 Q737.144 1517.37 733.509 1517.37 M733.509 1513.66 Q739.32 1513.66 742.375 1518.27 Q745.454 1522.85 745.454 1531.6 Q745.454 1540.33 742.375 1544.94 Q739.32 1549.52 733.509 1549.52 Q727.699 1549.52 724.621 1544.94 Q721.565 1540.33 721.565 1531.6 Q721.565 1522.85 724.621 1518.27 Q727.699 1513.66 733.509 1513.66 Z" fill="#000000" fill-rule="evenodd" fill-opacity="1" /><path clip-path="url(#clip880)" d="M753.671 1542.97 L758.556 1542.97 L758.556 1548.85 L753.671 1548.85 L753.671 1542.97 Z" fill="#000000" fill-rule="evenodd" fill-opacity="1" /><path clip-path="url(#clip880)" d="M768.787 1514.29 L787.143 1514.29 L787.143 1518.22 L773.069 1518.22 L773.069 1526.7 Q774.088 1526.35 775.106 1526.19 Q776.125 1526 777.143 1526 Q782.93 1526 786.31 1529.17 Q789.69 1532.34 789.69 1537.76 Q789.69 1543.34 786.217 1546.44 Q782.745 1549.52 776.426 1549.52 Q774.25 1549.52 771.981 1549.15 Q769.736 1548.78 767.329 1548.04 L767.329 1543.34 Q769.412 1544.47 771.634 1545.03 Q773.856 1545.58 776.333 1545.58 Q780.338 1545.58 782.676 1543.48 Q785.014 1541.37 785.014 1537.76 Q785.014 1534.15 782.676 1532.04 Q780.338 1529.94 776.333 1529.94 Q774.458 1529.94 772.583 1530.35 Q770.731 1530.77 768.787 1531.65 L768.787 1514.29 Z" fill="#000000" fill-rule="evenodd" fill-opacity="1" /><path clip-path="url(#clip880)" d="M1232.06 1517.37 Q1228.45 1517.37 1226.62 1520.93 Q1224.82 1524.47 1224.82 1531.6 Q1224.82 1538.71 1226.62 1542.27 Q1228.45 1545.82 1232.06 1545.82 Q1235.7 1545.82 1237.5 1542.27 Q1239.33 1538.71 1239.33 1531.6 Q1239.33 1524.47 1237.5 1520.93 Q1235.7 1517.37 1232.06 1517.37 M1232.06 1513.66 Q1237.87 1513.66 1240.93 1518.27 Q1244.01 1522.85 1244.01 1531.6 Q1244.01 1540.33 1240.93 1544.94 Q1237.87 1549.52 1232.06 1549.52 Q1226.25 1549.52 1223.17 1544.94 Q1220.12 1540.33 1220.12 1531.6 Q1220.12 1522.85 1223.17 1518.27 Q1226.25 1513.66 1232.06 1513.66 Z" fill="#000000" fill-rule="evenodd" fill-opacity="1" /><path clip-path="url(#clip880)" d="M1252.22 1542.97 L1257.11 1542.97 L1257.11 1548.85 L1252.22 1548.85 L1252.22 1542.97 Z" fill="#000000" fill-rule="evenodd" fill-opacity="1" /><path clip-path="url(#clip880)" d="M1277.29 1517.37 Q1273.68 1517.37 1271.85 1520.93 Q1270.05 1524.47 1270.05 1531.6 Q1270.05 1538.71 1271.85 1542.27 Q1273.68 1545.82 1277.29 1545.82 Q1280.93 1545.82 1282.73 1542.27 Q1284.56 1538.71 1284.56 1531.6 Q1284.56 1524.47 1282.73 1520.93 Q1280.93 1517.37 1277.29 1517.37 M1277.29 1513.66 Q1283.1 1513.66 1286.16 1518.27 Q1289.24 1522.85 1289.24 1531.6 Q1289.24 1540.33 1286.16 1544.94 Q1283.1 1549.52 1277.29 1549.52 Q1271.48 1549.52 1268.4 1544.94 Q1265.35 1540.33 1265.35 1531.6 Q1265.35 1522.85 1268.4 1518.27 Q1271.48 1513.66 1277.29 1513.66 Z" fill="#000000" fill-rule="evenodd" fill-opacity="1" /><path clip-path="url(#clip880)" d="M1750.52 1517.37 Q1746.91 1517.37 1745.08 1520.93 Q1743.28 1524.47 1743.28 1531.6 Q1743.28 1538.71 1745.08 1542.27 Q1746.91 1545.82 1750.52 1545.82 Q1754.16 1545.82 1755.96 1542.27 Q1757.79 1538.71 1757.79 1531.6 Q1757.79 1524.47 1755.96 1520.93 Q1754.16 1517.37 1750.52 1517.37 M1750.52 1513.66 Q1756.33 1513.66 1759.39 1518.27 Q1762.47 1522.85 1762.47 1531.6 Q1762.47 1540.33 1759.39 1544.94 Q1756.33 1549.52 1750.52 1549.52 Q1744.71 1549.52 1741.63 1544.94 Q1738.58 1540.33 1738.58 1531.6 Q1738.58 1522.85 1741.63 1518.27 Q1744.71 1513.66 1750.52 1513.66 Z" fill="#000000" fill-rule="evenodd" fill-opacity="1" /><path clip-path="url(#clip880)" d="M1770.68 1542.97 L1775.57 1542.97 L1775.57 1548.85 L1770.68 1548.85 L1770.68 1542.97 Z" fill="#000000" fill-rule="evenodd" fill-opacity="1" /><path clip-path="url(#clip880)" d="M1785.8 1514.29 L1804.15 1514.29 L1804.15 1518.22 L1790.08 1518.22 L1790.08 1526.7 Q1791.1 1526.35 1792.12 1526.19 Q1793.14 1526 1794.15 1526 Q1799.94 1526 1803.32 1529.17 Q1806.7 1532.34 1806.7 1537.76 Q1806.7 1543.34 1803.23 1546.44 Q1799.76 1549.52 1793.44 1549.52 Q1791.26 1549.52 1788.99 1549.15 Q1786.75 1548.78 1784.34 1548.04 L1784.34 1543.34 Q1786.42 1544.47 1788.65 1545.03 Q1790.87 1545.58 1793.34 1545.58 Q1797.35 1545.58 1799.69 1543.48 Q1802.03 1541.37 1802.03 1537.76 Q1802.03 1534.15 1799.69 1532.04 Q1797.35 1529.94 1793.34 1529.94 Q1791.47 1529.94 1789.59 1530.35 Q1787.74 1530.77 1785.8 1531.65 L1785.8 1514.29 Z" fill="#000000" fill-rule="evenodd" fill-opacity="1" /><path clip-path="url(#clip880)" d="M2257.75 1544.91 L2265.39 1544.91 L2265.39 1518.55 L2257.08 1520.21 L2257.08 1515.95 L2265.35 1514.29 L2270.02 1514.29 L2270.02 1544.91 L2277.66 1544.91 L2277.66 1548.85 L2257.75 1548.85 L2257.75 1544.91 Z" fill="#000000" fill-rule="evenodd" fill-opacity="1" /><path clip-path="url(#clip880)" d="M2287.11 1542.97 L2291.99 1542.97 L2291.99 1548.85 L2287.11 1548.85 L2287.11 1542.97 Z" fill="#000000" fill-rule="evenodd" fill-opacity="1" /><path clip-path="url(#clip880)" d="M2312.17 1517.37 Q2308.56 1517.37 2306.73 1520.93 Q2304.93 1524.47 2304.93 1531.6 Q2304.93 1538.71 2306.73 1542.27 Q2308.56 1545.82 2312.17 1545.82 Q2315.81 1545.82 2317.61 1542.27 Q2319.44 1538.71 2319.44 1531.6 Q2319.44 1524.47 2317.61 1520.93 Q2315.81 1517.37 2312.17 1517.37 M2312.17 1513.66 Q2317.98 1513.66 2321.04 1518.27 Q2324.12 1522.85 2324.12 1531.6 Q2324.12 1540.33 2321.04 1544.94 Q2317.98 1549.52 2312.17 1549.52 Q2306.36 1549.52 2303.29 1544.94 Q2300.23 1540.33 2300.23 1531.6 Q2300.23 1522.85 2303.29 1518.27 Q2306.36 1513.66 2312.17 1513.66 Z" fill="#000000" fill-rule="evenodd" fill-opacity="1" /><polyline clip-path="url(#clip882)" style="stroke:#000000; stroke-linecap:butt; stroke-linejoin:round; stroke-width:2; stroke-opacity:0.1; fill:none" points="
  156.598,1217.01 2352.76,1217.01 
  "/>
<polyline clip-path="url(#clip882)" style="stroke:#000000; stroke-linecap:butt; stroke-linejoin:round; stroke-width:2; stroke-opacity:0.1; fill:none" points="
  156.598,933.851 2352.76,933.851 
  "/>
<polyline clip-path="url(#clip882)" style="stroke:#000000; stroke-linecap:butt; stroke-linejoin:round; stroke-width:2; stroke-opacity:0.1; fill:none" points="
  156.598,650.692 2352.76,650.692 
  "/>
<polyline clip-path="url(#clip882)" style="stroke:#000000; stroke-linecap:butt; stroke-linejoin:round; stroke-width:2; stroke-opacity:0.1; fill:none" points="
  156.598,367.533 2352.76,367.533 
  "/>
<polyline clip-path="url(#clip882)" style="stroke:#000000; stroke-linecap:butt; stroke-linejoin:round; stroke-width:2; stroke-opacity:0.1; fill:none" points="
  156.598,84.3741 2352.76,84.3741 
  "/>
<polyline clip-path="url(#clip880)" style="stroke:#000000; stroke-linecap:butt; stroke-linejoin:round; stroke-width:4; stroke-opacity:1; fill:none" points="
  156.598,1486.45 156.598,47.2441 
  "/>
<polyline clip-path="url(#clip880)" style="stroke:#000000; stroke-linecap:butt; stroke-linejoin:round; stroke-width:4; stroke-opacity:1; fill:none" points="
  156.598,1217.01 175.496,1217.01 
  "/>
<polyline clip-path="url(#clip880)" style="stroke:#000000; stroke-linecap:butt; stroke-linejoin:round; stroke-width:4; stroke-opacity:1; fill:none" points="
  156.598,933.851 175.496,933.851 
  "/>
<polyline clip-path="url(#clip880)" style="stroke:#000000; stroke-linecap:butt; stroke-linejoin:round; stroke-width:4; stroke-opacity:1; fill:none" points="
  156.598,650.692 175.496,650.692 
  "/>
<polyline clip-path="url(#clip880)" style="stroke:#000000; stroke-linecap:butt; stroke-linejoin:round; stroke-width:4; stroke-opacity:1; fill:none" points="
  156.598,367.533 175.496,367.533 
  "/>
<polyline clip-path="url(#clip880)" style="stroke:#000000; stroke-linecap:butt; stroke-linejoin:round; stroke-width:4; stroke-opacity:1; fill:none" points="
  156.598,84.3741 175.496,84.3741 
  "/>
<path clip-path="url(#clip880)" d="M65.0198 1202.81 Q61.4087 1202.81 59.58 1206.37 Q57.7745 1209.92 57.7745 1217.05 Q57.7745 1224.15 59.58 1227.72 Q61.4087 1231.26 65.0198 1231.26 Q68.6541 1231.26 70.4596 1227.72 Q72.2883 1224.15 72.2883 1217.05 Q72.2883 1209.92 70.4596 1206.37 Q68.6541 1202.81 65.0198 1202.81 M65.0198 1199.11 Q70.83 1199.11 73.8855 1203.71 Q76.9642 1208.3 76.9642 1217.05 Q76.9642 1225.77 73.8855 1230.38 Q70.83 1234.96 65.0198 1234.96 Q59.2097 1234.96 56.131 1230.38 Q53.0754 1225.77 53.0754 1217.05 Q53.0754 1208.3 56.131 1203.71 Q59.2097 1199.11 65.0198 1199.11 Z" fill="#000000" fill-rule="evenodd" fill-opacity="1" /><path clip-path="url(#clip880)" d="M85.1818 1228.41 L90.066 1228.41 L90.066 1234.29 L85.1818 1234.29 L85.1818 1228.41 Z" fill="#000000" fill-rule="evenodd" fill-opacity="1" /><path clip-path="url(#clip880)" d="M104.279 1230.36 L120.598 1230.36 L120.598 1234.29 L98.6539 1234.29 L98.6539 1230.36 Q101.316 1227.6 105.899 1222.97 Q110.506 1218.32 111.686 1216.98 Q113.932 1214.45 114.811 1212.72 Q115.714 1210.96 115.714 1209.27 Q115.714 1206.51 113.77 1204.78 Q111.848 1203.04 108.746 1203.04 Q106.547 1203.04 104.094 1203.8 Q101.663 1204.57 98.8854 1206.12 L98.8854 1201.4 Q101.709 1200.26 104.163 1199.68 Q106.617 1199.11 108.654 1199.11 Q114.024 1199.11 117.219 1201.79 Q120.413 1204.48 120.413 1208.97 Q120.413 1211.1 119.603 1213.02 Q118.816 1214.92 116.709 1217.51 Q116.131 1218.18 113.029 1221.4 Q109.927 1224.59 104.279 1230.36 Z" fill="#000000" fill-rule="evenodd" fill-opacity="1" /><path clip-path="url(#clip880)" d="M62.9365 919.65 Q59.3254 919.65 57.4967 923.215 Q55.6912 926.756 55.6912 933.886 Q55.6912 940.992 57.4967 944.557 Q59.3254 948.099 62.9365 948.099 Q66.5707 948.099 68.3763 944.557 Q70.205 940.992 70.205 933.886 Q70.205 926.756 68.3763 923.215 Q66.5707 919.65 62.9365 919.65 M62.9365 915.946 Q68.7467 915.946 71.8022 920.553 Q74.8809 925.136 74.8809 933.886 Q74.8809 942.613 71.8022 947.219 Q68.7467 951.803 62.9365 951.803 Q57.1264 951.803 54.0477 947.219 Q50.9921 942.613 50.9921 933.886 Q50.9921 925.136 54.0477 920.553 Q57.1264 915.946 62.9365 915.946 Z" fill="#000000" fill-rule="evenodd" fill-opacity="1" /><path clip-path="url(#clip880)" d="M83.0984 945.252 L87.9827 945.252 L87.9827 951.131 L83.0984 951.131 L83.0984 945.252 Z" fill="#000000" fill-rule="evenodd" fill-opacity="1" /><path clip-path="url(#clip880)" d="M111.015 920.645 L99.2095 939.094 L111.015 939.094 L111.015 920.645 M109.788 916.571 L115.668 916.571 L115.668 939.094 L120.598 939.094 L120.598 942.983 L115.668 942.983 L115.668 951.131 L111.015 951.131 L111.015 942.983 L95.4132 942.983 L95.4132 938.469 L109.788 916.571 Z" fill="#000000" fill-rule="evenodd" fill-opacity="1" /><path clip-path="url(#clip880)" d="M63.2606 636.491 Q59.6495 636.491 57.8208 640.056 Q56.0152 643.597 56.0152 650.727 Q56.0152 657.833 57.8208 661.398 Q59.6495 664.94 63.2606 664.94 Q66.8948 664.94 68.7004 661.398 Q70.5291 657.833 70.5291 650.727 Q70.5291 643.597 68.7004 640.056 Q66.8948 636.491 63.2606 636.491 M63.2606 632.787 Q69.0707 632.787 72.1263 637.394 Q75.205 641.977 75.205 650.727 Q75.205 659.454 72.1263 664.06 Q69.0707 668.644 63.2606 668.644 Q57.4504 668.644 54.3717 664.06 Q51.3162 659.454 51.3162 650.727 Q51.3162 641.977 54.3717 637.394 Q57.4504 632.787 63.2606 632.787 Z" fill="#000000" fill-rule="evenodd" fill-opacity="1" /><path clip-path="url(#clip880)" d="M83.4225 662.093 L88.3067 662.093 L88.3067 667.972 L83.4225 667.972 L83.4225 662.093 Z" fill="#000000" fill-rule="evenodd" fill-opacity="1" /><path clip-path="url(#clip880)" d="M109.071 648.829 Q105.922 648.829 104.071 650.982 Q102.242 653.134 102.242 656.884 Q102.242 660.611 104.071 662.787 Q105.922 664.94 109.071 664.94 Q112.219 664.94 114.047 662.787 Q115.899 660.611 115.899 656.884 Q115.899 653.134 114.047 650.982 Q112.219 648.829 109.071 648.829 M118.353 634.176 L118.353 638.435 Q116.594 637.602 114.788 637.162 Q113.006 636.722 111.246 636.722 Q106.617 636.722 104.163 639.847 Q101.733 642.972 101.385 649.292 Q102.751 647.278 104.811 646.213 Q106.871 645.125 109.348 645.125 Q114.557 645.125 117.566 648.296 Q120.598 651.445 120.598 656.884 Q120.598 662.208 117.45 665.426 Q114.302 668.644 109.071 668.644 Q103.075 668.644 99.9039 664.06 Q96.7326 659.454 96.7326 650.727 Q96.7326 642.533 100.621 637.671 Q104.51 632.787 111.061 632.787 Q112.82 632.787 114.603 633.134 Q116.408 633.482 118.353 634.176 Z" fill="#000000" fill-rule="evenodd" fill-opacity="1" /><path clip-path="url(#clip880)" d="M63.5152 353.332 Q59.9041 353.332 58.0754 356.897 Q56.2699 360.438 56.2699 367.568 Q56.2699 374.674 58.0754 378.239 Q59.9041 381.781 63.5152 381.781 Q67.1494 381.781 68.955 378.239 Q70.7837 374.674 70.7837 367.568 Q70.7837 360.438 68.955 356.897 Q67.1494 353.332 63.5152 353.332 M63.5152 349.628 Q69.3254 349.628 72.3809 354.235 Q75.4596 358.818 75.4596 367.568 Q75.4596 376.295 72.3809 380.901 Q69.3254 385.484 63.5152 385.484 Q57.7051 385.484 54.6264 380.901 Q51.5708 376.295 51.5708 367.568 Q51.5708 358.818 54.6264 354.235 Q57.7051 349.628 63.5152 349.628 Z" fill="#000000" fill-rule="evenodd" fill-opacity="1" /><path clip-path="url(#clip880)" d="M83.6771 378.934 L88.5614 378.934 L88.5614 384.813 L83.6771 384.813 L83.6771 378.934 Z" fill="#000000" fill-rule="evenodd" fill-opacity="1" /><path clip-path="url(#clip880)" d="M108.746 368.401 Q105.413 368.401 103.492 370.184 Q101.594 371.966 101.594 375.091 Q101.594 378.216 103.492 379.998 Q105.413 381.781 108.746 381.781 Q112.08 381.781 114.001 379.998 Q115.922 378.193 115.922 375.091 Q115.922 371.966 114.001 370.184 Q112.103 368.401 108.746 368.401 M104.071 366.41 Q101.061 365.67 99.3715 363.61 Q97.7048 361.549 97.7048 358.586 Q97.7048 354.443 100.645 352.036 Q103.608 349.628 108.746 349.628 Q113.908 349.628 116.848 352.036 Q119.788 354.443 119.788 358.586 Q119.788 361.549 118.098 363.61 Q116.432 365.67 113.445 366.41 Q116.825 367.198 118.7 369.489 Q120.598 371.781 120.598 375.091 Q120.598 380.114 117.52 382.799 Q114.464 385.484 108.746 385.484 Q103.029 385.484 99.9502 382.799 Q96.8947 380.114 96.8947 375.091 Q96.8947 371.781 98.7928 369.489 Q100.691 367.198 104.071 366.41 M102.358 359.026 Q102.358 361.711 104.024 363.216 Q105.714 364.721 108.746 364.721 Q111.756 364.721 113.445 363.216 Q115.158 361.711 115.158 359.026 Q115.158 356.341 113.445 354.836 Q111.756 353.332 108.746 353.332 Q105.714 353.332 104.024 354.836 Q102.358 356.341 102.358 359.026 Z" fill="#000000" fill-rule="evenodd" fill-opacity="1" /><path clip-path="url(#clip880)" d="M54.2328 97.7189 L61.8717 97.7189 L61.8717 71.3533 L53.5616 73.02 L53.5616 68.7608 L61.8254 67.0941 L66.5013 67.0941 L66.5013 97.7189 L74.1402 97.7189 L74.1402 101.654 L54.2328 101.654 L54.2328 97.7189 Z" fill="#000000" fill-rule="evenodd" fill-opacity="1" /><path clip-path="url(#clip880)" d="M83.5845 95.7745 L88.4688 95.7745 L88.4688 101.654 L83.5845 101.654 L83.5845 95.7745 Z" fill="#000000" fill-rule="evenodd" fill-opacity="1" /><path clip-path="url(#clip880)" d="M108.654 70.1728 Q105.043 70.1728 103.214 73.7376 Q101.409 77.2792 101.409 84.4088 Q101.409 91.5153 103.214 95.0801 Q105.043 98.6217 108.654 98.6217 Q112.288 98.6217 114.094 95.0801 Q115.922 91.5153 115.922 84.4088 Q115.922 77.2792 114.094 73.7376 Q112.288 70.1728 108.654 70.1728 M108.654 66.4691 Q114.464 66.4691 117.52 71.0756 Q120.598 75.6589 120.598 84.4088 Q120.598 93.1356 117.52 97.7421 Q114.464 102.325 108.654 102.325 Q102.844 102.325 99.765 97.7421 Q96.7095 93.1356 96.7095 84.4088 Q96.7095 75.6589 99.765 71.0756 Q102.844 66.4691 108.654 66.4691 Z" fill="#000000" fill-rule="evenodd" fill-opacity="1" /><polyline clip-path="url(#clip882)" style="stroke:#009af9; stroke-linecap:butt; stroke-linejoin:round; stroke-width:4; stroke-opacity:1; fill:none" points="
  218.754,1445.72 239.681,1443.54 260.609,1441.23 281.537,1438.78 302.465,1436.17 323.392,1433.4 344.32,1430.45 365.248,1427.3 386.176,1423.94 407.103,1420.34 
  428.031,1416.49 448.959,1412.36 469.887,1407.92 490.814,1403.15 511.742,1398.01 532.67,1392.46 553.598,1386.45 574.525,1379.95 595.453,1372.9 616.381,1365.22 
  637.309,1356.86 658.236,1347.73 679.164,1337.73 700.092,1326.77 721.02,1314.72 741.947,1301.44 762.875,1286.77 783.803,1270.53 804.731,1252.49 825.658,1232.42 
  846.586,1210.03 867.514,1184.99 888.442,1156.92 909.369,1125.4 930.297,1089.95 951.225,1050.02 972.152,1005.05 993.08,954.421 1014.01,897.537 1034.94,833.877 
  1055.86,763.092 1076.79,685.168 1097.72,600.636 1118.65,510.849 1139.57,418.288 1160.5,326.805 1181.43,241.67 1202.36,169.246 1223.29,116.147 1244.21,87.9763 
  1265.14,87.9763 1286.07,116.147 1307,169.246 1327.92,241.67 1348.85,326.805 1369.78,418.288 1390.71,510.849 1411.64,600.636 1432.56,685.168 1453.49,763.092 
  1474.42,833.877 1495.35,897.537 1516.27,954.421 1537.2,1005.05 1558.13,1050.02 1579.06,1089.95 1599.98,1125.4 1620.91,1156.92 1641.84,1184.99 1662.77,1210.03 
  1683.7,1232.42 1704.62,1252.49 1725.55,1270.53 1746.48,1286.77 1767.41,1301.44 1788.33,1314.72 1809.26,1326.77 1830.19,1337.73 1851.12,1347.73 1872.05,1356.86 
  1892.97,1365.22 1913.9,1372.9 1934.83,1379.95 1955.76,1386.45 1976.68,1392.46 1997.61,1398.01 2018.54,1403.15 2039.47,1407.92 2060.4,1412.36 2081.32,1416.49 
  2102.25,1420.34 2123.18,1423.94 2144.11,1427.3 2165.03,1430.45 2185.96,1433.4 2206.89,1436.17 2227.82,1438.78 2248.75,1441.23 2269.67,1443.54 2290.6,1445.72 
  
  "/>
<polyline clip-path="url(#clip882)" style="stroke:#e26f46; stroke-linecap:butt; stroke-linejoin:round; stroke-width:12; stroke-opacity:1; fill:none" points="
  218.754,1445.72 239.681,1443.54 260.609,1441.23 281.537,1438.78 302.465,1436.17 323.392,1433.4 344.32,1430.45 365.248,1427.3 386.176,1423.94 407.103,1420.34 
  428.031,1416.49 448.959,1412.36 469.887,1407.92 490.814,1403.15 511.742,1398.01 532.67,1392.46 553.598,1386.45 574.525,1379.95 595.453,1372.9 616.381,1365.22 
  637.309,1356.86 658.236,1347.73 679.164,1337.73 700.092,1326.77 721.02,1314.72 741.947,1301.44 762.875,1286.77 783.803,1270.53 804.731,1252.49 825.658,1232.42 
  846.586,1210.03 867.514,1184.99 888.442,1156.92 909.369,1125.4 930.297,1089.95 951.225,1050.02 972.152,1005.05 993.08,954.421 1014.01,897.537 1034.94,833.877 
  1055.86,763.092 1076.79,685.168 1097.72,600.636 1118.65,510.849 1139.57,418.288 1160.5,326.805 1181.43,241.67 1202.36,169.246 1223.29,116.147 1244.21,87.9763 
  1265.14,87.9763 1286.07,116.147 1307,169.246 1327.92,241.67 1348.85,326.805 1369.78,418.288 1390.71,510.849 1411.64,600.636 1432.56,685.168 1453.49,763.092 
  1474.42,833.877 1495.35,897.537 1516.27,954.421 1537.2,1005.05 1558.13,1050.02 1579.06,1089.95 1599.98,1125.4 1620.91,1156.92 1641.84,1184.99 1662.77,1210.03 
  1683.7,1232.42 1704.62,1252.49 1725.55,1270.53 1746.48,1286.77 1767.41,1301.44 1788.33,1314.72 1809.26,1326.77 1830.19,1337.73 1851.12,1347.73 1872.05,1356.86 
  1892.97,1365.22 1913.9,1372.9 1934.83,1379.95 1955.76,1386.45 1976.68,1392.46 1997.61,1398.01 2018.54,1403.15 2039.47,1407.92 2060.4,1412.36 2081.32,1416.49 
  2102.25,1420.34 2123.18,1423.94 2144.11,1427.3 2165.03,1430.45 2185.96,1433.4 2206.89,1436.17 2227.82,1438.78 2248.75,1441.23 2269.67,1443.54 2290.6,1445.72 
  
  "/>
<path clip-path="url(#clip880)" d="
M1850.09 250.738 L2279.55 250.738 L2279.55 95.2176 L1850.09 95.2176  Z
  " fill="#ffffff" fill-rule="evenodd" fill-opacity="1"/>
<polyline clip-path="url(#clip880)" style="stroke:#000000; stroke-linecap:butt; stroke-linejoin:round; stroke-width:4; stroke-opacity:1; fill:none" points="
  1850.09,250.738 2279.55,250.738 2279.55,95.2176 1850.09,95.2176 1850.09,250.738 
  "/>
<polyline clip-path="url(#clip880)" style="stroke:#009af9; stroke-linecap:butt; stroke-linejoin:round; stroke-width:4; stroke-opacity:1; fill:none" points="
  1874.5,147.058 2020.91,147.058 
  "/>
<path clip-path="url(#clip880)" d="M2079.55 139.241 Q2079.55 141.864 2077.61 144.276 Q2075.69 146.689 2072.55 148.165 Q2069.43 149.617 2066.08 149.617 L2057.93 149.617 L2054.96 161.609 Q2054.93 161.679 2054.86 161.984 Q2054.79 162.265 2054.79 162.429 Q2054.79 163.014 2055.52 163.155 Q2056.27 163.296 2057.93 163.296 Q2059.01 163.296 2059.17 163.483 Q2059.27 163.6 2059.27 163.811 Q2059.27 164.139 2059.17 164.373 Q2059.08 164.584 2058.89 164.654 Q2058.73 164.724 2058.61 164.748 Q2058.5 164.771 2058.31 164.771 Q2057.82 164.771 2056.76 164.724 Q2055.73 164.677 2055.19 164.677 L2052.12 164.631 L2046.03 164.771 Q2045.31 164.771 2045.31 164.186 Q2045.31 163.741 2045.5 163.553 Q2045.68 163.342 2045.89 163.319 Q2046.1 163.296 2046.64 163.296 Q2047.81 163.296 2048.52 163.225 Q2049.22 163.155 2049.66 163.061 Q2050.13 162.944 2050.37 162.616 Q2050.63 162.288 2050.74 162.007 Q2050.86 161.703 2051.02 161.024 L2057.44 135.259 Q2057.63 134.486 2057.63 134.369 Q2057.63 133.971 2057.39 133.83 Q2057.18 133.666 2056.57 133.596 Q2055.4 133.502 2054.51 133.502 Q2053.93 133.502 2053.69 133.479 Q2053.48 133.455 2053.3 133.338 Q2053.13 133.198 2053.13 132.917 Q2053.13 132.472 2053.32 132.284 Q2053.53 132.073 2053.76 132.05 Q2054 132.003 2054.56 132.003 L2070.11 132.003 Q2074.59 132.003 2077.07 134.135 Q2079.55 136.266 2079.55 139.241 M2075.1 138.093 Q2075.1 133.502 2068.57 133.502 L2063.98 133.502 Q2062.45 133.502 2062.08 133.783 Q2061.7 134.041 2061.38 135.329 L2058.12 148.375 L2064.89 148.375 Q2069.43 148.375 2072.27 145.822 Q2073.56 144.651 2074.33 142.215 Q2075.1 139.779 2075.1 138.093 Z" fill="#000000" fill-rule="evenodd" fill-opacity="1" /><path clip-path="url(#clip880)" d="M2084.33 158.894 L2084.33 157.844 Q2088.37 157.844 2090.45 155.696 Q2091.02 155.696 2091.12 155.828 Q2091.22 155.959 2091.22 156.565 L2091.22 175.404 Q2091.22 176.404 2091.71 176.716 Q2092.2 177.027 2094.35 177.027 L2095.42 177.027 L2095.42 178.06 Q2094.24 177.962 2089.97 177.962 Q2085.71 177.962 2084.55 178.06 L2084.55 177.027 L2085.61 177.027 Q2087.73 177.027 2088.24 176.732 Q2088.75 176.421 2088.75 175.404 L2088.75 158.008 Q2086.99 158.894 2084.33 158.894 Z" fill="#000000" fill-rule="evenodd" fill-opacity="1" /><path clip-path="url(#clip880)" d="M2097.04 167.321 Q2097.04 162.386 2098.28 159.697 Q2100.02 155.696 2104.12 155.696 Q2104.99 155.696 2105.89 155.942 Q2106.81 156.172 2107.96 157.074 Q2109.12 157.975 2109.83 159.451 Q2111.17 162.304 2111.17 167.321 Q2111.17 172.223 2109.92 174.896 Q2108.1 178.798 2104.09 178.798 Q2102.58 178.798 2101.04 178.027 Q2099.51 177.257 2098.55 175.404 Q2097.04 172.633 2097.04 167.321 M2099.82 166.911 Q2099.82 171.977 2100.19 173.994 Q2100.6 176.175 2101.71 177.126 Q2102.84 178.06 2104.09 178.06 Q2105.43 178.06 2106.55 177.06 Q2107.68 176.044 2108.02 173.863 Q2108.4 171.715 2108.38 166.911 Q2108.38 162.238 2108.06 160.369 Q2107.61 158.189 2106.43 157.32 Q2105.27 156.434 2104.09 156.434 Q2103.64 156.434 2103.17 156.565 Q2102.71 156.697 2102.04 157.074 Q2101.37 157.451 2100.84 158.385 Q2100.33 159.32 2100.09 160.73 Q2099.82 162.55 2099.82 166.911 Z" fill="#000000" fill-rule="evenodd" fill-opacity="1" /><path clip-path="url(#clip880)" d="M2113.8 167.321 Q2113.8 162.386 2115.04 159.697 Q2116.78 155.696 2120.88 155.696 Q2121.75 155.696 2122.65 155.942 Q2123.57 156.172 2124.72 157.074 Q2125.88 157.975 2126.59 159.451 Q2127.93 162.304 2127.93 167.321 Q2127.93 172.223 2126.68 174.896 Q2124.86 178.798 2120.85 178.798 Q2119.34 178.798 2117.8 178.027 Q2116.27 177.257 2115.31 175.404 Q2113.8 172.633 2113.8 167.321 M2116.58 166.911 Q2116.58 171.977 2116.94 173.994 Q2117.35 176.175 2118.47 177.126 Q2119.6 178.06 2120.85 178.06 Q2122.19 178.06 2123.31 177.06 Q2124.44 176.044 2124.78 173.863 Q2125.16 171.715 2125.14 166.911 Q2125.14 162.238 2124.81 160.369 Q2124.37 158.189 2123.19 157.32 Q2122.03 156.434 2120.85 156.434 Q2120.4 156.434 2119.93 156.565 Q2119.47 156.697 2118.8 157.074 Q2118.13 157.451 2117.6 158.385 Q2117.09 159.32 2116.85 160.73 Q2116.58 162.55 2116.58 166.911 Z" fill="#000000" fill-rule="evenodd" fill-opacity="1" /><path clip-path="url(#clip880)" d="M2130.56 167.321 Q2130.56 162.386 2131.8 159.697 Q2133.54 155.696 2137.64 155.696 Q2138.51 155.696 2139.41 155.942 Q2140.33 156.172 2141.48 157.074 Q2142.64 157.975 2143.34 159.451 Q2144.69 162.304 2144.69 167.321 Q2144.69 172.223 2143.44 174.896 Q2141.62 178.798 2137.61 178.798 Q2136.1 178.798 2134.56 178.027 Q2133.03 177.257 2132.06 175.404 Q2130.56 172.633 2130.56 167.321 M2133.34 166.911 Q2133.34 171.977 2133.7 173.994 Q2134.11 176.175 2135.23 177.126 Q2136.36 178.06 2137.61 178.06 Q2138.95 178.06 2140.07 177.06 Q2141.2 176.044 2141.54 173.863 Q2141.92 171.715 2141.9 166.911 Q2141.9 162.238 2141.57 160.369 Q2141.13 158.189 2139.95 157.32 Q2138.79 156.434 2137.61 156.434 Q2137.16 156.434 2136.69 156.565 Q2136.23 156.697 2135.56 157.074 Q2134.88 157.451 2134.36 158.385 Q2133.85 159.32 2133.61 160.73 Q2133.34 162.55 2133.34 166.911 Z" fill="#000000" fill-rule="evenodd" fill-opacity="1" /><path clip-path="url(#clip880)" d="M2147.32 167.321 Q2147.32 162.386 2148.56 159.697 Q2150.3 155.696 2154.4 155.696 Q2155.27 155.696 2156.17 155.942 Q2157.09 156.172 2158.24 157.074 Q2159.4 157.975 2160.1 159.451 Q2161.45 162.304 2161.45 167.321 Q2161.45 172.223 2160.2 174.896 Q2158.38 178.798 2154.37 178.798 Q2152.86 178.798 2151.32 178.027 Q2149.79 177.257 2148.82 175.404 Q2147.32 172.633 2147.32 167.321 M2150.1 166.911 Q2150.1 171.977 2150.46 173.994 Q2150.87 176.175 2151.99 177.126 Q2153.12 178.06 2154.37 178.06 Q2155.71 178.06 2156.83 177.06 Q2157.96 176.044 2158.3 173.863 Q2158.68 171.715 2158.66 166.911 Q2158.66 162.238 2158.33 160.369 Q2157.89 158.189 2156.71 157.32 Q2155.55 156.434 2154.37 156.434 Q2153.92 156.434 2153.45 156.565 Q2152.99 156.697 2152.32 157.074 Q2151.64 157.451 2151.12 158.385 Q2150.61 159.32 2150.37 160.73 Q2150.1 162.55 2150.1 166.911 Z" fill="#000000" fill-rule="evenodd" fill-opacity="1" /><path clip-path="url(#clip880)" d="M2169.06 152.779 Q2169.06 144.675 2172.08 138.14 Q2173.37 135.399 2175.17 133.104 Q2176.98 130.809 2178.17 129.801 Q2179.37 128.794 2179.69 128.794 Q2180.16 128.794 2180.19 129.263 Q2180.19 129.497 2179.55 130.082 Q2171.82 137.952 2171.85 152.779 Q2171.85 167.652 2179.37 175.218 Q2180.19 176.037 2180.19 176.295 Q2180.19 176.763 2179.69 176.763 Q2179.37 176.763 2178.22 175.803 Q2177.07 174.843 2175.29 172.641 Q2173.51 170.439 2172.22 167.746 Q2169.06 161.211 2169.06 152.779 Z" fill="#000000" fill-rule="evenodd" fill-opacity="1" /><path clip-path="url(#clip880)" d="M2207.72 146.736 Q2207.72 148.047 2206.9 148.797 Q2206.08 149.523 2205.14 149.523 Q2204.25 149.523 2203.78 149.008 Q2203.32 148.493 2203.32 147.837 Q2203.32 146.947 2203.97 146.174 Q2204.63 145.401 2205.61 145.237 Q2204.65 144.628 2203.22 144.628 Q2202.29 144.628 2201.47 145.12 Q2200.67 145.612 2200.18 146.244 Q2199.71 146.876 2199.29 147.79 Q2198.89 148.68 2198.72 149.219 Q2198.58 149.734 2198.47 150.296 L2196.83 156.854 Q2196.03 159.97 2196.03 161.07 Q2196.03 162.429 2196.69 163.342 Q2197.34 164.232 2198.65 164.232 Q2199.17 164.232 2199.76 164.092 Q2200.34 163.928 2201.09 163.506 Q2201.86 163.061 2202.54 162.405 Q2203.25 161.726 2203.92 160.578 Q2204.6 159.431 2205.05 157.955 Q2205.19 157.44 2205.66 157.44 Q2206.24 157.44 2206.24 157.908 Q2206.24 158.307 2205.92 159.15 Q2205.61 159.97 2204.93 161.047 Q2204.28 162.101 2203.41 163.061 Q2202.54 163.998 2201.25 164.654 Q2199.97 165.31 2198.56 165.31 Q2196.55 165.31 2195.21 164.232 Q2193.88 163.155 2193.38 161.656 Q2193.27 161.867 2193.1 162.148 Q2192.94 162.429 2192.45 163.061 Q2191.98 163.67 2191.44 164.139 Q2190.9 164.584 2190.06 164.935 Q2189.24 165.31 2188.35 165.31 Q2187.22 165.31 2186.22 164.982 Q2185.23 164.654 2184.53 163.904 Q2183.83 163.155 2183.83 162.124 Q2183.83 160.977 2184.6 160.18 Q2185.4 159.361 2186.47 159.361 Q2187.15 159.361 2187.69 159.759 Q2188.26 160.157 2188.26 161.024 Q2188.26 161.984 2187.6 162.71 Q2186.94 163.436 2186.01 163.623 Q2186.97 164.232 2188.4 164.232 Q2189.94 164.232 2191.16 162.874 Q2192.38 161.515 2192.96 159.243 Q2194.42 153.786 2194.98 151.35 Q2195.54 148.891 2195.54 147.837 Q2195.54 146.853 2195.28 146.174 Q2195.02 145.494 2194.58 145.19 Q2194.16 144.862 2193.76 144.745 Q2193.38 144.628 2192.96 144.628 Q2192.26 144.628 2191.46 144.909 Q2190.69 145.19 2189.75 145.846 Q2188.84 146.478 2187.97 147.79 Q2187.11 149.102 2186.52 150.905 Q2186.4 151.444 2185.89 151.444 Q2185.33 151.42 2185.33 150.952 Q2185.33 150.554 2185.63 149.734 Q2185.96 148.891 2186.62 147.837 Q2187.29 146.783 2188.16 145.846 Q2189.05 144.885 2190.34 144.23 Q2191.65 143.574 2193.06 143.574 Q2193.69 143.574 2194.3 143.714 Q2194.93 143.831 2195.68 144.183 Q2196.45 144.534 2197.13 145.307 Q2197.81 146.08 2198.23 147.204 Q2198.51 146.666 2198.89 146.15 Q2199.29 145.635 2199.9 145.003 Q2200.53 144.347 2201.4 143.972 Q2202.29 143.574 2203.27 143.574 Q2204.23 143.574 2205.17 143.831 Q2206.1 144.066 2206.9 144.839 Q2207.72 145.588 2207.72 146.736 Z" fill="#000000" fill-rule="evenodd" fill-opacity="1" /><path clip-path="url(#clip880)" d="M2212.33 176.295 Q2212.33 176.061 2212.94 175.475 Q2220.67 167.605 2220.67 152.779 Q2220.67 137.906 2213.25 130.387 Q2212.33 129.52 2212.33 129.263 Q2212.33 128.794 2212.8 128.794 Q2213.13 128.794 2214.28 129.755 Q2215.45 130.715 2217.2 132.917 Q2218.98 135.118 2220.3 137.812 Q2223.46 144.347 2223.46 152.779 Q2223.46 160.883 2220.44 167.418 Q2219.15 170.158 2217.34 172.454 Q2215.54 174.749 2214.35 175.756 Q2213.15 176.763 2212.8 176.763 Q2212.33 176.763 2212.33 176.295 Z" fill="#000000" fill-rule="evenodd" fill-opacity="1" /><polyline clip-path="url(#clip880)" style="stroke:#e26f46; stroke-linecap:butt; stroke-linejoin:round; stroke-width:4; stroke-opacity:1; fill:none" points="
  1874.5,198.898 2020.91,198.898 
  "/>
<path clip-path="url(#clip880)" d="M2067.33 198.736 Q2067.33 198.759 2067.18 199.602 L2061.84 220.893 Q2061.56 222.018 2060.77 223.142 Q2059.99 224.29 2058.75 225.273 Q2057.53 226.281 2055.66 226.89 Q2053.81 227.522 2051.68 227.522 Q2048.28 227.522 2046.78 226.796 Q2045.31 226.093 2045.31 224.594 Q2045.31 223.283 2046.13 222.533 Q2046.95 221.807 2047.88 221.807 Q2048.77 221.807 2049.24 222.322 Q2049.71 222.837 2049.71 223.493 Q2049.71 224.219 2049.22 224.946 Q2048.73 225.695 2047.74 225.976 Q2049.31 226.468 2051.59 226.468 Q2056.39 226.468 2058.45 221.385 Q2058.5 221.315 2058.5 221.292 L2060.09 214.944 L2060.02 214.897 Q2059.62 215.366 2058.99 215.904 Q2058.38 216.42 2057.07 217.052 Q2055.75 217.685 2054.47 217.685 Q2051.77 217.685 2049.92 215.623 Q2048.1 213.539 2048.1 210.096 Q2048.1 207.589 2049.1 205.083 Q2050.13 202.554 2051.73 200.703 Q2053.34 198.829 2055.4 197.658 Q2057.49 196.487 2059.5 196.487 Q2060.91 196.487 2062.1 197.33 Q2063.3 198.15 2063.95 199.509 Q2064.07 198.384 2064.7 197.916 Q2065.36 197.448 2065.92 197.448 Q2066.55 197.448 2066.93 197.799 Q2067.33 198.127 2067.33 198.736 M2063.39 201.664 Q2063.39 201.523 2063.3 201.148 Q2063.2 200.75 2062.92 200.118 Q2062.66 199.485 2062.27 198.923 Q2061.87 198.361 2061.14 197.963 Q2060.44 197.541 2059.55 197.541 Q2058.1 197.541 2056.64 198.759 Q2055.19 199.954 2054.19 201.804 Q2053.25 203.584 2052.36 207.027 Q2051.49 210.47 2051.49 212.227 Q2051.49 213.96 2052.24 215.295 Q2052.99 216.631 2054.61 216.631 Q2056.48 216.631 2058.5 214.897 Q2060.58 213.094 2060.93 211.548 L2063.25 202.39 Q2063.39 201.828 2063.39 201.664 Z" fill="#000000" fill-rule="evenodd" fill-opacity="1" /><path clip-path="url(#clip880)" d="M2073.9 205.692 Q2073.9 197.588 2076.92 191.053 Q2078.21 188.313 2080.01 186.017 Q2081.81 183.722 2083.01 182.715 Q2084.2 181.708 2084.53 181.708 Q2085 181.708 2085.02 182.176 Q2085.02 182.41 2084.39 182.996 Q2076.66 190.866 2076.68 205.692 Q2076.68 220.566 2084.2 228.131 Q2085.02 228.951 2085.02 229.208 Q2085.02 229.677 2084.53 229.677 Q2084.2 229.677 2083.06 228.717 Q2081.91 227.756 2080.13 225.554 Q2078.35 223.353 2077.06 220.659 Q2073.9 214.124 2073.9 205.692 Z" fill="#000000" fill-rule="evenodd" fill-opacity="1" /><path clip-path="url(#clip880)" d="M2112.56 199.649 Q2112.56 200.961 2111.74 201.71 Q2110.92 202.437 2109.98 202.437 Q2109.09 202.437 2108.62 201.921 Q2108.15 201.406 2108.15 200.75 Q2108.15 199.86 2108.81 199.087 Q2109.46 198.314 2110.45 198.15 Q2109.49 197.541 2108.06 197.541 Q2107.12 197.541 2106.3 198.033 Q2105.51 198.525 2105.01 199.157 Q2104.54 199.79 2104.12 200.703 Q2103.73 201.593 2103.56 202.132 Q2103.42 202.647 2103.3 203.209 L2101.66 209.768 Q2100.87 212.883 2100.87 213.984 Q2100.87 215.342 2101.52 216.256 Q2102.18 217.146 2103.49 217.146 Q2104.01 217.146 2104.59 217.005 Q2105.18 216.841 2105.93 216.42 Q2106.7 215.975 2107.38 215.319 Q2108.08 214.64 2108.76 213.492 Q2109.44 212.344 2109.89 210.869 Q2110.03 210.353 2110.49 210.353 Q2111.08 210.353 2111.08 210.822 Q2111.08 211.22 2110.75 212.063 Q2110.45 212.883 2109.77 213.96 Q2109.11 215.014 2108.25 215.975 Q2107.38 216.912 2106.09 217.567 Q2104.8 218.223 2103.4 218.223 Q2101.38 218.223 2100.05 217.146 Q2098.71 216.068 2098.22 214.569 Q2098.1 214.78 2097.94 215.061 Q2097.78 215.342 2097.28 215.975 Q2096.82 216.584 2096.28 217.052 Q2095.74 217.497 2094.89 217.849 Q2094.08 218.223 2093.19 218.223 Q2092.06 218.223 2091.05 217.895 Q2090.07 217.567 2089.37 216.818 Q2088.66 216.068 2088.66 215.038 Q2088.66 213.89 2089.44 213.094 Q2090.23 212.274 2091.31 212.274 Q2091.99 212.274 2092.53 212.672 Q2093.09 213.07 2093.09 213.937 Q2093.09 214.897 2092.44 215.623 Q2091.78 216.349 2090.84 216.537 Q2091.8 217.146 2093.23 217.146 Q2094.78 217.146 2096 215.787 Q2097.21 214.429 2097.8 212.157 Q2099.25 206.699 2099.81 204.263 Q2100.38 201.804 2100.38 200.75 Q2100.38 199.766 2100.12 199.087 Q2099.86 198.408 2099.42 198.103 Q2098.99 197.775 2098.6 197.658 Q2098.22 197.541 2097.8 197.541 Q2097.1 197.541 2096.3 197.822 Q2095.53 198.103 2094.59 198.759 Q2093.68 199.392 2092.81 200.703 Q2091.94 202.015 2091.36 203.818 Q2091.24 204.357 2090.73 204.357 Q2090.16 204.334 2090.16 203.865 Q2090.16 203.467 2090.47 202.647 Q2090.8 201.804 2091.45 200.75 Q2092.13 199.696 2093 198.759 Q2093.89 197.799 2095.18 197.143 Q2096.49 196.487 2097.89 196.487 Q2098.53 196.487 2099.13 196.628 Q2099.77 196.745 2100.52 197.096 Q2101.29 197.448 2101.97 198.221 Q2102.65 198.993 2103.07 200.118 Q2103.35 199.579 2103.73 199.064 Q2104.12 198.548 2104.73 197.916 Q2105.36 197.26 2106.23 196.885 Q2107.12 196.487 2108.11 196.487 Q2109.07 196.487 2110 196.745 Q2110.94 196.979 2111.74 197.752 Q2112.56 198.502 2112.56 199.649 Z" fill="#000000" fill-rule="evenodd" fill-opacity="1" /><path clip-path="url(#clip880)" d="M2117.17 229.208 Q2117.17 228.974 2117.78 228.389 Q2125.51 220.519 2125.51 205.692 Q2125.51 190.819 2118.08 183.3 Q2117.17 182.434 2117.17 182.176 Q2117.17 181.708 2117.64 181.708 Q2117.96 181.708 2119.11 182.668 Q2120.28 183.628 2122.04 185.83 Q2123.82 188.032 2125.13 190.725 Q2128.29 197.26 2128.29 205.692 Q2128.29 213.796 2125.27 220.331 Q2123.98 223.072 2122.18 225.367 Q2120.38 227.663 2119.18 228.67 Q2117.99 229.677 2117.64 229.677 Q2117.17 229.677 2117.17 229.208 Z" fill="#000000" fill-rule="evenodd" fill-opacity="1" /></svg>
