<?xml version="1.0" encoding="utf-8"?>
<svg xmlns="http://www.w3.org/2000/svg" xmlns:xlink="http://www.w3.org/1999/xlink" width="600" height="400" viewBox="0 0 2400 1600">
<defs>
  <clipPath id="clip780">
    <rect x="0" y="0" width="2400" height="1600"/>
  </clipPath>
</defs>
<path clip-path="url(#clip780)" d="
M0 1600 L2400 1600 L2400 0 L0 0  Z
  " fill="#ffffff" fill-rule="evenodd" fill-opacity="1"/>
<defs>
  <clipPath id="clip781">
    <rect x="480" y="0" width="1681" height="1600"/>
  </clipPath>
</defs>
<path clip-path="url(#clip780)" d="
M156.598 1486.45 L2352.76 1486.45 L2352.76 47.2441 L156.598 47.2441  Z
  " fill="#ffffff" fill-rule="evenodd" fill-opacity="1"/>
<defs>
  <clipPath id="clip782">
    <rect x="156" y="47" width="2197" height="1440"/>
  </clipPath>
</defs>
<polyline clip-path="url(#clip782)" style="stroke:#000000; stroke-linecap:butt; stroke-linejoin:round; stroke-width:2; stroke-opacity:0.1; fill:none" points="
  218.754,1486.45 218.754,47.2441 
  "/>
<polyline clip-path="url(#clip782)" style="stroke:#000000; stroke-linecap:butt; stroke-linejoin:round; stroke-width:2; stroke-opacity:0.1; fill:none" points="
  736.715,1486.45 736.715,47.2441 
  "/>
<polyline clip-path="url(#clip782)" style="stroke:#000000; stroke-linecap:butt; stroke-linejoin:round; stroke-width:2; stroke-opacity:0.1; fill:none" points="
  1254.68,1486.45 1254.68,47.2441 
  "/>
<polyline clip-path="url(#clip782)" style="stroke:#000000; stroke-linecap:butt; stroke-linejoin:round; stroke-width:2; stroke-opacity:0.1; fill:none" points="
  1772.64,1486.45 1772.64,47.2441 
  "/>
<polyline clip-path="url(#clip782)" style="stroke:#000000; stroke-linecap:butt; stroke-linejoin:round; stroke-width:2; stroke-opacity:0.1; fill:none" points="
  2290.6,1486.45 2290.6,47.2441 
  "/>
<polyline clip-path="url(#clip780)" style="stroke:#000000; stroke-linecap:butt; stroke-linejoin:round; stroke-width:4; stroke-opacity:1; fill:none" points="
  156.598,1486.45 2352.76,1486.45 
  "/>
<polyline clip-path="url(#clip780)" style="stroke:#000000; stroke-linecap:butt; stroke-linejoin:round; stroke-width:4; stroke-opacity:1; fill:none" points="
  218.754,1486.45 218.754,1467.55 
  "/>
<polyline clip-path="url(#clip780)" style="stroke:#000000; stroke-linecap:butt; stroke-linejoin:round; stroke-width:4; stroke-opacity:1; fill:none" points="
  736.715,1486.45 736.715,1467.55 
  "/>
<polyline clip-path="url(#clip780)" style="stroke:#000000; stroke-linecap:butt; stroke-linejoin:round; stroke-width:4; stroke-opacity:1; fill:none" points="
  1254.68,1486.45 1254.68,1467.55 
  "/>
<polyline clip-path="url(#clip780)" style="stroke:#000000; stroke-linecap:butt; stroke-linejoin:round; stroke-width:4; stroke-opacity:1; fill:none" points="
  1772.64,1486.45 1772.64,1467.55 
  "/>
<polyline clip-path="url(#clip780)" style="stroke:#000000; stroke-linecap:butt; stroke-linejoin:round; stroke-width:4; stroke-opacity:1; fill:none" points="
  2290.6,1486.45 2290.6,1467.55 
  "/>
<path clip-path="url(#clip780)" d="M165.282 1530.29 L194.957 1530.29 L194.957 1534.23 L165.282 1534.23 L165.282 1530.29 Z" fill="#000000" fill-rule="evenodd" fill-opacity="1" /><path clip-path="url(#clip780)" d="M205.86 1543.18 L213.499 1543.18 L213.499 1516.82 L205.189 1518.49 L205.189 1514.23 L213.453 1512.56 L218.129 1512.56 L218.129 1543.18 L225.767 1543.18 L225.767 1547.12 L205.86 1547.12 L205.86 1543.18 Z" fill="#000000" fill-rule="evenodd" fill-opacity="1" /><path clip-path="url(#clip780)" d="M235.212 1541.24 L240.096 1541.24 L240.096 1547.12 L235.212 1547.12 L235.212 1541.24 Z" fill="#000000" fill-rule="evenodd" fill-opacity="1" /><path clip-path="url(#clip780)" d="M260.281 1515.64 Q256.67 1515.64 254.841 1519.2 Q253.036 1522.75 253.036 1529.87 Q253.036 1536.98 254.841 1540.55 Q256.67 1544.09 260.281 1544.09 Q263.915 1544.09 265.721 1540.55 Q267.55 1536.98 267.55 1529.87 Q267.55 1522.75 265.721 1519.2 Q263.915 1515.64 260.281 1515.64 M260.281 1511.93 Q266.091 1511.93 269.147 1516.54 Q272.226 1521.12 272.226 1529.87 Q272.226 1538.6 269.147 1543.21 Q266.091 1547.79 260.281 1547.79 Q254.471 1547.79 251.392 1543.21 Q248.337 1538.6 248.337 1529.87 Q248.337 1521.12 251.392 1516.54 Q254.471 1511.93 260.281 1511.93 Z" fill="#000000" fill-rule="evenodd" fill-opacity="1" /><path clip-path="url(#clip780)" d="M683.741 1530.29 L713.417 1530.29 L713.417 1534.23 L683.741 1534.23 L683.741 1530.29 Z" fill="#000000" fill-rule="evenodd" fill-opacity="1" /><path clip-path="url(#clip780)" d="M733.509 1515.64 Q729.898 1515.64 728.07 1519.2 Q726.264 1522.75 726.264 1529.87 Q726.264 1536.98 728.07 1540.55 Q729.898 1544.09 733.509 1544.09 Q737.144 1544.09 738.949 1540.55 Q740.778 1536.98 740.778 1529.87 Q740.778 1522.75 738.949 1519.2 Q737.144 1515.64 733.509 1515.64 M733.509 1511.93 Q739.32 1511.93 742.375 1516.54 Q745.454 1521.12 745.454 1529.87 Q745.454 1538.6 742.375 1543.21 Q739.32 1547.79 733.509 1547.79 Q727.699 1547.79 724.621 1543.21 Q721.565 1538.6 721.565 1529.87 Q721.565 1521.12 724.621 1516.54 Q727.699 1511.93 733.509 1511.93 Z" fill="#000000" fill-rule="evenodd" fill-opacity="1" /><path clip-path="url(#clip780)" d="M753.671 1541.24 L758.556 1541.24 L758.556 1547.12 L753.671 1547.12 L753.671 1541.24 Z" fill="#000000" fill-rule="evenodd" fill-opacity="1" /><path clip-path="url(#clip780)" d="M768.787 1512.56 L787.143 1512.56 L787.143 1516.5 L773.069 1516.5 L773.069 1524.97 Q774.088 1524.62 775.106 1524.46 Q776.125 1524.27 777.143 1524.27 Q782.93 1524.27 786.31 1527.44 Q789.69 1530.62 789.69 1536.03 Q789.69 1541.61 786.217 1544.71 Q782.745 1547.79 776.426 1547.79 Q774.25 1547.79 771.981 1547.42 Q769.736 1547.05 767.329 1546.31 L767.329 1541.61 Q769.412 1542.74 771.634 1543.3 Q773.856 1543.86 776.333 1543.86 Q780.338 1543.86 782.676 1541.75 Q785.014 1539.64 785.014 1536.03 Q785.014 1532.42 782.676 1530.31 Q780.338 1528.21 776.333 1528.21 Q774.458 1528.21 772.583 1528.62 Q770.731 1529.04 768.787 1529.92 L768.787 1512.56 Z" fill="#000000" fill-rule="evenodd" fill-opacity="1" /><path clip-path="url(#clip780)" d="M1232.06 1515.64 Q1228.45 1515.64 1226.62 1519.2 Q1224.82 1522.75 1224.82 1529.87 Q1224.82 1536.98 1226.62 1540.55 Q1228.45 1544.09 1232.06 1544.09 Q1235.7 1544.09 1237.5 1540.55 Q1239.33 1536.98 1239.33 1529.87 Q1239.33 1522.75 1237.5 1519.2 Q1235.7 1515.64 1232.06 1515.64 M1232.06 1511.93 Q1237.87 1511.93 1240.93 1516.54 Q1244.01 1521.12 1244.01 1529.87 Q1244.01 1538.6 1240.93 1543.21 Q1237.87 1547.79 1232.06 1547.79 Q1226.25 1547.79 1223.17 1543.21 Q1220.12 1538.6 1220.12 1529.87 Q1220.12 1521.12 1223.17 1516.54 Q1226.25 1511.93 1232.06 1511.93 Z" fill="#000000" fill-rule="evenodd" fill-opacity="1" /><path clip-path="url(#clip780)" d="M1252.22 1541.24 L1257.11 1541.24 L1257.11 1547.12 L1252.22 1547.12 L1252.22 1541.24 Z" fill="#000000" fill-rule="evenodd" fill-opacity="1" /><path clip-path="url(#clip780)" d="M1277.29 1515.64 Q1273.68 1515.64 1271.85 1519.2 Q1270.05 1522.75 1270.05 1529.87 Q1270.05 1536.98 1271.85 1540.55 Q1273.68 1544.09 1277.29 1544.09 Q1280.93 1544.09 1282.73 1540.55 Q1284.56 1536.98 1284.56 1529.87 Q1284.56 1522.75 1282.73 1519.2 Q1280.93 1515.64 1277.29 1515.64 M1277.29 1511.93 Q1283.1 1511.93 1286.16 1516.54 Q1289.24 1521.12 1289.24 1529.87 Q1289.24 1538.6 1286.16 1543.21 Q1283.1 1547.79 1277.29 1547.79 Q1271.48 1547.79 1268.4 1543.21 Q1265.35 1538.6 1265.35 1529.87 Q1265.35 1521.12 1268.4 1516.54 Q1271.48 1511.93 1277.29 1511.93 Z" fill="#000000" fill-rule="evenodd" fill-opacity="1" /><path clip-path="url(#clip780)" d="M1750.52 1515.64 Q1746.91 1515.64 1745.08 1519.2 Q1743.28 1522.75 1743.28 1529.87 Q1743.28 1536.98 1745.08 1540.55 Q1746.91 1544.09 1750.52 1544.09 Q1754.16 1544.09 1755.96 1540.55 Q1757.79 1536.98 1757.79 1529.87 Q1757.79 1522.75 1755.96 1519.2 Q1754.16 1515.64 1750.52 1515.64 M1750.52 1511.93 Q1756.33 1511.93 1759.39 1516.54 Q1762.47 1521.12 1762.47 1529.87 Q1762.47 1538.6 1759.39 1543.21 Q1756.33 1547.79 1750.52 1547.79 Q1744.71 1547.79 1741.63 1543.21 Q1738.58 1538.6 1738.58 1529.87 Q1738.58 1521.12 1741.63 1516.54 Q1744.71 1511.93 1750.52 1511.93 Z" fill="#000000" fill-rule="evenodd" fill-opacity="1" /><path clip-path="url(#clip780)" d="M1770.68 1541.24 L1775.57 1541.24 L1775.57 1547.12 L1770.68 1547.12 L1770.68 1541.24 Z" fill="#000000" fill-rule="evenodd" fill-opacity="1" /><path clip-path="url(#clip780)" d="M1785.8 1512.56 L1804.15 1512.56 L1804.15 1516.5 L1790.08 1516.5 L1790.08 1524.97 Q1791.1 1524.62 1792.12 1524.46 Q1793.14 1524.27 1794.15 1524.27 Q1799.94 1524.27 1803.32 1527.44 Q1806.7 1530.62 1806.7 1536.03 Q1806.7 1541.61 1803.23 1544.71 Q1799.76 1547.79 1793.44 1547.79 Q1791.26 1547.79 1788.99 1547.42 Q1786.75 1547.05 1784.34 1546.31 L1784.34 1541.61 Q1786.42 1542.74 1788.65 1543.3 Q1790.87 1543.86 1793.34 1543.86 Q1797.35 1543.86 1799.69 1541.75 Q1802.03 1539.64 1802.03 1536.03 Q1802.03 1532.42 1799.69 1530.31 Q1797.35 1528.21 1793.34 1528.21 Q1791.47 1528.21 1789.59 1528.62 Q1787.74 1529.04 1785.8 1529.92 L1785.8 1512.56 Z" fill="#000000" fill-rule="evenodd" fill-opacity="1" /><path clip-path="url(#clip780)" d="M2257.75 1543.18 L2265.39 1543.18 L2265.39 1516.82 L2257.08 1518.49 L2257.08 1514.23 L2265.35 1512.56 L2270.02 1512.56 L2270.02 1543.18 L2277.66 1543.18 L2277.66 1547.12 L2257.75 1547.12 L2257.75 1543.18 Z" fill="#000000" fill-rule="evenodd" fill-opacity="1" /><path clip-path="url(#clip780)" d="M2287.11 1541.24 L2291.99 1541.24 L2291.99 1547.12 L2287.11 1547.12 L2287.11 1541.24 Z" fill="#000000" fill-rule="evenodd" fill-opacity="1" /><path clip-path="url(#clip780)" d="M2312.17 1515.64 Q2308.56 1515.64 2306.73 1519.2 Q2304.93 1522.75 2304.93 1529.87 Q2304.93 1536.98 2306.73 1540.55 Q2308.56 1544.09 2312.17 1544.09 Q2315.81 1544.09 2317.61 1540.55 Q2319.44 1536.98 2319.44 1529.87 Q2319.44 1522.75 2317.61 1519.2 Q2315.81 1515.64 2312.17 1515.64 M2312.17 1511.93 Q2317.98 1511.93 2321.04 1516.54 Q2324.12 1521.12 2324.12 1529.87 Q2324.12 1538.6 2321.04 1543.21 Q2317.98 1547.79 2312.17 1547.79 Q2306.36 1547.79 2303.29 1543.21 Q2300.23 1538.6 2300.23 1529.87 Q2300.23 1521.12 2303.29 1516.54 Q2306.36 1511.93 2312.17 1511.93 Z" fill="#000000" fill-rule="evenodd" fill-opacity="1" /><polyline clip-path="url(#clip782)" style="stroke:#000000; stroke-linecap:butt; stroke-linejoin:round; stroke-width:2; stroke-opacity:0.1; fill:none" points="
  156.598,1217.01 2352.76,1217.01 
  "/>
<polyline clip-path="url(#clip782)" style="stroke:#000000; stroke-linecap:butt; stroke-linejoin:round; stroke-width:2; stroke-opacity:0.1; fill:none" points="
  156.598,933.851 2352.76,933.851 
  "/>
<polyline clip-path="url(#clip782)" style="stroke:#000000; stroke-linecap:butt; stroke-linejoin:round; stroke-width:2; stroke-opacity:0.1; fill:none" points="
  156.598,650.692 2352.76,650.692 
  "/>
<polyline clip-path="url(#clip782)" style="stroke:#000000; stroke-linecap:butt; stroke-linejoin:round; stroke-width:2; stroke-opacity:0.1; fill:none" points="
  156.598,367.533 2352.76,367.533 
  "/>
<polyline clip-path="url(#clip782)" style="stroke:#000000; stroke-linecap:butt; stroke-linejoin:round; stroke-width:2; stroke-opacity:0.1; fill:none" points="
  156.598,84.3741 2352.76,84.3741 
  "/>
<polyline clip-path="url(#clip780)" style="stroke:#000000; stroke-linecap:butt; stroke-linejoin:round; stroke-width:4; stroke-opacity:1; fill:none" points="
  156.598,1486.45 156.598,47.2441 
  "/>
<polyline clip-path="url(#clip780)" style="stroke:#000000; stroke-linecap:butt; stroke-linejoin:round; stroke-width:4; stroke-opacity:1; fill:none" points="
  156.598,1217.01 175.496,1217.01 
  "/>
<polyline clip-path="url(#clip780)" style="stroke:#000000; stroke-linecap:butt; stroke-linejoin:round; stroke-width:4; stroke-opacity:1; fill:none" points="
  156.598,933.851 175.496,933.851 
  "/>
<polyline clip-path="url(#clip780)" style="stroke:#000000; stroke-linecap:butt; stroke-linejoin:round; stroke-width:4; stroke-opacity:1; fill:none" points="
  156.598,650.692 175.496,650.692 
  "/>
<polyline clip-path="url(#clip780)" style="stroke:#000000; stroke-linecap:butt; stroke-linejoin:round; stroke-width:4; stroke-opacity:1; fill:none" points="
  156.598,367.533 175.496,367.533 
  "/>
<polyline clip-path="url(#clip780)" style="stroke:#000000; stroke-linecap:butt; stroke-linejoin:round; stroke-width:4; stroke-opacity:1; fill:none" points="
  156.598,84.3741 175.496,84.3741 
  "/>
<path clip-path="url(#clip780)" d="M65.0198 1202.81 Q61.4087 1202.81 59.58 1206.37 Q57.7745 1209.92 57.7745 1217.05 Q57.7745 1224.15 59.58 1227.72 Q61.4087 1231.26 65.0198 1231.26 Q68.6541 1231.26 70.4596 1227.72 Q72.2883 1224.15 72.2883 1217.05 Q72.2883 1209.92 70.4596 1206.37 Q68.6541 1202.81 65.0198 1202.81 M65.0198 1199.11 Q70.83 1199.11 73.8855 1203.71 Q76.9642 1208.3 76.9642 1217.05 Q76.9642 1225.77 73.8855 1230.38 Q70.83 1234.96 65.0198 1234.96 Q59.2097 1234.96 56.131 1230.38 Q53.0754 1225.77 53.0754 1217.05 Q53.0754 1208.3 56.131 1203.71 Q59.2097 1199.11 65.0198 1199.11 Z" fill="#000000" fill-rule="evenodd" fill-opacity="1" /><path clip-path="url(#clip780)" d="M85.1818 1228.41 L90.066 1228.41 L90.066 1234.29 L85.1818 1234.29 L85.1818 1228.41 Z" fill="#000000" fill-rule="evenodd" fill-opacity="1" /><path clip-path="url(#clip780)" d="M104.279 1230.36 L120.598 1230.36 L120.598 1234.29 L98.6539 1234.29 L98.6539 1230.36 Q101.316 1227.6 105.899 1222.97 Q110.506 1218.32 111.686 1216.98 Q113.932 1214.45 114.811 1212.72 Q115.714 1210.96 115.714 1209.27 Q115.714 1206.51 113.77 1204.78 Q111.848 1203.04 108.746 1203.04 Q106.547 1203.04 104.094 1203.8 Q101.663 1204.57 98.8854 1206.12 L98.8854 1201.4 Q101.709 1200.26 104.163 1199.68 Q106.617 1199.11 108.654 1199.11 Q114.024 1199.11 117.219 1201.79 Q120.413 1204.48 120.413 1208.97 Q120.413 1211.1 119.603 1213.02 Q118.816 1214.92 116.709 1217.51 Q116.131 1218.18 113.029 1221.4 Q109.927 1224.59 104.279 1230.36 Z" fill="#000000" fill-rule="evenodd" fill-opacity="1" /><path clip-path="url(#clip780)" d="M62.9365 919.65 Q59.3254 919.65 57.4967 923.215 Q55.6912 926.756 55.6912 933.886 Q55.6912 940.992 57.4967 944.557 Q59.3254 948.099 62.9365 948.099 Q66.5707 948.099 68.3763 944.557 Q70.205 940.992 70.205 933.886 Q70.205 926.756 68.3763 923.215 Q66.5707 919.65 62.9365 919.65 M62.9365 915.946 Q68.7467 915.946 71.8022 920.553 Q74.8809 925.136 74.8809 933.886 Q74.8809 942.613 71.8022 947.219 Q68.7467 951.803 62.9365 951.803 Q57.1264 951.803 54.0477 947.219 Q50.9921 942.613 50.9921 933.886 Q50.9921 925.136 54.0477 920.553 Q57.1264 915.946 62.9365 915.946 Z" fill="#000000" fill-rule="evenodd" fill-opacity="1" /><path clip-path="url(#clip780)" d="M83.0984 945.252 L87.9827 945.252 L87.9827 951.131 L83.0984 951.131 L83.0984 945.252 Z" fill="#000000" fill-rule="evenodd" fill-opacity="1" /><path clip-path="url(#clip780)" d="M111.015 920.645 L99.2095 939.094 L111.015 939.094 L111.015 920.645 M109.788 916.571 L115.668 916.571 L115.668 939.094 L120.598 939.094 L120.598 942.983 L115.668 942.983 L115.668 951.131 L111.015 951.131 L111.015 942.983 L95.4132 942.983 L95.4132 938.469 L109.788 916.571 Z" fill="#000000" fill-rule="evenodd" fill-opacity="1" /><path clip-path="url(#clip780)" d="M63.2606 636.491 Q59.6495 636.491 57.8208 640.056 Q56.0152 643.597 56.0152 650.727 Q56.0152 657.833 57.8208 661.398 Q59.6495 664.94 63.2606 664.94 Q66.8948 664.94 68.7004 661.398 Q70.5291 657.833 70.5291 650.727 Q70.5291 643.597 68.7004 640.056 Q66.8948 636.491 63.2606 636.491 M63.2606 632.787 Q69.0707 632.787 72.1263 637.394 Q75.205 641.977 75.205 650.727 Q75.205 659.454 72.1263 664.06 Q69.0707 668.644 63.2606 668.644 Q57.4504 668.644 54.3717 664.06 Q51.3162 659.454 51.3162 650.727 Q51.3162 641.977 54.3717 637.394 Q57.4504 632.787 63.2606 632.787 Z" fill="#000000" fill-rule="evenodd" fill-opacity="1" /><path clip-path="url(#clip780)" d="M83.4225 662.093 L88.3067 662.093 L88.3067 667.972 L83.4225 667.972 L83.4225 662.093 Z" fill="#000000" fill-rule="evenodd" fill-opacity="1" /><path clip-path="url(#clip780)" d="M109.071 648.829 Q105.922 648.829 104.071 650.982 Q102.242 653.134 102.242 656.884 Q102.242 660.611 104.071 662.787 Q105.922 664.94 109.071 664.94 Q112.219 664.94 114.047 662.787 Q115.899 660.611 115.899 656.884 Q115.899 653.134 114.047 650.982 Q112.219 648.829 109.071 648.829 M118.353 634.176 L118.353 638.435 Q116.594 637.602 114.788 637.162 Q113.006 636.722 111.246 636.722 Q106.617 636.722 104.163 639.847 Q101.733 642.972 101.385 649.292 Q102.751 647.278 104.811 646.213 Q106.871 645.125 109.348 645.125 Q114.557 645.125 117.566 648.296 Q120.598 651.445 120.598 656.884 Q120.598 662.208 117.45 665.426 Q114.302 668.644 109.071 668.644 Q103.075 668.644 99.9039 664.06 Q96.7326 659.454 96.7326 650.727 Q96.7326 642.533 100.621 637.671 Q104.51 632.787 111.061 632.787 Q112.82 632.787 114.603 633.134 Q116.408 633.482 118.353 634.176 Z" fill="#000000" fill-rule="evenodd" fill-opacity="1" /><path clip-path="url(#clip780)" d="M63.5152 353.332 Q59.9041 353.332 58.0754 356.897 Q56.2699 360.438 56.2699 367.568 Q56.2699 374.674 58.0754 378.239 Q59.9041 381.781 63.5152 381.781 Q67.1494 381.781 68.955 378.239 Q70.7837 374.674 70.7837 367.568 Q70.7837 360.438 68.955 356.897 Q67.1494 353.332 63.5152 353.332 M63.5152 349.628 Q69.3254 349.628 72.3809 354.235 Q75.4596 358.818 75.4596 367.568 Q75.4596 376.295 72.3809 380.901 Q69.3254 385.484 63.5152 385.484 Q57.7051 385.484 54.6264 380.901 Q51.5708 376.295 51.5708 367.568 Q51.5708 358.818 54.6264 354.235 Q57.7051 349.628 63.5152 349.628 Z" fill="#000000" fill-rule="evenodd" fill-opacity="1" /><path clip-path="url(#clip780)" d="M83.6771 378.934 L88.5614 378.934 L88.5614 384.813 L83.6771 384.813 L83.6771 378.934 Z" fill="#000000" fill-rule="evenodd" fill-opacity="1" /><path clip-path="url(#clip780)" d="M108.746 368.401 Q105.413 368.401 103.492 370.184 Q101.594 371.966 101.594 375.091 Q101.594 378.216 103.492 379.998 Q105.413 381.781 108.746 381.781 Q112.08 381.781 114.001 379.998 Q115.922 378.193 115.922 375.091 Q115.922 371.966 114.001 370.184 Q112.103 368.401 108.746 368.401 M104.071 366.41 Q101.061 365.67 99.3715 363.61 Q97.7048 361.549 97.7048 358.586 Q97.7048 354.443 100.645 352.036 Q103.608 349.628 108.746 349.628 Q113.908 349.628 116.848 352.036 Q119.788 354.443 119.788 358.586 Q119.788 361.549 118.098 363.61 Q116.432 365.67 113.445 366.41 Q116.825 367.198 118.7 369.489 Q120.598 371.781 120.598 375.091 Q120.598 380.114 117.52 382.799 Q114.464 385.484 108.746 385.484 Q103.029 385.484 99.9502 382.799 Q96.8947 380.114 96.8947 375.091 Q96.8947 371.781 98.7928 369.489 Q100.691 367.198 104.071 366.41 M102.358 359.026 Q102.358 361.711 104.024 363.216 Q105.714 364.721 108.746 364.721 Q111.756 364.721 113.445 363.216 Q115.158 361.711 115.158 359.026 Q115.158 356.341 113.445 354.836 Q111.756 353.332 108.746 353.332 Q105.714 353.332 104.024 354.836 Q102.358 356.341 102.358 359.026 Z" fill="#000000" fill-rule="evenodd" fill-opacity="1" /><path clip-path="url(#clip780)" d="M54.2328 97.7189 L61.8717 97.7189 L61.8717 71.3533 L53.5616 73.02 L53.5616 68.7608 L61.8254 67.0941 L66.5013 67.0941 L66.5013 97.7189 L74.1402 97.7189 L74.1402 101.654 L54.2328 101.654 L54.2328 97.7189 Z" fill="#000000" fill-rule="evenodd" fill-opacity="1" /><path clip-path="url(#clip780)" d="M83.5845 95.7745 L88.4688 95.7745 L88.4688 101.654 L83.5845 101.654 L83.5845 95.7745 Z" fill="#000000" fill-rule="evenodd" fill-opacity="1" /><path clip-path="url(#clip780)" d="M108.654 70.1728 Q105.043 70.1728 103.214 73.7376 Q101.409 77.2792 101.409 84.4088 Q101.409 91.5153 103.214 95.0801 Q105.043 98.6217 108.654 98.6217 Q112.288 98.6217 114.094 95.0801 Q115.922 91.5153 115.922 84.4088 Q115.922 77.2792 114.094 73.7376 Q112.288 70.1728 108.654 70.1728 M108.654 66.4691 Q114.464 66.4691 117.52 71.0756 Q120.598 75.6589 120.598 84.4088 Q120.598 93.1356 117.52 97.7421 Q114.464 102.325 108.654 102.325 Q102.844 102.325 99.765 97.7421 Q96.7095 93.1356 96.7095 84.4088 Q96.7095 75.6589 99.765 71.0756 Q102.844 66.4691 108.654 66.4691 Z" fill="#000000" fill-rule="evenodd" fill-opacity="1" /><polyline clip-path="url(#clip782)" style="stroke:#009af9; stroke-linecap:butt; stroke-linejoin:round; stroke-width:4; stroke-opacity:1; fill:none" points="
  218.754,1445.72 239.681,1443.54 260.609,1441.23 281.537,1438.78 302.465,1436.17 323.392,1433.4 344.32,1430.45 365.248,1427.3 386.176,1423.94 407.103,1420.34 
  428.031,1416.49 448.959,1412.36 469.887,1407.92 490.814,1403.15 511.742,1398.01 532.67,1392.46 553.598,1386.45 574.525,1379.95 595.453,1372.9 616.381,1365.22 
  637.309,1356.86 658.236,1347.73 679.164,1337.73 700.092,1326.77 721.02,1314.72 741.947,1301.44 762.875,1286.77 783.803,1270.53 804.731,1252.49 825.658,1232.42 
  846.586,1210.03 867.514,1184.99 888.442,1156.92 909.369,1125.4 930.297,1089.95 951.225,1050.02 972.152,1005.05 993.08,954.421 1014.01,897.537 1034.94,833.877 
  1055.86,763.092 1076.79,685.168 1097.72,600.636 1118.65,510.849 1139.57,418.288 1160.5,326.805 1181.43,241.67 1202.36,169.246 1223.29,116.147 1244.21,87.9763 
  1265.14,87.9763 1286.07,116.147 1307,169.246 1327.92,241.67 1348.85,326.805 1369.78,418.288 1390.71,510.849 1411.64,600.636 1432.56,685.168 1453.49,763.092 
  1474.42,833.877 1495.35,897.537 1516.27,954.421 1537.2,1005.05 1558.13,1050.02 1579.06,1089.95 1599.98,1125.4 1620.91,1156.92 1641.84,1184.99 1662.77,1210.03 
  1683.7,1232.42 1704.62,1252.49 1725.55,1270.53 1746.48,1286.77 1767.41,1301.44 1788.33,1314.72 1809.26,1326.77 1830.19,1337.73 1851.12,1347.73 1872.05,1356.86 
  1892.97,1365.22 1913.9,1372.9 1934.83,1379.95 1955.76,1386.45 1976.68,1392.46 1997.61,1398.01 2018.54,1403.15 2039.47,1407.92 2060.4,1412.36 2081.32,1416.49 
  2102.25,1420.34 2123.18,1423.94 2144.11,1427.3 2165.03,1430.45 2185.96,1433.4 2206.89,1436.17 2227.82,1438.78 2248.75,1441.23 2269.67,1443.54 2290.6,1445.72 
  
  "/>
<polyline clip-path="url(#clip782)" style="stroke:#e26f46; stroke-linecap:butt; stroke-linejoin:round; stroke-width:12; stroke-opacity:1; fill:none" points="
  218.754,1445.72 239.681,1443.54 260.609,1441.23 281.537,1438.78 302.465,1436.17 323.392,1433.4 344.32,1430.45 365.248,1427.3 386.176,1423.94 407.103,1420.34 
  428.031,1416.49 448.959,1412.36 469.887,1407.92 490.814,1403.15 511.742,1398.01 532.67,1392.46 553.598,1386.45 574.525,1379.95 595.453,1372.9 616.381,1365.22 
  637.309,1356.86 658.236,1347.73 679.164,1337.73 700.092,1326.77 721.02,1314.72 741.947,1301.44 762.875,1286.77 783.803,1270.53 804.731,1252.49 825.658,1232.42 
  846.586,1210.03 867.514,1184.99 888.442,1156.92 909.369,1125.4 930.297,1089.95 951.225,1050.02 972.152,1005.05 993.08,954.421 1014.01,897.537 1034.94,833.877 
  1055.86,763.092 1076.79,685.168 1097.72,600.636 1118.65,510.849 1139.57,418.288 1160.5,326.805 1181.43,241.67 1202.36,169.246 1223.29,116.147 1244.21,87.9763 
  1265.14,87.9763 1286.07,116.147 1307,169.246 1327.92,241.67 1348.85,326.805 1369.78,418.288 1390.71,510.849 1411.64,600.636 1432.56,685.168 1453.49,763.092 
  1474.42,833.877 1495.35,897.537 1516.27,954.421 1537.2,1005.05 1558.13,1050.02 1579.06,1089.95 1599.98,1125.4 1620.91,1156.92 1641.84,1184.99 1662.77,1210.03 
  1683.7,1232.42 1704.62,1252.49 1725.55,1270.53 1746.48,1286.77 1767.41,1301.44 1788.33,1314.72 1809.26,1326.77 1830.19,1337.73 1851.12,1347.73 1872.05,1356.86 
  1892.97,1365.22 1913.9,1372.9 1934.83,1379.95 1955.76,1386.45 1976.68,1392.46 1997.61,1398.01 2018.54,1403.15 2039.47,1407.92 2060.4,1412.36 2081.32,1416.49 
  2102.25,1420.34 2123.18,1423.94 2144.11,1427.3 2165.03,1430.45 2185.96,1433.4 2206.89,1436.17 2227.82,1438.78 2248.75,1441.23 2269.67,1443.54 2290.6,1445.72 
  
  "/>
<path clip-path="url(#clip780)" d="
M1776.11 250.738 L2279.55 250.738 L2279.55 95.2176 L1776.11 95.2176  Z
  " fill="#ffffff" fill-rule="evenodd" fill-opacity="1"/>
<polyline clip-path="url(#clip780)" style="stroke:#000000; stroke-linecap:butt; stroke-linejoin:round; stroke-width:4; stroke-opacity:1; fill:none" points="
  1776.11,250.738 2279.55,250.738 2279.55,95.2176 1776.11,95.2176 1776.11,250.738 
  "/>
<polyline clip-path="url(#clip780)" style="stroke:#009af9; stroke-linecap:butt; stroke-linejoin:round; stroke-width:4; stroke-opacity:1; fill:none" points="
  1800.51,147.058 1946.93,147.058 
  "/>
<path clip-path="url(#clip780)" d="M1976 133.62 L1976 146.606 L1981.88 146.606 Q1985.15 146.606 1986.93 144.916 Q1988.71 143.227 1988.71 140.102 Q1988.71 137 1986.93 135.31 Q1985.15 133.62 1981.88 133.62 L1976 133.62 M1971.33 129.778 L1981.88 129.778 Q1987.69 129.778 1990.66 132.416 Q1993.64 135.032 1993.64 140.102 Q1993.64 145.217 1990.66 147.833 Q1987.69 150.449 1981.88 150.449 L1976 150.449 L1976 164.338 L1971.33 164.338 L1971.33 129.778 Z" fill="#000000" fill-rule="evenodd" fill-opacity="1" /><path clip-path="url(#clip780)" d="M2019.43 172.208 L2019.43 175.518 L1994.8 175.518 L1994.8 172.208 L2019.43 172.208 Z" fill="#000000" fill-rule="evenodd" fill-opacity="1" /><path clip-path="url(#clip780)" d="M2024.85 160.402 L2032.48 160.402 L2032.48 134.037 L2024.17 135.703 L2024.17 131.444 L2032.44 129.778 L2037.11 129.778 L2037.11 160.402 L2044.75 160.402 L2044.75 164.338 L2024.85 164.338 L2024.85 160.402 Z" fill="#000000" fill-rule="evenodd" fill-opacity="1" /><path clip-path="url(#clip780)" d="M2064.2 132.856 Q2060.59 132.856 2058.76 136.421 Q2056.95 139.963 2056.95 147.092 Q2056.95 154.199 2058.76 157.764 Q2060.59 161.305 2064.2 161.305 Q2067.83 161.305 2069.64 157.764 Q2071.47 154.199 2071.47 147.092 Q2071.47 139.963 2069.64 136.421 Q2067.83 132.856 2064.2 132.856 M2064.2 129.153 Q2070.01 129.153 2073.06 133.759 Q2076.14 138.342 2076.14 147.092 Q2076.14 155.819 2073.06 160.426 Q2070.01 165.009 2064.2 165.009 Q2058.39 165.009 2055.31 160.426 Q2052.25 155.819 2052.25 147.092 Q2052.25 138.342 2055.31 133.759 Q2058.39 129.153 2064.2 129.153 Z" fill="#000000" fill-rule="evenodd" fill-opacity="1" /><path clip-path="url(#clip780)" d="M2094.36 132.856 Q2090.75 132.856 2088.92 136.421 Q2087.11 139.963 2087.11 147.092 Q2087.11 154.199 2088.92 157.764 Q2090.75 161.305 2094.36 161.305 Q2097.99 161.305 2099.8 157.764 Q2101.63 154.199 2101.63 147.092 Q2101.63 139.963 2099.8 136.421 Q2097.99 132.856 2094.36 132.856 M2094.36 129.153 Q2100.17 129.153 2103.22 133.759 Q2106.3 138.342 2106.3 147.092 Q2106.3 155.819 2103.22 160.426 Q2100.17 165.009 2094.36 165.009 Q2088.55 165.009 2085.47 160.426 Q2082.41 155.819 2082.41 147.092 Q2082.41 138.342 2085.47 133.759 Q2088.55 129.153 2094.36 129.153 Z" fill="#000000" fill-rule="evenodd" fill-opacity="1" /><path clip-path="url(#clip780)" d="M2124.52 132.856 Q2120.91 132.856 2119.08 136.421 Q2117.28 139.963 2117.28 147.092 Q2117.28 154.199 2119.08 157.764 Q2120.91 161.305 2124.52 161.305 Q2128.16 161.305 2129.96 157.764 Q2131.79 154.199 2131.79 147.092 Q2131.79 139.963 2129.96 136.421 Q2128.16 132.856 2124.52 132.856 M2124.52 129.153 Q2130.33 129.153 2133.39 133.759 Q2136.47 138.342 2136.47 147.092 Q2136.47 155.819 2133.39 160.426 Q2130.33 165.009 2124.52 165.009 Q2118.71 165.009 2115.63 160.426 Q2112.58 155.819 2112.58 147.092 Q2112.58 138.342 2115.63 133.759 Q2118.71 129.153 2124.52 129.153 Z" fill="#000000" fill-rule="evenodd" fill-opacity="1" /><path clip-path="url(#clip780)" d="M2154.68 132.856 Q2151.07 132.856 2149.24 136.421 Q2147.44 139.963 2147.44 147.092 Q2147.44 154.199 2149.24 157.764 Q2151.07 161.305 2154.68 161.305 Q2158.32 161.305 2160.12 157.764 Q2161.95 154.199 2161.95 147.092 Q2161.95 139.963 2160.12 136.421 Q2158.32 132.856 2154.68 132.856 M2154.68 129.153 Q2160.49 129.153 2163.55 133.759 Q2166.63 138.342 2166.63 147.092 Q2166.63 155.819 2163.55 160.426 Q2160.49 165.009 2154.68 165.009 Q2148.87 165.009 2145.79 160.426 Q2142.74 155.819 2142.74 147.092 Q2142.74 138.342 2145.79 133.759 Q2148.87 129.153 2154.68 129.153 Z" fill="#000000" fill-rule="evenodd" fill-opacity="1" /><path clip-path="url(#clip780)" d="M2184.47 128.366 Q2181.37 133.69 2179.87 138.898 Q2178.36 144.106 2178.36 149.453 Q2178.36 154.801 2179.87 160.055 Q2181.4 165.287 2184.47 170.588 L2180.77 170.588 Q2177.3 165.148 2175.56 159.893 Q2173.85 154.639 2173.85 149.453 Q2173.85 144.291 2175.56 139.06 Q2177.28 133.828 2180.77 128.366 L2184.47 128.366 Z" fill="#000000" fill-rule="evenodd" fill-opacity="1" /><path clip-path="url(#clip780)" d="M2214.29 138.412 L2204.91 151.027 L2214.78 164.338 L2209.75 164.338 L2202.21 154.152 L2194.66 164.338 L2189.64 164.338 L2199.71 150.773 L2190.49 138.412 L2195.52 138.412 L2202.39 147.648 L2209.27 138.412 L2214.29 138.412 Z" fill="#000000" fill-rule="evenodd" fill-opacity="1" /><path clip-path="url(#clip780)" d="M2220.12 128.366 L2223.83 128.366 Q2227.3 133.828 2229.01 139.06 Q2230.75 144.291 2230.75 149.453 Q2230.75 154.639 2229.01 159.893 Q2227.3 165.148 2223.83 170.588 L2220.12 170.588 Q2223.2 165.287 2224.71 160.055 Q2226.23 154.801 2226.23 149.453 Q2226.23 144.106 2224.71 138.898 Q2223.2 133.69 2220.12 128.366 Z" fill="#000000" fill-rule="evenodd" fill-opacity="1" /><polyline clip-path="url(#clip780)" style="stroke:#e26f46; stroke-linecap:butt; stroke-linejoin:round; stroke-width:4; stroke-opacity:1; fill:none" points="
  1800.51,198.898 1946.93,198.898 
  "/>
<path clip-path="url(#clip780)" d="M1990.24 202.914 Q1990.24 198.284 1988.32 195.738 Q1986.42 193.192 1982.97 193.192 Q1979.54 193.192 1977.62 195.738 Q1975.73 198.284 1975.73 202.914 Q1975.73 207.52 1977.62 210.066 Q1979.54 212.613 1982.97 212.613 Q1986.42 212.613 1988.32 210.066 Q1990.24 207.52 1990.24 202.914 M1994.5 212.96 Q1994.5 219.58 1991.56 222.798 Q1988.62 226.039 1982.55 226.039 Q1980.31 226.039 1978.32 225.691 Q1976.33 225.367 1974.45 224.673 L1974.45 220.529 Q1976.33 221.548 1978.16 222.034 Q1979.98 222.52 1981.88 222.52 Q1986.07 222.52 1988.16 220.321 Q1990.24 218.145 1990.24 213.724 L1990.24 211.617 Q1988.92 213.909 1986.86 215.043 Q1984.8 216.178 1981.93 216.178 Q1977.16 216.178 1974.24 212.543 Q1971.33 208.909 1971.33 202.914 Q1971.33 196.895 1974.24 193.261 Q1977.16 189.627 1981.93 189.627 Q1984.8 189.627 1986.86 190.761 Q1988.92 191.895 1990.24 194.187 L1990.24 190.252 L1994.5 190.252 L1994.5 212.96 Z" fill="#000000" fill-rule="evenodd" fill-opacity="1" /><path clip-path="url(#clip780)" d="M2013.5 180.206 Q2010.4 185.53 2008.9 190.738 Q2007.39 195.946 2007.39 201.293 Q2007.39 206.641 2008.9 211.895 Q2010.42 217.127 2013.5 222.428 L2009.8 222.428 Q2006.33 216.988 2004.59 211.733 Q2002.88 206.479 2002.88 201.293 Q2002.88 196.131 2004.59 190.9 Q2006.3 185.668 2009.8 180.206 L2013.5 180.206 Z" fill="#000000" fill-rule="evenodd" fill-opacity="1" /><path clip-path="url(#clip780)" d="M2043.32 190.252 L2033.94 202.867 L2043.8 216.178 L2038.78 216.178 L2031.23 205.992 L2023.69 216.178 L2018.66 216.178 L2028.73 202.613 L2019.52 190.252 L2024.54 190.252 L2031.42 199.488 L2038.29 190.252 L2043.32 190.252 Z" fill="#000000" fill-rule="evenodd" fill-opacity="1" /><path clip-path="url(#clip780)" d="M2049.15 180.206 L2052.85 180.206 Q2056.33 185.668 2058.04 190.9 Q2059.78 196.131 2059.78 201.293 Q2059.78 206.479 2058.04 211.733 Q2056.33 216.988 2052.85 222.428 L2049.15 222.428 Q2052.23 217.127 2053.73 211.895 Q2055.26 206.641 2055.26 201.293 Q2055.26 195.946 2053.73 190.738 Q2052.23 185.53 2049.15 180.206 Z" fill="#000000" fill-rule="evenodd" fill-opacity="1" /></svg>
