<?xml version="1.0" encoding="utf-8"?>
<svg xmlns="http://www.w3.org/2000/svg" xmlns:xlink="http://www.w3.org/1999/xlink" width="600" height="400" viewBox="0 0 2400 1600">
<defs>
  <clipPath id="clip510">
    <rect x="0" y="0" width="2400" height="1600"/>
  </clipPath>
</defs>
<path clip-path="url(#clip510)" d="
M0 1600 L2400 1600 L2400 0 L0 0  Z
  " fill="#ffffff" fill-rule="evenodd" fill-opacity="1"/>
<defs>
  <clipPath id="clip511">
    <rect x="480" y="0" width="1681" height="1600"/>
  </clipPath>
</defs>
<defs>
  <clipPath id="clip512">
    <rect x="186" y="47" width="2167" height="1440"/>
  </clipPath>
</defs>
<path clip-path="url(#clip510)" d="
M156.274 1486.45 L2352.76 1486.45 L2352.76 47.2441 L156.274 47.2441  Z
  " fill="#ffffff" fill-rule="evenodd" fill-opacity="1"/>
<defs>
  <clipPath id="clip513">
    <rect x="156" y="47" width="2197" height="1440"/>
  </clipPath>
</defs>
<polyline clip-path="url(#clip513)" style="stroke:#000000; stroke-linecap:round; stroke-linejoin:round; stroke-width:2; stroke-opacity:0.1; fill:none" points="
  218.439,1486.45 218.439,47.2441 
  "/>
<polyline clip-path="url(#clip513)" style="stroke:#000000; stroke-linecap:round; stroke-linejoin:round; stroke-width:2; stroke-opacity:0.1; fill:none" points="
  736.477,1486.45 736.477,47.2441 
  "/>
<polyline clip-path="url(#clip513)" style="stroke:#000000; stroke-linecap:round; stroke-linejoin:round; stroke-width:2; stroke-opacity:0.1; fill:none" points="
  1254.52,1486.45 1254.52,47.2441 
  "/>
<polyline clip-path="url(#clip513)" style="stroke:#000000; stroke-linecap:round; stroke-linejoin:round; stroke-width:2; stroke-opacity:0.1; fill:none" points="
  1772.55,1486.45 1772.55,47.2441 
  "/>
<polyline clip-path="url(#clip513)" style="stroke:#000000; stroke-linecap:round; stroke-linejoin:round; stroke-width:2; stroke-opacity:0.1; fill:none" points="
  2290.59,1486.45 2290.59,47.2441 
  "/>
<polyline clip-path="url(#clip510)" style="stroke:#000000; stroke-linecap:round; stroke-linejoin:round; stroke-width:4; stroke-opacity:1; fill:none" points="
  156.274,1486.45 2352.76,1486.45 
  "/>
<polyline clip-path="url(#clip510)" style="stroke:#000000; stroke-linecap:round; stroke-linejoin:round; stroke-width:4; stroke-opacity:1; fill:none" points="
  218.439,1486.45 218.439,1467.55 
  "/>
<polyline clip-path="url(#clip510)" style="stroke:#000000; stroke-linecap:round; stroke-linejoin:round; stroke-width:4; stroke-opacity:1; fill:none" points="
  736.477,1486.45 736.477,1467.55 
  "/>
<polyline clip-path="url(#clip510)" style="stroke:#000000; stroke-linecap:round; stroke-linejoin:round; stroke-width:4; stroke-opacity:1; fill:none" points="
  1254.52,1486.45 1254.52,1467.55 
  "/>
<polyline clip-path="url(#clip510)" style="stroke:#000000; stroke-linecap:round; stroke-linejoin:round; stroke-width:4; stroke-opacity:1; fill:none" points="
  1772.55,1486.45 1772.55,1467.55 
  "/>
<polyline clip-path="url(#clip510)" style="stroke:#000000; stroke-linecap:round; stroke-linejoin:round; stroke-width:4; stroke-opacity:1; fill:none" points="
  2290.59,1486.45 2290.59,1467.55 
  "/>
<path clip-path="url(#clip510)" d="M164.967 1532.02 L194.643 1532.02 L194.643 1535.95 L164.967 1535.95 L164.967 1532.02 Z" fill="#000000" fill-rule="evenodd" fill-opacity="1" /><path clip-path="url(#clip510)" d="M205.545 1544.91 L213.184 1544.91 L213.184 1518.55 L204.874 1520.21 L204.874 1515.95 L213.138 1514.29 L217.814 1514.29 L217.814 1544.91 L225.453 1544.91 L225.453 1548.85 L205.545 1548.85 L205.545 1544.91 Z" fill="#000000" fill-rule="evenodd" fill-opacity="1" /><path clip-path="url(#clip510)" d="M234.897 1542.97 L239.781 1542.97 L239.781 1548.85 L234.897 1548.85 L234.897 1542.97 Z" fill="#000000" fill-rule="evenodd" fill-opacity="1" /><path clip-path="url(#clip510)" d="M259.966 1517.37 Q256.355 1517.37 254.527 1520.93 Q252.721 1524.47 252.721 1531.6 Q252.721 1538.71 254.527 1542.27 Q256.355 1545.82 259.966 1545.82 Q263.601 1545.82 265.406 1542.27 Q267.235 1538.71 267.235 1531.6 Q267.235 1524.47 265.406 1520.93 Q263.601 1517.37 259.966 1517.37 M259.966 1513.66 Q265.776 1513.66 268.832 1518.27 Q271.911 1522.85 271.911 1531.6 Q271.911 1540.33 268.832 1544.94 Q265.776 1549.52 259.966 1549.52 Q254.156 1549.52 251.077 1544.94 Q248.022 1540.33 248.022 1531.6 Q248.022 1522.85 251.077 1518.27 Q254.156 1513.66 259.966 1513.66 Z" fill="#000000" fill-rule="evenodd" fill-opacity="1" /><path clip-path="url(#clip510)" d="M683.503 1532.02 L713.178 1532.02 L713.178 1535.95 L683.503 1535.95 L683.503 1532.02 Z" fill="#000000" fill-rule="evenodd" fill-opacity="1" /><path clip-path="url(#clip510)" d="M733.271 1517.37 Q729.66 1517.37 727.831 1520.93 Q726.026 1524.47 726.026 1531.6 Q726.026 1538.71 727.831 1542.27 Q729.66 1545.82 733.271 1545.82 Q736.905 1545.82 738.711 1542.27 Q740.539 1538.71 740.539 1531.6 Q740.539 1524.47 738.711 1520.93 Q736.905 1517.37 733.271 1517.37 M733.271 1513.66 Q739.081 1513.66 742.137 1518.27 Q745.215 1522.85 745.215 1531.6 Q745.215 1540.33 742.137 1544.94 Q739.081 1549.52 733.271 1549.52 Q727.461 1549.52 724.382 1544.94 Q721.327 1540.33 721.327 1531.6 Q721.327 1522.85 724.382 1518.27 Q727.461 1513.66 733.271 1513.66 Z" fill="#000000" fill-rule="evenodd" fill-opacity="1" /><path clip-path="url(#clip510)" d="M753.433 1542.97 L758.317 1542.97 L758.317 1548.85 L753.433 1548.85 L753.433 1542.97 Z" fill="#000000" fill-rule="evenodd" fill-opacity="1" /><path clip-path="url(#clip510)" d="M768.548 1514.29 L786.905 1514.29 L786.905 1518.22 L772.831 1518.22 L772.831 1526.7 Q773.849 1526.35 774.868 1526.19 Q775.886 1526 776.905 1526 Q782.692 1526 786.072 1529.17 Q789.451 1532.34 789.451 1537.76 Q789.451 1543.34 785.979 1546.44 Q782.507 1549.52 776.187 1549.52 Q774.011 1549.52 771.743 1549.15 Q769.498 1548.78 767.09 1548.04 L767.09 1543.34 Q769.173 1544.47 771.396 1545.03 Q773.618 1545.58 776.095 1545.58 Q780.099 1545.58 782.437 1543.48 Q784.775 1541.37 784.775 1537.76 Q784.775 1534.15 782.437 1532.04 Q780.099 1529.94 776.095 1529.94 Q774.22 1529.94 772.345 1530.35 Q770.493 1530.77 768.548 1531.65 L768.548 1514.29 Z" fill="#000000" fill-rule="evenodd" fill-opacity="1" /><path clip-path="url(#clip510)" d="M1231.9 1517.37 Q1228.29 1517.37 1226.46 1520.93 Q1224.65 1524.47 1224.65 1531.6 Q1224.65 1538.71 1226.46 1542.27 Q1228.29 1545.82 1231.9 1545.82 Q1235.53 1545.82 1237.34 1542.27 Q1239.17 1538.71 1239.17 1531.6 Q1239.17 1524.47 1237.34 1520.93 Q1235.53 1517.37 1231.9 1517.37 M1231.9 1513.66 Q1237.71 1513.66 1240.77 1518.27 Q1243.84 1522.85 1243.84 1531.6 Q1243.84 1540.33 1240.77 1544.94 Q1237.71 1549.52 1231.9 1549.52 Q1226.09 1549.52 1223.01 1544.94 Q1219.96 1540.33 1219.96 1531.6 Q1219.96 1522.85 1223.01 1518.27 Q1226.09 1513.66 1231.9 1513.66 Z" fill="#000000" fill-rule="evenodd" fill-opacity="1" /><path clip-path="url(#clip510)" d="M1252.06 1542.97 L1256.95 1542.97 L1256.95 1548.85 L1252.06 1548.85 L1252.06 1542.97 Z" fill="#000000" fill-rule="evenodd" fill-opacity="1" /><path clip-path="url(#clip510)" d="M1277.13 1517.37 Q1273.52 1517.37 1271.69 1520.93 Q1269.89 1524.47 1269.89 1531.6 Q1269.89 1538.71 1271.69 1542.27 Q1273.52 1545.82 1277.13 1545.82 Q1280.76 1545.82 1282.57 1542.27 Q1284.4 1538.71 1284.4 1531.6 Q1284.4 1524.47 1282.57 1520.93 Q1280.76 1517.37 1277.13 1517.37 M1277.13 1513.66 Q1282.94 1513.66 1286 1518.27 Q1289.08 1522.85 1289.08 1531.6 Q1289.08 1540.33 1286 1544.94 Q1282.94 1549.52 1277.13 1549.52 Q1271.32 1549.52 1268.24 1544.94 Q1265.19 1540.33 1265.19 1531.6 Q1265.19 1522.85 1268.24 1518.27 Q1271.32 1513.66 1277.13 1513.66 Z" fill="#000000" fill-rule="evenodd" fill-opacity="1" /><path clip-path="url(#clip510)" d="M1750.44 1517.37 Q1746.82 1517.37 1745 1520.93 Q1743.19 1524.47 1743.19 1531.6 Q1743.19 1538.71 1745 1542.27 Q1746.82 1545.82 1750.44 1545.82 Q1754.07 1545.82 1755.88 1542.27 Q1757.7 1538.71 1757.7 1531.6 Q1757.7 1524.47 1755.88 1520.93 Q1754.07 1517.37 1750.44 1517.37 M1750.44 1513.66 Q1756.25 1513.66 1759.3 1518.27 Q1762.38 1522.85 1762.38 1531.6 Q1762.38 1540.33 1759.3 1544.94 Q1756.25 1549.52 1750.44 1549.52 Q1744.63 1549.52 1741.55 1544.94 Q1738.49 1540.33 1738.49 1531.6 Q1738.49 1522.85 1741.55 1518.27 Q1744.63 1513.66 1750.44 1513.66 Z" fill="#000000" fill-rule="evenodd" fill-opacity="1" /><path clip-path="url(#clip510)" d="M1770.6 1542.97 L1775.48 1542.97 L1775.48 1548.85 L1770.6 1548.85 L1770.6 1542.97 Z" fill="#000000" fill-rule="evenodd" fill-opacity="1" /><path clip-path="url(#clip510)" d="M1785.71 1514.29 L1804.07 1514.29 L1804.07 1518.22 L1790 1518.22 L1790 1526.7 Q1791.01 1526.35 1792.03 1526.19 Q1793.05 1526 1794.07 1526 Q1799.86 1526 1803.24 1529.17 Q1806.62 1532.34 1806.62 1537.76 Q1806.62 1543.34 1803.14 1546.44 Q1799.67 1549.52 1793.35 1549.52 Q1791.18 1549.52 1788.91 1549.15 Q1786.66 1548.78 1784.25 1548.04 L1784.25 1543.34 Q1786.34 1544.47 1788.56 1545.03 Q1790.78 1545.58 1793.26 1545.58 Q1797.26 1545.58 1799.6 1543.48 Q1801.94 1541.37 1801.94 1537.76 Q1801.94 1534.15 1799.6 1532.04 Q1797.26 1529.94 1793.26 1529.94 Q1791.38 1529.94 1789.51 1530.35 Q1787.66 1530.77 1785.71 1531.65 L1785.71 1514.29 Z" fill="#000000" fill-rule="evenodd" fill-opacity="1" /><path clip-path="url(#clip510)" d="M2257.74 1544.91 L2265.38 1544.91 L2265.38 1518.55 L2257.07 1520.21 L2257.07 1515.95 L2265.34 1514.29 L2270.01 1514.29 L2270.01 1544.91 L2277.65 1544.91 L2277.65 1548.85 L2257.74 1548.85 L2257.74 1544.91 Z" fill="#000000" fill-rule="evenodd" fill-opacity="1" /><path clip-path="url(#clip510)" d="M2287.1 1542.97 L2291.98 1542.97 L2291.98 1548.85 L2287.1 1548.85 L2287.1 1542.97 Z" fill="#000000" fill-rule="evenodd" fill-opacity="1" /><path clip-path="url(#clip510)" d="M2312.17 1517.37 Q2308.55 1517.37 2306.73 1520.93 Q2304.92 1524.47 2304.92 1531.6 Q2304.92 1538.71 2306.73 1542.27 Q2308.55 1545.82 2312.17 1545.82 Q2315.8 1545.82 2317.61 1542.27 Q2319.43 1538.71 2319.43 1531.6 Q2319.43 1524.47 2317.61 1520.93 Q2315.8 1517.37 2312.17 1517.37 M2312.17 1513.66 Q2317.98 1513.66 2321.03 1518.27 Q2324.11 1522.85 2324.11 1531.6 Q2324.11 1540.33 2321.03 1544.94 Q2317.98 1549.52 2312.17 1549.52 Q2306.36 1549.52 2303.28 1544.94 Q2300.22 1540.33 2300.22 1531.6 Q2300.22 1522.85 2303.28 1518.27 Q2306.36 1513.66 2312.17 1513.66 Z" fill="#000000" fill-rule="evenodd" fill-opacity="1" /><polyline clip-path="url(#clip513)" style="stroke:#000000; stroke-linecap:round; stroke-linejoin:round; stroke-width:2; stroke-opacity:0.1; fill:none" points="
  156.274,1171.21 2352.76,1171.21 
  "/>
<polyline clip-path="url(#clip513)" style="stroke:#000000; stroke-linecap:round; stroke-linejoin:round; stroke-width:2; stroke-opacity:0.1; fill:none" points="
  156.274,845.41 2352.76,845.41 
  "/>
<polyline clip-path="url(#clip513)" style="stroke:#000000; stroke-linecap:round; stroke-linejoin:round; stroke-width:2; stroke-opacity:0.1; fill:none" points="
  156.274,519.612 2352.76,519.612 
  "/>
<polyline clip-path="url(#clip513)" style="stroke:#000000; stroke-linecap:round; stroke-linejoin:round; stroke-width:2; stroke-opacity:0.1; fill:none" points="
  156.274,193.813 2352.76,193.813 
  "/>
<polyline clip-path="url(#clip510)" style="stroke:#000000; stroke-linecap:round; stroke-linejoin:round; stroke-width:4; stroke-opacity:1; fill:none" points="
  156.274,1486.45 156.274,47.2441 
  "/>
<polyline clip-path="url(#clip510)" style="stroke:#000000; stroke-linecap:round; stroke-linejoin:round; stroke-width:4; stroke-opacity:1; fill:none" points="
  156.274,1171.21 175.172,1171.21 
  "/>
<polyline clip-path="url(#clip510)" style="stroke:#000000; stroke-linecap:round; stroke-linejoin:round; stroke-width:4; stroke-opacity:1; fill:none" points="
  156.274,845.41 175.172,845.41 
  "/>
<polyline clip-path="url(#clip510)" style="stroke:#000000; stroke-linecap:round; stroke-linejoin:round; stroke-width:4; stroke-opacity:1; fill:none" points="
  156.274,519.612 175.172,519.612 
  "/>
<polyline clip-path="url(#clip510)" style="stroke:#000000; stroke-linecap:round; stroke-linejoin:round; stroke-width:4; stroke-opacity:1; fill:none" points="
  156.274,193.813 175.172,193.813 
  "/>
<path clip-path="url(#clip510)" d="M63.0985 1157.01 Q59.4875 1157.01 57.6588 1160.57 Q55.8532 1164.11 55.8532 1171.24 Q55.8532 1178.35 57.6588 1181.92 Q59.4875 1185.46 63.0985 1185.46 Q66.7328 1185.46 68.5383 1181.92 Q70.367 1178.35 70.367 1171.24 Q70.367 1164.11 68.5383 1160.57 Q66.7328 1157.01 63.0985 1157.01 M63.0985 1153.3 Q68.9087 1153.3 71.9642 1157.91 Q75.0429 1162.49 75.0429 1171.24 Q75.0429 1179.97 71.9642 1184.58 Q68.9087 1189.16 63.0985 1189.16 Q57.2884 1189.16 54.2097 1184.58 Q51.1542 1179.97 51.1542 1171.24 Q51.1542 1162.49 54.2097 1157.91 Q57.2884 1153.3 63.0985 1153.3 Z" fill="#000000" fill-rule="evenodd" fill-opacity="1" /><path clip-path="url(#clip510)" d="M83.2605 1182.61 L88.1447 1182.61 L88.1447 1188.49 L83.2605 1188.49 L83.2605 1182.61 Z" fill="#000000" fill-rule="evenodd" fill-opacity="1" /><path clip-path="url(#clip510)" d="M108.33 1157.01 Q104.719 1157.01 102.89 1160.57 Q101.084 1164.11 101.084 1171.24 Q101.084 1178.35 102.89 1181.92 Q104.719 1185.46 108.33 1185.46 Q111.964 1185.46 113.77 1181.92 Q115.598 1178.35 115.598 1171.24 Q115.598 1164.11 113.77 1160.57 Q111.964 1157.01 108.33 1157.01 M108.33 1153.3 Q114.14 1153.3 117.195 1157.91 Q120.274 1162.49 120.274 1171.24 Q120.274 1179.97 117.195 1184.58 Q114.14 1189.16 108.33 1189.16 Q102.52 1189.16 99.4409 1184.58 Q96.3854 1179.97 96.3854 1171.24 Q96.3854 1162.49 99.4409 1157.91 Q102.52 1153.3 108.33 1153.3 Z" fill="#000000" fill-rule="evenodd" fill-opacity="1" /><path clip-path="url(#clip510)" d="M63.7467 831.209 Q60.1356 831.209 58.3069 834.774 Q56.5014 838.316 56.5014 845.445 Q56.5014 852.552 58.3069 856.116 Q60.1356 859.658 63.7467 859.658 Q67.3809 859.658 69.1865 856.116 Q71.0152 852.552 71.0152 845.445 Q71.0152 838.316 69.1865 834.774 Q67.3809 831.209 63.7467 831.209 M63.7467 827.505 Q69.5568 827.505 72.6124 832.112 Q75.6911 836.695 75.6911 845.445 Q75.6911 854.172 72.6124 858.778 Q69.5568 863.362 63.7467 863.362 Q57.9365 863.362 54.8578 858.778 Q51.8023 854.172 51.8023 845.445 Q51.8023 836.695 54.8578 832.112 Q57.9365 827.505 63.7467 827.505 Z" fill="#000000" fill-rule="evenodd" fill-opacity="1" /><path clip-path="url(#clip510)" d="M83.9086 856.811 L88.7928 856.811 L88.7928 862.69 L83.9086 862.69 L83.9086 856.811 Z" fill="#000000" fill-rule="evenodd" fill-opacity="1" /><path clip-path="url(#clip510)" d="M113.145 844.056 Q116.501 844.774 118.376 847.042 Q120.274 849.311 120.274 852.644 Q120.274 857.76 116.756 860.561 Q113.237 863.362 106.756 863.362 Q104.58 863.362 102.265 862.922 Q99.9733 862.505 97.5197 861.649 L97.5197 857.135 Q99.4641 858.269 101.779 858.848 Q104.094 859.426 106.617 859.426 Q111.015 859.426 113.307 857.69 Q115.621 855.954 115.621 852.644 Q115.621 849.589 113.469 847.876 Q111.339 846.14 107.52 846.14 L103.492 846.14 L103.492 842.297 L107.705 842.297 Q111.154 842.297 112.983 840.931 Q114.811 839.542 114.811 836.95 Q114.811 834.288 112.913 832.876 Q111.038 831.441 107.52 831.441 Q105.598 831.441 103.399 831.857 Q101.2 832.274 98.5613 833.153 L98.5613 828.987 Q101.223 828.246 103.538 827.876 Q105.876 827.505 107.936 827.505 Q113.26 827.505 116.362 829.936 Q119.464 832.343 119.464 836.464 Q119.464 839.334 117.82 841.325 Q116.177 843.292 113.145 844.056 Z" fill="#000000" fill-rule="evenodd" fill-opacity="1" /><path clip-path="url(#clip510)" d="M62.9365 505.41 Q59.3254 505.41 57.4967 508.975 Q55.6912 512.517 55.6912 519.646 Q55.6912 526.753 57.4967 530.318 Q59.3254 533.859 62.9365 533.859 Q66.5707 533.859 68.3763 530.318 Q70.205 526.753 70.205 519.646 Q70.205 512.517 68.3763 508.975 Q66.5707 505.41 62.9365 505.41 M62.9365 501.707 Q68.7467 501.707 71.8022 506.313 Q74.8809 510.896 74.8809 519.646 Q74.8809 528.373 71.8022 532.98 Q68.7467 537.563 62.9365 537.563 Q57.1264 537.563 54.0477 532.98 Q50.9921 528.373 50.9921 519.646 Q50.9921 510.896 54.0477 506.313 Q57.1264 501.707 62.9365 501.707 Z" fill="#000000" fill-rule="evenodd" fill-opacity="1" /><path clip-path="url(#clip510)" d="M83.0984 531.012 L87.9827 531.012 L87.9827 536.892 L83.0984 536.892 L83.0984 531.012 Z" fill="#000000" fill-rule="evenodd" fill-opacity="1" /><path clip-path="url(#clip510)" d="M108.746 517.748 Q105.598 517.748 103.746 519.901 Q101.918 522.054 101.918 525.804 Q101.918 529.531 103.746 531.706 Q105.598 533.859 108.746 533.859 Q111.895 533.859 113.723 531.706 Q115.575 529.531 115.575 525.804 Q115.575 522.054 113.723 519.901 Q111.895 517.748 108.746 517.748 M118.029 503.095 L118.029 507.355 Q116.27 506.521 114.464 506.082 Q112.682 505.642 110.922 505.642 Q106.293 505.642 103.839 508.767 Q101.409 511.892 101.061 518.211 Q102.427 516.197 104.487 515.132 Q106.547 514.044 109.024 514.044 Q114.233 514.044 117.242 517.216 Q120.274 520.364 120.274 525.804 Q120.274 531.128 117.126 534.345 Q113.978 537.563 108.746 537.563 Q102.751 537.563 99.5798 532.98 Q96.4085 528.373 96.4085 519.646 Q96.4085 511.452 100.297 506.591 Q104.186 501.707 110.737 501.707 Q112.496 501.707 114.279 502.054 Q116.084 502.401 118.029 503.095 Z" fill="#000000" fill-rule="evenodd" fill-opacity="1" /><path clip-path="url(#clip510)" d="M63.2837 179.611 Q59.6726 179.611 57.8439 183.176 Q56.0384 186.718 56.0384 193.848 Q56.0384 200.954 57.8439 204.519 Q59.6726 208.06 63.2837 208.06 Q66.918 208.06 68.7235 204.519 Q70.5522 200.954 70.5522 193.848 Q70.5522 186.718 68.7235 183.176 Q66.918 179.611 63.2837 179.611 M63.2837 175.908 Q69.0939 175.908 72.1494 180.514 Q75.2281 185.098 75.2281 193.848 Q75.2281 202.574 72.1494 207.181 Q69.0939 211.764 63.2837 211.764 Q57.4736 211.764 54.3949 207.181 Q51.3393 202.574 51.3393 193.848 Q51.3393 185.098 54.3949 180.514 Q57.4736 175.908 63.2837 175.908 Z" fill="#000000" fill-rule="evenodd" fill-opacity="1" /><path clip-path="url(#clip510)" d="M83.4457 205.213 L88.3299 205.213 L88.3299 211.093 L83.4457 211.093 L83.4457 205.213 Z" fill="#000000" fill-rule="evenodd" fill-opacity="1" /><path clip-path="url(#clip510)" d="M98.6539 210.375 L98.6539 206.116 Q100.413 206.949 102.219 207.389 Q104.024 207.829 105.76 207.829 Q110.39 207.829 112.82 204.727 Q115.274 201.602 115.621 195.26 Q114.279 197.25 112.219 198.315 Q110.158 199.38 107.658 199.38 Q102.473 199.38 99.4409 196.255 Q96.4317 193.107 96.4317 187.667 Q96.4317 182.343 99.5798 179.125 Q102.728 175.908 107.959 175.908 Q113.955 175.908 117.103 180.514 Q120.274 185.098 120.274 193.848 Q120.274 202.019 116.385 206.903 Q112.52 211.764 105.969 211.764 Q104.209 211.764 102.404 211.417 Q100.598 211.07 98.6539 210.375 M107.959 195.723 Q111.108 195.723 112.936 193.57 Q114.788 191.417 114.788 187.667 Q114.788 183.94 112.936 181.787 Q111.108 179.611 107.959 179.611 Q104.811 179.611 102.959 181.787 Q101.131 183.94 101.131 187.667 Q101.131 191.417 102.959 193.57 Q104.811 195.723 107.959 195.723 Z" fill="#000000" fill-rule="evenodd" fill-opacity="1" /><polyline clip-path="url(#clip513)" style="stroke:#009af9; stroke-linecap:round; stroke-linejoin:round; stroke-width:4; stroke-opacity:1; fill:none" points="
  218.439,1129.44 239.37,1302.52 260.3,1401.28 281.231,1443.95 302.162,1445.72 323.093,1419.13 344.024,1374.37 364.955,1319.54 385.885,1260.95 406.816,1203.37 
  427.747,1150.24 448.678,1103.85 469.609,1065.6 490.54,1036.06 511.47,1015.23 532.401,1002.59 553.332,997.265 574.263,998.106 595.194,1003.79 616.125,1012.91 
  637.055,1024.02 657.986,1035.7 678.917,1046.61 699.848,1055.53 720.779,1061.36 741.71,1063.18 762.64,1060.26 783.571,1052.03 804.502,1038.13 825.433,1018.4 
  846.364,992.823 867.295,961.602 888.225,925.077 909.156,883.74 930.087,838.212 951.018,789.226 971.949,737.602 992.88,684.233 1013.81,630.055 1034.74,576.036 
  1055.67,523.144 1076.6,472.336 1097.53,424.532 1118.46,380.602 1139.4,341.344 1160.33,307.474 1181.26,279.606 1202.19,258.25 1223.12,243.792 1244.05,236.497 
  1264.98,236.497 1285.91,243.792 1306.84,258.25 1327.77,279.606 1348.7,307.474 1369.63,341.344 1390.57,380.602 1411.5,424.532 1432.43,472.336 1453.36,523.144 
  1474.29,576.036 1495.22,630.055 1516.15,684.233 1537.08,737.602 1558.01,789.226 1578.94,838.212 1599.87,883.74 1620.8,925.077 1641.74,961.602 1662.67,992.823 
  1683.6,1018.4 1704.53,1038.13 1725.46,1052.03 1746.39,1060.26 1767.32,1063.18 1788.25,1061.36 1809.18,1055.53 1830.11,1046.61 1851.04,1035.7 1871.97,1024.02 
  1892.91,1012.91 1913.84,1003.79 1934.77,998.106 1955.7,997.265 1976.63,1002.59 1997.56,1015.23 2018.49,1036.06 2039.42,1065.6 2060.35,1103.85 2081.28,1150.24 
  2102.21,1203.37 2123.14,1260.95 2144.08,1319.54 2165.01,1374.37 2185.94,1419.13 2206.87,1445.72 2227.8,1443.95 2248.73,1401.28 2269.66,1302.52 2290.59,1129.44 
  
  "/>
<polyline clip-path="url(#clip513)" style="stroke:#e26f46; stroke-linecap:round; stroke-linejoin:round; stroke-width:12; stroke-opacity:1; fill:none" points="
  218.439,1129.44 239.37,1127.77 260.3,1126 281.231,1124.12 302.162,1122.12 323.093,1119.99 344.024,1117.73 364.955,1115.31 385.885,1112.73 406.816,1109.98 
  427.747,1107.02 448.678,1103.85 469.609,1100.45 490.54,1096.79 511.47,1092.85 532.401,1088.59 553.332,1083.98 574.263,1079 595.194,1073.58 616.125,1067.7 
  637.055,1061.28 657.986,1054.28 678.917,1046.61 699.848,1038.2 720.779,1028.96 741.71,1018.78 762.64,1007.52 783.571,995.062 804.502,981.229 825.433,965.833 
  846.364,948.656 867.295,929.446 888.225,907.917 909.156,883.74 930.087,856.545 951.018,825.921 971.949,791.424 992.88,752.589 1013.81,708.956 1034.74,660.125 
  1055.67,605.829 1076.6,546.057 1097.53,481.215 1118.46,412.344 1139.4,341.344 1160.33,271.171 1181.26,205.868 1202.19,150.315 1223.12,109.585 1244.05,87.9763 
  1264.98,87.9763 1285.91,109.585 1306.84,150.315 1327.77,205.868 1348.7,271.171 1369.63,341.344 1390.57,412.344 1411.5,481.215 1432.43,546.057 1453.36,605.829 
  1474.29,660.125 1495.22,708.956 1516.15,752.589 1537.08,791.424 1558.01,825.921 1578.94,856.545 1599.87,883.74 1620.8,907.917 1641.74,929.446 1662.67,948.656 
  1683.6,965.833 1704.53,981.229 1725.46,995.062 1746.39,1007.52 1767.32,1018.78 1788.25,1028.96 1809.18,1038.2 1830.11,1046.61 1851.04,1054.28 1871.97,1061.28 
  1892.91,1067.7 1913.84,1073.58 1934.77,1079 1955.7,1083.98 1976.63,1088.59 1997.56,1092.85 2018.49,1096.79 2039.42,1100.45 2060.35,1103.85 2081.28,1107.02 
  2102.21,1109.98 2123.14,1112.73 2144.08,1115.31 2165.01,1117.73 2185.94,1119.99 2206.87,1122.12 2227.8,1124.12 2248.73,1126 2269.66,1127.77 2290.59,1129.44 
  
  "/>
<path clip-path="url(#clip510)" d="
M1940.27 250.738 L2279.54 250.738 L2279.54 95.2176 L1940.27 95.2176  Z
  " fill="#ffffff" fill-rule="evenodd" fill-opacity="1"/>
<polyline clip-path="url(#clip510)" style="stroke:#000000; stroke-linecap:round; stroke-linejoin:round; stroke-width:4; stroke-opacity:1; fill:none" points="
  1940.27,250.738 2279.54,250.738 2279.54,95.2176 1940.27,95.2176 1940.27,250.738 
  "/>
<polyline clip-path="url(#clip510)" style="stroke:#009af9; stroke-linecap:round; stroke-linejoin:round; stroke-width:4; stroke-opacity:1; fill:none" points="
  1964.67,147.058 2111.1,147.058 
  "/>
<path clip-path="url(#clip510)" d="M2169.75 132.329 Q2169.75 134.952 2167.81 137.364 Q2165.89 139.777 2162.75 141.253 Q2159.63 142.705 2156.29 142.705 L2148.13 142.705 L2145.16 154.697 Q2145.14 154.767 2145.07 155.072 Q2145 155.353 2145 155.517 Q2145 156.102 2145.72 156.243 Q2146.47 156.384 2148.13 156.384 Q2149.21 156.384 2149.38 156.571 Q2149.47 156.688 2149.47 156.899 Q2149.47 157.227 2149.38 157.461 Q2149.28 157.672 2149.09 157.742 Q2148.93 157.812 2148.81 157.836 Q2148.7 157.859 2148.51 157.859 Q2148.02 157.859 2146.96 157.812 Q2145.93 157.765 2145.39 157.765 L2142.33 157.719 L2136.24 157.859 Q2135.51 157.859 2135.51 157.274 Q2135.51 156.829 2135.7 156.641 Q2135.88 156.43 2136.1 156.407 Q2136.31 156.384 2136.84 156.384 Q2138.02 156.384 2138.72 156.313 Q2139.42 156.243 2139.87 156.149 Q2140.33 156.032 2140.57 155.704 Q2140.83 155.376 2140.94 155.095 Q2141.06 154.791 2141.22 154.112 L2147.64 128.347 Q2147.83 127.574 2147.83 127.457 Q2147.83 127.059 2147.6 126.918 Q2147.38 126.754 2146.78 126.684 Q2145.6 126.59 2144.71 126.59 Q2144.13 126.59 2143.89 126.567 Q2143.68 126.543 2143.5 126.426 Q2143.33 126.286 2143.33 126.005 Q2143.33 125.56 2143.52 125.372 Q2143.73 125.161 2143.97 125.138 Q2144.2 125.091 2144.76 125.091 L2160.31 125.091 Q2164.79 125.091 2167.27 127.223 Q2169.75 129.354 2169.75 132.329 M2165.3 131.181 Q2165.3 126.59 2158.77 126.59 L2154.18 126.59 Q2152.65 126.59 2152.28 126.871 Q2151.91 127.129 2151.58 128.417 L2148.32 141.463 L2155.09 141.463 Q2159.63 141.463 2162.47 138.91 Q2163.76 137.739 2164.53 135.303 Q2165.3 132.867 2165.3 131.181 Z" fill="#000000" fill-rule="evenodd" fill-opacity="1" /><path clip-path="url(#clip510)" d="M2174.54 156.343 Q2174.54 154.556 2175.06 153.342 Q2175.59 152.113 2176.68 150.899 Q2178.7 148.784 2181.62 148.784 Q2182.86 148.784 2183.96 149.309 Q2185.08 149.834 2186.13 151.031 Q2187.19 152.211 2187.83 154.556 Q2188.47 156.884 2188.47 160.097 Q2188.47 165.295 2185.95 168.59 Q2183.44 171.886 2180.04 171.886 Q2177.9 171.886 2176.63 170.919 Q2175.37 169.935 2175.37 168.263 Q2175.37 167.394 2175.86 167.033 Q2176.36 166.656 2176.91 166.656 Q2177.52 166.656 2178 167.066 Q2178.47 167.459 2178.47 168.197 Q2178.47 168.804 2178.08 169.279 Q2177.7 169.738 2176.72 169.738 Q2177.68 170.951 2180.01 170.951 Q2180.85 170.951 2181.68 170.574 Q2182.52 170.181 2183.42 169.246 Q2184.34 168.295 2184.9 166.311 Q2185.46 164.328 2185.46 161.54 L2185.46 160.475 Q2184.11 163.836 2181.26 163.836 Q2178.44 163.836 2176.49 161.671 Q2174.54 159.507 2174.54 156.343 M2177.55 156.376 Q2177.55 159.704 2178.16 160.934 Q2179.19 163.049 2181.29 163.049 Q2183.34 163.049 2184.36 161.229 Q2185.39 159.392 2185.39 157.015 Q2185.39 153.72 2184.85 152.277 Q2183.85 149.621 2181.62 149.621 Q2179.41 149.621 2178.26 151.736 Q2177.55 152.982 2177.55 156.376 Z" fill="#000000" fill-rule="evenodd" fill-opacity="1" /><path clip-path="url(#clip510)" d="M2193.45 145.867 Q2193.45 137.763 2196.47 131.228 Q2197.76 128.487 2199.56 126.192 Q2201.36 123.897 2202.56 122.889 Q2203.75 121.882 2204.08 121.882 Q2204.55 121.882 2204.57 122.351 Q2204.57 122.585 2203.94 123.17 Q2196.21 131.04 2196.24 145.867 Q2196.24 160.74 2203.75 168.306 Q2204.57 169.125 2204.57 169.383 Q2204.57 169.851 2204.08 169.851 Q2203.75 169.851 2202.61 168.891 Q2201.46 167.931 2199.68 165.729 Q2197.9 163.527 2196.61 160.834 Q2193.45 154.299 2193.45 145.867 Z" fill="#000000" fill-rule="evenodd" fill-opacity="1" /><path clip-path="url(#clip510)" d="M2232.11 139.824 Q2232.11 141.135 2231.29 141.885 Q2230.47 142.611 2229.53 142.611 Q2228.64 142.611 2228.17 142.096 Q2227.7 141.581 2227.7 140.925 Q2227.7 140.035 2228.36 139.262 Q2229.01 138.489 2230 138.325 Q2229.04 137.716 2227.61 137.716 Q2226.67 137.716 2225.85 138.208 Q2225.06 138.7 2224.56 139.332 Q2224.1 139.964 2223.67 140.878 Q2223.28 141.768 2223.11 142.307 Q2222.97 142.822 2222.85 143.384 L2221.22 149.942 Q2220.42 153.058 2220.42 154.158 Q2220.42 155.517 2221.07 156.43 Q2221.73 157.32 2223.04 157.32 Q2223.56 157.32 2224.14 157.18 Q2224.73 157.016 2225.48 156.594 Q2226.25 156.149 2226.93 155.493 Q2227.63 154.814 2228.31 153.666 Q2228.99 152.519 2229.44 151.043 Q2229.58 150.528 2230.05 150.528 Q2230.63 150.528 2230.63 150.996 Q2230.63 151.395 2230.3 152.238 Q2230 153.058 2229.32 154.135 Q2228.66 155.189 2227.8 156.149 Q2226.93 157.086 2225.64 157.742 Q2224.35 158.398 2222.95 158.398 Q2220.93 158.398 2219.6 157.32 Q2218.26 156.243 2217.77 154.744 Q2217.65 154.955 2217.49 155.236 Q2217.33 155.517 2216.84 156.149 Q2216.37 156.758 2215.83 157.227 Q2215.29 157.672 2214.45 158.023 Q2213.63 158.398 2212.74 158.398 Q2211.61 158.398 2210.6 158.07 Q2209.62 157.742 2208.92 156.992 Q2208.22 156.243 2208.22 155.212 Q2208.22 154.065 2208.99 153.268 Q2209.78 152.449 2210.86 152.449 Q2211.54 152.449 2212.08 152.847 Q2212.64 153.245 2212.64 154.112 Q2212.64 155.072 2211.99 155.798 Q2211.33 156.524 2210.39 156.711 Q2211.35 157.32 2212.78 157.32 Q2214.33 157.32 2215.55 155.962 Q2216.76 154.603 2217.35 152.331 Q2218.8 146.874 2219.36 144.438 Q2219.93 141.979 2219.93 140.925 Q2219.93 139.941 2219.67 139.262 Q2219.41 138.582 2218.97 138.278 Q2218.54 137.95 2218.15 137.833 Q2217.77 137.716 2217.35 137.716 Q2216.65 137.716 2215.85 137.997 Q2215.08 138.278 2214.14 138.934 Q2213.23 139.566 2212.36 140.878 Q2211.49 142.19 2210.91 143.993 Q2210.79 144.532 2210.28 144.532 Q2209.71 144.508 2209.71 144.04 Q2209.71 143.642 2210.02 142.822 Q2210.35 141.979 2211 140.925 Q2211.68 139.871 2212.55 138.934 Q2213.44 137.973 2214.73 137.318 Q2216.04 136.662 2217.44 136.662 Q2218.08 136.662 2218.69 136.802 Q2219.32 136.919 2220.07 137.271 Q2220.84 137.622 2221.52 138.395 Q2222.2 139.168 2222.62 140.292 Q2222.9 139.754 2223.28 139.238 Q2223.67 138.723 2224.28 138.091 Q2224.92 137.435 2225.78 137.06 Q2226.67 136.662 2227.66 136.662 Q2228.62 136.662 2229.55 136.919 Q2230.49 137.154 2231.29 137.927 Q2232.11 138.676 2232.11 139.824 Z" fill="#000000" fill-rule="evenodd" fill-opacity="1" /><path clip-path="url(#clip510)" d="M2236.72 169.383 Q2236.72 169.149 2237.33 168.563 Q2245.06 160.693 2245.06 145.867 Q2245.06 130.994 2237.63 123.475 Q2236.72 122.608 2236.72 122.351 Q2236.72 121.882 2237.19 121.882 Q2237.52 121.882 2238.66 122.843 Q2239.83 123.803 2241.59 126.005 Q2243.37 128.206 2244.68 130.9 Q2247.84 137.435 2247.84 145.867 Q2247.84 153.971 2244.82 160.506 Q2243.53 163.246 2241.73 165.542 Q2239.93 167.837 2238.73 168.844 Q2237.54 169.851 2237.19 169.851 Q2236.72 169.851 2236.72 169.383 Z" fill="#000000" fill-rule="evenodd" fill-opacity="1" /><polyline clip-path="url(#clip510)" style="stroke:#e26f46; stroke-linecap:round; stroke-linejoin:round; stroke-width:12; stroke-opacity:1; fill:none" points="
  1964.67,198.898 2111.1,198.898 
  "/>
<path clip-path="url(#clip510)" d="M2157.53 191.824 Q2157.53 191.847 2157.39 192.69 L2152.05 213.981 Q2151.76 215.106 2150.97 216.23 Q2150.2 217.378 2148.95 218.361 Q2147.74 219.369 2145.86 219.978 Q2144.01 220.61 2141.88 220.61 Q2138.48 220.61 2136.99 219.884 Q2135.51 219.181 2135.51 217.682 Q2135.51 216.371 2136.33 215.621 Q2137.15 214.895 2138.09 214.895 Q2138.98 214.895 2139.44 215.41 Q2139.91 215.925 2139.91 216.581 Q2139.91 217.307 2139.42 218.034 Q2138.93 218.783 2137.95 219.064 Q2139.51 219.556 2141.79 219.556 Q2146.59 219.556 2148.65 214.473 Q2148.7 214.403 2148.7 214.38 L2150.29 208.032 L2150.22 207.985 Q2149.82 208.454 2149.19 208.992 Q2148.58 209.508 2147.27 210.14 Q2145.96 210.773 2144.67 210.773 Q2141.97 210.773 2140.12 208.711 Q2138.3 206.627 2138.3 203.184 Q2138.3 200.677 2139.3 198.171 Q2140.33 195.642 2141.93 193.791 Q2143.54 191.917 2145.6 190.746 Q2147.69 189.575 2149.7 189.575 Q2151.11 189.575 2152.3 190.418 Q2153.5 191.238 2154.15 192.597 Q2154.27 191.472 2154.9 191.004 Q2155.56 190.536 2156.12 190.536 Q2156.75 190.536 2157.13 190.887 Q2157.53 191.215 2157.53 191.824 M2153.59 194.752 Q2153.59 194.611 2153.5 194.236 Q2153.4 193.838 2153.12 193.206 Q2152.87 192.573 2152.47 192.011 Q2152.07 191.449 2151.34 191.051 Q2150.64 190.629 2149.75 190.629 Q2148.3 190.629 2146.85 191.847 Q2145.39 193.042 2144.39 194.892 Q2143.45 196.672 2142.56 200.115 Q2141.69 203.558 2141.69 205.315 Q2141.69 207.048 2142.44 208.383 Q2143.19 209.719 2144.81 209.719 Q2146.68 209.719 2148.7 207.985 Q2150.78 206.182 2151.13 204.636 L2153.45 195.478 Q2153.59 194.916 2153.59 194.752 Z" fill="#000000" fill-rule="evenodd" fill-opacity="1" /><path clip-path="url(#clip510)" d="M2164.1 198.78 Q2164.1 190.676 2167.12 184.141 Q2168.41 181.401 2170.21 179.105 Q2172.02 176.81 2173.21 175.803 Q2174.4 174.796 2174.73 174.796 Q2175.2 174.796 2175.22 175.264 Q2175.22 175.498 2174.59 176.084 Q2166.86 183.954 2166.89 198.78 Q2166.89 213.654 2174.4 221.219 Q2175.22 222.039 2175.22 222.296 Q2175.22 222.765 2174.73 222.765 Q2174.4 222.765 2173.26 221.805 Q2172.11 220.844 2170.33 218.642 Q2168.55 216.441 2167.26 213.747 Q2164.1 207.212 2164.1 198.78 Z" fill="#000000" fill-rule="evenodd" fill-opacity="1" /><path clip-path="url(#clip510)" d="M2202.76 192.737 Q2202.76 194.049 2201.94 194.798 Q2201.12 195.525 2200.18 195.525 Q2199.29 195.525 2198.82 195.009 Q2198.35 194.494 2198.35 193.838 Q2198.35 192.948 2199.01 192.175 Q2199.66 191.402 2200.65 191.238 Q2199.69 190.629 2198.26 190.629 Q2197.32 190.629 2196.5 191.121 Q2195.71 191.613 2195.21 192.245 Q2194.75 192.878 2194.32 193.791 Q2193.93 194.681 2193.76 195.22 Q2193.62 195.735 2193.5 196.297 L2191.87 202.856 Q2191.07 205.971 2191.07 207.072 Q2191.07 208.43 2191.72 209.344 Q2192.38 210.234 2193.69 210.234 Q2194.21 210.234 2194.79 210.093 Q2195.38 209.929 2196.13 209.508 Q2196.9 209.063 2197.58 208.407 Q2198.28 207.728 2198.96 206.58 Q2199.64 205.432 2200.09 203.957 Q2200.23 203.441 2200.7 203.441 Q2201.28 203.441 2201.28 203.91 Q2201.28 204.308 2200.95 205.151 Q2200.65 205.971 2199.97 207.048 Q2199.31 208.102 2198.45 209.063 Q2197.58 210 2196.29 210.655 Q2195 211.311 2193.6 211.311 Q2191.58 211.311 2190.25 210.234 Q2188.91 209.156 2188.42 207.657 Q2188.31 207.868 2188.14 208.149 Q2187.98 208.43 2187.49 209.063 Q2187.02 209.672 2186.48 210.14 Q2185.94 210.585 2185.1 210.937 Q2184.28 211.311 2183.39 211.311 Q2182.26 211.311 2181.25 210.983 Q2180.27 210.655 2179.57 209.906 Q2178.87 209.156 2178.87 208.126 Q2178.87 206.978 2179.64 206.182 Q2180.44 205.362 2181.51 205.362 Q2182.19 205.362 2182.73 205.76 Q2183.29 206.158 2183.29 207.025 Q2183.29 207.985 2182.64 208.711 Q2181.98 209.437 2181.04 209.625 Q2182 210.234 2183.43 210.234 Q2184.98 210.234 2186.2 208.875 Q2187.42 207.517 2188 205.245 Q2189.45 199.787 2190.01 197.351 Q2190.58 194.892 2190.58 193.838 Q2190.58 192.854 2190.32 192.175 Q2190.06 191.496 2189.62 191.191 Q2189.2 190.863 2188.8 190.746 Q2188.42 190.629 2188 190.629 Q2187.3 190.629 2186.5 190.91 Q2185.73 191.191 2184.79 191.847 Q2183.88 192.48 2183.01 193.791 Q2182.14 195.103 2181.56 196.906 Q2181.44 197.445 2180.93 197.445 Q2180.36 197.422 2180.36 196.953 Q2180.36 196.555 2180.67 195.735 Q2181 194.892 2181.65 193.838 Q2182.33 192.784 2183.2 191.847 Q2184.09 190.887 2185.38 190.231 Q2186.69 189.575 2188.09 189.575 Q2188.73 189.575 2189.34 189.716 Q2189.97 189.833 2190.72 190.184 Q2191.49 190.536 2192.17 191.309 Q2192.85 192.081 2193.27 193.206 Q2193.55 192.667 2193.93 192.152 Q2194.32 191.636 2194.93 191.004 Q2195.57 190.348 2196.43 189.973 Q2197.32 189.575 2198.31 189.575 Q2199.27 189.575 2200.2 189.833 Q2201.14 190.067 2201.94 190.84 Q2202.76 191.59 2202.76 192.737 Z" fill="#000000" fill-rule="evenodd" fill-opacity="1" /><path clip-path="url(#clip510)" d="M2207.37 222.296 Q2207.37 222.062 2207.98 221.477 Q2215.71 213.607 2215.71 198.78 Q2215.71 183.907 2208.28 176.388 Q2207.37 175.522 2207.37 175.264 Q2207.37 174.796 2207.84 174.796 Q2208.17 174.796 2209.31 175.756 Q2210.48 176.716 2212.24 178.918 Q2214.02 181.12 2215.33 183.813 Q2218.49 190.348 2218.49 198.78 Q2218.49 206.884 2215.47 213.419 Q2214.19 216.16 2212.38 218.455 Q2210.58 220.751 2209.38 221.758 Q2208.19 222.765 2207.84 222.765 Q2207.37 222.765 2207.37 222.296 Z" fill="#000000" fill-rule="evenodd" fill-opacity="1" /></svg>
