<?xml version="1.0" encoding="utf-8"?>
<svg xmlns="http://www.w3.org/2000/svg" xmlns:xlink="http://www.w3.org/1999/xlink" width="600" height="400" viewBox="0 0 2400 1600">
<defs>
  <clipPath id="clip160">
    <rect x="0" y="0" width="2400" height="1600"/>
  </clipPath>
</defs>
<path clip-path="url(#clip160)" d="
M0 1600 L2400 1600 L2400 0 L0 0  Z
  " fill="#ffffff" fill-rule="evenodd" fill-opacity="1"/>
<defs>
  <clipPath id="clip161">
    <rect x="480" y="0" width="1681" height="1600"/>
  </clipPath>
</defs>
<path clip-path="url(#clip160)" d="
M186.274 1486.45 L2352.76 1486.45 L2352.76 47.2441 L186.274 47.2441  Z
  " fill="#ffffff" fill-rule="evenodd" fill-opacity="1"/>
<defs>
  <clipPath id="clip162">
    <rect x="186" y="47" width="2167" height="1440"/>
  </clipPath>
</defs>
<polyline clip-path="url(#clip162)" style="stroke:#000000; stroke-linecap:butt; stroke-linejoin:round; stroke-width:2; stroke-opacity:0.1; fill:none" points="
  247.59,1486.45 247.59,47.2441 
  "/>
<polyline clip-path="url(#clip162)" style="stroke:#000000; stroke-linecap:butt; stroke-linejoin:round; stroke-width:2; stroke-opacity:0.1; fill:none" points="
  758.552,1486.45 758.552,47.2441 
  "/>
<polyline clip-path="url(#clip162)" style="stroke:#000000; stroke-linecap:butt; stroke-linejoin:round; stroke-width:2; stroke-opacity:0.1; fill:none" points="
  1269.51,1486.45 1269.51,47.2441 
  "/>
<polyline clip-path="url(#clip162)" style="stroke:#000000; stroke-linecap:butt; stroke-linejoin:round; stroke-width:2; stroke-opacity:0.1; fill:none" points="
  1780.48,1486.45 1780.48,47.2441 
  "/>
<polyline clip-path="url(#clip162)" style="stroke:#000000; stroke-linecap:butt; stroke-linejoin:round; stroke-width:2; stroke-opacity:0.1; fill:none" points="
  2291.44,1486.45 2291.44,47.2441 
  "/>
<polyline clip-path="url(#clip160)" style="stroke:#000000; stroke-linecap:butt; stroke-linejoin:round; stroke-width:4; stroke-opacity:1; fill:none" points="
  186.274,1486.45 2352.76,1486.45 
  "/>
<polyline clip-path="url(#clip160)" style="stroke:#000000; stroke-linecap:butt; stroke-linejoin:round; stroke-width:4; stroke-opacity:1; fill:none" points="
  247.59,1486.45 247.59,1467.55 
  "/>
<polyline clip-path="url(#clip160)" style="stroke:#000000; stroke-linecap:butt; stroke-linejoin:round; stroke-width:4; stroke-opacity:1; fill:none" points="
  758.552,1486.45 758.552,1467.55 
  "/>
<polyline clip-path="url(#clip160)" style="stroke:#000000; stroke-linecap:butt; stroke-linejoin:round; stroke-width:4; stroke-opacity:1; fill:none" points="
  1269.51,1486.45 1269.51,1467.55 
  "/>
<polyline clip-path="url(#clip160)" style="stroke:#000000; stroke-linecap:butt; stroke-linejoin:round; stroke-width:4; stroke-opacity:1; fill:none" points="
  1780.48,1486.45 1780.48,1467.55 
  "/>
<polyline clip-path="url(#clip160)" style="stroke:#000000; stroke-linecap:butt; stroke-linejoin:round; stroke-width:4; stroke-opacity:1; fill:none" points="
  2291.44,1486.45 2291.44,1467.55 
  "/>
<path clip-path="url(#clip160)" d="M194.118 1532.02 L223.793 1532.02 L223.793 1535.95 L194.118 1535.95 L194.118 1532.02 Z" fill="#000000" fill-rule="evenodd" fill-opacity="1" /><path clip-path="url(#clip160)" d="M234.696 1544.91 L242.335 1544.91 L242.335 1518.55 L234.025 1520.21 L234.025 1515.95 L242.289 1514.29 L246.965 1514.29 L246.965 1544.91 L254.603 1544.91 L254.603 1548.85 L234.696 1548.85 L234.696 1544.91 Z" fill="#000000" fill-rule="evenodd" fill-opacity="1" /><path clip-path="url(#clip160)" d="M264.048 1542.97 L268.932 1542.97 L268.932 1548.85 L264.048 1548.85 L264.048 1542.97 Z" fill="#000000" fill-rule="evenodd" fill-opacity="1" /><path clip-path="url(#clip160)" d="M289.117 1517.37 Q285.506 1517.37 283.677 1520.93 Q281.872 1524.47 281.872 1531.6 Q281.872 1538.71 283.677 1542.27 Q285.506 1545.82 289.117 1545.82 Q292.751 1545.82 294.557 1542.27 Q296.386 1538.71 296.386 1531.6 Q296.386 1524.47 294.557 1520.93 Q292.751 1517.37 289.117 1517.37 M289.117 1513.66 Q294.927 1513.66 297.983 1518.27 Q301.061 1522.85 301.061 1531.6 Q301.061 1540.33 297.983 1544.94 Q294.927 1549.52 289.117 1549.52 Q283.307 1549.52 280.228 1544.94 Q277.173 1540.33 277.173 1531.6 Q277.173 1522.85 280.228 1518.27 Q283.307 1513.66 289.117 1513.66 Z" fill="#000000" fill-rule="evenodd" fill-opacity="1" /><path clip-path="url(#clip160)" d="M705.578 1532.02 L735.254 1532.02 L735.254 1535.95 L705.578 1535.95 L705.578 1532.02 Z" fill="#000000" fill-rule="evenodd" fill-opacity="1" /><path clip-path="url(#clip160)" d="M755.346 1517.37 Q751.735 1517.37 749.906 1520.93 Q748.101 1524.47 748.101 1531.6 Q748.101 1538.71 749.906 1542.27 Q751.735 1545.82 755.346 1545.82 Q758.98 1545.82 760.786 1542.27 Q762.615 1538.71 762.615 1531.6 Q762.615 1524.47 760.786 1520.93 Q758.98 1517.37 755.346 1517.37 M755.346 1513.66 Q761.156 1513.66 764.212 1518.27 Q767.291 1522.85 767.291 1531.6 Q767.291 1540.33 764.212 1544.94 Q761.156 1549.52 755.346 1549.52 Q749.536 1549.52 746.457 1544.94 Q743.402 1540.33 743.402 1531.6 Q743.402 1522.85 746.457 1518.27 Q749.536 1513.66 755.346 1513.66 Z" fill="#000000" fill-rule="evenodd" fill-opacity="1" /><path clip-path="url(#clip160)" d="M775.508 1542.97 L780.392 1542.97 L780.392 1548.85 L775.508 1548.85 L775.508 1542.97 Z" fill="#000000" fill-rule="evenodd" fill-opacity="1" /><path clip-path="url(#clip160)" d="M790.624 1514.29 L808.98 1514.29 L808.98 1518.22 L794.906 1518.22 L794.906 1526.7 Q795.925 1526.35 796.943 1526.19 Q797.962 1526 798.98 1526 Q804.767 1526 808.147 1529.17 Q811.526 1532.34 811.526 1537.76 Q811.526 1543.34 808.054 1546.44 Q804.582 1549.52 798.263 1549.52 Q796.087 1549.52 793.818 1549.15 Q791.573 1548.78 789.166 1548.04 L789.166 1543.34 Q791.249 1544.47 793.471 1545.03 Q795.693 1545.58 798.17 1545.58 Q802.175 1545.58 804.513 1543.48 Q806.851 1541.37 806.851 1537.76 Q806.851 1534.15 804.513 1532.04 Q802.175 1529.94 798.17 1529.94 Q796.295 1529.94 794.42 1530.35 Q792.568 1530.77 790.624 1531.65 L790.624 1514.29 Z" fill="#000000" fill-rule="evenodd" fill-opacity="1" /><path clip-path="url(#clip160)" d="M1246.9 1517.37 Q1243.29 1517.37 1241.46 1520.93 Q1239.65 1524.47 1239.65 1531.6 Q1239.65 1538.71 1241.46 1542.27 Q1243.29 1545.82 1246.9 1545.82 Q1250.53 1545.82 1252.34 1542.27 Q1254.17 1538.71 1254.17 1531.6 Q1254.17 1524.47 1252.34 1520.93 Q1250.53 1517.37 1246.9 1517.37 M1246.9 1513.66 Q1252.71 1513.66 1255.77 1518.27 Q1258.84 1522.85 1258.84 1531.6 Q1258.84 1540.33 1255.77 1544.94 Q1252.71 1549.52 1246.9 1549.52 Q1241.09 1549.52 1238.01 1544.94 Q1234.95 1540.33 1234.95 1531.6 Q1234.95 1522.85 1238.01 1518.27 Q1241.09 1513.66 1246.9 1513.66 Z" fill="#000000" fill-rule="evenodd" fill-opacity="1" /><path clip-path="url(#clip160)" d="M1267.06 1542.97 L1271.95 1542.97 L1271.95 1548.85 L1267.06 1548.85 L1267.06 1542.97 Z" fill="#000000" fill-rule="evenodd" fill-opacity="1" /><path clip-path="url(#clip160)" d="M1292.13 1517.37 Q1288.52 1517.37 1286.69 1520.93 Q1284.89 1524.47 1284.89 1531.6 Q1284.89 1538.71 1286.69 1542.27 Q1288.52 1545.82 1292.13 1545.82 Q1295.76 1545.82 1297.57 1542.27 Q1299.4 1538.71 1299.4 1531.6 Q1299.4 1524.47 1297.57 1520.93 Q1295.76 1517.37 1292.13 1517.37 M1292.13 1513.66 Q1297.94 1513.66 1301 1518.27 Q1304.07 1522.85 1304.07 1531.6 Q1304.07 1540.33 1301 1544.94 Q1297.94 1549.52 1292.13 1549.52 Q1286.32 1549.52 1283.24 1544.94 Q1280.19 1540.33 1280.19 1531.6 Q1280.19 1522.85 1283.24 1518.27 Q1286.32 1513.66 1292.13 1513.66 Z" fill="#000000" fill-rule="evenodd" fill-opacity="1" /><path clip-path="url(#clip160)" d="M1758.36 1517.37 Q1754.75 1517.37 1752.92 1520.93 Q1751.11 1524.47 1751.11 1531.6 Q1751.11 1538.71 1752.92 1542.27 Q1754.75 1545.82 1758.36 1545.82 Q1761.99 1545.82 1763.8 1542.27 Q1765.63 1538.71 1765.63 1531.6 Q1765.63 1524.47 1763.8 1520.93 Q1761.99 1517.37 1758.36 1517.37 M1758.36 1513.66 Q1764.17 1513.66 1767.23 1518.27 Q1770.3 1522.85 1770.3 1531.6 Q1770.3 1540.33 1767.23 1544.94 Q1764.17 1549.52 1758.36 1549.52 Q1752.55 1549.52 1749.47 1544.94 Q1746.42 1540.33 1746.42 1531.6 Q1746.42 1522.85 1749.47 1518.27 Q1752.55 1513.66 1758.36 1513.66 Z" fill="#000000" fill-rule="evenodd" fill-opacity="1" /><path clip-path="url(#clip160)" d="M1778.52 1542.97 L1783.41 1542.97 L1783.41 1548.85 L1778.52 1548.85 L1778.52 1542.97 Z" fill="#000000" fill-rule="evenodd" fill-opacity="1" /><path clip-path="url(#clip160)" d="M1793.64 1514.29 L1811.99 1514.29 L1811.99 1518.22 L1797.92 1518.22 L1797.92 1526.7 Q1798.94 1526.35 1799.96 1526.19 Q1800.98 1526 1801.99 1526 Q1807.78 1526 1811.16 1529.17 Q1814.54 1532.34 1814.54 1537.76 Q1814.54 1543.34 1811.07 1546.44 Q1807.6 1549.52 1801.28 1549.52 Q1799.1 1549.52 1796.83 1549.15 Q1794.59 1548.78 1792.18 1548.04 L1792.18 1543.34 Q1794.26 1544.47 1796.48 1545.03 Q1798.71 1545.58 1801.18 1545.58 Q1805.19 1545.58 1807.53 1543.48 Q1809.86 1541.37 1809.86 1537.76 Q1809.86 1534.15 1807.53 1532.04 Q1805.19 1529.94 1801.18 1529.94 Q1799.31 1529.94 1797.43 1530.35 Q1795.58 1530.77 1793.64 1531.65 L1793.64 1514.29 Z" fill="#000000" fill-rule="evenodd" fill-opacity="1" /><path clip-path="url(#clip160)" d="M2258.59 1544.91 L2266.23 1544.91 L2266.23 1518.55 L2257.92 1520.21 L2257.92 1515.95 L2266.19 1514.29 L2270.86 1514.29 L2270.86 1544.91 L2278.5 1544.91 L2278.5 1548.85 L2258.59 1548.85 L2258.59 1544.91 Z" fill="#000000" fill-rule="evenodd" fill-opacity="1" /><path clip-path="url(#clip160)" d="M2287.95 1542.97 L2292.83 1542.97 L2292.83 1548.85 L2287.95 1548.85 L2287.95 1542.97 Z" fill="#000000" fill-rule="evenodd" fill-opacity="1" /><path clip-path="url(#clip160)" d="M2313.01 1517.37 Q2309.4 1517.37 2307.57 1520.93 Q2305.77 1524.47 2305.77 1531.6 Q2305.77 1538.71 2307.57 1542.27 Q2309.4 1545.82 2313.01 1545.82 Q2316.65 1545.82 2318.45 1542.27 Q2320.28 1538.71 2320.28 1531.6 Q2320.28 1524.47 2318.45 1520.93 Q2316.65 1517.37 2313.01 1517.37 M2313.01 1513.66 Q2318.82 1513.66 2321.88 1518.27 Q2324.96 1522.85 2324.96 1531.6 Q2324.96 1540.33 2321.88 1544.94 Q2318.82 1549.52 2313.01 1549.52 Q2307.2 1549.52 2304.13 1544.94 Q2301.07 1540.33 2301.07 1531.6 Q2301.07 1522.85 2304.13 1518.27 Q2307.2 1513.66 2313.01 1513.66 Z" fill="#000000" fill-rule="evenodd" fill-opacity="1" /><polyline clip-path="url(#clip162)" style="stroke:#000000; stroke-linecap:butt; stroke-linejoin:round; stroke-width:2; stroke-opacity:0.1; fill:none" points="
  186.274,1374.25 2352.76,1374.25 
  "/>
<polyline clip-path="url(#clip162)" style="stroke:#000000; stroke-linecap:butt; stroke-linejoin:round; stroke-width:2; stroke-opacity:0.1; fill:none" points="
  186.274,1051.86 2352.76,1051.86 
  "/>
<polyline clip-path="url(#clip162)" style="stroke:#000000; stroke-linecap:butt; stroke-linejoin:round; stroke-width:2; stroke-opacity:0.1; fill:none" points="
  186.274,729.474 2352.76,729.474 
  "/>
<polyline clip-path="url(#clip162)" style="stroke:#000000; stroke-linecap:butt; stroke-linejoin:round; stroke-width:2; stroke-opacity:0.1; fill:none" points="
  186.274,407.084 2352.76,407.084 
  "/>
<polyline clip-path="url(#clip162)" style="stroke:#000000; stroke-linecap:butt; stroke-linejoin:round; stroke-width:2; stroke-opacity:0.1; fill:none" points="
  186.274,84.6953 2352.76,84.6953 
  "/>
<polyline clip-path="url(#clip160)" style="stroke:#000000; stroke-linecap:butt; stroke-linejoin:round; stroke-width:4; stroke-opacity:1; fill:none" points="
  186.274,1486.45 186.274,47.2441 
  "/>
<polyline clip-path="url(#clip160)" style="stroke:#000000; stroke-linecap:butt; stroke-linejoin:round; stroke-width:4; stroke-opacity:1; fill:none" points="
  186.274,1374.25 205.172,1374.25 
  "/>
<polyline clip-path="url(#clip160)" style="stroke:#000000; stroke-linecap:butt; stroke-linejoin:round; stroke-width:4; stroke-opacity:1; fill:none" points="
  186.274,1051.86 205.172,1051.86 
  "/>
<polyline clip-path="url(#clip160)" style="stroke:#000000; stroke-linecap:butt; stroke-linejoin:round; stroke-width:4; stroke-opacity:1; fill:none" points="
  186.274,729.474 205.172,729.474 
  "/>
<polyline clip-path="url(#clip160)" style="stroke:#000000; stroke-linecap:butt; stroke-linejoin:round; stroke-width:4; stroke-opacity:1; fill:none" points="
  186.274,407.084 205.172,407.084 
  "/>
<polyline clip-path="url(#clip160)" style="stroke:#000000; stroke-linecap:butt; stroke-linejoin:round; stroke-width:4; stroke-opacity:1; fill:none" points="
  186.274,84.6953 205.172,84.6953 
  "/>
<path clip-path="url(#clip160)" d="M62.9365 1360.05 Q59.3254 1360.05 57.4967 1363.62 Q55.6912 1367.16 55.6912 1374.29 Q55.6912 1381.39 57.4967 1384.96 Q59.3254 1388.5 62.9365 1388.5 Q66.5707 1388.5 68.3763 1384.96 Q70.205 1381.39 70.205 1374.29 Q70.205 1367.16 68.3763 1363.62 Q66.5707 1360.05 62.9365 1360.05 M62.9365 1356.35 Q68.7467 1356.35 71.8022 1360.95 Q74.8809 1365.54 74.8809 1374.29 Q74.8809 1383.01 71.8022 1387.62 Q68.7467 1392.2 62.9365 1392.2 Q57.1264 1392.2 54.0477 1387.62 Q50.9921 1383.01 50.9921 1374.29 Q50.9921 1365.54 54.0477 1360.95 Q57.1264 1356.35 62.9365 1356.35 Z" fill="#000000" fill-rule="evenodd" fill-opacity="1" /><path clip-path="url(#clip160)" d="M83.0984 1385.65 L87.9827 1385.65 L87.9827 1391.53 L83.0984 1391.53 L83.0984 1385.65 Z" fill="#000000" fill-rule="evenodd" fill-opacity="1" /><path clip-path="url(#clip160)" d="M108.168 1360.05 Q104.557 1360.05 102.728 1363.62 Q100.922 1367.16 100.922 1374.29 Q100.922 1381.39 102.728 1384.96 Q104.557 1388.5 108.168 1388.5 Q111.802 1388.5 113.608 1384.96 Q115.436 1381.39 115.436 1374.29 Q115.436 1367.16 113.608 1363.62 Q111.802 1360.05 108.168 1360.05 M108.168 1356.35 Q113.978 1356.35 117.033 1360.95 Q120.112 1365.54 120.112 1374.29 Q120.112 1383.01 117.033 1387.62 Q113.978 1392.2 108.168 1392.2 Q102.358 1392.2 99.2789 1387.62 Q96.2234 1383.01 96.2234 1374.29 Q96.2234 1365.54 99.2789 1360.95 Q102.358 1356.35 108.168 1356.35 Z" fill="#000000" fill-rule="evenodd" fill-opacity="1" /><path clip-path="url(#clip160)" d="M138.33 1360.05 Q134.719 1360.05 132.89 1363.62 Q131.084 1367.16 131.084 1374.29 Q131.084 1381.39 132.89 1384.96 Q134.719 1388.5 138.33 1388.5 Q141.964 1388.5 143.769 1384.96 Q145.598 1381.39 145.598 1374.29 Q145.598 1367.16 143.769 1363.62 Q141.964 1360.05 138.33 1360.05 M138.33 1356.35 Q144.14 1356.35 147.195 1360.95 Q150.274 1365.54 150.274 1374.29 Q150.274 1383.01 147.195 1387.62 Q144.14 1392.2 138.33 1392.2 Q132.519 1392.2 129.441 1387.62 Q126.385 1383.01 126.385 1374.29 Q126.385 1365.54 129.441 1360.95 Q132.519 1356.35 138.33 1356.35 Z" fill="#000000" fill-rule="evenodd" fill-opacity="1" /><path clip-path="url(#clip160)" d="M63.9319 1037.66 Q60.3208 1037.66 58.4921 1041.23 Q56.6865 1044.77 56.6865 1051.9 Q56.6865 1059 58.4921 1062.57 Q60.3208 1066.11 63.9319 1066.11 Q67.5661 1066.11 69.3717 1062.57 Q71.2004 1059 71.2004 1051.9 Q71.2004 1044.77 69.3717 1041.23 Q67.5661 1037.66 63.9319 1037.66 M63.9319 1033.96 Q69.742 1033.96 72.7976 1038.56 Q75.8763 1043.15 75.8763 1051.9 Q75.8763 1060.62 72.7976 1065.23 Q69.742 1069.81 63.9319 1069.81 Q58.1217 1069.81 55.043 1065.23 Q51.9875 1060.62 51.9875 1051.9 Q51.9875 1043.15 55.043 1038.56 Q58.1217 1033.96 63.9319 1033.96 Z" fill="#000000" fill-rule="evenodd" fill-opacity="1" /><path clip-path="url(#clip160)" d="M84.0938 1063.26 L88.978 1063.26 L88.978 1069.14 L84.0938 1069.14 L84.0938 1063.26 Z" fill="#000000" fill-rule="evenodd" fill-opacity="1" /><path clip-path="url(#clip160)" d="M103.191 1065.21 L119.51 1065.21 L119.51 1069.14 L97.566 1069.14 L97.566 1065.21 Q100.228 1062.45 104.811 1057.82 Q109.418 1053.17 110.598 1051.83 Q112.844 1049.3 113.723 1047.57 Q114.626 1045.81 114.626 1044.12 Q114.626 1041.37 112.682 1039.63 Q110.76 1037.89 107.658 1037.89 Q105.459 1037.89 103.006 1038.66 Q100.575 1039.42 97.7974 1040.97 L97.7974 1036.25 Q100.621 1035.12 103.075 1034.54 Q105.529 1033.96 107.566 1033.96 Q112.936 1033.96 116.131 1036.64 Q119.325 1039.33 119.325 1043.82 Q119.325 1045.95 118.515 1047.87 Q117.728 1049.77 115.621 1052.36 Q115.043 1053.03 111.941 1056.25 Q108.839 1059.44 103.191 1065.21 Z" fill="#000000" fill-rule="evenodd" fill-opacity="1" /><path clip-path="url(#clip160)" d="M129.371 1034.58 L147.728 1034.58 L147.728 1038.52 L133.654 1038.52 L133.654 1046.99 Q134.672 1046.64 135.691 1046.48 Q136.709 1046.3 137.728 1046.3 Q143.515 1046.3 146.894 1049.47 Q150.274 1052.64 150.274 1058.05 Q150.274 1063.63 146.802 1066.74 Q143.33 1069.81 137.01 1069.81 Q134.834 1069.81 132.566 1069.44 Q130.32 1069.07 127.913 1068.33 L127.913 1063.63 Q129.996 1064.77 132.219 1065.32 Q134.441 1065.88 136.918 1065.88 Q140.922 1065.88 143.26 1063.77 Q145.598 1061.67 145.598 1058.05 Q145.598 1054.44 143.26 1052.34 Q140.922 1050.23 136.918 1050.23 Q135.043 1050.23 133.168 1050.65 Q131.316 1051.06 129.371 1051.94 L129.371 1034.58 Z" fill="#000000" fill-rule="evenodd" fill-opacity="1" /><path clip-path="url(#clip160)" d="M62.9365 715.272 Q59.3254 715.272 57.4967 718.837 Q55.6912 722.379 55.6912 729.508 Q55.6912 736.615 57.4967 740.18 Q59.3254 743.721 62.9365 743.721 Q66.5707 743.721 68.3763 740.18 Q70.205 736.615 70.205 729.508 Q70.205 722.379 68.3763 718.837 Q66.5707 715.272 62.9365 715.272 M62.9365 711.569 Q68.7467 711.569 71.8022 716.175 Q74.8809 720.758 74.8809 729.508 Q74.8809 738.235 71.8022 742.842 Q68.7467 747.425 62.9365 747.425 Q57.1264 747.425 54.0477 742.842 Q50.9921 738.235 50.9921 729.508 Q50.9921 720.758 54.0477 716.175 Q57.1264 711.569 62.9365 711.569 Z" fill="#000000" fill-rule="evenodd" fill-opacity="1" /><path clip-path="url(#clip160)" d="M83.0984 740.874 L87.9827 740.874 L87.9827 746.754 L83.0984 746.754 L83.0984 740.874 Z" fill="#000000" fill-rule="evenodd" fill-opacity="1" /><path clip-path="url(#clip160)" d="M98.2141 712.194 L116.57 712.194 L116.57 716.129 L102.496 716.129 L102.496 724.601 Q103.515 724.254 104.534 724.092 Q105.552 723.907 106.571 723.907 Q112.358 723.907 115.737 727.078 Q119.117 730.249 119.117 735.666 Q119.117 741.244 115.645 744.346 Q112.172 747.425 105.853 747.425 Q103.677 747.425 101.409 747.055 Q99.1632 746.684 96.7558 745.943 L96.7558 741.244 Q98.8391 742.379 101.061 742.934 Q103.284 743.49 105.76 743.49 Q109.765 743.49 112.103 741.383 Q114.441 739.277 114.441 735.666 Q114.441 732.055 112.103 729.948 Q109.765 727.842 105.76 727.842 Q103.885 727.842 102.01 728.258 Q100.159 728.675 98.2141 729.555 L98.2141 712.194 Z" fill="#000000" fill-rule="evenodd" fill-opacity="1" /><path clip-path="url(#clip160)" d="M138.33 715.272 Q134.719 715.272 132.89 718.837 Q131.084 722.379 131.084 729.508 Q131.084 736.615 132.89 740.18 Q134.719 743.721 138.33 743.721 Q141.964 743.721 143.769 740.18 Q145.598 736.615 145.598 729.508 Q145.598 722.379 143.769 718.837 Q141.964 715.272 138.33 715.272 M138.33 711.569 Q144.14 711.569 147.195 716.175 Q150.274 720.758 150.274 729.508 Q150.274 738.235 147.195 742.842 Q144.14 747.425 138.33 747.425 Q132.519 747.425 129.441 742.842 Q126.385 738.235 126.385 729.508 Q126.385 720.758 129.441 716.175 Q132.519 711.569 138.33 711.569 Z" fill="#000000" fill-rule="evenodd" fill-opacity="1" /><path clip-path="url(#clip160)" d="M63.9319 392.883 Q60.3208 392.883 58.4921 396.448 Q56.6865 399.99 56.6865 407.119 Q56.6865 414.226 58.4921 417.79 Q60.3208 421.332 63.9319 421.332 Q67.5661 421.332 69.3717 417.79 Q71.2004 414.226 71.2004 407.119 Q71.2004 399.99 69.3717 396.448 Q67.5661 392.883 63.9319 392.883 M63.9319 389.179 Q69.742 389.179 72.7976 393.786 Q75.8763 398.369 75.8763 407.119 Q75.8763 415.846 72.7976 420.452 Q69.742 425.036 63.9319 425.036 Q58.1217 425.036 55.043 420.452 Q51.9875 415.846 51.9875 407.119 Q51.9875 398.369 55.043 393.786 Q58.1217 389.179 63.9319 389.179 Z" fill="#000000" fill-rule="evenodd" fill-opacity="1" /><path clip-path="url(#clip160)" d="M84.0938 418.485 L88.978 418.485 L88.978 424.364 L84.0938 424.364 L84.0938 418.485 Z" fill="#000000" fill-rule="evenodd" fill-opacity="1" /><path clip-path="url(#clip160)" d="M97.9826 389.804 L120.205 389.804 L120.205 391.795 L107.658 424.364 L102.774 424.364 L114.58 393.74 L97.9826 393.74 L97.9826 389.804 Z" fill="#000000" fill-rule="evenodd" fill-opacity="1" /><path clip-path="url(#clip160)" d="M129.371 389.804 L147.728 389.804 L147.728 393.74 L133.654 393.74 L133.654 402.212 Q134.672 401.865 135.691 401.703 Q136.709 401.517 137.728 401.517 Q143.515 401.517 146.894 404.689 Q150.274 407.86 150.274 413.277 Q150.274 418.855 146.802 421.957 Q143.33 425.036 137.01 425.036 Q134.834 425.036 132.566 424.665 Q130.32 424.295 127.913 423.554 L127.913 418.855 Q129.996 419.989 132.219 420.545 Q134.441 421.101 136.918 421.101 Q140.922 421.101 143.26 418.994 Q145.598 416.888 145.598 413.277 Q145.598 409.665 143.26 407.559 Q140.922 405.453 136.918 405.453 Q135.043 405.453 133.168 405.869 Q131.316 406.286 129.371 407.165 L129.371 389.804 Z" fill="#000000" fill-rule="evenodd" fill-opacity="1" /><path clip-path="url(#clip160)" d="M53.7467 98.0401 L61.3856 98.0401 L61.3856 71.6745 L53.0754 73.3412 L53.0754 69.082 L61.3393 67.4153 L66.0152 67.4153 L66.0152 98.0401 L73.654 98.0401 L73.654 101.975 L53.7467 101.975 L53.7467 98.0401 Z" fill="#000000" fill-rule="evenodd" fill-opacity="1" /><path clip-path="url(#clip160)" d="M83.0984 96.0957 L87.9827 96.0957 L87.9827 101.975 L83.0984 101.975 L83.0984 96.0957 Z" fill="#000000" fill-rule="evenodd" fill-opacity="1" /><path clip-path="url(#clip160)" d="M108.168 70.494 Q104.557 70.494 102.728 74.0588 Q100.922 77.6004 100.922 84.73 Q100.922 91.8365 102.728 95.4013 Q104.557 98.9429 108.168 98.9429 Q111.802 98.9429 113.608 95.4013 Q115.436 91.8365 115.436 84.73 Q115.436 77.6004 113.608 74.0588 Q111.802 70.494 108.168 70.494 M108.168 66.7903 Q113.978 66.7903 117.033 71.3968 Q120.112 75.9801 120.112 84.73 Q120.112 93.4568 117.033 98.0633 Q113.978 102.647 108.168 102.647 Q102.358 102.647 99.2789 98.0633 Q96.2234 93.4568 96.2234 84.73 Q96.2234 75.9801 99.2789 71.3968 Q102.358 66.7903 108.168 66.7903 Z" fill="#000000" fill-rule="evenodd" fill-opacity="1" /><path clip-path="url(#clip160)" d="M138.33 70.494 Q134.719 70.494 132.89 74.0588 Q131.084 77.6004 131.084 84.73 Q131.084 91.8365 132.89 95.4013 Q134.719 98.9429 138.33 98.9429 Q141.964 98.9429 143.769 95.4013 Q145.598 91.8365 145.598 84.73 Q145.598 77.6004 143.769 74.0588 Q141.964 70.494 138.33 70.494 M138.33 66.7903 Q144.14 66.7903 147.195 71.3968 Q150.274 75.9801 150.274 84.73 Q150.274 93.4568 147.195 98.0633 Q144.14 102.647 138.33 102.647 Q132.519 102.647 129.441 98.0633 Q126.385 93.4568 126.385 84.73 Q126.385 75.9801 129.441 71.3968 Q132.519 66.7903 138.33 66.7903 Z" fill="#000000" fill-rule="evenodd" fill-opacity="1" /><polyline clip-path="url(#clip162)" style="stroke:#009af9; stroke-linecap:butt; stroke-linejoin:round; stroke-width:4; stroke-opacity:1; fill:none" points="
  247.59,1324.65 268.234,1356.89 288.879,1383.66 309.524,1405.26 330.169,1421.99 350.814,1434.12 371.459,1441.94 392.104,1445.71 412.749,1445.72 433.394,1442.2 
  454.039,1435.43 474.684,1425.65 495.329,1413.1 515.974,1398.01 536.619,1380.61 557.264,1361.13 577.909,1339.79 598.554,1316.79 619.199,1292.34 639.844,1266.63 
  660.489,1239.87 681.134,1212.23 701.779,1183.89 722.424,1155.04 743.069,1125.83 763.713,1096.43 784.358,1066.98 805.003,1037.65 825.648,1008.58 846.293,979.887 
  866.938,951.717 887.583,924.191 908.228,897.426 928.873,871.533 949.518,846.618 970.163,822.78 990.808,800.113 1011.45,778.701 1032.1,758.627 1052.74,739.965 
  1073.39,722.782 1094.03,707.141 1114.68,693.098 1135.32,680.701 1155.97,669.995 1176.61,661.016 1197.26,653.796 1217.9,648.36 1238.55,644.725 1259.19,642.904 
  1279.84,642.904 1300.48,644.725 1321.13,648.36 1341.77,653.796 1362.42,661.016 1383.06,669.995 1403.71,680.701 1424.35,693.098 1445,707.141 1465.64,722.782 
  1486.29,739.965 1506.93,758.627 1527.58,778.701 1548.22,800.113 1568.87,822.78 1589.51,846.618 1610.16,871.533 1630.8,897.426 1651.45,924.191 1672.09,951.717 
  1692.74,979.887 1713.38,1008.58 1734.03,1037.65 1754.67,1066.98 1775.32,1096.43 1795.96,1125.83 1816.61,1155.04 1837.25,1183.89 1857.9,1212.23 1878.54,1239.87 
  1899.19,1266.63 1919.83,1292.34 1940.48,1316.79 1961.12,1339.79 1981.77,1361.13 2002.41,1380.61 2023.06,1398.01 2043.7,1413.1 2064.35,1425.65 2084.99,1435.43 
  2105.64,1442.2 2126.28,1445.72 2146.93,1445.71 2167.57,1441.94 2188.22,1434.12 2208.86,1421.99 2229.51,1405.26 2250.15,1383.66 2270.8,1356.89 2291.44,1324.65 
  
  "/>
<polyline clip-path="url(#clip162)" style="stroke:#e26f46; stroke-linecap:butt; stroke-linejoin:round; stroke-width:12; stroke-opacity:1; fill:none" points="
  247.59,1324.65 268.234,1322.67 288.879,1320.57 309.524,1318.33 330.169,1315.96 350.814,1313.44 371.459,1310.75 392.104,1307.88 412.749,1304.82 433.394,1301.54 
  454.039,1298.03 474.684,1294.27 495.329,1290.23 515.974,1285.88 536.619,1281.2 557.264,1276.14 577.909,1270.68 598.554,1264.75 619.199,1258.33 639.844,1251.34 
  660.489,1243.72 681.134,1235.4 701.779,1226.3 722.424,1216.32 743.069,1205.34 763.713,1193.25 784.358,1179.88 805.003,1165.09 825.648,1148.66 846.293,1130.38 
  866.938,1109.98 887.583,1087.17 908.228,1061.61 928.873,1032.9 949.518,1000.61 970.163,964.243 990.808,923.28 1011.45,877.165 1032.1,825.353 1052.74,767.369 
  1073.39,702.896 1094.03,631.92 1114.68,554.925 1135.32,473.144 1155.97,388.836 1176.61,305.51 1197.26,227.966 1217.9,161.999 1238.55,113.635 1259.19,87.9763 
  1279.84,87.9763 1300.48,113.635 1321.13,161.999 1341.77,227.966 1362.42,305.51 1383.06,388.836 1403.71,473.144 1424.35,554.925 1445,631.92 1465.64,702.896 
  1486.29,767.369 1506.93,825.353 1527.58,877.165 1548.22,923.28 1568.87,964.243 1589.51,1000.61 1610.16,1032.9 1630.8,1061.61 1651.45,1087.17 1672.09,1109.98 
  1692.74,1130.38 1713.38,1148.66 1734.03,1165.09 1754.67,1179.88 1775.32,1193.25 1795.96,1205.34 1816.61,1216.32 1837.25,1226.3 1857.9,1235.4 1878.54,1243.72 
  1899.19,1251.34 1919.83,1258.33 1940.48,1264.75 1961.12,1270.68 1981.77,1276.14 2002.41,1281.2 2023.06,1285.88 2043.7,1290.23 2064.35,1294.27 2084.99,1298.03 
  2105.64,1301.54 2126.28,1304.82 2146.93,1307.88 2167.57,1310.75 2188.22,1313.44 2208.86,1315.96 2229.51,1318.33 2250.15,1320.57 2270.8,1322.67 2291.44,1324.65 
  
  "/>
<path clip-path="url(#clip160)" d="
M1920.71 250.738 L2280.54 250.738 L2280.54 95.2176 L1920.71 95.2176  Z
  " fill="#ffffff" fill-rule="evenodd" fill-opacity="1"/>
<polyline clip-path="url(#clip160)" style="stroke:#000000; stroke-linecap:butt; stroke-linejoin:round; stroke-width:4; stroke-opacity:1; fill:none" points="
  1920.71,250.738 2280.54,250.738 2280.54,95.2176 1920.71,95.2176 1920.71,250.738 
  "/>
<polyline clip-path="url(#clip160)" style="stroke:#009af9; stroke-linecap:butt; stroke-linejoin:round; stroke-width:4; stroke-opacity:1; fill:none" points="
  1944.78,147.058 2089.21,147.058 
  "/>
<path clip-path="url(#clip160)" d="M2147.53 139.241 Q2147.53 141.864 2145.58 144.276 Q2143.66 146.689 2140.53 148.165 Q2137.41 149.617 2134.06 149.617 L2125.91 149.617 L2122.93 161.609 Q2122.91 161.679 2122.84 161.984 Q2122.77 162.265 2122.77 162.429 Q2122.77 163.014 2123.5 163.155 Q2124.25 163.296 2125.91 163.296 Q2126.99 163.296 2127.15 163.483 Q2127.24 163.6 2127.24 163.811 Q2127.24 164.139 2127.15 164.373 Q2127.06 164.584 2126.87 164.654 Q2126.71 164.724 2126.59 164.748 Q2126.47 164.771 2126.28 164.771 Q2125.79 164.771 2124.74 164.724 Q2123.71 164.677 2123.17 164.677 L2120.1 164.631 L2114.01 164.771 Q2113.28 164.771 2113.28 164.186 Q2113.28 163.741 2113.47 163.553 Q2113.66 163.342 2113.87 163.319 Q2114.08 163.296 2114.62 163.296 Q2115.79 163.296 2116.49 163.225 Q2117.2 163.155 2117.64 163.061 Q2118.11 162.944 2118.34 162.616 Q2118.6 162.288 2118.72 162.007 Q2118.84 161.703 2119 161.024 L2125.42 135.259 Q2125.61 134.486 2125.61 134.369 Q2125.61 133.971 2125.37 133.83 Q2125.16 133.666 2124.55 133.596 Q2123.38 133.502 2122.49 133.502 Q2121.9 133.502 2121.67 133.479 Q2121.46 133.455 2121.27 133.338 Q2121.11 133.198 2121.11 132.917 Q2121.11 132.472 2121.3 132.284 Q2121.51 132.073 2121.74 132.05 Q2121.97 132.003 2122.54 132.003 L2138.09 132.003 Q2142.56 132.003 2145.05 134.135 Q2147.53 136.266 2147.53 139.241 M2143.08 138.093 Q2143.08 133.502 2136.54 133.502 L2131.95 133.502 Q2130.43 133.502 2130.06 133.783 Q2129.68 134.041 2129.35 135.329 L2126.1 148.375 L2132.87 148.375 Q2137.41 148.375 2140.24 145.822 Q2141.53 144.651 2142.31 142.215 Q2143.08 139.779 2143.08 138.093 Z" fill="#000000" fill-rule="evenodd" fill-opacity="1" /><path clip-path="url(#clip160)" d="M2152.31 172.65 Q2152.31 171.649 2152.85 171.272 Q2153.39 170.879 2153.97 170.879 Q2154.74 170.879 2155.18 171.371 Q2155.64 171.846 2155.64 172.518 Q2155.64 173.191 2155.18 173.683 Q2154.74 174.158 2153.97 174.158 Q2153.59 174.158 2153.39 174.092 Q2153.84 175.634 2155.18 176.749 Q2156.54 177.863 2158.33 177.863 Q2160.57 177.863 2161.92 175.683 Q2162.72 174.273 2162.72 171.076 Q2162.72 168.256 2162.12 166.846 Q2161.18 164.698 2159.26 164.698 Q2156.54 164.698 2154.93 167.042 Q2154.74 167.337 2154.51 167.354 Q2154.18 167.354 2154.1 167.173 Q2154.03 166.977 2154.03 166.468 L2154.03 156.533 Q2154.03 155.729 2154.36 155.729 Q2154.49 155.729 2154.77 155.828 Q2156.89 156.762 2159.23 156.779 Q2161.64 156.779 2163.8 155.795 Q2163.97 155.696 2164.07 155.696 Q2164.39 155.696 2164.41 156.074 Q2164.41 156.205 2164.13 156.598 Q2163.87 156.975 2163.3 157.484 Q2162.72 157.975 2161.98 158.451 Q2161.25 158.926 2160.16 159.254 Q2159.1 159.566 2157.92 159.566 Q2156.51 159.566 2155.07 159.123 L2155.07 165.665 Q2156.8 163.96 2159.33 163.96 Q2162.02 163.96 2163.87 166.124 Q2165.72 168.288 2165.72 171.305 Q2165.72 174.47 2163.53 176.634 Q2161.35 178.798 2158.39 178.798 Q2155.71 178.798 2154 176.88 Q2152.31 174.961 2152.31 172.65 Z" fill="#000000" fill-rule="evenodd" fill-opacity="1" /><path clip-path="url(#clip160)" d="M2170.71 152.779 Q2170.71 144.675 2173.73 138.14 Q2175.02 135.399 2176.82 133.104 Q2178.63 130.809 2179.82 129.801 Q2181.02 128.794 2181.34 128.794 Q2181.81 128.794 2181.83 129.263 Q2181.83 129.497 2181.2 130.082 Q2173.47 137.952 2173.5 152.779 Q2173.5 167.652 2181.02 175.218 Q2181.83 176.037 2181.83 176.295 Q2181.83 176.763 2181.34 176.763 Q2181.02 176.763 2179.87 175.803 Q2178.72 174.843 2176.94 172.641 Q2175.16 170.439 2173.87 167.746 Q2170.71 161.211 2170.71 152.779 Z" fill="#000000" fill-rule="evenodd" fill-opacity="1" /><path clip-path="url(#clip160)" d="M2209.37 146.736 Q2209.37 148.047 2208.55 148.797 Q2207.73 149.523 2206.79 149.523 Q2205.9 149.523 2205.43 149.008 Q2204.96 148.493 2204.96 147.837 Q2204.96 146.947 2205.62 146.174 Q2206.28 145.401 2207.26 145.237 Q2206.3 144.628 2204.87 144.628 Q2203.93 144.628 2203.11 145.12 Q2202.32 145.612 2201.83 146.244 Q2201.36 146.876 2200.94 147.79 Q2200.54 148.68 2200.37 149.219 Q2200.23 149.734 2200.12 150.296 L2198.48 156.854 Q2197.68 159.97 2197.68 161.07 Q2197.68 162.429 2198.34 163.342 Q2198.99 164.232 2200.3 164.232 Q2200.82 164.232 2201.4 164.092 Q2201.99 163.928 2202.74 163.506 Q2203.51 163.061 2204.19 162.405 Q2204.89 161.726 2205.57 160.578 Q2206.25 159.431 2206.7 157.955 Q2206.84 157.44 2207.31 157.44 Q2207.89 157.44 2207.89 157.908 Q2207.89 158.307 2207.56 159.15 Q2207.26 159.97 2206.58 161.047 Q2205.92 162.101 2205.06 163.061 Q2204.19 163.998 2202.9 164.654 Q2201.61 165.31 2200.21 165.31 Q2198.2 165.31 2196.86 164.232 Q2195.53 163.155 2195.03 161.656 Q2194.92 161.867 2194.75 162.148 Q2194.59 162.429 2194.1 163.061 Q2193.63 163.67 2193.09 164.139 Q2192.55 164.584 2191.71 164.935 Q2190.89 165.31 2190 165.31 Q2188.87 165.31 2187.87 164.982 Q2186.88 164.654 2186.18 163.904 Q2185.48 163.155 2185.48 162.124 Q2185.48 160.977 2186.25 160.18 Q2187.05 159.361 2188.12 159.361 Q2188.8 159.361 2189.34 159.759 Q2189.9 160.157 2189.9 161.024 Q2189.9 161.984 2189.25 162.71 Q2188.59 163.436 2187.66 163.623 Q2188.62 164.232 2190.04 164.232 Q2191.59 164.232 2192.81 162.874 Q2194.03 161.515 2194.61 159.243 Q2196.06 153.786 2196.63 151.35 Q2197.19 148.891 2197.19 147.837 Q2197.19 146.853 2196.93 146.174 Q2196.67 145.494 2196.23 145.19 Q2195.81 144.862 2195.41 144.745 Q2195.03 144.628 2194.61 144.628 Q2193.91 144.628 2193.11 144.909 Q2192.34 145.19 2191.4 145.846 Q2190.49 146.478 2189.62 147.79 Q2188.76 149.102 2188.17 150.905 Q2188.05 151.444 2187.54 151.444 Q2186.98 151.42 2186.98 150.952 Q2186.98 150.554 2187.28 149.734 Q2187.61 148.891 2188.26 147.837 Q2188.94 146.783 2189.81 145.846 Q2190.7 144.885 2191.99 144.23 Q2193.3 143.574 2194.71 143.574 Q2195.34 143.574 2195.95 143.714 Q2196.58 143.831 2197.33 144.183 Q2198.1 144.534 2198.78 145.307 Q2199.46 146.08 2199.88 147.204 Q2200.16 146.666 2200.54 146.15 Q2200.94 145.635 2201.54 145.003 Q2202.18 144.347 2203.04 143.972 Q2203.93 143.574 2204.92 143.574 Q2205.88 143.574 2206.81 143.831 Q2207.75 144.066 2208.55 144.839 Q2209.37 145.588 2209.37 146.736 Z" fill="#000000" fill-rule="evenodd" fill-opacity="1" /><path clip-path="url(#clip160)" d="M2213.98 176.295 Q2213.98 176.061 2214.59 175.475 Q2222.32 167.605 2222.32 152.779 Q2222.32 137.906 2214.89 130.387 Q2213.98 129.52 2213.98 129.263 Q2213.98 128.794 2214.45 128.794 Q2214.78 128.794 2215.92 129.755 Q2217.1 130.715 2218.85 132.917 Q2220.63 135.118 2221.94 137.812 Q2225.11 144.347 2225.11 152.779 Q2225.11 160.883 2222.08 167.418 Q2220.8 170.158 2218.99 172.454 Q2217.19 174.749 2215.99 175.756 Q2214.8 176.763 2214.45 176.763 Q2213.98 176.763 2213.98 176.295 Z" fill="#000000" fill-rule="evenodd" fill-opacity="1" /><polyline clip-path="url(#clip160)" style="stroke:#e26f46; stroke-linecap:butt; stroke-linejoin:round; stroke-width:4; stroke-opacity:1; fill:none" points="
  1944.78,198.898 2089.21,198.898 
  "/>
<path clip-path="url(#clip160)" d="M2135.3 198.736 Q2135.3 198.759 2135.16 199.602 L2129.82 220.893 Q2129.54 222.018 2128.74 223.142 Q2127.97 224.29 2126.73 225.273 Q2125.51 226.281 2123.64 226.89 Q2121.79 227.522 2119.66 227.522 Q2116.26 227.522 2114.76 226.796 Q2113.28 226.093 2113.28 224.594 Q2113.28 223.283 2114.1 222.533 Q2114.92 221.807 2115.86 221.807 Q2116.75 221.807 2117.22 222.322 Q2117.69 222.837 2117.69 223.493 Q2117.69 224.219 2117.2 224.946 Q2116.7 225.695 2115.72 225.976 Q2117.29 226.468 2119.56 226.468 Q2124.36 226.468 2126.42 221.385 Q2126.47 221.315 2126.47 221.292 L2128.06 214.944 L2127.99 214.897 Q2127.6 215.366 2126.96 215.904 Q2126.35 216.42 2125.04 217.052 Q2123.73 217.685 2122.44 217.685 Q2119.75 217.685 2117.9 215.623 Q2116.07 213.539 2116.07 210.096 Q2116.07 207.589 2117.08 205.083 Q2118.11 202.554 2119.7 200.703 Q2121.32 198.829 2123.38 197.658 Q2125.46 196.487 2127.48 196.487 Q2128.88 196.487 2130.08 197.33 Q2131.27 198.15 2131.93 199.509 Q2132.05 198.384 2132.68 197.916 Q2133.33 197.448 2133.9 197.448 Q2134.53 197.448 2134.9 197.799 Q2135.3 198.127 2135.3 198.736 M2131.37 201.664 Q2131.37 201.523 2131.27 201.148 Q2131.18 200.75 2130.9 200.118 Q2130.64 199.485 2130.24 198.923 Q2129.84 198.361 2129.12 197.963 Q2128.42 197.541 2127.53 197.541 Q2126.07 197.541 2124.62 198.759 Q2123.17 199.954 2122.16 201.804 Q2121.23 203.584 2120.34 207.027 Q2119.47 210.47 2119.47 212.227 Q2119.47 213.96 2120.22 215.295 Q2120.97 216.631 2122.58 216.631 Q2124.46 216.631 2126.47 214.897 Q2128.56 213.094 2128.91 211.548 L2131.23 202.39 Q2131.37 201.828 2131.37 201.664 Z" fill="#000000" fill-rule="evenodd" fill-opacity="1" /><path clip-path="url(#clip160)" d="M2141.87 205.692 Q2141.87 197.588 2144.9 191.053 Q2146.18 188.313 2147.99 186.017 Q2149.79 183.722 2150.98 182.715 Q2152.18 181.708 2152.51 181.708 Q2152.98 181.708 2153 182.176 Q2153 182.41 2152.37 182.996 Q2144.64 190.866 2144.66 205.692 Q2144.66 220.566 2152.18 228.131 Q2153 228.951 2153 229.208 Q2153 229.677 2152.51 229.677 Q2152.18 229.677 2151.03 228.717 Q2149.88 227.756 2148.1 225.554 Q2146.32 223.353 2145.04 220.659 Q2141.87 214.124 2141.87 205.692 Z" fill="#000000" fill-rule="evenodd" fill-opacity="1" /><path clip-path="url(#clip160)" d="M2180.53 199.649 Q2180.53 200.961 2179.71 201.71 Q2178.89 202.437 2177.96 202.437 Q2177.07 202.437 2176.6 201.921 Q2176.13 201.406 2176.13 200.75 Q2176.13 199.86 2176.78 199.087 Q2177.44 198.314 2178.42 198.15 Q2177.46 197.541 2176.03 197.541 Q2175.1 197.541 2174.28 198.033 Q2173.48 198.525 2172.99 199.157 Q2172.52 199.79 2172.1 200.703 Q2171.7 201.593 2171.54 202.132 Q2171.4 202.647 2171.28 203.209 L2169.64 209.768 Q2168.84 212.883 2168.84 213.984 Q2168.84 215.342 2169.5 216.256 Q2170.16 217.146 2171.47 217.146 Q2171.98 217.146 2172.57 217.005 Q2173.15 216.841 2173.9 216.42 Q2174.68 215.975 2175.36 215.319 Q2176.06 214.64 2176.74 213.492 Q2177.42 212.344 2177.86 210.869 Q2178 210.353 2178.47 210.353 Q2179.06 210.353 2179.06 210.822 Q2179.06 211.22 2178.73 212.063 Q2178.42 212.883 2177.74 213.96 Q2177.09 215.014 2176.22 215.975 Q2175.36 216.912 2174.07 217.567 Q2172.78 218.223 2171.37 218.223 Q2169.36 218.223 2168.02 217.146 Q2166.69 216.068 2166.2 214.569 Q2166.08 214.78 2165.92 215.061 Q2165.75 215.342 2165.26 215.975 Q2164.79 216.584 2164.25 217.052 Q2163.71 217.497 2162.87 217.849 Q2162.05 218.223 2161.16 218.223 Q2160.04 218.223 2159.03 217.895 Q2158.05 217.567 2157.34 216.818 Q2156.64 216.068 2156.64 215.038 Q2156.64 213.89 2157.41 213.094 Q2158.21 212.274 2159.29 212.274 Q2159.97 212.274 2160.51 212.672 Q2161.07 213.07 2161.07 213.937 Q2161.07 214.897 2160.41 215.623 Q2159.76 216.349 2158.82 216.537 Q2159.78 217.146 2161.21 217.146 Q2162.75 217.146 2163.97 215.787 Q2165.19 214.429 2165.78 212.157 Q2167.23 206.699 2167.79 204.263 Q2168.35 201.804 2168.35 200.75 Q2168.35 199.766 2168.09 199.087 Q2167.84 198.408 2167.39 198.103 Q2166.97 197.775 2166.57 197.658 Q2166.2 197.541 2165.78 197.541 Q2165.07 197.541 2164.28 197.822 Q2163.5 198.103 2162.57 198.759 Q2161.65 199.392 2160.79 200.703 Q2159.92 202.015 2159.33 203.818 Q2159.22 204.357 2158.7 204.357 Q2158.14 204.334 2158.14 203.865 Q2158.14 203.467 2158.44 202.647 Q2158.77 201.804 2159.43 200.75 Q2160.11 199.696 2160.97 198.759 Q2161.86 197.799 2163.15 197.143 Q2164.46 196.487 2165.87 196.487 Q2166.5 196.487 2167.11 196.628 Q2167.74 196.745 2168.49 197.096 Q2169.27 197.448 2169.95 198.221 Q2170.62 198.993 2171.05 200.118 Q2171.33 199.579 2171.7 199.064 Q2172.1 198.548 2172.71 197.916 Q2173.34 197.26 2174.21 196.885 Q2175.1 196.487 2176.08 196.487 Q2177.04 196.487 2177.98 196.745 Q2178.92 196.979 2179.71 197.752 Q2180.53 198.502 2180.53 199.649 Z" fill="#000000" fill-rule="evenodd" fill-opacity="1" /><path clip-path="url(#clip160)" d="M2185.14 229.208 Q2185.14 228.974 2185.75 228.389 Q2193.48 220.519 2193.48 205.692 Q2193.48 190.819 2186.06 183.3 Q2185.14 182.434 2185.14 182.176 Q2185.14 181.708 2185.61 181.708 Q2185.94 181.708 2187.09 182.668 Q2188.26 183.628 2190.02 185.83 Q2191.8 188.032 2193.11 190.725 Q2196.27 197.26 2196.27 205.692 Q2196.27 213.796 2193.25 220.331 Q2191.96 223.072 2190.16 225.367 Q2188.35 227.663 2187.16 228.67 Q2185.96 229.677 2185.61 229.677 Q2185.14 229.677 2185.14 229.208 Z" fill="#000000" fill-rule="evenodd" fill-opacity="1" /></svg>
