<?xml version="1.0" encoding="utf-8"?>
<svg xmlns="http://www.w3.org/2000/svg" xmlns:xlink="http://www.w3.org/1999/xlink" width="600" height="400" viewBox="0 0 2400 1600">
<defs>
  <clipPath id="clip370">
    <rect x="0" y="0" width="2400" height="1600"/>
  </clipPath>
</defs>
<path clip-path="url(#clip370)" d="
M0 1600 L2400 1600 L2400 0 L0 0  Z
  " fill="#ffffff" fill-rule="evenodd" fill-opacity="1"/>
<defs>
  <clipPath id="clip371">
    <rect x="480" y="0" width="1681" height="1600"/>
  </clipPath>
</defs>
<path clip-path="url(#clip370)" d="
M147.478 1486.45 L2352.76 1486.45 L2352.76 47.2441 L147.478 47.2441  Z
  " fill="#ffffff" fill-rule="evenodd" fill-opacity="1"/>
<defs>
  <clipPath id="clip372">
    <rect x="147" y="47" width="2206" height="1440"/>
  </clipPath>
</defs>
<polyline clip-path="url(#clip372)" style="stroke:#000000; stroke-linecap:round; stroke-linejoin:round; stroke-width:2; stroke-opacity:0.1; fill:none" points="
  188.877,1486.45 188.877,47.2441 
  "/>
<polyline clip-path="url(#clip372)" style="stroke:#000000; stroke-linecap:round; stroke-linejoin:round; stroke-width:2; stroke-opacity:0.1; fill:none" points="
  714.243,1486.45 714.243,47.2441 
  "/>
<polyline clip-path="url(#clip372)" style="stroke:#000000; stroke-linecap:round; stroke-linejoin:round; stroke-width:2; stroke-opacity:0.1; fill:none" points="
  1239.61,1486.45 1239.61,47.2441 
  "/>
<polyline clip-path="url(#clip372)" style="stroke:#000000; stroke-linecap:round; stroke-linejoin:round; stroke-width:2; stroke-opacity:0.1; fill:none" points="
  1764.98,1486.45 1764.98,47.2441 
  "/>
<polyline clip-path="url(#clip372)" style="stroke:#000000; stroke-linecap:round; stroke-linejoin:round; stroke-width:2; stroke-opacity:0.1; fill:none" points="
  2290.34,1486.45 2290.34,47.2441 
  "/>
<polyline clip-path="url(#clip370)" style="stroke:#000000; stroke-linecap:round; stroke-linejoin:round; stroke-width:4; stroke-opacity:1; fill:none" points="
  147.478,1486.45 2352.76,1486.45 
  "/>
<polyline clip-path="url(#clip370)" style="stroke:#000000; stroke-linecap:round; stroke-linejoin:round; stroke-width:4; stroke-opacity:1; fill:none" points="
  188.877,1486.45 188.877,1467.55 
  "/>
<polyline clip-path="url(#clip370)" style="stroke:#000000; stroke-linecap:round; stroke-linejoin:round; stroke-width:4; stroke-opacity:1; fill:none" points="
  714.243,1486.45 714.243,1467.55 
  "/>
<polyline clip-path="url(#clip370)" style="stroke:#000000; stroke-linecap:round; stroke-linejoin:round; stroke-width:4; stroke-opacity:1; fill:none" points="
  1239.61,1486.45 1239.61,1467.55 
  "/>
<polyline clip-path="url(#clip370)" style="stroke:#000000; stroke-linecap:round; stroke-linejoin:round; stroke-width:4; stroke-opacity:1; fill:none" points="
  1764.98,1486.45 1764.98,1467.55 
  "/>
<polyline clip-path="url(#clip370)" style="stroke:#000000; stroke-linecap:round; stroke-linejoin:round; stroke-width:4; stroke-opacity:1; fill:none" points="
  2290.34,1486.45 2290.34,1467.55 
  "/>
<path clip-path="url(#clip370)" d="M188.877 1517.37 Q185.266 1517.37 183.437 1520.93 Q181.631 1524.47 181.631 1531.6 Q181.631 1538.71 183.437 1542.27 Q185.266 1545.82 188.877 1545.82 Q192.511 1545.82 194.317 1542.27 Q196.145 1538.71 196.145 1531.6 Q196.145 1524.47 194.317 1520.93 Q192.511 1517.37 188.877 1517.37 M188.877 1513.66 Q194.687 1513.66 197.742 1518.27 Q200.821 1522.85 200.821 1531.6 Q200.821 1540.33 197.742 1544.94 Q194.687 1549.52 188.877 1549.52 Q183.067 1549.52 179.988 1544.94 Q176.932 1540.33 176.932 1531.6 Q176.932 1522.85 179.988 1518.27 Q183.067 1513.66 188.877 1513.66 Z" fill="#000000" fill-rule="evenodd" fill-opacity="1" /><path clip-path="url(#clip370)" d="M693.514 1544.91 L709.833 1544.91 L709.833 1548.85 L687.889 1548.85 L687.889 1544.91 Q690.551 1542.16 695.134 1537.53 Q699.741 1532.88 700.921 1531.53 Q703.167 1529.01 704.046 1527.27 Q704.949 1525.51 704.949 1523.82 Q704.949 1521.07 703.005 1519.33 Q701.084 1517.6 697.982 1517.6 Q695.783 1517.6 693.329 1518.36 Q690.898 1519.13 688.121 1520.68 L688.121 1515.95 Q690.945 1514.82 693.398 1514.24 Q695.852 1513.66 697.889 1513.66 Q703.259 1513.66 706.454 1516.35 Q709.648 1519.03 709.648 1523.52 Q709.648 1525.65 708.838 1527.57 Q708.051 1529.47 705.945 1532.07 Q705.366 1532.74 702.264 1535.95 Q699.162 1539.15 693.514 1544.91 Z" fill="#000000" fill-rule="evenodd" fill-opacity="1" /><path clip-path="url(#clip370)" d="M719.695 1514.29 L738.051 1514.29 L738.051 1518.22 L723.977 1518.22 L723.977 1526.7 Q724.995 1526.35 726.014 1526.19 Q727.032 1526 728.051 1526 Q733.838 1526 737.218 1529.17 Q740.597 1532.34 740.597 1537.76 Q740.597 1543.34 737.125 1546.44 Q733.653 1549.52 727.333 1549.52 Q725.157 1549.52 722.889 1549.15 Q720.644 1548.78 718.236 1548.04 L718.236 1543.34 Q720.32 1544.47 722.542 1545.03 Q724.764 1545.58 727.241 1545.58 Q731.245 1545.58 733.583 1543.48 Q735.921 1541.37 735.921 1537.76 Q735.921 1534.15 733.583 1532.04 Q731.245 1529.94 727.241 1529.94 Q725.366 1529.94 723.491 1530.35 Q721.639 1530.77 719.695 1531.65 L719.695 1514.29 Z" fill="#000000" fill-rule="evenodd" fill-opacity="1" /><path clip-path="url(#clip370)" d="M1214.31 1514.29 L1232.67 1514.29 L1232.67 1518.22 L1218.59 1518.22 L1218.59 1526.7 Q1219.61 1526.35 1220.63 1526.19 Q1221.65 1526 1222.67 1526 Q1228.45 1526 1231.83 1529.17 Q1235.21 1532.34 1235.21 1537.76 Q1235.21 1543.34 1231.74 1546.44 Q1228.27 1549.52 1221.95 1549.52 Q1219.77 1549.52 1217.5 1549.15 Q1215.26 1548.78 1212.85 1548.04 L1212.85 1543.34 Q1214.93 1544.47 1217.16 1545.03 Q1219.38 1545.58 1221.86 1545.58 Q1225.86 1545.58 1228.2 1543.48 Q1230.54 1541.37 1230.54 1537.76 Q1230.54 1534.15 1228.2 1532.04 Q1225.86 1529.94 1221.86 1529.94 Q1219.98 1529.94 1218.11 1530.35 Q1216.25 1530.77 1214.31 1531.65 L1214.31 1514.29 Z" fill="#000000" fill-rule="evenodd" fill-opacity="1" /><path clip-path="url(#clip370)" d="M1254.42 1517.37 Q1250.81 1517.37 1248.98 1520.93 Q1247.18 1524.47 1247.18 1531.6 Q1247.18 1538.71 1248.98 1542.27 Q1250.81 1545.82 1254.42 1545.82 Q1258.06 1545.82 1259.86 1542.27 Q1261.69 1538.71 1261.69 1531.6 Q1261.69 1524.47 1259.86 1520.93 Q1258.06 1517.37 1254.42 1517.37 M1254.42 1513.66 Q1260.23 1513.66 1263.29 1518.27 Q1266.37 1522.85 1266.37 1531.6 Q1266.37 1540.33 1263.29 1544.94 Q1260.23 1549.52 1254.42 1549.52 Q1248.61 1549.52 1245.54 1544.94 Q1242.48 1540.33 1242.48 1531.6 Q1242.48 1522.85 1245.54 1518.27 Q1248.61 1513.66 1254.42 1513.66 Z" fill="#000000" fill-rule="evenodd" fill-opacity="1" /><path clip-path="url(#clip370)" d="M1738.83 1514.29 L1761.05 1514.29 L1761.05 1516.28 L1748.51 1548.85 L1743.62 1548.85 L1755.43 1518.22 L1738.83 1518.22 L1738.83 1514.29 Z" fill="#000000" fill-rule="evenodd" fill-opacity="1" /><path clip-path="url(#clip370)" d="M1770.22 1514.29 L1788.58 1514.29 L1788.58 1518.22 L1774.5 1518.22 L1774.5 1526.7 Q1775.52 1526.35 1776.54 1526.19 Q1777.56 1526 1778.58 1526 Q1784.36 1526 1787.74 1529.17 Q1791.12 1532.34 1791.12 1537.76 Q1791.12 1543.34 1787.65 1546.44 Q1784.18 1549.52 1777.86 1549.52 Q1775.68 1549.52 1773.41 1549.15 Q1771.17 1548.78 1768.76 1548.04 L1768.76 1543.34 Q1770.84 1544.47 1773.07 1545.03 Q1775.29 1545.58 1777.77 1545.58 Q1781.77 1545.58 1784.11 1543.48 Q1786.45 1541.37 1786.45 1537.76 Q1786.45 1534.15 1784.11 1532.04 Q1781.77 1529.94 1777.77 1529.94 Q1775.89 1529.94 1774.02 1530.35 Q1772.16 1530.77 1770.22 1531.65 L1770.22 1514.29 Z" fill="#000000" fill-rule="evenodd" fill-opacity="1" /><path clip-path="url(#clip370)" d="M2249.95 1544.91 L2257.59 1544.91 L2257.59 1518.55 L2249.28 1520.21 L2249.28 1515.95 L2257.54 1514.29 L2262.22 1514.29 L2262.22 1544.91 L2269.86 1544.91 L2269.86 1548.85 L2249.95 1548.85 L2249.95 1544.91 Z" fill="#000000" fill-rule="evenodd" fill-opacity="1" /><path clip-path="url(#clip370)" d="M2289.3 1517.37 Q2285.69 1517.37 2283.86 1520.93 Q2282.06 1524.47 2282.06 1531.6 Q2282.06 1538.71 2283.86 1542.27 Q2285.69 1545.82 2289.3 1545.82 Q2292.93 1545.82 2294.74 1542.27 Q2296.57 1538.71 2296.57 1531.6 Q2296.57 1524.47 2294.74 1520.93 Q2292.93 1517.37 2289.3 1517.37 M2289.3 1513.66 Q2295.11 1513.66 2298.17 1518.27 Q2301.25 1522.85 2301.25 1531.6 Q2301.25 1540.33 2298.17 1544.94 Q2295.11 1549.52 2289.3 1549.52 Q2283.49 1549.52 2280.41 1544.94 Q2277.36 1540.33 2277.36 1531.6 Q2277.36 1522.85 2280.41 1518.27 Q2283.49 1513.66 2289.3 1513.66 Z" fill="#000000" fill-rule="evenodd" fill-opacity="1" /><path clip-path="url(#clip370)" d="M2319.46 1517.37 Q2315.85 1517.37 2314.02 1520.93 Q2312.22 1524.47 2312.22 1531.6 Q2312.22 1538.71 2314.02 1542.27 Q2315.85 1545.82 2319.46 1545.82 Q2323.1 1545.82 2324.9 1542.27 Q2326.73 1538.71 2326.73 1531.6 Q2326.73 1524.47 2324.9 1520.93 Q2323.1 1517.37 2319.46 1517.37 M2319.46 1513.66 Q2325.27 1513.66 2328.33 1518.27 Q2331.41 1522.85 2331.41 1531.6 Q2331.41 1540.33 2328.33 1544.94 Q2325.27 1549.52 2319.46 1549.52 Q2313.65 1549.52 2310.57 1544.94 Q2307.52 1540.33 2307.52 1531.6 Q2307.52 1522.85 2310.57 1518.27 Q2313.65 1513.66 2319.46 1513.66 Z" fill="#000000" fill-rule="evenodd" fill-opacity="1" /><polyline clip-path="url(#clip372)" style="stroke:#000000; stroke-linecap:round; stroke-linejoin:round; stroke-width:2; stroke-opacity:0.1; fill:none" points="
  147.478,1321.78 2352.76,1321.78 
  "/>
<polyline clip-path="url(#clip372)" style="stroke:#000000; stroke-linecap:round; stroke-linejoin:round; stroke-width:2; stroke-opacity:0.1; fill:none" points="
  147.478,1046.37 2352.76,1046.37 
  "/>
<polyline clip-path="url(#clip372)" style="stroke:#000000; stroke-linecap:round; stroke-linejoin:round; stroke-width:2; stroke-opacity:0.1; fill:none" points="
  147.478,770.954 2352.76,770.954 
  "/>
<polyline clip-path="url(#clip372)" style="stroke:#000000; stroke-linecap:round; stroke-linejoin:round; stroke-width:2; stroke-opacity:0.1; fill:none" points="
  147.478,495.541 2352.76,495.541 
  "/>
<polyline clip-path="url(#clip372)" style="stroke:#000000; stroke-linecap:round; stroke-linejoin:round; stroke-width:2; stroke-opacity:0.1; fill:none" points="
  147.478,220.128 2352.76,220.128 
  "/>
<polyline clip-path="url(#clip370)" style="stroke:#000000; stroke-linecap:round; stroke-linejoin:round; stroke-width:4; stroke-opacity:1; fill:none" points="
  147.478,1486.45 147.478,47.2441 
  "/>
<polyline clip-path="url(#clip370)" style="stroke:#000000; stroke-linecap:round; stroke-linejoin:round; stroke-width:4; stroke-opacity:1; fill:none" points="
  147.478,1321.78 166.376,1321.78 
  "/>
<polyline clip-path="url(#clip370)" style="stroke:#000000; stroke-linecap:round; stroke-linejoin:round; stroke-width:4; stroke-opacity:1; fill:none" points="
  147.478,1046.37 166.376,1046.37 
  "/>
<polyline clip-path="url(#clip370)" style="stroke:#000000; stroke-linecap:round; stroke-linejoin:round; stroke-width:4; stroke-opacity:1; fill:none" points="
  147.478,770.954 166.376,770.954 
  "/>
<polyline clip-path="url(#clip370)" style="stroke:#000000; stroke-linecap:round; stroke-linejoin:round; stroke-width:4; stroke-opacity:1; fill:none" points="
  147.478,495.541 166.376,495.541 
  "/>
<polyline clip-path="url(#clip370)" style="stroke:#000000; stroke-linecap:round; stroke-linejoin:round; stroke-width:4; stroke-opacity:1; fill:none" points="
  147.478,220.128 166.376,220.128 
  "/>
<path clip-path="url(#clip370)" d="M51.3625 1322.23 L81.0383 1322.23 L81.0383 1326.17 L51.3625 1326.17 L51.3625 1322.23 Z" fill="#000000" fill-rule="evenodd" fill-opacity="1" /><path clip-path="url(#clip370)" d="M95.1586 1335.12 L111.478 1335.12 L111.478 1339.06 L89.5336 1339.06 L89.5336 1335.12 Q92.1956 1332.37 96.7789 1327.74 Q101.385 1323.09 102.566 1321.74 Q104.811 1319.22 105.691 1317.49 Q106.594 1315.73 106.594 1314.04 Q106.594 1311.28 104.649 1309.55 Q102.728 1307.81 99.6261 1307.81 Q97.4271 1307.81 94.9734 1308.57 Q92.5428 1309.34 89.7651 1310.89 L89.7651 1306.17 Q92.5891 1305.03 95.0428 1304.45 Q97.4965 1303.87 99.5335 1303.87 Q104.904 1303.87 108.098 1306.56 Q111.293 1309.24 111.293 1313.74 Q111.293 1315.87 110.483 1317.79 Q109.696 1319.68 107.589 1322.28 Q107.01 1322.95 103.909 1326.17 Q100.807 1329.36 95.1586 1335.12 Z" fill="#000000" fill-rule="evenodd" fill-opacity="1" /><path clip-path="url(#clip370)" d="M50.9921 1046.82 L80.6679 1046.82 L80.6679 1050.75 L50.9921 1050.75 L50.9921 1046.82 Z" fill="#000000" fill-rule="evenodd" fill-opacity="1" /><path clip-path="url(#clip370)" d="M91.5706 1059.71 L99.2095 1059.71 L99.2095 1033.35 L90.8993 1035.01 L90.8993 1030.75 L99.1632 1029.09 L103.839 1029.09 L103.839 1059.71 L111.478 1059.71 L111.478 1063.65 L91.5706 1063.65 L91.5706 1059.71 Z" fill="#000000" fill-rule="evenodd" fill-opacity="1" /><path clip-path="url(#clip370)" d="M99.5335 756.753 Q95.9224 756.753 94.0937 760.317 Q92.2882 763.859 92.2882 770.989 Q92.2882 778.095 94.0937 781.66 Q95.9224 785.202 99.5335 785.202 Q103.168 785.202 104.973 781.66 Q106.802 778.095 106.802 770.989 Q106.802 763.859 104.973 760.317 Q103.168 756.753 99.5335 756.753 M99.5335 753.049 Q105.344 753.049 108.399 757.655 Q111.478 762.239 111.478 770.989 Q111.478 779.715 108.399 784.322 Q105.344 788.905 99.5335 788.905 Q93.7234 788.905 90.6447 784.322 Q87.5892 779.715 87.5892 770.989 Q87.5892 762.239 90.6447 757.655 Q93.7234 753.049 99.5335 753.049 Z" fill="#000000" fill-rule="evenodd" fill-opacity="1" /><path clip-path="url(#clip370)" d="M91.5706 508.886 L99.2095 508.886 L99.2095 482.52 L90.8993 484.187 L90.8993 479.928 L99.1632 478.261 L103.839 478.261 L103.839 508.886 L111.478 508.886 L111.478 512.821 L91.5706 512.821 L91.5706 508.886 Z" fill="#000000" fill-rule="evenodd" fill-opacity="1" /><path clip-path="url(#clip370)" d="M95.1586 233.473 L111.478 233.473 L111.478 237.408 L89.5336 237.408 L89.5336 233.473 Q92.1956 230.719 96.7789 226.089 Q101.385 221.436 102.566 220.094 Q104.811 217.57 105.691 215.834 Q106.594 214.075 106.594 212.385 Q106.594 209.631 104.649 207.895 Q102.728 206.158 99.6261 206.158 Q97.4271 206.158 94.9734 206.922 Q92.5428 207.686 89.7651 209.237 L89.7651 204.515 Q92.5891 203.381 95.0428 202.802 Q97.4965 202.223 99.5335 202.223 Q104.904 202.223 108.098 204.908 Q111.293 207.594 111.293 212.084 Q111.293 214.214 110.483 216.135 Q109.696 218.033 107.589 220.626 Q107.01 221.297 103.909 224.515 Q100.807 227.709 95.1586 233.473 Z" fill="#000000" fill-rule="evenodd" fill-opacity="1" /><polyline clip-path="url(#clip372)" style="stroke:#009af9; stroke-linecap:round; stroke-linejoin:round; stroke-width:4; stroke-opacity:1; fill:none" points="
  209.891,864.99 230.906,842.441 251.921,437.929 272.935,388.264 293.95,813.244 314.965,487.435 335.979,229.697 356.994,762.239 378.009,995.482 399.023,1225.81 
  420.038,623.359 441.053,636.723 462.067,910.618 483.082,585.217 504.097,1105.78 525.111,919.296 546.126,860.454 567.141,615.879 588.155,1148.23 609.17,489.005 
  630.185,393.303 651.199,1318.62 672.214,185.183 693.229,350.962 714.243,292.143 735.258,512.26 756.272,910.903 777.287,840.811 798.302,1090.1 819.316,1198.04 
  840.331,1046.57 861.346,852.677 882.36,665.15 903.375,1031.97 924.39,1224.35 945.404,827.45 966.419,673.082 987.434,1316.62 1008.45,859.495 1029.46,778.385 
  1050.48,921.882 1071.49,1218.88 1092.51,806.175 1113.52,377.998 1134.54,735.95 1155.55,586.707 1176.57,601.748 1197.58,588.786 1218.59,1069.24 1239.61,995.251 
  1260.62,1445.72 1281.64,748.439 1302.65,802.918 1323.67,383.138 1344.68,924.876 1365.7,984.847 1386.71,87.9763 1407.73,121.256 1428.74,640.139 1449.76,646.186 
  1470.77,458.279 1491.79,1163.72 1512.8,740.602 1533.81,584.092 1554.83,811.044 1575.84,907.634 1596.86,892.121 1617.87,1044.36 1638.89,846.828 1659.9,357.676 
  1680.92,426.747 1701.93,679.972 1722.95,909.547 1743.96,894.57 1764.98,779.199 1785.99,288.784 1807.01,579.806 1828.02,946.82 1849.03,901.497 1870.05,467.407 
  1891.06,1355.88 1912.08,1030.71 1933.09,599.217 1954.11,1053.97 1975.12,860.979 1996.14,1158.88 2017.15,986.609 2038.17,984.595 2059.18,376.772 2080.2,629.544 
  2101.21,855.763 2122.23,670.708 2143.24,810.072 2164.25,676.799 2185.27,947.039 2206.28,1139.95 2227.3,1057.46 2248.31,1217.11 2269.33,1029.09 2290.34,802.701 
  
  "/>
<path clip-path="url(#clip370)" d="
M2006.29 198.898 L2279.25 198.898 L2279.25 95.2176 L2006.29 95.2176  Z
  " fill="#ffffff" fill-rule="evenodd" fill-opacity="1"/>
<polyline clip-path="url(#clip370)" style="stroke:#000000; stroke-linecap:round; stroke-linejoin:round; stroke-width:4; stroke-opacity:1; fill:none" points="
  2006.29,198.898 2279.25,198.898 2279.25,95.2176 2006.29,95.2176 2006.29,198.898 
  "/>
<polyline clip-path="url(#clip370)" style="stroke:#009af9; stroke-linecap:round; stroke-linejoin:round; stroke-width:4; stroke-opacity:1; fill:none" points="
  2030.79,147.058 2177.81,147.058 
  "/>
<path clip-path="url(#clip370)" d="M2216.16 166.745 Q2214.35 171.375 2212.64 172.787 Q2210.92 174.199 2208.05 174.199 L2204.65 174.199 L2204.65 170.634 L2207.15 170.634 Q2208.91 170.634 2209.88 169.8 Q2210.85 168.967 2212.04 165.865 L2212.8 163.921 L2202.31 138.412 L2206.83 138.412 L2214.93 158.689 L2223.03 138.412 L2227.54 138.412 L2216.16 166.745 Z" fill="#000000" fill-rule="evenodd" fill-opacity="1" /><path clip-path="url(#clip370)" d="M2234.84 160.402 L2242.48 160.402 L2242.48 134.037 L2234.16 135.703 L2234.16 131.444 L2242.43 129.778 L2247.1 129.778 L2247.1 160.402 L2254.74 160.402 L2254.74 164.338 L2234.84 164.338 L2234.84 160.402 Z" fill="#000000" fill-rule="evenodd" fill-opacity="1" /></svg>
