<?xml version="1.0" encoding="utf-8"?>
<svg xmlns="http://www.w3.org/2000/svg" xmlns:xlink="http://www.w3.org/1999/xlink" width="600" height="400" viewBox="0 0 2400 1600">
<defs>
  <clipPath id="clip560">
    <rect x="0" y="0" width="2400" height="1600"/>
  </clipPath>
</defs>
<path clip-path="url(#clip560)" d="
M0 1600 L2400 1600 L2400 0 L0 0  Z
  " fill="#ffffff" fill-rule="evenodd" fill-opacity="1"/>
<defs>
  <clipPath id="clip561">
    <rect x="480" y="0" width="1681" height="1600"/>
  </clipPath>
</defs>
<path clip-path="url(#clip560)" d="
M112.177 1486.45 L2352.76 1486.45 L2352.76 47.2441 L112.177 47.2441  Z
  " fill="#ffffff" fill-rule="evenodd" fill-opacity="1"/>
<defs>
  <clipPath id="clip562">
    <rect x="112" y="47" width="2242" height="1440"/>
  </clipPath>
</defs>
<polyline clip-path="url(#clip562)" style="stroke:#000000; stroke-linecap:butt; stroke-linejoin:round; stroke-width:2; stroke-opacity:0.1; fill:none" points="
  410.451,1486.45 410.451,47.2441 
  "/>
<polyline clip-path="url(#clip562)" style="stroke:#000000; stroke-linecap:butt; stroke-linejoin:round; stroke-width:2; stroke-opacity:0.1; fill:none" points="
  880.174,1486.45 880.174,47.2441 
  "/>
<polyline clip-path="url(#clip562)" style="stroke:#000000; stroke-linecap:butt; stroke-linejoin:round; stroke-width:2; stroke-opacity:0.1; fill:none" points="
  1349.9,1486.45 1349.9,47.2441 
  "/>
<polyline clip-path="url(#clip562)" style="stroke:#000000; stroke-linecap:butt; stroke-linejoin:round; stroke-width:2; stroke-opacity:0.1; fill:none" points="
  1819.62,1486.45 1819.62,47.2441 
  "/>
<polyline clip-path="url(#clip562)" style="stroke:#000000; stroke-linecap:butt; stroke-linejoin:round; stroke-width:2; stroke-opacity:0.1; fill:none" points="
  2289.34,1486.45 2289.34,47.2441 
  "/>
<polyline clip-path="url(#clip560)" style="stroke:#000000; stroke-linecap:butt; stroke-linejoin:round; stroke-width:4; stroke-opacity:1; fill:none" points="
  112.177,1486.45 2352.76,1486.45 
  "/>
<polyline clip-path="url(#clip560)" style="stroke:#000000; stroke-linecap:butt; stroke-linejoin:round; stroke-width:4; stroke-opacity:1; fill:none" points="
  410.451,1486.45 410.451,1467.55 
  "/>
<polyline clip-path="url(#clip560)" style="stroke:#000000; stroke-linecap:butt; stroke-linejoin:round; stroke-width:4; stroke-opacity:1; fill:none" points="
  880.174,1486.45 880.174,1467.55 
  "/>
<polyline clip-path="url(#clip560)" style="stroke:#000000; stroke-linecap:butt; stroke-linejoin:round; stroke-width:4; stroke-opacity:1; fill:none" points="
  1349.9,1486.45 1349.9,1467.55 
  "/>
<polyline clip-path="url(#clip560)" style="stroke:#000000; stroke-linecap:butt; stroke-linejoin:round; stroke-width:4; stroke-opacity:1; fill:none" points="
  1819.62,1486.45 1819.62,1467.55 
  "/>
<polyline clip-path="url(#clip560)" style="stroke:#000000; stroke-linecap:butt; stroke-linejoin:round; stroke-width:4; stroke-opacity:1; fill:none" points="
  2289.34,1486.45 2289.34,1467.55 
  "/>
<path clip-path="url(#clip560)" d="M405.104 1544.91 L421.423 1544.91 L421.423 1548.85 L399.479 1548.85 L399.479 1544.91 Q402.141 1542.16 406.724 1537.53 Q411.331 1532.88 412.511 1531.53 Q414.757 1529.01 415.636 1527.27 Q416.539 1525.51 416.539 1523.82 Q416.539 1521.07 414.595 1519.33 Q412.673 1517.6 409.572 1517.6 Q407.373 1517.6 404.919 1518.36 Q402.488 1519.13 399.711 1520.68 L399.711 1515.95 Q402.535 1514.82 404.988 1514.24 Q407.442 1513.66 409.479 1513.66 Q414.849 1513.66 418.044 1516.35 Q421.238 1519.03 421.238 1523.52 Q421.238 1525.65 420.428 1527.57 Q419.641 1529.47 417.535 1532.07 Q416.956 1532.74 413.854 1535.95 Q410.752 1539.15 405.104 1544.91 Z" fill="#000000" fill-rule="evenodd" fill-opacity="1" /><path clip-path="url(#clip560)" d="M883.184 1518.36 L871.378 1536.81 L883.184 1536.81 L883.184 1518.36 M881.957 1514.29 L887.836 1514.29 L887.836 1536.81 L892.767 1536.81 L892.767 1540.7 L887.836 1540.7 L887.836 1548.85 L883.184 1548.85 L883.184 1540.7 L867.582 1540.7 L867.582 1536.19 L881.957 1514.29 Z" fill="#000000" fill-rule="evenodd" fill-opacity="1" /><path clip-path="url(#clip560)" d="M1350.3 1529.7 Q1347.15 1529.7 1345.3 1531.86 Q1343.47 1534.01 1343.47 1537.76 Q1343.47 1541.49 1345.3 1543.66 Q1347.15 1545.82 1350.3 1545.82 Q1353.45 1545.82 1355.28 1543.66 Q1357.13 1541.49 1357.13 1537.76 Q1357.13 1534.01 1355.28 1531.86 Q1353.45 1529.7 1350.3 1529.7 M1359.58 1515.05 L1359.58 1519.31 Q1357.83 1518.48 1356.02 1518.04 Q1354.24 1517.6 1352.48 1517.6 Q1347.85 1517.6 1345.4 1520.72 Q1342.96 1523.85 1342.62 1530.17 Q1343.98 1528.15 1346.04 1527.09 Q1348.1 1526 1350.58 1526 Q1355.79 1526 1358.8 1529.17 Q1361.83 1532.32 1361.83 1537.76 Q1361.83 1543.08 1358.68 1546.3 Q1355.53 1549.52 1350.3 1549.52 Q1344.31 1549.52 1341.14 1544.94 Q1337.96 1540.33 1337.96 1531.6 Q1337.96 1523.41 1341.85 1518.55 Q1345.74 1513.66 1352.29 1513.66 Q1354.05 1513.66 1355.83 1514.01 Q1357.64 1514.36 1359.58 1515.05 Z" fill="#000000" fill-rule="evenodd" fill-opacity="1" /><path clip-path="url(#clip560)" d="M1819.62 1532.44 Q1816.29 1532.44 1814.37 1534.22 Q1812.47 1536 1812.47 1539.13 Q1812.47 1542.25 1814.37 1544.03 Q1816.29 1545.82 1819.62 1545.82 Q1822.95 1545.82 1824.87 1544.03 Q1826.8 1542.23 1826.8 1539.13 Q1826.8 1536 1824.87 1534.22 Q1822.98 1532.44 1819.62 1532.44 M1814.94 1530.45 Q1811.94 1529.7 1810.25 1527.64 Q1808.58 1525.58 1808.58 1522.62 Q1808.58 1518.48 1811.52 1516.07 Q1814.48 1513.66 1819.62 1513.66 Q1824.78 1513.66 1827.72 1516.07 Q1830.66 1518.48 1830.66 1522.62 Q1830.66 1525.58 1828.97 1527.64 Q1827.31 1529.7 1824.32 1530.45 Q1827.7 1531.23 1829.57 1533.52 Q1831.47 1535.82 1831.47 1539.13 Q1831.47 1544.15 1828.39 1546.83 Q1825.34 1549.52 1819.62 1549.52 Q1813.9 1549.52 1810.82 1546.83 Q1807.77 1544.15 1807.77 1539.13 Q1807.77 1535.82 1809.67 1533.52 Q1811.56 1531.23 1814.94 1530.45 M1813.23 1523.06 Q1813.23 1525.75 1814.9 1527.25 Q1816.59 1528.76 1819.62 1528.76 Q1822.63 1528.76 1824.32 1527.25 Q1826.03 1525.75 1826.03 1523.06 Q1826.03 1520.38 1824.32 1518.87 Q1822.63 1517.37 1819.62 1517.37 Q1816.59 1517.37 1814.9 1518.87 Q1813.23 1520.38 1813.23 1523.06 Z" fill="#000000" fill-rule="evenodd" fill-opacity="1" /><path clip-path="url(#clip560)" d="M2264.03 1544.91 L2271.67 1544.91 L2271.67 1518.55 L2263.36 1520.21 L2263.36 1515.95 L2271.62 1514.29 L2276.3 1514.29 L2276.3 1544.91 L2283.94 1544.91 L2283.94 1548.85 L2264.03 1548.85 L2264.03 1544.91 Z" fill="#000000" fill-rule="evenodd" fill-opacity="1" /><path clip-path="url(#clip560)" d="M2303.38 1517.37 Q2299.77 1517.37 2297.94 1520.93 Q2296.14 1524.47 2296.14 1531.6 Q2296.14 1538.71 2297.94 1542.27 Q2299.77 1545.82 2303.38 1545.82 Q2307.02 1545.82 2308.82 1542.27 Q2310.65 1538.71 2310.65 1531.6 Q2310.65 1524.47 2308.82 1520.93 Q2307.02 1517.37 2303.38 1517.37 M2303.38 1513.66 Q2309.19 1513.66 2312.25 1518.27 Q2315.33 1522.85 2315.33 1531.6 Q2315.33 1540.33 2312.25 1544.94 Q2309.19 1549.52 2303.38 1549.52 Q2297.57 1549.52 2294.49 1544.94 Q2291.44 1540.33 2291.44 1531.6 Q2291.44 1522.85 2294.49 1518.27 Q2297.57 1513.66 2303.38 1513.66 Z" fill="#000000" fill-rule="evenodd" fill-opacity="1" /><polyline clip-path="url(#clip562)" style="stroke:#000000; stroke-linecap:butt; stroke-linejoin:round; stroke-width:2; stroke-opacity:0.1; fill:none" points="
  112.177,1454.36 2352.76,1454.36 
  "/>
<polyline clip-path="url(#clip562)" style="stroke:#000000; stroke-linecap:butt; stroke-linejoin:round; stroke-width:2; stroke-opacity:0.1; fill:none" points="
  112.177,1129.59 2352.76,1129.59 
  "/>
<polyline clip-path="url(#clip562)" style="stroke:#000000; stroke-linecap:butt; stroke-linejoin:round; stroke-width:2; stroke-opacity:0.1; fill:none" points="
  112.177,804.813 2352.76,804.813 
  "/>
<polyline clip-path="url(#clip562)" style="stroke:#000000; stroke-linecap:butt; stroke-linejoin:round; stroke-width:2; stroke-opacity:0.1; fill:none" points="
  112.177,480.038 2352.76,480.038 
  "/>
<polyline clip-path="url(#clip562)" style="stroke:#000000; stroke-linecap:butt; stroke-linejoin:round; stroke-width:2; stroke-opacity:0.1; fill:none" points="
  112.177,155.263 2352.76,155.263 
  "/>
<polyline clip-path="url(#clip560)" style="stroke:#000000; stroke-linecap:butt; stroke-linejoin:round; stroke-width:4; stroke-opacity:1; fill:none" points="
  112.177,1486.45 112.177,47.2441 
  "/>
<polyline clip-path="url(#clip560)" style="stroke:#000000; stroke-linecap:butt; stroke-linejoin:round; stroke-width:4; stroke-opacity:1; fill:none" points="
  112.177,1454.36 131.075,1454.36 
  "/>
<polyline clip-path="url(#clip560)" style="stroke:#000000; stroke-linecap:butt; stroke-linejoin:round; stroke-width:4; stroke-opacity:1; fill:none" points="
  112.177,1129.59 131.075,1129.59 
  "/>
<polyline clip-path="url(#clip560)" style="stroke:#000000; stroke-linecap:butt; stroke-linejoin:round; stroke-width:4; stroke-opacity:1; fill:none" points="
  112.177,804.813 131.075,804.813 
  "/>
<polyline clip-path="url(#clip560)" style="stroke:#000000; stroke-linecap:butt; stroke-linejoin:round; stroke-width:4; stroke-opacity:1; fill:none" points="
  112.177,480.038 131.075,480.038 
  "/>
<polyline clip-path="url(#clip560)" style="stroke:#000000; stroke-linecap:butt; stroke-linejoin:round; stroke-width:4; stroke-opacity:1; fill:none" points="
  112.177,155.263 131.075,155.263 
  "/>
<path clip-path="url(#clip560)" d="M64.2328 1440.16 Q60.6217 1440.16 58.793 1443.73 Q56.9875 1447.27 56.9875 1454.4 Q56.9875 1461.5 58.793 1465.07 Q60.6217 1468.61 64.2328 1468.61 Q67.867 1468.61 69.6726 1465.07 Q71.5013 1461.5 71.5013 1454.4 Q71.5013 1447.27 69.6726 1443.73 Q67.867 1440.16 64.2328 1440.16 M64.2328 1436.46 Q70.0429 1436.46 73.0985 1441.06 Q76.1772 1445.65 76.1772 1454.4 Q76.1772 1463.12 73.0985 1467.73 Q70.0429 1472.31 64.2328 1472.31 Q58.4226 1472.31 55.344 1467.73 Q52.2884 1463.12 52.2884 1454.4 Q52.2884 1445.65 55.344 1441.06 Q58.4226 1436.46 64.2328 1436.46 Z" fill="#000000" fill-rule="evenodd" fill-opacity="1" /><path clip-path="url(#clip560)" d="M59.8578 1142.93 L76.1772 1142.93 L76.1772 1146.87 L54.2328 1146.87 L54.2328 1142.93 Q56.8949 1140.18 61.4782 1135.55 Q66.0846 1130.9 67.2652 1129.55 Q69.5105 1127.03 70.3902 1125.29 Q71.2929 1123.53 71.2929 1121.85 Q71.2929 1119.09 69.3485 1117.35 Q67.4272 1115.62 64.3254 1115.62 Q62.1263 1115.62 59.6726 1116.38 Q57.2421 1117.15 54.4643 1118.7 L54.4643 1113.97 Q57.2884 1112.84 59.7421 1112.26 Q62.1958 1111.68 64.2328 1111.68 Q69.6031 1111.68 72.7976 1114.37 Q75.992 1117.05 75.992 1121.54 Q75.992 1123.67 75.1818 1125.6 Q74.3948 1127.49 72.2883 1130.09 Q71.7096 1130.76 68.6078 1133.97 Q65.5059 1137.17 59.8578 1142.93 Z" fill="#000000" fill-rule="evenodd" fill-opacity="1" /><path clip-path="url(#clip560)" d="M66.5939 791.607 L54.7884 810.056 L66.5939 810.056 L66.5939 791.607 M65.367 787.533 L71.2466 787.533 L71.2466 810.056 L76.1772 810.056 L76.1772 813.945 L71.2466 813.945 L71.2466 822.093 L66.5939 822.093 L66.5939 813.945 L50.9921 813.945 L50.9921 809.431 L65.367 787.533 Z" fill="#000000" fill-rule="evenodd" fill-opacity="1" /><path clip-path="url(#clip560)" d="M64.6495 478.175 Q61.5013 478.175 59.6495 480.328 Q57.8208 482.48 57.8208 486.23 Q57.8208 489.957 59.6495 492.133 Q61.5013 494.286 64.6495 494.286 Q67.7976 494.286 69.6263 492.133 Q71.4781 489.957 71.4781 486.23 Q71.4781 482.48 69.6263 480.328 Q67.7976 478.175 64.6495 478.175 M73.9318 463.522 L73.9318 467.781 Q72.1726 466.948 70.367 466.508 Q68.5846 466.068 66.8254 466.068 Q62.1958 466.068 59.7421 469.193 Q57.3115 472.318 56.9643 478.638 Q58.33 476.624 60.3902 475.559 Q62.4504 474.471 64.9272 474.471 Q70.1355 474.471 73.1448 477.642 Q76.1772 480.791 76.1772 486.23 Q76.1772 491.554 73.029 494.772 Q69.8809 497.99 64.6495 497.99 Q58.6541 497.99 55.4828 493.406 Q52.3116 488.8 52.3116 480.073 Q52.3116 471.879 56.2004 467.018 Q60.0893 462.133 66.6402 462.133 Q68.3994 462.133 70.1818 462.481 Q71.9874 462.828 73.9318 463.522 Z" fill="#000000" fill-rule="evenodd" fill-opacity="1" /><path clip-path="url(#clip560)" d="M64.3254 156.131 Q60.9921 156.131 59.0708 157.914 Q57.1726 159.696 57.1726 162.821 Q57.1726 165.946 59.0708 167.729 Q60.9921 169.511 64.3254 169.511 Q67.6587 169.511 69.58 167.729 Q71.5013 165.923 71.5013 162.821 Q71.5013 159.696 69.58 157.914 Q67.6819 156.131 64.3254 156.131 M59.6495 154.141 Q56.6402 153.4 54.9504 151.34 Q53.2838 149.28 53.2838 146.317 Q53.2838 142.173 56.2236 139.766 Q59.1865 137.358 64.3254 137.358 Q69.4874 137.358 72.4272 139.766 Q75.367 142.173 75.367 146.317 Q75.367 149.28 73.6772 151.34 Q72.0105 153.4 69.0244 154.141 Q72.404 154.928 74.279 157.219 Q76.1772 159.511 76.1772 162.821 Q76.1772 167.844 73.0985 170.529 Q70.0429 173.215 64.3254 173.215 Q58.6078 173.215 55.5291 170.529 Q52.4736 167.844 52.4736 162.821 Q52.4736 159.511 54.3717 157.219 Q56.2699 154.928 59.6495 154.141 M57.9365 146.756 Q57.9365 149.442 59.6032 150.946 Q61.293 152.451 64.3254 152.451 Q67.3346 152.451 69.0244 150.946 Q70.7374 149.442 70.7374 146.756 Q70.7374 144.071 69.0244 142.567 Q67.3346 141.062 64.3254 141.062 Q61.293 141.062 59.6032 142.567 Q57.9365 144.071 57.9365 146.756 Z" fill="#000000" fill-rule="evenodd" fill-opacity="1" /><polyline clip-path="url(#clip562)" style="stroke:#009af9; stroke-linecap:butt; stroke-linejoin:round; stroke-width:4; stroke-opacity:1; fill:none" points="
  175.59,1445.72 410.451,1206.31 645.313,87.9763 880.174,1414.03 1115.04,1433.22 1349.9,1440.94 1584.76,1369.27 1819.62,1379.75 2054.48,1437.79 2289.34,1439.61 
  
  "/>
<path clip-path="url(#clip560)" d="
M1976.69 198.898 L2278.07 198.898 L2278.07 95.2176 L1976.69 95.2176  Z
  " fill="#ffffff" fill-rule="evenodd" fill-opacity="1"/>
<polyline clip-path="url(#clip560)" style="stroke:#000000; stroke-linecap:butt; stroke-linejoin:round; stroke-width:4; stroke-opacity:1; fill:none" points="
  1976.69,198.898 2278.07,198.898 2278.07,95.2176 1976.69,95.2176 1976.69,198.898 
  "/>
<polyline clip-path="url(#clip560)" style="stroke:#009af9; stroke-linecap:butt; stroke-linejoin:round; stroke-width:4; stroke-opacity:1; fill:none" points="
  2001.58,147.058 2150.95,147.058 
  "/>
<path clip-path="url(#clip560)" d="M2189.69 166.745 Q2187.89 171.375 2186.17 172.787 Q2184.46 174.199 2181.59 174.199 L2178.19 174.199 L2178.19 170.634 L2180.69 170.634 Q2182.45 170.634 2183.42 169.8 Q2184.39 168.967 2185.57 165.865 L2186.34 163.921 L2175.85 138.412 L2180.36 138.412 L2188.46 158.689 L2196.57 138.412 L2201.08 138.412 L2189.69 166.745 Z" fill="#000000" fill-rule="evenodd" fill-opacity="1" /><path clip-path="url(#clip560)" d="M2208.37 160.402 L2216.01 160.402 L2216.01 134.037 L2207.7 135.703 L2207.7 131.444 L2215.96 129.778 L2220.64 129.778 L2220.64 160.402 L2228.28 160.402 L2228.28 164.338 L2208.37 164.338 L2208.37 160.402 Z" fill="#000000" fill-rule="evenodd" fill-opacity="1" /></svg>
