<?xml version="1.0" encoding="utf-8"?>
<svg xmlns="http://www.w3.org/2000/svg" xmlns:xlink="http://www.w3.org/1999/xlink" width="600" height="400" viewBox="0 0 2400 1600">
<defs>
  <clipPath id="clip300">
    <rect x="0" y="0" width="2400" height="1600"/>
  </clipPath>
</defs>
<path clip-path="url(#clip300)" d="
M0 1600 L2400 1600 L2400 0 L0 0  Z
  " fill="#ffffff" fill-rule="evenodd" fill-opacity="1"/>
<defs>
  <clipPath id="clip301">
    <rect x="480" y="0" width="1681" height="1600"/>
  </clipPath>
</defs>
<path clip-path="url(#clip300)" d="
M147.478 1486.45 L2352.76 1486.45 L2352.76 47.2441 L147.478 47.2441  Z
  " fill="#ffffff" fill-rule="evenodd" fill-opacity="1"/>
<defs>
  <clipPath id="clip302">
    <rect x="147" y="47" width="2206" height="1440"/>
  </clipPath>
</defs>
<polyline clip-path="url(#clip302)" style="stroke:#000000; stroke-linecap:butt; stroke-linejoin:round; stroke-width:2; stroke-opacity:0.1; fill:none" points="
  188.877,1486.45 188.877,47.2441 
  "/>
<polyline clip-path="url(#clip302)" style="stroke:#000000; stroke-linecap:butt; stroke-linejoin:round; stroke-width:2; stroke-opacity:0.1; fill:none" points="
  714.243,1486.45 714.243,47.2441 
  "/>
<polyline clip-path="url(#clip302)" style="stroke:#000000; stroke-linecap:butt; stroke-linejoin:round; stroke-width:2; stroke-opacity:0.1; fill:none" points="
  1239.61,1486.45 1239.61,47.2441 
  "/>
<polyline clip-path="url(#clip302)" style="stroke:#000000; stroke-linecap:butt; stroke-linejoin:round; stroke-width:2; stroke-opacity:0.1; fill:none" points="
  1764.98,1486.45 1764.98,47.2441 
  "/>
<polyline clip-path="url(#clip302)" style="stroke:#000000; stroke-linecap:butt; stroke-linejoin:round; stroke-width:2; stroke-opacity:0.1; fill:none" points="
  2290.34,1486.45 2290.34,47.2441 
  "/>
<polyline clip-path="url(#clip300)" style="stroke:#000000; stroke-linecap:butt; stroke-linejoin:round; stroke-width:4; stroke-opacity:1; fill:none" points="
  147.478,1486.45 2352.76,1486.45 
  "/>
<polyline clip-path="url(#clip300)" style="stroke:#000000; stroke-linecap:butt; stroke-linejoin:round; stroke-width:4; stroke-opacity:1; fill:none" points="
  188.877,1486.45 188.877,1467.55 
  "/>
<polyline clip-path="url(#clip300)" style="stroke:#000000; stroke-linecap:butt; stroke-linejoin:round; stroke-width:4; stroke-opacity:1; fill:none" points="
  714.243,1486.45 714.243,1467.55 
  "/>
<polyline clip-path="url(#clip300)" style="stroke:#000000; stroke-linecap:butt; stroke-linejoin:round; stroke-width:4; stroke-opacity:1; fill:none" points="
  1239.61,1486.45 1239.61,1467.55 
  "/>
<polyline clip-path="url(#clip300)" style="stroke:#000000; stroke-linecap:butt; stroke-linejoin:round; stroke-width:4; stroke-opacity:1; fill:none" points="
  1764.98,1486.45 1764.98,1467.55 
  "/>
<polyline clip-path="url(#clip300)" style="stroke:#000000; stroke-linecap:butt; stroke-linejoin:round; stroke-width:4; stroke-opacity:1; fill:none" points="
  2290.34,1486.45 2290.34,1467.55 
  "/>
<path clip-path="url(#clip300)" d="M188.877 1515.64 Q185.266 1515.64 183.437 1519.2 Q181.631 1522.75 181.631 1529.87 Q181.631 1536.98 183.437 1540.55 Q185.266 1544.09 188.877 1544.09 Q192.511 1544.09 194.317 1540.55 Q196.145 1536.98 196.145 1529.87 Q196.145 1522.75 194.317 1519.2 Q192.511 1515.64 188.877 1515.64 M188.877 1511.93 Q194.687 1511.93 197.742 1516.54 Q200.821 1521.12 200.821 1529.87 Q200.821 1538.6 197.742 1543.21 Q194.687 1547.79 188.877 1547.79 Q183.067 1547.79 179.988 1543.21 Q176.932 1538.6 176.932 1529.87 Q176.932 1521.12 179.988 1516.54 Q183.067 1511.93 188.877 1511.93 Z" fill="#000000" fill-rule="evenodd" fill-opacity="1" /><path clip-path="url(#clip300)" d="M693.514 1543.18 L709.833 1543.18 L709.833 1547.12 L687.889 1547.12 L687.889 1543.18 Q690.551 1540.43 695.134 1535.8 Q699.741 1531.15 700.921 1529.81 Q703.167 1527.28 704.046 1525.55 Q704.949 1523.79 704.949 1522.1 Q704.949 1519.34 703.005 1517.61 Q701.084 1515.87 697.982 1515.87 Q695.783 1515.87 693.329 1516.63 Q690.898 1517.4 688.121 1518.95 L688.121 1514.23 Q690.945 1513.09 693.398 1512.51 Q695.852 1511.93 697.889 1511.93 Q703.259 1511.93 706.454 1514.62 Q709.648 1517.31 709.648 1521.8 Q709.648 1523.93 708.838 1525.85 Q708.051 1527.74 705.945 1530.34 Q705.366 1531.01 702.264 1534.23 Q699.162 1537.42 693.514 1543.18 Z" fill="#000000" fill-rule="evenodd" fill-opacity="1" /><path clip-path="url(#clip300)" d="M719.695 1512.56 L738.051 1512.56 L738.051 1516.5 L723.977 1516.5 L723.977 1524.97 Q724.995 1524.62 726.014 1524.46 Q727.032 1524.27 728.051 1524.27 Q733.838 1524.27 737.218 1527.44 Q740.597 1530.62 740.597 1536.03 Q740.597 1541.61 737.125 1544.71 Q733.653 1547.79 727.333 1547.79 Q725.157 1547.79 722.889 1547.42 Q720.644 1547.05 718.236 1546.31 L718.236 1541.61 Q720.32 1542.74 722.542 1543.3 Q724.764 1543.86 727.241 1543.86 Q731.245 1543.86 733.583 1541.75 Q735.921 1539.64 735.921 1536.03 Q735.921 1532.42 733.583 1530.31 Q731.245 1528.21 727.241 1528.21 Q725.366 1528.21 723.491 1528.62 Q721.639 1529.04 719.695 1529.92 L719.695 1512.56 Z" fill="#000000" fill-rule="evenodd" fill-opacity="1" /><path clip-path="url(#clip300)" d="M1214.31 1512.56 L1232.67 1512.56 L1232.67 1516.5 L1218.59 1516.5 L1218.59 1524.97 Q1219.61 1524.62 1220.63 1524.46 Q1221.65 1524.27 1222.67 1524.27 Q1228.45 1524.27 1231.83 1527.44 Q1235.21 1530.62 1235.21 1536.03 Q1235.21 1541.61 1231.74 1544.71 Q1228.27 1547.79 1221.95 1547.79 Q1219.77 1547.79 1217.5 1547.42 Q1215.26 1547.05 1212.85 1546.31 L1212.85 1541.61 Q1214.93 1542.74 1217.16 1543.3 Q1219.38 1543.86 1221.86 1543.86 Q1225.86 1543.86 1228.2 1541.75 Q1230.54 1539.64 1230.54 1536.03 Q1230.54 1532.42 1228.2 1530.31 Q1225.86 1528.21 1221.86 1528.21 Q1219.98 1528.21 1218.11 1528.62 Q1216.25 1529.04 1214.31 1529.92 L1214.31 1512.56 Z" fill="#000000" fill-rule="evenodd" fill-opacity="1" /><path clip-path="url(#clip300)" d="M1254.42 1515.64 Q1250.81 1515.64 1248.98 1519.2 Q1247.18 1522.75 1247.18 1529.87 Q1247.18 1536.98 1248.98 1540.55 Q1250.81 1544.09 1254.42 1544.09 Q1258.06 1544.09 1259.86 1540.55 Q1261.69 1536.98 1261.69 1529.87 Q1261.69 1522.75 1259.86 1519.2 Q1258.06 1515.64 1254.42 1515.64 M1254.42 1511.93 Q1260.23 1511.93 1263.29 1516.54 Q1266.37 1521.12 1266.37 1529.87 Q1266.37 1538.6 1263.29 1543.21 Q1260.23 1547.79 1254.42 1547.79 Q1248.61 1547.79 1245.54 1543.21 Q1242.48 1538.6 1242.48 1529.87 Q1242.48 1521.12 1245.54 1516.54 Q1248.61 1511.93 1254.42 1511.93 Z" fill="#000000" fill-rule="evenodd" fill-opacity="1" /><path clip-path="url(#clip300)" d="M1738.83 1512.56 L1761.05 1512.56 L1761.05 1514.55 L1748.51 1547.12 L1743.62 1547.12 L1755.43 1516.5 L1738.83 1516.5 L1738.83 1512.56 Z" fill="#000000" fill-rule="evenodd" fill-opacity="1" /><path clip-path="url(#clip300)" d="M1770.22 1512.56 L1788.58 1512.56 L1788.58 1516.5 L1774.5 1516.5 L1774.5 1524.97 Q1775.52 1524.62 1776.54 1524.46 Q1777.56 1524.27 1778.58 1524.27 Q1784.36 1524.27 1787.74 1527.44 Q1791.12 1530.62 1791.12 1536.03 Q1791.12 1541.61 1787.65 1544.71 Q1784.18 1547.79 1777.86 1547.79 Q1775.68 1547.79 1773.41 1547.42 Q1771.17 1547.05 1768.76 1546.31 L1768.76 1541.61 Q1770.84 1542.74 1773.07 1543.3 Q1775.29 1543.86 1777.77 1543.86 Q1781.77 1543.86 1784.11 1541.75 Q1786.45 1539.64 1786.45 1536.03 Q1786.45 1532.42 1784.11 1530.31 Q1781.77 1528.21 1777.77 1528.21 Q1775.89 1528.21 1774.02 1528.62 Q1772.16 1529.04 1770.22 1529.92 L1770.22 1512.56 Z" fill="#000000" fill-rule="evenodd" fill-opacity="1" /><path clip-path="url(#clip300)" d="M2249.95 1543.18 L2257.59 1543.18 L2257.59 1516.82 L2249.28 1518.49 L2249.28 1514.23 L2257.54 1512.56 L2262.22 1512.56 L2262.22 1543.18 L2269.86 1543.18 L2269.86 1547.12 L2249.95 1547.12 L2249.95 1543.18 Z" fill="#000000" fill-rule="evenodd" fill-opacity="1" /><path clip-path="url(#clip300)" d="M2289.3 1515.64 Q2285.69 1515.64 2283.86 1519.2 Q2282.06 1522.75 2282.06 1529.87 Q2282.06 1536.98 2283.86 1540.55 Q2285.69 1544.09 2289.3 1544.09 Q2292.93 1544.09 2294.74 1540.55 Q2296.57 1536.98 2296.57 1529.87 Q2296.57 1522.75 2294.74 1519.2 Q2292.93 1515.64 2289.3 1515.64 M2289.3 1511.93 Q2295.11 1511.93 2298.17 1516.54 Q2301.25 1521.12 2301.25 1529.87 Q2301.25 1538.6 2298.17 1543.21 Q2295.11 1547.79 2289.3 1547.79 Q2283.49 1547.79 2280.41 1543.21 Q2277.36 1538.6 2277.36 1529.87 Q2277.36 1521.12 2280.41 1516.54 Q2283.49 1511.93 2289.3 1511.93 Z" fill="#000000" fill-rule="evenodd" fill-opacity="1" /><path clip-path="url(#clip300)" d="M2319.46 1515.64 Q2315.85 1515.64 2314.02 1519.2 Q2312.22 1522.75 2312.22 1529.87 Q2312.22 1536.98 2314.02 1540.55 Q2315.85 1544.09 2319.46 1544.09 Q2323.1 1544.09 2324.9 1540.55 Q2326.73 1536.98 2326.73 1529.87 Q2326.73 1522.75 2324.9 1519.2 Q2323.1 1515.64 2319.46 1515.64 M2319.46 1511.93 Q2325.27 1511.93 2328.33 1516.54 Q2331.41 1521.12 2331.41 1529.87 Q2331.41 1538.6 2328.33 1543.21 Q2325.27 1547.79 2319.46 1547.79 Q2313.65 1547.79 2310.57 1543.21 Q2307.52 1538.6 2307.52 1529.87 Q2307.52 1521.12 2310.57 1516.54 Q2313.65 1511.93 2319.46 1511.93 Z" fill="#000000" fill-rule="evenodd" fill-opacity="1" /><polyline clip-path="url(#clip302)" style="stroke:#000000; stroke-linecap:butt; stroke-linejoin:round; stroke-width:2; stroke-opacity:0.1; fill:none" points="
  147.478,1457.04 2352.76,1457.04 
  "/>
<polyline clip-path="url(#clip302)" style="stroke:#000000; stroke-linecap:butt; stroke-linejoin:round; stroke-width:2; stroke-opacity:0.1; fill:none" points="
  147.478,1211.19 2352.76,1211.19 
  "/>
<polyline clip-path="url(#clip302)" style="stroke:#000000; stroke-linecap:butt; stroke-linejoin:round; stroke-width:2; stroke-opacity:0.1; fill:none" points="
  147.478,965.345 2352.76,965.345 
  "/>
<polyline clip-path="url(#clip302)" style="stroke:#000000; stroke-linecap:butt; stroke-linejoin:round; stroke-width:2; stroke-opacity:0.1; fill:none" points="
  147.478,719.497 2352.76,719.497 
  "/>
<polyline clip-path="url(#clip302)" style="stroke:#000000; stroke-linecap:butt; stroke-linejoin:round; stroke-width:2; stroke-opacity:0.1; fill:none" points="
  147.478,473.649 2352.76,473.649 
  "/>
<polyline clip-path="url(#clip302)" style="stroke:#000000; stroke-linecap:butt; stroke-linejoin:round; stroke-width:2; stroke-opacity:0.1; fill:none" points="
  147.478,227.801 2352.76,227.801 
  "/>
<polyline clip-path="url(#clip300)" style="stroke:#000000; stroke-linecap:butt; stroke-linejoin:round; stroke-width:4; stroke-opacity:1; fill:none" points="
  147.478,1486.45 147.478,47.2441 
  "/>
<polyline clip-path="url(#clip300)" style="stroke:#000000; stroke-linecap:butt; stroke-linejoin:round; stroke-width:4; stroke-opacity:1; fill:none" points="
  147.478,1457.04 166.376,1457.04 
  "/>
<polyline clip-path="url(#clip300)" style="stroke:#000000; stroke-linecap:butt; stroke-linejoin:round; stroke-width:4; stroke-opacity:1; fill:none" points="
  147.478,1211.19 166.376,1211.19 
  "/>
<polyline clip-path="url(#clip300)" style="stroke:#000000; stroke-linecap:butt; stroke-linejoin:round; stroke-width:4; stroke-opacity:1; fill:none" points="
  147.478,965.345 166.376,965.345 
  "/>
<polyline clip-path="url(#clip300)" style="stroke:#000000; stroke-linecap:butt; stroke-linejoin:round; stroke-width:4; stroke-opacity:1; fill:none" points="
  147.478,719.497 166.376,719.497 
  "/>
<polyline clip-path="url(#clip300)" style="stroke:#000000; stroke-linecap:butt; stroke-linejoin:round; stroke-width:4; stroke-opacity:1; fill:none" points="
  147.478,473.649 166.376,473.649 
  "/>
<polyline clip-path="url(#clip300)" style="stroke:#000000; stroke-linecap:butt; stroke-linejoin:round; stroke-width:4; stroke-opacity:1; fill:none" points="
  147.478,227.801 166.376,227.801 
  "/>
<path clip-path="url(#clip300)" d="M51.3625 1457.49 L81.0383 1457.49 L81.0383 1461.43 L51.3625 1461.43 L51.3625 1457.49 Z" fill="#000000" fill-rule="evenodd" fill-opacity="1" /><path clip-path="url(#clip300)" d="M95.1586 1470.39 L111.478 1470.39 L111.478 1474.32 L89.5336 1474.32 L89.5336 1470.39 Q92.1956 1467.63 96.7789 1463 Q101.385 1458.35 102.566 1457.01 Q104.811 1454.48 105.691 1452.75 Q106.594 1450.99 106.594 1449.3 Q106.594 1446.54 104.649 1444.81 Q102.728 1443.07 99.6261 1443.07 Q97.4271 1443.07 94.9734 1443.84 Q92.5428 1444.6 89.7651 1446.15 L89.7651 1441.43 Q92.5891 1440.29 95.0428 1439.72 Q97.4965 1439.14 99.5335 1439.14 Q104.904 1439.14 108.098 1441.82 Q111.293 1444.51 111.293 1449 Q111.293 1451.13 110.483 1453.05 Q109.696 1454.95 107.589 1457.54 Q107.01 1458.21 103.909 1461.43 Q100.807 1464.62 95.1586 1470.39 Z" fill="#000000" fill-rule="evenodd" fill-opacity="1" /><path clip-path="url(#clip300)" d="M50.9921 1211.64 L80.6679 1211.64 L80.6679 1215.58 L50.9921 1215.58 L50.9921 1211.64 Z" fill="#000000" fill-rule="evenodd" fill-opacity="1" /><path clip-path="url(#clip300)" d="M91.5706 1224.54 L99.2095 1224.54 L99.2095 1198.17 L90.8993 1199.84 L90.8993 1195.58 L99.1632 1193.91 L103.839 1193.91 L103.839 1224.54 L111.478 1224.54 L111.478 1228.47 L91.5706 1228.47 L91.5706 1224.54 Z" fill="#000000" fill-rule="evenodd" fill-opacity="1" /><path clip-path="url(#clip300)" d="M99.5335 951.144 Q95.9224 951.144 94.0937 954.709 Q92.2882 958.25 92.2882 965.38 Q92.2882 972.486 94.0937 976.051 Q95.9224 979.593 99.5335 979.593 Q103.168 979.593 104.973 976.051 Q106.802 972.486 106.802 965.38 Q106.802 958.25 104.973 954.709 Q103.168 951.144 99.5335 951.144 M99.5335 947.44 Q105.344 947.44 108.399 952.047 Q111.478 956.63 111.478 965.38 Q111.478 974.107 108.399 978.713 Q105.344 983.297 99.5335 983.297 Q93.7234 983.297 90.6447 978.713 Q87.5892 974.107 87.5892 965.38 Q87.5892 956.63 90.6447 952.047 Q93.7234 947.44 99.5335 947.44 Z" fill="#000000" fill-rule="evenodd" fill-opacity="1" /><path clip-path="url(#clip300)" d="M91.5706 732.842 L99.2095 732.842 L99.2095 706.476 L90.8993 708.143 L90.8993 703.884 L99.1632 702.217 L103.839 702.217 L103.839 732.842 L111.478 732.842 L111.478 736.777 L91.5706 736.777 L91.5706 732.842 Z" fill="#000000" fill-rule="evenodd" fill-opacity="1" /><path clip-path="url(#clip300)" d="M95.1586 486.994 L111.478 486.994 L111.478 490.929 L89.5336 490.929 L89.5336 486.994 Q92.1956 484.239 96.7789 479.61 Q101.385 474.957 102.566 473.614 Q104.811 471.091 105.691 469.355 Q106.594 467.596 106.594 465.906 Q106.594 463.151 104.649 461.415 Q102.728 459.679 99.6261 459.679 Q97.4271 459.679 94.9734 460.443 Q92.5428 461.207 89.7651 462.758 L89.7651 458.036 Q92.5891 456.902 95.0428 456.323 Q97.4965 455.744 99.5335 455.744 Q104.904 455.744 108.098 458.429 Q111.293 461.114 111.293 465.605 Q111.293 467.735 110.483 469.656 Q109.696 471.554 107.589 474.147 Q107.01 474.818 103.909 478.036 Q100.807 481.23 95.1586 486.994 Z" fill="#000000" fill-rule="evenodd" fill-opacity="1" /><path clip-path="url(#clip300)" d="M104.348 226.447 Q107.705 227.164 109.58 229.433 Q111.478 231.701 111.478 235.035 Q111.478 240.151 107.959 242.951 Q104.441 245.752 97.9595 245.752 Q95.7836 245.752 93.4688 245.313 Q91.1771 244.896 88.7234 244.039 L88.7234 239.526 Q90.6678 240.66 92.9826 241.238 Q95.2974 241.817 97.8206 241.817 Q102.219 241.817 104.51 240.081 Q106.825 238.345 106.825 235.035 Q106.825 231.979 104.672 230.266 Q102.543 228.53 98.7234 228.53 L94.6956 228.53 L94.6956 224.688 L98.9085 224.688 Q102.358 224.688 104.186 223.322 Q106.015 221.933 106.015 219.34 Q106.015 216.678 104.117 215.266 Q102.242 213.831 98.7234 213.831 Q96.8021 213.831 94.603 214.248 Q92.4039 214.665 89.7651 215.544 L89.7651 211.378 Q92.4271 210.637 94.7419 210.266 Q97.0798 209.896 99.14 209.896 Q104.464 209.896 107.566 212.327 Q110.668 214.734 110.668 218.854 Q110.668 221.725 109.024 223.715 Q107.381 225.683 104.348 226.447 Z" fill="#000000" fill-rule="evenodd" fill-opacity="1" /><polyline clip-path="url(#clip302)" style="stroke:#009af9; stroke-linecap:butt; stroke-linejoin:round; stroke-width:4; stroke-opacity:1; fill:none" points="
  209.891,1149.05 230.906,474.642 251.921,1407.77 272.935,887.546 293.95,615.313 314.965,1266.82 335.979,1170.3 356.994,1049.15 378.009,745.347 399.023,1229.65 
  420.038,752.64 441.053,1320.74 462.067,814.553 483.082,1314.66 504.097,674.081 525.111,1047.85 546.126,965.513 567.141,1211.51 588.155,1287.32 609.17,1039.8 
  630.185,1190.46 651.199,1297.38 672.214,1045.58 693.229,869.606 714.243,538.933 735.258,789.882 756.272,1434.94 777.287,852.5 798.302,1329.32 819.316,1271.62 
  840.331,1010.27 861.346,1047.37 882.36,930.766 903.375,923.611 924.39,959.749 945.404,1054.72 966.419,863.838 987.434,826.082 1008.45,697.62 1029.46,1133.69 
  1050.48,1198.24 1071.49,1284.13 1092.51,1077.71 1113.52,1240.29 1134.54,1275.04 1155.55,614.33 1176.57,632.43 1197.58,87.9763 1218.59,1014.14 1239.61,1006.25 
  1260.62,1252.71 1281.64,1235.78 1302.65,915.036 1323.67,1331.25 1344.68,1445.72 1365.7,666.076 1386.71,645.43 1407.73,684.174 1428.74,1040.74 1449.76,905.235 
  1470.77,1094.28 1491.79,861.502 1512.8,651.37 1533.81,812.912 1554.83,735.624 1575.84,1006.29 1596.86,1383.49 1617.87,1399.03 1638.89,1000.04 1659.9,1069.63 
  1680.92,713.798 1701.93,960.456 1722.95,796.384 1743.96,993.274 1764.98,972.322 1785.99,694.782 1807.01,835.041 1828.02,1300.73 1849.03,1180.46 1870.05,780.503 
  1891.06,1046.01 1912.08,816.052 1933.09,747.782 1954.11,1135.63 1975.12,1112.92 1996.14,967.805 2017.15,642.573 2038.17,639.331 2059.18,1049.34 2080.2,836.459 
  2101.21,587.262 2122.23,887.942 2143.24,1152.33 2164.25,991.443 2185.27,677.428 2206.28,920.726 2227.3,963.127 2248.31,1376.9 2269.33,906.987 2290.34,1134.93 
  
  "/>
<path clip-path="url(#clip300)" d="
M1981.79 198.898 L2279.25 198.898 L2279.25 95.2176 L1981.79 95.2176  Z
  " fill="#ffffff" fill-rule="evenodd" fill-opacity="1"/>
<polyline clip-path="url(#clip300)" style="stroke:#000000; stroke-linecap:butt; stroke-linejoin:round; stroke-width:4; stroke-opacity:1; fill:none" points="
  1981.79,198.898 2279.25,198.898 2279.25,95.2176 1981.79,95.2176 1981.79,198.898 
  "/>
<polyline clip-path="url(#clip300)" style="stroke:#009af9; stroke-linecap:butt; stroke-linejoin:round; stroke-width:4; stroke-opacity:1; fill:none" points="
  2006.29,147.058 2153.31,147.058 
  "/>
<path clip-path="url(#clip300)" d="M2191.65 166.745 Q2189.85 171.375 2188.13 172.787 Q2186.42 174.199 2183.55 174.199 L2180.15 174.199 L2180.15 170.634 L2182.65 170.634 Q2184.41 170.634 2185.38 169.8 Q2186.35 168.967 2187.53 165.865 L2188.3 163.921 L2177.81 138.412 L2182.32 138.412 L2190.43 158.689 L2198.53 138.412 L2203.04 138.412 L2191.65 166.745 Z" fill="#000000" fill-rule="evenodd" fill-opacity="1" /><path clip-path="url(#clip300)" d="M2210.33 160.402 L2217.97 160.402 L2217.97 134.037 L2209.66 135.703 L2209.66 131.444 L2217.93 129.778 L2222.6 129.778 L2222.6 160.402 L2230.24 160.402 L2230.24 164.338 L2210.33 164.338 L2210.33 160.402 Z" fill="#000000" fill-rule="evenodd" fill-opacity="1" /></svg>
