<?xml version="1.0" encoding="utf-8"?>
<svg xmlns="http://www.w3.org/2000/svg" xmlns:xlink="http://www.w3.org/1999/xlink" width="600" height="400" viewBox="0 0 2400 1600">
<defs>
  <clipPath id="clip490">
    <rect x="0" y="0" width="2400" height="1600"/>
  </clipPath>
</defs>
<path clip-path="url(#clip490)" d="
M0 1600 L2400 1600 L2400 0 L0 0  Z
  " fill="#ffffff" fill-rule="evenodd" fill-opacity="1"/>
<defs>
  <clipPath id="clip491">
    <rect x="480" y="0" width="1681" height="1600"/>
  </clipPath>
</defs>
<path clip-path="url(#clip490)" d="
M169.121 1486.45 L2352.76 1486.45 L2352.76 47.2441 L169.121 47.2441  Z
  " fill="#ffffff" fill-rule="evenodd" fill-opacity="1"/>
<defs>
  <clipPath id="clip492">
    <rect x="169" y="47" width="2185" height="1440"/>
  </clipPath>
</defs>
<polyline clip-path="url(#clip492)" style="stroke:#000000; stroke-linecap:round; stroke-linejoin:round; stroke-width:2; stroke-opacity:0.1; fill:none" points="
  532.153,1486.45 532.153,47.2441 
  "/>
<polyline clip-path="url(#clip492)" style="stroke:#000000; stroke-linecap:round; stroke-linejoin:round; stroke-width:2; stroke-opacity:0.1; fill:none" points="
  937.034,1486.45 937.034,47.2441 
  "/>
<polyline clip-path="url(#clip492)" style="stroke:#000000; stroke-linecap:round; stroke-linejoin:round; stroke-width:2; stroke-opacity:0.1; fill:none" points="
  1341.91,1486.45 1341.91,47.2441 
  "/>
<polyline clip-path="url(#clip492)" style="stroke:#000000; stroke-linecap:round; stroke-linejoin:round; stroke-width:2; stroke-opacity:0.1; fill:none" points="
  1746.8,1486.45 1746.8,47.2441 
  "/>
<polyline clip-path="url(#clip492)" style="stroke:#000000; stroke-linecap:round; stroke-linejoin:round; stroke-width:2; stroke-opacity:0.1; fill:none" points="
  2151.68,1486.45 2151.68,47.2441 
  "/>
<polyline clip-path="url(#clip490)" style="stroke:#000000; stroke-linecap:round; stroke-linejoin:round; stroke-width:4; stroke-opacity:1; fill:none" points="
  169.121,1486.45 2352.76,1486.45 
  "/>
<polyline clip-path="url(#clip490)" style="stroke:#000000; stroke-linecap:round; stroke-linejoin:round; stroke-width:4; stroke-opacity:1; fill:none" points="
  532.153,1486.45 532.153,1467.55 
  "/>
<polyline clip-path="url(#clip490)" style="stroke:#000000; stroke-linecap:round; stroke-linejoin:round; stroke-width:4; stroke-opacity:1; fill:none" points="
  937.034,1486.45 937.034,1467.55 
  "/>
<polyline clip-path="url(#clip490)" style="stroke:#000000; stroke-linecap:round; stroke-linejoin:round; stroke-width:4; stroke-opacity:1; fill:none" points="
  1341.91,1486.45 1341.91,1467.55 
  "/>
<polyline clip-path="url(#clip490)" style="stroke:#000000; stroke-linecap:round; stroke-linejoin:round; stroke-width:4; stroke-opacity:1; fill:none" points="
  1746.8,1486.45 1746.8,1467.55 
  "/>
<polyline clip-path="url(#clip490)" style="stroke:#000000; stroke-linecap:round; stroke-linejoin:round; stroke-width:4; stroke-opacity:1; fill:none" points="
  2151.68,1486.45 2151.68,1467.55 
  "/>
<path clip-path="url(#clip490)" d="M478.682 1532.02 L508.357 1532.02 L508.357 1535.95 L478.682 1535.95 L478.682 1532.02 Z" fill="#000000" fill-rule="evenodd" fill-opacity="1" /><path clip-path="url(#clip490)" d="M518.496 1514.29 L536.853 1514.29 L536.853 1518.22 L522.779 1518.22 L522.779 1526.7 Q523.797 1526.35 524.816 1526.19 Q525.834 1526 526.853 1526 Q532.64 1526 536.019 1529.17 Q539.399 1532.34 539.399 1537.76 Q539.399 1543.34 535.927 1546.44 Q532.454 1549.52 526.135 1549.52 Q523.959 1549.52 521.691 1549.15 Q519.445 1548.78 517.038 1548.04 L517.038 1543.34 Q519.121 1544.47 521.343 1545.03 Q523.566 1545.58 526.042 1545.58 Q530.047 1545.58 532.385 1543.48 Q534.723 1541.37 534.723 1537.76 Q534.723 1534.15 532.385 1532.04 Q530.047 1529.94 526.042 1529.94 Q524.167 1529.94 522.292 1530.35 Q520.441 1530.77 518.496 1531.65 L518.496 1514.29 Z" fill="#000000" fill-rule="evenodd" fill-opacity="1" /><path clip-path="url(#clip490)" d="M548.612 1542.97 L553.496 1542.97 L553.496 1548.85 L548.612 1548.85 L548.612 1542.97 Z" fill="#000000" fill-rule="evenodd" fill-opacity="1" /><path clip-path="url(#clip490)" d="M573.681 1517.37 Q570.07 1517.37 568.241 1520.93 Q566.436 1524.47 566.436 1531.6 Q566.436 1538.71 568.241 1542.27 Q570.07 1545.82 573.681 1545.82 Q577.315 1545.82 579.121 1542.27 Q580.95 1538.71 580.95 1531.6 Q580.95 1524.47 579.121 1520.93 Q577.315 1517.37 573.681 1517.37 M573.681 1513.66 Q579.491 1513.66 582.547 1518.27 Q585.625 1522.85 585.625 1531.6 Q585.625 1540.33 582.547 1544.94 Q579.491 1549.52 573.681 1549.52 Q567.871 1549.52 564.792 1544.94 Q561.737 1540.33 561.737 1531.6 Q561.737 1522.85 564.792 1518.27 Q567.871 1513.66 573.681 1513.66 Z" fill="#000000" fill-rule="evenodd" fill-opacity="1" /><path clip-path="url(#clip490)" d="M884.06 1532.02 L913.736 1532.02 L913.736 1535.95 L884.06 1535.95 L884.06 1532.02 Z" fill="#000000" fill-rule="evenodd" fill-opacity="1" /><path clip-path="url(#clip490)" d="M927.856 1544.91 L944.175 1544.91 L944.175 1548.85 L922.231 1548.85 L922.231 1544.91 Q924.893 1542.16 929.476 1537.53 Q934.083 1532.88 935.263 1531.53 Q937.509 1529.01 938.388 1527.27 Q939.291 1525.51 939.291 1523.82 Q939.291 1521.07 937.347 1519.33 Q935.425 1517.6 932.323 1517.6 Q930.124 1517.6 927.671 1518.36 Q925.24 1519.13 922.462 1520.68 L922.462 1515.95 Q925.286 1514.82 927.74 1514.24 Q930.194 1513.66 932.231 1513.66 Q937.601 1513.66 940.796 1516.35 Q943.99 1519.03 943.99 1523.52 Q943.99 1525.65 943.18 1527.57 Q942.393 1529.47 940.286 1532.07 Q939.708 1532.74 936.606 1535.95 Q933.504 1539.15 927.856 1544.91 Z" fill="#000000" fill-rule="evenodd" fill-opacity="1" /><path clip-path="url(#clip490)" d="M953.99 1542.97 L958.874 1542.97 L958.874 1548.85 L953.99 1548.85 L953.99 1542.97 Z" fill="#000000" fill-rule="evenodd" fill-opacity="1" /><path clip-path="url(#clip490)" d="M969.106 1514.29 L987.462 1514.29 L987.462 1518.22 L973.388 1518.22 L973.388 1526.7 Q974.407 1526.35 975.425 1526.19 Q976.444 1526 977.462 1526 Q983.249 1526 986.629 1529.17 Q990.008 1532.34 990.008 1537.76 Q990.008 1543.34 986.536 1546.44 Q983.064 1549.52 976.745 1549.52 Q974.569 1549.52 972.3 1549.15 Q970.055 1548.78 967.647 1548.04 L967.647 1543.34 Q969.731 1544.47 971.953 1545.03 Q974.175 1545.58 976.652 1545.58 Q980.657 1545.58 982.995 1543.48 Q985.332 1541.37 985.332 1537.76 Q985.332 1534.15 982.995 1532.04 Q980.657 1529.94 976.652 1529.94 Q974.777 1529.94 972.902 1530.35 Q971.05 1530.77 969.106 1531.65 L969.106 1514.29 Z" fill="#000000" fill-rule="evenodd" fill-opacity="1" /><path clip-path="url(#clip490)" d="M1319.3 1517.37 Q1315.69 1517.37 1313.86 1520.93 Q1312.05 1524.47 1312.05 1531.6 Q1312.05 1538.71 1313.86 1542.27 Q1315.69 1545.82 1319.3 1545.82 Q1322.93 1545.82 1324.74 1542.27 Q1326.57 1538.71 1326.57 1531.6 Q1326.57 1524.47 1324.74 1520.93 Q1322.93 1517.37 1319.3 1517.37 M1319.3 1513.66 Q1325.11 1513.66 1328.16 1518.27 Q1331.24 1522.85 1331.24 1531.6 Q1331.24 1540.33 1328.16 1544.94 Q1325.11 1549.52 1319.3 1549.52 Q1313.49 1549.52 1310.41 1544.94 Q1307.35 1540.33 1307.35 1531.6 Q1307.35 1522.85 1310.41 1518.27 Q1313.49 1513.66 1319.3 1513.66 Z" fill="#000000" fill-rule="evenodd" fill-opacity="1" /><path clip-path="url(#clip490)" d="M1339.46 1542.97 L1344.35 1542.97 L1344.35 1548.85 L1339.46 1548.85 L1339.46 1542.97 Z" fill="#000000" fill-rule="evenodd" fill-opacity="1" /><path clip-path="url(#clip490)" d="M1364.53 1517.37 Q1360.92 1517.37 1359.09 1520.93 Q1357.29 1524.47 1357.29 1531.6 Q1357.29 1538.71 1359.09 1542.27 Q1360.92 1545.82 1364.53 1545.82 Q1368.16 1545.82 1369.97 1542.27 Q1371.8 1538.71 1371.8 1531.6 Q1371.8 1524.47 1369.97 1520.93 Q1368.16 1517.37 1364.53 1517.37 M1364.53 1513.66 Q1370.34 1513.66 1373.4 1518.27 Q1376.47 1522.85 1376.47 1531.6 Q1376.47 1540.33 1373.4 1544.94 Q1370.34 1549.52 1364.53 1549.52 Q1358.72 1549.52 1355.64 1544.94 Q1352.59 1540.33 1352.59 1531.6 Q1352.59 1522.85 1355.64 1518.27 Q1358.72 1513.66 1364.53 1513.66 Z" fill="#000000" fill-rule="evenodd" fill-opacity="1" /><path clip-path="url(#clip490)" d="M1718.53 1544.91 L1734.85 1544.91 L1734.85 1548.85 L1712.91 1548.85 L1712.91 1544.91 Q1715.57 1542.16 1720.15 1537.53 Q1724.76 1532.88 1725.94 1531.53 Q1728.18 1529.01 1729.06 1527.27 Q1729.97 1525.51 1729.97 1523.82 Q1729.97 1521.07 1728.02 1519.33 Q1726.1 1517.6 1723 1517.6 Q1720.8 1517.6 1718.35 1518.36 Q1715.92 1519.13 1713.14 1520.68 L1713.14 1515.95 Q1715.96 1514.82 1718.42 1514.24 Q1720.87 1513.66 1722.91 1513.66 Q1728.28 1513.66 1731.47 1516.35 Q1734.67 1519.03 1734.67 1523.52 Q1734.67 1525.65 1733.86 1527.57 Q1733.07 1529.47 1730.96 1532.07 Q1730.38 1532.74 1727.28 1535.95 Q1724.18 1539.15 1718.53 1544.91 Z" fill="#000000" fill-rule="evenodd" fill-opacity="1" /><path clip-path="url(#clip490)" d="M1744.67 1542.97 L1749.55 1542.97 L1749.55 1548.85 L1744.67 1548.85 L1744.67 1542.97 Z" fill="#000000" fill-rule="evenodd" fill-opacity="1" /><path clip-path="url(#clip490)" d="M1759.78 1514.29 L1778.14 1514.29 L1778.14 1518.22 L1764.06 1518.22 L1764.06 1526.7 Q1765.08 1526.35 1766.1 1526.19 Q1767.12 1526 1768.14 1526 Q1773.92 1526 1777.3 1529.17 Q1780.68 1532.34 1780.68 1537.76 Q1780.68 1543.34 1777.21 1546.44 Q1773.74 1549.52 1767.42 1549.52 Q1765.24 1549.52 1762.98 1549.15 Q1760.73 1548.78 1758.32 1548.04 L1758.32 1543.34 Q1760.41 1544.47 1762.63 1545.03 Q1764.85 1545.58 1767.33 1545.58 Q1771.33 1545.58 1773.67 1543.48 Q1776.01 1541.37 1776.01 1537.76 Q1776.01 1534.15 1773.67 1532.04 Q1771.33 1529.94 1767.33 1529.94 Q1765.45 1529.94 1763.58 1530.35 Q1761.73 1530.77 1759.78 1531.65 L1759.78 1514.29 Z" fill="#000000" fill-rule="evenodd" fill-opacity="1" /><path clip-path="url(#clip490)" d="M2118.84 1514.29 L2137.2 1514.29 L2137.2 1518.22 L2123.12 1518.22 L2123.12 1526.7 Q2124.14 1526.35 2125.16 1526.19 Q2126.18 1526 2127.2 1526 Q2132.98 1526 2136.36 1529.17 Q2139.74 1532.34 2139.74 1537.76 Q2139.74 1543.34 2136.27 1546.44 Q2132.8 1549.52 2126.48 1549.52 Q2124.3 1549.52 2122.03 1549.15 Q2119.79 1548.78 2117.38 1548.04 L2117.38 1543.34 Q2119.47 1544.47 2121.69 1545.03 Q2123.91 1545.58 2126.39 1545.58 Q2130.39 1545.58 2132.73 1543.48 Q2135.07 1541.37 2135.07 1537.76 Q2135.07 1534.15 2132.73 1532.04 Q2130.39 1529.94 2126.39 1529.94 Q2124.51 1529.94 2122.64 1530.35 Q2120.78 1530.77 2118.84 1531.65 L2118.84 1514.29 Z" fill="#000000" fill-rule="evenodd" fill-opacity="1" /><path clip-path="url(#clip490)" d="M2148.96 1542.97 L2153.84 1542.97 L2153.84 1548.85 L2148.96 1548.85 L2148.96 1542.97 Z" fill="#000000" fill-rule="evenodd" fill-opacity="1" /><path clip-path="url(#clip490)" d="M2174.03 1517.37 Q2170.41 1517.37 2168.59 1520.93 Q2166.78 1524.47 2166.78 1531.6 Q2166.78 1538.71 2168.59 1542.27 Q2170.41 1545.82 2174.03 1545.82 Q2177.66 1545.82 2179.47 1542.27 Q2181.29 1538.71 2181.29 1531.6 Q2181.29 1524.47 2179.47 1520.93 Q2177.66 1517.37 2174.03 1517.37 M2174.03 1513.66 Q2179.84 1513.66 2182.89 1518.27 Q2185.97 1522.85 2185.97 1531.6 Q2185.97 1540.33 2182.89 1544.94 Q2179.84 1549.52 2174.03 1549.52 Q2168.22 1549.52 2165.14 1544.94 Q2162.08 1540.33 2162.08 1531.6 Q2162.08 1522.85 2165.14 1518.27 Q2168.22 1513.66 2174.03 1513.66 Z" fill="#000000" fill-rule="evenodd" fill-opacity="1" /><polyline clip-path="url(#clip492)" style="stroke:#000000; stroke-linecap:round; stroke-linejoin:round; stroke-width:2; stroke-opacity:0.1; fill:none" points="
  169.121,1445.72 2352.76,1445.72 
  "/>
<polyline clip-path="url(#clip492)" style="stroke:#000000; stroke-linecap:round; stroke-linejoin:round; stroke-width:2; stroke-opacity:0.1; fill:none" points="
  169.121,1119.34 2352.76,1119.34 
  "/>
<polyline clip-path="url(#clip492)" style="stroke:#000000; stroke-linecap:round; stroke-linejoin:round; stroke-width:2; stroke-opacity:0.1; fill:none" points="
  169.121,792.956 2352.76,792.956 
  "/>
<polyline clip-path="url(#clip492)" style="stroke:#000000; stroke-linecap:round; stroke-linejoin:round; stroke-width:2; stroke-opacity:0.1; fill:none" points="
  169.121,466.577 2352.76,466.577 
  "/>
<polyline clip-path="url(#clip492)" style="stroke:#000000; stroke-linecap:round; stroke-linejoin:round; stroke-width:2; stroke-opacity:0.1; fill:none" points="
  169.121,140.197 2352.76,140.197 
  "/>
<polyline clip-path="url(#clip490)" style="stroke:#000000; stroke-linecap:round; stroke-linejoin:round; stroke-width:4; stroke-opacity:1; fill:none" points="
  169.121,1486.45 169.121,47.2441 
  "/>
<polyline clip-path="url(#clip490)" style="stroke:#000000; stroke-linecap:round; stroke-linejoin:round; stroke-width:4; stroke-opacity:1; fill:none" points="
  169.121,1445.72 188.019,1445.72 
  "/>
<polyline clip-path="url(#clip490)" style="stroke:#000000; stroke-linecap:round; stroke-linejoin:round; stroke-width:4; stroke-opacity:1; fill:none" points="
  169.121,1119.34 188.019,1119.34 
  "/>
<polyline clip-path="url(#clip490)" style="stroke:#000000; stroke-linecap:round; stroke-linejoin:round; stroke-width:4; stroke-opacity:1; fill:none" points="
  169.121,792.956 188.019,792.956 
  "/>
<polyline clip-path="url(#clip490)" style="stroke:#000000; stroke-linecap:round; stroke-linejoin:round; stroke-width:4; stroke-opacity:1; fill:none" points="
  169.121,466.577 188.019,466.577 
  "/>
<polyline clip-path="url(#clip490)" style="stroke:#000000; stroke-linecap:round; stroke-linejoin:round; stroke-width:4; stroke-opacity:1; fill:none" points="
  169.121,140.197 188.019,140.197 
  "/>
<path clip-path="url(#clip490)" d="M121.177 1431.51 Q117.566 1431.51 115.737 1435.08 Q113.932 1438.62 113.932 1445.75 Q113.932 1452.86 115.737 1456.42 Q117.566 1459.96 121.177 1459.96 Q124.811 1459.96 126.617 1456.42 Q128.445 1452.86 128.445 1445.75 Q128.445 1438.62 126.617 1435.08 Q124.811 1431.51 121.177 1431.51 M121.177 1427.81 Q126.987 1427.81 130.043 1432.42 Q133.121 1437 133.121 1445.75 Q133.121 1454.48 130.043 1459.08 Q126.987 1463.67 121.177 1463.67 Q115.367 1463.67 112.288 1459.08 Q109.233 1454.48 109.233 1445.75 Q109.233 1437 112.288 1432.42 Q115.367 1427.81 121.177 1427.81 Z" fill="#000000" fill-rule="evenodd" fill-opacity="1" /><path clip-path="url(#clip490)" d="M86.0382 1132.68 L102.358 1132.68 L102.358 1136.62 L80.4133 1136.62 L80.4133 1132.68 Q83.0753 1129.93 87.6586 1125.3 Q92.2651 1120.64 93.4456 1119.3 Q95.691 1116.78 96.5706 1115.04 Q97.4734 1113.28 97.4734 1111.59 Q97.4734 1108.84 95.5289 1107.1 Q93.6076 1105.37 90.5058 1105.37 Q88.3067 1105.37 85.8531 1106.13 Q83.4225 1106.89 80.6447 1108.44 L80.6447 1103.72 Q83.4688 1102.59 85.9225 1102.01 Q88.3762 1101.43 90.4132 1101.43 Q95.7836 1101.43 98.978 1104.12 Q102.172 1106.8 102.172 1111.29 Q102.172 1113.42 101.362 1115.34 Q100.575 1117.24 98.4687 1119.83 Q97.89 1120.5 94.7882 1123.72 Q91.6864 1126.92 86.0382 1132.68 Z" fill="#000000" fill-rule="evenodd" fill-opacity="1" /><path clip-path="url(#clip490)" d="M112.219 1102.06 L130.575 1102.06 L130.575 1105.99 L116.501 1105.99 L116.501 1114.46 Q117.52 1114.12 118.538 1113.95 Q119.557 1113.77 120.575 1113.77 Q126.362 1113.77 129.742 1116.94 Q133.121 1120.11 133.121 1125.53 Q133.121 1131.11 129.649 1134.21 Q126.177 1137.29 119.857 1137.29 Q117.682 1137.29 115.413 1136.92 Q113.168 1136.55 110.76 1135.81 L110.76 1131.11 Q112.844 1132.24 115.066 1132.8 Q117.288 1133.35 119.765 1133.35 Q123.77 1133.35 126.107 1131.25 Q128.445 1129.14 128.445 1125.53 Q128.445 1121.92 126.107 1119.81 Q123.77 1117.7 119.765 1117.7 Q117.89 1117.7 116.015 1118.12 Q114.163 1118.54 112.219 1119.42 L112.219 1102.06 Z" fill="#000000" fill-rule="evenodd" fill-opacity="1" /><path clip-path="url(#clip490)" d="M81.0614 775.676 L99.4178 775.676 L99.4178 779.612 L85.3438 779.612 L85.3438 788.084 Q86.3623 787.736 87.3808 787.574 Q88.3993 787.389 89.4178 787.389 Q95.2049 787.389 98.5845 790.561 Q101.964 793.732 101.964 799.148 Q101.964 804.727 98.4919 807.829 Q95.0197 810.908 88.7003 810.908 Q86.5243 810.908 84.2558 810.537 Q82.0105 810.167 79.6031 809.426 L79.6031 804.727 Q81.6864 805.861 83.9086 806.417 Q86.1308 806.972 88.6077 806.972 Q92.6123 806.972 94.9502 804.866 Q97.2882 802.76 97.2882 799.148 Q97.2882 795.537 94.9502 793.431 Q92.6123 791.324 88.6077 791.324 Q86.7327 791.324 84.8577 791.741 Q83.0058 792.158 81.0614 793.037 L81.0614 775.676 Z" fill="#000000" fill-rule="evenodd" fill-opacity="1" /><path clip-path="url(#clip490)" d="M121.177 778.755 Q117.566 778.755 115.737 782.32 Q113.932 785.861 113.932 792.991 Q113.932 800.098 115.737 803.662 Q117.566 807.204 121.177 807.204 Q124.811 807.204 126.617 803.662 Q128.445 800.098 128.445 792.991 Q128.445 785.861 126.617 782.32 Q124.811 778.755 121.177 778.755 M121.177 775.051 Q126.987 775.051 130.043 779.658 Q133.121 784.241 133.121 792.991 Q133.121 801.718 130.043 806.324 Q126.987 810.908 121.177 810.908 Q115.367 810.908 112.288 806.324 Q109.233 801.718 109.233 792.991 Q109.233 784.241 112.288 779.658 Q115.367 775.051 121.177 775.051 Z" fill="#000000" fill-rule="evenodd" fill-opacity="1" /><path clip-path="url(#clip490)" d="M80.8299 449.297 L103.052 449.297 L103.052 451.287 L90.5058 483.857 L85.6216 483.857 L97.4271 453.232 L80.8299 453.232 L80.8299 449.297 Z" fill="#000000" fill-rule="evenodd" fill-opacity="1" /><path clip-path="url(#clip490)" d="M112.219 449.297 L130.575 449.297 L130.575 453.232 L116.501 453.232 L116.501 461.704 Q117.52 461.357 118.538 461.195 Q119.557 461.01 120.575 461.01 Q126.362 461.01 129.742 464.181 Q133.121 467.352 133.121 472.769 Q133.121 478.347 129.649 481.449 Q126.177 484.528 119.857 484.528 Q117.682 484.528 115.413 484.158 Q113.168 483.787 110.76 483.047 L110.76 478.347 Q112.844 479.482 115.066 480.037 Q117.288 480.593 119.765 480.593 Q123.77 480.593 126.107 478.486 Q128.445 476.38 128.445 472.769 Q128.445 469.158 126.107 467.051 Q123.77 464.945 119.765 464.945 Q117.89 464.945 116.015 465.361 Q114.163 465.778 112.219 466.658 L112.219 449.297 Z" fill="#000000" fill-rule="evenodd" fill-opacity="1" /><path clip-path="url(#clip490)" d="M51.6634 153.542 L59.3023 153.542 L59.3023 127.176 L50.9921 128.843 L50.9921 124.584 L59.256 122.917 L63.9319 122.917 L63.9319 153.542 L71.5707 153.542 L71.5707 157.477 L51.6634 157.477 L51.6634 153.542 Z" fill="#000000" fill-rule="evenodd" fill-opacity="1" /><path clip-path="url(#clip490)" d="M91.0151 125.996 Q87.404 125.996 85.5753 129.561 Q83.7697 133.102 83.7697 140.232 Q83.7697 147.338 85.5753 150.903 Q87.404 154.445 91.0151 154.445 Q94.6493 154.445 96.4548 150.903 Q98.2835 147.338 98.2835 140.232 Q98.2835 133.102 96.4548 129.561 Q94.6493 125.996 91.0151 125.996 M91.0151 122.292 Q96.8252 122.292 99.8808 126.898 Q102.959 131.482 102.959 140.232 Q102.959 148.959 99.8808 153.565 Q96.8252 158.148 91.0151 158.148 Q85.2049 158.148 82.1262 153.565 Q79.0707 148.959 79.0707 140.232 Q79.0707 131.482 82.1262 126.898 Q85.2049 122.292 91.0151 122.292 Z" fill="#000000" fill-rule="evenodd" fill-opacity="1" /><path clip-path="url(#clip490)" d="M121.177 125.996 Q117.566 125.996 115.737 129.561 Q113.932 133.102 113.932 140.232 Q113.932 147.338 115.737 150.903 Q117.566 154.445 121.177 154.445 Q124.811 154.445 126.617 150.903 Q128.445 147.338 128.445 140.232 Q128.445 133.102 126.617 129.561 Q124.811 125.996 121.177 125.996 M121.177 122.292 Q126.987 122.292 130.043 126.898 Q133.121 131.482 133.121 140.232 Q133.121 148.959 130.043 153.565 Q126.987 158.148 121.177 158.148 Q115.367 158.148 112.288 153.565 Q109.233 148.959 109.233 140.232 Q109.233 131.482 112.288 126.898 Q115.367 122.292 121.177 122.292 Z" fill="#000000" fill-rule="evenodd" fill-opacity="1" /><path clip-path="url(#clip492)" d="
M289.225 1419.61 L289.225 1445.72 L370.201 1445.72 L370.201 1419.61 L289.225 1419.61 L289.225 1419.61  Z
  " fill="#009af9" fill-rule="evenodd" fill-opacity="1"/>
<polyline clip-path="url(#clip492)" style="stroke:#000000; stroke-linecap:round; stroke-linejoin:round; stroke-width:4; stroke-opacity:1; fill:none" points="
  289.225,1419.61 289.225,1445.72 370.201,1445.72 370.201,1419.61 289.225,1419.61 
  "/>
<path clip-path="url(#clip492)" d="
M370.201 1432.66 L370.201 1445.72 L451.177 1445.72 L451.177 1432.66 L370.201 1432.66 L370.201 1432.66  Z
  " fill="#009af9" fill-rule="evenodd" fill-opacity="1"/>
<polyline clip-path="url(#clip492)" style="stroke:#000000; stroke-linecap:round; stroke-linejoin:round; stroke-width:4; stroke-opacity:1; fill:none" points="
  370.201,1432.66 370.201,1445.72 451.177,1445.72 451.177,1432.66 370.201,1432.66 
  "/>
<path clip-path="url(#clip492)" d="
M451.177 1445.72 L451.177 1445.72 L532.153 1445.72 L532.153 1445.72 L451.177 1445.72 L451.177 1445.72  Z
  " fill="#009af9" fill-rule="evenodd" fill-opacity="1"/>
<polyline clip-path="url(#clip492)" style="stroke:#000000; stroke-linecap:round; stroke-linejoin:round; stroke-width:4; stroke-opacity:1; fill:none" points="
  451.177,1445.72 451.177,1445.72 532.153,1445.72 451.177,1445.72 
  "/>
<path clip-path="url(#clip492)" d="
M532.153 1432.66 L532.153 1445.72 L613.13 1445.72 L613.13 1432.66 L532.153 1432.66 L532.153 1432.66  Z
  " fill="#009af9" fill-rule="evenodd" fill-opacity="1"/>
<polyline clip-path="url(#clip492)" style="stroke:#000000; stroke-linecap:round; stroke-linejoin:round; stroke-width:4; stroke-opacity:1; fill:none" points="
  532.153,1432.66 532.153,1445.72 613.13,1445.72 613.13,1432.66 532.153,1432.66 
  "/>
<path clip-path="url(#clip492)" d="
M613.13 1432.66 L613.13 1445.72 L694.106 1445.72 L694.106 1432.66 L613.13 1432.66 L613.13 1432.66  Z
  " fill="#009af9" fill-rule="evenodd" fill-opacity="1"/>
<polyline clip-path="url(#clip492)" style="stroke:#000000; stroke-linecap:round; stroke-linejoin:round; stroke-width:4; stroke-opacity:1; fill:none" points="
  613.13,1432.66 613.13,1445.72 694.106,1445.72 694.106,1432.66 613.13,1432.66 
  "/>
<path clip-path="url(#clip492)" d="
M694.106 1419.61 L694.106 1445.72 L775.082 1445.72 L775.082 1419.61 L694.106 1419.61 L694.106 1419.61  Z
  " fill="#009af9" fill-rule="evenodd" fill-opacity="1"/>
<polyline clip-path="url(#clip492)" style="stroke:#000000; stroke-linecap:round; stroke-linejoin:round; stroke-width:4; stroke-opacity:1; fill:none" points="
  694.106,1419.61 694.106,1445.72 775.082,1445.72 775.082,1419.61 694.106,1419.61 
  "/>
<path clip-path="url(#clip492)" d="
M775.082 1367.38 L775.082 1445.72 L856.058 1445.72 L856.058 1367.38 L775.082 1367.38 L775.082 1367.38  Z
  " fill="#009af9" fill-rule="evenodd" fill-opacity="1"/>
<polyline clip-path="url(#clip492)" style="stroke:#000000; stroke-linecap:round; stroke-linejoin:round; stroke-width:4; stroke-opacity:1; fill:none" points="
  775.082,1367.38 775.082,1445.72 856.058,1445.72 856.058,1367.38 775.082,1367.38 
  "/>
<path clip-path="url(#clip492)" d="
M856.058 1341.27 L856.058 1445.72 L937.034 1445.72 L937.034 1341.27 L856.058 1341.27 L856.058 1341.27  Z
  " fill="#009af9" fill-rule="evenodd" fill-opacity="1"/>
<polyline clip-path="url(#clip492)" style="stroke:#000000; stroke-linecap:round; stroke-linejoin:round; stroke-width:4; stroke-opacity:1; fill:none" points="
  856.058,1341.27 856.058,1445.72 937.034,1445.72 937.034,1341.27 856.058,1341.27 
  "/>
<path clip-path="url(#clip492)" d="
M937.034 1249.89 L937.034 1445.72 L1018.01 1445.72 L1018.01 1249.89 L937.034 1249.89 L937.034 1249.89  Z
  " fill="#009af9" fill-rule="evenodd" fill-opacity="1"/>
<polyline clip-path="url(#clip492)" style="stroke:#000000; stroke-linecap:round; stroke-linejoin:round; stroke-width:4; stroke-opacity:1; fill:none" points="
  937.034,1249.89 937.034,1445.72 1018.01,1445.72 1018.01,1249.89 937.034,1249.89 
  "/>
<path clip-path="url(#clip492)" d="
M1018.01 1223.78 L1018.01 1445.72 L1098.99 1445.72 L1098.99 1223.78 L1018.01 1223.78 L1018.01 1223.78  Z
  " fill="#009af9" fill-rule="evenodd" fill-opacity="1"/>
<polyline clip-path="url(#clip492)" style="stroke:#000000; stroke-linecap:round; stroke-linejoin:round; stroke-width:4; stroke-opacity:1; fill:none" points="
  1018.01,1223.78 1018.01,1445.72 1098.99,1445.72 1098.99,1223.78 1018.01,1223.78 
  "/>
<path clip-path="url(#clip492)" d="
M1098.99 832.122 L1098.99 1445.72 L1179.96 1445.72 L1179.96 832.122 L1098.99 832.122 L1098.99 832.122  Z
  " fill="#009af9" fill-rule="evenodd" fill-opacity="1"/>
<polyline clip-path="url(#clip492)" style="stroke:#000000; stroke-linecap:round; stroke-linejoin:round; stroke-width:4; stroke-opacity:1; fill:none" points="
  1098.99,832.122 1098.99,1445.72 1179.96,1445.72 1179.96,832.122 1098.99,832.122 
  "/>
<path clip-path="url(#clip492)" d="
M1179.96 649.349 L1179.96 1445.72 L1260.94 1445.72 L1260.94 649.349 L1179.96 649.349 L1179.96 649.349  Z
  " fill="#009af9" fill-rule="evenodd" fill-opacity="1"/>
<polyline clip-path="url(#clip492)" style="stroke:#000000; stroke-linecap:round; stroke-linejoin:round; stroke-width:4; stroke-opacity:1; fill:none" points="
  1179.96,649.349 1179.96,1445.72 1260.94,1445.72 1260.94,649.349 1179.96,649.349 
  "/>
<path clip-path="url(#clip492)" d="
M1260.94 270.749 L1260.94 1445.72 L1341.91 1445.72 L1341.91 270.749 L1260.94 270.749 L1260.94 270.749  Z
  " fill="#009af9" fill-rule="evenodd" fill-opacity="1"/>
<polyline clip-path="url(#clip492)" style="stroke:#000000; stroke-linecap:round; stroke-linejoin:round; stroke-width:4; stroke-opacity:1; fill:none" points="
  1260.94,270.749 1260.94,1445.72 1341.91,1445.72 1341.91,270.749 1260.94,270.749 
  "/>
<path clip-path="url(#clip492)" d="
M1341.91 87.9763 L1341.91 1445.72 L1422.89 1445.72 L1422.89 87.9763 L1341.91 87.9763 L1341.91 87.9763  Z
  " fill="#009af9" fill-rule="evenodd" fill-opacity="1"/>
<polyline clip-path="url(#clip492)" style="stroke:#000000; stroke-linecap:round; stroke-linejoin:round; stroke-width:4; stroke-opacity:1; fill:none" points="
  1341.91,87.9763 1341.91,1445.72 1422.89,1445.72 1422.89,87.9763 1341.91,87.9763 
  "/>
<path clip-path="url(#clip492)" d="
M1422.89 636.294 L1422.89 1445.72 L1503.87 1445.72 L1503.87 636.294 L1422.89 636.294 L1422.89 636.294  Z
  " fill="#009af9" fill-rule="evenodd" fill-opacity="1"/>
<polyline clip-path="url(#clip492)" style="stroke:#000000; stroke-linecap:round; stroke-linejoin:round; stroke-width:4; stroke-opacity:1; fill:none" points="
  1422.89,636.294 1422.89,1445.72 1503.87,1445.72 1503.87,636.294 1422.89,636.294 
  "/>
<path clip-path="url(#clip492)" d="
M1503.87 1041 L1503.87 1445.72 L1584.84 1445.72 L1584.84 1041 L1503.87 1041 L1503.87 1041  Z
  " fill="#009af9" fill-rule="evenodd" fill-opacity="1"/>
<polyline clip-path="url(#clip492)" style="stroke:#000000; stroke-linecap:round; stroke-linejoin:round; stroke-width:4; stroke-opacity:1; fill:none" points="
  1503.87,1041 1503.87,1445.72 1584.84,1445.72 1584.84,1041 1503.87,1041 
  "/>
<path clip-path="url(#clip492)" d="
M1584.84 1132.39 L1584.84 1445.72 L1665.82 1445.72 L1665.82 1132.39 L1584.84 1132.39 L1584.84 1132.39  Z
  " fill="#009af9" fill-rule="evenodd" fill-opacity="1"/>
<polyline clip-path="url(#clip492)" style="stroke:#000000; stroke-linecap:round; stroke-linejoin:round; stroke-width:4; stroke-opacity:1; fill:none" points="
  1584.84,1132.39 1584.84,1445.72 1665.82,1445.72 1665.82,1132.39 1584.84,1132.39 
  "/>
<path clip-path="url(#clip492)" d="
M1665.82 1328.22 L1665.82 1445.72 L1746.8 1445.72 L1746.8 1328.22 L1665.82 1328.22 L1665.82 1328.22  Z
  " fill="#009af9" fill-rule="evenodd" fill-opacity="1"/>
<polyline clip-path="url(#clip492)" style="stroke:#000000; stroke-linecap:round; stroke-linejoin:round; stroke-width:4; stroke-opacity:1; fill:none" points="
  1665.82,1328.22 1665.82,1445.72 1746.8,1445.72 1746.8,1328.22 1665.82,1328.22 
  "/>
<path clip-path="url(#clip492)" d="
M1746.8 1315.16 L1746.8 1445.72 L1827.77 1445.72 L1827.77 1315.16 L1746.8 1315.16 L1746.8 1315.16  Z
  " fill="#009af9" fill-rule="evenodd" fill-opacity="1"/>
<polyline clip-path="url(#clip492)" style="stroke:#000000; stroke-linecap:round; stroke-linejoin:round; stroke-width:4; stroke-opacity:1; fill:none" points="
  1746.8,1315.16 1746.8,1445.72 1827.77,1445.72 1827.77,1315.16 1746.8,1315.16 
  "/>
<path clip-path="url(#clip492)" d="
M1827.77 1393.49 L1827.77 1445.72 L1908.75 1445.72 L1908.75 1393.49 L1827.77 1393.49 L1827.77 1393.49  Z
  " fill="#009af9" fill-rule="evenodd" fill-opacity="1"/>
<polyline clip-path="url(#clip492)" style="stroke:#000000; stroke-linecap:round; stroke-linejoin:round; stroke-width:4; stroke-opacity:1; fill:none" points="
  1827.77,1393.49 1827.77,1445.72 1908.75,1445.72 1908.75,1393.49 1827.77,1393.49 
  "/>
<path clip-path="url(#clip492)" d="
M1908.75 1393.49 L1908.75 1445.72 L1989.72 1445.72 L1989.72 1393.49 L1908.75 1393.49 L1908.75 1393.49  Z
  " fill="#009af9" fill-rule="evenodd" fill-opacity="1"/>
<polyline clip-path="url(#clip492)" style="stroke:#000000; stroke-linecap:round; stroke-linejoin:round; stroke-width:4; stroke-opacity:1; fill:none" points="
  1908.75,1393.49 1908.75,1445.72 1989.72,1445.72 1989.72,1393.49 1908.75,1393.49 
  "/>
<path clip-path="url(#clip492)" d="
M1989.72 1445.72 L1989.72 1445.72 L2070.7 1445.72 L2070.7 1445.72 L1989.72 1445.72 L1989.72 1445.72  Z
  " fill="#009af9" fill-rule="evenodd" fill-opacity="1"/>
<polyline clip-path="url(#clip492)" style="stroke:#000000; stroke-linecap:round; stroke-linejoin:round; stroke-width:4; stroke-opacity:1; fill:none" points="
  1989.72,1445.72 1989.72,1445.72 2070.7,1445.72 1989.72,1445.72 
  "/>
<path clip-path="url(#clip492)" d="
M2070.7 1445.72 L2070.7 1445.72 L2151.68 1445.72 L2151.68 1445.72 L2070.7 1445.72 L2070.7 1445.72  Z
  " fill="#009af9" fill-rule="evenodd" fill-opacity="1"/>
<polyline clip-path="url(#clip492)" style="stroke:#000000; stroke-linecap:round; stroke-linejoin:round; stroke-width:4; stroke-opacity:1; fill:none" points="
  2070.7,1445.72 2070.7,1445.72 2151.68,1445.72 2070.7,1445.72 
  "/>
<path clip-path="url(#clip492)" d="
M2151.68 1432.66 L2151.68 1445.72 L2232.65 1445.72 L2232.65 1432.66 L2151.68 1432.66 L2151.68 1432.66  Z
  " fill="#009af9" fill-rule="evenodd" fill-opacity="1"/>
<polyline clip-path="url(#clip492)" style="stroke:#000000; stroke-linecap:round; stroke-linejoin:round; stroke-width:4; stroke-opacity:1; fill:none" points="
  2151.68,1432.66 2151.68,1445.72 2232.65,1445.72 2232.65,1432.66 2151.68,1432.66 
  "/>
<circle clip-path="url(#clip492)" style="fill:#009af9; stroke:none; fill-opacity:0" cx="329.713" cy="1419.61" r="2"/>
<circle clip-path="url(#clip492)" style="fill:#009af9; stroke:none; fill-opacity:0" cx="410.689" cy="1432.66" r="2"/>
<circle clip-path="url(#clip492)" style="fill:#009af9; stroke:none; fill-opacity:0" cx="491.665" cy="1445.72" r="2"/>
<circle clip-path="url(#clip492)" style="fill:#009af9; stroke:none; fill-opacity:0" cx="572.642" cy="1432.66" r="2"/>
<circle clip-path="url(#clip492)" style="fill:#009af9; stroke:none; fill-opacity:0" cx="653.618" cy="1432.66" r="2"/>
<circle clip-path="url(#clip492)" style="fill:#009af9; stroke:none; fill-opacity:0" cx="734.594" cy="1419.61" r="2"/>
<circle clip-path="url(#clip492)" style="fill:#009af9; stroke:none; fill-opacity:0" cx="815.57" cy="1367.38" r="2"/>
<circle clip-path="url(#clip492)" style="fill:#009af9; stroke:none; fill-opacity:0" cx="896.546" cy="1341.27" r="2"/>
<circle clip-path="url(#clip492)" style="fill:#009af9; stroke:none; fill-opacity:0" cx="977.522" cy="1249.89" r="2"/>
<circle clip-path="url(#clip492)" style="fill:#009af9; stroke:none; fill-opacity:0" cx="1058.5" cy="1223.78" r="2"/>
<circle clip-path="url(#clip492)" style="fill:#009af9; stroke:none; fill-opacity:0" cx="1139.47" cy="832.122" r="2"/>
<circle clip-path="url(#clip492)" style="fill:#009af9; stroke:none; fill-opacity:0" cx="1220.45" cy="649.349" r="2"/>
<circle clip-path="url(#clip492)" style="fill:#009af9; stroke:none; fill-opacity:0" cx="1301.43" cy="270.749" r="2"/>
<circle clip-path="url(#clip492)" style="fill:#009af9; stroke:none; fill-opacity:0" cx="1382.4" cy="87.9763" r="2"/>
<circle clip-path="url(#clip492)" style="fill:#009af9; stroke:none; fill-opacity:0" cx="1463.38" cy="636.294" r="2"/>
<circle clip-path="url(#clip492)" style="fill:#009af9; stroke:none; fill-opacity:0" cx="1544.36" cy="1041" r="2"/>
<circle clip-path="url(#clip492)" style="fill:#009af9; stroke:none; fill-opacity:0" cx="1625.33" cy="1132.39" r="2"/>
<circle clip-path="url(#clip492)" style="fill:#009af9; stroke:none; fill-opacity:0" cx="1706.31" cy="1328.22" r="2"/>
<circle clip-path="url(#clip492)" style="fill:#009af9; stroke:none; fill-opacity:0" cx="1787.28" cy="1315.16" r="2"/>
<circle clip-path="url(#clip492)" style="fill:#009af9; stroke:none; fill-opacity:0" cx="1868.26" cy="1393.49" r="2"/>
<circle clip-path="url(#clip492)" style="fill:#009af9; stroke:none; fill-opacity:0" cx="1949.24" cy="1393.49" r="2"/>
<circle clip-path="url(#clip492)" style="fill:#009af9; stroke:none; fill-opacity:0" cx="2030.21" cy="1445.72" r="2"/>
<circle clip-path="url(#clip492)" style="fill:#009af9; stroke:none; fill-opacity:0" cx="2111.19" cy="1445.72" r="2"/>
<circle clip-path="url(#clip492)" style="fill:#009af9; stroke:none; fill-opacity:0" cx="2192.16" cy="1432.66" r="2"/>
<path clip-path="url(#clip490)" d="
M2009.17 198.898 L2279.97 198.898 L2279.97 95.2176 L2009.17 95.2176  Z
  " fill="#ffffff" fill-rule="evenodd" fill-opacity="1"/>
<polyline clip-path="url(#clip490)" style="stroke:#000000; stroke-linecap:round; stroke-linejoin:round; stroke-width:4; stroke-opacity:1; fill:none" points="
  2009.17,198.898 2279.97,198.898 2279.97,95.2176 2009.17,95.2176 2009.17,198.898 
  "/>
<path clip-path="url(#clip490)" d="
M2033.44 167.794 L2179.01 167.794 L2179.01 126.322 L2033.44 126.322 L2033.44 167.794  Z
  " fill="#009af9" fill-rule="evenodd" fill-opacity="1"/>
<polyline clip-path="url(#clip490)" style="stroke:#000000; stroke-linecap:round; stroke-linejoin:round; stroke-width:4; stroke-opacity:1; fill:none" points="
  2033.44,167.794 2179.01,167.794 2179.01,126.322 2033.44,126.322 2033.44,167.794 
  "/>
<path clip-path="url(#clip490)" d="M2217.12 166.745 Q2215.31 171.375 2213.6 172.787 Q2211.89 174.199 2209.02 174.199 L2205.61 174.199 L2205.61 170.634 L2208.11 170.634 Q2209.87 170.634 2210.84 169.8 Q2211.82 168.967 2213 165.865 L2213.76 163.921 L2203.28 138.412 L2207.79 138.412 L2215.89 158.689 L2223.99 138.412 L2228.51 138.412 L2217.12 166.745 Z" fill="#000000" fill-rule="evenodd" fill-opacity="1" /><path clip-path="url(#clip490)" d="M2235.8 160.402 L2243.44 160.402 L2243.44 134.037 L2235.13 135.703 L2235.13 131.444 L2243.39 129.778 L2248.07 129.778 L2248.07 160.402 L2255.71 160.402 L2255.71 164.338 L2235.8 164.338 L2235.8 160.402 Z" fill="#000000" fill-rule="evenodd" fill-opacity="1" /></svg>
