<?xml version="1.0" encoding="utf-8"?>
<svg xmlns="http://www.w3.org/2000/svg" xmlns:xlink="http://www.w3.org/1999/xlink" width="600" height="400" viewBox="0 0 2400 1600">
<defs>
  <clipPath id="clip610">
    <rect x="0" y="0" width="2400" height="1600"/>
  </clipPath>
</defs>
<path clip-path="url(#clip610)" d="
M0 1600 L2400 1600 L2400 0 L0 0  Z
  " fill="#ffffff" fill-rule="evenodd" fill-opacity="1"/>
<defs>
  <clipPath id="clip611">
    <rect x="480" y="0" width="1681" height="1600"/>
  </clipPath>
</defs>
<path clip-path="url(#clip610)" d="
M169.121 1486.45 L2352.76 1486.45 L2352.76 47.2441 L169.121 47.2441  Z
  " fill="#ffffff" fill-rule="evenodd" fill-opacity="1"/>
<defs>
  <clipPath id="clip612">
    <rect x="169" y="47" width="2185" height="1440"/>
  </clipPath>
</defs>
<polyline clip-path="url(#clip612)" style="stroke:#000000; stroke-linecap:butt; stroke-linejoin:round; stroke-width:2; stroke-opacity:0.1; fill:none" points="
  451.177,1486.45 451.177,47.2441 
  "/>
<polyline clip-path="url(#clip612)" style="stroke:#000000; stroke-linecap:butt; stroke-linejoin:round; stroke-width:2; stroke-opacity:0.1; fill:none" points="
  856.058,1486.45 856.058,47.2441 
  "/>
<polyline clip-path="url(#clip612)" style="stroke:#000000; stroke-linecap:butt; stroke-linejoin:round; stroke-width:2; stroke-opacity:0.1; fill:none" points="
  1260.94,1486.45 1260.94,47.2441 
  "/>
<polyline clip-path="url(#clip612)" style="stroke:#000000; stroke-linecap:butt; stroke-linejoin:round; stroke-width:2; stroke-opacity:0.1; fill:none" points="
  1665.82,1486.45 1665.82,47.2441 
  "/>
<polyline clip-path="url(#clip612)" style="stroke:#000000; stroke-linecap:butt; stroke-linejoin:round; stroke-width:2; stroke-opacity:0.1; fill:none" points="
  2070.7,1486.45 2070.7,47.2441 
  "/>
<polyline clip-path="url(#clip610)" style="stroke:#000000; stroke-linecap:butt; stroke-linejoin:round; stroke-width:4; stroke-opacity:1; fill:none" points="
  169.121,1486.45 2352.76,1486.45 
  "/>
<polyline clip-path="url(#clip610)" style="stroke:#000000; stroke-linecap:butt; stroke-linejoin:round; stroke-width:4; stroke-opacity:1; fill:none" points="
  451.177,1486.45 451.177,1467.55 
  "/>
<polyline clip-path="url(#clip610)" style="stroke:#000000; stroke-linecap:butt; stroke-linejoin:round; stroke-width:4; stroke-opacity:1; fill:none" points="
  856.058,1486.45 856.058,1467.55 
  "/>
<polyline clip-path="url(#clip610)" style="stroke:#000000; stroke-linecap:butt; stroke-linejoin:round; stroke-width:4; stroke-opacity:1; fill:none" points="
  1260.94,1486.45 1260.94,1467.55 
  "/>
<polyline clip-path="url(#clip610)" style="stroke:#000000; stroke-linecap:butt; stroke-linejoin:round; stroke-width:4; stroke-opacity:1; fill:none" points="
  1665.82,1486.45 1665.82,1467.55 
  "/>
<polyline clip-path="url(#clip610)" style="stroke:#000000; stroke-linecap:butt; stroke-linejoin:round; stroke-width:4; stroke-opacity:1; fill:none" points="
  2070.7,1486.45 2070.7,1467.55 
  "/>
<path clip-path="url(#clip610)" d="M397.705 1532.02 L427.381 1532.02 L427.381 1535.95 L397.705 1535.95 L397.705 1532.02 Z" fill="#000000" fill-rule="evenodd" fill-opacity="1" /><path clip-path="url(#clip610)" d="M437.52 1514.29 L455.876 1514.29 L455.876 1518.22 L441.802 1518.22 L441.802 1526.7 Q442.821 1526.35 443.839 1526.19 Q444.858 1526 445.876 1526 Q451.663 1526 455.043 1529.17 Q458.423 1532.34 458.423 1537.76 Q458.423 1543.34 454.95 1546.44 Q451.478 1549.52 445.159 1549.52 Q442.983 1549.52 440.714 1549.15 Q438.469 1548.78 436.062 1548.04 L436.062 1543.34 Q438.145 1544.47 440.367 1545.03 Q442.589 1545.58 445.066 1545.58 Q449.071 1545.58 451.409 1543.48 Q453.747 1541.37 453.747 1537.76 Q453.747 1534.15 451.409 1532.04 Q449.071 1529.94 445.066 1529.94 Q443.191 1529.94 441.316 1530.35 Q439.464 1530.77 437.52 1531.65 L437.52 1514.29 Z" fill="#000000" fill-rule="evenodd" fill-opacity="1" /><path clip-path="url(#clip610)" d="M467.636 1542.97 L472.52 1542.97 L472.52 1548.85 L467.636 1548.85 L467.636 1542.97 Z" fill="#000000" fill-rule="evenodd" fill-opacity="1" /><path clip-path="url(#clip610)" d="M492.705 1517.37 Q489.094 1517.37 487.265 1520.93 Q485.46 1524.47 485.46 1531.6 Q485.46 1538.71 487.265 1542.27 Q489.094 1545.82 492.705 1545.82 Q496.339 1545.82 498.145 1542.27 Q499.973 1538.71 499.973 1531.6 Q499.973 1524.47 498.145 1520.93 Q496.339 1517.37 492.705 1517.37 M492.705 1513.66 Q498.515 1513.66 501.571 1518.27 Q504.649 1522.85 504.649 1531.6 Q504.649 1540.33 501.571 1544.94 Q498.515 1549.52 492.705 1549.52 Q486.895 1549.52 483.816 1544.94 Q480.761 1540.33 480.761 1531.6 Q480.761 1522.85 483.816 1518.27 Q486.895 1513.66 492.705 1513.66 Z" fill="#000000" fill-rule="evenodd" fill-opacity="1" /><path clip-path="url(#clip610)" d="M803.084 1532.02 L832.759 1532.02 L832.759 1535.95 L803.084 1535.95 L803.084 1532.02 Z" fill="#000000" fill-rule="evenodd" fill-opacity="1" /><path clip-path="url(#clip610)" d="M846.88 1544.91 L863.199 1544.91 L863.199 1548.85 L841.255 1548.85 L841.255 1544.91 Q843.917 1542.16 848.5 1537.53 Q853.107 1532.88 854.287 1531.53 Q856.533 1529.01 857.412 1527.27 Q858.315 1525.51 858.315 1523.82 Q858.315 1521.07 856.37 1519.33 Q854.449 1517.6 851.347 1517.6 Q849.148 1517.6 846.695 1518.36 Q844.264 1519.13 841.486 1520.68 L841.486 1515.95 Q844.31 1514.82 846.764 1514.24 Q849.218 1513.66 851.255 1513.66 Q856.625 1513.66 859.82 1516.35 Q863.014 1519.03 863.014 1523.52 Q863.014 1525.65 862.204 1527.57 Q861.417 1529.47 859.31 1532.07 Q858.732 1532.74 855.63 1535.95 Q852.528 1539.15 846.88 1544.91 Z" fill="#000000" fill-rule="evenodd" fill-opacity="1" /><path clip-path="url(#clip610)" d="M873.014 1542.97 L877.898 1542.97 L877.898 1548.85 L873.014 1548.85 L873.014 1542.97 Z" fill="#000000" fill-rule="evenodd" fill-opacity="1" /><path clip-path="url(#clip610)" d="M888.13 1514.29 L906.486 1514.29 L906.486 1518.22 L892.412 1518.22 L892.412 1526.7 Q893.43 1526.35 894.449 1526.19 Q895.467 1526 896.486 1526 Q902.273 1526 905.653 1529.17 Q909.032 1532.34 909.032 1537.76 Q909.032 1543.34 905.56 1546.44 Q902.088 1549.52 895.768 1549.52 Q893.593 1549.52 891.324 1549.15 Q889.079 1548.78 886.671 1548.04 L886.671 1543.34 Q888.755 1544.47 890.977 1545.03 Q893.199 1545.58 895.676 1545.58 Q899.68 1545.58 902.018 1543.48 Q904.356 1541.37 904.356 1537.76 Q904.356 1534.15 902.018 1532.04 Q899.68 1529.94 895.676 1529.94 Q893.801 1529.94 891.926 1530.35 Q890.074 1530.77 888.13 1531.65 L888.13 1514.29 Z" fill="#000000" fill-rule="evenodd" fill-opacity="1" /><path clip-path="url(#clip610)" d="M1238.32 1517.37 Q1234.71 1517.37 1232.88 1520.93 Q1231.08 1524.47 1231.08 1531.6 Q1231.08 1538.71 1232.88 1542.27 Q1234.71 1545.82 1238.32 1545.82 Q1241.96 1545.82 1243.76 1542.27 Q1245.59 1538.71 1245.59 1531.6 Q1245.59 1524.47 1243.76 1520.93 Q1241.96 1517.37 1238.32 1517.37 M1238.32 1513.66 Q1244.13 1513.66 1247.19 1518.27 Q1250.27 1522.85 1250.27 1531.6 Q1250.27 1540.33 1247.19 1544.94 Q1244.13 1549.52 1238.32 1549.52 Q1232.51 1549.52 1229.43 1544.94 Q1226.38 1540.33 1226.38 1531.6 Q1226.38 1522.85 1229.43 1518.27 Q1232.51 1513.66 1238.32 1513.66 Z" fill="#000000" fill-rule="evenodd" fill-opacity="1" /><path clip-path="url(#clip610)" d="M1258.48 1542.97 L1263.37 1542.97 L1263.37 1548.85 L1258.48 1548.85 L1258.48 1542.97 Z" fill="#000000" fill-rule="evenodd" fill-opacity="1" /><path clip-path="url(#clip610)" d="M1283.55 1517.37 Q1279.94 1517.37 1278.11 1520.93 Q1276.31 1524.47 1276.31 1531.6 Q1276.31 1538.71 1278.11 1542.27 Q1279.94 1545.82 1283.55 1545.82 Q1287.19 1545.82 1288.99 1542.27 Q1290.82 1538.71 1290.82 1531.6 Q1290.82 1524.47 1288.99 1520.93 Q1287.19 1517.37 1283.55 1517.37 M1283.55 1513.66 Q1289.36 1513.66 1292.42 1518.27 Q1295.5 1522.85 1295.5 1531.6 Q1295.5 1540.33 1292.42 1544.94 Q1289.36 1549.52 1283.55 1549.52 Q1277.74 1549.52 1274.67 1544.94 Q1271.61 1540.33 1271.61 1531.6 Q1271.61 1522.85 1274.67 1518.27 Q1277.74 1513.66 1283.55 1513.66 Z" fill="#000000" fill-rule="evenodd" fill-opacity="1" /><path clip-path="url(#clip610)" d="M1637.56 1544.91 L1653.87 1544.91 L1653.87 1548.85 L1631.93 1548.85 L1631.93 1544.91 Q1634.59 1542.16 1639.18 1537.53 Q1643.78 1532.88 1644.96 1531.53 Q1647.21 1529.01 1648.09 1527.27 Q1648.99 1525.51 1648.99 1523.82 Q1648.99 1521.07 1647.05 1519.33 Q1645.12 1517.6 1642.02 1517.6 Q1639.82 1517.6 1637.37 1518.36 Q1634.94 1519.13 1632.16 1520.68 L1632.16 1515.95 Q1634.99 1514.82 1637.44 1514.24 Q1639.89 1513.66 1641.93 1513.66 Q1647.3 1513.66 1650.5 1516.35 Q1653.69 1519.03 1653.69 1523.52 Q1653.69 1525.65 1652.88 1527.57 Q1652.09 1529.47 1649.99 1532.07 Q1649.41 1532.74 1646.31 1535.95 Q1643.2 1539.15 1637.56 1544.91 Z" fill="#000000" fill-rule="evenodd" fill-opacity="1" /><path clip-path="url(#clip610)" d="M1663.69 1542.97 L1668.57 1542.97 L1668.57 1548.85 L1663.69 1548.85 L1663.69 1542.97 Z" fill="#000000" fill-rule="evenodd" fill-opacity="1" /><path clip-path="url(#clip610)" d="M1678.81 1514.29 L1697.16 1514.29 L1697.16 1518.22 L1683.09 1518.22 L1683.09 1526.7 Q1684.11 1526.35 1685.12 1526.19 Q1686.14 1526 1687.16 1526 Q1692.95 1526 1696.33 1529.17 Q1699.71 1532.34 1699.71 1537.76 Q1699.71 1543.34 1696.24 1546.44 Q1692.76 1549.52 1686.44 1549.52 Q1684.27 1549.52 1682 1549.15 Q1679.75 1548.78 1677.35 1548.04 L1677.35 1543.34 Q1679.43 1544.47 1681.65 1545.03 Q1683.87 1545.58 1686.35 1545.58 Q1690.36 1545.58 1692.69 1543.48 Q1695.03 1541.37 1695.03 1537.76 Q1695.03 1534.15 1692.69 1532.04 Q1690.36 1529.94 1686.35 1529.94 Q1684.48 1529.94 1682.6 1530.35 Q1680.75 1530.77 1678.81 1531.65 L1678.81 1514.29 Z" fill="#000000" fill-rule="evenodd" fill-opacity="1" /><path clip-path="url(#clip610)" d="M2037.86 1514.29 L2056.22 1514.29 L2056.22 1518.22 L2042.15 1518.22 L2042.15 1526.7 Q2043.17 1526.35 2044.18 1526.19 Q2045.2 1526 2046.22 1526 Q2052.01 1526 2055.39 1529.17 Q2058.77 1532.34 2058.77 1537.76 Q2058.77 1543.34 2055.29 1546.44 Q2051.82 1549.52 2045.5 1549.52 Q2043.33 1549.52 2041.06 1549.15 Q2038.81 1548.78 2036.41 1548.04 L2036.41 1543.34 Q2038.49 1544.47 2040.71 1545.03 Q2042.93 1545.58 2045.41 1545.58 Q2049.42 1545.58 2051.75 1543.48 Q2054.09 1541.37 2054.09 1537.76 Q2054.09 1534.15 2051.75 1532.04 Q2049.42 1529.94 2045.41 1529.94 Q2043.54 1529.94 2041.66 1530.35 Q2039.81 1530.77 2037.86 1531.65 L2037.86 1514.29 Z" fill="#000000" fill-rule="evenodd" fill-opacity="1" /><path clip-path="url(#clip610)" d="M2067.98 1542.97 L2072.86 1542.97 L2072.86 1548.85 L2067.98 1548.85 L2067.98 1542.97 Z" fill="#000000" fill-rule="evenodd" fill-opacity="1" /><path clip-path="url(#clip610)" d="M2093.05 1517.37 Q2089.44 1517.37 2087.61 1520.93 Q2085.8 1524.47 2085.8 1531.6 Q2085.8 1538.71 2087.61 1542.27 Q2089.44 1545.82 2093.05 1545.82 Q2096.68 1545.82 2098.49 1542.27 Q2100.32 1538.71 2100.32 1531.6 Q2100.32 1524.47 2098.49 1520.93 Q2096.68 1517.37 2093.05 1517.37 M2093.05 1513.66 Q2098.86 1513.66 2101.91 1518.27 Q2104.99 1522.85 2104.99 1531.6 Q2104.99 1540.33 2101.91 1544.94 Q2098.86 1549.52 2093.05 1549.52 Q2087.24 1549.52 2084.16 1544.94 Q2081.1 1540.33 2081.1 1531.6 Q2081.1 1522.85 2084.16 1518.27 Q2087.24 1513.66 2093.05 1513.66 Z" fill="#000000" fill-rule="evenodd" fill-opacity="1" /><polyline clip-path="url(#clip612)" style="stroke:#000000; stroke-linecap:butt; stroke-linejoin:round; stroke-width:2; stroke-opacity:0.1; fill:none" points="
  169.121,1445.72 2352.76,1445.72 
  "/>
<polyline clip-path="url(#clip612)" style="stroke:#000000; stroke-linecap:butt; stroke-linejoin:round; stroke-width:2; stroke-opacity:0.1; fill:none" points="
  169.121,1116.17 2352.76,1116.17 
  "/>
<polyline clip-path="url(#clip612)" style="stroke:#000000; stroke-linecap:butt; stroke-linejoin:round; stroke-width:2; stroke-opacity:0.1; fill:none" points="
  169.121,786.619 2352.76,786.619 
  "/>
<polyline clip-path="url(#clip612)" style="stroke:#000000; stroke-linecap:butt; stroke-linejoin:round; stroke-width:2; stroke-opacity:0.1; fill:none" points="
  169.121,457.07 2352.76,457.07 
  "/>
<polyline clip-path="url(#clip612)" style="stroke:#000000; stroke-linecap:butt; stroke-linejoin:round; stroke-width:2; stroke-opacity:0.1; fill:none" points="
  169.121,127.522 2352.76,127.522 
  "/>
<polyline clip-path="url(#clip610)" style="stroke:#000000; stroke-linecap:butt; stroke-linejoin:round; stroke-width:4; stroke-opacity:1; fill:none" points="
  169.121,1486.45 169.121,47.2441 
  "/>
<polyline clip-path="url(#clip610)" style="stroke:#000000; stroke-linecap:butt; stroke-linejoin:round; stroke-width:4; stroke-opacity:1; fill:none" points="
  169.121,1445.72 188.019,1445.72 
  "/>
<polyline clip-path="url(#clip610)" style="stroke:#000000; stroke-linecap:butt; stroke-linejoin:round; stroke-width:4; stroke-opacity:1; fill:none" points="
  169.121,1116.17 188.019,1116.17 
  "/>
<polyline clip-path="url(#clip610)" style="stroke:#000000; stroke-linecap:butt; stroke-linejoin:round; stroke-width:4; stroke-opacity:1; fill:none" points="
  169.121,786.619 188.019,786.619 
  "/>
<polyline clip-path="url(#clip610)" style="stroke:#000000; stroke-linecap:butt; stroke-linejoin:round; stroke-width:4; stroke-opacity:1; fill:none" points="
  169.121,457.07 188.019,457.07 
  "/>
<polyline clip-path="url(#clip610)" style="stroke:#000000; stroke-linecap:butt; stroke-linejoin:round; stroke-width:4; stroke-opacity:1; fill:none" points="
  169.121,127.522 188.019,127.522 
  "/>
<path clip-path="url(#clip610)" d="M121.177 1431.51 Q117.566 1431.51 115.737 1435.08 Q113.932 1438.62 113.932 1445.75 Q113.932 1452.86 115.737 1456.42 Q117.566 1459.96 121.177 1459.96 Q124.811 1459.96 126.617 1456.42 Q128.445 1452.86 128.445 1445.75 Q128.445 1438.62 126.617 1435.08 Q124.811 1431.51 121.177 1431.51 M121.177 1427.81 Q126.987 1427.81 130.043 1432.42 Q133.121 1437 133.121 1445.75 Q133.121 1454.48 130.043 1459.08 Q126.987 1463.67 121.177 1463.67 Q115.367 1463.67 112.288 1459.08 Q109.233 1454.48 109.233 1445.75 Q109.233 1437 112.288 1432.42 Q115.367 1427.81 121.177 1427.81 Z" fill="#000000" fill-rule="evenodd" fill-opacity="1" /><path clip-path="url(#clip610)" d="M86.0382 1129.51 L102.358 1129.51 L102.358 1133.45 L80.4133 1133.45 L80.4133 1129.51 Q83.0753 1126.76 87.6586 1122.13 Q92.2651 1117.48 93.4456 1116.13 Q95.691 1113.61 96.5706 1111.87 Q97.4734 1110.11 97.4734 1108.42 Q97.4734 1105.67 95.5289 1103.93 Q93.6076 1102.2 90.5058 1102.2 Q88.3067 1102.2 85.8531 1102.96 Q83.4225 1103.73 80.6447 1105.28 L80.6447 1100.55 Q83.4688 1099.42 85.9225 1098.84 Q88.3762 1098.26 90.4132 1098.26 Q95.7836 1098.26 98.978 1100.95 Q102.172 1103.63 102.172 1108.12 Q102.172 1110.25 101.362 1112.17 Q100.575 1114.07 98.4687 1116.66 Q97.89 1117.34 94.7882 1120.55 Q91.6864 1123.75 86.0382 1129.51 Z" fill="#000000" fill-rule="evenodd" fill-opacity="1" /><path clip-path="url(#clip610)" d="M112.219 1098.89 L130.575 1098.89 L130.575 1102.82 L116.501 1102.82 L116.501 1111.29 Q117.52 1110.95 118.538 1110.79 Q119.557 1110.6 120.575 1110.6 Q126.362 1110.6 129.742 1113.77 Q133.121 1116.94 133.121 1122.36 Q133.121 1127.94 129.649 1131.04 Q126.177 1134.12 119.857 1134.12 Q117.682 1134.12 115.413 1133.75 Q113.168 1133.38 110.76 1132.64 L110.76 1127.94 Q112.844 1129.07 115.066 1129.63 Q117.288 1130.18 119.765 1130.18 Q123.77 1130.18 126.107 1128.08 Q128.445 1125.97 128.445 1122.36 Q128.445 1118.75 126.107 1116.64 Q123.77 1114.54 119.765 1114.54 Q117.89 1114.54 116.015 1114.95 Q114.163 1115.37 112.219 1116.25 L112.219 1098.89 Z" fill="#000000" fill-rule="evenodd" fill-opacity="1" /><path clip-path="url(#clip610)" d="M81.0614 769.339 L99.4178 769.339 L99.4178 773.274 L85.3438 773.274 L85.3438 781.746 Q86.3623 781.399 87.3808 781.237 Q88.3993 781.052 89.4178 781.052 Q95.2049 781.052 98.5845 784.223 Q101.964 787.394 101.964 792.811 Q101.964 798.39 98.4919 801.491 Q95.0197 804.57 88.7003 804.57 Q86.5243 804.57 84.2558 804.2 Q82.0105 803.829 79.6031 803.089 L79.6031 798.39 Q81.6864 799.524 83.9086 800.079 Q86.1308 800.635 88.6077 800.635 Q92.6123 800.635 94.9502 798.529 Q97.2882 796.422 97.2882 792.811 Q97.2882 789.2 94.9502 787.093 Q92.6123 784.987 88.6077 784.987 Q86.7327 784.987 84.8577 785.404 Q83.0058 785.82 81.0614 786.7 L81.0614 769.339 Z" fill="#000000" fill-rule="evenodd" fill-opacity="1" /><path clip-path="url(#clip610)" d="M121.177 772.418 Q117.566 772.418 115.737 775.982 Q113.932 779.524 113.932 786.654 Q113.932 793.76 115.737 797.325 Q117.566 800.866 121.177 800.866 Q124.811 800.866 126.617 797.325 Q128.445 793.76 128.445 786.654 Q128.445 779.524 126.617 775.982 Q124.811 772.418 121.177 772.418 M121.177 768.714 Q126.987 768.714 130.043 773.32 Q133.121 777.904 133.121 786.654 Q133.121 795.38 130.043 799.987 Q126.987 804.57 121.177 804.57 Q115.367 804.57 112.288 799.987 Q109.233 795.38 109.233 786.654 Q109.233 777.904 112.288 773.32 Q115.367 768.714 121.177 768.714 Z" fill="#000000" fill-rule="evenodd" fill-opacity="1" /><path clip-path="url(#clip610)" d="M80.8299 439.79 L103.052 439.79 L103.052 441.781 L90.5058 474.35 L85.6216 474.35 L97.4271 443.726 L80.8299 443.726 L80.8299 439.79 Z" fill="#000000" fill-rule="evenodd" fill-opacity="1" /><path clip-path="url(#clip610)" d="M112.219 439.79 L130.575 439.79 L130.575 443.726 L116.501 443.726 L116.501 452.198 Q117.52 451.851 118.538 451.689 Q119.557 451.503 120.575 451.503 Q126.362 451.503 129.742 454.675 Q133.121 457.846 133.121 463.263 Q133.121 468.841 129.649 471.943 Q126.177 475.022 119.857 475.022 Q117.682 475.022 115.413 474.651 Q113.168 474.281 110.76 473.54 L110.76 468.841 Q112.844 469.976 115.066 470.531 Q117.288 471.087 119.765 471.087 Q123.77 471.087 126.107 468.98 Q128.445 466.874 128.445 463.263 Q128.445 459.651 126.107 457.545 Q123.77 455.439 119.765 455.439 Q117.89 455.439 116.015 455.855 Q114.163 456.272 112.219 457.152 L112.219 439.79 Z" fill="#000000" fill-rule="evenodd" fill-opacity="1" /><path clip-path="url(#clip610)" d="M51.6634 140.867 L59.3023 140.867 L59.3023 114.501 L50.9921 116.168 L50.9921 111.909 L59.256 110.242 L63.9319 110.242 L63.9319 140.867 L71.5707 140.867 L71.5707 144.802 L51.6634 144.802 L51.6634 140.867 Z" fill="#000000" fill-rule="evenodd" fill-opacity="1" /><path clip-path="url(#clip610)" d="M91.0151 113.321 Q87.404 113.321 85.5753 116.886 Q83.7697 120.427 83.7697 127.557 Q83.7697 134.663 85.5753 138.228 Q87.404 141.77 91.0151 141.77 Q94.6493 141.77 96.4548 138.228 Q98.2835 134.663 98.2835 127.557 Q98.2835 120.427 96.4548 116.886 Q94.6493 113.321 91.0151 113.321 M91.0151 109.617 Q96.8252 109.617 99.8808 114.224 Q102.959 118.807 102.959 127.557 Q102.959 136.284 99.8808 140.89 Q96.8252 145.473 91.0151 145.473 Q85.2049 145.473 82.1262 140.89 Q79.0707 136.284 79.0707 127.557 Q79.0707 118.807 82.1262 114.224 Q85.2049 109.617 91.0151 109.617 Z" fill="#000000" fill-rule="evenodd" fill-opacity="1" /><path clip-path="url(#clip610)" d="M121.177 113.321 Q117.566 113.321 115.737 116.886 Q113.932 120.427 113.932 127.557 Q113.932 134.663 115.737 138.228 Q117.566 141.77 121.177 141.77 Q124.811 141.77 126.617 138.228 Q128.445 134.663 128.445 127.557 Q128.445 120.427 126.617 116.886 Q124.811 113.321 121.177 113.321 M121.177 109.617 Q126.987 109.617 130.043 114.224 Q133.121 118.807 133.121 127.557 Q133.121 136.284 130.043 140.89 Q126.987 145.473 121.177 145.473 Q115.367 145.473 112.288 140.89 Q109.233 136.284 109.233 127.557 Q109.233 118.807 112.288 114.224 Q115.367 109.617 121.177 109.617 Z" fill="#000000" fill-rule="evenodd" fill-opacity="1" /><path clip-path="url(#clip612)" d="
M289.225 1432.53 L289.225 1445.72 L370.201 1445.72 L370.201 1432.53 L289.225 1432.53 L289.225 1432.53  Z
  " fill="#009af9" fill-rule="evenodd" fill-opacity="1"/>
<polyline clip-path="url(#clip612)" style="stroke:#000000; stroke-linecap:butt; stroke-linejoin:round; stroke-width:4; stroke-opacity:1; fill:none" points="
  289.225,1432.53 289.225,1445.72 370.201,1445.72 370.201,1432.53 289.225,1432.53 
  "/>
<path clip-path="url(#clip612)" d="
M370.201 1445.72 L370.201 1445.72 L451.177 1445.72 L451.177 1445.72 L370.201 1445.72 L370.201 1445.72  Z
  " fill="#009af9" fill-rule="evenodd" fill-opacity="1"/>
<polyline clip-path="url(#clip612)" style="stroke:#000000; stroke-linecap:butt; stroke-linejoin:round; stroke-width:4; stroke-opacity:1; fill:none" points="
  370.201,1445.72 370.201,1445.72 451.177,1445.72 370.201,1445.72 
  "/>
<path clip-path="url(#clip612)" d="
M451.177 1419.35 L451.177 1445.72 L532.153 1445.72 L532.153 1419.35 L451.177 1419.35 L451.177 1419.35  Z
  " fill="#009af9" fill-rule="evenodd" fill-opacity="1"/>
<polyline clip-path="url(#clip612)" style="stroke:#000000; stroke-linecap:butt; stroke-linejoin:round; stroke-width:4; stroke-opacity:1; fill:none" points="
  451.177,1419.35 451.177,1445.72 532.153,1445.72 532.153,1419.35 451.177,1419.35 
  "/>
<path clip-path="url(#clip612)" d="
M532.153 1406.17 L532.153 1445.72 L613.13 1445.72 L613.13 1406.17 L532.153 1406.17 L532.153 1406.17  Z
  " fill="#009af9" fill-rule="evenodd" fill-opacity="1"/>
<polyline clip-path="url(#clip612)" style="stroke:#000000; stroke-linecap:butt; stroke-linejoin:round; stroke-width:4; stroke-opacity:1; fill:none" points="
  532.153,1406.17 532.153,1445.72 613.13,1445.72 613.13,1406.17 532.153,1406.17 
  "/>
<path clip-path="url(#clip612)" d="
M613.13 1432.53 L613.13 1445.72 L694.106 1445.72 L694.106 1432.53 L613.13 1432.53 L613.13 1432.53  Z
  " fill="#009af9" fill-rule="evenodd" fill-opacity="1"/>
<polyline clip-path="url(#clip612)" style="stroke:#000000; stroke-linecap:butt; stroke-linejoin:round; stroke-width:4; stroke-opacity:1; fill:none" points="
  613.13,1432.53 613.13,1445.72 694.106,1445.72 694.106,1432.53 613.13,1432.53 
  "/>
<path clip-path="url(#clip612)" d="
M694.106 1406.17 L694.106 1445.72 L775.082 1445.72 L775.082 1406.17 L694.106 1406.17 L694.106 1406.17  Z
  " fill="#009af9" fill-rule="evenodd" fill-opacity="1"/>
<polyline clip-path="url(#clip612)" style="stroke:#000000; stroke-linecap:butt; stroke-linejoin:round; stroke-width:4; stroke-opacity:1; fill:none" points="
  694.106,1406.17 694.106,1445.72 775.082,1445.72 775.082,1406.17 694.106,1406.17 
  "/>
<path clip-path="url(#clip612)" d="
M775.082 1353.44 L775.082 1445.72 L856.058 1445.72 L856.058 1353.44 L775.082 1353.44 L775.082 1353.44  Z
  " fill="#009af9" fill-rule="evenodd" fill-opacity="1"/>
<polyline clip-path="url(#clip612)" style="stroke:#000000; stroke-linecap:butt; stroke-linejoin:round; stroke-width:4; stroke-opacity:1; fill:none" points="
  775.082,1353.44 775.082,1445.72 856.058,1445.72 856.058,1353.44 775.082,1353.44 
  "/>
<path clip-path="url(#clip612)" d="
M856.058 1274.35 L856.058 1445.72 L937.034 1445.72 L937.034 1274.35 L856.058 1274.35 L856.058 1274.35  Z
  " fill="#009af9" fill-rule="evenodd" fill-opacity="1"/>
<polyline clip-path="url(#clip612)" style="stroke:#000000; stroke-linecap:butt; stroke-linejoin:round; stroke-width:4; stroke-opacity:1; fill:none" points="
  856.058,1274.35 856.058,1445.72 937.034,1445.72 937.034,1274.35 856.058,1274.35 
  "/>
<path clip-path="url(#clip612)" d="
M937.034 1155.71 L937.034 1445.72 L1018.01 1445.72 L1018.01 1155.71 L937.034 1155.71 L937.034 1155.71  Z
  " fill="#009af9" fill-rule="evenodd" fill-opacity="1"/>
<polyline clip-path="url(#clip612)" style="stroke:#000000; stroke-linecap:butt; stroke-linejoin:round; stroke-width:4; stroke-opacity:1; fill:none" points="
  937.034,1155.71 937.034,1445.72 1018.01,1445.72 1018.01,1155.71 937.034,1155.71 
  "/>
<path clip-path="url(#clip612)" d="
M1018.01 1050.26 L1018.01 1445.72 L1098.99 1445.72 L1098.99 1050.26 L1018.01 1050.26 L1018.01 1050.26  Z
  " fill="#009af9" fill-rule="evenodd" fill-opacity="1"/>
<polyline clip-path="url(#clip612)" style="stroke:#000000; stroke-linecap:butt; stroke-linejoin:round; stroke-width:4; stroke-opacity:1; fill:none" points="
  1018.01,1050.26 1018.01,1445.72 1098.99,1445.72 1098.99,1050.26 1018.01,1050.26 
  "/>
<path clip-path="url(#clip612)" d="
M1098.99 773.437 L1098.99 1445.72 L1179.96 1445.72 L1179.96 773.437 L1098.99 773.437 L1098.99 773.437  Z
  " fill="#009af9" fill-rule="evenodd" fill-opacity="1"/>
<polyline clip-path="url(#clip612)" style="stroke:#000000; stroke-linecap:butt; stroke-linejoin:round; stroke-width:4; stroke-opacity:1; fill:none" points="
  1098.99,773.437 1098.99,1445.72 1179.96,1445.72 1179.96,773.437 1098.99,773.437 
  "/>
<path clip-path="url(#clip612)" d="
M1179.96 285.705 L1179.96 1445.72 L1260.94 1445.72 L1260.94 285.705 L1179.96 285.705 L1179.96 285.705  Z
  " fill="#009af9" fill-rule="evenodd" fill-opacity="1"/>
<polyline clip-path="url(#clip612)" style="stroke:#000000; stroke-linecap:butt; stroke-linejoin:round; stroke-width:4; stroke-opacity:1; fill:none" points="
  1179.96,285.705 1179.96,1445.72 1260.94,1445.72 1260.94,285.705 1179.96,285.705 
  "/>
<path clip-path="url(#clip612)" d="
M1260.94 87.9763 L1260.94 1445.72 L1341.91 1445.72 L1341.91 87.9763 L1260.94 87.9763 L1260.94 87.9763  Z
  " fill="#009af9" fill-rule="evenodd" fill-opacity="1"/>
<polyline clip-path="url(#clip612)" style="stroke:#000000; stroke-linecap:butt; stroke-linejoin:round; stroke-width:4; stroke-opacity:1; fill:none" points="
  1260.94,87.9763 1260.94,1445.72 1341.91,1445.72 1341.91,87.9763 1260.94,87.9763 
  "/>
<path clip-path="url(#clip612)" d="
M1341.91 536.162 L1341.91 1445.72 L1422.89 1445.72 L1422.89 536.162 L1341.91 536.162 L1341.91 536.162  Z
  " fill="#009af9" fill-rule="evenodd" fill-opacity="1"/>
<polyline clip-path="url(#clip612)" style="stroke:#000000; stroke-linecap:butt; stroke-linejoin:round; stroke-width:4; stroke-opacity:1; fill:none" points="
  1341.91,536.162 1341.91,1445.72 1422.89,1445.72 1422.89,536.162 1341.91,536.162 
  "/>
<path clip-path="url(#clip612)" d="
M1422.89 878.892 L1422.89 1445.72 L1503.87 1445.72 L1503.87 878.892 L1422.89 878.892 L1422.89 878.892  Z
  " fill="#009af9" fill-rule="evenodd" fill-opacity="1"/>
<polyline clip-path="url(#clip612)" style="stroke:#000000; stroke-linecap:butt; stroke-linejoin:round; stroke-width:4; stroke-opacity:1; fill:none" points="
  1422.89,878.892 1422.89,1445.72 1503.87,1445.72 1503.87,878.892 1422.89,878.892 
  "/>
<path clip-path="url(#clip612)" d="
M1503.87 1142.53 L1503.87 1445.72 L1584.84 1445.72 L1584.84 1142.53 L1503.87 1142.53 L1503.87 1142.53  Z
  " fill="#009af9" fill-rule="evenodd" fill-opacity="1"/>
<polyline clip-path="url(#clip612)" style="stroke:#000000; stroke-linecap:butt; stroke-linejoin:round; stroke-width:4; stroke-opacity:1; fill:none" points="
  1503.87,1142.53 1503.87,1445.72 1584.84,1445.72 1584.84,1142.53 1503.87,1142.53 
  "/>
<path clip-path="url(#clip612)" d="
M1584.84 1327.08 L1584.84 1445.72 L1665.82 1445.72 L1665.82 1327.08 L1584.84 1327.08 L1584.84 1327.08  Z
  " fill="#009af9" fill-rule="evenodd" fill-opacity="1"/>
<polyline clip-path="url(#clip612)" style="stroke:#000000; stroke-linecap:butt; stroke-linejoin:round; stroke-width:4; stroke-opacity:1; fill:none" points="
  1584.84,1327.08 1584.84,1445.72 1665.82,1445.72 1665.82,1327.08 1584.84,1327.08 
  "/>
<path clip-path="url(#clip612)" d="
M1665.82 1274.35 L1665.82 1445.72 L1746.8 1445.72 L1746.8 1274.35 L1665.82 1274.35 L1665.82 1274.35  Z
  " fill="#009af9" fill-rule="evenodd" fill-opacity="1"/>
<polyline clip-path="url(#clip612)" style="stroke:#000000; stroke-linecap:butt; stroke-linejoin:round; stroke-width:4; stroke-opacity:1; fill:none" points="
  1665.82,1274.35 1665.82,1445.72 1746.8,1445.72 1746.8,1274.35 1665.82,1274.35 
  "/>
<path clip-path="url(#clip612)" d="
M1746.8 1340.26 L1746.8 1445.72 L1827.77 1445.72 L1827.77 1340.26 L1746.8 1340.26 L1746.8 1340.26  Z
  " fill="#009af9" fill-rule="evenodd" fill-opacity="1"/>
<polyline clip-path="url(#clip612)" style="stroke:#000000; stroke-linecap:butt; stroke-linejoin:round; stroke-width:4; stroke-opacity:1; fill:none" points="
  1746.8,1340.26 1746.8,1445.72 1827.77,1445.72 1827.77,1340.26 1746.8,1340.26 
  "/>
<path clip-path="url(#clip612)" d="
M1827.77 1392.99 L1827.77 1445.72 L1908.75 1445.72 L1908.75 1392.99 L1827.77 1392.99 L1827.77 1392.99  Z
  " fill="#009af9" fill-rule="evenodd" fill-opacity="1"/>
<polyline clip-path="url(#clip612)" style="stroke:#000000; stroke-linecap:butt; stroke-linejoin:round; stroke-width:4; stroke-opacity:1; fill:none" points="
  1827.77,1392.99 1827.77,1445.72 1908.75,1445.72 1908.75,1392.99 1827.77,1392.99 
  "/>
<path clip-path="url(#clip612)" d="
M1908.75 1406.17 L1908.75 1445.72 L1989.72 1445.72 L1989.72 1406.17 L1908.75 1406.17 L1908.75 1406.17  Z
  " fill="#009af9" fill-rule="evenodd" fill-opacity="1"/>
<polyline clip-path="url(#clip612)" style="stroke:#000000; stroke-linecap:butt; stroke-linejoin:round; stroke-width:4; stroke-opacity:1; fill:none" points="
  1908.75,1406.17 1908.75,1445.72 1989.72,1445.72 1989.72,1406.17 1908.75,1406.17 
  "/>
<path clip-path="url(#clip612)" d="
M1989.72 1406.17 L1989.72 1445.72 L2070.7 1445.72 L2070.7 1406.17 L1989.72 1406.17 L1989.72 1406.17  Z
  " fill="#009af9" fill-rule="evenodd" fill-opacity="1"/>
<polyline clip-path="url(#clip612)" style="stroke:#000000; stroke-linecap:butt; stroke-linejoin:round; stroke-width:4; stroke-opacity:1; fill:none" points="
  1989.72,1406.17 1989.72,1445.72 2070.7,1445.72 2070.7,1406.17 1989.72,1406.17 
  "/>
<path clip-path="url(#clip612)" d="
M2070.7 1445.72 L2070.7 1445.72 L2151.68 1445.72 L2151.68 1445.72 L2070.7 1445.72 L2070.7 1445.72  Z
  " fill="#009af9" fill-rule="evenodd" fill-opacity="1"/>
<polyline clip-path="url(#clip612)" style="stroke:#000000; stroke-linecap:butt; stroke-linejoin:round; stroke-width:4; stroke-opacity:1; fill:none" points="
  2070.7,1445.72 2070.7,1445.72 2151.68,1445.72 2070.7,1445.72 
  "/>
<path clip-path="url(#clip612)" d="
M2151.68 1432.53 L2151.68 1445.72 L2232.65 1445.72 L2232.65 1432.53 L2151.68 1432.53 L2151.68 1432.53  Z
  " fill="#009af9" fill-rule="evenodd" fill-opacity="1"/>
<polyline clip-path="url(#clip612)" style="stroke:#000000; stroke-linecap:butt; stroke-linejoin:round; stroke-width:4; stroke-opacity:1; fill:none" points="
  2151.68,1432.53 2151.68,1445.72 2232.65,1445.72 2232.65,1432.53 2151.68,1432.53 
  "/>
<circle clip-path="url(#clip612)" style="fill:#009af9; stroke:none; fill-opacity:0" cx="329.713" cy="1432.53" r="2"/>
<circle clip-path="url(#clip612)" style="fill:#009af9; stroke:none; fill-opacity:0" cx="410.689" cy="1445.72" r="2"/>
<circle clip-path="url(#clip612)" style="fill:#009af9; stroke:none; fill-opacity:0" cx="491.665" cy="1419.35" r="2"/>
<circle clip-path="url(#clip612)" style="fill:#009af9; stroke:none; fill-opacity:0" cx="572.642" cy="1406.17" r="2"/>
<circle clip-path="url(#clip612)" style="fill:#009af9; stroke:none; fill-opacity:0" cx="653.618" cy="1432.53" r="2"/>
<circle clip-path="url(#clip612)" style="fill:#009af9; stroke:none; fill-opacity:0" cx="734.594" cy="1406.17" r="2"/>
<circle clip-path="url(#clip612)" style="fill:#009af9; stroke:none; fill-opacity:0" cx="815.57" cy="1353.44" r="2"/>
<circle clip-path="url(#clip612)" style="fill:#009af9; stroke:none; fill-opacity:0" cx="896.546" cy="1274.35" r="2"/>
<circle clip-path="url(#clip612)" style="fill:#009af9; stroke:none; fill-opacity:0" cx="977.522" cy="1155.71" r="2"/>
<circle clip-path="url(#clip612)" style="fill:#009af9; stroke:none; fill-opacity:0" cx="1058.5" cy="1050.26" r="2"/>
<circle clip-path="url(#clip612)" style="fill:#009af9; stroke:none; fill-opacity:0" cx="1139.47" cy="773.437" r="2"/>
<circle clip-path="url(#clip612)" style="fill:#009af9; stroke:none; fill-opacity:0" cx="1220.45" cy="285.705" r="2"/>
<circle clip-path="url(#clip612)" style="fill:#009af9; stroke:none; fill-opacity:0" cx="1301.43" cy="87.9763" r="2"/>
<circle clip-path="url(#clip612)" style="fill:#009af9; stroke:none; fill-opacity:0" cx="1382.4" cy="536.162" r="2"/>
<circle clip-path="url(#clip612)" style="fill:#009af9; stroke:none; fill-opacity:0" cx="1463.38" cy="878.892" r="2"/>
<circle clip-path="url(#clip612)" style="fill:#009af9; stroke:none; fill-opacity:0" cx="1544.36" cy="1142.53" r="2"/>
<circle clip-path="url(#clip612)" style="fill:#009af9; stroke:none; fill-opacity:0" cx="1625.33" cy="1327.08" r="2"/>
<circle clip-path="url(#clip612)" style="fill:#009af9; stroke:none; fill-opacity:0" cx="1706.31" cy="1274.35" r="2"/>
<circle clip-path="url(#clip612)" style="fill:#009af9; stroke:none; fill-opacity:0" cx="1787.28" cy="1340.26" r="2"/>
<circle clip-path="url(#clip612)" style="fill:#009af9; stroke:none; fill-opacity:0" cx="1868.26" cy="1392.99" r="2"/>
<circle clip-path="url(#clip612)" style="fill:#009af9; stroke:none; fill-opacity:0" cx="1949.24" cy="1406.17" r="2"/>
<circle clip-path="url(#clip612)" style="fill:#009af9; stroke:none; fill-opacity:0" cx="2030.21" cy="1406.17" r="2"/>
<circle clip-path="url(#clip612)" style="fill:#009af9; stroke:none; fill-opacity:0" cx="2111.19" cy="1445.72" r="2"/>
<circle clip-path="url(#clip612)" style="fill:#009af9; stroke:none; fill-opacity:0" cx="2192.16" cy="1432.53" r="2"/>
<path clip-path="url(#clip610)" d="
M1984.91 198.898 L2279.97 198.898 L2279.97 95.2176 L1984.91 95.2176  Z
  " fill="#ffffff" fill-rule="evenodd" fill-opacity="1"/>
<polyline clip-path="url(#clip610)" style="stroke:#000000; stroke-linecap:butt; stroke-linejoin:round; stroke-width:4; stroke-opacity:1; fill:none" points="
  1984.91,198.898 2279.97,198.898 2279.97,95.2176 1984.91,95.2176 1984.91,198.898 
  "/>
<path clip-path="url(#clip610)" d="
M2009.17 167.794 L2154.75 167.794 L2154.75 126.322 L2009.17 126.322 L2009.17 167.794  Z
  " fill="#009af9" fill-rule="evenodd" fill-opacity="1"/>
<polyline clip-path="url(#clip610)" style="stroke:#000000; stroke-linecap:butt; stroke-linejoin:round; stroke-width:4; stroke-opacity:1; fill:none" points="
  2009.17,167.794 2154.75,167.794 2154.75,126.322 2009.17,126.322 2009.17,167.794 
  "/>
<path clip-path="url(#clip610)" d="M2192.86 166.745 Q2191.05 171.375 2189.34 172.787 Q2187.62 174.199 2184.75 174.199 L2181.35 174.199 L2181.35 170.634 L2183.85 170.634 Q2185.61 170.634 2186.58 169.8 Q2187.55 168.967 2188.73 165.865 L2189.5 163.921 L2179.01 138.412 L2183.53 138.412 L2191.63 158.689 L2199.73 138.412 L2204.24 138.412 L2192.86 166.745 Z" fill="#000000" fill-rule="evenodd" fill-opacity="1" /><path clip-path="url(#clip610)" d="M2211.54 160.402 L2219.17 160.402 L2219.17 134.037 L2210.86 135.703 L2210.86 131.444 L2219.13 129.778 L2223.8 129.778 L2223.8 160.402 L2231.44 160.402 L2231.44 164.338 L2211.54 164.338 L2211.54 160.402 Z" fill="#000000" fill-rule="evenodd" fill-opacity="1" /></svg>
