<?xml version="1.0" encoding="utf-8"?>
<svg xmlns="http://www.w3.org/2000/svg" xmlns:xlink="http://www.w3.org/1999/xlink" width="600" height="400" viewBox="0 0 2400 1600">
<defs>
  <clipPath id="clip690">
    <rect x="0" y="0" width="2400" height="1600"/>
  </clipPath>
</defs>
<path clip-path="url(#clip690)" d="
M0 1600 L2400 1600 L2400 0 L0 0  Z
  " fill="#ffffff" fill-rule="evenodd" fill-opacity="1"/>
<defs>
  <clipPath id="clip691">
    <rect x="480" y="0" width="1681" height="1600"/>
  </clipPath>
</defs>
<path clip-path="url(#clip690)" d="
M192.941 1486.45 L2352.76 1486.45 L2352.76 47.2441 L192.941 47.2441  Z
  " fill="#ffffff" fill-rule="evenodd" fill-opacity="1"/>
<defs>
  <clipPath id="clip692">
    <rect x="192" y="47" width="2161" height="1440"/>
  </clipPath>
</defs>
<polyline clip-path="url(#clip692)" style="stroke:#000000; stroke-linecap:butt; stroke-linejoin:round; stroke-width:2; stroke-opacity:0.1; fill:none" points="
  243.88,1486.45 243.88,47.2441 
  "/>
<polyline clip-path="url(#clip692)" style="stroke:#000000; stroke-linecap:butt; stroke-linejoin:round; stroke-width:2; stroke-opacity:0.1; fill:none" points="
  753.27,1486.45 753.27,47.2441 
  "/>
<polyline clip-path="url(#clip692)" style="stroke:#000000; stroke-linecap:butt; stroke-linejoin:round; stroke-width:2; stroke-opacity:0.1; fill:none" points="
  1262.66,1486.45 1262.66,47.2441 
  "/>
<polyline clip-path="url(#clip692)" style="stroke:#000000; stroke-linecap:butt; stroke-linejoin:round; stroke-width:2; stroke-opacity:0.1; fill:none" points="
  1772.05,1486.45 1772.05,47.2441 
  "/>
<polyline clip-path="url(#clip692)" style="stroke:#000000; stroke-linecap:butt; stroke-linejoin:round; stroke-width:2; stroke-opacity:0.1; fill:none" points="
  2281.44,1486.45 2281.44,47.2441 
  "/>
<polyline clip-path="url(#clip690)" style="stroke:#000000; stroke-linecap:butt; stroke-linejoin:round; stroke-width:4; stroke-opacity:1; fill:none" points="
  192.941,1486.45 2352.76,1486.45 
  "/>
<polyline clip-path="url(#clip690)" style="stroke:#000000; stroke-linecap:butt; stroke-linejoin:round; stroke-width:4; stroke-opacity:1; fill:none" points="
  243.88,1486.45 243.88,1467.55 
  "/>
<polyline clip-path="url(#clip690)" style="stroke:#000000; stroke-linecap:butt; stroke-linejoin:round; stroke-width:4; stroke-opacity:1; fill:none" points="
  753.27,1486.45 753.27,1467.55 
  "/>
<polyline clip-path="url(#clip690)" style="stroke:#000000; stroke-linecap:butt; stroke-linejoin:round; stroke-width:4; stroke-opacity:1; fill:none" points="
  1262.66,1486.45 1262.66,1467.55 
  "/>
<polyline clip-path="url(#clip690)" style="stroke:#000000; stroke-linecap:butt; stroke-linejoin:round; stroke-width:4; stroke-opacity:1; fill:none" points="
  1772.05,1486.45 1772.05,1467.55 
  "/>
<polyline clip-path="url(#clip690)" style="stroke:#000000; stroke-linecap:butt; stroke-linejoin:round; stroke-width:4; stroke-opacity:1; fill:none" points="
  2281.44,1486.45 2281.44,1467.55 
  "/>
<path clip-path="url(#clip690)" d="M243.88 1517.37 Q240.269 1517.37 238.44 1520.93 Q236.634 1524.47 236.634 1531.6 Q236.634 1538.71 238.44 1542.27 Q240.269 1545.82 243.88 1545.82 Q247.514 1545.82 249.319 1542.27 Q251.148 1538.71 251.148 1531.6 Q251.148 1524.47 249.319 1520.93 Q247.514 1517.37 243.88 1517.37 M243.88 1513.66 Q249.69 1513.66 252.745 1518.27 Q255.824 1522.85 255.824 1531.6 Q255.824 1540.33 252.745 1544.94 Q249.69 1549.52 243.88 1549.52 Q238.07 1549.52 234.991 1544.94 Q231.935 1540.33 231.935 1531.6 Q231.935 1522.85 234.991 1518.27 Q238.07 1513.66 243.88 1513.66 Z" fill="#000000" fill-rule="evenodd" fill-opacity="1" /><path clip-path="url(#clip690)" d="M727.969 1514.29 L746.326 1514.29 L746.326 1518.22 L732.252 1518.22 L732.252 1526.7 Q733.27 1526.35 734.289 1526.19 Q735.307 1526 736.326 1526 Q742.113 1526 745.492 1529.17 Q748.872 1532.34 748.872 1537.76 Q748.872 1543.34 745.4 1546.44 Q741.928 1549.52 735.608 1549.52 Q733.432 1549.52 731.164 1549.15 Q728.918 1548.78 726.511 1548.04 L726.511 1543.34 Q728.594 1544.47 730.816 1545.03 Q733.039 1545.58 735.516 1545.58 Q739.52 1545.58 741.858 1543.48 Q744.196 1541.37 744.196 1537.76 Q744.196 1534.15 741.858 1532.04 Q739.52 1529.94 735.516 1529.94 Q733.641 1529.94 731.766 1530.35 Q729.914 1530.77 727.969 1531.65 L727.969 1514.29 Z" fill="#000000" fill-rule="evenodd" fill-opacity="1" /><path clip-path="url(#clip690)" d="M768.085 1517.37 Q764.474 1517.37 762.645 1520.93 Q760.839 1524.47 760.839 1531.6 Q760.839 1538.71 762.645 1542.27 Q764.474 1545.82 768.085 1545.82 Q771.719 1545.82 773.525 1542.27 Q775.353 1538.71 775.353 1531.6 Q775.353 1524.47 773.525 1520.93 Q771.719 1517.37 768.085 1517.37 M768.085 1513.66 Q773.895 1513.66 776.95 1518.27 Q780.029 1522.85 780.029 1531.6 Q780.029 1540.33 776.95 1544.94 Q773.895 1549.52 768.085 1549.52 Q762.275 1549.52 759.196 1544.94 Q756.14 1540.33 756.14 1531.6 Q756.14 1522.85 759.196 1518.27 Q762.275 1513.66 768.085 1513.66 Z" fill="#000000" fill-rule="evenodd" fill-opacity="1" /><path clip-path="url(#clip690)" d="M1222.27 1544.91 L1229.91 1544.91 L1229.91 1518.55 L1221.6 1520.21 L1221.6 1515.95 L1229.86 1514.29 L1234.54 1514.29 L1234.54 1544.91 L1242.17 1544.91 L1242.17 1548.85 L1222.27 1548.85 L1222.27 1544.91 Z" fill="#000000" fill-rule="evenodd" fill-opacity="1" /><path clip-path="url(#clip690)" d="M1261.62 1517.37 Q1258.01 1517.37 1256.18 1520.93 Q1254.37 1524.47 1254.37 1531.6 Q1254.37 1538.71 1256.18 1542.27 Q1258.01 1545.82 1261.62 1545.82 Q1265.25 1545.82 1267.06 1542.27 Q1268.89 1538.71 1268.89 1531.6 Q1268.89 1524.47 1267.06 1520.93 Q1265.25 1517.37 1261.62 1517.37 M1261.62 1513.66 Q1267.43 1513.66 1270.48 1518.27 Q1273.56 1522.85 1273.56 1531.6 Q1273.56 1540.33 1270.48 1544.94 Q1267.43 1549.52 1261.62 1549.52 Q1255.81 1549.52 1252.73 1544.94 Q1249.67 1540.33 1249.67 1531.6 Q1249.67 1522.85 1252.73 1518.27 Q1255.81 1513.66 1261.62 1513.66 Z" fill="#000000" fill-rule="evenodd" fill-opacity="1" /><path clip-path="url(#clip690)" d="M1291.78 1517.37 Q1288.17 1517.37 1286.34 1520.93 Q1284.54 1524.47 1284.54 1531.6 Q1284.54 1538.71 1286.34 1542.27 Q1288.17 1545.82 1291.78 1545.82 Q1295.41 1545.82 1297.22 1542.27 Q1299.05 1538.71 1299.05 1531.6 Q1299.05 1524.47 1297.22 1520.93 Q1295.41 1517.37 1291.78 1517.37 M1291.78 1513.66 Q1297.59 1513.66 1300.65 1518.27 Q1303.73 1522.85 1303.73 1531.6 Q1303.73 1540.33 1300.65 1544.94 Q1297.59 1549.52 1291.78 1549.52 Q1285.97 1549.52 1282.89 1544.94 Q1279.84 1540.33 1279.84 1531.6 Q1279.84 1522.85 1282.89 1518.27 Q1285.97 1513.66 1291.78 1513.66 Z" fill="#000000" fill-rule="evenodd" fill-opacity="1" /><path clip-path="url(#clip690)" d="M1731.66 1544.91 L1739.3 1544.91 L1739.3 1518.55 L1730.99 1520.21 L1730.99 1515.95 L1739.25 1514.29 L1743.93 1514.29 L1743.93 1544.91 L1751.56 1544.91 L1751.56 1548.85 L1731.66 1548.85 L1731.66 1544.91 Z" fill="#000000" fill-rule="evenodd" fill-opacity="1" /><path clip-path="url(#clip690)" d="M1761.06 1514.29 L1779.41 1514.29 L1779.41 1518.22 L1765.34 1518.22 L1765.34 1526.7 Q1766.36 1526.35 1767.37 1526.19 Q1768.39 1526 1769.41 1526 Q1775.2 1526 1778.58 1529.17 Q1781.96 1532.34 1781.96 1537.76 Q1781.96 1543.34 1778.49 1546.44 Q1775.01 1549.52 1768.69 1549.52 Q1766.52 1549.52 1764.25 1549.15 Q1762 1548.78 1759.6 1548.04 L1759.6 1543.34 Q1761.68 1544.47 1763.9 1545.03 Q1766.12 1545.58 1768.6 1545.58 Q1772.61 1545.58 1774.94 1543.48 Q1777.28 1541.37 1777.28 1537.76 Q1777.28 1534.15 1774.94 1532.04 Q1772.61 1529.94 1768.6 1529.94 Q1766.73 1529.94 1764.85 1530.35 Q1763 1530.77 1761.06 1531.65 L1761.06 1514.29 Z" fill="#000000" fill-rule="evenodd" fill-opacity="1" /><path clip-path="url(#clip690)" d="M1801.17 1517.37 Q1797.56 1517.37 1795.73 1520.93 Q1793.93 1524.47 1793.93 1531.6 Q1793.93 1538.71 1795.73 1542.27 Q1797.56 1545.82 1801.17 1545.82 Q1804.81 1545.82 1806.61 1542.27 Q1808.44 1538.71 1808.44 1531.6 Q1808.44 1524.47 1806.61 1520.93 Q1804.81 1517.37 1801.17 1517.37 M1801.17 1513.66 Q1806.98 1513.66 1810.04 1518.27 Q1813.12 1522.85 1813.12 1531.6 Q1813.12 1540.33 1810.04 1544.94 Q1806.98 1549.52 1801.17 1549.52 Q1795.36 1549.52 1792.28 1544.94 Q1789.23 1540.33 1789.23 1531.6 Q1789.23 1522.85 1792.28 1518.27 Q1795.36 1513.66 1801.17 1513.66 Z" fill="#000000" fill-rule="evenodd" fill-opacity="1" /><path clip-path="url(#clip690)" d="M2245.13 1544.91 L2261.45 1544.91 L2261.45 1548.85 L2239.51 1548.85 L2239.51 1544.91 Q2242.17 1542.16 2246.75 1537.53 Q2251.36 1532.88 2252.54 1531.53 Q2254.79 1529.01 2255.67 1527.27 Q2256.57 1525.51 2256.57 1523.82 Q2256.57 1521.07 2254.62 1519.33 Q2252.7 1517.6 2249.6 1517.6 Q2247.4 1517.6 2244.95 1518.36 Q2242.52 1519.13 2239.74 1520.68 L2239.74 1515.95 Q2242.56 1514.82 2245.02 1514.24 Q2247.47 1513.66 2249.51 1513.66 Q2254.88 1513.66 2258.07 1516.35 Q2261.27 1519.03 2261.27 1523.52 Q2261.27 1525.65 2260.46 1527.57 Q2259.67 1529.47 2257.56 1532.07 Q2256.99 1532.74 2253.88 1535.95 Q2250.78 1539.15 2245.13 1544.91 Z" fill="#000000" fill-rule="evenodd" fill-opacity="1" /><path clip-path="url(#clip690)" d="M2281.27 1517.37 Q2277.66 1517.37 2275.83 1520.93 Q2274.02 1524.47 2274.02 1531.6 Q2274.02 1538.71 2275.83 1542.27 Q2277.66 1545.82 2281.27 1545.82 Q2284.9 1545.82 2286.71 1542.27 Q2288.54 1538.71 2288.54 1531.6 Q2288.54 1524.47 2286.71 1520.93 Q2284.9 1517.37 2281.27 1517.37 M2281.27 1513.66 Q2287.08 1513.66 2290.13 1518.27 Q2293.21 1522.85 2293.21 1531.6 Q2293.21 1540.33 2290.13 1544.94 Q2287.08 1549.52 2281.27 1549.52 Q2275.46 1549.52 2272.38 1544.94 Q2269.32 1540.33 2269.32 1531.6 Q2269.32 1522.85 2272.38 1518.27 Q2275.46 1513.66 2281.27 1513.66 Z" fill="#000000" fill-rule="evenodd" fill-opacity="1" /><path clip-path="url(#clip690)" d="M2311.43 1517.37 Q2307.82 1517.37 2305.99 1520.93 Q2304.18 1524.47 2304.18 1531.6 Q2304.18 1538.71 2305.99 1542.27 Q2307.82 1545.82 2311.43 1545.82 Q2315.06 1545.82 2316.87 1542.27 Q2318.7 1538.71 2318.7 1531.6 Q2318.7 1524.47 2316.87 1520.93 Q2315.06 1517.37 2311.43 1517.37 M2311.43 1513.66 Q2317.24 1513.66 2320.3 1518.27 Q2323.37 1522.85 2323.37 1531.6 Q2323.37 1540.33 2320.3 1544.94 Q2317.24 1549.52 2311.43 1549.52 Q2305.62 1549.52 2302.54 1544.94 Q2299.49 1540.33 2299.49 1531.6 Q2299.49 1522.85 2302.54 1518.27 Q2305.62 1513.66 2311.43 1513.66 Z" fill="#000000" fill-rule="evenodd" fill-opacity="1" /><polyline clip-path="url(#clip692)" style="stroke:#000000; stroke-linecap:butt; stroke-linejoin:round; stroke-width:2; stroke-opacity:0.1; fill:none" points="
  192.941,1347.11 2352.76,1347.11 
  "/>
<polyline clip-path="url(#clip692)" style="stroke:#000000; stroke-linecap:butt; stroke-linejoin:round; stroke-width:2; stroke-opacity:0.1; fill:none" points="
  192.941,1136.36 2352.76,1136.36 
  "/>
<polyline clip-path="url(#clip692)" style="stroke:#000000; stroke-linecap:butt; stroke-linejoin:round; stroke-width:2; stroke-opacity:0.1; fill:none" points="
  192.941,925.621 2352.76,925.621 
  "/>
<polyline clip-path="url(#clip692)" style="stroke:#000000; stroke-linecap:butt; stroke-linejoin:round; stroke-width:2; stroke-opacity:0.1; fill:none" points="
  192.941,714.877 2352.76,714.877 
  "/>
<polyline clip-path="url(#clip692)" style="stroke:#000000; stroke-linecap:butt; stroke-linejoin:round; stroke-width:2; stroke-opacity:0.1; fill:none" points="
  192.941,504.133 2352.76,504.133 
  "/>
<polyline clip-path="url(#clip692)" style="stroke:#000000; stroke-linecap:butt; stroke-linejoin:round; stroke-width:2; stroke-opacity:0.1; fill:none" points="
  192.941,293.388 2352.76,293.388 
  "/>
<polyline clip-path="url(#clip692)" style="stroke:#000000; stroke-linecap:butt; stroke-linejoin:round; stroke-width:2; stroke-opacity:0.1; fill:none" points="
  192.941,82.6443 2352.76,82.6443 
  "/>
<polyline clip-path="url(#clip690)" style="stroke:#000000; stroke-linecap:butt; stroke-linejoin:round; stroke-width:4; stroke-opacity:1; fill:none" points="
  192.941,1486.45 192.941,47.2441 
  "/>
<polyline clip-path="url(#clip690)" style="stroke:#000000; stroke-linecap:butt; stroke-linejoin:round; stroke-width:4; stroke-opacity:1; fill:none" points="
  192.941,1347.11 211.838,1347.11 
  "/>
<polyline clip-path="url(#clip690)" style="stroke:#000000; stroke-linecap:butt; stroke-linejoin:round; stroke-width:4; stroke-opacity:1; fill:none" points="
  192.941,1136.36 211.838,1136.36 
  "/>
<polyline clip-path="url(#clip690)" style="stroke:#000000; stroke-linecap:butt; stroke-linejoin:round; stroke-width:4; stroke-opacity:1; fill:none" points="
  192.941,925.621 211.838,925.621 
  "/>
<polyline clip-path="url(#clip690)" style="stroke:#000000; stroke-linecap:butt; stroke-linejoin:round; stroke-width:4; stroke-opacity:1; fill:none" points="
  192.941,714.877 211.838,714.877 
  "/>
<polyline clip-path="url(#clip690)" style="stroke:#000000; stroke-linecap:butt; stroke-linejoin:round; stroke-width:4; stroke-opacity:1; fill:none" points="
  192.941,504.133 211.838,504.133 
  "/>
<polyline clip-path="url(#clip690)" style="stroke:#000000; stroke-linecap:butt; stroke-linejoin:round; stroke-width:4; stroke-opacity:1; fill:none" points="
  192.941,293.388 211.838,293.388 
  "/>
<polyline clip-path="url(#clip690)" style="stroke:#000000; stroke-linecap:butt; stroke-linejoin:round; stroke-width:4; stroke-opacity:1; fill:none" points="
  192.941,82.6443 211.838,82.6443 
  "/>
<path clip-path="url(#clip690)" d="M50.9921 1347.56 L80.6679 1347.56 L80.6679 1351.5 L50.9921 1351.5 L50.9921 1347.56 Z" fill="#000000" fill-rule="evenodd" fill-opacity="1" /><path clip-path="url(#clip690)" d="M94.7882 1360.45 L111.108 1360.45 L111.108 1364.39 L89.1632 1364.39 L89.1632 1360.45 Q91.8252 1357.7 96.4085 1353.07 Q101.015 1348.42 102.196 1347.07 Q104.441 1344.55 105.321 1342.81 Q106.223 1341.06 106.223 1339.37 Q106.223 1336.61 104.279 1334.88 Q102.358 1333.14 99.2558 1333.14 Q97.0567 1333.14 94.603 1333.9 Q92.1725 1334.67 89.3947 1336.22 L89.3947 1331.5 Q92.2188 1330.36 94.6724 1329.78 Q97.1261 1329.2 99.1632 1329.2 Q104.534 1329.2 107.728 1331.89 Q110.922 1334.57 110.922 1339.07 Q110.922 1341.19 110.112 1343.12 Q109.325 1345.01 107.219 1347.61 Q106.64 1348.28 103.538 1351.5 Q100.436 1354.69 94.7882 1360.45 Z" fill="#000000" fill-rule="evenodd" fill-opacity="1" /><path clip-path="url(#clip690)" d="M120.922 1358.51 L125.807 1358.51 L125.807 1364.39 L120.922 1364.39 L120.922 1358.51 Z" fill="#000000" fill-rule="evenodd" fill-opacity="1" /><path clip-path="url(#clip690)" d="M136.038 1329.83 L154.394 1329.83 L154.394 1333.76 L140.32 1333.76 L140.32 1342.24 Q141.339 1341.89 142.357 1341.73 Q143.376 1341.54 144.394 1341.54 Q150.181 1341.54 153.561 1344.71 Q156.941 1347.88 156.941 1353.3 Q156.941 1358.88 153.468 1361.98 Q149.996 1365.06 143.677 1365.06 Q141.501 1365.06 139.232 1364.69 Q136.987 1364.32 134.58 1363.58 L134.58 1358.88 Q136.663 1360.01 138.885 1360.57 Q141.107 1361.13 143.584 1361.13 Q147.589 1361.13 149.927 1359.02 Q152.265 1356.91 152.265 1353.3 Q152.265 1349.69 149.927 1347.58 Q147.589 1345.48 143.584 1345.48 Q141.709 1345.48 139.834 1345.89 Q137.982 1346.31 136.038 1347.19 L136.038 1329.83 Z" fill="#000000" fill-rule="evenodd" fill-opacity="1" /><path clip-path="url(#clip690)" d="M99.765 1122.16 Q96.1539 1122.16 94.3252 1125.73 Q92.5197 1129.27 92.5197 1136.4 Q92.5197 1143.51 94.3252 1147.07 Q96.1539 1150.61 99.765 1150.61 Q103.399 1150.61 105.205 1147.07 Q107.033 1143.51 107.033 1136.4 Q107.033 1129.27 105.205 1125.73 Q103.399 1122.16 99.765 1122.16 M99.765 1118.46 Q105.575 1118.46 108.631 1123.07 Q111.709 1127.65 111.709 1136.4 Q111.709 1145.13 108.631 1149.73 Q105.575 1154.32 99.765 1154.32 Q93.9549 1154.32 90.8762 1149.73 Q87.8206 1145.13 87.8206 1136.4 Q87.8206 1127.65 90.8762 1123.07 Q93.9549 1118.46 99.765 1118.46 Z" fill="#000000" fill-rule="evenodd" fill-opacity="1" /><path clip-path="url(#clip690)" d="M119.927 1147.77 L124.811 1147.77 L124.811 1153.64 L119.927 1153.64 L119.927 1147.77 Z" fill="#000000" fill-rule="evenodd" fill-opacity="1" /><path clip-path="url(#clip690)" d="M144.996 1122.16 Q141.385 1122.16 139.556 1125.73 Q137.751 1129.27 137.751 1136.4 Q137.751 1143.51 139.556 1147.07 Q141.385 1150.61 144.996 1150.61 Q148.63 1150.61 150.436 1147.07 Q152.265 1143.51 152.265 1136.4 Q152.265 1129.27 150.436 1125.73 Q148.63 1122.16 144.996 1122.16 M144.996 1118.46 Q150.806 1118.46 153.862 1123.07 Q156.941 1127.65 156.941 1136.4 Q156.941 1145.13 153.862 1149.73 Q150.806 1154.32 144.996 1154.32 Q139.186 1154.32 136.107 1149.73 Q133.052 1145.13 133.052 1136.4 Q133.052 1127.65 136.107 1123.07 Q139.186 1118.46 144.996 1118.46 Z" fill="#000000" fill-rule="evenodd" fill-opacity="1" /><path clip-path="url(#clip690)" d="M94.7882 938.966 L111.108 938.966 L111.108 942.901 L89.1632 942.901 L89.1632 938.966 Q91.8252 936.211 96.4085 931.581 Q101.015 926.929 102.196 925.586 Q104.441 923.063 105.321 921.327 Q106.223 919.568 106.223 917.878 Q106.223 915.123 104.279 913.387 Q102.358 911.651 99.2558 911.651 Q97.0567 911.651 94.603 912.415 Q92.1725 913.179 89.3947 914.73 L89.3947 910.007 Q92.2188 908.873 94.6724 908.294 Q97.1261 907.716 99.1632 907.716 Q104.534 907.716 107.728 910.401 Q110.922 913.086 110.922 917.577 Q110.922 919.706 110.112 921.628 Q109.325 923.526 107.219 926.118 Q106.64 926.79 103.538 930.007 Q100.436 933.202 94.7882 938.966 Z" fill="#000000" fill-rule="evenodd" fill-opacity="1" /><path clip-path="url(#clip690)" d="M120.922 937.021 L125.807 937.021 L125.807 942.901 L120.922 942.901 L120.922 937.021 Z" fill="#000000" fill-rule="evenodd" fill-opacity="1" /><path clip-path="url(#clip690)" d="M136.038 908.341 L154.394 908.341 L154.394 912.276 L140.32 912.276 L140.32 920.748 Q141.339 920.401 142.357 920.239 Q143.376 920.054 144.394 920.054 Q150.181 920.054 153.561 923.225 Q156.941 926.396 156.941 931.813 Q156.941 937.392 153.468 940.493 Q149.996 943.572 143.677 943.572 Q141.501 943.572 139.232 943.202 Q136.987 942.831 134.58 942.091 L134.58 937.392 Q136.663 938.526 138.885 939.081 Q141.107 939.637 143.584 939.637 Q147.589 939.637 149.927 937.53 Q152.265 935.424 152.265 931.813 Q152.265 928.202 149.927 926.095 Q147.589 923.989 143.584 923.989 Q141.709 923.989 139.834 924.405 Q137.982 924.822 136.038 925.702 L136.038 908.341 Z" fill="#000000" fill-rule="evenodd" fill-opacity="1" /><path clip-path="url(#clip690)" d="M89.8114 697.597 L108.168 697.597 L108.168 701.532 L94.0937 701.532 L94.0937 710.004 Q95.1123 709.657 96.1308 709.495 Q97.1493 709.31 98.1678 709.31 Q103.955 709.31 107.334 712.481 Q110.714 715.652 110.714 721.069 Q110.714 726.647 107.242 729.749 Q103.77 732.828 97.4502 732.828 Q95.2743 732.828 93.0058 732.458 Q90.7604 732.087 88.353 731.346 L88.353 726.647 Q90.4364 727.782 92.6586 728.337 Q94.8808 728.893 97.3576 728.893 Q101.362 728.893 103.7 726.786 Q106.038 724.68 106.038 721.069 Q106.038 717.458 103.7 715.351 Q101.362 713.245 97.3576 713.245 Q95.4826 713.245 93.6076 713.661 Q91.7558 714.078 89.8114 714.958 L89.8114 697.597 Z" fill="#000000" fill-rule="evenodd" fill-opacity="1" /><path clip-path="url(#clip690)" d="M119.927 726.277 L124.811 726.277 L124.811 732.157 L119.927 732.157 L119.927 726.277 Z" fill="#000000" fill-rule="evenodd" fill-opacity="1" /><path clip-path="url(#clip690)" d="M144.996 700.675 Q141.385 700.675 139.556 704.24 Q137.751 707.782 137.751 714.911 Q137.751 722.018 139.556 725.583 Q141.385 729.124 144.996 729.124 Q148.63 729.124 150.436 725.583 Q152.265 722.018 152.265 714.911 Q152.265 707.782 150.436 704.24 Q148.63 700.675 144.996 700.675 M144.996 696.972 Q150.806 696.972 153.862 701.578 Q156.941 706.161 156.941 714.911 Q156.941 723.638 153.862 728.245 Q150.806 732.828 144.996 732.828 Q139.186 732.828 136.107 728.245 Q133.052 723.638 133.052 714.911 Q133.052 706.161 136.107 701.578 Q139.186 696.972 144.996 696.972 Z" fill="#000000" fill-rule="evenodd" fill-opacity="1" /><path clip-path="url(#clip690)" d="M89.5799 486.853 L111.802 486.853 L111.802 488.843 L99.2558 521.413 L94.3715 521.413 L106.177 490.788 L89.5799 490.788 L89.5799 486.853 Z" fill="#000000" fill-rule="evenodd" fill-opacity="1" /><path clip-path="url(#clip690)" d="M120.922 515.533 L125.807 515.533 L125.807 521.413 L120.922 521.413 L120.922 515.533 Z" fill="#000000" fill-rule="evenodd" fill-opacity="1" /><path clip-path="url(#clip690)" d="M136.038 486.853 L154.394 486.853 L154.394 490.788 L140.32 490.788 L140.32 499.26 Q141.339 498.913 142.357 498.751 Q143.376 498.565 144.394 498.565 Q150.181 498.565 153.561 501.737 Q156.941 504.908 156.941 510.325 Q156.941 515.903 153.468 519.005 Q149.996 522.084 143.677 522.084 Q141.501 522.084 139.232 521.713 Q136.987 521.343 134.58 520.602 L134.58 515.903 Q136.663 517.038 138.885 517.593 Q141.107 518.149 143.584 518.149 Q147.589 518.149 149.927 516.042 Q152.265 513.936 152.265 510.325 Q152.265 506.714 149.927 504.607 Q147.589 502.501 143.584 502.501 Q141.709 502.501 139.834 502.917 Q137.982 503.334 136.038 504.214 L136.038 486.853 Z" fill="#000000" fill-rule="evenodd" fill-opacity="1" /><path clip-path="url(#clip690)" d="M60.4134 306.733 L68.0522 306.733 L68.0522 280.368 L59.7421 282.034 L59.7421 277.775 L68.0059 276.108 L72.6818 276.108 L72.6818 306.733 L80.3207 306.733 L80.3207 310.668 L60.4134 310.668 L60.4134 306.733 Z" fill="#000000" fill-rule="evenodd" fill-opacity="1" /><path clip-path="url(#clip690)" d="M99.765 279.187 Q96.1539 279.187 94.3252 282.752 Q92.5197 286.294 92.5197 293.423 Q92.5197 300.53 94.3252 304.094 Q96.1539 307.636 99.765 307.636 Q103.399 307.636 105.205 304.094 Q107.033 300.53 107.033 293.423 Q107.033 286.294 105.205 282.752 Q103.399 279.187 99.765 279.187 M99.765 275.483 Q105.575 275.483 108.631 280.09 Q111.709 284.673 111.709 293.423 Q111.709 302.15 108.631 306.756 Q105.575 311.34 99.765 311.34 Q93.9549 311.34 90.8762 306.756 Q87.8206 302.15 87.8206 293.423 Q87.8206 284.673 90.8762 280.09 Q93.9549 275.483 99.765 275.483 Z" fill="#000000" fill-rule="evenodd" fill-opacity="1" /><path clip-path="url(#clip690)" d="M119.927 304.789 L124.811 304.789 L124.811 310.668 L119.927 310.668 L119.927 304.789 Z" fill="#000000" fill-rule="evenodd" fill-opacity="1" /><path clip-path="url(#clip690)" d="M144.996 279.187 Q141.385 279.187 139.556 282.752 Q137.751 286.294 137.751 293.423 Q137.751 300.53 139.556 304.094 Q141.385 307.636 144.996 307.636 Q148.63 307.636 150.436 304.094 Q152.265 300.53 152.265 293.423 Q152.265 286.294 150.436 282.752 Q148.63 279.187 144.996 279.187 M144.996 275.483 Q150.806 275.483 153.862 280.09 Q156.941 284.673 156.941 293.423 Q156.941 302.15 153.862 306.756 Q150.806 311.34 144.996 311.34 Q139.186 311.34 136.107 306.756 Q133.052 302.15 133.052 293.423 Q133.052 284.673 136.107 280.09 Q139.186 275.483 144.996 275.483 Z" fill="#000000" fill-rule="evenodd" fill-opacity="1" /><path clip-path="url(#clip690)" d="M61.4087 95.9891 L69.0476 95.9891 L69.0476 69.6235 L60.7374 71.2902 L60.7374 67.031 L69.0013 65.3643 L73.6772 65.3643 L73.6772 95.9891 L81.316 95.9891 L81.316 99.9243 L61.4087 99.9243 L61.4087 95.9891 Z" fill="#000000" fill-rule="evenodd" fill-opacity="1" /><path clip-path="url(#clip690)" d="M94.7882 95.9891 L111.108 95.9891 L111.108 99.9243 L89.1632 99.9243 L89.1632 95.9891 Q91.8252 93.2345 96.4085 88.6049 Q101.015 83.9522 102.196 82.6096 Q104.441 80.0865 105.321 78.3504 Q106.223 76.5911 106.223 74.9013 Q106.223 72.1467 104.279 70.4106 Q102.358 68.6745 99.2558 68.6745 Q97.0567 68.6745 94.603 69.4384 Q92.1725 70.2022 89.3947 71.7532 L89.3947 67.031 Q92.2188 65.8967 94.6724 65.318 Q97.1261 64.7393 99.1632 64.7393 Q104.534 64.7393 107.728 67.4245 Q110.922 70.1097 110.922 74.6004 Q110.922 76.73 110.112 78.6513 Q109.325 80.5494 107.219 83.142 Q106.64 83.8133 103.538 87.0309 Q100.436 90.2253 94.7882 95.9891 Z" fill="#000000" fill-rule="evenodd" fill-opacity="1" /><path clip-path="url(#clip690)" d="M120.922 94.0447 L125.807 94.0447 L125.807 99.9243 L120.922 99.9243 L120.922 94.0447 Z" fill="#000000" fill-rule="evenodd" fill-opacity="1" /><path clip-path="url(#clip690)" d="M136.038 65.3643 L154.394 65.3643 L154.394 69.2995 L140.32 69.2995 L140.32 77.7717 Q141.339 77.4244 142.357 77.2624 Q143.376 77.0772 144.394 77.0772 Q150.181 77.0772 153.561 80.2485 Q156.941 83.4198 156.941 88.8364 Q156.941 94.4151 153.468 97.5169 Q149.996 100.596 143.677 100.596 Q141.501 100.596 139.232 100.225 Q136.987 99.8549 134.58 99.1141 L134.58 94.4151 Q136.663 95.5493 138.885 96.1049 Q141.107 96.6604 143.584 96.6604 Q147.589 96.6604 149.927 94.554 Q152.265 92.4475 152.265 88.8364 Q152.265 85.2253 149.927 83.1188 Q147.589 81.0124 143.584 81.0124 Q141.709 81.0124 139.834 81.429 Q137.982 81.8457 136.038 82.7253 L136.038 65.3643 Z" fill="#000000" fill-rule="evenodd" fill-opacity="1" /><polyline clip-path="url(#clip692)" style="stroke:#009af9; stroke-linecap:butt; stroke-linejoin:round; stroke-width:4; stroke-opacity:1; fill:none" points="
  254.067,1136.36 264.255,1241.38 274.443,1176.41 284.631,1116.78 294.819,1192.73 305.007,1022.51 315.194,1111.26 325.382,1136.35 335.57,1187.08 345.758,1288.27 
  355.946,1089.73 366.133,1047.28 376.321,1174.6 386.509,1360.29 396.697,1004.04 406.885,1177.57 417.072,1043.25 427.26,1110.54 437.448,1056.79 447.636,1083.03 
  457.824,1127.06 468.011,1041.77 478.199,984.512 488.387,1098.8 498.575,1154.16 508.763,1133.24 518.95,1136.46 529.138,1212.94 539.326,1138.85 549.514,1091.37 
  559.702,1155.45 569.89,1179.65 580.077,1272.55 590.265,1162.75 600.453,979.287 610.641,1060.12 620.829,1229.79 631.016,1196.86 641.204,1142.56 651.392,1112.71 
  661.58,1131.25 671.768,1126.12 681.955,1039.3 692.143,1241.62 702.331,1110.1 712.519,1040.15 722.707,1163.24 732.894,935.879 743.082,1122.66 753.27,1169.46 
  763.458,1234.16 773.646,1175.78 783.833,1107.81 794.021,1105.82 804.209,1125.99 814.397,1204.87 824.585,1154.12 834.773,1276.25 844.96,1148.33 855.148,966.687 
  865.336,1165.44 875.524,1140.12 885.712,1052.25 895.899,1141.2 906.087,1180.74 916.275,1051.94 926.463,1382.75 936.651,1190.43 946.838,1139.53 957.026,1117.72 
  967.214,1120.42 977.402,1161.58 987.59,1175.15 997.777,1163.03 1007.97,1148.08 1018.15,1088.73 1028.34,1112.68 1038.53,1184.87 1048.72,1146.09 1058.9,1239.33 
  1069.09,1253.5 1079.28,1028.5 1089.47,1138.44 1099.66,1059.97 1109.84,1149.1 1120.03,1023.29 1130.22,1217.11 1140.41,1170.34 1150.59,1182.73 1160.78,1159.77 
  1170.97,1334.02 1181.16,1020.74 1191.35,1188.04 1201.53,1243.38 1211.72,1081.37 1221.91,1153.7 1232.1,1159.42 1242.28,1203.7 1252.47,1096.18 1262.66,1167.65 
  1272.85,1178.66 1283.04,1080.69 1293.22,1316.45 1303.41,981.076 1313.6,1044.23 1323.79,1094.18 1333.98,1063.07 1344.16,1173.55 1354.35,1052.5 1364.54,1293.79 
  1374.73,1105.56 1384.91,1070.11 1395.1,1181.45 1405.29,1184.04 1415.48,1010.59 1425.67,1214.89 1435.85,1092.3 1446.04,1233.77 1456.23,1162.42 1466.42,1160.64 
  1476.6,1264.43 1486.79,1089.16 1496.98,1126.32 1507.17,1165.97 1517.36,992.383 1527.54,1172.07 1537.73,1142.24 1547.92,1132.3 1558.11,1013.64 1568.29,1255.42 
  1578.48,1219.07 1588.67,1179.87 1598.86,1179.67 1609.05,1227.74 1619.23,1095.22 1629.42,1242.19 1639.61,1199.19 1649.8,1211.96 1659.98,1086.11 1670.17,1103.67 
  1680.36,1308.72 1690.55,1155.68 1700.74,1148.09 1710.92,1161.24 1721.11,1317.21 1731.3,1081.64 1741.49,1050.2 1751.68,1084.82 1761.86,1124.45 1772.05,1082.73 
  1782.24,1102.1 1792.43,1209.35 1802.61,1192.38 1812.8,1101.69 1822.99,1106.91 1833.18,1009.48 1843.37,1104.8 1853.55,1002.3 1863.74,1133.85 1873.93,1238.66 
  1884.12,1170.66 1894.3,1177.66 1904.49,1135.21 1914.68,1115.27 1924.87,1009.35 1935.06,1071.39 1945.24,1064.97 1955.43,1139.43 1965.62,1109.66 1975.81,986.823 
  1985.99,1317.47 1996.18,1034.42 2006.37,1162.18 2016.56,1248.15 2026.75,1153.48 2036.93,1156.38 2047.12,1187.57 2057.31,1087.6 2067.5,1262.55 2077.69,1301.75 
  2087.87,1082.06 2098.06,1119.66 2108.25,1163.17 2118.44,1084.47 2128.62,1051.27 2138.81,1202.79 2149,1065.76 2159.19,1272.18 2169.38,1123.06 2179.56,1101.24 
  2189.75,1105.85 2199.94,1137.84 2210.13,1041.09 2220.31,1155.54 2230.5,1162.89 2240.69,1125.2 2250.88,1061.28 2261.07,1158.78 2271.25,1187.87 2281.44,1120.14 
  2291.63,1125.16 
  "/>
<polyline clip-path="url(#clip692)" style="stroke:#e26f46; stroke-linecap:butt; stroke-linejoin:round; stroke-width:4; stroke-opacity:1; fill:none" points="
  254.067,1136.36 264.255,1065.22 274.443,1048.67 284.631,1053.04 294.819,1064.33 305.007,1031 315.194,1134.2 325.382,1012.41 335.57,949.807 345.758,856.035 
  355.946,899.84 366.133,1016.12 376.321,1059.93 386.509,956.87 396.697,964.449 406.885,1014.15 417.072,1051.88 427.26,1102.16 437.448,1055.2 447.636,1008.5 
  457.824,1147.93 468.011,1312.96 478.199,1226.85 488.387,1256.52 498.575,1265.6 508.763,1232.99 518.95,1314.08 529.138,1257.1 539.326,1257.44 549.514,1280.88 
  559.702,1254.17 569.89,1252.81 580.077,1125.39 590.265,1227.57 600.453,1101.04 610.641,982.191 620.829,995.392 631.016,1022.9 641.204,1234.89 651.392,1281.1 
  661.58,1198.62 671.768,1269.61 681.955,1095.14 692.143,1096.64 702.331,1138.25 712.519,1284.02 722.707,1109.4 732.894,1091.93 743.082,1135.7 753.27,1016.62 
  763.458,985.249 773.646,975.96 783.833,1165.66 794.021,1182.03 804.209,1143.22 814.397,1147.08 824.585,1119.18 834.773,1119.57 844.96,1144 855.148,1119.08 
  865.336,1177.5 875.524,1012.13 885.712,939.682 895.899,1014.93 906.087,1137.01 916.275,1211.78 926.463,1239.47 936.651,1240.12 946.838,1156.78 957.026,1122.82 
  967.214,1077.58 977.402,964.788 987.59,997.566 997.777,1009.61 1007.97,1133.14 1018.15,1080.62 1028.34,1010.86 1038.53,1065.57 1048.72,1027.37 1058.9,1013.08 
  1069.09,961.239 1079.28,1084.55 1089.47,1168.1 1099.66,1177 1109.84,1111.58 1120.03,1202.18 1130.22,1193.5 1140.41,1136.06 1150.59,1045.36 1160.78,1134.74 
  1170.97,1282.58 1181.16,1204.87 1191.35,1212.3 1201.53,1102.35 1211.72,1122.09 1221.91,1224.07 1232.1,1095.67 1242.28,1184.61 1252.47,1114.3 1262.66,1234.85 
  1272.85,1261.26 1283.04,1155.96 1293.22,1171.9 1303.41,1156.23 1313.6,1262.05 1323.79,1138.78 1333.98,999.744 1344.16,899.535 1354.35,905.585 1364.54,920.151 
  1374.73,1111.84 1384.91,1168.15 1395.1,1290.39 1405.29,1256.66 1415.48,1438.68 1425.67,1422.45 1435.85,1280.51 1446.04,1340.84 1456.23,1381.95 1466.42,1430.69 
  1476.6,1379.4 1486.79,1445.72 1496.98,1349.98 1507.17,1150.82 1517.36,1130.18 1527.54,1154.08 1537.73,1244.56 1547.92,1194.73 1558.11,1205.4 1568.29,1136.55 
  1578.48,993.518 1588.67,1023.38 1598.86,909.439 1609.05,906.558 1619.23,972.969 1629.42,1102.37 1639.61,1170.27 1649.8,1188.19 1659.98,1144.89 1670.17,1322.66 
  1680.36,1158.16 1690.55,1094.6 1700.74,1227.59 1710.92,1305.85 1721.11,1353.81 1731.3,1422.32 1741.49,1356.94 1751.68,1229.32 1761.86,1277.44 1772.05,1210.18 
  1782.24,1095.88 1792.43,1080.17 1802.61,1149.36 1812.8,1004.54 1822.99,992.558 1833.18,1036.91 1843.37,1067.97 1853.55,1015.63 1863.74,899.842 1873.93,969.455 
  1884.12,978.122 1894.3,898.555 1904.49,1086.81 1914.68,1078.7 1924.87,1065.43 1935.06,1072.71 1945.24,1111.55 1955.43,1040.92 1965.62,1027.02 1975.81,1217.15 
  1985.99,1175.01 1996.18,1094.71 2006.37,1159.93 2016.56,1140.92 2026.75,1237.44 2036.93,1159.24 2047.12,1123.41 2057.31,1078.23 2067.5,1177.81 2077.69,1133.49 
  2087.87,1083.99 2098.06,1073.39 2108.25,1038.36 2118.44,1013.56 2128.62,1099.35 2138.81,913.164 2149,843.596 2159.19,703.685 2169.38,612.477 2179.56,599.603 
  2189.75,730.365 2199.94,883.422 2210.13,1007.03 2220.31,976 2230.5,1038.94 2240.69,1013.16 2250.88,1064.61 2261.07,978.414 2271.25,962.858 2281.44,1050.05 
  2291.63,1055.28 
  "/>
<polyline clip-path="url(#clip692)" style="stroke:#3da44d; stroke-linecap:butt; stroke-linejoin:round; stroke-width:4; stroke-opacity:1; fill:none" points="
  254.067,1136.36 264.255,1164.7 274.443,1124.21 284.631,1149.36 294.819,1174.92 305.007,1111.79 315.194,1168.68 325.382,1153.71 335.57,1136.73 345.758,1211.56 
  355.946,988.428 366.133,991.071 376.321,989.546 386.509,1016.69 396.697,1019.27 406.885,852.172 417.072,747.678 427.26,780.205 437.448,726.139 447.636,627.004 
  457.824,812.466 468.011,839.949 478.199,743.349 488.387,772.962 498.575,795.307 508.763,827.874 518.95,855.456 529.138,870.137 539.326,822.919 549.514,906.942 
  559.702,824.605 569.89,862.73 580.077,815.169 590.265,836.472 600.453,799.43 610.641,867.859 620.829,838.938 631.016,742.902 641.204,840.727 651.392,845.83 
  661.58,631.821 671.768,527.922 681.955,661.353 692.143,632.762 702.331,622.703 712.519,644.323 722.707,737.273 732.894,724.456 743.082,791.778 753.27,833.076 
  763.458,959.611 773.646,993.353 783.833,1073.32 794.021,1154.33 804.209,1009.73 814.397,1084.69 824.585,1109.63 834.773,1164.26 844.96,1198.4 855.148,1237.69 
  865.336,1282.9 875.524,1315.05 885.712,1340.38 895.899,1363.09 906.087,1329.67 916.275,1296.47 926.463,1313.08 936.651,1246.29 946.838,1313.98 957.026,1252.06 
  967.214,1325.54 977.402,1296.67 987.59,1295.45 997.777,1211.75 1007.97,1225.62 1018.15,1244.53 1028.34,1391.27 1038.53,1358.85 1048.72,1388.46 1058.9,1224.62 
  1069.09,1217.71 1079.28,1030.93 1089.47,816.125 1099.66,699.871 1109.84,594.861 1120.03,725.503 1130.22,595.932 1140.41,708.279 1150.59,938.764 1160.78,1059.71 
  1170.97,976.466 1181.16,948.093 1191.35,986.966 1201.53,1064.52 1211.72,1046.44 1221.91,1030.76 1232.1,1097.71 1242.28,1089.33 1252.47,1051.91 1262.66,1115.24 
  1272.85,1119.73 1283.04,1002.97 1293.22,1038.77 1303.41,927.256 1313.6,1002.48 1323.79,973.454 1333.98,711.756 1344.16,633.416 1354.35,715.116 1364.54,688.6 
  1374.73,711.863 1384.91,788.209 1395.1,747.928 1405.29,756.313 1415.48,724.684 1425.67,710.412 1435.85,598.959 1446.04,494.099 1456.23,432.909 1466.42,376.625 
  1476.6,404.058 1486.79,279.692 1496.98,419.564 1507.17,509.668 1517.36,639.647 1527.54,584.767 1537.73,682.518 1547.92,692.494 1558.11,646.802 1568.29,663.454 
  1578.48,614.957 1588.67,505.399 1598.86,448.442 1609.05,468.527 1619.23,493.113 1629.42,571.847 1639.61,452.983 1649.8,524.32 1659.98,384.764 1670.17,294.836 
  1680.36,477.447 1690.55,450.573 1700.74,584.376 1710.92,482.972 1721.11,535.859 1731.3,564.544 1741.49,633.755 1751.68,606.215 1761.86,596.634 1772.05,644.9 
  1782.24,689.921 1792.43,525.723 1802.61,495.318 1812.8,419.929 1822.99,465.473 1833.18,510.407 1843.37,435.15 1853.55,533.499 1863.74,545.547 1873.93,575.265 
  1884.12,646.788 1894.3,621.465 1904.49,778.485 1914.68,764.079 1924.87,677.259 1935.06,798.43 1945.24,753.067 1955.43,713.719 1965.62,680.041 1975.81,626.702 
  1985.99,567.822 1996.18,751.347 2006.37,720.28 2016.56,646.163 2026.75,624.383 2036.93,691.347 2047.12,521.29 2057.31,566.79 2067.5,637.498 2077.69,646.598 
  2087.87,616.684 2098.06,413.715 2108.25,293.967 2118.44,221.661 2128.62,220.453 2138.81,87.9763 2149,150.078 2159.19,318.489 2169.38,240.558 2179.56,353.571 
  2189.75,266.906 2199.94,186.157 2210.13,233.841 2220.31,210.188 2230.5,150.283 2240.69,186.481 2250.88,303.322 2261.07,423.844 2271.25,297.74 2281.44,438.81 
  2291.63,409.639 
  "/>
<path clip-path="url(#clip690)" d="
M1740.04 302.578 L2280.76 302.578 L2280.76 95.2176 L1740.04 95.2176  Z
  " fill="#ffffff" fill-rule="evenodd" fill-opacity="1"/>
<polyline clip-path="url(#clip690)" style="stroke:#000000; stroke-linecap:butt; stroke-linejoin:round; stroke-width:4; stroke-opacity:1; fill:none" points="
  1740.04,302.578 2280.76,302.578 2280.76,95.2176 1740.04,95.2176 1740.04,302.578 
  "/>
<polyline clip-path="url(#clip690)" style="stroke:#009af9; stroke-linecap:butt; stroke-linejoin:round; stroke-width:4; stroke-opacity:1; fill:none" points="
  1764.04,147.058 1908.03,147.058 
  "/>
<path clip-path="url(#clip690)" d="M1945.43 151.305 Q1940.27 151.305 1938.28 152.486 Q1936.29 153.666 1936.29 156.514 Q1936.29 158.782 1937.77 160.125 Q1939.27 161.444 1941.84 161.444 Q1945.38 161.444 1947.51 158.944 Q1949.67 156.421 1949.67 152.254 L1949.67 151.305 L1945.43 151.305 M1953.93 149.546 L1953.93 164.338 L1949.67 164.338 L1949.67 160.402 Q1948.21 162.763 1946.03 163.898 Q1943.86 165.009 1940.71 165.009 Q1936.73 165.009 1934.36 162.787 Q1932.03 160.541 1932.03 156.791 Q1932.03 152.416 1934.94 150.194 Q1937.88 147.972 1943.69 147.972 L1949.67 147.972 L1949.67 147.555 Q1949.67 144.615 1947.72 143.018 Q1945.8 141.398 1942.3 141.398 Q1940.08 141.398 1937.98 141.93 Q1935.87 142.463 1933.93 143.527 L1933.93 139.592 Q1936.26 138.69 1938.46 138.25 Q1940.66 137.787 1942.74 137.787 Q1948.37 137.787 1951.15 140.703 Q1953.93 143.62 1953.93 149.546 Z" fill="#000000" fill-rule="evenodd" fill-opacity="1" /><path clip-path="url(#clip690)" d="M1962.7 128.319 L1966.96 128.319 L1966.96 164.338 L1962.7 164.338 L1962.7 128.319 Z" fill="#000000" fill-rule="evenodd" fill-opacity="1" /><path clip-path="url(#clip690)" d="M1979.99 160.449 L1979.99 174.199 L1975.71 174.199 L1975.71 138.412 L1979.99 138.412 L1979.99 142.347 Q1981.33 140.032 1983.37 138.921 Q1985.43 137.787 1988.28 137.787 Q1993 137.787 1995.94 141.537 Q1998.9 145.287 1998.9 151.398 Q1998.9 157.509 1995.94 161.259 Q1993 165.009 1988.28 165.009 Q1985.43 165.009 1983.37 163.898 Q1981.33 162.763 1979.99 160.449 M1994.48 151.398 Q1994.48 146.699 1992.54 144.037 Q1990.61 141.352 1987.24 141.352 Q1983.86 141.352 1981.91 144.037 Q1979.99 146.699 1979.99 151.398 Q1979.99 156.097 1981.91 158.782 Q1983.86 161.444 1987.24 161.444 Q1990.61 161.444 1992.54 158.782 Q1994.48 156.097 1994.48 151.398 Z" fill="#000000" fill-rule="evenodd" fill-opacity="1" /><path clip-path="url(#clip690)" d="M2027.51 148.689 L2027.51 164.338 L2023.25 164.338 L2023.25 148.828 Q2023.25 145.148 2021.82 143.319 Q2020.38 141.49 2017.51 141.49 Q2014.06 141.49 2012.07 143.69 Q2010.08 145.889 2010.08 149.685 L2010.08 164.338 L2005.8 164.338 L2005.8 128.319 L2010.08 128.319 L2010.08 142.44 Q2011.61 140.102 2013.67 138.944 Q2015.75 137.787 2018.46 137.787 Q2022.93 137.787 2025.22 140.565 Q2027.51 143.319 2027.51 148.689 Z" fill="#000000" fill-rule="evenodd" fill-opacity="1" /><path clip-path="url(#clip690)" d="M2047.79 151.305 Q2042.63 151.305 2040.64 152.486 Q2038.65 153.666 2038.65 156.514 Q2038.65 158.782 2040.13 160.125 Q2041.63 161.444 2044.2 161.444 Q2047.74 161.444 2049.87 158.944 Q2052.03 156.421 2052.03 152.254 L2052.03 151.305 L2047.79 151.305 M2056.29 149.546 L2056.29 164.338 L2052.03 164.338 L2052.03 160.402 Q2050.57 162.763 2048.39 163.898 Q2046.22 165.009 2043.07 165.009 Q2039.09 165.009 2036.73 162.787 Q2034.39 160.541 2034.39 156.791 Q2034.39 152.416 2037.3 150.194 Q2040.24 147.972 2046.05 147.972 L2052.03 147.972 L2052.03 147.555 Q2052.03 144.615 2050.08 143.018 Q2048.16 141.398 2044.67 141.398 Q2042.44 141.398 2040.34 141.93 Q2038.23 142.463 2036.29 143.527 L2036.29 139.592 Q2038.62 138.69 2040.82 138.25 Q2043.02 137.787 2045.11 137.787 Q2050.73 137.787 2053.51 140.703 Q2056.29 143.62 2056.29 149.546 Z" fill="#000000" fill-rule="evenodd" fill-opacity="1" /><path clip-path="url(#clip690)" d="M2080.68 142.81 L2110.36 142.81 L2110.36 146.699 L2080.68 146.699 L2080.68 142.81 M2080.68 152.254 L2110.36 152.254 L2110.36 156.189 L2080.68 156.189 L2080.68 152.254 Z" fill="#000000" fill-rule="evenodd" fill-opacity="1" /><path clip-path="url(#clip690)" d="M2145.52 132.856 Q2141.91 132.856 2140.08 136.421 Q2138.28 139.963 2138.28 147.092 Q2138.28 154.199 2140.08 157.764 Q2141.91 161.305 2145.52 161.305 Q2149.16 161.305 2150.96 157.764 Q2152.79 154.199 2152.79 147.092 Q2152.79 139.963 2150.96 136.421 Q2149.16 132.856 2145.52 132.856 M2145.52 129.153 Q2151.33 129.153 2154.39 133.759 Q2157.47 138.342 2157.47 147.092 Q2157.47 155.819 2154.39 160.426 Q2151.33 165.009 2145.52 165.009 Q2139.71 165.009 2136.63 160.426 Q2133.58 155.819 2133.58 147.092 Q2133.58 138.342 2136.63 133.759 Q2139.71 129.153 2145.52 129.153 Z" fill="#000000" fill-rule="evenodd" fill-opacity="1" /><path clip-path="url(#clip690)" d="M2165.68 158.458 L2170.57 158.458 L2170.57 164.338 L2165.68 164.338 L2165.68 158.458 Z" fill="#000000" fill-rule="evenodd" fill-opacity="1" /><path clip-path="url(#clip690)" d="M2190.75 132.856 Q2187.14 132.856 2185.31 136.421 Q2183.51 139.963 2183.51 147.092 Q2183.51 154.199 2185.31 157.764 Q2187.14 161.305 2190.75 161.305 Q2194.39 161.305 2196.19 157.764 Q2198.02 154.199 2198.02 147.092 Q2198.02 139.963 2196.19 136.421 Q2194.39 132.856 2190.75 132.856 M2190.75 129.153 Q2196.56 129.153 2199.62 133.759 Q2202.7 138.342 2202.7 147.092 Q2202.7 155.819 2199.62 160.426 Q2196.56 165.009 2190.75 165.009 Q2184.94 165.009 2181.86 160.426 Q2178.81 155.819 2178.81 147.092 Q2178.81 138.342 2181.86 133.759 Q2184.94 129.153 2190.75 129.153 Z" fill="#000000" fill-rule="evenodd" fill-opacity="1" /><polyline clip-path="url(#clip690)" style="stroke:#e26f46; stroke-linecap:butt; stroke-linejoin:round; stroke-width:4; stroke-opacity:1; fill:none" points="
  1764.04,198.898 1908.03,198.898 
  "/>
<path clip-path="url(#clip690)" d="M1945.43 203.145 Q1940.27 203.145 1938.28 204.326 Q1936.29 205.506 1936.29 208.354 Q1936.29 210.622 1937.77 211.965 Q1939.27 213.284 1941.84 213.284 Q1945.38 213.284 1947.51 210.784 Q1949.67 208.261 1949.67 204.094 L1949.67 203.145 L1945.43 203.145 M1953.93 201.386 L1953.93 216.178 L1949.67 216.178 L1949.67 212.242 Q1948.21 214.603 1946.03 215.738 Q1943.86 216.849 1940.71 216.849 Q1936.73 216.849 1934.36 214.627 Q1932.03 212.381 1932.03 208.631 Q1932.03 204.256 1934.94 202.034 Q1937.88 199.812 1943.69 199.812 L1949.67 199.812 L1949.67 199.395 Q1949.67 196.455 1947.72 194.858 Q1945.8 193.238 1942.3 193.238 Q1940.08 193.238 1937.98 193.77 Q1935.87 194.303 1933.93 195.367 L1933.93 191.432 Q1936.26 190.53 1938.46 190.09 Q1940.66 189.627 1942.74 189.627 Q1948.37 189.627 1951.15 192.543 Q1953.93 195.46 1953.93 201.386 Z" fill="#000000" fill-rule="evenodd" fill-opacity="1" /><path clip-path="url(#clip690)" d="M1962.7 180.159 L1966.96 180.159 L1966.96 216.178 L1962.7 216.178 L1962.7 180.159 Z" fill="#000000" fill-rule="evenodd" fill-opacity="1" /><path clip-path="url(#clip690)" d="M1979.99 212.289 L1979.99 226.039 L1975.71 226.039 L1975.71 190.252 L1979.99 190.252 L1979.99 194.187 Q1981.33 191.872 1983.37 190.761 Q1985.43 189.627 1988.28 189.627 Q1993 189.627 1995.94 193.377 Q1998.9 197.127 1998.9 203.238 Q1998.9 209.349 1995.94 213.099 Q1993 216.849 1988.28 216.849 Q1985.43 216.849 1983.37 215.738 Q1981.33 214.603 1979.99 212.289 M1994.48 203.238 Q1994.48 198.539 1992.54 195.877 Q1990.61 193.192 1987.24 193.192 Q1983.86 193.192 1981.91 195.877 Q1979.99 198.539 1979.99 203.238 Q1979.99 207.937 1981.91 210.622 Q1983.86 213.284 1987.24 213.284 Q1990.61 213.284 1992.54 210.622 Q1994.48 207.937 1994.48 203.238 Z" fill="#000000" fill-rule="evenodd" fill-opacity="1" /><path clip-path="url(#clip690)" d="M2027.51 200.529 L2027.51 216.178 L2023.25 216.178 L2023.25 200.668 Q2023.25 196.988 2021.82 195.159 Q2020.38 193.33 2017.51 193.33 Q2014.06 193.33 2012.07 195.53 Q2010.08 197.729 2010.08 201.525 L2010.08 216.178 L2005.8 216.178 L2005.8 180.159 L2010.08 180.159 L2010.08 194.28 Q2011.61 191.942 2013.67 190.784 Q2015.75 189.627 2018.46 189.627 Q2022.93 189.627 2025.22 192.405 Q2027.51 195.159 2027.51 200.529 Z" fill="#000000" fill-rule="evenodd" fill-opacity="1" /><path clip-path="url(#clip690)" d="M2047.79 203.145 Q2042.63 203.145 2040.64 204.326 Q2038.65 205.506 2038.65 208.354 Q2038.65 210.622 2040.13 211.965 Q2041.63 213.284 2044.2 213.284 Q2047.74 213.284 2049.87 210.784 Q2052.03 208.261 2052.03 204.094 L2052.03 203.145 L2047.79 203.145 M2056.29 201.386 L2056.29 216.178 L2052.03 216.178 L2052.03 212.242 Q2050.57 214.603 2048.39 215.738 Q2046.22 216.849 2043.07 216.849 Q2039.09 216.849 2036.73 214.627 Q2034.39 212.381 2034.39 208.631 Q2034.39 204.256 2037.3 202.034 Q2040.24 199.812 2046.05 199.812 L2052.03 199.812 L2052.03 199.395 Q2052.03 196.455 2050.08 194.858 Q2048.16 193.238 2044.67 193.238 Q2042.44 193.238 2040.34 193.77 Q2038.23 194.303 2036.29 195.367 L2036.29 191.432 Q2038.62 190.53 2040.82 190.09 Q2043.02 189.627 2045.11 189.627 Q2050.73 189.627 2053.51 192.543 Q2056.29 195.46 2056.29 201.386 Z" fill="#000000" fill-rule="evenodd" fill-opacity="1" /><path clip-path="url(#clip690)" d="M2080.68 194.65 L2110.36 194.65 L2110.36 198.539 L2080.68 198.539 L2080.68 194.65 M2080.68 204.094 L2110.36 204.094 L2110.36 208.029 L2080.68 208.029 L2080.68 204.094 Z" fill="#000000" fill-rule="evenodd" fill-opacity="1" /><path clip-path="url(#clip690)" d="M2145.52 184.696 Q2141.91 184.696 2140.08 188.261 Q2138.28 191.803 2138.28 198.932 Q2138.28 206.039 2140.08 209.604 Q2141.91 213.145 2145.52 213.145 Q2149.16 213.145 2150.96 209.604 Q2152.79 206.039 2152.79 198.932 Q2152.79 191.803 2150.96 188.261 Q2149.16 184.696 2145.52 184.696 M2145.52 180.993 Q2151.33 180.993 2154.39 185.599 Q2157.47 190.182 2157.47 198.932 Q2157.47 207.659 2154.39 212.266 Q2151.33 216.849 2145.52 216.849 Q2139.71 216.849 2136.63 212.266 Q2133.58 207.659 2133.58 198.932 Q2133.58 190.182 2136.63 185.599 Q2139.71 180.993 2145.52 180.993 Z" fill="#000000" fill-rule="evenodd" fill-opacity="1" /><path clip-path="url(#clip690)" d="M2165.68 210.298 L2170.57 210.298 L2170.57 216.178 L2165.68 216.178 L2165.68 210.298 Z" fill="#000000" fill-rule="evenodd" fill-opacity="1" /><path clip-path="url(#clip690)" d="M2190.75 199.766 Q2187.42 199.766 2185.5 201.548 Q2183.6 203.33 2183.6 206.455 Q2183.6 209.58 2185.5 211.363 Q2187.42 213.145 2190.75 213.145 Q2194.09 213.145 2196.01 211.363 Q2197.93 209.557 2197.93 206.455 Q2197.93 203.33 2196.01 201.548 Q2194.11 199.766 2190.75 199.766 M2186.08 197.775 Q2183.07 197.034 2181.38 194.974 Q2179.71 192.914 2179.71 189.951 Q2179.71 185.807 2182.65 183.4 Q2185.61 180.993 2190.75 180.993 Q2195.91 180.993 2198.85 183.4 Q2201.79 185.807 2201.79 189.951 Q2201.79 192.914 2200.1 194.974 Q2198.44 197.034 2195.45 197.775 Q2198.83 198.562 2200.71 200.854 Q2202.6 203.145 2202.6 206.455 Q2202.6 211.479 2199.53 214.164 Q2196.47 216.849 2190.75 216.849 Q2185.03 216.849 2181.96 214.164 Q2178.9 211.479 2178.9 206.455 Q2178.9 203.145 2180.8 200.854 Q2182.7 198.562 2186.08 197.775 M2184.36 190.391 Q2184.36 193.076 2186.03 194.58 Q2187.72 196.085 2190.75 196.085 Q2193.76 196.085 2195.45 194.58 Q2197.16 193.076 2197.16 190.391 Q2197.16 187.705 2195.45 186.201 Q2193.76 184.696 2190.75 184.696 Q2187.72 184.696 2186.03 186.201 Q2184.36 187.705 2184.36 190.391 Z" fill="#000000" fill-rule="evenodd" fill-opacity="1" /><polyline clip-path="url(#clip690)" style="stroke:#3da44d; stroke-linecap:butt; stroke-linejoin:round; stroke-width:4; stroke-opacity:1; fill:none" points="
  1764.04,250.738 1908.03,250.738 
  "/>
<path clip-path="url(#clip690)" d="M1945.43 254.985 Q1940.27 254.985 1938.28 256.166 Q1936.29 257.346 1936.29 260.194 Q1936.29 262.462 1937.77 263.805 Q1939.27 265.124 1941.84 265.124 Q1945.38 265.124 1947.51 262.624 Q1949.67 260.101 1949.67 255.934 L1949.67 254.985 L1945.43 254.985 M1953.93 253.226 L1953.93 268.018 L1949.67 268.018 L1949.67 264.082 Q1948.21 266.443 1946.03 267.578 Q1943.86 268.689 1940.71 268.689 Q1936.73 268.689 1934.36 266.467 Q1932.03 264.221 1932.03 260.471 Q1932.03 256.096 1934.94 253.874 Q1937.88 251.652 1943.69 251.652 L1949.67 251.652 L1949.67 251.235 Q1949.67 248.295 1947.72 246.698 Q1945.8 245.078 1942.3 245.078 Q1940.08 245.078 1937.98 245.61 Q1935.87 246.143 1933.93 247.207 L1933.93 243.272 Q1936.26 242.37 1938.46 241.93 Q1940.66 241.467 1942.74 241.467 Q1948.37 241.467 1951.15 244.383 Q1953.93 247.3 1953.93 253.226 Z" fill="#000000" fill-rule="evenodd" fill-opacity="1" /><path clip-path="url(#clip690)" d="M1962.7 231.999 L1966.96 231.999 L1966.96 268.018 L1962.7 268.018 L1962.7 231.999 Z" fill="#000000" fill-rule="evenodd" fill-opacity="1" /><path clip-path="url(#clip690)" d="M1979.99 264.129 L1979.99 277.879 L1975.71 277.879 L1975.71 242.092 L1979.99 242.092 L1979.99 246.027 Q1981.33 243.712 1983.37 242.601 Q1985.43 241.467 1988.28 241.467 Q1993 241.467 1995.94 245.217 Q1998.9 248.967 1998.9 255.078 Q1998.9 261.189 1995.94 264.939 Q1993 268.689 1988.28 268.689 Q1985.43 268.689 1983.37 267.578 Q1981.33 266.443 1979.99 264.129 M1994.48 255.078 Q1994.48 250.379 1992.54 247.717 Q1990.61 245.032 1987.24 245.032 Q1983.86 245.032 1981.91 247.717 Q1979.99 250.379 1979.99 255.078 Q1979.99 259.777 1981.91 262.462 Q1983.86 265.124 1987.24 265.124 Q1990.61 265.124 1992.54 262.462 Q1994.48 259.777 1994.48 255.078 Z" fill="#000000" fill-rule="evenodd" fill-opacity="1" /><path clip-path="url(#clip690)" d="M2027.51 252.369 L2027.51 268.018 L2023.25 268.018 L2023.25 252.508 Q2023.25 248.828 2021.82 246.999 Q2020.38 245.17 2017.51 245.17 Q2014.06 245.17 2012.07 247.37 Q2010.08 249.569 2010.08 253.365 L2010.08 268.018 L2005.8 268.018 L2005.8 231.999 L2010.08 231.999 L2010.08 246.12 Q2011.61 243.782 2013.67 242.624 Q2015.75 241.467 2018.46 241.467 Q2022.93 241.467 2025.22 244.245 Q2027.51 246.999 2027.51 252.369 Z" fill="#000000" fill-rule="evenodd" fill-opacity="1" /><path clip-path="url(#clip690)" d="M2047.79 254.985 Q2042.63 254.985 2040.64 256.166 Q2038.65 257.346 2038.65 260.194 Q2038.65 262.462 2040.13 263.805 Q2041.63 265.124 2044.2 265.124 Q2047.74 265.124 2049.87 262.624 Q2052.03 260.101 2052.03 255.934 L2052.03 254.985 L2047.79 254.985 M2056.29 253.226 L2056.29 268.018 L2052.03 268.018 L2052.03 264.082 Q2050.57 266.443 2048.39 267.578 Q2046.22 268.689 2043.07 268.689 Q2039.09 268.689 2036.73 266.467 Q2034.39 264.221 2034.39 260.471 Q2034.39 256.096 2037.3 253.874 Q2040.24 251.652 2046.05 251.652 L2052.03 251.652 L2052.03 251.235 Q2052.03 248.295 2050.08 246.698 Q2048.16 245.078 2044.67 245.078 Q2042.44 245.078 2040.34 245.61 Q2038.23 246.143 2036.29 247.207 L2036.29 243.272 Q2038.62 242.37 2040.82 241.93 Q2043.02 241.467 2045.11 241.467 Q2050.73 241.467 2053.51 244.383 Q2056.29 247.3 2056.29 253.226 Z" fill="#000000" fill-rule="evenodd" fill-opacity="1" /><path clip-path="url(#clip690)" d="M2080.68 246.49 L2110.36 246.49 L2110.36 250.379 L2080.68 250.379 L2080.68 246.49 M2080.68 255.934 L2110.36 255.934 L2110.36 259.869 L2080.68 259.869 L2080.68 255.934 Z" fill="#000000" fill-rule="evenodd" fill-opacity="1" /><path clip-path="url(#clip690)" d="M2145.52 236.536 Q2141.91 236.536 2140.08 240.101 Q2138.28 243.643 2138.28 250.772 Q2138.28 257.879 2140.08 261.444 Q2141.91 264.985 2145.52 264.985 Q2149.16 264.985 2150.96 261.444 Q2152.79 257.879 2152.79 250.772 Q2152.79 243.643 2150.96 240.101 Q2149.16 236.536 2145.52 236.536 M2145.52 232.833 Q2151.33 232.833 2154.39 237.439 Q2157.47 242.022 2157.47 250.772 Q2157.47 259.499 2154.39 264.106 Q2151.33 268.689 2145.52 268.689 Q2139.71 268.689 2136.63 264.106 Q2133.58 259.499 2133.58 250.772 Q2133.58 242.022 2136.63 237.439 Q2139.71 232.833 2145.52 232.833 Z" fill="#000000" fill-rule="evenodd" fill-opacity="1" /><path clip-path="url(#clip690)" d="M2165.68 262.138 L2170.57 262.138 L2170.57 268.018 L2165.68 268.018 L2165.68 262.138 Z" fill="#000000" fill-rule="evenodd" fill-opacity="1" /><path clip-path="url(#clip690)" d="M2180.89 267.3 L2180.89 263.041 Q2182.65 263.874 2184.46 264.314 Q2186.26 264.754 2188 264.754 Q2192.63 264.754 2195.06 261.652 Q2197.51 258.527 2197.86 252.184 Q2196.52 254.175 2194.46 255.24 Q2192.4 256.305 2189.9 256.305 Q2184.71 256.305 2181.68 253.18 Q2178.67 250.032 2178.67 244.592 Q2178.67 239.268 2181.82 236.05 Q2184.97 232.833 2190.2 232.833 Q2196.19 232.833 2199.34 237.439 Q2202.51 242.022 2202.51 250.772 Q2202.51 258.944 2198.62 263.828 Q2194.76 268.689 2188.21 268.689 Q2186.45 268.689 2184.64 268.342 Q2182.84 267.994 2180.89 267.3 M2190.2 252.647 Q2193.35 252.647 2195.17 250.494 Q2197.03 248.342 2197.03 244.592 Q2197.03 240.865 2195.17 238.712 Q2193.35 236.536 2190.2 236.536 Q2187.05 236.536 2185.2 238.712 Q2183.37 240.865 2183.37 244.592 Q2183.37 248.342 2185.2 250.494 Q2187.05 252.647 2190.2 252.647 Z" fill="#000000" fill-rule="evenodd" fill-opacity="1" /><path clip-path="url(#clip690)" d="M2220.91 251.606 Q2217.58 251.606 2215.66 253.388 Q2213.76 255.17 2213.76 258.295 Q2213.76 261.42 2215.66 263.203 Q2217.58 264.985 2220.91 264.985 Q2224.25 264.985 2226.17 263.203 Q2228.09 261.397 2228.09 258.295 Q2228.09 255.17 2226.17 253.388 Q2224.27 251.606 2220.91 251.606 M2216.24 249.615 Q2213.23 248.874 2211.54 246.814 Q2209.87 244.754 2209.87 241.791 Q2209.87 237.647 2212.81 235.24 Q2215.78 232.833 2220.91 232.833 Q2226.08 232.833 2229.02 235.24 Q2231.96 237.647 2231.96 241.791 Q2231.96 244.754 2230.27 246.814 Q2228.6 248.874 2225.61 249.615 Q2228.99 250.402 2230.87 252.694 Q2232.77 254.985 2232.77 258.295 Q2232.77 263.319 2229.69 266.004 Q2226.63 268.689 2220.91 268.689 Q2215.2 268.689 2212.12 266.004 Q2209.06 263.319 2209.06 258.295 Q2209.06 254.985 2210.96 252.694 Q2212.86 250.402 2216.24 249.615 M2214.53 242.231 Q2214.53 244.916 2216.19 246.42 Q2217.88 247.925 2220.91 247.925 Q2223.92 247.925 2225.61 246.42 Q2227.33 244.916 2227.33 242.231 Q2227.33 239.545 2225.61 238.041 Q2223.92 236.536 2220.91 236.536 Q2217.88 236.536 2216.19 238.041 Q2214.53 239.545 2214.53 242.231 Z" fill="#000000" fill-rule="evenodd" fill-opacity="1" /></svg>
