<?xml version="1.0" encoding="utf-8"?>
<svg xmlns="http://www.w3.org/2000/svg" xmlns:xlink="http://www.w3.org/1999/xlink" width="600" height="400" viewBox="0 0 2400 1600">
<defs>
  <clipPath id="clip720">
    <rect x="0" y="0" width="2400" height="1600"/>
  </clipPath>
</defs>
<path clip-path="url(#clip720)" d="
M0 1600 L2400 1600 L2400 0 L0 0  Z
  " fill="#ffffff" fill-rule="evenodd" fill-opacity="1"/>
<defs>
  <clipPath id="clip721">
    <rect x="480" y="0" width="1681" height="1600"/>
  </clipPath>
</defs>
<path clip-path="url(#clip720)" d="
M156.598 1486.45 L2352.76 1486.45 L2352.76 47.2441 L156.598 47.2441  Z
  " fill="#ffffff" fill-rule="evenodd" fill-opacity="1"/>
<defs>
  <clipPath id="clip722">
    <rect x="156" y="47" width="2197" height="1440"/>
  </clipPath>
</defs>
<polyline clip-path="url(#clip722)" style="stroke:#000000; stroke-linecap:butt; stroke-linejoin:round; stroke-width:2; stroke-opacity:0.1; fill:none" points="
  448.959,1486.45 448.959,47.2441 
  "/>
<polyline clip-path="url(#clip722)" style="stroke:#000000; stroke-linecap:butt; stroke-linejoin:round; stroke-width:2; stroke-opacity:0.1; fill:none" points="
  909.369,1486.45 909.369,47.2441 
  "/>
<polyline clip-path="url(#clip722)" style="stroke:#000000; stroke-linecap:butt; stroke-linejoin:round; stroke-width:2; stroke-opacity:0.1; fill:none" points="
  1369.78,1486.45 1369.78,47.2441 
  "/>
<polyline clip-path="url(#clip722)" style="stroke:#000000; stroke-linecap:butt; stroke-linejoin:round; stroke-width:2; stroke-opacity:0.1; fill:none" points="
  1830.19,1486.45 1830.19,47.2441 
  "/>
<polyline clip-path="url(#clip722)" style="stroke:#000000; stroke-linecap:butt; stroke-linejoin:round; stroke-width:2; stroke-opacity:0.1; fill:none" points="
  2290.6,1486.45 2290.6,47.2441 
  "/>
<polyline clip-path="url(#clip720)" style="stroke:#000000; stroke-linecap:butt; stroke-linejoin:round; stroke-width:4; stroke-opacity:1; fill:none" points="
  156.598,1486.45 2352.76,1486.45 
  "/>
<polyline clip-path="url(#clip720)" style="stroke:#000000; stroke-linecap:butt; stroke-linejoin:round; stroke-width:4; stroke-opacity:1; fill:none" points="
  448.959,1486.45 448.959,1467.55 
  "/>
<polyline clip-path="url(#clip720)" style="stroke:#000000; stroke-linecap:butt; stroke-linejoin:round; stroke-width:4; stroke-opacity:1; fill:none" points="
  909.369,1486.45 909.369,1467.55 
  "/>
<polyline clip-path="url(#clip720)" style="stroke:#000000; stroke-linecap:butt; stroke-linejoin:round; stroke-width:4; stroke-opacity:1; fill:none" points="
  1369.78,1486.45 1369.78,1467.55 
  "/>
<polyline clip-path="url(#clip720)" style="stroke:#000000; stroke-linecap:butt; stroke-linejoin:round; stroke-width:4; stroke-opacity:1; fill:none" points="
  1830.19,1486.45 1830.19,1467.55 
  "/>
<polyline clip-path="url(#clip720)" style="stroke:#000000; stroke-linecap:butt; stroke-linejoin:round; stroke-width:4; stroke-opacity:1; fill:none" points="
  2290.6,1486.45 2290.6,1467.55 
  "/>
<path clip-path="url(#clip720)" d="M443.612 1543.18 L459.931 1543.18 L459.931 1547.12 L437.987 1547.12 L437.987 1543.18 Q440.649 1540.43 445.232 1535.8 Q449.838 1531.15 451.019 1529.81 Q453.264 1527.28 454.144 1525.55 Q455.047 1523.79 455.047 1522.1 Q455.047 1519.34 453.102 1517.61 Q451.181 1515.87 448.079 1515.87 Q445.88 1515.87 443.426 1516.63 Q440.996 1517.4 438.218 1518.95 L438.218 1514.23 Q441.042 1513.09 443.496 1512.51 Q445.95 1511.93 447.987 1511.93 Q453.357 1511.93 456.551 1514.62 Q459.746 1517.31 459.746 1521.8 Q459.746 1523.93 458.936 1525.85 Q458.149 1527.74 456.042 1530.34 Q455.463 1531.01 452.362 1534.23 Q449.26 1537.42 443.612 1543.18 Z" fill="#000000" fill-rule="evenodd" fill-opacity="1" /><path clip-path="url(#clip720)" d="M912.379 1516.63 L900.573 1535.08 L912.379 1535.08 L912.379 1516.63 M911.152 1512.56 L917.031 1512.56 L917.031 1535.08 L921.962 1535.08 L921.962 1538.97 L917.031 1538.97 L917.031 1547.12 L912.379 1547.12 L912.379 1538.97 L896.777 1538.97 L896.777 1534.46 L911.152 1512.56 Z" fill="#000000" fill-rule="evenodd" fill-opacity="1" /><path clip-path="url(#clip720)" d="M1370.18 1527.98 Q1367.04 1527.98 1365.18 1530.13 Q1363.36 1532.28 1363.36 1536.03 Q1363.36 1539.76 1365.18 1541.93 Q1367.04 1544.09 1370.18 1544.09 Q1373.33 1544.09 1375.16 1541.93 Q1377.01 1539.76 1377.01 1536.03 Q1377.01 1532.28 1375.16 1530.13 Q1373.33 1527.98 1370.18 1527.98 M1379.47 1513.32 L1379.47 1517.58 Q1377.71 1516.75 1375.9 1516.31 Q1374.12 1515.87 1372.36 1515.87 Q1367.73 1515.87 1365.28 1519 Q1362.85 1522.12 1362.5 1528.44 Q1363.87 1526.43 1365.93 1525.36 Q1367.99 1524.27 1370.46 1524.27 Q1375.67 1524.27 1378.68 1527.44 Q1381.71 1530.59 1381.71 1536.03 Q1381.71 1541.36 1378.56 1544.57 Q1375.42 1547.79 1370.18 1547.79 Q1364.19 1547.79 1361.02 1543.21 Q1357.85 1538.6 1357.85 1529.87 Q1357.85 1521.68 1361.74 1516.82 Q1365.62 1511.93 1372.18 1511.93 Q1373.93 1511.93 1375.72 1512.28 Q1377.52 1512.63 1379.47 1513.32 Z" fill="#000000" fill-rule="evenodd" fill-opacity="1" /><path clip-path="url(#clip720)" d="M1830.19 1530.71 Q1826.86 1530.71 1824.94 1532.49 Q1823.04 1534.27 1823.04 1537.4 Q1823.04 1540.52 1824.94 1542.31 Q1826.86 1544.09 1830.19 1544.09 Q1833.52 1544.09 1835.44 1542.31 Q1837.37 1540.5 1837.37 1537.4 Q1837.37 1534.27 1835.44 1532.49 Q1833.55 1530.71 1830.19 1530.71 M1825.51 1528.72 Q1822.5 1527.98 1820.82 1525.92 Q1819.15 1523.86 1819.15 1520.89 Q1819.15 1516.75 1822.09 1514.34 Q1825.05 1511.93 1830.19 1511.93 Q1835.35 1511.93 1838.29 1514.34 Q1841.23 1516.75 1841.23 1520.89 Q1841.23 1523.86 1839.54 1525.92 Q1837.88 1527.98 1834.89 1528.72 Q1838.27 1529.5 1840.14 1531.8 Q1842.04 1534.09 1842.04 1537.4 Q1842.04 1542.42 1838.96 1545.11 Q1835.91 1547.79 1830.19 1547.79 Q1824.47 1547.79 1821.39 1545.11 Q1818.34 1542.42 1818.34 1537.4 Q1818.34 1534.09 1820.24 1531.8 Q1822.13 1529.5 1825.51 1528.72 M1823.8 1521.33 Q1823.8 1524.02 1825.47 1525.52 Q1827.16 1527.03 1830.19 1527.03 Q1833.2 1527.03 1834.89 1525.52 Q1836.6 1524.02 1836.6 1521.33 Q1836.6 1518.65 1834.89 1517.14 Q1833.2 1515.64 1830.19 1515.64 Q1827.16 1515.64 1825.47 1517.14 Q1823.8 1518.65 1823.8 1521.33 Z" fill="#000000" fill-rule="evenodd" fill-opacity="1" /><path clip-path="url(#clip720)" d="M2265.29 1543.18 L2272.93 1543.18 L2272.93 1516.82 L2264.62 1518.49 L2264.62 1514.23 L2272.88 1512.56 L2277.56 1512.56 L2277.56 1543.18 L2285.2 1543.18 L2285.2 1547.12 L2265.29 1547.12 L2265.29 1543.18 Z" fill="#000000" fill-rule="evenodd" fill-opacity="1" /><path clip-path="url(#clip720)" d="M2304.64 1515.64 Q2301.03 1515.64 2299.2 1519.2 Q2297.39 1522.75 2297.39 1529.87 Q2297.39 1536.98 2299.2 1540.55 Q2301.03 1544.09 2304.64 1544.09 Q2308.27 1544.09 2310.08 1540.55 Q2311.91 1536.98 2311.91 1529.87 Q2311.91 1522.75 2310.08 1519.2 Q2308.27 1515.64 2304.64 1515.64 M2304.64 1511.93 Q2310.45 1511.93 2313.51 1516.54 Q2316.58 1521.12 2316.58 1529.87 Q2316.58 1538.6 2313.51 1543.21 Q2310.45 1547.79 2304.64 1547.79 Q2298.83 1547.79 2295.75 1543.21 Q2292.7 1538.6 2292.7 1529.87 Q2292.7 1521.12 2295.75 1516.54 Q2298.83 1511.93 2304.64 1511.93 Z" fill="#000000" fill-rule="evenodd" fill-opacity="1" /><polyline clip-path="url(#clip722)" style="stroke:#000000; stroke-linecap:butt; stroke-linejoin:round; stroke-width:2; stroke-opacity:0.1; fill:none" points="
  156.598,1446.34 2352.76,1446.34 
  "/>
<polyline clip-path="url(#clip722)" style="stroke:#000000; stroke-linecap:butt; stroke-linejoin:round; stroke-width:2; stroke-opacity:0.1; fill:none" points="
  156.598,1149.22 2352.76,1149.22 
  "/>
<polyline clip-path="url(#clip722)" style="stroke:#000000; stroke-linecap:butt; stroke-linejoin:round; stroke-width:2; stroke-opacity:0.1; fill:none" points="
  156.598,852.103 2352.76,852.103 
  "/>
<polyline clip-path="url(#clip722)" style="stroke:#000000; stroke-linecap:butt; stroke-linejoin:round; stroke-width:2; stroke-opacity:0.1; fill:none" points="
  156.598,554.986 2352.76,554.986 
  "/>
<polyline clip-path="url(#clip722)" style="stroke:#000000; stroke-linecap:butt; stroke-linejoin:round; stroke-width:2; stroke-opacity:0.1; fill:none" points="
  156.598,257.868 2352.76,257.868 
  "/>
<polyline clip-path="url(#clip720)" style="stroke:#000000; stroke-linecap:butt; stroke-linejoin:round; stroke-width:4; stroke-opacity:1; fill:none" points="
  156.598,1486.45 156.598,47.2441 
  "/>
<polyline clip-path="url(#clip720)" style="stroke:#000000; stroke-linecap:butt; stroke-linejoin:round; stroke-width:4; stroke-opacity:1; fill:none" points="
  156.598,1446.34 175.496,1446.34 
  "/>
<polyline clip-path="url(#clip720)" style="stroke:#000000; stroke-linecap:butt; stroke-linejoin:round; stroke-width:4; stroke-opacity:1; fill:none" points="
  156.598,1149.22 175.496,1149.22 
  "/>
<polyline clip-path="url(#clip720)" style="stroke:#000000; stroke-linecap:butt; stroke-linejoin:round; stroke-width:4; stroke-opacity:1; fill:none" points="
  156.598,852.103 175.496,852.103 
  "/>
<polyline clip-path="url(#clip720)" style="stroke:#000000; stroke-linecap:butt; stroke-linejoin:round; stroke-width:4; stroke-opacity:1; fill:none" points="
  156.598,554.986 175.496,554.986 
  "/>
<polyline clip-path="url(#clip720)" style="stroke:#000000; stroke-linecap:butt; stroke-linejoin:round; stroke-width:4; stroke-opacity:1; fill:none" points="
  156.598,257.868 175.496,257.868 
  "/>
<path clip-path="url(#clip720)" d="M63.4226 1432.14 Q59.8115 1432.14 57.9828 1435.7 Q56.1773 1439.24 56.1773 1446.37 Q56.1773 1453.48 57.9828 1457.04 Q59.8115 1460.59 63.4226 1460.59 Q67.0569 1460.59 68.8624 1457.04 Q70.6911 1453.48 70.6911 1446.37 Q70.6911 1439.24 68.8624 1435.7 Q67.0569 1432.14 63.4226 1432.14 M63.4226 1428.43 Q69.2328 1428.43 72.2883 1433.04 Q75.367 1437.62 75.367 1446.37 Q75.367 1455.1 72.2883 1459.71 Q69.2328 1464.29 63.4226 1464.29 Q57.6125 1464.29 54.5338 1459.71 Q51.4782 1455.1 51.4782 1446.37 Q51.4782 1437.62 54.5338 1433.04 Q57.6125 1428.43 63.4226 1428.43 Z" fill="#000000" fill-rule="evenodd" fill-opacity="1" /><path clip-path="url(#clip720)" d="M83.5845 1457.74 L88.4688 1457.74 L88.4688 1463.62 L83.5845 1463.62 L83.5845 1457.74 Z" fill="#000000" fill-rule="evenodd" fill-opacity="1" /><path clip-path="url(#clip720)" d="M108.654 1432.14 Q105.043 1432.14 103.214 1435.7 Q101.409 1439.24 101.409 1446.37 Q101.409 1453.48 103.214 1457.04 Q105.043 1460.59 108.654 1460.59 Q112.288 1460.59 114.094 1457.04 Q115.922 1453.48 115.922 1446.37 Q115.922 1439.24 114.094 1435.7 Q112.288 1432.14 108.654 1432.14 M108.654 1428.43 Q114.464 1428.43 117.52 1433.04 Q120.598 1437.62 120.598 1446.37 Q120.598 1455.1 117.52 1459.71 Q114.464 1464.29 108.654 1464.29 Q102.844 1464.29 99.765 1459.71 Q96.7095 1455.1 96.7095 1446.37 Q96.7095 1437.62 99.765 1433.04 Q102.844 1428.43 108.654 1428.43 Z" fill="#000000" fill-rule="evenodd" fill-opacity="1" /><path clip-path="url(#clip720)" d="M65.0198 1135.02 Q61.4087 1135.02 59.58 1138.58 Q57.7745 1142.13 57.7745 1149.26 Q57.7745 1156.36 59.58 1159.93 Q61.4087 1163.47 65.0198 1163.47 Q68.6541 1163.47 70.4596 1159.93 Q72.2883 1156.36 72.2883 1149.26 Q72.2883 1142.13 70.4596 1138.58 Q68.6541 1135.02 65.0198 1135.02 M65.0198 1131.32 Q70.83 1131.32 73.8855 1135.92 Q76.9642 1140.51 76.9642 1149.26 Q76.9642 1157.98 73.8855 1162.59 Q70.83 1167.17 65.0198 1167.17 Q59.2097 1167.17 56.131 1162.59 Q53.0754 1157.98 53.0754 1149.26 Q53.0754 1140.51 56.131 1135.92 Q59.2097 1131.32 65.0198 1131.32 Z" fill="#000000" fill-rule="evenodd" fill-opacity="1" /><path clip-path="url(#clip720)" d="M85.1818 1160.62 L90.066 1160.62 L90.066 1166.5 L85.1818 1166.5 L85.1818 1160.62 Z" fill="#000000" fill-rule="evenodd" fill-opacity="1" /><path clip-path="url(#clip720)" d="M104.279 1162.57 L120.598 1162.57 L120.598 1166.5 L98.6539 1166.5 L98.6539 1162.57 Q101.316 1159.81 105.899 1155.18 Q110.506 1150.53 111.686 1149.19 Q113.932 1146.66 114.811 1144.93 Q115.714 1143.17 115.714 1141.48 Q115.714 1138.72 113.77 1136.99 Q111.848 1135.25 108.746 1135.25 Q106.547 1135.25 104.094 1136.01 Q101.663 1136.78 98.8854 1138.33 L98.8854 1133.61 Q101.709 1132.47 104.163 1131.89 Q106.617 1131.32 108.654 1131.32 Q114.024 1131.32 117.219 1134 Q120.413 1136.69 120.413 1141.18 Q120.413 1143.31 119.603 1145.23 Q118.816 1147.13 116.709 1149.72 Q116.131 1150.39 113.029 1153.61 Q109.927 1156.8 104.279 1162.57 Z" fill="#000000" fill-rule="evenodd" fill-opacity="1" /><path clip-path="url(#clip720)" d="M62.9365 837.902 Q59.3254 837.902 57.4967 841.467 Q55.6912 845.008 55.6912 852.138 Q55.6912 859.244 57.4967 862.809 Q59.3254 866.351 62.9365 866.351 Q66.5707 866.351 68.3763 862.809 Q70.205 859.244 70.205 852.138 Q70.205 845.008 68.3763 841.467 Q66.5707 837.902 62.9365 837.902 M62.9365 834.198 Q68.7467 834.198 71.8022 838.805 Q74.8809 843.388 74.8809 852.138 Q74.8809 860.865 71.8022 865.471 Q68.7467 870.055 62.9365 870.055 Q57.1264 870.055 54.0477 865.471 Q50.9921 860.865 50.9921 852.138 Q50.9921 843.388 54.0477 838.805 Q57.1264 834.198 62.9365 834.198 Z" fill="#000000" fill-rule="evenodd" fill-opacity="1" /><path clip-path="url(#clip720)" d="M83.0984 863.504 L87.9827 863.504 L87.9827 869.383 L83.0984 869.383 L83.0984 863.504 Z" fill="#000000" fill-rule="evenodd" fill-opacity="1" /><path clip-path="url(#clip720)" d="M111.015 838.897 L99.2095 857.346 L111.015 857.346 L111.015 838.897 M109.788 834.823 L115.668 834.823 L115.668 857.346 L120.598 857.346 L120.598 861.235 L115.668 861.235 L115.668 869.383 L111.015 869.383 L111.015 861.235 L95.4132 861.235 L95.4132 856.721 L109.788 834.823 Z" fill="#000000" fill-rule="evenodd" fill-opacity="1" /><path clip-path="url(#clip720)" d="M63.2606 540.784 Q59.6495 540.784 57.8208 544.349 Q56.0152 547.891 56.0152 555.02 Q56.0152 562.127 57.8208 565.692 Q59.6495 569.233 63.2606 569.233 Q66.8948 569.233 68.7004 565.692 Q70.5291 562.127 70.5291 555.02 Q70.5291 547.891 68.7004 544.349 Q66.8948 540.784 63.2606 540.784 M63.2606 537.081 Q69.0707 537.081 72.1263 541.687 Q75.205 546.271 75.205 555.02 Q75.205 563.747 72.1263 568.354 Q69.0707 572.937 63.2606 572.937 Q57.4504 572.937 54.3717 568.354 Q51.3162 563.747 51.3162 555.02 Q51.3162 546.271 54.3717 541.687 Q57.4504 537.081 63.2606 537.081 Z" fill="#000000" fill-rule="evenodd" fill-opacity="1" /><path clip-path="url(#clip720)" d="M83.4225 566.386 L88.3067 566.386 L88.3067 572.266 L83.4225 572.266 L83.4225 566.386 Z" fill="#000000" fill-rule="evenodd" fill-opacity="1" /><path clip-path="url(#clip720)" d="M109.071 553.122 Q105.922 553.122 104.071 555.275 Q102.242 557.428 102.242 561.178 Q102.242 564.905 104.071 567.081 Q105.922 569.233 109.071 569.233 Q112.219 569.233 114.047 567.081 Q115.899 564.905 115.899 561.178 Q115.899 557.428 114.047 555.275 Q112.219 553.122 109.071 553.122 M118.353 538.47 L118.353 542.729 Q116.594 541.896 114.788 541.456 Q113.006 541.016 111.246 541.016 Q106.617 541.016 104.163 544.141 Q101.733 547.266 101.385 553.585 Q102.751 551.571 104.811 550.507 Q106.871 549.419 109.348 549.419 Q114.557 549.419 117.566 552.59 Q120.598 555.738 120.598 561.178 Q120.598 566.502 117.45 569.719 Q114.302 572.937 109.071 572.937 Q103.075 572.937 99.9039 568.354 Q96.7326 563.747 96.7326 555.02 Q96.7326 546.826 100.621 541.965 Q104.51 537.081 111.061 537.081 Q112.82 537.081 114.603 537.428 Q116.408 537.775 118.353 538.47 Z" fill="#000000" fill-rule="evenodd" fill-opacity="1" /><path clip-path="url(#clip720)" d="M63.5152 243.667 Q59.9041 243.667 58.0754 247.232 Q56.2699 250.773 56.2699 257.903 Q56.2699 265.009 58.0754 268.574 Q59.9041 272.116 63.5152 272.116 Q67.1494 272.116 68.955 268.574 Q70.7837 265.009 70.7837 257.903 Q70.7837 250.773 68.955 247.232 Q67.1494 243.667 63.5152 243.667 M63.5152 239.963 Q69.3254 239.963 72.3809 244.57 Q75.4596 249.153 75.4596 257.903 Q75.4596 266.63 72.3809 271.236 Q69.3254 275.82 63.5152 275.82 Q57.7051 275.82 54.6264 271.236 Q51.5708 266.63 51.5708 257.903 Q51.5708 249.153 54.6264 244.57 Q57.7051 239.963 63.5152 239.963 Z" fill="#000000" fill-rule="evenodd" fill-opacity="1" /><path clip-path="url(#clip720)" d="M83.6771 269.269 L88.5614 269.269 L88.5614 275.148 L83.6771 275.148 L83.6771 269.269 Z" fill="#000000" fill-rule="evenodd" fill-opacity="1" /><path clip-path="url(#clip720)" d="M108.746 258.736 Q105.413 258.736 103.492 260.519 Q101.594 262.301 101.594 265.426 Q101.594 268.551 103.492 270.333 Q105.413 272.116 108.746 272.116 Q112.08 272.116 114.001 270.333 Q115.922 268.528 115.922 265.426 Q115.922 262.301 114.001 260.519 Q112.103 258.736 108.746 258.736 M104.071 256.746 Q101.061 256.005 99.3715 253.945 Q97.7048 251.885 97.7048 248.922 Q97.7048 244.778 100.645 242.371 Q103.608 239.963 108.746 239.963 Q113.908 239.963 116.848 242.371 Q119.788 244.778 119.788 248.922 Q119.788 251.885 118.098 253.945 Q116.432 256.005 113.445 256.746 Q116.825 257.533 118.7 259.824 Q120.598 262.116 120.598 265.426 Q120.598 270.449 117.52 273.134 Q114.464 275.82 108.746 275.82 Q103.029 275.82 99.9502 273.134 Q96.8947 270.449 96.8947 265.426 Q96.8947 262.116 98.7928 259.824 Q100.691 257.533 104.071 256.746 M102.358 249.361 Q102.358 252.047 104.024 253.551 Q105.714 255.056 108.746 255.056 Q111.756 255.056 113.445 253.551 Q115.158 252.047 115.158 249.361 Q115.158 246.676 113.445 245.172 Q111.756 243.667 108.746 243.667 Q105.714 243.667 104.024 245.172 Q102.358 246.676 102.358 249.361 Z" fill="#000000" fill-rule="evenodd" fill-opacity="1" /><polyline clip-path="url(#clip722)" style="stroke:#009af9; stroke-linecap:butt; stroke-linejoin:round; stroke-width:4; stroke-opacity:1; fill:none" points="
  218.754,1444.38 448.959,1301.62 679.164,87.9763 909.369,831.308 1139.57,1445.72 1369.78,1291.72 1599.98,1311.71 1830.19,990.675 2060.4,455.493 2290.6,1421.77 
  
  "/>
<path clip-path="url(#clip720)" d="
M1983.1 198.898 L2279.55 198.898 L2279.55 95.2176 L1983.1 95.2176  Z
  " fill="#ffffff" fill-rule="evenodd" fill-opacity="1"/>
<polyline clip-path="url(#clip720)" style="stroke:#000000; stroke-linecap:butt; stroke-linejoin:round; stroke-width:4; stroke-opacity:1; fill:none" points="
  1983.1,198.898 2279.55,198.898 2279.55,95.2176 1983.1,95.2176 1983.1,198.898 
  "/>
<polyline clip-path="url(#clip720)" style="stroke:#009af9; stroke-linecap:butt; stroke-linejoin:round; stroke-width:4; stroke-opacity:1; fill:none" points="
  2007.5,147.058 2153.92,147.058 
  "/>
<path clip-path="url(#clip720)" d="M2192.16 166.745 Q2190.35 171.375 2188.64 172.787 Q2186.93 174.199 2184.06 174.199 L2180.65 174.199 L2180.65 170.634 L2183.15 170.634 Q2184.91 170.634 2185.89 169.8 Q2186.86 168.967 2188.04 165.865 L2188.8 163.921 L2178.32 138.412 L2182.83 138.412 L2190.93 158.689 L2199.03 138.412 L2203.55 138.412 L2192.16 166.745 Z" fill="#000000" fill-rule="evenodd" fill-opacity="1" /><path clip-path="url(#clip720)" d="M2210.84 160.402 L2218.48 160.402 L2218.48 134.037 L2210.17 135.703 L2210.17 131.444 L2218.43 129.778 L2223.11 129.778 L2223.11 160.402 L2230.75 160.402 L2230.75 164.338 L2210.84 164.338 L2210.84 160.402 Z" fill="#000000" fill-rule="evenodd" fill-opacity="1" /></svg>
