<?xml version="1.0" encoding="utf-8"?>
<svg xmlns="http://www.w3.org/2000/svg" xmlns:xlink="http://www.w3.org/1999/xlink" width="600" height="400" viewBox="0 0 2400 1600">
<defs>
  <clipPath id="clip530">
    <rect x="0" y="0" width="2400" height="1600"/>
  </clipPath>
</defs>
<path clip-path="url(#clip530)" d="
M0 1600 L2400 1600 L2400 0 L0 0  Z
  " fill="#ffffff" fill-rule="evenodd" fill-opacity="1"/>
<defs>
  <clipPath id="clip531">
    <rect x="480" y="0" width="1681" height="1600"/>
  </clipPath>
</defs>
<path clip-path="url(#clip530)" d="
M149.191 1486.45 L2352.76 1486.45 L2352.76 47.2441 L149.191 47.2441  Z
  " fill="#ffffff" fill-rule="evenodd" fill-opacity="1"/>
<defs>
  <clipPath id="clip532">
    <rect x="149" y="47" width="2205" height="1440"/>
  </clipPath>
</defs>
<polyline clip-path="url(#clip532)" style="stroke:#000000; stroke-linecap:round; stroke-linejoin:round; stroke-width:2; stroke-opacity:0.1; fill:none" points="
  201.162,1486.45 201.162,47.2441 
  "/>
<polyline clip-path="url(#clip532)" style="stroke:#000000; stroke-linecap:round; stroke-linejoin:round; stroke-width:2; stroke-opacity:0.1; fill:none" points="
  720.87,1486.45 720.87,47.2441 
  "/>
<polyline clip-path="url(#clip532)" style="stroke:#000000; stroke-linecap:round; stroke-linejoin:round; stroke-width:2; stroke-opacity:0.1; fill:none" points="
  1240.58,1486.45 1240.58,47.2441 
  "/>
<polyline clip-path="url(#clip532)" style="stroke:#000000; stroke-linecap:round; stroke-linejoin:round; stroke-width:2; stroke-opacity:0.1; fill:none" points="
  1760.29,1486.45 1760.29,47.2441 
  "/>
<polyline clip-path="url(#clip532)" style="stroke:#000000; stroke-linecap:round; stroke-linejoin:round; stroke-width:2; stroke-opacity:0.1; fill:none" points="
  2280,1486.45 2280,47.2441 
  "/>
<polyline clip-path="url(#clip530)" style="stroke:#000000; stroke-linecap:round; stroke-linejoin:round; stroke-width:4; stroke-opacity:1; fill:none" points="
  149.191,1486.45 2352.76,1486.45 
  "/>
<polyline clip-path="url(#clip530)" style="stroke:#000000; stroke-linecap:round; stroke-linejoin:round; stroke-width:4; stroke-opacity:1; fill:none" points="
  201.162,1486.45 201.162,1467.55 
  "/>
<polyline clip-path="url(#clip530)" style="stroke:#000000; stroke-linecap:round; stroke-linejoin:round; stroke-width:4; stroke-opacity:1; fill:none" points="
  720.87,1486.45 720.87,1467.55 
  "/>
<polyline clip-path="url(#clip530)" style="stroke:#000000; stroke-linecap:round; stroke-linejoin:round; stroke-width:4; stroke-opacity:1; fill:none" points="
  1240.58,1486.45 1240.58,1467.55 
  "/>
<polyline clip-path="url(#clip530)" style="stroke:#000000; stroke-linecap:round; stroke-linejoin:round; stroke-width:4; stroke-opacity:1; fill:none" points="
  1760.29,1486.45 1760.29,1467.55 
  "/>
<polyline clip-path="url(#clip530)" style="stroke:#000000; stroke-linecap:round; stroke-linejoin:round; stroke-width:4; stroke-opacity:1; fill:none" points="
  2280,1486.45 2280,1467.55 
  "/>
<path clip-path="url(#clip530)" d="M201.162 1517.37 Q197.551 1517.37 195.722 1520.93 Q193.916 1524.47 193.916 1531.6 Q193.916 1538.71 195.722 1542.27 Q197.551 1545.82 201.162 1545.82 Q204.796 1545.82 206.602 1542.27 Q208.43 1538.71 208.43 1531.6 Q208.43 1524.47 206.602 1520.93 Q204.796 1517.37 201.162 1517.37 M201.162 1513.66 Q206.972 1513.66 210.027 1518.27 Q213.106 1522.85 213.106 1531.6 Q213.106 1540.33 210.027 1544.94 Q206.972 1549.52 201.162 1549.52 Q195.352 1549.52 192.273 1544.94 Q189.217 1540.33 189.217 1531.6 Q189.217 1522.85 192.273 1518.27 Q195.352 1513.66 201.162 1513.66 Z" fill="#000000" fill-rule="evenodd" fill-opacity="1" /><path clip-path="url(#clip530)" d="M695.57 1514.29 L713.926 1514.29 L713.926 1518.22 L699.852 1518.22 L699.852 1526.7 Q700.871 1526.35 701.889 1526.19 Q702.908 1526 703.926 1526 Q709.713 1526 713.093 1529.17 Q716.472 1532.34 716.472 1537.76 Q716.472 1543.34 713 1546.44 Q709.528 1549.52 703.209 1549.52 Q701.033 1549.52 698.764 1549.15 Q696.519 1548.78 694.111 1548.04 L694.111 1543.34 Q696.195 1544.47 698.417 1545.03 Q700.639 1545.58 703.116 1545.58 Q707.121 1545.58 709.458 1543.48 Q711.796 1541.37 711.796 1537.76 Q711.796 1534.15 709.458 1532.04 Q707.121 1529.94 703.116 1529.94 Q701.241 1529.94 699.366 1530.35 Q697.514 1530.77 695.57 1531.65 L695.57 1514.29 Z" fill="#000000" fill-rule="evenodd" fill-opacity="1" /><path clip-path="url(#clip530)" d="M735.685 1517.37 Q732.074 1517.37 730.245 1520.93 Q728.44 1524.47 728.44 1531.6 Q728.44 1538.71 730.245 1542.27 Q732.074 1545.82 735.685 1545.82 Q739.319 1545.82 741.125 1542.27 Q742.954 1538.71 742.954 1531.6 Q742.954 1524.47 741.125 1520.93 Q739.319 1517.37 735.685 1517.37 M735.685 1513.66 Q741.495 1513.66 744.551 1518.27 Q747.63 1522.85 747.63 1531.6 Q747.63 1540.33 744.551 1544.94 Q741.495 1549.52 735.685 1549.52 Q729.875 1549.52 726.796 1544.94 Q723.741 1540.33 723.741 1531.6 Q723.741 1522.85 726.796 1518.27 Q729.875 1513.66 735.685 1513.66 Z" fill="#000000" fill-rule="evenodd" fill-opacity="1" /><path clip-path="url(#clip530)" d="M1200.19 1544.91 L1207.82 1544.91 L1207.82 1518.55 L1199.51 1520.21 L1199.51 1515.95 L1207.78 1514.29 L1212.45 1514.29 L1212.45 1544.91 L1220.09 1544.91 L1220.09 1548.85 L1200.19 1548.85 L1200.19 1544.91 Z" fill="#000000" fill-rule="evenodd" fill-opacity="1" /><path clip-path="url(#clip530)" d="M1239.54 1517.37 Q1235.93 1517.37 1234.1 1520.93 Q1232.29 1524.47 1232.29 1531.6 Q1232.29 1538.71 1234.1 1542.27 Q1235.93 1545.82 1239.54 1545.82 Q1243.17 1545.82 1244.98 1542.27 Q1246.81 1538.71 1246.81 1531.6 Q1246.81 1524.47 1244.98 1520.93 Q1243.17 1517.37 1239.54 1517.37 M1239.54 1513.66 Q1245.35 1513.66 1248.4 1518.27 Q1251.48 1522.85 1251.48 1531.6 Q1251.48 1540.33 1248.4 1544.94 Q1245.35 1549.52 1239.54 1549.52 Q1233.73 1549.52 1230.65 1544.94 Q1227.59 1540.33 1227.59 1531.6 Q1227.59 1522.85 1230.65 1518.27 Q1233.73 1513.66 1239.54 1513.66 Z" fill="#000000" fill-rule="evenodd" fill-opacity="1" /><path clip-path="url(#clip530)" d="M1269.7 1517.37 Q1266.09 1517.37 1264.26 1520.93 Q1262.45 1524.47 1262.45 1531.6 Q1262.45 1538.71 1264.26 1542.27 Q1266.09 1545.82 1269.7 1545.82 Q1273.33 1545.82 1275.14 1542.27 Q1276.97 1538.71 1276.97 1531.6 Q1276.97 1524.47 1275.14 1520.93 Q1273.33 1517.37 1269.7 1517.37 M1269.7 1513.66 Q1275.51 1513.66 1278.57 1518.27 Q1281.64 1522.85 1281.64 1531.6 Q1281.64 1540.33 1278.57 1544.94 Q1275.51 1549.52 1269.7 1549.52 Q1263.89 1549.52 1260.81 1544.94 Q1257.76 1540.33 1257.76 1531.6 Q1257.76 1522.85 1260.81 1518.27 Q1263.89 1513.66 1269.7 1513.66 Z" fill="#000000" fill-rule="evenodd" fill-opacity="1" /><path clip-path="url(#clip530)" d="M1719.89 1544.91 L1727.53 1544.91 L1727.53 1518.55 L1719.22 1520.21 L1719.22 1515.95 L1727.49 1514.29 L1732.16 1514.29 L1732.16 1544.91 L1739.8 1544.91 L1739.8 1548.85 L1719.89 1548.85 L1719.89 1544.91 Z" fill="#000000" fill-rule="evenodd" fill-opacity="1" /><path clip-path="url(#clip530)" d="M1749.29 1514.29 L1767.65 1514.29 L1767.65 1518.22 L1753.58 1518.22 L1753.58 1526.7 Q1754.59 1526.35 1755.61 1526.19 Q1756.63 1526 1757.65 1526 Q1763.44 1526 1766.82 1529.17 Q1770.2 1532.34 1770.2 1537.76 Q1770.2 1543.34 1766.72 1546.44 Q1763.25 1549.52 1756.93 1549.52 Q1754.76 1549.52 1752.49 1549.15 Q1750.24 1548.78 1747.83 1548.04 L1747.83 1543.34 Q1749.92 1544.47 1752.14 1545.03 Q1754.36 1545.58 1756.84 1545.58 Q1760.84 1545.58 1763.18 1543.48 Q1765.52 1541.37 1765.52 1537.76 Q1765.52 1534.15 1763.18 1532.04 Q1760.84 1529.94 1756.84 1529.94 Q1754.96 1529.94 1753.09 1530.35 Q1751.24 1530.77 1749.29 1531.65 L1749.29 1514.29 Z" fill="#000000" fill-rule="evenodd" fill-opacity="1" /><path clip-path="url(#clip530)" d="M1789.41 1517.37 Q1785.8 1517.37 1783.97 1520.93 Q1782.16 1524.47 1782.16 1531.6 Q1782.16 1538.71 1783.97 1542.27 Q1785.8 1545.82 1789.41 1545.82 Q1793.04 1545.82 1794.85 1542.27 Q1796.68 1538.71 1796.68 1531.6 Q1796.68 1524.47 1794.85 1520.93 Q1793.04 1517.37 1789.41 1517.37 M1789.41 1513.66 Q1795.22 1513.66 1798.27 1518.27 Q1801.35 1522.85 1801.35 1531.6 Q1801.35 1540.33 1798.27 1544.94 Q1795.22 1549.52 1789.41 1549.52 Q1783.6 1549.52 1780.52 1544.94 Q1777.46 1540.33 1777.46 1531.6 Q1777.46 1522.85 1780.52 1518.27 Q1783.6 1513.66 1789.41 1513.66 Z" fill="#000000" fill-rule="evenodd" fill-opacity="1" /><path clip-path="url(#clip530)" d="M2243.69 1544.91 L2260.01 1544.91 L2260.01 1548.85 L2238.06 1548.85 L2238.06 1544.91 Q2240.73 1542.16 2245.31 1537.53 Q2249.92 1532.88 2251.1 1531.53 Q2253.34 1529.01 2254.22 1527.27 Q2255.12 1525.51 2255.12 1523.82 Q2255.12 1521.07 2253.18 1519.33 Q2251.26 1517.6 2248.16 1517.6 Q2245.96 1517.6 2243.5 1518.36 Q2241.07 1519.13 2238.3 1520.68 L2238.3 1515.95 Q2241.12 1514.82 2243.57 1514.24 Q2246.03 1513.66 2248.06 1513.66 Q2253.43 1513.66 2256.63 1516.35 Q2259.82 1519.03 2259.82 1523.52 Q2259.82 1525.65 2259.01 1527.57 Q2258.23 1529.47 2256.12 1532.07 Q2255.54 1532.74 2252.44 1535.95 Q2249.34 1539.15 2243.69 1544.91 Z" fill="#000000" fill-rule="evenodd" fill-opacity="1" /><path clip-path="url(#clip530)" d="M2279.82 1517.37 Q2276.21 1517.37 2274.38 1520.93 Q2272.58 1524.47 2272.58 1531.6 Q2272.58 1538.71 2274.38 1542.27 Q2276.21 1545.82 2279.82 1545.82 Q2283.46 1545.82 2285.26 1542.27 Q2287.09 1538.71 2287.09 1531.6 Q2287.09 1524.47 2285.26 1520.93 Q2283.46 1517.37 2279.82 1517.37 M2279.82 1513.66 Q2285.63 1513.66 2288.69 1518.27 Q2291.77 1522.85 2291.77 1531.6 Q2291.77 1540.33 2288.69 1544.94 Q2285.63 1549.52 2279.82 1549.52 Q2274.01 1549.52 2270.93 1544.94 Q2267.88 1540.33 2267.88 1531.6 Q2267.88 1522.85 2270.93 1518.27 Q2274.01 1513.66 2279.82 1513.66 Z" fill="#000000" fill-rule="evenodd" fill-opacity="1" /><path clip-path="url(#clip530)" d="M2309.98 1517.37 Q2306.37 1517.37 2304.55 1520.93 Q2302.74 1524.47 2302.74 1531.6 Q2302.74 1538.71 2304.55 1542.27 Q2306.37 1545.82 2309.98 1545.82 Q2313.62 1545.82 2315.42 1542.27 Q2317.25 1538.71 2317.25 1531.6 Q2317.25 1524.47 2315.42 1520.93 Q2313.62 1517.37 2309.98 1517.37 M2309.98 1513.66 Q2315.8 1513.66 2318.85 1518.27 Q2321.93 1522.85 2321.93 1531.6 Q2321.93 1540.33 2318.85 1544.94 Q2315.8 1549.52 2309.98 1549.52 Q2304.17 1549.52 2301.1 1544.94 Q2298.04 1540.33 2298.04 1531.6 Q2298.04 1522.85 2301.1 1518.27 Q2304.17 1513.66 2309.98 1513.66 Z" fill="#000000" fill-rule="evenodd" fill-opacity="1" /><polyline clip-path="url(#clip532)" style="stroke:#000000; stroke-linecap:round; stroke-linejoin:round; stroke-width:2; stroke-opacity:0.1; fill:none" points="
  149.191,1464.92 2352.76,1464.92 
  "/>
<polyline clip-path="url(#clip532)" style="stroke:#000000; stroke-linecap:round; stroke-linejoin:round; stroke-width:2; stroke-opacity:0.1; fill:none" points="
  149.191,1150.81 2352.76,1150.81 
  "/>
<polyline clip-path="url(#clip532)" style="stroke:#000000; stroke-linecap:round; stroke-linejoin:round; stroke-width:2; stroke-opacity:0.1; fill:none" points="
  149.191,836.705 2352.76,836.705 
  "/>
<polyline clip-path="url(#clip532)" style="stroke:#000000; stroke-linecap:round; stroke-linejoin:round; stroke-width:2; stroke-opacity:0.1; fill:none" points="
  149.191,522.598 2352.76,522.598 
  "/>
<polyline clip-path="url(#clip532)" style="stroke:#000000; stroke-linecap:round; stroke-linejoin:round; stroke-width:2; stroke-opacity:0.1; fill:none" points="
  149.191,208.49 2352.76,208.49 
  "/>
<polyline clip-path="url(#clip530)" style="stroke:#000000; stroke-linecap:round; stroke-linejoin:round; stroke-width:4; stroke-opacity:1; fill:none" points="
  149.191,1486.45 149.191,47.2441 
  "/>
<polyline clip-path="url(#clip530)" style="stroke:#000000; stroke-linecap:round; stroke-linejoin:round; stroke-width:4; stroke-opacity:1; fill:none" points="
  149.191,1464.92 168.089,1464.92 
  "/>
<polyline clip-path="url(#clip530)" style="stroke:#000000; stroke-linecap:round; stroke-linejoin:round; stroke-width:4; stroke-opacity:1; fill:none" points="
  149.191,1150.81 168.089,1150.81 
  "/>
<polyline clip-path="url(#clip530)" style="stroke:#000000; stroke-linecap:round; stroke-linejoin:round; stroke-width:4; stroke-opacity:1; fill:none" points="
  149.191,836.705 168.089,836.705 
  "/>
<polyline clip-path="url(#clip530)" style="stroke:#000000; stroke-linecap:round; stroke-linejoin:round; stroke-width:4; stroke-opacity:1; fill:none" points="
  149.191,522.598 168.089,522.598 
  "/>
<polyline clip-path="url(#clip530)" style="stroke:#000000; stroke-linecap:round; stroke-linejoin:round; stroke-width:4; stroke-opacity:1; fill:none" points="
  149.191,208.49 168.089,208.49 
  "/>
<path clip-path="url(#clip530)" d="M50.9921 1465.37 L80.6679 1465.37 L80.6679 1469.31 L50.9921 1469.31 L50.9921 1465.37 Z" fill="#000000" fill-rule="evenodd" fill-opacity="1" /><path clip-path="url(#clip530)" d="M103.608 1451.71 L91.8021 1470.16 L103.608 1470.16 L103.608 1451.71 M102.381 1447.64 L108.26 1447.64 L108.26 1470.16 L113.191 1470.16 L113.191 1474.05 L108.26 1474.05 L108.26 1482.2 L103.608 1482.2 L103.608 1474.05 L88.0058 1474.05 L88.0058 1469.54 L102.381 1447.64 Z" fill="#000000" fill-rule="evenodd" fill-opacity="1" /><path clip-path="url(#clip530)" d="M53.0754 1151.26 L82.7512 1151.26 L82.7512 1155.2 L53.0754 1155.2 L53.0754 1151.26 Z" fill="#000000" fill-rule="evenodd" fill-opacity="1" /><path clip-path="url(#clip530)" d="M96.8715 1164.16 L113.191 1164.16 L113.191 1168.09 L91.2465 1168.09 L91.2465 1164.16 Q93.9086 1161.4 98.4919 1156.77 Q103.098 1152.12 104.279 1150.78 Q106.524 1148.25 107.404 1146.52 Q108.307 1144.76 108.307 1143.07 Q108.307 1140.31 106.362 1138.58 Q104.441 1136.84 101.339 1136.84 Q99.14 1136.84 96.6863 1137.61 Q94.2558 1138.37 91.478 1139.92 L91.478 1135.2 Q94.3021 1134.06 96.7558 1133.49 Q99.2095 1132.91 101.246 1132.91 Q106.617 1132.91 109.811 1135.59 Q113.006 1138.28 113.006 1142.77 Q113.006 1144.9 112.196 1146.82 Q111.408 1148.72 109.302 1151.31 Q108.723 1151.98 105.621 1155.2 Q102.52 1158.39 96.8715 1164.16 Z" fill="#000000" fill-rule="evenodd" fill-opacity="1" /><path clip-path="url(#clip530)" d="M101.246 822.503 Q97.6354 822.503 95.8067 826.068 Q94.0012 829.61 94.0012 836.74 Q94.0012 843.846 95.8067 847.411 Q97.6354 850.952 101.246 850.952 Q104.881 850.952 106.686 847.411 Q108.515 843.846 108.515 836.74 Q108.515 829.61 106.686 826.068 Q104.881 822.503 101.246 822.503 M101.246 818.8 Q107.057 818.8 110.112 823.406 Q113.191 827.99 113.191 836.74 Q113.191 845.466 110.112 850.073 Q107.057 854.656 101.246 854.656 Q95.4363 854.656 92.3576 850.073 Q89.3021 845.466 89.3021 836.74 Q89.3021 827.99 92.3576 823.406 Q95.4363 818.8 101.246 818.8 Z" fill="#000000" fill-rule="evenodd" fill-opacity="1" /><path clip-path="url(#clip530)" d="M96.8715 535.942 L113.191 535.942 L113.191 539.878 L91.2465 539.878 L91.2465 535.942 Q93.9086 533.188 98.4919 528.558 Q103.098 523.905 104.279 522.563 Q106.524 520.04 107.404 518.304 Q108.307 516.544 108.307 514.854 Q108.307 512.1 106.362 510.364 Q104.441 508.628 101.339 508.628 Q99.14 508.628 96.6863 509.392 Q94.2558 510.155 91.478 511.706 L91.478 506.984 Q94.3021 505.85 96.7558 505.271 Q99.2095 504.693 101.246 504.693 Q106.617 504.693 109.811 507.378 Q113.006 510.063 113.006 514.554 Q113.006 516.683 112.196 518.604 Q111.408 520.503 109.302 523.095 Q108.723 523.766 105.621 526.984 Q102.52 530.178 96.8715 535.942 Z" fill="#000000" fill-rule="evenodd" fill-opacity="1" /><path clip-path="url(#clip530)" d="M103.608 195.284 L91.8021 213.733 L103.608 213.733 L103.608 195.284 M102.381 191.21 L108.26 191.21 L108.26 213.733 L113.191 213.733 L113.191 217.622 L108.26 217.622 L108.26 225.77 L103.608 225.77 L103.608 217.622 L88.0058 217.622 L88.0058 213.108 L102.381 191.21 Z" fill="#000000" fill-rule="evenodd" fill-opacity="1" /><polyline clip-path="url(#clip532)" style="stroke:#009af9; stroke-linecap:round; stroke-linejoin:round; stroke-width:4; stroke-opacity:1; fill:none" points="
  211.556,836.705 221.95,1076.17 232.344,809.788 242.738,619.611 253.133,647.354 263.527,964.867 273.921,811.988 284.315,766.015 294.709,873.368 305.103,905.322 
  315.498,841.768 325.892,870.886 336.286,1005.26 346.68,912.591 357.074,740.375 367.469,791.685 377.863,571.936 388.257,445.028 398.651,467.489 409.045,229.741 
  419.439,326.356 429.834,476.928 440.228,610.183 450.622,613.701 461.016,524.615 471.41,356.314 481.804,202.204 492.199,313.724 502.593,364.817 512.987,318.686 
  523.381,496.831 533.775,592.64 544.17,536.9 554.564,346.057 564.958,360.47 575.352,87.9763 585.746,143.14 596.14,387.689 606.535,369.982 616.929,378.866 
  627.323,521.606 637.717,517.21 648.111,412.765 658.505,475.892 668.9,562.85 679.294,723.886 689.688,694.783 700.082,668.261 710.476,779.236 720.87,614.043 
  731.265,640.964 741.659,805.275 752.053,927.53 762.447,1136.11 772.841,1445.72 783.236,1395.02 793.63,1273.49 804.024,1314.98 814.418,1155.37 824.812,1196.28 
  835.206,926.842 845.601,699.827 855.995,877.417 866.389,648.959 876.783,672.84 887.177,514.159 897.571,564.941 907.966,767.604 918.36,493.846 928.754,676.582 
  939.148,950.482 949.542,1098.71 959.936,977.449 970.331,880.98 980.725,1170.16 991.119,1370.58 1001.51,1304.41 1011.91,1271.22 1022.3,1147.73 1032.7,1099.53 
  1043.09,846.913 1053.48,817.608 1063.88,823.811 1074.27,878.936 1084.67,961.095 1095.06,680.527 1105.45,628.799 1115.85,471.376 1126.24,319.158 1136.64,329.649 
  1147.03,357.785 1157.43,314.293 1167.82,308.686 1178.21,391.358 1188.61,852.256 1199,1088.29 1209.4,1198.52 1219.79,937.597 1230.19,1131.91 1240.58,1016.09 
  1250.97,876.317 1261.37,798.886 1271.76,553.759 1282.16,736.441 1292.55,854.225 1302.94,787.156 1313.34,845.317 1323.73,1125.57 1334.13,1138.2 1344.52,1030.03 
  1354.92,1108.46 1365.31,1058.9 1375.7,1318.28 1386.1,1028.94 1396.49,919.19 1406.89,730.018 1417.28,734.427 1427.67,749.507 1438.07,709.415 1448.46,683.782 
  1458.86,684.667 1469.25,782.969 1479.65,941.545 1490.04,795.291 1500.43,558.563 1510.83,222.131 1521.22,277.036 1531.62,270.939 1542.01,565.642 1552.4,750.317 
  1562.8,587.074 1573.19,425.42 1583.59,343.18 1593.98,461.986 1604.38,259.168 1614.77,469.138 1625.16,439.754 1635.56,541.144 1645.95,646.465 1656.35,594.309 
  1666.74,841.671 1677.13,935.805 1687.53,1044.7 1697.92,1016.68 1708.32,777.126 1718.71,701.262 1729.11,799.058 1739.5,679.047 1749.89,446.025 1760.29,783.97 
  1770.68,472.299 1781.08,776.651 1791.47,910.795 1801.86,695.469 1812.26,709.098 1822.65,524.787 1833.05,466.304 1843.44,610.421 1853.84,773.476 1864.23,924.051 
  1874.62,793.079 1885.02,625.464 1895.41,473.051 1905.81,681.909 1916.2,813.171 1926.59,931.539 1936.99,698.99 1947.38,698.313 1957.78,711.66 1968.17,597.967 
  1978.57,561.143 1988.96,678.79 1999.35,602.611 2009.75,714.787 2020.14,573.001 2030.54,627.18 2040.93,761.073 2051.32,927.698 2061.72,926.766 2072.11,717.154 
  2082.51,997.738 2092.9,1127.89 2103.3,1254.18 2113.69,834.811 2124.08,1000.4 2134.48,882.129 2144.87,835.511 2155.27,914.299 2165.66,754.734 2176.05,846.337 
  2186.45,700.783 2196.84,617.188 2207.24,726.635 2217.63,819.343 2228.03,701.855 2238.42,573.563 2248.81,580.269 2259.21,749.974 2269.6,881.613 2280,830.273 
  2290.39,800.404 
  "/>
<path clip-path="url(#clip530)" d="
M2006.52 198.898 L2279.3 198.898 L2279.3 95.2176 L2006.52 95.2176  Z
  " fill="#ffffff" fill-rule="evenodd" fill-opacity="1"/>
<polyline clip-path="url(#clip530)" style="stroke:#000000; stroke-linecap:round; stroke-linejoin:round; stroke-width:4; stroke-opacity:1; fill:none" points="
  2006.52,198.898 2279.3,198.898 2279.3,95.2176 2006.52,95.2176 2006.52,198.898 
  "/>
<polyline clip-path="url(#clip530)" style="stroke:#009af9; stroke-linecap:round; stroke-linejoin:round; stroke-width:4; stroke-opacity:1; fill:none" points="
  2031,147.058 2177.91,147.058 
  "/>
<path clip-path="url(#clip530)" d="M2216.23 166.745 Q2214.43 171.375 2212.71 172.787 Q2211 174.199 2208.13 174.199 L2204.73 174.199 L2204.73 170.634 L2207.23 170.634 Q2208.99 170.634 2209.96 169.8 Q2210.93 168.967 2212.11 165.865 L2212.88 163.921 L2202.39 138.412 L2206.9 138.412 L2215.01 158.689 L2223.11 138.412 L2227.62 138.412 L2216.23 166.745 Z" fill="#000000" fill-rule="evenodd" fill-opacity="1" /><path clip-path="url(#clip530)" d="M2234.91 160.402 L2242.55 160.402 L2242.55 134.037 L2234.24 135.703 L2234.24 131.444 L2242.5 129.778 L2247.18 129.778 L2247.18 160.402 L2254.82 160.402 L2254.82 164.338 L2234.91 164.338 L2234.91 160.402 Z" fill="#000000" fill-rule="evenodd" fill-opacity="1" /></svg>
