<?xml version="1.0" encoding="utf-8"?>
<svg xmlns="http://www.w3.org/2000/svg" xmlns:xlink="http://www.w3.org/1999/xlink" width="600" height="400" viewBox="0 0 2400 1600">
<defs>
  <clipPath id="clip160">
    <rect x="0" y="0" width="2400" height="1600"/>
  </clipPath>
</defs>
<path clip-path="url(#clip160)" d="
M0 1600 L2400 1600 L2400 0 L0 0  Z
  " fill="#ffffff" fill-rule="evenodd" fill-opacity="1"/>
<defs>
  <clipPath id="clip161">
    <rect x="480" y="0" width="1681" height="1600"/>
  </clipPath>
</defs>
<path clip-path="url(#clip160)" d="
M112.177 1486.45 L2352.76 1486.45 L2352.76 47.2441 L112.177 47.2441  Z
  " fill="#ffffff" fill-rule="evenodd" fill-opacity="1"/>
<defs>
  <clipPath id="clip162">
    <rect x="112" y="47" width="2242" height="1440"/>
  </clipPath>
</defs>
<polyline clip-path="url(#clip162)" style="stroke:#000000; stroke-linecap:round; stroke-linejoin:round; stroke-width:2; stroke-opacity:0.1; fill:none" points="
  175.59,1486.45 175.59,47.2441 
  "/>
<polyline clip-path="url(#clip162)" style="stroke:#000000; stroke-linecap:round; stroke-linejoin:round; stroke-width:2; stroke-opacity:0.1; fill:none" points="
  880.174,1486.45 880.174,47.2441 
  "/>
<polyline clip-path="url(#clip162)" style="stroke:#000000; stroke-linecap:round; stroke-linejoin:round; stroke-width:2; stroke-opacity:0.1; fill:none" points="
  1584.76,1486.45 1584.76,47.2441 
  "/>
<polyline clip-path="url(#clip162)" style="stroke:#000000; stroke-linecap:round; stroke-linejoin:round; stroke-width:2; stroke-opacity:0.1; fill:none" points="
  2289.34,1486.45 2289.34,47.2441 
  "/>
<polyline clip-path="url(#clip160)" style="stroke:#000000; stroke-linecap:round; stroke-linejoin:round; stroke-width:4; stroke-opacity:1; fill:none" points="
  112.177,1486.45 2352.76,1486.45 
  "/>
<polyline clip-path="url(#clip160)" style="stroke:#000000; stroke-linecap:round; stroke-linejoin:round; stroke-width:4; stroke-opacity:1; fill:none" points="
  175.59,1486.45 175.59,1467.55 
  "/>
<polyline clip-path="url(#clip160)" style="stroke:#000000; stroke-linecap:round; stroke-linejoin:round; stroke-width:4; stroke-opacity:1; fill:none" points="
  880.174,1486.45 880.174,1467.55 
  "/>
<polyline clip-path="url(#clip160)" style="stroke:#000000; stroke-linecap:round; stroke-linejoin:round; stroke-width:4; stroke-opacity:1; fill:none" points="
  1584.76,1486.45 1584.76,1467.55 
  "/>
<polyline clip-path="url(#clip160)" style="stroke:#000000; stroke-linecap:round; stroke-linejoin:round; stroke-width:4; stroke-opacity:1; fill:none" points="
  2289.34,1486.45 2289.34,1467.55 
  "/>
<path clip-path="url(#clip160)" d="M175.59 1517.37 Q171.979 1517.37 170.15 1520.93 Q168.344 1524.47 168.344 1531.6 Q168.344 1538.71 170.15 1542.27 Q171.979 1545.82 175.59 1545.82 Q179.224 1545.82 181.03 1542.27 Q182.858 1538.71 182.858 1531.6 Q182.858 1524.47 181.03 1520.93 Q179.224 1517.37 175.59 1517.37 M175.59 1513.66 Q181.4 1513.66 184.455 1518.27 Q187.534 1522.85 187.534 1531.6 Q187.534 1540.33 184.455 1544.94 Q181.4 1549.52 175.59 1549.52 Q169.78 1549.52 166.701 1544.94 Q163.645 1540.33 163.645 1531.6 Q163.645 1522.85 166.701 1518.27 Q169.78 1513.66 175.59 1513.66 Z" fill="#000000" fill-rule="evenodd" fill-opacity="1" /><path clip-path="url(#clip160)" d="M870.556 1544.91 L878.195 1544.91 L878.195 1518.55 L869.885 1520.21 L869.885 1515.95 L878.149 1514.29 L882.825 1514.29 L882.825 1544.91 L890.464 1544.91 L890.464 1548.85 L870.556 1548.85 L870.556 1544.91 Z" fill="#000000" fill-rule="evenodd" fill-opacity="1" /><path clip-path="url(#clip160)" d="M1579.41 1544.91 L1595.73 1544.91 L1595.73 1548.85 L1573.79 1548.85 L1573.79 1544.91 Q1576.45 1542.16 1581.03 1537.53 Q1585.64 1532.88 1586.82 1531.53 Q1589.06 1529.01 1589.94 1527.27 Q1590.85 1525.51 1590.85 1523.82 Q1590.85 1521.07 1588.9 1519.33 Q1586.98 1517.6 1583.88 1517.6 Q1581.68 1517.6 1579.23 1518.36 Q1576.8 1519.13 1574.02 1520.68 L1574.02 1515.95 Q1576.84 1514.82 1579.3 1514.24 Q1581.75 1513.66 1583.79 1513.66 Q1589.16 1513.66 1592.35 1516.35 Q1595.55 1519.03 1595.55 1523.52 Q1595.55 1525.65 1594.74 1527.57 Q1593.95 1529.47 1591.84 1532.07 Q1591.26 1532.74 1588.16 1535.95 Q1585.06 1539.15 1579.41 1544.91 Z" fill="#000000" fill-rule="evenodd" fill-opacity="1" /><path clip-path="url(#clip160)" d="M2293.59 1530.21 Q2296.95 1530.93 2298.82 1533.2 Q2300.72 1535.47 2300.72 1538.8 Q2300.72 1543.92 2297.2 1546.72 Q2293.68 1549.52 2287.2 1549.52 Q2285.03 1549.52 2282.71 1549.08 Q2280.42 1548.66 2277.97 1547.81 L2277.97 1543.29 Q2279.91 1544.43 2282.23 1545.01 Q2284.54 1545.58 2287.06 1545.58 Q2291.46 1545.58 2293.75 1543.85 Q2296.07 1542.11 2296.07 1538.8 Q2296.07 1535.75 2293.92 1534.03 Q2291.79 1532.3 2287.97 1532.3 L2283.94 1532.3 L2283.94 1528.45 L2288.15 1528.45 Q2291.6 1528.45 2293.43 1527.09 Q2295.26 1525.7 2295.26 1523.11 Q2295.26 1520.45 2293.36 1519.03 Q2291.48 1517.6 2287.97 1517.6 Q2286.04 1517.6 2283.85 1518.01 Q2281.65 1518.43 2279.01 1519.31 L2279.01 1515.14 Q2281.67 1514.4 2283.98 1514.03 Q2286.32 1513.66 2288.38 1513.66 Q2293.71 1513.66 2296.81 1516.09 Q2299.91 1518.5 2299.91 1522.62 Q2299.91 1525.49 2298.27 1527.48 Q2296.62 1529.45 2293.59 1530.21 Z" fill="#000000" fill-rule="evenodd" fill-opacity="1" /><polyline clip-path="url(#clip162)" style="stroke:#000000; stroke-linecap:round; stroke-linejoin:round; stroke-width:2; stroke-opacity:0.1; fill:none" points="
  112.177,1445.72 2352.76,1445.72 
  "/>
<polyline clip-path="url(#clip162)" style="stroke:#000000; stroke-linecap:round; stroke-linejoin:round; stroke-width:2; stroke-opacity:0.1; fill:none" points="
  112.177,1174.17 2352.76,1174.17 
  "/>
<polyline clip-path="url(#clip162)" style="stroke:#000000; stroke-linecap:round; stroke-linejoin:round; stroke-width:2; stroke-opacity:0.1; fill:none" points="
  112.177,902.62 2352.76,902.62 
  "/>
<polyline clip-path="url(#clip162)" style="stroke:#000000; stroke-linecap:round; stroke-linejoin:round; stroke-width:2; stroke-opacity:0.1; fill:none" points="
  112.177,631.072 2352.76,631.072 
  "/>
<polyline clip-path="url(#clip162)" style="stroke:#000000; stroke-linecap:round; stroke-linejoin:round; stroke-width:2; stroke-opacity:0.1; fill:none" points="
  112.177,359.524 2352.76,359.524 
  "/>
<polyline clip-path="url(#clip162)" style="stroke:#000000; stroke-linecap:round; stroke-linejoin:round; stroke-width:2; stroke-opacity:0.1; fill:none" points="
  112.177,87.9763 2352.76,87.9763 
  "/>
<polyline clip-path="url(#clip160)" style="stroke:#000000; stroke-linecap:round; stroke-linejoin:round; stroke-width:4; stroke-opacity:1; fill:none" points="
  112.177,1486.45 112.177,47.2441 
  "/>
<polyline clip-path="url(#clip160)" style="stroke:#000000; stroke-linecap:round; stroke-linejoin:round; stroke-width:4; stroke-opacity:1; fill:none" points="
  112.177,1445.72 131.075,1445.72 
  "/>
<polyline clip-path="url(#clip160)" style="stroke:#000000; stroke-linecap:round; stroke-linejoin:round; stroke-width:4; stroke-opacity:1; fill:none" points="
  112.177,1174.17 131.075,1174.17 
  "/>
<polyline clip-path="url(#clip160)" style="stroke:#000000; stroke-linecap:round; stroke-linejoin:round; stroke-width:4; stroke-opacity:1; fill:none" points="
  112.177,902.62 131.075,902.62 
  "/>
<polyline clip-path="url(#clip160)" style="stroke:#000000; stroke-linecap:round; stroke-linejoin:round; stroke-width:4; stroke-opacity:1; fill:none" points="
  112.177,631.072 131.075,631.072 
  "/>
<polyline clip-path="url(#clip160)" style="stroke:#000000; stroke-linecap:round; stroke-linejoin:round; stroke-width:4; stroke-opacity:1; fill:none" points="
  112.177,359.524 131.075,359.524 
  "/>
<polyline clip-path="url(#clip160)" style="stroke:#000000; stroke-linecap:round; stroke-linejoin:round; stroke-width:4; stroke-opacity:1; fill:none" points="
  112.177,87.9763 131.075,87.9763 
  "/>
<path clip-path="url(#clip160)" d="M66.5939 1432.51 L54.7884 1450.96 L66.5939 1450.96 L66.5939 1432.51 M65.367 1428.44 L71.2466 1428.44 L71.2466 1450.96 L76.1772 1450.96 L76.1772 1454.85 L71.2466 1454.85 L71.2466 1463 L66.5939 1463 L66.5939 1454.85 L50.9921 1454.85 L50.9921 1450.33 L65.367 1428.44 Z" fill="#000000" fill-rule="evenodd" fill-opacity="1" /><path clip-path="url(#clip160)" d="M55.2745 1156.89 L73.6309 1156.89 L73.6309 1160.82 L59.5569 1160.82 L59.5569 1169.3 Q60.5754 1168.95 61.5939 1168.79 Q62.6124 1168.6 63.6309 1168.6 Q69.418 1168.6 72.7976 1171.77 Q76.1772 1174.94 76.1772 1180.36 Q76.1772 1185.94 72.705 1189.04 Q69.2328 1192.12 62.9134 1192.12 Q60.7374 1192.12 58.4689 1191.75 Q56.2236 1191.38 53.8162 1190.64 L53.8162 1185.94 Q55.8995 1187.07 58.1217 1187.63 Q60.3439 1188.18 62.8208 1188.18 Q66.8254 1188.18 69.1633 1186.08 Q71.5013 1183.97 71.5013 1180.36 Q71.5013 1176.75 69.1633 1174.64 Q66.8254 1172.54 62.8208 1172.54 Q60.9458 1172.54 59.0708 1172.95 Q57.2189 1173.37 55.2745 1174.25 L55.2745 1156.89 Z" fill="#000000" fill-rule="evenodd" fill-opacity="1" /><path clip-path="url(#clip160)" d="M64.6495 900.757 Q61.5013 900.757 59.6495 902.909 Q57.8208 905.062 57.8208 908.812 Q57.8208 912.539 59.6495 914.715 Q61.5013 916.868 64.6495 916.868 Q67.7976 916.868 69.6263 914.715 Q71.4781 912.539 71.4781 908.812 Q71.4781 905.062 69.6263 902.909 Q67.7976 900.757 64.6495 900.757 M73.9318 886.104 L73.9318 890.363 Q72.1726 889.53 70.367 889.09 Q68.5846 888.65 66.8254 888.65 Q62.1958 888.65 59.7421 891.775 Q57.3115 894.9 56.9643 901.219 Q58.33 899.206 60.3902 898.141 Q62.4504 897.053 64.9272 897.053 Q70.1355 897.053 73.1448 900.224 Q76.1772 903.372 76.1772 908.812 Q76.1772 914.136 73.029 917.354 Q69.8809 920.571 64.6495 920.571 Q58.6541 920.571 55.4828 915.988 Q52.3116 911.381 52.3116 902.655 Q52.3116 894.46 56.2004 889.599 Q60.0893 884.715 66.6402 884.715 Q68.3994 884.715 70.1818 885.062 Q71.9874 885.409 73.9318 886.104 Z" fill="#000000" fill-rule="evenodd" fill-opacity="1" /><path clip-path="url(#clip160)" d="M53.9551 613.792 L76.1772 613.792 L76.1772 615.783 L63.6309 648.352 L58.7467 648.352 L70.5522 617.727 L53.9551 617.727 L53.9551 613.792 Z" fill="#000000" fill-rule="evenodd" fill-opacity="1" /><path clip-path="url(#clip160)" d="M64.3254 360.392 Q60.9921 360.392 59.0708 362.175 Q57.1726 363.957 57.1726 367.082 Q57.1726 370.207 59.0708 371.989 Q60.9921 373.772 64.3254 373.772 Q67.6587 373.772 69.58 371.989 Q71.5013 370.184 71.5013 367.082 Q71.5013 363.957 69.58 362.175 Q67.6819 360.392 64.3254 360.392 M59.6495 358.401 Q56.6402 357.661 54.9504 355.601 Q53.2838 353.54 53.2838 350.577 Q53.2838 346.434 56.2236 344.027 Q59.1865 341.619 64.3254 341.619 Q69.4874 341.619 72.4272 344.027 Q75.367 346.434 75.367 350.577 Q75.367 353.54 73.6772 355.601 Q72.0105 357.661 69.0244 358.401 Q72.404 359.189 74.279 361.48 Q76.1772 363.772 76.1772 367.082 Q76.1772 372.105 73.0985 374.79 Q70.0429 377.475 64.3254 377.475 Q58.6078 377.475 55.5291 374.79 Q52.4736 372.105 52.4736 367.082 Q52.4736 363.772 54.3717 361.48 Q56.2699 359.189 59.6495 358.401 M57.9365 351.017 Q57.9365 353.702 59.6032 355.207 Q61.293 356.712 64.3254 356.712 Q67.3346 356.712 69.0244 355.207 Q70.7374 353.702 70.7374 351.017 Q70.7374 348.332 69.0244 346.827 Q67.3346 345.323 64.3254 345.323 Q61.293 345.323 59.6032 346.827 Q57.9365 348.332 57.9365 351.017 Z" fill="#000000" fill-rule="evenodd" fill-opacity="1" /><path clip-path="url(#clip160)" d="M54.5569 104.539 L54.5569 100.279 Q56.3162 101.113 58.1217 101.553 Q59.9273 101.992 61.6634 101.992 Q66.293 101.992 68.7235 98.8906 Q71.1772 95.7656 71.5244 89.423 Q70.1818 91.4138 68.1217 92.4786 Q66.0615 93.5434 63.5615 93.5434 Q58.3763 93.5434 55.344 90.4184 Q52.3347 87.2703 52.3347 81.8305 Q52.3347 76.5064 55.4828 73.2889 Q58.631 70.0713 63.8624 70.0713 Q69.8578 70.0713 73.0059 74.6777 Q76.1772 79.261 76.1772 88.011 Q76.1772 96.1823 72.2883 101.066 Q68.4226 105.928 61.8717 105.928 Q60.1124 105.928 58.3069 105.58 Q56.5014 105.233 54.5569 104.539 M63.8624 89.886 Q67.0106 89.886 68.8393 87.7332 Q70.6911 85.5805 70.6911 81.8305 Q70.6911 78.1036 68.8393 75.9509 Q67.0106 73.775 63.8624 73.775 Q60.7143 73.775 58.8625 75.9509 Q57.0338 78.1036 57.0338 81.8305 Q57.0338 85.5805 58.8625 87.7332 Q60.7143 89.886 63.8624 89.886 Z" fill="#000000" fill-rule="evenodd" fill-opacity="1" /><polyline clip-path="url(#clip162)" style="stroke:#009af9; stroke-linecap:round; stroke-linejoin:round; stroke-width:4; stroke-opacity:1; fill:none" points="
  175.59,1445.72 246.048,1445.72 316.507,1445.72 386.965,1445.72 457.424,1445.72 527.882,1445.72 598.34,1445.72 668.799,1445.72 739.257,1445.72 809.716,1445.72 
  880.174,1445.72 950.633,1445.72 1021.09,1445.72 1091.55,1445.72 1162.01,1445.72 1232.47,1445.72 1302.92,1445.72 1373.38,1445.72 1443.84,1445.72 1514.3,1445.72 
  1584.76,1445.72 1655.22,1334.38 1725.68,1217.62 1796.13,1095.42 1866.59,967.791 1937.05,834.733 2007.51,696.244 2077.97,552.323 2148.43,402.972 2218.88,248.19 
  2289.34,87.9763 
  "/>
<path clip-path="url(#clip160)" d="
M186.863 198.898 L463.351 198.898 L463.351 95.2176 L186.863 95.2176  Z
  " fill="#ffffff" fill-rule="evenodd" fill-opacity="1"/>
<polyline clip-path="url(#clip160)" style="stroke:#000000; stroke-linecap:round; stroke-linejoin:round; stroke-width:4; stroke-opacity:1; fill:none" points="
  186.863,198.898 463.351,198.898 463.351,95.2176 186.863,95.2176 186.863,198.898 
  "/>
<polyline clip-path="url(#clip160)" style="stroke:#009af9; stroke-linecap:round; stroke-linejoin:round; stroke-width:4; stroke-opacity:1; fill:none" points="
  211.758,147.058 361.13,147.058 
  "/>
<path clip-path="url(#clip160)" d="M399.868 166.745 Q398.063 171.375 396.35 172.787 Q394.637 174.199 391.766 174.199 L388.364 174.199 L388.364 170.634 L390.864 170.634 Q392.623 170.634 393.595 169.8 Q394.567 168.967 395.748 165.865 L396.512 163.921 L386.026 138.412 L390.54 138.412 L398.641 158.689 L406.743 138.412 L411.257 138.412 L399.868 166.745 Z" fill="#000000" fill-rule="evenodd" fill-opacity="1" /><path clip-path="url(#clip160)" d="M418.549 160.402 L426.188 160.402 L426.188 134.037 L417.877 135.703 L417.877 131.444 L426.141 129.778 L430.817 129.778 L430.817 160.402 L438.456 160.402 L438.456 164.338 L418.549 164.338 L418.549 160.402 Z" fill="#000000" fill-rule="evenodd" fill-opacity="1" /></svg>
