<?xml version="1.0" encoding="utf-8"?>
<svg xmlns="http://www.w3.org/2000/svg" xmlns:xlink="http://www.w3.org/1999/xlink" width="600" height="400" viewBox="0 0 2400 1600">
<defs>
  <clipPath id="clip030">
    <rect x="0" y="0" width="2400" height="1600"/>
  </clipPath>
</defs>
<path clip-path="url(#clip030)" d="
M0 1600 L2400 1600 L2400 0 L0 0  Z
  " fill="#ffffff" fill-rule="evenodd" fill-opacity="1"/>
<defs>
  <clipPath id="clip031">
    <rect x="480" y="0" width="1681" height="1600"/>
  </clipPath>
</defs>
<path clip-path="url(#clip030)" d="
M149.191 1486.45 L2352.76 1486.45 L2352.76 47.2441 L149.191 47.2441  Z
  " fill="#ffffff" fill-rule="evenodd" fill-opacity="1"/>
<defs>
  <clipPath id="clip032">
    <rect x="149" y="47" width="2205" height="1440"/>
  </clipPath>
</defs>
<polyline clip-path="url(#clip032)" style="stroke:#000000; stroke-linecap:butt; stroke-linejoin:round; stroke-width:2; stroke-opacity:0.1; fill:none" points="
  201.162,1486.45 201.162,47.2441 
  "/>
<polyline clip-path="url(#clip032)" style="stroke:#000000; stroke-linecap:butt; stroke-linejoin:round; stroke-width:2; stroke-opacity:0.1; fill:none" points="
  720.87,1486.45 720.87,47.2441 
  "/>
<polyline clip-path="url(#clip032)" style="stroke:#000000; stroke-linecap:butt; stroke-linejoin:round; stroke-width:2; stroke-opacity:0.1; fill:none" points="
  1240.58,1486.45 1240.58,47.2441 
  "/>
<polyline clip-path="url(#clip032)" style="stroke:#000000; stroke-linecap:butt; stroke-linejoin:round; stroke-width:2; stroke-opacity:0.1; fill:none" points="
  1760.29,1486.45 1760.29,47.2441 
  "/>
<polyline clip-path="url(#clip032)" style="stroke:#000000; stroke-linecap:butt; stroke-linejoin:round; stroke-width:2; stroke-opacity:0.1; fill:none" points="
  2280,1486.45 2280,47.2441 
  "/>
<polyline clip-path="url(#clip030)" style="stroke:#000000; stroke-linecap:butt; stroke-linejoin:round; stroke-width:4; stroke-opacity:1; fill:none" points="
  149.191,1486.45 2352.76,1486.45 
  "/>
<polyline clip-path="url(#clip030)" style="stroke:#000000; stroke-linecap:butt; stroke-linejoin:round; stroke-width:4; stroke-opacity:1; fill:none" points="
  201.162,1486.45 201.162,1467.55 
  "/>
<polyline clip-path="url(#clip030)" style="stroke:#000000; stroke-linecap:butt; stroke-linejoin:round; stroke-width:4; stroke-opacity:1; fill:none" points="
  720.87,1486.45 720.87,1467.55 
  "/>
<polyline clip-path="url(#clip030)" style="stroke:#000000; stroke-linecap:butt; stroke-linejoin:round; stroke-width:4; stroke-opacity:1; fill:none" points="
  1240.58,1486.45 1240.58,1467.55 
  "/>
<polyline clip-path="url(#clip030)" style="stroke:#000000; stroke-linecap:butt; stroke-linejoin:round; stroke-width:4; stroke-opacity:1; fill:none" points="
  1760.29,1486.45 1760.29,1467.55 
  "/>
<polyline clip-path="url(#clip030)" style="stroke:#000000; stroke-linecap:butt; stroke-linejoin:round; stroke-width:4; stroke-opacity:1; fill:none" points="
  2280,1486.45 2280,1467.55 
  "/>
<path clip-path="url(#clip030)" d="M201.162 1517.37 Q197.551 1517.37 195.722 1520.93 Q193.916 1524.47 193.916 1531.6 Q193.916 1538.71 195.722 1542.27 Q197.551 1545.82 201.162 1545.82 Q204.796 1545.82 206.602 1542.27 Q208.43 1538.71 208.43 1531.6 Q208.43 1524.47 206.602 1520.93 Q204.796 1517.37 201.162 1517.37 M201.162 1513.66 Q206.972 1513.66 210.027 1518.27 Q213.106 1522.85 213.106 1531.6 Q213.106 1540.33 210.027 1544.94 Q206.972 1549.52 201.162 1549.52 Q195.352 1549.52 192.273 1544.94 Q189.217 1540.33 189.217 1531.6 Q189.217 1522.85 192.273 1518.27 Q195.352 1513.66 201.162 1513.66 Z" fill="#000000" fill-rule="evenodd" fill-opacity="1" /><path clip-path="url(#clip030)" d="M695.57 1514.29 L713.926 1514.29 L713.926 1518.22 L699.852 1518.22 L699.852 1526.7 Q700.871 1526.35 701.889 1526.19 Q702.908 1526 703.926 1526 Q709.713 1526 713.093 1529.17 Q716.472 1532.34 716.472 1537.76 Q716.472 1543.34 713 1546.44 Q709.528 1549.52 703.209 1549.52 Q701.033 1549.52 698.764 1549.15 Q696.519 1548.78 694.111 1548.04 L694.111 1543.34 Q696.195 1544.47 698.417 1545.03 Q700.639 1545.58 703.116 1545.58 Q707.121 1545.58 709.458 1543.48 Q711.796 1541.37 711.796 1537.76 Q711.796 1534.15 709.458 1532.04 Q707.121 1529.94 703.116 1529.94 Q701.241 1529.94 699.366 1530.35 Q697.514 1530.77 695.57 1531.65 L695.57 1514.29 Z" fill="#000000" fill-rule="evenodd" fill-opacity="1" /><path clip-path="url(#clip030)" d="M735.685 1517.37 Q732.074 1517.37 730.245 1520.93 Q728.44 1524.47 728.44 1531.6 Q728.44 1538.71 730.245 1542.27 Q732.074 1545.82 735.685 1545.82 Q739.319 1545.82 741.125 1542.27 Q742.954 1538.71 742.954 1531.6 Q742.954 1524.47 741.125 1520.93 Q739.319 1517.37 735.685 1517.37 M735.685 1513.66 Q741.495 1513.66 744.551 1518.27 Q747.63 1522.85 747.63 1531.6 Q747.63 1540.33 744.551 1544.94 Q741.495 1549.52 735.685 1549.52 Q729.875 1549.52 726.796 1544.94 Q723.741 1540.33 723.741 1531.6 Q723.741 1522.85 726.796 1518.27 Q729.875 1513.66 735.685 1513.66 Z" fill="#000000" fill-rule="evenodd" fill-opacity="1" /><path clip-path="url(#clip030)" d="M1200.19 1544.91 L1207.82 1544.91 L1207.82 1518.55 L1199.51 1520.21 L1199.51 1515.95 L1207.78 1514.29 L1212.45 1514.29 L1212.45 1544.91 L1220.09 1544.91 L1220.09 1548.85 L1200.19 1548.85 L1200.19 1544.91 Z" fill="#000000" fill-rule="evenodd" fill-opacity="1" /><path clip-path="url(#clip030)" d="M1239.54 1517.37 Q1235.93 1517.37 1234.1 1520.93 Q1232.29 1524.47 1232.29 1531.6 Q1232.29 1538.71 1234.1 1542.27 Q1235.93 1545.82 1239.54 1545.82 Q1243.17 1545.82 1244.98 1542.27 Q1246.81 1538.71 1246.81 1531.6 Q1246.81 1524.47 1244.98 1520.93 Q1243.17 1517.37 1239.54 1517.37 M1239.54 1513.66 Q1245.35 1513.66 1248.4 1518.27 Q1251.48 1522.85 1251.48 1531.6 Q1251.48 1540.33 1248.4 1544.94 Q1245.35 1549.52 1239.54 1549.52 Q1233.73 1549.52 1230.65 1544.94 Q1227.59 1540.33 1227.59 1531.6 Q1227.59 1522.85 1230.65 1518.27 Q1233.73 1513.66 1239.54 1513.66 Z" fill="#000000" fill-rule="evenodd" fill-opacity="1" /><path clip-path="url(#clip030)" d="M1269.7 1517.37 Q1266.09 1517.37 1264.26 1520.93 Q1262.45 1524.47 1262.45 1531.6 Q1262.45 1538.71 1264.26 1542.27 Q1266.09 1545.82 1269.7 1545.82 Q1273.33 1545.82 1275.14 1542.27 Q1276.97 1538.71 1276.97 1531.6 Q1276.97 1524.47 1275.14 1520.93 Q1273.33 1517.37 1269.7 1517.37 M1269.7 1513.66 Q1275.51 1513.66 1278.57 1518.27 Q1281.64 1522.85 1281.64 1531.6 Q1281.64 1540.33 1278.57 1544.94 Q1275.51 1549.52 1269.7 1549.52 Q1263.89 1549.52 1260.81 1544.94 Q1257.76 1540.33 1257.76 1531.6 Q1257.76 1522.85 1260.81 1518.27 Q1263.89 1513.66 1269.7 1513.66 Z" fill="#000000" fill-rule="evenodd" fill-opacity="1" /><path clip-path="url(#clip030)" d="M1719.89 1544.91 L1727.53 1544.91 L1727.53 1518.55 L1719.22 1520.21 L1719.22 1515.95 L1727.49 1514.29 L1732.16 1514.29 L1732.16 1544.91 L1739.8 1544.91 L1739.8 1548.85 L1719.89 1548.85 L1719.89 1544.91 Z" fill="#000000" fill-rule="evenodd" fill-opacity="1" /><path clip-path="url(#clip030)" d="M1749.29 1514.29 L1767.65 1514.29 L1767.65 1518.22 L1753.58 1518.22 L1753.58 1526.7 Q1754.59 1526.35 1755.61 1526.19 Q1756.63 1526 1757.65 1526 Q1763.44 1526 1766.82 1529.17 Q1770.2 1532.34 1770.2 1537.76 Q1770.2 1543.34 1766.72 1546.44 Q1763.25 1549.52 1756.93 1549.52 Q1754.76 1549.52 1752.49 1549.15 Q1750.24 1548.78 1747.83 1548.04 L1747.83 1543.34 Q1749.92 1544.47 1752.14 1545.03 Q1754.36 1545.58 1756.84 1545.58 Q1760.84 1545.58 1763.18 1543.48 Q1765.52 1541.37 1765.52 1537.76 Q1765.52 1534.15 1763.18 1532.04 Q1760.84 1529.94 1756.84 1529.94 Q1754.96 1529.94 1753.09 1530.35 Q1751.24 1530.77 1749.29 1531.65 L1749.29 1514.29 Z" fill="#000000" fill-rule="evenodd" fill-opacity="1" /><path clip-path="url(#clip030)" d="M1789.41 1517.37 Q1785.8 1517.37 1783.97 1520.93 Q1782.16 1524.47 1782.16 1531.6 Q1782.16 1538.71 1783.97 1542.27 Q1785.8 1545.82 1789.41 1545.82 Q1793.04 1545.82 1794.85 1542.27 Q1796.68 1538.71 1796.68 1531.6 Q1796.68 1524.47 1794.85 1520.93 Q1793.04 1517.37 1789.41 1517.37 M1789.41 1513.66 Q1795.22 1513.66 1798.27 1518.27 Q1801.35 1522.85 1801.35 1531.6 Q1801.35 1540.33 1798.27 1544.94 Q1795.22 1549.52 1789.41 1549.52 Q1783.6 1549.52 1780.52 1544.94 Q1777.46 1540.33 1777.46 1531.6 Q1777.46 1522.85 1780.52 1518.27 Q1783.6 1513.66 1789.41 1513.66 Z" fill="#000000" fill-rule="evenodd" fill-opacity="1" /><path clip-path="url(#clip030)" d="M2243.69 1544.91 L2260.01 1544.91 L2260.01 1548.85 L2238.06 1548.85 L2238.06 1544.91 Q2240.73 1542.16 2245.31 1537.53 Q2249.92 1532.88 2251.1 1531.53 Q2253.34 1529.01 2254.22 1527.27 Q2255.12 1525.51 2255.12 1523.82 Q2255.12 1521.07 2253.18 1519.33 Q2251.26 1517.6 2248.16 1517.6 Q2245.96 1517.6 2243.5 1518.36 Q2241.07 1519.13 2238.3 1520.68 L2238.3 1515.95 Q2241.12 1514.82 2243.57 1514.24 Q2246.03 1513.66 2248.06 1513.66 Q2253.43 1513.66 2256.63 1516.35 Q2259.82 1519.03 2259.82 1523.52 Q2259.82 1525.65 2259.01 1527.57 Q2258.23 1529.47 2256.12 1532.07 Q2255.54 1532.74 2252.44 1535.95 Q2249.34 1539.15 2243.69 1544.91 Z" fill="#000000" fill-rule="evenodd" fill-opacity="1" /><path clip-path="url(#clip030)" d="M2279.82 1517.37 Q2276.21 1517.37 2274.38 1520.93 Q2272.58 1524.47 2272.58 1531.6 Q2272.58 1538.71 2274.38 1542.27 Q2276.21 1545.82 2279.82 1545.82 Q2283.46 1545.82 2285.26 1542.27 Q2287.09 1538.71 2287.09 1531.6 Q2287.09 1524.47 2285.26 1520.93 Q2283.46 1517.37 2279.82 1517.37 M2279.82 1513.66 Q2285.63 1513.66 2288.69 1518.27 Q2291.77 1522.85 2291.77 1531.6 Q2291.77 1540.33 2288.69 1544.94 Q2285.63 1549.52 2279.82 1549.52 Q2274.01 1549.52 2270.93 1544.94 Q2267.88 1540.33 2267.88 1531.6 Q2267.88 1522.85 2270.93 1518.27 Q2274.01 1513.66 2279.82 1513.66 Z" fill="#000000" fill-rule="evenodd" fill-opacity="1" /><path clip-path="url(#clip030)" d="M2309.98 1517.37 Q2306.37 1517.37 2304.55 1520.93 Q2302.74 1524.47 2302.74 1531.6 Q2302.74 1538.71 2304.55 1542.27 Q2306.37 1545.82 2309.98 1545.82 Q2313.62 1545.82 2315.42 1542.27 Q2317.25 1538.71 2317.25 1531.6 Q2317.25 1524.47 2315.42 1520.93 Q2313.62 1517.37 2309.98 1517.37 M2309.98 1513.66 Q2315.8 1513.66 2318.85 1518.27 Q2321.93 1522.85 2321.93 1531.6 Q2321.93 1540.33 2318.85 1544.94 Q2315.8 1549.52 2309.98 1549.52 Q2304.17 1549.52 2301.1 1544.94 Q2298.04 1540.33 2298.04 1531.6 Q2298.04 1522.85 2301.1 1518.27 Q2304.17 1513.66 2309.98 1513.66 Z" fill="#000000" fill-rule="evenodd" fill-opacity="1" /><polyline clip-path="url(#clip032)" style="stroke:#000000; stroke-linecap:butt; stroke-linejoin:round; stroke-width:2; stroke-opacity:0.1; fill:none" points="
  149.191,1293.1 2352.76,1293.1 
  "/>
<polyline clip-path="url(#clip032)" style="stroke:#000000; stroke-linecap:butt; stroke-linejoin:round; stroke-width:2; stroke-opacity:0.1; fill:none" points="
  149.191,956.049 2352.76,956.049 
  "/>
<polyline clip-path="url(#clip032)" style="stroke:#000000; stroke-linecap:butt; stroke-linejoin:round; stroke-width:2; stroke-opacity:0.1; fill:none" points="
  149.191,619.001 2352.76,619.001 
  "/>
<polyline clip-path="url(#clip032)" style="stroke:#000000; stroke-linecap:butt; stroke-linejoin:round; stroke-width:2; stroke-opacity:0.1; fill:none" points="
  149.191,281.953 2352.76,281.953 
  "/>
<polyline clip-path="url(#clip030)" style="stroke:#000000; stroke-linecap:butt; stroke-linejoin:round; stroke-width:4; stroke-opacity:1; fill:none" points="
  149.191,1486.45 149.191,47.2441 
  "/>
<polyline clip-path="url(#clip030)" style="stroke:#000000; stroke-linecap:butt; stroke-linejoin:round; stroke-width:4; stroke-opacity:1; fill:none" points="
  149.191,1293.1 168.089,1293.1 
  "/>
<polyline clip-path="url(#clip030)" style="stroke:#000000; stroke-linecap:butt; stroke-linejoin:round; stroke-width:4; stroke-opacity:1; fill:none" points="
  149.191,956.049 168.089,956.049 
  "/>
<polyline clip-path="url(#clip030)" style="stroke:#000000; stroke-linecap:butt; stroke-linejoin:round; stroke-width:4; stroke-opacity:1; fill:none" points="
  149.191,619.001 168.089,619.001 
  "/>
<polyline clip-path="url(#clip030)" style="stroke:#000000; stroke-linecap:butt; stroke-linejoin:round; stroke-width:4; stroke-opacity:1; fill:none" points="
  149.191,281.953 168.089,281.953 
  "/>
<path clip-path="url(#clip030)" d="M50.9921 1293.55 L80.6679 1293.55 L80.6679 1297.48 L50.9921 1297.48 L50.9921 1293.55 Z" fill="#000000" fill-rule="evenodd" fill-opacity="1" /><path clip-path="url(#clip030)" d="M103.608 1279.89 L91.8021 1298.34 L103.608 1298.34 L103.608 1279.89 M102.381 1275.82 L108.26 1275.82 L108.26 1298.34 L113.191 1298.34 L113.191 1302.23 L108.26 1302.23 L108.26 1310.38 L103.608 1310.38 L103.608 1302.23 L88.0058 1302.23 L88.0058 1297.71 L102.381 1275.82 Z" fill="#000000" fill-rule="evenodd" fill-opacity="1" /><path clip-path="url(#clip030)" d="M53.0754 956.5 L82.7512 956.5 L82.7512 960.435 L53.0754 960.435 L53.0754 956.5 Z" fill="#000000" fill-rule="evenodd" fill-opacity="1" /><path clip-path="url(#clip030)" d="M96.8715 969.393 L113.191 969.393 L113.191 973.329 L91.2465 973.329 L91.2465 969.393 Q93.9086 966.639 98.4919 962.009 Q103.098 957.357 104.279 956.014 Q106.524 953.491 107.404 951.755 Q108.307 949.995 108.307 948.306 Q108.307 945.551 106.362 943.815 Q104.441 942.079 101.339 942.079 Q99.14 942.079 96.6863 942.843 Q94.2558 943.607 91.478 945.158 L91.478 940.435 Q94.3021 939.301 96.7558 938.722 Q99.2095 938.144 101.246 938.144 Q106.617 938.144 109.811 940.829 Q113.006 943.514 113.006 948.005 Q113.006 950.134 112.196 952.056 Q111.408 953.954 109.302 956.546 Q108.723 957.218 105.621 960.435 Q102.52 963.63 96.8715 969.393 Z" fill="#000000" fill-rule="evenodd" fill-opacity="1" /><path clip-path="url(#clip030)" d="M101.246 604.8 Q97.6354 604.8 95.8067 608.364 Q94.0012 611.906 94.0012 619.036 Q94.0012 626.142 95.8067 629.707 Q97.6354 633.249 101.246 633.249 Q104.881 633.249 106.686 629.707 Q108.515 626.142 108.515 619.036 Q108.515 611.906 106.686 608.364 Q104.881 604.8 101.246 604.8 M101.246 601.096 Q107.057 601.096 110.112 605.702 Q113.191 610.286 113.191 619.036 Q113.191 627.762 110.112 632.369 Q107.057 636.952 101.246 636.952 Q95.4363 636.952 92.3576 632.369 Q89.3021 627.762 89.3021 619.036 Q89.3021 610.286 92.3576 605.702 Q95.4363 601.096 101.246 601.096 Z" fill="#000000" fill-rule="evenodd" fill-opacity="1" /><path clip-path="url(#clip030)" d="M96.8715 295.298 L113.191 295.298 L113.191 299.233 L91.2465 299.233 L91.2465 295.298 Q93.9086 292.543 98.4919 287.914 Q103.098 283.261 104.279 281.919 Q106.524 279.395 107.404 277.659 Q108.307 275.9 108.307 274.21 Q108.307 271.456 106.362 269.72 Q104.441 267.983 101.339 267.983 Q99.14 267.983 96.6863 268.747 Q94.2558 269.511 91.478 271.062 L91.478 266.34 Q94.3021 265.206 96.7558 264.627 Q99.2095 264.048 101.246 264.048 Q106.617 264.048 109.811 266.733 Q113.006 269.419 113.006 273.909 Q113.006 276.039 112.196 277.96 Q111.408 279.858 109.302 282.451 Q108.723 283.122 105.621 286.34 Q102.52 289.534 96.8715 295.298 Z" fill="#000000" fill-rule="evenodd" fill-opacity="1" /><polyline clip-path="url(#clip032)" style="stroke:#009af9; stroke-linecap:butt; stroke-linejoin:round; stroke-width:4; stroke-opacity:1; fill:none" points="
  211.556,619.001 221.95,624.381 232.344,700.21 242.738,798.051 253.133,857.048 263.527,719.339 273.921,578.572 284.315,438.558 294.709,208.712 305.103,471.675 
  315.498,728.21 325.892,738.563 336.286,984.711 346.68,878.283 357.074,872.466 367.469,656.63 377.863,746.827 388.257,784.928 398.651,821.6 409.045,756.265 
  419.439,799.793 429.834,885.631 440.228,855.357 450.622,596.859 461.016,687.662 471.41,258.973 481.804,363.739 492.199,297.181 502.593,404.25 512.987,620.683 
  523.381,1206.68 533.775,1408.49 544.17,1445.72 554.564,1243.98 564.958,974.928 575.352,975.355 585.746,817.746 596.14,655.008 606.535,606.584 616.929,710.539 
  627.323,619.011 637.717,579.991 648.111,593.572 658.505,618.824 668.9,592.327 679.294,454 689.688,513.587 700.082,558.587 710.476,831.276 720.87,699.504 
  731.265,347.311 741.659,406.724 752.053,238.705 762.447,186.205 772.841,470.273 783.236,496.371 793.63,652.818 804.024,253.835 814.418,556.041 824.812,754.276 
  835.206,761.636 845.601,932.28 855.995,1030.31 866.389,892.234 876.783,979.939 887.177,887.024 897.571,888.203 907.966,717.292 918.36,529.883 928.754,425.443 
  939.148,379.535 949.542,388.789 959.936,527.605 970.331,559.373 980.725,506.06 991.119,301.145 1001.51,399.6 1011.91,816.442 1022.3,864.474 1032.7,950.751 
  1043.09,835.044 1053.48,564.664 1063.88,625.265 1074.27,579.883 1084.67,467.807 1095.06,857.399 1105.45,713.8 1115.85,1117.85 1126.24,667.365 1136.64,540.729 
  1147.03,566.641 1157.43,606.874 1167.82,474.506 1178.21,719.703 1188.61,515.866 1199,644.844 1209.4,834.185 1219.79,538.076 1230.19,449.261 1240.58,352.426 
  1250.97,142.411 1261.37,97.9225 1271.76,145.874 1282.16,361.646 1292.55,695.343 1302.94,871.41 1313.34,707.211 1323.73,595.292 1334.13,605.252 1344.52,773.584 
  1354.92,848.033 1365.31,1001.14 1375.7,835.475 1386.1,711.38 1396.49,774.275 1406.89,701.75 1417.28,661.151 1427.67,971.4 1438.07,635.7 1448.46,288.98 
  1458.86,450.237 1469.25,526.991 1479.65,692.592 1490.04,826.565 1500.43,896.105 1510.83,955.946 1521.22,725.43 1531.62,750.214 1542.01,897.345 1552.4,919.48 
  1562.8,940.364 1573.19,1017.23 1583.59,827.319 1593.98,1131.56 1604.38,1182.34 1614.77,1223.37 1625.16,909.363 1635.56,1043.9 1645.95,1028.44 1656.35,1074.17 
  1666.74,1110.78 1677.13,1133.56 1687.53,1207.25 1697.92,1325.07 1708.32,1102.63 1718.71,1131.25 1729.11,859.431 1739.5,623.957 1749.89,1091.63 1760.29,842.385 
  1770.68,1040.77 1781.08,1080.87 1791.47,953.703 1801.86,668.304 1812.26,363.549 1822.65,120.567 1833.05,278.641 1843.44,639.433 1853.84,501.54 1864.23,355.922 
  1874.62,518.437 1885.02,423.328 1895.41,138.16 1905.81,102.472 1916.2,106.792 1926.59,227.164 1936.99,576.33 1947.38,652.425 1957.78,661.172 1968.17,644.524 
  1978.57,558.99 1988.96,530.159 1999.35,493.935 2009.75,385.316 2020.14,361.18 2030.54,385.918 2040.93,503.562 2051.32,571.441 2061.72,869.446 2072.11,1000.17 
  2082.51,1132.06 2092.9,828.591 2103.3,833.908 2113.69,838.597 2124.08,890.3 2134.48,632.111 2144.87,693.078 2155.27,586.218 2165.66,383.029 2176.05,206.373 
  2186.45,263.905 2196.84,87.9763 2207.24,370.737 2217.63,112.115 2228.03,100.631 2238.42,293.496 2248.81,165.447 2259.21,300.431 2269.6,338.822 2280,424.981 
  2290.39,387.416 
  "/>
<path clip-path="url(#clip030)" d="
M1982.03 198.898 L2279.3 198.898 L2279.3 95.2176 L1982.03 95.2176  Z
  " fill="#ffffff" fill-rule="evenodd" fill-opacity="1"/>
<polyline clip-path="url(#clip030)" style="stroke:#000000; stroke-linecap:butt; stroke-linejoin:round; stroke-width:4; stroke-opacity:1; fill:none" points="
  1982.03,198.898 2279.3,198.898 2279.3,95.2176 1982.03,95.2176 1982.03,198.898 
  "/>
<polyline clip-path="url(#clip030)" style="stroke:#009af9; stroke-linecap:butt; stroke-linejoin:round; stroke-width:4; stroke-opacity:1; fill:none" points="
  2006.52,147.058 2153.42,147.058 
  "/>
<path clip-path="url(#clip030)" d="M2191.75 166.745 Q2189.94 171.375 2188.23 172.787 Q2186.52 174.199 2183.65 174.199 L2180.24 174.199 L2180.24 170.634 L2182.74 170.634 Q2184.5 170.634 2185.47 169.8 Q2186.45 168.967 2187.63 165.865 L2188.39 163.921 L2177.91 138.412 L2182.42 138.412 L2190.52 158.689 L2198.62 138.412 L2203.14 138.412 L2191.75 166.745 Z" fill="#000000" fill-rule="evenodd" fill-opacity="1" /><path clip-path="url(#clip030)" d="M2210.43 160.402 L2218.07 160.402 L2218.07 134.037 L2209.76 135.703 L2209.76 131.444 L2218.02 129.778 L2222.7 129.778 L2222.7 160.402 L2230.34 160.402 L2230.34 164.338 L2210.43 164.338 L2210.43 160.402 Z" fill="#000000" fill-rule="evenodd" fill-opacity="1" /></svg>
