<?xml version="1.0" encoding="utf-8"?>
<svg xmlns="http://www.w3.org/2000/svg" xmlns:xlink="http://www.w3.org/1999/xlink" width="600" height="400" viewBox="0 0 2400 1600">
<defs>
  <clipPath id="clip840">
    <rect x="0" y="0" width="2400" height="1600"/>
  </clipPath>
</defs>
<path clip-path="url(#clip840)" d="
M0 1600 L2400 1600 L2400 0 L0 0  Z
  " fill="#ffffff" fill-rule="evenodd" fill-opacity="1"/>
<defs>
  <clipPath id="clip841">
    <rect x="480" y="0" width="1681" height="1600"/>
  </clipPath>
</defs>
<path clip-path="url(#clip840)" d="
M112.177 1486.45 L2352.76 1486.45 L2352.76 47.2441 L112.177 47.2441  Z
  " fill="#ffffff" fill-rule="evenodd" fill-opacity="1"/>
<defs>
  <clipPath id="clip842">
    <rect x="112" y="47" width="2242" height="1440"/>
  </clipPath>
</defs>
<polyline clip-path="url(#clip842)" style="stroke:#000000; stroke-linecap:round; stroke-linejoin:round; stroke-width:2; stroke-opacity:0.1; fill:none" points="
  410.451,1486.45 410.451,47.2441 
  "/>
<polyline clip-path="url(#clip842)" style="stroke:#000000; stroke-linecap:round; stroke-linejoin:round; stroke-width:2; stroke-opacity:0.1; fill:none" points="
  880.174,1486.45 880.174,47.2441 
  "/>
<polyline clip-path="url(#clip842)" style="stroke:#000000; stroke-linecap:round; stroke-linejoin:round; stroke-width:2; stroke-opacity:0.1; fill:none" points="
  1349.9,1486.45 1349.9,47.2441 
  "/>
<polyline clip-path="url(#clip842)" style="stroke:#000000; stroke-linecap:round; stroke-linejoin:round; stroke-width:2; stroke-opacity:0.1; fill:none" points="
  1819.62,1486.45 1819.62,47.2441 
  "/>
<polyline clip-path="url(#clip842)" style="stroke:#000000; stroke-linecap:round; stroke-linejoin:round; stroke-width:2; stroke-opacity:0.1; fill:none" points="
  2289.34,1486.45 2289.34,47.2441 
  "/>
<polyline clip-path="url(#clip840)" style="stroke:#000000; stroke-linecap:round; stroke-linejoin:round; stroke-width:4; stroke-opacity:1; fill:none" points="
  112.177,1486.45 2352.76,1486.45 
  "/>
<polyline clip-path="url(#clip840)" style="stroke:#000000; stroke-linecap:round; stroke-linejoin:round; stroke-width:4; stroke-opacity:1; fill:none" points="
  410.451,1486.45 410.451,1467.55 
  "/>
<polyline clip-path="url(#clip840)" style="stroke:#000000; stroke-linecap:round; stroke-linejoin:round; stroke-width:4; stroke-opacity:1; fill:none" points="
  880.174,1486.45 880.174,1467.55 
  "/>
<polyline clip-path="url(#clip840)" style="stroke:#000000; stroke-linecap:round; stroke-linejoin:round; stroke-width:4; stroke-opacity:1; fill:none" points="
  1349.9,1486.45 1349.9,1467.55 
  "/>
<polyline clip-path="url(#clip840)" style="stroke:#000000; stroke-linecap:round; stroke-linejoin:round; stroke-width:4; stroke-opacity:1; fill:none" points="
  1819.62,1486.45 1819.62,1467.55 
  "/>
<polyline clip-path="url(#clip840)" style="stroke:#000000; stroke-linecap:round; stroke-linejoin:round; stroke-width:4; stroke-opacity:1; fill:none" points="
  2289.34,1486.45 2289.34,1467.55 
  "/>
<path clip-path="url(#clip840)" d="M405.104 1544.91 L421.423 1544.91 L421.423 1548.85 L399.479 1548.85 L399.479 1544.91 Q402.141 1542.16 406.724 1537.53 Q411.331 1532.88 412.511 1531.53 Q414.757 1529.01 415.636 1527.27 Q416.539 1525.51 416.539 1523.82 Q416.539 1521.07 414.595 1519.33 Q412.673 1517.6 409.572 1517.6 Q407.373 1517.6 404.919 1518.36 Q402.488 1519.13 399.711 1520.68 L399.711 1515.95 Q402.535 1514.82 404.988 1514.24 Q407.442 1513.66 409.479 1513.66 Q414.849 1513.66 418.044 1516.35 Q421.238 1519.03 421.238 1523.52 Q421.238 1525.65 420.428 1527.57 Q419.641 1529.47 417.535 1532.07 Q416.956 1532.74 413.854 1535.95 Q410.752 1539.15 405.104 1544.91 Z" fill="#000000" fill-rule="evenodd" fill-opacity="1" /><path clip-path="url(#clip840)" d="M883.184 1518.36 L871.378 1536.81 L883.184 1536.81 L883.184 1518.36 M881.957 1514.29 L887.836 1514.29 L887.836 1536.81 L892.767 1536.81 L892.767 1540.7 L887.836 1540.7 L887.836 1548.85 L883.184 1548.85 L883.184 1540.7 L867.582 1540.7 L867.582 1536.19 L881.957 1514.29 Z" fill="#000000" fill-rule="evenodd" fill-opacity="1" /><path clip-path="url(#clip840)" d="M1350.3 1529.7 Q1347.15 1529.7 1345.3 1531.86 Q1343.47 1534.01 1343.47 1537.76 Q1343.47 1541.49 1345.3 1543.66 Q1347.15 1545.82 1350.3 1545.82 Q1353.45 1545.82 1355.28 1543.66 Q1357.13 1541.49 1357.13 1537.76 Q1357.13 1534.01 1355.28 1531.86 Q1353.45 1529.7 1350.3 1529.7 M1359.58 1515.05 L1359.58 1519.31 Q1357.83 1518.48 1356.02 1518.04 Q1354.24 1517.6 1352.48 1517.6 Q1347.85 1517.6 1345.4 1520.72 Q1342.96 1523.85 1342.62 1530.17 Q1343.98 1528.15 1346.04 1527.09 Q1348.1 1526 1350.58 1526 Q1355.79 1526 1358.8 1529.17 Q1361.83 1532.32 1361.83 1537.76 Q1361.83 1543.08 1358.68 1546.3 Q1355.53 1549.52 1350.3 1549.52 Q1344.31 1549.52 1341.14 1544.94 Q1337.96 1540.33 1337.96 1531.6 Q1337.96 1523.41 1341.85 1518.55 Q1345.74 1513.66 1352.29 1513.66 Q1354.05 1513.66 1355.83 1514.01 Q1357.64 1514.36 1359.58 1515.05 Z" fill="#000000" fill-rule="evenodd" fill-opacity="1" /><path clip-path="url(#clip840)" d="M1819.62 1532.44 Q1816.29 1532.44 1814.37 1534.22 Q1812.47 1536 1812.47 1539.13 Q1812.47 1542.25 1814.37 1544.03 Q1816.29 1545.82 1819.62 1545.82 Q1822.95 1545.82 1824.87 1544.03 Q1826.8 1542.23 1826.8 1539.13 Q1826.8 1536 1824.87 1534.22 Q1822.98 1532.44 1819.62 1532.44 M1814.94 1530.45 Q1811.94 1529.7 1810.25 1527.64 Q1808.58 1525.58 1808.58 1522.62 Q1808.58 1518.48 1811.52 1516.07 Q1814.48 1513.66 1819.62 1513.66 Q1824.78 1513.66 1827.72 1516.07 Q1830.66 1518.48 1830.66 1522.62 Q1830.66 1525.58 1828.97 1527.64 Q1827.31 1529.7 1824.32 1530.45 Q1827.7 1531.23 1829.57 1533.52 Q1831.47 1535.82 1831.47 1539.13 Q1831.47 1544.15 1828.39 1546.83 Q1825.34 1549.52 1819.62 1549.52 Q1813.9 1549.52 1810.82 1546.83 Q1807.77 1544.15 1807.77 1539.13 Q1807.77 1535.82 1809.67 1533.52 Q1811.56 1531.23 1814.94 1530.45 M1813.23 1523.06 Q1813.23 1525.75 1814.9 1527.25 Q1816.59 1528.76 1819.62 1528.76 Q1822.63 1528.76 1824.32 1527.25 Q1826.03 1525.75 1826.03 1523.06 Q1826.03 1520.38 1824.32 1518.87 Q1822.63 1517.37 1819.62 1517.37 Q1816.59 1517.37 1814.9 1518.87 Q1813.23 1520.38 1813.23 1523.06 Z" fill="#000000" fill-rule="evenodd" fill-opacity="1" /><path clip-path="url(#clip840)" d="M2264.03 1544.91 L2271.67 1544.91 L2271.67 1518.55 L2263.36 1520.21 L2263.36 1515.95 L2271.62 1514.29 L2276.3 1514.29 L2276.3 1544.91 L2283.94 1544.91 L2283.94 1548.85 L2264.03 1548.85 L2264.03 1544.91 Z" fill="#000000" fill-rule="evenodd" fill-opacity="1" /><path clip-path="url(#clip840)" d="M2303.38 1517.37 Q2299.77 1517.37 2297.94 1520.93 Q2296.14 1524.47 2296.14 1531.6 Q2296.14 1538.71 2297.94 1542.27 Q2299.77 1545.82 2303.38 1545.82 Q2307.02 1545.82 2308.82 1542.27 Q2310.65 1538.71 2310.65 1531.6 Q2310.65 1524.47 2308.82 1520.93 Q2307.02 1517.37 2303.38 1517.37 M2303.38 1513.66 Q2309.19 1513.66 2312.25 1518.27 Q2315.33 1522.85 2315.33 1531.6 Q2315.33 1540.33 2312.25 1544.94 Q2309.19 1549.52 2303.38 1549.52 Q2297.57 1549.52 2294.49 1544.94 Q2291.44 1540.33 2291.44 1531.6 Q2291.44 1522.85 2294.49 1518.27 Q2297.57 1513.66 2303.38 1513.66 Z" fill="#000000" fill-rule="evenodd" fill-opacity="1" /><polyline clip-path="url(#clip842)" style="stroke:#000000; stroke-linecap:round; stroke-linejoin:round; stroke-width:2; stroke-opacity:0.1; fill:none" points="
  112.177,1446.06 2352.76,1446.06 
  "/>
<polyline clip-path="url(#clip842)" style="stroke:#000000; stroke-linecap:round; stroke-linejoin:round; stroke-width:2; stroke-opacity:0.1; fill:none" points="
  112.177,1088.44 2352.76,1088.44 
  "/>
<polyline clip-path="url(#clip842)" style="stroke:#000000; stroke-linecap:round; stroke-linejoin:round; stroke-width:2; stroke-opacity:0.1; fill:none" points="
  112.177,730.828 2352.76,730.828 
  "/>
<polyline clip-path="url(#clip842)" style="stroke:#000000; stroke-linecap:round; stroke-linejoin:round; stroke-width:2; stroke-opacity:0.1; fill:none" points="
  112.177,373.213 2352.76,373.213 
  "/>
<polyline clip-path="url(#clip840)" style="stroke:#000000; stroke-linecap:round; stroke-linejoin:round; stroke-width:4; stroke-opacity:1; fill:none" points="
  112.177,1486.45 112.177,47.2441 
  "/>
<polyline clip-path="url(#clip840)" style="stroke:#000000; stroke-linecap:round; stroke-linejoin:round; stroke-width:4; stroke-opacity:1; fill:none" points="
  112.177,1446.06 131.075,1446.06 
  "/>
<polyline clip-path="url(#clip840)" style="stroke:#000000; stroke-linecap:round; stroke-linejoin:round; stroke-width:4; stroke-opacity:1; fill:none" points="
  112.177,1088.44 131.075,1088.44 
  "/>
<polyline clip-path="url(#clip840)" style="stroke:#000000; stroke-linecap:round; stroke-linejoin:round; stroke-width:4; stroke-opacity:1; fill:none" points="
  112.177,730.828 131.075,730.828 
  "/>
<polyline clip-path="url(#clip840)" style="stroke:#000000; stroke-linecap:round; stroke-linejoin:round; stroke-width:4; stroke-opacity:1; fill:none" points="
  112.177,373.213 131.075,373.213 
  "/>
<path clip-path="url(#clip840)" d="M64.2328 1431.86 Q60.6217 1431.86 58.793 1435.42 Q56.9875 1438.96 56.9875 1446.09 Q56.9875 1453.2 58.793 1456.76 Q60.6217 1460.31 64.2328 1460.31 Q67.867 1460.31 69.6726 1456.76 Q71.5013 1453.2 71.5013 1446.09 Q71.5013 1438.96 69.6726 1435.42 Q67.867 1431.86 64.2328 1431.86 M64.2328 1428.15 Q70.0429 1428.15 73.0985 1432.76 Q76.1772 1437.34 76.1772 1446.09 Q76.1772 1454.82 73.0985 1459.43 Q70.0429 1464.01 64.2328 1464.01 Q58.4226 1464.01 55.344 1459.43 Q52.2884 1454.82 52.2884 1446.09 Q52.2884 1437.34 55.344 1432.76 Q58.4226 1428.15 64.2328 1428.15 Z" fill="#000000" fill-rule="evenodd" fill-opacity="1" /><path clip-path="url(#clip840)" d="M59.8578 1101.79 L76.1772 1101.79 L76.1772 1105.72 L54.2328 1105.72 L54.2328 1101.79 Q56.8949 1099.03 61.4782 1094.4 Q66.0846 1089.75 67.2652 1088.41 Q69.5105 1085.89 70.3902 1084.15 Q71.2929 1082.39 71.2929 1080.7 Q71.2929 1077.95 69.3485 1076.21 Q67.4272 1074.47 64.3254 1074.47 Q62.1263 1074.47 59.6726 1075.24 Q57.2421 1076 54.4643 1077.55 L54.4643 1072.83 Q57.2884 1071.7 59.7421 1071.12 Q62.1958 1070.54 64.2328 1070.54 Q69.6031 1070.54 72.7976 1073.22 Q75.992 1075.91 75.992 1080.4 Q75.992 1082.53 75.1818 1084.45 Q74.3948 1086.35 72.2883 1088.94 Q71.7096 1089.61 68.6078 1092.83 Q65.5059 1096.02 59.8578 1101.79 Z" fill="#000000" fill-rule="evenodd" fill-opacity="1" /><path clip-path="url(#clip840)" d="M66.5939 717.622 L54.7884 736.071 L66.5939 736.071 L66.5939 717.622 M65.367 713.548 L71.2466 713.548 L71.2466 736.071 L76.1772 736.071 L76.1772 739.96 L71.2466 739.96 L71.2466 748.108 L66.5939 748.108 L66.5939 739.96 L50.9921 739.96 L50.9921 735.446 L65.367 713.548 Z" fill="#000000" fill-rule="evenodd" fill-opacity="1" /><path clip-path="url(#clip840)" d="M64.6495 371.35 Q61.5013 371.35 59.6495 373.502 Q57.8208 375.655 57.8208 379.405 Q57.8208 383.132 59.6495 385.308 Q61.5013 387.461 64.6495 387.461 Q67.7976 387.461 69.6263 385.308 Q71.4781 383.132 71.4781 379.405 Q71.4781 375.655 69.6263 373.502 Q67.7976 371.35 64.6495 371.35 M73.9318 356.697 L73.9318 360.956 Q72.1726 360.123 70.367 359.683 Q68.5846 359.243 66.8254 359.243 Q62.1958 359.243 59.7421 362.368 Q57.3115 365.493 56.9643 371.813 Q58.33 369.799 60.3902 368.734 Q62.4504 367.646 64.9272 367.646 Q70.1355 367.646 73.1448 370.817 Q76.1772 373.965 76.1772 379.405 Q76.1772 384.729 73.029 387.947 Q69.8809 391.164 64.6495 391.164 Q58.6541 391.164 55.4828 386.581 Q52.3116 381.975 52.3116 373.248 Q52.3116 365.053 56.2004 360.192 Q60.0893 355.308 66.6402 355.308 Q68.3994 355.308 70.1818 355.655 Q71.9874 356.002 73.9318 356.697 Z" fill="#000000" fill-rule="evenodd" fill-opacity="1" /><polyline clip-path="url(#clip842)" style="stroke:#009af9; stroke-linecap:round; stroke-linejoin:round; stroke-width:4; stroke-opacity:1; fill:none" points="
  175.59,1443.3 410.451,1305.17 645.313,1427.04 880.174,1436.17 1115.04,1185.27 1349.9,1282.39 1584.76,1445.72 1819.62,87.9763 2054.48,1424.48 2289.34,1430.53 
  
  "/>
<path clip-path="url(#clip840)" d="
M186.863 198.898 L463.351 198.898 L463.351 95.2176 L186.863 95.2176  Z
  " fill="#ffffff" fill-rule="evenodd" fill-opacity="1"/>
<polyline clip-path="url(#clip840)" style="stroke:#000000; stroke-linecap:round; stroke-linejoin:round; stroke-width:4; stroke-opacity:1; fill:none" points="
  186.863,198.898 463.351,198.898 463.351,95.2176 186.863,95.2176 186.863,198.898 
  "/>
<polyline clip-path="url(#clip840)" style="stroke:#009af9; stroke-linecap:round; stroke-linejoin:round; stroke-width:4; stroke-opacity:1; fill:none" points="
  211.758,147.058 361.13,147.058 
  "/>
<path clip-path="url(#clip840)" d="M399.868 166.745 Q398.063 171.375 396.35 172.787 Q394.637 174.199 391.766 174.199 L388.364 174.199 L388.364 170.634 L390.864 170.634 Q392.623 170.634 393.595 169.8 Q394.567 168.967 395.748 165.865 L396.512 163.921 L386.026 138.412 L390.54 138.412 L398.641 158.689 L406.743 138.412 L411.257 138.412 L399.868 166.745 Z" fill="#000000" fill-rule="evenodd" fill-opacity="1" /><path clip-path="url(#clip840)" d="M418.549 160.402 L426.188 160.402 L426.188 134.037 L417.877 135.703 L417.877 131.444 L426.141 129.778 L430.817 129.778 L430.817 160.402 L438.456 160.402 L438.456 164.338 L418.549 164.338 L418.549 160.402 Z" fill="#000000" fill-rule="evenodd" fill-opacity="1" /></svg>
