<?xml version="1.0" encoding="utf-8"?>
<svg xmlns="http://www.w3.org/2000/svg" xmlns:xlink="http://www.w3.org/1999/xlink" width="600" height="400" viewBox="0 0 2400 1600">
<defs>
  <clipPath id="clip130">
    <rect x="0" y="0" width="2400" height="1600"/>
  </clipPath>
</defs>
<path clip-path="url(#clip130)" d="
M0 1600 L2400 1600 L2400 0 L0 0  Z
  " fill="#ffffff" fill-rule="evenodd" fill-opacity="1"/>
<defs>
  <clipPath id="clip131">
    <rect x="480" y="0" width="1681" height="1600"/>
  </clipPath>
</defs>
<path clip-path="url(#clip130)" d="
M156.112 1486.45 L2352.76 1486.45 L2352.76 47.2441 L156.112 47.2441  Z
  " fill="#ffffff" fill-rule="evenodd" fill-opacity="1"/>
<defs>
  <clipPath id="clip132">
    <rect x="156" y="47" width="2198" height="1440"/>
  </clipPath>
</defs>
<polyline clip-path="url(#clip132)" style="stroke:#000000; stroke-linecap:butt; stroke-linejoin:round; stroke-width:2; stroke-opacity:0.1; fill:none" points="
  448.537,1486.45 448.537,47.2441 
  "/>
<polyline clip-path="url(#clip132)" style="stroke:#000000; stroke-linecap:butt; stroke-linejoin:round; stroke-width:2; stroke-opacity:0.1; fill:none" points="
  909.05,1486.45 909.05,47.2441 
  "/>
<polyline clip-path="url(#clip132)" style="stroke:#000000; stroke-linecap:butt; stroke-linejoin:round; stroke-width:2; stroke-opacity:0.1; fill:none" points="
  1369.56,1486.45 1369.56,47.2441 
  "/>
<polyline clip-path="url(#clip132)" style="stroke:#000000; stroke-linecap:butt; stroke-linejoin:round; stroke-width:2; stroke-opacity:0.1; fill:none" points="
  1830.07,1486.45 1830.07,47.2441 
  "/>
<polyline clip-path="url(#clip132)" style="stroke:#000000; stroke-linecap:butt; stroke-linejoin:round; stroke-width:2; stroke-opacity:0.1; fill:none" points="
  2290.59,1486.45 2290.59,47.2441 
  "/>
<polyline clip-path="url(#clip130)" style="stroke:#000000; stroke-linecap:butt; stroke-linejoin:round; stroke-width:4; stroke-opacity:1; fill:none" points="
  156.112,1486.45 2352.76,1486.45 
  "/>
<polyline clip-path="url(#clip130)" style="stroke:#000000; stroke-linecap:butt; stroke-linejoin:round; stroke-width:4; stroke-opacity:1; fill:none" points="
  448.537,1486.45 448.537,1467.55 
  "/>
<polyline clip-path="url(#clip130)" style="stroke:#000000; stroke-linecap:butt; stroke-linejoin:round; stroke-width:4; stroke-opacity:1; fill:none" points="
  909.05,1486.45 909.05,1467.55 
  "/>
<polyline clip-path="url(#clip130)" style="stroke:#000000; stroke-linecap:butt; stroke-linejoin:round; stroke-width:4; stroke-opacity:1; fill:none" points="
  1369.56,1486.45 1369.56,1467.55 
  "/>
<polyline clip-path="url(#clip130)" style="stroke:#000000; stroke-linecap:butt; stroke-linejoin:round; stroke-width:4; stroke-opacity:1; fill:none" points="
  1830.07,1486.45 1830.07,1467.55 
  "/>
<polyline clip-path="url(#clip130)" style="stroke:#000000; stroke-linecap:butt; stroke-linejoin:round; stroke-width:4; stroke-opacity:1; fill:none" points="
  2290.59,1486.45 2290.59,1467.55 
  "/>
<path clip-path="url(#clip130)" d="M443.19 1543.18 L459.51 1543.18 L459.51 1547.12 L437.565 1547.12 L437.565 1543.18 Q440.227 1540.43 444.811 1535.8 Q449.417 1531.15 450.598 1529.81 Q452.843 1527.28 453.723 1525.55 Q454.625 1523.79 454.625 1522.1 Q454.625 1519.34 452.681 1517.61 Q450.76 1515.87 447.658 1515.87 Q445.459 1515.87 443.005 1516.63 Q440.575 1517.4 437.797 1518.95 L437.797 1514.23 Q440.621 1513.09 443.075 1512.51 Q445.528 1511.93 447.565 1511.93 Q452.936 1511.93 456.13 1514.62 Q459.324 1517.31 459.324 1521.8 Q459.324 1523.93 458.514 1525.85 Q457.727 1527.74 455.621 1530.34 Q455.042 1531.01 451.94 1534.23 Q448.838 1537.42 443.19 1543.18 Z" fill="#000000" fill-rule="evenodd" fill-opacity="1" /><path clip-path="url(#clip130)" d="M912.059 1516.63 L900.254 1535.08 L912.059 1535.08 L912.059 1516.63 M910.832 1512.56 L916.712 1512.56 L916.712 1535.08 L921.642 1535.08 L921.642 1538.97 L916.712 1538.97 L916.712 1547.12 L912.059 1547.12 L912.059 1538.97 L896.457 1538.97 L896.457 1534.46 L910.832 1512.56 Z" fill="#000000" fill-rule="evenodd" fill-opacity="1" /><path clip-path="url(#clip130)" d="M1369.97 1527.98 Q1366.82 1527.98 1364.97 1530.13 Q1363.14 1532.28 1363.14 1536.03 Q1363.14 1539.76 1364.97 1541.93 Q1366.82 1544.09 1369.97 1544.09 Q1373.12 1544.09 1374.94 1541.93 Q1376.8 1539.76 1376.8 1536.03 Q1376.8 1532.28 1374.94 1530.13 Q1373.12 1527.98 1369.97 1527.98 M1379.25 1513.32 L1379.25 1517.58 Q1377.49 1516.75 1375.68 1516.31 Q1373.9 1515.87 1372.14 1515.87 Q1367.51 1515.87 1365.06 1519 Q1362.63 1522.12 1362.28 1528.44 Q1363.65 1526.43 1365.71 1525.36 Q1367.77 1524.27 1370.24 1524.27 Q1375.45 1524.27 1378.46 1527.44 Q1381.49 1530.59 1381.49 1536.03 Q1381.49 1541.36 1378.35 1544.57 Q1375.2 1547.79 1369.97 1547.79 Q1363.97 1547.79 1360.8 1543.21 Q1357.63 1538.6 1357.63 1529.87 Q1357.63 1521.68 1361.52 1516.82 Q1365.41 1511.93 1371.96 1511.93 Q1373.72 1511.93 1375.5 1512.28 Q1377.31 1512.63 1379.25 1513.32 Z" fill="#000000" fill-rule="evenodd" fill-opacity="1" /><path clip-path="url(#clip130)" d="M1830.07 1530.71 Q1826.74 1530.71 1824.82 1532.49 Q1822.92 1534.27 1822.92 1537.4 Q1822.92 1540.52 1824.82 1542.31 Q1826.74 1544.09 1830.07 1544.09 Q1833.41 1544.09 1835.33 1542.31 Q1837.25 1540.5 1837.25 1537.4 Q1837.25 1534.27 1835.33 1532.49 Q1833.43 1530.71 1830.07 1530.71 M1825.4 1528.72 Q1822.39 1527.98 1820.7 1525.92 Q1819.03 1523.86 1819.03 1520.89 Q1819.03 1516.75 1821.97 1514.34 Q1824.94 1511.93 1830.07 1511.93 Q1835.24 1511.93 1838.18 1514.34 Q1841.12 1516.75 1841.12 1520.89 Q1841.12 1523.86 1839.43 1525.92 Q1837.76 1527.98 1834.77 1528.72 Q1838.15 1529.5 1840.03 1531.8 Q1841.93 1534.09 1841.93 1537.4 Q1841.93 1542.42 1838.85 1545.11 Q1835.79 1547.79 1830.07 1547.79 Q1824.36 1547.79 1821.28 1545.11 Q1818.22 1542.42 1818.22 1537.4 Q1818.22 1534.09 1820.12 1531.8 Q1822.02 1529.5 1825.4 1528.72 M1823.69 1521.33 Q1823.69 1524.02 1825.35 1525.52 Q1827.04 1527.03 1830.07 1527.03 Q1833.08 1527.03 1834.77 1525.52 Q1836.49 1524.02 1836.49 1521.33 Q1836.49 1518.65 1834.77 1517.14 Q1833.08 1515.64 1830.07 1515.64 Q1827.04 1515.64 1825.35 1517.14 Q1823.69 1518.65 1823.69 1521.33 Z" fill="#000000" fill-rule="evenodd" fill-opacity="1" /><path clip-path="url(#clip130)" d="M2265.27 1543.18 L2272.91 1543.18 L2272.91 1516.82 L2264.6 1518.49 L2264.6 1514.23 L2272.87 1512.56 L2277.54 1512.56 L2277.54 1543.18 L2285.18 1543.18 L2285.18 1547.12 L2265.27 1547.12 L2265.27 1543.18 Z" fill="#000000" fill-rule="evenodd" fill-opacity="1" /><path clip-path="url(#clip130)" d="M2304.63 1515.64 Q2301.01 1515.64 2299.19 1519.2 Q2297.38 1522.75 2297.38 1529.87 Q2297.38 1536.98 2299.19 1540.55 Q2301.01 1544.09 2304.63 1544.09 Q2308.26 1544.09 2310.07 1540.55 Q2311.89 1536.98 2311.89 1529.87 Q2311.89 1522.75 2310.07 1519.2 Q2308.26 1515.64 2304.63 1515.64 M2304.63 1511.93 Q2310.44 1511.93 2313.49 1516.54 Q2316.57 1521.12 2316.57 1529.87 Q2316.57 1538.6 2313.49 1543.21 Q2310.44 1547.79 2304.63 1547.79 Q2298.82 1547.79 2295.74 1543.21 Q2292.68 1538.6 2292.68 1529.87 Q2292.68 1521.12 2295.74 1516.54 Q2298.82 1511.93 2304.63 1511.93 Z" fill="#000000" fill-rule="evenodd" fill-opacity="1" /><polyline clip-path="url(#clip132)" style="stroke:#000000; stroke-linecap:butt; stroke-linejoin:round; stroke-width:2; stroke-opacity:0.1; fill:none" points="
  156.112,1447.65 2352.76,1447.65 
  "/>
<polyline clip-path="url(#clip132)" style="stroke:#000000; stroke-linecap:butt; stroke-linejoin:round; stroke-width:2; stroke-opacity:0.1; fill:none" points="
  156.112,1174.45 2352.76,1174.45 
  "/>
<polyline clip-path="url(#clip132)" style="stroke:#000000; stroke-linecap:butt; stroke-linejoin:round; stroke-width:2; stroke-opacity:0.1; fill:none" points="
  156.112,901.246 2352.76,901.246 
  "/>
<polyline clip-path="url(#clip132)" style="stroke:#000000; stroke-linecap:butt; stroke-linejoin:round; stroke-width:2; stroke-opacity:0.1; fill:none" points="
  156.112,628.045 2352.76,628.045 
  "/>
<polyline clip-path="url(#clip132)" style="stroke:#000000; stroke-linecap:butt; stroke-linejoin:round; stroke-width:2; stroke-opacity:0.1; fill:none" points="
  156.112,354.844 2352.76,354.844 
  "/>
<polyline clip-path="url(#clip132)" style="stroke:#000000; stroke-linecap:butt; stroke-linejoin:round; stroke-width:2; stroke-opacity:0.1; fill:none" points="
  156.112,81.6431 2352.76,81.6431 
  "/>
<polyline clip-path="url(#clip130)" style="stroke:#000000; stroke-linecap:butt; stroke-linejoin:round; stroke-width:4; stroke-opacity:1; fill:none" points="
  156.112,1486.45 156.112,47.2441 
  "/>
<polyline clip-path="url(#clip130)" style="stroke:#000000; stroke-linecap:butt; stroke-linejoin:round; stroke-width:4; stroke-opacity:1; fill:none" points="
  156.112,1447.65 175.01,1447.65 
  "/>
<polyline clip-path="url(#clip130)" style="stroke:#000000; stroke-linecap:butt; stroke-linejoin:round; stroke-width:4; stroke-opacity:1; fill:none" points="
  156.112,1174.45 175.01,1174.45 
  "/>
<polyline clip-path="url(#clip130)" style="stroke:#000000; stroke-linecap:butt; stroke-linejoin:round; stroke-width:4; stroke-opacity:1; fill:none" points="
  156.112,901.246 175.01,901.246 
  "/>
<polyline clip-path="url(#clip130)" style="stroke:#000000; stroke-linecap:butt; stroke-linejoin:round; stroke-width:4; stroke-opacity:1; fill:none" points="
  156.112,628.045 175.01,628.045 
  "/>
<polyline clip-path="url(#clip130)" style="stroke:#000000; stroke-linecap:butt; stroke-linejoin:round; stroke-width:4; stroke-opacity:1; fill:none" points="
  156.112,354.844 175.01,354.844 
  "/>
<polyline clip-path="url(#clip130)" style="stroke:#000000; stroke-linecap:butt; stroke-linejoin:round; stroke-width:4; stroke-opacity:1; fill:none" points="
  156.112,81.6431 175.01,81.6431 
  "/>
<path clip-path="url(#clip130)" d="M62.9365 1433.45 Q59.3254 1433.45 57.4967 1437.01 Q55.6912 1440.55 55.6912 1447.68 Q55.6912 1454.79 57.4967 1458.35 Q59.3254 1461.9 62.9365 1461.9 Q66.5707 1461.9 68.3763 1458.35 Q70.205 1454.79 70.205 1447.68 Q70.205 1440.55 68.3763 1437.01 Q66.5707 1433.45 62.9365 1433.45 M62.9365 1429.74 Q68.7467 1429.74 71.8022 1434.35 Q74.8809 1438.93 74.8809 1447.68 Q74.8809 1456.41 71.8022 1461.02 Q68.7467 1465.6 62.9365 1465.6 Q57.1264 1465.6 54.0477 1461.02 Q50.9921 1456.41 50.9921 1447.68 Q50.9921 1438.93 54.0477 1434.35 Q57.1264 1429.74 62.9365 1429.74 Z" fill="#000000" fill-rule="evenodd" fill-opacity="1" /><path clip-path="url(#clip130)" d="M83.0984 1459.05 L87.9827 1459.05 L87.9827 1464.93 L83.0984 1464.93 L83.0984 1459.05 Z" fill="#000000" fill-rule="evenodd" fill-opacity="1" /><path clip-path="url(#clip130)" d="M108.168 1433.45 Q104.557 1433.45 102.728 1437.01 Q100.922 1440.55 100.922 1447.68 Q100.922 1454.79 102.728 1458.35 Q104.557 1461.9 108.168 1461.9 Q111.802 1461.9 113.608 1458.35 Q115.436 1454.79 115.436 1447.68 Q115.436 1440.55 113.608 1437.01 Q111.802 1433.45 108.168 1433.45 M108.168 1429.74 Q113.978 1429.74 117.033 1434.35 Q120.112 1438.93 120.112 1447.68 Q120.112 1456.41 117.033 1461.02 Q113.978 1465.6 108.168 1465.6 Q102.358 1465.6 99.2789 1461.02 Q96.2234 1456.41 96.2234 1447.68 Q96.2234 1438.93 99.2789 1434.35 Q102.358 1429.74 108.168 1429.74 Z" fill="#000000" fill-rule="evenodd" fill-opacity="1" /><path clip-path="url(#clip130)" d="M63.9319 1160.25 Q60.3208 1160.25 58.4921 1163.81 Q56.6865 1167.35 56.6865 1174.48 Q56.6865 1181.59 58.4921 1185.15 Q60.3208 1188.69 63.9319 1188.69 Q67.5661 1188.69 69.3717 1185.15 Q71.2004 1181.59 71.2004 1174.48 Q71.2004 1167.35 69.3717 1163.81 Q67.5661 1160.25 63.9319 1160.25 M63.9319 1156.54 Q69.742 1156.54 72.7976 1161.15 Q75.8763 1165.73 75.8763 1174.48 Q75.8763 1183.21 72.7976 1187.81 Q69.742 1192.4 63.9319 1192.4 Q58.1217 1192.4 55.043 1187.81 Q51.9875 1183.21 51.9875 1174.48 Q51.9875 1165.73 55.043 1161.15 Q58.1217 1156.54 63.9319 1156.54 Z" fill="#000000" fill-rule="evenodd" fill-opacity="1" /><path clip-path="url(#clip130)" d="M84.0938 1185.85 L88.978 1185.85 L88.978 1191.73 L84.0938 1191.73 L84.0938 1185.85 Z" fill="#000000" fill-rule="evenodd" fill-opacity="1" /><path clip-path="url(#clip130)" d="M99.2095 1157.17 L117.566 1157.17 L117.566 1161.1 L103.492 1161.1 L103.492 1169.57 Q104.51 1169.23 105.529 1169.06 Q106.547 1168.88 107.566 1168.88 Q113.353 1168.88 116.733 1172.05 Q120.112 1175.22 120.112 1180.64 Q120.112 1186.22 116.64 1189.32 Q113.168 1192.4 106.848 1192.4 Q104.672 1192.4 102.404 1192.03 Q100.159 1191.66 97.7511 1190.92 L97.7511 1186.22 Q99.8345 1187.35 102.057 1187.91 Q104.279 1188.46 106.756 1188.46 Q110.76 1188.46 113.098 1186.36 Q115.436 1184.25 115.436 1180.64 Q115.436 1177.03 113.098 1174.92 Q110.76 1172.81 106.756 1172.81 Q104.881 1172.81 103.006 1173.23 Q101.154 1173.65 99.2095 1174.53 L99.2095 1157.17 Z" fill="#000000" fill-rule="evenodd" fill-opacity="1" /><path clip-path="url(#clip130)" d="M53.7467 914.591 L61.3856 914.591 L61.3856 888.225 L53.0754 889.892 L53.0754 885.633 L61.3393 883.966 L66.0152 883.966 L66.0152 914.591 L73.654 914.591 L73.654 918.526 L53.7467 918.526 L53.7467 914.591 Z" fill="#000000" fill-rule="evenodd" fill-opacity="1" /><path clip-path="url(#clip130)" d="M83.0984 912.646 L87.9827 912.646 L87.9827 918.526 L83.0984 918.526 L83.0984 912.646 Z" fill="#000000" fill-rule="evenodd" fill-opacity="1" /><path clip-path="url(#clip130)" d="M108.168 887.045 Q104.557 887.045 102.728 890.609 Q100.922 894.151 100.922 901.281 Q100.922 908.387 102.728 911.952 Q104.557 915.493 108.168 915.493 Q111.802 915.493 113.608 911.952 Q115.436 908.387 115.436 901.281 Q115.436 894.151 113.608 890.609 Q111.802 887.045 108.168 887.045 M108.168 883.341 Q113.978 883.341 117.033 887.947 Q120.112 892.531 120.112 901.281 Q120.112 910.007 117.033 914.614 Q113.978 919.197 108.168 919.197 Q102.358 919.197 99.2789 914.614 Q96.2234 910.007 96.2234 901.281 Q96.2234 892.531 99.2789 887.947 Q102.358 883.341 108.168 883.341 Z" fill="#000000" fill-rule="evenodd" fill-opacity="1" /><path clip-path="url(#clip130)" d="M54.7421 641.39 L62.381 641.39 L62.381 615.024 L54.0708 616.691 L54.0708 612.432 L62.3347 610.765 L67.0106 610.765 L67.0106 641.39 L74.6494 641.39 L74.6494 645.325 L54.7421 645.325 L54.7421 641.39 Z" fill="#000000" fill-rule="evenodd" fill-opacity="1" /><path clip-path="url(#clip130)" d="M84.0938 639.445 L88.978 639.445 L88.978 645.325 L84.0938 645.325 L84.0938 639.445 Z" fill="#000000" fill-rule="evenodd" fill-opacity="1" /><path clip-path="url(#clip130)" d="M99.2095 610.765 L117.566 610.765 L117.566 614.7 L103.492 614.7 L103.492 623.172 Q104.51 622.825 105.529 622.663 Q106.547 622.478 107.566 622.478 Q113.353 622.478 116.733 625.649 Q120.112 628.82 120.112 634.237 Q120.112 639.816 116.64 642.918 Q113.168 645.996 106.848 645.996 Q104.672 645.996 102.404 645.626 Q100.159 645.256 97.7511 644.515 L97.7511 639.816 Q99.8345 640.95 102.057 641.506 Q104.279 642.061 106.756 642.061 Q110.76 642.061 113.098 639.955 Q115.436 637.848 115.436 634.237 Q115.436 630.626 113.098 628.519 Q110.76 626.413 106.756 626.413 Q104.881 626.413 103.006 626.83 Q101.154 627.246 99.2095 628.126 L99.2095 610.765 Z" fill="#000000" fill-rule="evenodd" fill-opacity="1" /><path clip-path="url(#clip130)" d="M56.9643 368.189 L73.2837 368.189 L73.2837 372.124 L51.3393 372.124 L51.3393 368.189 Q54.0014 365.434 58.5847 360.805 Q63.1911 356.152 64.3717 354.809 Q66.617 352.286 67.4967 350.55 Q68.3994 348.791 68.3994 347.101 Q68.3994 344.346 66.455 342.61 Q64.5337 340.874 61.4319 340.874 Q59.2328 340.874 56.7791 341.638 Q54.3486 342.402 51.5708 343.953 L51.5708 339.231 Q54.3949 338.096 56.8486 337.518 Q59.3023 336.939 61.3393 336.939 Q66.7096 336.939 69.9041 339.624 Q73.0985 342.309 73.0985 346.8 Q73.0985 348.93 72.2883 350.851 Q71.5013 352.749 69.3948 355.342 Q68.8161 356.013 65.7143 359.231 Q62.6124 362.425 56.9643 368.189 Z" fill="#000000" fill-rule="evenodd" fill-opacity="1" /><path clip-path="url(#clip130)" d="M83.0984 366.244 L87.9827 366.244 L87.9827 372.124 L83.0984 372.124 L83.0984 366.244 Z" fill="#000000" fill-rule="evenodd" fill-opacity="1" /><path clip-path="url(#clip130)" d="M108.168 340.643 Q104.557 340.643 102.728 344.208 Q100.922 347.749 100.922 354.879 Q100.922 361.985 102.728 365.55 Q104.557 369.092 108.168 369.092 Q111.802 369.092 113.608 365.55 Q115.436 361.985 115.436 354.879 Q115.436 347.749 113.608 344.208 Q111.802 340.643 108.168 340.643 M108.168 336.939 Q113.978 336.939 117.033 341.546 Q120.112 346.129 120.112 354.879 Q120.112 363.606 117.033 368.212 Q113.978 372.795 108.168 372.795 Q102.358 372.795 99.2789 368.212 Q96.2234 363.606 96.2234 354.879 Q96.2234 346.129 99.2789 341.546 Q102.358 336.939 108.168 336.939 Z" fill="#000000" fill-rule="evenodd" fill-opacity="1" /><path clip-path="url(#clip130)" d="M57.9597 94.988 L74.279 94.988 L74.279 98.9231 L52.3347 98.9231 L52.3347 94.988 Q54.9967 92.2334 59.58 87.6038 Q64.1865 82.951 65.367 81.6084 Q67.6124 79.0853 68.492 77.3492 Q69.3948 75.5899 69.3948 73.9001 Q69.3948 71.1455 67.4504 69.4094 Q65.5291 67.6733 62.4272 67.6733 Q60.2282 67.6733 57.7745 68.4372 Q55.344 69.2011 52.5662 70.752 L52.5662 66.0298 Q55.3903 64.8955 57.8439 64.3168 Q60.2976 63.7381 62.3347 63.7381 Q67.705 63.7381 70.8994 66.4233 Q74.0939 69.1085 74.0939 73.5992 Q74.0939 75.7288 73.2837 77.6501 Q72.4966 79.5482 70.3902 82.1408 Q69.8115 82.8121 66.7096 86.0297 Q63.6078 89.2241 57.9597 94.988 Z" fill="#000000" fill-rule="evenodd" fill-opacity="1" /><path clip-path="url(#clip130)" d="M84.0938 93.0435 L88.978 93.0435 L88.978 98.9231 L84.0938 98.9231 L84.0938 93.0435 Z" fill="#000000" fill-rule="evenodd" fill-opacity="1" /><path clip-path="url(#clip130)" d="M99.2095 64.3631 L117.566 64.3631 L117.566 68.2983 L103.492 68.2983 L103.492 76.7705 Q104.51 76.4233 105.529 76.2612 Q106.547 76.076 107.566 76.076 Q113.353 76.076 116.733 79.2473 Q120.112 82.4186 120.112 87.8352 Q120.112 93.4139 116.64 96.5157 Q113.168 99.5944 106.848 99.5944 Q104.672 99.5944 102.404 99.2241 Q100.159 98.8537 97.7511 98.113 L97.7511 93.4139 Q99.8345 94.5482 102.057 95.1037 Q104.279 95.6593 106.756 95.6593 Q110.76 95.6593 113.098 93.5528 Q115.436 91.4463 115.436 87.8352 Q115.436 84.2241 113.098 82.1177 Q110.76 80.0112 106.756 80.0112 Q104.881 80.0112 103.006 80.4279 Q101.154 80.8445 99.2095 81.7242 L99.2095 64.3631 Z" fill="#000000" fill-rule="evenodd" fill-opacity="1" /><polyline clip-path="url(#clip132)" style="stroke:#009af9; stroke-linecap:butt; stroke-linejoin:round; stroke-width:4; stroke-opacity:1; fill:none" points="
  218.281,1250.5 448.537,87.9763 678.794,1297.26 909.05,1320.31 1139.31,1248.23 1369.56,1445.72 1599.82,1368.47 1830.07,96.0618 2060.33,1256.56 2290.59,1393.77 
  
  "/>
<path clip-path="url(#clip130)" d="
M1983.03 198.898 L2279.53 198.898 L2279.53 95.2176 L1983.03 95.2176  Z
  " fill="#ffffff" fill-rule="evenodd" fill-opacity="1"/>
<polyline clip-path="url(#clip130)" style="stroke:#000000; stroke-linecap:butt; stroke-linejoin:round; stroke-width:4; stroke-opacity:1; fill:none" points="
  1983.03,198.898 2279.53,198.898 2279.53,95.2176 1983.03,95.2176 1983.03,198.898 
  "/>
<polyline clip-path="url(#clip130)" style="stroke:#009af9; stroke-linecap:butt; stroke-linejoin:round; stroke-width:4; stroke-opacity:1; fill:none" points="
  2007.44,147.058 2153.88,147.058 
  "/>
<path clip-path="url(#clip130)" d="M2192.13 166.745 Q2190.33 171.375 2188.61 172.787 Q2186.9 174.199 2184.03 174.199 L2180.63 174.199 L2180.63 170.634 L2183.13 170.634 Q2184.89 170.634 2185.86 169.8 Q2186.83 168.967 2188.01 165.865 L2188.78 163.921 L2178.29 138.412 L2182.8 138.412 L2190.91 158.689 L2199.01 138.412 L2203.52 138.412 L2192.13 166.745 Z" fill="#000000" fill-rule="evenodd" fill-opacity="1" /><path clip-path="url(#clip130)" d="M2210.81 160.402 L2218.45 160.402 L2218.45 134.037 L2210.14 135.703 L2210.14 131.444 L2218.41 129.778 L2223.08 129.778 L2223.08 160.402 L2230.72 160.402 L2230.72 164.338 L2210.81 164.338 L2210.81 160.402 Z" fill="#000000" fill-rule="evenodd" fill-opacity="1" /></svg>
