<?xml version="1.0" encoding="utf-8"?>
<svg xmlns="http://www.w3.org/2000/svg" xmlns:xlink="http://www.w3.org/1999/xlink" width="600" height="400" viewBox="0 0 2400 1600">
<defs>
  <clipPath id="clip570">
    <rect x="0" y="0" width="2400" height="1600"/>
  </clipPath>
</defs>
<path clip-path="url(#clip570)" d="
M0 1600 L2400 1600 L2400 0 L0 0  Z
  " fill="#ffffff" fill-rule="evenodd" fill-opacity="1"/>
<defs>
  <clipPath id="clip571">
    <rect x="480" y="0" width="1681" height="1600"/>
  </clipPath>
</defs>
<path clip-path="url(#clip570)" d="
M147.478 1486.45 L2352.76 1486.45 L2352.76 47.2441 L147.478 47.2441  Z
  " fill="#ffffff" fill-rule="evenodd" fill-opacity="1"/>
<defs>
  <clipPath id="clip572">
    <rect x="147" y="47" width="2206" height="1440"/>
  </clipPath>
</defs>
<polyline clip-path="url(#clip572)" style="stroke:#000000; stroke-linecap:butt; stroke-linejoin:round; stroke-width:2; stroke-opacity:0.1; fill:none" points="
  188.877,1486.45 188.877,47.2441 
  "/>
<polyline clip-path="url(#clip572)" style="stroke:#000000; stroke-linecap:butt; stroke-linejoin:round; stroke-width:2; stroke-opacity:0.1; fill:none" points="
  714.243,1486.45 714.243,47.2441 
  "/>
<polyline clip-path="url(#clip572)" style="stroke:#000000; stroke-linecap:butt; stroke-linejoin:round; stroke-width:2; stroke-opacity:0.1; fill:none" points="
  1239.61,1486.45 1239.61,47.2441 
  "/>
<polyline clip-path="url(#clip572)" style="stroke:#000000; stroke-linecap:butt; stroke-linejoin:round; stroke-width:2; stroke-opacity:0.1; fill:none" points="
  1764.98,1486.45 1764.98,47.2441 
  "/>
<polyline clip-path="url(#clip572)" style="stroke:#000000; stroke-linecap:butt; stroke-linejoin:round; stroke-width:2; stroke-opacity:0.1; fill:none" points="
  2290.34,1486.45 2290.34,47.2441 
  "/>
<polyline clip-path="url(#clip570)" style="stroke:#000000; stroke-linecap:butt; stroke-linejoin:round; stroke-width:4; stroke-opacity:1; fill:none" points="
  147.478,1486.45 2352.76,1486.45 
  "/>
<polyline clip-path="url(#clip570)" style="stroke:#000000; stroke-linecap:butt; stroke-linejoin:round; stroke-width:4; stroke-opacity:1; fill:none" points="
  188.877,1486.45 188.877,1467.55 
  "/>
<polyline clip-path="url(#clip570)" style="stroke:#000000; stroke-linecap:butt; stroke-linejoin:round; stroke-width:4; stroke-opacity:1; fill:none" points="
  714.243,1486.45 714.243,1467.55 
  "/>
<polyline clip-path="url(#clip570)" style="stroke:#000000; stroke-linecap:butt; stroke-linejoin:round; stroke-width:4; stroke-opacity:1; fill:none" points="
  1239.61,1486.45 1239.61,1467.55 
  "/>
<polyline clip-path="url(#clip570)" style="stroke:#000000; stroke-linecap:butt; stroke-linejoin:round; stroke-width:4; stroke-opacity:1; fill:none" points="
  1764.98,1486.45 1764.98,1467.55 
  "/>
<polyline clip-path="url(#clip570)" style="stroke:#000000; stroke-linecap:butt; stroke-linejoin:round; stroke-width:4; stroke-opacity:1; fill:none" points="
  2290.34,1486.45 2290.34,1467.55 
  "/>
<path clip-path="url(#clip570)" d="M188.877 1517.37 Q185.266 1517.37 183.437 1520.93 Q181.631 1524.47 181.631 1531.6 Q181.631 1538.71 183.437 1542.27 Q185.266 1545.82 188.877 1545.82 Q192.511 1545.82 194.317 1542.27 Q196.145 1538.71 196.145 1531.6 Q196.145 1524.47 194.317 1520.93 Q192.511 1517.37 188.877 1517.37 M188.877 1513.66 Q194.687 1513.66 197.742 1518.27 Q200.821 1522.85 200.821 1531.6 Q200.821 1540.33 197.742 1544.94 Q194.687 1549.52 188.877 1549.52 Q183.067 1549.52 179.988 1544.94 Q176.932 1540.33 176.932 1531.6 Q176.932 1522.85 179.988 1518.27 Q183.067 1513.66 188.877 1513.66 Z" fill="#000000" fill-rule="evenodd" fill-opacity="1" /><path clip-path="url(#clip570)" d="M693.514 1544.91 L709.833 1544.91 L709.833 1548.85 L687.889 1548.85 L687.889 1544.91 Q690.551 1542.16 695.134 1537.53 Q699.741 1532.88 700.921 1531.53 Q703.167 1529.01 704.046 1527.27 Q704.949 1525.51 704.949 1523.82 Q704.949 1521.07 703.005 1519.33 Q701.084 1517.6 697.982 1517.6 Q695.783 1517.6 693.329 1518.36 Q690.898 1519.13 688.121 1520.68 L688.121 1515.95 Q690.945 1514.82 693.398 1514.24 Q695.852 1513.66 697.889 1513.66 Q703.259 1513.66 706.454 1516.35 Q709.648 1519.03 709.648 1523.52 Q709.648 1525.65 708.838 1527.57 Q708.051 1529.47 705.945 1532.07 Q705.366 1532.74 702.264 1535.95 Q699.162 1539.15 693.514 1544.91 Z" fill="#000000" fill-rule="evenodd" fill-opacity="1" /><path clip-path="url(#clip570)" d="M719.695 1514.29 L738.051 1514.29 L738.051 1518.22 L723.977 1518.22 L723.977 1526.7 Q724.995 1526.35 726.014 1526.19 Q727.032 1526 728.051 1526 Q733.838 1526 737.218 1529.17 Q740.597 1532.34 740.597 1537.76 Q740.597 1543.34 737.125 1546.44 Q733.653 1549.52 727.333 1549.52 Q725.157 1549.52 722.889 1549.15 Q720.644 1548.78 718.236 1548.04 L718.236 1543.34 Q720.32 1544.47 722.542 1545.03 Q724.764 1545.58 727.241 1545.58 Q731.245 1545.58 733.583 1543.48 Q735.921 1541.37 735.921 1537.76 Q735.921 1534.15 733.583 1532.04 Q731.245 1529.94 727.241 1529.94 Q725.366 1529.94 723.491 1530.35 Q721.639 1530.77 719.695 1531.65 L719.695 1514.29 Z" fill="#000000" fill-rule="evenodd" fill-opacity="1" /><path clip-path="url(#clip570)" d="M1214.31 1514.29 L1232.67 1514.29 L1232.67 1518.22 L1218.59 1518.22 L1218.59 1526.7 Q1219.61 1526.35 1220.63 1526.19 Q1221.65 1526 1222.67 1526 Q1228.45 1526 1231.83 1529.17 Q1235.21 1532.34 1235.21 1537.76 Q1235.21 1543.34 1231.74 1546.44 Q1228.27 1549.52 1221.95 1549.52 Q1219.77 1549.52 1217.5 1549.15 Q1215.26 1548.78 1212.85 1548.04 L1212.85 1543.34 Q1214.93 1544.47 1217.16 1545.03 Q1219.38 1545.58 1221.86 1545.58 Q1225.86 1545.58 1228.2 1543.48 Q1230.54 1541.37 1230.54 1537.76 Q1230.54 1534.15 1228.2 1532.04 Q1225.86 1529.94 1221.86 1529.94 Q1219.98 1529.94 1218.11 1530.35 Q1216.25 1530.77 1214.31 1531.65 L1214.31 1514.29 Z" fill="#000000" fill-rule="evenodd" fill-opacity="1" /><path clip-path="url(#clip570)" d="M1254.42 1517.37 Q1250.81 1517.37 1248.98 1520.93 Q1247.18 1524.47 1247.18 1531.6 Q1247.18 1538.71 1248.98 1542.27 Q1250.81 1545.82 1254.42 1545.82 Q1258.06 1545.82 1259.86 1542.27 Q1261.69 1538.71 1261.69 1531.6 Q1261.69 1524.47 1259.86 1520.93 Q1258.06 1517.37 1254.42 1517.37 M1254.42 1513.66 Q1260.23 1513.66 1263.29 1518.27 Q1266.37 1522.85 1266.37 1531.6 Q1266.37 1540.33 1263.29 1544.94 Q1260.23 1549.52 1254.42 1549.52 Q1248.61 1549.52 1245.54 1544.94 Q1242.48 1540.33 1242.48 1531.6 Q1242.48 1522.85 1245.54 1518.27 Q1248.61 1513.66 1254.42 1513.66 Z" fill="#000000" fill-rule="evenodd" fill-opacity="1" /><path clip-path="url(#clip570)" d="M1738.83 1514.29 L1761.05 1514.29 L1761.05 1516.28 L1748.51 1548.85 L1743.62 1548.85 L1755.43 1518.22 L1738.83 1518.22 L1738.83 1514.29 Z" fill="#000000" fill-rule="evenodd" fill-opacity="1" /><path clip-path="url(#clip570)" d="M1770.22 1514.29 L1788.58 1514.29 L1788.58 1518.22 L1774.5 1518.22 L1774.5 1526.7 Q1775.52 1526.35 1776.54 1526.19 Q1777.56 1526 1778.58 1526 Q1784.36 1526 1787.74 1529.17 Q1791.12 1532.34 1791.12 1537.76 Q1791.12 1543.34 1787.65 1546.44 Q1784.18 1549.52 1777.86 1549.52 Q1775.68 1549.52 1773.41 1549.15 Q1771.17 1548.78 1768.76 1548.04 L1768.76 1543.34 Q1770.84 1544.47 1773.07 1545.03 Q1775.29 1545.58 1777.77 1545.58 Q1781.77 1545.58 1784.11 1543.48 Q1786.45 1541.37 1786.45 1537.76 Q1786.45 1534.15 1784.11 1532.04 Q1781.77 1529.94 1777.77 1529.94 Q1775.89 1529.94 1774.02 1530.35 Q1772.16 1530.77 1770.22 1531.65 L1770.22 1514.29 Z" fill="#000000" fill-rule="evenodd" fill-opacity="1" /><path clip-path="url(#clip570)" d="M2249.95 1544.91 L2257.59 1544.91 L2257.59 1518.55 L2249.28 1520.21 L2249.28 1515.95 L2257.54 1514.29 L2262.22 1514.29 L2262.22 1544.91 L2269.86 1544.91 L2269.86 1548.85 L2249.95 1548.85 L2249.95 1544.91 Z" fill="#000000" fill-rule="evenodd" fill-opacity="1" /><path clip-path="url(#clip570)" d="M2289.3 1517.37 Q2285.69 1517.37 2283.86 1520.93 Q2282.06 1524.47 2282.06 1531.6 Q2282.06 1538.71 2283.86 1542.27 Q2285.69 1545.82 2289.3 1545.82 Q2292.93 1545.82 2294.74 1542.27 Q2296.57 1538.71 2296.57 1531.6 Q2296.57 1524.47 2294.74 1520.93 Q2292.93 1517.37 2289.3 1517.37 M2289.3 1513.66 Q2295.11 1513.66 2298.17 1518.27 Q2301.25 1522.85 2301.25 1531.6 Q2301.25 1540.33 2298.17 1544.94 Q2295.11 1549.52 2289.3 1549.52 Q2283.49 1549.52 2280.41 1544.94 Q2277.36 1540.33 2277.36 1531.6 Q2277.36 1522.85 2280.41 1518.27 Q2283.49 1513.66 2289.3 1513.66 Z" fill="#000000" fill-rule="evenodd" fill-opacity="1" /><path clip-path="url(#clip570)" d="M2319.46 1517.37 Q2315.85 1517.37 2314.02 1520.93 Q2312.22 1524.47 2312.22 1531.6 Q2312.22 1538.71 2314.02 1542.27 Q2315.85 1545.82 2319.46 1545.82 Q2323.1 1545.82 2324.9 1542.27 Q2326.73 1538.71 2326.73 1531.6 Q2326.73 1524.47 2324.9 1520.93 Q2323.1 1517.37 2319.46 1517.37 M2319.46 1513.66 Q2325.27 1513.66 2328.33 1518.27 Q2331.41 1522.85 2331.41 1531.6 Q2331.41 1540.33 2328.33 1544.94 Q2325.27 1549.52 2319.46 1549.52 Q2313.65 1549.52 2310.57 1544.94 Q2307.52 1540.33 2307.52 1531.6 Q2307.52 1522.85 2310.57 1518.27 Q2313.65 1513.66 2319.46 1513.66 Z" fill="#000000" fill-rule="evenodd" fill-opacity="1" /><polyline clip-path="url(#clip572)" style="stroke:#000000; stroke-linecap:butt; stroke-linejoin:round; stroke-width:2; stroke-opacity:0.1; fill:none" points="
  147.478,1473.4 2352.76,1473.4 
  "/>
<polyline clip-path="url(#clip572)" style="stroke:#000000; stroke-linecap:butt; stroke-linejoin:round; stroke-width:2; stroke-opacity:0.1; fill:none" points="
  147.478,1252.62 2352.76,1252.62 
  "/>
<polyline clip-path="url(#clip572)" style="stroke:#000000; stroke-linecap:butt; stroke-linejoin:round; stroke-width:2; stroke-opacity:0.1; fill:none" points="
  147.478,1031.83 2352.76,1031.83 
  "/>
<polyline clip-path="url(#clip572)" style="stroke:#000000; stroke-linecap:butt; stroke-linejoin:round; stroke-width:2; stroke-opacity:0.1; fill:none" points="
  147.478,811.04 2352.76,811.04 
  "/>
<polyline clip-path="url(#clip572)" style="stroke:#000000; stroke-linecap:butt; stroke-linejoin:round; stroke-width:2; stroke-opacity:0.1; fill:none" points="
  147.478,590.252 2352.76,590.252 
  "/>
<polyline clip-path="url(#clip572)" style="stroke:#000000; stroke-linecap:butt; stroke-linejoin:round; stroke-width:2; stroke-opacity:0.1; fill:none" points="
  147.478,369.464 2352.76,369.464 
  "/>
<polyline clip-path="url(#clip572)" style="stroke:#000000; stroke-linecap:butt; stroke-linejoin:round; stroke-width:2; stroke-opacity:0.1; fill:none" points="
  147.478,148.677 2352.76,148.677 
  "/>
<polyline clip-path="url(#clip570)" style="stroke:#000000; stroke-linecap:butt; stroke-linejoin:round; stroke-width:4; stroke-opacity:1; fill:none" points="
  147.478,1486.45 147.478,47.2441 
  "/>
<polyline clip-path="url(#clip570)" style="stroke:#000000; stroke-linecap:butt; stroke-linejoin:round; stroke-width:4; stroke-opacity:1; fill:none" points="
  147.478,1473.4 166.376,1473.4 
  "/>
<polyline clip-path="url(#clip570)" style="stroke:#000000; stroke-linecap:butt; stroke-linejoin:round; stroke-width:4; stroke-opacity:1; fill:none" points="
  147.478,1252.62 166.376,1252.62 
  "/>
<polyline clip-path="url(#clip570)" style="stroke:#000000; stroke-linecap:butt; stroke-linejoin:round; stroke-width:4; stroke-opacity:1; fill:none" points="
  147.478,1031.83 166.376,1031.83 
  "/>
<polyline clip-path="url(#clip570)" style="stroke:#000000; stroke-linecap:butt; stroke-linejoin:round; stroke-width:4; stroke-opacity:1; fill:none" points="
  147.478,811.04 166.376,811.04 
  "/>
<polyline clip-path="url(#clip570)" style="stroke:#000000; stroke-linecap:butt; stroke-linejoin:round; stroke-width:4; stroke-opacity:1; fill:none" points="
  147.478,590.252 166.376,590.252 
  "/>
<polyline clip-path="url(#clip570)" style="stroke:#000000; stroke-linecap:butt; stroke-linejoin:round; stroke-width:4; stroke-opacity:1; fill:none" points="
  147.478,369.464 166.376,369.464 
  "/>
<polyline clip-path="url(#clip570)" style="stroke:#000000; stroke-linecap:butt; stroke-linejoin:round; stroke-width:4; stroke-opacity:1; fill:none" points="
  147.478,148.677 166.376,148.677 
  "/>
<path clip-path="url(#clip570)" d="M51.3625 1473.85 L81.0383 1473.85 L81.0383 1477.79 L51.3625 1477.79 L51.3625 1473.85 Z" fill="#000000" fill-rule="evenodd" fill-opacity="1" /><path clip-path="url(#clip570)" d="M95.1586 1486.75 L111.478 1486.75 L111.478 1490.68 L89.5336 1490.68 L89.5336 1486.75 Q92.1956 1483.99 96.7789 1479.36 Q101.385 1474.71 102.566 1473.37 Q104.811 1470.84 105.691 1469.11 Q106.594 1467.35 106.594 1465.66 Q106.594 1462.91 104.649 1461.17 Q102.728 1459.43 99.6261 1459.43 Q97.4271 1459.43 94.9734 1460.2 Q92.5428 1460.96 89.7651 1462.51 L89.7651 1457.79 Q92.5891 1456.66 95.0428 1456.08 Q97.4965 1455.5 99.5335 1455.5 Q104.904 1455.5 108.098 1458.18 Q111.293 1460.87 111.293 1465.36 Q111.293 1467.49 110.483 1469.41 Q109.696 1471.31 107.589 1473.9 Q107.01 1474.57 103.909 1477.79 Q100.807 1480.98 95.1586 1486.75 Z" fill="#000000" fill-rule="evenodd" fill-opacity="1" /><path clip-path="url(#clip570)" d="M50.9921 1253.07 L80.6679 1253.07 L80.6679 1257 L50.9921 1257 L50.9921 1253.07 Z" fill="#000000" fill-rule="evenodd" fill-opacity="1" /><path clip-path="url(#clip570)" d="M91.5706 1265.96 L99.2095 1265.96 L99.2095 1239.59 L90.8993 1241.26 L90.8993 1237 L99.1632 1235.34 L103.839 1235.34 L103.839 1265.96 L111.478 1265.96 L111.478 1269.9 L91.5706 1269.9 L91.5706 1265.96 Z" fill="#000000" fill-rule="evenodd" fill-opacity="1" /><path clip-path="url(#clip570)" d="M99.5335 1017.63 Q95.9224 1017.63 94.0937 1021.19 Q92.2882 1024.73 92.2882 1031.86 Q92.2882 1038.97 94.0937 1042.53 Q95.9224 1046.07 99.5335 1046.07 Q103.168 1046.07 104.973 1042.53 Q106.802 1038.97 106.802 1031.86 Q106.802 1024.73 104.973 1021.19 Q103.168 1017.63 99.5335 1017.63 M99.5335 1013.92 Q105.344 1013.92 108.399 1018.53 Q111.478 1023.11 111.478 1031.86 Q111.478 1040.59 108.399 1045.2 Q105.344 1049.78 99.5335 1049.78 Q93.7234 1049.78 90.6447 1045.2 Q87.5892 1040.59 87.5892 1031.86 Q87.5892 1023.11 90.6447 1018.53 Q93.7234 1013.92 99.5335 1013.92 Z" fill="#000000" fill-rule="evenodd" fill-opacity="1" /><path clip-path="url(#clip570)" d="M91.5706 824.385 L99.2095 824.385 L99.2095 798.019 L90.8993 799.686 L90.8993 795.426 L99.1632 793.76 L103.839 793.76 L103.839 824.385 L111.478 824.385 L111.478 828.32 L91.5706 828.32 L91.5706 824.385 Z" fill="#000000" fill-rule="evenodd" fill-opacity="1" /><path clip-path="url(#clip570)" d="M95.1586 603.597 L111.478 603.597 L111.478 607.532 L89.5336 607.532 L89.5336 603.597 Q92.1956 600.842 96.7789 596.213 Q101.385 591.56 102.566 590.217 Q104.811 587.694 105.691 585.958 Q106.594 584.199 106.594 582.509 Q106.594 579.754 104.649 578.018 Q102.728 576.282 99.6261 576.282 Q97.4271 576.282 94.9734 577.046 Q92.5428 577.81 89.7651 579.361 L89.7651 574.639 Q92.5891 573.504 95.0428 572.926 Q97.4965 572.347 99.5335 572.347 Q104.904 572.347 108.098 575.032 Q111.293 577.717 111.293 582.208 Q111.293 584.338 110.483 586.259 Q109.696 588.157 107.589 590.75 Q107.01 591.421 103.909 594.639 Q100.807 597.833 95.1586 603.597 Z" fill="#000000" fill-rule="evenodd" fill-opacity="1" /><path clip-path="url(#clip570)" d="M104.348 368.11 Q107.705 368.828 109.58 371.096 Q111.478 373.365 111.478 376.698 Q111.478 381.814 107.959 384.615 Q104.441 387.416 97.9595 387.416 Q95.7836 387.416 93.4688 386.976 Q91.1771 386.559 88.7234 385.703 L88.7234 381.189 Q90.6678 382.323 92.9826 382.902 Q95.2974 383.48 97.8206 383.48 Q102.219 383.48 104.51 381.744 Q106.825 380.008 106.825 376.698 Q106.825 373.643 104.672 371.93 Q102.543 370.193 98.7234 370.193 L94.6956 370.193 L94.6956 366.351 L98.9085 366.351 Q102.358 366.351 104.186 364.985 Q106.015 363.596 106.015 361.004 Q106.015 358.342 104.117 356.93 Q102.242 355.494 98.7234 355.494 Q96.8021 355.494 94.603 355.911 Q92.4039 356.328 89.7651 357.207 L89.7651 353.041 Q92.4271 352.3 94.7419 351.93 Q97.0798 351.559 99.14 351.559 Q104.464 351.559 107.566 353.99 Q110.668 356.397 110.668 360.518 Q110.668 363.388 109.024 365.379 Q107.381 367.346 104.348 368.11 Z" fill="#000000" fill-rule="evenodd" fill-opacity="1" /><path clip-path="url(#clip570)" d="M101.895 135.471 L90.0891 153.92 L101.895 153.92 L101.895 135.471 M100.668 131.397 L106.547 131.397 L106.547 153.92 L111.478 153.92 L111.478 157.809 L106.547 157.809 L106.547 165.957 L101.895 165.957 L101.895 157.809 L86.2929 157.809 L86.2929 153.295 L100.668 131.397 Z" fill="#000000" fill-rule="evenodd" fill-opacity="1" /><polyline clip-path="url(#clip572)" style="stroke:#009af9; stroke-linecap:butt; stroke-linejoin:round; stroke-width:4; stroke-opacity:1; fill:none" points="
  209.891,833.382 230.906,979.259 251.921,642.993 272.935,990.486 293.95,984.744 314.965,1024.88 335.979,717.085 356.994,912.248 378.009,519.461 399.023,751.148 
  420.038,998.55 441.053,957.377 462.067,1019.17 483.082,497.391 504.097,929.4 525.111,1030.28 546.126,868.655 567.141,1028.88 588.155,984.531 609.17,970.369 
  630.185,798.974 651.199,813.925 672.214,849.022 693.229,1017.4 714.243,1006.89 735.258,890.601 756.272,715.249 777.287,989.285 798.302,885.4 819.316,931.645 
  840.331,894.172 861.346,1000.4 882.36,1004.18 903.375,1018.89 924.39,1017.15 945.404,865.501 966.419,593.611 987.434,648.936 1008.45,465.609 1029.46,921.963 
  1050.48,991.695 1071.49,941.089 1092.51,1010.55 1113.52,832.664 1134.54,913.399 1155.55,255.953 1176.57,974.067 1197.58,1030.89 1218.59,1031.59 1239.61,1021.88 
  1260.62,609.337 1281.64,936.688 1302.65,1011.64 1323.67,1030.63 1344.68,623.046 1365.7,882.539 1386.71,830.048 1407.73,880.257 1428.74,1031.82 1449.76,1008.79 
  1470.77,726.04 1491.79,1022.99 1512.8,971.254 1533.81,875.275 1554.83,899.243 1575.84,927.516 1596.86,223.517 1617.87,745.174 1638.89,1031.82 1659.9,894.483 
  1680.92,889.955 1701.93,839.257 1722.95,1014.07 1743.96,832.608 1764.98,473.542 1785.99,1027.73 1807.01,990.18 1828.02,1031.66 1849.03,818.724 1870.05,940.782 
  1891.06,87.9763 1912.08,515.534 1933.09,797.198 1954.11,992.339 1975.12,1013.92 1996.14,921.451 2017.15,1021.81 2038.17,1030.89 2059.18,1025 2080.2,712.479 
  2101.21,923.02 2122.23,425.983 2143.24,982.562 2164.25,1030.73 2185.27,662.511 2206.28,822.418 2227.3,989.691 2248.31,956.206 2269.33,779.184 2290.34,944.014 
  
  "/>
<polyline clip-path="url(#clip572)" style="stroke:#e26f46; stroke-linecap:butt; stroke-linejoin:round; stroke-width:4; stroke-opacity:1; fill:none" points="
  209.891,822.509 230.906,924.094 251.921,1324.83 272.935,936.289 293.95,1133.79 314.965,992.654 335.979,1295.44 356.994,869.341 378.009,1368.17 399.023,782.889 
  420.038,1117.54 441.053,903.618 462.067,1084.69 483.082,688.321 504.097,1182.21 525.111,1013.33 546.126,1221.63 567.141,1006.3 588.155,929.639 609.17,915.34 
  630.185,1258.57 651.199,812.487 672.214,1232.73 693.229,975.381 714.243,1106.03 735.258,1208.41 756.272,767.448 777.287,1128.74 798.302,1211.63 819.316,1180.55 
  840.331,857.493 861.346,1115.12 882.36,1109.95 903.375,978.383 924.39,1088.76 945.404,840.196 966.419,1342.88 987.434,741.074 1008.45,1385.4 1029.46,876.082 
  1050.48,937.696 1071.49,1173.37 1092.51,1100.37 1113.52,822.13 1134.54,1193.53 1155.55,1445.72 1176.57,1144.76 1197.58,1046.23 1218.59,1039.11 1239.61,1078.7 
  1260.62,1337.25 1281.64,886.894 1302.65,1098.58 1323.67,1048.07 1344.68,1332.25 1365.7,1213.38 1386.71,820.758 1407.73,1214.76 1428.74,1032.7 1449.76,1103.14 
  1470.77,1291.66 1491.79,987.643 1512.8,916.182 1533.81,845.911 1554.83,1202.92 1575.84,880.069 1596.86,609.376 1617.87,1283.4 1638.89,1031 1659.9,1205.96 
  1680.92,854.843 1701.93,825.63 1722.95,1094.45 1743.96,822.101 1764.98,680.74 1785.99,1061.91 1807.01,935.935 1828.02,1025.68 1849.03,814.916 1870.05,1173.61 
  1891.06,575.329 1912.08,694.202 1933.09,1259.43 1954.11,938.455 1975.12,1094.7 1996.14,1187.94 2017.15,1078.86 2038.17,1046.24 2059.18,993 2080.2,766.294 
  2101.21,1186.82 2122.23,1397.56 2143.24,927.534 2164.25,1047.4 2185.27,1317.38 2206.28,1246.85 2227.3,935.374 2248.31,1161.04 2269.33,795.648 2290.34,1171.07 
  
  "/>
<path clip-path="url(#clip570)" d="
M1942.39 250.738 L2279.25 250.738 L2279.25 95.2176 L1942.39 95.2176  Z
  " fill="#ffffff" fill-rule="evenodd" fill-opacity="1"/>
<polyline clip-path="url(#clip570)" style="stroke:#000000; stroke-linecap:butt; stroke-linejoin:round; stroke-width:4; stroke-opacity:1; fill:none" points="
  1942.39,250.738 2279.25,250.738 2279.25,95.2176 1942.39,95.2176 1942.39,250.738 
  "/>
<polyline clip-path="url(#clip570)" style="stroke:#009af9; stroke-linecap:butt; stroke-linejoin:round; stroke-width:4; stroke-opacity:1; fill:none" points="
  1966.89,147.058 2113.91,147.058 
  "/>
<path clip-path="url(#clip570)" d="M2163.06 138.412 L2153.69 151.027 L2163.55 164.338 L2158.53 164.338 L2150.98 154.152 L2143.44 164.338 L2138.41 164.338 L2148.48 150.773 L2139.27 138.412 L2144.29 138.412 L2151.17 147.648 L2158.04 138.412 L2163.06 138.412 Z" fill="#000000" fill-rule="evenodd" fill-opacity="1" /><path clip-path="url(#clip570)" d="M2187.23 129.778 L2199.8 142.671 L2195.15 142.671 L2184.96 133.528 L2174.78 142.671 L2170.13 142.671 L2182.69 129.778 L2187.23 129.778 Z" fill="#000000" fill-rule="evenodd" fill-opacity="1" /><path clip-path="url(#clip570)" d="M2213.92 160.402 L2230.24 160.402 L2230.24 164.338 L2208.3 164.338 L2208.3 160.402 Q2210.96 157.648 2215.54 153.018 Q2220.15 148.365 2221.33 147.023 Q2223.57 144.5 2224.45 142.764 Q2225.36 141.004 2225.36 139.315 Q2225.36 136.56 2223.41 134.824 Q2221.49 133.088 2218.39 133.088 Q2216.19 133.088 2213.74 133.852 Q2211.31 134.615 2208.53 136.166 L2208.53 131.444 Q2211.35 130.31 2213.81 129.731 Q2216.26 129.153 2218.3 129.153 Q2223.67 129.153 2226.86 131.838 Q2230.06 134.523 2230.06 139.014 Q2230.06 141.143 2229.25 143.065 Q2228.46 144.963 2226.35 147.555 Q2225.77 148.227 2222.67 151.444 Q2219.57 154.639 2213.92 160.402 Z" fill="#000000" fill-rule="evenodd" fill-opacity="1" /><polyline clip-path="url(#clip570)" style="stroke:#e26f46; stroke-linecap:butt; stroke-linejoin:round; stroke-width:4; stroke-opacity:1; fill:none" points="
  1966.89,198.898 2113.91,198.898 
  "/>
<path clip-path="url(#clip570)" d="M2163.06 190.252 L2153.69 202.867 L2163.55 216.178 L2158.53 216.178 L2150.98 205.992 L2143.44 216.178 L2138.41 216.178 L2148.48 202.613 L2139.27 190.252 L2144.29 190.252 L2151.17 199.488 L2158.04 190.252 L2163.06 190.252 Z" fill="#000000" fill-rule="evenodd" fill-opacity="1" /></svg>
