<?xml version="1.0" encoding="utf-8"?>
<svg xmlns="http://www.w3.org/2000/svg" xmlns:xlink="http://www.w3.org/1999/xlink" width="600" height="400" viewBox="0 0 2400 1600">
<defs>
  <clipPath id="clip390">
    <rect x="0" y="0" width="2400" height="1600"/>
  </clipPath>
</defs>
<path clip-path="url(#clip390)" d="
M0 1600 L2400 1600 L2400 0 L0 0  Z
  " fill="#ffffff" fill-rule="evenodd" fill-opacity="1"/>
<defs>
  <clipPath id="clip391">
    <rect x="480" y="0" width="1681" height="1600"/>
  </clipPath>
</defs>
<path clip-path="url(#clip390)" d="
M112.177 1486.45 L2352.76 1486.45 L2352.76 47.2441 L112.177 47.2441  Z
  " fill="#ffffff" fill-rule="evenodd" fill-opacity="1"/>
<defs>
  <clipPath id="clip392">
    <rect x="112" y="47" width="2242" height="1440"/>
  </clipPath>
</defs>
<polyline clip-path="url(#clip392)" style="stroke:#000000; stroke-linecap:butt; stroke-linejoin:round; stroke-width:2; stroke-opacity:0.1; fill:none" points="
  410.451,1486.45 410.451,47.2441 
  "/>
<polyline clip-path="url(#clip392)" style="stroke:#000000; stroke-linecap:butt; stroke-linejoin:round; stroke-width:2; stroke-opacity:0.1; fill:none" points="
  880.174,1486.45 880.174,47.2441 
  "/>
<polyline clip-path="url(#clip392)" style="stroke:#000000; stroke-linecap:butt; stroke-linejoin:round; stroke-width:2; stroke-opacity:0.1; fill:none" points="
  1349.9,1486.45 1349.9,47.2441 
  "/>
<polyline clip-path="url(#clip392)" style="stroke:#000000; stroke-linecap:butt; stroke-linejoin:round; stroke-width:2; stroke-opacity:0.1; fill:none" points="
  1819.62,1486.45 1819.62,47.2441 
  "/>
<polyline clip-path="url(#clip392)" style="stroke:#000000; stroke-linecap:butt; stroke-linejoin:round; stroke-width:2; stroke-opacity:0.1; fill:none" points="
  2289.34,1486.45 2289.34,47.2441 
  "/>
<polyline clip-path="url(#clip390)" style="stroke:#000000; stroke-linecap:butt; stroke-linejoin:round; stroke-width:4; stroke-opacity:1; fill:none" points="
  112.177,1486.45 2352.76,1486.45 
  "/>
<polyline clip-path="url(#clip390)" style="stroke:#000000; stroke-linecap:butt; stroke-linejoin:round; stroke-width:4; stroke-opacity:1; fill:none" points="
  410.451,1486.45 410.451,1467.55 
  "/>
<polyline clip-path="url(#clip390)" style="stroke:#000000; stroke-linecap:butt; stroke-linejoin:round; stroke-width:4; stroke-opacity:1; fill:none" points="
  880.174,1486.45 880.174,1467.55 
  "/>
<polyline clip-path="url(#clip390)" style="stroke:#000000; stroke-linecap:butt; stroke-linejoin:round; stroke-width:4; stroke-opacity:1; fill:none" points="
  1349.9,1486.45 1349.9,1467.55 
  "/>
<polyline clip-path="url(#clip390)" style="stroke:#000000; stroke-linecap:butt; stroke-linejoin:round; stroke-width:4; stroke-opacity:1; fill:none" points="
  1819.62,1486.45 1819.62,1467.55 
  "/>
<polyline clip-path="url(#clip390)" style="stroke:#000000; stroke-linecap:butt; stroke-linejoin:round; stroke-width:4; stroke-opacity:1; fill:none" points="
  2289.34,1486.45 2289.34,1467.55 
  "/>
<path clip-path="url(#clip390)" d="M405.104 1543.18 L421.423 1543.18 L421.423 1547.12 L399.479 1547.12 L399.479 1543.18 Q402.141 1540.43 406.724 1535.8 Q411.331 1531.15 412.511 1529.81 Q414.757 1527.28 415.636 1525.55 Q416.539 1523.79 416.539 1522.1 Q416.539 1519.34 414.595 1517.61 Q412.673 1515.87 409.572 1515.87 Q407.373 1515.87 404.919 1516.63 Q402.488 1517.4 399.711 1518.95 L399.711 1514.23 Q402.535 1513.09 404.988 1512.51 Q407.442 1511.93 409.479 1511.93 Q414.849 1511.93 418.044 1514.62 Q421.238 1517.31 421.238 1521.8 Q421.238 1523.93 420.428 1525.85 Q419.641 1527.74 417.535 1530.34 Q416.956 1531.01 413.854 1534.23 Q410.752 1537.42 405.104 1543.18 Z" fill="#000000" fill-rule="evenodd" fill-opacity="1" /><path clip-path="url(#clip390)" d="M883.184 1516.63 L871.378 1535.08 L883.184 1535.08 L883.184 1516.63 M881.957 1512.56 L887.836 1512.56 L887.836 1535.08 L892.767 1535.08 L892.767 1538.97 L887.836 1538.97 L887.836 1547.12 L883.184 1547.12 L883.184 1538.97 L867.582 1538.97 L867.582 1534.46 L881.957 1512.56 Z" fill="#000000" fill-rule="evenodd" fill-opacity="1" /><path clip-path="url(#clip390)" d="M1350.3 1527.98 Q1347.15 1527.98 1345.3 1530.13 Q1343.47 1532.28 1343.47 1536.03 Q1343.47 1539.76 1345.3 1541.93 Q1347.15 1544.09 1350.3 1544.09 Q1353.45 1544.09 1355.28 1541.93 Q1357.13 1539.76 1357.13 1536.03 Q1357.13 1532.28 1355.28 1530.13 Q1353.45 1527.98 1350.3 1527.98 M1359.58 1513.32 L1359.58 1517.58 Q1357.83 1516.75 1356.02 1516.31 Q1354.24 1515.87 1352.48 1515.87 Q1347.85 1515.87 1345.4 1519 Q1342.96 1522.12 1342.62 1528.44 Q1343.98 1526.43 1346.04 1525.36 Q1348.1 1524.27 1350.58 1524.27 Q1355.79 1524.27 1358.8 1527.44 Q1361.83 1530.59 1361.83 1536.03 Q1361.83 1541.36 1358.68 1544.57 Q1355.53 1547.79 1350.3 1547.79 Q1344.31 1547.79 1341.14 1543.21 Q1337.96 1538.6 1337.96 1529.87 Q1337.96 1521.68 1341.85 1516.82 Q1345.74 1511.93 1352.29 1511.93 Q1354.05 1511.93 1355.83 1512.28 Q1357.64 1512.63 1359.58 1513.32 Z" fill="#000000" fill-rule="evenodd" fill-opacity="1" /><path clip-path="url(#clip390)" d="M1819.62 1530.71 Q1816.29 1530.71 1814.37 1532.49 Q1812.47 1534.27 1812.47 1537.4 Q1812.47 1540.52 1814.37 1542.31 Q1816.29 1544.09 1819.62 1544.09 Q1822.95 1544.09 1824.87 1542.31 Q1826.8 1540.5 1826.8 1537.4 Q1826.8 1534.27 1824.87 1532.49 Q1822.98 1530.71 1819.62 1530.71 M1814.94 1528.72 Q1811.94 1527.98 1810.25 1525.92 Q1808.58 1523.86 1808.58 1520.89 Q1808.58 1516.75 1811.52 1514.34 Q1814.48 1511.93 1819.62 1511.93 Q1824.78 1511.93 1827.72 1514.34 Q1830.66 1516.75 1830.66 1520.89 Q1830.66 1523.86 1828.97 1525.92 Q1827.31 1527.98 1824.32 1528.72 Q1827.7 1529.5 1829.57 1531.8 Q1831.47 1534.09 1831.47 1537.4 Q1831.47 1542.42 1828.39 1545.11 Q1825.34 1547.79 1819.62 1547.79 Q1813.9 1547.79 1810.82 1545.11 Q1807.77 1542.42 1807.77 1537.4 Q1807.77 1534.09 1809.67 1531.8 Q1811.56 1529.5 1814.94 1528.72 M1813.23 1521.33 Q1813.23 1524.02 1814.9 1525.52 Q1816.59 1527.03 1819.62 1527.03 Q1822.63 1527.03 1824.32 1525.52 Q1826.03 1524.02 1826.03 1521.33 Q1826.03 1518.65 1824.32 1517.14 Q1822.63 1515.64 1819.62 1515.64 Q1816.59 1515.64 1814.9 1517.14 Q1813.23 1518.65 1813.23 1521.33 Z" fill="#000000" fill-rule="evenodd" fill-opacity="1" /><path clip-path="url(#clip390)" d="M2264.03 1543.18 L2271.67 1543.18 L2271.67 1516.82 L2263.36 1518.49 L2263.36 1514.23 L2271.62 1512.56 L2276.3 1512.56 L2276.3 1543.18 L2283.94 1543.18 L2283.94 1547.12 L2264.03 1547.12 L2264.03 1543.18 Z" fill="#000000" fill-rule="evenodd" fill-opacity="1" /><path clip-path="url(#clip390)" d="M2303.38 1515.64 Q2299.77 1515.64 2297.94 1519.2 Q2296.14 1522.75 2296.14 1529.87 Q2296.14 1536.98 2297.94 1540.55 Q2299.77 1544.09 2303.38 1544.09 Q2307.02 1544.09 2308.82 1540.55 Q2310.65 1536.98 2310.65 1529.87 Q2310.65 1522.75 2308.82 1519.2 Q2307.02 1515.64 2303.38 1515.64 M2303.38 1511.93 Q2309.19 1511.93 2312.25 1516.54 Q2315.33 1521.12 2315.33 1529.87 Q2315.33 1538.6 2312.25 1543.21 Q2309.19 1547.79 2303.38 1547.79 Q2297.57 1547.79 2294.49 1543.21 Q2291.44 1538.6 2291.44 1529.87 Q2291.44 1521.12 2294.49 1516.54 Q2297.57 1511.93 2303.38 1511.93 Z" fill="#000000" fill-rule="evenodd" fill-opacity="1" /><polyline clip-path="url(#clip392)" style="stroke:#000000; stroke-linecap:butt; stroke-linejoin:round; stroke-width:2; stroke-opacity:0.1; fill:none" points="
  112.177,1448.1 2352.76,1448.1 
  "/>
<polyline clip-path="url(#clip392)" style="stroke:#000000; stroke-linecap:butt; stroke-linejoin:round; stroke-width:2; stroke-opacity:0.1; fill:none" points="
  112.177,1134.95 2352.76,1134.95 
  "/>
<polyline clip-path="url(#clip392)" style="stroke:#000000; stroke-linecap:butt; stroke-linejoin:round; stroke-width:2; stroke-opacity:0.1; fill:none" points="
  112.177,821.794 2352.76,821.794 
  "/>
<polyline clip-path="url(#clip392)" style="stroke:#000000; stroke-linecap:butt; stroke-linejoin:round; stroke-width:2; stroke-opacity:0.1; fill:none" points="
  112.177,508.643 2352.76,508.643 
  "/>
<polyline clip-path="url(#clip392)" style="stroke:#000000; stroke-linecap:butt; stroke-linejoin:round; stroke-width:2; stroke-opacity:0.1; fill:none" points="
  112.177,195.492 2352.76,195.492 
  "/>
<polyline clip-path="url(#clip390)" style="stroke:#000000; stroke-linecap:butt; stroke-linejoin:round; stroke-width:4; stroke-opacity:1; fill:none" points="
  112.177,1486.45 112.177,47.2441 
  "/>
<polyline clip-path="url(#clip390)" style="stroke:#000000; stroke-linecap:butt; stroke-linejoin:round; stroke-width:4; stroke-opacity:1; fill:none" points="
  112.177,1448.1 131.075,1448.1 
  "/>
<polyline clip-path="url(#clip390)" style="stroke:#000000; stroke-linecap:butt; stroke-linejoin:round; stroke-width:4; stroke-opacity:1; fill:none" points="
  112.177,1134.95 131.075,1134.95 
  "/>
<polyline clip-path="url(#clip390)" style="stroke:#000000; stroke-linecap:butt; stroke-linejoin:round; stroke-width:4; stroke-opacity:1; fill:none" points="
  112.177,821.794 131.075,821.794 
  "/>
<polyline clip-path="url(#clip390)" style="stroke:#000000; stroke-linecap:butt; stroke-linejoin:round; stroke-width:4; stroke-opacity:1; fill:none" points="
  112.177,508.643 131.075,508.643 
  "/>
<polyline clip-path="url(#clip390)" style="stroke:#000000; stroke-linecap:butt; stroke-linejoin:round; stroke-width:4; stroke-opacity:1; fill:none" points="
  112.177,195.492 131.075,195.492 
  "/>
<path clip-path="url(#clip390)" d="M64.2328 1433.89 Q60.6217 1433.89 58.793 1437.46 Q56.9875 1441 56.9875 1448.13 Q56.9875 1455.24 58.793 1458.8 Q60.6217 1462.34 64.2328 1462.34 Q67.867 1462.34 69.6726 1458.8 Q71.5013 1455.24 71.5013 1448.13 Q71.5013 1441 69.6726 1437.46 Q67.867 1433.89 64.2328 1433.89 M64.2328 1430.19 Q70.0429 1430.19 73.0985 1434.8 Q76.1772 1439.38 76.1772 1448.13 Q76.1772 1456.86 73.0985 1461.46 Q70.0429 1466.05 64.2328 1466.05 Q58.4226 1466.05 55.344 1461.46 Q52.2884 1456.86 52.2884 1448.13 Q52.2884 1439.38 55.344 1434.8 Q58.4226 1430.19 64.2328 1430.19 Z" fill="#000000" fill-rule="evenodd" fill-opacity="1" /><path clip-path="url(#clip390)" d="M56.2699 1148.29 L63.9087 1148.29 L63.9087 1121.92 L55.5986 1123.59 L55.5986 1119.33 L63.8624 1117.67 L68.5383 1117.67 L68.5383 1148.29 L76.1772 1148.29 L76.1772 1152.23 L56.2699 1152.23 L56.2699 1148.29 Z" fill="#000000" fill-rule="evenodd" fill-opacity="1" /><path clip-path="url(#clip390)" d="M59.8578 835.139 L76.1772 835.139 L76.1772 839.074 L54.2328 839.074 L54.2328 835.139 Q56.8949 832.384 61.4782 827.755 Q66.0846 823.102 67.2652 821.759 Q69.5105 819.236 70.3902 817.5 Q71.2929 815.741 71.2929 814.051 Q71.2929 811.296 69.3485 809.56 Q67.4272 807.824 64.3254 807.824 Q62.1263 807.824 59.6726 808.588 Q57.2421 809.352 54.4643 810.903 L54.4643 806.181 Q57.2884 805.046 59.7421 804.468 Q62.1958 803.889 64.2328 803.889 Q69.6031 803.889 72.7976 806.574 Q75.992 809.259 75.992 813.75 Q75.992 815.88 75.1818 817.801 Q74.3948 819.699 72.2883 822.292 Q71.7096 822.963 68.6078 826.181 Q65.5059 829.375 59.8578 835.139 Z" fill="#000000" fill-rule="evenodd" fill-opacity="1" /><path clip-path="url(#clip390)" d="M69.0476 507.289 Q72.404 508.006 74.279 510.275 Q76.1772 512.543 76.1772 515.877 Q76.1772 520.992 72.6587 523.793 Q69.1402 526.594 62.6587 526.594 Q60.4828 526.594 58.168 526.154 Q55.8764 525.738 53.4227 524.881 L53.4227 520.367 Q55.3671 521.502 57.6819 522.08 Q59.9967 522.659 62.5198 522.659 Q66.918 522.659 69.2096 520.923 Q71.5244 519.187 71.5244 515.877 Q71.5244 512.821 69.3717 511.108 Q67.242 509.372 63.4226 509.372 L59.3949 509.372 L59.3949 505.529 L63.6078 505.529 Q67.0569 505.529 68.8855 504.164 Q70.7142 502.775 70.7142 500.182 Q70.7142 497.52 68.8161 496.108 Q66.9411 494.673 63.4226 494.673 Q61.5013 494.673 59.3023 495.09 Q57.1032 495.506 54.4643 496.386 L54.4643 492.219 Q57.1264 491.479 59.4412 491.108 Q61.7791 490.738 63.8393 490.738 Q69.1633 490.738 72.2652 493.168 Q75.367 495.576 75.367 499.696 Q75.367 502.567 73.7235 504.557 Q72.08 506.525 69.0476 507.289 Z" fill="#000000" fill-rule="evenodd" fill-opacity="1" /><path clip-path="url(#clip390)" d="M66.5939 182.286 L54.7884 200.735 L66.5939 200.735 L66.5939 182.286 M65.367 178.212 L71.2466 178.212 L71.2466 200.735 L76.1772 200.735 L76.1772 204.624 L71.2466 204.624 L71.2466 212.772 L66.5939 212.772 L66.5939 204.624 L50.9921 204.624 L50.9921 200.11 L65.367 178.212 Z" fill="#000000" fill-rule="evenodd" fill-opacity="1" /><polyline clip-path="url(#clip392)" style="stroke:#009af9; stroke-linecap:butt; stroke-linejoin:round; stroke-width:4; stroke-opacity:1; fill:none" points="
  175.59,1020.72 410.451,1175.76 645.313,87.9763 880.174,1105.04 1115.04,1253.38 1349.9,896.843 1584.76,1385.03 1819.62,1221.35 2054.48,1342.69 2289.34,1445.72 
  
  "/>
<path clip-path="url(#clip390)" d="
M1976.69 198.898 L2278.07 198.898 L2278.07 95.2176 L1976.69 95.2176  Z
  " fill="#ffffff" fill-rule="evenodd" fill-opacity="1"/>
<polyline clip-path="url(#clip390)" style="stroke:#000000; stroke-linecap:butt; stroke-linejoin:round; stroke-width:4; stroke-opacity:1; fill:none" points="
  1976.69,198.898 2278.07,198.898 2278.07,95.2176 1976.69,95.2176 1976.69,198.898 
  "/>
<polyline clip-path="url(#clip390)" style="stroke:#009af9; stroke-linecap:butt; stroke-linejoin:round; stroke-width:4; stroke-opacity:1; fill:none" points="
  2001.58,147.058 2150.95,147.058 
  "/>
<path clip-path="url(#clip390)" d="M2189.69 166.745 Q2187.89 171.375 2186.17 172.787 Q2184.46 174.199 2181.59 174.199 L2178.19 174.199 L2178.19 170.634 L2180.69 170.634 Q2182.45 170.634 2183.42 169.8 Q2184.39 168.967 2185.57 165.865 L2186.34 163.921 L2175.85 138.412 L2180.36 138.412 L2188.46 158.689 L2196.57 138.412 L2201.08 138.412 L2189.69 166.745 Z" fill="#000000" fill-rule="evenodd" fill-opacity="1" /><path clip-path="url(#clip390)" d="M2208.37 160.402 L2216.01 160.402 L2216.01 134.037 L2207.7 135.703 L2207.7 131.444 L2215.96 129.778 L2220.64 129.778 L2220.64 160.402 L2228.28 160.402 L2228.28 164.338 L2208.37 164.338 L2208.37 160.402 Z" fill="#000000" fill-rule="evenodd" fill-opacity="1" /></svg>
