<?xml version="1.0" encoding="utf-8"?>
<svg xmlns="http://www.w3.org/2000/svg" xmlns:xlink="http://www.w3.org/1999/xlink" width="600" height="400" viewBox="0 0 2400 1600">
<defs>
  <clipPath id="clip090">
    <rect x="0" y="0" width="2400" height="1600"/>
  </clipPath>
</defs>
<path clip-path="url(#clip090)" d="
M0 1600 L2400 1600 L2400 0 L0 0  Z
  " fill="#ffffff" fill-rule="evenodd" fill-opacity="1"/>
<defs>
  <clipPath id="clip091">
    <rect x="480" y="0" width="1681" height="1600"/>
  </clipPath>
</defs>
<path clip-path="url(#clip090)" d="
M147.478 1486.45 L2352.76 1486.45 L2352.76 47.2441 L147.478 47.2441  Z
  " fill="#ffffff" fill-rule="evenodd" fill-opacity="1"/>
<defs>
  <clipPath id="clip092">
    <rect x="147" y="47" width="2206" height="1440"/>
  </clipPath>
</defs>
<polyline clip-path="url(#clip092)" style="stroke:#000000; stroke-linecap:butt; stroke-linejoin:round; stroke-width:2; stroke-opacity:0.1; fill:none" points="
  188.877,1486.45 188.877,47.2441 
  "/>
<polyline clip-path="url(#clip092)" style="stroke:#000000; stroke-linecap:butt; stroke-linejoin:round; stroke-width:2; stroke-opacity:0.1; fill:none" points="
  714.243,1486.45 714.243,47.2441 
  "/>
<polyline clip-path="url(#clip092)" style="stroke:#000000; stroke-linecap:butt; stroke-linejoin:round; stroke-width:2; stroke-opacity:0.1; fill:none" points="
  1239.61,1486.45 1239.61,47.2441 
  "/>
<polyline clip-path="url(#clip092)" style="stroke:#000000; stroke-linecap:butt; stroke-linejoin:round; stroke-width:2; stroke-opacity:0.1; fill:none" points="
  1764.98,1486.45 1764.98,47.2441 
  "/>
<polyline clip-path="url(#clip092)" style="stroke:#000000; stroke-linecap:butt; stroke-linejoin:round; stroke-width:2; stroke-opacity:0.1; fill:none" points="
  2290.34,1486.45 2290.34,47.2441 
  "/>
<polyline clip-path="url(#clip090)" style="stroke:#000000; stroke-linecap:butt; stroke-linejoin:round; stroke-width:4; stroke-opacity:1; fill:none" points="
  147.478,1486.45 2352.76,1486.45 
  "/>
<polyline clip-path="url(#clip090)" style="stroke:#000000; stroke-linecap:butt; stroke-linejoin:round; stroke-width:4; stroke-opacity:1; fill:none" points="
  188.877,1486.45 188.877,1467.55 
  "/>
<polyline clip-path="url(#clip090)" style="stroke:#000000; stroke-linecap:butt; stroke-linejoin:round; stroke-width:4; stroke-opacity:1; fill:none" points="
  714.243,1486.45 714.243,1467.55 
  "/>
<polyline clip-path="url(#clip090)" style="stroke:#000000; stroke-linecap:butt; stroke-linejoin:round; stroke-width:4; stroke-opacity:1; fill:none" points="
  1239.61,1486.45 1239.61,1467.55 
  "/>
<polyline clip-path="url(#clip090)" style="stroke:#000000; stroke-linecap:butt; stroke-linejoin:round; stroke-width:4; stroke-opacity:1; fill:none" points="
  1764.98,1486.45 1764.98,1467.55 
  "/>
<polyline clip-path="url(#clip090)" style="stroke:#000000; stroke-linecap:butt; stroke-linejoin:round; stroke-width:4; stroke-opacity:1; fill:none" points="
  2290.34,1486.45 2290.34,1467.55 
  "/>
<path clip-path="url(#clip090)" d="M188.877 1515.64 Q185.266 1515.64 183.437 1519.2 Q181.631 1522.75 181.631 1529.87 Q181.631 1536.98 183.437 1540.55 Q185.266 1544.09 188.877 1544.09 Q192.511 1544.09 194.317 1540.55 Q196.145 1536.98 196.145 1529.87 Q196.145 1522.75 194.317 1519.2 Q192.511 1515.64 188.877 1515.64 M188.877 1511.93 Q194.687 1511.93 197.742 1516.54 Q200.821 1521.12 200.821 1529.87 Q200.821 1538.6 197.742 1543.21 Q194.687 1547.79 188.877 1547.79 Q183.067 1547.79 179.988 1543.21 Q176.932 1538.6 176.932 1529.87 Q176.932 1521.12 179.988 1516.54 Q183.067 1511.93 188.877 1511.93 Z" fill="#000000" fill-rule="evenodd" fill-opacity="1" /><path clip-path="url(#clip090)" d="M693.514 1543.18 L709.833 1543.18 L709.833 1547.12 L687.889 1547.12 L687.889 1543.18 Q690.551 1540.43 695.134 1535.8 Q699.741 1531.15 700.921 1529.81 Q703.167 1527.28 704.046 1525.55 Q704.949 1523.79 704.949 1522.1 Q704.949 1519.34 703.005 1517.61 Q701.084 1515.87 697.982 1515.87 Q695.783 1515.87 693.329 1516.63 Q690.898 1517.4 688.121 1518.95 L688.121 1514.23 Q690.945 1513.09 693.398 1512.51 Q695.852 1511.93 697.889 1511.93 Q703.259 1511.93 706.454 1514.62 Q709.648 1517.31 709.648 1521.8 Q709.648 1523.93 708.838 1525.85 Q708.051 1527.74 705.945 1530.34 Q705.366 1531.01 702.264 1534.23 Q699.162 1537.42 693.514 1543.18 Z" fill="#000000" fill-rule="evenodd" fill-opacity="1" /><path clip-path="url(#clip090)" d="M719.695 1512.56 L738.051 1512.56 L738.051 1516.5 L723.977 1516.5 L723.977 1524.97 Q724.995 1524.62 726.014 1524.46 Q727.032 1524.27 728.051 1524.27 Q733.838 1524.27 737.218 1527.44 Q740.597 1530.62 740.597 1536.03 Q740.597 1541.61 737.125 1544.71 Q733.653 1547.79 727.333 1547.79 Q725.157 1547.79 722.889 1547.42 Q720.644 1547.05 718.236 1546.31 L718.236 1541.61 Q720.32 1542.74 722.542 1543.3 Q724.764 1543.86 727.241 1543.86 Q731.245 1543.86 733.583 1541.75 Q735.921 1539.64 735.921 1536.03 Q735.921 1532.42 733.583 1530.31 Q731.245 1528.21 727.241 1528.21 Q725.366 1528.21 723.491 1528.62 Q721.639 1529.04 719.695 1529.92 L719.695 1512.56 Z" fill="#000000" fill-rule="evenodd" fill-opacity="1" /><path clip-path="url(#clip090)" d="M1214.31 1512.56 L1232.67 1512.56 L1232.67 1516.5 L1218.59 1516.5 L1218.59 1524.97 Q1219.61 1524.62 1220.63 1524.46 Q1221.65 1524.27 1222.67 1524.27 Q1228.45 1524.27 1231.83 1527.44 Q1235.21 1530.62 1235.21 1536.03 Q1235.21 1541.61 1231.74 1544.71 Q1228.27 1547.79 1221.95 1547.79 Q1219.77 1547.79 1217.5 1547.42 Q1215.26 1547.05 1212.85 1546.31 L1212.85 1541.61 Q1214.93 1542.74 1217.16 1543.3 Q1219.38 1543.86 1221.86 1543.86 Q1225.86 1543.86 1228.2 1541.75 Q1230.54 1539.64 1230.54 1536.03 Q1230.54 1532.42 1228.2 1530.31 Q1225.86 1528.21 1221.86 1528.21 Q1219.98 1528.21 1218.11 1528.62 Q1216.25 1529.04 1214.31 1529.92 L1214.31 1512.56 Z" fill="#000000" fill-rule="evenodd" fill-opacity="1" /><path clip-path="url(#clip090)" d="M1254.42 1515.64 Q1250.81 1515.64 1248.98 1519.2 Q1247.18 1522.75 1247.18 1529.87 Q1247.18 1536.98 1248.98 1540.55 Q1250.81 1544.09 1254.42 1544.09 Q1258.06 1544.09 1259.86 1540.55 Q1261.69 1536.98 1261.69 1529.87 Q1261.69 1522.75 1259.86 1519.2 Q1258.06 1515.64 1254.42 1515.64 M1254.42 1511.93 Q1260.23 1511.93 1263.29 1516.54 Q1266.37 1521.12 1266.37 1529.87 Q1266.37 1538.6 1263.29 1543.21 Q1260.23 1547.79 1254.42 1547.79 Q1248.61 1547.79 1245.54 1543.21 Q1242.48 1538.6 1242.48 1529.87 Q1242.48 1521.12 1245.54 1516.54 Q1248.61 1511.93 1254.42 1511.93 Z" fill="#000000" fill-rule="evenodd" fill-opacity="1" /><path clip-path="url(#clip090)" d="M1738.83 1512.56 L1761.05 1512.56 L1761.05 1514.55 L1748.51 1547.12 L1743.62 1547.12 L1755.43 1516.5 L1738.83 1516.5 L1738.83 1512.56 Z" fill="#000000" fill-rule="evenodd" fill-opacity="1" /><path clip-path="url(#clip090)" d="M1770.22 1512.56 L1788.58 1512.56 L1788.58 1516.5 L1774.5 1516.5 L1774.5 1524.97 Q1775.52 1524.62 1776.54 1524.46 Q1777.56 1524.27 1778.58 1524.27 Q1784.36 1524.27 1787.74 1527.44 Q1791.12 1530.62 1791.12 1536.03 Q1791.12 1541.61 1787.65 1544.71 Q1784.18 1547.79 1777.86 1547.79 Q1775.68 1547.79 1773.41 1547.42 Q1771.17 1547.05 1768.76 1546.31 L1768.76 1541.61 Q1770.84 1542.74 1773.07 1543.3 Q1775.29 1543.86 1777.77 1543.86 Q1781.77 1543.86 1784.11 1541.75 Q1786.45 1539.64 1786.45 1536.03 Q1786.45 1532.42 1784.11 1530.31 Q1781.77 1528.21 1777.77 1528.21 Q1775.89 1528.21 1774.02 1528.62 Q1772.16 1529.04 1770.22 1529.92 L1770.22 1512.56 Z" fill="#000000" fill-rule="evenodd" fill-opacity="1" /><path clip-path="url(#clip090)" d="M2249.95 1543.18 L2257.59 1543.18 L2257.59 1516.82 L2249.28 1518.49 L2249.28 1514.23 L2257.54 1512.56 L2262.22 1512.56 L2262.22 1543.18 L2269.86 1543.18 L2269.86 1547.12 L2249.95 1547.12 L2249.95 1543.18 Z" fill="#000000" fill-rule="evenodd" fill-opacity="1" /><path clip-path="url(#clip090)" d="M2289.3 1515.64 Q2285.69 1515.64 2283.86 1519.2 Q2282.06 1522.75 2282.06 1529.87 Q2282.06 1536.98 2283.86 1540.55 Q2285.69 1544.09 2289.3 1544.09 Q2292.93 1544.09 2294.74 1540.55 Q2296.57 1536.98 2296.57 1529.87 Q2296.57 1522.75 2294.74 1519.2 Q2292.93 1515.64 2289.3 1515.64 M2289.3 1511.93 Q2295.11 1511.93 2298.17 1516.54 Q2301.25 1521.12 2301.25 1529.87 Q2301.25 1538.6 2298.17 1543.21 Q2295.11 1547.79 2289.3 1547.79 Q2283.49 1547.79 2280.41 1543.21 Q2277.36 1538.6 2277.36 1529.87 Q2277.36 1521.12 2280.41 1516.54 Q2283.49 1511.93 2289.3 1511.93 Z" fill="#000000" fill-rule="evenodd" fill-opacity="1" /><path clip-path="url(#clip090)" d="M2319.46 1515.64 Q2315.85 1515.64 2314.02 1519.2 Q2312.22 1522.75 2312.22 1529.87 Q2312.22 1536.98 2314.02 1540.55 Q2315.85 1544.09 2319.46 1544.09 Q2323.1 1544.09 2324.9 1540.55 Q2326.73 1536.98 2326.73 1529.87 Q2326.73 1522.75 2324.9 1519.2 Q2323.1 1515.64 2319.46 1515.64 M2319.46 1511.93 Q2325.27 1511.93 2328.33 1516.54 Q2331.41 1521.12 2331.41 1529.87 Q2331.41 1538.6 2328.33 1543.21 Q2325.27 1547.79 2319.46 1547.79 Q2313.65 1547.79 2310.57 1543.21 Q2307.52 1538.6 2307.52 1529.87 Q2307.52 1521.12 2310.57 1516.54 Q2313.65 1511.93 2319.46 1511.93 Z" fill="#000000" fill-rule="evenodd" fill-opacity="1" /><polyline clip-path="url(#clip092)" style="stroke:#000000; stroke-linecap:butt; stroke-linejoin:round; stroke-width:2; stroke-opacity:0.1; fill:none" points="
  147.478,1269.09 2352.76,1269.09 
  "/>
<polyline clip-path="url(#clip092)" style="stroke:#000000; stroke-linecap:butt; stroke-linejoin:round; stroke-width:2; stroke-opacity:0.1; fill:none" points="
  147.478,997.836 2352.76,997.836 
  "/>
<polyline clip-path="url(#clip092)" style="stroke:#000000; stroke-linecap:butt; stroke-linejoin:round; stroke-width:2; stroke-opacity:0.1; fill:none" points="
  147.478,726.578 2352.76,726.578 
  "/>
<polyline clip-path="url(#clip092)" style="stroke:#000000; stroke-linecap:butt; stroke-linejoin:round; stroke-width:2; stroke-opacity:0.1; fill:none" points="
  147.478,455.32 2352.76,455.32 
  "/>
<polyline clip-path="url(#clip092)" style="stroke:#000000; stroke-linecap:butt; stroke-linejoin:round; stroke-width:2; stroke-opacity:0.1; fill:none" points="
  147.478,184.062 2352.76,184.062 
  "/>
<polyline clip-path="url(#clip090)" style="stroke:#000000; stroke-linecap:butt; stroke-linejoin:round; stroke-width:4; stroke-opacity:1; fill:none" points="
  147.478,1486.45 147.478,47.2441 
  "/>
<polyline clip-path="url(#clip090)" style="stroke:#000000; stroke-linecap:butt; stroke-linejoin:round; stroke-width:4; stroke-opacity:1; fill:none" points="
  147.478,1269.09 166.376,1269.09 
  "/>
<polyline clip-path="url(#clip090)" style="stroke:#000000; stroke-linecap:butt; stroke-linejoin:round; stroke-width:4; stroke-opacity:1; fill:none" points="
  147.478,997.836 166.376,997.836 
  "/>
<polyline clip-path="url(#clip090)" style="stroke:#000000; stroke-linecap:butt; stroke-linejoin:round; stroke-width:4; stroke-opacity:1; fill:none" points="
  147.478,726.578 166.376,726.578 
  "/>
<polyline clip-path="url(#clip090)" style="stroke:#000000; stroke-linecap:butt; stroke-linejoin:round; stroke-width:4; stroke-opacity:1; fill:none" points="
  147.478,455.32 166.376,455.32 
  "/>
<polyline clip-path="url(#clip090)" style="stroke:#000000; stroke-linecap:butt; stroke-linejoin:round; stroke-width:4; stroke-opacity:1; fill:none" points="
  147.478,184.062 166.376,184.062 
  "/>
<path clip-path="url(#clip090)" d="M51.3625 1269.55 L81.0383 1269.55 L81.0383 1273.48 L51.3625 1273.48 L51.3625 1269.55 Z" fill="#000000" fill-rule="evenodd" fill-opacity="1" /><path clip-path="url(#clip090)" d="M95.1586 1282.44 L111.478 1282.44 L111.478 1286.37 L89.5336 1286.37 L89.5336 1282.44 Q92.1956 1279.68 96.7789 1275.06 Q101.385 1270.4 102.566 1269.06 Q104.811 1266.54 105.691 1264.8 Q106.594 1263.04 106.594 1261.35 Q106.594 1258.6 104.649 1256.86 Q102.728 1255.12 99.6261 1255.12 Q97.4271 1255.12 94.9734 1255.89 Q92.5428 1256.65 89.7651 1258.2 L89.7651 1253.48 Q92.5891 1252.35 95.0428 1251.77 Q97.4965 1251.19 99.5335 1251.19 Q104.904 1251.19 108.098 1253.87 Q111.293 1256.56 111.293 1261.05 Q111.293 1263.18 110.483 1265.1 Q109.696 1267 107.589 1269.59 Q107.01 1270.26 103.909 1273.48 Q100.807 1276.68 95.1586 1282.44 Z" fill="#000000" fill-rule="evenodd" fill-opacity="1" /><path clip-path="url(#clip090)" d="M50.9921 998.288 L80.6679 998.288 L80.6679 1002.22 L50.9921 1002.22 L50.9921 998.288 Z" fill="#000000" fill-rule="evenodd" fill-opacity="1" /><path clip-path="url(#clip090)" d="M91.5706 1011.18 L99.2095 1011.18 L99.2095 984.816 L90.8993 986.482 L90.8993 982.223 L99.1632 980.556 L103.839 980.556 L103.839 1011.18 L111.478 1011.18 L111.478 1015.12 L91.5706 1015.12 L91.5706 1011.18 Z" fill="#000000" fill-rule="evenodd" fill-opacity="1" /><path clip-path="url(#clip090)" d="M99.5335 712.377 Q95.9224 712.377 94.0937 715.942 Q92.2882 719.483 92.2882 726.613 Q92.2882 733.719 94.0937 737.284 Q95.9224 740.826 99.5335 740.826 Q103.168 740.826 104.973 737.284 Q106.802 733.719 106.802 726.613 Q106.802 719.483 104.973 715.942 Q103.168 712.377 99.5335 712.377 M99.5335 708.673 Q105.344 708.673 108.399 713.28 Q111.478 717.863 111.478 726.613 Q111.478 735.34 108.399 739.946 Q105.344 744.53 99.5335 744.53 Q93.7234 744.53 90.6447 739.946 Q87.5892 735.34 87.5892 726.613 Q87.5892 717.863 90.6447 713.28 Q93.7234 708.673 99.5335 708.673 Z" fill="#000000" fill-rule="evenodd" fill-opacity="1" /><path clip-path="url(#clip090)" d="M91.5706 468.665 L99.2095 468.665 L99.2095 442.299 L90.8993 443.966 L90.8993 439.707 L99.1632 438.04 L103.839 438.04 L103.839 468.665 L111.478 468.665 L111.478 472.6 L91.5706 472.6 L91.5706 468.665 Z" fill="#000000" fill-rule="evenodd" fill-opacity="1" /><path clip-path="url(#clip090)" d="M95.1586 197.407 L111.478 197.407 L111.478 201.342 L89.5336 201.342 L89.5336 197.407 Q92.1956 194.652 96.7789 190.023 Q101.385 185.37 102.566 184.027 Q104.811 181.504 105.691 179.768 Q106.594 178.009 106.594 176.319 Q106.594 173.564 104.649 171.828 Q102.728 170.092 99.6261 170.092 Q97.4271 170.092 94.9734 170.856 Q92.5428 171.62 89.7651 173.171 L89.7651 168.449 Q92.5891 167.314 95.0428 166.736 Q97.4965 166.157 99.5335 166.157 Q104.904 166.157 108.098 168.842 Q111.293 171.527 111.293 176.018 Q111.293 178.148 110.483 180.069 Q109.696 181.967 107.589 184.56 Q107.01 185.231 103.909 188.449 Q100.807 191.643 95.1586 197.407 Z" fill="#000000" fill-rule="evenodd" fill-opacity="1" /><polyline clip-path="url(#clip092)" style="stroke:#009af9; stroke-linecap:butt; stroke-linejoin:round; stroke-width:4; stroke-opacity:1; fill:none" points="
  209.891,655.404 230.906,878.107 251.921,507.547 272.935,535.207 293.95,995.967 314.965,780.093 335.979,394.824 356.994,752.483 378.009,855.258 399.023,340.946 
  420.038,514.683 441.053,863.002 462.067,759.451 483.082,821.256 504.097,1072.15 525.111,666.537 546.126,1012.5 567.141,916.374 588.155,564.618 609.17,855.678 
  630.185,764.409 651.199,315.362 672.214,478.409 693.229,743.198 714.243,464.024 735.258,1233.89 756.272,437.447 777.287,808.845 798.302,1140.42 819.316,769.187 
  840.331,784.157 861.346,573.297 882.36,576.23 903.375,514.083 924.39,405.631 945.404,1311.27 966.419,307.808 987.434,1009.49 1008.45,89.4899 1029.46,785.16 
  1050.48,912.737 1071.49,595.444 1092.51,591.298 1113.52,536.526 1134.54,925.64 1155.55,770.898 1176.57,688.048 1197.58,1020.7 1218.59,525.758 1239.61,992.034 
  1260.62,922.672 1281.64,1029.59 1302.65,1018.57 1323.67,419.188 1344.68,745.841 1365.7,828.866 1386.71,637.208 1407.73,281.116 1428.74,564.547 1449.76,693.239 
  1470.77,1120.76 1491.79,835.798 1512.8,721.17 1533.81,1121.66 1554.83,1092.22 1575.84,806.901 1596.86,477.048 1617.87,524.383 1638.89,797.961 1659.9,514.248 
  1680.92,488.295 1701.93,1064.82 1722.95,492.121 1743.96,932.643 1764.98,806.679 1785.99,750.598 1807.01,1287.04 1828.02,1007.53 1849.03,769.83 1870.05,1294.19 
  1891.06,695.107 1912.08,294.557 1933.09,807.346 1954.11,398.862 1975.12,385.615 1996.14,87.9763 2017.15,731.803 2038.17,1445.72 2059.18,484.258 2080.2,552.562 
  2101.21,269.628 2122.23,811.374 2143.24,531.926 2164.25,533.516 2185.27,1001.92 2206.28,969.534 2227.3,901.27 2248.31,488.553 2269.33,1121.45 2290.34,842.975 
  
  "/>
<path clip-path="url(#clip090)" d="
M1981.79 198.898 L2279.25 198.898 L2279.25 95.2176 L1981.79 95.2176  Z
  " fill="#ffffff" fill-rule="evenodd" fill-opacity="1"/>
<polyline clip-path="url(#clip090)" style="stroke:#000000; stroke-linecap:butt; stroke-linejoin:round; stroke-width:4; stroke-opacity:1; fill:none" points="
  1981.79,198.898 2279.25,198.898 2279.25,95.2176 1981.79,95.2176 1981.79,198.898 
  "/>
<polyline clip-path="url(#clip090)" style="stroke:#009af9; stroke-linecap:butt; stroke-linejoin:round; stroke-width:4; stroke-opacity:1; fill:none" points="
  2006.29,147.058 2153.31,147.058 
  "/>
<path clip-path="url(#clip090)" d="M2191.65 166.745 Q2189.85 171.375 2188.13 172.787 Q2186.42 174.199 2183.55 174.199 L2180.15 174.199 L2180.15 170.634 L2182.65 170.634 Q2184.41 170.634 2185.38 169.8 Q2186.35 168.967 2187.53 165.865 L2188.3 163.921 L2177.81 138.412 L2182.32 138.412 L2190.43 158.689 L2198.53 138.412 L2203.04 138.412 L2191.65 166.745 Z" fill="#000000" fill-rule="evenodd" fill-opacity="1" /><path clip-path="url(#clip090)" d="M2210.33 160.402 L2217.97 160.402 L2217.97 134.037 L2209.66 135.703 L2209.66 131.444 L2217.93 129.778 L2222.6 129.778 L2222.6 160.402 L2230.24 160.402 L2230.24 164.338 L2210.33 164.338 L2210.33 160.402 Z" fill="#000000" fill-rule="evenodd" fill-opacity="1" /></svg>
