<?xml version="1.0" encoding="utf-8"?>
<svg xmlns="http://www.w3.org/2000/svg" xmlns:xlink="http://www.w3.org/1999/xlink" width="600" height="400" viewBox="0 0 2400 1600">
<defs>
  <clipPath id="clip640">
    <rect x="0" y="0" width="2400" height="1600"/>
  </clipPath>
</defs>
<path clip-path="url(#clip640)" d="
M0 1600 L2400 1600 L2400 0 L0 0  Z
  " fill="#ffffff" fill-rule="evenodd" fill-opacity="1"/>
<defs>
  <clipPath id="clip641">
    <rect x="480" y="0" width="1681" height="1600"/>
  </clipPath>
</defs>
<path clip-path="url(#clip640)" d="
M192.941 1486.45 L2352.76 1486.45 L2352.76 47.2441 L192.941 47.2441  Z
  " fill="#ffffff" fill-rule="evenodd" fill-opacity="1"/>
<defs>
  <clipPath id="clip642">
    <rect x="192" y="47" width="2161" height="1440"/>
  </clipPath>
</defs>
<polyline clip-path="url(#clip642)" style="stroke:#000000; stroke-linecap:butt; stroke-linejoin:round; stroke-width:2; stroke-opacity:0.1; fill:none" points="
  243.88,1486.45 243.88,47.2441 
  "/>
<polyline clip-path="url(#clip642)" style="stroke:#000000; stroke-linecap:butt; stroke-linejoin:round; stroke-width:2; stroke-opacity:0.1; fill:none" points="
  753.27,1486.45 753.27,47.2441 
  "/>
<polyline clip-path="url(#clip642)" style="stroke:#000000; stroke-linecap:butt; stroke-linejoin:round; stroke-width:2; stroke-opacity:0.1; fill:none" points="
  1262.66,1486.45 1262.66,47.2441 
  "/>
<polyline clip-path="url(#clip642)" style="stroke:#000000; stroke-linecap:butt; stroke-linejoin:round; stroke-width:2; stroke-opacity:0.1; fill:none" points="
  1772.05,1486.45 1772.05,47.2441 
  "/>
<polyline clip-path="url(#clip642)" style="stroke:#000000; stroke-linecap:butt; stroke-linejoin:round; stroke-width:2; stroke-opacity:0.1; fill:none" points="
  2281.44,1486.45 2281.44,47.2441 
  "/>
<polyline clip-path="url(#clip640)" style="stroke:#000000; stroke-linecap:butt; stroke-linejoin:round; stroke-width:4; stroke-opacity:1; fill:none" points="
  192.941,1486.45 2352.76,1486.45 
  "/>
<polyline clip-path="url(#clip640)" style="stroke:#000000; stroke-linecap:butt; stroke-linejoin:round; stroke-width:4; stroke-opacity:1; fill:none" points="
  243.88,1486.45 243.88,1467.55 
  "/>
<polyline clip-path="url(#clip640)" style="stroke:#000000; stroke-linecap:butt; stroke-linejoin:round; stroke-width:4; stroke-opacity:1; fill:none" points="
  753.27,1486.45 753.27,1467.55 
  "/>
<polyline clip-path="url(#clip640)" style="stroke:#000000; stroke-linecap:butt; stroke-linejoin:round; stroke-width:4; stroke-opacity:1; fill:none" points="
  1262.66,1486.45 1262.66,1467.55 
  "/>
<polyline clip-path="url(#clip640)" style="stroke:#000000; stroke-linecap:butt; stroke-linejoin:round; stroke-width:4; stroke-opacity:1; fill:none" points="
  1772.05,1486.45 1772.05,1467.55 
  "/>
<polyline clip-path="url(#clip640)" style="stroke:#000000; stroke-linecap:butt; stroke-linejoin:round; stroke-width:4; stroke-opacity:1; fill:none" points="
  2281.44,1486.45 2281.44,1467.55 
  "/>
<path clip-path="url(#clip640)" d="M243.88 1517.37 Q240.269 1517.37 238.44 1520.93 Q236.634 1524.47 236.634 1531.6 Q236.634 1538.71 238.44 1542.27 Q240.269 1545.82 243.88 1545.82 Q247.514 1545.82 249.319 1542.27 Q251.148 1538.71 251.148 1531.6 Q251.148 1524.47 249.319 1520.93 Q247.514 1517.37 243.88 1517.37 M243.88 1513.66 Q249.69 1513.66 252.745 1518.27 Q255.824 1522.85 255.824 1531.6 Q255.824 1540.33 252.745 1544.94 Q249.69 1549.52 243.88 1549.52 Q238.07 1549.52 234.991 1544.94 Q231.935 1540.33 231.935 1531.6 Q231.935 1522.85 234.991 1518.27 Q238.07 1513.66 243.88 1513.66 Z" fill="#000000" fill-rule="evenodd" fill-opacity="1" /><path clip-path="url(#clip640)" d="M727.969 1514.29 L746.326 1514.29 L746.326 1518.22 L732.252 1518.22 L732.252 1526.7 Q733.27 1526.35 734.289 1526.19 Q735.307 1526 736.326 1526 Q742.113 1526 745.492 1529.17 Q748.872 1532.34 748.872 1537.76 Q748.872 1543.34 745.4 1546.44 Q741.928 1549.52 735.608 1549.52 Q733.432 1549.52 731.164 1549.15 Q728.918 1548.78 726.511 1548.04 L726.511 1543.34 Q728.594 1544.47 730.816 1545.03 Q733.039 1545.58 735.516 1545.58 Q739.52 1545.58 741.858 1543.48 Q744.196 1541.37 744.196 1537.76 Q744.196 1534.15 741.858 1532.04 Q739.52 1529.94 735.516 1529.94 Q733.641 1529.94 731.766 1530.35 Q729.914 1530.77 727.969 1531.65 L727.969 1514.29 Z" fill="#000000" fill-rule="evenodd" fill-opacity="1" /><path clip-path="url(#clip640)" d="M768.085 1517.37 Q764.474 1517.37 762.645 1520.93 Q760.839 1524.47 760.839 1531.6 Q760.839 1538.71 762.645 1542.27 Q764.474 1545.82 768.085 1545.82 Q771.719 1545.82 773.525 1542.27 Q775.353 1538.71 775.353 1531.6 Q775.353 1524.47 773.525 1520.93 Q771.719 1517.37 768.085 1517.37 M768.085 1513.66 Q773.895 1513.66 776.95 1518.27 Q780.029 1522.85 780.029 1531.6 Q780.029 1540.33 776.95 1544.94 Q773.895 1549.52 768.085 1549.52 Q762.275 1549.52 759.196 1544.94 Q756.14 1540.33 756.14 1531.6 Q756.14 1522.85 759.196 1518.27 Q762.275 1513.66 768.085 1513.66 Z" fill="#000000" fill-rule="evenodd" fill-opacity="1" /><path clip-path="url(#clip640)" d="M1222.27 1544.91 L1229.91 1544.91 L1229.91 1518.55 L1221.6 1520.21 L1221.6 1515.95 L1229.86 1514.29 L1234.54 1514.29 L1234.54 1544.91 L1242.17 1544.91 L1242.17 1548.85 L1222.27 1548.85 L1222.27 1544.91 Z" fill="#000000" fill-rule="evenodd" fill-opacity="1" /><path clip-path="url(#clip640)" d="M1261.62 1517.37 Q1258.01 1517.37 1256.18 1520.93 Q1254.37 1524.47 1254.37 1531.6 Q1254.37 1538.71 1256.18 1542.27 Q1258.01 1545.82 1261.62 1545.82 Q1265.25 1545.82 1267.06 1542.27 Q1268.89 1538.71 1268.89 1531.6 Q1268.89 1524.47 1267.06 1520.93 Q1265.25 1517.37 1261.62 1517.37 M1261.62 1513.66 Q1267.43 1513.66 1270.48 1518.27 Q1273.56 1522.85 1273.56 1531.6 Q1273.56 1540.33 1270.48 1544.94 Q1267.43 1549.52 1261.62 1549.52 Q1255.81 1549.52 1252.73 1544.94 Q1249.67 1540.33 1249.67 1531.6 Q1249.67 1522.85 1252.73 1518.27 Q1255.81 1513.66 1261.62 1513.66 Z" fill="#000000" fill-rule="evenodd" fill-opacity="1" /><path clip-path="url(#clip640)" d="M1291.78 1517.37 Q1288.17 1517.37 1286.34 1520.93 Q1284.54 1524.47 1284.54 1531.6 Q1284.54 1538.71 1286.34 1542.27 Q1288.17 1545.82 1291.78 1545.82 Q1295.41 1545.82 1297.22 1542.27 Q1299.05 1538.71 1299.05 1531.6 Q1299.05 1524.47 1297.22 1520.93 Q1295.41 1517.37 1291.78 1517.37 M1291.78 1513.66 Q1297.59 1513.66 1300.65 1518.27 Q1303.73 1522.85 1303.73 1531.6 Q1303.73 1540.33 1300.65 1544.94 Q1297.59 1549.52 1291.78 1549.52 Q1285.97 1549.52 1282.89 1544.94 Q1279.84 1540.33 1279.84 1531.6 Q1279.84 1522.85 1282.89 1518.27 Q1285.97 1513.66 1291.78 1513.66 Z" fill="#000000" fill-rule="evenodd" fill-opacity="1" /><path clip-path="url(#clip640)" d="M1731.66 1544.91 L1739.3 1544.91 L1739.3 1518.55 L1730.99 1520.21 L1730.99 1515.95 L1739.25 1514.29 L1743.93 1514.29 L1743.93 1544.91 L1751.56 1544.91 L1751.56 1548.85 L1731.66 1548.85 L1731.66 1544.91 Z" fill="#000000" fill-rule="evenodd" fill-opacity="1" /><path clip-path="url(#clip640)" d="M1761.06 1514.29 L1779.41 1514.29 L1779.41 1518.22 L1765.34 1518.22 L1765.34 1526.7 Q1766.36 1526.35 1767.37 1526.19 Q1768.39 1526 1769.41 1526 Q1775.2 1526 1778.58 1529.17 Q1781.96 1532.34 1781.96 1537.76 Q1781.96 1543.34 1778.49 1546.44 Q1775.01 1549.52 1768.69 1549.52 Q1766.52 1549.52 1764.25 1549.15 Q1762 1548.78 1759.6 1548.04 L1759.6 1543.34 Q1761.68 1544.47 1763.9 1545.03 Q1766.12 1545.58 1768.6 1545.58 Q1772.61 1545.58 1774.94 1543.48 Q1777.28 1541.37 1777.28 1537.76 Q1777.28 1534.15 1774.94 1532.04 Q1772.61 1529.94 1768.6 1529.94 Q1766.73 1529.94 1764.85 1530.35 Q1763 1530.77 1761.06 1531.65 L1761.06 1514.29 Z" fill="#000000" fill-rule="evenodd" fill-opacity="1" /><path clip-path="url(#clip640)" d="M1801.17 1517.37 Q1797.56 1517.37 1795.73 1520.93 Q1793.93 1524.47 1793.93 1531.6 Q1793.93 1538.71 1795.73 1542.27 Q1797.56 1545.82 1801.17 1545.82 Q1804.81 1545.82 1806.61 1542.27 Q1808.44 1538.71 1808.44 1531.6 Q1808.44 1524.47 1806.61 1520.93 Q1804.81 1517.37 1801.17 1517.37 M1801.17 1513.66 Q1806.98 1513.66 1810.04 1518.27 Q1813.12 1522.85 1813.12 1531.6 Q1813.12 1540.33 1810.04 1544.94 Q1806.98 1549.52 1801.17 1549.52 Q1795.36 1549.52 1792.28 1544.94 Q1789.23 1540.33 1789.23 1531.6 Q1789.23 1522.85 1792.28 1518.27 Q1795.36 1513.66 1801.17 1513.66 Z" fill="#000000" fill-rule="evenodd" fill-opacity="1" /><path clip-path="url(#clip640)" d="M2245.13 1544.91 L2261.45 1544.91 L2261.45 1548.85 L2239.51 1548.85 L2239.51 1544.91 Q2242.17 1542.16 2246.75 1537.53 Q2251.36 1532.88 2252.54 1531.53 Q2254.79 1529.01 2255.67 1527.27 Q2256.57 1525.51 2256.57 1523.82 Q2256.57 1521.07 2254.62 1519.33 Q2252.7 1517.6 2249.6 1517.6 Q2247.4 1517.6 2244.95 1518.36 Q2242.52 1519.13 2239.74 1520.68 L2239.74 1515.95 Q2242.56 1514.82 2245.02 1514.24 Q2247.47 1513.66 2249.51 1513.66 Q2254.88 1513.66 2258.07 1516.35 Q2261.27 1519.03 2261.27 1523.52 Q2261.27 1525.65 2260.46 1527.57 Q2259.67 1529.47 2257.56 1532.07 Q2256.99 1532.74 2253.88 1535.95 Q2250.78 1539.15 2245.13 1544.91 Z" fill="#000000" fill-rule="evenodd" fill-opacity="1" /><path clip-path="url(#clip640)" d="M2281.27 1517.37 Q2277.66 1517.37 2275.83 1520.93 Q2274.02 1524.47 2274.02 1531.6 Q2274.02 1538.71 2275.83 1542.27 Q2277.66 1545.82 2281.27 1545.82 Q2284.9 1545.82 2286.71 1542.27 Q2288.54 1538.71 2288.54 1531.6 Q2288.54 1524.47 2286.71 1520.93 Q2284.9 1517.37 2281.27 1517.37 M2281.27 1513.66 Q2287.08 1513.66 2290.13 1518.27 Q2293.21 1522.85 2293.21 1531.6 Q2293.21 1540.33 2290.13 1544.94 Q2287.08 1549.52 2281.27 1549.52 Q2275.46 1549.52 2272.38 1544.94 Q2269.32 1540.33 2269.32 1531.6 Q2269.32 1522.85 2272.38 1518.27 Q2275.46 1513.66 2281.27 1513.66 Z" fill="#000000" fill-rule="evenodd" fill-opacity="1" /><path clip-path="url(#clip640)" d="M2311.43 1517.37 Q2307.82 1517.37 2305.99 1520.93 Q2304.18 1524.47 2304.18 1531.6 Q2304.18 1538.71 2305.99 1542.27 Q2307.82 1545.82 2311.43 1545.82 Q2315.06 1545.82 2316.87 1542.27 Q2318.7 1538.71 2318.7 1531.6 Q2318.7 1524.47 2316.87 1520.93 Q2315.06 1517.37 2311.43 1517.37 M2311.43 1513.66 Q2317.24 1513.66 2320.3 1518.27 Q2323.37 1522.85 2323.37 1531.6 Q2323.37 1540.33 2320.3 1544.94 Q2317.24 1549.52 2311.43 1549.52 Q2305.62 1549.52 2302.54 1544.94 Q2299.49 1540.33 2299.49 1531.6 Q2299.49 1522.85 2302.54 1518.27 Q2305.62 1513.66 2311.43 1513.66 Z" fill="#000000" fill-rule="evenodd" fill-opacity="1" /><polyline clip-path="url(#clip642)" style="stroke:#000000; stroke-linecap:butt; stroke-linejoin:round; stroke-width:2; stroke-opacity:0.1; fill:none" points="
  192.941,1344.98 2352.76,1344.98 
  "/>
<polyline clip-path="url(#clip642)" style="stroke:#000000; stroke-linecap:butt; stroke-linejoin:round; stroke-width:2; stroke-opacity:0.1; fill:none" points="
  192.941,1136.67 2352.76,1136.67 
  "/>
<polyline clip-path="url(#clip642)" style="stroke:#000000; stroke-linecap:butt; stroke-linejoin:round; stroke-width:2; stroke-opacity:0.1; fill:none" points="
  192.941,928.357 2352.76,928.357 
  "/>
<polyline clip-path="url(#clip642)" style="stroke:#000000; stroke-linecap:butt; stroke-linejoin:round; stroke-width:2; stroke-opacity:0.1; fill:none" points="
  192.941,720.045 2352.76,720.045 
  "/>
<polyline clip-path="url(#clip642)" style="stroke:#000000; stroke-linecap:butt; stroke-linejoin:round; stroke-width:2; stroke-opacity:0.1; fill:none" points="
  192.941,511.732 2352.76,511.732 
  "/>
<polyline clip-path="url(#clip642)" style="stroke:#000000; stroke-linecap:butt; stroke-linejoin:round; stroke-width:2; stroke-opacity:0.1; fill:none" points="
  192.941,303.42 2352.76,303.42 
  "/>
<polyline clip-path="url(#clip642)" style="stroke:#000000; stroke-linecap:butt; stroke-linejoin:round; stroke-width:2; stroke-opacity:0.1; fill:none" points="
  192.941,95.107 2352.76,95.107 
  "/>
<polyline clip-path="url(#clip640)" style="stroke:#000000; stroke-linecap:butt; stroke-linejoin:round; stroke-width:4; stroke-opacity:1; fill:none" points="
  192.941,1486.45 192.941,47.2441 
  "/>
<polyline clip-path="url(#clip640)" style="stroke:#000000; stroke-linecap:butt; stroke-linejoin:round; stroke-width:4; stroke-opacity:1; fill:none" points="
  192.941,1344.98 211.838,1344.98 
  "/>
<polyline clip-path="url(#clip640)" style="stroke:#000000; stroke-linecap:butt; stroke-linejoin:round; stroke-width:4; stroke-opacity:1; fill:none" points="
  192.941,1136.67 211.838,1136.67 
  "/>
<polyline clip-path="url(#clip640)" style="stroke:#000000; stroke-linecap:butt; stroke-linejoin:round; stroke-width:4; stroke-opacity:1; fill:none" points="
  192.941,928.357 211.838,928.357 
  "/>
<polyline clip-path="url(#clip640)" style="stroke:#000000; stroke-linecap:butt; stroke-linejoin:round; stroke-width:4; stroke-opacity:1; fill:none" points="
  192.941,720.045 211.838,720.045 
  "/>
<polyline clip-path="url(#clip640)" style="stroke:#000000; stroke-linecap:butt; stroke-linejoin:round; stroke-width:4; stroke-opacity:1; fill:none" points="
  192.941,511.732 211.838,511.732 
  "/>
<polyline clip-path="url(#clip640)" style="stroke:#000000; stroke-linecap:butt; stroke-linejoin:round; stroke-width:4; stroke-opacity:1; fill:none" points="
  192.941,303.42 211.838,303.42 
  "/>
<polyline clip-path="url(#clip640)" style="stroke:#000000; stroke-linecap:butt; stroke-linejoin:round; stroke-width:4; stroke-opacity:1; fill:none" points="
  192.941,95.107 211.838,95.107 
  "/>
<path clip-path="url(#clip640)" d="M50.9921 1345.43 L80.6679 1345.43 L80.6679 1349.37 L50.9921 1349.37 L50.9921 1345.43 Z" fill="#000000" fill-rule="evenodd" fill-opacity="1" /><path clip-path="url(#clip640)" d="M94.7882 1358.33 L111.108 1358.33 L111.108 1362.26 L89.1632 1362.26 L89.1632 1358.33 Q91.8252 1355.57 96.4085 1350.94 Q101.015 1346.29 102.196 1344.95 Q104.441 1342.42 105.321 1340.69 Q106.223 1338.93 106.223 1337.24 Q106.223 1334.49 104.279 1332.75 Q102.358 1331.01 99.2558 1331.01 Q97.0567 1331.01 94.603 1331.78 Q92.1725 1332.54 89.3947 1334.09 L89.3947 1329.37 Q92.2188 1328.24 94.6724 1327.66 Q97.1261 1327.08 99.1632 1327.08 Q104.534 1327.08 107.728 1329.76 Q110.922 1332.45 110.922 1336.94 Q110.922 1339.07 110.112 1340.99 Q109.325 1342.89 107.219 1345.48 Q106.64 1346.15 103.538 1349.37 Q100.436 1352.56 94.7882 1358.33 Z" fill="#000000" fill-rule="evenodd" fill-opacity="1" /><path clip-path="url(#clip640)" d="M120.922 1356.38 L125.807 1356.38 L125.807 1362.26 L120.922 1362.26 L120.922 1356.38 Z" fill="#000000" fill-rule="evenodd" fill-opacity="1" /><path clip-path="url(#clip640)" d="M136.038 1327.7 L154.394 1327.7 L154.394 1331.64 L140.32 1331.64 L140.32 1340.11 Q141.339 1339.76 142.357 1339.6 Q143.376 1339.42 144.394 1339.42 Q150.181 1339.42 153.561 1342.59 Q156.941 1345.76 156.941 1351.17 Q156.941 1356.75 153.468 1359.86 Q149.996 1362.93 143.677 1362.93 Q141.501 1362.93 139.232 1362.56 Q136.987 1362.19 134.58 1361.45 L134.58 1356.75 Q136.663 1357.89 138.885 1358.44 Q141.107 1359 143.584 1359 Q147.589 1359 149.927 1356.89 Q152.265 1354.79 152.265 1351.17 Q152.265 1347.56 149.927 1345.46 Q147.589 1343.35 143.584 1343.35 Q141.709 1343.35 139.834 1343.77 Q137.982 1344.18 136.038 1345.06 L136.038 1327.7 Z" fill="#000000" fill-rule="evenodd" fill-opacity="1" /><path clip-path="url(#clip640)" d="M99.765 1122.47 Q96.1539 1122.47 94.3252 1126.03 Q92.5197 1129.58 92.5197 1136.7 Q92.5197 1143.81 94.3252 1147.38 Q96.1539 1150.92 99.765 1150.92 Q103.399 1150.92 105.205 1147.38 Q107.033 1143.81 107.033 1136.7 Q107.033 1129.58 105.205 1126.03 Q103.399 1122.47 99.765 1122.47 M99.765 1118.77 Q105.575 1118.77 108.631 1123.37 Q111.709 1127.95 111.709 1136.7 Q111.709 1145.43 108.631 1150.04 Q105.575 1154.62 99.765 1154.62 Q93.9549 1154.62 90.8762 1150.04 Q87.8206 1145.43 87.8206 1136.7 Q87.8206 1127.95 90.8762 1123.37 Q93.9549 1118.77 99.765 1118.77 Z" fill="#000000" fill-rule="evenodd" fill-opacity="1" /><path clip-path="url(#clip640)" d="M119.927 1148.07 L124.811 1148.07 L124.811 1153.95 L119.927 1153.95 L119.927 1148.07 Z" fill="#000000" fill-rule="evenodd" fill-opacity="1" /><path clip-path="url(#clip640)" d="M144.996 1122.47 Q141.385 1122.47 139.556 1126.03 Q137.751 1129.58 137.751 1136.7 Q137.751 1143.81 139.556 1147.38 Q141.385 1150.92 144.996 1150.92 Q148.63 1150.92 150.436 1147.38 Q152.265 1143.81 152.265 1136.7 Q152.265 1129.58 150.436 1126.03 Q148.63 1122.47 144.996 1122.47 M144.996 1118.77 Q150.806 1118.77 153.862 1123.37 Q156.941 1127.95 156.941 1136.7 Q156.941 1145.43 153.862 1150.04 Q150.806 1154.62 144.996 1154.62 Q139.186 1154.62 136.107 1150.04 Q133.052 1145.43 133.052 1136.7 Q133.052 1127.95 136.107 1123.37 Q139.186 1118.77 144.996 1118.77 Z" fill="#000000" fill-rule="evenodd" fill-opacity="1" /><path clip-path="url(#clip640)" d="M94.7882 941.702 L111.108 941.702 L111.108 945.637 L89.1632 945.637 L89.1632 941.702 Q91.8252 938.948 96.4085 934.318 Q101.015 929.665 102.196 928.323 Q104.441 925.8 105.321 924.064 Q106.223 922.304 106.223 920.614 Q106.223 917.86 104.279 916.124 Q102.358 914.388 99.2558 914.388 Q97.0567 914.388 94.603 915.152 Q92.1725 915.915 89.3947 917.466 L89.3947 912.744 Q92.2188 911.61 94.6724 911.031 Q97.1261 910.453 99.1632 910.453 Q104.534 910.453 107.728 913.138 Q110.922 915.823 110.922 920.314 Q110.922 922.443 110.112 924.364 Q109.325 926.263 107.219 928.855 Q106.64 929.526 103.538 932.744 Q100.436 935.938 94.7882 941.702 Z" fill="#000000" fill-rule="evenodd" fill-opacity="1" /><path clip-path="url(#clip640)" d="M120.922 939.758 L125.807 939.758 L125.807 945.637 L120.922 945.637 L120.922 939.758 Z" fill="#000000" fill-rule="evenodd" fill-opacity="1" /><path clip-path="url(#clip640)" d="M136.038 911.077 L154.394 911.077 L154.394 915.013 L140.32 915.013 L140.32 923.485 Q141.339 923.138 142.357 922.976 Q143.376 922.79 144.394 922.79 Q150.181 922.79 153.561 925.962 Q156.941 929.133 156.941 934.55 Q156.941 940.128 153.468 943.23 Q149.996 946.309 143.677 946.309 Q141.501 946.309 139.232 945.938 Q136.987 945.568 134.58 944.827 L134.58 940.128 Q136.663 941.263 138.885 941.818 Q141.107 942.374 143.584 942.374 Q147.589 942.374 149.927 940.267 Q152.265 938.161 152.265 934.55 Q152.265 930.939 149.927 928.832 Q147.589 926.726 143.584 926.726 Q141.709 926.726 139.834 927.142 Q137.982 927.559 136.038 928.439 L136.038 911.077 Z" fill="#000000" fill-rule="evenodd" fill-opacity="1" /><path clip-path="url(#clip640)" d="M89.8114 702.765 L108.168 702.765 L108.168 706.7 L94.0937 706.7 L94.0937 715.172 Q95.1123 714.825 96.1308 714.663 Q97.1493 714.478 98.1678 714.478 Q103.955 714.478 107.334 717.649 Q110.714 720.82 110.714 726.237 Q110.714 731.816 107.242 734.917 Q103.77 737.996 97.4502 737.996 Q95.2743 737.996 93.0058 737.626 Q90.7604 737.255 88.353 736.515 L88.353 731.816 Q90.4364 732.95 92.6586 733.505 Q94.8808 734.061 97.3576 734.061 Q101.362 734.061 103.7 731.955 Q106.038 729.848 106.038 726.237 Q106.038 722.626 103.7 720.519 Q101.362 718.413 97.3576 718.413 Q95.4826 718.413 93.6076 718.83 Q91.7558 719.246 89.8114 720.126 L89.8114 702.765 Z" fill="#000000" fill-rule="evenodd" fill-opacity="1" /><path clip-path="url(#clip640)" d="M119.927 731.445 L124.811 731.445 L124.811 737.325 L119.927 737.325 L119.927 731.445 Z" fill="#000000" fill-rule="evenodd" fill-opacity="1" /><path clip-path="url(#clip640)" d="M144.996 705.844 Q141.385 705.844 139.556 709.408 Q137.751 712.95 137.751 720.08 Q137.751 727.186 139.556 730.751 Q141.385 734.292 144.996 734.292 Q148.63 734.292 150.436 730.751 Q152.265 727.186 152.265 720.08 Q152.265 712.95 150.436 709.408 Q148.63 705.844 144.996 705.844 M144.996 702.14 Q150.806 702.14 153.862 706.746 Q156.941 711.33 156.941 720.08 Q156.941 728.806 153.862 733.413 Q150.806 737.996 144.996 737.996 Q139.186 737.996 136.107 733.413 Q133.052 728.806 133.052 720.08 Q133.052 711.33 136.107 706.746 Q139.186 702.14 144.996 702.14 Z" fill="#000000" fill-rule="evenodd" fill-opacity="1" /><path clip-path="url(#clip640)" d="M89.5799 494.452 L111.802 494.452 L111.802 496.443 L99.2558 529.012 L94.3715 529.012 L106.177 498.387 L89.5799 498.387 L89.5799 494.452 Z" fill="#000000" fill-rule="evenodd" fill-opacity="1" /><path clip-path="url(#clip640)" d="M120.922 523.133 L125.807 523.133 L125.807 529.012 L120.922 529.012 L120.922 523.133 Z" fill="#000000" fill-rule="evenodd" fill-opacity="1" /><path clip-path="url(#clip640)" d="M136.038 494.452 L154.394 494.452 L154.394 498.387 L140.32 498.387 L140.32 506.86 Q141.339 506.512 142.357 506.35 Q143.376 506.165 144.394 506.165 Q150.181 506.165 153.561 509.336 Q156.941 512.508 156.941 517.924 Q156.941 523.503 153.468 526.605 Q149.996 529.684 143.677 529.684 Q141.501 529.684 139.232 529.313 Q136.987 528.943 134.58 528.202 L134.58 523.503 Q136.663 524.637 138.885 525.193 Q141.107 525.748 143.584 525.748 Q147.589 525.748 149.927 523.642 Q152.265 521.535 152.265 517.924 Q152.265 514.313 149.927 512.207 Q147.589 510.1 143.584 510.1 Q141.709 510.1 139.834 510.517 Q137.982 510.934 136.038 511.813 L136.038 494.452 Z" fill="#000000" fill-rule="evenodd" fill-opacity="1" /><path clip-path="url(#clip640)" d="M60.4134 316.764 L68.0522 316.764 L68.0522 290.399 L59.7421 292.065 L59.7421 287.806 L68.0059 286.14 L72.6818 286.14 L72.6818 316.764 L80.3207 316.764 L80.3207 320.7 L60.4134 320.7 L60.4134 316.764 Z" fill="#000000" fill-rule="evenodd" fill-opacity="1" /><path clip-path="url(#clip640)" d="M99.765 289.218 Q96.1539 289.218 94.3252 292.783 Q92.5197 296.325 92.5197 303.454 Q92.5197 310.561 94.3252 314.126 Q96.1539 317.667 99.765 317.667 Q103.399 317.667 105.205 314.126 Q107.033 310.561 107.033 303.454 Q107.033 296.325 105.205 292.783 Q103.399 289.218 99.765 289.218 M99.765 285.515 Q105.575 285.515 108.631 290.121 Q111.709 294.704 111.709 303.454 Q111.709 312.181 108.631 316.788 Q105.575 321.371 99.765 321.371 Q93.9549 321.371 90.8762 316.788 Q87.8206 312.181 87.8206 303.454 Q87.8206 294.704 90.8762 290.121 Q93.9549 285.515 99.765 285.515 Z" fill="#000000" fill-rule="evenodd" fill-opacity="1" /><path clip-path="url(#clip640)" d="M119.927 314.82 L124.811 314.82 L124.811 320.7 L119.927 320.7 L119.927 314.82 Z" fill="#000000" fill-rule="evenodd" fill-opacity="1" /><path clip-path="url(#clip640)" d="M144.996 289.218 Q141.385 289.218 139.556 292.783 Q137.751 296.325 137.751 303.454 Q137.751 310.561 139.556 314.126 Q141.385 317.667 144.996 317.667 Q148.63 317.667 150.436 314.126 Q152.265 310.561 152.265 303.454 Q152.265 296.325 150.436 292.783 Q148.63 289.218 144.996 289.218 M144.996 285.515 Q150.806 285.515 153.862 290.121 Q156.941 294.704 156.941 303.454 Q156.941 312.181 153.862 316.788 Q150.806 321.371 144.996 321.371 Q139.186 321.371 136.107 316.788 Q133.052 312.181 133.052 303.454 Q133.052 294.704 136.107 290.121 Q139.186 285.515 144.996 285.515 Z" fill="#000000" fill-rule="evenodd" fill-opacity="1" /><path clip-path="url(#clip640)" d="M61.4087 108.452 L69.0476 108.452 L69.0476 82.0862 L60.7374 83.7529 L60.7374 79.4936 L69.0013 77.827 L73.6772 77.827 L73.6772 108.452 L81.316 108.452 L81.316 112.387 L61.4087 112.387 L61.4087 108.452 Z" fill="#000000" fill-rule="evenodd" fill-opacity="1" /><path clip-path="url(#clip640)" d="M94.7882 108.452 L111.108 108.452 L111.108 112.387 L89.1632 112.387 L89.1632 108.452 Q91.8252 105.697 96.4085 101.068 Q101.015 96.4148 102.196 95.0722 Q104.441 92.5491 105.321 90.813 Q106.223 89.0538 106.223 87.3639 Q106.223 84.6093 104.279 82.8732 Q102.358 81.1371 99.2558 81.1371 Q97.0567 81.1371 94.603 81.901 Q92.1725 82.6649 89.3947 84.2158 L89.3947 79.4936 Q92.2188 78.3594 94.6724 77.7807 Q97.1261 77.202 99.1632 77.202 Q104.534 77.202 107.728 79.8871 Q110.922 82.5723 110.922 87.063 Q110.922 89.1926 110.112 91.1139 Q109.325 93.0121 107.219 95.6046 Q106.64 96.2759 103.538 99.4935 Q100.436 102.688 94.7882 108.452 Z" fill="#000000" fill-rule="evenodd" fill-opacity="1" /><path clip-path="url(#clip640)" d="M120.922 106.507 L125.807 106.507 L125.807 112.387 L120.922 112.387 L120.922 106.507 Z" fill="#000000" fill-rule="evenodd" fill-opacity="1" /><path clip-path="url(#clip640)" d="M136.038 77.827 L154.394 77.827 L154.394 81.7621 L140.32 81.7621 L140.32 90.2343 Q141.339 89.8871 142.357 89.725 Q143.376 89.5399 144.394 89.5399 Q150.181 89.5399 153.561 92.7111 Q156.941 95.8824 156.941 101.299 Q156.941 106.878 153.468 109.98 Q149.996 113.058 143.677 113.058 Q141.501 113.058 139.232 112.688 Q136.987 112.318 134.58 111.577 L134.58 106.878 Q136.663 108.012 138.885 108.568 Q141.107 109.123 143.584 109.123 Q147.589 109.123 149.927 107.017 Q152.265 104.91 152.265 101.299 Q152.265 97.688 149.927 95.5815 Q147.589 93.475 143.584 93.475 Q141.709 93.475 139.834 93.8917 Q137.982 94.3084 136.038 95.188 L136.038 77.827 Z" fill="#000000" fill-rule="evenodd" fill-opacity="1" /><polyline clip-path="url(#clip642)" style="stroke:#009af9; stroke-linecap:butt; stroke-linejoin:round; stroke-width:4; stroke-opacity:1; fill:none" points="
  254.067,1136.67 264.255,1114.66 274.443,1106.82 284.631,1134.24 294.819,1132.26 305.007,1074.37 315.194,1229.38 325.382,1044.63 335.57,1189.86 345.758,1134.32 
  355.946,1035.81 366.133,1202.95 376.321,1172.41 386.509,1158.51 396.697,1169.58 406.885,1205.01 417.072,1127.27 427.26,956.163 437.448,923.508 447.636,1200.13 
  457.824,1189.98 468.011,1036.31 478.199,1112.22 488.387,1042.75 498.575,1101.96 508.763,1105.28 518.95,1182.22 529.138,1095.92 539.326,1247.63 549.514,1200.46 
  559.702,1169.66 569.89,1071.53 580.077,1225.6 590.265,1122.79 600.453,1237.65 610.641,1070.33 620.829,1051.48 631.016,993.328 641.204,1115.25 651.392,1021.49 
  661.58,1073.26 671.768,1204.02 681.955,1187.08 692.143,1057.73 702.331,1069.32 712.519,987.443 722.707,1090.2 732.894,1263.16 743.082,1146.46 753.27,1128.54 
  763.458,1139.13 773.646,1200.49 783.833,1252.99 794.021,1160.22 804.209,979.846 814.397,952.286 824.585,1110.35 834.773,947.719 844.96,1046.4 855.148,1143.41 
  865.336,1226.8 875.524,1179.03 885.712,912.393 895.899,1364.39 906.087,1288.71 916.275,1134.76 926.463,1224.03 936.651,1197.93 946.838,1235.75 957.026,1050.17 
  967.214,1181.15 977.402,1058.55 987.59,1073.3 997.777,1087.95 1007.97,1250.69 1018.15,1056.36 1028.34,1200.65 1038.53,1252.6 1048.72,1100.91 1058.9,1142.48 
  1069.09,1199.56 1079.28,1139.7 1089.47,1097.89 1099.66,1225.77 1109.84,1151.21 1120.03,1150.03 1130.22,1076.54 1140.41,1056.69 1150.59,1113.19 1160.78,1088.95 
  1170.97,1025.43 1181.16,1092.46 1191.35,1238.07 1201.53,1199.59 1211.72,1249.62 1221.91,1136.93 1232.1,1238.55 1242.28,1034.25 1252.47,1122.72 1262.66,1085.18 
  1272.85,1136.97 1283.04,1145.82 1293.22,1149.72 1303.41,1052.54 1313.6,1109.44 1323.79,1087.78 1333.98,1223.04 1344.16,1160.39 1354.35,1189.74 1364.54,1037.73 
  1374.73,1268.64 1384.91,1305.87 1395.1,1204.45 1405.29,1144.85 1415.48,1149.26 1425.67,1170.36 1435.85,1162.55 1446.04,1236.8 1456.23,1180.98 1466.42,1090.82 
  1476.6,1169.1 1486.79,1248.95 1496.98,1170.41 1507.17,1162.23 1517.36,1069.79 1527.54,1178.88 1537.73,1280.27 1547.92,1017.28 1558.11,1106.59 1568.29,1051.59 
  1578.48,1105.15 1588.67,1135.68 1598.86,1178.77 1609.05,1098.84 1619.23,922.448 1629.42,1169.45 1639.61,1264.11 1649.8,1093.78 1659.98,1094.33 1670.17,1107.6 
  1680.36,1094.82 1690.55,1223.75 1700.74,1110.45 1710.92,1363.89 1721.11,1143.13 1731.3,1249.83 1741.49,1130.33 1751.68,1267.95 1761.86,1242.77 1772.05,1140.06 
  1782.24,1156.38 1792.43,955.221 1802.61,1137.16 1812.8,1204.75 1822.99,1070.53 1833.18,1054.09 1843.37,968.203 1853.55,1235.62 1863.74,1141.79 1873.93,1154.19 
  1884.12,1351.41 1894.3,1119.32 1904.49,1118.25 1914.68,1129.04 1924.87,991.17 1935.06,1051.74 1945.24,1211.39 1955.43,1119.51 1965.62,1099.9 1975.81,1146.72 
  1985.99,1252.9 1996.18,1272.24 2006.37,1266.01 2016.56,1232.13 2026.75,1000.5 2036.93,1222.48 2047.12,1220.19 2057.31,1145.11 2067.5,1225.58 2077.69,1202.75 
  2087.87,1099.29 2098.06,1053.7 2108.25,1114.92 2118.44,1205.85 2128.62,1218.7 2138.81,1123.52 2149,1021.36 2159.19,1197.73 2169.38,1109.27 2179.56,1272.98 
  2189.75,1094.93 2199.94,988.981 2210.13,1150.81 2220.31,1154.56 2230.5,1178.56 2240.69,1126.12 2250.88,1165.72 2261.07,1131.5 2271.25,1009.04 2281.44,1142.26 
  2291.63,1095.68 
  "/>
<polyline clip-path="url(#clip642)" style="stroke:#e26f46; stroke-linecap:butt; stroke-linejoin:round; stroke-width:4; stroke-opacity:1; fill:none" points="
  254.067,1136.67 264.255,1096.23 274.443,1146.56 284.631,1017.25 294.819,1178.72 305.007,1087.45 315.194,991.489 325.382,871.159 335.57,928.952 345.758,909.885 
  355.946,977.65 366.133,1002.02 376.321,1115.95 386.509,1114.82 396.697,1185.18 406.885,1261.57 417.072,1128.85 427.26,1076.56 437.448,896.157 447.636,845.594 
  457.824,979.594 468.011,961.629 478.199,1088.18 488.387,1088.56 498.575,1034.86 508.763,1057.77 518.95,925.405 529.138,909.56 539.326,752.577 549.514,770.579 
  559.702,756.057 569.89,766.439 580.077,749.684 590.265,784.227 600.453,1030.48 610.641,935.882 620.829,959.11 631.016,1025.59 641.204,1171.75 651.392,1130.53 
  661.58,1050.79 671.768,1054.7 681.955,1060.37 692.143,1120.47 702.331,1085.05 712.519,1200.53 722.707,1182.12 732.894,1079.99 743.082,1192.24 753.27,1220.05 
  763.458,1235.34 773.646,1219.7 783.833,1105.93 794.021,1193.54 804.209,1080.21 814.397,982.782 824.585,1093.67 834.773,1034.35 844.96,897.359 855.148,946.71 
  865.336,1005.87 875.524,1068.37 885.712,1051.46 895.899,1147.88 906.087,1132.53 916.275,1104.27 926.463,1132.34 936.651,1148.35 946.838,1076.37 957.026,1039.44 
  967.214,1102.63 977.402,1193 987.59,1061.92 997.777,1137.32 1007.97,1026.86 1018.15,1064.27 1028.34,1062.25 1038.53,1145.88 1048.72,1223.24 1058.9,1265.13 
  1069.09,1039.23 1079.28,1034.97 1089.47,1089.36 1099.66,987.246 1109.84,1064.45 1120.03,1035.67 1130.22,1125.57 1140.41,1179.23 1150.59,1240.18 1160.78,1230.25 
  1170.97,1145.27 1181.16,1068.91 1191.35,1254.55 1201.53,1343.34 1211.72,1286.37 1221.91,1180.82 1232.1,1179.7 1242.28,1065.8 1252.47,958.734 1262.66,1052.39 
  1272.85,1065.64 1283.04,1018.05 1293.22,1158.81 1303.41,1226.46 1313.6,1212.58 1323.79,1081.59 1333.98,1270.95 1344.16,1197.67 1354.35,1212.58 1364.54,1225.12 
  1374.73,1100.69 1384.91,1240.89 1395.1,1305.71 1405.29,1336.19 1415.48,1241.13 1425.67,1362.74 1435.85,1292.57 1446.04,1263.1 1456.23,1344.23 1466.42,1343.34 
  1476.6,1442.51 1486.79,1311.35 1496.98,1333.81 1507.17,1237.88 1517.36,1302.65 1527.54,1255.38 1537.73,1260.86 1547.92,1213.65 1558.11,1269.01 1568.29,1081.66 
  1578.48,1113.05 1588.67,1245.82 1598.86,1026.22 1609.05,1202.3 1619.23,1191.68 1629.42,1145.4 1639.61,1262.77 1649.8,1355.91 1659.98,1349.7 1670.17,1384.56 
  1680.36,1445.72 1690.55,1389.03 1700.74,1430.95 1710.92,1302.32 1721.11,1222.04 1731.3,1037.97 1741.49,1002.08 1751.68,1046.55 1761.86,1091.93 1772.05,1060.78 
  1782.24,1105.56 1792.43,984.018 1802.61,997.869 1812.8,999.785 1822.99,1042.62 1833.18,968.166 1843.37,1014.28 1853.55,1065.41 1863.74,1095.39 1873.93,1168.04 
  1884.12,1106.5 1894.3,1059.92 1904.49,1050.16 1914.68,1092.25 1924.87,1081.1 1935.06,1138.79 1945.24,1147.93 1955.43,1200.46 1965.62,1324.5 1975.81,1318.38 
  1985.99,1421.77 1996.18,1419.68 2006.37,1264.07 2016.56,1108.64 2026.75,1026.07 2036.93,1029.97 2047.12,1195.31 2057.31,1176.8 2067.5,1115.61 2077.69,989.746 
  2087.87,1042.73 2098.06,1121.09 2108.25,1182.05 2118.44,1288.23 2128.62,1214.69 2138.81,1204.96 2149,1204.29 2159.19,1129.76 2169.38,1109.77 2179.56,1144.31 
  2189.75,1134.16 2199.94,1064.34 2210.13,1000.37 2220.31,1084.27 2230.5,989.743 2240.69,1020.68 2250.88,1058.07 2261.07,1060.88 2271.25,1104.77 2281.44,1071.06 
  2291.63,1131.66 
  "/>
<polyline clip-path="url(#clip642)" style="stroke:#3da44d; stroke-linecap:butt; stroke-linejoin:round; stroke-width:4; stroke-opacity:1; fill:none" points="
  254.067,1136.67 264.255,1252.6 274.443,1285.28 284.631,1170.78 294.819,1243.53 305.007,1136.64 315.194,1024.68 325.382,1051.14 335.57,942.113 345.758,877.265 
  355.946,883.006 366.133,789.877 376.321,767.174 386.509,685.901 396.697,727.728 406.885,640.759 417.072,536.664 427.26,651.449 437.448,543.121 447.636,656.977 
  457.824,781.773 468.011,847.677 478.199,769.361 488.387,719.724 498.575,711.873 508.763,728.13 518.95,680.77 529.138,843.604 539.326,710.889 549.514,695.179 
  559.702,562.045 569.89,579.829 580.077,464.528 590.265,497.491 600.453,465.808 610.641,560.412 620.829,463.209 631.016,403.352 641.204,452.25 651.392,472.43 
  661.58,584.671 671.768,618.795 681.955,776.739 692.143,758.036 702.331,771.968 712.519,782.807 722.707,771.399 732.894,676.76 743.082,760.547 753.27,847.064 
  763.458,819.399 773.646,771.65 783.833,781.918 794.021,755.199 804.209,701.578 814.397,905.053 824.585,999.644 834.773,1008.92 844.96,968.914 855.148,869.491 
  865.336,679.989 875.524,647.316 885.712,628.449 895.899,561.5 906.087,598.492 916.275,640.223 926.463,702.173 936.651,683.686 946.838,576.086 957.026,445.898 
  967.214,507.129 977.402,411.647 987.59,369.439 997.777,432.792 1007.97,397.938 1018.15,404.375 1028.34,436.578 1038.53,489.176 1048.72,546.97 1058.9,357.455 
  1069.09,483.023 1079.28,350.719 1089.47,562.955 1099.66,549.353 1109.84,589.139 1120.03,552.788 1130.22,416.871 1140.41,293.39 1150.59,247.048 1160.78,197.656 
  1170.97,212.154 1181.16,162.689 1191.35,105.523 1201.53,264.272 1211.72,250.625 1221.91,380.58 1232.1,390.558 1242.28,395.291 1252.47,465.187 1262.66,352.176 
  1272.85,303.379 1283.04,442.218 1293.22,372.222 1303.41,258.681 1313.6,301.857 1323.79,299.907 1333.98,297.235 1344.16,239.183 1354.35,358.929 1364.54,408.258 
  1374.73,481.456 1384.91,604.505 1395.1,441.655 1405.29,558.211 1415.48,596.489 1425.67,605.966 1435.85,709.409 1446.04,679.094 1456.23,644.35 1466.42,506.322 
  1476.6,529.478 1486.79,576.674 1496.98,578.581 1507.17,498.987 1517.36,536.369 1527.54,514.99 1537.73,409.418 1547.92,370.482 1558.11,552.834 1568.29,531.679 
  1578.48,602.481 1588.67,611.038 1598.86,512.03 1609.05,639.644 1619.23,512.397 1629.42,523.531 1639.61,352.829 1649.8,329.475 1659.98,380.248 1670.17,566.548 
  1680.36,552.967 1690.55,592.526 1700.74,537.301 1710.92,555.61 1721.11,499.14 1731.3,587.704 1741.49,746.439 1751.68,657.631 1761.86,642.488 1772.05,560.003 
  1782.24,476.081 1792.43,446.876 1802.61,460.648 1812.8,405.839 1822.99,300.897 1833.18,191.229 1843.37,269.793 1853.55,161.352 1863.74,161.538 1873.93,163.169 
  1884.12,203.823 1894.3,221.843 1904.49,110.196 1914.68,157.123 1924.87,87.9763 1935.06,153.526 1945.24,242.126 1955.43,279.597 1965.62,145.724 1975.81,168.086 
  1985.99,314.466 1996.18,316.844 2006.37,243.214 2016.56,336.665 2026.75,353.22 2036.93,232.156 2047.12,298.188 2057.31,257.878 2067.5,256.098 2077.69,335.84 
  2087.87,395.973 2098.06,490.456 2108.25,456.902 2118.44,457.481 2128.62,616.413 2138.81,659.802 2149,640.932 2159.19,721.7 2169.38,739.551 2179.56,729.698 
  2189.75,728.245 2199.94,839.01 2210.13,884.056 2220.31,949.304 2230.5,1059.22 2240.69,1053.92 2250.88,1068.47 2261.07,1159.79 2271.25,1351.7 2281.44,1318.38 
  2291.63,1406.76 
  "/>
<path clip-path="url(#clip640)" d="
M1740.04 302.578 L2280.76 302.578 L2280.76 95.2176 L1740.04 95.2176  Z
  " fill="#ffffff" fill-rule="evenodd" fill-opacity="1"/>
<polyline clip-path="url(#clip640)" style="stroke:#000000; stroke-linecap:butt; stroke-linejoin:round; stroke-width:4; stroke-opacity:1; fill:none" points="
  1740.04,302.578 2280.76,302.578 2280.76,95.2176 1740.04,95.2176 1740.04,302.578 
  "/>
<polyline clip-path="url(#clip640)" style="stroke:#009af9; stroke-linecap:butt; stroke-linejoin:round; stroke-width:4; stroke-opacity:1; fill:none" points="
  1764.04,147.058 1908.03,147.058 
  "/>
<path clip-path="url(#clip640)" d="M1945.43 151.305 Q1940.27 151.305 1938.28 152.486 Q1936.29 153.666 1936.29 156.514 Q1936.29 158.782 1937.77 160.125 Q1939.27 161.444 1941.84 161.444 Q1945.38 161.444 1947.51 158.944 Q1949.67 156.421 1949.67 152.254 L1949.67 151.305 L1945.43 151.305 M1953.93 149.546 L1953.93 164.338 L1949.67 164.338 L1949.67 160.402 Q1948.21 162.763 1946.03 163.898 Q1943.86 165.009 1940.71 165.009 Q1936.73 165.009 1934.36 162.787 Q1932.03 160.541 1932.03 156.791 Q1932.03 152.416 1934.94 150.194 Q1937.88 147.972 1943.69 147.972 L1949.67 147.972 L1949.67 147.555 Q1949.67 144.615 1947.72 143.018 Q1945.8 141.398 1942.3 141.398 Q1940.08 141.398 1937.98 141.93 Q1935.87 142.463 1933.93 143.527 L1933.93 139.592 Q1936.26 138.69 1938.46 138.25 Q1940.66 137.787 1942.74 137.787 Q1948.37 137.787 1951.15 140.703 Q1953.93 143.62 1953.93 149.546 Z" fill="#000000" fill-rule="evenodd" fill-opacity="1" /><path clip-path="url(#clip640)" d="M1962.7 128.319 L1966.96 128.319 L1966.96 164.338 L1962.7 164.338 L1962.7 128.319 Z" fill="#000000" fill-rule="evenodd" fill-opacity="1" /><path clip-path="url(#clip640)" d="M1979.99 160.449 L1979.99 174.199 L1975.71 174.199 L1975.71 138.412 L1979.99 138.412 L1979.99 142.347 Q1981.33 140.032 1983.37 138.921 Q1985.43 137.787 1988.28 137.787 Q1993 137.787 1995.94 141.537 Q1998.9 145.287 1998.9 151.398 Q1998.9 157.509 1995.94 161.259 Q1993 165.009 1988.28 165.009 Q1985.43 165.009 1983.37 163.898 Q1981.33 162.763 1979.99 160.449 M1994.48 151.398 Q1994.48 146.699 1992.54 144.037 Q1990.61 141.352 1987.24 141.352 Q1983.86 141.352 1981.91 144.037 Q1979.99 146.699 1979.99 151.398 Q1979.99 156.097 1981.91 158.782 Q1983.86 161.444 1987.24 161.444 Q1990.61 161.444 1992.54 158.782 Q1994.48 156.097 1994.48 151.398 Z" fill="#000000" fill-rule="evenodd" fill-opacity="1" /><path clip-path="url(#clip640)" d="M2027.51 148.689 L2027.51 164.338 L2023.25 164.338 L2023.25 148.828 Q2023.25 145.148 2021.82 143.319 Q2020.38 141.49 2017.51 141.49 Q2014.06 141.49 2012.07 143.69 Q2010.08 145.889 2010.08 149.685 L2010.08 164.338 L2005.8 164.338 L2005.8 128.319 L2010.08 128.319 L2010.08 142.44 Q2011.61 140.102 2013.67 138.944 Q2015.75 137.787 2018.46 137.787 Q2022.93 137.787 2025.22 140.565 Q2027.51 143.319 2027.51 148.689 Z" fill="#000000" fill-rule="evenodd" fill-opacity="1" /><path clip-path="url(#clip640)" d="M2047.79 151.305 Q2042.63 151.305 2040.64 152.486 Q2038.65 153.666 2038.65 156.514 Q2038.65 158.782 2040.13 160.125 Q2041.63 161.444 2044.2 161.444 Q2047.74 161.444 2049.87 158.944 Q2052.03 156.421 2052.03 152.254 L2052.03 151.305 L2047.79 151.305 M2056.29 149.546 L2056.29 164.338 L2052.03 164.338 L2052.03 160.402 Q2050.57 162.763 2048.39 163.898 Q2046.22 165.009 2043.07 165.009 Q2039.09 165.009 2036.73 162.787 Q2034.39 160.541 2034.39 156.791 Q2034.39 152.416 2037.3 150.194 Q2040.24 147.972 2046.05 147.972 L2052.03 147.972 L2052.03 147.555 Q2052.03 144.615 2050.08 143.018 Q2048.16 141.398 2044.67 141.398 Q2042.44 141.398 2040.34 141.93 Q2038.23 142.463 2036.29 143.527 L2036.29 139.592 Q2038.62 138.69 2040.82 138.25 Q2043.02 137.787 2045.11 137.787 Q2050.73 137.787 2053.51 140.703 Q2056.29 143.62 2056.29 149.546 Z" fill="#000000" fill-rule="evenodd" fill-opacity="1" /><path clip-path="url(#clip640)" d="M2080.68 142.81 L2110.36 142.81 L2110.36 146.699 L2080.68 146.699 L2080.68 142.81 M2080.68 152.254 L2110.36 152.254 L2110.36 156.189 L2080.68 156.189 L2080.68 152.254 Z" fill="#000000" fill-rule="evenodd" fill-opacity="1" /><path clip-path="url(#clip640)" d="M2145.52 132.856 Q2141.91 132.856 2140.08 136.421 Q2138.28 139.963 2138.28 147.092 Q2138.28 154.199 2140.08 157.764 Q2141.91 161.305 2145.52 161.305 Q2149.16 161.305 2150.96 157.764 Q2152.79 154.199 2152.79 147.092 Q2152.79 139.963 2150.96 136.421 Q2149.16 132.856 2145.52 132.856 M2145.52 129.153 Q2151.33 129.153 2154.39 133.759 Q2157.47 138.342 2157.47 147.092 Q2157.47 155.819 2154.39 160.426 Q2151.33 165.009 2145.52 165.009 Q2139.71 165.009 2136.63 160.426 Q2133.58 155.819 2133.58 147.092 Q2133.58 138.342 2136.63 133.759 Q2139.71 129.153 2145.52 129.153 Z" fill="#000000" fill-rule="evenodd" fill-opacity="1" /><path clip-path="url(#clip640)" d="M2165.68 158.458 L2170.57 158.458 L2170.57 164.338 L2165.68 164.338 L2165.68 158.458 Z" fill="#000000" fill-rule="evenodd" fill-opacity="1" /><path clip-path="url(#clip640)" d="M2190.75 132.856 Q2187.14 132.856 2185.31 136.421 Q2183.51 139.963 2183.51 147.092 Q2183.51 154.199 2185.31 157.764 Q2187.14 161.305 2190.75 161.305 Q2194.39 161.305 2196.19 157.764 Q2198.02 154.199 2198.02 147.092 Q2198.02 139.963 2196.19 136.421 Q2194.39 132.856 2190.75 132.856 M2190.75 129.153 Q2196.56 129.153 2199.62 133.759 Q2202.7 138.342 2202.7 147.092 Q2202.7 155.819 2199.62 160.426 Q2196.56 165.009 2190.75 165.009 Q2184.94 165.009 2181.86 160.426 Q2178.81 155.819 2178.81 147.092 Q2178.81 138.342 2181.86 133.759 Q2184.94 129.153 2190.75 129.153 Z" fill="#000000" fill-rule="evenodd" fill-opacity="1" /><polyline clip-path="url(#clip640)" style="stroke:#e26f46; stroke-linecap:butt; stroke-linejoin:round; stroke-width:4; stroke-opacity:1; fill:none" points="
  1764.04,198.898 1908.03,198.898 
  "/>
<path clip-path="url(#clip640)" d="M1945.43 203.145 Q1940.27 203.145 1938.28 204.326 Q1936.29 205.506 1936.29 208.354 Q1936.29 210.622 1937.77 211.965 Q1939.27 213.284 1941.84 213.284 Q1945.38 213.284 1947.51 210.784 Q1949.67 208.261 1949.67 204.094 L1949.67 203.145 L1945.43 203.145 M1953.93 201.386 L1953.93 216.178 L1949.67 216.178 L1949.67 212.242 Q1948.21 214.603 1946.03 215.738 Q1943.86 216.849 1940.71 216.849 Q1936.73 216.849 1934.36 214.627 Q1932.03 212.381 1932.03 208.631 Q1932.03 204.256 1934.94 202.034 Q1937.88 199.812 1943.69 199.812 L1949.67 199.812 L1949.67 199.395 Q1949.67 196.455 1947.72 194.858 Q1945.8 193.238 1942.3 193.238 Q1940.08 193.238 1937.98 193.77 Q1935.87 194.303 1933.93 195.367 L1933.93 191.432 Q1936.26 190.53 1938.46 190.09 Q1940.66 189.627 1942.74 189.627 Q1948.37 189.627 1951.15 192.543 Q1953.93 195.46 1953.93 201.386 Z" fill="#000000" fill-rule="evenodd" fill-opacity="1" /><path clip-path="url(#clip640)" d="M1962.7 180.159 L1966.96 180.159 L1966.96 216.178 L1962.7 216.178 L1962.7 180.159 Z" fill="#000000" fill-rule="evenodd" fill-opacity="1" /><path clip-path="url(#clip640)" d="M1979.99 212.289 L1979.99 226.039 L1975.71 226.039 L1975.71 190.252 L1979.99 190.252 L1979.99 194.187 Q1981.33 191.872 1983.37 190.761 Q1985.43 189.627 1988.28 189.627 Q1993 189.627 1995.94 193.377 Q1998.9 197.127 1998.9 203.238 Q1998.9 209.349 1995.94 213.099 Q1993 216.849 1988.28 216.849 Q1985.43 216.849 1983.37 215.738 Q1981.33 214.603 1979.99 212.289 M1994.48 203.238 Q1994.48 198.539 1992.54 195.877 Q1990.61 193.192 1987.24 193.192 Q1983.86 193.192 1981.91 195.877 Q1979.99 198.539 1979.99 203.238 Q1979.99 207.937 1981.91 210.622 Q1983.86 213.284 1987.24 213.284 Q1990.61 213.284 1992.54 210.622 Q1994.48 207.937 1994.48 203.238 Z" fill="#000000" fill-rule="evenodd" fill-opacity="1" /><path clip-path="url(#clip640)" d="M2027.51 200.529 L2027.51 216.178 L2023.25 216.178 L2023.25 200.668 Q2023.25 196.988 2021.82 195.159 Q2020.38 193.33 2017.51 193.33 Q2014.06 193.33 2012.07 195.53 Q2010.08 197.729 2010.08 201.525 L2010.08 216.178 L2005.8 216.178 L2005.8 180.159 L2010.08 180.159 L2010.08 194.28 Q2011.61 191.942 2013.67 190.784 Q2015.75 189.627 2018.46 189.627 Q2022.93 189.627 2025.22 192.405 Q2027.51 195.159 2027.51 200.529 Z" fill="#000000" fill-rule="evenodd" fill-opacity="1" /><path clip-path="url(#clip640)" d="M2047.79 203.145 Q2042.63 203.145 2040.64 204.326 Q2038.65 205.506 2038.65 208.354 Q2038.65 210.622 2040.13 211.965 Q2041.63 213.284 2044.2 213.284 Q2047.74 213.284 2049.87 210.784 Q2052.03 208.261 2052.03 204.094 L2052.03 203.145 L2047.79 203.145 M2056.29 201.386 L2056.29 216.178 L2052.03 216.178 L2052.03 212.242 Q2050.57 214.603 2048.39 215.738 Q2046.22 216.849 2043.07 216.849 Q2039.09 216.849 2036.73 214.627 Q2034.39 212.381 2034.39 208.631 Q2034.39 204.256 2037.3 202.034 Q2040.24 199.812 2046.05 199.812 L2052.03 199.812 L2052.03 199.395 Q2052.03 196.455 2050.08 194.858 Q2048.16 193.238 2044.67 193.238 Q2042.44 193.238 2040.34 193.77 Q2038.23 194.303 2036.29 195.367 L2036.29 191.432 Q2038.62 190.53 2040.82 190.09 Q2043.02 189.627 2045.11 189.627 Q2050.73 189.627 2053.51 192.543 Q2056.29 195.46 2056.29 201.386 Z" fill="#000000" fill-rule="evenodd" fill-opacity="1" /><path clip-path="url(#clip640)" d="M2080.68 194.65 L2110.36 194.65 L2110.36 198.539 L2080.68 198.539 L2080.68 194.65 M2080.68 204.094 L2110.36 204.094 L2110.36 208.029 L2080.68 208.029 L2080.68 204.094 Z" fill="#000000" fill-rule="evenodd" fill-opacity="1" /><path clip-path="url(#clip640)" d="M2145.52 184.696 Q2141.91 184.696 2140.08 188.261 Q2138.28 191.803 2138.28 198.932 Q2138.28 206.039 2140.08 209.604 Q2141.91 213.145 2145.52 213.145 Q2149.16 213.145 2150.96 209.604 Q2152.79 206.039 2152.79 198.932 Q2152.79 191.803 2150.96 188.261 Q2149.16 184.696 2145.52 184.696 M2145.52 180.993 Q2151.33 180.993 2154.39 185.599 Q2157.47 190.182 2157.47 198.932 Q2157.47 207.659 2154.39 212.266 Q2151.33 216.849 2145.52 216.849 Q2139.71 216.849 2136.63 212.266 Q2133.58 207.659 2133.58 198.932 Q2133.58 190.182 2136.63 185.599 Q2139.71 180.993 2145.52 180.993 Z" fill="#000000" fill-rule="evenodd" fill-opacity="1" /><path clip-path="url(#clip640)" d="M2165.68 210.298 L2170.57 210.298 L2170.57 216.178 L2165.68 216.178 L2165.68 210.298 Z" fill="#000000" fill-rule="evenodd" fill-opacity="1" /><path clip-path="url(#clip640)" d="M2190.75 199.766 Q2187.42 199.766 2185.5 201.548 Q2183.6 203.33 2183.6 206.455 Q2183.6 209.58 2185.5 211.363 Q2187.42 213.145 2190.75 213.145 Q2194.09 213.145 2196.01 211.363 Q2197.93 209.557 2197.93 206.455 Q2197.93 203.33 2196.01 201.548 Q2194.11 199.766 2190.75 199.766 M2186.08 197.775 Q2183.07 197.034 2181.38 194.974 Q2179.71 192.914 2179.71 189.951 Q2179.71 185.807 2182.65 183.4 Q2185.61 180.993 2190.75 180.993 Q2195.91 180.993 2198.85 183.4 Q2201.79 185.807 2201.79 189.951 Q2201.79 192.914 2200.1 194.974 Q2198.44 197.034 2195.45 197.775 Q2198.83 198.562 2200.71 200.854 Q2202.6 203.145 2202.6 206.455 Q2202.6 211.479 2199.53 214.164 Q2196.47 216.849 2190.75 216.849 Q2185.03 216.849 2181.96 214.164 Q2178.9 211.479 2178.9 206.455 Q2178.9 203.145 2180.8 200.854 Q2182.7 198.562 2186.08 197.775 M2184.36 190.391 Q2184.36 193.076 2186.03 194.58 Q2187.72 196.085 2190.75 196.085 Q2193.76 196.085 2195.45 194.58 Q2197.16 193.076 2197.16 190.391 Q2197.16 187.705 2195.45 186.201 Q2193.76 184.696 2190.75 184.696 Q2187.72 184.696 2186.03 186.201 Q2184.36 187.705 2184.36 190.391 Z" fill="#000000" fill-rule="evenodd" fill-opacity="1" /><polyline clip-path="url(#clip640)" style="stroke:#3da44d; stroke-linecap:butt; stroke-linejoin:round; stroke-width:4; stroke-opacity:1; fill:none" points="
  1764.04,250.738 1908.03,250.738 
  "/>
<path clip-path="url(#clip640)" d="M1945.43 254.985 Q1940.27 254.985 1938.28 256.166 Q1936.29 257.346 1936.29 260.194 Q1936.29 262.462 1937.77 263.805 Q1939.27 265.124 1941.84 265.124 Q1945.38 265.124 1947.51 262.624 Q1949.67 260.101 1949.67 255.934 L1949.67 254.985 L1945.43 254.985 M1953.93 253.226 L1953.93 268.018 L1949.67 268.018 L1949.67 264.082 Q1948.21 266.443 1946.03 267.578 Q1943.86 268.689 1940.71 268.689 Q1936.73 268.689 1934.36 266.467 Q1932.03 264.221 1932.03 260.471 Q1932.03 256.096 1934.94 253.874 Q1937.88 251.652 1943.69 251.652 L1949.67 251.652 L1949.67 251.235 Q1949.67 248.295 1947.72 246.698 Q1945.8 245.078 1942.3 245.078 Q1940.08 245.078 1937.98 245.61 Q1935.87 246.143 1933.93 247.207 L1933.93 243.272 Q1936.26 242.37 1938.46 241.93 Q1940.66 241.467 1942.74 241.467 Q1948.37 241.467 1951.15 244.383 Q1953.93 247.3 1953.93 253.226 Z" fill="#000000" fill-rule="evenodd" fill-opacity="1" /><path clip-path="url(#clip640)" d="M1962.7 231.999 L1966.96 231.999 L1966.96 268.018 L1962.7 268.018 L1962.7 231.999 Z" fill="#000000" fill-rule="evenodd" fill-opacity="1" /><path clip-path="url(#clip640)" d="M1979.99 264.129 L1979.99 277.879 L1975.71 277.879 L1975.71 242.092 L1979.99 242.092 L1979.99 246.027 Q1981.33 243.712 1983.37 242.601 Q1985.43 241.467 1988.28 241.467 Q1993 241.467 1995.94 245.217 Q1998.9 248.967 1998.9 255.078 Q1998.9 261.189 1995.94 264.939 Q1993 268.689 1988.28 268.689 Q1985.43 268.689 1983.37 267.578 Q1981.33 266.443 1979.99 264.129 M1994.48 255.078 Q1994.48 250.379 1992.54 247.717 Q1990.61 245.032 1987.24 245.032 Q1983.86 245.032 1981.91 247.717 Q1979.99 250.379 1979.99 255.078 Q1979.99 259.777 1981.91 262.462 Q1983.86 265.124 1987.24 265.124 Q1990.61 265.124 1992.54 262.462 Q1994.48 259.777 1994.48 255.078 Z" fill="#000000" fill-rule="evenodd" fill-opacity="1" /><path clip-path="url(#clip640)" d="M2027.51 252.369 L2027.51 268.018 L2023.25 268.018 L2023.25 252.508 Q2023.25 248.828 2021.82 246.999 Q2020.38 245.17 2017.51 245.17 Q2014.06 245.17 2012.07 247.37 Q2010.08 249.569 2010.08 253.365 L2010.08 268.018 L2005.8 268.018 L2005.8 231.999 L2010.08 231.999 L2010.08 246.12 Q2011.61 243.782 2013.67 242.624 Q2015.75 241.467 2018.46 241.467 Q2022.93 241.467 2025.22 244.245 Q2027.51 246.999 2027.51 252.369 Z" fill="#000000" fill-rule="evenodd" fill-opacity="1" /><path clip-path="url(#clip640)" d="M2047.79 254.985 Q2042.63 254.985 2040.64 256.166 Q2038.65 257.346 2038.65 260.194 Q2038.65 262.462 2040.13 263.805 Q2041.63 265.124 2044.2 265.124 Q2047.74 265.124 2049.87 262.624 Q2052.03 260.101 2052.03 255.934 L2052.03 254.985 L2047.79 254.985 M2056.29 253.226 L2056.29 268.018 L2052.03 268.018 L2052.03 264.082 Q2050.57 266.443 2048.39 267.578 Q2046.22 268.689 2043.07 268.689 Q2039.09 268.689 2036.73 266.467 Q2034.39 264.221 2034.39 260.471 Q2034.39 256.096 2037.3 253.874 Q2040.24 251.652 2046.05 251.652 L2052.03 251.652 L2052.03 251.235 Q2052.03 248.295 2050.08 246.698 Q2048.16 245.078 2044.67 245.078 Q2042.44 245.078 2040.34 245.61 Q2038.23 246.143 2036.29 247.207 L2036.29 243.272 Q2038.62 242.37 2040.82 241.93 Q2043.02 241.467 2045.11 241.467 Q2050.73 241.467 2053.51 244.383 Q2056.29 247.3 2056.29 253.226 Z" fill="#000000" fill-rule="evenodd" fill-opacity="1" /><path clip-path="url(#clip640)" d="M2080.68 246.49 L2110.36 246.49 L2110.36 250.379 L2080.68 250.379 L2080.68 246.49 M2080.68 255.934 L2110.36 255.934 L2110.36 259.869 L2080.68 259.869 L2080.68 255.934 Z" fill="#000000" fill-rule="evenodd" fill-opacity="1" /><path clip-path="url(#clip640)" d="M2145.52 236.536 Q2141.91 236.536 2140.08 240.101 Q2138.28 243.643 2138.28 250.772 Q2138.28 257.879 2140.08 261.444 Q2141.91 264.985 2145.52 264.985 Q2149.16 264.985 2150.96 261.444 Q2152.79 257.879 2152.79 250.772 Q2152.79 243.643 2150.96 240.101 Q2149.16 236.536 2145.52 236.536 M2145.52 232.833 Q2151.33 232.833 2154.39 237.439 Q2157.47 242.022 2157.47 250.772 Q2157.47 259.499 2154.39 264.106 Q2151.33 268.689 2145.52 268.689 Q2139.71 268.689 2136.63 264.106 Q2133.58 259.499 2133.58 250.772 Q2133.58 242.022 2136.63 237.439 Q2139.71 232.833 2145.52 232.833 Z" fill="#000000" fill-rule="evenodd" fill-opacity="1" /><path clip-path="url(#clip640)" d="M2165.68 262.138 L2170.57 262.138 L2170.57 268.018 L2165.68 268.018 L2165.68 262.138 Z" fill="#000000" fill-rule="evenodd" fill-opacity="1" /><path clip-path="url(#clip640)" d="M2180.89 267.3 L2180.89 263.041 Q2182.65 263.874 2184.46 264.314 Q2186.26 264.754 2188 264.754 Q2192.63 264.754 2195.06 261.652 Q2197.51 258.527 2197.86 252.184 Q2196.52 254.175 2194.46 255.24 Q2192.4 256.305 2189.9 256.305 Q2184.71 256.305 2181.68 253.18 Q2178.67 250.032 2178.67 244.592 Q2178.67 239.268 2181.82 236.05 Q2184.97 232.833 2190.2 232.833 Q2196.19 232.833 2199.34 237.439 Q2202.51 242.022 2202.51 250.772 Q2202.51 258.944 2198.62 263.828 Q2194.76 268.689 2188.21 268.689 Q2186.45 268.689 2184.64 268.342 Q2182.84 267.994 2180.89 267.3 M2190.2 252.647 Q2193.35 252.647 2195.17 250.494 Q2197.03 248.342 2197.03 244.592 Q2197.03 240.865 2195.17 238.712 Q2193.35 236.536 2190.2 236.536 Q2187.05 236.536 2185.2 238.712 Q2183.37 240.865 2183.37 244.592 Q2183.37 248.342 2185.2 250.494 Q2187.05 252.647 2190.2 252.647 Z" fill="#000000" fill-rule="evenodd" fill-opacity="1" /><path clip-path="url(#clip640)" d="M2220.91 251.606 Q2217.58 251.606 2215.66 253.388 Q2213.76 255.17 2213.76 258.295 Q2213.76 261.42 2215.66 263.203 Q2217.58 264.985 2220.91 264.985 Q2224.25 264.985 2226.17 263.203 Q2228.09 261.397 2228.09 258.295 Q2228.09 255.17 2226.17 253.388 Q2224.27 251.606 2220.91 251.606 M2216.24 249.615 Q2213.23 248.874 2211.54 246.814 Q2209.87 244.754 2209.87 241.791 Q2209.87 237.647 2212.81 235.24 Q2215.78 232.833 2220.91 232.833 Q2226.08 232.833 2229.02 235.24 Q2231.96 237.647 2231.96 241.791 Q2231.96 244.754 2230.27 246.814 Q2228.6 248.874 2225.61 249.615 Q2228.99 250.402 2230.87 252.694 Q2232.77 254.985 2232.77 258.295 Q2232.77 263.319 2229.69 266.004 Q2226.63 268.689 2220.91 268.689 Q2215.2 268.689 2212.12 266.004 Q2209.06 263.319 2209.06 258.295 Q2209.06 254.985 2210.96 252.694 Q2212.86 250.402 2216.24 249.615 M2214.53 242.231 Q2214.53 244.916 2216.19 246.42 Q2217.88 247.925 2220.91 247.925 Q2223.92 247.925 2225.61 246.42 Q2227.33 244.916 2227.33 242.231 Q2227.33 239.545 2225.61 238.041 Q2223.92 236.536 2220.91 236.536 Q2217.88 236.536 2216.19 238.041 Q2214.53 239.545 2214.53 242.231 Z" fill="#000000" fill-rule="evenodd" fill-opacity="1" /></svg>
