<?xml version="1.0" encoding="utf-8"?>
<svg xmlns="http://www.w3.org/2000/svg" xmlns:xlink="http://www.w3.org/1999/xlink" width="600" height="400" viewBox="0 0 2400 1600">
<defs>
  <clipPath id="clip140">
    <rect x="0" y="0" width="2400" height="1600"/>
  </clipPath>
</defs>
<path clip-path="url(#clip140)" d="
M0 1600 L2400 1600 L2400 0 L0 0  Z
  " fill="#ffffff" fill-rule="evenodd" fill-opacity="1"/>
<defs>
  <clipPath id="clip141">
    <rect x="480" y="0" width="1681" height="1600"/>
  </clipPath>
</defs>
<defs>
  <clipPath id="clip142">
    <rect x="271" y="47" width="2083" height="1355"/>
  </clipPath>
</defs>
<path clip-path="url(#clip140)" d="
M156.598 1401.58 L2352.76 1401.58 L2352.76 47.2441 L156.598 47.2441  Z
  " fill="#ffffff" fill-rule="evenodd" fill-opacity="1"/>
<defs>
  <clipPath id="clip143">
    <rect x="156" y="47" width="2197" height="1355"/>
  </clipPath>
</defs>
<polyline clip-path="url(#clip140)" style="stroke:#000000; stroke-linecap:round; stroke-linejoin:round; stroke-width:4; stroke-opacity:1; fill:none" points="
  156.598,1401.58 2352.76,1401.58 
  "/>
<polyline clip-path="url(#clip140)" style="stroke:#000000; stroke-linecap:round; stroke-linejoin:round; stroke-width:4; stroke-opacity:1; fill:none" points="
  218.754,1401.58 218.754,1382.68 
  "/>
<polyline clip-path="url(#clip140)" style="stroke:#000000; stroke-linecap:round; stroke-linejoin:round; stroke-width:4; stroke-opacity:1; fill:none" points="
  736.715,1401.58 736.715,1382.68 
  "/>
<polyline clip-path="url(#clip140)" style="stroke:#000000; stroke-linecap:round; stroke-linejoin:round; stroke-width:4; stroke-opacity:1; fill:none" points="
  1254.68,1401.58 1254.68,1382.68 
  "/>
<polyline clip-path="url(#clip140)" style="stroke:#000000; stroke-linecap:round; stroke-linejoin:round; stroke-width:4; stroke-opacity:1; fill:none" points="
  1772.64,1401.58 1772.64,1382.68 
  "/>
<polyline clip-path="url(#clip140)" style="stroke:#000000; stroke-linecap:round; stroke-linejoin:round; stroke-width:4; stroke-opacity:1; fill:none" points="
  2290.6,1401.58 2290.6,1382.68 
  "/>
<path clip-path="url(#clip140)" d="M181.057 1432.5 Q177.446 1432.5 175.617 1436.06 Q173.812 1439.6 173.812 1446.73 Q173.812 1453.84 175.617 1457.41 Q177.446 1460.95 181.057 1460.95 Q184.691 1460.95 186.497 1457.41 Q188.326 1453.84 188.326 1446.73 Q188.326 1439.6 186.497 1436.06 Q184.691 1432.5 181.057 1432.5 M181.057 1428.79 Q186.867 1428.79 189.923 1433.4 Q193.001 1437.98 193.001 1446.73 Q193.001 1455.46 189.923 1460.07 Q186.867 1464.65 181.057 1464.65 Q175.247 1464.65 172.168 1460.07 Q169.113 1455.46 169.113 1446.73 Q169.113 1437.98 172.168 1433.4 Q175.247 1428.79 181.057 1428.79 Z" fill="#000000" fill-rule="evenodd" fill-opacity="1" /><path clip-path="url(#clip140)" d="M201.219 1458.1 L206.103 1458.1 L206.103 1463.98 L201.219 1463.98 L201.219 1458.1 Z" fill="#000000" fill-rule="evenodd" fill-opacity="1" /><path clip-path="url(#clip140)" d="M226.288 1432.5 Q222.677 1432.5 220.849 1436.06 Q219.043 1439.6 219.043 1446.73 Q219.043 1453.84 220.849 1457.41 Q222.677 1460.95 226.288 1460.95 Q229.923 1460.95 231.728 1457.41 Q233.557 1453.84 233.557 1446.73 Q233.557 1439.6 231.728 1436.06 Q229.923 1432.5 226.288 1432.5 M226.288 1428.79 Q232.098 1428.79 235.154 1433.4 Q238.233 1437.98 238.233 1446.73 Q238.233 1455.46 235.154 1460.07 Q232.098 1464.65 226.288 1464.65 Q220.478 1464.65 217.399 1460.07 Q214.344 1455.46 214.344 1446.73 Q214.344 1437.98 217.399 1433.4 Q220.478 1428.79 226.288 1428.79 Z" fill="#000000" fill-rule="evenodd" fill-opacity="1" /><path clip-path="url(#clip140)" d="M256.45 1432.5 Q252.839 1432.5 251.01 1436.06 Q249.205 1439.6 249.205 1446.73 Q249.205 1453.84 251.01 1457.41 Q252.839 1460.95 256.45 1460.95 Q260.084 1460.95 261.89 1457.41 Q263.719 1453.84 263.719 1446.73 Q263.719 1439.6 261.89 1436.06 Q260.084 1432.5 256.45 1432.5 M256.45 1428.79 Q262.26 1428.79 265.316 1433.4 Q268.395 1437.98 268.395 1446.73 Q268.395 1455.46 265.316 1460.07 Q262.26 1464.65 256.45 1464.65 Q250.64 1464.65 247.561 1460.07 Q244.506 1455.46 244.506 1446.73 Q244.506 1437.98 247.561 1433.4 Q250.64 1428.79 256.45 1428.79 Z" fill="#000000" fill-rule="evenodd" fill-opacity="1" /><path clip-path="url(#clip140)" d="M699.516 1432.5 Q695.905 1432.5 694.077 1436.06 Q692.271 1439.6 692.271 1446.73 Q692.271 1453.84 694.077 1457.41 Q695.905 1460.95 699.516 1460.95 Q703.151 1460.95 704.956 1457.41 Q706.785 1453.84 706.785 1446.73 Q706.785 1439.6 704.956 1436.06 Q703.151 1432.5 699.516 1432.5 M699.516 1428.79 Q705.327 1428.79 708.382 1433.4 Q711.461 1437.98 711.461 1446.73 Q711.461 1455.46 708.382 1460.07 Q705.327 1464.65 699.516 1464.65 Q693.706 1464.65 690.628 1460.07 Q687.572 1455.46 687.572 1446.73 Q687.572 1437.98 690.628 1433.4 Q693.706 1428.79 699.516 1428.79 Z" fill="#000000" fill-rule="evenodd" fill-opacity="1" /><path clip-path="url(#clip140)" d="M719.678 1458.1 L724.563 1458.1 L724.563 1463.98 L719.678 1463.98 L719.678 1458.1 Z" fill="#000000" fill-rule="evenodd" fill-opacity="1" /><path clip-path="url(#clip140)" d="M738.776 1460.04 L755.095 1460.04 L755.095 1463.98 L733.151 1463.98 L733.151 1460.04 Q735.813 1457.29 740.396 1452.66 Q745.002 1448.01 746.183 1446.67 Q748.428 1444.14 749.308 1442.41 Q750.211 1440.65 750.211 1438.96 Q750.211 1436.2 748.266 1434.47 Q746.345 1432.73 743.243 1432.73 Q741.044 1432.73 738.59 1433.49 Q736.16 1434.26 733.382 1435.81 L733.382 1431.09 Q736.206 1429.95 738.66 1429.37 Q741.113 1428.79 743.151 1428.79 Q748.521 1428.79 751.715 1431.48 Q754.91 1434.17 754.91 1438.66 Q754.91 1440.79 754.1 1442.71 Q753.312 1444.6 751.206 1447.2 Q750.627 1447.87 747.525 1451.09 Q744.424 1454.28 738.776 1460.04 Z" fill="#000000" fill-rule="evenodd" fill-opacity="1" /><path clip-path="url(#clip140)" d="M764.956 1429.42 L783.312 1429.42 L783.312 1433.36 L769.238 1433.36 L769.238 1441.83 Q770.257 1441.48 771.275 1441.32 Q772.294 1441.13 773.312 1441.13 Q779.099 1441.13 782.479 1444.3 Q785.859 1447.48 785.859 1452.89 Q785.859 1458.47 782.386 1461.57 Q778.914 1464.65 772.595 1464.65 Q770.419 1464.65 768.15 1464.28 Q765.905 1463.91 763.498 1463.17 L763.498 1458.47 Q765.581 1459.6 767.803 1460.16 Q770.025 1460.72 772.502 1460.72 Q776.507 1460.72 778.845 1458.61 Q781.183 1456.5 781.183 1452.89 Q781.183 1449.28 778.845 1447.17 Q776.507 1445.07 772.502 1445.07 Q770.627 1445.07 768.752 1445.48 Q766.9 1445.9 764.956 1446.78 L764.956 1429.42 Z" fill="#000000" fill-rule="evenodd" fill-opacity="1" /><path clip-path="url(#clip140)" d="M1216.98 1432.5 Q1213.37 1432.5 1211.54 1436.06 Q1209.74 1439.6 1209.74 1446.73 Q1209.74 1453.84 1211.54 1457.41 Q1213.37 1460.95 1216.98 1460.95 Q1220.61 1460.95 1222.42 1457.41 Q1224.25 1453.84 1224.25 1446.73 Q1224.25 1439.6 1222.42 1436.06 Q1220.61 1432.5 1216.98 1432.5 M1216.98 1428.79 Q1222.79 1428.79 1225.85 1433.4 Q1228.92 1437.98 1228.92 1446.73 Q1228.92 1455.46 1225.85 1460.07 Q1222.79 1464.65 1216.98 1464.65 Q1211.17 1464.65 1208.09 1460.07 Q1205.04 1455.46 1205.04 1446.73 Q1205.04 1437.98 1208.09 1433.4 Q1211.17 1428.79 1216.98 1428.79 Z" fill="#000000" fill-rule="evenodd" fill-opacity="1" /><path clip-path="url(#clip140)" d="M1237.14 1458.1 L1242.03 1458.1 L1242.03 1463.98 L1237.14 1463.98 L1237.14 1458.1 Z" fill="#000000" fill-rule="evenodd" fill-opacity="1" /><path clip-path="url(#clip140)" d="M1252.26 1429.42 L1270.61 1429.42 L1270.61 1433.36 L1256.54 1433.36 L1256.54 1441.83 Q1257.56 1441.48 1258.58 1441.32 Q1259.6 1441.13 1260.61 1441.13 Q1266.4 1441.13 1269.78 1444.3 Q1273.16 1447.48 1273.16 1452.89 Q1273.16 1458.47 1269.69 1461.57 Q1266.22 1464.65 1259.9 1464.65 Q1257.72 1464.65 1255.45 1464.28 Q1253.21 1463.91 1250.8 1463.17 L1250.8 1458.47 Q1252.88 1459.6 1255.11 1460.16 Q1257.33 1460.72 1259.8 1460.72 Q1263.81 1460.72 1266.15 1458.61 Q1268.48 1456.5 1268.48 1452.89 Q1268.48 1449.28 1266.15 1447.17 Q1263.81 1445.07 1259.8 1445.07 Q1257.93 1445.07 1256.05 1445.48 Q1254.2 1445.9 1252.26 1446.78 L1252.26 1429.42 Z" fill="#000000" fill-rule="evenodd" fill-opacity="1" /><path clip-path="url(#clip140)" d="M1292.37 1432.5 Q1288.76 1432.5 1286.93 1436.06 Q1285.13 1439.6 1285.13 1446.73 Q1285.13 1453.84 1286.93 1457.41 Q1288.76 1460.95 1292.37 1460.95 Q1296.01 1460.95 1297.81 1457.41 Q1299.64 1453.84 1299.64 1446.73 Q1299.64 1439.6 1297.81 1436.06 Q1296.01 1432.5 1292.37 1432.5 M1292.37 1428.79 Q1298.18 1428.79 1301.24 1433.4 Q1304.32 1437.98 1304.32 1446.73 Q1304.32 1455.46 1301.24 1460.07 Q1298.18 1464.65 1292.37 1464.65 Q1286.56 1464.65 1283.48 1460.07 Q1280.43 1455.46 1280.43 1446.73 Q1280.43 1437.98 1283.48 1433.4 Q1286.56 1428.79 1292.37 1428.79 Z" fill="#000000" fill-rule="evenodd" fill-opacity="1" /><path clip-path="url(#clip140)" d="M1735.44 1432.5 Q1731.83 1432.5 1730 1436.06 Q1728.19 1439.6 1728.19 1446.73 Q1728.19 1453.84 1730 1457.41 Q1731.83 1460.95 1735.44 1460.95 Q1739.07 1460.95 1740.88 1457.41 Q1742.71 1453.84 1742.71 1446.73 Q1742.71 1439.6 1740.88 1436.06 Q1739.07 1432.5 1735.44 1432.5 M1735.44 1428.79 Q1741.25 1428.79 1744.31 1433.4 Q1747.38 1437.98 1747.38 1446.73 Q1747.38 1455.46 1744.31 1460.07 Q1741.25 1464.65 1735.44 1464.65 Q1729.63 1464.65 1726.55 1460.07 Q1723.5 1455.46 1723.5 1446.73 Q1723.5 1437.98 1726.55 1433.4 Q1729.63 1428.79 1735.44 1428.79 Z" fill="#000000" fill-rule="evenodd" fill-opacity="1" /><path clip-path="url(#clip140)" d="M1755.6 1458.1 L1760.49 1458.1 L1760.49 1463.98 L1755.6 1463.98 L1755.6 1458.1 Z" fill="#000000" fill-rule="evenodd" fill-opacity="1" /><path clip-path="url(#clip140)" d="M1769.49 1429.42 L1791.71 1429.42 L1791.71 1431.41 L1779.17 1463.98 L1774.28 1463.98 L1786.09 1433.36 L1769.49 1433.36 L1769.49 1429.42 Z" fill="#000000" fill-rule="evenodd" fill-opacity="1" /><path clip-path="url(#clip140)" d="M1800.88 1429.42 L1819.24 1429.42 L1819.24 1433.36 L1805.16 1433.36 L1805.16 1441.83 Q1806.18 1441.48 1807.2 1441.32 Q1808.22 1441.13 1809.24 1441.13 Q1815.02 1441.13 1818.4 1444.3 Q1821.78 1447.48 1821.78 1452.89 Q1821.78 1458.47 1818.31 1461.57 Q1814.84 1464.65 1808.52 1464.65 Q1806.34 1464.65 1804.07 1464.28 Q1801.83 1463.91 1799.42 1463.17 L1799.42 1458.47 Q1801.5 1459.6 1803.73 1460.16 Q1805.95 1460.72 1808.43 1460.72 Q1812.43 1460.72 1814.77 1458.61 Q1817.11 1456.5 1817.11 1452.89 Q1817.11 1449.28 1814.77 1447.17 Q1812.43 1445.07 1808.43 1445.07 Q1806.55 1445.07 1804.68 1445.48 Q1802.82 1445.9 1800.88 1446.78 L1800.88 1429.42 Z" fill="#000000" fill-rule="evenodd" fill-opacity="1" /><path clip-path="url(#clip140)" d="M2242.67 1460.04 L2250.31 1460.04 L2250.31 1433.68 L2242 1435.35 L2242 1431.09 L2250.27 1429.42 L2254.94 1429.42 L2254.94 1460.04 L2262.58 1460.04 L2262.58 1463.98 L2242.67 1463.98 L2242.67 1460.04 Z" fill="#000000" fill-rule="evenodd" fill-opacity="1" /><path clip-path="url(#clip140)" d="M2272.02 1458.1 L2276.91 1458.1 L2276.91 1463.98 L2272.02 1463.98 L2272.02 1458.1 Z" fill="#000000" fill-rule="evenodd" fill-opacity="1" /><path clip-path="url(#clip140)" d="M2297.09 1432.5 Q2293.48 1432.5 2291.65 1436.06 Q2289.85 1439.6 2289.85 1446.73 Q2289.85 1453.84 2291.65 1457.41 Q2293.48 1460.95 2297.09 1460.95 Q2300.73 1460.95 2302.53 1457.41 Q2304.36 1453.84 2304.36 1446.73 Q2304.36 1439.6 2302.53 1436.06 Q2300.73 1432.5 2297.09 1432.5 M2297.09 1428.79 Q2302.9 1428.79 2305.96 1433.4 Q2309.04 1437.98 2309.04 1446.73 Q2309.04 1455.46 2305.96 1460.07 Q2302.9 1464.65 2297.09 1464.65 Q2291.28 1464.65 2288.2 1460.07 Q2285.15 1455.46 2285.15 1446.73 Q2285.15 1437.98 2288.2 1433.4 Q2291.28 1428.79 2297.09 1428.79 Z" fill="#000000" fill-rule="evenodd" fill-opacity="1" /><path clip-path="url(#clip140)" d="M2327.26 1432.5 Q2323.64 1432.5 2321.82 1436.06 Q2320.01 1439.6 2320.01 1446.73 Q2320.01 1453.84 2321.82 1457.41 Q2323.64 1460.95 2327.26 1460.95 Q2330.89 1460.95 2332.7 1457.41 Q2334.52 1453.84 2334.52 1446.73 Q2334.52 1439.6 2332.7 1436.06 Q2330.89 1432.5 2327.26 1432.5 M2327.26 1428.79 Q2333.07 1428.79 2336.12 1433.4 Q2339.2 1437.98 2339.2 1446.73 Q2339.2 1455.46 2336.12 1460.07 Q2333.07 1464.65 2327.26 1464.65 Q2321.45 1464.65 2318.37 1460.07 Q2315.31 1455.46 2315.31 1446.73 Q2315.31 1437.98 2318.37 1433.4 Q2321.45 1428.79 2327.26 1428.79 Z" fill="#000000" fill-rule="evenodd" fill-opacity="1" /><path clip-path="url(#clip140)" d="M1276.69 1528.95 Q1276.69 1533.69 1274.25 1538.42 Q1271.82 1543.15 1267.83 1546.8 Q1263.85 1550.41 1258.42 1552.75 Q1252.98 1555.09 1247.32 1555.28 L1243.66 1569.57 Q1242.96 1573.04 1242.58 1573.41 Q1242.21 1573.79 1241.65 1573.79 Q1240.48 1573.79 1240.48 1572.71 Q1240.48 1572.38 1242.58 1564.28 L1244.83 1555.28 Q1236.31 1554.81 1231.34 1549.89 Q1226.38 1544.98 1226.38 1537.9 Q1226.38 1533.12 1228.81 1528.39 Q1231.3 1523.61 1235.28 1520.01 Q1239.31 1516.4 1244.74 1514.11 Q1250.17 1511.81 1255.75 1511.62 L1261.32 1489.46 Q1261.6 1488.2 1261.84 1487.87 Q1262.07 1487.54 1262.77 1487.54 Q1263.29 1487.54 1263.57 1487.78 Q1263.85 1488.01 1263.85 1488.25 L1263.9 1488.48 L1263.62 1489.84 L1258.23 1511.62 Q1263.01 1511.95 1266.71 1513.64 Q1270.41 1515.32 1272.52 1517.85 Q1274.63 1520.34 1275.66 1523.15 Q1276.69 1525.96 1276.69 1528.95 M1255.19 1513.73 Q1250.03 1514.2 1245.68 1516.73 Q1241.32 1519.26 1238.51 1523.01 Q1235.7 1526.71 1234.15 1531.16 Q1232.61 1535.56 1232.61 1539.92 Q1232.61 1543.34 1233.73 1545.96 Q1234.9 1548.58 1236.82 1550.08 Q1238.74 1551.53 1240.85 1552.33 Q1243.01 1553.08 1245.3 1553.17 L1255.19 1513.73 M1270.41 1526.94 Q1270.41 1520.85 1266.9 1517.43 Q1263.38 1514.01 1257.67 1513.73 L1247.78 1553.17 Q1251.95 1552.85 1255.61 1551.11 Q1259.31 1549.33 1261.98 1546.71 Q1264.65 1544.04 1266.57 1540.76 Q1268.49 1537.43 1269.43 1533.92 Q1270.41 1530.36 1270.41 1526.94 Z" fill="#000000" fill-rule="evenodd" fill-opacity="1" /><polyline clip-path="url(#clip140)" style="stroke:#000000; stroke-linecap:round; stroke-linejoin:round; stroke-width:4; stroke-opacity:1; fill:none" points="
  156.598,1401.58 156.598,47.2441 
  "/>
<polyline clip-path="url(#clip140)" style="stroke:#000000; stroke-linecap:round; stroke-linejoin:round; stroke-width:4; stroke-opacity:1; fill:none" points="
  156.598,1363.25 175.496,1363.25 
  "/>
<polyline clip-path="url(#clip140)" style="stroke:#000000; stroke-linecap:round; stroke-linejoin:round; stroke-width:4; stroke-opacity:1; fill:none" points="
  156.598,1066.87 175.496,1066.87 
  "/>
<polyline clip-path="url(#clip140)" style="stroke:#000000; stroke-linecap:round; stroke-linejoin:round; stroke-width:4; stroke-opacity:1; fill:none" points="
  156.598,770.488 175.496,770.488 
  "/>
<polyline clip-path="url(#clip140)" style="stroke:#000000; stroke-linecap:round; stroke-linejoin:round; stroke-width:4; stroke-opacity:1; fill:none" points="
  156.598,474.107 175.496,474.107 
  "/>
<polyline clip-path="url(#clip140)" style="stroke:#000000; stroke-linecap:round; stroke-linejoin:round; stroke-width:4; stroke-opacity:1; fill:none" points="
  156.598,177.726 175.496,177.726 
  "/>
<path clip-path="url(#clip140)" d="M63.4226 1349.05 Q59.8115 1349.05 57.9828 1352.61 Q56.1773 1356.15 56.1773 1363.28 Q56.1773 1370.39 57.9828 1373.96 Q59.8115 1377.5 63.4226 1377.5 Q67.0569 1377.5 68.8624 1373.96 Q70.6911 1370.39 70.6911 1363.28 Q70.6911 1356.15 68.8624 1352.61 Q67.0569 1349.05 63.4226 1349.05 M63.4226 1345.34 Q69.2328 1345.34 72.2883 1349.95 Q75.367 1354.53 75.367 1363.28 Q75.367 1372.01 72.2883 1376.62 Q69.2328 1381.2 63.4226 1381.2 Q57.6125 1381.2 54.5338 1376.62 Q51.4782 1372.01 51.4782 1363.28 Q51.4782 1354.53 54.5338 1349.95 Q57.6125 1345.34 63.4226 1345.34 Z" fill="#000000" fill-rule="evenodd" fill-opacity="1" /><path clip-path="url(#clip140)" d="M83.5845 1374.65 L88.4688 1374.65 L88.4688 1380.53 L83.5845 1380.53 L83.5845 1374.65 Z" fill="#000000" fill-rule="evenodd" fill-opacity="1" /><path clip-path="url(#clip140)" d="M108.654 1349.05 Q105.043 1349.05 103.214 1352.61 Q101.409 1356.15 101.409 1363.28 Q101.409 1370.39 103.214 1373.96 Q105.043 1377.5 108.654 1377.5 Q112.288 1377.5 114.094 1373.96 Q115.922 1370.39 115.922 1363.28 Q115.922 1356.15 114.094 1352.61 Q112.288 1349.05 108.654 1349.05 M108.654 1345.34 Q114.464 1345.34 117.52 1349.95 Q120.598 1354.53 120.598 1363.28 Q120.598 1372.01 117.52 1376.62 Q114.464 1381.2 108.654 1381.2 Q102.844 1381.2 99.765 1376.62 Q96.7095 1372.01 96.7095 1363.28 Q96.7095 1354.53 99.765 1349.95 Q102.844 1345.34 108.654 1345.34 Z" fill="#000000" fill-rule="evenodd" fill-opacity="1" /><path clip-path="url(#clip140)" d="M64.6495 1052.67 Q61.0384 1052.67 59.2097 1056.23 Q57.4041 1059.77 57.4041 1066.9 Q57.4041 1074.01 59.2097 1077.57 Q61.0384 1081.12 64.6495 1081.12 Q68.2837 1081.12 70.0892 1077.57 Q71.9179 1074.01 71.9179 1066.9 Q71.9179 1059.77 70.0892 1056.23 Q68.2837 1052.67 64.6495 1052.67 M64.6495 1048.96 Q70.4596 1048.96 73.5152 1053.57 Q76.5938 1058.15 76.5938 1066.9 Q76.5938 1075.63 73.5152 1080.24 Q70.4596 1084.82 64.6495 1084.82 Q58.8393 1084.82 55.7606 1080.24 Q52.7051 1075.63 52.7051 1066.9 Q52.7051 1058.15 55.7606 1053.57 Q58.8393 1048.96 64.6495 1048.96 Z" fill="#000000" fill-rule="evenodd" fill-opacity="1" /><path clip-path="url(#clip140)" d="M84.8114 1078.27 L89.6956 1078.27 L89.6956 1084.15 L84.8114 1084.15 L84.8114 1078.27 Z" fill="#000000" fill-rule="evenodd" fill-opacity="1" /><path clip-path="url(#clip140)" d="M100.691 1080.21 L108.33 1080.21 L108.33 1053.85 L100.02 1055.51 L100.02 1051.26 L108.283 1049.59 L112.959 1049.59 L112.959 1080.21 L120.598 1080.21 L120.598 1084.15 L100.691 1084.15 L100.691 1080.21 Z" fill="#000000" fill-rule="evenodd" fill-opacity="1" /><path clip-path="url(#clip140)" d="M65.0198 756.286 Q61.4087 756.286 59.58 759.851 Q57.7745 763.393 57.7745 770.522 Q57.7745 777.629 59.58 781.194 Q61.4087 784.735 65.0198 784.735 Q68.6541 784.735 70.4596 781.194 Q72.2883 777.629 72.2883 770.522 Q72.2883 763.393 70.4596 759.851 Q68.6541 756.286 65.0198 756.286 M65.0198 752.583 Q70.83 752.583 73.8855 757.189 Q76.9642 761.772 76.9642 770.522 Q76.9642 779.249 73.8855 783.856 Q70.83 788.439 65.0198 788.439 Q59.2097 788.439 56.131 783.856 Q53.0754 779.249 53.0754 770.522 Q53.0754 761.772 56.131 757.189 Q59.2097 752.583 65.0198 752.583 Z" fill="#000000" fill-rule="evenodd" fill-opacity="1" /><path clip-path="url(#clip140)" d="M85.1818 781.888 L90.066 781.888 L90.066 787.768 L85.1818 787.768 L85.1818 781.888 Z" fill="#000000" fill-rule="evenodd" fill-opacity="1" /><path clip-path="url(#clip140)" d="M104.279 783.832 L120.598 783.832 L120.598 787.768 L98.6539 787.768 L98.6539 783.832 Q101.316 781.078 105.899 776.448 Q110.506 771.795 111.686 770.453 Q113.932 767.93 114.811 766.194 Q115.714 764.434 115.714 762.745 Q115.714 759.99 113.77 758.254 Q111.848 756.518 108.746 756.518 Q106.547 756.518 104.094 757.282 Q101.663 758.046 98.8854 759.596 L98.8854 754.874 Q101.709 753.74 104.163 753.161 Q106.617 752.583 108.654 752.583 Q114.024 752.583 117.219 755.268 Q120.413 757.953 120.413 762.444 Q120.413 764.573 119.603 766.495 Q118.816 768.393 116.709 770.985 Q116.131 771.657 113.029 774.874 Q109.927 778.069 104.279 783.832 Z" fill="#000000" fill-rule="evenodd" fill-opacity="1" /><path clip-path="url(#clip140)" d="M64.0708 459.905 Q60.4597 459.905 58.631 463.47 Q56.8254 467.012 56.8254 474.141 Q56.8254 481.248 58.631 484.813 Q60.4597 488.354 64.0708 488.354 Q67.705 488.354 69.5105 484.813 Q71.3392 481.248 71.3392 474.141 Q71.3392 467.012 69.5105 463.47 Q67.705 459.905 64.0708 459.905 M64.0708 456.202 Q69.8809 456.202 72.9365 460.808 Q76.0151 465.391 76.0151 474.141 Q76.0151 482.868 72.9365 487.475 Q69.8809 492.058 64.0708 492.058 Q58.2606 492.058 55.1819 487.475 Q52.1264 482.868 52.1264 474.141 Q52.1264 465.391 55.1819 460.808 Q58.2606 456.202 64.0708 456.202 Z" fill="#000000" fill-rule="evenodd" fill-opacity="1" /><path clip-path="url(#clip140)" d="M84.2327 485.507 L89.1169 485.507 L89.1169 491.387 L84.2327 491.387 L84.2327 485.507 Z" fill="#000000" fill-rule="evenodd" fill-opacity="1" /><path clip-path="url(#clip140)" d="M113.469 472.752 Q116.825 473.47 118.7 475.739 Q120.598 478.007 120.598 481.34 Q120.598 486.456 117.08 489.257 Q113.561 492.058 107.08 492.058 Q104.904 492.058 102.589 491.618 Q100.297 491.201 97.8437 490.345 L97.8437 485.831 Q99.7882 486.965 102.103 487.544 Q104.418 488.123 106.941 488.123 Q111.339 488.123 113.631 486.387 Q115.945 484.65 115.945 481.34 Q115.945 478.285 113.793 476.572 Q111.663 474.836 107.844 474.836 L103.816 474.836 L103.816 470.993 L108.029 470.993 Q111.478 470.993 113.307 469.627 Q115.135 468.239 115.135 465.646 Q115.135 462.984 113.237 461.572 Q111.362 460.137 107.844 460.137 Q105.922 460.137 103.723 460.553 Q101.524 460.97 98.8854 461.85 L98.8854 457.683 Q101.547 456.942 103.862 456.572 Q106.2 456.202 108.26 456.202 Q113.584 456.202 116.686 458.632 Q119.788 461.04 119.788 465.16 Q119.788 468.03 118.145 470.021 Q116.501 471.989 113.469 472.752 Z" fill="#000000" fill-rule="evenodd" fill-opacity="1" /><path clip-path="url(#clip140)" d="M62.9365 163.524 Q59.3254 163.524 57.4967 167.089 Q55.6912 170.631 55.6912 177.76 Q55.6912 184.867 57.4967 188.432 Q59.3254 191.973 62.9365 191.973 Q66.5707 191.973 68.3763 188.432 Q70.205 184.867 70.205 177.76 Q70.205 170.631 68.3763 167.089 Q66.5707 163.524 62.9365 163.524 M62.9365 159.821 Q68.7467 159.821 71.8022 164.427 Q74.8809 169.01 74.8809 177.76 Q74.8809 186.487 71.8022 191.094 Q68.7467 195.677 62.9365 195.677 Q57.1264 195.677 54.0477 191.094 Q50.9921 186.487 50.9921 177.76 Q50.9921 169.01 54.0477 164.427 Q57.1264 159.821 62.9365 159.821 Z" fill="#000000" fill-rule="evenodd" fill-opacity="1" /><path clip-path="url(#clip140)" d="M83.0984 189.126 L87.9827 189.126 L87.9827 195.006 L83.0984 195.006 L83.0984 189.126 Z" fill="#000000" fill-rule="evenodd" fill-opacity="1" /><path clip-path="url(#clip140)" d="M111.015 164.52 L99.2095 182.969 L111.015 182.969 L111.015 164.52 M109.788 160.446 L115.668 160.446 L115.668 182.969 L120.598 182.969 L120.598 186.857 L115.668 186.857 L115.668 195.006 L111.015 195.006 L111.015 186.857 L95.4132 186.857 L95.4132 182.344 L109.788 160.446 Z" fill="#000000" fill-rule="evenodd" fill-opacity="1" /><polyline clip-path="url(#clip143)" style="stroke:#0000ff; stroke-linecap:round; stroke-linejoin:round; stroke-width:4; stroke-opacity:1; fill:none" points="
  218.754,1363.25 239.681,1356.34 260.609,1343.91 281.537,1328.09 302.465,1309.68 323.392,1289.18 344.32,1266.91 365.248,1243.16 386.176,1218.12 407.103,1191.98 
  428.031,1164.88 448.959,1136.97 469.887,1108.35 490.814,1079.13 511.742,1049.42 532.67,1019.3 553.598,988.846 574.525,958.143 595.453,927.26 616.381,896.265 
  637.309,865.221 658.236,834.188 679.164,803.225 700.092,772.385 721.02,741.722 741.947,711.285 762.875,681.122 783.803,651.281 804.731,621.806 825.658,592.741 
  846.586,564.127 867.514,536.005 888.442,508.415 909.369,481.394 930.297,454.981 951.225,429.212 972.152,404.121 993.08,379.744 1014.01,356.115 1034.94,333.265 
  1055.86,311.228 1076.79,290.036 1097.72,269.718 1118.65,250.306 1139.57,231.829 1160.5,214.316 1181.43,197.796 1202.36,182.297 1223.29,167.846 1244.21,154.471 
  1265.14,142.199 1286.07,131.056 1307,121.067 1327.92,112.259 1348.85,104.656 1369.78,98.2826 1390.71,93.1641 1411.64,89.3241 1432.56,86.7863 1453.49,85.5744 
  1474.42,85.7112 1495.35,87.2198 1516.27,90.1226 1537.2,94.4419 1558.13,100.2 1579.06,107.418 1599.98,116.118 1620.91,126.321 1641.84,138.048 1662.77,151.32 
  1683.7,166.158 1704.62,182.581 1725.55,200.61 1746.48,220.266 1767.41,241.567 1788.33,264.533 1809.26,289.184 1830.19,315.539 1851.12,343.617 1872.05,373.437 
  1892.97,405.017 1913.9,438.376 1934.83,473.532 1955.76,510.504 1976.68,549.309 1997.61,589.966 2018.54,632.492 2039.47,676.904 2060.4,723.221 2081.32,771.46 
  2102.25,821.637 2123.18,873.77 2144.11,927.876 2165.03,983.971 2185.96,1042.07 2206.89,1102.2 2227.82,1164.36 2248.75,1228.58 2269.67,1294.87 2290.6,1363.25 
  
  "/>
<path clip-path="url(#clip140)" d="
M229.803 247.909 L538.103 247.909 L538.103 92.3886 L229.803 92.3886  Z
  " fill="#ffffff" fill-rule="evenodd" fill-opacity="1"/>
<polyline clip-path="url(#clip140)" style="stroke:#000000; stroke-linecap:round; stroke-linejoin:round; stroke-width:4; stroke-opacity:1; fill:none" points="
  229.803,247.909 538.103,247.909 538.103,92.3886 229.803,92.3886 229.803,247.909 
  "/>
<polyline clip-path="url(#clip140)" style="stroke:#0000ff; stroke-linecap:round; stroke-linejoin:round; stroke-width:6; stroke-opacity:1; fill:none" points="
  254.205,170.149 400.616,170.149 
  "/>
<path clip-path="url(#clip140)" d="M472.659 175.95 Q472.659 178.655 471.183 184.628 Q469.708 190.601 467.916 194.676 Q464.086 203.53 457.481 203.53 Q456.673 203.53 455.865 203.459 Q455.092 203.389 453.933 203.073 Q452.773 202.757 451.824 202.265 Q450.876 201.738 449.927 200.754 Q449.014 199.77 448.487 198.47 Q445.571 203.53 441.003 203.53 Q436.576 203.53 433.66 201.281 Q430.779 199.033 430.779 194.43 Q430.779 192.357 431.623 189.301 Q432.466 186.244 434.82 179.92 Q436.12 176.652 436.12 174.861 Q436.12 174.053 435.944 173.526 Q435.768 172.999 435.417 172.823 Q435.101 172.612 434.89 172.577 Q434.679 172.507 434.328 172.507 Q432.22 172.507 430.323 174.65 Q428.425 176.758 427.055 181.431 Q426.774 182.309 426.599 182.52 Q426.423 182.731 425.896 182.731 Q425.018 182.695 425.018 181.993 Q425.018 181.712 425.334 180.623 Q425.65 179.498 426.388 177.847 Q427.161 176.161 428.215 174.65 Q429.269 173.104 430.92 172.015 Q432.606 170.926 434.539 170.926 Q437.139 170.926 438.79 172.647 Q440.441 174.369 440.441 176.828 Q440.441 177.531 440.266 178.304 Q440.09 179.042 439.914 179.533 Q439.774 179.99 439.212 181.431 Q436.893 187.509 436.155 190.425 Q435.452 193.341 435.452 195.379 Q435.452 196.046 435.487 196.573 Q435.522 197.1 435.804 198.189 Q436.12 199.279 436.682 200.016 Q437.244 200.719 438.403 201.316 Q439.598 201.914 441.214 201.914 Q445.254 201.914 447.854 195.871 Q447.784 195.519 447.784 194.606 Q447.784 192.568 448.417 189.828 Q448.592 189.195 449.611 185.155 Q450.63 181.079 451.508 177.531 Q452.422 173.947 452.527 173.736 Q452.879 172.753 453.651 172.226 Q454.424 171.699 455.197 171.699 Q456.076 171.699 456.673 172.226 Q457.27 172.753 457.27 173.666 Q457.27 173.842 457.059 174.65 Q456.884 175.423 456.603 176.582 Q456.322 177.742 456.181 178.339 L453.16 190.425 Q452.387 193.236 452.387 195.66 Q452.387 198.716 453.757 200.333 Q455.127 201.914 457.692 201.914 Q462.505 201.914 465.597 195.59 Q467.002 192.849 468.267 188.563 Q469.567 184.276 469.567 182.414 Q469.567 178.901 466.967 176.301 Q466.405 175.809 466.159 175.423 Q465.913 175.001 465.913 174.369 Q465.913 173.174 467.037 172.05 Q468.162 170.926 469.497 170.926 Q470.691 170.926 471.675 172.12 Q472.659 173.28 472.659 175.95 Z" fill="#000000" fill-rule="evenodd" fill-opacity="1" /><path clip-path="url(#clip140)" d="M506.283 158.189 Q506.283 160.673 505.004 163.157 Q503.725 165.641 501.635 167.559 Q499.544 169.453 496.691 170.683 Q493.839 171.912 490.863 172.011 L488.944 179.512 Q488.576 181.332 488.379 181.528 Q488.182 181.725 487.887 181.725 Q487.272 181.725 487.272 181.16 Q487.272 180.987 488.379 176.733 L489.559 172.011 Q485.083 171.765 482.476 169.182 Q479.869 166.6 479.869 162.887 Q479.869 160.378 481.148 157.894 Q482.452 155.385 484.542 153.492 Q486.657 151.598 489.51 150.393 Q492.363 149.188 495.29 149.09 L498.216 137.457 Q498.364 136.793 498.487 136.621 Q498.61 136.448 498.979 136.448 Q499.249 136.448 499.397 136.571 Q499.544 136.694 499.544 136.817 L499.569 136.94 L499.421 137.654 L496.593 149.09 Q499.102 149.262 501.044 150.147 Q502.987 151.032 504.094 152.36 Q505.201 153.664 505.742 155.14 Q506.283 156.615 506.283 158.189 M494.994 150.196 Q492.289 150.442 490.002 151.77 Q487.715 153.098 486.239 155.066 Q484.764 157.009 483.952 159.345 Q483.14 161.657 483.14 163.944 Q483.14 165.739 483.731 167.117 Q484.345 168.494 485.354 169.281 Q486.362 170.043 487.469 170.461 Q488.6 170.855 489.805 170.904 L494.994 150.196 M502.987 157.132 Q502.987 153.934 501.143 152.139 Q499.298 150.344 496.298 150.196 L491.109 170.904 Q493.297 170.732 495.216 169.822 Q497.159 168.887 498.56 167.51 Q499.962 166.108 500.971 164.387 Q501.979 162.641 502.471 160.796 Q502.987 158.927 502.987 157.132 Z" fill="#000000" fill-rule="evenodd" fill-opacity="1" /></svg>
