<?xml version="1.0" encoding="utf-8"?>
<svg xmlns="http://www.w3.org/2000/svg" xmlns:xlink="http://www.w3.org/1999/xlink" width="600" height="400" viewBox="0 0 2400 1600">
<defs>
  <clipPath id="clip620">
    <rect x="0" y="0" width="2400" height="1600"/>
  </clipPath>
</defs>
<path clip-path="url(#clip620)" d="
M0 1600 L2400 1600 L2400 0 L0 0  Z
  " fill="#ffffff" fill-rule="evenodd" fill-opacity="1"/>
<defs>
  <clipPath id="clip621">
    <rect x="480" y="0" width="1681" height="1600"/>
  </clipPath>
</defs>
<path clip-path="url(#clip620)" d="
M156.598 1401.58 L2352.76 1401.58 L2352.76 47.2441 L156.598 47.2441  Z
  " fill="#ffffff" fill-rule="evenodd" fill-opacity="1"/>
<defs>
  <clipPath id="clip622">
    <rect x="156" y="47" width="2197" height="1355"/>
  </clipPath>
</defs>
<polyline clip-path="url(#clip620)" style="stroke:#000000; stroke-linecap:butt; stroke-linejoin:round; stroke-width:4; stroke-opacity:1; fill:none" points="
  156.598,1401.58 2352.76,1401.58 
  "/>
<polyline clip-path="url(#clip620)" style="stroke:#000000; stroke-linecap:butt; stroke-linejoin:round; stroke-width:4; stroke-opacity:1; fill:none" points="
  218.754,1401.58 218.754,1382.68 
  "/>
<polyline clip-path="url(#clip620)" style="stroke:#000000; stroke-linecap:butt; stroke-linejoin:round; stroke-width:4; stroke-opacity:1; fill:none" points="
  736.715,1401.58 736.715,1382.68 
  "/>
<polyline clip-path="url(#clip620)" style="stroke:#000000; stroke-linecap:butt; stroke-linejoin:round; stroke-width:4; stroke-opacity:1; fill:none" points="
  1254.68,1401.58 1254.68,1382.68 
  "/>
<polyline clip-path="url(#clip620)" style="stroke:#000000; stroke-linecap:butt; stroke-linejoin:round; stroke-width:4; stroke-opacity:1; fill:none" points="
  1772.64,1401.58 1772.64,1382.68 
  "/>
<polyline clip-path="url(#clip620)" style="stroke:#000000; stroke-linecap:butt; stroke-linejoin:round; stroke-width:4; stroke-opacity:1; fill:none" points="
  2290.6,1401.58 2290.6,1382.68 
  "/>
<path clip-path="url(#clip620)" d="M181.057 1432.5 Q177.446 1432.5 175.617 1436.06 Q173.812 1439.6 173.812 1446.73 Q173.812 1453.84 175.617 1457.41 Q177.446 1460.95 181.057 1460.95 Q184.691 1460.95 186.497 1457.41 Q188.326 1453.84 188.326 1446.73 Q188.326 1439.6 186.497 1436.06 Q184.691 1432.5 181.057 1432.5 M181.057 1428.79 Q186.867 1428.79 189.923 1433.4 Q193.001 1437.98 193.001 1446.73 Q193.001 1455.46 189.923 1460.07 Q186.867 1464.65 181.057 1464.65 Q175.247 1464.65 172.168 1460.07 Q169.113 1455.46 169.113 1446.73 Q169.113 1437.98 172.168 1433.4 Q175.247 1428.79 181.057 1428.79 Z" fill="#000000" fill-rule="evenodd" fill-opacity="1" /><path clip-path="url(#clip620)" d="M201.219 1458.1 L206.103 1458.1 L206.103 1463.98 L201.219 1463.98 L201.219 1458.1 Z" fill="#000000" fill-rule="evenodd" fill-opacity="1" /><path clip-path="url(#clip620)" d="M226.288 1432.5 Q222.677 1432.5 220.849 1436.06 Q219.043 1439.6 219.043 1446.73 Q219.043 1453.84 220.849 1457.41 Q222.677 1460.95 226.288 1460.95 Q229.923 1460.95 231.728 1457.41 Q233.557 1453.84 233.557 1446.73 Q233.557 1439.6 231.728 1436.06 Q229.923 1432.5 226.288 1432.5 M226.288 1428.79 Q232.098 1428.79 235.154 1433.4 Q238.233 1437.98 238.233 1446.73 Q238.233 1455.46 235.154 1460.07 Q232.098 1464.65 226.288 1464.65 Q220.478 1464.65 217.399 1460.07 Q214.344 1455.46 214.344 1446.73 Q214.344 1437.98 217.399 1433.4 Q220.478 1428.79 226.288 1428.79 Z" fill="#000000" fill-rule="evenodd" fill-opacity="1" /><path clip-path="url(#clip620)" d="M256.45 1432.5 Q252.839 1432.5 251.01 1436.06 Q249.205 1439.6 249.205 1446.73 Q249.205 1453.84 251.01 1457.41 Q252.839 1460.95 256.45 1460.95 Q260.084 1460.95 261.89 1457.41 Q263.719 1453.84 263.719 1446.73 Q263.719 1439.6 261.89 1436.06 Q260.084 1432.5 256.45 1432.5 M256.45 1428.79 Q262.26 1428.79 265.316 1433.4 Q268.395 1437.98 268.395 1446.73 Q268.395 1455.46 265.316 1460.07 Q262.26 1464.65 256.45 1464.65 Q250.64 1464.65 247.561 1460.07 Q244.506 1455.46 244.506 1446.73 Q244.506 1437.98 247.561 1433.4 Q250.64 1428.79 256.45 1428.79 Z" fill="#000000" fill-rule="evenodd" fill-opacity="1" /><path clip-path="url(#clip620)" d="M699.516 1432.5 Q695.905 1432.5 694.077 1436.06 Q692.271 1439.6 692.271 1446.73 Q692.271 1453.84 694.077 1457.41 Q695.905 1460.95 699.516 1460.95 Q703.151 1460.95 704.956 1457.41 Q706.785 1453.84 706.785 1446.73 Q706.785 1439.6 704.956 1436.06 Q703.151 1432.5 699.516 1432.5 M699.516 1428.79 Q705.327 1428.79 708.382 1433.4 Q711.461 1437.98 711.461 1446.73 Q711.461 1455.46 708.382 1460.07 Q705.327 1464.65 699.516 1464.65 Q693.706 1464.65 690.628 1460.07 Q687.572 1455.46 687.572 1446.73 Q687.572 1437.98 690.628 1433.4 Q693.706 1428.79 699.516 1428.79 Z" fill="#000000" fill-rule="evenodd" fill-opacity="1" /><path clip-path="url(#clip620)" d="M719.678 1458.1 L724.563 1458.1 L724.563 1463.98 L719.678 1463.98 L719.678 1458.1 Z" fill="#000000" fill-rule="evenodd" fill-opacity="1" /><path clip-path="url(#clip620)" d="M738.776 1460.04 L755.095 1460.04 L755.095 1463.98 L733.151 1463.98 L733.151 1460.04 Q735.813 1457.29 740.396 1452.66 Q745.002 1448.01 746.183 1446.67 Q748.428 1444.14 749.308 1442.41 Q750.211 1440.65 750.211 1438.96 Q750.211 1436.2 748.266 1434.47 Q746.345 1432.73 743.243 1432.73 Q741.044 1432.73 738.59 1433.49 Q736.16 1434.26 733.382 1435.81 L733.382 1431.09 Q736.206 1429.95 738.66 1429.37 Q741.113 1428.79 743.151 1428.79 Q748.521 1428.79 751.715 1431.48 Q754.91 1434.17 754.91 1438.66 Q754.91 1440.79 754.1 1442.71 Q753.312 1444.6 751.206 1447.2 Q750.627 1447.87 747.525 1451.09 Q744.424 1454.28 738.776 1460.04 Z" fill="#000000" fill-rule="evenodd" fill-opacity="1" /><path clip-path="url(#clip620)" d="M764.956 1429.42 L783.312 1429.42 L783.312 1433.36 L769.238 1433.36 L769.238 1441.83 Q770.257 1441.48 771.275 1441.32 Q772.294 1441.13 773.312 1441.13 Q779.099 1441.13 782.479 1444.3 Q785.859 1447.48 785.859 1452.89 Q785.859 1458.47 782.386 1461.57 Q778.914 1464.65 772.595 1464.65 Q770.419 1464.65 768.15 1464.28 Q765.905 1463.91 763.498 1463.17 L763.498 1458.47 Q765.581 1459.6 767.803 1460.16 Q770.025 1460.72 772.502 1460.72 Q776.507 1460.72 778.845 1458.61 Q781.183 1456.5 781.183 1452.89 Q781.183 1449.28 778.845 1447.17 Q776.507 1445.07 772.502 1445.07 Q770.627 1445.07 768.752 1445.48 Q766.9 1445.9 764.956 1446.78 L764.956 1429.42 Z" fill="#000000" fill-rule="evenodd" fill-opacity="1" /><path clip-path="url(#clip620)" d="M1216.98 1432.5 Q1213.37 1432.5 1211.54 1436.06 Q1209.74 1439.6 1209.74 1446.73 Q1209.74 1453.84 1211.54 1457.41 Q1213.37 1460.95 1216.98 1460.95 Q1220.61 1460.95 1222.42 1457.41 Q1224.25 1453.84 1224.25 1446.73 Q1224.25 1439.6 1222.42 1436.06 Q1220.61 1432.5 1216.98 1432.5 M1216.98 1428.79 Q1222.79 1428.79 1225.85 1433.4 Q1228.92 1437.98 1228.92 1446.73 Q1228.92 1455.46 1225.85 1460.07 Q1222.79 1464.65 1216.98 1464.65 Q1211.17 1464.65 1208.09 1460.07 Q1205.04 1455.46 1205.04 1446.73 Q1205.04 1437.98 1208.09 1433.4 Q1211.17 1428.79 1216.98 1428.79 Z" fill="#000000" fill-rule="evenodd" fill-opacity="1" /><path clip-path="url(#clip620)" d="M1237.14 1458.1 L1242.03 1458.1 L1242.03 1463.98 L1237.14 1463.98 L1237.14 1458.1 Z" fill="#000000" fill-rule="evenodd" fill-opacity="1" /><path clip-path="url(#clip620)" d="M1252.26 1429.42 L1270.61 1429.42 L1270.61 1433.36 L1256.54 1433.36 L1256.54 1441.83 Q1257.56 1441.48 1258.58 1441.32 Q1259.6 1441.13 1260.61 1441.13 Q1266.4 1441.13 1269.78 1444.3 Q1273.16 1447.48 1273.16 1452.89 Q1273.16 1458.47 1269.69 1461.57 Q1266.22 1464.65 1259.9 1464.65 Q1257.72 1464.65 1255.45 1464.28 Q1253.21 1463.91 1250.8 1463.17 L1250.8 1458.47 Q1252.88 1459.6 1255.11 1460.16 Q1257.33 1460.72 1259.8 1460.72 Q1263.81 1460.72 1266.15 1458.61 Q1268.48 1456.5 1268.48 1452.89 Q1268.48 1449.28 1266.15 1447.17 Q1263.81 1445.07 1259.8 1445.07 Q1257.93 1445.07 1256.05 1445.48 Q1254.2 1445.9 1252.26 1446.78 L1252.26 1429.42 Z" fill="#000000" fill-rule="evenodd" fill-opacity="1" /><path clip-path="url(#clip620)" d="M1292.37 1432.5 Q1288.76 1432.5 1286.93 1436.06 Q1285.13 1439.6 1285.13 1446.73 Q1285.13 1453.84 1286.93 1457.41 Q1288.76 1460.95 1292.37 1460.95 Q1296.01 1460.95 1297.81 1457.41 Q1299.64 1453.84 1299.64 1446.73 Q1299.64 1439.6 1297.81 1436.06 Q1296.01 1432.5 1292.37 1432.5 M1292.37 1428.79 Q1298.18 1428.79 1301.24 1433.4 Q1304.32 1437.98 1304.32 1446.73 Q1304.32 1455.46 1301.24 1460.07 Q1298.18 1464.65 1292.37 1464.65 Q1286.56 1464.65 1283.48 1460.07 Q1280.43 1455.46 1280.43 1446.73 Q1280.43 1437.98 1283.48 1433.4 Q1286.56 1428.79 1292.37 1428.79 Z" fill="#000000" fill-rule="evenodd" fill-opacity="1" /><path clip-path="url(#clip620)" d="M1735.44 1432.5 Q1731.83 1432.5 1730 1436.06 Q1728.19 1439.6 1728.19 1446.73 Q1728.19 1453.84 1730 1457.41 Q1731.83 1460.95 1735.44 1460.95 Q1739.07 1460.95 1740.88 1457.41 Q1742.71 1453.84 1742.71 1446.73 Q1742.71 1439.6 1740.88 1436.06 Q1739.07 1432.5 1735.44 1432.5 M1735.44 1428.79 Q1741.25 1428.79 1744.31 1433.4 Q1747.38 1437.98 1747.38 1446.73 Q1747.38 1455.46 1744.31 1460.07 Q1741.25 1464.65 1735.44 1464.65 Q1729.63 1464.65 1726.55 1460.07 Q1723.5 1455.46 1723.5 1446.73 Q1723.5 1437.98 1726.55 1433.4 Q1729.63 1428.79 1735.44 1428.79 Z" fill="#000000" fill-rule="evenodd" fill-opacity="1" /><path clip-path="url(#clip620)" d="M1755.6 1458.1 L1760.49 1458.1 L1760.49 1463.98 L1755.6 1463.98 L1755.6 1458.1 Z" fill="#000000" fill-rule="evenodd" fill-opacity="1" /><path clip-path="url(#clip620)" d="M1769.49 1429.42 L1791.71 1429.42 L1791.71 1431.41 L1779.17 1463.98 L1774.28 1463.98 L1786.09 1433.36 L1769.49 1433.36 L1769.49 1429.42 Z" fill="#000000" fill-rule="evenodd" fill-opacity="1" /><path clip-path="url(#clip620)" d="M1800.88 1429.42 L1819.24 1429.42 L1819.24 1433.36 L1805.16 1433.36 L1805.16 1441.83 Q1806.18 1441.48 1807.2 1441.32 Q1808.22 1441.13 1809.24 1441.13 Q1815.02 1441.13 1818.4 1444.3 Q1821.78 1447.48 1821.78 1452.89 Q1821.78 1458.47 1818.31 1461.57 Q1814.84 1464.65 1808.52 1464.65 Q1806.34 1464.65 1804.07 1464.28 Q1801.83 1463.91 1799.42 1463.17 L1799.42 1458.47 Q1801.5 1459.6 1803.73 1460.16 Q1805.95 1460.72 1808.43 1460.72 Q1812.43 1460.72 1814.77 1458.61 Q1817.11 1456.5 1817.11 1452.89 Q1817.11 1449.28 1814.77 1447.17 Q1812.43 1445.07 1808.43 1445.07 Q1806.55 1445.07 1804.68 1445.48 Q1802.82 1445.9 1800.88 1446.78 L1800.88 1429.42 Z" fill="#000000" fill-rule="evenodd" fill-opacity="1" /><path clip-path="url(#clip620)" d="M2242.67 1460.04 L2250.31 1460.04 L2250.31 1433.68 L2242 1435.35 L2242 1431.09 L2250.27 1429.42 L2254.94 1429.42 L2254.94 1460.04 L2262.58 1460.04 L2262.58 1463.98 L2242.67 1463.98 L2242.67 1460.04 Z" fill="#000000" fill-rule="evenodd" fill-opacity="1" /><path clip-path="url(#clip620)" d="M2272.02 1458.1 L2276.91 1458.1 L2276.91 1463.98 L2272.02 1463.98 L2272.02 1458.1 Z" fill="#000000" fill-rule="evenodd" fill-opacity="1" /><path clip-path="url(#clip620)" d="M2297.09 1432.5 Q2293.48 1432.5 2291.65 1436.06 Q2289.85 1439.6 2289.85 1446.73 Q2289.85 1453.84 2291.65 1457.41 Q2293.48 1460.95 2297.09 1460.95 Q2300.73 1460.95 2302.53 1457.41 Q2304.36 1453.84 2304.36 1446.73 Q2304.36 1439.6 2302.53 1436.06 Q2300.73 1432.5 2297.09 1432.5 M2297.09 1428.79 Q2302.9 1428.79 2305.96 1433.4 Q2309.04 1437.98 2309.04 1446.73 Q2309.04 1455.46 2305.96 1460.07 Q2302.9 1464.65 2297.09 1464.65 Q2291.28 1464.65 2288.2 1460.07 Q2285.15 1455.46 2285.15 1446.73 Q2285.15 1437.98 2288.2 1433.4 Q2291.28 1428.79 2297.09 1428.79 Z" fill="#000000" fill-rule="evenodd" fill-opacity="1" /><path clip-path="url(#clip620)" d="M2327.26 1432.5 Q2323.64 1432.5 2321.82 1436.06 Q2320.01 1439.6 2320.01 1446.73 Q2320.01 1453.84 2321.82 1457.41 Q2323.64 1460.95 2327.26 1460.95 Q2330.89 1460.95 2332.7 1457.41 Q2334.52 1453.84 2334.52 1446.73 Q2334.52 1439.6 2332.7 1436.06 Q2330.89 1432.5 2327.26 1432.5 M2327.26 1428.79 Q2333.07 1428.79 2336.12 1433.4 Q2339.2 1437.98 2339.2 1446.73 Q2339.2 1455.46 2336.12 1460.07 Q2333.07 1464.65 2327.26 1464.65 Q2321.45 1464.65 2318.37 1460.07 Q2315.31 1455.46 2315.31 1446.73 Q2315.31 1437.98 2318.37 1433.4 Q2321.45 1428.79 2327.26 1428.79 Z" fill="#000000" fill-rule="evenodd" fill-opacity="1" /><path clip-path="url(#clip620)" d="M1198.68 1564.59 L1198.68 1592.09 L1190.12 1592.09 L1190.12 1520.51 L1198.68 1520.51 L1198.68 1528.38 Q1201.37 1523.75 1205.44 1521.53 Q1209.56 1519.26 1215.26 1519.26 Q1224.7 1519.26 1230.58 1526.76 Q1236.51 1534.26 1236.51 1546.48 Q1236.51 1558.71 1230.58 1566.21 Q1224.7 1573.71 1215.26 1573.71 Q1209.56 1573.71 1205.44 1571.48 Q1201.37 1569.22 1198.68 1564.59 M1227.66 1546.48 Q1227.66 1537.09 1223.77 1531.76 Q1219.93 1526.39 1213.17 1526.39 Q1206.41 1526.39 1202.52 1531.76 Q1198.68 1537.09 1198.68 1546.48 Q1198.68 1555.88 1202.52 1561.25 Q1206.41 1566.58 1213.17 1566.58 Q1219.93 1566.58 1223.77 1561.25 Q1227.66 1555.88 1227.66 1546.48 Z" fill="#000000" fill-rule="evenodd" fill-opacity="1" /><path clip-path="url(#clip620)" d="M1293.73 1541.07 L1293.73 1572.36 L1285.21 1572.36 L1285.21 1541.35 Q1285.21 1533.98 1282.34 1530.33 Q1279.47 1526.67 1273.73 1526.67 Q1266.83 1526.67 1262.85 1531.07 Q1258.87 1535.47 1258.87 1543.06 L1258.87 1572.36 L1250.3 1572.36 L1250.3 1500.33 L1258.87 1500.33 L1258.87 1528.57 Q1261.92 1523.89 1266.04 1521.58 Q1270.21 1519.26 1275.63 1519.26 Q1284.56 1519.26 1289.14 1524.82 Q1293.73 1530.33 1293.73 1541.07 Z" fill="#000000" fill-rule="evenodd" fill-opacity="1" /><path clip-path="url(#clip620)" d="M1310.72 1520.51 L1319.24 1520.51 L1319.24 1572.36 L1310.72 1572.36 L1310.72 1520.51 M1310.72 1500.33 L1319.24 1500.33 L1319.24 1511.11 L1310.72 1511.11 L1310.72 1500.33 Z" fill="#000000" fill-rule="evenodd" fill-opacity="1" /><polyline clip-path="url(#clip620)" style="stroke:#000000; stroke-linecap:butt; stroke-linejoin:round; stroke-width:4; stroke-opacity:1; fill:none" points="
  156.598,1401.58 156.598,47.2441 
  "/>
<polyline clip-path="url(#clip620)" style="stroke:#000000; stroke-linecap:butt; stroke-linejoin:round; stroke-width:4; stroke-opacity:1; fill:none" points="
  156.598,1363.25 175.496,1363.25 
  "/>
<polyline clip-path="url(#clip620)" style="stroke:#000000; stroke-linecap:butt; stroke-linejoin:round; stroke-width:4; stroke-opacity:1; fill:none" points="
  156.598,1066.87 175.496,1066.87 
  "/>
<polyline clip-path="url(#clip620)" style="stroke:#000000; stroke-linecap:butt; stroke-linejoin:round; stroke-width:4; stroke-opacity:1; fill:none" points="
  156.598,770.488 175.496,770.488 
  "/>
<polyline clip-path="url(#clip620)" style="stroke:#000000; stroke-linecap:butt; stroke-linejoin:round; stroke-width:4; stroke-opacity:1; fill:none" points="
  156.598,474.107 175.496,474.107 
  "/>
<polyline clip-path="url(#clip620)" style="stroke:#000000; stroke-linecap:butt; stroke-linejoin:round; stroke-width:4; stroke-opacity:1; fill:none" points="
  156.598,177.726 175.496,177.726 
  "/>
<path clip-path="url(#clip620)" d="M63.4226 1349.05 Q59.8115 1349.05 57.9828 1352.61 Q56.1773 1356.15 56.1773 1363.28 Q56.1773 1370.39 57.9828 1373.96 Q59.8115 1377.5 63.4226 1377.5 Q67.0569 1377.5 68.8624 1373.96 Q70.6911 1370.39 70.6911 1363.28 Q70.6911 1356.15 68.8624 1352.61 Q67.0569 1349.05 63.4226 1349.05 M63.4226 1345.34 Q69.2328 1345.34 72.2883 1349.95 Q75.367 1354.53 75.367 1363.28 Q75.367 1372.01 72.2883 1376.62 Q69.2328 1381.2 63.4226 1381.2 Q57.6125 1381.2 54.5338 1376.62 Q51.4782 1372.01 51.4782 1363.28 Q51.4782 1354.53 54.5338 1349.95 Q57.6125 1345.34 63.4226 1345.34 Z" fill="#000000" fill-rule="evenodd" fill-opacity="1" /><path clip-path="url(#clip620)" d="M83.5845 1374.65 L88.4688 1374.65 L88.4688 1380.53 L83.5845 1380.53 L83.5845 1374.65 Z" fill="#000000" fill-rule="evenodd" fill-opacity="1" /><path clip-path="url(#clip620)" d="M108.654 1349.05 Q105.043 1349.05 103.214 1352.61 Q101.409 1356.15 101.409 1363.28 Q101.409 1370.39 103.214 1373.96 Q105.043 1377.5 108.654 1377.5 Q112.288 1377.5 114.094 1373.96 Q115.922 1370.39 115.922 1363.28 Q115.922 1356.15 114.094 1352.61 Q112.288 1349.05 108.654 1349.05 M108.654 1345.34 Q114.464 1345.34 117.52 1349.95 Q120.598 1354.53 120.598 1363.28 Q120.598 1372.01 117.52 1376.62 Q114.464 1381.2 108.654 1381.2 Q102.844 1381.2 99.765 1376.62 Q96.7095 1372.01 96.7095 1363.28 Q96.7095 1354.53 99.765 1349.95 Q102.844 1345.34 108.654 1345.34 Z" fill="#000000" fill-rule="evenodd" fill-opacity="1" /><path clip-path="url(#clip620)" d="M64.6495 1052.67 Q61.0384 1052.67 59.2097 1056.23 Q57.4041 1059.77 57.4041 1066.9 Q57.4041 1074.01 59.2097 1077.57 Q61.0384 1081.12 64.6495 1081.12 Q68.2837 1081.12 70.0892 1077.57 Q71.9179 1074.01 71.9179 1066.9 Q71.9179 1059.77 70.0892 1056.23 Q68.2837 1052.67 64.6495 1052.67 M64.6495 1048.96 Q70.4596 1048.96 73.5152 1053.57 Q76.5938 1058.15 76.5938 1066.9 Q76.5938 1075.63 73.5152 1080.24 Q70.4596 1084.82 64.6495 1084.82 Q58.8393 1084.82 55.7606 1080.24 Q52.7051 1075.63 52.7051 1066.9 Q52.7051 1058.15 55.7606 1053.57 Q58.8393 1048.96 64.6495 1048.96 Z" fill="#000000" fill-rule="evenodd" fill-opacity="1" /><path clip-path="url(#clip620)" d="M84.8114 1078.27 L89.6956 1078.27 L89.6956 1084.15 L84.8114 1084.15 L84.8114 1078.27 Z" fill="#000000" fill-rule="evenodd" fill-opacity="1" /><path clip-path="url(#clip620)" d="M100.691 1080.21 L108.33 1080.21 L108.33 1053.85 L100.02 1055.51 L100.02 1051.26 L108.283 1049.59 L112.959 1049.59 L112.959 1080.21 L120.598 1080.21 L120.598 1084.15 L100.691 1084.15 L100.691 1080.21 Z" fill="#000000" fill-rule="evenodd" fill-opacity="1" /><path clip-path="url(#clip620)" d="M65.0198 756.286 Q61.4087 756.286 59.58 759.851 Q57.7745 763.393 57.7745 770.522 Q57.7745 777.629 59.58 781.194 Q61.4087 784.735 65.0198 784.735 Q68.6541 784.735 70.4596 781.194 Q72.2883 777.629 72.2883 770.522 Q72.2883 763.393 70.4596 759.851 Q68.6541 756.286 65.0198 756.286 M65.0198 752.583 Q70.83 752.583 73.8855 757.189 Q76.9642 761.772 76.9642 770.522 Q76.9642 779.249 73.8855 783.856 Q70.83 788.439 65.0198 788.439 Q59.2097 788.439 56.131 783.856 Q53.0754 779.249 53.0754 770.522 Q53.0754 761.772 56.131 757.189 Q59.2097 752.583 65.0198 752.583 Z" fill="#000000" fill-rule="evenodd" fill-opacity="1" /><path clip-path="url(#clip620)" d="M85.1818 781.888 L90.066 781.888 L90.066 787.768 L85.1818 787.768 L85.1818 781.888 Z" fill="#000000" fill-rule="evenodd" fill-opacity="1" /><path clip-path="url(#clip620)" d="M104.279 783.832 L120.598 783.832 L120.598 787.768 L98.6539 787.768 L98.6539 783.832 Q101.316 781.078 105.899 776.448 Q110.506 771.795 111.686 770.453 Q113.932 767.93 114.811 766.194 Q115.714 764.434 115.714 762.745 Q115.714 759.99 113.77 758.254 Q111.848 756.518 108.746 756.518 Q106.547 756.518 104.094 757.282 Q101.663 758.046 98.8854 759.596 L98.8854 754.874 Q101.709 753.74 104.163 753.161 Q106.617 752.583 108.654 752.583 Q114.024 752.583 117.219 755.268 Q120.413 757.953 120.413 762.444 Q120.413 764.573 119.603 766.495 Q118.816 768.393 116.709 770.985 Q116.131 771.657 113.029 774.874 Q109.927 778.069 104.279 783.832 Z" fill="#000000" fill-rule="evenodd" fill-opacity="1" /><path clip-path="url(#clip620)" d="M64.0708 459.905 Q60.4597 459.905 58.631 463.47 Q56.8254 467.012 56.8254 474.141 Q56.8254 481.248 58.631 484.813 Q60.4597 488.354 64.0708 488.354 Q67.705 488.354 69.5105 484.813 Q71.3392 481.248 71.3392 474.141 Q71.3392 467.012 69.5105 463.47 Q67.705 459.905 64.0708 459.905 M64.0708 456.202 Q69.8809 456.202 72.9365 460.808 Q76.0151 465.391 76.0151 474.141 Q76.0151 482.868 72.9365 487.475 Q69.8809 492.058 64.0708 492.058 Q58.2606 492.058 55.1819 487.475 Q52.1264 482.868 52.1264 474.141 Q52.1264 465.391 55.1819 460.808 Q58.2606 456.202 64.0708 456.202 Z" fill="#000000" fill-rule="evenodd" fill-opacity="1" /><path clip-path="url(#clip620)" d="M84.2327 485.507 L89.1169 485.507 L89.1169 491.387 L84.2327 491.387 L84.2327 485.507 Z" fill="#000000" fill-rule="evenodd" fill-opacity="1" /><path clip-path="url(#clip620)" d="M113.469 472.752 Q116.825 473.47 118.7 475.739 Q120.598 478.007 120.598 481.34 Q120.598 486.456 117.08 489.257 Q113.561 492.058 107.08 492.058 Q104.904 492.058 102.589 491.618 Q100.297 491.201 97.8437 490.345 L97.8437 485.831 Q99.7882 486.965 102.103 487.544 Q104.418 488.123 106.941 488.123 Q111.339 488.123 113.631 486.387 Q115.945 484.65 115.945 481.34 Q115.945 478.285 113.793 476.572 Q111.663 474.836 107.844 474.836 L103.816 474.836 L103.816 470.993 L108.029 470.993 Q111.478 470.993 113.307 469.627 Q115.135 468.239 115.135 465.646 Q115.135 462.984 113.237 461.572 Q111.362 460.137 107.844 460.137 Q105.922 460.137 103.723 460.553 Q101.524 460.97 98.8854 461.85 L98.8854 457.683 Q101.547 456.942 103.862 456.572 Q106.2 456.202 108.26 456.202 Q113.584 456.202 116.686 458.632 Q119.788 461.04 119.788 465.16 Q119.788 468.03 118.145 470.021 Q116.501 471.989 113.469 472.752 Z" fill="#000000" fill-rule="evenodd" fill-opacity="1" /><path clip-path="url(#clip620)" d="M62.9365 163.524 Q59.3254 163.524 57.4967 167.089 Q55.6912 170.631 55.6912 177.76 Q55.6912 184.867 57.4967 188.432 Q59.3254 191.973 62.9365 191.973 Q66.5707 191.973 68.3763 188.432 Q70.205 184.867 70.205 177.76 Q70.205 170.631 68.3763 167.089 Q66.5707 163.524 62.9365 163.524 M62.9365 159.821 Q68.7467 159.821 71.8022 164.427 Q74.8809 169.01 74.8809 177.76 Q74.8809 186.487 71.8022 191.094 Q68.7467 195.677 62.9365 195.677 Q57.1264 195.677 54.0477 191.094 Q50.9921 186.487 50.9921 177.76 Q50.9921 169.01 54.0477 164.427 Q57.1264 159.821 62.9365 159.821 Z" fill="#000000" fill-rule="evenodd" fill-opacity="1" /><path clip-path="url(#clip620)" d="M83.0984 189.126 L87.9827 189.126 L87.9827 195.006 L83.0984 195.006 L83.0984 189.126 Z" fill="#000000" fill-rule="evenodd" fill-opacity="1" /><path clip-path="url(#clip620)" d="M111.015 164.52 L99.2095 182.969 L111.015 182.969 L111.015 164.52 M109.788 160.446 L115.668 160.446 L115.668 182.969 L120.598 182.969 L120.598 186.857 L115.668 186.857 L115.668 195.006 L111.015 195.006 L111.015 186.857 L95.4132 186.857 L95.4132 182.344 L109.788 160.446 Z" fill="#000000" fill-rule="evenodd" fill-opacity="1" /><polyline clip-path="url(#clip622)" style="stroke:#0000ff; stroke-linecap:butt; stroke-linejoin:round; stroke-width:4; stroke-opacity:1; fill:none" points="
  218.754,1363.25 239.681,1356.34 260.609,1343.91 281.537,1328.09 302.465,1309.68 323.392,1289.18 344.32,1266.91 365.248,1243.16 386.176,1218.12 407.103,1191.98 
  428.031,1164.88 448.959,1136.97 469.887,1108.35 490.814,1079.13 511.742,1049.42 532.67,1019.3 553.598,988.846 574.525,958.143 595.453,927.26 616.381,896.265 
  637.309,865.221 658.236,834.188 679.164,803.225 700.092,772.385 721.02,741.722 741.947,711.285 762.875,681.122 783.803,651.281 804.731,621.806 825.658,592.741 
  846.586,564.127 867.514,536.005 888.442,508.415 909.369,481.394 930.297,454.981 951.225,429.212 972.152,404.121 993.08,379.744 1014.01,356.115 1034.94,333.265 
  1055.86,311.228 1076.79,290.036 1097.72,269.718 1118.65,250.306 1139.57,231.829 1160.5,214.316 1181.43,197.796 1202.36,182.297 1223.29,167.846 1244.21,154.471 
  1265.14,142.199 1286.07,131.056 1307,121.067 1327.92,112.259 1348.85,104.656 1369.78,98.2826 1390.71,93.1641 1411.64,89.3241 1432.56,86.7863 1453.49,85.5744 
  1474.42,85.7112 1495.35,87.2198 1516.27,90.1226 1537.2,94.4419 1558.13,100.2 1579.06,107.418 1599.98,116.118 1620.91,126.321 1641.84,138.048 1662.77,151.32 
  1683.7,166.158 1704.62,182.581 1725.55,200.61 1746.48,220.266 1767.41,241.567 1788.33,264.533 1809.26,289.184 1830.19,315.539 1851.12,343.617 1872.05,373.437 
  1892.97,405.017 1913.9,438.376 1934.83,473.532 1955.76,510.504 1976.68,549.309 1997.61,589.966 2018.54,632.492 2039.47,676.904 2060.4,723.221 2081.32,771.46 
  2102.25,821.637 2123.18,873.77 2144.11,927.876 2165.03,983.971 2185.96,1042.07 2206.89,1102.2 2227.82,1164.36 2248.75,1228.58 2269.67,1294.87 2290.6,1363.25 
  
  "/>
<path clip-path="url(#clip620)" d="
M229.803 247.909 L691.875 247.909 L691.875 92.3886 L229.803 92.3886  Z
  " fill="#ffffff" fill-rule="evenodd" fill-opacity="1"/>
<polyline clip-path="url(#clip620)" style="stroke:#000000; stroke-linecap:butt; stroke-linejoin:round; stroke-width:4; stroke-opacity:1; fill:none" points="
  229.803,247.909 691.875,247.909 691.875,92.3886 229.803,92.3886 229.803,247.909 
  "/>
<polyline clip-path="url(#clip620)" style="stroke:#0000ff; stroke-linecap:butt; stroke-linejoin:round; stroke-width:4; stroke-opacity:1; fill:none" points="
  254.205,170.149 400.616,170.149 
  "/>
<path clip-path="url(#clip620)" d="M425.018 157.18 L431.406 157.18 L439.392 187.527 L447.344 157.18 L454.878 157.18 L462.865 187.527 L470.816 157.18 L477.205 157.18 L467.031 196.069 L459.496 196.069 L451.128 164.194 L442.726 196.069 L435.191 196.069 L425.018 157.18 Z" fill="#000000" fill-rule="evenodd" fill-opacity="1" /><path clip-path="url(#clip620)" d="M513.385 144.229 L532.239 163.569 L525.26 163.569 L509.982 149.854 L494.705 163.569 L487.726 163.569 L506.58 144.229 L513.385 144.229 Z" fill="#000000" fill-rule="evenodd" fill-opacity="1" /><path clip-path="url(#clip620)" d="M552.656 190.235 L552.656 210.86 L546.232 210.86 L546.232 157.18 L552.656 157.18 L552.656 163.083 Q554.67 159.61 557.725 157.944 Q560.815 156.242 565.086 156.242 Q572.169 156.242 576.579 161.867 Q581.024 167.492 581.024 176.659 Q581.024 185.826 576.579 191.451 Q572.169 197.076 565.086 197.076 Q560.815 197.076 557.725 195.409 Q554.67 193.708 552.656 190.235 M574.392 176.659 Q574.392 169.61 571.475 165.617 Q568.593 161.59 563.524 161.59 Q558.454 161.59 555.538 165.617 Q552.656 169.61 552.656 176.659 Q552.656 183.708 555.538 187.735 Q558.454 191.728 563.524 191.728 Q568.593 191.728 571.475 187.735 Q574.392 183.708 574.392 176.659 Z" fill="#000000" fill-rule="evenodd" fill-opacity="1" /><path clip-path="url(#clip620)" d="M623.94 172.597 L623.94 196.069 L617.551 196.069 L617.551 172.805 Q617.551 167.284 615.398 164.541 Q613.246 161.798 608.94 161.798 Q603.767 161.798 600.78 165.097 Q597.794 168.395 597.794 174.09 L597.794 196.069 L591.371 196.069 L591.371 142.041 L597.794 142.041 L597.794 163.222 Q600.086 159.715 603.176 157.979 Q606.301 156.242 610.364 156.242 Q617.065 156.242 620.503 160.409 Q623.94 164.541 623.94 172.597 Z" fill="#000000" fill-rule="evenodd" fill-opacity="1" /><path clip-path="url(#clip620)" d="M636.683 157.18 L643.072 157.18 L643.072 196.069 L636.683 196.069 L636.683 157.18 M636.683 142.041 L643.072 142.041 L643.072 150.131 L636.683 150.131 L636.683 142.041 Z" fill="#000000" fill-rule="evenodd" fill-opacity="1" /></svg>
