<?xml version="1.0" encoding="utf-8"?>
<svg xmlns="http://www.w3.org/2000/svg" xmlns:xlink="http://www.w3.org/1999/xlink" width="600" height="400" viewBox="0 0 2400 1600">
<defs>
  <clipPath id="clip220">
    <rect x="0" y="0" width="2400" height="1600"/>
  </clipPath>
</defs>
<path clip-path="url(#clip220)" d="
M0 1600 L2400 1600 L2400 0 L0 0  Z
  " fill="#ffffff" fill-rule="evenodd" fill-opacity="1"/>
<defs>
  <clipPath id="clip221">
    <rect x="480" y="0" width="1681" height="1600"/>
  </clipPath>
</defs>
<defs>
  <clipPath id="clip222">
    <rect x="271" y="47" width="2083" height="1355"/>
  </clipPath>
</defs>
<path clip-path="url(#clip220)" d="
M156.598 1401.58 L2352.76 1401.58 L2352.76 47.2441 L156.598 47.2441  Z
  " fill="#ffffff" fill-rule="evenodd" fill-opacity="1"/>
<defs>
  <clipPath id="clip223">
    <rect x="156" y="47" width="2197" height="1355"/>
  </clipPath>
</defs>
<polyline clip-path="url(#clip220)" style="stroke:#000000; stroke-linecap:butt; stroke-linejoin:round; stroke-width:4; stroke-opacity:1; fill:none" points="
  156.598,1401.58 2352.76,1401.58 
  "/>
<polyline clip-path="url(#clip220)" style="stroke:#000000; stroke-linecap:butt; stroke-linejoin:round; stroke-width:4; stroke-opacity:1; fill:none" points="
  218.754,1401.58 218.754,1382.68 
  "/>
<polyline clip-path="url(#clip220)" style="stroke:#000000; stroke-linecap:butt; stroke-linejoin:round; stroke-width:4; stroke-opacity:1; fill:none" points="
  736.715,1401.58 736.715,1382.68 
  "/>
<polyline clip-path="url(#clip220)" style="stroke:#000000; stroke-linecap:butt; stroke-linejoin:round; stroke-width:4; stroke-opacity:1; fill:none" points="
  1254.68,1401.58 1254.68,1382.68 
  "/>
<polyline clip-path="url(#clip220)" style="stroke:#000000; stroke-linecap:butt; stroke-linejoin:round; stroke-width:4; stroke-opacity:1; fill:none" points="
  1772.64,1401.58 1772.64,1382.68 
  "/>
<polyline clip-path="url(#clip220)" style="stroke:#000000; stroke-linecap:butt; stroke-linejoin:round; stroke-width:4; stroke-opacity:1; fill:none" points="
  2290.6,1401.58 2290.6,1382.68 
  "/>
<path clip-path="url(#clip220)" d="M181.057 1432.5 Q177.446 1432.5 175.617 1436.06 Q173.812 1439.6 173.812 1446.73 Q173.812 1453.84 175.617 1457.41 Q177.446 1460.95 181.057 1460.95 Q184.691 1460.95 186.497 1457.41 Q188.326 1453.84 188.326 1446.73 Q188.326 1439.6 186.497 1436.06 Q184.691 1432.5 181.057 1432.5 M181.057 1428.79 Q186.867 1428.79 189.923 1433.4 Q193.001 1437.98 193.001 1446.73 Q193.001 1455.46 189.923 1460.07 Q186.867 1464.65 181.057 1464.65 Q175.247 1464.65 172.168 1460.07 Q169.113 1455.46 169.113 1446.73 Q169.113 1437.98 172.168 1433.4 Q175.247 1428.79 181.057 1428.79 Z" fill="#000000" fill-rule="evenodd" fill-opacity="1" /><path clip-path="url(#clip220)" d="M201.219 1458.1 L206.103 1458.1 L206.103 1463.98 L201.219 1463.98 L201.219 1458.1 Z" fill="#000000" fill-rule="evenodd" fill-opacity="1" /><path clip-path="url(#clip220)" d="M226.288 1432.5 Q222.677 1432.5 220.849 1436.06 Q219.043 1439.6 219.043 1446.73 Q219.043 1453.84 220.849 1457.41 Q222.677 1460.95 226.288 1460.95 Q229.923 1460.95 231.728 1457.41 Q233.557 1453.84 233.557 1446.73 Q233.557 1439.6 231.728 1436.06 Q229.923 1432.5 226.288 1432.5 M226.288 1428.79 Q232.098 1428.79 235.154 1433.4 Q238.233 1437.98 238.233 1446.73 Q238.233 1455.46 235.154 1460.07 Q232.098 1464.65 226.288 1464.65 Q220.478 1464.65 217.399 1460.07 Q214.344 1455.46 214.344 1446.73 Q214.344 1437.98 217.399 1433.4 Q220.478 1428.79 226.288 1428.79 Z" fill="#000000" fill-rule="evenodd" fill-opacity="1" /><path clip-path="url(#clip220)" d="M256.45 1432.5 Q252.839 1432.5 251.01 1436.06 Q249.205 1439.6 249.205 1446.73 Q249.205 1453.84 251.01 1457.41 Q252.839 1460.95 256.45 1460.95 Q260.084 1460.95 261.89 1457.41 Q263.719 1453.84 263.719 1446.73 Q263.719 1439.6 261.89 1436.06 Q260.084 1432.5 256.45 1432.5 M256.45 1428.79 Q262.26 1428.79 265.316 1433.4 Q268.395 1437.98 268.395 1446.73 Q268.395 1455.46 265.316 1460.07 Q262.26 1464.65 256.45 1464.65 Q250.64 1464.65 247.561 1460.07 Q244.506 1455.46 244.506 1446.73 Q244.506 1437.98 247.561 1433.4 Q250.64 1428.79 256.45 1428.79 Z" fill="#000000" fill-rule="evenodd" fill-opacity="1" /><path clip-path="url(#clip220)" d="M699.516 1432.5 Q695.905 1432.5 694.077 1436.06 Q692.271 1439.6 692.271 1446.73 Q692.271 1453.84 694.077 1457.41 Q695.905 1460.95 699.516 1460.95 Q703.151 1460.95 704.956 1457.41 Q706.785 1453.84 706.785 1446.73 Q706.785 1439.6 704.956 1436.06 Q703.151 1432.5 699.516 1432.5 M699.516 1428.79 Q705.327 1428.79 708.382 1433.4 Q711.461 1437.98 711.461 1446.73 Q711.461 1455.46 708.382 1460.07 Q705.327 1464.65 699.516 1464.65 Q693.706 1464.65 690.628 1460.07 Q687.572 1455.46 687.572 1446.73 Q687.572 1437.98 690.628 1433.4 Q693.706 1428.79 699.516 1428.79 Z" fill="#000000" fill-rule="evenodd" fill-opacity="1" /><path clip-path="url(#clip220)" d="M719.678 1458.1 L724.563 1458.1 L724.563 1463.98 L719.678 1463.98 L719.678 1458.1 Z" fill="#000000" fill-rule="evenodd" fill-opacity="1" /><path clip-path="url(#clip220)" d="M738.776 1460.04 L755.095 1460.04 L755.095 1463.98 L733.151 1463.98 L733.151 1460.04 Q735.813 1457.29 740.396 1452.66 Q745.002 1448.01 746.183 1446.67 Q748.428 1444.14 749.308 1442.41 Q750.211 1440.65 750.211 1438.96 Q750.211 1436.2 748.266 1434.47 Q746.345 1432.73 743.243 1432.73 Q741.044 1432.73 738.59 1433.49 Q736.16 1434.26 733.382 1435.81 L733.382 1431.09 Q736.206 1429.95 738.66 1429.37 Q741.113 1428.79 743.151 1428.79 Q748.521 1428.79 751.715 1431.48 Q754.91 1434.17 754.91 1438.66 Q754.91 1440.79 754.1 1442.71 Q753.312 1444.6 751.206 1447.2 Q750.627 1447.87 747.525 1451.09 Q744.424 1454.28 738.776 1460.04 Z" fill="#000000" fill-rule="evenodd" fill-opacity="1" /><path clip-path="url(#clip220)" d="M764.956 1429.42 L783.312 1429.42 L783.312 1433.36 L769.238 1433.36 L769.238 1441.83 Q770.257 1441.48 771.275 1441.32 Q772.294 1441.13 773.312 1441.13 Q779.099 1441.13 782.479 1444.3 Q785.859 1447.48 785.859 1452.89 Q785.859 1458.47 782.386 1461.57 Q778.914 1464.65 772.595 1464.65 Q770.419 1464.65 768.15 1464.28 Q765.905 1463.91 763.498 1463.17 L763.498 1458.47 Q765.581 1459.6 767.803 1460.16 Q770.025 1460.72 772.502 1460.72 Q776.507 1460.72 778.845 1458.61 Q781.183 1456.5 781.183 1452.89 Q781.183 1449.28 778.845 1447.17 Q776.507 1445.07 772.502 1445.07 Q770.627 1445.07 768.752 1445.48 Q766.9 1445.9 764.956 1446.78 L764.956 1429.42 Z" fill="#000000" fill-rule="evenodd" fill-opacity="1" /><path clip-path="url(#clip220)" d="M1216.98 1432.5 Q1213.37 1432.5 1211.54 1436.06 Q1209.74 1439.6 1209.74 1446.73 Q1209.74 1453.84 1211.54 1457.41 Q1213.37 1460.95 1216.98 1460.95 Q1220.61 1460.95 1222.42 1457.41 Q1224.25 1453.84 1224.25 1446.73 Q1224.25 1439.6 1222.42 1436.06 Q1220.61 1432.5 1216.98 1432.5 M1216.98 1428.79 Q1222.79 1428.79 1225.85 1433.4 Q1228.92 1437.98 1228.92 1446.73 Q1228.92 1455.46 1225.85 1460.07 Q1222.79 1464.65 1216.98 1464.65 Q1211.17 1464.65 1208.09 1460.07 Q1205.04 1455.46 1205.04 1446.73 Q1205.04 1437.98 1208.09 1433.4 Q1211.17 1428.79 1216.98 1428.79 Z" fill="#000000" fill-rule="evenodd" fill-opacity="1" /><path clip-path="url(#clip220)" d="M1237.14 1458.1 L1242.03 1458.1 L1242.03 1463.98 L1237.14 1463.98 L1237.14 1458.1 Z" fill="#000000" fill-rule="evenodd" fill-opacity="1" /><path clip-path="url(#clip220)" d="M1252.26 1429.42 L1270.61 1429.42 L1270.61 1433.36 L1256.54 1433.36 L1256.54 1441.83 Q1257.56 1441.48 1258.58 1441.32 Q1259.6 1441.13 1260.61 1441.13 Q1266.4 1441.13 1269.78 1444.3 Q1273.16 1447.48 1273.16 1452.89 Q1273.16 1458.47 1269.69 1461.57 Q1266.22 1464.65 1259.9 1464.65 Q1257.72 1464.65 1255.45 1464.28 Q1253.21 1463.91 1250.8 1463.17 L1250.8 1458.47 Q1252.88 1459.6 1255.11 1460.16 Q1257.33 1460.72 1259.8 1460.72 Q1263.81 1460.72 1266.15 1458.61 Q1268.48 1456.5 1268.48 1452.89 Q1268.48 1449.28 1266.15 1447.17 Q1263.81 1445.07 1259.8 1445.07 Q1257.93 1445.07 1256.05 1445.48 Q1254.2 1445.9 1252.26 1446.78 L1252.26 1429.42 Z" fill="#000000" fill-rule="evenodd" fill-opacity="1" /><path clip-path="url(#clip220)" d="M1292.37 1432.5 Q1288.76 1432.5 1286.93 1436.06 Q1285.13 1439.6 1285.13 1446.73 Q1285.13 1453.84 1286.93 1457.41 Q1288.76 1460.95 1292.37 1460.95 Q1296.01 1460.95 1297.81 1457.41 Q1299.64 1453.84 1299.64 1446.73 Q1299.64 1439.6 1297.81 1436.06 Q1296.01 1432.5 1292.37 1432.5 M1292.37 1428.79 Q1298.18 1428.79 1301.24 1433.4 Q1304.32 1437.98 1304.32 1446.73 Q1304.32 1455.46 1301.24 1460.07 Q1298.18 1464.65 1292.37 1464.65 Q1286.56 1464.65 1283.48 1460.07 Q1280.43 1455.46 1280.43 1446.73 Q1280.43 1437.98 1283.48 1433.4 Q1286.56 1428.79 1292.37 1428.79 Z" fill="#000000" fill-rule="evenodd" fill-opacity="1" /><path clip-path="url(#clip220)" d="M1735.44 1432.5 Q1731.83 1432.5 1730 1436.06 Q1728.19 1439.6 1728.19 1446.73 Q1728.19 1453.84 1730 1457.41 Q1731.83 1460.95 1735.44 1460.95 Q1739.07 1460.95 1740.88 1457.41 Q1742.71 1453.84 1742.71 1446.73 Q1742.71 1439.6 1740.88 1436.06 Q1739.07 1432.5 1735.44 1432.5 M1735.44 1428.79 Q1741.25 1428.79 1744.31 1433.4 Q1747.38 1437.98 1747.38 1446.73 Q1747.38 1455.46 1744.31 1460.07 Q1741.25 1464.65 1735.44 1464.65 Q1729.63 1464.65 1726.55 1460.07 Q1723.5 1455.46 1723.5 1446.73 Q1723.5 1437.98 1726.55 1433.4 Q1729.63 1428.79 1735.44 1428.79 Z" fill="#000000" fill-rule="evenodd" fill-opacity="1" /><path clip-path="url(#clip220)" d="M1755.6 1458.1 L1760.49 1458.1 L1760.49 1463.98 L1755.6 1463.98 L1755.6 1458.1 Z" fill="#000000" fill-rule="evenodd" fill-opacity="1" /><path clip-path="url(#clip220)" d="M1769.49 1429.42 L1791.71 1429.42 L1791.71 1431.41 L1779.17 1463.98 L1774.28 1463.98 L1786.09 1433.36 L1769.49 1433.36 L1769.49 1429.42 Z" fill="#000000" fill-rule="evenodd" fill-opacity="1" /><path clip-path="url(#clip220)" d="M1800.88 1429.42 L1819.24 1429.42 L1819.24 1433.36 L1805.16 1433.36 L1805.16 1441.83 Q1806.18 1441.48 1807.2 1441.32 Q1808.22 1441.13 1809.24 1441.13 Q1815.02 1441.13 1818.4 1444.3 Q1821.78 1447.48 1821.78 1452.89 Q1821.78 1458.47 1818.31 1461.57 Q1814.84 1464.65 1808.52 1464.65 Q1806.34 1464.65 1804.07 1464.28 Q1801.83 1463.91 1799.42 1463.17 L1799.42 1458.47 Q1801.5 1459.6 1803.73 1460.16 Q1805.95 1460.72 1808.43 1460.72 Q1812.43 1460.72 1814.77 1458.61 Q1817.11 1456.5 1817.11 1452.89 Q1817.11 1449.28 1814.77 1447.17 Q1812.43 1445.07 1808.43 1445.07 Q1806.55 1445.07 1804.68 1445.48 Q1802.82 1445.9 1800.88 1446.78 L1800.88 1429.42 Z" fill="#000000" fill-rule="evenodd" fill-opacity="1" /><path clip-path="url(#clip220)" d="M2242.67 1460.04 L2250.31 1460.04 L2250.31 1433.68 L2242 1435.35 L2242 1431.09 L2250.27 1429.42 L2254.94 1429.42 L2254.94 1460.04 L2262.58 1460.04 L2262.58 1463.98 L2242.67 1463.98 L2242.67 1460.04 Z" fill="#000000" fill-rule="evenodd" fill-opacity="1" /><path clip-path="url(#clip220)" d="M2272.02 1458.1 L2276.91 1458.1 L2276.91 1463.98 L2272.02 1463.98 L2272.02 1458.1 Z" fill="#000000" fill-rule="evenodd" fill-opacity="1" /><path clip-path="url(#clip220)" d="M2297.09 1432.5 Q2293.48 1432.5 2291.65 1436.06 Q2289.85 1439.6 2289.85 1446.73 Q2289.85 1453.84 2291.65 1457.41 Q2293.48 1460.95 2297.09 1460.95 Q2300.73 1460.95 2302.53 1457.41 Q2304.36 1453.84 2304.36 1446.73 Q2304.36 1439.6 2302.53 1436.06 Q2300.73 1432.5 2297.09 1432.5 M2297.09 1428.79 Q2302.9 1428.79 2305.96 1433.4 Q2309.04 1437.98 2309.04 1446.73 Q2309.04 1455.46 2305.96 1460.07 Q2302.9 1464.65 2297.09 1464.65 Q2291.28 1464.65 2288.2 1460.07 Q2285.15 1455.46 2285.15 1446.73 Q2285.15 1437.98 2288.2 1433.4 Q2291.28 1428.79 2297.09 1428.79 Z" fill="#000000" fill-rule="evenodd" fill-opacity="1" /><path clip-path="url(#clip220)" d="M2327.26 1432.5 Q2323.64 1432.5 2321.82 1436.06 Q2320.01 1439.6 2320.01 1446.73 Q2320.01 1453.84 2321.82 1457.41 Q2323.64 1460.95 2327.26 1460.95 Q2330.89 1460.95 2332.7 1457.41 Q2334.52 1453.84 2334.52 1446.73 Q2334.52 1439.6 2332.7 1436.06 Q2330.89 1432.5 2327.26 1432.5 M2327.26 1428.79 Q2333.07 1428.79 2336.12 1433.4 Q2339.2 1437.98 2339.2 1446.73 Q2339.2 1455.46 2336.12 1460.07 Q2333.07 1464.65 2327.26 1464.65 Q2321.45 1464.65 2318.37 1460.07 Q2315.31 1455.46 2315.31 1446.73 Q2315.31 1437.98 2318.37 1433.4 Q2321.45 1428.79 2327.26 1428.79 Z" fill="#000000" fill-rule="evenodd" fill-opacity="1" /><path clip-path="url(#clip220)" d="M1276.69 1553.15 Q1276.69 1557.88 1274.25 1562.61 Q1271.82 1567.34 1267.83 1570.99 Q1263.85 1574.6 1258.42 1576.94 Q1252.98 1579.29 1247.32 1579.47 L1243.66 1593.76 Q1242.96 1597.23 1242.58 1597.6 Q1242.21 1597.98 1241.65 1597.98 Q1240.48 1597.98 1240.48 1596.9 Q1240.48 1596.57 1242.58 1588.47 L1244.83 1579.47 Q1236.31 1579.01 1231.34 1574.09 Q1226.38 1569.17 1226.38 1562.09 Q1226.38 1557.32 1228.81 1552.58 Q1231.3 1547.81 1235.28 1544.2 Q1239.31 1540.59 1244.74 1538.3 Q1250.17 1536 1255.75 1535.81 L1261.32 1513.66 Q1261.6 1512.39 1261.84 1512.06 Q1262.07 1511.74 1262.77 1511.74 Q1263.29 1511.74 1263.57 1511.97 Q1263.85 1512.2 1263.85 1512.44 L1263.9 1512.67 L1263.62 1514.03 L1258.23 1535.81 Q1263.01 1536.14 1266.71 1537.83 Q1270.41 1539.52 1272.52 1542.04 Q1274.63 1544.53 1275.66 1547.34 Q1276.69 1550.15 1276.69 1553.15 M1255.19 1537.92 Q1250.03 1538.39 1245.68 1540.92 Q1241.32 1543.45 1238.51 1547.2 Q1235.7 1550.9 1234.15 1555.35 Q1232.61 1559.75 1232.61 1564.11 Q1232.61 1567.53 1233.73 1570.15 Q1234.9 1572.77 1236.82 1574.27 Q1238.74 1575.73 1240.85 1576.52 Q1243.01 1577.27 1245.3 1577.37 L1255.19 1537.92 M1270.41 1551.13 Q1270.41 1545.04 1266.9 1541.62 Q1263.38 1538.2 1257.67 1537.92 L1247.78 1577.37 Q1251.95 1577.04 1255.61 1575.3 Q1259.31 1573.52 1261.98 1570.9 Q1264.65 1568.23 1266.57 1564.95 Q1268.49 1561.63 1269.43 1558.11 Q1270.41 1554.55 1270.41 1551.13 Z" fill="#000000" fill-rule="evenodd" fill-opacity="1" /><polyline clip-path="url(#clip220)" style="stroke:#000000; stroke-linecap:butt; stroke-linejoin:round; stroke-width:4; stroke-opacity:1; fill:none" points="
  156.598,1401.58 156.598,47.2441 
  "/>
<polyline clip-path="url(#clip220)" style="stroke:#000000; stroke-linecap:butt; stroke-linejoin:round; stroke-width:4; stroke-opacity:1; fill:none" points="
  156.598,1363.25 175.496,1363.25 
  "/>
<polyline clip-path="url(#clip220)" style="stroke:#000000; stroke-linecap:butt; stroke-linejoin:round; stroke-width:4; stroke-opacity:1; fill:none" points="
  156.598,1066.87 175.496,1066.87 
  "/>
<polyline clip-path="url(#clip220)" style="stroke:#000000; stroke-linecap:butt; stroke-linejoin:round; stroke-width:4; stroke-opacity:1; fill:none" points="
  156.598,770.488 175.496,770.488 
  "/>
<polyline clip-path="url(#clip220)" style="stroke:#000000; stroke-linecap:butt; stroke-linejoin:round; stroke-width:4; stroke-opacity:1; fill:none" points="
  156.598,474.107 175.496,474.107 
  "/>
<polyline clip-path="url(#clip220)" style="stroke:#000000; stroke-linecap:butt; stroke-linejoin:round; stroke-width:4; stroke-opacity:1; fill:none" points="
  156.598,177.726 175.496,177.726 
  "/>
<path clip-path="url(#clip220)" d="M63.4226 1349.05 Q59.8115 1349.05 57.9828 1352.61 Q56.1773 1356.15 56.1773 1363.28 Q56.1773 1370.39 57.9828 1373.96 Q59.8115 1377.5 63.4226 1377.5 Q67.0569 1377.5 68.8624 1373.96 Q70.6911 1370.39 70.6911 1363.28 Q70.6911 1356.15 68.8624 1352.61 Q67.0569 1349.05 63.4226 1349.05 M63.4226 1345.34 Q69.2328 1345.34 72.2883 1349.95 Q75.367 1354.53 75.367 1363.28 Q75.367 1372.01 72.2883 1376.62 Q69.2328 1381.2 63.4226 1381.2 Q57.6125 1381.2 54.5338 1376.62 Q51.4782 1372.01 51.4782 1363.28 Q51.4782 1354.53 54.5338 1349.95 Q57.6125 1345.34 63.4226 1345.34 Z" fill="#000000" fill-rule="evenodd" fill-opacity="1" /><path clip-path="url(#clip220)" d="M83.5845 1374.65 L88.4688 1374.65 L88.4688 1380.53 L83.5845 1380.53 L83.5845 1374.65 Z" fill="#000000" fill-rule="evenodd" fill-opacity="1" /><path clip-path="url(#clip220)" d="M108.654 1349.05 Q105.043 1349.05 103.214 1352.61 Q101.409 1356.15 101.409 1363.28 Q101.409 1370.39 103.214 1373.96 Q105.043 1377.5 108.654 1377.5 Q112.288 1377.5 114.094 1373.96 Q115.922 1370.39 115.922 1363.28 Q115.922 1356.15 114.094 1352.61 Q112.288 1349.05 108.654 1349.05 M108.654 1345.34 Q114.464 1345.34 117.52 1349.95 Q120.598 1354.53 120.598 1363.28 Q120.598 1372.01 117.52 1376.62 Q114.464 1381.2 108.654 1381.2 Q102.844 1381.2 99.765 1376.62 Q96.7095 1372.01 96.7095 1363.28 Q96.7095 1354.53 99.765 1349.95 Q102.844 1345.34 108.654 1345.34 Z" fill="#000000" fill-rule="evenodd" fill-opacity="1" /><path clip-path="url(#clip220)" d="M64.6495 1052.67 Q61.0384 1052.67 59.2097 1056.23 Q57.4041 1059.77 57.4041 1066.9 Q57.4041 1074.01 59.2097 1077.57 Q61.0384 1081.12 64.6495 1081.12 Q68.2837 1081.12 70.0892 1077.57 Q71.9179 1074.01 71.9179 1066.9 Q71.9179 1059.77 70.0892 1056.23 Q68.2837 1052.67 64.6495 1052.67 M64.6495 1048.96 Q70.4596 1048.96 73.5152 1053.57 Q76.5938 1058.15 76.5938 1066.9 Q76.5938 1075.63 73.5152 1080.24 Q70.4596 1084.82 64.6495 1084.82 Q58.8393 1084.82 55.7606 1080.24 Q52.7051 1075.63 52.7051 1066.9 Q52.7051 1058.15 55.7606 1053.57 Q58.8393 1048.96 64.6495 1048.96 Z" fill="#000000" fill-rule="evenodd" fill-opacity="1" /><path clip-path="url(#clip220)" d="M84.8114 1078.27 L89.6956 1078.27 L89.6956 1084.15 L84.8114 1084.15 L84.8114 1078.27 Z" fill="#000000" fill-rule="evenodd" fill-opacity="1" /><path clip-path="url(#clip220)" d="M100.691 1080.21 L108.33 1080.21 L108.33 1053.85 L100.02 1055.51 L100.02 1051.26 L108.283 1049.59 L112.959 1049.59 L112.959 1080.21 L120.598 1080.21 L120.598 1084.15 L100.691 1084.15 L100.691 1080.21 Z" fill="#000000" fill-rule="evenodd" fill-opacity="1" /><path clip-path="url(#clip220)" d="M65.0198 756.286 Q61.4087 756.286 59.58 759.851 Q57.7745 763.393 57.7745 770.522 Q57.7745 777.629 59.58 781.194 Q61.4087 784.735 65.0198 784.735 Q68.6541 784.735 70.4596 781.194 Q72.2883 777.629 72.2883 770.522 Q72.2883 763.393 70.4596 759.851 Q68.6541 756.286 65.0198 756.286 M65.0198 752.583 Q70.83 752.583 73.8855 757.189 Q76.9642 761.772 76.9642 770.522 Q76.9642 779.249 73.8855 783.856 Q70.83 788.439 65.0198 788.439 Q59.2097 788.439 56.131 783.856 Q53.0754 779.249 53.0754 770.522 Q53.0754 761.772 56.131 757.189 Q59.2097 752.583 65.0198 752.583 Z" fill="#000000" fill-rule="evenodd" fill-opacity="1" /><path clip-path="url(#clip220)" d="M85.1818 781.888 L90.066 781.888 L90.066 787.768 L85.1818 787.768 L85.1818 781.888 Z" fill="#000000" fill-rule="evenodd" fill-opacity="1" /><path clip-path="url(#clip220)" d="M104.279 783.832 L120.598 783.832 L120.598 787.768 L98.6539 787.768 L98.6539 783.832 Q101.316 781.078 105.899 776.448 Q110.506 771.795 111.686 770.453 Q113.932 767.93 114.811 766.194 Q115.714 764.434 115.714 762.745 Q115.714 759.99 113.77 758.254 Q111.848 756.518 108.746 756.518 Q106.547 756.518 104.094 757.282 Q101.663 758.046 98.8854 759.596 L98.8854 754.874 Q101.709 753.74 104.163 753.161 Q106.617 752.583 108.654 752.583 Q114.024 752.583 117.219 755.268 Q120.413 757.953 120.413 762.444 Q120.413 764.573 119.603 766.495 Q118.816 768.393 116.709 770.985 Q116.131 771.657 113.029 774.874 Q109.927 778.069 104.279 783.832 Z" fill="#000000" fill-rule="evenodd" fill-opacity="1" /><path clip-path="url(#clip220)" d="M64.0708 459.905 Q60.4597 459.905 58.631 463.47 Q56.8254 467.012 56.8254 474.141 Q56.8254 481.248 58.631 484.813 Q60.4597 488.354 64.0708 488.354 Q67.705 488.354 69.5105 484.813 Q71.3392 481.248 71.3392 474.141 Q71.3392 467.012 69.5105 463.47 Q67.705 459.905 64.0708 459.905 M64.0708 456.202 Q69.8809 456.202 72.9365 460.808 Q76.0151 465.391 76.0151 474.141 Q76.0151 482.868 72.9365 487.475 Q69.8809 492.058 64.0708 492.058 Q58.2606 492.058 55.1819 487.475 Q52.1264 482.868 52.1264 474.141 Q52.1264 465.391 55.1819 460.808 Q58.2606 456.202 64.0708 456.202 Z" fill="#000000" fill-rule="evenodd" fill-opacity="1" /><path clip-path="url(#clip220)" d="M84.2327 485.507 L89.1169 485.507 L89.1169 491.387 L84.2327 491.387 L84.2327 485.507 Z" fill="#000000" fill-rule="evenodd" fill-opacity="1" /><path clip-path="url(#clip220)" d="M113.469 472.752 Q116.825 473.47 118.7 475.739 Q120.598 478.007 120.598 481.34 Q120.598 486.456 117.08 489.257 Q113.561 492.058 107.08 492.058 Q104.904 492.058 102.589 491.618 Q100.297 491.201 97.8437 490.345 L97.8437 485.831 Q99.7882 486.965 102.103 487.544 Q104.418 488.123 106.941 488.123 Q111.339 488.123 113.631 486.387 Q115.945 484.65 115.945 481.34 Q115.945 478.285 113.793 476.572 Q111.663 474.836 107.844 474.836 L103.816 474.836 L103.816 470.993 L108.029 470.993 Q111.478 470.993 113.307 469.627 Q115.135 468.239 115.135 465.646 Q115.135 462.984 113.237 461.572 Q111.362 460.137 107.844 460.137 Q105.922 460.137 103.723 460.553 Q101.524 460.97 98.8854 461.85 L98.8854 457.683 Q101.547 456.942 103.862 456.572 Q106.2 456.202 108.26 456.202 Q113.584 456.202 116.686 458.632 Q119.788 461.04 119.788 465.16 Q119.788 468.03 118.145 470.021 Q116.501 471.989 113.469 472.752 Z" fill="#000000" fill-rule="evenodd" fill-opacity="1" /><path clip-path="url(#clip220)" d="M62.9365 163.524 Q59.3254 163.524 57.4967 167.089 Q55.6912 170.631 55.6912 177.76 Q55.6912 184.867 57.4967 188.432 Q59.3254 191.973 62.9365 191.973 Q66.5707 191.973 68.3763 188.432 Q70.205 184.867 70.205 177.76 Q70.205 170.631 68.3763 167.089 Q66.5707 163.524 62.9365 163.524 M62.9365 159.821 Q68.7467 159.821 71.8022 164.427 Q74.8809 169.01 74.8809 177.76 Q74.8809 186.487 71.8022 191.094 Q68.7467 195.677 62.9365 195.677 Q57.1264 195.677 54.0477 191.094 Q50.9921 186.487 50.9921 177.76 Q50.9921 169.01 54.0477 164.427 Q57.1264 159.821 62.9365 159.821 Z" fill="#000000" fill-rule="evenodd" fill-opacity="1" /><path clip-path="url(#clip220)" d="M83.0984 189.126 L87.9827 189.126 L87.9827 195.006 L83.0984 195.006 L83.0984 189.126 Z" fill="#000000" fill-rule="evenodd" fill-opacity="1" /><path clip-path="url(#clip220)" d="M111.015 164.52 L99.2095 182.969 L111.015 182.969 L111.015 164.52 M109.788 160.446 L115.668 160.446 L115.668 182.969 L120.598 182.969 L120.598 186.857 L115.668 186.857 L115.668 195.006 L111.015 195.006 L111.015 186.857 L95.4132 186.857 L95.4132 182.344 L109.788 160.446 Z" fill="#000000" fill-rule="evenodd" fill-opacity="1" /><polyline clip-path="url(#clip223)" style="stroke:#0000ff; stroke-linecap:butt; stroke-linejoin:round; stroke-width:4; stroke-opacity:1; fill:none" points="
  218.754,1363.25 239.681,1356.34 260.609,1343.91 281.537,1328.09 302.465,1309.68 323.392,1289.18 344.32,1266.91 365.248,1243.16 386.176,1218.12 407.103,1191.98 
  428.031,1164.88 448.959,1136.97 469.887,1108.35 490.814,1079.13 511.742,1049.42 532.67,1019.3 553.598,988.846 574.525,958.143 595.453,927.26 616.381,896.265 
  637.309,865.221 658.236,834.188 679.164,803.225 700.092,772.385 721.02,741.722 741.947,711.285 762.875,681.122 783.803,651.281 804.731,621.806 825.658,592.741 
  846.586,564.127 867.514,536.005 888.442,508.415 909.369,481.394 930.297,454.981 951.225,429.212 972.152,404.121 993.08,379.744 1014.01,356.115 1034.94,333.265 
  1055.86,311.228 1076.79,290.036 1097.72,269.718 1118.65,250.306 1139.57,231.829 1160.5,214.316 1181.43,197.796 1202.36,182.297 1223.29,167.846 1244.21,154.471 
  1265.14,142.199 1286.07,131.056 1307,121.067 1327.92,112.259 1348.85,104.656 1369.78,98.2826 1390.71,93.1641 1411.64,89.3241 1432.56,86.7863 1453.49,85.5744 
  1474.42,85.7112 1495.35,87.2198 1516.27,90.1226 1537.2,94.4419 1558.13,100.2 1579.06,107.418 1599.98,116.118 1620.91,126.321 1641.84,138.048 1662.77,151.32 
  1683.7,166.158 1704.62,182.581 1725.55,200.61 1746.48,220.266 1767.41,241.567 1788.33,264.533 1809.26,289.184 1830.19,315.539 1851.12,343.617 1872.05,373.437 
  1892.97,405.017 1913.9,438.376 1934.83,473.532 1955.76,510.504 1976.68,549.309 1997.61,589.966 2018.54,632.492 2039.47,676.904 2060.4,723.221 2081.32,771.46 
  2102.25,821.637 2123.18,873.77 2144.11,927.876 2165.03,983.971 2185.96,1042.07 2206.89,1102.2 2227.82,1164.36 2248.75,1228.58 2269.67,1294.87 2290.6,1363.25 
  
  "/>
<path clip-path="url(#clip220)" d="
M229.803 247.909 L562.504 247.909 L562.504 92.3886 L229.803 92.3886  Z
  " fill="#ffffff" fill-rule="evenodd" fill-opacity="1"/>
<polyline clip-path="url(#clip220)" style="stroke:#000000; stroke-linecap:butt; stroke-linejoin:round; stroke-width:4; stroke-opacity:1; fill:none" points="
  229.803,247.909 562.504,247.909 562.504,92.3886 229.803,92.3886 229.803,247.909 
  "/>
<polyline clip-path="url(#clip220)" style="stroke:#0000ff; stroke-linecap:butt; stroke-linejoin:round; stroke-width:4; stroke-opacity:1; fill:none" points="
  254.205,170.149 400.616,170.149 
  "/>
<path clip-path="url(#clip220)" d="M472.659 186.318 Q472.659 189.023 471.183 194.996 Q469.708 200.969 467.916 205.044 Q464.086 213.898 457.481 213.898 Q456.673 213.898 455.865 213.827 Q455.092 213.757 453.933 213.441 Q452.773 213.125 451.824 212.633 Q450.876 212.106 449.927 211.122 Q449.014 210.138 448.487 208.838 Q445.571 213.898 441.003 213.898 Q436.576 213.898 433.66 211.649 Q430.779 209.401 430.779 204.798 Q430.779 202.725 431.623 199.669 Q432.466 196.612 434.82 190.288 Q436.12 187.02 436.12 185.229 Q436.12 184.421 435.944 183.894 Q435.768 183.367 435.417 183.191 Q435.101 182.98 434.89 182.945 Q434.679 182.875 434.328 182.875 Q432.22 182.875 430.323 185.018 Q428.425 187.126 427.055 191.799 Q426.774 192.677 426.599 192.888 Q426.423 193.099 425.896 193.099 Q425.018 193.063 425.018 192.361 Q425.018 192.08 425.334 190.991 Q425.65 189.866 426.388 188.215 Q427.161 186.529 428.215 185.018 Q429.269 183.472 430.92 182.383 Q432.606 181.294 434.539 181.294 Q437.139 181.294 438.79 183.015 Q440.441 184.737 440.441 187.196 Q440.441 187.899 440.266 188.672 Q440.09 189.41 439.914 189.901 Q439.774 190.358 439.212 191.799 Q436.893 197.877 436.155 200.793 Q435.452 203.709 435.452 205.747 Q435.452 206.414 435.487 206.941 Q435.522 207.468 435.804 208.557 Q436.12 209.647 436.682 210.384 Q437.244 211.087 438.403 211.684 Q439.598 212.282 441.214 212.282 Q445.254 212.282 447.854 206.239 Q447.784 205.887 447.784 204.974 Q447.784 202.936 448.417 200.196 Q448.592 199.563 449.611 195.523 Q450.63 191.447 451.508 187.899 Q452.422 184.315 452.527 184.104 Q452.879 183.121 453.651 182.594 Q454.424 182.067 455.197 182.067 Q456.076 182.067 456.673 182.594 Q457.27 183.121 457.27 184.034 Q457.27 184.21 457.059 185.018 Q456.884 185.791 456.603 186.95 Q456.322 188.11 456.181 188.707 L453.16 200.793 Q452.387 203.604 452.387 206.028 Q452.387 209.084 453.757 210.701 Q455.127 212.282 457.692 212.282 Q462.505 212.282 465.597 205.958 Q467.002 203.217 468.267 198.931 Q469.567 194.644 469.567 192.782 Q469.567 189.269 466.967 186.669 Q466.405 186.177 466.159 185.791 Q465.913 185.369 465.913 184.737 Q465.913 183.542 467.037 182.418 Q468.162 181.294 469.497 181.294 Q470.691 181.294 471.675 182.488 Q472.659 183.648 472.659 186.318 Z" fill="#000000" fill-rule="evenodd" fill-opacity="1" /><path clip-path="url(#clip220)" d="M506.283 168.557 Q506.283 171.041 505.004 173.525 Q503.725 176.009 501.635 177.927 Q499.544 179.821 496.691 181.051 Q493.839 182.28 490.863 182.379 L488.944 189.88 Q488.576 191.7 488.379 191.896 Q488.182 192.093 487.887 192.093 Q487.272 192.093 487.272 191.528 Q487.272 191.355 488.379 187.101 L489.559 182.379 Q485.083 182.133 482.476 179.55 Q479.869 176.968 479.869 173.255 Q479.869 170.746 481.148 168.262 Q482.452 165.753 484.542 163.86 Q486.657 161.966 489.51 160.761 Q492.363 159.556 495.29 159.458 L498.216 147.825 Q498.364 147.161 498.487 146.989 Q498.61 146.816 498.979 146.816 Q499.249 146.816 499.397 146.939 Q499.544 147.062 499.544 147.185 L499.569 147.308 L499.421 148.022 L496.593 159.458 Q499.102 159.63 501.044 160.515 Q502.987 161.4 504.094 162.728 Q505.201 164.032 505.742 165.508 Q506.283 166.983 506.283 168.557 M494.994 160.564 Q492.289 160.81 490.002 162.138 Q487.715 163.466 486.239 165.434 Q484.764 167.377 483.952 169.713 Q483.14 172.025 483.14 174.312 Q483.14 176.107 483.731 177.485 Q484.345 178.862 485.354 179.649 Q486.362 180.411 487.469 180.829 Q488.6 181.223 489.805 181.272 L494.994 160.564 M502.987 167.5 Q502.987 164.302 501.143 162.507 Q499.298 160.712 496.298 160.564 L491.109 181.272 Q493.297 181.1 495.216 180.19 Q497.159 179.255 498.56 177.878 Q499.962 176.476 500.971 174.755 Q501.979 173.009 502.471 171.164 Q502.987 169.295 502.987 167.5 Z" fill="#000000" fill-rule="evenodd" fill-opacity="1" /></svg>
