<?xml version="1.0" encoding="utf-8"?>
<svg xmlns="http://www.w3.org/2000/svg" xmlns:xlink="http://www.w3.org/1999/xlink" width="600" height="400" viewBox="0 0 2400 1600">
<defs>
  <clipPath id="clip010">
    <rect x="0" y="0" width="2400" height="1600"/>
  </clipPath>
</defs>
<path clip-path="url(#clip010)" d="
M0 1600 L2400 1600 L2400 0 L0 0  Z
  " fill="#ffffff" fill-rule="evenodd" fill-opacity="1"/>
<defs>
  <clipPath id="clip011">
    <rect x="480" y="0" width="1681" height="1600"/>
  </clipPath>
</defs>
<defs>
  <clipPath id="clip012">
    <rect x="148" y="47" width="2206" height="1440"/>
  </clipPath>
</defs>
<path clip-path="url(#clip010)" d="
M156.598 1486.45 L2352.76 1486.45 L2352.76 123.472 L156.598 123.472  Z
  " fill="#ffffff" fill-rule="evenodd" fill-opacity="1"/>
<defs>
  <clipPath id="clip013">
    <rect x="156" y="123" width="2197" height="1364"/>
  </clipPath>
</defs>
<polyline clip-path="url(#clip010)" style="stroke:#000000; stroke-linecap:butt; stroke-linejoin:round; stroke-width:4; stroke-opacity:1; fill:none" points="
  156.598,1486.45 2352.76,1486.45 
  "/>
<polyline clip-path="url(#clip010)" style="stroke:#000000; stroke-linecap:butt; stroke-linejoin:round; stroke-width:4; stroke-opacity:1; fill:none" points="
  514.732,1486.45 514.732,1467.55 
  "/>
<polyline clip-path="url(#clip010)" style="stroke:#000000; stroke-linecap:butt; stroke-linejoin:round; stroke-width:4; stroke-opacity:1; fill:none" points="
  1106.69,1486.45 1106.69,1467.55 
  "/>
<polyline clip-path="url(#clip010)" style="stroke:#000000; stroke-linecap:butt; stroke-linejoin:round; stroke-width:4; stroke-opacity:1; fill:none" points="
  1698.64,1486.45 1698.64,1467.55 
  "/>
<polyline clip-path="url(#clip010)" style="stroke:#000000; stroke-linecap:butt; stroke-linejoin:round; stroke-width:4; stroke-opacity:1; fill:none" points="
  2290.6,1486.45 2290.6,1467.55 
  "/>
<path clip-path="url(#clip010)" d="M515.137 1529.7 Q511.989 1529.7 510.137 1531.86 Q508.308 1534.01 508.308 1537.76 Q508.308 1541.49 510.137 1543.66 Q511.989 1545.82 515.137 1545.82 Q518.285 1545.82 520.114 1543.66 Q521.966 1541.49 521.966 1537.76 Q521.966 1534.01 520.114 1531.86 Q518.285 1529.7 515.137 1529.7 M524.419 1515.05 L524.419 1519.31 Q522.66 1518.48 520.854 1518.04 Q519.072 1517.6 517.313 1517.6 Q512.683 1517.6 510.229 1520.72 Q507.799 1523.85 507.452 1530.17 Q508.817 1528.15 510.878 1527.09 Q512.938 1526 515.415 1526 Q520.623 1526 523.632 1529.17 Q526.665 1532.32 526.665 1537.76 Q526.665 1543.08 523.516 1546.3 Q520.368 1549.52 515.137 1549.52 Q509.142 1549.52 505.97 1544.94 Q502.799 1540.33 502.799 1531.6 Q502.799 1523.41 506.688 1518.55 Q510.577 1513.66 517.128 1513.66 Q518.887 1513.66 520.669 1514.01 Q522.475 1514.36 524.419 1515.05 Z" fill="#000000" fill-rule="evenodd" fill-opacity="1" /><path clip-path="url(#clip010)" d="M1106.69 1532.44 Q1103.35 1532.44 1101.43 1534.22 Q1099.54 1536 1099.54 1539.13 Q1099.54 1542.25 1101.43 1544.03 Q1103.35 1545.82 1106.69 1545.82 Q1110.02 1545.82 1111.94 1544.03 Q1113.86 1542.23 1113.86 1539.13 Q1113.86 1536 1111.94 1534.22 Q1110.04 1532.44 1106.69 1532.44 M1102.01 1530.45 Q1099 1529.7 1097.31 1527.64 Q1095.65 1525.58 1095.65 1522.62 Q1095.65 1518.48 1098.59 1516.07 Q1101.55 1513.66 1106.69 1513.66 Q1111.85 1513.66 1114.79 1516.07 Q1117.73 1518.48 1117.73 1522.62 Q1117.73 1525.58 1116.04 1527.64 Q1114.37 1529.7 1111.39 1530.45 Q1114.77 1531.23 1116.64 1533.52 Q1118.54 1535.82 1118.54 1539.13 Q1118.54 1544.15 1115.46 1546.83 Q1112.41 1549.52 1106.69 1549.52 Q1100.97 1549.52 1097.89 1546.83 Q1094.84 1544.15 1094.84 1539.13 Q1094.84 1535.82 1096.73 1533.52 Q1098.63 1531.23 1102.01 1530.45 M1100.3 1523.06 Q1100.3 1525.75 1101.97 1527.25 Q1103.66 1528.76 1106.69 1528.76 Q1109.7 1528.76 1111.39 1527.25 Q1113.1 1525.75 1113.1 1523.06 Q1113.1 1520.38 1111.39 1518.87 Q1109.7 1517.37 1106.69 1517.37 Q1103.66 1517.37 1101.97 1518.87 Q1100.3 1520.38 1100.3 1523.06 Z" fill="#000000" fill-rule="evenodd" fill-opacity="1" /><path clip-path="url(#clip010)" d="M1673.33 1544.91 L1680.97 1544.91 L1680.97 1518.55 L1672.66 1520.21 L1672.66 1515.95 L1680.92 1514.29 L1685.6 1514.29 L1685.6 1544.91 L1693.24 1544.91 L1693.24 1548.85 L1673.33 1548.85 L1673.33 1544.91 Z" fill="#000000" fill-rule="evenodd" fill-opacity="1" /><path clip-path="url(#clip010)" d="M1712.68 1517.37 Q1709.07 1517.37 1707.24 1520.93 Q1705.44 1524.47 1705.44 1531.6 Q1705.44 1538.71 1707.24 1542.27 Q1709.07 1545.82 1712.68 1545.82 Q1716.32 1545.82 1718.12 1542.27 Q1719.95 1538.71 1719.95 1531.6 Q1719.95 1524.47 1718.12 1520.93 Q1716.32 1517.37 1712.68 1517.37 M1712.68 1513.66 Q1718.49 1513.66 1721.55 1518.27 Q1724.63 1522.85 1724.63 1531.6 Q1724.63 1540.33 1721.55 1544.94 Q1718.49 1549.52 1712.68 1549.52 Q1706.87 1549.52 1703.79 1544.94 Q1700.74 1540.33 1700.74 1531.6 Q1700.74 1522.85 1703.79 1518.27 Q1706.87 1513.66 1712.68 1513.66 Z" fill="#000000" fill-rule="evenodd" fill-opacity="1" /><path clip-path="url(#clip010)" d="M2266.09 1544.91 L2273.73 1544.91 L2273.73 1518.55 L2265.42 1520.21 L2265.42 1515.95 L2273.68 1514.29 L2278.36 1514.29 L2278.36 1544.91 L2285.99 1544.91 L2285.99 1548.85 L2266.09 1548.85 L2266.09 1544.91 Z" fill="#000000" fill-rule="evenodd" fill-opacity="1" /><path clip-path="url(#clip010)" d="M2299.47 1544.91 L2315.79 1544.91 L2315.79 1548.85 L2293.84 1548.85 L2293.84 1544.91 Q2296.5 1542.16 2301.09 1537.53 Q2305.69 1532.88 2306.87 1531.53 Q2309.12 1529.01 2310 1527.27 Q2310.9 1525.51 2310.9 1523.82 Q2310.9 1521.07 2308.96 1519.33 Q2307.04 1517.6 2303.93 1517.6 Q2301.73 1517.6 2299.28 1518.36 Q2296.85 1519.13 2294.07 1520.68 L2294.07 1515.95 Q2296.9 1514.82 2299.35 1514.24 Q2301.8 1513.66 2303.84 1513.66 Q2309.21 1513.66 2312.41 1516.35 Q2315.6 1519.03 2315.6 1523.52 Q2315.6 1525.65 2314.79 1527.57 Q2314 1529.47 2311.9 1532.07 Q2311.32 1532.74 2308.22 1535.95 Q2305.11 1539.15 2299.47 1544.91 Z" fill="#000000" fill-rule="evenodd" fill-opacity="1" /><polyline clip-path="url(#clip010)" style="stroke:#000000; stroke-linecap:butt; stroke-linejoin:round; stroke-width:4; stroke-opacity:1; fill:none" points="
  156.598,1486.45 156.598,123.472 
  "/>
<polyline clip-path="url(#clip010)" style="stroke:#000000; stroke-linecap:butt; stroke-linejoin:round; stroke-width:4; stroke-opacity:1; fill:none" points="
  156.598,1447.87 175.496,1447.87 
  "/>
<polyline clip-path="url(#clip010)" style="stroke:#000000; stroke-linecap:butt; stroke-linejoin:round; stroke-width:4; stroke-opacity:1; fill:none" points="
  156.598,1159.51 175.496,1159.51 
  "/>
<polyline clip-path="url(#clip010)" style="stroke:#000000; stroke-linecap:butt; stroke-linejoin:round; stroke-width:4; stroke-opacity:1; fill:none" points="
  156.598,871.155 175.496,871.155 
  "/>
<polyline clip-path="url(#clip010)" style="stroke:#000000; stroke-linecap:butt; stroke-linejoin:round; stroke-width:4; stroke-opacity:1; fill:none" points="
  156.598,582.796 175.496,582.796 
  "/>
<polyline clip-path="url(#clip010)" style="stroke:#000000; stroke-linecap:butt; stroke-linejoin:round; stroke-width:4; stroke-opacity:1; fill:none" points="
  156.598,294.438 175.496,294.438 
  "/>
<path clip-path="url(#clip010)" d="M63.4226 1433.67 Q59.8115 1433.67 57.9828 1437.24 Q56.1773 1440.78 56.1773 1447.91 Q56.1773 1455.01 57.9828 1458.58 Q59.8115 1462.12 63.4226 1462.12 Q67.0569 1462.12 68.8624 1458.58 Q70.6911 1455.01 70.6911 1447.91 Q70.6911 1440.78 68.8624 1437.24 Q67.0569 1433.67 63.4226 1433.67 M63.4226 1429.97 Q69.2328 1429.97 72.2883 1434.57 Q75.367 1439.16 75.367 1447.91 Q75.367 1456.63 72.2883 1461.24 Q69.2328 1465.82 63.4226 1465.82 Q57.6125 1465.82 54.5338 1461.24 Q51.4782 1456.63 51.4782 1447.91 Q51.4782 1439.16 54.5338 1434.57 Q57.6125 1429.97 63.4226 1429.97 Z" fill="#000000" fill-rule="evenodd" fill-opacity="1" /><path clip-path="url(#clip010)" d="M83.5845 1459.27 L88.4688 1459.27 L88.4688 1465.15 L83.5845 1465.15 L83.5845 1459.27 Z" fill="#000000" fill-rule="evenodd" fill-opacity="1" /><path clip-path="url(#clip010)" d="M108.654 1433.67 Q105.043 1433.67 103.214 1437.24 Q101.409 1440.78 101.409 1447.91 Q101.409 1455.01 103.214 1458.58 Q105.043 1462.12 108.654 1462.12 Q112.288 1462.12 114.094 1458.58 Q115.922 1455.01 115.922 1447.91 Q115.922 1440.78 114.094 1437.24 Q112.288 1433.67 108.654 1433.67 M108.654 1429.97 Q114.464 1429.97 117.52 1434.57 Q120.598 1439.16 120.598 1447.91 Q120.598 1456.63 117.52 1461.24 Q114.464 1465.82 108.654 1465.82 Q102.844 1465.82 99.765 1461.24 Q96.7095 1456.63 96.7095 1447.91 Q96.7095 1439.16 99.765 1434.57 Q102.844 1429.97 108.654 1429.97 Z" fill="#000000" fill-rule="evenodd" fill-opacity="1" /><path clip-path="url(#clip010)" d="M65.0198 1145.31 Q61.4087 1145.31 59.58 1148.88 Q57.7745 1152.42 57.7745 1159.55 Q57.7745 1166.66 59.58 1170.22 Q61.4087 1173.76 65.0198 1173.76 Q68.6541 1173.76 70.4596 1170.22 Q72.2883 1166.66 72.2883 1159.55 Q72.2883 1152.42 70.4596 1148.88 Q68.6541 1145.31 65.0198 1145.31 M65.0198 1141.61 Q70.83 1141.61 73.8855 1146.22 Q76.9642 1150.8 76.9642 1159.55 Q76.9642 1168.28 73.8855 1172.88 Q70.83 1177.47 65.0198 1177.47 Q59.2097 1177.47 56.131 1172.88 Q53.0754 1168.28 53.0754 1159.55 Q53.0754 1150.8 56.131 1146.22 Q59.2097 1141.61 65.0198 1141.61 Z" fill="#000000" fill-rule="evenodd" fill-opacity="1" /><path clip-path="url(#clip010)" d="M85.1818 1170.91 L90.066 1170.91 L90.066 1176.79 L85.1818 1176.79 L85.1818 1170.91 Z" fill="#000000" fill-rule="evenodd" fill-opacity="1" /><path clip-path="url(#clip010)" d="M104.279 1172.86 L120.598 1172.86 L120.598 1176.79 L98.6539 1176.79 L98.6539 1172.86 Q101.316 1170.1 105.899 1165.47 Q110.506 1160.82 111.686 1159.48 Q113.932 1156.96 114.811 1155.22 Q115.714 1153.46 115.714 1151.77 Q115.714 1149.02 113.77 1147.28 Q111.848 1145.54 108.746 1145.54 Q106.547 1145.54 104.094 1146.31 Q101.663 1147.07 98.8854 1148.62 L98.8854 1143.9 Q101.709 1142.77 104.163 1142.19 Q106.617 1141.61 108.654 1141.61 Q114.024 1141.61 117.219 1144.29 Q120.413 1146.98 120.413 1151.47 Q120.413 1153.6 119.603 1155.52 Q118.816 1157.42 116.709 1160.01 Q116.131 1160.68 113.029 1163.9 Q109.927 1167.1 104.279 1172.86 Z" fill="#000000" fill-rule="evenodd" fill-opacity="1" /><path clip-path="url(#clip010)" d="M62.9365 856.954 Q59.3254 856.954 57.4967 860.519 Q55.6912 864.06 55.6912 871.19 Q55.6912 878.296 57.4967 881.861 Q59.3254 885.403 62.9365 885.403 Q66.5707 885.403 68.3763 881.861 Q70.205 878.296 70.205 871.19 Q70.205 864.06 68.3763 860.519 Q66.5707 856.954 62.9365 856.954 M62.9365 853.25 Q68.7467 853.25 71.8022 857.857 Q74.8809 862.44 74.8809 871.19 Q74.8809 879.917 71.8022 884.523 Q68.7467 889.107 62.9365 889.107 Q57.1264 889.107 54.0477 884.523 Q50.9921 879.917 50.9921 871.19 Q50.9921 862.44 54.0477 857.857 Q57.1264 853.25 62.9365 853.25 Z" fill="#000000" fill-rule="evenodd" fill-opacity="1" /><path clip-path="url(#clip010)" d="M83.0984 882.556 L87.9827 882.556 L87.9827 888.435 L83.0984 888.435 L83.0984 882.556 Z" fill="#000000" fill-rule="evenodd" fill-opacity="1" /><path clip-path="url(#clip010)" d="M111.015 857.949 L99.2095 876.398 L111.015 876.398 L111.015 857.949 M109.788 853.875 L115.668 853.875 L115.668 876.398 L120.598 876.398 L120.598 880.287 L115.668 880.287 L115.668 888.435 L111.015 888.435 L111.015 880.287 L95.4132 880.287 L95.4132 875.773 L109.788 853.875 Z" fill="#000000" fill-rule="evenodd" fill-opacity="1" /><path clip-path="url(#clip010)" d="M63.2606 568.595 Q59.6495 568.595 57.8208 572.16 Q56.0152 575.702 56.0152 582.831 Q56.0152 589.938 57.8208 593.502 Q59.6495 597.044 63.2606 597.044 Q66.8948 597.044 68.7004 593.502 Q70.5291 589.938 70.5291 582.831 Q70.5291 575.702 68.7004 572.16 Q66.8948 568.595 63.2606 568.595 M63.2606 564.891 Q69.0707 564.891 72.1263 569.498 Q75.205 574.081 75.205 582.831 Q75.205 591.558 72.1263 596.164 Q69.0707 600.748 63.2606 600.748 Q57.4504 600.748 54.3717 596.164 Q51.3162 591.558 51.3162 582.831 Q51.3162 574.081 54.3717 569.498 Q57.4504 564.891 63.2606 564.891 Z" fill="#000000" fill-rule="evenodd" fill-opacity="1" /><path clip-path="url(#clip010)" d="M83.4225 594.197 L88.3067 594.197 L88.3067 600.076 L83.4225 600.076 L83.4225 594.197 Z" fill="#000000" fill-rule="evenodd" fill-opacity="1" /><path clip-path="url(#clip010)" d="M109.071 580.933 Q105.922 580.933 104.071 583.086 Q102.242 585.239 102.242 588.988 Q102.242 592.715 104.071 594.891 Q105.922 597.044 109.071 597.044 Q112.219 597.044 114.047 594.891 Q115.899 592.715 115.899 588.988 Q115.899 585.239 114.047 583.086 Q112.219 580.933 109.071 580.933 M118.353 566.28 L118.353 570.54 Q116.594 569.706 114.788 569.266 Q113.006 568.827 111.246 568.827 Q106.617 568.827 104.163 571.952 Q101.733 575.077 101.385 581.396 Q102.751 579.382 104.811 578.317 Q106.871 577.229 109.348 577.229 Q114.557 577.229 117.566 580.401 Q120.598 583.549 120.598 588.988 Q120.598 594.313 117.45 597.53 Q114.302 600.748 109.071 600.748 Q103.075 600.748 99.9039 596.164 Q96.7326 591.558 96.7326 582.831 Q96.7326 574.637 100.621 569.776 Q104.51 564.891 111.061 564.891 Q112.82 564.891 114.603 565.239 Q116.408 565.586 118.353 566.28 Z" fill="#000000" fill-rule="evenodd" fill-opacity="1" /><path clip-path="url(#clip010)" d="M63.5152 280.236 Q59.9041 280.236 58.0754 283.801 Q56.2699 287.343 56.2699 294.472 Q56.2699 301.579 58.0754 305.143 Q59.9041 308.685 63.5152 308.685 Q67.1494 308.685 68.955 305.143 Q70.7837 301.579 70.7837 294.472 Q70.7837 287.343 68.955 283.801 Q67.1494 280.236 63.5152 280.236 M63.5152 276.533 Q69.3254 276.533 72.3809 281.139 Q75.4596 285.722 75.4596 294.472 Q75.4596 303.199 72.3809 307.805 Q69.3254 312.389 63.5152 312.389 Q57.7051 312.389 54.6264 307.805 Q51.5708 303.199 51.5708 294.472 Q51.5708 285.722 54.6264 281.139 Q57.7051 276.533 63.5152 276.533 Z" fill="#000000" fill-rule="evenodd" fill-opacity="1" /><path clip-path="url(#clip010)" d="M83.6771 305.838 L88.5614 305.838 L88.5614 311.718 L83.6771 311.718 L83.6771 305.838 Z" fill="#000000" fill-rule="evenodd" fill-opacity="1" /><path clip-path="url(#clip010)" d="M108.746 295.306 Q105.413 295.306 103.492 297.088 Q101.594 298.87 101.594 301.995 Q101.594 305.12 103.492 306.903 Q105.413 308.685 108.746 308.685 Q112.08 308.685 114.001 306.903 Q115.922 305.097 115.922 301.995 Q115.922 298.87 114.001 297.088 Q112.103 295.306 108.746 295.306 M104.071 293.315 Q101.061 292.574 99.3715 290.514 Q97.7048 288.454 97.7048 285.491 Q97.7048 281.347 100.645 278.94 Q103.608 276.533 108.746 276.533 Q113.908 276.533 116.848 278.94 Q119.788 281.347 119.788 285.491 Q119.788 288.454 118.098 290.514 Q116.432 292.574 113.445 293.315 Q116.825 294.102 118.7 296.394 Q120.598 298.685 120.598 301.995 Q120.598 307.018 117.52 309.704 Q114.464 312.389 108.746 312.389 Q103.029 312.389 99.9502 309.704 Q96.8947 307.018 96.8947 301.995 Q96.8947 298.685 98.7928 296.394 Q100.691 294.102 104.071 293.315 M102.358 285.931 Q102.358 288.616 104.024 290.12 Q105.714 291.625 108.746 291.625 Q111.756 291.625 113.445 290.12 Q115.158 288.616 115.158 285.931 Q115.158 283.245 113.445 281.741 Q111.756 280.236 108.746 280.236 Q105.714 280.236 104.024 281.741 Q102.358 283.245 102.358 285.931 Z" fill="#000000" fill-rule="evenodd" fill-opacity="1" /><path clip-path="url(#clip010)" d="M682.295 25.3744 L717.051 25.3744 L717.051 32.261 L690.477 32.261 L690.477 50.085 L714.459 50.085 L714.459 56.9715 L690.477 56.9715 L690.477 85.8544 L682.295 85.8544 L682.295 25.3744 Z" fill="#000000" fill-rule="evenodd" fill-opacity="1" /><path clip-path="url(#clip010)" d="M723.654 40.4843 L731.108 40.4843 L731.108 85.8544 L723.654 85.8544 L723.654 40.4843 M723.654 22.8224 L731.108 22.8224 L731.108 32.261 L723.654 32.261 L723.654 22.8224 Z" fill="#000000" fill-rule="evenodd" fill-opacity="1" /><path clip-path="url(#clip010)" d="M772.994 47.4519 Q771.739 46.7227 770.24 46.3986 Q768.781 46.034 766.999 46.034 Q760.68 46.034 757.277 50.166 Q753.915 54.2574 753.915 61.9541 L753.915 85.8544 L746.42 85.8544 L746.42 40.4843 L753.915 40.4843 L753.915 47.5329 Q756.264 43.401 760.031 41.416 Q763.799 39.3906 769.187 39.3906 Q769.956 39.3906 770.888 39.5121 Q771.82 39.5931 772.954 39.7957 L772.994 47.4519 Z" fill="#000000" fill-rule="evenodd" fill-opacity="1" /><path clip-path="url(#clip010)" d="M809.736 41.8211 L809.736 48.8697 Q806.576 47.2493 803.174 46.4391 Q799.771 45.629 796.125 45.629 Q790.575 45.629 787.78 47.3303 Q785.026 49.0317 785.026 52.4345 Q785.026 55.0271 787.011 56.5259 Q788.995 57.9842 794.991 59.321 L797.543 59.8881 Q805.483 61.5895 808.804 64.7087 Q812.167 67.7874 812.167 73.3371 Q812.167 79.6566 807.144 83.3429 Q802.161 87.0292 793.411 87.0292 Q789.765 87.0292 785.795 86.3 Q781.866 85.6114 777.491 84.1936 L777.491 76.4968 Q781.623 78.6438 785.633 79.7376 Q789.644 80.7908 793.573 80.7908 Q798.839 80.7908 801.675 79.0084 Q804.51 77.1855 804.51 73.9043 Q804.51 70.8661 802.444 69.2457 Q800.419 67.6254 793.492 66.1265 L790.899 65.5189 Q783.972 64.0606 780.894 61.0629 Q777.815 58.0247 777.815 52.7586 Q777.815 46.3581 782.352 42.8743 Q786.889 39.3906 795.234 39.3906 Q799.366 39.3906 803.012 39.9982 Q806.657 40.6058 809.736 41.8211 Z" fill="#000000" fill-rule="evenodd" fill-opacity="1" /><path clip-path="url(#clip010)" d="M831.408 27.6024 L831.408 40.4843 L846.761 40.4843 L846.761 46.2771 L831.408 46.2771 L831.408 70.9066 Q831.408 76.4563 832.907 78.0362 Q834.447 79.616 839.105 79.616 L846.761 79.616 L846.761 85.8544 L839.105 85.8544 Q830.477 85.8544 827.195 82.6542 Q823.914 79.4135 823.914 70.9066 L823.914 46.2771 L818.446 46.2771 L818.446 40.4843 L823.914 40.4843 L823.914 27.6024 L831.408 27.6024 Z" fill="#000000" fill-rule="evenodd" fill-opacity="1" /><path clip-path="url(#clip010)" d="M884.07 25.3744 L916.194 25.3744 L916.194 32.261 L891.564 32.261 L891.564 47.0873 Q893.347 46.4796 895.129 46.1961 Q896.912 45.872 898.694 45.872 Q908.821 45.872 914.736 51.4218 Q920.65 56.9715 920.65 66.4506 Q920.65 76.2133 914.573 81.6415 Q908.497 87.0292 897.438 87.0292 Q893.63 87.0292 889.66 86.3811 Q885.731 85.7329 881.518 84.4366 L881.518 76.2133 Q885.164 78.1982 889.053 79.1704 Q892.942 80.1427 897.276 80.1427 Q904.284 80.1427 908.376 76.4563 Q912.467 72.77 912.467 66.4506 Q912.467 60.1312 908.376 56.4449 Q904.284 52.7586 897.276 52.7586 Q893.995 52.7586 890.714 53.4877 Q887.473 54.2169 884.07 55.7562 L884.07 25.3744 Z" fill="#000000" fill-rule="evenodd" fill-opacity="1" /><path clip-path="url(#clip010)" d="M991.946 47.3708 L991.946 22.8224 L999.399 22.8224 L999.399 85.8544 L991.946 85.8544 L991.946 79.0489 Q989.596 83.0998 985.991 85.0848 Q982.426 87.0292 977.403 87.0292 Q969.18 87.0292 963.995 80.4667 Q958.85 73.9043 958.85 63.2099 Q958.85 52.5155 963.995 45.953 Q969.18 39.3906 977.403 39.3906 Q982.426 39.3906 985.991 41.3755 Q989.596 43.3199 991.946 47.3708 M966.547 63.2099 Q966.547 71.4332 969.909 76.1323 Q973.312 80.7908 979.226 80.7908 Q985.14 80.7908 988.543 76.1323 Q991.946 71.4332 991.946 63.2099 Q991.946 54.9865 988.543 50.328 Q985.14 45.629 979.226 45.629 Q973.312 45.629 969.909 50.328 Q966.547 54.9865 966.547 63.2099 Z" fill="#000000" fill-rule="evenodd" fill-opacity="1" /><path clip-path="url(#clip010)" d="M1053.56 61.306 L1053.56 64.9518 L1019.29 64.9518 Q1019.78 72.6485 1023.91 76.6994 Q1028.08 80.7098 1035.49 80.7098 Q1039.79 80.7098 1043.8 79.6566 Q1047.85 78.6033 1051.82 76.4968 L1051.82 83.5454 Q1047.81 85.2468 1043.59 86.138 Q1039.38 87.0292 1035.05 87.0292 Q1024.19 87.0292 1017.83 80.7098 Q1011.51 74.3904 1011.51 63.615 Q1011.51 52.475 1017.51 45.953 Q1023.54 39.3906 1033.75 39.3906 Q1042.91 39.3906 1048.21 45.3049 Q1053.56 51.1787 1053.56 61.306 M1046.11 59.1185 Q1046.03 53.0016 1042.66 49.3558 Q1039.34 45.71 1033.83 45.71 Q1027.59 45.71 1023.83 49.2343 Q1020.1 52.7586 1019.53 59.159 L1046.11 59.1185 Z" fill="#000000" fill-rule="evenodd" fill-opacity="1" /><path clip-path="url(#clip010)" d="M1103.51 58.4703 L1103.51 85.8544 L1096.05 85.8544 L1096.05 58.7134 Q1096.05 52.2724 1093.54 49.0722 Q1091.03 45.872 1086.01 45.872 Q1079.97 45.872 1076.49 49.7204 Q1073 53.5687 1073 60.2122 L1073 85.8544 L1065.51 85.8544 L1065.51 40.4843 L1073 40.4843 L1073 47.5329 Q1075.68 43.4415 1079.28 41.416 Q1082.93 39.3906 1087.67 39.3906 Q1095.49 39.3906 1099.5 44.2517 Q1103.51 49.0722 1103.51 58.4703 Z" fill="#000000" fill-rule="evenodd" fill-opacity="1" /><path clip-path="url(#clip010)" d="M1147.3 41.8211 L1147.3 48.8697 Q1144.14 47.2493 1140.74 46.4391 Q1137.33 45.629 1133.69 45.629 Q1128.14 45.629 1125.34 47.3303 Q1122.59 49.0317 1122.59 52.4345 Q1122.59 55.0271 1124.57 56.5259 Q1126.56 57.9842 1132.55 59.321 L1135.1 59.8881 Q1143.04 61.5895 1146.37 64.7087 Q1149.73 67.7874 1149.73 73.3371 Q1149.73 79.6566 1144.71 83.3429 Q1139.72 87.0292 1130.97 87.0292 Q1127.33 87.0292 1123.36 86.3 Q1119.43 85.6114 1115.05 84.1936 L1115.05 76.4968 Q1119.18 78.6438 1123.2 79.7376 Q1127.21 80.7908 1131.13 80.7908 Q1136.4 80.7908 1139.24 79.0084 Q1142.07 77.1855 1142.07 73.9043 Q1142.07 70.8661 1140.01 69.2457 Q1137.98 67.6254 1131.05 66.1265 L1128.46 65.5189 Q1121.53 64.0606 1118.46 61.0629 Q1115.38 58.0247 1115.38 52.7586 Q1115.38 46.3581 1119.91 42.8743 Q1124.45 39.3906 1132.8 39.3906 Q1136.93 39.3906 1140.57 39.9982 Q1144.22 40.6058 1147.3 41.8211 Z" fill="#000000" fill-rule="evenodd" fill-opacity="1" /><path clip-path="url(#clip010)" d="M1161.6 40.4843 L1169.05 40.4843 L1169.05 85.8544 L1161.6 85.8544 L1161.6 40.4843 M1161.6 22.8224 L1169.05 22.8224 L1169.05 32.261 L1161.6 32.261 L1161.6 22.8224 Z" fill="#000000" fill-rule="evenodd" fill-opacity="1" /><path clip-path="url(#clip010)" d="M1192.02 27.6024 L1192.02 40.4843 L1207.37 40.4843 L1207.37 46.2771 L1192.02 46.2771 L1192.02 70.9066 Q1192.02 76.4563 1193.52 78.0362 Q1195.06 79.616 1199.72 79.616 L1207.37 79.616 L1207.37 85.8544 L1199.72 85.8544 Q1191.09 85.8544 1187.81 82.6542 Q1184.53 79.4135 1184.53 70.9066 L1184.53 46.2771 L1179.06 46.2771 L1179.06 40.4843 L1184.53 40.4843 L1184.53 27.6024 L1192.02 27.6024 Z" fill="#000000" fill-rule="evenodd" fill-opacity="1" /><path clip-path="url(#clip010)" d="M1217.18 40.4843 L1224.63 40.4843 L1224.63 85.8544 L1217.18 85.8544 L1217.18 40.4843 M1217.18 22.8224 L1224.63 22.8224 L1224.63 32.261 L1217.18 32.261 L1217.18 22.8224 Z" fill="#000000" fill-rule="evenodd" fill-opacity="1" /><path clip-path="url(#clip010)" d="M1279.03 61.306 L1279.03 64.9518 L1244.76 64.9518 Q1245.25 72.6485 1249.38 76.6994 Q1253.55 80.7098 1260.97 80.7098 Q1265.26 80.7098 1269.27 79.6566 Q1273.32 78.6033 1277.29 76.4968 L1277.29 83.5454 Q1273.28 85.2468 1269.07 86.138 Q1264.86 87.0292 1260.52 87.0292 Q1249.66 87.0292 1243.3 80.7098 Q1236.98 74.3904 1236.98 63.615 Q1236.98 52.475 1242.98 45.953 Q1249.02 39.3906 1259.22 39.3906 Q1268.38 39.3906 1273.69 45.3049 Q1279.03 51.1787 1279.03 61.306 M1271.58 59.1185 Q1271.5 53.0016 1268.14 49.3558 Q1264.81 45.71 1259.31 45.71 Q1253.07 45.71 1249.3 49.2343 Q1245.57 52.7586 1245.01 59.159 L1271.58 59.1185 Z" fill="#000000" fill-rule="evenodd" fill-opacity="1" /><path clip-path="url(#clip010)" d="M1320.19 41.8211 L1320.19 48.8697 Q1317.03 47.2493 1313.63 46.4391 Q1310.23 45.629 1306.58 45.629 Q1301.03 45.629 1298.23 47.3303 Q1295.48 49.0317 1295.48 52.4345 Q1295.48 55.0271 1297.46 56.5259 Q1299.45 57.9842 1305.45 59.321 L1308 59.8881 Q1315.94 61.5895 1319.26 64.7087 Q1322.62 67.7874 1322.62 73.3371 Q1322.62 79.6566 1317.6 83.3429 Q1312.62 87.0292 1303.87 87.0292 Q1300.22 87.0292 1296.25 86.3 Q1292.32 85.6114 1287.95 84.1936 L1287.95 76.4968 Q1292.08 78.6438 1296.09 79.7376 Q1300.1 80.7908 1304.03 80.7908 Q1309.29 80.7908 1312.13 79.0084 Q1314.96 77.1855 1314.96 73.9043 Q1314.96 70.8661 1312.9 69.2457 Q1310.87 67.6254 1303.95 66.1265 L1301.35 65.5189 Q1294.43 64.0606 1291.35 61.0629 Q1288.27 58.0247 1288.27 52.7586 Q1288.27 46.3581 1292.81 42.8743 Q1297.34 39.3906 1305.69 39.3906 Q1309.82 39.3906 1313.47 39.9982 Q1317.11 40.6058 1320.19 41.8211 Z" fill="#000000" fill-rule="evenodd" fill-opacity="1" /><path clip-path="url(#clip010)" d="M1356.53 40.4843 L1363.98 40.4843 L1373.3 75.8892 L1382.57 40.4843 L1391.36 40.4843 L1400.68 75.8892 L1409.96 40.4843 L1417.41 40.4843 L1405.54 85.8544 L1396.75 85.8544 L1386.99 48.6671 L1377.19 85.8544 L1368.4 85.8544 L1356.53 40.4843 Z" fill="#000000" fill-rule="evenodd" fill-opacity="1" /><path clip-path="url(#clip010)" d="M1466.43 58.4703 L1466.43 85.8544 L1458.97 85.8544 L1458.97 58.7134 Q1458.97 52.2724 1456.46 49.0722 Q1453.95 45.872 1448.93 45.872 Q1442.89 45.872 1439.41 49.7204 Q1435.92 53.5687 1435.92 60.2122 L1435.92 85.8544 L1428.43 85.8544 L1428.43 22.8224 L1435.92 22.8224 L1435.92 47.5329 Q1438.6 43.4415 1442.2 41.416 Q1445.85 39.3906 1450.59 39.3906 Q1458.41 39.3906 1462.42 44.2517 Q1466.43 49.0722 1466.43 58.4703 Z" fill="#000000" fill-rule="evenodd" fill-opacity="1" /><path clip-path="url(#clip010)" d="M1520.1 61.306 L1520.1 64.9518 L1485.83 64.9518 Q1486.32 72.6485 1490.45 76.6994 Q1494.62 80.7098 1502.04 80.7098 Q1506.33 80.7098 1510.34 79.6566 Q1514.39 78.6033 1518.36 76.4968 L1518.36 83.5454 Q1514.35 85.2468 1510.14 86.138 Q1505.92 87.0292 1501.59 87.0292 Q1490.73 87.0292 1484.37 80.7098 Q1478.05 74.3904 1478.05 63.615 Q1478.05 52.475 1484.05 45.953 Q1490.09 39.3906 1500.29 39.3906 Q1509.45 39.3906 1514.76 45.3049 Q1520.1 51.1787 1520.1 61.306 M1512.65 59.1185 Q1512.57 53.0016 1509.21 49.3558 Q1505.88 45.71 1500.37 45.71 Q1494.14 45.71 1490.37 49.2343 Q1486.64 52.7586 1486.08 59.159 L1512.65 59.1185 Z" fill="#000000" fill-rule="evenodd" fill-opacity="1" /><path clip-path="url(#clip010)" d="M1570.05 58.4703 L1570.05 85.8544 L1562.6 85.8544 L1562.6 58.7134 Q1562.6 52.2724 1560.09 49.0722 Q1557.57 45.872 1552.55 45.872 Q1546.51 45.872 1543.03 49.7204 Q1539.55 53.5687 1539.55 60.2122 L1539.55 85.8544 L1532.05 85.8544 L1532.05 40.4843 L1539.55 40.4843 L1539.55 47.5329 Q1542.22 43.4415 1545.83 41.416 Q1549.47 39.3906 1554.21 39.3906 Q1562.03 39.3906 1566.04 44.2517 Q1570.05 49.0722 1570.05 58.4703 Z" fill="#000000" fill-rule="evenodd" fill-opacity="1" /><path clip-path="url(#clip010)" d="M1638.15 43.8814 Q1638.15 50.7676 1635.93 58.5146 Q1633.76 66.2206 1630.32 72.4509 Q1626.88 78.6403 1622.37 82.7393 Q1617.86 86.7972 1613.55 86.7972 Q1610.81 86.7972 1608.76 85.2806 Q1606.75 83.723 1605.64 81.1407 Q1604.54 78.5174 1604 75.6481 Q1603.47 72.7379 1603.47 69.5817 Q1603.47 64.8679 1604.49 59.7443 Q1605.52 54.5796 1607.24 49.9068 Q1608.96 45.1931 1611.38 40.9302 Q1613.8 36.6263 1616.46 33.5111 Q1619.17 30.355 1622.2 28.5104 Q1625.24 26.6659 1628.06 26.6659 Q1630.11 26.6659 1631.75 27.5677 Q1633.43 28.4285 1634.5 29.9451 Q1635.56 31.4207 1636.3 33.1832 Q1637.08 34.9458 1637.45 36.9952 Q1637.82 39.0037 1637.98 40.6843 Q1638.15 42.3238 1638.15 43.8814 M1632.61 38.6758 Q1632.61 36.5853 1632.45 35.0277 Q1632.29 33.4292 1631.83 31.8306 Q1631.38 30.232 1630.4 29.3712 Q1629.46 28.5104 1627.98 28.5104 Q1623.68 28.5104 1618.84 37.3231 Q1617.28 40.0694 1615.89 43.7994 Q1614.5 47.5295 1614 49.292 Q1613.51 51.0545 1612.36 55.3994 L1629.91 55.3994 Q1632.61 44.2093 1632.61 38.6758 M1629.17 58.0637 L1611.71 58.0637 Q1609 68.311 1609 74.7054 Q1609 80.2799 1610.15 82.6163 Q1611.34 84.9117 1613.55 84.9117 Q1616.09 84.9117 1618.47 82.3703 Q1620.85 79.788 1623.27 75.1152 Q1626.47 69.0488 1629.17 58.0637 Z" fill="#000000" fill-rule="evenodd" fill-opacity="1" /><path clip-path="url(#clip010)" d="M1665.73 73.1068 Q1665.81 72.082 1667.41 72.082 L1718.86 72.082 Q1721.27 72.082 1721.31 73.0248 Q1721.31 74.0495 1719.02 74.0085 L1667.99 74.0085 Q1665.73 74.0495 1665.73 73.1068 M1665.73 56.7111 Q1665.73 55.6863 1667.5 55.7273 L1718.77 55.7273 Q1721.27 55.7273 1721.31 56.7111 Q1721.31 57.6538 1719.18 57.6538 L1667.41 57.6538 Q1665.73 57.6538 1665.73 56.7111 Z" fill="#000000" fill-rule="evenodd" fill-opacity="1" /><path clip-path="url(#clip010)" d="M1753.69 37.938 L1753.69 35.3147 Q1763.78 35.3147 1768.98 29.9451 Q1770.42 29.9451 1770.66 30.273 Q1770.91 30.6009 1770.91 32.1175 L1770.91 79.2142 Q1770.91 81.7145 1772.14 82.4933 Q1773.37 83.2721 1778.74 83.2721 L1781.4 83.2721 L1781.4 85.8544 Q1778.45 85.6085 1767.79 85.6085 Q1757.14 85.6085 1754.23 85.8544 L1754.23 83.2721 L1756.89 83.2721 Q1762.18 83.2721 1763.45 82.5343 Q1764.72 81.7555 1764.72 79.2142 L1764.72 35.7246 Q1760.33 37.938 1753.69 37.938 Z" fill="#000000" fill-rule="evenodd" fill-opacity="1" /><path clip-path="url(#clip010)" d="M1785.49 59.0065 Q1785.49 46.6687 1788.6 39.9464 Q1792.95 29.9451 1803.2 29.9451 Q1805.37 29.9451 1807.62 30.5599 Q1809.92 31.1338 1812.79 33.3882 Q1815.7 35.6426 1817.46 39.3316 Q1820.82 46.4637 1820.82 59.0065 Q1820.82 71.2623 1817.71 77.9435 Q1813.16 87.699 1803.11 87.699 Q1799.34 87.699 1795.49 85.7725 Q1791.68 83.846 1789.26 79.2142 Q1785.49 72.287 1785.49 59.0065 M1792.46 57.9817 Q1792.46 70.6474 1793.36 75.6891 Q1794.38 81.1407 1797.17 83.518 Q1800 85.8544 1803.11 85.8544 Q1806.48 85.8544 1809.26 83.3541 Q1812.09 80.8128 1812.95 75.3612 Q1813.89 69.9916 1813.85 57.9817 Q1813.85 46.2998 1813.03 41.627 Q1811.93 36.1754 1808.98 34.003 Q1806.07 31.7896 1803.11 31.7896 Q1802.01 31.7896 1800.82 32.1175 Q1799.67 32.4454 1797.99 33.3882 Q1796.31 34.3309 1795 36.6673 Q1793.73 39.0037 1793.11 42.5288 Q1792.46 47.0786 1792.46 57.9817 Z" fill="#000000" fill-rule="evenodd" fill-opacity="1" /><polyline clip-path="url(#clip013)" style="stroke:#009af9; stroke-linecap:butt; stroke-linejoin:round; stroke-width:4; stroke-opacity:1; fill:none" points="
  218.754,1441.48 229.165,1440.78 239.576,1440 249.988,1439.15 260.399,1438.22 270.81,1437.21 281.221,1436.1 291.633,1434.9 302.044,1433.59 312.455,1432.16 
  322.867,1430.62 333.278,1428.94 343.689,1427.14 354.1,1425.18 364.512,1423.07 374.923,1420.8 385.334,1418.36 395.746,1415.74 406.157,1412.93 416.568,1409.92 
  426.979,1406.7 437.391,1403.26 447.802,1399.6 458.213,1395.7 468.625,1391.56 479.036,1387.16 489.447,1382.49 499.858,1377.56 510.27,1372.35 520.681,1366.85 
  531.092,1361.06 541.504,1354.97 551.915,1348.58 562.326,1341.88 572.738,1334.86 583.149,1327.54 593.56,1319.89 603.971,1311.93 614.383,1303.65 624.794,1295.05 
  635.205,1286.14 645.617,1276.93 656.028,1267.41 666.439,1257.6 676.85,1247.5 687.262,1237.13 697.673,1226.5 708.084,1215.61 718.496,1204.5 728.907,1193.16 
  739.318,1181.63 749.729,1169.92 760.141,1158.05 770.552,1146.06 780.963,1133.95 791.375,1121.76 801.786,1109.52 812.197,1097.25 822.609,1084.98 833.02,1072.75 
  843.431,1060.59 853.842,1048.53 864.254,1036.6 874.665,1024.84 885.076,1013.29 895.488,1001.96 905.899,990.912 916.31,980.166 926.721,969.759 937.133,959.725 
  947.544,950.097 957.955,940.906 968.367,932.184 978.778,923.961 989.189,916.265 999.6,909.123 1010.01,902.56 1020.42,896.599 1030.83,891.263 1041.25,886.57 
  1051.66,882.537 1062.07,879.179 1072.48,876.509 1082.89,874.536 1093.3,873.268 1103.71,872.709 1114.12,872.862 1124.54,873.725 1134.95,875.296 1145.36,877.569 
  1155.77,880.535 1166.18,884.183 1176.59,888.501 1187,893.472 1197.41,899.079 1207.83,905.3 1218.24,912.114 1228.65,919.497 1239.06,927.422 1249.47,935.863 
  1259.88,944.789 1270.29,954.171 1280.71,963.978 1291.12,974.176 1301.53,984.732 1311.94,995.613 1322.35,1006.78 1332.76,1018.21 1343.17,1029.86 1353.58,1041.7 
  1364,1053.69 1374.41,1065.8 1384.82,1077.99 1395.23,1090.24 1405.64,1102.51 1416.05,1114.77 1426.46,1126.99 1436.87,1139.15 1447.29,1151.21 1457.7,1163.16 
  1468.11,1174.96 1478.52,1186.6 1488.93,1198.04 1499.34,1209.29 1509.75,1220.31 1520.16,1231.08 1530.58,1241.61 1540.99,1251.86 1551.4,1261.84 1561.81,1271.52 
  1572.22,1280.91 1582.63,1290 1593.04,1298.77 1603.46,1307.23 1613.87,1315.38 1624.28,1323.21 1634.69,1330.72 1645.1,1337.91 1655.51,1344.79 1665.92,1351.36 
  1676.33,1357.62 1686.75,1363.58 1697.16,1369.24 1707.57,1374.62 1717.98,1379.71 1728.39,1384.52 1738.8,1389.07 1749.21,1393.36 1759.62,1397.4 1770.04,1401.2 
  1780.45,1404.76 1790.86,1408.11 1801.27,1411.23 1811.68,1414.16 1822.09,1416.89 1832.5,1419.43 1842.91,1421.8 1853.33,1424 1863.74,1426.04 1874.15,1427.93 
  1884.56,1429.68 1894.97,1431.3 1905.38,1432.79 1915.79,1434.16 1926.21,1435.43 1936.62,1436.59 1947.03,1437.65 1957.44,1438.63 1967.85,1439.53 1978.26,1440.34 
  1988.67,1441.09 1999.08,1441.77 2009.5,1442.38 2019.91,1442.95 2030.32,1443.46 2040.73,1443.92 2051.14,1444.33 2061.55,1444.71 2071.96,1445.05 2082.37,1445.36 
  2092.79,1445.64 2103.2,1445.89 2113.61,1446.11 2124.02,1446.31 2134.43,1446.49 2144.84,1446.65 2155.25,1446.79 2165.67,1446.92 2176.08,1447.03 2186.49,1447.13 
  2196.9,1447.22 2207.31,1447.3 2217.72,1447.37 2228.13,1447.43 2238.54,1447.49 2248.96,1447.54 2259.37,1447.58 2269.78,1447.62 2280.19,1447.65 2290.6,1447.68 
  
  "/>
<polyline clip-path="url(#clip013)" style="stroke:#e26f46; stroke-linecap:butt; stroke-linejoin:round; stroke-width:4; stroke-opacity:1; fill:none" points="
  218.754,1447.87 229.165,1447.87 239.576,1447.87 249.988,1447.87 260.399,1447.87 270.81,1447.87 281.221,1447.87 291.633,1447.87 302.044,1447.87 312.455,1447.87 
  322.867,1447.87 333.278,1447.87 343.689,1447.87 354.1,1447.87 364.512,1447.87 374.923,1447.87 385.334,1447.87 395.746,1447.87 406.157,1447.87 416.568,1447.87 
  426.979,1447.87 437.391,1447.87 447.802,1447.87 458.213,1447.87 468.625,1447.87 479.036,1447.86 489.447,1447.86 499.858,1447.86 510.27,1447.85 520.681,1447.85 
  531.092,1447.84 541.504,1447.83 551.915,1447.82 562.326,1447.81 572.738,1447.8 583.149,1447.78 593.56,1447.75 603.971,1447.73 614.383,1447.69 624.794,1447.65 
  635.205,1447.6 645.617,1447.55 656.028,1447.48 666.439,1447.39 676.85,1447.29 687.262,1447.17 697.673,1447.03 708.084,1446.86 718.496,1446.65 728.907,1446.42 
  739.318,1446.14 749.729,1445.81 760.141,1445.42 770.552,1444.97 780.963,1444.45 791.375,1443.84 801.786,1443.14 812.197,1442.33 822.609,1441.39 833.02,1440.32 
  843.431,1439.09 853.842,1437.68 864.254,1436.08 874.665,1434.26 885.076,1432.2 895.488,1429.87 905.899,1427.24 916.31,1424.29 926.721,1420.99 937.133,1417.3 
  947.544,1413.18 957.955,1408.61 968.367,1403.55 978.778,1397.96 989.189,1391.81 999.6,1385.05 1010.01,1377.65 1020.42,1369.57 1030.83,1360.78 1041.25,1351.25 
  1051.66,1340.93 1062.07,1329.8 1072.48,1317.84 1082.89,1305.02 1093.3,1291.33 1103.71,1276.74 1114.12,1261.26 1124.54,1244.89 1134.95,1227.62 1145.36,1209.47 
  1155.77,1190.46 1166.18,1170.63 1176.59,1150.01 1187,1128.64 1197.41,1106.59 1207.83,1083.91 1218.24,1060.69 1228.65,1037 1239.06,1012.94 1249.47,988.612 
  1259.88,964.121 1270.29,939.583 1280.71,915.12 1291.12,890.861 1301.53,866.935 1311.94,843.48 1322.35,820.632 1332.76,798.529 1343.17,777.309 1353.58,757.107 
  1364,738.055 1374.41,720.28 1384.82,703.904 1395.23,689.039 1405.64,675.79 1416.05,664.252 1426.46,654.506 1436.87,646.625 1447.29,640.666 1457.7,636.672 
  1468.11,634.674 1478.52,634.685 1488.93,636.706 1499.34,640.722 1509.75,646.704 1520.16,654.606 1530.58,664.372 1540.99,675.931 1551.4,689.198 1561.81,704.081 
  1572.22,720.474 1582.63,738.264 1593.04,757.329 1603.46,777.544 1613.87,798.775 1624.28,820.887 1634.69,843.743 1645.1,867.204 1655.51,891.134 1665.92,915.396 
  1676.33,939.861 1686.75,964.399 1697.16,988.889 1707.57,1013.22 1717.98,1037.27 1728.39,1060.95 1738.8,1084.17 1749.21,1106.84 1759.62,1128.89 1770.04,1150.24 
  1780.45,1170.86 1790.86,1190.68 1801.27,1209.68 1811.68,1227.82 1822.09,1245.08 1832.5,1261.44 1842.91,1276.91 1853.33,1291.49 1863.74,1305.17 1874.15,1317.98 
  1884.56,1329.93 1894.97,1341.05 1905.38,1351.36 1915.79,1360.89 1926.21,1369.67 1936.62,1377.74 1947.03,1385.13 1957.44,1391.88 1967.85,1398.03 1978.26,1403.61 
  1988.67,1408.67 1999.08,1413.23 2009.5,1417.34 2019.91,1421.03 2030.32,1424.33 2040.73,1427.27 2051.14,1429.89 2061.55,1432.22 2071.96,1434.28 2082.37,1436.1 
  2092.79,1437.7 2103.2,1439.1 2113.61,1440.33 2124.02,1441.4 2134.43,1442.34 2144.84,1443.15 2155.25,1443.85 2165.67,1444.46 2176.08,1444.98 2186.49,1445.43 
  2196.9,1445.81 2207.31,1446.14 2217.72,1446.42 2228.13,1446.66 2238.54,1446.86 2248.96,1447.03 2259.37,1447.17 2269.78,1447.29 2280.19,1447.39 2290.6,1447.48 
  
  "/>
<polyline clip-path="url(#clip013)" style="stroke:#3da44d; stroke-linecap:butt; stroke-linejoin:round; stroke-width:4; stroke-opacity:1; fill:none" points="
  218.754,1447.87 229.165,1447.87 239.576,1447.87 249.988,1447.87 260.399,1447.87 270.81,1447.87 281.221,1447.87 291.633,1447.87 302.044,1447.87 312.455,1447.87 
  322.867,1447.87 333.278,1447.87 343.689,1447.87 354.1,1447.87 364.512,1447.87 374.923,1447.87 385.334,1447.87 395.746,1447.87 406.157,1447.87 416.568,1447.87 
  426.979,1447.87 437.391,1447.87 447.802,1447.87 458.213,1447.87 468.625,1447.87 479.036,1447.87 489.447,1447.87 499.858,1447.87 510.27,1447.87 520.681,1447.87 
  531.092,1447.87 541.504,1447.87 551.915,1447.87 562.326,1447.87 572.738,1447.87 583.149,1447.87 593.56,1447.87 603.971,1447.87 614.383,1447.87 624.794,1447.87 
  635.205,1447.87 645.617,1447.87 656.028,1447.87 666.439,1447.87 676.85,1447.87 687.262,1447.87 697.673,1447.87 708.084,1447.87 718.496,1447.87 728.907,1447.87 
  739.318,1447.87 749.729,1447.87 760.141,1447.87 770.552,1447.87 780.963,1447.87 791.375,1447.86 801.786,1447.86 812.197,1447.86 822.609,1447.85 833.02,1447.85 
  843.431,1447.84 853.842,1447.83 864.254,1447.81 874.665,1447.79 885.076,1447.77 895.488,1447.74 905.899,1447.7 916.31,1447.65 926.721,1447.59 937.133,1447.51 
  947.544,1447.41 957.955,1447.29 968.367,1447.13 978.778,1446.94 989.189,1446.71 999.6,1446.42 1010.01,1446.06 1020.42,1445.63 1030.83,1445.1 1041.25,1444.47 
  1051.66,1443.7 1062.07,1442.77 1072.48,1441.67 1082.89,1440.35 1093.3,1438.79 1103.71,1436.95 1114.12,1434.78 1124.54,1432.24 1134.95,1429.27 1145.36,1425.82 
  1155.77,1421.83 1166.18,1417.23 1176.59,1411.95 1187,1405.92 1197.41,1399.06 1207.83,1391.29 1218.24,1382.52 1228.65,1372.67 1239.06,1361.66 1249.47,1349.4 
  1259.88,1335.82 1270.29,1320.83 1280.71,1304.38 1291.12,1286.39 1301.53,1266.82 1311.94,1245.64 1322.35,1222.81 1332.76,1198.34 1343.17,1172.22 1353.58,1144.51 
  1364,1115.24 1374.41,1084.5 1384.82,1052.39 1395.23,1019.04 1405.64,984.597 1416.05,949.244 1426.46,913.181 1436.87,876.635 1447.29,839.852 1457.7,803.098 
  1468.11,766.656 1478.52,730.821 1488.93,695.898 1499.34,662.195 1509.75,630.023 1520.16,599.689 1530.58,571.488 1540.99,545.705 1551.4,522.604 1561.81,502.428 
  1572.22,485.392 1582.63,471.678 1593.04,461.438 1603.46,454.784 1613.87,451.789 1624.28,452.487 1634.69,456.87 1645.1,464.889 1655.51,476.456 1665.92,491.444 
  1676.33,509.689 1686.75,530.996 1697.16,555.14 1707.57,581.868 1717.98,610.908 1728.39,641.972 1738.8,674.758 1749.21,708.959 1759.62,744.262 1770.04,780.362 
  1780.45,816.956 1790.86,853.753 1801.27,890.477 1811.68,926.869 1822.09,962.689 1832.5,997.72 1842.91,1031.77 1853.33,1064.67 1863.74,1096.27 1874.15,1126.47 
  1884.56,1155.16 1894.97,1182.27 1905.38,1207.77 1915.79,1231.63 1926.21,1253.83 1936.62,1274.4 1947.03,1293.37 1957.44,1310.77 1967.85,1326.66 1978.26,1341.11 
  1988.67,1354.18 1999.08,1365.96 2009.5,1376.52 2019.91,1385.95 2030.32,1394.33 2040.73,1401.75 2051.14,1408.29 2061.55,1414.03 2071.96,1419.04 2082.37,1423.4 
  2092.79,1427.18 2103.2,1430.44 2113.61,1433.24 2124.02,1435.64 2134.43,1437.68 2144.84,1439.41 2155.25,1440.88 2165.67,1442.11 2176.08,1443.14 2186.49,1444 
  2196.9,1444.72 2207.31,1445.31 2217.72,1445.8 2228.13,1446.21 2238.54,1446.53 2248.96,1446.8 2259.37,1447.02 2269.78,1447.2 2280.19,1447.34 2290.6,1447.45 
  
  "/>
<polyline clip-path="url(#clip013)" style="stroke:#c271d2; stroke-linecap:butt; stroke-linejoin:round; stroke-width:4; stroke-opacity:1; fill:none" points="
  218.754,1447.87 229.165,1447.87 239.576,1447.87 249.988,1447.87 260.399,1447.87 270.81,1447.87 281.221,1447.87 291.633,1447.87 302.044,1447.87 312.455,1447.87 
  322.867,1447.87 333.278,1447.87 343.689,1447.87 354.1,1447.87 364.512,1447.87 374.923,1447.87 385.334,1447.87 395.746,1447.87 406.157,1447.87 416.568,1447.87 
  426.979,1447.87 437.391,1447.87 447.802,1447.87 458.213,1447.87 468.625,1447.87 479.036,1447.87 489.447,1447.87 499.858,1447.87 510.27,1447.87 520.681,1447.87 
  531.092,1447.87 541.504,1447.87 551.915,1447.87 562.326,1447.87 572.738,1447.87 583.149,1447.87 593.56,1447.87 603.971,1447.87 614.383,1447.87 624.794,1447.87 
  635.205,1447.87 645.617,1447.87 656.028,1447.87 666.439,1447.87 676.85,1447.87 687.262,1447.87 697.673,1447.87 708.084,1447.87 718.496,1447.87 728.907,1447.87 
  739.318,1447.87 749.729,1447.87 760.141,1447.87 770.552,1447.87 780.963,1447.87 791.375,1447.87 801.786,1447.87 812.197,1447.87 822.609,1447.87 833.02,1447.87 
  843.431,1447.87 853.842,1447.87 864.254,1447.87 874.665,1447.86 885.076,1447.86 895.488,1447.85 905.899,1447.85 916.31,1447.84 926.721,1447.82 937.133,1447.8 
  947.544,1447.78 957.955,1447.74 968.367,1447.7 978.778,1447.64 989.189,1447.56 999.6,1447.46 1010.01,1447.33 1020.42,1447.15 1030.83,1446.93 1041.25,1446.65 
  1051.66,1446.29 1062.07,1445.84 1072.48,1445.26 1082.89,1444.55 1093.3,1443.65 1103.71,1442.54 1114.12,1441.18 1124.54,1439.5 1134.95,1437.46 1145.36,1434.99 
  1155.77,1432 1166.18,1428.42 1176.59,1424.15 1187,1419.08 1197.41,1413.11 1207.83,1406.1 1218.24,1397.93 1228.65,1388.45 1239.06,1377.52 1249.47,1365 
  1259.88,1350.73 1270.29,1334.56 1280.71,1316.36 1291.12,1295.98 1301.53,1273.31 1311.94,1248.25 1322.35,1220.72 1332.76,1190.67 1343.17,1158.08 1353.58,1122.98 
  1364,1085.42 1374.41,1045.51 1384.82,1003.42 1395.23,959.346 1405.64,913.553 1416.05,866.352 1426.46,818.107 1436.87,769.226 1447.29,720.162 1457.7,671.403 
  1468.11,623.468 1478.52,576.895 1488.93,532.234 1499.34,490.035 1509.75,450.838 1520.16,415.162 1530.58,383.489 1540.99,356.262 1551.4,333.865 1561.81,316.622 
  1572.22,304.783 1582.63,298.524 1593.04,297.935 1603.46,303.027 1613.87,313.723 1624.28,329.866 1634.69,351.221 1645.1,377.479 1655.51,408.266 1665.92,443.153 
  1676.33,481.663 1686.75,523.285 1697.16,567.481 1707.57,613.704 1717.98,661.403 1728.39,710.034 1738.8,759.077 1749.21,808.034 1759.62,856.445 1770.04,903.893 
  1780.45,950.005 1790.86,994.458 1801.27,1036.98 1811.68,1077.35 1822.09,1115.41 1832.5,1151.03 1842.91,1184.14 1853.33,1214.72 1863.74,1242.76 1874.15,1268.33 
  1884.56,1291.48 1894.97,1312.32 1905.38,1330.97 1915.79,1347.55 1926.21,1362.2 1936.62,1375.07 1947.03,1386.31 1957.44,1396.08 1967.85,1404.51 1978.26,1411.75 
  1988.67,1417.93 1999.08,1423.17 2009.5,1427.6 2019.91,1431.31 2030.32,1434.41 2040.73,1436.99 2051.14,1439.11 2061.55,1440.86 2071.96,1442.28 2082.37,1443.44 
  2092.79,1444.38 2103.2,1445.13 2113.61,1445.73 2124.02,1446.21 2134.43,1446.58 2144.84,1446.88 2155.25,1447.11 2165.67,1447.29 2176.08,1447.43 2186.49,1447.54 
  2196.9,1447.62 2207.31,1447.69 2217.72,1447.73 2228.13,1447.77 2238.54,1447.8 2248.96,1447.82 2259.37,1447.83 2269.78,1447.84 2280.19,1447.85 2290.6,1447.86 
  
  "/>
<polyline clip-path="url(#clip013)" style="stroke:#ac8d18; stroke-linecap:butt; stroke-linejoin:round; stroke-width:4; stroke-opacity:1; fill:none" points="
  218.754,1447.87 229.165,1447.87 239.576,1447.87 249.988,1447.87 260.399,1447.87 270.81,1447.87 281.221,1447.87 291.633,1447.87 302.044,1447.87 312.455,1447.87 
  322.867,1447.87 333.278,1447.87 343.689,1447.87 354.1,1447.87 364.512,1447.87 374.923,1447.87 385.334,1447.87 395.746,1447.87 406.157,1447.87 416.568,1447.87 
  426.979,1447.87 437.391,1447.87 447.802,1447.87 458.213,1447.87 468.625,1447.87 479.036,1447.87 489.447,1447.87 499.858,1447.87 510.27,1447.87 520.681,1447.87 
  531.092,1447.87 541.504,1447.87 551.915,1447.87 562.326,1447.87 572.738,1447.87 583.149,1447.87 593.56,1447.87 603.971,1447.87 614.383,1447.87 624.794,1447.87 
  635.205,1447.87 645.617,1447.87 656.028,1447.87 666.439,1447.87 676.85,1447.87 687.262,1447.87 697.673,1447.87 708.084,1447.87 718.496,1447.87 728.907,1447.87 
  739.318,1447.87 749.729,1447.87 760.141,1447.87 770.552,1447.87 780.963,1447.87 791.375,1447.87 801.786,1447.87 812.197,1447.87 822.609,1447.87 833.02,1447.87 
  843.431,1447.87 853.842,1447.87 864.254,1447.87 874.665,1447.87 885.076,1447.87 895.488,1447.87 905.899,1447.87 916.31,1447.87 926.721,1447.87 937.133,1447.87 
  947.544,1447.87 957.955,1447.87 968.367,1447.87 978.778,1447.86 989.189,1447.86 999.6,1447.85 1010.01,1447.84 1020.42,1447.82 1030.83,1447.8 1041.25,1447.77 
  1051.66,1447.73 1062.07,1447.68 1072.48,1447.6 1082.89,1447.5 1093.3,1447.36 1103.71,1447.17 1114.12,1446.93 1124.54,1446.6 1134.95,1446.17 1145.36,1445.62 
  1155.77,1444.9 1166.18,1443.97 1176.59,1442.79 1187,1441.29 1197.41,1439.4 1207.83,1437.03 1218.24,1434.09 1228.65,1430.46 1239.06,1426.01 1249.47,1420.59 
  1259.88,1414.04 1270.29,1406.17 1280.71,1396.8 1291.12,1385.69 1301.53,1372.64 1311.94,1357.41 1322.35,1339.78 1332.76,1319.49 1343.17,1296.35 1353.58,1270.13 
  1364,1240.67 1374.41,1207.8 1384.82,1171.45 1395.23,1131.54 1405.64,1088.12 1416.05,1041.25 1426.46,991.111 1436.87,937.955 1447.29,882.124 1457.7,824.052 
  1468.11,764.262 1478.52,703.361 1488.93,642.035 1499.34,581.038 1509.75,521.174 1520.16,463.286 1530.58,408.235 1540.99,356.876 1551.4,310.04 1561.81,268.514 
  1572.22,233.011 1582.63,204.157 1593.04,182.471 1603.46,168.348 1613.87,162.047 1624.28,163.684 1634.69,173.23 1645.1,190.507 1655.51,215.201 1665.92,246.862 
  1676.33,284.928 1686.75,328.732 1697.16,377.529 1707.57,430.512 1717.98,486.836 1728.39,545.641 1738.8,606.072 1749.21,667.299 1759.62,728.537 1770.04,789.06 
  1780.45,848.212 1790.86,905.419 1801.27,960.195 1811.68,1012.14 1822.09,1060.96 1832.5,1106.43 1842.91,1148.41 1853.33,1186.85 1863.74,1221.76 1874.15,1253.21 
  1884.56,1281.31 1894.97,1306.24 1905.38,1328.18 1915.79,1347.35 1926.21,1363.97 1936.62,1378.27 1947.03,1390.49 1957.44,1400.86 1967.85,1409.59 1978.26,1416.89 
  1988.67,1422.95 1999.08,1427.95 2009.5,1432.05 2019.91,1435.38 2030.32,1438.07 2040.73,1440.23 2051.14,1441.95 2061.55,1443.31 2071.96,1444.38 2082.37,1445.22 
  2092.79,1445.86 2103.2,1446.36 2113.61,1446.75 2124.02,1447.04 2134.43,1447.26 2144.84,1447.42 2155.25,1447.54 2165.67,1447.63 2176.08,1447.7 2186.49,1447.75 
  2196.9,1447.79 2207.31,1447.81 2217.72,1447.83 2228.13,1447.84 2238.54,1447.85 2248.96,1447.86 2259.37,1447.86 2269.78,1447.87 2280.19,1447.87 2290.6,1447.87 
  
  "/>
<path clip-path="url(#clip010)" d="
M229.803 479.945 L578.267 479.945 L578.267 168.905 L229.803 168.905  Z
  " fill="#ffffff" fill-rule="evenodd" fill-opacity="1"/>
<polyline clip-path="url(#clip010)" style="stroke:#000000; stroke-linecap:butt; stroke-linejoin:round; stroke-width:4; stroke-opacity:1; fill:none" points="
  229.803,479.945 578.267,479.945 578.267,168.905 229.803,168.905 229.803,479.945 
  "/>
<polyline clip-path="url(#clip010)" style="stroke:#009af9; stroke-linecap:butt; stroke-linejoin:round; stroke-width:4; stroke-opacity:1; fill:none" points="
  254.205,220.745 400.616,220.745 
  "/>
<path clip-path="url(#clip010)" d="M439.75 223.068 Q439.75 223.724 439.446 223.888 Q439.141 224.028 438.298 224.028 L433.801 224.028 L430.241 238.176 Q429.96 239.417 429.96 240.471 Q429.96 241.642 430.311 242.157 Q430.686 242.673 431.459 242.673 Q432.981 242.673 434.621 241.291 Q436.284 239.909 437.689 236.536 Q437.876 236.091 437.97 235.997 Q438.087 235.88 438.392 235.88 Q438.977 235.88 438.977 236.349 Q438.977 236.513 438.649 237.262 Q438.345 238.012 437.666 239.112 Q437.01 240.213 436.143 241.244 Q435.3 242.274 434.012 243.024 Q432.723 243.75 431.342 243.75 Q429.398 243.75 428.156 242.509 Q426.938 241.267 426.938 239.323 Q426.938 238.691 427.43 236.676 Q427.922 234.639 430.592 224.028 L426.353 224.028 Q425.767 224.028 425.533 224.005 Q425.322 223.982 425.158 223.864 Q425.018 223.724 425.018 223.443 Q425.018 222.998 425.205 222.81 Q425.392 222.6 425.626 222.576 Q425.884 222.529 426.47 222.529 L430.967 222.529 L432.841 214.917 Q433.028 214.168 433.496 213.746 Q433.988 213.301 434.269 213.254 Q434.55 213.184 434.761 213.184 Q435.394 213.184 435.768 213.535 Q436.143 213.863 436.143 214.472 Q436.143 214.8 434.176 222.529 L438.392 222.529 Q438.93 222.529 439.141 222.553 Q439.375 222.576 439.563 222.693 Q439.75 222.81 439.75 223.068 Z" fill="#000000" fill-rule="evenodd" fill-opacity="1" /><path clip-path="url(#clip010)" d="M455.462 235.927 Q455.509 235.341 456.422 235.341 L485.818 235.341 Q487.2 235.341 487.223 235.88 Q487.223 236.466 485.911 236.442 L456.75 236.442 Q455.462 236.466 455.462 235.927 M455.462 226.558 Q455.462 225.972 456.469 225.996 L485.771 225.996 Q487.2 225.996 487.223 226.558 Q487.223 227.097 486.005 227.097 L456.422 227.097 Q455.462 227.097 455.462 226.558 Z" fill="#000000" fill-rule="evenodd" fill-opacity="1" /><path clip-path="url(#clip010)" d="M505.714 215.831 L505.714 214.331 Q511.476 214.331 514.45 211.263 Q515.27 211.263 515.411 211.451 Q515.551 211.638 515.551 212.505 L515.551 239.417 Q515.551 240.846 516.254 241.291 Q516.957 241.736 520.025 241.736 L521.547 241.736 L521.547 243.211 Q519.861 243.071 513.771 243.071 Q507.681 243.071 506.018 243.211 L506.018 241.736 L507.541 241.736 Q510.562 241.736 511.288 241.314 Q512.014 240.869 512.014 239.417 L512.014 214.566 Q509.508 215.831 505.714 215.831 Z" fill="#000000" fill-rule="evenodd" fill-opacity="1" /><polyline clip-path="url(#clip010)" style="stroke:#e26f46; stroke-linecap:butt; stroke-linejoin:round; stroke-width:4; stroke-opacity:1; fill:none" points="
  254.205,272.585 400.616,272.585 
  "/>
<path clip-path="url(#clip010)" d="M439.75 274.908 Q439.75 275.564 439.446 275.728 Q439.141 275.868 438.298 275.868 L433.801 275.868 L430.241 290.016 Q429.96 291.257 429.96 292.311 Q429.96 293.482 430.311 293.997 Q430.686 294.513 431.459 294.513 Q432.981 294.513 434.621 293.131 Q436.284 291.749 437.689 288.376 Q437.876 287.931 437.97 287.837 Q438.087 287.72 438.392 287.72 Q438.977 287.72 438.977 288.189 Q438.977 288.353 438.649 289.102 Q438.345 289.852 437.666 290.952 Q437.01 292.053 436.143 293.084 Q435.3 294.114 434.012 294.864 Q432.723 295.59 431.342 295.59 Q429.398 295.59 428.156 294.349 Q426.938 293.107 426.938 291.163 Q426.938 290.531 427.43 288.516 Q427.922 286.479 430.592 275.868 L426.353 275.868 Q425.767 275.868 425.533 275.845 Q425.322 275.822 425.158 275.704 Q425.018 275.564 425.018 275.283 Q425.018 274.838 425.205 274.65 Q425.392 274.44 425.626 274.416 Q425.884 274.369 426.47 274.369 L430.967 274.369 L432.841 266.757 Q433.028 266.008 433.496 265.586 Q433.988 265.141 434.269 265.094 Q434.55 265.024 434.761 265.024 Q435.394 265.024 435.768 265.375 Q436.143 265.703 436.143 266.312 Q436.143 266.64 434.176 274.369 L438.392 274.369 Q438.93 274.369 439.141 274.393 Q439.375 274.416 439.563 274.533 Q439.75 274.65 439.75 274.908 Z" fill="#000000" fill-rule="evenodd" fill-opacity="1" /><path clip-path="url(#clip010)" d="M455.462 287.767 Q455.509 287.181 456.422 287.181 L485.818 287.181 Q487.2 287.181 487.223 287.72 Q487.223 288.306 485.911 288.282 L456.75 288.282 Q455.462 288.306 455.462 287.767 M455.462 278.398 Q455.462 277.812 456.469 277.836 L485.771 277.836 Q487.2 277.836 487.223 278.398 Q487.223 278.937 486.005 278.937 L456.422 278.937 Q455.462 278.937 455.462 278.398 Z" fill="#000000" fill-rule="evenodd" fill-opacity="1" /><path clip-path="url(#clip010)" d="M505.714 295.051 Q505.714 294.185 505.784 293.927 Q505.878 293.669 506.253 293.271 L515.458 283.012 Q520.493 277.344 520.493 272.402 Q520.493 269.193 518.807 266.898 Q517.144 264.602 514.076 264.602 Q511.968 264.602 510.188 265.89 Q508.407 267.179 507.588 269.474 Q507.728 269.427 508.22 269.427 Q509.415 269.427 510.07 270.177 Q510.75 270.926 510.75 271.933 Q510.75 273.222 509.906 273.854 Q509.087 274.463 508.267 274.463 Q507.939 274.463 507.494 274.393 Q507.072 274.322 506.393 273.667 Q505.714 272.987 505.714 271.793 Q505.714 268.443 508.243 265.773 Q510.796 263.103 514.685 263.103 Q519.088 263.103 521.969 265.726 Q524.873 268.326 524.873 272.402 Q524.873 273.831 524.428 275.142 Q524.007 276.43 523.421 277.438 Q522.859 278.445 521.313 280.061 Q519.767 281.677 518.526 282.825 Q517.285 283.973 514.497 286.408 L509.415 291.351 L518.057 291.351 Q522.273 291.351 522.601 290.976 Q523.07 290.297 523.655 286.713 L524.873 286.713 L523.515 295.051 L505.714 295.051 Z" fill="#000000" fill-rule="evenodd" fill-opacity="1" /><polyline clip-path="url(#clip010)" style="stroke:#3da44d; stroke-linecap:butt; stroke-linejoin:round; stroke-width:4; stroke-opacity:1; fill:none" points="
  254.205,324.425 400.616,324.425 
  "/>
<path clip-path="url(#clip010)" d="M439.75 326.49 Q439.75 327.146 439.446 327.31 Q439.141 327.451 438.298 327.451 L433.801 327.451 L430.241 341.598 Q429.96 342.839 429.96 343.893 Q429.96 345.064 430.311 345.58 Q430.686 346.095 431.459 346.095 Q432.981 346.095 434.621 344.713 Q436.284 343.331 437.689 339.958 Q437.876 339.513 437.97 339.419 Q438.087 339.302 438.392 339.302 Q438.977 339.302 438.977 339.771 Q438.977 339.935 438.649 340.684 Q438.345 341.434 437.666 342.535 Q437.01 343.635 436.143 344.666 Q435.3 345.697 434.012 346.446 Q432.723 347.172 431.342 347.172 Q429.398 347.172 428.156 345.931 Q426.938 344.689 426.938 342.745 Q426.938 342.113 427.43 340.099 Q427.922 338.061 430.592 327.451 L426.353 327.451 Q425.767 327.451 425.533 327.427 Q425.322 327.404 425.158 327.287 Q425.018 327.146 425.018 326.865 Q425.018 326.42 425.205 326.233 Q425.392 326.022 425.626 325.998 Q425.884 325.952 426.47 325.952 L430.967 325.952 L432.841 318.339 Q433.028 317.59 433.496 317.168 Q433.988 316.723 434.269 316.676 Q434.55 316.606 434.761 316.606 Q435.394 316.606 435.768 316.957 Q436.143 317.285 436.143 317.894 Q436.143 318.222 434.176 325.952 L438.392 325.952 Q438.93 325.952 439.141 325.975 Q439.375 325.998 439.563 326.115 Q439.75 326.233 439.75 326.49 Z" fill="#000000" fill-rule="evenodd" fill-opacity="1" /><path clip-path="url(#clip010)" d="M455.462 339.349 Q455.509 338.764 456.422 338.764 L485.818 338.764 Q487.2 338.764 487.223 339.302 Q487.223 339.888 485.911 339.864 L456.75 339.864 Q455.462 339.888 455.462 339.349 M455.462 329.98 Q455.462 329.395 456.469 329.418 L485.771 329.418 Q487.2 329.418 487.223 329.98 Q487.223 330.519 486.005 330.519 L456.422 330.519 Q455.462 330.519 455.462 329.98 Z" fill="#000000" fill-rule="evenodd" fill-opacity="1" /><path clip-path="url(#clip010)" d="M505.714 340.169 Q505.714 338.74 506.534 338.061 Q507.353 337.382 508.407 337.382 Q509.508 337.382 510.281 338.108 Q511.078 338.81 511.078 340.052 Q511.078 341.387 510.141 342.136 Q509.227 342.886 507.916 342.699 Q509.063 344.619 511.171 345.486 Q513.303 346.352 515.27 346.352 Q517.331 346.352 518.994 344.572 Q520.681 342.792 520.681 338.436 Q520.681 334.735 519.229 332.603 Q517.8 330.472 514.966 330.472 L512.858 330.472 Q512.132 330.472 511.921 330.402 Q511.71 330.332 511.71 329.933 Q511.71 329.465 512.436 329.371 Q513.162 329.371 514.31 329.231 Q517.097 329.137 518.573 326.724 Q519.908 324.476 519.908 321.267 Q519.908 318.339 518.502 317.121 Q517.121 315.88 515.317 315.88 Q513.631 315.88 511.78 316.583 Q509.93 317.285 508.923 318.855 Q511.897 318.855 511.897 321.267 Q511.897 322.321 511.218 323.024 Q510.562 323.703 509.461 323.703 Q508.407 323.703 507.705 323.047 Q507.002 322.368 507.002 321.22 Q507.002 318.48 509.438 316.583 Q511.897 314.685 515.504 314.685 Q519.065 314.685 521.688 316.559 Q524.335 318.433 524.335 321.314 Q524.335 324.148 522.461 326.467 Q520.587 328.786 517.612 329.746 Q521.266 330.472 523.445 332.955 Q525.623 335.414 525.623 338.436 Q525.623 342.183 522.672 344.947 Q519.72 347.688 515.411 347.688 Q511.429 347.688 508.571 345.533 Q505.714 343.378 505.714 340.169 Z" fill="#000000" fill-rule="evenodd" fill-opacity="1" /><polyline clip-path="url(#clip010)" style="stroke:#c271d2; stroke-linecap:butt; stroke-linejoin:round; stroke-width:4; stroke-opacity:1; fill:none" points="
  254.205,376.265 400.616,376.265 
  "/>
<path clip-path="url(#clip010)" d="M439.75 378.854 Q439.75 379.509 439.446 379.673 Q439.141 379.814 438.298 379.814 L433.801 379.814 L430.241 393.961 Q429.96 395.203 429.96 396.257 Q429.96 397.428 430.311 397.943 Q430.686 398.458 431.459 398.458 Q432.981 398.458 434.621 397.076 Q436.284 395.694 437.689 392.322 Q437.876 391.877 437.97 391.783 Q438.087 391.666 438.392 391.666 Q438.977 391.666 438.977 392.134 Q438.977 392.298 438.649 393.048 Q438.345 393.797 437.666 394.898 Q437.01 395.999 436.143 397.029 Q435.3 398.06 434.012 398.81 Q432.723 399.536 431.342 399.536 Q429.398 399.536 428.156 398.294 Q426.938 397.053 426.938 395.109 Q426.938 394.476 427.43 392.462 Q427.922 390.424 430.592 379.814 L426.353 379.814 Q425.767 379.814 425.533 379.791 Q425.322 379.767 425.158 379.65 Q425.018 379.509 425.018 379.228 Q425.018 378.783 425.205 378.596 Q425.392 378.385 425.626 378.362 Q425.884 378.315 426.47 378.315 L430.967 378.315 L432.841 370.703 Q433.028 369.953 433.496 369.532 Q433.988 369.087 434.269 369.04 Q434.55 368.969 434.761 368.969 Q435.394 368.969 435.768 369.321 Q436.143 369.649 436.143 370.258 Q436.143 370.586 434.176 378.315 L438.392 378.315 Q438.93 378.315 439.141 378.338 Q439.375 378.362 439.563 378.479 Q439.75 378.596 439.75 378.854 Z" fill="#000000" fill-rule="evenodd" fill-opacity="1" /><path clip-path="url(#clip010)" d="M455.462 391.713 Q455.509 391.127 456.422 391.127 L485.818 391.127 Q487.2 391.127 487.223 391.666 Q487.223 392.251 485.911 392.228 L456.75 392.228 Q455.462 392.251 455.462 391.713 M455.462 382.344 Q455.462 381.758 456.469 381.781 L485.771 381.781 Q487.2 381.781 487.223 382.344 Q487.223 382.882 486.005 382.882 L456.422 382.882 Q455.462 382.882 455.462 382.344 Z" fill="#000000" fill-rule="evenodd" fill-opacity="1" /><path clip-path="url(#clip010)" d="M505.714 391.08 L505.714 389.605 L520.447 367.096 Q520.821 366.51 521.407 366.533 Q521.946 366.533 522.063 366.744 Q522.18 366.955 522.18 367.775 L522.18 389.605 L526.981 389.605 L526.981 391.08 L522.18 391.08 L522.18 395.249 Q522.18 396.631 522.742 397.076 Q523.327 397.521 525.81 397.521 L526.817 397.521 L526.817 398.997 Q524.85 398.856 520.306 398.856 Q515.785 398.856 513.818 398.997 L513.818 397.521 L514.825 397.521 Q517.308 397.521 517.893 397.1 Q518.479 396.655 518.479 395.249 L518.479 391.08 L505.714 391.08 M507.072 389.605 L518.76 389.605 L518.76 371.71 L507.072 389.605 Z" fill="#000000" fill-rule="evenodd" fill-opacity="1" /><polyline clip-path="url(#clip010)" style="stroke:#ac8d18; stroke-linecap:butt; stroke-linejoin:round; stroke-width:4; stroke-opacity:1; fill:none" points="
  254.205,428.105 400.616,428.105 
  "/>
<path clip-path="url(#clip010)" d="M439.75 430.17 Q439.75 430.826 439.446 430.99 Q439.141 431.131 438.298 431.131 L433.801 431.131 L430.241 445.278 Q429.96 446.519 429.96 447.573 Q429.96 448.744 430.311 449.26 Q430.686 449.775 431.459 449.775 Q432.981 449.775 434.621 448.393 Q436.284 447.011 437.689 443.638 Q437.876 443.193 437.97 443.099 Q438.087 442.982 438.392 442.982 Q438.977 442.982 438.977 443.451 Q438.977 443.615 438.649 444.364 Q438.345 445.114 437.666 446.215 Q437.01 447.315 436.143 448.346 Q435.3 449.377 434.012 450.126 Q432.723 450.852 431.342 450.852 Q429.398 450.852 428.156 449.611 Q426.938 448.369 426.938 446.425 Q426.938 445.793 427.43 443.779 Q427.922 441.741 430.592 431.131 L426.353 431.131 Q425.767 431.131 425.533 431.107 Q425.322 431.084 425.158 430.967 Q425.018 430.826 425.018 430.545 Q425.018 430.1 425.205 429.913 Q425.392 429.702 425.626 429.678 Q425.884 429.632 426.47 429.632 L430.967 429.632 L432.841 422.019 Q433.028 421.27 433.496 420.848 Q433.988 420.403 434.269 420.356 Q434.55 420.286 434.761 420.286 Q435.394 420.286 435.768 420.637 Q436.143 420.965 436.143 421.574 Q436.143 421.902 434.176 429.632 L438.392 429.632 Q438.93 429.632 439.141 429.655 Q439.375 429.678 439.563 429.795 Q439.75 429.913 439.75 430.17 Z" fill="#000000" fill-rule="evenodd" fill-opacity="1" /><path clip-path="url(#clip010)" d="M455.462 443.029 Q455.509 442.444 456.422 442.444 L485.818 442.444 Q487.2 442.444 487.223 442.982 Q487.223 443.568 485.911 443.544 L456.75 443.544 Q455.462 443.568 455.462 443.029 M455.462 433.66 Q455.462 433.075 456.469 433.098 L485.771 433.098 Q487.2 433.098 487.223 433.66 Q487.223 434.199 486.005 434.199 L456.422 434.199 Q455.462 434.199 455.462 433.66 Z" fill="#000000" fill-rule="evenodd" fill-opacity="1" /><path clip-path="url(#clip010)" d="M505.714 442.584 Q505.714 441.155 506.487 440.617 Q507.26 440.054 508.079 440.054 Q509.18 440.054 509.813 440.757 Q510.469 441.436 510.469 442.397 Q510.469 443.357 509.813 444.06 Q509.18 444.739 508.079 444.739 Q507.541 444.739 507.26 444.645 Q507.892 446.847 509.813 448.44 Q511.757 450.032 514.31 450.032 Q517.519 450.032 519.439 446.917 Q520.587 444.903 520.587 440.336 Q520.587 436.307 519.72 434.293 Q518.385 431.224 515.645 431.224 Q511.757 431.224 509.461 434.574 Q509.18 434.995 508.852 435.019 Q508.384 435.019 508.267 434.761 Q508.173 434.48 508.173 433.754 L508.173 419.56 Q508.173 418.412 508.642 418.412 Q508.829 418.412 509.227 418.553 Q512.249 419.888 515.598 419.911 Q519.041 419.911 522.133 418.506 Q522.367 418.365 522.508 418.365 Q522.976 418.365 523 418.904 Q523 419.091 522.601 419.654 Q522.227 420.192 521.407 420.918 Q520.587 421.621 519.533 422.3 Q518.479 422.98 516.933 423.448 Q515.411 423.893 513.724 423.893 Q511.71 423.893 509.649 423.261 L509.649 432.606 Q512.132 430.17 515.739 430.17 Q519.58 430.17 522.227 433.262 Q524.873 436.354 524.873 440.663 Q524.873 445.184 521.735 448.276 Q518.62 451.368 514.404 451.368 Q510.562 451.368 508.126 448.627 Q505.714 445.887 505.714 442.584 Z" fill="#000000" fill-rule="evenodd" fill-opacity="1" /></svg>
