<?xml version="1.0" encoding="utf-8"?>
<svg xmlns="http://www.w3.org/2000/svg" xmlns:xlink="http://www.w3.org/1999/xlink" width="600" height="400" viewBox="0 0 2400 1600">
<defs>
  <clipPath id="clip830">
    <rect x="0" y="0" width="2400" height="1600"/>
  </clipPath>
</defs>
<path clip-path="url(#clip830)" d="
M0 1600 L2400 1600 L2400 0 L0 0  Z
  " fill="#ffffff" fill-rule="evenodd" fill-opacity="1"/>
<defs>
  <clipPath id="clip831">
    <rect x="480" y="0" width="1681" height="1600"/>
  </clipPath>
</defs>
<path clip-path="url(#clip830)" d="
M138.959 1486.45 L2352.76 1486.45 L2352.76 47.2441 L138.959 47.2441  Z
  " fill="#ffffff" fill-rule="evenodd" fill-opacity="1"/>
<defs>
  <clipPath id="clip832">
    <rect x="138" y="47" width="2215" height="1440"/>
  </clipPath>
</defs>
<polyline clip-path="url(#clip830)" style="stroke:#000000; stroke-linecap:round; stroke-linejoin:round; stroke-width:4; stroke-opacity:1; fill:none" points="
  138.959,1486.45 2352.76,1486.45 
  "/>
<polyline clip-path="url(#clip830)" style="stroke:#000000; stroke-linecap:round; stroke-linejoin:round; stroke-width:4; stroke-opacity:1; fill:none" points="
  158.992,1486.45 158.992,1467.55 
  "/>
<polyline clip-path="url(#clip830)" style="stroke:#000000; stroke-linecap:round; stroke-linejoin:round; stroke-width:4; stroke-opacity:1; fill:none" points="
  585.214,1486.45 585.214,1467.55 
  "/>
<polyline clip-path="url(#clip830)" style="stroke:#000000; stroke-linecap:round; stroke-linejoin:round; stroke-width:4; stroke-opacity:1; fill:none" points="
  1011.44,1486.45 1011.44,1467.55 
  "/>
<polyline clip-path="url(#clip830)" style="stroke:#000000; stroke-linecap:round; stroke-linejoin:round; stroke-width:4; stroke-opacity:1; fill:none" points="
  1437.66,1486.45 1437.66,1467.55 
  "/>
<polyline clip-path="url(#clip830)" style="stroke:#000000; stroke-linecap:round; stroke-linejoin:round; stroke-width:4; stroke-opacity:1; fill:none" points="
  1863.88,1486.45 1863.88,1467.55 
  "/>
<polyline clip-path="url(#clip830)" style="stroke:#000000; stroke-linecap:round; stroke-linejoin:round; stroke-width:4; stroke-opacity:1; fill:none" points="
  2290.1,1486.45 2290.1,1467.55 
  "/>
<path clip-path="url(#clip830)" d="M158.992 1517.37 Q155.381 1517.37 153.552 1520.93 Q151.747 1524.47 151.747 1531.6 Q151.747 1538.71 153.552 1542.27 Q155.381 1545.82 158.992 1545.82 Q162.626 1545.82 164.432 1542.27 Q166.26 1538.71 166.26 1531.6 Q166.26 1524.47 164.432 1520.93 Q162.626 1517.37 158.992 1517.37 M158.992 1513.66 Q164.802 1513.66 167.858 1518.27 Q170.936 1522.85 170.936 1531.6 Q170.936 1540.33 167.858 1544.94 Q164.802 1549.52 158.992 1549.52 Q153.182 1549.52 150.103 1544.94 Q147.047 1540.33 147.047 1531.6 Q147.047 1522.85 150.103 1518.27 Q153.182 1513.66 158.992 1513.66 Z" fill="#000000" fill-rule="evenodd" fill-opacity="1" /><path clip-path="url(#clip830)" d="M559.901 1544.91 L567.54 1544.91 L567.54 1518.55 L559.23 1520.21 L559.23 1515.95 L567.494 1514.29 L572.17 1514.29 L572.17 1544.91 L579.809 1544.91 L579.809 1548.85 L559.901 1548.85 L559.901 1544.91 Z" fill="#000000" fill-rule="evenodd" fill-opacity="1" /><path clip-path="url(#clip830)" d="M599.253 1517.37 Q595.642 1517.37 593.813 1520.93 Q592.008 1524.47 592.008 1531.6 Q592.008 1538.71 593.813 1542.27 Q595.642 1545.82 599.253 1545.82 Q602.887 1545.82 604.693 1542.27 Q606.522 1538.71 606.522 1531.6 Q606.522 1524.47 604.693 1520.93 Q602.887 1517.37 599.253 1517.37 M599.253 1513.66 Q605.063 1513.66 608.119 1518.27 Q611.197 1522.85 611.197 1531.6 Q611.197 1540.33 608.119 1544.94 Q605.063 1549.52 599.253 1549.52 Q593.443 1549.52 590.364 1544.94 Q587.309 1540.33 587.309 1531.6 Q587.309 1522.85 590.364 1518.27 Q593.443 1513.66 599.253 1513.66 Z" fill="#000000" fill-rule="evenodd" fill-opacity="1" /><path clip-path="url(#clip830)" d="M990.209 1544.91 L1006.53 1544.91 L1006.53 1548.85 L984.584 1548.85 L984.584 1544.91 Q987.246 1542.16 991.829 1537.53 Q996.436 1532.88 997.616 1531.53 Q999.862 1529.01 1000.74 1527.27 Q1001.64 1525.51 1001.64 1523.82 Q1001.64 1521.07 999.7 1519.33 Q997.778 1517.6 994.676 1517.6 Q992.477 1517.6 990.024 1518.36 Q987.593 1519.13 984.815 1520.68 L984.815 1515.95 Q987.639 1514.82 990.093 1514.24 Q992.547 1513.66 994.584 1513.66 Q999.954 1513.66 1003.15 1516.35 Q1006.34 1519.03 1006.34 1523.52 Q1006.34 1525.65 1005.53 1527.57 Q1004.75 1529.47 1002.64 1532.07 Q1002.06 1532.74 998.959 1535.95 Q995.857 1539.15 990.209 1544.91 Z" fill="#000000" fill-rule="evenodd" fill-opacity="1" /><path clip-path="url(#clip830)" d="M1026.34 1517.37 Q1022.73 1517.37 1020.9 1520.93 Q1019.1 1524.47 1019.1 1531.6 Q1019.1 1538.71 1020.9 1542.27 Q1022.73 1545.82 1026.34 1545.82 Q1029.98 1545.82 1031.78 1542.27 Q1033.61 1538.71 1033.61 1531.6 Q1033.61 1524.47 1031.78 1520.93 Q1029.98 1517.37 1026.34 1517.37 M1026.34 1513.66 Q1032.15 1513.66 1035.21 1518.27 Q1038.29 1522.85 1038.29 1531.6 Q1038.29 1540.33 1035.21 1544.94 Q1032.15 1549.52 1026.34 1549.52 Q1020.53 1549.52 1017.45 1544.94 Q1014.4 1540.33 1014.4 1531.6 Q1014.4 1522.85 1017.45 1518.27 Q1020.53 1513.66 1026.34 1513.66 Z" fill="#000000" fill-rule="evenodd" fill-opacity="1" /><path clip-path="url(#clip830)" d="M1426.5 1530.21 Q1429.86 1530.93 1431.73 1533.2 Q1433.63 1535.47 1433.63 1538.8 Q1433.63 1543.92 1430.11 1546.72 Q1426.59 1549.52 1420.11 1549.52 Q1417.94 1549.52 1415.62 1549.08 Q1413.33 1548.66 1410.88 1547.81 L1410.88 1543.29 Q1412.82 1544.43 1415.13 1545.01 Q1417.45 1545.58 1419.97 1545.58 Q1424.37 1545.58 1426.66 1543.85 Q1428.98 1542.11 1428.98 1538.8 Q1428.98 1535.75 1426.82 1534.03 Q1424.69 1532.3 1420.88 1532.3 L1416.85 1532.3 L1416.85 1528.45 L1421.06 1528.45 Q1424.51 1528.45 1426.34 1527.09 Q1428.17 1525.7 1428.17 1523.11 Q1428.17 1520.45 1426.27 1519.03 Q1424.39 1517.6 1420.88 1517.6 Q1418.95 1517.6 1416.75 1518.01 Q1414.56 1518.43 1411.92 1519.31 L1411.92 1515.14 Q1414.58 1514.4 1416.89 1514.03 Q1419.23 1513.66 1421.29 1513.66 Q1426.62 1513.66 1429.72 1516.09 Q1432.82 1518.5 1432.82 1522.62 Q1432.82 1525.49 1431.18 1527.48 Q1429.53 1529.45 1426.5 1530.21 Z" fill="#000000" fill-rule="evenodd" fill-opacity="1" /><path clip-path="url(#clip830)" d="M1452.5 1517.37 Q1448.88 1517.37 1447.06 1520.93 Q1445.25 1524.47 1445.25 1531.6 Q1445.25 1538.71 1447.06 1542.27 Q1448.88 1545.82 1452.5 1545.82 Q1456.13 1545.82 1457.94 1542.27 Q1459.76 1538.71 1459.76 1531.6 Q1459.76 1524.47 1457.94 1520.93 Q1456.13 1517.37 1452.5 1517.37 M1452.5 1513.66 Q1458.31 1513.66 1461.36 1518.27 Q1464.44 1522.85 1464.44 1531.6 Q1464.44 1540.33 1461.36 1544.94 Q1458.31 1549.52 1452.5 1549.52 Q1446.69 1549.52 1443.61 1544.94 Q1440.55 1540.33 1440.55 1531.6 Q1440.55 1522.85 1443.61 1518.27 Q1446.69 1513.66 1452.5 1513.66 Z" fill="#000000" fill-rule="evenodd" fill-opacity="1" /><path clip-path="url(#clip830)" d="M1852.05 1518.36 L1840.25 1536.81 L1852.05 1536.81 L1852.05 1518.36 M1850.82 1514.29 L1856.7 1514.29 L1856.7 1536.81 L1861.63 1536.81 L1861.63 1540.7 L1856.7 1540.7 L1856.7 1548.85 L1852.05 1548.85 L1852.05 1540.7 L1836.45 1540.7 L1836.45 1536.19 L1850.82 1514.29 Z" fill="#000000" fill-rule="evenodd" fill-opacity="1" /><path clip-path="url(#clip830)" d="M1879.37 1517.37 Q1875.75 1517.37 1873.93 1520.93 Q1872.12 1524.47 1872.12 1531.6 Q1872.12 1538.71 1873.93 1542.27 Q1875.75 1545.82 1879.37 1545.82 Q1883 1545.82 1884.81 1542.27 Q1886.63 1538.71 1886.63 1531.6 Q1886.63 1524.47 1884.81 1520.93 Q1883 1517.37 1879.37 1517.37 M1879.37 1513.66 Q1885.18 1513.66 1888.23 1518.27 Q1891.31 1522.85 1891.31 1531.6 Q1891.31 1540.33 1888.23 1544.94 Q1885.18 1549.52 1879.37 1549.52 Q1873.56 1549.52 1870.48 1544.94 Q1867.42 1540.33 1867.42 1531.6 Q1867.42 1522.85 1870.48 1518.27 Q1873.56 1513.66 1879.37 1513.66 Z" fill="#000000" fill-rule="evenodd" fill-opacity="1" /><path clip-path="url(#clip830)" d="M2264.8 1514.29 L2283.16 1514.29 L2283.16 1518.22 L2269.08 1518.22 L2269.08 1526.7 Q2270.1 1526.35 2271.12 1526.19 Q2272.14 1526 2273.16 1526 Q2278.94 1526 2282.32 1529.17 Q2285.7 1532.34 2285.7 1537.76 Q2285.7 1543.34 2282.23 1546.44 Q2278.76 1549.52 2272.44 1549.52 Q2270.26 1549.52 2267.99 1549.15 Q2265.75 1548.78 2263.34 1548.04 L2263.34 1543.34 Q2265.43 1544.47 2267.65 1545.03 Q2269.87 1545.58 2272.35 1545.58 Q2276.35 1545.58 2278.69 1543.48 Q2281.03 1541.37 2281.03 1537.76 Q2281.03 1534.15 2278.69 1532.04 Q2276.35 1529.94 2272.35 1529.94 Q2270.47 1529.94 2268.6 1530.35 Q2266.74 1530.77 2264.8 1531.65 L2264.8 1514.29 Z" fill="#000000" fill-rule="evenodd" fill-opacity="1" /><path clip-path="url(#clip830)" d="M2304.92 1517.37 Q2301.3 1517.37 2299.48 1520.93 Q2297.67 1524.47 2297.67 1531.6 Q2297.67 1538.71 2299.48 1542.27 Q2301.3 1545.82 2304.92 1545.82 Q2308.55 1545.82 2310.36 1542.27 Q2312.18 1538.71 2312.18 1531.6 Q2312.18 1524.47 2310.36 1520.93 Q2308.55 1517.37 2304.92 1517.37 M2304.92 1513.66 Q2310.73 1513.66 2313.78 1518.27 Q2316.86 1522.85 2316.86 1531.6 Q2316.86 1540.33 2313.78 1544.94 Q2310.73 1549.52 2304.92 1549.52 Q2299.11 1549.52 2296.03 1544.94 Q2292.97 1540.33 2292.97 1531.6 Q2292.97 1522.85 2296.03 1518.27 Q2299.11 1513.66 2304.92 1513.66 Z" fill="#000000" fill-rule="evenodd" fill-opacity="1" /><polyline clip-path="url(#clip830)" style="stroke:#000000; stroke-linecap:round; stroke-linejoin:round; stroke-width:4; stroke-opacity:1; fill:none" points="
  138.959,1486.45 138.959,47.2441 
  "/>
<polyline clip-path="url(#clip830)" style="stroke:#000000; stroke-linecap:round; stroke-linejoin:round; stroke-width:4; stroke-opacity:1; fill:none" points="
  138.959,1446.1 157.857,1446.1 
  "/>
<polyline clip-path="url(#clip830)" style="stroke:#000000; stroke-linecap:round; stroke-linejoin:round; stroke-width:4; stroke-opacity:1; fill:none" points="
  138.959,1245.43 157.857,1245.43 
  "/>
<polyline clip-path="url(#clip830)" style="stroke:#000000; stroke-linecap:round; stroke-linejoin:round; stroke-width:4; stroke-opacity:1; fill:none" points="
  138.959,1044.76 157.857,1044.76 
  "/>
<polyline clip-path="url(#clip830)" style="stroke:#000000; stroke-linecap:round; stroke-linejoin:round; stroke-width:4; stroke-opacity:1; fill:none" points="
  138.959,844.099 157.857,844.099 
  "/>
<polyline clip-path="url(#clip830)" style="stroke:#000000; stroke-linecap:round; stroke-linejoin:round; stroke-width:4; stroke-opacity:1; fill:none" points="
  138.959,643.434 157.857,643.434 
  "/>
<polyline clip-path="url(#clip830)" style="stroke:#000000; stroke-linecap:round; stroke-linejoin:round; stroke-width:4; stroke-opacity:1; fill:none" points="
  138.959,442.768 157.857,442.768 
  "/>
<polyline clip-path="url(#clip830)" style="stroke:#000000; stroke-linecap:round; stroke-linejoin:round; stroke-width:4; stroke-opacity:1; fill:none" points="
  138.959,242.103 157.857,242.103 
  "/>
<path clip-path="url(#clip830)" d="M91.0151 1431.89 Q87.404 1431.89 85.5753 1435.46 Q83.7697 1439 83.7697 1446.13 Q83.7697 1453.24 85.5753 1456.8 Q87.404 1460.34 91.0151 1460.34 Q94.6493 1460.34 96.4548 1456.8 Q98.2835 1453.24 98.2835 1446.13 Q98.2835 1439 96.4548 1435.46 Q94.6493 1431.89 91.0151 1431.89 M91.0151 1428.19 Q96.8252 1428.19 99.8808 1432.8 Q102.959 1437.38 102.959 1446.13 Q102.959 1454.86 99.8808 1459.46 Q96.8252 1464.05 91.0151 1464.05 Q85.2049 1464.05 82.1262 1459.46 Q79.0707 1454.86 79.0707 1446.13 Q79.0707 1437.38 82.1262 1432.8 Q85.2049 1428.19 91.0151 1428.19 Z" fill="#000000" fill-rule="evenodd" fill-opacity="1" /><path clip-path="url(#clip830)" d="M86.6401 1258.77 L102.959 1258.77 L102.959 1262.71 L81.0151 1262.71 L81.0151 1258.77 Q83.6771 1256.02 88.2604 1251.39 Q92.8669 1246.74 94.0475 1245.4 Q96.2928 1242.87 97.1724 1241.14 Q98.0752 1239.38 98.0752 1237.69 Q98.0752 1234.93 96.1308 1233.2 Q94.2095 1231.46 91.1077 1231.46 Q88.9086 1231.46 86.4549 1232.22 Q84.0244 1232.99 81.2466 1234.54 L81.2466 1229.82 Q84.0707 1228.68 86.5243 1228.1 Q88.978 1227.52 91.0151 1227.52 Q96.3854 1227.52 99.5798 1230.21 Q102.774 1232.9 102.774 1237.39 Q102.774 1239.52 101.964 1241.44 Q101.177 1243.34 99.0706 1245.93 Q98.4919 1246.6 95.39 1249.82 Q92.2882 1253.01 86.6401 1258.77 Z" fill="#000000" fill-rule="evenodd" fill-opacity="1" /><path clip-path="url(#clip830)" d="M93.3762 1031.56 L81.5707 1050.01 L93.3762 1050.01 L93.3762 1031.56 M92.1493 1027.48 L98.0289 1027.48 L98.0289 1050.01 L102.959 1050.01 L102.959 1053.9 L98.0289 1053.9 L98.0289 1062.04 L93.3762 1062.04 L93.3762 1053.9 L77.7744 1053.9 L77.7744 1049.38 L92.1493 1027.48 Z" fill="#000000" fill-rule="evenodd" fill-opacity="1" /><path clip-path="url(#clip830)" d="M91.4317 842.236 Q88.2836 842.236 86.4318 844.388 Q84.6031 846.541 84.6031 850.291 Q84.6031 854.018 86.4318 856.194 Q88.2836 858.347 91.4317 858.347 Q94.5799 858.347 96.4085 856.194 Q98.2604 854.018 98.2604 850.291 Q98.2604 846.541 96.4085 844.388 Q94.5799 842.236 91.4317 842.236 M100.714 827.583 L100.714 831.842 Q98.9548 831.009 97.1493 830.569 Q95.3669 830.129 93.6076 830.129 Q88.978 830.129 86.5243 833.254 Q84.0938 836.379 83.7466 842.699 Q85.1123 840.685 87.1725 839.62 Q89.2327 838.532 91.7095 838.532 Q96.9178 838.532 99.927 841.703 Q102.959 844.851 102.959 850.291 Q102.959 855.615 99.8113 858.833 Q96.6632 862.05 91.4317 862.05 Q85.4364 862.05 82.2651 857.467 Q79.0938 852.861 79.0938 844.134 Q79.0938 835.939 82.9827 831.078 Q86.8716 826.194 93.4225 826.194 Q95.1817 826.194 96.9641 826.541 Q98.7696 826.888 100.714 827.583 Z" fill="#000000" fill-rule="evenodd" fill-opacity="1" /><path clip-path="url(#clip830)" d="M91.1077 644.302 Q87.7743 644.302 85.8531 646.084 Q83.9549 647.866 83.9549 650.991 Q83.9549 654.116 85.8531 655.899 Q87.7743 657.681 91.1077 657.681 Q94.441 657.681 96.3623 655.899 Q98.2835 654.093 98.2835 650.991 Q98.2835 647.866 96.3623 646.084 Q94.4641 644.302 91.1077 644.302 M86.4318 642.311 Q83.4225 641.57 81.7327 639.51 Q80.066 637.45 80.066 634.487 Q80.066 630.343 83.0058 627.936 Q85.9688 625.529 91.1077 625.529 Q96.2697 625.529 99.2095 627.936 Q102.149 630.343 102.149 634.487 Q102.149 637.45 100.459 639.51 Q98.7928 641.57 95.8067 642.311 Q99.1863 643.098 101.061 645.39 Q102.959 647.681 102.959 650.991 Q102.959 656.015 99.8808 658.7 Q96.8252 661.385 91.1077 661.385 Q85.3901 661.385 82.3114 658.7 Q79.2559 656.015 79.2559 650.991 Q79.2559 647.681 81.154 645.39 Q83.0521 643.098 86.4318 642.311 M84.7188 634.927 Q84.7188 637.612 86.3855 639.116 Q88.0753 640.621 91.1077 640.621 Q94.1169 640.621 95.8067 639.116 Q97.5197 637.612 97.5197 634.927 Q97.5197 632.242 95.8067 630.737 Q94.1169 629.232 91.1077 629.232 Q88.0753 629.232 86.3855 630.737 Q84.7188 632.242 84.7188 634.927 Z" fill="#000000" fill-rule="evenodd" fill-opacity="1" /><path clip-path="url(#clip830)" d="M51.6634 456.113 L59.3023 456.113 L59.3023 429.747 L50.9921 431.414 L50.9921 427.155 L59.256 425.488 L63.9319 425.488 L63.9319 456.113 L71.5707 456.113 L71.5707 460.048 L51.6634 460.048 L51.6634 456.113 Z" fill="#000000" fill-rule="evenodd" fill-opacity="1" /><path clip-path="url(#clip830)" d="M91.0151 428.567 Q87.404 428.567 85.5753 432.132 Q83.7697 435.673 83.7697 442.803 Q83.7697 449.909 85.5753 453.474 Q87.404 457.016 91.0151 457.016 Q94.6493 457.016 96.4548 453.474 Q98.2835 449.909 98.2835 442.803 Q98.2835 435.673 96.4548 432.132 Q94.6493 428.567 91.0151 428.567 M91.0151 424.863 Q96.8252 424.863 99.8808 429.47 Q102.959 434.053 102.959 442.803 Q102.959 451.53 99.8808 456.136 Q96.8252 460.719 91.0151 460.719 Q85.2049 460.719 82.1262 456.136 Q79.0707 451.53 79.0707 442.803 Q79.0707 434.053 82.1262 429.47 Q85.2049 424.863 91.0151 424.863 Z" fill="#000000" fill-rule="evenodd" fill-opacity="1" /><path clip-path="url(#clip830)" d="M53.2606 255.447 L60.8995 255.447 L60.8995 229.082 L52.5893 230.749 L52.5893 226.489 L60.8532 224.823 L65.5291 224.823 L65.5291 255.447 L73.1679 255.447 L73.1679 259.383 L53.2606 259.383 L53.2606 255.447 Z" fill="#000000" fill-rule="evenodd" fill-opacity="1" /><path clip-path="url(#clip830)" d="M86.6401 255.447 L102.959 255.447 L102.959 259.383 L81.0151 259.383 L81.0151 255.447 Q83.6771 252.693 88.2604 248.063 Q92.8669 243.411 94.0475 242.068 Q96.2928 239.545 97.1724 237.809 Q98.0752 236.049 98.0752 234.36 Q98.0752 231.605 96.1308 229.869 Q94.2095 228.133 91.1077 228.133 Q88.9086 228.133 86.4549 228.897 Q84.0244 229.661 81.2466 231.212 L81.2466 226.489 Q84.0707 225.355 86.5243 224.776 Q88.978 224.198 91.0151 224.198 Q96.3854 224.198 99.5798 226.883 Q102.774 229.568 102.774 234.059 Q102.774 236.188 101.964 238.11 Q101.177 240.008 99.0706 242.6 Q98.4919 243.272 95.39 246.489 Q92.2882 249.684 86.6401 255.447 Z" fill="#000000" fill-rule="evenodd" fill-opacity="1" /><polyline clip-path="url(#clip832)" style="stroke:#000000; stroke-linecap:round; stroke-linejoin:round; stroke-width:8; stroke-opacity:0.6; fill:none" points="
  201.614,87.9763 244.236,1209.62 286.858,1241.53 329.481,1439.2 372.103,1374.84 414.725,1388.3 457.347,1381.15 499.969,1353.33 542.592,1412.81 585.214,1339.88 
  627.836,1319.71 670.458,1249.78 713.08,1218.68 755.703,1435.86 798.325,1388.24 840.947,1441.13 883.569,1369.91 926.191,1441.35 968.813,1336.56 1011.44,1177.91 
  1054.06,1438.34 1096.68,1430.06 1139.3,1431.7 1181.92,1370.99 1224.55,1272.11 1267.17,1313.86 1309.79,1406.64 1352.41,1164.71 1395.04,1413.75 1437.66,1423.89 
  1480.28,1432.27 1522.9,1318.99 1565.52,1407.17 1608.15,1394.26 1650.77,1436.39 1693.39,1373.4 1736.01,1437.75 1778.64,1359.86 1821.26,1358.44 1863.88,1442.29 
  1906.5,1306.86 1949.12,1388.95 1991.75,1408.42 2034.37,1426.78 2076.99,1204.8 2119.61,1386.74 2162.23,1421.13 2204.86,1423.41 2247.48,1326.02 2290.1,1394.45 
  
  "/>
<polyline clip-path="url(#clip832)" style="stroke:#008000; stroke-linecap:round; stroke-linejoin:round; stroke-width:8; stroke-opacity:0.6; fill:none" points="
  201.614,1406.93 244.236,1409 286.858,1385.43 329.481,1418.3 372.103,1402.94 414.725,1373.03 457.347,1379.7 499.969,1422.06 542.592,1445.72 585.214,1389.44 
  627.836,1381.89 670.458,1414.34 713.08,1411.66 755.703,1422.35 798.325,1410.93 840.947,1401.28 883.569,1380.78 926.191,1438.82 968.813,1372.18 1011.44,1179.7 
  1054.06,1420.27 1096.68,1424.81 1139.3,1435.7 1181.92,1376.87 1224.55,1285.18 1267.17,1396.78 1309.79,1419.52 1352.41,1355.13 1395.04,1405.41 1437.66,1423.61 
  1480.28,1428.41 1522.9,1409.38 1565.52,1419.88 1608.15,1372.92 1650.77,1440.83 1693.39,1364.96 1736.01,1421.32 1778.64,1413.4 1821.26,1409.44 1863.88,1442.79 
  1906.5,1313.88 1949.12,1395.15 1991.75,1400.82 2034.37,1442.39 2076.99,1124.59 2119.61,1426.5 2162.23,1426.79 2204.86,1441.32 2247.48,1318.97 2290.1,1391.62 
  
  "/>
<path clip-path="url(#clip830)" d="
M1373.72 250.738 L2278.96 250.738 L2278.96 95.2176 L1373.72 95.2176  Z
  " fill="#ffffff" fill-rule="evenodd" fill-opacity="1"/>
<polyline clip-path="url(#clip830)" style="stroke:#000000; stroke-linecap:round; stroke-linejoin:round; stroke-width:4; stroke-opacity:1; fill:none" points="
  1373.72,250.738 2278.96,250.738 2278.96,95.2176 1373.72,95.2176 1373.72,250.738 
  "/>
<polyline clip-path="url(#clip830)" style="stroke:#000000; stroke-linecap:round; stroke-linejoin:round; stroke-width:8; stroke-opacity:0.6; fill:none" points="
  1398.32,147.058 1545.91,147.058 
  "/>
<path clip-path="url(#clip830)" d="M1570.5 129.778 L1575.18 129.778 L1575.18 144.384 L1590.69 129.778 L1596.71 129.778 L1579.55 145.889 L1597.93 164.338 L1591.78 164.338 L1575.18 147.694 L1575.18 164.338 L1570.5 164.338 L1570.5 129.778 Z" fill="#000000" fill-rule="evenodd" fill-opacity="1" /><path clip-path="url(#clip830)" d="M1612.35 151.305 Q1607.19 151.305 1605.2 152.486 Q1603.21 153.666 1603.21 156.514 Q1603.21 158.782 1604.69 160.125 Q1606.2 161.444 1608.77 161.444 Q1612.31 161.444 1614.44 158.944 Q1616.59 156.421 1616.59 152.254 L1616.59 151.305 L1612.35 151.305 M1620.85 149.546 L1620.85 164.338 L1616.59 164.338 L1616.59 160.402 Q1615.13 162.763 1612.96 163.898 Q1610.78 165.009 1607.63 165.009 Q1603.65 165.009 1601.29 162.787 Q1598.95 160.541 1598.95 156.791 Q1598.95 152.416 1601.87 150.194 Q1604.81 147.972 1610.62 147.972 L1616.59 147.972 L1616.59 147.555 Q1616.59 144.615 1614.65 143.018 Q1612.72 141.398 1609.23 141.398 Q1607.01 141.398 1604.9 141.93 Q1602.79 142.463 1600.85 143.527 L1600.85 139.592 Q1603.19 138.69 1605.39 138.25 Q1607.59 137.787 1609.67 137.787 Q1615.29 137.787 1618.07 140.703 Q1620.85 143.62 1620.85 149.546 Z" fill="#000000" fill-rule="evenodd" fill-opacity="1" /><path clip-path="url(#clip830)" d="M1629.62 128.319 L1633.88 128.319 L1633.88 164.338 L1629.62 164.338 L1629.62 128.319 Z" fill="#000000" fill-rule="evenodd" fill-opacity="1" /><path clip-path="url(#clip830)" d="M1662.98 143.389 Q1664.58 140.518 1666.8 139.153 Q1669.02 137.787 1672.03 137.787 Q1676.08 137.787 1678.28 140.634 Q1680.48 143.458 1680.48 148.689 L1680.48 164.338 L1676.2 164.338 L1676.2 148.828 Q1676.2 145.102 1674.88 143.296 Q1673.56 141.49 1670.85 141.49 Q1667.54 141.49 1665.62 143.69 Q1663.7 145.889 1663.7 149.685 L1663.7 164.338 L1659.41 164.338 L1659.41 148.828 Q1659.41 145.078 1658.09 143.296 Q1656.78 141.49 1654.02 141.49 Q1650.76 141.49 1648.84 143.713 Q1646.91 145.912 1646.91 149.685 L1646.91 164.338 L1642.63 164.338 L1642.63 138.412 L1646.91 138.412 L1646.91 142.44 Q1648.37 140.055 1650.41 138.921 Q1652.45 137.787 1655.25 137.787 Q1658.07 137.787 1660.04 139.222 Q1662.03 140.657 1662.98 143.389 Z" fill="#000000" fill-rule="evenodd" fill-opacity="1" /><path clip-path="url(#clip830)" d="M1700.76 151.305 Q1695.59 151.305 1693.6 152.486 Q1691.61 153.666 1691.61 156.514 Q1691.61 158.782 1693.09 160.125 Q1694.6 161.444 1697.17 161.444 Q1700.71 161.444 1702.84 158.944 Q1704.99 156.421 1704.99 152.254 L1704.99 151.305 L1700.76 151.305 M1709.25 149.546 L1709.25 164.338 L1704.99 164.338 L1704.99 160.402 Q1703.53 162.763 1701.36 163.898 Q1699.18 165.009 1696.03 165.009 Q1692.05 165.009 1689.69 162.787 Q1687.35 160.541 1687.35 156.791 Q1687.35 152.416 1690.27 150.194 Q1693.21 147.972 1699.02 147.972 L1704.99 147.972 L1704.99 147.555 Q1704.99 144.615 1703.05 143.018 Q1701.13 141.398 1697.63 141.398 Q1695.41 141.398 1693.3 141.93 Q1691.2 142.463 1689.25 143.527 L1689.25 139.592 Q1691.59 138.69 1693.79 138.25 Q1695.99 137.787 1698.07 137.787 Q1703.7 137.787 1706.47 140.703 Q1709.25 143.62 1709.25 149.546 Z" fill="#000000" fill-rule="evenodd" fill-opacity="1" /><path clip-path="url(#clip830)" d="M1739.58 148.689 L1739.58 164.338 L1735.32 164.338 L1735.32 148.828 Q1735.32 145.148 1733.88 143.319 Q1732.45 141.49 1729.58 141.49 Q1726.13 141.49 1724.14 143.69 Q1722.15 145.889 1722.15 149.685 L1722.15 164.338 L1717.86 164.338 L1717.86 138.412 L1722.15 138.412 L1722.15 142.44 Q1723.67 140.102 1725.73 138.944 Q1727.82 137.787 1730.53 137.787 Q1734.99 137.787 1737.28 140.565 Q1739.58 143.319 1739.58 148.689 Z" fill="#000000" fill-rule="evenodd" fill-opacity="1" /><path clip-path="url(#clip830)" d="M1776.27 128.319 L1776.27 131.861 L1772.19 131.861 Q1769.9 131.861 1769 132.787 Q1768.12 133.713 1768.12 136.12 L1768.12 138.412 L1775.13 138.412 L1775.13 141.722 L1768.12 141.722 L1768.12 164.338 L1763.84 164.338 L1763.84 141.722 L1759.76 141.722 L1759.76 138.412 L1763.84 138.412 L1763.84 136.606 Q1763.84 132.278 1765.85 130.31 Q1767.86 128.319 1772.24 128.319 L1776.27 128.319 Z" fill="#000000" fill-rule="evenodd" fill-opacity="1" /><path clip-path="url(#clip830)" d="M1779.83 138.412 L1784.09 138.412 L1784.09 164.338 L1779.83 164.338 L1779.83 138.412 M1779.83 128.319 L1784.09 128.319 L1784.09 133.713 L1779.83 133.713 L1779.83 128.319 Z" fill="#000000" fill-rule="evenodd" fill-opacity="1" /><path clip-path="url(#clip830)" d="M1793 128.319 L1797.26 128.319 L1797.26 164.338 L1793 164.338 L1793 128.319 Z" fill="#000000" fill-rule="evenodd" fill-opacity="1" /><path clip-path="url(#clip830)" d="M1810.39 131.051 L1810.39 138.412 L1819.16 138.412 L1819.16 141.722 L1810.39 141.722 L1810.39 155.796 Q1810.39 158.967 1811.24 159.87 Q1812.12 160.773 1814.78 160.773 L1819.16 160.773 L1819.16 164.338 L1814.78 164.338 Q1809.85 164.338 1807.98 162.509 Q1806.1 160.657 1806.1 155.796 L1806.1 141.722 L1802.98 141.722 L1802.98 138.412 L1806.1 138.412 L1806.1 131.051 L1810.39 131.051 Z" fill="#000000" fill-rule="evenodd" fill-opacity="1" /><path clip-path="url(#clip830)" d="M1846.94 150.31 L1846.94 152.393 L1827.35 152.393 Q1827.63 156.791 1829.99 159.106 Q1832.38 161.398 1836.61 161.398 Q1839.07 161.398 1841.36 160.796 Q1843.67 160.194 1845.94 158.99 L1845.94 163.018 Q1843.65 163.99 1841.24 164.5 Q1838.83 165.009 1836.36 165.009 Q1830.15 165.009 1826.52 161.398 Q1822.91 157.787 1822.91 151.629 Q1822.91 145.264 1826.33 141.537 Q1829.78 137.787 1835.62 137.787 Q1840.85 137.787 1843.88 141.166 Q1846.94 144.523 1846.94 150.31 M1842.68 149.06 Q1842.63 145.565 1840.71 143.481 Q1838.81 141.398 1835.66 141.398 Q1832.1 141.398 1829.95 143.412 Q1827.82 145.426 1827.49 149.083 L1842.68 149.06 Z" fill="#000000" fill-rule="evenodd" fill-opacity="1" /><path clip-path="url(#clip830)" d="M1868.95 142.393 Q1868.23 141.977 1867.38 141.791 Q1866.54 141.583 1865.52 141.583 Q1861.91 141.583 1859.97 143.944 Q1858.05 146.282 1858.05 150.68 L1858.05 164.338 L1853.77 164.338 L1853.77 138.412 L1858.05 138.412 L1858.05 142.44 Q1859.39 140.078 1861.54 138.944 Q1863.7 137.787 1866.77 137.787 Q1867.21 137.787 1867.75 137.856 Q1868.28 137.903 1868.93 138.018 L1868.95 142.393 Z" fill="#000000" fill-rule="evenodd" fill-opacity="1" /><path clip-path="url(#clip830)" d="M1910.66 150.31 L1910.66 152.393 L1891.08 152.393 Q1891.36 156.791 1893.72 159.106 Q1896.1 161.398 1900.34 161.398 Q1902.79 161.398 1905.08 160.796 Q1907.4 160.194 1909.67 158.99 L1909.67 163.018 Q1907.38 163.99 1904.97 164.5 Q1902.56 165.009 1900.08 165.009 Q1893.88 165.009 1890.25 161.398 Q1886.64 157.787 1886.64 151.629 Q1886.64 145.264 1890.06 141.537 Q1893.51 137.787 1899.34 137.787 Q1904.58 137.787 1907.61 141.166 Q1910.66 144.523 1910.66 150.31 M1906.4 149.06 Q1906.36 145.565 1904.44 143.481 Q1902.54 141.398 1899.39 141.398 Q1895.83 141.398 1893.67 143.412 Q1891.54 145.426 1891.22 149.083 L1906.4 149.06 Z" fill="#000000" fill-rule="evenodd" fill-opacity="1" /><path clip-path="url(#clip830)" d="M1932.68 142.393 Q1931.96 141.977 1931.1 141.791 Q1930.27 141.583 1929.25 141.583 Q1925.64 141.583 1923.7 143.944 Q1921.77 146.282 1921.77 150.68 L1921.77 164.338 L1917.49 164.338 L1917.49 138.412 L1921.77 138.412 L1921.77 142.44 Q1923.12 140.078 1925.27 138.944 Q1927.42 137.787 1930.5 137.787 Q1930.94 137.787 1931.47 137.856 Q1932.01 137.903 1932.65 138.018 L1932.68 142.393 Z" fill="#000000" fill-rule="evenodd" fill-opacity="1" /><path clip-path="url(#clip830)" d="M1951.33 142.393 Q1950.62 141.977 1949.76 141.791 Q1948.93 141.583 1947.91 141.583 Q1944.3 141.583 1942.35 143.944 Q1940.43 146.282 1940.43 150.68 L1940.43 164.338 L1936.15 164.338 L1936.15 138.412 L1940.43 138.412 L1940.43 142.44 Q1941.77 140.078 1943.93 138.944 Q1946.08 137.787 1949.16 137.787 Q1949.6 137.787 1950.13 137.856 Q1950.66 137.903 1951.31 138.018 L1951.33 142.393 Z" fill="#000000" fill-rule="evenodd" fill-opacity="1" /><path clip-path="url(#clip830)" d="M1964.81 141.398 Q1961.38 141.398 1959.39 144.083 Q1957.4 146.745 1957.4 151.398 Q1957.4 156.051 1959.37 158.736 Q1961.36 161.398 1964.81 161.398 Q1968.21 161.398 1970.2 158.713 Q1972.19 156.027 1972.19 151.398 Q1972.19 146.791 1970.2 144.106 Q1968.21 141.398 1964.81 141.398 M1964.81 137.787 Q1970.36 137.787 1973.53 141.398 Q1976.7 145.009 1976.7 151.398 Q1976.7 157.764 1973.53 161.398 Q1970.36 165.009 1964.81 165.009 Q1959.23 165.009 1956.06 161.398 Q1952.91 157.764 1952.91 151.398 Q1952.91 145.009 1956.06 141.398 Q1959.23 137.787 1964.81 137.787 Z" fill="#000000" fill-rule="evenodd" fill-opacity="1" /><path clip-path="url(#clip830)" d="M1998.79 142.393 Q1998.07 141.977 1997.21 141.791 Q1996.38 141.583 1995.36 141.583 Q1991.75 141.583 1989.81 143.944 Q1987.88 146.282 1987.88 150.68 L1987.88 164.338 L1983.6 164.338 L1983.6 138.412 L1987.88 138.412 L1987.88 142.44 Q1989.23 140.078 1991.38 138.944 Q1993.53 137.787 1996.61 137.787 Q1997.05 137.787 1997.58 137.856 Q1998.12 137.903 1998.76 138.018 L1998.79 142.393 Z" fill="#000000" fill-rule="evenodd" fill-opacity="1" /><polyline clip-path="url(#clip830)" style="stroke:#008000; stroke-linecap:round; stroke-linejoin:round; stroke-width:8; stroke-opacity:0.6; fill:none" points="
  1398.32,198.898 1545.91,198.898 
  "/>
<path clip-path="url(#clip830)" d="M1591.01 191.247 L1591.01 195.229 Q1589.21 194.233 1587.38 193.747 Q1585.57 193.238 1583.72 193.238 Q1579.58 193.238 1577.29 195.877 Q1574.99 198.492 1574.99 203.238 Q1574.99 207.983 1577.29 210.622 Q1579.58 213.238 1583.72 213.238 Q1585.57 213.238 1587.38 212.752 Q1589.21 212.242 1591.01 211.247 L1591.01 215.182 Q1589.23 216.016 1587.31 216.432 Q1585.41 216.849 1583.26 216.849 Q1577.4 216.849 1573.95 213.168 Q1570.5 209.488 1570.5 203.238 Q1570.5 196.895 1573.98 193.261 Q1577.47 189.627 1583.54 189.627 Q1585.5 189.627 1587.38 190.043 Q1589.25 190.437 1591.01 191.247 Z" fill="#000000" fill-rule="evenodd" fill-opacity="1" /><path clip-path="url(#clip830)" d="M1608.47 193.238 Q1605.04 193.238 1603.05 195.923 Q1601.06 198.585 1601.06 203.238 Q1601.06 207.891 1603.03 210.576 Q1605.02 213.238 1608.47 213.238 Q1611.87 213.238 1613.86 210.553 Q1615.85 207.867 1615.85 203.238 Q1615.85 198.631 1613.86 195.946 Q1611.87 193.238 1608.47 193.238 M1608.47 189.627 Q1614.02 189.627 1617.19 193.238 Q1620.36 196.849 1620.36 203.238 Q1620.36 209.604 1617.19 213.238 Q1614.02 216.849 1608.47 216.849 Q1602.89 216.849 1599.72 213.238 Q1596.57 209.604 1596.57 203.238 Q1596.57 196.849 1599.72 193.238 Q1602.89 189.627 1608.47 189.627 Z" fill="#000000" fill-rule="evenodd" fill-opacity="1" /><path clip-path="url(#clip830)" d="M1648.97 200.529 L1648.97 216.178 L1644.72 216.178 L1644.72 200.668 Q1644.72 196.988 1643.28 195.159 Q1641.85 193.33 1638.97 193.33 Q1635.53 193.33 1633.53 195.53 Q1631.54 197.729 1631.54 201.525 L1631.54 216.178 L1627.26 216.178 L1627.26 190.252 L1631.54 190.252 L1631.54 194.28 Q1633.07 191.942 1635.13 190.784 Q1637.22 189.627 1639.92 189.627 Q1644.39 189.627 1646.68 192.405 Q1648.97 195.159 1648.97 200.529 Z" fill="#000000" fill-rule="evenodd" fill-opacity="1" /><path clip-path="url(#clip830)" d="M1674.53 194.187 L1674.53 180.159 L1678.79 180.159 L1678.79 216.178 L1674.53 216.178 L1674.53 212.289 Q1673.19 214.603 1671.13 215.738 Q1669.09 216.849 1666.22 216.849 Q1661.52 216.849 1658.56 213.099 Q1655.62 209.349 1655.62 203.238 Q1655.62 197.127 1658.56 193.377 Q1661.52 189.627 1666.22 189.627 Q1669.09 189.627 1671.13 190.761 Q1673.19 191.872 1674.53 194.187 M1660.02 203.238 Q1660.02 207.937 1661.94 210.622 Q1663.88 213.284 1667.26 213.284 Q1670.64 213.284 1672.59 210.622 Q1674.53 207.937 1674.53 203.238 Q1674.53 198.539 1672.59 195.877 Q1670.64 193.192 1667.26 193.192 Q1663.88 193.192 1661.94 195.877 Q1660.02 198.539 1660.02 203.238 Z" fill="#000000" fill-rule="evenodd" fill-opacity="1" /><path clip-path="url(#clip830)" d="M1687.56 190.252 L1691.82 190.252 L1691.82 216.178 L1687.56 216.178 L1687.56 190.252 M1687.56 180.159 L1691.82 180.159 L1691.82 185.553 L1687.56 185.553 L1687.56 180.159 Z" fill="#000000" fill-rule="evenodd" fill-opacity="1" /><path clip-path="url(#clip830)" d="M1704.95 182.891 L1704.95 190.252 L1713.72 190.252 L1713.72 193.562 L1704.95 193.562 L1704.95 207.636 Q1704.95 210.807 1705.8 211.71 Q1706.68 212.613 1709.34 212.613 L1713.72 212.613 L1713.72 216.178 L1709.34 216.178 Q1704.41 216.178 1702.54 214.349 Q1700.66 212.497 1700.66 207.636 L1700.66 193.562 L1697.54 193.562 L1697.54 190.252 L1700.66 190.252 L1700.66 182.891 L1704.95 182.891 Z" fill="#000000" fill-rule="evenodd" fill-opacity="1" /><path clip-path="url(#clip830)" d="M1719.32 190.252 L1723.58 190.252 L1723.58 216.178 L1719.32 216.178 L1719.32 190.252 M1719.32 180.159 L1723.58 180.159 L1723.58 185.553 L1719.32 185.553 L1719.32 180.159 Z" fill="#000000" fill-rule="evenodd" fill-opacity="1" /><path clip-path="url(#clip830)" d="M1742.54 193.238 Q1739.11 193.238 1737.12 195.923 Q1735.13 198.585 1735.13 203.238 Q1735.13 207.891 1737.1 210.576 Q1739.09 213.238 1742.54 213.238 Q1745.94 213.238 1747.93 210.553 Q1749.92 207.867 1749.92 203.238 Q1749.92 198.631 1747.93 195.946 Q1745.94 193.238 1742.54 193.238 M1742.54 189.627 Q1748.09 189.627 1751.27 193.238 Q1754.44 196.849 1754.44 203.238 Q1754.44 209.604 1751.27 213.238 Q1748.09 216.849 1742.54 216.849 Q1736.96 216.849 1733.79 213.238 Q1730.64 209.604 1730.64 203.238 Q1730.64 196.849 1733.79 193.238 Q1736.96 189.627 1742.54 189.627 Z" fill="#000000" fill-rule="evenodd" fill-opacity="1" /><path clip-path="url(#clip830)" d="M1783.05 200.529 L1783.05 216.178 L1778.79 216.178 L1778.79 200.668 Q1778.79 196.988 1777.35 195.159 Q1775.92 193.33 1773.05 193.33 Q1769.6 193.33 1767.61 195.53 Q1765.62 197.729 1765.62 201.525 L1765.62 216.178 L1761.34 216.178 L1761.34 190.252 L1765.62 190.252 L1765.62 194.28 Q1767.15 191.942 1769.21 190.784 Q1771.29 189.627 1774 189.627 Q1778.46 189.627 1780.76 192.405 Q1783.05 195.159 1783.05 200.529 Z" fill="#000000" fill-rule="evenodd" fill-opacity="1" /><path clip-path="url(#clip830)" d="M1803.33 203.145 Q1798.16 203.145 1796.17 204.326 Q1794.18 205.506 1794.18 208.354 Q1794.18 210.622 1795.66 211.965 Q1797.17 213.284 1799.74 213.284 Q1803.28 213.284 1805.41 210.784 Q1807.56 208.261 1807.56 204.094 L1807.56 203.145 L1803.33 203.145 M1811.82 201.386 L1811.82 216.178 L1807.56 216.178 L1807.56 212.242 Q1806.1 214.603 1803.93 215.738 Q1801.75 216.849 1798.6 216.849 Q1794.62 216.849 1792.26 214.627 Q1789.92 212.381 1789.92 208.631 Q1789.92 204.256 1792.84 202.034 Q1795.78 199.812 1801.59 199.812 L1807.56 199.812 L1807.56 199.395 Q1807.56 196.455 1805.62 194.858 Q1803.7 193.238 1800.2 193.238 Q1797.98 193.238 1795.87 193.77 Q1793.77 194.303 1791.82 195.367 L1791.82 191.432 Q1794.16 190.53 1796.36 190.09 Q1798.56 189.627 1800.64 189.627 Q1806.27 189.627 1809.04 192.543 Q1811.82 195.46 1811.82 201.386 Z" fill="#000000" fill-rule="evenodd" fill-opacity="1" /><path clip-path="url(#clip830)" d="M1820.59 180.159 L1824.85 180.159 L1824.85 216.178 L1820.59 216.178 L1820.59 180.159 Z" fill="#000000" fill-rule="evenodd" fill-opacity="1" /><path clip-path="url(#clip830)" d="M1871.01 202.15 L1871.01 204.233 L1851.43 204.233 Q1851.71 208.631 1854.07 210.946 Q1856.45 213.238 1860.69 213.238 Q1863.14 213.238 1865.43 212.636 Q1867.75 212.034 1870.02 210.83 L1870.02 214.858 Q1867.72 215.83 1865.32 216.34 Q1862.91 216.849 1860.43 216.849 Q1854.23 216.849 1850.59 213.238 Q1846.98 209.627 1846.98 203.469 Q1846.98 197.104 1850.41 193.377 Q1853.86 189.627 1859.69 189.627 Q1864.92 189.627 1867.95 193.006 Q1871.01 196.363 1871.01 202.15 M1866.75 200.9 Q1866.7 197.405 1864.78 195.321 Q1862.89 193.238 1859.74 193.238 Q1856.17 193.238 1854.02 195.252 Q1851.89 197.266 1851.57 200.923 L1866.75 200.9 Z" fill="#000000" fill-rule="evenodd" fill-opacity="1" /><path clip-path="url(#clip830)" d="M1898.72 190.252 L1889.34 202.867 L1899.2 216.178 L1894.18 216.178 L1886.64 205.992 L1879.09 216.178 L1874.07 216.178 L1884.14 202.613 L1874.92 190.252 L1879.95 190.252 L1886.82 199.488 L1893.7 190.252 L1898.72 190.252 Z" fill="#000000" fill-rule="evenodd" fill-opacity="1" /><path clip-path="url(#clip830)" d="M1909.34 212.289 L1909.34 226.039 L1905.06 226.039 L1905.06 190.252 L1909.34 190.252 L1909.34 194.187 Q1910.69 191.872 1912.72 190.761 Q1914.78 189.627 1917.63 189.627 Q1922.35 189.627 1925.29 193.377 Q1928.26 197.127 1928.26 203.238 Q1928.26 209.349 1925.29 213.099 Q1922.35 216.849 1917.63 216.849 Q1914.78 216.849 1912.72 215.738 Q1910.69 214.603 1909.34 212.289 M1923.83 203.238 Q1923.83 198.539 1921.89 195.877 Q1919.97 193.192 1916.59 193.192 Q1913.21 193.192 1911.26 195.877 Q1909.34 198.539 1909.34 203.238 Q1909.34 207.937 1911.26 210.622 Q1913.21 213.284 1916.59 213.284 Q1919.97 213.284 1921.89 210.622 Q1923.83 207.937 1923.83 203.238 Z" fill="#000000" fill-rule="evenodd" fill-opacity="1" /><path clip-path="url(#clip830)" d="M1957.49 202.15 L1957.49 204.233 L1937.91 204.233 Q1938.19 208.631 1940.55 210.946 Q1942.93 213.238 1947.17 213.238 Q1949.62 213.238 1951.91 212.636 Q1954.23 212.034 1956.5 210.83 L1956.5 214.858 Q1954.2 215.83 1951.8 216.34 Q1949.39 216.849 1946.91 216.849 Q1940.71 216.849 1937.07 213.238 Q1933.46 209.627 1933.46 203.469 Q1933.46 197.104 1936.89 193.377 Q1940.34 189.627 1946.17 189.627 Q1951.4 189.627 1954.44 193.006 Q1957.49 196.363 1957.49 202.15 M1953.23 200.9 Q1953.19 197.405 1951.26 195.321 Q1949.37 193.238 1946.22 193.238 Q1942.65 193.238 1940.5 195.252 Q1938.37 197.266 1938.05 200.923 L1953.23 200.9 Z" fill="#000000" fill-rule="evenodd" fill-opacity="1" /><path clip-path="url(#clip830)" d="M1983.14 191.247 L1983.14 195.229 Q1981.33 194.233 1979.51 193.747 Q1977.7 193.238 1975.85 193.238 Q1971.7 193.238 1969.41 195.877 Q1967.12 198.492 1967.12 203.238 Q1967.12 207.983 1969.41 210.622 Q1971.7 213.238 1975.85 213.238 Q1977.7 213.238 1979.51 212.752 Q1981.33 212.242 1983.14 211.247 L1983.14 215.182 Q1981.36 216.016 1979.44 216.432 Q1977.54 216.849 1975.38 216.849 Q1969.53 216.849 1966.08 213.168 Q1962.63 209.488 1962.63 203.238 Q1962.63 196.895 1966.1 193.261 Q1969.6 189.627 1975.66 189.627 Q1977.63 189.627 1979.51 190.043 Q1981.38 190.437 1983.14 191.247 Z" fill="#000000" fill-rule="evenodd" fill-opacity="1" /><path clip-path="url(#clip830)" d="M1994.76 182.891 L1994.76 190.252 L2003.53 190.252 L2003.53 193.562 L1994.76 193.562 L1994.76 207.636 Q1994.76 210.807 1995.62 211.71 Q1996.5 212.613 1999.16 212.613 L2003.53 212.613 L2003.53 216.178 L1999.16 216.178 Q1994.23 216.178 1992.35 214.349 Q1990.48 212.497 1990.48 207.636 L1990.48 193.562 L1987.35 193.562 L1987.35 190.252 L1990.48 190.252 L1990.48 182.891 L1994.76 182.891 Z" fill="#000000" fill-rule="evenodd" fill-opacity="1" /><path clip-path="url(#clip830)" d="M2020.92 203.145 Q2015.76 203.145 2013.76 204.326 Q2011.77 205.506 2011.77 208.354 Q2011.77 210.622 2013.26 211.965 Q2014.76 213.284 2017.33 213.284 Q2020.87 213.284 2023 210.784 Q2025.15 208.261 2025.15 204.094 L2025.15 203.145 L2020.92 203.145 M2029.41 201.386 L2029.41 216.178 L2025.15 216.178 L2025.15 212.242 Q2023.69 214.603 2021.52 215.738 Q2019.34 216.849 2016.19 216.849 Q2012.21 216.849 2009.85 214.627 Q2007.51 212.381 2007.51 208.631 Q2007.51 204.256 2010.43 202.034 Q2013.37 199.812 2019.18 199.812 L2025.15 199.812 L2025.15 199.395 Q2025.15 196.455 2023.21 194.858 Q2021.29 193.238 2017.79 193.238 Q2015.57 193.238 2013.46 193.77 Q2011.36 194.303 2009.41 195.367 L2009.41 191.432 Q2011.75 190.53 2013.95 190.09 Q2016.15 189.627 2018.23 189.627 Q2023.86 189.627 2026.63 192.543 Q2029.41 195.46 2029.41 201.386 Z" fill="#000000" fill-rule="evenodd" fill-opacity="1" /><path clip-path="url(#clip830)" d="M2042.4 182.891 L2042.4 190.252 L2051.17 190.252 L2051.17 193.562 L2042.4 193.562 L2042.4 207.636 Q2042.4 210.807 2043.25 211.71 Q2044.13 212.613 2046.8 212.613 L2051.17 212.613 L2051.17 216.178 L2046.8 216.178 Q2041.87 216.178 2039.99 214.349 Q2038.12 212.497 2038.12 207.636 L2038.12 193.562 L2034.99 193.562 L2034.99 190.252 L2038.12 190.252 L2038.12 182.891 L2042.4 182.891 Z" fill="#000000" fill-rule="evenodd" fill-opacity="1" /><path clip-path="url(#clip830)" d="M2056.77 190.252 L2061.03 190.252 L2061.03 216.178 L2056.77 216.178 L2056.77 190.252 M2056.77 180.159 L2061.03 180.159 L2061.03 185.553 L2056.77 185.553 L2056.77 180.159 Z" fill="#000000" fill-rule="evenodd" fill-opacity="1" /><path clip-path="url(#clip830)" d="M2079.99 193.238 Q2076.56 193.238 2074.57 195.923 Q2072.58 198.585 2072.58 203.238 Q2072.58 207.891 2074.55 210.576 Q2076.54 213.238 2079.99 213.238 Q2083.39 213.238 2085.38 210.553 Q2087.38 207.867 2087.38 203.238 Q2087.38 198.631 2085.38 195.946 Q2083.39 193.238 2079.99 193.238 M2079.99 189.627 Q2085.55 189.627 2088.72 193.238 Q2091.89 196.849 2091.89 203.238 Q2091.89 209.604 2088.72 213.238 Q2085.55 216.849 2079.99 216.849 Q2074.41 216.849 2071.24 213.238 Q2068.09 209.604 2068.09 203.238 Q2068.09 196.849 2071.24 193.238 Q2074.41 189.627 2079.99 189.627 Z" fill="#000000" fill-rule="evenodd" fill-opacity="1" /><path clip-path="url(#clip830)" d="M2120.5 200.529 L2120.5 216.178 L2116.24 216.178 L2116.24 200.668 Q2116.24 196.988 2114.81 195.159 Q2113.37 193.33 2110.5 193.33 Q2107.05 193.33 2105.06 195.53 Q2103.07 197.729 2103.07 201.525 L2103.07 216.178 L2098.79 216.178 L2098.79 190.252 L2103.07 190.252 L2103.07 194.28 Q2104.6 191.942 2106.66 190.784 Q2108.74 189.627 2111.45 189.627 Q2115.92 189.627 2118.21 192.405 Q2120.5 195.159 2120.5 200.529 Z" fill="#000000" fill-rule="evenodd" fill-opacity="1" /><path clip-path="url(#clip830)" d="M2166.24 202.15 L2166.24 204.233 L2146.66 204.233 Q2146.93 208.631 2149.3 210.946 Q2151.68 213.238 2155.92 213.238 Q2158.37 213.238 2160.66 212.636 Q2162.98 212.034 2165.25 210.83 L2165.25 214.858 Q2162.95 215.83 2160.55 216.34 Q2158.14 216.849 2155.66 216.849 Q2149.46 216.849 2145.82 213.238 Q2142.21 209.627 2142.21 203.469 Q2142.21 197.104 2145.64 193.377 Q2149.09 189.627 2154.92 189.627 Q2160.15 189.627 2163.18 193.006 Q2166.24 196.363 2166.24 202.15 M2161.98 200.9 Q2161.93 197.405 2160.01 195.321 Q2158.12 193.238 2154.97 193.238 Q2151.4 193.238 2149.25 195.252 Q2147.12 197.266 2146.8 200.923 L2161.98 200.9 Z" fill="#000000" fill-rule="evenodd" fill-opacity="1" /><path clip-path="url(#clip830)" d="M2188.25 194.233 Q2187.54 193.817 2186.68 193.631 Q2185.85 193.423 2184.83 193.423 Q2181.22 193.423 2179.27 195.784 Q2177.35 198.122 2177.35 202.52 L2177.35 216.178 L2173.07 216.178 L2173.07 190.252 L2177.35 190.252 L2177.35 194.28 Q2178.69 191.918 2180.85 190.784 Q2183 189.627 2186.08 189.627 Q2186.52 189.627 2187.05 189.696 Q2187.58 189.743 2188.23 189.858 L2188.25 194.233 Z" fill="#000000" fill-rule="evenodd" fill-opacity="1" /><path clip-path="url(#clip830)" d="M2206.91 194.233 Q2206.19 193.817 2205.34 193.631 Q2204.5 193.423 2203.49 193.423 Q2199.87 193.423 2197.93 195.784 Q2196.01 198.122 2196.01 202.52 L2196.01 216.178 L2191.73 216.178 L2191.73 190.252 L2196.01 190.252 L2196.01 194.28 Q2197.35 191.918 2199.5 190.784 Q2201.66 189.627 2204.74 189.627 Q2205.18 189.627 2205.71 189.696 Q2206.24 189.743 2206.89 189.858 L2206.91 194.233 Z" fill="#000000" fill-rule="evenodd" fill-opacity="1" /><path clip-path="url(#clip830)" d="M2220.38 193.238 Q2216.96 193.238 2214.97 195.923 Q2212.98 198.585 2212.98 203.238 Q2212.98 207.891 2214.94 210.576 Q2216.93 213.238 2220.38 213.238 Q2223.79 213.238 2225.78 210.553 Q2227.77 207.867 2227.77 203.238 Q2227.77 198.631 2225.78 195.946 Q2223.79 193.238 2220.38 193.238 M2220.38 189.627 Q2225.94 189.627 2229.11 193.238 Q2232.28 196.849 2232.28 203.238 Q2232.28 209.604 2229.11 213.238 Q2225.94 216.849 2220.38 216.849 Q2214.8 216.849 2211.63 213.238 Q2208.49 209.604 2208.49 203.238 Q2208.49 196.849 2211.63 193.238 Q2214.8 189.627 2220.38 189.627 Z" fill="#000000" fill-rule="evenodd" fill-opacity="1" /><path clip-path="url(#clip830)" d="M2254.36 194.233 Q2253.65 193.817 2252.79 193.631 Q2251.96 193.423 2250.94 193.423 Q2247.33 193.423 2245.38 195.784 Q2243.46 198.122 2243.46 202.52 L2243.46 216.178 L2239.18 216.178 L2239.18 190.252 L2243.46 190.252 L2243.46 194.28 Q2244.8 191.918 2246.96 190.784 Q2249.11 189.627 2252.19 189.627 Q2252.63 189.627 2253.16 189.696 Q2253.69 189.743 2254.34 189.858 L2254.36 194.233 Z" fill="#000000" fill-rule="evenodd" fill-opacity="1" /></svg>
