<?xml version="1.0" encoding="utf-8"?>
<svg xmlns="http://www.w3.org/2000/svg" xmlns:xlink="http://www.w3.org/1999/xlink" width="600" height="400" viewBox="0 0 2400 1600">
<defs>
  <clipPath id="clip550">
    <rect x="0" y="0" width="2400" height="1600"/>
  </clipPath>
</defs>
<path clip-path="url(#clip550)" d="
M0 1600 L2400 1600 L2400 0 L0 0  Z
  " fill="#ffffff" fill-rule="evenodd" fill-opacity="1"/>
<defs>
  <clipPath id="clip551">
    <rect x="480" y="0" width="1681" height="1600"/>
  </clipPath>
</defs>
<path clip-path="url(#clip550)" d="
M112.177 1486.45 L2352.76 1486.45 L2352.76 47.2441 L112.177 47.2441  Z
  " fill="#ffffff" fill-rule="evenodd" fill-opacity="1"/>
<defs>
  <clipPath id="clip552">
    <rect x="112" y="47" width="2242" height="1440"/>
  </clipPath>
</defs>
<polyline clip-path="url(#clip550)" style="stroke:#000000; stroke-linecap:butt; stroke-linejoin:round; stroke-width:4; stroke-opacity:1; fill:none" points="
  112.177,1486.45 2352.76,1486.45 
  "/>
<polyline clip-path="url(#clip550)" style="stroke:#000000; stroke-linecap:butt; stroke-linejoin:round; stroke-width:4; stroke-opacity:1; fill:none" points="
  132.452,1486.45 132.452,1467.55 
  "/>
<polyline clip-path="url(#clip550)" style="stroke:#000000; stroke-linecap:butt; stroke-linejoin:round; stroke-width:4; stroke-opacity:1; fill:none" points="
  563.83,1486.45 563.83,1467.55 
  "/>
<polyline clip-path="url(#clip550)" style="stroke:#000000; stroke-linecap:butt; stroke-linejoin:round; stroke-width:4; stroke-opacity:1; fill:none" points="
  995.208,1486.45 995.208,1467.55 
  "/>
<polyline clip-path="url(#clip550)" style="stroke:#000000; stroke-linecap:butt; stroke-linejoin:round; stroke-width:4; stroke-opacity:1; fill:none" points="
  1426.59,1486.45 1426.59,1467.55 
  "/>
<polyline clip-path="url(#clip550)" style="stroke:#000000; stroke-linecap:butt; stroke-linejoin:round; stroke-width:4; stroke-opacity:1; fill:none" points="
  1857.97,1486.45 1857.97,1467.55 
  "/>
<polyline clip-path="url(#clip550)" style="stroke:#000000; stroke-linecap:butt; stroke-linejoin:round; stroke-width:4; stroke-opacity:1; fill:none" points="
  2289.34,1486.45 2289.34,1467.55 
  "/>
<path clip-path="url(#clip550)" d="M132.452 1515.64 Q128.841 1515.64 127.012 1519.2 Q125.207 1522.75 125.207 1529.87 Q125.207 1536.98 127.012 1540.55 Q128.841 1544.09 132.452 1544.09 Q136.086 1544.09 137.892 1540.55 Q139.72 1536.98 139.72 1529.87 Q139.72 1522.75 137.892 1519.2 Q136.086 1515.64 132.452 1515.64 M132.452 1511.93 Q138.262 1511.93 141.318 1516.54 Q144.396 1521.12 144.396 1529.87 Q144.396 1538.6 141.318 1543.21 Q138.262 1547.79 132.452 1547.79 Q126.642 1547.79 123.563 1543.21 Q120.508 1538.6 120.508 1529.87 Q120.508 1521.12 123.563 1516.54 Q126.642 1511.93 132.452 1511.93 Z" fill="#000000" fill-rule="evenodd" fill-opacity="1" /><path clip-path="url(#clip550)" d="M538.518 1543.18 L546.157 1543.18 L546.157 1516.82 L537.847 1518.49 L537.847 1514.23 L546.11 1512.56 L550.786 1512.56 L550.786 1543.18 L558.425 1543.18 L558.425 1547.12 L538.518 1547.12 L538.518 1543.18 Z" fill="#000000" fill-rule="evenodd" fill-opacity="1" /><path clip-path="url(#clip550)" d="M577.87 1515.64 Q574.258 1515.64 572.43 1519.2 Q570.624 1522.75 570.624 1529.87 Q570.624 1536.98 572.43 1540.55 Q574.258 1544.09 577.87 1544.09 Q581.504 1544.09 583.309 1540.55 Q585.138 1536.98 585.138 1529.87 Q585.138 1522.75 583.309 1519.2 Q581.504 1515.64 577.87 1515.64 M577.87 1511.93 Q583.68 1511.93 586.735 1516.54 Q589.814 1521.12 589.814 1529.87 Q589.814 1538.6 586.735 1543.21 Q583.68 1547.79 577.87 1547.79 Q572.059 1547.79 568.981 1543.21 Q565.925 1538.6 565.925 1529.87 Q565.925 1521.12 568.981 1516.54 Q572.059 1511.93 577.87 1511.93 Z" fill="#000000" fill-rule="evenodd" fill-opacity="1" /><path clip-path="url(#clip550)" d="M973.982 1543.18 L990.301 1543.18 L990.301 1547.12 L968.357 1547.12 L968.357 1543.18 Q971.019 1540.43 975.602 1535.8 Q980.209 1531.15 981.389 1529.81 Q983.634 1527.28 984.514 1525.55 Q985.417 1523.79 985.417 1522.1 Q985.417 1519.34 983.472 1517.61 Q981.551 1515.87 978.449 1515.87 Q976.25 1515.87 973.797 1516.63 Q971.366 1517.4 968.588 1518.95 L968.588 1514.23 Q971.412 1513.09 973.866 1512.51 Q976.32 1511.93 978.357 1511.93 Q983.727 1511.93 986.922 1514.62 Q990.116 1517.31 990.116 1521.8 Q990.116 1523.93 989.306 1525.85 Q988.519 1527.74 986.412 1530.34 Q985.834 1531.01 982.732 1534.23 Q979.63 1537.42 973.982 1543.18 Z" fill="#000000" fill-rule="evenodd" fill-opacity="1" /><path clip-path="url(#clip550)" d="M1010.12 1515.64 Q1006.5 1515.64 1004.68 1519.2 Q1002.87 1522.75 1002.87 1529.87 Q1002.87 1536.98 1004.68 1540.55 Q1006.5 1544.09 1010.12 1544.09 Q1013.75 1544.09 1015.56 1540.55 Q1017.38 1536.98 1017.38 1529.87 Q1017.38 1522.75 1015.56 1519.2 Q1013.75 1515.64 1010.12 1515.64 M1010.12 1511.93 Q1015.93 1511.93 1018.98 1516.54 Q1022.06 1521.12 1022.06 1529.87 Q1022.06 1538.6 1018.98 1543.21 Q1015.93 1547.79 1010.12 1547.79 Q1004.31 1547.79 1001.23 1543.21 Q998.171 1538.6 998.171 1529.87 Q998.171 1521.12 1001.23 1516.54 Q1004.31 1511.93 1010.12 1511.93 Z" fill="#000000" fill-rule="evenodd" fill-opacity="1" /><path clip-path="url(#clip550)" d="M1415.43 1528.49 Q1418.79 1529.2 1420.66 1531.47 Q1422.56 1533.74 1422.56 1537.07 Q1422.56 1542.19 1419.04 1544.99 Q1415.52 1547.79 1409.04 1547.79 Q1406.86 1547.79 1404.55 1547.35 Q1402.26 1546.93 1399.8 1546.08 L1399.8 1541.56 Q1401.75 1542.7 1404.06 1543.28 Q1406.38 1543.86 1408.9 1543.86 Q1413.3 1543.86 1415.59 1542.12 Q1417.91 1540.38 1417.91 1537.07 Q1417.91 1534.02 1415.75 1532.31 Q1413.62 1530.57 1409.8 1530.57 L1405.78 1530.57 L1405.78 1526.73 L1409.99 1526.73 Q1413.44 1526.73 1415.27 1525.36 Q1417.1 1523.97 1417.1 1521.38 Q1417.1 1518.72 1415.2 1517.31 Q1413.32 1515.87 1409.8 1515.87 Q1407.88 1515.87 1405.68 1516.29 Q1403.49 1516.7 1400.85 1517.58 L1400.85 1513.42 Q1403.51 1512.68 1405.82 1512.31 Q1408.16 1511.93 1410.22 1511.93 Q1415.55 1511.93 1418.65 1514.37 Q1421.75 1516.77 1421.75 1520.89 Q1421.75 1523.76 1420.11 1525.75 Q1418.46 1527.72 1415.43 1528.49 Z" fill="#000000" fill-rule="evenodd" fill-opacity="1" /><path clip-path="url(#clip550)" d="M1441.42 1515.64 Q1437.81 1515.64 1435.98 1519.2 Q1434.18 1522.75 1434.18 1529.87 Q1434.18 1536.98 1435.98 1540.55 Q1437.81 1544.09 1441.42 1544.09 Q1445.06 1544.09 1446.86 1540.55 Q1448.69 1536.98 1448.69 1529.87 Q1448.69 1522.75 1446.86 1519.2 Q1445.06 1515.64 1441.42 1515.64 M1441.42 1511.93 Q1447.23 1511.93 1450.29 1516.54 Q1453.37 1521.12 1453.37 1529.87 Q1453.37 1538.6 1450.29 1543.21 Q1447.23 1547.79 1441.42 1547.79 Q1435.61 1547.79 1432.54 1543.21 Q1429.48 1538.6 1429.48 1529.87 Q1429.48 1521.12 1432.54 1516.54 Q1435.61 1511.93 1441.42 1511.93 Z" fill="#000000" fill-rule="evenodd" fill-opacity="1" /><path clip-path="url(#clip550)" d="M1846.14 1516.63 L1834.33 1535.08 L1846.14 1535.08 L1846.14 1516.63 M1844.91 1512.56 L1850.79 1512.56 L1850.79 1535.08 L1855.72 1535.08 L1855.72 1538.97 L1850.79 1538.97 L1850.79 1547.12 L1846.14 1547.12 L1846.14 1538.97 L1830.53 1538.97 L1830.53 1534.46 L1844.91 1512.56 Z" fill="#000000" fill-rule="evenodd" fill-opacity="1" /><path clip-path="url(#clip550)" d="M1873.45 1515.64 Q1869.84 1515.64 1868.01 1519.2 Q1866.21 1522.75 1866.21 1529.87 Q1866.21 1536.98 1868.01 1540.55 Q1869.84 1544.09 1873.45 1544.09 Q1877.09 1544.09 1878.89 1540.55 Q1880.72 1536.98 1880.72 1529.87 Q1880.72 1522.75 1878.89 1519.2 Q1877.09 1515.64 1873.45 1515.64 M1873.45 1511.93 Q1879.26 1511.93 1882.32 1516.54 Q1885.4 1521.12 1885.4 1529.87 Q1885.4 1538.6 1882.32 1543.21 Q1879.26 1547.79 1873.45 1547.79 Q1867.64 1547.79 1864.56 1543.21 Q1861.51 1538.6 1861.51 1529.87 Q1861.51 1521.12 1864.56 1516.54 Q1867.64 1511.93 1873.45 1511.93 Z" fill="#000000" fill-rule="evenodd" fill-opacity="1" /><path clip-path="url(#clip550)" d="M2264.04 1512.56 L2282.4 1512.56 L2282.4 1516.5 L2268.32 1516.5 L2268.32 1524.97 Q2269.34 1524.62 2270.36 1524.46 Q2271.38 1524.27 2272.4 1524.27 Q2278.19 1524.27 2281.57 1527.44 Q2284.95 1530.62 2284.95 1536.03 Q2284.95 1541.61 2281.47 1544.71 Q2278 1547.79 2271.68 1547.79 Q2269.51 1547.79 2267.24 1547.42 Q2264.99 1547.05 2262.58 1546.31 L2262.58 1541.61 Q2264.67 1542.74 2266.89 1543.3 Q2269.11 1543.86 2271.59 1543.86 Q2275.59 1543.86 2277.93 1541.75 Q2280.27 1539.64 2280.27 1536.03 Q2280.27 1532.42 2277.93 1530.31 Q2275.59 1528.21 2271.59 1528.21 Q2269.71 1528.21 2267.84 1528.62 Q2265.99 1529.04 2264.04 1529.92 L2264.04 1512.56 Z" fill="#000000" fill-rule="evenodd" fill-opacity="1" /><path clip-path="url(#clip550)" d="M2304.16 1515.64 Q2300.55 1515.64 2298.72 1519.2 Q2296.91 1522.75 2296.91 1529.87 Q2296.91 1536.98 2298.72 1540.55 Q2300.55 1544.09 2304.16 1544.09 Q2307.79 1544.09 2309.6 1540.55 Q2311.43 1536.98 2311.43 1529.87 Q2311.43 1522.75 2309.6 1519.2 Q2307.79 1515.64 2304.16 1515.64 M2304.16 1511.93 Q2309.97 1511.93 2313.02 1516.54 Q2316.1 1521.12 2316.1 1529.87 Q2316.1 1538.6 2313.02 1543.21 Q2309.97 1547.79 2304.16 1547.79 Q2298.35 1547.79 2295.27 1543.21 Q2292.21 1538.6 2292.21 1529.87 Q2292.21 1521.12 2295.27 1516.54 Q2298.35 1511.93 2304.16 1511.93 Z" fill="#000000" fill-rule="evenodd" fill-opacity="1" /><polyline clip-path="url(#clip550)" style="stroke:#000000; stroke-linecap:butt; stroke-linejoin:round; stroke-width:4; stroke-opacity:1; fill:none" points="
  112.177,1486.45 112.177,47.2441 
  "/>
<polyline clip-path="url(#clip550)" style="stroke:#000000; stroke-linecap:butt; stroke-linejoin:round; stroke-width:4; stroke-opacity:1; fill:none" points="
  112.177,1446.71 131.075,1446.71 
  "/>
<polyline clip-path="url(#clip550)" style="stroke:#000000; stroke-linecap:butt; stroke-linejoin:round; stroke-width:4; stroke-opacity:1; fill:none" points="
  112.177,1094.88 131.075,1094.88 
  "/>
<polyline clip-path="url(#clip550)" style="stroke:#000000; stroke-linecap:butt; stroke-linejoin:round; stroke-width:4; stroke-opacity:1; fill:none" points="
  112.177,743.04 131.075,743.04 
  "/>
<polyline clip-path="url(#clip550)" style="stroke:#000000; stroke-linecap:butt; stroke-linejoin:round; stroke-width:4; stroke-opacity:1; fill:none" points="
  112.177,391.205 131.075,391.205 
  "/>
<path clip-path="url(#clip550)" d="M64.2328 1432.51 Q60.6217 1432.51 58.793 1436.07 Q56.9875 1439.62 56.9875 1446.74 Q56.9875 1453.85 58.793 1457.42 Q60.6217 1460.96 64.2328 1460.96 Q67.867 1460.96 69.6726 1457.42 Q71.5013 1453.85 71.5013 1446.74 Q71.5013 1439.62 69.6726 1436.07 Q67.867 1432.51 64.2328 1432.51 M64.2328 1428.81 Q70.0429 1428.81 73.0985 1433.41 Q76.1772 1437.99 76.1772 1446.74 Q76.1772 1455.47 73.0985 1460.08 Q70.0429 1464.66 64.2328 1464.66 Q58.4226 1464.66 55.344 1460.08 Q52.2884 1455.47 52.2884 1446.74 Q52.2884 1437.99 55.344 1433.41 Q58.4226 1428.81 64.2328 1428.81 Z" fill="#000000" fill-rule="evenodd" fill-opacity="1" /><path clip-path="url(#clip550)" d="M59.8578 1108.22 L76.1772 1108.22 L76.1772 1112.16 L54.2328 1112.16 L54.2328 1108.22 Q56.8949 1105.47 61.4782 1100.84 Q66.0846 1096.18 67.2652 1094.84 Q69.5105 1092.32 70.3902 1090.58 Q71.2929 1088.82 71.2929 1087.13 Q71.2929 1084.38 69.3485 1082.64 Q67.4272 1080.91 64.3254 1080.91 Q62.1263 1080.91 59.6726 1081.67 Q57.2421 1082.43 54.4643 1083.98 L54.4643 1079.26 Q57.2884 1078.13 59.7421 1077.55 Q62.1958 1076.97 64.2328 1076.97 Q69.6031 1076.97 72.7976 1079.66 Q75.992 1082.34 75.992 1086.83 Q75.992 1088.96 75.1818 1090.88 Q74.3948 1092.78 72.2883 1095.37 Q71.7096 1096.04 68.6078 1099.26 Q65.5059 1102.46 59.8578 1108.22 Z" fill="#000000" fill-rule="evenodd" fill-opacity="1" /><path clip-path="url(#clip550)" d="M66.5939 729.834 L54.7884 748.283 L66.5939 748.283 L66.5939 729.834 M65.367 725.76 L71.2466 725.76 L71.2466 748.283 L76.1772 748.283 L76.1772 752.172 L71.2466 752.172 L71.2466 760.32 L66.5939 760.32 L66.5939 752.172 L50.9921 752.172 L50.9921 747.658 L65.367 725.76 Z" fill="#000000" fill-rule="evenodd" fill-opacity="1" /><path clip-path="url(#clip550)" d="M64.6495 389.342 Q61.5013 389.342 59.6495 391.494 Q57.8208 393.647 57.8208 397.397 Q57.8208 401.124 59.6495 403.3 Q61.5013 405.453 64.6495 405.453 Q67.7976 405.453 69.6263 403.3 Q71.4781 401.124 71.4781 397.397 Q71.4781 393.647 69.6263 391.494 Q67.7976 389.342 64.6495 389.342 M73.9318 374.689 L73.9318 378.948 Q72.1726 378.115 70.367 377.675 Q68.5846 377.235 66.8254 377.235 Q62.1958 377.235 59.7421 380.36 Q57.3115 383.485 56.9643 389.805 Q58.33 387.791 60.3902 386.726 Q62.4504 385.638 64.9272 385.638 Q70.1355 385.638 73.1448 388.809 Q76.1772 391.957 76.1772 397.397 Q76.1772 402.721 73.029 405.939 Q69.8809 409.156 64.6495 409.156 Q58.6541 409.156 55.4828 404.573 Q52.3116 399.967 52.3116 391.24 Q52.3116 383.045 56.2004 378.184 Q60.0893 373.3 66.6402 373.3 Q68.3994 373.3 70.1818 373.647 Q71.9874 373.995 73.9318 374.689 Z" fill="#000000" fill-rule="evenodd" fill-opacity="1" /><polyline clip-path="url(#clip552)" style="stroke:#000000; stroke-linecap:butt; stroke-linejoin:round; stroke-width:8; stroke-opacity:0.6; fill:none" points="
  175.59,87.9763 218.728,1040.53 261.865,1414.05 305.003,1376.34 348.141,1395.29 391.279,1436.98 434.417,1388.7 477.555,1430.09 520.692,1309.04 563.83,1368.81 
  606.968,1402.44 650.106,1327.3 693.244,1134.46 736.382,1270.87 779.519,1372.82 822.657,1325.77 865.795,1345.48 908.933,1442.09 952.071,1439.88 995.208,1249.52 
  1038.35,736.992 1081.48,1420.77 1124.62,676.41 1167.76,1182.43 1210.9,1436.24 1254.04,1404.98 1297.17,1370.59 1340.31,1387.83 1383.45,1360.35 1426.59,1222.75 
  1469.72,1445.72 1512.86,1434.6 1556,1397.33 1599.14,1405.71 1642.28,1316.14 1685.41,1306.94 1728.55,1386.5 1771.69,1381 1814.83,1285.41 1857.97,1431.63 
  1901.1,1327.39 1944.24,1297.11 1987.38,1376.22 2030.52,1195.79 2073.65,1321.99 2116.79,1295.39 2159.93,1282.44 2203.07,979.448 2246.21,1393.03 2289.34,1402.73 
  
  "/>
<polyline clip-path="url(#clip552)" style="stroke:#008000; stroke-linecap:butt; stroke-linejoin:round; stroke-width:8; stroke-opacity:0.6; fill:none" points="
  175.59,1441.94 218.728,1433.83 261.865,1383.04 305.003,1398.13 348.141,1399.11 391.279,1417.91 434.417,1332.67 477.555,1429.4 520.692,1349.07 563.83,1423.78 
  606.968,1416.1 650.106,1296.78 693.244,1362.66 736.382,1386.65 779.519,1388.81 822.657,1442 865.795,1234.86 908.933,1438.81 952.071,1445.66 995.208,1347.24 
  1038.35,1144.94 1081.48,1260.88 1124.62,922.19 1167.76,1432.35 1210.9,1300.98 1254.04,1436.37 1297.17,1332.91 1340.31,1340.86 1383.45,1320.76 1426.59,1033.46 
  1469.72,1414.77 1512.86,1393.89 1556,1436.44 1599.14,1436.78 1642.28,1289.1 1685.41,1325.04 1728.55,1387.53 1771.69,1376.4 1814.83,1385.88 1857.97,1424.81 
  1901.1,1393.07 1944.24,1253.23 1987.38,1418 2030.52,1113.27 2073.65,1295.84 2116.79,1306.16 2159.93,1199.55 2203.07,1176.38 2246.21,1417.68 2289.34,1384.45 
  
  "/>
<path clip-path="url(#clip550)" d="
M1345.25 250.738 L2278.07 250.738 L2278.07 95.2176 L1345.25 95.2176  Z
  " fill="#ffffff" fill-rule="evenodd" fill-opacity="1"/>
<polyline clip-path="url(#clip550)" style="stroke:#000000; stroke-linecap:butt; stroke-linejoin:round; stroke-width:4; stroke-opacity:1; fill:none" points="
  1345.25,250.738 2278.07,250.738 2278.07,95.2176 1345.25,95.2176 1345.25,250.738 
  "/>
<polyline clip-path="url(#clip550)" style="stroke:#000000; stroke-linecap:butt; stroke-linejoin:round; stroke-width:4; stroke-opacity:0.6; fill:none" points="
  1370.15,147.058 1519.52,147.058 
  "/>
<path clip-path="url(#clip550)" d="M1544.42 129.778 L1549.09 129.778 L1549.09 144.384 L1564.6 129.778 L1570.62 129.778 L1553.47 145.889 L1571.85 164.338 L1565.69 164.338 L1549.09 147.694 L1549.09 164.338 L1544.42 164.338 L1544.42 129.778 Z" fill="#000000" fill-rule="evenodd" fill-opacity="1" /><path clip-path="url(#clip550)" d="M1586.27 151.305 Q1581.11 151.305 1579.12 152.486 Q1577.13 153.666 1577.13 156.514 Q1577.13 158.782 1578.61 160.125 Q1580.11 161.444 1582.68 161.444 Q1586.22 161.444 1588.35 158.944 Q1590.5 156.421 1590.5 152.254 L1590.5 151.305 L1586.27 151.305 M1594.76 149.546 L1594.76 164.338 L1590.5 164.338 L1590.5 160.402 Q1589.05 162.763 1586.87 163.898 Q1584.69 165.009 1581.55 165.009 Q1577.57 165.009 1575.2 162.787 Q1572.87 160.541 1572.87 156.791 Q1572.87 152.416 1575.78 150.194 Q1578.72 147.972 1584.53 147.972 L1590.5 147.972 L1590.5 147.555 Q1590.5 144.615 1588.56 143.018 Q1586.64 141.398 1583.14 141.398 Q1580.92 141.398 1578.82 141.93 Q1576.71 142.463 1574.76 143.527 L1574.76 139.592 Q1577.1 138.69 1579.3 138.25 Q1581.5 137.787 1583.58 137.787 Q1589.21 137.787 1591.99 140.703 Q1594.76 143.62 1594.76 149.546 Z" fill="#000000" fill-rule="evenodd" fill-opacity="1" /><path clip-path="url(#clip550)" d="M1603.54 128.319 L1607.8 128.319 L1607.8 164.338 L1603.54 164.338 L1603.54 128.319 Z" fill="#000000" fill-rule="evenodd" fill-opacity="1" /><path clip-path="url(#clip550)" d="M1636.89 143.389 Q1638.49 140.518 1640.71 139.153 Q1642.94 137.787 1645.94 137.787 Q1650 137.787 1652.19 140.634 Q1654.39 143.458 1654.39 148.689 L1654.39 164.338 L1650.11 164.338 L1650.11 148.828 Q1650.11 145.102 1648.79 143.296 Q1647.47 141.49 1644.76 141.49 Q1641.45 141.49 1639.53 143.69 Q1637.61 145.889 1637.61 149.685 L1637.61 164.338 L1633.33 164.338 L1633.33 148.828 Q1633.33 145.078 1632.01 143.296 Q1630.69 141.49 1627.94 141.49 Q1624.67 141.49 1622.75 143.713 Q1620.83 145.912 1620.83 149.685 L1620.83 164.338 L1616.55 164.338 L1616.55 138.412 L1620.83 138.412 L1620.83 142.44 Q1622.29 140.055 1624.32 138.921 Q1626.36 137.787 1629.16 137.787 Q1631.99 137.787 1633.95 139.222 Q1635.94 140.657 1636.89 143.389 Z" fill="#000000" fill-rule="evenodd" fill-opacity="1" /><path clip-path="url(#clip550)" d="M1674.67 151.305 Q1669.51 151.305 1667.52 152.486 Q1665.53 153.666 1665.53 156.514 Q1665.53 158.782 1667.01 160.125 Q1668.51 161.444 1671.08 161.444 Q1674.62 161.444 1676.75 158.944 Q1678.91 156.421 1678.91 152.254 L1678.91 151.305 L1674.67 151.305 M1683.17 149.546 L1683.17 164.338 L1678.91 164.338 L1678.91 160.402 Q1677.45 162.763 1675.27 163.898 Q1673.1 165.009 1669.95 165.009 Q1665.97 165.009 1663.61 162.787 Q1661.27 160.541 1661.27 156.791 Q1661.27 152.416 1664.19 150.194 Q1667.12 147.972 1672.94 147.972 L1678.91 147.972 L1678.91 147.555 Q1678.91 144.615 1676.96 143.018 Q1675.04 141.398 1671.55 141.398 Q1669.32 141.398 1667.22 141.93 Q1665.11 142.463 1663.17 143.527 L1663.17 139.592 Q1665.5 138.69 1667.7 138.25 Q1669.9 137.787 1671.99 137.787 Q1677.61 137.787 1680.39 140.703 Q1683.17 143.62 1683.17 149.546 Z" fill="#000000" fill-rule="evenodd" fill-opacity="1" /><path clip-path="url(#clip550)" d="M1713.49 148.689 L1713.49 164.338 L1709.23 164.338 L1709.23 148.828 Q1709.23 145.148 1707.8 143.319 Q1706.36 141.49 1703.49 141.49 Q1700.04 141.49 1698.05 143.69 Q1696.06 145.889 1696.06 149.685 L1696.06 164.338 L1691.78 164.338 L1691.78 138.412 L1696.06 138.412 L1696.06 142.44 Q1697.59 140.102 1699.65 138.944 Q1701.73 137.787 1704.44 137.787 Q1708.91 137.787 1711.2 140.565 Q1713.49 143.319 1713.49 148.689 Z" fill="#000000" fill-rule="evenodd" fill-opacity="1" /><path clip-path="url(#clip550)" d="M1750.18 128.319 L1750.18 131.861 L1746.11 131.861 Q1743.81 131.861 1742.91 132.787 Q1742.03 133.713 1742.03 136.12 L1742.03 138.412 L1749.05 138.412 L1749.05 141.722 L1742.03 141.722 L1742.03 164.338 L1737.75 164.338 L1737.75 141.722 L1733.68 141.722 L1733.68 138.412 L1737.75 138.412 L1737.75 136.606 Q1737.75 132.278 1739.76 130.31 Q1741.78 128.319 1746.15 128.319 L1750.18 128.319 Z" fill="#000000" fill-rule="evenodd" fill-opacity="1" /><path clip-path="url(#clip550)" d="M1753.74 138.412 L1758 138.412 L1758 164.338 L1753.74 164.338 L1753.74 138.412 M1753.74 128.319 L1758 128.319 L1758 133.713 L1753.74 133.713 L1753.74 128.319 Z" fill="#000000" fill-rule="evenodd" fill-opacity="1" /><path clip-path="url(#clip550)" d="M1766.92 128.319 L1771.18 128.319 L1771.18 164.338 L1766.92 164.338 L1766.92 128.319 Z" fill="#000000" fill-rule="evenodd" fill-opacity="1" /><path clip-path="url(#clip550)" d="M1784.3 131.051 L1784.3 138.412 L1793.07 138.412 L1793.07 141.722 L1784.3 141.722 L1784.3 155.796 Q1784.3 158.967 1785.16 159.87 Q1786.04 160.773 1788.7 160.773 L1793.07 160.773 L1793.07 164.338 L1788.7 164.338 Q1783.77 164.338 1781.89 162.509 Q1780.02 160.657 1780.02 155.796 L1780.02 141.722 L1776.89 141.722 L1776.89 138.412 L1780.02 138.412 L1780.02 131.051 L1784.3 131.051 Z" fill="#000000" fill-rule="evenodd" fill-opacity="1" /><path clip-path="url(#clip550)" d="M1820.85 150.31 L1820.85 152.393 L1801.27 152.393 Q1801.55 156.791 1803.91 159.106 Q1806.29 161.398 1810.53 161.398 Q1812.98 161.398 1815.27 160.796 Q1817.59 160.194 1819.86 158.99 L1819.86 163.018 Q1817.56 163.99 1815.16 164.5 Q1812.75 165.009 1810.27 165.009 Q1804.07 165.009 1800.43 161.398 Q1796.82 157.787 1796.82 151.629 Q1796.82 145.264 1800.25 141.537 Q1803.7 137.787 1809.53 137.787 Q1814.76 137.787 1817.8 141.166 Q1820.85 144.523 1820.85 150.31 M1816.59 149.06 Q1816.55 145.565 1814.62 143.481 Q1812.73 141.398 1809.58 141.398 Q1806.01 141.398 1803.86 143.412 Q1801.73 145.426 1801.41 149.083 L1816.59 149.06 Z" fill="#000000" fill-rule="evenodd" fill-opacity="1" /><path clip-path="url(#clip550)" d="M1842.86 142.393 Q1842.15 141.977 1841.29 141.791 Q1840.46 141.583 1839.44 141.583 Q1835.83 141.583 1833.88 143.944 Q1831.96 146.282 1831.96 150.68 L1831.96 164.338 L1827.68 164.338 L1827.68 138.412 L1831.96 138.412 L1831.96 142.44 Q1833.3 140.078 1835.46 138.944 Q1837.61 137.787 1840.69 137.787 Q1841.13 137.787 1841.66 137.856 Q1842.19 137.903 1842.84 138.018 L1842.86 142.393 Z" fill="#000000" fill-rule="evenodd" fill-opacity="1" /><path clip-path="url(#clip550)" d="M1884.58 150.31 L1884.58 152.393 L1864.99 152.393 Q1865.27 156.791 1867.63 159.106 Q1870.02 161.398 1874.25 161.398 Q1876.71 161.398 1879 160.796 Q1881.31 160.194 1883.58 158.99 L1883.58 163.018 Q1881.29 163.99 1878.88 164.5 Q1876.48 165.009 1874 165.009 Q1867.8 165.009 1864.16 161.398 Q1860.55 157.787 1860.55 151.629 Q1860.55 145.264 1863.98 141.537 Q1867.42 137.787 1873.26 137.787 Q1878.49 137.787 1881.52 141.166 Q1884.58 144.523 1884.58 150.31 M1880.32 149.06 Q1880.27 145.565 1878.35 143.481 Q1876.45 141.398 1873.3 141.398 Q1869.74 141.398 1867.59 143.412 Q1865.46 145.426 1865.13 149.083 L1880.32 149.06 Z" fill="#000000" fill-rule="evenodd" fill-opacity="1" /><path clip-path="url(#clip550)" d="M1906.59 142.393 Q1905.87 141.977 1905.02 141.791 Q1904.18 141.583 1903.17 141.583 Q1899.55 141.583 1897.61 143.944 Q1895.69 146.282 1895.69 150.68 L1895.69 164.338 L1891.41 164.338 L1891.41 138.412 L1895.69 138.412 L1895.69 142.44 Q1897.03 140.078 1899.18 138.944 Q1901.34 137.787 1904.42 137.787 Q1904.86 137.787 1905.39 137.856 Q1905.92 137.903 1906.57 138.018 L1906.59 142.393 Z" fill="#000000" fill-rule="evenodd" fill-opacity="1" /><path clip-path="url(#clip550)" d="M1925.25 142.393 Q1924.53 141.977 1923.67 141.791 Q1922.84 141.583 1921.82 141.583 Q1918.21 141.583 1916.27 143.944 Q1914.35 146.282 1914.35 150.68 L1914.35 164.338 L1910.06 164.338 L1910.06 138.412 L1914.35 138.412 L1914.35 142.44 Q1915.69 140.078 1917.84 138.944 Q1919.99 137.787 1923.07 137.787 Q1923.51 137.787 1924.04 137.856 Q1924.58 137.903 1925.23 138.018 L1925.25 142.393 Z" fill="#000000" fill-rule="evenodd" fill-opacity="1" /><path clip-path="url(#clip550)" d="M1938.72 141.398 Q1935.29 141.398 1933.3 144.083 Q1931.31 146.745 1931.31 151.398 Q1931.31 156.051 1933.28 158.736 Q1935.27 161.398 1938.72 161.398 Q1942.12 161.398 1944.11 158.713 Q1946.1 156.027 1946.1 151.398 Q1946.1 146.791 1944.11 144.106 Q1942.12 141.398 1938.72 141.398 M1938.72 137.787 Q1944.28 137.787 1947.45 141.398 Q1950.62 145.009 1950.62 151.398 Q1950.62 157.764 1947.45 161.398 Q1944.28 165.009 1938.72 165.009 Q1933.14 165.009 1929.97 161.398 Q1926.82 157.764 1926.82 151.398 Q1926.82 145.009 1929.97 141.398 Q1933.14 137.787 1938.72 137.787 Z" fill="#000000" fill-rule="evenodd" fill-opacity="1" /><path clip-path="url(#clip550)" d="M1972.7 142.393 Q1971.98 141.977 1971.13 141.791 Q1970.29 141.583 1969.28 141.583 Q1965.66 141.583 1963.72 143.944 Q1961.8 146.282 1961.8 150.68 L1961.8 164.338 L1957.52 164.338 L1957.52 138.412 L1961.8 138.412 L1961.8 142.44 Q1963.14 140.078 1965.29 138.944 Q1967.45 137.787 1970.53 137.787 Q1970.97 137.787 1971.5 137.856 Q1972.03 137.903 1972.68 138.018 L1972.7 142.393 Z" fill="#000000" fill-rule="evenodd" fill-opacity="1" /><polyline clip-path="url(#clip550)" style="stroke:#008000; stroke-linecap:butt; stroke-linejoin:round; stroke-width:4; stroke-opacity:0.6; fill:none" points="
  1370.15,198.898 1519.52,198.898 
  "/>
<path clip-path="url(#clip550)" d="M1564.93 191.247 L1564.93 195.229 Q1563.12 194.233 1561.29 193.747 Q1559.49 193.238 1557.63 193.238 Q1553.49 193.238 1551.2 195.877 Q1548.91 198.492 1548.91 203.238 Q1548.91 207.983 1551.2 210.622 Q1553.49 213.238 1557.63 213.238 Q1559.49 213.238 1561.29 212.752 Q1563.12 212.242 1564.93 211.247 L1564.93 215.182 Q1563.14 216.016 1561.22 216.432 Q1559.32 216.849 1557.17 216.849 Q1551.32 216.849 1547.87 213.168 Q1544.42 209.488 1544.42 203.238 Q1544.42 196.895 1547.89 193.261 Q1551.38 189.627 1557.45 189.627 Q1559.42 189.627 1561.29 190.043 Q1563.17 190.437 1564.93 191.247 Z" fill="#000000" fill-rule="evenodd" fill-opacity="1" /><path clip-path="url(#clip550)" d="M1582.38 193.238 Q1578.95 193.238 1576.96 195.923 Q1574.97 198.585 1574.97 203.238 Q1574.97 207.891 1576.94 210.576 Q1578.93 213.238 1582.38 213.238 Q1585.78 213.238 1587.77 210.553 Q1589.76 207.867 1589.76 203.238 Q1589.76 198.631 1587.77 195.946 Q1585.78 193.238 1582.38 193.238 M1582.38 189.627 Q1587.94 189.627 1591.11 193.238 Q1594.28 196.849 1594.28 203.238 Q1594.28 209.604 1591.11 213.238 Q1587.94 216.849 1582.38 216.849 Q1576.8 216.849 1573.63 213.238 Q1570.48 209.604 1570.48 203.238 Q1570.48 196.849 1573.63 193.238 Q1576.8 189.627 1582.38 189.627 Z" fill="#000000" fill-rule="evenodd" fill-opacity="1" /><path clip-path="url(#clip550)" d="M1622.89 200.529 L1622.89 216.178 L1618.63 216.178 L1618.63 200.668 Q1618.63 196.988 1617.19 195.159 Q1615.76 193.33 1612.89 193.33 Q1609.44 193.33 1607.45 195.53 Q1605.46 197.729 1605.46 201.525 L1605.46 216.178 L1601.18 216.178 L1601.18 190.252 L1605.46 190.252 L1605.46 194.28 Q1606.99 191.942 1609.05 190.784 Q1611.13 189.627 1613.84 189.627 Q1618.31 189.627 1620.6 192.405 Q1622.89 195.159 1622.89 200.529 Z" fill="#000000" fill-rule="evenodd" fill-opacity="1" /><path clip-path="url(#clip550)" d="M1648.44 194.187 L1648.44 180.159 L1652.7 180.159 L1652.7 216.178 L1648.44 216.178 L1648.44 212.289 Q1647.1 214.603 1645.04 215.738 Q1643 216.849 1640.13 216.849 Q1635.44 216.849 1632.47 213.099 Q1629.53 209.349 1629.53 203.238 Q1629.53 197.127 1632.47 193.377 Q1635.44 189.627 1640.13 189.627 Q1643 189.627 1645.04 190.761 Q1647.1 191.872 1648.44 194.187 M1633.93 203.238 Q1633.93 207.937 1635.85 210.622 Q1637.8 213.284 1641.18 213.284 Q1644.56 213.284 1646.5 210.622 Q1648.44 207.937 1648.44 203.238 Q1648.44 198.539 1646.5 195.877 Q1644.56 193.192 1641.18 193.192 Q1637.8 193.192 1635.85 195.877 Q1633.93 198.539 1633.93 203.238 Z" fill="#000000" fill-rule="evenodd" fill-opacity="1" /><path clip-path="url(#clip550)" d="M1661.48 190.252 L1665.74 190.252 L1665.74 216.178 L1661.48 216.178 L1661.48 190.252 M1661.48 180.159 L1665.74 180.159 L1665.74 185.553 L1661.48 185.553 L1661.48 180.159 Z" fill="#000000" fill-rule="evenodd" fill-opacity="1" /><path clip-path="url(#clip550)" d="M1678.86 182.891 L1678.86 190.252 L1687.63 190.252 L1687.63 193.562 L1678.86 193.562 L1678.86 207.636 Q1678.86 210.807 1679.72 211.71 Q1680.6 212.613 1683.26 212.613 L1687.63 212.613 L1687.63 216.178 L1683.26 216.178 Q1678.33 216.178 1676.45 214.349 Q1674.58 212.497 1674.58 207.636 L1674.58 193.562 L1671.45 193.562 L1671.45 190.252 L1674.58 190.252 L1674.58 182.891 L1678.86 182.891 Z" fill="#000000" fill-rule="evenodd" fill-opacity="1" /><path clip-path="url(#clip550)" d="M1693.24 190.252 L1697.5 190.252 L1697.5 216.178 L1693.24 216.178 L1693.24 190.252 M1693.24 180.159 L1697.5 180.159 L1697.5 185.553 L1693.24 185.553 L1693.24 180.159 Z" fill="#000000" fill-rule="evenodd" fill-opacity="1" /><path clip-path="url(#clip550)" d="M1716.45 193.238 Q1713.03 193.238 1711.04 195.923 Q1709.05 198.585 1709.05 203.238 Q1709.05 207.891 1711.01 210.576 Q1713 213.238 1716.45 213.238 Q1719.86 213.238 1721.85 210.553 Q1723.84 207.867 1723.84 203.238 Q1723.84 198.631 1721.85 195.946 Q1719.86 193.238 1716.45 193.238 M1716.45 189.627 Q1722.01 189.627 1725.18 193.238 Q1728.35 196.849 1728.35 203.238 Q1728.35 209.604 1725.18 213.238 Q1722.01 216.849 1716.45 216.849 Q1710.87 216.849 1707.7 213.238 Q1704.56 209.604 1704.56 203.238 Q1704.56 196.849 1707.7 193.238 Q1710.87 189.627 1716.45 189.627 Z" fill="#000000" fill-rule="evenodd" fill-opacity="1" /><path clip-path="url(#clip550)" d="M1756.96 200.529 L1756.96 216.178 L1752.7 216.178 L1752.7 200.668 Q1752.7 196.988 1751.27 195.159 Q1749.83 193.33 1746.96 193.33 Q1743.51 193.33 1741.52 195.53 Q1739.53 197.729 1739.53 201.525 L1739.53 216.178 L1735.25 216.178 L1735.25 190.252 L1739.53 190.252 L1739.53 194.28 Q1741.06 191.942 1743.12 190.784 Q1745.2 189.627 1747.91 189.627 Q1752.38 189.627 1754.67 192.405 Q1756.96 195.159 1756.96 200.529 Z" fill="#000000" fill-rule="evenodd" fill-opacity="1" /><path clip-path="url(#clip550)" d="M1777.24 203.145 Q1772.08 203.145 1770.09 204.326 Q1768.1 205.506 1768.1 208.354 Q1768.1 210.622 1769.58 211.965 Q1771.08 213.284 1773.65 213.284 Q1777.19 213.284 1779.32 210.784 Q1781.48 208.261 1781.48 204.094 L1781.48 203.145 L1777.24 203.145 M1785.74 201.386 L1785.74 216.178 L1781.48 216.178 L1781.48 212.242 Q1780.02 214.603 1777.84 215.738 Q1775.67 216.849 1772.52 216.849 Q1768.54 216.849 1766.18 214.627 Q1763.84 212.381 1763.84 208.631 Q1763.84 204.256 1766.75 202.034 Q1769.69 199.812 1775.5 199.812 L1781.48 199.812 L1781.48 199.395 Q1781.48 196.455 1779.53 194.858 Q1777.61 193.238 1774.12 193.238 Q1771.89 193.238 1769.79 193.77 Q1767.68 194.303 1765.74 195.367 L1765.74 191.432 Q1768.07 190.53 1770.27 190.09 Q1772.47 189.627 1774.55 189.627 Q1780.18 189.627 1782.96 192.543 Q1785.74 195.46 1785.74 201.386 Z" fill="#000000" fill-rule="evenodd" fill-opacity="1" /><path clip-path="url(#clip550)" d="M1794.51 180.159 L1798.77 180.159 L1798.77 216.178 L1794.51 216.178 L1794.51 180.159 Z" fill="#000000" fill-rule="evenodd" fill-opacity="1" /><path clip-path="url(#clip550)" d="M1844.92 202.15 L1844.92 204.233 L1825.34 204.233 Q1825.62 208.631 1827.98 210.946 Q1830.36 213.238 1834.6 213.238 Q1837.05 213.238 1839.35 212.636 Q1841.66 212.034 1843.93 210.83 L1843.93 214.858 Q1841.64 215.83 1839.23 216.34 Q1836.82 216.849 1834.35 216.849 Q1828.14 216.849 1824.51 213.238 Q1820.9 209.627 1820.9 203.469 Q1820.9 197.104 1824.32 193.377 Q1827.77 189.627 1833.61 189.627 Q1838.84 189.627 1841.87 193.006 Q1844.92 196.363 1844.92 202.15 M1840.67 200.9 Q1840.62 197.405 1838.7 195.321 Q1836.8 193.238 1833.65 193.238 Q1830.09 193.238 1827.93 195.252 Q1825.8 197.266 1825.48 200.923 L1840.67 200.9 Z" fill="#000000" fill-rule="evenodd" fill-opacity="1" /><path clip-path="url(#clip550)" d="M1872.63 190.252 L1863.26 202.867 L1873.12 216.178 L1868.1 216.178 L1860.55 205.992 L1853 216.178 L1847.98 216.178 L1858.05 202.613 L1848.84 190.252 L1853.86 190.252 L1860.73 199.488 L1867.61 190.252 L1872.63 190.252 Z" fill="#000000" fill-rule="evenodd" fill-opacity="1" /><path clip-path="url(#clip550)" d="M1883.26 212.289 L1883.26 226.039 L1878.98 226.039 L1878.98 190.252 L1883.26 190.252 L1883.26 194.187 Q1884.6 191.872 1886.64 190.761 Q1888.7 189.627 1891.55 189.627 Q1896.27 189.627 1899.21 193.377 Q1902.17 197.127 1902.17 203.238 Q1902.17 209.349 1899.21 213.099 Q1896.27 216.849 1891.55 216.849 Q1888.7 216.849 1886.64 215.738 Q1884.6 214.603 1883.26 212.289 M1897.75 203.238 Q1897.75 198.539 1895.8 195.877 Q1893.88 193.192 1890.5 193.192 Q1887.12 193.192 1885.18 195.877 Q1883.26 198.539 1883.26 203.238 Q1883.26 207.937 1885.18 210.622 Q1887.12 213.284 1890.5 213.284 Q1893.88 213.284 1895.8 210.622 Q1897.75 207.937 1897.75 203.238 Z" fill="#000000" fill-rule="evenodd" fill-opacity="1" /><path clip-path="url(#clip550)" d="M1931.41 202.15 L1931.41 204.233 L1911.82 204.233 Q1912.1 208.631 1914.46 210.946 Q1916.85 213.238 1921.08 213.238 Q1923.54 213.238 1925.83 212.636 Q1928.14 212.034 1930.41 210.83 L1930.41 214.858 Q1928.12 215.83 1925.71 216.34 Q1923.3 216.849 1920.83 216.849 Q1914.62 216.849 1910.99 213.238 Q1907.38 209.627 1907.38 203.469 Q1907.38 197.104 1910.8 193.377 Q1914.25 189.627 1920.09 189.627 Q1925.32 189.627 1928.35 193.006 Q1931.41 196.363 1931.41 202.15 M1927.15 200.9 Q1927.1 197.405 1925.18 195.321 Q1923.28 193.238 1920.13 193.238 Q1916.57 193.238 1914.42 195.252 Q1912.29 197.266 1911.96 200.923 L1927.15 200.9 Z" fill="#000000" fill-rule="evenodd" fill-opacity="1" /><path clip-path="url(#clip550)" d="M1957.05 191.247 L1957.05 195.229 Q1955.25 194.233 1953.42 193.747 Q1951.61 193.238 1949.76 193.238 Q1945.62 193.238 1943.33 195.877 Q1941.04 198.492 1941.04 203.238 Q1941.04 207.983 1943.33 210.622 Q1945.62 213.238 1949.76 213.238 Q1951.61 213.238 1953.42 212.752 Q1955.25 212.242 1957.05 211.247 L1957.05 215.182 Q1955.27 216.016 1953.35 216.432 Q1951.45 216.849 1949.3 216.849 Q1943.44 216.849 1939.99 213.168 Q1936.54 209.488 1936.54 203.238 Q1936.54 196.895 1940.02 193.261 Q1943.51 189.627 1949.58 189.627 Q1951.54 189.627 1953.42 190.043 Q1955.29 190.437 1957.05 191.247 Z" fill="#000000" fill-rule="evenodd" fill-opacity="1" /><path clip-path="url(#clip550)" d="M1968.67 182.891 L1968.67 190.252 L1977.45 190.252 L1977.45 193.562 L1968.67 193.562 L1968.67 207.636 Q1968.67 210.807 1969.53 211.71 Q1970.41 212.613 1973.07 212.613 L1977.45 212.613 L1977.45 216.178 L1973.07 216.178 Q1968.14 216.178 1966.27 214.349 Q1964.39 212.497 1964.39 207.636 L1964.39 193.562 L1961.27 193.562 L1961.27 190.252 L1964.39 190.252 L1964.39 182.891 L1968.67 182.891 Z" fill="#000000" fill-rule="evenodd" fill-opacity="1" /><path clip-path="url(#clip550)" d="M1994.83 203.145 Q1989.67 203.145 1987.68 204.326 Q1985.69 205.506 1985.69 208.354 Q1985.69 210.622 1987.17 211.965 Q1988.67 213.284 1991.24 213.284 Q1994.79 213.284 1996.91 210.784 Q1999.07 208.261 1999.07 204.094 L1999.07 203.145 L1994.83 203.145 M2003.33 201.386 L2003.33 216.178 L1999.07 216.178 L1999.07 212.242 Q1997.61 214.603 1995.43 215.738 Q1993.26 216.849 1990.11 216.849 Q1986.13 216.849 1983.77 214.627 Q1981.43 212.381 1981.43 208.631 Q1981.43 204.256 1984.35 202.034 Q1987.29 199.812 1993.1 199.812 L1999.07 199.812 L1999.07 199.395 Q1999.07 196.455 1997.12 194.858 Q1995.2 193.238 1991.71 193.238 Q1989.48 193.238 1987.38 193.77 Q1985.27 194.303 1983.33 195.367 L1983.33 191.432 Q1985.66 190.53 1987.86 190.09 Q1990.06 189.627 1992.15 189.627 Q1997.77 189.627 2000.55 192.543 Q2003.33 195.46 2003.33 201.386 Z" fill="#000000" fill-rule="evenodd" fill-opacity="1" /><path clip-path="url(#clip550)" d="M2016.31 182.891 L2016.31 190.252 L2025.09 190.252 L2025.09 193.562 L2016.31 193.562 L2016.31 207.636 Q2016.31 210.807 2017.17 211.71 Q2018.05 212.613 2020.71 212.613 L2025.09 212.613 L2025.09 216.178 L2020.71 216.178 Q2015.78 216.178 2013.91 214.349 Q2012.03 212.497 2012.03 207.636 L2012.03 193.562 L2008.91 193.562 L2008.91 190.252 L2012.03 190.252 L2012.03 182.891 L2016.31 182.891 Z" fill="#000000" fill-rule="evenodd" fill-opacity="1" /><path clip-path="url(#clip550)" d="M2030.69 190.252 L2034.95 190.252 L2034.95 216.178 L2030.69 216.178 L2030.69 190.252 M2030.69 180.159 L2034.95 180.159 L2034.95 185.553 L2030.69 185.553 L2030.69 180.159 Z" fill="#000000" fill-rule="evenodd" fill-opacity="1" /><path clip-path="url(#clip550)" d="M2053.91 193.238 Q2050.48 193.238 2048.49 195.923 Q2046.5 198.585 2046.5 203.238 Q2046.5 207.891 2048.47 210.576 Q2050.46 213.238 2053.91 213.238 Q2057.31 213.238 2059.3 210.553 Q2061.29 207.867 2061.29 203.238 Q2061.29 198.631 2059.3 195.946 Q2057.31 193.238 2053.91 193.238 M2053.91 189.627 Q2059.46 189.627 2062.63 193.238 Q2065.8 196.849 2065.8 203.238 Q2065.8 209.604 2062.63 213.238 Q2059.46 216.849 2053.91 216.849 Q2048.33 216.849 2045.16 213.238 Q2042.01 209.604 2042.01 203.238 Q2042.01 196.849 2045.16 193.238 Q2048.33 189.627 2053.91 189.627 Z" fill="#000000" fill-rule="evenodd" fill-opacity="1" /><path clip-path="url(#clip550)" d="M2094.41 200.529 L2094.41 216.178 L2090.16 216.178 L2090.16 200.668 Q2090.16 196.988 2088.72 195.159 Q2087.28 193.33 2084.41 193.33 Q2080.97 193.33 2078.97 195.53 Q2076.98 197.729 2076.98 201.525 L2076.98 216.178 L2072.7 216.178 L2072.7 190.252 L2076.98 190.252 L2076.98 194.28 Q2078.51 191.942 2080.57 190.784 Q2082.66 189.627 2085.36 189.627 Q2089.83 189.627 2092.12 192.405 Q2094.41 195.159 2094.41 200.529 Z" fill="#000000" fill-rule="evenodd" fill-opacity="1" /><path clip-path="url(#clip550)" d="M2140.15 202.15 L2140.15 204.233 L2120.57 204.233 Q2120.85 208.631 2123.21 210.946 Q2125.59 213.238 2129.83 213.238 Q2132.28 213.238 2134.58 212.636 Q2136.89 212.034 2139.16 210.83 L2139.16 214.858 Q2136.87 215.83 2134.46 216.34 Q2132.05 216.849 2129.58 216.849 Q2123.37 216.849 2119.74 213.238 Q2116.13 209.627 2116.13 203.469 Q2116.13 197.104 2119.55 193.377 Q2123 189.627 2128.84 189.627 Q2134.07 189.627 2137.1 193.006 Q2140.15 196.363 2140.15 202.15 M2135.9 200.9 Q2135.85 197.405 2133.93 195.321 Q2132.03 193.238 2128.88 193.238 Q2125.32 193.238 2123.16 195.252 Q2121.03 197.266 2120.71 200.923 L2135.9 200.9 Z" fill="#000000" fill-rule="evenodd" fill-opacity="1" /><path clip-path="url(#clip550)" d="M2162.17 194.233 Q2161.45 193.817 2160.59 193.631 Q2159.76 193.423 2158.74 193.423 Q2155.13 193.423 2153.19 195.784 Q2151.27 198.122 2151.27 202.52 L2151.27 216.178 L2146.98 216.178 L2146.98 190.252 L2151.27 190.252 L2151.27 194.28 Q2152.61 191.918 2154.76 190.784 Q2156.91 189.627 2159.99 189.627 Q2160.43 189.627 2160.96 189.696 Q2161.5 189.743 2162.15 189.858 L2162.17 194.233 Z" fill="#000000" fill-rule="evenodd" fill-opacity="1" /><path clip-path="url(#clip550)" d="M2180.83 194.233 Q2180.11 193.817 2179.25 193.631 Q2178.42 193.423 2177.4 193.423 Q2173.79 193.423 2171.84 195.784 Q2169.92 198.122 2169.92 202.52 L2169.92 216.178 L2165.64 216.178 L2165.64 190.252 L2169.92 190.252 L2169.92 194.28 Q2171.27 191.918 2173.42 190.784 Q2175.57 189.627 2178.65 189.627 Q2179.09 189.627 2179.62 189.696 Q2180.15 189.743 2180.8 189.858 L2180.83 194.233 Z" fill="#000000" fill-rule="evenodd" fill-opacity="1" /><path clip-path="url(#clip550)" d="M2194.3 193.238 Q2190.87 193.238 2188.88 195.923 Q2186.89 198.585 2186.89 203.238 Q2186.89 207.891 2188.86 210.576 Q2190.85 213.238 2194.3 213.238 Q2197.7 213.238 2199.69 210.553 Q2201.68 207.867 2201.68 203.238 Q2201.68 198.631 2199.69 195.946 Q2197.7 193.238 2194.3 193.238 M2194.3 189.627 Q2199.85 189.627 2203.02 193.238 Q2206.2 196.849 2206.2 203.238 Q2206.2 209.604 2203.02 213.238 Q2199.85 216.849 2194.3 216.849 Q2188.72 216.849 2185.55 213.238 Q2182.4 209.604 2182.4 203.238 Q2182.4 196.849 2185.55 193.238 Q2188.72 189.627 2194.3 189.627 Z" fill="#000000" fill-rule="evenodd" fill-opacity="1" /><path clip-path="url(#clip550)" d="M2228.28 194.233 Q2227.56 193.817 2226.71 193.631 Q2225.87 193.423 2224.85 193.423 Q2221.24 193.423 2219.3 195.784 Q2217.38 198.122 2217.38 202.52 L2217.38 216.178 L2213.09 216.178 L2213.09 190.252 L2217.38 190.252 L2217.38 194.28 Q2218.72 191.918 2220.87 190.784 Q2223.02 189.627 2226.1 189.627 Q2226.54 189.627 2227.08 189.696 Q2227.61 189.743 2228.26 189.858 L2228.28 194.233 Z" fill="#000000" fill-rule="evenodd" fill-opacity="1" /></svg>
