<?xml version="1.0" encoding="utf-8"?>
<svg xmlns="http://www.w3.org/2000/svg" xmlns:xlink="http://www.w3.org/1999/xlink" width="600" height="400" viewBox="0 0 2400 1600">
<defs>
  <clipPath id="clip600">
    <rect x="0" y="0" width="2400" height="1600"/>
  </clipPath>
</defs>
<path clip-path="url(#clip600)" d="
M0 1600 L2400 1600 L2400 0 L0 0  Z
  " fill="#ffffff" fill-rule="evenodd" fill-opacity="1"/>
<defs>
  <clipPath id="clip601">
    <rect x="480" y="0" width="1681" height="1600"/>
  </clipPath>
</defs>
<path clip-path="url(#clip600)" d="
M186.274 1486.45 L2352.76 1486.45 L2352.76 47.2441 L186.274 47.2441  Z
  " fill="#ffffff" fill-rule="evenodd" fill-opacity="1"/>
<defs>
  <clipPath id="clip602">
    <rect x="186" y="47" width="2167" height="1440"/>
  </clipPath>
</defs>
<polyline clip-path="url(#clip600)" style="stroke:#000000; stroke-linecap:butt; stroke-linejoin:round; stroke-width:4; stroke-opacity:1; fill:none" points="
  186.274,1486.45 2352.76,1486.45 
  "/>
<polyline clip-path="url(#clip600)" style="stroke:#000000; stroke-linecap:butt; stroke-linejoin:round; stroke-width:4; stroke-opacity:1; fill:none" points="
  186.274,1486.45 186.274,1467.55 
  "/>
<polyline clip-path="url(#clip600)" style="stroke:#000000; stroke-linecap:butt; stroke-linejoin:round; stroke-width:4; stroke-opacity:1; fill:none" points="
  547.354,1486.45 547.354,1467.55 
  "/>
<polyline clip-path="url(#clip600)" style="stroke:#000000; stroke-linecap:butt; stroke-linejoin:round; stroke-width:4; stroke-opacity:1; fill:none" points="
  908.435,1486.45 908.435,1467.55 
  "/>
<polyline clip-path="url(#clip600)" style="stroke:#000000; stroke-linecap:butt; stroke-linejoin:round; stroke-width:4; stroke-opacity:1; fill:none" points="
  1269.51,1486.45 1269.51,1467.55 
  "/>
<polyline clip-path="url(#clip600)" style="stroke:#000000; stroke-linecap:butt; stroke-linejoin:round; stroke-width:4; stroke-opacity:1; fill:none" points="
  1630.6,1486.45 1630.6,1467.55 
  "/>
<polyline clip-path="url(#clip600)" style="stroke:#000000; stroke-linecap:butt; stroke-linejoin:round; stroke-width:4; stroke-opacity:1; fill:none" points="
  1991.68,1486.45 1991.68,1467.55 
  "/>
<polyline clip-path="url(#clip600)" style="stroke:#000000; stroke-linecap:butt; stroke-linejoin:round; stroke-width:4; stroke-opacity:1; fill:none" points="
  2352.76,1486.45 2352.76,1467.55 
  "/>
<path clip-path="url(#clip600)" d="M186.274 1517.37 Q182.663 1517.37 180.834 1520.93 Q179.029 1524.47 179.029 1531.6 Q179.029 1538.71 180.834 1542.27 Q182.663 1545.82 186.274 1545.82 Q189.908 1545.82 191.714 1542.27 Q193.542 1538.71 193.542 1531.6 Q193.542 1524.47 191.714 1520.93 Q189.908 1517.37 186.274 1517.37 M186.274 1513.66 Q192.084 1513.66 195.14 1518.27 Q198.218 1522.85 198.218 1531.6 Q198.218 1540.33 195.14 1544.94 Q192.084 1549.52 186.274 1549.52 Q180.464 1549.52 177.385 1544.94 Q174.33 1540.33 174.33 1531.6 Q174.33 1522.85 177.385 1518.27 Q180.464 1513.66 186.274 1513.66 Z" fill="#000000" fill-rule="evenodd" fill-opacity="1" /><path clip-path="url(#clip600)" d="M506.961 1544.91 L514.6 1544.91 L514.6 1518.55 L506.29 1520.21 L506.29 1515.95 L514.554 1514.29 L519.229 1514.29 L519.229 1544.91 L526.868 1544.91 L526.868 1548.85 L506.961 1548.85 L506.961 1544.91 Z" fill="#000000" fill-rule="evenodd" fill-opacity="1" /><path clip-path="url(#clip600)" d="M546.313 1517.37 Q542.702 1517.37 540.873 1520.93 Q539.067 1524.47 539.067 1531.6 Q539.067 1538.71 540.873 1542.27 Q542.702 1545.82 546.313 1545.82 Q549.947 1545.82 551.752 1542.27 Q553.581 1538.71 553.581 1531.6 Q553.581 1524.47 551.752 1520.93 Q549.947 1517.37 546.313 1517.37 M546.313 1513.66 Q552.123 1513.66 555.178 1518.27 Q558.257 1522.85 558.257 1531.6 Q558.257 1540.33 555.178 1544.94 Q552.123 1549.52 546.313 1549.52 Q540.503 1549.52 537.424 1544.94 Q534.368 1540.33 534.368 1531.6 Q534.368 1522.85 537.424 1518.27 Q540.503 1513.66 546.313 1513.66 Z" fill="#000000" fill-rule="evenodd" fill-opacity="1" /><path clip-path="url(#clip600)" d="M576.475 1517.37 Q572.863 1517.37 571.035 1520.93 Q569.229 1524.47 569.229 1531.6 Q569.229 1538.71 571.035 1542.27 Q572.863 1545.82 576.475 1545.82 Q580.109 1545.82 581.914 1542.27 Q583.743 1538.71 583.743 1531.6 Q583.743 1524.47 581.914 1520.93 Q580.109 1517.37 576.475 1517.37 M576.475 1513.66 Q582.285 1513.66 585.34 1518.27 Q588.419 1522.85 588.419 1531.6 Q588.419 1540.33 585.34 1544.94 Q582.285 1549.52 576.475 1549.52 Q570.664 1549.52 567.586 1544.94 Q564.53 1540.33 564.53 1531.6 Q564.53 1522.85 567.586 1518.27 Q570.664 1513.66 576.475 1513.66 Z" fill="#000000" fill-rule="evenodd" fill-opacity="1" /><path clip-path="url(#clip600)" d="M872.127 1544.91 L888.446 1544.91 L888.446 1548.85 L866.502 1548.85 L866.502 1544.91 Q869.164 1542.16 873.747 1537.53 Q878.354 1532.88 879.534 1531.53 Q881.78 1529.01 882.659 1527.27 Q883.562 1525.51 883.562 1523.82 Q883.562 1521.07 881.618 1519.33 Q879.696 1517.6 876.595 1517.6 Q874.395 1517.6 871.942 1518.36 Q869.511 1519.13 866.733 1520.68 L866.733 1515.95 Q869.558 1514.82 872.011 1514.24 Q874.465 1513.66 876.502 1513.66 Q881.872 1513.66 885.067 1516.35 Q888.261 1519.03 888.261 1523.52 Q888.261 1525.65 887.451 1527.57 Q886.664 1529.47 884.557 1532.07 Q883.979 1532.74 880.877 1535.95 Q877.775 1539.15 872.127 1544.91 Z" fill="#000000" fill-rule="evenodd" fill-opacity="1" /><path clip-path="url(#clip600)" d="M908.261 1517.37 Q904.65 1517.37 902.821 1520.93 Q901.016 1524.47 901.016 1531.6 Q901.016 1538.71 902.821 1542.27 Q904.65 1545.82 908.261 1545.82 Q911.895 1545.82 913.701 1542.27 Q915.53 1538.71 915.53 1531.6 Q915.53 1524.47 913.701 1520.93 Q911.895 1517.37 908.261 1517.37 M908.261 1513.66 Q914.071 1513.66 917.127 1518.27 Q920.205 1522.85 920.205 1531.6 Q920.205 1540.33 917.127 1544.94 Q914.071 1549.52 908.261 1549.52 Q902.451 1549.52 899.372 1544.94 Q896.317 1540.33 896.317 1531.6 Q896.317 1522.85 899.372 1518.27 Q902.451 1513.66 908.261 1513.66 Z" fill="#000000" fill-rule="evenodd" fill-opacity="1" /><path clip-path="url(#clip600)" d="M938.423 1517.37 Q934.812 1517.37 932.983 1520.93 Q931.178 1524.47 931.178 1531.6 Q931.178 1538.71 932.983 1542.27 Q934.812 1545.82 938.423 1545.82 Q942.057 1545.82 943.863 1542.27 Q945.691 1538.71 945.691 1531.6 Q945.691 1524.47 943.863 1520.93 Q942.057 1517.37 938.423 1517.37 M938.423 1513.66 Q944.233 1513.66 947.289 1518.27 Q950.367 1522.85 950.367 1531.6 Q950.367 1540.33 947.289 1544.94 Q944.233 1549.52 938.423 1549.52 Q932.613 1549.52 929.534 1544.94 Q926.479 1540.33 926.479 1531.6 Q926.479 1522.85 929.534 1518.27 Q932.613 1513.66 938.423 1513.66 Z" fill="#000000" fill-rule="evenodd" fill-opacity="1" /><path clip-path="url(#clip600)" d="M1243.28 1530.21 Q1246.63 1530.93 1248.51 1533.2 Q1250.41 1535.47 1250.41 1538.8 Q1250.41 1543.92 1246.89 1546.72 Q1243.37 1549.52 1236.89 1549.52 Q1234.71 1549.52 1232.4 1549.08 Q1230.11 1548.66 1227.65 1547.81 L1227.65 1543.29 Q1229.6 1544.43 1231.91 1545.01 Q1234.23 1545.58 1236.75 1545.58 Q1241.15 1545.58 1243.44 1543.85 Q1245.75 1542.11 1245.75 1538.8 Q1245.75 1535.75 1243.6 1534.03 Q1241.47 1532.3 1237.65 1532.3 L1233.62 1532.3 L1233.62 1528.45 L1237.84 1528.45 Q1241.29 1528.45 1243.11 1527.09 Q1244.94 1525.7 1244.94 1523.11 Q1244.94 1520.45 1243.05 1519.03 Q1241.17 1517.6 1237.65 1517.6 Q1235.73 1517.6 1233.53 1518.01 Q1231.33 1518.43 1228.69 1519.31 L1228.69 1515.14 Q1231.36 1514.4 1233.67 1514.03 Q1236.01 1513.66 1238.07 1513.66 Q1243.39 1513.66 1246.49 1516.09 Q1249.6 1518.5 1249.6 1522.62 Q1249.6 1525.49 1247.95 1527.48 Q1246.31 1529.45 1243.28 1530.21 Z" fill="#000000" fill-rule="evenodd" fill-opacity="1" /><path clip-path="url(#clip600)" d="M1269.27 1517.37 Q1265.66 1517.37 1263.83 1520.93 Q1262.03 1524.47 1262.03 1531.6 Q1262.03 1538.71 1263.83 1542.27 Q1265.66 1545.82 1269.27 1545.82 Q1272.91 1545.82 1274.71 1542.27 Q1276.54 1538.71 1276.54 1531.6 Q1276.54 1524.47 1274.71 1520.93 Q1272.91 1517.37 1269.27 1517.37 M1269.27 1513.66 Q1275.08 1513.66 1278.14 1518.27 Q1281.22 1522.85 1281.22 1531.6 Q1281.22 1540.33 1278.14 1544.94 Q1275.08 1549.52 1269.27 1549.52 Q1263.46 1549.52 1260.38 1544.94 Q1257.33 1540.33 1257.33 1531.6 Q1257.33 1522.85 1260.38 1518.27 Q1263.46 1513.66 1269.27 1513.66 Z" fill="#000000" fill-rule="evenodd" fill-opacity="1" /><path clip-path="url(#clip600)" d="M1299.43 1517.37 Q1295.82 1517.37 1293.99 1520.93 Q1292.19 1524.47 1292.19 1531.6 Q1292.19 1538.71 1293.99 1542.27 Q1295.82 1545.82 1299.43 1545.82 Q1303.07 1545.82 1304.87 1542.27 Q1306.7 1538.71 1306.7 1531.6 Q1306.7 1524.47 1304.87 1520.93 Q1303.07 1517.37 1299.43 1517.37 M1299.43 1513.66 Q1305.24 1513.66 1308.3 1518.27 Q1311.38 1522.85 1311.38 1531.6 Q1311.38 1540.33 1308.3 1544.94 Q1305.24 1549.52 1299.43 1549.52 Q1293.62 1549.52 1290.54 1544.94 Q1287.49 1540.33 1287.49 1531.6 Q1287.49 1522.85 1290.54 1518.27 Q1293.62 1513.66 1299.43 1513.66 Z" fill="#000000" fill-rule="evenodd" fill-opacity="1" /><path clip-path="url(#clip600)" d="M1603.69 1518.36 L1591.88 1536.81 L1603.69 1536.81 L1603.69 1518.36 M1602.46 1514.29 L1608.34 1514.29 L1608.34 1536.81 L1613.27 1536.81 L1613.27 1540.7 L1608.34 1540.7 L1608.34 1548.85 L1603.69 1548.85 L1603.69 1540.7 L1588.08 1540.7 L1588.08 1536.19 L1602.46 1514.29 Z" fill="#000000" fill-rule="evenodd" fill-opacity="1" /><path clip-path="url(#clip600)" d="M1631 1517.37 Q1627.39 1517.37 1625.56 1520.93 Q1623.76 1524.47 1623.76 1531.6 Q1623.76 1538.71 1625.56 1542.27 Q1627.39 1545.82 1631 1545.82 Q1634.63 1545.82 1636.44 1542.27 Q1638.27 1538.71 1638.27 1531.6 Q1638.27 1524.47 1636.44 1520.93 Q1634.63 1517.37 1631 1517.37 M1631 1513.66 Q1636.81 1513.66 1639.87 1518.27 Q1642.94 1522.85 1642.94 1531.6 Q1642.94 1540.33 1639.87 1544.94 Q1636.81 1549.52 1631 1549.52 Q1625.19 1549.52 1622.11 1544.94 Q1619.06 1540.33 1619.06 1531.6 Q1619.06 1522.85 1622.11 1518.27 Q1625.19 1513.66 1631 1513.66 Z" fill="#000000" fill-rule="evenodd" fill-opacity="1" /><path clip-path="url(#clip600)" d="M1661.16 1517.37 Q1657.55 1517.37 1655.72 1520.93 Q1653.92 1524.47 1653.92 1531.6 Q1653.92 1538.71 1655.72 1542.27 Q1657.55 1545.82 1661.16 1545.82 Q1664.8 1545.82 1666.6 1542.27 Q1668.43 1538.71 1668.43 1531.6 Q1668.43 1524.47 1666.6 1520.93 Q1664.8 1517.37 1661.16 1517.37 M1661.16 1513.66 Q1666.97 1513.66 1670.03 1518.27 Q1673.11 1522.85 1673.11 1531.6 Q1673.11 1540.33 1670.03 1544.94 Q1666.97 1549.52 1661.16 1549.52 Q1655.35 1549.52 1652.27 1544.94 Q1649.22 1540.33 1649.22 1531.6 Q1649.22 1522.85 1652.27 1518.27 Q1655.35 1513.66 1661.16 1513.66 Z" fill="#000000" fill-rule="evenodd" fill-opacity="1" /><path clip-path="url(#clip600)" d="M1951.29 1514.29 L1969.65 1514.29 L1969.65 1518.22 L1955.58 1518.22 L1955.58 1526.7 Q1956.59 1526.35 1957.61 1526.19 Q1958.63 1526 1959.65 1526 Q1965.44 1526 1968.82 1529.17 Q1972.2 1532.34 1972.2 1537.76 Q1972.2 1543.34 1968.72 1546.44 Q1965.25 1549.52 1958.93 1549.52 Q1956.76 1549.52 1954.49 1549.15 Q1952.24 1548.78 1949.84 1548.04 L1949.84 1543.34 Q1951.92 1544.47 1954.14 1545.03 Q1956.36 1545.58 1958.84 1545.58 Q1962.84 1545.58 1965.18 1543.48 Q1967.52 1541.37 1967.52 1537.76 Q1967.52 1534.15 1965.18 1532.04 Q1962.84 1529.94 1958.84 1529.94 Q1956.97 1529.94 1955.09 1530.35 Q1953.24 1530.77 1951.29 1531.65 L1951.29 1514.29 Z" fill="#000000" fill-rule="evenodd" fill-opacity="1" /><path clip-path="url(#clip600)" d="M1991.41 1517.37 Q1987.8 1517.37 1985.97 1520.93 Q1984.16 1524.47 1984.16 1531.6 Q1984.16 1538.71 1985.97 1542.27 Q1987.8 1545.82 1991.41 1545.82 Q1995.04 1545.82 1996.85 1542.27 Q1998.68 1538.71 1998.68 1531.6 Q1998.68 1524.47 1996.85 1520.93 Q1995.04 1517.37 1991.41 1517.37 M1991.41 1513.66 Q1997.22 1513.66 2000.28 1518.27 Q2003.35 1522.85 2003.35 1531.6 Q2003.35 1540.33 2000.28 1544.94 Q1997.22 1549.52 1991.41 1549.52 Q1985.6 1549.52 1982.52 1544.94 Q1979.47 1540.33 1979.47 1531.6 Q1979.47 1522.85 1982.52 1518.27 Q1985.6 1513.66 1991.41 1513.66 Z" fill="#000000" fill-rule="evenodd" fill-opacity="1" /><path clip-path="url(#clip600)" d="M2021.57 1517.37 Q2017.96 1517.37 2016.13 1520.93 Q2014.33 1524.47 2014.33 1531.6 Q2014.33 1538.71 2016.13 1542.27 Q2017.96 1545.82 2021.57 1545.82 Q2025.21 1545.82 2027.01 1542.27 Q2028.84 1538.71 2028.84 1531.6 Q2028.84 1524.47 2027.01 1520.93 Q2025.21 1517.37 2021.57 1517.37 M2021.57 1513.66 Q2027.38 1513.66 2030.44 1518.27 Q2033.52 1522.85 2033.52 1531.6 Q2033.52 1540.33 2030.44 1544.94 Q2027.38 1549.52 2021.57 1549.52 Q2015.76 1549.52 2012.68 1544.94 Q2009.63 1540.33 2009.63 1531.6 Q2009.63 1522.85 2012.68 1518.27 Q2015.76 1513.66 2021.57 1513.66 Z" fill="#000000" fill-rule="evenodd" fill-opacity="1" /><path clip-path="url(#clip600)" d="M2323.08 1529.7 Q2319.93 1529.7 2318.08 1531.86 Q2316.25 1534.01 2316.25 1537.76 Q2316.25 1541.49 2318.08 1543.66 Q2319.93 1545.82 2323.08 1545.82 Q2326.23 1545.82 2328.06 1543.66 Q2329.91 1541.49 2329.91 1537.76 Q2329.91 1534.01 2328.06 1531.86 Q2326.23 1529.7 2323.08 1529.7 M2332.36 1515.05 L2332.36 1519.31 Q2330.6 1518.48 2328.8 1518.04 Q2327.02 1517.6 2325.26 1517.6 Q2320.63 1517.6 2318.17 1520.72 Q2315.74 1523.85 2315.39 1530.17 Q2316.76 1528.15 2318.82 1527.09 Q2320.88 1526 2323.36 1526 Q2328.57 1526 2331.58 1529.17 Q2334.61 1532.32 2334.61 1537.76 Q2334.61 1543.08 2331.46 1546.3 Q2328.31 1549.52 2323.08 1549.52 Q2317.08 1549.52 2313.91 1544.94 Q2310.74 1540.33 2310.74 1531.6 Q2310.74 1523.41 2314.63 1518.55 Q2318.52 1513.66 2325.07 1513.66 Q2326.83 1513.66 2328.61 1514.01 Q2330.42 1514.36 2332.36 1515.05 Z" fill="#000000" fill-rule="evenodd" fill-opacity="1" /><path clip-path="url(#clip600)" d="M2352.66 1517.37 Q2349.05 1517.37 2347.22 1520.93 Q2345.42 1524.47 2345.42 1531.6 Q2345.42 1538.71 2347.22 1542.27 Q2349.05 1545.82 2352.66 1545.82 Q2356.3 1545.82 2358.1 1542.27 Q2359.93 1538.71 2359.93 1531.6 Q2359.93 1524.47 2358.1 1520.93 Q2356.3 1517.37 2352.66 1517.37 M2352.66 1513.66 Q2358.47 1513.66 2361.53 1518.27 Q2364.61 1522.85 2364.61 1531.6 Q2364.61 1540.33 2361.53 1544.94 Q2358.47 1549.52 2352.66 1549.52 Q2346.85 1549.52 2343.77 1544.94 Q2340.72 1540.33 2340.72 1531.6 Q2340.72 1522.85 2343.77 1518.27 Q2346.85 1513.66 2352.66 1513.66 Z" fill="#000000" fill-rule="evenodd" fill-opacity="1" /><path clip-path="url(#clip600)" d="M2382.83 1517.37 Q2379.21 1517.37 2377.39 1520.93 Q2375.58 1524.47 2375.58 1531.6 Q2375.58 1538.71 2377.39 1542.27 Q2379.21 1545.82 2382.83 1545.82 Q2386.46 1545.82 2388.26 1542.27 Q2390.09 1538.71 2390.09 1531.6 Q2390.09 1524.47 2388.26 1520.93 Q2386.46 1517.37 2382.83 1517.37 M2382.83 1513.66 Q2388.64 1513.66 2391.69 1518.27 Q2394.77 1522.85 2394.77 1531.6 Q2394.77 1540.33 2391.69 1544.94 Q2388.64 1549.52 2382.83 1549.52 Q2377.02 1549.52 2373.94 1544.94 Q2370.88 1540.33 2370.88 1531.6 Q2370.88 1522.85 2373.94 1518.27 Q2377.02 1513.66 2382.83 1513.66 Z" fill="#000000" fill-rule="evenodd" fill-opacity="1" /><polyline clip-path="url(#clip600)" style="stroke:#000000; stroke-linecap:butt; stroke-linejoin:round; stroke-width:4; stroke-opacity:1; fill:none" points="
  186.274,1486.45 186.274,47.2441 
  "/>
<polyline clip-path="url(#clip600)" style="stroke:#000000; stroke-linecap:butt; stroke-linejoin:round; stroke-width:4; stroke-opacity:1; fill:none" points="
  186.274,1445.72 205.172,1445.72 
  "/>
<polyline clip-path="url(#clip600)" style="stroke:#000000; stroke-linecap:butt; stroke-linejoin:round; stroke-width:4; stroke-opacity:1; fill:none" points="
  186.274,1101.87 205.172,1101.87 
  "/>
<polyline clip-path="url(#clip600)" style="stroke:#000000; stroke-linecap:butt; stroke-linejoin:round; stroke-width:4; stroke-opacity:1; fill:none" points="
  186.274,758.031 205.172,758.031 
  "/>
<polyline clip-path="url(#clip600)" style="stroke:#000000; stroke-linecap:butt; stroke-linejoin:round; stroke-width:4; stroke-opacity:1; fill:none" points="
  186.274,414.189 205.172,414.189 
  "/>
<polyline clip-path="url(#clip600)" style="stroke:#000000; stroke-linecap:butt; stroke-linejoin:round; stroke-width:4; stroke-opacity:1; fill:none" points="
  186.274,70.3473 205.172,70.3473 
  "/>
<path clip-path="url(#clip600)" d="M62.9365 1431.51 Q59.3254 1431.51 57.4967 1435.08 Q55.6912 1438.62 55.6912 1445.75 Q55.6912 1452.86 57.4967 1456.42 Q59.3254 1459.96 62.9365 1459.96 Q66.5707 1459.96 68.3763 1456.42 Q70.205 1452.86 70.205 1445.75 Q70.205 1438.62 68.3763 1435.08 Q66.5707 1431.51 62.9365 1431.51 M62.9365 1427.81 Q68.7467 1427.81 71.8022 1432.42 Q74.8809 1437 74.8809 1445.75 Q74.8809 1454.48 71.8022 1459.08 Q68.7467 1463.67 62.9365 1463.67 Q57.1264 1463.67 54.0477 1459.08 Q50.9921 1454.48 50.9921 1445.75 Q50.9921 1437 54.0477 1432.42 Q57.1264 1427.81 62.9365 1427.81 Z" fill="#000000" fill-rule="evenodd" fill-opacity="1" /><path clip-path="url(#clip600)" d="M83.0984 1457.12 L87.9827 1457.12 L87.9827 1463 L83.0984 1463 L83.0984 1457.12 Z" fill="#000000" fill-rule="evenodd" fill-opacity="1" /><path clip-path="url(#clip600)" d="M108.168 1431.51 Q104.557 1431.51 102.728 1435.08 Q100.922 1438.62 100.922 1445.75 Q100.922 1452.86 102.728 1456.42 Q104.557 1459.96 108.168 1459.96 Q111.802 1459.96 113.608 1456.42 Q115.436 1452.86 115.436 1445.75 Q115.436 1438.62 113.608 1435.08 Q111.802 1431.51 108.168 1431.51 M108.168 1427.81 Q113.978 1427.81 117.033 1432.42 Q120.112 1437 120.112 1445.75 Q120.112 1454.48 117.033 1459.08 Q113.978 1463.67 108.168 1463.67 Q102.358 1463.67 99.2789 1459.08 Q96.2234 1454.48 96.2234 1445.75 Q96.2234 1437 99.2789 1432.42 Q102.358 1427.81 108.168 1427.81 Z" fill="#000000" fill-rule="evenodd" fill-opacity="1" /><path clip-path="url(#clip600)" d="M138.33 1431.51 Q134.719 1431.51 132.89 1435.08 Q131.084 1438.62 131.084 1445.75 Q131.084 1452.86 132.89 1456.42 Q134.719 1459.96 138.33 1459.96 Q141.964 1459.96 143.769 1456.42 Q145.598 1452.86 145.598 1445.75 Q145.598 1438.62 143.769 1435.08 Q141.964 1431.51 138.33 1431.51 M138.33 1427.81 Q144.14 1427.81 147.195 1432.42 Q150.274 1437 150.274 1445.75 Q150.274 1454.48 147.195 1459.08 Q144.14 1463.67 138.33 1463.67 Q132.519 1463.67 129.441 1459.08 Q126.385 1454.48 126.385 1445.75 Q126.385 1437 129.441 1432.42 Q132.519 1427.81 138.33 1427.81 Z" fill="#000000" fill-rule="evenodd" fill-opacity="1" /><path clip-path="url(#clip600)" d="M63.9319 1087.67 Q60.3208 1087.67 58.4921 1091.24 Q56.6865 1094.78 56.6865 1101.91 Q56.6865 1109.01 58.4921 1112.58 Q60.3208 1116.12 63.9319 1116.12 Q67.5661 1116.12 69.3717 1112.58 Q71.2004 1109.01 71.2004 1101.91 Q71.2004 1094.78 69.3717 1091.24 Q67.5661 1087.67 63.9319 1087.67 M63.9319 1083.97 Q69.742 1083.97 72.7976 1088.58 Q75.8763 1093.16 75.8763 1101.91 Q75.8763 1110.64 72.7976 1115.24 Q69.742 1119.82 63.9319 1119.82 Q58.1217 1119.82 55.043 1115.24 Q51.9875 1110.64 51.9875 1101.91 Q51.9875 1093.16 55.043 1088.58 Q58.1217 1083.97 63.9319 1083.97 Z" fill="#000000" fill-rule="evenodd" fill-opacity="1" /><path clip-path="url(#clip600)" d="M84.0938 1113.27 L88.978 1113.27 L88.978 1119.15 L84.0938 1119.15 L84.0938 1113.27 Z" fill="#000000" fill-rule="evenodd" fill-opacity="1" /><path clip-path="url(#clip600)" d="M103.191 1115.22 L119.51 1115.22 L119.51 1119.15 L97.566 1119.15 L97.566 1115.22 Q100.228 1112.46 104.811 1107.83 Q109.418 1103.18 110.598 1101.84 Q112.844 1099.32 113.723 1097.58 Q114.626 1095.82 114.626 1094.13 Q114.626 1091.38 112.682 1089.64 Q110.76 1087.9 107.658 1087.9 Q105.459 1087.9 103.006 1088.67 Q100.575 1089.43 97.7974 1090.98 L97.7974 1086.26 Q100.621 1085.13 103.075 1084.55 Q105.529 1083.97 107.566 1083.97 Q112.936 1083.97 116.131 1086.65 Q119.325 1089.34 119.325 1093.83 Q119.325 1095.96 118.515 1097.88 Q117.728 1099.78 115.621 1102.37 Q115.043 1103.04 111.941 1106.26 Q108.839 1109.45 103.191 1115.22 Z" fill="#000000" fill-rule="evenodd" fill-opacity="1" /><path clip-path="url(#clip600)" d="M129.371 1084.59 L147.728 1084.59 L147.728 1088.53 L133.654 1088.53 L133.654 1097 Q134.672 1096.65 135.691 1096.49 Q136.709 1096.31 137.728 1096.31 Q143.515 1096.31 146.894 1099.48 Q150.274 1102.65 150.274 1108.07 Q150.274 1113.64 146.802 1116.75 Q143.33 1119.82 137.01 1119.82 Q134.834 1119.82 132.566 1119.45 Q130.32 1119.08 127.913 1118.34 L127.913 1113.64 Q129.996 1114.78 132.219 1115.33 Q134.441 1115.89 136.918 1115.89 Q140.922 1115.89 143.26 1113.78 Q145.598 1111.68 145.598 1108.07 Q145.598 1104.45 143.26 1102.35 Q140.922 1100.24 136.918 1100.24 Q135.043 1100.24 133.168 1100.66 Q131.316 1101.07 129.371 1101.95 L129.371 1084.59 Z" fill="#000000" fill-rule="evenodd" fill-opacity="1" /><path clip-path="url(#clip600)" d="M62.9365 743.83 Q59.3254 743.83 57.4967 747.395 Q55.6912 750.937 55.6912 758.066 Q55.6912 765.173 57.4967 768.737 Q59.3254 772.279 62.9365 772.279 Q66.5707 772.279 68.3763 768.737 Q70.205 765.173 70.205 758.066 Q70.205 750.937 68.3763 747.395 Q66.5707 743.83 62.9365 743.83 M62.9365 740.126 Q68.7467 740.126 71.8022 744.733 Q74.8809 749.316 74.8809 758.066 Q74.8809 766.793 71.8022 771.399 Q68.7467 775.983 62.9365 775.983 Q57.1264 775.983 54.0477 771.399 Q50.9921 766.793 50.9921 758.066 Q50.9921 749.316 54.0477 744.733 Q57.1264 740.126 62.9365 740.126 Z" fill="#000000" fill-rule="evenodd" fill-opacity="1" /><path clip-path="url(#clip600)" d="M83.0984 769.432 L87.9827 769.432 L87.9827 775.311 L83.0984 775.311 L83.0984 769.432 Z" fill="#000000" fill-rule="evenodd" fill-opacity="1" /><path clip-path="url(#clip600)" d="M98.2141 740.751 L116.57 740.751 L116.57 744.687 L102.496 744.687 L102.496 753.159 Q103.515 752.812 104.534 752.65 Q105.552 752.464 106.571 752.464 Q112.358 752.464 115.737 755.636 Q119.117 758.807 119.117 764.224 Q119.117 769.802 115.645 772.904 Q112.172 775.983 105.853 775.983 Q103.677 775.983 101.409 775.612 Q99.1632 775.242 96.7558 774.501 L96.7558 769.802 Q98.8391 770.937 101.061 771.492 Q103.284 772.048 105.76 772.048 Q109.765 772.048 112.103 769.941 Q114.441 767.835 114.441 764.224 Q114.441 760.612 112.103 758.506 Q109.765 756.4 105.76 756.4 Q103.885 756.4 102.01 756.816 Q100.159 757.233 98.2141 758.113 L98.2141 740.751 Z" fill="#000000" fill-rule="evenodd" fill-opacity="1" /><path clip-path="url(#clip600)" d="M138.33 743.83 Q134.719 743.83 132.89 747.395 Q131.084 750.937 131.084 758.066 Q131.084 765.173 132.89 768.737 Q134.719 772.279 138.33 772.279 Q141.964 772.279 143.769 768.737 Q145.598 765.173 145.598 758.066 Q145.598 750.937 143.769 747.395 Q141.964 743.83 138.33 743.83 M138.33 740.126 Q144.14 740.126 147.195 744.733 Q150.274 749.316 150.274 758.066 Q150.274 766.793 147.195 771.399 Q144.14 775.983 138.33 775.983 Q132.519 775.983 129.441 771.399 Q126.385 766.793 126.385 758.066 Q126.385 749.316 129.441 744.733 Q132.519 740.126 138.33 740.126 Z" fill="#000000" fill-rule="evenodd" fill-opacity="1" /><path clip-path="url(#clip600)" d="M63.9319 399.988 Q60.3208 399.988 58.4921 403.553 Q56.6865 407.095 56.6865 414.224 Q56.6865 421.331 58.4921 424.895 Q60.3208 428.437 63.9319 428.437 Q67.5661 428.437 69.3717 424.895 Q71.2004 421.331 71.2004 414.224 Q71.2004 407.095 69.3717 403.553 Q67.5661 399.988 63.9319 399.988 M63.9319 396.284 Q69.742 396.284 72.7976 400.891 Q75.8763 405.474 75.8763 414.224 Q75.8763 422.951 72.7976 427.557 Q69.742 432.141 63.9319 432.141 Q58.1217 432.141 55.043 427.557 Q51.9875 422.951 51.9875 414.224 Q51.9875 405.474 55.043 400.891 Q58.1217 396.284 63.9319 396.284 Z" fill="#000000" fill-rule="evenodd" fill-opacity="1" /><path clip-path="url(#clip600)" d="M84.0938 425.59 L88.978 425.59 L88.978 431.469 L84.0938 431.469 L84.0938 425.59 Z" fill="#000000" fill-rule="evenodd" fill-opacity="1" /><path clip-path="url(#clip600)" d="M97.9826 396.909 L120.205 396.909 L120.205 398.9 L107.658 431.469 L102.774 431.469 L114.58 400.845 L97.9826 400.845 L97.9826 396.909 Z" fill="#000000" fill-rule="evenodd" fill-opacity="1" /><path clip-path="url(#clip600)" d="M129.371 396.909 L147.728 396.909 L147.728 400.845 L133.654 400.845 L133.654 409.317 Q134.672 408.97 135.691 408.807 Q136.709 408.622 137.728 408.622 Q143.515 408.622 146.894 411.794 Q150.274 414.965 150.274 420.381 Q150.274 425.96 146.802 429.062 Q143.33 432.141 137.01 432.141 Q134.834 432.141 132.566 431.77 Q130.32 431.4 127.913 430.659 L127.913 425.96 Q129.996 427.094 132.219 427.65 Q134.441 428.206 136.918 428.206 Q140.922 428.206 143.26 426.099 Q145.598 423.993 145.598 420.381 Q145.598 416.77 143.26 414.664 Q140.922 412.557 136.918 412.557 Q135.043 412.557 133.168 412.974 Q131.316 413.391 129.371 414.27 L129.371 396.909 Z" fill="#000000" fill-rule="evenodd" fill-opacity="1" /><path clip-path="url(#clip600)" d="M53.7467 83.6921 L61.3856 83.6921 L61.3856 57.3265 L53.0754 58.9932 L53.0754 54.734 L61.3393 53.0673 L66.0152 53.0673 L66.0152 83.6921 L73.654 83.6921 L73.654 87.6273 L53.7467 87.6273 L53.7467 83.6921 Z" fill="#000000" fill-rule="evenodd" fill-opacity="1" /><path clip-path="url(#clip600)" d="M83.0984 81.7477 L87.9827 81.7477 L87.9827 87.6273 L83.0984 87.6273 L83.0984 81.7477 Z" fill="#000000" fill-rule="evenodd" fill-opacity="1" /><path clip-path="url(#clip600)" d="M108.168 56.146 Q104.557 56.146 102.728 59.7108 Q100.922 63.2524 100.922 70.382 Q100.922 77.4885 102.728 81.0533 Q104.557 84.5949 108.168 84.5949 Q111.802 84.5949 113.608 81.0533 Q115.436 77.4885 115.436 70.382 Q115.436 63.2524 113.608 59.7108 Q111.802 56.146 108.168 56.146 M108.168 52.4423 Q113.978 52.4423 117.033 57.0488 Q120.112 61.6321 120.112 70.382 Q120.112 79.1088 117.033 83.7153 Q113.978 88.2986 108.168 88.2986 Q102.358 88.2986 99.2789 83.7153 Q96.2234 79.1088 96.2234 70.382 Q96.2234 61.6321 99.2789 57.0488 Q102.358 52.4423 108.168 52.4423 Z" fill="#000000" fill-rule="evenodd" fill-opacity="1" /><path clip-path="url(#clip600)" d="M138.33 56.146 Q134.719 56.146 132.89 59.7108 Q131.084 63.2524 131.084 70.382 Q131.084 77.4885 132.89 81.0533 Q134.719 84.5949 138.33 84.5949 Q141.964 84.5949 143.769 81.0533 Q145.598 77.4885 145.598 70.382 Q145.598 63.2524 143.769 59.7108 Q141.964 56.146 138.33 56.146 M138.33 52.4423 Q144.14 52.4423 147.195 57.0488 Q150.274 61.6321 150.274 70.382 Q150.274 79.1088 147.195 83.7153 Q144.14 88.2986 138.33 88.2986 Q132.519 88.2986 129.441 83.7153 Q126.385 79.1088 126.385 70.382 Q126.385 61.6321 129.441 57.0488 Q132.519 52.4423 138.33 52.4423 Z" fill="#000000" fill-rule="evenodd" fill-opacity="1" /><path clip-path="url(#clip602)" d="
M189.885 87.9763 L193.496 146.41 L197.106 101.142 L200.717 106.799 L204.328 179.842 L207.939 279.747 L211.55 260.378 L215.16 369.453 L218.771 370.928 L222.382 310.714 
  L225.993 380.726 L229.604 423.969 L233.214 422.639 L236.825 459.002 L240.436 457.413 L244.047 314.356 L247.658 328.54 L251.268 341.64 L254.879 323.371 L258.49 325.981 
  L262.101 454.842 L265.712 481.314 L269.322 462.054 L272.933 476.789 L276.544 462.809 L280.155 425.723 L283.766 429.658 L287.376 323.413 L290.987 347.86 L294.598 368.088 
  L298.209 388.095 L301.82 467.347 L305.431 530.28 L309.041 573.005 L312.652 585.043 L316.263 525.9 L319.874 579.784 L323.485 475.314 L327.095 550.185 L330.706 629.873 
  L334.317 593.889 L337.928 679.574 L341.539 645.935 L345.149 713.215 L348.76 710.707 L352.371 725.033 L355.982 744.424 L359.593 758.074 L363.203 770.49 L366.814 756.203 
  L370.425 751.394 L374.036 776.79 L377.647 799.261 L381.257 798.202 L384.868 776.364 L388.479 807.402 L392.09 819.846 L395.701 827.446 L399.311 814.805 L402.922 836.704 
  L406.533 842.616 L410.144 847.694 L413.755 848.995 L417.365 856.366 L420.976 861.593 L424.587 865.679 L428.198 871.993 L431.809 870.791 L435.419 882.431 L439.03 883.414 
  L442.641 891.639 L446.252 887.447 L449.863 898.557 L453.473 897.876 L457.084 907.667 L460.695 913.69 L464.306 916.39 L467.917 922.101 L471.527 926.341 L475.138 914.705 
  L478.749 908.754 L482.36 882.307 L485.971 890.521 L489.581 864.265 L493.192 830.482 L496.803 853.125 L500.414 880.427 L504.025 922.255 L507.635 915.987 L511.246 896.641 
  L514.857 875.453 L518.468 882.618 L522.079 900.02 L525.689 925.44 L529.3 964.851 L532.911 990.527 L536.522 989.788 L540.133 966.495 L543.744 951.257 L547.354 955.475 
  L550.965 941.816 L554.576 955.826 L558.187 974.19 L561.798 995.644 L565.408 1015.18 L569.019 1015.49 L572.63 1026.52 L576.241 1029.63 L579.852 1026.45 L583.462 1033.56 
  L587.073 1037.06 L590.684 1035.68 L594.295 1037 L597.906 1047.49 L601.516 1048.74 L605.127 1047.57 L608.738 1030.96 L612.349 1032.18 L615.96 1053.16 L619.57 1057.33 
  L623.181 1053.26 L626.792 1032.36 L630.403 1060.3 L634.014 1066.19 L637.624 1072.2 L641.235 1077.65 L644.846 1081.36 L648.457 1084.63 L652.068 1084.5 L655.678 1087.73 
  L659.289 1090.33 L662.9 1090.05 L666.511 1096.6 L670.122 1099.88 L673.732 1102.89 L677.343 1097.22 L680.954 1090.06 L684.565 1080.78 L688.176 1077.06 L691.786 1060.63 
  L695.397 1070.26 L699.008 1090.93 L702.619 1085.59 L706.23 1072.12 L709.84 1076.8 L713.451 1103.3 L717.062 1084.67 L720.673 1103.06 L724.284 1109.67 L727.894 1127.2 
  L731.505 1137.59 L735.116 1133.34 L738.727 1136.72 L742.338 1130.55 L745.948 1103.99 L749.559 1097.73 L753.17 1093.81 L756.781 1097.21 L760.392 1095.75 L764.003 1103.37 
  L767.613 1123.6 L771.224 1131.91 L774.835 1147.38 L778.446 1146 L782.057 1141.5 L785.667 1127.12 L789.278 1109.74 L792.889 1106.35 L796.5 1090.17 L800.111 1087.21 
  L803.721 1054.94 L807.332 1073.98 L810.943 1037.22 L814.554 1040.53 L818.165 1073.35 L821.775 1076.54 L825.386 1026.07 L828.997 1049.98 L832.608 1089.41 L836.219 1108.14 
  L839.829 1145.25 L843.44 1155.52 L847.051 1170.85 L850.662 1143.81 L854.273 1171.16 L857.883 1182.97 L861.494 1181.5 L865.105 1182.54 L868.716 1193.81 L872.327 1205.7 
  L875.937 1209.28 L879.548 1211.66 L883.159 1213.31 L886.77 1214.89 L890.381 1207.37 L893.991 1203.3 L897.602 1211.94 L901.213 1210.42 L904.824 1208.95 L908.435 1209.59 
  L912.045 1204.45 L915.656 1212.49 L919.267 1194.91 L922.878 1200.78 L926.489 1200.86 L930.099 1220.93 L933.71 1211.59 L937.321 1217.51 L940.932 1213.75 L944.543 1209.31 
  L948.153 1217.76 L951.764 1231.32 L955.375 1217.15 L958.986 1220.39 L962.597 1216.76 L966.207 1215.72 L969.818 1218.58 L973.429 1202.24 L977.04 1225.42 L980.651 1194.65 
  L984.262 1202.5 L987.872 1207.81 L991.483 1215.77 L995.094 1216.67 L998.705 1215.3 L1002.32 1212.05 L1005.93 1207.47 L1009.54 1223.53 L1013.15 1189.34 L1016.76 1188.17 
  L1020.37 1173.83 L1023.98 1162.99 L1027.59 1184.02 L1031.2 1213.07 L1034.81 1209.73 L1038.42 1222.73 L1042.03 1229.83 L1045.65 1217.37 L1049.26 1207.5 L1052.87 1196.78 
  L1056.48 1166.64 L1060.09 1169.02 L1063.7 1147.49 L1067.31 1154.93 L1070.92 1166.15 L1074.53 1133.76 L1078.14 1129.1 L1081.75 1084.31 L1085.36 1075.17 L1088.97 1084.74 
  L1092.59 1093.62 L1096.2 1097.37 L1099.81 1097.79 L1103.42 1092.43 L1107.03 1088.09 L1110.64 1097.21 L1114.25 1124.93 L1117.86 1125.16 L1121.47 1132.69 L1125.08 1126.86 
  L1128.69 1134.3 L1132.3 1161.76 L1135.92 1161.43 L1139.53 1138.24 L1143.14 1135.9 L1146.75 1120.6 L1150.36 1141.91 L1153.97 1099.87 L1157.58 1096.16 L1161.19 1069.96 
  L1164.8 1100.92 L1168.41 1141.53 L1172.02 1136.92 L1175.63 1175.95 L1179.24 1166.5 L1182.86 1204.94 L1186.47 1200.57 L1190.08 1211.65 L1193.69 1218.11 L1197.3 1216.18 
  L1200.91 1186.37 L1204.52 1154.22 L1208.13 1153.78 L1211.74 1162.11 L1215.35 1162.58 L1218.96 1130.09 L1222.57 1129.19 L1226.19 1113.79 L1229.8 1104.13 L1233.41 1088.07 
  L1237.02 1059.96 L1240.63 1058.11 L1244.24 1036.04 L1247.85 1020.19 L1251.46 998.561 L1255.07 998.633 L1258.68 1006.92 L1262.29 1025.87 L1265.9 1016.62 L1269.51 987.768 
  L1273.13 1022.16 L1276.74 1002.01 L1280.35 1004.07 L1283.96 970.765 L1287.57 930.877 L1291.18 932.965 L1294.79 958.872 L1298.4 959.46 L1302.01 964.649 L1305.62 942.054 
  L1309.23 931.92 L1312.84 979.894 L1316.46 968.474 L1320.07 960.946 L1323.68 973.003 L1327.29 979.117 L1330.9 969.106 L1334.51 961.757 L1338.12 967.525 L1341.73 959.955 
  L1345.34 949.026 L1348.95 964.08 L1352.56 994.511 L1356.17 1003.97 L1359.79 1035.89 L1363.4 1021.16 L1367.01 1015.75 L1370.62 989.332 L1374.23 1014.39 L1377.84 999.173 
  L1381.45 1021.53 L1385.06 1026.52 L1388.67 961.275 L1392.28 971.96 L1395.89 992.704 L1399.5 986.292 L1403.11 1004.22 L1406.73 997.386 L1410.34 940.858 L1413.95 950.829 
  L1417.56 913.782 L1421.17 924.249 L1424.78 948.346 L1428.39 998.543 L1432 1011.6 L1435.61 1024.72 L1439.22 1023.54 L1442.83 1061.34 L1446.44 1045.05 L1450.06 1025.42 
  L1453.67 1052.75 L1457.28 1043.3 L1460.89 1033.75 L1464.5 1068.32 L1468.11 1056.1 L1471.72 1053.39 L1475.33 1061.03 L1478.94 1035.64 L1482.55 996.224 L1486.16 1017.07 
  L1489.77 1025.01 L1493.38 1032.48 L1497 985.699 L1500.61 988.798 L1504.22 935.065 L1507.83 915.175 L1511.44 889.814 L1515.05 900.77 L1518.66 899.75 L1522.27 938.237 
  L1525.88 985.312 L1529.49 960.751 L1533.1 922.256 L1536.71 877.129 L1540.33 934.122 L1543.94 948.543 L1547.55 937.845 L1551.16 908.082 L1554.77 918.609 L1558.38 936.322 
  L1561.99 934.406 L1565.6 967.012 L1569.21 963.817 L1572.82 919.572 L1576.43 931.451 L1580.04 898.513 L1583.65 882.413 L1587.27 905.271 L1590.88 892.685 L1594.49 908.231 
  L1598.1 906.383 L1601.71 922.621 L1605.32 927.59 L1608.93 924.758 L1612.54 908.559 L1616.15 943.814 L1619.76 919.711 L1623.37 885.11 L1626.98 904.612 L1630.6 860.473 
  L1634.21 870.409 L1637.82 857.566 L1641.43 837.172 L1645.04 855.124 L1648.65 870.62 L1652.26 892.497 L1655.87 910.159 L1659.48 915.893 L1663.09 963.735 L1666.7 991.049 
  L1670.31 993.17 L1673.92 960.108 L1677.54 980.348 L1681.15 953.004 L1684.76 966.432 L1688.37 945.198 L1691.98 963.897 L1695.59 994.873 L1699.2 991.198 L1702.81 996.563 
  L1706.42 991.376 L1710.03 994.488 L1713.64 970.444 L1717.25 1006.39 L1720.87 976.103 L1724.48 979.674 L1728.09 955.908 L1731.7 966.387 L1735.31 945.612 L1738.92 952.832 
  L1742.53 931.949 L1746.14 951.007 L1749.75 919.409 L1753.36 936.703 L1756.97 967.164 L1760.58 967.423 L1764.19 968.781 L1767.81 951.459 L1771.42 938.043 L1775.03 931.055 
  L1778.64 923.163 L1782.25 949.731 L1785.86 966.749 L1789.47 992.465 L1793.08 1009.67 L1796.69 1019.68 L1800.3 1012.91 L1803.91 1024.69 L1807.52 1016.8 L1811.14 1044.56 
  L1814.75 999.521 L1818.36 1015.94 L1821.97 986.716 L1825.58 944.778 L1829.19 961.439 L1832.8 934.334 L1836.41 934.812 L1840.02 933.878 L1843.63 942.863 L1847.24 945.27 
  L1850.85 923.65 L1854.47 912.051 L1858.08 876.37 L1861.69 840.826 L1865.3 845.815 L1868.91 861.142 L1872.52 896.836 L1876.13 924.551 L1879.74 950.242 L1883.35 967.691 
  L1886.96 995.079 L1890.57 976.905 L1894.18 960.714 L1897.79 946.926 L1901.41 980.584 L1905.02 1009.18 L1908.63 1018.85 L1912.24 988.374 L1915.85 1000.88 L1919.46 978.955 
  L1923.07 984.681 L1926.68 982.675 L1930.29 978.438 L1933.9 956.024 L1937.51 997.309 L1941.12 994.373 L1944.74 990.699 L1948.35 987.847 L1951.96 1027.18 L1955.57 1010.76 
  L1959.18 1031.21 L1962.79 1035.96 L1966.4 1046.22 L1970.01 1062.12 L1973.62 1057.26 L1977.23 1083.46 L1980.84 1066.93 L1984.45 1068.88 L1988.06 1066.46 L1991.68 1102.48 
  L1995.29 1078.52 L1998.9 1098.92 L2002.51 1081.67 L2006.12 1089.02 L2009.73 1136.03 L2013.34 1166.53 L2016.95 1181.46 L2020.56 1177.56 L2024.17 1162.65 L2027.78 1151.75 
  L2031.39 1160.91 L2035.01 1174.84 L2038.62 1163.75 L2042.23 1192.01 L2045.84 1200.32 L2049.45 1209 L2053.06 1207.55 L2056.67 1234.04 L2060.28 1247.53 L2063.89 1221.44 
  L2067.5 1213.69 L2071.11 1212.58 L2074.72 1229.68 L2078.33 1206.93 L2081.95 1196.66 L2085.56 1205.72 L2089.17 1210.97 L2092.78 1237.9 L2096.39 1250.67 L2100 1246.11 
  L2103.61 1241.41 L2107.22 1221.81 L2110.83 1208.8 L2114.44 1215.98 L2118.05 1248.36 L2121.66 1258.35 L2125.28 1256.79 L2128.89 1249.68 L2132.5 1254.55 L2136.11 1279.31 
  L2139.72 1258.6 L2143.33 1271.14 L2146.94 1258.91 L2150.55 1248.87 L2154.16 1236.14 L2157.77 1231.01 L2161.38 1230.84 L2164.99 1229.15 L2168.6 1219.19 L2172.22 1237.18 
  L2175.83 1221.64 L2179.44 1207.63 L2183.05 1205.02 L2186.66 1213.22 L2190.27 1207.79 L2193.88 1189.87 L2197.49 1189.85 L2201.1 1183.22 L2204.71 1184.38 L2208.32 1165.28 
  L2211.93 1166.6 L2215.55 1170.64 L2219.16 1176.96 L2222.77 1186.93 L2226.38 1193.3 L2229.99 1194.17 L2233.6 1198.27 L2237.21 1205.29 L2240.82 1206.7 L2244.43 1215.03 
  L2248.04 1234.49 L2251.65 1263.64 L2255.26 1248.86 L2258.88 1242.6 L2262.49 1243.26 L2266.1 1273.23 L2269.71 1266.98 L2273.32 1255.03 L2276.93 1251.66 L2280.54 1267.12 
  L2284.15 1282.3 L2287.76 1288.92 L2291.37 1290.11 L2294.98 1279.42 L2298.59 1271.69 L2302.2 1254.36 L2305.82 1280.22 L2309.43 1281.07 L2313.04 1284.01 L2316.65 1267.64 
  L2320.26 1284 L2323.87 1297.38 L2327.48 1288.77 L2331.09 1287.92 L2334.7 1286.22 L2338.31 1303.44 L2341.92 1315.5 L2345.53 1325.05 L2349.15 1333.01 L2352.76 1342.31 
  L2352.76 1445.72 L2349.15 1445.72 L2345.53 1445.72 L2341.92 1445.72 L2338.31 1445.72 L2334.7 1445.72 L2331.09 1445.72 L2327.48 1445.72 L2323.87 1445.72 L2320.26 1445.72 
  L2316.65 1445.72 L2313.04 1445.72 L2309.43 1445.72 L2305.82 1445.72 L2302.2 1445.72 L2298.59 1445.72 L2294.98 1445.72 L2291.37 1445.72 L2287.76 1445.72 L2284.15 1445.72 
  L2280.54 1445.72 L2276.93 1445.72 L2273.32 1445.72 L2269.71 1445.72 L2266.1 1445.72 L2262.49 1445.72 L2258.88 1445.72 L2255.26 1445.72 L2251.65 1445.72 L2248.04 1445.72 
  L2244.43 1445.72 L2240.82 1445.72 L2237.21 1445.72 L2233.6 1445.72 L2229.99 1445.72 L2226.38 1445.72 L2222.77 1445.72 L2219.16 1445.72 L2215.55 1445.72 L2211.93 1445.72 
  L2208.32 1445.72 L2204.71 1445.72 L2201.1 1445.72 L2197.49 1445.72 L2193.88 1445.72 L2190.27 1445.72 L2186.66 1445.72 L2183.05 1445.72 L2179.44 1445.72 L2175.83 1445.72 
  L2172.22 1445.72 L2168.6 1445.72 L2164.99 1445.72 L2161.38 1445.72 L2157.77 1445.72 L2154.16 1445.72 L2150.55 1445.72 L2146.94 1445.72 L2143.33 1445.72 L2139.72 1445.72 
  L2136.11 1445.72 L2132.5 1445.72 L2128.89 1445.72 L2125.28 1445.72 L2121.66 1445.72 L2118.05 1445.72 L2114.44 1445.72 L2110.83 1445.72 L2107.22 1445.72 L2103.61 1445.72 
  L2100 1445.72 L2096.39 1445.72 L2092.78 1445.72 L2089.17 1445.72 L2085.56 1445.72 L2081.95 1445.72 L2078.33 1445.72 L2074.72 1445.72 L2071.11 1445.72 L2067.5 1445.72 
  L2063.89 1445.72 L2060.28 1445.72 L2056.67 1445.72 L2053.06 1445.72 L2049.45 1445.72 L2045.84 1445.72 L2042.23 1445.72 L2038.62 1445.72 L2035.01 1445.72 L2031.39 1445.72 
  L2027.78 1445.72 L2024.17 1445.72 L2020.56 1445.72 L2016.95 1445.72 L2013.34 1445.72 L2009.73 1445.72 L2006.12 1445.72 L2002.51 1445.72 L1998.9 1445.72 L1995.29 1445.72 
  L1991.68 1445.72 L1988.06 1445.72 L1984.45 1445.72 L1980.84 1445.72 L1977.23 1445.72 L1973.62 1445.72 L1970.01 1445.72 L1966.4 1445.72 L1962.79 1445.72 L1959.18 1445.72 
  L1955.57 1445.72 L1951.96 1445.72 L1948.35 1445.72 L1944.74 1445.72 L1941.12 1445.72 L1937.51 1445.72 L1933.9 1445.72 L1930.29 1445.72 L1926.68 1445.72 L1923.07 1445.72 
  L1919.46 1445.72 L1915.85 1445.72 L1912.24 1445.72 L1908.63 1445.72 L1905.02 1445.72 L1901.41 1445.72 L1897.79 1445.72 L1894.18 1445.72 L1890.57 1445.72 L1886.96 1445.72 
  L1883.35 1445.72 L1879.74 1445.72 L1876.13 1445.72 L1872.52 1445.72 L1868.91 1445.72 L1865.3 1445.72 L1861.69 1445.72 L1858.08 1445.72 L1854.47 1445.72 L1850.85 1445.72 
  L1847.24 1445.72 L1843.63 1445.72 L1840.02 1445.72 L1836.41 1445.72 L1832.8 1445.72 L1829.19 1445.72 L1825.58 1445.72 L1821.97 1445.72 L1818.36 1445.72 L1814.75 1445.72 
  L1811.14 1445.72 L1807.52 1445.72 L1803.91 1445.72 L1800.3 1445.72 L1796.69 1445.72 L1793.08 1445.72 L1789.47 1445.72 L1785.86 1445.72 L1782.25 1445.72 L1778.64 1445.72 
  L1775.03 1445.72 L1771.42 1445.72 L1767.81 1445.72 L1764.19 1445.72 L1760.58 1445.72 L1756.97 1445.72 L1753.36 1445.72 L1749.75 1445.72 L1746.14 1445.72 L1742.53 1445.72 
  L1738.92 1445.72 L1735.31 1445.72 L1731.7 1445.72 L1728.09 1445.72 L1724.48 1445.72 L1720.87 1445.72 L1717.25 1445.72 L1713.64 1445.72 L1710.03 1445.72 L1706.42 1445.72 
  L1702.81 1445.72 L1699.2 1445.72 L1695.59 1445.72 L1691.98 1445.72 L1688.37 1445.72 L1684.76 1445.72 L1681.15 1445.72 L1677.54 1445.72 L1673.92 1445.72 L1670.31 1445.72 
  L1666.7 1445.72 L1663.09 1445.72 L1659.48 1445.72 L1655.87 1445.72 L1652.26 1445.72 L1648.65 1445.72 L1645.04 1445.72 L1641.43 1445.72 L1637.82 1445.72 L1634.21 1445.72 
  L1630.6 1445.72 L1626.98 1445.72 L1623.37 1445.72 L1619.76 1445.72 L1616.15 1445.72 L1612.54 1445.72 L1608.93 1445.72 L1605.32 1445.72 L1601.71 1445.72 L1598.1 1445.72 
  L1594.49 1445.72 L1590.88 1445.72 L1587.27 1445.72 L1583.65 1445.72 L1580.04 1445.72 L1576.43 1445.72 L1572.82 1445.72 L1569.21 1445.72 L1565.6 1445.72 L1561.99 1445.72 
  L1558.38 1445.72 L1554.77 1445.72 L1551.16 1445.72 L1547.55 1445.72 L1543.94 1445.72 L1540.33 1445.72 L1536.71 1445.72 L1533.1 1445.72 L1529.49 1445.72 L1525.88 1445.72 
  L1522.27 1445.72 L1518.66 1445.72 L1515.05 1445.72 L1511.44 1445.72 L1507.83 1445.72 L1504.22 1445.72 L1500.61 1445.72 L1497 1445.72 L1493.38 1445.72 L1489.77 1445.72 
  L1486.16 1445.72 L1482.55 1445.72 L1478.94 1445.72 L1475.33 1445.72 L1471.72 1445.72 L1468.11 1445.72 L1464.5 1445.72 L1460.89 1445.72 L1457.28 1445.72 L1453.67 1445.72 
  L1450.06 1445.72 L1446.44 1445.72 L1442.83 1445.72 L1439.22 1445.72 L1435.61 1445.72 L1432 1445.72 L1428.39 1445.72 L1424.78 1445.72 L1421.17 1445.72 L1417.56 1445.72 
  L1413.95 1445.72 L1410.34 1445.72 L1406.73 1445.72 L1403.11 1445.72 L1399.5 1445.72 L1395.89 1445.72 L1392.28 1445.72 L1388.67 1445.72 L1385.06 1445.72 L1381.45 1445.72 
  L1377.84 1445.72 L1374.23 1445.72 L1370.62 1445.72 L1367.01 1445.72 L1363.4 1445.72 L1359.79 1445.72 L1356.17 1445.72 L1352.56 1445.72 L1348.95 1445.72 L1345.34 1445.72 
  L1341.73 1445.72 L1338.12 1445.72 L1334.51 1445.72 L1330.9 1445.72 L1327.29 1445.72 L1323.68 1445.72 L1320.07 1445.72 L1316.46 1445.72 L1312.84 1445.72 L1309.23 1445.72 
  L1305.62 1445.72 L1302.01 1445.72 L1298.4 1445.72 L1294.79 1445.72 L1291.18 1445.72 L1287.57 1445.72 L1283.96 1445.72 L1280.35 1445.72 L1276.74 1445.72 L1273.13 1445.72 
  L1269.51 1445.72 L1265.9 1445.72 L1262.29 1445.72 L1258.68 1445.72 L1255.07 1445.72 L1251.46 1445.72 L1247.85 1445.72 L1244.24 1445.72 L1240.63 1445.72 L1237.02 1445.72 
  L1233.41 1445.72 L1229.8 1445.72 L1226.19 1445.72 L1222.57 1445.72 L1218.96 1445.72 L1215.35 1445.72 L1211.74 1445.72 L1208.13 1445.72 L1204.52 1445.72 L1200.91 1445.72 
  L1197.3 1445.72 L1193.69 1445.72 L1190.08 1445.72 L1186.47 1445.72 L1182.86 1445.72 L1179.24 1445.72 L1175.63 1445.72 L1172.02 1445.72 L1168.41 1445.72 L1164.8 1445.72 
  L1161.19 1445.72 L1157.58 1445.72 L1153.97 1445.72 L1150.36 1445.72 L1146.75 1445.72 L1143.14 1445.72 L1139.53 1445.72 L1135.92 1445.72 L1132.3 1445.72 L1128.69 1445.72 
  L1125.08 1445.72 L1121.47 1445.72 L1117.86 1445.72 L1114.25 1445.72 L1110.64 1445.72 L1107.03 1445.72 L1103.42 1445.72 L1099.81 1445.72 L1096.2 1445.72 L1092.59 1445.72 
  L1088.97 1445.72 L1085.36 1445.72 L1081.75 1445.72 L1078.14 1445.72 L1074.53 1445.72 L1070.92 1445.72 L1067.31 1445.72 L1063.7 1445.72 L1060.09 1445.72 L1056.48 1445.72 
  L1052.87 1445.72 L1049.26 1445.72 L1045.65 1445.72 L1042.03 1445.72 L1038.42 1445.72 L1034.81 1445.72 L1031.2 1445.72 L1027.59 1445.72 L1023.98 1445.72 L1020.37 1445.72 
  L1016.76 1445.72 L1013.15 1445.72 L1009.54 1445.72 L1005.93 1445.72 L1002.32 1445.72 L998.705 1445.72 L995.094 1445.72 L991.483 1445.72 L987.872 1445.72 L984.262 1445.72 
  L980.651 1445.72 L977.04 1445.72 L973.429 1445.72 L969.818 1445.72 L966.207 1445.72 L962.597 1445.72 L958.986 1445.72 L955.375 1445.72 L951.764 1445.72 L948.153 1445.72 
  L944.543 1445.72 L940.932 1445.72 L937.321 1445.72 L933.71 1445.72 L930.099 1445.72 L926.489 1445.72 L922.878 1445.72 L919.267 1445.72 L915.656 1445.72 L912.045 1445.72 
  L908.435 1445.72 L904.824 1445.72 L901.213 1445.72 L897.602 1445.72 L893.991 1445.72 L890.381 1445.72 L886.77 1445.72 L883.159 1445.72 L879.548 1445.72 L875.937 1445.72 
  L872.327 1445.72 L868.716 1445.72 L865.105 1445.72 L861.494 1445.72 L857.883 1445.72 L854.273 1445.72 L850.662 1445.72 L847.051 1445.72 L843.44 1445.72 L839.829 1445.72 
  L836.219 1445.72 L832.608 1445.72 L828.997 1445.72 L825.386 1445.72 L821.775 1445.72 L818.165 1445.72 L814.554 1445.72 L810.943 1445.72 L807.332 1445.72 L803.721 1445.72 
  L800.111 1445.72 L796.5 1445.72 L792.889 1445.72 L789.278 1445.72 L785.667 1445.72 L782.057 1445.72 L778.446 1445.72 L774.835 1445.72 L771.224 1445.72 L767.613 1445.72 
  L764.003 1445.72 L760.392 1445.72 L756.781 1445.72 L753.17 1445.72 L749.559 1445.72 L745.948 1445.72 L742.338 1445.72 L738.727 1445.72 L735.116 1445.72 L731.505 1445.72 
  L727.894 1445.72 L724.284 1445.72 L720.673 1445.72 L717.062 1445.72 L713.451 1445.72 L709.84 1445.72 L706.23 1445.72 L702.619 1445.72 L699.008 1445.72 L695.397 1445.72 
  L691.786 1445.72 L688.176 1445.72 L684.565 1445.72 L680.954 1445.72 L677.343 1445.72 L673.732 1445.72 L670.122 1445.72 L666.511 1445.72 L662.9 1445.72 L659.289 1445.72 
  L655.678 1445.72 L652.068 1445.72 L648.457 1445.72 L644.846 1445.72 L641.235 1445.72 L637.624 1445.72 L634.014 1445.72 L630.403 1445.72 L626.792 1445.72 L623.181 1445.72 
  L619.57 1445.72 L615.96 1445.72 L612.349 1445.72 L608.738 1445.72 L605.127 1445.72 L601.516 1445.72 L597.906 1445.72 L594.295 1445.72 L590.684 1445.72 L587.073 1445.72 
  L583.462 1445.72 L579.852 1445.72 L576.241 1445.72 L572.63 1445.72 L569.019 1445.72 L565.408 1445.72 L561.798 1445.72 L558.187 1445.72 L554.576 1445.72 L550.965 1445.72 
  L547.354 1445.72 L543.744 1445.72 L540.133 1445.72 L536.522 1445.72 L532.911 1445.72 L529.3 1445.72 L525.689 1445.72 L522.079 1445.72 L518.468 1445.72 L514.857 1445.72 
  L511.246 1445.72 L507.635 1445.72 L504.025 1445.72 L500.414 1445.72 L496.803 1445.72 L493.192 1445.72 L489.581 1445.72 L485.971 1445.72 L482.36 1445.72 L478.749 1445.72 
  L475.138 1445.72 L471.527 1445.72 L467.917 1445.72 L464.306 1445.72 L460.695 1445.72 L457.084 1445.72 L453.473 1445.72 L449.863 1445.72 L446.252 1445.72 L442.641 1445.72 
  L439.03 1445.72 L435.419 1445.72 L431.809 1445.72 L428.198 1445.72 L424.587 1445.72 L420.976 1445.72 L417.365 1445.72 L413.755 1445.72 L410.144 1445.72 L406.533 1445.72 
  L402.922 1445.72 L399.311 1445.72 L395.701 1445.72 L392.09 1445.72 L388.479 1445.72 L384.868 1445.72 L381.257 1445.72 L377.647 1445.72 L374.036 1445.72 L370.425 1445.72 
  L366.814 1445.72 L363.203 1445.72 L359.593 1445.72 L355.982 1445.72 L352.371 1445.72 L348.76 1445.72 L345.149 1445.72 L341.539 1445.72 L337.928 1445.72 L334.317 1445.72 
  L330.706 1445.72 L327.095 1445.72 L323.485 1445.72 L319.874 1445.72 L316.263 1445.72 L312.652 1445.72 L309.041 1445.72 L305.431 1445.72 L301.82 1445.72 L298.209 1445.72 
  L294.598 1445.72 L290.987 1445.72 L287.376 1445.72 L283.766 1445.72 L280.155 1445.72 L276.544 1445.72 L272.933 1445.72 L269.322 1445.72 L265.712 1445.72 L262.101 1445.72 
  L258.49 1445.72 L254.879 1445.72 L251.268 1445.72 L247.658 1445.72 L244.047 1445.72 L240.436 1445.72 L236.825 1445.72 L233.214 1445.72 L229.604 1445.72 L225.993 1445.72 
  L222.382 1445.72 L218.771 1445.72 L215.16 1445.72 L211.55 1445.72 L207.939 1445.72 L204.328 1445.72 L200.717 1445.72 L197.106 1445.72 L193.496 1445.72 L189.885 1445.72 
   Z
  " fill="#0000ff" fill-rule="evenodd" fill-opacity="0.2"/>
<polyline clip-path="url(#clip602)" style="stroke:#0000ff; stroke-linecap:butt; stroke-linejoin:round; stroke-width:4; stroke-opacity:1; fill:none" points="
  189.885,87.9763 193.496,146.41 197.106,101.142 200.717,106.799 204.328,179.842 207.939,279.747 211.55,260.378 215.16,369.453 218.771,370.928 222.382,310.714 
  225.993,380.726 229.604,423.969 233.214,422.639 236.825,459.002 240.436,457.413 244.047,314.356 247.658,328.54 251.268,341.64 254.879,323.371 258.49,325.981 
  262.101,454.842 265.712,481.314 269.322,462.054 272.933,476.789 276.544,462.809 280.155,425.723 283.766,429.658 287.376,323.413 290.987,347.86 294.598,368.088 
  298.209,388.095 301.82,467.347 305.431,530.28 309.041,573.005 312.652,585.043 316.263,525.9 319.874,579.784 323.485,475.314 327.095,550.185 330.706,629.873 
  334.317,593.889 337.928,679.574 341.539,645.935 345.149,713.215 348.76,710.707 352.371,725.033 355.982,744.424 359.593,758.074 363.203,770.49 366.814,756.203 
  370.425,751.394 374.036,776.79 377.647,799.261 381.257,798.202 384.868,776.364 388.479,807.402 392.09,819.846 395.701,827.446 399.311,814.805 402.922,836.704 
  406.533,842.616 410.144,847.694 413.755,848.995 417.365,856.366 420.976,861.593 424.587,865.679 428.198,871.993 431.809,870.791 435.419,882.431 439.03,883.414 
  442.641,891.639 446.252,887.447 449.863,898.557 453.473,897.876 457.084,907.667 460.695,913.69 464.306,916.39 467.917,922.101 471.527,926.341 475.138,914.705 
  478.749,908.754 482.36,882.307 485.971,890.521 489.581,864.265 493.192,830.482 496.803,853.125 500.414,880.427 504.025,922.255 507.635,915.987 511.246,896.641 
  514.857,875.453 518.468,882.618 522.079,900.02 525.689,925.44 529.3,964.851 532.911,990.527 536.522,989.788 540.133,966.495 543.744,951.257 547.354,955.475 
  550.965,941.816 554.576,955.826 558.187,974.19 561.798,995.644 565.408,1015.18 569.019,1015.49 572.63,1026.52 576.241,1029.63 579.852,1026.45 583.462,1033.56 
  587.073,1037.06 590.684,1035.68 594.295,1037 597.906,1047.49 601.516,1048.74 605.127,1047.57 608.738,1030.96 612.349,1032.18 615.96,1053.16 619.57,1057.33 
  623.181,1053.26 626.792,1032.36 630.403,1060.3 634.014,1066.19 637.624,1072.2 641.235,1077.65 644.846,1081.36 648.457,1084.63 652.068,1084.5 655.678,1087.73 
  659.289,1090.33 662.9,1090.05 666.511,1096.6 670.122,1099.88 673.732,1102.89 677.343,1097.22 680.954,1090.06 684.565,1080.78 688.176,1077.06 691.786,1060.63 
  695.397,1070.26 699.008,1090.93 702.619,1085.59 706.23,1072.12 709.84,1076.8 713.451,1103.3 717.062,1084.67 720.673,1103.06 724.284,1109.67 727.894,1127.2 
  731.505,1137.59 735.116,1133.34 738.727,1136.72 742.338,1130.55 745.948,1103.99 749.559,1097.73 753.17,1093.81 756.781,1097.21 760.392,1095.75 764.003,1103.37 
  767.613,1123.6 771.224,1131.91 774.835,1147.38 778.446,1146 782.057,1141.5 785.667,1127.12 789.278,1109.74 792.889,1106.35 796.5,1090.17 800.111,1087.21 
  803.721,1054.94 807.332,1073.98 810.943,1037.22 814.554,1040.53 818.165,1073.35 821.775,1076.54 825.386,1026.07 828.997,1049.98 832.608,1089.41 836.219,1108.14 
  839.829,1145.25 843.44,1155.52 847.051,1170.85 850.662,1143.81 854.273,1171.16 857.883,1182.97 861.494,1181.5 865.105,1182.54 868.716,1193.81 872.327,1205.7 
  875.937,1209.28 879.548,1211.66 883.159,1213.31 886.77,1214.89 890.381,1207.37 893.991,1203.3 897.602,1211.94 901.213,1210.42 904.824,1208.95 908.435,1209.59 
  912.045,1204.45 915.656,1212.49 919.267,1194.91 922.878,1200.78 926.489,1200.86 930.099,1220.93 933.71,1211.59 937.321,1217.51 940.932,1213.75 944.543,1209.31 
  948.153,1217.76 951.764,1231.32 955.375,1217.15 958.986,1220.39 962.597,1216.76 966.207,1215.72 969.818,1218.58 973.429,1202.24 977.04,1225.42 980.651,1194.65 
  984.262,1202.5 987.872,1207.81 991.483,1215.77 995.094,1216.67 998.705,1215.3 1002.32,1212.05 1005.93,1207.47 1009.54,1223.53 1013.15,1189.34 1016.76,1188.17 
  1020.37,1173.83 1023.98,1162.99 1027.59,1184.02 1031.2,1213.07 1034.81,1209.73 1038.42,1222.73 1042.03,1229.83 1045.65,1217.37 1049.26,1207.5 1052.87,1196.78 
  1056.48,1166.64 1060.09,1169.02 1063.7,1147.49 1067.31,1154.93 1070.92,1166.15 1074.53,1133.76 1078.14,1129.1 1081.75,1084.31 1085.36,1075.17 1088.97,1084.74 
  1092.59,1093.62 1096.2,1097.37 1099.81,1097.79 1103.42,1092.43 1107.03,1088.09 1110.64,1097.21 1114.25,1124.93 1117.86,1125.16 1121.47,1132.69 1125.08,1126.86 
  1128.69,1134.3 1132.3,1161.76 1135.92,1161.43 1139.53,1138.24 1143.14,1135.9 1146.75,1120.6 1150.36,1141.91 1153.97,1099.87 1157.58,1096.16 1161.19,1069.96 
  1164.8,1100.92 1168.41,1141.53 1172.02,1136.92 1175.63,1175.95 1179.24,1166.5 1182.86,1204.94 1186.47,1200.57 1190.08,1211.65 1193.69,1218.11 1197.3,1216.18 
  1200.91,1186.37 1204.52,1154.22 1208.13,1153.78 1211.74,1162.11 1215.35,1162.58 1218.96,1130.09 1222.57,1129.19 1226.19,1113.79 1229.8,1104.13 1233.41,1088.07 
  1237.02,1059.96 1240.63,1058.11 1244.24,1036.04 1247.85,1020.19 1251.46,998.561 1255.07,998.633 1258.68,1006.92 1262.29,1025.87 1265.9,1016.62 1269.51,987.768 
  1273.13,1022.16 1276.74,1002.01 1280.35,1004.07 1283.96,970.765 1287.57,930.877 1291.18,932.965 1294.79,958.872 1298.4,959.46 1302.01,964.649 1305.62,942.054 
  1309.23,931.92 1312.84,979.894 1316.46,968.474 1320.07,960.946 1323.68,973.003 1327.29,979.117 1330.9,969.106 1334.51,961.757 1338.12,967.525 1341.73,959.955 
  1345.34,949.026 1348.95,964.08 1352.56,994.511 1356.17,1003.97 1359.79,1035.89 1363.4,1021.16 1367.01,1015.75 1370.62,989.332 1374.23,1014.39 1377.84,999.173 
  1381.45,1021.53 1385.06,1026.52 1388.67,961.275 1392.28,971.96 1395.89,992.704 1399.5,986.292 1403.11,1004.22 1406.73,997.386 1410.34,940.858 1413.95,950.829 
  1417.56,913.782 1421.17,924.249 1424.78,948.346 1428.39,998.543 1432,1011.6 1435.61,1024.72 1439.22,1023.54 1442.83,1061.34 1446.44,1045.05 1450.06,1025.42 
  1453.67,1052.75 1457.28,1043.3 1460.89,1033.75 1464.5,1068.32 1468.11,1056.1 1471.72,1053.39 1475.33,1061.03 1478.94,1035.64 1482.55,996.224 1486.16,1017.07 
  1489.77,1025.01 1493.38,1032.48 1497,985.699 1500.61,988.798 1504.22,935.065 1507.83,915.175 1511.44,889.814 1515.05,900.77 1518.66,899.75 1522.27,938.237 
  1525.88,985.312 1529.49,960.751 1533.1,922.256 1536.71,877.129 1540.33,934.122 1543.94,948.543 1547.55,937.845 1551.16,908.082 1554.77,918.609 1558.38,936.322 
  1561.99,934.406 1565.6,967.012 1569.21,963.817 1572.82,919.572 1576.43,931.451 1580.04,898.513 1583.65,882.413 1587.27,905.271 1590.88,892.685 1594.49,908.231 
  1598.1,906.383 1601.71,922.621 1605.32,927.59 1608.93,924.758 1612.54,908.559 1616.15,943.814 1619.76,919.711 1623.37,885.11 1626.98,904.612 1630.6,860.473 
  1634.21,870.409 1637.82,857.566 1641.43,837.172 1645.04,855.124 1648.65,870.62 1652.26,892.497 1655.87,910.159 1659.48,915.893 1663.09,963.735 1666.7,991.049 
  1670.31,993.17 1673.92,960.108 1677.54,980.348 1681.15,953.004 1684.76,966.432 1688.37,945.198 1691.98,963.897 1695.59,994.873 1699.2,991.198 1702.81,996.563 
  1706.42,991.376 1710.03,994.488 1713.64,970.444 1717.25,1006.39 1720.87,976.103 1724.48,979.674 1728.09,955.908 1731.7,966.387 1735.31,945.612 1738.92,952.832 
  1742.53,931.949 1746.14,951.007 1749.75,919.409 1753.36,936.703 1756.97,967.164 1760.58,967.423 1764.19,968.781 1767.81,951.459 1771.42,938.043 1775.03,931.055 
  1778.64,923.163 1782.25,949.731 1785.86,966.749 1789.47,992.465 1793.08,1009.67 1796.69,1019.68 1800.3,1012.91 1803.91,1024.69 1807.52,1016.8 1811.14,1044.56 
  1814.75,999.521 1818.36,1015.94 1821.97,986.716 1825.58,944.778 1829.19,961.439 1832.8,934.334 1836.41,934.812 1840.02,933.878 1843.63,942.863 1847.24,945.27 
  1850.85,923.65 1854.47,912.051 1858.08,876.37 1861.69,840.826 1865.3,845.815 1868.91,861.142 1872.52,896.836 1876.13,924.551 1879.74,950.242 1883.35,967.691 
  1886.96,995.079 1890.57,976.905 1894.18,960.714 1897.79,946.926 1901.41,980.584 1905.02,1009.18 1908.63,1018.85 1912.24,988.374 1915.85,1000.88 1919.46,978.955 
  1923.07,984.681 1926.68,982.675 1930.29,978.438 1933.9,956.024 1937.51,997.309 1941.12,994.373 1944.74,990.699 1948.35,987.847 1951.96,1027.18 1955.57,1010.76 
  1959.18,1031.21 1962.79,1035.96 1966.4,1046.22 1970.01,1062.12 1973.62,1057.26 1977.23,1083.46 1980.84,1066.93 1984.45,1068.88 1988.06,1066.46 1991.68,1102.48 
  1995.29,1078.52 1998.9,1098.92 2002.51,1081.67 2006.12,1089.02 2009.73,1136.03 2013.34,1166.53 2016.95,1181.46 2020.56,1177.56 2024.17,1162.65 2027.78,1151.75 
  2031.39,1160.91 2035.01,1174.84 2038.62,1163.75 2042.23,1192.01 2045.84,1200.32 2049.45,1209 2053.06,1207.55 2056.67,1234.04 2060.28,1247.53 2063.89,1221.44 
  2067.5,1213.69 2071.11,1212.58 2074.72,1229.68 2078.33,1206.93 2081.95,1196.66 2085.56,1205.72 2089.17,1210.97 2092.78,1237.9 2096.39,1250.67 2100,1246.11 
  2103.61,1241.41 2107.22,1221.81 2110.83,1208.8 2114.44,1215.98 2118.05,1248.36 2121.66,1258.35 2125.28,1256.79 2128.89,1249.68 2132.5,1254.55 2136.11,1279.31 
  2139.72,1258.6 2143.33,1271.14 2146.94,1258.91 2150.55,1248.87 2154.16,1236.14 2157.77,1231.01 2161.38,1230.84 2164.99,1229.15 2168.6,1219.19 2172.22,1237.18 
  2175.83,1221.64 2179.44,1207.63 2183.05,1205.02 2186.66,1213.22 2190.27,1207.79 2193.88,1189.87 2197.49,1189.85 2201.1,1183.22 2204.71,1184.38 2208.32,1165.28 
  2211.93,1166.6 2215.55,1170.64 2219.16,1176.96 2222.77,1186.93 2226.38,1193.3 2229.99,1194.17 2233.6,1198.27 2237.21,1205.29 2240.82,1206.7 2244.43,1215.03 
  2248.04,1234.49 2251.65,1263.64 2255.26,1248.86 2258.88,1242.6 2262.49,1243.26 2266.1,1273.23 2269.71,1266.98 2273.32,1255.03 2276.93,1251.66 2280.54,1267.12 
  2284.15,1282.3 2287.76,1288.92 2291.37,1290.11 2294.98,1279.42 2298.59,1271.69 2302.2,1254.36 2305.82,1280.22 2309.43,1281.07 2313.04,1284.01 2316.65,1267.64 
  2320.26,1284 2323.87,1297.38 2327.48,1288.77 2331.09,1287.92 2334.7,1286.22 2338.31,1303.44 2341.92,1315.5 2345.53,1325.05 2349.15,1333.01 2352.76,1342.31 
  
  "/>
</svg>
