<?xml version="1.0" encoding="utf-8"?>
<svg xmlns="http://www.w3.org/2000/svg" xmlns:xlink="http://www.w3.org/1999/xlink" width="800" height="600" viewBox="0 0 3200 2400">
<defs>
  <clipPath id="clip000">
    <rect x="0" y="0" width="3200" height="2400"/>
  </clipPath>
</defs>
<path clip-path="url(#clip000)" d="
M0 2400 L3200 2400 L3200 0 L0 0  Z
  " fill="#ffffff" fill-rule="evenodd" fill-opacity="1"/>
<defs>
  <clipPath id="clip001">
    <rect x="640" y="0" width="2241" height="2241"/>
  </clipPath>
</defs>
<path clip-path="url(#clip000)" d="
M224.436 1074.13 L3152.76 1074.13 L3152.76 131.032 L224.436 131.032  Z
  " fill="#d3d3d3" fill-rule="evenodd" fill-opacity="1"/>
<defs>
  <clipPath id="clip002">
    <rect x="224" y="131" width="2929" height="944"/>
  </clipPath>
</defs>
<polyline clip-path="url(#clip002)" style="stroke:#000000; stroke-linecap:round; stroke-linejoin:round; stroke-width:2; stroke-opacity:0.1; fill:none" points="
  250.934,1074.13 250.934,131.032 
  "/>
<polyline clip-path="url(#clip002)" style="stroke:#000000; stroke-linecap:round; stroke-linejoin:round; stroke-width:2; stroke-opacity:0.1; fill:none" points="
  814.723,1074.13 814.723,131.032 
  "/>
<polyline clip-path="url(#clip002)" style="stroke:#000000; stroke-linecap:round; stroke-linejoin:round; stroke-width:2; stroke-opacity:0.1; fill:none" points="
  1378.51,1074.13 1378.51,131.032 
  "/>
<polyline clip-path="url(#clip002)" style="stroke:#000000; stroke-linecap:round; stroke-linejoin:round; stroke-width:2; stroke-opacity:0.1; fill:none" points="
  1942.3,1074.13 1942.3,131.032 
  "/>
<polyline clip-path="url(#clip002)" style="stroke:#000000; stroke-linecap:round; stroke-linejoin:round; stroke-width:2; stroke-opacity:0.1; fill:none" points="
  2506.09,1074.13 2506.09,131.032 
  "/>
<polyline clip-path="url(#clip002)" style="stroke:#000000; stroke-linecap:round; stroke-linejoin:round; stroke-width:2; stroke-opacity:0.1; fill:none" points="
  3069.88,1074.13 3069.88,131.032 
  "/>
<polyline clip-path="url(#clip000)" style="stroke:#000000; stroke-linecap:round; stroke-linejoin:round; stroke-width:4; stroke-opacity:1; fill:none" points="
  224.436,1074.13 3152.76,1074.13 
  "/>
<polyline clip-path="url(#clip000)" style="stroke:#000000; stroke-linecap:round; stroke-linejoin:round; stroke-width:4; stroke-opacity:1; fill:none" points="
  250.934,1074.13 250.934,1055.23 
  "/>
<polyline clip-path="url(#clip000)" style="stroke:#000000; stroke-linecap:round; stroke-linejoin:round; stroke-width:4; stroke-opacity:1; fill:none" points="
  814.723,1074.13 814.723,1055.23 
  "/>
<polyline clip-path="url(#clip000)" style="stroke:#000000; stroke-linecap:round; stroke-linejoin:round; stroke-width:4; stroke-opacity:1; fill:none" points="
  1378.51,1074.13 1378.51,1055.23 
  "/>
<polyline clip-path="url(#clip000)" style="stroke:#000000; stroke-linecap:round; stroke-linejoin:round; stroke-width:4; stroke-opacity:1; fill:none" points="
  1942.3,1074.13 1942.3,1055.23 
  "/>
<polyline clip-path="url(#clip000)" style="stroke:#000000; stroke-linecap:round; stroke-linejoin:round; stroke-width:4; stroke-opacity:1; fill:none" points="
  2506.09,1074.13 2506.09,1055.23 
  "/>
<polyline clip-path="url(#clip000)" style="stroke:#000000; stroke-linecap:round; stroke-linejoin:round; stroke-width:4; stroke-opacity:1; fill:none" points="
  3069.88,1074.13 3069.88,1055.23 
  "/>
<path clip-path="url(#clip000)" d="M250.934 1111.45 Q247.323 1111.45 245.494 1115.01 Q243.689 1118.55 243.689 1125.68 Q243.689 1132.79 245.494 1136.35 Q247.323 1139.9 250.934 1139.9 Q254.568 1139.9 256.374 1136.35 Q258.202 1132.79 258.202 1125.68 Q258.202 1118.55 256.374 1115.01 Q254.568 1111.45 250.934 1111.45 M250.934 1107.74 Q256.744 1107.74 259.8 1112.35 Q262.878 1116.93 262.878 1125.68 Q262.878 1134.41 259.8 1139.02 Q256.744 1143.6 250.934 1143.6 Q245.124 1143.6 242.045 1139.02 Q238.99 1134.41 238.99 1125.68 Q238.99 1116.93 242.045 1112.35 Q245.124 1107.74 250.934 1107.74 Z" fill="#000000" fill-rule="evenodd" fill-opacity="1" /><path clip-path="url(#clip000)" d="M789.411 1138.99 L797.049 1138.99 L797.049 1112.63 L788.739 1114.29 L788.739 1110.03 L797.003 1108.37 L801.679 1108.37 L801.679 1138.99 L809.318 1138.99 L809.318 1142.93 L789.411 1142.93 L789.411 1138.99 Z" fill="#000000" fill-rule="evenodd" fill-opacity="1" /><path clip-path="url(#clip000)" d="M828.762 1111.45 Q825.151 1111.45 823.322 1115.01 Q821.517 1118.55 821.517 1125.68 Q821.517 1132.79 823.322 1136.35 Q825.151 1139.9 828.762 1139.9 Q832.396 1139.9 834.202 1136.35 Q836.031 1132.79 836.031 1125.68 Q836.031 1118.55 834.202 1115.01 Q832.396 1111.45 828.762 1111.45 M828.762 1107.74 Q834.572 1107.74 837.628 1112.35 Q840.707 1116.93 840.707 1125.68 Q840.707 1134.41 837.628 1139.02 Q834.572 1143.6 828.762 1143.6 Q822.952 1143.6 819.873 1139.02 Q816.818 1134.41 816.818 1125.68 Q816.818 1116.93 819.873 1112.35 Q822.952 1107.74 828.762 1107.74 Z" fill="#000000" fill-rule="evenodd" fill-opacity="1" /><path clip-path="url(#clip000)" d="M1357.29 1138.99 L1373.6 1138.99 L1373.6 1142.93 L1351.66 1142.93 L1351.66 1138.99 Q1354.32 1136.24 1358.91 1131.61 Q1363.51 1126.96 1364.69 1125.61 Q1366.94 1123.09 1367.82 1121.35 Q1368.72 1119.59 1368.72 1117.9 Q1368.72 1115.15 1366.78 1113.41 Q1364.85 1111.68 1361.75 1111.68 Q1359.55 1111.68 1357.1 1112.44 Q1354.67 1113.21 1351.89 1114.76 L1351.89 1110.03 Q1354.72 1108.9 1357.17 1108.32 Q1359.62 1107.74 1361.66 1107.74 Q1367.03 1107.74 1370.22 1110.43 Q1373.42 1113.11 1373.42 1117.6 Q1373.42 1119.73 1372.61 1121.65 Q1371.82 1123.55 1369.72 1126.15 Q1369.14 1126.82 1366.04 1130.03 Q1362.93 1133.23 1357.29 1138.99 Z" fill="#000000" fill-rule="evenodd" fill-opacity="1" /><path clip-path="url(#clip000)" d="M1393.42 1111.45 Q1389.81 1111.45 1387.98 1115.01 Q1386.17 1118.55 1386.17 1125.68 Q1386.17 1132.79 1387.98 1136.35 Q1389.81 1139.9 1393.42 1139.9 Q1397.05 1139.9 1398.86 1136.35 Q1400.69 1132.79 1400.69 1125.68 Q1400.69 1118.55 1398.86 1115.01 Q1397.05 1111.45 1393.42 1111.45 M1393.42 1107.74 Q1399.23 1107.74 1402.28 1112.35 Q1405.36 1116.93 1405.36 1125.68 Q1405.36 1134.41 1402.28 1139.02 Q1399.23 1143.6 1393.42 1143.6 Q1387.61 1143.6 1384.53 1139.02 Q1381.47 1134.41 1381.47 1125.68 Q1381.47 1116.93 1384.53 1112.35 Q1387.61 1107.74 1393.42 1107.74 Z" fill="#000000" fill-rule="evenodd" fill-opacity="1" /><path clip-path="url(#clip000)" d="M1931.14 1124.29 Q1934.5 1125.01 1936.38 1127.28 Q1938.27 1129.55 1938.27 1132.88 Q1938.27 1138 1934.75 1140.8 Q1931.24 1143.6 1924.75 1143.6 Q1922.58 1143.6 1920.26 1143.16 Q1917.97 1142.74 1915.52 1141.89 L1915.52 1137.37 Q1917.46 1138.51 1919.78 1139.09 Q1922.09 1139.66 1924.62 1139.66 Q1929.01 1139.66 1931.31 1137.93 Q1933.62 1136.19 1933.62 1132.88 Q1933.62 1129.83 1931.47 1128.11 Q1929.34 1126.38 1925.52 1126.38 L1921.49 1126.38 L1921.49 1122.53 L1925.7 1122.53 Q1929.15 1122.53 1930.98 1121.17 Q1932.81 1119.78 1932.81 1117.19 Q1932.81 1114.53 1930.91 1113.11 Q1929.04 1111.68 1925.52 1111.68 Q1923.6 1111.68 1921.4 1112.09 Q1919.2 1112.51 1916.56 1113.39 L1916.56 1109.22 Q1919.22 1108.48 1921.54 1108.11 Q1923.88 1107.74 1925.94 1107.74 Q1931.26 1107.74 1934.36 1110.17 Q1937.46 1112.58 1937.46 1116.7 Q1937.46 1119.57 1935.82 1121.56 Q1934.18 1123.53 1931.14 1124.29 Z" fill="#000000" fill-rule="evenodd" fill-opacity="1" /><path clip-path="url(#clip000)" d="M1957.14 1111.45 Q1953.53 1111.45 1951.7 1115.01 Q1949.89 1118.55 1949.89 1125.68 Q1949.89 1132.79 1951.7 1136.35 Q1953.53 1139.9 1957.14 1139.9 Q1960.77 1139.9 1962.58 1136.35 Q1964.41 1132.79 1964.41 1125.68 Q1964.41 1118.55 1962.58 1115.01 Q1960.77 1111.45 1957.14 1111.45 M1957.14 1107.74 Q1962.95 1107.74 1966 1112.35 Q1969.08 1116.93 1969.08 1125.68 Q1969.08 1134.41 1966 1139.02 Q1962.95 1143.6 1957.14 1143.6 Q1951.33 1143.6 1948.25 1139.02 Q1945.19 1134.41 1945.19 1125.68 Q1945.19 1116.93 1948.25 1112.35 Q1951.33 1107.74 1957.14 1107.74 Z" fill="#000000" fill-rule="evenodd" fill-opacity="1" /><path clip-path="url(#clip000)" d="M2494.26 1112.44 L2482.46 1130.89 L2494.26 1130.89 L2494.26 1112.44 M2493.03 1108.37 L2498.91 1108.37 L2498.91 1130.89 L2503.84 1130.89 L2503.84 1134.78 L2498.91 1134.78 L2498.91 1142.93 L2494.26 1142.93 L2494.26 1134.78 L2478.66 1134.78 L2478.66 1130.27 L2493.03 1108.37 Z" fill="#000000" fill-rule="evenodd" fill-opacity="1" /><path clip-path="url(#clip000)" d="M2521.58 1111.45 Q2517.96 1111.45 2516.14 1115.01 Q2514.33 1118.55 2514.33 1125.68 Q2514.33 1132.79 2516.14 1136.35 Q2517.96 1139.9 2521.58 1139.9 Q2525.21 1139.9 2527.02 1136.35 Q2528.84 1132.79 2528.84 1125.68 Q2528.84 1118.55 2527.02 1115.01 Q2525.21 1111.45 2521.58 1111.45 M2521.58 1107.74 Q2527.39 1107.74 2530.44 1112.35 Q2533.52 1116.93 2533.52 1125.68 Q2533.52 1134.41 2530.44 1139.02 Q2527.39 1143.6 2521.58 1143.6 Q2515.77 1143.6 2512.69 1139.02 Q2509.63 1134.41 2509.63 1125.68 Q2509.63 1116.93 2512.69 1112.35 Q2515.77 1107.74 2521.58 1107.74 Z" fill="#000000" fill-rule="evenodd" fill-opacity="1" /><path clip-path="url(#clip000)" d="M3044.58 1108.37 L3062.93 1108.37 L3062.93 1112.3 L3048.86 1112.3 L3048.86 1120.78 Q3049.88 1120.43 3050.9 1120.27 Q3051.92 1120.08 3052.93 1120.08 Q3058.72 1120.08 3062.1 1123.25 Q3065.48 1126.42 3065.48 1131.84 Q3065.48 1137.42 3062.01 1140.52 Q3058.54 1143.6 3052.22 1143.6 Q3050.04 1143.6 3047.77 1143.23 Q3045.53 1142.86 3043.12 1142.12 L3043.12 1137.42 Q3045.2 1138.55 3047.43 1139.11 Q3049.65 1139.66 3052.12 1139.66 Q3056.13 1139.66 3058.47 1137.56 Q3060.8 1135.45 3060.8 1131.84 Q3060.8 1128.23 3058.47 1126.12 Q3056.13 1124.02 3052.12 1124.02 Q3050.25 1124.02 3048.37 1124.43 Q3046.52 1124.85 3044.58 1125.73 L3044.58 1108.37 Z" fill="#000000" fill-rule="evenodd" fill-opacity="1" /><path clip-path="url(#clip000)" d="M3084.69 1111.45 Q3081.08 1111.45 3079.25 1115.01 Q3077.45 1118.55 3077.45 1125.68 Q3077.45 1132.79 3079.25 1136.35 Q3081.08 1139.9 3084.69 1139.9 Q3088.33 1139.9 3090.13 1136.35 Q3091.96 1132.79 3091.96 1125.68 Q3091.96 1118.55 3090.13 1115.01 Q3088.33 1111.45 3084.69 1111.45 M3084.69 1107.74 Q3090.5 1107.74 3093.56 1112.35 Q3096.64 1116.93 3096.64 1125.68 Q3096.64 1134.41 3093.56 1139.02 Q3090.5 1143.6 3084.69 1143.6 Q3078.88 1143.6 3075.8 1139.02 Q3072.75 1134.41 3072.75 1125.68 Q3072.75 1116.93 3075.8 1112.35 Q3078.88 1107.74 3084.69 1107.74 Z" fill="#000000" fill-rule="evenodd" fill-opacity="1" /><polyline clip-path="url(#clip002)" style="stroke:#000000; stroke-linecap:round; stroke-linejoin:round; stroke-width:2; stroke-opacity:0.1; fill:none" points="
  224.436,1005.32 3152.76,1005.32 
  "/>
<polyline clip-path="url(#clip002)" style="stroke:#000000; stroke-linecap:round; stroke-linejoin:round; stroke-width:2; stroke-opacity:0.1; fill:none" points="
  224.436,852.138 3152.76,852.138 
  "/>
<polyline clip-path="url(#clip002)" style="stroke:#000000; stroke-linecap:round; stroke-linejoin:round; stroke-width:2; stroke-opacity:0.1; fill:none" points="
  224.436,698.955 3152.76,698.955 
  "/>
<polyline clip-path="url(#clip002)" style="stroke:#000000; stroke-linecap:round; stroke-linejoin:round; stroke-width:2; stroke-opacity:0.1; fill:none" points="
  224.436,545.773 3152.76,545.773 
  "/>
<polyline clip-path="url(#clip002)" style="stroke:#000000; stroke-linecap:round; stroke-linejoin:round; stroke-width:2; stroke-opacity:0.1; fill:none" points="
  224.436,392.591 3152.76,392.591 
  "/>
<polyline clip-path="url(#clip002)" style="stroke:#000000; stroke-linecap:round; stroke-linejoin:round; stroke-width:2; stroke-opacity:0.1; fill:none" points="
  224.436,239.409 3152.76,239.409 
  "/>
<polyline clip-path="url(#clip000)" style="stroke:#000000; stroke-linecap:round; stroke-linejoin:round; stroke-width:4; stroke-opacity:1; fill:none" points="
  224.436,1074.13 224.436,131.032 
  "/>
<polyline clip-path="url(#clip000)" style="stroke:#000000; stroke-linecap:round; stroke-linejoin:round; stroke-width:4; stroke-opacity:1; fill:none" points="
  224.436,1005.32 243.334,1005.32 
  "/>
<polyline clip-path="url(#clip000)" style="stroke:#000000; stroke-linecap:round; stroke-linejoin:round; stroke-width:4; stroke-opacity:1; fill:none" points="
  224.436,852.138 243.334,852.138 
  "/>
<polyline clip-path="url(#clip000)" style="stroke:#000000; stroke-linecap:round; stroke-linejoin:round; stroke-width:4; stroke-opacity:1; fill:none" points="
  224.436,698.955 243.334,698.955 
  "/>
<polyline clip-path="url(#clip000)" style="stroke:#000000; stroke-linecap:round; stroke-linejoin:round; stroke-width:4; stroke-opacity:1; fill:none" points="
  224.436,545.773 243.334,545.773 
  "/>
<polyline clip-path="url(#clip000)" style="stroke:#000000; stroke-linecap:round; stroke-linejoin:round; stroke-width:4; stroke-opacity:1; fill:none" points="
  224.436,392.591 243.334,392.591 
  "/>
<polyline clip-path="url(#clip000)" style="stroke:#000000; stroke-linecap:round; stroke-linejoin:round; stroke-width:4; stroke-opacity:1; fill:none" points="
  224.436,239.409 243.334,239.409 
  "/>
<path clip-path="url(#clip000)" d="M59.9319 991.119 Q56.3208 991.119 54.4921 994.683 Q52.6865 998.225 52.6865 1005.35 Q52.6865 1012.46 54.4921 1016.03 Q56.3208 1019.57 59.9319 1019.57 Q63.5661 1019.57 65.3717 1016.03 Q67.2004 1012.46 67.2004 1005.35 Q67.2004 998.225 65.3717 994.683 Q63.5661 991.119 59.9319 991.119 M59.9319 987.415 Q65.742 987.415 68.7976 992.021 Q71.8763 996.605 71.8763 1005.35 Q71.8763 1014.08 68.7976 1018.69 Q65.742 1023.27 59.9319 1023.27 Q54.1217 1023.27 51.043 1018.69 Q47.9875 1014.08 47.9875 1005.35 Q47.9875 996.605 51.043 992.021 Q54.1217 987.415 59.9319 987.415 Z" fill="#000000" fill-rule="evenodd" fill-opacity="1" /><path clip-path="url(#clip000)" d="M80.0938 1016.72 L84.978 1016.72 L84.978 1022.6 L80.0938 1022.6 L80.0938 1016.72 Z" fill="#000000" fill-rule="evenodd" fill-opacity="1" /><path clip-path="url(#clip000)" d="M105.163 991.119 Q101.552 991.119 99.7233 994.683 Q97.9178 998.225 97.9178 1005.35 Q97.9178 1012.46 99.7233 1016.03 Q101.552 1019.57 105.163 1019.57 Q108.797 1019.57 110.603 1016.03 Q112.432 1012.46 112.432 1005.35 Q112.432 998.225 110.603 994.683 Q108.797 991.119 105.163 991.119 M105.163 987.415 Q110.973 987.415 114.029 992.021 Q117.107 996.605 117.107 1005.35 Q117.107 1014.08 114.029 1018.69 Q110.973 1023.27 105.163 1023.27 Q99.353 1023.27 96.2743 1018.69 Q93.2187 1014.08 93.2187 1005.35 Q93.2187 996.605 96.2743 992.021 Q99.353 987.415 105.163 987.415 Z" fill="#000000" fill-rule="evenodd" fill-opacity="1" /><path clip-path="url(#clip000)" d="M125.371 988.04 L143.728 988.04 L143.728 991.975 L129.654 991.975 L129.654 1000.45 Q130.672 1000.1 131.691 999.938 Q132.709 999.753 133.728 999.753 Q139.515 999.753 142.894 1002.92 Q146.274 1006.1 146.274 1011.51 Q146.274 1017.09 142.802 1020.19 Q139.33 1023.27 133.01 1023.27 Q130.834 1023.27 128.566 1022.9 Q126.32 1022.53 123.913 1021.79 L123.913 1017.09 Q125.996 1018.22 128.219 1018.78 Q130.441 1019.34 132.918 1019.34 Q136.922 1019.34 139.26 1017.23 Q141.598 1015.12 141.598 1011.51 Q141.598 1007.9 139.26 1005.79 Q136.922 1003.69 132.918 1003.69 Q131.043 1003.69 129.168 1004.1 Q127.316 1004.52 125.371 1005.4 L125.371 988.04 Z" fill="#000000" fill-rule="evenodd" fill-opacity="1" /><path clip-path="url(#clip000)" d="M155.533 988.04 L173.89 988.04 L173.89 991.975 L159.816 991.975 L159.816 1000.45 Q160.834 1000.1 161.853 999.938 Q162.871 999.753 163.89 999.753 Q169.677 999.753 173.056 1002.92 Q176.436 1006.1 176.436 1011.51 Q176.436 1017.09 172.964 1020.19 Q169.491 1023.27 163.172 1023.27 Q160.996 1023.27 158.728 1022.9 Q156.482 1022.53 154.075 1021.79 L154.075 1017.09 Q156.158 1018.22 158.38 1018.78 Q160.603 1019.34 163.079 1019.34 Q167.084 1019.34 169.422 1017.23 Q171.76 1015.12 171.76 1011.51 Q171.76 1007.9 169.422 1005.79 Q167.084 1003.69 163.079 1003.69 Q161.204 1003.69 159.329 1004.1 Q157.478 1004.52 155.533 1005.4 L155.533 988.04 Z" fill="#000000" fill-rule="evenodd" fill-opacity="1" /><path clip-path="url(#clip000)" d="M58.9365 837.936 Q55.3254 837.936 53.4967 841.501 Q51.6912 845.043 51.6912 852.172 Q51.6912 859.279 53.4967 862.844 Q55.3254 866.385 58.9365 866.385 Q62.5707 866.385 64.3763 862.844 Q66.205 859.279 66.205 852.172 Q66.205 845.043 64.3763 841.501 Q62.5707 837.936 58.9365 837.936 M58.9365 834.233 Q64.7467 834.233 67.8022 838.839 Q70.8809 843.422 70.8809 852.172 Q70.8809 860.899 67.8022 865.506 Q64.7467 870.089 58.9365 870.089 Q53.1264 870.089 50.0477 865.506 Q46.9921 860.899 46.9921 852.172 Q46.9921 843.422 50.0477 838.839 Q53.1264 834.233 58.9365 834.233 Z" fill="#000000" fill-rule="evenodd" fill-opacity="1" /><path clip-path="url(#clip000)" d="M79.0984 863.538 L83.9827 863.538 L83.9827 869.418 L79.0984 869.418 L79.0984 863.538 Z" fill="#000000" fill-rule="evenodd" fill-opacity="1" /><path clip-path="url(#clip000)" d="M104.168 837.936 Q100.557 837.936 98.728 841.501 Q96.9224 845.043 96.9224 852.172 Q96.9224 859.279 98.728 862.844 Q100.557 866.385 104.168 866.385 Q107.802 866.385 109.608 862.844 Q111.436 859.279 111.436 852.172 Q111.436 845.043 109.608 841.501 Q107.802 837.936 104.168 837.936 M104.168 834.233 Q109.978 834.233 113.033 838.839 Q116.112 843.422 116.112 852.172 Q116.112 860.899 113.033 865.506 Q109.978 870.089 104.168 870.089 Q98.3576 870.089 95.2789 865.506 Q92.2234 860.899 92.2234 852.172 Q92.2234 843.422 95.2789 838.839 Q98.3576 834.233 104.168 834.233 Z" fill="#000000" fill-rule="evenodd" fill-opacity="1" /><path clip-path="url(#clip000)" d="M134.908 850.274 Q131.76 850.274 129.908 852.427 Q128.08 854.58 128.08 858.33 Q128.08 862.057 129.908 864.233 Q131.76 866.385 134.908 866.385 Q138.056 866.385 139.885 864.233 Q141.737 862.057 141.737 858.33 Q141.737 854.58 139.885 852.427 Q138.056 850.274 134.908 850.274 M144.191 835.622 L144.191 839.881 Q142.431 839.047 140.626 838.608 Q138.843 838.168 137.084 838.168 Q132.455 838.168 130.001 841.293 Q127.57 844.418 127.223 850.737 Q128.589 848.723 130.649 847.659 Q132.709 846.571 135.186 846.571 Q140.394 846.571 143.404 849.742 Q146.436 852.89 146.436 858.33 Q146.436 863.654 143.288 866.871 Q140.14 870.089 134.908 870.089 Q128.913 870.089 125.742 865.506 Q122.57 860.899 122.57 852.172 Q122.57 843.978 126.459 839.117 Q130.348 834.233 136.899 834.233 Q138.658 834.233 140.441 834.58 Q142.246 834.927 144.191 835.622 Z" fill="#000000" fill-rule="evenodd" fill-opacity="1" /><path clip-path="url(#clip000)" d="M164.491 837.936 Q160.88 837.936 159.052 841.501 Q157.246 845.043 157.246 852.172 Q157.246 859.279 159.052 862.844 Q160.88 866.385 164.491 866.385 Q168.126 866.385 169.931 862.844 Q171.76 859.279 171.76 852.172 Q171.76 845.043 169.931 841.501 Q168.126 837.936 164.491 837.936 M164.491 834.233 Q170.302 834.233 173.357 838.839 Q176.436 843.422 176.436 852.172 Q176.436 860.899 173.357 865.506 Q170.302 870.089 164.491 870.089 Q158.681 870.089 155.603 865.506 Q152.547 860.899 152.547 852.172 Q152.547 843.422 155.603 838.839 Q158.681 834.233 164.491 834.233 Z" fill="#000000" fill-rule="evenodd" fill-opacity="1" /><path clip-path="url(#clip000)" d="M59.9319 684.754 Q56.3208 684.754 54.4921 688.319 Q52.6865 691.861 52.6865 698.99 Q52.6865 706.097 54.4921 709.661 Q56.3208 713.203 59.9319 713.203 Q63.5661 713.203 65.3717 709.661 Q67.2004 706.097 67.2004 698.99 Q67.2004 691.861 65.3717 688.319 Q63.5661 684.754 59.9319 684.754 M59.9319 681.05 Q65.742 681.05 68.7976 685.657 Q71.8763 690.24 71.8763 698.99 Q71.8763 707.717 68.7976 712.323 Q65.742 716.907 59.9319 716.907 Q54.1217 716.907 51.043 712.323 Q47.9875 707.717 47.9875 698.99 Q47.9875 690.24 51.043 685.657 Q54.1217 681.05 59.9319 681.05 Z" fill="#000000" fill-rule="evenodd" fill-opacity="1" /><path clip-path="url(#clip000)" d="M80.0938 710.356 L84.978 710.356 L84.978 716.235 L80.0938 716.235 L80.0938 710.356 Z" fill="#000000" fill-rule="evenodd" fill-opacity="1" /><path clip-path="url(#clip000)" d="M105.163 684.754 Q101.552 684.754 99.7233 688.319 Q97.9178 691.861 97.9178 698.99 Q97.9178 706.097 99.7233 709.661 Q101.552 713.203 105.163 713.203 Q108.797 713.203 110.603 709.661 Q112.432 706.097 112.432 698.99 Q112.432 691.861 110.603 688.319 Q108.797 684.754 105.163 684.754 M105.163 681.05 Q110.973 681.05 114.029 685.657 Q117.107 690.24 117.107 698.99 Q117.107 707.717 114.029 712.323 Q110.973 716.907 105.163 716.907 Q99.353 716.907 96.2743 712.323 Q93.2187 707.717 93.2187 698.99 Q93.2187 690.24 96.2743 685.657 Q99.353 681.05 105.163 681.05 Z" fill="#000000" fill-rule="evenodd" fill-opacity="1" /><path clip-path="url(#clip000)" d="M135.904 697.092 Q132.756 697.092 130.904 699.245 Q129.075 701.397 129.075 705.147 Q129.075 708.874 130.904 711.05 Q132.756 713.203 135.904 713.203 Q139.052 713.203 140.881 711.05 Q142.732 708.874 142.732 705.147 Q142.732 701.397 140.881 699.245 Q139.052 697.092 135.904 697.092 M145.186 682.439 L145.186 686.699 Q143.427 685.865 141.621 685.425 Q139.839 684.986 138.08 684.986 Q133.45 684.986 130.996 688.111 Q128.566 691.236 128.219 697.555 Q129.584 695.541 131.644 694.476 Q133.705 693.388 136.181 693.388 Q141.39 693.388 144.399 696.56 Q147.431 699.708 147.431 705.147 Q147.431 710.472 144.283 713.689 Q141.135 716.907 135.904 716.907 Q129.908 716.907 126.737 712.323 Q123.566 707.717 123.566 698.99 Q123.566 690.796 127.455 685.935 Q131.344 681.05 137.894 681.05 Q139.654 681.05 141.436 681.398 Q143.242 681.745 145.186 682.439 Z" fill="#000000" fill-rule="evenodd" fill-opacity="1" /><path clip-path="url(#clip000)" d="M155.533 681.675 L173.89 681.675 L173.89 685.611 L159.816 685.611 L159.816 694.083 Q160.834 693.736 161.853 693.573 Q162.871 693.388 163.89 693.388 Q169.677 693.388 173.056 696.56 Q176.436 699.731 176.436 705.147 Q176.436 710.726 172.964 713.828 Q169.491 716.907 163.172 716.907 Q160.996 716.907 158.728 716.536 Q156.482 716.166 154.075 715.425 L154.075 710.726 Q156.158 711.86 158.38 712.416 Q160.603 712.972 163.079 712.972 Q167.084 712.972 169.422 710.865 Q171.76 708.759 171.76 705.147 Q171.76 701.536 169.422 699.43 Q167.084 697.323 163.079 697.323 Q161.204 697.323 159.329 697.74 Q157.478 698.157 155.533 699.036 L155.533 681.675 Z" fill="#000000" fill-rule="evenodd" fill-opacity="1" /><path clip-path="url(#clip000)" d="M58.9365 531.572 Q55.3254 531.572 53.4967 535.137 Q51.6912 538.678 51.6912 545.808 Q51.6912 552.914 53.4967 556.479 Q55.3254 560.021 58.9365 560.021 Q62.5707 560.021 64.3763 556.479 Q66.205 552.914 66.205 545.808 Q66.205 538.678 64.3763 535.137 Q62.5707 531.572 58.9365 531.572 M58.9365 527.868 Q64.7467 527.868 67.8022 532.475 Q70.8809 537.058 70.8809 545.808 Q70.8809 554.535 67.8022 559.141 Q64.7467 563.724 58.9365 563.724 Q53.1264 563.724 50.0477 559.141 Q46.9921 554.535 46.9921 545.808 Q46.9921 537.058 50.0477 532.475 Q53.1264 527.868 58.9365 527.868 Z" fill="#000000" fill-rule="evenodd" fill-opacity="1" /><path clip-path="url(#clip000)" d="M79.0984 557.173 L83.9827 557.173 L83.9827 563.053 L79.0984 563.053 L79.0984 557.173 Z" fill="#000000" fill-rule="evenodd" fill-opacity="1" /><path clip-path="url(#clip000)" d="M104.168 531.572 Q100.557 531.572 98.728 535.137 Q96.9224 538.678 96.9224 545.808 Q96.9224 552.914 98.728 556.479 Q100.557 560.021 104.168 560.021 Q107.802 560.021 109.608 556.479 Q111.436 552.914 111.436 545.808 Q111.436 538.678 109.608 535.137 Q107.802 531.572 104.168 531.572 M104.168 527.868 Q109.978 527.868 113.033 532.475 Q116.112 537.058 116.112 545.808 Q116.112 554.535 113.033 559.141 Q109.978 563.724 104.168 563.724 Q98.3576 563.724 95.2789 559.141 Q92.2234 554.535 92.2234 545.808 Q92.2234 537.058 95.2789 532.475 Q98.3576 527.868 104.168 527.868 Z" fill="#000000" fill-rule="evenodd" fill-opacity="1" /><path clip-path="url(#clip000)" d="M123.149 528.493 L145.371 528.493 L145.371 530.484 L132.825 563.053 L127.941 563.053 L139.746 532.428 L123.149 532.428 L123.149 528.493 Z" fill="#000000" fill-rule="evenodd" fill-opacity="1" /><path clip-path="url(#clip000)" d="M164.491 531.572 Q160.88 531.572 159.052 535.137 Q157.246 538.678 157.246 545.808 Q157.246 552.914 159.052 556.479 Q160.88 560.021 164.491 560.021 Q168.126 560.021 169.931 556.479 Q171.76 552.914 171.76 545.808 Q171.76 538.678 169.931 535.137 Q168.126 531.572 164.491 531.572 M164.491 527.868 Q170.302 527.868 173.357 532.475 Q176.436 537.058 176.436 545.808 Q176.436 554.535 173.357 559.141 Q170.302 563.724 164.491 563.724 Q158.681 563.724 155.603 559.141 Q152.547 554.535 152.547 545.808 Q152.547 537.058 155.603 532.475 Q158.681 527.868 164.491 527.868 Z" fill="#000000" fill-rule="evenodd" fill-opacity="1" /><path clip-path="url(#clip000)" d="M59.9319 378.389 Q56.3208 378.389 54.4921 381.954 Q52.6865 385.496 52.6865 392.626 Q52.6865 399.732 54.4921 403.297 Q56.3208 406.838 59.9319 406.838 Q63.5661 406.838 65.3717 403.297 Q67.2004 399.732 67.2004 392.626 Q67.2004 385.496 65.3717 381.954 Q63.5661 378.389 59.9319 378.389 M59.9319 374.686 Q65.742 374.686 68.7976 379.292 Q71.8763 383.876 71.8763 392.626 Q71.8763 401.352 68.7976 405.959 Q65.742 410.542 59.9319 410.542 Q54.1217 410.542 51.043 405.959 Q47.9875 401.352 47.9875 392.626 Q47.9875 383.876 51.043 379.292 Q54.1217 374.686 59.9319 374.686 Z" fill="#000000" fill-rule="evenodd" fill-opacity="1" /><path clip-path="url(#clip000)" d="M80.0938 403.991 L84.978 403.991 L84.978 409.871 L80.0938 409.871 L80.0938 403.991 Z" fill="#000000" fill-rule="evenodd" fill-opacity="1" /><path clip-path="url(#clip000)" d="M105.163 378.389 Q101.552 378.389 99.7233 381.954 Q97.9178 385.496 97.9178 392.626 Q97.9178 399.732 99.7233 403.297 Q101.552 406.838 105.163 406.838 Q108.797 406.838 110.603 403.297 Q112.432 399.732 112.432 392.626 Q112.432 385.496 110.603 381.954 Q108.797 378.389 105.163 378.389 M105.163 374.686 Q110.973 374.686 114.029 379.292 Q117.107 383.876 117.107 392.626 Q117.107 401.352 114.029 405.959 Q110.973 410.542 105.163 410.542 Q99.353 410.542 96.2743 405.959 Q93.2187 401.352 93.2187 392.626 Q93.2187 383.876 96.2743 379.292 Q99.353 374.686 105.163 374.686 Z" fill="#000000" fill-rule="evenodd" fill-opacity="1" /><path clip-path="url(#clip000)" d="M124.144 375.311 L146.367 375.311 L146.367 377.302 L133.82 409.871 L128.936 409.871 L140.742 379.246 L124.144 379.246 L124.144 375.311 Z" fill="#000000" fill-rule="evenodd" fill-opacity="1" /><path clip-path="url(#clip000)" d="M155.533 375.311 L173.89 375.311 L173.89 379.246 L159.816 379.246 L159.816 387.718 Q160.834 387.371 161.853 387.209 Q162.871 387.024 163.89 387.024 Q169.677 387.024 173.056 390.195 Q176.436 393.366 176.436 398.783 Q176.436 404.362 172.964 407.463 Q169.491 410.542 163.172 410.542 Q160.996 410.542 158.728 410.172 Q156.482 409.801 154.075 409.061 L154.075 404.362 Q156.158 405.496 158.38 406.051 Q160.603 406.607 163.079 406.607 Q167.084 406.607 169.422 404.5 Q171.76 402.394 171.76 398.783 Q171.76 395.172 169.422 393.065 Q167.084 390.959 163.079 390.959 Q161.204 390.959 159.329 391.376 Q157.478 391.792 155.533 392.672 L155.533 375.311 Z" fill="#000000" fill-rule="evenodd" fill-opacity="1" /><path clip-path="url(#clip000)" d="M58.9365 225.207 Q55.3254 225.207 53.4967 228.772 Q51.6912 232.314 51.6912 239.443 Q51.6912 246.55 53.4967 250.114 Q55.3254 253.656 58.9365 253.656 Q62.5707 253.656 64.3763 250.114 Q66.205 246.55 66.205 239.443 Q66.205 232.314 64.3763 228.772 Q62.5707 225.207 58.9365 225.207 M58.9365 221.504 Q64.7467 221.504 67.8022 226.11 Q70.8809 230.693 70.8809 239.443 Q70.8809 248.17 67.8022 252.776 Q64.7467 257.36 58.9365 257.36 Q53.1264 257.36 50.0477 252.776 Q46.9921 248.17 46.9921 239.443 Q46.9921 230.693 50.0477 226.11 Q53.1264 221.504 58.9365 221.504 Z" fill="#000000" fill-rule="evenodd" fill-opacity="1" /><path clip-path="url(#clip000)" d="M79.0984 250.809 L83.9827 250.809 L83.9827 256.689 L79.0984 256.689 L79.0984 250.809 Z" fill="#000000" fill-rule="evenodd" fill-opacity="1" /><path clip-path="url(#clip000)" d="M104.168 225.207 Q100.557 225.207 98.728 228.772 Q96.9224 232.314 96.9224 239.443 Q96.9224 246.55 98.728 250.114 Q100.557 253.656 104.168 253.656 Q107.802 253.656 109.608 250.114 Q111.436 246.55 111.436 239.443 Q111.436 232.314 109.608 228.772 Q107.802 225.207 104.168 225.207 M104.168 221.504 Q109.978 221.504 113.033 226.11 Q116.112 230.693 116.112 239.443 Q116.112 248.17 113.033 252.776 Q109.978 257.36 104.168 257.36 Q98.3576 257.36 95.2789 252.776 Q92.2234 248.17 92.2234 239.443 Q92.2234 230.693 95.2789 226.11 Q98.3576 221.504 104.168 221.504 Z" fill="#000000" fill-rule="evenodd" fill-opacity="1" /><path clip-path="url(#clip000)" d="M134.33 240.277 Q130.996 240.277 129.075 242.059 Q127.177 243.841 127.177 246.966 Q127.177 250.091 129.075 251.874 Q130.996 253.656 134.33 253.656 Q137.663 253.656 139.584 251.874 Q141.506 250.068 141.506 246.966 Q141.506 243.841 139.584 242.059 Q137.686 240.277 134.33 240.277 M129.654 238.286 Q126.644 237.545 124.955 235.485 Q123.288 233.425 123.288 230.462 Q123.288 226.318 126.228 223.911 Q129.191 221.504 134.33 221.504 Q139.492 221.504 142.431 223.911 Q145.371 226.318 145.371 230.462 Q145.371 233.425 143.681 235.485 Q142.015 237.545 139.029 238.286 Q142.408 239.073 144.283 241.365 Q146.181 243.656 146.181 246.966 Q146.181 251.989 143.103 254.675 Q140.047 257.36 134.33 257.36 Q128.612 257.36 125.533 254.675 Q122.478 251.989 122.478 246.966 Q122.478 243.656 124.376 241.365 Q126.274 239.073 129.654 238.286 M127.941 230.902 Q127.941 233.587 129.607 235.091 Q131.297 236.596 134.33 236.596 Q137.339 236.596 139.029 235.091 Q140.742 233.587 140.742 230.902 Q140.742 228.216 139.029 226.712 Q137.339 225.207 134.33 225.207 Q131.297 225.207 129.607 226.712 Q127.941 228.216 127.941 230.902 Z" fill="#000000" fill-rule="evenodd" fill-opacity="1" /><path clip-path="url(#clip000)" d="M164.491 225.207 Q160.88 225.207 159.052 228.772 Q157.246 232.314 157.246 239.443 Q157.246 246.55 159.052 250.114 Q160.88 253.656 164.491 253.656 Q168.126 253.656 169.931 250.114 Q171.76 246.55 171.76 239.443 Q171.76 232.314 169.931 228.772 Q168.126 225.207 164.491 225.207 M164.491 221.504 Q170.302 221.504 173.357 226.11 Q176.436 230.693 176.436 239.443 Q176.436 248.17 173.357 252.776 Q170.302 257.36 164.491 257.36 Q158.681 257.36 155.603 252.776 Q152.547 248.17 152.547 239.443 Q152.547 230.693 155.603 226.11 Q158.681 221.504 164.491 221.504 Z" fill="#000000" fill-rule="evenodd" fill-opacity="1" /><path clip-path="url(#clip000)" d="M1267.26 12.096 L1275.48 12.096 L1275.48 48.8377 Q1275.48 58.5599 1279.01 62.8538 Q1282.53 67.1073 1290.43 67.1073 Q1298.29 67.1073 1301.82 62.8538 Q1305.34 58.5599 1305.34 48.8377 L1305.34 12.096 L1313.56 12.096 L1313.56 49.8504 Q1313.56 61.6791 1307.69 67.7149 Q1301.86 73.7508 1290.43 73.7508 Q1278.97 73.7508 1273.09 67.7149 Q1267.26 61.6791 1267.26 49.8504 L1267.26 12.096 Z" fill="#000000" fill-rule="evenodd" fill-opacity="1" /><path clip-path="url(#clip000)" d="M1366.31 45.1919 L1366.31 72.576 L1358.85 72.576 L1358.85 45.4349 Q1358.85 38.994 1356.34 35.7938 Q1353.83 32.5936 1348.81 32.5936 Q1342.77 32.5936 1339.29 36.4419 Q1335.8 40.2903 1335.8 46.9338 L1335.8 72.576 L1328.31 72.576 L1328.31 27.2059 L1335.8 27.2059 L1335.8 34.2544 Q1338.48 30.163 1342.08 28.1376 Q1345.73 26.1121 1350.47 26.1121 Q1358.29 26.1121 1362.3 30.9732 Q1366.31 35.7938 1366.31 45.1919 Z" fill="#000000" fill-rule="evenodd" fill-opacity="1" /><path clip-path="url(#clip000)" d="M1419.98 48.0275 L1419.98 51.6733 L1385.71 51.6733 Q1386.2 59.3701 1390.33 63.421 Q1394.5 67.4314 1401.91 67.4314 Q1406.21 67.4314 1410.22 66.3781 Q1414.27 65.3249 1418.24 63.2184 L1418.24 70.267 Q1414.23 71.9684 1410.02 72.8596 Q1405.8 73.7508 1401.47 73.7508 Q1390.61 73.7508 1384.25 67.4314 Q1377.93 61.1119 1377.93 50.3365 Q1377.93 39.1965 1383.93 32.6746 Q1389.96 26.1121 1400.17 26.1121 Q1409.33 26.1121 1414.63 32.0264 Q1419.98 37.9003 1419.98 48.0275 M1412.53 45.84 Q1412.45 39.7232 1409.08 36.0774 Q1405.76 32.4315 1400.25 32.4315 Q1394.01 32.4315 1390.25 35.9558 Q1386.52 39.4801 1385.95 45.8805 L1412.53 45.84 Z" fill="#000000" fill-rule="evenodd" fill-opacity="1" /><path clip-path="url(#clip000)" d="M1467.54 35.9153 Q1470.33 30.8922 1474.22 28.5022 Q1478.11 26.1121 1483.38 26.1121 Q1490.47 26.1121 1494.31 31.0947 Q1498.16 36.0368 1498.16 45.1919 L1498.16 72.576 L1490.67 72.576 L1490.67 45.4349 Q1490.67 38.913 1488.36 35.7533 Q1486.05 32.5936 1481.31 32.5936 Q1475.52 32.5936 1472.16 36.4419 Q1468.79 40.2903 1468.79 46.9338 L1468.79 72.576 L1461.3 72.576 L1461.3 45.4349 Q1461.3 38.8725 1458.99 35.7533 Q1456.68 32.5936 1451.86 32.5936 Q1446.15 32.5936 1442.79 36.4824 Q1439.42 40.3308 1439.42 46.9338 L1439.42 72.576 L1431.93 72.576 L1431.93 27.2059 L1439.42 27.2059 L1439.42 34.2544 Q1441.98 30.082 1445.54 28.0971 Q1449.11 26.1121 1454.01 26.1121 Q1458.95 26.1121 1462.39 28.6237 Q1465.88 31.1352 1467.54 35.9153 Z" fill="#000000" fill-rule="evenodd" fill-opacity="1" /><path clip-path="url(#clip000)" d="M1520.24 65.7705 L1520.24 89.8329 L1512.75 89.8329 L1512.75 27.2059 L1520.24 27.2059 L1520.24 34.0924 Q1522.59 30.0415 1526.15 28.0971 Q1529.76 26.1121 1534.74 26.1121 Q1543.01 26.1121 1548.15 32.6746 Q1553.34 39.2371 1553.34 49.9314 Q1553.34 60.6258 1548.15 67.1883 Q1543.01 73.7508 1534.74 73.7508 Q1529.76 73.7508 1526.15 71.8063 Q1522.59 69.8214 1520.24 65.7705 M1545.6 49.9314 Q1545.6 41.7081 1542.2 37.0496 Q1538.83 32.3505 1532.92 32.3505 Q1527.01 32.3505 1523.6 37.0496 Q1520.24 41.7081 1520.24 49.9314 Q1520.24 58.1548 1523.6 62.8538 Q1527.01 67.5124 1532.92 67.5124 Q1538.83 67.5124 1542.2 62.8538 Q1545.6 58.1548 1545.6 49.9314 Z" fill="#000000" fill-rule="evenodd" fill-opacity="1" /><path clip-path="url(#clip000)" d="M1565.69 9.54393 L1573.15 9.54393 L1573.15 72.576 L1565.69 72.576 L1565.69 9.54393 Z" fill="#000000" fill-rule="evenodd" fill-opacity="1" /><path clip-path="url(#clip000)" d="M1606.32 32.4315 Q1600.33 32.4315 1596.84 37.1306 Q1593.36 41.7891 1593.36 49.9314 Q1593.36 58.0738 1596.8 62.7728 Q1600.29 67.4314 1606.32 67.4314 Q1612.28 67.4314 1615.76 62.7323 Q1619.24 58.0333 1619.24 49.9314 Q1619.24 41.8701 1615.76 37.1711 Q1612.28 32.4315 1606.32 32.4315 M1606.32 26.1121 Q1616.04 26.1121 1621.59 32.4315 Q1627.14 38.7509 1627.14 49.9314 Q1627.14 61.0714 1621.59 67.4314 Q1616.04 73.7508 1606.32 73.7508 Q1596.56 73.7508 1591.01 67.4314 Q1585.5 61.0714 1585.5 49.9314 Q1585.5 38.7509 1591.01 32.4315 Q1596.56 26.1121 1606.32 26.1121 Z" fill="#000000" fill-rule="evenodd" fill-opacity="1" /><path clip-path="url(#clip000)" d="M1658.38 76.7889 Q1655.22 84.8907 1652.22 87.3618 Q1649.22 89.8329 1644.2 89.8329 L1638.24 89.8329 L1638.24 83.5945 L1642.62 83.5945 Q1645.7 83.5945 1647.4 82.1361 Q1649.1 80.6778 1651.17 75.2496 L1652.5 71.8468 L1634.15 27.2059 L1642.05 27.2059 L1656.23 62.6918 L1670.41 27.2059 L1678.31 27.2059 L1658.38 76.7889 Z" fill="#000000" fill-rule="evenodd" fill-opacity="1" /><path clip-path="url(#clip000)" d="M1723.92 35.9153 Q1726.71 30.8922 1730.6 28.5022 Q1734.49 26.1121 1739.76 26.1121 Q1746.85 26.1121 1750.7 31.0947 Q1754.54 36.0368 1754.54 45.1919 L1754.54 72.576 L1747.05 72.576 L1747.05 45.4349 Q1747.05 38.913 1744.74 35.7533 Q1742.43 32.5936 1737.69 32.5936 Q1731.9 32.5936 1728.54 36.4419 Q1725.18 40.2903 1725.18 46.9338 L1725.18 72.576 L1717.68 72.576 L1717.68 45.4349 Q1717.68 38.8725 1715.37 35.7533 Q1713.06 32.5936 1708.24 32.5936 Q1702.53 32.5936 1699.17 36.4824 Q1695.81 40.3308 1695.81 46.9338 L1695.81 72.576 L1688.31 72.576 L1688.31 27.2059 L1695.81 27.2059 L1695.81 34.2544 Q1698.36 30.082 1701.92 28.0971 Q1705.49 26.1121 1710.39 26.1121 Q1715.33 26.1121 1718.78 28.6237 Q1722.26 31.1352 1723.92 35.9153 Z" fill="#000000" fill-rule="evenodd" fill-opacity="1" /><path clip-path="url(#clip000)" d="M1808.22 48.0275 L1808.22 51.6733 L1773.95 51.6733 Q1774.43 59.3701 1778.57 63.421 Q1782.74 67.4314 1790.15 67.4314 Q1794.45 67.4314 1798.46 66.3781 Q1802.51 65.3249 1806.48 63.2184 L1806.48 70.267 Q1802.47 71.9684 1798.25 72.8596 Q1794.04 73.7508 1789.71 73.7508 Q1778.85 73.7508 1772.49 67.4314 Q1766.17 61.1119 1766.17 50.3365 Q1766.17 39.1965 1772.17 32.6746 Q1778.2 26.1121 1788.41 26.1121 Q1797.57 26.1121 1802.87 32.0264 Q1808.22 37.9003 1808.22 48.0275 M1800.77 45.84 Q1800.68 39.7232 1797.32 36.0774 Q1794 32.4315 1788.49 32.4315 Q1782.25 32.4315 1778.49 35.9558 Q1774.76 39.4801 1774.19 45.8805 L1800.77 45.84 Z" fill="#000000" fill-rule="evenodd" fill-opacity="1" /><path clip-path="url(#clip000)" d="M1858.17 45.1919 L1858.17 72.576 L1850.71 72.576 L1850.71 45.4349 Q1850.71 38.994 1848.2 35.7938 Q1845.69 32.5936 1840.67 32.5936 Q1834.63 32.5936 1831.15 36.4419 Q1827.66 40.2903 1827.66 46.9338 L1827.66 72.576 L1820.17 72.576 L1820.17 27.2059 L1827.66 27.2059 L1827.66 34.2544 Q1830.34 30.163 1833.94 28.1376 Q1837.59 26.1121 1842.33 26.1121 Q1850.15 26.1121 1854.16 30.9732 Q1858.17 35.7938 1858.17 45.1919 Z" fill="#000000" fill-rule="evenodd" fill-opacity="1" /><path clip-path="url(#clip000)" d="M1880.41 14.324 L1880.41 27.2059 L1895.76 27.2059 L1895.76 32.9987 L1880.41 32.9987 L1880.41 57.6282 Q1880.41 63.1779 1881.91 64.7578 Q1883.44 66.3376 1888.1 66.3376 L1895.76 66.3376 L1895.76 72.576 L1888.1 72.576 Q1879.47 72.576 1876.19 69.3758 Q1872.91 66.1351 1872.91 57.6282 L1872.91 32.9987 L1867.44 32.9987 L1867.44 27.2059 L1872.91 27.2059 L1872.91 14.324 L1880.41 14.324 Z" fill="#000000" fill-rule="evenodd" fill-opacity="1" /><path clip-path="url(#clip000)" d="M1960.94 44.2197 Q1963.57 45.1109 1966.04 48.0275 Q1968.55 50.9442 1971.07 56.0483 L1979.37 72.576 L1970.58 72.576 L1962.84 57.061 Q1959.84 50.9847 1957.01 48.9997 Q1954.21 47.0148 1949.35 47.0148 L1940.44 47.0148 L1940.44 72.576 L1932.26 72.576 L1932.26 12.096 L1950.73 12.096 Q1961.1 12.096 1966.2 16.4305 Q1971.31 20.7649 1971.31 29.5149 Q1971.31 35.2267 1968.63 38.994 Q1966 42.7613 1960.94 44.2197 M1940.44 18.8205 L1940.44 40.2903 L1950.73 40.2903 Q1956.64 40.2903 1959.64 37.5762 Q1962.68 34.8216 1962.68 29.5149 Q1962.68 24.2082 1959.64 21.5346 Q1956.64 18.8205 1950.73 18.8205 L1940.44 18.8205 Z" fill="#000000" fill-rule="evenodd" fill-opacity="1" /><path clip-path="url(#clip000)" d="M2008.37 49.7694 Q1999.34 49.7694 1995.86 51.8354 Q1992.37 53.9013 1992.37 58.8839 Q1992.37 62.8538 1994.97 65.2034 Q1997.6 67.5124 2002.1 67.5124 Q2008.29 67.5124 2012.02 63.1374 Q2015.79 58.7219 2015.79 51.4303 L2015.79 49.7694 L2008.37 49.7694 M2023.24 46.6907 L2023.24 72.576 L2015.79 72.576 L2015.79 65.6895 Q2013.24 69.8214 2009.43 71.8063 Q2005.62 73.7508 2000.11 73.7508 Q1993.14 73.7508 1989.01 69.8619 Q1984.92 65.9325 1984.92 59.3701 Q1984.92 51.7138 1990.02 47.825 Q1995.17 43.9361 2005.34 43.9361 L2015.79 43.9361 L2015.79 43.2069 Q2015.79 38.0623 2012.38 35.2672 Q2009.02 32.4315 2002.91 32.4315 Q1999.02 32.4315 1995.33 33.3632 Q1991.64 34.295 1988.24 36.1584 L1988.24 29.2718 Q1992.33 27.692 1996.18 26.9223 Q2000.03 26.1121 2003.68 26.1121 Q2013.52 26.1121 2018.38 31.2163 Q2023.24 36.3204 2023.24 46.6907 Z" fill="#000000" fill-rule="evenodd" fill-opacity="1" /><path clip-path="url(#clip000)" d="M2045.97 14.324 L2045.97 27.2059 L2061.32 27.2059 L2061.32 32.9987 L2045.97 32.9987 L2045.97 57.6282 Q2045.97 63.1779 2047.47 64.7578 Q2049 66.3376 2053.66 66.3376 L2061.32 66.3376 L2061.32 72.576 L2053.66 72.576 Q2045.03 72.576 2041.75 69.3758 Q2038.47 66.1351 2038.47 57.6282 L2038.47 32.9987 L2033 32.9987 L2033 27.2059 L2038.47 27.2059 L2038.47 14.324 L2045.97 14.324 Z" fill="#000000" fill-rule="evenodd" fill-opacity="1" /><path clip-path="url(#clip000)" d="M2109.93 48.0275 L2109.93 51.6733 L2075.66 51.6733 Q2076.15 59.3701 2080.28 63.421 Q2084.45 67.4314 2091.86 67.4314 Q2096.16 67.4314 2100.17 66.3781 Q2104.22 65.3249 2108.19 63.2184 L2108.19 70.267 Q2104.18 71.9684 2099.97 72.8596 Q2095.75 73.7508 2091.42 73.7508 Q2080.56 73.7508 2074.2 67.4314 Q2067.88 61.1119 2067.88 50.3365 Q2067.88 39.1965 2073.88 32.6746 Q2079.91 26.1121 2090.12 26.1121 Q2099.28 26.1121 2104.58 32.0264 Q2109.93 37.9003 2109.93 48.0275 M2102.48 45.84 Q2102.4 39.7232 2099.03 36.0774 Q2095.71 32.4315 2090.2 32.4315 Q2083.96 32.4315 2080.2 35.9558 Q2076.47 39.4801 2075.9 45.8805 L2102.48 45.84 Z" fill="#000000" fill-rule="evenodd" fill-opacity="1" /><polyline clip-path="url(#clip002)" style="stroke:#0000ff; stroke-linecap:round; stroke-linejoin:round; stroke-width:8; stroke-opacity:1; fill:none" points="
  307.313,157.724 363.692,423.286 420.071,609.678 476.45,740.503 532.828,832.325 589.207,896.773 645.586,942.008 701.965,973.757 758.344,996.041 814.723,1011.68 
  871.102,1022.66 927.481,1030.36 983.86,1035.77 1040.24,1039.57 1096.62,1042.23 1153,1044.1 1209.38,1045.41 1265.75,1046.34 1322.13,1046.98 1378.51,1047.44 
  1434.89,776.031 1491.27,587.637 1547.65,456.645 1604.03,365.566 1660.41,302.238 1716.79,258.205 1773.16,227.589 1829.54,206.302 1885.92,191.5 1942.3,181.209 
  1998.68,174.053 2055.06,169.077 2111.44,165.618 2167.82,163.213 2224.2,161.54 2280.57,160.377 2336.95,159.569 2393.33,159.006 2449.71,158.616 2506.09,158.344 
  2562.47,158.155 2618.85,158.023 2675.23,157.932 2731.61,157.868 2787.98,157.824 2844.36,157.794 2900.74,157.772 2957.12,157.757 3013.5,157.747 3069.88,157.74 
  
  "/>
<polyline clip-path="url(#clip002)" style="stroke:#ff0000; stroke-linecap:round; stroke-linejoin:round; stroke-width:8; stroke-opacity:1; fill:none" stroke-dasharray="32, 20" points="
  -2703.88,157.724 6081.08,157.724 
  "/>
<path clip-path="url(#clip000)" d="
M224.436 2274.13 L3152.76 2274.13 L3152.76 1331.03 L224.436 1331.03  Z
  " fill="#d3d3d3" fill-rule="evenodd" fill-opacity="1"/>
<defs>
  <clipPath id="clip003">
    <rect x="224" y="1331" width="2929" height="944"/>
  </clipPath>
</defs>
<polyline clip-path="url(#clip003)" style="stroke:#000000; stroke-linecap:round; stroke-linejoin:round; stroke-width:2; stroke-opacity:0.1; fill:none" points="
  250.934,2274.13 250.934,1331.03 
  "/>
<polyline clip-path="url(#clip003)" style="stroke:#000000; stroke-linecap:round; stroke-linejoin:round; stroke-width:2; stroke-opacity:0.1; fill:none" points="
  814.723,2274.13 814.723,1331.03 
  "/>
<polyline clip-path="url(#clip003)" style="stroke:#000000; stroke-linecap:round; stroke-linejoin:round; stroke-width:2; stroke-opacity:0.1; fill:none" points="
  1378.51,2274.13 1378.51,1331.03 
  "/>
<polyline clip-path="url(#clip003)" style="stroke:#000000; stroke-linecap:round; stroke-linejoin:round; stroke-width:2; stroke-opacity:0.1; fill:none" points="
  1942.3,2274.13 1942.3,1331.03 
  "/>
<polyline clip-path="url(#clip003)" style="stroke:#000000; stroke-linecap:round; stroke-linejoin:round; stroke-width:2; stroke-opacity:0.1; fill:none" points="
  2506.09,2274.13 2506.09,1331.03 
  "/>
<polyline clip-path="url(#clip003)" style="stroke:#000000; stroke-linecap:round; stroke-linejoin:round; stroke-width:2; stroke-opacity:0.1; fill:none" points="
  3069.88,2274.13 3069.88,1331.03 
  "/>
<polyline clip-path="url(#clip000)" style="stroke:#000000; stroke-linecap:round; stroke-linejoin:round; stroke-width:4; stroke-opacity:1; fill:none" points="
  224.436,2274.13 3152.76,2274.13 
  "/>
<polyline clip-path="url(#clip000)" style="stroke:#000000; stroke-linecap:round; stroke-linejoin:round; stroke-width:4; stroke-opacity:1; fill:none" points="
  250.934,2274.13 250.934,2255.23 
  "/>
<polyline clip-path="url(#clip000)" style="stroke:#000000; stroke-linecap:round; stroke-linejoin:round; stroke-width:4; stroke-opacity:1; fill:none" points="
  814.723,2274.13 814.723,2255.23 
  "/>
<polyline clip-path="url(#clip000)" style="stroke:#000000; stroke-linecap:round; stroke-linejoin:round; stroke-width:4; stroke-opacity:1; fill:none" points="
  1378.51,2274.13 1378.51,2255.23 
  "/>
<polyline clip-path="url(#clip000)" style="stroke:#000000; stroke-linecap:round; stroke-linejoin:round; stroke-width:4; stroke-opacity:1; fill:none" points="
  1942.3,2274.13 1942.3,2255.23 
  "/>
<polyline clip-path="url(#clip000)" style="stroke:#000000; stroke-linecap:round; stroke-linejoin:round; stroke-width:4; stroke-opacity:1; fill:none" points="
  2506.09,2274.13 2506.09,2255.23 
  "/>
<polyline clip-path="url(#clip000)" style="stroke:#000000; stroke-linecap:round; stroke-linejoin:round; stroke-width:4; stroke-opacity:1; fill:none" points="
  3069.88,2274.13 3069.88,2255.23 
  "/>
<path clip-path="url(#clip000)" d="M250.934 2311.45 Q247.323 2311.45 245.494 2315.01 Q243.689 2318.55 243.689 2325.68 Q243.689 2332.79 245.494 2336.35 Q247.323 2339.9 250.934 2339.9 Q254.568 2339.9 256.374 2336.35 Q258.202 2332.79 258.202 2325.68 Q258.202 2318.55 256.374 2315.01 Q254.568 2311.45 250.934 2311.45 M250.934 2307.74 Q256.744 2307.74 259.8 2312.35 Q262.878 2316.93 262.878 2325.68 Q262.878 2334.41 259.8 2339.02 Q256.744 2343.6 250.934 2343.6 Q245.124 2343.6 242.045 2339.02 Q238.99 2334.41 238.99 2325.68 Q238.99 2316.93 242.045 2312.35 Q245.124 2307.74 250.934 2307.74 Z" fill="#000000" fill-rule="evenodd" fill-opacity="1" /><path clip-path="url(#clip000)" d="M789.411 2338.99 L797.049 2338.99 L797.049 2312.63 L788.739 2314.29 L788.739 2310.03 L797.003 2308.37 L801.679 2308.37 L801.679 2338.99 L809.318 2338.99 L809.318 2342.93 L789.411 2342.93 L789.411 2338.99 Z" fill="#000000" fill-rule="evenodd" fill-opacity="1" /><path clip-path="url(#clip000)" d="M828.762 2311.45 Q825.151 2311.45 823.322 2315.01 Q821.517 2318.55 821.517 2325.68 Q821.517 2332.79 823.322 2336.35 Q825.151 2339.9 828.762 2339.9 Q832.396 2339.9 834.202 2336.35 Q836.031 2332.79 836.031 2325.68 Q836.031 2318.55 834.202 2315.01 Q832.396 2311.45 828.762 2311.45 M828.762 2307.74 Q834.572 2307.74 837.628 2312.35 Q840.707 2316.93 840.707 2325.68 Q840.707 2334.41 837.628 2339.02 Q834.572 2343.6 828.762 2343.6 Q822.952 2343.6 819.873 2339.02 Q816.818 2334.41 816.818 2325.68 Q816.818 2316.93 819.873 2312.35 Q822.952 2307.74 828.762 2307.74 Z" fill="#000000" fill-rule="evenodd" fill-opacity="1" /><path clip-path="url(#clip000)" d="M1357.29 2338.99 L1373.6 2338.99 L1373.6 2342.93 L1351.66 2342.93 L1351.66 2338.99 Q1354.32 2336.24 1358.91 2331.61 Q1363.51 2326.96 1364.69 2325.61 Q1366.94 2323.09 1367.82 2321.35 Q1368.72 2319.59 1368.72 2317.9 Q1368.72 2315.15 1366.78 2313.41 Q1364.85 2311.68 1361.75 2311.68 Q1359.55 2311.68 1357.1 2312.44 Q1354.67 2313.21 1351.89 2314.76 L1351.89 2310.03 Q1354.72 2308.9 1357.17 2308.32 Q1359.62 2307.74 1361.66 2307.74 Q1367.03 2307.74 1370.22 2310.43 Q1373.42 2313.11 1373.42 2317.6 Q1373.42 2319.73 1372.61 2321.65 Q1371.82 2323.55 1369.72 2326.15 Q1369.14 2326.82 1366.04 2330.03 Q1362.93 2333.23 1357.29 2338.99 Z" fill="#000000" fill-rule="evenodd" fill-opacity="1" /><path clip-path="url(#clip000)" d="M1393.42 2311.45 Q1389.81 2311.45 1387.98 2315.01 Q1386.17 2318.55 1386.17 2325.68 Q1386.17 2332.79 1387.98 2336.35 Q1389.81 2339.9 1393.42 2339.9 Q1397.05 2339.9 1398.86 2336.35 Q1400.69 2332.79 1400.69 2325.68 Q1400.69 2318.55 1398.86 2315.01 Q1397.05 2311.45 1393.42 2311.45 M1393.42 2307.74 Q1399.23 2307.74 1402.28 2312.35 Q1405.36 2316.93 1405.36 2325.68 Q1405.36 2334.41 1402.28 2339.02 Q1399.23 2343.6 1393.42 2343.6 Q1387.61 2343.6 1384.53 2339.02 Q1381.47 2334.41 1381.47 2325.68 Q1381.47 2316.93 1384.53 2312.35 Q1387.61 2307.74 1393.42 2307.74 Z" fill="#000000" fill-rule="evenodd" fill-opacity="1" /><path clip-path="url(#clip000)" d="M1931.14 2324.29 Q1934.5 2325.01 1936.38 2327.28 Q1938.27 2329.55 1938.27 2332.88 Q1938.27 2338 1934.75 2340.8 Q1931.24 2343.6 1924.75 2343.6 Q1922.58 2343.6 1920.26 2343.16 Q1917.97 2342.74 1915.52 2341.89 L1915.52 2337.37 Q1917.46 2338.51 1919.78 2339.09 Q1922.09 2339.66 1924.62 2339.66 Q1929.01 2339.66 1931.31 2337.93 Q1933.62 2336.19 1933.62 2332.88 Q1933.62 2329.83 1931.47 2328.11 Q1929.34 2326.38 1925.52 2326.38 L1921.49 2326.38 L1921.49 2322.53 L1925.7 2322.53 Q1929.15 2322.53 1930.98 2321.17 Q1932.81 2319.78 1932.81 2317.19 Q1932.81 2314.53 1930.91 2313.11 Q1929.04 2311.68 1925.52 2311.68 Q1923.6 2311.68 1921.4 2312.09 Q1919.2 2312.51 1916.56 2313.39 L1916.56 2309.22 Q1919.22 2308.48 1921.54 2308.11 Q1923.88 2307.74 1925.94 2307.74 Q1931.26 2307.74 1934.36 2310.17 Q1937.46 2312.58 1937.46 2316.7 Q1937.46 2319.57 1935.82 2321.56 Q1934.18 2323.53 1931.14 2324.29 Z" fill="#000000" fill-rule="evenodd" fill-opacity="1" /><path clip-path="url(#clip000)" d="M1957.14 2311.45 Q1953.53 2311.45 1951.7 2315.01 Q1949.89 2318.55 1949.89 2325.68 Q1949.89 2332.79 1951.7 2336.35 Q1953.53 2339.9 1957.14 2339.9 Q1960.77 2339.9 1962.58 2336.35 Q1964.41 2332.79 1964.41 2325.68 Q1964.41 2318.55 1962.58 2315.01 Q1960.77 2311.45 1957.14 2311.45 M1957.14 2307.74 Q1962.95 2307.74 1966 2312.35 Q1969.08 2316.93 1969.08 2325.68 Q1969.08 2334.41 1966 2339.02 Q1962.95 2343.6 1957.14 2343.6 Q1951.33 2343.6 1948.25 2339.02 Q1945.19 2334.41 1945.19 2325.68 Q1945.19 2316.93 1948.25 2312.35 Q1951.33 2307.74 1957.14 2307.74 Z" fill="#000000" fill-rule="evenodd" fill-opacity="1" /><path clip-path="url(#clip000)" d="M2494.26 2312.44 L2482.46 2330.89 L2494.26 2330.89 L2494.26 2312.44 M2493.03 2308.37 L2498.91 2308.37 L2498.91 2330.89 L2503.84 2330.89 L2503.84 2334.78 L2498.91 2334.78 L2498.91 2342.93 L2494.26 2342.93 L2494.26 2334.78 L2478.66 2334.78 L2478.66 2330.27 L2493.03 2308.37 Z" fill="#000000" fill-rule="evenodd" fill-opacity="1" /><path clip-path="url(#clip000)" d="M2521.58 2311.45 Q2517.96 2311.45 2516.14 2315.01 Q2514.33 2318.55 2514.33 2325.68 Q2514.33 2332.79 2516.14 2336.35 Q2517.96 2339.9 2521.58 2339.9 Q2525.21 2339.9 2527.02 2336.35 Q2528.84 2332.79 2528.84 2325.68 Q2528.84 2318.55 2527.02 2315.01 Q2525.21 2311.45 2521.58 2311.45 M2521.58 2307.74 Q2527.39 2307.74 2530.44 2312.35 Q2533.52 2316.93 2533.52 2325.68 Q2533.52 2334.41 2530.44 2339.02 Q2527.39 2343.6 2521.58 2343.6 Q2515.77 2343.6 2512.69 2339.02 Q2509.63 2334.41 2509.63 2325.68 Q2509.63 2316.93 2512.69 2312.35 Q2515.77 2307.74 2521.58 2307.74 Z" fill="#000000" fill-rule="evenodd" fill-opacity="1" /><path clip-path="url(#clip000)" d="M3044.58 2308.37 L3062.93 2308.37 L3062.93 2312.3 L3048.86 2312.3 L3048.86 2320.78 Q3049.88 2320.43 3050.9 2320.27 Q3051.92 2320.08 3052.93 2320.08 Q3058.72 2320.08 3062.1 2323.25 Q3065.48 2326.42 3065.48 2331.84 Q3065.48 2337.42 3062.01 2340.52 Q3058.54 2343.6 3052.22 2343.6 Q3050.04 2343.6 3047.77 2343.23 Q3045.53 2342.86 3043.12 2342.12 L3043.12 2337.42 Q3045.2 2338.55 3047.43 2339.11 Q3049.65 2339.66 3052.12 2339.66 Q3056.13 2339.66 3058.47 2337.56 Q3060.8 2335.45 3060.8 2331.84 Q3060.8 2328.23 3058.47 2326.12 Q3056.13 2324.02 3052.12 2324.02 Q3050.25 2324.02 3048.37 2324.43 Q3046.52 2324.85 3044.58 2325.73 L3044.58 2308.37 Z" fill="#000000" fill-rule="evenodd" fill-opacity="1" /><path clip-path="url(#clip000)" d="M3084.69 2311.45 Q3081.08 2311.45 3079.25 2315.01 Q3077.45 2318.55 3077.45 2325.68 Q3077.45 2332.79 3079.25 2336.35 Q3081.08 2339.9 3084.69 2339.9 Q3088.33 2339.9 3090.13 2336.35 Q3091.96 2332.79 3091.96 2325.68 Q3091.96 2318.55 3090.13 2315.01 Q3088.33 2311.45 3084.69 2311.45 M3084.69 2307.74 Q3090.5 2307.74 3093.56 2312.35 Q3096.64 2316.93 3096.64 2325.68 Q3096.64 2334.41 3093.56 2339.02 Q3090.5 2343.6 3084.69 2343.6 Q3078.88 2343.6 3075.8 2339.02 Q3072.75 2334.41 3072.75 2325.68 Q3072.75 2316.93 3075.8 2312.35 Q3078.88 2307.74 3084.69 2307.74 Z" fill="#000000" fill-rule="evenodd" fill-opacity="1" /><polyline clip-path="url(#clip003)" style="stroke:#000000; stroke-linecap:round; stroke-linejoin:round; stroke-width:2; stroke-opacity:0.1; fill:none" points="
  224.436,2165.75 3152.76,2165.75 
  "/>
<polyline clip-path="url(#clip003)" style="stroke:#000000; stroke-linecap:round; stroke-linejoin:round; stroke-width:2; stroke-opacity:0.1; fill:none" points="
  224.436,2012.57 3152.76,2012.57 
  "/>
<polyline clip-path="url(#clip003)" style="stroke:#000000; stroke-linecap:round; stroke-linejoin:round; stroke-width:2; stroke-opacity:0.1; fill:none" points="
  224.436,1859.39 3152.76,1859.39 
  "/>
<polyline clip-path="url(#clip003)" style="stroke:#000000; stroke-linecap:round; stroke-linejoin:round; stroke-width:2; stroke-opacity:0.1; fill:none" points="
  224.436,1706.2 3152.76,1706.2 
  "/>
<polyline clip-path="url(#clip003)" style="stroke:#000000; stroke-linecap:round; stroke-linejoin:round; stroke-width:2; stroke-opacity:0.1; fill:none" points="
  224.436,1553.02 3152.76,1553.02 
  "/>
<polyline clip-path="url(#clip003)" style="stroke:#000000; stroke-linecap:round; stroke-linejoin:round; stroke-width:2; stroke-opacity:0.1; fill:none" points="
  224.436,1399.84 3152.76,1399.84 
  "/>
<polyline clip-path="url(#clip000)" style="stroke:#000000; stroke-linecap:round; stroke-linejoin:round; stroke-width:4; stroke-opacity:1; fill:none" points="
  224.436,2274.13 224.436,1331.03 
  "/>
<polyline clip-path="url(#clip000)" style="stroke:#000000; stroke-linecap:round; stroke-linejoin:round; stroke-width:4; stroke-opacity:1; fill:none" points="
  224.436,2165.75 243.334,2165.75 
  "/>
<polyline clip-path="url(#clip000)" style="stroke:#000000; stroke-linecap:round; stroke-linejoin:round; stroke-width:4; stroke-opacity:1; fill:none" points="
  224.436,2012.57 243.334,2012.57 
  "/>
<polyline clip-path="url(#clip000)" style="stroke:#000000; stroke-linecap:round; stroke-linejoin:round; stroke-width:4; stroke-opacity:1; fill:none" points="
  224.436,1859.39 243.334,1859.39 
  "/>
<polyline clip-path="url(#clip000)" style="stroke:#000000; stroke-linecap:round; stroke-linejoin:round; stroke-width:4; stroke-opacity:1; fill:none" points="
  224.436,1706.2 243.334,1706.2 
  "/>
<polyline clip-path="url(#clip000)" style="stroke:#000000; stroke-linecap:round; stroke-linejoin:round; stroke-width:4; stroke-opacity:1; fill:none" points="
  224.436,1553.02 243.334,1553.02 
  "/>
<polyline clip-path="url(#clip000)" style="stroke:#000000; stroke-linecap:round; stroke-linejoin:round; stroke-width:4; stroke-opacity:1; fill:none" points="
  224.436,1399.84 243.334,1399.84 
  "/>
<path clip-path="url(#clip000)" d="M58.9365 2151.55 Q55.3254 2151.55 53.4967 2155.11 Q51.6912 2158.66 51.6912 2165.79 Q51.6912 2172.89 53.4967 2176.46 Q55.3254 2180 58.9365 2180 Q62.5707 2180 64.3763 2176.46 Q66.205 2172.89 66.205 2165.79 Q66.205 2158.66 64.3763 2155.11 Q62.5707 2151.55 58.9365 2151.55 M58.9365 2147.85 Q64.7467 2147.85 67.8022 2152.45 Q70.8809 2157.04 70.8809 2165.79 Q70.8809 2174.51 67.8022 2179.12 Q64.7467 2183.7 58.9365 2183.7 Q53.1264 2183.7 50.0477 2179.12 Q46.9921 2174.51 46.9921 2165.79 Q46.9921 2157.04 50.0477 2152.45 Q53.1264 2147.85 58.9365 2147.85 Z" fill="#000000" fill-rule="evenodd" fill-opacity="1" /><path clip-path="url(#clip000)" d="M79.0984 2177.15 L83.9827 2177.15 L83.9827 2183.03 L79.0984 2183.03 L79.0984 2177.15 Z" fill="#000000" fill-rule="evenodd" fill-opacity="1" /><path clip-path="url(#clip000)" d="M94.3067 2182.31 L94.3067 2178.05 Q96.0659 2178.89 97.8715 2179.33 Q99.677 2179.77 101.413 2179.77 Q106.043 2179.77 108.473 2176.67 Q110.927 2173.54 111.274 2167.2 Q109.932 2169.19 107.871 2170.25 Q105.811 2171.32 103.311 2171.32 Q98.1261 2171.32 95.0937 2168.19 Q92.0845 2165.05 92.0845 2159.61 Q92.0845 2154.28 95.2326 2151.06 Q98.3807 2147.85 103.612 2147.85 Q109.608 2147.85 112.756 2152.45 Q115.927 2157.04 115.927 2165.79 Q115.927 2173.96 112.038 2178.84 Q108.172 2183.7 101.621 2183.7 Q99.8622 2183.7 98.0567 2183.36 Q96.2511 2183.01 94.3067 2182.31 M103.612 2167.66 Q106.76 2167.66 108.589 2165.51 Q110.441 2163.36 110.441 2159.61 Q110.441 2155.88 108.589 2153.73 Q106.76 2151.55 103.612 2151.55 Q100.464 2151.55 98.6122 2153.73 Q96.7835 2155.88 96.7835 2159.61 Q96.7835 2163.36 98.6122 2165.51 Q100.464 2167.66 103.612 2167.66 Z" fill="#000000" fill-rule="evenodd" fill-opacity="1" /><path clip-path="url(#clip000)" d="M128.357 2179.1 L144.677 2179.1 L144.677 2183.03 L122.732 2183.03 L122.732 2179.1 Q125.394 2176.34 129.978 2171.71 Q134.584 2167.06 135.765 2165.72 Q138.01 2163.19 138.89 2161.46 Q139.793 2159.7 139.793 2158.01 Q139.793 2155.25 137.848 2153.52 Q135.927 2151.78 132.825 2151.78 Q130.626 2151.78 128.172 2152.55 Q125.742 2153.31 122.964 2154.86 L122.964 2150.14 Q125.788 2149 128.242 2148.43 Q130.695 2147.85 132.732 2147.85 Q138.103 2147.85 141.297 2150.53 Q144.492 2153.22 144.492 2157.71 Q144.492 2159.84 143.681 2161.76 Q142.894 2163.66 140.788 2166.25 Q140.209 2166.92 137.107 2170.14 Q134.006 2173.33 128.357 2179.1 Z" fill="#000000" fill-rule="evenodd" fill-opacity="1" /><path clip-path="url(#clip000)" d="M164.491 2151.55 Q160.88 2151.55 159.052 2155.11 Q157.246 2158.66 157.246 2165.79 Q157.246 2172.89 159.052 2176.46 Q160.88 2180 164.491 2180 Q168.126 2180 169.931 2176.46 Q171.76 2172.89 171.76 2165.79 Q171.76 2158.66 169.931 2155.11 Q168.126 2151.55 164.491 2151.55 M164.491 2147.85 Q170.302 2147.85 173.357 2152.45 Q176.436 2157.04 176.436 2165.79 Q176.436 2174.51 173.357 2179.12 Q170.302 2183.7 164.491 2183.7 Q158.681 2183.7 155.603 2179.12 Q152.547 2174.51 152.547 2165.79 Q152.547 2157.04 155.603 2152.45 Q158.681 2147.85 164.491 2147.85 Z" fill="#000000" fill-rule="evenodd" fill-opacity="1" /><path clip-path="url(#clip000)" d="M59.9319 1998.37 Q56.3208 1998.37 54.4921 2001.93 Q52.6865 2005.47 52.6865 2012.6 Q52.6865 2019.71 54.4921 2023.28 Q56.3208 2026.82 59.9319 2026.82 Q63.5661 2026.82 65.3717 2023.28 Q67.2004 2019.71 67.2004 2012.6 Q67.2004 2005.47 65.3717 2001.93 Q63.5661 1998.37 59.9319 1998.37 M59.9319 1994.66 Q65.742 1994.66 68.7976 1999.27 Q71.8763 2003.85 71.8763 2012.6 Q71.8763 2021.33 68.7976 2025.94 Q65.742 2030.52 59.9319 2030.52 Q54.1217 2030.52 51.043 2025.94 Q47.9875 2021.33 47.9875 2012.6 Q47.9875 2003.85 51.043 1999.27 Q54.1217 1994.66 59.9319 1994.66 Z" fill="#000000" fill-rule="evenodd" fill-opacity="1" /><path clip-path="url(#clip000)" d="M80.0938 2023.97 L84.978 2023.97 L84.978 2029.85 L80.0938 2029.85 L80.0938 2023.97 Z" fill="#000000" fill-rule="evenodd" fill-opacity="1" /><path clip-path="url(#clip000)" d="M95.3021 2029.13 L95.3021 2024.87 Q97.0613 2025.71 98.8668 2026.15 Q100.672 2026.59 102.408 2026.59 Q107.038 2026.59 109.469 2023.48 Q111.922 2020.36 112.27 2014.02 Q110.927 2016.01 108.867 2017.07 Q106.807 2018.14 104.307 2018.14 Q99.1215 2018.14 96.0891 2015.01 Q93.0798 2011.86 93.0798 2006.42 Q93.0798 2001.1 96.228 1997.88 Q99.3761 1994.66 104.608 1994.66 Q110.603 1994.66 113.751 1999.27 Q116.922 2003.85 116.922 2012.6 Q116.922 2020.78 113.033 2025.66 Q109.168 2030.52 102.617 2030.52 Q100.858 2030.52 99.052 2030.17 Q97.2465 2029.83 95.3021 2029.13 M104.608 2014.48 Q107.756 2014.48 109.584 2012.33 Q111.436 2010.17 111.436 2006.42 Q111.436 2002.7 109.584 2000.54 Q107.756 1998.37 104.608 1998.37 Q101.459 1998.37 99.6076 2000.54 Q97.7789 2002.7 97.7789 2006.42 Q97.7789 2010.17 99.6076 2012.33 Q101.459 2014.48 104.608 2014.48 Z" fill="#000000" fill-rule="evenodd" fill-opacity="1" /><path clip-path="url(#clip000)" d="M129.353 2025.91 L145.672 2025.91 L145.672 2029.85 L123.728 2029.85 L123.728 2025.91 Q126.39 2023.16 130.973 2018.53 Q135.58 2013.88 136.76 2012.53 Q139.006 2010.01 139.885 2008.28 Q140.788 2006.52 140.788 2004.83 Q140.788 2002.07 138.843 2000.34 Q136.922 1998.6 133.82 1998.6 Q131.621 1998.6 129.168 1999.36 Q126.737 2000.13 123.959 2001.68 L123.959 1996.96 Q126.783 1995.82 129.237 1995.24 Q131.691 1994.66 133.728 1994.66 Q139.098 1994.66 142.293 1997.35 Q145.487 2000.03 145.487 2004.53 Q145.487 2006.65 144.677 2008.58 Q143.89 2010.47 141.783 2013.07 Q141.205 2013.74 138.103 2016.96 Q135.001 2020.15 129.353 2025.91 Z" fill="#000000" fill-rule="evenodd" fill-opacity="1" /><path clip-path="url(#clip000)" d="M155.533 1995.29 L173.89 1995.29 L173.89 1999.22 L159.816 1999.22 L159.816 2007.7 Q160.834 2007.35 161.853 2007.19 Q162.871 2007 163.89 2007 Q169.677 2007 173.056 2010.17 Q176.436 2013.34 176.436 2018.76 Q176.436 2024.34 172.964 2027.44 Q169.491 2030.52 163.172 2030.52 Q160.996 2030.52 158.728 2030.15 Q156.482 2029.78 154.075 2029.04 L154.075 2024.34 Q156.158 2025.47 158.38 2026.03 Q160.603 2026.59 163.079 2026.59 Q167.084 2026.59 169.422 2024.48 Q171.76 2022.37 171.76 2018.76 Q171.76 2015.15 169.422 2013.04 Q167.084 2010.94 163.079 2010.94 Q161.204 2010.94 159.329 2011.35 Q157.478 2011.77 155.533 2012.65 L155.533 1995.29 Z" fill="#000000" fill-rule="evenodd" fill-opacity="1" /><path clip-path="url(#clip000)" d="M58.9365 1845.19 Q55.3254 1845.19 53.4967 1848.75 Q51.6912 1852.29 51.6912 1859.42 Q51.6912 1866.53 53.4967 1870.09 Q55.3254 1873.63 58.9365 1873.63 Q62.5707 1873.63 64.3763 1870.09 Q66.205 1866.53 66.205 1859.42 Q66.205 1852.29 64.3763 1848.75 Q62.5707 1845.19 58.9365 1845.19 M58.9365 1841.48 Q64.7467 1841.48 67.8022 1846.09 Q70.8809 1850.67 70.8809 1859.42 Q70.8809 1868.15 67.8022 1872.75 Q64.7467 1877.34 58.9365 1877.34 Q53.1264 1877.34 50.0477 1872.75 Q46.9921 1868.15 46.9921 1859.42 Q46.9921 1850.67 50.0477 1846.09 Q53.1264 1841.48 58.9365 1841.48 Z" fill="#000000" fill-rule="evenodd" fill-opacity="1" /><path clip-path="url(#clip000)" d="M79.0984 1870.79 L83.9827 1870.79 L83.9827 1876.67 L79.0984 1876.67 L79.0984 1870.79 Z" fill="#000000" fill-rule="evenodd" fill-opacity="1" /><path clip-path="url(#clip000)" d="M94.3067 1875.95 L94.3067 1871.69 Q96.0659 1872.52 97.8715 1872.96 Q99.677 1873.4 101.413 1873.4 Q106.043 1873.4 108.473 1870.3 Q110.927 1867.18 111.274 1860.83 Q109.932 1862.82 107.871 1863.89 Q105.811 1864.95 103.311 1864.95 Q98.1261 1864.95 95.0937 1861.83 Q92.0845 1858.68 92.0845 1853.24 Q92.0845 1847.92 95.2326 1844.7 Q98.3807 1841.48 103.612 1841.48 Q109.608 1841.48 112.756 1846.09 Q115.927 1850.67 115.927 1859.42 Q115.927 1867.59 112.038 1872.48 Q108.172 1877.34 101.621 1877.34 Q99.8622 1877.34 98.0567 1876.99 Q96.2511 1876.64 94.3067 1875.95 M103.612 1861.3 Q106.76 1861.3 108.589 1859.14 Q110.441 1856.99 110.441 1853.24 Q110.441 1849.51 108.589 1847.36 Q106.76 1845.19 103.612 1845.19 Q100.464 1845.19 98.6122 1847.36 Q96.7835 1849.51 96.7835 1853.24 Q96.7835 1856.99 98.6122 1859.14 Q100.464 1861.3 103.612 1861.3 Z" fill="#000000" fill-rule="evenodd" fill-opacity="1" /><path clip-path="url(#clip000)" d="M138.496 1858.03 Q141.853 1858.75 143.728 1861.02 Q145.626 1863.29 145.626 1866.62 Q145.626 1871.74 142.107 1874.54 Q138.589 1877.34 132.107 1877.34 Q129.931 1877.34 127.617 1876.9 Q125.325 1876.48 122.871 1875.63 L122.871 1871.11 Q124.816 1872.25 127.131 1872.82 Q129.445 1873.4 131.969 1873.4 Q136.367 1873.4 138.658 1871.67 Q140.973 1869.93 140.973 1866.62 Q140.973 1863.57 138.82 1861.85 Q136.691 1860.12 132.871 1860.12 L128.844 1860.12 L128.844 1856.27 L133.056 1856.27 Q136.506 1856.27 138.334 1854.91 Q140.163 1853.52 140.163 1850.93 Q140.163 1848.26 138.265 1846.85 Q136.39 1845.42 132.871 1845.42 Q130.95 1845.42 128.751 1845.83 Q126.552 1846.25 123.913 1847.13 L123.913 1842.96 Q126.575 1842.22 128.89 1841.85 Q131.228 1841.48 133.288 1841.48 Q138.612 1841.48 141.714 1843.91 Q144.816 1846.32 144.816 1850.44 Q144.816 1853.31 143.172 1855.3 Q141.529 1857.27 138.496 1858.03 Z" fill="#000000" fill-rule="evenodd" fill-opacity="1" /><path clip-path="url(#clip000)" d="M164.491 1845.19 Q160.88 1845.19 159.052 1848.75 Q157.246 1852.29 157.246 1859.42 Q157.246 1866.53 159.052 1870.09 Q160.88 1873.63 164.491 1873.63 Q168.126 1873.63 169.931 1870.09 Q171.76 1866.53 171.76 1859.42 Q171.76 1852.29 169.931 1848.75 Q168.126 1845.19 164.491 1845.19 M164.491 1841.48 Q170.302 1841.48 173.357 1846.09 Q176.436 1850.67 176.436 1859.42 Q176.436 1868.15 173.357 1872.75 Q170.302 1877.34 164.491 1877.34 Q158.681 1877.34 155.603 1872.75 Q152.547 1868.15 152.547 1859.42 Q152.547 1850.67 155.603 1846.09 Q158.681 1841.48 164.491 1841.48 Z" fill="#000000" fill-rule="evenodd" fill-opacity="1" /><path clip-path="url(#clip000)" d="M59.9319 1692 Q56.3208 1692 54.4921 1695.57 Q52.6865 1699.11 52.6865 1706.24 Q52.6865 1713.35 54.4921 1716.91 Q56.3208 1720.45 59.9319 1720.45 Q63.5661 1720.45 65.3717 1716.91 Q67.2004 1713.35 67.2004 1706.24 Q67.2004 1699.11 65.3717 1695.57 Q63.5661 1692 59.9319 1692 M59.9319 1688.3 Q65.742 1688.3 68.7976 1692.91 Q71.8763 1697.49 71.8763 1706.24 Q71.8763 1714.97 68.7976 1719.57 Q65.742 1724.16 59.9319 1724.16 Q54.1217 1724.16 51.043 1719.57 Q47.9875 1714.97 47.9875 1706.24 Q47.9875 1697.49 51.043 1692.91 Q54.1217 1688.3 59.9319 1688.3 Z" fill="#000000" fill-rule="evenodd" fill-opacity="1" /><path clip-path="url(#clip000)" d="M80.0938 1717.61 L84.978 1717.61 L84.978 1723.48 L80.0938 1723.48 L80.0938 1717.61 Z" fill="#000000" fill-rule="evenodd" fill-opacity="1" /><path clip-path="url(#clip000)" d="M95.3021 1722.77 L95.3021 1718.51 Q97.0613 1719.34 98.8668 1719.78 Q100.672 1720.22 102.408 1720.22 Q107.038 1720.22 109.469 1717.12 Q111.922 1713.99 112.27 1707.65 Q110.927 1709.64 108.867 1710.71 Q106.807 1711.77 104.307 1711.77 Q99.1215 1711.77 96.0891 1708.65 Q93.0798 1705.5 93.0798 1700.06 Q93.0798 1694.73 96.228 1691.52 Q99.3761 1688.3 104.608 1688.3 Q110.603 1688.3 113.751 1692.91 Q116.922 1697.49 116.922 1706.24 Q116.922 1714.41 113.033 1719.29 Q109.168 1724.16 102.617 1724.16 Q100.858 1724.16 99.052 1723.81 Q97.2465 1723.46 95.3021 1722.77 M104.608 1708.11 Q107.756 1708.11 109.584 1705.96 Q111.436 1703.81 111.436 1700.06 Q111.436 1696.33 109.584 1694.18 Q107.756 1692 104.608 1692 Q101.459 1692 99.6076 1694.18 Q97.7789 1696.33 97.7789 1700.06 Q97.7789 1703.81 99.6076 1705.96 Q101.459 1708.11 104.608 1708.11 Z" fill="#000000" fill-rule="evenodd" fill-opacity="1" /><path clip-path="url(#clip000)" d="M139.492 1704.85 Q142.848 1705.57 144.723 1707.84 Q146.621 1710.11 146.621 1713.44 Q146.621 1718.55 143.103 1721.36 Q139.584 1724.16 133.103 1724.16 Q130.927 1724.16 128.612 1723.72 Q126.32 1723.3 123.867 1722.44 L123.867 1717.93 Q125.811 1719.06 128.126 1719.64 Q130.441 1720.22 132.964 1720.22 Q137.362 1720.22 139.654 1718.48 Q141.968 1716.75 141.968 1713.44 Q141.968 1710.38 139.816 1708.67 Q137.686 1706.93 133.867 1706.93 L129.839 1706.93 L129.839 1703.09 L134.052 1703.09 Q137.501 1703.09 139.33 1701.73 Q141.158 1700.34 141.158 1697.74 Q141.158 1695.08 139.26 1693.67 Q137.385 1692.23 133.867 1692.23 Q131.945 1692.23 129.746 1692.65 Q127.547 1693.07 124.908 1693.95 L124.908 1689.78 Q127.57 1689.04 129.885 1688.67 Q132.223 1688.3 134.283 1688.3 Q139.607 1688.3 142.709 1690.73 Q145.811 1693.14 145.811 1697.26 Q145.811 1700.13 144.168 1702.12 Q142.524 1704.09 139.492 1704.85 Z" fill="#000000" fill-rule="evenodd" fill-opacity="1" /><path clip-path="url(#clip000)" d="M155.533 1688.92 L173.89 1688.92 L173.89 1692.86 L159.816 1692.86 L159.816 1701.33 Q160.834 1700.98 161.853 1700.82 Q162.871 1700.64 163.89 1700.64 Q169.677 1700.64 173.056 1703.81 Q176.436 1706.98 176.436 1712.4 Q176.436 1717.98 172.964 1721.08 Q169.491 1724.16 163.172 1724.16 Q160.996 1724.16 158.728 1723.79 Q156.482 1723.42 154.075 1722.67 L154.075 1717.98 Q156.158 1719.11 158.38 1719.67 Q160.603 1720.22 163.079 1720.22 Q167.084 1720.22 169.422 1718.11 Q171.76 1716.01 171.76 1712.4 Q171.76 1708.79 169.422 1706.68 Q167.084 1704.57 163.079 1704.57 Q161.204 1704.57 159.329 1704.99 Q157.478 1705.41 155.533 1706.29 L155.533 1688.92 Z" fill="#000000" fill-rule="evenodd" fill-opacity="1" /><path clip-path="url(#clip000)" d="M58.9365 1538.82 Q55.3254 1538.82 53.4967 1542.39 Q51.6912 1545.93 51.6912 1553.06 Q51.6912 1560.16 53.4967 1563.73 Q55.3254 1567.27 58.9365 1567.27 Q62.5707 1567.27 64.3763 1563.73 Q66.205 1560.16 66.205 1553.06 Q66.205 1545.93 64.3763 1542.39 Q62.5707 1538.82 58.9365 1538.82 M58.9365 1535.12 Q64.7467 1535.12 67.8022 1539.72 Q70.8809 1544.31 70.8809 1553.06 Q70.8809 1561.78 67.8022 1566.39 Q64.7467 1570.97 58.9365 1570.97 Q53.1264 1570.97 50.0477 1566.39 Q46.9921 1561.78 46.9921 1553.06 Q46.9921 1544.31 50.0477 1539.72 Q53.1264 1535.12 58.9365 1535.12 Z" fill="#000000" fill-rule="evenodd" fill-opacity="1" /><path clip-path="url(#clip000)" d="M79.0984 1564.42 L83.9827 1564.42 L83.9827 1570.3 L79.0984 1570.3 L79.0984 1564.42 Z" fill="#000000" fill-rule="evenodd" fill-opacity="1" /><path clip-path="url(#clip000)" d="M94.3067 1569.58 L94.3067 1565.33 Q96.0659 1566.16 97.8715 1566.6 Q99.677 1567.04 101.413 1567.04 Q106.043 1567.04 108.473 1563.94 Q110.927 1560.81 111.274 1554.47 Q109.932 1556.46 107.871 1557.52 Q105.811 1558.59 103.311 1558.59 Q98.1261 1558.59 95.0937 1555.46 Q92.0845 1552.32 92.0845 1546.88 Q92.0845 1541.55 95.2326 1538.33 Q98.3807 1535.12 103.612 1535.12 Q109.608 1535.12 112.756 1539.72 Q115.927 1544.31 115.927 1553.06 Q115.927 1561.23 112.038 1566.11 Q108.172 1570.97 101.621 1570.97 Q99.8622 1570.97 98.0567 1570.63 Q96.2511 1570.28 94.3067 1569.58 M103.612 1554.93 Q106.76 1554.93 108.589 1552.78 Q110.441 1550.63 110.441 1546.88 Q110.441 1543.15 108.589 1541 Q106.76 1538.82 103.612 1538.82 Q100.464 1538.82 98.6122 1541 Q96.7835 1543.15 96.7835 1546.88 Q96.7835 1550.63 98.6122 1552.78 Q100.464 1554.93 103.612 1554.93 Z" fill="#000000" fill-rule="evenodd" fill-opacity="1" /><path clip-path="url(#clip000)" d="M137.177 1539.82 L125.371 1558.27 L137.177 1558.27 L137.177 1539.82 M135.95 1535.74 L141.83 1535.74 L141.83 1558.27 L146.76 1558.27 L146.76 1562.15 L141.83 1562.15 L141.83 1570.3 L137.177 1570.3 L137.177 1562.15 L121.575 1562.15 L121.575 1557.64 L135.95 1535.74 Z" fill="#000000" fill-rule="evenodd" fill-opacity="1" /><path clip-path="url(#clip000)" d="M164.491 1538.82 Q160.88 1538.82 159.052 1542.39 Q157.246 1545.93 157.246 1553.06 Q157.246 1560.16 159.052 1563.73 Q160.88 1567.27 164.491 1567.27 Q168.126 1567.27 169.931 1563.73 Q171.76 1560.16 171.76 1553.06 Q171.76 1545.93 169.931 1542.39 Q168.126 1538.82 164.491 1538.82 M164.491 1535.12 Q170.302 1535.12 173.357 1539.72 Q176.436 1544.31 176.436 1553.06 Q176.436 1561.78 173.357 1566.39 Q170.302 1570.97 164.491 1570.97 Q158.681 1570.97 155.603 1566.39 Q152.547 1561.78 152.547 1553.06 Q152.547 1544.31 155.603 1539.72 Q158.681 1535.12 164.491 1535.12 Z" fill="#000000" fill-rule="evenodd" fill-opacity="1" /><path clip-path="url(#clip000)" d="M59.9319 1385.64 Q56.3208 1385.64 54.4921 1389.2 Q52.6865 1392.75 52.6865 1399.87 Q52.6865 1406.98 54.4921 1410.55 Q56.3208 1414.09 59.9319 1414.09 Q63.5661 1414.09 65.3717 1410.55 Q67.2004 1406.98 67.2004 1399.87 Q67.2004 1392.75 65.3717 1389.2 Q63.5661 1385.64 59.9319 1385.64 M59.9319 1381.94 Q65.742 1381.94 68.7976 1386.54 Q71.8763 1391.12 71.8763 1399.87 Q71.8763 1408.6 68.7976 1413.21 Q65.742 1417.79 59.9319 1417.79 Q54.1217 1417.79 51.043 1413.21 Q47.9875 1408.6 47.9875 1399.87 Q47.9875 1391.12 51.043 1386.54 Q54.1217 1381.94 59.9319 1381.94 Z" fill="#000000" fill-rule="evenodd" fill-opacity="1" /><path clip-path="url(#clip000)" d="M80.0938 1411.24 L84.978 1411.24 L84.978 1417.12 L80.0938 1417.12 L80.0938 1411.24 Z" fill="#000000" fill-rule="evenodd" fill-opacity="1" /><path clip-path="url(#clip000)" d="M95.3021 1416.4 L95.3021 1412.14 Q97.0613 1412.98 98.8668 1413.42 Q100.672 1413.86 102.408 1413.86 Q107.038 1413.86 109.469 1410.75 Q111.922 1407.63 112.27 1401.29 Q110.927 1403.28 108.867 1404.34 Q106.807 1405.41 104.307 1405.41 Q99.1215 1405.41 96.0891 1402.28 Q93.0798 1399.13 93.0798 1393.69 Q93.0798 1388.37 96.228 1385.15 Q99.3761 1381.94 104.608 1381.94 Q110.603 1381.94 113.751 1386.54 Q116.922 1391.12 116.922 1399.87 Q116.922 1408.05 113.033 1412.93 Q109.168 1417.79 102.617 1417.79 Q100.858 1417.79 99.052 1417.44 Q97.2465 1417.1 95.3021 1416.4 M104.608 1401.75 Q107.756 1401.75 109.584 1399.6 Q111.436 1397.44 111.436 1393.69 Q111.436 1389.97 109.584 1387.81 Q107.756 1385.64 104.608 1385.64 Q101.459 1385.64 99.6076 1387.81 Q97.7789 1389.97 97.7789 1393.69 Q97.7789 1397.44 99.6076 1399.6 Q101.459 1401.75 104.608 1401.75 Z" fill="#000000" fill-rule="evenodd" fill-opacity="1" /><path clip-path="url(#clip000)" d="M138.172 1386.63 L126.367 1405.08 L138.172 1405.08 L138.172 1386.63 M136.945 1382.56 L142.825 1382.56 L142.825 1405.08 L147.755 1405.08 L147.755 1408.97 L142.825 1408.97 L142.825 1417.12 L138.172 1417.12 L138.172 1408.97 L122.57 1408.97 L122.57 1404.46 L136.945 1382.56 Z" fill="#000000" fill-rule="evenodd" fill-opacity="1" /><path clip-path="url(#clip000)" d="M155.533 1382.56 L173.89 1382.56 L173.89 1386.5 L159.816 1386.5 L159.816 1394.97 Q160.834 1394.62 161.853 1394.46 Q162.871 1394.27 163.89 1394.27 Q169.677 1394.27 173.056 1397.44 Q176.436 1400.62 176.436 1406.03 Q176.436 1411.61 172.964 1414.71 Q169.491 1417.79 163.172 1417.79 Q160.996 1417.79 158.728 1417.42 Q156.482 1417.05 154.075 1416.31 L154.075 1411.61 Q156.158 1412.75 158.38 1413.3 Q160.603 1413.86 163.079 1413.86 Q167.084 1413.86 169.422 1411.75 Q171.76 1409.64 171.76 1406.03 Q171.76 1402.42 169.422 1400.31 Q167.084 1398.21 163.079 1398.21 Q161.204 1398.21 159.329 1398.62 Q157.478 1399.04 155.533 1399.92 L155.533 1382.56 Z" fill="#000000" fill-rule="evenodd" fill-opacity="1" /><path clip-path="url(#clip000)" d="M1323.69 1212.1 L1361.93 1212.1 L1361.93 1218.98 L1331.87 1218.98 L1331.87 1236.89 L1360.68 1236.89 L1360.68 1243.77 L1331.87 1243.77 L1331.87 1265.69 L1362.66 1265.69 L1362.66 1272.58 L1323.69 1272.58 L1323.69 1212.1 Z" fill="#000000" fill-rule="evenodd" fill-opacity="1" /><path clip-path="url(#clip000)" d="M1411.11 1235.92 Q1413.9 1230.89 1417.79 1228.5 Q1421.68 1226.11 1426.95 1226.11 Q1434.04 1226.11 1437.89 1231.09 Q1441.73 1236.04 1441.73 1245.19 L1441.73 1272.58 L1434.24 1272.58 L1434.24 1245.43 Q1434.24 1238.91 1431.93 1235.75 Q1429.62 1232.59 1424.88 1232.59 Q1419.09 1232.59 1415.73 1236.44 Q1412.36 1240.29 1412.36 1246.93 L1412.36 1272.58 L1404.87 1272.58 L1404.87 1245.43 Q1404.87 1238.87 1402.56 1235.75 Q1400.25 1232.59 1395.43 1232.59 Q1389.72 1232.59 1386.36 1236.48 Q1383 1240.33 1383 1246.93 L1383 1272.58 L1375.5 1272.58 L1375.5 1227.21 L1383 1227.21 L1383 1234.25 Q1385.55 1230.08 1389.11 1228.1 Q1392.68 1226.11 1397.58 1226.11 Q1402.52 1226.11 1405.96 1228.62 Q1409.45 1231.14 1411.11 1235.92 Z" fill="#000000" fill-rule="evenodd" fill-opacity="1" /><path clip-path="url(#clip000)" d="M1463.81 1265.77 L1463.81 1289.83 L1456.32 1289.83 L1456.32 1227.21 L1463.81 1227.21 L1463.81 1234.09 Q1466.16 1230.04 1469.73 1228.1 Q1473.33 1226.11 1478.31 1226.11 Q1486.58 1226.11 1491.72 1232.67 Q1496.91 1239.24 1496.91 1249.93 Q1496.91 1260.63 1491.72 1267.19 Q1486.58 1273.75 1478.31 1273.75 Q1473.33 1273.75 1469.73 1271.81 Q1466.16 1269.82 1463.81 1265.77 M1489.17 1249.93 Q1489.17 1241.71 1485.77 1237.05 Q1482.4 1232.35 1476.49 1232.35 Q1470.58 1232.35 1467.17 1237.05 Q1463.81 1241.71 1463.81 1249.93 Q1463.81 1258.15 1467.17 1262.85 Q1470.58 1267.51 1476.49 1267.51 Q1482.4 1267.51 1485.77 1262.85 Q1489.17 1258.15 1489.17 1249.93 Z" fill="#000000" fill-rule="evenodd" fill-opacity="1" /><path clip-path="url(#clip000)" d="M1509.26 1209.54 L1516.72 1209.54 L1516.72 1272.58 L1509.26 1272.58 L1509.26 1209.54 Z" fill="#000000" fill-rule="evenodd" fill-opacity="1" /><path clip-path="url(#clip000)" d="M1549.89 1232.43 Q1543.9 1232.43 1540.41 1237.13 Q1536.93 1241.79 1536.93 1249.93 Q1536.93 1258.07 1540.37 1262.77 Q1543.86 1267.43 1549.89 1267.43 Q1555.85 1267.43 1559.33 1262.73 Q1562.82 1258.03 1562.82 1249.93 Q1562.82 1241.87 1559.33 1237.17 Q1555.85 1232.43 1549.89 1232.43 M1549.89 1226.11 Q1559.62 1226.11 1565.16 1232.43 Q1570.71 1238.75 1570.71 1249.93 Q1570.71 1261.07 1565.16 1267.43 Q1559.62 1273.75 1549.89 1273.75 Q1540.13 1273.75 1534.58 1267.43 Q1529.07 1261.07 1529.07 1249.93 Q1529.07 1238.75 1534.58 1232.43 Q1540.13 1226.11 1549.89 1226.11 Z" fill="#000000" fill-rule="evenodd" fill-opacity="1" /><path clip-path="url(#clip000)" d="M1601.95 1276.79 Q1598.79 1284.89 1595.79 1287.36 Q1592.79 1289.83 1587.77 1289.83 L1581.81 1289.83 L1581.81 1283.59 L1586.19 1283.59 Q1589.27 1283.59 1590.97 1282.14 Q1592.67 1280.68 1594.74 1275.25 L1596.07 1271.85 L1577.72 1227.21 L1585.62 1227.21 L1599.8 1262.69 L1613.98 1227.21 L1621.88 1227.21 L1601.95 1276.79 Z" fill="#000000" fill-rule="evenodd" fill-opacity="1" /><path clip-path="url(#clip000)" d="M1667.49 1235.92 Q1670.29 1230.89 1674.17 1228.5 Q1678.06 1226.11 1683.33 1226.11 Q1690.42 1226.11 1694.27 1231.09 Q1698.12 1236.04 1698.12 1245.19 L1698.12 1272.58 L1690.62 1272.58 L1690.62 1245.43 Q1690.62 1238.91 1688.31 1235.75 Q1686 1232.59 1681.26 1232.59 Q1675.47 1232.59 1672.11 1236.44 Q1668.75 1240.29 1668.75 1246.93 L1668.75 1272.58 L1661.25 1272.58 L1661.25 1245.43 Q1661.25 1238.87 1658.94 1235.75 Q1656.63 1232.59 1651.81 1232.59 Q1646.1 1232.59 1642.74 1236.48 Q1639.38 1240.33 1639.38 1246.93 L1639.38 1272.58 L1631.88 1272.58 L1631.88 1227.21 L1639.38 1227.21 L1639.38 1234.25 Q1641.93 1230.08 1645.49 1228.1 Q1649.06 1226.11 1653.96 1226.11 Q1658.9 1226.11 1662.35 1228.62 Q1665.83 1231.14 1667.49 1235.92 Z" fill="#000000" fill-rule="evenodd" fill-opacity="1" /><path clip-path="url(#clip000)" d="M1751.79 1248.03 L1751.79 1251.67 L1717.52 1251.67 Q1718.01 1259.37 1722.14 1263.42 Q1726.31 1267.43 1733.72 1267.43 Q1738.02 1267.43 1742.03 1266.38 Q1746.08 1265.32 1750.05 1263.22 L1750.05 1270.27 Q1746.04 1271.97 1741.82 1272.86 Q1737.61 1273.75 1733.28 1273.75 Q1722.42 1273.75 1716.06 1267.43 Q1709.74 1261.11 1709.74 1250.34 Q1709.74 1239.2 1715.74 1232.67 Q1721.77 1226.11 1731.98 1226.11 Q1741.14 1226.11 1746.44 1232.03 Q1751.79 1237.9 1751.79 1248.03 M1744.34 1245.84 Q1744.26 1239.72 1740.89 1236.08 Q1737.57 1232.43 1732.06 1232.43 Q1725.82 1232.43 1722.06 1235.96 Q1718.33 1239.48 1717.76 1245.88 L1744.34 1245.84 Z" fill="#000000" fill-rule="evenodd" fill-opacity="1" /><path clip-path="url(#clip000)" d="M1801.74 1245.19 L1801.74 1272.58 L1794.28 1272.58 L1794.28 1245.43 Q1794.28 1238.99 1791.77 1235.79 Q1789.26 1232.59 1784.24 1232.59 Q1778.2 1232.59 1774.72 1236.44 Q1771.23 1240.29 1771.23 1246.93 L1771.23 1272.58 L1763.74 1272.58 L1763.74 1227.21 L1771.23 1227.21 L1771.23 1234.25 Q1773.91 1230.16 1777.51 1228.14 Q1781.16 1226.11 1785.9 1226.11 Q1793.72 1226.11 1797.73 1230.97 Q1801.74 1235.79 1801.74 1245.19 Z" fill="#000000" fill-rule="evenodd" fill-opacity="1" /><path clip-path="url(#clip000)" d="M1823.98 1214.32 L1823.98 1227.21 L1839.33 1227.21 L1839.33 1233 L1823.98 1233 L1823.98 1257.63 Q1823.98 1263.18 1825.48 1264.76 Q1827.02 1266.34 1831.67 1266.34 L1839.33 1266.34 L1839.33 1272.58 L1831.67 1272.58 Q1823.05 1272.58 1819.76 1269.38 Q1816.48 1266.14 1816.48 1257.63 L1816.48 1233 L1811.01 1233 L1811.01 1227.21 L1816.48 1227.21 L1816.48 1214.32 L1823.98 1214.32 Z" fill="#000000" fill-rule="evenodd" fill-opacity="1" /><path clip-path="url(#clip000)" d="M1904.51 1244.22 Q1907.14 1245.11 1909.61 1248.03 Q1912.12 1250.94 1914.64 1256.05 L1922.94 1272.58 L1914.15 1272.58 L1906.41 1257.06 Q1903.42 1250.98 1900.58 1249 Q1897.78 1247.01 1892.92 1247.01 L1884.01 1247.01 L1884.01 1272.58 L1875.83 1272.58 L1875.83 1212.1 L1894.3 1212.1 Q1904.67 1212.1 1909.78 1216.43 Q1914.88 1220.76 1914.88 1229.51 Q1914.88 1235.23 1912.21 1238.99 Q1909.57 1242.76 1904.51 1244.22 M1884.01 1218.82 L1884.01 1240.29 L1894.3 1240.29 Q1900.22 1240.29 1903.21 1237.58 Q1906.25 1234.82 1906.25 1229.51 Q1906.25 1224.21 1903.21 1221.53 Q1900.22 1218.82 1894.3 1218.82 L1884.01 1218.82 Z" fill="#000000" fill-rule="evenodd" fill-opacity="1" /><path clip-path="url(#clip000)" d="M1951.95 1249.77 Q1942.91 1249.77 1939.43 1251.84 Q1935.94 1253.9 1935.94 1258.88 Q1935.94 1262.85 1938.54 1265.2 Q1941.17 1267.51 1945.67 1267.51 Q1951.86 1267.51 1955.59 1263.14 Q1959.36 1258.72 1959.36 1251.43 L1959.36 1249.77 L1951.95 1249.77 M1966.81 1246.69 L1966.81 1272.58 L1959.36 1272.58 L1959.36 1265.69 Q1956.81 1269.82 1953 1271.81 Q1949.19 1273.75 1943.68 1273.75 Q1936.71 1273.75 1932.58 1269.86 Q1928.49 1265.93 1928.49 1259.37 Q1928.49 1251.71 1933.59 1247.82 Q1938.74 1243.94 1948.91 1243.94 L1959.36 1243.94 L1959.36 1243.21 Q1959.36 1238.06 1955.96 1235.27 Q1952.59 1232.43 1946.48 1232.43 Q1942.59 1232.43 1938.9 1233.36 Q1935.21 1234.29 1931.81 1236.16 L1931.81 1229.27 Q1935.9 1227.69 1939.75 1226.92 Q1943.6 1226.11 1947.25 1226.11 Q1957.09 1226.11 1961.95 1231.22 Q1966.81 1236.32 1966.81 1246.69 Z" fill="#000000" fill-rule="evenodd" fill-opacity="1" /><path clip-path="url(#clip000)" d="M1989.54 1214.32 L1989.54 1227.21 L2004.89 1227.21 L2004.89 1233 L1989.54 1233 L1989.54 1257.63 Q1989.54 1263.18 1991.04 1264.76 Q1992.58 1266.34 1997.23 1266.34 L2004.89 1266.34 L2004.89 1272.58 L1997.23 1272.58 Q1988.61 1272.58 1985.32 1269.38 Q1982.04 1266.14 1982.04 1257.63 L1982.04 1233 L1976.57 1233 L1976.57 1227.21 L1982.04 1227.21 L1982.04 1214.32 L1989.54 1214.32 Z" fill="#000000" fill-rule="evenodd" fill-opacity="1" /><path clip-path="url(#clip000)" d="M2053.5 1248.03 L2053.5 1251.67 L2019.23 1251.67 Q2019.72 1259.37 2023.85 1263.42 Q2028.02 1267.43 2035.43 1267.43 Q2039.73 1267.43 2043.74 1266.38 Q2047.79 1265.32 2051.76 1263.22 L2051.76 1270.27 Q2047.75 1271.97 2043.54 1272.86 Q2039.32 1273.75 2034.99 1273.75 Q2024.13 1273.75 2017.77 1267.43 Q2011.45 1261.11 2011.45 1250.34 Q2011.45 1239.2 2017.45 1232.67 Q2023.48 1226.11 2033.69 1226.11 Q2042.85 1226.11 2048.15 1232.03 Q2053.5 1237.9 2053.5 1248.03 M2046.05 1245.84 Q2045.97 1239.72 2042.6 1236.08 Q2039.28 1232.43 2033.77 1232.43 Q2027.54 1232.43 2023.77 1235.96 Q2020.04 1239.48 2019.47 1245.88 L2046.05 1245.84 Z" fill="#000000" fill-rule="evenodd" fill-opacity="1" /><polyline clip-path="url(#clip003)" style="stroke:#0000ff; stroke-linecap:round; stroke-linejoin:round; stroke-width:8; stroke-opacity:1; fill:none" points="
  307.313,2247.44 363.692,1981.87 420.071,1795.48 476.45,1664.66 532.828,1572.83 589.207,1508.39 645.586,1463.15 701.965,1431.4 758.344,1409.12 814.723,1393.48 
  871.102,1382.5 927.481,1374.8 983.86,1369.39 1040.24,1365.59 1096.62,1362.93 1153,1361.06 1209.38,1359.75 1265.75,1358.82 1322.13,1358.18 1378.51,1357.72 
  1434.89,1629.13 1491.27,1817.52 1547.65,1948.51 1604.03,2039.59 1660.41,2102.92 1716.79,2146.95 1773.16,2177.57 1829.54,2198.86 1885.92,2213.66 1942.3,2223.95 
  1998.68,2231.11 2055.06,2236.08 2111.44,2239.54 2167.82,2241.95 2224.2,2243.62 2280.57,2244.78 2336.95,2245.59 2393.33,2246.15 2449.71,2246.54 2506.09,2246.82 
  2562.47,2247.01 2618.85,2247.14 2675.23,2247.23 2731.61,2247.29 2787.98,2247.34 2844.36,2247.37 2900.74,2247.39 2957.12,2247.4 3013.5,2247.41 3069.88,2247.42 
  
  "/>
<polyline clip-path="url(#clip003)" style="stroke:#ff0000; stroke-linecap:round; stroke-linejoin:round; stroke-width:8; stroke-opacity:1; fill:none" stroke-dasharray="32, 20" points="
  -2703.88,2247.44 6081.08,2247.44 
  "/>
</svg>
