<?xml version="1.0" encoding="utf-8"?>
<svg xmlns="http://www.w3.org/2000/svg" xmlns:xlink="http://www.w3.org/1999/xlink" width="800" height="700" viewBox="0 0 3200 2800">
<defs>
  <clipPath id="clip480">
    <rect x="0" y="0" width="3200" height="2800"/>
  </clipPath>
</defs>
<path clip-path="url(#clip480)" d="
M0 2800 L3200 2800 L3200 0 L0 0  Z
  " fill="#ffffff" fill-rule="evenodd" fill-opacity="1"/>
<defs>
  <clipPath id="clip481">
    <rect x="640" y="0" width="2241" height="2241"/>
  </clipPath>
</defs>
<path clip-path="url(#clip480)" d="
M177.121 1263.65 L1543.69 1263.65 L1543.69 142.372 L177.121 142.372  Z
  " fill="#ffffff" fill-rule="evenodd" fill-opacity="1"/>
<defs>
  <clipPath id="clip482">
    <rect x="177" y="142" width="1368" height="1122"/>
  </clipPath>
</defs>
<polyline clip-path="url(#clip482)" style="stroke:#000000; stroke-linecap:butt; stroke-linejoin:round; stroke-width:2; stroke-opacity:0.1; fill:none" points="
  406.793,1263.65 406.793,142.372 
  "/>
<polyline clip-path="url(#clip482)" style="stroke:#000000; stroke-linecap:butt; stroke-linejoin:round; stroke-width:2; stroke-opacity:0.1; fill:none" points="
  645.538,1263.65 645.538,142.372 
  "/>
<polyline clip-path="url(#clip482)" style="stroke:#000000; stroke-linecap:butt; stroke-linejoin:round; stroke-width:2; stroke-opacity:0.1; fill:none" points="
  884.282,1263.65 884.282,142.372 
  "/>
<polyline clip-path="url(#clip482)" style="stroke:#000000; stroke-linecap:butt; stroke-linejoin:round; stroke-width:2; stroke-opacity:0.1; fill:none" points="
  1123.03,1263.65 1123.03,142.372 
  "/>
<polyline clip-path="url(#clip482)" style="stroke:#000000; stroke-linecap:butt; stroke-linejoin:round; stroke-width:2; stroke-opacity:0.1; fill:none" points="
  1361.77,1263.65 1361.77,142.372 
  "/>
<polyline clip-path="url(#clip480)" style="stroke:#000000; stroke-linecap:butt; stroke-linejoin:round; stroke-width:4; stroke-opacity:1; fill:none" points="
  177.121,1263.65 1543.69,1263.65 
  "/>
<polyline clip-path="url(#clip480)" style="stroke:#000000; stroke-linecap:butt; stroke-linejoin:round; stroke-width:4; stroke-opacity:1; fill:none" points="
  406.793,1263.65 406.793,1244.75 
  "/>
<polyline clip-path="url(#clip480)" style="stroke:#000000; stroke-linecap:butt; stroke-linejoin:round; stroke-width:4; stroke-opacity:1; fill:none" points="
  645.538,1263.65 645.538,1244.75 
  "/>
<polyline clip-path="url(#clip480)" style="stroke:#000000; stroke-linecap:butt; stroke-linejoin:round; stroke-width:4; stroke-opacity:1; fill:none" points="
  884.282,1263.65 884.282,1244.75 
  "/>
<polyline clip-path="url(#clip480)" style="stroke:#000000; stroke-linecap:butt; stroke-linejoin:round; stroke-width:4; stroke-opacity:1; fill:none" points="
  1123.03,1263.65 1123.03,1244.75 
  "/>
<polyline clip-path="url(#clip480)" style="stroke:#000000; stroke-linecap:butt; stroke-linejoin:round; stroke-width:4; stroke-opacity:1; fill:none" points="
  1361.77,1263.65 1361.77,1244.75 
  "/>
<path clip-path="url(#clip480)" d="M386.064 1326.78 L402.384 1326.78 L402.384 1330.72 L380.439 1330.72 L380.439 1326.78 Q383.101 1324.03 387.685 1319.4 Q392.291 1314.75 393.472 1313.41 Q395.717 1310.88 396.597 1309.15 Q397.499 1307.39 397.499 1305.7 Q397.499 1302.94 395.555 1301.21 Q393.634 1299.47 390.532 1299.47 Q388.333 1299.47 385.879 1300.23 Q383.449 1301 380.671 1302.55 L380.671 1297.83 Q383.495 1296.69 385.948 1296.11 Q388.402 1295.53 390.439 1295.53 Q395.81 1295.53 399.004 1298.22 Q402.198 1300.91 402.198 1305.4 Q402.198 1307.53 401.388 1309.45 Q400.601 1311.34 398.495 1313.94 Q397.916 1314.61 394.814 1317.83 Q391.712 1321.02 386.064 1326.78 Z" fill="#000000" fill-rule="evenodd" fill-opacity="1" /><path clip-path="url(#clip480)" d="M412.245 1296.16 L430.601 1296.16 L430.601 1300.1 L416.527 1300.1 L416.527 1308.57 Q417.546 1308.22 418.564 1308.06 Q419.583 1307.87 420.601 1307.87 Q426.388 1307.87 429.768 1311.04 Q433.147 1314.22 433.147 1319.63 Q433.147 1325.21 429.675 1328.31 Q426.203 1331.39 419.884 1331.39 Q417.708 1331.39 415.439 1331.02 Q413.194 1330.65 410.786 1329.91 L410.786 1325.21 Q412.87 1326.34 415.092 1326.9 Q417.314 1327.46 419.791 1327.46 Q423.796 1327.46 426.133 1325.35 Q428.471 1323.24 428.471 1319.63 Q428.471 1316.02 426.133 1313.91 Q423.796 1311.81 419.791 1311.81 Q417.916 1311.81 416.041 1312.22 Q414.189 1312.64 412.245 1313.52 L412.245 1296.16 Z" fill="#000000" fill-rule="evenodd" fill-opacity="1" /><path clip-path="url(#clip480)" d="M620.237 1296.16 L638.593 1296.16 L638.593 1300.1 L624.519 1300.1 L624.519 1308.57 Q625.538 1308.22 626.556 1308.06 Q627.575 1307.87 628.593 1307.87 Q634.38 1307.87 637.76 1311.04 Q641.139 1314.22 641.139 1319.63 Q641.139 1325.21 637.667 1328.31 Q634.195 1331.39 627.876 1331.39 Q625.7 1331.39 623.431 1331.02 Q621.186 1330.65 618.778 1329.91 L618.778 1325.21 Q620.862 1326.34 623.084 1326.9 Q625.306 1327.46 627.783 1327.46 Q631.788 1327.46 634.126 1325.35 Q636.464 1323.24 636.464 1319.63 Q636.464 1316.02 634.126 1313.91 Q631.788 1311.81 627.783 1311.81 Q625.908 1311.81 624.033 1312.22 Q622.181 1312.64 620.237 1313.52 L620.237 1296.16 Z" fill="#000000" fill-rule="evenodd" fill-opacity="1" /><path clip-path="url(#clip480)" d="M660.352 1299.24 Q656.741 1299.24 654.913 1302.8 Q653.107 1306.35 653.107 1313.47 Q653.107 1320.58 654.913 1324.15 Q656.741 1327.69 660.352 1327.69 Q663.987 1327.69 665.792 1324.15 Q667.621 1320.58 667.621 1313.47 Q667.621 1306.35 665.792 1302.8 Q663.987 1299.24 660.352 1299.24 M660.352 1295.53 Q666.162 1295.53 669.218 1300.14 Q672.297 1304.72 672.297 1313.47 Q672.297 1322.2 669.218 1326.81 Q666.162 1331.39 660.352 1331.39 Q654.542 1331.39 651.463 1326.81 Q648.408 1322.2 648.408 1313.47 Q648.408 1304.72 651.463 1300.14 Q654.542 1295.53 660.352 1295.53 Z" fill="#000000" fill-rule="evenodd" fill-opacity="1" /><path clip-path="url(#clip480)" d="M858.136 1296.16 L880.358 1296.16 L880.358 1298.15 L867.812 1330.72 L862.928 1330.72 L874.733 1300.1 L858.136 1300.1 L858.136 1296.16 Z" fill="#000000" fill-rule="evenodd" fill-opacity="1" /><path clip-path="url(#clip480)" d="M889.525 1296.16 L907.881 1296.16 L907.881 1300.1 L893.807 1300.1 L893.807 1308.57 Q894.826 1308.22 895.844 1308.06 Q896.863 1307.87 897.881 1307.87 Q903.668 1307.87 907.048 1311.04 Q910.428 1314.22 910.428 1319.63 Q910.428 1325.21 906.955 1328.31 Q903.483 1331.39 897.164 1331.39 Q894.988 1331.39 892.719 1331.02 Q890.474 1330.65 888.067 1329.91 L888.067 1325.21 Q890.15 1326.34 892.372 1326.9 Q894.594 1327.46 897.071 1327.46 Q901.076 1327.46 903.414 1325.35 Q905.752 1323.24 905.752 1319.63 Q905.752 1316.02 903.414 1313.91 Q901.076 1311.81 897.071 1311.81 Q895.196 1311.81 893.321 1312.22 Q891.469 1312.64 889.525 1313.52 L889.525 1296.16 Z" fill="#000000" fill-rule="evenodd" fill-opacity="1" /><path clip-path="url(#clip480)" d="M1082.63 1326.78 L1090.27 1326.78 L1090.27 1300.42 L1081.96 1302.09 L1081.96 1297.83 L1090.23 1296.16 L1094.9 1296.16 L1094.9 1326.78 L1102.54 1326.78 L1102.54 1330.72 L1082.63 1330.72 L1082.63 1326.78 Z" fill="#000000" fill-rule="evenodd" fill-opacity="1" /><path clip-path="url(#clip480)" d="M1121.98 1299.24 Q1118.37 1299.24 1116.54 1302.8 Q1114.74 1306.35 1114.74 1313.47 Q1114.74 1320.58 1116.54 1324.15 Q1118.37 1327.69 1121.98 1327.69 Q1125.62 1327.69 1127.42 1324.15 Q1129.25 1320.58 1129.25 1313.47 Q1129.25 1306.35 1127.42 1302.8 Q1125.62 1299.24 1121.98 1299.24 M1121.98 1295.53 Q1127.79 1295.53 1130.85 1300.14 Q1133.93 1304.72 1133.93 1313.47 Q1133.93 1322.2 1130.85 1326.81 Q1127.79 1331.39 1121.98 1331.39 Q1116.17 1331.39 1113.1 1326.81 Q1110.04 1322.2 1110.04 1313.47 Q1110.04 1304.72 1113.1 1300.14 Q1116.17 1295.53 1121.98 1295.53 Z" fill="#000000" fill-rule="evenodd" fill-opacity="1" /><path clip-path="url(#clip480)" d="M1152.15 1299.24 Q1148.54 1299.24 1146.71 1302.8 Q1144.9 1306.35 1144.9 1313.47 Q1144.9 1320.58 1146.71 1324.15 Q1148.54 1327.69 1152.15 1327.69 Q1155.78 1327.69 1157.59 1324.15 Q1159.41 1320.58 1159.41 1313.47 Q1159.41 1306.35 1157.59 1302.8 Q1155.78 1299.24 1152.15 1299.24 M1152.15 1295.53 Q1157.96 1295.53 1161.01 1300.14 Q1164.09 1304.72 1164.09 1313.47 Q1164.09 1322.2 1161.01 1326.81 Q1157.96 1331.39 1152.15 1331.39 Q1146.34 1331.39 1143.26 1326.81 Q1140.2 1322.2 1140.2 1313.47 Q1140.2 1304.72 1143.26 1300.14 Q1146.34 1295.53 1152.15 1295.53 Z" fill="#000000" fill-rule="evenodd" fill-opacity="1" /><path clip-path="url(#clip480)" d="M1321.87 1326.78 L1329.51 1326.78 L1329.51 1300.42 L1321.2 1302.09 L1321.2 1297.83 L1329.47 1296.16 L1334.14 1296.16 L1334.14 1326.78 L1341.78 1326.78 L1341.78 1330.72 L1321.87 1330.72 L1321.87 1326.78 Z" fill="#000000" fill-rule="evenodd" fill-opacity="1" /><path clip-path="url(#clip480)" d="M1355.25 1326.78 L1371.57 1326.78 L1371.57 1330.72 L1349.63 1330.72 L1349.63 1326.78 Q1352.29 1324.03 1356.87 1319.4 Q1361.48 1314.75 1362.66 1313.41 Q1364.91 1310.88 1365.79 1309.15 Q1366.69 1307.39 1366.69 1305.7 Q1366.69 1302.94 1364.74 1301.21 Q1362.82 1299.47 1359.72 1299.47 Q1357.52 1299.47 1355.07 1300.23 Q1352.64 1301 1349.86 1302.55 L1349.86 1297.83 Q1352.68 1296.69 1355.14 1296.11 Q1357.59 1295.53 1359.63 1295.53 Q1365 1295.53 1368.19 1298.22 Q1371.39 1300.91 1371.39 1305.4 Q1371.39 1307.53 1370.58 1309.45 Q1369.79 1311.34 1367.68 1313.94 Q1367.11 1314.61 1364 1317.83 Q1360.9 1321.02 1355.25 1326.78 Z" fill="#000000" fill-rule="evenodd" fill-opacity="1" /><path clip-path="url(#clip480)" d="M1381.43 1296.16 L1399.79 1296.16 L1399.79 1300.1 L1385.72 1300.1 L1385.72 1308.57 Q1386.74 1308.22 1387.75 1308.06 Q1388.77 1307.87 1389.79 1307.87 Q1395.58 1307.87 1398.96 1311.04 Q1402.34 1314.22 1402.34 1319.63 Q1402.34 1325.21 1398.87 1328.31 Q1395.39 1331.39 1389.07 1331.39 Q1386.9 1331.39 1384.63 1331.02 Q1382.38 1330.65 1379.98 1329.91 L1379.98 1325.21 Q1382.06 1326.34 1384.28 1326.9 Q1386.5 1327.46 1388.98 1327.46 Q1392.99 1327.46 1395.32 1325.35 Q1397.66 1323.24 1397.66 1319.63 Q1397.66 1316.02 1395.32 1313.91 Q1392.99 1311.81 1388.98 1311.81 Q1387.11 1311.81 1385.23 1312.22 Q1383.38 1312.64 1381.43 1313.52 L1381.43 1296.16 Z" fill="#000000" fill-rule="evenodd" fill-opacity="1" /><polyline clip-path="url(#clip482)" style="stroke:#000000; stroke-linecap:butt; stroke-linejoin:round; stroke-width:2; stroke-opacity:0.1; fill:none" points="
  177.121,1092.78 1543.69,1092.78 
  "/>
<polyline clip-path="url(#clip482)" style="stroke:#000000; stroke-linecap:butt; stroke-linejoin:round; stroke-width:2; stroke-opacity:0.1; fill:none" points="
  177.121,810.209 1543.69,810.209 
  "/>
<polyline clip-path="url(#clip482)" style="stroke:#000000; stroke-linecap:butt; stroke-linejoin:round; stroke-width:2; stroke-opacity:0.1; fill:none" points="
  177.121,527.641 1543.69,527.641 
  "/>
<polyline clip-path="url(#clip482)" style="stroke:#000000; stroke-linecap:butt; stroke-linejoin:round; stroke-width:2; stroke-opacity:0.1; fill:none" points="
  177.121,245.072 1543.69,245.072 
  "/>
<polyline clip-path="url(#clip480)" style="stroke:#000000; stroke-linecap:butt; stroke-linejoin:round; stroke-width:4; stroke-opacity:1; fill:none" points="
  177.121,1263.65 177.121,142.372 
  "/>
<polyline clip-path="url(#clip480)" style="stroke:#000000; stroke-linecap:butt; stroke-linejoin:round; stroke-width:4; stroke-opacity:1; fill:none" points="
  177.121,1092.78 196.019,1092.78 
  "/>
<polyline clip-path="url(#clip480)" style="stroke:#000000; stroke-linecap:butt; stroke-linejoin:round; stroke-width:4; stroke-opacity:1; fill:none" points="
  177.121,810.209 196.019,810.209 
  "/>
<polyline clip-path="url(#clip480)" style="stroke:#000000; stroke-linecap:butt; stroke-linejoin:round; stroke-width:4; stroke-opacity:1; fill:none" points="
  177.121,527.641 196.019,527.641 
  "/>
<polyline clip-path="url(#clip480)" style="stroke:#000000; stroke-linecap:butt; stroke-linejoin:round; stroke-width:4; stroke-opacity:1; fill:none" points="
  177.121,245.072 196.019,245.072 
  "/>
<path clip-path="url(#clip480)" d="M73.5429 1078.58 Q69.9318 1078.58 68.1031 1082.14 Q66.2976 1085.68 66.2976 1092.81 Q66.2976 1099.92 68.1031 1103.48 Q69.9318 1107.03 73.5429 1107.03 Q77.1771 1107.03 78.9827 1103.48 Q80.8114 1099.92 80.8114 1092.81 Q80.8114 1085.68 78.9827 1082.14 Q77.1771 1078.58 73.5429 1078.58 M73.5429 1074.87 Q79.3531 1074.87 82.4086 1079.48 Q85.4873 1084.06 85.4873 1092.81 Q85.4873 1101.54 82.4086 1106.15 Q79.3531 1110.73 73.5429 1110.73 Q67.7328 1110.73 64.6541 1106.15 Q61.5985 1101.54 61.5985 1092.81 Q61.5985 1084.06 64.6541 1079.48 Q67.7328 1074.87 73.5429 1074.87 Z" fill="#000000" fill-rule="evenodd" fill-opacity="1" /><path clip-path="url(#clip480)" d="M93.7048 1104.18 L98.5891 1104.18 L98.5891 1110.06 L93.7048 1110.06 L93.7048 1104.18 Z" fill="#000000" fill-rule="evenodd" fill-opacity="1" /><path clip-path="url(#clip480)" d="M112.802 1106.12 L129.121 1106.12 L129.121 1110.06 L107.177 1110.06 L107.177 1106.12 Q109.839 1103.37 114.422 1098.74 Q119.029 1094.09 120.209 1092.74 Q122.455 1090.22 123.334 1088.48 Q124.237 1086.72 124.237 1085.03 Q124.237 1082.28 122.293 1080.54 Q120.371 1078.81 117.27 1078.81 Q115.07 1078.81 112.617 1079.57 Q110.186 1080.34 107.408 1081.89 L107.408 1077.16 Q110.233 1076.03 112.686 1075.45 Q115.14 1074.87 117.177 1074.87 Q122.547 1074.87 125.742 1077.56 Q128.936 1080.24 128.936 1084.73 Q128.936 1086.86 128.126 1088.78 Q127.339 1090.68 125.232 1093.28 Q124.654 1093.95 121.552 1097.16 Q118.45 1100.36 112.802 1106.12 Z" fill="#000000" fill-rule="evenodd" fill-opacity="1" /><path clip-path="url(#clip480)" d="M71.4596 796.008 Q67.8485 796.008 66.0198 799.573 Q64.2143 803.114 64.2143 810.244 Q64.2143 817.35 66.0198 820.915 Q67.8485 824.457 71.4596 824.457 Q75.0938 824.457 76.8994 820.915 Q78.7281 817.35 78.7281 810.244 Q78.7281 803.114 76.8994 799.573 Q75.0938 796.008 71.4596 796.008 M71.4596 792.304 Q77.2697 792.304 80.3253 796.911 Q83.404 801.494 83.404 810.244 Q83.404 818.971 80.3253 823.577 Q77.2697 828.16 71.4596 828.16 Q65.6494 828.16 62.5707 823.577 Q59.5152 818.971 59.5152 810.244 Q59.5152 801.494 62.5707 796.911 Q65.6494 792.304 71.4596 792.304 Z" fill="#000000" fill-rule="evenodd" fill-opacity="1" /><path clip-path="url(#clip480)" d="M91.6215 821.61 L96.5057 821.61 L96.5057 827.489 L91.6215 827.489 L91.6215 821.61 Z" fill="#000000" fill-rule="evenodd" fill-opacity="1" /><path clip-path="url(#clip480)" d="M119.538 797.003 L107.733 815.452 L119.538 815.452 L119.538 797.003 M118.311 792.929 L124.191 792.929 L124.191 815.452 L129.121 815.452 L129.121 819.341 L124.191 819.341 L124.191 827.489 L119.538 827.489 L119.538 819.341 L103.936 819.341 L103.936 814.827 L118.311 792.929 Z" fill="#000000" fill-rule="evenodd" fill-opacity="1" /><path clip-path="url(#clip480)" d="M71.7837 513.439 Q68.1726 513.439 66.3439 517.004 Q64.5383 520.546 64.5383 527.675 Q64.5383 534.782 66.3439 538.347 Q68.1726 541.888 71.7837 541.888 Q75.4179 541.888 77.2234 538.347 Q79.0521 534.782 79.0521 527.675 Q79.0521 520.546 77.2234 517.004 Q75.4179 513.439 71.7837 513.439 M71.7837 509.736 Q77.5938 509.736 80.6494 514.342 Q83.728 518.926 83.728 527.675 Q83.728 536.402 80.6494 541.009 Q77.5938 545.592 71.7837 545.592 Q65.9735 545.592 62.8948 541.009 Q59.8393 536.402 59.8393 527.675 Q59.8393 518.926 62.8948 514.342 Q65.9735 509.736 71.7837 509.736 Z" fill="#000000" fill-rule="evenodd" fill-opacity="1" /><path clip-path="url(#clip480)" d="M91.9456 539.041 L96.8298 539.041 L96.8298 544.921 L91.9456 544.921 L91.9456 539.041 Z" fill="#000000" fill-rule="evenodd" fill-opacity="1" /><path clip-path="url(#clip480)" d="M117.594 525.777 Q114.445 525.777 112.594 527.93 Q110.765 530.083 110.765 533.833 Q110.765 537.56 112.594 539.736 Q114.445 541.888 117.594 541.888 Q120.742 541.888 122.57 539.736 Q124.422 537.56 124.422 533.833 Q124.422 530.083 122.57 527.93 Q120.742 525.777 117.594 525.777 M126.876 511.125 L126.876 515.384 Q125.117 514.551 123.311 514.111 Q121.529 513.671 119.77 513.671 Q115.14 513.671 112.686 516.796 Q110.256 519.921 109.908 526.24 Q111.274 524.226 113.334 523.162 Q115.395 522.074 117.871 522.074 Q123.08 522.074 126.089 525.245 Q129.121 528.393 129.121 533.833 Q129.121 539.157 125.973 542.374 Q122.825 545.592 117.594 545.592 Q111.598 545.592 108.427 541.009 Q105.256 536.402 105.256 527.675 Q105.256 519.481 109.145 514.62 Q113.033 509.736 119.584 509.736 Q121.344 509.736 123.126 510.083 Q124.932 510.43 126.876 511.125 Z" fill="#000000" fill-rule="evenodd" fill-opacity="1" /><path clip-path="url(#clip480)" d="M72.0383 230.871 Q68.4272 230.871 66.5985 234.436 Q64.793 237.977 64.793 245.107 Q64.793 252.213 66.5985 255.778 Q68.4272 259.32 72.0383 259.32 Q75.6725 259.32 77.4781 255.778 Q79.3068 252.213 79.3068 245.107 Q79.3068 237.977 77.4781 234.436 Q75.6725 230.871 72.0383 230.871 M72.0383 227.167 Q77.8484 227.167 80.904 231.774 Q83.9827 236.357 83.9827 245.107 Q83.9827 253.834 80.904 258.44 Q77.8484 263.024 72.0383 263.024 Q66.2281 263.024 63.1494 258.44 Q60.0939 253.834 60.0939 245.107 Q60.0939 236.357 63.1494 231.774 Q66.2281 227.167 72.0383 227.167 Z" fill="#000000" fill-rule="evenodd" fill-opacity="1" /><path clip-path="url(#clip480)" d="M92.2002 256.473 L97.0845 256.473 L97.0845 262.352 L92.2002 262.352 L92.2002 256.473 Z" fill="#000000" fill-rule="evenodd" fill-opacity="1" /><path clip-path="url(#clip480)" d="M117.27 245.94 Q113.936 245.94 112.015 247.723 Q110.117 249.505 110.117 252.63 Q110.117 255.755 112.015 257.537 Q113.936 259.32 117.27 259.32 Q120.603 259.32 122.524 257.537 Q124.445 255.732 124.445 252.63 Q124.445 249.505 122.524 247.723 Q120.626 245.94 117.27 245.94 M112.594 243.95 Q109.584 243.209 107.895 241.149 Q106.228 239.089 106.228 236.126 Q106.228 231.982 109.168 229.575 Q112.131 227.167 117.27 227.167 Q122.432 227.167 125.371 229.575 Q128.311 231.982 128.311 236.126 Q128.311 239.089 126.621 241.149 Q124.955 243.209 121.969 243.95 Q125.348 244.737 127.223 247.028 Q129.121 249.32 129.121 252.63 Q129.121 257.653 126.043 260.338 Q122.987 263.024 117.27 263.024 Q111.552 263.024 108.473 260.338 Q105.418 257.653 105.418 252.63 Q105.418 249.32 107.316 247.028 Q109.214 244.737 112.594 243.95 M110.881 236.565 Q110.881 239.251 112.547 240.755 Q114.237 242.26 117.27 242.26 Q120.279 242.26 121.969 240.755 Q123.682 239.251 123.682 236.565 Q123.682 233.88 121.969 232.376 Q120.279 230.871 117.27 230.871 Q114.237 230.871 112.547 232.376 Q110.881 233.88 110.881 236.565 Z" fill="#000000" fill-rule="evenodd" fill-opacity="1" /><path clip-path="url(#clip480)" d="M546.158 12.096 L554.382 12.096 L554.382 48.8377 Q554.382 58.5599 557.906 62.8538 Q561.43 67.1073 569.33 67.1073 Q577.188 67.1073 580.713 62.8538 Q584.237 58.5599 584.237 48.8377 L584.237 12.096 L592.46 12.096 L592.46 49.8504 Q592.46 61.6791 586.587 67.7149 Q580.753 73.7508 569.33 73.7508 Q557.866 73.7508 551.992 67.7149 Q546.158 61.6791 546.158 49.8504 L546.158 12.096 Z" fill="#000000" fill-rule="evenodd" fill-opacity="1" /><path clip-path="url(#clip480)" d="M645.203 45.1919 L645.203 72.576 L637.749 72.576 L637.749 45.4349 Q637.749 38.994 635.238 35.7938 Q632.726 32.5936 627.703 32.5936 Q621.667 32.5936 618.184 36.4419 Q614.7 40.2903 614.7 46.9338 L614.7 72.576 L607.206 72.576 L607.206 27.2059 L614.7 27.2059 L614.7 34.2544 Q617.373 30.163 620.979 28.1376 Q624.625 26.1121 629.364 26.1121 Q637.182 26.1121 641.193 30.9732 Q645.203 35.7938 645.203 45.1919 Z" fill="#000000" fill-rule="evenodd" fill-opacity="1" /><path clip-path="url(#clip480)" d="M698.878 48.0275 L698.878 51.6733 L664.607 51.6733 Q665.093 59.3701 669.225 63.421 Q673.397 67.4314 680.811 67.4314 Q685.105 67.4314 689.115 66.3781 Q693.166 65.3249 697.136 63.2184 L697.136 70.267 Q693.125 71.9684 688.912 72.8596 Q684.699 73.7508 680.365 73.7508 Q669.509 73.7508 663.149 67.4314 Q656.829 61.1119 656.829 50.3365 Q656.829 39.1965 662.825 32.6746 Q668.86 26.1121 679.069 26.1121 Q688.224 26.1121 693.53 32.0264 Q698.878 37.9003 698.878 48.0275 M691.424 45.84 Q691.343 39.7232 687.981 36.0774 Q684.659 32.4315 679.15 32.4315 Q672.911 32.4315 669.144 35.9558 Q665.417 39.4801 664.85 45.8805 L691.424 45.84 Z" fill="#000000" fill-rule="evenodd" fill-opacity="1" /><path clip-path="url(#clip480)" d="M746.435 35.9153 Q749.23 30.8922 753.119 28.5022 Q757.008 26.1121 762.274 26.1121 Q769.363 26.1121 773.212 31.0947 Q777.06 36.0368 777.06 45.1919 L777.06 72.576 L769.566 72.576 L769.566 45.4349 Q769.566 38.913 767.257 35.7533 Q764.948 32.5936 760.208 32.5936 Q754.415 32.5936 751.053 36.4419 Q747.691 40.2903 747.691 46.9338 L747.691 72.576 L740.197 72.576 L740.197 45.4349 Q740.197 38.8725 737.888 35.7533 Q735.579 32.5936 730.758 32.5936 Q725.046 32.5936 721.684 36.4824 Q718.322 40.3308 718.322 46.9338 L718.322 72.576 L710.828 72.576 L710.828 27.2059 L718.322 27.2059 L718.322 34.2544 Q720.874 30.082 724.439 28.0971 Q728.004 26.1121 732.905 26.1121 Q737.847 26.1121 741.291 28.6237 Q744.774 31.1352 746.435 35.9153 Z" fill="#000000" fill-rule="evenodd" fill-opacity="1" /><path clip-path="url(#clip480)" d="M799.137 65.7705 L799.137 89.8329 L791.643 89.8329 L791.643 27.2059 L799.137 27.2059 L799.137 34.0924 Q801.487 30.0415 805.052 28.0971 Q808.657 26.1121 813.64 26.1121 Q821.904 26.1121 827.048 32.6746 Q832.233 39.2371 832.233 49.9314 Q832.233 60.6258 827.048 67.1883 Q821.904 73.7508 813.64 73.7508 Q808.657 73.7508 805.052 71.8063 Q801.487 69.8214 799.137 65.7705 M824.496 49.9314 Q824.496 41.7081 821.093 37.0496 Q817.731 32.3505 811.817 32.3505 Q805.902 32.3505 802.5 37.0496 Q799.137 41.7081 799.137 49.9314 Q799.137 58.1548 802.5 62.8538 Q805.902 67.5124 811.817 67.5124 Q817.731 67.5124 821.093 62.8538 Q824.496 58.1548 824.496 49.9314 Z" fill="#000000" fill-rule="evenodd" fill-opacity="1" /><path clip-path="url(#clip480)" d="M844.589 9.54393 L852.042 9.54393 L852.042 72.576 L844.589 72.576 L844.589 9.54393 Z" fill="#000000" fill-rule="evenodd" fill-opacity="1" /><path clip-path="url(#clip480)" d="M885.219 32.4315 Q879.224 32.4315 875.74 37.1306 Q872.256 41.7891 872.256 49.9314 Q872.256 58.0738 875.7 62.7728 Q879.183 67.4314 885.219 67.4314 Q891.174 67.4314 894.658 62.7323 Q898.142 58.0333 898.142 49.9314 Q898.142 41.8701 894.658 37.1711 Q891.174 32.4315 885.219 32.4315 M885.219 26.1121 Q894.941 26.1121 900.491 32.4315 Q906.041 38.7509 906.041 49.9314 Q906.041 61.0714 900.491 67.4314 Q894.941 73.7508 885.219 73.7508 Q875.456 73.7508 869.907 67.4314 Q864.398 61.0714 864.398 49.9314 Q864.398 38.7509 869.907 32.4315 Q875.456 26.1121 885.219 26.1121 Z" fill="#000000" fill-rule="evenodd" fill-opacity="1" /><path clip-path="url(#clip480)" d="M937.273 76.7889 Q934.114 84.8907 931.116 87.3618 Q928.118 89.8329 923.095 89.8329 L917.14 89.8329 L917.14 83.5945 L921.515 83.5945 Q924.594 83.5945 926.295 82.1361 Q927.997 80.6778 930.063 75.2496 L931.399 71.8468 L913.049 27.2059 L920.948 27.2059 L935.126 62.6918 L949.304 27.2059 L957.204 27.2059 L937.273 76.7889 Z" fill="#000000" fill-rule="evenodd" fill-opacity="1" /><path clip-path="url(#clip480)" d="M1002.82 35.9153 Q1005.61 30.8922 1009.5 28.5022 Q1013.39 26.1121 1018.66 26.1121 Q1025.75 26.1121 1029.59 31.0947 Q1033.44 36.0368 1033.44 45.1919 L1033.44 72.576 L1025.95 72.576 L1025.95 45.4349 Q1025.95 38.913 1023.64 35.7533 Q1021.33 32.5936 1016.59 32.5936 Q1010.8 32.5936 1007.43 36.4419 Q1004.07 40.2903 1004.07 46.9338 L1004.07 72.576 L996.579 72.576 L996.579 45.4349 Q996.579 38.8725 994.27 35.7533 Q991.96 32.5936 987.14 32.5936 Q981.428 32.5936 978.066 36.4824 Q974.704 40.3308 974.704 46.9338 L974.704 72.576 L967.209 72.576 L967.209 27.2059 L974.704 27.2059 L974.704 34.2544 Q977.256 30.082 980.821 28.0971 Q984.385 26.1121 989.287 26.1121 Q994.229 26.1121 997.672 28.6237 Q1001.16 31.1352 1002.82 35.9153 Z" fill="#000000" fill-rule="evenodd" fill-opacity="1" /><path clip-path="url(#clip480)" d="M1087.12 48.0275 L1087.12 51.6733 L1052.85 51.6733 Q1053.33 59.3701 1057.46 63.421 Q1061.64 67.4314 1069.05 67.4314 Q1073.34 67.4314 1077.35 66.3781 Q1081.4 65.3249 1085.37 63.2184 L1085.37 70.267 Q1081.36 71.9684 1077.15 72.8596 Q1072.94 73.7508 1068.6 73.7508 Q1057.75 73.7508 1051.39 67.4314 Q1045.07 61.1119 1045.07 50.3365 Q1045.07 39.1965 1051.06 32.6746 Q1057.1 26.1121 1067.31 26.1121 Q1076.46 26.1121 1081.77 32.0264 Q1087.12 37.9003 1087.12 48.0275 M1079.66 45.84 Q1079.58 39.7232 1076.22 36.0774 Q1072.9 32.4315 1067.39 32.4315 Q1061.15 32.4315 1057.38 35.9558 Q1053.66 39.4801 1053.09 45.8805 L1079.66 45.84 Z" fill="#000000" fill-rule="evenodd" fill-opacity="1" /><path clip-path="url(#clip480)" d="M1137.06 45.1919 L1137.06 72.576 L1129.61 72.576 L1129.61 45.4349 Q1129.61 38.994 1127.1 35.7938 Q1124.59 32.5936 1119.56 32.5936 Q1113.53 32.5936 1110.04 36.4419 Q1106.56 40.2903 1106.56 46.9338 L1106.56 72.576 L1099.07 72.576 L1099.07 27.2059 L1106.56 27.2059 L1106.56 34.2544 Q1109.23 30.163 1112.84 28.1376 Q1116.49 26.1121 1121.22 26.1121 Q1129.04 26.1121 1133.05 30.9732 Q1137.06 35.7938 1137.06 45.1919 Z" fill="#000000" fill-rule="evenodd" fill-opacity="1" /><path clip-path="url(#clip480)" d="M1159.3 14.324 L1159.3 27.2059 L1174.66 27.2059 L1174.66 32.9987 L1159.3 32.9987 L1159.3 57.6282 Q1159.3 63.1779 1160.8 64.7578 Q1162.34 66.3376 1167 66.3376 L1174.66 66.3376 L1174.66 72.576 L1167 72.576 Q1158.37 72.576 1155.09 69.3758 Q1151.81 66.1351 1151.81 57.6282 L1151.81 32.9987 L1146.34 32.9987 L1146.34 27.2059 L1151.81 27.2059 L1151.81 14.324 L1159.3 14.324 Z" fill="#000000" fill-rule="evenodd" fill-opacity="1" /><polyline clip-path="url(#clip482)" style="stroke:#0000ff; stroke-linecap:butt; stroke-linejoin:round; stroke-width:8; stroke-opacity:0.7; fill:none" points="
  215.798,1231.91 237.649,1208.7 259.5,1183.4 281.351,1167.26 303.203,1144.64 325.054,1126.88 346.905,1108.45 368.756,1089.38 390.607,1076.32 412.458,1056.22 
  434.31,1042.49 456.161,1021.44 478.012,1007.1 499.863,992.53 521.714,977.737 543.565,955.152 565.417,939.843 587.268,924.345 609.119,908.666 630.97,892.818 
  652.821,876.809 674.672,860.65 696.524,844.352 718.375,827.925 740.226,811.379 762.077,794.725 783.928,769.565 805.779,752.687 827.631,735.738 849.482,718.729 
  871.333,701.669 893.184,684.569 915.035,667.439 936.886,650.29 958.738,633.13 980.589,615.97 1002.44,598.819 1024.29,581.686 1046.14,556.041 1067.99,538.993 
  1089.84,521.995 1111.7,505.053 1133.55,488.177 1155.4,471.374 1177.25,446.323 1199.1,429.734 1220.95,413.242 1242.8,396.855 1264.65,372.483 1286.51,356.382 
  1308.36,340.405 1330.21,316.683 1352.06,301.039 1373.91,285.534 1395.76,262.551 1417.61,247.416 1439.46,225.003 1461.31,210.258 1483.17,188.444 1505.02,174.106 
  
  "/>
<path clip-path="url(#clip480)" d="
M1786.18 1263.65 L3152.76 1263.65 L3152.76 142.372 L1786.18 142.372  Z
  " fill="#ffffff" fill-rule="evenodd" fill-opacity="1"/>
<defs>
  <clipPath id="clip483">
    <rect x="1786" y="142" width="1368" height="1122"/>
  </clipPath>
</defs>
<polyline clip-path="url(#clip483)" style="stroke:#000000; stroke-linecap:butt; stroke-linejoin:round; stroke-width:2; stroke-opacity:0.1; fill:none" points="
  2015.86,1263.65 2015.86,142.372 
  "/>
<polyline clip-path="url(#clip483)" style="stroke:#000000; stroke-linecap:butt; stroke-linejoin:round; stroke-width:2; stroke-opacity:0.1; fill:none" points="
  2254.6,1263.65 2254.6,142.372 
  "/>
<polyline clip-path="url(#clip483)" style="stroke:#000000; stroke-linecap:butt; stroke-linejoin:round; stroke-width:2; stroke-opacity:0.1; fill:none" points="
  2493.34,1263.65 2493.34,142.372 
  "/>
<polyline clip-path="url(#clip483)" style="stroke:#000000; stroke-linecap:butt; stroke-linejoin:round; stroke-width:2; stroke-opacity:0.1; fill:none" points="
  2732.09,1263.65 2732.09,142.372 
  "/>
<polyline clip-path="url(#clip483)" style="stroke:#000000; stroke-linecap:butt; stroke-linejoin:round; stroke-width:2; stroke-opacity:0.1; fill:none" points="
  2970.83,1263.65 2970.83,142.372 
  "/>
<polyline clip-path="url(#clip480)" style="stroke:#000000; stroke-linecap:butt; stroke-linejoin:round; stroke-width:4; stroke-opacity:1; fill:none" points="
  1786.18,1263.65 3152.76,1263.65 
  "/>
<polyline clip-path="url(#clip480)" style="stroke:#000000; stroke-linecap:butt; stroke-linejoin:round; stroke-width:4; stroke-opacity:1; fill:none" points="
  2015.86,1263.65 2015.86,1244.75 
  "/>
<polyline clip-path="url(#clip480)" style="stroke:#000000; stroke-linecap:butt; stroke-linejoin:round; stroke-width:4; stroke-opacity:1; fill:none" points="
  2254.6,1263.65 2254.6,1244.75 
  "/>
<polyline clip-path="url(#clip480)" style="stroke:#000000; stroke-linecap:butt; stroke-linejoin:round; stroke-width:4; stroke-opacity:1; fill:none" points="
  2493.34,1263.65 2493.34,1244.75 
  "/>
<polyline clip-path="url(#clip480)" style="stroke:#000000; stroke-linecap:butt; stroke-linejoin:round; stroke-width:4; stroke-opacity:1; fill:none" points="
  2732.09,1263.65 2732.09,1244.75 
  "/>
<polyline clip-path="url(#clip480)" style="stroke:#000000; stroke-linecap:butt; stroke-linejoin:round; stroke-width:4; stroke-opacity:1; fill:none" points="
  2970.83,1263.65 2970.83,1244.75 
  "/>
<path clip-path="url(#clip480)" d="M1995.13 1326.78 L2011.45 1326.78 L2011.45 1330.72 L1989.5 1330.72 L1989.5 1326.78 Q1992.16 1324.03 1996.75 1319.4 Q2001.35 1314.75 2002.53 1313.41 Q2004.78 1310.88 2005.66 1309.15 Q2006.56 1307.39 2006.56 1305.7 Q2006.56 1302.94 2004.62 1301.21 Q2002.7 1299.47 1999.59 1299.47 Q1997.4 1299.47 1994.94 1300.23 Q1992.51 1301 1989.73 1302.55 L1989.73 1297.83 Q1992.56 1296.69 1995.01 1296.11 Q1997.46 1295.53 1999.5 1295.53 Q2004.87 1295.53 2008.07 1298.22 Q2011.26 1300.91 2011.26 1305.4 Q2011.26 1307.53 2010.45 1309.45 Q2009.66 1311.34 2007.56 1313.94 Q2006.98 1314.61 2003.88 1317.83 Q2000.77 1321.02 1995.13 1326.78 Z" fill="#000000" fill-rule="evenodd" fill-opacity="1" /><path clip-path="url(#clip480)" d="M2021.31 1296.16 L2039.66 1296.16 L2039.66 1300.1 L2025.59 1300.1 L2025.59 1308.57 Q2026.61 1308.22 2027.63 1308.06 Q2028.65 1307.87 2029.66 1307.87 Q2035.45 1307.87 2038.83 1311.04 Q2042.21 1314.22 2042.21 1319.63 Q2042.21 1325.21 2038.74 1328.31 Q2035.27 1331.39 2028.95 1331.39 Q2026.77 1331.39 2024.5 1331.02 Q2022.26 1330.65 2019.85 1329.91 L2019.85 1325.21 Q2021.93 1326.34 2024.15 1326.9 Q2026.38 1327.46 2028.85 1327.46 Q2032.86 1327.46 2035.2 1325.35 Q2037.53 1323.24 2037.53 1319.63 Q2037.53 1316.02 2035.2 1313.91 Q2032.86 1311.81 2028.85 1311.81 Q2026.98 1311.81 2025.1 1312.22 Q2023.25 1312.64 2021.31 1313.52 L2021.31 1296.16 Z" fill="#000000" fill-rule="evenodd" fill-opacity="1" /><path clip-path="url(#clip480)" d="M2229.3 1296.16 L2247.66 1296.16 L2247.66 1300.1 L2233.58 1300.1 L2233.58 1308.57 Q2234.6 1308.22 2235.62 1308.06 Q2236.64 1307.87 2237.66 1307.87 Q2243.44 1307.87 2246.82 1311.04 Q2250.2 1314.22 2250.2 1319.63 Q2250.2 1325.21 2246.73 1328.31 Q2243.26 1331.39 2236.94 1331.39 Q2234.76 1331.39 2232.49 1331.02 Q2230.25 1330.65 2227.84 1329.91 L2227.84 1325.21 Q2229.92 1326.34 2232.15 1326.9 Q2234.37 1327.46 2236.85 1327.46 Q2240.85 1327.46 2243.19 1325.35 Q2245.53 1323.24 2245.53 1319.63 Q2245.53 1316.02 2243.19 1313.91 Q2240.85 1311.81 2236.85 1311.81 Q2234.97 1311.81 2233.1 1312.22 Q2231.24 1312.64 2229.3 1313.52 L2229.3 1296.16 Z" fill="#000000" fill-rule="evenodd" fill-opacity="1" /><path clip-path="url(#clip480)" d="M2269.41 1299.24 Q2265.8 1299.24 2263.97 1302.8 Q2262.17 1306.35 2262.17 1313.47 Q2262.17 1320.58 2263.97 1324.15 Q2265.8 1327.69 2269.41 1327.69 Q2273.05 1327.69 2274.85 1324.15 Q2276.68 1320.58 2276.68 1313.47 Q2276.68 1306.35 2274.85 1302.8 Q2273.05 1299.24 2269.41 1299.24 M2269.41 1295.53 Q2275.22 1295.53 2278.28 1300.14 Q2281.36 1304.72 2281.36 1313.47 Q2281.36 1322.2 2278.28 1326.81 Q2275.22 1331.39 2269.41 1331.39 Q2263.6 1331.39 2260.53 1326.81 Q2257.47 1322.2 2257.47 1313.47 Q2257.47 1304.72 2260.53 1300.14 Q2263.6 1295.53 2269.41 1295.53 Z" fill="#000000" fill-rule="evenodd" fill-opacity="1" /><path clip-path="url(#clip480)" d="M2467.2 1296.16 L2489.42 1296.16 L2489.42 1298.15 L2476.87 1330.72 L2471.99 1330.72 L2483.8 1300.1 L2467.2 1300.1 L2467.2 1296.16 Z" fill="#000000" fill-rule="evenodd" fill-opacity="1" /><path clip-path="url(#clip480)" d="M2498.59 1296.16 L2516.94 1296.16 L2516.94 1300.1 L2502.87 1300.1 L2502.87 1308.57 Q2503.89 1308.22 2504.91 1308.06 Q2505.93 1307.87 2506.94 1307.87 Q2512.73 1307.87 2516.11 1311.04 Q2519.49 1314.22 2519.49 1319.63 Q2519.49 1325.21 2516.02 1328.31 Q2512.55 1331.39 2506.23 1331.39 Q2504.05 1331.39 2501.78 1331.02 Q2499.54 1330.65 2497.13 1329.91 L2497.13 1325.21 Q2499.21 1326.34 2501.43 1326.9 Q2503.66 1327.46 2506.13 1327.46 Q2510.14 1327.46 2512.48 1325.35 Q2514.81 1323.24 2514.81 1319.63 Q2514.81 1316.02 2512.48 1313.91 Q2510.14 1311.81 2506.13 1311.81 Q2504.26 1311.81 2502.38 1312.22 Q2500.53 1312.64 2498.59 1313.52 L2498.59 1296.16 Z" fill="#000000" fill-rule="evenodd" fill-opacity="1" /><path clip-path="url(#clip480)" d="M2691.7 1326.78 L2699.33 1326.78 L2699.33 1300.42 L2691.02 1302.09 L2691.02 1297.83 L2699.29 1296.16 L2703.96 1296.16 L2703.96 1326.78 L2711.6 1326.78 L2711.6 1330.72 L2691.7 1330.72 L2691.7 1326.78 Z" fill="#000000" fill-rule="evenodd" fill-opacity="1" /><path clip-path="url(#clip480)" d="M2731.05 1299.24 Q2727.44 1299.24 2725.61 1302.8 Q2723.8 1306.35 2723.8 1313.47 Q2723.8 1320.58 2725.61 1324.15 Q2727.44 1327.69 2731.05 1327.69 Q2734.68 1327.69 2736.49 1324.15 Q2738.32 1320.58 2738.32 1313.47 Q2738.32 1306.35 2736.49 1302.8 Q2734.68 1299.24 2731.05 1299.24 M2731.05 1295.53 Q2736.86 1295.53 2739.91 1300.14 Q2742.99 1304.72 2742.99 1313.47 Q2742.99 1322.2 2739.91 1326.81 Q2736.86 1331.39 2731.05 1331.39 Q2725.24 1331.39 2722.16 1326.81 Q2719.1 1322.2 2719.1 1313.47 Q2719.1 1304.72 2722.16 1300.14 Q2725.24 1295.53 2731.05 1295.53 Z" fill="#000000" fill-rule="evenodd" fill-opacity="1" /><path clip-path="url(#clip480)" d="M2761.21 1299.24 Q2757.6 1299.24 2755.77 1302.8 Q2753.96 1306.35 2753.96 1313.47 Q2753.96 1320.58 2755.77 1324.15 Q2757.6 1327.69 2761.21 1327.69 Q2764.84 1327.69 2766.65 1324.15 Q2768.48 1320.58 2768.48 1313.47 Q2768.48 1306.35 2766.65 1302.8 Q2764.84 1299.24 2761.21 1299.24 M2761.21 1295.53 Q2767.02 1295.53 2770.07 1300.14 Q2773.15 1304.72 2773.15 1313.47 Q2773.15 1322.2 2770.07 1326.81 Q2767.02 1331.39 2761.21 1331.39 Q2755.4 1331.39 2752.32 1326.81 Q2749.26 1322.2 2749.26 1313.47 Q2749.26 1304.72 2752.32 1300.14 Q2755.4 1295.53 2761.21 1295.53 Z" fill="#000000" fill-rule="evenodd" fill-opacity="1" /><path clip-path="url(#clip480)" d="M2930.94 1326.78 L2938.58 1326.78 L2938.58 1300.42 L2930.27 1302.09 L2930.27 1297.83 L2938.53 1296.16 L2943.21 1296.16 L2943.21 1326.78 L2950.84 1326.78 L2950.84 1330.72 L2930.94 1330.72 L2930.94 1326.78 Z" fill="#000000" fill-rule="evenodd" fill-opacity="1" /><path clip-path="url(#clip480)" d="M2964.32 1326.78 L2980.64 1326.78 L2980.64 1330.72 L2958.69 1330.72 L2958.69 1326.78 Q2961.35 1324.03 2965.94 1319.4 Q2970.54 1314.75 2971.72 1313.41 Q2973.97 1310.88 2974.85 1309.15 Q2975.75 1307.39 2975.75 1305.7 Q2975.75 1302.94 2973.81 1301.21 Q2971.89 1299.47 2968.78 1299.47 Q2966.59 1299.47 2964.13 1300.23 Q2961.7 1301 2958.92 1302.55 L2958.92 1297.83 Q2961.75 1296.69 2964.2 1296.11 Q2966.65 1295.53 2968.69 1295.53 Q2974.06 1295.53 2977.26 1298.22 Q2980.45 1300.91 2980.45 1305.4 Q2980.45 1307.53 2979.64 1309.45 Q2978.85 1311.34 2976.75 1313.94 Q2976.17 1314.61 2973.07 1317.83 Q2969.96 1321.02 2964.32 1326.78 Z" fill="#000000" fill-rule="evenodd" fill-opacity="1" /><path clip-path="url(#clip480)" d="M2990.5 1296.16 L3008.85 1296.16 L3008.85 1300.1 L2994.78 1300.1 L2994.78 1308.57 Q2995.8 1308.22 2996.82 1308.06 Q2997.83 1307.87 2998.85 1307.87 Q3004.64 1307.87 3008.02 1311.04 Q3011.4 1314.22 3011.4 1319.63 Q3011.4 1325.21 3007.93 1328.31 Q3004.46 1331.39 2998.14 1331.39 Q2995.96 1331.39 2993.69 1331.02 Q2991.45 1330.65 2989.04 1329.91 L2989.04 1325.21 Q2991.12 1326.34 2993.34 1326.9 Q2995.57 1327.46 2998.04 1327.46 Q3002.05 1327.46 3004.39 1325.35 Q3006.72 1323.24 3006.72 1319.63 Q3006.72 1316.02 3004.39 1313.91 Q3002.05 1311.81 2998.04 1311.81 Q2996.17 1311.81 2994.29 1312.22 Q2992.44 1312.64 2990.5 1313.52 L2990.5 1296.16 Z" fill="#000000" fill-rule="evenodd" fill-opacity="1" /><polyline clip-path="url(#clip483)" style="stroke:#000000; stroke-linecap:butt; stroke-linejoin:round; stroke-width:2; stroke-opacity:0.1; fill:none" points="
  1786.18,1160.95 3152.76,1160.95 
  "/>
<polyline clip-path="url(#clip483)" style="stroke:#000000; stroke-linecap:butt; stroke-linejoin:round; stroke-width:2; stroke-opacity:0.1; fill:none" points="
  1786.18,878.379 3152.76,878.379 
  "/>
<polyline clip-path="url(#clip483)" style="stroke:#000000; stroke-linecap:butt; stroke-linejoin:round; stroke-width:2; stroke-opacity:0.1; fill:none" points="
  1786.18,595.811 3152.76,595.811 
  "/>
<polyline clip-path="url(#clip483)" style="stroke:#000000; stroke-linecap:butt; stroke-linejoin:round; stroke-width:2; stroke-opacity:0.1; fill:none" points="
  1786.18,313.242 3152.76,313.242 
  "/>
<polyline clip-path="url(#clip480)" style="stroke:#000000; stroke-linecap:butt; stroke-linejoin:round; stroke-width:4; stroke-opacity:1; fill:none" points="
  1786.18,1263.65 1786.18,142.372 
  "/>
<polyline clip-path="url(#clip480)" style="stroke:#000000; stroke-linecap:butt; stroke-linejoin:round; stroke-width:4; stroke-opacity:1; fill:none" points="
  1786.18,1160.95 1805.08,1160.95 
  "/>
<polyline clip-path="url(#clip480)" style="stroke:#000000; stroke-linecap:butt; stroke-linejoin:round; stroke-width:4; stroke-opacity:1; fill:none" points="
  1786.18,878.379 1805.08,878.379 
  "/>
<polyline clip-path="url(#clip480)" style="stroke:#000000; stroke-linecap:butt; stroke-linejoin:round; stroke-width:4; stroke-opacity:1; fill:none" points="
  1786.18,595.811 1805.08,595.811 
  "/>
<polyline clip-path="url(#clip480)" style="stroke:#000000; stroke-linecap:butt; stroke-linejoin:round; stroke-width:4; stroke-opacity:1; fill:none" points="
  1786.18,313.242 1805.08,313.242 
  "/>
<path clip-path="url(#clip480)" d="M1682.61 1146.75 Q1678.99 1146.75 1677.17 1150.31 Q1675.36 1153.85 1675.36 1160.98 Q1675.36 1168.09 1677.17 1171.65 Q1678.99 1175.2 1682.61 1175.2 Q1686.24 1175.2 1688.05 1171.65 Q1689.87 1168.09 1689.87 1160.98 Q1689.87 1153.85 1688.05 1150.31 Q1686.24 1146.75 1682.61 1146.75 M1682.61 1143.04 Q1688.42 1143.04 1691.47 1147.65 Q1694.55 1152.23 1694.55 1160.98 Q1694.55 1169.71 1691.47 1174.32 Q1688.42 1178.9 1682.61 1178.9 Q1676.8 1178.9 1673.72 1174.32 Q1670.66 1169.71 1670.66 1160.98 Q1670.66 1152.23 1673.72 1147.65 Q1676.8 1143.04 1682.61 1143.04 Z" fill="#000000" fill-rule="evenodd" fill-opacity="1" /><path clip-path="url(#clip480)" d="M1702.77 1172.35 L1707.65 1172.35 L1707.65 1178.23 L1702.77 1178.23 L1702.77 1172.35 Z" fill="#000000" fill-rule="evenodd" fill-opacity="1" /><path clip-path="url(#clip480)" d="M1721.86 1174.29 L1738.18 1174.29 L1738.18 1178.23 L1716.24 1178.23 L1716.24 1174.29 Q1718.9 1171.54 1723.48 1166.91 Q1728.09 1162.26 1729.27 1160.91 Q1731.52 1158.39 1732.4 1156.65 Q1733.3 1154.89 1733.3 1153.2 Q1733.3 1150.45 1731.36 1148.71 Q1729.43 1146.98 1726.33 1146.98 Q1724.13 1146.98 1721.68 1147.74 Q1719.25 1148.51 1716.47 1150.06 L1716.47 1145.33 Q1719.29 1144.2 1721.75 1143.62 Q1724.2 1143.04 1726.24 1143.04 Q1731.61 1143.04 1734.8 1145.73 Q1738 1148.41 1738 1152.9 Q1738 1155.03 1737.19 1156.95 Q1736.4 1158.85 1734.29 1161.45 Q1733.72 1162.12 1730.61 1165.33 Q1727.51 1168.53 1721.86 1174.29 Z" fill="#000000" fill-rule="evenodd" fill-opacity="1" /><path clip-path="url(#clip480)" d="M1680.52 864.178 Q1676.91 864.178 1675.08 867.743 Q1673.28 871.284 1673.28 878.414 Q1673.28 885.52 1675.08 889.085 Q1676.91 892.627 1680.52 892.627 Q1684.16 892.627 1685.96 889.085 Q1687.79 885.52 1687.79 878.414 Q1687.79 871.284 1685.96 867.743 Q1684.16 864.178 1680.52 864.178 M1680.52 860.474 Q1686.33 860.474 1689.39 865.081 Q1692.47 869.664 1692.47 878.414 Q1692.47 887.141 1689.39 891.747 Q1686.33 896.331 1680.52 896.331 Q1674.71 896.331 1671.63 891.747 Q1668.58 887.141 1668.58 878.414 Q1668.58 869.664 1671.63 865.081 Q1674.71 860.474 1680.52 860.474 Z" fill="#000000" fill-rule="evenodd" fill-opacity="1" /><path clip-path="url(#clip480)" d="M1700.68 889.78 L1705.57 889.78 L1705.57 895.659 L1700.68 895.659 L1700.68 889.78 Z" fill="#000000" fill-rule="evenodd" fill-opacity="1" /><path clip-path="url(#clip480)" d="M1728.6 865.173 L1716.79 883.622 L1728.6 883.622 L1728.6 865.173 M1727.37 861.099 L1733.25 861.099 L1733.25 883.622 L1738.18 883.622 L1738.18 887.511 L1733.25 887.511 L1733.25 895.659 L1728.6 895.659 L1728.6 887.511 L1713 887.511 L1713 882.997 L1727.37 861.099 Z" fill="#000000" fill-rule="evenodd" fill-opacity="1" /><path clip-path="url(#clip480)" d="M1680.85 581.609 Q1677.24 581.609 1675.41 585.174 Q1673.6 588.716 1673.6 595.846 Q1673.6 602.952 1675.41 606.517 Q1677.24 610.058 1680.85 610.058 Q1684.48 610.058 1686.29 606.517 Q1688.11 602.952 1688.11 595.846 Q1688.11 588.716 1686.29 585.174 Q1684.48 581.609 1680.85 581.609 M1680.85 577.906 Q1686.66 577.906 1689.71 582.512 Q1692.79 587.096 1692.79 595.846 Q1692.79 604.572 1689.71 609.179 Q1686.66 613.762 1680.85 613.762 Q1675.04 613.762 1671.96 609.179 Q1668.9 604.572 1668.9 595.846 Q1668.9 587.096 1671.96 582.512 Q1675.04 577.906 1680.85 577.906 Z" fill="#000000" fill-rule="evenodd" fill-opacity="1" /><path clip-path="url(#clip480)" d="M1701.01 607.211 L1705.89 607.211 L1705.89 613.091 L1701.01 613.091 L1701.01 607.211 Z" fill="#000000" fill-rule="evenodd" fill-opacity="1" /><path clip-path="url(#clip480)" d="M1726.66 593.947 Q1723.51 593.947 1721.66 596.1 Q1719.83 598.253 1719.83 602.003 Q1719.83 605.73 1721.66 607.906 Q1723.51 610.058 1726.66 610.058 Q1729.8 610.058 1731.63 607.906 Q1733.48 605.73 1733.48 602.003 Q1733.48 598.253 1731.63 596.1 Q1729.8 593.947 1726.66 593.947 M1735.94 579.295 L1735.94 583.554 Q1734.18 582.721 1732.37 582.281 Q1730.59 581.841 1728.83 581.841 Q1724.2 581.841 1721.75 584.966 Q1719.32 588.091 1718.97 594.41 Q1720.34 592.396 1722.4 591.332 Q1724.46 590.244 1726.93 590.244 Q1732.14 590.244 1735.15 593.415 Q1738.18 596.563 1738.18 602.003 Q1738.18 607.327 1735.04 610.545 Q1731.89 613.762 1726.66 613.762 Q1720.66 613.762 1717.49 609.179 Q1714.32 604.572 1714.32 595.846 Q1714.32 587.651 1718.21 582.79 Q1722.1 577.906 1728.65 577.906 Q1730.41 577.906 1732.19 578.253 Q1733.99 578.6 1735.94 579.295 Z" fill="#000000" fill-rule="evenodd" fill-opacity="1" /><path clip-path="url(#clip480)" d="M1681.1 299.041 Q1677.49 299.041 1675.66 302.606 Q1673.86 306.147 1673.86 313.277 Q1673.86 320.384 1675.66 323.948 Q1677.49 327.49 1681.1 327.49 Q1684.73 327.49 1686.54 323.948 Q1688.37 320.384 1688.37 313.277 Q1688.37 306.147 1686.54 302.606 Q1684.73 299.041 1681.1 299.041 M1681.1 295.337 Q1686.91 295.337 1689.97 299.944 Q1693.05 304.527 1693.05 313.277 Q1693.05 322.004 1689.97 326.61 Q1686.91 331.194 1681.1 331.194 Q1675.29 331.194 1672.21 326.61 Q1669.16 322.004 1669.16 313.277 Q1669.16 304.527 1672.21 299.944 Q1675.29 295.337 1681.1 295.337 Z" fill="#000000" fill-rule="evenodd" fill-opacity="1" /><path clip-path="url(#clip480)" d="M1701.26 324.643 L1706.15 324.643 L1706.15 330.522 L1701.26 330.522 L1701.26 324.643 Z" fill="#000000" fill-rule="evenodd" fill-opacity="1" /><path clip-path="url(#clip480)" d="M1726.33 314.11 Q1723 314.11 1721.08 315.893 Q1719.18 317.675 1719.18 320.8 Q1719.18 323.925 1721.08 325.708 Q1723 327.49 1726.33 327.49 Q1729.67 327.49 1731.59 325.708 Q1733.51 323.902 1733.51 320.8 Q1733.51 317.675 1731.59 315.893 Q1729.69 314.11 1726.33 314.11 M1721.66 312.12 Q1718.65 311.379 1716.96 309.319 Q1715.29 307.259 1715.29 304.296 Q1715.29 300.152 1718.23 297.745 Q1721.19 295.337 1726.33 295.337 Q1731.49 295.337 1734.43 297.745 Q1737.37 300.152 1737.37 304.296 Q1737.37 307.259 1735.68 309.319 Q1734.02 311.379 1731.03 312.12 Q1734.41 312.907 1736.29 315.198 Q1738.18 317.49 1738.18 320.8 Q1738.18 325.823 1735.11 328.508 Q1732.05 331.194 1726.33 331.194 Q1720.61 331.194 1717.54 328.508 Q1714.48 325.823 1714.48 320.8 Q1714.48 317.49 1716.38 315.198 Q1718.28 312.907 1721.66 312.12 M1719.94 304.735 Q1719.94 307.421 1721.61 308.925 Q1723.3 310.43 1726.33 310.43 Q1729.34 310.43 1731.03 308.925 Q1732.74 307.421 1732.74 304.735 Q1732.74 302.05 1731.03 300.546 Q1729.34 299.041 1726.33 299.041 Q1723.3 299.041 1721.61 300.546 Q1719.94 302.05 1719.94 304.735 Z" fill="#000000" fill-rule="evenodd" fill-opacity="1" /><path clip-path="url(#clip480)" d="M2211.65 12.096 L2249.89 12.096 L2249.89 18.9825 L2219.83 18.9825 L2219.83 36.8875 L2248.63 36.8875 L2248.63 43.7741 L2219.83 43.7741 L2219.83 65.6895 L2250.62 65.6895 L2250.62 72.576 L2211.65 72.576 L2211.65 12.096 Z" fill="#000000" fill-rule="evenodd" fill-opacity="1" /><path clip-path="url(#clip480)" d="M2299.07 35.9153 Q2301.86 30.8922 2305.75 28.5022 Q2309.64 26.1121 2314.91 26.1121 Q2322 26.1121 2325.85 31.0947 Q2329.69 36.0368 2329.69 45.1919 L2329.69 72.576 L2322.2 72.576 L2322.2 45.4349 Q2322.2 38.913 2319.89 35.7533 Q2317.58 32.5936 2312.84 32.5936 Q2307.05 32.5936 2303.69 36.4419 Q2300.32 40.2903 2300.32 46.9338 L2300.32 72.576 L2292.83 72.576 L2292.83 45.4349 Q2292.83 38.8725 2290.52 35.7533 Q2288.21 32.5936 2283.39 32.5936 Q2277.68 32.5936 2274.32 36.4824 Q2270.96 40.3308 2270.96 46.9338 L2270.96 72.576 L2263.46 72.576 L2263.46 27.2059 L2270.96 27.2059 L2270.96 34.2544 Q2273.51 30.082 2277.07 28.0971 Q2280.64 26.1121 2285.54 26.1121 Q2290.48 26.1121 2293.92 28.6237 Q2297.41 31.1352 2299.07 35.9153 Z" fill="#000000" fill-rule="evenodd" fill-opacity="1" /><path clip-path="url(#clip480)" d="M2351.77 65.7705 L2351.77 89.8329 L2344.28 89.8329 L2344.28 27.2059 L2351.77 27.2059 L2351.77 34.0924 Q2354.12 30.0415 2357.69 28.0971 Q2361.29 26.1121 2366.27 26.1121 Q2374.54 26.1121 2379.68 32.6746 Q2384.87 39.2371 2384.87 49.9314 Q2384.87 60.6258 2379.68 67.1883 Q2374.54 73.7508 2366.27 73.7508 Q2361.29 73.7508 2357.69 71.8063 Q2354.12 69.8214 2351.77 65.7705 M2377.13 49.9314 Q2377.13 41.7081 2373.73 37.0496 Q2370.36 32.3505 2364.45 32.3505 Q2358.54 32.3505 2355.13 37.0496 Q2351.77 41.7081 2351.77 49.9314 Q2351.77 58.1548 2355.13 62.8538 Q2358.54 67.5124 2364.45 67.5124 Q2370.36 67.5124 2373.73 62.8538 Q2377.13 58.1548 2377.13 49.9314 Z" fill="#000000" fill-rule="evenodd" fill-opacity="1" /><path clip-path="url(#clip480)" d="M2397.22 9.54393 L2404.68 9.54393 L2404.68 72.576 L2397.22 72.576 L2397.22 9.54393 Z" fill="#000000" fill-rule="evenodd" fill-opacity="1" /><path clip-path="url(#clip480)" d="M2437.85 32.4315 Q2431.86 32.4315 2428.37 37.1306 Q2424.89 41.7891 2424.89 49.9314 Q2424.89 58.0738 2428.33 62.7728 Q2431.82 67.4314 2437.85 67.4314 Q2443.81 67.4314 2447.29 62.7323 Q2450.77 58.0333 2450.77 49.9314 Q2450.77 41.8701 2447.29 37.1711 Q2443.81 32.4315 2437.85 32.4315 M2437.85 26.1121 Q2447.57 26.1121 2453.12 32.4315 Q2458.67 38.7509 2458.67 49.9314 Q2458.67 61.0714 2453.12 67.4314 Q2447.57 73.7508 2437.85 73.7508 Q2428.09 73.7508 2422.54 67.4314 Q2417.03 61.0714 2417.03 49.9314 Q2417.03 38.7509 2422.54 32.4315 Q2428.09 26.1121 2437.85 26.1121 Z" fill="#000000" fill-rule="evenodd" fill-opacity="1" /><path clip-path="url(#clip480)" d="M2489.91 76.7889 Q2486.75 84.8907 2483.75 87.3618 Q2480.75 89.8329 2475.73 89.8329 L2469.77 89.8329 L2469.77 83.5945 L2474.15 83.5945 Q2477.23 83.5945 2478.93 82.1361 Q2480.63 80.6778 2482.7 75.2496 L2484.03 71.8468 L2465.68 27.2059 L2473.58 27.2059 L2487.76 62.6918 L2501.94 27.2059 L2509.84 27.2059 L2489.91 76.7889 Z" fill="#000000" fill-rule="evenodd" fill-opacity="1" /><path clip-path="url(#clip480)" d="M2555.45 35.9153 Q2558.25 30.8922 2562.13 28.5022 Q2566.02 26.1121 2571.29 26.1121 Q2578.38 26.1121 2582.23 31.0947 Q2586.08 36.0368 2586.08 45.1919 L2586.08 72.576 L2578.58 72.576 L2578.58 45.4349 Q2578.58 38.913 2576.27 35.7533 Q2573.96 32.5936 2569.22 32.5936 Q2563.43 32.5936 2560.07 36.4419 Q2556.71 40.2903 2556.71 46.9338 L2556.71 72.576 L2549.21 72.576 L2549.21 45.4349 Q2549.21 38.8725 2546.9 35.7533 Q2544.59 32.5936 2539.77 32.5936 Q2534.06 32.5936 2530.7 36.4824 Q2527.34 40.3308 2527.34 46.9338 L2527.34 72.576 L2519.84 72.576 L2519.84 27.2059 L2527.34 27.2059 L2527.34 34.2544 Q2529.89 30.082 2533.45 28.0971 Q2537.02 26.1121 2541.92 26.1121 Q2546.86 26.1121 2550.31 28.6237 Q2553.79 31.1352 2555.45 35.9153 Z" fill="#000000" fill-rule="evenodd" fill-opacity="1" /><path clip-path="url(#clip480)" d="M2639.75 48.0275 L2639.75 51.6733 L2605.48 51.6733 Q2605.97 59.3701 2610.1 63.421 Q2614.27 67.4314 2621.68 67.4314 Q2625.98 67.4314 2629.99 66.3781 Q2634.04 65.3249 2638.01 63.2184 L2638.01 70.267 Q2634 71.9684 2629.78 72.8596 Q2625.57 73.7508 2621.24 73.7508 Q2610.38 73.7508 2604.02 67.4314 Q2597.7 61.1119 2597.7 50.3365 Q2597.7 39.1965 2603.7 32.6746 Q2609.73 26.1121 2619.94 26.1121 Q2629.1 26.1121 2634.4 32.0264 Q2639.75 37.9003 2639.75 48.0275 M2632.3 45.84 Q2632.21 39.7232 2628.85 36.0774 Q2625.53 32.4315 2620.02 32.4315 Q2613.78 32.4315 2610.02 35.9558 Q2606.29 39.4801 2605.72 45.8805 L2632.3 45.84 Z" fill="#000000" fill-rule="evenodd" fill-opacity="1" /><path clip-path="url(#clip480)" d="M2689.7 45.1919 L2689.7 72.576 L2682.24 72.576 L2682.24 45.4349 Q2682.24 38.994 2679.73 35.7938 Q2677.22 32.5936 2672.2 32.5936 Q2666.16 32.5936 2662.68 36.4419 Q2659.19 40.2903 2659.19 46.9338 L2659.19 72.576 L2651.7 72.576 L2651.7 27.2059 L2659.19 27.2059 L2659.19 34.2544 Q2661.87 30.163 2665.47 28.1376 Q2669.12 26.1121 2673.86 26.1121 Q2681.68 26.1121 2685.69 30.9732 Q2689.7 35.7938 2689.7 45.1919 Z" fill="#000000" fill-rule="evenodd" fill-opacity="1" /><path clip-path="url(#clip480)" d="M2711.94 14.324 L2711.94 27.2059 L2727.29 27.2059 L2727.29 32.9987 L2711.94 32.9987 L2711.94 57.6282 Q2711.94 63.1779 2713.44 64.7578 Q2714.97 66.3376 2719.63 66.3376 L2727.29 66.3376 L2727.29 72.576 L2719.63 72.576 Q2711.01 72.576 2707.72 69.3758 Q2704.44 66.1351 2704.44 57.6282 L2704.44 32.9987 L2698.97 32.9987 L2698.97 27.2059 L2704.44 27.2059 L2704.44 14.324 L2711.94 14.324 Z" fill="#000000" fill-rule="evenodd" fill-opacity="1" /><polyline clip-path="url(#clip483)" style="stroke:#0000ff; stroke-linecap:butt; stroke-linejoin:round; stroke-width:8; stroke-opacity:0.7; fill:none" points="
  1824.86,174.106 1846.71,197.324 1868.56,222.618 1890.41,238.76 1912.27,261.378 1934.12,279.14 1955.97,297.568 1977.82,316.64 1999.67,329.703 2021.52,349.801 
  2043.37,363.526 2065.22,384.582 2087.07,398.921 2108.93,413.49 2130.78,428.283 2152.63,450.868 2174.48,466.177 2196.33,481.675 2218.18,497.354 2240.03,513.202 
  2261.88,529.211 2283.73,545.37 2305.59,561.668 2327.44,578.095 2349.29,594.641 2371.14,611.295 2392.99,636.455 2414.84,653.333 2436.69,670.282 2458.54,687.291 
  2480.4,704.351 2502.25,721.451 2524.1,738.581 2545.95,755.73 2567.8,772.89 2589.65,790.05 2611.5,807.201 2633.35,824.334 2655.2,849.979 2677.06,867.027 
  2698.91,884.025 2720.76,900.967 2742.61,917.843 2764.46,934.646 2786.31,959.697 2808.16,976.286 2830.01,992.778 2851.87,1009.16 2873.72,1033.54 2895.57,1049.64 
  2917.42,1065.62 2939.27,1089.34 2961.12,1104.98 2982.97,1120.49 3004.82,1143.47 3026.67,1158.6 3048.53,1181.02 3070.38,1195.76 3092.23,1217.58 3114.08,1231.91 
  
  "/>
<path clip-path="url(#clip480)" d="
M177.121 2663.65 L1543.69 2663.65 L1543.69 1542.37 L177.121 1542.37  Z
  " fill="#ffffff" fill-rule="evenodd" fill-opacity="1"/>
<defs>
  <clipPath id="clip484">
    <rect x="177" y="1542" width="1368" height="1122"/>
  </clipPath>
</defs>
<polyline clip-path="url(#clip484)" style="stroke:#000000; stroke-linecap:butt; stroke-linejoin:round; stroke-width:2; stroke-opacity:0.1; fill:none" points="
  406.793,2663.65 406.793,1542.37 
  "/>
<polyline clip-path="url(#clip484)" style="stroke:#000000; stroke-linecap:butt; stroke-linejoin:round; stroke-width:2; stroke-opacity:0.1; fill:none" points="
  645.538,2663.65 645.538,1542.37 
  "/>
<polyline clip-path="url(#clip484)" style="stroke:#000000; stroke-linecap:butt; stroke-linejoin:round; stroke-width:2; stroke-opacity:0.1; fill:none" points="
  884.282,2663.65 884.282,1542.37 
  "/>
<polyline clip-path="url(#clip484)" style="stroke:#000000; stroke-linecap:butt; stroke-linejoin:round; stroke-width:2; stroke-opacity:0.1; fill:none" points="
  1123.03,2663.65 1123.03,1542.37 
  "/>
<polyline clip-path="url(#clip484)" style="stroke:#000000; stroke-linecap:butt; stroke-linejoin:round; stroke-width:2; stroke-opacity:0.1; fill:none" points="
  1361.77,2663.65 1361.77,1542.37 
  "/>
<polyline clip-path="url(#clip480)" style="stroke:#000000; stroke-linecap:butt; stroke-linejoin:round; stroke-width:4; stroke-opacity:1; fill:none" points="
  177.121,2663.65 1543.69,2663.65 
  "/>
<polyline clip-path="url(#clip480)" style="stroke:#000000; stroke-linecap:butt; stroke-linejoin:round; stroke-width:4; stroke-opacity:1; fill:none" points="
  406.793,2663.65 406.793,2644.75 
  "/>
<polyline clip-path="url(#clip480)" style="stroke:#000000; stroke-linecap:butt; stroke-linejoin:round; stroke-width:4; stroke-opacity:1; fill:none" points="
  645.538,2663.65 645.538,2644.75 
  "/>
<polyline clip-path="url(#clip480)" style="stroke:#000000; stroke-linecap:butt; stroke-linejoin:round; stroke-width:4; stroke-opacity:1; fill:none" points="
  884.282,2663.65 884.282,2644.75 
  "/>
<polyline clip-path="url(#clip480)" style="stroke:#000000; stroke-linecap:butt; stroke-linejoin:round; stroke-width:4; stroke-opacity:1; fill:none" points="
  1123.03,2663.65 1123.03,2644.75 
  "/>
<polyline clip-path="url(#clip480)" style="stroke:#000000; stroke-linecap:butt; stroke-linejoin:round; stroke-width:4; stroke-opacity:1; fill:none" points="
  1361.77,2663.65 1361.77,2644.75 
  "/>
<path clip-path="url(#clip480)" d="M386.064 2726.78 L402.384 2726.78 L402.384 2730.72 L380.439 2730.72 L380.439 2726.78 Q383.101 2724.03 387.685 2719.4 Q392.291 2714.75 393.472 2713.41 Q395.717 2710.88 396.597 2709.15 Q397.499 2707.39 397.499 2705.7 Q397.499 2702.94 395.555 2701.21 Q393.634 2699.47 390.532 2699.47 Q388.333 2699.47 385.879 2700.23 Q383.449 2701 380.671 2702.55 L380.671 2697.83 Q383.495 2696.69 385.948 2696.11 Q388.402 2695.53 390.439 2695.53 Q395.81 2695.53 399.004 2698.22 Q402.198 2700.91 402.198 2705.4 Q402.198 2707.53 401.388 2709.45 Q400.601 2711.34 398.495 2713.94 Q397.916 2714.61 394.814 2717.83 Q391.712 2721.02 386.064 2726.78 Z" fill="#000000" fill-rule="evenodd" fill-opacity="1" /><path clip-path="url(#clip480)" d="M412.245 2696.16 L430.601 2696.16 L430.601 2700.1 L416.527 2700.1 L416.527 2708.57 Q417.546 2708.22 418.564 2708.06 Q419.583 2707.87 420.601 2707.87 Q426.388 2707.87 429.768 2711.04 Q433.147 2714.22 433.147 2719.63 Q433.147 2725.21 429.675 2728.31 Q426.203 2731.39 419.884 2731.39 Q417.708 2731.39 415.439 2731.02 Q413.194 2730.65 410.786 2729.91 L410.786 2725.21 Q412.87 2726.34 415.092 2726.9 Q417.314 2727.46 419.791 2727.46 Q423.796 2727.46 426.133 2725.35 Q428.471 2723.24 428.471 2719.63 Q428.471 2716.02 426.133 2713.91 Q423.796 2711.81 419.791 2711.81 Q417.916 2711.81 416.041 2712.22 Q414.189 2712.64 412.245 2713.52 L412.245 2696.16 Z" fill="#000000" fill-rule="evenodd" fill-opacity="1" /><path clip-path="url(#clip480)" d="M620.237 2696.16 L638.593 2696.16 L638.593 2700.1 L624.519 2700.1 L624.519 2708.57 Q625.538 2708.22 626.556 2708.06 Q627.575 2707.87 628.593 2707.87 Q634.38 2707.87 637.76 2711.04 Q641.139 2714.22 641.139 2719.63 Q641.139 2725.21 637.667 2728.31 Q634.195 2731.39 627.876 2731.39 Q625.7 2731.39 623.431 2731.02 Q621.186 2730.65 618.778 2729.91 L618.778 2725.21 Q620.862 2726.34 623.084 2726.9 Q625.306 2727.46 627.783 2727.46 Q631.788 2727.46 634.126 2725.35 Q636.464 2723.24 636.464 2719.63 Q636.464 2716.02 634.126 2713.91 Q631.788 2711.81 627.783 2711.81 Q625.908 2711.81 624.033 2712.22 Q622.181 2712.64 620.237 2713.52 L620.237 2696.16 Z" fill="#000000" fill-rule="evenodd" fill-opacity="1" /><path clip-path="url(#clip480)" d="M660.352 2699.24 Q656.741 2699.24 654.913 2702.8 Q653.107 2706.35 653.107 2713.47 Q653.107 2720.58 654.913 2724.15 Q656.741 2727.69 660.352 2727.69 Q663.987 2727.69 665.792 2724.15 Q667.621 2720.58 667.621 2713.47 Q667.621 2706.35 665.792 2702.8 Q663.987 2699.24 660.352 2699.24 M660.352 2695.53 Q666.162 2695.53 669.218 2700.14 Q672.297 2704.72 672.297 2713.47 Q672.297 2722.2 669.218 2726.81 Q666.162 2731.39 660.352 2731.39 Q654.542 2731.39 651.463 2726.81 Q648.408 2722.2 648.408 2713.47 Q648.408 2704.72 651.463 2700.14 Q654.542 2695.53 660.352 2695.53 Z" fill="#000000" fill-rule="evenodd" fill-opacity="1" /><path clip-path="url(#clip480)" d="M858.136 2696.16 L880.358 2696.16 L880.358 2698.15 L867.812 2730.72 L862.928 2730.72 L874.733 2700.1 L858.136 2700.1 L858.136 2696.16 Z" fill="#000000" fill-rule="evenodd" fill-opacity="1" /><path clip-path="url(#clip480)" d="M889.525 2696.16 L907.881 2696.16 L907.881 2700.1 L893.807 2700.1 L893.807 2708.57 Q894.826 2708.22 895.844 2708.06 Q896.863 2707.87 897.881 2707.87 Q903.668 2707.87 907.048 2711.04 Q910.428 2714.22 910.428 2719.63 Q910.428 2725.21 906.955 2728.31 Q903.483 2731.39 897.164 2731.39 Q894.988 2731.39 892.719 2731.02 Q890.474 2730.65 888.067 2729.91 L888.067 2725.21 Q890.15 2726.34 892.372 2726.9 Q894.594 2727.46 897.071 2727.46 Q901.076 2727.46 903.414 2725.35 Q905.752 2723.24 905.752 2719.63 Q905.752 2716.02 903.414 2713.91 Q901.076 2711.81 897.071 2711.81 Q895.196 2711.81 893.321 2712.22 Q891.469 2712.64 889.525 2713.52 L889.525 2696.16 Z" fill="#000000" fill-rule="evenodd" fill-opacity="1" /><path clip-path="url(#clip480)" d="M1082.63 2726.78 L1090.27 2726.78 L1090.27 2700.42 L1081.96 2702.09 L1081.96 2697.83 L1090.23 2696.16 L1094.9 2696.16 L1094.9 2726.78 L1102.54 2726.78 L1102.54 2730.72 L1082.63 2730.72 L1082.63 2726.78 Z" fill="#000000" fill-rule="evenodd" fill-opacity="1" /><path clip-path="url(#clip480)" d="M1121.98 2699.24 Q1118.37 2699.24 1116.54 2702.8 Q1114.74 2706.35 1114.74 2713.47 Q1114.74 2720.58 1116.54 2724.15 Q1118.37 2727.69 1121.98 2727.69 Q1125.62 2727.69 1127.42 2724.15 Q1129.25 2720.58 1129.25 2713.47 Q1129.25 2706.35 1127.42 2702.8 Q1125.62 2699.24 1121.98 2699.24 M1121.98 2695.53 Q1127.79 2695.53 1130.85 2700.14 Q1133.93 2704.72 1133.93 2713.47 Q1133.93 2722.2 1130.85 2726.81 Q1127.79 2731.39 1121.98 2731.39 Q1116.17 2731.39 1113.1 2726.81 Q1110.04 2722.2 1110.04 2713.47 Q1110.04 2704.72 1113.1 2700.14 Q1116.17 2695.53 1121.98 2695.53 Z" fill="#000000" fill-rule="evenodd" fill-opacity="1" /><path clip-path="url(#clip480)" d="M1152.15 2699.24 Q1148.54 2699.24 1146.71 2702.8 Q1144.9 2706.35 1144.9 2713.47 Q1144.9 2720.58 1146.71 2724.15 Q1148.54 2727.69 1152.15 2727.69 Q1155.78 2727.69 1157.59 2724.15 Q1159.41 2720.58 1159.41 2713.47 Q1159.41 2706.35 1157.59 2702.8 Q1155.78 2699.24 1152.15 2699.24 M1152.15 2695.53 Q1157.96 2695.53 1161.01 2700.14 Q1164.09 2704.72 1164.09 2713.47 Q1164.09 2722.2 1161.01 2726.81 Q1157.96 2731.39 1152.15 2731.39 Q1146.34 2731.39 1143.26 2726.81 Q1140.2 2722.2 1140.2 2713.47 Q1140.2 2704.72 1143.26 2700.14 Q1146.34 2695.53 1152.15 2695.53 Z" fill="#000000" fill-rule="evenodd" fill-opacity="1" /><path clip-path="url(#clip480)" d="M1321.87 2726.78 L1329.51 2726.78 L1329.51 2700.42 L1321.2 2702.09 L1321.2 2697.83 L1329.47 2696.16 L1334.14 2696.16 L1334.14 2726.78 L1341.78 2726.78 L1341.78 2730.72 L1321.87 2730.72 L1321.87 2726.78 Z" fill="#000000" fill-rule="evenodd" fill-opacity="1" /><path clip-path="url(#clip480)" d="M1355.25 2726.78 L1371.57 2726.78 L1371.57 2730.72 L1349.63 2730.72 L1349.63 2726.78 Q1352.29 2724.03 1356.87 2719.4 Q1361.48 2714.75 1362.66 2713.41 Q1364.91 2710.88 1365.79 2709.15 Q1366.69 2707.39 1366.69 2705.7 Q1366.69 2702.94 1364.74 2701.21 Q1362.82 2699.47 1359.72 2699.47 Q1357.52 2699.47 1355.07 2700.23 Q1352.64 2701 1349.86 2702.55 L1349.86 2697.83 Q1352.68 2696.69 1355.14 2696.11 Q1357.59 2695.53 1359.63 2695.53 Q1365 2695.53 1368.19 2698.22 Q1371.39 2700.91 1371.39 2705.4 Q1371.39 2707.53 1370.58 2709.45 Q1369.79 2711.34 1367.68 2713.94 Q1367.11 2714.61 1364 2717.83 Q1360.9 2721.02 1355.25 2726.78 Z" fill="#000000" fill-rule="evenodd" fill-opacity="1" /><path clip-path="url(#clip480)" d="M1381.43 2696.16 L1399.79 2696.16 L1399.79 2700.1 L1385.72 2700.1 L1385.72 2708.57 Q1386.74 2708.22 1387.75 2708.06 Q1388.77 2707.87 1389.79 2707.87 Q1395.58 2707.87 1398.96 2711.04 Q1402.34 2714.22 1402.34 2719.63 Q1402.34 2725.21 1398.87 2728.31 Q1395.39 2731.39 1389.07 2731.39 Q1386.9 2731.39 1384.63 2731.02 Q1382.38 2730.65 1379.98 2729.91 L1379.98 2725.21 Q1382.06 2726.34 1384.28 2726.9 Q1386.5 2727.46 1388.98 2727.46 Q1392.99 2727.46 1395.32 2725.35 Q1397.66 2723.24 1397.66 2719.63 Q1397.66 2716.02 1395.32 2713.91 Q1392.99 2711.81 1388.98 2711.81 Q1387.11 2711.81 1385.23 2712.22 Q1383.38 2712.64 1381.43 2713.52 L1381.43 2696.16 Z" fill="#000000" fill-rule="evenodd" fill-opacity="1" /><polyline clip-path="url(#clip484)" style="stroke:#000000; stroke-linecap:butt; stroke-linejoin:round; stroke-width:2; stroke-opacity:0.1; fill:none" points="
  177.121,2636.44 1543.69,2636.44 
  "/>
<polyline clip-path="url(#clip484)" style="stroke:#000000; stroke-linecap:butt; stroke-linejoin:round; stroke-width:2; stroke-opacity:0.1; fill:none" points="
  177.121,2413.32 1543.69,2413.32 
  "/>
<polyline clip-path="url(#clip484)" style="stroke:#000000; stroke-linecap:butt; stroke-linejoin:round; stroke-width:2; stroke-opacity:0.1; fill:none" points="
  177.121,2190.2 1543.69,2190.2 
  "/>
<polyline clip-path="url(#clip484)" style="stroke:#000000; stroke-linecap:butt; stroke-linejoin:round; stroke-width:2; stroke-opacity:0.1; fill:none" points="
  177.121,1967.08 1543.69,1967.08 
  "/>
<polyline clip-path="url(#clip484)" style="stroke:#000000; stroke-linecap:butt; stroke-linejoin:round; stroke-width:2; stroke-opacity:0.1; fill:none" points="
  177.121,1743.96 1543.69,1743.96 
  "/>
<polyline clip-path="url(#clip480)" style="stroke:#000000; stroke-linecap:butt; stroke-linejoin:round; stroke-width:4; stroke-opacity:1; fill:none" points="
  177.121,2663.65 177.121,1542.37 
  "/>
<polyline clip-path="url(#clip480)" style="stroke:#000000; stroke-linecap:butt; stroke-linejoin:round; stroke-width:4; stroke-opacity:1; fill:none" points="
  177.121,2636.44 196.019,2636.44 
  "/>
<polyline clip-path="url(#clip480)" style="stroke:#000000; stroke-linecap:butt; stroke-linejoin:round; stroke-width:4; stroke-opacity:1; fill:none" points="
  177.121,2413.32 196.019,2413.32 
  "/>
<polyline clip-path="url(#clip480)" style="stroke:#000000; stroke-linecap:butt; stroke-linejoin:round; stroke-width:4; stroke-opacity:1; fill:none" points="
  177.121,2190.2 196.019,2190.2 
  "/>
<polyline clip-path="url(#clip480)" style="stroke:#000000; stroke-linecap:butt; stroke-linejoin:round; stroke-width:4; stroke-opacity:1; fill:none" points="
  177.121,1967.08 196.019,1967.08 
  "/>
<polyline clip-path="url(#clip480)" style="stroke:#000000; stroke-linecap:butt; stroke-linejoin:round; stroke-width:4; stroke-opacity:1; fill:none" points="
  177.121,1743.96 196.019,1743.96 
  "/>
<path clip-path="url(#clip480)" d="M117.177 2622.24 Q113.566 2622.24 111.737 2625.81 Q109.932 2629.35 109.932 2636.48 Q109.932 2643.59 111.737 2647.15 Q113.566 2650.69 117.177 2650.69 Q120.811 2650.69 122.617 2647.15 Q124.445 2643.59 124.445 2636.48 Q124.445 2629.35 122.617 2625.81 Q120.811 2622.24 117.177 2622.24 M117.177 2618.54 Q122.987 2618.54 126.043 2623.15 Q129.121 2627.73 129.121 2636.48 Q129.121 2645.21 126.043 2649.81 Q122.987 2654.4 117.177 2654.4 Q111.367 2654.4 108.288 2649.81 Q105.233 2645.21 105.233 2636.48 Q105.233 2627.73 108.288 2623.15 Q111.367 2618.54 117.177 2618.54 Z" fill="#000000" fill-rule="evenodd" fill-opacity="1" /><path clip-path="url(#clip480)" d="M82.0382 2426.67 L98.3576 2426.67 L98.3576 2430.6 L76.4133 2430.6 L76.4133 2426.67 Q79.0753 2423.91 83.6586 2419.28 Q88.2651 2414.63 89.4456 2413.29 Q91.691 2410.77 92.5706 2409.03 Q93.4734 2407.27 93.4734 2405.58 Q93.4734 2402.83 91.5289 2401.09 Q89.6076 2399.35 86.5058 2399.35 Q84.3067 2399.35 81.8531 2400.12 Q79.4225 2400.88 76.6447 2402.43 L76.6447 2397.71 Q79.4688 2396.58 81.9225 2396 Q84.3762 2395.42 86.4132 2395.42 Q91.7836 2395.42 94.978 2398.1 Q98.1724 2400.79 98.1724 2405.28 Q98.1724 2407.41 97.3622 2409.33 Q96.5752 2411.23 94.4687 2413.82 Q93.89 2414.49 90.7882 2417.71 Q87.6864 2420.9 82.0382 2426.67 Z" fill="#000000" fill-rule="evenodd" fill-opacity="1" /><path clip-path="url(#clip480)" d="M108.219 2396.04 L126.575 2396.04 L126.575 2399.98 L112.501 2399.98 L112.501 2408.45 Q113.52 2408.1 114.538 2407.94 Q115.557 2407.76 116.575 2407.76 Q122.362 2407.76 125.742 2410.93 Q129.121 2414.1 129.121 2419.52 Q129.121 2425.09 125.649 2428.2 Q122.177 2431.28 115.857 2431.28 Q113.682 2431.28 111.413 2430.9 Q109.168 2430.53 106.76 2429.79 L106.76 2425.09 Q108.844 2426.23 111.066 2426.78 Q113.288 2427.34 115.765 2427.34 Q119.77 2427.34 122.107 2425.23 Q124.445 2423.13 124.445 2419.52 Q124.445 2415.9 122.107 2413.8 Q119.77 2411.69 115.765 2411.69 Q113.89 2411.69 112.015 2412.11 Q110.163 2412.53 108.219 2413.4 L108.219 2396.04 Z" fill="#000000" fill-rule="evenodd" fill-opacity="1" /><path clip-path="url(#clip480)" d="M77.0614 2172.92 L95.4178 2172.92 L95.4178 2176.86 L81.3438 2176.86 L81.3438 2185.33 Q82.3623 2184.98 83.3808 2184.82 Q84.3993 2184.64 85.4178 2184.64 Q91.2049 2184.64 94.5845 2187.81 Q97.9641 2190.98 97.9641 2196.4 Q97.9641 2201.97 94.4919 2205.08 Q91.0197 2208.16 84.7003 2208.16 Q82.5243 2208.16 80.2558 2207.78 Q78.0105 2207.41 75.6031 2206.67 L75.6031 2201.97 Q77.6864 2203.11 79.9086 2203.66 Q82.1308 2204.22 84.6077 2204.22 Q88.6123 2204.22 90.9502 2202.11 Q93.2882 2200.01 93.2882 2196.4 Q93.2882 2192.78 90.9502 2190.68 Q88.6123 2188.57 84.6077 2188.57 Q82.7327 2188.57 80.8577 2188.99 Q79.0058 2189.41 77.0614 2190.28 L77.0614 2172.92 Z" fill="#000000" fill-rule="evenodd" fill-opacity="1" /><path clip-path="url(#clip480)" d="M117.177 2176 Q113.566 2176 111.737 2179.57 Q109.932 2183.11 109.932 2190.24 Q109.932 2197.35 111.737 2200.91 Q113.566 2204.45 117.177 2204.45 Q120.811 2204.45 122.617 2200.91 Q124.445 2197.35 124.445 2190.24 Q124.445 2183.11 122.617 2179.57 Q120.811 2176 117.177 2176 M117.177 2172.3 Q122.987 2172.3 126.043 2176.91 Q129.121 2181.49 129.121 2190.24 Q129.121 2198.97 126.043 2203.57 Q122.987 2208.16 117.177 2208.16 Q111.367 2208.16 108.288 2203.57 Q105.233 2198.97 105.233 2190.24 Q105.233 2181.49 108.288 2176.91 Q111.367 2172.3 117.177 2172.3 Z" fill="#000000" fill-rule="evenodd" fill-opacity="1" /><path clip-path="url(#clip480)" d="M76.8299 1949.8 L99.052 1949.8 L99.052 1951.79 L86.5058 1984.36 L81.6216 1984.36 L93.4271 1953.74 L76.8299 1953.74 L76.8299 1949.8 Z" fill="#000000" fill-rule="evenodd" fill-opacity="1" /><path clip-path="url(#clip480)" d="M108.219 1949.8 L126.575 1949.8 L126.575 1953.74 L112.501 1953.74 L112.501 1962.21 Q113.52 1961.86 114.538 1961.7 Q115.557 1961.52 116.575 1961.52 Q122.362 1961.52 125.742 1964.69 Q129.121 1967.86 129.121 1973.28 Q129.121 1978.85 125.649 1981.96 Q122.177 1985.04 115.857 1985.04 Q113.682 1985.04 111.413 1984.66 Q109.168 1984.29 106.76 1983.55 L106.76 1978.85 Q108.844 1979.99 111.066 1980.54 Q113.288 1981.1 115.765 1981.1 Q119.77 1981.1 122.107 1978.99 Q124.445 1976.89 124.445 1973.28 Q124.445 1969.66 122.107 1967.56 Q119.77 1965.45 115.765 1965.45 Q113.89 1965.45 112.015 1965.87 Q110.163 1966.29 108.219 1967.16 L108.219 1949.8 Z" fill="#000000" fill-rule="evenodd" fill-opacity="1" /><path clip-path="url(#clip480)" d="M47.6634 1757.31 L55.3023 1757.31 L55.3023 1730.94 L46.9921 1732.61 L46.9921 1728.35 L55.256 1726.68 L59.9319 1726.68 L59.9319 1757.31 L67.5707 1757.31 L67.5707 1761.24 L47.6634 1761.24 L47.6634 1757.31 Z" fill="#000000" fill-rule="evenodd" fill-opacity="1" /><path clip-path="url(#clip480)" d="M87.0151 1729.76 Q83.404 1729.76 81.5753 1733.33 Q79.7697 1736.87 79.7697 1744 Q79.7697 1751.11 81.5753 1754.67 Q83.404 1758.21 87.0151 1758.21 Q90.6493 1758.21 92.4548 1754.67 Q94.2835 1751.11 94.2835 1744 Q94.2835 1736.87 92.4548 1733.33 Q90.6493 1729.76 87.0151 1729.76 M87.0151 1726.06 Q92.8252 1726.06 95.8808 1730.67 Q98.9594 1735.25 98.9594 1744 Q98.9594 1752.73 95.8808 1757.33 Q92.8252 1761.92 87.0151 1761.92 Q81.2049 1761.92 78.1262 1757.33 Q75.0707 1752.73 75.0707 1744 Q75.0707 1735.25 78.1262 1730.67 Q81.2049 1726.06 87.0151 1726.06 Z" fill="#000000" fill-rule="evenodd" fill-opacity="1" /><path clip-path="url(#clip480)" d="M117.177 1729.76 Q113.566 1729.76 111.737 1733.33 Q109.932 1736.87 109.932 1744 Q109.932 1751.11 111.737 1754.67 Q113.566 1758.21 117.177 1758.21 Q120.811 1758.21 122.617 1754.67 Q124.445 1751.11 124.445 1744 Q124.445 1736.87 122.617 1733.33 Q120.811 1729.76 117.177 1729.76 M117.177 1726.06 Q122.987 1726.06 126.043 1730.67 Q129.121 1735.25 129.121 1744 Q129.121 1752.73 126.043 1757.33 Q122.987 1761.92 117.177 1761.92 Q111.367 1761.92 108.288 1757.33 Q105.233 1752.73 105.233 1744 Q105.233 1735.25 108.288 1730.67 Q111.367 1726.06 117.177 1726.06 Z" fill="#000000" fill-rule="evenodd" fill-opacity="1" /><path clip-path="url(#clip480)" d="M793.203 1412.1 L844.366 1412.1 L844.366 1418.98 L822.896 1418.98 L822.896 1472.58 L814.673 1472.58 L814.673 1418.98 L793.203 1418.98 L793.203 1412.1 Z" fill="#000000" fill-rule="evenodd" fill-opacity="1" /><path clip-path="url(#clip480)" d="M858.828 1449.77 Q849.794 1449.77 846.31 1451.84 Q842.826 1453.9 842.826 1458.88 Q842.826 1462.85 845.419 1465.2 Q848.052 1467.51 852.549 1467.51 Q858.747 1467.51 862.473 1463.14 Q866.241 1458.72 866.241 1451.43 L866.241 1449.77 L858.828 1449.77 M873.694 1446.69 L873.694 1472.58 L866.241 1472.58 L866.241 1465.69 Q863.689 1469.82 859.881 1471.81 Q856.073 1473.75 850.564 1473.75 Q843.596 1473.75 839.464 1469.86 Q835.373 1465.93 835.373 1459.37 Q835.373 1451.71 840.477 1447.82 Q845.622 1443.94 855.789 1443.94 L866.241 1443.94 L866.241 1443.21 Q866.241 1438.06 862.838 1435.27 Q859.476 1432.43 853.359 1432.43 Q849.47 1432.43 845.784 1433.36 Q842.097 1434.29 838.695 1436.16 L838.695 1429.27 Q842.786 1427.69 846.634 1426.92 Q850.483 1426.11 854.128 1426.11 Q863.972 1426.11 868.833 1431.22 Q873.694 1436.32 873.694 1446.69 Z" fill="#000000" fill-rule="evenodd" fill-opacity="1" /><path clip-path="url(#clip480)" d="M926.761 1427.21 L910.355 1449.28 L927.612 1472.58 L918.821 1472.58 L905.615 1454.75 L892.41 1472.58 L883.619 1472.58 L901.24 1448.84 L885.118 1427.21 L893.908 1427.21 L905.94 1443.37 L917.971 1427.21 L926.761 1427.21 Z" fill="#000000" fill-rule="evenodd" fill-opacity="1" /><polyline clip-path="url(#clip484)" style="stroke:#0000ff; stroke-linecap:butt; stroke-linejoin:round; stroke-width:8; stroke-opacity:0.7; fill:none" points="
  215.798,2631.91 237.649,2628.77 259.5,2624.94 281.351,2620.85 303.203,2615.82 325.054,2610.64 346.905,2604.87 368.756,2598.57 390.607,2592.42 412.458,2584.85 
  434.31,2577.82 456.161,2569 478.012,2560.94 499.863,2552.42 521.714,2543.43 543.565,2532.07 565.417,2521.97 587.268,2511.38 609.119,2500.29 630.97,2488.69 
  652.821,2476.58 674.672,2463.96 696.524,2450.82 718.375,2437.17 740.226,2422.99 762.077,2408.13 783.928,2389.94 805.779,2373.78 827.631,2357.39 849.482,2340.47 
  871.333,2323.05 893.184,2305.11 915.035,2286.66 936.886,2267.71 958.738,2248.25 980.589,2228.3 1002.44,2207.86 1024.29,2186.93 1046.14,2160.56 1067.99,2138.57 
  1089.84,2116.12 1111.7,2093.21 1133.55,2069.85 1155.4,2046.06 1177.25,2016.27 1199.1,1991.52 1220.95,1966.37 1242.8,1940.81 1264.65,1908.99 1286.51,1882.59 
  1308.36,1855.81 1330.21,1822.61 1352.06,1795.06 1373.91,1767.16 1395.76,1732.75 1417.61,1704.15 1439.46,1669 1461.31,1639.76 1483.17,1603.94 1505.02,1574.11 
  
  "/>
<path clip-path="url(#clip480)" d="
M1786.18 2663.65 L3152.76 2663.65 L3152.76 1542.37 L1786.18 1542.37  Z
  " fill="#ffffff" fill-rule="evenodd" fill-opacity="1"/>
<defs>
  <clipPath id="clip485">
    <rect x="1786" y="1542" width="1368" height="1122"/>
  </clipPath>
</defs>
<polyline clip-path="url(#clip485)" style="stroke:#000000; stroke-linecap:butt; stroke-linejoin:round; stroke-width:2; stroke-opacity:0.1; fill:none" points="
  2015.86,2663.65 2015.86,1542.37 
  "/>
<polyline clip-path="url(#clip485)" style="stroke:#000000; stroke-linecap:butt; stroke-linejoin:round; stroke-width:2; stroke-opacity:0.1; fill:none" points="
  2254.6,2663.65 2254.6,1542.37 
  "/>
<polyline clip-path="url(#clip485)" style="stroke:#000000; stroke-linecap:butt; stroke-linejoin:round; stroke-width:2; stroke-opacity:0.1; fill:none" points="
  2493.34,2663.65 2493.34,1542.37 
  "/>
<polyline clip-path="url(#clip485)" style="stroke:#000000; stroke-linecap:butt; stroke-linejoin:round; stroke-width:2; stroke-opacity:0.1; fill:none" points="
  2732.09,2663.65 2732.09,1542.37 
  "/>
<polyline clip-path="url(#clip485)" style="stroke:#000000; stroke-linecap:butt; stroke-linejoin:round; stroke-width:2; stroke-opacity:0.1; fill:none" points="
  2970.83,2663.65 2970.83,1542.37 
  "/>
<polyline clip-path="url(#clip480)" style="stroke:#000000; stroke-linecap:butt; stroke-linejoin:round; stroke-width:4; stroke-opacity:1; fill:none" points="
  1786.18,2663.65 3152.76,2663.65 
  "/>
<polyline clip-path="url(#clip480)" style="stroke:#000000; stroke-linecap:butt; stroke-linejoin:round; stroke-width:4; stroke-opacity:1; fill:none" points="
  2015.86,2663.65 2015.86,2644.75 
  "/>
<polyline clip-path="url(#clip480)" style="stroke:#000000; stroke-linecap:butt; stroke-linejoin:round; stroke-width:4; stroke-opacity:1; fill:none" points="
  2254.6,2663.65 2254.6,2644.75 
  "/>
<polyline clip-path="url(#clip480)" style="stroke:#000000; stroke-linecap:butt; stroke-linejoin:round; stroke-width:4; stroke-opacity:1; fill:none" points="
  2493.34,2663.65 2493.34,2644.75 
  "/>
<polyline clip-path="url(#clip480)" style="stroke:#000000; stroke-linecap:butt; stroke-linejoin:round; stroke-width:4; stroke-opacity:1; fill:none" points="
  2732.09,2663.65 2732.09,2644.75 
  "/>
<polyline clip-path="url(#clip480)" style="stroke:#000000; stroke-linecap:butt; stroke-linejoin:round; stroke-width:4; stroke-opacity:1; fill:none" points="
  2970.83,2663.65 2970.83,2644.75 
  "/>
<path clip-path="url(#clip480)" d="M1995.13 2726.78 L2011.45 2726.78 L2011.45 2730.72 L1989.5 2730.72 L1989.5 2726.78 Q1992.16 2724.03 1996.75 2719.4 Q2001.35 2714.75 2002.53 2713.41 Q2004.78 2710.88 2005.66 2709.15 Q2006.56 2707.39 2006.56 2705.7 Q2006.56 2702.94 2004.62 2701.21 Q2002.7 2699.47 1999.59 2699.47 Q1997.4 2699.47 1994.94 2700.23 Q1992.51 2701 1989.73 2702.55 L1989.73 2697.83 Q1992.56 2696.69 1995.01 2696.11 Q1997.46 2695.53 1999.5 2695.53 Q2004.87 2695.53 2008.07 2698.22 Q2011.26 2700.91 2011.26 2705.4 Q2011.26 2707.53 2010.45 2709.45 Q2009.66 2711.34 2007.56 2713.94 Q2006.98 2714.61 2003.88 2717.83 Q2000.77 2721.02 1995.13 2726.78 Z" fill="#000000" fill-rule="evenodd" fill-opacity="1" /><path clip-path="url(#clip480)" d="M2021.31 2696.16 L2039.66 2696.16 L2039.66 2700.1 L2025.59 2700.1 L2025.59 2708.57 Q2026.61 2708.22 2027.63 2708.06 Q2028.65 2707.87 2029.66 2707.87 Q2035.45 2707.87 2038.83 2711.04 Q2042.21 2714.22 2042.21 2719.63 Q2042.21 2725.21 2038.74 2728.31 Q2035.27 2731.39 2028.95 2731.39 Q2026.77 2731.39 2024.5 2731.02 Q2022.26 2730.65 2019.85 2729.91 L2019.85 2725.21 Q2021.93 2726.34 2024.15 2726.9 Q2026.38 2727.46 2028.85 2727.46 Q2032.86 2727.46 2035.2 2725.35 Q2037.53 2723.24 2037.53 2719.63 Q2037.53 2716.02 2035.2 2713.91 Q2032.86 2711.81 2028.85 2711.81 Q2026.98 2711.81 2025.1 2712.22 Q2023.25 2712.64 2021.31 2713.52 L2021.31 2696.16 Z" fill="#000000" fill-rule="evenodd" fill-opacity="1" /><path clip-path="url(#clip480)" d="M2229.3 2696.16 L2247.66 2696.16 L2247.66 2700.1 L2233.58 2700.1 L2233.58 2708.57 Q2234.6 2708.22 2235.62 2708.06 Q2236.64 2707.87 2237.66 2707.87 Q2243.44 2707.87 2246.82 2711.04 Q2250.2 2714.22 2250.2 2719.63 Q2250.2 2725.21 2246.73 2728.31 Q2243.26 2731.39 2236.94 2731.39 Q2234.76 2731.39 2232.49 2731.02 Q2230.25 2730.65 2227.84 2729.91 L2227.84 2725.21 Q2229.92 2726.34 2232.15 2726.9 Q2234.37 2727.46 2236.85 2727.46 Q2240.85 2727.46 2243.19 2725.35 Q2245.53 2723.24 2245.53 2719.63 Q2245.53 2716.02 2243.19 2713.91 Q2240.85 2711.81 2236.85 2711.81 Q2234.97 2711.81 2233.1 2712.22 Q2231.24 2712.64 2229.3 2713.52 L2229.3 2696.16 Z" fill="#000000" fill-rule="evenodd" fill-opacity="1" /><path clip-path="url(#clip480)" d="M2269.41 2699.24 Q2265.8 2699.24 2263.97 2702.8 Q2262.17 2706.35 2262.17 2713.47 Q2262.17 2720.58 2263.97 2724.15 Q2265.8 2727.69 2269.41 2727.69 Q2273.05 2727.69 2274.85 2724.15 Q2276.68 2720.58 2276.68 2713.47 Q2276.68 2706.35 2274.85 2702.8 Q2273.05 2699.24 2269.41 2699.24 M2269.41 2695.53 Q2275.22 2695.53 2278.28 2700.14 Q2281.36 2704.72 2281.36 2713.47 Q2281.36 2722.2 2278.28 2726.81 Q2275.22 2731.39 2269.41 2731.39 Q2263.6 2731.39 2260.53 2726.81 Q2257.47 2722.2 2257.47 2713.47 Q2257.47 2704.72 2260.53 2700.14 Q2263.6 2695.53 2269.41 2695.53 Z" fill="#000000" fill-rule="evenodd" fill-opacity="1" /><path clip-path="url(#clip480)" d="M2467.2 2696.16 L2489.42 2696.16 L2489.42 2698.15 L2476.87 2730.72 L2471.99 2730.72 L2483.8 2700.1 L2467.2 2700.1 L2467.2 2696.16 Z" fill="#000000" fill-rule="evenodd" fill-opacity="1" /><path clip-path="url(#clip480)" d="M2498.59 2696.16 L2516.94 2696.16 L2516.94 2700.1 L2502.87 2700.1 L2502.87 2708.57 Q2503.89 2708.22 2504.91 2708.06 Q2505.93 2707.87 2506.94 2707.87 Q2512.73 2707.87 2516.11 2711.04 Q2519.49 2714.22 2519.49 2719.63 Q2519.49 2725.21 2516.02 2728.31 Q2512.55 2731.39 2506.23 2731.39 Q2504.05 2731.39 2501.78 2731.02 Q2499.54 2730.65 2497.13 2729.91 L2497.13 2725.21 Q2499.21 2726.34 2501.43 2726.9 Q2503.66 2727.46 2506.13 2727.46 Q2510.14 2727.46 2512.48 2725.35 Q2514.81 2723.24 2514.81 2719.63 Q2514.81 2716.02 2512.48 2713.91 Q2510.14 2711.81 2506.13 2711.81 Q2504.26 2711.81 2502.38 2712.22 Q2500.53 2712.64 2498.59 2713.52 L2498.59 2696.16 Z" fill="#000000" fill-rule="evenodd" fill-opacity="1" /><path clip-path="url(#clip480)" d="M2691.7 2726.78 L2699.33 2726.78 L2699.33 2700.42 L2691.02 2702.09 L2691.02 2697.83 L2699.29 2696.16 L2703.96 2696.16 L2703.96 2726.78 L2711.6 2726.78 L2711.6 2730.72 L2691.7 2730.72 L2691.7 2726.78 Z" fill="#000000" fill-rule="evenodd" fill-opacity="1" /><path clip-path="url(#clip480)" d="M2731.05 2699.24 Q2727.44 2699.24 2725.61 2702.8 Q2723.8 2706.35 2723.8 2713.47 Q2723.8 2720.58 2725.61 2724.15 Q2727.44 2727.69 2731.05 2727.69 Q2734.68 2727.69 2736.49 2724.15 Q2738.32 2720.58 2738.32 2713.47 Q2738.32 2706.35 2736.49 2702.8 Q2734.68 2699.24 2731.05 2699.24 M2731.05 2695.53 Q2736.86 2695.53 2739.91 2700.14 Q2742.99 2704.72 2742.99 2713.47 Q2742.99 2722.2 2739.91 2726.81 Q2736.86 2731.39 2731.05 2731.39 Q2725.24 2731.39 2722.16 2726.81 Q2719.1 2722.2 2719.1 2713.47 Q2719.1 2704.72 2722.16 2700.14 Q2725.24 2695.53 2731.05 2695.53 Z" fill="#000000" fill-rule="evenodd" fill-opacity="1" /><path clip-path="url(#clip480)" d="M2761.21 2699.24 Q2757.6 2699.24 2755.77 2702.8 Q2753.96 2706.35 2753.96 2713.47 Q2753.96 2720.58 2755.77 2724.15 Q2757.6 2727.69 2761.21 2727.69 Q2764.84 2727.69 2766.65 2724.15 Q2768.48 2720.58 2768.48 2713.47 Q2768.48 2706.35 2766.65 2702.8 Q2764.84 2699.24 2761.21 2699.24 M2761.21 2695.53 Q2767.02 2695.53 2770.07 2700.14 Q2773.15 2704.72 2773.15 2713.47 Q2773.15 2722.2 2770.07 2726.81 Q2767.02 2731.39 2761.21 2731.39 Q2755.4 2731.39 2752.32 2726.81 Q2749.26 2722.2 2749.26 2713.47 Q2749.26 2704.72 2752.32 2700.14 Q2755.4 2695.53 2761.21 2695.53 Z" fill="#000000" fill-rule="evenodd" fill-opacity="1" /><path clip-path="url(#clip480)" d="M2930.94 2726.78 L2938.58 2726.78 L2938.58 2700.42 L2930.27 2702.09 L2930.27 2697.83 L2938.53 2696.16 L2943.21 2696.16 L2943.21 2726.78 L2950.84 2726.78 L2950.84 2730.72 L2930.94 2730.72 L2930.94 2726.78 Z" fill="#000000" fill-rule="evenodd" fill-opacity="1" /><path clip-path="url(#clip480)" d="M2964.32 2726.78 L2980.64 2726.78 L2980.64 2730.72 L2958.69 2730.72 L2958.69 2726.78 Q2961.35 2724.03 2965.94 2719.4 Q2970.54 2714.75 2971.72 2713.41 Q2973.97 2710.88 2974.85 2709.15 Q2975.75 2707.39 2975.75 2705.7 Q2975.75 2702.94 2973.81 2701.21 Q2971.89 2699.47 2968.78 2699.47 Q2966.59 2699.47 2964.13 2700.23 Q2961.7 2701 2958.92 2702.55 L2958.92 2697.83 Q2961.75 2696.69 2964.2 2696.11 Q2966.65 2695.53 2968.69 2695.53 Q2974.06 2695.53 2977.26 2698.22 Q2980.45 2700.91 2980.45 2705.4 Q2980.45 2707.53 2979.64 2709.45 Q2978.85 2711.34 2976.75 2713.94 Q2976.17 2714.61 2973.07 2717.83 Q2969.96 2721.02 2964.32 2726.78 Z" fill="#000000" fill-rule="evenodd" fill-opacity="1" /><path clip-path="url(#clip480)" d="M2990.5 2696.16 L3008.85 2696.16 L3008.85 2700.1 L2994.78 2700.1 L2994.78 2708.57 Q2995.8 2708.22 2996.82 2708.06 Q2997.83 2707.87 2998.85 2707.87 Q3004.64 2707.87 3008.02 2711.04 Q3011.4 2714.22 3011.4 2719.63 Q3011.4 2725.21 3007.93 2728.31 Q3004.46 2731.39 2998.14 2731.39 Q2995.96 2731.39 2993.69 2731.02 Q2991.45 2730.65 2989.04 2729.91 L2989.04 2725.21 Q2991.12 2726.34 2993.34 2726.9 Q2995.57 2727.46 2998.04 2727.46 Q3002.05 2727.46 3004.39 2725.35 Q3006.72 2723.24 3006.72 2719.63 Q3006.72 2716.02 3004.39 2713.91 Q3002.05 2711.81 2998.04 2711.81 Q2996.17 2711.81 2994.29 2712.22 Q2992.44 2712.64 2990.5 2713.52 L2990.5 2696.16 Z" fill="#000000" fill-rule="evenodd" fill-opacity="1" /><polyline clip-path="url(#clip485)" style="stroke:#000000; stroke-linecap:butt; stroke-linejoin:round; stroke-width:2; stroke-opacity:0.1; fill:none" points="
  1786.18,2452.05 3152.76,2452.05 
  "/>
<polyline clip-path="url(#clip485)" style="stroke:#000000; stroke-linecap:butt; stroke-linejoin:round; stroke-width:2; stroke-opacity:0.1; fill:none" points="
  1786.18,2210.57 3152.76,2210.57 
  "/>
<polyline clip-path="url(#clip485)" style="stroke:#000000; stroke-linecap:butt; stroke-linejoin:round; stroke-width:2; stroke-opacity:0.1; fill:none" points="
  1786.18,1969.09 3152.76,1969.09 
  "/>
<polyline clip-path="url(#clip485)" style="stroke:#000000; stroke-linecap:butt; stroke-linejoin:round; stroke-width:2; stroke-opacity:0.1; fill:none" points="
  1786.18,1727.61 3152.76,1727.61 
  "/>
<polyline clip-path="url(#clip480)" style="stroke:#000000; stroke-linecap:butt; stroke-linejoin:round; stroke-width:4; stroke-opacity:1; fill:none" points="
  1786.18,2663.65 1786.18,1542.37 
  "/>
<polyline clip-path="url(#clip480)" style="stroke:#000000; stroke-linecap:butt; stroke-linejoin:round; stroke-width:4; stroke-opacity:1; fill:none" points="
  1786.18,2452.05 1805.08,2452.05 
  "/>
<polyline clip-path="url(#clip480)" style="stroke:#000000; stroke-linecap:butt; stroke-linejoin:round; stroke-width:4; stroke-opacity:1; fill:none" points="
  1786.18,2210.57 1805.08,2210.57 
  "/>
<polyline clip-path="url(#clip480)" style="stroke:#000000; stroke-linecap:butt; stroke-linejoin:round; stroke-width:4; stroke-opacity:1; fill:none" points="
  1786.18,1969.09 1805.08,1969.09 
  "/>
<polyline clip-path="url(#clip480)" style="stroke:#000000; stroke-linecap:butt; stroke-linejoin:round; stroke-width:4; stroke-opacity:1; fill:none" points="
  1786.18,1727.61 1805.08,1727.61 
  "/>
<path clip-path="url(#clip480)" d="M1653.69 2438.84 L1641.89 2457.29 L1653.69 2457.29 L1653.69 2438.84 M1652.47 2434.77 L1658.35 2434.77 L1658.35 2457.29 L1663.28 2457.29 L1663.28 2461.18 L1658.35 2461.18 L1658.35 2469.33 L1653.69 2469.33 L1653.69 2461.18 L1638.09 2461.18 L1638.09 2456.67 L1652.47 2434.77 Z" fill="#000000" fill-rule="evenodd" fill-opacity="1" /><path clip-path="url(#clip480)" d="M1681.01 2452.92 Q1677.67 2452.92 1675.75 2454.7 Q1673.86 2456.48 1673.86 2459.61 Q1673.86 2462.73 1675.75 2464.51 Q1677.67 2466.3 1681.01 2466.3 Q1684.34 2466.3 1686.26 2464.51 Q1688.18 2462.71 1688.18 2459.61 Q1688.18 2456.48 1686.26 2454.7 Q1684.36 2452.92 1681.01 2452.92 M1676.33 2450.93 Q1673.32 2450.19 1671.63 2448.13 Q1669.97 2446.07 1669.97 2443.1 Q1669.97 2438.96 1672.91 2436.55 Q1675.87 2434.14 1681.01 2434.14 Q1686.17 2434.14 1689.11 2436.55 Q1692.05 2438.96 1692.05 2443.1 Q1692.05 2446.07 1690.36 2448.13 Q1688.69 2450.19 1685.71 2450.93 Q1689.09 2451.71 1690.96 2454 Q1692.86 2456.3 1692.86 2459.61 Q1692.86 2464.63 1689.78 2467.31 Q1686.73 2470 1681.01 2470 Q1675.29 2470 1672.21 2467.31 Q1669.16 2464.63 1669.16 2459.61 Q1669.16 2456.3 1671.05 2454 Q1672.95 2451.71 1676.33 2450.93 M1674.62 2443.54 Q1674.62 2446.23 1676.29 2447.73 Q1677.98 2449.24 1681.01 2449.24 Q1684.02 2449.24 1685.71 2447.73 Q1687.42 2446.23 1687.42 2443.54 Q1687.42 2440.86 1685.71 2439.35 Q1684.02 2437.85 1681.01 2437.85 Q1677.98 2437.85 1676.29 2439.35 Q1674.62 2440.86 1674.62 2443.54 Z" fill="#000000" fill-rule="evenodd" fill-opacity="1" /><path clip-path="url(#clip480)" d="M1701.17 2463.45 L1706.05 2463.45 L1706.05 2469.33 L1701.17 2469.33 L1701.17 2463.45 Z" fill="#000000" fill-rule="evenodd" fill-opacity="1" /><path clip-path="url(#clip480)" d="M1726.24 2437.85 Q1722.63 2437.85 1720.8 2441.41 Q1718.99 2444.95 1718.99 2452.08 Q1718.99 2459.19 1720.8 2462.75 Q1722.63 2466.3 1726.24 2466.3 Q1729.87 2466.3 1731.68 2462.75 Q1733.51 2459.19 1733.51 2452.08 Q1733.51 2444.95 1731.68 2441.41 Q1729.87 2437.85 1726.24 2437.85 M1726.24 2434.14 Q1732.05 2434.14 1735.11 2438.75 Q1738.18 2443.33 1738.18 2452.08 Q1738.18 2460.81 1735.11 2465.42 Q1732.05 2470 1726.24 2470 Q1720.43 2470 1717.35 2465.42 Q1714.3 2460.81 1714.3 2452.08 Q1714.3 2443.33 1717.35 2438.75 Q1720.43 2434.14 1726.24 2434.14 Z" fill="#000000" fill-rule="evenodd" fill-opacity="1" /><path clip-path="url(#clip480)" d="M1654.34 2197.36 L1642.54 2215.81 L1654.34 2215.81 L1654.34 2197.36 M1653.11 2193.29 L1658.99 2193.29 L1658.99 2215.81 L1663.92 2215.81 L1663.92 2219.7 L1658.99 2219.7 L1658.99 2227.85 L1654.34 2227.85 L1654.34 2219.7 L1638.74 2219.7 L1638.74 2215.19 L1653.11 2193.29 Z" fill="#000000" fill-rule="evenodd" fill-opacity="1" /><path clip-path="url(#clip480)" d="M1681.66 2211.44 Q1678.32 2211.44 1676.4 2213.22 Q1674.5 2215 1674.5 2218.13 Q1674.5 2221.25 1676.4 2223.03 Q1678.32 2224.82 1681.66 2224.82 Q1684.99 2224.82 1686.91 2223.03 Q1688.83 2221.23 1688.83 2218.13 Q1688.83 2215 1686.91 2213.22 Q1685.01 2211.44 1681.66 2211.44 M1676.98 2209.45 Q1673.97 2208.71 1672.28 2206.65 Q1670.61 2204.59 1670.61 2201.62 Q1670.61 2197.48 1673.55 2195.07 Q1676.52 2192.66 1681.66 2192.66 Q1686.82 2192.66 1689.76 2195.07 Q1692.7 2197.48 1692.7 2201.62 Q1692.7 2204.59 1691.01 2206.65 Q1689.34 2208.71 1686.36 2209.45 Q1689.73 2210.23 1691.61 2212.53 Q1693.51 2214.82 1693.51 2218.13 Q1693.51 2223.15 1690.43 2225.84 Q1687.37 2228.52 1681.66 2228.52 Q1675.94 2228.52 1672.86 2225.84 Q1669.8 2223.15 1669.8 2218.13 Q1669.8 2214.82 1671.7 2212.53 Q1673.6 2210.23 1676.98 2209.45 M1675.27 2202.06 Q1675.27 2204.75 1676.93 2206.25 Q1678.62 2207.76 1681.66 2207.76 Q1684.67 2207.76 1686.36 2206.25 Q1688.07 2204.75 1688.07 2202.06 Q1688.07 2199.38 1686.36 2197.87 Q1684.67 2196.37 1681.66 2196.37 Q1678.62 2196.37 1676.93 2197.87 Q1675.27 2199.38 1675.27 2202.06 Z" fill="#000000" fill-rule="evenodd" fill-opacity="1" /><path clip-path="url(#clip480)" d="M1701.82 2221.97 L1706.7 2221.97 L1706.7 2227.85 L1701.82 2227.85 L1701.82 2221.97 Z" fill="#000000" fill-rule="evenodd" fill-opacity="1" /><path clip-path="url(#clip480)" d="M1731.05 2209.21 Q1734.41 2209.93 1736.29 2212.2 Q1738.18 2214.47 1738.18 2217.8 Q1738.18 2222.92 1734.67 2225.72 Q1731.15 2228.52 1724.67 2228.52 Q1722.49 2228.52 1720.17 2228.08 Q1717.88 2227.66 1715.43 2226.81 L1715.43 2222.29 Q1717.37 2223.43 1719.69 2224.01 Q1722 2224.59 1724.53 2224.59 Q1728.92 2224.59 1731.22 2222.85 Q1733.53 2221.11 1733.53 2217.8 Q1733.53 2214.75 1731.38 2213.03 Q1729.25 2211.3 1725.43 2211.3 L1721.4 2211.3 L1721.4 2207.46 L1725.61 2207.46 Q1729.06 2207.46 1730.89 2206.09 Q1732.72 2204.7 1732.72 2202.11 Q1732.72 2199.45 1730.82 2198.03 Q1728.95 2196.6 1725.43 2196.6 Q1723.51 2196.6 1721.31 2197.02 Q1719.11 2197.43 1716.47 2198.31 L1716.47 2194.15 Q1719.13 2193.4 1721.45 2193.03 Q1723.79 2192.66 1725.85 2192.66 Q1731.17 2192.66 1734.27 2195.09 Q1737.37 2197.5 1737.37 2201.62 Q1737.37 2204.49 1735.73 2206.48 Q1734.09 2208.45 1731.05 2209.21 Z" fill="#000000" fill-rule="evenodd" fill-opacity="1" /><path clip-path="url(#clip480)" d="M1653.53 1955.88 L1641.73 1974.33 L1653.53 1974.33 L1653.53 1955.88 M1652.3 1951.81 L1658.18 1951.81 L1658.18 1974.33 L1663.11 1974.33 L1663.11 1978.22 L1658.18 1978.22 L1658.18 1986.37 L1653.53 1986.37 L1653.53 1978.22 L1637.93 1978.22 L1637.93 1973.71 L1652.3 1951.81 Z" fill="#000000" fill-rule="evenodd" fill-opacity="1" /><path clip-path="url(#clip480)" d="M1680.85 1969.96 Q1677.51 1969.96 1675.59 1971.74 Q1673.69 1973.52 1673.69 1976.65 Q1673.69 1979.77 1675.59 1981.55 Q1677.51 1983.34 1680.85 1983.34 Q1684.18 1983.34 1686.1 1981.55 Q1688.02 1979.75 1688.02 1976.65 Q1688.02 1973.52 1686.1 1971.74 Q1684.2 1969.96 1680.85 1969.96 M1676.17 1967.97 Q1673.16 1967.23 1671.47 1965.17 Q1669.8 1963.11 1669.8 1960.14 Q1669.8 1956 1672.74 1953.59 Q1675.71 1951.18 1680.85 1951.18 Q1686.01 1951.18 1688.95 1953.59 Q1691.89 1956 1691.89 1960.14 Q1691.89 1963.11 1690.2 1965.17 Q1688.53 1967.23 1685.55 1967.97 Q1688.92 1968.75 1690.8 1971.05 Q1692.7 1973.34 1692.7 1976.65 Q1692.7 1981.67 1689.62 1984.36 Q1686.56 1987.04 1680.85 1987.04 Q1675.13 1987.04 1672.05 1984.36 Q1668.99 1981.67 1668.99 1976.65 Q1668.99 1973.34 1670.89 1971.05 Q1672.79 1968.75 1676.17 1967.97 M1674.46 1960.58 Q1674.46 1963.27 1676.12 1964.77 Q1677.81 1966.28 1680.85 1966.28 Q1683.86 1966.28 1685.55 1964.77 Q1687.26 1963.27 1687.26 1960.58 Q1687.26 1957.9 1685.55 1956.39 Q1683.86 1954.89 1680.85 1954.89 Q1677.81 1954.89 1676.12 1956.39 Q1674.46 1957.9 1674.46 1960.58 Z" fill="#000000" fill-rule="evenodd" fill-opacity="1" /><path clip-path="url(#clip480)" d="M1701.01 1980.49 L1705.89 1980.49 L1705.89 1986.37 L1701.01 1986.37 L1701.01 1980.49 Z" fill="#000000" fill-rule="evenodd" fill-opacity="1" /><path clip-path="url(#clip480)" d="M1726.66 1967.23 Q1723.51 1967.23 1721.66 1969.38 Q1719.83 1971.53 1719.83 1975.28 Q1719.83 1979.01 1721.66 1981.18 Q1723.51 1983.34 1726.66 1983.34 Q1729.8 1983.34 1731.63 1981.18 Q1733.48 1979.01 1733.48 1975.28 Q1733.48 1971.53 1731.63 1969.38 Q1729.8 1967.23 1726.66 1967.23 M1735.94 1952.57 L1735.94 1956.83 Q1734.18 1956 1732.37 1955.56 Q1730.59 1955.12 1728.83 1955.12 Q1724.2 1955.12 1721.75 1958.24 Q1719.32 1961.37 1718.97 1967.69 Q1720.34 1965.68 1722.4 1964.61 Q1724.46 1963.52 1726.93 1963.52 Q1732.14 1963.52 1735.15 1966.69 Q1738.18 1969.84 1738.18 1975.28 Q1738.18 1980.61 1735.04 1983.82 Q1731.89 1987.04 1726.66 1987.04 Q1720.66 1987.04 1717.49 1982.46 Q1714.32 1977.85 1714.32 1969.12 Q1714.32 1960.93 1718.21 1956.07 Q1722.1 1951.18 1728.65 1951.18 Q1730.41 1951.18 1732.19 1951.53 Q1733.99 1951.88 1735.94 1952.57 Z" fill="#000000" fill-rule="evenodd" fill-opacity="1" /><path clip-path="url(#clip480)" d="M1653.88 1714.4 L1642.07 1732.85 L1653.88 1732.85 L1653.88 1714.4 M1652.65 1710.33 L1658.53 1710.33 L1658.53 1732.85 L1663.46 1732.85 L1663.46 1736.74 L1658.53 1736.74 L1658.53 1744.89 L1653.88 1744.89 L1653.88 1736.74 L1638.28 1736.74 L1638.28 1732.23 L1652.65 1710.33 Z" fill="#000000" fill-rule="evenodd" fill-opacity="1" /><path clip-path="url(#clip480)" d="M1681.19 1728.48 Q1677.86 1728.48 1675.94 1730.26 Q1674.04 1732.04 1674.04 1735.17 Q1674.04 1738.29 1675.94 1740.08 Q1677.86 1741.86 1681.19 1741.86 Q1684.53 1741.86 1686.45 1740.08 Q1688.37 1738.27 1688.37 1735.17 Q1688.37 1732.04 1686.45 1730.26 Q1684.55 1728.48 1681.19 1728.48 M1676.52 1726.49 Q1673.51 1725.75 1671.82 1723.69 Q1670.15 1721.63 1670.15 1718.66 Q1670.15 1714.52 1673.09 1712.11 Q1676.05 1709.7 1681.19 1709.7 Q1686.36 1709.7 1689.3 1712.11 Q1692.23 1714.52 1692.23 1718.66 Q1692.23 1721.63 1690.55 1723.69 Q1688.88 1725.75 1685.89 1726.49 Q1689.27 1727.27 1691.15 1729.57 Q1693.05 1731.86 1693.05 1735.17 Q1693.05 1740.19 1689.97 1742.88 Q1686.91 1745.56 1681.19 1745.56 Q1675.48 1745.56 1672.4 1742.88 Q1669.34 1740.19 1669.34 1735.17 Q1669.34 1731.86 1671.24 1729.57 Q1673.14 1727.27 1676.52 1726.49 M1674.8 1719.1 Q1674.8 1721.79 1676.47 1723.29 Q1678.16 1724.8 1681.19 1724.8 Q1684.2 1724.8 1685.89 1723.29 Q1687.61 1721.79 1687.61 1719.1 Q1687.61 1716.42 1685.89 1714.91 Q1684.2 1713.41 1681.19 1713.41 Q1678.16 1713.41 1676.47 1714.91 Q1674.8 1716.42 1674.8 1719.1 Z" fill="#000000" fill-rule="evenodd" fill-opacity="1" /><path clip-path="url(#clip480)" d="M1701.36 1739.01 L1706.24 1739.01 L1706.24 1744.89 L1701.36 1744.89 L1701.36 1739.01 Z" fill="#000000" fill-rule="evenodd" fill-opacity="1" /><path clip-path="url(#clip480)" d="M1716.56 1744.17 L1716.56 1739.91 Q1718.32 1740.75 1720.13 1741.19 Q1721.93 1741.63 1723.67 1741.63 Q1728.3 1741.63 1730.73 1738.52 Q1733.18 1735.4 1733.53 1729.06 Q1732.19 1731.05 1730.13 1732.11 Q1728.07 1733.18 1725.57 1733.18 Q1720.38 1733.18 1717.35 1730.05 Q1714.34 1726.9 1714.34 1721.46 Q1714.34 1716.14 1717.49 1712.92 Q1720.64 1709.7 1725.87 1709.7 Q1731.86 1709.7 1735.01 1714.31 Q1738.18 1718.89 1738.18 1727.64 Q1738.18 1735.82 1734.29 1740.7 Q1730.43 1745.56 1723.88 1745.56 Q1722.12 1745.56 1720.31 1745.21 Q1718.51 1744.87 1716.56 1744.17 M1725.87 1729.52 Q1729.02 1729.52 1730.85 1727.37 Q1732.7 1725.21 1732.7 1721.46 Q1732.7 1717.74 1730.85 1715.58 Q1729.02 1713.41 1725.87 1713.41 Q1722.72 1713.41 1720.87 1715.58 Q1719.04 1717.74 1719.04 1721.46 Q1719.04 1725.21 1720.87 1727.37 Q1722.72 1729.52 1725.87 1729.52 Z" fill="#000000" fill-rule="evenodd" fill-opacity="1" /><path clip-path="url(#clip480)" d="M2315.74 1412.1 L2324 1412.1 L2336.72 1463.22 L2349.4 1412.1 L2358.6 1412.1 L2371.32 1463.22 L2384 1412.1 L2392.3 1412.1 L2377.11 1472.58 L2366.82 1472.58 L2354.06 1420.08 L2341.18 1472.58 L2330.89 1472.58 L2315.74 1412.1 Z" fill="#000000" fill-rule="evenodd" fill-opacity="1" /><path clip-path="url(#clip480)" d="M2436.78 1448.03 L2436.78 1451.67 L2402.51 1451.67 Q2402.99 1459.37 2407.13 1463.42 Q2411.3 1467.43 2418.71 1467.43 Q2423.01 1467.43 2427.02 1466.38 Q2431.07 1465.32 2435.04 1463.22 L2435.04 1470.27 Q2431.03 1471.97 2426.81 1472.86 Q2422.6 1473.75 2418.27 1473.75 Q2407.41 1473.75 2401.05 1467.43 Q2394.73 1461.11 2394.73 1450.34 Q2394.73 1439.2 2400.73 1432.67 Q2406.76 1426.11 2416.97 1426.11 Q2426.13 1426.11 2431.43 1432.03 Q2436.78 1437.9 2436.78 1448.03 M2429.33 1445.84 Q2429.24 1439.72 2425.88 1436.08 Q2422.56 1432.43 2417.05 1432.43 Q2410.81 1432.43 2407.05 1435.96 Q2403.32 1439.48 2402.75 1445.88 L2429.33 1445.84 Z" fill="#000000" fill-rule="evenodd" fill-opacity="1" /><path clip-path="url(#clip480)" d="M2449.01 1409.54 L2456.47 1409.54 L2456.47 1472.58 L2449.01 1472.58 L2449.01 1409.54 Z" fill="#000000" fill-rule="evenodd" fill-opacity="1" /><path clip-path="url(#clip480)" d="M2495.03 1409.54 L2495.03 1415.74 L2487.9 1415.74 Q2483.89 1415.74 2482.31 1417.36 Q2480.77 1418.98 2480.77 1423.2 L2480.77 1427.21 L2493.05 1427.21 L2493.05 1433 L2480.77 1433 L2480.77 1472.58 L2473.28 1472.58 L2473.28 1433 L2466.15 1433 L2466.15 1427.21 L2473.28 1427.21 L2473.28 1424.05 Q2473.28 1416.47 2476.8 1413.03 Q2480.33 1409.54 2487.98 1409.54 L2495.03 1409.54 Z" fill="#000000" fill-rule="evenodd" fill-opacity="1" /><path clip-path="url(#clip480)" d="M2521.89 1449.77 Q2512.86 1449.77 2509.37 1451.84 Q2505.89 1453.9 2505.89 1458.88 Q2505.89 1462.85 2508.48 1465.2 Q2511.11 1467.51 2515.61 1467.51 Q2521.81 1467.51 2525.53 1463.14 Q2529.3 1458.72 2529.3 1451.43 L2529.3 1449.77 L2521.89 1449.77 M2536.76 1446.69 L2536.76 1472.58 L2529.3 1472.58 L2529.3 1465.69 Q2526.75 1469.82 2522.94 1471.81 Q2519.13 1473.75 2513.62 1473.75 Q2506.66 1473.75 2502.53 1469.86 Q2498.43 1465.93 2498.43 1459.37 Q2498.43 1451.71 2503.54 1447.82 Q2508.68 1443.94 2518.85 1443.94 L2529.3 1443.94 L2529.3 1443.21 Q2529.3 1438.06 2525.9 1435.27 Q2522.54 1432.43 2516.42 1432.43 Q2512.53 1432.43 2508.84 1433.36 Q2505.16 1434.29 2501.76 1436.16 L2501.76 1429.27 Q2505.85 1427.69 2509.7 1426.92 Q2513.54 1426.11 2517.19 1426.11 Q2527.03 1426.11 2531.89 1431.22 Q2536.76 1436.32 2536.76 1446.69 Z" fill="#000000" fill-rule="evenodd" fill-opacity="1" /><path clip-path="url(#clip480)" d="M2578.4 1434.17 Q2577.14 1433.44 2575.64 1433.12 Q2574.19 1432.76 2572.4 1432.76 Q2566.08 1432.76 2562.68 1436.89 Q2559.32 1440.98 2559.32 1448.68 L2559.32 1472.58 L2551.82 1472.58 L2551.82 1427.21 L2559.32 1427.21 L2559.32 1434.25 Q2561.67 1430.12 2565.44 1428.14 Q2569.2 1426.11 2574.59 1426.11 Q2575.36 1426.11 2576.29 1426.23 Q2577.22 1426.31 2578.36 1426.52 L2578.4 1434.17 Z" fill="#000000" fill-rule="evenodd" fill-opacity="1" /><path clip-path="url(#clip480)" d="M2623.2 1448.03 L2623.2 1451.67 L2588.93 1451.67 Q2589.42 1459.37 2593.55 1463.42 Q2597.72 1467.43 2605.13 1467.43 Q2609.43 1467.43 2613.44 1466.38 Q2617.49 1465.32 2621.46 1463.22 L2621.46 1470.27 Q2617.45 1471.97 2613.24 1472.86 Q2609.02 1473.75 2604.69 1473.75 Q2593.83 1473.75 2587.47 1467.43 Q2581.15 1461.11 2581.15 1450.34 Q2581.15 1439.2 2587.15 1432.67 Q2593.18 1426.11 2603.39 1426.11 Q2612.55 1426.11 2617.85 1432.03 Q2623.2 1437.9 2623.2 1448.03 M2615.75 1445.84 Q2615.67 1439.72 2612.3 1436.08 Q2608.98 1432.43 2603.47 1432.43 Q2597.24 1432.43 2593.47 1435.96 Q2589.74 1439.48 2589.17 1445.88 L2615.75 1445.84 Z" fill="#000000" fill-rule="evenodd" fill-opacity="1" /><polyline clip-path="url(#clip485)" style="stroke:#0000ff; stroke-linecap:butt; stroke-linejoin:round; stroke-width:8; stroke-opacity:0.7; fill:none" points="
  1824.86,2495.2 1846.71,2245.05 1868.56,2092.12 1890.41,1991.42 1912.27,1915.42 1934.12,1857.22 1955.97,1810.81 1977.82,1772.76 1999.67,1740.82 2021.52,1714.76 
  2043.37,1691.35 2065.22,1673.07 2087.07,1655.66 2108.93,1640.57 2130.78,1627.46 2152.63,1618.9 2174.48,1609.23 2196.33,1600.97 2218.18,1593.99 2240.03,1588.17 
  2261.88,1583.43 2283.73,1579.71 2305.59,1576.95 2327.44,1575.09 2349.29,1574.11 2371.14,1574.26 2392.99,1579.44 2414.84,1581.67 2436.69,1584.2 2458.54,1587.53 
  2480.4,1591.67 2502.25,1596.6 2524.1,1602.35 2545.95,1608.92 2567.8,1616.34 2589.65,1624.63 2611.5,1633.82 2633.35,1643.94 2655.2,1664.72 2677.06,1677.33 
  2698.91,1691.04 2720.76,1705.92 2742.61,1722.05 2764.46,1739.52 2786.31,1772.19 2808.16,1793.4 2830.01,1816.34 2851.87,1841.16 2873.72,1886.25 2895.57,1916.55 
  2917.42,1949.45 2939.27,2008.53 2961.12,2049.24 2982.97,2093.73 3004.82,2173.29 3026.67,2229.57 3048.53,2330.47 3070.38,2403.3 3092.23,2534.75 3114.08,2631.91 
  
  "/>
</svg>
