<?xml version="1.0" encoding="utf-8"?>
<svg xmlns="http://www.w3.org/2000/svg" xmlns:xlink="http://www.w3.org/1999/xlink" width="600" height="400" viewBox="0 0 2400 1600">
<defs>
  <clipPath id="clip200">
    <rect x="0" y="0" width="2400" height="1600"/>
  </clipPath>
</defs>
<path clip-path="url(#clip200)" d="
M0 1600 L2400 1600 L2400 0 L0 0  Z
  " fill="#ffffff" fill-rule="evenodd" fill-opacity="1"/>
<defs>
  <clipPath id="clip201">
    <rect x="480" y="0" width="1681" height="1600"/>
  </clipPath>
</defs>
<defs>
  <clipPath id="clip202">
    <rect x="256" y="47" width="2098" height="1377"/>
  </clipPath>
</defs>
<path clip-path="url(#clip200)" d="
M256.556 1423.18 L2352.76 1423.18 L2352.76 47.2441 L256.556 47.2441  Z
  " fill="#ffffff" fill-rule="evenodd" fill-opacity="1"/>
<defs>
  <clipPath id="clip203">
    <rect x="256" y="47" width="2097" height="1377"/>
  </clipPath>
</defs>
<polyline clip-path="url(#clip203)" style="stroke:#000000; stroke-linecap:butt; stroke-linejoin:round; stroke-width:2; stroke-opacity:0.1; fill:none" points="
  275.524,1423.18 275.524,47.2441 
  "/>
<polyline clip-path="url(#clip203)" style="stroke:#000000; stroke-linecap:butt; stroke-linejoin:round; stroke-width:2; stroke-opacity:0.1; fill:none" points="
  679.105,1423.18 679.105,47.2441 
  "/>
<polyline clip-path="url(#clip203)" style="stroke:#000000; stroke-linecap:butt; stroke-linejoin:round; stroke-width:2; stroke-opacity:0.1; fill:none" points="
  1082.69,1423.18 1082.69,47.2441 
  "/>
<polyline clip-path="url(#clip203)" style="stroke:#000000; stroke-linecap:butt; stroke-linejoin:round; stroke-width:2; stroke-opacity:0.1; fill:none" points="
  1486.27,1423.18 1486.27,47.2441 
  "/>
<polyline clip-path="url(#clip203)" style="stroke:#000000; stroke-linecap:butt; stroke-linejoin:round; stroke-width:2; stroke-opacity:0.1; fill:none" points="
  1889.85,1423.18 1889.85,47.2441 
  "/>
<polyline clip-path="url(#clip203)" style="stroke:#000000; stroke-linecap:butt; stroke-linejoin:round; stroke-width:2; stroke-opacity:0.1; fill:none" points="
  2293.43,1423.18 2293.43,47.2441 
  "/>
<polyline clip-path="url(#clip200)" style="stroke:#000000; stroke-linecap:butt; stroke-linejoin:round; stroke-width:4; stroke-opacity:1; fill:none" points="
  256.556,1423.18 2352.76,1423.18 
  "/>
<polyline clip-path="url(#clip200)" style="stroke:#000000; stroke-linecap:butt; stroke-linejoin:round; stroke-width:4; stroke-opacity:1; fill:none" points="
  275.524,1423.18 275.524,1404.28 
  "/>
<polyline clip-path="url(#clip200)" style="stroke:#000000; stroke-linecap:butt; stroke-linejoin:round; stroke-width:4; stroke-opacity:1; fill:none" points="
  679.105,1423.18 679.105,1404.28 
  "/>
<polyline clip-path="url(#clip200)" style="stroke:#000000; stroke-linecap:butt; stroke-linejoin:round; stroke-width:4; stroke-opacity:1; fill:none" points="
  1082.69,1423.18 1082.69,1404.28 
  "/>
<polyline clip-path="url(#clip200)" style="stroke:#000000; stroke-linecap:butt; stroke-linejoin:round; stroke-width:4; stroke-opacity:1; fill:none" points="
  1486.27,1423.18 1486.27,1404.28 
  "/>
<polyline clip-path="url(#clip200)" style="stroke:#000000; stroke-linecap:butt; stroke-linejoin:round; stroke-width:4; stroke-opacity:1; fill:none" points="
  1889.85,1423.18 1889.85,1404.28 
  "/>
<polyline clip-path="url(#clip200)" style="stroke:#000000; stroke-linecap:butt; stroke-linejoin:round; stroke-width:4; stroke-opacity:1; fill:none" points="
  2293.43,1423.18 2293.43,1404.28 
  "/>
<path clip-path="url(#clip200)" d="M275.524 1454.1 Q271.913 1454.1 270.084 1457.66 Q268.279 1461.2 268.279 1468.33 Q268.279 1475.44 270.084 1479.01 Q271.913 1482.55 275.524 1482.55 Q279.158 1482.55 280.964 1479.01 Q282.793 1475.44 282.793 1468.33 Q282.793 1461.2 280.964 1457.66 Q279.158 1454.1 275.524 1454.1 M275.524 1450.39 Q281.334 1450.39 284.39 1455 Q287.469 1459.58 287.469 1468.33 Q287.469 1477.06 284.39 1481.67 Q281.334 1486.25 275.524 1486.25 Q269.714 1486.25 266.635 1481.67 Q263.58 1477.06 263.58 1468.33 Q263.58 1459.58 266.635 1455 Q269.714 1450.39 275.524 1450.39 Z" fill="#000000" fill-rule="evenodd" fill-opacity="1" /><path clip-path="url(#clip200)" d="M653.793 1481.64 L661.432 1481.64 L661.432 1455.28 L653.122 1456.95 L653.122 1452.69 L661.385 1451.02 L666.061 1451.02 L666.061 1481.64 L673.7 1481.64 L673.7 1485.58 L653.793 1485.58 L653.793 1481.64 Z" fill="#000000" fill-rule="evenodd" fill-opacity="1" /><path clip-path="url(#clip200)" d="M693.145 1454.1 Q689.533 1454.1 687.705 1457.66 Q685.899 1461.2 685.899 1468.33 Q685.899 1475.44 687.705 1479.01 Q689.533 1482.55 693.145 1482.55 Q696.779 1482.55 698.584 1479.01 Q700.413 1475.44 700.413 1468.33 Q700.413 1461.2 698.584 1457.66 Q696.779 1454.1 693.145 1454.1 M693.145 1450.39 Q698.955 1450.39 702.01 1455 Q705.089 1459.58 705.089 1468.33 Q705.089 1477.06 702.01 1481.67 Q698.955 1486.25 693.145 1486.25 Q687.334 1486.25 684.256 1481.67 Q681.2 1477.06 681.2 1468.33 Q681.2 1459.58 684.256 1455 Q687.334 1450.39 693.145 1450.39 Z" fill="#000000" fill-rule="evenodd" fill-opacity="1" /><path clip-path="url(#clip200)" d="M1061.46 1481.64 L1077.78 1481.64 L1077.78 1485.58 L1055.83 1485.58 L1055.83 1481.64 Q1058.5 1478.89 1063.08 1474.26 Q1067.69 1469.61 1068.87 1468.27 Q1071.11 1465.74 1071.99 1464.01 Q1072.89 1462.25 1072.89 1460.56 Q1072.89 1457.8 1070.95 1456.07 Q1069.03 1454.33 1065.93 1454.33 Q1063.73 1454.33 1061.27 1455.09 Q1058.84 1455.86 1056.07 1457.41 L1056.07 1452.69 Q1058.89 1451.55 1061.34 1450.97 Q1063.8 1450.39 1065.83 1450.39 Q1071.2 1450.39 1074.4 1453.08 Q1077.59 1455.77 1077.59 1460.26 Q1077.59 1462.39 1076.78 1464.31 Q1076 1466.2 1073.89 1468.8 Q1073.31 1469.47 1070.21 1472.69 Q1067.11 1475.88 1061.46 1481.64 Z" fill="#000000" fill-rule="evenodd" fill-opacity="1" /><path clip-path="url(#clip200)" d="M1097.59 1454.1 Q1093.98 1454.1 1092.15 1457.66 Q1090.35 1461.2 1090.35 1468.33 Q1090.35 1475.44 1092.15 1479.01 Q1093.98 1482.55 1097.59 1482.55 Q1101.23 1482.55 1103.03 1479.01 Q1104.86 1475.44 1104.86 1468.33 Q1104.86 1461.2 1103.03 1457.66 Q1101.23 1454.1 1097.59 1454.1 M1097.59 1450.39 Q1103.4 1450.39 1106.46 1455 Q1109.54 1459.58 1109.54 1468.33 Q1109.54 1477.06 1106.46 1481.67 Q1103.4 1486.25 1097.59 1486.25 Q1091.78 1486.25 1088.7 1481.67 Q1085.65 1477.06 1085.65 1468.33 Q1085.65 1459.58 1088.7 1455 Q1091.78 1450.39 1097.59 1450.39 Z" fill="#000000" fill-rule="evenodd" fill-opacity="1" /><path clip-path="url(#clip200)" d="M1475.11 1466.95 Q1478.47 1467.66 1480.34 1469.93 Q1482.24 1472.2 1482.24 1475.53 Q1482.24 1480.65 1478.72 1483.45 Q1475.2 1486.25 1468.72 1486.25 Q1466.55 1486.25 1464.23 1485.81 Q1461.94 1485.39 1459.49 1484.54 L1459.49 1480.02 Q1461.43 1481.16 1463.74 1481.74 Q1466.06 1482.32 1468.58 1482.32 Q1472.98 1482.32 1475.27 1480.58 Q1477.59 1478.84 1477.59 1475.53 Q1477.59 1472.48 1475.43 1470.77 Q1473.3 1469.03 1469.49 1469.03 L1465.46 1469.03 L1465.46 1465.19 L1469.67 1465.19 Q1473.12 1465.19 1474.95 1463.82 Q1476.78 1462.43 1476.78 1459.84 Q1476.78 1457.18 1474.88 1455.77 Q1473 1454.33 1469.49 1454.33 Q1467.56 1454.33 1465.36 1454.75 Q1463.17 1455.16 1460.53 1456.04 L1460.53 1451.88 Q1463.19 1451.14 1465.5 1450.77 Q1467.84 1450.39 1469.9 1450.39 Q1475.23 1450.39 1478.33 1452.83 Q1481.43 1455.23 1481.43 1459.35 Q1481.43 1462.22 1479.79 1464.21 Q1478.14 1466.18 1475.11 1466.95 Z" fill="#000000" fill-rule="evenodd" fill-opacity="1" /><path clip-path="url(#clip200)" d="M1501.11 1454.1 Q1497.49 1454.1 1495.67 1457.66 Q1493.86 1461.2 1493.86 1468.33 Q1493.86 1475.44 1495.67 1479.01 Q1497.49 1482.55 1501.11 1482.55 Q1504.74 1482.55 1506.55 1479.01 Q1508.37 1475.44 1508.37 1468.33 Q1508.37 1461.2 1506.55 1457.66 Q1504.74 1454.1 1501.11 1454.1 M1501.11 1450.39 Q1506.92 1450.39 1509.97 1455 Q1513.05 1459.58 1513.05 1468.33 Q1513.05 1477.06 1509.97 1481.67 Q1506.92 1486.25 1501.11 1486.25 Q1495.3 1486.25 1492.22 1481.67 Q1489.16 1477.06 1489.16 1468.33 Q1489.16 1459.58 1492.22 1455 Q1495.3 1450.39 1501.11 1450.39 Z" fill="#000000" fill-rule="evenodd" fill-opacity="1" /><path clip-path="url(#clip200)" d="M1878.02 1455.09 L1866.21 1473.54 L1878.02 1473.54 L1878.02 1455.09 M1876.79 1451.02 L1882.67 1451.02 L1882.67 1473.54 L1887.6 1473.54 L1887.6 1477.43 L1882.67 1477.43 L1882.67 1485.58 L1878.02 1485.58 L1878.02 1477.43 L1862.42 1477.43 L1862.42 1472.92 L1876.79 1451.02 Z" fill="#000000" fill-rule="evenodd" fill-opacity="1" /><path clip-path="url(#clip200)" d="M1905.33 1454.1 Q1901.72 1454.1 1899.89 1457.66 Q1898.09 1461.2 1898.09 1468.33 Q1898.09 1475.44 1899.89 1479.01 Q1901.72 1482.55 1905.33 1482.55 Q1908.97 1482.55 1910.77 1479.01 Q1912.6 1475.44 1912.6 1468.33 Q1912.6 1461.2 1910.77 1457.66 Q1908.97 1454.1 1905.33 1454.1 M1905.33 1450.39 Q1911.14 1450.39 1914.2 1455 Q1917.28 1459.58 1917.28 1468.33 Q1917.28 1477.06 1914.2 1481.67 Q1911.14 1486.25 1905.33 1486.25 Q1899.52 1486.25 1896.45 1481.67 Q1893.39 1477.06 1893.39 1468.33 Q1893.39 1459.58 1896.45 1455 Q1899.52 1450.39 1905.33 1450.39 Z" fill="#000000" fill-rule="evenodd" fill-opacity="1" /><path clip-path="url(#clip200)" d="M2268.13 1451.02 L2286.49 1451.02 L2286.49 1454.96 L2272.41 1454.96 L2272.41 1463.43 Q2273.43 1463.08 2274.45 1462.92 Q2275.47 1462.73 2276.49 1462.73 Q2282.27 1462.73 2285.65 1465.9 Q2289.03 1469.08 2289.03 1474.49 Q2289.03 1480.07 2285.56 1483.17 Q2282.09 1486.25 2275.77 1486.25 Q2273.59 1486.25 2271.32 1485.88 Q2269.08 1485.51 2266.67 1484.77 L2266.67 1480.07 Q2268.75 1481.2 2270.98 1481.76 Q2273.2 1482.32 2275.67 1482.32 Q2279.68 1482.32 2282.02 1480.21 Q2284.36 1478.1 2284.36 1474.49 Q2284.36 1470.88 2282.02 1468.77 Q2279.68 1466.67 2275.67 1466.67 Q2273.8 1466.67 2271.92 1467.08 Q2270.07 1467.5 2268.13 1468.38 L2268.13 1451.02 Z" fill="#000000" fill-rule="evenodd" fill-opacity="1" /><path clip-path="url(#clip200)" d="M2308.24 1454.1 Q2304.63 1454.1 2302.8 1457.66 Q2301 1461.2 2301 1468.33 Q2301 1475.44 2302.8 1479.01 Q2304.63 1482.55 2308.24 1482.55 Q2311.88 1482.55 2313.68 1479.01 Q2315.51 1475.44 2315.51 1468.33 Q2315.51 1461.2 2313.68 1457.66 Q2311.88 1454.1 2308.24 1454.1 M2308.24 1450.39 Q2314.05 1450.39 2317.11 1455 Q2320.19 1459.58 2320.19 1468.33 Q2320.19 1477.06 2317.11 1481.67 Q2314.05 1486.25 2308.24 1486.25 Q2302.43 1486.25 2299.36 1481.67 Q2296.3 1477.06 2296.3 1468.33 Q2296.3 1459.58 2299.36 1455 Q2302.43 1450.39 2308.24 1450.39 Z" fill="#000000" fill-rule="evenodd" fill-opacity="1" /><path clip-path="url(#clip200)" d="M1243.82 1522.27 L1243.82 1532.4 L1255.88 1532.4 L1255.88 1536.95 L1243.82 1536.95 L1243.82 1556.3 Q1243.82 1560.66 1244.99 1561.9 Q1246.2 1563.14 1249.86 1563.14 L1255.88 1563.14 L1255.88 1568.04 L1249.86 1568.04 Q1243.08 1568.04 1240.51 1565.53 Q1237.93 1562.98 1237.93 1556.3 L1237.93 1536.95 L1233.63 1536.95 L1233.63 1532.4 L1237.93 1532.4 L1237.93 1522.27 L1243.82 1522.27 Z" fill="#000000" fill-rule="evenodd" fill-opacity="1" /><path clip-path="url(#clip200)" d="M1263.58 1532.4 L1269.44 1532.4 L1269.44 1568.04 L1263.58 1568.04 L1263.58 1532.4 M1263.58 1518.52 L1269.44 1518.52 L1269.44 1525.93 L1263.58 1525.93 L1263.58 1518.52 Z" fill="#000000" fill-rule="evenodd" fill-opacity="1" /><path clip-path="url(#clip200)" d="M1309.45 1539.24 Q1311.64 1535.29 1314.7 1533.41 Q1317.75 1531.54 1321.89 1531.54 Q1327.46 1531.54 1330.48 1535.45 Q1333.51 1539.33 1333.51 1546.53 L1333.51 1568.04 L1327.62 1568.04 L1327.62 1546.72 Q1327.62 1541.59 1325.81 1539.11 Q1323.99 1536.63 1320.27 1536.63 Q1315.72 1536.63 1313.07 1539.65 Q1310.43 1542.68 1310.43 1547.9 L1310.43 1568.04 L1304.54 1568.04 L1304.54 1546.72 Q1304.54 1541.56 1302.73 1539.11 Q1300.92 1536.63 1297.13 1536.63 Q1292.64 1536.63 1290 1539.68 Q1287.36 1542.71 1287.36 1547.9 L1287.36 1568.04 L1281.47 1568.04 L1281.47 1532.4 L1287.36 1532.4 L1287.36 1537.93 Q1289.36 1534.66 1292.16 1533.1 Q1294.96 1531.54 1298.82 1531.54 Q1302.7 1531.54 1305.4 1533.51 Q1308.14 1535.48 1309.45 1539.24 Z" fill="#000000" fill-rule="evenodd" fill-opacity="1" /><path clip-path="url(#clip200)" d="M1375.68 1548.76 L1375.68 1551.62 L1348.75 1551.62 Q1349.14 1557.67 1352.38 1560.85 Q1355.66 1564 1361.49 1564 Q1364.86 1564 1368.01 1563.17 Q1371.19 1562.35 1374.31 1560.69 L1374.31 1566.23 Q1371.16 1567.57 1367.85 1568.27 Q1364.54 1568.97 1361.14 1568.97 Q1352.61 1568.97 1347.61 1564 Q1342.64 1559.04 1342.64 1550.57 Q1342.64 1541.82 1347.35 1536.69 Q1352.1 1531.54 1360.12 1531.54 Q1367.31 1531.54 1371.48 1536.18 Q1375.68 1540.8 1375.68 1548.76 M1369.82 1547.04 Q1369.76 1542.23 1367.12 1539.37 Q1364.51 1536.5 1360.18 1536.5 Q1355.28 1536.5 1352.32 1539.27 Q1349.39 1542.04 1348.95 1547.07 L1369.82 1547.04 Z" fill="#000000" fill-rule="evenodd" fill-opacity="1" /><polyline clip-path="url(#clip203)" style="stroke:#000000; stroke-linecap:butt; stroke-linejoin:round; stroke-width:2; stroke-opacity:0.1; fill:none" points="
  256.556,1256.4 2352.76,1256.4 
  "/>
<polyline clip-path="url(#clip203)" style="stroke:#000000; stroke-linecap:butt; stroke-linejoin:round; stroke-width:2; stroke-opacity:0.1; fill:none" points="
  256.556,1006.23 2352.76,1006.23 
  "/>
<polyline clip-path="url(#clip203)" style="stroke:#000000; stroke-linecap:butt; stroke-linejoin:round; stroke-width:2; stroke-opacity:0.1; fill:none" points="
  256.556,756.059 2352.76,756.059 
  "/>
<polyline clip-path="url(#clip203)" style="stroke:#000000; stroke-linecap:butt; stroke-linejoin:round; stroke-width:2; stroke-opacity:0.1; fill:none" points="
  256.556,505.889 2352.76,505.889 
  "/>
<polyline clip-path="url(#clip203)" style="stroke:#000000; stroke-linecap:butt; stroke-linejoin:round; stroke-width:2; stroke-opacity:0.1; fill:none" points="
  256.556,255.719 2352.76,255.719 
  "/>
<polyline clip-path="url(#clip200)" style="stroke:#000000; stroke-linecap:butt; stroke-linejoin:round; stroke-width:4; stroke-opacity:1; fill:none" points="
  256.556,1423.18 256.556,47.2441 
  "/>
<polyline clip-path="url(#clip200)" style="stroke:#000000; stroke-linecap:butt; stroke-linejoin:round; stroke-width:4; stroke-opacity:1; fill:none" points="
  256.556,1256.4 275.454,1256.4 
  "/>
<polyline clip-path="url(#clip200)" style="stroke:#000000; stroke-linecap:butt; stroke-linejoin:round; stroke-width:4; stroke-opacity:1; fill:none" points="
  256.556,1006.23 275.454,1006.23 
  "/>
<polyline clip-path="url(#clip200)" style="stroke:#000000; stroke-linecap:butt; stroke-linejoin:round; stroke-width:4; stroke-opacity:1; fill:none" points="
  256.556,756.059 275.454,756.059 
  "/>
<polyline clip-path="url(#clip200)" style="stroke:#000000; stroke-linecap:butt; stroke-linejoin:round; stroke-width:4; stroke-opacity:1; fill:none" points="
  256.556,505.889 275.454,505.889 
  "/>
<polyline clip-path="url(#clip200)" style="stroke:#000000; stroke-linecap:butt; stroke-linejoin:round; stroke-width:4; stroke-opacity:1; fill:none" points="
  256.556,255.719 275.454,255.719 
  "/>
<path clip-path="url(#clip200)" d="M114.26 1256.85 L143.936 1256.85 L143.936 1260.79 L114.26 1260.79 L114.26 1256.85 Z" fill="#000000" fill-rule="evenodd" fill-opacity="1" /><path clip-path="url(#clip200)" d="M164.028 1242.2 Q160.417 1242.2 158.589 1245.76 Q156.783 1249.3 156.783 1256.43 Q156.783 1263.54 158.589 1267.11 Q160.417 1270.65 164.028 1270.65 Q167.663 1270.65 169.468 1267.11 Q171.297 1263.54 171.297 1256.43 Q171.297 1249.3 169.468 1245.76 Q167.663 1242.2 164.028 1242.2 M164.028 1238.49 Q169.839 1238.49 172.894 1243.1 Q175.973 1247.68 175.973 1256.43 Q175.973 1265.16 172.894 1269.77 Q169.839 1274.35 164.028 1274.35 Q158.218 1274.35 155.14 1269.77 Q152.084 1265.16 152.084 1256.43 Q152.084 1247.68 155.14 1243.1 Q158.218 1238.49 164.028 1238.49 Z" fill="#000000" fill-rule="evenodd" fill-opacity="1" /><path clip-path="url(#clip200)" d="M184.19 1267.8 L189.075 1267.8 L189.075 1273.68 L184.19 1273.68 L184.19 1267.8 Z" fill="#000000" fill-rule="evenodd" fill-opacity="1" /><path clip-path="url(#clip200)" d="M213.426 1255.05 Q216.783 1255.76 218.658 1258.03 Q220.556 1260.3 220.556 1263.63 Q220.556 1268.75 217.037 1271.55 Q213.519 1274.35 207.037 1274.35 Q204.862 1274.35 202.547 1273.91 Q200.255 1273.49 197.801 1272.64 L197.801 1268.12 Q199.746 1269.26 202.061 1269.84 Q204.375 1270.42 206.899 1270.42 Q211.297 1270.42 213.588 1268.68 Q215.903 1266.94 215.903 1263.63 Q215.903 1260.58 213.75 1258.87 Q211.621 1257.13 207.801 1257.13 L203.774 1257.13 L203.774 1253.29 L207.987 1253.29 Q211.436 1253.29 213.264 1251.92 Q215.093 1250.53 215.093 1247.94 Q215.093 1245.28 213.195 1243.87 Q211.32 1242.43 207.801 1242.43 Q205.88 1242.43 203.681 1242.85 Q201.482 1243.26 198.843 1244.14 L198.843 1239.98 Q201.505 1239.24 203.82 1238.87 Q206.158 1238.49 208.218 1238.49 Q213.542 1238.49 216.644 1240.93 Q219.746 1243.33 219.746 1247.45 Q219.746 1250.32 218.102 1252.31 Q216.459 1254.28 213.426 1255.05 Z" fill="#000000" fill-rule="evenodd" fill-opacity="1" /><path clip-path="url(#clip200)" d="M163.38 992.028 Q159.769 992.028 157.94 995.593 Q156.135 999.135 156.135 1006.26 Q156.135 1013.37 157.94 1016.94 Q159.769 1020.48 163.38 1020.48 Q167.015 1020.48 168.82 1016.94 Q170.649 1013.37 170.649 1006.26 Q170.649 999.135 168.82 995.593 Q167.015 992.028 163.38 992.028 M163.38 988.325 Q169.19 988.325 172.246 992.931 Q175.325 997.514 175.325 1006.26 Q175.325 1014.99 172.246 1019.6 Q169.19 1024.18 163.38 1024.18 Q157.57 1024.18 154.491 1019.6 Q151.436 1014.99 151.436 1006.26 Q151.436 997.514 154.491 992.931 Q157.57 988.325 163.38 988.325 Z" fill="#000000" fill-rule="evenodd" fill-opacity="1" /><path clip-path="url(#clip200)" d="M183.542 1017.63 L188.426 1017.63 L188.426 1023.51 L183.542 1023.51 L183.542 1017.63 Z" fill="#000000" fill-rule="evenodd" fill-opacity="1" /><path clip-path="url(#clip200)" d="M208.612 992.028 Q205 992.028 203.172 995.593 Q201.366 999.135 201.366 1006.26 Q201.366 1013.37 203.172 1016.94 Q205 1020.48 208.612 1020.48 Q212.246 1020.48 214.051 1016.94 Q215.88 1013.37 215.88 1006.26 Q215.88 999.135 214.051 995.593 Q212.246 992.028 208.612 992.028 M208.612 988.325 Q214.422 988.325 217.477 992.931 Q220.556 997.514 220.556 1006.26 Q220.556 1014.99 217.477 1019.6 Q214.422 1024.18 208.612 1024.18 Q202.801 1024.18 199.723 1019.6 Q196.667 1014.99 196.667 1006.26 Q196.667 997.514 199.723 992.931 Q202.801 988.325 208.612 988.325 Z" fill="#000000" fill-rule="evenodd" fill-opacity="1" /><path clip-path="url(#clip200)" d="M164.028 741.858 Q160.417 741.858 158.589 745.423 Q156.783 748.965 156.783 756.094 Q156.783 763.201 158.589 766.765 Q160.417 770.307 164.028 770.307 Q167.663 770.307 169.468 766.765 Q171.297 763.201 171.297 756.094 Q171.297 748.965 169.468 745.423 Q167.663 741.858 164.028 741.858 M164.028 738.154 Q169.839 738.154 172.894 742.761 Q175.973 747.344 175.973 756.094 Q175.973 764.821 172.894 769.427 Q169.839 774.011 164.028 774.011 Q158.218 774.011 155.14 769.427 Q152.084 764.821 152.084 756.094 Q152.084 747.344 155.14 742.761 Q158.218 738.154 164.028 738.154 Z" fill="#000000" fill-rule="evenodd" fill-opacity="1" /><path clip-path="url(#clip200)" d="M184.19 767.46 L189.075 767.46 L189.075 773.339 L184.19 773.339 L184.19 767.46 Z" fill="#000000" fill-rule="evenodd" fill-opacity="1" /><path clip-path="url(#clip200)" d="M213.426 754.705 Q216.783 755.423 218.658 757.691 Q220.556 759.96 220.556 763.293 Q220.556 768.409 217.037 771.21 Q213.519 774.011 207.037 774.011 Q204.862 774.011 202.547 773.571 Q200.255 773.154 197.801 772.298 L197.801 767.784 Q199.746 768.918 202.061 769.497 Q204.375 770.076 206.899 770.076 Q211.297 770.076 213.588 768.34 Q215.903 766.603 215.903 763.293 Q215.903 760.238 213.75 758.525 Q211.621 756.789 207.801 756.789 L203.774 756.789 L203.774 752.946 L207.987 752.946 Q211.436 752.946 213.264 751.58 Q215.093 750.191 215.093 747.599 Q215.093 744.937 213.195 743.525 Q211.32 742.09 207.801 742.09 Q205.88 742.09 203.681 742.506 Q201.482 742.923 198.843 743.803 L198.843 739.636 Q201.505 738.895 203.82 738.525 Q206.158 738.154 208.218 738.154 Q213.542 738.154 216.644 740.585 Q219.746 742.992 219.746 747.113 Q219.746 749.983 218.102 751.974 Q216.459 753.941 213.426 754.705 Z" fill="#000000" fill-rule="evenodd" fill-opacity="1" /><path clip-path="url(#clip200)" d="M163.218 491.688 Q159.607 491.688 157.778 495.253 Q155.973 498.794 155.973 505.924 Q155.973 513.031 157.778 516.595 Q159.607 520.137 163.218 520.137 Q166.852 520.137 168.658 516.595 Q170.487 513.031 170.487 505.924 Q170.487 498.794 168.658 495.253 Q166.852 491.688 163.218 491.688 M163.218 487.984 Q169.028 487.984 172.084 492.591 Q175.163 497.174 175.163 505.924 Q175.163 514.651 172.084 519.257 Q169.028 523.841 163.218 523.841 Q157.408 523.841 154.329 519.257 Q151.274 514.651 151.274 505.924 Q151.274 497.174 154.329 492.591 Q157.408 487.984 163.218 487.984 Z" fill="#000000" fill-rule="evenodd" fill-opacity="1" /><path clip-path="url(#clip200)" d="M183.38 517.29 L188.264 517.29 L188.264 523.169 L183.38 523.169 L183.38 517.29 Z" fill="#000000" fill-rule="evenodd" fill-opacity="1" /><path clip-path="url(#clip200)" d="M209.028 504.026 Q205.88 504.026 204.028 506.179 Q202.2 508.331 202.2 512.081 Q202.2 515.808 204.028 517.984 Q205.88 520.137 209.028 520.137 Q212.176 520.137 214.005 517.984 Q215.857 515.808 215.857 512.081 Q215.857 508.331 214.005 506.179 Q212.176 504.026 209.028 504.026 M218.311 489.373 L218.311 493.632 Q216.551 492.799 214.746 492.359 Q212.963 491.92 211.204 491.92 Q206.574 491.92 204.121 495.044 Q201.69 498.169 201.343 504.489 Q202.709 502.475 204.769 501.41 Q206.829 500.322 209.306 500.322 Q214.514 500.322 217.523 503.494 Q220.556 506.642 220.556 512.081 Q220.556 517.405 217.408 520.623 Q214.26 523.841 209.028 523.841 Q203.033 523.841 199.862 519.257 Q196.69 514.651 196.69 505.924 Q196.69 497.73 200.579 492.869 Q204.468 487.984 211.019 487.984 Q212.778 487.984 214.561 488.332 Q216.366 488.679 218.311 489.373 Z" fill="#000000" fill-rule="evenodd" fill-opacity="1" /><path clip-path="url(#clip200)" d="M163.565 241.518 Q159.954 241.518 158.126 245.083 Q156.32 248.624 156.32 255.754 Q156.32 262.86 158.126 266.425 Q159.954 269.967 163.565 269.967 Q167.2 269.967 169.005 266.425 Q170.834 262.86 170.834 255.754 Q170.834 248.624 169.005 245.083 Q167.2 241.518 163.565 241.518 M163.565 237.814 Q169.376 237.814 172.431 242.421 Q175.51 247.004 175.51 255.754 Q175.51 264.481 172.431 269.087 Q169.376 273.671 163.565 273.671 Q157.755 273.671 154.677 269.087 Q151.621 264.481 151.621 255.754 Q151.621 247.004 154.677 242.421 Q157.755 237.814 163.565 237.814 Z" fill="#000000" fill-rule="evenodd" fill-opacity="1" /><path clip-path="url(#clip200)" d="M183.727 267.12 L188.612 267.12 L188.612 272.999 L183.727 272.999 L183.727 267.12 Z" fill="#000000" fill-rule="evenodd" fill-opacity="1" /><path clip-path="url(#clip200)" d="M198.936 272.282 L198.936 268.022 Q200.695 268.856 202.5 269.296 Q204.306 269.735 206.042 269.735 Q210.672 269.735 213.102 266.634 Q215.556 263.509 215.903 257.166 Q214.561 259.157 212.5 260.221 Q210.44 261.286 207.94 261.286 Q202.755 261.286 199.723 258.161 Q196.713 255.013 196.713 249.573 Q196.713 244.249 199.862 241.032 Q203.01 237.814 208.241 237.814 Q214.236 237.814 217.385 242.421 Q220.556 247.004 220.556 255.754 Q220.556 263.925 216.667 268.809 Q212.801 273.671 206.25 273.671 Q204.491 273.671 202.686 273.323 Q200.88 272.976 198.936 272.282 M208.241 257.629 Q211.389 257.629 213.218 255.476 Q215.07 253.323 215.07 249.573 Q215.07 245.847 213.218 243.694 Q211.389 241.518 208.241 241.518 Q205.093 241.518 203.241 243.694 Q201.412 245.847 201.412 249.573 Q201.412 253.323 203.241 255.476 Q205.093 257.629 208.241 257.629 Z" fill="#000000" fill-rule="evenodd" fill-opacity="1" /><path clip-path="url(#clip200)" d="M24.388 733.91 Q24.8389 733.91 25.9017 734.199 L51.0867 740.512 Q56.6905 741.897 60.6196 746.405 Q64.5487 750.882 64.5487 755.971 Q64.5487 759.03 62.9062 760.995 Q61.296 762.959 58.8161 762.959 Q56.6261 762.959 55.5633 761.8 Q54.5327 760.64 54.5327 759.256 Q54.5327 758.805 54.6615 758.322 Q54.7904 757.839 55.3379 757.323 Q55.8854 756.808 56.8193 756.808 Q58.333 756.808 59.5246 758.128 Q60.0721 758.773 60.201 759.384 Q60.3298 759.964 60.3298 760.963 Q61.2315 760.576 61.8435 759.868 Q62.4554 759.159 62.6808 758.354 Q62.9385 757.549 63.0029 757.033 Q63.0995 756.486 63.0995 755.971 Q63.0995 751.848 58.9449 748.692 Q57.6889 747.758 56.4329 747.082 Q55.209 746.373 53.6954 745.858 Q52.2139 745.343 51.4088 745.117 Q50.6036 744.86 48.7679 744.409 Q51.763 747.404 51.763 751.075 Q51.763 752.621 51.3443 754.006 Q50.9257 755.359 50.0561 756.55 Q49.1543 757.742 47.5763 758.45 Q45.9982 759.127 43.9048 759.127 Q41.6826 759.127 38.6552 758.257 Q35.6279 757.388 30.0563 755.294 Q26.9323 754.167 25.4186 754.167 Q24.6779 754.167 24.227 754.328 Q23.7439 754.489 23.5829 754.811 Q23.3897 755.133 23.3574 755.327 Q23.3252 755.488 23.3252 755.81 Q23.3252 757.71 25.2576 759.481 Q27.1899 761.252 31.5055 762.476 Q32.3107 762.734 32.5039 762.895 Q32.6971 763.056 32.6971 763.539 Q32.6649 764.344 32.0208 764.344 Q31.7632 764.344 30.7648 764.054 Q29.7342 763.764 28.2205 763.088 Q26.6747 762.38 25.2898 761.413 Q23.8727 760.447 22.8744 758.934 Q21.876 757.388 21.876 755.616 Q21.876 753.201 23.4541 751.719 Q24.9999 750.206 27.2866 750.206 Q28.2205 750.206 29.0579 750.463 Q29.863 750.689 32.0208 751.526 Q40.7164 754.908 44.9676 754.908 Q45.9982 754.908 46.8677 754.747 Q47.7051 754.554 48.5424 754.135 Q49.3476 753.716 49.8307 752.879 Q50.2815 752.009 50.2815 750.818 Q50.2815 749.304 49.573 747.887 Q48.8323 746.438 47.8339 745.536 Q46.8355 744.602 45.9982 744.054 Q45.1286 743.475 44.6777 743.346 L32.826 740.383 L27.5442 739.063 Q24.6779 738.451 23.9694 738.161 Q23.293 737.774 22.9388 737.098 Q22.5845 736.422 22.5845 735.842 Q22.5845 735.037 23.0676 734.489 Q23.5507 733.91 24.388 733.91 Z" fill="#000000" fill-rule="evenodd" fill-opacity="1" /><path clip-path="url(#clip200)" d="M62.199 712.983 Q62.8303 712.983 62.9881 713.276 Q63.1233 713.569 63.1233 714.381 L63.1233 718.709 L76.74 722.136 Q77.9348 722.407 78.9493 722.407 Q80.0765 722.407 80.5725 722.069 Q81.0685 721.708 81.0685 720.964 Q81.0685 719.499 79.7384 717.92 Q78.4083 716.32 75.1619 714.967 Q74.7336 714.787 74.6434 714.697 Q74.5307 714.584 74.5307 714.291 Q74.5307 713.727 74.9815 713.727 Q75.1394 713.727 75.8608 714.043 Q76.5822 714.336 77.6418 714.99 Q78.7013 715.621 79.6933 716.455 Q80.6852 717.267 81.4066 718.507 Q82.1055 719.747 82.1055 721.077 Q82.1055 722.948 80.9106 724.143 Q79.7158 725.315 77.8446 725.315 Q77.236 725.315 75.2972 724.841 Q73.3358 724.368 63.1233 721.798 L63.1233 725.879 Q63.1233 726.442 63.1008 726.668 Q63.0783 726.87 62.9655 727.028 Q62.8303 727.164 62.5597 727.164 Q62.1314 727.164 61.9511 726.983 Q61.7482 726.803 61.7256 726.577 Q61.6805 726.329 61.6805 725.766 L61.6805 721.437 L54.3537 719.634 Q53.6323 719.453 53.2265 719.003 Q52.7982 718.529 52.7531 718.259 Q52.6854 717.988 52.6854 717.785 Q52.6854 717.176 53.0236 716.816 Q53.3392 716.455 53.9254 716.455 Q54.241 716.455 61.6805 718.349 L61.6805 714.291 Q61.6805 713.772 61.7031 713.569 Q61.7256 713.344 61.8383 713.164 Q61.9511 712.983 62.199 712.983 Z" fill="#000000" fill-rule="evenodd" fill-opacity="1" /><polyline clip-path="url(#clip203)" style="stroke:#0000ff; stroke-linecap:butt; stroke-linejoin:round; stroke-width:3.2; stroke-opacity:0.2; fill:none" points="
  315.882,172.329 356.24,271.037 396.599,348.708 436.957,479.235 477.315,579.811 517.673,666.678 558.031,477.537 598.389,461.337 638.747,612.771 679.105,712.521 
  719.463,706.697 759.821,599.635 800.18,545.425 840.538,849.204 880.896,838.286 921.254,821.04 961.612,720.123 1001.97,937.014 1042.33,1066.82 1082.69,849.287 
  1123.04,583.601 1163.4,772.778 1203.76,983.53 1244.12,1114 1284.48,880.667 1324.83,713.141 1365.19,818.087 1405.55,1010.38 1445.91,889.761 1486.27,770.644 
  1526.63,834.313 1566.98,950.736 1607.34,810.186 1647.7,748.988 1688.06,836.664 1728.42,1010.1 1768.77,1017.34 1809.13,766.32 1849.49,736.982 1889.85,854.957 
  1930.21,974.889 1970.56,915.116 2010.92,900.289 2051.28,970.942 2091.64,1010.2 2132,930.645 2172.36,1000.32 2212.71,963.246 2253.07,988.825 2293.43,1048.84 
  
  "/>
<polyline clip-path="url(#clip203)" style="stroke:#0000ff; stroke-linecap:butt; stroke-linejoin:round; stroke-width:3.2; stroke-opacity:0.2; fill:none" points="
  315.882,172.329 356.24,324.239 396.599,396.918 436.957,398.649 477.315,543.977 517.673,421.243 558.031,416.562 598.389,595.726 638.747,652.162 679.105,628.93 
  719.463,583.24 759.821,615.003 800.18,597.669 840.538,665.413 880.896,704.743 921.254,759.508 961.612,703.174 1001.97,643.798 1042.33,887.495 1082.69,1011.77 
  1123.04,944.265 1163.4,786.065 1203.76,891.634 1244.12,1003.88 1284.48,986.543 1324.83,1017.59 1365.19,1016.51 1405.55,871.404 1445.91,920.253 1486.27,993.942 
  1526.63,964.765 1566.98,948.764 1607.34,789.082 1647.7,853.903 1688.06,844.4 1728.42,882.78 1768.77,819.102 1809.13,728.75 1849.49,894.469 1889.85,873.562 
  1930.21,780.997 1970.56,830.547 2010.92,690.87 2051.28,881.316 2091.64,1038 2132,834.341 2172.36,616.06 2212.71,646.606 2253.07,856.691 2293.43,922.503 
  
  "/>
<polyline clip-path="url(#clip203)" style="stroke:#0000ff; stroke-linecap:butt; stroke-linejoin:round; stroke-width:3.2; stroke-opacity:0.2; fill:none" points="
  315.882,172.329 356.24,284.555 396.599,418.448 436.957,533.812 477.315,549.266 517.673,408.031 558.031,383.489 598.389,652.189 638.747,544.366 679.105,551.63 
  719.463,594.915 759.821,744.705 800.18,811.974 840.538,774.669 880.896,708.953 921.254,670.312 961.612,825.839 1001.97,843.082 1042.33,886.749 1082.69,694.72 
  1123.04,863.671 1163.4,1066.63 1203.76,1070.08 1244.12,874.058 1284.48,872.438 1324.83,1163.15 1365.19,1189.91 1405.55,893.818 1445.91,913.031 1486.27,1164.42 
  1526.63,1256.69 1566.98,1064.19 1607.34,937.858 1647.7,873.619 1688.06,1131.77 1728.42,1198.55 1768.77,914.002 1809.13,987.311 1849.49,1110.64 1889.85,1205.27 
  1930.21,1023.38 1970.56,956.473 2010.92,1111.79 2051.28,1236.19 2091.64,957.186 2132,939.998 2172.36,1217.02 2212.71,1250.7 2253.07,1082.99 2293.43,866.37 
  
  "/>
<polyline clip-path="url(#clip203)" style="stroke:#0000ff; stroke-linecap:butt; stroke-linejoin:round; stroke-width:3.2; stroke-opacity:0.2; fill:none" points="
  315.882,172.329 356.24,286.475 396.599,175.353 436.957,182.212 477.315,342.465 517.673,450.371 558.031,470.511 598.389,491.625 638.747,477.435 679.105,448.159 
  719.463,557.441 759.821,603.411 800.18,790.009 840.538,696.151 880.896,662.403 921.254,716.882 961.612,875.839 1001.97,707.929 1042.33,751.338 1082.69,736.049 
  1123.04,973.509 1163.4,990.852 1203.76,673.039 1244.12,778.469 1284.48,998.375 1324.83,1053.52 1365.19,902.349 1405.55,833.707 1445.91,1012.98 1486.27,983.573 
  1526.63,848.628 1566.98,861.809 1607.34,919.45 1647.7,987.244 1688.06,910.7 1728.42,855.741 1768.77,856.533 1809.13,950.383 1849.49,901.875 1889.85,795.532 
  1930.21,870.838 1970.56,834.558 2010.92,908.427 2051.28,831.164 2091.64,800.992 2132,852.419 2172.36,888.272 2212.71,990.354 2253.07,835.999 2293.43,849.704 
  
  "/>
<polyline clip-path="url(#clip203)" style="stroke:#0000ff; stroke-linecap:butt; stroke-linejoin:round; stroke-width:3.2; stroke-opacity:0.2; fill:none" points="
  315.882,172.329 356.24,419.85 396.599,553.351 436.957,454.652 477.315,247.135 517.673,311.295 558.031,358.143 598.389,459.718 638.747,285.527 679.105,520.721 
  719.463,619.249 759.821,721.74 800.18,613.177 840.538,676.237 880.896,681.677 921.254,752.64 961.612,828.37 1001.97,624.501 1042.33,861.335 1082.69,847.513 
  1123.04,842.298 1163.4,686.231 1203.76,953.088 1244.12,966.107 1284.48,896.349 1324.83,966.394 1365.19,1043.67 1405.55,983.051 1445.91,932.505 1486.27,1013.58 
  1526.63,920.695 1566.98,1076.71 1607.34,983.871 1647.7,1008.74 1688.06,945.181 1728.42,920.19 1768.77,1191.76 1809.13,1317.3 1849.49,1057.53 1889.85,830.851 
  1930.21,1060.04 1970.56,1241.23 2010.92,1149.75 2051.28,875.66 2091.64,868.927 2132,1095.17 2172.36,1176.23 2212.71,1154.05 2253.07,850.456 2293.43,957.013 
  
  "/>
<polyline clip-path="url(#clip203)" style="stroke:#0000ff; stroke-linecap:butt; stroke-linejoin:round; stroke-width:3.2; stroke-opacity:0.2; fill:none" points="
  315.882,172.329 356.24,304.89 396.599,299.696 436.957,255.614 477.315,309.463 517.673,537.495 558.031,526.569 598.389,397.666 638.747,581.708 679.105,677.872 
  719.463,644.671 759.821,671.18 800.18,822.286 840.538,794.048 880.896,707.642 921.254,672.771 961.612,820.289 1001.97,912.801 1042.33,890.478 1082.69,899.137 
  1123.04,950.531 1163.4,802.047 1203.76,666.509 1244.12,813.411 1284.48,808.693 1324.83,755.611 1365.19,822.007 1405.55,886.014 1445.91,914.194 1486.27,818.772 
  1526.63,872.227 1566.98,901.329 1607.34,963.388 1647.7,816.84 1688.06,873.33 1728.42,990.41 1768.77,1098.7 1809.13,866.805 1849.49,806.239 1889.85,876.666 
  1930.21,1033.24 1970.56,945.805 2010.92,888.408 2051.28,906.976 2091.64,885.693 2132,933.371 2172.36,972.655 2212.71,896.799 2253.07,1029.64 2293.43,1042.93 
  
  "/>
<polyline clip-path="url(#clip203)" style="stroke:#0000ff; stroke-linecap:butt; stroke-linejoin:round; stroke-width:3.2; stroke-opacity:0.2; fill:none" points="
  315.882,172.329 356.24,326.259 396.599,326.821 436.957,543.446 477.315,497.499 517.673,433.446 558.031,477.51 598.389,658.53 638.747,611.406 679.105,635.591 
  719.463,687.04 759.821,624.504 800.18,603.865 840.538,679.363 880.896,799.74 921.254,903.359 961.612,925.808 1001.97,782.166 1042.33,884.158 1082.69,850.683 
  1123.04,950.398 1163.4,907.874 1203.76,889.215 1244.12,919.73 1284.48,944.534 1324.83,832.835 1365.19,854.63 1405.55,904.978 1445.91,990.483 1486.27,909.897 
  1526.63,927.969 1566.98,831.456 1607.34,968.179 1647.7,957.973 1688.06,816.728 1728.42,902.136 1768.77,960.034 1809.13,1086.04 1849.49,922.596 1889.85,968.158 
  1930.21,921.832 1970.56,1064.64 2010.92,861.577 2051.28,912.606 2091.64,947.345 2132,954.955 2172.36,889.908 2212.71,903.721 2253.07,952.985 2293.43,922.74 
  
  "/>
<polyline clip-path="url(#clip203)" style="stroke:#0000ff; stroke-linecap:butt; stroke-linejoin:round; stroke-width:3.2; stroke-opacity:0.2; fill:none" points="
  315.882,172.329 356.24,408.04 396.599,411.103 436.957,398.983 477.315,342.362 517.673,597.351 558.031,683.779 598.389,580.247 638.747,617.353 679.105,744.545 
  719.463,805.015 759.821,940.985 800.18,747.39 840.538,769.679 880.896,894.732 921.254,1062.02 961.612,1029.47 1001.97,835.173 1042.33,824.891 1082.69,1061.62 
  1123.04,1092.14 1163.4,988.284 1203.76,1018.17 1244.12,937.442 1284.48,916.293 1324.83,1049.68 1365.19,955.513 1405.55,1018.06 1445.91,1059.81 1486.27,1165.29 
  1526.63,1026.4 1566.98,889.873 1607.34,1008.7 1647.7,1123.9 1688.06,1185.21 1728.42,1004.11 1768.77,996.318 1809.13,963.383 1849.49,1168.94 1889.85,1206.16 
  1930.21,1070.41 1970.56,1010.18 2010.92,1002.99 2051.28,1176.32 2091.64,1170.44 2132,1023.14 2172.36,924.723 2212.71,1088.08 2253.07,1166.24 2293.43,986.918 
  
  "/>
<polyline clip-path="url(#clip203)" style="stroke:#0000ff; stroke-linecap:butt; stroke-linejoin:round; stroke-width:3.2; stroke-opacity:0.2; fill:none" points="
  315.882,172.329 356.24,286.656 396.599,386.915 436.957,315.44 477.315,419.491 517.673,473.442 558.031,519.568 598.389,504.255 638.747,694.217 679.105,688.564 
  719.463,556.137 759.821,669.493 800.18,783.67 840.538,818.311 880.896,752.24 921.254,825.634 961.612,842.813 1001.97,865.63 1042.33,961.246 1082.69,960.253 
  1123.04,891.254 1163.4,778.907 1203.76,906.53 1244.12,1079.25 1284.48,1083.36 1324.83,798.41 1365.19,862.296 1405.55,980.832 1445.91,1052.01 1486.27,913.426 
  1526.63,987.715 1566.98,963.272 1607.34,936.766 1647.7,854.553 1688.06,961.773 1728.42,955.308 1768.77,708.425 1809.13,967.03 1849.49,886.273 1889.85,1034.93 
  1930.21,807.857 1970.56,878.272 2010.92,973.885 2051.28,1064.73 2091.64,925.38 2132,867.073 2172.36,1075.04 2212.71,1130.54 2253.07,1133.06 2293.43,961.044 
  
  "/>
<polyline clip-path="url(#clip203)" style="stroke:#0000ff; stroke-linecap:butt; stroke-linejoin:round; stroke-width:3.2; stroke-opacity:0.2; fill:none" points="
  315.882,172.329 356.24,196.05 396.599,503.645 436.957,442.165 477.315,486.654 517.673,357.446 558.031,514.237 598.389,597.201 638.747,660.204 679.105,628.183 
  719.463,629.784 759.821,668.546 800.18,879.034 840.538,804.134 880.896,809.447 921.254,790.8 961.612,798.113 1001.97,900.507 1042.33,876.057 1082.69,843.097 
  1123.04,751.945 1163.4,782.038 1203.76,794.367 1244.12,777.569 1284.48,804.537 1324.83,745.249 1365.19,796.184 1405.55,722.542 1445.91,773.006 1486.27,737.14 
  1526.63,898.24 1566.98,923.232 1607.34,834.682 1647.7,764.184 1688.06,894.845 1728.42,1033.72 1768.77,1182 1809.13,1047.58 1849.49,874.776 1889.85,1001.43 
  1930.21,1163.67 1970.56,1155.06 2010.92,774.525 2051.28,759 2091.64,956.883 2132,1244.48 2172.36,821.623 2212.71,743.671 2253.07,854.294 2293.43,999.529 
  
  "/>
<polyline clip-path="url(#clip203)" style="stroke:#0000ff; stroke-linecap:butt; stroke-linejoin:round; stroke-width:3.2; stroke-opacity:0.2; fill:none" points="
  315.882,172.329 356.24,268.088 396.599,421.446 436.957,388.681 477.315,347.13 517.673,470.887 558.031,551.6 598.389,576.82 638.747,573.099 679.105,636.306 
  719.463,657.759 759.821,533.007 800.18,695.411 840.538,656.231 880.896,767.447 921.254,695.381 961.612,725.448 1001.97,733.374 1042.33,829.07 1082.69,853.413 
  1123.04,737.783 1163.4,677.865 1203.76,808.282 1244.12,1008.93 1284.48,875.405 1324.83,849.876 1365.19,891.485 1405.55,958.698 1445.91,824.661 1486.27,931.552 
  1526.63,981.704 1566.98,997.098 1607.34,1066.47 1647.7,1088.26 1688.06,1021.77 1728.42,1030.46 1768.77,1076.95 1809.13,1196.94 1849.49,1136.48 1889.85,1169.03 
  1930.21,1095.65 1970.56,1004.24 2010.92,1115.27 2051.28,1035.73 2091.64,1018.64 2132,1078.21 2172.36,1221.5 2212.71,1312.34 2253.07,1190.64 2293.43,1067.72 
  
  "/>
<polyline clip-path="url(#clip203)" style="stroke:#0000ff; stroke-linecap:butt; stroke-linejoin:round; stroke-width:3.2; stroke-opacity:0.2; fill:none" points="
  315.882,172.329 356.24,371.675 396.599,491.858 436.957,374.597 477.315,431.647 517.673,379.665 558.031,550.42 598.389,632.292 638.747,516.942 679.105,496.672 
  719.463,661.521 759.821,841.018 800.18,589.932 840.538,513.582 880.896,782.865 921.254,909.2 961.612,721.946 1001.97,656.146 1042.33,699.883 1082.69,1023.21 
  1123.04,1021.38 1163.4,855.026 1203.76,681.679 1244.12,765.6 1284.48,867.106 1324.83,984.22 1365.19,853.732 1405.55,714.83 1445.91,864.389 1486.27,1008.28 
  1526.63,1042.97 1566.98,883.158 1607.34,775.759 1647.7,873.577 1688.06,1160.66 1728.42,1015.87 1768.77,951.899 1809.13,1031.78 1849.49,1077.47 1889.85,1078.21 
  1930.21,1050.84 1970.56,1069.64 2010.92,1039.84 2051.28,1115.18 2091.64,1246.27 2132,1227.7 2172.36,996.073 2212.71,1136.6 2253.07,1099.67 2293.43,1102.77 
  
  "/>
<polyline clip-path="url(#clip203)" style="stroke:#0000ff; stroke-linecap:butt; stroke-linejoin:round; stroke-width:3.2; stroke-opacity:0.2; fill:none" points="
  315.882,172.329 356.24,260.831 396.599,454.622 436.957,499.948 477.315,355.009 517.673,279.367 558.031,528.265 598.389,759.992 638.747,580.185 679.105,319.377 
  719.463,517.555 759.821,856.052 800.18,816.736 840.538,570.555 880.896,471.803 921.254,786.095 961.612,777.877 1001.97,711.245 1042.33,547.412 1082.69,637.778 
  1123.04,720.815 1163.4,696.597 1203.76,579.592 1244.12,476.7 1284.48,659.965 1324.83,884.646 1365.19,960.586 1405.55,901.079 1445.91,818.431 1486.27,843.708 
  1526.63,978.484 1566.98,954.243 1607.34,784.662 1647.7,662.501 1688.06,825.502 1728.42,958.886 1768.77,1016.8 1809.13,797.849 1849.49,845.188 1889.85,877.351 
  1930.21,1033.4 1970.56,968.775 2010.92,874.093 2051.28,840.576 2091.64,1058.67 2132,1062.78 2172.36,1018.54 2212.71,971.499 2253.07,965.274 2293.43,748.777 
  
  "/>
<polyline clip-path="url(#clip203)" style="stroke:#0000ff; stroke-linecap:butt; stroke-linejoin:round; stroke-width:3.2; stroke-opacity:0.2; fill:none" points="
  315.882,172.329 356.24,392.245 396.599,538.968 436.957,576.781 477.315,490.324 517.673,395.66 558.031,519.53 598.389,749.44 638.747,697.224 679.105,724.495 
  719.463,730.267 759.821,714.687 800.18,758.012 840.538,591.361 880.896,888.676 921.254,783.984 961.612,942.008 1001.97,800.958 1042.33,905.464 1082.69,920.058 
  1123.04,1062.72 1163.4,933.663 1203.76,956.054 1244.12,761.699 1284.48,871.425 1324.83,985.058 1365.19,888.015 1405.55,991.281 1445.91,969.919 1486.27,1127.38 
  1526.63,1098.75 1566.98,959.842 1607.34,880.452 1647.7,1154.31 1688.06,1144.87 1728.42,1085.86 1768.77,959.169 1809.13,1189.37 1849.49,1230.04 1889.85,1196.61 
  1930.21,1138.29 1970.56,1107.01 2010.92,1127.63 2051.28,1089.09 2091.64,1391.35 2132,1303.86 2172.36,1087.89 2212.71,899.876 2253.07,1186.33 2293.43,1348.11 
  
  "/>
<polyline clip-path="url(#clip203)" style="stroke:#0000ff; stroke-linecap:butt; stroke-linejoin:round; stroke-width:3.2; stroke-opacity:0.2; fill:none" points="
  315.882,172.329 356.24,444.064 396.599,542.195 436.957,422.873 477.315,365.142 517.673,462.943 558.031,725.403 598.389,755.623 638.747,542.734 679.105,459.156 
  719.463,678.935 759.821,846.212 800.18,706.653 840.538,627.226 880.896,826.131 921.254,872.114 961.612,806.702 1001.97,679.394 1042.33,781.828 1082.69,967.413 
  1123.04,966.365 1163.4,852.382 1203.76,898.098 1244.12,1093.67 1284.48,1146.4 1324.83,1002.8 1365.19,1030.74 1405.55,1134.92 1445.91,1024.22 1486.27,907.443 
  1526.63,908.922 1566.98,1135.37 1607.34,999.003 1647.7,839.424 1688.06,1095.46 1728.42,1003.09 1768.77,950.776 1809.13,1001.41 1849.49,1041.17 1889.85,1055.34 
  1930.21,968.261 1970.56,1010.42 2010.92,1188.33 2051.28,1149.2 2091.64,1120.92 2132,1044.61 2172.36,1108.91 2212.71,1158.64 2253.07,1137.59 2293.43,1024.6 
  
  "/>
<polyline clip-path="url(#clip203)" style="stroke:#0000ff; stroke-linecap:butt; stroke-linejoin:round; stroke-width:3.2; stroke-opacity:0.2; fill:none" points="
  315.882,172.329 356.24,326.382 396.599,322.813 436.957,401.173 477.315,529.126 517.673,667.062 558.031,656.923 598.389,667.753 638.747,564.901 679.105,738.036 
  719.463,761.612 759.821,790.995 800.18,601.312 840.538,837.153 880.896,880.012 921.254,890.47 961.612,728.17 1001.97,724.399 1042.33,871.159 1082.69,993.912 
  1123.04,925.643 1163.4,842.481 1203.76,968.254 1244.12,895.391 1284.48,929.394 1324.83,814.79 1365.19,766.7 1405.55,965.556 1445.91,953.483 1486.27,922.925 
  1526.63,795.784 1566.98,1064.92 1607.34,1005.73 1647.7,996.041 1688.06,822.118 1728.42,808.346 1768.77,838.475 1809.13,942.45 1849.49,1082.31 1889.85,859.199 
  1930.21,914.523 1970.56,998.978 2010.92,1071.52 2051.28,1000.49 2091.64,786.766 2132,724.966 2172.36,909.49 2212.71,1019.67 2253.07,813.892 2293.43,799.85 
  
  "/>
<polyline clip-path="url(#clip203)" style="stroke:#0000ff; stroke-linecap:butt; stroke-linejoin:round; stroke-width:3.2; stroke-opacity:0.2; fill:none" points="
  315.882,172.329 356.24,351.303 396.599,337.675 436.957,592.874 477.315,324.919 517.673,467.537 558.031,526.001 598.389,769.767 638.747,599.743 679.105,626.766 
  719.463,673.45 759.821,691.379 800.18,764.187 840.538,674.357 880.896,689.405 921.254,787.376 961.612,844.456 1001.97,826.655 1042.33,965.28 1082.69,818.637 
  1123.04,954.636 1163.4,878.403 1203.76,917.124 1244.12,813.379 1284.48,795.085 1324.83,756.841 1365.19,834.195 1405.55,833.67 1445.91,745.419 1486.27,807.685 
  1526.63,887.48 1566.98,928.863 1607.34,902.232 1647.7,853.17 1688.06,869.138 1728.42,725.304 1768.77,884.891 1809.13,927.497 1849.49,967.351 1889.85,934.961 
  1930.21,934.787 1970.56,976.08 2010.92,1148.26 2051.28,961.735 2091.64,840.693 2132,955.983 2172.36,1107.59 2212.71,1035.28 2253.07,973.39 2293.43,888.909 
  
  "/>
<polyline clip-path="url(#clip203)" style="stroke:#0000ff; stroke-linecap:butt; stroke-linejoin:round; stroke-width:3.2; stroke-opacity:0.2; fill:none" points="
  315.882,172.329 356.24,217.113 396.599,487.419 436.957,483.096 477.315,496.786 517.673,461.439 558.031,586.369 598.389,683.374 638.747,602.135 679.105,594.514 
  719.463,708.201 759.821,734.183 800.18,830.648 840.538,807.911 880.896,811.042 921.254,994.914 961.612,810.172 1001.97,565.326 1042.33,793.111 1082.69,1040.17 
  1123.04,997.069 1163.4,819.1 1203.76,802.559 1244.12,973.191 1284.48,1121.63 1324.83,1072.62 1365.19,846.542 1405.55,806.042 1445.91,1018.18 1486.27,1031.88 
  1526.63,920.326 1566.98,924.547 1607.34,983.654 1647.7,1091.06 1688.06,1120.67 1728.42,956.05 1768.77,967.637 1809.13,1054.05 1849.49,1149.38 1889.85,945.207 
  1930.21,877.958 1970.56,987.039 2010.92,1214.32 2051.28,1026.51 2091.64,915.583 2132,973.491 2172.36,1266.59 2212.71,1244.26 2253.07,1077.64 2293.43,999.306 
  
  "/>
<polyline clip-path="url(#clip203)" style="stroke:#0000ff; stroke-linecap:butt; stroke-linejoin:round; stroke-width:3.2; stroke-opacity:0.2; fill:none" points="
  315.882,172.329 356.24,299.797 396.599,373.801 436.957,421.983 477.315,571.427 517.673,693.011 558.031,603.109 598.389,558.75 638.747,722.152 679.105,731.461 
  719.463,705.355 759.821,639.124 800.18,571.877 840.538,760.025 880.896,924.715 921.254,753.577 961.612,593.802 1001.97,785.924 1042.33,811.357 1082.69,917.294 
  1123.04,976.589 1163.4,875.631 1203.76,883.496 1244.12,913.269 1284.48,1045.84 1324.83,915.589 1365.19,862.139 1405.55,888.202 1445.91,1090.52 1486.27,1113.47 
  1526.63,912.259 1566.98,742.949 1607.34,1030.06 1647.7,1115.3 1688.06,1050.13 1728.42,927.375 1768.77,1094.98 1809.13,1221.15 1849.49,1079.11 1889.85,879.378 
  1930.21,860.283 1970.56,1062.92 2010.92,1073.33 2051.28,850.992 2091.64,898.607 2132,978.705 2172.36,1019.04 2212.71,766.266 2253.07,878.734 2293.43,1025.27 
  
  "/>
<polyline clip-path="url(#clip203)" style="stroke:#0000ff; stroke-linecap:butt; stroke-linejoin:round; stroke-width:3.2; stroke-opacity:0.2; fill:none" points="
  315.882,172.329 356.24,152.082 396.599,378.713 436.957,457.481 477.315,598.839 517.673,436.221 558.031,468.661 598.389,513.476 638.747,523.741 679.105,542.498 
  719.463,576.27 759.821,727.7 800.18,685.071 840.538,707.02 880.896,643.091 921.254,698.581 961.612,681.537 1001.97,695.933 1042.33,824.52 1082.69,640.216 
  1123.04,709.474 1163.4,640.215 1203.76,811.105 1244.12,836.256 1284.48,808.98 1324.83,726.431 1365.19,847.009 1405.55,763.187 1445.91,910.563 1486.27,966.52 
  1526.63,1079.75 1566.98,951.273 1607.34,942.097 1647.7,886.454 1688.06,876.942 1728.42,709.761 1768.77,835.646 1809.13,969.972 1849.49,916.275 1889.85,853.784 
  1930.21,963.79 1970.56,1093.92 2010.92,997.08 2051.28,880.776 2091.64,1058.77 2132,1074.39 2172.36,1047.55 2212.71,1004.9 2253.07,967.554 2293.43,978.113 
  
  "/>
<polyline clip-path="url(#clip203)" style="stroke:#0000ff; stroke-linecap:butt; stroke-linejoin:round; stroke-width:8; stroke-opacity:1; fill:none" points="
  315.882,172.329 356.24,309.582 396.599,408.523 436.957,431.185 477.315,441.424 517.673,468.529 558.031,527.209 598.389,603.289 638.747,583 679.105,605.3 
  719.463,652.756 759.821,711.678 800.18,710.717 840.538,713.631 880.896,762.253 921.254,807.333 961.612,800.098 1001.97,761.598 1042.33,845.983 1082.69,878.311 
  1123.04,895.804 1163.4,831.653 1203.76,857.62 1244.12,890.1 1284.48,915.651 1324.83,904.422 1365.19,902.115 1405.55,903.112 1445.91,933.891 1486.27,956.576 
  1526.63,957.204 1566.98,947.681 1607.34,926.114 1647.7,927.502 1688.06,969.393 1728.42,948.701 1768.77,966.072 1809.13,1000.67 1849.49,994.254 1889.85,974.829 
  1930.21,977.246 1970.56,1005.55 2010.92,1005.61 2051.28,978.259 2091.64,994.865 2132,1005.01 2172.36,1018.25 2212.71,1015.85 2253.07,1002.09 2293.43,977.051 
  
  "/>
<polyline clip-path="url(#clip203)" style="stroke:#008000; stroke-linecap:butt; stroke-linejoin:round; stroke-width:8; stroke-opacity:1; fill:none" points="
  315.882,172.329 356.24,339.109 396.599,422.499 436.957,430.838 477.315,418.33 517.673,493.798 558.031,575.729 598.389,605.77 638.747,598.15 679.105,626.066 
  719.463,682.513 759.821,720.174 800.18,723.905 840.538,732.197 880.896,763.82 921.254,796.804 961.612,808.836 1001.97,812.402 1042.33,827.589 1082.69,850.962 
  1123.04,865.627 1163.4,870.068 1203.76,876.949 1244.12,891.188 1284.48,904.264 1324.83,910.174 1365.19,913.955 1405.55,921.782 1445.91,931.478 1486.27,937.716 
  1526.63,940.786 1566.98,944.987 1607.34,951.321 1647.7,956.767 1688.06,959.758 1728.42,962.265 1768.77,966.087 1809.13,970.22 1849.49,973.017 1889.85,974.843 
  1930.21,977.108 1970.56,979.941 2010.92,982.304 2051.28,983.831 2091.64,985.255 2132,987.078 2172.36,988.886 2212.71,990.189 2253.07,991.19 2293.43,992.342 
  
  "/>
<path clip-path="url(#clip200)" d="
M1924.68 347.865 L2282.88 347.865 L2282.88 93.1086 L1924.68 93.1086  Z
  " fill="#ffffff" fill-rule="evenodd" fill-opacity="1"/>
<polyline clip-path="url(#clip200)" style="stroke:#000000; stroke-linecap:butt; stroke-linejoin:round; stroke-width:4; stroke-opacity:1; fill:none" points="
  1924.68,347.865 2282.88,347.865 2282.88,93.1086 1924.68,93.1086 1924.68,347.865 
  "/>
<polyline clip-path="url(#clip200)" style="stroke:#0000ff; stroke-linecap:butt; stroke-linejoin:round; stroke-width:4; stroke-opacity:1; fill:none" points="
  1947.98,178.027 2087.72,178.027 
  "/>
<path clip-path="url(#clip200)" d="
M2111.01 151.938 L2174.56 151.938 L2174.56 148.098 L2111.01 148.098  Z
  " fill="#000000" fill-rule="evenodd" fill-opacity="1"/>
<path clip-path="url(#clip200)" d="M2144.21 165.367 Q2144.21 165.859 2143.9 167.019 L2137.01 194.493 Q2135.5 200.606 2130.58 204.893 Q2125.7 209.179 2120.15 209.179 Q2116.81 209.179 2114.67 207.387 Q2112.52 205.63 2112.52 202.925 Q2112.52 200.536 2113.79 199.377 Q2115.05 198.252 2116.56 198.252 Q2117.06 198.252 2117.58 198.393 Q2118.11 198.533 2118.67 199.131 Q2119.23 199.728 2119.23 200.747 Q2119.23 202.398 2117.79 203.698 Q2117.09 204.295 2116.42 204.436 Q2115.79 204.576 2114.7 204.576 Q2115.12 205.56 2115.9 206.228 Q2116.67 206.895 2117.55 207.141 Q2118.43 207.422 2118.99 207.493 Q2119.59 207.598 2120.15 207.598 Q2124.65 207.598 2128.09 203.066 Q2129.11 201.695 2129.85 200.325 Q2130.62 198.99 2131.18 197.339 Q2131.74 195.723 2131.99 194.844 Q2132.27 193.966 2132.76 191.963 Q2129.49 195.231 2125.49 195.231 Q2123.8 195.231 2122.29 194.774 Q2120.82 194.317 2119.52 193.369 Q2118.22 192.385 2117.44 190.663 Q2116.71 188.942 2116.71 186.658 Q2116.71 184.234 2117.65 180.931 Q2118.6 177.629 2120.89 171.551 Q2122.12 168.143 2122.12 166.492 Q2122.12 165.683 2121.94 165.192 Q2121.76 164.665 2121.41 164.489 Q2121.06 164.278 2120.85 164.243 Q2120.68 164.208 2120.32 164.208 Q2118.25 164.208 2116.32 166.316 Q2114.39 168.424 2113.05 173.132 Q2112.77 174.01 2112.59 174.221 Q2112.42 174.432 2111.89 174.432 Q2111.01 174.397 2111.01 173.694 Q2111.01 173.413 2111.33 172.324 Q2111.65 171.199 2112.38 169.548 Q2113.16 167.862 2114.21 166.351 Q2115.26 164.805 2116.92 163.716 Q2118.6 162.627 2120.53 162.627 Q2123.17 162.627 2124.79 164.348 Q2126.44 166.035 2126.44 168.529 Q2126.44 169.548 2126.16 170.462 Q2125.91 171.34 2125 173.694 Q2121.31 183.18 2121.31 187.818 Q2121.31 188.942 2121.48 189.891 Q2121.69 190.804 2122.15 191.718 Q2122.61 192.596 2123.52 193.123 Q2124.47 193.615 2125.77 193.615 Q2127.42 193.615 2128.97 192.842 Q2130.55 192.034 2131.53 190.945 Q2132.55 189.855 2133.15 188.942 Q2133.78 187.993 2133.92 187.501 L2137.15 174.572 L2138.59 168.81 Q2139.26 165.683 2139.58 164.911 Q2140 164.173 2140.74 163.786 Q2141.47 163.4 2142.11 163.4 Q2142.99 163.4 2143.58 163.927 Q2144.21 164.454 2144.21 165.367 Z" fill="#000000" fill-rule="evenodd" fill-opacity="1" /><path clip-path="url(#clip200)" d="M2167.04 206.618 Q2167.04 207.306 2166.72 207.478 Q2166.4 207.626 2165.51 207.626 L2160.79 207.626 L2157.05 222.48 Q2156.76 223.784 2156.76 224.891 Q2156.76 226.12 2157.13 226.661 Q2157.52 227.202 2158.33 227.202 Q2159.93 227.202 2161.65 225.751 Q2163.4 224.3 2164.87 220.759 Q2165.07 220.292 2165.17 220.193 Q2165.29 220.07 2165.61 220.07 Q2166.23 220.07 2166.23 220.562 Q2166.23 220.734 2165.88 221.521 Q2165.56 222.308 2164.85 223.464 Q2164.16 224.62 2163.25 225.702 Q2162.36 226.784 2161.01 227.571 Q2159.66 228.334 2158.21 228.334 Q2156.17 228.334 2154.86 227.03 Q2153.59 225.727 2153.59 223.686 Q2153.59 223.022 2154.1 220.907 Q2154.62 218.767 2157.42 207.626 L2152.97 207.626 Q2152.36 207.626 2152.11 207.601 Q2151.89 207.577 2151.72 207.454 Q2151.57 207.306 2151.57 207.011 Q2151.57 206.544 2151.77 206.347 Q2151.96 206.126 2152.21 206.101 Q2152.48 206.052 2153.09 206.052 L2157.82 206.052 L2159.78 198.059 Q2159.98 197.272 2160.47 196.829 Q2160.99 196.362 2161.28 196.313 Q2161.58 196.239 2161.8 196.239 Q2162.46 196.239 2162.86 196.608 Q2163.25 196.952 2163.25 197.592 Q2163.25 197.936 2161.18 206.052 L2165.61 206.052 Q2166.18 206.052 2166.4 206.077 Q2166.64 206.101 2166.84 206.224 Q2167.04 206.347 2167.04 206.618 Z" fill="#000000" fill-rule="evenodd" fill-opacity="1" /><polyline clip-path="url(#clip200)" style="stroke:#008000; stroke-linecap:butt; stroke-linejoin:round; stroke-width:4; stroke-opacity:1; fill:none" points="
  1947.98,262.946 2087.72,262.946 
  "/>
<path clip-path="url(#clip200)" d="M2162.1 231.11 L2157.57 249.449 Q2157.25 250.609 2157.04 250.749 Q2156.86 250.89 2156.3 250.89 Q2155.21 250.89 2155.21 250.152 Q2155.21 250.082 2155.32 249.168 Q2155.42 248.22 2155.42 246.498 Q2155.42 240.139 2152.33 236.38 Q2149.27 232.62 2143.83 232.62 Q2138.73 232.62 2133.85 235.29 Q2128.97 237.961 2125.84 241.896 Q2123.2 245.128 2121.38 249.063 Q2119.59 252.998 2118.85 256.441 Q2118.11 259.849 2117.83 261.922 Q2117.58 263.995 2117.58 265.33 Q2117.58 269.265 2118.85 272.321 Q2120.11 275.343 2122.22 277.064 Q2124.36 278.786 2126.82 279.629 Q2129.32 280.472 2132.02 280.472 Q2133.04 280.472 2134.27 280.332 Q2135.5 280.191 2137.4 279.664 Q2139.33 279.137 2140.91 278.259 Q2142.53 277.381 2143.93 275.694 Q2145.37 274.008 2145.94 271.759 Q2147.45 266.032 2147.45 265.189 Q2147.45 264.487 2147.03 264.241 Q2146.6 263.995 2145.2 263.819 L2141.4 263.678 Q2141.33 263.678 2141.23 263.678 Q2140.56 263.678 2140.28 263.678 Q2140 263.643 2139.68 263.573 Q2139.4 263.503 2139.3 263.362 Q2139.23 263.187 2139.23 262.906 Q2139.23 262.238 2139.51 261.922 Q2139.79 261.57 2140.03 261.535 Q2140.28 261.465 2140.74 261.465 L2150.82 261.676 Q2151.63 261.676 2154.58 261.57 Q2157.53 261.465 2158.37 261.465 Q2159.32 261.465 2159.32 262.238 Q2159.32 263.678 2158.16 263.678 Q2157 263.714 2156.41 263.749 Q2155.81 263.749 2155.21 263.924 Q2154.65 264.1 2154.44 264.241 Q2154.23 264.346 2153.95 264.873 Q2153.67 265.365 2153.56 265.786 Q2153.45 266.173 2153.21 267.157 Q2153.07 267.789 2152.72 268.984 Q2152.4 270.178 2152.26 270.811 L2150.89 276.362 Q2149.94 280.472 2149.66 280.753 Q2149.52 281.034 2149.17 281.034 Q2148.64 281.034 2147.52 279.489 Q2146.43 277.943 2145.94 276.573 Q2145.06 277.521 2144.5 278.083 Q2143.93 278.61 2142.63 279.453 Q2141.37 280.297 2139.68 280.964 Q2135.57 282.686 2130.69 282.686 Q2121.98 282.686 2116.49 277.17 Q2111.01 271.619 2111.01 262.976 Q2111.01 256.863 2113.82 250.855 Q2116.63 244.847 2121.1 240.385 Q2125.56 235.923 2131.46 233.147 Q2137.36 230.372 2143.27 230.372 Q2145.51 230.372 2147.52 230.969 Q2149.52 231.566 2150.71 232.304 Q2151.94 233.042 2153.03 234.131 Q2154.12 235.185 2154.47 235.677 Q2154.86 236.169 2155.21 236.766 L2160.24 231.25 Q2161.11 230.372 2161.32 230.372 Q2161.75 230.372 2161.92 230.618 Q2162.1 230.864 2162.1 231.11 Z" fill="#000000" fill-rule="evenodd" fill-opacity="1" /><path clip-path="url(#clip200)" d="M2206 270.811 Q2205.09 275.343 2203.86 277.943 Q2201.89 281.913 2198.52 281.913 Q2196.13 281.913 2194.3 280.472 Q2192.51 279.032 2192.05 276.643 Q2191.14 277.732 2190.47 278.364 Q2189.84 278.997 2188.57 279.98 Q2187.35 280.929 2185.8 281.421 Q2184.25 281.913 2182.5 281.913 Q2178.21 281.913 2175.51 279.664 Q2171.85 294.385 2171.54 295.123 Q2170.52 296.634 2169.04 296.634 Q2168.13 296.634 2167.56 296.072 Q2167 295.545 2167 294.701 Q2167.04 294.42 2167.25 293.542 L2177.58 251.909 Q2177.86 250.784 2178.56 250.152 Q2179.3 249.484 2179.72 249.414 Q2180.14 249.309 2180.46 249.309 Q2181.41 249.309 2181.97 249.836 Q2182.57 250.328 2182.57 251.241 Q2182.57 251.382 2182.36 252.19 Q2182.18 252.963 2181.9 254.157 Q2181.62 255.317 2181.48 255.844 L2178.46 267.93 Q2177.44 272.075 2177.44 274.043 Q2177.44 277.029 2178.77 278.681 Q2180.14 280.297 2182.78 280.297 Q2184.43 280.297 2185.98 279.629 Q2187.52 278.926 2188.57 277.978 Q2189.63 277.029 2190.47 276.01 Q2191.32 274.956 2191.7 274.289 Q2192.09 273.586 2192.12 273.41 L2193.99 266.068 L2197.39 252.611 Q2197.6 251.768 2197.99 251.206 Q2198.41 250.609 2198.9 250.398 Q2199.4 250.187 2199.68 250.152 Q2199.96 250.082 2200.2 250.082 Q2201.08 250.082 2201.68 250.609 Q2202.28 251.136 2202.28 252.049 Q2202.28 252.225 2202.07 253.068 Q2201.89 253.876 2201.61 255.071 Q2201.33 256.23 2201.19 256.863 Q2200.06 261.289 2199.96 261.746 L2197.96 269.511 Q2197.85 269.967 2197.5 271.443 Q2197.18 272.919 2197.01 273.692 Q2196.83 274.429 2196.66 275.448 Q2196.52 276.432 2196.52 276.994 Q2196.52 280.297 2198.69 280.297 Q2199.54 280.297 2200.27 279.805 Q2201.01 279.278 2201.5 278.54 Q2202.03 277.802 2202.52 276.537 Q2203.05 275.237 2203.37 274.183 Q2203.68 273.094 2204.14 271.408 Q2204.31 270.6 2204.49 270.354 Q2204.67 270.108 2205.16 270.108 Q2206 270.108 2206 270.811 Z" fill="#000000" fill-rule="evenodd" fill-opacity="1" /><path clip-path="url(#clip200)" d="M2228.78 294.065 Q2228.78 294.754 2228.46 294.926 Q2228.14 295.074 2227.25 295.074 L2222.53 295.074 L2218.79 309.928 Q2218.5 311.232 2218.5 312.338 Q2218.5 313.568 2218.87 314.109 Q2219.26 314.65 2220.07 314.65 Q2221.67 314.65 2223.39 313.199 Q2225.14 311.748 2226.61 308.207 Q2226.81 307.739 2226.91 307.641 Q2227.03 307.518 2227.35 307.518 Q2227.97 307.518 2227.97 308.01 Q2227.97 308.182 2227.62 308.969 Q2227.3 309.756 2226.59 310.912 Q2225.9 312.068 2224.99 313.15 Q2224.1 314.232 2222.75 315.019 Q2221.4 315.781 2219.95 315.781 Q2217.91 315.781 2216.6 314.478 Q2215.32 313.174 2215.32 311.133 Q2215.32 310.469 2215.84 308.354 Q2216.36 306.214 2219.16 295.074 L2214.71 295.074 Q2214.09 295.074 2213.85 295.049 Q2213.63 295.024 2213.46 294.901 Q2213.31 294.754 2213.31 294.459 Q2213.31 293.991 2213.5 293.795 Q2213.7 293.573 2213.95 293.549 Q2214.22 293.5 2214.83 293.5 L2219.55 293.5 L2221.52 285.507 Q2221.72 284.72 2222.21 284.277 Q2222.73 283.81 2223.02 283.761 Q2223.32 283.687 2223.54 283.687 Q2224.2 283.687 2224.6 284.056 Q2224.99 284.4 2224.99 285.039 Q2224.99 285.384 2222.92 293.5 L2227.35 293.5 Q2227.92 293.5 2228.14 293.524 Q2228.38 293.549 2228.58 293.672 Q2228.78 293.795 2228.78 294.065 Z" fill="#000000" fill-rule="evenodd" fill-opacity="1" /></svg>
