<?xml version="1.0" encoding="utf-8"?>
<svg xmlns="http://www.w3.org/2000/svg" xmlns:xlink="http://www.w3.org/1999/xlink" width="600" height="400" viewBox="0 0 2400 1600">
<defs>
  <clipPath id="clip050">
    <rect x="0" y="0" width="2400" height="1600"/>
  </clipPath>
</defs>
<path clip-path="url(#clip050)" d="
M0 1600 L2400 1600 L2400 0 L0 0  Z
  " fill="#ffffff" fill-rule="evenodd" fill-opacity="1"/>
<defs>
  <clipPath id="clip051">
    <rect x="480" y="0" width="1681" height="1600"/>
  </clipPath>
</defs>
<path clip-path="url(#clip050)" d="
M149.191 1486.45 L2352.76 1486.45 L2352.76 47.2441 L149.191 47.2441  Z
  " fill="#ffffff" fill-rule="evenodd" fill-opacity="1"/>
<defs>
  <clipPath id="clip052">
    <rect x="149" y="47" width="2205" height="1440"/>
  </clipPath>
</defs>
<polyline clip-path="url(#clip052)" style="stroke:#000000; stroke-linecap:round; stroke-linejoin:round; stroke-width:2; stroke-opacity:0.1; fill:none" points="
  149.191,1486.45 149.191,47.2441 
  "/>
<polyline clip-path="url(#clip052)" style="stroke:#000000; stroke-linecap:round; stroke-linejoin:round; stroke-width:2; stroke-opacity:0.1; fill:none" points="
  369.547,1486.45 369.547,47.2441 
  "/>
<polyline clip-path="url(#clip052)" style="stroke:#000000; stroke-linecap:round; stroke-linejoin:round; stroke-width:2; stroke-opacity:0.1; fill:none" points="
  589.904,1486.45 589.904,47.2441 
  "/>
<polyline clip-path="url(#clip052)" style="stroke:#000000; stroke-linecap:round; stroke-linejoin:round; stroke-width:2; stroke-opacity:0.1; fill:none" points="
  810.26,1486.45 810.26,47.2441 
  "/>
<polyline clip-path="url(#clip052)" style="stroke:#000000; stroke-linecap:round; stroke-linejoin:round; stroke-width:2; stroke-opacity:0.1; fill:none" points="
  1030.62,1486.45 1030.62,47.2441 
  "/>
<polyline clip-path="url(#clip052)" style="stroke:#000000; stroke-linecap:round; stroke-linejoin:round; stroke-width:2; stroke-opacity:0.1; fill:none" points="
  1471.33,1486.45 1471.33,47.2441 
  "/>
<polyline clip-path="url(#clip052)" style="stroke:#000000; stroke-linecap:round; stroke-linejoin:round; stroke-width:2; stroke-opacity:0.1; fill:none" points="
  1691.69,1486.45 1691.69,47.2441 
  "/>
<polyline clip-path="url(#clip052)" style="stroke:#000000; stroke-linecap:round; stroke-linejoin:round; stroke-width:2; stroke-opacity:0.1; fill:none" points="
  1912.04,1486.45 1912.04,47.2441 
  "/>
<polyline clip-path="url(#clip052)" style="stroke:#000000; stroke-linecap:round; stroke-linejoin:round; stroke-width:2; stroke-opacity:0.1; fill:none" points="
  2132.4,1486.45 2132.4,47.2441 
  "/>
<polyline clip-path="url(#clip052)" style="stroke:#000000; stroke-linecap:round; stroke-linejoin:round; stroke-width:2; stroke-opacity:0.1; fill:none" points="
  2352.76,1486.45 2352.76,47.2441 
  "/>
<polyline clip-path="url(#clip050)" style="stroke:#000000; stroke-linecap:round; stroke-linejoin:round; stroke-width:4; stroke-opacity:1; fill:none" points="
  149.191,766.846 2352.76,766.846 
  "/>
<polyline clip-path="url(#clip050)" style="stroke:#000000; stroke-linecap:round; stroke-linejoin:round; stroke-width:4; stroke-opacity:1; fill:none" points="
  149.191,785.744 149.191,747.948 
  "/>
<polyline clip-path="url(#clip050)" style="stroke:#000000; stroke-linecap:round; stroke-linejoin:round; stroke-width:4; stroke-opacity:1; fill:none" points="
  369.547,785.744 369.547,747.948 
  "/>
<polyline clip-path="url(#clip050)" style="stroke:#000000; stroke-linecap:round; stroke-linejoin:round; stroke-width:4; stroke-opacity:1; fill:none" points="
  589.904,785.744 589.904,747.948 
  "/>
<polyline clip-path="url(#clip050)" style="stroke:#000000; stroke-linecap:round; stroke-linejoin:round; stroke-width:4; stroke-opacity:1; fill:none" points="
  810.26,785.744 810.26,747.948 
  "/>
<polyline clip-path="url(#clip050)" style="stroke:#000000; stroke-linecap:round; stroke-linejoin:round; stroke-width:4; stroke-opacity:1; fill:none" points="
  1030.62,785.744 1030.62,747.948 
  "/>
<polyline clip-path="url(#clip050)" style="stroke:#000000; stroke-linecap:round; stroke-linejoin:round; stroke-width:4; stroke-opacity:1; fill:none" points="
  1471.33,785.744 1471.33,747.948 
  "/>
<polyline clip-path="url(#clip050)" style="stroke:#000000; stroke-linecap:round; stroke-linejoin:round; stroke-width:4; stroke-opacity:1; fill:none" points="
  1691.69,785.744 1691.69,747.948 
  "/>
<polyline clip-path="url(#clip050)" style="stroke:#000000; stroke-linecap:round; stroke-linejoin:round; stroke-width:4; stroke-opacity:1; fill:none" points="
  1912.04,785.744 1912.04,747.948 
  "/>
<polyline clip-path="url(#clip050)" style="stroke:#000000; stroke-linecap:round; stroke-linejoin:round; stroke-width:4; stroke-opacity:1; fill:none" points="
  2132.4,785.744 2132.4,747.948 
  "/>
<polyline clip-path="url(#clip050)" style="stroke:#000000; stroke-linecap:round; stroke-linejoin:round; stroke-width:4; stroke-opacity:1; fill:none" points="
  2352.76,785.744 2352.76,747.948 
  "/>
<path clip-path="url(#clip050)" d="M118.832 812.417 L148.508 812.417 L148.508 816.353 L118.832 816.353 L118.832 812.417 Z" fill="#000000" fill-rule="evenodd" fill-opacity="1" /><path clip-path="url(#clip050)" d="M158.647 794.686 L177.003 794.686 L177.003 798.621 L162.929 798.621 L162.929 807.093 Q163.948 806.746 164.966 806.584 Q165.985 806.399 167.003 806.399 Q172.79 806.399 176.17 809.57 Q179.55 812.741 179.55 818.158 Q179.55 823.737 176.077 826.839 Q172.605 829.917 166.286 829.917 Q164.11 829.917 161.841 829.547 Q159.596 829.177 157.189 828.436 L157.189 823.737 Q159.272 824.871 161.494 825.427 Q163.716 825.982 166.193 825.982 Q170.198 825.982 172.536 823.876 Q174.874 821.769 174.874 818.158 Q174.874 814.547 172.536 812.441 Q170.198 810.334 166.193 810.334 Q164.318 810.334 162.443 810.751 Q160.591 811.167 158.647 812.047 L158.647 794.686 Z" fill="#000000" fill-rule="evenodd" fill-opacity="1" /><path clip-path="url(#clip050)" d="M338.448 812.417 L368.124 812.417 L368.124 816.353 L338.448 816.353 L338.448 812.417 Z" fill="#000000" fill-rule="evenodd" fill-opacity="1" /><path clip-path="url(#clip050)" d="M391.063 798.76 L379.258 817.209 L391.063 817.209 L391.063 798.76 M389.837 794.686 L395.716 794.686 L395.716 817.209 L400.647 817.209 L400.647 821.098 L395.716 821.098 L395.716 829.246 L391.063 829.246 L391.063 821.098 L375.462 821.098 L375.462 816.584 L389.837 794.686 Z" fill="#000000" fill-rule="evenodd" fill-opacity="1" /><path clip-path="url(#clip050)" d="M559.372 812.417 L589.047 812.417 L589.047 816.353 L559.372 816.353 L559.372 812.417 Z" fill="#000000" fill-rule="evenodd" fill-opacity="1" /><path clip-path="url(#clip050)" d="M613.307 810.612 Q616.663 811.329 618.538 813.598 Q620.436 815.866 620.436 819.2 Q620.436 824.315 616.918 827.116 Q613.399 829.917 606.918 829.917 Q604.742 829.917 602.427 829.477 Q600.135 829.061 597.682 828.204 L597.682 823.69 Q599.626 824.825 601.941 825.403 Q604.256 825.982 606.779 825.982 Q611.177 825.982 613.469 824.246 Q615.783 822.51 615.783 819.2 Q615.783 816.144 613.631 814.431 Q611.501 812.695 607.682 812.695 L603.654 812.695 L603.654 808.853 L607.867 808.853 Q611.316 808.853 613.144 807.487 Q614.973 806.098 614.973 803.505 Q614.973 800.843 613.075 799.431 Q611.2 797.996 607.682 797.996 Q605.76 797.996 603.561 798.413 Q601.362 798.829 598.723 799.709 L598.723 795.542 Q601.385 794.802 603.7 794.431 Q606.038 794.061 608.098 794.061 Q613.422 794.061 616.524 796.492 Q619.626 798.899 619.626 803.019 Q619.626 805.89 617.982 807.88 Q616.339 809.848 613.307 810.612 Z" fill="#000000" fill-rule="evenodd" fill-opacity="1" /><path clip-path="url(#clip050)" d="M780.203 812.417 L809.878 812.417 L809.878 816.353 L780.203 816.353 L780.203 812.417 Z" fill="#000000" fill-rule="evenodd" fill-opacity="1" /><path clip-path="url(#clip050)" d="M823.999 825.311 L840.318 825.311 L840.318 829.246 L818.374 829.246 L818.374 825.311 Q821.036 822.556 825.619 817.927 Q830.226 813.274 831.406 811.931 Q833.651 809.408 834.531 807.672 Q835.434 805.913 835.434 804.223 Q835.434 801.468 833.489 799.732 Q831.568 797.996 828.466 797.996 Q826.267 797.996 823.814 798.76 Q821.383 799.524 818.605 801.075 L818.605 796.353 Q821.429 795.218 823.883 794.64 Q826.337 794.061 828.374 794.061 Q833.744 794.061 836.938 796.746 Q840.133 799.431 840.133 803.922 Q840.133 806.052 839.323 807.973 Q838.536 809.871 836.429 812.464 Q835.851 813.135 832.749 816.353 Q829.647 819.547 823.999 825.311 Z" fill="#000000" fill-rule="evenodd" fill-opacity="1" /><path clip-path="url(#clip050)" d="M1000.37 812.417 L1030.05 812.417 L1030.05 816.353 L1000.37 816.353 L1000.37 812.417 Z" fill="#000000" fill-rule="evenodd" fill-opacity="1" /><path clip-path="url(#clip050)" d="M1040.95 825.311 L1048.59 825.311 L1048.59 798.945 L1040.28 800.612 L1040.28 796.353 L1048.55 794.686 L1053.22 794.686 L1053.22 825.311 L1060.86 825.311 L1060.86 829.246 L1040.95 829.246 L1040.95 825.311 Z" fill="#000000" fill-rule="evenodd" fill-opacity="1" /><path clip-path="url(#clip050)" d="M1461.71 825.311 L1469.35 825.311 L1469.35 798.945 L1461.04 800.612 L1461.04 796.353 L1469.3 794.686 L1473.98 794.686 L1473.98 825.311 L1481.62 825.311 L1481.62 829.246 L1461.71 829.246 L1461.71 825.311 Z" fill="#000000" fill-rule="evenodd" fill-opacity="1" /><path clip-path="url(#clip050)" d="M1686.34 825.311 L1702.66 825.311 L1702.66 829.246 L1680.71 829.246 L1680.71 825.311 Q1683.38 822.556 1687.96 817.927 Q1692.57 813.274 1693.75 811.931 Q1695.99 809.408 1696.87 807.672 Q1697.77 805.913 1697.77 804.223 Q1697.77 801.468 1695.83 799.732 Q1693.91 797.996 1690.81 797.996 Q1688.61 797.996 1686.15 798.76 Q1683.72 799.524 1680.95 801.075 L1680.95 796.353 Q1683.77 795.218 1686.22 794.64 Q1688.68 794.061 1690.71 794.061 Q1696.08 794.061 1699.28 796.746 Q1702.47 799.431 1702.47 803.922 Q1702.47 806.052 1701.66 807.973 Q1700.88 809.871 1698.77 812.464 Q1698.19 813.135 1695.09 816.353 Q1691.99 819.547 1686.34 825.311 Z" fill="#000000" fill-rule="evenodd" fill-opacity="1" /><path clip-path="url(#clip050)" d="M1916.29 810.612 Q1919.65 811.329 1921.52 813.598 Q1923.42 815.866 1923.42 819.2 Q1923.42 824.315 1919.9 827.116 Q1916.38 829.917 1909.9 829.917 Q1907.73 829.917 1905.41 829.477 Q1903.12 829.061 1900.67 828.204 L1900.67 823.69 Q1902.61 824.825 1904.92 825.403 Q1907.24 825.982 1909.76 825.982 Q1914.16 825.982 1916.45 824.246 Q1918.77 822.51 1918.77 819.2 Q1918.77 816.144 1916.61 814.431 Q1914.49 812.695 1910.67 812.695 L1906.64 812.695 L1906.64 808.853 L1910.85 808.853 Q1914.3 808.853 1916.13 807.487 Q1917.96 806.098 1917.96 803.505 Q1917.96 800.843 1916.06 799.431 Q1914.18 797.996 1910.67 797.996 Q1908.74 797.996 1906.55 798.413 Q1904.35 798.829 1901.71 799.709 L1901.71 795.542 Q1904.37 794.802 1906.68 794.431 Q1909.02 794.061 1911.08 794.061 Q1916.41 794.061 1919.51 796.492 Q1922.61 798.899 1922.61 803.019 Q1922.61 805.89 1920.97 807.88 Q1919.32 809.848 1916.29 810.612 Z" fill="#000000" fill-rule="evenodd" fill-opacity="1" /><path clip-path="url(#clip050)" d="M2135.41 798.76 L2123.6 817.209 L2135.41 817.209 L2135.41 798.76 M2134.18 794.686 L2140.06 794.686 L2140.06 817.209 L2144.99 817.209 L2144.99 821.098 L2140.06 821.098 L2140.06 829.246 L2135.41 829.246 L2135.41 821.098 L2119.81 821.098 L2119.81 816.584 L2134.18 794.686 Z" fill="#000000" fill-rule="evenodd" fill-opacity="1" /><path clip-path="url(#clip050)" d="M2343.03 794.686 L2361.39 794.686 L2361.39 798.621 L2347.32 798.621 L2347.32 807.093 Q2348.33 806.746 2349.35 806.584 Q2350.37 806.399 2351.39 806.399 Q2357.18 806.399 2360.56 809.57 Q2363.94 812.741 2363.94 818.158 Q2363.94 823.737 2360.46 826.839 Q2356.99 829.917 2350.67 829.917 Q2348.5 829.917 2346.23 829.547 Q2343.98 829.177 2341.58 828.436 L2341.58 823.737 Q2343.66 824.871 2345.88 825.427 Q2348.1 825.982 2350.58 825.982 Q2354.58 825.982 2356.92 823.876 Q2359.26 821.769 2359.26 818.158 Q2359.26 814.547 2356.92 812.441 Q2354.58 810.334 2350.58 810.334 Q2348.71 810.334 2346.83 810.751 Q2344.98 811.167 2343.03 812.047 L2343.03 794.686 Z" fill="#000000" fill-rule="evenodd" fill-opacity="1" /><polyline clip-path="url(#clip052)" style="stroke:#000000; stroke-linecap:round; stroke-linejoin:round; stroke-width:2; stroke-opacity:0.1; fill:none" points="
  149.191,1486.45 2352.76,1486.45 
  "/>
<polyline clip-path="url(#clip052)" style="stroke:#000000; stroke-linecap:round; stroke-linejoin:round; stroke-width:2; stroke-opacity:0.1; fill:none" points="
  149.191,1342.53 2352.76,1342.53 
  "/>
<polyline clip-path="url(#clip052)" style="stroke:#000000; stroke-linecap:round; stroke-linejoin:round; stroke-width:2; stroke-opacity:0.1; fill:none" points="
  149.191,1198.61 2352.76,1198.61 
  "/>
<polyline clip-path="url(#clip052)" style="stroke:#000000; stroke-linecap:round; stroke-linejoin:round; stroke-width:2; stroke-opacity:0.1; fill:none" points="
  149.191,1054.69 2352.76,1054.69 
  "/>
<polyline clip-path="url(#clip052)" style="stroke:#000000; stroke-linecap:round; stroke-linejoin:round; stroke-width:2; stroke-opacity:0.1; fill:none" points="
  149.191,910.766 2352.76,910.766 
  "/>
<polyline clip-path="url(#clip052)" style="stroke:#000000; stroke-linecap:round; stroke-linejoin:round; stroke-width:2; stroke-opacity:0.1; fill:none" points="
  149.191,622.926 2352.76,622.926 
  "/>
<polyline clip-path="url(#clip052)" style="stroke:#000000; stroke-linecap:round; stroke-linejoin:round; stroke-width:2; stroke-opacity:0.1; fill:none" points="
  149.191,479.005 2352.76,479.005 
  "/>
<polyline clip-path="url(#clip052)" style="stroke:#000000; stroke-linecap:round; stroke-linejoin:round; stroke-width:2; stroke-opacity:0.1; fill:none" points="
  149.191,335.085 2352.76,335.085 
  "/>
<polyline clip-path="url(#clip052)" style="stroke:#000000; stroke-linecap:round; stroke-linejoin:round; stroke-width:2; stroke-opacity:0.1; fill:none" points="
  149.191,191.164 2352.76,191.164 
  "/>
<polyline clip-path="url(#clip052)" style="stroke:#000000; stroke-linecap:round; stroke-linejoin:round; stroke-width:2; stroke-opacity:0.1; fill:none" points="
  149.191,47.2441 2352.76,47.2441 
  "/>
<polyline clip-path="url(#clip050)" style="stroke:#000000; stroke-linecap:round; stroke-linejoin:round; stroke-width:4; stroke-opacity:1; fill:none" points="
  1250.97,1486.45 1250.97,47.2441 
  "/>
<polyline clip-path="url(#clip050)" style="stroke:#000000; stroke-linecap:round; stroke-linejoin:round; stroke-width:4; stroke-opacity:1; fill:none" points="
  1232.08,1486.45 1269.87,1486.45 
  "/>
<polyline clip-path="url(#clip050)" style="stroke:#000000; stroke-linecap:round; stroke-linejoin:round; stroke-width:4; stroke-opacity:1; fill:none" points="
  1232.08,1342.53 1269.87,1342.53 
  "/>
<polyline clip-path="url(#clip050)" style="stroke:#000000; stroke-linecap:round; stroke-linejoin:round; stroke-width:4; stroke-opacity:1; fill:none" points="
  1232.08,1198.61 1269.87,1198.61 
  "/>
<polyline clip-path="url(#clip050)" style="stroke:#000000; stroke-linecap:round; stroke-linejoin:round; stroke-width:4; stroke-opacity:1; fill:none" points="
  1232.08,1054.69 1269.87,1054.69 
  "/>
<polyline clip-path="url(#clip050)" style="stroke:#000000; stroke-linecap:round; stroke-linejoin:round; stroke-width:4; stroke-opacity:1; fill:none" points="
  1232.08,910.766 1269.87,910.766 
  "/>
<polyline clip-path="url(#clip050)" style="stroke:#000000; stroke-linecap:round; stroke-linejoin:round; stroke-width:4; stroke-opacity:1; fill:none" points="
  1232.08,622.926 1269.87,622.926 
  "/>
<polyline clip-path="url(#clip050)" style="stroke:#000000; stroke-linecap:round; stroke-linejoin:round; stroke-width:4; stroke-opacity:1; fill:none" points="
  1232.08,479.005 1269.87,479.005 
  "/>
<polyline clip-path="url(#clip050)" style="stroke:#000000; stroke-linecap:round; stroke-linejoin:round; stroke-width:4; stroke-opacity:1; fill:none" points="
  1232.08,335.085 1269.87,335.085 
  "/>
<polyline clip-path="url(#clip050)" style="stroke:#000000; stroke-linecap:round; stroke-linejoin:round; stroke-width:4; stroke-opacity:1; fill:none" points="
  1232.08,191.164 1269.87,191.164 
  "/>
<polyline clip-path="url(#clip050)" style="stroke:#000000; stroke-linecap:round; stroke-linejoin:round; stroke-width:4; stroke-opacity:1; fill:none" points="
  1232.08,47.2441 1269.87,47.2441 
  "/>
<path clip-path="url(#clip050)" d="M1154.26 1486.9 L1183.93 1486.9 L1183.93 1490.83 L1154.26 1490.83 L1154.26 1486.9 Z" fill="#000000" fill-rule="evenodd" fill-opacity="1" /><path clip-path="url(#clip050)" d="M1194.07 1469.17 L1212.43 1469.17 L1212.43 1473.1 L1198.35 1473.1 L1198.35 1481.58 Q1199.37 1481.23 1200.39 1481.07 Q1201.41 1480.88 1202.43 1480.88 Q1208.21 1480.88 1211.59 1484.05 Q1214.97 1487.22 1214.97 1492.64 Q1214.97 1498.22 1211.5 1501.32 Q1208.03 1504.4 1201.71 1504.4 Q1199.53 1504.4 1197.27 1504.03 Q1195.02 1503.66 1192.61 1502.92 L1192.61 1498.22 Q1194.7 1499.35 1196.92 1499.91 Q1199.14 1500.46 1201.62 1500.46 Q1205.62 1500.46 1207.96 1498.36 Q1210.3 1496.25 1210.3 1492.64 Q1210.3 1489.03 1207.96 1486.92 Q1205.62 1484.82 1201.62 1484.82 Q1199.74 1484.82 1197.87 1485.23 Q1196.02 1485.65 1194.07 1486.53 L1194.07 1469.17 Z" fill="#000000" fill-rule="evenodd" fill-opacity="1" /><path clip-path="url(#clip050)" d="M1152.77 1342.98 L1182.45 1342.98 L1182.45 1346.91 L1152.77 1346.91 L1152.77 1342.98 Z" fill="#000000" fill-rule="evenodd" fill-opacity="1" /><path clip-path="url(#clip050)" d="M1205.39 1329.32 L1193.58 1347.77 L1205.39 1347.77 L1205.39 1329.32 M1204.16 1325.25 L1210.04 1325.25 L1210.04 1347.77 L1214.97 1347.77 L1214.97 1351.66 L1210.04 1351.66 L1210.04 1359.81 L1205.39 1359.81 L1205.39 1351.66 L1189.79 1351.66 L1189.79 1347.15 L1204.16 1325.25 Z" fill="#000000" fill-rule="evenodd" fill-opacity="1" /><path clip-path="url(#clip050)" d="M1153.91 1199.06 L1183.58 1199.06 L1183.58 1202.99 L1153.91 1202.99 L1153.91 1199.06 Z" fill="#000000" fill-rule="evenodd" fill-opacity="1" /><path clip-path="url(#clip050)" d="M1207.84 1197.25 Q1211.2 1197.97 1213.08 1200.24 Q1214.97 1202.51 1214.97 1205.84 Q1214.97 1210.96 1211.45 1213.76 Q1207.94 1216.56 1201.45 1216.56 Q1199.28 1216.56 1196.96 1216.12 Q1194.67 1215.7 1192.22 1214.85 L1192.22 1210.33 Q1194.16 1211.47 1196.48 1212.04 Q1198.79 1212.62 1201.32 1212.62 Q1205.71 1212.62 1208.01 1210.89 Q1210.32 1209.15 1210.32 1205.84 Q1210.32 1202.79 1208.17 1201.07 Q1206.04 1199.34 1202.22 1199.34 L1198.19 1199.34 L1198.19 1195.49 L1202.4 1195.49 Q1205.85 1195.49 1207.68 1194.13 Q1209.51 1192.74 1209.51 1190.15 Q1209.51 1187.48 1207.61 1186.07 Q1205.74 1184.64 1202.22 1184.64 Q1200.3 1184.64 1198.1 1185.05 Q1195.9 1185.47 1193.26 1186.35 L1193.26 1182.18 Q1195.92 1181.44 1198.24 1181.07 Q1200.58 1180.7 1202.64 1180.7 Q1207.96 1180.7 1211.06 1183.13 Q1214.16 1185.54 1214.16 1189.66 Q1214.16 1192.53 1212.52 1194.52 Q1210.88 1196.49 1207.84 1197.25 Z" fill="#000000" fill-rule="evenodd" fill-opacity="1" /><path clip-path="url(#clip050)" d="M1154.86 1055.14 L1184.53 1055.14 L1184.53 1059.07 L1154.86 1059.07 L1154.86 1055.14 Z" fill="#000000" fill-rule="evenodd" fill-opacity="1" /><path clip-path="url(#clip050)" d="M1198.65 1068.03 L1214.97 1068.03 L1214.97 1071.97 L1193.03 1071.97 L1193.03 1068.03 Q1195.69 1065.28 1200.27 1060.65 Q1204.88 1055.99 1206.06 1054.65 Q1208.31 1052.13 1209.19 1050.39 Q1210.09 1048.63 1210.09 1046.94 Q1210.09 1044.19 1208.14 1042.45 Q1206.22 1040.72 1203.12 1040.72 Q1200.92 1040.72 1198.47 1041.48 Q1196.04 1042.24 1193.26 1043.8 L1193.26 1039.07 Q1196.08 1037.94 1198.54 1037.36 Q1200.99 1036.78 1203.03 1036.78 Q1208.4 1036.78 1211.59 1039.47 Q1214.79 1042.15 1214.79 1046.64 Q1214.79 1048.77 1213.98 1050.69 Q1213.19 1052.59 1211.08 1055.18 Q1210.51 1055.86 1207.4 1059.07 Q1204.3 1062.27 1198.65 1068.03 Z" fill="#000000" fill-rule="evenodd" fill-opacity="1" /><path clip-path="url(#clip050)" d="M1154.49 911.218 L1184.16 911.218 L1184.16 915.153 L1154.49 915.153 L1154.49 911.218 Z" fill="#000000" fill-rule="evenodd" fill-opacity="1" /><path clip-path="url(#clip050)" d="M1195.07 924.111 L1202.7 924.111 L1202.7 897.746 L1194.39 899.412 L1194.39 895.153 L1202.66 893.486 L1207.33 893.486 L1207.33 924.111 L1214.97 924.111 L1214.97 928.046 L1195.07 928.046 L1195.07 924.111 Z" fill="#000000" fill-rule="evenodd" fill-opacity="1" /><path clip-path="url(#clip050)" d="M1195.07 636.27 L1202.7 636.27 L1202.7 609.905 L1194.39 611.572 L1194.39 607.312 L1202.66 605.646 L1207.33 605.646 L1207.33 636.27 L1214.97 636.27 L1214.97 640.206 L1195.07 640.206 L1195.07 636.27 Z" fill="#000000" fill-rule="evenodd" fill-opacity="1" /><path clip-path="url(#clip050)" d="M1198.65 492.35 L1214.97 492.35 L1214.97 496.285 L1193.03 496.285 L1193.03 492.35 Q1195.69 489.595 1200.27 484.966 Q1204.88 480.313 1206.06 478.971 Q1208.31 476.447 1209.19 474.711 Q1210.09 472.952 1210.09 471.262 Q1210.09 468.508 1208.14 466.771 Q1206.22 465.035 1203.12 465.035 Q1200.92 465.035 1198.47 465.799 Q1196.04 466.563 1193.26 468.114 L1193.26 463.392 Q1196.08 462.258 1198.54 461.679 Q1200.99 461.1 1203.03 461.1 Q1208.4 461.1 1211.59 463.785 Q1214.79 466.471 1214.79 470.961 Q1214.79 473.091 1213.98 475.012 Q1213.19 476.91 1211.08 479.503 Q1210.51 480.174 1207.4 483.392 Q1204.3 486.586 1198.65 492.35 Z" fill="#000000" fill-rule="evenodd" fill-opacity="1" /><path clip-path="url(#clip050)" d="M1207.84 333.731 Q1211.2 334.448 1213.08 336.717 Q1214.97 338.985 1214.97 342.319 Q1214.97 347.434 1211.45 350.235 Q1207.94 353.036 1201.45 353.036 Q1199.28 353.036 1196.96 352.596 Q1194.67 352.18 1192.22 351.323 L1192.22 346.809 Q1194.16 347.944 1196.48 348.522 Q1198.79 349.101 1201.32 349.101 Q1205.71 349.101 1208.01 347.365 Q1210.32 345.629 1210.32 342.319 Q1210.32 339.263 1208.17 337.55 Q1206.04 335.814 1202.22 335.814 L1198.19 335.814 L1198.19 331.971 L1202.4 331.971 Q1205.85 331.971 1207.68 330.606 Q1209.51 329.217 1209.51 326.624 Q1209.51 323.962 1207.61 322.55 Q1205.74 321.115 1202.22 321.115 Q1200.3 321.115 1198.1 321.532 Q1195.9 321.948 1193.26 322.828 L1193.26 318.661 Q1195.92 317.921 1198.24 317.55 Q1200.58 317.18 1202.64 317.18 Q1207.96 317.18 1211.06 319.61 Q1214.16 322.018 1214.16 326.138 Q1214.16 329.008 1212.52 330.999 Q1210.88 332.967 1207.84 333.731 Z" fill="#000000" fill-rule="evenodd" fill-opacity="1" /><path clip-path="url(#clip050)" d="M1205.39 177.959 L1193.58 196.407 L1205.39 196.407 L1205.39 177.959 M1204.16 173.884 L1210.04 173.884 L1210.04 196.407 L1214.97 196.407 L1214.97 200.296 L1210.04 200.296 L1210.04 208.444 L1205.39 208.444 L1205.39 200.296 L1189.79 200.296 L1189.79 195.783 L1204.16 173.884 Z" fill="#000000" fill-rule="evenodd" fill-opacity="1" /><path clip-path="url(#clip050)" d="M1194.07 29.9641 L1212.43 29.9641 L1212.43 33.8993 L1198.35 33.8993 L1198.35 42.3714 Q1199.37 42.0242 1200.39 41.8622 Q1201.41 41.677 1202.43 41.677 Q1208.21 41.677 1211.59 44.8483 Q1214.97 48.0196 1214.97 53.4362 Q1214.97 59.0149 1211.5 62.1167 Q1208.03 65.1954 1201.71 65.1954 Q1199.53 65.1954 1197.27 64.825 Q1195.02 64.4547 1192.61 63.7139 L1192.61 59.0149 Q1194.7 60.1491 1196.92 60.7047 Q1199.14 61.2602 1201.62 61.2602 Q1205.62 61.2602 1207.96 59.1538 Q1210.3 57.0473 1210.3 53.4362 Q1210.3 49.8251 1207.96 47.7186 Q1205.62 45.6122 1201.62 45.6122 Q1199.74 45.6122 1197.87 46.0288 Q1196.02 46.4455 1194.07 47.3251 L1194.07 29.9641 Z" fill="#000000" fill-rule="evenodd" fill-opacity="1" /><polyline clip-path="url(#clip052)" style="stroke:#ff0000; stroke-linecap:round; stroke-linejoin:round; stroke-width:4; stroke-opacity:1; fill:none" points="
  1250.97,766.846 369.547,1342.53 
  "/>
<polyline clip-path="url(#clip052)" style="stroke:#ff0000; stroke-linecap:round; stroke-linejoin:round; stroke-width:4; stroke-opacity:1; fill:none" points="
  409.531,1337.91 369.547,1342.53 389.845,1307.77 
  "/>
<polyline clip-path="url(#clip052)" style="stroke:#ff0000; stroke-linecap:round; stroke-linejoin:round; stroke-width:4; stroke-opacity:1; fill:none" points="
  369.547,1342.53 1250.97,766.846 
  "/>
<polyline clip-path="url(#clip052)" style="stroke:#ff0000; stroke-linecap:round; stroke-linejoin:round; stroke-width:4; stroke-opacity:1; fill:none" points="
  1250.97,766.846 1691.69,479.005 
  "/>
<polyline clip-path="url(#clip052)" style="stroke:#ff0000; stroke-linecap:round; stroke-linejoin:round; stroke-width:4; stroke-opacity:1; fill:none" points="
  1651.7,483.621 1691.69,479.005 1671.39,513.761 
  "/>
<polyline clip-path="url(#clip052)" style="stroke:#ff0000; stroke-linecap:round; stroke-linejoin:round; stroke-width:4; stroke-opacity:1; fill:none" points="
  1691.69,479.005 1250.97,766.846 
  "/>
<polyline clip-path="url(#clip052)" style="stroke:#0000ff; stroke-linecap:round; stroke-linejoin:round; stroke-width:4; stroke-opacity:1; fill:none" points="
  1250.97,766.846 2132.4,191.164 
  "/>
<polyline clip-path="url(#clip052)" style="stroke:#0000ff; stroke-linecap:round; stroke-linejoin:round; stroke-width:4; stroke-opacity:1; fill:none" points="
  2092.42,195.78 2132.4,191.164 2112.1,225.921 
  "/>
<polyline clip-path="url(#clip052)" style="stroke:#0000ff; stroke-linecap:round; stroke-linejoin:round; stroke-width:4; stroke-opacity:1; fill:none" points="
  2132.4,191.164 1250.97,766.846 
  "/>
<path clip-path="url(#clip050)" d="M436.891 1376.36 Q437.383 1376.85 437.383 1377.54 Q437.383 1378.24 436.891 1378.73 Q436.399 1379.22 435.702 1379.22 L383.154 1379.22 Q382.457 1379.22 381.965 1378.73 Q381.473 1378.24 381.473 1377.54 Q381.473 1376.85 381.965 1376.36 Q382.457 1375.86 383.154 1375.86 L435.702 1375.86 Q436.399 1375.86 436.891 1376.36 Z" fill="#000000" fill-rule="evenodd" fill-opacity="1" /><path clip-path="url(#clip050)" d="M446.143 1398.53 Q446.143 1397.01 446.266 1396.56 Q446.429 1396.11 447.085 1395.42 L463.194 1377.46 Q472.007 1367.54 472.007 1358.89 Q472.007 1353.28 469.056 1349.26 Q466.145 1345.24 460.776 1345.24 Q457.087 1345.24 453.972 1347.5 Q450.856 1349.75 449.422 1353.77 Q449.668 1353.69 450.528 1353.69 Q452.619 1353.69 453.767 1355 Q454.955 1356.31 454.955 1358.07 Q454.955 1360.33 453.48 1361.44 Q452.045 1362.5 450.61 1362.5 Q450.037 1362.5 449.258 1362.38 Q448.52 1362.25 447.331 1361.11 Q446.143 1359.92 446.143 1357.83 Q446.143 1351.97 450.569 1347.29 Q455.037 1342.62 461.841 1342.62 Q469.547 1342.62 474.589 1347.21 Q479.672 1351.76 479.672 1358.89 Q479.672 1361.39 478.893 1363.69 Q478.155 1365.94 477.13 1367.71 Q476.147 1369.47 473.441 1372.3 Q470.736 1375.13 468.564 1377.13 Q466.391 1379.14 461.514 1383.41 L452.619 1392.05 L467.744 1392.05 Q475.122 1392.05 475.696 1391.4 Q476.516 1390.21 477.54 1383.94 L479.672 1383.94 L477.294 1398.53 L446.143 1398.53 Z" fill="#000000" fill-rule="evenodd" fill-opacity="1" /><path clip-path="url(#clip050)" d="M528.178 1366.97 Q528.178 1369.26 526.743 1370.58 Q525.309 1371.85 523.669 1371.85 Q522.112 1371.85 521.292 1370.94 Q520.472 1370.04 520.472 1368.9 Q520.472 1367.34 521.62 1365.98 Q522.767 1364.63 524.489 1364.35 Q522.808 1363.28 520.308 1363.28 Q518.668 1363.28 517.234 1364.14 Q515.84 1365 514.979 1366.11 Q514.16 1367.21 513.422 1368.81 Q512.725 1370.37 512.438 1371.31 Q512.192 1372.22 511.987 1373.2 L509.118 1384.68 Q507.724 1390.13 507.724 1392.05 Q507.724 1394.43 508.872 1396.03 Q510.02 1397.59 512.315 1397.59 Q513.217 1397.59 514.242 1397.34 Q515.266 1397.05 516.578 1396.32 Q517.931 1395.54 519.119 1394.39 Q520.349 1393.2 521.538 1391.19 Q522.726 1389.18 523.505 1386.6 Q523.751 1385.7 524.571 1385.7 Q525.596 1385.7 525.596 1386.52 Q525.596 1387.22 525.022 1388.69 Q524.489 1390.13 523.3 1392.01 Q522.153 1393.86 520.636 1395.54 Q519.119 1397.18 516.865 1398.33 Q514.61 1399.47 512.151 1399.47 Q508.626 1399.47 506.29 1397.59 Q503.953 1395.7 503.093 1393.08 Q502.888 1393.45 502.601 1393.94 Q502.314 1394.43 501.453 1395.54 Q500.633 1396.6 499.69 1397.42 Q498.748 1398.2 497.272 1398.82 Q495.837 1399.47 494.28 1399.47 Q492.312 1399.47 490.55 1398.9 Q488.828 1398.33 487.599 1397.01 Q486.369 1395.7 486.369 1393.9 Q486.369 1391.89 487.722 1390.5 Q489.115 1389.06 491.001 1389.06 Q492.189 1389.06 493.132 1389.76 Q494.116 1390.46 494.116 1391.97 Q494.116 1393.65 492.968 1394.92 Q491.82 1396.19 490.181 1396.52 Q491.861 1397.59 494.362 1397.59 Q497.067 1397.59 499.199 1395.21 Q501.33 1392.83 502.355 1388.86 Q504.896 1379.31 505.88 1375.04 Q506.864 1370.74 506.864 1368.9 Q506.864 1367.17 506.413 1365.98 Q505.962 1364.8 505.183 1364.26 Q504.445 1363.69 503.748 1363.48 Q503.093 1363.28 502.355 1363.28 Q501.125 1363.28 499.731 1363.77 Q498.379 1364.26 496.739 1365.41 Q495.141 1366.52 493.624 1368.81 Q492.107 1371.11 491.083 1374.26 Q490.878 1375.21 489.976 1375.21 Q488.992 1375.17 488.992 1374.35 Q488.992 1373.65 489.525 1372.22 Q490.099 1370.74 491.247 1368.9 Q492.435 1367.05 493.952 1365.41 Q495.509 1363.73 497.764 1362.58 Q500.059 1361.44 502.519 1361.44 Q503.625 1361.44 504.691 1361.68 Q505.798 1361.89 507.109 1362.5 Q508.462 1363.12 509.651 1364.47 Q510.839 1365.82 511.577 1367.79 Q512.069 1366.85 512.725 1365.94 Q513.422 1365.04 514.488 1363.94 Q515.594 1362.79 517.111 1362.13 Q518.668 1361.44 520.39 1361.44 Q522.071 1361.44 523.71 1361.89 Q525.35 1362.3 526.743 1363.65 Q528.178 1364.96 528.178 1366.97 Z" fill="#000000" fill-rule="evenodd" fill-opacity="1" /><path clip-path="url(#clip050)" d="M1797.87 494.126 Q1797.87 496.421 1796.43 497.733 Q1795 499.004 1793.36 499.004 Q1791.8 499.004 1790.98 498.102 Q1790.16 497.2 1790.16 496.052 Q1790.16 494.495 1791.31 493.142 Q1792.46 491.79 1794.18 491.503 Q1792.5 490.437 1790 490.437 Q1788.36 490.437 1786.92 491.298 Q1785.53 492.159 1784.67 493.265 Q1783.85 494.372 1783.11 495.971 Q1782.42 497.528 1782.13 498.471 Q1781.88 499.373 1781.68 500.356 L1778.81 511.833 Q1777.42 517.285 1777.42 519.211 Q1777.42 521.589 1778.56 523.187 Q1779.71 524.745 1782.01 524.745 Q1782.91 524.745 1783.93 524.499 Q1784.96 524.212 1786.27 523.474 Q1787.62 522.696 1788.81 521.548 Q1790.04 520.359 1791.23 518.351 Q1792.42 516.342 1793.2 513.76 Q1793.44 512.858 1794.26 512.858 Q1795.29 512.858 1795.29 513.678 Q1795.29 514.375 1794.71 515.85 Q1794.18 517.285 1792.99 519.17 Q1791.84 521.015 1790.33 522.696 Q1788.81 524.335 1786.56 525.483 Q1784.3 526.63 1781.84 526.63 Q1778.32 526.63 1775.98 524.745 Q1773.64 522.859 1772.78 520.236 Q1772.58 520.605 1772.29 521.097 Q1772 521.589 1771.14 522.696 Q1770.32 523.761 1769.38 524.581 Q1768.44 525.36 1766.96 525.975 Q1765.53 526.63 1763.97 526.63 Q1762 526.63 1760.24 526.057 Q1758.52 525.483 1757.29 524.171 Q1756.06 522.859 1756.06 521.056 Q1756.06 519.047 1757.41 517.654 Q1758.81 516.219 1760.69 516.219 Q1761.88 516.219 1762.82 516.916 Q1763.81 517.613 1763.81 519.129 Q1763.81 520.81 1762.66 522.081 Q1761.51 523.351 1759.87 523.679 Q1761.55 524.745 1764.05 524.745 Q1766.76 524.745 1768.89 522.368 Q1771.02 519.99 1772.05 516.014 Q1774.59 506.464 1775.57 502.201 Q1776.55 497.897 1776.55 496.052 Q1776.55 494.331 1776.1 493.142 Q1775.65 491.954 1774.87 491.421 Q1774.14 490.847 1773.44 490.642 Q1772.78 490.437 1772.05 490.437 Q1770.82 490.437 1769.42 490.929 Q1768.07 491.421 1766.43 492.568 Q1764.83 493.675 1763.32 495.971 Q1761.8 498.266 1760.77 501.422 Q1760.57 502.365 1759.67 502.365 Q1758.68 502.324 1758.68 501.504 Q1758.68 500.807 1759.22 499.373 Q1759.79 497.897 1760.94 496.052 Q1762.13 494.208 1763.64 492.568 Q1765.2 490.888 1767.46 489.74 Q1769.75 488.592 1772.21 488.592 Q1773.32 488.592 1774.38 488.838 Q1775.49 489.043 1776.8 489.658 Q1778.15 490.273 1779.34 491.626 Q1780.53 492.978 1781.27 494.946 Q1781.76 494.003 1782.42 493.101 Q1783.11 492.2 1784.18 491.093 Q1785.29 489.945 1786.8 489.289 Q1788.36 488.592 1790.08 488.592 Q1791.76 488.592 1793.4 489.043 Q1795.04 489.453 1796.43 490.806 Q1797.87 492.118 1797.87 494.126 Z" fill="#000000" fill-rule="evenodd" fill-opacity="1" /><path clip-path="url(#clip050)" d="M2176.66 247.167 Q2176.66 245.651 2176.78 245.2 Q2176.95 244.749 2177.6 244.052 L2193.71 226.099 Q2202.52 216.179 2202.52 207.531 Q2202.52 201.915 2199.57 197.898 Q2196.66 193.881 2191.29 193.881 Q2187.6 193.881 2184.49 196.136 Q2181.37 198.39 2179.94 202.407 Q2180.18 202.325 2181.05 202.325 Q2183.14 202.325 2184.28 203.637 Q2185.47 204.948 2185.47 206.711 Q2185.47 208.965 2184 210.072 Q2182.56 211.138 2181.13 211.138 Q2180.55 211.138 2179.78 211.015 Q2179.04 210.892 2177.85 209.744 Q2176.66 208.555 2176.66 206.465 Q2176.66 200.603 2181.09 195.931 Q2185.55 191.258 2192.36 191.258 Q2200.06 191.258 2205.11 195.849 Q2210.19 200.399 2210.19 207.531 Q2210.19 210.031 2209.41 212.326 Q2208.67 214.581 2207.65 216.343 Q2206.66 218.106 2203.96 220.934 Q2201.25 223.762 2199.08 225.771 Q2196.91 227.779 2192.03 232.042 L2183.14 240.691 L2198.26 240.691 Q2205.64 240.691 2206.21 240.035 Q2207.03 238.846 2208.06 232.575 L2210.19 232.575 L2207.81 247.167 L2176.66 247.167 Z" fill="#000000" fill-rule="evenodd" fill-opacity="1" /><path clip-path="url(#clip050)" d="M2258.7 215.606 Q2258.7 217.901 2257.26 219.213 Q2255.83 220.483 2254.19 220.483 Q2252.63 220.483 2251.81 219.582 Q2250.99 218.68 2250.99 217.532 Q2250.99 215.974 2252.14 214.622 Q2253.28 213.269 2255.01 212.982 Q2253.33 211.917 2250.83 211.917 Q2249.19 211.917 2247.75 212.777 Q2246.36 213.638 2245.5 214.745 Q2244.68 215.851 2243.94 217.45 Q2243.24 219.008 2242.96 219.95 Q2242.71 220.852 2242.5 221.836 L2239.64 233.313 Q2238.24 238.764 2238.24 240.691 Q2238.24 243.068 2239.39 244.667 Q2240.54 246.225 2242.83 246.225 Q2243.73 246.225 2244.76 245.979 Q2245.78 245.692 2247.1 244.954 Q2248.45 244.175 2249.64 243.027 Q2250.87 241.839 2252.06 239.83 Q2253.24 237.822 2254.02 235.239 Q2254.27 234.338 2255.09 234.338 Q2256.11 234.338 2256.11 235.157 Q2256.11 235.854 2255.54 237.33 Q2255.01 238.764 2253.82 240.65 Q2252.67 242.495 2251.15 244.175 Q2249.64 245.815 2247.38 246.962 Q2245.13 248.11 2242.67 248.11 Q2239.14 248.11 2236.81 246.225 Q2234.47 244.339 2233.61 241.716 Q2233.4 242.085 2233.12 242.576 Q2232.83 243.068 2231.97 244.175 Q2231.15 245.241 2230.21 246.061 Q2229.26 246.839 2227.79 247.454 Q2226.35 248.11 2224.8 248.11 Q2222.83 248.11 2221.07 247.536 Q2219.35 246.962 2218.12 245.651 Q2216.89 244.339 2216.89 242.536 Q2216.89 240.527 2218.24 239.133 Q2219.63 237.699 2221.52 237.699 Q2222.71 237.699 2223.65 238.396 Q2224.63 239.092 2224.63 240.609 Q2224.63 242.29 2223.49 243.56 Q2222.34 244.831 2220.7 245.159 Q2222.38 246.225 2224.88 246.225 Q2227.58 246.225 2229.72 243.847 Q2231.85 241.47 2232.87 237.494 Q2235.41 227.943 2236.4 223.68 Q2237.38 219.377 2237.38 217.532 Q2237.38 215.811 2236.93 214.622 Q2236.48 213.433 2235.7 212.9 Q2234.96 212.326 2234.27 212.121 Q2233.61 211.917 2232.87 211.917 Q2231.64 211.917 2230.25 212.408 Q2228.9 212.9 2227.26 214.048 Q2225.66 215.155 2224.14 217.45 Q2222.62 219.745 2221.6 222.902 Q2221.4 223.844 2220.49 223.844 Q2219.51 223.803 2219.51 222.984 Q2219.51 222.287 2220.04 220.852 Q2220.62 219.377 2221.76 217.532 Q2222.95 215.688 2224.47 214.048 Q2226.03 212.367 2228.28 211.22 Q2230.58 210.072 2233.04 210.072 Q2234.14 210.072 2235.21 210.318 Q2236.32 210.523 2237.63 211.138 Q2238.98 211.753 2240.17 213.105 Q2241.36 214.458 2242.09 216.425 Q2242.59 215.483 2243.24 214.581 Q2243.94 213.679 2245 212.572 Q2246.11 211.425 2247.63 210.769 Q2249.19 210.072 2250.91 210.072 Q2252.59 210.072 2254.23 210.523 Q2255.87 210.933 2257.26 212.285 Q2258.7 213.597 2258.7 215.606 Z" fill="#000000" fill-rule="evenodd" fill-opacity="1" /></svg>
