<?xml version="1.0" encoding="utf-8"?>
<svg xmlns="http://www.w3.org/2000/svg" xmlns:xlink="http://www.w3.org/1999/xlink" width="600" height="400" viewBox="0 0 2400 1600">
<defs>
  <clipPath id="clip540">
    <rect x="0" y="0" width="2400" height="1600"/>
  </clipPath>
</defs>
<path clip-path="url(#clip540)" d="
M0 1600 L2400 1600 L2400 0 L0 0  Z
  " fill="#ffffff" fill-rule="evenodd" fill-opacity="1"/>
<defs>
  <clipPath id="clip541">
    <rect x="480" y="0" width="1681" height="1600"/>
  </clipPath>
</defs>
<path clip-path="url(#clip540)" d="
M247.459 1423.18 L2352.76 1423.18 L2352.76 47.2441 L247.459 47.2441  Z
  " fill="#ffffff" fill-rule="evenodd" fill-opacity="1"/>
<defs>
  <clipPath id="clip542">
    <rect x="247" y="47" width="2106" height="1377"/>
  </clipPath>
</defs>
<polyline clip-path="url(#clip542)" style="stroke:#000000; stroke-linecap:butt; stroke-linejoin:round; stroke-width:2; stroke-opacity:0.1; fill:none" points="
  266.509,1423.18 266.509,47.2441 
  "/>
<polyline clip-path="url(#clip542)" style="stroke:#000000; stroke-linecap:butt; stroke-linejoin:round; stroke-width:2; stroke-opacity:0.1; fill:none" points="
  671.842,1423.18 671.842,47.2441 
  "/>
<polyline clip-path="url(#clip542)" style="stroke:#000000; stroke-linecap:butt; stroke-linejoin:round; stroke-width:2; stroke-opacity:0.1; fill:none" points="
  1077.17,1423.18 1077.17,47.2441 
  "/>
<polyline clip-path="url(#clip542)" style="stroke:#000000; stroke-linecap:butt; stroke-linejoin:round; stroke-width:2; stroke-opacity:0.1; fill:none" points="
  1482.51,1423.18 1482.51,47.2441 
  "/>
<polyline clip-path="url(#clip542)" style="stroke:#000000; stroke-linecap:butt; stroke-linejoin:round; stroke-width:2; stroke-opacity:0.1; fill:none" points="
  1887.84,1423.18 1887.84,47.2441 
  "/>
<polyline clip-path="url(#clip542)" style="stroke:#000000; stroke-linecap:butt; stroke-linejoin:round; stroke-width:2; stroke-opacity:0.1; fill:none" points="
  2293.17,1423.18 2293.17,47.2441 
  "/>
<polyline clip-path="url(#clip540)" style="stroke:#000000; stroke-linecap:butt; stroke-linejoin:round; stroke-width:4; stroke-opacity:1; fill:none" points="
  247.459,1423.18 2352.76,1423.18 
  "/>
<polyline clip-path="url(#clip540)" style="stroke:#000000; stroke-linecap:butt; stroke-linejoin:round; stroke-width:4; stroke-opacity:1; fill:none" points="
  266.509,1423.18 266.509,1404.28 
  "/>
<polyline clip-path="url(#clip540)" style="stroke:#000000; stroke-linecap:butt; stroke-linejoin:round; stroke-width:4; stroke-opacity:1; fill:none" points="
  671.842,1423.18 671.842,1404.28 
  "/>
<polyline clip-path="url(#clip540)" style="stroke:#000000; stroke-linecap:butt; stroke-linejoin:round; stroke-width:4; stroke-opacity:1; fill:none" points="
  1077.17,1423.18 1077.17,1404.28 
  "/>
<polyline clip-path="url(#clip540)" style="stroke:#000000; stroke-linecap:butt; stroke-linejoin:round; stroke-width:4; stroke-opacity:1; fill:none" points="
  1482.51,1423.18 1482.51,1404.28 
  "/>
<polyline clip-path="url(#clip540)" style="stroke:#000000; stroke-linecap:butt; stroke-linejoin:round; stroke-width:4; stroke-opacity:1; fill:none" points="
  1887.84,1423.18 1887.84,1404.28 
  "/>
<polyline clip-path="url(#clip540)" style="stroke:#000000; stroke-linecap:butt; stroke-linejoin:round; stroke-width:4; stroke-opacity:1; fill:none" points="
  2293.17,1423.18 2293.17,1404.28 
  "/>
<path clip-path="url(#clip540)" d="M266.509 1454.1 Q262.898 1454.1 261.07 1457.66 Q259.264 1461.2 259.264 1468.33 Q259.264 1475.44 261.07 1479.01 Q262.898 1482.55 266.509 1482.55 Q270.144 1482.55 271.949 1479.01 Q273.778 1475.44 273.778 1468.33 Q273.778 1461.2 271.949 1457.66 Q270.144 1454.1 266.509 1454.1 M266.509 1450.39 Q272.319 1450.39 275.375 1455 Q278.454 1459.58 278.454 1468.33 Q278.454 1477.06 275.375 1481.67 Q272.319 1486.25 266.509 1486.25 Q260.699 1486.25 257.62 1481.67 Q254.565 1477.06 254.565 1468.33 Q254.565 1459.58 257.62 1455 Q260.699 1450.39 266.509 1450.39 Z" fill="#000000" fill-rule="evenodd" fill-opacity="1" /><path clip-path="url(#clip540)" d="M646.53 1481.64 L654.168 1481.64 L654.168 1455.28 L645.858 1456.95 L645.858 1452.69 L654.122 1451.02 L658.798 1451.02 L658.798 1481.64 L666.437 1481.64 L666.437 1485.58 L646.53 1485.58 L646.53 1481.64 Z" fill="#000000" fill-rule="evenodd" fill-opacity="1" /><path clip-path="url(#clip540)" d="M685.881 1454.1 Q682.27 1454.1 680.441 1457.66 Q678.636 1461.2 678.636 1468.33 Q678.636 1475.44 680.441 1479.01 Q682.27 1482.55 685.881 1482.55 Q689.515 1482.55 691.321 1479.01 Q693.15 1475.44 693.15 1468.33 Q693.15 1461.2 691.321 1457.66 Q689.515 1454.1 685.881 1454.1 M685.881 1450.39 Q691.691 1450.39 694.747 1455 Q697.826 1459.58 697.826 1468.33 Q697.826 1477.06 694.747 1481.67 Q691.691 1486.25 685.881 1486.25 Q680.071 1486.25 676.992 1481.67 Q673.937 1477.06 673.937 1468.33 Q673.937 1459.58 676.992 1455 Q680.071 1450.39 685.881 1450.39 Z" fill="#000000" fill-rule="evenodd" fill-opacity="1" /><path clip-path="url(#clip540)" d="M1055.95 1481.64 L1072.27 1481.64 L1072.27 1485.58 L1050.32 1485.58 L1050.32 1481.64 Q1052.98 1478.89 1057.57 1474.26 Q1062.17 1469.61 1063.36 1468.27 Q1065.6 1465.74 1066.48 1464.01 Q1067.38 1462.25 1067.38 1460.56 Q1067.38 1457.8 1065.44 1456.07 Q1063.52 1454.33 1060.42 1454.33 Q1058.22 1454.33 1055.76 1455.09 Q1053.33 1455.86 1050.55 1457.41 L1050.55 1452.69 Q1053.38 1451.55 1055.83 1450.97 Q1058.29 1450.39 1060.32 1450.39 Q1065.69 1450.39 1068.89 1453.08 Q1072.08 1455.77 1072.08 1460.26 Q1072.08 1462.39 1071.27 1464.31 Q1070.48 1466.2 1068.38 1468.8 Q1067.8 1469.47 1064.7 1472.69 Q1061.6 1475.88 1055.95 1481.64 Z" fill="#000000" fill-rule="evenodd" fill-opacity="1" /><path clip-path="url(#clip540)" d="M1092.08 1454.1 Q1088.47 1454.1 1086.64 1457.66 Q1084.84 1461.2 1084.84 1468.33 Q1084.84 1475.44 1086.64 1479.01 Q1088.47 1482.55 1092.08 1482.55 Q1095.72 1482.55 1097.52 1479.01 Q1099.35 1475.44 1099.35 1468.33 Q1099.35 1461.2 1097.52 1457.66 Q1095.72 1454.1 1092.08 1454.1 M1092.08 1450.39 Q1097.89 1450.39 1100.95 1455 Q1104.03 1459.58 1104.03 1468.33 Q1104.03 1477.06 1100.95 1481.67 Q1097.89 1486.25 1092.08 1486.25 Q1086.27 1486.25 1083.19 1481.67 Q1080.14 1477.06 1080.14 1468.33 Q1080.14 1459.58 1083.19 1455 Q1086.27 1450.39 1092.08 1450.39 Z" fill="#000000" fill-rule="evenodd" fill-opacity="1" /><path clip-path="url(#clip540)" d="M1471.35 1466.95 Q1474.71 1467.66 1476.58 1469.93 Q1478.48 1472.2 1478.48 1475.53 Q1478.48 1480.65 1474.96 1483.45 Q1471.44 1486.25 1464.96 1486.25 Q1462.78 1486.25 1460.47 1485.81 Q1458.18 1485.39 1455.72 1484.54 L1455.72 1480.02 Q1457.67 1481.16 1459.98 1481.74 Q1462.3 1482.32 1464.82 1482.32 Q1469.22 1482.32 1471.51 1480.58 Q1473.83 1478.84 1473.83 1475.53 Q1473.83 1472.48 1471.67 1470.77 Q1469.54 1469.03 1465.72 1469.03 L1461.7 1469.03 L1461.7 1465.19 L1465.91 1465.19 Q1469.36 1465.19 1471.19 1463.82 Q1473.02 1462.43 1473.02 1459.84 Q1473.02 1457.18 1471.12 1455.77 Q1469.24 1454.33 1465.72 1454.33 Q1463.8 1454.33 1461.6 1454.75 Q1459.41 1455.16 1456.77 1456.04 L1456.77 1451.88 Q1459.43 1451.14 1461.74 1450.77 Q1464.08 1450.39 1466.14 1450.39 Q1471.47 1450.39 1474.57 1452.83 Q1477.67 1455.23 1477.67 1459.35 Q1477.67 1462.22 1476.03 1464.21 Q1474.38 1466.18 1471.35 1466.95 Z" fill="#000000" fill-rule="evenodd" fill-opacity="1" /><path clip-path="url(#clip540)" d="M1497.34 1454.1 Q1493.73 1454.1 1491.91 1457.66 Q1490.1 1461.2 1490.1 1468.33 Q1490.1 1475.44 1491.91 1479.01 Q1493.73 1482.55 1497.34 1482.55 Q1500.98 1482.55 1502.78 1479.01 Q1504.61 1475.44 1504.61 1468.33 Q1504.61 1461.2 1502.78 1457.66 Q1500.98 1454.1 1497.34 1454.1 M1497.34 1450.39 Q1503.15 1450.39 1506.21 1455 Q1509.29 1459.58 1509.29 1468.33 Q1509.29 1477.06 1506.21 1481.67 Q1503.15 1486.25 1497.34 1486.25 Q1491.53 1486.25 1488.46 1481.67 Q1485.4 1477.06 1485.4 1468.33 Q1485.4 1459.58 1488.46 1455 Q1491.53 1450.39 1497.34 1450.39 Z" fill="#000000" fill-rule="evenodd" fill-opacity="1" /><path clip-path="url(#clip540)" d="M1876.01 1455.09 L1864.21 1473.54 L1876.01 1473.54 L1876.01 1455.09 M1874.78 1451.02 L1880.66 1451.02 L1880.66 1473.54 L1885.59 1473.54 L1885.59 1477.43 L1880.66 1477.43 L1880.66 1485.58 L1876.01 1485.58 L1876.01 1477.43 L1860.41 1477.43 L1860.41 1472.92 L1874.78 1451.02 Z" fill="#000000" fill-rule="evenodd" fill-opacity="1" /><path clip-path="url(#clip540)" d="M1903.33 1454.1 Q1899.71 1454.1 1897.89 1457.66 Q1896.08 1461.2 1896.08 1468.33 Q1896.08 1475.44 1897.89 1479.01 Q1899.71 1482.55 1903.33 1482.55 Q1906.96 1482.55 1908.77 1479.01 Q1910.59 1475.44 1910.59 1468.33 Q1910.59 1461.2 1908.77 1457.66 Q1906.96 1454.1 1903.33 1454.1 M1903.33 1450.39 Q1909.14 1450.39 1912.19 1455 Q1915.27 1459.58 1915.27 1468.33 Q1915.27 1477.06 1912.19 1481.67 Q1909.14 1486.25 1903.33 1486.25 Q1897.52 1486.25 1894.44 1481.67 Q1891.38 1477.06 1891.38 1468.33 Q1891.38 1459.58 1894.44 1455 Q1897.52 1450.39 1903.33 1450.39 Z" fill="#000000" fill-rule="evenodd" fill-opacity="1" /><path clip-path="url(#clip540)" d="M2267.87 1451.02 L2286.23 1451.02 L2286.23 1454.96 L2272.15 1454.96 L2272.15 1463.43 Q2273.17 1463.08 2274.19 1462.92 Q2275.21 1462.73 2276.23 1462.73 Q2282.01 1462.73 2285.39 1465.9 Q2288.77 1469.08 2288.77 1474.49 Q2288.77 1480.07 2285.3 1483.17 Q2281.83 1486.25 2275.51 1486.25 Q2273.33 1486.25 2271.07 1485.88 Q2268.82 1485.51 2266.41 1484.77 L2266.41 1480.07 Q2268.5 1481.2 2270.72 1481.76 Q2272.94 1482.32 2275.42 1482.32 Q2279.42 1482.32 2281.76 1480.21 Q2284.1 1478.1 2284.1 1474.49 Q2284.1 1470.88 2281.76 1468.77 Q2279.42 1466.67 2275.42 1466.67 Q2273.54 1466.67 2271.67 1467.08 Q2269.82 1467.5 2267.87 1468.38 L2267.87 1451.02 Z" fill="#000000" fill-rule="evenodd" fill-opacity="1" /><path clip-path="url(#clip540)" d="M2307.99 1454.1 Q2304.38 1454.1 2302.55 1457.66 Q2300.74 1461.2 2300.74 1468.33 Q2300.74 1475.44 2302.55 1479.01 Q2304.38 1482.55 2307.99 1482.55 Q2311.62 1482.55 2313.43 1479.01 Q2315.26 1475.44 2315.26 1468.33 Q2315.26 1461.2 2313.43 1457.66 Q2311.62 1454.1 2307.99 1454.1 M2307.99 1450.39 Q2313.8 1450.39 2316.85 1455 Q2319.93 1459.58 2319.93 1468.33 Q2319.93 1477.06 2316.85 1481.67 Q2313.8 1486.25 2307.99 1486.25 Q2302.18 1486.25 2299.1 1481.67 Q2296.04 1477.06 2296.04 1468.33 Q2296.04 1459.58 2299.1 1455 Q2302.18 1450.39 2307.99 1450.39 Z" fill="#000000" fill-rule="evenodd" fill-opacity="1" /><path clip-path="url(#clip540)" d="M1239.27 1522.27 L1239.27 1532.4 L1251.33 1532.4 L1251.33 1536.95 L1239.27 1536.95 L1239.27 1556.3 Q1239.27 1560.66 1240.44 1561.9 Q1241.65 1563.14 1245.31 1563.14 L1251.33 1563.14 L1251.33 1568.04 L1245.31 1568.04 Q1238.54 1568.04 1235.96 1565.53 Q1233.38 1562.98 1233.38 1556.3 L1233.38 1536.95 L1229.08 1536.95 L1229.08 1532.4 L1233.38 1532.4 L1233.38 1522.27 L1239.27 1522.27 Z" fill="#000000" fill-rule="evenodd" fill-opacity="1" /><path clip-path="url(#clip540)" d="M1259.03 1532.4 L1264.89 1532.4 L1264.89 1568.04 L1259.03 1568.04 L1259.03 1532.4 M1259.03 1518.52 L1264.89 1518.52 L1264.89 1525.93 L1259.03 1525.93 L1259.03 1518.52 Z" fill="#000000" fill-rule="evenodd" fill-opacity="1" /><path clip-path="url(#clip540)" d="M1304.9 1539.24 Q1307.09 1535.29 1310.15 1533.41 Q1313.2 1531.54 1317.34 1531.54 Q1322.91 1531.54 1325.94 1535.45 Q1328.96 1539.33 1328.96 1546.53 L1328.96 1568.04 L1323.07 1568.04 L1323.07 1546.72 Q1323.07 1541.59 1321.26 1539.11 Q1319.44 1536.63 1315.72 1536.63 Q1311.17 1536.63 1308.53 1539.65 Q1305.88 1542.68 1305.88 1547.9 L1305.88 1568.04 L1300 1568.04 L1300 1546.72 Q1300 1541.56 1298.18 1539.11 Q1296.37 1536.63 1292.58 1536.63 Q1288.09 1536.63 1285.45 1539.68 Q1282.81 1542.71 1282.81 1547.9 L1282.81 1568.04 L1276.92 1568.04 L1276.92 1532.4 L1282.81 1532.4 L1282.81 1537.93 Q1284.81 1534.66 1287.61 1533.1 Q1290.42 1531.54 1294.27 1531.54 Q1298.15 1531.54 1300.86 1533.51 Q1303.59 1535.48 1304.9 1539.24 Z" fill="#000000" fill-rule="evenodd" fill-opacity="1" /><path clip-path="url(#clip540)" d="M1371.13 1548.76 L1371.13 1551.62 L1344.21 1551.62 Q1344.59 1557.67 1347.83 1560.85 Q1351.11 1564 1356.94 1564 Q1360.31 1564 1363.46 1563.17 Q1366.64 1562.35 1369.76 1560.69 L1369.76 1566.23 Q1366.61 1567.57 1363.3 1568.27 Q1359.99 1568.97 1356.59 1568.97 Q1348.06 1568.97 1343.06 1564 Q1338.09 1559.04 1338.09 1550.57 Q1338.09 1541.82 1342.81 1536.69 Q1347.55 1531.54 1355.57 1531.54 Q1362.76 1531.54 1366.93 1536.18 Q1371.13 1540.8 1371.13 1548.76 M1365.28 1547.04 Q1365.21 1542.23 1362.57 1539.37 Q1359.96 1536.5 1355.63 1536.5 Q1350.73 1536.5 1347.77 1539.27 Q1344.84 1542.04 1344.4 1547.07 L1365.28 1547.04 Z" fill="#000000" fill-rule="evenodd" fill-opacity="1" /><polyline clip-path="url(#clip542)" style="stroke:#000000; stroke-linecap:butt; stroke-linejoin:round; stroke-width:2; stroke-opacity:0.1; fill:none" points="
  247.459,1384.24 2352.76,1384.24 
  "/>
<polyline clip-path="url(#clip542)" style="stroke:#000000; stroke-linecap:butt; stroke-linejoin:round; stroke-width:2; stroke-opacity:0.1; fill:none" points="
  247.459,1023.67 2352.76,1023.67 
  "/>
<polyline clip-path="url(#clip542)" style="stroke:#000000; stroke-linecap:butt; stroke-linejoin:round; stroke-width:2; stroke-opacity:0.1; fill:none" points="
  247.459,663.098 2352.76,663.098 
  "/>
<polyline clip-path="url(#clip542)" style="stroke:#000000; stroke-linecap:butt; stroke-linejoin:round; stroke-width:2; stroke-opacity:0.1; fill:none" points="
  247.459,302.528 2352.76,302.528 
  "/>
<polyline clip-path="url(#clip540)" style="stroke:#000000; stroke-linecap:butt; stroke-linejoin:round; stroke-width:4; stroke-opacity:1; fill:none" points="
  247.459,1423.18 247.459,47.2441 
  "/>
<polyline clip-path="url(#clip540)" style="stroke:#000000; stroke-linecap:butt; stroke-linejoin:round; stroke-width:4; stroke-opacity:1; fill:none" points="
  247.459,1384.24 266.356,1384.24 
  "/>
<polyline clip-path="url(#clip540)" style="stroke:#000000; stroke-linecap:butt; stroke-linejoin:round; stroke-width:4; stroke-opacity:1; fill:none" points="
  247.459,1023.67 266.356,1023.67 
  "/>
<polyline clip-path="url(#clip540)" style="stroke:#000000; stroke-linecap:butt; stroke-linejoin:round; stroke-width:4; stroke-opacity:1; fill:none" points="
  247.459,663.098 266.356,663.098 
  "/>
<polyline clip-path="url(#clip540)" style="stroke:#000000; stroke-linecap:butt; stroke-linejoin:round; stroke-width:4; stroke-opacity:1; fill:none" points="
  247.459,302.528 266.356,302.528 
  "/>
<path clip-path="url(#clip540)" d="M114.931 1397.58 L122.57 1397.58 L122.57 1371.22 L114.26 1372.88 L114.26 1368.62 L122.524 1366.96 L127.2 1366.96 L127.2 1397.58 L134.839 1397.58 L134.839 1401.52 L114.931 1401.52 L114.931 1397.58 Z" fill="#000000" fill-rule="evenodd" fill-opacity="1" /><path clip-path="url(#clip540)" d="M144.283 1395.64 L149.167 1395.64 L149.167 1401.52 L144.283 1401.52 L144.283 1395.64 Z" fill="#000000" fill-rule="evenodd" fill-opacity="1" /><path clip-path="url(#clip540)" d="M169.352 1370.04 Q165.741 1370.04 163.913 1373.6 Q162.107 1377.14 162.107 1384.27 Q162.107 1391.38 163.913 1394.94 Q165.741 1398.49 169.352 1398.49 Q172.987 1398.49 174.792 1394.94 Q176.621 1391.38 176.621 1384.27 Q176.621 1377.14 174.792 1373.6 Q172.987 1370.04 169.352 1370.04 M169.352 1366.33 Q175.163 1366.33 178.218 1370.94 Q181.297 1375.52 181.297 1384.27 Q181.297 1393 178.218 1397.61 Q175.163 1402.19 169.352 1402.19 Q163.542 1402.19 160.464 1397.61 Q157.408 1393 157.408 1384.27 Q157.408 1375.52 160.464 1370.94 Q163.542 1366.33 169.352 1366.33 Z" fill="#000000" fill-rule="evenodd" fill-opacity="1" /><path clip-path="url(#clip540)" d="M199.514 1370.04 Q195.903 1370.04 194.075 1373.6 Q192.269 1377.14 192.269 1384.27 Q192.269 1391.38 194.075 1394.94 Q195.903 1398.49 199.514 1398.49 Q203.149 1398.49 204.954 1394.94 Q206.783 1391.38 206.783 1384.27 Q206.783 1377.14 204.954 1373.6 Q203.149 1370.04 199.514 1370.04 M199.514 1366.33 Q205.324 1366.33 208.38 1370.94 Q211.459 1375.52 211.459 1384.27 Q211.459 1393 208.38 1397.61 Q205.324 1402.19 199.514 1402.19 Q193.704 1402.19 190.625 1397.61 Q187.57 1393 187.57 1384.27 Q187.57 1375.52 190.625 1370.94 Q193.704 1366.33 199.514 1366.33 Z" fill="#000000" fill-rule="evenodd" fill-opacity="1" /><path clip-path="url(#clip540)" d="M115.927 1037.01 L123.566 1037.01 L123.566 1010.65 L115.256 1012.31 L115.256 1008.05 L123.519 1006.39 L128.195 1006.39 L128.195 1037.01 L135.834 1037.01 L135.834 1040.95 L115.927 1040.95 L115.927 1037.01 Z" fill="#000000" fill-rule="evenodd" fill-opacity="1" /><path clip-path="url(#clip540)" d="M145.279 1035.07 L150.163 1035.07 L150.163 1040.95 L145.279 1040.95 L145.279 1035.07 Z" fill="#000000" fill-rule="evenodd" fill-opacity="1" /><path clip-path="url(#clip540)" d="M170.348 1009.47 Q166.737 1009.47 164.908 1013.03 Q163.102 1016.57 163.102 1023.7 Q163.102 1030.81 164.908 1034.37 Q166.737 1037.92 170.348 1037.92 Q173.982 1037.92 175.788 1034.37 Q177.616 1030.81 177.616 1023.7 Q177.616 1016.57 175.788 1013.03 Q173.982 1009.47 170.348 1009.47 M170.348 1005.76 Q176.158 1005.76 179.214 1010.37 Q182.292 1014.95 182.292 1023.7 Q182.292 1032.43 179.214 1037.04 Q176.158 1041.62 170.348 1041.62 Q164.538 1041.62 161.459 1037.04 Q158.403 1032.43 158.403 1023.7 Q158.403 1014.95 161.459 1010.37 Q164.538 1005.76 170.348 1005.76 Z" fill="#000000" fill-rule="evenodd" fill-opacity="1" /><path clip-path="url(#clip540)" d="M190.556 1006.39 L208.912 1006.39 L208.912 1010.32 L194.838 1010.32 L194.838 1018.8 Q195.857 1018.45 196.875 1018.29 Q197.894 1018.1 198.912 1018.1 Q204.699 1018.1 208.079 1021.27 Q211.459 1024.44 211.459 1029.86 Q211.459 1035.44 207.987 1038.54 Q204.514 1041.62 198.195 1041.62 Q196.019 1041.62 193.75 1041.25 Q191.505 1040.88 189.098 1040.14 L189.098 1035.44 Q191.181 1036.57 193.403 1037.13 Q195.625 1037.68 198.102 1037.68 Q202.107 1037.68 204.445 1035.58 Q206.783 1033.47 206.783 1029.86 Q206.783 1026.25 204.445 1024.14 Q202.107 1022.04 198.102 1022.04 Q196.227 1022.04 194.352 1022.45 Q192.5 1022.87 190.556 1023.75 L190.556 1006.39 Z" fill="#000000" fill-rule="evenodd" fill-opacity="1" /><path clip-path="url(#clip540)" d="M114.931 676.443 L122.57 676.443 L122.57 650.077 L114.26 651.744 L114.26 647.485 L122.524 645.818 L127.2 645.818 L127.2 676.443 L134.839 676.443 L134.839 680.378 L114.931 680.378 L114.931 676.443 Z" fill="#000000" fill-rule="evenodd" fill-opacity="1" /><path clip-path="url(#clip540)" d="M144.283 674.498 L149.167 674.498 L149.167 680.378 L144.283 680.378 L144.283 674.498 Z" fill="#000000" fill-rule="evenodd" fill-opacity="1" /><path clip-path="url(#clip540)" d="M160.163 676.443 L167.802 676.443 L167.802 650.077 L159.491 651.744 L159.491 647.485 L167.755 645.818 L172.431 645.818 L172.431 676.443 L180.07 676.443 L180.07 680.378 L160.163 680.378 L160.163 676.443 Z" fill="#000000" fill-rule="evenodd" fill-opacity="1" /><path clip-path="url(#clip540)" d="M199.514 648.897 Q195.903 648.897 194.075 652.461 Q192.269 656.003 192.269 663.133 Q192.269 670.239 194.075 673.804 Q195.903 677.346 199.514 677.346 Q203.149 677.346 204.954 673.804 Q206.783 670.239 206.783 663.133 Q206.783 656.003 204.954 652.461 Q203.149 648.897 199.514 648.897 M199.514 645.193 Q205.324 645.193 208.38 649.799 Q211.459 654.383 211.459 663.133 Q211.459 671.859 208.38 676.466 Q205.324 681.049 199.514 681.049 Q193.704 681.049 190.625 676.466 Q187.57 671.859 187.57 663.133 Q187.57 654.383 190.625 649.799 Q193.704 645.193 199.514 645.193 Z" fill="#000000" fill-rule="evenodd" fill-opacity="1" /><path clip-path="url(#clip540)" d="M115.927 315.873 L123.566 315.873 L123.566 289.507 L115.256 291.174 L115.256 286.914 L123.519 285.248 L128.195 285.248 L128.195 315.873 L135.834 315.873 L135.834 319.808 L115.927 319.808 L115.927 315.873 Z" fill="#000000" fill-rule="evenodd" fill-opacity="1" /><path clip-path="url(#clip540)" d="M145.279 313.928 L150.163 313.928 L150.163 319.808 L145.279 319.808 L145.279 313.928 Z" fill="#000000" fill-rule="evenodd" fill-opacity="1" /><path clip-path="url(#clip540)" d="M161.158 315.873 L168.797 315.873 L168.797 289.507 L160.487 291.174 L160.487 286.914 L168.751 285.248 L173.427 285.248 L173.427 315.873 L181.065 315.873 L181.065 319.808 L161.158 319.808 L161.158 315.873 Z" fill="#000000" fill-rule="evenodd" fill-opacity="1" /><path clip-path="url(#clip540)" d="M190.556 285.248 L208.912 285.248 L208.912 289.183 L194.838 289.183 L194.838 297.655 Q195.857 297.308 196.875 297.146 Q197.894 296.961 198.912 296.961 Q204.699 296.961 208.079 300.132 Q211.459 303.303 211.459 308.72 Q211.459 314.299 207.987 317.4 Q204.514 320.479 198.195 320.479 Q196.019 320.479 193.75 320.109 Q191.505 319.738 189.098 318.998 L189.098 314.299 Q191.181 315.433 193.403 315.988 Q195.625 316.544 198.102 316.544 Q202.107 316.544 204.445 314.437 Q206.783 312.331 206.783 308.72 Q206.783 305.109 204.445 303.002 Q202.107 300.896 198.102 300.896 Q196.227 300.896 194.352 301.312 Q192.5 301.729 190.556 302.609 L190.556 285.248 Z" fill="#000000" fill-rule="evenodd" fill-opacity="1" /><path clip-path="url(#clip540)" d="M24.388 733.91 Q24.8389 733.91 25.9017 734.199 L51.0867 740.512 Q56.6905 741.897 60.6196 746.405 Q64.5487 750.882 64.5487 755.971 Q64.5487 759.03 62.9062 760.995 Q61.296 762.959 58.8161 762.959 Q56.6261 762.959 55.5633 761.8 Q54.5327 760.64 54.5327 759.256 Q54.5327 758.805 54.6615 758.322 Q54.7904 757.839 55.3379 757.323 Q55.8854 756.808 56.8193 756.808 Q58.333 756.808 59.5246 758.128 Q60.0721 758.773 60.201 759.384 Q60.3298 759.964 60.3298 760.963 Q61.2315 760.576 61.8435 759.868 Q62.4554 759.159 62.6808 758.354 Q62.9385 757.549 63.0029 757.033 Q63.0995 756.486 63.0995 755.971 Q63.0995 751.848 58.9449 748.692 Q57.6889 747.758 56.4329 747.082 Q55.209 746.373 53.6954 745.858 Q52.2139 745.343 51.4088 745.117 Q50.6036 744.86 48.7679 744.409 Q51.763 747.404 51.763 751.075 Q51.763 752.621 51.3443 754.006 Q50.9257 755.359 50.0561 756.55 Q49.1543 757.742 47.5763 758.45 Q45.9982 759.127 43.9048 759.127 Q41.6826 759.127 38.6552 758.257 Q35.6279 757.388 30.0563 755.294 Q26.9323 754.167 25.4186 754.167 Q24.6779 754.167 24.227 754.328 Q23.7439 754.489 23.5829 754.811 Q23.3897 755.133 23.3574 755.327 Q23.3252 755.488 23.3252 755.81 Q23.3252 757.71 25.2576 759.481 Q27.1899 761.252 31.5055 762.476 Q32.3107 762.734 32.5039 762.895 Q32.6971 763.056 32.6971 763.539 Q32.6649 764.344 32.0208 764.344 Q31.7632 764.344 30.7648 764.054 Q29.7342 763.764 28.2205 763.088 Q26.6747 762.38 25.2898 761.413 Q23.8727 760.447 22.8744 758.934 Q21.876 757.388 21.876 755.616 Q21.876 753.201 23.4541 751.719 Q24.9999 750.206 27.2866 750.206 Q28.2205 750.206 29.0579 750.463 Q29.863 750.689 32.0208 751.526 Q40.7164 754.908 44.9676 754.908 Q45.9982 754.908 46.8677 754.747 Q47.7051 754.554 48.5424 754.135 Q49.3476 753.716 49.8307 752.879 Q50.2815 752.009 50.2815 750.818 Q50.2815 749.304 49.573 747.887 Q48.8323 746.438 47.8339 745.536 Q46.8355 744.602 45.9982 744.054 Q45.1286 743.475 44.6777 743.346 L32.826 740.383 L27.5442 739.063 Q24.6779 738.451 23.9694 738.161 Q23.293 737.774 22.9388 737.098 Q22.5845 736.422 22.5845 735.842 Q22.5845 735.037 23.0676 734.489 Q23.5507 733.91 24.388 733.91 Z" fill="#000000" fill-rule="evenodd" fill-opacity="1" /><path clip-path="url(#clip540)" d="M62.199 712.983 Q62.8303 712.983 62.9881 713.276 Q63.1233 713.569 63.1233 714.381 L63.1233 718.709 L76.74 722.136 Q77.9348 722.407 78.9493 722.407 Q80.0765 722.407 80.5725 722.069 Q81.0685 721.708 81.0685 720.964 Q81.0685 719.499 79.7384 717.92 Q78.4083 716.32 75.1619 714.967 Q74.7336 714.787 74.6434 714.697 Q74.5307 714.584 74.5307 714.291 Q74.5307 713.727 74.9815 713.727 Q75.1394 713.727 75.8608 714.043 Q76.5822 714.336 77.6418 714.99 Q78.7013 715.621 79.6933 716.455 Q80.6852 717.267 81.4066 718.507 Q82.1055 719.747 82.1055 721.077 Q82.1055 722.948 80.9106 724.143 Q79.7158 725.315 77.8446 725.315 Q77.236 725.315 75.2972 724.841 Q73.3358 724.368 63.1233 721.798 L63.1233 725.879 Q63.1233 726.442 63.1008 726.668 Q63.0783 726.87 62.9655 727.028 Q62.8303 727.164 62.5597 727.164 Q62.1314 727.164 61.9511 726.983 Q61.7482 726.803 61.7256 726.577 Q61.6805 726.329 61.6805 725.766 L61.6805 721.437 L54.3537 719.634 Q53.6323 719.453 53.2265 719.003 Q52.7982 718.529 52.7531 718.259 Q52.6854 717.988 52.6854 717.785 Q52.6854 717.176 53.0236 716.816 Q53.3392 716.455 53.9254 716.455 Q54.241 716.455 61.6805 718.349 L61.6805 714.291 Q61.6805 713.772 61.7031 713.569 Q61.7256 713.344 61.8383 713.164 Q61.9511 712.983 62.199 712.983 Z" fill="#000000" fill-rule="evenodd" fill-opacity="1" /><polyline clip-path="url(#clip542)" style="stroke:#0000ff; stroke-linecap:butt; stroke-linejoin:round; stroke-width:8; stroke-opacity:0.7; fill:none" points="
  307.043,1384.24 347.576,663.098 388.109,86.1857 428.642,201.568 469.176,755.404 509.709,1106.17 550.242,943.708 590.775,533.131 631.309,334.636 671.842,504.302 
  712.375,798.831 752.908,898.721 793.442,743.01 833.975,538.529 874.508,499.513 915.041,631.885 955.575,768.995 996.108,772.786 1036.64,666.131 1077.17,577.774 
  1117.71,592.412 1158.24,674.809 1198.77,729.015 1239.31,706.463 1279.84,645.056 1320.37,613.972 1360.91,638.231 1401.44,682.505 1441.97,698.517 1482.51,675.908 
  1523.04,645.011 1563.57,638.38 1604.11,657.794 1644.64,678.629 1685.17,679.766 1725.71,664.008 1766.24,650.491 1806.77,652.285 1847.31,664.533 1887.84,672.896 
  1928.37,669.789 1968.91,660.612 2009.44,655.756 2049.97,659.214 2090.51,665.864 2131.04,668.418 2171.57,665.141 2212.11,660.477 2252.64,659.366 2293.17,662.21 
  
  "/>
</svg>
