<?xml version="1.0" encoding="utf-8"?>
<svg xmlns="http://www.w3.org/2000/svg" xmlns:xlink="http://www.w3.org/1999/xlink" width="600" height="400" viewBox="0 0 2400 1600">
<defs>
  <clipPath id="clip760">
    <rect x="0" y="0" width="2400" height="1600"/>
  </clipPath>
</defs>
<path clip-path="url(#clip760)" d="
M0 1600 L2400 1600 L2400 0 L0 0  Z
  " fill="#ffffff" fill-rule="evenodd" fill-opacity="1"/>
<defs>
  <clipPath id="clip761">
    <rect x="480" y="0" width="1681" height="1600"/>
  </clipPath>
</defs>
<path clip-path="url(#clip760)" d="
M156.598 1486.45 L2352.76 1486.45 L2352.76 47.2441 L156.598 47.2441  Z
  " fill="#ffffff" fill-rule="evenodd" fill-opacity="1"/>
<defs>
  <clipPath id="clip762">
    <rect x="156" y="47" width="2197" height="1440"/>
  </clipPath>
</defs>
<polyline clip-path="url(#clip760)" style="stroke:#000000; stroke-linecap:round; stroke-linejoin:round; stroke-width:4; stroke-opacity:1; fill:none" points="
  156.598,1486.45 2352.76,1486.45 
  "/>
<polyline clip-path="url(#clip760)" style="stroke:#000000; stroke-linecap:round; stroke-linejoin:round; stroke-width:4; stroke-opacity:1; fill:none" points="
  156.598,1486.45 156.598,1467.55 
  "/>
<polyline clip-path="url(#clip760)" style="stroke:#000000; stroke-linecap:round; stroke-linejoin:round; stroke-width:4; stroke-opacity:1; fill:none" points="
  595.83,1486.45 595.83,1467.55 
  "/>
<polyline clip-path="url(#clip760)" style="stroke:#000000; stroke-linecap:round; stroke-linejoin:round; stroke-width:4; stroke-opacity:1; fill:none" points="
  1035.06,1486.45 1035.06,1467.55 
  "/>
<polyline clip-path="url(#clip760)" style="stroke:#000000; stroke-linecap:round; stroke-linejoin:round; stroke-width:4; stroke-opacity:1; fill:none" points="
  1474.29,1486.45 1474.29,1467.55 
  "/>
<polyline clip-path="url(#clip760)" style="stroke:#000000; stroke-linecap:round; stroke-linejoin:round; stroke-width:4; stroke-opacity:1; fill:none" points="
  1913.52,1486.45 1913.52,1467.55 
  "/>
<polyline clip-path="url(#clip760)" style="stroke:#000000; stroke-linecap:round; stroke-linejoin:round; stroke-width:4; stroke-opacity:1; fill:none" points="
  2352.76,1486.45 2352.76,1467.55 
  "/>
<path clip-path="url(#clip760)" d="M156.598 1517.37 Q152.987 1517.37 151.158 1520.93 Q149.353 1524.47 149.353 1531.6 Q149.353 1538.71 151.158 1542.27 Q152.987 1545.82 156.598 1545.82 Q160.232 1545.82 162.038 1542.27 Q163.867 1538.71 163.867 1531.6 Q163.867 1524.47 162.038 1520.93 Q160.232 1517.37 156.598 1517.37 M156.598 1513.66 Q162.408 1513.66 165.464 1518.27 Q168.543 1522.85 168.543 1531.6 Q168.543 1540.33 165.464 1544.94 Q162.408 1549.52 156.598 1549.52 Q150.788 1549.52 147.709 1544.94 Q144.654 1540.33 144.654 1531.6 Q144.654 1522.85 147.709 1518.27 Q150.788 1513.66 156.598 1513.66 Z" fill="#000000" fill-rule="evenodd" fill-opacity="1" /><path clip-path="url(#clip760)" d="M590.483 1544.91 L606.802 1544.91 L606.802 1548.85 L584.858 1548.85 L584.858 1544.91 Q587.52 1542.16 592.103 1537.53 Q596.709 1532.88 597.89 1531.53 Q600.135 1529.01 601.015 1527.27 Q601.918 1525.51 601.918 1523.82 Q601.918 1521.07 599.973 1519.33 Q598.052 1517.6 594.95 1517.6 Q592.751 1517.6 590.297 1518.36 Q587.867 1519.13 585.089 1520.68 L585.089 1515.95 Q587.913 1514.82 590.367 1514.24 Q592.821 1513.66 594.858 1513.66 Q600.228 1513.66 603.422 1516.35 Q606.617 1519.03 606.617 1523.52 Q606.617 1525.65 605.807 1527.57 Q605.02 1529.47 602.913 1532.07 Q602.334 1532.74 599.233 1535.95 Q596.131 1539.15 590.483 1544.91 Z" fill="#000000" fill-rule="evenodd" fill-opacity="1" /><path clip-path="url(#clip760)" d="M1038.07 1518.36 L1026.27 1536.81 L1038.07 1536.81 L1038.07 1518.36 M1036.84 1514.29 L1042.72 1514.29 L1042.72 1536.81 L1047.65 1536.81 L1047.65 1540.7 L1042.72 1540.7 L1042.72 1548.85 L1038.07 1548.85 L1038.07 1540.7 L1022.47 1540.7 L1022.47 1536.19 L1036.84 1514.29 Z" fill="#000000" fill-rule="evenodd" fill-opacity="1" /><path clip-path="url(#clip760)" d="M1474.7 1529.7 Q1471.55 1529.7 1469.7 1531.86 Q1467.87 1534.01 1467.87 1537.76 Q1467.87 1541.49 1469.7 1543.66 Q1471.55 1545.82 1474.7 1545.82 Q1477.85 1545.82 1479.67 1543.66 Q1481.53 1541.49 1481.53 1537.76 Q1481.53 1534.01 1479.67 1531.86 Q1477.85 1529.7 1474.7 1529.7 M1483.98 1515.05 L1483.98 1519.31 Q1482.22 1518.48 1480.42 1518.04 Q1478.63 1517.6 1476.87 1517.6 Q1472.24 1517.6 1469.79 1520.72 Q1467.36 1523.85 1467.01 1530.17 Q1468.38 1528.15 1470.44 1527.09 Q1472.5 1526 1474.98 1526 Q1480.18 1526 1483.19 1529.17 Q1486.23 1532.32 1486.23 1537.76 Q1486.23 1543.08 1483.08 1546.3 Q1479.93 1549.52 1474.7 1549.52 Q1468.7 1549.52 1465.53 1544.94 Q1462.36 1540.33 1462.36 1531.6 Q1462.36 1523.41 1466.25 1518.55 Q1470.14 1513.66 1476.69 1513.66 Q1478.45 1513.66 1480.23 1514.01 Q1482.04 1514.36 1483.98 1515.05 Z" fill="#000000" fill-rule="evenodd" fill-opacity="1" /><path clip-path="url(#clip760)" d="M1913.52 1532.44 Q1910.19 1532.44 1908.27 1534.22 Q1906.37 1536 1906.37 1539.13 Q1906.37 1542.25 1908.27 1544.03 Q1910.19 1545.82 1913.52 1545.82 Q1916.86 1545.82 1918.78 1544.03 Q1920.7 1542.23 1920.7 1539.13 Q1920.7 1536 1918.78 1534.22 Q1916.88 1532.44 1913.52 1532.44 M1908.85 1530.45 Q1905.84 1529.7 1904.15 1527.64 Q1902.48 1525.58 1902.48 1522.62 Q1902.48 1518.48 1905.42 1516.07 Q1908.39 1513.66 1913.52 1513.66 Q1918.69 1513.66 1921.63 1516.07 Q1924.57 1518.48 1924.57 1522.62 Q1924.57 1525.58 1922.88 1527.64 Q1921.21 1529.7 1918.22 1530.45 Q1921.6 1531.23 1923.48 1533.52 Q1925.38 1535.82 1925.38 1539.13 Q1925.38 1544.15 1922.3 1546.83 Q1919.24 1549.52 1913.52 1549.52 Q1907.81 1549.52 1904.73 1546.83 Q1901.67 1544.15 1901.67 1539.13 Q1901.67 1535.82 1903.57 1533.52 Q1905.47 1531.23 1908.85 1530.45 M1907.14 1523.06 Q1907.14 1525.75 1908.8 1527.25 Q1910.49 1528.76 1913.52 1528.76 Q1916.53 1528.76 1918.22 1527.25 Q1919.94 1525.75 1919.94 1523.06 Q1919.94 1520.38 1918.22 1518.87 Q1916.53 1517.37 1913.52 1517.37 Q1910.49 1517.37 1908.8 1518.87 Q1907.14 1520.38 1907.14 1523.06 Z" fill="#000000" fill-rule="evenodd" fill-opacity="1" /><path clip-path="url(#clip760)" d="M2327.44 1544.91 L2335.08 1544.91 L2335.08 1518.55 L2326.77 1520.21 L2326.77 1515.95 L2335.04 1514.29 L2339.71 1514.29 L2339.71 1544.91 L2347.35 1544.91 L2347.35 1548.85 L2327.44 1548.85 L2327.44 1544.91 Z" fill="#000000" fill-rule="evenodd" fill-opacity="1" /><path clip-path="url(#clip760)" d="M2366.8 1517.37 Q2363.18 1517.37 2361.36 1520.93 Q2359.55 1524.47 2359.55 1531.6 Q2359.55 1538.71 2361.36 1542.27 Q2363.18 1545.82 2366.8 1545.82 Q2370.43 1545.82 2372.23 1542.27 Q2374.06 1538.71 2374.06 1531.6 Q2374.06 1524.47 2372.23 1520.93 Q2370.43 1517.37 2366.8 1517.37 M2366.8 1513.66 Q2372.61 1513.66 2375.66 1518.27 Q2378.74 1522.85 2378.74 1531.6 Q2378.74 1540.33 2375.66 1544.94 Q2372.61 1549.52 2366.8 1549.52 Q2360.99 1549.52 2357.91 1544.94 Q2354.85 1540.33 2354.85 1531.6 Q2354.85 1522.85 2357.91 1518.27 Q2360.99 1513.66 2366.8 1513.66 Z" fill="#000000" fill-rule="evenodd" fill-opacity="1" /><polyline clip-path="url(#clip760)" style="stroke:#000000; stroke-linecap:round; stroke-linejoin:round; stroke-width:4; stroke-opacity:1; fill:none" points="
  156.598,1486.45 156.598,47.2441 
  "/>
<polyline clip-path="url(#clip760)" style="stroke:#000000; stroke-linecap:round; stroke-linejoin:round; stroke-width:4; stroke-opacity:1; fill:none" points="
  156.598,1445.72 175.496,1445.72 
  "/>
<polyline clip-path="url(#clip760)" style="stroke:#000000; stroke-linecap:round; stroke-linejoin:round; stroke-width:4; stroke-opacity:1; fill:none" points="
  156.598,1174.17 175.496,1174.17 
  "/>
<polyline clip-path="url(#clip760)" style="stroke:#000000; stroke-linecap:round; stroke-linejoin:round; stroke-width:4; stroke-opacity:1; fill:none" points="
  156.598,902.62 175.496,902.62 
  "/>
<polyline clip-path="url(#clip760)" style="stroke:#000000; stroke-linecap:round; stroke-linejoin:round; stroke-width:4; stroke-opacity:1; fill:none" points="
  156.598,631.072 175.496,631.072 
  "/>
<polyline clip-path="url(#clip760)" style="stroke:#000000; stroke-linecap:round; stroke-linejoin:round; stroke-width:4; stroke-opacity:1; fill:none" points="
  156.598,359.524 175.496,359.524 
  "/>
<polyline clip-path="url(#clip760)" style="stroke:#000000; stroke-linecap:round; stroke-linejoin:round; stroke-width:4; stroke-opacity:1; fill:none" points="
  156.598,87.9763 175.496,87.9763 
  "/>
<path clip-path="url(#clip760)" d="M63.4226 1431.51 Q59.8115 1431.51 57.9828 1435.08 Q56.1773 1438.62 56.1773 1445.75 Q56.1773 1452.86 57.9828 1456.42 Q59.8115 1459.96 63.4226 1459.96 Q67.0569 1459.96 68.8624 1456.42 Q70.6911 1452.86 70.6911 1445.75 Q70.6911 1438.62 68.8624 1435.08 Q67.0569 1431.51 63.4226 1431.51 M63.4226 1427.81 Q69.2328 1427.81 72.2883 1432.42 Q75.367 1437 75.367 1445.75 Q75.367 1454.48 72.2883 1459.08 Q69.2328 1463.67 63.4226 1463.67 Q57.6125 1463.67 54.5338 1459.08 Q51.4782 1454.48 51.4782 1445.75 Q51.4782 1437 54.5338 1432.42 Q57.6125 1427.81 63.4226 1427.81 Z" fill="#000000" fill-rule="evenodd" fill-opacity="1" /><path clip-path="url(#clip760)" d="M83.5845 1457.12 L88.4688 1457.12 L88.4688 1463 L83.5845 1463 L83.5845 1457.12 Z" fill="#000000" fill-rule="evenodd" fill-opacity="1" /><path clip-path="url(#clip760)" d="M108.654 1431.51 Q105.043 1431.51 103.214 1435.08 Q101.409 1438.62 101.409 1445.75 Q101.409 1452.86 103.214 1456.42 Q105.043 1459.96 108.654 1459.96 Q112.288 1459.96 114.094 1456.42 Q115.922 1452.86 115.922 1445.75 Q115.922 1438.62 114.094 1435.08 Q112.288 1431.51 108.654 1431.51 M108.654 1427.81 Q114.464 1427.81 117.52 1432.42 Q120.598 1437 120.598 1445.75 Q120.598 1454.48 117.52 1459.08 Q114.464 1463.67 108.654 1463.67 Q102.844 1463.67 99.765 1459.08 Q96.7095 1454.48 96.7095 1445.75 Q96.7095 1437 99.765 1432.42 Q102.844 1427.81 108.654 1427.81 Z" fill="#000000" fill-rule="evenodd" fill-opacity="1" /><path clip-path="url(#clip760)" d="M64.6495 1159.97 Q61.0384 1159.97 59.2097 1163.53 Q57.4041 1167.07 57.4041 1174.2 Q57.4041 1181.31 59.2097 1184.87 Q61.0384 1188.42 64.6495 1188.42 Q68.2837 1188.42 70.0892 1184.87 Q71.9179 1181.31 71.9179 1174.2 Q71.9179 1167.07 70.0892 1163.53 Q68.2837 1159.97 64.6495 1159.97 M64.6495 1156.26 Q70.4596 1156.26 73.5152 1160.87 Q76.5938 1165.45 76.5938 1174.2 Q76.5938 1182.93 73.5152 1187.54 Q70.4596 1192.12 64.6495 1192.12 Q58.8393 1192.12 55.7606 1187.54 Q52.7051 1182.93 52.7051 1174.2 Q52.7051 1165.45 55.7606 1160.87 Q58.8393 1156.26 64.6495 1156.26 Z" fill="#000000" fill-rule="evenodd" fill-opacity="1" /><path clip-path="url(#clip760)" d="M84.8114 1185.57 L89.6956 1185.57 L89.6956 1191.45 L84.8114 1191.45 L84.8114 1185.57 Z" fill="#000000" fill-rule="evenodd" fill-opacity="1" /><path clip-path="url(#clip760)" d="M100.691 1187.51 L108.33 1187.51 L108.33 1161.15 L100.02 1162.81 L100.02 1158.55 L108.283 1156.89 L112.959 1156.89 L112.959 1187.51 L120.598 1187.51 L120.598 1191.45 L100.691 1191.45 L100.691 1187.51 Z" fill="#000000" fill-rule="evenodd" fill-opacity="1" /><path clip-path="url(#clip760)" d="M65.0198 888.419 Q61.4087 888.419 59.58 891.983 Q57.7745 895.525 57.7745 902.655 Q57.7745 909.761 59.58 913.326 Q61.4087 916.868 65.0198 916.868 Q68.6541 916.868 70.4596 913.326 Q72.2883 909.761 72.2883 902.655 Q72.2883 895.525 70.4596 891.983 Q68.6541 888.419 65.0198 888.419 M65.0198 884.715 Q70.83 884.715 73.8855 889.321 Q76.9642 893.905 76.9642 902.655 Q76.9642 911.381 73.8855 915.988 Q70.83 920.571 65.0198 920.571 Q59.2097 920.571 56.131 915.988 Q53.0754 911.381 53.0754 902.655 Q53.0754 893.905 56.131 889.321 Q59.2097 884.715 65.0198 884.715 Z" fill="#000000" fill-rule="evenodd" fill-opacity="1" /><path clip-path="url(#clip760)" d="M85.1818 914.02 L90.066 914.02 L90.066 919.9 L85.1818 919.9 L85.1818 914.02 Z" fill="#000000" fill-rule="evenodd" fill-opacity="1" /><path clip-path="url(#clip760)" d="M104.279 915.965 L120.598 915.965 L120.598 919.9 L98.6539 919.9 L98.6539 915.965 Q101.316 913.21 105.899 908.581 Q110.506 903.928 111.686 902.585 Q113.932 900.062 114.811 898.326 Q115.714 896.567 115.714 894.877 Q115.714 892.122 113.77 890.386 Q111.848 888.65 108.746 888.65 Q106.547 888.65 104.094 889.414 Q101.663 890.178 98.8854 891.729 L98.8854 887.007 Q101.709 885.872 104.163 885.294 Q106.617 884.715 108.654 884.715 Q114.024 884.715 117.219 887.4 Q120.413 890.085 120.413 894.576 Q120.413 896.706 119.603 898.627 Q118.816 900.525 116.709 903.118 Q116.131 903.789 113.029 907.006 Q109.927 910.201 104.279 915.965 Z" fill="#000000" fill-rule="evenodd" fill-opacity="1" /><path clip-path="url(#clip760)" d="M64.0708 616.871 Q60.4597 616.871 58.631 620.436 Q56.8254 623.977 56.8254 631.107 Q56.8254 638.213 58.631 641.778 Q60.4597 645.32 64.0708 645.32 Q67.705 645.32 69.5105 641.778 Q71.3392 638.213 71.3392 631.107 Q71.3392 623.977 69.5105 620.436 Q67.705 616.871 64.0708 616.871 M64.0708 613.167 Q69.8809 613.167 72.9365 617.774 Q76.0151 622.357 76.0151 631.107 Q76.0151 639.834 72.9365 644.44 Q69.8809 649.023 64.0708 649.023 Q58.2606 649.023 55.1819 644.44 Q52.1264 639.834 52.1264 631.107 Q52.1264 622.357 55.1819 617.774 Q58.2606 613.167 64.0708 613.167 Z" fill="#000000" fill-rule="evenodd" fill-opacity="1" /><path clip-path="url(#clip760)" d="M84.2327 642.472 L89.1169 642.472 L89.1169 648.352 L84.2327 648.352 L84.2327 642.472 Z" fill="#000000" fill-rule="evenodd" fill-opacity="1" /><path clip-path="url(#clip760)" d="M113.469 629.718 Q116.825 630.435 118.7 632.704 Q120.598 634.972 120.598 638.306 Q120.598 643.422 117.08 646.222 Q113.561 649.023 107.08 649.023 Q104.904 649.023 102.589 648.584 Q100.297 648.167 97.8437 647.31 L97.8437 642.797 Q99.7882 643.931 102.103 644.509 Q104.418 645.088 106.941 645.088 Q111.339 645.088 113.631 643.352 Q115.945 641.616 115.945 638.306 Q115.945 635.25 113.793 633.537 Q111.663 631.801 107.844 631.801 L103.816 631.801 L103.816 627.959 L108.029 627.959 Q111.478 627.959 113.307 626.593 Q115.135 625.204 115.135 622.611 Q115.135 619.949 113.237 618.537 Q111.362 617.102 107.844 617.102 Q105.922 617.102 103.723 617.519 Q101.524 617.936 98.8854 618.815 L98.8854 614.649 Q101.547 613.908 103.862 613.537 Q106.2 613.167 108.26 613.167 Q113.584 613.167 116.686 615.598 Q119.788 618.005 119.788 622.125 Q119.788 624.996 118.145 626.986 Q116.501 628.954 113.469 629.718 Z" fill="#000000" fill-rule="evenodd" fill-opacity="1" /><path clip-path="url(#clip760)" d="M62.9365 345.323 Q59.3254 345.323 57.4967 348.888 Q55.6912 352.429 55.6912 359.559 Q55.6912 366.665 57.4967 370.23 Q59.3254 373.772 62.9365 373.772 Q66.5707 373.772 68.3763 370.23 Q70.205 366.665 70.205 359.559 Q70.205 352.429 68.3763 348.888 Q66.5707 345.323 62.9365 345.323 M62.9365 341.619 Q68.7467 341.619 71.8022 346.226 Q74.8809 350.809 74.8809 359.559 Q74.8809 368.286 71.8022 372.892 Q68.7467 377.475 62.9365 377.475 Q57.1264 377.475 54.0477 372.892 Q50.9921 368.286 50.9921 359.559 Q50.9921 350.809 54.0477 346.226 Q57.1264 341.619 62.9365 341.619 Z" fill="#000000" fill-rule="evenodd" fill-opacity="1" /><path clip-path="url(#clip760)" d="M83.0984 370.925 L87.9827 370.925 L87.9827 376.804 L83.0984 376.804 L83.0984 370.925 Z" fill="#000000" fill-rule="evenodd" fill-opacity="1" /><path clip-path="url(#clip760)" d="M111.015 346.318 L99.2095 364.767 L111.015 364.767 L111.015 346.318 M109.788 342.244 L115.668 342.244 L115.668 364.767 L120.598 364.767 L120.598 368.656 L115.668 368.656 L115.668 376.804 L111.015 376.804 L111.015 368.656 L95.4132 368.656 L95.4132 364.142 L109.788 342.244 Z" fill="#000000" fill-rule="evenodd" fill-opacity="1" /><path clip-path="url(#clip760)" d="M64.418 73.775 Q60.8069 73.775 58.9782 77.3398 Q57.1726 80.8814 57.1726 88.011 Q57.1726 95.1174 58.9782 98.6822 Q60.8069 102.224 64.418 102.224 Q68.0522 102.224 69.8578 98.6822 Q71.6865 95.1174 71.6865 88.011 Q71.6865 80.8814 69.8578 77.3398 Q68.0522 73.775 64.418 73.775 M64.418 70.0713 Q70.2281 70.0713 73.2837 74.6777 Q76.3624 79.261 76.3624 88.011 Q76.3624 96.7378 73.2837 101.344 Q70.2281 105.928 64.418 105.928 Q58.6078 105.928 55.5291 101.344 Q52.4736 96.7378 52.4736 88.011 Q52.4736 79.261 55.5291 74.6777 Q58.6078 70.0713 64.418 70.0713 Z" fill="#000000" fill-rule="evenodd" fill-opacity="1" /><path clip-path="url(#clip760)" d="M84.5799 99.3767 L89.4641 99.3767 L89.4641 105.256 L84.5799 105.256 L84.5799 99.3767 Z" fill="#000000" fill-rule="evenodd" fill-opacity="1" /><path clip-path="url(#clip760)" d="M99.6956 70.6963 L118.052 70.6963 L118.052 74.6314 L103.978 74.6314 L103.978 83.1036 Q104.996 82.7564 106.015 82.5944 Q107.033 82.4092 108.052 82.4092 Q113.839 82.4092 117.219 85.5805 Q120.598 88.7517 120.598 94.1684 Q120.598 99.747 117.126 102.849 Q113.654 105.928 107.334 105.928 Q105.159 105.928 102.89 105.557 Q100.645 105.187 98.2372 104.446 L98.2372 99.747 Q100.321 100.881 102.543 101.437 Q104.765 101.992 107.242 101.992 Q111.246 101.992 113.584 99.8859 Q115.922 97.7795 115.922 94.1684 Q115.922 90.5573 113.584 88.4508 Q111.246 86.3443 107.242 86.3443 Q105.367 86.3443 103.492 86.761 Q101.64 87.1777 99.6956 88.0573 L99.6956 70.6963 Z" fill="#000000" fill-rule="evenodd" fill-opacity="1" /><polyline clip-path="url(#clip762)" style="stroke:#009af9; stroke-linecap:round; stroke-linejoin:round; stroke-width:4; stroke-opacity:1; fill:none" points="
  8.19206,1445.57 40.684,1443.45 73.1759,1422.75 105.668,1317.04 138.16,1029.83 170.652,632.035 203.144,368.437 235.635,320.51 268.127,381.465 300.619,460.152 
  333.111,532.59 365.603,601.131 398.095,665.11 430.587,720.092 463.079,766.076 495.571,810.17 528.063,857.852 560.555,905.704 593.047,948.257 625.538,984.92 
  658.03,1016.31 690.522,1044.96 723.014,1071.54 755.506,1096.2 787.998,1121.5 820.49,1146.53 852.982,1168.3 885.474,1188.79 917.966,1208.72 950.458,1224.82 
  982.949,1239.04 1015.44,1254.29 1047.93,1267.48 1080.43,1279.25 1112.92,1293 1145.41,1306.34 1177.9,1316.7 1210.39,1325.78 1242.88,1334.42 1275.38,1341.48 
  1307.87,1347.12 1340.36,1352.5 1372.85,1358.71 1405.34,1365.78 1437.84,1372.28 1470.33,1377.34 1502.82,1381.45 1535.31,1385.66 1567.8,1390.77 1600.3,1396.25 
  1632.79,1400.92 1665.28,1404.69 1697.77,1407.62 1730.26,1409.83 1762.76,1412.31 1795.25,1415.36 1827.74,1417.92 1860.23,1418.87 1892.72,1419.01 1925.22,1419.92 
  1957.71,1421.82 1990.2,1424.29 2022.69,1426.7 2055.18,1428.1 2087.67,1428.8 2120.17,1429.68 2152.66,1430.35 2185.15,1430.85 2217.64,1432.09 2250.13,1433.59 
  2282.63,1434.5 2315.12,1435.19 2347.61,1436.23 2380.1,1437.3 2412.59,1438.12 2445.09,1438.48 2477.58,1438.46 2510.07,1438.58 2542.56,1438.96 2575.05,1439.54 
  2607.55,1440.25 2640.04,1440.91 2672.53,1441.25 2705.02,1441.52 2737.51,1442.03 2770,1442.67 2802.5,1443.22 2834.99,1443.49 2867.48,1443.54 2899.97,1443.59 
  2932.46,1443.67 2964.96,1443.66 2997.45,1443.67 3029.94,1443.88 3062.43,1444.18 3094.92,1444.37 3127.42,1444.39 3159.91,1444.24 3192.4,1444.06 3224.89,1444.09 
  3257.38,1444.36 3289.88,1444.58 3322.37,1444.68 3354.86,1444.79 3387.35,1444.94 3419.84,1445.04 3452.33,1444.98 3484.83,1444.86 3517.32,1444.91 3549.81,1444.99 
  3582.3,1444.88 3614.79,1444.75 3647.29,1444.91 3679.78,1445.23 3712.27,1445.39 3744.76,1445.38 3777.25,1445.38 3809.75,1445.41 3842.24,1445.41 3874.73,1445.41 
  3907.22,1445.41 3939.71,1445.41 3972.21,1445.38 4004.7,1445.37 4037.19,1445.32 4069.68,1445.21 4102.17,1445.2 4134.67,1445.33 4167.16,1445.46 4199.65,1445.46 
  4232.14,1445.42 4264.63,1445.42 4297.12,1445.45 4329.62,1445.46 4362.11,1445.5 4394.6,1445.6 4427.09,1445.68 4459.58,1445.71 4492.08,1445.72 4524.57,1445.72 
  4557.06,1445.72 4589.55,1445.72 4622.04,1445.72 4654.54,1445.71 4687.03,1445.69 4719.52,1445.63 4752.01,1445.59 4784.5,1445.63 4817,1445.69 4849.49,1445.71 
  4881.98,1445.71 4914.47,1445.72 4946.96,1445.72 4979.45,1445.72 5011.95,1445.72 5044.44,1445.72 5076.93,1445.72 5109.42,1445.72 5141.91,1445.72 5174.41,1445.72 
  5206.9,1445.72 5239.39,1445.72 5271.88,1445.72 5304.37,1445.72 5336.87,1445.72 5369.36,1445.72 5401.85,1445.72 5434.34,1445.72 5466.83,1445.72 5499.33,1445.72 
  5531.82,1445.71 5564.31,1445.72 5596.8,1445.71 5629.29,1445.72 5661.79,1445.71 5694.28,1445.72 5726.77,1445.71 5759.26,1445.72 5791.75,1445.71 5824.24,1445.72 
  5856.74,1445.71 5889.23,1445.72 5921.72,1445.71 5954.21,1445.72 5986.7,1445.71 6019.2,1445.72 6051.69,1445.71 6084.18,1445.72 6116.67,1445.71 6149.16,1445.72 
  6181.66,1445.71 6214.15,1445.72 6246.64,1445.69 6279.13,1445.66 6311.62,1445.6 6344.12,1445.62 6376.61,1445.65 6409.1,1445.71 6441.59,1445.7 6474.08,1445.72 
  
  "/>
<polyline clip-path="url(#clip762)" style="stroke:#000000; stroke-linecap:round; stroke-linejoin:round; stroke-width:4; stroke-opacity:1; fill:none" stroke-dasharray="16, 10" points="
  156.598,87.9763 163.183,108.178 169.767,128.08 176.352,147.686 182.936,166.999 198.157,210.552 213.378,252.622 228.599,293.259 243.82,332.511 259.041,370.427 
  274.262,407.052 289.483,442.428 304.704,476.6 319.925,509.608 335.146,541.492 350.367,572.29 365.588,602.039 380.809,630.775 396.03,658.532 411.251,685.343 
  426.471,711.241 444.766,741.204 463.06,769.945 481.354,797.513 499.649,823.957 517.943,849.322 536.237,873.652 554.532,896.989 572.826,919.375 603.761,955.17 
  634.696,988.53 665.631,1019.62 696.567,1048.6 730.171,1077.85 763.775,1104.94 797.379,1130.04 830.984,1153.29 861.964,1173.21 892.944,1191.77 923.924,1209.06 
  954.904,1225.18 988.118,1241.24 1021.33,1256.13 1054.55,1269.94 1087.76,1282.74 1126.24,1296.41 1164.72,1308.94 1203.21,1320.41 1241.69,1330.92 1310.08,1347.47 
  1378.48,1361.64 1438.46,1372.37 1498.43,1381.73 1563.82,1390.58 1629.22,1398.21 1695,1404.82 1760.78,1410.51 1906.23,1420.43 2044.63,1427.27 2188.53,1432.42 
  2309.67,1435.62 2457.56,1438.51 2593.03,1440.42 2718.16,1441.73 2844.91,1442.73 2986.95,1443.56 3115.67,1444.11 3263.05,1444.56 3399.5,1444.87 3534.03,1445.09 
  3664.64,1445.25 3798.54,1445.38 3945.24,1445.47 4158.35,1445.57 4202.07,1445.58 
  "/>
<path clip-path="url(#clip760)" d="
M1140.24 198.898 L2279.55 198.898 L2279.55 95.2176 L1140.24 95.2176  Z
  " fill="#ffffff" fill-rule="evenodd" fill-opacity="1"/>
<polyline clip-path="url(#clip760)" style="stroke:#000000; stroke-linecap:round; stroke-linejoin:round; stroke-width:4; stroke-opacity:1; fill:none" points="
  1140.24,198.898 2279.55,198.898 2279.55,95.2176 1140.24,95.2176 1140.24,198.898 
  "/>
<polyline clip-path="url(#clip760)" style="stroke:#000000; stroke-linecap:round; stroke-linejoin:round; stroke-width:4; stroke-opacity:1; fill:none" stroke-dasharray="16, 10" points="
  1164.64,147.058 1311.05,147.058 
  "/>
<path clip-path="url(#clip760)" d="M1363.32 132.44 L1363.32 137.37 Q1360.96 135.171 1358.28 134.083 Q1355.62 132.995 1352.61 132.995 Q1346.68 132.995 1343.53 136.629 Q1340.39 140.24 1340.39 147.092 Q1340.39 153.921 1343.53 157.555 Q1346.68 161.166 1352.61 161.166 Q1355.62 161.166 1358.28 160.078 Q1360.96 158.99 1363.32 156.791 L1363.32 161.676 Q1360.87 163.342 1358.12 164.176 Q1355.39 165.009 1352.33 165.009 Q1344.48 165.009 1339.97 160.217 Q1335.45 155.402 1335.45 147.092 Q1335.45 138.759 1339.97 133.967 Q1344.48 129.153 1352.33 129.153 Q1355.43 129.153 1358.16 129.986 Q1360.92 130.796 1363.32 132.44 Z" fill="#000000" fill-rule="evenodd" fill-opacity="1" /><path clip-path="url(#clip760)" d="M1391.91 148.689 L1391.91 164.338 L1387.65 164.338 L1387.65 148.828 Q1387.65 145.148 1386.22 143.319 Q1384.78 141.49 1381.91 141.49 Q1378.46 141.49 1376.47 143.69 Q1374.48 145.889 1374.48 149.685 L1374.48 164.338 L1370.2 164.338 L1370.2 128.319 L1374.48 128.319 L1374.48 142.44 Q1376.01 140.102 1378.07 138.944 Q1380.15 137.787 1382.86 137.787 Q1387.33 137.787 1389.62 140.565 Q1391.91 143.319 1391.91 148.689 Z" fill="#000000" fill-rule="evenodd" fill-opacity="1" /><path clip-path="url(#clip760)" d="M1400.41 138.412 L1404.67 138.412 L1404.67 164.338 L1400.41 164.338 L1400.41 138.412 M1400.41 128.319 L1404.67 128.319 L1404.67 133.713 L1400.41 133.713 L1400.41 128.319 Z" fill="#000000" fill-rule="evenodd" fill-opacity="1" /><path clip-path="url(#clip760)" d="M1411.43 149.453 L1423.9 149.453 L1423.9 153.25 L1411.43 153.25 L1411.43 149.453 Z" fill="#000000" fill-rule="evenodd" fill-opacity="1" /><path clip-path="url(#clip760)" d="M1447.21 139.176 L1447.21 143.203 Q1445.41 142.277 1443.46 141.815 Q1441.52 141.352 1439.44 141.352 Q1436.26 141.352 1434.67 142.324 Q1433.09 143.296 1433.09 145.24 Q1433.09 146.722 1434.23 147.578 Q1435.36 148.412 1438.79 149.176 L1440.25 149.5 Q1444.78 150.472 1446.68 152.254 Q1448.6 154.014 1448.6 157.185 Q1448.6 160.796 1445.73 162.902 Q1442.88 165.009 1437.88 165.009 Q1435.8 165.009 1433.53 164.592 Q1431.29 164.199 1428.79 163.388 L1428.79 158.99 Q1431.15 160.217 1433.44 160.842 Q1435.73 161.444 1437.98 161.444 Q1440.99 161.444 1442.61 160.426 Q1444.23 159.384 1444.23 157.509 Q1444.23 155.773 1443.05 154.847 Q1441.89 153.921 1437.93 153.064 L1436.45 152.717 Q1432.49 151.884 1430.73 150.171 Q1428.97 148.435 1428.97 145.426 Q1428.97 141.768 1431.57 139.778 Q1434.16 137.787 1438.93 137.787 Q1441.29 137.787 1443.37 138.134 Q1445.45 138.481 1447.21 139.176 Z" fill="#000000" fill-rule="evenodd" fill-opacity="1" /><path clip-path="url(#clip760)" d="M1457.93 151.398 Q1457.93 156.097 1459.85 158.782 Q1461.8 161.444 1465.18 161.444 Q1468.56 161.444 1470.5 158.782 Q1472.44 156.097 1472.44 151.398 Q1472.44 146.699 1470.5 144.037 Q1468.56 141.352 1465.18 141.352 Q1461.8 141.352 1459.85 144.037 Q1457.93 146.699 1457.93 151.398 M1472.44 160.449 Q1471.1 162.763 1469.04 163.898 Q1467 165.009 1464.13 165.009 Q1459.44 165.009 1456.47 161.259 Q1453.53 157.509 1453.53 151.398 Q1453.53 145.287 1456.47 141.537 Q1459.44 137.787 1464.13 137.787 Q1467 137.787 1469.04 138.921 Q1471.1 140.032 1472.44 142.347 L1472.44 138.412 L1476.7 138.412 L1476.7 174.199 L1472.44 174.199 L1472.44 160.449 Z" fill="#000000" fill-rule="evenodd" fill-opacity="1" /><path clip-path="url(#clip760)" d="M1485.04 154.106 L1485.04 138.412 L1489.3 138.412 L1489.3 153.944 Q1489.3 157.625 1490.73 159.476 Q1492.17 161.305 1495.04 161.305 Q1498.49 161.305 1500.48 159.106 Q1502.49 156.907 1502.49 153.111 L1502.49 138.412 L1506.75 138.412 L1506.75 164.338 L1502.49 164.338 L1502.49 160.356 Q1500.94 162.717 1498.88 163.875 Q1496.84 165.009 1494.13 165.009 Q1489.67 165.009 1487.35 162.231 Q1485.04 159.453 1485.04 154.106 M1495.75 137.787 L1495.75 137.787 Z" fill="#000000" fill-rule="evenodd" fill-opacity="1" /><path clip-path="url(#clip760)" d="M1527.31 151.305 Q1522.14 151.305 1520.15 152.486 Q1518.16 153.666 1518.16 156.514 Q1518.16 158.782 1519.64 160.125 Q1521.15 161.444 1523.72 161.444 Q1527.26 161.444 1529.39 158.944 Q1531.54 156.421 1531.54 152.254 L1531.54 151.305 L1527.31 151.305 M1535.8 149.546 L1535.8 164.338 L1531.54 164.338 L1531.54 160.402 Q1530.08 162.763 1527.91 163.898 Q1525.73 165.009 1522.58 165.009 Q1518.6 165.009 1516.24 162.787 Q1513.9 160.541 1513.9 156.791 Q1513.9 152.416 1516.82 150.194 Q1519.76 147.972 1525.57 147.972 L1531.54 147.972 L1531.54 147.555 Q1531.54 144.615 1529.6 143.018 Q1527.68 141.398 1524.18 141.398 Q1521.96 141.398 1519.85 141.93 Q1517.75 142.463 1515.8 143.527 L1515.8 139.592 Q1518.14 138.69 1520.34 138.25 Q1522.54 137.787 1524.62 137.787 Q1530.25 137.787 1533.02 140.703 Q1535.8 143.62 1535.8 149.546 Z" fill="#000000" fill-rule="evenodd" fill-opacity="1" /><path clip-path="url(#clip760)" d="M1559.6 142.393 Q1558.88 141.977 1558.02 141.791 Q1557.19 141.583 1556.17 141.583 Q1552.56 141.583 1550.62 143.944 Q1548.69 146.282 1548.69 150.68 L1548.69 164.338 L1544.41 164.338 L1544.41 138.412 L1548.69 138.412 L1548.69 142.44 Q1550.04 140.078 1552.19 138.944 Q1554.34 137.787 1557.42 137.787 Q1557.86 137.787 1558.39 137.856 Q1558.93 137.903 1559.57 138.018 L1559.6 142.393 Z" fill="#000000" fill-rule="evenodd" fill-opacity="1" /><path clip-path="url(#clip760)" d="M1585.2 150.31 L1585.2 152.393 L1565.62 152.393 Q1565.89 156.791 1568.25 159.106 Q1570.64 161.398 1574.87 161.398 Q1577.33 161.398 1579.62 160.796 Q1581.93 160.194 1584.2 158.99 L1584.2 163.018 Q1581.91 163.99 1579.5 164.5 Q1577.1 165.009 1574.62 165.009 Q1568.42 165.009 1564.78 161.398 Q1561.17 157.787 1561.17 151.629 Q1561.17 145.264 1564.6 141.537 Q1568.05 137.787 1573.88 137.787 Q1579.11 137.787 1582.14 141.166 Q1585.2 144.523 1585.2 150.31 M1580.94 149.06 Q1580.89 145.565 1578.97 143.481 Q1577.07 141.398 1573.93 141.398 Q1570.36 141.398 1568.21 143.412 Q1566.08 145.426 1565.75 149.083 L1580.94 149.06 Z" fill="#000000" fill-rule="evenodd" fill-opacity="1" /><path clip-path="url(#clip760)" d="M1609.25 142.347 L1609.25 128.319 L1613.51 128.319 L1613.51 164.338 L1609.25 164.338 L1609.25 160.449 Q1607.91 162.763 1605.85 163.898 Q1603.81 165.009 1600.94 165.009 Q1596.24 165.009 1593.28 161.259 Q1590.34 157.509 1590.34 151.398 Q1590.34 145.287 1593.28 141.537 Q1596.24 137.787 1600.94 137.787 Q1603.81 137.787 1605.85 138.921 Q1607.91 140.032 1609.25 142.347 M1594.74 151.398 Q1594.74 156.097 1596.66 158.782 Q1598.6 161.444 1601.98 161.444 Q1605.36 161.444 1607.31 158.782 Q1609.25 156.097 1609.25 151.398 Q1609.25 146.699 1607.31 144.037 Q1605.36 141.352 1601.98 141.352 Q1598.6 141.352 1596.66 144.037 Q1594.74 146.699 1594.74 151.398 Z" fill="#000000" fill-rule="evenodd" fill-opacity="1" /><path clip-path="url(#clip760)" d="M1634.87 138.412 L1639.13 138.412 L1644.46 158.643 L1649.76 138.412 L1654.78 138.412 L1660.11 158.643 L1665.41 138.412 L1669.67 138.412 L1662.88 164.338 L1657.86 164.338 L1652.28 143.088 L1646.68 164.338 L1641.66 164.338 L1634.87 138.412 Z" fill="#000000" fill-rule="evenodd" fill-opacity="1" /><path clip-path="url(#clip760)" d="M1676.12 138.412 L1680.38 138.412 L1680.38 164.338 L1676.12 164.338 L1676.12 138.412 M1676.12 128.319 L1680.38 128.319 L1680.38 133.713 L1676.12 133.713 L1676.12 128.319 Z" fill="#000000" fill-rule="evenodd" fill-opacity="1" /><path clip-path="url(#clip760)" d="M1693.51 131.051 L1693.51 138.412 L1702.28 138.412 L1702.28 141.722 L1693.51 141.722 L1693.51 155.796 Q1693.51 158.967 1694.36 159.87 Q1695.24 160.773 1697.91 160.773 L1702.28 160.773 L1702.28 164.338 L1697.91 164.338 Q1692.98 164.338 1691.1 162.509 Q1689.23 160.657 1689.23 155.796 L1689.23 141.722 L1686.1 141.722 L1686.1 138.412 L1689.23 138.412 L1689.23 131.051 L1693.51 131.051 Z" fill="#000000" fill-rule="evenodd" fill-opacity="1" /><path clip-path="url(#clip760)" d="M1729.43 148.689 L1729.43 164.338 L1725.17 164.338 L1725.17 148.828 Q1725.17 145.148 1723.74 143.319 Q1722.3 141.49 1719.43 141.49 Q1715.99 141.49 1713.99 143.69 Q1712 145.889 1712 149.685 L1712 164.338 L1707.72 164.338 L1707.72 128.319 L1712 128.319 L1712 142.44 Q1713.53 140.102 1715.59 138.944 Q1717.67 137.787 1720.38 137.787 Q1724.85 137.787 1727.14 140.565 Q1729.43 143.319 1729.43 148.689 Z" fill="#000000" fill-rule="evenodd" fill-opacity="1" /><path clip-path="url(#clip760)" d="M1757.63 160.402 L1773.95 160.402 L1773.95 164.338 L1752 164.338 L1752 160.402 Q1754.67 157.648 1759.25 153.018 Q1763.86 148.365 1765.04 147.023 Q1767.28 144.5 1768.16 142.764 Q1769.06 141.004 1769.06 139.315 Q1769.06 136.56 1767.12 134.824 Q1765.2 133.088 1762.1 133.088 Q1759.9 133.088 1757.44 133.852 Q1755.01 134.615 1752.23 136.166 L1752.23 131.444 Q1755.06 130.31 1757.51 129.731 Q1759.97 129.153 1762 129.153 Q1767.37 129.153 1770.57 131.838 Q1773.76 134.523 1773.76 139.014 Q1773.76 141.143 1772.95 143.065 Q1772.17 144.963 1770.06 147.555 Q1769.48 148.227 1766.38 151.444 Q1763.28 154.639 1757.63 160.402 Z" fill="#000000" fill-rule="evenodd" fill-opacity="1" /><path clip-path="url(#clip760)" d="M1815.29 142.347 L1815.29 128.319 L1819.55 128.319 L1819.55 164.338 L1815.29 164.338 L1815.29 160.449 Q1813.95 162.763 1811.89 163.898 Q1809.85 165.009 1806.98 165.009 Q1802.28 165.009 1799.32 161.259 Q1796.38 157.509 1796.38 151.398 Q1796.38 145.287 1799.32 141.537 Q1802.28 137.787 1806.98 137.787 Q1809.85 137.787 1811.89 138.921 Q1813.95 140.032 1815.29 142.347 M1800.78 151.398 Q1800.78 156.097 1802.7 158.782 Q1804.64 161.444 1808.02 161.444 Q1811.4 161.444 1813.35 158.782 Q1815.29 156.097 1815.29 151.398 Q1815.29 146.699 1813.35 144.037 Q1811.4 141.352 1808.02 141.352 Q1804.64 141.352 1802.7 144.037 Q1800.78 146.699 1800.78 151.398 Z" fill="#000000" fill-rule="evenodd" fill-opacity="1" /><path clip-path="url(#clip760)" d="M1850.5 150.31 L1850.5 152.393 L1830.92 152.393 Q1831.19 156.791 1833.55 159.106 Q1835.94 161.398 1840.17 161.398 Q1842.63 161.398 1844.92 160.796 Q1847.23 160.194 1849.5 158.99 L1849.5 163.018 Q1847.21 163.99 1844.8 164.5 Q1842.4 165.009 1839.92 165.009 Q1833.72 165.009 1830.08 161.398 Q1826.47 157.787 1826.47 151.629 Q1826.47 145.264 1829.9 141.537 Q1833.35 137.787 1839.18 137.787 Q1844.41 137.787 1847.44 141.166 Q1850.5 144.523 1850.5 150.31 M1846.24 149.06 Q1846.19 145.565 1844.27 143.481 Q1842.37 141.398 1839.23 141.398 Q1835.66 141.398 1833.51 143.412 Q1831.38 145.426 1831.05 149.083 L1846.24 149.06 Z" fill="#000000" fill-rule="evenodd" fill-opacity="1" /><path clip-path="url(#clip760)" d="M1874.55 151.074 Q1874.55 146.444 1872.63 143.898 Q1870.73 141.352 1867.28 141.352 Q1863.85 141.352 1861.93 143.898 Q1860.04 146.444 1860.04 151.074 Q1860.04 155.68 1861.93 158.226 Q1863.85 160.773 1867.28 160.773 Q1870.73 160.773 1872.63 158.226 Q1874.55 155.68 1874.55 151.074 M1878.81 161.12 Q1878.81 167.74 1875.87 170.958 Q1872.93 174.199 1866.86 174.199 Q1864.62 174.199 1862.63 173.851 Q1860.64 173.527 1858.76 172.833 L1858.76 168.689 Q1860.64 169.708 1862.47 170.194 Q1864.29 170.68 1866.19 170.68 Q1870.38 170.68 1872.47 168.481 Q1874.55 166.305 1874.55 161.884 L1874.55 159.777 Q1873.23 162.069 1871.17 163.203 Q1869.11 164.338 1866.24 164.338 Q1861.47 164.338 1858.55 160.703 Q1855.64 157.069 1855.64 151.074 Q1855.64 145.055 1858.55 141.421 Q1861.47 137.787 1866.24 137.787 Q1869.11 137.787 1871.17 138.921 Q1873.23 140.055 1874.55 142.347 L1874.55 138.412 L1878.81 138.412 L1878.81 161.12 Z" fill="#000000" fill-rule="evenodd" fill-opacity="1" /><path clip-path="url(#clip760)" d="M1902.6 142.393 Q1901.89 141.977 1901.03 141.791 Q1900.2 141.583 1899.18 141.583 Q1895.57 141.583 1893.62 143.944 Q1891.7 146.282 1891.7 150.68 L1891.7 164.338 L1887.42 164.338 L1887.42 138.412 L1891.7 138.412 L1891.7 142.44 Q1893.04 140.078 1895.2 138.944 Q1897.35 137.787 1900.43 137.787 Q1900.87 137.787 1901.4 137.856 Q1901.93 137.903 1902.58 138.018 L1902.6 142.393 Z" fill="#000000" fill-rule="evenodd" fill-opacity="1" /><path clip-path="url(#clip760)" d="M1928.21 150.31 L1928.21 152.393 L1908.62 152.393 Q1908.9 156.791 1911.26 159.106 Q1913.65 161.398 1917.88 161.398 Q1920.34 161.398 1922.63 160.796 Q1924.94 160.194 1927.21 158.99 L1927.21 163.018 Q1924.92 163.99 1922.51 164.5 Q1920.1 165.009 1917.63 165.009 Q1911.42 165.009 1907.79 161.398 Q1904.18 157.787 1904.18 151.629 Q1904.18 145.264 1907.6 141.537 Q1911.05 137.787 1916.89 137.787 Q1922.12 137.787 1925.15 141.166 Q1928.21 144.523 1928.21 150.31 M1923.95 149.06 Q1923.9 145.565 1921.98 143.481 Q1920.08 141.398 1916.93 141.398 Q1913.37 141.398 1911.22 143.412 Q1909.09 145.426 1908.76 149.083 L1923.95 149.06 Z" fill="#000000" fill-rule="evenodd" fill-opacity="1" /><path clip-path="url(#clip760)" d="M1957.37 150.31 L1957.37 152.393 L1937.79 152.393 Q1938.07 156.791 1940.43 159.106 Q1942.81 161.398 1947.05 161.398 Q1949.5 161.398 1951.79 160.796 Q1954.11 160.194 1956.38 158.99 L1956.38 163.018 Q1954.09 163.99 1951.68 164.5 Q1949.27 165.009 1946.79 165.009 Q1940.59 165.009 1936.96 161.398 Q1933.35 157.787 1933.35 151.629 Q1933.35 145.264 1936.77 141.537 Q1940.22 137.787 1946.05 137.787 Q1951.28 137.787 1954.32 141.166 Q1957.37 144.523 1957.37 150.31 M1953.11 149.06 Q1953.07 145.565 1951.15 143.481 Q1949.25 141.398 1946.1 141.398 Q1942.53 141.398 1940.38 143.412 Q1938.25 145.426 1937.93 149.083 L1953.11 149.06 Z" fill="#000000" fill-rule="evenodd" fill-opacity="1" /><path clip-path="url(#clip760)" d="M1980.89 139.176 L1980.89 143.203 Q1979.09 142.277 1977.14 141.815 Q1975.2 141.352 1973.11 141.352 Q1969.94 141.352 1968.34 142.324 Q1966.77 143.296 1966.77 145.24 Q1966.77 146.722 1967.91 147.578 Q1969.04 148.412 1972.47 149.176 L1973.92 149.5 Q1978.46 150.472 1980.36 152.254 Q1982.28 154.014 1982.28 157.185 Q1982.28 160.796 1979.41 162.902 Q1976.56 165.009 1971.56 165.009 Q1969.48 165.009 1967.21 164.592 Q1964.97 164.199 1962.47 163.388 L1962.47 158.99 Q1964.83 160.217 1967.12 160.842 Q1969.41 161.444 1971.66 161.444 Q1974.66 161.444 1976.28 160.426 Q1977.91 159.384 1977.91 157.509 Q1977.91 155.773 1976.72 154.847 Q1975.57 153.921 1971.61 153.064 L1970.13 152.717 Q1966.17 151.884 1964.41 150.171 Q1962.65 148.435 1962.65 145.426 Q1962.65 141.768 1965.24 139.778 Q1967.84 137.787 1972.6 137.787 Q1974.97 137.787 1977.05 138.134 Q1979.13 138.481 1980.89 139.176 Z" fill="#000000" fill-rule="evenodd" fill-opacity="1" /><path clip-path="url(#clip760)" d="M2014.18 141.398 Q2010.75 141.398 2008.76 144.083 Q2006.77 146.745 2006.77 151.398 Q2006.77 156.051 2008.74 158.736 Q2010.73 161.398 2014.18 161.398 Q2017.58 161.398 2019.57 158.713 Q2021.56 156.027 2021.56 151.398 Q2021.56 146.791 2019.57 144.106 Q2017.58 141.398 2014.18 141.398 M2014.18 137.787 Q2019.73 137.787 2022.9 141.398 Q2026.08 145.009 2026.08 151.398 Q2026.08 157.764 2022.9 161.398 Q2019.73 165.009 2014.18 165.009 Q2008.6 165.009 2005.43 161.398 Q2002.28 157.764 2002.28 151.398 Q2002.28 145.009 2005.43 141.398 Q2008.6 137.787 2014.18 137.787 Z" fill="#000000" fill-rule="evenodd" fill-opacity="1" /><path clip-path="url(#clip760)" d="M2046.26 128.319 L2046.26 131.861 L2042.19 131.861 Q2039.9 131.861 2038.99 132.787 Q2038.11 133.713 2038.11 136.12 L2038.11 138.412 L2045.13 138.412 L2045.13 141.722 L2038.11 141.722 L2038.11 164.338 L2033.83 164.338 L2033.83 141.722 L2029.76 141.722 L2029.76 138.412 L2033.83 138.412 L2033.83 136.606 Q2033.83 132.278 2035.84 130.31 Q2037.86 128.319 2042.23 128.319 L2046.26 128.319 Z" fill="#000000" fill-rule="evenodd" fill-opacity="1" /><path clip-path="url(#clip760)" d="M2078.02 128.319 L2078.02 131.861 L2073.95 131.861 Q2071.65 131.861 2070.75 132.787 Q2069.87 133.713 2069.87 136.12 L2069.87 138.412 L2076.89 138.412 L2076.89 141.722 L2069.87 141.722 L2069.87 164.338 L2065.59 164.338 L2065.59 141.722 L2061.52 141.722 L2061.52 138.412 L2065.59 138.412 L2065.59 136.606 Q2065.59 132.278 2067.6 130.31 Q2069.62 128.319 2073.99 128.319 L2078.02 128.319 Z" fill="#000000" fill-rule="evenodd" fill-opacity="1" /><path clip-path="url(#clip760)" d="M2096.61 142.393 Q2095.89 141.977 2095.03 141.791 Q2094.2 141.583 2093.18 141.583 Q2089.57 141.583 2087.63 143.944 Q2085.71 146.282 2085.71 150.68 L2085.71 164.338 L2081.42 164.338 L2081.42 138.412 L2085.71 138.412 L2085.71 142.44 Q2087.05 140.078 2089.2 138.944 Q2091.35 137.787 2094.43 137.787 Q2094.87 137.787 2095.4 137.856 Q2095.94 137.903 2096.58 138.018 L2096.61 142.393 Z" fill="#000000" fill-rule="evenodd" fill-opacity="1" /><path clip-path="url(#clip760)" d="M2122.21 150.31 L2122.21 152.393 L2102.63 152.393 Q2102.9 156.791 2105.27 159.106 Q2107.65 161.398 2111.89 161.398 Q2114.34 161.398 2116.63 160.796 Q2118.95 160.194 2121.21 158.99 L2121.21 163.018 Q2118.92 163.99 2116.52 164.5 Q2114.11 165.009 2111.63 165.009 Q2105.43 165.009 2101.79 161.398 Q2098.18 157.787 2098.18 151.629 Q2098.18 145.264 2101.61 141.537 Q2105.06 137.787 2110.89 137.787 Q2116.12 137.787 2119.15 141.166 Q2122.21 144.523 2122.21 150.31 M2117.95 149.06 Q2117.9 145.565 2115.98 143.481 Q2114.08 141.398 2110.94 141.398 Q2107.37 141.398 2105.22 143.412 Q2103.09 145.426 2102.77 149.083 L2117.95 149.06 Z" fill="#000000" fill-rule="evenodd" fill-opacity="1" /><path clip-path="url(#clip760)" d="M2151.38 150.31 L2151.38 152.393 L2131.79 152.393 Q2132.07 156.791 2134.43 159.106 Q2136.82 161.398 2141.05 161.398 Q2143.51 161.398 2145.8 160.796 Q2148.11 160.194 2150.38 158.99 L2150.38 163.018 Q2148.09 163.99 2145.68 164.5 Q2143.27 165.009 2140.8 165.009 Q2134.59 165.009 2130.96 161.398 Q2127.35 157.787 2127.35 151.629 Q2127.35 145.264 2130.77 141.537 Q2134.22 137.787 2140.06 137.787 Q2145.29 137.787 2148.32 141.166 Q2151.38 144.523 2151.38 150.31 M2147.12 149.06 Q2147.07 145.565 2145.15 143.481 Q2143.25 141.398 2140.1 141.398 Q2136.54 141.398 2134.39 143.412 Q2132.26 145.426 2131.93 149.083 L2147.12 149.06 Z" fill="#000000" fill-rule="evenodd" fill-opacity="1" /><path clip-path="url(#clip760)" d="M2175.43 142.347 L2175.43 128.319 L2179.69 128.319 L2179.69 164.338 L2175.43 164.338 L2175.43 160.449 Q2174.08 162.763 2172.02 163.898 Q2169.99 165.009 2167.12 165.009 Q2162.42 165.009 2159.45 161.259 Q2156.52 157.509 2156.52 151.398 Q2156.52 145.287 2159.45 141.537 Q2162.42 137.787 2167.12 137.787 Q2169.99 137.787 2172.02 138.921 Q2174.08 140.032 2175.43 142.347 M2160.91 151.398 Q2160.91 156.097 2162.83 158.782 Q2164.78 161.444 2168.16 161.444 Q2171.54 161.444 2173.48 158.782 Q2175.43 156.097 2175.43 151.398 Q2175.43 146.699 2173.48 144.037 Q2171.54 141.352 2168.16 141.352 Q2164.78 141.352 2162.83 144.037 Q2160.91 146.699 2160.91 151.398 Z" fill="#000000" fill-rule="evenodd" fill-opacity="1" /><path clip-path="url(#clip760)" d="M2198.51 141.398 Q2195.08 141.398 2193.09 144.083 Q2191.1 146.745 2191.1 151.398 Q2191.1 156.051 2193.07 158.736 Q2195.06 161.398 2198.51 161.398 Q2201.91 161.398 2203.9 158.713 Q2205.89 156.027 2205.89 151.398 Q2205.89 146.791 2203.9 144.106 Q2201.91 141.398 2198.51 141.398 M2198.51 137.787 Q2204.06 137.787 2207.23 141.398 Q2210.4 145.009 2210.4 151.398 Q2210.4 157.764 2207.23 161.398 Q2204.06 165.009 2198.51 165.009 Q2192.93 165.009 2189.76 161.398 Q2186.61 157.764 2186.61 151.398 Q2186.61 145.009 2189.76 141.398 Q2192.93 137.787 2198.51 137.787 Z" fill="#000000" fill-rule="evenodd" fill-opacity="1" /><path clip-path="url(#clip760)" d="M2237.65 143.389 Q2239.25 140.518 2241.47 139.153 Q2243.69 137.787 2246.7 137.787 Q2250.75 137.787 2252.95 140.634 Q2255.15 143.458 2255.15 148.689 L2255.15 164.338 L2250.87 164.338 L2250.87 148.828 Q2250.87 145.102 2249.55 143.296 Q2248.23 141.49 2245.52 141.49 Q2242.21 141.49 2240.29 143.69 Q2238.37 145.889 2238.37 149.685 L2238.37 164.338 L2234.08 164.338 L2234.08 148.828 Q2234.08 145.078 2232.76 143.296 Q2231.45 141.49 2228.69 141.49 Q2225.43 141.49 2223.51 143.713 Q2221.58 145.912 2221.58 149.685 L2221.58 164.338 L2217.3 164.338 L2217.3 138.412 L2221.58 138.412 L2221.58 142.44 Q2223.04 140.055 2225.08 138.921 Q2227.12 137.787 2229.92 137.787 Q2232.74 137.787 2234.71 139.222 Q2236.7 140.657 2237.65 143.389 Z" fill="#000000" fill-rule="evenodd" fill-opacity="1" /></svg>
