<?xml version="1.0" encoding="utf-8"?>
<svg xmlns="http://www.w3.org/2000/svg" xmlns:xlink="http://www.w3.org/1999/xlink" width="600" height="400" viewBox="0 0 2400 1600">
<defs>
  <clipPath id="clip330">
    <rect x="0" y="0" width="2400" height="1600"/>
  </clipPath>
</defs>
<path clip-path="url(#clip330)" d="
M0 1600 L2400 1600 L2400 0 L0 0  Z
  " fill="#ffffff" fill-rule="evenodd" fill-opacity="1"/>
<defs>
  <clipPath id="clip331">
    <rect x="480" y="0" width="1681" height="1600"/>
  </clipPath>
</defs>
<path clip-path="url(#clip330)" d="
M147.478 1486.45 L2352.76 1486.45 L2352.76 123.472 L147.478 123.472  Z
  " fill="#ffffff" fill-rule="evenodd" fill-opacity="1"/>
<defs>
  <clipPath id="clip332">
    <rect x="147" y="123" width="2206" height="1364"/>
  </clipPath>
</defs>
<polyline clip-path="url(#clip330)" style="stroke:#000000; stroke-linecap:butt; stroke-linejoin:round; stroke-width:4; stroke-opacity:1; fill:none" points="
  147.478,1486.45 2352.76,1486.45 
  "/>
<polyline clip-path="url(#clip330)" style="stroke:#000000; stroke-linecap:butt; stroke-linejoin:round; stroke-width:4; stroke-opacity:1; fill:none" points="
  188.877,1486.45 188.877,1467.55 
  "/>
<polyline clip-path="url(#clip330)" style="stroke:#000000; stroke-linecap:butt; stroke-linejoin:round; stroke-width:4; stroke-opacity:1; fill:none" points="
  714.243,1486.45 714.243,1467.55 
  "/>
<polyline clip-path="url(#clip330)" style="stroke:#000000; stroke-linecap:butt; stroke-linejoin:round; stroke-width:4; stroke-opacity:1; fill:none" points="
  1239.61,1486.45 1239.61,1467.55 
  "/>
<polyline clip-path="url(#clip330)" style="stroke:#000000; stroke-linecap:butt; stroke-linejoin:round; stroke-width:4; stroke-opacity:1; fill:none" points="
  1764.98,1486.45 1764.98,1467.55 
  "/>
<polyline clip-path="url(#clip330)" style="stroke:#000000; stroke-linecap:butt; stroke-linejoin:round; stroke-width:4; stroke-opacity:1; fill:none" points="
  2290.34,1486.45 2290.34,1467.55 
  "/>
<path clip-path="url(#clip330)" d="M188.877 1515.64 Q185.266 1515.64 183.437 1519.2 Q181.631 1522.75 181.631 1529.87 Q181.631 1536.98 183.437 1540.55 Q185.266 1544.09 188.877 1544.09 Q192.511 1544.09 194.317 1540.55 Q196.145 1536.98 196.145 1529.87 Q196.145 1522.75 194.317 1519.2 Q192.511 1515.64 188.877 1515.64 M188.877 1511.93 Q194.687 1511.93 197.742 1516.54 Q200.821 1521.12 200.821 1529.87 Q200.821 1538.6 197.742 1543.21 Q194.687 1547.79 188.877 1547.79 Q183.067 1547.79 179.988 1543.21 Q176.932 1538.6 176.932 1529.87 Q176.932 1521.12 179.988 1516.54 Q183.067 1511.93 188.877 1511.93 Z" fill="#000000" fill-rule="evenodd" fill-opacity="1" /><path clip-path="url(#clip330)" d="M693.514 1543.18 L709.833 1543.18 L709.833 1547.12 L687.889 1547.12 L687.889 1543.18 Q690.551 1540.43 695.134 1535.8 Q699.741 1531.15 700.921 1529.81 Q703.167 1527.28 704.046 1525.55 Q704.949 1523.79 704.949 1522.1 Q704.949 1519.34 703.005 1517.61 Q701.084 1515.87 697.982 1515.87 Q695.783 1515.87 693.329 1516.63 Q690.898 1517.4 688.121 1518.95 L688.121 1514.23 Q690.945 1513.09 693.398 1512.51 Q695.852 1511.93 697.889 1511.93 Q703.259 1511.93 706.454 1514.62 Q709.648 1517.31 709.648 1521.8 Q709.648 1523.93 708.838 1525.85 Q708.051 1527.74 705.945 1530.34 Q705.366 1531.01 702.264 1534.23 Q699.162 1537.42 693.514 1543.18 Z" fill="#000000" fill-rule="evenodd" fill-opacity="1" /><path clip-path="url(#clip330)" d="M719.695 1512.56 L738.051 1512.56 L738.051 1516.5 L723.977 1516.5 L723.977 1524.97 Q724.995 1524.62 726.014 1524.46 Q727.032 1524.27 728.051 1524.27 Q733.838 1524.27 737.218 1527.44 Q740.597 1530.62 740.597 1536.03 Q740.597 1541.61 737.125 1544.71 Q733.653 1547.79 727.333 1547.79 Q725.157 1547.79 722.889 1547.42 Q720.644 1547.05 718.236 1546.31 L718.236 1541.61 Q720.32 1542.74 722.542 1543.3 Q724.764 1543.86 727.241 1543.86 Q731.245 1543.86 733.583 1541.75 Q735.921 1539.64 735.921 1536.03 Q735.921 1532.42 733.583 1530.31 Q731.245 1528.21 727.241 1528.21 Q725.366 1528.21 723.491 1528.62 Q721.639 1529.04 719.695 1529.92 L719.695 1512.56 Z" fill="#000000" fill-rule="evenodd" fill-opacity="1" /><path clip-path="url(#clip330)" d="M1214.31 1512.56 L1232.67 1512.56 L1232.67 1516.5 L1218.59 1516.5 L1218.59 1524.97 Q1219.61 1524.62 1220.63 1524.46 Q1221.65 1524.27 1222.67 1524.27 Q1228.45 1524.27 1231.83 1527.44 Q1235.21 1530.62 1235.21 1536.03 Q1235.21 1541.61 1231.74 1544.71 Q1228.27 1547.79 1221.95 1547.79 Q1219.77 1547.79 1217.5 1547.42 Q1215.26 1547.05 1212.85 1546.31 L1212.85 1541.61 Q1214.93 1542.74 1217.16 1543.3 Q1219.38 1543.86 1221.86 1543.86 Q1225.86 1543.86 1228.2 1541.75 Q1230.54 1539.64 1230.54 1536.03 Q1230.54 1532.42 1228.2 1530.31 Q1225.86 1528.21 1221.86 1528.21 Q1219.98 1528.21 1218.11 1528.62 Q1216.25 1529.04 1214.31 1529.92 L1214.31 1512.56 Z" fill="#000000" fill-rule="evenodd" fill-opacity="1" /><path clip-path="url(#clip330)" d="M1254.42 1515.64 Q1250.81 1515.64 1248.98 1519.2 Q1247.18 1522.75 1247.18 1529.87 Q1247.18 1536.98 1248.98 1540.55 Q1250.81 1544.09 1254.42 1544.09 Q1258.06 1544.09 1259.86 1540.55 Q1261.69 1536.98 1261.69 1529.87 Q1261.69 1522.75 1259.86 1519.2 Q1258.06 1515.64 1254.42 1515.64 M1254.42 1511.93 Q1260.23 1511.93 1263.29 1516.54 Q1266.37 1521.12 1266.37 1529.87 Q1266.37 1538.6 1263.29 1543.21 Q1260.23 1547.79 1254.42 1547.79 Q1248.61 1547.79 1245.54 1543.21 Q1242.48 1538.6 1242.48 1529.87 Q1242.48 1521.12 1245.54 1516.54 Q1248.61 1511.93 1254.42 1511.93 Z" fill="#000000" fill-rule="evenodd" fill-opacity="1" /><path clip-path="url(#clip330)" d="M1738.83 1512.56 L1761.05 1512.56 L1761.05 1514.55 L1748.51 1547.12 L1743.62 1547.12 L1755.43 1516.5 L1738.83 1516.5 L1738.83 1512.56 Z" fill="#000000" fill-rule="evenodd" fill-opacity="1" /><path clip-path="url(#clip330)" d="M1770.22 1512.56 L1788.58 1512.56 L1788.58 1516.5 L1774.5 1516.5 L1774.5 1524.97 Q1775.52 1524.62 1776.54 1524.46 Q1777.56 1524.27 1778.58 1524.27 Q1784.36 1524.27 1787.74 1527.44 Q1791.12 1530.62 1791.12 1536.03 Q1791.12 1541.61 1787.65 1544.71 Q1784.18 1547.79 1777.86 1547.79 Q1775.68 1547.79 1773.41 1547.42 Q1771.17 1547.05 1768.76 1546.31 L1768.76 1541.61 Q1770.84 1542.74 1773.07 1543.3 Q1775.29 1543.86 1777.77 1543.86 Q1781.77 1543.86 1784.11 1541.75 Q1786.45 1539.64 1786.45 1536.03 Q1786.45 1532.42 1784.11 1530.31 Q1781.77 1528.21 1777.77 1528.21 Q1775.89 1528.21 1774.02 1528.62 Q1772.16 1529.04 1770.22 1529.92 L1770.22 1512.56 Z" fill="#000000" fill-rule="evenodd" fill-opacity="1" /><path clip-path="url(#clip330)" d="M2249.95 1543.18 L2257.59 1543.18 L2257.59 1516.82 L2249.28 1518.49 L2249.28 1514.23 L2257.54 1512.56 L2262.22 1512.56 L2262.22 1543.18 L2269.86 1543.18 L2269.86 1547.12 L2249.95 1547.12 L2249.95 1543.18 Z" fill="#000000" fill-rule="evenodd" fill-opacity="1" /><path clip-path="url(#clip330)" d="M2289.3 1515.64 Q2285.69 1515.64 2283.86 1519.2 Q2282.06 1522.75 2282.06 1529.87 Q2282.06 1536.98 2283.86 1540.55 Q2285.69 1544.09 2289.3 1544.09 Q2292.93 1544.09 2294.74 1540.55 Q2296.57 1536.98 2296.57 1529.87 Q2296.57 1522.75 2294.74 1519.2 Q2292.93 1515.64 2289.3 1515.64 M2289.3 1511.93 Q2295.11 1511.93 2298.17 1516.54 Q2301.25 1521.12 2301.25 1529.87 Q2301.25 1538.6 2298.17 1543.21 Q2295.11 1547.79 2289.3 1547.79 Q2283.49 1547.79 2280.41 1543.21 Q2277.36 1538.6 2277.36 1529.87 Q2277.36 1521.12 2280.41 1516.54 Q2283.49 1511.93 2289.3 1511.93 Z" fill="#000000" fill-rule="evenodd" fill-opacity="1" /><path clip-path="url(#clip330)" d="M2319.46 1515.64 Q2315.85 1515.64 2314.02 1519.2 Q2312.22 1522.75 2312.22 1529.87 Q2312.22 1536.98 2314.02 1540.55 Q2315.85 1544.09 2319.46 1544.09 Q2323.1 1544.09 2324.9 1540.55 Q2326.73 1536.98 2326.73 1529.87 Q2326.73 1522.75 2324.9 1519.2 Q2323.1 1515.64 2319.46 1515.64 M2319.46 1511.93 Q2325.27 1511.93 2328.33 1516.54 Q2331.41 1521.12 2331.41 1529.87 Q2331.41 1538.6 2328.33 1543.21 Q2325.27 1547.79 2319.46 1547.79 Q2313.65 1547.79 2310.57 1543.21 Q2307.52 1538.6 2307.52 1529.87 Q2307.52 1521.12 2310.57 1516.54 Q2313.65 1511.93 2319.46 1511.93 Z" fill="#000000" fill-rule="evenodd" fill-opacity="1" /><polyline clip-path="url(#clip330)" style="stroke:#000000; stroke-linecap:butt; stroke-linejoin:round; stroke-width:4; stroke-opacity:1; fill:none" points="
  147.478,1486.45 147.478,123.472 
  "/>
<polyline clip-path="url(#clip330)" style="stroke:#000000; stroke-linecap:butt; stroke-linejoin:round; stroke-width:4; stroke-opacity:1; fill:none" points="
  147.478,1411.83 166.376,1411.83 
  "/>
<polyline clip-path="url(#clip330)" style="stroke:#000000; stroke-linecap:butt; stroke-linejoin:round; stroke-width:4; stroke-opacity:1; fill:none" points="
  147.478,1124.77 166.376,1124.77 
  "/>
<polyline clip-path="url(#clip330)" style="stroke:#000000; stroke-linecap:butt; stroke-linejoin:round; stroke-width:4; stroke-opacity:1; fill:none" points="
  147.478,837.713 166.376,837.713 
  "/>
<polyline clip-path="url(#clip330)" style="stroke:#000000; stroke-linecap:butt; stroke-linejoin:round; stroke-width:4; stroke-opacity:1; fill:none" points="
  147.478,550.655 166.376,550.655 
  "/>
<polyline clip-path="url(#clip330)" style="stroke:#000000; stroke-linecap:butt; stroke-linejoin:round; stroke-width:4; stroke-opacity:1; fill:none" points="
  147.478,263.597 166.376,263.597 
  "/>
<path clip-path="url(#clip330)" d="M51.3625 1412.28 L81.0383 1412.28 L81.0383 1416.22 L51.3625 1416.22 L51.3625 1412.28 Z" fill="#000000" fill-rule="evenodd" fill-opacity="1" /><path clip-path="url(#clip330)" d="M95.1586 1425.17 L111.478 1425.17 L111.478 1429.11 L89.5336 1429.11 L89.5336 1425.17 Q92.1956 1422.42 96.7789 1417.79 Q101.385 1413.14 102.566 1411.79 Q104.811 1409.27 105.691 1407.54 Q106.594 1405.78 106.594 1404.09 Q106.594 1401.33 104.649 1399.6 Q102.728 1397.86 99.6261 1397.86 Q97.4271 1397.86 94.9734 1398.62 Q92.5428 1399.39 89.7651 1400.94 L89.7651 1396.22 Q92.5891 1395.08 95.0428 1394.5 Q97.4965 1393.92 99.5335 1393.92 Q104.904 1393.92 108.098 1396.61 Q111.293 1399.29 111.293 1403.79 Q111.293 1405.91 110.483 1407.84 Q109.696 1409.73 107.589 1412.33 Q107.01 1413 103.909 1416.22 Q100.807 1419.41 95.1586 1425.17 Z" fill="#000000" fill-rule="evenodd" fill-opacity="1" /><path clip-path="url(#clip330)" d="M50.9921 1125.22 L80.6679 1125.22 L80.6679 1129.16 L50.9921 1129.16 L50.9921 1125.22 Z" fill="#000000" fill-rule="evenodd" fill-opacity="1" /><path clip-path="url(#clip330)" d="M91.5706 1138.12 L99.2095 1138.12 L99.2095 1111.75 L90.8993 1113.42 L90.8993 1109.16 L99.1632 1107.49 L103.839 1107.49 L103.839 1138.12 L111.478 1138.12 L111.478 1142.05 L91.5706 1142.05 L91.5706 1138.12 Z" fill="#000000" fill-rule="evenodd" fill-opacity="1" /><path clip-path="url(#clip330)" d="M99.5335 823.512 Q95.9224 823.512 94.0937 827.076 Q92.2882 830.618 92.2882 837.748 Q92.2882 844.854 94.0937 848.419 Q95.9224 851.961 99.5335 851.961 Q103.168 851.961 104.973 848.419 Q106.802 844.854 106.802 837.748 Q106.802 830.618 104.973 827.076 Q103.168 823.512 99.5335 823.512 M99.5335 819.808 Q105.344 819.808 108.399 824.414 Q111.478 828.998 111.478 837.748 Q111.478 846.475 108.399 851.081 Q105.344 855.664 99.5335 855.664 Q93.7234 855.664 90.6447 851.081 Q87.5892 846.475 87.5892 837.748 Q87.5892 828.998 90.6447 824.414 Q93.7234 819.808 99.5335 819.808 Z" fill="#000000" fill-rule="evenodd" fill-opacity="1" /><path clip-path="url(#clip330)" d="M91.5706 564 L99.2095 564 L99.2095 537.634 L90.8993 539.301 L90.8993 535.042 L99.1632 533.375 L103.839 533.375 L103.839 564 L111.478 564 L111.478 567.935 L91.5706 567.935 L91.5706 564 Z" fill="#000000" fill-rule="evenodd" fill-opacity="1" /><path clip-path="url(#clip330)" d="M95.1586 276.942 L111.478 276.942 L111.478 280.877 L89.5336 280.877 L89.5336 276.942 Q92.1956 274.187 96.7789 269.557 Q101.385 264.905 102.566 263.562 Q104.811 261.039 105.691 259.303 Q106.594 257.544 106.594 255.854 Q106.594 253.099 104.649 251.363 Q102.728 249.627 99.6261 249.627 Q97.4271 249.627 94.9734 250.391 Q92.5428 251.155 89.7651 252.706 L89.7651 247.983 Q92.5891 246.849 95.0428 246.271 Q97.4965 245.692 99.5335 245.692 Q104.904 245.692 108.098 248.377 Q111.293 251.062 111.293 255.553 Q111.293 257.682 110.483 259.604 Q109.696 261.502 107.589 264.094 Q107.01 264.766 103.909 267.983 Q100.807 271.178 95.1586 276.942 Z" fill="#000000" fill-rule="evenodd" fill-opacity="1" /><path clip-path="url(#clip330)" d="M1107.99 12.096 L1119.01 12.096 L1145.83 62.6918 L1145.83 12.096 L1153.77 12.096 L1153.77 72.576 L1142.75 72.576 L1115.93 21.9802 L1115.93 72.576 L1107.99 72.576 L1107.99 12.096 Z" fill="#000000" fill-rule="evenodd" fill-opacity="1" /><path clip-path="url(#clip330)" d="M1187.31 32.4315 Q1181.31 32.4315 1177.83 37.1306 Q1174.34 41.7891 1174.34 49.9314 Q1174.34 58.0738 1177.79 62.7728 Q1181.27 67.4314 1187.31 67.4314 Q1193.26 67.4314 1196.75 62.7323 Q1200.23 58.0333 1200.23 49.9314 Q1200.23 41.8701 1196.75 37.1711 Q1193.26 32.4315 1187.31 32.4315 M1187.31 26.1121 Q1197.03 26.1121 1202.58 32.4315 Q1208.13 38.7509 1208.13 49.9314 Q1208.13 61.0714 1202.58 67.4314 Q1197.03 73.7508 1187.31 73.7508 Q1177.54 73.7508 1172 67.4314 Q1166.49 61.0714 1166.49 49.9314 Q1166.49 38.7509 1172 32.4315 Q1177.54 26.1121 1187.31 26.1121 Z" fill="#000000" fill-rule="evenodd" fill-opacity="1" /><path clip-path="url(#clip330)" d="M1246.77 34.1734 Q1245.52 33.4443 1244.02 33.1202 Q1242.56 32.7556 1240.78 32.7556 Q1234.46 32.7556 1231.06 36.8875 Q1227.7 40.9789 1227.7 48.6757 L1227.7 72.576 L1220.2 72.576 L1220.2 27.2059 L1227.7 27.2059 L1227.7 34.2544 Q1230.04 30.1225 1233.81 28.1376 Q1237.58 26.1121 1242.97 26.1121 Q1243.74 26.1121 1244.67 26.2337 Q1245.6 26.3147 1246.73 26.5172 L1246.77 34.1734 Z" fill="#000000" fill-rule="evenodd" fill-opacity="1" /><path clip-path="url(#clip330)" d="M1288.46 35.9153 Q1291.25 30.8922 1295.14 28.5022 Q1299.03 26.1121 1304.3 26.1121 Q1311.39 26.1121 1315.24 31.0947 Q1319.08 36.0368 1319.08 45.1919 L1319.08 72.576 L1311.59 72.576 L1311.59 45.4349 Q1311.59 38.913 1309.28 35.7533 Q1306.97 32.5936 1302.23 32.5936 Q1296.44 32.5936 1293.08 36.4419 Q1289.71 40.2903 1289.71 46.9338 L1289.71 72.576 L1282.22 72.576 L1282.22 45.4349 Q1282.22 38.8725 1279.91 35.7533 Q1277.6 32.5936 1272.78 32.5936 Q1267.07 32.5936 1263.71 36.4824 Q1260.35 40.3308 1260.35 46.9338 L1260.35 72.576 L1252.85 72.576 L1252.85 27.2059 L1260.35 27.2059 L1260.35 34.2544 Q1262.9 30.082 1266.46 28.0971 Q1270.03 26.1121 1274.93 26.1121 Q1279.87 26.1121 1283.31 28.6237 Q1286.8 31.1352 1288.46 35.9153 Z" fill="#000000" fill-rule="evenodd" fill-opacity="1" /><path clip-path="url(#clip330)" d="M1354.57 49.7694 Q1345.54 49.7694 1342.05 51.8354 Q1338.57 53.9013 1338.57 58.8839 Q1338.57 62.8538 1341.16 65.2034 Q1343.79 67.5124 1348.29 67.5124 Q1354.49 67.5124 1358.22 63.1374 Q1361.98 58.7219 1361.98 51.4303 L1361.98 49.7694 L1354.57 49.7694 M1369.44 46.6907 L1369.44 72.576 L1361.98 72.576 L1361.98 65.6895 Q1359.43 69.8214 1355.62 71.8063 Q1351.81 73.7508 1346.31 73.7508 Q1339.34 73.7508 1335.21 69.8619 Q1331.11 65.9325 1331.11 59.3701 Q1331.11 51.7138 1336.22 47.825 Q1341.36 43.9361 1351.53 43.9361 L1361.98 43.9361 L1361.98 43.2069 Q1361.98 38.0623 1358.58 35.2672 Q1355.22 32.4315 1349.1 32.4315 Q1345.21 32.4315 1341.53 33.3632 Q1337.84 34.295 1334.44 36.1584 L1334.44 29.2718 Q1338.53 27.692 1342.38 26.9223 Q1346.22 26.1121 1349.87 26.1121 Q1359.71 26.1121 1364.58 31.2163 Q1369.44 36.3204 1369.44 46.6907 Z" fill="#000000" fill-rule="evenodd" fill-opacity="1" /><path clip-path="url(#clip330)" d="M1384.79 9.54393 L1392.24 9.54393 L1392.24 72.576 L1384.79 72.576 L1384.79 9.54393 Z" fill="#000000" fill-rule="evenodd" fill-opacity="1" /><polyline clip-path="url(#clip332)" style="stroke:#808080; stroke-linecap:butt; stroke-linejoin:round; stroke-width:4; stroke-opacity:0.5; fill:none" points="
  209.891,837.713 209.891,1145.03 
  "/>
<polyline clip-path="url(#clip332)" style="stroke:#808080; stroke-linecap:butt; stroke-linejoin:round; stroke-width:4; stroke-opacity:0.5; fill:none" points="
  230.906,837.713 230.906,884.43 
  "/>
<polyline clip-path="url(#clip332)" style="stroke:#808080; stroke-linecap:butt; stroke-linejoin:round; stroke-width:4; stroke-opacity:0.5; fill:none" points="
  251.921,837.713 251.921,872.882 
  "/>
<polyline clip-path="url(#clip332)" style="stroke:#808080; stroke-linecap:butt; stroke-linejoin:round; stroke-width:4; stroke-opacity:0.5; fill:none" points="
  272.935,837.713 272.935,886.708 
  "/>
<polyline clip-path="url(#clip332)" style="stroke:#808080; stroke-linecap:butt; stroke-linejoin:round; stroke-width:4; stroke-opacity:0.5; fill:none" points="
  293.95,837.713 293.95,597.41 
  "/>
<polyline clip-path="url(#clip332)" style="stroke:#808080; stroke-linecap:butt; stroke-linejoin:round; stroke-width:4; stroke-opacity:0.5; fill:none" points="
  314.965,837.713 314.965,740.102 
  "/>
<polyline clip-path="url(#clip332)" style="stroke:#808080; stroke-linecap:butt; stroke-linejoin:round; stroke-width:4; stroke-opacity:0.5; fill:none" points="
  335.979,837.713 335.979,827.052 
  "/>
<polyline clip-path="url(#clip332)" style="stroke:#808080; stroke-linecap:butt; stroke-linejoin:round; stroke-width:4; stroke-opacity:0.5; fill:none" points="
  356.994,837.713 356.994,674.043 
  "/>
<polyline clip-path="url(#clip332)" style="stroke:#808080; stroke-linecap:butt; stroke-linejoin:round; stroke-width:4; stroke-opacity:0.5; fill:none" points="
  378.009,837.713 378.009,828.431 
  "/>
<polyline clip-path="url(#clip332)" style="stroke:#808080; stroke-linecap:butt; stroke-linejoin:round; stroke-width:4; stroke-opacity:0.5; fill:none" points="
  399.023,837.713 399.023,1099.71 
  "/>
<polyline clip-path="url(#clip332)" style="stroke:#808080; stroke-linecap:butt; stroke-linejoin:round; stroke-width:4; stroke-opacity:0.5; fill:none" points="
  420.038,837.713 420.038,877.135 
  "/>
<polyline clip-path="url(#clip332)" style="stroke:#808080; stroke-linecap:butt; stroke-linejoin:round; stroke-width:4; stroke-opacity:0.5; fill:none" points="
  441.053,837.713 441.053,162.047 
  "/>
<polyline clip-path="url(#clip332)" style="stroke:#808080; stroke-linecap:butt; stroke-linejoin:round; stroke-width:4; stroke-opacity:0.5; fill:none" points="
  462.067,837.713 462.067,476.376 
  "/>
<polyline clip-path="url(#clip332)" style="stroke:#808080; stroke-linecap:butt; stroke-linejoin:round; stroke-width:4; stroke-opacity:0.5; fill:none" points="
  483.082,837.713 483.082,824.959 
  "/>
<polyline clip-path="url(#clip332)" style="stroke:#808080; stroke-linecap:butt; stroke-linejoin:round; stroke-width:4; stroke-opacity:0.5; fill:none" points="
  504.097,837.713 504.097,306.811 
  "/>
<polyline clip-path="url(#clip332)" style="stroke:#808080; stroke-linecap:butt; stroke-linejoin:round; stroke-width:4; stroke-opacity:0.5; fill:none" points="
  525.111,837.713 525.111,996.14 
  "/>
<polyline clip-path="url(#clip332)" style="stroke:#808080; stroke-linecap:butt; stroke-linejoin:round; stroke-width:4; stroke-opacity:0.5; fill:none" points="
  546.126,837.713 546.126,689.862 
  "/>
<polyline clip-path="url(#clip332)" style="stroke:#808080; stroke-linecap:butt; stroke-linejoin:round; stroke-width:4; stroke-opacity:0.5; fill:none" points="
  567.141,837.713 567.141,819.687 
  "/>
<polyline clip-path="url(#clip332)" style="stroke:#808080; stroke-linecap:butt; stroke-linejoin:round; stroke-width:4; stroke-opacity:0.5; fill:none" points="
  588.155,837.713 588.155,560.814 
  "/>
<polyline clip-path="url(#clip332)" style="stroke:#808080; stroke-linecap:butt; stroke-linejoin:round; stroke-width:4; stroke-opacity:0.5; fill:none" points="
  609.17,837.713 609.17,773.752 
  "/>
<polyline clip-path="url(#clip332)" style="stroke:#808080; stroke-linecap:butt; stroke-linejoin:round; stroke-width:4; stroke-opacity:0.5; fill:none" points="
  630.185,837.713 630.185,822.84 
  "/>
<polyline clip-path="url(#clip332)" style="stroke:#808080; stroke-linecap:butt; stroke-linejoin:round; stroke-width:4; stroke-opacity:0.5; fill:none" points="
  651.199,837.713 651.199,570.599 
  "/>
<polyline clip-path="url(#clip332)" style="stroke:#808080; stroke-linecap:butt; stroke-linejoin:round; stroke-width:4; stroke-opacity:0.5; fill:none" points="
  672.214,837.713 672.214,1129.9 
  "/>
<polyline clip-path="url(#clip332)" style="stroke:#808080; stroke-linecap:butt; stroke-linejoin:round; stroke-width:4; stroke-opacity:0.5; fill:none" points="
  693.229,837.713 693.229,612.519 
  "/>
<polyline clip-path="url(#clip332)" style="stroke:#808080; stroke-linecap:butt; stroke-linejoin:round; stroke-width:4; stroke-opacity:0.5; fill:none" points="
  714.243,837.713 714.243,733.287 
  "/>
<polyline clip-path="url(#clip332)" style="stroke:#808080; stroke-linecap:butt; stroke-linejoin:round; stroke-width:4; stroke-opacity:0.5; fill:none" points="
  735.258,837.713 735.258,182.353 
  "/>
<polyline clip-path="url(#clip332)" style="stroke:#808080; stroke-linecap:butt; stroke-linejoin:round; stroke-width:4; stroke-opacity:0.5; fill:none" points="
  756.272,837.713 756.272,888.694 
  "/>
<polyline clip-path="url(#clip332)" style="stroke:#808080; stroke-linecap:butt; stroke-linejoin:round; stroke-width:4; stroke-opacity:0.5; fill:none" points="
  777.287,837.713 777.287,939.902 
  "/>
<polyline clip-path="url(#clip332)" style="stroke:#808080; stroke-linecap:butt; stroke-linejoin:round; stroke-width:4; stroke-opacity:0.5; fill:none" points="
  798.302,837.713 798.302,947.009 
  "/>
<polyline clip-path="url(#clip332)" style="stroke:#808080; stroke-linecap:butt; stroke-linejoin:round; stroke-width:4; stroke-opacity:0.5; fill:none" points="
  819.316,837.713 819.316,953.325 
  "/>
<polyline clip-path="url(#clip332)" style="stroke:#808080; stroke-linecap:butt; stroke-linejoin:round; stroke-width:4; stroke-opacity:0.5; fill:none" points="
  840.331,837.713 840.331,582.014 
  "/>
<polyline clip-path="url(#clip332)" style="stroke:#808080; stroke-linecap:butt; stroke-linejoin:round; stroke-width:4; stroke-opacity:0.5; fill:none" points="
  861.346,837.713 861.346,443.965 
  "/>
<polyline clip-path="url(#clip332)" style="stroke:#808080; stroke-linecap:butt; stroke-linejoin:round; stroke-width:4; stroke-opacity:0.5; fill:none" points="
  882.36,837.713 882.36,880.981 
  "/>
<polyline clip-path="url(#clip332)" style="stroke:#808080; stroke-linecap:butt; stroke-linejoin:round; stroke-width:4; stroke-opacity:0.5; fill:none" points="
  903.375,837.713 903.375,1447.87 
  "/>
<polyline clip-path="url(#clip332)" style="stroke:#808080; stroke-linecap:butt; stroke-linejoin:round; stroke-width:4; stroke-opacity:0.5; fill:none" points="
  924.39,837.713 924.39,1108.31 
  "/>
<polyline clip-path="url(#clip332)" style="stroke:#808080; stroke-linecap:butt; stroke-linejoin:round; stroke-width:4; stroke-opacity:0.5; fill:none" points="
  945.404,837.713 945.404,368.317 
  "/>
<polyline clip-path="url(#clip332)" style="stroke:#808080; stroke-linecap:butt; stroke-linejoin:round; stroke-width:4; stroke-opacity:0.5; fill:none" points="
  966.419,837.713 966.419,507.414 
  "/>
<polyline clip-path="url(#clip332)" style="stroke:#808080; stroke-linecap:butt; stroke-linejoin:round; stroke-width:4; stroke-opacity:0.5; fill:none" points="
  987.434,837.713 987.434,684.777 
  "/>
<polyline clip-path="url(#clip332)" style="stroke:#808080; stroke-linecap:butt; stroke-linejoin:round; stroke-width:4; stroke-opacity:0.5; fill:none" points="
  1008.45,837.713 1008.45,1188.87 
  "/>
<polyline clip-path="url(#clip332)" style="stroke:#808080; stroke-linecap:butt; stroke-linejoin:round; stroke-width:4; stroke-opacity:0.5; fill:none" points="
  1029.46,837.713 1029.46,599.756 
  "/>
<polyline clip-path="url(#clip332)" style="stroke:#808080; stroke-linecap:butt; stroke-linejoin:round; stroke-width:4; stroke-opacity:0.5; fill:none" points="
  1050.48,837.713 1050.48,398.95 
  "/>
<polyline clip-path="url(#clip332)" style="stroke:#808080; stroke-linecap:butt; stroke-linejoin:round; stroke-width:4; stroke-opacity:0.5; fill:none" points="
  1071.49,837.713 1071.49,518.802 
  "/>
<polyline clip-path="url(#clip332)" style="stroke:#808080; stroke-linecap:butt; stroke-linejoin:round; stroke-width:4; stroke-opacity:0.5; fill:none" points="
  1092.51,837.713 1092.51,860.882 
  "/>
<polyline clip-path="url(#clip332)" style="stroke:#808080; stroke-linecap:butt; stroke-linejoin:round; stroke-width:4; stroke-opacity:0.5; fill:none" points="
  1113.52,837.713 1113.52,1367.74 
  "/>
<polyline clip-path="url(#clip332)" style="stroke:#808080; stroke-linecap:butt; stroke-linejoin:round; stroke-width:4; stroke-opacity:0.5; fill:none" points="
  1134.54,837.713 1134.54,1168.79 
  "/>
<polyline clip-path="url(#clip332)" style="stroke:#808080; stroke-linecap:butt; stroke-linejoin:round; stroke-width:4; stroke-opacity:0.5; fill:none" points="
  1155.55,837.713 1155.55,551.156 
  "/>
<polyline clip-path="url(#clip332)" style="stroke:#808080; stroke-linecap:butt; stroke-linejoin:round; stroke-width:4; stroke-opacity:0.5; fill:none" points="
  1176.57,837.713 1176.57,1329.81 
  "/>
<polyline clip-path="url(#clip332)" style="stroke:#808080; stroke-linecap:butt; stroke-linejoin:round; stroke-width:4; stroke-opacity:0.5; fill:none" points="
  1197.58,837.713 1197.58,587.13 
  "/>
<polyline clip-path="url(#clip332)" style="stroke:#808080; stroke-linecap:butt; stroke-linejoin:round; stroke-width:4; stroke-opacity:0.5; fill:none" points="
  1218.59,837.713 1218.59,1165.84 
  "/>
<polyline clip-path="url(#clip332)" style="stroke:#808080; stroke-linecap:butt; stroke-linejoin:round; stroke-width:4; stroke-opacity:0.5; fill:none" points="
  1239.61,837.713 1239.61,772.36 
  "/>
<polyline clip-path="url(#clip332)" style="stroke:#808080; stroke-linecap:butt; stroke-linejoin:round; stroke-width:4; stroke-opacity:0.5; fill:none" points="
  1260.62,837.713 1260.62,1113.42 
  "/>
<polyline clip-path="url(#clip332)" style="stroke:#808080; stroke-linecap:butt; stroke-linejoin:round; stroke-width:4; stroke-opacity:0.5; fill:none" points="
  1281.64,837.713 1281.64,1105.24 
  "/>
<polyline clip-path="url(#clip332)" style="stroke:#808080; stroke-linecap:butt; stroke-linejoin:round; stroke-width:4; stroke-opacity:0.5; fill:none" points="
  1302.65,837.713 1302.65,621.697 
  "/>
<polyline clip-path="url(#clip332)" style="stroke:#808080; stroke-linecap:butt; stroke-linejoin:round; stroke-width:4; stroke-opacity:0.5; fill:none" points="
  1323.67,837.713 1323.67,498.696 
  "/>
<polyline clip-path="url(#clip332)" style="stroke:#808080; stroke-linecap:butt; stroke-linejoin:round; stroke-width:4; stroke-opacity:0.5; fill:none" points="
  1344.68,837.713 1344.68,1012.03 
  "/>
<polyline clip-path="url(#clip332)" style="stroke:#808080; stroke-linecap:butt; stroke-linejoin:round; stroke-width:4; stroke-opacity:0.5; fill:none" points="
  1365.7,837.713 1365.7,656.376 
  "/>
<polyline clip-path="url(#clip332)" style="stroke:#808080; stroke-linecap:butt; stroke-linejoin:round; stroke-width:4; stroke-opacity:0.5; fill:none" points="
  1386.71,837.713 1386.71,775.232 
  "/>
<polyline clip-path="url(#clip332)" style="stroke:#808080; stroke-linecap:butt; stroke-linejoin:round; stroke-width:4; stroke-opacity:0.5; fill:none" points="
  1407.73,837.713 1407.73,293.232 
  "/>
<polyline clip-path="url(#clip332)" style="stroke:#808080; stroke-linecap:butt; stroke-linejoin:round; stroke-width:4; stroke-opacity:0.5; fill:none" points="
  1428.74,837.713 1428.74,609.637 
  "/>
<polyline clip-path="url(#clip332)" style="stroke:#808080; stroke-linecap:butt; stroke-linejoin:round; stroke-width:4; stroke-opacity:0.5; fill:none" points="
  1449.76,837.713 1449.76,646.526 
  "/>
<polyline clip-path="url(#clip332)" style="stroke:#808080; stroke-linecap:butt; stroke-linejoin:round; stroke-width:4; stroke-opacity:0.5; fill:none" points="
  1470.77,837.713 1470.77,614.035 
  "/>
<polyline clip-path="url(#clip332)" style="stroke:#808080; stroke-linecap:butt; stroke-linejoin:round; stroke-width:4; stroke-opacity:0.5; fill:none" points="
  1491.79,837.713 1491.79,811.351 
  "/>
<polyline clip-path="url(#clip332)" style="stroke:#808080; stroke-linecap:butt; stroke-linejoin:round; stroke-width:4; stroke-opacity:0.5; fill:none" points="
  1512.8,837.713 1512.8,1175.72 
  "/>
<polyline clip-path="url(#clip332)" style="stroke:#808080; stroke-linecap:butt; stroke-linejoin:round; stroke-width:4; stroke-opacity:0.5; fill:none" points="
  1533.81,837.713 1533.81,1436.73 
  "/>
<polyline clip-path="url(#clip332)" style="stroke:#808080; stroke-linecap:butt; stroke-linejoin:round; stroke-width:4; stroke-opacity:0.5; fill:none" points="
  1554.83,837.713 1554.83,709.248 
  "/>
<polyline clip-path="url(#clip332)" style="stroke:#808080; stroke-linecap:butt; stroke-linejoin:round; stroke-width:4; stroke-opacity:0.5; fill:none" points="
  1575.84,837.713 1575.84,438.452 
  "/>
<polyline clip-path="url(#clip332)" style="stroke:#808080; stroke-linecap:butt; stroke-linejoin:round; stroke-width:4; stroke-opacity:0.5; fill:none" points="
  1596.86,837.713 1596.86,603.48 
  "/>
<polyline clip-path="url(#clip332)" style="stroke:#808080; stroke-linecap:butt; stroke-linejoin:round; stroke-width:4; stroke-opacity:0.5; fill:none" points="
  1617.87,837.713 1617.87,292.196 
  "/>
<polyline clip-path="url(#clip332)" style="stroke:#808080; stroke-linecap:butt; stroke-linejoin:round; stroke-width:4; stroke-opacity:0.5; fill:none" points="
  1638.89,837.713 1638.89,637.628 
  "/>
<polyline clip-path="url(#clip332)" style="stroke:#808080; stroke-linecap:butt; stroke-linejoin:round; stroke-width:4; stroke-opacity:0.5; fill:none" points="
  1659.9,837.713 1659.9,898.549 
  "/>
<polyline clip-path="url(#clip332)" style="stroke:#808080; stroke-linecap:butt; stroke-linejoin:round; stroke-width:4; stroke-opacity:0.5; fill:none" points="
  1680.92,837.713 1680.92,1402.63 
  "/>
<polyline clip-path="url(#clip332)" style="stroke:#808080; stroke-linecap:butt; stroke-linejoin:round; stroke-width:4; stroke-opacity:0.5; fill:none" points="
  1701.93,837.713 1701.93,1311.43 
  "/>
<polyline clip-path="url(#clip332)" style="stroke:#808080; stroke-linecap:butt; stroke-linejoin:round; stroke-width:4; stroke-opacity:0.5; fill:none" points="
  1722.95,837.713 1722.95,1208.7 
  "/>
<polyline clip-path="url(#clip332)" style="stroke:#808080; stroke-linecap:butt; stroke-linejoin:round; stroke-width:4; stroke-opacity:0.5; fill:none" points="
  1743.96,837.713 1743.96,916.653 
  "/>
<polyline clip-path="url(#clip332)" style="stroke:#808080; stroke-linecap:butt; stroke-linejoin:round; stroke-width:4; stroke-opacity:0.5; fill:none" points="
  1764.98,837.713 1764.98,687.423 
  "/>
<polyline clip-path="url(#clip332)" style="stroke:#808080; stroke-linecap:butt; stroke-linejoin:round; stroke-width:4; stroke-opacity:0.5; fill:none" points="
  1785.99,837.713 1785.99,351.22 
  "/>
<polyline clip-path="url(#clip332)" style="stroke:#808080; stroke-linecap:butt; stroke-linejoin:round; stroke-width:4; stroke-opacity:0.5; fill:none" points="
  1807.01,837.713 1807.01,1053.2 
  "/>
<polyline clip-path="url(#clip332)" style="stroke:#808080; stroke-linecap:butt; stroke-linejoin:round; stroke-width:4; stroke-opacity:0.5; fill:none" points="
  1828.02,837.713 1828.02,832.618 
  "/>
<polyline clip-path="url(#clip332)" style="stroke:#808080; stroke-linecap:butt; stroke-linejoin:round; stroke-width:4; stroke-opacity:0.5; fill:none" points="
  1849.03,837.713 1849.03,1026.76 
  "/>
<polyline clip-path="url(#clip332)" style="stroke:#808080; stroke-linecap:butt; stroke-linejoin:round; stroke-width:4; stroke-opacity:0.5; fill:none" points="
  1870.05,837.713 1870.05,169.964 
  "/>
<polyline clip-path="url(#clip332)" style="stroke:#808080; stroke-linecap:butt; stroke-linejoin:round; stroke-width:4; stroke-opacity:0.5; fill:none" points="
  1891.06,837.713 1891.06,1099.41 
  "/>
<polyline clip-path="url(#clip332)" style="stroke:#808080; stroke-linecap:butt; stroke-linejoin:round; stroke-width:4; stroke-opacity:0.5; fill:none" points="
  1912.08,837.713 1912.08,828.978 
  "/>
<polyline clip-path="url(#clip332)" style="stroke:#808080; stroke-linecap:butt; stroke-linejoin:round; stroke-width:4; stroke-opacity:0.5; fill:none" points="
  1933.09,837.713 1933.09,669.468 
  "/>
<polyline clip-path="url(#clip332)" style="stroke:#808080; stroke-linecap:butt; stroke-linejoin:round; stroke-width:4; stroke-opacity:0.5; fill:none" points="
  1954.11,837.713 1954.11,1050.52 
  "/>
<polyline clip-path="url(#clip332)" style="stroke:#808080; stroke-linecap:butt; stroke-linejoin:round; stroke-width:4; stroke-opacity:0.5; fill:none" points="
  1975.12,837.713 1975.12,821.829 
  "/>
<polyline clip-path="url(#clip332)" style="stroke:#808080; stroke-linecap:butt; stroke-linejoin:round; stroke-width:4; stroke-opacity:0.5; fill:none" points="
  1996.14,837.713 1996.14,819.019 
  "/>
<polyline clip-path="url(#clip332)" style="stroke:#808080; stroke-linecap:butt; stroke-linejoin:round; stroke-width:4; stroke-opacity:0.5; fill:none" points="
  2017.15,837.713 2017.15,916.009 
  "/>
<polyline clip-path="url(#clip332)" style="stroke:#808080; stroke-linecap:butt; stroke-linejoin:round; stroke-width:4; stroke-opacity:0.5; fill:none" points="
  2038.17,837.713 2038.17,966.173 
  "/>
<polyline clip-path="url(#clip332)" style="stroke:#808080; stroke-linecap:butt; stroke-linejoin:round; stroke-width:4; stroke-opacity:0.5; fill:none" points="
  2059.18,837.713 2059.18,1198.78 
  "/>
<polyline clip-path="url(#clip332)" style="stroke:#808080; stroke-linecap:butt; stroke-linejoin:round; stroke-width:4; stroke-opacity:0.5; fill:none" points="
  2080.2,837.713 2080.2,838.979 
  "/>
<polyline clip-path="url(#clip332)" style="stroke:#808080; stroke-linecap:butt; stroke-linejoin:round; stroke-width:4; stroke-opacity:0.5; fill:none" points="
  2101.21,837.713 2101.21,1100.03 
  "/>
<polyline clip-path="url(#clip332)" style="stroke:#808080; stroke-linecap:butt; stroke-linejoin:round; stroke-width:4; stroke-opacity:0.5; fill:none" points="
  2122.23,837.713 2122.23,636.01 
  "/>
<polyline clip-path="url(#clip332)" style="stroke:#808080; stroke-linecap:butt; stroke-linejoin:round; stroke-width:4; stroke-opacity:0.5; fill:none" points="
  2143.24,837.713 2143.24,794.474 
  "/>
<polyline clip-path="url(#clip332)" style="stroke:#808080; stroke-linecap:butt; stroke-linejoin:round; stroke-width:4; stroke-opacity:0.5; fill:none" points="
  2164.25,837.713 2164.25,579.303 
  "/>
<polyline clip-path="url(#clip332)" style="stroke:#808080; stroke-linecap:butt; stroke-linejoin:round; stroke-width:4; stroke-opacity:0.5; fill:none" points="
  2185.27,837.713 2185.27,775.473 
  "/>
<polyline clip-path="url(#clip332)" style="stroke:#808080; stroke-linecap:butt; stroke-linejoin:round; stroke-width:4; stroke-opacity:0.5; fill:none" points="
  2206.28,837.713 2206.28,585.646 
  "/>
<polyline clip-path="url(#clip332)" style="stroke:#808080; stroke-linecap:butt; stroke-linejoin:round; stroke-width:4; stroke-opacity:0.5; fill:none" points="
  2227.3,837.713 2227.3,903.515 
  "/>
<polyline clip-path="url(#clip332)" style="stroke:#808080; stroke-linecap:butt; stroke-linejoin:round; stroke-width:4; stroke-opacity:0.5; fill:none" points="
  2248.31,837.713 2248.31,971.38 
  "/>
<polyline clip-path="url(#clip332)" style="stroke:#808080; stroke-linecap:butt; stroke-linejoin:round; stroke-width:4; stroke-opacity:0.5; fill:none" points="
  2269.33,837.713 2269.33,1011.06 
  "/>
<polyline clip-path="url(#clip332)" style="stroke:#808080; stroke-linecap:butt; stroke-linejoin:round; stroke-width:4; stroke-opacity:0.5; fill:none" points="
  2290.34,837.713 2290.34,1038.83 
  "/>
<polyline clip-path="url(#clip332)" style="stroke:#808080; stroke-linecap:butt; stroke-linejoin:round; stroke-width:0; stroke-opacity:0.5; fill:none" points="
  209.891,1145.03 230.906,884.43 251.921,872.882 272.935,886.708 293.95,597.41 314.965,740.102 335.979,827.052 356.994,674.043 378.009,828.431 399.023,1099.71 
  420.038,877.135 441.053,162.047 462.067,476.376 483.082,824.959 504.097,306.811 525.111,996.14 546.126,689.862 567.141,819.687 588.155,560.814 609.17,773.752 
  630.185,822.84 651.199,570.599 672.214,1129.9 693.229,612.519 714.243,733.287 735.258,182.353 756.272,888.694 777.287,939.902 798.302,947.009 819.316,953.325 
  840.331,582.014 861.346,443.965 882.36,880.981 903.375,1447.87 924.39,1108.31 945.404,368.317 966.419,507.414 987.434,684.777 1008.45,1188.87 1029.46,599.756 
  1050.48,398.95 1071.49,518.802 1092.51,860.882 1113.52,1367.74 1134.54,1168.79 1155.55,551.156 1176.57,1329.81 1197.58,587.13 1218.59,1165.84 1239.61,772.36 
  1260.62,1113.42 1281.64,1105.24 1302.65,621.697 1323.67,498.696 1344.68,1012.03 1365.7,656.376 1386.71,775.232 1407.73,293.232 1428.74,609.637 1449.76,646.526 
  1470.77,614.035 1491.79,811.351 1512.8,1175.72 1533.81,1436.73 1554.83,709.248 1575.84,438.452 1596.86,603.48 1617.87,292.196 1638.89,637.628 1659.9,898.549 
  1680.92,1402.63 1701.93,1311.43 1722.95,1208.7 1743.96,916.653 1764.98,687.423 1785.99,351.22 1807.01,1053.2 1828.02,832.618 1849.03,1026.76 1870.05,169.964 
  1891.06,1099.41 1912.08,828.978 1933.09,669.468 1954.11,1050.52 1975.12,821.829 1996.14,819.019 2017.15,916.009 2038.17,966.173 2059.18,1198.78 2080.2,838.979 
  2101.21,1100.03 2122.23,636.01 2143.24,794.474 2164.25,579.303 2185.27,775.473 2206.28,585.646 2227.3,903.515 2248.31,971.38 2269.33,1011.06 2290.34,1038.83 
  
  "/>
<circle clip-path="url(#clip332)" cx="209.891" cy="1145.03" r="14" fill="#808080" fill-rule="evenodd" fill-opacity="0.5" stroke="#000000" stroke-opacity="0.5" stroke-width="3.2"/>
<circle clip-path="url(#clip332)" cx="230.906" cy="884.43" r="14" fill="#808080" fill-rule="evenodd" fill-opacity="0.5" stroke="#000000" stroke-opacity="0.5" stroke-width="3.2"/>
<circle clip-path="url(#clip332)" cx="251.921" cy="872.882" r="14" fill="#808080" fill-rule="evenodd" fill-opacity="0.5" stroke="#000000" stroke-opacity="0.5" stroke-width="3.2"/>
<circle clip-path="url(#clip332)" cx="272.935" cy="886.708" r="14" fill="#808080" fill-rule="evenodd" fill-opacity="0.5" stroke="#000000" stroke-opacity="0.5" stroke-width="3.2"/>
<circle clip-path="url(#clip332)" cx="293.95" cy="597.41" r="14" fill="#808080" fill-rule="evenodd" fill-opacity="0.5" stroke="#000000" stroke-opacity="0.5" stroke-width="3.2"/>
<circle clip-path="url(#clip332)" cx="314.965" cy="740.102" r="14" fill="#808080" fill-rule="evenodd" fill-opacity="0.5" stroke="#000000" stroke-opacity="0.5" stroke-width="3.2"/>
<circle clip-path="url(#clip332)" cx="335.979" cy="827.052" r="14" fill="#808080" fill-rule="evenodd" fill-opacity="0.5" stroke="#000000" stroke-opacity="0.5" stroke-width="3.2"/>
<circle clip-path="url(#clip332)" cx="356.994" cy="674.043" r="14" fill="#808080" fill-rule="evenodd" fill-opacity="0.5" stroke="#000000" stroke-opacity="0.5" stroke-width="3.2"/>
<circle clip-path="url(#clip332)" cx="378.009" cy="828.431" r="14" fill="#808080" fill-rule="evenodd" fill-opacity="0.5" stroke="#000000" stroke-opacity="0.5" stroke-width="3.2"/>
<circle clip-path="url(#clip332)" cx="399.023" cy="1099.71" r="14" fill="#808080" fill-rule="evenodd" fill-opacity="0.5" stroke="#000000" stroke-opacity="0.5" stroke-width="3.2"/>
<circle clip-path="url(#clip332)" cx="420.038" cy="877.135" r="14" fill="#808080" fill-rule="evenodd" fill-opacity="0.5" stroke="#000000" stroke-opacity="0.5" stroke-width="3.2"/>
<circle clip-path="url(#clip332)" cx="441.053" cy="162.047" r="14" fill="#808080" fill-rule="evenodd" fill-opacity="0.5" stroke="#000000" stroke-opacity="0.5" stroke-width="3.2"/>
<circle clip-path="url(#clip332)" cx="462.067" cy="476.376" r="14" fill="#808080" fill-rule="evenodd" fill-opacity="0.5" stroke="#000000" stroke-opacity="0.5" stroke-width="3.2"/>
<circle clip-path="url(#clip332)" cx="483.082" cy="824.959" r="14" fill="#808080" fill-rule="evenodd" fill-opacity="0.5" stroke="#000000" stroke-opacity="0.5" stroke-width="3.2"/>
<circle clip-path="url(#clip332)" cx="504.097" cy="306.811" r="14" fill="#808080" fill-rule="evenodd" fill-opacity="0.5" stroke="#000000" stroke-opacity="0.5" stroke-width="3.2"/>
<circle clip-path="url(#clip332)" cx="525.111" cy="996.14" r="14" fill="#808080" fill-rule="evenodd" fill-opacity="0.5" stroke="#000000" stroke-opacity="0.5" stroke-width="3.2"/>
<circle clip-path="url(#clip332)" cx="546.126" cy="689.862" r="14" fill="#808080" fill-rule="evenodd" fill-opacity="0.5" stroke="#000000" stroke-opacity="0.5" stroke-width="3.2"/>
<circle clip-path="url(#clip332)" cx="567.141" cy="819.687" r="14" fill="#808080" fill-rule="evenodd" fill-opacity="0.5" stroke="#000000" stroke-opacity="0.5" stroke-width="3.2"/>
<circle clip-path="url(#clip332)" cx="588.155" cy="560.814" r="14" fill="#808080" fill-rule="evenodd" fill-opacity="0.5" stroke="#000000" stroke-opacity="0.5" stroke-width="3.2"/>
<circle clip-path="url(#clip332)" cx="609.17" cy="773.752" r="14" fill="#808080" fill-rule="evenodd" fill-opacity="0.5" stroke="#000000" stroke-opacity="0.5" stroke-width="3.2"/>
<circle clip-path="url(#clip332)" cx="630.185" cy="822.84" r="14" fill="#808080" fill-rule="evenodd" fill-opacity="0.5" stroke="#000000" stroke-opacity="0.5" stroke-width="3.2"/>
<circle clip-path="url(#clip332)" cx="651.199" cy="570.599" r="14" fill="#808080" fill-rule="evenodd" fill-opacity="0.5" stroke="#000000" stroke-opacity="0.5" stroke-width="3.2"/>
<circle clip-path="url(#clip332)" cx="672.214" cy="1129.9" r="14" fill="#808080" fill-rule="evenodd" fill-opacity="0.5" stroke="#000000" stroke-opacity="0.5" stroke-width="3.2"/>
<circle clip-path="url(#clip332)" cx="693.229" cy="612.519" r="14" fill="#808080" fill-rule="evenodd" fill-opacity="0.5" stroke="#000000" stroke-opacity="0.5" stroke-width="3.2"/>
<circle clip-path="url(#clip332)" cx="714.243" cy="733.287" r="14" fill="#808080" fill-rule="evenodd" fill-opacity="0.5" stroke="#000000" stroke-opacity="0.5" stroke-width="3.2"/>
<circle clip-path="url(#clip332)" cx="735.258" cy="182.353" r="14" fill="#808080" fill-rule="evenodd" fill-opacity="0.5" stroke="#000000" stroke-opacity="0.5" stroke-width="3.2"/>
<circle clip-path="url(#clip332)" cx="756.272" cy="888.694" r="14" fill="#808080" fill-rule="evenodd" fill-opacity="0.5" stroke="#000000" stroke-opacity="0.5" stroke-width="3.2"/>
<circle clip-path="url(#clip332)" cx="777.287" cy="939.902" r="14" fill="#808080" fill-rule="evenodd" fill-opacity="0.5" stroke="#000000" stroke-opacity="0.5" stroke-width="3.2"/>
<circle clip-path="url(#clip332)" cx="798.302" cy="947.009" r="14" fill="#808080" fill-rule="evenodd" fill-opacity="0.5" stroke="#000000" stroke-opacity="0.5" stroke-width="3.2"/>
<circle clip-path="url(#clip332)" cx="819.316" cy="953.325" r="14" fill="#808080" fill-rule="evenodd" fill-opacity="0.5" stroke="#000000" stroke-opacity="0.5" stroke-width="3.2"/>
<circle clip-path="url(#clip332)" cx="840.331" cy="582.014" r="14" fill="#808080" fill-rule="evenodd" fill-opacity="0.5" stroke="#000000" stroke-opacity="0.5" stroke-width="3.2"/>
<circle clip-path="url(#clip332)" cx="861.346" cy="443.965" r="14" fill="#808080" fill-rule="evenodd" fill-opacity="0.5" stroke="#000000" stroke-opacity="0.5" stroke-width="3.2"/>
<circle clip-path="url(#clip332)" cx="882.36" cy="880.981" r="14" fill="#808080" fill-rule="evenodd" fill-opacity="0.5" stroke="#000000" stroke-opacity="0.5" stroke-width="3.2"/>
<circle clip-path="url(#clip332)" cx="903.375" cy="1447.87" r="14" fill="#808080" fill-rule="evenodd" fill-opacity="0.5" stroke="#000000" stroke-opacity="0.5" stroke-width="3.2"/>
<circle clip-path="url(#clip332)" cx="924.39" cy="1108.31" r="14" fill="#808080" fill-rule="evenodd" fill-opacity="0.5" stroke="#000000" stroke-opacity="0.5" stroke-width="3.2"/>
<circle clip-path="url(#clip332)" cx="945.404" cy="368.317" r="14" fill="#808080" fill-rule="evenodd" fill-opacity="0.5" stroke="#000000" stroke-opacity="0.5" stroke-width="3.2"/>
<circle clip-path="url(#clip332)" cx="966.419" cy="507.414" r="14" fill="#808080" fill-rule="evenodd" fill-opacity="0.5" stroke="#000000" stroke-opacity="0.5" stroke-width="3.2"/>
<circle clip-path="url(#clip332)" cx="987.434" cy="684.777" r="14" fill="#808080" fill-rule="evenodd" fill-opacity="0.5" stroke="#000000" stroke-opacity="0.5" stroke-width="3.2"/>
<circle clip-path="url(#clip332)" cx="1008.45" cy="1188.87" r="14" fill="#808080" fill-rule="evenodd" fill-opacity="0.5" stroke="#000000" stroke-opacity="0.5" stroke-width="3.2"/>
<circle clip-path="url(#clip332)" cx="1029.46" cy="599.756" r="14" fill="#808080" fill-rule="evenodd" fill-opacity="0.5" stroke="#000000" stroke-opacity="0.5" stroke-width="3.2"/>
<circle clip-path="url(#clip332)" cx="1050.48" cy="398.95" r="14" fill="#808080" fill-rule="evenodd" fill-opacity="0.5" stroke="#000000" stroke-opacity="0.5" stroke-width="3.2"/>
<circle clip-path="url(#clip332)" cx="1071.49" cy="518.802" r="14" fill="#808080" fill-rule="evenodd" fill-opacity="0.5" stroke="#000000" stroke-opacity="0.5" stroke-width="3.2"/>
<circle clip-path="url(#clip332)" cx="1092.51" cy="860.882" r="14" fill="#808080" fill-rule="evenodd" fill-opacity="0.5" stroke="#000000" stroke-opacity="0.5" stroke-width="3.2"/>
<circle clip-path="url(#clip332)" cx="1113.52" cy="1367.74" r="14" fill="#808080" fill-rule="evenodd" fill-opacity="0.5" stroke="#000000" stroke-opacity="0.5" stroke-width="3.2"/>
<circle clip-path="url(#clip332)" cx="1134.54" cy="1168.79" r="14" fill="#808080" fill-rule="evenodd" fill-opacity="0.5" stroke="#000000" stroke-opacity="0.5" stroke-width="3.2"/>
<circle clip-path="url(#clip332)" cx="1155.55" cy="551.156" r="14" fill="#808080" fill-rule="evenodd" fill-opacity="0.5" stroke="#000000" stroke-opacity="0.5" stroke-width="3.2"/>
<circle clip-path="url(#clip332)" cx="1176.57" cy="1329.81" r="14" fill="#808080" fill-rule="evenodd" fill-opacity="0.5" stroke="#000000" stroke-opacity="0.5" stroke-width="3.2"/>
<circle clip-path="url(#clip332)" cx="1197.58" cy="587.13" r="14" fill="#808080" fill-rule="evenodd" fill-opacity="0.5" stroke="#000000" stroke-opacity="0.5" stroke-width="3.2"/>
<circle clip-path="url(#clip332)" cx="1218.59" cy="1165.84" r="14" fill="#808080" fill-rule="evenodd" fill-opacity="0.5" stroke="#000000" stroke-opacity="0.5" stroke-width="3.2"/>
<circle clip-path="url(#clip332)" cx="1239.61" cy="772.36" r="14" fill="#808080" fill-rule="evenodd" fill-opacity="0.5" stroke="#000000" stroke-opacity="0.5" stroke-width="3.2"/>
<circle clip-path="url(#clip332)" cx="1260.62" cy="1113.42" r="14" fill="#808080" fill-rule="evenodd" fill-opacity="0.5" stroke="#000000" stroke-opacity="0.5" stroke-width="3.2"/>
<circle clip-path="url(#clip332)" cx="1281.64" cy="1105.24" r="14" fill="#808080" fill-rule="evenodd" fill-opacity="0.5" stroke="#000000" stroke-opacity="0.5" stroke-width="3.2"/>
<circle clip-path="url(#clip332)" cx="1302.65" cy="621.697" r="14" fill="#808080" fill-rule="evenodd" fill-opacity="0.5" stroke="#000000" stroke-opacity="0.5" stroke-width="3.2"/>
<circle clip-path="url(#clip332)" cx="1323.67" cy="498.696" r="14" fill="#808080" fill-rule="evenodd" fill-opacity="0.5" stroke="#000000" stroke-opacity="0.5" stroke-width="3.2"/>
<circle clip-path="url(#clip332)" cx="1344.68" cy="1012.03" r="14" fill="#808080" fill-rule="evenodd" fill-opacity="0.5" stroke="#000000" stroke-opacity="0.5" stroke-width="3.2"/>
<circle clip-path="url(#clip332)" cx="1365.7" cy="656.376" r="14" fill="#808080" fill-rule="evenodd" fill-opacity="0.5" stroke="#000000" stroke-opacity="0.5" stroke-width="3.2"/>
<circle clip-path="url(#clip332)" cx="1386.71" cy="775.232" r="14" fill="#808080" fill-rule="evenodd" fill-opacity="0.5" stroke="#000000" stroke-opacity="0.5" stroke-width="3.2"/>
<circle clip-path="url(#clip332)" cx="1407.73" cy="293.232" r="14" fill="#808080" fill-rule="evenodd" fill-opacity="0.5" stroke="#000000" stroke-opacity="0.5" stroke-width="3.2"/>
<circle clip-path="url(#clip332)" cx="1428.74" cy="609.637" r="14" fill="#808080" fill-rule="evenodd" fill-opacity="0.5" stroke="#000000" stroke-opacity="0.5" stroke-width="3.2"/>
<circle clip-path="url(#clip332)" cx="1449.76" cy="646.526" r="14" fill="#808080" fill-rule="evenodd" fill-opacity="0.5" stroke="#000000" stroke-opacity="0.5" stroke-width="3.2"/>
<circle clip-path="url(#clip332)" cx="1470.77" cy="614.035" r="14" fill="#808080" fill-rule="evenodd" fill-opacity="0.5" stroke="#000000" stroke-opacity="0.5" stroke-width="3.2"/>
<circle clip-path="url(#clip332)" cx="1491.79" cy="811.351" r="14" fill="#808080" fill-rule="evenodd" fill-opacity="0.5" stroke="#000000" stroke-opacity="0.5" stroke-width="3.2"/>
<circle clip-path="url(#clip332)" cx="1512.8" cy="1175.72" r="14" fill="#808080" fill-rule="evenodd" fill-opacity="0.5" stroke="#000000" stroke-opacity="0.5" stroke-width="3.2"/>
<circle clip-path="url(#clip332)" cx="1533.81" cy="1436.73" r="14" fill="#808080" fill-rule="evenodd" fill-opacity="0.5" stroke="#000000" stroke-opacity="0.5" stroke-width="3.2"/>
<circle clip-path="url(#clip332)" cx="1554.83" cy="709.248" r="14" fill="#808080" fill-rule="evenodd" fill-opacity="0.5" stroke="#000000" stroke-opacity="0.5" stroke-width="3.2"/>
<circle clip-path="url(#clip332)" cx="1575.84" cy="438.452" r="14" fill="#808080" fill-rule="evenodd" fill-opacity="0.5" stroke="#000000" stroke-opacity="0.5" stroke-width="3.2"/>
<circle clip-path="url(#clip332)" cx="1596.86" cy="603.48" r="14" fill="#808080" fill-rule="evenodd" fill-opacity="0.5" stroke="#000000" stroke-opacity="0.5" stroke-width="3.2"/>
<circle clip-path="url(#clip332)" cx="1617.87" cy="292.196" r="14" fill="#808080" fill-rule="evenodd" fill-opacity="0.5" stroke="#000000" stroke-opacity="0.5" stroke-width="3.2"/>
<circle clip-path="url(#clip332)" cx="1638.89" cy="637.628" r="14" fill="#808080" fill-rule="evenodd" fill-opacity="0.5" stroke="#000000" stroke-opacity="0.5" stroke-width="3.2"/>
<circle clip-path="url(#clip332)" cx="1659.9" cy="898.549" r="14" fill="#808080" fill-rule="evenodd" fill-opacity="0.5" stroke="#000000" stroke-opacity="0.5" stroke-width="3.2"/>
<circle clip-path="url(#clip332)" cx="1680.92" cy="1402.63" r="14" fill="#808080" fill-rule="evenodd" fill-opacity="0.5" stroke="#000000" stroke-opacity="0.5" stroke-width="3.2"/>
<circle clip-path="url(#clip332)" cx="1701.93" cy="1311.43" r="14" fill="#808080" fill-rule="evenodd" fill-opacity="0.5" stroke="#000000" stroke-opacity="0.5" stroke-width="3.2"/>
<circle clip-path="url(#clip332)" cx="1722.95" cy="1208.7" r="14" fill="#808080" fill-rule="evenodd" fill-opacity="0.5" stroke="#000000" stroke-opacity="0.5" stroke-width="3.2"/>
<circle clip-path="url(#clip332)" cx="1743.96" cy="916.653" r="14" fill="#808080" fill-rule="evenodd" fill-opacity="0.5" stroke="#000000" stroke-opacity="0.5" stroke-width="3.2"/>
<circle clip-path="url(#clip332)" cx="1764.98" cy="687.423" r="14" fill="#808080" fill-rule="evenodd" fill-opacity="0.5" stroke="#000000" stroke-opacity="0.5" stroke-width="3.2"/>
<circle clip-path="url(#clip332)" cx="1785.99" cy="351.22" r="14" fill="#808080" fill-rule="evenodd" fill-opacity="0.5" stroke="#000000" stroke-opacity="0.5" stroke-width="3.2"/>
<circle clip-path="url(#clip332)" cx="1807.01" cy="1053.2" r="14" fill="#808080" fill-rule="evenodd" fill-opacity="0.5" stroke="#000000" stroke-opacity="0.5" stroke-width="3.2"/>
<circle clip-path="url(#clip332)" cx="1828.02" cy="832.618" r="14" fill="#808080" fill-rule="evenodd" fill-opacity="0.5" stroke="#000000" stroke-opacity="0.5" stroke-width="3.2"/>
<circle clip-path="url(#clip332)" cx="1849.03" cy="1026.76" r="14" fill="#808080" fill-rule="evenodd" fill-opacity="0.5" stroke="#000000" stroke-opacity="0.5" stroke-width="3.2"/>
<circle clip-path="url(#clip332)" cx="1870.05" cy="169.964" r="14" fill="#808080" fill-rule="evenodd" fill-opacity="0.5" stroke="#000000" stroke-opacity="0.5" stroke-width="3.2"/>
<circle clip-path="url(#clip332)" cx="1891.06" cy="1099.41" r="14" fill="#808080" fill-rule="evenodd" fill-opacity="0.5" stroke="#000000" stroke-opacity="0.5" stroke-width="3.2"/>
<circle clip-path="url(#clip332)" cx="1912.08" cy="828.978" r="14" fill="#808080" fill-rule="evenodd" fill-opacity="0.5" stroke="#000000" stroke-opacity="0.5" stroke-width="3.2"/>
<circle clip-path="url(#clip332)" cx="1933.09" cy="669.468" r="14" fill="#808080" fill-rule="evenodd" fill-opacity="0.5" stroke="#000000" stroke-opacity="0.5" stroke-width="3.2"/>
<circle clip-path="url(#clip332)" cx="1954.11" cy="1050.52" r="14" fill="#808080" fill-rule="evenodd" fill-opacity="0.5" stroke="#000000" stroke-opacity="0.5" stroke-width="3.2"/>
<circle clip-path="url(#clip332)" cx="1975.12" cy="821.829" r="14" fill="#808080" fill-rule="evenodd" fill-opacity="0.5" stroke="#000000" stroke-opacity="0.5" stroke-width="3.2"/>
<circle clip-path="url(#clip332)" cx="1996.14" cy="819.019" r="14" fill="#808080" fill-rule="evenodd" fill-opacity="0.5" stroke="#000000" stroke-opacity="0.5" stroke-width="3.2"/>
<circle clip-path="url(#clip332)" cx="2017.15" cy="916.009" r="14" fill="#808080" fill-rule="evenodd" fill-opacity="0.5" stroke="#000000" stroke-opacity="0.5" stroke-width="3.2"/>
<circle clip-path="url(#clip332)" cx="2038.17" cy="966.173" r="14" fill="#808080" fill-rule="evenodd" fill-opacity="0.5" stroke="#000000" stroke-opacity="0.5" stroke-width="3.2"/>
<circle clip-path="url(#clip332)" cx="2059.18" cy="1198.78" r="14" fill="#808080" fill-rule="evenodd" fill-opacity="0.5" stroke="#000000" stroke-opacity="0.5" stroke-width="3.2"/>
<circle clip-path="url(#clip332)" cx="2080.2" cy="838.979" r="14" fill="#808080" fill-rule="evenodd" fill-opacity="0.5" stroke="#000000" stroke-opacity="0.5" stroke-width="3.2"/>
<circle clip-path="url(#clip332)" cx="2101.21" cy="1100.03" r="14" fill="#808080" fill-rule="evenodd" fill-opacity="0.5" stroke="#000000" stroke-opacity="0.5" stroke-width="3.2"/>
<circle clip-path="url(#clip332)" cx="2122.23" cy="636.01" r="14" fill="#808080" fill-rule="evenodd" fill-opacity="0.5" stroke="#000000" stroke-opacity="0.5" stroke-width="3.2"/>
<circle clip-path="url(#clip332)" cx="2143.24" cy="794.474" r="14" fill="#808080" fill-rule="evenodd" fill-opacity="0.5" stroke="#000000" stroke-opacity="0.5" stroke-width="3.2"/>
<circle clip-path="url(#clip332)" cx="2164.25" cy="579.303" r="14" fill="#808080" fill-rule="evenodd" fill-opacity="0.5" stroke="#000000" stroke-opacity="0.5" stroke-width="3.2"/>
<circle clip-path="url(#clip332)" cx="2185.27" cy="775.473" r="14" fill="#808080" fill-rule="evenodd" fill-opacity="0.5" stroke="#000000" stroke-opacity="0.5" stroke-width="3.2"/>
<circle clip-path="url(#clip332)" cx="2206.28" cy="585.646" r="14" fill="#808080" fill-rule="evenodd" fill-opacity="0.5" stroke="#000000" stroke-opacity="0.5" stroke-width="3.2"/>
<circle clip-path="url(#clip332)" cx="2227.3" cy="903.515" r="14" fill="#808080" fill-rule="evenodd" fill-opacity="0.5" stroke="#000000" stroke-opacity="0.5" stroke-width="3.2"/>
<circle clip-path="url(#clip332)" cx="2248.31" cy="971.38" r="14" fill="#808080" fill-rule="evenodd" fill-opacity="0.5" stroke="#000000" stroke-opacity="0.5" stroke-width="3.2"/>
<circle clip-path="url(#clip332)" cx="2269.33" cy="1011.06" r="14" fill="#808080" fill-rule="evenodd" fill-opacity="0.5" stroke="#000000" stroke-opacity="0.5" stroke-width="3.2"/>
<circle clip-path="url(#clip332)" cx="2290.34" cy="1038.83" r="14" fill="#808080" fill-rule="evenodd" fill-opacity="0.5" stroke="#000000" stroke-opacity="0.5" stroke-width="3.2"/>
<polyline clip-path="url(#clip332)" style="stroke:#000000; stroke-linecap:butt; stroke-linejoin:round; stroke-width:6; stroke-opacity:1; fill:none" stroke-dasharray="24, 15" points="
  -2057.8,837.713 4558.03,837.713 
  "/>
<polyline clip-path="url(#clip332)" style="stroke:#008000; stroke-linecap:butt; stroke-linejoin:round; stroke-width:12; stroke-opacity:0.6; fill:none" points="
  209.891,1145.03 230.906,1014.73 251.921,967.446 272.935,947.261 293.95,877.291 314.965,854.426 335.979,850.516 356.994,828.457 378.009,828.454 399.023,855.579 
  420.038,857.539 441.053,799.581 462.067,774.719 483.082,778.308 504.097,746.875 525.111,762.454 546.126,758.184 567.141,761.601 588.155,751.033 609.17,752.169 
  630.185,755.534 651.199,747.128 672.214,763.77 693.229,757.468 714.243,756.501 735.258,734.418 756.272,740.132 777.287,747.267 798.302,754.155 819.316,760.794 
  840.331,755.026 861.346,745.306 882.36,749.417 903.375,769.96 924.39,779.627 945.404,768.202 966.419,761.153 987.434,759.144 1008.45,770.162 1029.46,765.902 
  1050.48,756.952 1071.49,751.282 1092.51,753.831 1113.52,767.783 1134.54,776.695 1155.55,771.792 1176.57,783.664 1197.58,779.57 1218.59,787.453 1239.61,787.151 
  1260.62,793.548 1281.64,799.542 1302.65,796.187 1323.67,790.678 1344.68,794.702 1365.7,792.232 1386.71,791.934 1407.73,783.336 1428.74,780.392 1449.76,778.161 
  1470.77,775.47 1491.79,776.049 1512.8,782.393 1533.81,792.617 1554.83,791.334 1575.84,785.987 1596.86,783.263 1617.87,776.042 1638.89,774.036 1659.9,775.815 
  1680.92,784.643 1701.93,791.959 1722.95,797.668 1743.96,799.276 1764.98,797.785 1785.99,791.909 1807.01,795.302 1828.02,795.781 1849.03,798.704 1870.05,790.845 
  1891.06,794.655 1912.08,795.073 1933.09,793.56 1954.11,796.619 1975.12,796.915 1996.14,797.172 2017.15,798.538 2038.17,800.443 2059.18,804.919 2080.2,805.298 
  2101.21,808.536 2122.23,806.661 2143.24,806.53 2164.25,804.113 2185.27,803.811 2206.28,801.539 2227.3,802.59 2248.31,804.312 2269.33,806.401 2290.34,808.725 
  
  "/>
<path clip-path="url(#clip330)" d="
M1714.1 324.425 L2279.25 324.425 L2279.25 168.905 L1714.1 168.905  Z
  " fill="#ffffff" fill-rule="evenodd" fill-opacity="1"/>
<polyline clip-path="url(#clip330)" style="stroke:#000000; stroke-linecap:butt; stroke-linejoin:round; stroke-width:4; stroke-opacity:1; fill:none" points="
  1714.1,324.425 2279.25,324.425 2279.25,168.905 1714.1,168.905 1714.1,324.425 
  "/>
<polyline clip-path="url(#clip330)" style="stroke:#000000; stroke-linecap:butt; stroke-linejoin:round; stroke-width:4; stroke-opacity:1; fill:none" stroke-dasharray="16, 10" points="
  1738.6,220.745 1885.62,220.745 
  "/>
<path clip-path="url(#clip330)" d="M1910.13 202.006 L1919.94 202.006 L1919.94 205.316 L1914.39 205.316 L1914.39 240.964 L1919.94 240.964 L1919.94 244.275 L1910.13 244.275 L1910.13 202.006 Z" fill="#000000" fill-rule="evenodd" fill-opacity="1" /><path clip-path="url(#clip330)" d="M1933.04 203.465 L1933.04 216.312 L1929.11 216.312 L1929.11 203.465 L1933.04 203.465 M1941.79 203.465 L1941.79 216.312 L1937.86 216.312 L1937.86 203.465 L1941.79 203.465 Z" fill="#000000" fill-rule="evenodd" fill-opacity="1" /><path clip-path="url(#clip330)" d="M1951.01 203.465 L1957.97 203.465 L1966.79 226.983 L1975.66 203.465 L1982.63 203.465 L1982.63 238.025 L1978.07 238.025 L1978.07 207.678 L1969.15 231.381 L1964.45 231.381 L1955.54 207.678 L1955.54 238.025 L1951.01 238.025 L1951.01 203.465 Z" fill="#000000" fill-rule="evenodd" fill-opacity="1" /><path clip-path="url(#clip330)" d="M2013.9 223.997 L2013.9 226.08 L1994.32 226.08 Q1994.59 230.478 1996.95 232.793 Q1999.34 235.085 2003.58 235.085 Q2006.03 235.085 2008.32 234.483 Q2010.64 233.881 2012.9 232.677 L2012.9 236.705 Q2010.61 237.677 2008.2 238.187 Q2005.8 238.696 2003.32 238.696 Q1997.12 238.696 1993.48 235.085 Q1989.87 231.474 1989.87 225.316 Q1989.87 218.951 1993.3 215.224 Q1996.75 211.474 2002.58 211.474 Q2007.81 211.474 2010.84 214.853 Q2013.9 218.21 2013.9 223.997 M2009.64 222.747 Q2009.59 219.252 2007.67 217.168 Q2005.77 215.085 2002.63 215.085 Q1999.06 215.085 1996.91 217.099 Q1994.78 219.113 1994.45 222.77 L2009.64 222.747 Z" fill="#000000" fill-rule="evenodd" fill-opacity="1" /><path clip-path="url(#clip330)" d="M2032.67 224.992 Q2027.51 224.992 2025.52 226.173 Q2023.53 227.353 2023.53 230.201 Q2023.53 232.469 2025.01 233.812 Q2026.51 235.131 2029.08 235.131 Q2032.63 235.131 2034.76 232.631 Q2036.91 230.108 2036.91 225.941 L2036.91 224.992 L2032.67 224.992 M2041.17 223.233 L2041.17 238.025 L2036.91 238.025 L2036.91 234.089 Q2035.45 236.451 2033.27 237.585 Q2031.1 238.696 2027.95 238.696 Q2023.97 238.696 2021.61 236.474 Q2019.27 234.228 2019.27 230.478 Q2019.27 226.103 2022.19 223.881 Q2025.13 221.659 2030.94 221.659 L2036.91 221.659 L2036.91 221.242 Q2036.91 218.303 2034.96 216.705 Q2033.04 215.085 2029.55 215.085 Q2027.32 215.085 2025.22 215.617 Q2023.11 216.15 2021.17 217.215 L2021.17 213.279 Q2023.51 212.377 2025.7 211.937 Q2027.9 211.474 2029.99 211.474 Q2035.61 211.474 2038.39 214.391 Q2041.17 217.307 2041.17 223.233 Z" fill="#000000" fill-rule="evenodd" fill-opacity="1" /><path clip-path="url(#clip330)" d="M2071.49 222.377 L2071.49 238.025 L2067.23 238.025 L2067.23 222.515 Q2067.23 218.835 2065.8 217.006 Q2064.36 215.178 2061.49 215.178 Q2058.04 215.178 2056.05 217.377 Q2054.06 219.576 2054.06 223.372 L2054.06 238.025 L2049.78 238.025 L2049.78 212.099 L2054.06 212.099 L2054.06 216.127 Q2055.59 213.789 2057.65 212.631 Q2059.73 211.474 2062.44 211.474 Q2066.91 211.474 2069.2 214.252 Q2071.49 217.006 2071.49 222.377 Z" fill="#000000" fill-rule="evenodd" fill-opacity="1" /><path clip-path="url(#clip330)" d="M2084.01 203.465 L2084.01 216.312 L2080.08 216.312 L2080.08 203.465 L2084.01 203.465 M2092.76 203.465 L2092.76 216.312 L2088.83 216.312 L2088.83 203.465 L2092.76 203.465 Z" fill="#000000" fill-rule="evenodd" fill-opacity="1" /><path clip-path="url(#clip330)" d="M2111.75 202.006 L2111.75 244.275 L2101.93 244.275 L2101.93 240.964 L2107.46 240.964 L2107.46 205.316 L2101.93 205.316 L2101.93 202.006 L2111.75 202.006 Z" fill="#000000" fill-rule="evenodd" fill-opacity="1" /><polyline clip-path="url(#clip330)" style="stroke:#008000; stroke-linecap:butt; stroke-linejoin:round; stroke-width:4; stroke-opacity:0.6; fill:none" points="
  1738.6,272.585 1885.62,272.585 
  "/>
<path clip-path="url(#clip330)" d="M1932.37 256.439 L1932.37 260.999 Q1929.71 259.726 1927.35 259.101 Q1924.99 258.476 1922.79 258.476 Q1918.97 258.476 1916.89 259.957 Q1914.83 261.439 1914.83 264.17 Q1914.83 266.462 1916.19 267.643 Q1917.58 268.8 1921.42 269.518 L1924.25 270.096 Q1929.48 271.092 1931.96 273.615 Q1934.46 276.115 1934.46 280.328 Q1934.46 285.351 1931.08 287.943 Q1927.72 290.536 1921.21 290.536 Q1918.76 290.536 1915.98 289.98 Q1913.23 289.425 1910.27 288.337 L1910.27 283.522 Q1913.11 285.119 1915.84 285.929 Q1918.58 286.74 1921.21 286.74 Q1925.22 286.74 1927.39 285.166 Q1929.57 283.592 1929.57 280.675 Q1929.57 278.129 1928 276.693 Q1926.45 275.258 1922.88 274.541 L1920.03 273.985 Q1914.8 272.943 1912.46 270.721 Q1910.13 268.499 1910.13 264.541 Q1910.13 259.957 1913.34 257.319 Q1916.58 254.68 1922.26 254.68 Q1924.69 254.68 1927.21 255.119 Q1929.73 255.559 1932.37 256.439 Z" fill="#000000" fill-rule="evenodd" fill-opacity="1" /><path clip-path="url(#clip330)" d="M1953.34 276.832 Q1948.18 276.832 1946.19 278.013 Q1944.2 279.193 1944.2 282.041 Q1944.2 284.309 1945.68 285.652 Q1947.19 286.971 1949.76 286.971 Q1953.3 286.971 1955.43 284.471 Q1957.58 281.948 1957.58 277.781 L1957.58 276.832 L1953.34 276.832 M1961.84 275.073 L1961.84 289.865 L1957.58 289.865 L1957.58 285.929 Q1956.12 288.291 1953.95 289.425 Q1951.77 290.536 1948.62 290.536 Q1944.64 290.536 1942.28 288.314 Q1939.94 286.068 1939.94 282.318 Q1939.94 277.943 1942.86 275.721 Q1945.8 273.499 1951.61 273.499 L1957.58 273.499 L1957.58 273.082 Q1957.58 270.143 1955.64 268.545 Q1953.71 266.925 1950.22 266.925 Q1948 266.925 1945.89 267.457 Q1943.78 267.99 1941.84 269.055 L1941.84 265.119 Q1944.18 264.217 1946.38 263.777 Q1948.58 263.314 1950.66 263.314 Q1956.28 263.314 1959.06 266.231 Q1961.84 269.147 1961.84 275.073 Z" fill="#000000" fill-rule="evenodd" fill-opacity="1" /><path clip-path="url(#clip330)" d="M1990.8 268.916 Q1992.39 266.045 1994.62 264.68 Q1996.84 263.314 1999.85 263.314 Q2003.9 263.314 2006.1 266.161 Q2008.3 268.985 2008.3 274.217 L2008.3 289.865 L2004.01 289.865 L2004.01 274.355 Q2004.01 270.629 2002.7 268.823 Q2001.38 267.018 1998.67 267.018 Q1995.36 267.018 1993.44 269.217 Q1991.51 271.416 1991.51 275.212 L1991.51 289.865 L1987.23 289.865 L1987.23 274.355 Q1987.23 270.605 1985.91 268.823 Q1984.59 267.018 1981.84 267.018 Q1978.58 267.018 1976.65 269.24 Q1974.73 271.439 1974.73 275.212 L1974.73 289.865 L1970.45 289.865 L1970.45 263.939 L1974.73 263.939 L1974.73 267.967 Q1976.19 265.582 1978.23 264.448 Q1980.26 263.314 1983.07 263.314 Q1985.89 263.314 1987.86 264.749 Q1989.85 266.184 1990.8 268.916 Z" fill="#000000" fill-rule="evenodd" fill-opacity="1" /><path clip-path="url(#clip330)" d="M2020.91 285.976 L2020.91 299.726 L2016.63 299.726 L2016.63 263.939 L2020.91 263.939 L2020.91 267.874 Q2022.26 265.559 2024.29 264.448 Q2026.35 263.314 2029.2 263.314 Q2033.92 263.314 2036.86 267.064 Q2039.82 270.814 2039.82 276.925 Q2039.82 283.036 2036.86 286.786 Q2033.92 290.536 2029.2 290.536 Q2026.35 290.536 2024.29 289.425 Q2022.26 288.291 2020.91 285.976 M2035.4 276.925 Q2035.4 272.226 2033.46 269.564 Q2031.54 266.879 2028.16 266.879 Q2024.78 266.879 2022.83 269.564 Q2020.91 272.226 2020.91 276.925 Q2020.91 281.624 2022.83 284.309 Q2024.78 286.971 2028.16 286.971 Q2031.54 286.971 2033.46 284.309 Q2035.4 281.624 2035.4 276.925 Z" fill="#000000" fill-rule="evenodd" fill-opacity="1" /><path clip-path="url(#clip330)" d="M2046.88 253.846 L2051.14 253.846 L2051.14 289.865 L2046.88 289.865 L2046.88 253.846 Z" fill="#000000" fill-rule="evenodd" fill-opacity="1" /><path clip-path="url(#clip330)" d="M2082.23 275.837 L2082.23 277.92 L2062.65 277.92 Q2062.93 282.318 2065.29 284.633 Q2067.67 286.925 2071.91 286.925 Q2074.36 286.925 2076.65 286.323 Q2078.97 285.721 2081.24 284.517 L2081.24 288.545 Q2078.94 289.517 2076.54 290.027 Q2074.13 290.536 2071.65 290.536 Q2065.45 290.536 2061.82 286.925 Q2058.2 283.314 2058.2 277.156 Q2058.2 270.791 2061.63 267.064 Q2065.08 263.314 2070.91 263.314 Q2076.14 263.314 2079.18 266.693 Q2082.23 270.05 2082.23 275.837 M2077.97 274.587 Q2077.93 271.092 2076.01 269.008 Q2074.11 266.925 2070.96 266.925 Q2067.39 266.925 2065.24 268.939 Q2063.11 270.953 2062.79 274.61 L2077.97 274.587 Z" fill="#000000" fill-rule="evenodd" fill-opacity="1" /><path clip-path="url(#clip330)" d="M2124.48 268.916 Q2126.07 266.045 2128.3 264.68 Q2130.52 263.314 2133.53 263.314 Q2137.58 263.314 2139.78 266.161 Q2141.98 268.985 2141.98 274.217 L2141.98 289.865 L2137.69 289.865 L2137.69 274.355 Q2137.69 270.629 2136.38 268.823 Q2135.06 267.018 2132.35 267.018 Q2129.04 267.018 2127.12 269.217 Q2125.19 271.416 2125.19 275.212 L2125.19 289.865 L2120.91 289.865 L2120.91 274.355 Q2120.91 270.605 2119.59 268.823 Q2118.27 267.018 2115.52 267.018 Q2112.25 267.018 2110.33 269.24 Q2108.41 271.439 2108.41 275.212 L2108.41 289.865 L2104.13 289.865 L2104.13 263.939 L2108.41 263.939 L2108.41 267.967 Q2109.87 265.582 2111.91 264.448 Q2113.94 263.314 2116.75 263.314 Q2119.57 263.314 2121.54 264.749 Q2123.53 266.184 2124.48 268.916 Z" fill="#000000" fill-rule="evenodd" fill-opacity="1" /><path clip-path="url(#clip330)" d="M2172.65 275.837 L2172.65 277.92 L2153.06 277.92 Q2153.34 282.318 2155.7 284.633 Q2158.09 286.925 2162.32 286.925 Q2164.78 286.925 2167.07 286.323 Q2169.38 285.721 2171.65 284.517 L2171.65 288.545 Q2169.36 289.517 2166.95 290.027 Q2164.55 290.536 2162.07 290.536 Q2155.87 290.536 2152.23 286.925 Q2148.62 283.314 2148.62 277.156 Q2148.62 270.791 2152.05 267.064 Q2155.5 263.314 2161.33 263.314 Q2166.56 263.314 2169.59 266.693 Q2172.65 270.05 2172.65 275.837 M2168.39 274.587 Q2168.34 271.092 2166.42 269.008 Q2164.52 266.925 2161.38 266.925 Q2157.81 266.925 2155.66 268.939 Q2153.53 270.953 2153.2 274.61 L2168.39 274.587 Z" fill="#000000" fill-rule="evenodd" fill-opacity="1" /><path clip-path="url(#clip330)" d="M2191.42 276.832 Q2186.26 276.832 2184.27 278.013 Q2182.28 279.193 2182.28 282.041 Q2182.28 284.309 2183.76 285.652 Q2185.26 286.971 2187.83 286.971 Q2191.37 286.971 2193.5 284.471 Q2195.66 281.948 2195.66 277.781 L2195.66 276.832 L2191.42 276.832 M2199.92 275.073 L2199.92 289.865 L2195.66 289.865 L2195.66 285.929 Q2194.2 288.291 2192.02 289.425 Q2189.85 290.536 2186.7 290.536 Q2182.72 290.536 2180.36 288.314 Q2178.02 286.068 2178.02 282.318 Q2178.02 277.943 2180.94 275.721 Q2183.87 273.499 2189.69 273.499 L2195.66 273.499 L2195.66 273.082 Q2195.66 270.143 2193.71 268.545 Q2191.79 266.925 2188.3 266.925 Q2186.07 266.925 2183.97 267.457 Q2181.86 267.99 2179.92 269.055 L2179.92 265.119 Q2182.25 264.217 2184.45 263.777 Q2186.65 263.314 2188.74 263.314 Q2194.36 263.314 2197.14 266.231 Q2199.92 269.147 2199.92 275.073 Z" fill="#000000" fill-rule="evenodd" fill-opacity="1" /><path clip-path="url(#clip330)" d="M2230.24 274.217 L2230.24 289.865 L2225.98 289.865 L2225.98 274.355 Q2225.98 270.675 2224.55 268.846 Q2223.11 267.018 2220.24 267.018 Q2216.79 267.018 2214.8 269.217 Q2212.81 271.416 2212.81 275.212 L2212.81 289.865 L2208.53 289.865 L2208.53 263.939 L2212.81 263.939 L2212.81 267.967 Q2214.34 265.629 2216.4 264.471 Q2218.48 263.314 2221.19 263.314 Q2225.66 263.314 2227.95 266.092 Q2230.24 268.846 2230.24 274.217 Z" fill="#000000" fill-rule="evenodd" fill-opacity="1" /></svg>
