<?xml version="1.0" encoding="utf-8"?>
<svg xmlns="http://www.w3.org/2000/svg" xmlns:xlink="http://www.w3.org/1999/xlink" width="600" height="400" viewBox="0 0 2400 1600">
<defs>
  <clipPath id="clip840">
    <rect x="0" y="0" width="2400" height="1600"/>
  </clipPath>
</defs>
<path clip-path="url(#clip840)" d="
M0 1600 L2400 1600 L2400 0 L0 0  Z
  " fill="#ffffff" fill-rule="evenodd" fill-opacity="1"/>
<defs>
  <clipPath id="clip841">
    <rect x="480" y="0" width="1681" height="1600"/>
  </clipPath>
</defs>
<path clip-path="url(#clip840)" d="
M147.478 1486.45 L2352.76 1486.45 L2352.76 123.472 L147.478 123.472  Z
  " fill="#ffffff" fill-rule="evenodd" fill-opacity="1"/>
<defs>
  <clipPath id="clip842">
    <rect x="147" y="123" width="2206" height="1364"/>
  </clipPath>
</defs>
<polyline clip-path="url(#clip840)" style="stroke:#000000; stroke-linecap:round; stroke-linejoin:round; stroke-width:4; stroke-opacity:1; fill:none" points="
  147.478,1486.45 2352.76,1486.45 
  "/>
<polyline clip-path="url(#clip840)" style="stroke:#000000; stroke-linecap:round; stroke-linejoin:round; stroke-width:4; stroke-opacity:1; fill:none" points="
  188.877,1486.45 188.877,1467.55 
  "/>
<polyline clip-path="url(#clip840)" style="stroke:#000000; stroke-linecap:round; stroke-linejoin:round; stroke-width:4; stroke-opacity:1; fill:none" points="
  714.243,1486.45 714.243,1467.55 
  "/>
<polyline clip-path="url(#clip840)" style="stroke:#000000; stroke-linecap:round; stroke-linejoin:round; stroke-width:4; stroke-opacity:1; fill:none" points="
  1239.61,1486.45 1239.61,1467.55 
  "/>
<polyline clip-path="url(#clip840)" style="stroke:#000000; stroke-linecap:round; stroke-linejoin:round; stroke-width:4; stroke-opacity:1; fill:none" points="
  1764.98,1486.45 1764.98,1467.55 
  "/>
<polyline clip-path="url(#clip840)" style="stroke:#000000; stroke-linecap:round; stroke-linejoin:round; stroke-width:4; stroke-opacity:1; fill:none" points="
  2290.34,1486.45 2290.34,1467.55 
  "/>
<path clip-path="url(#clip840)" d="M188.877 1517.37 Q185.266 1517.37 183.437 1520.93 Q181.631 1524.47 181.631 1531.6 Q181.631 1538.71 183.437 1542.27 Q185.266 1545.82 188.877 1545.82 Q192.511 1545.82 194.317 1542.27 Q196.145 1538.71 196.145 1531.6 Q196.145 1524.47 194.317 1520.93 Q192.511 1517.37 188.877 1517.37 M188.877 1513.66 Q194.687 1513.66 197.742 1518.27 Q200.821 1522.85 200.821 1531.6 Q200.821 1540.33 197.742 1544.94 Q194.687 1549.52 188.877 1549.52 Q183.067 1549.52 179.988 1544.94 Q176.932 1540.33 176.932 1531.6 Q176.932 1522.85 179.988 1518.27 Q183.067 1513.66 188.877 1513.66 Z" fill="#000000" fill-rule="evenodd" fill-opacity="1" /><path clip-path="url(#clip840)" d="M693.514 1544.91 L709.833 1544.91 L709.833 1548.85 L687.889 1548.85 L687.889 1544.91 Q690.551 1542.16 695.134 1537.53 Q699.741 1532.88 700.921 1531.53 Q703.167 1529.01 704.046 1527.27 Q704.949 1525.51 704.949 1523.82 Q704.949 1521.07 703.005 1519.33 Q701.084 1517.6 697.982 1517.6 Q695.783 1517.6 693.329 1518.36 Q690.898 1519.13 688.121 1520.68 L688.121 1515.95 Q690.945 1514.82 693.398 1514.24 Q695.852 1513.66 697.889 1513.66 Q703.259 1513.66 706.454 1516.35 Q709.648 1519.03 709.648 1523.52 Q709.648 1525.65 708.838 1527.57 Q708.051 1529.47 705.945 1532.07 Q705.366 1532.74 702.264 1535.95 Q699.162 1539.15 693.514 1544.91 Z" fill="#000000" fill-rule="evenodd" fill-opacity="1" /><path clip-path="url(#clip840)" d="M719.695 1514.29 L738.051 1514.29 L738.051 1518.22 L723.977 1518.22 L723.977 1526.7 Q724.995 1526.35 726.014 1526.19 Q727.032 1526 728.051 1526 Q733.838 1526 737.218 1529.17 Q740.597 1532.34 740.597 1537.76 Q740.597 1543.34 737.125 1546.44 Q733.653 1549.52 727.333 1549.52 Q725.157 1549.52 722.889 1549.15 Q720.644 1548.78 718.236 1548.04 L718.236 1543.34 Q720.32 1544.47 722.542 1545.03 Q724.764 1545.58 727.241 1545.58 Q731.245 1545.58 733.583 1543.48 Q735.921 1541.37 735.921 1537.76 Q735.921 1534.15 733.583 1532.04 Q731.245 1529.94 727.241 1529.94 Q725.366 1529.94 723.491 1530.35 Q721.639 1530.77 719.695 1531.65 L719.695 1514.29 Z" fill="#000000" fill-rule="evenodd" fill-opacity="1" /><path clip-path="url(#clip840)" d="M1214.31 1514.29 L1232.67 1514.29 L1232.67 1518.22 L1218.59 1518.22 L1218.59 1526.7 Q1219.61 1526.35 1220.63 1526.19 Q1221.65 1526 1222.67 1526 Q1228.45 1526 1231.83 1529.17 Q1235.21 1532.34 1235.21 1537.76 Q1235.21 1543.34 1231.74 1546.44 Q1228.27 1549.52 1221.95 1549.52 Q1219.77 1549.52 1217.5 1549.15 Q1215.26 1548.78 1212.85 1548.04 L1212.85 1543.34 Q1214.93 1544.47 1217.16 1545.03 Q1219.38 1545.58 1221.86 1545.58 Q1225.86 1545.58 1228.2 1543.48 Q1230.54 1541.37 1230.54 1537.76 Q1230.54 1534.15 1228.2 1532.04 Q1225.86 1529.94 1221.86 1529.94 Q1219.98 1529.94 1218.11 1530.35 Q1216.25 1530.77 1214.31 1531.65 L1214.31 1514.29 Z" fill="#000000" fill-rule="evenodd" fill-opacity="1" /><path clip-path="url(#clip840)" d="M1254.42 1517.37 Q1250.81 1517.37 1248.98 1520.93 Q1247.18 1524.47 1247.18 1531.6 Q1247.18 1538.71 1248.98 1542.27 Q1250.81 1545.82 1254.42 1545.82 Q1258.06 1545.82 1259.86 1542.27 Q1261.69 1538.71 1261.69 1531.6 Q1261.69 1524.47 1259.86 1520.93 Q1258.06 1517.37 1254.42 1517.37 M1254.42 1513.66 Q1260.23 1513.66 1263.29 1518.27 Q1266.37 1522.85 1266.37 1531.6 Q1266.37 1540.33 1263.29 1544.94 Q1260.23 1549.52 1254.42 1549.52 Q1248.61 1549.52 1245.54 1544.94 Q1242.48 1540.33 1242.48 1531.6 Q1242.48 1522.85 1245.54 1518.27 Q1248.61 1513.66 1254.42 1513.66 Z" fill="#000000" fill-rule="evenodd" fill-opacity="1" /><path clip-path="url(#clip840)" d="M1738.83 1514.29 L1761.05 1514.29 L1761.05 1516.28 L1748.51 1548.85 L1743.62 1548.85 L1755.43 1518.22 L1738.83 1518.22 L1738.83 1514.29 Z" fill="#000000" fill-rule="evenodd" fill-opacity="1" /><path clip-path="url(#clip840)" d="M1770.22 1514.29 L1788.58 1514.29 L1788.58 1518.22 L1774.5 1518.22 L1774.5 1526.7 Q1775.52 1526.35 1776.54 1526.19 Q1777.56 1526 1778.58 1526 Q1784.36 1526 1787.74 1529.17 Q1791.12 1532.34 1791.12 1537.76 Q1791.12 1543.34 1787.65 1546.44 Q1784.18 1549.52 1777.86 1549.52 Q1775.68 1549.52 1773.41 1549.15 Q1771.17 1548.78 1768.76 1548.04 L1768.76 1543.34 Q1770.84 1544.47 1773.07 1545.03 Q1775.29 1545.58 1777.77 1545.58 Q1781.77 1545.58 1784.11 1543.48 Q1786.45 1541.37 1786.45 1537.76 Q1786.45 1534.15 1784.11 1532.04 Q1781.77 1529.94 1777.77 1529.94 Q1775.89 1529.94 1774.02 1530.35 Q1772.16 1530.77 1770.22 1531.65 L1770.22 1514.29 Z" fill="#000000" fill-rule="evenodd" fill-opacity="1" /><path clip-path="url(#clip840)" d="M2249.95 1544.91 L2257.59 1544.91 L2257.59 1518.55 L2249.28 1520.21 L2249.28 1515.95 L2257.54 1514.29 L2262.22 1514.29 L2262.22 1544.91 L2269.86 1544.91 L2269.86 1548.85 L2249.95 1548.85 L2249.95 1544.91 Z" fill="#000000" fill-rule="evenodd" fill-opacity="1" /><path clip-path="url(#clip840)" d="M2289.3 1517.37 Q2285.69 1517.37 2283.86 1520.93 Q2282.06 1524.47 2282.06 1531.6 Q2282.06 1538.71 2283.86 1542.27 Q2285.69 1545.82 2289.3 1545.82 Q2292.93 1545.82 2294.74 1542.27 Q2296.57 1538.71 2296.57 1531.6 Q2296.57 1524.47 2294.74 1520.93 Q2292.93 1517.37 2289.3 1517.37 M2289.3 1513.66 Q2295.11 1513.66 2298.17 1518.27 Q2301.25 1522.85 2301.25 1531.6 Q2301.25 1540.33 2298.17 1544.94 Q2295.11 1549.52 2289.3 1549.52 Q2283.49 1549.52 2280.41 1544.94 Q2277.36 1540.33 2277.36 1531.6 Q2277.36 1522.85 2280.41 1518.27 Q2283.49 1513.66 2289.3 1513.66 Z" fill="#000000" fill-rule="evenodd" fill-opacity="1" /><path clip-path="url(#clip840)" d="M2319.46 1517.37 Q2315.85 1517.37 2314.02 1520.93 Q2312.22 1524.47 2312.22 1531.6 Q2312.22 1538.71 2314.02 1542.27 Q2315.85 1545.82 2319.46 1545.82 Q2323.1 1545.82 2324.9 1542.27 Q2326.73 1538.71 2326.73 1531.6 Q2326.73 1524.47 2324.9 1520.93 Q2323.1 1517.37 2319.46 1517.37 M2319.46 1513.66 Q2325.27 1513.66 2328.33 1518.27 Q2331.41 1522.85 2331.41 1531.6 Q2331.41 1540.33 2328.33 1544.94 Q2325.27 1549.52 2319.46 1549.52 Q2313.65 1549.52 2310.57 1544.94 Q2307.52 1540.33 2307.52 1531.6 Q2307.52 1522.85 2310.57 1518.27 Q2313.65 1513.66 2319.46 1513.66 Z" fill="#000000" fill-rule="evenodd" fill-opacity="1" /><polyline clip-path="url(#clip840)" style="stroke:#000000; stroke-linecap:round; stroke-linejoin:round; stroke-width:4; stroke-opacity:1; fill:none" points="
  147.478,1486.45 147.478,123.472 
  "/>
<polyline clip-path="url(#clip840)" style="stroke:#000000; stroke-linecap:round; stroke-linejoin:round; stroke-width:4; stroke-opacity:1; fill:none" points="
  147.478,1286.59 166.376,1286.59 
  "/>
<polyline clip-path="url(#clip840)" style="stroke:#000000; stroke-linecap:round; stroke-linejoin:round; stroke-width:4; stroke-opacity:1; fill:none" points="
  147.478,1042.27 166.376,1042.27 
  "/>
<polyline clip-path="url(#clip840)" style="stroke:#000000; stroke-linecap:round; stroke-linejoin:round; stroke-width:4; stroke-opacity:1; fill:none" points="
  147.478,797.946 166.376,797.946 
  "/>
<polyline clip-path="url(#clip840)" style="stroke:#000000; stroke-linecap:round; stroke-linejoin:round; stroke-width:4; stroke-opacity:1; fill:none" points="
  147.478,553.625 166.376,553.625 
  "/>
<polyline clip-path="url(#clip840)" style="stroke:#000000; stroke-linecap:round; stroke-linejoin:round; stroke-width:4; stroke-opacity:1; fill:none" points="
  147.478,309.305 166.376,309.305 
  "/>
<path clip-path="url(#clip840)" d="M51.3625 1287.04 L81.0383 1287.04 L81.0383 1290.97 L51.3625 1290.97 L51.3625 1287.04 Z" fill="#000000" fill-rule="evenodd" fill-opacity="1" /><path clip-path="url(#clip840)" d="M95.1586 1299.93 L111.478 1299.93 L111.478 1303.87 L89.5336 1303.87 L89.5336 1299.93 Q92.1956 1297.18 96.7789 1292.55 Q101.385 1287.89 102.566 1286.55 Q104.811 1284.03 105.691 1282.29 Q106.594 1280.53 106.594 1278.84 Q106.594 1276.09 104.649 1274.35 Q102.728 1272.62 99.6261 1272.62 Q97.4271 1272.62 94.9734 1273.38 Q92.5428 1274.14 89.7651 1275.69 L89.7651 1270.97 Q92.5891 1269.84 95.0428 1269.26 Q97.4965 1268.68 99.5335 1268.68 Q104.904 1268.68 108.098 1271.37 Q111.293 1274.05 111.293 1278.54 Q111.293 1280.67 110.483 1282.59 Q109.696 1284.49 107.589 1287.08 Q107.01 1287.75 103.909 1290.97 Q100.807 1294.17 95.1586 1299.93 Z" fill="#000000" fill-rule="evenodd" fill-opacity="1" /><path clip-path="url(#clip840)" d="M50.9921 1042.72 L80.6679 1042.72 L80.6679 1046.65 L50.9921 1046.65 L50.9921 1042.72 Z" fill="#000000" fill-rule="evenodd" fill-opacity="1" /><path clip-path="url(#clip840)" d="M91.5706 1055.61 L99.2095 1055.61 L99.2095 1029.24 L90.8993 1030.91 L90.8993 1026.65 L99.1632 1024.99 L103.839 1024.99 L103.839 1055.61 L111.478 1055.61 L111.478 1059.55 L91.5706 1059.55 L91.5706 1055.61 Z" fill="#000000" fill-rule="evenodd" fill-opacity="1" /><path clip-path="url(#clip840)" d="M99.5335 783.744 Q95.9224 783.744 94.0937 787.309 Q92.2882 790.851 92.2882 797.98 Q92.2882 805.087 94.0937 808.651 Q95.9224 812.193 99.5335 812.193 Q103.168 812.193 104.973 808.651 Q106.802 805.087 106.802 797.98 Q106.802 790.851 104.973 787.309 Q103.168 783.744 99.5335 783.744 M99.5335 780.041 Q105.344 780.041 108.399 784.647 Q111.478 789.23 111.478 797.98 Q111.478 806.707 108.399 811.313 Q105.344 815.897 99.5335 815.897 Q93.7234 815.897 90.6447 811.313 Q87.5892 806.707 87.5892 797.98 Q87.5892 789.23 90.6447 784.647 Q93.7234 780.041 99.5335 780.041 Z" fill="#000000" fill-rule="evenodd" fill-opacity="1" /><path clip-path="url(#clip840)" d="M91.5706 566.97 L99.2095 566.97 L99.2095 540.605 L90.8993 542.271 L90.8993 538.012 L99.1632 536.345 L103.839 536.345 L103.839 566.97 L111.478 566.97 L111.478 570.905 L91.5706 570.905 L91.5706 566.97 Z" fill="#000000" fill-rule="evenodd" fill-opacity="1" /><path clip-path="url(#clip840)" d="M95.1586 322.65 L111.478 322.65 L111.478 326.585 L89.5336 326.585 L89.5336 322.65 Q92.1956 319.895 96.7789 315.266 Q101.385 310.613 102.566 309.27 Q104.811 306.747 105.691 305.011 Q106.594 303.252 106.594 301.562 Q106.594 298.808 104.649 297.071 Q102.728 295.335 99.6261 295.335 Q97.4271 295.335 94.9734 296.099 Q92.5428 296.863 89.7651 298.414 L89.7651 293.692 Q92.5891 292.558 95.0428 291.979 Q97.4965 291.4 99.5335 291.4 Q104.904 291.4 108.098 294.085 Q111.293 296.77 111.293 301.261 Q111.293 303.391 110.483 305.312 Q109.696 307.21 107.589 309.803 Q107.01 310.474 103.909 313.692 Q100.807 316.886 95.1586 322.65 Z" fill="#000000" fill-rule="evenodd" fill-opacity="1" /><path clip-path="url(#clip840)" d="M1107.99 12.096 L1119.01 12.096 L1145.83 62.6918 L1145.83 12.096 L1153.77 12.096 L1153.77 72.576 L1142.75 72.576 L1115.93 21.9802 L1115.93 72.576 L1107.99 72.576 L1107.99 12.096 Z" fill="#000000" fill-rule="evenodd" fill-opacity="1" /><path clip-path="url(#clip840)" d="M1187.31 32.4315 Q1181.31 32.4315 1177.83 37.1306 Q1174.34 41.7891 1174.34 49.9314 Q1174.34 58.0738 1177.79 62.7728 Q1181.27 67.4314 1187.31 67.4314 Q1193.26 67.4314 1196.75 62.7323 Q1200.23 58.0333 1200.23 49.9314 Q1200.23 41.8701 1196.75 37.1711 Q1193.26 32.4315 1187.31 32.4315 M1187.31 26.1121 Q1197.03 26.1121 1202.58 32.4315 Q1208.13 38.7509 1208.13 49.9314 Q1208.13 61.0714 1202.58 67.4314 Q1197.03 73.7508 1187.31 73.7508 Q1177.54 73.7508 1172 67.4314 Q1166.49 61.0714 1166.49 49.9314 Q1166.49 38.7509 1172 32.4315 Q1177.54 26.1121 1187.31 26.1121 Z" fill="#000000" fill-rule="evenodd" fill-opacity="1" /><path clip-path="url(#clip840)" d="M1246.77 34.1734 Q1245.52 33.4443 1244.02 33.1202 Q1242.56 32.7556 1240.78 32.7556 Q1234.46 32.7556 1231.06 36.8875 Q1227.7 40.9789 1227.7 48.6757 L1227.7 72.576 L1220.2 72.576 L1220.2 27.2059 L1227.7 27.2059 L1227.7 34.2544 Q1230.04 30.1225 1233.81 28.1376 Q1237.58 26.1121 1242.97 26.1121 Q1243.74 26.1121 1244.67 26.2337 Q1245.6 26.3147 1246.73 26.5172 L1246.77 34.1734 Z" fill="#000000" fill-rule="evenodd" fill-opacity="1" /><path clip-path="url(#clip840)" d="M1288.46 35.9153 Q1291.25 30.8922 1295.14 28.5022 Q1299.03 26.1121 1304.3 26.1121 Q1311.39 26.1121 1315.24 31.0947 Q1319.08 36.0368 1319.08 45.1919 L1319.08 72.576 L1311.59 72.576 L1311.59 45.4349 Q1311.59 38.913 1309.28 35.7533 Q1306.97 32.5936 1302.23 32.5936 Q1296.44 32.5936 1293.08 36.4419 Q1289.71 40.2903 1289.71 46.9338 L1289.71 72.576 L1282.22 72.576 L1282.22 45.4349 Q1282.22 38.8725 1279.91 35.7533 Q1277.6 32.5936 1272.78 32.5936 Q1267.07 32.5936 1263.71 36.4824 Q1260.35 40.3308 1260.35 46.9338 L1260.35 72.576 L1252.85 72.576 L1252.85 27.2059 L1260.35 27.2059 L1260.35 34.2544 Q1262.9 30.082 1266.46 28.0971 Q1270.03 26.1121 1274.93 26.1121 Q1279.87 26.1121 1283.31 28.6237 Q1286.8 31.1352 1288.46 35.9153 Z" fill="#000000" fill-rule="evenodd" fill-opacity="1" /><path clip-path="url(#clip840)" d="M1354.57 49.7694 Q1345.54 49.7694 1342.05 51.8354 Q1338.57 53.9013 1338.57 58.8839 Q1338.57 62.8538 1341.16 65.2034 Q1343.79 67.5124 1348.29 67.5124 Q1354.49 67.5124 1358.22 63.1374 Q1361.98 58.7219 1361.98 51.4303 L1361.98 49.7694 L1354.57 49.7694 M1369.44 46.6907 L1369.44 72.576 L1361.98 72.576 L1361.98 65.6895 Q1359.43 69.8214 1355.62 71.8063 Q1351.81 73.7508 1346.31 73.7508 Q1339.34 73.7508 1335.21 69.8619 Q1331.11 65.9325 1331.11 59.3701 Q1331.11 51.7138 1336.22 47.825 Q1341.36 43.9361 1351.53 43.9361 L1361.98 43.9361 L1361.98 43.2069 Q1361.98 38.0623 1358.58 35.2672 Q1355.22 32.4315 1349.1 32.4315 Q1345.21 32.4315 1341.53 33.3632 Q1337.84 34.295 1334.44 36.1584 L1334.44 29.2718 Q1338.53 27.692 1342.38 26.9223 Q1346.22 26.1121 1349.87 26.1121 Q1359.71 26.1121 1364.58 31.2163 Q1369.44 36.3204 1369.44 46.6907 Z" fill="#000000" fill-rule="evenodd" fill-opacity="1" /><path clip-path="url(#clip840)" d="M1384.79 9.54393 L1392.24 9.54393 L1392.24 72.576 L1384.79 72.576 L1384.79 9.54393 Z" fill="#000000" fill-rule="evenodd" fill-opacity="1" /><polyline clip-path="url(#clip842)" style="stroke:#808080; stroke-linecap:round; stroke-linejoin:round; stroke-width:4; stroke-opacity:0.5; fill:none" points="
  209.891,797.946 209.891,892.121 
  "/>
<polyline clip-path="url(#clip842)" style="stroke:#808080; stroke-linecap:round; stroke-linejoin:round; stroke-width:4; stroke-opacity:0.5; fill:none" points="
  230.906,797.946 230.906,805.246 
  "/>
<polyline clip-path="url(#clip842)" style="stroke:#808080; stroke-linecap:round; stroke-linejoin:round; stroke-width:4; stroke-opacity:0.5; fill:none" points="
  251.921,797.946 251.921,1029.2 
  "/>
<polyline clip-path="url(#clip842)" style="stroke:#808080; stroke-linecap:round; stroke-linejoin:round; stroke-width:4; stroke-opacity:0.5; fill:none" points="
  272.935,797.946 272.935,523.423 
  "/>
<polyline clip-path="url(#clip842)" style="stroke:#808080; stroke-linecap:round; stroke-linejoin:round; stroke-width:4; stroke-opacity:0.5; fill:none" points="
  293.95,797.946 293.95,1058.84 
  "/>
<polyline clip-path="url(#clip842)" style="stroke:#808080; stroke-linecap:round; stroke-linejoin:round; stroke-width:4; stroke-opacity:0.5; fill:none" points="
  314.965,797.946 314.965,611.381 
  "/>
<polyline clip-path="url(#clip842)" style="stroke:#808080; stroke-linecap:round; stroke-linejoin:round; stroke-width:4; stroke-opacity:0.5; fill:none" points="
  335.979,797.946 335.979,1047.3 
  "/>
<polyline clip-path="url(#clip842)" style="stroke:#808080; stroke-linecap:round; stroke-linejoin:round; stroke-width:4; stroke-opacity:0.5; fill:none" points="
  356.994,797.946 356.994,1003.97 
  "/>
<polyline clip-path="url(#clip842)" style="stroke:#808080; stroke-linecap:round; stroke-linejoin:round; stroke-width:4; stroke-opacity:0.5; fill:none" points="
  378.009,797.946 378.009,214.021 
  "/>
<polyline clip-path="url(#clip842)" style="stroke:#808080; stroke-linecap:round; stroke-linejoin:round; stroke-width:4; stroke-opacity:0.5; fill:none" points="
  399.023,797.946 399.023,718.217 
  "/>
<polyline clip-path="url(#clip842)" style="stroke:#808080; stroke-linecap:round; stroke-linejoin:round; stroke-width:4; stroke-opacity:0.5; fill:none" points="
  420.038,797.946 420.038,1040.27 
  "/>
<polyline clip-path="url(#clip842)" style="stroke:#808080; stroke-linecap:round; stroke-linejoin:round; stroke-width:4; stroke-opacity:0.5; fill:none" points="
  441.053,797.946 441.053,361.404 
  "/>
<polyline clip-path="url(#clip842)" style="stroke:#808080; stroke-linecap:round; stroke-linejoin:round; stroke-width:4; stroke-opacity:0.5; fill:none" points="
  462.067,797.946 462.067,622.095 
  "/>
<polyline clip-path="url(#clip842)" style="stroke:#808080; stroke-linecap:round; stroke-linejoin:round; stroke-width:4; stroke-opacity:0.5; fill:none" points="
  483.082,797.946 483.082,881.706 
  "/>
<polyline clip-path="url(#clip842)" style="stroke:#808080; stroke-linecap:round; stroke-linejoin:round; stroke-width:4; stroke-opacity:0.5; fill:none" points="
  504.097,797.946 504.097,964.428 
  "/>
<polyline clip-path="url(#clip842)" style="stroke:#808080; stroke-linecap:round; stroke-linejoin:round; stroke-width:4; stroke-opacity:0.5; fill:none" points="
  525.111,797.946 525.111,510.226 
  "/>
<polyline clip-path="url(#clip842)" style="stroke:#808080; stroke-linecap:round; stroke-linejoin:round; stroke-width:4; stroke-opacity:0.5; fill:none" points="
  546.126,797.946 546.126,980.586 
  "/>
<polyline clip-path="url(#clip842)" style="stroke:#808080; stroke-linecap:round; stroke-linejoin:round; stroke-width:4; stroke-opacity:0.5; fill:none" points="
  567.141,797.946 567.141,917.176 
  "/>
<polyline clip-path="url(#clip842)" style="stroke:#808080; stroke-linecap:round; stroke-linejoin:round; stroke-width:4; stroke-opacity:0.5; fill:none" points="
  588.155,797.946 588.155,708.412 
  "/>
<polyline clip-path="url(#clip842)" style="stroke:#808080; stroke-linecap:round; stroke-linejoin:round; stroke-width:4; stroke-opacity:0.5; fill:none" points="
  609.17,797.946 609.17,590.493 
  "/>
<polyline clip-path="url(#clip842)" style="stroke:#808080; stroke-linecap:round; stroke-linejoin:round; stroke-width:4; stroke-opacity:0.5; fill:none" points="
  630.185,797.946 630.185,1220.59 
  "/>
<polyline clip-path="url(#clip842)" style="stroke:#808080; stroke-linecap:round; stroke-linejoin:round; stroke-width:4; stroke-opacity:0.5; fill:none" points="
  651.199,797.946 651.199,511.479 
  "/>
<polyline clip-path="url(#clip842)" style="stroke:#808080; stroke-linecap:round; stroke-linejoin:round; stroke-width:4; stroke-opacity:0.5; fill:none" points="
  672.214,797.946 672.214,817.975 
  "/>
<polyline clip-path="url(#clip842)" style="stroke:#808080; stroke-linecap:round; stroke-linejoin:round; stroke-width:4; stroke-opacity:0.5; fill:none" points="
  693.229,797.946 693.229,920.875 
  "/>
<polyline clip-path="url(#clip842)" style="stroke:#808080; stroke-linecap:round; stroke-linejoin:round; stroke-width:4; stroke-opacity:0.5; fill:none" points="
  714.243,797.946 714.243,700.872 
  "/>
<polyline clip-path="url(#clip842)" style="stroke:#808080; stroke-linecap:round; stroke-linejoin:round; stroke-width:4; stroke-opacity:0.5; fill:none" points="
  735.258,797.946 735.258,1043.08 
  "/>
<polyline clip-path="url(#clip842)" style="stroke:#808080; stroke-linecap:round; stroke-linejoin:round; stroke-width:4; stroke-opacity:0.5; fill:none" points="
  756.272,797.946 756.272,898.485 
  "/>
<polyline clip-path="url(#clip842)" style="stroke:#808080; stroke-linecap:round; stroke-linejoin:round; stroke-width:4; stroke-opacity:0.5; fill:none" points="
  777.287,797.946 777.287,1115.68 
  "/>
<polyline clip-path="url(#clip842)" style="stroke:#808080; stroke-linecap:round; stroke-linejoin:round; stroke-width:4; stroke-opacity:0.5; fill:none" points="
  798.302,797.946 798.302,614.372 
  "/>
<polyline clip-path="url(#clip842)" style="stroke:#808080; stroke-linecap:round; stroke-linejoin:round; stroke-width:4; stroke-opacity:0.5; fill:none" points="
  819.316,797.946 819.316,593.423 
  "/>
<polyline clip-path="url(#clip842)" style="stroke:#808080; stroke-linecap:round; stroke-linejoin:round; stroke-width:4; stroke-opacity:0.5; fill:none" points="
  840.331,797.946 840.331,777.195 
  "/>
<polyline clip-path="url(#clip842)" style="stroke:#808080; stroke-linecap:round; stroke-linejoin:round; stroke-width:4; stroke-opacity:0.5; fill:none" points="
  861.346,797.946 861.346,598.054 
  "/>
<polyline clip-path="url(#clip842)" style="stroke:#808080; stroke-linecap:round; stroke-linejoin:round; stroke-width:4; stroke-opacity:0.5; fill:none" points="
  882.36,797.946 882.36,722.415 
  "/>
<polyline clip-path="url(#clip842)" style="stroke:#808080; stroke-linecap:round; stroke-linejoin:round; stroke-width:4; stroke-opacity:0.5; fill:none" points="
  903.375,797.946 903.375,518.729 
  "/>
<polyline clip-path="url(#clip842)" style="stroke:#808080; stroke-linecap:round; stroke-linejoin:round; stroke-width:4; stroke-opacity:0.5; fill:none" points="
  924.39,797.946 924.39,1001.63 
  "/>
<polyline clip-path="url(#clip842)" style="stroke:#808080; stroke-linecap:round; stroke-linejoin:round; stroke-width:4; stroke-opacity:0.5; fill:none" points="
  945.404,797.946 945.404,1013.9 
  "/>
<polyline clip-path="url(#clip842)" style="stroke:#808080; stroke-linecap:round; stroke-linejoin:round; stroke-width:4; stroke-opacity:0.5; fill:none" points="
  966.419,797.946 966.419,933.876 
  "/>
<polyline clip-path="url(#clip842)" style="stroke:#808080; stroke-linecap:round; stroke-linejoin:round; stroke-width:4; stroke-opacity:0.5; fill:none" points="
  987.434,797.946 987.434,814.447 
  "/>
<polyline clip-path="url(#clip842)" style="stroke:#808080; stroke-linecap:round; stroke-linejoin:round; stroke-width:4; stroke-opacity:0.5; fill:none" points="
  1008.45,797.946 1008.45,710.099 
  "/>
<polyline clip-path="url(#clip842)" style="stroke:#808080; stroke-linecap:round; stroke-linejoin:round; stroke-width:4; stroke-opacity:0.5; fill:none" points="
  1029.46,797.946 1029.46,565.078 
  "/>
<polyline clip-path="url(#clip842)" style="stroke:#808080; stroke-linecap:round; stroke-linejoin:round; stroke-width:4; stroke-opacity:0.5; fill:none" points="
  1050.48,797.946 1050.48,657.886 
  "/>
<polyline clip-path="url(#clip842)" style="stroke:#808080; stroke-linecap:round; stroke-linejoin:round; stroke-width:4; stroke-opacity:0.5; fill:none" points="
  1071.49,797.946 1071.49,801.597 
  "/>
<polyline clip-path="url(#clip842)" style="stroke:#808080; stroke-linecap:round; stroke-linejoin:round; stroke-width:4; stroke-opacity:0.5; fill:none" points="
  1092.51,797.946 1092.51,799.668 
  "/>
<polyline clip-path="url(#clip842)" style="stroke:#808080; stroke-linecap:round; stroke-linejoin:round; stroke-width:4; stroke-opacity:0.5; fill:none" points="
  1113.52,797.946 1113.52,859.411 
  "/>
<polyline clip-path="url(#clip842)" style="stroke:#808080; stroke-linecap:round; stroke-linejoin:round; stroke-width:4; stroke-opacity:0.5; fill:none" points="
  1134.54,797.946 1134.54,1032.89 
  "/>
<polyline clip-path="url(#clip842)" style="stroke:#808080; stroke-linecap:round; stroke-linejoin:round; stroke-width:4; stroke-opacity:0.5; fill:none" points="
  1155.55,797.946 1155.55,801.435 
  "/>
<polyline clip-path="url(#clip842)" style="stroke:#808080; stroke-linecap:round; stroke-linejoin:round; stroke-width:4; stroke-opacity:0.5; fill:none" points="
  1176.57,797.946 1176.57,934.137 
  "/>
<polyline clip-path="url(#clip842)" style="stroke:#808080; stroke-linecap:round; stroke-linejoin:round; stroke-width:4; stroke-opacity:0.5; fill:none" points="
  1197.58,797.946 1197.58,971.153 
  "/>
<polyline clip-path="url(#clip842)" style="stroke:#808080; stroke-linecap:round; stroke-linejoin:round; stroke-width:4; stroke-opacity:0.5; fill:none" points="
  1218.59,797.946 1218.59,733.443 
  "/>
<polyline clip-path="url(#clip842)" style="stroke:#808080; stroke-linecap:round; stroke-linejoin:round; stroke-width:4; stroke-opacity:0.5; fill:none" points="
  1239.61,797.946 1239.61,836.093 
  "/>
<polyline clip-path="url(#clip842)" style="stroke:#808080; stroke-linecap:round; stroke-linejoin:round; stroke-width:4; stroke-opacity:0.5; fill:none" points="
  1260.62,797.946 1260.62,845.843 
  "/>
<polyline clip-path="url(#clip842)" style="stroke:#808080; stroke-linecap:round; stroke-linejoin:round; stroke-width:4; stroke-opacity:0.5; fill:none" points="
  1281.64,797.946 1281.64,1084.19 
  "/>
<polyline clip-path="url(#clip842)" style="stroke:#808080; stroke-linecap:round; stroke-linejoin:round; stroke-width:4; stroke-opacity:0.5; fill:none" points="
  1302.65,797.946 1302.65,1085.33 
  "/>
<polyline clip-path="url(#clip842)" style="stroke:#808080; stroke-linecap:round; stroke-linejoin:round; stroke-width:4; stroke-opacity:0.5; fill:none" points="
  1323.67,797.946 1323.67,687.499 
  "/>
<polyline clip-path="url(#clip842)" style="stroke:#808080; stroke-linecap:round; stroke-linejoin:round; stroke-width:4; stroke-opacity:0.5; fill:none" points="
  1344.68,797.946 1344.68,760.596 
  "/>
<polyline clip-path="url(#clip842)" style="stroke:#808080; stroke-linecap:round; stroke-linejoin:round; stroke-width:4; stroke-opacity:0.5; fill:none" points="
  1365.7,797.946 1365.7,1005.2 
  "/>
<polyline clip-path="url(#clip842)" style="stroke:#808080; stroke-linecap:round; stroke-linejoin:round; stroke-width:4; stroke-opacity:0.5; fill:none" points="
  1386.71,797.946 1386.71,162.047 
  "/>
<polyline clip-path="url(#clip842)" style="stroke:#808080; stroke-linecap:round; stroke-linejoin:round; stroke-width:4; stroke-opacity:0.5; fill:none" points="
  1407.73,797.946 1407.73,1000.41 
  "/>
<polyline clip-path="url(#clip842)" style="stroke:#808080; stroke-linecap:round; stroke-linejoin:round; stroke-width:4; stroke-opacity:0.5; fill:none" points="
  1428.74,797.946 1428.74,183.523 
  "/>
<polyline clip-path="url(#clip842)" style="stroke:#808080; stroke-linecap:round; stroke-linejoin:round; stroke-width:4; stroke-opacity:0.5; fill:none" points="
  1449.76,797.946 1449.76,1024.32 
  "/>
<polyline clip-path="url(#clip842)" style="stroke:#808080; stroke-linecap:round; stroke-linejoin:round; stroke-width:4; stroke-opacity:0.5; fill:none" points="
  1470.77,797.946 1470.77,794.896 
  "/>
<polyline clip-path="url(#clip842)" style="stroke:#808080; stroke-linecap:round; stroke-linejoin:round; stroke-width:4; stroke-opacity:0.5; fill:none" points="
  1491.79,797.946 1491.79,670.522 
  "/>
<polyline clip-path="url(#clip842)" style="stroke:#808080; stroke-linecap:round; stroke-linejoin:round; stroke-width:4; stroke-opacity:0.5; fill:none" points="
  1512.8,797.946 1512.8,848.622 
  "/>
<polyline clip-path="url(#clip842)" style="stroke:#808080; stroke-linecap:round; stroke-linejoin:round; stroke-width:4; stroke-opacity:0.5; fill:none" points="
  1533.81,797.946 1533.81,715.26 
  "/>
<polyline clip-path="url(#clip842)" style="stroke:#808080; stroke-linecap:round; stroke-linejoin:round; stroke-width:4; stroke-opacity:0.5; fill:none" points="
  1554.83,797.946 1554.83,1001.74 
  "/>
<polyline clip-path="url(#clip842)" style="stroke:#808080; stroke-linecap:round; stroke-linejoin:round; stroke-width:4; stroke-opacity:0.5; fill:none" points="
  1575.84,797.946 1575.84,985.798 
  "/>
<polyline clip-path="url(#clip842)" style="stroke:#808080; stroke-linecap:round; stroke-linejoin:round; stroke-width:4; stroke-opacity:0.5; fill:none" points="
  1596.86,797.946 1596.86,431.482 
  "/>
<polyline clip-path="url(#clip842)" style="stroke:#808080; stroke-linecap:round; stroke-linejoin:round; stroke-width:4; stroke-opacity:0.5; fill:none" points="
  1617.87,797.946 1617.87,1447.87 
  "/>
<polyline clip-path="url(#clip842)" style="stroke:#808080; stroke-linecap:round; stroke-linejoin:round; stroke-width:4; stroke-opacity:0.5; fill:none" points="
  1638.89,797.946 1638.89,1065.51 
  "/>
<polyline clip-path="url(#clip842)" style="stroke:#808080; stroke-linecap:round; stroke-linejoin:round; stroke-width:4; stroke-opacity:0.5; fill:none" points="
  1659.9,797.946 1659.9,568.879 
  "/>
<polyline clip-path="url(#clip842)" style="stroke:#808080; stroke-linecap:round; stroke-linejoin:round; stroke-width:4; stroke-opacity:0.5; fill:none" points="
  1680.92,797.946 1680.92,1018.53 
  "/>
<polyline clip-path="url(#clip842)" style="stroke:#808080; stroke-linecap:round; stroke-linejoin:round; stroke-width:4; stroke-opacity:0.5; fill:none" points="
  1701.93,797.946 1701.93,644.012 
  "/>
<polyline clip-path="url(#clip842)" style="stroke:#808080; stroke-linecap:round; stroke-linejoin:round; stroke-width:4; stroke-opacity:0.5; fill:none" points="
  1722.95,797.946 1722.95,929.712 
  "/>
<polyline clip-path="url(#clip842)" style="stroke:#808080; stroke-linecap:round; stroke-linejoin:round; stroke-width:4; stroke-opacity:0.5; fill:none" points="
  1743.96,797.946 1743.96,477.34 
  "/>
<polyline clip-path="url(#clip842)" style="stroke:#808080; stroke-linecap:round; stroke-linejoin:round; stroke-width:4; stroke-opacity:0.5; fill:none" points="
  1764.98,797.946 1764.98,1086.01 
  "/>
<polyline clip-path="url(#clip842)" style="stroke:#808080; stroke-linecap:round; stroke-linejoin:round; stroke-width:4; stroke-opacity:0.5; fill:none" points="
  1785.99,797.946 1785.99,1236.29 
  "/>
<polyline clip-path="url(#clip842)" style="stroke:#808080; stroke-linecap:round; stroke-linejoin:round; stroke-width:4; stroke-opacity:0.5; fill:none" points="
  1807.01,797.946 1807.01,551.344 
  "/>
<polyline clip-path="url(#clip842)" style="stroke:#808080; stroke-linecap:round; stroke-linejoin:round; stroke-width:4; stroke-opacity:0.5; fill:none" points="
  1828.02,797.946 1828.02,913.358 
  "/>
<polyline clip-path="url(#clip842)" style="stroke:#808080; stroke-linecap:round; stroke-linejoin:round; stroke-width:4; stroke-opacity:0.5; fill:none" points="
  1849.03,797.946 1849.03,423.37 
  "/>
<polyline clip-path="url(#clip842)" style="stroke:#808080; stroke-linecap:round; stroke-linejoin:round; stroke-width:4; stroke-opacity:0.5; fill:none" points="
  1870.05,797.946 1870.05,974.673 
  "/>
<polyline clip-path="url(#clip842)" style="stroke:#808080; stroke-linecap:round; stroke-linejoin:round; stroke-width:4; stroke-opacity:0.5; fill:none" points="
  1891.06,797.946 1891.06,460.44 
  "/>
<polyline clip-path="url(#clip842)" style="stroke:#808080; stroke-linecap:round; stroke-linejoin:round; stroke-width:4; stroke-opacity:0.5; fill:none" points="
  1912.08,797.946 1912.08,598.785 
  "/>
<polyline clip-path="url(#clip842)" style="stroke:#808080; stroke-linecap:round; stroke-linejoin:round; stroke-width:4; stroke-opacity:0.5; fill:none" points="
  1933.09,797.946 1933.09,559.783 
  "/>
<polyline clip-path="url(#clip842)" style="stroke:#808080; stroke-linecap:round; stroke-linejoin:round; stroke-width:4; stroke-opacity:0.5; fill:none" points="
  1954.11,797.946 1954.11,1113.59 
  "/>
<polyline clip-path="url(#clip842)" style="stroke:#808080; stroke-linecap:round; stroke-linejoin:round; stroke-width:4; stroke-opacity:0.5; fill:none" points="
  1975.12,797.946 1975.12,485.526 
  "/>
<polyline clip-path="url(#clip842)" style="stroke:#808080; stroke-linecap:round; stroke-linejoin:round; stroke-width:4; stroke-opacity:0.5; fill:none" points="
  1996.14,797.946 1996.14,406.348 
  "/>
<polyline clip-path="url(#clip842)" style="stroke:#808080; stroke-linecap:round; stroke-linejoin:round; stroke-width:4; stroke-opacity:0.5; fill:none" points="
  2017.15,797.946 2017.15,550.875 
  "/>
<polyline clip-path="url(#clip842)" style="stroke:#808080; stroke-linecap:round; stroke-linejoin:round; stroke-width:4; stroke-opacity:0.5; fill:none" points="
  2038.17,797.946 2038.17,1154.97 
  "/>
<polyline clip-path="url(#clip842)" style="stroke:#808080; stroke-linecap:round; stroke-linejoin:round; stroke-width:4; stroke-opacity:0.5; fill:none" points="
  2059.18,797.946 2059.18,870.195 
  "/>
<polyline clip-path="url(#clip842)" style="stroke:#808080; stroke-linecap:round; stroke-linejoin:round; stroke-width:4; stroke-opacity:0.5; fill:none" points="
  2080.2,797.946 2080.2,895.798 
  "/>
<polyline clip-path="url(#clip842)" style="stroke:#808080; stroke-linecap:round; stroke-linejoin:round; stroke-width:4; stroke-opacity:0.5; fill:none" points="
  2101.21,797.946 2101.21,782.171 
  "/>
<polyline clip-path="url(#clip842)" style="stroke:#808080; stroke-linecap:round; stroke-linejoin:round; stroke-width:4; stroke-opacity:0.5; fill:none" points="
  2122.23,797.946 2122.23,904.311 
  "/>
<polyline clip-path="url(#clip842)" style="stroke:#808080; stroke-linecap:round; stroke-linejoin:round; stroke-width:4; stroke-opacity:0.5; fill:none" points="
  2143.24,797.946 2143.24,751.954 
  "/>
<polyline clip-path="url(#clip842)" style="stroke:#808080; stroke-linecap:round; stroke-linejoin:round; stroke-width:4; stroke-opacity:0.5; fill:none" points="
  2164.25,797.946 2164.25,797.767 
  "/>
<polyline clip-path="url(#clip842)" style="stroke:#808080; stroke-linecap:round; stroke-linejoin:round; stroke-width:4; stroke-opacity:0.5; fill:none" points="
  2185.27,797.946 2185.27,962.119 
  "/>
<polyline clip-path="url(#clip842)" style="stroke:#808080; stroke-linecap:round; stroke-linejoin:round; stroke-width:4; stroke-opacity:0.5; fill:none" points="
  2206.28,797.946 2206.28,1070.81 
  "/>
<polyline clip-path="url(#clip842)" style="stroke:#808080; stroke-linecap:round; stroke-linejoin:round; stroke-width:4; stroke-opacity:0.5; fill:none" points="
  2227.3,797.946 2227.3,1107.91 
  "/>
<polyline clip-path="url(#clip842)" style="stroke:#808080; stroke-linecap:round; stroke-linejoin:round; stroke-width:4; stroke-opacity:0.5; fill:none" points="
  2248.31,797.946 2248.31,860.407 
  "/>
<polyline clip-path="url(#clip842)" style="stroke:#808080; stroke-linecap:round; stroke-linejoin:round; stroke-width:4; stroke-opacity:0.5; fill:none" points="
  2269.33,797.946 2269.33,717.876 
  "/>
<polyline clip-path="url(#clip842)" style="stroke:#808080; stroke-linecap:round; stroke-linejoin:round; stroke-width:4; stroke-opacity:0.5; fill:none" points="
  2290.34,797.946 2290.34,782.323 
  "/>
<polyline clip-path="url(#clip842)" style="stroke:#808080; stroke-linecap:round; stroke-linejoin:round; stroke-width:0; stroke-opacity:0.5; fill:none" points="
  209.891,892.121 230.906,805.246 251.921,1029.2 272.935,523.423 293.95,1058.84 314.965,611.381 335.979,1047.3 356.994,1003.97 378.009,214.021 399.023,718.217 
  420.038,1040.27 441.053,361.404 462.067,622.095 483.082,881.706 504.097,964.428 525.111,510.226 546.126,980.586 567.141,917.176 588.155,708.412 609.17,590.493 
  630.185,1220.59 651.199,511.479 672.214,817.975 693.229,920.875 714.243,700.872 735.258,1043.08 756.272,898.485 777.287,1115.68 798.302,614.372 819.316,593.423 
  840.331,777.195 861.346,598.054 882.36,722.415 903.375,518.729 924.39,1001.63 945.404,1013.9 966.419,933.876 987.434,814.447 1008.45,710.099 1029.46,565.078 
  1050.48,657.886 1071.49,801.597 1092.51,799.668 1113.52,859.411 1134.54,1032.89 1155.55,801.435 1176.57,934.137 1197.58,971.153 1218.59,733.443 1239.61,836.093 
  1260.62,845.843 1281.64,1084.19 1302.65,1085.33 1323.67,687.499 1344.68,760.596 1365.7,1005.2 1386.71,162.047 1407.73,1000.41 1428.74,183.523 1449.76,1024.32 
  1470.77,794.896 1491.79,670.522 1512.8,848.622 1533.81,715.26 1554.83,1001.74 1575.84,985.798 1596.86,431.482 1617.87,1447.87 1638.89,1065.51 1659.9,568.879 
  1680.92,1018.53 1701.93,644.012 1722.95,929.712 1743.96,477.34 1764.98,1086.01 1785.99,1236.29 1807.01,551.344 1828.02,913.358 1849.03,423.37 1870.05,974.673 
  1891.06,460.44 1912.08,598.785 1933.09,559.783 1954.11,1113.59 1975.12,485.526 1996.14,406.348 2017.15,550.875 2038.17,1154.97 2059.18,870.195 2080.2,895.798 
  2101.21,782.171 2122.23,904.311 2143.24,751.954 2164.25,797.767 2185.27,962.119 2206.28,1070.81 2227.3,1107.91 2248.31,860.407 2269.33,717.876 2290.34,782.323 
  
  "/>
<circle clip-path="url(#clip842)" cx="209.891" cy="892.121" r="14.4" fill="#808080" fill-rule="evenodd" fill-opacity="0.5" stroke="#000000" stroke-opacity="0.5" stroke-width="3.2"/>
<circle clip-path="url(#clip842)" cx="230.906" cy="805.246" r="14.4" fill="#808080" fill-rule="evenodd" fill-opacity="0.5" stroke="#000000" stroke-opacity="0.5" stroke-width="3.2"/>
<circle clip-path="url(#clip842)" cx="251.921" cy="1029.2" r="14.4" fill="#808080" fill-rule="evenodd" fill-opacity="0.5" stroke="#000000" stroke-opacity="0.5" stroke-width="3.2"/>
<circle clip-path="url(#clip842)" cx="272.935" cy="523.423" r="14.4" fill="#808080" fill-rule="evenodd" fill-opacity="0.5" stroke="#000000" stroke-opacity="0.5" stroke-width="3.2"/>
<circle clip-path="url(#clip842)" cx="293.95" cy="1058.84" r="14.4" fill="#808080" fill-rule="evenodd" fill-opacity="0.5" stroke="#000000" stroke-opacity="0.5" stroke-width="3.2"/>
<circle clip-path="url(#clip842)" cx="314.965" cy="611.381" r="14.4" fill="#808080" fill-rule="evenodd" fill-opacity="0.5" stroke="#000000" stroke-opacity="0.5" stroke-width="3.2"/>
<circle clip-path="url(#clip842)" cx="335.979" cy="1047.3" r="14.4" fill="#808080" fill-rule="evenodd" fill-opacity="0.5" stroke="#000000" stroke-opacity="0.5" stroke-width="3.2"/>
<circle clip-path="url(#clip842)" cx="356.994" cy="1003.97" r="14.4" fill="#808080" fill-rule="evenodd" fill-opacity="0.5" stroke="#000000" stroke-opacity="0.5" stroke-width="3.2"/>
<circle clip-path="url(#clip842)" cx="378.009" cy="214.021" r="14.4" fill="#808080" fill-rule="evenodd" fill-opacity="0.5" stroke="#000000" stroke-opacity="0.5" stroke-width="3.2"/>
<circle clip-path="url(#clip842)" cx="399.023" cy="718.217" r="14.4" fill="#808080" fill-rule="evenodd" fill-opacity="0.5" stroke="#000000" stroke-opacity="0.5" stroke-width="3.2"/>
<circle clip-path="url(#clip842)" cx="420.038" cy="1040.27" r="14.4" fill="#808080" fill-rule="evenodd" fill-opacity="0.5" stroke="#000000" stroke-opacity="0.5" stroke-width="3.2"/>
<circle clip-path="url(#clip842)" cx="441.053" cy="361.404" r="14.4" fill="#808080" fill-rule="evenodd" fill-opacity="0.5" stroke="#000000" stroke-opacity="0.5" stroke-width="3.2"/>
<circle clip-path="url(#clip842)" cx="462.067" cy="622.095" r="14.4" fill="#808080" fill-rule="evenodd" fill-opacity="0.5" stroke="#000000" stroke-opacity="0.5" stroke-width="3.2"/>
<circle clip-path="url(#clip842)" cx="483.082" cy="881.706" r="14.4" fill="#808080" fill-rule="evenodd" fill-opacity="0.5" stroke="#000000" stroke-opacity="0.5" stroke-width="3.2"/>
<circle clip-path="url(#clip842)" cx="504.097" cy="964.428" r="14.4" fill="#808080" fill-rule="evenodd" fill-opacity="0.5" stroke="#000000" stroke-opacity="0.5" stroke-width="3.2"/>
<circle clip-path="url(#clip842)" cx="525.111" cy="510.226" r="14.4" fill="#808080" fill-rule="evenodd" fill-opacity="0.5" stroke="#000000" stroke-opacity="0.5" stroke-width="3.2"/>
<circle clip-path="url(#clip842)" cx="546.126" cy="980.586" r="14.4" fill="#808080" fill-rule="evenodd" fill-opacity="0.5" stroke="#000000" stroke-opacity="0.5" stroke-width="3.2"/>
<circle clip-path="url(#clip842)" cx="567.141" cy="917.176" r="14.4" fill="#808080" fill-rule="evenodd" fill-opacity="0.5" stroke="#000000" stroke-opacity="0.5" stroke-width="3.2"/>
<circle clip-path="url(#clip842)" cx="588.155" cy="708.412" r="14.4" fill="#808080" fill-rule="evenodd" fill-opacity="0.5" stroke="#000000" stroke-opacity="0.5" stroke-width="3.2"/>
<circle clip-path="url(#clip842)" cx="609.17" cy="590.493" r="14.4" fill="#808080" fill-rule="evenodd" fill-opacity="0.5" stroke="#000000" stroke-opacity="0.5" stroke-width="3.2"/>
<circle clip-path="url(#clip842)" cx="630.185" cy="1220.59" r="14.4" fill="#808080" fill-rule="evenodd" fill-opacity="0.5" stroke="#000000" stroke-opacity="0.5" stroke-width="3.2"/>
<circle clip-path="url(#clip842)" cx="651.199" cy="511.479" r="14.4" fill="#808080" fill-rule="evenodd" fill-opacity="0.5" stroke="#000000" stroke-opacity="0.5" stroke-width="3.2"/>
<circle clip-path="url(#clip842)" cx="672.214" cy="817.975" r="14.4" fill="#808080" fill-rule="evenodd" fill-opacity="0.5" stroke="#000000" stroke-opacity="0.5" stroke-width="3.2"/>
<circle clip-path="url(#clip842)" cx="693.229" cy="920.875" r="14.4" fill="#808080" fill-rule="evenodd" fill-opacity="0.5" stroke="#000000" stroke-opacity="0.5" stroke-width="3.2"/>
<circle clip-path="url(#clip842)" cx="714.243" cy="700.872" r="14.4" fill="#808080" fill-rule="evenodd" fill-opacity="0.5" stroke="#000000" stroke-opacity="0.5" stroke-width="3.2"/>
<circle clip-path="url(#clip842)" cx="735.258" cy="1043.08" r="14.4" fill="#808080" fill-rule="evenodd" fill-opacity="0.5" stroke="#000000" stroke-opacity="0.5" stroke-width="3.2"/>
<circle clip-path="url(#clip842)" cx="756.272" cy="898.485" r="14.4" fill="#808080" fill-rule="evenodd" fill-opacity="0.5" stroke="#000000" stroke-opacity="0.5" stroke-width="3.2"/>
<circle clip-path="url(#clip842)" cx="777.287" cy="1115.68" r="14.4" fill="#808080" fill-rule="evenodd" fill-opacity="0.5" stroke="#000000" stroke-opacity="0.5" stroke-width="3.2"/>
<circle clip-path="url(#clip842)" cx="798.302" cy="614.372" r="14.4" fill="#808080" fill-rule="evenodd" fill-opacity="0.5" stroke="#000000" stroke-opacity="0.5" stroke-width="3.2"/>
<circle clip-path="url(#clip842)" cx="819.316" cy="593.423" r="14.4" fill="#808080" fill-rule="evenodd" fill-opacity="0.5" stroke="#000000" stroke-opacity="0.5" stroke-width="3.2"/>
<circle clip-path="url(#clip842)" cx="840.331" cy="777.195" r="14.4" fill="#808080" fill-rule="evenodd" fill-opacity="0.5" stroke="#000000" stroke-opacity="0.5" stroke-width="3.2"/>
<circle clip-path="url(#clip842)" cx="861.346" cy="598.054" r="14.4" fill="#808080" fill-rule="evenodd" fill-opacity="0.5" stroke="#000000" stroke-opacity="0.5" stroke-width="3.2"/>
<circle clip-path="url(#clip842)" cx="882.36" cy="722.415" r="14.4" fill="#808080" fill-rule="evenodd" fill-opacity="0.5" stroke="#000000" stroke-opacity="0.5" stroke-width="3.2"/>
<circle clip-path="url(#clip842)" cx="903.375" cy="518.729" r="14.4" fill="#808080" fill-rule="evenodd" fill-opacity="0.5" stroke="#000000" stroke-opacity="0.5" stroke-width="3.2"/>
<circle clip-path="url(#clip842)" cx="924.39" cy="1001.63" r="14.4" fill="#808080" fill-rule="evenodd" fill-opacity="0.5" stroke="#000000" stroke-opacity="0.5" stroke-width="3.2"/>
<circle clip-path="url(#clip842)" cx="945.404" cy="1013.9" r="14.4" fill="#808080" fill-rule="evenodd" fill-opacity="0.5" stroke="#000000" stroke-opacity="0.5" stroke-width="3.2"/>
<circle clip-path="url(#clip842)" cx="966.419" cy="933.876" r="14.4" fill="#808080" fill-rule="evenodd" fill-opacity="0.5" stroke="#000000" stroke-opacity="0.5" stroke-width="3.2"/>
<circle clip-path="url(#clip842)" cx="987.434" cy="814.447" r="14.4" fill="#808080" fill-rule="evenodd" fill-opacity="0.5" stroke="#000000" stroke-opacity="0.5" stroke-width="3.2"/>
<circle clip-path="url(#clip842)" cx="1008.45" cy="710.099" r="14.4" fill="#808080" fill-rule="evenodd" fill-opacity="0.5" stroke="#000000" stroke-opacity="0.5" stroke-width="3.2"/>
<circle clip-path="url(#clip842)" cx="1029.46" cy="565.078" r="14.4" fill="#808080" fill-rule="evenodd" fill-opacity="0.5" stroke="#000000" stroke-opacity="0.5" stroke-width="3.2"/>
<circle clip-path="url(#clip842)" cx="1050.48" cy="657.886" r="14.4" fill="#808080" fill-rule="evenodd" fill-opacity="0.5" stroke="#000000" stroke-opacity="0.5" stroke-width="3.2"/>
<circle clip-path="url(#clip842)" cx="1071.49" cy="801.597" r="14.4" fill="#808080" fill-rule="evenodd" fill-opacity="0.5" stroke="#000000" stroke-opacity="0.5" stroke-width="3.2"/>
<circle clip-path="url(#clip842)" cx="1092.51" cy="799.668" r="14.4" fill="#808080" fill-rule="evenodd" fill-opacity="0.5" stroke="#000000" stroke-opacity="0.5" stroke-width="3.2"/>
<circle clip-path="url(#clip842)" cx="1113.52" cy="859.411" r="14.4" fill="#808080" fill-rule="evenodd" fill-opacity="0.5" stroke="#000000" stroke-opacity="0.5" stroke-width="3.2"/>
<circle clip-path="url(#clip842)" cx="1134.54" cy="1032.89" r="14.4" fill="#808080" fill-rule="evenodd" fill-opacity="0.5" stroke="#000000" stroke-opacity="0.5" stroke-width="3.2"/>
<circle clip-path="url(#clip842)" cx="1155.55" cy="801.435" r="14.4" fill="#808080" fill-rule="evenodd" fill-opacity="0.5" stroke="#000000" stroke-opacity="0.5" stroke-width="3.2"/>
<circle clip-path="url(#clip842)" cx="1176.57" cy="934.137" r="14.4" fill="#808080" fill-rule="evenodd" fill-opacity="0.5" stroke="#000000" stroke-opacity="0.5" stroke-width="3.2"/>
<circle clip-path="url(#clip842)" cx="1197.58" cy="971.153" r="14.4" fill="#808080" fill-rule="evenodd" fill-opacity="0.5" stroke="#000000" stroke-opacity="0.5" stroke-width="3.2"/>
<circle clip-path="url(#clip842)" cx="1218.59" cy="733.443" r="14.4" fill="#808080" fill-rule="evenodd" fill-opacity="0.5" stroke="#000000" stroke-opacity="0.5" stroke-width="3.2"/>
<circle clip-path="url(#clip842)" cx="1239.61" cy="836.093" r="14.4" fill="#808080" fill-rule="evenodd" fill-opacity="0.5" stroke="#000000" stroke-opacity="0.5" stroke-width="3.2"/>
<circle clip-path="url(#clip842)" cx="1260.62" cy="845.843" r="14.4" fill="#808080" fill-rule="evenodd" fill-opacity="0.5" stroke="#000000" stroke-opacity="0.5" stroke-width="3.2"/>
<circle clip-path="url(#clip842)" cx="1281.64" cy="1084.19" r="14.4" fill="#808080" fill-rule="evenodd" fill-opacity="0.5" stroke="#000000" stroke-opacity="0.5" stroke-width="3.2"/>
<circle clip-path="url(#clip842)" cx="1302.65" cy="1085.33" r="14.4" fill="#808080" fill-rule="evenodd" fill-opacity="0.5" stroke="#000000" stroke-opacity="0.5" stroke-width="3.2"/>
<circle clip-path="url(#clip842)" cx="1323.67" cy="687.499" r="14.4" fill="#808080" fill-rule="evenodd" fill-opacity="0.5" stroke="#000000" stroke-opacity="0.5" stroke-width="3.2"/>
<circle clip-path="url(#clip842)" cx="1344.68" cy="760.596" r="14.4" fill="#808080" fill-rule="evenodd" fill-opacity="0.5" stroke="#000000" stroke-opacity="0.5" stroke-width="3.2"/>
<circle clip-path="url(#clip842)" cx="1365.7" cy="1005.2" r="14.4" fill="#808080" fill-rule="evenodd" fill-opacity="0.5" stroke="#000000" stroke-opacity="0.5" stroke-width="3.2"/>
<circle clip-path="url(#clip842)" cx="1386.71" cy="162.047" r="14.4" fill="#808080" fill-rule="evenodd" fill-opacity="0.5" stroke="#000000" stroke-opacity="0.5" stroke-width="3.2"/>
<circle clip-path="url(#clip842)" cx="1407.73" cy="1000.41" r="14.4" fill="#808080" fill-rule="evenodd" fill-opacity="0.5" stroke="#000000" stroke-opacity="0.5" stroke-width="3.2"/>
<circle clip-path="url(#clip842)" cx="1428.74" cy="183.523" r="14.4" fill="#808080" fill-rule="evenodd" fill-opacity="0.5" stroke="#000000" stroke-opacity="0.5" stroke-width="3.2"/>
<circle clip-path="url(#clip842)" cx="1449.76" cy="1024.32" r="14.4" fill="#808080" fill-rule="evenodd" fill-opacity="0.5" stroke="#000000" stroke-opacity="0.5" stroke-width="3.2"/>
<circle clip-path="url(#clip842)" cx="1470.77" cy="794.896" r="14.4" fill="#808080" fill-rule="evenodd" fill-opacity="0.5" stroke="#000000" stroke-opacity="0.5" stroke-width="3.2"/>
<circle clip-path="url(#clip842)" cx="1491.79" cy="670.522" r="14.4" fill="#808080" fill-rule="evenodd" fill-opacity="0.5" stroke="#000000" stroke-opacity="0.5" stroke-width="3.2"/>
<circle clip-path="url(#clip842)" cx="1512.8" cy="848.622" r="14.4" fill="#808080" fill-rule="evenodd" fill-opacity="0.5" stroke="#000000" stroke-opacity="0.5" stroke-width="3.2"/>
<circle clip-path="url(#clip842)" cx="1533.81" cy="715.26" r="14.4" fill="#808080" fill-rule="evenodd" fill-opacity="0.5" stroke="#000000" stroke-opacity="0.5" stroke-width="3.2"/>
<circle clip-path="url(#clip842)" cx="1554.83" cy="1001.74" r="14.4" fill="#808080" fill-rule="evenodd" fill-opacity="0.5" stroke="#000000" stroke-opacity="0.5" stroke-width="3.2"/>
<circle clip-path="url(#clip842)" cx="1575.84" cy="985.798" r="14.4" fill="#808080" fill-rule="evenodd" fill-opacity="0.5" stroke="#000000" stroke-opacity="0.5" stroke-width="3.2"/>
<circle clip-path="url(#clip842)" cx="1596.86" cy="431.482" r="14.4" fill="#808080" fill-rule="evenodd" fill-opacity="0.5" stroke="#000000" stroke-opacity="0.5" stroke-width="3.2"/>
<circle clip-path="url(#clip842)" cx="1617.87" cy="1447.87" r="14.4" fill="#808080" fill-rule="evenodd" fill-opacity="0.5" stroke="#000000" stroke-opacity="0.5" stroke-width="3.2"/>
<circle clip-path="url(#clip842)" cx="1638.89" cy="1065.51" r="14.4" fill="#808080" fill-rule="evenodd" fill-opacity="0.5" stroke="#000000" stroke-opacity="0.5" stroke-width="3.2"/>
<circle clip-path="url(#clip842)" cx="1659.9" cy="568.879" r="14.4" fill="#808080" fill-rule="evenodd" fill-opacity="0.5" stroke="#000000" stroke-opacity="0.5" stroke-width="3.2"/>
<circle clip-path="url(#clip842)" cx="1680.92" cy="1018.53" r="14.4" fill="#808080" fill-rule="evenodd" fill-opacity="0.5" stroke="#000000" stroke-opacity="0.5" stroke-width="3.2"/>
<circle clip-path="url(#clip842)" cx="1701.93" cy="644.012" r="14.4" fill="#808080" fill-rule="evenodd" fill-opacity="0.5" stroke="#000000" stroke-opacity="0.5" stroke-width="3.2"/>
<circle clip-path="url(#clip842)" cx="1722.95" cy="929.712" r="14.4" fill="#808080" fill-rule="evenodd" fill-opacity="0.5" stroke="#000000" stroke-opacity="0.5" stroke-width="3.2"/>
<circle clip-path="url(#clip842)" cx="1743.96" cy="477.34" r="14.4" fill="#808080" fill-rule="evenodd" fill-opacity="0.5" stroke="#000000" stroke-opacity="0.5" stroke-width="3.2"/>
<circle clip-path="url(#clip842)" cx="1764.98" cy="1086.01" r="14.4" fill="#808080" fill-rule="evenodd" fill-opacity="0.5" stroke="#000000" stroke-opacity="0.5" stroke-width="3.2"/>
<circle clip-path="url(#clip842)" cx="1785.99" cy="1236.29" r="14.4" fill="#808080" fill-rule="evenodd" fill-opacity="0.5" stroke="#000000" stroke-opacity="0.5" stroke-width="3.2"/>
<circle clip-path="url(#clip842)" cx="1807.01" cy="551.344" r="14.4" fill="#808080" fill-rule="evenodd" fill-opacity="0.5" stroke="#000000" stroke-opacity="0.5" stroke-width="3.2"/>
<circle clip-path="url(#clip842)" cx="1828.02" cy="913.358" r="14.4" fill="#808080" fill-rule="evenodd" fill-opacity="0.5" stroke="#000000" stroke-opacity="0.5" stroke-width="3.2"/>
<circle clip-path="url(#clip842)" cx="1849.03" cy="423.37" r="14.4" fill="#808080" fill-rule="evenodd" fill-opacity="0.5" stroke="#000000" stroke-opacity="0.5" stroke-width="3.2"/>
<circle clip-path="url(#clip842)" cx="1870.05" cy="974.673" r="14.4" fill="#808080" fill-rule="evenodd" fill-opacity="0.5" stroke="#000000" stroke-opacity="0.5" stroke-width="3.2"/>
<circle clip-path="url(#clip842)" cx="1891.06" cy="460.44" r="14.4" fill="#808080" fill-rule="evenodd" fill-opacity="0.5" stroke="#000000" stroke-opacity="0.5" stroke-width="3.2"/>
<circle clip-path="url(#clip842)" cx="1912.08" cy="598.785" r="14.4" fill="#808080" fill-rule="evenodd" fill-opacity="0.5" stroke="#000000" stroke-opacity="0.5" stroke-width="3.2"/>
<circle clip-path="url(#clip842)" cx="1933.09" cy="559.783" r="14.4" fill="#808080" fill-rule="evenodd" fill-opacity="0.5" stroke="#000000" stroke-opacity="0.5" stroke-width="3.2"/>
<circle clip-path="url(#clip842)" cx="1954.11" cy="1113.59" r="14.4" fill="#808080" fill-rule="evenodd" fill-opacity="0.5" stroke="#000000" stroke-opacity="0.5" stroke-width="3.2"/>
<circle clip-path="url(#clip842)" cx="1975.12" cy="485.526" r="14.4" fill="#808080" fill-rule="evenodd" fill-opacity="0.5" stroke="#000000" stroke-opacity="0.5" stroke-width="3.2"/>
<circle clip-path="url(#clip842)" cx="1996.14" cy="406.348" r="14.4" fill="#808080" fill-rule="evenodd" fill-opacity="0.5" stroke="#000000" stroke-opacity="0.5" stroke-width="3.2"/>
<circle clip-path="url(#clip842)" cx="2017.15" cy="550.875" r="14.4" fill="#808080" fill-rule="evenodd" fill-opacity="0.5" stroke="#000000" stroke-opacity="0.5" stroke-width="3.2"/>
<circle clip-path="url(#clip842)" cx="2038.17" cy="1154.97" r="14.4" fill="#808080" fill-rule="evenodd" fill-opacity="0.5" stroke="#000000" stroke-opacity="0.5" stroke-width="3.2"/>
<circle clip-path="url(#clip842)" cx="2059.18" cy="870.195" r="14.4" fill="#808080" fill-rule="evenodd" fill-opacity="0.5" stroke="#000000" stroke-opacity="0.5" stroke-width="3.2"/>
<circle clip-path="url(#clip842)" cx="2080.2" cy="895.798" r="14.4" fill="#808080" fill-rule="evenodd" fill-opacity="0.5" stroke="#000000" stroke-opacity="0.5" stroke-width="3.2"/>
<circle clip-path="url(#clip842)" cx="2101.21" cy="782.171" r="14.4" fill="#808080" fill-rule="evenodd" fill-opacity="0.5" stroke="#000000" stroke-opacity="0.5" stroke-width="3.2"/>
<circle clip-path="url(#clip842)" cx="2122.23" cy="904.311" r="14.4" fill="#808080" fill-rule="evenodd" fill-opacity="0.5" stroke="#000000" stroke-opacity="0.5" stroke-width="3.2"/>
<circle clip-path="url(#clip842)" cx="2143.24" cy="751.954" r="14.4" fill="#808080" fill-rule="evenodd" fill-opacity="0.5" stroke="#000000" stroke-opacity="0.5" stroke-width="3.2"/>
<circle clip-path="url(#clip842)" cx="2164.25" cy="797.767" r="14.4" fill="#808080" fill-rule="evenodd" fill-opacity="0.5" stroke="#000000" stroke-opacity="0.5" stroke-width="3.2"/>
<circle clip-path="url(#clip842)" cx="2185.27" cy="962.119" r="14.4" fill="#808080" fill-rule="evenodd" fill-opacity="0.5" stroke="#000000" stroke-opacity="0.5" stroke-width="3.2"/>
<circle clip-path="url(#clip842)" cx="2206.28" cy="1070.81" r="14.4" fill="#808080" fill-rule="evenodd" fill-opacity="0.5" stroke="#000000" stroke-opacity="0.5" stroke-width="3.2"/>
<circle clip-path="url(#clip842)" cx="2227.3" cy="1107.91" r="14.4" fill="#808080" fill-rule="evenodd" fill-opacity="0.5" stroke="#000000" stroke-opacity="0.5" stroke-width="3.2"/>
<circle clip-path="url(#clip842)" cx="2248.31" cy="860.407" r="14.4" fill="#808080" fill-rule="evenodd" fill-opacity="0.5" stroke="#000000" stroke-opacity="0.5" stroke-width="3.2"/>
<circle clip-path="url(#clip842)" cx="2269.33" cy="717.876" r="14.4" fill="#808080" fill-rule="evenodd" fill-opacity="0.5" stroke="#000000" stroke-opacity="0.5" stroke-width="3.2"/>
<circle clip-path="url(#clip842)" cx="2290.34" cy="782.323" r="14.4" fill="#808080" fill-rule="evenodd" fill-opacity="0.5" stroke="#000000" stroke-opacity="0.5" stroke-width="3.2"/>
<polyline clip-path="url(#clip842)" style="stroke:#000000; stroke-linecap:round; stroke-linejoin:round; stroke-width:6; stroke-opacity:1; fill:none" stroke-dasharray="24, 15" points="
  -2057.8,797.946 4558.03,797.946 
  "/>
<polyline clip-path="url(#clip842)" style="stroke:#008000; stroke-linecap:round; stroke-linejoin:round; stroke-width:12; stroke-opacity:0.6; fill:none" points="
  209.891,892.121 230.906,848.683 251.921,908.855 272.935,812.497 293.95,861.765 314.965,820.035 335.979,852.501 356.994,871.435 378.009,798.389 399.023,790.372 
  420.038,813.091 441.053,775.45 462.067,763.653 483.082,772.086 504.097,784.909 525.111,767.741 546.126,780.261 567.141,787.868 588.155,783.686 609.17,774.026 
  630.185,795.291 651.199,782.391 672.214,783.938 693.229,789.644 714.243,786.093 735.258,795.977 756.272,799.773 777.287,811.056 798.302,804.274 819.316,797.245 
  840.331,796.598 861.346,790.394 882.36,788.334 903.375,780.404 924.39,786.725 945.404,793.035 966.419,796.842 987.434,797.305 1008.45,795.069 1029.46,789.319 
  1050.48,786.114 1071.49,786.482 1092.51,786.789 1113.52,788.439 1134.54,793.872 1155.55,794.036 1176.57,797.017 1197.58,800.645 1218.59,799.273 1239.61,800.01 
  1260.62,800.908 1281.64,806.356 1302.65,811.62 1323.67,809.321 1344.68,808.435 1365.7,811.949 1386.71,800.547 1407.73,803.993 1428.74,793.477 1449.76,797.324 
  1470.77,797.284 1491.79,795.24 1512.8,796.087 1533.81,794.824 1554.83,798.008 1575.84,800.853 1596.86,795.34 1617.87,804.936 1638.89,808.712 1659.9,805.286 
  1680.92,808.29 1701.93,806.008 1722.95,807.702 1743.96,803.238 1764.98,807.008 1785.99,812.657 1807.01,809.263 1828.02,810.598 1849.03,805.696 1870.05,807.808 
  1891.06,803.52 1912.08,801.023 1933.09,798.117 1954.11,801.872 1975.12,798.151 1996.14,793.595 2017.15,790.805 2038.17,794.943 2059.18,795.789 2080.2,796.9 
  2101.21,796.738 2122.23,797.907 2143.24,797.413 2164.25,797.417 2185.27,799.151 2206.28,801.98 2227.3,805.134 2248.31,805.698 2269.33,804.811 2290.34,804.586 
  
  "/>
<path clip-path="url(#clip840)" d="
M220.987 1441.02 L761.629 1441.02 L761.629 1285.5 L220.987 1285.5  Z
  " fill="#ffffff" fill-rule="evenodd" fill-opacity="1"/>
<polyline clip-path="url(#clip840)" style="stroke:#000000; stroke-linecap:round; stroke-linejoin:round; stroke-width:4; stroke-opacity:1; fill:none" points="
  220.987,1441.02 761.629,1441.02 761.629,1285.5 220.987,1285.5 220.987,1441.02 
  "/>
<polyline clip-path="url(#clip840)" style="stroke:#000000; stroke-linecap:round; stroke-linejoin:round; stroke-width:6; stroke-opacity:1; fill:none" stroke-dasharray="24, 15" points="
  245.49,1337.34 392.509,1337.34 
  "/>
<path clip-path="url(#clip840)" d="M417.012 1320.06 L423.979 1320.06 L432.799 1343.57 L441.665 1320.06 L448.632 1320.06 L448.632 1354.62 L444.072 1354.62 L444.072 1324.27 L435.16 1347.97 L430.461 1347.97 L421.549 1324.27 L421.549 1354.62 L417.012 1354.62 L417.012 1320.06 Z" fill="#000000" fill-rule="evenodd" fill-opacity="1" /><path clip-path="url(#clip840)" d="M479.905 1340.59 L479.905 1342.67 L460.322 1342.67 Q460.6 1347.07 462.961 1349.38 Q465.345 1351.68 469.581 1351.68 Q472.035 1351.68 474.326 1351.07 Q476.641 1350.47 478.91 1349.27 L478.91 1353.3 Q476.618 1354.27 474.211 1354.78 Q471.803 1355.29 469.326 1355.29 Q463.123 1355.29 459.489 1351.68 Q455.877 1348.06 455.877 1341.91 Q455.877 1335.54 459.303 1331.81 Q462.752 1328.06 468.586 1328.06 Q473.817 1328.06 476.85 1331.44 Q479.905 1334.8 479.905 1340.59 M475.646 1339.34 Q475.6 1335.84 473.678 1333.76 Q471.78 1331.68 468.632 1331.68 Q465.067 1331.68 462.914 1333.69 Q460.785 1335.7 460.461 1339.36 L475.646 1339.34 Z" fill="#000000" fill-rule="evenodd" fill-opacity="1" /><path clip-path="url(#clip840)" d="M498.678 1341.58 Q493.516 1341.58 491.525 1342.76 Q489.535 1343.94 489.535 1346.79 Q489.535 1349.06 491.016 1350.4 Q492.521 1351.72 495.09 1351.72 Q498.632 1351.72 500.761 1349.22 Q502.914 1346.7 502.914 1342.53 L502.914 1341.58 L498.678 1341.58 M507.173 1339.82 L507.173 1354.62 L502.914 1354.62 L502.914 1350.68 Q501.456 1353.04 499.28 1354.18 Q497.104 1355.29 493.956 1355.29 Q489.974 1355.29 487.613 1353.06 Q485.275 1350.82 485.275 1347.07 Q485.275 1342.69 488.192 1340.47 Q491.132 1338.25 496.942 1338.25 L502.914 1338.25 L502.914 1337.83 Q502.914 1334.89 500.97 1333.3 Q499.048 1331.68 495.553 1331.68 Q493.331 1331.68 491.224 1332.21 Q489.118 1332.74 487.174 1333.81 L487.174 1329.87 Q489.512 1328.97 491.711 1328.53 Q493.91 1328.06 495.993 1328.06 Q501.618 1328.06 504.396 1330.98 Q507.173 1333.9 507.173 1339.82 Z" fill="#000000" fill-rule="evenodd" fill-opacity="1" /><path clip-path="url(#clip840)" d="M537.497 1338.97 L537.497 1354.62 L533.238 1354.62 L533.238 1339.11 Q533.238 1335.43 531.803 1333.6 Q530.368 1331.77 527.497 1331.77 Q524.048 1331.77 522.058 1333.97 Q520.067 1336.17 520.067 1339.96 L520.067 1354.62 L515.785 1354.62 L515.785 1328.69 L520.067 1328.69 L520.067 1332.72 Q521.595 1330.38 523.655 1329.22 Q525.738 1328.06 528.446 1328.06 Q532.914 1328.06 535.206 1330.84 Q537.497 1333.6 537.497 1338.97 Z" fill="#000000" fill-rule="evenodd" fill-opacity="1" /><polyline clip-path="url(#clip840)" style="stroke:#008000; stroke-linecap:round; stroke-linejoin:round; stroke-width:12; stroke-opacity:0.6; fill:none" points="
  245.49,1389.18 392.509,1389.18 
  "/>
<path clip-path="url(#clip840)" d="M439.257 1373.03 L439.257 1377.59 Q436.595 1376.32 434.234 1375.69 Q431.873 1375.07 429.674 1375.07 Q425.854 1375.07 423.771 1376.55 Q421.711 1378.03 421.711 1380.76 Q421.711 1383.05 423.077 1384.23 Q424.466 1385.39 428.308 1386.11 L431.132 1386.69 Q436.364 1387.68 438.84 1390.21 Q441.34 1392.71 441.34 1396.92 Q441.34 1401.94 437.961 1404.53 Q434.604 1407.13 428.1 1407.13 Q425.646 1407.13 422.868 1406.57 Q420.114 1406.02 417.151 1404.93 L417.151 1400.11 Q419.998 1401.71 422.729 1402.52 Q425.461 1403.33 428.1 1403.33 Q432.104 1403.33 434.28 1401.76 Q436.456 1400.18 436.456 1397.27 Q436.456 1394.72 434.882 1393.28 Q433.331 1391.85 429.766 1391.13 L426.919 1390.58 Q421.688 1389.53 419.35 1387.31 Q417.012 1385.09 417.012 1381.13 Q417.012 1376.55 420.229 1373.91 Q423.47 1371.27 429.141 1371.27 Q431.572 1371.27 434.095 1371.71 Q436.618 1372.15 439.257 1373.03 Z" fill="#000000" fill-rule="evenodd" fill-opacity="1" /><path clip-path="url(#clip840)" d="M460.229 1393.42 Q455.067 1393.42 453.077 1394.6 Q451.086 1395.78 451.086 1398.63 Q451.086 1400.9 452.567 1402.24 Q454.072 1403.56 456.641 1403.56 Q460.183 1403.56 462.313 1401.06 Q464.465 1398.54 464.465 1394.37 L464.465 1393.42 L460.229 1393.42 M468.725 1391.66 L468.725 1406.46 L464.465 1406.46 L464.465 1402.52 Q463.007 1404.88 460.831 1406.02 Q458.655 1407.13 455.507 1407.13 Q451.526 1407.13 449.164 1404.9 Q446.827 1402.66 446.827 1398.91 Q446.827 1394.53 449.743 1392.31 Q452.683 1390.09 458.493 1390.09 L464.465 1390.09 L464.465 1389.67 Q464.465 1386.73 462.521 1385.14 Q460.6 1383.52 457.104 1383.52 Q454.882 1383.52 452.776 1384.05 Q450.669 1384.58 448.725 1385.65 L448.725 1381.71 Q451.063 1380.81 453.262 1380.37 Q455.461 1379.9 457.544 1379.9 Q463.169 1379.9 465.947 1382.82 Q468.725 1385.74 468.725 1391.66 Z" fill="#000000" fill-rule="evenodd" fill-opacity="1" /><path clip-path="url(#clip840)" d="M497.683 1385.51 Q499.28 1382.64 501.502 1381.27 Q503.724 1379.9 506.734 1379.9 Q510.785 1379.9 512.984 1382.75 Q515.183 1385.58 515.183 1390.81 L515.183 1406.46 L510.9 1406.46 L510.9 1390.95 Q510.9 1387.22 509.581 1385.41 Q508.261 1383.61 505.553 1383.61 Q502.243 1383.61 500.322 1385.81 Q498.4 1388.01 498.4 1391.8 L498.4 1406.46 L494.118 1406.46 L494.118 1390.95 Q494.118 1387.2 492.799 1385.41 Q491.479 1383.61 488.724 1383.61 Q485.461 1383.61 483.539 1385.83 Q481.618 1388.03 481.618 1391.8 L481.618 1406.46 L477.336 1406.46 L477.336 1380.53 L481.618 1380.53 L481.618 1384.56 Q483.076 1382.17 485.113 1381.04 Q487.15 1379.9 489.951 1379.9 Q492.775 1379.9 494.743 1381.34 Q496.734 1382.77 497.683 1385.51 Z" fill="#000000" fill-rule="evenodd" fill-opacity="1" /><path clip-path="url(#clip840)" d="M527.798 1402.57 L527.798 1416.32 L523.516 1416.32 L523.516 1380.53 L527.798 1380.53 L527.798 1384.46 Q529.141 1382.15 531.178 1381.04 Q533.238 1379.9 536.085 1379.9 Q540.808 1379.9 543.747 1383.65 Q546.71 1387.4 546.71 1393.52 Q546.71 1399.63 543.747 1403.38 Q540.808 1407.13 536.085 1407.13 Q533.238 1407.13 531.178 1406.02 Q529.141 1404.88 527.798 1402.57 M542.289 1393.52 Q542.289 1388.82 540.345 1386.15 Q538.423 1383.47 535.044 1383.47 Q531.664 1383.47 529.72 1386.15 Q527.798 1388.82 527.798 1393.52 Q527.798 1398.21 529.72 1400.9 Q531.664 1403.56 535.044 1403.56 Q538.423 1403.56 540.345 1400.9 Q542.289 1398.21 542.289 1393.52 Z" fill="#000000" fill-rule="evenodd" fill-opacity="1" /><path clip-path="url(#clip840)" d="M553.77 1370.44 L558.03 1370.44 L558.03 1406.46 L553.77 1406.46 L553.77 1370.44 Z" fill="#000000" fill-rule="evenodd" fill-opacity="1" /><path clip-path="url(#clip840)" d="M589.117 1392.43 L589.117 1394.51 L569.534 1394.51 Q569.812 1398.91 572.173 1401.22 Q574.557 1403.52 578.793 1403.52 Q581.247 1403.52 583.539 1402.91 Q585.854 1402.31 588.122 1401.11 L588.122 1405.14 Q585.83 1406.11 583.423 1406.62 Q581.016 1407.13 578.539 1407.13 Q572.335 1407.13 568.701 1403.52 Q565.09 1399.9 565.09 1393.75 Q565.09 1387.38 568.516 1383.65 Q571.965 1379.9 577.798 1379.9 Q583.03 1379.9 586.062 1383.28 Q589.117 1386.64 589.117 1392.43 M584.858 1391.18 Q584.812 1387.68 582.891 1385.6 Q580.992 1383.52 577.844 1383.52 Q574.28 1383.52 572.127 1385.53 Q569.997 1387.54 569.673 1391.2 L584.858 1391.18 Z" fill="#000000" fill-rule="evenodd" fill-opacity="1" /><path clip-path="url(#clip840)" d="M631.363 1385.51 Q632.96 1382.64 635.182 1381.27 Q637.404 1379.9 640.413 1379.9 Q644.464 1379.9 646.663 1382.75 Q648.862 1385.58 648.862 1390.81 L648.862 1406.46 L644.58 1406.46 L644.58 1390.95 Q644.58 1387.22 643.261 1385.41 Q641.941 1383.61 639.233 1383.61 Q635.923 1383.61 634.001 1385.81 Q632.08 1388.01 632.08 1391.8 L632.08 1406.46 L627.798 1406.46 L627.798 1390.95 Q627.798 1387.2 626.478 1385.41 Q625.159 1383.61 622.404 1383.61 Q619.14 1383.61 617.219 1385.83 Q615.298 1388.03 615.298 1391.8 L615.298 1406.46 L611.015 1406.46 L611.015 1380.53 L615.298 1380.53 L615.298 1384.56 Q616.756 1382.17 618.793 1381.04 Q620.83 1379.9 623.631 1379.9 Q626.455 1379.9 628.423 1381.34 Q630.414 1382.77 631.363 1385.51 Z" fill="#000000" fill-rule="evenodd" fill-opacity="1" /><path clip-path="url(#clip840)" d="M679.534 1392.43 L679.534 1394.51 L659.95 1394.51 Q660.228 1398.91 662.589 1401.22 Q664.974 1403.52 669.21 1403.52 Q671.663 1403.52 673.955 1402.91 Q676.27 1402.31 678.538 1401.11 L678.538 1405.14 Q676.247 1406.11 673.839 1406.62 Q671.432 1407.13 668.955 1407.13 Q662.751 1407.13 659.117 1403.52 Q655.506 1399.9 655.506 1393.75 Q655.506 1387.38 658.932 1383.65 Q662.381 1379.9 668.214 1379.9 Q673.446 1379.9 676.478 1383.28 Q679.534 1386.64 679.534 1392.43 M675.274 1391.18 Q675.228 1387.68 673.307 1385.6 Q671.409 1383.52 668.261 1383.52 Q664.696 1383.52 662.543 1385.53 Q660.413 1387.54 660.089 1391.2 L675.274 1391.18 Z" fill="#000000" fill-rule="evenodd" fill-opacity="1" /><path clip-path="url(#clip840)" d="M698.307 1393.42 Q693.145 1393.42 691.154 1394.6 Q689.163 1395.78 689.163 1398.63 Q689.163 1400.9 690.645 1402.24 Q692.149 1403.56 694.719 1403.56 Q698.26 1403.56 700.39 1401.06 Q702.543 1398.54 702.543 1394.37 L702.543 1393.42 L698.307 1393.42 M706.802 1391.66 L706.802 1406.46 L702.543 1406.46 L702.543 1402.52 Q701.084 1404.88 698.909 1406.02 Q696.733 1407.13 693.584 1407.13 Q689.603 1407.13 687.242 1404.9 Q684.904 1402.66 684.904 1398.91 Q684.904 1394.53 687.821 1392.31 Q690.76 1390.09 696.571 1390.09 L702.543 1390.09 L702.543 1389.67 Q702.543 1386.73 700.598 1385.14 Q698.677 1383.52 695.182 1383.52 Q692.959 1383.52 690.853 1384.05 Q688.747 1384.58 686.802 1385.65 L686.802 1381.71 Q689.14 1380.81 691.339 1380.37 Q693.538 1379.9 695.622 1379.9 Q701.246 1379.9 704.024 1382.82 Q706.802 1385.74 706.802 1391.66 Z" fill="#000000" fill-rule="evenodd" fill-opacity="1" /><path clip-path="url(#clip840)" d="M737.126 1390.81 L737.126 1406.46 L732.867 1406.46 L732.867 1390.95 Q732.867 1387.27 731.432 1385.44 Q729.996 1383.61 727.126 1383.61 Q723.677 1383.61 721.686 1385.81 Q719.695 1388.01 719.695 1391.8 L719.695 1406.46 L715.413 1406.46 L715.413 1380.53 L719.695 1380.53 L719.695 1384.56 Q721.223 1382.22 723.283 1381.06 Q725.367 1379.9 728.075 1379.9 Q732.543 1379.9 734.834 1382.68 Q737.126 1385.44 737.126 1390.81 Z" fill="#000000" fill-rule="evenodd" fill-opacity="1" /></svg>
