<?xml version="1.0" encoding="utf-8"?>
<svg xmlns="http://www.w3.org/2000/svg" xmlns:xlink="http://www.w3.org/1999/xlink" width="600" height="400" viewBox="0 0 2400 1600">
<defs>
  <clipPath id="clip270">
    <rect x="0" y="0" width="2400" height="1600"/>
  </clipPath>
</defs>
<path clip-path="url(#clip270)" d="
M0 1600 L2400 1600 L2400 0 L0 0  Z
  " fill="#ffffff" fill-rule="evenodd" fill-opacity="1"/>
<defs>
  <clipPath id="clip271">
    <rect x="480" y="0" width="1681" height="1600"/>
  </clipPath>
</defs>
<path clip-path="url(#clip270)" d="
M147.478 1486.45 L2352.76 1486.45 L2352.76 123.472 L147.478 123.472  Z
  " fill="#ffffff" fill-rule="evenodd" fill-opacity="1"/>
<defs>
  <clipPath id="clip272">
    <rect x="147" y="123" width="2206" height="1364"/>
  </clipPath>
</defs>
<polyline clip-path="url(#clip270)" style="stroke:#000000; stroke-linecap:butt; stroke-linejoin:round; stroke-width:4; stroke-opacity:1; fill:none" points="
  147.478,1486.45 2352.76,1486.45 
  "/>
<polyline clip-path="url(#clip270)" style="stroke:#000000; stroke-linecap:butt; stroke-linejoin:round; stroke-width:4; stroke-opacity:1; fill:none" points="
  188.877,1486.45 188.877,1467.55 
  "/>
<polyline clip-path="url(#clip270)" style="stroke:#000000; stroke-linecap:butt; stroke-linejoin:round; stroke-width:4; stroke-opacity:1; fill:none" points="
  714.243,1486.45 714.243,1467.55 
  "/>
<polyline clip-path="url(#clip270)" style="stroke:#000000; stroke-linecap:butt; stroke-linejoin:round; stroke-width:4; stroke-opacity:1; fill:none" points="
  1239.61,1486.45 1239.61,1467.55 
  "/>
<polyline clip-path="url(#clip270)" style="stroke:#000000; stroke-linecap:butt; stroke-linejoin:round; stroke-width:4; stroke-opacity:1; fill:none" points="
  1764.98,1486.45 1764.98,1467.55 
  "/>
<polyline clip-path="url(#clip270)" style="stroke:#000000; stroke-linecap:butt; stroke-linejoin:round; stroke-width:4; stroke-opacity:1; fill:none" points="
  2290.34,1486.45 2290.34,1467.55 
  "/>
<path clip-path="url(#clip270)" d="M188.877 1515.64 Q185.266 1515.64 183.437 1519.2 Q181.631 1522.75 181.631 1529.87 Q181.631 1536.98 183.437 1540.55 Q185.266 1544.09 188.877 1544.09 Q192.511 1544.09 194.317 1540.55 Q196.145 1536.98 196.145 1529.87 Q196.145 1522.75 194.317 1519.2 Q192.511 1515.64 188.877 1515.64 M188.877 1511.93 Q194.687 1511.93 197.742 1516.54 Q200.821 1521.12 200.821 1529.87 Q200.821 1538.6 197.742 1543.21 Q194.687 1547.79 188.877 1547.79 Q183.067 1547.79 179.988 1543.21 Q176.932 1538.6 176.932 1529.87 Q176.932 1521.12 179.988 1516.54 Q183.067 1511.93 188.877 1511.93 Z" fill="#000000" fill-rule="evenodd" fill-opacity="1" /><path clip-path="url(#clip270)" d="M693.514 1543.18 L709.833 1543.18 L709.833 1547.12 L687.889 1547.12 L687.889 1543.18 Q690.551 1540.43 695.134 1535.8 Q699.741 1531.15 700.921 1529.81 Q703.167 1527.28 704.046 1525.55 Q704.949 1523.79 704.949 1522.1 Q704.949 1519.34 703.005 1517.61 Q701.084 1515.87 697.982 1515.87 Q695.783 1515.87 693.329 1516.63 Q690.898 1517.4 688.121 1518.95 L688.121 1514.23 Q690.945 1513.09 693.398 1512.51 Q695.852 1511.93 697.889 1511.93 Q703.259 1511.93 706.454 1514.62 Q709.648 1517.31 709.648 1521.8 Q709.648 1523.93 708.838 1525.85 Q708.051 1527.74 705.945 1530.34 Q705.366 1531.01 702.264 1534.23 Q699.162 1537.42 693.514 1543.18 Z" fill="#000000" fill-rule="evenodd" fill-opacity="1" /><path clip-path="url(#clip270)" d="M719.695 1512.56 L738.051 1512.56 L738.051 1516.5 L723.977 1516.5 L723.977 1524.97 Q724.995 1524.62 726.014 1524.46 Q727.032 1524.27 728.051 1524.27 Q733.838 1524.27 737.218 1527.44 Q740.597 1530.62 740.597 1536.03 Q740.597 1541.61 737.125 1544.71 Q733.653 1547.79 727.333 1547.79 Q725.157 1547.79 722.889 1547.42 Q720.644 1547.05 718.236 1546.31 L718.236 1541.61 Q720.32 1542.74 722.542 1543.3 Q724.764 1543.86 727.241 1543.86 Q731.245 1543.86 733.583 1541.75 Q735.921 1539.64 735.921 1536.03 Q735.921 1532.42 733.583 1530.31 Q731.245 1528.21 727.241 1528.21 Q725.366 1528.21 723.491 1528.62 Q721.639 1529.04 719.695 1529.92 L719.695 1512.56 Z" fill="#000000" fill-rule="evenodd" fill-opacity="1" /><path clip-path="url(#clip270)" d="M1214.31 1512.56 L1232.67 1512.56 L1232.67 1516.5 L1218.59 1516.5 L1218.59 1524.97 Q1219.61 1524.62 1220.63 1524.46 Q1221.65 1524.27 1222.67 1524.27 Q1228.45 1524.27 1231.83 1527.44 Q1235.21 1530.62 1235.21 1536.03 Q1235.21 1541.61 1231.74 1544.71 Q1228.27 1547.79 1221.95 1547.79 Q1219.77 1547.79 1217.5 1547.42 Q1215.26 1547.05 1212.85 1546.31 L1212.85 1541.61 Q1214.93 1542.74 1217.16 1543.3 Q1219.38 1543.86 1221.86 1543.86 Q1225.86 1543.86 1228.2 1541.75 Q1230.54 1539.64 1230.54 1536.03 Q1230.54 1532.42 1228.2 1530.31 Q1225.86 1528.21 1221.86 1528.21 Q1219.98 1528.21 1218.11 1528.62 Q1216.25 1529.04 1214.31 1529.92 L1214.31 1512.56 Z" fill="#000000" fill-rule="evenodd" fill-opacity="1" /><path clip-path="url(#clip270)" d="M1254.42 1515.64 Q1250.81 1515.64 1248.98 1519.2 Q1247.18 1522.75 1247.18 1529.87 Q1247.18 1536.98 1248.98 1540.55 Q1250.81 1544.09 1254.42 1544.09 Q1258.06 1544.09 1259.86 1540.55 Q1261.69 1536.98 1261.69 1529.87 Q1261.69 1522.75 1259.86 1519.2 Q1258.06 1515.64 1254.42 1515.64 M1254.42 1511.93 Q1260.23 1511.93 1263.29 1516.54 Q1266.37 1521.12 1266.37 1529.87 Q1266.37 1538.6 1263.29 1543.21 Q1260.23 1547.79 1254.42 1547.79 Q1248.61 1547.79 1245.54 1543.21 Q1242.48 1538.6 1242.48 1529.87 Q1242.48 1521.12 1245.54 1516.54 Q1248.61 1511.93 1254.42 1511.93 Z" fill="#000000" fill-rule="evenodd" fill-opacity="1" /><path clip-path="url(#clip270)" d="M1738.83 1512.56 L1761.05 1512.56 L1761.05 1514.55 L1748.51 1547.12 L1743.62 1547.12 L1755.43 1516.5 L1738.83 1516.5 L1738.83 1512.56 Z" fill="#000000" fill-rule="evenodd" fill-opacity="1" /><path clip-path="url(#clip270)" d="M1770.22 1512.56 L1788.58 1512.56 L1788.58 1516.5 L1774.5 1516.5 L1774.5 1524.97 Q1775.52 1524.62 1776.54 1524.46 Q1777.56 1524.27 1778.58 1524.27 Q1784.36 1524.27 1787.74 1527.44 Q1791.12 1530.62 1791.12 1536.03 Q1791.12 1541.61 1787.65 1544.71 Q1784.18 1547.79 1777.86 1547.79 Q1775.68 1547.79 1773.41 1547.42 Q1771.17 1547.05 1768.76 1546.31 L1768.76 1541.61 Q1770.84 1542.74 1773.07 1543.3 Q1775.29 1543.86 1777.77 1543.86 Q1781.77 1543.86 1784.11 1541.75 Q1786.45 1539.64 1786.45 1536.03 Q1786.45 1532.42 1784.11 1530.31 Q1781.77 1528.21 1777.77 1528.21 Q1775.89 1528.21 1774.02 1528.62 Q1772.16 1529.04 1770.22 1529.92 L1770.22 1512.56 Z" fill="#000000" fill-rule="evenodd" fill-opacity="1" /><path clip-path="url(#clip270)" d="M2249.95 1543.18 L2257.59 1543.18 L2257.59 1516.82 L2249.28 1518.49 L2249.28 1514.23 L2257.54 1512.56 L2262.22 1512.56 L2262.22 1543.18 L2269.86 1543.18 L2269.86 1547.12 L2249.95 1547.12 L2249.95 1543.18 Z" fill="#000000" fill-rule="evenodd" fill-opacity="1" /><path clip-path="url(#clip270)" d="M2289.3 1515.64 Q2285.69 1515.64 2283.86 1519.2 Q2282.06 1522.75 2282.06 1529.87 Q2282.06 1536.98 2283.86 1540.55 Q2285.69 1544.09 2289.3 1544.09 Q2292.93 1544.09 2294.74 1540.55 Q2296.57 1536.98 2296.57 1529.87 Q2296.57 1522.75 2294.74 1519.2 Q2292.93 1515.64 2289.3 1515.64 M2289.3 1511.93 Q2295.11 1511.93 2298.17 1516.54 Q2301.25 1521.12 2301.25 1529.87 Q2301.25 1538.6 2298.17 1543.21 Q2295.11 1547.79 2289.3 1547.79 Q2283.49 1547.79 2280.41 1543.21 Q2277.36 1538.6 2277.36 1529.87 Q2277.36 1521.12 2280.41 1516.54 Q2283.49 1511.93 2289.3 1511.93 Z" fill="#000000" fill-rule="evenodd" fill-opacity="1" /><path clip-path="url(#clip270)" d="M2319.46 1515.64 Q2315.85 1515.64 2314.02 1519.2 Q2312.22 1522.75 2312.22 1529.87 Q2312.22 1536.98 2314.02 1540.55 Q2315.85 1544.09 2319.46 1544.09 Q2323.1 1544.09 2324.9 1540.55 Q2326.73 1536.98 2326.73 1529.87 Q2326.73 1522.75 2324.9 1519.2 Q2323.1 1515.64 2319.46 1515.64 M2319.46 1511.93 Q2325.27 1511.93 2328.33 1516.54 Q2331.41 1521.12 2331.41 1529.87 Q2331.41 1538.6 2328.33 1543.21 Q2325.27 1547.79 2319.46 1547.79 Q2313.65 1547.79 2310.57 1543.21 Q2307.52 1538.6 2307.52 1529.87 Q2307.52 1521.12 2310.57 1516.54 Q2313.65 1511.93 2319.46 1511.93 Z" fill="#000000" fill-rule="evenodd" fill-opacity="1" /><polyline clip-path="url(#clip270)" style="stroke:#000000; stroke-linecap:butt; stroke-linejoin:round; stroke-width:4; stroke-opacity:1; fill:none" points="
  147.478,1486.45 147.478,123.472 
  "/>
<polyline clip-path="url(#clip270)" style="stroke:#000000; stroke-linecap:butt; stroke-linejoin:round; stroke-width:4; stroke-opacity:1; fill:none" points="
  147.478,1263.64 166.376,1263.64 
  "/>
<polyline clip-path="url(#clip270)" style="stroke:#000000; stroke-linecap:butt; stroke-linejoin:round; stroke-width:4; stroke-opacity:1; fill:none" points="
  147.478,997.404 166.376,997.404 
  "/>
<polyline clip-path="url(#clip270)" style="stroke:#000000; stroke-linecap:butt; stroke-linejoin:round; stroke-width:4; stroke-opacity:1; fill:none" points="
  147.478,731.166 166.376,731.166 
  "/>
<polyline clip-path="url(#clip270)" style="stroke:#000000; stroke-linecap:butt; stroke-linejoin:round; stroke-width:4; stroke-opacity:1; fill:none" points="
  147.478,464.928 166.376,464.928 
  "/>
<polyline clip-path="url(#clip270)" style="stroke:#000000; stroke-linecap:butt; stroke-linejoin:round; stroke-width:4; stroke-opacity:1; fill:none" points="
  147.478,198.69 166.376,198.69 
  "/>
<path clip-path="url(#clip270)" d="M51.3625 1264.09 L81.0383 1264.09 L81.0383 1268.03 L51.3625 1268.03 L51.3625 1264.09 Z" fill="#000000" fill-rule="evenodd" fill-opacity="1" /><path clip-path="url(#clip270)" d="M95.1586 1276.99 L111.478 1276.99 L111.478 1280.92 L89.5336 1280.92 L89.5336 1276.99 Q92.1956 1274.23 96.7789 1269.6 Q101.385 1264.95 102.566 1263.61 Q104.811 1261.08 105.691 1259.35 Q106.594 1257.59 106.594 1255.9 Q106.594 1253.14 104.649 1251.41 Q102.728 1249.67 99.6261 1249.67 Q97.4271 1249.67 94.9734 1250.44 Q92.5428 1251.2 89.7651 1252.75 L89.7651 1248.03 Q92.5891 1246.89 95.0428 1246.32 Q97.4965 1245.74 99.5335 1245.74 Q104.904 1245.74 108.098 1248.42 Q111.293 1251.11 111.293 1255.6 Q111.293 1257.73 110.483 1259.65 Q109.696 1261.55 107.589 1264.14 Q107.01 1264.81 103.909 1268.03 Q100.807 1271.22 95.1586 1276.99 Z" fill="#000000" fill-rule="evenodd" fill-opacity="1" /><path clip-path="url(#clip270)" d="M50.9921 997.855 L80.6679 997.855 L80.6679 1001.79 L50.9921 1001.79 L50.9921 997.855 Z" fill="#000000" fill-rule="evenodd" fill-opacity="1" /><path clip-path="url(#clip270)" d="M91.5706 1010.75 L99.2095 1010.75 L99.2095 984.383 L90.8993 986.05 L90.8993 981.79 L99.1632 980.124 L103.839 980.124 L103.839 1010.75 L111.478 1010.75 L111.478 1014.68 L91.5706 1014.68 L91.5706 1010.75 Z" fill="#000000" fill-rule="evenodd" fill-opacity="1" /><path clip-path="url(#clip270)" d="M99.5335 716.964 Q95.9224 716.964 94.0937 720.529 Q92.2882 724.071 92.2882 731.2 Q92.2882 738.307 94.0937 741.872 Q95.9224 745.413 99.5335 745.413 Q103.168 745.413 104.973 741.872 Q106.802 738.307 106.802 731.2 Q106.802 724.071 104.973 720.529 Q103.168 716.964 99.5335 716.964 M99.5335 713.261 Q105.344 713.261 108.399 717.867 Q111.478 722.45 111.478 731.2 Q111.478 739.927 108.399 744.534 Q105.344 749.117 99.5335 749.117 Q93.7234 749.117 90.6447 744.534 Q87.5892 739.927 87.5892 731.2 Q87.5892 722.45 90.6447 717.867 Q93.7234 713.261 99.5335 713.261 Z" fill="#000000" fill-rule="evenodd" fill-opacity="1" /><path clip-path="url(#clip270)" d="M91.5706 478.273 L99.2095 478.273 L99.2095 451.907 L90.8993 453.574 L90.8993 449.314 L99.1632 447.648 L103.839 447.648 L103.839 478.273 L111.478 478.273 L111.478 482.208 L91.5706 482.208 L91.5706 478.273 Z" fill="#000000" fill-rule="evenodd" fill-opacity="1" /><path clip-path="url(#clip270)" d="M95.1586 212.035 L111.478 212.035 L111.478 215.97 L89.5336 215.97 L89.5336 212.035 Q92.1956 209.28 96.7789 204.65 Q101.385 199.998 102.566 198.655 Q104.811 196.132 105.691 194.396 Q106.594 192.637 106.594 190.947 Q106.594 188.192 104.649 186.456 Q102.728 184.72 99.6261 184.72 Q97.4271 184.72 94.9734 185.484 Q92.5428 186.248 89.7651 187.799 L89.7651 183.076 Q92.5891 181.942 95.0428 181.363 Q97.4965 180.785 99.5335 180.785 Q104.904 180.785 108.098 183.47 Q111.293 186.155 111.293 190.646 Q111.293 192.775 110.483 194.697 Q109.696 196.595 107.589 199.187 Q107.01 199.859 103.909 203.076 Q100.807 206.271 95.1586 212.035 Z" fill="#000000" fill-rule="evenodd" fill-opacity="1" /><path clip-path="url(#clip270)" d="M1107.99 12.096 L1119.01 12.096 L1145.83 62.6918 L1145.83 12.096 L1153.77 12.096 L1153.77 72.576 L1142.75 72.576 L1115.93 21.9802 L1115.93 72.576 L1107.99 72.576 L1107.99 12.096 Z" fill="#000000" fill-rule="evenodd" fill-opacity="1" /><path clip-path="url(#clip270)" d="M1187.31 32.4315 Q1181.31 32.4315 1177.83 37.1306 Q1174.34 41.7891 1174.34 49.9314 Q1174.34 58.0738 1177.79 62.7728 Q1181.27 67.4314 1187.31 67.4314 Q1193.26 67.4314 1196.75 62.7323 Q1200.23 58.0333 1200.23 49.9314 Q1200.23 41.8701 1196.75 37.1711 Q1193.26 32.4315 1187.31 32.4315 M1187.31 26.1121 Q1197.03 26.1121 1202.58 32.4315 Q1208.13 38.7509 1208.13 49.9314 Q1208.13 61.0714 1202.58 67.4314 Q1197.03 73.7508 1187.31 73.7508 Q1177.54 73.7508 1172 67.4314 Q1166.49 61.0714 1166.49 49.9314 Q1166.49 38.7509 1172 32.4315 Q1177.54 26.1121 1187.31 26.1121 Z" fill="#000000" fill-rule="evenodd" fill-opacity="1" /><path clip-path="url(#clip270)" d="M1246.77 34.1734 Q1245.52 33.4443 1244.02 33.1202 Q1242.56 32.7556 1240.78 32.7556 Q1234.46 32.7556 1231.06 36.8875 Q1227.7 40.9789 1227.7 48.6757 L1227.7 72.576 L1220.2 72.576 L1220.2 27.2059 L1227.7 27.2059 L1227.7 34.2544 Q1230.04 30.1225 1233.81 28.1376 Q1237.58 26.1121 1242.97 26.1121 Q1243.74 26.1121 1244.67 26.2337 Q1245.6 26.3147 1246.73 26.5172 L1246.77 34.1734 Z" fill="#000000" fill-rule="evenodd" fill-opacity="1" /><path clip-path="url(#clip270)" d="M1288.46 35.9153 Q1291.25 30.8922 1295.14 28.5022 Q1299.03 26.1121 1304.3 26.1121 Q1311.39 26.1121 1315.24 31.0947 Q1319.08 36.0368 1319.08 45.1919 L1319.08 72.576 L1311.59 72.576 L1311.59 45.4349 Q1311.59 38.913 1309.28 35.7533 Q1306.97 32.5936 1302.23 32.5936 Q1296.44 32.5936 1293.08 36.4419 Q1289.71 40.2903 1289.71 46.9338 L1289.71 72.576 L1282.22 72.576 L1282.22 45.4349 Q1282.22 38.8725 1279.91 35.7533 Q1277.6 32.5936 1272.78 32.5936 Q1267.07 32.5936 1263.71 36.4824 Q1260.35 40.3308 1260.35 46.9338 L1260.35 72.576 L1252.85 72.576 L1252.85 27.2059 L1260.35 27.2059 L1260.35 34.2544 Q1262.9 30.082 1266.46 28.0971 Q1270.03 26.1121 1274.93 26.1121 Q1279.87 26.1121 1283.31 28.6237 Q1286.8 31.1352 1288.46 35.9153 Z" fill="#000000" fill-rule="evenodd" fill-opacity="1" /><path clip-path="url(#clip270)" d="M1354.57 49.7694 Q1345.54 49.7694 1342.05 51.8354 Q1338.57 53.9013 1338.57 58.8839 Q1338.57 62.8538 1341.16 65.2034 Q1343.79 67.5124 1348.29 67.5124 Q1354.49 67.5124 1358.22 63.1374 Q1361.98 58.7219 1361.98 51.4303 L1361.98 49.7694 L1354.57 49.7694 M1369.44 46.6907 L1369.44 72.576 L1361.98 72.576 L1361.98 65.6895 Q1359.43 69.8214 1355.62 71.8063 Q1351.81 73.7508 1346.31 73.7508 Q1339.34 73.7508 1335.21 69.8619 Q1331.11 65.9325 1331.11 59.3701 Q1331.11 51.7138 1336.22 47.825 Q1341.36 43.9361 1351.53 43.9361 L1361.98 43.9361 L1361.98 43.2069 Q1361.98 38.0623 1358.58 35.2672 Q1355.22 32.4315 1349.1 32.4315 Q1345.21 32.4315 1341.53 33.3632 Q1337.84 34.295 1334.44 36.1584 L1334.44 29.2718 Q1338.53 27.692 1342.38 26.9223 Q1346.22 26.1121 1349.87 26.1121 Q1359.71 26.1121 1364.58 31.2163 Q1369.44 36.3204 1369.44 46.6907 Z" fill="#000000" fill-rule="evenodd" fill-opacity="1" /><path clip-path="url(#clip270)" d="M1384.79 9.54393 L1392.24 9.54393 L1392.24 72.576 L1384.79 72.576 L1384.79 9.54393 Z" fill="#000000" fill-rule="evenodd" fill-opacity="1" /><polyline clip-path="url(#clip272)" style="stroke:#808080; stroke-linecap:butt; stroke-linejoin:round; stroke-width:4; stroke-opacity:0.5; fill:none" points="
  209.891,731.166 209.891,906.184 
  "/>
<polyline clip-path="url(#clip272)" style="stroke:#808080; stroke-linecap:butt; stroke-linejoin:round; stroke-width:4; stroke-opacity:0.5; fill:none" points="
  230.906,731.166 230.906,1040.6 
  "/>
<polyline clip-path="url(#clip272)" style="stroke:#808080; stroke-linecap:butt; stroke-linejoin:round; stroke-width:4; stroke-opacity:0.5; fill:none" points="
  251.921,731.166 251.921,559.633 
  "/>
<polyline clip-path="url(#clip272)" style="stroke:#808080; stroke-linecap:butt; stroke-linejoin:round; stroke-width:4; stroke-opacity:0.5; fill:none" points="
  272.935,731.166 272.935,1083.02 
  "/>
<polyline clip-path="url(#clip272)" style="stroke:#808080; stroke-linecap:butt; stroke-linejoin:round; stroke-width:4; stroke-opacity:0.5; fill:none" points="
  293.95,731.166 293.95,1447.87 
  "/>
<polyline clip-path="url(#clip272)" style="stroke:#808080; stroke-linecap:butt; stroke-linejoin:round; stroke-width:4; stroke-opacity:0.5; fill:none" points="
  314.965,731.166 314.965,1231.59 
  "/>
<polyline clip-path="url(#clip272)" style="stroke:#808080; stroke-linecap:butt; stroke-linejoin:round; stroke-width:4; stroke-opacity:0.5; fill:none" points="
  335.979,731.166 335.979,633.128 
  "/>
<polyline clip-path="url(#clip272)" style="stroke:#808080; stroke-linecap:butt; stroke-linejoin:round; stroke-width:4; stroke-opacity:0.5; fill:none" points="
  356.994,731.166 356.994,651.385 
  "/>
<polyline clip-path="url(#clip272)" style="stroke:#808080; stroke-linecap:butt; stroke-linejoin:round; stroke-width:4; stroke-opacity:0.5; fill:none" points="
  378.009,731.166 378.009,816.832 
  "/>
<polyline clip-path="url(#clip272)" style="stroke:#808080; stroke-linecap:butt; stroke-linejoin:round; stroke-width:4; stroke-opacity:0.5; fill:none" points="
  399.023,731.166 399.023,969.57 
  "/>
<polyline clip-path="url(#clip272)" style="stroke:#808080; stroke-linecap:butt; stroke-linejoin:round; stroke-width:4; stroke-opacity:0.5; fill:none" points="
  420.038,731.166 420.038,815.653 
  "/>
<polyline clip-path="url(#clip272)" style="stroke:#808080; stroke-linecap:butt; stroke-linejoin:round; stroke-width:4; stroke-opacity:0.5; fill:none" points="
  441.053,731.166 441.053,924.069 
  "/>
<polyline clip-path="url(#clip272)" style="stroke:#808080; stroke-linecap:butt; stroke-linejoin:round; stroke-width:4; stroke-opacity:0.5; fill:none" points="
  462.067,731.166 462.067,528.288 
  "/>
<polyline clip-path="url(#clip272)" style="stroke:#808080; stroke-linecap:butt; stroke-linejoin:round; stroke-width:4; stroke-opacity:0.5; fill:none" points="
  483.082,731.166 483.082,722.533 
  "/>
<polyline clip-path="url(#clip272)" style="stroke:#808080; stroke-linecap:butt; stroke-linejoin:round; stroke-width:4; stroke-opacity:0.5; fill:none" points="
  504.097,731.166 504.097,511.985 
  "/>
<polyline clip-path="url(#clip272)" style="stroke:#808080; stroke-linecap:butt; stroke-linejoin:round; stroke-width:4; stroke-opacity:0.5; fill:none" points="
  525.111,731.166 525.111,697.738 
  "/>
<polyline clip-path="url(#clip272)" style="stroke:#808080; stroke-linecap:butt; stroke-linejoin:round; stroke-width:4; stroke-opacity:0.5; fill:none" points="
  546.126,731.166 546.126,486.814 
  "/>
<polyline clip-path="url(#clip272)" style="stroke:#808080; stroke-linecap:butt; stroke-linejoin:round; stroke-width:4; stroke-opacity:0.5; fill:none" points="
  567.141,731.166 567.141,1124.66 
  "/>
<polyline clip-path="url(#clip272)" style="stroke:#808080; stroke-linecap:butt; stroke-linejoin:round; stroke-width:4; stroke-opacity:0.5; fill:none" points="
  588.155,731.166 588.155,989.179 
  "/>
<polyline clip-path="url(#clip272)" style="stroke:#808080; stroke-linecap:butt; stroke-linejoin:round; stroke-width:4; stroke-opacity:0.5; fill:none" points="
  609.17,731.166 609.17,1012.17 
  "/>
<polyline clip-path="url(#clip272)" style="stroke:#808080; stroke-linecap:butt; stroke-linejoin:round; stroke-width:4; stroke-opacity:0.5; fill:none" points="
  630.185,731.166 630.185,826.099 
  "/>
<polyline clip-path="url(#clip272)" style="stroke:#808080; stroke-linecap:butt; stroke-linejoin:round; stroke-width:4; stroke-opacity:0.5; fill:none" points="
  651.199,731.166 651.199,593.033 
  "/>
<polyline clip-path="url(#clip272)" style="stroke:#808080; stroke-linecap:butt; stroke-linejoin:round; stroke-width:4; stroke-opacity:0.5; fill:none" points="
  672.214,731.166 672.214,677.629 
  "/>
<polyline clip-path="url(#clip272)" style="stroke:#808080; stroke-linecap:butt; stroke-linejoin:round; stroke-width:4; stroke-opacity:0.5; fill:none" points="
  693.229,731.166 693.229,683.137 
  "/>
<polyline clip-path="url(#clip272)" style="stroke:#808080; stroke-linecap:butt; stroke-linejoin:round; stroke-width:4; stroke-opacity:0.5; fill:none" points="
  714.243,731.166 714.243,958.226 
  "/>
<polyline clip-path="url(#clip272)" style="stroke:#808080; stroke-linecap:butt; stroke-linejoin:round; stroke-width:4; stroke-opacity:0.5; fill:none" points="
  735.258,731.166 735.258,734.203 
  "/>
<polyline clip-path="url(#clip272)" style="stroke:#808080; stroke-linecap:butt; stroke-linejoin:round; stroke-width:4; stroke-opacity:0.5; fill:none" points="
  756.272,731.166 756.272,620.439 
  "/>
<polyline clip-path="url(#clip272)" style="stroke:#808080; stroke-linecap:butt; stroke-linejoin:round; stroke-width:4; stroke-opacity:0.5; fill:none" points="
  777.287,731.166 777.287,219.671 
  "/>
<polyline clip-path="url(#clip272)" style="stroke:#808080; stroke-linecap:butt; stroke-linejoin:round; stroke-width:4; stroke-opacity:0.5; fill:none" points="
  798.302,731.166 798.302,1031.83 
  "/>
<polyline clip-path="url(#clip272)" style="stroke:#808080; stroke-linecap:butt; stroke-linejoin:round; stroke-width:4; stroke-opacity:0.5; fill:none" points="
  819.316,731.166 819.316,451.42 
  "/>
<polyline clip-path="url(#clip272)" style="stroke:#808080; stroke-linecap:butt; stroke-linejoin:round; stroke-width:4; stroke-opacity:0.5; fill:none" points="
  840.331,731.166 840.331,263.071 
  "/>
<polyline clip-path="url(#clip272)" style="stroke:#808080; stroke-linecap:butt; stroke-linejoin:round; stroke-width:4; stroke-opacity:0.5; fill:none" points="
  861.346,731.166 861.346,843.667 
  "/>
<polyline clip-path="url(#clip272)" style="stroke:#808080; stroke-linecap:butt; stroke-linejoin:round; stroke-width:4; stroke-opacity:0.5; fill:none" points="
  882.36,731.166 882.36,816.6 
  "/>
<polyline clip-path="url(#clip272)" style="stroke:#808080; stroke-linecap:butt; stroke-linejoin:round; stroke-width:4; stroke-opacity:0.5; fill:none" points="
  903.375,731.166 903.375,1181.97 
  "/>
<polyline clip-path="url(#clip272)" style="stroke:#808080; stroke-linecap:butt; stroke-linejoin:round; stroke-width:4; stroke-opacity:0.5; fill:none" points="
  924.39,731.166 924.39,995.588 
  "/>
<polyline clip-path="url(#clip272)" style="stroke:#808080; stroke-linecap:butt; stroke-linejoin:round; stroke-width:4; stroke-opacity:0.5; fill:none" points="
  945.404,731.166 945.404,702.411 
  "/>
<polyline clip-path="url(#clip272)" style="stroke:#808080; stroke-linecap:butt; stroke-linejoin:round; stroke-width:4; stroke-opacity:0.5; fill:none" points="
  966.419,731.166 966.419,1023.89 
  "/>
<polyline clip-path="url(#clip272)" style="stroke:#808080; stroke-linecap:butt; stroke-linejoin:round; stroke-width:4; stroke-opacity:0.5; fill:none" points="
  987.434,731.166 987.434,655.468 
  "/>
<polyline clip-path="url(#clip272)" style="stroke:#808080; stroke-linecap:butt; stroke-linejoin:round; stroke-width:4; stroke-opacity:0.5; fill:none" points="
  1008.45,731.166 1008.45,861.059 
  "/>
<polyline clip-path="url(#clip272)" style="stroke:#808080; stroke-linecap:butt; stroke-linejoin:round; stroke-width:4; stroke-opacity:0.5; fill:none" points="
  1029.46,731.166 1029.46,484.404 
  "/>
<polyline clip-path="url(#clip272)" style="stroke:#808080; stroke-linecap:butt; stroke-linejoin:round; stroke-width:4; stroke-opacity:0.5; fill:none" points="
  1050.48,731.166 1050.48,603.083 
  "/>
<polyline clip-path="url(#clip272)" style="stroke:#808080; stroke-linecap:butt; stroke-linejoin:round; stroke-width:4; stroke-opacity:0.5; fill:none" points="
  1071.49,731.166 1071.49,754.716 
  "/>
<polyline clip-path="url(#clip272)" style="stroke:#808080; stroke-linecap:butt; stroke-linejoin:round; stroke-width:4; stroke-opacity:0.5; fill:none" points="
  1092.51,731.166 1092.51,752.818 
  "/>
<polyline clip-path="url(#clip272)" style="stroke:#808080; stroke-linecap:butt; stroke-linejoin:round; stroke-width:4; stroke-opacity:0.5; fill:none" points="
  1113.52,731.166 1113.52,973.26 
  "/>
<polyline clip-path="url(#clip272)" style="stroke:#808080; stroke-linecap:butt; stroke-linejoin:round; stroke-width:4; stroke-opacity:0.5; fill:none" points="
  1134.54,731.166 1134.54,934.022 
  "/>
<polyline clip-path="url(#clip272)" style="stroke:#808080; stroke-linecap:butt; stroke-linejoin:round; stroke-width:4; stroke-opacity:0.5; fill:none" points="
  1155.55,731.166 1155.55,845.875 
  "/>
<polyline clip-path="url(#clip272)" style="stroke:#808080; stroke-linecap:butt; stroke-linejoin:round; stroke-width:4; stroke-opacity:0.5; fill:none" points="
  1176.57,731.166 1176.57,736.373 
  "/>
<polyline clip-path="url(#clip272)" style="stroke:#808080; stroke-linecap:butt; stroke-linejoin:round; stroke-width:4; stroke-opacity:0.5; fill:none" points="
  1197.58,731.166 1197.58,594.179 
  "/>
<polyline clip-path="url(#clip272)" style="stroke:#808080; stroke-linecap:butt; stroke-linejoin:round; stroke-width:4; stroke-opacity:0.5; fill:none" points="
  1218.59,731.166 1218.59,1156.07 
  "/>
<polyline clip-path="url(#clip272)" style="stroke:#808080; stroke-linecap:butt; stroke-linejoin:round; stroke-width:4; stroke-opacity:0.5; fill:none" points="
  1239.61,731.166 1239.61,981.144 
  "/>
<polyline clip-path="url(#clip272)" style="stroke:#808080; stroke-linecap:butt; stroke-linejoin:round; stroke-width:4; stroke-opacity:0.5; fill:none" points="
  1260.62,731.166 1260.62,295.014 
  "/>
<polyline clip-path="url(#clip272)" style="stroke:#808080; stroke-linecap:butt; stroke-linejoin:round; stroke-width:4; stroke-opacity:0.5; fill:none" points="
  1281.64,731.166 1281.64,790.389 
  "/>
<polyline clip-path="url(#clip272)" style="stroke:#808080; stroke-linecap:butt; stroke-linejoin:round; stroke-width:4; stroke-opacity:0.5; fill:none" points="
  1302.65,731.166 1302.65,621.112 
  "/>
<polyline clip-path="url(#clip272)" style="stroke:#808080; stroke-linecap:butt; stroke-linejoin:round; stroke-width:4; stroke-opacity:0.5; fill:none" points="
  1323.67,731.166 1323.67,611.989 
  "/>
<polyline clip-path="url(#clip272)" style="stroke:#808080; stroke-linecap:butt; stroke-linejoin:round; stroke-width:4; stroke-opacity:0.5; fill:none" points="
  1344.68,731.166 1344.68,884.695 
  "/>
<polyline clip-path="url(#clip272)" style="stroke:#808080; stroke-linecap:butt; stroke-linejoin:round; stroke-width:4; stroke-opacity:0.5; fill:none" points="
  1365.7,731.166 1365.7,1002.54 
  "/>
<polyline clip-path="url(#clip272)" style="stroke:#808080; stroke-linecap:butt; stroke-linejoin:round; stroke-width:4; stroke-opacity:0.5; fill:none" points="
  1386.71,731.166 1386.71,977.343 
  "/>
<polyline clip-path="url(#clip272)" style="stroke:#808080; stroke-linecap:butt; stroke-linejoin:round; stroke-width:4; stroke-opacity:0.5; fill:none" points="
  1407.73,731.166 1407.73,958.176 
  "/>
<polyline clip-path="url(#clip272)" style="stroke:#808080; stroke-linecap:butt; stroke-linejoin:round; stroke-width:4; stroke-opacity:0.5; fill:none" points="
  1428.74,731.166 1428.74,298.05 
  "/>
<polyline clip-path="url(#clip272)" style="stroke:#808080; stroke-linecap:butt; stroke-linejoin:round; stroke-width:4; stroke-opacity:0.5; fill:none" points="
  1449.76,731.166 1449.76,495.459 
  "/>
<polyline clip-path="url(#clip272)" style="stroke:#808080; stroke-linecap:butt; stroke-linejoin:round; stroke-width:4; stroke-opacity:0.5; fill:none" points="
  1470.77,731.166 1470.77,373.282 
  "/>
<polyline clip-path="url(#clip272)" style="stroke:#808080; stroke-linecap:butt; stroke-linejoin:round; stroke-width:4; stroke-opacity:0.5; fill:none" points="
  1491.79,731.166 1491.79,932.826 
  "/>
<polyline clip-path="url(#clip272)" style="stroke:#808080; stroke-linecap:butt; stroke-linejoin:round; stroke-width:4; stroke-opacity:0.5; fill:none" points="
  1512.8,731.166 1512.8,585.531 
  "/>
<polyline clip-path="url(#clip272)" style="stroke:#808080; stroke-linecap:butt; stroke-linejoin:round; stroke-width:4; stroke-opacity:0.5; fill:none" points="
  1533.81,731.166 1533.81,807.606 
  "/>
<polyline clip-path="url(#clip272)" style="stroke:#808080; stroke-linecap:butt; stroke-linejoin:round; stroke-width:4; stroke-opacity:0.5; fill:none" points="
  1554.83,731.166 1554.83,557.844 
  "/>
<polyline clip-path="url(#clip272)" style="stroke:#808080; stroke-linecap:butt; stroke-linejoin:round; stroke-width:4; stroke-opacity:0.5; fill:none" points="
  1575.84,731.166 1575.84,766.446 
  "/>
<polyline clip-path="url(#clip272)" style="stroke:#808080; stroke-linecap:butt; stroke-linejoin:round; stroke-width:4; stroke-opacity:0.5; fill:none" points="
  1596.86,731.166 1596.86,420.478 
  "/>
<polyline clip-path="url(#clip272)" style="stroke:#808080; stroke-linecap:butt; stroke-linejoin:round; stroke-width:4; stroke-opacity:0.5; fill:none" points="
  1617.87,731.166 1617.87,162.047 
  "/>
<polyline clip-path="url(#clip272)" style="stroke:#808080; stroke-linecap:butt; stroke-linejoin:round; stroke-width:4; stroke-opacity:0.5; fill:none" points="
  1638.89,731.166 1638.89,442.14 
  "/>
<polyline clip-path="url(#clip272)" style="stroke:#808080; stroke-linecap:butt; stroke-linejoin:round; stroke-width:4; stroke-opacity:0.5; fill:none" points="
  1659.9,731.166 1659.9,1067.16 
  "/>
<polyline clip-path="url(#clip272)" style="stroke:#808080; stroke-linecap:butt; stroke-linejoin:round; stroke-width:4; stroke-opacity:0.5; fill:none" points="
  1680.92,731.166 1680.92,420.842 
  "/>
<polyline clip-path="url(#clip272)" style="stroke:#808080; stroke-linecap:butt; stroke-linejoin:round; stroke-width:4; stroke-opacity:0.5; fill:none" points="
  1701.93,731.166 1701.93,701.216 
  "/>
<polyline clip-path="url(#clip272)" style="stroke:#808080; stroke-linecap:butt; stroke-linejoin:round; stroke-width:4; stroke-opacity:0.5; fill:none" points="
  1722.95,731.166 1722.95,612.481 
  "/>
<polyline clip-path="url(#clip272)" style="stroke:#808080; stroke-linecap:butt; stroke-linejoin:round; stroke-width:4; stroke-opacity:0.5; fill:none" points="
  1743.96,731.166 1743.96,502.599 
  "/>
<polyline clip-path="url(#clip272)" style="stroke:#808080; stroke-linecap:butt; stroke-linejoin:round; stroke-width:4; stroke-opacity:0.5; fill:none" points="
  1764.98,731.166 1764.98,657.295 
  "/>
<polyline clip-path="url(#clip272)" style="stroke:#808080; stroke-linecap:butt; stroke-linejoin:round; stroke-width:4; stroke-opacity:0.5; fill:none" points="
  1785.99,731.166 1785.99,1079 
  "/>
<polyline clip-path="url(#clip272)" style="stroke:#808080; stroke-linecap:butt; stroke-linejoin:round; stroke-width:4; stroke-opacity:0.5; fill:none" points="
  1807.01,731.166 1807.01,637.988 
  "/>
<polyline clip-path="url(#clip272)" style="stroke:#808080; stroke-linecap:butt; stroke-linejoin:round; stroke-width:4; stroke-opacity:0.5; fill:none" points="
  1828.02,731.166 1828.02,519.996 
  "/>
<polyline clip-path="url(#clip272)" style="stroke:#808080; stroke-linecap:butt; stroke-linejoin:round; stroke-width:4; stroke-opacity:0.5; fill:none" points="
  1849.03,731.166 1849.03,801.108 
  "/>
<polyline clip-path="url(#clip272)" style="stroke:#808080; stroke-linecap:butt; stroke-linejoin:round; stroke-width:4; stroke-opacity:0.5; fill:none" points="
  1870.05,731.166 1870.05,1017.88 
  "/>
<polyline clip-path="url(#clip272)" style="stroke:#808080; stroke-linecap:butt; stroke-linejoin:round; stroke-width:4; stroke-opacity:0.5; fill:none" points="
  1891.06,731.166 1891.06,896.561 
  "/>
<polyline clip-path="url(#clip272)" style="stroke:#808080; stroke-linecap:butt; stroke-linejoin:round; stroke-width:4; stroke-opacity:0.5; fill:none" points="
  1912.08,731.166 1912.08,270.038 
  "/>
<polyline clip-path="url(#clip272)" style="stroke:#808080; stroke-linecap:butt; stroke-linejoin:round; stroke-width:4; stroke-opacity:0.5; fill:none" points="
  1933.09,731.166 1933.09,1051.48 
  "/>
<polyline clip-path="url(#clip272)" style="stroke:#808080; stroke-linecap:butt; stroke-linejoin:round; stroke-width:4; stroke-opacity:0.5; fill:none" points="
  1954.11,731.166 1954.11,448.269 
  "/>
<polyline clip-path="url(#clip272)" style="stroke:#808080; stroke-linecap:butt; stroke-linejoin:round; stroke-width:4; stroke-opacity:0.5; fill:none" points="
  1975.12,731.166 1975.12,597.34 
  "/>
<polyline clip-path="url(#clip272)" style="stroke:#808080; stroke-linecap:butt; stroke-linejoin:round; stroke-width:4; stroke-opacity:0.5; fill:none" points="
  1996.14,731.166 1996.14,580.068 
  "/>
<polyline clip-path="url(#clip272)" style="stroke:#808080; stroke-linecap:butt; stroke-linejoin:round; stroke-width:4; stroke-opacity:0.5; fill:none" points="
  2017.15,731.166 2017.15,562.772 
  "/>
<polyline clip-path="url(#clip272)" style="stroke:#808080; stroke-linecap:butt; stroke-linejoin:round; stroke-width:4; stroke-opacity:0.5; fill:none" points="
  2038.17,731.166 2038.17,542.712 
  "/>
<polyline clip-path="url(#clip272)" style="stroke:#808080; stroke-linecap:butt; stroke-linejoin:round; stroke-width:4; stroke-opacity:0.5; fill:none" points="
  2059.18,731.166 2059.18,889.875 
  "/>
<polyline clip-path="url(#clip272)" style="stroke:#808080; stroke-linecap:butt; stroke-linejoin:round; stroke-width:4; stroke-opacity:0.5; fill:none" points="
  2080.2,731.166 2080.2,471.698 
  "/>
<polyline clip-path="url(#clip272)" style="stroke:#808080; stroke-linecap:butt; stroke-linejoin:round; stroke-width:4; stroke-opacity:0.5; fill:none" points="
  2101.21,731.166 2101.21,993.911 
  "/>
<polyline clip-path="url(#clip272)" style="stroke:#808080; stroke-linecap:butt; stroke-linejoin:round; stroke-width:4; stroke-opacity:0.5; fill:none" points="
  2122.23,731.166 2122.23,839.115 
  "/>
<polyline clip-path="url(#clip272)" style="stroke:#808080; stroke-linecap:butt; stroke-linejoin:round; stroke-width:4; stroke-opacity:0.5; fill:none" points="
  2143.24,731.166 2143.24,212.624 
  "/>
<polyline clip-path="url(#clip272)" style="stroke:#808080; stroke-linecap:butt; stroke-linejoin:round; stroke-width:4; stroke-opacity:0.5; fill:none" points="
  2164.25,731.166 2164.25,662.882 
  "/>
<polyline clip-path="url(#clip272)" style="stroke:#808080; stroke-linecap:butt; stroke-linejoin:round; stroke-width:4; stroke-opacity:0.5; fill:none" points="
  2185.27,731.166 2185.27,446.809 
  "/>
<polyline clip-path="url(#clip272)" style="stroke:#808080; stroke-linecap:butt; stroke-linejoin:round; stroke-width:4; stroke-opacity:0.5; fill:none" points="
  2206.28,731.166 2206.28,758.557 
  "/>
<polyline clip-path="url(#clip272)" style="stroke:#808080; stroke-linecap:butt; stroke-linejoin:round; stroke-width:4; stroke-opacity:0.5; fill:none" points="
  2227.3,731.166 2227.3,745.173 
  "/>
<polyline clip-path="url(#clip272)" style="stroke:#808080; stroke-linecap:butt; stroke-linejoin:round; stroke-width:4; stroke-opacity:0.5; fill:none" points="
  2248.31,731.166 2248.31,1144.51 
  "/>
<polyline clip-path="url(#clip272)" style="stroke:#808080; stroke-linecap:butt; stroke-linejoin:round; stroke-width:4; stroke-opacity:0.5; fill:none" points="
  2269.33,731.166 2269.33,641.047 
  "/>
<polyline clip-path="url(#clip272)" style="stroke:#808080; stroke-linecap:butt; stroke-linejoin:round; stroke-width:4; stroke-opacity:0.5; fill:none" points="
  2290.34,731.166 2290.34,765.258 
  "/>
<polyline clip-path="url(#clip272)" style="stroke:#808080; stroke-linecap:butt; stroke-linejoin:round; stroke-width:0; stroke-opacity:0.5; fill:none" points="
  209.891,906.184 230.906,1040.6 251.921,559.633 272.935,1083.02 293.95,1447.87 314.965,1231.59 335.979,633.128 356.994,651.385 378.009,816.832 399.023,969.57 
  420.038,815.653 441.053,924.069 462.067,528.288 483.082,722.533 504.097,511.985 525.111,697.738 546.126,486.814 567.141,1124.66 588.155,989.179 609.17,1012.17 
  630.185,826.099 651.199,593.033 672.214,677.629 693.229,683.137 714.243,958.226 735.258,734.203 756.272,620.439 777.287,219.671 798.302,1031.83 819.316,451.42 
  840.331,263.071 861.346,843.667 882.36,816.6 903.375,1181.97 924.39,995.588 945.404,702.411 966.419,1023.89 987.434,655.468 1008.45,861.059 1029.46,484.404 
  1050.48,603.083 1071.49,754.716 1092.51,752.818 1113.52,973.26 1134.54,934.022 1155.55,845.875 1176.57,736.373 1197.58,594.179 1218.59,1156.07 1239.61,981.144 
  1260.62,295.014 1281.64,790.389 1302.65,621.112 1323.67,611.989 1344.68,884.695 1365.7,1002.54 1386.71,977.343 1407.73,958.176 1428.74,298.05 1449.76,495.459 
  1470.77,373.282 1491.79,932.826 1512.8,585.531 1533.81,807.606 1554.83,557.844 1575.84,766.446 1596.86,420.478 1617.87,162.047 1638.89,442.14 1659.9,1067.16 
  1680.92,420.842 1701.93,701.216 1722.95,612.481 1743.96,502.599 1764.98,657.295 1785.99,1079 1807.01,637.988 1828.02,519.996 1849.03,801.108 1870.05,1017.88 
  1891.06,896.561 1912.08,270.038 1933.09,1051.48 1954.11,448.269 1975.12,597.34 1996.14,580.068 2017.15,562.772 2038.17,542.712 2059.18,889.875 2080.2,471.698 
  2101.21,993.911 2122.23,839.115 2143.24,212.624 2164.25,662.882 2185.27,446.809 2206.28,758.557 2227.3,745.173 2248.31,1144.51 2269.33,641.047 2290.34,765.258 
  
  "/>
<circle clip-path="url(#clip272)" cx="209.891" cy="906.184" r="14" fill="#808080" fill-rule="evenodd" fill-opacity="0.5" stroke="#000000" stroke-opacity="0.5" stroke-width="3.2"/>
<circle clip-path="url(#clip272)" cx="230.906" cy="1040.6" r="14" fill="#808080" fill-rule="evenodd" fill-opacity="0.5" stroke="#000000" stroke-opacity="0.5" stroke-width="3.2"/>
<circle clip-path="url(#clip272)" cx="251.921" cy="559.633" r="14" fill="#808080" fill-rule="evenodd" fill-opacity="0.5" stroke="#000000" stroke-opacity="0.5" stroke-width="3.2"/>
<circle clip-path="url(#clip272)" cx="272.935" cy="1083.02" r="14" fill="#808080" fill-rule="evenodd" fill-opacity="0.5" stroke="#000000" stroke-opacity="0.5" stroke-width="3.2"/>
<circle clip-path="url(#clip272)" cx="293.95" cy="1447.87" r="14" fill="#808080" fill-rule="evenodd" fill-opacity="0.5" stroke="#000000" stroke-opacity="0.5" stroke-width="3.2"/>
<circle clip-path="url(#clip272)" cx="314.965" cy="1231.59" r="14" fill="#808080" fill-rule="evenodd" fill-opacity="0.5" stroke="#000000" stroke-opacity="0.5" stroke-width="3.2"/>
<circle clip-path="url(#clip272)" cx="335.979" cy="633.128" r="14" fill="#808080" fill-rule="evenodd" fill-opacity="0.5" stroke="#000000" stroke-opacity="0.5" stroke-width="3.2"/>
<circle clip-path="url(#clip272)" cx="356.994" cy="651.385" r="14" fill="#808080" fill-rule="evenodd" fill-opacity="0.5" stroke="#000000" stroke-opacity="0.5" stroke-width="3.2"/>
<circle clip-path="url(#clip272)" cx="378.009" cy="816.832" r="14" fill="#808080" fill-rule="evenodd" fill-opacity="0.5" stroke="#000000" stroke-opacity="0.5" stroke-width="3.2"/>
<circle clip-path="url(#clip272)" cx="399.023" cy="969.57" r="14" fill="#808080" fill-rule="evenodd" fill-opacity="0.5" stroke="#000000" stroke-opacity="0.5" stroke-width="3.2"/>
<circle clip-path="url(#clip272)" cx="420.038" cy="815.653" r="14" fill="#808080" fill-rule="evenodd" fill-opacity="0.5" stroke="#000000" stroke-opacity="0.5" stroke-width="3.2"/>
<circle clip-path="url(#clip272)" cx="441.053" cy="924.069" r="14" fill="#808080" fill-rule="evenodd" fill-opacity="0.5" stroke="#000000" stroke-opacity="0.5" stroke-width="3.2"/>
<circle clip-path="url(#clip272)" cx="462.067" cy="528.288" r="14" fill="#808080" fill-rule="evenodd" fill-opacity="0.5" stroke="#000000" stroke-opacity="0.5" stroke-width="3.2"/>
<circle clip-path="url(#clip272)" cx="483.082" cy="722.533" r="14" fill="#808080" fill-rule="evenodd" fill-opacity="0.5" stroke="#000000" stroke-opacity="0.5" stroke-width="3.2"/>
<circle clip-path="url(#clip272)" cx="504.097" cy="511.985" r="14" fill="#808080" fill-rule="evenodd" fill-opacity="0.5" stroke="#000000" stroke-opacity="0.5" stroke-width="3.2"/>
<circle clip-path="url(#clip272)" cx="525.111" cy="697.738" r="14" fill="#808080" fill-rule="evenodd" fill-opacity="0.5" stroke="#000000" stroke-opacity="0.5" stroke-width="3.2"/>
<circle clip-path="url(#clip272)" cx="546.126" cy="486.814" r="14" fill="#808080" fill-rule="evenodd" fill-opacity="0.5" stroke="#000000" stroke-opacity="0.5" stroke-width="3.2"/>
<circle clip-path="url(#clip272)" cx="567.141" cy="1124.66" r="14" fill="#808080" fill-rule="evenodd" fill-opacity="0.5" stroke="#000000" stroke-opacity="0.5" stroke-width="3.2"/>
<circle clip-path="url(#clip272)" cx="588.155" cy="989.179" r="14" fill="#808080" fill-rule="evenodd" fill-opacity="0.5" stroke="#000000" stroke-opacity="0.5" stroke-width="3.2"/>
<circle clip-path="url(#clip272)" cx="609.17" cy="1012.17" r="14" fill="#808080" fill-rule="evenodd" fill-opacity="0.5" stroke="#000000" stroke-opacity="0.5" stroke-width="3.2"/>
<circle clip-path="url(#clip272)" cx="630.185" cy="826.099" r="14" fill="#808080" fill-rule="evenodd" fill-opacity="0.5" stroke="#000000" stroke-opacity="0.5" stroke-width="3.2"/>
<circle clip-path="url(#clip272)" cx="651.199" cy="593.033" r="14" fill="#808080" fill-rule="evenodd" fill-opacity="0.5" stroke="#000000" stroke-opacity="0.5" stroke-width="3.2"/>
<circle clip-path="url(#clip272)" cx="672.214" cy="677.629" r="14" fill="#808080" fill-rule="evenodd" fill-opacity="0.5" stroke="#000000" stroke-opacity="0.5" stroke-width="3.2"/>
<circle clip-path="url(#clip272)" cx="693.229" cy="683.137" r="14" fill="#808080" fill-rule="evenodd" fill-opacity="0.5" stroke="#000000" stroke-opacity="0.5" stroke-width="3.2"/>
<circle clip-path="url(#clip272)" cx="714.243" cy="958.226" r="14" fill="#808080" fill-rule="evenodd" fill-opacity="0.5" stroke="#000000" stroke-opacity="0.5" stroke-width="3.2"/>
<circle clip-path="url(#clip272)" cx="735.258" cy="734.203" r="14" fill="#808080" fill-rule="evenodd" fill-opacity="0.5" stroke="#000000" stroke-opacity="0.5" stroke-width="3.2"/>
<circle clip-path="url(#clip272)" cx="756.272" cy="620.439" r="14" fill="#808080" fill-rule="evenodd" fill-opacity="0.5" stroke="#000000" stroke-opacity="0.5" stroke-width="3.2"/>
<circle clip-path="url(#clip272)" cx="777.287" cy="219.671" r="14" fill="#808080" fill-rule="evenodd" fill-opacity="0.5" stroke="#000000" stroke-opacity="0.5" stroke-width="3.2"/>
<circle clip-path="url(#clip272)" cx="798.302" cy="1031.83" r="14" fill="#808080" fill-rule="evenodd" fill-opacity="0.5" stroke="#000000" stroke-opacity="0.5" stroke-width="3.2"/>
<circle clip-path="url(#clip272)" cx="819.316" cy="451.42" r="14" fill="#808080" fill-rule="evenodd" fill-opacity="0.5" stroke="#000000" stroke-opacity="0.5" stroke-width="3.2"/>
<circle clip-path="url(#clip272)" cx="840.331" cy="263.071" r="14" fill="#808080" fill-rule="evenodd" fill-opacity="0.5" stroke="#000000" stroke-opacity="0.5" stroke-width="3.2"/>
<circle clip-path="url(#clip272)" cx="861.346" cy="843.667" r="14" fill="#808080" fill-rule="evenodd" fill-opacity="0.5" stroke="#000000" stroke-opacity="0.5" stroke-width="3.2"/>
<circle clip-path="url(#clip272)" cx="882.36" cy="816.6" r="14" fill="#808080" fill-rule="evenodd" fill-opacity="0.5" stroke="#000000" stroke-opacity="0.5" stroke-width="3.2"/>
<circle clip-path="url(#clip272)" cx="903.375" cy="1181.97" r="14" fill="#808080" fill-rule="evenodd" fill-opacity="0.5" stroke="#000000" stroke-opacity="0.5" stroke-width="3.2"/>
<circle clip-path="url(#clip272)" cx="924.39" cy="995.588" r="14" fill="#808080" fill-rule="evenodd" fill-opacity="0.5" stroke="#000000" stroke-opacity="0.5" stroke-width="3.2"/>
<circle clip-path="url(#clip272)" cx="945.404" cy="702.411" r="14" fill="#808080" fill-rule="evenodd" fill-opacity="0.5" stroke="#000000" stroke-opacity="0.5" stroke-width="3.2"/>
<circle clip-path="url(#clip272)" cx="966.419" cy="1023.89" r="14" fill="#808080" fill-rule="evenodd" fill-opacity="0.5" stroke="#000000" stroke-opacity="0.5" stroke-width="3.2"/>
<circle clip-path="url(#clip272)" cx="987.434" cy="655.468" r="14" fill="#808080" fill-rule="evenodd" fill-opacity="0.5" stroke="#000000" stroke-opacity="0.5" stroke-width="3.2"/>
<circle clip-path="url(#clip272)" cx="1008.45" cy="861.059" r="14" fill="#808080" fill-rule="evenodd" fill-opacity="0.5" stroke="#000000" stroke-opacity="0.5" stroke-width="3.2"/>
<circle clip-path="url(#clip272)" cx="1029.46" cy="484.404" r="14" fill="#808080" fill-rule="evenodd" fill-opacity="0.5" stroke="#000000" stroke-opacity="0.5" stroke-width="3.2"/>
<circle clip-path="url(#clip272)" cx="1050.48" cy="603.083" r="14" fill="#808080" fill-rule="evenodd" fill-opacity="0.5" stroke="#000000" stroke-opacity="0.5" stroke-width="3.2"/>
<circle clip-path="url(#clip272)" cx="1071.49" cy="754.716" r="14" fill="#808080" fill-rule="evenodd" fill-opacity="0.5" stroke="#000000" stroke-opacity="0.5" stroke-width="3.2"/>
<circle clip-path="url(#clip272)" cx="1092.51" cy="752.818" r="14" fill="#808080" fill-rule="evenodd" fill-opacity="0.5" stroke="#000000" stroke-opacity="0.5" stroke-width="3.2"/>
<circle clip-path="url(#clip272)" cx="1113.52" cy="973.26" r="14" fill="#808080" fill-rule="evenodd" fill-opacity="0.5" stroke="#000000" stroke-opacity="0.5" stroke-width="3.2"/>
<circle clip-path="url(#clip272)" cx="1134.54" cy="934.022" r="14" fill="#808080" fill-rule="evenodd" fill-opacity="0.5" stroke="#000000" stroke-opacity="0.5" stroke-width="3.2"/>
<circle clip-path="url(#clip272)" cx="1155.55" cy="845.875" r="14" fill="#808080" fill-rule="evenodd" fill-opacity="0.5" stroke="#000000" stroke-opacity="0.5" stroke-width="3.2"/>
<circle clip-path="url(#clip272)" cx="1176.57" cy="736.373" r="14" fill="#808080" fill-rule="evenodd" fill-opacity="0.5" stroke="#000000" stroke-opacity="0.5" stroke-width="3.2"/>
<circle clip-path="url(#clip272)" cx="1197.58" cy="594.179" r="14" fill="#808080" fill-rule="evenodd" fill-opacity="0.5" stroke="#000000" stroke-opacity="0.5" stroke-width="3.2"/>
<circle clip-path="url(#clip272)" cx="1218.59" cy="1156.07" r="14" fill="#808080" fill-rule="evenodd" fill-opacity="0.5" stroke="#000000" stroke-opacity="0.5" stroke-width="3.2"/>
<circle clip-path="url(#clip272)" cx="1239.61" cy="981.144" r="14" fill="#808080" fill-rule="evenodd" fill-opacity="0.5" stroke="#000000" stroke-opacity="0.5" stroke-width="3.2"/>
<circle clip-path="url(#clip272)" cx="1260.62" cy="295.014" r="14" fill="#808080" fill-rule="evenodd" fill-opacity="0.5" stroke="#000000" stroke-opacity="0.5" stroke-width="3.2"/>
<circle clip-path="url(#clip272)" cx="1281.64" cy="790.389" r="14" fill="#808080" fill-rule="evenodd" fill-opacity="0.5" stroke="#000000" stroke-opacity="0.5" stroke-width="3.2"/>
<circle clip-path="url(#clip272)" cx="1302.65" cy="621.112" r="14" fill="#808080" fill-rule="evenodd" fill-opacity="0.5" stroke="#000000" stroke-opacity="0.5" stroke-width="3.2"/>
<circle clip-path="url(#clip272)" cx="1323.67" cy="611.989" r="14" fill="#808080" fill-rule="evenodd" fill-opacity="0.5" stroke="#000000" stroke-opacity="0.5" stroke-width="3.2"/>
<circle clip-path="url(#clip272)" cx="1344.68" cy="884.695" r="14" fill="#808080" fill-rule="evenodd" fill-opacity="0.5" stroke="#000000" stroke-opacity="0.5" stroke-width="3.2"/>
<circle clip-path="url(#clip272)" cx="1365.7" cy="1002.54" r="14" fill="#808080" fill-rule="evenodd" fill-opacity="0.5" stroke="#000000" stroke-opacity="0.5" stroke-width="3.2"/>
<circle clip-path="url(#clip272)" cx="1386.71" cy="977.343" r="14" fill="#808080" fill-rule="evenodd" fill-opacity="0.5" stroke="#000000" stroke-opacity="0.5" stroke-width="3.2"/>
<circle clip-path="url(#clip272)" cx="1407.73" cy="958.176" r="14" fill="#808080" fill-rule="evenodd" fill-opacity="0.5" stroke="#000000" stroke-opacity="0.5" stroke-width="3.2"/>
<circle clip-path="url(#clip272)" cx="1428.74" cy="298.05" r="14" fill="#808080" fill-rule="evenodd" fill-opacity="0.5" stroke="#000000" stroke-opacity="0.5" stroke-width="3.2"/>
<circle clip-path="url(#clip272)" cx="1449.76" cy="495.459" r="14" fill="#808080" fill-rule="evenodd" fill-opacity="0.5" stroke="#000000" stroke-opacity="0.5" stroke-width="3.2"/>
<circle clip-path="url(#clip272)" cx="1470.77" cy="373.282" r="14" fill="#808080" fill-rule="evenodd" fill-opacity="0.5" stroke="#000000" stroke-opacity="0.5" stroke-width="3.2"/>
<circle clip-path="url(#clip272)" cx="1491.79" cy="932.826" r="14" fill="#808080" fill-rule="evenodd" fill-opacity="0.5" stroke="#000000" stroke-opacity="0.5" stroke-width="3.2"/>
<circle clip-path="url(#clip272)" cx="1512.8" cy="585.531" r="14" fill="#808080" fill-rule="evenodd" fill-opacity="0.5" stroke="#000000" stroke-opacity="0.5" stroke-width="3.2"/>
<circle clip-path="url(#clip272)" cx="1533.81" cy="807.606" r="14" fill="#808080" fill-rule="evenodd" fill-opacity="0.5" stroke="#000000" stroke-opacity="0.5" stroke-width="3.2"/>
<circle clip-path="url(#clip272)" cx="1554.83" cy="557.844" r="14" fill="#808080" fill-rule="evenodd" fill-opacity="0.5" stroke="#000000" stroke-opacity="0.5" stroke-width="3.2"/>
<circle clip-path="url(#clip272)" cx="1575.84" cy="766.446" r="14" fill="#808080" fill-rule="evenodd" fill-opacity="0.5" stroke="#000000" stroke-opacity="0.5" stroke-width="3.2"/>
<circle clip-path="url(#clip272)" cx="1596.86" cy="420.478" r="14" fill="#808080" fill-rule="evenodd" fill-opacity="0.5" stroke="#000000" stroke-opacity="0.5" stroke-width="3.2"/>
<circle clip-path="url(#clip272)" cx="1617.87" cy="162.047" r="14" fill="#808080" fill-rule="evenodd" fill-opacity="0.5" stroke="#000000" stroke-opacity="0.5" stroke-width="3.2"/>
<circle clip-path="url(#clip272)" cx="1638.89" cy="442.14" r="14" fill="#808080" fill-rule="evenodd" fill-opacity="0.5" stroke="#000000" stroke-opacity="0.5" stroke-width="3.2"/>
<circle clip-path="url(#clip272)" cx="1659.9" cy="1067.16" r="14" fill="#808080" fill-rule="evenodd" fill-opacity="0.5" stroke="#000000" stroke-opacity="0.5" stroke-width="3.2"/>
<circle clip-path="url(#clip272)" cx="1680.92" cy="420.842" r="14" fill="#808080" fill-rule="evenodd" fill-opacity="0.5" stroke="#000000" stroke-opacity="0.5" stroke-width="3.2"/>
<circle clip-path="url(#clip272)" cx="1701.93" cy="701.216" r="14" fill="#808080" fill-rule="evenodd" fill-opacity="0.5" stroke="#000000" stroke-opacity="0.5" stroke-width="3.2"/>
<circle clip-path="url(#clip272)" cx="1722.95" cy="612.481" r="14" fill="#808080" fill-rule="evenodd" fill-opacity="0.5" stroke="#000000" stroke-opacity="0.5" stroke-width="3.2"/>
<circle clip-path="url(#clip272)" cx="1743.96" cy="502.599" r="14" fill="#808080" fill-rule="evenodd" fill-opacity="0.5" stroke="#000000" stroke-opacity="0.5" stroke-width="3.2"/>
<circle clip-path="url(#clip272)" cx="1764.98" cy="657.295" r="14" fill="#808080" fill-rule="evenodd" fill-opacity="0.5" stroke="#000000" stroke-opacity="0.5" stroke-width="3.2"/>
<circle clip-path="url(#clip272)" cx="1785.99" cy="1079" r="14" fill="#808080" fill-rule="evenodd" fill-opacity="0.5" stroke="#000000" stroke-opacity="0.5" stroke-width="3.2"/>
<circle clip-path="url(#clip272)" cx="1807.01" cy="637.988" r="14" fill="#808080" fill-rule="evenodd" fill-opacity="0.5" stroke="#000000" stroke-opacity="0.5" stroke-width="3.2"/>
<circle clip-path="url(#clip272)" cx="1828.02" cy="519.996" r="14" fill="#808080" fill-rule="evenodd" fill-opacity="0.5" stroke="#000000" stroke-opacity="0.5" stroke-width="3.2"/>
<circle clip-path="url(#clip272)" cx="1849.03" cy="801.108" r="14" fill="#808080" fill-rule="evenodd" fill-opacity="0.5" stroke="#000000" stroke-opacity="0.5" stroke-width="3.2"/>
<circle clip-path="url(#clip272)" cx="1870.05" cy="1017.88" r="14" fill="#808080" fill-rule="evenodd" fill-opacity="0.5" stroke="#000000" stroke-opacity="0.5" stroke-width="3.2"/>
<circle clip-path="url(#clip272)" cx="1891.06" cy="896.561" r="14" fill="#808080" fill-rule="evenodd" fill-opacity="0.5" stroke="#000000" stroke-opacity="0.5" stroke-width="3.2"/>
<circle clip-path="url(#clip272)" cx="1912.08" cy="270.038" r="14" fill="#808080" fill-rule="evenodd" fill-opacity="0.5" stroke="#000000" stroke-opacity="0.5" stroke-width="3.2"/>
<circle clip-path="url(#clip272)" cx="1933.09" cy="1051.48" r="14" fill="#808080" fill-rule="evenodd" fill-opacity="0.5" stroke="#000000" stroke-opacity="0.5" stroke-width="3.2"/>
<circle clip-path="url(#clip272)" cx="1954.11" cy="448.269" r="14" fill="#808080" fill-rule="evenodd" fill-opacity="0.5" stroke="#000000" stroke-opacity="0.5" stroke-width="3.2"/>
<circle clip-path="url(#clip272)" cx="1975.12" cy="597.34" r="14" fill="#808080" fill-rule="evenodd" fill-opacity="0.5" stroke="#000000" stroke-opacity="0.5" stroke-width="3.2"/>
<circle clip-path="url(#clip272)" cx="1996.14" cy="580.068" r="14" fill="#808080" fill-rule="evenodd" fill-opacity="0.5" stroke="#000000" stroke-opacity="0.5" stroke-width="3.2"/>
<circle clip-path="url(#clip272)" cx="2017.15" cy="562.772" r="14" fill="#808080" fill-rule="evenodd" fill-opacity="0.5" stroke="#000000" stroke-opacity="0.5" stroke-width="3.2"/>
<circle clip-path="url(#clip272)" cx="2038.17" cy="542.712" r="14" fill="#808080" fill-rule="evenodd" fill-opacity="0.5" stroke="#000000" stroke-opacity="0.5" stroke-width="3.2"/>
<circle clip-path="url(#clip272)" cx="2059.18" cy="889.875" r="14" fill="#808080" fill-rule="evenodd" fill-opacity="0.5" stroke="#000000" stroke-opacity="0.5" stroke-width="3.2"/>
<circle clip-path="url(#clip272)" cx="2080.2" cy="471.698" r="14" fill="#808080" fill-rule="evenodd" fill-opacity="0.5" stroke="#000000" stroke-opacity="0.5" stroke-width="3.2"/>
<circle clip-path="url(#clip272)" cx="2101.21" cy="993.911" r="14" fill="#808080" fill-rule="evenodd" fill-opacity="0.5" stroke="#000000" stroke-opacity="0.5" stroke-width="3.2"/>
<circle clip-path="url(#clip272)" cx="2122.23" cy="839.115" r="14" fill="#808080" fill-rule="evenodd" fill-opacity="0.5" stroke="#000000" stroke-opacity="0.5" stroke-width="3.2"/>
<circle clip-path="url(#clip272)" cx="2143.24" cy="212.624" r="14" fill="#808080" fill-rule="evenodd" fill-opacity="0.5" stroke="#000000" stroke-opacity="0.5" stroke-width="3.2"/>
<circle clip-path="url(#clip272)" cx="2164.25" cy="662.882" r="14" fill="#808080" fill-rule="evenodd" fill-opacity="0.5" stroke="#000000" stroke-opacity="0.5" stroke-width="3.2"/>
<circle clip-path="url(#clip272)" cx="2185.27" cy="446.809" r="14" fill="#808080" fill-rule="evenodd" fill-opacity="0.5" stroke="#000000" stroke-opacity="0.5" stroke-width="3.2"/>
<circle clip-path="url(#clip272)" cx="2206.28" cy="758.557" r="14" fill="#808080" fill-rule="evenodd" fill-opacity="0.5" stroke="#000000" stroke-opacity="0.5" stroke-width="3.2"/>
<circle clip-path="url(#clip272)" cx="2227.3" cy="745.173" r="14" fill="#808080" fill-rule="evenodd" fill-opacity="0.5" stroke="#000000" stroke-opacity="0.5" stroke-width="3.2"/>
<circle clip-path="url(#clip272)" cx="2248.31" cy="1144.51" r="14" fill="#808080" fill-rule="evenodd" fill-opacity="0.5" stroke="#000000" stroke-opacity="0.5" stroke-width="3.2"/>
<circle clip-path="url(#clip272)" cx="2269.33" cy="641.047" r="14" fill="#808080" fill-rule="evenodd" fill-opacity="0.5" stroke="#000000" stroke-opacity="0.5" stroke-width="3.2"/>
<circle clip-path="url(#clip272)" cx="2290.34" cy="765.258" r="14" fill="#808080" fill-rule="evenodd" fill-opacity="0.5" stroke="#000000" stroke-opacity="0.5" stroke-width="3.2"/>
<polyline clip-path="url(#clip272)" style="stroke:#000000; stroke-linecap:butt; stroke-linejoin:round; stroke-width:6; stroke-opacity:1; fill:none" stroke-dasharray="24, 15" points="
  -2057.8,731.166 4558.03,731.166 
  "/>
<polyline clip-path="url(#clip272)" style="stroke:#008000; stroke-linecap:butt; stroke-linejoin:round; stroke-width:12; stroke-opacity:0.6; fill:none" points="
  209.891,906.184 230.906,973.393 251.921,835.473 272.935,897.359 293.95,1007.46 314.965,1044.82 335.979,986.004 356.994,944.176 378.009,930.027 399.023,933.981 
  420.038,923.224 441.053,923.295 462.067,892.91 483.082,880.74 504.097,856.156 525.111,846.255 546.126,825.111 567.141,841.753 588.155,849.512 609.17,857.645 
  630.185,856.143 651.199,844.184 672.214,836.942 693.229,830.534 714.243,835.641 735.258,831.74 756.272,823.914 777.287,802.334 798.302,810.247 819.316,798.286 
  840.331,781.021 861.346,782.979 882.36,783.998 903.375,795.703 924.39,801.414 945.404,798.664 966.419,804.751 987.434,800.823 1008.45,802.367 1029.46,794.418 
  1050.48,789.751 1071.49,788.917 1092.51,788.078 1113.52,792.286 1134.54,795.436 1155.55,796.532 1176.57,795.252 1197.58,791.063 1218.59,798.513 1239.61,802.165 
  1260.62,792.221 1281.64,792.186 1302.65,788.958 1323.67,785.681 1344.68,787.481 1365.7,791.321 1386.71,794.585 1407.73,797.406 1428.74,788.942 1449.76,784.051 
  1470.77,777.317 1491.79,779.825 1512.8,776.741 1533.81,777.223 1554.83,773.848 1575.84,773.736 1596.86,768.463 1617.87,759.545 1638.89,754.945 1659.9,759.406 
  1680.92,754.637 1701.93,753.895 1722.95,751.958 1743.96,748.588 1764.98,747.371 1785.99,751.735 1807.01,750.257 1828.02,747.305 1849.03,747.986 1870.05,751.36 
  1891.06,753.153 1912.08,747.261 1933.09,750.926 1954.11,747.323 1975.12,745.559 1996.14,743.634 2017.15,741.556 2038.17,739.296 2059.18,740.988 2080.2,737.996 
  2101.21,740.808 2122.23,741.877 2143.24,736.186 2164.25,735.406 2185.27,732.368 2206.28,732.641 2227.3,732.77 2248.31,736.971 2269.33,736.002 2290.34,736.295 
  
  "/>
<path clip-path="url(#clip270)" d="
M1714.1 324.425 L2279.25 324.425 L2279.25 168.905 L1714.1 168.905  Z
  " fill="#ffffff" fill-rule="evenodd" fill-opacity="1"/>
<polyline clip-path="url(#clip270)" style="stroke:#000000; stroke-linecap:butt; stroke-linejoin:round; stroke-width:4; stroke-opacity:1; fill:none" points="
  1714.1,324.425 2279.25,324.425 2279.25,168.905 1714.1,168.905 1714.1,324.425 
  "/>
<polyline clip-path="url(#clip270)" style="stroke:#000000; stroke-linecap:butt; stroke-linejoin:round; stroke-width:4; stroke-opacity:1; fill:none" stroke-dasharray="16, 10" points="
  1738.6,220.745 1885.62,220.745 
  "/>
<path clip-path="url(#clip270)" d="M1910.13 202.006 L1919.94 202.006 L1919.94 205.316 L1914.39 205.316 L1914.39 240.964 L1919.94 240.964 L1919.94 244.275 L1910.13 244.275 L1910.13 202.006 Z" fill="#000000" fill-rule="evenodd" fill-opacity="1" /><path clip-path="url(#clip270)" d="M1933.04 203.465 L1933.04 216.312 L1929.11 216.312 L1929.11 203.465 L1933.04 203.465 M1941.79 203.465 L1941.79 216.312 L1937.86 216.312 L1937.86 203.465 L1941.79 203.465 Z" fill="#000000" fill-rule="evenodd" fill-opacity="1" /><path clip-path="url(#clip270)" d="M1951.01 203.465 L1957.97 203.465 L1966.79 226.983 L1975.66 203.465 L1982.63 203.465 L1982.63 238.025 L1978.07 238.025 L1978.07 207.678 L1969.15 231.381 L1964.45 231.381 L1955.54 207.678 L1955.54 238.025 L1951.01 238.025 L1951.01 203.465 Z" fill="#000000" fill-rule="evenodd" fill-opacity="1" /><path clip-path="url(#clip270)" d="M2013.9 223.997 L2013.9 226.08 L1994.32 226.08 Q1994.59 230.478 1996.95 232.793 Q1999.34 235.085 2003.58 235.085 Q2006.03 235.085 2008.32 234.483 Q2010.64 233.881 2012.9 232.677 L2012.9 236.705 Q2010.61 237.677 2008.2 238.187 Q2005.8 238.696 2003.32 238.696 Q1997.12 238.696 1993.48 235.085 Q1989.87 231.474 1989.87 225.316 Q1989.87 218.951 1993.3 215.224 Q1996.75 211.474 2002.58 211.474 Q2007.81 211.474 2010.84 214.853 Q2013.9 218.21 2013.9 223.997 M2009.64 222.747 Q2009.59 219.252 2007.67 217.168 Q2005.77 215.085 2002.63 215.085 Q1999.06 215.085 1996.91 217.099 Q1994.78 219.113 1994.45 222.77 L2009.64 222.747 Z" fill="#000000" fill-rule="evenodd" fill-opacity="1" /><path clip-path="url(#clip270)" d="M2032.67 224.992 Q2027.51 224.992 2025.52 226.173 Q2023.53 227.353 2023.53 230.201 Q2023.53 232.469 2025.01 233.812 Q2026.51 235.131 2029.08 235.131 Q2032.63 235.131 2034.76 232.631 Q2036.91 230.108 2036.91 225.941 L2036.91 224.992 L2032.67 224.992 M2041.17 223.233 L2041.17 238.025 L2036.91 238.025 L2036.91 234.089 Q2035.45 236.451 2033.27 237.585 Q2031.1 238.696 2027.95 238.696 Q2023.97 238.696 2021.61 236.474 Q2019.27 234.228 2019.27 230.478 Q2019.27 226.103 2022.19 223.881 Q2025.13 221.659 2030.94 221.659 L2036.91 221.659 L2036.91 221.242 Q2036.91 218.303 2034.96 216.705 Q2033.04 215.085 2029.55 215.085 Q2027.32 215.085 2025.22 215.617 Q2023.11 216.15 2021.17 217.215 L2021.17 213.279 Q2023.51 212.377 2025.7 211.937 Q2027.9 211.474 2029.99 211.474 Q2035.61 211.474 2038.39 214.391 Q2041.17 217.307 2041.17 223.233 Z" fill="#000000" fill-rule="evenodd" fill-opacity="1" /><path clip-path="url(#clip270)" d="M2071.49 222.377 L2071.49 238.025 L2067.23 238.025 L2067.23 222.515 Q2067.23 218.835 2065.8 217.006 Q2064.36 215.178 2061.49 215.178 Q2058.04 215.178 2056.05 217.377 Q2054.06 219.576 2054.06 223.372 L2054.06 238.025 L2049.78 238.025 L2049.78 212.099 L2054.06 212.099 L2054.06 216.127 Q2055.59 213.789 2057.65 212.631 Q2059.73 211.474 2062.44 211.474 Q2066.91 211.474 2069.2 214.252 Q2071.49 217.006 2071.49 222.377 Z" fill="#000000" fill-rule="evenodd" fill-opacity="1" /><path clip-path="url(#clip270)" d="M2084.01 203.465 L2084.01 216.312 L2080.08 216.312 L2080.08 203.465 L2084.01 203.465 M2092.76 203.465 L2092.76 216.312 L2088.83 216.312 L2088.83 203.465 L2092.76 203.465 Z" fill="#000000" fill-rule="evenodd" fill-opacity="1" /><path clip-path="url(#clip270)" d="M2111.75 202.006 L2111.75 244.275 L2101.93 244.275 L2101.93 240.964 L2107.46 240.964 L2107.46 205.316 L2101.93 205.316 L2101.93 202.006 L2111.75 202.006 Z" fill="#000000" fill-rule="evenodd" fill-opacity="1" /><polyline clip-path="url(#clip270)" style="stroke:#008000; stroke-linecap:butt; stroke-linejoin:round; stroke-width:4; stroke-opacity:0.6; fill:none" points="
  1738.6,272.585 1885.62,272.585 
  "/>
<path clip-path="url(#clip270)" d="M1932.37 256.439 L1932.37 260.999 Q1929.71 259.726 1927.35 259.101 Q1924.99 258.476 1922.79 258.476 Q1918.97 258.476 1916.89 259.957 Q1914.83 261.439 1914.83 264.17 Q1914.83 266.462 1916.19 267.643 Q1917.58 268.8 1921.42 269.518 L1924.25 270.096 Q1929.48 271.092 1931.96 273.615 Q1934.46 276.115 1934.46 280.328 Q1934.46 285.351 1931.08 287.943 Q1927.72 290.536 1921.21 290.536 Q1918.76 290.536 1915.98 289.98 Q1913.23 289.425 1910.27 288.337 L1910.27 283.522 Q1913.11 285.119 1915.84 285.929 Q1918.58 286.74 1921.21 286.74 Q1925.22 286.74 1927.39 285.166 Q1929.57 283.592 1929.57 280.675 Q1929.57 278.129 1928 276.693 Q1926.45 275.258 1922.88 274.541 L1920.03 273.985 Q1914.8 272.943 1912.46 270.721 Q1910.13 268.499 1910.13 264.541 Q1910.13 259.957 1913.34 257.319 Q1916.58 254.68 1922.26 254.68 Q1924.69 254.68 1927.21 255.119 Q1929.73 255.559 1932.37 256.439 Z" fill="#000000" fill-rule="evenodd" fill-opacity="1" /><path clip-path="url(#clip270)" d="M1953.34 276.832 Q1948.18 276.832 1946.19 278.013 Q1944.2 279.193 1944.2 282.041 Q1944.2 284.309 1945.68 285.652 Q1947.19 286.971 1949.76 286.971 Q1953.3 286.971 1955.43 284.471 Q1957.58 281.948 1957.58 277.781 L1957.58 276.832 L1953.34 276.832 M1961.84 275.073 L1961.84 289.865 L1957.58 289.865 L1957.58 285.929 Q1956.12 288.291 1953.95 289.425 Q1951.77 290.536 1948.62 290.536 Q1944.64 290.536 1942.28 288.314 Q1939.94 286.068 1939.94 282.318 Q1939.94 277.943 1942.86 275.721 Q1945.8 273.499 1951.61 273.499 L1957.58 273.499 L1957.58 273.082 Q1957.58 270.143 1955.64 268.545 Q1953.71 266.925 1950.22 266.925 Q1948 266.925 1945.89 267.457 Q1943.78 267.99 1941.84 269.055 L1941.84 265.119 Q1944.18 264.217 1946.38 263.777 Q1948.58 263.314 1950.66 263.314 Q1956.28 263.314 1959.06 266.231 Q1961.84 269.147 1961.84 275.073 Z" fill="#000000" fill-rule="evenodd" fill-opacity="1" /><path clip-path="url(#clip270)" d="M1990.8 268.916 Q1992.39 266.045 1994.62 264.68 Q1996.84 263.314 1999.85 263.314 Q2003.9 263.314 2006.1 266.161 Q2008.3 268.985 2008.3 274.217 L2008.3 289.865 L2004.01 289.865 L2004.01 274.355 Q2004.01 270.629 2002.7 268.823 Q2001.38 267.018 1998.67 267.018 Q1995.36 267.018 1993.44 269.217 Q1991.51 271.416 1991.51 275.212 L1991.51 289.865 L1987.23 289.865 L1987.23 274.355 Q1987.23 270.605 1985.91 268.823 Q1984.59 267.018 1981.84 267.018 Q1978.58 267.018 1976.65 269.24 Q1974.73 271.439 1974.73 275.212 L1974.73 289.865 L1970.45 289.865 L1970.45 263.939 L1974.73 263.939 L1974.73 267.967 Q1976.19 265.582 1978.23 264.448 Q1980.26 263.314 1983.07 263.314 Q1985.89 263.314 1987.86 264.749 Q1989.85 266.184 1990.8 268.916 Z" fill="#000000" fill-rule="evenodd" fill-opacity="1" /><path clip-path="url(#clip270)" d="M2020.91 285.976 L2020.91 299.726 L2016.63 299.726 L2016.63 263.939 L2020.91 263.939 L2020.91 267.874 Q2022.26 265.559 2024.29 264.448 Q2026.35 263.314 2029.2 263.314 Q2033.92 263.314 2036.86 267.064 Q2039.82 270.814 2039.82 276.925 Q2039.82 283.036 2036.86 286.786 Q2033.92 290.536 2029.2 290.536 Q2026.35 290.536 2024.29 289.425 Q2022.26 288.291 2020.91 285.976 M2035.4 276.925 Q2035.4 272.226 2033.46 269.564 Q2031.54 266.879 2028.16 266.879 Q2024.78 266.879 2022.83 269.564 Q2020.91 272.226 2020.91 276.925 Q2020.91 281.624 2022.83 284.309 Q2024.78 286.971 2028.16 286.971 Q2031.54 286.971 2033.46 284.309 Q2035.4 281.624 2035.4 276.925 Z" fill="#000000" fill-rule="evenodd" fill-opacity="1" /><path clip-path="url(#clip270)" d="M2046.88 253.846 L2051.14 253.846 L2051.14 289.865 L2046.88 289.865 L2046.88 253.846 Z" fill="#000000" fill-rule="evenodd" fill-opacity="1" /><path clip-path="url(#clip270)" d="M2082.23 275.837 L2082.23 277.92 L2062.65 277.92 Q2062.93 282.318 2065.29 284.633 Q2067.67 286.925 2071.91 286.925 Q2074.36 286.925 2076.65 286.323 Q2078.97 285.721 2081.24 284.517 L2081.24 288.545 Q2078.94 289.517 2076.54 290.027 Q2074.13 290.536 2071.65 290.536 Q2065.45 290.536 2061.82 286.925 Q2058.2 283.314 2058.2 277.156 Q2058.2 270.791 2061.63 267.064 Q2065.08 263.314 2070.91 263.314 Q2076.14 263.314 2079.18 266.693 Q2082.23 270.05 2082.23 275.837 M2077.97 274.587 Q2077.93 271.092 2076.01 269.008 Q2074.11 266.925 2070.96 266.925 Q2067.39 266.925 2065.24 268.939 Q2063.11 270.953 2062.79 274.61 L2077.97 274.587 Z" fill="#000000" fill-rule="evenodd" fill-opacity="1" /><path clip-path="url(#clip270)" d="M2124.48 268.916 Q2126.07 266.045 2128.3 264.68 Q2130.52 263.314 2133.53 263.314 Q2137.58 263.314 2139.78 266.161 Q2141.98 268.985 2141.98 274.217 L2141.98 289.865 L2137.69 289.865 L2137.69 274.355 Q2137.69 270.629 2136.38 268.823 Q2135.06 267.018 2132.35 267.018 Q2129.04 267.018 2127.12 269.217 Q2125.19 271.416 2125.19 275.212 L2125.19 289.865 L2120.91 289.865 L2120.91 274.355 Q2120.91 270.605 2119.59 268.823 Q2118.27 267.018 2115.52 267.018 Q2112.25 267.018 2110.33 269.24 Q2108.41 271.439 2108.41 275.212 L2108.41 289.865 L2104.13 289.865 L2104.13 263.939 L2108.41 263.939 L2108.41 267.967 Q2109.87 265.582 2111.91 264.448 Q2113.94 263.314 2116.75 263.314 Q2119.57 263.314 2121.54 264.749 Q2123.53 266.184 2124.48 268.916 Z" fill="#000000" fill-rule="evenodd" fill-opacity="1" /><path clip-path="url(#clip270)" d="M2172.65 275.837 L2172.65 277.92 L2153.06 277.92 Q2153.34 282.318 2155.7 284.633 Q2158.09 286.925 2162.32 286.925 Q2164.78 286.925 2167.07 286.323 Q2169.38 285.721 2171.65 284.517 L2171.65 288.545 Q2169.36 289.517 2166.95 290.027 Q2164.55 290.536 2162.07 290.536 Q2155.87 290.536 2152.23 286.925 Q2148.62 283.314 2148.62 277.156 Q2148.62 270.791 2152.05 267.064 Q2155.5 263.314 2161.33 263.314 Q2166.56 263.314 2169.59 266.693 Q2172.65 270.05 2172.65 275.837 M2168.39 274.587 Q2168.34 271.092 2166.42 269.008 Q2164.52 266.925 2161.38 266.925 Q2157.81 266.925 2155.66 268.939 Q2153.53 270.953 2153.2 274.61 L2168.39 274.587 Z" fill="#000000" fill-rule="evenodd" fill-opacity="1" /><path clip-path="url(#clip270)" d="M2191.42 276.832 Q2186.26 276.832 2184.27 278.013 Q2182.28 279.193 2182.28 282.041 Q2182.28 284.309 2183.76 285.652 Q2185.26 286.971 2187.83 286.971 Q2191.37 286.971 2193.5 284.471 Q2195.66 281.948 2195.66 277.781 L2195.66 276.832 L2191.42 276.832 M2199.92 275.073 L2199.92 289.865 L2195.66 289.865 L2195.66 285.929 Q2194.2 288.291 2192.02 289.425 Q2189.85 290.536 2186.7 290.536 Q2182.72 290.536 2180.36 288.314 Q2178.02 286.068 2178.02 282.318 Q2178.02 277.943 2180.94 275.721 Q2183.87 273.499 2189.69 273.499 L2195.66 273.499 L2195.66 273.082 Q2195.66 270.143 2193.71 268.545 Q2191.79 266.925 2188.3 266.925 Q2186.07 266.925 2183.97 267.457 Q2181.86 267.99 2179.92 269.055 L2179.92 265.119 Q2182.25 264.217 2184.45 263.777 Q2186.65 263.314 2188.74 263.314 Q2194.36 263.314 2197.14 266.231 Q2199.92 269.147 2199.92 275.073 Z" fill="#000000" fill-rule="evenodd" fill-opacity="1" /><path clip-path="url(#clip270)" d="M2230.24 274.217 L2230.24 289.865 L2225.98 289.865 L2225.98 274.355 Q2225.98 270.675 2224.55 268.846 Q2223.11 267.018 2220.24 267.018 Q2216.79 267.018 2214.8 269.217 Q2212.81 271.416 2212.81 275.212 L2212.81 289.865 L2208.53 289.865 L2208.53 263.939 L2212.81 263.939 L2212.81 267.967 Q2214.34 265.629 2216.4 264.471 Q2218.48 263.314 2221.19 263.314 Q2225.66 263.314 2227.95 266.092 Q2230.24 268.846 2230.24 274.217 Z" fill="#000000" fill-rule="evenodd" fill-opacity="1" /></svg>
