<?xml version="1.0" encoding="utf-8"?>
<svg xmlns="http://www.w3.org/2000/svg" xmlns:xlink="http://www.w3.org/1999/xlink" width="600" height="400" viewBox="0 0 2400 1600">
<defs>
  <clipPath id="clip090">
    <rect x="0" y="0" width="2400" height="1600"/>
  </clipPath>
</defs>
<path clip-path="url(#clip090)" d="
M0 1600 L2400 1600 L2400 0 L0 0  Z
  " fill="#ffffff" fill-rule="evenodd" fill-opacity="1"/>
<defs>
  <clipPath id="clip091">
    <rect x="480" y="0" width="1681" height="1600"/>
  </clipPath>
</defs>
<path clip-path="url(#clip090)" d="
M156.598 1486.45 L2352.76 1486.45 L2352.76 47.2441 L156.598 47.2441  Z
  " fill="#ffffff" fill-rule="evenodd" fill-opacity="1"/>
<defs>
  <clipPath id="clip092">
    <rect x="156" y="47" width="2197" height="1440"/>
  </clipPath>
</defs>
<polyline clip-path="url(#clip090)" style="stroke:#000000; stroke-linecap:butt; stroke-linejoin:round; stroke-width:4; stroke-opacity:1; fill:none" points="
  156.598,1486.45 2352.76,1486.45 
  "/>
<polyline clip-path="url(#clip090)" style="stroke:#000000; stroke-linecap:butt; stroke-linejoin:round; stroke-width:4; stroke-opacity:1; fill:none" points="
  156.598,1486.45 156.598,1467.55 
  "/>
<polyline clip-path="url(#clip090)" style="stroke:#000000; stroke-linecap:butt; stroke-linejoin:round; stroke-width:4; stroke-opacity:1; fill:none" points="
  595.83,1486.45 595.83,1467.55 
  "/>
<polyline clip-path="url(#clip090)" style="stroke:#000000; stroke-linecap:butt; stroke-linejoin:round; stroke-width:4; stroke-opacity:1; fill:none" points="
  1035.06,1486.45 1035.06,1467.55 
  "/>
<polyline clip-path="url(#clip090)" style="stroke:#000000; stroke-linecap:butt; stroke-linejoin:round; stroke-width:4; stroke-opacity:1; fill:none" points="
  1474.29,1486.45 1474.29,1467.55 
  "/>
<polyline clip-path="url(#clip090)" style="stroke:#000000; stroke-linecap:butt; stroke-linejoin:round; stroke-width:4; stroke-opacity:1; fill:none" points="
  1913.52,1486.45 1913.52,1467.55 
  "/>
<polyline clip-path="url(#clip090)" style="stroke:#000000; stroke-linecap:butt; stroke-linejoin:round; stroke-width:4; stroke-opacity:1; fill:none" points="
  2352.76,1486.45 2352.76,1467.55 
  "/>
<path clip-path="url(#clip090)" d="M156.598 1515.64 Q152.987 1515.64 151.158 1519.2 Q149.353 1522.75 149.353 1529.87 Q149.353 1536.98 151.158 1540.55 Q152.987 1544.09 156.598 1544.09 Q160.232 1544.09 162.038 1540.55 Q163.867 1536.98 163.867 1529.87 Q163.867 1522.75 162.038 1519.2 Q160.232 1515.64 156.598 1515.64 M156.598 1511.93 Q162.408 1511.93 165.464 1516.54 Q168.543 1521.12 168.543 1529.87 Q168.543 1538.6 165.464 1543.21 Q162.408 1547.79 156.598 1547.79 Q150.788 1547.79 147.709 1543.21 Q144.654 1538.6 144.654 1529.87 Q144.654 1521.12 147.709 1516.54 Q150.788 1511.93 156.598 1511.93 Z" fill="#000000" fill-rule="evenodd" fill-opacity="1" /><path clip-path="url(#clip090)" d="M590.483 1543.18 L606.802 1543.18 L606.802 1547.12 L584.858 1547.12 L584.858 1543.18 Q587.52 1540.43 592.103 1535.8 Q596.709 1531.15 597.89 1529.81 Q600.135 1527.28 601.015 1525.55 Q601.918 1523.79 601.918 1522.1 Q601.918 1519.34 599.973 1517.61 Q598.052 1515.87 594.95 1515.87 Q592.751 1515.87 590.297 1516.63 Q587.867 1517.4 585.089 1518.95 L585.089 1514.23 Q587.913 1513.09 590.367 1512.51 Q592.821 1511.93 594.858 1511.93 Q600.228 1511.93 603.422 1514.62 Q606.617 1517.31 606.617 1521.8 Q606.617 1523.93 605.807 1525.85 Q605.02 1527.74 602.913 1530.34 Q602.334 1531.01 599.233 1534.23 Q596.131 1537.42 590.483 1543.18 Z" fill="#000000" fill-rule="evenodd" fill-opacity="1" /><path clip-path="url(#clip090)" d="M1038.07 1516.63 L1026.27 1535.08 L1038.07 1535.08 L1038.07 1516.63 M1036.84 1512.56 L1042.72 1512.56 L1042.72 1535.08 L1047.65 1535.08 L1047.65 1538.97 L1042.72 1538.97 L1042.72 1547.12 L1038.07 1547.12 L1038.07 1538.97 L1022.47 1538.97 L1022.47 1534.46 L1036.84 1512.56 Z" fill="#000000" fill-rule="evenodd" fill-opacity="1" /><path clip-path="url(#clip090)" d="M1474.7 1527.98 Q1471.55 1527.98 1469.7 1530.13 Q1467.87 1532.28 1467.87 1536.03 Q1467.87 1539.76 1469.7 1541.93 Q1471.55 1544.09 1474.7 1544.09 Q1477.85 1544.09 1479.67 1541.93 Q1481.53 1539.76 1481.53 1536.03 Q1481.53 1532.28 1479.67 1530.13 Q1477.85 1527.98 1474.7 1527.98 M1483.98 1513.32 L1483.98 1517.58 Q1482.22 1516.75 1480.42 1516.31 Q1478.63 1515.87 1476.87 1515.87 Q1472.24 1515.87 1469.79 1519 Q1467.36 1522.12 1467.01 1528.44 Q1468.38 1526.43 1470.44 1525.36 Q1472.5 1524.27 1474.98 1524.27 Q1480.18 1524.27 1483.19 1527.44 Q1486.23 1530.59 1486.23 1536.03 Q1486.23 1541.36 1483.08 1544.57 Q1479.93 1547.79 1474.7 1547.79 Q1468.7 1547.79 1465.53 1543.21 Q1462.36 1538.6 1462.36 1529.87 Q1462.36 1521.68 1466.25 1516.82 Q1470.14 1511.93 1476.69 1511.93 Q1478.45 1511.93 1480.23 1512.28 Q1482.04 1512.63 1483.98 1513.32 Z" fill="#000000" fill-rule="evenodd" fill-opacity="1" /><path clip-path="url(#clip090)" d="M1913.52 1530.71 Q1910.19 1530.71 1908.27 1532.49 Q1906.37 1534.27 1906.37 1537.4 Q1906.37 1540.52 1908.27 1542.31 Q1910.19 1544.09 1913.52 1544.09 Q1916.86 1544.09 1918.78 1542.31 Q1920.7 1540.5 1920.7 1537.4 Q1920.7 1534.27 1918.78 1532.49 Q1916.88 1530.71 1913.52 1530.71 M1908.85 1528.72 Q1905.84 1527.98 1904.15 1525.92 Q1902.48 1523.86 1902.48 1520.89 Q1902.48 1516.75 1905.42 1514.34 Q1908.39 1511.93 1913.52 1511.93 Q1918.69 1511.93 1921.63 1514.34 Q1924.57 1516.75 1924.57 1520.89 Q1924.57 1523.86 1922.88 1525.92 Q1921.21 1527.98 1918.22 1528.72 Q1921.6 1529.5 1923.48 1531.8 Q1925.38 1534.09 1925.38 1537.4 Q1925.38 1542.42 1922.3 1545.11 Q1919.24 1547.79 1913.52 1547.79 Q1907.81 1547.79 1904.73 1545.11 Q1901.67 1542.42 1901.67 1537.4 Q1901.67 1534.09 1903.57 1531.8 Q1905.47 1529.5 1908.85 1528.72 M1907.14 1521.33 Q1907.14 1524.02 1908.8 1525.52 Q1910.49 1527.03 1913.52 1527.03 Q1916.53 1527.03 1918.22 1525.52 Q1919.94 1524.02 1919.94 1521.33 Q1919.94 1518.65 1918.22 1517.14 Q1916.53 1515.64 1913.52 1515.64 Q1910.49 1515.64 1908.8 1517.14 Q1907.14 1518.65 1907.14 1521.33 Z" fill="#000000" fill-rule="evenodd" fill-opacity="1" /><path clip-path="url(#clip090)" d="M2327.44 1543.18 L2335.08 1543.18 L2335.08 1516.82 L2326.77 1518.49 L2326.77 1514.23 L2335.04 1512.56 L2339.71 1512.56 L2339.71 1543.18 L2347.35 1543.18 L2347.35 1547.12 L2327.44 1547.12 L2327.44 1543.18 Z" fill="#000000" fill-rule="evenodd" fill-opacity="1" /><path clip-path="url(#clip090)" d="M2366.8 1515.64 Q2363.18 1515.64 2361.36 1519.2 Q2359.55 1522.75 2359.55 1529.87 Q2359.55 1536.98 2361.36 1540.55 Q2363.18 1544.09 2366.8 1544.09 Q2370.43 1544.09 2372.23 1540.55 Q2374.06 1536.98 2374.06 1529.87 Q2374.06 1522.75 2372.23 1519.2 Q2370.43 1515.64 2366.8 1515.64 M2366.8 1511.93 Q2372.61 1511.93 2375.66 1516.54 Q2378.74 1521.12 2378.74 1529.87 Q2378.74 1538.6 2375.66 1543.21 Q2372.61 1547.79 2366.8 1547.79 Q2360.99 1547.79 2357.91 1543.21 Q2354.85 1538.6 2354.85 1529.87 Q2354.85 1521.12 2357.91 1516.54 Q2360.99 1511.93 2366.8 1511.93 Z" fill="#000000" fill-rule="evenodd" fill-opacity="1" /><polyline clip-path="url(#clip090)" style="stroke:#000000; stroke-linecap:butt; stroke-linejoin:round; stroke-width:4; stroke-opacity:1; fill:none" points="
  156.598,1486.45 156.598,47.2441 
  "/>
<polyline clip-path="url(#clip090)" style="stroke:#000000; stroke-linecap:butt; stroke-linejoin:round; stroke-width:4; stroke-opacity:1; fill:none" points="
  156.598,1445.72 175.496,1445.72 
  "/>
<polyline clip-path="url(#clip090)" style="stroke:#000000; stroke-linecap:butt; stroke-linejoin:round; stroke-width:4; stroke-opacity:1; fill:none" points="
  156.598,1174.17 175.496,1174.17 
  "/>
<polyline clip-path="url(#clip090)" style="stroke:#000000; stroke-linecap:butt; stroke-linejoin:round; stroke-width:4; stroke-opacity:1; fill:none" points="
  156.598,902.62 175.496,902.62 
  "/>
<polyline clip-path="url(#clip090)" style="stroke:#000000; stroke-linecap:butt; stroke-linejoin:round; stroke-width:4; stroke-opacity:1; fill:none" points="
  156.598,631.072 175.496,631.072 
  "/>
<polyline clip-path="url(#clip090)" style="stroke:#000000; stroke-linecap:butt; stroke-linejoin:round; stroke-width:4; stroke-opacity:1; fill:none" points="
  156.598,359.524 175.496,359.524 
  "/>
<polyline clip-path="url(#clip090)" style="stroke:#000000; stroke-linecap:butt; stroke-linejoin:round; stroke-width:4; stroke-opacity:1; fill:none" points="
  156.598,87.9763 175.496,87.9763 
  "/>
<path clip-path="url(#clip090)" d="M63.4226 1431.51 Q59.8115 1431.51 57.9828 1435.08 Q56.1773 1438.62 56.1773 1445.75 Q56.1773 1452.86 57.9828 1456.42 Q59.8115 1459.96 63.4226 1459.96 Q67.0569 1459.96 68.8624 1456.42 Q70.6911 1452.86 70.6911 1445.75 Q70.6911 1438.62 68.8624 1435.08 Q67.0569 1431.51 63.4226 1431.51 M63.4226 1427.81 Q69.2328 1427.81 72.2883 1432.42 Q75.367 1437 75.367 1445.75 Q75.367 1454.48 72.2883 1459.08 Q69.2328 1463.67 63.4226 1463.67 Q57.6125 1463.67 54.5338 1459.08 Q51.4782 1454.48 51.4782 1445.75 Q51.4782 1437 54.5338 1432.42 Q57.6125 1427.81 63.4226 1427.81 Z" fill="#000000" fill-rule="evenodd" fill-opacity="1" /><path clip-path="url(#clip090)" d="M83.5845 1457.12 L88.4688 1457.12 L88.4688 1463 L83.5845 1463 L83.5845 1457.12 Z" fill="#000000" fill-rule="evenodd" fill-opacity="1" /><path clip-path="url(#clip090)" d="M108.654 1431.51 Q105.043 1431.51 103.214 1435.08 Q101.409 1438.62 101.409 1445.75 Q101.409 1452.86 103.214 1456.42 Q105.043 1459.96 108.654 1459.96 Q112.288 1459.96 114.094 1456.42 Q115.922 1452.86 115.922 1445.75 Q115.922 1438.62 114.094 1435.08 Q112.288 1431.51 108.654 1431.51 M108.654 1427.81 Q114.464 1427.81 117.52 1432.42 Q120.598 1437 120.598 1445.75 Q120.598 1454.48 117.52 1459.08 Q114.464 1463.67 108.654 1463.67 Q102.844 1463.67 99.765 1459.08 Q96.7095 1454.48 96.7095 1445.75 Q96.7095 1437 99.765 1432.42 Q102.844 1427.81 108.654 1427.81 Z" fill="#000000" fill-rule="evenodd" fill-opacity="1" /><path clip-path="url(#clip090)" d="M64.6495 1159.97 Q61.0384 1159.97 59.2097 1163.53 Q57.4041 1167.07 57.4041 1174.2 Q57.4041 1181.31 59.2097 1184.87 Q61.0384 1188.42 64.6495 1188.42 Q68.2837 1188.42 70.0892 1184.87 Q71.9179 1181.31 71.9179 1174.2 Q71.9179 1167.07 70.0892 1163.53 Q68.2837 1159.97 64.6495 1159.97 M64.6495 1156.26 Q70.4596 1156.26 73.5152 1160.87 Q76.5938 1165.45 76.5938 1174.2 Q76.5938 1182.93 73.5152 1187.54 Q70.4596 1192.12 64.6495 1192.12 Q58.8393 1192.12 55.7606 1187.54 Q52.7051 1182.93 52.7051 1174.2 Q52.7051 1165.45 55.7606 1160.87 Q58.8393 1156.26 64.6495 1156.26 Z" fill="#000000" fill-rule="evenodd" fill-opacity="1" /><path clip-path="url(#clip090)" d="M84.8114 1185.57 L89.6956 1185.57 L89.6956 1191.45 L84.8114 1191.45 L84.8114 1185.57 Z" fill="#000000" fill-rule="evenodd" fill-opacity="1" /><path clip-path="url(#clip090)" d="M100.691 1187.51 L108.33 1187.51 L108.33 1161.15 L100.02 1162.81 L100.02 1158.55 L108.283 1156.89 L112.959 1156.89 L112.959 1187.51 L120.598 1187.51 L120.598 1191.45 L100.691 1191.45 L100.691 1187.51 Z" fill="#000000" fill-rule="evenodd" fill-opacity="1" /><path clip-path="url(#clip090)" d="M65.0198 888.419 Q61.4087 888.419 59.58 891.983 Q57.7745 895.525 57.7745 902.655 Q57.7745 909.761 59.58 913.326 Q61.4087 916.868 65.0198 916.868 Q68.6541 916.868 70.4596 913.326 Q72.2883 909.761 72.2883 902.655 Q72.2883 895.525 70.4596 891.983 Q68.6541 888.419 65.0198 888.419 M65.0198 884.715 Q70.83 884.715 73.8855 889.321 Q76.9642 893.905 76.9642 902.655 Q76.9642 911.381 73.8855 915.988 Q70.83 920.571 65.0198 920.571 Q59.2097 920.571 56.131 915.988 Q53.0754 911.381 53.0754 902.655 Q53.0754 893.905 56.131 889.321 Q59.2097 884.715 65.0198 884.715 Z" fill="#000000" fill-rule="evenodd" fill-opacity="1" /><path clip-path="url(#clip090)" d="M85.1818 914.02 L90.066 914.02 L90.066 919.9 L85.1818 919.9 L85.1818 914.02 Z" fill="#000000" fill-rule="evenodd" fill-opacity="1" /><path clip-path="url(#clip090)" d="M104.279 915.965 L120.598 915.965 L120.598 919.9 L98.6539 919.9 L98.6539 915.965 Q101.316 913.21 105.899 908.581 Q110.506 903.928 111.686 902.585 Q113.932 900.062 114.811 898.326 Q115.714 896.567 115.714 894.877 Q115.714 892.122 113.77 890.386 Q111.848 888.65 108.746 888.65 Q106.547 888.65 104.094 889.414 Q101.663 890.178 98.8854 891.729 L98.8854 887.007 Q101.709 885.872 104.163 885.294 Q106.617 884.715 108.654 884.715 Q114.024 884.715 117.219 887.4 Q120.413 890.085 120.413 894.576 Q120.413 896.706 119.603 898.627 Q118.816 900.525 116.709 903.118 Q116.131 903.789 113.029 907.006 Q109.927 910.201 104.279 915.965 Z" fill="#000000" fill-rule="evenodd" fill-opacity="1" /><path clip-path="url(#clip090)" d="M64.0708 616.871 Q60.4597 616.871 58.631 620.436 Q56.8254 623.977 56.8254 631.107 Q56.8254 638.213 58.631 641.778 Q60.4597 645.32 64.0708 645.32 Q67.705 645.32 69.5105 641.778 Q71.3392 638.213 71.3392 631.107 Q71.3392 623.977 69.5105 620.436 Q67.705 616.871 64.0708 616.871 M64.0708 613.167 Q69.8809 613.167 72.9365 617.774 Q76.0151 622.357 76.0151 631.107 Q76.0151 639.834 72.9365 644.44 Q69.8809 649.023 64.0708 649.023 Q58.2606 649.023 55.1819 644.44 Q52.1264 639.834 52.1264 631.107 Q52.1264 622.357 55.1819 617.774 Q58.2606 613.167 64.0708 613.167 Z" fill="#000000" fill-rule="evenodd" fill-opacity="1" /><path clip-path="url(#clip090)" d="M84.2327 642.472 L89.1169 642.472 L89.1169 648.352 L84.2327 648.352 L84.2327 642.472 Z" fill="#000000" fill-rule="evenodd" fill-opacity="1" /><path clip-path="url(#clip090)" d="M113.469 629.718 Q116.825 630.435 118.7 632.704 Q120.598 634.972 120.598 638.306 Q120.598 643.422 117.08 646.222 Q113.561 649.023 107.08 649.023 Q104.904 649.023 102.589 648.584 Q100.297 648.167 97.8437 647.31 L97.8437 642.797 Q99.7882 643.931 102.103 644.509 Q104.418 645.088 106.941 645.088 Q111.339 645.088 113.631 643.352 Q115.945 641.616 115.945 638.306 Q115.945 635.25 113.793 633.537 Q111.663 631.801 107.844 631.801 L103.816 631.801 L103.816 627.959 L108.029 627.959 Q111.478 627.959 113.307 626.593 Q115.135 625.204 115.135 622.611 Q115.135 619.949 113.237 618.537 Q111.362 617.102 107.844 617.102 Q105.922 617.102 103.723 617.519 Q101.524 617.936 98.8854 618.815 L98.8854 614.649 Q101.547 613.908 103.862 613.537 Q106.2 613.167 108.26 613.167 Q113.584 613.167 116.686 615.598 Q119.788 618.005 119.788 622.125 Q119.788 624.996 118.145 626.986 Q116.501 628.954 113.469 629.718 Z" fill="#000000" fill-rule="evenodd" fill-opacity="1" /><path clip-path="url(#clip090)" d="M62.9365 345.323 Q59.3254 345.323 57.4967 348.888 Q55.6912 352.429 55.6912 359.559 Q55.6912 366.665 57.4967 370.23 Q59.3254 373.772 62.9365 373.772 Q66.5707 373.772 68.3763 370.23 Q70.205 366.665 70.205 359.559 Q70.205 352.429 68.3763 348.888 Q66.5707 345.323 62.9365 345.323 M62.9365 341.619 Q68.7467 341.619 71.8022 346.226 Q74.8809 350.809 74.8809 359.559 Q74.8809 368.286 71.8022 372.892 Q68.7467 377.475 62.9365 377.475 Q57.1264 377.475 54.0477 372.892 Q50.9921 368.286 50.9921 359.559 Q50.9921 350.809 54.0477 346.226 Q57.1264 341.619 62.9365 341.619 Z" fill="#000000" fill-rule="evenodd" fill-opacity="1" /><path clip-path="url(#clip090)" d="M83.0984 370.925 L87.9827 370.925 L87.9827 376.804 L83.0984 376.804 L83.0984 370.925 Z" fill="#000000" fill-rule="evenodd" fill-opacity="1" /><path clip-path="url(#clip090)" d="M111.015 346.318 L99.2095 364.767 L111.015 364.767 L111.015 346.318 M109.788 342.244 L115.668 342.244 L115.668 364.767 L120.598 364.767 L120.598 368.656 L115.668 368.656 L115.668 376.804 L111.015 376.804 L111.015 368.656 L95.4132 368.656 L95.4132 364.142 L109.788 342.244 Z" fill="#000000" fill-rule="evenodd" fill-opacity="1" /><path clip-path="url(#clip090)" d="M64.418 73.775 Q60.8069 73.775 58.9782 77.3398 Q57.1726 80.8814 57.1726 88.011 Q57.1726 95.1174 58.9782 98.6822 Q60.8069 102.224 64.418 102.224 Q68.0522 102.224 69.8578 98.6822 Q71.6865 95.1174 71.6865 88.011 Q71.6865 80.8814 69.8578 77.3398 Q68.0522 73.775 64.418 73.775 M64.418 70.0713 Q70.2281 70.0713 73.2837 74.6777 Q76.3624 79.261 76.3624 88.011 Q76.3624 96.7378 73.2837 101.344 Q70.2281 105.928 64.418 105.928 Q58.6078 105.928 55.5291 101.344 Q52.4736 96.7378 52.4736 88.011 Q52.4736 79.261 55.5291 74.6777 Q58.6078 70.0713 64.418 70.0713 Z" fill="#000000" fill-rule="evenodd" fill-opacity="1" /><path clip-path="url(#clip090)" d="M84.5799 99.3767 L89.4641 99.3767 L89.4641 105.256 L84.5799 105.256 L84.5799 99.3767 Z" fill="#000000" fill-rule="evenodd" fill-opacity="1" /><path clip-path="url(#clip090)" d="M99.6956 70.6963 L118.052 70.6963 L118.052 74.6314 L103.978 74.6314 L103.978 83.1036 Q104.996 82.7564 106.015 82.5944 Q107.033 82.4092 108.052 82.4092 Q113.839 82.4092 117.219 85.5805 Q120.598 88.7517 120.598 94.1684 Q120.598 99.747 117.126 102.849 Q113.654 105.928 107.334 105.928 Q105.159 105.928 102.89 105.557 Q100.645 105.187 98.2372 104.446 L98.2372 99.747 Q100.321 100.881 102.543 101.437 Q104.765 101.992 107.242 101.992 Q111.246 101.992 113.584 99.8859 Q115.922 97.7795 115.922 94.1684 Q115.922 90.5573 113.584 88.4508 Q111.246 86.3443 107.242 86.3443 Q105.367 86.3443 103.492 86.761 Q101.64 87.1777 99.6956 88.0573 L99.6956 70.6963 Z" fill="#000000" fill-rule="evenodd" fill-opacity="1" /><polyline clip-path="url(#clip092)" style="stroke:#009af9; stroke-linecap:butt; stroke-linejoin:round; stroke-width:4; stroke-opacity:1; fill:none" points="
  7.58187,1445.64 37.2804,1444.28 66.9789,1431.2 96.6774,1362.08 126.376,1158.8 156.074,821.547 185.773,509.659 215.471,366.555 245.17,364.709 274.868,415.401 
  304.567,476.885 334.265,538.148 363.964,594.07 393.662,644.934 423.361,695.765 453.059,747.291 482.758,795.897 512.456,839.124 542.155,877.284 571.854,911.741 
  601.552,944.503 631.251,977.518 660.949,1009.14 690.648,1037.3 720.346,1064.77 750.045,1092.07 779.743,1115.24 809.442,1133.86 839.14,1150.8 868.839,1168.67 
  898.537,1187.96 928.236,1207.71 957.934,1226.47 987.633,1243.37 1017.33,1258.9 1047.03,1272.12 1076.73,1282.48 1106.43,1292.39 1136.13,1302.96 1165.82,1312.34 
  1195.52,1320.73 1225.22,1330.35 1254.92,1340.3 1284.62,1347.47 1314.32,1351.22 1344.01,1353.55 1373.71,1356.95 1403.41,1362.42 1433.11,1368.9 1462.81,1374.88 
  1492.51,1379.64 1522.21,1383.37 1551.9,1386.86 1581.6,1391.08 1611.3,1395.56 1641,1398.77 1670.7,1400.46 1700.4,1401.99 1730.1,1404.7 1759.79,1408.02 
  1789.49,1410.75 1819.19,1413.31 1848.89,1415.7 1878.59,1417.46 1908.29,1419.31 1937.98,1421.76 1967.68,1424.21 1997.38,1425.9 2027.08,1426.78 2056.78,1427.23 
  2086.48,1427.57 2116.18,1428.49 2145.87,1430.14 2175.57,1431.8 2205.27,1433.34 2234.97,1434.8 2264.67,1435.87 2294.37,1436.46 2324.07,1436.63 2353.76,1436.66 
  2383.46,1437.03 2413.16,1437.51 2442.86,1437.92 2472.56,1438.7 2502.26,1439.85 2531.95,1440.83 2561.65,1441.31 2591.35,1441.25 2621.05,1440.89 2650.75,1440.62 
  2680.45,1440.82 2710.15,1441.43 2739.84,1441.92 2769.54,1442.2 2799.24,1442.55 2828.94,1442.84 2858.64,1442.81 2888.34,1442.54 2918.04,1442.42 2947.73,1442.7 
  2977.43,1442.94 3007.13,1442.72 3036.83,1442.56 3066.53,1443.02 3096.23,1443.7 3125.93,1444.07 3155.62,1444.17 3185.32,1444.11 3215.02,1443.92 3244.72,1443.78 
  3274.42,1444 3304.12,1444.51 3333.81,1444.78 3363.51,1444.6 3393.21,1444.36 3422.91,1444.44 3452.61,1444.76 3482.31,1445.03 3512.01,1445.25 3541.7,1445.4 
  3571.4,1445.42 3601.1,1445.38 3630.8,1445.35 3660.5,1445.36 3690.2,1445.41 3719.9,1445.43 3749.59,1445.42 3779.29,1445.42 3808.99,1445.46 3838.69,1445.54 
  3868.39,1445.62 3898.09,1445.68 3927.78,1445.68 3957.48,1445.63 3987.18,1445.57 4016.88,1445.52 4046.58,1445.5 4076.28,1445.46 4105.98,1445.41 4135.67,1445.4 
  4165.37,1445.4 4195.07,1445.43 4224.77,1445.53 4254.47,1445.6 4284.17,1445.55 4313.87,1445.48 4343.56,1445.48 4373.26,1445.53 4402.96,1445.53 4432.66,1445.51 
  4462.36,1445.53 4492.06,1445.61 4521.75,1445.68 4551.45,1445.7 4581.15,1445.69 4610.85,1445.64 4640.55,1445.6 4670.25,1445.61 4699.95,1445.66 4729.64,1445.7 
  4759.34,1445.71 4789.04,1445.72 4818.74,1445.72 4848.44,1445.72 4878.14,1445.72 4907.84,1445.72 4937.53,1445.72 4967.23,1445.72 4996.93,1445.72 5026.63,1445.72 
  5056.33,1445.72 5086.03,1445.72 5115.73,1445.72 5145.42,1445.72 5175.12,1445.72 5204.82,1445.72 5234.52,1445.72 5264.22,1445.72 5293.92,1445.72 5323.61,1445.72 
  5353.31,1445.72 5383.01,1445.72 5412.71,1445.72 5442.41,1445.72 5472.11,1445.72 5501.81,1445.72 5531.5,1445.72 5561.2,1445.72 5590.9,1445.72 5620.6,1445.72 
  5650.3,1445.71 5680,1445.71 5709.7,1445.68 5739.39,1445.62 5769.09,1445.59 5798.79,1445.62 5828.49,1445.68 5858.19,1445.71 5887.89,1445.71 5917.58,1445.71 
  
  "/>
<polyline clip-path="url(#clip092)" style="stroke:#000000; stroke-linecap:butt; stroke-linejoin:round; stroke-width:4; stroke-opacity:1; fill:none" stroke-dasharray="16, 10" points="
  156.598,87.9763 166.475,118.167 176.352,147.686 186.229,176.548 196.106,204.769 241.768,327.299 287.431,437.731 333.094,537.258 378.757,626.959 424.42,707.802 
  470.082,780.663 515.745,846.33 561.408,905.513 616.291,968.966 671.174,1024.97 726.057,1074.39 780.94,1118 873.745,1180.42 966.551,1230.95 1067.36,1274.99 
  1168.18,1310.01 1261.12,1335.89 1354.06,1356.83 1553.34,1389.25 1784.23,1412.34 1989.42,1424.79 2169.35,1431.83 2365.52,1436.83 2562.86,1440.05 2781.05,1442.27 
  2988.64,1443.56 3204.5,1444.4 3386.2,1444.85 3608.04,1445.19 3816.57,1445.39 4150.66,1445.56 4202.07,1445.58 
  "/>
<path clip-path="url(#clip090)" d="
M1115.84 198.898 L2279.55 198.898 L2279.55 95.2176 L1115.84 95.2176  Z
  " fill="#ffffff" fill-rule="evenodd" fill-opacity="1"/>
<polyline clip-path="url(#clip090)" style="stroke:#000000; stroke-linecap:butt; stroke-linejoin:round; stroke-width:4; stroke-opacity:1; fill:none" points="
  1115.84,198.898 2279.55,198.898 2279.55,95.2176 1115.84,95.2176 1115.84,198.898 
  "/>
<polyline clip-path="url(#clip090)" style="stroke:#000000; stroke-linecap:butt; stroke-linejoin:round; stroke-width:4; stroke-opacity:1; fill:none" stroke-dasharray="16, 10" points="
  1140.24,147.058 1286.65,147.058 
  "/>
<path clip-path="url(#clip090)" d="M1338.92 132.44 L1338.92 137.37 Q1336.56 135.171 1333.88 134.083 Q1331.21 132.995 1328.21 132.995 Q1322.28 132.995 1319.13 136.629 Q1315.98 140.24 1315.98 147.092 Q1315.98 153.921 1319.13 157.555 Q1322.28 161.166 1328.21 161.166 Q1331.21 161.166 1333.88 160.078 Q1336.56 158.99 1338.92 156.791 L1338.92 161.676 Q1336.47 163.342 1333.71 164.176 Q1330.98 165.009 1327.93 165.009 Q1320.08 165.009 1315.57 160.217 Q1311.05 155.402 1311.05 147.092 Q1311.05 138.759 1315.57 133.967 Q1320.08 129.153 1327.93 129.153 Q1331.03 129.153 1333.76 129.986 Q1336.52 130.796 1338.92 132.44 Z" fill="#000000" fill-rule="evenodd" fill-opacity="1" /><path clip-path="url(#clip090)" d="M1367.51 148.689 L1367.51 164.338 L1363.25 164.338 L1363.25 148.828 Q1363.25 145.148 1361.82 143.319 Q1360.38 141.49 1357.51 141.49 Q1354.06 141.49 1352.07 143.69 Q1350.08 145.889 1350.08 149.685 L1350.08 164.338 L1345.8 164.338 L1345.8 128.319 L1350.08 128.319 L1350.08 142.44 Q1351.61 140.102 1353.67 138.944 Q1355.75 137.787 1358.46 137.787 Q1362.93 137.787 1365.22 140.565 Q1367.51 143.319 1367.51 148.689 Z" fill="#000000" fill-rule="evenodd" fill-opacity="1" /><path clip-path="url(#clip090)" d="M1376.01 138.412 L1380.27 138.412 L1380.27 164.338 L1376.01 164.338 L1376.01 138.412 M1376.01 128.319 L1380.27 128.319 L1380.27 133.713 L1376.01 133.713 L1376.01 128.319 Z" fill="#000000" fill-rule="evenodd" fill-opacity="1" /><path clip-path="url(#clip090)" d="M1387.02 149.453 L1399.5 149.453 L1399.5 153.25 L1387.02 153.25 L1387.02 149.453 Z" fill="#000000" fill-rule="evenodd" fill-opacity="1" /><path clip-path="url(#clip090)" d="M1422.81 139.176 L1422.81 143.203 Q1421.01 142.277 1419.06 141.815 Q1417.12 141.352 1415.03 141.352 Q1411.86 141.352 1410.27 142.324 Q1408.69 143.296 1408.69 145.24 Q1408.69 146.722 1409.83 147.578 Q1410.96 148.412 1414.39 149.176 L1415.84 149.5 Q1420.38 150.472 1422.28 152.254 Q1424.2 154.014 1424.2 157.185 Q1424.2 160.796 1421.33 162.902 Q1418.48 165.009 1413.48 165.009 Q1411.4 165.009 1409.13 164.592 Q1406.89 164.199 1404.39 163.388 L1404.39 158.99 Q1406.75 160.217 1409.04 160.842 Q1411.33 161.444 1413.58 161.444 Q1416.58 161.444 1418.21 160.426 Q1419.83 159.384 1419.83 157.509 Q1419.83 155.773 1418.65 154.847 Q1417.49 153.921 1413.53 153.064 L1412.05 152.717 Q1408.09 151.884 1406.33 150.171 Q1404.57 148.435 1404.57 145.426 Q1404.57 141.768 1407.16 139.778 Q1409.76 137.787 1414.52 137.787 Q1416.89 137.787 1418.97 138.134 Q1421.05 138.481 1422.81 139.176 Z" fill="#000000" fill-rule="evenodd" fill-opacity="1" /><path clip-path="url(#clip090)" d="M1433.53 151.398 Q1433.53 156.097 1435.45 158.782 Q1437.39 161.444 1440.77 161.444 Q1444.15 161.444 1446.1 158.782 Q1448.04 156.097 1448.04 151.398 Q1448.04 146.699 1446.1 144.037 Q1444.15 141.352 1440.77 141.352 Q1437.39 141.352 1435.45 144.037 Q1433.53 146.699 1433.53 151.398 M1448.04 160.449 Q1446.7 162.763 1444.64 163.898 Q1442.6 165.009 1439.73 165.009 Q1435.03 165.009 1432.07 161.259 Q1429.13 157.509 1429.13 151.398 Q1429.13 145.287 1432.07 141.537 Q1435.03 137.787 1439.73 137.787 Q1442.6 137.787 1444.64 138.921 Q1446.7 140.032 1448.04 142.347 L1448.04 138.412 L1452.3 138.412 L1452.3 174.199 L1448.04 174.199 L1448.04 160.449 Z" fill="#000000" fill-rule="evenodd" fill-opacity="1" /><path clip-path="url(#clip090)" d="M1460.64 154.106 L1460.64 138.412 L1464.89 138.412 L1464.89 153.944 Q1464.89 157.625 1466.33 159.476 Q1467.77 161.305 1470.64 161.305 Q1474.08 161.305 1476.08 159.106 Q1478.09 156.907 1478.09 153.111 L1478.09 138.412 L1482.35 138.412 L1482.35 164.338 L1478.09 164.338 L1478.09 160.356 Q1476.54 162.717 1474.48 163.875 Q1472.44 165.009 1469.73 165.009 Q1465.27 165.009 1462.95 162.231 Q1460.64 159.453 1460.64 154.106 M1471.35 137.787 L1471.35 137.787 Z" fill="#000000" fill-rule="evenodd" fill-opacity="1" /><path clip-path="url(#clip090)" d="M1502.9 151.305 Q1497.74 151.305 1495.75 152.486 Q1493.76 153.666 1493.76 156.514 Q1493.76 158.782 1495.24 160.125 Q1496.75 161.444 1499.32 161.444 Q1502.86 161.444 1504.99 158.944 Q1507.14 156.421 1507.14 152.254 L1507.14 151.305 L1502.9 151.305 M1511.4 149.546 L1511.4 164.338 L1507.14 164.338 L1507.14 160.402 Q1505.68 162.763 1503.51 163.898 Q1501.33 165.009 1498.18 165.009 Q1494.2 165.009 1491.84 162.787 Q1489.5 160.541 1489.5 156.791 Q1489.5 152.416 1492.42 150.194 Q1495.36 147.972 1501.17 147.972 L1507.14 147.972 L1507.14 147.555 Q1507.14 144.615 1505.2 143.018 Q1503.27 141.398 1499.78 141.398 Q1497.56 141.398 1495.45 141.93 Q1493.34 142.463 1491.4 143.527 L1491.4 139.592 Q1493.74 138.69 1495.94 138.25 Q1498.14 137.787 1500.22 137.787 Q1505.84 137.787 1508.62 140.703 Q1511.4 143.62 1511.4 149.546 Z" fill="#000000" fill-rule="evenodd" fill-opacity="1" /><path clip-path="url(#clip090)" d="M1535.2 142.393 Q1534.48 141.977 1533.62 141.791 Q1532.79 141.583 1531.77 141.583 Q1528.16 141.583 1526.21 143.944 Q1524.29 146.282 1524.29 150.68 L1524.29 164.338 L1520.01 164.338 L1520.01 138.412 L1524.29 138.412 L1524.29 142.44 Q1525.64 140.078 1527.79 138.944 Q1529.94 137.787 1533.02 137.787 Q1533.46 137.787 1533.99 137.856 Q1534.52 137.903 1535.17 138.018 L1535.2 142.393 Z" fill="#000000" fill-rule="evenodd" fill-opacity="1" /><path clip-path="url(#clip090)" d="M1560.8 150.31 L1560.8 152.393 L1541.21 152.393 Q1541.49 156.791 1543.85 159.106 Q1546.24 161.398 1550.47 161.398 Q1552.93 161.398 1555.22 160.796 Q1557.53 160.194 1559.8 158.99 L1559.8 163.018 Q1557.51 163.99 1555.1 164.5 Q1552.7 165.009 1550.22 165.009 Q1544.01 165.009 1540.38 161.398 Q1536.77 157.787 1536.77 151.629 Q1536.77 145.264 1540.2 141.537 Q1543.64 137.787 1549.48 137.787 Q1554.71 137.787 1557.74 141.166 Q1560.8 144.523 1560.8 150.31 M1556.54 149.06 Q1556.49 145.565 1554.57 143.481 Q1552.67 141.398 1549.52 141.398 Q1545.96 141.398 1543.81 143.412 Q1541.68 145.426 1541.35 149.083 L1556.54 149.06 Z" fill="#000000" fill-rule="evenodd" fill-opacity="1" /><path clip-path="url(#clip090)" d="M1584.85 142.347 L1584.85 128.319 L1589.11 128.319 L1589.11 164.338 L1584.85 164.338 L1584.85 160.449 Q1583.51 162.763 1581.45 163.898 Q1579.41 165.009 1576.54 165.009 Q1571.84 165.009 1568.88 161.259 Q1565.94 157.509 1565.94 151.398 Q1565.94 145.287 1568.88 141.537 Q1571.84 137.787 1576.54 137.787 Q1579.41 137.787 1581.45 138.921 Q1583.51 140.032 1584.85 142.347 M1570.33 151.398 Q1570.33 156.097 1572.26 158.782 Q1574.2 161.444 1577.58 161.444 Q1580.96 161.444 1582.9 158.782 Q1584.85 156.097 1584.85 151.398 Q1584.85 146.699 1582.9 144.037 Q1580.96 141.352 1577.58 141.352 Q1574.2 141.352 1572.26 144.037 Q1570.33 146.699 1570.33 151.398 Z" fill="#000000" fill-rule="evenodd" fill-opacity="1" /><path clip-path="url(#clip090)" d="M1610.47 138.412 L1614.73 138.412 L1620.06 158.643 L1625.36 138.412 L1630.38 138.412 L1635.7 158.643 L1641 138.412 L1645.26 138.412 L1638.48 164.338 L1633.46 164.338 L1627.88 143.088 L1622.28 164.338 L1617.26 164.338 L1610.47 138.412 Z" fill="#000000" fill-rule="evenodd" fill-opacity="1" /><path clip-path="url(#clip090)" d="M1651.72 138.412 L1655.98 138.412 L1655.98 164.338 L1651.72 164.338 L1651.72 138.412 M1651.72 128.319 L1655.98 128.319 L1655.98 133.713 L1651.72 133.713 L1651.72 128.319 Z" fill="#000000" fill-rule="evenodd" fill-opacity="1" /><path clip-path="url(#clip090)" d="M1669.11 131.051 L1669.11 138.412 L1677.88 138.412 L1677.88 141.722 L1669.11 141.722 L1669.11 155.796 Q1669.11 158.967 1669.96 159.87 Q1670.84 160.773 1673.5 160.773 L1677.88 160.773 L1677.88 164.338 L1673.5 164.338 Q1668.57 164.338 1666.7 162.509 Q1664.82 160.657 1664.82 155.796 L1664.82 141.722 L1661.7 141.722 L1661.7 138.412 L1664.82 138.412 L1664.82 131.051 L1669.11 131.051 Z" fill="#000000" fill-rule="evenodd" fill-opacity="1" /><path clip-path="url(#clip090)" d="M1705.03 148.689 L1705.03 164.338 L1700.77 164.338 L1700.77 148.828 Q1700.77 145.148 1699.34 143.319 Q1697.9 141.49 1695.03 141.49 Q1691.58 141.49 1689.59 143.69 Q1687.6 145.889 1687.6 149.685 L1687.6 164.338 L1683.32 164.338 L1683.32 128.319 L1687.6 128.319 L1687.6 142.44 Q1689.13 140.102 1691.19 138.944 Q1693.27 137.787 1695.98 137.787 Q1700.45 137.787 1702.74 140.565 Q1705.03 143.319 1705.03 148.689 Z" fill="#000000" fill-rule="evenodd" fill-opacity="1" /><path clip-path="url(#clip090)" d="M1733.23 160.402 L1749.55 160.402 L1749.55 164.338 L1727.6 164.338 L1727.6 160.402 Q1730.26 157.648 1734.85 153.018 Q1739.45 148.365 1740.63 147.023 Q1742.88 144.5 1743.76 142.764 Q1744.66 141.004 1744.66 139.315 Q1744.66 136.56 1742.72 134.824 Q1740.8 133.088 1737.69 133.088 Q1735.5 133.088 1733.04 133.852 Q1730.61 134.615 1727.83 136.166 L1727.83 131.444 Q1730.66 130.31 1733.11 129.731 Q1735.56 129.153 1737.6 129.153 Q1742.97 129.153 1746.17 131.838 Q1749.36 134.523 1749.36 139.014 Q1749.36 141.143 1748.55 143.065 Q1747.76 144.963 1745.66 147.555 Q1745.08 148.227 1741.98 151.444 Q1738.87 154.639 1733.23 160.402 Z" fill="#000000" fill-rule="evenodd" fill-opacity="1" /><path clip-path="url(#clip090)" d="M1790.89 142.347 L1790.89 128.319 L1795.15 128.319 L1795.15 164.338 L1790.89 164.338 L1790.89 160.449 Q1789.55 162.763 1787.49 163.898 Q1785.45 165.009 1782.58 165.009 Q1777.88 165.009 1774.92 161.259 Q1771.98 157.509 1771.98 151.398 Q1771.98 145.287 1774.92 141.537 Q1777.88 137.787 1782.58 137.787 Q1785.45 137.787 1787.49 138.921 Q1789.55 140.032 1790.89 142.347 M1776.37 151.398 Q1776.37 156.097 1778.3 158.782 Q1780.24 161.444 1783.62 161.444 Q1787 161.444 1788.94 158.782 Q1790.89 156.097 1790.89 151.398 Q1790.89 146.699 1788.94 144.037 Q1787 141.352 1783.62 141.352 Q1780.24 141.352 1778.3 144.037 Q1776.37 146.699 1776.37 151.398 Z" fill="#000000" fill-rule="evenodd" fill-opacity="1" /><path clip-path="url(#clip090)" d="M1826.1 150.31 L1826.1 152.393 L1806.51 152.393 Q1806.79 156.791 1809.15 159.106 Q1811.54 161.398 1815.77 161.398 Q1818.23 161.398 1820.52 160.796 Q1822.83 160.194 1825.1 158.99 L1825.1 163.018 Q1822.81 163.99 1820.4 164.5 Q1817.99 165.009 1815.52 165.009 Q1809.31 165.009 1805.68 161.398 Q1802.07 157.787 1802.07 151.629 Q1802.07 145.264 1805.49 141.537 Q1808.94 137.787 1814.78 137.787 Q1820.01 137.787 1823.04 141.166 Q1826.1 144.523 1826.1 150.31 M1821.84 149.06 Q1821.79 145.565 1819.87 143.481 Q1817.97 141.398 1814.82 141.398 Q1811.26 141.398 1809.11 143.412 Q1806.98 145.426 1806.65 149.083 L1821.84 149.06 Z" fill="#000000" fill-rule="evenodd" fill-opacity="1" /><path clip-path="url(#clip090)" d="M1850.15 151.074 Q1850.15 146.444 1848.23 143.898 Q1846.33 141.352 1842.88 141.352 Q1839.45 141.352 1837.53 143.898 Q1835.63 146.444 1835.63 151.074 Q1835.63 155.68 1837.53 158.226 Q1839.45 160.773 1842.88 160.773 Q1846.33 160.773 1848.23 158.226 Q1850.15 155.68 1850.15 151.074 M1854.41 161.12 Q1854.41 167.74 1851.47 170.958 Q1848.53 174.199 1842.46 174.199 Q1840.22 174.199 1838.23 173.851 Q1836.24 173.527 1834.36 172.833 L1834.36 168.689 Q1836.24 169.708 1838.06 170.194 Q1839.89 170.68 1841.79 170.68 Q1845.98 170.68 1848.06 168.481 Q1850.15 166.305 1850.15 161.884 L1850.15 159.777 Q1848.83 162.069 1846.77 163.203 Q1844.71 164.338 1841.84 164.338 Q1837.07 164.338 1834.15 160.703 Q1831.24 157.069 1831.24 151.074 Q1831.24 145.055 1834.15 141.421 Q1837.07 137.787 1841.84 137.787 Q1844.71 137.787 1846.77 138.921 Q1848.83 140.055 1850.15 142.347 L1850.15 138.412 L1854.41 138.412 L1854.41 161.12 Z" fill="#000000" fill-rule="evenodd" fill-opacity="1" /><path clip-path="url(#clip090)" d="M1878.2 142.393 Q1877.49 141.977 1876.63 141.791 Q1875.8 141.583 1874.78 141.583 Q1871.17 141.583 1869.22 143.944 Q1867.3 146.282 1867.3 150.68 L1867.3 164.338 L1863.02 164.338 L1863.02 138.412 L1867.3 138.412 L1867.3 142.44 Q1868.64 140.078 1870.8 138.944 Q1872.95 137.787 1876.03 137.787 Q1876.47 137.787 1877 137.856 Q1877.53 137.903 1878.18 138.018 L1878.2 142.393 Z" fill="#000000" fill-rule="evenodd" fill-opacity="1" /><path clip-path="url(#clip090)" d="M1903.8 150.31 L1903.8 152.393 L1884.22 152.393 Q1884.5 156.791 1886.86 159.106 Q1889.24 161.398 1893.48 161.398 Q1895.93 161.398 1898.23 160.796 Q1900.54 160.194 1902.81 158.99 L1902.81 163.018 Q1900.52 163.99 1898.11 164.5 Q1895.7 165.009 1893.23 165.009 Q1887.02 165.009 1883.39 161.398 Q1879.78 157.787 1879.78 151.629 Q1879.78 145.264 1883.2 141.537 Q1886.65 137.787 1892.49 137.787 Q1897.72 137.787 1900.75 141.166 Q1903.8 144.523 1903.8 150.31 M1899.55 149.06 Q1899.5 145.565 1897.58 143.481 Q1895.68 141.398 1892.53 141.398 Q1888.97 141.398 1886.81 143.412 Q1884.68 145.426 1884.36 149.083 L1899.55 149.06 Z" fill="#000000" fill-rule="evenodd" fill-opacity="1" /><path clip-path="url(#clip090)" d="M1932.97 150.31 L1932.97 152.393 L1913.39 152.393 Q1913.67 156.791 1916.03 159.106 Q1918.41 161.398 1922.65 161.398 Q1925.1 161.398 1927.39 160.796 Q1929.71 160.194 1931.98 158.99 L1931.98 163.018 Q1929.68 163.99 1927.28 164.5 Q1924.87 165.009 1922.39 165.009 Q1916.19 165.009 1912.55 161.398 Q1908.94 157.787 1908.94 151.629 Q1908.94 145.264 1912.37 141.537 Q1915.82 137.787 1921.65 137.787 Q1926.88 137.787 1929.92 141.166 Q1932.97 144.523 1932.97 150.31 M1928.71 149.06 Q1928.67 145.565 1926.74 143.481 Q1924.85 141.398 1921.7 141.398 Q1918.13 141.398 1915.98 143.412 Q1913.85 145.426 1913.53 149.083 L1928.71 149.06 Z" fill="#000000" fill-rule="evenodd" fill-opacity="1" /><path clip-path="url(#clip090)" d="M1956.49 139.176 L1956.49 143.203 Q1954.68 142.277 1952.74 141.815 Q1950.79 141.352 1948.71 141.352 Q1945.54 141.352 1943.94 142.324 Q1942.37 143.296 1942.37 145.24 Q1942.37 146.722 1943.5 147.578 Q1944.64 148.412 1948.06 149.176 L1949.52 149.5 Q1954.06 150.472 1955.96 152.254 Q1957.88 154.014 1957.88 157.185 Q1957.88 160.796 1955.01 162.902 Q1952.16 165.009 1947.16 165.009 Q1945.08 165.009 1942.81 164.592 Q1940.56 164.199 1938.06 163.388 L1938.06 158.99 Q1940.42 160.217 1942.72 160.842 Q1945.01 161.444 1947.25 161.444 Q1950.26 161.444 1951.88 160.426 Q1953.5 159.384 1953.5 157.509 Q1953.5 155.773 1952.32 154.847 Q1951.17 153.921 1947.21 153.064 L1945.73 152.717 Q1941.77 151.884 1940.01 150.171 Q1938.25 148.435 1938.25 145.426 Q1938.25 141.768 1940.84 139.778 Q1943.43 137.787 1948.2 137.787 Q1950.56 137.787 1952.65 138.134 Q1954.73 138.481 1956.49 139.176 Z" fill="#000000" fill-rule="evenodd" fill-opacity="1" /><path clip-path="url(#clip090)" d="M1989.78 141.398 Q1986.35 141.398 1984.36 144.083 Q1982.37 146.745 1982.37 151.398 Q1982.37 156.051 1984.34 158.736 Q1986.33 161.398 1989.78 161.398 Q1993.18 161.398 1995.17 158.713 Q1997.16 156.027 1997.16 151.398 Q1997.16 146.791 1995.17 144.106 Q1993.18 141.398 1989.78 141.398 M1989.78 137.787 Q1995.33 137.787 1998.5 141.398 Q2001.67 145.009 2001.67 151.398 Q2001.67 157.764 1998.5 161.398 Q1995.33 165.009 1989.78 165.009 Q1984.2 165.009 1981.03 161.398 Q1977.88 157.764 1977.88 151.398 Q1977.88 145.009 1981.03 141.398 Q1984.2 137.787 1989.78 137.787 Z" fill="#000000" fill-rule="evenodd" fill-opacity="1" /><path clip-path="url(#clip090)" d="M2021.86 128.319 L2021.86 131.861 L2017.79 131.861 Q2015.49 131.861 2014.59 132.787 Q2013.71 133.713 2013.71 136.12 L2013.71 138.412 L2020.73 138.412 L2020.73 141.722 L2013.71 141.722 L2013.71 164.338 L2009.43 164.338 L2009.43 141.722 L2005.35 141.722 L2005.35 138.412 L2009.43 138.412 L2009.43 136.606 Q2009.43 132.278 2011.44 130.31 Q2013.46 128.319 2017.83 128.319 L2021.86 128.319 Z" fill="#000000" fill-rule="evenodd" fill-opacity="1" /><path clip-path="url(#clip090)" d="M2053.62 128.319 L2053.62 131.861 L2049.54 131.861 Q2047.25 131.861 2046.35 132.787 Q2045.47 133.713 2045.47 136.12 L2045.47 138.412 L2052.48 138.412 L2052.48 141.722 L2045.47 141.722 L2045.47 164.338 L2041.19 164.338 L2041.19 141.722 L2037.11 141.722 L2037.11 138.412 L2041.19 138.412 L2041.19 136.606 Q2041.19 132.278 2043.2 130.31 Q2045.22 128.319 2049.59 128.319 L2053.62 128.319 Z" fill="#000000" fill-rule="evenodd" fill-opacity="1" /><path clip-path="url(#clip090)" d="M2072.21 142.393 Q2071.49 141.977 2070.63 141.791 Q2069.8 141.583 2068.78 141.583 Q2065.17 141.583 2063.22 143.944 Q2061.3 146.282 2061.3 150.68 L2061.3 164.338 L2057.02 164.338 L2057.02 138.412 L2061.3 138.412 L2061.3 142.44 Q2062.65 140.078 2064.8 138.944 Q2066.95 137.787 2070.03 137.787 Q2070.47 137.787 2071 137.856 Q2071.54 137.903 2072.18 138.018 L2072.21 142.393 Z" fill="#000000" fill-rule="evenodd" fill-opacity="1" /><path clip-path="url(#clip090)" d="M2097.81 150.31 L2097.81 152.393 L2078.22 152.393 Q2078.5 156.791 2080.86 159.106 Q2083.25 161.398 2087.48 161.398 Q2089.94 161.398 2092.23 160.796 Q2094.54 160.194 2096.81 158.99 L2096.81 163.018 Q2094.52 163.99 2092.11 164.5 Q2089.71 165.009 2087.23 165.009 Q2081.03 165.009 2077.39 161.398 Q2073.78 157.787 2073.78 151.629 Q2073.78 145.264 2077.21 141.537 Q2080.66 137.787 2086.49 137.787 Q2091.72 137.787 2094.75 141.166 Q2097.81 144.523 2097.81 150.31 M2093.55 149.06 Q2093.5 145.565 2091.58 143.481 Q2089.68 141.398 2086.53 141.398 Q2082.97 141.398 2080.82 143.412 Q2078.69 145.426 2078.36 149.083 L2093.55 149.06 Z" fill="#000000" fill-rule="evenodd" fill-opacity="1" /><path clip-path="url(#clip090)" d="M2126.97 150.31 L2126.97 152.393 L2107.39 152.393 Q2107.67 156.791 2110.03 159.106 Q2112.41 161.398 2116.65 161.398 Q2119.1 161.398 2121.4 160.796 Q2123.71 160.194 2125.98 158.99 L2125.98 163.018 Q2123.69 163.99 2121.28 164.5 Q2118.87 165.009 2116.4 165.009 Q2110.19 165.009 2106.56 161.398 Q2102.95 157.787 2102.95 151.629 Q2102.95 145.264 2106.37 141.537 Q2109.82 137.787 2115.66 137.787 Q2120.89 137.787 2123.92 141.166 Q2126.97 144.523 2126.97 150.31 M2122.72 149.06 Q2122.67 145.565 2120.75 143.481 Q2118.85 141.398 2115.7 141.398 Q2112.14 141.398 2109.98 143.412 Q2107.85 145.426 2107.53 149.083 L2122.72 149.06 Z" fill="#000000" fill-rule="evenodd" fill-opacity="1" /><path clip-path="url(#clip090)" d="M2151.03 142.347 L2151.03 128.319 L2155.28 128.319 L2155.28 164.338 L2151.03 164.338 L2151.03 160.449 Q2149.68 162.763 2147.62 163.898 Q2145.59 165.009 2142.72 165.009 Q2138.02 165.009 2135.05 161.259 Q2132.11 157.509 2132.11 151.398 Q2132.11 145.287 2135.05 141.537 Q2138.02 137.787 2142.72 137.787 Q2145.59 137.787 2147.62 138.921 Q2149.68 140.032 2151.03 142.347 M2136.51 151.398 Q2136.51 156.097 2138.43 158.782 Q2140.38 161.444 2143.76 161.444 Q2147.14 161.444 2149.08 158.782 Q2151.03 156.097 2151.03 151.398 Q2151.03 146.699 2149.08 144.037 Q2147.14 141.352 2143.76 141.352 Q2140.38 141.352 2138.43 144.037 Q2136.51 146.699 2136.51 151.398 Z" fill="#000000" fill-rule="evenodd" fill-opacity="1" /><path clip-path="url(#clip090)" d="M2174.1 141.398 Q2170.68 141.398 2168.69 144.083 Q2166.7 146.745 2166.7 151.398 Q2166.7 156.051 2168.66 158.736 Q2170.65 161.398 2174.1 161.398 Q2177.51 161.398 2179.5 158.713 Q2181.49 156.027 2181.49 151.398 Q2181.49 146.791 2179.5 144.106 Q2177.51 141.398 2174.1 141.398 M2174.1 137.787 Q2179.66 137.787 2182.83 141.398 Q2186 145.009 2186 151.398 Q2186 157.764 2182.83 161.398 Q2179.66 165.009 2174.1 165.009 Q2168.53 165.009 2165.35 161.398 Q2162.21 157.764 2162.21 151.398 Q2162.21 145.009 2165.35 141.398 Q2168.53 137.787 2174.1 137.787 Z" fill="#000000" fill-rule="evenodd" fill-opacity="1" /><path clip-path="url(#clip090)" d="M2213.25 143.389 Q2214.84 140.518 2217.07 139.153 Q2219.29 137.787 2222.3 137.787 Q2226.35 137.787 2228.55 140.634 Q2230.75 143.458 2230.75 148.689 L2230.75 164.338 L2226.46 164.338 L2226.46 148.828 Q2226.46 145.102 2225.15 143.296 Q2223.83 141.49 2221.12 141.49 Q2217.81 141.49 2215.89 143.69 Q2213.96 145.889 2213.96 149.685 L2213.96 164.338 L2209.68 164.338 L2209.68 148.828 Q2209.68 145.078 2208.36 143.296 Q2207.04 141.49 2204.29 141.49 Q2201.03 141.49 2199.1 143.713 Q2197.18 145.912 2197.18 149.685 L2197.18 164.338 L2192.9 164.338 L2192.9 138.412 L2197.18 138.412 L2197.18 142.44 Q2198.64 140.055 2200.68 138.921 Q2202.71 137.787 2205.52 137.787 Q2208.34 137.787 2210.31 139.222 Q2212.3 140.657 2213.25 143.389 Z" fill="#000000" fill-rule="evenodd" fill-opacity="1" /></svg>
