<?xml version="1.0" encoding="utf-8"?>
<svg xmlns="http://www.w3.org/2000/svg" xmlns:xlink="http://www.w3.org/1999/xlink" width="600" height="400" viewBox="0 0 2400 1600">
<defs>
  <clipPath id="clip720">
    <rect x="0" y="0" width="2400" height="1600"/>
  </clipPath>
</defs>
<path clip-path="url(#clip720)" d="
M0 1600 L2400 1600 L2400 0 L0 0  Z
  " fill="#ffffff" fill-rule="evenodd" fill-opacity="1"/>
<defs>
  <clipPath id="clip721">
    <rect x="480" y="0" width="1681" height="1600"/>
  </clipPath>
</defs>
<path clip-path="url(#clip720)" d="
M147.478 1486.45 L2352.76 1486.45 L2352.76 123.472 L147.478 123.472  Z
  " fill="#ffffff" fill-rule="evenodd" fill-opacity="1"/>
<defs>
  <clipPath id="clip722">
    <rect x="147" y="123" width="2206" height="1364"/>
  </clipPath>
</defs>
<polyline clip-path="url(#clip720)" style="stroke:#000000; stroke-linecap:butt; stroke-linejoin:round; stroke-width:4; stroke-opacity:1; fill:none" points="
  147.478,1486.45 2352.76,1486.45 
  "/>
<polyline clip-path="url(#clip720)" style="stroke:#000000; stroke-linecap:butt; stroke-linejoin:round; stroke-width:4; stroke-opacity:1; fill:none" points="
  188.877,1486.45 188.877,1467.55 
  "/>
<polyline clip-path="url(#clip720)" style="stroke:#000000; stroke-linecap:butt; stroke-linejoin:round; stroke-width:4; stroke-opacity:1; fill:none" points="
  714.243,1486.45 714.243,1467.55 
  "/>
<polyline clip-path="url(#clip720)" style="stroke:#000000; stroke-linecap:butt; stroke-linejoin:round; stroke-width:4; stroke-opacity:1; fill:none" points="
  1239.61,1486.45 1239.61,1467.55 
  "/>
<polyline clip-path="url(#clip720)" style="stroke:#000000; stroke-linecap:butt; stroke-linejoin:round; stroke-width:4; stroke-opacity:1; fill:none" points="
  1764.98,1486.45 1764.98,1467.55 
  "/>
<polyline clip-path="url(#clip720)" style="stroke:#000000; stroke-linecap:butt; stroke-linejoin:round; stroke-width:4; stroke-opacity:1; fill:none" points="
  2290.34,1486.45 2290.34,1467.55 
  "/>
<path clip-path="url(#clip720)" d="M188.877 1517.37 Q185.266 1517.37 183.437 1520.93 Q181.631 1524.47 181.631 1531.6 Q181.631 1538.71 183.437 1542.27 Q185.266 1545.82 188.877 1545.82 Q192.511 1545.82 194.317 1542.27 Q196.145 1538.71 196.145 1531.6 Q196.145 1524.47 194.317 1520.93 Q192.511 1517.37 188.877 1517.37 M188.877 1513.66 Q194.687 1513.66 197.742 1518.27 Q200.821 1522.85 200.821 1531.6 Q200.821 1540.33 197.742 1544.94 Q194.687 1549.52 188.877 1549.52 Q183.067 1549.52 179.988 1544.94 Q176.932 1540.33 176.932 1531.6 Q176.932 1522.85 179.988 1518.27 Q183.067 1513.66 188.877 1513.66 Z" fill="#000000" fill-rule="evenodd" fill-opacity="1" /><path clip-path="url(#clip720)" d="M693.514 1544.91 L709.833 1544.91 L709.833 1548.85 L687.889 1548.85 L687.889 1544.91 Q690.551 1542.16 695.134 1537.53 Q699.741 1532.88 700.921 1531.53 Q703.167 1529.01 704.046 1527.27 Q704.949 1525.51 704.949 1523.82 Q704.949 1521.07 703.005 1519.33 Q701.084 1517.6 697.982 1517.6 Q695.783 1517.6 693.329 1518.36 Q690.898 1519.13 688.121 1520.68 L688.121 1515.95 Q690.945 1514.82 693.398 1514.24 Q695.852 1513.66 697.889 1513.66 Q703.259 1513.66 706.454 1516.35 Q709.648 1519.03 709.648 1523.52 Q709.648 1525.65 708.838 1527.57 Q708.051 1529.47 705.945 1532.07 Q705.366 1532.74 702.264 1535.95 Q699.162 1539.15 693.514 1544.91 Z" fill="#000000" fill-rule="evenodd" fill-opacity="1" /><path clip-path="url(#clip720)" d="M719.695 1514.29 L738.051 1514.29 L738.051 1518.22 L723.977 1518.22 L723.977 1526.7 Q724.995 1526.35 726.014 1526.19 Q727.032 1526 728.051 1526 Q733.838 1526 737.218 1529.17 Q740.597 1532.34 740.597 1537.76 Q740.597 1543.34 737.125 1546.44 Q733.653 1549.52 727.333 1549.52 Q725.157 1549.52 722.889 1549.15 Q720.644 1548.78 718.236 1548.04 L718.236 1543.34 Q720.32 1544.47 722.542 1545.03 Q724.764 1545.58 727.241 1545.58 Q731.245 1545.58 733.583 1543.48 Q735.921 1541.37 735.921 1537.76 Q735.921 1534.15 733.583 1532.04 Q731.245 1529.94 727.241 1529.94 Q725.366 1529.94 723.491 1530.35 Q721.639 1530.77 719.695 1531.65 L719.695 1514.29 Z" fill="#000000" fill-rule="evenodd" fill-opacity="1" /><path clip-path="url(#clip720)" d="M1214.31 1514.29 L1232.67 1514.29 L1232.67 1518.22 L1218.59 1518.22 L1218.59 1526.7 Q1219.61 1526.35 1220.63 1526.19 Q1221.65 1526 1222.67 1526 Q1228.45 1526 1231.83 1529.17 Q1235.21 1532.34 1235.21 1537.76 Q1235.21 1543.34 1231.74 1546.44 Q1228.27 1549.52 1221.95 1549.52 Q1219.77 1549.52 1217.5 1549.15 Q1215.26 1548.78 1212.85 1548.04 L1212.85 1543.34 Q1214.93 1544.47 1217.16 1545.03 Q1219.38 1545.58 1221.86 1545.58 Q1225.86 1545.58 1228.2 1543.48 Q1230.54 1541.37 1230.54 1537.76 Q1230.54 1534.15 1228.2 1532.04 Q1225.86 1529.94 1221.86 1529.94 Q1219.98 1529.94 1218.11 1530.35 Q1216.25 1530.77 1214.31 1531.65 L1214.31 1514.29 Z" fill="#000000" fill-rule="evenodd" fill-opacity="1" /><path clip-path="url(#clip720)" d="M1254.42 1517.37 Q1250.81 1517.37 1248.98 1520.93 Q1247.18 1524.47 1247.18 1531.6 Q1247.18 1538.71 1248.98 1542.27 Q1250.81 1545.82 1254.42 1545.82 Q1258.06 1545.82 1259.86 1542.27 Q1261.69 1538.71 1261.69 1531.6 Q1261.69 1524.47 1259.86 1520.93 Q1258.06 1517.37 1254.42 1517.37 M1254.42 1513.66 Q1260.23 1513.66 1263.29 1518.27 Q1266.37 1522.85 1266.37 1531.6 Q1266.37 1540.33 1263.29 1544.94 Q1260.23 1549.52 1254.42 1549.52 Q1248.61 1549.52 1245.54 1544.94 Q1242.48 1540.33 1242.48 1531.6 Q1242.48 1522.85 1245.54 1518.27 Q1248.61 1513.66 1254.42 1513.66 Z" fill="#000000" fill-rule="evenodd" fill-opacity="1" /><path clip-path="url(#clip720)" d="M1738.83 1514.29 L1761.05 1514.29 L1761.05 1516.28 L1748.51 1548.85 L1743.62 1548.85 L1755.43 1518.22 L1738.83 1518.22 L1738.83 1514.29 Z" fill="#000000" fill-rule="evenodd" fill-opacity="1" /><path clip-path="url(#clip720)" d="M1770.22 1514.29 L1788.58 1514.29 L1788.58 1518.22 L1774.5 1518.22 L1774.5 1526.7 Q1775.52 1526.35 1776.54 1526.19 Q1777.56 1526 1778.58 1526 Q1784.36 1526 1787.74 1529.17 Q1791.12 1532.34 1791.12 1537.76 Q1791.12 1543.34 1787.65 1546.44 Q1784.18 1549.52 1777.86 1549.52 Q1775.68 1549.52 1773.41 1549.15 Q1771.17 1548.78 1768.76 1548.04 L1768.76 1543.34 Q1770.84 1544.47 1773.07 1545.03 Q1775.29 1545.58 1777.77 1545.58 Q1781.77 1545.58 1784.11 1543.48 Q1786.45 1541.37 1786.45 1537.76 Q1786.45 1534.15 1784.11 1532.04 Q1781.77 1529.94 1777.77 1529.94 Q1775.89 1529.94 1774.02 1530.35 Q1772.16 1530.77 1770.22 1531.65 L1770.22 1514.29 Z" fill="#000000" fill-rule="evenodd" fill-opacity="1" /><path clip-path="url(#clip720)" d="M2249.95 1544.91 L2257.59 1544.91 L2257.59 1518.55 L2249.28 1520.21 L2249.28 1515.95 L2257.54 1514.29 L2262.22 1514.29 L2262.22 1544.91 L2269.86 1544.91 L2269.86 1548.85 L2249.95 1548.85 L2249.95 1544.91 Z" fill="#000000" fill-rule="evenodd" fill-opacity="1" /><path clip-path="url(#clip720)" d="M2289.3 1517.37 Q2285.69 1517.37 2283.86 1520.93 Q2282.06 1524.47 2282.06 1531.6 Q2282.06 1538.71 2283.86 1542.27 Q2285.69 1545.82 2289.3 1545.82 Q2292.93 1545.82 2294.74 1542.27 Q2296.57 1538.71 2296.57 1531.6 Q2296.57 1524.47 2294.74 1520.93 Q2292.93 1517.37 2289.3 1517.37 M2289.3 1513.66 Q2295.11 1513.66 2298.17 1518.27 Q2301.25 1522.85 2301.25 1531.6 Q2301.25 1540.33 2298.17 1544.94 Q2295.11 1549.52 2289.3 1549.52 Q2283.49 1549.52 2280.41 1544.94 Q2277.36 1540.33 2277.36 1531.6 Q2277.36 1522.85 2280.41 1518.27 Q2283.49 1513.66 2289.3 1513.66 Z" fill="#000000" fill-rule="evenodd" fill-opacity="1" /><path clip-path="url(#clip720)" d="M2319.46 1517.37 Q2315.85 1517.37 2314.02 1520.93 Q2312.22 1524.47 2312.22 1531.6 Q2312.22 1538.71 2314.02 1542.27 Q2315.85 1545.82 2319.46 1545.82 Q2323.1 1545.82 2324.9 1542.27 Q2326.73 1538.71 2326.73 1531.6 Q2326.73 1524.47 2324.9 1520.93 Q2323.1 1517.37 2319.46 1517.37 M2319.46 1513.66 Q2325.27 1513.66 2328.33 1518.27 Q2331.41 1522.85 2331.41 1531.6 Q2331.41 1540.33 2328.33 1544.94 Q2325.27 1549.52 2319.46 1549.52 Q2313.65 1549.52 2310.57 1544.94 Q2307.52 1540.33 2307.52 1531.6 Q2307.52 1522.85 2310.57 1518.27 Q2313.65 1513.66 2319.46 1513.66 Z" fill="#000000" fill-rule="evenodd" fill-opacity="1" /><polyline clip-path="url(#clip720)" style="stroke:#000000; stroke-linecap:butt; stroke-linejoin:round; stroke-width:4; stroke-opacity:1; fill:none" points="
  147.478,1486.45 147.478,123.472 
  "/>
<polyline clip-path="url(#clip720)" style="stroke:#000000; stroke-linecap:butt; stroke-linejoin:round; stroke-width:4; stroke-opacity:1; fill:none" points="
  147.478,1312.26 166.376,1312.26 
  "/>
<polyline clip-path="url(#clip720)" style="stroke:#000000; stroke-linecap:butt; stroke-linejoin:round; stroke-width:4; stroke-opacity:1; fill:none" points="
  147.478,1015.4 166.376,1015.4 
  "/>
<polyline clip-path="url(#clip720)" style="stroke:#000000; stroke-linecap:butt; stroke-linejoin:round; stroke-width:4; stroke-opacity:1; fill:none" points="
  147.478,718.547 166.376,718.547 
  "/>
<polyline clip-path="url(#clip720)" style="stroke:#000000; stroke-linecap:butt; stroke-linejoin:round; stroke-width:4; stroke-opacity:1; fill:none" points="
  147.478,421.689 166.376,421.689 
  "/>
<polyline clip-path="url(#clip720)" style="stroke:#000000; stroke-linecap:butt; stroke-linejoin:round; stroke-width:4; stroke-opacity:1; fill:none" points="
  147.478,124.832 166.376,124.832 
  "/>
<path clip-path="url(#clip720)" d="M51.3625 1312.71 L81.0383 1312.71 L81.0383 1316.65 L51.3625 1316.65 L51.3625 1312.71 Z" fill="#000000" fill-rule="evenodd" fill-opacity="1" /><path clip-path="url(#clip720)" d="M95.1586 1325.61 L111.478 1325.61 L111.478 1329.54 L89.5336 1329.54 L89.5336 1325.61 Q92.1956 1322.85 96.7789 1318.22 Q101.385 1313.57 102.566 1312.23 Q104.811 1309.7 105.691 1307.97 Q106.594 1306.21 106.594 1304.52 Q106.594 1301.76 104.649 1300.03 Q102.728 1298.29 99.6261 1298.29 Q97.4271 1298.29 94.9734 1299.06 Q92.5428 1299.82 89.7651 1301.37 L89.7651 1296.65 Q92.5891 1295.51 95.0428 1294.94 Q97.4965 1294.36 99.5335 1294.36 Q104.904 1294.36 108.098 1297.04 Q111.293 1299.73 111.293 1304.22 Q111.293 1306.35 110.483 1308.27 Q109.696 1310.17 107.589 1312.76 Q107.01 1313.43 103.909 1316.65 Q100.807 1319.84 95.1586 1325.61 Z" fill="#000000" fill-rule="evenodd" fill-opacity="1" /><path clip-path="url(#clip720)" d="M50.9921 1015.86 L80.6679 1015.86 L80.6679 1019.79 L50.9921 1019.79 L50.9921 1015.86 Z" fill="#000000" fill-rule="evenodd" fill-opacity="1" /><path clip-path="url(#clip720)" d="M91.5706 1028.75 L99.2095 1028.75 L99.2095 1002.38 L90.8993 1004.05 L90.8993 999.791 L99.1632 998.124 L103.839 998.124 L103.839 1028.75 L111.478 1028.75 L111.478 1032.68 L91.5706 1032.68 L91.5706 1028.75 Z" fill="#000000" fill-rule="evenodd" fill-opacity="1" /><path clip-path="url(#clip720)" d="M99.5335 704.345 Q95.9224 704.345 94.0937 707.91 Q92.2882 711.452 92.2882 718.581 Q92.2882 725.688 94.0937 729.253 Q95.9224 732.794 99.5335 732.794 Q103.168 732.794 104.973 729.253 Q106.802 725.688 106.802 718.581 Q106.802 711.452 104.973 707.91 Q103.168 704.345 99.5335 704.345 M99.5335 700.642 Q105.344 700.642 108.399 705.248 Q111.478 709.831 111.478 718.581 Q111.478 727.308 108.399 731.915 Q105.344 736.498 99.5335 736.498 Q93.7234 736.498 90.6447 731.915 Q87.5892 727.308 87.5892 718.581 Q87.5892 709.831 90.6447 705.248 Q93.7234 700.642 99.5335 700.642 Z" fill="#000000" fill-rule="evenodd" fill-opacity="1" /><path clip-path="url(#clip720)" d="M91.5706 435.034 L99.2095 435.034 L99.2095 408.668 L90.8993 410.335 L90.8993 406.076 L99.1632 404.409 L103.839 404.409 L103.839 435.034 L111.478 435.034 L111.478 438.969 L91.5706 438.969 L91.5706 435.034 Z" fill="#000000" fill-rule="evenodd" fill-opacity="1" /><path clip-path="url(#clip720)" d="M95.1586 138.176 L111.478 138.176 L111.478 142.112 L89.5336 142.112 L89.5336 138.176 Q92.1956 135.422 96.7789 130.792 Q101.385 126.139 102.566 124.797 Q104.811 122.274 105.691 120.538 Q106.594 118.778 106.594 117.089 Q106.594 114.334 104.649 112.598 Q102.728 110.862 99.6261 110.862 Q97.4271 110.862 94.9734 111.626 Q92.5428 112.389 89.7651 113.94 L89.7651 109.218 Q92.5891 108.084 95.0428 107.505 Q97.4965 106.927 99.5335 106.927 Q104.904 106.927 108.098 109.612 Q111.293 112.297 111.293 116.788 Q111.293 118.917 110.483 120.838 Q109.696 122.737 107.589 125.329 Q107.01 126 103.909 129.218 Q100.807 132.412 95.1586 138.176 Z" fill="#000000" fill-rule="evenodd" fill-opacity="1" /><path clip-path="url(#clip720)" d="M1107.99 12.096 L1119.01 12.096 L1145.83 62.6918 L1145.83 12.096 L1153.77 12.096 L1153.77 72.576 L1142.75 72.576 L1115.93 21.9802 L1115.93 72.576 L1107.99 72.576 L1107.99 12.096 Z" fill="#000000" fill-rule="evenodd" fill-opacity="1" /><path clip-path="url(#clip720)" d="M1187.31 32.4315 Q1181.31 32.4315 1177.83 37.1306 Q1174.34 41.7891 1174.34 49.9314 Q1174.34 58.0738 1177.79 62.7728 Q1181.27 67.4314 1187.31 67.4314 Q1193.26 67.4314 1196.75 62.7323 Q1200.23 58.0333 1200.23 49.9314 Q1200.23 41.8701 1196.75 37.1711 Q1193.26 32.4315 1187.31 32.4315 M1187.31 26.1121 Q1197.03 26.1121 1202.58 32.4315 Q1208.13 38.7509 1208.13 49.9314 Q1208.13 61.0714 1202.58 67.4314 Q1197.03 73.7508 1187.31 73.7508 Q1177.54 73.7508 1172 67.4314 Q1166.49 61.0714 1166.49 49.9314 Q1166.49 38.7509 1172 32.4315 Q1177.54 26.1121 1187.31 26.1121 Z" fill="#000000" fill-rule="evenodd" fill-opacity="1" /><path clip-path="url(#clip720)" d="M1246.77 34.1734 Q1245.52 33.4443 1244.02 33.1202 Q1242.56 32.7556 1240.78 32.7556 Q1234.46 32.7556 1231.06 36.8875 Q1227.7 40.9789 1227.7 48.6757 L1227.7 72.576 L1220.2 72.576 L1220.2 27.2059 L1227.7 27.2059 L1227.7 34.2544 Q1230.04 30.1225 1233.81 28.1376 Q1237.58 26.1121 1242.97 26.1121 Q1243.74 26.1121 1244.67 26.2337 Q1245.6 26.3147 1246.73 26.5172 L1246.77 34.1734 Z" fill="#000000" fill-rule="evenodd" fill-opacity="1" /><path clip-path="url(#clip720)" d="M1288.46 35.9153 Q1291.25 30.8922 1295.14 28.5022 Q1299.03 26.1121 1304.3 26.1121 Q1311.39 26.1121 1315.24 31.0947 Q1319.08 36.0368 1319.08 45.1919 L1319.08 72.576 L1311.59 72.576 L1311.59 45.4349 Q1311.59 38.913 1309.28 35.7533 Q1306.97 32.5936 1302.23 32.5936 Q1296.44 32.5936 1293.08 36.4419 Q1289.71 40.2903 1289.71 46.9338 L1289.71 72.576 L1282.22 72.576 L1282.22 45.4349 Q1282.22 38.8725 1279.91 35.7533 Q1277.6 32.5936 1272.78 32.5936 Q1267.07 32.5936 1263.71 36.4824 Q1260.35 40.3308 1260.35 46.9338 L1260.35 72.576 L1252.85 72.576 L1252.85 27.2059 L1260.35 27.2059 L1260.35 34.2544 Q1262.9 30.082 1266.46 28.0971 Q1270.03 26.1121 1274.93 26.1121 Q1279.87 26.1121 1283.31 28.6237 Q1286.8 31.1352 1288.46 35.9153 Z" fill="#000000" fill-rule="evenodd" fill-opacity="1" /><path clip-path="url(#clip720)" d="M1354.57 49.7694 Q1345.54 49.7694 1342.05 51.8354 Q1338.57 53.9013 1338.57 58.8839 Q1338.57 62.8538 1341.16 65.2034 Q1343.79 67.5124 1348.29 67.5124 Q1354.49 67.5124 1358.22 63.1374 Q1361.98 58.7219 1361.98 51.4303 L1361.98 49.7694 L1354.57 49.7694 M1369.44 46.6907 L1369.44 72.576 L1361.98 72.576 L1361.98 65.6895 Q1359.43 69.8214 1355.62 71.8063 Q1351.81 73.7508 1346.31 73.7508 Q1339.34 73.7508 1335.21 69.8619 Q1331.11 65.9325 1331.11 59.3701 Q1331.11 51.7138 1336.22 47.825 Q1341.36 43.9361 1351.53 43.9361 L1361.98 43.9361 L1361.98 43.2069 Q1361.98 38.0623 1358.58 35.2672 Q1355.22 32.4315 1349.1 32.4315 Q1345.21 32.4315 1341.53 33.3632 Q1337.84 34.295 1334.44 36.1584 L1334.44 29.2718 Q1338.53 27.692 1342.38 26.9223 Q1346.22 26.1121 1349.87 26.1121 Q1359.71 26.1121 1364.58 31.2163 Q1369.44 36.3204 1369.44 46.6907 Z" fill="#000000" fill-rule="evenodd" fill-opacity="1" /><path clip-path="url(#clip720)" d="M1384.79 9.54393 L1392.24 9.54393 L1392.24 72.576 L1384.79 72.576 L1384.79 9.54393 Z" fill="#000000" fill-rule="evenodd" fill-opacity="1" /><polyline clip-path="url(#clip722)" style="stroke:#808080; stroke-linecap:butt; stroke-linejoin:round; stroke-width:4; stroke-opacity:0.5; fill:none" points="
  209.891,718.547 209.891,604.349 
  "/>
<polyline clip-path="url(#clip722)" style="stroke:#808080; stroke-linecap:butt; stroke-linejoin:round; stroke-width:4; stroke-opacity:0.5; fill:none" points="
  230.906,718.547 230.906,846.252 
  "/>
<polyline clip-path="url(#clip722)" style="stroke:#808080; stroke-linecap:butt; stroke-linejoin:round; stroke-width:4; stroke-opacity:0.5; fill:none" points="
  251.921,718.547 251.921,450.856 
  "/>
<polyline clip-path="url(#clip722)" style="stroke:#808080; stroke-linecap:butt; stroke-linejoin:round; stroke-width:4; stroke-opacity:0.5; fill:none" points="
  272.935,718.547 272.935,849.612 
  "/>
<polyline clip-path="url(#clip722)" style="stroke:#808080; stroke-linecap:butt; stroke-linejoin:round; stroke-width:4; stroke-opacity:0.5; fill:none" points="
  293.95,718.547 293.95,162.047 
  "/>
<polyline clip-path="url(#clip722)" style="stroke:#808080; stroke-linecap:butt; stroke-linejoin:round; stroke-width:4; stroke-opacity:0.5; fill:none" points="
  314.965,718.547 314.965,813.322 
  "/>
<polyline clip-path="url(#clip722)" style="stroke:#808080; stroke-linecap:butt; stroke-linejoin:round; stroke-width:4; stroke-opacity:0.5; fill:none" points="
  335.979,718.547 335.979,479.76 
  "/>
<polyline clip-path="url(#clip722)" style="stroke:#808080; stroke-linecap:butt; stroke-linejoin:round; stroke-width:4; stroke-opacity:0.5; fill:none" points="
  356.994,718.547 356.994,651.77 
  "/>
<polyline clip-path="url(#clip722)" style="stroke:#808080; stroke-linecap:butt; stroke-linejoin:round; stroke-width:4; stroke-opacity:0.5; fill:none" points="
  378.009,718.547 378.009,559.291 
  "/>
<polyline clip-path="url(#clip722)" style="stroke:#808080; stroke-linecap:butt; stroke-linejoin:round; stroke-width:4; stroke-opacity:0.5; fill:none" points="
  399.023,718.547 399.023,356.684 
  "/>
<polyline clip-path="url(#clip722)" style="stroke:#808080; stroke-linecap:butt; stroke-linejoin:round; stroke-width:4; stroke-opacity:0.5; fill:none" points="
  420.038,718.547 420.038,925.881 
  "/>
<polyline clip-path="url(#clip722)" style="stroke:#808080; stroke-linecap:butt; stroke-linejoin:round; stroke-width:4; stroke-opacity:0.5; fill:none" points="
  441.053,718.547 441.053,995.549 
  "/>
<polyline clip-path="url(#clip722)" style="stroke:#808080; stroke-linecap:butt; stroke-linejoin:round; stroke-width:4; stroke-opacity:0.5; fill:none" points="
  462.067,718.547 462.067,735.228 
  "/>
<polyline clip-path="url(#clip722)" style="stroke:#808080; stroke-linecap:butt; stroke-linejoin:round; stroke-width:4; stroke-opacity:0.5; fill:none" points="
  483.082,718.547 483.082,418.678 
  "/>
<polyline clip-path="url(#clip722)" style="stroke:#808080; stroke-linecap:butt; stroke-linejoin:round; stroke-width:4; stroke-opacity:0.5; fill:none" points="
  504.097,718.547 504.097,1270.8 
  "/>
<polyline clip-path="url(#clip722)" style="stroke:#808080; stroke-linecap:butt; stroke-linejoin:round; stroke-width:4; stroke-opacity:0.5; fill:none" points="
  525.111,718.547 525.111,924.788 
  "/>
<polyline clip-path="url(#clip722)" style="stroke:#808080; stroke-linecap:butt; stroke-linejoin:round; stroke-width:4; stroke-opacity:0.5; fill:none" points="
  546.126,718.547 546.126,828.323 
  "/>
<polyline clip-path="url(#clip722)" style="stroke:#808080; stroke-linecap:butt; stroke-linejoin:round; stroke-width:4; stroke-opacity:0.5; fill:none" points="
  567.141,718.547 567.141,498.323 
  "/>
<polyline clip-path="url(#clip722)" style="stroke:#808080; stroke-linecap:butt; stroke-linejoin:round; stroke-width:4; stroke-opacity:0.5; fill:none" points="
  588.155,718.547 588.155,883.149 
  "/>
<polyline clip-path="url(#clip722)" style="stroke:#808080; stroke-linecap:butt; stroke-linejoin:round; stroke-width:4; stroke-opacity:0.5; fill:none" points="
  609.17,718.547 609.17,400.141 
  "/>
<polyline clip-path="url(#clip722)" style="stroke:#808080; stroke-linecap:butt; stroke-linejoin:round; stroke-width:4; stroke-opacity:0.5; fill:none" points="
  630.185,718.547 630.185,633.028 
  "/>
<polyline clip-path="url(#clip722)" style="stroke:#808080; stroke-linecap:butt; stroke-linejoin:round; stroke-width:4; stroke-opacity:0.5; fill:none" points="
  651.199,718.547 651.199,639.576 
  "/>
<polyline clip-path="url(#clip722)" style="stroke:#808080; stroke-linecap:butt; stroke-linejoin:round; stroke-width:4; stroke-opacity:0.5; fill:none" points="
  672.214,718.547 672.214,413.379 
  "/>
<polyline clip-path="url(#clip722)" style="stroke:#808080; stroke-linecap:butt; stroke-linejoin:round; stroke-width:4; stroke-opacity:0.5; fill:none" points="
  693.229,718.547 693.229,763.254 
  "/>
<polyline clip-path="url(#clip722)" style="stroke:#808080; stroke-linecap:butt; stroke-linejoin:round; stroke-width:4; stroke-opacity:0.5; fill:none" points="
  714.243,718.547 714.243,985.436 
  "/>
<polyline clip-path="url(#clip722)" style="stroke:#808080; stroke-linecap:butt; stroke-linejoin:round; stroke-width:4; stroke-opacity:0.5; fill:none" points="
  735.258,718.547 735.258,426.129 
  "/>
<polyline clip-path="url(#clip722)" style="stroke:#808080; stroke-linecap:butt; stroke-linejoin:round; stroke-width:4; stroke-opacity:0.5; fill:none" points="
  756.272,718.547 756.272,773.837 
  "/>
<polyline clip-path="url(#clip722)" style="stroke:#808080; stroke-linecap:butt; stroke-linejoin:round; stroke-width:4; stroke-opacity:0.5; fill:none" points="
  777.287,718.547 777.287,831.036 
  "/>
<polyline clip-path="url(#clip722)" style="stroke:#808080; stroke-linecap:butt; stroke-linejoin:round; stroke-width:4; stroke-opacity:0.5; fill:none" points="
  798.302,718.547 798.302,640.969 
  "/>
<polyline clip-path="url(#clip722)" style="stroke:#808080; stroke-linecap:butt; stroke-linejoin:round; stroke-width:4; stroke-opacity:0.5; fill:none" points="
  819.316,718.547 819.316,461.701 
  "/>
<polyline clip-path="url(#clip722)" style="stroke:#808080; stroke-linecap:butt; stroke-linejoin:round; stroke-width:4; stroke-opacity:0.5; fill:none" points="
  840.331,718.547 840.331,852.806 
  "/>
<polyline clip-path="url(#clip722)" style="stroke:#808080; stroke-linecap:butt; stroke-linejoin:round; stroke-width:4; stroke-opacity:0.5; fill:none" points="
  861.346,718.547 861.346,620.075 
  "/>
<polyline clip-path="url(#clip722)" style="stroke:#808080; stroke-linecap:butt; stroke-linejoin:round; stroke-width:4; stroke-opacity:0.5; fill:none" points="
  882.36,718.547 882.36,934.011 
  "/>
<polyline clip-path="url(#clip722)" style="stroke:#808080; stroke-linecap:butt; stroke-linejoin:round; stroke-width:4; stroke-opacity:0.5; fill:none" points="
  903.375,718.547 903.375,733.364 
  "/>
<polyline clip-path="url(#clip722)" style="stroke:#808080; stroke-linecap:butt; stroke-linejoin:round; stroke-width:4; stroke-opacity:0.5; fill:none" points="
  924.39,718.547 924.39,736.839 
  "/>
<polyline clip-path="url(#clip722)" style="stroke:#808080; stroke-linecap:butt; stroke-linejoin:round; stroke-width:4; stroke-opacity:0.5; fill:none" points="
  945.404,718.547 945.404,387.929 
  "/>
<polyline clip-path="url(#clip722)" style="stroke:#808080; stroke-linecap:butt; stroke-linejoin:round; stroke-width:4; stroke-opacity:0.5; fill:none" points="
  966.419,718.547 966.419,1090.12 
  "/>
<polyline clip-path="url(#clip722)" style="stroke:#808080; stroke-linecap:butt; stroke-linejoin:round; stroke-width:4; stroke-opacity:0.5; fill:none" points="
  987.434,718.547 987.434,394.424 
  "/>
<polyline clip-path="url(#clip722)" style="stroke:#808080; stroke-linecap:butt; stroke-linejoin:round; stroke-width:4; stroke-opacity:0.5; fill:none" points="
  1008.45,718.547 1008.45,1180.65 
  "/>
<polyline clip-path="url(#clip722)" style="stroke:#808080; stroke-linecap:butt; stroke-linejoin:round; stroke-width:4; stroke-opacity:0.5; fill:none" points="
  1029.46,718.547 1029.46,610.851 
  "/>
<polyline clip-path="url(#clip722)" style="stroke:#808080; stroke-linecap:butt; stroke-linejoin:round; stroke-width:4; stroke-opacity:0.5; fill:none" points="
  1050.48,718.547 1050.48,613.567 
  "/>
<polyline clip-path="url(#clip722)" style="stroke:#808080; stroke-linecap:butt; stroke-linejoin:round; stroke-width:4; stroke-opacity:0.5; fill:none" points="
  1071.49,718.547 1071.49,1447.87 
  "/>
<polyline clip-path="url(#clip722)" style="stroke:#808080; stroke-linecap:butt; stroke-linejoin:round; stroke-width:4; stroke-opacity:0.5; fill:none" points="
  1092.51,718.547 1092.51,999.032 
  "/>
<polyline clip-path="url(#clip722)" style="stroke:#808080; stroke-linecap:butt; stroke-linejoin:round; stroke-width:4; stroke-opacity:0.5; fill:none" points="
  1113.52,718.547 1113.52,856.629 
  "/>
<polyline clip-path="url(#clip722)" style="stroke:#808080; stroke-linecap:butt; stroke-linejoin:round; stroke-width:4; stroke-opacity:0.5; fill:none" points="
  1134.54,718.547 1134.54,567.543 
  "/>
<polyline clip-path="url(#clip722)" style="stroke:#808080; stroke-linecap:butt; stroke-linejoin:round; stroke-width:4; stroke-opacity:0.5; fill:none" points="
  1155.55,718.547 1155.55,442.429 
  "/>
<polyline clip-path="url(#clip722)" style="stroke:#808080; stroke-linecap:butt; stroke-linejoin:round; stroke-width:4; stroke-opacity:0.5; fill:none" points="
  1176.57,718.547 1176.57,625.897 
  "/>
<polyline clip-path="url(#clip722)" style="stroke:#808080; stroke-linecap:butt; stroke-linejoin:round; stroke-width:4; stroke-opacity:0.5; fill:none" points="
  1197.58,718.547 1197.58,953.706 
  "/>
<polyline clip-path="url(#clip722)" style="stroke:#808080; stroke-linecap:butt; stroke-linejoin:round; stroke-width:4; stroke-opacity:0.5; fill:none" points="
  1218.59,718.547 1218.59,791.195 
  "/>
<polyline clip-path="url(#clip722)" style="stroke:#808080; stroke-linecap:butt; stroke-linejoin:round; stroke-width:4; stroke-opacity:0.5; fill:none" points="
  1239.61,718.547 1239.61,422.409 
  "/>
<polyline clip-path="url(#clip722)" style="stroke:#808080; stroke-linecap:butt; stroke-linejoin:round; stroke-width:4; stroke-opacity:0.5; fill:none" points="
  1260.62,718.547 1260.62,963.299 
  "/>
<polyline clip-path="url(#clip722)" style="stroke:#808080; stroke-linecap:butt; stroke-linejoin:round; stroke-width:4; stroke-opacity:0.5; fill:none" points="
  1281.64,718.547 1281.64,932.489 
  "/>
<polyline clip-path="url(#clip722)" style="stroke:#808080; stroke-linecap:butt; stroke-linejoin:round; stroke-width:4; stroke-opacity:0.5; fill:none" points="
  1302.65,718.547 1302.65,631.4 
  "/>
<polyline clip-path="url(#clip722)" style="stroke:#808080; stroke-linecap:butt; stroke-linejoin:round; stroke-width:4; stroke-opacity:0.5; fill:none" points="
  1323.67,718.547 1323.67,445.543 
  "/>
<polyline clip-path="url(#clip722)" style="stroke:#808080; stroke-linecap:butt; stroke-linejoin:round; stroke-width:4; stroke-opacity:0.5; fill:none" points="
  1344.68,718.547 1344.68,797.577 
  "/>
<polyline clip-path="url(#clip722)" style="stroke:#808080; stroke-linecap:butt; stroke-linejoin:round; stroke-width:4; stroke-opacity:0.5; fill:none" points="
  1365.7,718.547 1365.7,780.96 
  "/>
<polyline clip-path="url(#clip722)" style="stroke:#808080; stroke-linecap:butt; stroke-linejoin:round; stroke-width:4; stroke-opacity:0.5; fill:none" points="
  1386.71,718.547 1386.71,888.36 
  "/>
<polyline clip-path="url(#clip722)" style="stroke:#808080; stroke-linecap:butt; stroke-linejoin:round; stroke-width:4; stroke-opacity:0.5; fill:none" points="
  1407.73,718.547 1407.73,547.348 
  "/>
<polyline clip-path="url(#clip722)" style="stroke:#808080; stroke-linecap:butt; stroke-linejoin:round; stroke-width:4; stroke-opacity:0.5; fill:none" points="
  1428.74,718.547 1428.74,810.494 
  "/>
<polyline clip-path="url(#clip722)" style="stroke:#808080; stroke-linecap:butt; stroke-linejoin:round; stroke-width:4; stroke-opacity:0.5; fill:none" points="
  1449.76,718.547 1449.76,476.403 
  "/>
<polyline clip-path="url(#clip722)" style="stroke:#808080; stroke-linecap:butt; stroke-linejoin:round; stroke-width:4; stroke-opacity:0.5; fill:none" points="
  1470.77,718.547 1470.77,1007.5 
  "/>
<polyline clip-path="url(#clip722)" style="stroke:#808080; stroke-linecap:butt; stroke-linejoin:round; stroke-width:4; stroke-opacity:0.5; fill:none" points="
  1491.79,718.547 1491.79,1108.77 
  "/>
<polyline clip-path="url(#clip722)" style="stroke:#808080; stroke-linecap:butt; stroke-linejoin:round; stroke-width:4; stroke-opacity:0.5; fill:none" points="
  1512.8,718.547 1512.8,878.329 
  "/>
<polyline clip-path="url(#clip722)" style="stroke:#808080; stroke-linecap:butt; stroke-linejoin:round; stroke-width:4; stroke-opacity:0.5; fill:none" points="
  1533.81,718.547 1533.81,218.226 
  "/>
<polyline clip-path="url(#clip722)" style="stroke:#808080; stroke-linecap:butt; stroke-linejoin:round; stroke-width:4; stroke-opacity:0.5; fill:none" points="
  1554.83,718.547 1554.83,566.761 
  "/>
<polyline clip-path="url(#clip722)" style="stroke:#808080; stroke-linecap:butt; stroke-linejoin:round; stroke-width:4; stroke-opacity:0.5; fill:none" points="
  1575.84,718.547 1575.84,1349.28 
  "/>
<polyline clip-path="url(#clip722)" style="stroke:#808080; stroke-linecap:butt; stroke-linejoin:round; stroke-width:4; stroke-opacity:0.5; fill:none" points="
  1596.86,718.547 1596.86,821.838 
  "/>
<polyline clip-path="url(#clip722)" style="stroke:#808080; stroke-linecap:butt; stroke-linejoin:round; stroke-width:4; stroke-opacity:0.5; fill:none" points="
  1617.87,718.547 1617.87,739.927 
  "/>
<polyline clip-path="url(#clip722)" style="stroke:#808080; stroke-linecap:butt; stroke-linejoin:round; stroke-width:4; stroke-opacity:0.5; fill:none" points="
  1638.89,718.547 1638.89,592.627 
  "/>
<polyline clip-path="url(#clip722)" style="stroke:#808080; stroke-linecap:butt; stroke-linejoin:round; stroke-width:4; stroke-opacity:0.5; fill:none" points="
  1659.9,718.547 1659.9,929.694 
  "/>
<polyline clip-path="url(#clip722)" style="stroke:#808080; stroke-linecap:butt; stroke-linejoin:round; stroke-width:4; stroke-opacity:0.5; fill:none" points="
  1680.92,718.547 1680.92,463.172 
  "/>
<polyline clip-path="url(#clip722)" style="stroke:#808080; stroke-linecap:butt; stroke-linejoin:round; stroke-width:4; stroke-opacity:0.5; fill:none" points="
  1701.93,718.547 1701.93,419.577 
  "/>
<polyline clip-path="url(#clip722)" style="stroke:#808080; stroke-linecap:butt; stroke-linejoin:round; stroke-width:4; stroke-opacity:0.5; fill:none" points="
  1722.95,718.547 1722.95,476.378 
  "/>
<polyline clip-path="url(#clip722)" style="stroke:#808080; stroke-linecap:butt; stroke-linejoin:round; stroke-width:4; stroke-opacity:0.5; fill:none" points="
  1743.96,718.547 1743.96,369.518 
  "/>
<polyline clip-path="url(#clip722)" style="stroke:#808080; stroke-linecap:butt; stroke-linejoin:round; stroke-width:4; stroke-opacity:0.5; fill:none" points="
  1764.98,718.547 1764.98,718.04 
  "/>
<polyline clip-path="url(#clip722)" style="stroke:#808080; stroke-linecap:butt; stroke-linejoin:round; stroke-width:4; stroke-opacity:0.5; fill:none" points="
  1785.99,718.547 1785.99,779.789 
  "/>
<polyline clip-path="url(#clip722)" style="stroke:#808080; stroke-linecap:butt; stroke-linejoin:round; stroke-width:4; stroke-opacity:0.5; fill:none" points="
  1807.01,718.547 1807.01,400.641 
  "/>
<polyline clip-path="url(#clip722)" style="stroke:#808080; stroke-linecap:butt; stroke-linejoin:round; stroke-width:4; stroke-opacity:0.5; fill:none" points="
  1828.02,718.547 1828.02,887.223 
  "/>
<polyline clip-path="url(#clip722)" style="stroke:#808080; stroke-linecap:butt; stroke-linejoin:round; stroke-width:4; stroke-opacity:0.5; fill:none" points="
  1849.03,718.547 1849.03,905.328 
  "/>
<polyline clip-path="url(#clip722)" style="stroke:#808080; stroke-linecap:butt; stroke-linejoin:round; stroke-width:4; stroke-opacity:0.5; fill:none" points="
  1870.05,718.547 1870.05,1020.75 
  "/>
<polyline clip-path="url(#clip722)" style="stroke:#808080; stroke-linecap:butt; stroke-linejoin:round; stroke-width:4; stroke-opacity:0.5; fill:none" points="
  1891.06,718.547 1891.06,856.447 
  "/>
<polyline clip-path="url(#clip722)" style="stroke:#808080; stroke-linecap:butt; stroke-linejoin:round; stroke-width:4; stroke-opacity:0.5; fill:none" points="
  1912.08,718.547 1912.08,300.924 
  "/>
<polyline clip-path="url(#clip722)" style="stroke:#808080; stroke-linecap:butt; stroke-linejoin:round; stroke-width:4; stroke-opacity:0.5; fill:none" points="
  1933.09,718.547 1933.09,957.321 
  "/>
<polyline clip-path="url(#clip722)" style="stroke:#808080; stroke-linecap:butt; stroke-linejoin:round; stroke-width:4; stroke-opacity:0.5; fill:none" points="
  1954.11,718.547 1954.11,1368.05 
  "/>
<polyline clip-path="url(#clip722)" style="stroke:#808080; stroke-linecap:butt; stroke-linejoin:round; stroke-width:4; stroke-opacity:0.5; fill:none" points="
  1975.12,718.547 1975.12,555.867 
  "/>
<polyline clip-path="url(#clip722)" style="stroke:#808080; stroke-linecap:butt; stroke-linejoin:round; stroke-width:4; stroke-opacity:0.5; fill:none" points="
  1996.14,718.547 1996.14,326.442 
  "/>
<polyline clip-path="url(#clip722)" style="stroke:#808080; stroke-linecap:butt; stroke-linejoin:round; stroke-width:4; stroke-opacity:0.5; fill:none" points="
  2017.15,718.547 2017.15,763.637 
  "/>
<polyline clip-path="url(#clip722)" style="stroke:#808080; stroke-linecap:butt; stroke-linejoin:round; stroke-width:4; stroke-opacity:0.5; fill:none" points="
  2038.17,718.547 2038.17,889.215 
  "/>
<polyline clip-path="url(#clip722)" style="stroke:#808080; stroke-linecap:butt; stroke-linejoin:round; stroke-width:4; stroke-opacity:0.5; fill:none" points="
  2059.18,718.547 2059.18,435.39 
  "/>
<polyline clip-path="url(#clip722)" style="stroke:#808080; stroke-linecap:butt; stroke-linejoin:round; stroke-width:4; stroke-opacity:0.5; fill:none" points="
  2080.2,718.547 2080.2,1144.96 
  "/>
<polyline clip-path="url(#clip722)" style="stroke:#808080; stroke-linecap:butt; stroke-linejoin:round; stroke-width:4; stroke-opacity:0.5; fill:none" points="
  2101.21,718.547 2101.21,635.884 
  "/>
<polyline clip-path="url(#clip722)" style="stroke:#808080; stroke-linecap:butt; stroke-linejoin:round; stroke-width:4; stroke-opacity:0.5; fill:none" points="
  2122.23,718.547 2122.23,418.926 
  "/>
<polyline clip-path="url(#clip722)" style="stroke:#808080; stroke-linecap:butt; stroke-linejoin:round; stroke-width:4; stroke-opacity:0.5; fill:none" points="
  2143.24,718.547 2143.24,490.136 
  "/>
<polyline clip-path="url(#clip722)" style="stroke:#808080; stroke-linecap:butt; stroke-linejoin:round; stroke-width:4; stroke-opacity:0.5; fill:none" points="
  2164.25,718.547 2164.25,1253.99 
  "/>
<polyline clip-path="url(#clip722)" style="stroke:#808080; stroke-linecap:butt; stroke-linejoin:round; stroke-width:4; stroke-opacity:0.5; fill:none" points="
  2185.27,718.547 2185.27,393.271 
  "/>
<polyline clip-path="url(#clip722)" style="stroke:#808080; stroke-linecap:butt; stroke-linejoin:round; stroke-width:4; stroke-opacity:0.5; fill:none" points="
  2206.28,718.547 2206.28,837.907 
  "/>
<polyline clip-path="url(#clip722)" style="stroke:#808080; stroke-linecap:butt; stroke-linejoin:round; stroke-width:4; stroke-opacity:0.5; fill:none" points="
  2227.3,718.547 2227.3,827.498 
  "/>
<polyline clip-path="url(#clip722)" style="stroke:#808080; stroke-linecap:butt; stroke-linejoin:round; stroke-width:4; stroke-opacity:0.5; fill:none" points="
  2248.31,718.547 2248.31,561.835 
  "/>
<polyline clip-path="url(#clip722)" style="stroke:#808080; stroke-linecap:butt; stroke-linejoin:round; stroke-width:4; stroke-opacity:0.5; fill:none" points="
  2269.33,718.547 2269.33,373.19 
  "/>
<polyline clip-path="url(#clip722)" style="stroke:#808080; stroke-linecap:butt; stroke-linejoin:round; stroke-width:4; stroke-opacity:0.5; fill:none" points="
  2290.34,718.547 2290.34,1083.85 
  "/>
<polyline clip-path="url(#clip722)" style="stroke:#808080; stroke-linecap:butt; stroke-linejoin:round; stroke-width:0; stroke-opacity:0.5; fill:none" points="
  209.891,604.349 230.906,846.252 251.921,450.856 272.935,849.612 293.95,162.047 314.965,813.322 335.979,479.76 356.994,651.77 378.009,559.291 399.023,356.684 
  420.038,925.881 441.053,995.549 462.067,735.228 483.082,418.678 504.097,1270.8 525.111,924.788 546.126,828.323 567.141,498.323 588.155,883.149 609.17,400.141 
  630.185,633.028 651.199,639.576 672.214,413.379 693.229,763.254 714.243,985.436 735.258,426.129 756.272,773.837 777.287,831.036 798.302,640.969 819.316,461.701 
  840.331,852.806 861.346,620.075 882.36,934.011 903.375,733.364 924.39,736.839 945.404,387.929 966.419,1090.12 987.434,394.424 1008.45,1180.65 1029.46,610.851 
  1050.48,613.567 1071.49,1447.87 1092.51,999.032 1113.52,856.629 1134.54,567.543 1155.55,442.429 1176.57,625.897 1197.58,953.706 1218.59,791.195 1239.61,422.409 
  1260.62,963.299 1281.64,932.489 1302.65,631.4 1323.67,445.543 1344.68,797.577 1365.7,780.96 1386.71,888.36 1407.73,547.348 1428.74,810.494 1449.76,476.403 
  1470.77,1007.5 1491.79,1108.77 1512.8,878.329 1533.81,218.226 1554.83,566.761 1575.84,1349.28 1596.86,821.838 1617.87,739.927 1638.89,592.627 1659.9,929.694 
  1680.92,463.172 1701.93,419.577 1722.95,476.378 1743.96,369.518 1764.98,718.04 1785.99,779.789 1807.01,400.641 1828.02,887.223 1849.03,905.328 1870.05,1020.75 
  1891.06,856.447 1912.08,300.924 1933.09,957.321 1954.11,1368.05 1975.12,555.867 1996.14,326.442 2017.15,763.637 2038.17,889.215 2059.18,435.39 2080.2,1144.96 
  2101.21,635.884 2122.23,418.926 2143.24,490.136 2164.25,1253.99 2185.27,393.271 2206.28,837.907 2227.3,827.498 2248.31,561.835 2269.33,373.19 2290.34,1083.85 
  
  "/>
<circle clip-path="url(#clip722)" cx="209.891" cy="604.349" r="14" fill="#808080" fill-rule="evenodd" fill-opacity="0.5" stroke="#000000" stroke-opacity="0.5" stroke-width="3.2"/>
<circle clip-path="url(#clip722)" cx="230.906" cy="846.252" r="14" fill="#808080" fill-rule="evenodd" fill-opacity="0.5" stroke="#000000" stroke-opacity="0.5" stroke-width="3.2"/>
<circle clip-path="url(#clip722)" cx="251.921" cy="450.856" r="14" fill="#808080" fill-rule="evenodd" fill-opacity="0.5" stroke="#000000" stroke-opacity="0.5" stroke-width="3.2"/>
<circle clip-path="url(#clip722)" cx="272.935" cy="849.612" r="14" fill="#808080" fill-rule="evenodd" fill-opacity="0.5" stroke="#000000" stroke-opacity="0.5" stroke-width="3.2"/>
<circle clip-path="url(#clip722)" cx="293.95" cy="162.047" r="14" fill="#808080" fill-rule="evenodd" fill-opacity="0.5" stroke="#000000" stroke-opacity="0.5" stroke-width="3.2"/>
<circle clip-path="url(#clip722)" cx="314.965" cy="813.322" r="14" fill="#808080" fill-rule="evenodd" fill-opacity="0.5" stroke="#000000" stroke-opacity="0.5" stroke-width="3.2"/>
<circle clip-path="url(#clip722)" cx="335.979" cy="479.76" r="14" fill="#808080" fill-rule="evenodd" fill-opacity="0.5" stroke="#000000" stroke-opacity="0.5" stroke-width="3.2"/>
<circle clip-path="url(#clip722)" cx="356.994" cy="651.77" r="14" fill="#808080" fill-rule="evenodd" fill-opacity="0.5" stroke="#000000" stroke-opacity="0.5" stroke-width="3.2"/>
<circle clip-path="url(#clip722)" cx="378.009" cy="559.291" r="14" fill="#808080" fill-rule="evenodd" fill-opacity="0.5" stroke="#000000" stroke-opacity="0.5" stroke-width="3.2"/>
<circle clip-path="url(#clip722)" cx="399.023" cy="356.684" r="14" fill="#808080" fill-rule="evenodd" fill-opacity="0.5" stroke="#000000" stroke-opacity="0.5" stroke-width="3.2"/>
<circle clip-path="url(#clip722)" cx="420.038" cy="925.881" r="14" fill="#808080" fill-rule="evenodd" fill-opacity="0.5" stroke="#000000" stroke-opacity="0.5" stroke-width="3.2"/>
<circle clip-path="url(#clip722)" cx="441.053" cy="995.549" r="14" fill="#808080" fill-rule="evenodd" fill-opacity="0.5" stroke="#000000" stroke-opacity="0.5" stroke-width="3.2"/>
<circle clip-path="url(#clip722)" cx="462.067" cy="735.228" r="14" fill="#808080" fill-rule="evenodd" fill-opacity="0.5" stroke="#000000" stroke-opacity="0.5" stroke-width="3.2"/>
<circle clip-path="url(#clip722)" cx="483.082" cy="418.678" r="14" fill="#808080" fill-rule="evenodd" fill-opacity="0.5" stroke="#000000" stroke-opacity="0.5" stroke-width="3.2"/>
<circle clip-path="url(#clip722)" cx="504.097" cy="1270.8" r="14" fill="#808080" fill-rule="evenodd" fill-opacity="0.5" stroke="#000000" stroke-opacity="0.5" stroke-width="3.2"/>
<circle clip-path="url(#clip722)" cx="525.111" cy="924.788" r="14" fill="#808080" fill-rule="evenodd" fill-opacity="0.5" stroke="#000000" stroke-opacity="0.5" stroke-width="3.2"/>
<circle clip-path="url(#clip722)" cx="546.126" cy="828.323" r="14" fill="#808080" fill-rule="evenodd" fill-opacity="0.5" stroke="#000000" stroke-opacity="0.5" stroke-width="3.2"/>
<circle clip-path="url(#clip722)" cx="567.141" cy="498.323" r="14" fill="#808080" fill-rule="evenodd" fill-opacity="0.5" stroke="#000000" stroke-opacity="0.5" stroke-width="3.2"/>
<circle clip-path="url(#clip722)" cx="588.155" cy="883.149" r="14" fill="#808080" fill-rule="evenodd" fill-opacity="0.5" stroke="#000000" stroke-opacity="0.5" stroke-width="3.2"/>
<circle clip-path="url(#clip722)" cx="609.17" cy="400.141" r="14" fill="#808080" fill-rule="evenodd" fill-opacity="0.5" stroke="#000000" stroke-opacity="0.5" stroke-width="3.2"/>
<circle clip-path="url(#clip722)" cx="630.185" cy="633.028" r="14" fill="#808080" fill-rule="evenodd" fill-opacity="0.5" stroke="#000000" stroke-opacity="0.5" stroke-width="3.2"/>
<circle clip-path="url(#clip722)" cx="651.199" cy="639.576" r="14" fill="#808080" fill-rule="evenodd" fill-opacity="0.5" stroke="#000000" stroke-opacity="0.5" stroke-width="3.2"/>
<circle clip-path="url(#clip722)" cx="672.214" cy="413.379" r="14" fill="#808080" fill-rule="evenodd" fill-opacity="0.5" stroke="#000000" stroke-opacity="0.5" stroke-width="3.2"/>
<circle clip-path="url(#clip722)" cx="693.229" cy="763.254" r="14" fill="#808080" fill-rule="evenodd" fill-opacity="0.5" stroke="#000000" stroke-opacity="0.5" stroke-width="3.2"/>
<circle clip-path="url(#clip722)" cx="714.243" cy="985.436" r="14" fill="#808080" fill-rule="evenodd" fill-opacity="0.5" stroke="#000000" stroke-opacity="0.5" stroke-width="3.2"/>
<circle clip-path="url(#clip722)" cx="735.258" cy="426.129" r="14" fill="#808080" fill-rule="evenodd" fill-opacity="0.5" stroke="#000000" stroke-opacity="0.5" stroke-width="3.2"/>
<circle clip-path="url(#clip722)" cx="756.272" cy="773.837" r="14" fill="#808080" fill-rule="evenodd" fill-opacity="0.5" stroke="#000000" stroke-opacity="0.5" stroke-width="3.2"/>
<circle clip-path="url(#clip722)" cx="777.287" cy="831.036" r="14" fill="#808080" fill-rule="evenodd" fill-opacity="0.5" stroke="#000000" stroke-opacity="0.5" stroke-width="3.2"/>
<circle clip-path="url(#clip722)" cx="798.302" cy="640.969" r="14" fill="#808080" fill-rule="evenodd" fill-opacity="0.5" stroke="#000000" stroke-opacity="0.5" stroke-width="3.2"/>
<circle clip-path="url(#clip722)" cx="819.316" cy="461.701" r="14" fill="#808080" fill-rule="evenodd" fill-opacity="0.5" stroke="#000000" stroke-opacity="0.5" stroke-width="3.2"/>
<circle clip-path="url(#clip722)" cx="840.331" cy="852.806" r="14" fill="#808080" fill-rule="evenodd" fill-opacity="0.5" stroke="#000000" stroke-opacity="0.5" stroke-width="3.2"/>
<circle clip-path="url(#clip722)" cx="861.346" cy="620.075" r="14" fill="#808080" fill-rule="evenodd" fill-opacity="0.5" stroke="#000000" stroke-opacity="0.5" stroke-width="3.2"/>
<circle clip-path="url(#clip722)" cx="882.36" cy="934.011" r="14" fill="#808080" fill-rule="evenodd" fill-opacity="0.5" stroke="#000000" stroke-opacity="0.5" stroke-width="3.2"/>
<circle clip-path="url(#clip722)" cx="903.375" cy="733.364" r="14" fill="#808080" fill-rule="evenodd" fill-opacity="0.5" stroke="#000000" stroke-opacity="0.5" stroke-width="3.2"/>
<circle clip-path="url(#clip722)" cx="924.39" cy="736.839" r="14" fill="#808080" fill-rule="evenodd" fill-opacity="0.5" stroke="#000000" stroke-opacity="0.5" stroke-width="3.2"/>
<circle clip-path="url(#clip722)" cx="945.404" cy="387.929" r="14" fill="#808080" fill-rule="evenodd" fill-opacity="0.5" stroke="#000000" stroke-opacity="0.5" stroke-width="3.2"/>
<circle clip-path="url(#clip722)" cx="966.419" cy="1090.12" r="14" fill="#808080" fill-rule="evenodd" fill-opacity="0.5" stroke="#000000" stroke-opacity="0.5" stroke-width="3.2"/>
<circle clip-path="url(#clip722)" cx="987.434" cy="394.424" r="14" fill="#808080" fill-rule="evenodd" fill-opacity="0.5" stroke="#000000" stroke-opacity="0.5" stroke-width="3.2"/>
<circle clip-path="url(#clip722)" cx="1008.45" cy="1180.65" r="14" fill="#808080" fill-rule="evenodd" fill-opacity="0.5" stroke="#000000" stroke-opacity="0.5" stroke-width="3.2"/>
<circle clip-path="url(#clip722)" cx="1029.46" cy="610.851" r="14" fill="#808080" fill-rule="evenodd" fill-opacity="0.5" stroke="#000000" stroke-opacity="0.5" stroke-width="3.2"/>
<circle clip-path="url(#clip722)" cx="1050.48" cy="613.567" r="14" fill="#808080" fill-rule="evenodd" fill-opacity="0.5" stroke="#000000" stroke-opacity="0.5" stroke-width="3.2"/>
<circle clip-path="url(#clip722)" cx="1071.49" cy="1447.87" r="14" fill="#808080" fill-rule="evenodd" fill-opacity="0.5" stroke="#000000" stroke-opacity="0.5" stroke-width="3.2"/>
<circle clip-path="url(#clip722)" cx="1092.51" cy="999.032" r="14" fill="#808080" fill-rule="evenodd" fill-opacity="0.5" stroke="#000000" stroke-opacity="0.5" stroke-width="3.2"/>
<circle clip-path="url(#clip722)" cx="1113.52" cy="856.629" r="14" fill="#808080" fill-rule="evenodd" fill-opacity="0.5" stroke="#000000" stroke-opacity="0.5" stroke-width="3.2"/>
<circle clip-path="url(#clip722)" cx="1134.54" cy="567.543" r="14" fill="#808080" fill-rule="evenodd" fill-opacity="0.5" stroke="#000000" stroke-opacity="0.5" stroke-width="3.2"/>
<circle clip-path="url(#clip722)" cx="1155.55" cy="442.429" r="14" fill="#808080" fill-rule="evenodd" fill-opacity="0.5" stroke="#000000" stroke-opacity="0.5" stroke-width="3.2"/>
<circle clip-path="url(#clip722)" cx="1176.57" cy="625.897" r="14" fill="#808080" fill-rule="evenodd" fill-opacity="0.5" stroke="#000000" stroke-opacity="0.5" stroke-width="3.2"/>
<circle clip-path="url(#clip722)" cx="1197.58" cy="953.706" r="14" fill="#808080" fill-rule="evenodd" fill-opacity="0.5" stroke="#000000" stroke-opacity="0.5" stroke-width="3.2"/>
<circle clip-path="url(#clip722)" cx="1218.59" cy="791.195" r="14" fill="#808080" fill-rule="evenodd" fill-opacity="0.5" stroke="#000000" stroke-opacity="0.5" stroke-width="3.2"/>
<circle clip-path="url(#clip722)" cx="1239.61" cy="422.409" r="14" fill="#808080" fill-rule="evenodd" fill-opacity="0.5" stroke="#000000" stroke-opacity="0.5" stroke-width="3.2"/>
<circle clip-path="url(#clip722)" cx="1260.62" cy="963.299" r="14" fill="#808080" fill-rule="evenodd" fill-opacity="0.5" stroke="#000000" stroke-opacity="0.5" stroke-width="3.2"/>
<circle clip-path="url(#clip722)" cx="1281.64" cy="932.489" r="14" fill="#808080" fill-rule="evenodd" fill-opacity="0.5" stroke="#000000" stroke-opacity="0.5" stroke-width="3.2"/>
<circle clip-path="url(#clip722)" cx="1302.65" cy="631.4" r="14" fill="#808080" fill-rule="evenodd" fill-opacity="0.5" stroke="#000000" stroke-opacity="0.5" stroke-width="3.2"/>
<circle clip-path="url(#clip722)" cx="1323.67" cy="445.543" r="14" fill="#808080" fill-rule="evenodd" fill-opacity="0.5" stroke="#000000" stroke-opacity="0.5" stroke-width="3.2"/>
<circle clip-path="url(#clip722)" cx="1344.68" cy="797.577" r="14" fill="#808080" fill-rule="evenodd" fill-opacity="0.5" stroke="#000000" stroke-opacity="0.5" stroke-width="3.2"/>
<circle clip-path="url(#clip722)" cx="1365.7" cy="780.96" r="14" fill="#808080" fill-rule="evenodd" fill-opacity="0.5" stroke="#000000" stroke-opacity="0.5" stroke-width="3.2"/>
<circle clip-path="url(#clip722)" cx="1386.71" cy="888.36" r="14" fill="#808080" fill-rule="evenodd" fill-opacity="0.5" stroke="#000000" stroke-opacity="0.5" stroke-width="3.2"/>
<circle clip-path="url(#clip722)" cx="1407.73" cy="547.348" r="14" fill="#808080" fill-rule="evenodd" fill-opacity="0.5" stroke="#000000" stroke-opacity="0.5" stroke-width="3.2"/>
<circle clip-path="url(#clip722)" cx="1428.74" cy="810.494" r="14" fill="#808080" fill-rule="evenodd" fill-opacity="0.5" stroke="#000000" stroke-opacity="0.5" stroke-width="3.2"/>
<circle clip-path="url(#clip722)" cx="1449.76" cy="476.403" r="14" fill="#808080" fill-rule="evenodd" fill-opacity="0.5" stroke="#000000" stroke-opacity="0.5" stroke-width="3.2"/>
<circle clip-path="url(#clip722)" cx="1470.77" cy="1007.5" r="14" fill="#808080" fill-rule="evenodd" fill-opacity="0.5" stroke="#000000" stroke-opacity="0.5" stroke-width="3.2"/>
<circle clip-path="url(#clip722)" cx="1491.79" cy="1108.77" r="14" fill="#808080" fill-rule="evenodd" fill-opacity="0.5" stroke="#000000" stroke-opacity="0.5" stroke-width="3.2"/>
<circle clip-path="url(#clip722)" cx="1512.8" cy="878.329" r="14" fill="#808080" fill-rule="evenodd" fill-opacity="0.5" stroke="#000000" stroke-opacity="0.5" stroke-width="3.2"/>
<circle clip-path="url(#clip722)" cx="1533.81" cy="218.226" r="14" fill="#808080" fill-rule="evenodd" fill-opacity="0.5" stroke="#000000" stroke-opacity="0.5" stroke-width="3.2"/>
<circle clip-path="url(#clip722)" cx="1554.83" cy="566.761" r="14" fill="#808080" fill-rule="evenodd" fill-opacity="0.5" stroke="#000000" stroke-opacity="0.5" stroke-width="3.2"/>
<circle clip-path="url(#clip722)" cx="1575.84" cy="1349.28" r="14" fill="#808080" fill-rule="evenodd" fill-opacity="0.5" stroke="#000000" stroke-opacity="0.5" stroke-width="3.2"/>
<circle clip-path="url(#clip722)" cx="1596.86" cy="821.838" r="14" fill="#808080" fill-rule="evenodd" fill-opacity="0.5" stroke="#000000" stroke-opacity="0.5" stroke-width="3.2"/>
<circle clip-path="url(#clip722)" cx="1617.87" cy="739.927" r="14" fill="#808080" fill-rule="evenodd" fill-opacity="0.5" stroke="#000000" stroke-opacity="0.5" stroke-width="3.2"/>
<circle clip-path="url(#clip722)" cx="1638.89" cy="592.627" r="14" fill="#808080" fill-rule="evenodd" fill-opacity="0.5" stroke="#000000" stroke-opacity="0.5" stroke-width="3.2"/>
<circle clip-path="url(#clip722)" cx="1659.9" cy="929.694" r="14" fill="#808080" fill-rule="evenodd" fill-opacity="0.5" stroke="#000000" stroke-opacity="0.5" stroke-width="3.2"/>
<circle clip-path="url(#clip722)" cx="1680.92" cy="463.172" r="14" fill="#808080" fill-rule="evenodd" fill-opacity="0.5" stroke="#000000" stroke-opacity="0.5" stroke-width="3.2"/>
<circle clip-path="url(#clip722)" cx="1701.93" cy="419.577" r="14" fill="#808080" fill-rule="evenodd" fill-opacity="0.5" stroke="#000000" stroke-opacity="0.5" stroke-width="3.2"/>
<circle clip-path="url(#clip722)" cx="1722.95" cy="476.378" r="14" fill="#808080" fill-rule="evenodd" fill-opacity="0.5" stroke="#000000" stroke-opacity="0.5" stroke-width="3.2"/>
<circle clip-path="url(#clip722)" cx="1743.96" cy="369.518" r="14" fill="#808080" fill-rule="evenodd" fill-opacity="0.5" stroke="#000000" stroke-opacity="0.5" stroke-width="3.2"/>
<circle clip-path="url(#clip722)" cx="1764.98" cy="718.04" r="14" fill="#808080" fill-rule="evenodd" fill-opacity="0.5" stroke="#000000" stroke-opacity="0.5" stroke-width="3.2"/>
<circle clip-path="url(#clip722)" cx="1785.99" cy="779.789" r="14" fill="#808080" fill-rule="evenodd" fill-opacity="0.5" stroke="#000000" stroke-opacity="0.5" stroke-width="3.2"/>
<circle clip-path="url(#clip722)" cx="1807.01" cy="400.641" r="14" fill="#808080" fill-rule="evenodd" fill-opacity="0.5" stroke="#000000" stroke-opacity="0.5" stroke-width="3.2"/>
<circle clip-path="url(#clip722)" cx="1828.02" cy="887.223" r="14" fill="#808080" fill-rule="evenodd" fill-opacity="0.5" stroke="#000000" stroke-opacity="0.5" stroke-width="3.2"/>
<circle clip-path="url(#clip722)" cx="1849.03" cy="905.328" r="14" fill="#808080" fill-rule="evenodd" fill-opacity="0.5" stroke="#000000" stroke-opacity="0.5" stroke-width="3.2"/>
<circle clip-path="url(#clip722)" cx="1870.05" cy="1020.75" r="14" fill="#808080" fill-rule="evenodd" fill-opacity="0.5" stroke="#000000" stroke-opacity="0.5" stroke-width="3.2"/>
<circle clip-path="url(#clip722)" cx="1891.06" cy="856.447" r="14" fill="#808080" fill-rule="evenodd" fill-opacity="0.5" stroke="#000000" stroke-opacity="0.5" stroke-width="3.2"/>
<circle clip-path="url(#clip722)" cx="1912.08" cy="300.924" r="14" fill="#808080" fill-rule="evenodd" fill-opacity="0.5" stroke="#000000" stroke-opacity="0.5" stroke-width="3.2"/>
<circle clip-path="url(#clip722)" cx="1933.09" cy="957.321" r="14" fill="#808080" fill-rule="evenodd" fill-opacity="0.5" stroke="#000000" stroke-opacity="0.5" stroke-width="3.2"/>
<circle clip-path="url(#clip722)" cx="1954.11" cy="1368.05" r="14" fill="#808080" fill-rule="evenodd" fill-opacity="0.5" stroke="#000000" stroke-opacity="0.5" stroke-width="3.2"/>
<circle clip-path="url(#clip722)" cx="1975.12" cy="555.867" r="14" fill="#808080" fill-rule="evenodd" fill-opacity="0.5" stroke="#000000" stroke-opacity="0.5" stroke-width="3.2"/>
<circle clip-path="url(#clip722)" cx="1996.14" cy="326.442" r="14" fill="#808080" fill-rule="evenodd" fill-opacity="0.5" stroke="#000000" stroke-opacity="0.5" stroke-width="3.2"/>
<circle clip-path="url(#clip722)" cx="2017.15" cy="763.637" r="14" fill="#808080" fill-rule="evenodd" fill-opacity="0.5" stroke="#000000" stroke-opacity="0.5" stroke-width="3.2"/>
<circle clip-path="url(#clip722)" cx="2038.17" cy="889.215" r="14" fill="#808080" fill-rule="evenodd" fill-opacity="0.5" stroke="#000000" stroke-opacity="0.5" stroke-width="3.2"/>
<circle clip-path="url(#clip722)" cx="2059.18" cy="435.39" r="14" fill="#808080" fill-rule="evenodd" fill-opacity="0.5" stroke="#000000" stroke-opacity="0.5" stroke-width="3.2"/>
<circle clip-path="url(#clip722)" cx="2080.2" cy="1144.96" r="14" fill="#808080" fill-rule="evenodd" fill-opacity="0.5" stroke="#000000" stroke-opacity="0.5" stroke-width="3.2"/>
<circle clip-path="url(#clip722)" cx="2101.21" cy="635.884" r="14" fill="#808080" fill-rule="evenodd" fill-opacity="0.5" stroke="#000000" stroke-opacity="0.5" stroke-width="3.2"/>
<circle clip-path="url(#clip722)" cx="2122.23" cy="418.926" r="14" fill="#808080" fill-rule="evenodd" fill-opacity="0.5" stroke="#000000" stroke-opacity="0.5" stroke-width="3.2"/>
<circle clip-path="url(#clip722)" cx="2143.24" cy="490.136" r="14" fill="#808080" fill-rule="evenodd" fill-opacity="0.5" stroke="#000000" stroke-opacity="0.5" stroke-width="3.2"/>
<circle clip-path="url(#clip722)" cx="2164.25" cy="1253.99" r="14" fill="#808080" fill-rule="evenodd" fill-opacity="0.5" stroke="#000000" stroke-opacity="0.5" stroke-width="3.2"/>
<circle clip-path="url(#clip722)" cx="2185.27" cy="393.271" r="14" fill="#808080" fill-rule="evenodd" fill-opacity="0.5" stroke="#000000" stroke-opacity="0.5" stroke-width="3.2"/>
<circle clip-path="url(#clip722)" cx="2206.28" cy="837.907" r="14" fill="#808080" fill-rule="evenodd" fill-opacity="0.5" stroke="#000000" stroke-opacity="0.5" stroke-width="3.2"/>
<circle clip-path="url(#clip722)" cx="2227.3" cy="827.498" r="14" fill="#808080" fill-rule="evenodd" fill-opacity="0.5" stroke="#000000" stroke-opacity="0.5" stroke-width="3.2"/>
<circle clip-path="url(#clip722)" cx="2248.31" cy="561.835" r="14" fill="#808080" fill-rule="evenodd" fill-opacity="0.5" stroke="#000000" stroke-opacity="0.5" stroke-width="3.2"/>
<circle clip-path="url(#clip722)" cx="2269.33" cy="373.19" r="14" fill="#808080" fill-rule="evenodd" fill-opacity="0.5" stroke="#000000" stroke-opacity="0.5" stroke-width="3.2"/>
<circle clip-path="url(#clip722)" cx="2290.34" cy="1083.85" r="14" fill="#808080" fill-rule="evenodd" fill-opacity="0.5" stroke="#000000" stroke-opacity="0.5" stroke-width="3.2"/>
<polyline clip-path="url(#clip722)" style="stroke:#000000; stroke-linecap:butt; stroke-linejoin:round; stroke-width:6; stroke-opacity:1; fill:none" stroke-dasharray="24, 15" points="
  -2057.8,718.547 4558.03,718.547 
  "/>
<polyline clip-path="url(#clip722)" style="stroke:#008000; stroke-linecap:butt; stroke-linejoin:round; stroke-width:12; stroke-opacity:0.6; fill:none" points="
  209.891,604.349 230.906,725.3 251.921,633.819 272.935,687.767 293.95,582.623 314.965,621.073 335.979,600.886 356.994,607.246 378.009,601.918 399.023,577.394 
  420.038,609.075 441.053,641.281 462.067,648.508 483.082,632.091 504.097,674.672 525.111,690.304 546.126,698.423 567.141,687.306 588.155,697.614 609.17,682.74 
  630.185,680.373 651.199,678.519 672.214,666.991 693.229,671.002 714.243,683.579 735.258,673.677 756.272,677.387 777.287,682.874 798.302,681.429 819.316,674.105 
  840.331,679.87 861.346,678.001 882.36,685.759 903.375,687.159 924.39,688.578 945.404,680.227 966.419,691.305 987.434,683.493 1008.45,696.24 1029.46,694.105 
  1050.48,692.141 1071.49,710.135 1092.51,716.853 1113.52,720.03 1134.54,716.641 1155.55,710.68 1176.57,708.876 1197.58,713.977 1218.59,715.553 1239.61,709.69 
  1260.62,714.663 1281.64,718.852 1302.65,717.202 1323.67,712.171 1344.68,713.724 1365.7,714.924 1386.71,717.967 1407.73,715.025 1428.74,716.643 1449.76,712.639 
  1470.77,717.473 1491.79,723.784 1512.8,726.238 1533.81,718.3 1554.83,715.968 1575.84,725.564 1596.86,727.001 1617.87,727.191 1638.89,725.241 1659.9,728.162 
  1680.92,724.429 1701.93,720.195 1722.95,716.855 1743.96,712.162 1764.98,712.24 1785.99,713.129 1807.01,709.071 1828.02,711.355 1849.03,713.81 1870.05,717.647 
  1891.06,719.36 1912.08,714.257 1933.09,717.186 1954.11,724.934 1975.12,722.945 1996.14,718.335 2017.15,718.855 2038.17,720.791 2059.18,717.585 2080.2,722.333 
  2101.21,721.383 2122.23,718.096 2143.24,715.644 2164.25,721.372 2185.27,717.918 2206.28,719.168 2227.3,720.285 2248.31,718.668 2269.33,715.178 2290.34,718.865 
  
  "/>
<path clip-path="url(#clip720)" d="
M1714.1 324.425 L2279.25 324.425 L2279.25 168.905 L1714.1 168.905  Z
  " fill="#ffffff" fill-rule="evenodd" fill-opacity="1"/>
<polyline clip-path="url(#clip720)" style="stroke:#000000; stroke-linecap:butt; stroke-linejoin:round; stroke-width:4; stroke-opacity:1; fill:none" points="
  1714.1,324.425 2279.25,324.425 2279.25,168.905 1714.1,168.905 1714.1,324.425 
  "/>
<polyline clip-path="url(#clip720)" style="stroke:#000000; stroke-linecap:butt; stroke-linejoin:round; stroke-width:4; stroke-opacity:1; fill:none" stroke-dasharray="16, 10" points="
  1738.6,220.745 1885.62,220.745 
  "/>
<path clip-path="url(#clip720)" d="M1910.13 203.465 L1917.09 203.465 L1925.91 226.983 L1934.78 203.465 L1941.75 203.465 L1941.75 238.025 L1937.19 238.025 L1937.19 207.678 L1928.27 231.381 L1923.58 231.381 L1914.66 207.678 L1914.66 238.025 L1910.13 238.025 L1910.13 203.465 Z" fill="#000000" fill-rule="evenodd" fill-opacity="1" /><path clip-path="url(#clip720)" d="M1973.02 223.997 L1973.02 226.08 L1953.44 226.08 Q1953.71 230.478 1956.08 232.793 Q1958.46 235.085 1962.7 235.085 Q1965.15 235.085 1967.44 234.483 Q1969.76 233.881 1972.02 232.677 L1972.02 236.705 Q1969.73 237.677 1967.33 238.187 Q1964.92 238.696 1962.44 238.696 Q1956.24 238.696 1952.6 235.085 Q1948.99 231.474 1948.99 225.316 Q1948.99 218.951 1952.42 215.224 Q1955.87 211.474 1961.7 211.474 Q1966.93 211.474 1969.96 214.853 Q1973.02 218.21 1973.02 223.997 M1968.76 222.747 Q1968.71 219.252 1966.79 217.168 Q1964.89 215.085 1961.75 215.085 Q1958.18 215.085 1956.03 217.099 Q1953.9 219.113 1953.58 222.77 L1968.76 222.747 Z" fill="#000000" fill-rule="evenodd" fill-opacity="1" /><path clip-path="url(#clip720)" d="M1991.79 224.992 Q1986.63 224.992 1984.64 226.173 Q1982.65 227.353 1982.65 230.201 Q1982.65 232.469 1984.13 233.812 Q1985.64 235.131 1988.2 235.131 Q1991.75 235.131 1993.88 232.631 Q1996.03 230.108 1996.03 225.941 L1996.03 224.992 L1991.79 224.992 M2000.29 223.233 L2000.29 238.025 L1996.03 238.025 L1996.03 234.089 Q1994.57 236.451 1992.39 237.585 Q1990.22 238.696 1987.07 238.696 Q1983.09 238.696 1980.73 236.474 Q1978.39 234.228 1978.39 230.478 Q1978.39 226.103 1981.31 223.881 Q1984.25 221.659 1990.06 221.659 L1996.03 221.659 L1996.03 221.242 Q1996.03 218.303 1994.08 216.705 Q1992.16 215.085 1988.67 215.085 Q1986.45 215.085 1984.34 215.617 Q1982.23 216.15 1980.29 217.215 L1980.29 213.279 Q1982.63 212.377 1984.83 211.937 Q1987.02 211.474 1989.11 211.474 Q1994.73 211.474 1997.51 214.391 Q2000.29 217.307 2000.29 223.233 Z" fill="#000000" fill-rule="evenodd" fill-opacity="1" /><path clip-path="url(#clip720)" d="M2030.61 222.377 L2030.61 238.025 L2026.35 238.025 L2026.35 222.515 Q2026.35 218.835 2024.92 217.006 Q2023.48 215.178 2020.61 215.178 Q2017.16 215.178 2015.17 217.377 Q2013.18 219.576 2013.18 223.372 L2013.18 238.025 L2008.9 238.025 L2008.9 212.099 L2013.18 212.099 L2013.18 216.127 Q2014.71 213.789 2016.77 212.631 Q2018.85 211.474 2021.56 211.474 Q2026.03 211.474 2028.32 214.252 Q2030.61 217.006 2030.61 222.377 Z" fill="#000000" fill-rule="evenodd" fill-opacity="1" /><polyline clip-path="url(#clip720)" style="stroke:#008000; stroke-linecap:butt; stroke-linejoin:round; stroke-width:4; stroke-opacity:0.6; fill:none" points="
  1738.6,272.585 1885.62,272.585 
  "/>
<path clip-path="url(#clip720)" d="M1932.37 256.439 L1932.37 260.999 Q1929.71 259.726 1927.35 259.101 Q1924.99 258.476 1922.79 258.476 Q1918.97 258.476 1916.89 259.957 Q1914.83 261.439 1914.83 264.17 Q1914.83 266.462 1916.19 267.643 Q1917.58 268.8 1921.42 269.518 L1924.25 270.096 Q1929.48 271.092 1931.96 273.615 Q1934.46 276.115 1934.46 280.328 Q1934.46 285.351 1931.08 287.943 Q1927.72 290.536 1921.21 290.536 Q1918.76 290.536 1915.98 289.98 Q1913.23 289.425 1910.27 288.337 L1910.27 283.522 Q1913.11 285.119 1915.84 285.929 Q1918.58 286.74 1921.21 286.74 Q1925.22 286.74 1927.39 285.166 Q1929.57 283.592 1929.57 280.675 Q1929.57 278.129 1928 276.693 Q1926.45 275.258 1922.88 274.541 L1920.03 273.985 Q1914.8 272.943 1912.46 270.721 Q1910.13 268.499 1910.13 264.541 Q1910.13 259.957 1913.34 257.319 Q1916.58 254.68 1922.26 254.68 Q1924.69 254.68 1927.21 255.119 Q1929.73 255.559 1932.37 256.439 Z" fill="#000000" fill-rule="evenodd" fill-opacity="1" /><path clip-path="url(#clip720)" d="M1953.34 276.832 Q1948.18 276.832 1946.19 278.013 Q1944.2 279.193 1944.2 282.041 Q1944.2 284.309 1945.68 285.652 Q1947.19 286.971 1949.76 286.971 Q1953.3 286.971 1955.43 284.471 Q1957.58 281.948 1957.58 277.781 L1957.58 276.832 L1953.34 276.832 M1961.84 275.073 L1961.84 289.865 L1957.58 289.865 L1957.58 285.929 Q1956.12 288.291 1953.95 289.425 Q1951.77 290.536 1948.62 290.536 Q1944.64 290.536 1942.28 288.314 Q1939.94 286.068 1939.94 282.318 Q1939.94 277.943 1942.86 275.721 Q1945.8 273.499 1951.61 273.499 L1957.58 273.499 L1957.58 273.082 Q1957.58 270.143 1955.64 268.545 Q1953.71 266.925 1950.22 266.925 Q1948 266.925 1945.89 267.457 Q1943.78 267.99 1941.84 269.055 L1941.84 265.119 Q1944.18 264.217 1946.38 263.777 Q1948.58 263.314 1950.66 263.314 Q1956.28 263.314 1959.06 266.231 Q1961.84 269.147 1961.84 275.073 Z" fill="#000000" fill-rule="evenodd" fill-opacity="1" /><path clip-path="url(#clip720)" d="M1990.8 268.916 Q1992.39 266.045 1994.62 264.68 Q1996.84 263.314 1999.85 263.314 Q2003.9 263.314 2006.1 266.161 Q2008.3 268.985 2008.3 274.217 L2008.3 289.865 L2004.01 289.865 L2004.01 274.355 Q2004.01 270.629 2002.7 268.823 Q2001.38 267.018 1998.67 267.018 Q1995.36 267.018 1993.44 269.217 Q1991.51 271.416 1991.51 275.212 L1991.51 289.865 L1987.23 289.865 L1987.23 274.355 Q1987.23 270.605 1985.91 268.823 Q1984.59 267.018 1981.84 267.018 Q1978.58 267.018 1976.65 269.24 Q1974.73 271.439 1974.73 275.212 L1974.73 289.865 L1970.45 289.865 L1970.45 263.939 L1974.73 263.939 L1974.73 267.967 Q1976.19 265.582 1978.23 264.448 Q1980.26 263.314 1983.07 263.314 Q1985.89 263.314 1987.86 264.749 Q1989.85 266.184 1990.8 268.916 Z" fill="#000000" fill-rule="evenodd" fill-opacity="1" /><path clip-path="url(#clip720)" d="M2020.91 285.976 L2020.91 299.726 L2016.63 299.726 L2016.63 263.939 L2020.91 263.939 L2020.91 267.874 Q2022.26 265.559 2024.29 264.448 Q2026.35 263.314 2029.2 263.314 Q2033.92 263.314 2036.86 267.064 Q2039.82 270.814 2039.82 276.925 Q2039.82 283.036 2036.86 286.786 Q2033.92 290.536 2029.2 290.536 Q2026.35 290.536 2024.29 289.425 Q2022.26 288.291 2020.91 285.976 M2035.4 276.925 Q2035.4 272.226 2033.46 269.564 Q2031.54 266.879 2028.16 266.879 Q2024.78 266.879 2022.83 269.564 Q2020.91 272.226 2020.91 276.925 Q2020.91 281.624 2022.83 284.309 Q2024.78 286.971 2028.16 286.971 Q2031.54 286.971 2033.46 284.309 Q2035.4 281.624 2035.4 276.925 Z" fill="#000000" fill-rule="evenodd" fill-opacity="1" /><path clip-path="url(#clip720)" d="M2046.88 253.846 L2051.14 253.846 L2051.14 289.865 L2046.88 289.865 L2046.88 253.846 Z" fill="#000000" fill-rule="evenodd" fill-opacity="1" /><path clip-path="url(#clip720)" d="M2082.23 275.837 L2082.23 277.92 L2062.65 277.92 Q2062.93 282.318 2065.29 284.633 Q2067.67 286.925 2071.91 286.925 Q2074.36 286.925 2076.65 286.323 Q2078.97 285.721 2081.24 284.517 L2081.24 288.545 Q2078.94 289.517 2076.54 290.027 Q2074.13 290.536 2071.65 290.536 Q2065.45 290.536 2061.82 286.925 Q2058.2 283.314 2058.2 277.156 Q2058.2 270.791 2061.63 267.064 Q2065.08 263.314 2070.91 263.314 Q2076.14 263.314 2079.18 266.693 Q2082.23 270.05 2082.23 275.837 M2077.97 274.587 Q2077.93 271.092 2076.01 269.008 Q2074.11 266.925 2070.96 266.925 Q2067.39 266.925 2065.24 268.939 Q2063.11 270.953 2062.79 274.61 L2077.97 274.587 Z" fill="#000000" fill-rule="evenodd" fill-opacity="1" /><path clip-path="url(#clip720)" d="M2124.48 268.916 Q2126.07 266.045 2128.3 264.68 Q2130.52 263.314 2133.53 263.314 Q2137.58 263.314 2139.78 266.161 Q2141.98 268.985 2141.98 274.217 L2141.98 289.865 L2137.69 289.865 L2137.69 274.355 Q2137.69 270.629 2136.38 268.823 Q2135.06 267.018 2132.35 267.018 Q2129.04 267.018 2127.12 269.217 Q2125.19 271.416 2125.19 275.212 L2125.19 289.865 L2120.91 289.865 L2120.91 274.355 Q2120.91 270.605 2119.59 268.823 Q2118.27 267.018 2115.52 267.018 Q2112.25 267.018 2110.33 269.24 Q2108.41 271.439 2108.41 275.212 L2108.41 289.865 L2104.13 289.865 L2104.13 263.939 L2108.41 263.939 L2108.41 267.967 Q2109.87 265.582 2111.91 264.448 Q2113.94 263.314 2116.75 263.314 Q2119.57 263.314 2121.54 264.749 Q2123.53 266.184 2124.48 268.916 Z" fill="#000000" fill-rule="evenodd" fill-opacity="1" /><path clip-path="url(#clip720)" d="M2172.65 275.837 L2172.65 277.92 L2153.06 277.92 Q2153.34 282.318 2155.7 284.633 Q2158.09 286.925 2162.32 286.925 Q2164.78 286.925 2167.07 286.323 Q2169.38 285.721 2171.65 284.517 L2171.65 288.545 Q2169.36 289.517 2166.95 290.027 Q2164.55 290.536 2162.07 290.536 Q2155.87 290.536 2152.23 286.925 Q2148.62 283.314 2148.62 277.156 Q2148.62 270.791 2152.05 267.064 Q2155.5 263.314 2161.33 263.314 Q2166.56 263.314 2169.59 266.693 Q2172.65 270.05 2172.65 275.837 M2168.39 274.587 Q2168.34 271.092 2166.42 269.008 Q2164.52 266.925 2161.38 266.925 Q2157.81 266.925 2155.66 268.939 Q2153.53 270.953 2153.2 274.61 L2168.39 274.587 Z" fill="#000000" fill-rule="evenodd" fill-opacity="1" /><path clip-path="url(#clip720)" d="M2191.42 276.832 Q2186.26 276.832 2184.27 278.013 Q2182.28 279.193 2182.28 282.041 Q2182.28 284.309 2183.76 285.652 Q2185.26 286.971 2187.83 286.971 Q2191.37 286.971 2193.5 284.471 Q2195.66 281.948 2195.66 277.781 L2195.66 276.832 L2191.42 276.832 M2199.92 275.073 L2199.92 289.865 L2195.66 289.865 L2195.66 285.929 Q2194.2 288.291 2192.02 289.425 Q2189.85 290.536 2186.7 290.536 Q2182.72 290.536 2180.36 288.314 Q2178.02 286.068 2178.02 282.318 Q2178.02 277.943 2180.94 275.721 Q2183.87 273.499 2189.69 273.499 L2195.66 273.499 L2195.66 273.082 Q2195.66 270.143 2193.71 268.545 Q2191.79 266.925 2188.3 266.925 Q2186.07 266.925 2183.97 267.457 Q2181.86 267.99 2179.92 269.055 L2179.92 265.119 Q2182.25 264.217 2184.45 263.777 Q2186.65 263.314 2188.74 263.314 Q2194.36 263.314 2197.14 266.231 Q2199.92 269.147 2199.92 275.073 Z" fill="#000000" fill-rule="evenodd" fill-opacity="1" /><path clip-path="url(#clip720)" d="M2230.24 274.217 L2230.24 289.865 L2225.98 289.865 L2225.98 274.355 Q2225.98 270.675 2224.55 268.846 Q2223.11 267.018 2220.24 267.018 Q2216.79 267.018 2214.8 269.217 Q2212.81 271.416 2212.81 275.212 L2212.81 289.865 L2208.53 289.865 L2208.53 263.939 L2212.81 263.939 L2212.81 267.967 Q2214.34 265.629 2216.4 264.471 Q2218.48 263.314 2221.19 263.314 Q2225.66 263.314 2227.95 266.092 Q2230.24 268.846 2230.24 274.217 Z" fill="#000000" fill-rule="evenodd" fill-opacity="1" /></svg>
