<?xml version="1.0" encoding="utf-8"?>
<svg xmlns="http://www.w3.org/2000/svg" xmlns:xlink="http://www.w3.org/1999/xlink" width="600" height="400" viewBox="0 0 2400 1600">
<defs>
  <clipPath id="clip780">
    <rect x="0" y="0" width="2400" height="1600"/>
  </clipPath>
</defs>
<path clip-path="url(#clip780)" d="
M0 1600 L2400 1600 L2400 0 L0 0  Z
  " fill="#ffffff" fill-rule="evenodd" fill-opacity="1"/>
<defs>
  <clipPath id="clip781">
    <rect x="480" y="0" width="1681" height="1600"/>
  </clipPath>
</defs>
<path clip-path="url(#clip780)" d="
M156.598 1486.45 L2352.76 1486.45 L2352.76 47.2441 L156.598 47.2441  Z
  " fill="#ffffff" fill-rule="evenodd" fill-opacity="1"/>
<defs>
  <clipPath id="clip782">
    <rect x="156" y="47" width="2197" height="1440"/>
  </clipPath>
</defs>
<polyline clip-path="url(#clip782)" style="stroke:#000000; stroke-linecap:butt; stroke-linejoin:round; stroke-width:2; stroke-opacity:0.1; fill:none" points="
  321.854,1486.45 321.854,47.2441 
  "/>
<polyline clip-path="url(#clip782)" style="stroke:#000000; stroke-linecap:butt; stroke-linejoin:round; stroke-width:2; stroke-opacity:0.1; fill:none" points="
  762.331,1486.45 762.331,47.2441 
  "/>
<polyline clip-path="url(#clip782)" style="stroke:#000000; stroke-linecap:butt; stroke-linejoin:round; stroke-width:2; stroke-opacity:0.1; fill:none" points="
  1202.81,1486.45 1202.81,47.2441 
  "/>
<polyline clip-path="url(#clip782)" style="stroke:#000000; stroke-linecap:butt; stroke-linejoin:round; stroke-width:2; stroke-opacity:0.1; fill:none" points="
  1643.29,1486.45 1643.29,47.2441 
  "/>
<polyline clip-path="url(#clip782)" style="stroke:#000000; stroke-linecap:butt; stroke-linejoin:round; stroke-width:2; stroke-opacity:0.1; fill:none" points="
  2083.76,1486.45 2083.76,47.2441 
  "/>
<polyline clip-path="url(#clip780)" style="stroke:#000000; stroke-linecap:butt; stroke-linejoin:round; stroke-width:4; stroke-opacity:1; fill:none" points="
  156.598,1486.45 2352.76,1486.45 
  "/>
<polyline clip-path="url(#clip780)" style="stroke:#000000; stroke-linecap:butt; stroke-linejoin:round; stroke-width:4; stroke-opacity:1; fill:none" points="
  321.854,1486.45 321.854,1467.55 
  "/>
<polyline clip-path="url(#clip780)" style="stroke:#000000; stroke-linecap:butt; stroke-linejoin:round; stroke-width:4; stroke-opacity:1; fill:none" points="
  762.331,1486.45 762.331,1467.55 
  "/>
<polyline clip-path="url(#clip780)" style="stroke:#000000; stroke-linecap:butt; stroke-linejoin:round; stroke-width:4; stroke-opacity:1; fill:none" points="
  1202.81,1486.45 1202.81,1467.55 
  "/>
<polyline clip-path="url(#clip780)" style="stroke:#000000; stroke-linecap:butt; stroke-linejoin:round; stroke-width:4; stroke-opacity:1; fill:none" points="
  1643.29,1486.45 1643.29,1467.55 
  "/>
<polyline clip-path="url(#clip780)" style="stroke:#000000; stroke-linecap:butt; stroke-linejoin:round; stroke-width:4; stroke-opacity:1; fill:none" points="
  2083.76,1486.45 2083.76,1467.55 
  "/>
<path clip-path="url(#clip780)" d="M291.796 1532.02 L321.472 1532.02 L321.472 1535.95 L291.796 1535.95 L291.796 1532.02 Z" fill="#000000" fill-rule="evenodd" fill-opacity="1" /><path clip-path="url(#clip780)" d="M335.593 1544.91 L351.912 1544.91 L351.912 1548.85 L329.968 1548.85 L329.968 1544.91 Q332.63 1542.16 337.213 1537.53 Q341.819 1532.88 343 1531.53 Q345.245 1529.01 346.125 1527.27 Q347.028 1525.51 347.028 1523.82 Q347.028 1521.07 345.083 1519.33 Q343.162 1517.6 340.06 1517.6 Q337.861 1517.6 335.407 1518.36 Q332.977 1519.13 330.199 1520.68 L330.199 1515.95 Q333.023 1514.82 335.477 1514.24 Q337.93 1513.66 339.967 1513.66 Q345.338 1513.66 348.532 1516.35 Q351.727 1519.03 351.727 1523.52 Q351.727 1525.65 350.916 1527.57 Q350.129 1529.47 348.023 1532.07 Q347.444 1532.74 344.342 1535.95 Q341.241 1539.15 335.593 1544.91 Z" fill="#000000" fill-rule="evenodd" fill-opacity="1" /><path clip-path="url(#clip780)" d="M732.088 1532.02 L761.764 1532.02 L761.764 1535.95 L732.088 1535.95 L732.088 1532.02 Z" fill="#000000" fill-rule="evenodd" fill-opacity="1" /><path clip-path="url(#clip780)" d="M772.667 1544.91 L780.306 1544.91 L780.306 1518.55 L771.996 1520.21 L771.996 1515.95 L780.259 1514.29 L784.935 1514.29 L784.935 1544.91 L792.574 1544.91 L792.574 1548.85 L772.667 1548.85 L772.667 1544.91 Z" fill="#000000" fill-rule="evenodd" fill-opacity="1" /><path clip-path="url(#clip780)" d="M1202.81 1517.37 Q1199.2 1517.37 1197.37 1520.93 Q1195.56 1524.47 1195.56 1531.6 Q1195.56 1538.71 1197.37 1542.27 Q1199.2 1545.82 1202.81 1545.82 Q1206.44 1545.82 1208.25 1542.27 Q1210.08 1538.71 1210.08 1531.6 Q1210.08 1524.47 1208.25 1520.93 Q1206.44 1517.37 1202.81 1517.37 M1202.81 1513.66 Q1208.62 1513.66 1211.67 1518.27 Q1214.75 1522.85 1214.75 1531.6 Q1214.75 1540.33 1211.67 1544.94 Q1208.62 1549.52 1202.81 1549.52 Q1197 1549.52 1193.92 1544.94 Q1190.86 1540.33 1190.86 1531.6 Q1190.86 1522.85 1193.92 1518.27 Q1197 1513.66 1202.81 1513.66 Z" fill="#000000" fill-rule="evenodd" fill-opacity="1" /><path clip-path="url(#clip780)" d="M1633.67 1544.91 L1641.31 1544.91 L1641.31 1518.55 L1633 1520.21 L1633 1515.95 L1641.26 1514.29 L1645.94 1514.29 L1645.94 1544.91 L1653.57 1544.91 L1653.57 1548.85 L1633.67 1548.85 L1633.67 1544.91 Z" fill="#000000" fill-rule="evenodd" fill-opacity="1" /><path clip-path="url(#clip780)" d="M2078.42 1544.91 L2094.73 1544.91 L2094.73 1548.85 L2072.79 1548.85 L2072.79 1544.91 Q2075.45 1542.16 2080.04 1537.53 Q2084.64 1532.88 2085.82 1531.53 Q2088.07 1529.01 2088.95 1527.27 Q2089.85 1525.51 2089.85 1523.82 Q2089.85 1521.07 2087.91 1519.33 Q2085.98 1517.6 2082.88 1517.6 Q2080.68 1517.6 2078.23 1518.36 Q2075.8 1519.13 2073.02 1520.68 L2073.02 1515.95 Q2075.85 1514.82 2078.3 1514.24 Q2080.75 1513.66 2082.79 1513.66 Q2088.16 1513.66 2091.36 1516.35 Q2094.55 1519.03 2094.55 1523.52 Q2094.55 1525.65 2093.74 1527.57 Q2092.95 1529.47 2090.85 1532.07 Q2090.27 1532.74 2087.17 1535.95 Q2084.06 1539.15 2078.42 1544.91 Z" fill="#000000" fill-rule="evenodd" fill-opacity="1" /><polyline clip-path="url(#clip782)" style="stroke:#000000; stroke-linecap:butt; stroke-linejoin:round; stroke-width:2; stroke-opacity:0.1; fill:none" points="
  156.598,1445.72 2352.76,1445.72 
  "/>
<polyline clip-path="url(#clip782)" style="stroke:#000000; stroke-linecap:butt; stroke-linejoin:round; stroke-width:2; stroke-opacity:0.1; fill:none" points="
  156.598,1105.32 2352.76,1105.32 
  "/>
<polyline clip-path="url(#clip782)" style="stroke:#000000; stroke-linecap:butt; stroke-linejoin:round; stroke-width:2; stroke-opacity:0.1; fill:none" points="
  156.598,764.932 2352.76,764.932 
  "/>
<polyline clip-path="url(#clip782)" style="stroke:#000000; stroke-linecap:butt; stroke-linejoin:round; stroke-width:2; stroke-opacity:0.1; fill:none" points="
  156.598,424.539 2352.76,424.539 
  "/>
<polyline clip-path="url(#clip782)" style="stroke:#000000; stroke-linecap:butt; stroke-linejoin:round; stroke-width:2; stroke-opacity:0.1; fill:none" points="
  156.598,84.1472 2352.76,84.1472 
  "/>
<polyline clip-path="url(#clip780)" style="stroke:#000000; stroke-linecap:butt; stroke-linejoin:round; stroke-width:4; stroke-opacity:1; fill:none" points="
  156.598,1486.45 156.598,47.2441 
  "/>
<polyline clip-path="url(#clip780)" style="stroke:#000000; stroke-linecap:butt; stroke-linejoin:round; stroke-width:4; stroke-opacity:1; fill:none" points="
  156.598,1445.72 175.496,1445.72 
  "/>
<polyline clip-path="url(#clip780)" style="stroke:#000000; stroke-linecap:butt; stroke-linejoin:round; stroke-width:4; stroke-opacity:1; fill:none" points="
  156.598,1105.32 175.496,1105.32 
  "/>
<polyline clip-path="url(#clip780)" style="stroke:#000000; stroke-linecap:butt; stroke-linejoin:round; stroke-width:4; stroke-opacity:1; fill:none" points="
  156.598,764.932 175.496,764.932 
  "/>
<polyline clip-path="url(#clip780)" style="stroke:#000000; stroke-linecap:butt; stroke-linejoin:round; stroke-width:4; stroke-opacity:1; fill:none" points="
  156.598,424.539 175.496,424.539 
  "/>
<polyline clip-path="url(#clip780)" style="stroke:#000000; stroke-linecap:butt; stroke-linejoin:round; stroke-width:4; stroke-opacity:1; fill:none" points="
  156.598,84.1472 175.496,84.1472 
  "/>
<path clip-path="url(#clip780)" d="M63.4226 1431.51 Q59.8115 1431.51 57.9828 1435.08 Q56.1773 1438.62 56.1773 1445.75 Q56.1773 1452.86 57.9828 1456.42 Q59.8115 1459.96 63.4226 1459.96 Q67.0569 1459.96 68.8624 1456.42 Q70.6911 1452.86 70.6911 1445.75 Q70.6911 1438.62 68.8624 1435.08 Q67.0569 1431.51 63.4226 1431.51 M63.4226 1427.81 Q69.2328 1427.81 72.2883 1432.42 Q75.367 1437 75.367 1445.75 Q75.367 1454.48 72.2883 1459.08 Q69.2328 1463.67 63.4226 1463.67 Q57.6125 1463.67 54.5338 1459.08 Q51.4782 1454.48 51.4782 1445.75 Q51.4782 1437 54.5338 1432.42 Q57.6125 1427.81 63.4226 1427.81 Z" fill="#000000" fill-rule="evenodd" fill-opacity="1" /><path clip-path="url(#clip780)" d="M83.5845 1457.12 L88.4688 1457.12 L88.4688 1463 L83.5845 1463 L83.5845 1457.12 Z" fill="#000000" fill-rule="evenodd" fill-opacity="1" /><path clip-path="url(#clip780)" d="M108.654 1431.51 Q105.043 1431.51 103.214 1435.08 Q101.409 1438.62 101.409 1445.75 Q101.409 1452.86 103.214 1456.42 Q105.043 1459.96 108.654 1459.96 Q112.288 1459.96 114.094 1456.42 Q115.922 1452.86 115.922 1445.75 Q115.922 1438.62 114.094 1435.08 Q112.288 1431.51 108.654 1431.51 M108.654 1427.81 Q114.464 1427.81 117.52 1432.42 Q120.598 1437 120.598 1445.75 Q120.598 1454.48 117.52 1459.08 Q114.464 1463.67 108.654 1463.67 Q102.844 1463.67 99.765 1459.08 Q96.7095 1454.48 96.7095 1445.75 Q96.7095 1437 99.765 1432.42 Q102.844 1427.81 108.654 1427.81 Z" fill="#000000" fill-rule="evenodd" fill-opacity="1" /><path clip-path="url(#clip780)" d="M65.0198 1091.12 Q61.4087 1091.12 59.58 1094.69 Q57.7745 1098.23 57.7745 1105.36 Q57.7745 1112.47 59.58 1116.03 Q61.4087 1119.57 65.0198 1119.57 Q68.6541 1119.57 70.4596 1116.03 Q72.2883 1112.47 72.2883 1105.36 Q72.2883 1098.23 70.4596 1094.69 Q68.6541 1091.12 65.0198 1091.12 M65.0198 1087.42 Q70.83 1087.42 73.8855 1092.03 Q76.9642 1096.61 76.9642 1105.36 Q76.9642 1114.09 73.8855 1118.69 Q70.83 1123.28 65.0198 1123.28 Q59.2097 1123.28 56.131 1118.69 Q53.0754 1114.09 53.0754 1105.36 Q53.0754 1096.61 56.131 1092.03 Q59.2097 1087.42 65.0198 1087.42 Z" fill="#000000" fill-rule="evenodd" fill-opacity="1" /><path clip-path="url(#clip780)" d="M85.1818 1116.72 L90.066 1116.72 L90.066 1122.6 L85.1818 1122.6 L85.1818 1116.72 Z" fill="#000000" fill-rule="evenodd" fill-opacity="1" /><path clip-path="url(#clip780)" d="M104.279 1118.67 L120.598 1118.67 L120.598 1122.6 L98.6539 1122.6 L98.6539 1118.67 Q101.316 1115.91 105.899 1111.28 Q110.506 1106.63 111.686 1105.29 Q113.932 1102.77 114.811 1101.03 Q115.714 1099.27 115.714 1097.58 Q115.714 1094.83 113.77 1093.09 Q111.848 1091.35 108.746 1091.35 Q106.547 1091.35 104.094 1092.12 Q101.663 1092.88 98.8854 1094.43 L98.8854 1089.71 Q101.709 1088.58 104.163 1088 Q106.617 1087.42 108.654 1087.42 Q114.024 1087.42 117.219 1090.1 Q120.413 1092.79 120.413 1097.28 Q120.413 1099.41 119.603 1101.33 Q118.816 1103.23 116.709 1105.82 Q116.131 1106.49 113.029 1109.71 Q109.927 1112.9 104.279 1118.67 Z" fill="#000000" fill-rule="evenodd" fill-opacity="1" /><path clip-path="url(#clip780)" d="M62.9365 750.73 Q59.3254 750.73 57.4967 754.295 Q55.6912 757.837 55.6912 764.966 Q55.6912 772.073 57.4967 775.638 Q59.3254 779.179 62.9365 779.179 Q66.5707 779.179 68.3763 775.638 Q70.205 772.073 70.205 764.966 Q70.205 757.837 68.3763 754.295 Q66.5707 750.73 62.9365 750.73 M62.9365 747.027 Q68.7467 747.027 71.8022 751.633 Q74.8809 756.216 74.8809 764.966 Q74.8809 773.693 71.8022 778.3 Q68.7467 782.883 62.9365 782.883 Q57.1264 782.883 54.0477 778.3 Q50.9921 773.693 50.9921 764.966 Q50.9921 756.216 54.0477 751.633 Q57.1264 747.027 62.9365 747.027 Z" fill="#000000" fill-rule="evenodd" fill-opacity="1" /><path clip-path="url(#clip780)" d="M83.0984 776.332 L87.9827 776.332 L87.9827 782.212 L83.0984 782.212 L83.0984 776.332 Z" fill="#000000" fill-rule="evenodd" fill-opacity="1" /><path clip-path="url(#clip780)" d="M111.015 751.726 L99.2095 770.175 L111.015 770.175 L111.015 751.726 M109.788 747.652 L115.668 747.652 L115.668 770.175 L120.598 770.175 L120.598 774.064 L115.668 774.064 L115.668 782.212 L111.015 782.212 L111.015 774.064 L95.4132 774.064 L95.4132 769.55 L109.788 747.652 Z" fill="#000000" fill-rule="evenodd" fill-opacity="1" /><path clip-path="url(#clip780)" d="M63.2606 410.338 Q59.6495 410.338 57.8208 413.903 Q56.0152 417.445 56.0152 424.574 Q56.0152 431.681 57.8208 435.245 Q59.6495 438.787 63.2606 438.787 Q66.8948 438.787 68.7004 435.245 Q70.5291 431.681 70.5291 424.574 Q70.5291 417.445 68.7004 413.903 Q66.8948 410.338 63.2606 410.338 M63.2606 406.634 Q69.0707 406.634 72.1263 411.241 Q75.205 415.824 75.205 424.574 Q75.205 433.301 72.1263 437.907 Q69.0707 442.491 63.2606 442.491 Q57.4504 442.491 54.3717 437.907 Q51.3162 433.301 51.3162 424.574 Q51.3162 415.824 54.3717 411.241 Q57.4504 406.634 63.2606 406.634 Z" fill="#000000" fill-rule="evenodd" fill-opacity="1" /><path clip-path="url(#clip780)" d="M83.4225 435.94 L88.3067 435.94 L88.3067 441.819 L83.4225 441.819 L83.4225 435.94 Z" fill="#000000" fill-rule="evenodd" fill-opacity="1" /><path clip-path="url(#clip780)" d="M109.071 422.676 Q105.922 422.676 104.071 424.829 Q102.242 426.982 102.242 430.731 Q102.242 434.458 104.071 436.634 Q105.922 438.787 109.071 438.787 Q112.219 438.787 114.047 436.634 Q115.899 434.458 115.899 430.731 Q115.899 426.982 114.047 424.829 Q112.219 422.676 109.071 422.676 M118.353 408.023 L118.353 412.283 Q116.594 411.449 114.788 411.009 Q113.006 410.57 111.246 410.57 Q106.617 410.57 104.163 413.695 Q101.733 416.82 101.385 423.139 Q102.751 421.125 104.811 420.06 Q106.871 418.972 109.348 418.972 Q114.557 418.972 117.566 422.144 Q120.598 425.292 120.598 430.731 Q120.598 436.056 117.45 439.273 Q114.302 442.491 109.071 442.491 Q103.075 442.491 99.9039 437.907 Q96.7326 433.301 96.7326 424.574 Q96.7326 416.38 100.621 411.519 Q104.51 406.634 111.061 406.634 Q112.82 406.634 114.603 406.982 Q116.408 407.329 118.353 408.023 Z" fill="#000000" fill-rule="evenodd" fill-opacity="1" /><path clip-path="url(#clip780)" d="M63.5152 69.9458 Q59.9041 69.9458 58.0754 73.5106 Q56.2699 77.0523 56.2699 84.1819 Q56.2699 91.2883 58.0754 94.8531 Q59.9041 98.3948 63.5152 98.3948 Q67.1494 98.3948 68.955 94.8531 Q70.7837 91.2883 70.7837 84.1819 Q70.7837 77.0523 68.955 73.5106 Q67.1494 69.9458 63.5152 69.9458 M63.5152 66.2422 Q69.3254 66.2422 72.3809 70.8486 Q75.4596 75.4319 75.4596 84.1819 Q75.4596 92.9087 72.3809 97.5151 Q69.3254 102.098 63.5152 102.098 Q57.7051 102.098 54.6264 97.5151 Q51.5708 92.9087 51.5708 84.1819 Q51.5708 75.4319 54.6264 70.8486 Q57.7051 66.2422 63.5152 66.2422 Z" fill="#000000" fill-rule="evenodd" fill-opacity="1" /><path clip-path="url(#clip780)" d="M83.6771 95.5476 L88.5614 95.5476 L88.5614 101.427 L83.6771 101.427 L83.6771 95.5476 Z" fill="#000000" fill-rule="evenodd" fill-opacity="1" /><path clip-path="url(#clip780)" d="M108.746 85.0152 Q105.413 85.0152 103.492 86.7976 Q101.594 88.58 101.594 91.705 Q101.594 94.83 103.492 96.6124 Q105.413 98.3948 108.746 98.3948 Q112.08 98.3948 114.001 96.6124 Q115.922 94.8068 115.922 91.705 Q115.922 88.58 114.001 86.7976 Q112.103 85.0152 108.746 85.0152 M104.071 83.0245 Q101.061 82.2837 99.3715 80.2236 Q97.7048 78.1634 97.7048 75.2004 Q97.7048 71.057 100.645 68.6496 Q103.608 66.2422 108.746 66.2422 Q113.908 66.2422 116.848 68.6496 Q119.788 71.057 119.788 75.2004 Q119.788 78.1634 118.098 80.2236 Q116.432 82.2837 113.445 83.0245 Q116.825 83.8115 118.7 86.1032 Q120.598 88.3948 120.598 91.705 Q120.598 96.7281 117.52 99.4133 Q114.464 102.098 108.746 102.098 Q103.029 102.098 99.9502 99.4133 Q96.8947 96.7281 96.8947 91.705 Q96.8947 88.3948 98.7928 86.1032 Q100.691 83.8115 104.071 83.0245 M102.358 75.6403 Q102.358 78.3254 104.024 79.8301 Q105.714 81.3347 108.746 81.3347 Q111.756 81.3347 113.445 79.8301 Q115.158 78.3254 115.158 75.6403 Q115.158 72.9551 113.445 71.4505 Q111.756 69.9458 108.746 69.9458 Q105.714 69.9458 104.024 71.4505 Q102.358 72.9551 102.358 75.6403 Z" fill="#000000" fill-rule="evenodd" fill-opacity="1" /><polyline clip-path="url(#clip782)" style="stroke:#009af9; stroke-linecap:butt; stroke-linejoin:round; stroke-width:4; stroke-opacity:1; fill:none" points="
  218.754,1445.72 229.165,1445.71 239.576,1445.71 249.988,1445.7 260.399,1445.69 270.81,1445.64 281.221,1445.56 291.633,1445.42 302.044,1445.2 312.455,1444.89 
  322.867,1444.51 333.278,1444.1 343.689,1443.71 354.1,1443.38 364.512,1443.13 374.923,1442.97 385.334,1442.89 395.746,1442.88 406.157,1442.89 416.568,1442.88 
  426.979,1442.76 437.391,1442.48 447.802,1442.01 458.213,1441.39 468.625,1440.68 479.036,1439.96 489.447,1439.22 499.858,1438.41 510.27,1437.48 520.681,1436.39 
  531.092,1435.13 541.504,1433.73 551.915,1432.16 562.326,1430.37 572.738,1428.24 583.149,1425.67 593.56,1422.6 603.971,1418.94 614.383,1414.54 624.794,1409.22 
  635.205,1402.8 645.617,1395.22 656.028,1386.63 666.439,1377.32 676.85,1367.63 687.262,1357.77 697.673,1347.74 708.084,1337.27 718.496,1325.9 728.907,1313.08 
  739.318,1298.4 749.729,1281.76 760.141,1263.5 770.552,1244.24 780.963,1224.67 791.375,1205.14 801.786,1185.51 812.197,1165.13 822.609,1143.05 833.02,1118.33 
  843.431,1090.29 853.842,1058.71 864.254,1023.83 874.665,986.288 885.076,946.973 895.488,906.843 905.899,866.665 916.31,826.748 926.721,786.793 937.133,746.036 
  947.544,703.682 957.955,659.434 968.367,613.784 978.778,567.887 989.189,523.094 999.6,480.449 1010.01,440.377 1020.42,402.664 1030.83,366.677 1041.25,331.773 
  1051.66,297.754 1062.07,265.157 1072.48,235.15 1082.89,209.046 1093.3,187.673 1103.71,170.982 1114.12,158.085 1124.54,147.662 1134.95,138.52 1145.36,130.054 
  1155.77,122.437 1166.18,116.477 1176.59,113.195 1187,113.283 1197.41,116.738 1207.83,122.9 1218.24,130.941 1228.65,140.514 1239.06,152.129 1249.47,166.951 
  1259.88,186.138 1270.29,210.125 1280.71,238.302 1291.12,269.224 1301.53,301.164 1311.94,332.696 1322.35,363.072 1332.76,392.307 1343.17,421.049 1353.58,450.259 
  1364,480.805 1374.41,513.071 1384.82,546.751 1395.23,580.962 1405.64,614.657 1416.05,647.121 1426.46,678.324 1436.87,708.927 1447.29,739.969 1457.7,772.373 
  1468.11,806.524 1478.52,842.119 1488.93,878.323 1499.34,914.131 1509.75,948.695 1520.16,981.453 1530.58,1012.08 1540.99,1040.39 1551.4,1066.3 1561.81,1089.9 
  1572.22,1111.55 1582.63,1131.87 1593.04,1151.6 1603.46,1171.38 1613.87,1191.49 1624.28,1211.79 1634.69,1231.74 1645.1,1250.67 1655.51,1268.07 1665.92,1283.73 
  1676.33,1297.85 1686.75,1310.81 1697.16,1323.02 1707.57,1334.71 1717.98,1345.9 1728.39,1356.49 1738.8,1366.37 1749.21,1375.45 1759.62,1383.71 1770.04,1391.11 
  1780.45,1397.58 1790.86,1403.01 1801.27,1407.3 1811.68,1410.47 1822.09,1412.65 1832.5,1414.17 1842.91,1415.41 1853.33,1416.7 1863.74,1418.26 1874.15,1420.12 
  1884.56,1422.24 1894.97,1424.52 1905.38,1426.9 1915.79,1429.32 1926.21,1431.7 1936.62,1433.95 1947.03,1435.97 1957.44,1437.74 1967.85,1439.23 1978.26,1440.48 
  1988.67,1441.53 1999.08,1442.39 2009.5,1443.07 2019.91,1443.57 2030.32,1443.93 2040.73,1444.18 2051.14,1444.35 2061.55,1444.48 2071.96,1444.56 2082.37,1444.58 
  2092.79,1444.55 2103.2,1444.48 2113.61,1444.4 2124.02,1444.34 2134.43,1444.31 2144.84,1444.33 2155.25,1444.4 2165.67,1444.52 2176.08,1444.7 2186.49,1444.91 
  2196.9,1445.13 2207.31,1445.33 2217.72,1445.48 2228.13,1445.59 2238.54,1445.65 2248.96,1445.69 2259.37,1445.71 2269.78,1445.71 2280.19,1445.71 2290.6,1445.72 
  
  "/>
<polyline clip-path="url(#clip782)" style="stroke:#000000; stroke-linecap:butt; stroke-linejoin:round; stroke-width:4; stroke-opacity:1; fill:none" stroke-dasharray="16, 10" points="
  383.738,1444.37 391.736,1444.17 399.735,1443.96 473.697,1440.05 547.658,1429.45 592.106,1416.66 636.553,1395.89 674.133,1369.57 711.713,1332.68 732.125,1307.33 
  752.536,1277.74 772.947,1243.57 793.358,1204.53 812.175,1164.04 830.993,1119.14 849.81,1069.84 868.627,1016.24 908.976,888.051 949.324,745.494 996.071,571.638 
  1042.82,402.682 1063.59,333.672 1084.36,270.595 1105.13,214.937 1125.91,168.06 1144.12,135.115 1162.34,110.484 1180.55,94.6645 1198.77,87.9763 1218.63,91.245 
  1238.48,105.448 1258.34,130.241 1278.2,165.032 1298.18,209.286 1318.16,261.792 1338.13,321.357 1358.11,386.675 1402.29,544.663 1446.46,709.313 1488.49,860.235 
  1530.52,996.876 1552.38,1060.38 1574.23,1118.14 1596.08,1169.97 1617.93,1215.88 1654.72,1280.28 1691.51,1329.91 1736.42,1373.58 1781.34,1402.61 1823.56,1420.14 
  1865.78,1431.09 1933.42,1440.18 2001.06,1443.81 2011.47,1444.11 2021.88,1444.37 
  "/>
<path clip-path="url(#clip780)" d="
M1532.23 250.738 L2279.55 250.738 L2279.55 95.2176 L1532.23 95.2176  Z
  " fill="#ffffff" fill-rule="evenodd" fill-opacity="1"/>
<polyline clip-path="url(#clip780)" style="stroke:#000000; stroke-linecap:butt; stroke-linejoin:round; stroke-width:4; stroke-opacity:1; fill:none" points="
  1532.23,250.738 2279.55,250.738 2279.55,95.2176 1532.23,95.2176 1532.23,250.738 
  "/>
<polyline clip-path="url(#clip780)" style="stroke:#009af9; stroke-linecap:butt; stroke-linejoin:round; stroke-width:4; stroke-opacity:1; fill:none" points="
  1556.63,147.058 1703.04,147.058 
  "/>
<path clip-path="url(#clip780)" d="M1727.44 129.778 L1749.29 129.778 L1749.29 133.713 L1732.12 133.713 L1732.12 143.944 L1748.57 143.944 L1748.57 147.879 L1732.12 147.879 L1732.12 160.402 L1749.71 160.402 L1749.71 164.338 L1727.44 164.338 L1727.44 129.778 Z" fill="#000000" fill-rule="evenodd" fill-opacity="1" /><path clip-path="url(#clip780)" d="M1777.39 143.389 Q1778.99 140.518 1781.21 139.153 Q1783.43 137.787 1786.44 137.787 Q1790.49 137.787 1792.69 140.634 Q1794.89 143.458 1794.89 148.689 L1794.89 164.338 L1790.61 164.338 L1790.61 148.828 Q1790.61 145.102 1789.29 143.296 Q1787.97 141.49 1785.26 141.49 Q1781.95 141.49 1780.03 143.69 Q1778.11 145.889 1778.11 149.685 L1778.11 164.338 L1773.83 164.338 L1773.83 148.828 Q1773.83 145.078 1772.51 143.296 Q1771.19 141.49 1768.43 141.49 Q1765.17 141.49 1763.25 143.713 Q1761.33 145.912 1761.33 149.685 L1761.33 164.338 L1757.05 164.338 L1757.05 138.412 L1761.33 138.412 L1761.33 142.44 Q1762.79 140.055 1764.82 138.921 Q1766.86 137.787 1769.66 137.787 Q1772.49 137.787 1774.45 139.222 Q1776.44 140.657 1777.39 143.389 Z" fill="#000000" fill-rule="evenodd" fill-opacity="1" /><path clip-path="url(#clip780)" d="M1807.51 160.449 L1807.51 174.199 L1803.23 174.199 L1803.23 138.412 L1807.51 138.412 L1807.51 142.347 Q1808.85 140.032 1810.89 138.921 Q1812.95 137.787 1815.8 137.787 Q1820.52 137.787 1823.46 141.537 Q1826.42 145.287 1826.42 151.398 Q1826.42 157.509 1823.46 161.259 Q1820.52 165.009 1815.8 165.009 Q1812.95 165.009 1810.89 163.898 Q1808.85 162.763 1807.51 160.449 M1822 151.398 Q1822 146.699 1820.05 144.037 Q1818.13 141.352 1814.75 141.352 Q1811.37 141.352 1809.43 144.037 Q1807.51 146.699 1807.51 151.398 Q1807.51 156.097 1809.43 158.782 Q1811.37 161.444 1814.75 161.444 Q1818.13 161.444 1820.05 158.782 Q1822 156.097 1822 151.398 Z" fill="#000000" fill-rule="evenodd" fill-opacity="1" /><path clip-path="url(#clip780)" d="M1833.48 138.412 L1837.74 138.412 L1837.74 164.338 L1833.48 164.338 L1833.48 138.412 M1833.48 128.319 L1837.74 128.319 L1837.74 133.713 L1833.48 133.713 L1833.48 128.319 Z" fill="#000000" fill-rule="evenodd" fill-opacity="1" /><path clip-path="url(#clip780)" d="M1861.68 142.393 Q1860.96 141.977 1860.1 141.791 Q1859.27 141.583 1858.25 141.583 Q1854.64 141.583 1852.69 143.944 Q1850.77 146.282 1850.77 150.68 L1850.77 164.338 L1846.49 164.338 L1846.49 138.412 L1850.77 138.412 L1850.77 142.44 Q1852.11 140.078 1854.27 138.944 Q1856.42 137.787 1859.5 137.787 Q1859.94 137.787 1860.47 137.856 Q1861 137.903 1861.65 138.018 L1861.68 142.393 Z" fill="#000000" fill-rule="evenodd" fill-opacity="1" /><path clip-path="url(#clip780)" d="M1866.14 138.412 L1870.4 138.412 L1870.4 164.338 L1866.14 164.338 L1866.14 138.412 M1866.14 128.319 L1870.4 128.319 L1870.4 133.713 L1866.14 133.713 L1866.14 128.319 Z" fill="#000000" fill-rule="evenodd" fill-opacity="1" /><path clip-path="url(#clip780)" d="M1897.97 139.407 L1897.97 143.389 Q1896.17 142.393 1894.34 141.907 Q1892.53 141.398 1890.68 141.398 Q1886.54 141.398 1884.24 144.037 Q1881.95 146.652 1881.95 151.398 Q1881.95 156.143 1884.24 158.782 Q1886.54 161.398 1890.68 161.398 Q1892.53 161.398 1894.34 160.912 Q1896.17 160.402 1897.97 159.407 L1897.97 163.342 Q1896.19 164.176 1894.27 164.592 Q1892.37 165.009 1890.22 165.009 Q1884.36 165.009 1880.91 161.328 Q1877.46 157.648 1877.46 151.398 Q1877.46 145.055 1880.93 141.421 Q1884.43 137.787 1890.49 137.787 Q1892.46 137.787 1894.34 138.203 Q1896.21 138.597 1897.97 139.407 Z" fill="#000000" fill-rule="evenodd" fill-opacity="1" /><path clip-path="url(#clip780)" d="M1917.16 151.305 Q1912 151.305 1910.01 152.486 Q1908.02 153.666 1908.02 156.514 Q1908.02 158.782 1909.5 160.125 Q1911 161.444 1913.57 161.444 Q1917.11 161.444 1919.24 158.944 Q1921.4 156.421 1921.4 152.254 L1921.4 151.305 L1917.16 151.305 M1925.66 149.546 L1925.66 164.338 L1921.4 164.338 L1921.4 160.402 Q1919.94 162.763 1917.76 163.898 Q1915.59 165.009 1912.44 165.009 Q1908.46 165.009 1906.1 162.787 Q1903.76 160.541 1903.76 156.791 Q1903.76 152.416 1906.67 150.194 Q1909.61 147.972 1915.42 147.972 L1921.4 147.972 L1921.4 147.555 Q1921.4 144.615 1919.45 143.018 Q1917.53 141.398 1914.04 141.398 Q1911.81 141.398 1909.71 141.93 Q1907.6 142.463 1905.66 143.527 L1905.66 139.592 Q1907.99 138.69 1910.19 138.25 Q1912.39 137.787 1914.48 137.787 Q1920.1 137.787 1922.88 140.703 Q1925.66 143.62 1925.66 149.546 Z" fill="#000000" fill-rule="evenodd" fill-opacity="1" /><path clip-path="url(#clip780)" d="M1934.43 128.319 L1938.69 128.319 L1938.69 164.338 L1934.43 164.338 L1934.43 128.319 Z" fill="#000000" fill-rule="evenodd" fill-opacity="1" /><path clip-path="url(#clip780)" d="M1967.53 133.62 L1967.53 160.495 L1973.18 160.495 Q1980.33 160.495 1983.64 157.254 Q1986.98 154.014 1986.98 147.023 Q1986.98 140.078 1983.64 136.861 Q1980.33 133.62 1973.18 133.62 L1967.53 133.62 M1962.86 129.778 L1972.46 129.778 Q1982.51 129.778 1987.21 133.967 Q1991.91 138.134 1991.91 147.023 Q1991.91 155.958 1987.18 160.148 Q1982.46 164.338 1972.46 164.338 L1962.86 164.338 L1962.86 129.778 Z" fill="#000000" fill-rule="evenodd" fill-opacity="1" /><path clip-path="url(#clip780)" d="M1999.17 138.412 L2003.43 138.412 L2003.43 164.338 L1999.17 164.338 L1999.17 138.412 M1999.17 128.319 L2003.43 128.319 L2003.43 133.713 L1999.17 133.713 L1999.17 128.319 Z" fill="#000000" fill-rule="evenodd" fill-opacity="1" /><path clip-path="url(#clip780)" d="M2028.87 139.176 L2028.87 143.203 Q2027.07 142.277 2025.12 141.815 Q2023.18 141.352 2021.1 141.352 Q2017.92 141.352 2016.33 142.324 Q2014.75 143.296 2014.75 145.24 Q2014.75 146.722 2015.89 147.578 Q2017.02 148.412 2020.45 149.176 L2021.91 149.5 Q2026.44 150.472 2028.34 152.254 Q2030.26 154.014 2030.26 157.185 Q2030.26 160.796 2027.39 162.902 Q2024.54 165.009 2019.54 165.009 Q2017.46 165.009 2015.19 164.592 Q2012.95 164.199 2010.45 163.388 L2010.45 158.99 Q2012.81 160.217 2015.1 160.842 Q2017.39 161.444 2019.64 161.444 Q2022.65 161.444 2024.27 160.426 Q2025.89 159.384 2025.89 157.509 Q2025.89 155.773 2024.71 154.847 Q2023.55 153.921 2019.59 153.064 L2018.11 152.717 Q2014.15 151.884 2012.39 150.171 Q2010.63 148.435 2010.63 145.426 Q2010.63 141.768 2013.23 139.778 Q2015.82 137.787 2020.59 137.787 Q2022.95 137.787 2025.03 138.134 Q2027.11 138.481 2028.87 139.176 Z" fill="#000000" fill-rule="evenodd" fill-opacity="1" /><path clip-path="url(#clip780)" d="M2041.26 131.051 L2041.26 138.412 L2050.03 138.412 L2050.03 141.722 L2041.26 141.722 L2041.26 155.796 Q2041.26 158.967 2042.11 159.87 Q2042.99 160.773 2045.66 160.773 L2050.03 160.773 L2050.03 164.338 L2045.66 164.338 Q2040.73 164.338 2038.85 162.509 Q2036.98 160.657 2036.98 155.796 L2036.98 141.722 L2033.85 141.722 L2033.85 138.412 L2036.98 138.412 L2036.98 131.051 L2041.26 131.051 Z" fill="#000000" fill-rule="evenodd" fill-opacity="1" /><path clip-path="url(#clip780)" d="M2070.66 142.393 Q2069.94 141.977 2069.08 141.791 Q2068.25 141.583 2067.23 141.583 Q2063.62 141.583 2061.67 143.944 Q2059.75 146.282 2059.75 150.68 L2059.75 164.338 L2055.47 164.338 L2055.47 138.412 L2059.75 138.412 L2059.75 142.44 Q2061.1 140.078 2063.25 138.944 Q2065.4 137.787 2068.48 137.787 Q2068.92 137.787 2069.45 137.856 Q2069.98 137.903 2070.63 138.018 L2070.66 142.393 Z" fill="#000000" fill-rule="evenodd" fill-opacity="1" /><path clip-path="url(#clip780)" d="M2075.12 138.412 L2079.38 138.412 L2079.38 164.338 L2075.12 164.338 L2075.12 138.412 M2075.12 128.319 L2079.38 128.319 L2079.38 133.713 L2075.12 133.713 L2075.12 128.319 Z" fill="#000000" fill-rule="evenodd" fill-opacity="1" /><path clip-path="url(#clip780)" d="M2106.91 151.398 Q2106.91 146.699 2104.96 144.037 Q2103.04 141.352 2099.66 141.352 Q2096.28 141.352 2094.34 144.037 Q2092.41 146.699 2092.41 151.398 Q2092.41 156.097 2094.34 158.782 Q2096.28 161.444 2099.66 161.444 Q2103.04 161.444 2104.96 158.782 Q2106.91 156.097 2106.91 151.398 M2092.41 142.347 Q2093.76 140.032 2095.79 138.921 Q2097.85 137.787 2100.7 137.787 Q2105.42 137.787 2108.36 141.537 Q2111.33 145.287 2111.33 151.398 Q2111.33 157.509 2108.36 161.259 Q2105.42 165.009 2100.7 165.009 Q2097.85 165.009 2095.79 163.898 Q2093.76 162.763 2092.41 160.449 L2092.41 164.338 L2088.13 164.338 L2088.13 128.319 L2092.41 128.319 L2092.41 142.347 Z" fill="#000000" fill-rule="evenodd" fill-opacity="1" /><path clip-path="url(#clip780)" d="M2117.95 154.106 L2117.95 138.412 L2122.21 138.412 L2122.21 153.944 Q2122.21 157.625 2123.64 159.476 Q2125.08 161.305 2127.95 161.305 Q2131.4 161.305 2133.39 159.106 Q2135.4 156.907 2135.4 153.111 L2135.4 138.412 L2139.66 138.412 L2139.66 164.338 L2135.4 164.338 L2135.4 160.356 Q2133.85 162.717 2131.79 163.875 Q2129.75 165.009 2127.04 165.009 Q2122.58 165.009 2120.26 162.231 Q2117.95 159.453 2117.95 154.106 M2128.66 137.787 L2128.66 137.787 Z" fill="#000000" fill-rule="evenodd" fill-opacity="1" /><path clip-path="url(#clip780)" d="M2152.65 131.051 L2152.65 138.412 L2161.42 138.412 L2161.42 141.722 L2152.65 141.722 L2152.65 155.796 Q2152.65 158.967 2153.5 159.87 Q2154.38 160.773 2157.04 160.773 L2161.42 160.773 L2161.42 164.338 L2157.04 164.338 Q2152.11 164.338 2150.24 162.509 Q2148.36 160.657 2148.36 155.796 L2148.36 141.722 L2145.24 141.722 L2145.24 138.412 L2148.36 138.412 L2148.36 131.051 L2152.65 131.051 Z" fill="#000000" fill-rule="evenodd" fill-opacity="1" /><path clip-path="url(#clip780)" d="M2167.02 138.412 L2171.28 138.412 L2171.28 164.338 L2167.02 164.338 L2167.02 138.412 M2167.02 128.319 L2171.28 128.319 L2171.28 133.713 L2167.02 133.713 L2167.02 128.319 Z" fill="#000000" fill-rule="evenodd" fill-opacity="1" /><path clip-path="url(#clip780)" d="M2190.24 141.398 Q2186.81 141.398 2184.82 144.083 Q2182.83 146.745 2182.83 151.398 Q2182.83 156.051 2184.8 158.736 Q2186.79 161.398 2190.24 161.398 Q2193.64 161.398 2195.63 158.713 Q2197.62 156.027 2197.62 151.398 Q2197.62 146.791 2195.63 144.106 Q2193.64 141.398 2190.24 141.398 M2190.24 137.787 Q2195.79 137.787 2198.96 141.398 Q2202.14 145.009 2202.14 151.398 Q2202.14 157.764 2198.96 161.398 Q2195.79 165.009 2190.24 165.009 Q2184.66 165.009 2181.49 161.398 Q2178.34 157.764 2178.34 151.398 Q2178.34 145.009 2181.49 141.398 Q2184.66 137.787 2190.24 137.787 Z" fill="#000000" fill-rule="evenodd" fill-opacity="1" /><path clip-path="url(#clip780)" d="M2230.75 148.689 L2230.75 164.338 L2226.49 164.338 L2226.49 148.828 Q2226.49 145.148 2225.05 143.319 Q2223.62 141.49 2220.75 141.49 Q2217.3 141.49 2215.31 143.69 Q2213.32 145.889 2213.32 149.685 L2213.32 164.338 L2209.03 164.338 L2209.03 138.412 L2213.32 138.412 L2213.32 142.44 Q2214.84 140.102 2216.9 138.944 Q2218.99 137.787 2221.7 137.787 Q2226.16 137.787 2228.46 140.565 Q2230.75 143.319 2230.75 148.689 Z" fill="#000000" fill-rule="evenodd" fill-opacity="1" /><polyline clip-path="url(#clip780)" style="stroke:#000000; stroke-linecap:butt; stroke-linejoin:round; stroke-width:4; stroke-opacity:1; fill:none" stroke-dasharray="16, 10" points="
  1556.63,198.898 1703.04,198.898 
  "/>
<path clip-path="url(#clip780)" d="M1727.44 181.618 L1733.74 181.618 L1749.06 210.529 L1749.06 181.618 L1753.6 181.618 L1753.6 216.178 L1747.3 216.178 L1731.98 187.266 L1731.98 216.178 L1727.44 216.178 L1727.44 181.618 Z" fill="#000000" fill-rule="evenodd" fill-opacity="1" /><path clip-path="url(#clip780)" d="M1772.76 193.238 Q1769.34 193.238 1767.35 195.923 Q1765.36 198.585 1765.36 203.238 Q1765.36 207.891 1767.32 210.576 Q1769.31 213.238 1772.76 213.238 Q1776.17 213.238 1778.16 210.553 Q1780.15 207.867 1780.15 203.238 Q1780.15 198.631 1778.16 195.946 Q1776.17 193.238 1772.76 193.238 M1772.76 189.627 Q1778.32 189.627 1781.49 193.238 Q1784.66 196.849 1784.66 203.238 Q1784.66 209.604 1781.49 213.238 Q1778.32 216.849 1772.76 216.849 Q1767.18 216.849 1764.01 213.238 Q1760.87 209.604 1760.87 203.238 Q1760.87 196.849 1764.01 193.238 Q1767.18 189.627 1772.76 189.627 Z" fill="#000000" fill-rule="evenodd" fill-opacity="1" /><path clip-path="url(#clip780)" d="M1806.74 194.233 Q1806.03 193.817 1805.17 193.631 Q1804.34 193.423 1803.32 193.423 Q1799.71 193.423 1797.76 195.784 Q1795.84 198.122 1795.84 202.52 L1795.84 216.178 L1791.56 216.178 L1791.56 190.252 L1795.84 190.252 L1795.84 194.28 Q1797.18 191.918 1799.34 190.784 Q1801.49 189.627 1804.57 189.627 Q1805.01 189.627 1805.54 189.696 Q1806.07 189.743 1806.72 189.858 L1806.74 194.233 Z" fill="#000000" fill-rule="evenodd" fill-opacity="1" /><path clip-path="url(#clip780)" d="M1830.56 195.229 Q1832.16 192.358 1834.38 190.993 Q1836.61 189.627 1839.61 189.627 Q1843.67 189.627 1845.86 192.474 Q1848.06 195.298 1848.06 200.529 L1848.06 216.178 L1843.78 216.178 L1843.78 200.668 Q1843.78 196.942 1842.46 195.136 Q1841.14 193.33 1838.43 193.33 Q1835.12 193.33 1833.2 195.53 Q1831.28 197.729 1831.28 201.525 L1831.28 216.178 L1827 216.178 L1827 200.668 Q1827 196.918 1825.68 195.136 Q1824.36 193.33 1821.61 193.33 Q1818.34 193.33 1816.42 195.553 Q1814.5 197.752 1814.5 201.525 L1814.5 216.178 L1810.22 216.178 L1810.22 190.252 L1814.5 190.252 L1814.5 194.28 Q1815.96 191.895 1817.99 190.761 Q1820.03 189.627 1822.83 189.627 Q1825.66 189.627 1827.62 191.062 Q1829.62 192.497 1830.56 195.229 Z" fill="#000000" fill-rule="evenodd" fill-opacity="1" /><path clip-path="url(#clip780)" d="M1868.34 203.145 Q1863.18 203.145 1861.19 204.326 Q1859.2 205.506 1859.2 208.354 Q1859.2 210.622 1860.68 211.965 Q1862.18 213.284 1864.75 213.284 Q1868.3 213.284 1870.43 210.784 Q1872.58 208.261 1872.58 204.094 L1872.58 203.145 L1868.34 203.145 M1876.84 201.386 L1876.84 216.178 L1872.58 216.178 L1872.58 212.242 Q1871.12 214.603 1868.94 215.738 Q1866.77 216.849 1863.62 216.849 Q1859.64 216.849 1857.28 214.627 Q1854.94 212.381 1854.94 208.631 Q1854.94 204.256 1857.86 202.034 Q1860.8 199.812 1866.61 199.812 L1872.58 199.812 L1872.58 199.395 Q1872.58 196.455 1870.63 194.858 Q1868.71 193.238 1865.22 193.238 Q1862.99 193.238 1860.89 193.77 Q1858.78 194.303 1856.84 195.367 L1856.84 191.432 Q1859.18 190.53 1861.37 190.09 Q1863.57 189.627 1865.66 189.627 Q1871.28 189.627 1874.06 192.543 Q1876.84 195.46 1876.84 201.386 Z" fill="#000000" fill-rule="evenodd" fill-opacity="1" /><path clip-path="url(#clip780)" d="M1885.61 180.159 L1889.87 180.159 L1889.87 216.178 L1885.61 216.178 L1885.61 180.159 Z" fill="#000000" fill-rule="evenodd" fill-opacity="1" /><path clip-path="url(#clip780)" d="M1909.01 180.206 Q1905.91 185.53 1904.41 190.738 Q1902.9 195.946 1902.9 201.293 Q1902.9 206.641 1904.41 211.895 Q1905.93 217.127 1909.01 222.428 L1905.31 222.428 Q1901.84 216.988 1900.1 211.733 Q1898.39 206.479 1898.39 201.293 Q1898.39 196.131 1900.1 190.9 Q1901.81 185.668 1905.31 180.206 L1909.01 180.206 Z" fill="#000000" fill-rule="evenodd" fill-opacity="1" /><path clip-path="url(#clip780)" d="M1927.88 184.696 Q1924.27 184.696 1922.44 188.261 Q1920.63 191.803 1920.63 198.932 Q1920.63 206.039 1922.44 209.604 Q1924.27 213.145 1927.88 213.145 Q1931.51 213.145 1933.32 209.604 Q1935.15 206.039 1935.15 198.932 Q1935.15 191.803 1933.32 188.261 Q1931.51 184.696 1927.88 184.696 M1927.88 180.993 Q1933.69 180.993 1936.74 185.599 Q1939.82 190.182 1939.82 198.932 Q1939.82 207.659 1936.74 212.266 Q1933.69 216.849 1927.88 216.849 Q1922.07 216.849 1918.99 212.266 Q1915.93 207.659 1915.93 198.932 Q1915.93 190.182 1918.99 185.599 Q1922.07 180.993 1927.88 180.993 Z" fill="#000000" fill-rule="evenodd" fill-opacity="1" /><path clip-path="url(#clip780)" d="M1948.04 210.298 L1952.92 210.298 L1952.92 216.178 L1948.04 216.178 L1948.04 210.298 Z" fill="#000000" fill-rule="evenodd" fill-opacity="1" /><path clip-path="url(#clip780)" d="M1973.11 184.696 Q1969.5 184.696 1967.67 188.261 Q1965.86 191.803 1965.86 198.932 Q1965.86 206.039 1967.67 209.604 Q1969.5 213.145 1973.11 213.145 Q1976.74 213.145 1978.55 209.604 Q1980.38 206.039 1980.38 198.932 Q1980.38 191.803 1978.55 188.261 Q1976.74 184.696 1973.11 184.696 M1973.11 180.993 Q1978.92 180.993 1981.98 185.599 Q1985.05 190.182 1985.05 198.932 Q1985.05 207.659 1981.98 212.266 Q1978.92 216.849 1973.11 216.849 Q1967.3 216.849 1964.22 212.266 Q1961.17 207.659 1961.17 198.932 Q1961.17 190.182 1964.22 185.599 Q1967.3 180.993 1973.11 180.993 Z" fill="#000000" fill-rule="evenodd" fill-opacity="1" /><path clip-path="url(#clip780)" d="M2003.27 184.696 Q1999.66 184.696 1997.83 188.261 Q1996.03 191.803 1996.03 198.932 Q1996.03 206.039 1997.83 209.604 Q1999.66 213.145 2003.27 213.145 Q2006.91 213.145 2008.71 209.604 Q2010.54 206.039 2010.54 198.932 Q2010.54 191.803 2008.71 188.261 Q2006.91 184.696 2003.27 184.696 M2003.27 180.993 Q2009.08 180.993 2012.14 185.599 Q2015.22 190.182 2015.22 198.932 Q2015.22 207.659 2012.14 212.266 Q2009.08 216.849 2003.27 216.849 Q1997.46 216.849 1994.38 212.266 Q1991.33 207.659 1991.33 198.932 Q1991.33 190.182 1994.38 185.599 Q1997.46 180.993 2003.27 180.993 Z" fill="#000000" fill-rule="evenodd" fill-opacity="1" /><path clip-path="url(#clip780)" d="M2023.92 210.298 L2028.8 210.298 L2028.8 214.279 L2025.01 221.687 L2022.02 221.687 L2023.92 214.279 L2023.92 210.298 Z" fill="#000000" fill-rule="evenodd" fill-opacity="1" /><path clip-path="url(#clip780)" d="M2063.57 184.696 Q2059.96 184.696 2058.13 188.261 Q2056.33 191.803 2056.33 198.932 Q2056.33 206.039 2058.13 209.604 Q2059.96 213.145 2063.57 213.145 Q2067.21 213.145 2069.01 209.604 Q2070.84 206.039 2070.84 198.932 Q2070.84 191.803 2069.01 188.261 Q2067.21 184.696 2063.57 184.696 M2063.57 180.993 Q2069.38 180.993 2072.44 185.599 Q2075.52 190.182 2075.52 198.932 Q2075.52 207.659 2072.44 212.266 Q2069.38 216.849 2063.57 216.849 Q2057.76 216.849 2054.68 212.266 Q2051.63 207.659 2051.63 198.932 Q2051.63 190.182 2054.68 185.599 Q2057.76 180.993 2063.57 180.993 Z" fill="#000000" fill-rule="evenodd" fill-opacity="1" /><path clip-path="url(#clip780)" d="M2083.73 210.298 L2088.62 210.298 L2088.62 216.178 L2083.73 216.178 L2083.73 210.298 Z" fill="#000000" fill-rule="evenodd" fill-opacity="1" /><path clip-path="url(#clip780)" d="M2102.83 212.242 L2119.15 212.242 L2119.15 216.178 L2097.21 216.178 L2097.21 212.242 Q2099.87 209.488 2104.45 204.858 Q2109.06 200.205 2110.24 198.863 Q2112.48 196.34 2113.36 194.604 Q2114.27 192.844 2114.27 191.155 Q2114.27 188.4 2112.32 186.664 Q2110.4 184.928 2107.3 184.928 Q2105.1 184.928 2102.65 185.692 Q2100.22 186.455 2097.44 188.006 L2097.44 183.284 Q2100.26 182.15 2102.72 181.571 Q2105.17 180.993 2107.21 180.993 Q2112.58 180.993 2115.77 183.678 Q2118.97 186.363 2118.97 190.854 Q2118.97 192.983 2118.16 194.905 Q2117.37 196.803 2115.26 199.395 Q2114.68 200.067 2111.58 203.284 Q2108.48 206.479 2102.83 212.242 Z" fill="#000000" fill-rule="evenodd" fill-opacity="1" /><path clip-path="url(#clip780)" d="M2129.01 181.618 L2147.37 181.618 L2147.37 185.553 L2133.29 185.553 L2133.29 194.025 Q2134.31 193.678 2135.33 193.516 Q2136.35 193.33 2137.37 193.33 Q2143.16 193.33 2146.53 196.502 Q2149.91 199.673 2149.91 205.09 Q2149.91 210.668 2146.44 213.77 Q2142.97 216.849 2136.65 216.849 Q2134.47 216.849 2132.21 216.478 Q2129.96 216.108 2127.55 215.367 L2127.55 210.668 Q2129.64 211.803 2131.86 212.358 Q2134.08 212.914 2136.56 212.914 Q2140.56 212.914 2142.9 210.807 Q2145.24 208.701 2145.24 205.09 Q2145.24 201.479 2142.9 199.372 Q2140.56 197.266 2136.56 197.266 Q2134.68 197.266 2132.81 197.682 Q2130.96 198.099 2129.01 198.979 L2129.01 181.618 Z" fill="#000000" fill-rule="evenodd" fill-opacity="1" /><path clip-path="url(#clip780)" d="M2157.85 180.206 L2161.56 180.206 Q2165.03 185.668 2166.74 190.9 Q2168.48 196.131 2168.48 201.293 Q2168.48 206.479 2166.74 211.733 Q2165.03 216.988 2161.56 222.428 L2157.85 222.428 Q2160.93 217.127 2162.44 211.895 Q2163.97 206.641 2163.97 201.293 Q2163.97 195.946 2162.44 190.738 Q2160.93 185.53 2157.85 180.206 Z" fill="#000000" fill-rule="evenodd" fill-opacity="1" /></svg>
