<?xml version="1.0" encoding="utf-8"?>
<svg xmlns="http://www.w3.org/2000/svg" xmlns:xlink="http://www.w3.org/1999/xlink" width="600" height="400" viewBox="0 0 2400 1600">
<defs>
  <clipPath id="clip400">
    <rect x="0" y="0" width="2400" height="1600"/>
  </clipPath>
</defs>
<path clip-path="url(#clip400)" d="
M0 1600 L2400 1600 L2400 0 L0 0  Z
  " fill="#ffffff" fill-rule="evenodd" fill-opacity="1"/>
<defs>
  <clipPath id="clip401">
    <rect x="480" y="0" width="1681" height="1600"/>
  </clipPath>
</defs>
<path clip-path="url(#clip400)" d="
M156.598 1486.45 L2352.76 1486.45 L2352.76 47.2441 L156.598 47.2441  Z
  " fill="#ffffff" fill-rule="evenodd" fill-opacity="1"/>
<defs>
  <clipPath id="clip402">
    <rect x="156" y="47" width="2197" height="1440"/>
  </clipPath>
</defs>
<polyline clip-path="url(#clip402)" style="stroke:#000000; stroke-linecap:butt; stroke-linejoin:round; stroke-width:2; stroke-opacity:0.1; fill:none" points="
  220.068,1486.45 220.068,47.2441 
  "/>
<polyline clip-path="url(#clip402)" style="stroke:#000000; stroke-linecap:butt; stroke-linejoin:round; stroke-width:2; stroke-opacity:0.1; fill:none" points="
  582.614,1486.45 582.614,47.2441 
  "/>
<polyline clip-path="url(#clip402)" style="stroke:#000000; stroke-linecap:butt; stroke-linejoin:round; stroke-width:2; stroke-opacity:0.1; fill:none" points="
  945.16,1486.45 945.16,47.2441 
  "/>
<polyline clip-path="url(#clip402)" style="stroke:#000000; stroke-linecap:butt; stroke-linejoin:round; stroke-width:2; stroke-opacity:0.1; fill:none" points="
  1307.71,1486.45 1307.71,47.2441 
  "/>
<polyline clip-path="url(#clip402)" style="stroke:#000000; stroke-linecap:butt; stroke-linejoin:round; stroke-width:2; stroke-opacity:0.1; fill:none" points="
  1670.25,1486.45 1670.25,47.2441 
  "/>
<polyline clip-path="url(#clip402)" style="stroke:#000000; stroke-linecap:butt; stroke-linejoin:round; stroke-width:2; stroke-opacity:0.1; fill:none" points="
  2032.8,1486.45 2032.8,47.2441 
  "/>
<polyline clip-path="url(#clip400)" style="stroke:#000000; stroke-linecap:butt; stroke-linejoin:round; stroke-width:4; stroke-opacity:1; fill:none" points="
  156.598,1486.45 2352.76,1486.45 
  "/>
<polyline clip-path="url(#clip400)" style="stroke:#000000; stroke-linecap:butt; stroke-linejoin:round; stroke-width:4; stroke-opacity:1; fill:none" points="
  220.068,1486.45 220.068,1467.55 
  "/>
<polyline clip-path="url(#clip400)" style="stroke:#000000; stroke-linecap:butt; stroke-linejoin:round; stroke-width:4; stroke-opacity:1; fill:none" points="
  582.614,1486.45 582.614,1467.55 
  "/>
<polyline clip-path="url(#clip400)" style="stroke:#000000; stroke-linecap:butt; stroke-linejoin:round; stroke-width:4; stroke-opacity:1; fill:none" points="
  945.16,1486.45 945.16,1467.55 
  "/>
<polyline clip-path="url(#clip400)" style="stroke:#000000; stroke-linecap:butt; stroke-linejoin:round; stroke-width:4; stroke-opacity:1; fill:none" points="
  1307.71,1486.45 1307.71,1467.55 
  "/>
<polyline clip-path="url(#clip400)" style="stroke:#000000; stroke-linecap:butt; stroke-linejoin:round; stroke-width:4; stroke-opacity:1; fill:none" points="
  1670.25,1486.45 1670.25,1467.55 
  "/>
<polyline clip-path="url(#clip400)" style="stroke:#000000; stroke-linecap:butt; stroke-linejoin:round; stroke-width:4; stroke-opacity:1; fill:none" points="
  2032.8,1486.45 2032.8,1467.55 
  "/>
<path clip-path="url(#clip400)" d="M167.094 1532.02 L196.77 1532.02 L196.77 1535.95 L167.094 1535.95 L167.094 1532.02 Z" fill="#000000" fill-rule="evenodd" fill-opacity="1" /><path clip-path="url(#clip400)" d="M207.673 1544.91 L215.312 1544.91 L215.312 1518.55 L207.001 1520.21 L207.001 1515.95 L215.265 1514.29 L219.941 1514.29 L219.941 1544.91 L227.58 1544.91 L227.58 1548.85 L207.673 1548.85 L207.673 1544.91 Z" fill="#000000" fill-rule="evenodd" fill-opacity="1" /><path clip-path="url(#clip400)" d="M237.024 1542.97 L241.909 1542.97 L241.909 1548.85 L237.024 1548.85 L237.024 1542.97 Z" fill="#000000" fill-rule="evenodd" fill-opacity="1" /><path clip-path="url(#clip400)" d="M252.14 1514.29 L270.496 1514.29 L270.496 1518.22 L256.422 1518.22 L256.422 1526.7 Q257.441 1526.35 258.459 1526.19 Q259.478 1526 260.496 1526 Q266.283 1526 269.663 1529.17 Q273.043 1532.34 273.043 1537.76 Q273.043 1543.34 269.571 1546.44 Q266.098 1549.52 259.779 1549.52 Q257.603 1549.52 255.334 1549.15 Q253.089 1548.78 250.682 1548.04 L250.682 1543.34 Q252.765 1544.47 254.987 1545.03 Q257.209 1545.58 259.686 1545.58 Q263.691 1545.58 266.029 1543.48 Q268.367 1541.37 268.367 1537.76 Q268.367 1534.15 266.029 1532.04 Q263.691 1529.94 259.686 1529.94 Q257.811 1529.94 255.936 1530.35 Q254.084 1530.77 252.14 1531.65 L252.14 1514.29 Z" fill="#000000" fill-rule="evenodd" fill-opacity="1" /><path clip-path="url(#clip400)" d="M529.142 1532.02 L558.818 1532.02 L558.818 1535.95 L529.142 1535.95 L529.142 1532.02 Z" fill="#000000" fill-rule="evenodd" fill-opacity="1" /><path clip-path="url(#clip400)" d="M569.721 1544.91 L577.36 1544.91 L577.36 1518.55 L569.05 1520.21 L569.05 1515.95 L577.313 1514.29 L581.989 1514.29 L581.989 1544.91 L589.628 1544.91 L589.628 1548.85 L569.721 1548.85 L569.721 1544.91 Z" fill="#000000" fill-rule="evenodd" fill-opacity="1" /><path clip-path="url(#clip400)" d="M599.073 1542.97 L603.957 1542.97 L603.957 1548.85 L599.073 1548.85 L599.073 1542.97 Z" fill="#000000" fill-rule="evenodd" fill-opacity="1" /><path clip-path="url(#clip400)" d="M624.142 1517.37 Q620.531 1517.37 618.702 1520.93 Q616.897 1524.47 616.897 1531.6 Q616.897 1538.71 618.702 1542.27 Q620.531 1545.82 624.142 1545.82 Q627.776 1545.82 629.582 1542.27 Q631.41 1538.71 631.41 1531.6 Q631.41 1524.47 629.582 1520.93 Q627.776 1517.37 624.142 1517.37 M624.142 1513.66 Q629.952 1513.66 633.008 1518.27 Q636.086 1522.85 636.086 1531.6 Q636.086 1540.33 633.008 1544.94 Q629.952 1549.52 624.142 1549.52 Q618.332 1549.52 615.253 1544.94 Q612.198 1540.33 612.198 1531.6 Q612.198 1522.85 615.253 1518.27 Q618.332 1513.66 624.142 1513.66 Z" fill="#000000" fill-rule="evenodd" fill-opacity="1" /><path clip-path="url(#clip400)" d="M892.186 1532.02 L921.862 1532.02 L921.862 1535.95 L892.186 1535.95 L892.186 1532.02 Z" fill="#000000" fill-rule="evenodd" fill-opacity="1" /><path clip-path="url(#clip400)" d="M941.954 1517.37 Q938.343 1517.37 936.514 1520.93 Q934.709 1524.47 934.709 1531.6 Q934.709 1538.71 936.514 1542.27 Q938.343 1545.82 941.954 1545.82 Q945.588 1545.82 947.394 1542.27 Q949.223 1538.71 949.223 1531.6 Q949.223 1524.47 947.394 1520.93 Q945.588 1517.37 941.954 1517.37 M941.954 1513.66 Q947.764 1513.66 950.82 1518.27 Q953.899 1522.85 953.899 1531.6 Q953.899 1540.33 950.82 1544.94 Q947.764 1549.52 941.954 1549.52 Q936.144 1549.52 933.065 1544.94 Q930.01 1540.33 930.01 1531.6 Q930.01 1522.85 933.065 1518.27 Q936.144 1513.66 941.954 1513.66 Z" fill="#000000" fill-rule="evenodd" fill-opacity="1" /><path clip-path="url(#clip400)" d="M962.116 1542.97 L967 1542.97 L967 1548.85 L962.116 1548.85 L962.116 1542.97 Z" fill="#000000" fill-rule="evenodd" fill-opacity="1" /><path clip-path="url(#clip400)" d="M977.232 1514.29 L995.588 1514.29 L995.588 1518.22 L981.514 1518.22 L981.514 1526.7 Q982.533 1526.35 983.551 1526.19 Q984.57 1526 985.588 1526 Q991.375 1526 994.755 1529.17 Q998.134 1532.34 998.134 1537.76 Q998.134 1543.34 994.662 1546.44 Q991.19 1549.52 984.871 1549.52 Q982.695 1549.52 980.426 1549.15 Q978.181 1548.78 975.773 1548.04 L975.773 1543.34 Q977.857 1544.47 980.079 1545.03 Q982.301 1545.58 984.778 1545.58 Q988.783 1545.58 991.121 1543.48 Q993.459 1541.37 993.459 1537.76 Q993.459 1534.15 991.121 1532.04 Q988.783 1529.94 984.778 1529.94 Q982.903 1529.94 981.028 1530.35 Q979.176 1530.77 977.232 1531.65 L977.232 1514.29 Z" fill="#000000" fill-rule="evenodd" fill-opacity="1" /><path clip-path="url(#clip400)" d="M1285.09 1517.37 Q1281.48 1517.37 1279.65 1520.93 Q1277.85 1524.47 1277.85 1531.6 Q1277.85 1538.71 1279.65 1542.27 Q1281.48 1545.82 1285.09 1545.82 Q1288.72 1545.82 1290.53 1542.27 Q1292.36 1538.71 1292.36 1531.6 Q1292.36 1524.47 1290.53 1520.93 Q1288.72 1517.37 1285.09 1517.37 M1285.09 1513.66 Q1290.9 1513.66 1293.96 1518.27 Q1297.03 1522.85 1297.03 1531.6 Q1297.03 1540.33 1293.96 1544.94 Q1290.9 1549.52 1285.09 1549.52 Q1279.28 1549.52 1276.2 1544.94 Q1273.15 1540.33 1273.15 1531.6 Q1273.15 1522.85 1276.2 1518.27 Q1279.28 1513.66 1285.09 1513.66 Z" fill="#000000" fill-rule="evenodd" fill-opacity="1" /><path clip-path="url(#clip400)" d="M1305.25 1542.97 L1310.14 1542.97 L1310.14 1548.85 L1305.25 1548.85 L1305.25 1542.97 Z" fill="#000000" fill-rule="evenodd" fill-opacity="1" /><path clip-path="url(#clip400)" d="M1330.32 1517.37 Q1326.71 1517.37 1324.88 1520.93 Q1323.08 1524.47 1323.08 1531.6 Q1323.08 1538.71 1324.88 1542.27 Q1326.71 1545.82 1330.32 1545.82 Q1333.96 1545.82 1335.76 1542.27 Q1337.59 1538.71 1337.59 1531.6 Q1337.59 1524.47 1335.76 1520.93 Q1333.96 1517.37 1330.32 1517.37 M1330.32 1513.66 Q1336.13 1513.66 1339.19 1518.27 Q1342.27 1522.85 1342.27 1531.6 Q1342.27 1540.33 1339.19 1544.94 Q1336.13 1549.52 1330.32 1549.52 Q1324.51 1549.52 1321.43 1544.94 Q1318.38 1540.33 1318.38 1531.6 Q1318.38 1522.85 1321.43 1518.27 Q1324.51 1513.66 1330.32 1513.66 Z" fill="#000000" fill-rule="evenodd" fill-opacity="1" /><path clip-path="url(#clip400)" d="M1648.13 1517.37 Q1644.52 1517.37 1642.69 1520.93 Q1640.89 1524.47 1640.89 1531.6 Q1640.89 1538.71 1642.69 1542.27 Q1644.52 1545.82 1648.13 1545.82 Q1651.77 1545.82 1653.57 1542.27 Q1655.4 1538.71 1655.4 1531.6 Q1655.4 1524.47 1653.57 1520.93 Q1651.77 1517.37 1648.13 1517.37 M1648.13 1513.66 Q1653.94 1513.66 1657 1518.27 Q1660.08 1522.85 1660.08 1531.6 Q1660.08 1540.33 1657 1544.94 Q1653.94 1549.52 1648.13 1549.52 Q1642.32 1549.52 1639.25 1544.94 Q1636.19 1540.33 1636.19 1531.6 Q1636.19 1522.85 1639.25 1518.27 Q1642.32 1513.66 1648.13 1513.66 Z" fill="#000000" fill-rule="evenodd" fill-opacity="1" /><path clip-path="url(#clip400)" d="M1668.3 1542.97 L1673.18 1542.97 L1673.18 1548.85 L1668.3 1548.85 L1668.3 1542.97 Z" fill="#000000" fill-rule="evenodd" fill-opacity="1" /><path clip-path="url(#clip400)" d="M1683.41 1514.29 L1701.77 1514.29 L1701.77 1518.22 L1687.69 1518.22 L1687.69 1526.7 Q1688.71 1526.35 1689.73 1526.19 Q1690.75 1526 1691.77 1526 Q1697.56 1526 1700.93 1529.17 Q1704.31 1532.34 1704.31 1537.76 Q1704.31 1543.34 1700.84 1546.44 Q1697.37 1549.52 1691.05 1549.52 Q1688.87 1549.52 1686.61 1549.15 Q1684.36 1548.78 1681.95 1548.04 L1681.95 1543.34 Q1684.04 1544.47 1686.26 1545.03 Q1688.48 1545.58 1690.96 1545.58 Q1694.96 1545.58 1697.3 1543.48 Q1699.64 1541.37 1699.64 1537.76 Q1699.64 1534.15 1697.3 1532.04 Q1694.96 1529.94 1690.96 1529.94 Q1689.08 1529.94 1687.21 1530.35 Q1685.36 1530.77 1683.41 1531.65 L1683.41 1514.29 Z" fill="#000000" fill-rule="evenodd" fill-opacity="1" /><path clip-path="url(#clip400)" d="M1999.95 1544.91 L2007.59 1544.91 L2007.59 1518.55 L1999.28 1520.21 L1999.28 1515.95 L2007.54 1514.29 L2012.22 1514.29 L2012.22 1544.91 L2019.86 1544.91 L2019.86 1548.85 L1999.95 1548.85 L1999.95 1544.91 Z" fill="#000000" fill-rule="evenodd" fill-opacity="1" /><path clip-path="url(#clip400)" d="M2029.3 1542.97 L2034.19 1542.97 L2034.19 1548.85 L2029.3 1548.85 L2029.3 1542.97 Z" fill="#000000" fill-rule="evenodd" fill-opacity="1" /><path clip-path="url(#clip400)" d="M2054.37 1517.37 Q2050.76 1517.37 2048.93 1520.93 Q2047.13 1524.47 2047.13 1531.6 Q2047.13 1538.71 2048.93 1542.27 Q2050.76 1545.82 2054.37 1545.82 Q2058.01 1545.82 2059.81 1542.27 Q2061.64 1538.71 2061.64 1531.6 Q2061.64 1524.47 2059.81 1520.93 Q2058.01 1517.37 2054.37 1517.37 M2054.37 1513.66 Q2060.18 1513.66 2063.24 1518.27 Q2066.32 1522.85 2066.32 1531.6 Q2066.32 1540.33 2063.24 1544.94 Q2060.18 1549.52 2054.37 1549.52 Q2048.56 1549.52 2045.48 1544.94 Q2042.43 1540.33 2042.43 1531.6 Q2042.43 1522.85 2045.48 1518.27 Q2048.56 1513.66 2054.37 1513.66 Z" fill="#000000" fill-rule="evenodd" fill-opacity="1" /><polyline clip-path="url(#clip402)" style="stroke:#000000; stroke-linecap:butt; stroke-linejoin:round; stroke-width:2; stroke-opacity:0.1; fill:none" points="
  156.598,1445.72 2352.76,1445.72 
  "/>
<polyline clip-path="url(#clip402)" style="stroke:#000000; stroke-linecap:butt; stroke-linejoin:round; stroke-width:2; stroke-opacity:0.1; fill:none" points="
  156.598,1227.43 2352.76,1227.43 
  "/>
<polyline clip-path="url(#clip402)" style="stroke:#000000; stroke-linecap:butt; stroke-linejoin:round; stroke-width:2; stroke-opacity:0.1; fill:none" points="
  156.598,1009.15 2352.76,1009.15 
  "/>
<polyline clip-path="url(#clip402)" style="stroke:#000000; stroke-linecap:butt; stroke-linejoin:round; stroke-width:2; stroke-opacity:0.1; fill:none" points="
  156.598,790.861 2352.76,790.861 
  "/>
<polyline clip-path="url(#clip402)" style="stroke:#000000; stroke-linecap:butt; stroke-linejoin:round; stroke-width:2; stroke-opacity:0.1; fill:none" points="
  156.598,572.576 2352.76,572.576 
  "/>
<polyline clip-path="url(#clip402)" style="stroke:#000000; stroke-linecap:butt; stroke-linejoin:round; stroke-width:2; stroke-opacity:0.1; fill:none" points="
  156.598,354.291 2352.76,354.291 
  "/>
<polyline clip-path="url(#clip402)" style="stroke:#000000; stroke-linecap:butt; stroke-linejoin:round; stroke-width:2; stroke-opacity:0.1; fill:none" points="
  156.598,136.006 2352.76,136.006 
  "/>
<polyline clip-path="url(#clip400)" style="stroke:#000000; stroke-linecap:butt; stroke-linejoin:round; stroke-width:4; stroke-opacity:1; fill:none" points="
  156.598,1486.45 156.598,47.2441 
  "/>
<polyline clip-path="url(#clip400)" style="stroke:#000000; stroke-linecap:butt; stroke-linejoin:round; stroke-width:4; stroke-opacity:1; fill:none" points="
  156.598,1445.72 175.496,1445.72 
  "/>
<polyline clip-path="url(#clip400)" style="stroke:#000000; stroke-linecap:butt; stroke-linejoin:round; stroke-width:4; stroke-opacity:1; fill:none" points="
  156.598,1227.43 175.496,1227.43 
  "/>
<polyline clip-path="url(#clip400)" style="stroke:#000000; stroke-linecap:butt; stroke-linejoin:round; stroke-width:4; stroke-opacity:1; fill:none" points="
  156.598,1009.15 175.496,1009.15 
  "/>
<polyline clip-path="url(#clip400)" style="stroke:#000000; stroke-linecap:butt; stroke-linejoin:round; stroke-width:4; stroke-opacity:1; fill:none" points="
  156.598,790.861 175.496,790.861 
  "/>
<polyline clip-path="url(#clip400)" style="stroke:#000000; stroke-linecap:butt; stroke-linejoin:round; stroke-width:4; stroke-opacity:1; fill:none" points="
  156.598,572.576 175.496,572.576 
  "/>
<polyline clip-path="url(#clip400)" style="stroke:#000000; stroke-linecap:butt; stroke-linejoin:round; stroke-width:4; stroke-opacity:1; fill:none" points="
  156.598,354.291 175.496,354.291 
  "/>
<polyline clip-path="url(#clip400)" style="stroke:#000000; stroke-linecap:butt; stroke-linejoin:round; stroke-width:4; stroke-opacity:1; fill:none" points="
  156.598,136.006 175.496,136.006 
  "/>
<path clip-path="url(#clip400)" d="M63.4226 1431.51 Q59.8115 1431.51 57.9828 1435.08 Q56.1773 1438.62 56.1773 1445.75 Q56.1773 1452.86 57.9828 1456.42 Q59.8115 1459.96 63.4226 1459.96 Q67.0569 1459.96 68.8624 1456.42 Q70.6911 1452.86 70.6911 1445.75 Q70.6911 1438.62 68.8624 1435.08 Q67.0569 1431.51 63.4226 1431.51 M63.4226 1427.81 Q69.2328 1427.81 72.2883 1432.42 Q75.367 1437 75.367 1445.75 Q75.367 1454.48 72.2883 1459.08 Q69.2328 1463.67 63.4226 1463.67 Q57.6125 1463.67 54.5338 1459.08 Q51.4782 1454.48 51.4782 1445.75 Q51.4782 1437 54.5338 1432.42 Q57.6125 1427.81 63.4226 1427.81 Z" fill="#000000" fill-rule="evenodd" fill-opacity="1" /><path clip-path="url(#clip400)" d="M83.5845 1457.12 L88.4688 1457.12 L88.4688 1463 L83.5845 1463 L83.5845 1457.12 Z" fill="#000000" fill-rule="evenodd" fill-opacity="1" /><path clip-path="url(#clip400)" d="M108.654 1431.51 Q105.043 1431.51 103.214 1435.08 Q101.409 1438.62 101.409 1445.75 Q101.409 1452.86 103.214 1456.42 Q105.043 1459.96 108.654 1459.96 Q112.288 1459.96 114.094 1456.42 Q115.922 1452.86 115.922 1445.75 Q115.922 1438.62 114.094 1435.08 Q112.288 1431.51 108.654 1431.51 M108.654 1427.81 Q114.464 1427.81 117.52 1432.42 Q120.598 1437 120.598 1445.75 Q120.598 1454.48 117.52 1459.08 Q114.464 1463.67 108.654 1463.67 Q102.844 1463.67 99.765 1459.08 Q96.7095 1454.48 96.7095 1445.75 Q96.7095 1437 99.765 1432.42 Q102.844 1427.81 108.654 1427.81 Z" fill="#000000" fill-rule="evenodd" fill-opacity="1" /><path clip-path="url(#clip400)" d="M65.0198 1213.23 Q61.4087 1213.23 59.58 1216.79 Q57.7745 1220.34 57.7745 1227.47 Q57.7745 1234.57 59.58 1238.14 Q61.4087 1241.68 65.0198 1241.68 Q68.6541 1241.68 70.4596 1238.14 Q72.2883 1234.57 72.2883 1227.47 Q72.2883 1220.34 70.4596 1216.79 Q68.6541 1213.23 65.0198 1213.23 M65.0198 1209.53 Q70.83 1209.53 73.8855 1214.13 Q76.9642 1218.72 76.9642 1227.47 Q76.9642 1236.19 73.8855 1240.8 Q70.83 1245.38 65.0198 1245.38 Q59.2097 1245.38 56.131 1240.8 Q53.0754 1236.19 53.0754 1227.47 Q53.0754 1218.72 56.131 1214.13 Q59.2097 1209.53 65.0198 1209.53 Z" fill="#000000" fill-rule="evenodd" fill-opacity="1" /><path clip-path="url(#clip400)" d="M85.1818 1238.83 L90.066 1238.83 L90.066 1244.71 L85.1818 1244.71 L85.1818 1238.83 Z" fill="#000000" fill-rule="evenodd" fill-opacity="1" /><path clip-path="url(#clip400)" d="M104.279 1240.78 L120.598 1240.78 L120.598 1244.71 L98.6539 1244.71 L98.6539 1240.78 Q101.316 1238.02 105.899 1233.39 Q110.506 1228.74 111.686 1227.4 Q113.932 1224.87 114.811 1223.14 Q115.714 1221.38 115.714 1219.69 Q115.714 1216.93 113.77 1215.2 Q111.848 1213.46 108.746 1213.46 Q106.547 1213.46 104.094 1214.23 Q101.663 1214.99 98.8854 1216.54 L98.8854 1211.82 Q101.709 1210.68 104.163 1210.1 Q106.617 1209.53 108.654 1209.53 Q114.024 1209.53 117.219 1212.21 Q120.413 1214.9 120.413 1219.39 Q120.413 1221.52 119.603 1223.44 Q118.816 1225.34 116.709 1227.93 Q116.131 1228.6 113.029 1231.82 Q109.927 1235.01 104.279 1240.78 Z" fill="#000000" fill-rule="evenodd" fill-opacity="1" /><path clip-path="url(#clip400)" d="M62.9365 994.945 Q59.3254 994.945 57.4967 998.51 Q55.6912 1002.05 55.6912 1009.18 Q55.6912 1016.29 57.4967 1019.85 Q59.3254 1023.39 62.9365 1023.39 Q66.5707 1023.39 68.3763 1019.85 Q70.205 1016.29 70.205 1009.18 Q70.205 1002.05 68.3763 998.51 Q66.5707 994.945 62.9365 994.945 M62.9365 991.241 Q68.7467 991.241 71.8022 995.848 Q74.8809 1000.43 74.8809 1009.18 Q74.8809 1017.91 71.8022 1022.51 Q68.7467 1027.1 62.9365 1027.1 Q57.1264 1027.1 54.0477 1022.51 Q50.9921 1017.91 50.9921 1009.18 Q50.9921 1000.43 54.0477 995.848 Q57.1264 991.241 62.9365 991.241 Z" fill="#000000" fill-rule="evenodd" fill-opacity="1" /><path clip-path="url(#clip400)" d="M83.0984 1020.55 L87.9827 1020.55 L87.9827 1026.43 L83.0984 1026.43 L83.0984 1020.55 Z" fill="#000000" fill-rule="evenodd" fill-opacity="1" /><path clip-path="url(#clip400)" d="M111.015 995.94 L99.2095 1014.39 L111.015 1014.39 L111.015 995.94 M109.788 991.866 L115.668 991.866 L115.668 1014.39 L120.598 1014.39 L120.598 1018.28 L115.668 1018.28 L115.668 1026.43 L111.015 1026.43 L111.015 1018.28 L95.4132 1018.28 L95.4132 1013.76 L109.788 991.866 Z" fill="#000000" fill-rule="evenodd" fill-opacity="1" /><path clip-path="url(#clip400)" d="M63.2606 776.66 Q59.6495 776.66 57.8208 780.225 Q56.0152 783.766 56.0152 790.896 Q56.0152 798.002 57.8208 801.567 Q59.6495 805.109 63.2606 805.109 Q66.8948 805.109 68.7004 801.567 Q70.5291 798.002 70.5291 790.896 Q70.5291 783.766 68.7004 780.225 Q66.8948 776.66 63.2606 776.66 M63.2606 772.956 Q69.0707 772.956 72.1263 777.563 Q75.205 782.146 75.205 790.896 Q75.205 799.623 72.1263 804.229 Q69.0707 808.812 63.2606 808.812 Q57.4504 808.812 54.3717 804.229 Q51.3162 799.623 51.3162 790.896 Q51.3162 782.146 54.3717 777.563 Q57.4504 772.956 63.2606 772.956 Z" fill="#000000" fill-rule="evenodd" fill-opacity="1" /><path clip-path="url(#clip400)" d="M83.4225 802.262 L88.3067 802.262 L88.3067 808.141 L83.4225 808.141 L83.4225 802.262 Z" fill="#000000" fill-rule="evenodd" fill-opacity="1" /><path clip-path="url(#clip400)" d="M109.071 788.998 Q105.922 788.998 104.071 791.15 Q102.242 793.303 102.242 797.053 Q102.242 800.78 104.071 802.956 Q105.922 805.109 109.071 805.109 Q112.219 805.109 114.047 802.956 Q115.899 800.78 115.899 797.053 Q115.899 793.303 114.047 791.15 Q112.219 788.998 109.071 788.998 M118.353 774.345 L118.353 778.604 Q116.594 777.771 114.788 777.331 Q113.006 776.891 111.246 776.891 Q106.617 776.891 104.163 780.016 Q101.733 783.141 101.385 789.461 Q102.751 787.447 104.811 786.382 Q106.871 785.294 109.348 785.294 Q114.557 785.294 117.566 788.465 Q120.598 791.613 120.598 797.053 Q120.598 802.377 117.45 805.595 Q114.302 808.812 109.071 808.812 Q103.075 808.812 99.9039 804.229 Q96.7326 799.623 96.7326 790.896 Q96.7326 782.701 100.621 777.84 Q104.51 772.956 111.061 772.956 Q112.82 772.956 114.603 773.303 Q116.408 773.651 118.353 774.345 Z" fill="#000000" fill-rule="evenodd" fill-opacity="1" /><path clip-path="url(#clip400)" d="M63.5152 558.375 Q59.9041 558.375 58.0754 561.94 Q56.2699 565.481 56.2699 572.611 Q56.2699 579.717 58.0754 583.282 Q59.9041 586.824 63.5152 586.824 Q67.1494 586.824 68.955 583.282 Q70.7837 579.717 70.7837 572.611 Q70.7837 565.481 68.955 561.94 Q67.1494 558.375 63.5152 558.375 M63.5152 554.671 Q69.3254 554.671 72.3809 559.278 Q75.4596 563.861 75.4596 572.611 Q75.4596 581.338 72.3809 585.944 Q69.3254 590.527 63.5152 590.527 Q57.7051 590.527 54.6264 585.944 Q51.5708 581.338 51.5708 572.611 Q51.5708 563.861 54.6264 559.278 Q57.7051 554.671 63.5152 554.671 Z" fill="#000000" fill-rule="evenodd" fill-opacity="1" /><path clip-path="url(#clip400)" d="M83.6771 583.977 L88.5614 583.977 L88.5614 589.856 L83.6771 589.856 L83.6771 583.977 Z" fill="#000000" fill-rule="evenodd" fill-opacity="1" /><path clip-path="url(#clip400)" d="M108.746 573.444 Q105.413 573.444 103.492 575.227 Q101.594 577.009 101.594 580.134 Q101.594 583.259 103.492 585.041 Q105.413 586.824 108.746 586.824 Q112.08 586.824 114.001 585.041 Q115.922 583.236 115.922 580.134 Q115.922 577.009 114.001 575.227 Q112.103 573.444 108.746 573.444 M104.071 571.453 Q101.061 570.713 99.3715 568.653 Q97.7048 566.592 97.7048 563.629 Q97.7048 559.486 100.645 557.079 Q103.608 554.671 108.746 554.671 Q113.908 554.671 116.848 557.079 Q119.788 559.486 119.788 563.629 Q119.788 566.592 118.098 568.653 Q116.432 570.713 113.445 571.453 Q116.825 572.24 118.7 574.532 Q120.598 576.824 120.598 580.134 Q120.598 585.157 117.52 587.842 Q114.464 590.527 108.746 590.527 Q103.029 590.527 99.9502 587.842 Q96.8947 585.157 96.8947 580.134 Q96.8947 576.824 98.7928 574.532 Q100.691 572.24 104.071 571.453 M102.358 564.069 Q102.358 566.754 104.024 568.259 Q105.714 569.764 108.746 569.764 Q111.756 569.764 113.445 568.259 Q115.158 566.754 115.158 564.069 Q115.158 561.384 113.445 559.879 Q111.756 558.375 108.746 558.375 Q105.714 558.375 104.024 559.879 Q102.358 561.384 102.358 564.069 Z" fill="#000000" fill-rule="evenodd" fill-opacity="1" /><path clip-path="url(#clip400)" d="M54.2328 367.636 L61.8717 367.636 L61.8717 341.27 L53.5616 342.937 L53.5616 338.678 L61.8254 337.011 L66.5013 337.011 L66.5013 367.636 L74.1402 367.636 L74.1402 371.571 L54.2328 371.571 L54.2328 367.636 Z" fill="#000000" fill-rule="evenodd" fill-opacity="1" /><path clip-path="url(#clip400)" d="M83.5845 365.692 L88.4688 365.692 L88.4688 371.571 L83.5845 371.571 L83.5845 365.692 Z" fill="#000000" fill-rule="evenodd" fill-opacity="1" /><path clip-path="url(#clip400)" d="M108.654 340.09 Q105.043 340.09 103.214 343.655 Q101.409 347.196 101.409 354.326 Q101.409 361.432 103.214 364.997 Q105.043 368.539 108.654 368.539 Q112.288 368.539 114.094 364.997 Q115.922 361.432 115.922 354.326 Q115.922 347.196 114.094 343.655 Q112.288 340.09 108.654 340.09 M108.654 336.386 Q114.464 336.386 117.52 340.993 Q120.598 345.576 120.598 354.326 Q120.598 363.053 117.52 367.659 Q114.464 372.242 108.654 372.242 Q102.844 372.242 99.765 367.659 Q96.7095 363.053 96.7095 354.326 Q96.7095 345.576 99.765 340.993 Q102.844 336.386 108.654 336.386 Z" fill="#000000" fill-rule="evenodd" fill-opacity="1" /><path clip-path="url(#clip400)" d="M55.8301 149.351 L63.4689 149.351 L63.4689 122.985 L55.1588 124.652 L55.1588 120.393 L63.4226 118.726 L68.0985 118.726 L68.0985 149.351 L75.7374 149.351 L75.7374 153.286 L55.8301 153.286 L55.8301 149.351 Z" fill="#000000" fill-rule="evenodd" fill-opacity="1" /><path clip-path="url(#clip400)" d="M85.1818 147.406 L90.066 147.406 L90.066 153.286 L85.1818 153.286 L85.1818 147.406 Z" fill="#000000" fill-rule="evenodd" fill-opacity="1" /><path clip-path="url(#clip400)" d="M104.279 149.351 L120.598 149.351 L120.598 153.286 L98.6539 153.286 L98.6539 149.351 Q101.316 146.596 105.899 141.967 Q110.506 137.314 111.686 135.971 Q113.932 133.448 114.811 131.712 Q115.714 129.953 115.714 128.263 Q115.714 125.508 113.77 123.772 Q111.848 122.036 108.746 122.036 Q106.547 122.036 104.094 122.8 Q101.663 123.564 98.8854 125.115 L98.8854 120.393 Q101.709 119.258 104.163 118.68 Q106.617 118.101 108.654 118.101 Q114.024 118.101 117.219 120.786 Q120.413 123.471 120.413 127.962 Q120.413 130.092 119.603 132.013 Q118.816 133.911 116.709 136.504 Q116.131 137.175 113.029 140.393 Q109.927 143.587 104.279 149.351 Z" fill="#000000" fill-rule="evenodd" fill-opacity="1" /><polyline clip-path="url(#clip402)" style="stroke:#009af9; stroke-linecap:butt; stroke-linejoin:round; stroke-width:4; stroke-opacity:1; fill:none" points="
  218.754,1445.72 229.165,1445.71 239.576,1445.71 249.988,1445.71 260.399,1445.69 270.81,1445.66 281.221,1445.6 291.633,1445.49 302.044,1445.32 312.455,1445.08 
  322.867,1444.78 333.278,1444.46 343.689,1444.15 354.1,1443.91 364.512,1443.75 374.923,1443.67 385.334,1443.64 395.746,1443.58 406.157,1443.43 416.568,1443.15 
  426.979,1442.73 437.391,1442.13 447.802,1441.38 458.213,1440.5 468.625,1439.56 479.036,1438.66 489.447,1437.9 499.858,1437.36 510.27,1437 520.681,1436.69 
  531.092,1436.25 541.504,1435.56 551.915,1434.55 562.326,1433.24 572.738,1431.72 583.149,1430.07 593.56,1428.34 603.971,1426.51 614.383,1424.54 624.794,1422.36 
  635.205,1419.88 645.617,1417.03 656.028,1413.69 666.439,1409.79 676.85,1405.25 687.262,1400.09 697.673,1394.47 708.084,1388.66 718.496,1382.95 728.907,1377.37 
  739.318,1371.56 749.729,1364.76 760.141,1356.07 770.552,1344.84 780.963,1331.02 791.375,1315.2 801.786,1298.41 812.197,1281.71 822.609,1265.75 833.02,1250.64 
  843.431,1235.88 853.842,1220.65 864.254,1204.1 874.665,1185.6 885.076,1164.93 895.488,1142.33 905.899,1118.37 916.31,1093.81 926.721,1069.26 937.133,1044.9 
  947.544,1020.39 957.955,994.88 968.367,967.388 978.778,937.119 989.189,903.766 999.6,867.595 1010.01,829.336 1020.42,789.968 1030.83,750.47 1041.25,711.615 
  1051.66,673.892 1062.07,637.552 1072.48,602.763 1082.89,569.755 1093.3,538.811 1103.71,510.033 1114.12,482.988 1124.54,456.48 1134.95,428.746 1145.36,398.122 
  1155.77,363.925 1166.18,327.061 1176.59,289.964 1187,255.791 1197.41,227.252 1207.83,205.606 1218.24,190.261 1228.65,179.134 1239.06,169.569 1249.47,159.448 
  1259.88,148.052 1270.29,136.331 1280.71,126.438 1291.12,120.733 1301.53,120.685 1311.94,126.193 1322.35,135.673 1332.76,146.81 1343.17,157.589 1353.58,167.062 
  1364,175.523 1374.41,184.108 1384.82,194.115 1395.23,206.444 1405.64,221.431 1416.05,239.065 1426.46,259.367 1436.87,282.617 1447.29,309.268 1457.7,339.598 
  1468.11,373.37 1478.52,409.733 1488.93,447.431 1499.34,485.204 1509.75,522.13 1520.16,557.768 1530.58,592.087 1540.99,625.304 1551.4,657.764 1561.81,689.909 
  1572.22,722.274 1582.63,755.43 1593.04,789.8 1603.46,825.424 1613.87,861.847 1624.28,898.229 1634.69,933.663 1645.1,967.501 1655.51,999.496 1665.92,1029.71 
  1676.33,1058.28 1686.75,1085.34 1697.16,1111 1707.57,1135.48 1717.98,1159.13 1728.39,1182.29 1738.8,1205.12 1749.21,1227.5 1759.62,1249.02 1770.04,1269.18 
  1780.45,1287.51 1790.86,1303.75 1801.27,1317.85 1811.68,1329.98 1822.09,1340.47 1832.5,1349.73 1842.91,1358.18 1853.33,1366.11 1863.74,1373.73 1874.15,1381.09 
  1884.56,1388.15 1894.97,1394.82 1905.38,1400.97 1915.79,1406.5 1926.21,1411.37 1936.62,1415.62 1947.03,1419.38 1957.44,1422.84 1967.85,1426.15 1978.26,1429.36 
  1988.67,1432.42 1999.08,1435.19 2009.5,1437.51 2019.91,1439.28 2030.32,1440.5 2040.73,1441.28 2051.14,1441.76 2061.55,1442.09 2071.96,1442.35 2082.37,1442.57 
  2092.79,1442.73 2103.2,1442.81 2113.61,1442.83 2124.02,1442.85 2134.43,1442.94 2144.84,1443.15 2155.25,1443.47 2165.67,1443.87 2176.08,1444.3 2186.49,1444.71 
  2196.9,1445.05 2207.31,1445.31 2217.72,1445.49 2228.13,1445.6 2238.54,1445.66 2248.96,1445.69 2259.37,1445.71 2269.78,1445.71 2280.19,1445.71 2290.6,1445.72 
  
  "/>
<polyline clip-path="url(#clip402)" style="stroke:#000000; stroke-linecap:butt; stroke-linejoin:round; stroke-width:4; stroke-opacity:1; fill:none" stroke-dasharray="16, 10" points="
  443.066,1444.37 451.51,1444.17 459.954,1443.96 538.03,1440.05 616.106,1429.45 663.027,1416.66 709.947,1395.89 749.618,1369.57 789.289,1332.68 810.836,1307.33 
  832.382,1277.74 853.929,1243.57 875.476,1204.53 895.34,1164.04 915.204,1119.14 935.069,1069.84 954.933,1016.24 997.526,888.051 1040.12,745.494 1089.47,571.638 
  1138.82,402.682 1160.74,333.672 1182.67,270.595 1204.6,214.937 1226.53,168.06 1245.75,135.115 1264.98,110.484 1284.21,94.6645 1303.44,87.9763 1324.4,91.245 
  1345.37,105.448 1366.33,130.241 1387.3,165.032 1408.38,209.286 1429.47,261.792 1450.56,321.357 1471.65,386.675 1518.28,544.663 1564.92,709.313 1609.28,860.235 
  1653.65,996.876 1676.72,1060.38 1699.79,1118.14 1722.86,1169.97 1745.92,1215.88 1784.76,1280.28 1823.59,1329.91 1871.01,1373.58 1918.42,1402.61 1962.99,1420.14 
  2007.56,1431.09 2078.96,1440.18 2150.37,1443.81 2161.36,1444.11 2172.35,1444.37 
  "/>
<path clip-path="url(#clip400)" d="
M1625.95 250.738 L2279.55 250.738 L2279.55 95.2176 L1625.95 95.2176  Z
  " fill="#ffffff" fill-rule="evenodd" fill-opacity="1"/>
<polyline clip-path="url(#clip400)" style="stroke:#000000; stroke-linecap:butt; stroke-linejoin:round; stroke-width:4; stroke-opacity:1; fill:none" points="
  1625.95,250.738 2279.55,250.738 2279.55,95.2176 1625.95,95.2176 1625.95,250.738 
  "/>
<polyline clip-path="url(#clip400)" style="stroke:#009af9; stroke-linecap:butt; stroke-linejoin:round; stroke-width:4; stroke-opacity:1; fill:none" points="
  1650.35,147.058 1796.76,147.058 
  "/>
<path clip-path="url(#clip400)" d="M1821.17 129.778 L1843.02 129.778 L1843.02 133.713 L1825.84 133.713 L1825.84 143.944 L1842.3 143.944 L1842.3 147.879 L1825.84 147.879 L1825.84 160.402 L1843.43 160.402 L1843.43 164.338 L1821.17 164.338 L1821.17 129.778 Z" fill="#000000" fill-rule="evenodd" fill-opacity="1" /><path clip-path="url(#clip400)" d="M1871.12 143.389 Q1872.72 140.518 1874.94 139.153 Q1877.16 137.787 1880.17 137.787 Q1884.22 137.787 1886.42 140.634 Q1888.62 143.458 1888.62 148.689 L1888.62 164.338 L1884.34 164.338 L1884.34 148.828 Q1884.34 145.102 1883.02 143.296 Q1881.7 141.49 1878.99 141.49 Q1875.68 141.49 1873.76 143.69 Q1871.84 145.889 1871.84 149.685 L1871.84 164.338 L1867.55 164.338 L1867.55 148.828 Q1867.55 145.078 1866.24 143.296 Q1864.92 141.49 1862.16 141.49 Q1858.9 141.49 1856.98 143.713 Q1855.05 145.912 1855.05 149.685 L1855.05 164.338 L1850.77 164.338 L1850.77 138.412 L1855.05 138.412 L1855.05 142.44 Q1856.51 140.055 1858.55 138.921 Q1860.59 137.787 1863.39 137.787 Q1866.21 137.787 1868.18 139.222 Q1870.17 140.657 1871.12 143.389 Z" fill="#000000" fill-rule="evenodd" fill-opacity="1" /><path clip-path="url(#clip400)" d="M1901.24 160.449 L1901.24 174.199 L1896.95 174.199 L1896.95 138.412 L1901.24 138.412 L1901.24 142.347 Q1902.58 140.032 1904.61 138.921 Q1906.67 137.787 1909.52 137.787 Q1914.24 137.787 1917.18 141.537 Q1920.15 145.287 1920.15 151.398 Q1920.15 157.509 1917.18 161.259 Q1914.24 165.009 1909.52 165.009 Q1906.67 165.009 1904.61 163.898 Q1902.58 162.763 1901.24 160.449 M1915.73 151.398 Q1915.73 146.699 1913.78 144.037 Q1911.86 141.352 1908.48 141.352 Q1905.1 141.352 1903.16 144.037 Q1901.24 146.699 1901.24 151.398 Q1901.24 156.097 1903.16 158.782 Q1905.1 161.444 1908.48 161.444 Q1911.86 161.444 1913.78 158.782 Q1915.73 156.097 1915.73 151.398 Z" fill="#000000" fill-rule="evenodd" fill-opacity="1" /><path clip-path="url(#clip400)" d="M1927.21 138.412 L1931.47 138.412 L1931.47 164.338 L1927.21 164.338 L1927.21 138.412 M1927.21 128.319 L1931.47 128.319 L1931.47 133.713 L1927.21 133.713 L1927.21 128.319 Z" fill="#000000" fill-rule="evenodd" fill-opacity="1" /><path clip-path="url(#clip400)" d="M1955.4 142.393 Q1954.68 141.977 1953.83 141.791 Q1952.99 141.583 1951.98 141.583 Q1948.36 141.583 1946.42 143.944 Q1944.5 146.282 1944.5 150.68 L1944.5 164.338 L1940.22 164.338 L1940.22 138.412 L1944.5 138.412 L1944.5 142.44 Q1945.84 140.078 1947.99 138.944 Q1950.15 137.787 1953.23 137.787 Q1953.67 137.787 1954.2 137.856 Q1954.73 137.903 1955.38 138.018 L1955.4 142.393 Z" fill="#000000" fill-rule="evenodd" fill-opacity="1" /><path clip-path="url(#clip400)" d="M1959.87 138.412 L1964.13 138.412 L1964.13 164.338 L1959.87 164.338 L1959.87 138.412 M1959.87 128.319 L1964.13 128.319 L1964.13 133.713 L1959.87 133.713 L1959.87 128.319 Z" fill="#000000" fill-rule="evenodd" fill-opacity="1" /><path clip-path="url(#clip400)" d="M1991.7 139.407 L1991.7 143.389 Q1989.89 142.393 1988.06 141.907 Q1986.26 141.398 1984.41 141.398 Q1980.26 141.398 1977.97 144.037 Q1975.68 146.652 1975.68 151.398 Q1975.68 156.143 1977.97 158.782 Q1980.26 161.398 1984.41 161.398 Q1986.26 161.398 1988.06 160.912 Q1989.89 160.402 1991.7 159.407 L1991.7 163.342 Q1989.92 164.176 1987.99 164.592 Q1986.1 165.009 1983.94 165.009 Q1978.09 165.009 1974.64 161.328 Q1971.19 157.648 1971.19 151.398 Q1971.19 145.055 1974.66 141.421 Q1978.16 137.787 1984.22 137.787 Q1986.19 137.787 1988.06 138.203 Q1989.94 138.597 1991.7 139.407 Z" fill="#000000" fill-rule="evenodd" fill-opacity="1" /><path clip-path="url(#clip400)" d="M2010.89 151.305 Q2005.73 151.305 2003.73 152.486 Q2001.74 153.666 2001.74 156.514 Q2001.74 158.782 2003.23 160.125 Q2004.73 161.444 2007.3 161.444 Q2010.84 161.444 2012.97 158.944 Q2015.12 156.421 2015.12 152.254 L2015.12 151.305 L2010.89 151.305 M2019.38 149.546 L2019.38 164.338 L2015.12 164.338 L2015.12 160.402 Q2013.66 162.763 2011.49 163.898 Q2009.31 165.009 2006.17 165.009 Q2002.18 165.009 1999.82 162.787 Q1997.48 160.541 1997.48 156.791 Q1997.48 152.416 2000.4 150.194 Q2003.34 147.972 2009.15 147.972 L2015.12 147.972 L2015.12 147.555 Q2015.12 144.615 2013.18 143.018 Q2011.26 141.398 2007.76 141.398 Q2005.54 141.398 2003.43 141.93 Q2001.33 142.463 1999.38 143.527 L1999.38 139.592 Q2001.72 138.69 2003.92 138.25 Q2006.12 137.787 2008.2 137.787 Q2013.83 137.787 2016.6 140.703 Q2019.38 143.62 2019.38 149.546 Z" fill="#000000" fill-rule="evenodd" fill-opacity="1" /><path clip-path="url(#clip400)" d="M2028.16 128.319 L2032.41 128.319 L2032.41 164.338 L2028.16 164.338 L2028.16 128.319 Z" fill="#000000" fill-rule="evenodd" fill-opacity="1" /><path clip-path="url(#clip400)" d="M2061.26 133.62 L2061.26 160.495 L2066.91 160.495 Q2074.06 160.495 2077.37 157.254 Q2080.7 154.014 2080.7 147.023 Q2080.7 140.078 2077.37 136.861 Q2074.06 133.62 2066.91 133.62 L2061.26 133.62 M2056.58 129.778 L2066.19 129.778 Q2076.23 129.778 2080.93 133.967 Q2085.63 138.134 2085.63 147.023 Q2085.63 155.958 2080.91 160.148 Q2076.19 164.338 2066.19 164.338 L2056.58 164.338 L2056.58 129.778 Z" fill="#000000" fill-rule="evenodd" fill-opacity="1" /><path clip-path="url(#clip400)" d="M2115.08 150.31 L2115.08 152.393 L2095.49 152.393 Q2095.77 156.791 2098.13 159.106 Q2100.52 161.398 2104.75 161.398 Q2107.21 161.398 2109.5 160.796 Q2111.81 160.194 2114.08 158.99 L2114.08 163.018 Q2111.79 163.99 2109.38 164.5 Q2106.97 165.009 2104.5 165.009 Q2098.29 165.009 2094.66 161.398 Q2091.05 157.787 2091.05 151.629 Q2091.05 145.264 2094.47 141.537 Q2097.92 137.787 2103.76 137.787 Q2108.99 137.787 2112.02 141.166 Q2115.08 144.523 2115.08 150.31 M2110.82 149.06 Q2110.77 145.565 2108.85 143.481 Q2106.95 141.398 2103.8 141.398 Q2100.24 141.398 2098.09 143.412 Q2095.96 145.426 2095.63 149.083 L2110.82 149.06 Z" fill="#000000" fill-rule="evenodd" fill-opacity="1" /><path clip-path="url(#clip400)" d="M2143.62 148.689 L2143.62 164.338 L2139.36 164.338 L2139.36 148.828 Q2139.36 145.148 2137.92 143.319 Q2136.49 141.49 2133.62 141.49 Q2130.17 141.49 2128.18 143.69 Q2126.19 145.889 2126.19 149.685 L2126.19 164.338 L2121.91 164.338 L2121.91 138.412 L2126.19 138.412 L2126.19 142.44 Q2127.72 140.102 2129.78 138.944 Q2131.86 137.787 2134.57 137.787 Q2139.03 137.787 2141.33 140.565 Q2143.62 143.319 2143.62 148.689 Z" fill="#000000" fill-rule="evenodd" fill-opacity="1" /><path clip-path="url(#clip400)" d="M2168.64 139.176 L2168.64 143.203 Q2166.84 142.277 2164.89 141.815 Q2162.95 141.352 2160.86 141.352 Q2157.69 141.352 2156.09 142.324 Q2154.52 143.296 2154.52 145.24 Q2154.52 146.722 2155.65 147.578 Q2156.79 148.412 2160.22 149.176 L2161.67 149.5 Q2166.21 150.472 2168.11 152.254 Q2170.03 154.014 2170.03 157.185 Q2170.03 160.796 2167.16 162.902 Q2164.31 165.009 2159.31 165.009 Q2157.23 165.009 2154.96 164.592 Q2152.72 164.199 2150.22 163.388 L2150.22 158.99 Q2152.58 160.217 2154.87 160.842 Q2157.16 161.444 2159.4 161.444 Q2162.41 161.444 2164.03 160.426 Q2165.65 159.384 2165.65 157.509 Q2165.65 155.773 2164.47 154.847 Q2163.32 153.921 2159.36 153.064 L2157.88 152.717 Q2153.92 151.884 2152.16 150.171 Q2150.4 148.435 2150.4 145.426 Q2150.4 141.768 2152.99 139.778 Q2155.59 137.787 2160.35 137.787 Q2162.72 137.787 2164.8 138.134 Q2166.88 138.481 2168.64 139.176 Z" fill="#000000" fill-rule="evenodd" fill-opacity="1" /><path clip-path="url(#clip400)" d="M2176.81 138.412 L2181.07 138.412 L2181.07 164.338 L2176.81 164.338 L2176.81 138.412 M2176.81 128.319 L2181.07 128.319 L2181.07 133.713 L2176.81 133.713 L2176.81 128.319 Z" fill="#000000" fill-rule="evenodd" fill-opacity="1" /><path clip-path="url(#clip400)" d="M2194.2 131.051 L2194.2 138.412 L2202.97 138.412 L2202.97 141.722 L2194.2 141.722 L2194.2 155.796 Q2194.2 158.967 2195.05 159.87 Q2195.93 160.773 2198.59 160.773 L2202.97 160.773 L2202.97 164.338 L2198.59 164.338 Q2193.66 164.338 2191.79 162.509 Q2189.91 160.657 2189.91 155.796 L2189.91 141.722 L2186.79 141.722 L2186.79 138.412 L2189.91 138.412 L2189.91 131.051 L2194.2 131.051 Z" fill="#000000" fill-rule="evenodd" fill-opacity="1" /><path clip-path="url(#clip400)" d="M2219.36 166.745 Q2217.55 171.375 2215.84 172.787 Q2214.13 174.199 2211.26 174.199 L2207.85 174.199 L2207.85 170.634 L2210.35 170.634 Q2212.11 170.634 2213.09 169.8 Q2214.06 168.967 2215.24 165.865 L2216 163.921 L2205.52 138.412 L2210.03 138.412 L2218.13 158.689 L2226.23 138.412 L2230.75 138.412 L2219.36 166.745 Z" fill="#000000" fill-rule="evenodd" fill-opacity="1" /><polyline clip-path="url(#clip400)" style="stroke:#000000; stroke-linecap:butt; stroke-linejoin:round; stroke-width:4; stroke-opacity:1; fill:none" stroke-dasharray="16, 10" points="
  1650.35,198.898 1796.76,198.898 
  "/>
<path clip-path="url(#clip400)" d="M1837 186.224 L1830.66 203.423 L1843.36 203.423 L1837 186.224 M1834.36 181.618 L1839.66 181.618 L1852.83 216.178 L1847.97 216.178 L1844.82 207.312 L1829.24 207.312 L1826.1 216.178 L1821.17 216.178 L1834.36 181.618 Z" fill="#000000" fill-rule="evenodd" fill-opacity="1" /><path clip-path="url(#clip400)" d="M1874.22 191.016 L1874.22 195.043 Q1872.42 194.117 1870.47 193.655 Q1868.53 193.192 1866.44 193.192 Q1863.27 193.192 1861.68 194.164 Q1860.1 195.136 1860.1 197.08 Q1860.1 198.562 1861.24 199.418 Q1862.37 200.252 1865.8 201.016 L1867.25 201.34 Q1871.79 202.312 1873.69 204.094 Q1875.61 205.854 1875.61 209.025 Q1875.61 212.636 1872.74 214.742 Q1869.89 216.849 1864.89 216.849 Q1862.81 216.849 1860.54 216.432 Q1858.3 216.039 1855.8 215.228 L1855.8 210.83 Q1858.16 212.057 1860.45 212.682 Q1862.74 213.284 1864.99 213.284 Q1867.99 213.284 1869.61 212.266 Q1871.24 211.224 1871.24 209.349 Q1871.24 207.613 1870.05 206.687 Q1868.9 205.761 1864.94 204.904 L1863.46 204.557 Q1859.5 203.724 1857.74 202.011 Q1855.98 200.275 1855.98 197.266 Q1855.98 193.608 1858.57 191.618 Q1861.17 189.627 1865.93 189.627 Q1868.3 189.627 1870.38 189.974 Q1872.46 190.321 1874.22 191.016 Z" fill="#000000" fill-rule="evenodd" fill-opacity="1" /><path clip-path="url(#clip400)" d="M1893.18 218.585 Q1891.37 223.215 1889.66 224.627 Q1887.95 226.039 1885.08 226.039 L1881.67 226.039 L1881.67 222.474 L1884.17 222.474 Q1885.93 222.474 1886.91 221.64 Q1887.88 220.807 1889.06 217.705 L1889.82 215.761 L1879.34 190.252 L1883.85 190.252 L1891.95 210.529 L1900.05 190.252 L1904.57 190.252 L1893.18 218.585 Z" fill="#000000" fill-rule="evenodd" fill-opacity="1" /><path clip-path="url(#clip400)" d="M1930.63 195.229 Q1932.23 192.358 1934.45 190.993 Q1936.67 189.627 1939.68 189.627 Q1943.73 189.627 1945.93 192.474 Q1948.13 195.298 1948.13 200.529 L1948.13 216.178 L1943.85 216.178 L1943.85 200.668 Q1943.85 196.942 1942.53 195.136 Q1941.21 193.33 1938.5 193.33 Q1935.19 193.33 1933.27 195.53 Q1931.35 197.729 1931.35 201.525 L1931.35 216.178 L1927.07 216.178 L1927.07 200.668 Q1927.07 196.918 1925.75 195.136 Q1924.43 193.33 1921.67 193.33 Q1918.41 193.33 1916.49 195.553 Q1914.57 197.752 1914.57 201.525 L1914.57 216.178 L1910.29 216.178 L1910.29 190.252 L1914.57 190.252 L1914.57 194.28 Q1916.03 191.895 1918.06 190.761 Q1920.1 189.627 1922.9 189.627 Q1925.73 189.627 1927.69 191.062 Q1929.68 192.497 1930.63 195.229 Z" fill="#000000" fill-rule="evenodd" fill-opacity="1" /><path clip-path="url(#clip400)" d="M1960.75 212.289 L1960.75 226.039 L1956.47 226.039 L1956.47 190.252 L1960.75 190.252 L1960.75 194.187 Q1962.09 191.872 1964.13 190.761 Q1966.19 189.627 1969.04 189.627 Q1973.76 189.627 1976.7 193.377 Q1979.66 197.127 1979.66 203.238 Q1979.66 209.349 1976.7 213.099 Q1973.76 216.849 1969.04 216.849 Q1966.19 216.849 1964.13 215.738 Q1962.09 214.603 1960.75 212.289 M1975.24 203.238 Q1975.24 198.539 1973.29 195.877 Q1971.37 193.192 1967.99 193.192 Q1964.61 193.192 1962.67 195.877 Q1960.75 198.539 1960.75 203.238 Q1960.75 207.937 1962.67 210.622 Q1964.61 213.284 1967.99 213.284 Q1971.37 213.284 1973.29 210.622 Q1975.24 207.937 1975.24 203.238 Z" fill="#000000" fill-rule="evenodd" fill-opacity="1" /><path clip-path="url(#clip400)" d="M1990.93 182.891 L1990.93 190.252 L1999.71 190.252 L1999.71 193.562 L1990.93 193.562 L1990.93 207.636 Q1990.93 210.807 1991.79 211.71 Q1992.67 212.613 1995.33 212.613 L1999.71 212.613 L1999.71 216.178 L1995.33 216.178 Q1990.4 216.178 1988.53 214.349 Q1986.65 212.497 1986.65 207.636 L1986.65 193.562 L1983.53 193.562 L1983.53 190.252 L1986.65 190.252 L1986.65 182.891 L1990.93 182.891 Z" fill="#000000" fill-rule="evenodd" fill-opacity="1" /><path clip-path="url(#clip400)" d="M2015.35 193.238 Q2011.93 193.238 2009.94 195.923 Q2007.95 198.585 2007.95 203.238 Q2007.95 207.891 2009.91 210.576 Q2011.91 213.238 2015.35 213.238 Q2018.76 213.238 2020.75 210.553 Q2022.74 207.867 2022.74 203.238 Q2022.74 198.631 2020.75 195.946 Q2018.76 193.238 2015.35 193.238 M2015.35 189.627 Q2020.91 189.627 2024.08 193.238 Q2027.25 196.849 2027.25 203.238 Q2027.25 209.604 2024.08 213.238 Q2020.91 216.849 2015.35 216.849 Q2009.78 216.849 2006.6 213.238 Q2003.46 209.604 2003.46 203.238 Q2003.46 196.849 2006.6 193.238 Q2009.78 189.627 2015.35 189.627 Z" fill="#000000" fill-rule="evenodd" fill-opacity="1" /><path clip-path="url(#clip400)" d="M2038.53 182.891 L2038.53 190.252 L2047.3 190.252 L2047.3 193.562 L2038.53 193.562 L2038.53 207.636 Q2038.53 210.807 2039.38 211.71 Q2040.26 212.613 2042.92 212.613 L2047.3 212.613 L2047.3 216.178 L2042.92 216.178 Q2037.99 216.178 2036.12 214.349 Q2034.24 212.497 2034.24 207.636 L2034.24 193.562 L2031.12 193.562 L2031.12 190.252 L2034.24 190.252 L2034.24 182.891 L2038.53 182.891 Z" fill="#000000" fill-rule="evenodd" fill-opacity="1" /><path clip-path="url(#clip400)" d="M2052.9 190.252 L2057.16 190.252 L2057.16 216.178 L2052.9 216.178 L2052.9 190.252 M2052.9 180.159 L2057.16 180.159 L2057.16 185.553 L2052.9 185.553 L2052.9 180.159 Z" fill="#000000" fill-rule="evenodd" fill-opacity="1" /><path clip-path="url(#clip400)" d="M2084.73 191.247 L2084.73 195.229 Q2082.92 194.233 2081.1 193.747 Q2079.29 193.238 2077.44 193.238 Q2073.29 193.238 2071 195.877 Q2068.71 198.492 2068.71 203.238 Q2068.71 207.983 2071 210.622 Q2073.29 213.238 2077.44 213.238 Q2079.29 213.238 2081.1 212.752 Q2082.92 212.242 2084.73 211.247 L2084.73 215.182 Q2082.95 216.016 2081.03 216.432 Q2079.13 216.849 2076.97 216.849 Q2071.12 216.849 2067.67 213.168 Q2064.22 209.488 2064.22 203.238 Q2064.22 196.895 2067.69 193.261 Q2071.19 189.627 2077.25 189.627 Q2079.22 189.627 2081.1 190.043 Q2082.97 190.437 2084.73 191.247 Z" fill="#000000" fill-rule="evenodd" fill-opacity="1" /></svg>
