<?xml version="1.0" encoding="utf-8"?>
<svg xmlns="http://www.w3.org/2000/svg" xmlns:xlink="http://www.w3.org/1999/xlink" width="600" height="600" viewBox="0 0 2400 2400">
<defs>
  <clipPath id="clip670">
    <rect x="0" y="0" width="2400" height="2400"/>
  </clipPath>
</defs>
<path clip-path="url(#clip670)" d="
M0 2400 L2400 2400 L2400 0 L0 0  Z
  " fill="#ffffff" fill-rule="evenodd" fill-opacity="1"/>
<defs>
  <clipPath id="clip671">
    <rect x="480" y="240" width="1681" height="1681"/>
  </clipPath>
</defs>
<path clip-path="url(#clip670)" d="
M178.867 674.927 L2352.76 674.927 L2352.76 47.2441 L178.867 47.2441  Z
  " fill="#ffffff" fill-rule="evenodd" fill-opacity="1"/>
<defs>
  <clipPath id="clip672">
    <rect x="178" y="47" width="2175" height="629"/>
  </clipPath>
</defs>
<polyline clip-path="url(#clip672)" style="stroke:#000000; stroke-linecap:butt; stroke-linejoin:round; stroke-width:2; stroke-opacity:0.1; fill:none" points="
  205.632,674.927 205.632,47.2441 
  "/>
<polyline clip-path="url(#clip672)" style="stroke:#000000; stroke-linecap:butt; stroke-linejoin:round; stroke-width:2; stroke-opacity:0.1; fill:none" points="
  553.232,674.927 553.232,47.2441 
  "/>
<polyline clip-path="url(#clip672)" style="stroke:#000000; stroke-linecap:butt; stroke-linejoin:round; stroke-width:2; stroke-opacity:0.1; fill:none" points="
  900.831,674.927 900.831,47.2441 
  "/>
<polyline clip-path="url(#clip672)" style="stroke:#000000; stroke-linecap:butt; stroke-linejoin:round; stroke-width:2; stroke-opacity:0.1; fill:none" points="
  1248.43,674.927 1248.43,47.2441 
  "/>
<polyline clip-path="url(#clip672)" style="stroke:#000000; stroke-linecap:butt; stroke-linejoin:round; stroke-width:2; stroke-opacity:0.1; fill:none" points="
  1596.03,674.927 1596.03,47.2441 
  "/>
<polyline clip-path="url(#clip672)" style="stroke:#000000; stroke-linecap:butt; stroke-linejoin:round; stroke-width:2; stroke-opacity:0.1; fill:none" points="
  1943.63,674.927 1943.63,47.2441 
  "/>
<polyline clip-path="url(#clip672)" style="stroke:#000000; stroke-linecap:butt; stroke-linejoin:round; stroke-width:2; stroke-opacity:0.1; fill:none" points="
  2291.23,674.927 2291.23,47.2441 
  "/>
<polyline clip-path="url(#clip670)" style="stroke:#000000; stroke-linecap:butt; stroke-linejoin:round; stroke-width:4; stroke-opacity:1; fill:none" points="
  178.867,674.927 2352.76,674.927 
  "/>
<polyline clip-path="url(#clip670)" style="stroke:#000000; stroke-linecap:butt; stroke-linejoin:round; stroke-width:4; stroke-opacity:1; fill:none" points="
  205.632,674.927 205.632,656.03 
  "/>
<polyline clip-path="url(#clip670)" style="stroke:#000000; stroke-linecap:butt; stroke-linejoin:round; stroke-width:4; stroke-opacity:1; fill:none" points="
  553.232,674.927 553.232,656.03 
  "/>
<polyline clip-path="url(#clip670)" style="stroke:#000000; stroke-linecap:butt; stroke-linejoin:round; stroke-width:4; stroke-opacity:1; fill:none" points="
  900.831,674.927 900.831,656.03 
  "/>
<polyline clip-path="url(#clip670)" style="stroke:#000000; stroke-linecap:butt; stroke-linejoin:round; stroke-width:4; stroke-opacity:1; fill:none" points="
  1248.43,674.927 1248.43,656.03 
  "/>
<polyline clip-path="url(#clip670)" style="stroke:#000000; stroke-linecap:butt; stroke-linejoin:round; stroke-width:4; stroke-opacity:1; fill:none" points="
  1596.03,674.927 1596.03,656.03 
  "/>
<polyline clip-path="url(#clip670)" style="stroke:#000000; stroke-linecap:butt; stroke-linejoin:round; stroke-width:4; stroke-opacity:1; fill:none" points="
  1943.63,674.927 1943.63,656.03 
  "/>
<polyline clip-path="url(#clip670)" style="stroke:#000000; stroke-linecap:butt; stroke-linejoin:round; stroke-width:4; stroke-opacity:1; fill:none" points="
  2291.23,674.927 2291.23,656.03 
  "/>
<path clip-path="url(#clip670)" d="M205.632 704.118 Q202.021 704.118 200.192 707.683 Q198.386 711.224 198.386 718.354 Q198.386 725.46 200.192 729.025 Q202.021 732.567 205.632 732.567 Q209.266 732.567 211.072 729.025 Q212.9 725.46 212.9 718.354 Q212.9 711.224 211.072 707.683 Q209.266 704.118 205.632 704.118 M205.632 700.414 Q211.442 700.414 214.498 705.021 Q217.576 709.604 217.576 718.354 Q217.576 727.081 214.498 731.687 Q211.442 736.271 205.632 736.271 Q199.822 736.271 196.743 731.687 Q193.687 727.081 193.687 718.354 Q193.687 709.604 196.743 705.021 Q199.822 700.414 205.632 700.414 Z" fill="#000000" fill-rule="evenodd" fill-opacity="1" /><path clip-path="url(#clip670)" d="M527.919 731.664 L535.558 731.664 L535.558 705.298 L527.248 706.965 L527.248 702.706 L535.512 701.039 L540.188 701.039 L540.188 731.664 L547.827 731.664 L547.827 735.599 L527.919 735.599 L527.919 731.664 Z" fill="#000000" fill-rule="evenodd" fill-opacity="1" /><path clip-path="url(#clip670)" d="M567.271 704.118 Q563.66 704.118 561.831 707.683 Q560.026 711.224 560.026 718.354 Q560.026 725.46 561.831 729.025 Q563.66 732.567 567.271 732.567 Q570.905 732.567 572.711 729.025 Q574.539 725.46 574.539 718.354 Q574.539 711.224 572.711 707.683 Q570.905 704.118 567.271 704.118 M567.271 700.414 Q573.081 700.414 576.137 705.021 Q579.215 709.604 579.215 718.354 Q579.215 727.081 576.137 731.687 Q573.081 736.271 567.271 736.271 Q561.461 736.271 558.382 731.687 Q555.327 727.081 555.327 718.354 Q555.327 709.604 558.382 705.021 Q561.461 700.414 567.271 700.414 Z" fill="#000000" fill-rule="evenodd" fill-opacity="1" /><path clip-path="url(#clip670)" d="M879.605 731.664 L895.924 731.664 L895.924 735.599 L873.98 735.599 L873.98 731.664 Q876.642 728.909 881.225 724.28 Q885.832 719.627 887.012 718.285 Q889.257 715.761 890.137 714.025 Q891.04 712.266 891.04 710.576 Q891.04 707.822 889.095 706.086 Q887.174 704.349 884.072 704.349 Q881.873 704.349 879.42 705.113 Q876.989 705.877 874.211 707.428 L874.211 702.706 Q877.035 701.572 879.489 700.993 Q881.943 700.414 883.98 700.414 Q889.35 700.414 892.544 703.099 Q895.739 705.785 895.739 710.275 Q895.739 712.405 894.929 714.326 Q894.142 716.224 892.035 718.817 Q891.457 719.488 888.355 722.706 Q885.253 725.9 879.605 731.664 Z" fill="#000000" fill-rule="evenodd" fill-opacity="1" /><path clip-path="url(#clip670)" d="M915.739 704.118 Q912.128 704.118 910.299 707.683 Q908.493 711.224 908.493 718.354 Q908.493 725.46 910.299 729.025 Q912.128 732.567 915.739 732.567 Q919.373 732.567 921.179 729.025 Q923.007 725.46 923.007 718.354 Q923.007 711.224 921.179 707.683 Q919.373 704.118 915.739 704.118 M915.739 700.414 Q921.549 700.414 924.604 705.021 Q927.683 709.604 927.683 718.354 Q927.683 727.081 924.604 731.687 Q921.549 736.271 915.739 736.271 Q909.929 736.271 906.85 731.687 Q903.794 727.081 903.794 718.354 Q903.794 709.604 906.85 705.021 Q909.929 700.414 915.739 700.414 Z" fill="#000000" fill-rule="evenodd" fill-opacity="1" /><path clip-path="url(#clip670)" d="M1237.27 716.965 Q1240.63 717.683 1242.51 719.951 Q1244.4 722.22 1244.4 725.553 Q1244.4 730.669 1240.89 733.47 Q1237.37 736.271 1230.89 736.271 Q1228.71 736.271 1226.39 735.831 Q1224.1 735.414 1221.65 734.558 L1221.65 730.044 Q1223.59 731.178 1225.91 731.757 Q1228.22 732.335 1230.75 732.335 Q1235.14 732.335 1237.44 730.599 Q1239.75 728.863 1239.75 725.553 Q1239.75 722.497 1237.6 720.785 Q1235.47 719.048 1231.65 719.048 L1227.62 719.048 L1227.62 715.206 L1231.83 715.206 Q1235.28 715.206 1237.11 713.84 Q1238.94 712.451 1238.94 709.859 Q1238.94 707.197 1237.04 705.785 Q1235.17 704.349 1231.65 704.349 Q1229.73 704.349 1227.53 704.766 Q1225.33 705.183 1222.69 706.062 L1222.69 701.896 Q1225.35 701.155 1227.67 700.785 Q1230.01 700.414 1232.07 700.414 Q1237.39 700.414 1240.49 702.845 Q1243.59 705.252 1243.59 709.373 Q1243.59 712.243 1241.95 714.234 Q1240.31 716.201 1237.27 716.965 Z" fill="#000000" fill-rule="evenodd" fill-opacity="1" /><path clip-path="url(#clip670)" d="M1263.27 704.118 Q1259.66 704.118 1257.83 707.683 Q1256.02 711.224 1256.02 718.354 Q1256.02 725.46 1257.83 729.025 Q1259.66 732.567 1263.27 732.567 Q1266.9 732.567 1268.71 729.025 Q1270.54 725.46 1270.54 718.354 Q1270.54 711.224 1268.71 707.683 Q1266.9 704.118 1263.27 704.118 M1263.27 700.414 Q1269.08 700.414 1272.13 705.021 Q1275.21 709.604 1275.21 718.354 Q1275.21 727.081 1272.13 731.687 Q1269.08 736.271 1263.27 736.271 Q1257.46 736.271 1254.38 731.687 Q1251.32 727.081 1251.32 718.354 Q1251.32 709.604 1254.38 705.021 Q1257.46 700.414 1263.27 700.414 Z" fill="#000000" fill-rule="evenodd" fill-opacity="1" /><path clip-path="url(#clip670)" d="M1584.2 705.113 L1572.4 723.562 L1584.2 723.562 L1584.2 705.113 M1582.98 701.039 L1588.86 701.039 L1588.86 723.562 L1593.79 723.562 L1593.79 727.451 L1588.86 727.451 L1588.86 735.599 L1584.2 735.599 L1584.2 727.451 L1568.6 727.451 L1568.6 722.937 L1582.98 701.039 Z" fill="#000000" fill-rule="evenodd" fill-opacity="1" /><path clip-path="url(#clip670)" d="M1611.52 704.118 Q1607.91 704.118 1606.08 707.683 Q1604.27 711.224 1604.27 718.354 Q1604.27 725.46 1606.08 729.025 Q1607.91 732.567 1611.52 732.567 Q1615.15 732.567 1616.96 729.025 Q1618.79 725.46 1618.79 718.354 Q1618.79 711.224 1616.96 707.683 Q1615.15 704.118 1611.52 704.118 M1611.52 700.414 Q1617.33 700.414 1620.38 705.021 Q1623.46 709.604 1623.46 718.354 Q1623.46 727.081 1620.38 731.687 Q1617.33 736.271 1611.52 736.271 Q1605.71 736.271 1602.63 731.687 Q1599.57 727.081 1599.57 718.354 Q1599.57 709.604 1602.63 705.021 Q1605.71 700.414 1611.52 700.414 Z" fill="#000000" fill-rule="evenodd" fill-opacity="1" /><path clip-path="url(#clip670)" d="M1918.33 701.039 L1936.69 701.039 L1936.69 704.974 L1922.61 704.974 L1922.61 713.447 Q1923.63 713.099 1924.65 712.937 Q1925.67 712.752 1926.69 712.752 Q1932.47 712.752 1935.85 715.923 Q1939.23 719.095 1939.23 724.511 Q1939.23 730.09 1935.76 733.192 Q1932.29 736.271 1925.97 736.271 Q1923.79 736.271 1921.52 735.9 Q1919.28 735.53 1916.87 734.789 L1916.87 730.09 Q1918.96 731.224 1921.18 731.78 Q1923.4 732.335 1925.88 732.335 Q1929.88 732.335 1932.22 730.229 Q1934.56 728.122 1934.56 724.511 Q1934.56 720.9 1932.22 718.794 Q1929.88 716.687 1925.88 716.687 Q1924 716.687 1922.13 717.104 Q1920.27 717.521 1918.33 718.4 L1918.33 701.039 Z" fill="#000000" fill-rule="evenodd" fill-opacity="1" /><path clip-path="url(#clip670)" d="M1958.45 704.118 Q1954.83 704.118 1953.01 707.683 Q1951.2 711.224 1951.2 718.354 Q1951.2 725.46 1953.01 729.025 Q1954.83 732.567 1958.45 732.567 Q1962.08 732.567 1963.89 729.025 Q1965.71 725.46 1965.71 718.354 Q1965.71 711.224 1963.89 707.683 Q1962.08 704.118 1958.45 704.118 M1958.45 700.414 Q1964.26 700.414 1967.31 705.021 Q1970.39 709.604 1970.39 718.354 Q1970.39 727.081 1967.31 731.687 Q1964.26 736.271 1958.45 736.271 Q1952.64 736.271 1949.56 731.687 Q1946.5 727.081 1946.5 718.354 Q1946.5 709.604 1949.56 705.021 Q1952.64 700.414 1958.45 700.414 Z" fill="#000000" fill-rule="evenodd" fill-opacity="1" /><path clip-path="url(#clip670)" d="M2276.64 716.456 Q2273.49 716.456 2271.64 718.609 Q2269.81 720.761 2269.81 724.511 Q2269.81 728.238 2271.64 730.414 Q2273.49 732.567 2276.64 732.567 Q2279.78 732.567 2281.61 730.414 Q2283.46 728.238 2283.46 724.511 Q2283.46 720.761 2281.61 718.609 Q2279.78 716.456 2276.64 716.456 M2285.92 701.803 L2285.92 706.062 Q2284.16 705.229 2282.35 704.789 Q2280.57 704.349 2278.81 704.349 Q2274.18 704.349 2271.73 707.474 Q2269.3 710.599 2268.95 716.919 Q2270.32 714.905 2272.38 713.84 Q2274.44 712.752 2276.91 712.752 Q2282.12 712.752 2285.13 715.923 Q2288.16 719.072 2288.16 724.511 Q2288.16 729.835 2285.02 733.053 Q2281.87 736.271 2276.64 736.271 Q2270.64 736.271 2267.47 731.687 Q2264.3 727.081 2264.3 718.354 Q2264.3 710.16 2268.19 705.298 Q2272.08 700.414 2278.63 700.414 Q2280.39 700.414 2282.17 700.761 Q2283.97 701.109 2285.92 701.803 Z" fill="#000000" fill-rule="evenodd" fill-opacity="1" /><path clip-path="url(#clip670)" d="M2306.22 704.118 Q2302.61 704.118 2300.78 707.683 Q2298.97 711.224 2298.97 718.354 Q2298.97 725.46 2300.78 729.025 Q2302.61 732.567 2306.22 732.567 Q2309.85 732.567 2311.66 729.025 Q2313.49 725.46 2313.49 718.354 Q2313.49 711.224 2311.66 707.683 Q2309.85 704.118 2306.22 704.118 M2306.22 700.414 Q2312.03 700.414 2315.08 705.021 Q2318.16 709.604 2318.16 718.354 Q2318.16 727.081 2315.08 731.687 Q2312.03 736.271 2306.22 736.271 Q2300.41 736.271 2297.33 731.687 Q2294.27 727.081 2294.27 718.354 Q2294.27 709.604 2297.33 705.021 Q2300.41 700.414 2306.22 700.414 Z" fill="#000000" fill-rule="evenodd" fill-opacity="1" /><path clip-path="url(#clip670)" d="M1187.69 772.271 L1227.89 772.271 L1227.89 777.682 L1211.02 777.682 L1211.02 819.791 L1204.56 819.791 L1204.56 777.682 L1187.69 777.682 L1187.69 772.271 Z" fill="#000000" fill-rule="evenodd" fill-opacity="1" /><path clip-path="url(#clip670)" d="M1231.83 784.143 L1237.69 784.143 L1237.69 819.791 L1231.83 819.791 L1231.83 784.143 M1231.83 770.266 L1237.69 770.266 L1237.69 777.682 L1231.83 777.682 L1231.83 770.266 Z" fill="#000000" fill-rule="evenodd" fill-opacity="1" /><path clip-path="url(#clip670)" d="M1277.7 790.986 Q1279.9 787.04 1282.95 785.162 Q1286.01 783.284 1290.14 783.284 Q1295.71 783.284 1298.74 787.199 Q1301.76 791.082 1301.76 798.275 L1301.76 819.791 L1295.87 819.791 L1295.87 798.466 Q1295.87 793.342 1294.06 790.859 Q1292.24 788.376 1288.52 788.376 Q1283.97 788.376 1281.33 791.4 Q1278.69 794.424 1278.69 799.644 L1278.69 819.791 L1272.8 819.791 L1272.8 798.466 Q1272.8 793.31 1270.98 790.859 Q1269.17 788.376 1265.38 788.376 Q1260.89 788.376 1258.25 791.432 Q1255.61 794.456 1255.61 799.644 L1255.61 819.791 L1249.72 819.791 L1249.72 784.143 L1255.61 784.143 L1255.61 789.681 Q1257.62 786.403 1260.42 784.844 Q1263.22 783.284 1267.07 783.284 Q1270.95 783.284 1273.66 785.257 Q1276.39 787.231 1277.7 790.986 Z" fill="#000000" fill-rule="evenodd" fill-opacity="1" /><path clip-path="url(#clip670)" d="M1343.93 800.503 L1343.93 803.368 L1317.01 803.368 Q1317.39 809.415 1320.64 812.598 Q1323.91 815.749 1329.74 815.749 Q1333.11 815.749 1336.26 814.921 Q1339.45 814.094 1342.57 812.439 L1342.57 817.977 Q1339.41 819.314 1336.1 820.014 Q1332.79 820.714 1329.39 820.714 Q1320.86 820.714 1315.86 815.749 Q1310.9 810.784 1310.9 802.317 Q1310.9 793.565 1315.61 788.44 Q1320.35 783.284 1328.37 783.284 Q1335.56 783.284 1339.73 787.931 Q1343.93 792.546 1343.93 800.503 M1338.08 798.784 Q1338.01 793.978 1335.37 791.114 Q1332.76 788.249 1328.43 788.249 Q1323.53 788.249 1320.57 791.018 Q1317.64 793.787 1317.2 798.816 L1338.08 798.784 Z" fill="#000000" fill-rule="evenodd" fill-opacity="1" /><polyline clip-path="url(#clip672)" style="stroke:#000000; stroke-linecap:butt; stroke-linejoin:round; stroke-width:2; stroke-opacity:0.1; fill:none" points="
  178.867,667.839 2352.76,667.839 
  "/>
<polyline clip-path="url(#clip672)" style="stroke:#000000; stroke-linecap:butt; stroke-linejoin:round; stroke-width:2; stroke-opacity:0.1; fill:none" points="
  178.867,520.573 2352.76,520.573 
  "/>
<polyline clip-path="url(#clip672)" style="stroke:#000000; stroke-linecap:butt; stroke-linejoin:round; stroke-width:2; stroke-opacity:0.1; fill:none" points="
  178.867,373.307 2352.76,373.307 
  "/>
<polyline clip-path="url(#clip672)" style="stroke:#000000; stroke-linecap:butt; stroke-linejoin:round; stroke-width:2; stroke-opacity:0.1; fill:none" points="
  178.867,226.041 2352.76,226.041 
  "/>
<polyline clip-path="url(#clip672)" style="stroke:#000000; stroke-linecap:butt; stroke-linejoin:round; stroke-width:2; stroke-opacity:0.1; fill:none" points="
  178.867,78.7752 2352.76,78.7752 
  "/>
<polyline clip-path="url(#clip670)" style="stroke:#000000; stroke-linecap:butt; stroke-linejoin:round; stroke-width:4; stroke-opacity:1; fill:none" points="
  178.867,674.927 178.867,47.2441 
  "/>
<polyline clip-path="url(#clip670)" style="stroke:#000000; stroke-linecap:butt; stroke-linejoin:round; stroke-width:4; stroke-opacity:1; fill:none" points="
  178.867,667.839 197.764,667.839 
  "/>
<polyline clip-path="url(#clip670)" style="stroke:#000000; stroke-linecap:butt; stroke-linejoin:round; stroke-width:4; stroke-opacity:1; fill:none" points="
  178.867,520.573 197.764,520.573 
  "/>
<polyline clip-path="url(#clip670)" style="stroke:#000000; stroke-linecap:butt; stroke-linejoin:round; stroke-width:4; stroke-opacity:1; fill:none" points="
  178.867,373.307 197.764,373.307 
  "/>
<polyline clip-path="url(#clip670)" style="stroke:#000000; stroke-linecap:butt; stroke-linejoin:round; stroke-width:4; stroke-opacity:1; fill:none" points="
  178.867,226.041 197.764,226.041 
  "/>
<polyline clip-path="url(#clip670)" style="stroke:#000000; stroke-linecap:butt; stroke-linejoin:round; stroke-width:4; stroke-opacity:1; fill:none" points="
  178.867,78.7752 197.764,78.7752 
  "/>
<path clip-path="url(#clip670)" d="M130.922 653.638 Q127.311 653.638 125.482 657.203 Q123.677 660.744 123.677 667.874 Q123.677 674.98 125.482 678.545 Q127.311 682.087 130.922 682.087 Q134.556 682.087 136.362 678.545 Q138.191 674.98 138.191 667.874 Q138.191 660.744 136.362 657.203 Q134.556 653.638 130.922 653.638 M130.922 649.934 Q136.732 649.934 139.788 654.541 Q142.867 659.124 142.867 667.874 Q142.867 676.601 139.788 681.207 Q136.732 685.791 130.922 685.791 Q125.112 685.791 122.033 681.207 Q118.978 676.601 118.978 667.874 Q118.978 659.124 122.033 654.541 Q125.112 649.934 130.922 649.934 Z" fill="#000000" fill-rule="evenodd" fill-opacity="1" /><path clip-path="url(#clip670)" d="M122.959 533.918 L130.598 533.918 L130.598 507.552 L122.288 509.219 L122.288 504.96 L130.552 503.293 L135.228 503.293 L135.228 533.918 L142.867 533.918 L142.867 537.853 L122.959 537.853 L122.959 533.918 Z" fill="#000000" fill-rule="evenodd" fill-opacity="1" /><path clip-path="url(#clip670)" d="M126.547 386.652 L142.867 386.652 L142.867 390.587 L120.922 390.587 L120.922 386.652 Q123.584 383.897 128.168 379.268 Q132.774 374.615 133.955 373.272 Q136.2 370.749 137.08 369.013 Q137.982 367.254 137.982 365.564 Q137.982 362.81 136.038 361.073 Q134.117 359.337 131.015 359.337 Q128.816 359.337 126.362 360.101 Q123.932 360.865 121.154 362.416 L121.154 357.694 Q123.978 356.56 126.432 355.981 Q128.885 355.402 130.922 355.402 Q136.293 355.402 139.487 358.087 Q142.681 360.773 142.681 365.263 Q142.681 367.393 141.871 369.314 Q141.084 371.212 138.978 373.805 Q138.399 374.476 135.297 377.694 Q132.195 380.888 126.547 386.652 Z" fill="#000000" fill-rule="evenodd" fill-opacity="1" /><path clip-path="url(#clip670)" d="M135.737 224.687 Q139.094 225.405 140.968 227.673 Q142.867 229.942 142.867 233.275 Q142.867 238.391 139.348 241.192 Q135.83 243.993 129.348 243.993 Q127.172 243.993 124.857 243.553 Q122.566 243.136 120.112 242.28 L120.112 237.766 Q122.057 238.9 124.371 239.479 Q126.686 240.057 129.209 240.057 Q133.607 240.057 135.899 238.321 Q138.214 236.585 138.214 233.275 Q138.214 230.219 136.061 228.506 Q133.931 226.77 130.112 226.77 L126.084 226.77 L126.084 222.928 L130.297 222.928 Q133.746 222.928 135.575 221.562 Q137.404 220.173 137.404 217.581 Q137.404 214.919 135.506 213.507 Q133.631 212.071 130.112 212.071 Q128.191 212.071 125.992 212.488 Q123.793 212.905 121.154 213.784 L121.154 209.618 Q123.816 208.877 126.131 208.507 Q128.469 208.136 130.529 208.136 Q135.853 208.136 138.955 210.567 Q142.056 212.974 142.056 217.095 Q142.056 219.965 140.413 221.956 Q138.769 223.923 135.737 224.687 Z" fill="#000000" fill-rule="evenodd" fill-opacity="1" /><path clip-path="url(#clip670)" d="M133.283 65.5693 L121.478 84.0182 L133.283 84.0182 L133.283 65.5693 M132.057 61.4952 L137.936 61.4952 L137.936 84.0182 L142.867 84.0182 L142.867 87.9071 L137.936 87.9071 L137.936 96.0552 L133.283 96.0552 L133.283 87.9071 L117.682 87.9071 L117.682 83.3933 L132.057 61.4952 Z" fill="#000000" fill-rule="evenodd" fill-opacity="1" /><polyline clip-path="url(#clip672)" style="stroke:#ffa500; stroke-linecap:butt; stroke-linejoin:round; stroke-width:4; stroke-opacity:1; fill:none" points="
  240.392,657.163 275.152,634.065 309.912,570.398 344.672,557.624 379.432,534.914 414.192,510.485 448.952,481.427 483.712,441.904 518.472,406.56 553.232,415.085 
  587.992,395.251 622.752,380.454 657.512,344.648 692.272,353.079 727.032,289.838 761.792,331.209 796.552,252.623 831.311,269.417 866.071,266.07 900.831,215.328 
  935.591,199.758 970.351,148.29 1005.11,176.739 1039.87,174.48 1074.63,160.177 1109.39,157.475 1144.15,153.413 1178.91,144.343 1213.67,131.079 1248.43,126.723 
  1283.19,122.804 1317.95,84.6699 1352.71,99.826 1387.47,99.9855 1422.23,88.1716 1456.99,77.3138 1491.75,88.9888 1526.51,88.0166 1561.27,80.0982 1596.03,65.0087 
  1630.79,520.573 1665.55,520.573 1700.31,520.573 1735.07,520.573 1769.83,520.573 1804.59,520.573 1839.35,520.573 1874.11,520.573 1908.87,520.573 1943.63,520.573 
  1978.39,520.573 2013.15,520.573 2047.91,520.573 2082.67,520.573 2117.43,520.573 2152.19,520.573 2186.95,520.573 2221.71,520.573 2256.47,520.573 2291.23,520.573 
  
  "/>
<polyline clip-path="url(#clip672)" style="stroke:#008000; stroke-linecap:butt; stroke-linejoin:round; stroke-width:4; stroke-opacity:1; fill:none" points="
  240.392,393.754 275.152,396.54 309.912,400.132 344.672,398.244 379.432,398.505 414.192,399.293 448.952,400.233 483.712,400.499 518.472,398.347 553.232,394.293 
  587.992,395.07 622.752,396.147 657.512,398.207 692.272,397.807 727.032,401.87 761.792,398.809 796.552,405.339 831.311,401.934 866.071,403.976 900.831,408.095 
  935.591,406.311 970.351,404.309 1005.11,395.878 1039.87,394.436 1074.63,394.687 1109.39,394.437 1144.15,395.591 1178.91,397.808 1213.67,400.077 1248.43,401.498 
  1283.19,403.567 1317.95,406.248 1352.71,402.86 1387.47,403.447 1422.23,405.028 1456.99,405.067 1491.75,403.545 1526.51,405.007 1561.27,406.693 1596.03,406.906 
  1630.79,403.749 1665.55,403.749 1700.31,403.749 1735.07,403.749 1769.83,403.749 1804.59,403.749 1839.35,403.749 1874.11,403.749 1908.87,403.749 1943.63,403.749 
  1978.39,403.749 2013.15,403.749 2047.91,403.749 2082.67,403.749 2117.43,403.749 2152.19,403.749 2186.95,403.749 2221.71,403.749 2256.47,403.749 2291.23,403.749 
  
  "/>
<path clip-path="url(#clip670)" d="
M1550.21 223.687 L2280.29 223.687 L2280.29 68.1669 L1550.21 68.1669  Z
  " fill="#ffffff" fill-rule="evenodd" fill-opacity="1"/>
<polyline clip-path="url(#clip670)" style="stroke:#000000; stroke-linecap:butt; stroke-linejoin:round; stroke-width:4; stroke-opacity:1; fill:none" points="
  1550.21,223.687 2280.29,223.687 2280.29,68.1669 1550.21,68.1669 1550.21,223.687 
  "/>
<polyline clip-path="url(#clip670)" style="stroke:#ffa500; stroke-linecap:butt; stroke-linejoin:round; stroke-width:4; stroke-opacity:1; fill:none" points="
  1574.36,120.007 1719.29,120.007 
  "/>
<path clip-path="url(#clip670)" d="M1765.16 121.639 L1765.16 137.287 L1760.9 137.287 L1760.9 121.778 Q1760.9 118.097 1759.46 116.268 Q1758.03 114.44 1755.16 114.44 Q1751.71 114.44 1749.72 116.639 Q1747.73 118.838 1747.73 122.634 L1747.73 137.287 L1743.45 137.287 L1743.45 111.361 L1747.73 111.361 L1747.73 115.389 Q1749.26 113.051 1751.32 111.893 Q1753.4 110.736 1756.11 110.736 Q1760.57 110.736 1762.87 113.514 Q1765.16 116.268 1765.16 121.639 Z" fill="#000000" fill-rule="evenodd" fill-opacity="1" /><path clip-path="url(#clip670)" d="M1783.7 114.347 Q1780.27 114.347 1778.28 117.032 Q1776.29 119.694 1776.29 124.347 Q1776.29 129 1778.26 131.685 Q1780.25 134.347 1783.7 134.347 Q1787.1 134.347 1789.09 131.662 Q1791.08 128.977 1791.08 124.347 Q1791.08 119.741 1789.09 117.055 Q1787.1 114.347 1783.7 114.347 M1783.7 110.736 Q1789.26 110.736 1792.43 114.347 Q1795.6 117.958 1795.6 124.347 Q1795.6 130.713 1792.43 134.347 Q1789.26 137.958 1783.7 137.958 Q1778.12 137.958 1774.95 134.347 Q1771.8 130.713 1771.8 124.347 Q1771.8 117.958 1774.95 114.347 Q1778.12 110.736 1783.7 110.736 Z" fill="#000000" fill-rule="evenodd" fill-opacity="1" /><path clip-path="url(#clip670)" d="M1824.21 121.639 L1824.21 137.287 L1819.95 137.287 L1819.95 121.778 Q1819.95 118.097 1818.51 116.268 Q1817.08 114.44 1814.21 114.44 Q1810.76 114.44 1808.77 116.639 Q1806.78 118.838 1806.78 122.634 L1806.78 137.287 L1802.5 137.287 L1802.5 111.361 L1806.78 111.361 L1806.78 115.389 Q1808.31 113.051 1810.37 111.893 Q1812.45 110.736 1815.16 110.736 Q1819.63 110.736 1821.92 113.514 Q1824.21 116.268 1824.21 121.639 Z" fill="#000000" fill-rule="evenodd" fill-opacity="1" /><path clip-path="url(#clip670)" d="M1830.55 122.403 L1843.03 122.403 L1843.03 126.199 L1830.55 126.199 L1830.55 122.403 Z" fill="#000000" fill-rule="evenodd" fill-opacity="1" /><path clip-path="url(#clip670)" d="M1862.94 101.269 L1862.94 104.81 L1858.86 104.81 Q1856.57 104.81 1855.67 105.736 Q1854.79 106.662 1854.79 109.069 L1854.79 111.361 L1861.8 111.361 L1861.8 114.671 L1854.79 114.671 L1854.79 137.287 L1850.5 137.287 L1850.5 114.671 L1846.43 114.671 L1846.43 111.361 L1850.5 111.361 L1850.5 109.556 Q1850.5 105.227 1852.52 103.259 Q1854.53 101.269 1858.91 101.269 L1862.94 101.269 Z" fill="#000000" fill-rule="evenodd" fill-opacity="1" /><path clip-path="url(#clip670)" d="M1866.5 111.361 L1870.76 111.361 L1870.76 137.287 L1866.5 137.287 L1866.5 111.361 M1866.5 101.269 L1870.76 101.269 L1870.76 106.662 L1866.5 106.662 L1866.5 101.269 Z" fill="#000000" fill-rule="evenodd" fill-opacity="1" /><path clip-path="url(#clip670)" d="M1901.22 121.639 L1901.22 137.287 L1896.96 137.287 L1896.96 121.778 Q1896.96 118.097 1895.53 116.268 Q1894.09 114.44 1891.22 114.44 Q1887.77 114.44 1885.78 116.639 Q1883.79 118.838 1883.79 122.634 L1883.79 137.287 L1879.51 137.287 L1879.51 111.361 L1883.79 111.361 L1883.79 115.389 Q1885.32 113.051 1887.38 111.893 Q1889.46 110.736 1892.17 110.736 Q1896.64 110.736 1898.93 113.514 Q1901.22 116.268 1901.22 121.639 Z" fill="#000000" fill-rule="evenodd" fill-opacity="1" /><path clip-path="url(#clip670)" d="M1921.5 124.255 Q1916.34 124.255 1914.35 125.435 Q1912.36 126.616 1912.36 129.463 Q1912.36 131.731 1913.84 133.074 Q1915.34 134.393 1917.91 134.393 Q1921.45 134.393 1923.58 131.893 Q1925.74 129.37 1925.74 125.204 L1925.74 124.255 L1921.5 124.255 M1930 122.495 L1930 137.287 L1925.74 137.287 L1925.74 133.352 Q1924.28 135.713 1922.1 136.847 Q1919.93 137.958 1916.78 137.958 Q1912.8 137.958 1910.44 135.736 Q1908.1 133.491 1908.1 129.741 Q1908.1 125.366 1911.01 123.143 Q1913.95 120.921 1919.76 120.921 L1925.74 120.921 L1925.74 120.505 Q1925.74 117.565 1923.79 115.968 Q1921.87 114.347 1918.37 114.347 Q1916.15 114.347 1914.05 114.88 Q1911.94 115.412 1910 116.477 L1910 112.542 Q1912.33 111.639 1914.53 111.199 Q1916.73 110.736 1918.81 110.736 Q1924.44 110.736 1927.22 113.653 Q1930 116.569 1930 122.495 Z" fill="#000000" fill-rule="evenodd" fill-opacity="1" /><path clip-path="url(#clip670)" d="M1960.32 121.639 L1960.32 137.287 L1956.06 137.287 L1956.06 121.778 Q1956.06 118.097 1954.62 116.268 Q1953.19 114.44 1950.32 114.44 Q1946.87 114.44 1944.88 116.639 Q1942.89 118.838 1942.89 122.634 L1942.89 137.287 L1938.61 137.287 L1938.61 111.361 L1942.89 111.361 L1942.89 115.389 Q1944.42 113.051 1946.48 111.893 Q1948.56 110.736 1951.27 110.736 Q1955.74 110.736 1958.03 113.514 Q1960.32 116.268 1960.32 121.639 Z" fill="#000000" fill-rule="evenodd" fill-opacity="1" /><path clip-path="url(#clip670)" d="M1987.47 112.356 L1987.47 116.338 Q1985.67 115.343 1983.84 114.856 Q1982.03 114.347 1980.18 114.347 Q1976.04 114.347 1973.74 116.986 Q1971.45 119.602 1971.45 124.347 Q1971.45 129.092 1973.74 131.731 Q1976.04 134.347 1980.18 134.347 Q1982.03 134.347 1983.84 133.861 Q1985.67 133.352 1987.47 132.356 L1987.47 136.292 Q1985.69 137.125 1983.77 137.541 Q1981.87 137.958 1979.72 137.958 Q1973.86 137.958 1970.41 134.278 Q1966.96 130.597 1966.96 124.347 Q1966.96 118.005 1970.43 114.37 Q1973.93 110.736 1979.99 110.736 Q1981.96 110.736 1983.84 111.153 Q1985.71 111.546 1987.47 112.356 Z" fill="#000000" fill-rule="evenodd" fill-opacity="1" /><path clip-path="url(#clip670)" d="M1994.88 111.361 L1999.14 111.361 L1999.14 137.287 L1994.88 137.287 L1994.88 111.361 M1994.88 101.269 L1999.14 101.269 L1999.14 106.662 L1994.88 106.662 L1994.88 101.269 Z" fill="#000000" fill-rule="evenodd" fill-opacity="1" /><path clip-path="url(#clip670)" d="M2019.83 124.255 Q2014.67 124.255 2012.68 125.435 Q2010.69 126.616 2010.69 129.463 Q2010.69 131.731 2012.17 133.074 Q2013.68 134.393 2016.24 134.393 Q2019.79 134.393 2021.92 131.893 Q2024.07 129.37 2024.07 125.204 L2024.07 124.255 L2019.83 124.255 M2028.33 122.495 L2028.33 137.287 L2024.07 137.287 L2024.07 133.352 Q2022.61 135.713 2020.43 136.847 Q2018.26 137.958 2015.11 137.958 Q2011.13 137.958 2008.77 135.736 Q2006.43 133.491 2006.43 129.741 Q2006.43 125.366 2009.35 123.143 Q2012.29 120.921 2018.1 120.921 L2024.07 120.921 L2024.07 120.505 Q2024.07 117.565 2022.12 115.968 Q2020.2 114.347 2016.71 114.347 Q2014.49 114.347 2012.38 114.88 Q2010.27 115.412 2008.33 116.477 L2008.33 112.542 Q2010.67 111.639 2012.87 111.199 Q2015.06 110.736 2017.15 110.736 Q2022.77 110.736 2025.55 113.653 Q2028.33 116.569 2028.33 122.495 Z" fill="#000000" fill-rule="evenodd" fill-opacity="1" /><path clip-path="url(#clip670)" d="M2037.1 101.269 L2041.36 101.269 L2041.36 137.287 L2037.1 137.287 L2037.1 101.269 Z" fill="#000000" fill-rule="evenodd" fill-opacity="1" /><path clip-path="url(#clip670)" d="M2065.34 111.361 L2069.6 111.361 L2069.6 137.287 L2065.34 137.287 L2065.34 111.361 M2065.34 101.269 L2069.6 101.269 L2069.6 106.662 L2065.34 106.662 L2065.34 101.269 Z" fill="#000000" fill-rule="evenodd" fill-opacity="1" /><path clip-path="url(#clip670)" d="M2100.06 121.639 L2100.06 137.287 L2095.8 137.287 L2095.8 121.778 Q2095.8 118.097 2094.37 116.268 Q2092.93 114.44 2090.06 114.44 Q2086.61 114.44 2084.62 116.639 Q2082.63 118.838 2082.63 122.634 L2082.63 137.287 L2078.35 137.287 L2078.35 111.361 L2082.63 111.361 L2082.63 115.389 Q2084.16 113.051 2086.22 111.893 Q2088.3 110.736 2091.01 110.736 Q2095.48 110.736 2097.77 113.514 Q2100.06 116.268 2100.06 121.639 Z" fill="#000000" fill-rule="evenodd" fill-opacity="1" /><path clip-path="url(#clip670)" d="M2127.22 112.356 L2127.22 116.338 Q2125.41 115.343 2123.58 114.856 Q2121.78 114.347 2119.92 114.347 Q2115.78 114.347 2113.49 116.986 Q2111.2 119.602 2111.2 124.347 Q2111.2 129.092 2113.49 131.731 Q2115.78 134.347 2119.92 134.347 Q2121.78 134.347 2123.58 133.861 Q2125.41 133.352 2127.22 132.356 L2127.22 136.292 Q2125.43 137.125 2123.51 137.541 Q2121.61 137.958 2119.46 137.958 Q2113.61 137.958 2110.16 134.278 Q2106.71 130.597 2106.71 124.347 Q2106.71 118.005 2110.18 114.37 Q2113.67 110.736 2119.74 110.736 Q2121.71 110.736 2123.58 111.153 Q2125.46 111.546 2127.22 112.356 Z" fill="#000000" fill-rule="evenodd" fill-opacity="1" /><path clip-path="url(#clip670)" d="M2144.67 114.347 Q2141.24 114.347 2139.25 117.032 Q2137.26 119.694 2137.26 124.347 Q2137.26 129 2139.23 131.685 Q2141.22 134.347 2144.67 134.347 Q2148.07 134.347 2150.06 131.662 Q2152.05 128.977 2152.05 124.347 Q2152.05 119.741 2150.06 117.055 Q2148.07 114.347 2144.67 114.347 M2144.67 110.736 Q2150.23 110.736 2153.4 114.347 Q2156.57 117.958 2156.57 124.347 Q2156.57 130.713 2153.4 134.347 Q2150.23 137.958 2144.67 137.958 Q2139.09 137.958 2135.92 134.347 Q2132.77 130.713 2132.77 124.347 Q2132.77 117.958 2135.92 114.347 Q2139.09 110.736 2144.67 110.736 Z" fill="#000000" fill-rule="evenodd" fill-opacity="1" /><path clip-path="url(#clip670)" d="M2183.81 116.338 Q2185.41 113.468 2187.63 112.102 Q2189.85 110.736 2192.86 110.736 Q2196.92 110.736 2199.11 113.583 Q2201.31 116.407 2201.31 121.639 L2201.31 137.287 L2197.03 137.287 L2197.03 121.778 Q2197.03 118.051 2195.71 116.245 Q2194.39 114.44 2191.68 114.44 Q2188.37 114.44 2186.45 116.639 Q2184.53 118.838 2184.53 122.634 L2184.53 137.287 L2180.25 137.287 L2180.25 121.778 Q2180.25 118.028 2178.93 116.245 Q2177.61 114.44 2174.85 114.44 Q2171.59 114.44 2169.67 116.662 Q2167.75 118.861 2167.75 122.634 L2167.75 137.287 L2163.47 137.287 L2163.47 111.361 L2167.75 111.361 L2167.75 115.389 Q2169.21 113.005 2171.24 111.87 Q2173.28 110.736 2176.08 110.736 Q2178.91 110.736 2180.87 112.171 Q2182.86 113.606 2183.81 116.338 Z" fill="#000000" fill-rule="evenodd" fill-opacity="1" /><path clip-path="url(#clip670)" d="M2231.98 123.259 L2231.98 125.342 L2212.4 125.342 Q2212.68 129.741 2215.04 132.055 Q2217.42 134.347 2221.66 134.347 Q2224.11 134.347 2226.41 133.745 Q2228.72 133.143 2230.99 131.94 L2230.99 135.967 Q2228.7 136.94 2226.29 137.449 Q2223.88 137.958 2221.41 137.958 Q2215.2 137.958 2211.57 134.347 Q2207.96 130.736 2207.96 124.579 Q2207.96 118.213 2211.38 114.486 Q2214.83 110.736 2220.66 110.736 Q2225.9 110.736 2228.93 114.116 Q2231.98 117.472 2231.98 123.259 M2227.73 122.009 Q2227.68 118.514 2225.76 116.43 Q2223.86 114.347 2220.71 114.347 Q2217.15 114.347 2214.99 116.361 Q2212.86 118.375 2212.54 122.032 L2227.73 122.009 Z" fill="#000000" fill-rule="evenodd" fill-opacity="1" /><polyline clip-path="url(#clip670)" style="stroke:#008000; stroke-linecap:butt; stroke-linejoin:round; stroke-width:4; stroke-opacity:1; fill:none" points="
  1574.36,171.847 1719.29,171.847 
  "/>
<path clip-path="url(#clip670)" d="M1763.95 164.196 L1763.95 168.178 Q1762.15 167.183 1760.32 166.696 Q1758.51 166.187 1756.66 166.187 Q1752.52 166.187 1750.23 168.826 Q1747.94 171.442 1747.94 176.187 Q1747.94 180.932 1750.23 183.571 Q1752.52 186.187 1756.66 186.187 Q1758.51 186.187 1760.32 185.701 Q1762.15 185.192 1763.95 184.196 L1763.95 188.132 Q1762.17 188.965 1760.25 189.381 Q1758.35 189.798 1756.2 189.798 Q1750.34 189.798 1746.89 186.118 Q1743.45 182.437 1743.45 176.187 Q1743.45 169.845 1746.92 166.21 Q1750.41 162.576 1756.48 162.576 Q1758.45 162.576 1760.32 162.993 Q1762.2 163.386 1763.95 164.196 Z" fill="#000000" fill-rule="evenodd" fill-opacity="1" /><path clip-path="url(#clip670)" d="M1781.41 166.187 Q1777.98 166.187 1775.99 168.872 Q1774 171.534 1774 176.187 Q1774 180.84 1775.97 183.525 Q1777.96 186.187 1781.41 186.187 Q1784.81 186.187 1786.8 183.502 Q1788.79 180.817 1788.79 176.187 Q1788.79 171.581 1786.8 168.895 Q1784.81 166.187 1781.41 166.187 M1781.41 162.576 Q1786.96 162.576 1790.13 166.187 Q1793.31 169.798 1793.31 176.187 Q1793.31 182.553 1790.13 186.187 Q1786.96 189.798 1781.41 189.798 Q1775.83 189.798 1772.66 186.187 Q1769.51 182.553 1769.51 176.187 Q1769.51 169.798 1772.66 166.187 Q1775.83 162.576 1781.41 162.576 Z" fill="#000000" fill-rule="evenodd" fill-opacity="1" /><path clip-path="url(#clip670)" d="M1821.92 173.479 L1821.92 189.127 L1817.66 189.127 L1817.66 173.618 Q1817.66 169.937 1816.22 168.108 Q1814.79 166.28 1811.92 166.28 Q1808.47 166.28 1806.48 168.479 Q1804.49 170.678 1804.49 174.474 L1804.49 189.127 L1800.2 189.127 L1800.2 163.201 L1804.49 163.201 L1804.49 167.229 Q1806.01 164.891 1808.07 163.733 Q1810.16 162.576 1812.87 162.576 Q1817.33 162.576 1819.63 165.354 Q1821.92 168.108 1821.92 173.479 Z" fill="#000000" fill-rule="evenodd" fill-opacity="1" /><path clip-path="url(#clip670)" d="M1846.94 163.965 L1846.94 167.993 Q1845.13 167.067 1843.19 166.604 Q1841.25 166.141 1839.16 166.141 Q1835.99 166.141 1834.39 167.113 Q1832.82 168.085 1832.82 170.03 Q1832.82 171.511 1833.95 172.368 Q1835.09 173.201 1838.51 173.965 L1839.97 174.289 Q1844.51 175.261 1846.41 177.044 Q1848.33 178.803 1848.33 181.974 Q1848.33 185.585 1845.46 187.692 Q1842.61 189.798 1837.61 189.798 Q1835.53 189.798 1833.26 189.381 Q1831.01 188.988 1828.51 188.178 L1828.51 183.78 Q1830.88 185.007 1833.17 185.632 Q1835.46 186.233 1837.7 186.233 Q1840.71 186.233 1842.33 185.215 Q1843.95 184.173 1843.95 182.298 Q1843.95 180.562 1842.77 179.636 Q1841.62 178.71 1837.66 177.854 L1836.18 177.507 Q1832.22 176.673 1830.46 174.96 Q1828.7 173.224 1828.7 170.215 Q1828.7 166.558 1831.29 164.567 Q1833.88 162.576 1838.65 162.576 Q1841.01 162.576 1843.1 162.923 Q1845.18 163.271 1846.94 163.965 Z" fill="#000000" fill-rule="evenodd" fill-opacity="1" /><path clip-path="url(#clip670)" d="M1854.67 178.895 L1854.67 163.201 L1858.93 163.201 L1858.93 178.733 Q1858.93 182.414 1860.37 184.266 Q1861.8 186.094 1864.67 186.094 Q1868.12 186.094 1870.11 183.895 Q1872.13 181.696 1872.13 177.9 L1872.13 163.201 L1876.38 163.201 L1876.38 189.127 L1872.13 189.127 L1872.13 185.145 Q1870.57 187.507 1868.51 188.664 Q1866.48 189.798 1863.77 189.798 Q1859.3 189.798 1856.99 187.02 Q1854.67 184.243 1854.67 178.895 M1865.39 162.576 L1865.39 162.576 Z" fill="#000000" fill-rule="evenodd" fill-opacity="1" /><path clip-path="url(#clip670)" d="M1905.34 168.178 Q1906.94 165.308 1909.16 163.942 Q1911.38 162.576 1914.39 162.576 Q1918.44 162.576 1920.64 165.423 Q1922.84 168.247 1922.84 173.479 L1922.84 189.127 L1918.56 189.127 L1918.56 173.618 Q1918.56 169.891 1917.24 168.085 Q1915.92 166.28 1913.21 166.28 Q1909.9 166.28 1907.98 168.479 Q1906.06 170.678 1906.06 174.474 L1906.06 189.127 L1901.78 189.127 L1901.78 173.618 Q1901.78 169.868 1900.46 168.085 Q1899.14 166.28 1896.38 166.28 Q1893.12 166.28 1891.2 168.502 Q1889.28 170.701 1889.28 174.474 L1889.28 189.127 L1885 189.127 L1885 163.201 L1889.28 163.201 L1889.28 167.229 Q1890.74 164.845 1892.77 163.71 Q1894.81 162.576 1897.61 162.576 Q1900.44 162.576 1902.4 164.011 Q1904.39 165.446 1905.34 168.178 Z" fill="#000000" fill-rule="evenodd" fill-opacity="1" /><path clip-path="url(#clip670)" d="M1935.46 185.238 L1935.46 198.988 L1931.18 198.988 L1931.18 163.201 L1935.46 163.201 L1935.46 167.136 Q1936.8 164.821 1938.84 163.71 Q1940.9 162.576 1943.75 162.576 Q1948.47 162.576 1951.41 166.326 Q1954.37 170.076 1954.37 176.187 Q1954.37 182.298 1951.41 186.048 Q1948.47 189.798 1943.75 189.798 Q1940.9 189.798 1938.84 188.687 Q1936.8 187.553 1935.46 185.238 M1949.95 176.187 Q1949.95 171.488 1948 168.826 Q1946.08 166.141 1942.7 166.141 Q1939.32 166.141 1937.38 168.826 Q1935.46 171.488 1935.46 176.187 Q1935.46 180.886 1937.38 183.571 Q1939.32 186.233 1942.7 186.233 Q1946.08 186.233 1948 183.571 Q1949.95 180.886 1949.95 176.187 Z" fill="#000000" fill-rule="evenodd" fill-opacity="1" /><path clip-path="url(#clip670)" d="M1965.64 155.84 L1965.64 163.201 L1974.42 163.201 L1974.42 166.511 L1965.64 166.511 L1965.64 180.585 Q1965.64 183.757 1966.5 184.659 Q1967.38 185.562 1970.04 185.562 L1974.42 185.562 L1974.42 189.127 L1970.04 189.127 Q1965.11 189.127 1963.24 187.298 Q1961.36 185.446 1961.36 180.585 L1961.36 166.511 L1958.24 166.511 L1958.24 163.201 L1961.36 163.201 L1961.36 155.84 L1965.64 155.84 Z" fill="#000000" fill-rule="evenodd" fill-opacity="1" /><path clip-path="url(#clip670)" d="M1980.02 163.201 L1984.28 163.201 L1984.28 189.127 L1980.02 189.127 L1980.02 163.201 M1980.02 153.109 L1984.28 153.109 L1984.28 158.502 L1980.02 158.502 L1980.02 153.109 Z" fill="#000000" fill-rule="evenodd" fill-opacity="1" /><path clip-path="url(#clip670)" d="M2003.24 166.187 Q1999.81 166.187 1997.82 168.872 Q1995.83 171.534 1995.83 176.187 Q1995.83 180.84 1997.8 183.525 Q1999.79 186.187 2003.24 186.187 Q2006.64 186.187 2008.63 183.502 Q2010.62 180.817 2010.62 176.187 Q2010.62 171.581 2008.63 168.895 Q2006.64 166.187 2003.24 166.187 M2003.24 162.576 Q2008.79 162.576 2011.96 166.187 Q2015.13 169.798 2015.13 176.187 Q2015.13 182.553 2011.96 186.187 Q2008.79 189.798 2003.24 189.798 Q1997.66 189.798 1994.49 186.187 Q1991.34 182.553 1991.34 176.187 Q1991.34 169.798 1994.49 166.187 Q1997.66 162.576 2003.24 162.576 Z" fill="#000000" fill-rule="evenodd" fill-opacity="1" /><path clip-path="url(#clip670)" d="M2043.74 173.479 L2043.74 189.127 L2039.49 189.127 L2039.49 173.618 Q2039.49 169.937 2038.05 168.108 Q2036.61 166.28 2033.74 166.28 Q2030.3 166.28 2028.3 168.479 Q2026.31 170.678 2026.31 174.474 L2026.31 189.127 L2022.03 189.127 L2022.03 163.201 L2026.31 163.201 L2026.31 167.229 Q2027.84 164.891 2029.9 163.733 Q2031.99 162.576 2034.69 162.576 Q2039.16 162.576 2041.45 165.354 Q2043.74 168.108 2043.74 173.479 Z" fill="#000000" fill-rule="evenodd" fill-opacity="1" /><path clip-path="url(#clip670)" d="
M178.867 1874.93 L2352.76 1874.93 L2352.76 1247.24 L178.867 1247.24  Z
  " fill="#ffffff" fill-rule="evenodd" fill-opacity="1"/>
<defs>
  <clipPath id="clip673">
    <rect x="178" y="1247" width="2175" height="629"/>
  </clipPath>
</defs>
<polyline clip-path="url(#clip673)" style="stroke:#000000; stroke-linecap:butt; stroke-linejoin:round; stroke-width:2; stroke-opacity:0.1; fill:none" points="
  206.211,1874.93 206.211,1247.24 
  "/>
<polyline clip-path="url(#clip673)" style="stroke:#000000; stroke-linecap:butt; stroke-linejoin:round; stroke-width:2; stroke-opacity:0.1; fill:none" points="
  548.018,1874.93 548.018,1247.24 
  "/>
<polyline clip-path="url(#clip673)" style="stroke:#000000; stroke-linecap:butt; stroke-linejoin:round; stroke-width:2; stroke-opacity:0.1; fill:none" points="
  889.824,1874.93 889.824,1247.24 
  "/>
<polyline clip-path="url(#clip673)" style="stroke:#000000; stroke-linecap:butt; stroke-linejoin:round; stroke-width:2; stroke-opacity:0.1; fill:none" points="
  1231.63,1874.93 1231.63,1247.24 
  "/>
<polyline clip-path="url(#clip673)" style="stroke:#000000; stroke-linecap:butt; stroke-linejoin:round; stroke-width:2; stroke-opacity:0.1; fill:none" points="
  1573.44,1874.93 1573.44,1247.24 
  "/>
<polyline clip-path="url(#clip673)" style="stroke:#000000; stroke-linecap:butt; stroke-linejoin:round; stroke-width:2; stroke-opacity:0.1; fill:none" points="
  1915.24,1874.93 1915.24,1247.24 
  "/>
<polyline clip-path="url(#clip673)" style="stroke:#000000; stroke-linecap:butt; stroke-linejoin:round; stroke-width:2; stroke-opacity:0.1; fill:none" points="
  2257.05,1874.93 2257.05,1247.24 
  "/>
<polyline clip-path="url(#clip670)" style="stroke:#000000; stroke-linecap:butt; stroke-linejoin:round; stroke-width:4; stroke-opacity:1; fill:none" points="
  178.867,1874.93 2352.76,1874.93 
  "/>
<polyline clip-path="url(#clip670)" style="stroke:#000000; stroke-linecap:butt; stroke-linejoin:round; stroke-width:4; stroke-opacity:1; fill:none" points="
  206.211,1874.93 206.211,1856.03 
  "/>
<polyline clip-path="url(#clip670)" style="stroke:#000000; stroke-linecap:butt; stroke-linejoin:round; stroke-width:4; stroke-opacity:1; fill:none" points="
  548.018,1874.93 548.018,1856.03 
  "/>
<polyline clip-path="url(#clip670)" style="stroke:#000000; stroke-linecap:butt; stroke-linejoin:round; stroke-width:4; stroke-opacity:1; fill:none" points="
  889.824,1874.93 889.824,1856.03 
  "/>
<polyline clip-path="url(#clip670)" style="stroke:#000000; stroke-linecap:butt; stroke-linejoin:round; stroke-width:4; stroke-opacity:1; fill:none" points="
  1231.63,1874.93 1231.63,1856.03 
  "/>
<polyline clip-path="url(#clip670)" style="stroke:#000000; stroke-linecap:butt; stroke-linejoin:round; stroke-width:4; stroke-opacity:1; fill:none" points="
  1573.44,1874.93 1573.44,1856.03 
  "/>
<polyline clip-path="url(#clip670)" style="stroke:#000000; stroke-linecap:butt; stroke-linejoin:round; stroke-width:4; stroke-opacity:1; fill:none" points="
  1915.24,1874.93 1915.24,1856.03 
  "/>
<polyline clip-path="url(#clip670)" style="stroke:#000000; stroke-linecap:butt; stroke-linejoin:round; stroke-width:4; stroke-opacity:1; fill:none" points="
  2257.05,1874.93 2257.05,1856.03 
  "/>
<path clip-path="url(#clip670)" d="M206.211 1904.12 Q202.6 1904.12 200.771 1907.68 Q198.966 1911.22 198.966 1918.35 Q198.966 1925.46 200.771 1929.03 Q202.6 1932.57 206.211 1932.57 Q209.845 1932.57 211.651 1929.03 Q213.48 1925.46 213.48 1918.35 Q213.48 1911.22 211.651 1907.68 Q209.845 1904.12 206.211 1904.12 M206.211 1900.41 Q212.021 1900.41 215.077 1905.02 Q218.156 1909.6 218.156 1918.35 Q218.156 1927.08 215.077 1931.69 Q212.021 1936.27 206.211 1936.27 Q200.401 1936.27 197.322 1931.69 Q194.267 1927.08 194.267 1918.35 Q194.267 1909.6 197.322 1905.02 Q200.401 1900.41 206.211 1900.41 Z" fill="#000000" fill-rule="evenodd" fill-opacity="1" /><path clip-path="url(#clip670)" d="M522.705 1931.66 L530.344 1931.66 L530.344 1905.3 L522.034 1906.97 L522.034 1902.71 L530.298 1901.04 L534.974 1901.04 L534.974 1931.66 L542.613 1931.66 L542.613 1935.6 L522.705 1935.6 L522.705 1931.66 Z" fill="#000000" fill-rule="evenodd" fill-opacity="1" /><path clip-path="url(#clip670)" d="M562.057 1904.12 Q558.446 1904.12 556.617 1907.68 Q554.812 1911.22 554.812 1918.35 Q554.812 1925.46 556.617 1929.03 Q558.446 1932.57 562.057 1932.57 Q565.691 1932.57 567.497 1929.03 Q569.325 1925.46 569.325 1918.35 Q569.325 1911.22 567.497 1907.68 Q565.691 1904.12 562.057 1904.12 M562.057 1900.41 Q567.867 1900.41 570.923 1905.02 Q574.001 1909.6 574.001 1918.35 Q574.001 1927.08 570.923 1931.69 Q567.867 1936.27 562.057 1936.27 Q556.247 1936.27 553.168 1931.69 Q550.113 1927.08 550.113 1918.35 Q550.113 1909.6 553.168 1905.02 Q556.247 1900.41 562.057 1900.41 Z" fill="#000000" fill-rule="evenodd" fill-opacity="1" /><path clip-path="url(#clip670)" d="M868.597 1931.66 L884.917 1931.66 L884.917 1935.6 L862.972 1935.6 L862.972 1931.66 Q865.634 1928.91 870.218 1924.28 Q874.824 1919.63 876.005 1918.28 Q878.25 1915.76 879.13 1914.03 Q880.033 1912.27 880.033 1910.58 Q880.033 1907.82 878.088 1906.09 Q876.167 1904.35 873.065 1904.35 Q870.866 1904.35 868.412 1905.11 Q865.982 1905.88 863.204 1907.43 L863.204 1902.71 Q866.028 1901.57 868.482 1900.99 Q870.935 1900.41 872.972 1900.41 Q878.343 1900.41 881.537 1903.1 Q884.732 1905.78 884.732 1910.28 Q884.732 1912.4 883.921 1914.33 Q883.134 1916.22 881.028 1918.82 Q880.449 1919.49 877.347 1922.71 Q874.246 1925.9 868.597 1931.66 Z" fill="#000000" fill-rule="evenodd" fill-opacity="1" /><path clip-path="url(#clip670)" d="M904.731 1904.12 Q901.12 1904.12 899.292 1907.68 Q897.486 1911.22 897.486 1918.35 Q897.486 1925.46 899.292 1929.03 Q901.12 1932.57 904.731 1932.57 Q908.366 1932.57 910.171 1929.03 Q912 1925.46 912 1918.35 Q912 1911.22 910.171 1907.68 Q908.366 1904.12 904.731 1904.12 M904.731 1900.41 Q910.542 1900.41 913.597 1905.02 Q916.676 1909.6 916.676 1918.35 Q916.676 1927.08 913.597 1931.69 Q910.542 1936.27 904.731 1936.27 Q898.921 1936.27 895.843 1931.69 Q892.787 1927.08 892.787 1918.35 Q892.787 1909.6 895.843 1905.02 Q898.921 1900.41 904.731 1900.41 Z" fill="#000000" fill-rule="evenodd" fill-opacity="1" /><path clip-path="url(#clip670)" d="M1220.47 1916.97 Q1223.83 1917.68 1225.7 1919.95 Q1227.6 1922.22 1227.6 1925.55 Q1227.6 1930.67 1224.08 1933.47 Q1220.57 1936.27 1214.08 1936.27 Q1211.91 1936.27 1209.59 1935.83 Q1207.3 1935.41 1204.85 1934.56 L1204.85 1930.04 Q1206.79 1931.18 1209.11 1931.76 Q1211.42 1932.34 1213.95 1932.34 Q1218.34 1932.34 1220.64 1930.6 Q1222.95 1928.86 1222.95 1925.55 Q1222.95 1922.5 1220.8 1920.78 Q1218.67 1919.05 1214.85 1919.05 L1210.82 1919.05 L1210.82 1915.21 L1215.03 1915.21 Q1218.48 1915.21 1220.31 1913.84 Q1222.14 1912.45 1222.14 1909.86 Q1222.14 1907.2 1220.24 1905.78 Q1218.37 1904.35 1214.85 1904.35 Q1212.93 1904.35 1210.73 1904.77 Q1208.53 1905.18 1205.89 1906.06 L1205.89 1901.9 Q1208.55 1901.15 1210.87 1900.78 Q1213.2 1900.41 1215.26 1900.41 Q1220.59 1900.41 1223.69 1902.84 Q1226.79 1905.25 1226.79 1909.37 Q1226.79 1912.24 1225.15 1914.23 Q1223.51 1916.2 1220.47 1916.97 Z" fill="#000000" fill-rule="evenodd" fill-opacity="1" /><path clip-path="url(#clip670)" d="M1246.47 1904.12 Q1242.86 1904.12 1241.03 1907.68 Q1239.22 1911.22 1239.22 1918.35 Q1239.22 1925.46 1241.03 1929.03 Q1242.86 1932.57 1246.47 1932.57 Q1250.1 1932.57 1251.91 1929.03 Q1253.74 1925.46 1253.74 1918.35 Q1253.74 1911.22 1251.91 1907.68 Q1250.1 1904.12 1246.47 1904.12 M1246.47 1900.41 Q1252.28 1900.41 1255.33 1905.02 Q1258.41 1909.6 1258.41 1918.35 Q1258.41 1927.08 1255.33 1931.69 Q1252.28 1936.27 1246.47 1936.27 Q1240.66 1936.27 1237.58 1931.69 Q1234.52 1927.08 1234.52 1918.35 Q1234.52 1909.6 1237.58 1905.02 Q1240.66 1900.41 1246.47 1900.41 Z" fill="#000000" fill-rule="evenodd" fill-opacity="1" /><path clip-path="url(#clip670)" d="M1561.61 1905.11 L1549.8 1923.56 L1561.61 1923.56 L1561.61 1905.11 M1560.38 1901.04 L1566.26 1901.04 L1566.26 1923.56 L1571.19 1923.56 L1571.19 1927.45 L1566.26 1927.45 L1566.26 1935.6 L1561.61 1935.6 L1561.61 1927.45 L1546.01 1927.45 L1546.01 1922.94 L1560.38 1901.04 Z" fill="#000000" fill-rule="evenodd" fill-opacity="1" /><path clip-path="url(#clip670)" d="M1588.92 1904.12 Q1585.31 1904.12 1583.48 1907.68 Q1581.68 1911.22 1581.68 1918.35 Q1581.68 1925.46 1583.48 1929.03 Q1585.31 1932.57 1588.92 1932.57 Q1592.56 1932.57 1594.36 1929.03 Q1596.19 1925.46 1596.19 1918.35 Q1596.19 1911.22 1594.36 1907.68 Q1592.56 1904.12 1588.92 1904.12 M1588.92 1900.41 Q1594.73 1900.41 1597.79 1905.02 Q1600.87 1909.6 1600.87 1918.35 Q1600.87 1927.08 1597.79 1931.69 Q1594.73 1936.27 1588.92 1936.27 Q1583.11 1936.27 1580.03 1931.69 Q1576.98 1927.08 1576.98 1918.35 Q1576.98 1909.6 1580.03 1905.02 Q1583.11 1900.41 1588.92 1900.41 Z" fill="#000000" fill-rule="evenodd" fill-opacity="1" /><path clip-path="url(#clip670)" d="M1889.94 1901.04 L1908.3 1901.04 L1908.3 1904.97 L1894.23 1904.97 L1894.23 1913.45 Q1895.24 1913.1 1896.26 1912.94 Q1897.28 1912.75 1898.3 1912.75 Q1904.09 1912.75 1907.47 1915.92 Q1910.85 1919.09 1910.85 1924.51 Q1910.85 1930.09 1907.37 1933.19 Q1903.9 1936.27 1897.58 1936.27 Q1895.41 1936.27 1893.14 1935.9 Q1890.89 1935.53 1888.48 1934.79 L1888.48 1930.09 Q1890.57 1931.22 1892.79 1931.78 Q1895.01 1932.34 1897.49 1932.34 Q1901.49 1932.34 1903.83 1930.23 Q1906.17 1928.12 1906.17 1924.51 Q1906.17 1920.9 1903.83 1918.79 Q1901.49 1916.69 1897.49 1916.69 Q1895.61 1916.69 1893.74 1917.1 Q1891.89 1917.52 1889.94 1918.4 L1889.94 1901.04 Z" fill="#000000" fill-rule="evenodd" fill-opacity="1" /><path clip-path="url(#clip670)" d="M1930.06 1904.12 Q1926.45 1904.12 1924.62 1907.68 Q1922.81 1911.22 1922.81 1918.35 Q1922.81 1925.46 1924.62 1929.03 Q1926.45 1932.57 1930.06 1932.57 Q1933.69 1932.57 1935.5 1929.03 Q1937.33 1925.46 1937.33 1918.35 Q1937.33 1911.22 1935.5 1907.68 Q1933.69 1904.12 1930.06 1904.12 M1930.06 1900.41 Q1935.87 1900.41 1938.92 1905.02 Q1942 1909.6 1942 1918.35 Q1942 1927.08 1938.92 1931.69 Q1935.87 1936.27 1930.06 1936.27 Q1924.25 1936.27 1921.17 1931.69 Q1918.11 1927.08 1918.11 1918.35 Q1918.11 1909.6 1921.17 1905.02 Q1924.25 1900.41 1930.06 1900.41 Z" fill="#000000" fill-rule="evenodd" fill-opacity="1" /><path clip-path="url(#clip670)" d="M2242.46 1916.46 Q2239.31 1916.46 2237.46 1918.61 Q2235.63 1920.76 2235.63 1924.51 Q2235.63 1928.24 2237.46 1930.41 Q2239.31 1932.57 2242.46 1932.57 Q2245.6 1932.57 2247.43 1930.41 Q2249.28 1928.24 2249.28 1924.51 Q2249.28 1920.76 2247.43 1918.61 Q2245.6 1916.46 2242.46 1916.46 M2251.74 1901.8 L2251.74 1906.06 Q2249.98 1905.23 2248.17 1904.79 Q2246.39 1904.35 2244.63 1904.35 Q2240 1904.35 2237.55 1907.47 Q2235.12 1910.6 2234.77 1916.92 Q2236.14 1914.9 2238.2 1913.84 Q2240.26 1912.75 2242.73 1912.75 Q2247.94 1912.75 2250.95 1915.92 Q2253.98 1919.07 2253.98 1924.51 Q2253.98 1929.84 2250.83 1933.05 Q2247.69 1936.27 2242.46 1936.27 Q2236.46 1936.27 2233.29 1931.69 Q2230.12 1927.08 2230.12 1918.35 Q2230.12 1910.16 2234.01 1905.3 Q2237.9 1900.41 2244.45 1900.41 Q2246.21 1900.41 2247.99 1900.76 Q2249.79 1901.11 2251.74 1901.8 Z" fill="#000000" fill-rule="evenodd" fill-opacity="1" /><path clip-path="url(#clip670)" d="M2272.04 1904.12 Q2268.43 1904.12 2266.6 1907.68 Q2264.79 1911.22 2264.79 1918.35 Q2264.79 1925.46 2266.6 1929.03 Q2268.43 1932.57 2272.04 1932.57 Q2275.67 1932.57 2277.48 1929.03 Q2279.31 1925.46 2279.31 1918.35 Q2279.31 1911.22 2277.48 1907.68 Q2275.67 1904.12 2272.04 1904.12 M2272.04 1900.41 Q2277.85 1900.41 2280.9 1905.02 Q2283.98 1909.6 2283.98 1918.35 Q2283.98 1927.08 2280.9 1931.69 Q2277.85 1936.27 2272.04 1936.27 Q2266.23 1936.27 2263.15 1931.69 Q2260.09 1927.08 2260.09 1918.35 Q2260.09 1909.6 2263.15 1905.02 Q2266.23 1900.41 2272.04 1900.41 Z" fill="#000000" fill-rule="evenodd" fill-opacity="1" /><path clip-path="url(#clip670)" d="M1187.69 1972.27 L1227.89 1972.27 L1227.89 1977.68 L1211.02 1977.68 L1211.02 2019.79 L1204.56 2019.79 L1204.56 1977.68 L1187.69 1977.68 L1187.69 1972.27 Z" fill="#000000" fill-rule="evenodd" fill-opacity="1" /><path clip-path="url(#clip670)" d="M1231.83 1984.14 L1237.69 1984.14 L1237.69 2019.79 L1231.83 2019.79 L1231.83 1984.14 M1231.83 1970.27 L1237.69 1970.27 L1237.69 1977.68 L1231.83 1977.68 L1231.83 1970.27 Z" fill="#000000" fill-rule="evenodd" fill-opacity="1" /><path clip-path="url(#clip670)" d="M1277.7 1990.99 Q1279.9 1987.04 1282.95 1985.16 Q1286.01 1983.28 1290.14 1983.28 Q1295.71 1983.28 1298.74 1987.2 Q1301.76 1991.08 1301.76 1998.28 L1301.76 2019.79 L1295.87 2019.79 L1295.87 1998.47 Q1295.87 1993.34 1294.06 1990.86 Q1292.24 1988.38 1288.52 1988.38 Q1283.97 1988.38 1281.33 1991.4 Q1278.69 1994.42 1278.69 1999.64 L1278.69 2019.79 L1272.8 2019.79 L1272.8 1998.47 Q1272.8 1993.31 1270.98 1990.86 Q1269.17 1988.38 1265.38 1988.38 Q1260.89 1988.38 1258.25 1991.43 Q1255.61 1994.46 1255.61 1999.64 L1255.61 2019.79 L1249.72 2019.79 L1249.72 1984.14 L1255.61 1984.14 L1255.61 1989.68 Q1257.62 1986.4 1260.42 1984.84 Q1263.22 1983.28 1267.07 1983.28 Q1270.95 1983.28 1273.66 1985.26 Q1276.39 1987.23 1277.7 1990.99 Z" fill="#000000" fill-rule="evenodd" fill-opacity="1" /><path clip-path="url(#clip670)" d="M1343.93 2000.5 L1343.93 2003.37 L1317.01 2003.37 Q1317.39 2009.42 1320.64 2012.6 Q1323.91 2015.75 1329.74 2015.75 Q1333.11 2015.75 1336.26 2014.92 Q1339.45 2014.09 1342.57 2012.44 L1342.57 2017.98 Q1339.41 2019.31 1336.1 2020.01 Q1332.79 2020.71 1329.39 2020.71 Q1320.86 2020.71 1315.86 2015.75 Q1310.9 2010.78 1310.9 2002.32 Q1310.9 1993.56 1315.61 1988.44 Q1320.35 1983.28 1328.37 1983.28 Q1335.56 1983.28 1339.73 1987.93 Q1343.93 1992.55 1343.93 2000.5 M1338.08 1998.78 Q1338.01 1993.98 1335.37 1991.11 Q1332.76 1988.25 1328.43 1988.25 Q1323.53 1988.25 1320.57 1991.02 Q1317.64 1993.79 1317.2 1998.82 L1338.08 1998.78 Z" fill="#000000" fill-rule="evenodd" fill-opacity="1" /><polyline clip-path="url(#clip673)" style="stroke:#000000; stroke-linecap:butt; stroke-linejoin:round; stroke-width:2; stroke-opacity:0.1; fill:none" points="
  178.867,1776.56 2352.76,1776.56 
  "/>
<polyline clip-path="url(#clip673)" style="stroke:#000000; stroke-linecap:butt; stroke-linejoin:round; stroke-width:2; stroke-opacity:0.1; fill:none" points="
  178.867,1673.78 2352.76,1673.78 
  "/>
<polyline clip-path="url(#clip673)" style="stroke:#000000; stroke-linecap:butt; stroke-linejoin:round; stroke-width:2; stroke-opacity:0.1; fill:none" points="
  178.867,1571 2352.76,1571 
  "/>
<polyline clip-path="url(#clip673)" style="stroke:#000000; stroke-linecap:butt; stroke-linejoin:round; stroke-width:2; stroke-opacity:0.1; fill:none" points="
  178.867,1468.22 2352.76,1468.22 
  "/>
<polyline clip-path="url(#clip673)" style="stroke:#000000; stroke-linecap:butt; stroke-linejoin:round; stroke-width:2; stroke-opacity:0.1; fill:none" points="
  178.867,1365.44 2352.76,1365.44 
  "/>
<polyline clip-path="url(#clip673)" style="stroke:#000000; stroke-linecap:butt; stroke-linejoin:round; stroke-width:2; stroke-opacity:0.1; fill:none" points="
  178.867,1262.67 2352.76,1262.67 
  "/>
<polyline clip-path="url(#clip670)" style="stroke:#000000; stroke-linecap:butt; stroke-linejoin:round; stroke-width:4; stroke-opacity:1; fill:none" points="
  178.867,1874.93 178.867,1247.24 
  "/>
<polyline clip-path="url(#clip670)" style="stroke:#000000; stroke-linecap:butt; stroke-linejoin:round; stroke-width:4; stroke-opacity:1; fill:none" points="
  178.867,1776.56 197.764,1776.56 
  "/>
<polyline clip-path="url(#clip670)" style="stroke:#000000; stroke-linecap:butt; stroke-linejoin:round; stroke-width:4; stroke-opacity:1; fill:none" points="
  178.867,1673.78 197.764,1673.78 
  "/>
<polyline clip-path="url(#clip670)" style="stroke:#000000; stroke-linecap:butt; stroke-linejoin:round; stroke-width:4; stroke-opacity:1; fill:none" points="
  178.867,1571 197.764,1571 
  "/>
<polyline clip-path="url(#clip670)" style="stroke:#000000; stroke-linecap:butt; stroke-linejoin:round; stroke-width:4; stroke-opacity:1; fill:none" points="
  178.867,1468.22 197.764,1468.22 
  "/>
<polyline clip-path="url(#clip670)" style="stroke:#000000; stroke-linecap:butt; stroke-linejoin:round; stroke-width:4; stroke-opacity:1; fill:none" points="
  178.867,1365.44 197.764,1365.44 
  "/>
<polyline clip-path="url(#clip670)" style="stroke:#000000; stroke-linecap:butt; stroke-linejoin:round; stroke-width:4; stroke-opacity:1; fill:none" points="
  178.867,1262.67 197.764,1262.67 
  "/>
<path clip-path="url(#clip670)" d="M51.9875 1777.01 L81.6633 1777.01 L81.6633 1780.95 L51.9875 1780.95 L51.9875 1777.01 Z" fill="#000000" fill-rule="evenodd" fill-opacity="1" /><path clip-path="url(#clip670)" d="M92.566 1789.91 L100.205 1789.91 L100.205 1763.54 L91.8947 1765.21 L91.8947 1760.95 L100.159 1759.28 L104.834 1759.28 L104.834 1789.91 L112.473 1789.91 L112.473 1793.84 L92.566 1793.84 L92.566 1789.91 Z" fill="#000000" fill-rule="evenodd" fill-opacity="1" /><path clip-path="url(#clip670)" d="M121.964 1759.28 L140.32 1759.28 L140.32 1763.22 L126.246 1763.22 L126.246 1771.69 Q127.265 1771.34 128.283 1771.18 Q129.302 1770.99 130.32 1770.99 Q136.107 1770.99 139.487 1774.17 Q142.867 1777.34 142.867 1782.75 Q142.867 1788.33 139.394 1791.43 Q135.922 1794.51 129.603 1794.51 Q127.427 1794.51 125.158 1794.14 Q122.913 1793.77 120.506 1793.03 L120.506 1788.33 Q122.589 1789.47 124.811 1790.02 Q127.033 1790.58 129.51 1790.58 Q133.515 1790.58 135.853 1788.47 Q138.191 1786.36 138.191 1782.75 Q138.191 1779.14 135.853 1777.04 Q133.515 1774.93 129.51 1774.93 Q127.635 1774.93 125.76 1775.35 Q123.908 1775.76 121.964 1776.64 L121.964 1759.28 Z" fill="#000000" fill-rule="evenodd" fill-opacity="1" /><path clip-path="url(#clip670)" d="M50.9921 1674.23 L80.6679 1674.23 L80.6679 1678.17 L50.9921 1678.17 L50.9921 1674.23 Z" fill="#000000" fill-rule="evenodd" fill-opacity="1" /><path clip-path="url(#clip670)" d="M91.5706 1687.13 L99.2095 1687.13 L99.2095 1660.76 L90.8993 1662.43 L90.8993 1658.17 L99.1632 1656.5 L103.839 1656.5 L103.839 1687.13 L111.478 1687.13 L111.478 1691.06 L91.5706 1691.06 L91.5706 1687.13 Z" fill="#000000" fill-rule="evenodd" fill-opacity="1" /><path clip-path="url(#clip670)" d="M130.922 1659.58 Q127.311 1659.58 125.482 1663.15 Q123.677 1666.69 123.677 1673.82 Q123.677 1680.92 125.482 1684.49 Q127.311 1688.03 130.922 1688.03 Q134.556 1688.03 136.362 1684.49 Q138.191 1680.92 138.191 1673.82 Q138.191 1666.69 136.362 1663.15 Q134.556 1659.58 130.922 1659.58 M130.922 1655.88 Q136.732 1655.88 139.788 1660.48 Q142.867 1665.07 142.867 1673.82 Q142.867 1682.54 139.788 1687.15 Q136.732 1691.73 130.922 1691.73 Q125.112 1691.73 122.033 1687.15 Q118.978 1682.54 118.978 1673.82 Q118.978 1665.07 122.033 1660.48 Q125.112 1655.88 130.922 1655.88 Z" fill="#000000" fill-rule="evenodd" fill-opacity="1" /><path clip-path="url(#clip670)" d="M82.1494 1571.45 L111.825 1571.45 L111.825 1575.39 L82.1494 1575.39 L82.1494 1571.45 Z" fill="#000000" fill-rule="evenodd" fill-opacity="1" /><path clip-path="url(#clip670)" d="M121.964 1553.72 L140.32 1553.72 L140.32 1557.66 L126.246 1557.66 L126.246 1566.13 Q127.265 1565.78 128.283 1565.62 Q129.302 1565.44 130.32 1565.44 Q136.107 1565.44 139.487 1568.61 Q142.867 1571.78 142.867 1577.19 Q142.867 1582.77 139.394 1585.88 Q135.922 1588.95 129.603 1588.95 Q127.427 1588.95 125.158 1588.58 Q122.913 1588.21 120.506 1587.47 L120.506 1582.77 Q122.589 1583.91 124.811 1584.46 Q127.033 1585.02 129.51 1585.02 Q133.515 1585.02 135.853 1582.91 Q138.191 1580.81 138.191 1577.19 Q138.191 1573.58 135.853 1571.48 Q133.515 1569.37 129.51 1569.37 Q127.635 1569.37 125.76 1569.79 Q123.908 1570.2 121.964 1571.08 L121.964 1553.72 Z" fill="#000000" fill-rule="evenodd" fill-opacity="1" /><path clip-path="url(#clip670)" d="M130.922 1454.02 Q127.311 1454.02 125.482 1457.59 Q123.677 1461.13 123.677 1468.26 Q123.677 1475.36 125.482 1478.93 Q127.311 1482.47 130.922 1482.47 Q134.556 1482.47 136.362 1478.93 Q138.191 1475.36 138.191 1468.26 Q138.191 1461.13 136.362 1457.59 Q134.556 1454.02 130.922 1454.02 M130.922 1450.32 Q136.732 1450.32 139.788 1454.93 Q142.867 1459.51 142.867 1468.26 Q142.867 1476.99 139.788 1481.59 Q136.732 1486.17 130.922 1486.17 Q125.112 1486.17 122.033 1481.59 Q118.978 1476.99 118.978 1468.26 Q118.978 1459.51 122.033 1454.93 Q125.112 1450.32 130.922 1450.32 Z" fill="#000000" fill-rule="evenodd" fill-opacity="1" /><path clip-path="url(#clip670)" d="M121.964 1348.16 L140.32 1348.16 L140.32 1352.1 L126.246 1352.1 L126.246 1360.57 Q127.265 1360.22 128.283 1360.06 Q129.302 1359.88 130.32 1359.88 Q136.107 1359.88 139.487 1363.05 Q142.867 1366.22 142.867 1371.64 Q142.867 1377.22 139.394 1380.32 Q135.922 1383.4 129.603 1383.4 Q127.427 1383.4 125.158 1383.03 Q122.913 1382.65 120.506 1381.91 L120.506 1377.22 Q122.589 1378.35 124.811 1378.9 Q127.033 1379.46 129.51 1379.46 Q133.515 1379.46 135.853 1377.35 Q138.191 1375.25 138.191 1371.64 Q138.191 1368.03 135.853 1365.92 Q133.515 1363.81 129.51 1363.81 Q127.635 1363.81 125.76 1364.23 Q123.908 1364.65 121.964 1365.53 L121.964 1348.16 Z" fill="#000000" fill-rule="evenodd" fill-opacity="1" /><path clip-path="url(#clip670)" d="M91.5706 1276.01 L99.2095 1276.01 L99.2095 1249.64 L90.8993 1251.31 L90.8993 1247.05 L99.1632 1245.39 L103.839 1245.39 L103.839 1276.01 L111.478 1276.01 L111.478 1279.95 L91.5706 1279.95 L91.5706 1276.01 Z" fill="#000000" fill-rule="evenodd" fill-opacity="1" /><path clip-path="url(#clip670)" d="M130.922 1248.46 Q127.311 1248.46 125.482 1252.03 Q123.677 1255.57 123.677 1262.7 Q123.677 1269.81 125.482 1273.37 Q127.311 1276.91 130.922 1276.91 Q134.556 1276.91 136.362 1273.37 Q138.191 1269.81 138.191 1262.7 Q138.191 1255.57 136.362 1252.03 Q134.556 1248.46 130.922 1248.46 M130.922 1244.76 Q136.732 1244.76 139.788 1249.37 Q142.867 1253.95 142.867 1262.7 Q142.867 1271.43 139.788 1276.03 Q136.732 1280.62 130.922 1280.62 Q125.112 1280.62 122.033 1276.03 Q118.978 1271.43 118.978 1262.7 Q118.978 1253.95 122.033 1249.37 Q125.112 1244.76 130.922 1244.76 Z" fill="#000000" fill-rule="evenodd" fill-opacity="1" /><polyline clip-path="url(#clip673)" style="stroke:#0000ff; stroke-linecap:butt; stroke-linejoin:round; stroke-width:4; stroke-opacity:1; fill:none" points="
  240.392,1468.22 274.572,1513.82 308.753,1559.35 342.934,1588.31 377.114,1620.76 411.295,1652.4 445.476,1682.26 479.656,1708.19 513.837,1725.71 548.018,1736.22 
  582.198,1756.95 616.379,1776.21 650.56,1795.73 684.74,1806.8 718.921,1826.8 753.102,1826.78 787.282,1848.26 821.463,1842.94 855.643,1848.71 889.824,1857.16 
  924.005,1849.03 958.185,1838.15 992.366,1809.91 1026.55,1796.02 1060.73,1783.78 1094.91,1768.05 1129.09,1753.15 1163.27,1738.2 1197.45,1720.86 1231.63,1699.13 
  1265.81,1676.29 1299.99,1652.16 1334.17,1612.76 1368.35,1579.24 1402.53,1545.17 1436.71,1505.4 1470.9,1460.07 1505.08,1417.9 1539.26,1373.41 1573.44,1323.49 
  1607.62,1265.01 1641.8,1271.15 1675.98,1277.61 1710.16,1284.38 1744.34,1291.5 1778.52,1298.97 1812.7,1306.81 1846.88,1315.05 1881.06,1323.7 1915.24,1332.78 
  1949.42,1342.31 1983.6,1352.32 2017.79,1362.83 2051.97,1373.87 2086.15,1385.46 2120.33,1397.63 2154.51,1410.4 2188.69,1423.82 2222.87,1437.91 2257.05,1452.7 
  2291.23,1468.23 
  "/>
<polyline clip-path="url(#clip673)" style="stroke:#000000; stroke-linecap:butt; stroke-linejoin:round; stroke-width:4; stroke-opacity:1; fill:none" points="
  240.392,1468.22 274.572,1468.22 308.753,1468.22 342.934,1468.22 377.114,1468.22 411.295,1468.22 445.476,1468.22 479.656,1468.22 513.837,1468.22 548.018,1468.22 
  582.198,1468.22 616.379,1468.22 650.56,1468.22 684.74,1468.22 718.921,1468.22 753.102,1468.22 787.282,1468.22 821.463,1468.22 855.643,1468.22 889.824,1468.22 
  924.005,1468.22 958.185,1468.22 992.366,1468.22 1026.55,1468.22 1060.73,1468.22 1094.91,1468.22 1129.09,1468.22 1163.27,1468.22 1197.45,1468.22 1231.63,1468.22 
  1265.81,1468.22 1299.99,1468.22 1334.17,1468.22 1368.35,1468.22 1402.53,1468.22 1436.71,1468.22 1470.9,1468.22 1505.08,1468.22 1539.26,1468.22 1573.44,1468.22 
  1607.62,1468.22 1641.8,1468.22 1675.98,1468.22 1710.16,1468.22 1744.34,1468.22 1778.52,1468.22 1812.7,1468.22 1846.88,1468.22 1881.06,1468.22 1915.24,1468.22 
  1949.42,1468.22 1983.6,1468.22 2017.79,1468.22 2051.97,1468.22 2086.15,1468.22 2120.33,1468.22 2154.51,1468.22 2188.69,1468.22 2222.87,1468.22 2257.05,1468.22 
  2291.23,1468.22 
  "/>
<path clip-path="url(#clip670)" d="
M1893.01 1371.85 L2280.29 1371.85 L2280.29 1268.17 L1893.01 1268.17  Z
  " fill="#ffffff" fill-rule="evenodd" fill-opacity="1"/>
<polyline clip-path="url(#clip670)" style="stroke:#000000; stroke-linecap:butt; stroke-linejoin:round; stroke-width:4; stroke-opacity:1; fill:none" points="
  1893.01,1371.85 2280.29,1371.85 2280.29,1268.17 1893.01,1268.17 1893.01,1371.85 
  "/>
<polyline clip-path="url(#clip670)" style="stroke:#0000ff; stroke-linecap:butt; stroke-linejoin:round; stroke-width:4; stroke-opacity:1; fill:none" points="
  1917.16,1320.01 2062.09,1320.01 
  "/>
<path clip-path="url(#clip670)" d="M2099.65 1324.25 Q2094.49 1324.25 2092.49 1325.44 Q2090.5 1326.62 2090.5 1329.46 Q2090.5 1331.73 2091.99 1333.07 Q2093.49 1334.39 2096.06 1334.39 Q2099.6 1334.39 2101.73 1331.89 Q2103.88 1329.37 2103.88 1325.2 L2103.88 1324.25 L2099.65 1324.25 M2108.14 1322.5 L2108.14 1337.29 L2103.88 1337.29 L2103.88 1333.35 Q2102.42 1335.71 2100.25 1336.85 Q2098.07 1337.96 2094.92 1337.96 Q2090.94 1337.96 2088.58 1335.74 Q2086.24 1333.49 2086.24 1329.74 Q2086.24 1325.37 2089.16 1323.14 Q2092.1 1320.92 2097.91 1320.92 L2103.88 1320.92 L2103.88 1320.5 Q2103.88 1317.56 2101.94 1315.97 Q2100.02 1314.35 2096.52 1314.35 Q2094.3 1314.35 2092.19 1314.88 Q2090.09 1315.41 2088.14 1316.48 L2088.14 1312.54 Q2090.48 1311.64 2092.68 1311.2 Q2094.88 1310.74 2096.96 1310.74 Q2102.59 1310.74 2105.36 1313.65 Q2108.14 1316.57 2108.14 1322.5 Z" fill="#000000" fill-rule="evenodd" fill-opacity="1" /><path clip-path="url(#clip670)" d="M2133.44 1312.12 L2133.44 1316.15 Q2131.64 1315.23 2129.69 1314.76 Q2127.75 1314.3 2125.67 1314.3 Q2122.49 1314.3 2120.9 1315.27 Q2119.32 1316.25 2119.32 1318.19 Q2119.32 1319.67 2120.46 1320.53 Q2121.59 1321.36 2125.02 1322.12 L2126.48 1322.45 Q2131.01 1323.42 2132.91 1325.2 Q2134.83 1326.96 2134.83 1330.13 Q2134.83 1333.75 2131.96 1335.85 Q2129.11 1337.96 2124.11 1337.96 Q2122.03 1337.96 2119.76 1337.54 Q2117.52 1337.15 2115.02 1336.34 L2115.02 1331.94 Q2117.38 1333.17 2119.67 1333.79 Q2121.96 1334.39 2124.21 1334.39 Q2127.22 1334.39 2128.84 1333.37 Q2130.46 1332.33 2130.46 1330.46 Q2130.46 1328.72 2129.28 1327.8 Q2128.12 1326.87 2124.16 1326.01 L2122.68 1325.67 Q2118.72 1324.83 2116.96 1323.12 Q2115.2 1321.38 2115.2 1318.37 Q2115.2 1314.72 2117.8 1312.73 Q2120.39 1310.74 2125.16 1310.74 Q2127.52 1310.74 2129.6 1311.08 Q2131.68 1311.43 2133.44 1312.12 Z" fill="#000000" fill-rule="evenodd" fill-opacity="1" /><path clip-path="url(#clip670)" d="M2158.14 1312.12 L2158.14 1316.15 Q2156.34 1315.23 2154.39 1314.76 Q2152.45 1314.3 2150.36 1314.3 Q2147.19 1314.3 2145.6 1315.27 Q2144.02 1316.25 2144.02 1318.19 Q2144.02 1319.67 2145.16 1320.53 Q2146.29 1321.36 2149.72 1322.12 L2151.17 1322.45 Q2155.71 1323.42 2157.61 1325.2 Q2159.53 1326.96 2159.53 1330.13 Q2159.53 1333.75 2156.66 1335.85 Q2153.81 1337.96 2148.81 1337.96 Q2146.73 1337.96 2144.46 1337.54 Q2142.22 1337.15 2139.72 1336.34 L2139.72 1331.94 Q2142.08 1333.17 2144.37 1333.79 Q2146.66 1334.39 2148.91 1334.39 Q2151.92 1334.39 2153.54 1333.37 Q2155.16 1332.33 2155.16 1330.46 Q2155.16 1328.72 2153.98 1327.8 Q2152.82 1326.87 2148.86 1326.01 L2147.38 1325.67 Q2143.42 1324.83 2141.66 1323.12 Q2139.9 1321.38 2139.9 1318.37 Q2139.9 1314.72 2142.49 1312.73 Q2145.09 1310.74 2149.86 1310.74 Q2152.22 1310.74 2154.3 1311.08 Q2156.38 1311.43 2158.14 1312.12 Z" fill="#000000" fill-rule="evenodd" fill-opacity="1" /><path clip-path="url(#clip670)" d="M2188.49 1323.26 L2188.49 1325.34 L2168.91 1325.34 Q2169.18 1329.74 2171.54 1332.06 Q2173.93 1334.35 2178.17 1334.35 Q2180.62 1334.35 2182.91 1333.75 Q2185.23 1333.14 2187.49 1331.94 L2187.49 1335.97 Q2185.2 1336.94 2182.79 1337.45 Q2180.39 1337.96 2177.91 1337.96 Q2171.71 1337.96 2168.07 1334.35 Q2164.46 1330.74 2164.46 1324.58 Q2164.46 1318.21 2167.89 1314.49 Q2171.34 1310.74 2177.17 1310.74 Q2182.4 1310.74 2185.43 1314.12 Q2188.49 1317.47 2188.49 1323.26 M2184.23 1322.01 Q2184.18 1318.51 2182.26 1316.43 Q2180.36 1314.35 2177.22 1314.35 Q2173.65 1314.35 2171.5 1316.36 Q2169.37 1318.37 2169.04 1322.03 L2184.23 1322.01 Z" fill="#000000" fill-rule="evenodd" fill-opacity="1" /><path clip-path="url(#clip670)" d="M2199.69 1304 L2199.69 1311.36 L2208.47 1311.36 L2208.47 1314.67 L2199.69 1314.67 L2199.69 1328.75 Q2199.69 1331.92 2200.55 1332.82 Q2201.43 1333.72 2204.09 1333.72 L2208.47 1333.72 L2208.47 1337.29 L2204.09 1337.29 Q2199.16 1337.29 2197.29 1335.46 Q2195.41 1333.61 2195.41 1328.75 L2195.41 1314.67 L2192.29 1314.67 L2192.29 1311.36 L2195.41 1311.36 L2195.41 1304 L2199.69 1304 Z" fill="#000000" fill-rule="evenodd" fill-opacity="1" /><path clip-path="url(#clip670)" d="M2230.6 1312.12 L2230.6 1316.15 Q2228.79 1315.23 2226.85 1314.76 Q2224.9 1314.3 2222.82 1314.3 Q2219.65 1314.3 2218.05 1315.27 Q2216.48 1316.25 2216.48 1318.19 Q2216.48 1319.67 2217.61 1320.53 Q2218.74 1321.36 2222.17 1322.12 L2223.63 1322.45 Q2228.16 1323.42 2230.06 1325.2 Q2231.98 1326.96 2231.98 1330.13 Q2231.98 1333.75 2229.11 1335.85 Q2226.27 1337.96 2221.27 1337.96 Q2219.18 1337.96 2216.91 1337.54 Q2214.67 1337.15 2212.17 1336.34 L2212.17 1331.94 Q2214.53 1333.17 2216.82 1333.79 Q2219.11 1334.39 2221.36 1334.39 Q2224.37 1334.39 2225.99 1333.37 Q2227.61 1332.33 2227.61 1330.46 Q2227.61 1328.72 2226.43 1327.8 Q2225.27 1326.87 2221.31 1326.01 L2219.83 1325.67 Q2215.87 1324.83 2214.11 1323.12 Q2212.35 1321.38 2212.35 1318.37 Q2212.35 1314.72 2214.95 1312.73 Q2217.54 1310.74 2222.31 1310.74 Q2224.67 1310.74 2226.75 1311.08 Q2228.84 1311.43 2230.6 1312.12 Z" fill="#000000" fill-rule="evenodd" fill-opacity="1" /></svg>
