<?xml version="1.0" encoding="utf-8"?>
<svg xmlns="http://www.w3.org/2000/svg" xmlns:xlink="http://www.w3.org/1999/xlink" width="700" height="500" viewBox="0 0 2800 2000">
<defs>
  <clipPath id="clip040">
    <rect x="0" y="0" width="2800" height="2000"/>
  </clipPath>
</defs>
<path clip-path="url(#clip040)" d="
M0 2000 L2800 2000 L2800 0 L0 0  Z
  " fill="#ffffff" fill-rule="evenodd" fill-opacity="1"/>
<defs>
  <clipPath id="clip041">
    <rect x="560" y="0" width="1961" height="1961"/>
  </clipPath>
</defs>
<path clip-path="url(#clip040)" d="
M159.765 1514.1 L2752.76 1514.1 L2752.76 269.524 L159.765 269.524  Z
  " fill="#ffffff" fill-rule="evenodd" fill-opacity="1"/>
<defs>
  <clipPath id="clip042">
    <rect x="159" y="269" width="2594" height="1246"/>
  </clipPath>
</defs>
<polyline clip-path="url(#clip042)" style="stroke:#000000; stroke-linecap:butt; stroke-linejoin:round; stroke-width:2; stroke-opacity:0.1; fill:none" points="
  216.843,1514.1 216.843,269.524 
  "/>
<polyline clip-path="url(#clip042)" style="stroke:#000000; stroke-linecap:butt; stroke-linejoin:round; stroke-width:2; stroke-opacity:0.1; fill:none" points="
  1032.25,1514.1 1032.25,269.524 
  "/>
<polyline clip-path="url(#clip042)" style="stroke:#000000; stroke-linecap:butt; stroke-linejoin:round; stroke-width:2; stroke-opacity:0.1; fill:none" points="
  1847.66,1514.1 1847.66,269.524 
  "/>
<polyline clip-path="url(#clip042)" style="stroke:#000000; stroke-linecap:butt; stroke-linejoin:round; stroke-width:2; stroke-opacity:0.1; fill:none" points="
  2663.06,1514.1 2663.06,269.524 
  "/>
<polyline clip-path="url(#clip040)" style="stroke:#000000; stroke-linecap:butt; stroke-linejoin:round; stroke-width:4; stroke-opacity:1; fill:none" points="
  159.765,1514.1 2752.76,1514.1 
  "/>
<polyline clip-path="url(#clip040)" style="stroke:#000000; stroke-linecap:butt; stroke-linejoin:round; stroke-width:4; stroke-opacity:1; fill:none" points="
  216.843,1514.1 216.843,1495.21 
  "/>
<polyline clip-path="url(#clip040)" style="stroke:#000000; stroke-linecap:butt; stroke-linejoin:round; stroke-width:4; stroke-opacity:1; fill:none" points="
  1032.25,1514.1 1032.25,1495.21 
  "/>
<polyline clip-path="url(#clip040)" style="stroke:#000000; stroke-linecap:butt; stroke-linejoin:round; stroke-width:4; stroke-opacity:1; fill:none" points="
  1847.66,1514.1 1847.66,1495.21 
  "/>
<polyline clip-path="url(#clip040)" style="stroke:#000000; stroke-linecap:butt; stroke-linejoin:round; stroke-width:4; stroke-opacity:1; fill:none" points="
  2663.06,1514.1 2663.06,1495.21 
  "/>
<path clip-path="url(#clip040)" d="M216.843 1548.22 Q213.232 1548.22 211.404 1551.79 Q209.598 1555.33 209.598 1562.46 Q209.598 1569.57 211.404 1573.13 Q213.232 1576.67 216.843 1576.67 Q220.478 1576.67 222.283 1573.13 Q224.112 1569.57 224.112 1562.46 Q224.112 1555.33 222.283 1551.79 Q220.478 1548.22 216.843 1548.22 M216.843 1544.52 Q222.653 1544.52 225.709 1549.13 Q228.788 1553.71 228.788 1562.46 Q228.788 1571.19 225.709 1575.79 Q222.653 1580.38 216.843 1580.38 Q211.033 1580.38 207.954 1575.79 Q204.899 1571.19 204.899 1562.46 Q204.899 1553.71 207.954 1549.13 Q211.033 1544.52 216.843 1544.52 Z" fill="#000000" fill-rule="evenodd" fill-opacity="1" /><path clip-path="url(#clip040)" d="M1006.95 1545.14 L1025.3 1545.14 L1025.3 1549.08 L1011.23 1549.08 L1011.23 1557.55 Q1012.25 1557.2 1013.27 1557.04 Q1014.29 1556.86 1015.3 1556.86 Q1021.09 1556.86 1024.47 1560.03 Q1027.85 1563.2 1027.85 1568.62 Q1027.85 1574.2 1024.38 1577.3 Q1020.91 1580.38 1014.59 1580.38 Q1012.41 1580.38 1010.14 1580.01 Q1007.9 1579.63 1005.49 1578.89 L1005.49 1574.2 Q1007.57 1575.33 1009.8 1575.88 Q1012.02 1576.44 1014.49 1576.44 Q1018.5 1576.44 1020.84 1574.33 Q1023.18 1572.23 1023.18 1568.62 Q1023.18 1565.01 1020.84 1562.9 Q1018.5 1560.79 1014.49 1560.79 Q1012.62 1560.79 1010.74 1561.21 Q1008.89 1561.63 1006.95 1562.51 L1006.95 1545.14 Z" fill="#000000" fill-rule="evenodd" fill-opacity="1" /><path clip-path="url(#clip040)" d="M1047.06 1548.22 Q1043.45 1548.22 1041.62 1551.79 Q1039.82 1555.33 1039.82 1562.46 Q1039.82 1569.57 1041.62 1573.13 Q1043.45 1576.67 1047.06 1576.67 Q1050.7 1576.67 1052.5 1573.13 Q1054.33 1569.57 1054.33 1562.46 Q1054.33 1555.33 1052.5 1551.79 Q1050.7 1548.22 1047.06 1548.22 M1047.06 1544.52 Q1052.87 1544.52 1055.93 1549.13 Q1059.01 1553.71 1059.01 1562.46 Q1059.01 1571.19 1055.93 1575.79 Q1052.87 1580.38 1047.06 1580.38 Q1041.25 1580.38 1038.18 1575.79 Q1035.12 1571.19 1035.12 1562.46 Q1035.12 1553.71 1038.18 1549.13 Q1041.25 1544.52 1047.06 1544.52 Z" fill="#000000" fill-rule="evenodd" fill-opacity="1" /><path clip-path="url(#clip040)" d="M1807.26 1575.77 L1814.9 1575.77 L1814.9 1549.4 L1806.59 1551.07 L1806.59 1546.81 L1814.85 1545.14 L1819.53 1545.14 L1819.53 1575.77 L1827.17 1575.77 L1827.17 1579.7 L1807.26 1579.7 L1807.26 1575.77 Z" fill="#000000" fill-rule="evenodd" fill-opacity="1" /><path clip-path="url(#clip040)" d="M1846.61 1548.22 Q1843 1548.22 1841.17 1551.79 Q1839.37 1555.33 1839.37 1562.46 Q1839.37 1569.57 1841.17 1573.13 Q1843 1576.67 1846.61 1576.67 Q1850.25 1576.67 1852.05 1573.13 Q1853.88 1569.57 1853.88 1562.46 Q1853.88 1555.33 1852.05 1551.79 Q1850.25 1548.22 1846.61 1548.22 M1846.61 1544.52 Q1852.42 1544.52 1855.48 1549.13 Q1858.56 1553.71 1858.56 1562.46 Q1858.56 1571.19 1855.48 1575.79 Q1852.42 1580.38 1846.61 1580.38 Q1840.8 1580.38 1837.72 1575.79 Q1834.67 1571.19 1834.67 1562.46 Q1834.67 1553.71 1837.72 1549.13 Q1840.8 1544.52 1846.61 1544.52 Z" fill="#000000" fill-rule="evenodd" fill-opacity="1" /><path clip-path="url(#clip040)" d="M1876.78 1548.22 Q1873.16 1548.22 1871.34 1551.79 Q1869.53 1555.33 1869.53 1562.46 Q1869.53 1569.57 1871.34 1573.13 Q1873.16 1576.67 1876.78 1576.67 Q1880.41 1576.67 1882.22 1573.13 Q1884.04 1569.57 1884.04 1562.46 Q1884.04 1555.33 1882.22 1551.79 Q1880.41 1548.22 1876.78 1548.22 M1876.78 1544.52 Q1882.59 1544.52 1885.64 1549.13 Q1888.72 1553.71 1888.72 1562.46 Q1888.72 1571.19 1885.64 1575.79 Q1882.59 1580.38 1876.78 1580.38 Q1870.97 1580.38 1867.89 1575.79 Q1864.83 1571.19 1864.83 1562.46 Q1864.83 1553.71 1867.89 1549.13 Q1870.97 1544.52 1876.78 1544.52 Z" fill="#000000" fill-rule="evenodd" fill-opacity="1" /><path clip-path="url(#clip040)" d="M2622.67 1575.77 L2630.31 1575.77 L2630.31 1549.4 L2622 1551.07 L2622 1546.81 L2630.26 1545.14 L2634.94 1545.14 L2634.94 1575.77 L2642.58 1575.77 L2642.58 1579.7 L2622.67 1579.7 L2622.67 1575.77 Z" fill="#000000" fill-rule="evenodd" fill-opacity="1" /><path clip-path="url(#clip040)" d="M2652.07 1545.14 L2670.42 1545.14 L2670.42 1549.08 L2656.35 1549.08 L2656.35 1557.55 Q2657.37 1557.2 2658.39 1557.04 Q2659.4 1556.86 2660.42 1556.86 Q2666.21 1556.86 2669.59 1560.03 Q2672.97 1563.2 2672.97 1568.62 Q2672.97 1574.2 2669.5 1577.3 Q2666.02 1580.38 2659.7 1580.38 Q2657.53 1580.38 2655.26 1580.01 Q2653.02 1579.63 2650.61 1578.89 L2650.61 1574.2 Q2652.69 1575.33 2654.91 1575.88 Q2657.14 1576.44 2659.61 1576.44 Q2663.62 1576.44 2665.95 1574.33 Q2668.29 1572.23 2668.29 1568.62 Q2668.29 1565.01 2665.95 1562.9 Q2663.62 1560.79 2659.61 1560.79 Q2657.74 1560.79 2655.86 1561.21 Q2654.01 1561.63 2652.07 1562.51 L2652.07 1545.14 Z" fill="#000000" fill-rule="evenodd" fill-opacity="1" /><path clip-path="url(#clip040)" d="M2692.18 1548.22 Q2688.57 1548.22 2686.74 1551.79 Q2684.94 1555.33 2684.94 1562.46 Q2684.94 1569.57 2686.74 1573.13 Q2688.57 1576.67 2692.18 1576.67 Q2695.82 1576.67 2697.62 1573.13 Q2699.45 1569.57 2699.45 1562.46 Q2699.45 1555.33 2697.62 1551.79 Q2695.82 1548.22 2692.18 1548.22 M2692.18 1544.52 Q2697.99 1544.52 2701.05 1549.13 Q2704.13 1553.71 2704.13 1562.46 Q2704.13 1571.19 2701.05 1575.79 Q2697.99 1580.38 2692.18 1580.38 Q2686.37 1580.38 2683.29 1575.79 Q2680.24 1571.19 2680.24 1562.46 Q2680.24 1553.71 2683.29 1549.13 Q2686.37 1544.52 2692.18 1544.52 Z" fill="#000000" fill-rule="evenodd" fill-opacity="1" /><path clip-path="url(#clip040)" d="M1378.14 1617.45 L1418.34 1617.45 L1418.34 1622.86 L1401.47 1622.86 L1401.47 1664.97 L1395.01 1664.97 L1395.01 1622.86 L1378.14 1622.86 L1378.14 1617.45 Z" fill="#000000" fill-rule="evenodd" fill-opacity="1" /><path clip-path="url(#clip040)" d="M1422.28 1629.32 L1428.14 1629.32 L1428.14 1664.97 L1422.28 1664.97 L1422.28 1629.32 M1422.28 1615.44 L1428.14 1615.44 L1428.14 1622.86 L1422.28 1622.86 L1422.28 1615.44 Z" fill="#000000" fill-rule="evenodd" fill-opacity="1" /><path clip-path="url(#clip040)" d="M1468.15 1636.16 Q1470.34 1632.22 1473.4 1630.34 Q1476.46 1628.46 1480.59 1628.46 Q1486.16 1628.46 1489.19 1632.38 Q1492.21 1636.26 1492.21 1643.45 L1492.21 1664.97 L1486.32 1664.97 L1486.32 1643.64 Q1486.32 1638.52 1484.51 1636.04 Q1482.69 1633.55 1478.97 1633.55 Q1474.42 1633.55 1471.78 1636.58 Q1469.14 1639.6 1469.14 1644.82 L1469.14 1664.97 L1463.25 1664.97 L1463.25 1643.64 Q1463.25 1638.49 1461.43 1636.04 Q1459.62 1633.55 1455.83 1633.55 Q1451.34 1633.55 1448.7 1636.61 Q1446.06 1639.63 1446.06 1644.82 L1446.06 1664.97 L1440.17 1664.97 L1440.17 1629.32 L1446.06 1629.32 L1446.06 1634.86 Q1448.06 1631.58 1450.87 1630.02 Q1453.67 1628.46 1457.52 1628.46 Q1461.4 1628.46 1464.11 1630.43 Q1466.84 1632.41 1468.15 1636.16 Z" fill="#000000" fill-rule="evenodd" fill-opacity="1" /><path clip-path="url(#clip040)" d="M1534.38 1645.68 L1534.38 1648.54 L1507.46 1648.54 Q1507.84 1654.59 1511.09 1657.78 Q1514.36 1660.93 1520.19 1660.93 Q1523.56 1660.93 1526.71 1660.1 Q1529.9 1659.27 1533.01 1657.62 L1533.01 1663.15 Q1529.86 1664.49 1526.55 1665.19 Q1523.24 1665.89 1519.84 1665.89 Q1511.31 1665.89 1506.31 1660.93 Q1501.35 1655.96 1501.35 1647.49 Q1501.35 1638.74 1506.06 1633.62 Q1510.8 1628.46 1518.82 1628.46 Q1526.01 1628.46 1530.18 1633.11 Q1534.38 1637.72 1534.38 1645.68 M1528.53 1643.96 Q1528.46 1639.16 1525.82 1636.29 Q1523.21 1633.43 1518.88 1633.43 Q1513.98 1633.43 1511.02 1636.2 Q1508.09 1638.96 1507.65 1643.99 L1528.53 1643.96 Z" fill="#000000" fill-rule="evenodd" fill-opacity="1" /><polyline clip-path="url(#clip042)" style="stroke:#000000; stroke-linecap:butt; stroke-linejoin:round; stroke-width:2; stroke-opacity:0.1; fill:none" points="
  159.765,1478.88 2752.76,1478.88 
  "/>
<polyline clip-path="url(#clip042)" style="stroke:#000000; stroke-linecap:butt; stroke-linejoin:round; stroke-width:2; stroke-opacity:0.1; fill:none" points="
  159.765,1164.66 2752.76,1164.66 
  "/>
<polyline clip-path="url(#clip042)" style="stroke:#000000; stroke-linecap:butt; stroke-linejoin:round; stroke-width:2; stroke-opacity:0.1; fill:none" points="
  159.765,850.43 2752.76,850.43 
  "/>
<polyline clip-path="url(#clip042)" style="stroke:#000000; stroke-linecap:butt; stroke-linejoin:round; stroke-width:2; stroke-opacity:0.1; fill:none" points="
  159.765,536.205 2752.76,536.205 
  "/>
<polyline clip-path="url(#clip040)" style="stroke:#000000; stroke-linecap:butt; stroke-linejoin:round; stroke-width:4; stroke-opacity:1; fill:none" points="
  159.765,1514.1 159.765,269.524 
  "/>
<polyline clip-path="url(#clip040)" style="stroke:#000000; stroke-linecap:butt; stroke-linejoin:round; stroke-width:4; stroke-opacity:1; fill:none" points="
  159.765,1478.88 178.663,1478.88 
  "/>
<polyline clip-path="url(#clip040)" style="stroke:#000000; stroke-linecap:butt; stroke-linejoin:round; stroke-width:4; stroke-opacity:1; fill:none" points="
  159.765,1164.66 178.663,1164.66 
  "/>
<polyline clip-path="url(#clip040)" style="stroke:#000000; stroke-linecap:butt; stroke-linejoin:round; stroke-width:4; stroke-opacity:1; fill:none" points="
  159.765,850.43 178.663,850.43 
  "/>
<polyline clip-path="url(#clip040)" style="stroke:#000000; stroke-linecap:butt; stroke-linejoin:round; stroke-width:4; stroke-opacity:1; fill:none" points="
  159.765,536.205 178.663,536.205 
  "/>
<path clip-path="url(#clip040)" d="M54.6171 1492.23 L70.9365 1492.23 L70.9365 1496.16 L48.9921 1496.16 L48.9921 1492.23 Q51.6541 1489.47 56.2375 1484.84 Q60.8439 1480.19 62.0245 1478.85 Q64.2698 1476.32 65.1494 1474.59 Q66.0522 1472.83 66.0522 1471.14 Q66.0522 1468.38 64.1078 1466.65 Q62.1865 1464.91 59.0847 1464.91 Q56.8856 1464.91 54.4319 1465.67 Q52.0014 1466.44 49.2236 1467.99 L49.2236 1463.27 Q52.0477 1462.13 54.5014 1461.55 Q56.955 1460.98 58.9921 1460.98 Q64.3624 1460.98 67.5568 1463.66 Q70.7513 1466.35 70.7513 1470.84 Q70.7513 1472.97 69.9411 1474.89 Q69.1541 1476.79 67.0476 1479.38 Q66.4689 1480.05 63.367 1483.27 Q60.2652 1486.46 54.6171 1492.23 Z" fill="#000000" fill-rule="evenodd" fill-opacity="1" /><path clip-path="url(#clip040)" d="M80.7512 1490.28 L85.6354 1490.28 L85.6354 1496.16 L80.7512 1496.16 L80.7512 1490.28 Z" fill="#000000" fill-rule="evenodd" fill-opacity="1" /><path clip-path="url(#clip040)" d="M105.821 1464.68 Q102.209 1464.68 100.381 1468.24 Q98.5752 1471.79 98.5752 1478.92 Q98.5752 1486.02 100.381 1489.59 Q102.209 1493.13 105.821 1493.13 Q109.455 1493.13 111.26 1489.59 Q113.089 1486.02 113.089 1478.92 Q113.089 1471.79 111.26 1468.24 Q109.455 1464.68 105.821 1464.68 M105.821 1460.98 Q111.631 1460.98 114.686 1465.58 Q117.765 1470.17 117.765 1478.92 Q117.765 1487.64 114.686 1492.25 Q111.631 1496.83 105.821 1496.83 Q100.01 1496.83 96.9317 1492.25 Q93.8761 1487.64 93.8761 1478.92 Q93.8761 1470.17 96.9317 1465.58 Q100.01 1460.98 105.821 1460.98 Z" fill="#000000" fill-rule="evenodd" fill-opacity="1" /><path clip-path="url(#clip040)" d="M55.6125 1178 L71.9318 1178 L71.9318 1181.94 L49.9875 1181.94 L49.9875 1178 Q52.6495 1175.25 57.2328 1170.62 Q61.8393 1165.96 63.0198 1164.62 Q65.2652 1162.1 66.1448 1160.36 Q67.0476 1158.6 67.0476 1156.91 Q67.0476 1154.16 65.1032 1152.42 Q63.1819 1150.69 60.08 1150.69 Q57.881 1150.69 55.4273 1151.45 Q52.9967 1152.21 50.219 1153.76 L50.219 1149.04 Q53.043 1147.91 55.4967 1147.33 Q57.9504 1146.75 59.9874 1146.75 Q65.3578 1146.75 68.5522 1149.44 Q71.7466 1152.12 71.7466 1156.61 Q71.7466 1158.74 70.9365 1160.66 Q70.1494 1162.56 68.0429 1165.15 Q67.4642 1165.82 64.3624 1169.04 Q61.2606 1172.24 55.6125 1178 Z" fill="#000000" fill-rule="evenodd" fill-opacity="1" /><path clip-path="url(#clip040)" d="M81.7466 1176.06 L86.6308 1176.06 L86.6308 1181.94 L81.7466 1181.94 L81.7466 1176.06 Z" fill="#000000" fill-rule="evenodd" fill-opacity="1" /><path clip-path="url(#clip040)" d="M96.8622 1147.38 L115.219 1147.38 L115.219 1151.31 L101.145 1151.31 L101.145 1159.78 Q102.163 1159.44 103.182 1159.27 Q104.2 1159.09 105.219 1159.09 Q111.006 1159.09 114.385 1162.26 Q117.765 1165.43 117.765 1170.85 Q117.765 1176.43 114.293 1179.53 Q110.82 1182.61 104.501 1182.61 Q102.325 1182.61 100.057 1182.24 Q97.8113 1181.87 95.4039 1181.13 L95.4039 1176.43 Q97.4872 1177.56 99.7094 1178.12 Q101.932 1178.67 104.408 1178.67 Q108.413 1178.67 110.751 1176.56 Q113.089 1174.46 113.089 1170.85 Q113.089 1167.24 110.751 1165.13 Q108.413 1163.02 104.408 1163.02 Q102.534 1163.02 100.659 1163.44 Q98.8067 1163.86 96.8622 1164.74 L96.8622 1147.38 Z" fill="#000000" fill-rule="evenodd" fill-opacity="1" /><path clip-path="url(#clip040)" d="M64.7559 849.076 Q68.1124 849.793 69.9874 852.062 Q71.8855 854.33 71.8855 857.664 Q71.8855 862.779 68.367 865.58 Q64.8485 868.381 58.3671 868.381 Q56.1912 868.381 53.8764 867.941 Q51.5847 867.525 49.131 866.668 L49.131 862.154 Q51.0754 863.289 53.3903 863.867 Q55.7051 864.446 58.2282 864.446 Q62.6263 864.446 64.918 862.71 Q67.2328 860.974 67.2328 857.664 Q67.2328 854.608 65.08 852.895 Q62.9504 851.159 59.131 851.159 L55.1032 851.159 L55.1032 847.317 L59.3161 847.317 Q62.7652 847.317 64.5939 845.951 Q66.4226 844.562 66.4226 841.969 Q66.4226 839.307 64.5245 837.895 Q62.6495 836.46 59.131 836.46 Q57.2097 836.46 55.0106 836.877 Q52.8115 837.294 50.1727 838.173 L50.1727 834.006 Q52.8347 833.266 55.1495 832.895 Q57.4875 832.525 59.5476 832.525 Q64.8717 832.525 67.9735 834.956 Q71.0753 837.363 71.0753 841.483 Q71.0753 844.354 69.4318 846.344 Q67.7883 848.312 64.7559 849.076 Z" fill="#000000" fill-rule="evenodd" fill-opacity="1" /><path clip-path="url(#clip040)" d="M80.7512 861.83 L85.6354 861.83 L85.6354 867.71 L80.7512 867.71 L80.7512 861.83 Z" fill="#000000" fill-rule="evenodd" fill-opacity="1" /><path clip-path="url(#clip040)" d="M105.821 836.229 Q102.209 836.229 100.381 839.793 Q98.5752 843.335 98.5752 850.465 Q98.5752 857.571 100.381 861.136 Q102.209 864.678 105.821 864.678 Q109.455 864.678 111.26 861.136 Q113.089 857.571 113.089 850.465 Q113.089 843.335 111.26 839.793 Q109.455 836.229 105.821 836.229 M105.821 832.525 Q111.631 832.525 114.686 837.131 Q117.765 841.715 117.765 850.465 Q117.765 859.192 114.686 863.798 Q111.631 868.381 105.821 868.381 Q100.01 868.381 96.9317 863.798 Q93.8761 859.192 93.8761 850.465 Q93.8761 841.715 96.9317 837.131 Q100.01 832.525 105.821 832.525 Z" fill="#000000" fill-rule="evenodd" fill-opacity="1" /><path clip-path="url(#clip040)" d="M65.7513 534.851 Q69.1078 535.568 70.9827 537.837 Q72.8809 540.105 72.8809 543.439 Q72.8809 548.554 69.3624 551.355 Q65.8439 554.156 59.3624 554.156 Q57.1865 554.156 54.8717 553.716 Q52.5801 553.3 50.1264 552.443 L50.1264 547.929 Q52.0708 549.064 54.3856 549.642 Q56.7004 550.221 59.2236 550.221 Q63.6217 550.221 65.9133 548.485 Q68.2281 546.749 68.2281 543.439 Q68.2281 540.383 66.0754 538.67 Q63.9457 536.934 60.1263 536.934 L56.0986 536.934 L56.0986 533.091 L60.3115 533.091 Q63.7606 533.091 65.5893 531.726 Q67.418 530.337 67.418 527.744 Q67.418 525.082 65.5198 523.67 Q63.6448 522.235 60.1263 522.235 Q58.205 522.235 56.006 522.652 Q53.8069 523.068 51.168 523.948 L51.168 519.781 Q53.8301 519.041 56.1449 518.67 Q58.4828 518.3 60.543 518.3 Q65.867 518.3 68.9689 520.73 Q72.0707 523.138 72.0707 527.258 Q72.0707 530.128 70.4272 532.119 Q68.7837 534.087 65.7513 534.851 Z" fill="#000000" fill-rule="evenodd" fill-opacity="1" /><path clip-path="url(#clip040)" d="M81.7466 547.605 L86.6308 547.605 L86.6308 553.485 L81.7466 553.485 L81.7466 547.605 Z" fill="#000000" fill-rule="evenodd" fill-opacity="1" /><path clip-path="url(#clip040)" d="M96.8622 518.925 L115.219 518.925 L115.219 522.86 L101.145 522.86 L101.145 531.332 Q102.163 530.985 103.182 530.823 Q104.2 530.638 105.219 530.638 Q111.006 530.638 114.385 533.809 Q117.765 536.98 117.765 542.397 Q117.765 547.976 114.293 551.077 Q110.82 554.156 104.501 554.156 Q102.325 554.156 100.057 553.786 Q97.8113 553.415 95.4039 552.675 L95.4039 547.976 Q97.4872 549.11 99.7094 549.665 Q101.932 550.221 104.408 550.221 Q108.413 550.221 110.751 548.114 Q113.089 546.008 113.089 542.397 Q113.089 538.786 110.751 536.679 Q108.413 534.573 104.408 534.573 Q102.534 534.573 100.659 534.99 Q98.8067 535.406 96.8622 536.286 L96.8622 518.925 Z" fill="#000000" fill-rule="evenodd" fill-opacity="1" /><path clip-path="url(#clip040)" d="M1000.7 18.8205 L1000.7 65.8515 L1010.58 65.8515 Q1023.1 65.8515 1028.89 60.1802 Q1034.72 54.509 1034.72 42.2752 Q1034.72 30.1225 1028.89 24.4918 Q1023.1 18.8205 1010.58 18.8205 L1000.7 18.8205 M992.513 12.096 L1009.32 12.096 Q1026.91 12.096 1035.13 19.4281 Q1043.35 26.7198 1043.35 42.2752 Q1043.35 57.9117 1035.09 65.2439 Q1026.82 72.576 1009.32 72.576 L992.513 72.576 L992.513 12.096 Z" fill="#000000" fill-rule="evenodd" fill-opacity="1" /><path clip-path="url(#clip040)" d="M1074.95 76.7889 Q1071.79 84.8907 1068.79 87.3618 Q1065.79 89.8329 1060.77 89.8329 L1054.82 89.8329 L1054.82 83.5945 L1059.19 83.5945 Q1062.27 83.5945 1063.97 82.1361 Q1065.67 80.6778 1067.74 75.2496 L1069.07 71.8468 L1050.72 27.2059 L1058.62 27.2059 L1072.8 62.6918 L1086.98 27.2059 L1094.88 27.2059 L1074.95 76.7889 Z" fill="#000000" fill-rule="evenodd" fill-opacity="1" /><path clip-path="url(#clip040)" d="M1142.88 45.1919 L1142.88 72.576 L1135.43 72.576 L1135.43 45.4349 Q1135.43 38.994 1132.92 35.7938 Q1130.41 32.5936 1125.38 32.5936 Q1119.35 32.5936 1115.86 36.4419 Q1112.38 40.2903 1112.38 46.9338 L1112.38 72.576 L1104.88 72.576 L1104.88 27.2059 L1112.38 27.2059 L1112.38 34.2544 Q1115.05 30.163 1118.66 28.1376 Q1122.3 26.1121 1127.04 26.1121 Q1134.86 26.1121 1138.87 30.9732 Q1142.88 35.7938 1142.88 45.1919 Z" fill="#000000" fill-rule="evenodd" fill-opacity="1" /><path clip-path="url(#clip040)" d="M1178.37 49.7694 Q1169.33 49.7694 1165.85 51.8354 Q1162.37 53.9013 1162.37 58.8839 Q1162.37 62.8538 1164.96 65.2034 Q1167.59 67.5124 1172.09 67.5124 Q1178.29 67.5124 1182.01 63.1374 Q1185.78 58.7219 1185.78 51.4303 L1185.78 49.7694 L1178.37 49.7694 M1193.24 46.6907 L1193.24 72.576 L1185.78 72.576 L1185.78 65.6895 Q1183.23 69.8214 1179.42 71.8063 Q1175.61 73.7508 1170.1 73.7508 Q1163.14 73.7508 1159.01 69.8619 Q1154.91 65.9325 1154.91 59.3701 Q1154.91 51.7138 1160.02 47.825 Q1165.16 43.9361 1175.33 43.9361 L1185.78 43.9361 L1185.78 43.2069 Q1185.78 38.0623 1182.38 35.2672 Q1179.02 32.4315 1172.9 32.4315 Q1169.01 32.4315 1165.32 33.3632 Q1161.64 34.295 1158.24 36.1584 L1158.24 29.2718 Q1162.33 27.692 1166.18 26.9223 Q1170.02 26.1121 1173.67 26.1121 Q1183.51 26.1121 1188.37 31.2163 Q1193.24 36.3204 1193.24 46.6907 Z" fill="#000000" fill-rule="evenodd" fill-opacity="1" /><path clip-path="url(#clip040)" d="M1243.91 35.9153 Q1246.71 30.8922 1250.6 28.5022 Q1254.48 26.1121 1259.75 26.1121 Q1266.84 26.1121 1270.69 31.0947 Q1274.54 36.0368 1274.54 45.1919 L1274.54 72.576 L1267.04 72.576 L1267.04 45.4349 Q1267.04 38.913 1264.73 35.7533 Q1262.42 32.5936 1257.69 32.5936 Q1251.89 32.5936 1248.53 36.4419 Q1245.17 40.2903 1245.17 46.9338 L1245.17 72.576 L1237.67 72.576 L1237.67 45.4349 Q1237.67 38.8725 1235.36 35.7533 Q1233.06 32.5936 1228.24 32.5936 Q1222.52 32.5936 1219.16 36.4824 Q1215.8 40.3308 1215.8 46.9338 L1215.8 72.576 L1208.3 72.576 L1208.3 27.2059 L1215.8 27.2059 L1215.8 34.2544 Q1218.35 30.082 1221.92 28.0971 Q1225.48 26.1121 1230.38 26.1121 Q1235.32 26.1121 1238.77 28.6237 Q1242.25 31.1352 1243.91 35.9153 Z" fill="#000000" fill-rule="evenodd" fill-opacity="1" /><path clip-path="url(#clip040)" d="M1289.4 27.2059 L1296.86 27.2059 L1296.86 72.576 L1289.4 72.576 L1289.4 27.2059 M1289.4 9.54393 L1296.86 9.54393 L1296.86 18.9825 L1289.4 18.9825 L1289.4 9.54393 Z" fill="#000000" fill-rule="evenodd" fill-opacity="1" /><path clip-path="url(#clip040)" d="M1345.1 28.9478 L1345.1 35.9153 Q1341.94 34.1734 1338.74 33.3227 Q1335.58 32.4315 1332.34 32.4315 Q1325.09 32.4315 1321.08 37.0496 Q1317.07 41.6271 1317.07 49.9314 Q1317.07 58.2358 1321.08 62.8538 Q1325.09 67.4314 1332.34 67.4314 Q1335.58 67.4314 1338.74 66.5807 Q1341.94 65.6895 1345.1 63.9476 L1345.1 70.8341 Q1341.98 72.2924 1338.62 73.0216 Q1335.3 73.7508 1331.53 73.7508 Q1321.28 73.7508 1315.25 67.3098 Q1309.21 60.8689 1309.21 49.9314 Q1309.21 38.832 1315.29 32.472 Q1321.41 26.1121 1332.02 26.1121 Q1335.46 26.1121 1338.74 26.8413 Q1342.02 27.5299 1345.1 28.9478 Z" fill="#000000" fill-rule="evenodd" fill-opacity="1" /><path clip-path="url(#clip040)" d="M1386.99 28.5427 L1386.99 35.5912 Q1383.83 33.9709 1380.43 33.1607 Q1377.02 32.3505 1373.38 32.3505 Q1367.83 32.3505 1365.03 34.0519 Q1362.28 35.7533 1362.28 39.156 Q1362.28 41.7486 1364.26 43.2475 Q1366.25 44.7058 1372.24 46.0426 L1374.8 46.6097 Q1382.74 48.3111 1386.06 51.4303 Q1389.42 54.509 1389.42 60.0587 Q1389.42 66.3781 1384.4 70.0644 Q1379.41 73.7508 1370.66 73.7508 Q1367.02 73.7508 1363.05 73.0216 Q1359.12 72.3329 1354.74 70.9151 L1354.74 63.2184 Q1358.88 65.3654 1362.89 66.4591 Q1366.9 67.5124 1370.83 67.5124 Q1376.09 67.5124 1378.93 65.73 Q1381.76 63.9071 1381.76 60.6258 Q1381.76 57.5877 1379.7 55.9673 Q1377.67 54.3469 1370.75 52.8481 L1368.15 52.2405 Q1361.23 50.7821 1358.15 47.7845 Q1355.07 44.7463 1355.07 39.4801 Q1355.07 33.0797 1359.61 29.5959 Q1364.14 26.1121 1372.49 26.1121 Q1376.62 26.1121 1380.27 26.7198 Q1383.91 27.3274 1386.99 28.5427 Z" fill="#000000" fill-rule="evenodd" fill-opacity="1" /><path clip-path="url(#clip040)" d="M1423.33 27.2059 L1430.78 27.2059 L1440.1 62.6108 L1449.37 27.2059 L1458.16 27.2059 L1467.48 62.6108 L1476.76 27.2059 L1484.21 27.2059 L1472.34 72.576 L1463.55 72.576 L1453.79 35.3887 L1443.99 72.576 L1435.2 72.576 L1423.33 27.2059 Z" fill="#000000" fill-rule="evenodd" fill-opacity="1" /><path clip-path="url(#clip040)" d="M1495.51 27.2059 L1502.97 27.2059 L1502.97 72.576 L1495.51 72.576 L1495.51 27.2059 M1495.51 9.54393 L1502.97 9.54393 L1502.97 18.9825 L1495.51 18.9825 L1495.51 9.54393 Z" fill="#000000" fill-rule="evenodd" fill-opacity="1" /><path clip-path="url(#clip040)" d="M1525.94 14.324 L1525.94 27.2059 L1541.29 27.2059 L1541.29 32.9987 L1525.94 32.9987 L1525.94 57.6282 Q1525.94 63.1779 1527.43 64.7578 Q1528.97 66.3376 1533.63 66.3376 L1541.29 66.3376 L1541.29 72.576 L1533.63 72.576 Q1525 72.576 1521.72 69.3758 Q1518.44 66.1351 1518.44 57.6282 L1518.44 32.9987 L1512.97 32.9987 L1512.97 27.2059 L1518.44 27.2059 L1518.44 14.324 L1525.94 14.324 Z" fill="#000000" fill-rule="evenodd" fill-opacity="1" /><path clip-path="url(#clip040)" d="M1588.81 45.1919 L1588.81 72.576 L1581.35 72.576 L1581.35 45.4349 Q1581.35 38.994 1578.84 35.7938 Q1576.33 32.5936 1571.31 32.5936 Q1565.27 32.5936 1561.79 36.4419 Q1558.3 40.2903 1558.3 46.9338 L1558.3 72.576 L1550.81 72.576 L1550.81 9.54393 L1558.3 9.54393 L1558.3 34.2544 Q1560.98 30.163 1564.58 28.1376 Q1568.23 26.1121 1572.97 26.1121 Q1580.79 26.1121 1584.8 30.9732 Q1588.81 35.7938 1588.81 45.1919 Z" fill="#000000" fill-rule="evenodd" fill-opacity="1" /><path clip-path="url(#clip040)" d="M1636.85 34.3355 L1646.77 62.3677 L1660.95 27.2059 L1668.85 27.2059 L1650.5 72.576 L1650.5 89.8329 L1643.05 89.8329 L1643.05 72.576 L1631.14 38.7104 Q1629.36 33.6063 1625.51 33.6063 L1623.52 33.6063 L1623.52 27.2059 L1626.36 27.2059 Q1634.34 27.2059 1636.85 34.3355 Z" fill="#000000" fill-rule="evenodd" fill-opacity="1" /><path clip-path="url(#clip040)" d="M1706.48 34.9026 L1758.42 34.9026 L1758.42 41.7081 L1706.48 41.7081 L1706.48 34.9026 M1706.48 51.4303 L1758.42 51.4303 L1758.42 58.3168 L1706.48 58.3168 L1706.48 51.4303 Z" fill="#000000" fill-rule="evenodd" fill-opacity="1" /><path clip-path="url(#clip040)" d="M1803.87 65.6895 L1817.24 65.6895 L1817.24 19.5497 L1802.69 22.4663 L1802.69 15.0127 L1817.16 12.096 L1825.34 12.096 L1825.34 65.6895 L1838.71 65.6895 L1838.71 72.576 L1803.87 72.576 L1803.87 65.6895 Z" fill="#000000" fill-rule="evenodd" fill-opacity="1" /><path clip-path="url(#clip040)" d="M1855.23 62.2867 L1863.78 62.2867 L1863.78 72.576 L1855.23 72.576 L1855.23 62.2867 Z" fill="#000000" fill-rule="evenodd" fill-opacity="1" /><path clip-path="url(#clip040)" d="M1899.11 17.4837 Q1892.79 17.4837 1889.59 23.7221 Q1886.43 29.92 1886.43 42.3968 Q1886.43 54.833 1889.59 61.0714 Q1892.79 67.2693 1899.11 67.2693 Q1905.47 67.2693 1908.62 61.0714 Q1911.83 54.833 1911.83 42.3968 Q1911.83 29.92 1908.62 23.7221 Q1905.47 17.4837 1899.11 17.4837 M1899.11 11.0023 Q1909.27 11.0023 1914.62 19.0636 Q1920.01 27.0843 1920.01 42.3968 Q1920.01 57.6687 1914.62 65.73 Q1909.27 73.7508 1899.11 73.7508 Q1888.94 73.7508 1883.55 65.73 Q1878.2 57.6687 1878.2 42.3968 Q1878.2 27.0843 1883.55 19.0636 Q1888.94 11.0023 1899.11 11.0023 Z" fill="#000000" fill-rule="evenodd" fill-opacity="1" /><polyline clip-path="url(#clip042)" style="stroke:#000000; stroke-linecap:butt; stroke-linejoin:round; stroke-width:4; stroke-opacity:1; fill:none" points="
  233.151,850.43 249.46,733.981 265.768,544.108 282.076,493.537 298.384,558.938 314.692,526.417 331,585.074 347.308,717.971 363.616,741.131 379.925,624.527 
  396.233,668.883 412.541,729.388 428.849,715.097 445.157,733.856 461.465,785.059 477.773,825.774 494.081,753.241 510.389,702.36 526.698,663.453 543.006,671.971 
  559.314,665.878 575.622,656.801 591.93,760.554 608.238,637.914 624.546,721.739 640.854,647.464 657.163,602.614 673.471,544.054 689.779,632.765 706.087,843.514 
  722.395,896.818 738.703,771.465 755.011,805.546 771.319,767.352 787.628,788.721 803.936,576.216 820.244,542.911 836.552,386.091 852.86,492.37 869.168,611.878 
  885.476,611.587 901.784,447.189 918.092,511.283 934.401,649.477 950.709,785.443 967.017,781.694 983.325,880.881 999.633,954.376 1015.94,754.994 1032.25,709.815 
  1048.56,710.164 1064.87,752.934 1081.17,828.124 1097.48,835.873 1113.79,742.781 1130.1,768.207 1146.41,757.369 1162.71,869.164 1179.02,735.989 1195.33,689.024 
  1211.64,729.928 1227.95,875.423 1244.25,992.379 1260.56,1110.22 1276.87,1086.96 1293.18,1108.01 1309.49,1107.54 1325.8,1080.81 1342.1,1059.68 1358.41,882.604 
  1374.72,793.271 1391.03,765.982 1407.34,859.089 1423.64,867.155 1439.95,935.448 1456.26,828.562 1472.57,890.084 1488.88,863.538 1505.18,854.219 1521.49,778.125 
  1537.8,693.139 1554.11,494.338 1570.42,549.516 1586.73,546.509 1603.03,366.204 1619.34,395.27 1635.65,344.881 1651.96,329.068 1668.27,435.339 1684.57,456.371 
  1700.88,380.734 1717.19,468.035 1733.5,609.684 1749.81,592.981 1766.11,683.009 1782.42,721.801 1798.73,847.002 1815.04,877.632 1831.35,909.5 1847.66,798.105 
  1863.96,700.319 1880.27,867.391 1896.58,945.832 1912.89,880.722 1929.2,758.615 1945.5,747.859 1961.81,791.295 1978.12,781.171 1994.43,808.645 2010.74,893.087 
  2027.04,796.255 2043.35,776.395 2059.66,875.771 2075.97,866.904 2092.28,926.495 2108.59,999.867 2124.89,1084.75 2141.2,1111.76 2157.51,942.912 2173.82,1049.77 
  2190.13,1067.34 2206.43,1029.76 2222.74,876.328 2239.05,834.117 2255.36,650.644 2271.67,575.539 2287.97,605.996 2304.28,480.775 2320.59,578.168 2336.9,584.283 
  2353.21,637.217 2369.52,646.154 2385.82,576.602 2402.13,632.376 2418.44,560.087 2434.75,483.339 2451.06,531.823 2467.36,395.552 2483.67,304.748 2499.98,509.853 
  2516.29,662.984 2532.6,762.676 2548.9,812.567 2565.21,906.195 2581.52,916.486 2597.83,1008.9 2614.14,1095.57 2630.45,1369.91 2646.75,1392.82 2663.06,1229.8 
  2679.37,1222.52 
  "/>
<polyline clip-path="url(#clip042)" style="stroke:#0000ff; stroke-linecap:butt; stroke-linejoin:round; stroke-width:4; stroke-opacity:1; fill:none" points="
  233.151,1478.88 249.46,1175.43 265.768,972.349 282.076,792.082 298.384,678.818 314.692,646.163 331,616.388 347.308,624.237 363.616,680.963 379.925,719.476 
  396.233,693.183 412.541,697.164 428.849,723.201 445.157,731.002 461.465,742.471 477.773,768.693 494.081,798.389 510.389,785.002 526.698,757.914 543.006,728.487 
  559.314,716.645 575.622,708.106 591.93,700.093 608.238,737.067 624.546,707.585 640.854,725.558 657.163,705.418 673.471,677.228 689.779,639.443 706.087,655.059 
  722.395,746.655 738.703,815.148 755.011,800.89 771.319,807.023 787.628,795.059 803.936,797.34 820.244,714.303 836.552,658.163 852.86,566.982 869.168,561.948 
  885.476,606.706 901.784,629.736 918.092,576.495 934.401,574.363 950.709,628.027 967.017,709.662 983.325,750.393 999.633,810.765 1015.94,871.112 1032.25,823.304 
  1048.56,780.676 1064.87,758.769 1081.17,764.391 1097.48,797.096 1113.79,817.08 1130.1,790.522 1146.41,786.864 1162.71,780.677 1179.02,821.782 1195.33,790.262 
  1211.64,755.349 1227.95,753.505 1244.25,810.211 1260.56,885.886 1276.87,971.722 1293.18,1006.89 1309.49,1033.42 1325.8,1046.96 1342.1,1043.36 1358.41,1033.13 
  1374.72,957.66 1391.03,883.231 1407.34,833.925 1423.64,845.327 1439.95,854.419 1456.26,886.186 1472.57,860.254 1488.88,871.226 1505.18,866.379 1521.49,860.179 
  1537.8,826.817 1554.11,775.884 1570.42,670.759 1586.73,638.262 1603.03,620.265 1619.34,539.502 1635.65,509.256 1651.96,473.645 1668.27,448.962 1684.57,478.314 
  1700.88,501.828 1717.19,484.012 1733.5,509.397 1749.81,578.66 1766.11,607.859 1782.42,658.638 1798.73,700.271 1815.04,771.419 1831.35,820.35 1847.66,858.284 
  1863.96,833.755 1880.27,782.317 1896.58,821.928 1912.89,873.499 1929.2,874.365 1945.5,826.421 1961.81,797.365 1978.12,799.553 1994.43,796.672 2010.74,806.07 
  2027.04,844.395 2043.35,825.839 2059.66,808.373 2075.97,838.723 2092.28,850.905 2108.59,880.82 2124.89,925.368 2141.2,982.044 2157.51,1022.06 2173.82,975.838 
  2190.13,994.282 2206.43,1010.78 2222.74,1004.42 2239.05,940.329 2255.36,890.456 2271.67,791.953 2287.97,711.249 2304.28,681.584 2320.59,616.618 2336.9,621.618 
  2353.21,626.628 2369.52,650.196 2385.82,665.926 2402.13,646.497 2418.44,658.553 2434.75,636.139 2451.06,594.132 2467.36,591.623 2483.67,536.322 2499.98,471.737 
  2516.29,519.622 2532.6,605.071 2548.9,688.768 2565.21,751.823 2581.52,821.537 2597.83,861.666 2614.14,919.044 2630.45,983.062 2646.75,1124.89 2663.06,1207.32 
  2679.37,1185.34 
  "/>
<path clip-path="url(#clip040)" d="
M2257.03 466.53 L2666.32 466.53 L2666.32 311.01 L2257.03 311.01  Z
  " fill="#ffffff" fill-rule="evenodd" fill-opacity="1"/>
<polyline clip-path="url(#clip040)" style="stroke:#000000; stroke-linecap:butt; stroke-linejoin:round; stroke-width:4; stroke-opacity:1; fill:none" points="
  2257.03,466.53 2666.32,466.53 2666.32,311.01 2257.03,311.01 2257.03,466.53 
  "/>
<polyline clip-path="url(#clip040)" style="stroke:#000000; stroke-linecap:butt; stroke-linejoin:round; stroke-width:4; stroke-opacity:1; fill:none" points="
  2285.84,362.85 2458.71,362.85 
  "/>
<path clip-path="url(#clip040)" d="M2491.92 367.191 Q2491.92 371.89 2493.84 374.575 Q2495.78 377.237 2499.16 377.237 Q2502.54 377.237 2504.49 374.575 Q2506.43 371.89 2506.43 367.191 Q2506.43 362.492 2504.49 359.83 Q2502.54 357.144 2499.16 357.144 Q2495.78 357.144 2493.84 359.83 Q2491.92 362.492 2491.92 367.191 M2506.43 376.242 Q2505.09 378.556 2503.03 379.691 Q2500.99 380.802 2498.12 380.802 Q2493.42 380.802 2490.46 377.052 Q2487.52 373.302 2487.52 367.191 Q2487.52 361.08 2490.46 357.33 Q2493.42 353.58 2498.12 353.58 Q2500.99 353.58 2503.03 354.714 Q2505.09 355.825 2506.43 358.14 L2506.43 354.205 L2510.69 354.205 L2510.69 389.991 L2506.43 389.991 L2506.43 376.242 Z" fill="#000000" fill-rule="evenodd" fill-opacity="1" /><path clip-path="url(#clip040)" d="M2553.15 367.191 Q2553.15 362.492 2551.2 359.83 Q2549.28 357.144 2545.9 357.144 Q2542.52 357.144 2540.58 359.83 Q2538.65 362.492 2538.65 367.191 Q2538.65 371.89 2540.58 374.575 Q2542.52 377.237 2545.9 377.237 Q2549.28 377.237 2551.2 374.575 Q2553.15 371.89 2553.15 367.191 M2538.65 358.14 Q2540 355.825 2542.03 354.714 Q2544.09 353.58 2546.94 353.58 Q2551.66 353.58 2554.6 357.33 Q2557.57 361.08 2557.57 367.191 Q2557.57 373.302 2554.6 377.052 Q2551.66 380.802 2546.94 380.802 Q2544.09 380.802 2542.03 379.691 Q2540 378.556 2538.65 376.242 L2538.65 380.13 L2534.37 380.13 L2534.37 344.112 L2538.65 344.112 L2538.65 358.14 Z" fill="#000000" fill-rule="evenodd" fill-opacity="1" /><path clip-path="url(#clip040)" d="M2576.41 367.098 Q2571.25 367.098 2569.26 368.279 Q2567.27 369.459 2567.27 372.306 Q2567.27 374.575 2568.75 375.917 Q2570.25 377.237 2572.82 377.237 Q2576.36 377.237 2578.49 374.737 Q2580.65 372.214 2580.65 368.047 L2580.65 367.098 L2576.41 367.098 M2584.9 365.339 L2584.9 380.13 L2580.65 380.13 L2580.65 376.195 Q2579.19 378.556 2577.01 379.691 Q2574.84 380.802 2571.69 380.802 Q2567.71 380.802 2565.34 378.579 Q2563.01 376.334 2563.01 372.584 Q2563.01 368.209 2565.92 365.987 Q2568.86 363.765 2574.67 363.765 L2580.65 363.765 L2580.65 363.348 Q2580.65 360.408 2578.7 358.811 Q2576.78 357.191 2573.28 357.191 Q2571.06 357.191 2568.96 357.723 Q2566.85 358.256 2564.9 359.32 L2564.9 355.385 Q2567.24 354.482 2569.44 354.043 Q2571.64 353.58 2573.72 353.58 Q2579.35 353.58 2582.13 356.496 Q2584.9 359.413 2584.9 365.339 Z" fill="#000000" fill-rule="evenodd" fill-opacity="1" /><path clip-path="url(#clip040)" d="M2608.7 358.186 Q2607.98 357.769 2607.13 357.584 Q2606.29 357.376 2605.27 357.376 Q2601.66 357.376 2599.72 359.737 Q2597.8 362.075 2597.8 366.473 L2597.8 380.13 L2593.52 380.13 L2593.52 354.205 L2597.8 354.205 L2597.8 358.232 Q2599.14 355.871 2601.29 354.737 Q2603.45 353.58 2606.52 353.58 Q2606.96 353.58 2607.5 353.649 Q2608.03 353.695 2608.68 353.811 L2608.7 358.186 Z" fill="#000000" fill-rule="evenodd" fill-opacity="1" /><polyline clip-path="url(#clip040)" style="stroke:#0000ff; stroke-linecap:butt; stroke-linejoin:round; stroke-width:4; stroke-opacity:1; fill:none" points="
  2285.84,414.69 2458.71,414.69 
  "/>
<path clip-path="url(#clip040)" d="M2491.92 419.031 Q2491.92 423.73 2493.84 426.415 Q2495.78 429.077 2499.16 429.077 Q2502.54 429.077 2504.49 426.415 Q2506.43 423.73 2506.43 419.031 Q2506.43 414.332 2504.49 411.67 Q2502.54 408.984 2499.16 408.984 Q2495.78 408.984 2493.84 411.67 Q2491.92 414.332 2491.92 419.031 M2506.43 428.082 Q2505.09 430.396 2503.03 431.531 Q2500.99 432.642 2498.12 432.642 Q2493.42 432.642 2490.46 428.892 Q2487.52 425.142 2487.52 419.031 Q2487.52 412.92 2490.46 409.17 Q2493.42 405.42 2498.12 405.42 Q2500.99 405.42 2503.03 406.554 Q2505.09 407.665 2506.43 409.98 L2506.43 406.045 L2510.69 406.045 L2510.69 441.831 L2506.43 441.831 L2506.43 428.082 Z" fill="#000000" fill-rule="evenodd" fill-opacity="1" /></svg>
