<?xml version="1.0" encoding="utf-8"?>
<svg xmlns="http://www.w3.org/2000/svg" xmlns:xlink="http://www.w3.org/1999/xlink" width="600" height="600" viewBox="0 0 2400 2400">
<defs>
  <clipPath id="clip100">
    <rect x="0" y="0" width="2400" height="2400"/>
  </clipPath>
</defs>
<path clip-path="url(#clip100)" d="
M0 2400 L2400 2400 L2400 0 L0 0  Z
  " fill="#ffffff" fill-rule="evenodd" fill-opacity="1"/>
<defs>
  <clipPath id="clip101">
    <rect x="480" y="240" width="1681" height="1681"/>
  </clipPath>
</defs>
<path clip-path="url(#clip100)" d="
M178.867 674.927 L2352.76 674.927 L2352.76 47.2441 L178.867 47.2441  Z
  " fill="#ffffff" fill-rule="evenodd" fill-opacity="1"/>
<defs>
  <clipPath id="clip102">
    <rect x="178" y="47" width="2175" height="629"/>
  </clipPath>
</defs>
<polyline clip-path="url(#clip102)" style="stroke:#000000; stroke-linecap:round; stroke-linejoin:round; stroke-width:2; stroke-opacity:0.1; fill:none" points="
  205.632,674.927 205.632,47.2441 
  "/>
<polyline clip-path="url(#clip102)" style="stroke:#000000; stroke-linecap:round; stroke-linejoin:round; stroke-width:2; stroke-opacity:0.1; fill:none" points="
  553.232,674.927 553.232,47.2441 
  "/>
<polyline clip-path="url(#clip102)" style="stroke:#000000; stroke-linecap:round; stroke-linejoin:round; stroke-width:2; stroke-opacity:0.1; fill:none" points="
  900.831,674.927 900.831,47.2441 
  "/>
<polyline clip-path="url(#clip102)" style="stroke:#000000; stroke-linecap:round; stroke-linejoin:round; stroke-width:2; stroke-opacity:0.1; fill:none" points="
  1248.43,674.927 1248.43,47.2441 
  "/>
<polyline clip-path="url(#clip102)" style="stroke:#000000; stroke-linecap:round; stroke-linejoin:round; stroke-width:2; stroke-opacity:0.1; fill:none" points="
  1596.03,674.927 1596.03,47.2441 
  "/>
<polyline clip-path="url(#clip102)" style="stroke:#000000; stroke-linecap:round; stroke-linejoin:round; stroke-width:2; stroke-opacity:0.1; fill:none" points="
  1943.63,674.927 1943.63,47.2441 
  "/>
<polyline clip-path="url(#clip102)" style="stroke:#000000; stroke-linecap:round; stroke-linejoin:round; stroke-width:2; stroke-opacity:0.1; fill:none" points="
  2291.23,674.927 2291.23,47.2441 
  "/>
<polyline clip-path="url(#clip100)" style="stroke:#000000; stroke-linecap:round; stroke-linejoin:round; stroke-width:4; stroke-opacity:1; fill:none" points="
  178.867,674.927 2352.76,674.927 
  "/>
<polyline clip-path="url(#clip100)" style="stroke:#000000; stroke-linecap:round; stroke-linejoin:round; stroke-width:4; stroke-opacity:1; fill:none" points="
  205.632,674.927 205.632,656.03 
  "/>
<polyline clip-path="url(#clip100)" style="stroke:#000000; stroke-linecap:round; stroke-linejoin:round; stroke-width:4; stroke-opacity:1; fill:none" points="
  553.232,674.927 553.232,656.03 
  "/>
<polyline clip-path="url(#clip100)" style="stroke:#000000; stroke-linecap:round; stroke-linejoin:round; stroke-width:4; stroke-opacity:1; fill:none" points="
  900.831,674.927 900.831,656.03 
  "/>
<polyline clip-path="url(#clip100)" style="stroke:#000000; stroke-linecap:round; stroke-linejoin:round; stroke-width:4; stroke-opacity:1; fill:none" points="
  1248.43,674.927 1248.43,656.03 
  "/>
<polyline clip-path="url(#clip100)" style="stroke:#000000; stroke-linecap:round; stroke-linejoin:round; stroke-width:4; stroke-opacity:1; fill:none" points="
  1596.03,674.927 1596.03,656.03 
  "/>
<polyline clip-path="url(#clip100)" style="stroke:#000000; stroke-linecap:round; stroke-linejoin:round; stroke-width:4; stroke-opacity:1; fill:none" points="
  1943.63,674.927 1943.63,656.03 
  "/>
<polyline clip-path="url(#clip100)" style="stroke:#000000; stroke-linecap:round; stroke-linejoin:round; stroke-width:4; stroke-opacity:1; fill:none" points="
  2291.23,674.927 2291.23,656.03 
  "/>
<path clip-path="url(#clip100)" d="M205.632 705.846 Q202.021 705.846 200.192 709.411 Q198.386 712.952 198.386 720.082 Q198.386 727.188 200.192 730.753 Q202.021 734.295 205.632 734.295 Q209.266 734.295 211.072 730.753 Q212.9 727.188 212.9 720.082 Q212.9 712.952 211.072 709.411 Q209.266 705.846 205.632 705.846 M205.632 702.142 Q211.442 702.142 214.498 706.749 Q217.576 711.332 217.576 720.082 Q217.576 728.809 214.498 733.415 Q211.442 737.999 205.632 737.999 Q199.822 737.999 196.743 733.415 Q193.687 728.809 193.687 720.082 Q193.687 711.332 196.743 706.749 Q199.822 702.142 205.632 702.142 Z" fill="#000000" fill-rule="evenodd" fill-opacity="1" /><path clip-path="url(#clip100)" d="M527.919 733.392 L535.558 733.392 L535.558 707.026 L527.248 708.693 L527.248 704.434 L535.512 702.767 L540.188 702.767 L540.188 733.392 L547.827 733.392 L547.827 737.327 L527.919 737.327 L527.919 733.392 Z" fill="#000000" fill-rule="evenodd" fill-opacity="1" /><path clip-path="url(#clip100)" d="M567.271 705.846 Q563.66 705.846 561.831 709.411 Q560.026 712.952 560.026 720.082 Q560.026 727.188 561.831 730.753 Q563.66 734.295 567.271 734.295 Q570.905 734.295 572.711 730.753 Q574.539 727.188 574.539 720.082 Q574.539 712.952 572.711 709.411 Q570.905 705.846 567.271 705.846 M567.271 702.142 Q573.081 702.142 576.137 706.749 Q579.215 711.332 579.215 720.082 Q579.215 728.809 576.137 733.415 Q573.081 737.999 567.271 737.999 Q561.461 737.999 558.382 733.415 Q555.327 728.809 555.327 720.082 Q555.327 711.332 558.382 706.749 Q561.461 702.142 567.271 702.142 Z" fill="#000000" fill-rule="evenodd" fill-opacity="1" /><path clip-path="url(#clip100)" d="M879.605 733.392 L895.924 733.392 L895.924 737.327 L873.98 737.327 L873.98 733.392 Q876.642 730.637 881.225 726.008 Q885.832 721.355 887.012 720.013 Q889.257 717.489 890.137 715.753 Q891.04 713.994 891.04 712.304 Q891.04 709.55 889.095 707.814 Q887.174 706.077 884.072 706.077 Q881.873 706.077 879.42 706.841 Q876.989 707.605 874.211 709.156 L874.211 704.434 Q877.035 703.3 879.489 702.721 Q881.943 702.142 883.98 702.142 Q889.35 702.142 892.544 704.827 Q895.739 707.513 895.739 712.003 Q895.739 714.133 894.929 716.054 Q894.142 717.952 892.035 720.545 Q891.457 721.216 888.355 724.434 Q885.253 727.628 879.605 733.392 Z" fill="#000000" fill-rule="evenodd" fill-opacity="1" /><path clip-path="url(#clip100)" d="M915.739 705.846 Q912.128 705.846 910.299 709.411 Q908.493 712.952 908.493 720.082 Q908.493 727.188 910.299 730.753 Q912.128 734.295 915.739 734.295 Q919.373 734.295 921.179 730.753 Q923.007 727.188 923.007 720.082 Q923.007 712.952 921.179 709.411 Q919.373 705.846 915.739 705.846 M915.739 702.142 Q921.549 702.142 924.604 706.749 Q927.683 711.332 927.683 720.082 Q927.683 728.809 924.604 733.415 Q921.549 737.999 915.739 737.999 Q909.929 737.999 906.85 733.415 Q903.794 728.809 903.794 720.082 Q903.794 711.332 906.85 706.749 Q909.929 702.142 915.739 702.142 Z" fill="#000000" fill-rule="evenodd" fill-opacity="1" /><path clip-path="url(#clip100)" d="M1237.27 718.693 Q1240.63 719.411 1242.51 721.679 Q1244.4 723.948 1244.4 727.281 Q1244.4 732.397 1240.89 735.198 Q1237.37 737.999 1230.89 737.999 Q1228.71 737.999 1226.39 737.559 Q1224.1 737.142 1221.65 736.286 L1221.65 731.772 Q1223.59 732.906 1225.91 733.485 Q1228.22 734.063 1230.75 734.063 Q1235.14 734.063 1237.44 732.327 Q1239.75 730.591 1239.75 727.281 Q1239.75 724.225 1237.6 722.513 Q1235.47 720.776 1231.65 720.776 L1227.62 720.776 L1227.62 716.934 L1231.83 716.934 Q1235.28 716.934 1237.11 715.568 Q1238.94 714.179 1238.94 711.587 Q1238.94 708.925 1237.04 707.513 Q1235.17 706.077 1231.65 706.077 Q1229.73 706.077 1227.53 706.494 Q1225.33 706.911 1222.69 707.79 L1222.69 703.624 Q1225.35 702.883 1227.67 702.513 Q1230.01 702.142 1232.07 702.142 Q1237.39 702.142 1240.49 704.573 Q1243.59 706.98 1243.59 711.101 Q1243.59 713.971 1241.95 715.962 Q1240.31 717.929 1237.27 718.693 Z" fill="#000000" fill-rule="evenodd" fill-opacity="1" /><path clip-path="url(#clip100)" d="M1263.27 705.846 Q1259.66 705.846 1257.83 709.411 Q1256.02 712.952 1256.02 720.082 Q1256.02 727.188 1257.83 730.753 Q1259.66 734.295 1263.27 734.295 Q1266.9 734.295 1268.71 730.753 Q1270.54 727.188 1270.54 720.082 Q1270.54 712.952 1268.71 709.411 Q1266.9 705.846 1263.27 705.846 M1263.27 702.142 Q1269.08 702.142 1272.13 706.749 Q1275.21 711.332 1275.21 720.082 Q1275.21 728.809 1272.13 733.415 Q1269.08 737.999 1263.27 737.999 Q1257.46 737.999 1254.38 733.415 Q1251.32 728.809 1251.32 720.082 Q1251.32 711.332 1254.38 706.749 Q1257.46 702.142 1263.27 702.142 Z" fill="#000000" fill-rule="evenodd" fill-opacity="1" /><path clip-path="url(#clip100)" d="M1584.2 706.841 L1572.4 725.29 L1584.2 725.29 L1584.2 706.841 M1582.98 702.767 L1588.86 702.767 L1588.86 725.29 L1593.79 725.29 L1593.79 729.179 L1588.86 729.179 L1588.86 737.327 L1584.2 737.327 L1584.2 729.179 L1568.6 729.179 L1568.6 724.665 L1582.98 702.767 Z" fill="#000000" fill-rule="evenodd" fill-opacity="1" /><path clip-path="url(#clip100)" d="M1611.52 705.846 Q1607.91 705.846 1606.08 709.411 Q1604.27 712.952 1604.27 720.082 Q1604.27 727.188 1606.08 730.753 Q1607.91 734.295 1611.52 734.295 Q1615.15 734.295 1616.96 730.753 Q1618.79 727.188 1618.79 720.082 Q1618.79 712.952 1616.96 709.411 Q1615.15 705.846 1611.52 705.846 M1611.52 702.142 Q1617.33 702.142 1620.38 706.749 Q1623.46 711.332 1623.46 720.082 Q1623.46 728.809 1620.38 733.415 Q1617.33 737.999 1611.52 737.999 Q1605.71 737.999 1602.63 733.415 Q1599.57 728.809 1599.57 720.082 Q1599.57 711.332 1602.63 706.749 Q1605.71 702.142 1611.52 702.142 Z" fill="#000000" fill-rule="evenodd" fill-opacity="1" /><path clip-path="url(#clip100)" d="M1918.33 702.767 L1936.69 702.767 L1936.69 706.702 L1922.61 706.702 L1922.61 715.175 Q1923.63 714.827 1924.65 714.665 Q1925.67 714.48 1926.69 714.48 Q1932.47 714.48 1935.85 717.651 Q1939.23 720.823 1939.23 726.239 Q1939.23 731.818 1935.76 734.92 Q1932.29 737.999 1925.97 737.999 Q1923.79 737.999 1921.52 737.628 Q1919.28 737.258 1916.87 736.517 L1916.87 731.818 Q1918.96 732.952 1921.18 733.508 Q1923.4 734.063 1925.88 734.063 Q1929.88 734.063 1932.22 731.957 Q1934.56 729.85 1934.56 726.239 Q1934.56 722.628 1932.22 720.522 Q1929.88 718.415 1925.88 718.415 Q1924 718.415 1922.13 718.832 Q1920.27 719.249 1918.33 720.128 L1918.33 702.767 Z" fill="#000000" fill-rule="evenodd" fill-opacity="1" /><path clip-path="url(#clip100)" d="M1958.45 705.846 Q1954.83 705.846 1953.01 709.411 Q1951.2 712.952 1951.2 720.082 Q1951.2 727.188 1953.01 730.753 Q1954.83 734.295 1958.45 734.295 Q1962.08 734.295 1963.89 730.753 Q1965.71 727.188 1965.71 720.082 Q1965.71 712.952 1963.89 709.411 Q1962.08 705.846 1958.45 705.846 M1958.45 702.142 Q1964.26 702.142 1967.31 706.749 Q1970.39 711.332 1970.39 720.082 Q1970.39 728.809 1967.31 733.415 Q1964.26 737.999 1958.45 737.999 Q1952.64 737.999 1949.56 733.415 Q1946.5 728.809 1946.5 720.082 Q1946.5 711.332 1949.56 706.749 Q1952.64 702.142 1958.45 702.142 Z" fill="#000000" fill-rule="evenodd" fill-opacity="1" /><path clip-path="url(#clip100)" d="M2276.64 718.184 Q2273.49 718.184 2271.64 720.337 Q2269.81 722.489 2269.81 726.239 Q2269.81 729.966 2271.64 732.142 Q2273.49 734.295 2276.64 734.295 Q2279.78 734.295 2281.61 732.142 Q2283.46 729.966 2283.46 726.239 Q2283.46 722.489 2281.61 720.337 Q2279.78 718.184 2276.64 718.184 M2285.92 703.531 L2285.92 707.79 Q2284.16 706.957 2282.35 706.517 Q2280.57 706.077 2278.81 706.077 Q2274.18 706.077 2271.73 709.202 Q2269.3 712.327 2268.95 718.647 Q2270.32 716.633 2272.38 715.568 Q2274.44 714.48 2276.91 714.48 Q2282.12 714.48 2285.13 717.651 Q2288.16 720.8 2288.16 726.239 Q2288.16 731.563 2285.02 734.781 Q2281.87 737.999 2276.64 737.999 Q2270.64 737.999 2267.47 733.415 Q2264.3 728.809 2264.3 720.082 Q2264.3 711.888 2268.19 707.026 Q2272.08 702.142 2278.63 702.142 Q2280.39 702.142 2282.17 702.489 Q2283.97 702.837 2285.92 703.531 Z" fill="#000000" fill-rule="evenodd" fill-opacity="1" /><path clip-path="url(#clip100)" d="M2306.22 705.846 Q2302.61 705.846 2300.78 709.411 Q2298.97 712.952 2298.97 720.082 Q2298.97 727.188 2300.78 730.753 Q2302.61 734.295 2306.22 734.295 Q2309.85 734.295 2311.66 730.753 Q2313.49 727.188 2313.49 720.082 Q2313.49 712.952 2311.66 709.411 Q2309.85 705.846 2306.22 705.846 M2306.22 702.142 Q2312.03 702.142 2315.08 706.749 Q2318.16 711.332 2318.16 720.082 Q2318.16 728.809 2315.08 733.415 Q2312.03 737.999 2306.22 737.999 Q2300.41 737.999 2297.33 733.415 Q2294.27 728.809 2294.27 720.082 Q2294.27 711.332 2297.33 706.749 Q2300.41 702.142 2306.22 702.142 Z" fill="#000000" fill-rule="evenodd" fill-opacity="1" /><path clip-path="url(#clip100)" d="M1187.69 772.271 L1227.89 772.271 L1227.89 777.682 L1211.02 777.682 L1211.02 819.791 L1204.56 819.791 L1204.56 777.682 L1187.69 777.682 L1187.69 772.271 Z" fill="#000000" fill-rule="evenodd" fill-opacity="1" /><path clip-path="url(#clip100)" d="M1231.83 784.143 L1237.69 784.143 L1237.69 819.791 L1231.83 819.791 L1231.83 784.143 M1231.83 770.266 L1237.69 770.266 L1237.69 777.682 L1231.83 777.682 L1231.83 770.266 Z" fill="#000000" fill-rule="evenodd" fill-opacity="1" /><path clip-path="url(#clip100)" d="M1277.7 790.986 Q1279.9 787.04 1282.95 785.162 Q1286.01 783.284 1290.14 783.284 Q1295.71 783.284 1298.74 787.199 Q1301.76 791.082 1301.76 798.275 L1301.76 819.791 L1295.87 819.791 L1295.87 798.466 Q1295.87 793.342 1294.06 790.859 Q1292.24 788.376 1288.52 788.376 Q1283.97 788.376 1281.33 791.4 Q1278.69 794.424 1278.69 799.644 L1278.69 819.791 L1272.8 819.791 L1272.8 798.466 Q1272.8 793.31 1270.98 790.859 Q1269.17 788.376 1265.38 788.376 Q1260.89 788.376 1258.25 791.432 Q1255.61 794.456 1255.61 799.644 L1255.61 819.791 L1249.72 819.791 L1249.72 784.143 L1255.61 784.143 L1255.61 789.681 Q1257.62 786.403 1260.42 784.844 Q1263.22 783.284 1267.07 783.284 Q1270.95 783.284 1273.66 785.257 Q1276.39 787.231 1277.7 790.986 Z" fill="#000000" fill-rule="evenodd" fill-opacity="1" /><path clip-path="url(#clip100)" d="M1343.93 800.503 L1343.93 803.368 L1317.01 803.368 Q1317.39 809.415 1320.64 812.598 Q1323.91 815.749 1329.74 815.749 Q1333.11 815.749 1336.26 814.921 Q1339.45 814.094 1342.57 812.439 L1342.57 817.977 Q1339.41 819.314 1336.1 820.014 Q1332.79 820.714 1329.39 820.714 Q1320.86 820.714 1315.86 815.749 Q1310.9 810.784 1310.9 802.317 Q1310.9 793.565 1315.61 788.44 Q1320.35 783.284 1328.37 783.284 Q1335.56 783.284 1339.73 787.931 Q1343.93 792.546 1343.93 800.503 M1338.08 798.784 Q1338.01 793.978 1335.37 791.114 Q1332.76 788.249 1328.43 788.249 Q1323.53 788.249 1320.57 791.018 Q1317.64 793.787 1317.2 798.816 L1338.08 798.784 Z" fill="#000000" fill-rule="evenodd" fill-opacity="1" /><polyline clip-path="url(#clip102)" style="stroke:#000000; stroke-linecap:round; stroke-linejoin:round; stroke-width:2; stroke-opacity:0.1; fill:none" points="
  178.867,533.194 2352.76,533.194 
  "/>
<polyline clip-path="url(#clip102)" style="stroke:#000000; stroke-linecap:round; stroke-linejoin:round; stroke-width:2; stroke-opacity:0.1; fill:none" points="
  178.867,386.176 2352.76,386.176 
  "/>
<polyline clip-path="url(#clip102)" style="stroke:#000000; stroke-linecap:round; stroke-linejoin:round; stroke-width:2; stroke-opacity:0.1; fill:none" points="
  178.867,239.159 2352.76,239.159 
  "/>
<polyline clip-path="url(#clip102)" style="stroke:#000000; stroke-linecap:round; stroke-linejoin:round; stroke-width:2; stroke-opacity:0.1; fill:none" points="
  178.867,92.1418 2352.76,92.1418 
  "/>
<polyline clip-path="url(#clip100)" style="stroke:#000000; stroke-linecap:round; stroke-linejoin:round; stroke-width:4; stroke-opacity:1; fill:none" points="
  178.867,674.927 178.867,47.2441 
  "/>
<polyline clip-path="url(#clip100)" style="stroke:#000000; stroke-linecap:round; stroke-linejoin:round; stroke-width:4; stroke-opacity:1; fill:none" points="
  178.867,533.194 197.764,533.194 
  "/>
<polyline clip-path="url(#clip100)" style="stroke:#000000; stroke-linecap:round; stroke-linejoin:round; stroke-width:4; stroke-opacity:1; fill:none" points="
  178.867,386.176 197.764,386.176 
  "/>
<polyline clip-path="url(#clip100)" style="stroke:#000000; stroke-linecap:round; stroke-linejoin:round; stroke-width:4; stroke-opacity:1; fill:none" points="
  178.867,239.159 197.764,239.159 
  "/>
<polyline clip-path="url(#clip100)" style="stroke:#000000; stroke-linecap:round; stroke-linejoin:round; stroke-width:4; stroke-opacity:1; fill:none" points="
  178.867,92.1418 197.764,92.1418 
  "/>
<path clip-path="url(#clip100)" d="M122.959 546.539 L130.598 546.539 L130.598 520.173 L122.288 521.84 L122.288 517.58 L130.552 515.914 L135.228 515.914 L135.228 546.539 L142.867 546.539 L142.867 550.474 L122.959 550.474 L122.959 546.539 Z" fill="#000000" fill-rule="evenodd" fill-opacity="1" /><path clip-path="url(#clip100)" d="M126.547 399.521 L142.867 399.521 L142.867 403.456 L120.922 403.456 L120.922 399.521 Q123.584 396.767 128.168 392.137 Q132.774 387.484 133.955 386.142 Q136.2 383.619 137.08 381.883 Q137.982 380.123 137.982 378.433 Q137.982 375.679 136.038 373.943 Q134.117 372.207 131.015 372.207 Q128.816 372.207 126.362 372.971 Q123.932 373.734 121.154 375.285 L121.154 370.563 Q123.978 369.429 126.432 368.85 Q128.885 368.271 130.922 368.271 Q136.293 368.271 139.487 370.957 Q142.681 373.642 142.681 378.133 Q142.681 380.262 141.871 382.183 Q141.084 384.082 138.978 386.674 Q138.399 387.345 135.297 390.563 Q132.195 393.757 126.547 399.521 Z" fill="#000000" fill-rule="evenodd" fill-opacity="1" /><path clip-path="url(#clip100)" d="M135.737 237.805 Q139.094 238.523 140.968 240.791 Q142.867 243.06 142.867 246.393 Q142.867 251.509 139.348 254.31 Q135.83 257.11 129.348 257.11 Q127.172 257.11 124.857 256.671 Q122.566 256.254 120.112 255.397 L120.112 250.884 Q122.057 252.018 124.371 252.597 Q126.686 253.175 129.209 253.175 Q133.607 253.175 135.899 251.439 Q138.214 249.703 138.214 246.393 Q138.214 243.337 136.061 241.624 Q133.931 239.888 130.112 239.888 L126.084 239.888 L126.084 236.046 L130.297 236.046 Q133.746 236.046 135.575 234.68 Q137.404 233.291 137.404 230.699 Q137.404 228.037 135.506 226.625 Q133.631 225.189 130.112 225.189 Q128.191 225.189 125.992 225.606 Q123.793 226.023 121.154 226.902 L121.154 222.736 Q123.816 221.995 126.131 221.625 Q128.469 221.254 130.529 221.254 Q135.853 221.254 138.955 223.685 Q142.056 226.092 142.056 230.212 Q142.056 233.083 140.413 235.074 Q138.769 237.041 135.737 237.805 Z" fill="#000000" fill-rule="evenodd" fill-opacity="1" /><path clip-path="url(#clip100)" d="M133.283 78.9359 L121.478 97.3849 L133.283 97.3849 L133.283 78.9359 M132.057 74.8618 L137.936 74.8618 L137.936 97.3849 L142.867 97.3849 L142.867 101.274 L137.936 101.274 L137.936 109.422 L133.283 109.422 L133.283 101.274 L117.682 101.274 L117.682 96.7599 L132.057 74.8618 Z" fill="#000000" fill-rule="evenodd" fill-opacity="1" /><polyline clip-path="url(#clip102)" style="stroke:#ffa500; stroke-linecap:round; stroke-linejoin:round; stroke-width:4; stroke-opacity:1; fill:none" points="
  240.392,657.163 275.152,619.663 309.912,591.39 344.672,563.646 379.432,571.889 414.192,488 448.952,474.046 483.712,442.026 518.472,471.181 553.232,425.118 
  587.992,399.017 622.752,369.51 657.512,334.054 692.272,334.957 727.032,321.576 761.792,290.543 796.552,285.747 831.311,250.63 866.071,287.188 900.831,264.165 
  935.591,238.441 970.351,209.745 1005.11,207.532 1039.87,187.326 1074.63,159.581 1109.39,192.433 1144.15,166.775 1178.91,115.584 1213.67,135.175 1248.43,128.476 
  1283.19,109.46 1317.95,121.031 1352.71,117.026 1387.47,94.7688 1422.23,77.9274 1456.99,88.462 1491.75,84.8253 1526.51,65.0087 1561.27,107.728 1596.03,69.559 
  1630.79,533.194 1665.55,533.194 1700.31,533.194 1735.07,533.194 1769.83,533.194 1804.59,533.194 1839.35,533.194 1874.11,533.194 1908.87,533.194 1943.63,533.194 
  1978.39,533.194 2013.15,533.194 2047.91,533.194 2082.67,533.194 2117.43,533.194 2152.19,533.194 2186.95,533.194 2221.71,533.194 2256.47,533.194 2291.23,533.194 
  
  "/>
<polyline clip-path="url(#clip102)" style="stroke:#008000; stroke-linecap:round; stroke-linejoin:round; stroke-width:4; stroke-opacity:1; fill:none" points="
  240.392,406.588 275.152,407.495 309.912,407.007 344.672,406.41 379.432,405.672 414.192,410.196 448.952,405.73 483.712,402.895 518.472,398.787 553.232,402.811 
  587.992,403.154 622.752,402.803 657.512,401.098 692.272,396.963 727.032,396.061 761.792,396.016 796.552,393.864 831.311,393.73 866.071,390.548 900.831,395.993 
  935.591,400.157 970.351,402.443 1005.11,402.192 1039.87,403.76 1074.63,403.949 1109.39,401.286 1144.15,406.271 1178.91,408.506 1213.67,403.175 1248.43,402.912 
  1283.19,402.834 1317.95,400.484 1352.71,401.513 1387.47,402.854 1422.23,400.747 1456.99,396.002 1491.75,394.023 1526.51,391.772 1561.27,385.564 1596.03,388.955 
  1630.79,383.778 1665.55,383.778 1700.31,383.778 1735.07,383.778 1769.83,383.778 1804.59,383.778 1839.35,383.778 1874.11,383.778 1908.87,383.778 1943.63,383.778 
  1978.39,383.778 2013.15,383.778 2047.91,383.778 2082.67,383.778 2117.43,383.778 2152.19,383.778 2186.95,383.778 2221.71,383.778 2256.47,383.778 2291.23,383.778 
  
  "/>
<path clip-path="url(#clip100)" d="
M1574.36 223.687 L2280.29 223.687 L2280.29 68.1669 L1574.36 68.1669  Z
  " fill="#ffffff" fill-rule="evenodd" fill-opacity="1"/>
<polyline clip-path="url(#clip100)" style="stroke:#000000; stroke-linecap:round; stroke-linejoin:round; stroke-width:4; stroke-opacity:1; fill:none" points="
  1574.36,223.687 2280.29,223.687 2280.29,68.1669 1574.36,68.1669 1574.36,223.687 
  "/>
<polyline clip-path="url(#clip100)" style="stroke:#ffa500; stroke-linecap:round; stroke-linejoin:round; stroke-width:4; stroke-opacity:1; fill:none" points="
  1598.52,120.007 1743.45,120.007 
  "/>
<path clip-path="url(#clip100)" d="M1789.31 121.639 L1789.31 137.287 L1785.05 137.287 L1785.05 121.778 Q1785.05 118.097 1783.62 116.268 Q1782.18 114.44 1779.31 114.44 Q1775.86 114.44 1773.87 116.639 Q1771.88 118.838 1771.88 122.634 L1771.88 137.287 L1767.6 137.287 L1767.6 111.361 L1771.88 111.361 L1771.88 115.389 Q1773.41 113.051 1775.47 111.893 Q1777.55 110.736 1780.26 110.736 Q1784.73 110.736 1787.02 113.514 Q1789.31 116.268 1789.31 121.639 Z" fill="#000000" fill-rule="evenodd" fill-opacity="1" /><path clip-path="url(#clip100)" d="M1807.85 114.347 Q1804.43 114.347 1802.44 117.032 Q1800.45 119.694 1800.45 124.347 Q1800.45 129 1802.41 131.685 Q1804.4 134.347 1807.85 134.347 Q1811.26 134.347 1813.25 131.662 Q1815.24 128.977 1815.24 124.347 Q1815.24 119.741 1813.25 117.055 Q1811.26 114.347 1807.85 114.347 M1807.85 110.736 Q1813.41 110.736 1816.58 114.347 Q1819.75 117.958 1819.75 124.347 Q1819.75 130.713 1816.58 134.347 Q1813.41 137.958 1807.85 137.958 Q1802.28 137.958 1799.1 134.347 Q1795.96 130.713 1795.96 124.347 Q1795.96 117.958 1799.1 114.347 Q1802.28 110.736 1807.85 110.736 Z" fill="#000000" fill-rule="evenodd" fill-opacity="1" /><path clip-path="url(#clip100)" d="M1848.36 121.639 L1848.36 137.287 L1844.1 137.287 L1844.1 121.778 Q1844.1 118.097 1842.67 116.268 Q1841.23 114.44 1838.36 114.44 Q1834.91 114.44 1832.92 116.639 Q1830.93 118.838 1830.93 122.634 L1830.93 137.287 L1826.65 137.287 L1826.65 111.361 L1830.93 111.361 L1830.93 115.389 Q1832.46 113.051 1834.52 111.893 Q1836.6 110.736 1839.31 110.736 Q1843.78 110.736 1846.07 113.514 Q1848.36 116.268 1848.36 121.639 Z" fill="#000000" fill-rule="evenodd" fill-opacity="1" /><path clip-path="url(#clip100)" d="M1854.71 122.403 L1867.18 122.403 L1867.18 126.199 L1854.71 126.199 L1854.71 122.403 Z" fill="#000000" fill-rule="evenodd" fill-opacity="1" /><path clip-path="url(#clip100)" d="M1887.09 101.269 L1887.09 104.81 L1883.02 104.81 Q1880.72 104.81 1879.82 105.736 Q1878.94 106.662 1878.94 109.069 L1878.94 111.361 L1885.96 111.361 L1885.96 114.671 L1878.94 114.671 L1878.94 137.287 L1874.66 137.287 L1874.66 114.671 L1870.59 114.671 L1870.59 111.361 L1874.66 111.361 L1874.66 109.556 Q1874.66 105.227 1876.67 103.259 Q1878.69 101.269 1883.06 101.269 L1887.09 101.269 Z" fill="#000000" fill-rule="evenodd" fill-opacity="1" /><path clip-path="url(#clip100)" d="M1890.65 111.361 L1894.91 111.361 L1894.91 137.287 L1890.65 137.287 L1890.65 111.361 M1890.65 101.269 L1894.91 101.269 L1894.91 106.662 L1890.65 106.662 L1890.65 101.269 Z" fill="#000000" fill-rule="evenodd" fill-opacity="1" /><path clip-path="url(#clip100)" d="M1925.38 121.639 L1925.38 137.287 L1921.12 137.287 L1921.12 121.778 Q1921.12 118.097 1919.68 116.268 Q1918.25 114.44 1915.38 114.44 Q1911.93 114.44 1909.94 116.639 Q1907.95 118.838 1907.95 122.634 L1907.95 137.287 L1903.66 137.287 L1903.66 111.361 L1907.95 111.361 L1907.95 115.389 Q1909.47 113.051 1911.53 111.893 Q1913.62 110.736 1916.33 110.736 Q1920.79 110.736 1923.08 113.514 Q1925.38 116.268 1925.38 121.639 Z" fill="#000000" fill-rule="evenodd" fill-opacity="1" /><path clip-path="url(#clip100)" d="M1945.65 124.255 Q1940.49 124.255 1938.5 125.435 Q1936.51 126.616 1936.51 129.463 Q1936.51 131.731 1937.99 133.074 Q1939.5 134.393 1942.07 134.393 Q1945.61 134.393 1947.74 131.893 Q1949.89 129.37 1949.89 125.204 L1949.89 124.255 L1945.65 124.255 M1954.15 122.495 L1954.15 137.287 L1949.89 137.287 L1949.89 133.352 Q1948.43 135.713 1946.26 136.847 Q1944.08 137.958 1940.93 137.958 Q1936.95 137.958 1934.59 135.736 Q1932.25 133.491 1932.25 129.741 Q1932.25 125.366 1935.17 123.143 Q1938.11 120.921 1943.92 120.921 L1949.89 120.921 L1949.89 120.505 Q1949.89 117.565 1947.95 115.968 Q1946.02 114.347 1942.53 114.347 Q1940.31 114.347 1938.2 114.88 Q1936.09 115.412 1934.15 116.477 L1934.15 112.542 Q1936.49 111.639 1938.69 111.199 Q1940.89 110.736 1942.97 110.736 Q1948.59 110.736 1951.37 113.653 Q1954.15 116.569 1954.15 122.495 Z" fill="#000000" fill-rule="evenodd" fill-opacity="1" /><path clip-path="url(#clip100)" d="M1984.47 121.639 L1984.47 137.287 L1980.21 137.287 L1980.21 121.778 Q1980.21 118.097 1978.78 116.268 Q1977.34 114.44 1974.47 114.44 Q1971.02 114.44 1969.03 116.639 Q1967.04 118.838 1967.04 122.634 L1967.04 137.287 L1962.76 137.287 L1962.76 111.361 L1967.04 111.361 L1967.04 115.389 Q1968.57 113.051 1970.63 111.893 Q1972.71 110.736 1975.42 110.736 Q1979.89 110.736 1982.18 113.514 Q1984.47 116.268 1984.47 121.639 Z" fill="#000000" fill-rule="evenodd" fill-opacity="1" /><path clip-path="url(#clip100)" d="M2011.63 112.356 L2011.63 116.338 Q2009.82 115.343 2007.99 114.856 Q2006.19 114.347 2004.33 114.347 Q2000.19 114.347 1997.9 116.986 Q1995.61 119.602 1995.61 124.347 Q1995.61 129.092 1997.9 131.731 Q2000.19 134.347 2004.33 134.347 Q2006.19 134.347 2007.99 133.861 Q2009.82 133.352 2011.63 132.356 L2011.63 136.292 Q2009.84 137.125 2007.92 137.541 Q2006.02 137.958 2003.87 137.958 Q1998.01 137.958 1994.57 134.278 Q1991.12 130.597 1991.12 124.347 Q1991.12 118.005 1994.59 114.37 Q1998.08 110.736 2004.15 110.736 Q2006.12 110.736 2007.99 111.153 Q2009.87 111.546 2011.63 112.356 Z" fill="#000000" fill-rule="evenodd" fill-opacity="1" /><path clip-path="url(#clip100)" d="M2019.03 111.361 L2023.29 111.361 L2023.29 137.287 L2019.03 137.287 L2019.03 111.361 M2019.03 101.269 L2023.29 101.269 L2023.29 106.662 L2019.03 106.662 L2019.03 101.269 Z" fill="#000000" fill-rule="evenodd" fill-opacity="1" /><path clip-path="url(#clip100)" d="M2043.99 124.255 Q2038.82 124.255 2036.83 125.435 Q2034.84 126.616 2034.84 129.463 Q2034.84 131.731 2036.32 133.074 Q2037.83 134.393 2040.4 134.393 Q2043.94 134.393 2046.07 131.893 Q2048.22 129.37 2048.22 125.204 L2048.22 124.255 L2043.99 124.255 M2052.48 122.495 L2052.48 137.287 L2048.22 137.287 L2048.22 133.352 Q2046.76 135.713 2044.59 136.847 Q2042.41 137.958 2039.26 137.958 Q2035.28 137.958 2032.92 135.736 Q2030.58 133.491 2030.58 129.741 Q2030.58 125.366 2033.5 123.143 Q2036.44 120.921 2042.25 120.921 L2048.22 120.921 L2048.22 120.505 Q2048.22 117.565 2046.28 115.968 Q2044.36 114.347 2040.86 114.347 Q2038.64 114.347 2036.53 114.88 Q2034.43 115.412 2032.48 116.477 L2032.48 112.542 Q2034.82 111.639 2037.02 111.199 Q2039.22 110.736 2041.3 110.736 Q2046.93 110.736 2049.7 113.653 Q2052.48 116.569 2052.48 122.495 Z" fill="#000000" fill-rule="evenodd" fill-opacity="1" /><path clip-path="url(#clip100)" d="M2061.26 101.269 L2065.51 101.269 L2065.51 137.287 L2061.26 137.287 L2061.26 101.269 Z" fill="#000000" fill-rule="evenodd" fill-opacity="1" /><path clip-path="url(#clip100)" d="M2089.5 111.361 L2093.76 111.361 L2093.76 137.287 L2089.5 137.287 L2089.5 111.361 M2089.5 101.269 L2093.76 101.269 L2093.76 106.662 L2089.5 106.662 L2089.5 101.269 Z" fill="#000000" fill-rule="evenodd" fill-opacity="1" /><path clip-path="url(#clip100)" d="M2124.22 121.639 L2124.22 137.287 L2119.96 137.287 L2119.96 121.778 Q2119.96 118.097 2118.52 116.268 Q2117.09 114.44 2114.22 114.44 Q2110.77 114.44 2108.78 116.639 Q2106.79 118.838 2106.79 122.634 L2106.79 137.287 L2102.51 137.287 L2102.51 111.361 L2106.79 111.361 L2106.79 115.389 Q2108.32 113.051 2110.38 111.893 Q2112.46 110.736 2115.17 110.736 Q2119.63 110.736 2121.93 113.514 Q2124.22 116.268 2124.22 121.639 Z" fill="#000000" fill-rule="evenodd" fill-opacity="1" /><path clip-path="url(#clip100)" d="M2151.37 112.356 L2151.37 116.338 Q2149.57 115.343 2147.74 114.856 Q2145.93 114.347 2144.08 114.347 Q2139.94 114.347 2137.64 116.986 Q2135.35 119.602 2135.35 124.347 Q2135.35 129.092 2137.64 131.731 Q2139.94 134.347 2144.08 134.347 Q2145.93 134.347 2147.74 133.861 Q2149.57 133.352 2151.37 132.356 L2151.37 136.292 Q2149.59 137.125 2147.67 137.541 Q2145.77 137.958 2143.62 137.958 Q2137.76 137.958 2134.31 134.278 Q2130.86 130.597 2130.86 124.347 Q2130.86 118.005 2134.33 114.37 Q2137.83 110.736 2143.89 110.736 Q2145.86 110.736 2147.74 111.153 Q2149.61 111.546 2151.37 112.356 Z" fill="#000000" fill-rule="evenodd" fill-opacity="1" /><path clip-path="url(#clip100)" d="M2168.82 114.347 Q2165.4 114.347 2163.41 117.032 Q2161.42 119.694 2161.42 124.347 Q2161.42 129 2163.38 131.685 Q2165.38 134.347 2168.82 134.347 Q2172.23 134.347 2174.22 131.662 Q2176.21 128.977 2176.21 124.347 Q2176.21 119.741 2174.22 117.055 Q2172.23 114.347 2168.82 114.347 M2168.82 110.736 Q2174.38 110.736 2177.55 114.347 Q2180.72 117.958 2180.72 124.347 Q2180.72 130.713 2177.55 134.347 Q2174.38 137.958 2168.82 137.958 Q2163.25 137.958 2160.07 134.347 Q2156.93 130.713 2156.93 124.347 Q2156.93 117.958 2160.07 114.347 Q2163.25 110.736 2168.82 110.736 Z" fill="#000000" fill-rule="evenodd" fill-opacity="1" /><path clip-path="url(#clip100)" d="M2207.97 116.338 Q2209.56 113.468 2211.79 112.102 Q2214.01 110.736 2217.02 110.736 Q2221.07 110.736 2223.27 113.583 Q2225.47 116.407 2225.47 121.639 L2225.47 137.287 L2221.19 137.287 L2221.19 121.778 Q2221.19 118.051 2219.87 116.245 Q2218.55 114.44 2215.84 114.44 Q2212.53 114.44 2210.61 116.639 Q2208.69 118.838 2208.69 122.634 L2208.69 137.287 L2204.4 137.287 L2204.4 121.778 Q2204.4 118.028 2203.08 116.245 Q2201.76 114.44 2199.01 114.44 Q2195.75 114.44 2193.82 116.662 Q2191.9 118.861 2191.9 122.634 L2191.9 137.287 L2187.62 137.287 L2187.62 111.361 L2191.9 111.361 L2191.9 115.389 Q2193.36 113.005 2195.4 111.87 Q2197.44 110.736 2200.24 110.736 Q2203.06 110.736 2205.03 112.171 Q2207.02 113.606 2207.97 116.338 Z" fill="#000000" fill-rule="evenodd" fill-opacity="1" /><path clip-path="url(#clip100)" d="M2256.14 123.259 L2256.14 125.342 L2236.56 125.342 Q2236.83 129.741 2239.19 132.055 Q2241.58 134.347 2245.81 134.347 Q2248.27 134.347 2250.56 133.745 Q2252.87 133.143 2255.14 131.94 L2255.14 135.967 Q2252.85 136.94 2250.44 137.449 Q2248.04 137.958 2245.56 137.958 Q2239.36 137.958 2235.72 134.347 Q2232.11 130.736 2232.11 124.579 Q2232.11 118.213 2235.54 114.486 Q2238.99 110.736 2244.82 110.736 Q2250.05 110.736 2253.08 114.116 Q2256.14 117.472 2256.14 123.259 M2251.88 122.009 Q2251.83 118.514 2249.91 116.43 Q2248.01 114.347 2244.87 114.347 Q2241.3 114.347 2239.15 116.361 Q2237.02 118.375 2236.69 122.032 L2251.88 122.009 Z" fill="#000000" fill-rule="evenodd" fill-opacity="1" /><polyline clip-path="url(#clip100)" style="stroke:#008000; stroke-linecap:round; stroke-linejoin:round; stroke-width:4; stroke-opacity:1; fill:none" points="
  1598.52,171.847 1743.45,171.847 
  "/>
<path clip-path="url(#clip100)" d="M1788.11 164.196 L1788.11 168.178 Q1786.3 167.183 1784.47 166.696 Q1782.67 166.187 1780.82 166.187 Q1776.67 166.187 1774.38 168.826 Q1772.09 171.442 1772.09 176.187 Q1772.09 180.932 1774.38 183.571 Q1776.67 186.187 1780.82 186.187 Q1782.67 186.187 1784.47 185.701 Q1786.3 185.192 1788.11 184.196 L1788.11 188.132 Q1786.33 188.965 1784.41 189.381 Q1782.51 189.798 1780.35 189.798 Q1774.5 189.798 1771.05 186.118 Q1767.6 182.437 1767.6 176.187 Q1767.6 169.845 1771.07 166.21 Q1774.57 162.576 1780.63 162.576 Q1782.6 162.576 1784.47 162.993 Q1786.35 163.386 1788.11 164.196 Z" fill="#000000" fill-rule="evenodd" fill-opacity="1" /><path clip-path="url(#clip100)" d="M1805.56 166.187 Q1802.14 166.187 1800.15 168.872 Q1798.15 171.534 1798.15 176.187 Q1798.15 180.84 1800.12 183.525 Q1802.11 186.187 1805.56 186.187 Q1808.97 186.187 1810.96 183.502 Q1812.95 180.817 1812.95 176.187 Q1812.95 171.581 1810.96 168.895 Q1808.97 166.187 1805.56 166.187 M1805.56 162.576 Q1811.12 162.576 1814.29 166.187 Q1817.46 169.798 1817.46 176.187 Q1817.46 182.553 1814.29 186.187 Q1811.12 189.798 1805.56 189.798 Q1799.98 189.798 1796.81 186.187 Q1793.66 182.553 1793.66 176.187 Q1793.66 169.798 1796.81 166.187 Q1799.98 162.576 1805.56 162.576 Z" fill="#000000" fill-rule="evenodd" fill-opacity="1" /><path clip-path="url(#clip100)" d="M1846.07 173.479 L1846.07 189.127 L1841.81 189.127 L1841.81 173.618 Q1841.81 169.937 1840.38 168.108 Q1838.94 166.28 1836.07 166.28 Q1832.62 166.28 1830.63 168.479 Q1828.64 170.678 1828.64 174.474 L1828.64 189.127 L1824.36 189.127 L1824.36 163.201 L1828.64 163.201 L1828.64 167.229 Q1830.17 164.891 1832.23 163.733 Q1834.31 162.576 1837.02 162.576 Q1841.49 162.576 1843.78 165.354 Q1846.07 168.108 1846.07 173.479 Z" fill="#000000" fill-rule="evenodd" fill-opacity="1" /><path clip-path="url(#clip100)" d="M1871.09 163.965 L1871.09 167.993 Q1869.29 167.067 1867.34 166.604 Q1865.4 166.141 1863.32 166.141 Q1860.15 166.141 1858.55 167.113 Q1856.97 168.085 1856.97 170.03 Q1856.97 171.511 1858.11 172.368 Q1859.24 173.201 1862.67 173.965 L1864.13 174.289 Q1868.66 175.261 1870.56 177.044 Q1872.48 178.803 1872.48 181.974 Q1872.48 185.585 1869.61 187.692 Q1866.77 189.798 1861.77 189.798 Q1859.68 189.798 1857.41 189.381 Q1855.17 188.988 1852.67 188.178 L1852.67 183.78 Q1855.03 185.007 1857.32 185.632 Q1859.61 186.233 1861.86 186.233 Q1864.87 186.233 1866.49 185.215 Q1868.11 184.173 1868.11 182.298 Q1868.11 180.562 1866.93 179.636 Q1865.77 178.71 1861.81 177.854 L1860.33 177.507 Q1856.37 176.673 1854.61 174.96 Q1852.85 173.224 1852.85 170.215 Q1852.85 166.558 1855.45 164.567 Q1858.04 162.576 1862.81 162.576 Q1865.17 162.576 1867.25 162.923 Q1869.34 163.271 1871.09 163.965 Z" fill="#000000" fill-rule="evenodd" fill-opacity="1" /><path clip-path="url(#clip100)" d="M1878.83 178.895 L1878.83 163.201 L1883.09 163.201 L1883.09 178.733 Q1883.09 182.414 1884.52 184.266 Q1885.96 186.094 1888.83 186.094 Q1892.27 186.094 1894.27 183.895 Q1896.28 181.696 1896.28 177.9 L1896.28 163.201 L1900.54 163.201 L1900.54 189.127 L1896.28 189.127 L1896.28 185.145 Q1894.73 187.507 1892.67 188.664 Q1890.63 189.798 1887.92 189.798 Q1883.46 189.798 1881.14 187.02 Q1878.83 184.243 1878.83 178.895 M1889.54 162.576 L1889.54 162.576 Z" fill="#000000" fill-rule="evenodd" fill-opacity="1" /><path clip-path="url(#clip100)" d="M1929.5 168.178 Q1931.09 165.308 1933.32 163.942 Q1935.54 162.576 1938.55 162.576 Q1942.6 162.576 1944.8 165.423 Q1947 168.247 1947 173.479 L1947 189.127 L1942.71 189.127 L1942.71 173.618 Q1942.71 169.891 1941.39 168.085 Q1940.08 166.28 1937.37 166.28 Q1934.06 166.28 1932.14 168.479 Q1930.21 170.678 1930.21 174.474 L1930.21 189.127 L1925.93 189.127 L1925.93 173.618 Q1925.93 169.868 1924.61 168.085 Q1923.29 166.28 1920.54 166.28 Q1917.27 166.28 1915.35 168.502 Q1913.43 170.701 1913.43 174.474 L1913.43 189.127 L1909.15 189.127 L1909.15 163.201 L1913.43 163.201 L1913.43 167.229 Q1914.89 164.845 1916.93 163.71 Q1918.96 162.576 1921.77 162.576 Q1924.59 162.576 1926.56 164.011 Q1928.55 165.446 1929.5 168.178 Z" fill="#000000" fill-rule="evenodd" fill-opacity="1" /><path clip-path="url(#clip100)" d="M1959.61 185.238 L1959.61 198.988 L1955.33 198.988 L1955.33 163.201 L1959.61 163.201 L1959.61 167.136 Q1960.96 164.821 1962.99 163.71 Q1965.05 162.576 1967.9 162.576 Q1972.62 162.576 1975.56 166.326 Q1978.52 170.076 1978.52 176.187 Q1978.52 182.298 1975.56 186.048 Q1972.62 189.798 1967.9 189.798 Q1965.05 189.798 1962.99 188.687 Q1960.96 187.553 1959.61 185.238 M1974.1 176.187 Q1974.1 171.488 1972.16 168.826 Q1970.24 166.141 1966.86 166.141 Q1963.48 166.141 1961.53 168.826 Q1959.61 171.488 1959.61 176.187 Q1959.61 180.886 1961.53 183.571 Q1963.48 186.233 1966.86 186.233 Q1970.24 186.233 1972.16 183.571 Q1974.1 180.886 1974.1 176.187 Z" fill="#000000" fill-rule="evenodd" fill-opacity="1" /><path clip-path="url(#clip100)" d="M1989.8 155.84 L1989.8 163.201 L1998.57 163.201 L1998.57 166.511 L1989.8 166.511 L1989.8 180.585 Q1989.8 183.757 1990.65 184.659 Q1991.53 185.562 1994.2 185.562 L1998.57 185.562 L1998.57 189.127 L1994.2 189.127 Q1989.27 189.127 1987.39 187.298 Q1985.52 185.446 1985.52 180.585 L1985.52 166.511 L1982.39 166.511 L1982.39 163.201 L1985.52 163.201 L1985.52 155.84 L1989.8 155.84 Z" fill="#000000" fill-rule="evenodd" fill-opacity="1" /><path clip-path="url(#clip100)" d="M2004.17 163.201 L2008.43 163.201 L2008.43 189.127 L2004.17 189.127 L2004.17 163.201 M2004.17 153.109 L2008.43 153.109 L2008.43 158.502 L2004.17 158.502 L2004.17 153.109 Z" fill="#000000" fill-rule="evenodd" fill-opacity="1" /><path clip-path="url(#clip100)" d="M2027.39 166.187 Q2023.96 166.187 2021.97 168.872 Q2019.98 171.534 2019.98 176.187 Q2019.98 180.84 2021.95 183.525 Q2023.94 186.187 2027.39 186.187 Q2030.79 186.187 2032.78 183.502 Q2034.77 180.817 2034.77 176.187 Q2034.77 171.581 2032.78 168.895 Q2030.79 166.187 2027.39 166.187 M2027.39 162.576 Q2032.95 162.576 2036.12 166.187 Q2039.29 169.798 2039.29 176.187 Q2039.29 182.553 2036.12 186.187 Q2032.95 189.798 2027.39 189.798 Q2021.81 189.798 2018.64 186.187 Q2015.49 182.553 2015.49 176.187 Q2015.49 169.798 2018.64 166.187 Q2021.81 162.576 2027.39 162.576 Z" fill="#000000" fill-rule="evenodd" fill-opacity="1" /><path clip-path="url(#clip100)" d="M2067.9 173.479 L2067.9 189.127 L2063.64 189.127 L2063.64 173.618 Q2063.64 169.937 2062.2 168.108 Q2060.77 166.28 2057.9 166.28 Q2054.45 166.28 2052.46 168.479 Q2050.47 170.678 2050.47 174.474 L2050.47 189.127 L2046.19 189.127 L2046.19 163.201 L2050.47 163.201 L2050.47 167.229 Q2052 164.891 2054.06 163.733 Q2056.14 162.576 2058.85 162.576 Q2063.32 162.576 2065.61 165.354 Q2067.9 168.108 2067.9 173.479 Z" fill="#000000" fill-rule="evenodd" fill-opacity="1" /><path clip-path="url(#clip100)" d="
M178.867 1874.93 L2352.76 1874.93 L2352.76 1247.24 L178.867 1247.24  Z
  " fill="#ffffff" fill-rule="evenodd" fill-opacity="1"/>
<defs>
  <clipPath id="clip103">
    <rect x="178" y="1247" width="2175" height="629"/>
  </clipPath>
</defs>
<polyline clip-path="url(#clip103)" style="stroke:#000000; stroke-linecap:round; stroke-linejoin:round; stroke-width:2; stroke-opacity:0.1; fill:none" points="
  206.211,1874.93 206.211,1247.24 
  "/>
<polyline clip-path="url(#clip103)" style="stroke:#000000; stroke-linecap:round; stroke-linejoin:round; stroke-width:2; stroke-opacity:0.1; fill:none" points="
  548.018,1874.93 548.018,1247.24 
  "/>
<polyline clip-path="url(#clip103)" style="stroke:#000000; stroke-linecap:round; stroke-linejoin:round; stroke-width:2; stroke-opacity:0.1; fill:none" points="
  889.824,1874.93 889.824,1247.24 
  "/>
<polyline clip-path="url(#clip103)" style="stroke:#000000; stroke-linecap:round; stroke-linejoin:round; stroke-width:2; stroke-opacity:0.1; fill:none" points="
  1231.63,1874.93 1231.63,1247.24 
  "/>
<polyline clip-path="url(#clip103)" style="stroke:#000000; stroke-linecap:round; stroke-linejoin:round; stroke-width:2; stroke-opacity:0.1; fill:none" points="
  1573.44,1874.93 1573.44,1247.24 
  "/>
<polyline clip-path="url(#clip103)" style="stroke:#000000; stroke-linecap:round; stroke-linejoin:round; stroke-width:2; stroke-opacity:0.1; fill:none" points="
  1915.24,1874.93 1915.24,1247.24 
  "/>
<polyline clip-path="url(#clip103)" style="stroke:#000000; stroke-linecap:round; stroke-linejoin:round; stroke-width:2; stroke-opacity:0.1; fill:none" points="
  2257.05,1874.93 2257.05,1247.24 
  "/>
<polyline clip-path="url(#clip100)" style="stroke:#000000; stroke-linecap:round; stroke-linejoin:round; stroke-width:4; stroke-opacity:1; fill:none" points="
  178.867,1874.93 2352.76,1874.93 
  "/>
<polyline clip-path="url(#clip100)" style="stroke:#000000; stroke-linecap:round; stroke-linejoin:round; stroke-width:4; stroke-opacity:1; fill:none" points="
  206.211,1874.93 206.211,1856.03 
  "/>
<polyline clip-path="url(#clip100)" style="stroke:#000000; stroke-linecap:round; stroke-linejoin:round; stroke-width:4; stroke-opacity:1; fill:none" points="
  548.018,1874.93 548.018,1856.03 
  "/>
<polyline clip-path="url(#clip100)" style="stroke:#000000; stroke-linecap:round; stroke-linejoin:round; stroke-width:4; stroke-opacity:1; fill:none" points="
  889.824,1874.93 889.824,1856.03 
  "/>
<polyline clip-path="url(#clip100)" style="stroke:#000000; stroke-linecap:round; stroke-linejoin:round; stroke-width:4; stroke-opacity:1; fill:none" points="
  1231.63,1874.93 1231.63,1856.03 
  "/>
<polyline clip-path="url(#clip100)" style="stroke:#000000; stroke-linecap:round; stroke-linejoin:round; stroke-width:4; stroke-opacity:1; fill:none" points="
  1573.44,1874.93 1573.44,1856.03 
  "/>
<polyline clip-path="url(#clip100)" style="stroke:#000000; stroke-linecap:round; stroke-linejoin:round; stroke-width:4; stroke-opacity:1; fill:none" points="
  1915.24,1874.93 1915.24,1856.03 
  "/>
<polyline clip-path="url(#clip100)" style="stroke:#000000; stroke-linecap:round; stroke-linejoin:round; stroke-width:4; stroke-opacity:1; fill:none" points="
  2257.05,1874.93 2257.05,1856.03 
  "/>
<path clip-path="url(#clip100)" d="M206.211 1905.85 Q202.6 1905.85 200.771 1909.41 Q198.966 1912.95 198.966 1920.08 Q198.966 1927.19 200.771 1930.75 Q202.6 1934.29 206.211 1934.29 Q209.845 1934.29 211.651 1930.75 Q213.48 1927.19 213.48 1920.08 Q213.48 1912.95 211.651 1909.41 Q209.845 1905.85 206.211 1905.85 M206.211 1902.14 Q212.021 1902.14 215.077 1906.75 Q218.156 1911.33 218.156 1920.08 Q218.156 1928.81 215.077 1933.42 Q212.021 1938 206.211 1938 Q200.401 1938 197.322 1933.42 Q194.267 1928.81 194.267 1920.08 Q194.267 1911.33 197.322 1906.75 Q200.401 1902.14 206.211 1902.14 Z" fill="#000000" fill-rule="evenodd" fill-opacity="1" /><path clip-path="url(#clip100)" d="M522.705 1933.39 L530.344 1933.39 L530.344 1907.03 L522.034 1908.69 L522.034 1904.43 L530.298 1902.77 L534.974 1902.77 L534.974 1933.39 L542.613 1933.39 L542.613 1937.33 L522.705 1937.33 L522.705 1933.39 Z" fill="#000000" fill-rule="evenodd" fill-opacity="1" /><path clip-path="url(#clip100)" d="M562.057 1905.85 Q558.446 1905.85 556.617 1909.41 Q554.812 1912.95 554.812 1920.08 Q554.812 1927.19 556.617 1930.75 Q558.446 1934.29 562.057 1934.29 Q565.691 1934.29 567.497 1930.75 Q569.325 1927.19 569.325 1920.08 Q569.325 1912.95 567.497 1909.41 Q565.691 1905.85 562.057 1905.85 M562.057 1902.14 Q567.867 1902.14 570.923 1906.75 Q574.001 1911.33 574.001 1920.08 Q574.001 1928.81 570.923 1933.42 Q567.867 1938 562.057 1938 Q556.247 1938 553.168 1933.42 Q550.113 1928.81 550.113 1920.08 Q550.113 1911.33 553.168 1906.75 Q556.247 1902.14 562.057 1902.14 Z" fill="#000000" fill-rule="evenodd" fill-opacity="1" /><path clip-path="url(#clip100)" d="M868.597 1933.39 L884.917 1933.39 L884.917 1937.33 L862.972 1937.33 L862.972 1933.39 Q865.634 1930.64 870.218 1926.01 Q874.824 1921.36 876.005 1920.01 Q878.25 1917.49 879.13 1915.75 Q880.033 1913.99 880.033 1912.3 Q880.033 1909.55 878.088 1907.81 Q876.167 1906.08 873.065 1906.08 Q870.866 1906.08 868.412 1906.84 Q865.982 1907.61 863.204 1909.16 L863.204 1904.43 Q866.028 1903.3 868.482 1902.72 Q870.935 1902.14 872.972 1902.14 Q878.343 1902.14 881.537 1904.83 Q884.732 1907.51 884.732 1912 Q884.732 1914.13 883.921 1916.05 Q883.134 1917.95 881.028 1920.54 Q880.449 1921.22 877.347 1924.43 Q874.246 1927.63 868.597 1933.39 Z" fill="#000000" fill-rule="evenodd" fill-opacity="1" /><path clip-path="url(#clip100)" d="M904.731 1905.85 Q901.12 1905.85 899.292 1909.41 Q897.486 1912.95 897.486 1920.08 Q897.486 1927.19 899.292 1930.75 Q901.12 1934.29 904.731 1934.29 Q908.366 1934.29 910.171 1930.75 Q912 1927.19 912 1920.08 Q912 1912.95 910.171 1909.41 Q908.366 1905.85 904.731 1905.85 M904.731 1902.14 Q910.542 1902.14 913.597 1906.75 Q916.676 1911.33 916.676 1920.08 Q916.676 1928.81 913.597 1933.42 Q910.542 1938 904.731 1938 Q898.921 1938 895.843 1933.42 Q892.787 1928.81 892.787 1920.08 Q892.787 1911.33 895.843 1906.75 Q898.921 1902.14 904.731 1902.14 Z" fill="#000000" fill-rule="evenodd" fill-opacity="1" /><path clip-path="url(#clip100)" d="M1220.47 1918.69 Q1223.83 1919.41 1225.7 1921.68 Q1227.6 1923.95 1227.6 1927.28 Q1227.6 1932.4 1224.08 1935.2 Q1220.57 1938 1214.08 1938 Q1211.91 1938 1209.59 1937.56 Q1207.3 1937.14 1204.85 1936.29 L1204.85 1931.77 Q1206.79 1932.91 1209.11 1933.48 Q1211.42 1934.06 1213.95 1934.06 Q1218.34 1934.06 1220.64 1932.33 Q1222.95 1930.59 1222.95 1927.28 Q1222.95 1924.23 1220.8 1922.51 Q1218.67 1920.78 1214.85 1920.78 L1210.82 1920.78 L1210.82 1916.93 L1215.03 1916.93 Q1218.48 1916.93 1220.31 1915.57 Q1222.14 1914.18 1222.14 1911.59 Q1222.14 1908.92 1220.24 1907.51 Q1218.37 1906.08 1214.85 1906.08 Q1212.93 1906.08 1210.73 1906.49 Q1208.53 1906.91 1205.89 1907.79 L1205.89 1903.62 Q1208.55 1902.88 1210.87 1902.51 Q1213.2 1902.14 1215.26 1902.14 Q1220.59 1902.14 1223.69 1904.57 Q1226.79 1906.98 1226.79 1911.1 Q1226.79 1913.97 1225.15 1915.96 Q1223.51 1917.93 1220.47 1918.69 Z" fill="#000000" fill-rule="evenodd" fill-opacity="1" /><path clip-path="url(#clip100)" d="M1246.47 1905.85 Q1242.86 1905.85 1241.03 1909.41 Q1239.22 1912.95 1239.22 1920.08 Q1239.22 1927.19 1241.03 1930.75 Q1242.86 1934.29 1246.47 1934.29 Q1250.1 1934.29 1251.91 1930.75 Q1253.74 1927.19 1253.74 1920.08 Q1253.74 1912.95 1251.91 1909.41 Q1250.1 1905.85 1246.47 1905.85 M1246.47 1902.14 Q1252.28 1902.14 1255.33 1906.75 Q1258.41 1911.33 1258.41 1920.08 Q1258.41 1928.81 1255.33 1933.42 Q1252.28 1938 1246.47 1938 Q1240.66 1938 1237.58 1933.42 Q1234.52 1928.81 1234.52 1920.08 Q1234.52 1911.33 1237.58 1906.75 Q1240.66 1902.14 1246.47 1902.14 Z" fill="#000000" fill-rule="evenodd" fill-opacity="1" /><path clip-path="url(#clip100)" d="M1561.61 1906.84 L1549.8 1925.29 L1561.61 1925.29 L1561.61 1906.84 M1560.38 1902.77 L1566.26 1902.77 L1566.26 1925.29 L1571.19 1925.29 L1571.19 1929.18 L1566.26 1929.18 L1566.26 1937.33 L1561.61 1937.33 L1561.61 1929.18 L1546.01 1929.18 L1546.01 1924.67 L1560.38 1902.77 Z" fill="#000000" fill-rule="evenodd" fill-opacity="1" /><path clip-path="url(#clip100)" d="M1588.92 1905.85 Q1585.31 1905.85 1583.48 1909.41 Q1581.68 1912.95 1581.68 1920.08 Q1581.68 1927.19 1583.48 1930.75 Q1585.31 1934.29 1588.92 1934.29 Q1592.56 1934.29 1594.36 1930.75 Q1596.19 1927.19 1596.19 1920.08 Q1596.19 1912.95 1594.36 1909.41 Q1592.56 1905.85 1588.92 1905.85 M1588.92 1902.14 Q1594.73 1902.14 1597.79 1906.75 Q1600.87 1911.33 1600.87 1920.08 Q1600.87 1928.81 1597.79 1933.42 Q1594.73 1938 1588.92 1938 Q1583.11 1938 1580.03 1933.42 Q1576.98 1928.81 1576.98 1920.08 Q1576.98 1911.33 1580.03 1906.75 Q1583.11 1902.14 1588.92 1902.14 Z" fill="#000000" fill-rule="evenodd" fill-opacity="1" /><path clip-path="url(#clip100)" d="M1889.94 1902.77 L1908.3 1902.77 L1908.3 1906.7 L1894.23 1906.7 L1894.23 1915.17 Q1895.24 1914.83 1896.26 1914.67 Q1897.28 1914.48 1898.3 1914.48 Q1904.09 1914.48 1907.47 1917.65 Q1910.85 1920.82 1910.85 1926.24 Q1910.85 1931.82 1907.37 1934.92 Q1903.9 1938 1897.58 1938 Q1895.41 1938 1893.14 1937.63 Q1890.89 1937.26 1888.48 1936.52 L1888.48 1931.82 Q1890.57 1932.95 1892.79 1933.51 Q1895.01 1934.06 1897.49 1934.06 Q1901.49 1934.06 1903.83 1931.96 Q1906.17 1929.85 1906.17 1926.24 Q1906.17 1922.63 1903.83 1920.52 Q1901.49 1918.42 1897.49 1918.42 Q1895.61 1918.42 1893.74 1918.83 Q1891.89 1919.25 1889.94 1920.13 L1889.94 1902.77 Z" fill="#000000" fill-rule="evenodd" fill-opacity="1" /><path clip-path="url(#clip100)" d="M1930.06 1905.85 Q1926.45 1905.85 1924.62 1909.41 Q1922.81 1912.95 1922.81 1920.08 Q1922.81 1927.19 1924.62 1930.75 Q1926.45 1934.29 1930.06 1934.29 Q1933.69 1934.29 1935.5 1930.75 Q1937.33 1927.19 1937.33 1920.08 Q1937.33 1912.95 1935.5 1909.41 Q1933.69 1905.85 1930.06 1905.85 M1930.06 1902.14 Q1935.87 1902.14 1938.92 1906.75 Q1942 1911.33 1942 1920.08 Q1942 1928.81 1938.92 1933.42 Q1935.87 1938 1930.06 1938 Q1924.25 1938 1921.17 1933.42 Q1918.11 1928.81 1918.11 1920.08 Q1918.11 1911.33 1921.17 1906.75 Q1924.25 1902.14 1930.06 1902.14 Z" fill="#000000" fill-rule="evenodd" fill-opacity="1" /><path clip-path="url(#clip100)" d="M2242.46 1918.18 Q2239.31 1918.18 2237.46 1920.34 Q2235.63 1922.49 2235.63 1926.24 Q2235.63 1929.97 2237.46 1932.14 Q2239.31 1934.29 2242.46 1934.29 Q2245.6 1934.29 2247.43 1932.14 Q2249.28 1929.97 2249.28 1926.24 Q2249.28 1922.49 2247.43 1920.34 Q2245.6 1918.18 2242.46 1918.18 M2251.74 1903.53 L2251.74 1907.79 Q2249.98 1906.96 2248.17 1906.52 Q2246.39 1906.08 2244.63 1906.08 Q2240 1906.08 2237.55 1909.2 Q2235.12 1912.33 2234.77 1918.65 Q2236.14 1916.63 2238.2 1915.57 Q2240.26 1914.48 2242.73 1914.48 Q2247.94 1914.48 2250.95 1917.65 Q2253.98 1920.8 2253.98 1926.24 Q2253.98 1931.56 2250.83 1934.78 Q2247.69 1938 2242.46 1938 Q2236.46 1938 2233.29 1933.42 Q2230.12 1928.81 2230.12 1920.08 Q2230.12 1911.89 2234.01 1907.03 Q2237.9 1902.14 2244.45 1902.14 Q2246.21 1902.14 2247.99 1902.49 Q2249.79 1902.84 2251.74 1903.53 Z" fill="#000000" fill-rule="evenodd" fill-opacity="1" /><path clip-path="url(#clip100)" d="M2272.04 1905.85 Q2268.43 1905.85 2266.6 1909.41 Q2264.79 1912.95 2264.79 1920.08 Q2264.79 1927.19 2266.6 1930.75 Q2268.43 1934.29 2272.04 1934.29 Q2275.67 1934.29 2277.48 1930.75 Q2279.31 1927.19 2279.31 1920.08 Q2279.31 1912.95 2277.48 1909.41 Q2275.67 1905.85 2272.04 1905.85 M2272.04 1902.14 Q2277.85 1902.14 2280.9 1906.75 Q2283.98 1911.33 2283.98 1920.08 Q2283.98 1928.81 2280.9 1933.42 Q2277.85 1938 2272.04 1938 Q2266.23 1938 2263.15 1933.42 Q2260.09 1928.81 2260.09 1920.08 Q2260.09 1911.33 2263.15 1906.75 Q2266.23 1902.14 2272.04 1902.14 Z" fill="#000000" fill-rule="evenodd" fill-opacity="1" /><path clip-path="url(#clip100)" d="M1187.69 1972.27 L1227.89 1972.27 L1227.89 1977.68 L1211.02 1977.68 L1211.02 2019.79 L1204.56 2019.79 L1204.56 1977.68 L1187.69 1977.68 L1187.69 1972.27 Z" fill="#000000" fill-rule="evenodd" fill-opacity="1" /><path clip-path="url(#clip100)" d="M1231.83 1984.14 L1237.69 1984.14 L1237.69 2019.79 L1231.83 2019.79 L1231.83 1984.14 M1231.83 1970.27 L1237.69 1970.27 L1237.69 1977.68 L1231.83 1977.68 L1231.83 1970.27 Z" fill="#000000" fill-rule="evenodd" fill-opacity="1" /><path clip-path="url(#clip100)" d="M1277.7 1990.99 Q1279.9 1987.04 1282.95 1985.16 Q1286.01 1983.28 1290.14 1983.28 Q1295.71 1983.28 1298.74 1987.2 Q1301.76 1991.08 1301.76 1998.28 L1301.76 2019.79 L1295.87 2019.79 L1295.87 1998.47 Q1295.87 1993.34 1294.06 1990.86 Q1292.24 1988.38 1288.52 1988.38 Q1283.97 1988.38 1281.33 1991.4 Q1278.69 1994.42 1278.69 1999.64 L1278.69 2019.79 L1272.8 2019.79 L1272.8 1998.47 Q1272.8 1993.31 1270.98 1990.86 Q1269.17 1988.38 1265.38 1988.38 Q1260.89 1988.38 1258.25 1991.43 Q1255.61 1994.46 1255.61 1999.64 L1255.61 2019.79 L1249.72 2019.79 L1249.72 1984.14 L1255.61 1984.14 L1255.61 1989.68 Q1257.62 1986.4 1260.42 1984.84 Q1263.22 1983.28 1267.07 1983.28 Q1270.95 1983.28 1273.66 1985.26 Q1276.39 1987.23 1277.7 1990.99 Z" fill="#000000" fill-rule="evenodd" fill-opacity="1" /><path clip-path="url(#clip100)" d="M1343.93 2000.5 L1343.93 2003.37 L1317.01 2003.37 Q1317.39 2009.42 1320.64 2012.6 Q1323.91 2015.75 1329.74 2015.75 Q1333.11 2015.75 1336.26 2014.92 Q1339.45 2014.09 1342.57 2012.44 L1342.57 2017.98 Q1339.41 2019.31 1336.1 2020.01 Q1332.79 2020.71 1329.39 2020.71 Q1320.86 2020.71 1315.86 2015.75 Q1310.9 2010.78 1310.9 2002.32 Q1310.9 1993.56 1315.61 1988.44 Q1320.35 1983.28 1328.37 1983.28 Q1335.56 1983.28 1339.73 1987.93 Q1343.93 1992.55 1343.93 2000.5 M1338.08 1998.78 Q1338.01 1993.98 1335.37 1991.11 Q1332.76 1988.25 1328.43 1988.25 Q1323.53 1988.25 1320.57 1991.02 Q1317.64 1993.79 1317.2 1998.82 L1338.08 1998.78 Z" fill="#000000" fill-rule="evenodd" fill-opacity="1" /><polyline clip-path="url(#clip103)" style="stroke:#000000; stroke-linecap:round; stroke-linejoin:round; stroke-width:2; stroke-opacity:0.1; fill:none" points="
  178.867,1830.36 2352.76,1830.36 
  "/>
<polyline clip-path="url(#clip103)" style="stroke:#000000; stroke-linecap:round; stroke-linejoin:round; stroke-width:2; stroke-opacity:0.1; fill:none" points="
  178.867,1728.18 2352.76,1728.18 
  "/>
<polyline clip-path="url(#clip103)" style="stroke:#000000; stroke-linecap:round; stroke-linejoin:round; stroke-width:2; stroke-opacity:0.1; fill:none" points="
  178.867,1626.01 2352.76,1626.01 
  "/>
<polyline clip-path="url(#clip103)" style="stroke:#000000; stroke-linecap:round; stroke-linejoin:round; stroke-width:2; stroke-opacity:0.1; fill:none" points="
  178.867,1523.83 2352.76,1523.83 
  "/>
<polyline clip-path="url(#clip103)" style="stroke:#000000; stroke-linecap:round; stroke-linejoin:round; stroke-width:2; stroke-opacity:0.1; fill:none" points="
  178.867,1421.65 2352.76,1421.65 
  "/>
<polyline clip-path="url(#clip103)" style="stroke:#000000; stroke-linecap:round; stroke-linejoin:round; stroke-width:2; stroke-opacity:0.1; fill:none" points="
  178.867,1319.48 2352.76,1319.48 
  "/>
<polyline clip-path="url(#clip100)" style="stroke:#000000; stroke-linecap:round; stroke-linejoin:round; stroke-width:4; stroke-opacity:1; fill:none" points="
  178.867,1874.93 178.867,1247.24 
  "/>
<polyline clip-path="url(#clip100)" style="stroke:#000000; stroke-linecap:round; stroke-linejoin:round; stroke-width:4; stroke-opacity:1; fill:none" points="
  178.867,1830.36 197.764,1830.36 
  "/>
<polyline clip-path="url(#clip100)" style="stroke:#000000; stroke-linecap:round; stroke-linejoin:round; stroke-width:4; stroke-opacity:1; fill:none" points="
  178.867,1728.18 197.764,1728.18 
  "/>
<polyline clip-path="url(#clip100)" style="stroke:#000000; stroke-linecap:round; stroke-linejoin:round; stroke-width:4; stroke-opacity:1; fill:none" points="
  178.867,1626.01 197.764,1626.01 
  "/>
<polyline clip-path="url(#clip100)" style="stroke:#000000; stroke-linecap:round; stroke-linejoin:round; stroke-width:4; stroke-opacity:1; fill:none" points="
  178.867,1523.83 197.764,1523.83 
  "/>
<polyline clip-path="url(#clip100)" style="stroke:#000000; stroke-linecap:round; stroke-linejoin:round; stroke-width:4; stroke-opacity:1; fill:none" points="
  178.867,1421.65 197.764,1421.65 
  "/>
<polyline clip-path="url(#clip100)" style="stroke:#000000; stroke-linecap:round; stroke-linejoin:round; stroke-width:4; stroke-opacity:1; fill:none" points="
  178.867,1319.48 197.764,1319.48 
  "/>
<path clip-path="url(#clip100)" d="M51.9875 1830.81 L81.6633 1830.81 L81.6633 1834.74 L51.9875 1834.74 L51.9875 1830.81 Z" fill="#000000" fill-rule="evenodd" fill-opacity="1" /><path clip-path="url(#clip100)" d="M92.566 1843.7 L100.205 1843.7 L100.205 1817.34 L91.8947 1819 L91.8947 1814.74 L100.159 1813.08 L104.834 1813.08 L104.834 1843.7 L112.473 1843.7 L112.473 1847.64 L92.566 1847.64 L92.566 1843.7 Z" fill="#000000" fill-rule="evenodd" fill-opacity="1" /><path clip-path="url(#clip100)" d="M121.964 1813.08 L140.32 1813.08 L140.32 1817.01 L126.246 1817.01 L126.246 1825.48 Q127.265 1825.14 128.283 1824.97 Q129.302 1824.79 130.32 1824.79 Q136.107 1824.79 139.487 1827.96 Q142.867 1831.13 142.867 1836.55 Q142.867 1842.13 139.394 1845.23 Q135.922 1848.31 129.603 1848.31 Q127.427 1848.31 125.158 1847.94 Q122.913 1847.57 120.506 1846.83 L120.506 1842.13 Q122.589 1843.26 124.811 1843.82 Q127.033 1844.37 129.51 1844.37 Q133.515 1844.37 135.853 1842.27 Q138.191 1840.16 138.191 1836.55 Q138.191 1832.94 135.853 1830.83 Q133.515 1828.72 129.51 1828.72 Q127.635 1828.72 125.76 1829.14 Q123.908 1829.56 121.964 1830.44 L121.964 1813.08 Z" fill="#000000" fill-rule="evenodd" fill-opacity="1" /><path clip-path="url(#clip100)" d="M50.9921 1728.63 L80.6679 1728.63 L80.6679 1732.57 L50.9921 1732.57 L50.9921 1728.63 Z" fill="#000000" fill-rule="evenodd" fill-opacity="1" /><path clip-path="url(#clip100)" d="M91.5706 1741.53 L99.2095 1741.53 L99.2095 1715.16 L90.8993 1716.83 L90.8993 1712.57 L99.1632 1710.9 L103.839 1710.9 L103.839 1741.53 L111.478 1741.53 L111.478 1745.46 L91.5706 1745.46 L91.5706 1741.53 Z" fill="#000000" fill-rule="evenodd" fill-opacity="1" /><path clip-path="url(#clip100)" d="M130.922 1713.98 Q127.311 1713.98 125.482 1717.54 Q123.677 1721.09 123.677 1728.22 Q123.677 1735.32 125.482 1738.89 Q127.311 1742.43 130.922 1742.43 Q134.556 1742.43 136.362 1738.89 Q138.191 1735.32 138.191 1728.22 Q138.191 1721.09 136.362 1717.54 Q134.556 1713.98 130.922 1713.98 M130.922 1710.28 Q136.732 1710.28 139.788 1714.88 Q142.867 1719.47 142.867 1728.22 Q142.867 1736.94 139.788 1741.55 Q136.732 1746.13 130.922 1746.13 Q125.112 1746.13 122.033 1741.55 Q118.978 1736.94 118.978 1728.22 Q118.978 1719.47 122.033 1714.88 Q125.112 1710.28 130.922 1710.28 Z" fill="#000000" fill-rule="evenodd" fill-opacity="1" /><path clip-path="url(#clip100)" d="M82.1494 1626.46 L111.825 1626.46 L111.825 1630.39 L82.1494 1630.39 L82.1494 1626.46 Z" fill="#000000" fill-rule="evenodd" fill-opacity="1" /><path clip-path="url(#clip100)" d="M121.964 1608.73 L140.32 1608.73 L140.32 1612.66 L126.246 1612.66 L126.246 1621.13 Q127.265 1620.79 128.283 1620.62 Q129.302 1620.44 130.32 1620.44 Q136.107 1620.44 139.487 1623.61 Q142.867 1626.78 142.867 1632.2 Q142.867 1637.78 139.394 1640.88 Q135.922 1643.96 129.603 1643.96 Q127.427 1643.96 125.158 1643.59 Q122.913 1643.22 120.506 1642.48 L120.506 1637.78 Q122.589 1638.91 124.811 1639.47 Q127.033 1640.02 129.51 1640.02 Q133.515 1640.02 135.853 1637.91 Q138.191 1635.81 138.191 1632.2 Q138.191 1628.59 135.853 1626.48 Q133.515 1624.37 129.51 1624.37 Q127.635 1624.37 125.76 1624.79 Q123.908 1625.21 121.964 1626.09 L121.964 1608.73 Z" fill="#000000" fill-rule="evenodd" fill-opacity="1" /><path clip-path="url(#clip100)" d="M130.922 1509.63 Q127.311 1509.63 125.482 1513.19 Q123.677 1516.73 123.677 1523.86 Q123.677 1530.97 125.482 1534.54 Q127.311 1538.08 130.922 1538.08 Q134.556 1538.08 136.362 1534.54 Q138.191 1530.97 138.191 1523.86 Q138.191 1516.73 136.362 1513.19 Q134.556 1509.63 130.922 1509.63 M130.922 1505.92 Q136.732 1505.92 139.788 1510.53 Q142.867 1515.11 142.867 1523.86 Q142.867 1532.59 139.788 1537.2 Q136.732 1541.78 130.922 1541.78 Q125.112 1541.78 122.033 1537.2 Q118.978 1532.59 118.978 1523.86 Q118.978 1515.11 122.033 1510.53 Q125.112 1505.92 130.922 1505.92 Z" fill="#000000" fill-rule="evenodd" fill-opacity="1" /><path clip-path="url(#clip100)" d="M121.964 1404.37 L140.32 1404.37 L140.32 1408.31 L126.246 1408.31 L126.246 1416.78 Q127.265 1416.43 128.283 1416.27 Q129.302 1416.09 130.32 1416.09 Q136.107 1416.09 139.487 1419.26 Q142.867 1422.43 142.867 1427.85 Q142.867 1433.42 139.394 1436.53 Q135.922 1439.6 129.603 1439.6 Q127.427 1439.6 125.158 1439.23 Q122.913 1438.86 120.506 1438.12 L120.506 1433.42 Q122.589 1434.56 124.811 1435.11 Q127.033 1435.67 129.51 1435.67 Q133.515 1435.67 135.853 1433.56 Q138.191 1431.46 138.191 1427.85 Q138.191 1424.23 135.853 1422.13 Q133.515 1420.02 129.51 1420.02 Q127.635 1420.02 125.76 1420.44 Q123.908 1420.86 121.964 1421.73 L121.964 1404.37 Z" fill="#000000" fill-rule="evenodd" fill-opacity="1" /><path clip-path="url(#clip100)" d="M91.5706 1332.82 L99.2095 1332.82 L99.2095 1306.46 L90.8993 1308.12 L90.8993 1303.86 L99.1632 1302.2 L103.839 1302.2 L103.839 1332.82 L111.478 1332.82 L111.478 1336.76 L91.5706 1336.76 L91.5706 1332.82 Z" fill="#000000" fill-rule="evenodd" fill-opacity="1" /><path clip-path="url(#clip100)" d="M130.922 1305.28 Q127.311 1305.28 125.482 1308.84 Q123.677 1312.38 123.677 1319.51 Q123.677 1326.62 125.482 1330.18 Q127.311 1333.73 130.922 1333.73 Q134.556 1333.73 136.362 1330.18 Q138.191 1326.62 138.191 1319.51 Q138.191 1312.38 136.362 1308.84 Q134.556 1305.28 130.922 1305.28 M130.922 1301.57 Q136.732 1301.57 139.788 1306.18 Q142.867 1310.76 142.867 1319.51 Q142.867 1328.24 139.788 1332.85 Q136.732 1337.43 130.922 1337.43 Q125.112 1337.43 122.033 1332.85 Q118.978 1328.24 118.978 1319.51 Q118.978 1310.76 122.033 1306.18 Q125.112 1301.57 130.922 1301.57 Z" fill="#000000" fill-rule="evenodd" fill-opacity="1" /><polyline clip-path="url(#clip103)" style="stroke:#0000ff; stroke-linecap:round; stroke-linejoin:round; stroke-width:4; stroke-opacity:1; fill:none" points="
  240.392,1523.83 274.572,1564.24 308.753,1598.86 342.934,1631.06 377.114,1660.76 411.295,1701.95 445.476,1717.7 479.656,1735.58 513.837,1748.09 548.018,1779.25 
  582.198,1798.81 616.379,1814.42 650.56,1824.45 684.74,1826.25 718.921,1834.01 753.102,1841.69 787.282,1842 821.463,1845.06 855.643,1838.53 889.824,1850.6 
  924.005,1857.16 958.185,1856.86 992.366,1848.23 1026.55,1841.55 1060.73,1829.32 1094.91,1808.27 1129.09,1802.24 1163.27,1787.48 1197.45,1753.62 1231.63,1728.66 
  1265.81,1701.72 1299.99,1667.59 1334.17,1638.19 1368.35,1606.9 1402.53,1566.16 1436.71,1517.93 1470.9,1472.87 1505.08,1424.96 1539.26,1367.47 1573.44,1325.12 
  1607.62,1265.01 1641.8,1272.84 1675.98,1281.06 1710.16,1289.69 1744.34,1298.75 1778.52,1308.26 1812.7,1318.25 1846.88,1328.74 1881.06,1339.75 1915.24,1351.32 
  1949.42,1363.46 1983.6,1376.21 2017.79,1389.6 2051.97,1403.66 2086.15,1418.42 2120.33,1433.92 2154.51,1450.19 2188.69,1467.28 2222.87,1485.22 2257.05,1504.05 
  2291.23,1523.83 
  "/>
<polyline clip-path="url(#clip103)" style="stroke:#000000; stroke-linecap:round; stroke-linejoin:round; stroke-width:4; stroke-opacity:1; fill:none" points="
  240.392,1523.83 274.572,1523.83 308.753,1523.83 342.934,1523.83 377.114,1523.83 411.295,1523.83 445.476,1523.83 479.656,1523.83 513.837,1523.83 548.018,1523.83 
  582.198,1523.83 616.379,1523.83 650.56,1523.83 684.74,1523.83 718.921,1523.83 753.102,1523.83 787.282,1523.83 821.463,1523.83 855.643,1523.83 889.824,1523.83 
  924.005,1523.83 958.185,1523.83 992.366,1523.83 1026.55,1523.83 1060.73,1523.83 1094.91,1523.83 1129.09,1523.83 1163.27,1523.83 1197.45,1523.83 1231.63,1523.83 
  1265.81,1523.83 1299.99,1523.83 1334.17,1523.83 1368.35,1523.83 1402.53,1523.83 1436.71,1523.83 1470.9,1523.83 1505.08,1523.83 1539.26,1523.83 1573.44,1523.83 
  1607.62,1523.83 1641.8,1523.83 1675.98,1523.83 1710.16,1523.83 1744.34,1523.83 1778.52,1523.83 1812.7,1523.83 1846.88,1523.83 1881.06,1523.83 1915.24,1523.83 
  1949.42,1523.83 1983.6,1523.83 2017.79,1523.83 2051.97,1523.83 2086.15,1523.83 2120.33,1523.83 2154.51,1523.83 2188.69,1523.83 2222.87,1523.83 2257.05,1523.83 
  2291.23,1523.83 
  "/>
<path clip-path="url(#clip100)" d="
M251.33 1371.85 L614.458 1371.85 L614.458 1268.17 L251.33 1268.17  Z
  " fill="#ffffff" fill-rule="evenodd" fill-opacity="1"/>
<polyline clip-path="url(#clip100)" style="stroke:#000000; stroke-linecap:round; stroke-linejoin:round; stroke-width:4; stroke-opacity:1; fill:none" points="
  251.33,1371.85 614.458,1371.85 614.458,1268.17 251.33,1268.17 251.33,1371.85 
  "/>
<polyline clip-path="url(#clip100)" style="stroke:#0000ff; stroke-linecap:round; stroke-linejoin:round; stroke-width:4; stroke-opacity:1; fill:none" points="
  275.484,1320.01 420.41,1320.01 
  "/>
<path clip-path="url(#clip100)" d="M457.967 1324.25 Q452.805 1324.25 450.814 1325.44 Q448.823 1326.62 448.823 1329.46 Q448.823 1331.73 450.305 1333.07 Q451.81 1334.39 454.379 1334.39 Q457.921 1334.39 460.05 1331.89 Q462.203 1329.37 462.203 1325.2 L462.203 1324.25 L457.967 1324.25 M466.462 1322.5 L466.462 1337.29 L462.203 1337.29 L462.203 1333.35 Q460.745 1335.71 458.569 1336.85 Q456.393 1337.96 453.245 1337.96 Q449.263 1337.96 446.902 1335.74 Q444.564 1333.49 444.564 1329.74 Q444.564 1325.37 447.481 1323.14 Q450.421 1320.92 456.231 1320.92 L462.203 1320.92 L462.203 1320.5 Q462.203 1317.56 460.259 1315.97 Q458.337 1314.35 454.842 1314.35 Q452.62 1314.35 450.513 1314.88 Q448.407 1315.41 446.462 1316.48 L446.462 1312.54 Q448.8 1311.64 450.999 1311.2 Q453.198 1310.74 455.282 1310.74 Q460.907 1310.74 463.684 1313.65 Q466.462 1316.57 466.462 1322.5 Z" fill="#000000" fill-rule="evenodd" fill-opacity="1" /><path clip-path="url(#clip100)" d="M491.763 1312.12 L491.763 1316.15 Q489.957 1315.23 488.013 1314.76 Q486.069 1314.3 483.985 1314.3 Q480.814 1314.3 479.217 1315.27 Q477.643 1316.25 477.643 1318.19 Q477.643 1319.67 478.777 1320.53 Q479.911 1321.36 483.337 1322.12 L484.795 1322.45 Q489.332 1323.42 491.231 1325.2 Q493.152 1326.96 493.152 1330.13 Q493.152 1333.75 490.282 1335.85 Q487.434 1337.96 482.434 1337.96 Q480.351 1337.96 478.083 1337.54 Q475.837 1337.15 473.337 1336.34 L473.337 1331.94 Q475.698 1333.17 477.99 1333.79 Q480.282 1334.39 482.527 1334.39 Q485.536 1334.39 487.157 1333.37 Q488.777 1332.33 488.777 1330.46 Q488.777 1328.72 487.596 1327.8 Q486.439 1326.87 482.481 1326.01 L480.999 1325.67 Q477.041 1324.83 475.282 1323.12 Q473.522 1321.38 473.522 1318.37 Q473.522 1314.72 476.115 1312.73 Q478.708 1310.74 483.476 1310.74 Q485.837 1310.74 487.92 1311.08 Q490.004 1311.43 491.763 1312.12 Z" fill="#000000" fill-rule="evenodd" fill-opacity="1" /><path clip-path="url(#clip100)" d="M516.462 1312.12 L516.462 1316.15 Q514.656 1315.23 512.712 1314.76 Q510.768 1314.3 508.684 1314.3 Q505.513 1314.3 503.916 1315.27 Q502.342 1316.25 502.342 1318.19 Q502.342 1319.67 503.476 1320.53 Q504.61 1321.36 508.036 1322.12 L509.494 1322.45 Q514.031 1323.42 515.93 1325.2 Q517.851 1326.96 517.851 1330.13 Q517.851 1333.75 514.981 1335.85 Q512.133 1337.96 507.133 1337.96 Q505.05 1337.96 502.781 1337.54 Q500.536 1337.15 498.036 1336.34 L498.036 1331.94 Q500.397 1333.17 502.689 1333.79 Q504.981 1334.39 507.226 1334.39 Q510.235 1334.39 511.856 1333.37 Q513.476 1332.33 513.476 1330.46 Q513.476 1328.72 512.295 1327.8 Q511.138 1326.87 507.18 1326.01 L505.698 1325.67 Q501.74 1324.83 499.981 1323.12 Q498.221 1321.38 498.221 1318.37 Q498.221 1314.72 500.814 1312.73 Q503.406 1310.74 508.175 1310.74 Q510.536 1310.74 512.619 1311.08 Q514.703 1311.43 516.462 1312.12 Z" fill="#000000" fill-rule="evenodd" fill-opacity="1" /><path clip-path="url(#clip100)" d="M546.809 1323.26 L546.809 1325.34 L527.226 1325.34 Q527.504 1329.74 529.865 1332.06 Q532.249 1334.35 536.485 1334.35 Q538.939 1334.35 541.23 1333.75 Q543.545 1333.14 545.814 1331.94 L545.814 1335.97 Q543.522 1336.94 541.115 1337.45 Q538.707 1337.96 536.23 1337.96 Q530.027 1337.96 526.392 1334.35 Q522.781 1330.74 522.781 1324.58 Q522.781 1318.21 526.207 1314.49 Q529.656 1310.74 535.49 1310.74 Q540.721 1310.74 543.753 1314.12 Q546.809 1317.47 546.809 1323.26 M542.55 1322.01 Q542.504 1318.51 540.582 1316.43 Q538.684 1314.35 535.536 1314.35 Q531.971 1314.35 529.818 1316.36 Q527.689 1318.37 527.365 1322.03 L542.55 1322.01 Z" fill="#000000" fill-rule="evenodd" fill-opacity="1" /><path clip-path="url(#clip100)" d="M558.013 1304 L558.013 1311.36 L566.786 1311.36 L566.786 1314.67 L558.013 1314.67 L558.013 1328.75 Q558.013 1331.92 558.869 1332.82 Q559.749 1333.72 562.411 1333.72 L566.786 1333.72 L566.786 1337.29 L562.411 1337.29 Q557.48 1337.29 555.605 1335.46 Q553.73 1333.61 553.73 1328.75 L553.73 1314.67 L550.605 1314.67 L550.605 1311.36 L553.73 1311.36 L553.73 1304 L558.013 1304 Z" fill="#000000" fill-rule="evenodd" fill-opacity="1" /><path clip-path="url(#clip100)" d="M588.915 1312.12 L588.915 1316.15 Q587.11 1315.23 585.165 1314.76 Q583.221 1314.3 581.138 1314.3 Q577.966 1314.3 576.369 1315.27 Q574.795 1316.25 574.795 1318.19 Q574.795 1319.67 575.929 1320.53 Q577.064 1321.36 580.489 1322.12 L581.948 1322.45 Q586.485 1323.42 588.383 1325.2 Q590.304 1326.96 590.304 1330.13 Q590.304 1333.75 587.434 1335.85 Q584.587 1337.96 579.587 1337.96 Q577.503 1337.96 575.235 1337.54 Q572.989 1337.15 570.489 1336.34 L570.489 1331.94 Q572.851 1333.17 575.142 1333.79 Q577.434 1334.39 579.679 1334.39 Q582.688 1334.39 584.309 1333.37 Q585.929 1332.33 585.929 1330.46 Q585.929 1328.72 584.749 1327.8 Q583.591 1326.87 579.633 1326.01 L578.151 1325.67 Q574.193 1324.83 572.434 1323.12 Q570.675 1321.38 570.675 1318.37 Q570.675 1314.72 573.267 1312.73 Q575.86 1310.74 580.628 1310.74 Q582.989 1310.74 585.073 1311.08 Q587.156 1311.43 588.915 1312.12 Z" fill="#000000" fill-rule="evenodd" fill-opacity="1" /></svg>
