<?xml version="1.0" encoding="utf-8"?>
<svg xmlns="http://www.w3.org/2000/svg" xmlns:xlink="http://www.w3.org/1999/xlink" width="600" height="500" viewBox="0 0 2400 2000">
<defs>
  <clipPath id="clip970">
    <rect x="0" y="0" width="2400" height="2000"/>
  </clipPath>
</defs>
<path clip-path="url(#clip970)" d="
M0 2000 L2400 2000 L2400 0 L0 0  Z
  " fill="#ffffff" fill-rule="evenodd" fill-opacity="1"/>
<defs>
  <clipPath id="clip971">
    <rect x="480" y="0" width="1681" height="1681"/>
  </clipPath>
</defs>
<defs>
  <clipPath id="clip972">
    <rect x="1334" y="1135" width="1031" height="719"/>
  </clipPath>
</defs>
<path clip-path="url(#clip970)" d="
M185.927 798.66 L2352.76 798.66 L2352.76 47.2441 L185.927 47.2441  Z
  " fill="#ffffff" fill-rule="evenodd" fill-opacity="1"/>
<defs>
  <clipPath id="clip973">
    <rect x="185" y="47" width="2168" height="752"/>
  </clipPath>
</defs>
<polyline clip-path="url(#clip973)" style="stroke:#000000; stroke-linecap:butt; stroke-linejoin:round; stroke-width:2; stroke-opacity:0.1; fill:none" points="
  247.252,798.66 247.252,47.2441 
  "/>
<polyline clip-path="url(#clip973)" style="stroke:#000000; stroke-linecap:butt; stroke-linejoin:round; stroke-width:2; stroke-opacity:0.1; fill:none" points="
  561.741,798.66 561.741,47.2441 
  "/>
<polyline clip-path="url(#clip973)" style="stroke:#000000; stroke-linecap:butt; stroke-linejoin:round; stroke-width:2; stroke-opacity:0.1; fill:none" points="
  876.23,798.66 876.23,47.2441 
  "/>
<polyline clip-path="url(#clip973)" style="stroke:#000000; stroke-linecap:butt; stroke-linejoin:round; stroke-width:2; stroke-opacity:0.1; fill:none" points="
  1190.72,798.66 1190.72,47.2441 
  "/>
<polyline clip-path="url(#clip973)" style="stroke:#000000; stroke-linecap:butt; stroke-linejoin:round; stroke-width:2; stroke-opacity:0.1; fill:none" points="
  1505.21,798.66 1505.21,47.2441 
  "/>
<polyline clip-path="url(#clip973)" style="stroke:#000000; stroke-linecap:butt; stroke-linejoin:round; stroke-width:2; stroke-opacity:0.1; fill:none" points="
  1819.7,798.66 1819.7,47.2441 
  "/>
<polyline clip-path="url(#clip973)" style="stroke:#000000; stroke-linecap:butt; stroke-linejoin:round; stroke-width:2; stroke-opacity:0.1; fill:none" points="
  2134.19,798.66 2134.19,47.2441 
  "/>
<polyline clip-path="url(#clip970)" style="stroke:#000000; stroke-linecap:butt; stroke-linejoin:round; stroke-width:4; stroke-opacity:1; fill:none" points="
  185.927,798.66 2352.76,798.66 
  "/>
<polyline clip-path="url(#clip970)" style="stroke:#000000; stroke-linecap:butt; stroke-linejoin:round; stroke-width:4; stroke-opacity:1; fill:none" points="
  247.252,798.66 247.252,779.762 
  "/>
<polyline clip-path="url(#clip970)" style="stroke:#000000; stroke-linecap:butt; stroke-linejoin:round; stroke-width:4; stroke-opacity:1; fill:none" points="
  561.741,798.66 561.741,779.762 
  "/>
<polyline clip-path="url(#clip970)" style="stroke:#000000; stroke-linecap:butt; stroke-linejoin:round; stroke-width:4; stroke-opacity:1; fill:none" points="
  876.23,798.66 876.23,779.762 
  "/>
<polyline clip-path="url(#clip970)" style="stroke:#000000; stroke-linecap:butt; stroke-linejoin:round; stroke-width:4; stroke-opacity:1; fill:none" points="
  1190.72,798.66 1190.72,779.762 
  "/>
<polyline clip-path="url(#clip970)" style="stroke:#000000; stroke-linecap:butt; stroke-linejoin:round; stroke-width:4; stroke-opacity:1; fill:none" points="
  1505.21,798.66 1505.21,779.762 
  "/>
<polyline clip-path="url(#clip970)" style="stroke:#000000; stroke-linecap:butt; stroke-linejoin:round; stroke-width:4; stroke-opacity:1; fill:none" points="
  1819.7,798.66 1819.7,779.762 
  "/>
<polyline clip-path="url(#clip970)" style="stroke:#000000; stroke-linecap:butt; stroke-linejoin:round; stroke-width:4; stroke-opacity:1; fill:none" points="
  2134.19,798.66 2134.19,779.762 
  "/>
<path clip-path="url(#clip970)" d="M241.905 857.125 L258.224 857.125 L258.224 861.06 L236.28 861.06 L236.28 857.125 Q238.942 854.37 243.525 849.74 Q248.132 845.088 249.312 843.745 Q251.558 841.222 252.437 839.486 Q253.34 837.727 253.34 836.037 Q253.34 833.282 251.396 831.546 Q249.474 829.81 246.373 829.81 Q244.173 829.81 241.72 830.574 Q239.289 831.338 236.511 832.889 L236.511 828.167 Q239.336 827.032 241.789 826.454 Q244.243 825.875 246.28 825.875 Q251.65 825.875 254.845 828.56 Q258.039 831.245 258.039 835.736 Q258.039 837.866 257.229 839.787 Q256.442 841.685 254.335 844.278 Q253.757 844.949 250.655 848.166 Q247.553 851.361 241.905 857.125 Z" fill="#000000" fill-rule="evenodd" fill-opacity="1" /><path clip-path="url(#clip970)" d="M564.75 830.574 L552.945 849.023 L564.75 849.023 L564.75 830.574 M563.524 826.5 L569.403 826.5 L569.403 849.023 L574.334 849.023 L574.334 852.912 L569.403 852.912 L569.403 861.06 L564.75 861.06 L564.75 852.912 L549.149 852.912 L549.149 848.398 L563.524 826.5 Z" fill="#000000" fill-rule="evenodd" fill-opacity="1" /><path clip-path="url(#clip970)" d="M876.635 841.916 Q873.487 841.916 871.635 844.069 Q869.807 846.222 869.807 849.972 Q869.807 853.699 871.635 855.875 Q873.487 858.027 876.635 858.027 Q879.783 858.027 881.612 855.875 Q883.464 853.699 883.464 849.972 Q883.464 846.222 881.612 844.069 Q879.783 841.916 876.635 841.916 M885.918 827.264 L885.918 831.523 Q884.158 830.69 882.353 830.25 Q880.57 829.81 878.811 829.81 Q874.182 829.81 871.728 832.935 Q869.297 836.06 868.95 842.379 Q870.316 840.366 872.376 839.301 Q874.436 838.213 876.913 838.213 Q882.121 838.213 885.131 841.384 Q888.163 844.532 888.163 849.972 Q888.163 855.296 885.015 858.514 Q881.867 861.731 876.635 861.731 Q870.64 861.731 867.469 857.148 Q864.297 852.541 864.297 843.815 Q864.297 835.62 868.186 830.759 Q872.075 825.875 878.626 825.875 Q880.385 825.875 882.168 826.222 Q883.973 826.569 885.918 827.264 Z" fill="#000000" fill-rule="evenodd" fill-opacity="1" /><path clip-path="url(#clip970)" d="M1190.72 844.648 Q1187.39 844.648 1185.46 846.43 Q1183.57 848.213 1183.57 851.338 Q1183.57 854.463 1185.46 856.245 Q1187.39 858.027 1190.72 858.027 Q1194.05 858.027 1195.97 856.245 Q1197.89 854.44 1197.89 851.338 Q1197.89 848.213 1195.97 846.43 Q1194.08 844.648 1190.72 844.648 M1186.04 842.657 Q1183.03 841.916 1181.34 839.856 Q1179.68 837.796 1179.68 834.833 Q1179.68 830.69 1182.62 828.282 Q1185.58 825.875 1190.72 825.875 Q1195.88 825.875 1198.82 828.282 Q1201.76 830.69 1201.76 834.833 Q1201.76 837.796 1200.07 839.856 Q1198.4 841.916 1195.42 842.657 Q1198.8 843.444 1200.67 845.736 Q1202.57 848.028 1202.57 851.338 Q1202.57 856.361 1199.49 859.046 Q1196.44 861.731 1190.72 861.731 Q1185 861.731 1181.92 859.046 Q1178.87 856.361 1178.87 851.338 Q1178.87 848.028 1180.77 845.736 Q1182.66 843.444 1186.04 842.657 M1184.33 835.273 Q1184.33 837.958 1186 839.463 Q1187.69 840.967 1190.72 840.967 Q1193.73 840.967 1195.42 839.463 Q1197.13 837.958 1197.13 835.273 Q1197.13 832.588 1195.42 831.083 Q1193.73 829.579 1190.72 829.579 Q1187.69 829.579 1186 831.083 Q1184.33 832.588 1184.33 835.273 Z" fill="#000000" fill-rule="evenodd" fill-opacity="1" /><path clip-path="url(#clip970)" d="M1479.9 857.125 L1487.53 857.125 L1487.53 830.759 L1479.22 832.426 L1479.22 828.167 L1487.49 826.5 L1492.16 826.5 L1492.16 857.125 L1499.8 857.125 L1499.8 861.06 L1479.9 861.06 L1479.9 857.125 Z" fill="#000000" fill-rule="evenodd" fill-opacity="1" /><path clip-path="url(#clip970)" d="M1519.25 829.579 Q1515.64 829.579 1513.81 833.143 Q1512 836.685 1512 843.815 Q1512 850.921 1513.81 854.486 Q1515.64 858.027 1519.25 858.027 Q1522.88 858.027 1524.69 854.486 Q1526.52 850.921 1526.52 843.815 Q1526.52 836.685 1524.69 833.143 Q1522.88 829.579 1519.25 829.579 M1519.25 825.875 Q1525.06 825.875 1528.11 830.481 Q1531.19 835.065 1531.19 843.815 Q1531.19 852.541 1528.11 857.148 Q1525.06 861.731 1519.25 861.731 Q1513.44 861.731 1510.36 857.148 Q1507.3 852.541 1507.3 843.815 Q1507.3 835.065 1510.36 830.481 Q1513.44 825.875 1519.25 825.875 Z" fill="#000000" fill-rule="evenodd" fill-opacity="1" /><path clip-path="url(#clip970)" d="M1795.18 857.125 L1802.82 857.125 L1802.82 830.759 L1794.51 832.426 L1794.51 828.167 L1802.78 826.5 L1807.45 826.5 L1807.45 857.125 L1815.09 857.125 L1815.09 861.06 L1795.18 861.06 L1795.18 857.125 Z" fill="#000000" fill-rule="evenodd" fill-opacity="1" /><path clip-path="url(#clip970)" d="M1828.56 857.125 L1844.88 857.125 L1844.88 861.06 L1822.94 861.06 L1822.94 857.125 Q1825.6 854.37 1830.18 849.74 Q1834.79 845.088 1835.97 843.745 Q1838.22 841.222 1839.1 839.486 Q1840 837.727 1840 836.037 Q1840 833.282 1838.05 831.546 Q1836.13 829.81 1833.03 829.81 Q1830.83 829.81 1828.38 830.574 Q1825.95 831.338 1823.17 832.889 L1823.17 828.167 Q1825.99 827.032 1828.45 826.454 Q1830.9 825.875 1832.94 825.875 Q1838.31 825.875 1841.5 828.56 Q1844.7 831.245 1844.7 835.736 Q1844.7 837.866 1843.89 839.787 Q1843.1 841.685 1840.99 844.278 Q1840.41 844.949 1837.31 848.166 Q1834.21 851.361 1828.56 857.125 Z" fill="#000000" fill-rule="evenodd" fill-opacity="1" /><path clip-path="url(#clip970)" d="M2108.63 857.125 L2116.27 857.125 L2116.27 830.759 L2107.96 832.426 L2107.96 828.167 L2116.22 826.5 L2120.9 826.5 L2120.9 857.125 L2128.54 857.125 L2128.54 861.06 L2108.63 861.06 L2108.63 857.125 Z" fill="#000000" fill-rule="evenodd" fill-opacity="1" /><path clip-path="url(#clip970)" d="M2150.83 830.574 L2139.02 849.023 L2150.83 849.023 L2150.83 830.574 M2149.6 826.5 L2155.48 826.5 L2155.48 849.023 L2160.41 849.023 L2160.41 852.912 L2155.48 852.912 L2155.48 861.06 L2150.83 861.06 L2150.83 852.912 L2135.23 852.912 L2135.23 848.398 L2149.6 826.5 Z" fill="#000000" fill-rule="evenodd" fill-opacity="1" /><path clip-path="url(#clip970)" d="M1191.22 896.004 L1231.42 896.004 L1231.42 901.415 L1214.55 901.415 L1214.55 943.524 L1208.09 943.524 L1208.09 901.415 L1191.22 901.415 L1191.22 896.004 Z" fill="#000000" fill-rule="evenodd" fill-opacity="1" /><path clip-path="url(#clip970)" d="M1235.36 907.876 L1241.22 907.876 L1241.22 943.524 L1235.36 943.524 L1235.36 907.876 M1235.36 893.999 L1241.22 893.999 L1241.22 901.415 L1235.36 901.415 L1235.36 893.999 Z" fill="#000000" fill-rule="evenodd" fill-opacity="1" /><path clip-path="url(#clip970)" d="M1281.23 914.719 Q1283.43 910.772 1286.48 908.894 Q1289.54 907.017 1293.67 907.017 Q1299.24 907.017 1302.27 910.931 Q1305.29 914.815 1305.29 922.008 L1305.29 943.524 L1299.4 943.524 L1299.4 922.199 Q1299.4 917.074 1297.59 914.592 Q1295.77 912.109 1292.05 912.109 Q1287.5 912.109 1284.86 915.133 Q1282.22 918.157 1282.22 923.376 L1282.22 943.524 L1276.33 943.524 L1276.33 922.199 Q1276.33 917.043 1274.51 914.592 Q1272.7 912.109 1268.91 912.109 Q1264.42 912.109 1261.78 915.165 Q1259.14 918.188 1259.14 923.376 L1259.14 943.524 L1253.25 943.524 L1253.25 907.876 L1259.14 907.876 L1259.14 913.414 Q1261.15 910.136 1263.95 908.576 Q1266.75 907.017 1270.6 907.017 Q1274.48 907.017 1277.19 908.99 Q1279.92 910.963 1281.23 914.719 Z" fill="#000000" fill-rule="evenodd" fill-opacity="1" /><path clip-path="url(#clip970)" d="M1347.46 924.236 L1347.46 927.1 L1320.54 927.1 Q1320.92 933.148 1324.17 936.331 Q1327.44 939.482 1333.27 939.482 Q1336.64 939.482 1339.79 938.654 Q1342.98 937.827 1346.1 936.171 L1346.1 941.71 Q1342.94 943.046 1339.63 943.747 Q1336.32 944.447 1332.92 944.447 Q1324.39 944.447 1319.39 939.482 Q1314.43 934.516 1314.43 926.05 Q1314.43 917.297 1319.14 912.173 Q1323.88 907.017 1331.9 907.017 Q1339.09 907.017 1343.26 911.663 Q1347.46 916.279 1347.46 924.236 M1341.61 922.517 Q1341.54 917.711 1338.9 914.846 Q1336.29 911.982 1331.96 911.982 Q1327.06 911.982 1324.1 914.751 Q1321.17 917.52 1320.73 922.549 L1341.61 922.517 Z" fill="#000000" fill-rule="evenodd" fill-opacity="1" /><polyline clip-path="url(#clip973)" style="stroke:#000000; stroke-linecap:butt; stroke-linejoin:round; stroke-width:2; stroke-opacity:0.1; fill:none" points="
  185.927,777.393 2352.76,777.393 
  "/>
<polyline clip-path="url(#clip973)" style="stroke:#000000; stroke-linecap:butt; stroke-linejoin:round; stroke-width:2; stroke-opacity:0.1; fill:none" points="
  185.927,600.173 2352.76,600.173 
  "/>
<polyline clip-path="url(#clip973)" style="stroke:#000000; stroke-linecap:butt; stroke-linejoin:round; stroke-width:2; stroke-opacity:0.1; fill:none" points="
  185.927,422.952 2352.76,422.952 
  "/>
<polyline clip-path="url(#clip973)" style="stroke:#000000; stroke-linecap:butt; stroke-linejoin:round; stroke-width:2; stroke-opacity:0.1; fill:none" points="
  185.927,245.731 2352.76,245.731 
  "/>
<polyline clip-path="url(#clip973)" style="stroke:#000000; stroke-linecap:butt; stroke-linejoin:round; stroke-width:2; stroke-opacity:0.1; fill:none" points="
  185.927,68.5106 2352.76,68.5106 
  "/>
<polyline clip-path="url(#clip970)" style="stroke:#000000; stroke-linecap:butt; stroke-linejoin:round; stroke-width:4; stroke-opacity:1; fill:none" points="
  185.927,798.66 185.927,47.2441 
  "/>
<polyline clip-path="url(#clip970)" style="stroke:#000000; stroke-linecap:butt; stroke-linejoin:round; stroke-width:4; stroke-opacity:1; fill:none" points="
  185.927,777.393 204.824,777.393 
  "/>
<polyline clip-path="url(#clip970)" style="stroke:#000000; stroke-linecap:butt; stroke-linejoin:round; stroke-width:4; stroke-opacity:1; fill:none" points="
  185.927,600.173 204.824,600.173 
  "/>
<polyline clip-path="url(#clip970)" style="stroke:#000000; stroke-linecap:butt; stroke-linejoin:round; stroke-width:4; stroke-opacity:1; fill:none" points="
  185.927,422.952 204.824,422.952 
  "/>
<polyline clip-path="url(#clip970)" style="stroke:#000000; stroke-linecap:butt; stroke-linejoin:round; stroke-width:4; stroke-opacity:1; fill:none" points="
  185.927,245.731 204.824,245.731 
  "/>
<polyline clip-path="url(#clip970)" style="stroke:#000000; stroke-linecap:butt; stroke-linejoin:round; stroke-width:4; stroke-opacity:1; fill:none" points="
  185.927,68.5106 204.824,68.5106 
  "/>
<path clip-path="url(#clip970)" d="M53.3995 790.738 L61.0384 790.738 L61.0384 764.373 L52.7282 766.039 L52.7282 761.78 L60.9921 760.113 L65.668 760.113 L65.668 790.738 L73.3068 790.738 L73.3068 794.673 L53.3995 794.673 L53.3995 790.738 Z" fill="#000000" fill-rule="evenodd" fill-opacity="1" /><path clip-path="url(#clip970)" d="M82.7512 788.794 L87.6354 788.794 L87.6354 794.673 L82.7512 794.673 L82.7512 788.794 Z" fill="#000000" fill-rule="evenodd" fill-opacity="1" /><path clip-path="url(#clip970)" d="M107.821 763.192 Q104.209 763.192 102.381 766.757 Q100.575 770.298 100.575 777.428 Q100.575 784.535 102.381 788.099 Q104.209 791.641 107.821 791.641 Q111.455 791.641 113.26 788.099 Q115.089 784.535 115.089 777.428 Q115.089 770.298 113.26 766.757 Q111.455 763.192 107.821 763.192 M107.821 759.488 Q113.631 759.488 116.686 764.095 Q119.765 768.678 119.765 777.428 Q119.765 786.155 116.686 790.761 Q113.631 795.345 107.821 795.345 Q102.01 795.345 98.9317 790.761 Q95.8761 786.155 95.8761 777.428 Q95.8761 768.678 98.9317 764.095 Q102.01 759.488 107.821 759.488 Z" fill="#000000" fill-rule="evenodd" fill-opacity="1" /><path clip-path="url(#clip970)" d="M137.982 763.192 Q134.371 763.192 132.543 766.757 Q130.737 770.298 130.737 777.428 Q130.737 784.535 132.543 788.099 Q134.371 791.641 137.982 791.641 Q141.617 791.641 143.422 788.099 Q145.251 784.535 145.251 777.428 Q145.251 770.298 143.422 766.757 Q141.617 763.192 137.982 763.192 M137.982 759.488 Q143.793 759.488 146.848 764.095 Q149.927 768.678 149.927 777.428 Q149.927 786.155 146.848 790.761 Q143.793 795.345 137.982 795.345 Q132.172 795.345 129.094 790.761 Q126.038 786.155 126.038 777.428 Q126.038 768.678 129.094 764.095 Q132.172 759.488 137.982 759.488 Z" fill="#000000" fill-rule="evenodd" fill-opacity="1" /><path clip-path="url(#clip970)" d="M54.3949 613.517 L62.0337 613.517 L62.0337 587.152 L53.7236 588.819 L53.7236 584.559 L61.9874 582.893 L66.6633 582.893 L66.6633 613.517 L74.3022 613.517 L74.3022 617.453 L54.3949 617.453 L54.3949 613.517 Z" fill="#000000" fill-rule="evenodd" fill-opacity="1" /><path clip-path="url(#clip970)" d="M83.7466 611.573 L88.6308 611.573 L88.6308 617.453 L83.7466 617.453 L83.7466 611.573 Z" fill="#000000" fill-rule="evenodd" fill-opacity="1" /><path clip-path="url(#clip970)" d="M102.844 613.517 L119.163 613.517 L119.163 617.453 L97.2187 617.453 L97.2187 613.517 Q99.8808 610.763 104.464 606.133 Q109.071 601.481 110.251 600.138 Q112.496 597.615 113.376 595.879 Q114.279 594.119 114.279 592.43 Q114.279 589.675 112.334 587.939 Q110.413 586.203 107.311 586.203 Q105.112 586.203 102.659 586.967 Q100.228 587.731 97.4502 589.282 L97.4502 584.559 Q100.274 583.425 102.728 582.846 Q105.182 582.268 107.219 582.268 Q112.589 582.268 115.783 584.953 Q118.978 587.638 118.978 592.129 Q118.978 594.258 118.168 596.18 Q117.381 598.078 115.274 600.67 Q114.695 601.342 111.594 604.559 Q108.492 607.754 102.844 613.517 Z" fill="#000000" fill-rule="evenodd" fill-opacity="1" /><path clip-path="url(#clip970)" d="M129.024 582.893 L147.38 582.893 L147.38 586.828 L133.306 586.828 L133.306 595.3 Q134.325 594.953 135.344 594.791 Q136.362 594.606 137.381 594.606 Q143.168 594.606 146.547 597.777 Q149.927 600.948 149.927 606.365 Q149.927 611.943 146.455 615.045 Q142.982 618.124 136.663 618.124 Q134.487 618.124 132.219 617.754 Q129.973 617.383 127.566 616.642 L127.566 611.943 Q129.649 613.078 131.871 613.633 Q134.094 614.189 136.57 614.189 Q140.575 614.189 142.913 612.082 Q145.251 609.976 145.251 606.365 Q145.251 602.754 142.913 600.647 Q140.575 598.541 136.57 598.541 Q134.695 598.541 132.82 598.957 Q130.969 599.374 129.024 600.254 L129.024 582.893 Z" fill="#000000" fill-rule="evenodd" fill-opacity="1" /><path clip-path="url(#clip970)" d="M53.3995 436.297 L61.0384 436.297 L61.0384 409.931 L52.7282 411.598 L52.7282 407.339 L60.9921 405.672 L65.668 405.672 L65.668 436.297 L73.3068 436.297 L73.3068 440.232 L53.3995 440.232 L53.3995 436.297 Z" fill="#000000" fill-rule="evenodd" fill-opacity="1" /><path clip-path="url(#clip970)" d="M82.7512 434.352 L87.6354 434.352 L87.6354 440.232 L82.7512 440.232 L82.7512 434.352 Z" fill="#000000" fill-rule="evenodd" fill-opacity="1" /><path clip-path="url(#clip970)" d="M97.8669 405.672 L116.223 405.672 L116.223 409.607 L102.149 409.607 L102.149 418.079 Q103.168 417.732 104.186 417.57 Q105.205 417.385 106.223 417.385 Q112.01 417.385 115.39 420.556 Q118.77 423.727 118.77 429.144 Q118.77 434.723 115.297 437.825 Q111.825 440.903 105.506 440.903 Q103.33 440.903 101.061 440.533 Q98.8159 440.163 96.4085 439.422 L96.4085 434.723 Q98.4919 435.857 100.714 436.413 Q102.936 436.968 105.413 436.968 Q109.418 436.968 111.756 434.862 Q114.094 432.755 114.094 429.144 Q114.094 425.533 111.756 423.427 Q109.418 421.32 105.413 421.32 Q103.538 421.32 101.663 421.737 Q99.8113 422.153 97.8669 423.033 L97.8669 405.672 Z" fill="#000000" fill-rule="evenodd" fill-opacity="1" /><path clip-path="url(#clip970)" d="M137.982 408.751 Q134.371 408.751 132.543 412.315 Q130.737 415.857 130.737 422.987 Q130.737 430.093 132.543 433.658 Q134.371 437.2 137.982 437.2 Q141.617 437.2 143.422 433.658 Q145.251 430.093 145.251 422.987 Q145.251 415.857 143.422 412.315 Q141.617 408.751 137.982 408.751 M137.982 405.047 Q143.793 405.047 146.848 409.653 Q149.927 414.237 149.927 422.987 Q149.927 431.713 146.848 436.32 Q143.793 440.903 137.982 440.903 Q132.172 440.903 129.094 436.32 Q126.038 431.713 126.038 422.987 Q126.038 414.237 129.094 409.653 Q132.172 405.047 137.982 405.047 Z" fill="#000000" fill-rule="evenodd" fill-opacity="1" /><path clip-path="url(#clip970)" d="M54.3949 259.076 L62.0337 259.076 L62.0337 232.711 L53.7236 234.377 L53.7236 230.118 L61.9874 228.451 L66.6633 228.451 L66.6633 259.076 L74.3022 259.076 L74.3022 263.011 L54.3949 263.011 L54.3949 259.076 Z" fill="#000000" fill-rule="evenodd" fill-opacity="1" /><path clip-path="url(#clip970)" d="M83.7466 257.132 L88.6308 257.132 L88.6308 263.011 L83.7466 263.011 L83.7466 257.132 Z" fill="#000000" fill-rule="evenodd" fill-opacity="1" /><path clip-path="url(#clip970)" d="M97.6354 228.451 L119.857 228.451 L119.857 230.442 L107.311 263.011 L102.427 263.011 L114.233 232.386 L97.6354 232.386 L97.6354 228.451 Z" fill="#000000" fill-rule="evenodd" fill-opacity="1" /><path clip-path="url(#clip970)" d="M129.024 228.451 L147.38 228.451 L147.38 232.386 L133.306 232.386 L133.306 240.859 Q134.325 240.511 135.344 240.349 Q136.362 240.164 137.381 240.164 Q143.168 240.164 146.547 243.335 Q149.927 246.507 149.927 251.923 Q149.927 257.502 146.455 260.604 Q142.982 263.683 136.663 263.683 Q134.487 263.683 132.219 263.312 Q129.973 262.942 127.566 262.201 L127.566 257.502 Q129.649 258.636 131.871 259.192 Q134.094 259.747 136.57 259.747 Q140.575 259.747 142.913 257.641 Q145.251 255.534 145.251 251.923 Q145.251 248.312 142.913 246.206 Q140.575 244.099 136.57 244.099 Q134.695 244.099 132.82 244.516 Q130.969 244.933 129.024 245.812 L129.024 228.451 Z" fill="#000000" fill-rule="evenodd" fill-opacity="1" /><path clip-path="url(#clip970)" d="M56.6171 81.8554 L72.9365 81.8554 L72.9365 85.7906 L50.9921 85.7906 L50.9921 81.8554 Q53.6541 79.1008 58.2375 74.4712 Q62.8439 69.8184 64.0245 68.4759 Q66.2698 65.9527 67.1494 64.2166 Q68.0522 62.4574 68.0522 60.7676 Q68.0522 58.0129 66.1078 56.2768 Q64.1865 54.5407 61.0847 54.5407 Q58.8856 54.5407 56.4319 55.3046 Q54.0014 56.0685 51.2236 57.6194 L51.2236 52.8972 Q54.0477 51.763 56.5014 51.1843 Q58.955 50.6056 60.9921 50.6056 Q66.3624 50.6056 69.5568 53.2908 Q72.7513 55.9759 72.7513 60.4666 Q72.7513 62.5963 71.9411 64.5175 Q71.1541 66.4157 69.0476 69.0083 Q68.4689 69.6796 65.367 72.8971 Q62.2652 76.0916 56.6171 81.8554 Z" fill="#000000" fill-rule="evenodd" fill-opacity="1" /><path clip-path="url(#clip970)" d="M82.7512 79.911 L87.6354 79.911 L87.6354 85.7906 L82.7512 85.7906 L82.7512 79.911 Z" fill="#000000" fill-rule="evenodd" fill-opacity="1" /><path clip-path="url(#clip970)" d="M107.821 54.3093 Q104.209 54.3093 102.381 57.8741 Q100.575 61.4157 100.575 68.5453 Q100.575 75.6517 102.381 79.2165 Q104.209 82.7582 107.821 82.7582 Q111.455 82.7582 113.26 79.2165 Q115.089 75.6517 115.089 68.5453 Q115.089 61.4157 113.26 57.8741 Q111.455 54.3093 107.821 54.3093 M107.821 50.6056 Q113.631 50.6056 116.686 55.212 Q119.765 59.7953 119.765 68.5453 Q119.765 77.2721 116.686 81.8786 Q113.631 86.4619 107.821 86.4619 Q102.01 86.4619 98.9317 81.8786 Q95.8761 77.2721 95.8761 68.5453 Q95.8761 59.7953 98.9317 55.212 Q102.01 50.6056 107.821 50.6056 Z" fill="#000000" fill-rule="evenodd" fill-opacity="1" /><path clip-path="url(#clip970)" d="M137.982 54.3093 Q134.371 54.3093 132.543 57.8741 Q130.737 61.4157 130.737 68.5453 Q130.737 75.6517 132.543 79.2165 Q134.371 82.7582 137.982 82.7582 Q141.617 82.7582 143.422 79.2165 Q145.251 75.6517 145.251 68.5453 Q145.251 61.4157 143.422 57.8741 Q141.617 54.3093 137.982 54.3093 M137.982 50.6056 Q143.793 50.6056 146.848 55.212 Q149.927 59.7953 149.927 68.5453 Q149.927 77.2721 146.848 81.8786 Q143.793 86.4619 137.982 86.4619 Q132.172 86.4619 129.094 81.8786 Q126.038 77.2721 126.038 68.5453 Q126.038 59.7953 129.094 55.212 Q132.172 50.6056 137.982 50.6056 Z" fill="#000000" fill-rule="evenodd" fill-opacity="1" /><polyline clip-path="url(#clip973)" style="stroke:#009af9; stroke-linecap:butt; stroke-linejoin:round; stroke-width:8; stroke-opacity:1; fill:none" points="
  247.252,777.393 404.497,777.393 561.741,777.393 718.986,777.393 876.23,777.393 1033.47,777.393 1190.72,777.393 1347.96,777.393 1505.21,777.393 1662.45,777.393 
  1819.7,777.393 1976.94,777.393 2134.19,777.393 2291.43,777.393 
  "/>
<path clip-path="url(#clip970)" d="
M1999.25 183.668 L2280.53 183.668 L2280.53 72.2913 L1999.25 72.2913  Z
  " fill="#ffffff" fill-rule="evenodd" fill-opacity="1"/>
<polyline clip-path="url(#clip970)" style="stroke:#000000; stroke-linecap:butt; stroke-linejoin:round; stroke-width:4; stroke-opacity:1; fill:none" points="
  1999.25,183.668 2280.53,183.668 2280.53,72.2913 1999.25,72.2913 1999.25,183.668 
  "/>
<polyline clip-path="url(#clip970)" style="stroke:#009af9; stroke-linecap:butt; stroke-linejoin:round; stroke-width:4; stroke-opacity:1; fill:none" points="
  2023.32,127.98 2167.78,127.98 
  "/>
<path clip-path="url(#clip970)" d="M2212.14 111.753 Q2212.14 113.229 2207.87 113.229 Q2207.15 113.229 2206.75 113.205 Q2206.35 113.159 2205.77 112.924 Q2205.2 112.667 2204.81 112.175 Q2202.28 113.416 2200.87 115.758 Q2199.49 118.101 2199.49 120.326 Q2199.49 122.645 2200.92 124.073 Q2202.7 123.488 2204.95 123.488 Q2206.75 123.488 2207.8 123.746 Q2208.88 124.003 2208.88 124.8 Q2208.88 125.151 2208.67 125.432 Q2208.46 125.69 2208.02 125.854 Q2207.59 125.994 2207.2 126.088 Q2206.82 126.181 2206.21 126.228 Q2205.6 126.252 2205.27 126.275 Q2204.95 126.275 2204.43 126.275 Q2201.9 126.275 2200.19 125.666 Q2197.45 127.048 2195.88 129.554 Q2194.31 132.037 2194.31 133.817 Q2194.31 136.628 2197.9 138.08 L2200.78 139.228 Q2201.43 139.439 2203.71 140.329 L2206.63 141.429 Q2208.93 142.437 2208.93 144.849 Q2208.93 146.723 2207.48 148.339 Q2206.05 149.979 2203.94 149.979 Q2202.7 149.979 2201.41 149.51 Q2200.15 149.065 2199.42 148.526 Q2198.72 147.988 2198.72 147.683 Q2198.72 147.145 2199.18 147.145 Q2199.37 147.145 2199.72 147.379 Q2201.95 148.925 2203.94 148.925 Q2204.97 148.925 2205.63 148.105 Q2206.31 147.285 2206.31 146.372 Q2206.31 145.88 2206.16 145.528 Q2206.05 145.177 2205.7 144.919 Q2205.37 144.685 2205.2 144.592 Q2205.06 144.521 2204.62 144.31 Q2203.68 143.959 2202.07 143.327 Q2200.45 142.718 2198.81 142.062 Q2196.05 141.031 2195.2 140.563 Q2194.38 140.118 2193.24 138.947 L2193.14 138.83 Q2193.02 138.689 2192.91 138.525 Q2192.81 138.361 2192.65 138.127 Q2192.51 137.869 2192.37 137.565 Q2192.23 137.26 2192.11 136.909 Q2191.99 136.534 2191.92 136.089 Q2191.85 135.621 2191.85 135.152 Q2191.85 134.379 2192.11 133.372 Q2192.39 132.342 2193 130.983 Q2193.63 129.625 2194.97 128.149 Q2196.3 126.673 2198.13 125.455 L2198.76 124.987 Q2197.17 124.073 2196.4 122.715 Q2195.65 121.356 2195.65 119.904 Q2195.65 117.07 2197.94 114.541 Q2200.26 111.987 2204.03 110.933 Q2203.71 109.622 2203.71 109.06 Q2203.71 108.849 2203.73 108.615 Q2203.75 108.357 2203.8 107.865 Q2203.87 107.35 2204.06 107.045 Q2204.27 106.717 2204.57 106.717 Q2205.13 106.717 2205.13 107.326 Q2204.9 108.427 2204.9 109.107 Q2204.9 109.997 2205.13 110.699 Q2206.49 110.442 2208.16 110.442 Q2210.01 110.442 2211.06 110.699 Q2212.14 110.933 2212.14 111.753 M2210.9 111.8 Q2209.77 111.496 2208.2 111.496 Q2206.75 111.496 2205.91 111.753 Q2206.28 112.034 2206.68 112.105 Q2207.1 112.175 2207.92 112.175 Q2209.89 112.175 2210.9 111.8 M2207.64 124.846 Q2206.52 124.542 2204.9 124.542 Q2203.35 124.542 2202.16 124.846 Q2202.77 125.104 2203.19 125.174 Q2203.64 125.221 2204.57 125.221 Q2206.89 125.221 2207.64 124.846 Z" fill="#000000" fill-rule="evenodd" fill-opacity="1" /><path clip-path="url(#clip970)" d="M2227.36 148.264 Q2227.36 148.723 2227.15 148.838 Q2226.94 148.936 2226.35 148.936 L2223.2 148.936 L2220.71 158.839 Q2220.51 159.708 2220.51 160.446 Q2220.51 161.266 2220.76 161.626 Q2221.02 161.987 2221.56 161.987 Q2222.63 161.987 2223.77 161.02 Q2224.94 160.052 2225.92 157.691 Q2226.05 157.38 2226.12 157.314 Q2226.2 157.232 2226.41 157.232 Q2226.82 157.232 2226.82 157.56 Q2226.82 157.675 2226.59 158.2 Q2226.38 158.724 2225.91 159.495 Q2225.45 160.265 2224.84 160.987 Q2224.25 161.708 2223.35 162.233 Q2222.45 162.741 2221.48 162.741 Q2220.12 162.741 2219.25 161.872 Q2218.4 161.003 2218.4 159.642 Q2218.4 159.2 2218.74 157.79 Q2219.08 156.363 2220.95 148.936 L2217.99 148.936 Q2217.58 148.936 2217.41 148.92 Q2217.26 148.903 2217.15 148.821 Q2217.05 148.723 2217.05 148.526 Q2217.05 148.215 2217.18 148.083 Q2217.31 147.936 2217.48 147.919 Q2217.66 147.887 2218.07 147.887 L2221.22 147.887 L2222.53 142.558 Q2222.66 142.033 2222.99 141.738 Q2223.33 141.427 2223.53 141.394 Q2223.72 141.345 2223.87 141.345 Q2224.32 141.345 2224.58 141.591 Q2224.84 141.82 2224.84 142.247 Q2224.84 142.476 2223.46 147.887 L2226.41 147.887 Q2226.79 147.887 2226.94 147.903 Q2227.1 147.919 2227.23 148.001 Q2227.36 148.083 2227.36 148.264 Z" fill="#000000" fill-rule="evenodd" fill-opacity="1" /><path clip-path="url(#clip970)" d="
M185.927 1798.66 L2352.76 1798.66 L2352.76 1047.24 L185.927 1047.24  Z
  " fill="#ffffff" fill-rule="evenodd" fill-opacity="1"/>
<defs>
  <clipPath id="clip974">
    <rect x="185" y="1047" width="2168" height="752"/>
  </clipPath>
</defs>
<polyline clip-path="url(#clip974)" style="stroke:#000000; stroke-linecap:butt; stroke-linejoin:round; stroke-width:2; stroke-opacity:0.1; fill:none" points="
  247.252,1798.66 247.252,1047.24 
  "/>
<polyline clip-path="url(#clip974)" style="stroke:#000000; stroke-linecap:butt; stroke-linejoin:round; stroke-width:2; stroke-opacity:0.1; fill:none" points="
  561.741,1798.66 561.741,1047.24 
  "/>
<polyline clip-path="url(#clip974)" style="stroke:#000000; stroke-linecap:butt; stroke-linejoin:round; stroke-width:2; stroke-opacity:0.1; fill:none" points="
  876.23,1798.66 876.23,1047.24 
  "/>
<polyline clip-path="url(#clip974)" style="stroke:#000000; stroke-linecap:butt; stroke-linejoin:round; stroke-width:2; stroke-opacity:0.1; fill:none" points="
  1190.72,1798.66 1190.72,1047.24 
  "/>
<polyline clip-path="url(#clip974)" style="stroke:#000000; stroke-linecap:butt; stroke-linejoin:round; stroke-width:2; stroke-opacity:0.1; fill:none" points="
  1505.21,1798.66 1505.21,1047.24 
  "/>
<polyline clip-path="url(#clip974)" style="stroke:#000000; stroke-linecap:butt; stroke-linejoin:round; stroke-width:2; stroke-opacity:0.1; fill:none" points="
  1819.7,1798.66 1819.7,1047.24 
  "/>
<polyline clip-path="url(#clip974)" style="stroke:#000000; stroke-linecap:butt; stroke-linejoin:round; stroke-width:2; stroke-opacity:0.1; fill:none" points="
  2134.19,1798.66 2134.19,1047.24 
  "/>
<polyline clip-path="url(#clip970)" style="stroke:#000000; stroke-linecap:butt; stroke-linejoin:round; stroke-width:4; stroke-opacity:1; fill:none" points="
  185.927,1798.66 2352.76,1798.66 
  "/>
<polyline clip-path="url(#clip970)" style="stroke:#000000; stroke-linecap:butt; stroke-linejoin:round; stroke-width:4; stroke-opacity:1; fill:none" points="
  247.252,1798.66 247.252,1779.76 
  "/>
<polyline clip-path="url(#clip970)" style="stroke:#000000; stroke-linecap:butt; stroke-linejoin:round; stroke-width:4; stroke-opacity:1; fill:none" points="
  561.741,1798.66 561.741,1779.76 
  "/>
<polyline clip-path="url(#clip970)" style="stroke:#000000; stroke-linecap:butt; stroke-linejoin:round; stroke-width:4; stroke-opacity:1; fill:none" points="
  876.23,1798.66 876.23,1779.76 
  "/>
<polyline clip-path="url(#clip970)" style="stroke:#000000; stroke-linecap:butt; stroke-linejoin:round; stroke-width:4; stroke-opacity:1; fill:none" points="
  1190.72,1798.66 1190.72,1779.76 
  "/>
<polyline clip-path="url(#clip970)" style="stroke:#000000; stroke-linecap:butt; stroke-linejoin:round; stroke-width:4; stroke-opacity:1; fill:none" points="
  1505.21,1798.66 1505.21,1779.76 
  "/>
<polyline clip-path="url(#clip970)" style="stroke:#000000; stroke-linecap:butt; stroke-linejoin:round; stroke-width:4; stroke-opacity:1; fill:none" points="
  1819.7,1798.66 1819.7,1779.76 
  "/>
<polyline clip-path="url(#clip970)" style="stroke:#000000; stroke-linecap:butt; stroke-linejoin:round; stroke-width:4; stroke-opacity:1; fill:none" points="
  2134.19,1798.66 2134.19,1779.76 
  "/>
<path clip-path="url(#clip970)" d="M241.905 1857.12 L258.224 1857.12 L258.224 1861.06 L236.28 1861.06 L236.28 1857.12 Q238.942 1854.37 243.525 1849.74 Q248.132 1845.09 249.312 1843.75 Q251.558 1841.22 252.437 1839.49 Q253.34 1837.73 253.34 1836.04 Q253.34 1833.28 251.396 1831.55 Q249.474 1829.81 246.373 1829.81 Q244.173 1829.81 241.72 1830.57 Q239.289 1831.34 236.511 1832.89 L236.511 1828.17 Q239.336 1827.03 241.789 1826.45 Q244.243 1825.87 246.28 1825.87 Q251.65 1825.87 254.845 1828.56 Q258.039 1831.25 258.039 1835.74 Q258.039 1837.87 257.229 1839.79 Q256.442 1841.68 254.335 1844.28 Q253.757 1844.95 250.655 1848.17 Q247.553 1851.36 241.905 1857.12 Z" fill="#000000" fill-rule="evenodd" fill-opacity="1" /><path clip-path="url(#clip970)" d="M564.75 1830.57 L552.945 1849.02 L564.75 1849.02 L564.75 1830.57 M563.524 1826.5 L569.403 1826.5 L569.403 1849.02 L574.334 1849.02 L574.334 1852.91 L569.403 1852.91 L569.403 1861.06 L564.75 1861.06 L564.75 1852.91 L549.149 1852.91 L549.149 1848.4 L563.524 1826.5 Z" fill="#000000" fill-rule="evenodd" fill-opacity="1" /><path clip-path="url(#clip970)" d="M876.635 1841.92 Q873.487 1841.92 871.635 1844.07 Q869.807 1846.22 869.807 1849.97 Q869.807 1853.7 871.635 1855.87 Q873.487 1858.03 876.635 1858.03 Q879.783 1858.03 881.612 1855.87 Q883.464 1853.7 883.464 1849.97 Q883.464 1846.22 881.612 1844.07 Q879.783 1841.92 876.635 1841.92 M885.918 1827.26 L885.918 1831.52 Q884.158 1830.69 882.353 1830.25 Q880.57 1829.81 878.811 1829.81 Q874.182 1829.81 871.728 1832.93 Q869.297 1836.06 868.95 1842.38 Q870.316 1840.37 872.376 1839.3 Q874.436 1838.21 876.913 1838.21 Q882.121 1838.21 885.131 1841.38 Q888.163 1844.53 888.163 1849.97 Q888.163 1855.3 885.015 1858.51 Q881.867 1861.73 876.635 1861.73 Q870.64 1861.73 867.469 1857.15 Q864.297 1852.54 864.297 1843.81 Q864.297 1835.62 868.186 1830.76 Q872.075 1825.87 878.626 1825.87 Q880.385 1825.87 882.168 1826.22 Q883.973 1826.57 885.918 1827.26 Z" fill="#000000" fill-rule="evenodd" fill-opacity="1" /><path clip-path="url(#clip970)" d="M1190.72 1844.65 Q1187.39 1844.65 1185.46 1846.43 Q1183.57 1848.21 1183.57 1851.34 Q1183.57 1854.46 1185.46 1856.25 Q1187.39 1858.03 1190.72 1858.03 Q1194.05 1858.03 1195.97 1856.25 Q1197.89 1854.44 1197.89 1851.34 Q1197.89 1848.21 1195.97 1846.43 Q1194.08 1844.65 1190.72 1844.65 M1186.04 1842.66 Q1183.03 1841.92 1181.34 1839.86 Q1179.68 1837.8 1179.68 1834.83 Q1179.68 1830.69 1182.62 1828.28 Q1185.58 1825.87 1190.72 1825.87 Q1195.88 1825.87 1198.82 1828.28 Q1201.76 1830.69 1201.76 1834.83 Q1201.76 1837.8 1200.07 1839.86 Q1198.4 1841.92 1195.42 1842.66 Q1198.8 1843.44 1200.67 1845.74 Q1202.57 1848.03 1202.57 1851.34 Q1202.57 1856.36 1199.49 1859.05 Q1196.44 1861.73 1190.72 1861.73 Q1185 1861.73 1181.92 1859.05 Q1178.87 1856.36 1178.87 1851.34 Q1178.87 1848.03 1180.77 1845.74 Q1182.66 1843.44 1186.04 1842.66 M1184.33 1835.27 Q1184.33 1837.96 1186 1839.46 Q1187.69 1840.97 1190.72 1840.97 Q1193.73 1840.97 1195.42 1839.46 Q1197.13 1837.96 1197.13 1835.27 Q1197.13 1832.59 1195.42 1831.08 Q1193.73 1829.58 1190.72 1829.58 Q1187.69 1829.58 1186 1831.08 Q1184.33 1832.59 1184.33 1835.27 Z" fill="#000000" fill-rule="evenodd" fill-opacity="1" /><path clip-path="url(#clip970)" d="M1479.9 1857.12 L1487.53 1857.12 L1487.53 1830.76 L1479.22 1832.43 L1479.22 1828.17 L1487.49 1826.5 L1492.16 1826.5 L1492.16 1857.12 L1499.8 1857.12 L1499.8 1861.06 L1479.9 1861.06 L1479.9 1857.12 Z" fill="#000000" fill-rule="evenodd" fill-opacity="1" /><path clip-path="url(#clip970)" d="M1519.25 1829.58 Q1515.64 1829.58 1513.81 1833.14 Q1512 1836.68 1512 1843.81 Q1512 1850.92 1513.81 1854.49 Q1515.64 1858.03 1519.25 1858.03 Q1522.88 1858.03 1524.69 1854.49 Q1526.52 1850.92 1526.52 1843.81 Q1526.52 1836.68 1524.69 1833.14 Q1522.88 1829.58 1519.25 1829.58 M1519.25 1825.87 Q1525.06 1825.87 1528.11 1830.48 Q1531.19 1835.06 1531.19 1843.81 Q1531.19 1852.54 1528.11 1857.15 Q1525.06 1861.73 1519.25 1861.73 Q1513.44 1861.73 1510.36 1857.15 Q1507.3 1852.54 1507.3 1843.81 Q1507.3 1835.06 1510.36 1830.48 Q1513.44 1825.87 1519.25 1825.87 Z" fill="#000000" fill-rule="evenodd" fill-opacity="1" /><path clip-path="url(#clip970)" d="M1795.18 1857.12 L1802.82 1857.12 L1802.82 1830.76 L1794.51 1832.43 L1794.51 1828.17 L1802.78 1826.5 L1807.45 1826.5 L1807.45 1857.12 L1815.09 1857.12 L1815.09 1861.06 L1795.18 1861.06 L1795.18 1857.12 Z" fill="#000000" fill-rule="evenodd" fill-opacity="1" /><path clip-path="url(#clip970)" d="M1828.56 1857.12 L1844.88 1857.12 L1844.88 1861.06 L1822.94 1861.06 L1822.94 1857.12 Q1825.6 1854.37 1830.18 1849.74 Q1834.79 1845.09 1835.97 1843.75 Q1838.22 1841.22 1839.1 1839.49 Q1840 1837.73 1840 1836.04 Q1840 1833.28 1838.05 1831.55 Q1836.13 1829.81 1833.03 1829.81 Q1830.83 1829.81 1828.38 1830.57 Q1825.95 1831.34 1823.17 1832.89 L1823.17 1828.17 Q1825.99 1827.03 1828.45 1826.45 Q1830.9 1825.87 1832.94 1825.87 Q1838.31 1825.87 1841.5 1828.56 Q1844.7 1831.25 1844.7 1835.74 Q1844.7 1837.87 1843.89 1839.79 Q1843.1 1841.68 1840.99 1844.28 Q1840.41 1844.95 1837.31 1848.17 Q1834.21 1851.36 1828.56 1857.12 Z" fill="#000000" fill-rule="evenodd" fill-opacity="1" /><path clip-path="url(#clip970)" d="M2108.63 1857.12 L2116.27 1857.12 L2116.27 1830.76 L2107.96 1832.43 L2107.96 1828.17 L2116.22 1826.5 L2120.9 1826.5 L2120.9 1857.12 L2128.54 1857.12 L2128.54 1861.06 L2108.63 1861.06 L2108.63 1857.12 Z" fill="#000000" fill-rule="evenodd" fill-opacity="1" /><path clip-path="url(#clip970)" d="M2150.83 1830.57 L2139.02 1849.02 L2150.83 1849.02 L2150.83 1830.57 M2149.6 1826.5 L2155.48 1826.5 L2155.48 1849.02 L2160.41 1849.02 L2160.41 1852.91 L2155.48 1852.91 L2155.48 1861.06 L2150.83 1861.06 L2150.83 1852.91 L2135.23 1852.91 L2135.23 1848.4 L2149.6 1826.5 Z" fill="#000000" fill-rule="evenodd" fill-opacity="1" /><path clip-path="url(#clip970)" d="M1191.22 1896 L1231.42 1896 L1231.42 1901.41 L1214.55 1901.41 L1214.55 1943.52 L1208.09 1943.52 L1208.09 1901.41 L1191.22 1901.41 L1191.22 1896 Z" fill="#000000" fill-rule="evenodd" fill-opacity="1" /><path clip-path="url(#clip970)" d="M1235.36 1907.88 L1241.22 1907.88 L1241.22 1943.52 L1235.36 1943.52 L1235.36 1907.88 M1235.36 1894 L1241.22 1894 L1241.22 1901.41 L1235.36 1901.41 L1235.36 1894 Z" fill="#000000" fill-rule="evenodd" fill-opacity="1" /><path clip-path="url(#clip970)" d="M1281.23 1914.72 Q1283.43 1910.77 1286.48 1908.89 Q1289.54 1907.02 1293.67 1907.02 Q1299.24 1907.02 1302.27 1910.93 Q1305.29 1914.81 1305.29 1922.01 L1305.29 1943.52 L1299.4 1943.52 L1299.4 1922.2 Q1299.4 1917.07 1297.59 1914.59 Q1295.77 1912.11 1292.05 1912.11 Q1287.5 1912.11 1284.86 1915.13 Q1282.22 1918.16 1282.22 1923.38 L1282.22 1943.52 L1276.33 1943.52 L1276.33 1922.2 Q1276.33 1917.04 1274.51 1914.59 Q1272.7 1912.11 1268.91 1912.11 Q1264.42 1912.11 1261.78 1915.16 Q1259.14 1918.19 1259.14 1923.38 L1259.14 1943.52 L1253.25 1943.52 L1253.25 1907.88 L1259.14 1907.88 L1259.14 1913.41 Q1261.15 1910.14 1263.95 1908.58 Q1266.75 1907.02 1270.6 1907.02 Q1274.48 1907.02 1277.19 1908.99 Q1279.92 1910.96 1281.23 1914.72 Z" fill="#000000" fill-rule="evenodd" fill-opacity="1" /><path clip-path="url(#clip970)" d="M1347.46 1924.24 L1347.46 1927.1 L1320.54 1927.1 Q1320.92 1933.15 1324.17 1936.33 Q1327.44 1939.48 1333.27 1939.48 Q1336.64 1939.48 1339.79 1938.65 Q1342.98 1937.83 1346.1 1936.17 L1346.1 1941.71 Q1342.94 1943.05 1339.63 1943.75 Q1336.32 1944.45 1332.92 1944.45 Q1324.39 1944.45 1319.39 1939.48 Q1314.43 1934.52 1314.43 1926.05 Q1314.43 1917.3 1319.14 1912.17 Q1323.88 1907.02 1331.9 1907.02 Q1339.09 1907.02 1343.26 1911.66 Q1347.46 1916.28 1347.46 1924.24 M1341.61 1922.52 Q1341.54 1917.71 1338.9 1914.85 Q1336.29 1911.98 1331.96 1911.98 Q1327.06 1911.98 1324.1 1914.75 Q1321.17 1917.52 1320.73 1922.55 L1341.61 1922.52 Z" fill="#000000" fill-rule="evenodd" fill-opacity="1" /><polyline clip-path="url(#clip974)" style="stroke:#000000; stroke-linecap:butt; stroke-linejoin:round; stroke-width:2; stroke-opacity:0.1; fill:none" points="
  185.927,1671.14 2352.76,1671.14 
  "/>
<polyline clip-path="url(#clip974)" style="stroke:#000000; stroke-linecap:butt; stroke-linejoin:round; stroke-width:2; stroke-opacity:0.1; fill:none" points="
  185.927,1510.37 2352.76,1510.37 
  "/>
<polyline clip-path="url(#clip974)" style="stroke:#000000; stroke-linecap:butt; stroke-linejoin:round; stroke-width:2; stroke-opacity:0.1; fill:none" points="
  185.927,1349.59 2352.76,1349.59 
  "/>
<polyline clip-path="url(#clip974)" style="stroke:#000000; stroke-linecap:butt; stroke-linejoin:round; stroke-width:2; stroke-opacity:0.1; fill:none" points="
  185.927,1188.81 2352.76,1188.81 
  "/>
<polyline clip-path="url(#clip970)" style="stroke:#000000; stroke-linecap:butt; stroke-linejoin:round; stroke-width:4; stroke-opacity:1; fill:none" points="
  185.927,1798.66 185.927,1047.24 
  "/>
<polyline clip-path="url(#clip970)" style="stroke:#000000; stroke-linecap:butt; stroke-linejoin:round; stroke-width:4; stroke-opacity:1; fill:none" points="
  185.927,1671.14 204.824,1671.14 
  "/>
<polyline clip-path="url(#clip970)" style="stroke:#000000; stroke-linecap:butt; stroke-linejoin:round; stroke-width:4; stroke-opacity:1; fill:none" points="
  185.927,1510.37 204.824,1510.37 
  "/>
<polyline clip-path="url(#clip970)" style="stroke:#000000; stroke-linecap:butt; stroke-linejoin:round; stroke-width:4; stroke-opacity:1; fill:none" points="
  185.927,1349.59 204.824,1349.59 
  "/>
<polyline clip-path="url(#clip970)" style="stroke:#000000; stroke-linecap:butt; stroke-linejoin:round; stroke-width:4; stroke-opacity:1; fill:none" points="
  185.927,1188.81 204.824,1188.81 
  "/>
<path clip-path="url(#clip970)" d="M93.7465 1656.94 Q90.1354 1656.94 88.3067 1660.51 Q86.5012 1664.05 86.5012 1671.18 Q86.5012 1678.29 88.3067 1681.85 Q90.1354 1685.39 93.7465 1685.39 Q97.3808 1685.39 99.1863 1681.85 Q101.015 1678.29 101.015 1671.18 Q101.015 1664.05 99.1863 1660.51 Q97.3808 1656.94 93.7465 1656.94 M93.7465 1653.24 Q99.5567 1653.24 102.612 1657.85 Q105.691 1662.43 105.691 1671.18 Q105.691 1679.91 102.612 1684.51 Q99.5567 1689.1 93.7465 1689.1 Q87.9364 1689.1 84.8577 1684.51 Q81.8021 1679.91 81.8021 1671.18 Q81.8021 1662.43 84.8577 1657.85 Q87.9364 1653.24 93.7465 1653.24 Z" fill="#000000" fill-rule="evenodd" fill-opacity="1" /><path clip-path="url(#clip970)" d="M113.908 1682.55 L118.793 1682.55 L118.793 1688.42 L113.908 1688.42 L113.908 1682.55 Z" fill="#000000" fill-rule="evenodd" fill-opacity="1" /><path clip-path="url(#clip970)" d="M129.024 1653.86 L147.38 1653.86 L147.38 1657.8 L133.306 1657.8 L133.306 1666.27 Q134.325 1665.92 135.344 1665.76 Q136.362 1665.58 137.381 1665.58 Q143.168 1665.58 146.547 1668.75 Q149.927 1671.92 149.927 1677.34 Q149.927 1682.92 146.455 1686.02 Q142.982 1689.1 136.663 1689.1 Q134.487 1689.1 132.219 1688.73 Q129.973 1688.36 127.566 1687.61 L127.566 1682.92 Q129.649 1684.05 131.871 1684.61 Q134.094 1685.16 136.57 1685.16 Q140.575 1685.16 142.913 1683.05 Q145.251 1680.95 145.251 1677.34 Q145.251 1673.73 142.913 1671.62 Q140.575 1669.51 136.57 1669.51 Q134.695 1669.51 132.82 1669.93 Q130.969 1670.35 129.024 1671.23 L129.024 1653.86 Z" fill="#000000" fill-rule="evenodd" fill-opacity="1" /><path clip-path="url(#clip970)" d="M83.5614 1523.71 L91.2002 1523.71 L91.2002 1497.35 L82.8901 1499.01 L82.8901 1494.75 L91.1539 1493.09 L95.8298 1493.09 L95.8298 1523.71 L103.469 1523.71 L103.469 1527.65 L83.5614 1527.65 L83.5614 1523.71 Z" fill="#000000" fill-rule="evenodd" fill-opacity="1" /><path clip-path="url(#clip970)" d="M112.913 1521.77 L117.797 1521.77 L117.797 1527.65 L112.913 1527.65 L112.913 1521.77 Z" fill="#000000" fill-rule="evenodd" fill-opacity="1" /><path clip-path="url(#clip970)" d="M137.982 1496.17 Q134.371 1496.17 132.543 1499.73 Q130.737 1503.27 130.737 1510.4 Q130.737 1517.51 132.543 1521.07 Q134.371 1524.61 137.982 1524.61 Q141.617 1524.61 143.422 1521.07 Q145.251 1517.51 145.251 1510.4 Q145.251 1503.27 143.422 1499.73 Q141.617 1496.17 137.982 1496.17 M137.982 1492.46 Q143.793 1492.46 146.848 1497.07 Q149.927 1501.65 149.927 1510.4 Q149.927 1519.13 146.848 1523.73 Q143.793 1528.32 137.982 1528.32 Q132.172 1528.32 129.094 1523.73 Q126.038 1519.13 126.038 1510.4 Q126.038 1501.65 129.094 1497.07 Q132.172 1492.46 137.982 1492.46 Z" fill="#000000" fill-rule="evenodd" fill-opacity="1" /><path clip-path="url(#clip970)" d="M84.5568 1362.93 L92.1956 1362.93 L92.1956 1336.57 L83.8855 1338.23 L83.8855 1333.98 L92.1493 1332.31 L96.8252 1332.31 L96.8252 1362.93 L104.464 1362.93 L104.464 1366.87 L84.5568 1366.87 L84.5568 1362.93 Z" fill="#000000" fill-rule="evenodd" fill-opacity="1" /><path clip-path="url(#clip970)" d="M113.908 1360.99 L118.793 1360.99 L118.793 1366.87 L113.908 1366.87 L113.908 1360.99 Z" fill="#000000" fill-rule="evenodd" fill-opacity="1" /><path clip-path="url(#clip970)" d="M129.024 1332.31 L147.38 1332.31 L147.38 1336.24 L133.306 1336.24 L133.306 1344.72 Q134.325 1344.37 135.344 1344.21 Q136.362 1344.02 137.381 1344.02 Q143.168 1344.02 146.547 1347.19 Q149.927 1350.36 149.927 1355.78 Q149.927 1361.36 146.455 1364.46 Q142.982 1367.54 136.663 1367.54 Q134.487 1367.54 132.219 1367.17 Q129.973 1366.8 127.566 1366.06 L127.566 1361.36 Q129.649 1362.49 131.871 1363.05 Q134.094 1363.61 136.57 1363.61 Q140.575 1363.61 142.913 1361.5 Q145.251 1359.39 145.251 1355.78 Q145.251 1352.17 142.913 1350.06 Q140.575 1347.96 136.57 1347.96 Q134.695 1347.96 132.82 1348.37 Q130.969 1348.79 129.024 1349.67 L129.024 1332.31 Z" fill="#000000" fill-rule="evenodd" fill-opacity="1" /><path clip-path="url(#clip970)" d="M86.779 1202.16 L103.098 1202.16 L103.098 1206.09 L81.154 1206.09 L81.154 1202.16 Q83.816 1199.4 88.3993 1194.77 Q93.0058 1190.12 94.1863 1188.78 Q96.4317 1186.25 97.3113 1184.52 Q98.2141 1182.76 98.2141 1181.07 Q98.2141 1178.31 96.2697 1176.58 Q94.3484 1174.84 91.2465 1174.84 Q89.0475 1174.84 86.5938 1175.6 Q84.1632 1176.37 81.3855 1177.92 L81.3855 1173.2 Q84.2095 1172.06 86.6632 1171.48 Q89.1169 1170.91 91.1539 1170.91 Q96.5243 1170.91 99.7187 1173.59 Q102.913 1176.28 102.913 1180.77 Q102.913 1182.9 102.103 1184.82 Q101.316 1186.72 99.2095 1189.31 Q98.6308 1189.98 95.5289 1193.2 Q92.4271 1196.39 86.779 1202.16 Z" fill="#000000" fill-rule="evenodd" fill-opacity="1" /><path clip-path="url(#clip970)" d="M112.913 1200.21 L117.797 1200.21 L117.797 1206.09 L112.913 1206.09 L112.913 1200.21 Z" fill="#000000" fill-rule="evenodd" fill-opacity="1" /><path clip-path="url(#clip970)" d="M137.982 1174.61 Q134.371 1174.61 132.543 1178.17 Q130.737 1181.72 130.737 1188.85 Q130.737 1195.95 132.543 1199.52 Q134.371 1203.06 137.982 1203.06 Q141.617 1203.06 143.422 1199.52 Q145.251 1195.95 145.251 1188.85 Q145.251 1181.72 143.422 1178.17 Q141.617 1174.61 137.982 1174.61 M137.982 1170.91 Q143.793 1170.91 146.848 1175.51 Q149.927 1180.1 149.927 1188.85 Q149.927 1197.57 146.848 1202.18 Q143.793 1206.76 137.982 1206.76 Q132.172 1206.76 129.094 1202.18 Q126.038 1197.57 126.038 1188.85 Q126.038 1180.1 129.094 1175.51 Q132.172 1170.91 137.982 1170.91 Z" fill="#000000" fill-rule="evenodd" fill-opacity="1" /><polyline clip-path="url(#clip974)" style="stroke:#009af9; stroke-linecap:butt; stroke-linejoin:round; stroke-width:8; stroke-opacity:1; fill:none" points="
  247.252,1777.39 404.497,1722.86 561.741,1668.33 718.986,1613.81 876.23,1559.28 1033.47,1504.75 1190.72,1450.22 1347.96,1395.69 1505.21,1341.16 1662.45,1286.63 
  1819.7,1232.1 1976.94,1177.57 2134.19,1123.04 2291.43,1068.51 
  "/>
<path clip-path="url(#clip970)" d="
M1986.9 1175.97 L2280.53 1175.97 L2280.53 1072.29 L1986.9 1072.29  Z
  " fill="#ffffff" fill-rule="evenodd" fill-opacity="1"/>
<polyline clip-path="url(#clip970)" style="stroke:#000000; stroke-linecap:butt; stroke-linejoin:round; stroke-width:4; stroke-opacity:1; fill:none" points="
  1986.9,1175.97 2280.53,1175.97 2280.53,1072.29 1986.9,1072.29 1986.9,1175.97 
  "/>
<polyline clip-path="url(#clip970)" style="stroke:#009af9; stroke-linecap:butt; stroke-linejoin:round; stroke-width:4; stroke-opacity:1; fill:none" points="
  2010.98,1124.13 2155.43,1124.13 
  "/>
<path clip-path="url(#clip970)" d="M2179.51 1140.77 L2179.51 1139.29 L2180.21 1139.29 Q2182.77 1139.29 2183.56 1138.94 Q2184.38 1138.57 2184.45 1137.21 L2184.45 1111.61 Q2184.41 1110.37 2183.61 1109.99 Q2182.81 1109.59 2180.21 1109.59 L2179.51 1109.59 L2179.51 1108.14 L2186.84 1108.24 L2189.14 1108.14 L2202.63 1108.14 L2204.92 1108.24 L2212.25 1108.14 L2212.25 1109.59 L2211.65 1109.59 Q2208.91 1109.59 2208.13 1109.99 Q2207.36 1110.37 2207.31 1111.66 L2207.31 1137.26 Q2207.36 1138.5 2208.13 1138.9 Q2208.91 1139.29 2211.46 1139.29 L2212.25 1139.29 L2212.25 1140.77 Q2208.6 1140.63 2204.88 1140.63 Q2204.15 1140.63 2198.11 1140.77 L2198.11 1139.29 L2198.88 1139.29 Q2201.53 1139.29 2202.25 1138.92 Q2203 1138.52 2203.05 1137.16 L2203.05 1109.59 L2188.71 1109.59 L2188.71 1137.16 Q2188.76 1138.5 2189.53 1138.9 Q2190.33 1139.29 2193.12 1139.29 L2193.66 1139.29 L2193.66 1140.77 Q2190 1140.63 2186.26 1140.63 Q2185.55 1140.63 2179.51 1140.77 Z" fill="#000000" fill-rule="evenodd" fill-opacity="1" /><path clip-path="url(#clip970)" d="M2227.36 1139.16 Q2227.36 1139.62 2227.15 1139.73 Q2226.94 1139.83 2226.35 1139.83 L2223.2 1139.83 L2220.71 1149.73 Q2220.51 1150.6 2220.51 1151.34 Q2220.51 1152.16 2220.76 1152.52 Q2221.02 1152.88 2221.56 1152.88 Q2222.63 1152.88 2223.77 1151.91 Q2224.94 1150.95 2225.92 1148.59 Q2226.05 1148.27 2226.12 1148.21 Q2226.2 1148.13 2226.41 1148.13 Q2226.82 1148.13 2226.82 1148.45 Q2226.82 1148.57 2226.59 1149.09 Q2226.38 1149.62 2225.91 1150.39 Q2225.45 1151.16 2224.84 1151.88 Q2224.25 1152.6 2223.35 1153.13 Q2222.45 1153.63 2221.48 1153.63 Q2220.12 1153.63 2219.25 1152.77 Q2218.4 1151.9 2218.4 1150.54 Q2218.4 1150.09 2218.74 1148.68 Q2219.08 1147.26 2220.95 1139.83 L2217.99 1139.83 Q2217.58 1139.83 2217.41 1139.81 Q2217.26 1139.8 2217.15 1139.71 Q2217.05 1139.62 2217.05 1139.42 Q2217.05 1139.11 2217.18 1138.98 Q2217.31 1138.83 2217.48 1138.81 Q2217.66 1138.78 2218.07 1138.78 L2221.22 1138.78 L2222.53 1133.45 Q2222.66 1132.93 2222.99 1132.63 Q2223.33 1132.32 2223.53 1132.29 Q2223.72 1132.24 2223.87 1132.24 Q2224.32 1132.24 2224.58 1132.48 Q2224.84 1132.71 2224.84 1133.14 Q2224.84 1133.37 2223.46 1138.78 L2226.41 1138.78 Q2226.79 1138.78 2226.94 1138.8 Q2227.1 1138.81 2227.23 1138.9 Q2227.36 1138.98 2227.36 1139.16 Z" fill="#000000" fill-rule="evenodd" fill-opacity="1" /></svg>
