<?xml version="1.0" encoding="utf-8"?>
<svg xmlns="http://www.w3.org/2000/svg" xmlns:xlink="http://www.w3.org/1999/xlink" width="600" height="500" viewBox="0 0 2400 2000">
<defs>
  <clipPath id="clip700">
    <rect x="0" y="0" width="2400" height="2000"/>
  </clipPath>
</defs>
<path clip-path="url(#clip700)" d="
M0 2000 L2400 2000 L2400 0 L0 0  Z
  " fill="#ffffff" fill-rule="evenodd" fill-opacity="1"/>
<defs>
  <clipPath id="clip701">
    <rect x="480" y="0" width="1681" height="1681"/>
  </clipPath>
</defs>
<path clip-path="url(#clip700)" d="
M194.422 798.66 L2352.76 798.66 L2352.76 47.2441 L194.422 47.2441  Z
  " fill="#ffffff" fill-rule="evenodd" fill-opacity="1"/>
<defs>
  <clipPath id="clip702">
    <rect x="194" y="47" width="2159" height="752"/>
  </clipPath>
</defs>
<polyline clip-path="url(#clip702)" style="stroke:#000000; stroke-linecap:butt; stroke-linejoin:round; stroke-width:2; stroke-opacity:0.1; fill:none" points="
  594.868,798.66 594.868,47.2441 
  "/>
<polyline clip-path="url(#clip702)" style="stroke:#000000; stroke-linecap:butt; stroke-linejoin:round; stroke-width:2; stroke-opacity:0.1; fill:none" points="
  1019.07,798.66 1019.07,47.2441 
  "/>
<polyline clip-path="url(#clip702)" style="stroke:#000000; stroke-linecap:butt; stroke-linejoin:round; stroke-width:2; stroke-opacity:0.1; fill:none" points="
  1443.27,798.66 1443.27,47.2441 
  "/>
<polyline clip-path="url(#clip702)" style="stroke:#000000; stroke-linecap:butt; stroke-linejoin:round; stroke-width:2; stroke-opacity:0.1; fill:none" points="
  1867.47,798.66 1867.47,47.2441 
  "/>
<polyline clip-path="url(#clip702)" style="stroke:#000000; stroke-linecap:butt; stroke-linejoin:round; stroke-width:2; stroke-opacity:0.1; fill:none" points="
  2291.67,798.66 2291.67,47.2441 
  "/>
<polyline clip-path="url(#clip700)" style="stroke:#000000; stroke-linecap:butt; stroke-linejoin:round; stroke-width:4; stroke-opacity:1; fill:none" points="
  194.422,798.66 2352.76,798.66 
  "/>
<polyline clip-path="url(#clip700)" style="stroke:#000000; stroke-linecap:butt; stroke-linejoin:round; stroke-width:4; stroke-opacity:1; fill:none" points="
  594.868,798.66 594.868,779.762 
  "/>
<polyline clip-path="url(#clip700)" style="stroke:#000000; stroke-linecap:butt; stroke-linejoin:round; stroke-width:4; stroke-opacity:1; fill:none" points="
  1019.07,798.66 1019.07,779.762 
  "/>
<polyline clip-path="url(#clip700)" style="stroke:#000000; stroke-linecap:butt; stroke-linejoin:round; stroke-width:4; stroke-opacity:1; fill:none" points="
  1443.27,798.66 1443.27,779.762 
  "/>
<polyline clip-path="url(#clip700)" style="stroke:#000000; stroke-linecap:butt; stroke-linejoin:round; stroke-width:4; stroke-opacity:1; fill:none" points="
  1867.47,798.66 1867.47,779.762 
  "/>
<polyline clip-path="url(#clip700)" style="stroke:#000000; stroke-linecap:butt; stroke-linejoin:round; stroke-width:4; stroke-opacity:1; fill:none" points="
  2291.67,798.66 2291.67,779.762 
  "/>
<path clip-path="url(#clip700)" d="M569.555 855.397 L577.194 855.397 L577.194 829.031 L568.884 830.698 L568.884 826.439 L577.148 824.772 L581.824 824.772 L581.824 855.397 L589.463 855.397 L589.463 859.332 L569.555 859.332 L569.555 855.397 Z" fill="#000000" fill-rule="evenodd" fill-opacity="1" /><path clip-path="url(#clip700)" d="M608.907 827.851 Q605.296 827.851 603.467 831.415 Q601.662 834.957 601.662 842.087 Q601.662 849.193 603.467 852.758 Q605.296 856.299 608.907 856.299 Q612.541 856.299 614.347 852.758 Q616.175 849.193 616.175 842.087 Q616.175 834.957 614.347 831.415 Q612.541 827.851 608.907 827.851 M608.907 824.147 Q614.717 824.147 617.773 828.753 Q620.851 833.337 620.851 842.087 Q620.851 850.813 617.773 855.42 Q614.717 860.003 608.907 860.003 Q603.097 860.003 600.018 855.42 Q596.963 850.813 596.963 842.087 Q596.963 833.337 600.018 828.753 Q603.097 824.147 608.907 824.147 Z" fill="#000000" fill-rule="evenodd" fill-opacity="1" /><path clip-path="url(#clip700)" d="M997.842 855.397 L1014.16 855.397 L1014.16 859.332 L992.217 859.332 L992.217 855.397 Q994.879 852.642 999.462 848.012 Q1004.07 843.36 1005.25 842.017 Q1007.49 839.494 1008.37 837.758 Q1009.28 835.999 1009.28 834.309 Q1009.28 831.554 1007.33 829.818 Q1005.41 828.082 1002.31 828.082 Q1000.11 828.082 997.657 828.846 Q995.226 829.61 992.448 831.161 L992.448 826.439 Q995.272 825.304 997.726 824.726 Q1000.18 824.147 1002.22 824.147 Q1007.59 824.147 1010.78 826.832 Q1013.98 829.517 1013.98 834.008 Q1013.98 836.138 1013.17 838.059 Q1012.38 839.957 1010.27 842.55 Q1009.69 843.221 1006.59 846.438 Q1003.49 849.633 997.842 855.397 Z" fill="#000000" fill-rule="evenodd" fill-opacity="1" /><path clip-path="url(#clip700)" d="M1033.98 827.851 Q1030.36 827.851 1028.54 831.415 Q1026.73 834.957 1026.73 842.087 Q1026.73 849.193 1028.54 852.758 Q1030.36 856.299 1033.98 856.299 Q1037.61 856.299 1039.42 852.758 Q1041.24 849.193 1041.24 842.087 Q1041.24 834.957 1039.42 831.415 Q1037.61 827.851 1033.98 827.851 M1033.98 824.147 Q1039.79 824.147 1042.84 828.753 Q1045.92 833.337 1045.92 842.087 Q1045.92 850.813 1042.84 855.42 Q1039.79 860.003 1033.98 860.003 Q1028.17 860.003 1025.09 855.42 Q1022.03 850.813 1022.03 842.087 Q1022.03 833.337 1025.09 828.753 Q1028.17 824.147 1033.98 824.147 Z" fill="#000000" fill-rule="evenodd" fill-opacity="1" /><path clip-path="url(#clip700)" d="M1432.11 840.698 Q1435.47 841.415 1437.34 843.684 Q1439.24 845.952 1439.24 849.286 Q1439.24 854.401 1435.72 857.202 Q1432.2 860.003 1425.72 860.003 Q1423.55 860.003 1421.23 859.563 Q1418.94 859.147 1416.49 858.29 L1416.49 853.776 Q1418.43 854.911 1420.75 855.489 Q1423.06 856.068 1425.58 856.068 Q1429.98 856.068 1432.27 854.332 Q1434.59 852.596 1434.59 849.286 Q1434.59 846.23 1432.44 844.517 Q1430.31 842.781 1426.49 842.781 L1422.46 842.781 L1422.46 838.938 L1426.67 838.938 Q1430.12 838.938 1431.95 837.573 Q1433.78 836.184 1433.78 833.591 Q1433.78 830.929 1431.88 829.517 Q1430.01 828.082 1426.49 828.082 Q1424.57 828.082 1422.37 828.499 Q1420.17 828.915 1417.53 829.795 L1417.53 825.628 Q1420.19 824.888 1422.51 824.517 Q1424.84 824.147 1426.9 824.147 Q1432.23 824.147 1435.33 826.577 Q1438.43 828.985 1438.43 833.105 Q1438.43 835.975 1436.79 837.966 Q1435.14 839.934 1432.11 840.698 Z" fill="#000000" fill-rule="evenodd" fill-opacity="1" /><path clip-path="url(#clip700)" d="M1458.11 827.851 Q1454.5 827.851 1452.67 831.415 Q1450.86 834.957 1450.86 842.087 Q1450.86 849.193 1452.67 852.758 Q1454.5 856.299 1458.11 856.299 Q1461.74 856.299 1463.55 852.758 Q1465.38 849.193 1465.38 842.087 Q1465.38 834.957 1463.55 831.415 Q1461.74 827.851 1458.11 827.851 M1458.11 824.147 Q1463.92 824.147 1466.97 828.753 Q1470.05 833.337 1470.05 842.087 Q1470.05 850.813 1466.97 855.42 Q1463.92 860.003 1458.11 860.003 Q1452.3 860.003 1449.22 855.42 Q1446.16 850.813 1446.16 842.087 Q1446.16 833.337 1449.22 828.753 Q1452.3 824.147 1458.11 824.147 Z" fill="#000000" fill-rule="evenodd" fill-opacity="1" /><path clip-path="url(#clip700)" d="M1855.64 828.846 L1843.84 847.295 L1855.64 847.295 L1855.64 828.846 M1854.41 824.772 L1860.29 824.772 L1860.29 847.295 L1865.22 847.295 L1865.22 851.184 L1860.29 851.184 L1860.29 859.332 L1855.64 859.332 L1855.64 851.184 L1840.04 851.184 L1840.04 846.67 L1854.41 824.772 Z" fill="#000000" fill-rule="evenodd" fill-opacity="1" /><path clip-path="url(#clip700)" d="M1882.96 827.851 Q1879.35 827.851 1877.52 831.415 Q1875.71 834.957 1875.71 842.087 Q1875.71 849.193 1877.52 852.758 Q1879.35 856.299 1882.96 856.299 Q1886.59 856.299 1888.4 852.758 Q1890.22 849.193 1890.22 842.087 Q1890.22 834.957 1888.4 831.415 Q1886.59 827.851 1882.96 827.851 M1882.96 824.147 Q1888.77 824.147 1891.82 828.753 Q1894.9 833.337 1894.9 842.087 Q1894.9 850.813 1891.82 855.42 Q1888.77 860.003 1882.96 860.003 Q1877.15 860.003 1874.07 855.42 Q1871.01 850.813 1871.01 842.087 Q1871.01 833.337 1874.07 828.753 Q1877.15 824.147 1882.96 824.147 Z" fill="#000000" fill-rule="evenodd" fill-opacity="1" /><path clip-path="url(#clip700)" d="M2266.37 824.772 L2284.73 824.772 L2284.73 828.707 L2270.65 828.707 L2270.65 837.179 Q2271.67 836.832 2272.69 836.67 Q2273.71 836.485 2274.73 836.485 Q2280.51 836.485 2283.89 839.656 Q2287.27 842.827 2287.27 848.244 Q2287.27 853.823 2283.8 856.924 Q2280.33 860.003 2274.01 860.003 Q2271.83 860.003 2269.56 859.633 Q2267.32 859.262 2264.91 858.522 L2264.91 853.823 Q2267 854.957 2269.22 855.512 Q2271.44 856.068 2273.92 856.068 Q2277.92 856.068 2280.26 853.962 Q2282.6 851.855 2282.6 848.244 Q2282.6 844.633 2280.26 842.526 Q2277.92 840.42 2273.92 840.42 Q2272.04 840.42 2270.17 840.837 Q2268.31 841.253 2266.37 842.133 L2266.37 824.772 Z" fill="#000000" fill-rule="evenodd" fill-opacity="1" /><path clip-path="url(#clip700)" d="M2306.49 827.851 Q2302.87 827.851 2301.05 831.415 Q2299.24 834.957 2299.24 842.087 Q2299.24 849.193 2301.05 852.758 Q2302.87 856.299 2306.49 856.299 Q2310.12 856.299 2311.93 852.758 Q2313.75 849.193 2313.75 842.087 Q2313.75 834.957 2311.93 831.415 Q2310.12 827.851 2306.49 827.851 M2306.49 824.147 Q2312.3 824.147 2315.35 828.753 Q2318.43 833.337 2318.43 842.087 Q2318.43 850.813 2315.35 855.42 Q2312.3 860.003 2306.49 860.003 Q2300.68 860.003 2297.6 855.42 Q2294.54 850.813 2294.54 842.087 Q2294.54 833.337 2297.6 828.753 Q2300.68 824.147 2306.49 824.147 Z" fill="#000000" fill-rule="evenodd" fill-opacity="1" /><path clip-path="url(#clip700)" d="M1195.47 896.004 L1235.67 896.004 L1235.67 901.415 L1218.8 901.415 L1218.8 943.524 L1212.33 943.524 L1212.33 901.415 L1195.47 901.415 L1195.47 896.004 Z" fill="#000000" fill-rule="evenodd" fill-opacity="1" /><path clip-path="url(#clip700)" d="M1239.61 907.876 L1245.47 907.876 L1245.47 943.524 L1239.61 943.524 L1239.61 907.876 M1239.61 893.999 L1245.47 893.999 L1245.47 901.415 L1239.61 901.415 L1239.61 893.999 Z" fill="#000000" fill-rule="evenodd" fill-opacity="1" /><path clip-path="url(#clip700)" d="M1285.48 914.719 Q1287.67 910.772 1290.73 908.894 Q1293.78 907.017 1297.92 907.017 Q1303.49 907.017 1306.52 910.931 Q1309.54 914.815 1309.54 922.008 L1309.54 943.524 L1303.65 943.524 L1303.65 922.199 Q1303.65 917.074 1301.84 914.592 Q1300.02 912.109 1296.3 912.109 Q1291.75 912.109 1289.11 915.133 Q1286.46 918.157 1286.46 923.376 L1286.46 943.524 L1280.58 943.524 L1280.58 922.199 Q1280.58 917.043 1278.76 914.592 Q1276.95 912.109 1273.16 912.109 Q1268.67 912.109 1266.03 915.165 Q1263.39 918.188 1263.39 923.376 L1263.39 943.524 L1257.5 943.524 L1257.5 907.876 L1263.39 907.876 L1263.39 913.414 Q1265.39 910.136 1268.19 908.576 Q1270.99 907.017 1274.85 907.017 Q1278.73 907.017 1281.43 908.99 Q1284.17 910.963 1285.48 914.719 Z" fill="#000000" fill-rule="evenodd" fill-opacity="1" /><path clip-path="url(#clip700)" d="M1351.71 924.236 L1351.71 927.1 L1324.79 927.1 Q1325.17 933.148 1328.41 936.331 Q1331.69 939.482 1337.52 939.482 Q1340.89 939.482 1344.04 938.654 Q1347.22 937.827 1350.34 936.171 L1350.34 941.71 Q1347.19 943.046 1343.88 943.747 Q1340.57 944.447 1337.17 944.447 Q1328.64 944.447 1323.64 939.482 Q1318.67 934.516 1318.67 926.05 Q1318.67 917.297 1323.38 912.173 Q1328.13 907.017 1336.15 907.017 Q1343.34 907.017 1347.51 911.663 Q1351.71 916.279 1351.71 924.236 M1345.86 922.517 Q1345.79 917.711 1343.15 914.846 Q1340.54 911.982 1336.21 911.982 Q1331.31 911.982 1328.35 914.751 Q1325.42 917.52 1324.98 922.549 L1345.86 922.517 Z" fill="#000000" fill-rule="evenodd" fill-opacity="1" /><polyline clip-path="url(#clip702)" style="stroke:#000000; stroke-linecap:butt; stroke-linejoin:round; stroke-width:2; stroke-opacity:0.1; fill:none" points="
  194.422,726.002 2352.76,726.002 
  "/>
<polyline clip-path="url(#clip702)" style="stroke:#000000; stroke-linecap:butt; stroke-linejoin:round; stroke-width:2; stroke-opacity:0.1; fill:none" points="
  194.422,609.316 2352.76,609.316 
  "/>
<polyline clip-path="url(#clip702)" style="stroke:#000000; stroke-linecap:butt; stroke-linejoin:round; stroke-width:2; stroke-opacity:0.1; fill:none" points="
  194.422,492.629 2352.76,492.629 
  "/>
<polyline clip-path="url(#clip702)" style="stroke:#000000; stroke-linecap:butt; stroke-linejoin:round; stroke-width:2; stroke-opacity:0.1; fill:none" points="
  194.422,375.942 2352.76,375.942 
  "/>
<polyline clip-path="url(#clip702)" style="stroke:#000000; stroke-linecap:butt; stroke-linejoin:round; stroke-width:2; stroke-opacity:0.1; fill:none" points="
  194.422,259.256 2352.76,259.256 
  "/>
<polyline clip-path="url(#clip702)" style="stroke:#000000; stroke-linecap:butt; stroke-linejoin:round; stroke-width:2; stroke-opacity:0.1; fill:none" points="
  194.422,142.569 2352.76,142.569 
  "/>
<polyline clip-path="url(#clip700)" style="stroke:#000000; stroke-linecap:butt; stroke-linejoin:round; stroke-width:4; stroke-opacity:1; fill:none" points="
  194.422,798.66 194.422,47.2441 
  "/>
<polyline clip-path="url(#clip700)" style="stroke:#000000; stroke-linecap:butt; stroke-linejoin:round; stroke-width:4; stroke-opacity:1; fill:none" points="
  194.422,726.002 213.32,726.002 
  "/>
<polyline clip-path="url(#clip700)" style="stroke:#000000; stroke-linecap:butt; stroke-linejoin:round; stroke-width:4; stroke-opacity:1; fill:none" points="
  194.422,609.316 213.32,609.316 
  "/>
<polyline clip-path="url(#clip700)" style="stroke:#000000; stroke-linecap:butt; stroke-linejoin:round; stroke-width:4; stroke-opacity:1; fill:none" points="
  194.422,492.629 213.32,492.629 
  "/>
<polyline clip-path="url(#clip700)" style="stroke:#000000; stroke-linecap:butt; stroke-linejoin:round; stroke-width:4; stroke-opacity:1; fill:none" points="
  194.422,375.942 213.32,375.942 
  "/>
<polyline clip-path="url(#clip700)" style="stroke:#000000; stroke-linecap:butt; stroke-linejoin:round; stroke-width:4; stroke-opacity:1; fill:none" points="
  194.422,259.256 213.32,259.256 
  "/>
<polyline clip-path="url(#clip700)" style="stroke:#000000; stroke-linecap:butt; stroke-linejoin:round; stroke-width:4; stroke-opacity:1; fill:none" points="
  194.422,142.569 213.32,142.569 
  "/>
<path clip-path="url(#clip700)" d="M71.9874 711.801 Q68.3763 711.801 66.5476 715.366 Q64.7421 718.907 64.7421 726.037 Q64.7421 733.144 66.5476 736.708 Q68.3763 740.25 71.9874 740.25 Q75.6216 740.25 77.4272 736.708 Q79.2559 733.144 79.2559 726.037 Q79.2559 718.907 77.4272 715.366 Q75.6216 711.801 71.9874 711.801 M71.9874 708.097 Q77.7975 708.097 80.8531 712.704 Q83.9318 717.287 83.9318 726.037 Q83.9318 734.764 80.8531 739.37 Q77.7975 743.954 71.9874 743.954 Q66.1772 743.954 63.0985 739.37 Q60.043 734.764 60.043 726.037 Q60.043 717.287 63.0985 712.704 Q66.1772 708.097 71.9874 708.097 Z" fill="#000000" fill-rule="evenodd" fill-opacity="1" /><path clip-path="url(#clip700)" d="M92.1493 737.403 L97.0335 737.403 L97.0335 743.282 L92.1493 743.282 L92.1493 737.403 Z" fill="#000000" fill-rule="evenodd" fill-opacity="1" /><path clip-path="url(#clip700)" d="M107.358 742.565 L107.358 738.306 Q109.117 739.139 110.922 739.579 Q112.728 740.018 114.464 740.018 Q119.094 740.018 121.524 736.917 Q123.978 733.792 124.325 727.449 Q122.982 729.44 120.922 730.505 Q118.862 731.569 116.362 731.569 Q111.177 731.569 108.145 728.444 Q105.135 725.296 105.135 719.857 Q105.135 714.532 108.283 711.315 Q111.432 708.097 116.663 708.097 Q122.658 708.097 125.807 712.704 Q128.978 717.287 128.978 726.037 Q128.978 734.208 125.089 739.093 Q121.223 743.954 114.672 743.954 Q112.913 743.954 111.108 743.606 Q109.302 743.259 107.358 742.565 M116.663 727.912 Q119.811 727.912 121.64 725.759 Q123.492 723.607 123.492 719.857 Q123.492 716.13 121.64 713.977 Q119.811 711.801 116.663 711.801 Q113.515 711.801 111.663 713.977 Q109.834 716.13 109.834 719.857 Q109.834 723.607 111.663 725.759 Q113.515 727.912 116.663 727.912 Z" fill="#000000" fill-rule="evenodd" fill-opacity="1" /><path clip-path="url(#clip700)" d="M136.2 708.722 L158.422 708.722 L158.422 710.713 L145.876 743.282 L140.992 743.282 L152.797 712.657 L136.2 712.657 L136.2 708.722 Z" fill="#000000" fill-rule="evenodd" fill-opacity="1" /><path clip-path="url(#clip700)" d="M71.1772 595.114 Q67.5661 595.114 65.7374 598.679 Q63.9319 602.221 63.9319 609.35 Q63.9319 616.457 65.7374 620.022 Q67.5661 623.563 71.1772 623.563 Q74.8114 623.563 76.617 620.022 Q78.4457 616.457 78.4457 609.35 Q78.4457 602.221 76.617 598.679 Q74.8114 595.114 71.1772 595.114 M71.1772 591.411 Q76.9874 591.411 80.0429 596.017 Q83.1216 600.6 83.1216 609.35 Q83.1216 618.077 80.0429 622.684 Q76.9874 627.267 71.1772 627.267 Q65.367 627.267 62.2884 622.684 Q59.2328 618.077 59.2328 609.35 Q59.2328 600.6 62.2884 596.017 Q65.367 591.411 71.1772 591.411 Z" fill="#000000" fill-rule="evenodd" fill-opacity="1" /><path clip-path="url(#clip700)" d="M91.3391 620.716 L96.2234 620.716 L96.2234 626.596 L91.3391 626.596 L91.3391 620.716 Z" fill="#000000" fill-rule="evenodd" fill-opacity="1" /><path clip-path="url(#clip700)" d="M106.547 625.878 L106.547 621.619 Q108.307 622.452 110.112 622.892 Q111.918 623.332 113.654 623.332 Q118.283 623.332 120.714 620.23 Q123.168 617.105 123.515 610.762 Q122.172 612.753 120.112 613.818 Q118.052 614.883 115.552 614.883 Q110.367 614.883 107.334 611.758 Q104.325 608.61 104.325 603.17 Q104.325 597.846 107.473 594.628 Q110.621 591.411 115.853 591.411 Q121.848 591.411 124.996 596.017 Q128.168 600.6 128.168 609.35 Q128.168 617.522 124.279 622.406 Q120.413 627.267 113.862 627.267 Q112.103 627.267 110.297 626.92 Q108.492 626.573 106.547 625.878 M115.853 611.225 Q119.001 611.225 120.83 609.073 Q122.682 606.92 122.682 603.17 Q122.682 599.443 120.83 597.29 Q119.001 595.114 115.853 595.114 Q112.705 595.114 110.853 597.29 Q109.024 599.443 109.024 603.17 Q109.024 606.92 110.853 609.073 Q112.705 611.225 115.853 611.225 Z" fill="#000000" fill-rule="evenodd" fill-opacity="1" /><path clip-path="url(#clip700)" d="M146.57 610.184 Q143.237 610.184 141.316 611.966 Q139.418 613.749 139.418 616.873 Q139.418 619.998 141.316 621.781 Q143.237 623.563 146.57 623.563 Q149.904 623.563 151.825 621.781 Q153.746 619.975 153.746 616.873 Q153.746 613.749 151.825 611.966 Q149.927 610.184 146.57 610.184 M141.894 608.193 Q138.885 607.452 137.195 605.392 Q135.529 603.332 135.529 600.369 Q135.529 596.225 138.469 593.818 Q141.431 591.411 146.57 591.411 Q151.732 591.411 154.672 593.818 Q157.612 596.225 157.612 600.369 Q157.612 603.332 155.922 605.392 Q154.255 607.452 151.269 608.193 Q154.649 608.98 156.524 611.272 Q158.422 613.563 158.422 616.873 Q158.422 621.897 155.343 624.582 Q152.288 627.267 146.57 627.267 Q140.853 627.267 137.774 624.582 Q134.719 621.897 134.719 616.873 Q134.719 613.563 136.617 611.272 Q138.515 608.98 141.894 608.193 M140.181 600.809 Q140.181 603.494 141.848 604.999 Q143.538 606.503 146.57 606.503 Q149.58 606.503 151.269 604.999 Q152.982 603.494 152.982 600.809 Q152.982 598.124 151.269 596.619 Q149.58 595.114 146.57 595.114 Q143.538 595.114 141.848 596.619 Q140.181 598.124 140.181 600.809 Z" fill="#000000" fill-rule="evenodd" fill-opacity="1" /><path clip-path="url(#clip700)" d="M71.2698 478.428 Q67.6587 478.428 65.83 481.992 Q64.0245 485.534 64.0245 492.664 Q64.0245 499.77 65.83 503.335 Q67.6587 506.877 71.2698 506.877 Q74.904 506.877 76.7096 503.335 Q78.5383 499.77 78.5383 492.664 Q78.5383 485.534 76.7096 481.992 Q74.904 478.428 71.2698 478.428 M71.2698 474.724 Q77.0799 474.724 80.1355 479.33 Q83.2142 483.914 83.2142 492.664 Q83.2142 501.391 80.1355 505.997 Q77.0799 510.58 71.2698 510.58 Q65.4596 510.58 62.381 505.997 Q59.3254 501.391 59.3254 492.664 Q59.3254 483.914 62.381 479.33 Q65.4596 474.724 71.2698 474.724 Z" fill="#000000" fill-rule="evenodd" fill-opacity="1" /><path clip-path="url(#clip700)" d="M91.4317 504.029 L96.316 504.029 L96.316 509.909 L91.4317 509.909 L91.4317 504.029 Z" fill="#000000" fill-rule="evenodd" fill-opacity="1" /><path clip-path="url(#clip700)" d="M106.64 509.191 L106.64 504.932 Q108.399 505.765 110.205 506.205 Q112.01 506.645 113.746 506.645 Q118.376 506.645 120.807 503.543 Q123.26 500.418 123.607 494.076 Q122.265 496.066 120.205 497.131 Q118.145 498.196 115.645 498.196 Q110.459 498.196 107.427 495.071 Q104.418 491.923 104.418 486.483 Q104.418 481.159 107.566 477.942 Q110.714 474.724 115.945 474.724 Q121.941 474.724 125.089 479.33 Q128.26 483.914 128.26 492.664 Q128.26 500.835 124.371 505.719 Q120.506 510.58 113.955 510.58 Q112.196 510.58 110.39 510.233 Q108.584 509.886 106.64 509.191 M115.945 494.539 Q119.094 494.539 120.922 492.386 Q122.774 490.233 122.774 486.483 Q122.774 482.756 120.922 480.604 Q119.094 478.428 115.945 478.428 Q112.797 478.428 110.946 480.604 Q109.117 482.756 109.117 486.483 Q109.117 490.233 110.946 492.386 Q112.797 494.539 115.945 494.539 Z" fill="#000000" fill-rule="evenodd" fill-opacity="1" /><path clip-path="url(#clip700)" d="M136.802 509.191 L136.802 504.932 Q138.561 505.765 140.367 506.205 Q142.172 506.645 143.908 506.645 Q148.538 506.645 150.968 503.543 Q153.422 500.418 153.769 494.076 Q152.427 496.066 150.367 497.131 Q148.306 498.196 145.806 498.196 Q140.621 498.196 137.589 495.071 Q134.58 491.923 134.58 486.483 Q134.58 481.159 137.728 477.942 Q140.876 474.724 146.107 474.724 Q152.103 474.724 155.251 479.33 Q158.422 483.914 158.422 492.664 Q158.422 500.835 154.533 505.719 Q150.668 510.58 144.117 510.58 Q142.357 510.58 140.552 510.233 Q138.746 509.886 136.802 509.191 M146.107 494.539 Q149.255 494.539 151.084 492.386 Q152.936 490.233 152.936 486.483 Q152.936 482.756 151.084 480.604 Q149.255 478.428 146.107 478.428 Q142.959 478.428 141.107 480.604 Q139.279 482.756 139.279 486.483 Q139.279 490.233 141.107 492.386 Q142.959 494.539 146.107 494.539 Z" fill="#000000" fill-rule="evenodd" fill-opacity="1" /><path clip-path="url(#clip700)" d="M61.8948 389.287 L69.5337 389.287 L69.5337 362.922 L61.2236 364.588 L61.2236 360.329 L69.4874 358.662 L74.1633 358.662 L74.1633 389.287 L81.8021 389.287 L81.8021 393.222 L61.8948 393.222 L61.8948 389.287 Z" fill="#000000" fill-rule="evenodd" fill-opacity="1" /><path clip-path="url(#clip700)" d="M91.2465 387.343 L96.1308 387.343 L96.1308 393.222 L91.2465 393.222 L91.2465 387.343 Z" fill="#000000" fill-rule="evenodd" fill-opacity="1" /><path clip-path="url(#clip700)" d="M116.316 361.741 Q112.705 361.741 110.876 365.306 Q109.071 368.847 109.071 375.977 Q109.071 383.083 110.876 386.648 Q112.705 390.19 116.316 390.19 Q119.95 390.19 121.756 386.648 Q123.584 383.083 123.584 375.977 Q123.584 368.847 121.756 365.306 Q119.95 361.741 116.316 361.741 M116.316 358.037 Q122.126 358.037 125.182 362.644 Q128.26 367.227 128.26 375.977 Q128.26 384.704 125.182 389.31 Q122.126 393.894 116.316 393.894 Q110.506 393.894 107.427 389.31 Q104.371 384.704 104.371 375.977 Q104.371 367.227 107.427 362.644 Q110.506 358.037 116.316 358.037 Z" fill="#000000" fill-rule="evenodd" fill-opacity="1" /><path clip-path="url(#clip700)" d="M146.478 361.741 Q142.867 361.741 141.038 365.306 Q139.232 368.847 139.232 375.977 Q139.232 383.083 141.038 386.648 Q142.867 390.19 146.478 390.19 Q150.112 390.19 151.918 386.648 Q153.746 383.083 153.746 375.977 Q153.746 368.847 151.918 365.306 Q150.112 361.741 146.478 361.741 M146.478 358.037 Q152.288 358.037 155.343 362.644 Q158.422 367.227 158.422 375.977 Q158.422 384.704 155.343 389.31 Q152.288 393.894 146.478 393.894 Q140.668 393.894 137.589 389.31 Q134.533 384.704 134.533 375.977 Q134.533 367.227 137.589 362.644 Q140.668 358.037 146.478 358.037 Z" fill="#000000" fill-rule="evenodd" fill-opacity="1" /><path clip-path="url(#clip700)" d="M63.1217 272.6 L70.7605 272.6 L70.7605 246.235 L62.4504 247.902 L62.4504 243.642 L70.7142 241.976 L75.3901 241.976 L75.3901 272.6 L83.029 272.6 L83.029 276.536 L63.1217 276.536 L63.1217 272.6 Z" fill="#000000" fill-rule="evenodd" fill-opacity="1" /><path clip-path="url(#clip700)" d="M92.4734 270.656 L97.3576 270.656 L97.3576 276.536 L92.4734 276.536 L92.4734 270.656 Z" fill="#000000" fill-rule="evenodd" fill-opacity="1" /><path clip-path="url(#clip700)" d="M117.543 245.054 Q113.932 245.054 112.103 248.619 Q110.297 252.161 110.297 259.29 Q110.297 266.397 112.103 269.962 Q113.932 273.503 117.543 273.503 Q121.177 273.503 122.982 269.962 Q124.811 266.397 124.811 259.29 Q124.811 252.161 122.982 248.619 Q121.177 245.054 117.543 245.054 M117.543 241.351 Q123.353 241.351 126.408 245.957 Q129.487 250.54 129.487 259.29 Q129.487 268.017 126.408 272.624 Q123.353 277.207 117.543 277.207 Q111.733 277.207 108.654 272.624 Q105.598 268.017 105.598 259.29 Q105.598 250.54 108.654 245.957 Q111.733 241.351 117.543 241.351 Z" fill="#000000" fill-rule="evenodd" fill-opacity="1" /><path clip-path="url(#clip700)" d="M138.515 272.6 L146.154 272.6 L146.154 246.235 L137.844 247.902 L137.844 243.642 L146.107 241.976 L150.783 241.976 L150.783 272.6 L158.422 272.6 L158.422 276.536 L138.515 276.536 L138.515 272.6 Z" fill="#000000" fill-rule="evenodd" fill-opacity="1" /><path clip-path="url(#clip700)" d="M63.4921 155.914 L71.1309 155.914 L71.1309 129.548 L62.8208 131.215 L62.8208 126.956 L71.0846 125.289 L75.7605 125.289 L75.7605 155.914 L83.3994 155.914 L83.3994 159.849 L63.4921 159.849 L63.4921 155.914 Z" fill="#000000" fill-rule="evenodd" fill-opacity="1" /><path clip-path="url(#clip700)" d="M92.8438 153.969 L97.728 153.969 L97.728 159.849 L92.8438 159.849 L92.8438 153.969 Z" fill="#000000" fill-rule="evenodd" fill-opacity="1" /><path clip-path="url(#clip700)" d="M117.913 128.368 Q114.302 128.368 112.473 131.932 Q110.668 135.474 110.668 142.604 Q110.668 149.71 112.473 153.275 Q114.302 156.817 117.913 156.817 Q121.547 156.817 123.353 153.275 Q125.182 149.71 125.182 142.604 Q125.182 135.474 123.353 131.932 Q121.547 128.368 117.913 128.368 M117.913 124.664 Q123.723 124.664 126.779 129.27 Q129.857 133.854 129.857 142.604 Q129.857 151.331 126.779 155.937 Q123.723 160.52 117.913 160.52 Q112.103 160.52 109.024 155.937 Q105.969 151.331 105.969 142.604 Q105.969 133.854 109.024 129.27 Q112.103 124.664 117.913 124.664 Z" fill="#000000" fill-rule="evenodd" fill-opacity="1" /><path clip-path="url(#clip700)" d="M142.103 155.914 L158.422 155.914 L158.422 159.849 L136.478 159.849 L136.478 155.914 Q139.14 153.159 143.723 148.53 Q148.33 143.877 149.51 142.534 Q151.755 140.011 152.635 138.275 Q153.538 136.516 153.538 134.826 Q153.538 132.071 151.593 130.335 Q149.672 128.599 146.57 128.599 Q144.371 128.599 141.918 129.363 Q139.487 130.127 136.709 131.678 L136.709 126.956 Q139.533 125.821 141.987 125.243 Q144.441 124.664 146.478 124.664 Q151.848 124.664 155.042 127.349 Q158.237 130.034 158.237 134.525 Q158.237 136.655 157.427 138.576 Q156.64 140.474 154.533 143.067 Q153.955 143.738 150.853 146.956 Q147.751 150.15 142.103 155.914 Z" fill="#000000" fill-rule="evenodd" fill-opacity="1" /><polyline clip-path="url(#clip702)" style="stroke:#009af9; stroke-linecap:butt; stroke-linejoin:round; stroke-width:8; stroke-opacity:1; fill:none" points="
  255.507,373.332 297.927,205.072 340.347,420.525 382.767,628.754 425.187,270.629 467.607,326.026 510.028,340.661 552.448,310.344 594.868,336.709 637.288,476.3 
  679.708,396.758 722.128,777.393 764.548,347.9 806.968,514.899 849.388,339.762 891.808,321.222 934.228,320.935 976.648,504.682 1019.07,277.185 1061.49,389.895 
  1103.91,200.961 1146.33,303.945 1188.75,456.838 1231.17,221.458 1273.59,329.185 1316.01,504.473 1358.43,258.142 1400.85,411.143 1443.27,290.611 1485.69,394.568 
  1528.11,454.28 1570.53,415.723 1612.95,347.226 1655.37,462.011 1697.79,394.051 1740.21,521.787 1782.63,412.098 1825.05,395.766 1867.47,362.31 1909.89,486.925 
  1952.31,381.679 1994.73,516.278 2037.15,363.682 2079.57,307.967 2121.99,349.327 2164.41,466.033 2206.83,568.312 2249.25,68.5106 2291.67,431.002 
  "/>
<path clip-path="url(#clip700)" d="
M1959.98 175.971 L2280.81 175.971 L2280.81 72.2913 L1959.98 72.2913  Z
  " fill="#ffffff" fill-rule="evenodd" fill-opacity="1"/>
<polyline clip-path="url(#clip700)" style="stroke:#000000; stroke-linecap:butt; stroke-linejoin:round; stroke-width:4; stroke-opacity:1; fill:none" points="
  1959.98,175.971 2280.81,175.971 2280.81,72.2913 1959.98,72.2913 1959.98,175.971 
  "/>
<polyline clip-path="url(#clip700)" style="stroke:#009af9; stroke-linecap:butt; stroke-linejoin:round; stroke-width:4; stroke-opacity:1; fill:none" points="
  1983.96,124.131 2127.85,124.131 
  "/>
<path clip-path="url(#clip700)" d="M2176.48 115.485 L2167.11 128.101 L2176.97 141.411 L2171.95 141.411 L2164.4 131.226 L2156.85 141.411 L2151.83 141.411 L2161.9 127.847 L2152.69 115.485 L2157.71 115.485 L2164.58 124.722 L2171.46 115.485 L2176.48 115.485 Z" fill="#000000" fill-rule="evenodd" fill-opacity="1" /><path clip-path="url(#clip700)" d="M2182.99 115.485 L2187.25 115.485 L2187.25 141.411 L2182.99 141.411 L2182.99 115.485 M2182.99 105.393 L2187.25 105.393 L2187.25 110.786 L2182.99 110.786 L2182.99 105.393 Z" fill="#000000" fill-rule="evenodd" fill-opacity="1" /><path clip-path="url(#clip700)" d="M2215.86 149.282 L2215.86 152.592 L2191.23 152.592 L2191.23 149.282 L2215.86 149.282 Z" fill="#000000" fill-rule="evenodd" fill-opacity="1" /><path clip-path="url(#clip700)" d="M2224.08 108.124 L2224.08 115.485 L2232.85 115.485 L2232.85 118.796 L2224.08 118.796 L2224.08 132.87 Q2224.08 136.041 2224.93 136.944 Q2225.81 137.846 2228.47 137.846 L2232.85 137.846 L2232.85 141.411 L2228.47 141.411 Q2223.54 141.411 2221.67 139.583 Q2219.79 137.731 2219.79 132.87 L2219.79 118.796 L2216.67 118.796 L2216.67 115.485 L2219.79 115.485 L2219.79 108.124 L2224.08 108.124 Z" fill="#000000" fill-rule="evenodd" fill-opacity="1" /><path clip-path="url(#clip700)" d="
M194.422 1798.66 L2352.76 1798.66 L2352.76 1047.24 L194.422 1047.24  Z
  " fill="#ffffff" fill-rule="evenodd" fill-opacity="1"/>
<defs>
  <clipPath id="clip703">
    <rect x="194" y="1047" width="2159" height="752"/>
  </clipPath>
</defs>
<polyline clip-path="url(#clip703)" style="stroke:#000000; stroke-linecap:butt; stroke-linejoin:round; stroke-width:2; stroke-opacity:0.1; fill:none" points="
  594.868,1798.66 594.868,1047.24 
  "/>
<polyline clip-path="url(#clip703)" style="stroke:#000000; stroke-linecap:butt; stroke-linejoin:round; stroke-width:2; stroke-opacity:0.1; fill:none" points="
  1019.07,1798.66 1019.07,1047.24 
  "/>
<polyline clip-path="url(#clip703)" style="stroke:#000000; stroke-linecap:butt; stroke-linejoin:round; stroke-width:2; stroke-opacity:0.1; fill:none" points="
  1443.27,1798.66 1443.27,1047.24 
  "/>
<polyline clip-path="url(#clip703)" style="stroke:#000000; stroke-linecap:butt; stroke-linejoin:round; stroke-width:2; stroke-opacity:0.1; fill:none" points="
  1867.47,1798.66 1867.47,1047.24 
  "/>
<polyline clip-path="url(#clip703)" style="stroke:#000000; stroke-linecap:butt; stroke-linejoin:round; stroke-width:2; stroke-opacity:0.1; fill:none" points="
  2291.67,1798.66 2291.67,1047.24 
  "/>
<polyline clip-path="url(#clip700)" style="stroke:#000000; stroke-linecap:butt; stroke-linejoin:round; stroke-width:4; stroke-opacity:1; fill:none" points="
  194.422,1798.66 2352.76,1798.66 
  "/>
<polyline clip-path="url(#clip700)" style="stroke:#000000; stroke-linecap:butt; stroke-linejoin:round; stroke-width:4; stroke-opacity:1; fill:none" points="
  594.868,1798.66 594.868,1779.76 
  "/>
<polyline clip-path="url(#clip700)" style="stroke:#000000; stroke-linecap:butt; stroke-linejoin:round; stroke-width:4; stroke-opacity:1; fill:none" points="
  1019.07,1798.66 1019.07,1779.76 
  "/>
<polyline clip-path="url(#clip700)" style="stroke:#000000; stroke-linecap:butt; stroke-linejoin:round; stroke-width:4; stroke-opacity:1; fill:none" points="
  1443.27,1798.66 1443.27,1779.76 
  "/>
<polyline clip-path="url(#clip700)" style="stroke:#000000; stroke-linecap:butt; stroke-linejoin:round; stroke-width:4; stroke-opacity:1; fill:none" points="
  1867.47,1798.66 1867.47,1779.76 
  "/>
<polyline clip-path="url(#clip700)" style="stroke:#000000; stroke-linecap:butt; stroke-linejoin:round; stroke-width:4; stroke-opacity:1; fill:none" points="
  2291.67,1798.66 2291.67,1779.76 
  "/>
<path clip-path="url(#clip700)" d="M569.555 1855.4 L577.194 1855.4 L577.194 1829.03 L568.884 1830.7 L568.884 1826.44 L577.148 1824.77 L581.824 1824.77 L581.824 1855.4 L589.463 1855.4 L589.463 1859.33 L569.555 1859.33 L569.555 1855.4 Z" fill="#000000" fill-rule="evenodd" fill-opacity="1" /><path clip-path="url(#clip700)" d="M608.907 1827.85 Q605.296 1827.85 603.467 1831.42 Q601.662 1834.96 601.662 1842.09 Q601.662 1849.19 603.467 1852.76 Q605.296 1856.3 608.907 1856.3 Q612.541 1856.3 614.347 1852.76 Q616.175 1849.19 616.175 1842.09 Q616.175 1834.96 614.347 1831.42 Q612.541 1827.85 608.907 1827.85 M608.907 1824.15 Q614.717 1824.15 617.773 1828.75 Q620.851 1833.34 620.851 1842.09 Q620.851 1850.81 617.773 1855.42 Q614.717 1860 608.907 1860 Q603.097 1860 600.018 1855.42 Q596.963 1850.81 596.963 1842.09 Q596.963 1833.34 600.018 1828.75 Q603.097 1824.15 608.907 1824.15 Z" fill="#000000" fill-rule="evenodd" fill-opacity="1" /><path clip-path="url(#clip700)" d="M997.842 1855.4 L1014.16 1855.4 L1014.16 1859.33 L992.217 1859.33 L992.217 1855.4 Q994.879 1852.64 999.462 1848.01 Q1004.07 1843.36 1005.25 1842.02 Q1007.49 1839.49 1008.37 1837.76 Q1009.28 1836 1009.28 1834.31 Q1009.28 1831.55 1007.33 1829.82 Q1005.41 1828.08 1002.31 1828.08 Q1000.11 1828.08 997.657 1828.85 Q995.226 1829.61 992.448 1831.16 L992.448 1826.44 Q995.272 1825.3 997.726 1824.73 Q1000.18 1824.15 1002.22 1824.15 Q1007.59 1824.15 1010.78 1826.83 Q1013.98 1829.52 1013.98 1834.01 Q1013.98 1836.14 1013.17 1838.06 Q1012.38 1839.96 1010.27 1842.55 Q1009.69 1843.22 1006.59 1846.44 Q1003.49 1849.63 997.842 1855.4 Z" fill="#000000" fill-rule="evenodd" fill-opacity="1" /><path clip-path="url(#clip700)" d="M1033.98 1827.85 Q1030.36 1827.85 1028.54 1831.42 Q1026.73 1834.96 1026.73 1842.09 Q1026.73 1849.19 1028.54 1852.76 Q1030.36 1856.3 1033.98 1856.3 Q1037.61 1856.3 1039.42 1852.76 Q1041.24 1849.19 1041.24 1842.09 Q1041.24 1834.96 1039.42 1831.42 Q1037.61 1827.85 1033.98 1827.85 M1033.98 1824.15 Q1039.79 1824.15 1042.84 1828.75 Q1045.92 1833.34 1045.92 1842.09 Q1045.92 1850.81 1042.84 1855.42 Q1039.79 1860 1033.98 1860 Q1028.17 1860 1025.09 1855.42 Q1022.03 1850.81 1022.03 1842.09 Q1022.03 1833.34 1025.09 1828.75 Q1028.17 1824.15 1033.98 1824.15 Z" fill="#000000" fill-rule="evenodd" fill-opacity="1" /><path clip-path="url(#clip700)" d="M1432.11 1840.7 Q1435.47 1841.42 1437.34 1843.68 Q1439.24 1845.95 1439.24 1849.29 Q1439.24 1854.4 1435.72 1857.2 Q1432.2 1860 1425.72 1860 Q1423.55 1860 1421.23 1859.56 Q1418.94 1859.15 1416.49 1858.29 L1416.49 1853.78 Q1418.43 1854.91 1420.75 1855.49 Q1423.06 1856.07 1425.58 1856.07 Q1429.98 1856.07 1432.27 1854.33 Q1434.59 1852.6 1434.59 1849.29 Q1434.59 1846.23 1432.44 1844.52 Q1430.31 1842.78 1426.49 1842.78 L1422.46 1842.78 L1422.46 1838.94 L1426.67 1838.94 Q1430.12 1838.94 1431.95 1837.57 Q1433.78 1836.18 1433.78 1833.59 Q1433.78 1830.93 1431.88 1829.52 Q1430.01 1828.08 1426.49 1828.08 Q1424.57 1828.08 1422.37 1828.5 Q1420.17 1828.92 1417.53 1829.79 L1417.53 1825.63 Q1420.19 1824.89 1422.51 1824.52 Q1424.84 1824.15 1426.9 1824.15 Q1432.23 1824.15 1435.33 1826.58 Q1438.43 1828.98 1438.43 1833.11 Q1438.43 1835.98 1436.79 1837.97 Q1435.14 1839.93 1432.11 1840.7 Z" fill="#000000" fill-rule="evenodd" fill-opacity="1" /><path clip-path="url(#clip700)" d="M1458.11 1827.85 Q1454.5 1827.85 1452.67 1831.42 Q1450.86 1834.96 1450.86 1842.09 Q1450.86 1849.19 1452.67 1852.76 Q1454.5 1856.3 1458.11 1856.3 Q1461.74 1856.3 1463.55 1852.76 Q1465.38 1849.19 1465.38 1842.09 Q1465.38 1834.96 1463.55 1831.42 Q1461.74 1827.85 1458.11 1827.85 M1458.11 1824.15 Q1463.92 1824.15 1466.97 1828.75 Q1470.05 1833.34 1470.05 1842.09 Q1470.05 1850.81 1466.97 1855.42 Q1463.92 1860 1458.11 1860 Q1452.3 1860 1449.22 1855.42 Q1446.16 1850.81 1446.16 1842.09 Q1446.16 1833.34 1449.22 1828.75 Q1452.3 1824.15 1458.11 1824.15 Z" fill="#000000" fill-rule="evenodd" fill-opacity="1" /><path clip-path="url(#clip700)" d="M1855.64 1828.85 L1843.84 1847.29 L1855.64 1847.29 L1855.64 1828.85 M1854.41 1824.77 L1860.29 1824.77 L1860.29 1847.29 L1865.22 1847.29 L1865.22 1851.18 L1860.29 1851.18 L1860.29 1859.33 L1855.64 1859.33 L1855.64 1851.18 L1840.04 1851.18 L1840.04 1846.67 L1854.41 1824.77 Z" fill="#000000" fill-rule="evenodd" fill-opacity="1" /><path clip-path="url(#clip700)" d="M1882.96 1827.85 Q1879.35 1827.85 1877.52 1831.42 Q1875.71 1834.96 1875.71 1842.09 Q1875.71 1849.19 1877.52 1852.76 Q1879.35 1856.3 1882.96 1856.3 Q1886.59 1856.3 1888.4 1852.76 Q1890.22 1849.19 1890.22 1842.09 Q1890.22 1834.96 1888.4 1831.42 Q1886.59 1827.85 1882.96 1827.85 M1882.96 1824.15 Q1888.77 1824.15 1891.82 1828.75 Q1894.9 1833.34 1894.9 1842.09 Q1894.9 1850.81 1891.82 1855.42 Q1888.77 1860 1882.96 1860 Q1877.15 1860 1874.07 1855.42 Q1871.01 1850.81 1871.01 1842.09 Q1871.01 1833.34 1874.07 1828.75 Q1877.15 1824.15 1882.96 1824.15 Z" fill="#000000" fill-rule="evenodd" fill-opacity="1" /><path clip-path="url(#clip700)" d="M2266.37 1824.77 L2284.73 1824.77 L2284.73 1828.71 L2270.65 1828.71 L2270.65 1837.18 Q2271.67 1836.83 2272.69 1836.67 Q2273.71 1836.48 2274.73 1836.48 Q2280.51 1836.48 2283.89 1839.66 Q2287.27 1842.83 2287.27 1848.24 Q2287.27 1853.82 2283.8 1856.92 Q2280.33 1860 2274.01 1860 Q2271.83 1860 2269.56 1859.63 Q2267.32 1859.26 2264.91 1858.52 L2264.91 1853.82 Q2267 1854.96 2269.22 1855.51 Q2271.44 1856.07 2273.92 1856.07 Q2277.92 1856.07 2280.26 1853.96 Q2282.6 1851.86 2282.6 1848.24 Q2282.6 1844.63 2280.26 1842.53 Q2277.92 1840.42 2273.92 1840.42 Q2272.04 1840.42 2270.17 1840.84 Q2268.31 1841.25 2266.37 1842.13 L2266.37 1824.77 Z" fill="#000000" fill-rule="evenodd" fill-opacity="1" /><path clip-path="url(#clip700)" d="M2306.49 1827.85 Q2302.87 1827.85 2301.05 1831.42 Q2299.24 1834.96 2299.24 1842.09 Q2299.24 1849.19 2301.05 1852.76 Q2302.87 1856.3 2306.49 1856.3 Q2310.12 1856.3 2311.93 1852.76 Q2313.75 1849.19 2313.75 1842.09 Q2313.75 1834.96 2311.93 1831.42 Q2310.12 1827.85 2306.49 1827.85 M2306.49 1824.15 Q2312.3 1824.15 2315.35 1828.75 Q2318.43 1833.34 2318.43 1842.09 Q2318.43 1850.81 2315.35 1855.42 Q2312.3 1860 2306.49 1860 Q2300.68 1860 2297.6 1855.42 Q2294.54 1850.81 2294.54 1842.09 Q2294.54 1833.34 2297.6 1828.75 Q2300.68 1824.15 2306.49 1824.15 Z" fill="#000000" fill-rule="evenodd" fill-opacity="1" /><path clip-path="url(#clip700)" d="M1195.47 1896 L1235.67 1896 L1235.67 1901.41 L1218.8 1901.41 L1218.8 1943.52 L1212.33 1943.52 L1212.33 1901.41 L1195.47 1901.41 L1195.47 1896 Z" fill="#000000" fill-rule="evenodd" fill-opacity="1" /><path clip-path="url(#clip700)" d="M1239.61 1907.88 L1245.47 1907.88 L1245.47 1943.52 L1239.61 1943.52 L1239.61 1907.88 M1239.61 1894 L1245.47 1894 L1245.47 1901.41 L1239.61 1901.41 L1239.61 1894 Z" fill="#000000" fill-rule="evenodd" fill-opacity="1" /><path clip-path="url(#clip700)" d="M1285.48 1914.72 Q1287.67 1910.77 1290.73 1908.89 Q1293.78 1907.02 1297.92 1907.02 Q1303.49 1907.02 1306.52 1910.93 Q1309.54 1914.81 1309.54 1922.01 L1309.54 1943.52 L1303.65 1943.52 L1303.65 1922.2 Q1303.65 1917.07 1301.84 1914.59 Q1300.02 1912.11 1296.3 1912.11 Q1291.75 1912.11 1289.11 1915.13 Q1286.46 1918.16 1286.46 1923.38 L1286.46 1943.52 L1280.58 1943.52 L1280.58 1922.2 Q1280.58 1917.04 1278.76 1914.59 Q1276.95 1912.11 1273.16 1912.11 Q1268.67 1912.11 1266.03 1915.16 Q1263.39 1918.19 1263.39 1923.38 L1263.39 1943.52 L1257.5 1943.52 L1257.5 1907.88 L1263.39 1907.88 L1263.39 1913.41 Q1265.39 1910.14 1268.19 1908.58 Q1270.99 1907.02 1274.85 1907.02 Q1278.73 1907.02 1281.43 1908.99 Q1284.17 1910.96 1285.48 1914.72 Z" fill="#000000" fill-rule="evenodd" fill-opacity="1" /><path clip-path="url(#clip700)" d="M1351.71 1924.24 L1351.71 1927.1 L1324.79 1927.1 Q1325.17 1933.15 1328.41 1936.33 Q1331.69 1939.48 1337.52 1939.48 Q1340.89 1939.48 1344.04 1938.65 Q1347.22 1937.83 1350.34 1936.17 L1350.34 1941.71 Q1347.19 1943.05 1343.88 1943.75 Q1340.57 1944.45 1337.17 1944.45 Q1328.64 1944.45 1323.64 1939.48 Q1318.67 1934.52 1318.67 1926.05 Q1318.67 1917.3 1323.38 1912.17 Q1328.13 1907.02 1336.15 1907.02 Q1343.34 1907.02 1347.51 1911.66 Q1351.71 1916.28 1351.71 1924.24 M1345.86 1922.52 Q1345.79 1917.71 1343.15 1914.85 Q1340.54 1911.98 1336.21 1911.98 Q1331.31 1911.98 1328.35 1914.75 Q1325.42 1917.52 1324.98 1922.55 L1345.86 1922.52 Z" fill="#000000" fill-rule="evenodd" fill-opacity="1" /><polyline clip-path="url(#clip703)" style="stroke:#000000; stroke-linecap:butt; stroke-linejoin:round; stroke-width:2; stroke-opacity:0.1; fill:none" points="
  194.422,1723.41 2352.76,1723.41 
  "/>
<polyline clip-path="url(#clip703)" style="stroke:#000000; stroke-linecap:butt; stroke-linejoin:round; stroke-width:2; stroke-opacity:0.1; fill:none" points="
  194.422,1618.94 2352.76,1618.94 
  "/>
<polyline clip-path="url(#clip703)" style="stroke:#000000; stroke-linecap:butt; stroke-linejoin:round; stroke-width:2; stroke-opacity:0.1; fill:none" points="
  194.422,1514.48 2352.76,1514.48 
  "/>
<polyline clip-path="url(#clip703)" style="stroke:#000000; stroke-linecap:butt; stroke-linejoin:round; stroke-width:2; stroke-opacity:0.1; fill:none" points="
  194.422,1410.01 2352.76,1410.01 
  "/>
<polyline clip-path="url(#clip703)" style="stroke:#000000; stroke-linecap:butt; stroke-linejoin:round; stroke-width:2; stroke-opacity:0.1; fill:none" points="
  194.422,1305.54 2352.76,1305.54 
  "/>
<polyline clip-path="url(#clip703)" style="stroke:#000000; stroke-linecap:butt; stroke-linejoin:round; stroke-width:2; stroke-opacity:0.1; fill:none" points="
  194.422,1201.08 2352.76,1201.08 
  "/>
<polyline clip-path="url(#clip703)" style="stroke:#000000; stroke-linecap:butt; stroke-linejoin:round; stroke-width:2; stroke-opacity:0.1; fill:none" points="
  194.422,1096.61 2352.76,1096.61 
  "/>
<polyline clip-path="url(#clip700)" style="stroke:#000000; stroke-linecap:butt; stroke-linejoin:round; stroke-width:4; stroke-opacity:1; fill:none" points="
  194.422,1798.66 194.422,1047.24 
  "/>
<polyline clip-path="url(#clip700)" style="stroke:#000000; stroke-linecap:butt; stroke-linejoin:round; stroke-width:4; stroke-opacity:1; fill:none" points="
  194.422,1723.41 213.32,1723.41 
  "/>
<polyline clip-path="url(#clip700)" style="stroke:#000000; stroke-linecap:butt; stroke-linejoin:round; stroke-width:4; stroke-opacity:1; fill:none" points="
  194.422,1618.94 213.32,1618.94 
  "/>
<polyline clip-path="url(#clip700)" style="stroke:#000000; stroke-linecap:butt; stroke-linejoin:round; stroke-width:4; stroke-opacity:1; fill:none" points="
  194.422,1514.48 213.32,1514.48 
  "/>
<polyline clip-path="url(#clip700)" style="stroke:#000000; stroke-linecap:butt; stroke-linejoin:round; stroke-width:4; stroke-opacity:1; fill:none" points="
  194.422,1410.01 213.32,1410.01 
  "/>
<polyline clip-path="url(#clip700)" style="stroke:#000000; stroke-linecap:butt; stroke-linejoin:round; stroke-width:4; stroke-opacity:1; fill:none" points="
  194.422,1305.54 213.32,1305.54 
  "/>
<polyline clip-path="url(#clip700)" style="stroke:#000000; stroke-linecap:butt; stroke-linejoin:round; stroke-width:4; stroke-opacity:1; fill:none" points="
  194.422,1201.08 213.32,1201.08 
  "/>
<polyline clip-path="url(#clip700)" style="stroke:#000000; stroke-linecap:butt; stroke-linejoin:round; stroke-width:4; stroke-opacity:1; fill:none" points="
  194.422,1096.61 213.32,1096.61 
  "/>
<path clip-path="url(#clip700)" d="M52.4736 1723.86 L82.1494 1723.86 L82.1494 1727.79 L52.4736 1727.79 L52.4736 1723.86 Z" fill="#000000" fill-rule="evenodd" fill-opacity="1" /><path clip-path="url(#clip700)" d="M102.242 1709.21 Q98.6308 1709.21 96.8021 1712.77 Q94.9965 1716.31 94.9965 1723.44 Q94.9965 1730.55 96.8021 1734.11 Q98.6308 1737.66 102.242 1737.66 Q105.876 1737.66 107.682 1734.11 Q109.51 1730.55 109.51 1723.44 Q109.51 1716.31 107.682 1712.77 Q105.876 1709.21 102.242 1709.21 M102.242 1705.5 Q108.052 1705.5 111.108 1710.11 Q114.186 1714.69 114.186 1723.44 Q114.186 1732.17 111.108 1736.78 Q108.052 1741.36 102.242 1741.36 Q96.4317 1741.36 93.353 1736.78 Q90.2975 1732.17 90.2975 1723.44 Q90.2975 1714.69 93.353 1710.11 Q96.4317 1705.5 102.242 1705.5 Z" fill="#000000" fill-rule="evenodd" fill-opacity="1" /><path clip-path="url(#clip700)" d="M122.404 1734.81 L127.288 1734.81 L127.288 1740.69 L122.404 1740.69 L122.404 1734.81 Z" fill="#000000" fill-rule="evenodd" fill-opacity="1" /><path clip-path="url(#clip700)" d="M137.519 1706.13 L155.876 1706.13 L155.876 1710.06 L141.802 1710.06 L141.802 1718.54 Q142.82 1718.19 143.839 1718.03 Q144.857 1717.84 145.876 1717.84 Q151.663 1717.84 155.042 1721.01 Q158.422 1724.18 158.422 1729.6 Q158.422 1735.18 154.95 1738.28 Q151.478 1741.36 145.158 1741.36 Q142.982 1741.36 140.714 1740.99 Q138.469 1740.62 136.061 1739.88 L136.061 1735.18 Q138.144 1736.31 140.367 1736.87 Q142.589 1737.42 145.066 1737.42 Q149.07 1737.42 151.408 1735.32 Q153.746 1733.21 153.746 1729.6 Q153.746 1725.99 151.408 1723.88 Q149.07 1721.78 145.066 1721.78 Q143.191 1721.78 141.316 1722.19 Q139.464 1722.61 137.519 1723.49 L137.519 1706.13 Z" fill="#000000" fill-rule="evenodd" fill-opacity="1" /><path clip-path="url(#clip700)" d="M50.9921 1619.39 L80.6679 1619.39 L80.6679 1623.33 L50.9921 1623.33 L50.9921 1619.39 Z" fill="#000000" fill-rule="evenodd" fill-opacity="1" /><path clip-path="url(#clip700)" d="M100.76 1604.74 Q97.1493 1604.74 95.3206 1608.31 Q93.515 1611.85 93.515 1618.98 Q93.515 1626.08 95.3206 1629.65 Q97.1493 1633.19 100.76 1633.19 Q104.395 1633.19 106.2 1629.65 Q108.029 1626.08 108.029 1618.98 Q108.029 1611.85 106.2 1608.31 Q104.395 1604.74 100.76 1604.74 M100.76 1601.04 Q106.571 1601.04 109.626 1605.64 Q112.705 1610.23 112.705 1618.98 Q112.705 1627.7 109.626 1632.31 Q106.571 1636.89 100.76 1636.89 Q94.9502 1636.89 91.8715 1632.31 Q88.816 1627.7 88.816 1618.98 Q88.816 1610.23 91.8715 1605.64 Q94.9502 1601.04 100.76 1601.04 Z" fill="#000000" fill-rule="evenodd" fill-opacity="1" /><path clip-path="url(#clip700)" d="M120.922 1630.34 L125.807 1630.34 L125.807 1636.22 L120.922 1636.22 L120.922 1630.34 Z" fill="#000000" fill-rule="evenodd" fill-opacity="1" /><path clip-path="url(#clip700)" d="M148.839 1605.74 L137.033 1624.19 L148.839 1624.19 L148.839 1605.74 M147.612 1601.66 L153.492 1601.66 L153.492 1624.19 L158.422 1624.19 L158.422 1628.07 L153.492 1628.07 L153.492 1636.22 L148.839 1636.22 L148.839 1628.07 L133.237 1628.07 L133.237 1623.56 L147.612 1601.66 Z" fill="#000000" fill-rule="evenodd" fill-opacity="1" /><path clip-path="url(#clip700)" d="M52.1264 1514.93 L81.8021 1514.93 L81.8021 1518.86 L52.1264 1518.86 L52.1264 1514.93 Z" fill="#000000" fill-rule="evenodd" fill-opacity="1" /><path clip-path="url(#clip700)" d="M101.895 1500.27 Q98.2835 1500.27 96.4548 1503.84 Q94.6493 1507.38 94.6493 1514.51 Q94.6493 1521.62 96.4548 1525.18 Q98.2835 1528.72 101.895 1528.72 Q105.529 1528.72 107.334 1525.18 Q109.163 1521.62 109.163 1514.51 Q109.163 1507.38 107.334 1503.84 Q105.529 1500.27 101.895 1500.27 M101.895 1496.57 Q107.705 1496.57 110.76 1501.18 Q113.839 1505.76 113.839 1514.51 Q113.839 1523.24 110.76 1527.84 Q107.705 1532.43 101.895 1532.43 Q96.0845 1532.43 93.0058 1527.84 Q89.9503 1523.24 89.9503 1514.51 Q89.9503 1505.76 93.0058 1501.18 Q96.0845 1496.57 101.895 1496.57 Z" fill="#000000" fill-rule="evenodd" fill-opacity="1" /><path clip-path="url(#clip700)" d="M122.057 1525.88 L126.941 1525.88 L126.941 1531.76 L122.057 1531.76 L122.057 1525.88 Z" fill="#000000" fill-rule="evenodd" fill-opacity="1" /><path clip-path="url(#clip700)" d="M151.293 1513.12 Q154.649 1513.84 156.524 1516.11 Q158.422 1518.38 158.422 1521.71 Q158.422 1526.83 154.904 1529.63 Q151.385 1532.43 144.904 1532.43 Q142.728 1532.43 140.413 1531.99 Q138.121 1531.57 135.668 1530.71 L135.668 1526.2 Q137.612 1527.33 139.927 1527.91 Q142.242 1528.49 144.765 1528.49 Q149.163 1528.49 151.455 1526.76 Q153.769 1525.02 153.769 1521.71 Q153.769 1518.65 151.617 1516.94 Q149.487 1515.21 145.668 1515.21 L141.64 1515.21 L141.64 1511.36 L145.853 1511.36 Q149.302 1511.36 151.13 1510 Q152.959 1508.61 152.959 1506.02 Q152.959 1503.35 151.061 1501.94 Q149.186 1500.51 145.668 1500.51 Q143.746 1500.51 141.547 1500.92 Q139.348 1501.34 136.709 1502.22 L136.709 1498.05 Q139.371 1497.31 141.686 1496.94 Q144.024 1496.57 146.084 1496.57 Q151.408 1496.57 154.51 1499 Q157.612 1501.41 157.612 1505.53 Q157.612 1508.4 155.968 1510.39 Q154.325 1512.36 151.293 1513.12 Z" fill="#000000" fill-rule="evenodd" fill-opacity="1" /><path clip-path="url(#clip700)" d="M53.0754 1410.46 L82.7512 1410.46 L82.7512 1414.4 L53.0754 1414.4 L53.0754 1410.46 Z" fill="#000000" fill-rule="evenodd" fill-opacity="1" /><path clip-path="url(#clip700)" d="M102.844 1395.81 Q99.2326 1395.81 97.4039 1399.37 Q95.5984 1402.92 95.5984 1410.04 Q95.5984 1417.15 97.4039 1420.72 Q99.2326 1424.26 102.844 1424.26 Q106.478 1424.26 108.283 1420.72 Q110.112 1417.15 110.112 1410.04 Q110.112 1402.92 108.283 1399.37 Q106.478 1395.81 102.844 1395.81 M102.844 1392.11 Q108.654 1392.11 111.709 1396.71 Q114.788 1401.29 114.788 1410.04 Q114.788 1418.77 111.709 1423.38 Q108.654 1427.96 102.844 1427.96 Q97.0335 1427.96 93.9549 1423.38 Q90.8993 1418.77 90.8993 1410.04 Q90.8993 1401.29 93.9549 1396.71 Q97.0335 1392.11 102.844 1392.11 Z" fill="#000000" fill-rule="evenodd" fill-opacity="1" /><path clip-path="url(#clip700)" d="M123.006 1421.41 L127.89 1421.41 L127.89 1427.29 L123.006 1427.29 L123.006 1421.41 Z" fill="#000000" fill-rule="evenodd" fill-opacity="1" /><path clip-path="url(#clip700)" d="M142.103 1423.35 L158.422 1423.35 L158.422 1427.29 L136.478 1427.29 L136.478 1423.35 Q139.14 1420.6 143.723 1415.97 Q148.33 1411.32 149.51 1409.98 Q151.755 1407.45 152.635 1405.72 Q153.538 1403.96 153.538 1402.27 Q153.538 1399.51 151.593 1397.78 Q149.672 1396.04 146.57 1396.04 Q144.371 1396.04 141.918 1396.8 Q139.487 1397.57 136.709 1399.12 L136.709 1394.4 Q139.533 1393.26 141.987 1392.68 Q144.441 1392.11 146.478 1392.11 Q151.848 1392.11 155.042 1394.79 Q158.237 1397.48 158.237 1401.97 Q158.237 1404.1 157.427 1406.02 Q156.64 1407.92 154.533 1410.51 Q153.955 1411.18 150.853 1414.4 Q147.751 1417.59 142.103 1423.35 Z" fill="#000000" fill-rule="evenodd" fill-opacity="1" /><path clip-path="url(#clip700)" d="M52.7051 1306 L82.3808 1306 L82.3808 1309.93 L52.7051 1309.93 L52.7051 1306 Z" fill="#000000" fill-rule="evenodd" fill-opacity="1" /><path clip-path="url(#clip700)" d="M102.473 1291.34 Q98.8622 1291.34 97.0335 1294.91 Q95.228 1298.45 95.228 1305.58 Q95.228 1312.69 97.0335 1316.25 Q98.8622 1319.79 102.473 1319.79 Q106.108 1319.79 107.913 1316.25 Q109.742 1312.69 109.742 1305.58 Q109.742 1298.45 107.913 1294.91 Q106.108 1291.34 102.473 1291.34 M102.473 1287.64 Q108.283 1287.64 111.339 1292.25 Q114.418 1296.83 114.418 1305.58 Q114.418 1314.31 111.339 1318.91 Q108.283 1323.5 102.473 1323.5 Q96.6632 1323.5 93.5845 1318.91 Q90.529 1314.31 90.529 1305.58 Q90.529 1296.83 93.5845 1292.25 Q96.6632 1287.64 102.473 1287.64 Z" fill="#000000" fill-rule="evenodd" fill-opacity="1" /><path clip-path="url(#clip700)" d="M122.635 1316.94 L127.519 1316.94 L127.519 1322.82 L122.635 1322.82 L122.635 1316.94 Z" fill="#000000" fill-rule="evenodd" fill-opacity="1" /><path clip-path="url(#clip700)" d="M138.515 1318.89 L146.154 1318.89 L146.154 1292.52 L137.844 1294.19 L137.844 1289.93 L146.107 1288.26 L150.783 1288.26 L150.783 1318.89 L158.422 1318.89 L158.422 1322.82 L138.515 1322.82 L138.515 1318.89 Z" fill="#000000" fill-rule="evenodd" fill-opacity="1" /><path clip-path="url(#clip700)" d="M101.246 1186.88 Q97.6354 1186.88 95.8067 1190.44 Q94.0012 1193.98 94.0012 1201.11 Q94.0012 1208.22 95.8067 1211.78 Q97.6354 1215.33 101.246 1215.33 Q104.881 1215.33 106.686 1211.78 Q108.515 1208.22 108.515 1201.11 Q108.515 1193.98 106.686 1190.44 Q104.881 1186.88 101.246 1186.88 M101.246 1183.17 Q107.057 1183.17 110.112 1187.78 Q113.191 1192.36 113.191 1201.11 Q113.191 1209.84 110.112 1214.45 Q107.057 1219.03 101.246 1219.03 Q95.4363 1219.03 92.3576 1214.45 Q89.3021 1209.84 89.3021 1201.11 Q89.3021 1192.36 92.3576 1187.78 Q95.4363 1183.17 101.246 1183.17 Z" fill="#000000" fill-rule="evenodd" fill-opacity="1" /><path clip-path="url(#clip700)" d="M121.408 1212.48 L126.293 1212.48 L126.293 1218.36 L121.408 1218.36 L121.408 1212.48 Z" fill="#000000" fill-rule="evenodd" fill-opacity="1" /><path clip-path="url(#clip700)" d="M146.478 1186.88 Q142.867 1186.88 141.038 1190.44 Q139.232 1193.98 139.232 1201.11 Q139.232 1208.22 141.038 1211.78 Q142.867 1215.33 146.478 1215.33 Q150.112 1215.33 151.918 1211.78 Q153.746 1208.22 153.746 1201.11 Q153.746 1193.98 151.918 1190.44 Q150.112 1186.88 146.478 1186.88 M146.478 1183.17 Q152.288 1183.17 155.343 1187.78 Q158.422 1192.36 158.422 1201.11 Q158.422 1209.84 155.343 1214.45 Q152.288 1219.03 146.478 1219.03 Q140.668 1219.03 137.589 1214.45 Q134.533 1209.84 134.533 1201.11 Q134.533 1192.36 137.589 1187.78 Q140.668 1183.17 146.478 1183.17 Z" fill="#000000" fill-rule="evenodd" fill-opacity="1" /><path clip-path="url(#clip700)" d="M102.473 1082.41 Q98.8622 1082.41 97.0335 1085.98 Q95.228 1089.52 95.228 1096.65 Q95.228 1103.75 97.0335 1107.32 Q98.8622 1110.86 102.473 1110.86 Q106.108 1110.86 107.913 1107.32 Q109.742 1103.75 109.742 1096.65 Q109.742 1089.52 107.913 1085.98 Q106.108 1082.41 102.473 1082.41 M102.473 1078.71 Q108.283 1078.71 111.339 1083.31 Q114.418 1087.9 114.418 1096.65 Q114.418 1105.37 111.339 1109.98 Q108.283 1114.56 102.473 1114.56 Q96.6632 1114.56 93.5845 1109.98 Q90.529 1105.37 90.529 1096.65 Q90.529 1087.9 93.5845 1083.31 Q96.6632 1078.71 102.473 1078.71 Z" fill="#000000" fill-rule="evenodd" fill-opacity="1" /><path clip-path="url(#clip700)" d="M122.635 1108.01 L127.519 1108.01 L127.519 1113.89 L122.635 1113.89 L122.635 1108.01 Z" fill="#000000" fill-rule="evenodd" fill-opacity="1" /><path clip-path="url(#clip700)" d="M138.515 1109.96 L146.154 1109.96 L146.154 1083.59 L137.844 1085.26 L137.844 1081 L146.107 1079.33 L150.783 1079.33 L150.783 1109.96 L158.422 1109.96 L158.422 1113.89 L138.515 1113.89 L138.515 1109.96 Z" fill="#000000" fill-rule="evenodd" fill-opacity="1" /><polyline clip-path="url(#clip703)" style="stroke:#009af9; stroke-linecap:butt; stroke-linejoin:round; stroke-width:8; stroke-opacity:1; fill:none" points="
  255.507,1199.47 297.927,1068.51 340.347,1105.25 382.767,1296.6 425.187,1214.36 467.607,1176.21 510.028,1149.97 552.448,1100.85 594.868,1072.61 637.288,1150.61 
  679.708,1166.53 722.128,1464.89 764.548,1439.95 806.968,1541.85 849.388,1511.42 891.808,1467.98 934.228,1425.43 976.648,1523.08 1019.07,1446.51 1061.49,1457.6 
  1103.91,1323.32 1146.33,1270.81 1188.75,1335.39 1231.17,1217.66 1273.59,1184.89 1316.01,1285.26 1358.43,1195.31 1400.85,1224.05 1443.27,1159.68 1485.69,1175.84 
  1528.11,1236.51 1570.53,1266.67 1612.95,1244.4 1655.37,1309.77 1697.79,1322.74 1740.21,1432.03 1782.63,1457.48 1825.05,1470.84 1867.47,1459.17 1909.89,1542.32 
  1952.31,1545.09 1994.73,1649.73 2037.15,1638.3 2079.57,1585.16 2121.99,1564.82 2164.41,1633.46 2206.83,1777.39 2249.25,1537.99 2291.67,1581.96 
  "/>
<path clip-path="url(#clip700)" d="
M1963.77 1175.97 L2280.81 1175.97 L2280.81 1072.29 L1963.77 1072.29  Z
  " fill="#ffffff" fill-rule="evenodd" fill-opacity="1"/>
<polyline clip-path="url(#clip700)" style="stroke:#000000; stroke-linecap:butt; stroke-linejoin:round; stroke-width:4; stroke-opacity:1; fill:none" points="
  1963.77,1175.97 2280.81,1175.97 2280.81,1072.29 1963.77,1072.29 1963.77,1175.97 
  "/>
<polyline clip-path="url(#clip700)" style="stroke:#009af9; stroke-linecap:butt; stroke-linejoin:round; stroke-width:4; stroke-opacity:1; fill:none" points="
  1987.76,1124.13 2131.65,1124.13 
  "/>
<path clip-path="url(#clip700)" d="M2160.3 1110.69 L2160.3 1123.68 L2166.18 1123.68 Q2169.45 1123.68 2171.23 1121.99 Q2173.01 1120.3 2173.01 1117.18 Q2173.01 1114.07 2171.23 1112.38 Q2169.45 1110.69 2166.18 1110.69 L2160.3 1110.69 M2155.63 1106.85 L2166.18 1106.85 Q2171.99 1106.85 2174.96 1109.49 Q2177.94 1112.11 2177.94 1117.18 Q2177.94 1122.29 2174.96 1124.91 Q2171.99 1127.52 2166.18 1127.52 L2160.3 1127.52 L2160.3 1141.41 L2155.63 1141.41 L2155.63 1106.85 Z" fill="#000000" fill-rule="evenodd" fill-opacity="1" /><path clip-path="url(#clip700)" d="M2182.99 1115.49 L2187.25 1115.49 L2187.25 1141.41 L2182.99 1141.41 L2182.99 1115.49 M2182.99 1105.39 L2187.25 1105.39 L2187.25 1110.79 L2182.99 1110.79 L2182.99 1105.39 Z" fill="#000000" fill-rule="evenodd" fill-opacity="1" /><path clip-path="url(#clip700)" d="M2215.86 1149.28 L2215.86 1152.59 L2191.23 1152.59 L2191.23 1149.28 L2215.86 1149.28 Z" fill="#000000" fill-rule="evenodd" fill-opacity="1" /><path clip-path="url(#clip700)" d="M2224.08 1108.12 L2224.08 1115.49 L2232.85 1115.49 L2232.85 1118.8 L2224.08 1118.8 L2224.08 1132.87 Q2224.08 1136.04 2224.93 1136.94 Q2225.81 1137.85 2228.47 1137.85 L2232.85 1137.85 L2232.85 1141.41 L2228.47 1141.41 Q2223.54 1141.41 2221.67 1139.58 Q2219.79 1137.73 2219.79 1132.87 L2219.79 1118.8 L2216.67 1118.8 L2216.67 1115.49 L2219.79 1115.49 L2219.79 1108.12 L2224.08 1108.12 Z" fill="#000000" fill-rule="evenodd" fill-opacity="1" /></svg>
