<?xml version="1.0" encoding="utf-8"?>
<svg xmlns="http://www.w3.org/2000/svg" xmlns:xlink="http://www.w3.org/1999/xlink" width="600" height="400" viewBox="0 0 2400 1600">
<defs>
  <clipPath id="clip490">
    <rect x="0" y="0" width="2400" height="1600"/>
  </clipPath>
</defs>
<path clip-path="url(#clip490)" d="
M0 1600 L2400 1600 L2400 0 L0 0  Z
  " fill="#ffffff" fill-rule="evenodd" fill-opacity="1"/>
<defs>
  <clipPath id="clip491">
    <rect x="480" y="0" width="1681" height="1600"/>
  </clipPath>
</defs>
<path clip-path="url(#clip490)" d="
M155.765 1423.18 L2352.76 1423.18 L2352.76 47.2441 L155.765 47.2441  Z
  " fill="#ffffff" fill-rule="evenodd" fill-opacity="1"/>
<defs>
  <clipPath id="clip492">
    <rect x="155" y="47" width="2198" height="1377"/>
  </clipPath>
</defs>
<polyline clip-path="url(#clip492)" style="stroke:#000000; stroke-linecap:butt; stroke-linejoin:round; stroke-width:2; stroke-opacity:0.1; fill:none" points="
  155.765,1423.18 155.765,47.2441 
  "/>
<polyline clip-path="url(#clip492)" style="stroke:#000000; stroke-linecap:butt; stroke-linejoin:round; stroke-width:2; stroke-opacity:0.1; fill:none" points="
  595.163,1423.18 595.163,47.2441 
  "/>
<polyline clip-path="url(#clip492)" style="stroke:#000000; stroke-linecap:butt; stroke-linejoin:round; stroke-width:2; stroke-opacity:0.1; fill:none" points="
  1034.56,1423.18 1034.56,47.2441 
  "/>
<polyline clip-path="url(#clip492)" style="stroke:#000000; stroke-linecap:butt; stroke-linejoin:round; stroke-width:2; stroke-opacity:0.1; fill:none" points="
  1473.96,1423.18 1473.96,47.2441 
  "/>
<polyline clip-path="url(#clip492)" style="stroke:#000000; stroke-linecap:butt; stroke-linejoin:round; stroke-width:2; stroke-opacity:0.1; fill:none" points="
  1913.36,1423.18 1913.36,47.2441 
  "/>
<polyline clip-path="url(#clip492)" style="stroke:#000000; stroke-linecap:butt; stroke-linejoin:round; stroke-width:2; stroke-opacity:0.1; fill:none" points="
  2352.76,1423.18 2352.76,47.2441 
  "/>
<polyline clip-path="url(#clip490)" style="stroke:#000000; stroke-linecap:butt; stroke-linejoin:round; stroke-width:4; stroke-opacity:1; fill:none" points="
  155.765,1423.18 2352.76,1423.18 
  "/>
<polyline clip-path="url(#clip490)" style="stroke:#000000; stroke-linecap:butt; stroke-linejoin:round; stroke-width:4; stroke-opacity:1; fill:none" points="
  155.765,1423.18 155.765,1404.28 
  "/>
<polyline clip-path="url(#clip490)" style="stroke:#000000; stroke-linecap:butt; stroke-linejoin:round; stroke-width:4; stroke-opacity:1; fill:none" points="
  595.163,1423.18 595.163,1404.28 
  "/>
<polyline clip-path="url(#clip490)" style="stroke:#000000; stroke-linecap:butt; stroke-linejoin:round; stroke-width:4; stroke-opacity:1; fill:none" points="
  1034.56,1423.18 1034.56,1404.28 
  "/>
<polyline clip-path="url(#clip490)" style="stroke:#000000; stroke-linecap:butt; stroke-linejoin:round; stroke-width:4; stroke-opacity:1; fill:none" points="
  1473.96,1423.18 1473.96,1404.28 
  "/>
<polyline clip-path="url(#clip490)" style="stroke:#000000; stroke-linecap:butt; stroke-linejoin:round; stroke-width:4; stroke-opacity:1; fill:none" points="
  1913.36,1423.18 1913.36,1404.28 
  "/>
<polyline clip-path="url(#clip490)" style="stroke:#000000; stroke-linecap:butt; stroke-linejoin:round; stroke-width:4; stroke-opacity:1; fill:none" points="
  2352.76,1423.18 2352.76,1404.28 
  "/>
<path clip-path="url(#clip490)" d="M155.765 1452.37 Q152.154 1452.37 150.325 1455.94 Q148.52 1459.48 148.52 1466.61 Q148.52 1473.71 150.325 1477.28 Q152.154 1480.82 155.765 1480.82 Q159.399 1480.82 161.205 1477.28 Q163.033 1473.71 163.033 1466.61 Q163.033 1459.48 161.205 1455.94 Q159.399 1452.37 155.765 1452.37 M155.765 1448.67 Q161.575 1448.67 164.631 1453.27 Q167.709 1457.86 167.709 1466.61 Q167.709 1475.33 164.631 1479.94 Q161.575 1484.52 155.765 1484.52 Q149.955 1484.52 146.876 1479.94 Q143.821 1475.33 143.821 1466.61 Q143.821 1457.86 146.876 1453.27 Q149.955 1448.67 155.765 1448.67 Z" fill="#000000" fill-rule="evenodd" fill-opacity="1" /><path clip-path="url(#clip490)" d="M573.936 1479.92 L590.256 1479.92 L590.256 1483.85 L568.311 1483.85 L568.311 1479.92 Q570.973 1477.16 575.557 1472.53 Q580.163 1467.88 581.344 1466.54 Q583.589 1464.01 584.469 1462.28 Q585.371 1460.52 585.371 1458.83 Q585.371 1456.07 583.427 1454.34 Q581.506 1452.6 578.404 1452.6 Q576.205 1452.6 573.751 1453.37 Q571.321 1454.13 568.543 1455.68 L568.543 1450.96 Q571.367 1449.82 573.821 1449.25 Q576.274 1448.67 578.311 1448.67 Q583.682 1448.67 586.876 1451.35 Q590.071 1454.04 590.071 1458.53 Q590.071 1460.66 589.26 1462.58 Q588.473 1464.48 586.367 1467.07 Q585.788 1467.74 582.686 1470.96 Q579.584 1474.15 573.936 1479.92 Z" fill="#000000" fill-rule="evenodd" fill-opacity="1" /><path clip-path="url(#clip490)" d="M610.07 1452.37 Q606.459 1452.37 604.631 1455.94 Q602.825 1459.48 602.825 1466.61 Q602.825 1473.71 604.631 1477.28 Q606.459 1480.82 610.07 1480.82 Q613.705 1480.82 615.51 1477.28 Q617.339 1473.71 617.339 1466.61 Q617.339 1459.48 615.51 1455.94 Q613.705 1452.37 610.07 1452.37 M610.07 1448.67 Q615.881 1448.67 618.936 1453.27 Q622.015 1457.86 622.015 1466.61 Q622.015 1475.33 618.936 1479.94 Q615.881 1484.52 610.07 1484.52 Q604.26 1484.52 601.182 1479.94 Q598.126 1475.33 598.126 1466.61 Q598.126 1457.86 601.182 1453.27 Q604.26 1448.67 610.07 1448.67 Z" fill="#000000" fill-rule="evenodd" fill-opacity="1" /><path clip-path="url(#clip490)" d="M1022.73 1453.37 L1010.93 1471.81 L1022.73 1471.81 L1022.73 1453.37 M1021.51 1449.29 L1027.39 1449.29 L1027.39 1471.81 L1032.32 1471.81 L1032.32 1475.7 L1027.39 1475.7 L1027.39 1483.85 L1022.73 1483.85 L1022.73 1475.7 L1007.13 1475.7 L1007.13 1471.19 L1021.51 1449.29 Z" fill="#000000" fill-rule="evenodd" fill-opacity="1" /><path clip-path="url(#clip490)" d="M1050.05 1452.37 Q1046.44 1452.37 1044.61 1455.94 Q1042.8 1459.48 1042.8 1466.61 Q1042.8 1473.71 1044.61 1477.28 Q1046.44 1480.82 1050.05 1480.82 Q1053.68 1480.82 1055.49 1477.28 Q1057.32 1473.71 1057.32 1466.61 Q1057.32 1459.48 1055.49 1455.94 Q1053.68 1452.37 1050.05 1452.37 M1050.05 1448.67 Q1055.86 1448.67 1058.91 1453.27 Q1061.99 1457.86 1061.99 1466.61 Q1061.99 1475.33 1058.91 1479.94 Q1055.86 1484.52 1050.05 1484.52 Q1044.24 1484.52 1041.16 1479.94 Q1038.1 1475.33 1038.1 1466.61 Q1038.1 1457.86 1041.16 1453.27 Q1044.24 1448.67 1050.05 1448.67 Z" fill="#000000" fill-rule="evenodd" fill-opacity="1" /><path clip-path="url(#clip490)" d="M1459.36 1464.71 Q1456.22 1464.71 1454.36 1466.86 Q1452.54 1469.01 1452.54 1472.76 Q1452.54 1476.49 1454.36 1478.67 Q1456.22 1480.82 1459.36 1480.82 Q1462.51 1480.82 1464.34 1478.67 Q1466.19 1476.49 1466.19 1472.76 Q1466.19 1469.01 1464.34 1466.86 Q1462.51 1464.71 1459.36 1464.71 M1468.65 1450.06 L1468.65 1454.31 Q1466.89 1453.48 1465.08 1453.04 Q1463.3 1452.6 1461.54 1452.6 Q1456.91 1452.6 1454.46 1455.73 Q1452.03 1458.85 1451.68 1465.17 Q1453.05 1463.16 1455.11 1462.09 Q1457.17 1461 1459.64 1461 Q1464.85 1461 1467.86 1464.18 Q1470.89 1467.32 1470.89 1472.76 Q1470.89 1478.09 1467.74 1481.31 Q1464.6 1484.52 1459.36 1484.52 Q1453.37 1484.52 1450.2 1479.94 Q1447.03 1475.33 1447.03 1466.61 Q1447.03 1458.41 1450.92 1453.55 Q1454.8 1448.67 1461.36 1448.67 Q1463.11 1448.67 1464.9 1449.01 Q1466.7 1449.36 1468.65 1450.06 Z" fill="#000000" fill-rule="evenodd" fill-opacity="1" /><path clip-path="url(#clip490)" d="M1488.95 1452.37 Q1485.34 1452.37 1483.51 1455.94 Q1481.7 1459.48 1481.7 1466.61 Q1481.7 1473.71 1483.51 1477.28 Q1485.34 1480.82 1488.95 1480.82 Q1492.58 1480.82 1494.39 1477.28 Q1496.22 1473.71 1496.22 1466.61 Q1496.22 1459.48 1494.39 1455.94 Q1492.58 1452.37 1488.95 1452.37 M1488.95 1448.67 Q1494.76 1448.67 1497.81 1453.27 Q1500.89 1457.86 1500.89 1466.61 Q1500.89 1475.33 1497.81 1479.94 Q1494.76 1484.52 1488.95 1484.52 Q1483.14 1484.52 1480.06 1479.94 Q1477 1475.33 1477 1466.61 Q1477 1457.86 1480.06 1453.27 Q1483.14 1448.67 1488.95 1448.67 Z" fill="#000000" fill-rule="evenodd" fill-opacity="1" /><path clip-path="url(#clip490)" d="M1898.23 1467.44 Q1894.9 1467.44 1892.98 1469.22 Q1891.08 1471 1891.08 1474.13 Q1891.08 1477.25 1892.98 1479.04 Q1894.9 1480.82 1898.23 1480.82 Q1901.56 1480.82 1903.49 1479.04 Q1905.41 1477.23 1905.41 1474.13 Q1905.41 1471 1903.49 1469.22 Q1901.59 1467.44 1898.23 1467.44 M1893.55 1465.45 Q1890.55 1464.71 1888.86 1462.65 Q1887.19 1460.59 1887.19 1457.63 Q1887.19 1453.48 1890.13 1451.07 Q1893.09 1448.67 1898.23 1448.67 Q1903.39 1448.67 1906.33 1451.07 Q1909.27 1453.48 1909.27 1457.63 Q1909.27 1460.59 1907.58 1462.65 Q1905.92 1464.71 1902.93 1465.45 Q1906.31 1466.24 1908.18 1468.53 Q1910.08 1470.82 1910.08 1474.13 Q1910.08 1479.15 1907 1481.84 Q1903.95 1484.52 1898.23 1484.52 Q1892.51 1484.52 1889.43 1481.84 Q1886.38 1479.15 1886.38 1474.13 Q1886.38 1470.82 1888.28 1468.53 Q1890.17 1466.24 1893.55 1465.45 M1891.84 1458.06 Q1891.84 1460.75 1893.51 1462.25 Q1895.2 1463.76 1898.23 1463.76 Q1901.24 1463.76 1902.93 1462.25 Q1904.64 1460.75 1904.64 1458.06 Q1904.64 1455.38 1902.93 1453.88 Q1901.24 1452.37 1898.23 1452.37 Q1895.2 1452.37 1893.51 1453.88 Q1891.84 1455.38 1891.84 1458.06 Z" fill="#000000" fill-rule="evenodd" fill-opacity="1" /><path clip-path="url(#clip490)" d="M1928.39 1452.37 Q1924.78 1452.37 1922.95 1455.94 Q1921.15 1459.48 1921.15 1466.61 Q1921.15 1473.71 1922.95 1477.28 Q1924.78 1480.82 1928.39 1480.82 Q1932.03 1480.82 1933.83 1477.28 Q1935.66 1473.71 1935.66 1466.61 Q1935.66 1459.48 1933.83 1455.94 Q1932.03 1452.37 1928.39 1452.37 M1928.39 1448.67 Q1934.2 1448.67 1937.26 1453.27 Q1940.34 1457.86 1940.34 1466.61 Q1940.34 1475.33 1937.26 1479.94 Q1934.2 1484.52 1928.39 1484.52 Q1922.58 1484.52 1919.5 1479.94 Q1916.45 1475.33 1916.45 1466.61 Q1916.45 1457.86 1919.5 1453.27 Q1922.58 1448.67 1928.39 1448.67 Z" fill="#000000" fill-rule="evenodd" fill-opacity="1" /><path clip-path="url(#clip490)" d="M2312.36 1479.92 L2320 1479.92 L2320 1453.55 L2311.69 1455.22 L2311.69 1450.96 L2319.96 1449.29 L2324.63 1449.29 L2324.63 1479.92 L2332.27 1479.92 L2332.27 1483.85 L2312.36 1483.85 L2312.36 1479.92 Z" fill="#000000" fill-rule="evenodd" fill-opacity="1" /><path clip-path="url(#clip490)" d="M2351.71 1452.37 Q2348.1 1452.37 2346.27 1455.94 Q2344.47 1459.48 2344.47 1466.61 Q2344.47 1473.71 2346.27 1477.28 Q2348.1 1480.82 2351.71 1480.82 Q2355.35 1480.82 2357.15 1477.28 Q2358.98 1473.71 2358.98 1466.61 Q2358.98 1459.48 2357.15 1455.94 Q2355.35 1452.37 2351.71 1452.37 M2351.71 1448.67 Q2357.52 1448.67 2360.58 1453.27 Q2363.66 1457.86 2363.66 1466.61 Q2363.66 1475.33 2360.58 1479.94 Q2357.52 1484.52 2351.71 1484.52 Q2345.9 1484.52 2342.83 1479.94 Q2339.77 1475.33 2339.77 1466.61 Q2339.77 1457.86 2342.83 1453.27 Q2345.9 1448.67 2351.71 1448.67 Z" fill="#000000" fill-rule="evenodd" fill-opacity="1" /><path clip-path="url(#clip490)" d="M2381.88 1452.37 Q2378.27 1452.37 2376.44 1455.94 Q2374.63 1459.48 2374.63 1466.61 Q2374.63 1473.71 2376.44 1477.28 Q2378.27 1480.82 2381.88 1480.82 Q2385.51 1480.82 2387.32 1477.28 Q2389.14 1473.71 2389.14 1466.61 Q2389.14 1459.48 2387.32 1455.94 Q2385.51 1452.37 2381.88 1452.37 M2381.88 1448.67 Q2387.69 1448.67 2390.74 1453.27 Q2393.82 1457.86 2393.82 1466.61 Q2393.82 1475.33 2390.74 1479.94 Q2387.69 1484.52 2381.88 1484.52 Q2376.07 1484.52 2372.99 1479.94 Q2369.93 1475.33 2369.93 1466.61 Q2369.93 1457.86 2372.99 1453.27 Q2376.07 1448.67 2381.88 1448.67 Z" fill="#000000" fill-rule="evenodd" fill-opacity="1" /><path clip-path="url(#clip490)" d="M1176.14 1520.52 L1216.34 1520.52 L1216.34 1525.93 L1199.47 1525.93 L1199.47 1568.04 L1193.01 1568.04 L1193.01 1525.93 L1176.14 1525.93 L1176.14 1520.52 Z" fill="#000000" fill-rule="evenodd" fill-opacity="1" /><path clip-path="url(#clip490)" d="M1220.28 1532.4 L1226.14 1532.4 L1226.14 1568.04 L1220.28 1568.04 L1220.28 1532.4 M1220.28 1518.52 L1226.14 1518.52 L1226.14 1525.93 L1220.28 1525.93 L1220.28 1518.52 Z" fill="#000000" fill-rule="evenodd" fill-opacity="1" /><path clip-path="url(#clip490)" d="M1266.15 1539.24 Q1268.34 1535.29 1271.4 1533.41 Q1274.46 1531.54 1278.59 1531.54 Q1284.16 1531.54 1287.19 1535.45 Q1290.21 1539.33 1290.21 1546.53 L1290.21 1568.04 L1284.32 1568.04 L1284.32 1546.72 Q1284.32 1541.59 1282.51 1539.11 Q1280.69 1536.63 1276.97 1536.63 Q1272.42 1536.63 1269.78 1539.65 Q1267.14 1542.68 1267.14 1547.9 L1267.14 1568.04 L1261.25 1568.04 L1261.25 1546.72 Q1261.25 1541.56 1259.43 1539.11 Q1257.62 1536.63 1253.83 1536.63 Q1249.34 1536.63 1246.7 1539.68 Q1244.06 1542.71 1244.06 1547.9 L1244.06 1568.04 L1238.17 1568.04 L1238.17 1532.4 L1244.06 1532.4 L1244.06 1537.93 Q1246.06 1534.66 1248.87 1533.1 Q1251.67 1531.54 1255.52 1531.54 Q1259.4 1531.54 1262.11 1533.51 Q1264.84 1535.48 1266.15 1539.24 Z" fill="#000000" fill-rule="evenodd" fill-opacity="1" /><path clip-path="url(#clip490)" d="M1332.38 1548.76 L1332.38 1551.62 L1305.46 1551.62 Q1305.84 1557.67 1309.09 1560.85 Q1312.36 1564 1318.19 1564 Q1321.56 1564 1324.71 1563.17 Q1327.9 1562.35 1331.01 1560.69 L1331.01 1566.23 Q1327.86 1567.57 1324.55 1568.27 Q1321.24 1568.97 1317.84 1568.97 Q1309.31 1568.97 1304.31 1564 Q1299.35 1559.04 1299.35 1550.57 Q1299.35 1541.82 1304.06 1536.69 Q1308.8 1531.54 1316.82 1531.54 Q1324.01 1531.54 1328.18 1536.18 Q1332.38 1540.8 1332.38 1548.76 M1326.53 1547.04 Q1326.46 1542.23 1323.82 1539.37 Q1321.21 1536.5 1316.88 1536.5 Q1311.98 1536.5 1309.02 1539.27 Q1306.09 1542.04 1305.65 1547.07 L1326.53 1547.04 Z" fill="#000000" fill-rule="evenodd" fill-opacity="1" /><polyline clip-path="url(#clip492)" style="stroke:#000000; stroke-linecap:butt; stroke-linejoin:round; stroke-width:2; stroke-opacity:0.1; fill:none" points="
  155.765,1272.78 2352.76,1272.78 
  "/>
<polyline clip-path="url(#clip492)" style="stroke:#000000; stroke-linecap:butt; stroke-linejoin:round; stroke-width:2; stroke-opacity:0.1; fill:none" points="
  155.765,998.159 2352.76,998.159 
  "/>
<polyline clip-path="url(#clip492)" style="stroke:#000000; stroke-linecap:butt; stroke-linejoin:round; stroke-width:2; stroke-opacity:0.1; fill:none" points="
  155.765,723.541 2352.76,723.541 
  "/>
<polyline clip-path="url(#clip492)" style="stroke:#000000; stroke-linecap:butt; stroke-linejoin:round; stroke-width:2; stroke-opacity:0.1; fill:none" points="
  155.765,448.923 2352.76,448.923 
  "/>
<polyline clip-path="url(#clip492)" style="stroke:#000000; stroke-linecap:butt; stroke-linejoin:round; stroke-width:2; stroke-opacity:0.1; fill:none" points="
  155.765,174.305 2352.76,174.305 
  "/>
<polyline clip-path="url(#clip490)" style="stroke:#000000; stroke-linecap:butt; stroke-linejoin:round; stroke-width:4; stroke-opacity:1; fill:none" points="
  155.765,1423.18 155.765,47.2441 
  "/>
<polyline clip-path="url(#clip490)" style="stroke:#000000; stroke-linecap:butt; stroke-linejoin:round; stroke-width:4; stroke-opacity:1; fill:none" points="
  155.765,1272.78 174.663,1272.78 
  "/>
<polyline clip-path="url(#clip490)" style="stroke:#000000; stroke-linecap:butt; stroke-linejoin:round; stroke-width:4; stroke-opacity:1; fill:none" points="
  155.765,998.159 174.663,998.159 
  "/>
<polyline clip-path="url(#clip490)" style="stroke:#000000; stroke-linecap:butt; stroke-linejoin:round; stroke-width:4; stroke-opacity:1; fill:none" points="
  155.765,723.541 174.663,723.541 
  "/>
<polyline clip-path="url(#clip490)" style="stroke:#000000; stroke-linecap:butt; stroke-linejoin:round; stroke-width:4; stroke-opacity:1; fill:none" points="
  155.765,448.923 174.663,448.923 
  "/>
<polyline clip-path="url(#clip490)" style="stroke:#000000; stroke-linecap:butt; stroke-linejoin:round; stroke-width:4; stroke-opacity:1; fill:none" points="
  155.765,174.305 174.663,174.305 
  "/>
<path clip-path="url(#clip490)" d="M53.3995 1286.12 L61.0384 1286.12 L61.0384 1259.76 L52.7282 1261.42 L52.7282 1257.16 L60.9921 1255.5 L65.668 1255.5 L65.668 1286.12 L73.3068 1286.12 L73.3068 1290.06 L53.3995 1290.06 L53.3995 1286.12 Z" fill="#000000" fill-rule="evenodd" fill-opacity="1" /><path clip-path="url(#clip490)" d="M82.7512 1284.18 L87.6354 1284.18 L87.6354 1290.06 L82.7512 1290.06 L82.7512 1284.18 Z" fill="#000000" fill-rule="evenodd" fill-opacity="1" /><path clip-path="url(#clip490)" d="M107.821 1258.58 Q104.209 1258.58 102.381 1262.14 Q100.575 1265.68 100.575 1272.81 Q100.575 1279.92 102.381 1283.48 Q104.209 1287.03 107.821 1287.03 Q111.455 1287.03 113.26 1283.48 Q115.089 1279.92 115.089 1272.81 Q115.089 1265.68 113.26 1262.14 Q111.455 1258.58 107.821 1258.58 M107.821 1254.87 Q113.631 1254.87 116.686 1259.48 Q119.765 1264.06 119.765 1272.81 Q119.765 1281.54 116.686 1286.15 Q113.631 1290.73 107.821 1290.73 Q102.01 1290.73 98.9317 1286.15 Q95.8761 1281.54 95.8761 1272.81 Q95.8761 1264.06 98.9317 1259.48 Q102.01 1254.87 107.821 1254.87 Z" fill="#000000" fill-rule="evenodd" fill-opacity="1" /><path clip-path="url(#clip490)" d="M54.3949 1011.5 L62.0337 1011.5 L62.0337 985.139 L53.7236 986.805 L53.7236 982.546 L61.9874 980.879 L66.6633 980.879 L66.6633 1011.5 L74.3022 1011.5 L74.3022 1015.44 L54.3949 1015.44 L54.3949 1011.5 Z" fill="#000000" fill-rule="evenodd" fill-opacity="1" /><path clip-path="url(#clip490)" d="M83.7466 1009.56 L88.6308 1009.56 L88.6308 1015.44 L83.7466 1015.44 L83.7466 1009.56 Z" fill="#000000" fill-rule="evenodd" fill-opacity="1" /><path clip-path="url(#clip490)" d="M98.8622 980.879 L117.219 980.879 L117.219 984.815 L103.145 984.815 L103.145 993.287 Q104.163 992.939 105.182 992.777 Q106.2 992.592 107.219 992.592 Q113.006 992.592 116.385 995.764 Q119.765 998.935 119.765 1004.35 Q119.765 1009.93 116.293 1013.03 Q112.82 1016.11 106.501 1016.11 Q104.325 1016.11 102.057 1015.74 Q99.8113 1015.37 97.4039 1014.63 L97.4039 1009.93 Q99.4872 1011.06 101.709 1011.62 Q103.932 1012.18 106.408 1012.18 Q110.413 1012.18 112.751 1010.07 Q115.089 1007.96 115.089 1004.35 Q115.089 1000.74 112.751 998.634 Q110.413 996.527 106.408 996.527 Q104.534 996.527 102.659 996.944 Q100.807 997.361 98.8622 998.24 L98.8622 980.879 Z" fill="#000000" fill-rule="evenodd" fill-opacity="1" /><path clip-path="url(#clip490)" d="M56.6171 736.886 L72.9365 736.886 L72.9365 740.821 L50.9921 740.821 L50.9921 736.886 Q53.6541 734.132 58.2375 729.502 Q62.8439 724.849 64.0245 723.507 Q66.2698 720.983 67.1494 719.247 Q68.0522 717.488 68.0522 715.798 Q68.0522 713.044 66.1078 711.308 Q64.1865 709.571 61.0847 709.571 Q58.8856 709.571 56.4319 710.335 Q54.0014 711.099 51.2236 712.65 L51.2236 707.928 Q54.0477 706.794 56.5014 706.215 Q58.955 705.636 60.9921 705.636 Q66.3624 705.636 69.5568 708.321 Q72.7513 711.007 72.7513 715.497 Q72.7513 717.627 71.9411 719.548 Q71.1541 721.446 69.0476 724.039 Q68.4689 724.71 65.367 727.928 Q62.2652 731.122 56.6171 736.886 Z" fill="#000000" fill-rule="evenodd" fill-opacity="1" /><path clip-path="url(#clip490)" d="M82.7512 734.942 L87.6354 734.942 L87.6354 740.821 L82.7512 740.821 L82.7512 734.942 Z" fill="#000000" fill-rule="evenodd" fill-opacity="1" /><path clip-path="url(#clip490)" d="M107.821 709.34 Q104.209 709.34 102.381 712.905 Q100.575 716.446 100.575 723.576 Q100.575 730.682 102.381 734.247 Q104.209 737.789 107.821 737.789 Q111.455 737.789 113.26 734.247 Q115.089 730.682 115.089 723.576 Q115.089 716.446 113.26 712.905 Q111.455 709.34 107.821 709.34 M107.821 705.636 Q113.631 705.636 116.686 710.243 Q119.765 714.826 119.765 723.576 Q119.765 732.303 116.686 736.909 Q113.631 741.493 107.821 741.493 Q102.01 741.493 98.9317 736.909 Q95.8761 732.303 95.8761 723.576 Q95.8761 714.826 98.9317 710.243 Q102.01 705.636 107.821 705.636 Z" fill="#000000" fill-rule="evenodd" fill-opacity="1" /><path clip-path="url(#clip490)" d="M57.6125 462.268 L73.9318 462.268 L73.9318 466.203 L51.9875 466.203 L51.9875 462.268 Q54.6495 459.513 59.2328 454.884 Q63.8393 450.231 65.0198 448.889 Q67.2652 446.365 68.1448 444.629 Q69.0476 442.87 69.0476 441.18 Q69.0476 438.426 67.1032 436.689 Q65.1819 434.953 62.08 434.953 Q59.881 434.953 57.4273 435.717 Q54.9967 436.481 52.219 438.032 L52.219 433.31 Q55.043 432.176 57.4967 431.597 Q59.9504 431.018 61.9874 431.018 Q67.3578 431.018 70.5522 433.703 Q73.7466 436.389 73.7466 440.879 Q73.7466 443.009 72.9365 444.93 Q72.1494 446.828 70.0429 449.421 Q69.4642 450.092 66.3624 453.31 Q63.2606 456.504 57.6125 462.268 Z" fill="#000000" fill-rule="evenodd" fill-opacity="1" /><path clip-path="url(#clip490)" d="M83.7466 460.324 L88.6308 460.324 L88.6308 466.203 L83.7466 466.203 L83.7466 460.324 Z" fill="#000000" fill-rule="evenodd" fill-opacity="1" /><path clip-path="url(#clip490)" d="M98.8622 431.643 L117.219 431.643 L117.219 435.578 L103.145 435.578 L103.145 444.051 Q104.163 443.703 105.182 443.541 Q106.2 443.356 107.219 443.356 Q113.006 443.356 116.385 446.527 Q119.765 449.699 119.765 455.115 Q119.765 460.694 116.293 463.796 Q112.82 466.875 106.501 466.875 Q104.325 466.875 102.057 466.504 Q99.8113 466.134 97.4039 465.393 L97.4039 460.694 Q99.4872 461.828 101.709 462.384 Q103.932 462.939 106.408 462.939 Q110.413 462.939 112.751 460.833 Q115.089 458.726 115.089 455.115 Q115.089 451.504 112.751 449.398 Q110.413 447.291 106.408 447.291 Q104.534 447.291 102.659 447.708 Q100.807 448.125 98.8622 449.004 L98.8622 431.643 Z" fill="#000000" fill-rule="evenodd" fill-opacity="1" /><path clip-path="url(#clip490)" d="M66.7559 172.951 Q70.1124 173.669 71.9874 175.937 Q73.8855 178.206 73.8855 181.539 Q73.8855 186.655 70.367 189.456 Q66.8485 192.256 60.3671 192.256 Q58.1912 192.256 55.8764 191.817 Q53.5847 191.4 51.131 190.543 L51.131 186.03 Q53.0754 187.164 55.3903 187.743 Q57.7051 188.321 60.2282 188.321 Q64.6263 188.321 66.918 186.585 Q69.2328 184.849 69.2328 181.539 Q69.2328 178.483 67.08 176.77 Q64.9504 175.034 61.131 175.034 L57.1032 175.034 L57.1032 171.192 L61.3161 171.192 Q64.7652 171.192 66.5939 169.826 Q68.4226 168.437 68.4226 165.845 Q68.4226 163.183 66.5245 161.771 Q64.6495 160.335 61.131 160.335 Q59.2097 160.335 57.0106 160.752 Q54.8115 161.169 52.1727 162.048 L52.1727 157.882 Q54.8347 157.141 57.1495 156.771 Q59.4875 156.4 61.5476 156.4 Q66.8717 156.4 69.9735 158.831 Q73.0753 161.238 73.0753 165.358 Q73.0753 168.229 71.4318 170.22 Q69.7883 172.187 66.7559 172.951 Z" fill="#000000" fill-rule="evenodd" fill-opacity="1" /><path clip-path="url(#clip490)" d="M82.7512 185.706 L87.6354 185.706 L87.6354 191.585 L82.7512 191.585 L82.7512 185.706 Z" fill="#000000" fill-rule="evenodd" fill-opacity="1" /><path clip-path="url(#clip490)" d="M107.821 160.104 Q104.209 160.104 102.381 163.669 Q100.575 167.21 100.575 174.34 Q100.575 181.446 102.381 185.011 Q104.209 188.553 107.821 188.553 Q111.455 188.553 113.26 185.011 Q115.089 181.446 115.089 174.34 Q115.089 167.21 113.26 163.669 Q111.455 160.104 107.821 160.104 M107.821 156.4 Q113.631 156.4 116.686 161.007 Q119.765 165.59 119.765 174.34 Q119.765 183.067 116.686 187.673 Q113.631 192.256 107.821 192.256 Q102.01 192.256 98.9317 187.673 Q95.8761 183.067 95.8761 174.34 Q95.8761 165.59 98.9317 161.007 Q102.01 156.4 107.821 156.4 Z" fill="#000000" fill-rule="evenodd" fill-opacity="1" /><polyline clip-path="url(#clip492)" style="stroke:#000000; stroke-linecap:butt; stroke-linejoin:round; stroke-width:8; stroke-opacity:0.8; fill:none" points="
  177.735,658.167 199.705,524.268 221.675,489.403 243.645,446.634 265.614,419.682 287.584,368.612 309.554,222.268 331.524,235.575 353.494,184.036 375.464,190.563 
  397.434,193.014 419.404,228.998 441.374,253.336 463.344,221.443 485.314,253.943 507.283,324.313 529.253,427.532 551.223,527.845 573.193,608.206 595.163,696.582 
  617.133,794.767 639.103,813.183 661.073,937.122 683.043,1038.96 705.013,1047.8 726.983,1043.31 748.952,1278.46 770.922,1384.24 792.892,1209.95 814.862,1142.32 
  836.832,1320 858.802,1242.15 880.772,1245.17 902.742,1071.06 924.712,1204.66 946.682,1086.08 968.652,1116.28 990.621,992.108 1012.59,875.418 1034.56,731.04 
  1056.53,750.487 1078.5,621.454 1100.47,532.73 1122.44,357.268 1144.41,347.791 1166.38,320.958 1188.35,267.049 1210.32,132.818 1232.29,362.427 1254.26,255.126 
  1276.23,164.02 1298.2,201.172 1320.17,145.954 1342.14,192.599 1364.11,306.767 1386.08,433.121 1408.05,417.537 1430.02,536.676 1451.99,632.685 1473.96,723.63 
  1495.93,739.184 1517.9,912.026 1539.87,951.786 1561.84,1027.2 1583.81,1043.53 1605.78,1177.45 1627.75,1142.88 1649.72,1294.75 1671.69,1251.33 1693.66,1119.82 
  1715.63,1326.15 1737.6,1269.64 1759.57,1176.52 1781.54,1340.95 1803.51,1127.84 1825.48,1099.66 1847.45,847.341 1869.42,833.322 1891.39,810.026 1913.36,670.394 
  1935.33,729.865 1957.3,475.837 1979.27,465.237 2001.24,463.546 2023.21,274.133 2045.18,246.543 2067.15,261.204 2089.12,146.546 2111.09,222.961 2133.06,149.142 
  2155.03,86.1857 2177,161.812 2198.97,215.656 2220.94,217.48 2242.91,348.959 2264.88,503.36 2286.85,380.166 2308.82,563.891 2330.79,645.753 2352.76,773.137 
  
  "/>
<circle clip-path="url(#clip492)" cx="177.735" cy="658.167" r="7" fill="#000000" fill-rule="evenodd" fill-opacity="0.8" stroke="none"/>
<circle clip-path="url(#clip492)" cx="199.705" cy="524.268" r="7" fill="#000000" fill-rule="evenodd" fill-opacity="0.8" stroke="none"/>
<circle clip-path="url(#clip492)" cx="221.675" cy="489.403" r="7" fill="#000000" fill-rule="evenodd" fill-opacity="0.8" stroke="none"/>
<circle clip-path="url(#clip492)" cx="243.645" cy="446.634" r="7" fill="#000000" fill-rule="evenodd" fill-opacity="0.8" stroke="none"/>
<circle clip-path="url(#clip492)" cx="265.614" cy="419.682" r="7" fill="#000000" fill-rule="evenodd" fill-opacity="0.8" stroke="none"/>
<circle clip-path="url(#clip492)" cx="287.584" cy="368.612" r="7" fill="#000000" fill-rule="evenodd" fill-opacity="0.8" stroke="none"/>
<circle clip-path="url(#clip492)" cx="309.554" cy="222.268" r="7" fill="#000000" fill-rule="evenodd" fill-opacity="0.8" stroke="none"/>
<circle clip-path="url(#clip492)" cx="331.524" cy="235.575" r="7" fill="#000000" fill-rule="evenodd" fill-opacity="0.8" stroke="none"/>
<circle clip-path="url(#clip492)" cx="353.494" cy="184.036" r="7" fill="#000000" fill-rule="evenodd" fill-opacity="0.8" stroke="none"/>
<circle clip-path="url(#clip492)" cx="375.464" cy="190.563" r="7" fill="#000000" fill-rule="evenodd" fill-opacity="0.8" stroke="none"/>
<circle clip-path="url(#clip492)" cx="397.434" cy="193.014" r="7" fill="#000000" fill-rule="evenodd" fill-opacity="0.8" stroke="none"/>
<circle clip-path="url(#clip492)" cx="419.404" cy="228.998" r="7" fill="#000000" fill-rule="evenodd" fill-opacity="0.8" stroke="none"/>
<circle clip-path="url(#clip492)" cx="441.374" cy="253.336" r="7" fill="#000000" fill-rule="evenodd" fill-opacity="0.8" stroke="none"/>
<circle clip-path="url(#clip492)" cx="463.344" cy="221.443" r="7" fill="#000000" fill-rule="evenodd" fill-opacity="0.8" stroke="none"/>
<circle clip-path="url(#clip492)" cx="485.314" cy="253.943" r="7" fill="#000000" fill-rule="evenodd" fill-opacity="0.8" stroke="none"/>
<circle clip-path="url(#clip492)" cx="507.283" cy="324.313" r="7" fill="#000000" fill-rule="evenodd" fill-opacity="0.8" stroke="none"/>
<circle clip-path="url(#clip492)" cx="529.253" cy="427.532" r="7" fill="#000000" fill-rule="evenodd" fill-opacity="0.8" stroke="none"/>
<circle clip-path="url(#clip492)" cx="551.223" cy="527.845" r="7" fill="#000000" fill-rule="evenodd" fill-opacity="0.8" stroke="none"/>
<circle clip-path="url(#clip492)" cx="573.193" cy="608.206" r="7" fill="#000000" fill-rule="evenodd" fill-opacity="0.8" stroke="none"/>
<circle clip-path="url(#clip492)" cx="595.163" cy="696.582" r="7" fill="#000000" fill-rule="evenodd" fill-opacity="0.8" stroke="none"/>
<circle clip-path="url(#clip492)" cx="617.133" cy="794.767" r="7" fill="#000000" fill-rule="evenodd" fill-opacity="0.8" stroke="none"/>
<circle clip-path="url(#clip492)" cx="639.103" cy="813.183" r="7" fill="#000000" fill-rule="evenodd" fill-opacity="0.8" stroke="none"/>
<circle clip-path="url(#clip492)" cx="661.073" cy="937.122" r="7" fill="#000000" fill-rule="evenodd" fill-opacity="0.8" stroke="none"/>
<circle clip-path="url(#clip492)" cx="683.043" cy="1038.96" r="7" fill="#000000" fill-rule="evenodd" fill-opacity="0.8" stroke="none"/>
<circle clip-path="url(#clip492)" cx="705.013" cy="1047.8" r="7" fill="#000000" fill-rule="evenodd" fill-opacity="0.8" stroke="none"/>
<circle clip-path="url(#clip492)" cx="726.983" cy="1043.31" r="7" fill="#000000" fill-rule="evenodd" fill-opacity="0.8" stroke="none"/>
<circle clip-path="url(#clip492)" cx="748.952" cy="1278.46" r="7" fill="#000000" fill-rule="evenodd" fill-opacity="0.8" stroke="none"/>
<circle clip-path="url(#clip492)" cx="770.922" cy="1384.24" r="7" fill="#000000" fill-rule="evenodd" fill-opacity="0.8" stroke="none"/>
<circle clip-path="url(#clip492)" cx="792.892" cy="1209.95" r="7" fill="#000000" fill-rule="evenodd" fill-opacity="0.8" stroke="none"/>
<circle clip-path="url(#clip492)" cx="814.862" cy="1142.32" r="7" fill="#000000" fill-rule="evenodd" fill-opacity="0.8" stroke="none"/>
<circle clip-path="url(#clip492)" cx="836.832" cy="1320" r="7" fill="#000000" fill-rule="evenodd" fill-opacity="0.8" stroke="none"/>
<circle clip-path="url(#clip492)" cx="858.802" cy="1242.15" r="7" fill="#000000" fill-rule="evenodd" fill-opacity="0.8" stroke="none"/>
<circle clip-path="url(#clip492)" cx="880.772" cy="1245.17" r="7" fill="#000000" fill-rule="evenodd" fill-opacity="0.8" stroke="none"/>
<circle clip-path="url(#clip492)" cx="902.742" cy="1071.06" r="7" fill="#000000" fill-rule="evenodd" fill-opacity="0.8" stroke="none"/>
<circle clip-path="url(#clip492)" cx="924.712" cy="1204.66" r="7" fill="#000000" fill-rule="evenodd" fill-opacity="0.8" stroke="none"/>
<circle clip-path="url(#clip492)" cx="946.682" cy="1086.08" r="7" fill="#000000" fill-rule="evenodd" fill-opacity="0.8" stroke="none"/>
<circle clip-path="url(#clip492)" cx="968.652" cy="1116.28" r="7" fill="#000000" fill-rule="evenodd" fill-opacity="0.8" stroke="none"/>
<circle clip-path="url(#clip492)" cx="990.621" cy="992.108" r="7" fill="#000000" fill-rule="evenodd" fill-opacity="0.8" stroke="none"/>
<circle clip-path="url(#clip492)" cx="1012.59" cy="875.418" r="7" fill="#000000" fill-rule="evenodd" fill-opacity="0.8" stroke="none"/>
<circle clip-path="url(#clip492)" cx="1034.56" cy="731.04" r="7" fill="#000000" fill-rule="evenodd" fill-opacity="0.8" stroke="none"/>
<circle clip-path="url(#clip492)" cx="1056.53" cy="750.487" r="7" fill="#000000" fill-rule="evenodd" fill-opacity="0.8" stroke="none"/>
<circle clip-path="url(#clip492)" cx="1078.5" cy="621.454" r="7" fill="#000000" fill-rule="evenodd" fill-opacity="0.8" stroke="none"/>
<circle clip-path="url(#clip492)" cx="1100.47" cy="532.73" r="7" fill="#000000" fill-rule="evenodd" fill-opacity="0.8" stroke="none"/>
<circle clip-path="url(#clip492)" cx="1122.44" cy="357.268" r="7" fill="#000000" fill-rule="evenodd" fill-opacity="0.8" stroke="none"/>
<circle clip-path="url(#clip492)" cx="1144.41" cy="347.791" r="7" fill="#000000" fill-rule="evenodd" fill-opacity="0.8" stroke="none"/>
<circle clip-path="url(#clip492)" cx="1166.38" cy="320.958" r="7" fill="#000000" fill-rule="evenodd" fill-opacity="0.8" stroke="none"/>
<circle clip-path="url(#clip492)" cx="1188.35" cy="267.049" r="7" fill="#000000" fill-rule="evenodd" fill-opacity="0.8" stroke="none"/>
<circle clip-path="url(#clip492)" cx="1210.32" cy="132.818" r="7" fill="#000000" fill-rule="evenodd" fill-opacity="0.8" stroke="none"/>
<circle clip-path="url(#clip492)" cx="1232.29" cy="362.427" r="7" fill="#000000" fill-rule="evenodd" fill-opacity="0.8" stroke="none"/>
<circle clip-path="url(#clip492)" cx="1254.26" cy="255.126" r="7" fill="#000000" fill-rule="evenodd" fill-opacity="0.8" stroke="none"/>
<circle clip-path="url(#clip492)" cx="1276.23" cy="164.02" r="7" fill="#000000" fill-rule="evenodd" fill-opacity="0.8" stroke="none"/>
<circle clip-path="url(#clip492)" cx="1298.2" cy="201.172" r="7" fill="#000000" fill-rule="evenodd" fill-opacity="0.8" stroke="none"/>
<circle clip-path="url(#clip492)" cx="1320.17" cy="145.954" r="7" fill="#000000" fill-rule="evenodd" fill-opacity="0.8" stroke="none"/>
<circle clip-path="url(#clip492)" cx="1342.14" cy="192.599" r="7" fill="#000000" fill-rule="evenodd" fill-opacity="0.8" stroke="none"/>
<circle clip-path="url(#clip492)" cx="1364.11" cy="306.767" r="7" fill="#000000" fill-rule="evenodd" fill-opacity="0.8" stroke="none"/>
<circle clip-path="url(#clip492)" cx="1386.08" cy="433.121" r="7" fill="#000000" fill-rule="evenodd" fill-opacity="0.8" stroke="none"/>
<circle clip-path="url(#clip492)" cx="1408.05" cy="417.537" r="7" fill="#000000" fill-rule="evenodd" fill-opacity="0.8" stroke="none"/>
<circle clip-path="url(#clip492)" cx="1430.02" cy="536.676" r="7" fill="#000000" fill-rule="evenodd" fill-opacity="0.8" stroke="none"/>
<circle clip-path="url(#clip492)" cx="1451.99" cy="632.685" r="7" fill="#000000" fill-rule="evenodd" fill-opacity="0.8" stroke="none"/>
<circle clip-path="url(#clip492)" cx="1473.96" cy="723.63" r="7" fill="#000000" fill-rule="evenodd" fill-opacity="0.8" stroke="none"/>
<circle clip-path="url(#clip492)" cx="1495.93" cy="739.184" r="7" fill="#000000" fill-rule="evenodd" fill-opacity="0.8" stroke="none"/>
<circle clip-path="url(#clip492)" cx="1517.9" cy="912.026" r="7" fill="#000000" fill-rule="evenodd" fill-opacity="0.8" stroke="none"/>
<circle clip-path="url(#clip492)" cx="1539.87" cy="951.786" r="7" fill="#000000" fill-rule="evenodd" fill-opacity="0.8" stroke="none"/>
<circle clip-path="url(#clip492)" cx="1561.84" cy="1027.2" r="7" fill="#000000" fill-rule="evenodd" fill-opacity="0.8" stroke="none"/>
<circle clip-path="url(#clip492)" cx="1583.81" cy="1043.53" r="7" fill="#000000" fill-rule="evenodd" fill-opacity="0.8" stroke="none"/>
<circle clip-path="url(#clip492)" cx="1605.78" cy="1177.45" r="7" fill="#000000" fill-rule="evenodd" fill-opacity="0.8" stroke="none"/>
<circle clip-path="url(#clip492)" cx="1627.75" cy="1142.88" r="7" fill="#000000" fill-rule="evenodd" fill-opacity="0.8" stroke="none"/>
<circle clip-path="url(#clip492)" cx="1649.72" cy="1294.75" r="7" fill="#000000" fill-rule="evenodd" fill-opacity="0.8" stroke="none"/>
<circle clip-path="url(#clip492)" cx="1671.69" cy="1251.33" r="7" fill="#000000" fill-rule="evenodd" fill-opacity="0.8" stroke="none"/>
<circle clip-path="url(#clip492)" cx="1693.66" cy="1119.82" r="7" fill="#000000" fill-rule="evenodd" fill-opacity="0.8" stroke="none"/>
<circle clip-path="url(#clip492)" cx="1715.63" cy="1326.15" r="7" fill="#000000" fill-rule="evenodd" fill-opacity="0.8" stroke="none"/>
<circle clip-path="url(#clip492)" cx="1737.6" cy="1269.64" r="7" fill="#000000" fill-rule="evenodd" fill-opacity="0.8" stroke="none"/>
<circle clip-path="url(#clip492)" cx="1759.57" cy="1176.52" r="7" fill="#000000" fill-rule="evenodd" fill-opacity="0.8" stroke="none"/>
<circle clip-path="url(#clip492)" cx="1781.54" cy="1340.95" r="7" fill="#000000" fill-rule="evenodd" fill-opacity="0.8" stroke="none"/>
<circle clip-path="url(#clip492)" cx="1803.51" cy="1127.84" r="7" fill="#000000" fill-rule="evenodd" fill-opacity="0.8" stroke="none"/>
<circle clip-path="url(#clip492)" cx="1825.48" cy="1099.66" r="7" fill="#000000" fill-rule="evenodd" fill-opacity="0.8" stroke="none"/>
<circle clip-path="url(#clip492)" cx="1847.45" cy="847.341" r="7" fill="#000000" fill-rule="evenodd" fill-opacity="0.8" stroke="none"/>
<circle clip-path="url(#clip492)" cx="1869.42" cy="833.322" r="7" fill="#000000" fill-rule="evenodd" fill-opacity="0.8" stroke="none"/>
<circle clip-path="url(#clip492)" cx="1891.39" cy="810.026" r="7" fill="#000000" fill-rule="evenodd" fill-opacity="0.8" stroke="none"/>
<circle clip-path="url(#clip492)" cx="1913.36" cy="670.394" r="7" fill="#000000" fill-rule="evenodd" fill-opacity="0.8" stroke="none"/>
<circle clip-path="url(#clip492)" cx="1935.33" cy="729.865" r="7" fill="#000000" fill-rule="evenodd" fill-opacity="0.8" stroke="none"/>
<circle clip-path="url(#clip492)" cx="1957.3" cy="475.837" r="7" fill="#000000" fill-rule="evenodd" fill-opacity="0.8" stroke="none"/>
<circle clip-path="url(#clip492)" cx="1979.27" cy="465.237" r="7" fill="#000000" fill-rule="evenodd" fill-opacity="0.8" stroke="none"/>
<circle clip-path="url(#clip492)" cx="2001.24" cy="463.546" r="7" fill="#000000" fill-rule="evenodd" fill-opacity="0.8" stroke="none"/>
<circle clip-path="url(#clip492)" cx="2023.21" cy="274.133" r="7" fill="#000000" fill-rule="evenodd" fill-opacity="0.8" stroke="none"/>
<circle clip-path="url(#clip492)" cx="2045.18" cy="246.543" r="7" fill="#000000" fill-rule="evenodd" fill-opacity="0.8" stroke="none"/>
<circle clip-path="url(#clip492)" cx="2067.15" cy="261.204" r="7" fill="#000000" fill-rule="evenodd" fill-opacity="0.8" stroke="none"/>
<circle clip-path="url(#clip492)" cx="2089.12" cy="146.546" r="7" fill="#000000" fill-rule="evenodd" fill-opacity="0.8" stroke="none"/>
<circle clip-path="url(#clip492)" cx="2111.09" cy="222.961" r="7" fill="#000000" fill-rule="evenodd" fill-opacity="0.8" stroke="none"/>
<circle clip-path="url(#clip492)" cx="2133.06" cy="149.142" r="7" fill="#000000" fill-rule="evenodd" fill-opacity="0.8" stroke="none"/>
<circle clip-path="url(#clip492)" cx="2155.03" cy="86.1857" r="7" fill="#000000" fill-rule="evenodd" fill-opacity="0.8" stroke="none"/>
<circle clip-path="url(#clip492)" cx="2177" cy="161.812" r="7" fill="#000000" fill-rule="evenodd" fill-opacity="0.8" stroke="none"/>
<circle clip-path="url(#clip492)" cx="2198.97" cy="215.656" r="7" fill="#000000" fill-rule="evenodd" fill-opacity="0.8" stroke="none"/>
<circle clip-path="url(#clip492)" cx="2220.94" cy="217.48" r="7" fill="#000000" fill-rule="evenodd" fill-opacity="0.8" stroke="none"/>
<circle clip-path="url(#clip492)" cx="2242.91" cy="348.959" r="7" fill="#000000" fill-rule="evenodd" fill-opacity="0.8" stroke="none"/>
<circle clip-path="url(#clip492)" cx="2264.88" cy="503.36" r="7" fill="#000000" fill-rule="evenodd" fill-opacity="0.8" stroke="none"/>
<circle clip-path="url(#clip492)" cx="2286.85" cy="380.166" r="7" fill="#000000" fill-rule="evenodd" fill-opacity="0.8" stroke="none"/>
<circle clip-path="url(#clip492)" cx="2308.82" cy="563.891" r="7" fill="#000000" fill-rule="evenodd" fill-opacity="0.8" stroke="none"/>
<circle clip-path="url(#clip492)" cx="2330.79" cy="645.753" r="7" fill="#000000" fill-rule="evenodd" fill-opacity="0.8" stroke="none"/>
<circle clip-path="url(#clip492)" cx="2352.76" cy="773.137" r="7" fill="#000000" fill-rule="evenodd" fill-opacity="0.8" stroke="none"/>
<polyline clip-path="url(#clip492)" style="stroke:#0000ff; stroke-linecap:butt; stroke-linejoin:round; stroke-width:8; stroke-opacity:0.8; fill:none" points="
  177.735,699.637 199.705,676.147 221.675,654.176 243.645,633.853 265.614,615.402 287.584,598.908 309.554,584.717 331.524,574.15 353.494,566.97 375.464,563.618 
  397.434,563.998 419.404,568.087 441.374,575.566 463.344,586.269 485.314,600.619 507.283,618.436 529.253,639.195 551.223,662.07 573.193,686.287 595.163,711.285 
  617.133,736.431 639.103,760.993 661.073,785.032 683.043,807.551 705.013,827.756 726.983,845.761 748.952,861.79 770.922,873.652 792.892,880.409 814.862,883.87 
  836.832,884.746 858.802,881.27 880.772,874.185 902.742,863.391 924.712,850.52 946.682,834.107 968.652,815.175 990.621,793.231 1012.59,769.299 1034.56,744.306 
  1056.53,719.445 1078.5,694.274 1100.47,669.831 1122.44,646.759 1144.41,626.582 1166.38,609.192 1188.35,594.686 1210.32,583.455 1232.29,576.731 1254.26,572.15 
  1276.23,570.739 1298.2,573.396 1320.17,579.774 1342.14,590.491 1364.11,605.187 1386.08,622.867 1408.05,642.444 1430.02,664.271 1451.99,687.373 1473.96,711.022 
  1495.93,734.546 1517.9,758.023 1539.87,779.959 1561.84,800.178 1583.81,818.126 1605.78,833.821 1627.75,846.079 1649.72,855.369 1671.69,860.265 1693.66,861.25 
  1715.63,859.65 1737.6,853.385 1759.57,842.957 1781.54,829.194 1803.51,810.313 1825.48,788.257 1847.45,763.087 1869.42,737.074 1891.39,710.099 1913.36,682.124 
  1935.33,654.267 1957.3,625.654 1979.27,598.539 2001.24,572.757 2023.21,548.067 2045.18,526.116 2067.15,506.961 2089.12,490.264 2111.09,477.004 2133.06,466.284 
  2155.03,458.736 2177,454.913 2198.97,454.022 2220.94,455.513 2242.91,459.386 2264.88,464.362 2286.85,468.949 2308.82,474.423 2330.79,479.003 2352.76,481.915 
  
  "/>
<circle clip-path="url(#clip492)" cx="177.735" cy="699.637" r="7" fill="#0000ff" fill-rule="evenodd" fill-opacity="0.8" stroke="#000000" stroke-opacity="0.8" stroke-width="3.2"/>
<circle clip-path="url(#clip492)" cx="199.705" cy="676.147" r="7" fill="#0000ff" fill-rule="evenodd" fill-opacity="0.8" stroke="#000000" stroke-opacity="0.8" stroke-width="3.2"/>
<circle clip-path="url(#clip492)" cx="221.675" cy="654.176" r="7" fill="#0000ff" fill-rule="evenodd" fill-opacity="0.8" stroke="#000000" stroke-opacity="0.8" stroke-width="3.2"/>
<circle clip-path="url(#clip492)" cx="243.645" cy="633.853" r="7" fill="#0000ff" fill-rule="evenodd" fill-opacity="0.8" stroke="#000000" stroke-opacity="0.8" stroke-width="3.2"/>
<circle clip-path="url(#clip492)" cx="265.614" cy="615.402" r="7" fill="#0000ff" fill-rule="evenodd" fill-opacity="0.8" stroke="#000000" stroke-opacity="0.8" stroke-width="3.2"/>
<circle clip-path="url(#clip492)" cx="287.584" cy="598.908" r="7" fill="#0000ff" fill-rule="evenodd" fill-opacity="0.8" stroke="#000000" stroke-opacity="0.8" stroke-width="3.2"/>
<circle clip-path="url(#clip492)" cx="309.554" cy="584.717" r="7" fill="#0000ff" fill-rule="evenodd" fill-opacity="0.8" stroke="#000000" stroke-opacity="0.8" stroke-width="3.2"/>
<circle clip-path="url(#clip492)" cx="331.524" cy="574.15" r="7" fill="#0000ff" fill-rule="evenodd" fill-opacity="0.8" stroke="#000000" stroke-opacity="0.8" stroke-width="3.2"/>
<circle clip-path="url(#clip492)" cx="353.494" cy="566.97" r="7" fill="#0000ff" fill-rule="evenodd" fill-opacity="0.8" stroke="#000000" stroke-opacity="0.8" stroke-width="3.2"/>
<circle clip-path="url(#clip492)" cx="375.464" cy="563.618" r="7" fill="#0000ff" fill-rule="evenodd" fill-opacity="0.8" stroke="#000000" stroke-opacity="0.8" stroke-width="3.2"/>
<circle clip-path="url(#clip492)" cx="397.434" cy="563.998" r="7" fill="#0000ff" fill-rule="evenodd" fill-opacity="0.8" stroke="#000000" stroke-opacity="0.8" stroke-width="3.2"/>
<circle clip-path="url(#clip492)" cx="419.404" cy="568.087" r="7" fill="#0000ff" fill-rule="evenodd" fill-opacity="0.8" stroke="#000000" stroke-opacity="0.8" stroke-width="3.2"/>
<circle clip-path="url(#clip492)" cx="441.374" cy="575.566" r="7" fill="#0000ff" fill-rule="evenodd" fill-opacity="0.8" stroke="#000000" stroke-opacity="0.8" stroke-width="3.2"/>
<circle clip-path="url(#clip492)" cx="463.344" cy="586.269" r="7" fill="#0000ff" fill-rule="evenodd" fill-opacity="0.8" stroke="#000000" stroke-opacity="0.8" stroke-width="3.2"/>
<circle clip-path="url(#clip492)" cx="485.314" cy="600.619" r="7" fill="#0000ff" fill-rule="evenodd" fill-opacity="0.8" stroke="#000000" stroke-opacity="0.8" stroke-width="3.2"/>
<circle clip-path="url(#clip492)" cx="507.283" cy="618.436" r="7" fill="#0000ff" fill-rule="evenodd" fill-opacity="0.8" stroke="#000000" stroke-opacity="0.8" stroke-width="3.2"/>
<circle clip-path="url(#clip492)" cx="529.253" cy="639.195" r="7" fill="#0000ff" fill-rule="evenodd" fill-opacity="0.8" stroke="#000000" stroke-opacity="0.8" stroke-width="3.2"/>
<circle clip-path="url(#clip492)" cx="551.223" cy="662.07" r="7" fill="#0000ff" fill-rule="evenodd" fill-opacity="0.8" stroke="#000000" stroke-opacity="0.8" stroke-width="3.2"/>
<circle clip-path="url(#clip492)" cx="573.193" cy="686.287" r="7" fill="#0000ff" fill-rule="evenodd" fill-opacity="0.8" stroke="#000000" stroke-opacity="0.8" stroke-width="3.2"/>
<circle clip-path="url(#clip492)" cx="595.163" cy="711.285" r="7" fill="#0000ff" fill-rule="evenodd" fill-opacity="0.8" stroke="#000000" stroke-opacity="0.8" stroke-width="3.2"/>
<circle clip-path="url(#clip492)" cx="617.133" cy="736.431" r="7" fill="#0000ff" fill-rule="evenodd" fill-opacity="0.8" stroke="#000000" stroke-opacity="0.8" stroke-width="3.2"/>
<circle clip-path="url(#clip492)" cx="639.103" cy="760.993" r="7" fill="#0000ff" fill-rule="evenodd" fill-opacity="0.8" stroke="#000000" stroke-opacity="0.8" stroke-width="3.2"/>
<circle clip-path="url(#clip492)" cx="661.073" cy="785.032" r="7" fill="#0000ff" fill-rule="evenodd" fill-opacity="0.8" stroke="#000000" stroke-opacity="0.8" stroke-width="3.2"/>
<circle clip-path="url(#clip492)" cx="683.043" cy="807.551" r="7" fill="#0000ff" fill-rule="evenodd" fill-opacity="0.8" stroke="#000000" stroke-opacity="0.8" stroke-width="3.2"/>
<circle clip-path="url(#clip492)" cx="705.013" cy="827.756" r="7" fill="#0000ff" fill-rule="evenodd" fill-opacity="0.8" stroke="#000000" stroke-opacity="0.8" stroke-width="3.2"/>
<circle clip-path="url(#clip492)" cx="726.983" cy="845.761" r="7" fill="#0000ff" fill-rule="evenodd" fill-opacity="0.8" stroke="#000000" stroke-opacity="0.8" stroke-width="3.2"/>
<circle clip-path="url(#clip492)" cx="748.952" cy="861.79" r="7" fill="#0000ff" fill-rule="evenodd" fill-opacity="0.8" stroke="#000000" stroke-opacity="0.8" stroke-width="3.2"/>
<circle clip-path="url(#clip492)" cx="770.922" cy="873.652" r="7" fill="#0000ff" fill-rule="evenodd" fill-opacity="0.8" stroke="#000000" stroke-opacity="0.8" stroke-width="3.2"/>
<circle clip-path="url(#clip492)" cx="792.892" cy="880.409" r="7" fill="#0000ff" fill-rule="evenodd" fill-opacity="0.8" stroke="#000000" stroke-opacity="0.8" stroke-width="3.2"/>
<circle clip-path="url(#clip492)" cx="814.862" cy="883.87" r="7" fill="#0000ff" fill-rule="evenodd" fill-opacity="0.8" stroke="#000000" stroke-opacity="0.8" stroke-width="3.2"/>
<circle clip-path="url(#clip492)" cx="836.832" cy="884.746" r="7" fill="#0000ff" fill-rule="evenodd" fill-opacity="0.8" stroke="#000000" stroke-opacity="0.8" stroke-width="3.2"/>
<circle clip-path="url(#clip492)" cx="858.802" cy="881.27" r="7" fill="#0000ff" fill-rule="evenodd" fill-opacity="0.8" stroke="#000000" stroke-opacity="0.8" stroke-width="3.2"/>
<circle clip-path="url(#clip492)" cx="880.772" cy="874.185" r="7" fill="#0000ff" fill-rule="evenodd" fill-opacity="0.8" stroke="#000000" stroke-opacity="0.8" stroke-width="3.2"/>
<circle clip-path="url(#clip492)" cx="902.742" cy="863.391" r="7" fill="#0000ff" fill-rule="evenodd" fill-opacity="0.8" stroke="#000000" stroke-opacity="0.8" stroke-width="3.2"/>
<circle clip-path="url(#clip492)" cx="924.712" cy="850.52" r="7" fill="#0000ff" fill-rule="evenodd" fill-opacity="0.8" stroke="#000000" stroke-opacity="0.8" stroke-width="3.2"/>
<circle clip-path="url(#clip492)" cx="946.682" cy="834.107" r="7" fill="#0000ff" fill-rule="evenodd" fill-opacity="0.8" stroke="#000000" stroke-opacity="0.8" stroke-width="3.2"/>
<circle clip-path="url(#clip492)" cx="968.652" cy="815.175" r="7" fill="#0000ff" fill-rule="evenodd" fill-opacity="0.8" stroke="#000000" stroke-opacity="0.8" stroke-width="3.2"/>
<circle clip-path="url(#clip492)" cx="990.621" cy="793.231" r="7" fill="#0000ff" fill-rule="evenodd" fill-opacity="0.8" stroke="#000000" stroke-opacity="0.8" stroke-width="3.2"/>
<circle clip-path="url(#clip492)" cx="1012.59" cy="769.299" r="7" fill="#0000ff" fill-rule="evenodd" fill-opacity="0.8" stroke="#000000" stroke-opacity="0.8" stroke-width="3.2"/>
<circle clip-path="url(#clip492)" cx="1034.56" cy="744.306" r="7" fill="#0000ff" fill-rule="evenodd" fill-opacity="0.8" stroke="#000000" stroke-opacity="0.8" stroke-width="3.2"/>
<circle clip-path="url(#clip492)" cx="1056.53" cy="719.445" r="7" fill="#0000ff" fill-rule="evenodd" fill-opacity="0.8" stroke="#000000" stroke-opacity="0.8" stroke-width="3.2"/>
<circle clip-path="url(#clip492)" cx="1078.5" cy="694.274" r="7" fill="#0000ff" fill-rule="evenodd" fill-opacity="0.8" stroke="#000000" stroke-opacity="0.8" stroke-width="3.2"/>
<circle clip-path="url(#clip492)" cx="1100.47" cy="669.831" r="7" fill="#0000ff" fill-rule="evenodd" fill-opacity="0.8" stroke="#000000" stroke-opacity="0.8" stroke-width="3.2"/>
<circle clip-path="url(#clip492)" cx="1122.44" cy="646.759" r="7" fill="#0000ff" fill-rule="evenodd" fill-opacity="0.8" stroke="#000000" stroke-opacity="0.8" stroke-width="3.2"/>
<circle clip-path="url(#clip492)" cx="1144.41" cy="626.582" r="7" fill="#0000ff" fill-rule="evenodd" fill-opacity="0.8" stroke="#000000" stroke-opacity="0.8" stroke-width="3.2"/>
<circle clip-path="url(#clip492)" cx="1166.38" cy="609.192" r="7" fill="#0000ff" fill-rule="evenodd" fill-opacity="0.8" stroke="#000000" stroke-opacity="0.8" stroke-width="3.2"/>
<circle clip-path="url(#clip492)" cx="1188.35" cy="594.686" r="7" fill="#0000ff" fill-rule="evenodd" fill-opacity="0.8" stroke="#000000" stroke-opacity="0.8" stroke-width="3.2"/>
<circle clip-path="url(#clip492)" cx="1210.32" cy="583.455" r="7" fill="#0000ff" fill-rule="evenodd" fill-opacity="0.8" stroke="#000000" stroke-opacity="0.8" stroke-width="3.2"/>
<circle clip-path="url(#clip492)" cx="1232.29" cy="576.731" r="7" fill="#0000ff" fill-rule="evenodd" fill-opacity="0.8" stroke="#000000" stroke-opacity="0.8" stroke-width="3.2"/>
<circle clip-path="url(#clip492)" cx="1254.26" cy="572.15" r="7" fill="#0000ff" fill-rule="evenodd" fill-opacity="0.8" stroke="#000000" stroke-opacity="0.8" stroke-width="3.2"/>
<circle clip-path="url(#clip492)" cx="1276.23" cy="570.739" r="7" fill="#0000ff" fill-rule="evenodd" fill-opacity="0.8" stroke="#000000" stroke-opacity="0.8" stroke-width="3.2"/>
<circle clip-path="url(#clip492)" cx="1298.2" cy="573.396" r="7" fill="#0000ff" fill-rule="evenodd" fill-opacity="0.8" stroke="#000000" stroke-opacity="0.8" stroke-width="3.2"/>
<circle clip-path="url(#clip492)" cx="1320.17" cy="579.774" r="7" fill="#0000ff" fill-rule="evenodd" fill-opacity="0.8" stroke="#000000" stroke-opacity="0.8" stroke-width="3.2"/>
<circle clip-path="url(#clip492)" cx="1342.14" cy="590.491" r="7" fill="#0000ff" fill-rule="evenodd" fill-opacity="0.8" stroke="#000000" stroke-opacity="0.8" stroke-width="3.2"/>
<circle clip-path="url(#clip492)" cx="1364.11" cy="605.187" r="7" fill="#0000ff" fill-rule="evenodd" fill-opacity="0.8" stroke="#000000" stroke-opacity="0.8" stroke-width="3.2"/>
<circle clip-path="url(#clip492)" cx="1386.08" cy="622.867" r="7" fill="#0000ff" fill-rule="evenodd" fill-opacity="0.8" stroke="#000000" stroke-opacity="0.8" stroke-width="3.2"/>
<circle clip-path="url(#clip492)" cx="1408.05" cy="642.444" r="7" fill="#0000ff" fill-rule="evenodd" fill-opacity="0.8" stroke="#000000" stroke-opacity="0.8" stroke-width="3.2"/>
<circle clip-path="url(#clip492)" cx="1430.02" cy="664.271" r="7" fill="#0000ff" fill-rule="evenodd" fill-opacity="0.8" stroke="#000000" stroke-opacity="0.8" stroke-width="3.2"/>
<circle clip-path="url(#clip492)" cx="1451.99" cy="687.373" r="7" fill="#0000ff" fill-rule="evenodd" fill-opacity="0.8" stroke="#000000" stroke-opacity="0.8" stroke-width="3.2"/>
<circle clip-path="url(#clip492)" cx="1473.96" cy="711.022" r="7" fill="#0000ff" fill-rule="evenodd" fill-opacity="0.8" stroke="#000000" stroke-opacity="0.8" stroke-width="3.2"/>
<circle clip-path="url(#clip492)" cx="1495.93" cy="734.546" r="7" fill="#0000ff" fill-rule="evenodd" fill-opacity="0.8" stroke="#000000" stroke-opacity="0.8" stroke-width="3.2"/>
<circle clip-path="url(#clip492)" cx="1517.9" cy="758.023" r="7" fill="#0000ff" fill-rule="evenodd" fill-opacity="0.8" stroke="#000000" stroke-opacity="0.8" stroke-width="3.2"/>
<circle clip-path="url(#clip492)" cx="1539.87" cy="779.959" r="7" fill="#0000ff" fill-rule="evenodd" fill-opacity="0.8" stroke="#000000" stroke-opacity="0.8" stroke-width="3.2"/>
<circle clip-path="url(#clip492)" cx="1561.84" cy="800.178" r="7" fill="#0000ff" fill-rule="evenodd" fill-opacity="0.8" stroke="#000000" stroke-opacity="0.8" stroke-width="3.2"/>
<circle clip-path="url(#clip492)" cx="1583.81" cy="818.126" r="7" fill="#0000ff" fill-rule="evenodd" fill-opacity="0.8" stroke="#000000" stroke-opacity="0.8" stroke-width="3.2"/>
<circle clip-path="url(#clip492)" cx="1605.78" cy="833.821" r="7" fill="#0000ff" fill-rule="evenodd" fill-opacity="0.8" stroke="#000000" stroke-opacity="0.8" stroke-width="3.2"/>
<circle clip-path="url(#clip492)" cx="1627.75" cy="846.079" r="7" fill="#0000ff" fill-rule="evenodd" fill-opacity="0.8" stroke="#000000" stroke-opacity="0.8" stroke-width="3.2"/>
<circle clip-path="url(#clip492)" cx="1649.72" cy="855.369" r="7" fill="#0000ff" fill-rule="evenodd" fill-opacity="0.8" stroke="#000000" stroke-opacity="0.8" stroke-width="3.2"/>
<circle clip-path="url(#clip492)" cx="1671.69" cy="860.265" r="7" fill="#0000ff" fill-rule="evenodd" fill-opacity="0.8" stroke="#000000" stroke-opacity="0.8" stroke-width="3.2"/>
<circle clip-path="url(#clip492)" cx="1693.66" cy="861.25" r="7" fill="#0000ff" fill-rule="evenodd" fill-opacity="0.8" stroke="#000000" stroke-opacity="0.8" stroke-width="3.2"/>
<circle clip-path="url(#clip492)" cx="1715.63" cy="859.65" r="7" fill="#0000ff" fill-rule="evenodd" fill-opacity="0.8" stroke="#000000" stroke-opacity="0.8" stroke-width="3.2"/>
<circle clip-path="url(#clip492)" cx="1737.6" cy="853.385" r="7" fill="#0000ff" fill-rule="evenodd" fill-opacity="0.8" stroke="#000000" stroke-opacity="0.8" stroke-width="3.2"/>
<circle clip-path="url(#clip492)" cx="1759.57" cy="842.957" r="7" fill="#0000ff" fill-rule="evenodd" fill-opacity="0.8" stroke="#000000" stroke-opacity="0.8" stroke-width="3.2"/>
<circle clip-path="url(#clip492)" cx="1781.54" cy="829.194" r="7" fill="#0000ff" fill-rule="evenodd" fill-opacity="0.8" stroke="#000000" stroke-opacity="0.8" stroke-width="3.2"/>
<circle clip-path="url(#clip492)" cx="1803.51" cy="810.313" r="7" fill="#0000ff" fill-rule="evenodd" fill-opacity="0.8" stroke="#000000" stroke-opacity="0.8" stroke-width="3.2"/>
<circle clip-path="url(#clip492)" cx="1825.48" cy="788.257" r="7" fill="#0000ff" fill-rule="evenodd" fill-opacity="0.8" stroke="#000000" stroke-opacity="0.8" stroke-width="3.2"/>
<circle clip-path="url(#clip492)" cx="1847.45" cy="763.087" r="7" fill="#0000ff" fill-rule="evenodd" fill-opacity="0.8" stroke="#000000" stroke-opacity="0.8" stroke-width="3.2"/>
<circle clip-path="url(#clip492)" cx="1869.42" cy="737.074" r="7" fill="#0000ff" fill-rule="evenodd" fill-opacity="0.8" stroke="#000000" stroke-opacity="0.8" stroke-width="3.2"/>
<circle clip-path="url(#clip492)" cx="1891.39" cy="710.099" r="7" fill="#0000ff" fill-rule="evenodd" fill-opacity="0.8" stroke="#000000" stroke-opacity="0.8" stroke-width="3.2"/>
<circle clip-path="url(#clip492)" cx="1913.36" cy="682.124" r="7" fill="#0000ff" fill-rule="evenodd" fill-opacity="0.8" stroke="#000000" stroke-opacity="0.8" stroke-width="3.2"/>
<circle clip-path="url(#clip492)" cx="1935.33" cy="654.267" r="7" fill="#0000ff" fill-rule="evenodd" fill-opacity="0.8" stroke="#000000" stroke-opacity="0.8" stroke-width="3.2"/>
<circle clip-path="url(#clip492)" cx="1957.3" cy="625.654" r="7" fill="#0000ff" fill-rule="evenodd" fill-opacity="0.8" stroke="#000000" stroke-opacity="0.8" stroke-width="3.2"/>
<circle clip-path="url(#clip492)" cx="1979.27" cy="598.539" r="7" fill="#0000ff" fill-rule="evenodd" fill-opacity="0.8" stroke="#000000" stroke-opacity="0.8" stroke-width="3.2"/>
<circle clip-path="url(#clip492)" cx="2001.24" cy="572.757" r="7" fill="#0000ff" fill-rule="evenodd" fill-opacity="0.8" stroke="#000000" stroke-opacity="0.8" stroke-width="3.2"/>
<circle clip-path="url(#clip492)" cx="2023.21" cy="548.067" r="7" fill="#0000ff" fill-rule="evenodd" fill-opacity="0.8" stroke="#000000" stroke-opacity="0.8" stroke-width="3.2"/>
<circle clip-path="url(#clip492)" cx="2045.18" cy="526.116" r="7" fill="#0000ff" fill-rule="evenodd" fill-opacity="0.8" stroke="#000000" stroke-opacity="0.8" stroke-width="3.2"/>
<circle clip-path="url(#clip492)" cx="2067.15" cy="506.961" r="7" fill="#0000ff" fill-rule="evenodd" fill-opacity="0.8" stroke="#000000" stroke-opacity="0.8" stroke-width="3.2"/>
<circle clip-path="url(#clip492)" cx="2089.12" cy="490.264" r="7" fill="#0000ff" fill-rule="evenodd" fill-opacity="0.8" stroke="#000000" stroke-opacity="0.8" stroke-width="3.2"/>
<circle clip-path="url(#clip492)" cx="2111.09" cy="477.004" r="7" fill="#0000ff" fill-rule="evenodd" fill-opacity="0.8" stroke="#000000" stroke-opacity="0.8" stroke-width="3.2"/>
<circle clip-path="url(#clip492)" cx="2133.06" cy="466.284" r="7" fill="#0000ff" fill-rule="evenodd" fill-opacity="0.8" stroke="#000000" stroke-opacity="0.8" stroke-width="3.2"/>
<circle clip-path="url(#clip492)" cx="2155.03" cy="458.736" r="7" fill="#0000ff" fill-rule="evenodd" fill-opacity="0.8" stroke="#000000" stroke-opacity="0.8" stroke-width="3.2"/>
<circle clip-path="url(#clip492)" cx="2177" cy="454.913" r="7" fill="#0000ff" fill-rule="evenodd" fill-opacity="0.8" stroke="#000000" stroke-opacity="0.8" stroke-width="3.2"/>
<circle clip-path="url(#clip492)" cx="2198.97" cy="454.022" r="7" fill="#0000ff" fill-rule="evenodd" fill-opacity="0.8" stroke="#000000" stroke-opacity="0.8" stroke-width="3.2"/>
<circle clip-path="url(#clip492)" cx="2220.94" cy="455.513" r="7" fill="#0000ff" fill-rule="evenodd" fill-opacity="0.8" stroke="#000000" stroke-opacity="0.8" stroke-width="3.2"/>
<circle clip-path="url(#clip492)" cx="2242.91" cy="459.386" r="7" fill="#0000ff" fill-rule="evenodd" fill-opacity="0.8" stroke="#000000" stroke-opacity="0.8" stroke-width="3.2"/>
<circle clip-path="url(#clip492)" cx="2264.88" cy="464.362" r="7" fill="#0000ff" fill-rule="evenodd" fill-opacity="0.8" stroke="#000000" stroke-opacity="0.8" stroke-width="3.2"/>
<circle clip-path="url(#clip492)" cx="2286.85" cy="468.949" r="7" fill="#0000ff" fill-rule="evenodd" fill-opacity="0.8" stroke="#000000" stroke-opacity="0.8" stroke-width="3.2"/>
<circle clip-path="url(#clip492)" cx="2308.82" cy="474.423" r="7" fill="#0000ff" fill-rule="evenodd" fill-opacity="0.8" stroke="#000000" stroke-opacity="0.8" stroke-width="3.2"/>
<circle clip-path="url(#clip492)" cx="2330.79" cy="479.003" r="7" fill="#0000ff" fill-rule="evenodd" fill-opacity="0.8" stroke="#000000" stroke-opacity="0.8" stroke-width="3.2"/>
<circle clip-path="url(#clip492)" cx="2352.76" cy="481.915" r="7" fill="#0000ff" fill-rule="evenodd" fill-opacity="0.8" stroke="#000000" stroke-opacity="0.8" stroke-width="3.2"/>
<path clip-path="url(#clip490)" d="
M228.998 1377.32 L540.909 1377.32 L540.909 1221.8 L228.998 1221.8  Z
  " fill="#ffffff" fill-rule="evenodd" fill-opacity="1"/>
<polyline clip-path="url(#clip490)" style="stroke:#000000; stroke-linecap:butt; stroke-linejoin:round; stroke-width:4; stroke-opacity:1; fill:none" points="
  228.998,1377.32 540.909,1377.32 540.909,1221.8 228.998,1221.8 228.998,1377.32 
  "/>
<polyline clip-path="url(#clip490)" style="stroke:#000000; stroke-linecap:butt; stroke-linejoin:round; stroke-width:4; stroke-opacity:0.8; fill:none" points="
  253.409,1273.64 399.875,1273.64 
  "/>
<circle clip-path="url(#clip490)" cx="326.642" cy="1273.64" r="23" fill="#000000" fill-rule="evenodd" fill-opacity="0.8" stroke="none"/>
<path clip-path="url(#clip490)" d="M437.689 1277.88 Q432.527 1277.88 430.536 1279.06 Q428.545 1280.24 428.545 1283.09 Q428.545 1285.36 430.027 1286.7 Q431.531 1288.02 434.101 1288.02 Q437.642 1288.02 439.772 1285.52 Q441.925 1283 441.925 1278.83 L441.925 1277.88 L437.689 1277.88 M446.184 1276.12 L446.184 1290.92 L441.925 1290.92 L441.925 1286.98 Q440.466 1289.34 438.291 1290.48 Q436.115 1291.59 432.967 1291.59 Q428.985 1291.59 426.624 1289.36 Q424.286 1287.12 424.286 1283.37 Q424.286 1278.99 427.203 1276.77 Q430.142 1274.55 435.953 1274.55 L441.925 1274.55 L441.925 1274.13 Q441.925 1271.19 439.98 1269.6 Q438.059 1267.98 434.564 1267.98 Q432.342 1267.98 430.235 1268.51 Q428.129 1269.04 426.184 1270.11 L426.184 1266.17 Q428.522 1265.27 430.721 1264.83 Q432.92 1264.36 435.004 1264.36 Q440.629 1264.36 443.406 1267.28 Q446.184 1270.2 446.184 1276.12 Z" fill="#000000" fill-rule="evenodd" fill-opacity="1" /><path clip-path="url(#clip490)" d="M474.656 1298.79 L474.656 1302.1 L450.027 1302.1 L450.027 1298.79 L474.656 1298.79 Z" fill="#000000" fill-rule="evenodd" fill-opacity="1" /><path clip-path="url(#clip490)" d="M482.874 1257.63 L482.874 1264.99 L491.647 1264.99 L491.647 1268.3 L482.874 1268.3 L482.874 1282.37 Q482.874 1285.54 483.73 1286.45 Q484.61 1287.35 487.272 1287.35 L491.647 1287.35 L491.647 1290.92 L487.272 1290.92 Q482.341 1290.92 480.466 1289.09 Q478.591 1287.23 478.591 1282.37 L478.591 1268.3 L475.466 1268.3 L475.466 1264.99 L478.591 1264.99 L478.591 1257.63 L482.874 1257.63 Z" fill="#000000" fill-rule="evenodd" fill-opacity="1" /><polyline clip-path="url(#clip490)" style="stroke:#0000ff; stroke-linecap:butt; stroke-linejoin:round; stroke-width:4; stroke-opacity:0.8; fill:none" points="
  253.409,1325.48 399.875,1325.48 
  "/>
<circle clip-path="url(#clip490)" cx="326.642" cy="1325.48" r="23" fill="#0000ff" fill-rule="evenodd" fill-opacity="0.8" stroke="#000000" stroke-opacity="0.8" stroke-width="10.24"/>
<path clip-path="url(#clip490)" d="M438.129 1345.16 Q436.323 1349.79 434.61 1351.2 Q432.897 1352.62 430.027 1352.62 L426.624 1352.62 L426.624 1349.05 L429.124 1349.05 Q430.883 1349.05 431.855 1348.22 Q432.828 1347.38 434.008 1344.28 L434.772 1342.34 L424.286 1316.83 L428.8 1316.83 L436.902 1337.11 L445.004 1316.83 L449.517 1316.83 L438.129 1345.16 Z" fill="#000000" fill-rule="evenodd" fill-opacity="1" /><path clip-path="url(#clip490)" d="M475.096 1350.63 L475.096 1353.94 L450.466 1353.94 L450.466 1350.63 L475.096 1350.63 Z" fill="#000000" fill-rule="evenodd" fill-opacity="1" /><path clip-path="url(#clip490)" d="M483.313 1309.47 L483.313 1316.83 L492.087 1316.83 L492.087 1320.14 L483.313 1320.14 L483.313 1334.21 Q483.313 1337.38 484.17 1338.29 Q485.05 1339.19 487.712 1339.19 L492.087 1339.19 L492.087 1342.76 L487.712 1342.76 Q482.781 1342.76 480.906 1340.93 Q479.031 1339.07 479.031 1334.21 L479.031 1320.14 L475.906 1320.14 L475.906 1316.83 L479.031 1316.83 L479.031 1309.47 L483.313 1309.47 Z" fill="#000000" fill-rule="evenodd" fill-opacity="1" /></svg>
