<?xml version="1.0" encoding="utf-8"?>
<svg xmlns="http://www.w3.org/2000/svg" xmlns:xlink="http://www.w3.org/1999/xlink" width="600" height="400" viewBox="0 0 2400 1600">
<defs>
  <clipPath id="clip640">
    <rect x="0" y="0" width="2400" height="1600"/>
  </clipPath>
</defs>
<path clip-path="url(#clip640)" d="
M0 1600 L2400 1600 L2400 0 L0 0  Z
  " fill="#ffffff" fill-rule="evenodd" fill-opacity="1"/>
<defs>
  <clipPath id="clip641">
    <rect x="480" y="0" width="1681" height="1600"/>
  </clipPath>
</defs>
<defs>
  <clipPath id="clip642">
    <rect x="205" y="47" width="2149" height="1377"/>
  </clipPath>
</defs>
<path clip-path="url(#clip640)" d="
M234.125 1423.18 L2352.76 1423.18 L2352.76 47.2441 L234.125 47.2441  Z
  " fill="#ffffff" fill-rule="evenodd" fill-opacity="1"/>
<defs>
  <clipPath id="clip643">
    <rect x="234" y="47" width="2120" height="1377"/>
  </clipPath>
</defs>
<polyline clip-path="url(#clip643)" style="stroke:#000000; stroke-linecap:round; stroke-linejoin:round; stroke-width:2; stroke-opacity:0.1; fill:none" points="
  389.604,1423.18 389.604,47.2441 
  "/>
<polyline clip-path="url(#clip643)" style="stroke:#000000; stroke-linecap:round; stroke-linejoin:round; stroke-width:2; stroke-opacity:0.1; fill:none" points="
  864.587,1423.18 864.587,47.2441 
  "/>
<polyline clip-path="url(#clip643)" style="stroke:#000000; stroke-linecap:round; stroke-linejoin:round; stroke-width:2; stroke-opacity:0.1; fill:none" points="
  1339.57,1423.18 1339.57,47.2441 
  "/>
<polyline clip-path="url(#clip643)" style="stroke:#000000; stroke-linecap:round; stroke-linejoin:round; stroke-width:2; stroke-opacity:0.1; fill:none" points="
  1814.55,1423.18 1814.55,47.2441 
  "/>
<polyline clip-path="url(#clip643)" style="stroke:#000000; stroke-linecap:round; stroke-linejoin:round; stroke-width:2; stroke-opacity:0.1; fill:none" points="
  2289.53,1423.18 2289.53,47.2441 
  "/>
<polyline clip-path="url(#clip640)" style="stroke:#000000; stroke-linecap:round; stroke-linejoin:round; stroke-width:4; stroke-opacity:1; fill:none" points="
  234.125,1423.18 2352.76,1423.18 
  "/>
<polyline clip-path="url(#clip640)" style="stroke:#000000; stroke-linecap:round; stroke-linejoin:round; stroke-width:4; stroke-opacity:1; fill:none" points="
  389.604,1423.18 389.604,1404.28 
  "/>
<polyline clip-path="url(#clip640)" style="stroke:#000000; stroke-linecap:round; stroke-linejoin:round; stroke-width:4; stroke-opacity:1; fill:none" points="
  864.587,1423.18 864.587,1404.28 
  "/>
<polyline clip-path="url(#clip640)" style="stroke:#000000; stroke-linecap:round; stroke-linejoin:round; stroke-width:4; stroke-opacity:1; fill:none" points="
  1339.57,1423.18 1339.57,1404.28 
  "/>
<polyline clip-path="url(#clip640)" style="stroke:#000000; stroke-linecap:round; stroke-linejoin:round; stroke-width:4; stroke-opacity:1; fill:none" points="
  1814.55,1423.18 1814.55,1404.28 
  "/>
<polyline clip-path="url(#clip640)" style="stroke:#000000; stroke-linecap:round; stroke-linejoin:round; stroke-width:4; stroke-opacity:1; fill:none" points="
  2289.53,1423.18 2289.53,1404.28 
  "/>
<path clip-path="url(#clip640)" d="M367.486 1454.1 Q363.875 1454.1 362.046 1457.66 Q360.241 1461.2 360.241 1468.33 Q360.241 1475.44 362.046 1479.01 Q363.875 1482.55 367.486 1482.55 Q371.121 1482.55 372.926 1479.01 Q374.755 1475.44 374.755 1468.33 Q374.755 1461.2 372.926 1457.66 Q371.121 1454.1 367.486 1454.1 M367.486 1450.39 Q373.296 1450.39 376.352 1455 Q379.431 1459.58 379.431 1468.33 Q379.431 1477.06 376.352 1481.67 Q373.296 1486.25 367.486 1486.25 Q361.676 1486.25 358.597 1481.67 Q355.542 1477.06 355.542 1468.33 Q355.542 1459.58 358.597 1455 Q361.676 1450.39 367.486 1450.39 Z" fill="#000000" fill-rule="evenodd" fill-opacity="1" /><path clip-path="url(#clip640)" d="M387.648 1479.7 L392.532 1479.7 L392.532 1485.58 L387.648 1485.58 L387.648 1479.7 Z" fill="#000000" fill-rule="evenodd" fill-opacity="1" /><path clip-path="url(#clip640)" d="M402.764 1451.02 L421.12 1451.02 L421.12 1454.96 L407.046 1454.96 L407.046 1463.43 Q408.065 1463.08 409.083 1462.92 Q410.102 1462.73 411.12 1462.73 Q416.907 1462.73 420.287 1465.9 Q423.667 1469.08 423.667 1474.49 Q423.667 1480.07 420.194 1483.17 Q416.722 1486.25 410.403 1486.25 Q408.227 1486.25 405.958 1485.88 Q403.713 1485.51 401.306 1484.77 L401.306 1480.07 Q403.389 1481.2 405.611 1481.76 Q407.833 1482.32 410.31 1482.32 Q414.315 1482.32 416.653 1480.21 Q418.991 1478.1 418.991 1474.49 Q418.991 1470.88 416.653 1468.77 Q414.315 1466.67 410.31 1466.67 Q408.435 1466.67 406.56 1467.08 Q404.708 1467.5 402.764 1468.38 L402.764 1451.02 Z" fill="#000000" fill-rule="evenodd" fill-opacity="1" /><path clip-path="url(#clip640)" d="M831.74 1481.64 L839.378 1481.64 L839.378 1455.28 L831.068 1456.95 L831.068 1452.69 L839.332 1451.02 L844.008 1451.02 L844.008 1481.64 L851.647 1481.64 L851.647 1485.58 L831.74 1485.58 L831.74 1481.64 Z" fill="#000000" fill-rule="evenodd" fill-opacity="1" /><path clip-path="url(#clip640)" d="M861.091 1479.7 L865.975 1479.7 L865.975 1485.58 L861.091 1485.58 L861.091 1479.7 Z" fill="#000000" fill-rule="evenodd" fill-opacity="1" /><path clip-path="url(#clip640)" d="M886.161 1454.1 Q882.549 1454.1 880.721 1457.66 Q878.915 1461.2 878.915 1468.33 Q878.915 1475.44 880.721 1479.01 Q882.549 1482.55 886.161 1482.55 Q889.795 1482.55 891.6 1479.01 Q893.429 1475.44 893.429 1468.33 Q893.429 1461.2 891.6 1457.66 Q889.795 1454.1 886.161 1454.1 M886.161 1450.39 Q891.971 1450.39 895.026 1455 Q898.105 1459.58 898.105 1468.33 Q898.105 1477.06 895.026 1481.67 Q891.971 1486.25 886.161 1486.25 Q880.35 1486.25 877.272 1481.67 Q874.216 1477.06 874.216 1468.33 Q874.216 1459.58 877.272 1455 Q880.35 1450.39 886.161 1450.39 Z" fill="#000000" fill-rule="evenodd" fill-opacity="1" /><path clip-path="url(#clip640)" d="M1307.22 1481.64 L1314.86 1481.64 L1314.86 1455.28 L1306.55 1456.95 L1306.55 1452.69 L1314.81 1451.02 L1319.49 1451.02 L1319.49 1481.64 L1327.13 1481.64 L1327.13 1485.58 L1307.22 1485.58 L1307.22 1481.64 Z" fill="#000000" fill-rule="evenodd" fill-opacity="1" /><path clip-path="url(#clip640)" d="M1336.57 1479.7 L1341.46 1479.7 L1341.46 1485.58 L1336.57 1485.58 L1336.57 1479.7 Z" fill="#000000" fill-rule="evenodd" fill-opacity="1" /><path clip-path="url(#clip640)" d="M1351.69 1451.02 L1370.04 1451.02 L1370.04 1454.96 L1355.97 1454.96 L1355.97 1463.43 Q1356.99 1463.08 1358.01 1462.92 Q1359.02 1462.73 1360.04 1462.73 Q1365.83 1462.73 1369.21 1465.9 Q1372.59 1469.08 1372.59 1474.49 Q1372.59 1480.07 1369.12 1483.17 Q1365.65 1486.25 1359.33 1486.25 Q1357.15 1486.25 1354.88 1485.88 Q1352.64 1485.51 1350.23 1484.77 L1350.23 1480.07 Q1352.31 1481.2 1354.53 1481.76 Q1356.76 1482.32 1359.23 1482.32 Q1363.24 1482.32 1365.58 1480.21 Q1367.91 1478.1 1367.91 1474.49 Q1367.91 1470.88 1365.58 1468.77 Q1363.24 1466.67 1359.23 1466.67 Q1357.36 1466.67 1355.48 1467.08 Q1353.63 1467.5 1351.69 1468.38 L1351.69 1451.02 Z" fill="#000000" fill-rule="evenodd" fill-opacity="1" /><path clip-path="url(#clip640)" d="M1785.79 1481.64 L1802.11 1481.64 L1802.11 1485.58 L1780.16 1485.58 L1780.16 1481.64 Q1782.83 1478.89 1787.41 1474.26 Q1792.02 1469.61 1793.2 1468.27 Q1795.44 1465.74 1796.32 1464.01 Q1797.22 1462.25 1797.22 1460.56 Q1797.22 1457.8 1795.28 1456.07 Q1793.36 1454.33 1790.26 1454.33 Q1788.06 1454.33 1785.6 1455.09 Q1783.17 1455.86 1780.4 1457.41 L1780.4 1452.69 Q1783.22 1451.55 1785.67 1450.97 Q1788.13 1450.39 1790.16 1450.39 Q1795.54 1450.39 1798.73 1453.08 Q1801.92 1455.77 1801.92 1460.26 Q1801.92 1462.39 1801.11 1464.31 Q1800.33 1466.2 1798.22 1468.8 Q1797.64 1469.47 1794.54 1472.69 Q1791.44 1475.88 1785.79 1481.64 Z" fill="#000000" fill-rule="evenodd" fill-opacity="1" /><path clip-path="url(#clip640)" d="M1811.92 1479.7 L1816.81 1479.7 L1816.81 1485.58 L1811.92 1485.58 L1811.92 1479.7 Z" fill="#000000" fill-rule="evenodd" fill-opacity="1" /><path clip-path="url(#clip640)" d="M1836.99 1454.1 Q1833.38 1454.1 1831.55 1457.66 Q1829.75 1461.2 1829.75 1468.33 Q1829.75 1475.44 1831.55 1479.01 Q1833.38 1482.55 1836.99 1482.55 Q1840.63 1482.55 1842.43 1479.01 Q1844.26 1475.44 1844.26 1468.33 Q1844.26 1461.2 1842.43 1457.66 Q1840.63 1454.1 1836.99 1454.1 M1836.99 1450.39 Q1842.8 1450.39 1845.86 1455 Q1848.94 1459.58 1848.94 1468.33 Q1848.94 1477.06 1845.86 1481.67 Q1842.8 1486.25 1836.99 1486.25 Q1831.18 1486.25 1828.1 1481.67 Q1825.05 1477.06 1825.05 1468.33 Q1825.05 1459.58 1828.1 1455 Q1831.18 1450.39 1836.99 1450.39 Z" fill="#000000" fill-rule="evenodd" fill-opacity="1" /><path clip-path="url(#clip640)" d="M2261.27 1481.64 L2277.59 1481.64 L2277.59 1485.58 L2255.64 1485.58 L2255.64 1481.64 Q2258.31 1478.89 2262.89 1474.26 Q2267.5 1469.61 2268.68 1468.27 Q2270.92 1465.74 2271.8 1464.01 Q2272.7 1462.25 2272.7 1460.56 Q2272.7 1457.8 2270.76 1456.07 Q2268.84 1454.33 2265.74 1454.33 Q2263.54 1454.33 2261.08 1455.09 Q2258.65 1455.86 2255.88 1457.41 L2255.88 1452.69 Q2258.7 1451.55 2261.15 1450.97 Q2263.61 1450.39 2265.64 1450.39 Q2271.02 1450.39 2274.21 1453.08 Q2277.4 1455.77 2277.4 1460.26 Q2277.4 1462.39 2276.59 1464.31 Q2275.81 1466.2 2273.7 1468.8 Q2273.12 1469.47 2270.02 1472.69 Q2266.92 1475.88 2261.27 1481.64 Z" fill="#000000" fill-rule="evenodd" fill-opacity="1" /><path clip-path="url(#clip640)" d="M2287.4 1479.7 L2292.29 1479.7 L2292.29 1485.58 L2287.4 1485.58 L2287.4 1479.7 Z" fill="#000000" fill-rule="evenodd" fill-opacity="1" /><path clip-path="url(#clip640)" d="M2302.52 1451.02 L2320.88 1451.02 L2320.88 1454.96 L2306.8 1454.96 L2306.8 1463.43 Q2307.82 1463.08 2308.84 1462.92 Q2309.86 1462.73 2310.88 1462.73 Q2316.66 1462.73 2320.04 1465.9 Q2323.42 1469.08 2323.42 1474.49 Q2323.42 1480.07 2319.95 1483.17 Q2316.48 1486.25 2310.16 1486.25 Q2307.98 1486.25 2305.71 1485.88 Q2303.47 1485.51 2301.06 1484.77 L2301.06 1480.07 Q2303.14 1481.2 2305.37 1481.76 Q2307.59 1482.32 2310.07 1482.32 Q2314.07 1482.32 2316.41 1480.21 Q2318.75 1478.1 2318.75 1474.49 Q2318.75 1470.88 2316.41 1468.77 Q2314.07 1466.67 2310.07 1466.67 Q2308.19 1466.67 2306.32 1467.08 Q2304.46 1467.5 2302.52 1468.38 L2302.52 1451.02 Z" fill="#000000" fill-rule="evenodd" fill-opacity="1" /><path clip-path="url(#clip640)" d="M1307.88 1520.64 Q1307.88 1521.09 1307.59 1522.15 L1301.28 1547.34 Q1299.89 1552.94 1295.38 1556.87 Q1290.91 1560.8 1285.82 1560.8 Q1282.76 1560.8 1280.79 1559.16 Q1278.83 1557.55 1278.83 1555.07 Q1278.83 1552.88 1279.99 1551.82 Q1281.15 1550.78 1282.53 1550.78 Q1282.98 1550.78 1283.47 1550.91 Q1283.95 1551.04 1284.46 1551.59 Q1284.98 1552.14 1284.98 1553.07 Q1284.98 1554.58 1283.66 1555.78 Q1283.02 1556.32 1282.4 1556.45 Q1281.82 1556.58 1280.83 1556.58 Q1281.21 1557.48 1281.92 1558.1 Q1282.63 1558.71 1283.43 1558.93 Q1284.24 1559.19 1284.75 1559.25 Q1285.3 1559.35 1285.82 1559.35 Q1289.94 1559.35 1293.1 1555.2 Q1294.03 1553.94 1294.71 1552.68 Q1295.41 1551.46 1295.93 1549.95 Q1296.45 1548.47 1296.67 1547.66 Q1296.93 1546.86 1297.38 1545.02 Q1294.38 1548.01 1290.71 1548.01 Q1289.17 1548.01 1287.78 1547.6 Q1286.43 1547.18 1285.24 1546.31 Q1284.05 1545.41 1283.34 1543.83 Q1282.66 1542.25 1282.66 1540.16 Q1282.66 1537.93 1283.53 1534.91 Q1284.4 1531.88 1286.49 1526.31 Q1287.62 1523.18 1287.62 1521.67 Q1287.62 1520.93 1287.46 1520.48 Q1287.3 1520 1286.98 1519.83 Q1286.65 1519.64 1286.46 1519.61 Q1286.3 1519.58 1285.98 1519.58 Q1284.08 1519.58 1282.31 1521.51 Q1280.54 1523.44 1279.31 1527.76 Q1279.05 1528.56 1278.89 1528.76 Q1278.73 1528.95 1278.25 1528.95 Q1277.44 1528.92 1277.44 1528.27 Q1277.44 1528.01 1277.73 1527.02 Q1278.02 1525.99 1278.7 1524.47 Q1279.41 1522.93 1280.37 1521.54 Q1281.34 1520.12 1282.85 1519.13 Q1284.4 1518.13 1286.17 1518.13 Q1288.59 1518.13 1290.07 1519.71 Q1291.58 1521.25 1291.58 1523.54 Q1291.58 1524.47 1291.32 1525.31 Q1291.1 1526.11 1290.26 1528.27 Q1286.88 1536.97 1286.88 1541.22 Q1286.88 1542.25 1287.04 1543.12 Q1287.23 1543.96 1287.65 1544.79 Q1288.07 1545.6 1288.91 1546.08 Q1289.78 1546.53 1290.97 1546.53 Q1292.48 1546.53 1293.9 1545.82 Q1295.35 1545.08 1296.25 1544.09 Q1297.19 1543.09 1297.73 1542.25 Q1298.31 1541.38 1298.44 1540.93 L1301.4 1529.08 L1302.73 1523.8 Q1303.34 1520.93 1303.63 1520.22 Q1304.01 1519.54 1304.69 1519.19 Q1305.37 1518.84 1305.95 1518.84 Q1306.75 1518.84 1307.3 1519.32 Q1307.88 1519.8 1307.88 1520.64 Z" fill="#000000" fill-rule="evenodd" fill-opacity="1" /><polyline clip-path="url(#clip643)" style="stroke:#000000; stroke-linecap:round; stroke-linejoin:round; stroke-width:2; stroke-opacity:0.1; fill:none" points="
  234.125,1405.18 2352.76,1405.18 
  "/>
<polyline clip-path="url(#clip643)" style="stroke:#000000; stroke-linecap:round; stroke-linejoin:round; stroke-width:2; stroke-opacity:0.1; fill:none" points="
  234.125,1151.73 2352.76,1151.73 
  "/>
<polyline clip-path="url(#clip643)" style="stroke:#000000; stroke-linecap:round; stroke-linejoin:round; stroke-width:2; stroke-opacity:0.1; fill:none" points="
  234.125,898.274 2352.76,898.274 
  "/>
<polyline clip-path="url(#clip643)" style="stroke:#000000; stroke-linecap:round; stroke-linejoin:round; stroke-width:2; stroke-opacity:0.1; fill:none" points="
  234.125,644.822 2352.76,644.822 
  "/>
<polyline clip-path="url(#clip643)" style="stroke:#000000; stroke-linecap:round; stroke-linejoin:round; stroke-width:2; stroke-opacity:0.1; fill:none" points="
  234.125,391.37 2352.76,391.37 
  "/>
<polyline clip-path="url(#clip643)" style="stroke:#000000; stroke-linecap:round; stroke-linejoin:round; stroke-width:2; stroke-opacity:0.1; fill:none" points="
  234.125,137.918 2352.76,137.918 
  "/>
<polyline clip-path="url(#clip640)" style="stroke:#000000; stroke-linecap:round; stroke-linejoin:round; stroke-width:4; stroke-opacity:1; fill:none" points="
  234.125,1423.18 234.125,47.2441 
  "/>
<polyline clip-path="url(#clip640)" style="stroke:#000000; stroke-linecap:round; stroke-linejoin:round; stroke-width:4; stroke-opacity:1; fill:none" points="
  234.125,1405.18 253.023,1405.18 
  "/>
<polyline clip-path="url(#clip640)" style="stroke:#000000; stroke-linecap:round; stroke-linejoin:round; stroke-width:4; stroke-opacity:1; fill:none" points="
  234.125,1151.73 253.023,1151.73 
  "/>
<polyline clip-path="url(#clip640)" style="stroke:#000000; stroke-linecap:round; stroke-linejoin:round; stroke-width:4; stroke-opacity:1; fill:none" points="
  234.125,898.274 253.023,898.274 
  "/>
<polyline clip-path="url(#clip640)" style="stroke:#000000; stroke-linecap:round; stroke-linejoin:round; stroke-width:4; stroke-opacity:1; fill:none" points="
  234.125,644.822 253.023,644.822 
  "/>
<polyline clip-path="url(#clip640)" style="stroke:#000000; stroke-linecap:round; stroke-linejoin:round; stroke-width:4; stroke-opacity:1; fill:none" points="
  234.125,391.37 253.023,391.37 
  "/>
<polyline clip-path="url(#clip640)" style="stroke:#000000; stroke-linecap:round; stroke-linejoin:round; stroke-width:4; stroke-opacity:1; fill:none" points="
  234.125,137.918 253.023,137.918 
  "/>
<path clip-path="url(#clip640)" d="M186.181 1390.98 Q182.57 1390.98 180.741 1394.54 Q178.936 1398.08 178.936 1405.21 Q178.936 1412.32 180.741 1415.88 Q182.57 1419.43 186.181 1419.43 Q189.815 1419.43 191.621 1415.88 Q193.45 1412.32 193.45 1405.21 Q193.45 1398.08 191.621 1394.54 Q189.815 1390.98 186.181 1390.98 M186.181 1387.27 Q191.991 1387.27 195.047 1391.88 Q198.125 1396.46 198.125 1405.21 Q198.125 1413.94 195.047 1418.55 Q191.991 1423.13 186.181 1423.13 Q180.371 1423.13 177.292 1418.55 Q174.237 1413.94 174.237 1405.21 Q174.237 1396.46 177.292 1391.88 Q180.371 1387.27 186.181 1387.27 Z" fill="#000000" fill-rule="evenodd" fill-opacity="1" /><path clip-path="url(#clip640)" d="M146.066 1134.45 L164.422 1134.45 L164.422 1138.38 L150.348 1138.38 L150.348 1146.85 Q151.366 1146.51 152.385 1146.34 Q153.403 1146.16 154.422 1146.16 Q160.209 1146.16 163.589 1149.33 Q166.968 1152.5 166.968 1157.92 Q166.968 1163.5 163.496 1166.6 Q160.024 1169.68 153.704 1169.68 Q151.528 1169.68 149.26 1169.31 Q147.015 1168.94 144.607 1168.2 L144.607 1163.5 Q146.691 1164.63 148.913 1165.19 Q151.135 1165.74 153.612 1165.74 Q157.616 1165.74 159.954 1163.64 Q162.292 1161.53 162.292 1157.92 Q162.292 1154.31 159.954 1152.2 Q157.616 1150.09 153.612 1150.09 Q151.737 1150.09 149.862 1150.51 Q148.01 1150.93 146.066 1151.81 L146.066 1134.45 Z" fill="#000000" fill-rule="evenodd" fill-opacity="1" /><path clip-path="url(#clip640)" d="M186.181 1137.52 Q182.57 1137.52 180.741 1141.09 Q178.936 1144.63 178.936 1151.76 Q178.936 1158.87 180.741 1162.43 Q182.57 1165.97 186.181 1165.97 Q189.815 1165.97 191.621 1162.43 Q193.45 1158.87 193.45 1151.76 Q193.45 1144.63 191.621 1141.09 Q189.815 1137.52 186.181 1137.52 M186.181 1133.82 Q191.991 1133.82 195.047 1138.43 Q198.125 1143.01 198.125 1151.76 Q198.125 1160.49 195.047 1165.09 Q191.991 1169.68 186.181 1169.68 Q180.371 1169.68 177.292 1165.09 Q174.237 1160.49 174.237 1151.76 Q174.237 1143.01 177.292 1138.43 Q180.371 1133.82 186.181 1133.82 Z" fill="#000000" fill-rule="evenodd" fill-opacity="1" /><path clip-path="url(#clip640)" d="M116.668 911.619 L124.306 911.619 L124.306 885.253 L115.996 886.92 L115.996 882.661 L124.26 880.994 L128.936 880.994 L128.936 911.619 L136.575 911.619 L136.575 915.554 L116.668 915.554 L116.668 911.619 Z" fill="#000000" fill-rule="evenodd" fill-opacity="1" /><path clip-path="url(#clip640)" d="M156.019 884.073 Q152.408 884.073 150.579 887.637 Q148.774 891.179 148.774 898.309 Q148.774 905.415 150.579 908.98 Q152.408 912.521 156.019 912.521 Q159.653 912.521 161.459 908.98 Q163.288 905.415 163.288 898.309 Q163.288 891.179 161.459 887.637 Q159.653 884.073 156.019 884.073 M156.019 880.369 Q161.829 880.369 164.885 884.975 Q167.964 889.559 167.964 898.309 Q167.964 907.035 164.885 911.642 Q161.829 916.225 156.019 916.225 Q150.209 916.225 147.13 911.642 Q144.075 907.035 144.075 898.309 Q144.075 889.559 147.13 884.975 Q150.209 880.369 156.019 880.369 Z" fill="#000000" fill-rule="evenodd" fill-opacity="1" /><path clip-path="url(#clip640)" d="M186.181 884.073 Q182.57 884.073 180.741 887.637 Q178.936 891.179 178.936 898.309 Q178.936 905.415 180.741 908.98 Q182.57 912.521 186.181 912.521 Q189.815 912.521 191.621 908.98 Q193.45 905.415 193.45 898.309 Q193.45 891.179 191.621 887.637 Q189.815 884.073 186.181 884.073 M186.181 880.369 Q191.991 880.369 195.047 884.975 Q198.125 889.559 198.125 898.309 Q198.125 907.035 195.047 911.642 Q191.991 916.225 186.181 916.225 Q180.371 916.225 177.292 911.642 Q174.237 907.035 174.237 898.309 Q174.237 889.559 177.292 884.975 Q180.371 880.369 186.181 880.369 Z" fill="#000000" fill-rule="evenodd" fill-opacity="1" /><path clip-path="url(#clip640)" d="M116.668 658.167 L124.306 658.167 L124.306 631.801 L115.996 633.468 L115.996 629.209 L124.26 627.542 L128.936 627.542 L128.936 658.167 L136.575 658.167 L136.575 662.102 L116.668 662.102 L116.668 658.167 Z" fill="#000000" fill-rule="evenodd" fill-opacity="1" /><path clip-path="url(#clip640)" d="M146.066 627.542 L164.422 627.542 L164.422 631.477 L150.348 631.477 L150.348 639.949 Q151.366 639.602 152.385 639.44 Q153.403 639.255 154.422 639.255 Q160.209 639.255 163.589 642.426 Q166.968 645.597 166.968 651.014 Q166.968 656.593 163.496 659.694 Q160.024 662.773 153.704 662.773 Q151.528 662.773 149.26 662.403 Q147.015 662.032 144.607 661.292 L144.607 656.593 Q146.691 657.727 148.913 658.282 Q151.135 658.838 153.612 658.838 Q157.616 658.838 159.954 656.732 Q162.292 654.625 162.292 651.014 Q162.292 647.403 159.954 645.296 Q157.616 643.19 153.612 643.19 Q151.737 643.19 149.862 643.607 Q148.01 644.023 146.066 644.903 L146.066 627.542 Z" fill="#000000" fill-rule="evenodd" fill-opacity="1" /><path clip-path="url(#clip640)" d="M186.181 630.621 Q182.57 630.621 180.741 634.185 Q178.936 637.727 178.936 644.857 Q178.936 651.963 180.741 655.528 Q182.57 659.069 186.181 659.069 Q189.815 659.069 191.621 655.528 Q193.45 651.963 193.45 644.857 Q193.45 637.727 191.621 634.185 Q189.815 630.621 186.181 630.621 M186.181 626.917 Q191.991 626.917 195.047 631.523 Q198.125 636.107 198.125 644.857 Q198.125 653.583 195.047 658.19 Q191.991 662.773 186.181 662.773 Q180.371 662.773 177.292 658.19 Q174.237 653.583 174.237 644.857 Q174.237 636.107 177.292 631.523 Q180.371 626.917 186.181 626.917 Z" fill="#000000" fill-rule="evenodd" fill-opacity="1" /><path clip-path="url(#clip640)" d="M119.885 404.715 L136.204 404.715 L136.204 408.65 L114.26 408.65 L114.26 404.715 Q116.922 401.96 121.505 397.331 Q126.112 392.678 127.292 391.335 Q129.538 388.812 130.417 387.076 Q131.32 385.317 131.32 383.627 Q131.32 380.872 129.376 379.136 Q127.455 377.4 124.353 377.4 Q122.154 377.4 119.7 378.164 Q117.269 378.928 114.492 380.479 L114.492 375.757 Q117.316 374.622 119.769 374.044 Q122.223 373.465 124.26 373.465 Q129.63 373.465 132.825 376.15 Q136.019 378.835 136.019 383.326 Q136.019 385.456 135.209 387.377 Q134.422 389.275 132.316 391.868 Q131.737 392.539 128.635 395.756 Q125.533 398.951 119.885 404.715 Z" fill="#000000" fill-rule="evenodd" fill-opacity="1" /><path clip-path="url(#clip640)" d="M156.019 377.169 Q152.408 377.169 150.579 380.733 Q148.774 384.275 148.774 391.405 Q148.774 398.511 150.579 402.076 Q152.408 405.618 156.019 405.618 Q159.653 405.618 161.459 402.076 Q163.288 398.511 163.288 391.405 Q163.288 384.275 161.459 380.733 Q159.653 377.169 156.019 377.169 M156.019 373.465 Q161.829 373.465 164.885 378.071 Q167.964 382.655 167.964 391.405 Q167.964 400.131 164.885 404.738 Q161.829 409.321 156.019 409.321 Q150.209 409.321 147.13 404.738 Q144.075 400.131 144.075 391.405 Q144.075 382.655 147.13 378.071 Q150.209 373.465 156.019 373.465 Z" fill="#000000" fill-rule="evenodd" fill-opacity="1" /><path clip-path="url(#clip640)" d="M186.181 377.169 Q182.57 377.169 180.741 380.733 Q178.936 384.275 178.936 391.405 Q178.936 398.511 180.741 402.076 Q182.57 405.618 186.181 405.618 Q189.815 405.618 191.621 402.076 Q193.45 398.511 193.45 391.405 Q193.45 384.275 191.621 380.733 Q189.815 377.169 186.181 377.169 M186.181 373.465 Q191.991 373.465 195.047 378.071 Q198.125 382.655 198.125 391.405 Q198.125 400.131 195.047 404.738 Q191.991 409.321 186.181 409.321 Q180.371 409.321 177.292 404.738 Q174.237 400.131 174.237 391.405 Q174.237 382.655 177.292 378.071 Q180.371 373.465 186.181 373.465 Z" fill="#000000" fill-rule="evenodd" fill-opacity="1" /><path clip-path="url(#clip640)" d="M119.885 151.263 L136.204 151.263 L136.204 155.198 L114.26 155.198 L114.26 151.263 Q116.922 148.508 121.505 143.879 Q126.112 139.226 127.292 137.883 Q129.538 135.36 130.417 133.624 Q131.32 131.865 131.32 130.175 Q131.32 127.42 129.376 125.684 Q127.455 123.948 124.353 123.948 Q122.154 123.948 119.7 124.712 Q117.269 125.476 114.492 127.027 L114.492 122.305 Q117.316 121.17 119.769 120.592 Q122.223 120.013 124.26 120.013 Q129.63 120.013 132.825 122.698 Q136.019 125.383 136.019 129.874 Q136.019 132.004 135.209 133.925 Q134.422 135.823 132.316 138.416 Q131.737 139.087 128.635 142.305 Q125.533 145.499 119.885 151.263 Z" fill="#000000" fill-rule="evenodd" fill-opacity="1" /><path clip-path="url(#clip640)" d="M146.066 120.638 L164.422 120.638 L164.422 124.573 L150.348 124.573 L150.348 133.045 Q151.366 132.698 152.385 132.536 Q153.403 132.351 154.422 132.351 Q160.209 132.351 163.589 135.522 Q166.968 138.693 166.968 144.11 Q166.968 149.689 163.496 152.791 Q160.024 155.869 153.704 155.869 Q151.528 155.869 149.26 155.499 Q147.015 155.129 144.607 154.388 L144.607 149.689 Q146.691 150.823 148.913 151.379 Q151.135 151.934 153.612 151.934 Q157.616 151.934 159.954 149.828 Q162.292 147.721 162.292 144.11 Q162.292 140.499 159.954 138.393 Q157.616 136.286 153.612 136.286 Q151.737 136.286 149.862 136.703 Q148.01 137.119 146.066 137.999 L146.066 120.638 Z" fill="#000000" fill-rule="evenodd" fill-opacity="1" /><path clip-path="url(#clip640)" d="M186.181 123.717 Q182.57 123.717 180.741 127.281 Q178.936 130.823 178.936 137.953 Q178.936 145.059 180.741 148.624 Q182.57 152.166 186.181 152.166 Q189.815 152.166 191.621 148.624 Q193.45 145.059 193.45 137.953 Q193.45 130.823 191.621 127.281 Q189.815 123.717 186.181 123.717 M186.181 120.013 Q191.991 120.013 195.047 124.619 Q198.125 129.203 198.125 137.953 Q198.125 146.679 195.047 151.286 Q191.991 155.869 186.181 155.869 Q180.371 155.869 177.292 151.286 Q174.237 146.679 174.237 137.953 Q174.237 129.203 177.292 124.619 Q180.371 120.013 186.181 120.013 Z" fill="#000000" fill-rule="evenodd" fill-opacity="1" /><path clip-path="url(#clip640)" d="M58.657 805.744 L77.5631 805.744 L77.5631 811.632 L28.3562 811.632 L28.3562 805.744 L33.7671 805.744 Q30.5842 803.898 29.0564 801.097 Q27.4968 798.264 27.4968 794.349 Q27.4968 787.856 32.6531 783.814 Q37.8093 779.74 46.212 779.74 Q54.6147 779.74 59.771 783.814 Q64.9272 787.856 64.9272 794.349 Q64.9272 798.264 63.3994 801.097 Q61.8398 803.898 58.657 805.744 M46.212 785.819 Q39.7508 785.819 36.0905 788.493 Q32.3984 791.135 32.3984 795.782 Q32.3984 800.429 36.0905 803.102 Q39.7508 805.744 46.212 805.744 Q52.6732 805.744 56.3653 803.102 Q60.0256 800.429 60.0256 795.782 Q60.0256 791.135 56.3653 788.493 Q52.6732 785.819 46.212 785.819 Z" fill="#000000" fill-rule="evenodd" fill-opacity="1" /><path clip-path="url(#clip640)" d="M33.8307 749.376 Q33.2578 750.362 33.0032 751.54 Q32.7167 752.686 32.7167 754.086 Q32.7167 759.052 35.9632 761.725 Q39.1779 764.367 45.2253 764.367 L64.0042 764.367 L64.0042 770.255 L28.3562 770.255 L28.3562 764.367 L33.8944 764.367 Q30.6479 762.521 29.0883 759.561 Q27.4968 756.601 27.4968 752.368 Q27.4968 751.763 27.5923 751.031 Q27.656 750.299 27.8151 749.407 L33.8307 749.376 Z" fill="#000000" fill-rule="evenodd" fill-opacity="1" /><path clip-path="url(#clip640)" d="M28.3562 743.233 L28.3562 737.376 L64.0042 737.376 L64.0042 743.233 L28.3562 743.233 M14.479 743.233 L14.479 737.376 L21.895 737.376 L21.895 743.233 L14.479 743.233 Z" fill="#000000" fill-rule="evenodd" fill-opacity="1" /><path clip-path="url(#clip640)" d="M29.7248 699.469 L35.1993 699.469 Q33.8307 701.951 33.1623 704.466 Q32.4621 706.948 32.4621 709.495 Q32.4621 715.192 36.0905 718.343 Q39.6872 721.494 46.212 721.494 Q52.7369 721.494 56.3653 718.343 Q59.9619 715.192 59.9619 709.495 Q59.9619 706.948 59.2935 704.466 Q58.5933 701.951 57.2247 699.469 L62.6355 699.469 Q63.7814 701.919 64.3543 704.561 Q64.9272 707.171 64.9272 710.131 Q64.9272 718.184 59.8664 722.926 Q54.8057 727.669 46.212 727.669 Q37.491 727.669 32.4939 722.894 Q27.4968 718.088 27.4968 709.749 Q27.4968 707.044 28.0697 704.466 Q28.6108 701.887 29.7248 699.469 Z" fill="#000000" fill-rule="evenodd" fill-opacity="1" /><path clip-path="url(#clip640)" d="M44.7161 658.792 L47.5806 658.792 L47.5806 685.719 Q53.6281 685.337 56.8109 682.09 Q59.9619 678.812 59.9619 672.987 Q59.9619 669.613 59.1344 666.462 Q58.3069 663.279 56.6518 660.16 L62.1899 660.16 Q63.5267 663.311 64.227 666.621 Q64.9272 669.932 64.9272 673.337 Q64.9272 681.867 59.9619 686.864 Q54.9967 691.83 46.5303 691.83 Q37.7774 691.83 32.6531 687.119 Q27.4968 682.377 27.4968 674.356 Q27.4968 667.163 32.1438 662.993 Q36.7589 658.792 44.7161 658.792 M42.9973 664.648 Q38.1912 664.712 35.3266 667.354 Q32.4621 669.963 32.4621 674.292 Q32.4621 679.194 35.2312 682.154 Q38.0002 685.082 43.0292 685.528 L42.9973 664.648 Z" fill="#000000" fill-rule="evenodd" fill-opacity="1" /><polyline clip-path="url(#clip643)" style="stroke:#009af9; stroke-linecap:round; stroke-linejoin:round; stroke-width:8; stroke-opacity:1; fill:none" points="
  294.087,1384.24 314.276,1382.41 334.465,1380.52 354.654,1378.57 374.843,1376.56 395.032,1374.48 415.221,1372.35 435.409,1370.16 455.598,1367.91 475.787,1365.6 
  495.976,1363.23 516.165,1360.8 536.354,1358.32 556.543,1355.77 576.732,1353.17 596.921,1350.52 617.11,1347.81 637.299,1345.04 657.488,1342.21 677.677,1339.33 
  697.866,1336.39 718.055,1333.4 738.244,1330.36 758.433,1327.26 778.622,1324.1 798.811,1320.89 819,1317.63 839.189,1314.31 859.378,1310.94 879.567,1307.52 
  899.756,1304.04 919.945,1300.51 940.134,1296.93 960.323,1293.3 980.512,1289.61 1000.7,1285.87 1020.89,1282.08 1041.08,1278.24 1061.27,1274.34 1081.46,1270.4 
  1101.65,1266.4 1121.83,1262.35 1142.02,1258.25 1162.21,1254.1 1182.4,1249.89 1202.59,1245.64 1222.78,1241.34 1242.97,1236.98 1263.16,1232.58 1283.35,1228.12 
  1303.54,1223.62 1323.72,1219.06 1343.91,1214.46 1364.1,1209.8 1384.29,1205.1 1404.48,1200.35 1424.67,1195.54 1444.86,1190.69 1465.05,1185.79 1485.24,1180.84 
  1505.42,1175.84 1525.61,1170.79 1545.8,1165.69 1565.99,1160.54 1586.18,1155.35 1606.37,1150.1 1626.56,1144.81 1646.75,1139.47 1666.94,1134.08 1687.13,1128.64 
  1707.31,1123.16 1727.5,1117.63 1747.69,1112.04 1767.88,1106.41 1788.07,1100.74 1808.26,1095.01 1828.45,1089.24 1848.64,1083.42 1868.83,1077.55 1889.02,1071.64 
  1909.2,1065.68 1929.39,1059.67 1949.58,1053.61 1969.77,1047.51 1989.96,1041.36 2010.15,1035.17 2030.34,1028.93 2050.53,1022.64 2070.72,1016.31 2090.9,1009.93 
  2111.09,1003.5 2131.28,997.029 2151.47,990.512 2171.66,983.951 2191.85,977.344 2212.04,970.693 2232.23,963.997 2252.42,957.258 2272.61,950.474 2292.79,943.647 
  
  "/>
<polyline clip-path="url(#clip643)" style="stroke:#e26f46; stroke-linecap:round; stroke-linejoin:round; stroke-width:8; stroke-opacity:1; fill:none" points="
  294.087,1360.2 314.276,1355.83 334.465,1351.28 354.654,1346.55 374.843,1341.64 395.032,1336.54 415.221,1331.25 435.409,1325.79 455.598,1320.14 475.787,1314.31 
  495.976,1308.3 516.165,1302.11 536.354,1295.74 556.543,1289.19 576.732,1282.47 596.921,1275.56 617.11,1268.47 637.299,1261.21 657.488,1253.77 677.677,1246.16 
  697.866,1238.37 718.055,1230.4 738.244,1222.26 758.433,1213.94 778.622,1205.45 798.811,1196.78 819,1187.94 839.189,1178.92 859.378,1169.73 879.567,1160.37 
  899.756,1150.84 919.945,1141.13 940.134,1131.25 960.323,1121.19 980.512,1110.97 1000.7,1100.57 1020.89,1090 1041.08,1079.26 1061.27,1068.35 1081.46,1057.27 
  1101.65,1046.02 1121.83,1034.6 1142.02,1023 1162.21,1011.24 1182.4,999.308 1202.59,987.206 1222.78,974.934 1242.97,962.492 1263.16,949.882 1283.35,937.103 
  1303.54,924.155 1323.72,911.038 1343.91,897.753 1364.1,884.3 1384.29,870.678 1404.48,856.889 1424.67,842.932 1444.86,828.807 1465.05,814.515 1485.24,800.055 
  1505.42,785.429 1525.61,770.635 1545.8,755.674 1565.99,740.547 1586.18,725.253 1606.37,709.793 1626.56,694.166 1646.75,678.373 1666.94,662.414 1687.13,646.289 
  1707.31,629.999 1727.5,613.542 1747.69,596.921 1767.88,580.133 1788.07,563.181 1808.26,546.063 1828.45,528.781 1848.64,511.334 1868.83,493.722 1889.02,475.945 
  1909.2,458.005 1929.39,439.9 1949.58,421.631 1969.77,403.198 1989.96,384.602 2010.15,365.842 2030.34,346.919 2050.53,327.833 2070.72,308.584 2090.9,289.173 
  2111.09,269.599 2131.28,249.863 2151.47,229.966 2171.66,209.907 2191.85,189.687 2212.04,169.306 2232.23,148.765 2252.42,128.065 2272.61,107.205 2292.79,86.1857 
  
  "/>
<path clip-path="url(#clip640)" d="
M304.746 248.629 L691.686 248.629 L691.686 93.1086 L304.746 93.1086  Z
  " fill="#ffffff" fill-rule="evenodd" fill-opacity="1"/>
<polyline clip-path="url(#clip640)" style="stroke:#000000; stroke-linecap:round; stroke-linejoin:round; stroke-width:4; stroke-opacity:1; fill:none" points="
  304.746,248.629 691.686,248.629 691.686,93.1086 304.746,93.1086 304.746,248.629 
  "/>
<polyline clip-path="url(#clip640)" style="stroke:#009af9; stroke-linecap:round; stroke-linejoin:round; stroke-width:8; stroke-opacity:1; fill:none" points="
  328.287,144.949 469.529,144.949 
  "/>
<path clip-path="url(#clip640)" d="M519.185 129.568 Q519.185 130.177 518.928 131.348 Q518.108 134.651 515.039 136.923 Q514.524 137.344 513.611 137.883 Q514.712 138.609 515.672 139.944 Q517.101 142.146 517.101 145.12 Q517.101 146.502 516.726 148.189 Q515.672 152.1 511.971 154.911 Q508.247 157.651 503.82 157.651 Q501.431 157.651 499.791 156.387 Q498.175 155.098 497.543 152.943 L494.287 166.083 Q494.217 166.411 493.795 166.411 L493.561 166.411 Q493.069 166.411 493.069 165.849 L500.471 136.337 Q500.963 134.346 501.759 132.472 Q502.555 130.598 503.656 128.912 Q504.78 127.226 506.069 125.984 Q507.357 124.719 508.95 123.993 Q510.542 123.244 512.229 123.244 Q515.766 123.244 517.78 125.656 Q519.185 127.366 519.185 129.568 M516.492 128.725 Q516.492 127.272 515.906 126.265 Q514.712 124.345 512.182 124.345 Q510.659 124.345 509.207 125.047 Q507.778 125.727 506.631 126.898 Q505.483 128.069 504.499 129.662 Q503.516 131.254 502.789 132.988 Q502.087 134.697 501.618 136.571 L498.737 148.189 Q498.456 149.43 498.456 150.531 Q498.456 153.154 499.909 154.864 Q501.361 156.574 503.867 156.574 Q507.193 156.574 510.05 154.091 Q512.533 151.866 513.564 147.955 Q514.149 145.495 514.149 143.785 Q514.149 141.912 513.47 140.459 Q512.978 139.288 512.018 138.586 Q510.238 139.218 508.434 139.218 Q507.568 139.218 507.099 139.195 Q506.654 139.171 505.998 139.077 Q505.366 138.984 505.061 138.726 Q504.78 138.468 504.78 138.07 Q504.78 137.836 504.827 137.742 Q504.921 137.368 505.225 137.11 Q505.53 136.852 505.881 136.735 Q506.233 136.595 506.818 136.524 Q507.427 136.454 507.825 136.454 Q508.223 136.431 508.903 136.431 Q510.495 136.431 512.112 137.063 Q512.721 136.735 513.376 136.15 Q515.461 134.206 516.164 131.114 Q516.492 129.966 516.492 128.725 M510.589 137.789 Q509.605 137.532 508.856 137.532 Q506.115 137.532 505.975 137.977 Q505.975 138.023 506.069 138.07 Q506.162 138.094 506.373 138.117 Q506.607 138.117 506.795 138.141 Q507.006 138.164 507.357 138.164 Q507.708 138.164 507.896 138.164 Q508.106 138.164 508.481 138.164 Q509.418 138.164 510.589 137.789 Z" fill="#000000" fill-rule="evenodd" fill-opacity="1" /><path clip-path="url(#clip640)" d="M533.255 149.828 Q533.302 149.243 534.215 149.243 L563.61 149.243 Q564.992 149.243 565.016 149.781 Q565.016 150.367 563.704 150.344 L534.543 150.344 Q533.255 150.367 533.255 149.828 M533.255 140.459 Q533.255 139.874 534.262 139.897 L563.564 139.897 Q564.992 139.897 565.016 140.459 Q565.016 140.998 563.798 140.998 L534.215 140.998 Q533.255 140.998 533.255 140.459 Z" fill="#000000" fill-rule="evenodd" fill-opacity="1" /><path clip-path="url(#clip640)" d="M583.507 141.771 Q583.507 134.721 585.287 130.88 Q587.77 125.164 593.625 125.164 Q594.867 125.164 596.155 125.516 Q597.466 125.844 599.106 127.132 Q600.769 128.42 601.776 130.528 Q603.697 134.604 603.697 141.771 Q603.697 148.774 601.917 152.592 Q599.317 158.167 593.578 158.167 Q591.423 158.167 589.222 157.066 Q587.043 155.965 585.662 153.318 Q583.507 149.36 583.507 141.771 M587.489 141.185 Q587.489 148.423 588.004 151.304 Q588.589 154.419 590.182 155.778 Q591.798 157.113 593.578 157.113 Q595.499 157.113 597.092 155.684 Q598.708 154.232 599.2 151.117 Q599.738 148.048 599.715 141.185 Q599.715 134.51 599.247 131.84 Q598.614 128.725 596.928 127.483 Q595.265 126.218 593.578 126.218 Q592.946 126.218 592.267 126.406 Q591.611 126.593 590.651 127.132 Q589.69 127.671 588.941 129.006 Q588.215 130.341 587.863 132.355 Q587.489 134.955 587.489 141.185 Z" fill="#000000" fill-rule="evenodd" fill-opacity="1" /><path clip-path="url(#clip640)" d="M607.983 156.34 Q607.257 155.567 607.257 154.56 Q607.257 153.552 607.983 152.826 Q608.709 152.077 609.81 152.077 Q610.864 152.077 611.566 152.78 Q612.293 153.459 612.293 154.583 Q612.293 155.684 611.52 156.41 Q610.77 157.113 609.81 157.113 Q608.709 157.113 607.983 156.34 Z" fill="#000000" fill-rule="evenodd" fill-opacity="1" /><path clip-path="url(#clip640)" d="M620.454 135.962 Q620.454 133.409 621.203 131.676 Q621.953 129.919 623.522 128.186 Q626.403 125.164 630.572 125.164 Q632.352 125.164 633.922 125.914 Q635.514 126.664 637.013 128.373 Q638.536 130.06 639.449 133.409 Q640.363 136.735 640.363 141.326 Q640.363 148.751 636.756 153.459 Q633.172 158.167 628.324 158.167 Q625.255 158.167 623.452 156.785 Q621.648 155.379 621.648 152.99 Q621.648 151.749 622.351 151.234 Q623.054 150.695 623.85 150.695 Q624.717 150.695 625.396 151.28 Q626.075 151.843 626.075 152.897 Q626.075 153.763 625.513 154.443 Q624.974 155.098 623.569 155.098 Q624.951 156.832 628.277 156.832 Q629.471 156.832 630.666 156.293 Q631.86 155.731 633.149 154.396 Q634.46 153.037 635.257 150.203 Q636.053 147.369 636.053 143.387 L636.053 141.865 Q634.132 146.666 630.057 146.666 Q626.028 146.666 623.241 143.575 Q620.454 140.483 620.454 135.962 M624.763 136.009 Q624.763 140.764 625.63 142.52 Q627.106 145.542 630.104 145.542 Q633.032 145.542 634.484 142.942 Q635.959 140.319 635.959 136.923 Q635.959 132.215 635.186 130.153 Q633.758 126.359 630.572 126.359 Q627.41 126.359 625.771 129.381 Q624.763 131.161 624.763 136.009 Z" fill="#000000" fill-rule="evenodd" fill-opacity="1" /><path clip-path="url(#clip640)" d="M644.396 149.383 Q644.396 147.955 645.169 147.416 Q645.942 146.854 646.761 146.854 Q647.862 146.854 648.495 147.556 Q649.15 148.236 649.15 149.196 Q649.15 150.156 648.495 150.859 Q647.862 151.538 646.761 151.538 Q646.223 151.538 645.942 151.444 Q646.574 153.646 648.495 155.239 Q650.439 156.832 652.992 156.832 Q656.201 156.832 658.121 153.716 Q659.269 151.702 659.269 147.135 Q659.269 143.106 658.402 141.092 Q657.067 138.023 654.327 138.023 Q650.439 138.023 648.143 141.373 Q647.862 141.794 647.534 141.818 Q647.066 141.818 646.949 141.56 Q646.855 141.279 646.855 140.553 L646.855 126.359 Q646.855 125.211 647.324 125.211 Q647.511 125.211 647.909 125.352 Q650.931 126.687 654.28 126.71 Q657.723 126.71 660.815 125.305 Q661.049 125.164 661.19 125.164 Q661.658 125.164 661.681 125.703 Q661.681 125.891 661.283 126.453 Q660.909 126.991 660.089 127.718 Q659.269 128.42 658.215 129.099 Q657.161 129.779 655.615 130.247 Q654.093 130.692 652.406 130.692 Q650.392 130.692 648.331 130.06 L648.331 139.405 Q650.813 136.969 654.421 136.969 Q658.262 136.969 660.909 140.061 Q663.555 143.153 663.555 147.463 Q663.555 151.983 660.417 155.075 Q657.301 158.167 653.085 158.167 Q649.244 158.167 646.808 155.426 Q644.396 152.686 644.396 149.383 Z" fill="#000000" fill-rule="evenodd" fill-opacity="1" /><polyline clip-path="url(#clip640)" style="stroke:#e26f46; stroke-linecap:round; stroke-linejoin:round; stroke-width:8; stroke-opacity:1; fill:none" points="
  328.287,196.789 469.529,196.789 
  "/>
<path clip-path="url(#clip640)" d="M519.185 181.408 Q519.185 182.017 518.928 183.188 Q518.108 186.491 515.039 188.763 Q514.524 189.184 513.611 189.723 Q514.712 190.449 515.672 191.784 Q517.101 193.986 517.101 196.96 Q517.101 198.342 516.726 200.029 Q515.672 203.94 511.971 206.751 Q508.247 209.491 503.82 209.491 Q501.431 209.491 499.791 208.227 Q498.175 206.938 497.543 204.783 L494.287 217.923 Q494.217 218.251 493.795 218.251 L493.561 218.251 Q493.069 218.251 493.069 217.689 L500.471 188.177 Q500.963 186.186 501.759 184.312 Q502.555 182.438 503.656 180.752 Q504.78 179.066 506.069 177.824 Q507.357 176.559 508.95 175.833 Q510.542 175.084 512.229 175.084 Q515.766 175.084 517.78 177.496 Q519.185 179.206 519.185 181.408 M516.492 180.565 Q516.492 179.112 515.906 178.105 Q514.712 176.185 512.182 176.185 Q510.659 176.185 509.207 176.887 Q507.778 177.567 506.631 178.738 Q505.483 179.909 504.499 181.502 Q503.516 183.094 502.789 184.828 Q502.087 186.537 501.618 188.411 L498.737 200.029 Q498.456 201.27 498.456 202.371 Q498.456 204.994 499.909 206.704 Q501.361 208.414 503.867 208.414 Q507.193 208.414 510.05 205.931 Q512.533 203.706 513.564 199.795 Q514.149 197.335 514.149 195.625 Q514.149 193.752 513.47 192.299 Q512.978 191.128 512.018 190.426 Q510.238 191.058 508.434 191.058 Q507.568 191.058 507.099 191.035 Q506.654 191.011 505.998 190.917 Q505.366 190.824 505.061 190.566 Q504.78 190.308 504.78 189.91 Q504.78 189.676 504.827 189.582 Q504.921 189.208 505.225 188.95 Q505.53 188.692 505.881 188.575 Q506.233 188.435 506.818 188.364 Q507.427 188.294 507.825 188.294 Q508.223 188.271 508.903 188.271 Q510.495 188.271 512.112 188.903 Q512.721 188.575 513.376 187.99 Q515.461 186.046 516.164 182.954 Q516.492 181.806 516.492 180.565 M510.589 189.629 Q509.605 189.372 508.856 189.372 Q506.115 189.372 505.975 189.817 Q505.975 189.863 506.069 189.91 Q506.162 189.934 506.373 189.957 Q506.607 189.957 506.795 189.981 Q507.006 190.004 507.357 190.004 Q507.708 190.004 507.896 190.004 Q508.106 190.004 508.481 190.004 Q509.418 190.004 510.589 189.629 Z" fill="#000000" fill-rule="evenodd" fill-opacity="1" /><path clip-path="url(#clip640)" d="M533.255 201.668 Q533.302 201.083 534.215 201.083 L563.61 201.083 Q564.992 201.083 565.016 201.621 Q565.016 202.207 563.704 202.184 L534.543 202.184 Q533.255 202.207 533.255 201.668 M533.255 192.299 Q533.255 191.714 534.262 191.737 L563.564 191.737 Q564.992 191.737 565.016 192.299 Q565.016 192.838 563.798 192.838 L534.215 192.838 Q533.255 192.838 533.255 192.299 Z" fill="#000000" fill-rule="evenodd" fill-opacity="1" /><path clip-path="url(#clip640)" d="M583.507 193.611 Q583.507 186.561 585.287 182.72 Q587.77 177.004 593.625 177.004 Q594.867 177.004 596.155 177.356 Q597.466 177.684 599.106 178.972 Q600.769 180.26 601.776 182.368 Q603.697 186.444 603.697 193.611 Q603.697 200.614 601.917 204.432 Q599.317 210.007 593.578 210.007 Q591.423 210.007 589.222 208.906 Q587.043 207.805 585.662 205.158 Q583.507 201.2 583.507 193.611 M587.489 193.025 Q587.489 200.263 588.004 203.144 Q588.589 206.259 590.182 207.618 Q591.798 208.953 593.578 208.953 Q595.499 208.953 597.092 207.524 Q598.708 206.072 599.2 202.957 Q599.738 199.888 599.715 193.025 Q599.715 186.35 599.247 183.68 Q598.614 180.565 596.928 179.323 Q595.265 178.058 593.578 178.058 Q592.946 178.058 592.267 178.246 Q591.611 178.433 590.651 178.972 Q589.69 179.511 588.941 180.846 Q588.215 182.181 587.863 184.195 Q587.489 186.795 587.489 193.025 Z" fill="#000000" fill-rule="evenodd" fill-opacity="1" /><path clip-path="url(#clip640)" d="M607.983 208.18 Q607.257 207.407 607.257 206.4 Q607.257 205.392 607.983 204.666 Q608.709 203.917 609.81 203.917 Q610.864 203.917 611.566 204.62 Q612.293 205.299 612.293 206.423 Q612.293 207.524 611.52 208.25 Q610.77 208.953 609.81 208.953 Q608.709 208.953 607.983 208.18 Z" fill="#000000" fill-rule="evenodd" fill-opacity="1" /><path clip-path="url(#clip640)" d="M620.454 187.802 Q620.454 185.249 621.203 183.516 Q621.953 181.759 623.522 180.026 Q626.403 177.004 630.572 177.004 Q632.352 177.004 633.922 177.754 Q635.514 178.504 637.013 180.213 Q638.536 181.9 639.449 185.249 Q640.363 188.575 640.363 193.166 Q640.363 200.591 636.756 205.299 Q633.172 210.007 628.324 210.007 Q625.255 210.007 623.452 208.625 Q621.648 207.219 621.648 204.83 Q621.648 203.589 622.351 203.074 Q623.054 202.535 623.85 202.535 Q624.717 202.535 625.396 203.12 Q626.075 203.683 626.075 204.737 Q626.075 205.603 625.513 206.283 Q624.974 206.938 623.569 206.938 Q624.951 208.672 628.277 208.672 Q629.471 208.672 630.666 208.133 Q631.86 207.571 633.149 206.236 Q634.46 204.877 635.257 202.043 Q636.053 199.209 636.053 195.227 L636.053 193.705 Q634.132 198.506 630.057 198.506 Q626.028 198.506 623.241 195.415 Q620.454 192.323 620.454 187.802 M624.763 187.849 Q624.763 192.604 625.63 194.36 Q627.106 197.382 630.104 197.382 Q633.032 197.382 634.484 194.782 Q635.959 192.159 635.959 188.763 Q635.959 184.055 635.186 181.993 Q633.758 178.199 630.572 178.199 Q627.41 178.199 625.771 181.221 Q624.763 183.001 624.763 187.849 Z" fill="#000000" fill-rule="evenodd" fill-opacity="1" /><path clip-path="url(#clip640)" d="M644.396 201.715 Q644.396 196.351 651.305 192.885 Q648.331 190.871 647.792 190.285 Q645.684 187.943 645.684 185.015 Q645.684 181.666 648.214 179.347 Q650.767 177.004 654.374 177.004 Q657.817 177.004 660.417 178.995 Q663.017 180.986 663.017 184.148 Q663.017 188.599 657.208 191.597 Q661.049 193.986 661.963 194.993 Q664.305 197.593 664.305 200.895 Q664.305 204.737 661.354 207.383 Q658.402 210.007 654.327 210.007 Q650.345 210.007 647.37 207.688 Q644.396 205.369 644.396 201.715 M646.785 201.715 Q646.785 204.69 649.01 206.681 Q651.258 208.672 654.374 208.672 Q657.395 208.672 659.644 206.938 Q661.916 205.205 661.916 202.629 Q661.916 201.621 661.564 200.755 Q661.236 199.888 660.557 199.209 Q659.901 198.506 659.48 198.202 Q659.082 197.874 658.309 197.335 L652.406 193.611 Q646.785 196.726 646.785 201.715 M647.792 183.141 Q647.792 185.437 650.204 187.029 L656.154 190.871 Q660.909 188.083 660.909 184.148 Q660.909 181.595 658.964 179.909 Q657.02 178.199 654.327 178.199 Q651.68 178.199 649.736 179.604 Q647.792 180.986 647.792 183.141 Z" fill="#000000" fill-rule="evenodd" fill-opacity="1" /></svg>
