<?xml version="1.0" encoding="utf-8"?>
<svg xmlns="http://www.w3.org/2000/svg" xmlns:xlink="http://www.w3.org/1999/xlink" width="600" height="400" viewBox="0 0 2400 1600">
<defs>
  <clipPath id="clip000">
    <rect x="0" y="0" width="2400" height="1600"/>
  </clipPath>
</defs>
<path clip-path="url(#clip000)" d="
M0 1600 L2400 1600 L2400 0 L0 0  Z
  " fill="#ffffff" fill-rule="evenodd" fill-opacity="1"/>
<defs>
  <clipPath id="clip001">
    <rect x="480" y="0" width="1681" height="1600"/>
  </clipPath>
</defs>
<path clip-path="url(#clip000)" d="
M205.121 1423.18 L2352.76 1423.18 L2352.76 47.2441 L205.121 47.2441  Z
  " fill="#ffffff" fill-rule="evenodd" fill-opacity="1"/>
<defs>
  <clipPath id="clip002">
    <rect x="205" y="47" width="2149" height="1377"/>
  </clipPath>
</defs>
<polyline clip-path="url(#clip002)" style="stroke:#000000; stroke-linecap:butt; stroke-linejoin:round; stroke-width:2; stroke-opacity:0.1; fill:none" points="
  362.728,1423.18 362.728,47.2441 
  "/>
<polyline clip-path="url(#clip002)" style="stroke:#000000; stroke-linecap:butt; stroke-linejoin:round; stroke-width:2; stroke-opacity:0.1; fill:none" points="
  844.213,1423.18 844.213,47.2441 
  "/>
<polyline clip-path="url(#clip002)" style="stroke:#000000; stroke-linecap:butt; stroke-linejoin:round; stroke-width:2; stroke-opacity:0.1; fill:none" points="
  1325.7,1423.18 1325.7,47.2441 
  "/>
<polyline clip-path="url(#clip002)" style="stroke:#000000; stroke-linecap:butt; stroke-linejoin:round; stroke-width:2; stroke-opacity:0.1; fill:none" points="
  1807.18,1423.18 1807.18,47.2441 
  "/>
<polyline clip-path="url(#clip002)" style="stroke:#000000; stroke-linecap:butt; stroke-linejoin:round; stroke-width:2; stroke-opacity:0.1; fill:none" points="
  2288.67,1423.18 2288.67,47.2441 
  "/>
<polyline clip-path="url(#clip000)" style="stroke:#000000; stroke-linecap:butt; stroke-linejoin:round; stroke-width:4; stroke-opacity:1; fill:none" points="
  205.121,1423.18 2352.76,1423.18 
  "/>
<polyline clip-path="url(#clip000)" style="stroke:#000000; stroke-linecap:butt; stroke-linejoin:round; stroke-width:4; stroke-opacity:1; fill:none" points="
  362.728,1423.18 362.728,1404.28 
  "/>
<polyline clip-path="url(#clip000)" style="stroke:#000000; stroke-linecap:butt; stroke-linejoin:round; stroke-width:4; stroke-opacity:1; fill:none" points="
  844.213,1423.18 844.213,1404.28 
  "/>
<polyline clip-path="url(#clip000)" style="stroke:#000000; stroke-linecap:butt; stroke-linejoin:round; stroke-width:4; stroke-opacity:1; fill:none" points="
  1325.7,1423.18 1325.7,1404.28 
  "/>
<polyline clip-path="url(#clip000)" style="stroke:#000000; stroke-linecap:butt; stroke-linejoin:round; stroke-width:4; stroke-opacity:1; fill:none" points="
  1807.18,1423.18 1807.18,1404.28 
  "/>
<polyline clip-path="url(#clip000)" style="stroke:#000000; stroke-linecap:butt; stroke-linejoin:round; stroke-width:4; stroke-opacity:1; fill:none" points="
  2288.67,1423.18 2288.67,1404.28 
  "/>
<path clip-path="url(#clip000)" d="M340.61 1454.1 Q336.999 1454.1 335.171 1457.66 Q333.365 1461.2 333.365 1468.33 Q333.365 1475.44 335.171 1479.01 Q336.999 1482.55 340.61 1482.55 Q344.245 1482.55 346.05 1479.01 Q347.879 1475.44 347.879 1468.33 Q347.879 1461.2 346.05 1457.66 Q344.245 1454.1 340.61 1454.1 M340.61 1450.39 Q346.42 1450.39 349.476 1455 Q352.555 1459.58 352.555 1468.33 Q352.555 1477.06 349.476 1481.67 Q346.42 1486.25 340.61 1486.25 Q334.8 1486.25 331.721 1481.67 Q328.666 1477.06 328.666 1468.33 Q328.666 1459.58 331.721 1455 Q334.8 1450.39 340.61 1450.39 Z" fill="#000000" fill-rule="evenodd" fill-opacity="1" /><path clip-path="url(#clip000)" d="M360.772 1479.7 L365.657 1479.7 L365.657 1485.58 L360.772 1485.58 L360.772 1479.7 Z" fill="#000000" fill-rule="evenodd" fill-opacity="1" /><path clip-path="url(#clip000)" d="M375.888 1451.02 L394.244 1451.02 L394.244 1454.96 L380.17 1454.96 L380.17 1463.43 Q381.189 1463.08 382.207 1462.92 Q383.226 1462.73 384.244 1462.73 Q390.031 1462.73 393.411 1465.9 Q396.791 1469.08 396.791 1474.49 Q396.791 1480.07 393.318 1483.17 Q389.846 1486.25 383.527 1486.25 Q381.351 1486.25 379.082 1485.88 Q376.837 1485.51 374.43 1484.77 L374.43 1480.07 Q376.513 1481.2 378.735 1481.76 Q380.957 1482.32 383.434 1482.32 Q387.439 1482.32 389.777 1480.21 Q392.115 1478.1 392.115 1474.49 Q392.115 1470.88 389.777 1468.77 Q387.439 1466.67 383.434 1466.67 Q381.559 1466.67 379.684 1467.08 Q377.832 1467.5 375.888 1468.38 L375.888 1451.02 Z" fill="#000000" fill-rule="evenodd" fill-opacity="1" /><path clip-path="url(#clip000)" d="M811.366 1481.64 L819.005 1481.64 L819.005 1455.28 L810.695 1456.95 L810.695 1452.69 L818.959 1451.02 L823.635 1451.02 L823.635 1481.64 L831.273 1481.64 L831.273 1485.58 L811.366 1485.58 L811.366 1481.64 Z" fill="#000000" fill-rule="evenodd" fill-opacity="1" /><path clip-path="url(#clip000)" d="M840.718 1479.7 L845.602 1479.7 L845.602 1485.58 L840.718 1485.58 L840.718 1479.7 Z" fill="#000000" fill-rule="evenodd" fill-opacity="1" /><path clip-path="url(#clip000)" d="M865.787 1454.1 Q862.176 1454.1 860.347 1457.66 Q858.542 1461.2 858.542 1468.33 Q858.542 1475.44 860.347 1479.01 Q862.176 1482.55 865.787 1482.55 Q869.421 1482.55 871.227 1479.01 Q873.056 1475.44 873.056 1468.33 Q873.056 1461.2 871.227 1457.66 Q869.421 1454.1 865.787 1454.1 M865.787 1450.39 Q871.597 1450.39 874.653 1455 Q877.732 1459.58 877.732 1468.33 Q877.732 1477.06 874.653 1481.67 Q871.597 1486.25 865.787 1486.25 Q859.977 1486.25 856.898 1481.67 Q853.843 1477.06 853.843 1468.33 Q853.843 1459.58 856.898 1455 Q859.977 1450.39 865.787 1450.39 Z" fill="#000000" fill-rule="evenodd" fill-opacity="1" /><path clip-path="url(#clip000)" d="M1293.35 1481.64 L1300.99 1481.64 L1300.99 1455.28 L1292.68 1456.95 L1292.68 1452.69 L1300.94 1451.02 L1305.62 1451.02 L1305.62 1481.64 L1313.26 1481.64 L1313.26 1485.58 L1293.35 1485.58 L1293.35 1481.64 Z" fill="#000000" fill-rule="evenodd" fill-opacity="1" /><path clip-path="url(#clip000)" d="M1322.7 1479.7 L1327.58 1479.7 L1327.58 1485.58 L1322.7 1485.58 L1322.7 1479.7 Z" fill="#000000" fill-rule="evenodd" fill-opacity="1" /><path clip-path="url(#clip000)" d="M1337.82 1451.02 L1356.17 1451.02 L1356.17 1454.96 L1342.1 1454.96 L1342.1 1463.43 Q1343.12 1463.08 1344.14 1462.92 Q1345.15 1462.73 1346.17 1462.73 Q1351.96 1462.73 1355.34 1465.9 Q1358.72 1469.08 1358.72 1474.49 Q1358.72 1480.07 1355.25 1483.17 Q1351.77 1486.25 1345.45 1486.25 Q1343.28 1486.25 1341.01 1485.88 Q1338.77 1485.51 1336.36 1484.77 L1336.36 1480.07 Q1338.44 1481.2 1340.66 1481.76 Q1342.89 1482.32 1345.36 1482.32 Q1349.37 1482.32 1351.7 1480.21 Q1354.04 1478.1 1354.04 1474.49 Q1354.04 1470.88 1351.7 1468.77 Q1349.37 1466.67 1345.36 1466.67 Q1343.49 1466.67 1341.61 1467.08 Q1339.76 1467.5 1337.82 1468.38 L1337.82 1451.02 Z" fill="#000000" fill-rule="evenodd" fill-opacity="1" /><path clip-path="url(#clip000)" d="M1778.42 1481.64 L1794.74 1481.64 L1794.74 1485.58 L1772.8 1485.58 L1772.8 1481.64 Q1775.46 1478.89 1780.04 1474.26 Q1784.65 1469.61 1785.83 1468.27 Q1788.07 1465.74 1788.95 1464.01 Q1789.86 1462.25 1789.86 1460.56 Q1789.86 1457.8 1787.91 1456.07 Q1785.99 1454.33 1782.89 1454.33 Q1780.69 1454.33 1778.24 1455.09 Q1775.81 1455.86 1773.03 1457.41 L1773.03 1452.69 Q1775.85 1451.55 1778.31 1450.97 Q1780.76 1450.39 1782.8 1450.39 Q1788.17 1450.39 1791.36 1453.08 Q1794.56 1455.77 1794.56 1460.26 Q1794.56 1462.39 1793.75 1464.31 Q1792.96 1466.2 1790.85 1468.8 Q1790.27 1469.47 1787.17 1472.69 Q1784.07 1475.88 1778.42 1481.64 Z" fill="#000000" fill-rule="evenodd" fill-opacity="1" /><path clip-path="url(#clip000)" d="M1804.56 1479.7 L1809.44 1479.7 L1809.44 1485.58 L1804.56 1485.58 L1804.56 1479.7 Z" fill="#000000" fill-rule="evenodd" fill-opacity="1" /><path clip-path="url(#clip000)" d="M1829.63 1454.1 Q1826.01 1454.1 1824.19 1457.66 Q1822.38 1461.2 1822.38 1468.33 Q1822.38 1475.44 1824.19 1479.01 Q1826.01 1482.55 1829.63 1482.55 Q1833.26 1482.55 1835.06 1479.01 Q1836.89 1475.44 1836.89 1468.33 Q1836.89 1461.2 1835.06 1457.66 Q1833.26 1454.1 1829.63 1454.1 M1829.63 1450.39 Q1835.44 1450.39 1838.49 1455 Q1841.57 1459.58 1841.57 1468.33 Q1841.57 1477.06 1838.49 1481.67 Q1835.44 1486.25 1829.63 1486.25 Q1823.81 1486.25 1820.74 1481.67 Q1817.68 1477.06 1817.68 1468.33 Q1817.68 1459.58 1820.74 1455 Q1823.81 1450.39 1829.63 1450.39 Z" fill="#000000" fill-rule="evenodd" fill-opacity="1" /><path clip-path="url(#clip000)" d="M2260.4 1481.64 L2276.72 1481.64 L2276.72 1485.58 L2254.78 1485.58 L2254.78 1481.64 Q2257.44 1478.89 2262.02 1474.26 Q2266.63 1469.61 2267.81 1468.27 Q2270.06 1465.74 2270.94 1464.01 Q2271.84 1462.25 2271.84 1460.56 Q2271.84 1457.8 2269.89 1456.07 Q2267.97 1454.33 2264.87 1454.33 Q2262.67 1454.33 2260.22 1455.09 Q2257.79 1455.86 2255.01 1457.41 L2255.01 1452.69 Q2257.83 1451.55 2260.29 1450.97 Q2262.74 1450.39 2264.78 1450.39 Q2270.15 1450.39 2273.34 1453.08 Q2276.54 1455.77 2276.54 1460.26 Q2276.54 1462.39 2275.73 1464.31 Q2274.94 1466.2 2272.83 1468.8 Q2272.26 1469.47 2269.15 1472.69 Q2266.05 1475.88 2260.4 1481.64 Z" fill="#000000" fill-rule="evenodd" fill-opacity="1" /><path clip-path="url(#clip000)" d="M2286.54 1479.7 L2291.42 1479.7 L2291.42 1485.58 L2286.54 1485.58 L2286.54 1479.7 Z" fill="#000000" fill-rule="evenodd" fill-opacity="1" /><path clip-path="url(#clip000)" d="M2301.65 1451.02 L2320.01 1451.02 L2320.01 1454.96 L2305.94 1454.96 L2305.94 1463.43 Q2306.95 1463.08 2307.97 1462.92 Q2308.99 1462.73 2310.01 1462.73 Q2315.8 1462.73 2319.18 1465.9 Q2322.56 1469.08 2322.56 1474.49 Q2322.56 1480.07 2319.08 1483.17 Q2315.61 1486.25 2309.29 1486.25 Q2307.12 1486.25 2304.85 1485.88 Q2302.6 1485.51 2300.2 1484.77 L2300.2 1480.07 Q2302.28 1481.2 2304.5 1481.76 Q2306.72 1482.32 2309.2 1482.32 Q2313.2 1482.32 2315.54 1480.21 Q2317.88 1478.1 2317.88 1474.49 Q2317.88 1470.88 2315.54 1468.77 Q2313.2 1466.67 2309.2 1466.67 Q2307.33 1466.67 2305.45 1467.08 Q2303.6 1467.5 2301.65 1468.38 L2301.65 1451.02 Z" fill="#000000" fill-rule="evenodd" fill-opacity="1" /><path clip-path="url(#clip000)" d="M1293.38 1537.27 Q1293.38 1537.72 1293.09 1538.79 L1286.77 1563.97 Q1285.39 1569.57 1280.88 1573.5 Q1276.4 1577.43 1271.31 1577.43 Q1268.26 1577.43 1266.29 1575.79 Q1264.33 1574.18 1264.33 1571.7 Q1264.33 1569.51 1265.49 1568.45 Q1266.65 1567.42 1268.03 1567.42 Q1268.48 1567.42 1268.96 1567.55 Q1269.45 1567.67 1269.96 1568.22 Q1270.48 1568.77 1270.48 1569.7 Q1270.48 1571.22 1269.16 1572.41 Q1268.51 1572.96 1267.9 1573.08 Q1267.32 1573.21 1266.32 1573.21 Q1266.71 1574.12 1267.42 1574.73 Q1268.13 1575.34 1268.93 1575.56 Q1269.74 1575.82 1270.25 1575.89 Q1270.8 1575.98 1271.31 1575.98 Q1275.44 1575.98 1278.59 1571.83 Q1279.53 1570.57 1280.2 1569.32 Q1280.91 1568.09 1281.43 1566.58 Q1281.94 1565.1 1282.17 1564.29 Q1282.43 1563.49 1282.88 1561.65 Q1279.88 1564.65 1276.21 1564.65 Q1274.66 1564.65 1273.28 1564.23 Q1271.93 1563.81 1270.74 1562.94 Q1269.54 1562.04 1268.84 1560.46 Q1268.16 1558.88 1268.16 1556.79 Q1268.16 1554.57 1269.03 1551.54 Q1269.9 1548.51 1271.99 1542.94 Q1273.12 1539.82 1273.12 1538.3 Q1273.12 1537.56 1272.96 1537.11 Q1272.8 1536.63 1272.47 1536.47 Q1272.15 1536.27 1271.96 1536.24 Q1271.8 1536.21 1271.48 1536.21 Q1269.58 1536.21 1267.8 1538.14 Q1266.03 1540.07 1264.81 1544.39 Q1264.55 1545.19 1264.39 1545.39 Q1264.23 1545.58 1263.75 1545.58 Q1262.94 1545.55 1262.94 1544.9 Q1262.94 1544.65 1263.23 1543.65 Q1263.52 1542.62 1264.2 1541.1 Q1264.91 1539.56 1265.87 1538.17 Q1266.84 1536.76 1268.35 1535.76 Q1269.9 1534.76 1271.67 1534.76 Q1274.08 1534.76 1275.57 1536.34 Q1277.08 1537.88 1277.08 1540.17 Q1277.08 1541.1 1276.82 1541.94 Q1276.6 1542.75 1275.76 1544.9 Q1272.38 1553.6 1272.38 1557.85 Q1272.38 1558.88 1272.54 1559.75 Q1272.73 1560.59 1273.15 1561.43 Q1273.57 1562.23 1274.41 1562.71 Q1275.28 1563.17 1276.47 1563.17 Q1277.98 1563.17 1279.4 1562.46 Q1280.85 1561.72 1281.75 1560.72 Q1282.68 1559.72 1283.23 1558.88 Q1283.81 1558.01 1283.94 1557.56 L1286.9 1545.71 L1288.22 1540.43 Q1288.83 1537.56 1289.12 1536.85 Q1289.51 1536.18 1290.19 1535.82 Q1290.86 1535.47 1291.44 1535.47 Q1292.25 1535.47 1292.8 1535.95 Q1293.38 1536.43 1293.38 1537.27 Z" fill="#000000" fill-rule="evenodd" fill-opacity="1" /><polyline clip-path="url(#clip002)" style="stroke:#000000; stroke-linecap:butt; stroke-linejoin:round; stroke-width:2; stroke-opacity:0.1; fill:none" points="
  205.121,1147.25 2352.76,1147.25 
  "/>
<polyline clip-path="url(#clip002)" style="stroke:#000000; stroke-linecap:butt; stroke-linejoin:round; stroke-width:2; stroke-opacity:0.1; fill:none" points="
  205.121,848.561 2352.76,848.561 
  "/>
<polyline clip-path="url(#clip002)" style="stroke:#000000; stroke-linecap:butt; stroke-linejoin:round; stroke-width:2; stroke-opacity:0.1; fill:none" points="
  205.121,549.877 2352.76,549.877 
  "/>
<polyline clip-path="url(#clip002)" style="stroke:#000000; stroke-linecap:butt; stroke-linejoin:round; stroke-width:2; stroke-opacity:0.1; fill:none" points="
  205.121,251.193 2352.76,251.193 
  "/>
<polyline clip-path="url(#clip000)" style="stroke:#000000; stroke-linecap:butt; stroke-linejoin:round; stroke-width:4; stroke-opacity:1; fill:none" points="
  205.121,1423.18 205.121,47.2441 
  "/>
<polyline clip-path="url(#clip000)" style="stroke:#000000; stroke-linecap:butt; stroke-linejoin:round; stroke-width:4; stroke-opacity:1; fill:none" points="
  205.121,1147.25 224.019,1147.25 
  "/>
<polyline clip-path="url(#clip000)" style="stroke:#000000; stroke-linecap:butt; stroke-linejoin:round; stroke-width:4; stroke-opacity:1; fill:none" points="
  205.121,848.561 224.019,848.561 
  "/>
<polyline clip-path="url(#clip000)" style="stroke:#000000; stroke-linecap:butt; stroke-linejoin:round; stroke-width:4; stroke-opacity:1; fill:none" points="
  205.121,549.877 224.019,549.877 
  "/>
<polyline clip-path="url(#clip000)" style="stroke:#000000; stroke-linecap:butt; stroke-linejoin:round; stroke-width:4; stroke-opacity:1; fill:none" points="
  205.121,251.193 224.019,251.193 
  "/>
<path clip-path="url(#clip000)" d="M121.043 1160.59 L137.362 1160.59 L137.362 1164.53 L115.418 1164.53 L115.418 1160.59 Q118.08 1157.84 122.663 1153.21 Q127.269 1148.55 128.45 1147.21 Q130.695 1144.69 131.575 1142.95 Q132.478 1141.19 132.478 1139.5 Q132.478 1136.75 130.533 1135.01 Q128.612 1133.28 125.51 1133.28 Q123.311 1133.28 120.857 1134.04 Q118.427 1134.8 115.649 1136.35 L115.649 1131.63 Q118.473 1130.5 120.927 1129.92 Q123.38 1129.34 125.418 1129.34 Q130.788 1129.34 133.982 1132.03 Q137.177 1134.71 137.177 1139.2 Q137.177 1141.33 136.367 1143.25 Q135.579 1145.15 133.473 1147.74 Q132.894 1148.41 129.792 1151.63 Q126.691 1154.83 121.043 1160.59 Z" fill="#000000" fill-rule="evenodd" fill-opacity="1" /><path clip-path="url(#clip000)" d="M157.177 1133.04 Q153.566 1133.04 151.737 1136.61 Q149.931 1140.15 149.931 1147.28 Q149.931 1154.39 151.737 1157.95 Q153.566 1161.49 157.177 1161.49 Q160.811 1161.49 162.616 1157.95 Q164.445 1154.39 164.445 1147.28 Q164.445 1140.15 162.616 1136.61 Q160.811 1133.04 157.177 1133.04 M157.177 1129.34 Q162.987 1129.34 166.042 1133.95 Q169.121 1138.53 169.121 1147.28 Q169.121 1156.01 166.042 1160.61 Q162.987 1165.2 157.177 1165.2 Q151.366 1165.2 148.288 1160.61 Q145.232 1156.01 145.232 1147.28 Q145.232 1138.53 148.288 1133.95 Q151.366 1129.34 157.177 1129.34 Z" fill="#000000" fill-rule="evenodd" fill-opacity="1" /><path clip-path="url(#clip000)" d="M129.862 835.355 L118.056 853.804 L129.862 853.804 L129.862 835.355 M128.635 831.281 L134.515 831.281 L134.515 853.804 L139.445 853.804 L139.445 857.693 L134.515 857.693 L134.515 865.841 L129.862 865.841 L129.862 857.693 L114.26 857.693 L114.26 853.179 L128.635 831.281 Z" fill="#000000" fill-rule="evenodd" fill-opacity="1" /><path clip-path="url(#clip000)" d="M157.177 834.36 Q153.566 834.36 151.737 837.925 Q149.931 841.467 149.931 848.596 Q149.931 855.703 151.737 859.267 Q153.566 862.809 157.177 862.809 Q160.811 862.809 162.616 859.267 Q164.445 855.703 164.445 848.596 Q164.445 841.467 162.616 837.925 Q160.811 834.36 157.177 834.36 M157.177 830.656 Q162.987 830.656 166.042 835.263 Q169.121 839.846 169.121 848.596 Q169.121 857.323 166.042 861.929 Q162.987 866.513 157.177 866.513 Q151.366 866.513 148.288 861.929 Q145.232 857.323 145.232 848.596 Q145.232 839.846 148.288 835.263 Q151.366 830.656 157.177 830.656 Z" fill="#000000" fill-rule="evenodd" fill-opacity="1" /><path clip-path="url(#clip000)" d="M127.593 548.014 Q124.445 548.014 122.593 550.167 Q120.765 552.32 120.765 556.07 Q120.765 559.796 122.593 561.972 Q124.445 564.125 127.593 564.125 Q130.742 564.125 132.57 561.972 Q134.422 559.796 134.422 556.07 Q134.422 552.32 132.57 550.167 Q130.742 548.014 127.593 548.014 M136.876 533.361 L136.876 537.621 Q135.117 536.787 133.311 536.347 Q131.529 535.908 129.769 535.908 Q125.14 535.908 122.686 539.033 Q120.255 542.158 119.908 548.477 Q121.274 546.463 123.334 545.398 Q125.394 544.31 127.871 544.31 Q133.08 544.31 136.089 547.482 Q139.121 550.63 139.121 556.07 Q139.121 561.394 135.973 564.611 Q132.825 567.829 127.593 567.829 Q121.598 567.829 118.427 563.245 Q115.256 558.639 115.256 549.912 Q115.256 541.718 119.144 536.857 Q123.033 531.972 129.584 531.972 Q131.343 531.972 133.126 532.32 Q134.931 532.667 136.876 533.361 Z" fill="#000000" fill-rule="evenodd" fill-opacity="1" /><path clip-path="url(#clip000)" d="M157.177 535.676 Q153.566 535.676 151.737 539.241 Q149.931 542.783 149.931 549.912 Q149.931 557.019 151.737 560.583 Q153.566 564.125 157.177 564.125 Q160.811 564.125 162.616 560.583 Q164.445 557.019 164.445 549.912 Q164.445 542.783 162.616 539.241 Q160.811 535.676 157.177 535.676 M157.177 531.972 Q162.987 531.972 166.042 536.579 Q169.121 541.162 169.121 549.912 Q169.121 558.639 166.042 563.245 Q162.987 567.829 157.177 567.829 Q151.366 567.829 148.288 563.245 Q145.232 558.639 145.232 549.912 Q145.232 541.162 148.288 536.579 Q151.366 531.972 157.177 531.972 Z" fill="#000000" fill-rule="evenodd" fill-opacity="1" /><path clip-path="url(#clip000)" d="M127.015 252.062 Q123.681 252.062 121.76 253.844 Q119.862 255.626 119.862 258.751 Q119.862 261.876 121.76 263.659 Q123.681 265.441 127.015 265.441 Q130.348 265.441 132.269 263.659 Q134.191 261.853 134.191 258.751 Q134.191 255.626 132.269 253.844 Q130.371 252.062 127.015 252.062 M122.339 250.071 Q119.33 249.33 117.64 247.27 Q115.973 245.21 115.973 242.247 Q115.973 238.103 118.913 235.696 Q121.876 233.288 127.015 233.288 Q132.177 233.288 135.117 235.696 Q138.056 238.103 138.056 242.247 Q138.056 245.21 136.367 247.27 Q134.7 249.33 131.714 250.071 Q135.093 250.858 136.968 253.149 Q138.867 255.441 138.867 258.751 Q138.867 263.774 135.788 266.46 Q132.732 269.145 127.015 269.145 Q121.297 269.145 118.218 266.46 Q115.163 263.774 115.163 258.751 Q115.163 255.441 117.061 253.149 Q118.959 250.858 122.339 250.071 M120.626 242.687 Q120.626 245.372 122.293 246.876 Q123.982 248.381 127.015 248.381 Q130.024 248.381 131.714 246.876 Q133.427 245.372 133.427 242.687 Q133.427 240.001 131.714 238.497 Q130.024 236.992 127.015 236.992 Q123.982 236.992 122.293 238.497 Q120.626 240.001 120.626 242.687 Z" fill="#000000" fill-rule="evenodd" fill-opacity="1" /><path clip-path="url(#clip000)" d="M157.177 236.992 Q153.566 236.992 151.737 240.557 Q149.931 244.099 149.931 251.228 Q149.931 258.335 151.737 261.899 Q153.566 265.441 157.177 265.441 Q160.811 265.441 162.616 261.899 Q164.445 258.335 164.445 251.228 Q164.445 244.099 162.616 240.557 Q160.811 236.992 157.177 236.992 M157.177 233.288 Q162.987 233.288 166.042 237.895 Q169.121 242.478 169.121 251.228 Q169.121 259.955 166.042 264.561 Q162.987 269.145 157.177 269.145 Q151.366 269.145 148.288 264.561 Q145.232 259.955 145.232 251.228 Q145.232 242.478 148.288 237.895 Q151.366 233.288 157.177 233.288 Z" fill="#000000" fill-rule="evenodd" fill-opacity="1" /><path clip-path="url(#clip000)" d="M58.657 805.744 L77.5631 805.744 L77.5631 811.632 L28.3562 811.632 L28.3562 805.744 L33.7671 805.744 Q30.5842 803.898 29.0564 801.097 Q27.4968 798.264 27.4968 794.349 Q27.4968 787.856 32.6531 783.814 Q37.8093 779.74 46.212 779.74 Q54.6147 779.74 59.771 783.814 Q64.9272 787.856 64.9272 794.349 Q64.9272 798.264 63.3994 801.097 Q61.8398 803.898 58.657 805.744 M46.212 785.819 Q39.7508 785.819 36.0905 788.493 Q32.3984 791.135 32.3984 795.782 Q32.3984 800.429 36.0905 803.102 Q39.7508 805.744 46.212 805.744 Q52.6732 805.744 56.3653 803.102 Q60.0256 800.429 60.0256 795.782 Q60.0256 791.135 56.3653 788.493 Q52.6732 785.819 46.212 785.819 Z" fill="#000000" fill-rule="evenodd" fill-opacity="1" /><path clip-path="url(#clip000)" d="M33.8307 749.376 Q33.2578 750.362 33.0032 751.54 Q32.7167 752.686 32.7167 754.086 Q32.7167 759.052 35.9632 761.725 Q39.1779 764.367 45.2253 764.367 L64.0042 764.367 L64.0042 770.255 L28.3562 770.255 L28.3562 764.367 L33.8944 764.367 Q30.6479 762.521 29.0883 759.561 Q27.4968 756.601 27.4968 752.368 Q27.4968 751.763 27.5923 751.031 Q27.656 750.299 27.8151 749.407 L33.8307 749.376 Z" fill="#000000" fill-rule="evenodd" fill-opacity="1" /><path clip-path="url(#clip000)" d="M28.3562 743.233 L28.3562 737.376 L64.0042 737.376 L64.0042 743.233 L28.3562 743.233 M14.479 743.233 L14.479 737.376 L21.895 737.376 L21.895 743.233 L14.479 743.233 Z" fill="#000000" fill-rule="evenodd" fill-opacity="1" /><path clip-path="url(#clip000)" d="M29.7248 699.469 L35.1993 699.469 Q33.8307 701.951 33.1623 704.466 Q32.4621 706.948 32.4621 709.495 Q32.4621 715.192 36.0905 718.343 Q39.6872 721.494 46.212 721.494 Q52.7369 721.494 56.3653 718.343 Q59.9619 715.192 59.9619 709.495 Q59.9619 706.948 59.2935 704.466 Q58.5933 701.951 57.2247 699.469 L62.6355 699.469 Q63.7814 701.919 64.3543 704.561 Q64.9272 707.171 64.9272 710.131 Q64.9272 718.184 59.8664 722.926 Q54.8057 727.669 46.212 727.669 Q37.491 727.669 32.4939 722.894 Q27.4968 718.088 27.4968 709.749 Q27.4968 707.044 28.0697 704.466 Q28.6108 701.887 29.7248 699.469 Z" fill="#000000" fill-rule="evenodd" fill-opacity="1" /><path clip-path="url(#clip000)" d="M44.7161 658.792 L47.5806 658.792 L47.5806 685.719 Q53.6281 685.337 56.8109 682.09 Q59.9619 678.812 59.9619 672.987 Q59.9619 669.613 59.1344 666.462 Q58.3069 663.279 56.6518 660.16 L62.1899 660.16 Q63.5267 663.311 64.227 666.621 Q64.9272 669.932 64.9272 673.337 Q64.9272 681.867 59.9619 686.864 Q54.9967 691.83 46.5303 691.83 Q37.7774 691.83 32.6531 687.119 Q27.4968 682.377 27.4968 674.356 Q27.4968 667.163 32.1438 662.993 Q36.7589 658.792 44.7161 658.792 M42.9973 664.648 Q38.1912 664.712 35.3266 667.354 Q32.4621 669.963 32.4621 674.292 Q32.4621 679.194 35.2312 682.154 Q38.0002 685.082 43.0292 685.528 L42.9973 664.648 Z" fill="#000000" fill-rule="evenodd" fill-opacity="1" /><polyline clip-path="url(#clip002)" style="stroke:#009af9; stroke-linecap:butt; stroke-linejoin:round; stroke-width:8; stroke-opacity:1; fill:none" points="
  265.903,1384.24 286.368,1378.85 306.834,1373.28 327.299,1367.53 347.765,1361.61 368.23,1355.5 388.695,1349.22 409.161,1342.76 429.626,1336.13 450.091,1329.32 
  470.557,1322.34 491.022,1315.19 511.487,1307.87 531.953,1300.38 552.418,1292.72 572.884,1284.89 593.349,1276.9 613.814,1268.74 634.28,1260.42 654.745,1251.93 
  675.21,1243.28 695.676,1234.47 716.141,1225.5 736.606,1216.36 757.072,1207.07 777.537,1197.61 798.002,1188 818.468,1178.23 838.933,1168.3 859.399,1158.22 
  879.864,1147.97 900.329,1137.57 920.795,1127.02 941.26,1116.31 961.725,1105.45 982.191,1094.43 1002.66,1083.26 1023.12,1071.94 1043.59,1060.47 1064.05,1048.84 
  1084.52,1037.06 1104.98,1025.13 1125.45,1013.05 1145.91,1000.82 1166.38,988.438 1186.84,975.908 1207.31,963.229 1227.78,950.4 1248.24,937.424 1268.71,924.299 
  1289.17,911.027 1309.64,897.608 1330.1,884.041 1350.57,870.328 1371.03,856.468 1391.5,842.462 1411.96,828.311 1432.43,814.014 1452.89,799.572 1473.36,784.986 
  1493.82,770.255 1514.29,755.379 1534.76,740.36 1555.22,725.197 1575.69,709.89 1596.15,694.441 1616.62,678.848 1637.08,663.113 1657.55,647.236 1678.01,631.217 
  1698.48,615.056 1718.94,598.754 1739.41,582.31 1759.87,565.725 1780.34,549 1800.81,532.134 1821.27,515.128 1841.74,497.982 1862.2,480.697 1882.67,463.273 
  1903.13,445.71 1923.6,428.008 1944.06,410.168 1964.53,392.19 1984.99,374.075 2005.46,355.823 2025.92,337.435 2046.39,318.91 2066.85,300.249 2087.32,281.453 
  2107.79,262.522 2128.25,243.458 2148.72,224.259 2169.18,204.927 2189.65,185.464 2210.11,165.868 2230.58,146.142 2251.04,126.285 2271.51,106.3 2291.97,86.1857 
  
  "/>
<path clip-path="url(#clip000)" d="
M276.709 198.901 L645.541 198.901 L645.541 93.1086 L276.709 93.1086  Z
  " fill="#ffffff" fill-rule="evenodd" fill-opacity="1"/>
<polyline clip-path="url(#clip000)" style="stroke:#000000; stroke-linecap:butt; stroke-linejoin:round; stroke-width:4; stroke-opacity:1; fill:none" points="
  276.709,198.901 645.541,198.901 645.541,93.1086 276.709,93.1086 276.709,198.901 
  "/>
<polyline clip-path="url(#clip000)" style="stroke:#009af9; stroke-linecap:butt; stroke-linejoin:round; stroke-width:4; stroke-opacity:1; fill:none" points="
  300.571,146.005 443.747,146.005 
  "/>
<path clip-path="url(#clip000)" d="M492.672 153.952 Q492.672 157.371 490.938 160.674 Q489.229 163.976 486.535 166.014 Q483.841 168.028 481.101 168.028 Q479.461 168.028 478.361 167.138 Q477.283 166.225 476.698 164.937 Q476.253 166.529 475.292 170.347 Q474.332 174.165 474.332 174.54 Q474.332 174.751 474.379 174.844 Q474.426 174.938 474.636 175.055 Q474.847 175.196 475.363 175.243 Q475.878 175.313 476.744 175.313 Q477.189 175.313 477.353 175.313 Q477.541 175.336 477.705 175.453 Q477.892 175.571 477.892 175.828 Q477.892 176.788 477.026 176.788 Q476.253 176.788 474.66 176.718 Q473.067 176.648 472.271 176.648 Q471.592 176.648 470.233 176.718 Q468.875 176.788 468.242 176.788 Q467.61 176.788 467.61 176.226 Q467.61 175.898 467.703 175.688 Q467.774 175.5 467.961 175.407 Q468.148 175.336 468.312 175.313 Q468.453 175.313 468.734 175.313 Q469.811 175.313 470.28 175.125 Q470.748 174.962 470.912 174.61 Q471.1 174.282 471.31 173.345 L476.698 151.984 Q477.026 150.555 477.026 149.548 Q477.026 148.283 476.627 147.815 Q476.229 147.346 475.526 147.346 Q474.309 147.346 473.512 148.799 Q472.716 150.251 472.037 153.062 Q471.826 153.834 471.685 153.998 Q471.568 154.162 471.217 154.162 Q470.631 154.139 470.631 153.671 Q470.631 153.553 470.819 152.804 Q471.006 152.031 471.357 150.907 Q471.732 149.759 472.13 149.033 Q472.364 148.541 472.575 148.213 Q472.786 147.885 473.208 147.37 Q473.653 146.855 474.285 146.574 Q474.917 146.292 475.69 146.292 Q477.189 146.292 478.431 147.183 Q479.672 148.073 480 149.876 Q481.335 148.307 482.975 147.3 Q484.614 146.292 486.277 146.292 Q489.041 146.292 490.845 148.447 Q492.672 150.579 492.672 153.952 M489.205 151.844 Q489.205 149.712 488.385 148.541 Q487.589 147.346 486.137 147.346 Q484.333 147.346 482.249 149.173 Q480.188 150.907 479.766 152.523 L477.4 161.915 L477.26 162.688 Q477.26 162.829 477.33 163.25 Q477.424 163.648 477.681 164.304 Q477.962 164.96 478.337 165.546 Q478.735 166.108 479.438 166.529 Q480.164 166.951 481.054 166.951 Q482.483 166.951 484.029 165.686 Q485.598 164.421 486.769 162.032 Q487.495 160.486 488.339 157.16 Q489.205 153.811 489.205 151.844 Z" fill="#000000" fill-rule="evenodd" fill-opacity="1" /><path clip-path="url(#clip000)" d="M506.855 136.601 Q506.855 136.027 507.626 135.65 L512.299 133.436 L507.56 131.223 Q506.855 130.895 506.855 130.321 Q506.855 129.993 507.118 129.698 Q507.397 129.387 507.757 129.387 Q508.02 129.387 508.495 129.747 L512.66 132.764 Q512.151 127.222 512.168 127.059 Q512.168 126.731 512.414 126.485 Q512.66 126.222 513.069 126.222 Q513.397 126.222 513.66 126.468 Q513.938 126.698 513.938 127.059 L513.447 132.764 L517.168 130.01 Q518.037 129.37 518.349 129.387 Q518.726 129.387 518.988 129.682 Q519.251 129.977 519.251 130.321 Q519.251 130.895 518.48 131.256 L513.807 133.469 L518.546 135.699 Q519.251 136.027 519.251 136.601 Q519.251 136.929 518.972 137.24 Q518.71 137.535 518.349 137.535 Q518.152 137.535 517.808 137.339 Q517.742 137.306 517.037 136.781 Q516.332 136.257 515.234 135.453 Q514.152 134.65 513.447 134.141 Q513.955 139.683 513.938 139.847 Q513.938 140.175 513.692 140.437 Q513.447 140.7 513.037 140.7 Q512.709 140.7 512.43 140.47 Q512.168 140.224 512.168 139.847 L512.66 134.141 L507.97 137.535 Q507.462 137.535 507.183 137.289 Q506.921 137.027 506.888 136.88 Q506.855 136.732 506.855 136.601 Z" fill="#000000" fill-rule="evenodd" fill-opacity="1" /><path clip-path="url(#clip000)" d="M537.914 155.497 Q537.914 147.393 540.935 140.858 Q542.223 138.118 544.027 135.823 Q545.831 133.527 547.025 132.52 Q548.22 131.513 548.548 131.513 Q549.016 131.513 549.039 131.981 Q549.039 132.216 548.407 132.801 Q540.678 140.671 540.701 155.497 Q540.701 170.371 548.22 177.936 Q549.039 178.756 549.039 179.014 Q549.039 179.482 548.548 179.482 Q548.22 179.482 547.072 178.522 Q545.924 177.561 544.144 175.36 Q542.364 173.158 541.076 170.464 Q537.914 163.93 537.914 155.497 Z" fill="#000000" fill-rule="evenodd" fill-opacity="1" /><path clip-path="url(#clip000)" d="M574.816 148.119 Q574.816 148.447 574.605 149.22 L570.014 167.537 Q569.007 171.612 565.728 174.47 Q562.472 177.327 558.771 177.327 Q556.546 177.327 555.117 176.133 Q553.688 174.962 553.688 173.158 Q553.688 171.565 554.532 170.792 Q555.375 170.043 556.382 170.043 Q556.71 170.043 557.061 170.137 Q557.413 170.23 557.787 170.628 Q558.162 171.027 558.162 171.706 Q558.162 172.807 557.202 173.673 Q556.733 174.071 556.288 174.165 Q555.867 174.259 555.141 174.259 Q555.422 174.915 555.937 175.36 Q556.452 175.805 557.038 175.969 Q557.623 176.156 557.998 176.203 Q558.396 176.273 558.771 176.273 Q561.769 176.273 564.065 173.252 Q564.744 172.338 565.236 171.425 Q565.751 170.535 566.126 169.434 Q566.501 168.356 566.664 167.771 Q566.852 167.185 567.18 165.85 Q565.002 168.028 562.331 168.028 Q561.207 168.028 560.2 167.724 Q559.216 167.42 558.35 166.787 Q557.483 166.131 556.968 164.984 Q556.476 163.836 556.476 162.313 Q556.476 160.697 557.108 158.496 Q557.741 156.294 559.263 152.242 Q560.083 149.97 560.083 148.869 Q560.083 148.33 559.966 148.002 Q559.849 147.651 559.614 147.534 Q559.38 147.393 559.24 147.37 Q559.122 147.346 558.888 147.346 Q557.506 147.346 556.218 148.752 Q554.93 150.157 554.04 153.296 Q553.852 153.881 553.735 154.022 Q553.618 154.162 553.267 154.162 Q552.681 154.139 552.681 153.671 Q552.681 153.483 552.892 152.757 Q553.103 152.008 553.595 150.907 Q554.11 149.782 554.813 148.775 Q555.515 147.745 556.616 147.019 Q557.741 146.292 559.029 146.292 Q560.785 146.292 561.863 147.44 Q562.964 148.564 562.964 150.227 Q562.964 150.907 562.776 151.516 Q562.612 152.101 562.003 153.671 Q559.544 159.995 559.544 163.086 Q559.544 163.836 559.661 164.468 Q559.802 165.077 560.106 165.686 Q560.411 166.272 561.02 166.623 Q561.652 166.951 562.519 166.951 Q563.62 166.951 564.65 166.436 Q565.704 165.897 566.36 165.171 Q567.039 164.445 567.437 163.836 Q567.859 163.203 567.953 162.876 L570.108 154.256 L571.068 150.415 Q571.513 148.33 571.724 147.815 Q572.005 147.323 572.497 147.065 Q572.989 146.808 573.41 146.808 Q573.996 146.808 574.394 147.159 Q574.816 147.51 574.816 148.119 Z" fill="#000000" fill-rule="evenodd" fill-opacity="1" /><path clip-path="url(#clip000)" d="M579.4 179.014 Q579.4 178.779 580.009 178.194 Q587.739 170.324 587.739 155.497 Q587.739 140.624 580.314 133.106 Q579.4 132.239 579.4 131.981 Q579.4 131.513 579.869 131.513 Q580.197 131.513 581.344 132.473 Q582.515 133.434 584.272 135.635 Q586.052 137.837 587.364 140.531 Q590.526 147.065 590.526 155.497 Q590.526 163.602 587.504 170.137 Q586.216 172.877 584.413 175.172 Q582.609 177.468 581.415 178.475 Q580.22 179.482 579.869 179.482 Q579.4 179.482 579.4 179.014 Z" fill="#000000" fill-rule="evenodd" fill-opacity="1" /></svg>
