<?xml version="1.0" encoding="utf-8"?>
<svg xmlns="http://www.w3.org/2000/svg" xmlns:xlink="http://www.w3.org/1999/xlink" width="600" height="400" viewBox="0 0 2400 1600">
<defs>
  <clipPath id="clip350">
    <rect x="0" y="0" width="2400" height="1600"/>
  </clipPath>
</defs>
<path clip-path="url(#clip350)" d="
M0 1600 L2400 1600 L2400 0 L0 0  Z
  " fill="#ffffff" fill-rule="evenodd" fill-opacity="1"/>
<defs>
  <clipPath id="clip351">
    <rect x="480" y="0" width="1681" height="1600"/>
  </clipPath>
</defs>
<path clip-path="url(#clip350)" d="
M193.936 686.448 L1160.29 686.448 L1160.29 47.2441 L193.936 47.2441  Z
  " fill="#ffffff" fill-rule="evenodd" fill-opacity="1"/>
<defs>
  <clipPath id="clip352">
    <rect x="193" y="47" width="967" height="640"/>
  </clipPath>
</defs>
<polyline clip-path="url(#clip352)" style="stroke:#000000; stroke-linecap:butt; stroke-linejoin:round; stroke-width:2; stroke-opacity:0.1; fill:none" points="
  209.746,686.448 209.746,47.2441 
  "/>
<polyline clip-path="url(#clip352)" style="stroke:#000000; stroke-linecap:butt; stroke-linejoin:round; stroke-width:2; stroke-opacity:0.1; fill:none" points="
  440.545,686.448 440.545,47.2441 
  "/>
<polyline clip-path="url(#clip352)" style="stroke:#000000; stroke-linecap:butt; stroke-linejoin:round; stroke-width:2; stroke-opacity:0.1; fill:none" points="
  671.343,686.448 671.343,47.2441 
  "/>
<polyline clip-path="url(#clip352)" style="stroke:#000000; stroke-linecap:butt; stroke-linejoin:round; stroke-width:2; stroke-opacity:0.1; fill:none" points="
  902.142,686.448 902.142,47.2441 
  "/>
<polyline clip-path="url(#clip352)" style="stroke:#000000; stroke-linecap:butt; stroke-linejoin:round; stroke-width:2; stroke-opacity:0.1; fill:none" points="
  1132.94,686.448 1132.94,47.2441 
  "/>
<polyline clip-path="url(#clip350)" style="stroke:#000000; stroke-linecap:butt; stroke-linejoin:round; stroke-width:4; stroke-opacity:1; fill:none" points="
  193.936,686.448 1160.29,686.448 
  "/>
<polyline clip-path="url(#clip350)" style="stroke:#000000; stroke-linecap:butt; stroke-linejoin:round; stroke-width:4; stroke-opacity:1; fill:none" points="
  209.746,686.448 209.746,667.55 
  "/>
<polyline clip-path="url(#clip350)" style="stroke:#000000; stroke-linecap:butt; stroke-linejoin:round; stroke-width:4; stroke-opacity:1; fill:none" points="
  440.545,686.448 440.545,667.55 
  "/>
<polyline clip-path="url(#clip350)" style="stroke:#000000; stroke-linecap:butt; stroke-linejoin:round; stroke-width:4; stroke-opacity:1; fill:none" points="
  671.343,686.448 671.343,667.55 
  "/>
<polyline clip-path="url(#clip350)" style="stroke:#000000; stroke-linecap:butt; stroke-linejoin:round; stroke-width:4; stroke-opacity:1; fill:none" points="
  902.142,686.448 902.142,667.55 
  "/>
<polyline clip-path="url(#clip350)" style="stroke:#000000; stroke-linecap:butt; stroke-linejoin:round; stroke-width:4; stroke-opacity:1; fill:none" points="
  1132.94,686.448 1132.94,667.55 
  "/>
<path clip-path="url(#clip350)" d="M209.746 717.367 Q206.135 717.367 204.306 720.931 Q202.5 724.473 202.5 731.603 Q202.5 738.709 204.306 742.274 Q206.135 745.815 209.746 745.815 Q213.38 745.815 215.186 742.274 Q217.014 738.709 217.014 731.603 Q217.014 724.473 215.186 720.931 Q213.38 717.367 209.746 717.367 M209.746 713.663 Q215.556 713.663 218.611 718.269 Q221.69 722.853 221.69 731.603 Q221.69 740.329 218.611 744.936 Q215.556 749.519 209.746 749.519 Q203.936 749.519 200.857 744.936 Q197.801 740.329 197.801 731.603 Q197.801 722.853 200.857 718.269 Q203.936 713.663 209.746 713.663 Z" fill="#000000" fill-rule="evenodd" fill-opacity="1" /><path clip-path="url(#clip350)" d="M419.318 744.913 L435.637 744.913 L435.637 748.848 L413.693 748.848 L413.693 744.913 Q416.355 742.158 420.938 737.528 Q425.545 732.876 426.725 731.533 Q428.971 729.01 429.85 727.274 Q430.753 725.515 430.753 723.825 Q430.753 721.07 428.808 719.334 Q426.887 717.598 423.785 717.598 Q421.586 717.598 419.133 718.362 Q416.702 719.126 413.924 720.677 L413.924 715.955 Q416.748 714.82 419.202 714.242 Q421.656 713.663 423.693 713.663 Q429.063 713.663 432.258 716.348 Q435.452 719.033 435.452 723.524 Q435.452 725.654 434.642 727.575 Q433.855 729.473 431.748 732.066 Q431.17 732.737 428.068 735.954 Q424.966 739.149 419.318 744.913 Z" fill="#000000" fill-rule="evenodd" fill-opacity="1" /><path clip-path="url(#clip350)" d="M455.452 717.367 Q451.841 717.367 450.012 720.931 Q448.207 724.473 448.207 731.603 Q448.207 738.709 450.012 742.274 Q451.841 745.815 455.452 745.815 Q459.086 745.815 460.892 742.274 Q462.72 738.709 462.72 731.603 Q462.72 724.473 460.892 720.931 Q459.086 717.367 455.452 717.367 M455.452 713.663 Q461.262 713.663 464.318 718.269 Q467.396 722.853 467.396 731.603 Q467.396 740.329 464.318 744.936 Q461.262 749.519 455.452 749.519 Q449.642 749.519 446.563 744.936 Q443.507 740.329 443.507 731.603 Q443.507 722.853 446.563 718.269 Q449.642 713.663 455.452 713.663 Z" fill="#000000" fill-rule="evenodd" fill-opacity="1" /><path clip-path="url(#clip350)" d="M659.515 718.362 L647.709 736.811 L659.515 736.811 L659.515 718.362 M658.288 714.288 L664.167 714.288 L664.167 736.811 L669.098 736.811 L669.098 740.7 L664.167 740.7 L664.167 748.848 L659.515 748.848 L659.515 740.7 L643.913 740.7 L643.913 736.186 L658.288 714.288 Z" fill="#000000" fill-rule="evenodd" fill-opacity="1" /><path clip-path="url(#clip350)" d="M686.829 717.367 Q683.218 717.367 681.39 720.931 Q679.584 724.473 679.584 731.603 Q679.584 738.709 681.39 742.274 Q683.218 745.815 686.829 745.815 Q690.464 745.815 692.269 742.274 Q694.098 738.709 694.098 731.603 Q694.098 724.473 692.269 720.931 Q690.464 717.367 686.829 717.367 M686.829 713.663 Q692.64 713.663 695.695 718.269 Q698.774 722.853 698.774 731.603 Q698.774 740.329 695.695 744.936 Q692.64 749.519 686.829 749.519 Q681.019 749.519 677.941 744.936 Q674.885 740.329 674.885 731.603 Q674.885 722.853 677.941 718.269 Q681.019 713.663 686.829 713.663 Z" fill="#000000" fill-rule="evenodd" fill-opacity="1" /><path clip-path="url(#clip350)" d="M887.547 729.704 Q884.399 729.704 882.547 731.857 Q880.719 734.01 880.719 737.76 Q880.719 741.487 882.547 743.663 Q884.399 745.815 887.547 745.815 Q890.695 745.815 892.524 743.663 Q894.376 741.487 894.376 737.76 Q894.376 734.01 892.524 731.857 Q890.695 729.704 887.547 729.704 M896.83 715.052 L896.83 719.311 Q895.07 718.478 893.265 718.038 Q891.482 717.598 889.723 717.598 Q885.094 717.598 882.64 720.723 Q880.209 723.848 879.862 730.167 Q881.228 728.154 883.288 727.089 Q885.348 726.001 887.825 726.001 Q893.033 726.001 896.043 729.172 Q899.075 732.32 899.075 737.76 Q899.075 743.084 895.927 746.302 Q892.779 749.519 887.547 749.519 Q881.552 749.519 878.381 744.936 Q875.209 740.329 875.209 731.603 Q875.209 723.408 879.098 718.547 Q882.987 713.663 889.538 713.663 Q891.297 713.663 893.08 714.01 Q894.885 714.357 896.83 715.052 Z" fill="#000000" fill-rule="evenodd" fill-opacity="1" /><path clip-path="url(#clip350)" d="M917.13 717.367 Q913.519 717.367 911.691 720.931 Q909.885 724.473 909.885 731.603 Q909.885 738.709 911.691 742.274 Q913.519 745.815 917.13 745.815 Q920.765 745.815 922.57 742.274 Q924.399 738.709 924.399 731.603 Q924.399 724.473 922.57 720.931 Q920.765 717.367 917.13 717.367 M917.13 713.663 Q922.941 713.663 925.996 718.269 Q929.075 722.853 929.075 731.603 Q929.075 740.329 925.996 744.936 Q922.941 749.519 917.13 749.519 Q911.32 749.519 908.242 744.936 Q905.186 740.329 905.186 731.603 Q905.186 722.853 908.242 718.269 Q911.32 713.663 917.13 713.663 Z" fill="#000000" fill-rule="evenodd" fill-opacity="1" /><path clip-path="url(#clip350)" d="M1117.81 732.436 Q1114.48 732.436 1112.56 734.218 Q1110.66 736.001 1110.66 739.126 Q1110.66 742.251 1112.56 744.033 Q1114.48 745.815 1117.81 745.815 Q1121.15 745.815 1123.07 744.033 Q1124.99 742.228 1124.99 739.126 Q1124.99 736.001 1123.07 734.218 Q1121.17 732.436 1117.81 732.436 M1113.14 730.445 Q1110.13 729.704 1108.44 727.644 Q1106.77 725.584 1106.77 722.621 Q1106.77 718.478 1109.71 716.07 Q1112.67 713.663 1117.81 713.663 Q1122.98 713.663 1125.92 716.07 Q1128.86 718.478 1128.86 722.621 Q1128.86 725.584 1127.17 727.644 Q1125.5 729.704 1122.51 730.445 Q1125.89 731.232 1127.77 733.524 Q1129.67 735.816 1129.67 739.126 Q1129.67 744.149 1126.59 746.834 Q1123.53 749.519 1117.81 749.519 Q1112.1 749.519 1109.02 746.834 Q1105.96 744.149 1105.96 739.126 Q1105.96 735.816 1107.86 733.524 Q1109.76 731.232 1113.14 730.445 M1111.42 723.061 Q1111.42 725.746 1113.09 727.251 Q1114.78 728.755 1117.81 728.755 Q1120.82 728.755 1122.51 727.251 Q1124.23 725.746 1124.23 723.061 Q1124.23 720.376 1122.51 718.871 Q1120.82 717.367 1117.81 717.367 Q1114.78 717.367 1113.09 718.871 Q1111.42 720.376 1111.42 723.061 Z" fill="#000000" fill-rule="evenodd" fill-opacity="1" /><path clip-path="url(#clip350)" d="M1147.98 717.367 Q1144.36 717.367 1142.54 720.931 Q1140.73 724.473 1140.73 731.603 Q1140.73 738.709 1142.54 742.274 Q1144.36 745.815 1147.98 745.815 Q1151.61 745.815 1153.42 742.274 Q1155.24 738.709 1155.24 731.603 Q1155.24 724.473 1153.42 720.931 Q1151.61 717.367 1147.98 717.367 M1147.98 713.663 Q1153.79 713.663 1156.84 718.269 Q1159.92 722.853 1159.92 731.603 Q1159.92 740.329 1156.84 744.936 Q1153.79 749.519 1147.98 749.519 Q1142.17 749.519 1139.09 744.936 Q1136.03 740.329 1136.03 731.603 Q1136.03 722.853 1139.09 718.269 Q1142.17 713.663 1147.98 713.663 Z" fill="#000000" fill-rule="evenodd" fill-opacity="1" /><polyline clip-path="url(#clip352)" style="stroke:#000000; stroke-linecap:butt; stroke-linejoin:round; stroke-width:2; stroke-opacity:0.1; fill:none" points="
  193.936,651.473 1160.29,651.473 
  "/>
<polyline clip-path="url(#clip352)" style="stroke:#000000; stroke-linecap:butt; stroke-linejoin:round; stroke-width:2; stroke-opacity:0.1; fill:none" points="
  193.936,516.396 1160.29,516.396 
  "/>
<polyline clip-path="url(#clip352)" style="stroke:#000000; stroke-linecap:butt; stroke-linejoin:round; stroke-width:2; stroke-opacity:0.1; fill:none" points="
  193.936,381.319 1160.29,381.319 
  "/>
<polyline clip-path="url(#clip352)" style="stroke:#000000; stroke-linecap:butt; stroke-linejoin:round; stroke-width:2; stroke-opacity:0.1; fill:none" points="
  193.936,246.241 1160.29,246.241 
  "/>
<polyline clip-path="url(#clip352)" style="stroke:#000000; stroke-linecap:butt; stroke-linejoin:round; stroke-width:2; stroke-opacity:0.1; fill:none" points="
  193.936,111.164 1160.29,111.164 
  "/>
<polyline clip-path="url(#clip350)" style="stroke:#000000; stroke-linecap:butt; stroke-linejoin:round; stroke-width:4; stroke-opacity:1; fill:none" points="
  193.936,686.448 193.936,47.2441 
  "/>
<polyline clip-path="url(#clip350)" style="stroke:#000000; stroke-linecap:butt; stroke-linejoin:round; stroke-width:4; stroke-opacity:1; fill:none" points="
  193.936,651.473 212.834,651.473 
  "/>
<polyline clip-path="url(#clip350)" style="stroke:#000000; stroke-linecap:butt; stroke-linejoin:round; stroke-width:4; stroke-opacity:1; fill:none" points="
  193.936,516.396 212.834,516.396 
  "/>
<polyline clip-path="url(#clip350)" style="stroke:#000000; stroke-linecap:butt; stroke-linejoin:round; stroke-width:4; stroke-opacity:1; fill:none" points="
  193.936,381.319 212.834,381.319 
  "/>
<polyline clip-path="url(#clip350)" style="stroke:#000000; stroke-linecap:butt; stroke-linejoin:round; stroke-width:4; stroke-opacity:1; fill:none" points="
  193.936,246.241 212.834,246.241 
  "/>
<polyline clip-path="url(#clip350)" style="stroke:#000000; stroke-linecap:butt; stroke-linejoin:round; stroke-width:4; stroke-opacity:1; fill:none" points="
  193.936,111.164 212.834,111.164 
  "/>
<path clip-path="url(#clip350)" d="M51.9875 651.924 L81.6633 651.924 L81.6633 655.859 L51.9875 655.859 L51.9875 651.924 Z" fill="#000000" fill-rule="evenodd" fill-opacity="1" /><path clip-path="url(#clip350)" d="M92.566 664.817 L100.205 664.817 L100.205 638.452 L91.8947 640.118 L91.8947 635.859 L100.159 634.193 L104.834 634.193 L104.834 664.817 L112.473 664.817 L112.473 668.753 L92.566 668.753 L92.566 664.817 Z" fill="#000000" fill-rule="evenodd" fill-opacity="1" /><path clip-path="url(#clip350)" d="M121.918 662.873 L126.802 662.873 L126.802 668.753 L121.918 668.753 L121.918 662.873 Z" fill="#000000" fill-rule="evenodd" fill-opacity="1" /><path clip-path="url(#clip350)" d="M137.033 634.193 L155.39 634.193 L155.39 638.128 L141.316 638.128 L141.316 646.6 Q142.334 646.253 143.353 646.091 Q144.371 645.905 145.39 645.905 Q151.177 645.905 154.556 649.077 Q157.936 652.248 157.936 657.665 Q157.936 663.243 154.464 666.345 Q150.992 669.424 144.672 669.424 Q142.496 669.424 140.228 669.053 Q137.982 668.683 135.575 667.942 L135.575 663.243 Q137.658 664.378 139.881 664.933 Q142.103 665.489 144.58 665.489 Q148.584 665.489 150.922 663.382 Q153.26 661.276 153.26 657.665 Q153.26 654.054 150.922 651.947 Q148.584 649.841 144.58 649.841 Q142.705 649.841 140.83 650.257 Q138.978 650.674 137.033 651.554 L137.033 634.193 Z" fill="#000000" fill-rule="evenodd" fill-opacity="1" /><path clip-path="url(#clip350)" d="M50.9921 516.847 L80.6679 516.847 L80.6679 520.782 L50.9921 520.782 L50.9921 516.847 Z" fill="#000000" fill-rule="evenodd" fill-opacity="1" /><path clip-path="url(#clip350)" d="M91.5706 529.74 L99.2095 529.74 L99.2095 503.375 L90.8993 505.041 L90.8993 500.782 L99.1632 499.116 L103.839 499.116 L103.839 529.74 L111.478 529.74 L111.478 533.676 L91.5706 533.676 L91.5706 529.74 Z" fill="#000000" fill-rule="evenodd" fill-opacity="1" /><path clip-path="url(#clip350)" d="M120.922 527.796 L125.807 527.796 L125.807 533.676 L120.922 533.676 L120.922 527.796 Z" fill="#000000" fill-rule="evenodd" fill-opacity="1" /><path clip-path="url(#clip350)" d="M145.992 502.194 Q142.381 502.194 140.552 505.759 Q138.746 509.301 138.746 516.43 Q138.746 523.537 140.552 527.102 Q142.381 530.643 145.992 530.643 Q149.626 530.643 151.431 527.102 Q153.26 523.537 153.26 516.43 Q153.26 509.301 151.431 505.759 Q149.626 502.194 145.992 502.194 M145.992 498.491 Q151.802 498.491 154.857 503.097 Q157.936 507.68 157.936 516.43 Q157.936 525.157 154.857 529.764 Q151.802 534.347 145.992 534.347 Q140.181 534.347 137.103 529.764 Q134.047 525.157 134.047 516.43 Q134.047 507.68 137.103 503.097 Q140.181 498.491 145.992 498.491 Z" fill="#000000" fill-rule="evenodd" fill-opacity="1" /><path clip-path="url(#clip350)" d="M51.9875 381.77 L81.6633 381.77 L81.6633 385.705 L51.9875 385.705 L51.9875 381.77 Z" fill="#000000" fill-rule="evenodd" fill-opacity="1" /><path clip-path="url(#clip350)" d="M101.756 367.117 Q98.1447 367.117 96.316 370.682 Q94.5104 374.224 94.5104 381.353 Q94.5104 388.46 96.316 392.024 Q98.1447 395.566 101.756 395.566 Q105.39 395.566 107.196 392.024 Q109.024 388.46 109.024 381.353 Q109.024 374.224 107.196 370.682 Q105.39 367.117 101.756 367.117 M101.756 363.414 Q107.566 363.414 110.621 368.02 Q113.7 372.603 113.7 381.353 Q113.7 390.08 110.621 394.687 Q107.566 399.27 101.756 399.27 Q95.9456 399.27 92.8669 394.687 Q89.8114 390.08 89.8114 381.353 Q89.8114 372.603 92.8669 368.02 Q95.9456 363.414 101.756 363.414 Z" fill="#000000" fill-rule="evenodd" fill-opacity="1" /><path clip-path="url(#clip350)" d="M121.918 392.719 L126.802 392.719 L126.802 398.599 L121.918 398.599 L121.918 392.719 Z" fill="#000000" fill-rule="evenodd" fill-opacity="1" /><path clip-path="url(#clip350)" d="M137.033 364.039 L155.39 364.039 L155.39 367.974 L141.316 367.974 L141.316 376.446 Q142.334 376.099 143.353 375.937 Q144.371 375.751 145.39 375.751 Q151.177 375.751 154.556 378.923 Q157.936 382.094 157.936 387.511 Q157.936 393.089 154.464 396.191 Q150.992 399.27 144.672 399.27 Q142.496 399.27 140.228 398.899 Q137.982 398.529 135.575 397.788 L135.575 393.089 Q137.658 394.224 139.881 394.779 Q142.103 395.335 144.58 395.335 Q148.584 395.335 150.922 393.228 Q153.26 391.122 153.26 387.511 Q153.26 383.9 150.922 381.793 Q148.584 379.687 144.58 379.687 Q142.705 379.687 140.83 380.103 Q138.978 380.52 137.033 381.4 L137.033 364.039 Z" fill="#000000" fill-rule="evenodd" fill-opacity="1" /><path clip-path="url(#clip350)" d="M100.76 232.04 Q97.1493 232.04 95.3206 235.605 Q93.515 239.147 93.515 246.276 Q93.515 253.383 95.3206 256.947 Q97.1493 260.489 100.76 260.489 Q104.395 260.489 106.2 256.947 Q108.029 253.383 108.029 246.276 Q108.029 239.147 106.2 235.605 Q104.395 232.04 100.76 232.04 M100.76 228.337 Q106.571 228.337 109.626 232.943 Q112.705 237.526 112.705 246.276 Q112.705 255.003 109.626 259.609 Q106.571 264.193 100.76 264.193 Q94.9502 264.193 91.8715 259.609 Q88.816 255.003 88.816 246.276 Q88.816 237.526 91.8715 232.943 Q94.9502 228.337 100.76 228.337 Z" fill="#000000" fill-rule="evenodd" fill-opacity="1" /><path clip-path="url(#clip350)" d="M120.922 257.642 L125.807 257.642 L125.807 263.521 L120.922 263.521 L120.922 257.642 Z" fill="#000000" fill-rule="evenodd" fill-opacity="1" /><path clip-path="url(#clip350)" d="M145.992 232.04 Q142.381 232.04 140.552 235.605 Q138.746 239.147 138.746 246.276 Q138.746 253.383 140.552 256.947 Q142.381 260.489 145.992 260.489 Q149.626 260.489 151.431 256.947 Q153.26 253.383 153.26 246.276 Q153.26 239.147 151.431 235.605 Q149.626 232.04 145.992 232.04 M145.992 228.337 Q151.802 228.337 154.857 232.943 Q157.936 237.526 157.936 246.276 Q157.936 255.003 154.857 259.609 Q151.802 264.193 145.992 264.193 Q140.181 264.193 137.103 259.609 Q134.047 255.003 134.047 246.276 Q134.047 237.526 137.103 232.943 Q140.181 228.337 145.992 228.337 Z" fill="#000000" fill-rule="evenodd" fill-opacity="1" /><path clip-path="url(#clip350)" d="M101.756 96.9632 Q98.1447 96.9632 96.316 100.528 Q94.5104 104.07 94.5104 111.199 Q94.5104 118.306 96.316 121.87 Q98.1447 125.412 101.756 125.412 Q105.39 125.412 107.196 121.87 Q109.024 118.306 109.024 111.199 Q109.024 104.07 107.196 100.528 Q105.39 96.9632 101.756 96.9632 M101.756 93.2595 Q107.566 93.2595 110.621 97.8659 Q113.7 102.449 113.7 111.199 Q113.7 119.926 110.621 124.532 Q107.566 129.116 101.756 129.116 Q95.9456 129.116 92.8669 124.532 Q89.8114 119.926 89.8114 111.199 Q89.8114 102.449 92.8669 97.8659 Q95.9456 93.2595 101.756 93.2595 Z" fill="#000000" fill-rule="evenodd" fill-opacity="1" /><path clip-path="url(#clip350)" d="M121.918 122.565 L126.802 122.565 L126.802 128.444 L121.918 128.444 L121.918 122.565 Z" fill="#000000" fill-rule="evenodd" fill-opacity="1" /><path clip-path="url(#clip350)" d="M137.033 93.8845 L155.39 93.8845 L155.39 97.8196 L141.316 97.8196 L141.316 106.292 Q142.334 105.945 143.353 105.783 Q144.371 105.597 145.39 105.597 Q151.177 105.597 154.556 108.769 Q157.936 111.94 157.936 117.357 Q157.936 122.935 154.464 126.037 Q150.992 129.116 144.672 129.116 Q142.496 129.116 140.228 128.745 Q137.982 128.375 135.575 127.634 L135.575 122.935 Q137.658 124.069 139.881 124.625 Q142.103 125.181 144.58 125.181 Q148.584 125.181 150.922 123.074 Q153.26 120.968 153.26 117.357 Q153.26 113.745 150.922 111.639 Q148.584 109.533 144.58 109.533 Q142.705 109.533 140.83 109.949 Q138.978 110.366 137.033 111.245 L137.033 93.8845 Z" fill="#000000" fill-rule="evenodd" fill-opacity="1" /><polyline clip-path="url(#clip352)" style="stroke:#009af9; stroke-linecap:butt; stroke-linejoin:round; stroke-width:4; stroke-opacity:1; fill:none" points="
  221.286,306.544 232.826,306.544 244.366,306.544 255.905,306.544 267.445,246.241 278.985,185.939 290.525,246.241 302.065,246.241 313.605,246.241 325.145,246.241 
  336.685,306.544 348.225,246.241 359.765,246.241 371.305,246.241 382.845,306.544 394.385,306.544 405.925,366.846 417.465,427.148 429.005,487.45 440.545,487.45 
  452.084,487.45 463.624,547.753 475.164,547.753 486.704,608.055 498.244,547.753 509.784,547.753 521.324,547.753 532.864,547.753 544.404,487.45 555.944,487.45 
  567.484,487.45 579.024,487.45 590.564,547.753 602.104,487.45 613.644,487.45 625.184,608.055 636.724,668.357 648.263,608.055 659.803,608.055 671.343,547.753 
  682.883,608.055 694.423,608.055 705.963,608.055 717.503,547.753 729.043,608.055 740.583,608.055 752.123,366.846 763.663,366.846 775.203,306.544 786.743,246.241 
  798.283,246.241 809.823,306.544 821.363,306.544 832.902,306.544 844.442,306.544 855.982,306.544 867.522,366.846 879.062,427.148 890.602,366.846 902.142,246.241 
  913.682,306.544 925.222,306.544 936.762,366.846 948.302,366.846 959.842,306.544 971.382,246.241 982.922,185.939 994.462,185.939 1006,306.544 1017.54,366.846 
  1029.08,246.241 1040.62,246.241 1052.16,185.939 1063.7,125.637 1075.24,65.3348 1086.78,185.939 1098.32,125.637 1109.86,246.241 1121.4,246.241 1132.94,125.637 
  
  "/>
<path clip-path="url(#clip350)" d="
M961.121 172.231 L1128.08 172.231 L1128.08 68.5509 L961.121 68.5509  Z
  " fill="#ffffff" fill-rule="evenodd" fill-opacity="1"/>
<polyline clip-path="url(#clip350)" style="stroke:#000000; stroke-linecap:butt; stroke-linejoin:round; stroke-width:4; stroke-opacity:1; fill:none" points="
  961.121,172.231 1128.08,172.231 1128.08,68.5509 961.121,68.5509 961.121,172.231 
  "/>
<polyline clip-path="url(#clip350)" style="stroke:#009af9; stroke-linecap:butt; stroke-linejoin:round; stroke-width:4; stroke-opacity:1; fill:none" points="
  971.858,120.391 1036.28,120.391 
  "/>
<path clip-path="url(#clip350)" d="M1086.56 104.87 Q1086.56 105.292 1086.39 105.526 Q1086.25 105.737 1086.09 105.783 Q1085.92 105.807 1085.5 105.83 Q1082.15 105.994 1079.41 108.266 Q1078.73 108.852 1077.02 110.679 Q1075.34 112.506 1073.09 114.942 Q1070.86 117.378 1069.57 118.689 L1075.76 133.492 Q1076.02 134.078 1076.11 134.335 Q1076.23 134.57 1076.46 134.874 Q1076.72 135.179 1076.91 135.272 Q1077.12 135.366 1077.56 135.483 Q1078.03 135.577 1078.5 135.6 Q1078.99 135.6 1079.88 135.624 Q1080.16 135.624 1080.28 135.647 Q1080.42 135.647 1080.58 135.788 Q1080.75 135.905 1080.75 136.186 Q1080.75 136.607 1080.56 136.842 Q1080.4 137.052 1080.23 137.076 Q1080.09 137.099 1079.83 137.099 Q1079.22 137.099 1077.16 137.029 Q1075.1 136.959 1074.52 136.959 L1068.47 137.099 Q1067.75 137.099 1067.75 136.514 Q1067.75 136.209 1067.79 136.045 Q1067.86 135.858 1068.03 135.788 Q1068.19 135.694 1068.31 135.671 Q1068.43 135.647 1068.71 135.624 Q1069.57 135.53 1070.23 135.272 Q1070.91 134.991 1071.19 134.71 Q1071.5 134.429 1071.5 134.218 L1071.26 133.539 L1066.41 122.086 L1062.08 126.793 L1057.18 131.97 Q1055.9 133.352 1055.9 134.125 Q1055.9 135.413 1057.82 135.624 Q1058.4 135.671 1058.4 136.139 Q1058.4 136.584 1058.21 136.818 Q1058.05 137.029 1057.89 137.076 Q1057.75 137.099 1057.54 137.099 Q1056.67 137.099 1054.84 137.029 Q1053.04 136.959 1052.15 136.959 Q1051.4 136.959 1049.88 137.029 Q1048.35 137.099 1047.65 137.099 Q1047.37 137.099 1047.21 136.959 Q1047.04 136.818 1047.04 136.678 L1047.02 136.561 Q1047.02 136.233 1047.07 136.045 Q1047.14 135.858 1047.32 135.764 Q1047.53 135.671 1047.63 135.671 Q1047.72 135.647 1048.07 135.624 Q1050.06 135.507 1051.75 134.734 Q1053.46 133.961 1055.12 132.157 Q1055.26 132.04 1055.43 131.9 Q1055.61 131.759 1055.76 131.642 L1065.87 120.75 L1060.21 107.353 Q1059.95 106.744 1059.71 106.486 Q1059.48 106.205 1058.75 106.018 Q1058.03 105.83 1056.62 105.83 Q1056.22 105.83 1056.04 105.807 Q1055.85 105.783 1055.69 105.666 Q1055.52 105.549 1055.52 105.292 Q1055.52 104.847 1055.69 104.636 Q1055.87 104.402 1056.01 104.378 Q1056.18 104.331 1056.39 104.331 Q1056.97 104.331 1059.06 104.402 Q1061.14 104.472 1061.75 104.472 Q1062.76 104.472 1064.77 104.402 Q1066.81 104.331 1067.79 104.331 Q1068.52 104.331 1068.52 104.917 Q1068.52 105.292 1068.36 105.502 Q1068.19 105.713 1068.03 105.76 Q1067.86 105.807 1067.56 105.83 Q1066.65 105.924 1065.94 106.229 Q1065.26 106.51 1064.98 106.791 Q1064.73 107.048 1064.73 107.212 L1064.96 107.845 L1068.99 117.378 L1076.77 109.039 Q1077.68 108.009 1077.68 107.306 Q1077.68 106.041 1075.76 105.83 Q1075.17 105.737 1075.17 105.292 Q1075.17 104.847 1075.36 104.636 Q1075.55 104.402 1075.69 104.378 Q1075.85 104.331 1076.09 104.331 Q1076.95 104.331 1078.73 104.402 Q1080.54 104.472 1081.43 104.472 Q1082.18 104.472 1083.7 104.402 Q1085.22 104.331 1085.92 104.331 Q1086.2 104.331 1086.37 104.472 Q1086.53 104.589 1086.53 104.729 L1086.56 104.87 Z" fill="#000000" fill-rule="evenodd" fill-opacity="1" /><path clip-path="url(#clip350)" d="M1101.59 135.487 Q1101.59 135.946 1101.38 136.061 Q1101.17 136.16 1100.58 136.16 L1097.43 136.16 L1094.94 146.063 Q1094.74 146.932 1094.74 147.669 Q1094.74 148.489 1094.98 148.85 Q1095.25 149.211 1095.79 149.211 Q1096.85 149.211 1098 148.243 Q1099.17 147.276 1100.15 144.915 Q1100.28 144.603 1100.35 144.538 Q1100.43 144.456 1100.64 144.456 Q1101.05 144.456 1101.05 144.784 Q1101.05 144.899 1100.82 145.423 Q1100.61 145.948 1100.13 146.718 Q1099.67 147.489 1099.07 148.21 Q1098.48 148.932 1097.58 149.457 Q1096.67 149.965 1095.71 149.965 Q1094.35 149.965 1093.48 149.096 Q1092.62 148.227 1092.62 146.866 Q1092.62 146.423 1092.97 145.013 Q1093.31 143.587 1095.18 136.16 L1092.21 136.16 Q1091.8 136.16 1091.64 136.143 Q1091.49 136.127 1091.38 136.045 Q1091.28 135.946 1091.28 135.75 Q1091.28 135.438 1091.41 135.307 Q1091.54 135.16 1091.71 135.143 Q1091.89 135.11 1092.3 135.11 L1095.44 135.11 L1096.76 129.782 Q1096.89 129.257 1097.21 128.962 Q1097.56 128.65 1097.76 128.618 Q1097.95 128.568 1098.1 128.568 Q1098.54 128.568 1098.81 128.814 Q1099.07 129.044 1099.07 129.47 Q1099.07 129.7 1097.69 135.11 L1100.64 135.11 Q1101.02 135.11 1101.17 135.127 Q1101.33 135.143 1101.46 135.225 Q1101.59 135.307 1101.59 135.487 Z" fill="#000000" fill-rule="evenodd" fill-opacity="1" /><path clip-path="url(#clip350)" d="
M1386.4 686.448 L2352.76 686.448 L2352.76 47.2441 L1386.4 47.2441  Z
  " fill="#ffffff" fill-rule="evenodd" fill-opacity="1"/>
<defs>
  <clipPath id="clip353">
    <rect x="1386" y="47" width="967" height="640"/>
  </clipPath>
</defs>
<polyline clip-path="url(#clip353)" style="stroke:#000000; stroke-linecap:butt; stroke-linejoin:round; stroke-width:2; stroke-opacity:0.1; fill:none" points="
  1402.21,686.448 1402.21,47.2441 
  "/>
<polyline clip-path="url(#clip353)" style="stroke:#000000; stroke-linecap:butt; stroke-linejoin:round; stroke-width:2; stroke-opacity:0.1; fill:none" points="
  1633.01,686.448 1633.01,47.2441 
  "/>
<polyline clip-path="url(#clip353)" style="stroke:#000000; stroke-linecap:butt; stroke-linejoin:round; stroke-width:2; stroke-opacity:0.1; fill:none" points="
  1863.81,686.448 1863.81,47.2441 
  "/>
<polyline clip-path="url(#clip353)" style="stroke:#000000; stroke-linecap:butt; stroke-linejoin:round; stroke-width:2; stroke-opacity:0.1; fill:none" points="
  2094.61,686.448 2094.61,47.2441 
  "/>
<polyline clip-path="url(#clip353)" style="stroke:#000000; stroke-linecap:butt; stroke-linejoin:round; stroke-width:2; stroke-opacity:0.1; fill:none" points="
  2325.41,686.448 2325.41,47.2441 
  "/>
<polyline clip-path="url(#clip350)" style="stroke:#000000; stroke-linecap:butt; stroke-linejoin:round; stroke-width:4; stroke-opacity:1; fill:none" points="
  1386.4,686.448 2352.76,686.448 
  "/>
<polyline clip-path="url(#clip350)" style="stroke:#000000; stroke-linecap:butt; stroke-linejoin:round; stroke-width:4; stroke-opacity:1; fill:none" points="
  1402.21,686.448 1402.21,667.55 
  "/>
<polyline clip-path="url(#clip350)" style="stroke:#000000; stroke-linecap:butt; stroke-linejoin:round; stroke-width:4; stroke-opacity:1; fill:none" points="
  1633.01,686.448 1633.01,667.55 
  "/>
<polyline clip-path="url(#clip350)" style="stroke:#000000; stroke-linecap:butt; stroke-linejoin:round; stroke-width:4; stroke-opacity:1; fill:none" points="
  1863.81,686.448 1863.81,667.55 
  "/>
<polyline clip-path="url(#clip350)" style="stroke:#000000; stroke-linecap:butt; stroke-linejoin:round; stroke-width:4; stroke-opacity:1; fill:none" points="
  2094.61,686.448 2094.61,667.55 
  "/>
<polyline clip-path="url(#clip350)" style="stroke:#000000; stroke-linecap:butt; stroke-linejoin:round; stroke-width:4; stroke-opacity:1; fill:none" points="
  2325.41,686.448 2325.41,667.55 
  "/>
<path clip-path="url(#clip350)" d="M1402.21 717.367 Q1398.6 717.367 1396.77 720.931 Q1394.97 724.473 1394.97 731.603 Q1394.97 738.709 1396.77 742.274 Q1398.6 745.815 1402.21 745.815 Q1405.85 745.815 1407.65 742.274 Q1409.48 738.709 1409.48 731.603 Q1409.48 724.473 1407.65 720.931 Q1405.85 717.367 1402.21 717.367 M1402.21 713.663 Q1408.02 713.663 1411.08 718.269 Q1414.16 722.853 1414.16 731.603 Q1414.16 740.329 1411.08 744.936 Q1408.02 749.519 1402.21 749.519 Q1396.4 749.519 1393.32 744.936 Q1390.27 740.329 1390.27 731.603 Q1390.27 722.853 1393.32 718.269 Q1396.4 713.663 1402.21 713.663 Z" fill="#000000" fill-rule="evenodd" fill-opacity="1" /><path clip-path="url(#clip350)" d="M1611.78 744.913 L1628.1 744.913 L1628.1 748.848 L1606.16 748.848 L1606.16 744.913 Q1608.82 742.158 1613.4 737.528 Q1618.01 732.876 1619.19 731.533 Q1621.44 729.01 1622.32 727.274 Q1623.22 725.515 1623.22 723.825 Q1623.22 721.07 1621.27 719.334 Q1619.35 717.598 1616.25 717.598 Q1614.05 717.598 1611.6 718.362 Q1609.17 719.126 1606.39 720.677 L1606.39 715.955 Q1609.21 714.82 1611.67 714.242 Q1614.12 713.663 1616.16 713.663 Q1621.53 713.663 1624.72 716.348 Q1627.92 719.033 1627.92 723.524 Q1627.92 725.654 1627.11 727.575 Q1626.32 729.473 1624.21 732.066 Q1623.63 732.737 1620.53 735.954 Q1617.43 739.149 1611.78 744.913 Z" fill="#000000" fill-rule="evenodd" fill-opacity="1" /><path clip-path="url(#clip350)" d="M1647.92 717.367 Q1644.31 717.367 1642.48 720.931 Q1640.67 724.473 1640.67 731.603 Q1640.67 738.709 1642.48 742.274 Q1644.31 745.815 1647.92 745.815 Q1651.55 745.815 1653.36 742.274 Q1655.19 738.709 1655.19 731.603 Q1655.19 724.473 1653.36 720.931 Q1651.55 717.367 1647.92 717.367 M1647.92 713.663 Q1653.73 713.663 1656.78 718.269 Q1659.86 722.853 1659.86 731.603 Q1659.86 740.329 1656.78 744.936 Q1653.73 749.519 1647.92 749.519 Q1642.11 749.519 1639.03 744.936 Q1635.97 740.329 1635.97 731.603 Q1635.97 722.853 1639.03 718.269 Q1642.11 713.663 1647.92 713.663 Z" fill="#000000" fill-rule="evenodd" fill-opacity="1" /><path clip-path="url(#clip350)" d="M1851.98 718.362 L1840.17 736.811 L1851.98 736.811 L1851.98 718.362 M1850.75 714.288 L1856.63 714.288 L1856.63 736.811 L1861.56 736.811 L1861.56 740.7 L1856.63 740.7 L1856.63 748.848 L1851.98 748.848 L1851.98 740.7 L1836.38 740.7 L1836.38 736.186 L1850.75 714.288 Z" fill="#000000" fill-rule="evenodd" fill-opacity="1" /><path clip-path="url(#clip350)" d="M1879.29 717.367 Q1875.68 717.367 1873.85 720.931 Q1872.05 724.473 1872.05 731.603 Q1872.05 738.709 1873.85 742.274 Q1875.68 745.815 1879.29 745.815 Q1882.93 745.815 1884.73 742.274 Q1886.56 738.709 1886.56 731.603 Q1886.56 724.473 1884.73 720.931 Q1882.93 717.367 1879.29 717.367 M1879.29 713.663 Q1885.1 713.663 1888.16 718.269 Q1891.24 722.853 1891.24 731.603 Q1891.24 740.329 1888.16 744.936 Q1885.1 749.519 1879.29 749.519 Q1873.48 749.519 1870.41 744.936 Q1867.35 740.329 1867.35 731.603 Q1867.35 722.853 1870.41 718.269 Q1873.48 713.663 1879.29 713.663 Z" fill="#000000" fill-rule="evenodd" fill-opacity="1" /><path clip-path="url(#clip350)" d="M2080.01 729.704 Q2076.86 729.704 2075.01 731.857 Q2073.18 734.01 2073.18 737.76 Q2073.18 741.487 2075.01 743.663 Q2076.86 745.815 2080.01 745.815 Q2083.16 745.815 2084.99 743.663 Q2086.84 741.487 2086.84 737.76 Q2086.84 734.01 2084.99 731.857 Q2083.16 729.704 2080.01 729.704 M2089.29 715.052 L2089.29 719.311 Q2087.54 718.478 2085.73 718.038 Q2083.95 717.598 2082.19 717.598 Q2077.56 717.598 2075.11 720.723 Q2072.67 723.848 2072.33 730.167 Q2073.69 728.154 2075.75 727.089 Q2077.81 726.001 2080.29 726.001 Q2085.5 726.001 2088.51 729.172 Q2091.54 732.32 2091.54 737.76 Q2091.54 743.084 2088.39 746.302 Q2085.24 749.519 2080.01 749.519 Q2074.02 749.519 2070.85 744.936 Q2067.67 740.329 2067.67 731.603 Q2067.67 723.408 2071.56 718.547 Q2075.45 713.663 2082 713.663 Q2083.76 713.663 2085.54 714.01 Q2087.35 714.357 2089.29 715.052 Z" fill="#000000" fill-rule="evenodd" fill-opacity="1" /><path clip-path="url(#clip350)" d="M2109.6 717.367 Q2105.98 717.367 2104.16 720.931 Q2102.35 724.473 2102.35 731.603 Q2102.35 738.709 2104.16 742.274 Q2105.98 745.815 2109.6 745.815 Q2113.23 745.815 2115.04 742.274 Q2116.86 738.709 2116.86 731.603 Q2116.86 724.473 2115.04 720.931 Q2113.23 717.367 2109.6 717.367 M2109.6 713.663 Q2115.41 713.663 2118.46 718.269 Q2121.54 722.853 2121.54 731.603 Q2121.54 740.329 2118.46 744.936 Q2115.41 749.519 2109.6 749.519 Q2103.79 749.519 2100.71 744.936 Q2097.65 740.329 2097.65 731.603 Q2097.65 722.853 2100.71 718.269 Q2103.79 713.663 2109.6 713.663 Z" fill="#000000" fill-rule="evenodd" fill-opacity="1" /><path clip-path="url(#clip350)" d="M2310.28 732.436 Q2306.95 732.436 2305.02 734.218 Q2303.13 736.001 2303.13 739.126 Q2303.13 742.251 2305.02 744.033 Q2306.95 745.815 2310.28 745.815 Q2313.61 745.815 2315.53 744.033 Q2317.45 742.228 2317.45 739.126 Q2317.45 736.001 2315.53 734.218 Q2313.64 732.436 2310.28 732.436 M2305.6 730.445 Q2302.59 729.704 2300.9 727.644 Q2299.24 725.584 2299.24 722.621 Q2299.24 718.478 2302.18 716.07 Q2305.14 713.663 2310.28 713.663 Q2315.44 713.663 2318.38 716.07 Q2321.32 718.478 2321.32 722.621 Q2321.32 725.584 2319.63 727.644 Q2317.96 729.704 2314.98 730.445 Q2318.36 731.232 2320.23 733.524 Q2322.13 735.816 2322.13 739.126 Q2322.13 744.149 2319.05 746.834 Q2316 749.519 2310.28 749.519 Q2304.56 749.519 2301.48 746.834 Q2298.43 744.149 2298.43 739.126 Q2298.43 735.816 2300.33 733.524 Q2302.22 731.232 2305.6 730.445 M2303.89 723.061 Q2303.89 725.746 2305.56 727.251 Q2307.25 728.755 2310.28 728.755 Q2313.29 728.755 2314.98 727.251 Q2316.69 725.746 2316.69 723.061 Q2316.69 720.376 2314.98 718.871 Q2313.29 717.367 2310.28 717.367 Q2307.25 717.367 2305.56 718.871 Q2303.89 720.376 2303.89 723.061 Z" fill="#000000" fill-rule="evenodd" fill-opacity="1" /><path clip-path="url(#clip350)" d="M2340.44 717.367 Q2336.83 717.367 2335 720.931 Q2333.2 724.473 2333.2 731.603 Q2333.2 738.709 2335 742.274 Q2336.83 745.815 2340.44 745.815 Q2344.08 745.815 2345.88 742.274 Q2347.71 738.709 2347.71 731.603 Q2347.71 724.473 2345.88 720.931 Q2344.08 717.367 2340.44 717.367 M2340.44 713.663 Q2346.25 713.663 2349.31 718.269 Q2352.39 722.853 2352.39 731.603 Q2352.39 740.329 2349.31 744.936 Q2346.25 749.519 2340.44 749.519 Q2334.63 749.519 2331.55 744.936 Q2328.5 740.329 2328.5 731.603 Q2328.5 722.853 2331.55 718.269 Q2334.63 713.663 2340.44 713.663 Z" fill="#000000" fill-rule="evenodd" fill-opacity="1" /><polyline clip-path="url(#clip353)" style="stroke:#000000; stroke-linecap:butt; stroke-linejoin:round; stroke-width:2; stroke-opacity:0.1; fill:none" points="
  1386.4,567.945 2352.76,567.945 
  "/>
<polyline clip-path="url(#clip353)" style="stroke:#000000; stroke-linecap:butt; stroke-linejoin:round; stroke-width:2; stroke-opacity:0.1; fill:none" points="
  1386.4,395.053 2352.76,395.053 
  "/>
<polyline clip-path="url(#clip353)" style="stroke:#000000; stroke-linecap:butt; stroke-linejoin:round; stroke-width:2; stroke-opacity:0.1; fill:none" points="
  1386.4,222.161 2352.76,222.161 
  "/>
<polyline clip-path="url(#clip353)" style="stroke:#000000; stroke-linecap:butt; stroke-linejoin:round; stroke-width:2; stroke-opacity:0.1; fill:none" points="
  1386.4,49.2695 2352.76,49.2695 
  "/>
<polyline clip-path="url(#clip350)" style="stroke:#000000; stroke-linecap:butt; stroke-linejoin:round; stroke-width:4; stroke-opacity:1; fill:none" points="
  1386.4,686.448 1386.4,47.2441 
  "/>
<polyline clip-path="url(#clip350)" style="stroke:#000000; stroke-linecap:butt; stroke-linejoin:round; stroke-width:4; stroke-opacity:1; fill:none" points="
  1386.4,567.945 1405.3,567.945 
  "/>
<polyline clip-path="url(#clip350)" style="stroke:#000000; stroke-linecap:butt; stroke-linejoin:round; stroke-width:4; stroke-opacity:1; fill:none" points="
  1386.4,395.053 1405.3,395.053 
  "/>
<polyline clip-path="url(#clip350)" style="stroke:#000000; stroke-linecap:butt; stroke-linejoin:round; stroke-width:4; stroke-opacity:1; fill:none" points="
  1386.4,222.161 1405.3,222.161 
  "/>
<polyline clip-path="url(#clip350)" style="stroke:#000000; stroke-linecap:butt; stroke-linejoin:round; stroke-width:4; stroke-opacity:1; fill:none" points="
  1386.4,49.2695 1405.3,49.2695 
  "/>
<path clip-path="url(#clip350)" d="M1294.22 553.744 Q1290.61 553.744 1288.78 557.309 Q1286.98 560.851 1286.98 567.98 Q1286.98 575.087 1288.78 578.651 Q1290.61 582.193 1294.22 582.193 Q1297.86 582.193 1299.66 578.651 Q1301.49 575.087 1301.49 567.98 Q1301.49 560.851 1299.66 557.309 Q1297.86 553.744 1294.22 553.744 M1294.22 550.04 Q1300.03 550.04 1303.09 554.647 Q1306.17 559.23 1306.17 567.98 Q1306.17 576.707 1303.09 581.313 Q1300.03 585.897 1294.22 585.897 Q1288.41 585.897 1285.33 581.313 Q1282.28 576.707 1282.28 567.98 Q1282.28 559.23 1285.33 554.647 Q1288.41 550.04 1294.22 550.04 Z" fill="#000000" fill-rule="evenodd" fill-opacity="1" /><path clip-path="url(#clip350)" d="M1314.38 579.346 L1319.27 579.346 L1319.27 585.225 L1314.38 585.225 L1314.38 579.346 Z" fill="#000000" fill-rule="evenodd" fill-opacity="1" /><path clip-path="url(#clip350)" d="M1329.5 550.665 L1347.86 550.665 L1347.86 554.601 L1333.78 554.601 L1333.78 563.073 Q1334.8 562.726 1335.82 562.564 Q1336.84 562.378 1337.86 562.378 Q1343.64 562.378 1347.02 565.55 Q1350.4 568.721 1350.4 574.138 Q1350.4 579.716 1346.93 582.818 Q1343.46 585.897 1337.14 585.897 Q1334.96 585.897 1332.69 585.526 Q1330.45 585.156 1328.04 584.415 L1328.04 579.716 Q1330.12 580.85 1332.35 581.406 Q1334.57 581.962 1337.04 581.962 Q1341.05 581.962 1343.39 579.855 Q1345.73 577.749 1345.73 574.138 Q1345.73 570.526 1343.39 568.42 Q1341.05 566.314 1337.04 566.314 Q1335.17 566.314 1333.29 566.73 Q1331.44 567.147 1329.5 568.026 L1329.5 550.665 Z" fill="#000000" fill-rule="evenodd" fill-opacity="1" /><path clip-path="url(#clip350)" d="M1284.04 408.398 L1291.67 408.398 L1291.67 382.033 L1283.36 383.699 L1283.36 379.44 L1291.63 377.773 L1296.3 377.773 L1296.3 408.398 L1303.94 408.398 L1303.94 412.333 L1284.04 412.333 L1284.04 408.398 Z" fill="#000000" fill-rule="evenodd" fill-opacity="1" /><path clip-path="url(#clip350)" d="M1313.39 406.454 L1318.27 406.454 L1318.27 412.333 L1313.39 412.333 L1313.39 406.454 Z" fill="#000000" fill-rule="evenodd" fill-opacity="1" /><path clip-path="url(#clip350)" d="M1338.46 380.852 Q1334.85 380.852 1333.02 384.417 Q1331.21 387.959 1331.21 395.088 Q1331.21 402.195 1333.02 405.759 Q1334.85 409.301 1338.46 409.301 Q1342.09 409.301 1343.9 405.759 Q1345.73 402.195 1345.73 395.088 Q1345.73 387.959 1343.9 384.417 Q1342.09 380.852 1338.46 380.852 M1338.46 377.148 Q1344.27 377.148 1347.32 381.755 Q1350.4 386.338 1350.4 395.088 Q1350.4 403.815 1347.32 408.421 Q1344.27 413.005 1338.46 413.005 Q1332.65 413.005 1329.57 408.421 Q1326.51 403.815 1326.51 395.088 Q1326.51 386.338 1329.57 381.755 Q1332.65 377.148 1338.46 377.148 Z" fill="#000000" fill-rule="evenodd" fill-opacity="1" /><path clip-path="url(#clip350)" d="M1285.03 235.506 L1292.67 235.506 L1292.67 209.141 L1284.36 210.807 L1284.36 206.548 L1292.62 204.881 L1297.3 204.881 L1297.3 235.506 L1304.94 235.506 L1304.94 239.441 L1285.03 239.441 L1285.03 235.506 Z" fill="#000000" fill-rule="evenodd" fill-opacity="1" /><path clip-path="url(#clip350)" d="M1314.38 233.562 L1319.27 233.562 L1319.27 239.441 L1314.38 239.441 L1314.38 233.562 Z" fill="#000000" fill-rule="evenodd" fill-opacity="1" /><path clip-path="url(#clip350)" d="M1329.5 204.881 L1347.86 204.881 L1347.86 208.817 L1333.78 208.817 L1333.78 217.289 Q1334.8 216.942 1335.82 216.78 Q1336.84 216.594 1337.86 216.594 Q1343.64 216.594 1347.02 219.766 Q1350.4 222.937 1350.4 228.354 Q1350.4 233.932 1346.93 237.034 Q1343.46 240.113 1337.14 240.113 Q1334.96 240.113 1332.69 239.742 Q1330.45 239.372 1328.04 238.631 L1328.04 233.932 Q1330.12 235.066 1332.35 235.622 Q1334.57 236.178 1337.04 236.178 Q1341.05 236.178 1343.39 234.071 Q1345.73 231.965 1345.73 228.354 Q1345.73 224.742 1343.39 222.636 Q1341.05 220.53 1337.04 220.53 Q1335.17 220.53 1333.29 220.946 Q1331.44 221.363 1329.5 222.242 L1329.5 204.881 Z" fill="#000000" fill-rule="evenodd" fill-opacity="1" /><path clip-path="url(#clip350)" d="M1287.25 62.6143 L1303.57 62.6143 L1303.57 66.5495 L1281.63 66.5495 L1281.63 62.6143 Q1284.29 59.8597 1288.87 55.2301 Q1293.48 50.5773 1294.66 49.2347 Q1296.91 46.7116 1297.79 44.9755 Q1298.69 43.2163 1298.69 41.5265 Q1298.69 38.7718 1296.74 37.0357 Q1294.82 35.2996 1291.72 35.2996 Q1289.52 35.2996 1287.07 36.0635 Q1284.64 36.8274 1281.86 38.3783 L1281.86 33.6561 Q1284.68 32.5219 1287.14 31.9432 Q1289.59 31.3645 1291.63 31.3645 Q1297 31.3645 1300.19 34.0496 Q1303.39 36.7348 1303.39 41.2255 Q1303.39 43.3552 1302.58 45.2764 Q1301.79 47.1746 1299.68 49.7672 Q1299.11 50.4384 1296 53.656 Q1292.9 56.8504 1287.25 62.6143 Z" fill="#000000" fill-rule="evenodd" fill-opacity="1" /><path clip-path="url(#clip350)" d="M1313.39 60.6699 L1318.27 60.6699 L1318.27 66.5495 L1313.39 66.5495 L1313.39 60.6699 Z" fill="#000000" fill-rule="evenodd" fill-opacity="1" /><path clip-path="url(#clip350)" d="M1338.46 35.0682 Q1334.85 35.0682 1333.02 38.633 Q1331.21 42.1746 1331.21 49.3042 Q1331.21 56.4106 1333.02 59.9754 Q1334.85 63.5171 1338.46 63.5171 Q1342.09 63.5171 1343.9 59.9754 Q1345.73 56.4106 1345.73 49.3042 Q1345.73 42.1746 1343.9 38.633 Q1342.09 35.0682 1338.46 35.0682 M1338.46 31.3645 Q1344.27 31.3645 1347.32 35.9709 Q1350.4 40.5542 1350.4 49.3042 Q1350.4 58.031 1347.32 62.6375 Q1344.27 67.2208 1338.46 67.2208 Q1332.65 67.2208 1329.57 62.6375 Q1326.51 58.031 1326.51 49.3042 Q1326.51 40.5542 1329.57 35.9709 Q1332.65 31.3645 1338.46 31.3645 Z" fill="#000000" fill-rule="evenodd" fill-opacity="1" /><polyline clip-path="url(#clip353)" style="stroke:#009af9; stroke-linecap:butt; stroke-linejoin:round; stroke-width:4; stroke-opacity:1; fill:none" points="
  1413.75,464.23 1425.29,464.23 1436.83,464.23 1448.37,464.23 1459.91,395.053 1471.45,308.577 1482.99,395.053 1494.53,395.053 1506.07,395.053 1517.61,395.053 
  1529.15,464.23 1540.69,395.053 1552.23,395.053 1563.77,395.053 1575.31,464.23 1586.85,464.23 1598.39,519.567 1609.93,563.834 1621.47,599.244 1633.01,599.244 
  1644.55,599.244 1656.09,627.571 1667.63,627.571 1679.17,650.231 1690.71,627.571 1702.25,627.571 1713.79,627.571 1725.33,627.571 1736.87,599.244 1748.41,599.244 
  1759.95,599.244 1771.49,599.244 1783.03,627.571 1794.57,599.244 1806.11,599.244 1817.65,650.231 1829.19,668.357 1840.73,650.231 1852.27,650.231 1863.81,627.571 
  1875.35,650.231 1886.89,650.231 1898.43,650.231 1909.97,627.571 1921.51,650.231 1933.05,650.231 1944.59,519.567 1956.13,519.567 1967.67,464.23 1979.21,395.053 
  1990.75,395.053 2002.29,464.23 2013.83,464.23 2025.37,464.23 2036.91,464.23 2048.45,464.23 2059.99,519.567 2071.53,563.834 2083.07,519.567 2094.61,395.053 
  2106.15,464.23 2117.69,464.23 2129.23,519.567 2140.77,519.567 2152.31,464.23 2163.85,395.053 2175.39,308.577 2186.93,308.577 2198.47,464.23 2210.01,519.567 
  2221.55,395.053 2233.09,395.053 2244.63,308.577 2256.17,200.474 2267.71,65.3348 2279.25,308.577 2290.79,200.474 2302.33,395.053 2313.87,395.053 2325.41,200.474 
  
  "/>
<path clip-path="url(#clip350)" d="
M2170.93 172.231 L2320.54 172.231 L2320.54 68.5509 L2170.93 68.5509  Z
  " fill="#ffffff" fill-rule="evenodd" fill-opacity="1"/>
<polyline clip-path="url(#clip350)" style="stroke:#000000; stroke-linecap:butt; stroke-linejoin:round; stroke-width:4; stroke-opacity:1; fill:none" points="
  2170.93,172.231 2320.54,172.231 2320.54,68.5509 2170.93,68.5509 2170.93,172.231 
  "/>
<polyline clip-path="url(#clip350)" style="stroke:#009af9; stroke-linecap:butt; stroke-linejoin:round; stroke-width:4; stroke-opacity:1; fill:none" points="
  2181.67,120.391 2246.09,120.391 
  "/>
<path clip-path="url(#clip350)" d="M2278.85 107.549 Q2278.85 107.572 2278.7 108.416 L2273.36 129.707 Q2273.08 130.831 2272.29 131.955 Q2271.51 133.103 2270.27 134.087 Q2269.05 135.094 2267.18 135.703 Q2265.33 136.335 2263.2 136.335 Q2259.8 136.335 2258.3 135.609 Q2256.83 134.906 2256.83 133.407 Q2256.83 132.096 2257.65 131.346 Q2258.47 130.62 2259.4 130.62 Q2260.29 130.62 2260.76 131.135 Q2261.23 131.651 2261.23 132.306 Q2261.23 133.033 2260.74 133.759 Q2260.25 134.508 2259.26 134.789 Q2260.83 135.281 2263.11 135.281 Q2267.91 135.281 2269.97 130.198 Q2270.01 130.128 2270.01 130.105 L2271.61 123.757 L2271.54 123.71 Q2271.14 124.179 2270.51 124.718 Q2269.9 125.233 2268.59 125.865 Q2267.27 126.498 2265.99 126.498 Q2263.29 126.498 2261.44 124.437 Q2259.62 122.352 2259.62 118.909 Q2259.62 116.403 2260.62 113.896 Q2261.65 111.367 2263.25 109.516 Q2264.86 107.643 2266.92 106.472 Q2269.01 105.3 2271.02 105.3 Q2272.43 105.3 2273.62 106.144 Q2274.82 106.963 2275.47 108.322 Q2275.59 107.198 2276.22 106.729 Q2276.88 106.261 2277.44 106.261 Q2278.07 106.261 2278.45 106.612 Q2278.85 106.94 2278.85 107.549 M2274.91 110.477 Q2274.91 110.336 2274.82 109.961 Q2274.72 109.563 2274.44 108.931 Q2274.18 108.298 2273.79 107.736 Q2273.39 107.174 2272.66 106.776 Q2271.96 106.354 2271.07 106.354 Q2269.62 106.354 2268.16 107.572 Q2266.71 108.767 2265.71 110.617 Q2264.77 112.397 2263.88 115.841 Q2263.01 119.284 2263.01 121.04 Q2263.01 122.774 2263.76 124.109 Q2264.51 125.444 2266.13 125.444 Q2268 125.444 2270.01 123.71 Q2272.1 121.907 2272.45 120.361 L2274.77 111.203 Q2274.91 110.641 2274.91 110.477 Z" fill="#000000" fill-rule="evenodd" fill-opacity="1" /><path clip-path="url(#clip350)" d="M2294.06 134.62 Q2294.06 135.079 2293.84 135.194 Q2293.63 135.292 2293.04 135.292 L2289.89 135.292 L2287.4 145.195 Q2287.2 146.064 2287.2 146.802 Q2287.2 147.622 2287.45 147.983 Q2287.71 148.343 2288.25 148.343 Q2289.32 148.343 2290.47 147.376 Q2291.63 146.409 2292.61 144.048 Q2292.75 143.736 2292.81 143.671 Q2292.89 143.589 2293.11 143.589 Q2293.52 143.589 2293.52 143.917 Q2293.52 144.031 2293.29 144.556 Q2293.07 145.081 2292.6 145.851 Q2292.14 146.622 2291.53 147.343 Q2290.94 148.065 2290.04 148.589 Q2289.14 149.098 2288.17 149.098 Q2286.81 149.098 2285.94 148.229 Q2285.09 147.36 2285.09 145.999 Q2285.09 145.556 2285.43 144.146 Q2285.78 142.72 2287.65 135.292 L2284.68 135.292 Q2284.27 135.292 2284.11 135.276 Q2283.96 135.26 2283.84 135.178 Q2283.74 135.079 2283.74 134.883 Q2283.74 134.571 2283.88 134.44 Q2284.01 134.292 2284.17 134.276 Q2284.35 134.243 2284.76 134.243 L2287.91 134.243 L2289.22 128.915 Q2289.35 128.39 2289.68 128.095 Q2290.02 127.783 2290.22 127.75 Q2290.42 127.701 2290.57 127.701 Q2291.01 127.701 2291.27 127.947 Q2291.53 128.177 2291.53 128.603 Q2291.53 128.833 2290.16 134.243 L2293.11 134.243 Q2293.48 134.243 2293.63 134.26 Q2293.8 134.276 2293.93 134.358 Q2294.06 134.44 2294.06 134.62 Z" fill="#000000" fill-rule="evenodd" fill-opacity="1" /><path clip-path="url(#clip350)" d="
M193.936 1486.45 L1160.29 1486.45 L1160.29 847.244 L193.936 847.244  Z
  " fill="#ffffff" fill-rule="evenodd" fill-opacity="1"/>
<defs>
  <clipPath id="clip354">
    <rect x="193" y="847" width="967" height="640"/>
  </clipPath>
</defs>
<polyline clip-path="url(#clip354)" style="stroke:#000000; stroke-linecap:butt; stroke-linejoin:round; stroke-width:2; stroke-opacity:0.1; fill:none" points="
  209.746,1486.45 209.746,847.244 
  "/>
<polyline clip-path="url(#clip354)" style="stroke:#000000; stroke-linecap:butt; stroke-linejoin:round; stroke-width:2; stroke-opacity:0.1; fill:none" points="
  440.545,1486.45 440.545,847.244 
  "/>
<polyline clip-path="url(#clip354)" style="stroke:#000000; stroke-linecap:butt; stroke-linejoin:round; stroke-width:2; stroke-opacity:0.1; fill:none" points="
  671.343,1486.45 671.343,847.244 
  "/>
<polyline clip-path="url(#clip354)" style="stroke:#000000; stroke-linecap:butt; stroke-linejoin:round; stroke-width:2; stroke-opacity:0.1; fill:none" points="
  902.142,1486.45 902.142,847.244 
  "/>
<polyline clip-path="url(#clip354)" style="stroke:#000000; stroke-linecap:butt; stroke-linejoin:round; stroke-width:2; stroke-opacity:0.1; fill:none" points="
  1132.94,1486.45 1132.94,847.244 
  "/>
<polyline clip-path="url(#clip350)" style="stroke:#000000; stroke-linecap:butt; stroke-linejoin:round; stroke-width:4; stroke-opacity:1; fill:none" points="
  193.936,1486.45 1160.29,1486.45 
  "/>
<polyline clip-path="url(#clip350)" style="stroke:#000000; stroke-linecap:butt; stroke-linejoin:round; stroke-width:4; stroke-opacity:1; fill:none" points="
  209.746,1486.45 209.746,1467.55 
  "/>
<polyline clip-path="url(#clip350)" style="stroke:#000000; stroke-linecap:butt; stroke-linejoin:round; stroke-width:4; stroke-opacity:1; fill:none" points="
  440.545,1486.45 440.545,1467.55 
  "/>
<polyline clip-path="url(#clip350)" style="stroke:#000000; stroke-linecap:butt; stroke-linejoin:round; stroke-width:4; stroke-opacity:1; fill:none" points="
  671.343,1486.45 671.343,1467.55 
  "/>
<polyline clip-path="url(#clip350)" style="stroke:#000000; stroke-linecap:butt; stroke-linejoin:round; stroke-width:4; stroke-opacity:1; fill:none" points="
  902.142,1486.45 902.142,1467.55 
  "/>
<polyline clip-path="url(#clip350)" style="stroke:#000000; stroke-linecap:butt; stroke-linejoin:round; stroke-width:4; stroke-opacity:1; fill:none" points="
  1132.94,1486.45 1132.94,1467.55 
  "/>
<path clip-path="url(#clip350)" d="M209.746 1517.37 Q206.135 1517.37 204.306 1520.93 Q202.5 1524.47 202.5 1531.6 Q202.5 1538.71 204.306 1542.27 Q206.135 1545.82 209.746 1545.82 Q213.38 1545.82 215.186 1542.27 Q217.014 1538.71 217.014 1531.6 Q217.014 1524.47 215.186 1520.93 Q213.38 1517.37 209.746 1517.37 M209.746 1513.66 Q215.556 1513.66 218.611 1518.27 Q221.69 1522.85 221.69 1531.6 Q221.69 1540.33 218.611 1544.94 Q215.556 1549.52 209.746 1549.52 Q203.936 1549.52 200.857 1544.94 Q197.801 1540.33 197.801 1531.6 Q197.801 1522.85 200.857 1518.27 Q203.936 1513.66 209.746 1513.66 Z" fill="#000000" fill-rule="evenodd" fill-opacity="1" /><path clip-path="url(#clip350)" d="M419.318 1544.91 L435.637 1544.91 L435.637 1548.85 L413.693 1548.85 L413.693 1544.91 Q416.355 1542.16 420.938 1537.53 Q425.545 1532.88 426.725 1531.53 Q428.971 1529.01 429.85 1527.27 Q430.753 1525.51 430.753 1523.82 Q430.753 1521.07 428.808 1519.33 Q426.887 1517.6 423.785 1517.6 Q421.586 1517.6 419.133 1518.36 Q416.702 1519.13 413.924 1520.68 L413.924 1515.95 Q416.748 1514.82 419.202 1514.24 Q421.656 1513.66 423.693 1513.66 Q429.063 1513.66 432.258 1516.35 Q435.452 1519.03 435.452 1523.52 Q435.452 1525.65 434.642 1527.57 Q433.855 1529.47 431.748 1532.07 Q431.17 1532.74 428.068 1535.95 Q424.966 1539.15 419.318 1544.91 Z" fill="#000000" fill-rule="evenodd" fill-opacity="1" /><path clip-path="url(#clip350)" d="M455.452 1517.37 Q451.841 1517.37 450.012 1520.93 Q448.207 1524.47 448.207 1531.6 Q448.207 1538.71 450.012 1542.27 Q451.841 1545.82 455.452 1545.82 Q459.086 1545.82 460.892 1542.27 Q462.72 1538.71 462.72 1531.6 Q462.72 1524.47 460.892 1520.93 Q459.086 1517.37 455.452 1517.37 M455.452 1513.66 Q461.262 1513.66 464.318 1518.27 Q467.396 1522.85 467.396 1531.6 Q467.396 1540.33 464.318 1544.94 Q461.262 1549.52 455.452 1549.52 Q449.642 1549.52 446.563 1544.94 Q443.507 1540.33 443.507 1531.6 Q443.507 1522.85 446.563 1518.27 Q449.642 1513.66 455.452 1513.66 Z" fill="#000000" fill-rule="evenodd" fill-opacity="1" /><path clip-path="url(#clip350)" d="M659.515 1518.36 L647.709 1536.81 L659.515 1536.81 L659.515 1518.36 M658.288 1514.29 L664.167 1514.29 L664.167 1536.81 L669.098 1536.81 L669.098 1540.7 L664.167 1540.7 L664.167 1548.85 L659.515 1548.85 L659.515 1540.7 L643.913 1540.7 L643.913 1536.19 L658.288 1514.29 Z" fill="#000000" fill-rule="evenodd" fill-opacity="1" /><path clip-path="url(#clip350)" d="M686.829 1517.37 Q683.218 1517.37 681.39 1520.93 Q679.584 1524.47 679.584 1531.6 Q679.584 1538.71 681.39 1542.27 Q683.218 1545.82 686.829 1545.82 Q690.464 1545.82 692.269 1542.27 Q694.098 1538.71 694.098 1531.6 Q694.098 1524.47 692.269 1520.93 Q690.464 1517.37 686.829 1517.37 M686.829 1513.66 Q692.64 1513.66 695.695 1518.27 Q698.774 1522.85 698.774 1531.6 Q698.774 1540.33 695.695 1544.94 Q692.64 1549.52 686.829 1549.52 Q681.019 1549.52 677.941 1544.94 Q674.885 1540.33 674.885 1531.6 Q674.885 1522.85 677.941 1518.27 Q681.019 1513.66 686.829 1513.66 Z" fill="#000000" fill-rule="evenodd" fill-opacity="1" /><path clip-path="url(#clip350)" d="M887.547 1529.7 Q884.399 1529.7 882.547 1531.86 Q880.719 1534.01 880.719 1537.76 Q880.719 1541.49 882.547 1543.66 Q884.399 1545.82 887.547 1545.82 Q890.695 1545.82 892.524 1543.66 Q894.376 1541.49 894.376 1537.76 Q894.376 1534.01 892.524 1531.86 Q890.695 1529.7 887.547 1529.7 M896.83 1515.05 L896.83 1519.31 Q895.07 1518.48 893.265 1518.04 Q891.482 1517.6 889.723 1517.6 Q885.094 1517.6 882.64 1520.72 Q880.209 1523.85 879.862 1530.17 Q881.228 1528.15 883.288 1527.09 Q885.348 1526 887.825 1526 Q893.033 1526 896.043 1529.17 Q899.075 1532.32 899.075 1537.76 Q899.075 1543.08 895.927 1546.3 Q892.779 1549.52 887.547 1549.52 Q881.552 1549.52 878.381 1544.94 Q875.209 1540.33 875.209 1531.6 Q875.209 1523.41 879.098 1518.55 Q882.987 1513.66 889.538 1513.66 Q891.297 1513.66 893.08 1514.01 Q894.885 1514.36 896.83 1515.05 Z" fill="#000000" fill-rule="evenodd" fill-opacity="1" /><path clip-path="url(#clip350)" d="M917.13 1517.37 Q913.519 1517.37 911.691 1520.93 Q909.885 1524.47 909.885 1531.6 Q909.885 1538.71 911.691 1542.27 Q913.519 1545.82 917.13 1545.82 Q920.765 1545.82 922.57 1542.27 Q924.399 1538.71 924.399 1531.6 Q924.399 1524.47 922.57 1520.93 Q920.765 1517.37 917.13 1517.37 M917.13 1513.66 Q922.941 1513.66 925.996 1518.27 Q929.075 1522.85 929.075 1531.6 Q929.075 1540.33 925.996 1544.94 Q922.941 1549.52 917.13 1549.52 Q911.32 1549.52 908.242 1544.94 Q905.186 1540.33 905.186 1531.6 Q905.186 1522.85 908.242 1518.27 Q911.32 1513.66 917.13 1513.66 Z" fill="#000000" fill-rule="evenodd" fill-opacity="1" /><path clip-path="url(#clip350)" d="M1117.81 1532.44 Q1114.48 1532.44 1112.56 1534.22 Q1110.66 1536 1110.66 1539.13 Q1110.66 1542.25 1112.56 1544.03 Q1114.48 1545.82 1117.81 1545.82 Q1121.15 1545.82 1123.07 1544.03 Q1124.99 1542.23 1124.99 1539.13 Q1124.99 1536 1123.07 1534.22 Q1121.17 1532.44 1117.81 1532.44 M1113.14 1530.45 Q1110.13 1529.7 1108.44 1527.64 Q1106.77 1525.58 1106.77 1522.62 Q1106.77 1518.48 1109.71 1516.07 Q1112.67 1513.66 1117.81 1513.66 Q1122.98 1513.66 1125.92 1516.07 Q1128.86 1518.48 1128.86 1522.62 Q1128.86 1525.58 1127.17 1527.64 Q1125.5 1529.7 1122.51 1530.45 Q1125.89 1531.23 1127.77 1533.52 Q1129.67 1535.82 1129.67 1539.13 Q1129.67 1544.15 1126.59 1546.83 Q1123.53 1549.52 1117.81 1549.52 Q1112.1 1549.52 1109.02 1546.83 Q1105.96 1544.15 1105.96 1539.13 Q1105.96 1535.82 1107.86 1533.52 Q1109.76 1531.23 1113.14 1530.45 M1111.42 1523.06 Q1111.42 1525.75 1113.09 1527.25 Q1114.78 1528.76 1117.81 1528.76 Q1120.82 1528.76 1122.51 1527.25 Q1124.23 1525.75 1124.23 1523.06 Q1124.23 1520.38 1122.51 1518.87 Q1120.82 1517.37 1117.81 1517.37 Q1114.78 1517.37 1113.09 1518.87 Q1111.42 1520.38 1111.42 1523.06 Z" fill="#000000" fill-rule="evenodd" fill-opacity="1" /><path clip-path="url(#clip350)" d="M1147.98 1517.37 Q1144.36 1517.37 1142.54 1520.93 Q1140.73 1524.47 1140.73 1531.6 Q1140.73 1538.71 1142.54 1542.27 Q1144.36 1545.82 1147.98 1545.82 Q1151.61 1545.82 1153.42 1542.27 Q1155.24 1538.71 1155.24 1531.6 Q1155.24 1524.47 1153.42 1520.93 Q1151.61 1517.37 1147.98 1517.37 M1147.98 1513.66 Q1153.79 1513.66 1156.84 1518.27 Q1159.92 1522.85 1159.92 1531.6 Q1159.92 1540.33 1156.84 1544.94 Q1153.79 1549.52 1147.98 1549.52 Q1142.17 1549.52 1139.09 1544.94 Q1136.03 1540.33 1136.03 1531.6 Q1136.03 1522.85 1139.09 1518.27 Q1142.17 1513.66 1147.98 1513.66 Z" fill="#000000" fill-rule="evenodd" fill-opacity="1" /><polyline clip-path="url(#clip354)" style="stroke:#000000; stroke-linecap:butt; stroke-linejoin:round; stroke-width:2; stroke-opacity:0.1; fill:none" points="
  193.936,1468.36 1160.29,1468.36 
  "/>
<polyline clip-path="url(#clip354)" style="stroke:#000000; stroke-linecap:butt; stroke-linejoin:round; stroke-width:2; stroke-opacity:0.1; fill:none" points="
  193.936,1317.59 1160.29,1317.59 
  "/>
<polyline clip-path="url(#clip354)" style="stroke:#000000; stroke-linecap:butt; stroke-linejoin:round; stroke-width:2; stroke-opacity:0.1; fill:none" points="
  193.936,1166.82 1160.29,1166.82 
  "/>
<polyline clip-path="url(#clip354)" style="stroke:#000000; stroke-linecap:butt; stroke-linejoin:round; stroke-width:2; stroke-opacity:0.1; fill:none" points="
  193.936,1016.06 1160.29,1016.06 
  "/>
<polyline clip-path="url(#clip354)" style="stroke:#000000; stroke-linecap:butt; stroke-linejoin:round; stroke-width:2; stroke-opacity:0.1; fill:none" points="
  193.936,865.292 1160.29,865.292 
  "/>
<polyline clip-path="url(#clip350)" style="stroke:#000000; stroke-linecap:butt; stroke-linejoin:round; stroke-width:4; stroke-opacity:1; fill:none" points="
  193.936,1486.45 193.936,847.244 
  "/>
<polyline clip-path="url(#clip350)" style="stroke:#000000; stroke-linecap:butt; stroke-linejoin:round; stroke-width:4; stroke-opacity:1; fill:none" points="
  193.936,1468.36 212.834,1468.36 
  "/>
<polyline clip-path="url(#clip350)" style="stroke:#000000; stroke-linecap:butt; stroke-linejoin:round; stroke-width:4; stroke-opacity:1; fill:none" points="
  193.936,1317.59 212.834,1317.59 
  "/>
<polyline clip-path="url(#clip350)" style="stroke:#000000; stroke-linecap:butt; stroke-linejoin:round; stroke-width:4; stroke-opacity:1; fill:none" points="
  193.936,1166.82 212.834,1166.82 
  "/>
<polyline clip-path="url(#clip350)" style="stroke:#000000; stroke-linecap:butt; stroke-linejoin:round; stroke-width:4; stroke-opacity:1; fill:none" points="
  193.936,1016.06 212.834,1016.06 
  "/>
<polyline clip-path="url(#clip350)" style="stroke:#000000; stroke-linecap:butt; stroke-linejoin:round; stroke-width:4; stroke-opacity:1; fill:none" points="
  193.936,865.292 212.834,865.292 
  "/>
<path clip-path="url(#clip350)" d="M100.76 1454.16 Q97.1493 1454.16 95.3206 1457.72 Q93.515 1461.26 93.515 1468.39 Q93.515 1475.5 95.3206 1479.06 Q97.1493 1482.6 100.76 1482.6 Q104.395 1482.6 106.2 1479.06 Q108.029 1475.5 108.029 1468.39 Q108.029 1461.26 106.2 1457.72 Q104.395 1454.16 100.76 1454.16 M100.76 1450.45 Q106.571 1450.45 109.626 1455.06 Q112.705 1459.64 112.705 1468.39 Q112.705 1477.12 109.626 1481.73 Q106.571 1486.31 100.76 1486.31 Q94.9502 1486.31 91.8715 1481.73 Q88.816 1477.12 88.816 1468.39 Q88.816 1459.64 91.8715 1455.06 Q94.9502 1450.45 100.76 1450.45 Z" fill="#000000" fill-rule="evenodd" fill-opacity="1" /><path clip-path="url(#clip350)" d="M120.922 1479.76 L125.807 1479.76 L125.807 1485.64 L120.922 1485.64 L120.922 1479.76 Z" fill="#000000" fill-rule="evenodd" fill-opacity="1" /><path clip-path="url(#clip350)" d="M145.992 1454.16 Q142.381 1454.16 140.552 1457.72 Q138.746 1461.26 138.746 1468.39 Q138.746 1475.5 140.552 1479.06 Q142.381 1482.6 145.992 1482.6 Q149.626 1482.6 151.431 1479.06 Q153.26 1475.5 153.26 1468.39 Q153.26 1461.26 151.431 1457.72 Q149.626 1454.16 145.992 1454.16 M145.992 1450.45 Q151.802 1450.45 154.857 1455.06 Q157.936 1459.64 157.936 1468.39 Q157.936 1477.12 154.857 1481.73 Q151.802 1486.31 145.992 1486.31 Q140.181 1486.31 137.103 1481.73 Q134.047 1477.12 134.047 1468.39 Q134.047 1459.64 137.103 1455.06 Q140.181 1450.45 145.992 1450.45 Z" fill="#000000" fill-rule="evenodd" fill-opacity="1" /><path clip-path="url(#clip350)" d="M102.358 1303.39 Q98.7465 1303.39 96.9178 1306.95 Q95.1123 1310.5 95.1123 1317.63 Q95.1123 1324.73 96.9178 1328.3 Q98.7465 1331.84 102.358 1331.84 Q105.992 1331.84 107.797 1328.3 Q109.626 1324.73 109.626 1317.63 Q109.626 1310.5 107.797 1306.95 Q105.992 1303.39 102.358 1303.39 M102.358 1299.69 Q108.168 1299.69 111.223 1304.29 Q114.302 1308.88 114.302 1317.63 Q114.302 1326.35 111.223 1330.96 Q108.168 1335.54 102.358 1335.54 Q96.5474 1335.54 93.4688 1330.96 Q90.4132 1326.35 90.4132 1317.63 Q90.4132 1308.88 93.4688 1304.29 Q96.5474 1299.69 102.358 1299.69 Z" fill="#000000" fill-rule="evenodd" fill-opacity="1" /><path clip-path="url(#clip350)" d="M122.52 1328.99 L127.404 1328.99 L127.404 1334.87 L122.52 1334.87 L122.52 1328.99 Z" fill="#000000" fill-rule="evenodd" fill-opacity="1" /><path clip-path="url(#clip350)" d="M141.617 1330.94 L157.936 1330.94 L157.936 1334.87 L135.992 1334.87 L135.992 1330.94 Q138.654 1328.18 143.237 1323.55 Q147.843 1318.9 149.024 1317.56 Q151.269 1315.03 152.149 1313.3 Q153.052 1311.54 153.052 1309.85 Q153.052 1307.09 151.107 1305.36 Q149.186 1303.62 146.084 1303.62 Q143.885 1303.62 141.431 1304.38 Q139.001 1305.15 136.223 1306.7 L136.223 1301.98 Q139.047 1300.84 141.501 1300.26 Q143.955 1299.69 145.992 1299.69 Q151.362 1299.69 154.556 1302.37 Q157.751 1305.06 157.751 1309.55 Q157.751 1311.68 156.941 1313.6 Q156.154 1315.5 154.047 1318.09 Q153.468 1318.76 150.367 1321.98 Q147.265 1325.17 141.617 1330.94 Z" fill="#000000" fill-rule="evenodd" fill-opacity="1" /><path clip-path="url(#clip350)" d="M100.274 1152.62 Q96.6632 1152.62 94.8345 1156.19 Q93.0289 1159.73 93.0289 1166.86 Q93.0289 1173.97 94.8345 1177.53 Q96.6632 1181.07 100.274 1181.07 Q103.909 1181.07 105.714 1177.53 Q107.543 1173.97 107.543 1166.86 Q107.543 1159.73 105.714 1156.19 Q103.909 1152.62 100.274 1152.62 M100.274 1148.92 Q106.084 1148.92 109.14 1153.53 Q112.219 1158.11 112.219 1166.86 Q112.219 1175.59 109.14 1180.19 Q106.084 1184.78 100.274 1184.78 Q94.4641 1184.78 91.3854 1180.19 Q88.3299 1175.59 88.3299 1166.86 Q88.3299 1158.11 91.3854 1153.53 Q94.4641 1148.92 100.274 1148.92 Z" fill="#000000" fill-rule="evenodd" fill-opacity="1" /><path clip-path="url(#clip350)" d="M120.436 1178.23 L125.32 1178.23 L125.32 1184.1 L120.436 1184.1 L120.436 1178.23 Z" fill="#000000" fill-rule="evenodd" fill-opacity="1" /><path clip-path="url(#clip350)" d="M148.353 1153.62 L136.547 1172.07 L148.353 1172.07 L148.353 1153.62 M147.126 1149.54 L153.005 1149.54 L153.005 1172.07 L157.936 1172.07 L157.936 1175.96 L153.005 1175.96 L153.005 1184.1 L148.353 1184.1 L148.353 1175.96 L132.751 1175.96 L132.751 1171.44 L147.126 1149.54 Z" fill="#000000" fill-rule="evenodd" fill-opacity="1" /><path clip-path="url(#clip350)" d="M100.598 1001.86 Q96.9872 1001.86 95.1586 1005.42 Q93.353 1008.96 93.353 1016.09 Q93.353 1023.2 95.1586 1026.76 Q96.9872 1030.31 100.598 1030.31 Q104.233 1030.31 106.038 1026.76 Q107.867 1023.2 107.867 1016.09 Q107.867 1008.96 106.038 1005.42 Q104.233 1001.86 100.598 1001.86 M100.598 998.153 Q106.408 998.153 109.464 1002.76 Q112.543 1007.34 112.543 1016.09 Q112.543 1024.82 109.464 1029.43 Q106.408 1034.01 100.598 1034.01 Q94.7882 1034.01 91.7095 1029.43 Q88.654 1024.82 88.654 1016.09 Q88.654 1007.34 91.7095 1002.76 Q94.7882 998.153 100.598 998.153 Z" fill="#000000" fill-rule="evenodd" fill-opacity="1" /><path clip-path="url(#clip350)" d="M120.76 1027.46 L125.645 1027.46 L125.645 1033.34 L120.76 1033.34 L120.76 1027.46 Z" fill="#000000" fill-rule="evenodd" fill-opacity="1" /><path clip-path="url(#clip350)" d="M146.408 1014.19 Q143.26 1014.19 141.408 1016.35 Q139.58 1018.5 139.58 1022.25 Q139.58 1025.98 141.408 1028.15 Q143.26 1030.31 146.408 1030.31 Q149.556 1030.31 151.385 1028.15 Q153.237 1025.98 153.237 1022.25 Q153.237 1018.5 151.385 1016.35 Q149.556 1014.19 146.408 1014.19 M155.691 999.542 L155.691 1003.8 Q153.931 1002.97 152.126 1002.53 Q150.343 1002.09 148.584 1002.09 Q143.955 1002.09 141.501 1005.21 Q139.07 1008.34 138.723 1014.66 Q140.089 1012.64 142.149 1011.58 Q144.209 1010.49 146.686 1010.49 Q151.894 1010.49 154.904 1013.66 Q157.936 1016.81 157.936 1022.25 Q157.936 1027.57 154.788 1030.79 Q151.64 1034.01 146.408 1034.01 Q140.413 1034.01 137.242 1029.43 Q134.07 1024.82 134.07 1016.09 Q134.07 1007.9 137.959 1003.04 Q141.848 998.153 148.399 998.153 Q150.158 998.153 151.941 998.501 Q153.746 998.848 155.691 999.542 Z" fill="#000000" fill-rule="evenodd" fill-opacity="1" /><path clip-path="url(#clip350)" d="M100.853 851.091 Q97.2419 851.091 95.4132 854.656 Q93.6076 858.197 93.6076 865.327 Q93.6076 872.433 95.4132 875.998 Q97.2419 879.54 100.853 879.54 Q104.487 879.54 106.293 875.998 Q108.121 872.433 108.121 865.327 Q108.121 858.197 106.293 854.656 Q104.487 851.091 100.853 851.091 M100.853 847.387 Q106.663 847.387 109.719 851.994 Q112.797 856.577 112.797 865.327 Q112.797 874.054 109.719 878.66 Q106.663 883.243 100.853 883.243 Q95.0428 883.243 91.9641 878.66 Q88.9086 874.054 88.9086 865.327 Q88.9086 856.577 91.9641 851.994 Q95.0428 847.387 100.853 847.387 Z" fill="#000000" fill-rule="evenodd" fill-opacity="1" /><path clip-path="url(#clip350)" d="M121.015 876.693 L125.899 876.693 L125.899 882.572 L121.015 882.572 L121.015 876.693 Z" fill="#000000" fill-rule="evenodd" fill-opacity="1" /><path clip-path="url(#clip350)" d="M146.084 866.16 Q142.751 866.16 140.83 867.943 Q138.931 869.725 138.931 872.85 Q138.931 875.975 140.83 877.757 Q142.751 879.54 146.084 879.54 Q149.418 879.54 151.339 877.757 Q153.26 875.952 153.26 872.85 Q153.26 869.725 151.339 867.943 Q149.441 866.16 146.084 866.16 M141.408 864.169 Q138.399 863.429 136.709 861.369 Q135.043 859.308 135.043 856.345 Q135.043 852.202 137.982 849.795 Q140.945 847.387 146.084 847.387 Q151.246 847.387 154.186 849.795 Q157.126 852.202 157.126 856.345 Q157.126 859.308 155.436 861.369 Q153.769 863.429 150.783 864.169 Q154.163 864.956 156.038 867.248 Q157.936 869.54 157.936 872.85 Q157.936 877.873 154.857 880.558 Q151.802 883.243 146.084 883.243 Q140.367 883.243 137.288 880.558 Q134.232 877.873 134.232 872.85 Q134.232 869.54 136.131 867.248 Q138.029 864.956 141.408 864.169 M139.695 856.785 Q139.695 859.47 141.362 860.975 Q143.052 862.48 146.084 862.48 Q149.093 862.48 150.783 860.975 Q152.496 859.47 152.496 856.785 Q152.496 854.1 150.783 852.595 Q149.093 851.091 146.084 851.091 Q143.052 851.091 141.362 852.595 Q139.695 854.1 139.695 856.785 Z" fill="#000000" fill-rule="evenodd" fill-opacity="1" /><polyline clip-path="url(#clip354)" style="stroke:#009af9; stroke-linecap:butt; stroke-linejoin:round; stroke-width:4; stroke-opacity:1; fill:none" points="
  221.286,865.335 232.826,985.973 244.366,1082.48 255.905,1159.68 267.445,1159.68 278.985,1082.48 290.525,1082.48 302.065,1082.48 313.605,1082.48 325.145,1082.48 
  336.685,1159.68 348.225,1159.68 359.765,1159.68 371.305,1159.68 382.845,1221.43 394.385,1270.83 405.925,1341.96 417.465,1403.65 429.005,1441.86 440.545,1457.51 
  452.084,1463.91 463.624,1466.9 475.164,1467.88 486.704,1468.23 498.244,1468.32 509.784,1468.34 521.324,1468.35 532.864,1468.36 544.404,1468.36 555.944,1468.36 
  567.484,1468.36 579.024,1468.36 590.564,1468.36 602.104,1468.36 613.644,1468.36 625.184,1468.36 636.724,1468.36 648.263,1468.36 659.803,1468.36 671.343,1468.36 
  682.883,1468.36 694.423,1468.36 705.963,1468.36 717.503,1468.36 729.043,1468.36 740.583,1468.36 752.123,1468.36 763.663,1468.36 775.203,1468.36 786.743,1468.36 
  798.283,1468.36 809.823,1468.36 821.363,1468.36 832.902,1468.36 844.442,1468.36 855.982,1468.36 867.522,1468.36 879.062,1468.36 890.602,1468.36 902.142,1468.36 
  913.682,1468.36 925.222,1468.36 936.762,1468.36 948.302,1468.36 959.842,1468.36 971.382,1468.36 982.922,1468.36 994.462,1468.36 1006,1468.36 1017.54,1468.36 
  1029.08,1468.36 1040.62,1468.36 1052.16,1468.36 1063.7,1468.36 1075.24,1468.36 1086.78,1468.36 1098.32,1468.36 1109.86,1468.36 1121.4,1468.36 1132.94,1468.36 
  
  "/>
<path clip-path="url(#clip350)" d="
M977.652 972.231 L1128.08 972.231 L1128.08 868.551 L977.652 868.551  Z
  " fill="#ffffff" fill-rule="evenodd" fill-opacity="1"/>
<polyline clip-path="url(#clip350)" style="stroke:#000000; stroke-linecap:butt; stroke-linejoin:round; stroke-width:4; stroke-opacity:1; fill:none" points="
  977.652,972.231 1128.08,972.231 1128.08,868.551 977.652,868.551 977.652,972.231 
  "/>
<polyline clip-path="url(#clip350)" style="stroke:#009af9; stroke-linecap:butt; stroke-linejoin:round; stroke-width:4; stroke-opacity:1; fill:none" points="
  988.389,920.391 1052.81,920.391 
  "/>
<path clip-path="url(#clip350)" d="M1086.39 904.316 L1079.48 932.048 Q1079.2 933.289 1079.2 934.343 Q1079.2 936.545 1080.63 936.545 Q1081.33 936.545 1081.89 936.1 Q1082.45 935.655 1082.9 934.718 Q1083.34 933.781 1083.62 932.914 Q1083.9 932.024 1084.28 930.619 Q1084.4 930.057 1084.49 929.916 Q1084.61 929.752 1084.93 929.752 Q1085.52 929.752 1085.52 930.221 Q1084.89 933.242 1084.07 934.976 Q1082.76 937.622 1080.53 937.622 Q1078.85 937.622 1077.65 936.592 Q1076.46 935.561 1076.17 934.015 Q1073.11 937.622 1069.92 937.622 Q1067.11 937.622 1065.33 935.491 Q1063.55 933.336 1063.55 929.94 Q1063.55 926.52 1065.24 923.241 Q1066.95 919.962 1069.64 917.924 Q1072.33 915.886 1075.1 915.886 Q1078.03 915.886 1079.52 918.955 L1082.41 907.571 L1082.55 906.634 Q1082.55 906.353 1082.43 906.213 Q1082.33 906.049 1081.77 905.932 Q1081.23 905.815 1080.16 905.815 Q1079.71 905.815 1079.5 905.791 Q1079.31 905.768 1079.15 905.651 Q1078.99 905.51 1078.99 905.229 Q1078.99 904.409 1079.66 904.316 Q1084.16 903.8 1085.75 903.8 Q1086.04 903.8 1086.2 903.941 Q1086.36 904.058 1086.36 904.199 L1086.39 904.316 M1078.94 921.156 Q1078.94 920.946 1078.77 920.36 Q1078.61 919.774 1078.24 918.955 Q1077.86 918.135 1077.04 917.549 Q1076.25 916.94 1075.17 916.94 Q1073.72 916.94 1072.19 918.182 Q1070.69 919.423 1069.59 921.531 Q1068.75 923.218 1067.84 926.754 Q1066.95 930.291 1066.95 932.048 Q1066.95 933.125 1067.18 934.086 Q1067.44 935.022 1068.16 935.795 Q1068.89 936.545 1070.01 936.545 Q1072.76 936.545 1075.45 933.149 Q1075.96 932.563 1076.08 932.329 Q1076.22 932.071 1076.41 931.369 L1078.8 921.976 Q1078.94 921.274 1078.94 921.156 Z" fill="#000000" fill-rule="evenodd" fill-opacity="1" /><path clip-path="url(#clip350)" d="M1101.59 936.003 Q1101.59 936.462 1101.38 936.577 Q1101.17 936.675 1100.58 936.675 L1097.43 936.675 L1094.94 946.578 Q1094.74 947.447 1094.74 948.185 Q1094.74 949.005 1094.98 949.366 Q1095.25 949.726 1095.79 949.726 Q1096.85 949.726 1098 948.759 Q1099.17 947.792 1100.15 945.431 Q1100.28 945.119 1100.35 945.053 Q1100.43 944.971 1100.64 944.971 Q1101.05 944.971 1101.05 945.299 Q1101.05 945.414 1100.82 945.939 Q1100.61 946.464 1100.13 947.234 Q1099.67 948.005 1099.07 948.726 Q1098.48 949.448 1097.58 949.972 Q1096.67 950.48 1095.71 950.48 Q1094.35 950.48 1093.48 949.611 Q1092.62 948.743 1092.62 947.382 Q1092.62 946.939 1092.97 945.529 Q1093.31 944.103 1095.18 936.675 L1092.21 936.675 Q1091.8 936.675 1091.64 936.659 Q1091.49 936.642 1091.38 936.56 Q1091.28 936.462 1091.28 936.265 Q1091.28 935.954 1091.41 935.823 Q1091.54 935.675 1091.71 935.659 Q1091.89 935.626 1092.3 935.626 L1095.44 935.626 L1096.76 930.297 Q1096.89 929.773 1097.21 929.478 Q1097.56 929.166 1097.76 929.133 Q1097.95 929.084 1098.1 929.084 Q1098.54 929.084 1098.81 929.33 Q1099.07 929.56 1099.07 929.986 Q1099.07 930.215 1097.69 935.626 L1100.64 935.626 Q1101.02 935.626 1101.17 935.642 Q1101.33 935.659 1101.46 935.741 Q1101.59 935.823 1101.59 936.003 Z" fill="#000000" fill-rule="evenodd" fill-opacity="1" /><path clip-path="url(#clip350)" d="
M1386.4 1486.45 L2352.76 1486.45 L2352.76 847.244 L1386.4 847.244  Z
  " fill="#ffffff" fill-rule="evenodd" fill-opacity="1"/>
<defs>
  <clipPath id="clip355">
    <rect x="1386" y="847" width="967" height="640"/>
  </clipPath>
</defs>
<polyline clip-path="url(#clip355)" style="stroke:#000000; stroke-linecap:butt; stroke-linejoin:round; stroke-width:2; stroke-opacity:0.1; fill:none" points="
  1402.21,1486.45 1402.21,847.244 
  "/>
<polyline clip-path="url(#clip355)" style="stroke:#000000; stroke-linecap:butt; stroke-linejoin:round; stroke-width:2; stroke-opacity:0.1; fill:none" points="
  1633.01,1486.45 1633.01,847.244 
  "/>
<polyline clip-path="url(#clip355)" style="stroke:#000000; stroke-linecap:butt; stroke-linejoin:round; stroke-width:2; stroke-opacity:0.1; fill:none" points="
  1863.81,1486.45 1863.81,847.244 
  "/>
<polyline clip-path="url(#clip355)" style="stroke:#000000; stroke-linecap:butt; stroke-linejoin:round; stroke-width:2; stroke-opacity:0.1; fill:none" points="
  2094.61,1486.45 2094.61,847.244 
  "/>
<polyline clip-path="url(#clip355)" style="stroke:#000000; stroke-linecap:butt; stroke-linejoin:round; stroke-width:2; stroke-opacity:0.1; fill:none" points="
  2325.41,1486.45 2325.41,847.244 
  "/>
<polyline clip-path="url(#clip350)" style="stroke:#000000; stroke-linecap:butt; stroke-linejoin:round; stroke-width:4; stroke-opacity:1; fill:none" points="
  1386.4,1486.45 2352.76,1486.45 
  "/>
<polyline clip-path="url(#clip350)" style="stroke:#000000; stroke-linecap:butt; stroke-linejoin:round; stroke-width:4; stroke-opacity:1; fill:none" points="
  1402.21,1486.45 1402.21,1467.55 
  "/>
<polyline clip-path="url(#clip350)" style="stroke:#000000; stroke-linecap:butt; stroke-linejoin:round; stroke-width:4; stroke-opacity:1; fill:none" points="
  1633.01,1486.45 1633.01,1467.55 
  "/>
<polyline clip-path="url(#clip350)" style="stroke:#000000; stroke-linecap:butt; stroke-linejoin:round; stroke-width:4; stroke-opacity:1; fill:none" points="
  1863.81,1486.45 1863.81,1467.55 
  "/>
<polyline clip-path="url(#clip350)" style="stroke:#000000; stroke-linecap:butt; stroke-linejoin:round; stroke-width:4; stroke-opacity:1; fill:none" points="
  2094.61,1486.45 2094.61,1467.55 
  "/>
<polyline clip-path="url(#clip350)" style="stroke:#000000; stroke-linecap:butt; stroke-linejoin:round; stroke-width:4; stroke-opacity:1; fill:none" points="
  2325.41,1486.45 2325.41,1467.55 
  "/>
<path clip-path="url(#clip350)" d="M1402.21 1517.37 Q1398.6 1517.37 1396.77 1520.93 Q1394.97 1524.47 1394.97 1531.6 Q1394.97 1538.71 1396.77 1542.27 Q1398.6 1545.82 1402.21 1545.82 Q1405.85 1545.82 1407.65 1542.27 Q1409.48 1538.71 1409.48 1531.6 Q1409.48 1524.47 1407.65 1520.93 Q1405.85 1517.37 1402.21 1517.37 M1402.21 1513.66 Q1408.02 1513.66 1411.08 1518.27 Q1414.16 1522.85 1414.16 1531.6 Q1414.16 1540.33 1411.08 1544.94 Q1408.02 1549.52 1402.21 1549.52 Q1396.4 1549.52 1393.32 1544.94 Q1390.27 1540.33 1390.27 1531.6 Q1390.27 1522.85 1393.32 1518.27 Q1396.4 1513.66 1402.21 1513.66 Z" fill="#000000" fill-rule="evenodd" fill-opacity="1" /><path clip-path="url(#clip350)" d="M1611.78 1544.91 L1628.1 1544.91 L1628.1 1548.85 L1606.16 1548.85 L1606.16 1544.91 Q1608.82 1542.16 1613.4 1537.53 Q1618.01 1532.88 1619.19 1531.53 Q1621.44 1529.01 1622.32 1527.27 Q1623.22 1525.51 1623.22 1523.82 Q1623.22 1521.07 1621.27 1519.33 Q1619.35 1517.6 1616.25 1517.6 Q1614.05 1517.6 1611.6 1518.36 Q1609.17 1519.13 1606.39 1520.68 L1606.39 1515.95 Q1609.21 1514.82 1611.67 1514.24 Q1614.12 1513.66 1616.16 1513.66 Q1621.53 1513.66 1624.72 1516.35 Q1627.92 1519.03 1627.92 1523.52 Q1627.92 1525.65 1627.11 1527.57 Q1626.32 1529.47 1624.21 1532.07 Q1623.63 1532.74 1620.53 1535.95 Q1617.43 1539.15 1611.78 1544.91 Z" fill="#000000" fill-rule="evenodd" fill-opacity="1" /><path clip-path="url(#clip350)" d="M1647.92 1517.37 Q1644.31 1517.37 1642.48 1520.93 Q1640.67 1524.47 1640.67 1531.6 Q1640.67 1538.71 1642.48 1542.27 Q1644.31 1545.82 1647.92 1545.82 Q1651.55 1545.82 1653.36 1542.27 Q1655.19 1538.71 1655.19 1531.6 Q1655.19 1524.47 1653.36 1520.93 Q1651.55 1517.37 1647.92 1517.37 M1647.92 1513.66 Q1653.73 1513.66 1656.78 1518.27 Q1659.86 1522.85 1659.86 1531.6 Q1659.86 1540.33 1656.78 1544.94 Q1653.73 1549.52 1647.92 1549.52 Q1642.11 1549.52 1639.03 1544.94 Q1635.97 1540.33 1635.97 1531.6 Q1635.97 1522.85 1639.03 1518.27 Q1642.11 1513.66 1647.92 1513.66 Z" fill="#000000" fill-rule="evenodd" fill-opacity="1" /><path clip-path="url(#clip350)" d="M1851.98 1518.36 L1840.17 1536.81 L1851.98 1536.81 L1851.98 1518.36 M1850.75 1514.29 L1856.63 1514.29 L1856.63 1536.81 L1861.56 1536.81 L1861.56 1540.7 L1856.63 1540.7 L1856.63 1548.85 L1851.98 1548.85 L1851.98 1540.7 L1836.38 1540.7 L1836.38 1536.19 L1850.75 1514.29 Z" fill="#000000" fill-rule="evenodd" fill-opacity="1" /><path clip-path="url(#clip350)" d="M1879.29 1517.37 Q1875.68 1517.37 1873.85 1520.93 Q1872.05 1524.47 1872.05 1531.6 Q1872.05 1538.71 1873.85 1542.27 Q1875.68 1545.82 1879.29 1545.82 Q1882.93 1545.82 1884.73 1542.27 Q1886.56 1538.71 1886.56 1531.6 Q1886.56 1524.47 1884.73 1520.93 Q1882.93 1517.37 1879.29 1517.37 M1879.29 1513.66 Q1885.1 1513.66 1888.16 1518.27 Q1891.24 1522.85 1891.24 1531.6 Q1891.24 1540.33 1888.16 1544.94 Q1885.1 1549.52 1879.29 1549.52 Q1873.48 1549.52 1870.41 1544.94 Q1867.35 1540.33 1867.35 1531.6 Q1867.35 1522.85 1870.41 1518.27 Q1873.48 1513.66 1879.29 1513.66 Z" fill="#000000" fill-rule="evenodd" fill-opacity="1" /><path clip-path="url(#clip350)" d="M2080.01 1529.7 Q2076.86 1529.7 2075.01 1531.86 Q2073.18 1534.01 2073.18 1537.76 Q2073.18 1541.49 2075.01 1543.66 Q2076.86 1545.82 2080.01 1545.82 Q2083.16 1545.82 2084.99 1543.66 Q2086.84 1541.49 2086.84 1537.76 Q2086.84 1534.01 2084.99 1531.86 Q2083.16 1529.7 2080.01 1529.7 M2089.29 1515.05 L2089.29 1519.31 Q2087.54 1518.48 2085.73 1518.04 Q2083.95 1517.6 2082.19 1517.6 Q2077.56 1517.6 2075.11 1520.72 Q2072.67 1523.85 2072.33 1530.17 Q2073.69 1528.15 2075.75 1527.09 Q2077.81 1526 2080.29 1526 Q2085.5 1526 2088.51 1529.17 Q2091.54 1532.32 2091.54 1537.76 Q2091.54 1543.08 2088.39 1546.3 Q2085.24 1549.52 2080.01 1549.52 Q2074.02 1549.52 2070.85 1544.94 Q2067.67 1540.33 2067.67 1531.6 Q2067.67 1523.41 2071.56 1518.55 Q2075.45 1513.66 2082 1513.66 Q2083.76 1513.66 2085.54 1514.01 Q2087.35 1514.36 2089.29 1515.05 Z" fill="#000000" fill-rule="evenodd" fill-opacity="1" /><path clip-path="url(#clip350)" d="M2109.6 1517.37 Q2105.98 1517.37 2104.16 1520.93 Q2102.35 1524.47 2102.35 1531.6 Q2102.35 1538.71 2104.16 1542.27 Q2105.98 1545.82 2109.6 1545.82 Q2113.23 1545.82 2115.04 1542.27 Q2116.86 1538.71 2116.86 1531.6 Q2116.86 1524.47 2115.04 1520.93 Q2113.23 1517.37 2109.6 1517.37 M2109.6 1513.66 Q2115.41 1513.66 2118.46 1518.27 Q2121.54 1522.85 2121.54 1531.6 Q2121.54 1540.33 2118.46 1544.94 Q2115.41 1549.52 2109.6 1549.52 Q2103.79 1549.52 2100.71 1544.94 Q2097.65 1540.33 2097.65 1531.6 Q2097.65 1522.85 2100.71 1518.27 Q2103.79 1513.66 2109.6 1513.66 Z" fill="#000000" fill-rule="evenodd" fill-opacity="1" /><path clip-path="url(#clip350)" d="M2310.28 1532.44 Q2306.95 1532.44 2305.02 1534.22 Q2303.13 1536 2303.13 1539.13 Q2303.13 1542.25 2305.02 1544.03 Q2306.95 1545.82 2310.28 1545.82 Q2313.61 1545.82 2315.53 1544.03 Q2317.45 1542.23 2317.45 1539.13 Q2317.45 1536 2315.53 1534.22 Q2313.64 1532.44 2310.28 1532.44 M2305.6 1530.45 Q2302.59 1529.7 2300.9 1527.64 Q2299.24 1525.58 2299.24 1522.62 Q2299.24 1518.48 2302.18 1516.07 Q2305.14 1513.66 2310.28 1513.66 Q2315.44 1513.66 2318.38 1516.07 Q2321.32 1518.48 2321.32 1522.62 Q2321.32 1525.58 2319.63 1527.64 Q2317.96 1529.7 2314.98 1530.45 Q2318.36 1531.23 2320.23 1533.52 Q2322.13 1535.82 2322.13 1539.13 Q2322.13 1544.15 2319.05 1546.83 Q2316 1549.52 2310.28 1549.52 Q2304.56 1549.52 2301.48 1546.83 Q2298.43 1544.15 2298.43 1539.13 Q2298.43 1535.82 2300.33 1533.52 Q2302.22 1531.23 2305.6 1530.45 M2303.89 1523.06 Q2303.89 1525.75 2305.56 1527.25 Q2307.25 1528.76 2310.28 1528.76 Q2313.29 1528.76 2314.98 1527.25 Q2316.69 1525.75 2316.69 1523.06 Q2316.69 1520.38 2314.98 1518.87 Q2313.29 1517.37 2310.28 1517.37 Q2307.25 1517.37 2305.56 1518.87 Q2303.89 1520.38 2303.89 1523.06 Z" fill="#000000" fill-rule="evenodd" fill-opacity="1" /><path clip-path="url(#clip350)" d="M2340.44 1517.37 Q2336.83 1517.37 2335 1520.93 Q2333.2 1524.47 2333.2 1531.6 Q2333.2 1538.71 2335 1542.27 Q2336.83 1545.82 2340.44 1545.82 Q2344.08 1545.82 2345.88 1542.27 Q2347.71 1538.71 2347.71 1531.6 Q2347.71 1524.47 2345.88 1520.93 Q2344.08 1517.37 2340.44 1517.37 M2340.44 1513.66 Q2346.25 1513.66 2349.31 1518.27 Q2352.39 1522.85 2352.39 1531.6 Q2352.39 1540.33 2349.31 1544.94 Q2346.25 1549.52 2340.44 1549.52 Q2334.63 1549.52 2331.55 1544.94 Q2328.5 1540.33 2328.5 1531.6 Q2328.5 1522.85 2331.55 1518.27 Q2334.63 1513.66 2340.44 1513.66 Z" fill="#000000" fill-rule="evenodd" fill-opacity="1" /><polyline clip-path="url(#clip355)" style="stroke:#000000; stroke-linecap:butt; stroke-linejoin:round; stroke-width:2; stroke-opacity:0.1; fill:none" points="
  1386.4,1472.45 2352.76,1472.45 
  "/>
<polyline clip-path="url(#clip355)" style="stroke:#000000; stroke-linecap:butt; stroke-linejoin:round; stroke-width:2; stroke-opacity:0.1; fill:none" points="
  1386.4,1319.82 2352.76,1319.82 
  "/>
<polyline clip-path="url(#clip355)" style="stroke:#000000; stroke-linecap:butt; stroke-linejoin:round; stroke-width:2; stroke-opacity:0.1; fill:none" points="
  1386.4,1167.19 2352.76,1167.19 
  "/>
<polyline clip-path="url(#clip355)" style="stroke:#000000; stroke-linecap:butt; stroke-linejoin:round; stroke-width:2; stroke-opacity:0.1; fill:none" points="
  1386.4,1014.56 2352.76,1014.56 
  "/>
<polyline clip-path="url(#clip355)" style="stroke:#000000; stroke-linecap:butt; stroke-linejoin:round; stroke-width:2; stroke-opacity:0.1; fill:none" points="
  1386.4,861.928 2352.76,861.928 
  "/>
<polyline clip-path="url(#clip350)" style="stroke:#000000; stroke-linecap:butt; stroke-linejoin:round; stroke-width:4; stroke-opacity:1; fill:none" points="
  1386.4,1486.45 1386.4,847.244 
  "/>
<polyline clip-path="url(#clip350)" style="stroke:#000000; stroke-linecap:butt; stroke-linejoin:round; stroke-width:4; stroke-opacity:1; fill:none" points="
  1386.4,1472.45 1405.3,1472.45 
  "/>
<polyline clip-path="url(#clip350)" style="stroke:#000000; stroke-linecap:butt; stroke-linejoin:round; stroke-width:4; stroke-opacity:1; fill:none" points="
  1386.4,1319.82 1405.3,1319.82 
  "/>
<polyline clip-path="url(#clip350)" style="stroke:#000000; stroke-linecap:butt; stroke-linejoin:round; stroke-width:4; stroke-opacity:1; fill:none" points="
  1386.4,1167.19 1405.3,1167.19 
  "/>
<polyline clip-path="url(#clip350)" style="stroke:#000000; stroke-linecap:butt; stroke-linejoin:round; stroke-width:4; stroke-opacity:1; fill:none" points="
  1386.4,1014.56 1405.3,1014.56 
  "/>
<polyline clip-path="url(#clip350)" style="stroke:#000000; stroke-linecap:butt; stroke-linejoin:round; stroke-width:4; stroke-opacity:1; fill:none" points="
  1386.4,861.928 1405.3,861.928 
  "/>
<path clip-path="url(#clip350)" d="M1258.53 1472.9 L1288.2 1472.9 L1288.2 1476.83 L1258.53 1476.83 L1258.53 1472.9 Z" fill="#000000" fill-rule="evenodd" fill-opacity="1" /><path clip-path="url(#clip350)" d="M1311.14 1459.24 L1299.34 1477.69 L1311.14 1477.69 L1311.14 1459.24 M1309.92 1455.17 L1315.8 1455.17 L1315.8 1477.69 L1320.73 1477.69 L1320.73 1481.58 L1315.8 1481.58 L1315.8 1489.73 L1311.14 1489.73 L1311.14 1481.58 L1295.54 1481.58 L1295.54 1477.06 L1309.92 1455.17 Z" fill="#000000" fill-rule="evenodd" fill-opacity="1" /><path clip-path="url(#clip350)" d="M1338.46 1458.24 Q1334.85 1458.24 1333.02 1461.81 Q1331.21 1465.35 1331.21 1472.48 Q1331.21 1479.59 1333.02 1483.15 Q1334.85 1486.69 1338.46 1486.69 Q1342.09 1486.69 1343.9 1483.15 Q1345.73 1479.59 1345.73 1472.48 Q1345.73 1465.35 1343.9 1461.81 Q1342.09 1458.24 1338.46 1458.24 M1338.46 1454.54 Q1344.27 1454.54 1347.32 1459.15 Q1350.4 1463.73 1350.4 1472.48 Q1350.4 1481.21 1347.32 1485.81 Q1344.27 1490.4 1338.46 1490.4 Q1332.65 1490.4 1329.57 1485.81 Q1326.51 1481.21 1326.51 1472.48 Q1326.51 1463.73 1329.57 1459.15 Q1332.65 1454.54 1338.46 1454.54 Z" fill="#000000" fill-rule="evenodd" fill-opacity="1" /><path clip-path="url(#clip350)" d="M1258.53 1320.27 L1288.2 1320.27 L1288.2 1324.2 L1258.53 1324.2 L1258.53 1320.27 Z" fill="#000000" fill-rule="evenodd" fill-opacity="1" /><path clip-path="url(#clip350)" d="M1312.46 1318.46 Q1315.82 1319.18 1317.69 1321.45 Q1319.59 1323.72 1319.59 1327.05 Q1319.59 1332.17 1316.07 1334.97 Q1312.55 1337.77 1306.07 1337.77 Q1303.9 1337.77 1301.58 1337.33 Q1299.29 1336.91 1296.84 1336.05 L1296.84 1331.54 Q1298.78 1332.67 1301.1 1333.25 Q1303.41 1333.83 1305.93 1333.83 Q1310.33 1333.83 1312.62 1332.1 Q1314.94 1330.36 1314.94 1327.05 Q1314.94 1323.99 1312.79 1322.28 Q1310.66 1320.55 1306.84 1320.55 L1302.81 1320.55 L1302.81 1316.7 L1307.02 1316.7 Q1310.47 1316.7 1312.3 1315.34 Q1314.13 1313.95 1314.13 1311.36 Q1314.13 1308.69 1312.23 1307.28 Q1310.36 1305.85 1306.84 1305.85 Q1304.92 1305.85 1302.72 1306.26 Q1300.52 1306.68 1297.88 1307.56 L1297.88 1303.39 Q1300.54 1302.65 1302.86 1302.28 Q1305.19 1301.91 1307.25 1301.91 Q1312.58 1301.91 1315.68 1304.34 Q1318.78 1306.75 1318.78 1310.87 Q1318.78 1313.74 1317.14 1315.73 Q1315.49 1317.7 1312.46 1318.46 Z" fill="#000000" fill-rule="evenodd" fill-opacity="1" /><path clip-path="url(#clip350)" d="M1338.46 1305.61 Q1334.85 1305.61 1333.02 1309.18 Q1331.21 1312.72 1331.21 1319.85 Q1331.21 1326.96 1333.02 1330.52 Q1334.85 1334.06 1338.46 1334.06 Q1342.09 1334.06 1343.9 1330.52 Q1345.73 1326.96 1345.73 1319.85 Q1345.73 1312.72 1343.9 1309.18 Q1342.09 1305.61 1338.46 1305.61 M1338.46 1301.91 Q1344.27 1301.91 1347.32 1306.52 Q1350.4 1311.1 1350.4 1319.85 Q1350.4 1328.58 1347.32 1333.18 Q1344.27 1337.77 1338.46 1337.77 Q1332.65 1337.77 1329.57 1333.18 Q1326.51 1328.58 1326.51 1319.85 Q1326.51 1311.1 1329.57 1306.52 Q1332.65 1301.91 1338.46 1301.91 Z" fill="#000000" fill-rule="evenodd" fill-opacity="1" /><path clip-path="url(#clip350)" d="M1258.53 1167.64 L1288.2 1167.64 L1288.2 1171.57 L1258.53 1171.57 L1258.53 1167.64 Z" fill="#000000" fill-rule="evenodd" fill-opacity="1" /><path clip-path="url(#clip350)" d="M1302.32 1180.53 L1318.64 1180.53 L1318.64 1184.47 L1296.7 1184.47 L1296.7 1180.53 Q1299.36 1177.78 1303.94 1173.15 Q1308.55 1168.49 1309.73 1167.15 Q1311.98 1164.63 1312.86 1162.89 Q1313.76 1161.13 1313.76 1159.44 Q1313.76 1156.69 1311.81 1154.95 Q1309.89 1153.22 1306.79 1153.22 Q1304.59 1153.22 1302.14 1153.98 Q1299.71 1154.74 1296.93 1156.3 L1296.93 1151.57 Q1299.75 1150.44 1302.21 1149.86 Q1304.66 1149.28 1306.7 1149.28 Q1312.07 1149.28 1315.26 1151.97 Q1318.46 1154.65 1318.46 1159.14 Q1318.46 1161.27 1317.65 1163.19 Q1316.86 1165.09 1314.75 1167.68 Q1314.17 1168.36 1311.07 1171.57 Q1307.97 1174.77 1302.32 1180.53 Z" fill="#000000" fill-rule="evenodd" fill-opacity="1" /><path clip-path="url(#clip350)" d="M1338.46 1152.99 Q1334.85 1152.99 1333.02 1156.55 Q1331.21 1160.09 1331.21 1167.22 Q1331.21 1174.33 1333.02 1177.89 Q1334.85 1181.43 1338.46 1181.43 Q1342.09 1181.43 1343.9 1177.89 Q1345.73 1174.33 1345.73 1167.22 Q1345.73 1160.09 1343.9 1156.55 Q1342.09 1152.99 1338.46 1152.99 M1338.46 1149.28 Q1344.27 1149.28 1347.32 1153.89 Q1350.4 1158.47 1350.4 1167.22 Q1350.4 1175.95 1347.32 1180.55 Q1344.27 1185.14 1338.46 1185.14 Q1332.65 1185.14 1329.57 1180.55 Q1326.51 1175.95 1326.51 1167.22 Q1326.51 1158.47 1329.57 1153.89 Q1332.65 1149.28 1338.46 1149.28 Z" fill="#000000" fill-rule="evenodd" fill-opacity="1" /><path clip-path="url(#clip350)" d="M1258.53 1015.01 L1288.2 1015.01 L1288.2 1018.94 L1258.53 1018.94 L1258.53 1015.01 Z" fill="#000000" fill-rule="evenodd" fill-opacity="1" /><path clip-path="url(#clip350)" d="M1299.11 1027.9 L1306.74 1027.9 L1306.74 1001.54 L1298.43 1003.2 L1298.43 998.944 L1306.7 997.277 L1311.37 997.277 L1311.37 1027.9 L1319.01 1027.9 L1319.01 1031.84 L1299.11 1031.84 L1299.11 1027.9 Z" fill="#000000" fill-rule="evenodd" fill-opacity="1" /><path clip-path="url(#clip350)" d="M1338.46 1000.36 Q1334.85 1000.36 1333.02 1003.92 Q1331.21 1007.46 1331.21 1014.59 Q1331.21 1021.7 1333.02 1025.26 Q1334.85 1028.8 1338.46 1028.8 Q1342.09 1028.8 1343.9 1025.26 Q1345.73 1021.7 1345.73 1014.59 Q1345.73 1007.46 1343.9 1003.92 Q1342.09 1000.36 1338.46 1000.36 M1338.46 996.652 Q1344.27 996.652 1347.32 1001.26 Q1350.4 1005.84 1350.4 1014.59 Q1350.4 1023.32 1347.32 1027.93 Q1344.27 1032.51 1338.46 1032.51 Q1332.65 1032.51 1329.57 1027.93 Q1326.51 1023.32 1326.51 1014.59 Q1326.51 1005.84 1329.57 1001.26 Q1332.65 996.652 1338.46 996.652 Z" fill="#000000" fill-rule="evenodd" fill-opacity="1" /><path clip-path="url(#clip350)" d="M1338.46 847.727 Q1334.85 847.727 1333.02 851.291 Q1331.21 854.833 1331.21 861.963 Q1331.21 869.069 1333.02 872.634 Q1334.85 876.175 1338.46 876.175 Q1342.09 876.175 1343.9 872.634 Q1345.73 869.069 1345.73 861.963 Q1345.73 854.833 1343.9 851.291 Q1342.09 847.727 1338.46 847.727 M1338.46 844.023 Q1344.27 844.023 1347.32 848.629 Q1350.4 853.213 1350.4 861.963 Q1350.4 870.689 1347.32 875.296 Q1344.27 879.879 1338.46 879.879 Q1332.65 879.879 1329.57 875.296 Q1326.51 870.689 1326.51 861.963 Q1326.51 853.213 1329.57 848.629 Q1332.65 844.023 1338.46 844.023 Z" fill="#000000" fill-rule="evenodd" fill-opacity="1" /><polyline clip-path="url(#clip355)" style="stroke:#009af9; stroke-linecap:butt; stroke-linejoin:round; stroke-width:4; stroke-opacity:1; fill:none" points="
  1413.75,865.335 1425.29,868.742 1436.83,872.149 1448.37,875.555 1459.91,875.555 1471.45,872.149 1482.99,872.149 1494.53,872.149 1506.07,872.149 1517.61,872.149 
  1529.15,875.555 1540.69,875.555 1552.23,875.555 1563.77,875.555 1575.31,878.962 1586.85,882.369 1598.39,889.183 1609.93,899.404 1621.47,913.031 1633.01,926.659 
  1644.55,940.287 1656.09,957.321 1667.63,974.356 1679.17,994.797 1690.71,1011.83 1702.25,1028.87 1713.79,1045.9 1725.33,1062.94 1736.87,1076.56 1748.41,1090.19 
  1759.95,1103.82 1771.49,1117.45 1783.03,1134.48 1794.57,1148.11 1806.11,1161.74 1817.65,1182.18 1829.19,1206.03 1840.73,1226.47 1852.27,1246.91 1863.81,1263.94 
  1875.35,1284.38 1886.89,1304.83 1898.43,1325.27 1909.97,1342.3 1921.51,1362.74 1933.05,1383.18 1944.59,1390 1956.13,1396.81 1967.67,1400.22 1979.21,1400.22 
  1990.75,1400.22 2002.29,1403.63 2013.83,1407.03 2025.37,1410.44 2036.91,1413.85 2048.45,1417.25 2059.99,1424.07 2071.53,1434.29 2083.07,1441.1 2094.61,1441.1 
  2106.15,1444.51 2117.69,1447.92 2129.23,1454.73 2140.77,1461.54 2152.31,1464.95 2163.85,1464.95 2175.39,1461.54 2186.93,1458.14 2198.47,1461.54 2210.01,1468.36 
  2221.55,1468.36 2233.09,1468.36 2244.63,1464.95 2256.17,1458.14 2267.71,1447.92 2279.25,1444.51 2290.79,1437.7 2302.33,1437.7 2313.87,1437.7 2325.41,1430.88 
  
  "/>
<path clip-path="url(#clip350)" d="
M2086.24 972.231 L2320.54 972.231 L2320.54 868.551 L2086.24 868.551  Z
  " fill="#ffffff" fill-rule="evenodd" fill-opacity="1"/>
<polyline clip-path="url(#clip350)" style="stroke:#000000; stroke-linecap:butt; stroke-linejoin:round; stroke-width:4; stroke-opacity:1; fill:none" points="
  2086.24,972.231 2320.54,972.231 2320.54,868.551 2086.24,868.551 2086.24,972.231 
  "/>
<polyline clip-path="url(#clip350)" style="stroke:#009af9; stroke-linecap:butt; stroke-linejoin:round; stroke-width:4; stroke-opacity:1; fill:none" points="
  2096.98,920.391 2161.4,920.391 
  "/>
<path clip-path="url(#clip350)" d="M2182.4 905.652 L2175.49 933.384 Q2175.21 934.485 2175.21 935.679 Q2175.21 937.881 2176.66 937.881 Q2177.34 937.881 2177.9 937.436 Q2178.46 936.967 2178.88 936.054 Q2179.33 935.117 2179.61 934.227 Q2179.92 933.337 2180.29 931.955 Q2180.41 931.416 2180.52 931.252 Q2180.64 931.088 2180.97 931.088 Q2181.55 931.088 2181.55 931.557 Q2180.97 934.438 2180.1 936.265 Q2178.84 938.958 2176.5 938.958 Q2174.74 938.958 2173.43 937.74 Q2172.14 936.499 2172.14 934.531 Q2172.14 933.782 2172.37 932.892 L2178.42 908.907 L2178.58 907.97 Q2178.58 907.713 2178.49 907.572 Q2178.39 907.432 2177.83 907.291 Q2177.29 907.151 2176.21 907.151 Q2175.77 907.151 2175.56 907.127 Q2175.37 907.104 2175.18 906.987 Q2175.02 906.87 2175.02 906.612 Q2175.02 906.19 2175.18 905.956 Q2175.37 905.722 2175.51 905.675 Q2175.65 905.628 2175.93 905.605 Q2176.33 905.581 2177.67 905.464 Q2179 905.324 2180.15 905.23 Q2181.3 905.136 2181.79 905.136 Q2182.07 905.136 2182.21 905.277 Q2182.37 905.394 2182.4 905.534 L2182.4 905.652 Z" fill="#000000" fill-rule="evenodd" fill-opacity="1" /><path clip-path="url(#clip350)" d="M2212.67 931.557 Q2212.67 931.744 2212.46 932.47 Q2212.25 933.196 2211.73 934.321 Q2211.24 935.445 2210.56 936.476 Q2209.88 937.483 2208.76 938.232 Q2207.66 938.958 2206.39 938.958 Q2204.71 938.958 2203.58 937.834 Q2202.46 936.71 2202.46 935.023 Q2202.46 934.086 2202.95 932.798 Q2206.06 924.483 2206.06 921.626 Q2206.06 918.276 2203.46 918.276 Q2202.18 918.276 2200.96 918.768 Q2199.76 919.237 2198.94 919.892 Q2198.12 920.548 2197.38 921.462 Q2196.65 922.352 2196.27 922.961 Q2195.92 923.546 2195.64 924.132 L2195.03 926.521 Q2194.89 927.177 2194.21 929.73 L2193.16 934.063 Q2192.41 937.295 2192.25 937.6 Q2192.01 938.256 2191.5 938.607 Q2190.98 938.958 2190.47 938.958 Q2189.88 938.958 2189.48 938.607 Q2189.08 938.256 2189.08 937.647 Q2189.08 937.553 2189.15 937.202 Q2189.22 936.85 2189.34 936.358 Q2189.46 935.867 2189.51 935.585 L2192.29 924.507 Q2192.81 922.492 2192.92 921.86 Q2193.07 921.204 2193.07 920.478 Q2193.07 918.276 2191.57 918.276 Q2190.35 918.276 2189.55 919.728 Q2188.76 921.181 2188.08 923.991 Q2187.87 924.764 2187.72 924.928 Q2187.61 925.092 2187.26 925.092 Q2186.67 925.069 2186.67 924.6 Q2186.67 924.483 2186.86 923.71 Q2187.05 922.937 2187.4 921.837 Q2187.77 920.712 2188.12 919.963 Q2188.43 919.401 2188.59 919.143 Q2188.78 918.862 2189.22 918.323 Q2189.69 917.761 2190.3 917.503 Q2190.93 917.222 2191.71 917.222 Q2193.44 917.222 2194.7 918.347 Q2195.97 919.447 2196.13 921.391 Q2199.25 917.222 2203.61 917.222 Q2206.18 917.222 2207.66 918.581 Q2209.13 919.939 2209.13 922.352 Q2209.13 922.914 2209.02 923.64 Q2208.92 924.343 2208.69 925.233 Q2208.48 926.123 2208.29 926.802 Q2208.1 927.481 2207.73 928.582 Q2207.35 929.66 2207.19 930.128 Q2207.03 930.597 2206.63 931.697 Q2206.25 932.775 2206.21 932.892 Q2205.34 935.07 2205.34 936.312 Q2205.34 937.131 2205.6 937.506 Q2205.88 937.881 2206.49 937.881 Q2208.13 937.881 2209.34 936.265 Q2210.59 934.625 2211.38 931.955 Q2211.57 931.369 2211.66 931.229 Q2211.78 931.088 2212.11 931.088 Q2212.67 931.088 2212.67 931.557 Z" fill="#000000" fill-rule="evenodd" fill-opacity="1" /><path clip-path="url(#clip350)" d="M2219.18 926.427 Q2219.18 918.323 2222.21 911.788 Q2223.49 909.048 2225.3 906.752 Q2227.1 904.457 2228.3 903.45 Q2229.49 902.443 2229.82 902.443 Q2230.29 902.443 2230.31 902.911 Q2230.31 903.145 2229.68 903.731 Q2221.95 911.601 2221.97 926.427 Q2221.97 941.301 2229.49 948.866 Q2230.31 949.686 2230.31 949.943 Q2230.31 950.412 2229.82 950.412 Q2229.49 950.412 2228.34 949.452 Q2227.19 948.491 2225.41 946.29 Q2223.63 944.088 2222.35 941.394 Q2219.18 934.859 2219.18 926.427 Z" fill="#000000" fill-rule="evenodd" fill-opacity="1" /><path clip-path="url(#clip350)" d="M2260.44 905.652 L2253.53 933.384 Q2253.25 934.625 2253.25 935.679 Q2253.25 937.881 2254.67 937.881 Q2255.38 937.881 2255.94 937.436 Q2256.5 936.991 2256.95 936.054 Q2257.39 935.117 2257.67 934.25 Q2257.95 933.36 2258.33 931.955 Q2258.45 931.393 2258.54 931.252 Q2258.66 931.088 2258.98 931.088 Q2259.57 931.088 2259.57 931.557 Q2258.94 934.578 2258.12 936.312 Q2256.81 938.958 2254.58 938.958 Q2252.89 938.958 2251.7 937.928 Q2250.51 936.897 2250.22 935.351 Q2247.16 938.958 2243.97 938.958 Q2241.16 938.958 2239.38 936.827 Q2237.6 934.672 2237.6 931.276 Q2237.6 927.856 2239.29 924.577 Q2241 921.298 2243.69 919.26 Q2246.38 917.222 2249.15 917.222 Q2252.08 917.222 2253.57 920.291 L2256.46 908.907 L2256.6 907.97 Q2256.6 907.689 2256.48 907.549 Q2256.38 907.385 2255.82 907.268 Q2255.28 907.151 2254.21 907.151 Q2253.76 907.151 2253.55 907.127 Q2253.36 907.104 2253.2 906.987 Q2253.04 906.846 2253.04 906.565 Q2253.04 905.745 2253.71 905.652 Q2258.21 905.136 2259.8 905.136 Q2260.09 905.136 2260.25 905.277 Q2260.41 905.394 2260.41 905.534 L2260.44 905.652 M2252.99 922.492 Q2252.99 922.282 2252.82 921.696 Q2252.66 921.11 2252.29 920.291 Q2251.91 919.471 2251.09 918.885 Q2250.29 918.276 2249.22 918.276 Q2247.77 918.276 2246.24 919.518 Q2244.74 920.759 2243.64 922.867 Q2242.8 924.554 2241.89 928.09 Q2241 931.627 2241 933.384 Q2241 934.461 2241.23 935.422 Q2241.49 936.358 2242.21 937.131 Q2242.94 937.881 2244.06 937.881 Q2246.8 937.881 2249.5 934.485 Q2250.01 933.899 2250.13 933.665 Q2250.27 933.407 2250.46 932.705 L2252.85 923.312 Q2252.99 922.609 2252.99 922.492 Z" fill="#000000" fill-rule="evenodd" fill-opacity="1" /><path clip-path="url(#clip350)" d="M2275.64 937.339 Q2275.64 937.798 2275.43 937.913 Q2275.22 938.011 2274.63 938.011 L2271.48 938.011 L2268.99 947.914 Q2268.79 948.783 2268.79 949.521 Q2268.79 950.341 2269.03 950.701 Q2269.3 951.062 2269.84 951.062 Q2270.9 951.062 2272.05 950.095 Q2273.22 949.127 2274.2 946.767 Q2274.33 946.455 2274.4 946.389 Q2274.48 946.307 2274.69 946.307 Q2275.1 946.307 2275.1 946.635 Q2275.1 946.75 2274.87 947.275 Q2274.66 947.799 2274.18 948.57 Q2273.72 949.341 2273.12 950.062 Q2272.53 950.783 2271.63 951.308 Q2270.72 951.816 2269.76 951.816 Q2268.4 951.816 2267.53 950.947 Q2266.67 950.078 2266.67 948.718 Q2266.67 948.275 2267.02 946.865 Q2267.36 945.438 2269.23 938.011 L2266.26 938.011 Q2265.85 938.011 2265.69 937.995 Q2265.54 937.978 2265.43 937.896 Q2265.33 937.798 2265.33 937.601 Q2265.33 937.29 2265.46 937.159 Q2265.59 937.011 2265.76 936.995 Q2265.94 936.962 2266.35 936.962 L2269.49 936.962 L2270.81 931.633 Q2270.94 931.109 2271.26 930.813 Q2271.61 930.502 2271.81 930.469 Q2272 930.42 2272.15 930.42 Q2272.59 930.42 2272.85 930.666 Q2273.12 930.895 2273.12 931.322 Q2273.12 931.551 2271.74 936.962 L2274.69 936.962 Q2275.07 936.962 2275.22 936.978 Q2275.38 936.995 2275.51 937.077 Q2275.64 937.159 2275.64 937.339 Z" fill="#000000" fill-rule="evenodd" fill-opacity="1" /><path clip-path="url(#clip350)" d="M2280.65 949.943 Q2280.65 949.709 2281.26 949.124 Q2288.99 941.254 2288.99 926.427 Q2288.99 911.554 2281.57 904.035 Q2280.65 903.169 2280.65 902.911 Q2280.65 902.443 2281.12 902.443 Q2281.45 902.443 2282.6 903.403 Q2283.77 904.363 2285.53 906.565 Q2287.31 908.767 2288.62 911.46 Q2291.78 917.995 2291.78 926.427 Q2291.78 934.531 2288.76 941.066 Q2287.47 943.807 2285.67 946.102 Q2283.86 948.398 2282.67 949.405 Q2281.47 950.412 2281.12 950.412 Q2280.65 950.412 2280.65 949.943 Z" fill="#000000" fill-rule="evenodd" fill-opacity="1" /></svg>
