<?xml version="1.0" encoding="utf-8"?>
<svg xmlns="http://www.w3.org/2000/svg" xmlns:xlink="http://www.w3.org/1999/xlink" width="600" height="400" viewBox="0 0 2400 1600">
<defs>
  <clipPath id="clip150">
    <rect x="0" y="0" width="2400" height="1600"/>
  </clipPath>
</defs>
<path clip-path="url(#clip150)" d="
M0 1600 L2400 1600 L2400 0 L0 0  Z
  " fill="#ffffff" fill-rule="evenodd" fill-opacity="1"/>
<defs>
  <clipPath id="clip151">
    <rect x="480" y="0" width="1681" height="1600"/>
  </clipPath>
</defs>
<path clip-path="url(#clip150)" d="
M112.177 1486.45 L2352.76 1486.45 L2352.76 123.472 L112.177 123.472  Z
  " fill="#ffffff" fill-rule="evenodd" fill-opacity="1"/>
<defs>
  <clipPath id="clip152">
    <rect x="112" y="123" width="2242" height="1364"/>
  </clipPath>
</defs>
<polyline clip-path="url(#clip152)" style="stroke:#000000; stroke-linecap:butt; stroke-linejoin:round; stroke-width:2; stroke-opacity:0.1; fill:none" points="
  620.591,1486.45 620.591,123.472 
  "/>
<polyline clip-path="url(#clip152)" style="stroke:#000000; stroke-linecap:butt; stroke-linejoin:round; stroke-width:2; stroke-opacity:0.1; fill:none" points="
  1176.84,1486.45 1176.84,123.472 
  "/>
<polyline clip-path="url(#clip152)" style="stroke:#000000; stroke-linecap:butt; stroke-linejoin:round; stroke-width:2; stroke-opacity:0.1; fill:none" points="
  1733.09,1486.45 1733.09,123.472 
  "/>
<polyline clip-path="url(#clip152)" style="stroke:#000000; stroke-linecap:butt; stroke-linejoin:round; stroke-width:2; stroke-opacity:0.1; fill:none" points="
  2289.34,1486.45 2289.34,123.472 
  "/>
<polyline clip-path="url(#clip150)" style="stroke:#000000; stroke-linecap:butt; stroke-linejoin:round; stroke-width:4; stroke-opacity:1; fill:none" points="
  112.177,1486.45 2352.76,1486.45 
  "/>
<polyline clip-path="url(#clip150)" style="stroke:#000000; stroke-linecap:butt; stroke-linejoin:round; stroke-width:4; stroke-opacity:1; fill:none" points="
  620.591,1486.45 620.591,1467.55 
  "/>
<polyline clip-path="url(#clip150)" style="stroke:#000000; stroke-linecap:butt; stroke-linejoin:round; stroke-width:4; stroke-opacity:1; fill:none" points="
  1176.84,1486.45 1176.84,1467.55 
  "/>
<polyline clip-path="url(#clip150)" style="stroke:#000000; stroke-linecap:butt; stroke-linejoin:round; stroke-width:4; stroke-opacity:1; fill:none" points="
  1733.09,1486.45 1733.09,1467.55 
  "/>
<polyline clip-path="url(#clip150)" style="stroke:#000000; stroke-linecap:butt; stroke-linejoin:round; stroke-width:4; stroke-opacity:1; fill:none" points="
  2289.34,1486.45 2289.34,1467.55 
  "/>
<path clip-path="url(#clip150)" d="M610.868 1514.29 L629.225 1514.29 L629.225 1518.22 L615.151 1518.22 L615.151 1526.7 Q616.169 1526.35 617.188 1526.19 Q618.206 1526 619.225 1526 Q625.012 1526 628.391 1529.17 Q631.771 1532.34 631.771 1537.76 Q631.771 1543.34 628.299 1546.44 Q624.827 1549.52 618.507 1549.52 Q616.331 1549.52 614.063 1549.15 Q611.817 1548.78 609.41 1548.04 L609.41 1543.34 Q611.493 1544.47 613.716 1545.03 Q615.938 1545.58 618.415 1545.58 Q622.419 1545.58 624.757 1543.48 Q627.095 1541.37 627.095 1537.76 Q627.095 1534.15 624.757 1532.04 Q622.419 1529.94 618.415 1529.94 Q616.54 1529.94 614.665 1530.35 Q612.813 1530.77 610.868 1531.65 L610.868 1514.29 Z" fill="#000000" fill-rule="evenodd" fill-opacity="1" /><path clip-path="url(#clip150)" d="M1151.53 1544.91 L1159.17 1544.91 L1159.17 1518.55 L1150.86 1520.21 L1150.86 1515.95 L1159.12 1514.29 L1163.8 1514.29 L1163.8 1544.91 L1171.44 1544.91 L1171.44 1548.85 L1151.53 1548.85 L1151.53 1544.91 Z" fill="#000000" fill-rule="evenodd" fill-opacity="1" /><path clip-path="url(#clip150)" d="M1190.88 1517.37 Q1187.27 1517.37 1185.44 1520.93 Q1183.64 1524.47 1183.64 1531.6 Q1183.64 1538.71 1185.44 1542.27 Q1187.27 1545.82 1190.88 1545.82 Q1194.51 1545.82 1196.32 1542.27 Q1198.15 1538.71 1198.15 1531.6 Q1198.15 1524.47 1196.32 1520.93 Q1194.51 1517.37 1190.88 1517.37 M1190.88 1513.66 Q1196.69 1513.66 1199.75 1518.27 Q1202.83 1522.85 1202.83 1531.6 Q1202.83 1540.33 1199.75 1544.94 Q1196.69 1549.52 1190.88 1549.52 Q1185.07 1549.52 1181.99 1544.94 Q1178.94 1540.33 1178.94 1531.6 Q1178.94 1522.85 1181.99 1518.27 Q1185.07 1513.66 1190.88 1513.66 Z" fill="#000000" fill-rule="evenodd" fill-opacity="1" /><path clip-path="url(#clip150)" d="M1708.28 1544.91 L1715.92 1544.91 L1715.92 1518.55 L1707.61 1520.21 L1707.61 1515.95 L1715.87 1514.29 L1720.55 1514.29 L1720.55 1544.91 L1728.18 1544.91 L1728.18 1548.85 L1708.28 1548.85 L1708.28 1544.91 Z" fill="#000000" fill-rule="evenodd" fill-opacity="1" /><path clip-path="url(#clip150)" d="M1737.68 1514.29 L1756.03 1514.29 L1756.03 1518.22 L1741.96 1518.22 L1741.96 1526.7 Q1742.98 1526.35 1744 1526.19 Q1745.01 1526 1746.03 1526 Q1751.82 1526 1755.2 1529.17 Q1758.58 1532.34 1758.58 1537.76 Q1758.58 1543.34 1755.11 1546.44 Q1751.63 1549.52 1745.31 1549.52 Q1743.14 1549.52 1740.87 1549.15 Q1738.62 1548.78 1736.22 1548.04 L1736.22 1543.34 Q1738.3 1544.47 1740.52 1545.03 Q1742.75 1545.58 1745.22 1545.58 Q1749.23 1545.58 1751.56 1543.48 Q1753.9 1541.37 1753.9 1537.76 Q1753.9 1534.15 1751.56 1532.04 Q1749.23 1529.94 1745.22 1529.94 Q1743.35 1529.94 1741.47 1530.35 Q1739.62 1530.77 1737.68 1531.65 L1737.68 1514.29 Z" fill="#000000" fill-rule="evenodd" fill-opacity="1" /><path clip-path="url(#clip150)" d="M2268.12 1544.91 L2284.44 1544.91 L2284.44 1548.85 L2262.49 1548.85 L2262.49 1544.91 Q2265.15 1542.16 2269.74 1537.53 Q2274.34 1532.88 2275.52 1531.53 Q2277.77 1529.01 2278.65 1527.27 Q2279.55 1525.51 2279.55 1523.82 Q2279.55 1521.07 2277.61 1519.33 Q2275.69 1517.6 2272.58 1517.6 Q2270.39 1517.6 2267.93 1518.36 Q2265.5 1519.13 2262.72 1520.68 L2262.72 1515.95 Q2265.55 1514.82 2268 1514.24 Q2270.45 1513.66 2272.49 1513.66 Q2277.86 1513.66 2281.06 1516.35 Q2284.25 1519.03 2284.25 1523.52 Q2284.25 1525.65 2283.44 1527.57 Q2282.65 1529.47 2280.55 1532.07 Q2279.97 1532.74 2276.87 1535.95 Q2273.76 1539.15 2268.12 1544.91 Z" fill="#000000" fill-rule="evenodd" fill-opacity="1" /><path clip-path="url(#clip150)" d="M2304.25 1517.37 Q2300.64 1517.37 2298.81 1520.93 Q2297.01 1524.47 2297.01 1531.6 Q2297.01 1538.71 2298.81 1542.27 Q2300.64 1545.82 2304.25 1545.82 Q2307.88 1545.82 2309.69 1542.27 Q2311.52 1538.71 2311.52 1531.6 Q2311.52 1524.47 2309.69 1520.93 Q2307.88 1517.37 2304.25 1517.37 M2304.25 1513.66 Q2310.06 1513.66 2313.12 1518.27 Q2316.2 1522.85 2316.2 1531.6 Q2316.2 1540.33 2313.12 1544.94 Q2310.06 1549.52 2304.25 1549.52 Q2298.44 1549.52 2295.36 1544.94 Q2292.31 1540.33 2292.31 1531.6 Q2292.31 1522.85 2295.36 1518.27 Q2298.44 1513.66 2304.25 1513.66 Z" fill="#000000" fill-rule="evenodd" fill-opacity="1" /><polyline clip-path="url(#clip152)" style="stroke:#000000; stroke-linecap:butt; stroke-linejoin:round; stroke-width:2; stroke-opacity:0.1; fill:none" points="
  112.177,1447.87 2352.76,1447.87 
  "/>
<polyline clip-path="url(#clip152)" style="stroke:#000000; stroke-linecap:butt; stroke-linejoin:round; stroke-width:2; stroke-opacity:0.1; fill:none" points="
  112.177,1126.42 2352.76,1126.42 
  "/>
<polyline clip-path="url(#clip152)" style="stroke:#000000; stroke-linecap:butt; stroke-linejoin:round; stroke-width:2; stroke-opacity:0.1; fill:none" points="
  112.177,804.96 2352.76,804.96 
  "/>
<polyline clip-path="url(#clip152)" style="stroke:#000000; stroke-linecap:butt; stroke-linejoin:round; stroke-width:2; stroke-opacity:0.1; fill:none" points="
  112.177,483.503 2352.76,483.503 
  "/>
<polyline clip-path="url(#clip152)" style="stroke:#000000; stroke-linecap:butt; stroke-linejoin:round; stroke-width:2; stroke-opacity:0.1; fill:none" points="
  112.177,162.047 2352.76,162.047 
  "/>
<polyline clip-path="url(#clip150)" style="stroke:#000000; stroke-linecap:butt; stroke-linejoin:round; stroke-width:4; stroke-opacity:1; fill:none" points="
  112.177,1486.45 112.177,123.472 
  "/>
<polyline clip-path="url(#clip150)" style="stroke:#000000; stroke-linecap:butt; stroke-linejoin:round; stroke-width:4; stroke-opacity:1; fill:none" points="
  112.177,1447.87 131.075,1447.87 
  "/>
<polyline clip-path="url(#clip150)" style="stroke:#000000; stroke-linecap:butt; stroke-linejoin:round; stroke-width:4; stroke-opacity:1; fill:none" points="
  112.177,1126.42 131.075,1126.42 
  "/>
<polyline clip-path="url(#clip150)" style="stroke:#000000; stroke-linecap:butt; stroke-linejoin:round; stroke-width:4; stroke-opacity:1; fill:none" points="
  112.177,804.96 131.075,804.96 
  "/>
<polyline clip-path="url(#clip150)" style="stroke:#000000; stroke-linecap:butt; stroke-linejoin:round; stroke-width:4; stroke-opacity:1; fill:none" points="
  112.177,483.503 131.075,483.503 
  "/>
<polyline clip-path="url(#clip150)" style="stroke:#000000; stroke-linecap:butt; stroke-linejoin:round; stroke-width:4; stroke-opacity:1; fill:none" points="
  112.177,162.047 131.075,162.047 
  "/>
<path clip-path="url(#clip150)" d="M59.8578 1461.22 L76.1772 1461.22 L76.1772 1465.15 L54.2328 1465.15 L54.2328 1461.22 Q56.8949 1458.46 61.4782 1453.83 Q66.0846 1449.18 67.2652 1447.84 Q69.5105 1445.32 70.3902 1443.58 Q71.2929 1441.82 71.2929 1440.13 Q71.2929 1437.38 69.3485 1435.64 Q67.4272 1433.9 64.3254 1433.9 Q62.1263 1433.9 59.6726 1434.67 Q57.2421 1435.43 54.4643 1436.98 L54.4643 1432.26 Q57.2884 1431.13 59.7421 1430.55 Q62.1958 1429.97 64.2328 1429.97 Q69.6031 1429.97 72.7976 1432.65 Q75.992 1435.34 75.992 1439.83 Q75.992 1441.96 75.1818 1443.88 Q74.3948 1445.78 72.2883 1448.37 Q71.7096 1449.04 68.6078 1452.26 Q65.5059 1455.45 59.8578 1461.22 Z" fill="#000000" fill-rule="evenodd" fill-opacity="1" /><path clip-path="url(#clip150)" d="M69.0476 1125.06 Q72.404 1125.78 74.279 1128.05 Q76.1772 1130.32 76.1772 1133.65 Q76.1772 1138.77 72.6587 1141.57 Q69.1402 1144.37 62.6587 1144.37 Q60.4828 1144.37 58.168 1143.93 Q55.8764 1143.51 53.4227 1142.65 L53.4227 1138.14 Q55.3671 1139.28 57.6819 1139.85 Q59.9967 1140.43 62.5198 1140.43 Q66.918 1140.43 69.2096 1138.7 Q71.5244 1136.96 71.5244 1133.65 Q71.5244 1130.59 69.3717 1128.88 Q67.242 1127.15 63.4226 1127.15 L59.3949 1127.15 L59.3949 1123.3 L63.6078 1123.3 Q67.0569 1123.3 68.8855 1121.94 Q70.7142 1120.55 70.7142 1117.96 Q70.7142 1115.29 68.8161 1113.88 Q66.9411 1112.45 63.4226 1112.45 Q61.5013 1112.45 59.3023 1112.86 Q57.1032 1113.28 54.4643 1114.16 L54.4643 1109.99 Q57.1264 1109.25 59.4412 1108.88 Q61.7791 1108.51 63.8393 1108.51 Q69.1633 1108.51 72.2652 1110.94 Q75.367 1113.35 75.367 1117.47 Q75.367 1120.34 73.7235 1122.33 Q72.08 1124.3 69.0476 1125.06 Z" fill="#000000" fill-rule="evenodd" fill-opacity="1" /><path clip-path="url(#clip150)" d="M66.5939 791.754 L54.7884 810.203 L66.5939 810.203 L66.5939 791.754 M65.367 787.68 L71.2466 787.68 L71.2466 810.203 L76.1772 810.203 L76.1772 814.092 L71.2466 814.092 L71.2466 822.24 L66.5939 822.24 L66.5939 814.092 L50.9921 814.092 L50.9921 809.578 L65.367 787.68 Z" fill="#000000" fill-rule="evenodd" fill-opacity="1" /><path clip-path="url(#clip150)" d="M55.2745 466.223 L73.6309 466.223 L73.6309 470.159 L59.5569 470.159 L59.5569 478.631 Q60.5754 478.284 61.5939 478.122 Q62.6124 477.936 63.6309 477.936 Q69.418 477.936 72.7976 481.108 Q76.1772 484.279 76.1772 489.696 Q76.1772 495.274 72.705 498.376 Q69.2328 501.455 62.9134 501.455 Q60.7374 501.455 58.4689 501.084 Q56.2236 500.714 53.8162 499.973 L53.8162 495.274 Q55.8995 496.408 58.1217 496.964 Q60.3439 497.52 62.8208 497.52 Q66.8254 497.52 69.1633 495.413 Q71.5013 493.307 71.5013 489.696 Q71.5013 486.084 69.1633 483.978 Q66.8254 481.872 62.8208 481.872 Q60.9458 481.872 59.0708 482.288 Q57.2189 482.705 55.2745 483.584 L55.2745 466.223 Z" fill="#000000" fill-rule="evenodd" fill-opacity="1" /><path clip-path="url(#clip150)" d="M64.6495 160.183 Q61.5013 160.183 59.6495 162.336 Q57.8208 164.489 57.8208 168.239 Q57.8208 171.966 59.6495 174.142 Q61.5013 176.295 64.6495 176.295 Q67.7976 176.295 69.6263 174.142 Q71.4781 171.966 71.4781 168.239 Q71.4781 164.489 69.6263 162.336 Q67.7976 160.183 64.6495 160.183 M73.9318 145.531 L73.9318 149.79 Q72.1726 148.957 70.367 148.517 Q68.5846 148.077 66.8254 148.077 Q62.1958 148.077 59.7421 151.202 Q57.3115 154.327 56.9643 160.646 Q58.33 158.633 60.3902 157.568 Q62.4504 156.48 64.9272 156.48 Q70.1355 156.48 73.1448 159.651 Q76.1772 162.799 76.1772 168.239 Q76.1772 173.563 73.029 176.781 Q69.8809 179.998 64.6495 179.998 Q58.6541 179.998 55.4828 175.415 Q52.3116 170.808 52.3116 162.082 Q52.3116 153.887 56.2004 149.026 Q60.0893 144.142 66.6402 144.142 Q68.3994 144.142 70.1818 144.489 Q71.9874 144.836 73.9318 145.531 Z" fill="#000000" fill-rule="evenodd" fill-opacity="1" /><path clip-path="url(#clip150)" d="M599.776 17.6457 Q590.864 17.6457 585.598 24.2892 Q580.372 30.9327 580.372 42.3968 Q580.372 53.8203 585.598 60.4638 Q590.864 67.1073 599.776 67.1073 Q608.688 67.1073 613.873 60.4638 Q619.099 53.8203 619.099 42.3968 Q619.099 30.9327 613.873 24.2892 Q608.688 17.6457 599.776 17.6457 M599.776 11.0023 Q612.496 11.0023 620.112 19.5497 Q627.727 28.0566 627.727 42.3968 Q627.727 56.6965 620.112 65.2439 Q612.496 73.7508 599.776 73.7508 Q587.016 73.7508 579.36 65.2439 Q571.744 56.737 571.744 42.3968 Q571.744 28.0566 579.36 19.5497 Q587.016 11.0023 599.776 11.0023 Z" fill="#000000" fill-rule="evenodd" fill-opacity="1" /><path clip-path="url(#clip150)" d="M639.434 54.671 L639.434 27.2059 L646.888 27.2059 L646.888 54.3874 Q646.888 60.8284 649.4 64.0691 Q651.911 67.2693 656.934 67.2693 Q662.97 67.2693 666.454 63.421 Q669.978 59.5726 669.978 52.9291 L669.978 27.2059 L677.432 27.2059 L677.432 72.576 L669.978 72.576 L669.978 65.6084 Q667.264 69.7404 663.659 71.7658 Q660.094 73.7508 655.354 73.7508 Q647.536 73.7508 643.485 68.8897 Q639.434 64.0286 639.434 54.671 M658.19 26.1121 L658.19 26.1121 Z" fill="#000000" fill-rule="evenodd" fill-opacity="1" /><path clip-path="url(#clip150)" d="M700.157 14.324 L700.157 27.2059 L715.51 27.2059 L715.51 32.9987 L700.157 32.9987 L700.157 57.6282 Q700.157 63.1779 701.656 64.7578 Q703.196 66.3376 707.854 66.3376 L715.51 66.3376 L715.51 72.576 L707.854 72.576 Q699.226 72.576 695.945 69.3758 Q692.663 66.1351 692.663 57.6282 L692.663 32.9987 L687.195 32.9987 L687.195 27.2059 L692.663 27.2059 L692.663 14.324 L700.157 14.324 Z" fill="#000000" fill-rule="evenodd" fill-opacity="1" /><path clip-path="url(#clip150)" d="M732.524 65.7705 L732.524 89.8329 L725.03 89.8329 L725.03 27.2059 L732.524 27.2059 L732.524 34.0924 Q734.874 30.0415 738.439 28.0971 Q742.044 26.1121 747.026 26.1121 Q755.29 26.1121 760.435 32.6746 Q765.62 39.2371 765.62 49.9314 Q765.62 60.6258 760.435 67.1883 Q755.29 73.7508 747.026 73.7508 Q742.044 73.7508 738.439 71.8063 Q734.874 69.8214 732.524 65.7705 M757.883 49.9314 Q757.883 41.7081 754.48 37.0496 Q751.118 32.3505 745.204 32.3505 Q739.289 32.3505 735.886 37.0496 Q732.524 41.7081 732.524 49.9314 Q732.524 58.1548 735.886 62.8538 Q739.289 67.5124 745.204 67.5124 Q751.118 67.5124 754.48 62.8538 Q757.883 58.1548 757.883 49.9314 Z" fill="#000000" fill-rule="evenodd" fill-opacity="1" /><path clip-path="url(#clip150)" d="M777.206 54.671 L777.206 27.2059 L784.659 27.2059 L784.659 54.3874 Q784.659 60.8284 787.171 64.0691 Q789.682 67.2693 794.706 67.2693 Q800.741 67.2693 804.225 63.421 Q807.749 59.5726 807.749 52.9291 L807.749 27.2059 L815.203 27.2059 L815.203 72.576 L807.749 72.576 L807.749 65.6084 Q805.035 69.7404 801.43 71.7658 Q797.865 73.7508 793.126 73.7508 Q785.307 73.7508 781.257 68.8897 Q777.206 64.0286 777.206 54.671 M795.961 26.1121 L795.961 26.1121 Z" fill="#000000" fill-rule="evenodd" fill-opacity="1" /><path clip-path="url(#clip150)" d="M837.929 14.324 L837.929 27.2059 L853.282 27.2059 L853.282 32.9987 L837.929 32.9987 L837.929 57.6282 Q837.929 63.1779 839.428 64.7578 Q840.967 66.3376 845.625 66.3376 L853.282 66.3376 L853.282 72.576 L845.625 72.576 Q836.997 72.576 833.716 69.3758 Q830.435 66.1351 830.435 57.6282 L830.435 32.9987 L824.966 32.9987 L824.966 27.2059 L830.435 27.2059 L830.435 14.324 L837.929 14.324 Z" fill="#000000" fill-rule="evenodd" fill-opacity="1" /><path clip-path="url(#clip150)" d="M910.075 49.7694 Q901.042 49.7694 897.558 51.8354 Q894.074 53.9013 894.074 58.8839 Q894.074 62.8538 896.667 65.2034 Q899.3 67.5124 903.796 67.5124 Q909.994 67.5124 913.721 63.1374 Q917.488 58.7219 917.488 51.4303 L917.488 49.7694 L910.075 49.7694 M924.942 46.6907 L924.942 72.576 L917.488 72.576 L917.488 65.6895 Q914.936 69.8214 911.129 71.8063 Q907.321 73.7508 901.811 73.7508 Q894.844 73.7508 890.712 69.8619 Q886.621 65.9325 886.621 59.3701 Q886.621 51.7138 891.725 47.825 Q896.869 43.9361 907.037 43.9361 L917.488 43.9361 L917.488 43.2069 Q917.488 38.0623 914.086 35.2672 Q910.723 32.4315 904.607 32.4315 Q900.718 32.4315 897.031 33.3632 Q893.345 34.295 889.942 36.1584 L889.942 29.2718 Q894.034 27.692 897.882 26.9223 Q901.73 26.1121 905.376 26.1121 Q915.22 26.1121 920.081 31.2163 Q924.942 36.3204 924.942 46.6907 Z" fill="#000000" fill-rule="evenodd" fill-opacity="1" /><path clip-path="url(#clip150)" d="M978.009 45.1919 L978.009 72.576 L970.555 72.576 L970.555 45.4349 Q970.555 38.994 968.044 35.7938 Q965.532 32.5936 960.509 32.5936 Q954.473 32.5936 950.989 36.4419 Q947.506 40.2903 947.506 46.9338 L947.506 72.576 L940.012 72.576 L940.012 27.2059 L947.506 27.2059 L947.506 34.2544 Q950.179 30.163 953.785 28.1376 Q957.43 26.1121 962.17 26.1121 Q969.988 26.1121 973.999 30.9732 Q978.009 35.7938 978.009 45.1919 Z" fill="#000000" fill-rule="evenodd" fill-opacity="1" /><path clip-path="url(#clip150)" d="M1022.73 34.0924 L1022.73 9.54393 L1030.18 9.54393 L1030.18 72.576 L1022.73 72.576 L1022.73 65.7705 Q1020.38 69.8214 1016.78 71.8063 Q1013.21 73.7508 1008.19 73.7508 Q999.965 73.7508 994.78 67.1883 Q989.635 60.6258 989.635 49.9314 Q989.635 39.2371 994.78 32.6746 Q999.965 26.1121 1008.19 26.1121 Q1013.21 26.1121 1016.78 28.0971 Q1020.38 30.0415 1022.73 34.0924 M997.332 49.9314 Q997.332 58.1548 1000.69 62.8538 Q1004.1 67.5124 1010.01 67.5124 Q1015.93 67.5124 1019.33 62.8538 Q1022.73 58.1548 1022.73 49.9314 Q1022.73 41.7081 1019.33 37.0496 Q1015.93 32.3505 1010.01 32.3505 Q1004.1 32.3505 1000.69 37.0496 Q997.332 41.7081 997.332 49.9314 Z" fill="#000000" fill-rule="evenodd" fill-opacity="1" /><path clip-path="url(#clip150)" d="M1079.12 65.7705 L1079.12 89.8329 L1071.63 89.8329 L1071.63 27.2059 L1079.12 27.2059 L1079.12 34.0924 Q1081.47 30.0415 1085.03 28.0971 Q1088.64 26.1121 1093.62 26.1121 Q1101.89 26.1121 1107.03 32.6746 Q1112.22 39.2371 1112.22 49.9314 Q1112.22 60.6258 1107.03 67.1883 Q1101.89 73.7508 1093.62 73.7508 Q1088.64 73.7508 1085.03 71.8063 Q1081.47 69.8214 1079.12 65.7705 M1104.48 49.9314 Q1104.48 41.7081 1101.08 37.0496 Q1097.71 32.3505 1091.8 32.3505 Q1085.88 32.3505 1082.48 37.0496 Q1079.12 41.7081 1079.12 49.9314 Q1079.12 58.1548 1082.48 62.8538 Q1085.88 67.5124 1091.8 67.5124 Q1097.71 67.5124 1101.08 62.8538 Q1104.48 58.1548 1104.48 49.9314 Z" fill="#000000" fill-rule="evenodd" fill-opacity="1" /><path clip-path="url(#clip150)" d="M1150.86 34.1734 Q1149.61 33.4443 1148.11 33.1202 Q1146.65 32.7556 1144.87 32.7556 Q1138.55 32.7556 1135.14 36.8875 Q1131.78 40.9789 1131.78 48.6757 L1131.78 72.576 L1124.29 72.576 L1124.29 27.2059 L1131.78 27.2059 L1131.78 34.2544 Q1134.13 30.1225 1137.9 28.1376 Q1141.67 26.1121 1147.05 26.1121 Q1147.82 26.1121 1148.75 26.2337 Q1149.69 26.3147 1150.82 26.5172 L1150.86 34.1734 Z" fill="#000000" fill-rule="evenodd" fill-opacity="1" /><path clip-path="url(#clip150)" d="M1158.68 27.2059 L1166.13 27.2059 L1166.13 72.576 L1158.68 72.576 L1158.68 27.2059 M1158.68 9.54393 L1166.13 9.54393 L1166.13 18.9825 L1158.68 18.9825 L1158.68 9.54393 Z" fill="#000000" fill-rule="evenodd" fill-opacity="1" /><path clip-path="url(#clip150)" d="M1214.38 28.9478 L1214.38 35.9153 Q1211.22 34.1734 1208.02 33.3227 Q1204.86 32.4315 1201.62 32.4315 Q1194.37 32.4315 1190.36 37.0496 Q1186.35 41.6271 1186.35 49.9314 Q1186.35 58.2358 1190.36 62.8538 Q1194.37 67.4314 1201.62 67.4314 Q1204.86 67.4314 1208.02 66.5807 Q1211.22 65.6895 1214.38 63.9476 L1214.38 70.8341 Q1211.26 72.2924 1207.9 73.0216 Q1204.58 73.7508 1200.81 73.7508 Q1190.56 73.7508 1184.52 67.3098 Q1178.49 60.8689 1178.49 49.9314 Q1178.49 38.832 1184.56 32.472 Q1190.68 26.1121 1201.29 26.1121 Q1204.74 26.1121 1208.02 26.8413 Q1211.3 27.5299 1214.38 28.9478 Z" fill="#000000" fill-rule="evenodd" fill-opacity="1" /><path clip-path="url(#clip150)" d="M1266.15 48.0275 L1266.15 51.6733 L1231.88 51.6733 Q1232.37 59.3701 1236.5 63.421 Q1240.67 67.4314 1248.08 67.4314 Q1252.38 67.4314 1256.39 66.3781 Q1260.44 65.3249 1264.41 63.2184 L1264.41 70.267 Q1260.4 71.9684 1256.18 72.8596 Q1251.97 73.7508 1247.64 73.7508 Q1236.78 73.7508 1230.42 67.4314 Q1224.1 61.1119 1224.1 50.3365 Q1224.1 39.1965 1230.1 32.6746 Q1236.13 26.1121 1246.34 26.1121 Q1255.5 26.1121 1260.8 32.0264 Q1266.15 37.9003 1266.15 48.0275 M1258.7 45.84 Q1258.62 39.7232 1255.25 36.0774 Q1251.93 32.4315 1246.42 32.4315 Q1240.18 32.4315 1236.42 35.9558 Q1232.69 39.4801 1232.12 45.8805 L1258.7 45.84 Z" fill="#000000" fill-rule="evenodd" fill-opacity="1" /><path clip-path="url(#clip150)" d="M1307.31 28.5427 L1307.31 35.5912 Q1304.15 33.9709 1300.74 33.1607 Q1297.34 32.3505 1293.7 32.3505 Q1288.15 32.3505 1285.35 34.0519 Q1282.6 35.7533 1282.6 39.156 Q1282.6 41.7486 1284.58 43.2475 Q1286.57 44.7058 1292.56 46.0426 L1295.11 46.6097 Q1303.05 48.3111 1306.38 51.4303 Q1309.74 54.509 1309.74 60.0587 Q1309.74 66.3781 1304.71 70.0644 Q1299.73 73.7508 1290.98 73.7508 Q1287.34 73.7508 1283.37 73.0216 Q1279.44 72.3329 1275.06 70.9151 L1275.06 63.2184 Q1279.19 65.3654 1283.2 66.4591 Q1287.21 67.5124 1291.14 67.5124 Q1296.41 67.5124 1299.25 65.73 Q1302.08 63.9071 1302.08 60.6258 Q1302.08 57.5877 1300.02 55.9673 Q1297.99 54.3469 1291.06 52.8481 L1288.47 52.2405 Q1281.54 50.7821 1278.46 47.7845 Q1275.39 44.7463 1275.39 39.4801 Q1275.39 33.0797 1279.92 29.5959 Q1284.46 26.1121 1292.8 26.1121 Q1296.94 26.1121 1300.58 26.7198 Q1304.23 27.3274 1307.31 28.5427 Z" fill="#000000" fill-rule="evenodd" fill-opacity="1" /><path clip-path="url(#clip150)" d="M1323.51 62.2867 L1332.06 62.2867 L1332.06 69.2543 L1325.41 82.2172 L1320.19 82.2172 L1323.51 69.2543 L1323.51 62.2867 Z" fill="#000000" fill-rule="evenodd" fill-opacity="1" /><path clip-path="url(#clip150)" d="M1404.2 34.0924 L1404.2 9.54393 L1411.66 9.54393 L1411.66 72.576 L1404.2 72.576 L1404.2 65.7705 Q1401.86 69.8214 1398.25 71.8063 Q1394.69 73.7508 1389.66 73.7508 Q1381.44 73.7508 1376.25 67.1883 Q1371.11 60.6258 1371.11 49.9314 Q1371.11 39.2371 1376.25 32.6746 Q1381.44 26.1121 1389.66 26.1121 Q1394.69 26.1121 1398.25 28.0971 Q1401.86 30.0415 1404.2 34.0924 M1378.81 49.9314 Q1378.81 58.1548 1382.17 62.8538 Q1385.57 67.5124 1391.48 67.5124 Q1397.4 67.5124 1400.8 62.8538 Q1404.2 58.1548 1404.2 49.9314 Q1404.2 41.7081 1400.8 37.0496 Q1397.4 32.3505 1391.48 32.3505 Q1385.57 32.3505 1382.17 37.0496 Q1378.81 41.7081 1378.81 49.9314 Z" fill="#000000" fill-rule="evenodd" fill-opacity="1" /><path clip-path="url(#clip150)" d="M1426.24 54.671 L1426.24 27.2059 L1433.7 27.2059 L1433.7 54.3874 Q1433.7 60.8284 1436.21 64.0691 Q1438.72 67.2693 1443.74 67.2693 Q1449.78 67.2693 1453.26 63.421 Q1456.79 59.5726 1456.79 52.9291 L1456.79 27.2059 L1464.24 27.2059 L1464.24 72.576 L1456.79 72.576 L1456.79 65.6084 Q1454.07 69.7404 1450.47 71.7658 Q1446.9 73.7508 1442.16 73.7508 Q1434.34 73.7508 1430.29 68.8897 Q1426.24 64.0286 1426.24 54.671 M1445 26.1121 L1445 26.1121 Z" fill="#000000" fill-rule="evenodd" fill-opacity="1" /><path clip-path="url(#clip150)" d="M1497.17 32.4315 Q1491.18 32.4315 1487.69 37.1306 Q1484.21 41.7891 1484.21 49.9314 Q1484.21 58.0738 1487.65 62.7728 Q1491.14 67.4314 1497.17 67.4314 Q1503.13 67.4314 1506.61 62.7323 Q1510.1 58.0333 1510.1 49.9314 Q1510.1 41.8701 1506.61 37.1711 Q1503.13 32.4315 1497.17 32.4315 M1497.17 26.1121 Q1506.9 26.1121 1512.44 32.4315 Q1517.99 38.7509 1517.99 49.9314 Q1517.99 61.0714 1512.44 67.4314 Q1506.9 73.7508 1497.17 73.7508 Q1487.41 73.7508 1481.86 67.4314 Q1476.35 61.0714 1476.35 49.9314 Q1476.35 38.7509 1481.86 32.4315 Q1487.41 26.1121 1497.17 26.1121 Z" fill="#000000" fill-rule="evenodd" fill-opacity="1" /><path clip-path="url(#clip150)" d="M1537.56 65.7705 L1537.56 89.8329 L1530.07 89.8329 L1530.07 27.2059 L1537.56 27.2059 L1537.56 34.0924 Q1539.91 30.0415 1543.47 28.0971 Q1547.08 26.1121 1552.06 26.1121 Q1560.33 26.1121 1565.47 32.6746 Q1570.66 39.2371 1570.66 49.9314 Q1570.66 60.6258 1565.47 67.1883 Q1560.33 73.7508 1552.06 73.7508 Q1547.08 73.7508 1543.47 71.8063 Q1539.91 69.8214 1537.56 65.7705 M1562.92 49.9314 Q1562.92 41.7081 1559.52 37.0496 Q1556.15 32.3505 1550.24 32.3505 Q1544.33 32.3505 1540.92 37.0496 Q1537.56 41.7081 1537.56 49.9314 Q1537.56 58.1548 1540.92 62.8538 Q1544.33 67.5124 1550.24 67.5124 Q1556.15 67.5124 1559.52 62.8538 Q1562.92 58.1548 1562.92 49.9314 Z" fill="#000000" fill-rule="evenodd" fill-opacity="1" /><path clip-path="url(#clip150)" d="M1600.59 32.4315 Q1594.6 32.4315 1591.11 37.1306 Q1587.63 41.7891 1587.63 49.9314 Q1587.63 58.0738 1591.07 62.7728 Q1594.56 67.4314 1600.59 67.4314 Q1606.55 67.4314 1610.03 62.7323 Q1613.51 58.0333 1613.51 49.9314 Q1613.51 41.8701 1610.03 37.1711 Q1606.55 32.4315 1600.59 32.4315 M1600.59 26.1121 Q1610.31 26.1121 1615.86 32.4315 Q1621.41 38.7509 1621.41 49.9314 Q1621.41 61.0714 1615.86 67.4314 Q1610.31 73.7508 1600.59 73.7508 Q1590.83 73.7508 1585.28 67.4314 Q1579.77 61.0714 1579.77 49.9314 Q1579.77 38.7509 1585.28 32.4315 Q1590.83 26.1121 1600.59 26.1121 Z" fill="#000000" fill-rule="evenodd" fill-opacity="1" /><path clip-path="url(#clip150)" d="M1633.77 9.54393 L1641.22 9.54393 L1641.22 72.576 L1633.77 72.576 L1633.77 9.54393 Z" fill="#000000" fill-rule="evenodd" fill-opacity="1" /><path clip-path="url(#clip150)" d="M1675.7 76.7889 Q1672.54 84.8907 1669.54 87.3618 Q1666.54 89.8329 1661.52 89.8329 L1655.56 89.8329 L1655.56 83.5945 L1659.94 83.5945 Q1663.02 83.5945 1664.72 82.1361 Q1666.42 80.6778 1668.49 75.2496 L1669.82 71.8468 L1651.47 27.2059 L1659.37 27.2059 L1673.55 62.6918 L1687.73 27.2059 L1695.63 27.2059 L1675.7 76.7889 Z" fill="#000000" fill-rule="evenodd" fill-opacity="1" /><path clip-path="url(#clip150)" d="M1732.61 12.096 L1744.8 12.096 L1760.24 53.2532 L1775.75 12.096 L1787.95 12.096 L1787.95 72.576 L1779.97 72.576 L1779.97 19.4686 L1764.37 60.9499 L1756.15 60.9499 L1740.55 19.4686 L1740.55 72.576 L1732.61 72.576 L1732.61 12.096 Z" fill="#000000" fill-rule="evenodd" fill-opacity="1" /><path clip-path="url(#clip150)" d="M1812.37 18.8205 L1812.37 41.5461 L1822.66 41.5461 Q1828.37 41.5461 1831.49 38.5889 Q1834.61 35.6318 1834.61 30.163 Q1834.61 24.7348 1831.49 21.7777 Q1828.37 18.8205 1822.66 18.8205 L1812.37 18.8205 M1804.19 12.096 L1822.66 12.096 Q1832.83 12.096 1838.02 16.714 Q1843.24 21.2916 1843.24 30.163 Q1843.24 39.1155 1838.02 43.6931 Q1832.83 48.2706 1822.66 48.2706 L1812.37 48.2706 L1812.37 72.576 L1804.19 72.576 L1804.19 12.096 Z" fill="#000000" fill-rule="evenodd" fill-opacity="1" /><path clip-path="url(#clip150)" d="M1854.22 12.096 L1892.46 12.096 L1892.46 18.9825 L1862.4 18.9825 L1862.4 36.8875 L1891.2 36.8875 L1891.2 43.7741 L1862.4 43.7741 L1862.4 65.6895 L1893.19 65.6895 L1893.19 72.576 L1854.22 72.576 L1854.22 12.096 Z" fill="#000000" fill-rule="evenodd" fill-opacity="1" /><polyline clip-path="url(#clip152)" style="stroke:#0000ff; stroke-linecap:butt; stroke-linejoin:round; stroke-width:8; stroke-opacity:0.75; fill:none" points="
  175.59,1447.87 286.84,1256.61 398.09,1136.3 509.34,1060.62 620.591,1013.02 731.841,983.073 843.091,964.238 954.341,952.389 1065.59,944.936 1176.84,940.248 
  1288.09,937.299 1399.34,935.445 1510.59,934.278 1621.84,933.544 1733.09,933.082 1844.34,932.792 1955.59,932.609 2066.84,932.494 2178.09,932.422 2289.34,932.376 
  
  "/>
<polyline clip-path="url(#clip152)" style="stroke:#008000; stroke-linecap:butt; stroke-linejoin:round; stroke-width:8; stroke-opacity:0.75; fill:none" points="
  175.59,162.047 286.84,544.573 398.09,785.193 509.34,936.55 620.591,1031.76 731.841,1091.65 843.091,1129.32 954.341,1153.01 1065.59,1167.92 1176.84,1177.3 
  1288.09,1183.19 1399.34,1186.9 1510.59,1189.24 1621.84,1190.71 1733.09,1191.63 1844.34,1192.21 1955.59,1192.58 2066.84,1192.81 2178.09,1192.95 2289.34,1193.04 
  
  "/>
<path clip-path="url(#clip150)" d="
M1751.69 324.425 L2278.07 324.425 L2278.07 168.905 L1751.69 168.905  Z
  " fill="#ffffff" fill-rule="evenodd" fill-opacity="1"/>
<polyline clip-path="url(#clip150)" style="stroke:#000000; stroke-linecap:butt; stroke-linejoin:round; stroke-width:4; stroke-opacity:1; fill:none" points="
  1751.69,324.425 2278.07,324.425 2278.07,168.905 1751.69,168.905 1751.69,324.425 
  "/>
<polyline clip-path="url(#clip150)" style="stroke:#0000ff; stroke-linecap:butt; stroke-linejoin:round; stroke-width:4; stroke-opacity:0.75; fill:none" points="
  1776.58,220.745 1925.95,220.745 
  "/>
<path clip-path="url(#clip150)" d="M1958.26 204.738 L1958.26 212.099 L1967.03 212.099 L1967.03 215.409 L1958.26 215.409 L1958.26 229.483 Q1958.26 232.654 1959.11 233.557 Q1959.99 234.46 1962.66 234.46 L1967.03 234.46 L1967.03 238.025 L1962.66 238.025 Q1957.73 238.025 1955.85 236.196 Q1953.98 234.344 1953.98 229.483 L1953.98 215.409 L1950.85 215.409 L1950.85 212.099 L1953.98 212.099 L1953.98 204.738 L1958.26 204.738 Z" fill="#000000" fill-rule="evenodd" fill-opacity="1" /><path clip-path="url(#clip150)" d="M1982.68 215.085 Q1979.25 215.085 1977.26 217.77 Q1975.27 220.432 1975.27 225.085 Q1975.27 229.738 1977.24 232.423 Q1979.23 235.085 1982.68 235.085 Q1986.08 235.085 1988.07 232.4 Q1990.06 229.715 1990.06 225.085 Q1990.06 220.478 1988.07 217.793 Q1986.08 215.085 1982.68 215.085 M1982.68 211.474 Q1988.23 211.474 1991.41 215.085 Q1994.58 218.696 1994.58 225.085 Q1994.58 231.451 1991.41 235.085 Q1988.23 238.696 1982.68 238.696 Q1977.1 238.696 1973.93 235.085 Q1970.78 231.451 1970.78 225.085 Q1970.78 218.696 1973.93 215.085 Q1977.1 211.474 1982.68 211.474 Z" fill="#000000" fill-rule="evenodd" fill-opacity="1" /><path clip-path="url(#clip150)" d="M2005.85 204.738 L2005.85 212.099 L2014.62 212.099 L2014.62 215.409 L2005.85 215.409 L2005.85 229.483 Q2005.85 232.654 2006.71 233.557 Q2007.59 234.46 2010.25 234.46 L2014.62 234.46 L2014.62 238.025 L2010.25 238.025 Q2005.32 238.025 2003.44 236.196 Q2001.57 234.344 2001.57 229.483 L2001.57 215.409 L1998.44 215.409 L1998.44 212.099 L2001.57 212.099 L2001.57 204.738 L2005.85 204.738 Z" fill="#000000" fill-rule="evenodd" fill-opacity="1" /><path clip-path="url(#clip150)" d="M2032.01 224.992 Q2026.85 224.992 2024.85 226.173 Q2022.86 227.353 2022.86 230.201 Q2022.86 232.469 2024.35 233.812 Q2025.85 235.131 2028.42 235.131 Q2031.96 235.131 2034.09 232.631 Q2036.24 230.108 2036.24 225.941 L2036.24 224.992 L2032.01 224.992 M2040.5 223.233 L2040.5 238.025 L2036.24 238.025 L2036.24 234.089 Q2034.78 236.451 2032.61 237.585 Q2030.43 238.696 2027.29 238.696 Q2023.3 238.696 2020.94 236.474 Q2018.6 234.228 2018.6 230.478 Q2018.6 226.103 2021.52 223.881 Q2024.46 221.659 2030.27 221.659 L2036.24 221.659 L2036.24 221.242 Q2036.24 218.303 2034.3 216.705 Q2032.38 215.085 2028.88 215.085 Q2026.66 215.085 2024.55 215.617 Q2022.45 216.15 2020.5 217.215 L2020.5 213.279 Q2022.84 212.377 2025.04 211.937 Q2027.24 211.474 2029.32 211.474 Q2034.95 211.474 2037.72 214.391 Q2040.5 217.307 2040.5 223.233 Z" fill="#000000" fill-rule="evenodd" fill-opacity="1" /><path clip-path="url(#clip150)" d="M2049.28 202.006 L2053.53 202.006 L2053.53 238.025 L2049.28 238.025 L2049.28 202.006 Z" fill="#000000" fill-rule="evenodd" fill-opacity="1" /><path clip-path="url(#clip150)" d="M2087.56 215.085 Q2084.14 215.085 2082.15 217.77 Q2080.16 220.432 2080.16 225.085 Q2080.16 229.738 2082.12 232.423 Q2084.11 235.085 2087.56 235.085 Q2090.97 235.085 2092.96 232.4 Q2094.95 229.715 2094.95 225.085 Q2094.95 220.478 2092.96 217.793 Q2090.97 215.085 2087.56 215.085 M2087.56 211.474 Q2093.12 211.474 2096.29 215.085 Q2099.46 218.696 2099.46 225.085 Q2099.46 231.451 2096.29 235.085 Q2093.12 238.696 2087.56 238.696 Q2081.98 238.696 2078.81 235.085 Q2075.66 231.451 2075.66 225.085 Q2075.66 218.696 2078.81 215.085 Q2081.98 211.474 2087.56 211.474 Z" fill="#000000" fill-rule="evenodd" fill-opacity="1" /><path clip-path="url(#clip150)" d="M2106.08 227.793 L2106.08 212.099 L2110.34 212.099 L2110.34 227.631 Q2110.34 231.312 2111.78 233.164 Q2113.21 234.992 2116.08 234.992 Q2119.53 234.992 2121.52 232.793 Q2123.53 230.594 2123.53 226.798 L2123.53 212.099 L2127.79 212.099 L2127.79 238.025 L2123.53 238.025 L2123.53 234.043 Q2121.98 236.404 2119.92 237.562 Q2117.89 238.696 2115.18 238.696 Q2110.71 238.696 2108.4 235.918 Q2106.08 233.14 2106.08 227.793 M2116.8 211.474 L2116.8 211.474 Z" fill="#000000" fill-rule="evenodd" fill-opacity="1" /><path clip-path="url(#clip150)" d="M2140.78 204.738 L2140.78 212.099 L2149.55 212.099 L2149.55 215.409 L2140.78 215.409 L2140.78 229.483 Q2140.78 232.654 2141.64 233.557 Q2142.52 234.46 2145.18 234.46 L2149.55 234.46 L2149.55 238.025 L2145.18 238.025 Q2140.25 238.025 2138.37 236.196 Q2136.5 234.344 2136.5 229.483 L2136.5 215.409 L2133.37 215.409 L2133.37 212.099 L2136.5 212.099 L2136.5 204.738 L2140.78 204.738 Z" fill="#000000" fill-rule="evenodd" fill-opacity="1" /><path clip-path="url(#clip150)" d="M2159.28 234.136 L2159.28 247.886 L2154.99 247.886 L2154.99 212.099 L2159.28 212.099 L2159.28 216.034 Q2160.62 213.719 2162.65 212.608 Q2164.71 211.474 2167.56 211.474 Q2172.28 211.474 2175.22 215.224 Q2178.19 218.974 2178.19 225.085 Q2178.19 231.196 2175.22 234.946 Q2172.28 238.696 2167.56 238.696 Q2164.71 238.696 2162.65 237.585 Q2160.62 236.451 2159.28 234.136 M2173.77 225.085 Q2173.77 220.386 2171.82 217.724 Q2169.9 215.039 2166.52 215.039 Q2163.14 215.039 2161.2 217.724 Q2159.28 220.386 2159.28 225.085 Q2159.28 229.784 2161.2 232.469 Q2163.14 235.131 2166.52 235.131 Q2169.9 235.131 2171.82 232.469 Q2173.77 229.784 2173.77 225.085 Z" fill="#000000" fill-rule="evenodd" fill-opacity="1" /><path clip-path="url(#clip150)" d="M2184.81 227.793 L2184.81 212.099 L2189.07 212.099 L2189.07 227.631 Q2189.07 231.312 2190.5 233.164 Q2191.94 234.992 2194.81 234.992 Q2198.26 234.992 2200.25 232.793 Q2202.26 230.594 2202.26 226.798 L2202.26 212.099 L2206.52 212.099 L2206.52 238.025 L2202.26 238.025 L2202.26 234.043 Q2200.71 236.404 2198.65 237.562 Q2196.61 238.696 2193.9 238.696 Q2189.44 238.696 2187.12 235.918 Q2184.81 233.14 2184.81 227.793 M2195.52 211.474 L2195.52 211.474 Z" fill="#000000" fill-rule="evenodd" fill-opacity="1" /><path clip-path="url(#clip150)" d="M2219.51 204.738 L2219.51 212.099 L2228.28 212.099 L2228.28 215.409 L2219.51 215.409 L2219.51 229.483 Q2219.51 232.654 2220.36 233.557 Q2221.24 234.46 2223.9 234.46 L2228.28 234.46 L2228.28 238.025 L2223.9 238.025 Q2218.97 238.025 2217.1 236.196 Q2215.22 234.344 2215.22 229.483 L2215.22 215.409 L2212.1 215.409 L2212.1 212.099 L2215.22 212.099 L2215.22 204.738 L2219.51 204.738 Z" fill="#000000" fill-rule="evenodd" fill-opacity="1" /><polyline clip-path="url(#clip150)" style="stroke:#008000; stroke-linecap:butt; stroke-linejoin:round; stroke-width:4; stroke-opacity:0.75; fill:none" points="
  1776.58,272.585 1925.95,272.585 
  "/>
<path clip-path="url(#clip150)" d="M1955.13 285.976 L1955.13 299.726 L1950.85 299.726 L1950.85 263.939 L1955.13 263.939 L1955.13 267.874 Q1956.48 265.559 1958.51 264.448 Q1960.57 263.314 1963.42 263.314 Q1968.14 263.314 1971.08 267.064 Q1974.04 270.814 1974.04 276.925 Q1974.04 283.036 1971.08 286.786 Q1968.14 290.536 1963.42 290.536 Q1960.57 290.536 1958.51 289.425 Q1956.48 288.291 1955.13 285.976 M1969.62 276.925 Q1969.62 272.226 1967.68 269.564 Q1965.76 266.879 1962.38 266.879 Q1959 266.879 1957.05 269.564 Q1955.13 272.226 1955.13 276.925 Q1955.13 281.624 1957.05 284.309 Q1959 286.971 1962.38 286.971 Q1965.76 286.971 1967.68 284.309 Q1969.62 281.624 1969.62 276.925 Z" fill="#000000" fill-rule="evenodd" fill-opacity="1" /><path clip-path="url(#clip150)" d="M1996.13 267.92 Q1995.41 267.504 1994.55 267.318 Q1993.72 267.11 1992.7 267.11 Q1989.09 267.11 1987.15 269.471 Q1985.23 271.809 1985.23 276.207 L1985.23 289.865 L1980.94 289.865 L1980.94 263.939 L1985.23 263.939 L1985.23 267.967 Q1986.57 265.606 1988.72 264.471 Q1990.87 263.314 1993.95 263.314 Q1994.39 263.314 1994.92 263.383 Q1995.46 263.43 1996.1 263.545 L1996.13 267.92 Z" fill="#000000" fill-rule="evenodd" fill-opacity="1" /><path clip-path="url(#clip150)" d="M2000.6 263.939 L2004.85 263.939 L2004.85 289.865 L2000.6 289.865 L2000.6 263.939 M2000.6 253.846 L2004.85 253.846 L2004.85 259.24 L2000.6 259.24 L2000.6 253.846 Z" fill="#000000" fill-rule="evenodd" fill-opacity="1" /><path clip-path="url(#clip150)" d="M2032.42 264.934 L2032.42 268.916 Q2030.62 267.92 2028.79 267.434 Q2026.98 266.925 2025.13 266.925 Q2020.99 266.925 2018.7 269.564 Q2016.41 272.18 2016.41 276.925 Q2016.41 281.67 2018.7 284.309 Q2020.99 286.925 2025.13 286.925 Q2026.98 286.925 2028.79 286.439 Q2030.62 285.929 2032.42 284.934 L2032.42 288.869 Q2030.64 289.703 2028.72 290.119 Q2026.82 290.536 2024.67 290.536 Q2018.81 290.536 2015.36 286.855 Q2011.91 283.175 2011.91 276.925 Q2011.91 270.582 2015.39 266.948 Q2018.88 263.314 2024.95 263.314 Q2026.91 263.314 2028.79 263.731 Q2030.66 264.124 2032.42 264.934 Z" fill="#000000" fill-rule="evenodd" fill-opacity="1" /><path clip-path="url(#clip150)" d="M2062.01 275.837 L2062.01 277.92 L2042.42 277.92 Q2042.7 282.318 2045.06 284.633 Q2047.45 286.925 2051.68 286.925 Q2054.14 286.925 2056.43 286.323 Q2058.74 285.721 2061.01 284.517 L2061.01 288.545 Q2058.72 289.517 2056.31 290.027 Q2053.91 290.536 2051.43 290.536 Q2045.22 290.536 2041.59 286.925 Q2037.98 283.314 2037.98 277.156 Q2037.98 270.791 2041.41 267.064 Q2044.85 263.314 2050.69 263.314 Q2055.92 263.314 2058.95 266.693 Q2062.01 270.05 2062.01 275.837 M2057.75 274.587 Q2057.7 271.092 2055.78 269.008 Q2053.88 266.925 2050.73 266.925 Q2047.17 266.925 2045.02 268.939 Q2042.89 270.953 2042.56 274.61 L2057.75 274.587 Z" fill="#000000" fill-rule="evenodd" fill-opacity="1" /></svg>
