<?xml version="1.0" encoding="utf-8"?>
<svg xmlns="http://www.w3.org/2000/svg" xmlns:xlink="http://www.w3.org/1999/xlink" width="600" height="400" viewBox="0 0 2400 1600">
<defs>
  <clipPath id="clip950">
    <rect x="0" y="0" width="2400" height="1600"/>
  </clipPath>
</defs>
<path clip-path="url(#clip950)" d="
M0 1600 L2400 1600 L2400 0 L0 0  Z
  " fill="#ffffff" fill-rule="evenodd" fill-opacity="1"/>
<defs>
  <clipPath id="clip951">
    <rect x="480" y="0" width="1681" height="1600"/>
  </clipPath>
</defs>
<defs>
  <clipPath id="clip952">
    <rect x="203" y="611" width="2157" height="811"/>
  </clipPath>
</defs>
<path clip-path="url(#clip950)" d="
M156.112 1486.45 L2352.76 1486.45 L2352.76 123.472 L156.112 123.472  Z
  " fill="#ffffff" fill-rule="evenodd" fill-opacity="1"/>
<defs>
  <clipPath id="clip953">
    <rect x="156" y="123" width="2198" height="1364"/>
  </clipPath>
</defs>
<polyline clip-path="url(#clip953)" style="stroke:#000000; stroke-linecap:round; stroke-linejoin:round; stroke-width:2; stroke-opacity:0.1; fill:none" points="
  563.666,1486.45 563.666,123.472 
  "/>
<polyline clip-path="url(#clip953)" style="stroke:#000000; stroke-linecap:round; stroke-linejoin:round; stroke-width:2; stroke-opacity:0.1; fill:none" points="
  995.396,1486.45 995.396,123.472 
  "/>
<polyline clip-path="url(#clip953)" style="stroke:#000000; stroke-linecap:round; stroke-linejoin:round; stroke-width:2; stroke-opacity:0.1; fill:none" points="
  1427.13,1486.45 1427.13,123.472 
  "/>
<polyline clip-path="url(#clip953)" style="stroke:#000000; stroke-linecap:round; stroke-linejoin:round; stroke-width:2; stroke-opacity:0.1; fill:none" points="
  1858.86,1486.45 1858.86,123.472 
  "/>
<polyline clip-path="url(#clip953)" style="stroke:#000000; stroke-linecap:round; stroke-linejoin:round; stroke-width:2; stroke-opacity:0.1; fill:none" points="
  2290.59,1486.45 2290.59,123.472 
  "/>
<polyline clip-path="url(#clip950)" style="stroke:#000000; stroke-linecap:round; stroke-linejoin:round; stroke-width:4; stroke-opacity:1; fill:none" points="
  156.112,1486.45 2352.76,1486.45 
  "/>
<polyline clip-path="url(#clip950)" style="stroke:#000000; stroke-linecap:round; stroke-linejoin:round; stroke-width:4; stroke-opacity:1; fill:none" points="
  563.666,1486.45 563.666,1467.55 
  "/>
<polyline clip-path="url(#clip950)" style="stroke:#000000; stroke-linecap:round; stroke-linejoin:round; stroke-width:4; stroke-opacity:1; fill:none" points="
  995.396,1486.45 995.396,1467.55 
  "/>
<polyline clip-path="url(#clip950)" style="stroke:#000000; stroke-linecap:round; stroke-linejoin:round; stroke-width:4; stroke-opacity:1; fill:none" points="
  1427.13,1486.45 1427.13,1467.55 
  "/>
<polyline clip-path="url(#clip950)" style="stroke:#000000; stroke-linecap:round; stroke-linejoin:round; stroke-width:4; stroke-opacity:1; fill:none" points="
  1858.86,1486.45 1858.86,1467.55 
  "/>
<polyline clip-path="url(#clip950)" style="stroke:#000000; stroke-linecap:round; stroke-linejoin:round; stroke-width:4; stroke-opacity:1; fill:none" points="
  2290.59,1486.45 2290.59,1467.55 
  "/>
<path clip-path="url(#clip950)" d="M553.943 1514.29 L572.3 1514.29 L572.3 1518.22 L558.226 1518.22 L558.226 1526.7 Q559.244 1526.35 560.263 1526.19 Q561.281 1526 562.3 1526 Q568.087 1526 571.466 1529.17 Q574.846 1532.34 574.846 1537.76 Q574.846 1543.34 571.374 1546.44 Q567.902 1549.52 561.582 1549.52 Q559.406 1549.52 557.138 1549.15 Q554.892 1548.78 552.485 1548.04 L552.485 1543.34 Q554.568 1544.47 556.791 1545.03 Q559.013 1545.58 561.49 1545.58 Q565.494 1545.58 567.832 1543.48 Q570.17 1541.37 570.17 1537.76 Q570.17 1534.15 567.832 1532.04 Q565.494 1529.94 561.49 1529.94 Q559.615 1529.94 557.74 1530.35 Q555.888 1530.77 553.943 1531.65 L553.943 1514.29 Z" fill="#000000" fill-rule="evenodd" fill-opacity="1" /><path clip-path="url(#clip950)" d="M970.083 1544.91 L977.722 1544.91 L977.722 1518.55 L969.412 1520.21 L969.412 1515.95 L977.676 1514.29 L982.352 1514.29 L982.352 1544.91 L989.991 1544.91 L989.991 1548.85 L970.083 1548.85 L970.083 1544.91 Z" fill="#000000" fill-rule="evenodd" fill-opacity="1" /><path clip-path="url(#clip950)" d="M1009.44 1517.37 Q1005.82 1517.37 1004 1520.93 Q1002.19 1524.47 1002.19 1531.6 Q1002.19 1538.71 1004 1542.27 Q1005.82 1545.82 1009.44 1545.82 Q1013.07 1545.82 1014.87 1542.27 Q1016.7 1538.71 1016.7 1531.6 Q1016.7 1524.47 1014.87 1520.93 Q1013.07 1517.37 1009.44 1517.37 M1009.44 1513.66 Q1015.25 1513.66 1018.3 1518.27 Q1021.38 1522.85 1021.38 1531.6 Q1021.38 1540.33 1018.3 1544.94 Q1015.25 1549.52 1009.44 1549.52 Q1003.62 1549.52 1000.55 1544.94 Q997.491 1540.33 997.491 1531.6 Q997.491 1522.85 1000.55 1518.27 Q1003.62 1513.66 1009.44 1513.66 Z" fill="#000000" fill-rule="evenodd" fill-opacity="1" /><path clip-path="url(#clip950)" d="M1402.31 1544.91 L1409.95 1544.91 L1409.95 1518.55 L1401.64 1520.21 L1401.64 1515.95 L1409.9 1514.29 L1414.58 1514.29 L1414.58 1544.91 L1422.22 1544.91 L1422.22 1548.85 L1402.31 1548.85 L1402.31 1544.91 Z" fill="#000000" fill-rule="evenodd" fill-opacity="1" /><path clip-path="url(#clip950)" d="M1431.71 1514.29 L1450.07 1514.29 L1450.07 1518.22 L1435.99 1518.22 L1435.99 1526.7 Q1437.01 1526.35 1438.03 1526.19 Q1439.05 1526 1440.07 1526 Q1445.85 1526 1449.23 1529.17 Q1452.61 1532.34 1452.61 1537.76 Q1452.61 1543.34 1449.14 1546.44 Q1445.67 1549.52 1439.35 1549.52 Q1437.17 1549.52 1434.9 1549.15 Q1432.66 1548.78 1430.25 1548.04 L1430.25 1543.34 Q1432.33 1544.47 1434.56 1545.03 Q1436.78 1545.58 1439.26 1545.58 Q1443.26 1545.58 1445.6 1543.48 Q1447.94 1541.37 1447.94 1537.76 Q1447.94 1534.15 1445.6 1532.04 Q1443.26 1529.94 1439.26 1529.94 Q1437.38 1529.94 1435.51 1530.35 Q1433.65 1530.77 1431.71 1531.65 L1431.71 1514.29 Z" fill="#000000" fill-rule="evenodd" fill-opacity="1" /><path clip-path="url(#clip950)" d="M1837.63 1544.91 L1853.95 1544.91 L1853.95 1548.85 L1832 1548.85 L1832 1544.91 Q1834.67 1542.16 1839.25 1537.53 Q1843.86 1532.88 1845.04 1531.53 Q1847.28 1529.01 1848.16 1527.27 Q1849.06 1525.51 1849.06 1523.82 Q1849.06 1521.07 1847.12 1519.33 Q1845.2 1517.6 1842.1 1517.6 Q1839.9 1517.6 1837.44 1518.36 Q1835.01 1519.13 1832.24 1520.68 L1832.24 1515.95 Q1835.06 1514.82 1837.51 1514.24 Q1839.97 1513.66 1842 1513.66 Q1847.38 1513.66 1850.57 1516.35 Q1853.76 1519.03 1853.76 1523.52 Q1853.76 1525.65 1852.95 1527.57 Q1852.17 1529.47 1850.06 1532.07 Q1849.48 1532.74 1846.38 1535.95 Q1843.28 1539.15 1837.63 1544.91 Z" fill="#000000" fill-rule="evenodd" fill-opacity="1" /><path clip-path="url(#clip950)" d="M1873.76 1517.37 Q1870.15 1517.37 1868.32 1520.93 Q1866.52 1524.47 1866.52 1531.6 Q1866.52 1538.71 1868.32 1542.27 Q1870.15 1545.82 1873.76 1545.82 Q1877.4 1545.82 1879.2 1542.27 Q1881.03 1538.71 1881.03 1531.6 Q1881.03 1524.47 1879.2 1520.93 Q1877.4 1517.37 1873.76 1517.37 M1873.76 1513.66 Q1879.57 1513.66 1882.63 1518.27 Q1885.71 1522.85 1885.71 1531.6 Q1885.71 1540.33 1882.63 1544.94 Q1879.57 1549.52 1873.76 1549.52 Q1867.95 1549.52 1864.87 1544.94 Q1861.82 1540.33 1861.82 1531.6 Q1861.82 1522.85 1864.87 1518.27 Q1867.95 1513.66 1873.76 1513.66 Z" fill="#000000" fill-rule="evenodd" fill-opacity="1" /><path clip-path="url(#clip950)" d="M2269.86 1544.91 L2286.18 1544.91 L2286.18 1548.85 L2264.23 1548.85 L2264.23 1544.91 Q2266.89 1542.16 2271.48 1537.53 Q2276.08 1532.88 2277.27 1531.53 Q2279.51 1529.01 2280.39 1527.27 Q2281.29 1525.51 2281.29 1523.82 Q2281.29 1521.07 2279.35 1519.33 Q2277.43 1517.6 2274.33 1517.6 Q2272.13 1517.6 2269.67 1518.36 Q2267.24 1519.13 2264.46 1520.68 L2264.46 1515.95 Q2267.29 1514.82 2269.74 1514.24 Q2272.2 1513.66 2274.23 1513.66 Q2279.6 1513.66 2282.8 1516.35 Q2285.99 1519.03 2285.99 1523.52 Q2285.99 1525.65 2285.18 1527.57 Q2284.39 1529.47 2282.29 1532.07 Q2281.71 1532.74 2278.61 1535.95 Q2275.51 1539.15 2269.86 1544.91 Z" fill="#000000" fill-rule="evenodd" fill-opacity="1" /><path clip-path="url(#clip950)" d="M2296.04 1514.29 L2314.39 1514.29 L2314.39 1518.22 L2300.32 1518.22 L2300.32 1526.7 Q2301.34 1526.35 2302.36 1526.19 Q2303.38 1526 2304.39 1526 Q2310.18 1526 2313.56 1529.17 Q2316.94 1532.34 2316.94 1537.76 Q2316.94 1543.34 2313.47 1546.44 Q2310 1549.52 2303.68 1549.52 Q2301.5 1549.52 2299.23 1549.15 Q2296.99 1548.78 2294.58 1548.04 L2294.58 1543.34 Q2296.66 1544.47 2298.89 1545.03 Q2301.11 1545.58 2303.58 1545.58 Q2307.59 1545.58 2309.93 1543.48 Q2312.26 1541.37 2312.26 1537.76 Q2312.26 1534.15 2309.93 1532.04 Q2307.59 1529.94 2303.58 1529.94 Q2301.71 1529.94 2299.83 1530.35 Q2297.98 1530.77 2296.04 1531.65 L2296.04 1514.29 Z" fill="#000000" fill-rule="evenodd" fill-opacity="1" /><polyline clip-path="url(#clip953)" style="stroke:#000000; stroke-linecap:round; stroke-linejoin:round; stroke-width:2; stroke-opacity:0.1; fill:none" points="
  156.112,1447.87 2352.76,1447.87 
  "/>
<polyline clip-path="url(#clip953)" style="stroke:#000000; stroke-linecap:round; stroke-linejoin:round; stroke-width:2; stroke-opacity:0.1; fill:none" points="
  156.112,1126.42 2352.76,1126.42 
  "/>
<polyline clip-path="url(#clip953)" style="stroke:#000000; stroke-linecap:round; stroke-linejoin:round; stroke-width:2; stroke-opacity:0.1; fill:none" points="
  156.112,804.96 2352.76,804.96 
  "/>
<polyline clip-path="url(#clip953)" style="stroke:#000000; stroke-linecap:round; stroke-linejoin:round; stroke-width:2; stroke-opacity:0.1; fill:none" points="
  156.112,483.503 2352.76,483.503 
  "/>
<polyline clip-path="url(#clip953)" style="stroke:#000000; stroke-linecap:round; stroke-linejoin:round; stroke-width:2; stroke-opacity:0.1; fill:none" points="
  156.112,162.047 2352.76,162.047 
  "/>
<polyline clip-path="url(#clip950)" style="stroke:#000000; stroke-linecap:round; stroke-linejoin:round; stroke-width:4; stroke-opacity:1; fill:none" points="
  156.112,1486.45 156.112,123.472 
  "/>
<polyline clip-path="url(#clip950)" style="stroke:#000000; stroke-linecap:round; stroke-linejoin:round; stroke-width:4; stroke-opacity:1; fill:none" points="
  156.112,1447.87 175.01,1447.87 
  "/>
<polyline clip-path="url(#clip950)" style="stroke:#000000; stroke-linecap:round; stroke-linejoin:round; stroke-width:4; stroke-opacity:1; fill:none" points="
  156.112,1126.42 175.01,1126.42 
  "/>
<polyline clip-path="url(#clip950)" style="stroke:#000000; stroke-linecap:round; stroke-linejoin:round; stroke-width:4; stroke-opacity:1; fill:none" points="
  156.112,804.96 175.01,804.96 
  "/>
<polyline clip-path="url(#clip950)" style="stroke:#000000; stroke-linecap:round; stroke-linejoin:round; stroke-width:4; stroke-opacity:1; fill:none" points="
  156.112,483.503 175.01,483.503 
  "/>
<polyline clip-path="url(#clip950)" style="stroke:#000000; stroke-linecap:round; stroke-linejoin:round; stroke-width:4; stroke-opacity:1; fill:none" points="
  156.112,162.047 175.01,162.047 
  "/>
<path clip-path="url(#clip950)" d="M62.9365 1433.67 Q59.3254 1433.67 57.4967 1437.24 Q55.6912 1440.78 55.6912 1447.91 Q55.6912 1455.01 57.4967 1458.58 Q59.3254 1462.12 62.9365 1462.12 Q66.5707 1462.12 68.3763 1458.58 Q70.205 1455.01 70.205 1447.91 Q70.205 1440.78 68.3763 1437.24 Q66.5707 1433.67 62.9365 1433.67 M62.9365 1429.97 Q68.7467 1429.97 71.8022 1434.57 Q74.8809 1439.16 74.8809 1447.91 Q74.8809 1456.63 71.8022 1461.24 Q68.7467 1465.82 62.9365 1465.82 Q57.1264 1465.82 54.0477 1461.24 Q50.9921 1456.63 50.9921 1447.91 Q50.9921 1439.16 54.0477 1434.57 Q57.1264 1429.97 62.9365 1429.97 Z" fill="#000000" fill-rule="evenodd" fill-opacity="1" /><path clip-path="url(#clip950)" d="M83.0984 1459.27 L87.9827 1459.27 L87.9827 1465.15 L83.0984 1465.15 L83.0984 1459.27 Z" fill="#000000" fill-rule="evenodd" fill-opacity="1" /><path clip-path="url(#clip950)" d="M108.168 1433.67 Q104.557 1433.67 102.728 1437.24 Q100.922 1440.78 100.922 1447.91 Q100.922 1455.01 102.728 1458.58 Q104.557 1462.12 108.168 1462.12 Q111.802 1462.12 113.608 1458.58 Q115.436 1455.01 115.436 1447.91 Q115.436 1440.78 113.608 1437.24 Q111.802 1433.67 108.168 1433.67 M108.168 1429.97 Q113.978 1429.97 117.033 1434.57 Q120.112 1439.16 120.112 1447.91 Q120.112 1456.63 117.033 1461.24 Q113.978 1465.82 108.168 1465.82 Q102.358 1465.82 99.2789 1461.24 Q96.2234 1456.63 96.2234 1447.91 Q96.2234 1439.16 99.2789 1434.57 Q102.358 1429.97 108.168 1429.97 Z" fill="#000000" fill-rule="evenodd" fill-opacity="1" /><path clip-path="url(#clip950)" d="M63.9319 1112.22 Q60.3208 1112.22 58.4921 1115.78 Q56.6865 1119.32 56.6865 1126.45 Q56.6865 1133.56 58.4921 1137.12 Q60.3208 1140.66 63.9319 1140.66 Q67.5661 1140.66 69.3717 1137.12 Q71.2004 1133.56 71.2004 1126.45 Q71.2004 1119.32 69.3717 1115.78 Q67.5661 1112.22 63.9319 1112.22 M63.9319 1108.51 Q69.742 1108.51 72.7976 1113.12 Q75.8763 1117.7 75.8763 1126.45 Q75.8763 1135.18 72.7976 1139.78 Q69.742 1144.37 63.9319 1144.37 Q58.1217 1144.37 55.043 1139.78 Q51.9875 1135.18 51.9875 1126.45 Q51.9875 1117.7 55.043 1113.12 Q58.1217 1108.51 63.9319 1108.51 Z" fill="#000000" fill-rule="evenodd" fill-opacity="1" /><path clip-path="url(#clip950)" d="M84.0938 1137.82 L88.978 1137.82 L88.978 1143.7 L84.0938 1143.7 L84.0938 1137.82 Z" fill="#000000" fill-rule="evenodd" fill-opacity="1" /><path clip-path="url(#clip950)" d="M99.2095 1109.14 L117.566 1109.14 L117.566 1113.07 L103.492 1113.07 L103.492 1121.54 Q104.51 1121.2 105.529 1121.03 Q106.547 1120.85 107.566 1120.85 Q113.353 1120.85 116.733 1124.02 Q120.112 1127.19 120.112 1132.61 Q120.112 1138.19 116.64 1141.29 Q113.168 1144.37 106.848 1144.37 Q104.672 1144.37 102.404 1144 Q100.159 1143.63 97.7511 1142.89 L97.7511 1138.19 Q99.8345 1139.32 102.057 1139.88 Q104.279 1140.43 106.756 1140.43 Q110.76 1140.43 113.098 1138.33 Q115.436 1136.22 115.436 1132.61 Q115.436 1129 113.098 1126.89 Q110.76 1124.78 106.756 1124.78 Q104.881 1124.78 103.006 1125.2 Q101.154 1125.62 99.2095 1126.5 L99.2095 1109.14 Z" fill="#000000" fill-rule="evenodd" fill-opacity="1" /><path clip-path="url(#clip950)" d="M53.7467 818.305 L61.3856 818.305 L61.3856 791.939 L53.0754 793.606 L53.0754 789.347 L61.3393 787.68 L66.0152 787.68 L66.0152 818.305 L73.654 818.305 L73.654 822.24 L53.7467 822.24 L53.7467 818.305 Z" fill="#000000" fill-rule="evenodd" fill-opacity="1" /><path clip-path="url(#clip950)" d="M83.0984 816.36 L87.9827 816.36 L87.9827 822.24 L83.0984 822.24 L83.0984 816.36 Z" fill="#000000" fill-rule="evenodd" fill-opacity="1" /><path clip-path="url(#clip950)" d="M108.168 790.759 Q104.557 790.759 102.728 794.323 Q100.922 797.865 100.922 804.995 Q100.922 812.101 102.728 815.666 Q104.557 819.208 108.168 819.208 Q111.802 819.208 113.608 815.666 Q115.436 812.101 115.436 804.995 Q115.436 797.865 113.608 794.323 Q111.802 790.759 108.168 790.759 M108.168 787.055 Q113.978 787.055 117.033 791.661 Q120.112 796.245 120.112 804.995 Q120.112 813.722 117.033 818.328 Q113.978 822.911 108.168 822.911 Q102.358 822.911 99.2789 818.328 Q96.2234 813.722 96.2234 804.995 Q96.2234 796.245 99.2789 791.661 Q102.358 787.055 108.168 787.055 Z" fill="#000000" fill-rule="evenodd" fill-opacity="1" /><path clip-path="url(#clip950)" d="M54.7421 496.848 L62.381 496.848 L62.381 470.483 L54.0708 472.149 L54.0708 467.89 L62.3347 466.223 L67.0106 466.223 L67.0106 496.848 L74.6494 496.848 L74.6494 500.783 L54.7421 500.783 L54.7421 496.848 Z" fill="#000000" fill-rule="evenodd" fill-opacity="1" /><path clip-path="url(#clip950)" d="M84.0938 494.904 L88.978 494.904 L88.978 500.783 L84.0938 500.783 L84.0938 494.904 Z" fill="#000000" fill-rule="evenodd" fill-opacity="1" /><path clip-path="url(#clip950)" d="M99.2095 466.223 L117.566 466.223 L117.566 470.159 L103.492 470.159 L103.492 478.631 Q104.51 478.284 105.529 478.122 Q106.547 477.936 107.566 477.936 Q113.353 477.936 116.733 481.108 Q120.112 484.279 120.112 489.696 Q120.112 495.274 116.64 498.376 Q113.168 501.455 106.848 501.455 Q104.672 501.455 102.404 501.084 Q100.159 500.714 97.7511 499.973 L97.7511 495.274 Q99.8345 496.408 102.057 496.964 Q104.279 497.52 106.756 497.52 Q110.76 497.52 113.098 495.413 Q115.436 493.307 115.436 489.696 Q115.436 486.084 113.098 483.978 Q110.76 481.872 106.756 481.872 Q104.881 481.872 103.006 482.288 Q101.154 482.705 99.2095 483.584 L99.2095 466.223 Z" fill="#000000" fill-rule="evenodd" fill-opacity="1" /><path clip-path="url(#clip950)" d="M56.9643 175.392 L73.2837 175.392 L73.2837 179.327 L51.3393 179.327 L51.3393 175.392 Q54.0014 172.637 58.5847 168.008 Q63.1911 163.355 64.3717 162.012 Q66.617 159.489 67.4967 157.753 Q68.3994 155.994 68.3994 154.304 Q68.3994 151.549 66.455 149.813 Q64.5337 148.077 61.4319 148.077 Q59.2328 148.077 56.7791 148.841 Q54.3486 149.605 51.5708 151.156 L51.5708 146.434 Q54.3949 145.299 56.8486 144.721 Q59.3023 144.142 61.3393 144.142 Q66.7096 144.142 69.9041 146.827 Q73.0985 149.512 73.0985 154.003 Q73.0985 156.133 72.2883 158.054 Q71.5013 159.952 69.3948 162.545 Q68.8161 163.216 65.7143 166.433 Q62.6124 169.628 56.9643 175.392 Z" fill="#000000" fill-rule="evenodd" fill-opacity="1" /><path clip-path="url(#clip950)" d="M83.0984 173.447 L87.9827 173.447 L87.9827 179.327 L83.0984 179.327 L83.0984 173.447 Z" fill="#000000" fill-rule="evenodd" fill-opacity="1" /><path clip-path="url(#clip950)" d="M108.168 147.846 Q104.557 147.846 102.728 151.41 Q100.922 154.952 100.922 162.082 Q100.922 169.188 102.728 172.753 Q104.557 176.295 108.168 176.295 Q111.802 176.295 113.608 172.753 Q115.436 169.188 115.436 162.082 Q115.436 154.952 113.608 151.41 Q111.802 147.846 108.168 147.846 M108.168 144.142 Q113.978 144.142 117.033 148.748 Q120.112 153.332 120.112 162.082 Q120.112 170.808 117.033 175.415 Q113.978 179.998 108.168 179.998 Q102.358 179.998 99.2789 175.415 Q96.2234 170.808 96.2234 162.082 Q96.2234 153.332 99.2789 148.748 Q102.358 144.142 108.168 144.142 Z" fill="#000000" fill-rule="evenodd" fill-opacity="1" /><path clip-path="url(#clip950)" d="M1140.63 27.1203 Q1140.63 27.7352 1140.18 28.6369 Q1139.77 29.4567 1138.91 29.9896 Q1138.09 30.4815 1137.19 30.4815 Q1136.9 30.4815 1136.25 30.3175 Q1135.14 29.8256 1133.42 28.7189 Q1131.7 27.6122 1130.14 26.9154 Q1128.62 26.1776 1126.94 26.0956 Q1125.47 26.0956 1124.24 26.6285 Q1123.13 27.2433 1122.39 28.555 Q1122.07 29.0878 1122.07 29.9896 Q1122.07 31.2603 1122.76 32.9408 Q1123.46 34.6214 1124.89 36.7938 Q1126.37 38.9662 1127.44 40.4418 Q1128.5 41.8765 1130.35 44.2539 Q1130.51 44.4588 1130.59 44.5818 Q1130.67 44.6637 1130.8 44.8687 Q1130.92 45.0326 1131.04 45.1556 Q1134.94 50.0333 1135.92 55.4029 Q1136.17 57.2884 1136.17 59.2559 Q1136.17 63.1909 1134.98 67.8227 Q1133.95 72.0446 1131.78 75.6926 Q1129.61 79.2997 1126.33 81.6771 Q1123.09 84.0544 1119.57 84.0544 Q1116.08 84.0544 1113.21 82.5378 Q1110.34 80.9802 1108.62 78.3159 Q1106.28 74.7909 1106.28 69.9131 Q1106.28 67.1669 1106.94 64.8305 Q1107.84 61.1004 1109.97 57.6573 Q1112.11 54.2142 1115.18 51.5499 Q1119.85 47.615 1124.94 46.5083 Q1122.56 41.9994 1121.16 38.5154 Q1119.81 34.9903 1119.81 31.9981 Q1119.81 29.3747 1120.8 27.6942 Q1121.66 25.8907 1123.42 24.8659 Q1124.89 23.9642 1127.03 23.5133 Q1128.34 23.3493 1129.2 23.3493 Q1132.11 23.3493 1138.87 24.9479 Q1140.63 25.3578 1140.63 27.1203 M1130.39 62.617 Q1130.39 60.1167 1129.98 58.4361 Q1129.2 54.3372 1126.08 48.6807 L1125.84 48.2708 Q1121.86 49.4185 1118.62 52.9026 Q1114.56 57.1655 1112.52 65.2404 Q1111.41 69.7492 1111.41 72.2905 Q1111.41 75.0368 1112.43 77.4142 Q1113.42 79.6276 1115.26 80.8983 Q1117.15 82.1689 1119.65 82.1689 Q1121.53 82.1689 1123.17 81.1032 Q1124.81 79.9965 1126 78.07 Q1127.19 76.1435 1128.01 74.0531 Q1128.87 71.9216 1129.53 69.4213 Q1130.39 66.0601 1130.39 62.617 Z" fill="#000000" fill-rule="evenodd" fill-opacity="1" /><path clip-path="url(#clip950)" d="M1166.48 70.364 Q1166.56 69.3393 1168.16 69.3393 L1219.6 69.3393 Q1222.02 69.3393 1222.06 70.282 Q1222.06 71.3068 1219.76 71.2658 L1168.73 71.2658 Q1166.48 71.3068 1166.48 70.364 M1166.48 53.9683 Q1166.48 52.9436 1168.24 52.9846 L1219.52 52.9846 Q1222.02 52.9846 1222.06 53.9683 Q1222.06 54.9111 1219.93 54.9111 L1168.16 54.9111 Q1166.48 54.9111 1166.48 53.9683 Z" fill="#000000" fill-rule="evenodd" fill-opacity="1" /><path clip-path="url(#clip950)" d="M1254.44 56.2637 Q1254.44 43.9259 1257.55 37.2037 Q1261.9 27.2023 1272.14 27.2023 Q1274.32 27.2023 1276.57 27.8172 Q1278.87 28.391 1281.74 30.6454 Q1284.65 32.8998 1286.41 36.5889 Q1289.77 43.721 1289.77 56.2637 Q1289.77 68.5195 1286.65 75.2008 Q1282.1 84.9562 1272.06 84.9562 Q1268.29 84.9562 1264.44 83.0297 Q1260.63 81.1032 1258.21 76.4714 Q1254.44 69.5442 1254.44 56.2637 M1261.41 55.239 Q1261.41 67.9047 1262.31 72.9463 Q1263.33 78.3979 1266.12 80.7753 Q1268.95 83.1117 1272.06 83.1117 Q1275.42 83.1117 1278.21 80.6113 Q1281.04 78.07 1281.9 72.6184 Q1282.84 67.2488 1282.8 55.239 Q1282.8 43.557 1281.98 38.8843 Q1280.88 33.4327 1277.92 31.2603 Q1275.01 29.0468 1272.06 29.0468 Q1270.96 29.0468 1269.77 29.3747 Q1268.62 29.7027 1266.94 30.6454 Q1265.26 31.5882 1263.95 33.9246 Q1262.68 36.2609 1262.06 39.786 Q1261.41 44.3358 1261.41 55.239 Z" fill="#000000" fill-rule="evenodd" fill-opacity="1" /><path clip-path="url(#clip950)" d="M1297.28 81.759 Q1296.01 80.4064 1296.01 78.6439 Q1296.01 76.8813 1297.28 75.6106 Q1298.55 74.299 1300.48 74.299 Q1302.32 74.299 1303.55 75.5287 Q1304.82 76.7174 1304.82 78.6848 Q1304.82 80.6113 1303.47 81.882 Q1302.16 83.1117 1300.48 83.1117 Q1298.55 83.1117 1297.28 81.759 Z" fill="#000000" fill-rule="evenodd" fill-opacity="1" /><path clip-path="url(#clip950)" d="M1319.11 56.2637 Q1319.11 43.9259 1322.22 37.2037 Q1326.57 27.2023 1336.81 27.2023 Q1338.99 27.2023 1341.24 27.8172 Q1343.54 28.391 1346.41 30.6454 Q1349.32 32.8998 1351.08 36.5889 Q1354.44 43.721 1354.44 56.2637 Q1354.44 68.5195 1351.32 75.2008 Q1346.77 84.9562 1336.73 84.9562 Q1332.96 84.9562 1329.11 83.0297 Q1325.3 81.1032 1322.88 76.4714 Q1319.11 69.5442 1319.11 56.2637 M1326.07 55.239 Q1326.07 67.9047 1326.98 72.9463 Q1328 78.3979 1330.79 80.7753 Q1333.62 83.1117 1336.73 83.1117 Q1340.09 83.1117 1342.88 80.6113 Q1345.71 78.07 1346.57 72.6184 Q1347.51 67.2488 1347.47 55.239 Q1347.47 43.557 1346.65 38.8843 Q1345.54 33.4327 1342.59 31.2603 Q1339.68 29.0468 1336.73 29.0468 Q1335.63 29.0468 1334.44 29.3747 Q1333.29 29.7027 1331.61 30.6454 Q1329.93 31.5882 1328.62 33.9246 Q1327.35 36.2609 1326.73 39.786 Q1326.07 44.3358 1326.07 55.239 Z" fill="#000000" fill-rule="evenodd" fill-opacity="1" /><path clip-path="url(#clip950)" d="M1361.01 83.1117 Q1361.01 81.5951 1361.14 81.1442 Q1361.3 80.6933 1361.96 79.9965 L1378.06 62.0432 Q1386.88 52.1238 1386.88 43.4751 Q1386.88 37.8595 1383.93 33.8426 Q1381.02 29.8256 1375.65 29.8256 Q1371.96 29.8256 1368.84 32.08 Q1365.73 34.3344 1364.29 38.3514 Q1364.54 38.2694 1365.4 38.2694 Q1367.49 38.2694 1368.64 39.5811 Q1369.83 40.8927 1369.83 42.6553 Q1369.83 44.9097 1368.35 46.0164 Q1366.92 47.0821 1365.48 47.0821 Q1364.91 47.0821 1364.13 46.9591 Q1363.39 46.8362 1362.2 45.6885 Q1361.01 44.4998 1361.01 42.4093 Q1361.01 36.5479 1365.44 31.8751 Q1369.91 27.2023 1376.71 27.2023 Q1384.42 27.2023 1389.46 31.7931 Q1394.54 36.3429 1394.54 43.4751 Q1394.54 45.9754 1393.76 48.2708 Q1393.03 50.5252 1392 52.2878 Q1391.02 54.0503 1388.31 56.8785 Q1385.61 59.7068 1383.43 61.7153 Q1381.26 63.7238 1376.38 67.9866 L1367.49 76.6354 L1382.61 76.6354 Q1389.99 76.6354 1390.57 75.9796 Q1391.39 74.7909 1392.41 68.5195 L1394.54 68.5195 L1392.16 83.1117 L1361.01 83.1117 Z" fill="#000000" fill-rule="evenodd" fill-opacity="1" /><polyline clip-path="url(#clip953)" style="stroke:#0000ff; stroke-linecap:round; stroke-linejoin:round; stroke-width:8; stroke-opacity:0.75; fill:none" points="
  218.281,162.047 304.627,463.376 390.973,577.872 477.319,621.01 563.666,637.09 650.012,643 736.358,645.133 822.704,645.883 909.05,646.136 995.396,646.217 
  1081.74,646.24 1168.09,646.246 1254.43,646.246 1340.78,646.245 1427.13,646.244 1513.47,646.244 1599.82,646.244 1686.16,646.244 1772.51,646.243 1858.86,646.243 
  1945.2,646.243 2031.55,646.243 2117.89,646.243 2204.24,646.243 2290.59,646.243 
  "/>
<polyline clip-path="url(#clip953)" style="stroke:#008000; stroke-linecap:round; stroke-linejoin:round; stroke-width:8; stroke-opacity:0.75; fill:none" points="
  218.281,1447.87 304.627,973.163 390.973,779.986 477.319,701.142 563.666,668.859 650.012,655.596 736.358,650.126 822.704,647.862 909.05,646.921 995.396,646.529 
  1081.74,646.364 1168.09,646.295 1254.43,646.265 1340.78,646.253 1427.13,646.247 1513.47,646.245 1599.82,646.244 1686.16,646.244 1772.51,646.244 1858.86,646.243 
  1945.2,646.243 2031.55,646.243 2117.89,646.243 2204.24,646.243 2290.59,646.243 
  "/>
<path clip-path="url(#clip950)" d="
M1634.04 324.425 L2279.53 324.425 L2279.53 168.905 L1634.04 168.905  Z
  " fill="#ffffff" fill-rule="evenodd" fill-opacity="1"/>
<polyline clip-path="url(#clip950)" style="stroke:#000000; stroke-linecap:round; stroke-linejoin:round; stroke-width:4; stroke-opacity:1; fill:none" points="
  1634.04,324.425 2279.53,324.425 2279.53,168.905 1634.04,168.905 1634.04,324.425 
  "/>
<polyline clip-path="url(#clip950)" style="stroke:#0000ff; stroke-linecap:round; stroke-linejoin:round; stroke-width:8; stroke-opacity:0.75; fill:none" points="
  1658.45,220.745 1804.89,220.745 
  "/>
<path clip-path="url(#clip950)" d="M1829.3 212.099 L1833.56 212.099 L1833.56 238.025 L1829.3 238.025 L1829.3 212.099 M1829.3 202.006 L1833.56 202.006 L1833.56 207.4 L1829.3 207.4 L1829.3 202.006 Z" fill="#000000" fill-rule="evenodd" fill-opacity="1" /><path clip-path="url(#clip950)" d="M1864.02 222.377 L1864.02 238.025 L1859.76 238.025 L1859.76 222.515 Q1859.76 218.835 1858.32 217.006 Q1856.89 215.178 1854.02 215.178 Q1850.57 215.178 1848.58 217.377 Q1846.59 219.576 1846.59 223.372 L1846.59 238.025 L1842.31 238.025 L1842.31 212.099 L1846.59 212.099 L1846.59 216.127 Q1848.12 213.789 1850.18 212.631 Q1852.26 211.474 1854.97 211.474 Q1859.43 211.474 1861.73 214.252 Q1864.02 217.006 1864.02 222.377 Z" fill="#000000" fill-rule="evenodd" fill-opacity="1" /><path clip-path="url(#clip950)" d="M1869.46 212.099 L1873.97 212.099 L1882.07 233.858 L1890.18 212.099 L1894.69 212.099 L1884.97 238.025 L1879.18 238.025 L1869.46 212.099 Z" fill="#000000" fill-rule="evenodd" fill-opacity="1" /><path clip-path="url(#clip950)" d="M1922.74 223.997 L1922.74 226.08 L1903.16 226.08 Q1903.44 230.478 1905.8 232.793 Q1908.18 235.085 1912.42 235.085 Q1914.87 235.085 1917.17 234.483 Q1919.48 233.881 1921.75 232.677 L1921.75 236.705 Q1919.46 237.677 1917.05 238.187 Q1914.64 238.696 1912.17 238.696 Q1905.96 238.696 1902.33 235.085 Q1898.72 231.474 1898.72 225.316 Q1898.72 218.951 1902.14 215.224 Q1905.59 211.474 1911.43 211.474 Q1916.66 211.474 1919.69 214.853 Q1922.74 218.21 1922.74 223.997 M1918.49 222.747 Q1918.44 219.252 1916.52 217.168 Q1914.62 215.085 1911.47 215.085 Q1907.91 215.085 1905.75 217.099 Q1903.62 219.113 1903.3 222.77 L1918.49 222.747 Z" fill="#000000" fill-rule="evenodd" fill-opacity="1" /><path clip-path="url(#clip950)" d="M1951.29 222.377 L1951.29 238.025 L1947.03 238.025 L1947.03 222.515 Q1947.03 218.835 1945.59 217.006 Q1944.16 215.178 1941.29 215.178 Q1937.84 215.178 1935.85 217.377 Q1933.86 219.576 1933.86 223.372 L1933.86 238.025 L1929.57 238.025 L1929.57 212.099 L1933.86 212.099 L1933.86 216.127 Q1935.38 213.789 1937.44 212.631 Q1939.53 211.474 1942.24 211.474 Q1946.7 211.474 1948.99 214.252 Q1951.29 217.006 1951.29 222.377 Z" fill="#000000" fill-rule="evenodd" fill-opacity="1" /><path clip-path="url(#clip950)" d="M1963.99 204.738 L1963.99 212.099 L1972.77 212.099 L1972.77 215.409 L1963.99 215.409 L1963.99 229.483 Q1963.99 232.654 1964.85 233.557 Q1965.73 234.46 1968.39 234.46 L1972.77 234.46 L1972.77 238.025 L1968.39 238.025 Q1963.46 238.025 1961.59 236.196 Q1959.71 234.344 1959.71 229.483 L1959.71 215.409 L1956.59 215.409 L1956.59 212.099 L1959.71 212.099 L1959.71 204.738 L1963.99 204.738 Z" fill="#000000" fill-rule="evenodd" fill-opacity="1" /><path clip-path="url(#clip950)" d="M1988.42 215.085 Q1984.99 215.085 1983 217.77 Q1981.01 220.432 1981.01 225.085 Q1981.01 229.738 1982.98 232.423 Q1984.97 235.085 1988.42 235.085 Q1991.82 235.085 1993.81 232.4 Q1995.8 229.715 1995.8 225.085 Q1995.8 220.478 1993.81 217.793 Q1991.82 215.085 1988.42 215.085 M1988.42 211.474 Q1993.97 211.474 1997.14 215.085 Q2000.31 218.696 2000.31 225.085 Q2000.31 231.451 1997.14 235.085 Q1993.97 238.696 1988.42 238.696 Q1982.84 238.696 1979.67 235.085 Q1976.52 231.451 1976.52 225.085 Q1976.52 218.696 1979.67 215.085 Q1982.84 211.474 1988.42 211.474 Z" fill="#000000" fill-rule="evenodd" fill-opacity="1" /><path clip-path="url(#clip950)" d="M2022.4 216.08 Q2021.68 215.664 2020.82 215.478 Q2019.99 215.27 2018.97 215.27 Q2015.36 215.27 2013.42 217.631 Q2011.49 219.969 2011.49 224.367 L2011.49 238.025 L2007.21 238.025 L2007.21 212.099 L2011.49 212.099 L2011.49 216.127 Q2012.84 213.766 2014.99 212.631 Q2017.14 211.474 2020.22 211.474 Q2020.66 211.474 2021.19 211.543 Q2021.73 211.59 2022.37 211.705 L2022.4 216.08 Z" fill="#000000" fill-rule="evenodd" fill-opacity="1" /><path clip-path="url(#clip950)" d="M2026.86 212.099 L2031.12 212.099 L2031.12 238.025 L2026.86 238.025 L2026.86 212.099 M2026.86 202.006 L2031.12 202.006 L2031.12 207.4 L2026.86 207.4 L2026.86 202.006 Z" fill="#000000" fill-rule="evenodd" fill-opacity="1" /><path clip-path="url(#clip950)" d="M2062.21 223.997 L2062.21 226.08 L2042.63 226.08 Q2042.91 230.478 2045.27 232.793 Q2047.65 235.085 2051.89 235.085 Q2054.34 235.085 2056.63 234.483 Q2058.95 233.881 2061.22 232.677 L2061.22 236.705 Q2058.92 237.677 2056.52 238.187 Q2054.11 238.696 2051.63 238.696 Q2045.43 238.696 2041.8 235.085 Q2038.18 231.474 2038.18 225.316 Q2038.18 218.951 2041.61 215.224 Q2045.06 211.474 2050.89 211.474 Q2056.12 211.474 2059.16 214.853 Q2062.21 218.21 2062.21 223.997 M2057.95 222.747 Q2057.91 219.252 2055.98 217.168 Q2054.09 215.085 2050.94 215.085 Q2047.37 215.085 2045.22 217.099 Q2043.09 219.113 2042.77 222.77 L2057.95 222.747 Z" fill="#000000" fill-rule="evenodd" fill-opacity="1" /><path clip-path="url(#clip950)" d="M2085.73 212.863 L2085.73 216.891 Q2083.92 215.965 2081.98 215.502 Q2080.04 215.039 2077.95 215.039 Q2074.78 215.039 2073.18 216.011 Q2071.61 216.983 2071.61 218.928 Q2071.61 220.409 2072.74 221.265 Q2073.88 222.099 2077.3 222.863 L2078.76 223.187 Q2083.3 224.159 2085.2 225.941 Q2087.12 227.701 2087.12 230.872 Q2087.12 234.483 2084.25 236.589 Q2081.4 238.696 2076.4 238.696 Q2074.32 238.696 2072.05 238.279 Q2069.8 237.886 2067.3 237.076 L2067.3 232.677 Q2069.67 233.904 2071.96 234.529 Q2074.25 235.131 2076.49 235.131 Q2079.5 235.131 2081.12 234.113 Q2082.74 233.071 2082.74 231.196 Q2082.74 229.46 2081.56 228.534 Q2080.41 227.608 2076.45 226.752 L2074.97 226.404 Q2071.01 225.571 2069.25 223.858 Q2067.49 222.122 2067.49 219.113 Q2067.49 215.455 2070.08 213.465 Q2072.67 211.474 2077.44 211.474 Q2079.8 211.474 2081.89 211.821 Q2083.97 212.168 2085.73 212.863 Z" fill="#000000" fill-rule="evenodd" fill-opacity="1" /><path clip-path="url(#clip950)" d="M2094.99 232.145 L2099.87 232.145 L2099.87 236.127 L2096.08 243.534 L2093.09 243.534 L2094.99 236.127 L2094.99 232.145 Z" fill="#000000" fill-rule="evenodd" fill-opacity="1" /><path clip-path="url(#clip950)" d="M2137.16 202.006 L2137.16 205.548 L2133.09 205.548 Q2130.8 205.548 2129.9 206.474 Q2129.02 207.4 2129.02 209.807 L2129.02 212.099 L2136.03 212.099 L2136.03 215.409 L2129.02 215.409 L2129.02 238.025 L2124.73 238.025 L2124.73 215.409 L2120.66 215.409 L2120.66 212.099 L2124.73 212.099 L2124.73 210.293 Q2124.73 205.965 2126.75 203.997 Q2128.76 202.006 2133.14 202.006 L2137.16 202.006 Z" fill="#000000" fill-rule="evenodd" fill-opacity="1" /><path clip-path="url(#clip950)" d="M2140.73 212.099 L2144.99 212.099 L2144.99 238.025 L2140.73 238.025 L2140.73 212.099 M2140.73 202.006 L2144.99 202.006 L2144.99 207.4 L2140.73 207.4 L2140.73 202.006 Z" fill="#000000" fill-rule="evenodd" fill-opacity="1" /><path clip-path="url(#clip950)" d="M2168.92 216.08 Q2168.21 215.664 2167.35 215.478 Q2166.52 215.27 2165.5 215.27 Q2161.89 215.27 2159.94 217.631 Q2158.02 219.969 2158.02 224.367 L2158.02 238.025 L2153.74 238.025 L2153.74 212.099 L2158.02 212.099 L2158.02 216.127 Q2159.36 213.766 2161.52 212.631 Q2163.67 211.474 2166.75 211.474 Q2167.19 211.474 2167.72 211.543 Q2168.25 211.59 2168.9 211.705 L2168.92 216.08 Z" fill="#000000" fill-rule="evenodd" fill-opacity="1" /><path clip-path="url(#clip950)" d="M2192.74 217.076 Q2194.34 214.205 2196.56 212.84 Q2198.79 211.474 2201.79 211.474 Q2205.85 211.474 2208.04 214.321 Q2210.24 217.145 2210.24 222.377 L2210.24 238.025 L2205.96 238.025 L2205.96 222.515 Q2205.96 218.789 2204.64 216.983 Q2203.32 215.178 2200.61 215.178 Q2197.3 215.178 2195.38 217.377 Q2193.46 219.576 2193.46 223.372 L2193.46 238.025 L2189.18 238.025 L2189.18 222.515 Q2189.18 218.765 2187.86 216.983 Q2186.54 215.178 2183.79 215.178 Q2180.52 215.178 2178.6 217.4 Q2176.68 219.599 2176.68 223.372 L2176.68 238.025 L2172.4 238.025 L2172.4 212.099 L2176.68 212.099 L2176.68 216.127 Q2178.14 213.742 2180.17 212.608 Q2182.21 211.474 2185.01 211.474 Q2187.84 211.474 2189.8 212.909 Q2191.79 214.344 2192.74 217.076 Z" fill="#000000" fill-rule="evenodd" fill-opacity="1" /><path clip-path="url(#clip950)" d="M2235.22 234.089 L2242.86 234.089 L2242.86 207.724 L2234.55 209.391 L2234.55 205.131 L2242.81 203.465 L2247.49 203.465 L2247.49 234.089 L2255.13 234.089 L2255.13 238.025 L2235.22 238.025 L2235.22 234.089 Z" fill="#000000" fill-rule="evenodd" fill-opacity="1" /><polyline clip-path="url(#clip950)" style="stroke:#008000; stroke-linecap:round; stroke-linejoin:round; stroke-width:8; stroke-opacity:0.75; fill:none" points="
  1658.45,272.585 1804.89,272.585 
  "/>
<path clip-path="url(#clip950)" d="M1829.3 263.939 L1833.56 263.939 L1833.56 289.865 L1829.3 289.865 L1829.3 263.939 M1829.3 253.846 L1833.56 253.846 L1833.56 259.24 L1829.3 259.24 L1829.3 253.846 Z" fill="#000000" fill-rule="evenodd" fill-opacity="1" /><path clip-path="url(#clip950)" d="M1864.02 274.217 L1864.02 289.865 L1859.76 289.865 L1859.76 274.355 Q1859.76 270.675 1858.32 268.846 Q1856.89 267.018 1854.02 267.018 Q1850.57 267.018 1848.58 269.217 Q1846.59 271.416 1846.59 275.212 L1846.59 289.865 L1842.31 289.865 L1842.31 263.939 L1846.59 263.939 L1846.59 267.967 Q1848.12 265.629 1850.18 264.471 Q1852.26 263.314 1854.97 263.314 Q1859.43 263.314 1861.73 266.092 Q1864.02 268.846 1864.02 274.217 Z" fill="#000000" fill-rule="evenodd" fill-opacity="1" /><path clip-path="url(#clip950)" d="M1869.46 263.939 L1873.97 263.939 L1882.07 285.698 L1890.18 263.939 L1894.69 263.939 L1884.97 289.865 L1879.18 289.865 L1869.46 263.939 Z" fill="#000000" fill-rule="evenodd" fill-opacity="1" /><path clip-path="url(#clip950)" d="M1922.74 275.837 L1922.74 277.92 L1903.16 277.92 Q1903.44 282.318 1905.8 284.633 Q1908.18 286.925 1912.42 286.925 Q1914.87 286.925 1917.17 286.323 Q1919.48 285.721 1921.75 284.517 L1921.75 288.545 Q1919.46 289.517 1917.05 290.027 Q1914.64 290.536 1912.17 290.536 Q1905.96 290.536 1902.33 286.925 Q1898.72 283.314 1898.72 277.156 Q1898.72 270.791 1902.14 267.064 Q1905.59 263.314 1911.43 263.314 Q1916.66 263.314 1919.69 266.693 Q1922.74 270.05 1922.74 275.837 M1918.49 274.587 Q1918.44 271.092 1916.52 269.008 Q1914.62 266.925 1911.47 266.925 Q1907.91 266.925 1905.75 268.939 Q1903.62 270.953 1903.3 274.61 L1918.49 274.587 Z" fill="#000000" fill-rule="evenodd" fill-opacity="1" /><path clip-path="url(#clip950)" d="M1951.29 274.217 L1951.29 289.865 L1947.03 289.865 L1947.03 274.355 Q1947.03 270.675 1945.59 268.846 Q1944.16 267.018 1941.29 267.018 Q1937.84 267.018 1935.85 269.217 Q1933.86 271.416 1933.86 275.212 L1933.86 289.865 L1929.57 289.865 L1929.57 263.939 L1933.86 263.939 L1933.86 267.967 Q1935.38 265.629 1937.44 264.471 Q1939.53 263.314 1942.24 263.314 Q1946.7 263.314 1948.99 266.092 Q1951.29 268.846 1951.29 274.217 Z" fill="#000000" fill-rule="evenodd" fill-opacity="1" /><path clip-path="url(#clip950)" d="M1963.99 256.578 L1963.99 263.939 L1972.77 263.939 L1972.77 267.249 L1963.99 267.249 L1963.99 281.323 Q1963.99 284.494 1964.85 285.397 Q1965.73 286.3 1968.39 286.3 L1972.77 286.3 L1972.77 289.865 L1968.39 289.865 Q1963.46 289.865 1961.59 288.036 Q1959.71 286.184 1959.71 281.323 L1959.71 267.249 L1956.59 267.249 L1956.59 263.939 L1959.71 263.939 L1959.71 256.578 L1963.99 256.578 Z" fill="#000000" fill-rule="evenodd" fill-opacity="1" /><path clip-path="url(#clip950)" d="M1988.42 266.925 Q1984.99 266.925 1983 269.61 Q1981.01 272.272 1981.01 276.925 Q1981.01 281.578 1982.98 284.263 Q1984.97 286.925 1988.42 286.925 Q1991.82 286.925 1993.81 284.24 Q1995.8 281.555 1995.8 276.925 Q1995.8 272.318 1993.81 269.633 Q1991.82 266.925 1988.42 266.925 M1988.42 263.314 Q1993.97 263.314 1997.14 266.925 Q2000.31 270.536 2000.31 276.925 Q2000.31 283.291 1997.14 286.925 Q1993.97 290.536 1988.42 290.536 Q1982.84 290.536 1979.67 286.925 Q1976.52 283.291 1976.52 276.925 Q1976.52 270.536 1979.67 266.925 Q1982.84 263.314 1988.42 263.314 Z" fill="#000000" fill-rule="evenodd" fill-opacity="1" /><path clip-path="url(#clip950)" d="M2022.4 267.92 Q2021.68 267.504 2020.82 267.318 Q2019.99 267.11 2018.97 267.11 Q2015.36 267.11 2013.42 269.471 Q2011.49 271.809 2011.49 276.207 L2011.49 289.865 L2007.21 289.865 L2007.21 263.939 L2011.49 263.939 L2011.49 267.967 Q2012.84 265.606 2014.99 264.471 Q2017.14 263.314 2020.22 263.314 Q2020.66 263.314 2021.19 263.383 Q2021.73 263.43 2022.37 263.545 L2022.4 267.92 Z" fill="#000000" fill-rule="evenodd" fill-opacity="1" /><path clip-path="url(#clip950)" d="M2026.86 263.939 L2031.12 263.939 L2031.12 289.865 L2026.86 289.865 L2026.86 263.939 M2026.86 253.846 L2031.12 253.846 L2031.12 259.24 L2026.86 259.24 L2026.86 253.846 Z" fill="#000000" fill-rule="evenodd" fill-opacity="1" /><path clip-path="url(#clip950)" d="M2062.21 275.837 L2062.21 277.92 L2042.63 277.92 Q2042.91 282.318 2045.27 284.633 Q2047.65 286.925 2051.89 286.925 Q2054.34 286.925 2056.63 286.323 Q2058.95 285.721 2061.22 284.517 L2061.22 288.545 Q2058.92 289.517 2056.52 290.027 Q2054.11 290.536 2051.63 290.536 Q2045.43 290.536 2041.8 286.925 Q2038.18 283.314 2038.18 277.156 Q2038.18 270.791 2041.61 267.064 Q2045.06 263.314 2050.89 263.314 Q2056.12 263.314 2059.16 266.693 Q2062.21 270.05 2062.21 275.837 M2057.95 274.587 Q2057.91 271.092 2055.98 269.008 Q2054.09 266.925 2050.94 266.925 Q2047.37 266.925 2045.22 268.939 Q2043.09 270.953 2042.77 274.61 L2057.95 274.587 Z" fill="#000000" fill-rule="evenodd" fill-opacity="1" /><path clip-path="url(#clip950)" d="M2085.73 264.703 L2085.73 268.731 Q2083.92 267.805 2081.98 267.342 Q2080.04 266.879 2077.95 266.879 Q2074.78 266.879 2073.18 267.851 Q2071.61 268.823 2071.61 270.768 Q2071.61 272.249 2072.74 273.105 Q2073.88 273.939 2077.3 274.703 L2078.76 275.027 Q2083.3 275.999 2085.2 277.781 Q2087.12 279.541 2087.12 282.712 Q2087.12 286.323 2084.25 288.429 Q2081.4 290.536 2076.4 290.536 Q2074.32 290.536 2072.05 290.119 Q2069.8 289.726 2067.3 288.916 L2067.3 284.517 Q2069.67 285.744 2071.96 286.369 Q2074.25 286.971 2076.49 286.971 Q2079.5 286.971 2081.12 285.953 Q2082.74 284.911 2082.74 283.036 Q2082.74 281.3 2081.56 280.374 Q2080.41 279.448 2076.45 278.592 L2074.97 278.244 Q2071.01 277.411 2069.25 275.698 Q2067.49 273.962 2067.49 270.953 Q2067.49 267.295 2070.08 265.305 Q2072.67 263.314 2077.44 263.314 Q2079.8 263.314 2081.89 263.661 Q2083.97 264.008 2085.73 264.703 Z" fill="#000000" fill-rule="evenodd" fill-opacity="1" /><path clip-path="url(#clip950)" d="M2094.99 283.985 L2099.87 283.985 L2099.87 287.967 L2096.08 295.374 L2093.09 295.374 L2094.99 287.967 L2094.99 283.985 Z" fill="#000000" fill-rule="evenodd" fill-opacity="1" /><path clip-path="url(#clip950)" d="M2137.16 253.846 L2137.16 257.388 L2133.09 257.388 Q2130.8 257.388 2129.9 258.314 Q2129.02 259.24 2129.02 261.647 L2129.02 263.939 L2136.03 263.939 L2136.03 267.249 L2129.02 267.249 L2129.02 289.865 L2124.73 289.865 L2124.73 267.249 L2120.66 267.249 L2120.66 263.939 L2124.73 263.939 L2124.73 262.133 Q2124.73 257.805 2126.75 255.837 Q2128.76 253.846 2133.14 253.846 L2137.16 253.846 Z" fill="#000000" fill-rule="evenodd" fill-opacity="1" /><path clip-path="url(#clip950)" d="M2140.73 263.939 L2144.99 263.939 L2144.99 289.865 L2140.73 289.865 L2140.73 263.939 M2140.73 253.846 L2144.99 253.846 L2144.99 259.24 L2140.73 259.24 L2140.73 253.846 Z" fill="#000000" fill-rule="evenodd" fill-opacity="1" /><path clip-path="url(#clip950)" d="M2168.92 267.92 Q2168.21 267.504 2167.35 267.318 Q2166.52 267.11 2165.5 267.11 Q2161.89 267.11 2159.94 269.471 Q2158.02 271.809 2158.02 276.207 L2158.02 289.865 L2153.74 289.865 L2153.74 263.939 L2158.02 263.939 L2158.02 267.967 Q2159.36 265.606 2161.52 264.471 Q2163.67 263.314 2166.75 263.314 Q2167.19 263.314 2167.72 263.383 Q2168.25 263.43 2168.9 263.545 L2168.92 267.92 Z" fill="#000000" fill-rule="evenodd" fill-opacity="1" /><path clip-path="url(#clip950)" d="M2192.74 268.916 Q2194.34 266.045 2196.56 264.68 Q2198.79 263.314 2201.79 263.314 Q2205.85 263.314 2208.04 266.161 Q2210.24 268.985 2210.24 274.217 L2210.24 289.865 L2205.96 289.865 L2205.96 274.355 Q2205.96 270.629 2204.64 268.823 Q2203.32 267.018 2200.61 267.018 Q2197.3 267.018 2195.38 269.217 Q2193.46 271.416 2193.46 275.212 L2193.46 289.865 L2189.18 289.865 L2189.18 274.355 Q2189.18 270.605 2187.86 268.823 Q2186.54 267.018 2183.79 267.018 Q2180.52 267.018 2178.6 269.24 Q2176.68 271.439 2176.68 275.212 L2176.68 289.865 L2172.4 289.865 L2172.4 263.939 L2176.68 263.939 L2176.68 267.967 Q2178.14 265.582 2180.17 264.448 Q2182.21 263.314 2185.01 263.314 Q2187.84 263.314 2189.8 264.749 Q2191.79 266.184 2192.74 268.916 Z" fill="#000000" fill-rule="evenodd" fill-opacity="1" /><path clip-path="url(#clip950)" d="M2238.44 285.929 L2254.76 285.929 L2254.76 289.865 L2232.81 289.865 L2232.81 285.929 Q2235.47 283.175 2240.06 278.545 Q2244.66 273.893 2245.84 272.55 Q2248.09 270.027 2248.97 268.291 Q2249.87 266.531 2249.87 264.842 Q2249.87 262.087 2247.93 260.351 Q2246.01 258.615 2242.91 258.615 Q2240.71 258.615 2238.25 259.379 Q2235.82 260.143 2233.04 261.694 L2233.04 256.971 Q2235.87 255.837 2238.32 255.258 Q2240.78 254.68 2242.81 254.68 Q2248.18 254.68 2251.38 257.365 Q2254.57 260.05 2254.57 264.541 Q2254.57 266.67 2253.76 268.592 Q2252.97 270.49 2250.87 273.082 Q2250.29 273.754 2247.19 276.971 Q2244.09 280.166 2238.44 285.929 Z" fill="#000000" fill-rule="evenodd" fill-opacity="1" /></svg>
