<?xml version="1.0" encoding="utf-8"?>
<svg xmlns="http://www.w3.org/2000/svg" xmlns:xlink="http://www.w3.org/1999/xlink" width="600" height="400" viewBox="0 0 2400 1600">
<defs>
  <clipPath id="clip580">
    <rect x="0" y="0" width="2400" height="1600"/>
  </clipPath>
</defs>
<path clip-path="url(#clip580)" d="
M0 1600 L2400 1600 L2400 0 L0 0  Z
  " fill="#ffffff" fill-rule="evenodd" fill-opacity="1"/>
<defs>
  <clipPath id="clip581">
    <rect x="480" y="0" width="1681" height="1600"/>
  </clipPath>
</defs>
<path clip-path="url(#clip580)" d="
M193.936 686.448 L1160.29 686.448 L1160.29 47.2441 L193.936 47.2441  Z
  " fill="#ffffff" fill-rule="evenodd" fill-opacity="1"/>
<defs>
  <clipPath id="clip582">
    <rect x="193" y="47" width="967" height="640"/>
  </clipPath>
</defs>
<polyline clip-path="url(#clip582)" style="stroke:#000000; stroke-linecap:butt; stroke-linejoin:round; stroke-width:2; stroke-opacity:0.1; fill:none" points="
  209.746,686.448 209.746,47.2441 
  "/>
<polyline clip-path="url(#clip582)" style="stroke:#000000; stroke-linecap:butt; stroke-linejoin:round; stroke-width:2; stroke-opacity:0.1; fill:none" points="
  440.545,686.448 440.545,47.2441 
  "/>
<polyline clip-path="url(#clip582)" style="stroke:#000000; stroke-linecap:butt; stroke-linejoin:round; stroke-width:2; stroke-opacity:0.1; fill:none" points="
  671.343,686.448 671.343,47.2441 
  "/>
<polyline clip-path="url(#clip582)" style="stroke:#000000; stroke-linecap:butt; stroke-linejoin:round; stroke-width:2; stroke-opacity:0.1; fill:none" points="
  902.142,686.448 902.142,47.2441 
  "/>
<polyline clip-path="url(#clip582)" style="stroke:#000000; stroke-linecap:butt; stroke-linejoin:round; stroke-width:2; stroke-opacity:0.1; fill:none" points="
  1132.94,686.448 1132.94,47.2441 
  "/>
<polyline clip-path="url(#clip580)" style="stroke:#000000; stroke-linecap:butt; stroke-linejoin:round; stroke-width:4; stroke-opacity:1; fill:none" points="
  193.936,686.448 1160.29,686.448 
  "/>
<polyline clip-path="url(#clip580)" style="stroke:#000000; stroke-linecap:butt; stroke-linejoin:round; stroke-width:4; stroke-opacity:1; fill:none" points="
  209.746,686.448 209.746,667.55 
  "/>
<polyline clip-path="url(#clip580)" style="stroke:#000000; stroke-linecap:butt; stroke-linejoin:round; stroke-width:4; stroke-opacity:1; fill:none" points="
  440.545,686.448 440.545,667.55 
  "/>
<polyline clip-path="url(#clip580)" style="stroke:#000000; stroke-linecap:butt; stroke-linejoin:round; stroke-width:4; stroke-opacity:1; fill:none" points="
  671.343,686.448 671.343,667.55 
  "/>
<polyline clip-path="url(#clip580)" style="stroke:#000000; stroke-linecap:butt; stroke-linejoin:round; stroke-width:4; stroke-opacity:1; fill:none" points="
  902.142,686.448 902.142,667.55 
  "/>
<polyline clip-path="url(#clip580)" style="stroke:#000000; stroke-linecap:butt; stroke-linejoin:round; stroke-width:4; stroke-opacity:1; fill:none" points="
  1132.94,686.448 1132.94,667.55 
  "/>
<path clip-path="url(#clip580)" d="M209.746 717.367 Q206.135 717.367 204.306 720.931 Q202.5 724.473 202.5 731.603 Q202.5 738.709 204.306 742.274 Q206.135 745.815 209.746 745.815 Q213.38 745.815 215.186 742.274 Q217.014 738.709 217.014 731.603 Q217.014 724.473 215.186 720.931 Q213.38 717.367 209.746 717.367 M209.746 713.663 Q215.556 713.663 218.611 718.269 Q221.69 722.853 221.69 731.603 Q221.69 740.329 218.611 744.936 Q215.556 749.519 209.746 749.519 Q203.936 749.519 200.857 744.936 Q197.801 740.329 197.801 731.603 Q197.801 722.853 200.857 718.269 Q203.936 713.663 209.746 713.663 Z" fill="#000000" fill-rule="evenodd" fill-opacity="1" /><path clip-path="url(#clip580)" d="M419.318 744.913 L435.637 744.913 L435.637 748.848 L413.693 748.848 L413.693 744.913 Q416.355 742.158 420.938 737.528 Q425.545 732.876 426.725 731.533 Q428.971 729.01 429.85 727.274 Q430.753 725.515 430.753 723.825 Q430.753 721.07 428.808 719.334 Q426.887 717.598 423.785 717.598 Q421.586 717.598 419.133 718.362 Q416.702 719.126 413.924 720.677 L413.924 715.955 Q416.748 714.82 419.202 714.242 Q421.656 713.663 423.693 713.663 Q429.063 713.663 432.258 716.348 Q435.452 719.033 435.452 723.524 Q435.452 725.654 434.642 727.575 Q433.855 729.473 431.748 732.066 Q431.17 732.737 428.068 735.954 Q424.966 739.149 419.318 744.913 Z" fill="#000000" fill-rule="evenodd" fill-opacity="1" /><path clip-path="url(#clip580)" d="M455.452 717.367 Q451.841 717.367 450.012 720.931 Q448.207 724.473 448.207 731.603 Q448.207 738.709 450.012 742.274 Q451.841 745.815 455.452 745.815 Q459.086 745.815 460.892 742.274 Q462.72 738.709 462.72 731.603 Q462.72 724.473 460.892 720.931 Q459.086 717.367 455.452 717.367 M455.452 713.663 Q461.262 713.663 464.318 718.269 Q467.396 722.853 467.396 731.603 Q467.396 740.329 464.318 744.936 Q461.262 749.519 455.452 749.519 Q449.642 749.519 446.563 744.936 Q443.507 740.329 443.507 731.603 Q443.507 722.853 446.563 718.269 Q449.642 713.663 455.452 713.663 Z" fill="#000000" fill-rule="evenodd" fill-opacity="1" /><path clip-path="url(#clip580)" d="M659.515 718.362 L647.709 736.811 L659.515 736.811 L659.515 718.362 M658.288 714.288 L664.167 714.288 L664.167 736.811 L669.098 736.811 L669.098 740.7 L664.167 740.7 L664.167 748.848 L659.515 748.848 L659.515 740.7 L643.913 740.7 L643.913 736.186 L658.288 714.288 Z" fill="#000000" fill-rule="evenodd" fill-opacity="1" /><path clip-path="url(#clip580)" d="M686.829 717.367 Q683.218 717.367 681.39 720.931 Q679.584 724.473 679.584 731.603 Q679.584 738.709 681.39 742.274 Q683.218 745.815 686.829 745.815 Q690.464 745.815 692.269 742.274 Q694.098 738.709 694.098 731.603 Q694.098 724.473 692.269 720.931 Q690.464 717.367 686.829 717.367 M686.829 713.663 Q692.64 713.663 695.695 718.269 Q698.774 722.853 698.774 731.603 Q698.774 740.329 695.695 744.936 Q692.64 749.519 686.829 749.519 Q681.019 749.519 677.941 744.936 Q674.885 740.329 674.885 731.603 Q674.885 722.853 677.941 718.269 Q681.019 713.663 686.829 713.663 Z" fill="#000000" fill-rule="evenodd" fill-opacity="1" /><path clip-path="url(#clip580)" d="M887.547 729.704 Q884.399 729.704 882.547 731.857 Q880.719 734.01 880.719 737.76 Q880.719 741.487 882.547 743.663 Q884.399 745.815 887.547 745.815 Q890.695 745.815 892.524 743.663 Q894.376 741.487 894.376 737.76 Q894.376 734.01 892.524 731.857 Q890.695 729.704 887.547 729.704 M896.83 715.052 L896.83 719.311 Q895.07 718.478 893.265 718.038 Q891.482 717.598 889.723 717.598 Q885.094 717.598 882.64 720.723 Q880.209 723.848 879.862 730.167 Q881.228 728.154 883.288 727.089 Q885.348 726.001 887.825 726.001 Q893.033 726.001 896.043 729.172 Q899.075 732.32 899.075 737.76 Q899.075 743.084 895.927 746.302 Q892.779 749.519 887.547 749.519 Q881.552 749.519 878.381 744.936 Q875.209 740.329 875.209 731.603 Q875.209 723.408 879.098 718.547 Q882.987 713.663 889.538 713.663 Q891.297 713.663 893.08 714.01 Q894.885 714.357 896.83 715.052 Z" fill="#000000" fill-rule="evenodd" fill-opacity="1" /><path clip-path="url(#clip580)" d="M917.13 717.367 Q913.519 717.367 911.691 720.931 Q909.885 724.473 909.885 731.603 Q909.885 738.709 911.691 742.274 Q913.519 745.815 917.13 745.815 Q920.765 745.815 922.57 742.274 Q924.399 738.709 924.399 731.603 Q924.399 724.473 922.57 720.931 Q920.765 717.367 917.13 717.367 M917.13 713.663 Q922.941 713.663 925.996 718.269 Q929.075 722.853 929.075 731.603 Q929.075 740.329 925.996 744.936 Q922.941 749.519 917.13 749.519 Q911.32 749.519 908.242 744.936 Q905.186 740.329 905.186 731.603 Q905.186 722.853 908.242 718.269 Q911.32 713.663 917.13 713.663 Z" fill="#000000" fill-rule="evenodd" fill-opacity="1" /><path clip-path="url(#clip580)" d="M1117.81 732.436 Q1114.48 732.436 1112.56 734.218 Q1110.66 736.001 1110.66 739.126 Q1110.66 742.251 1112.56 744.033 Q1114.48 745.815 1117.81 745.815 Q1121.15 745.815 1123.07 744.033 Q1124.99 742.228 1124.99 739.126 Q1124.99 736.001 1123.07 734.218 Q1121.17 732.436 1117.81 732.436 M1113.14 730.445 Q1110.13 729.704 1108.44 727.644 Q1106.77 725.584 1106.77 722.621 Q1106.77 718.478 1109.71 716.07 Q1112.67 713.663 1117.81 713.663 Q1122.98 713.663 1125.92 716.07 Q1128.86 718.478 1128.86 722.621 Q1128.86 725.584 1127.17 727.644 Q1125.5 729.704 1122.51 730.445 Q1125.89 731.232 1127.77 733.524 Q1129.67 735.816 1129.67 739.126 Q1129.67 744.149 1126.59 746.834 Q1123.53 749.519 1117.81 749.519 Q1112.1 749.519 1109.02 746.834 Q1105.96 744.149 1105.96 739.126 Q1105.96 735.816 1107.86 733.524 Q1109.76 731.232 1113.14 730.445 M1111.42 723.061 Q1111.42 725.746 1113.09 727.251 Q1114.78 728.755 1117.81 728.755 Q1120.82 728.755 1122.51 727.251 Q1124.23 725.746 1124.23 723.061 Q1124.23 720.376 1122.51 718.871 Q1120.82 717.367 1117.81 717.367 Q1114.78 717.367 1113.09 718.871 Q1111.42 720.376 1111.42 723.061 Z" fill="#000000" fill-rule="evenodd" fill-opacity="1" /><path clip-path="url(#clip580)" d="M1147.98 717.367 Q1144.36 717.367 1142.54 720.931 Q1140.73 724.473 1140.73 731.603 Q1140.73 738.709 1142.54 742.274 Q1144.36 745.815 1147.98 745.815 Q1151.61 745.815 1153.42 742.274 Q1155.24 738.709 1155.24 731.603 Q1155.24 724.473 1153.42 720.931 Q1151.61 717.367 1147.98 717.367 M1147.98 713.663 Q1153.79 713.663 1156.84 718.269 Q1159.92 722.853 1159.92 731.603 Q1159.92 740.329 1156.84 744.936 Q1153.79 749.519 1147.98 749.519 Q1142.17 749.519 1139.09 744.936 Q1136.03 740.329 1136.03 731.603 Q1136.03 722.853 1139.09 718.269 Q1142.17 713.663 1147.98 713.663 Z" fill="#000000" fill-rule="evenodd" fill-opacity="1" /><polyline clip-path="url(#clip582)" style="stroke:#000000; stroke-linecap:butt; stroke-linejoin:round; stroke-width:2; stroke-opacity:0.1; fill:none" points="
  193.936,651.473 1160.29,651.473 
  "/>
<polyline clip-path="url(#clip582)" style="stroke:#000000; stroke-linecap:butt; stroke-linejoin:round; stroke-width:2; stroke-opacity:0.1; fill:none" points="
  193.936,516.396 1160.29,516.396 
  "/>
<polyline clip-path="url(#clip582)" style="stroke:#000000; stroke-linecap:butt; stroke-linejoin:round; stroke-width:2; stroke-opacity:0.1; fill:none" points="
  193.936,381.319 1160.29,381.319 
  "/>
<polyline clip-path="url(#clip582)" style="stroke:#000000; stroke-linecap:butt; stroke-linejoin:round; stroke-width:2; stroke-opacity:0.1; fill:none" points="
  193.936,246.241 1160.29,246.241 
  "/>
<polyline clip-path="url(#clip582)" style="stroke:#000000; stroke-linecap:butt; stroke-linejoin:round; stroke-width:2; stroke-opacity:0.1; fill:none" points="
  193.936,111.164 1160.29,111.164 
  "/>
<polyline clip-path="url(#clip580)" style="stroke:#000000; stroke-linecap:butt; stroke-linejoin:round; stroke-width:4; stroke-opacity:1; fill:none" points="
  193.936,686.448 193.936,47.2441 
  "/>
<polyline clip-path="url(#clip580)" style="stroke:#000000; stroke-linecap:butt; stroke-linejoin:round; stroke-width:4; stroke-opacity:1; fill:none" points="
  193.936,651.473 212.834,651.473 
  "/>
<polyline clip-path="url(#clip580)" style="stroke:#000000; stroke-linecap:butt; stroke-linejoin:round; stroke-width:4; stroke-opacity:1; fill:none" points="
  193.936,516.396 212.834,516.396 
  "/>
<polyline clip-path="url(#clip580)" style="stroke:#000000; stroke-linecap:butt; stroke-linejoin:round; stroke-width:4; stroke-opacity:1; fill:none" points="
  193.936,381.319 212.834,381.319 
  "/>
<polyline clip-path="url(#clip580)" style="stroke:#000000; stroke-linecap:butt; stroke-linejoin:round; stroke-width:4; stroke-opacity:1; fill:none" points="
  193.936,246.241 212.834,246.241 
  "/>
<polyline clip-path="url(#clip580)" style="stroke:#000000; stroke-linecap:butt; stroke-linejoin:round; stroke-width:4; stroke-opacity:1; fill:none" points="
  193.936,111.164 212.834,111.164 
  "/>
<path clip-path="url(#clip580)" d="M51.9875 651.924 L81.6633 651.924 L81.6633 655.859 L51.9875 655.859 L51.9875 651.924 Z" fill="#000000" fill-rule="evenodd" fill-opacity="1" /><path clip-path="url(#clip580)" d="M92.566 664.817 L100.205 664.817 L100.205 638.452 L91.8947 640.118 L91.8947 635.859 L100.159 634.193 L104.834 634.193 L104.834 664.817 L112.473 664.817 L112.473 668.753 L92.566 668.753 L92.566 664.817 Z" fill="#000000" fill-rule="evenodd" fill-opacity="1" /><path clip-path="url(#clip580)" d="M121.918 662.873 L126.802 662.873 L126.802 668.753 L121.918 668.753 L121.918 662.873 Z" fill="#000000" fill-rule="evenodd" fill-opacity="1" /><path clip-path="url(#clip580)" d="M137.033 634.193 L155.39 634.193 L155.39 638.128 L141.316 638.128 L141.316 646.6 Q142.334 646.253 143.353 646.091 Q144.371 645.905 145.39 645.905 Q151.177 645.905 154.556 649.077 Q157.936 652.248 157.936 657.665 Q157.936 663.243 154.464 666.345 Q150.992 669.424 144.672 669.424 Q142.496 669.424 140.228 669.053 Q137.982 668.683 135.575 667.942 L135.575 663.243 Q137.658 664.378 139.881 664.933 Q142.103 665.489 144.58 665.489 Q148.584 665.489 150.922 663.382 Q153.26 661.276 153.26 657.665 Q153.26 654.054 150.922 651.947 Q148.584 649.841 144.58 649.841 Q142.705 649.841 140.83 650.257 Q138.978 650.674 137.033 651.554 L137.033 634.193 Z" fill="#000000" fill-rule="evenodd" fill-opacity="1" /><path clip-path="url(#clip580)" d="M50.9921 516.847 L80.6679 516.847 L80.6679 520.782 L50.9921 520.782 L50.9921 516.847 Z" fill="#000000" fill-rule="evenodd" fill-opacity="1" /><path clip-path="url(#clip580)" d="M91.5706 529.74 L99.2095 529.74 L99.2095 503.375 L90.8993 505.041 L90.8993 500.782 L99.1632 499.116 L103.839 499.116 L103.839 529.74 L111.478 529.74 L111.478 533.676 L91.5706 533.676 L91.5706 529.74 Z" fill="#000000" fill-rule="evenodd" fill-opacity="1" /><path clip-path="url(#clip580)" d="M120.922 527.796 L125.807 527.796 L125.807 533.676 L120.922 533.676 L120.922 527.796 Z" fill="#000000" fill-rule="evenodd" fill-opacity="1" /><path clip-path="url(#clip580)" d="M145.992 502.194 Q142.381 502.194 140.552 505.759 Q138.746 509.301 138.746 516.43 Q138.746 523.537 140.552 527.102 Q142.381 530.643 145.992 530.643 Q149.626 530.643 151.431 527.102 Q153.26 523.537 153.26 516.43 Q153.26 509.301 151.431 505.759 Q149.626 502.194 145.992 502.194 M145.992 498.491 Q151.802 498.491 154.857 503.097 Q157.936 507.68 157.936 516.43 Q157.936 525.157 154.857 529.764 Q151.802 534.347 145.992 534.347 Q140.181 534.347 137.103 529.764 Q134.047 525.157 134.047 516.43 Q134.047 507.68 137.103 503.097 Q140.181 498.491 145.992 498.491 Z" fill="#000000" fill-rule="evenodd" fill-opacity="1" /><path clip-path="url(#clip580)" d="M51.9875 381.77 L81.6633 381.77 L81.6633 385.705 L51.9875 385.705 L51.9875 381.77 Z" fill="#000000" fill-rule="evenodd" fill-opacity="1" /><path clip-path="url(#clip580)" d="M101.756 367.117 Q98.1447 367.117 96.316 370.682 Q94.5104 374.224 94.5104 381.353 Q94.5104 388.46 96.316 392.024 Q98.1447 395.566 101.756 395.566 Q105.39 395.566 107.196 392.024 Q109.024 388.46 109.024 381.353 Q109.024 374.224 107.196 370.682 Q105.39 367.117 101.756 367.117 M101.756 363.414 Q107.566 363.414 110.621 368.02 Q113.7 372.603 113.7 381.353 Q113.7 390.08 110.621 394.687 Q107.566 399.27 101.756 399.27 Q95.9456 399.27 92.8669 394.687 Q89.8114 390.08 89.8114 381.353 Q89.8114 372.603 92.8669 368.02 Q95.9456 363.414 101.756 363.414 Z" fill="#000000" fill-rule="evenodd" fill-opacity="1" /><path clip-path="url(#clip580)" d="M121.918 392.719 L126.802 392.719 L126.802 398.599 L121.918 398.599 L121.918 392.719 Z" fill="#000000" fill-rule="evenodd" fill-opacity="1" /><path clip-path="url(#clip580)" d="M137.033 364.039 L155.39 364.039 L155.39 367.974 L141.316 367.974 L141.316 376.446 Q142.334 376.099 143.353 375.937 Q144.371 375.751 145.39 375.751 Q151.177 375.751 154.556 378.923 Q157.936 382.094 157.936 387.511 Q157.936 393.089 154.464 396.191 Q150.992 399.27 144.672 399.27 Q142.496 399.27 140.228 398.899 Q137.982 398.529 135.575 397.788 L135.575 393.089 Q137.658 394.224 139.881 394.779 Q142.103 395.335 144.58 395.335 Q148.584 395.335 150.922 393.228 Q153.26 391.122 153.26 387.511 Q153.26 383.9 150.922 381.793 Q148.584 379.687 144.58 379.687 Q142.705 379.687 140.83 380.103 Q138.978 380.52 137.033 381.4 L137.033 364.039 Z" fill="#000000" fill-rule="evenodd" fill-opacity="1" /><path clip-path="url(#clip580)" d="M100.76 232.04 Q97.1493 232.04 95.3206 235.605 Q93.515 239.147 93.515 246.276 Q93.515 253.383 95.3206 256.947 Q97.1493 260.489 100.76 260.489 Q104.395 260.489 106.2 256.947 Q108.029 253.383 108.029 246.276 Q108.029 239.147 106.2 235.605 Q104.395 232.04 100.76 232.04 M100.76 228.337 Q106.571 228.337 109.626 232.943 Q112.705 237.526 112.705 246.276 Q112.705 255.003 109.626 259.609 Q106.571 264.193 100.76 264.193 Q94.9502 264.193 91.8715 259.609 Q88.816 255.003 88.816 246.276 Q88.816 237.526 91.8715 232.943 Q94.9502 228.337 100.76 228.337 Z" fill="#000000" fill-rule="evenodd" fill-opacity="1" /><path clip-path="url(#clip580)" d="M120.922 257.642 L125.807 257.642 L125.807 263.521 L120.922 263.521 L120.922 257.642 Z" fill="#000000" fill-rule="evenodd" fill-opacity="1" /><path clip-path="url(#clip580)" d="M145.992 232.04 Q142.381 232.04 140.552 235.605 Q138.746 239.147 138.746 246.276 Q138.746 253.383 140.552 256.947 Q142.381 260.489 145.992 260.489 Q149.626 260.489 151.431 256.947 Q153.26 253.383 153.26 246.276 Q153.26 239.147 151.431 235.605 Q149.626 232.04 145.992 232.04 M145.992 228.337 Q151.802 228.337 154.857 232.943 Q157.936 237.526 157.936 246.276 Q157.936 255.003 154.857 259.609 Q151.802 264.193 145.992 264.193 Q140.181 264.193 137.103 259.609 Q134.047 255.003 134.047 246.276 Q134.047 237.526 137.103 232.943 Q140.181 228.337 145.992 228.337 Z" fill="#000000" fill-rule="evenodd" fill-opacity="1" /><path clip-path="url(#clip580)" d="M101.756 96.9632 Q98.1447 96.9632 96.316 100.528 Q94.5104 104.07 94.5104 111.199 Q94.5104 118.306 96.316 121.87 Q98.1447 125.412 101.756 125.412 Q105.39 125.412 107.196 121.87 Q109.024 118.306 109.024 111.199 Q109.024 104.07 107.196 100.528 Q105.39 96.9632 101.756 96.9632 M101.756 93.2595 Q107.566 93.2595 110.621 97.8659 Q113.7 102.449 113.7 111.199 Q113.7 119.926 110.621 124.532 Q107.566 129.116 101.756 129.116 Q95.9456 129.116 92.8669 124.532 Q89.8114 119.926 89.8114 111.199 Q89.8114 102.449 92.8669 97.8659 Q95.9456 93.2595 101.756 93.2595 Z" fill="#000000" fill-rule="evenodd" fill-opacity="1" /><path clip-path="url(#clip580)" d="M121.918 122.565 L126.802 122.565 L126.802 128.444 L121.918 128.444 L121.918 122.565 Z" fill="#000000" fill-rule="evenodd" fill-opacity="1" /><path clip-path="url(#clip580)" d="M137.033 93.8845 L155.39 93.8845 L155.39 97.8196 L141.316 97.8196 L141.316 106.292 Q142.334 105.945 143.353 105.783 Q144.371 105.597 145.39 105.597 Q151.177 105.597 154.556 108.769 Q157.936 111.94 157.936 117.357 Q157.936 122.935 154.464 126.037 Q150.992 129.116 144.672 129.116 Q142.496 129.116 140.228 128.745 Q137.982 128.375 135.575 127.634 L135.575 122.935 Q137.658 124.069 139.881 124.625 Q142.103 125.181 144.58 125.181 Q148.584 125.181 150.922 123.074 Q153.26 120.968 153.26 117.357 Q153.26 113.745 150.922 111.639 Q148.584 109.533 144.58 109.533 Q142.705 109.533 140.83 109.949 Q138.978 110.366 137.033 111.245 L137.033 93.8845 Z" fill="#000000" fill-rule="evenodd" fill-opacity="1" /><polyline clip-path="url(#clip582)" style="stroke:#009af9; stroke-linecap:butt; stroke-linejoin:round; stroke-width:4; stroke-opacity:1; fill:none" points="
  221.286,306.544 232.826,306.544 244.366,306.544 255.905,306.544 267.445,246.241 278.985,185.939 290.525,246.241 302.065,246.241 313.605,246.241 325.145,246.241 
  336.685,306.544 348.225,246.241 359.765,246.241 371.305,246.241 382.845,306.544 394.385,306.544 405.925,366.846 417.465,427.148 429.005,487.45 440.545,487.45 
  452.084,487.45 463.624,547.753 475.164,547.753 486.704,608.055 498.244,547.753 509.784,547.753 521.324,547.753 532.864,547.753 544.404,487.45 555.944,487.45 
  567.484,487.45 579.024,487.45 590.564,547.753 602.104,487.45 613.644,487.45 625.184,608.055 636.724,668.357 648.263,608.055 659.803,608.055 671.343,547.753 
  682.883,608.055 694.423,608.055 705.963,608.055 717.503,547.753 729.043,608.055 740.583,608.055 752.123,366.846 763.663,366.846 775.203,306.544 786.743,246.241 
  798.283,246.241 809.823,306.544 821.363,306.544 832.902,306.544 844.442,306.544 855.982,306.544 867.522,366.846 879.062,427.148 890.602,366.846 902.142,246.241 
  913.682,306.544 925.222,306.544 936.762,366.846 948.302,366.846 959.842,306.544 971.382,246.241 982.922,185.939 994.462,185.939 1006,306.544 1017.54,366.846 
  1029.08,246.241 1040.62,246.241 1052.16,185.939 1063.7,125.637 1075.24,65.3348 1086.78,185.939 1098.32,125.637 1109.86,246.241 1121.4,246.241 1132.94,125.637 
  
  "/>
<path clip-path="url(#clip580)" d="
M948.484 172.231 L1128.08 172.231 L1128.08 68.5509 L948.484 68.5509  Z
  " fill="#ffffff" fill-rule="evenodd" fill-opacity="1"/>
<polyline clip-path="url(#clip580)" style="stroke:#000000; stroke-linecap:butt; stroke-linejoin:round; stroke-width:4; stroke-opacity:1; fill:none" points="
  948.484,172.231 1128.08,172.231 1128.08,68.5509 948.484,68.5509 948.484,172.231 
  "/>
<polyline clip-path="url(#clip580)" style="stroke:#009af9; stroke-linecap:butt; stroke-linejoin:round; stroke-width:4; stroke-opacity:1; fill:none" points="
  959.221,120.391 1023.65,120.391 
  "/>
<path clip-path="url(#clip580)" d="M1035.96 103.111 L1040.98 103.111 L1049.57 115.958 L1058.2 103.111 L1063.22 103.111 L1052.11 119.708 L1063.97 137.671 L1058.94 137.671 L1049.22 122.972 L1039.43 137.671 L1034.38 137.671 L1046.72 119.222 L1035.96 103.111 Z" fill="#000000" fill-rule="evenodd" fill-opacity="1" /><path clip-path="url(#clip580)" d="M1089.61 145.541 L1089.61 148.851 L1064.98 148.851 L1064.98 145.541 L1089.61 145.541 Z" fill="#000000" fill-rule="evenodd" fill-opacity="1" /><path clip-path="url(#clip580)" d="M1097.83 104.384 L1097.83 111.745 L1106.6 111.745 L1106.6 115.055 L1097.83 115.055 L1097.83 129.129 Q1097.83 132.301 1098.69 133.203 Q1099.57 134.106 1102.23 134.106 L1106.6 134.106 L1106.6 137.671 L1102.23 137.671 Q1097.3 137.671 1095.42 135.842 Q1093.55 133.99 1093.55 129.129 L1093.55 115.055 L1090.42 115.055 L1090.42 111.745 L1093.55 111.745 L1093.55 104.384 L1097.83 104.384 Z" fill="#000000" fill-rule="evenodd" fill-opacity="1" /><path clip-path="url(#clip580)" d="
M1386.4 686.448 L2352.76 686.448 L2352.76 47.2441 L1386.4 47.2441  Z
  " fill="#ffffff" fill-rule="evenodd" fill-opacity="1"/>
<defs>
  <clipPath id="clip583">
    <rect x="1386" y="47" width="967" height="640"/>
  </clipPath>
</defs>
<polyline clip-path="url(#clip583)" style="stroke:#000000; stroke-linecap:butt; stroke-linejoin:round; stroke-width:2; stroke-opacity:0.1; fill:none" points="
  1402.21,686.448 1402.21,47.2441 
  "/>
<polyline clip-path="url(#clip583)" style="stroke:#000000; stroke-linecap:butt; stroke-linejoin:round; stroke-width:2; stroke-opacity:0.1; fill:none" points="
  1633.01,686.448 1633.01,47.2441 
  "/>
<polyline clip-path="url(#clip583)" style="stroke:#000000; stroke-linecap:butt; stroke-linejoin:round; stroke-width:2; stroke-opacity:0.1; fill:none" points="
  1863.81,686.448 1863.81,47.2441 
  "/>
<polyline clip-path="url(#clip583)" style="stroke:#000000; stroke-linecap:butt; stroke-linejoin:round; stroke-width:2; stroke-opacity:0.1; fill:none" points="
  2094.61,686.448 2094.61,47.2441 
  "/>
<polyline clip-path="url(#clip583)" style="stroke:#000000; stroke-linecap:butt; stroke-linejoin:round; stroke-width:2; stroke-opacity:0.1; fill:none" points="
  2325.41,686.448 2325.41,47.2441 
  "/>
<polyline clip-path="url(#clip580)" style="stroke:#000000; stroke-linecap:butt; stroke-linejoin:round; stroke-width:4; stroke-opacity:1; fill:none" points="
  1386.4,686.448 2352.76,686.448 
  "/>
<polyline clip-path="url(#clip580)" style="stroke:#000000; stroke-linecap:butt; stroke-linejoin:round; stroke-width:4; stroke-opacity:1; fill:none" points="
  1402.21,686.448 1402.21,667.55 
  "/>
<polyline clip-path="url(#clip580)" style="stroke:#000000; stroke-linecap:butt; stroke-linejoin:round; stroke-width:4; stroke-opacity:1; fill:none" points="
  1633.01,686.448 1633.01,667.55 
  "/>
<polyline clip-path="url(#clip580)" style="stroke:#000000; stroke-linecap:butt; stroke-linejoin:round; stroke-width:4; stroke-opacity:1; fill:none" points="
  1863.81,686.448 1863.81,667.55 
  "/>
<polyline clip-path="url(#clip580)" style="stroke:#000000; stroke-linecap:butt; stroke-linejoin:round; stroke-width:4; stroke-opacity:1; fill:none" points="
  2094.61,686.448 2094.61,667.55 
  "/>
<polyline clip-path="url(#clip580)" style="stroke:#000000; stroke-linecap:butt; stroke-linejoin:round; stroke-width:4; stroke-opacity:1; fill:none" points="
  2325.41,686.448 2325.41,667.55 
  "/>
<path clip-path="url(#clip580)" d="M1402.21 717.367 Q1398.6 717.367 1396.77 720.931 Q1394.97 724.473 1394.97 731.603 Q1394.97 738.709 1396.77 742.274 Q1398.6 745.815 1402.21 745.815 Q1405.85 745.815 1407.65 742.274 Q1409.48 738.709 1409.48 731.603 Q1409.48 724.473 1407.65 720.931 Q1405.85 717.367 1402.21 717.367 M1402.21 713.663 Q1408.02 713.663 1411.08 718.269 Q1414.16 722.853 1414.16 731.603 Q1414.16 740.329 1411.08 744.936 Q1408.02 749.519 1402.21 749.519 Q1396.4 749.519 1393.32 744.936 Q1390.27 740.329 1390.27 731.603 Q1390.27 722.853 1393.32 718.269 Q1396.4 713.663 1402.21 713.663 Z" fill="#000000" fill-rule="evenodd" fill-opacity="1" /><path clip-path="url(#clip580)" d="M1611.78 744.913 L1628.1 744.913 L1628.1 748.848 L1606.16 748.848 L1606.16 744.913 Q1608.82 742.158 1613.4 737.528 Q1618.01 732.876 1619.19 731.533 Q1621.44 729.01 1622.32 727.274 Q1623.22 725.515 1623.22 723.825 Q1623.22 721.07 1621.27 719.334 Q1619.35 717.598 1616.25 717.598 Q1614.05 717.598 1611.6 718.362 Q1609.17 719.126 1606.39 720.677 L1606.39 715.955 Q1609.21 714.82 1611.67 714.242 Q1614.12 713.663 1616.16 713.663 Q1621.53 713.663 1624.72 716.348 Q1627.92 719.033 1627.92 723.524 Q1627.92 725.654 1627.11 727.575 Q1626.32 729.473 1624.21 732.066 Q1623.63 732.737 1620.53 735.954 Q1617.43 739.149 1611.78 744.913 Z" fill="#000000" fill-rule="evenodd" fill-opacity="1" /><path clip-path="url(#clip580)" d="M1647.92 717.367 Q1644.31 717.367 1642.48 720.931 Q1640.67 724.473 1640.67 731.603 Q1640.67 738.709 1642.48 742.274 Q1644.31 745.815 1647.92 745.815 Q1651.55 745.815 1653.36 742.274 Q1655.19 738.709 1655.19 731.603 Q1655.19 724.473 1653.36 720.931 Q1651.55 717.367 1647.92 717.367 M1647.92 713.663 Q1653.73 713.663 1656.78 718.269 Q1659.86 722.853 1659.86 731.603 Q1659.86 740.329 1656.78 744.936 Q1653.73 749.519 1647.92 749.519 Q1642.11 749.519 1639.03 744.936 Q1635.97 740.329 1635.97 731.603 Q1635.97 722.853 1639.03 718.269 Q1642.11 713.663 1647.92 713.663 Z" fill="#000000" fill-rule="evenodd" fill-opacity="1" /><path clip-path="url(#clip580)" d="M1851.98 718.362 L1840.17 736.811 L1851.98 736.811 L1851.98 718.362 M1850.75 714.288 L1856.63 714.288 L1856.63 736.811 L1861.56 736.811 L1861.56 740.7 L1856.63 740.7 L1856.63 748.848 L1851.98 748.848 L1851.98 740.7 L1836.38 740.7 L1836.38 736.186 L1850.75 714.288 Z" fill="#000000" fill-rule="evenodd" fill-opacity="1" /><path clip-path="url(#clip580)" d="M1879.29 717.367 Q1875.68 717.367 1873.85 720.931 Q1872.05 724.473 1872.05 731.603 Q1872.05 738.709 1873.85 742.274 Q1875.68 745.815 1879.29 745.815 Q1882.93 745.815 1884.73 742.274 Q1886.56 738.709 1886.56 731.603 Q1886.56 724.473 1884.73 720.931 Q1882.93 717.367 1879.29 717.367 M1879.29 713.663 Q1885.1 713.663 1888.16 718.269 Q1891.24 722.853 1891.24 731.603 Q1891.24 740.329 1888.16 744.936 Q1885.1 749.519 1879.29 749.519 Q1873.48 749.519 1870.41 744.936 Q1867.35 740.329 1867.35 731.603 Q1867.35 722.853 1870.41 718.269 Q1873.48 713.663 1879.29 713.663 Z" fill="#000000" fill-rule="evenodd" fill-opacity="1" /><path clip-path="url(#clip580)" d="M2080.01 729.704 Q2076.86 729.704 2075.01 731.857 Q2073.18 734.01 2073.18 737.76 Q2073.18 741.487 2075.01 743.663 Q2076.86 745.815 2080.01 745.815 Q2083.16 745.815 2084.99 743.663 Q2086.84 741.487 2086.84 737.76 Q2086.84 734.01 2084.99 731.857 Q2083.16 729.704 2080.01 729.704 M2089.29 715.052 L2089.29 719.311 Q2087.54 718.478 2085.73 718.038 Q2083.95 717.598 2082.19 717.598 Q2077.56 717.598 2075.11 720.723 Q2072.67 723.848 2072.33 730.167 Q2073.69 728.154 2075.75 727.089 Q2077.81 726.001 2080.29 726.001 Q2085.5 726.001 2088.51 729.172 Q2091.54 732.32 2091.54 737.76 Q2091.54 743.084 2088.39 746.302 Q2085.24 749.519 2080.01 749.519 Q2074.02 749.519 2070.85 744.936 Q2067.67 740.329 2067.67 731.603 Q2067.67 723.408 2071.56 718.547 Q2075.45 713.663 2082 713.663 Q2083.76 713.663 2085.54 714.01 Q2087.35 714.357 2089.29 715.052 Z" fill="#000000" fill-rule="evenodd" fill-opacity="1" /><path clip-path="url(#clip580)" d="M2109.6 717.367 Q2105.98 717.367 2104.16 720.931 Q2102.35 724.473 2102.35 731.603 Q2102.35 738.709 2104.16 742.274 Q2105.98 745.815 2109.6 745.815 Q2113.23 745.815 2115.04 742.274 Q2116.86 738.709 2116.86 731.603 Q2116.86 724.473 2115.04 720.931 Q2113.23 717.367 2109.6 717.367 M2109.6 713.663 Q2115.41 713.663 2118.46 718.269 Q2121.54 722.853 2121.54 731.603 Q2121.54 740.329 2118.46 744.936 Q2115.41 749.519 2109.6 749.519 Q2103.79 749.519 2100.71 744.936 Q2097.65 740.329 2097.65 731.603 Q2097.65 722.853 2100.71 718.269 Q2103.79 713.663 2109.6 713.663 Z" fill="#000000" fill-rule="evenodd" fill-opacity="1" /><path clip-path="url(#clip580)" d="M2310.28 732.436 Q2306.95 732.436 2305.02 734.218 Q2303.13 736.001 2303.13 739.126 Q2303.13 742.251 2305.02 744.033 Q2306.95 745.815 2310.28 745.815 Q2313.61 745.815 2315.53 744.033 Q2317.45 742.228 2317.45 739.126 Q2317.45 736.001 2315.53 734.218 Q2313.64 732.436 2310.28 732.436 M2305.6 730.445 Q2302.59 729.704 2300.9 727.644 Q2299.24 725.584 2299.24 722.621 Q2299.24 718.478 2302.18 716.07 Q2305.14 713.663 2310.28 713.663 Q2315.44 713.663 2318.38 716.07 Q2321.32 718.478 2321.32 722.621 Q2321.32 725.584 2319.63 727.644 Q2317.96 729.704 2314.98 730.445 Q2318.36 731.232 2320.23 733.524 Q2322.13 735.816 2322.13 739.126 Q2322.13 744.149 2319.05 746.834 Q2316 749.519 2310.28 749.519 Q2304.56 749.519 2301.48 746.834 Q2298.43 744.149 2298.43 739.126 Q2298.43 735.816 2300.33 733.524 Q2302.22 731.232 2305.6 730.445 M2303.89 723.061 Q2303.89 725.746 2305.56 727.251 Q2307.25 728.755 2310.28 728.755 Q2313.29 728.755 2314.98 727.251 Q2316.69 725.746 2316.69 723.061 Q2316.69 720.376 2314.98 718.871 Q2313.29 717.367 2310.28 717.367 Q2307.25 717.367 2305.56 718.871 Q2303.89 720.376 2303.89 723.061 Z" fill="#000000" fill-rule="evenodd" fill-opacity="1" /><path clip-path="url(#clip580)" d="M2340.44 717.367 Q2336.83 717.367 2335 720.931 Q2333.2 724.473 2333.2 731.603 Q2333.2 738.709 2335 742.274 Q2336.83 745.815 2340.44 745.815 Q2344.08 745.815 2345.88 742.274 Q2347.71 738.709 2347.71 731.603 Q2347.71 724.473 2345.88 720.931 Q2344.08 717.367 2340.44 717.367 M2340.44 713.663 Q2346.25 713.663 2349.31 718.269 Q2352.39 722.853 2352.39 731.603 Q2352.39 740.329 2349.31 744.936 Q2346.25 749.519 2340.44 749.519 Q2334.63 749.519 2331.55 744.936 Q2328.5 740.329 2328.5 731.603 Q2328.5 722.853 2331.55 718.269 Q2334.63 713.663 2340.44 713.663 Z" fill="#000000" fill-rule="evenodd" fill-opacity="1" /><polyline clip-path="url(#clip583)" style="stroke:#000000; stroke-linecap:butt; stroke-linejoin:round; stroke-width:2; stroke-opacity:0.1; fill:none" points="
  1386.4,567.945 2352.76,567.945 
  "/>
<polyline clip-path="url(#clip583)" style="stroke:#000000; stroke-linecap:butt; stroke-linejoin:round; stroke-width:2; stroke-opacity:0.1; fill:none" points="
  1386.4,395.053 2352.76,395.053 
  "/>
<polyline clip-path="url(#clip583)" style="stroke:#000000; stroke-linecap:butt; stroke-linejoin:round; stroke-width:2; stroke-opacity:0.1; fill:none" points="
  1386.4,222.161 2352.76,222.161 
  "/>
<polyline clip-path="url(#clip583)" style="stroke:#000000; stroke-linecap:butt; stroke-linejoin:round; stroke-width:2; stroke-opacity:0.1; fill:none" points="
  1386.4,49.2695 2352.76,49.2695 
  "/>
<polyline clip-path="url(#clip580)" style="stroke:#000000; stroke-linecap:butt; stroke-linejoin:round; stroke-width:4; stroke-opacity:1; fill:none" points="
  1386.4,686.448 1386.4,47.2441 
  "/>
<polyline clip-path="url(#clip580)" style="stroke:#000000; stroke-linecap:butt; stroke-linejoin:round; stroke-width:4; stroke-opacity:1; fill:none" points="
  1386.4,567.945 1405.3,567.945 
  "/>
<polyline clip-path="url(#clip580)" style="stroke:#000000; stroke-linecap:butt; stroke-linejoin:round; stroke-width:4; stroke-opacity:1; fill:none" points="
  1386.4,395.053 1405.3,395.053 
  "/>
<polyline clip-path="url(#clip580)" style="stroke:#000000; stroke-linecap:butt; stroke-linejoin:round; stroke-width:4; stroke-opacity:1; fill:none" points="
  1386.4,222.161 1405.3,222.161 
  "/>
<polyline clip-path="url(#clip580)" style="stroke:#000000; stroke-linecap:butt; stroke-linejoin:round; stroke-width:4; stroke-opacity:1; fill:none" points="
  1386.4,49.2695 1405.3,49.2695 
  "/>
<path clip-path="url(#clip580)" d="M1294.22 553.744 Q1290.61 553.744 1288.78 557.309 Q1286.98 560.851 1286.98 567.98 Q1286.98 575.087 1288.78 578.651 Q1290.61 582.193 1294.22 582.193 Q1297.86 582.193 1299.66 578.651 Q1301.49 575.087 1301.49 567.98 Q1301.49 560.851 1299.66 557.309 Q1297.86 553.744 1294.22 553.744 M1294.22 550.04 Q1300.03 550.04 1303.09 554.647 Q1306.17 559.23 1306.17 567.98 Q1306.17 576.707 1303.09 581.313 Q1300.03 585.897 1294.22 585.897 Q1288.41 585.897 1285.33 581.313 Q1282.28 576.707 1282.28 567.98 Q1282.28 559.23 1285.33 554.647 Q1288.41 550.04 1294.22 550.04 Z" fill="#000000" fill-rule="evenodd" fill-opacity="1" /><path clip-path="url(#clip580)" d="M1314.38 579.346 L1319.27 579.346 L1319.27 585.225 L1314.38 585.225 L1314.38 579.346 Z" fill="#000000" fill-rule="evenodd" fill-opacity="1" /><path clip-path="url(#clip580)" d="M1329.5 550.665 L1347.86 550.665 L1347.86 554.601 L1333.78 554.601 L1333.78 563.073 Q1334.8 562.726 1335.82 562.564 Q1336.84 562.378 1337.86 562.378 Q1343.64 562.378 1347.02 565.55 Q1350.4 568.721 1350.4 574.138 Q1350.4 579.716 1346.93 582.818 Q1343.46 585.897 1337.14 585.897 Q1334.96 585.897 1332.69 585.526 Q1330.45 585.156 1328.04 584.415 L1328.04 579.716 Q1330.12 580.85 1332.35 581.406 Q1334.57 581.962 1337.04 581.962 Q1341.05 581.962 1343.39 579.855 Q1345.73 577.749 1345.73 574.138 Q1345.73 570.526 1343.39 568.42 Q1341.05 566.314 1337.04 566.314 Q1335.17 566.314 1333.29 566.73 Q1331.44 567.147 1329.5 568.026 L1329.5 550.665 Z" fill="#000000" fill-rule="evenodd" fill-opacity="1" /><path clip-path="url(#clip580)" d="M1284.04 408.398 L1291.67 408.398 L1291.67 382.033 L1283.36 383.699 L1283.36 379.44 L1291.63 377.773 L1296.3 377.773 L1296.3 408.398 L1303.94 408.398 L1303.94 412.333 L1284.04 412.333 L1284.04 408.398 Z" fill="#000000" fill-rule="evenodd" fill-opacity="1" /><path clip-path="url(#clip580)" d="M1313.39 406.454 L1318.27 406.454 L1318.27 412.333 L1313.39 412.333 L1313.39 406.454 Z" fill="#000000" fill-rule="evenodd" fill-opacity="1" /><path clip-path="url(#clip580)" d="M1338.46 380.852 Q1334.85 380.852 1333.02 384.417 Q1331.21 387.959 1331.21 395.088 Q1331.21 402.195 1333.02 405.759 Q1334.85 409.301 1338.46 409.301 Q1342.09 409.301 1343.9 405.759 Q1345.73 402.195 1345.73 395.088 Q1345.73 387.959 1343.9 384.417 Q1342.09 380.852 1338.46 380.852 M1338.46 377.148 Q1344.27 377.148 1347.32 381.755 Q1350.4 386.338 1350.4 395.088 Q1350.4 403.815 1347.32 408.421 Q1344.27 413.005 1338.46 413.005 Q1332.65 413.005 1329.57 408.421 Q1326.51 403.815 1326.51 395.088 Q1326.51 386.338 1329.57 381.755 Q1332.65 377.148 1338.46 377.148 Z" fill="#000000" fill-rule="evenodd" fill-opacity="1" /><path clip-path="url(#clip580)" d="M1285.03 235.506 L1292.67 235.506 L1292.67 209.141 L1284.36 210.807 L1284.36 206.548 L1292.62 204.881 L1297.3 204.881 L1297.3 235.506 L1304.94 235.506 L1304.94 239.441 L1285.03 239.441 L1285.03 235.506 Z" fill="#000000" fill-rule="evenodd" fill-opacity="1" /><path clip-path="url(#clip580)" d="M1314.38 233.562 L1319.27 233.562 L1319.27 239.441 L1314.38 239.441 L1314.38 233.562 Z" fill="#000000" fill-rule="evenodd" fill-opacity="1" /><path clip-path="url(#clip580)" d="M1329.5 204.881 L1347.86 204.881 L1347.86 208.817 L1333.78 208.817 L1333.78 217.289 Q1334.8 216.942 1335.82 216.78 Q1336.84 216.594 1337.86 216.594 Q1343.64 216.594 1347.02 219.766 Q1350.4 222.937 1350.4 228.354 Q1350.4 233.932 1346.93 237.034 Q1343.46 240.113 1337.14 240.113 Q1334.96 240.113 1332.69 239.742 Q1330.45 239.372 1328.04 238.631 L1328.04 233.932 Q1330.12 235.066 1332.35 235.622 Q1334.57 236.178 1337.04 236.178 Q1341.05 236.178 1343.39 234.071 Q1345.73 231.965 1345.73 228.354 Q1345.73 224.742 1343.39 222.636 Q1341.05 220.53 1337.04 220.53 Q1335.17 220.53 1333.29 220.946 Q1331.44 221.363 1329.5 222.242 L1329.5 204.881 Z" fill="#000000" fill-rule="evenodd" fill-opacity="1" /><path clip-path="url(#clip580)" d="M1287.25 62.6143 L1303.57 62.6143 L1303.57 66.5495 L1281.63 66.5495 L1281.63 62.6143 Q1284.29 59.8597 1288.87 55.2301 Q1293.48 50.5773 1294.66 49.2347 Q1296.91 46.7116 1297.79 44.9755 Q1298.69 43.2163 1298.69 41.5265 Q1298.69 38.7718 1296.74 37.0357 Q1294.82 35.2996 1291.72 35.2996 Q1289.52 35.2996 1287.07 36.0635 Q1284.64 36.8274 1281.86 38.3783 L1281.86 33.6561 Q1284.68 32.5219 1287.14 31.9432 Q1289.59 31.3645 1291.63 31.3645 Q1297 31.3645 1300.19 34.0496 Q1303.39 36.7348 1303.39 41.2255 Q1303.39 43.3552 1302.58 45.2764 Q1301.79 47.1746 1299.68 49.7672 Q1299.11 50.4384 1296 53.656 Q1292.9 56.8504 1287.25 62.6143 Z" fill="#000000" fill-rule="evenodd" fill-opacity="1" /><path clip-path="url(#clip580)" d="M1313.39 60.6699 L1318.27 60.6699 L1318.27 66.5495 L1313.39 66.5495 L1313.39 60.6699 Z" fill="#000000" fill-rule="evenodd" fill-opacity="1" /><path clip-path="url(#clip580)" d="M1338.46 35.0682 Q1334.85 35.0682 1333.02 38.633 Q1331.21 42.1746 1331.21 49.3042 Q1331.21 56.4106 1333.02 59.9754 Q1334.85 63.5171 1338.46 63.5171 Q1342.09 63.5171 1343.9 59.9754 Q1345.73 56.4106 1345.73 49.3042 Q1345.73 42.1746 1343.9 38.633 Q1342.09 35.0682 1338.46 35.0682 M1338.46 31.3645 Q1344.27 31.3645 1347.32 35.9709 Q1350.4 40.5542 1350.4 49.3042 Q1350.4 58.031 1347.32 62.6375 Q1344.27 67.2208 1338.46 67.2208 Q1332.65 67.2208 1329.57 62.6375 Q1326.51 58.031 1326.51 49.3042 Q1326.51 40.5542 1329.57 35.9709 Q1332.65 31.3645 1338.46 31.3645 Z" fill="#000000" fill-rule="evenodd" fill-opacity="1" /><polyline clip-path="url(#clip583)" style="stroke:#009af9; stroke-linecap:butt; stroke-linejoin:round; stroke-width:4; stroke-opacity:1; fill:none" points="
  1413.75,464.23 1425.29,464.23 1436.83,464.23 1448.37,464.23 1459.91,395.053 1471.45,308.577 1482.99,395.053 1494.53,395.053 1506.07,395.053 1517.61,395.053 
  1529.15,464.23 1540.69,395.053 1552.23,395.053 1563.77,395.053 1575.31,464.23 1586.85,464.23 1598.39,519.567 1609.93,563.834 1621.47,599.244 1633.01,599.244 
  1644.55,599.244 1656.09,627.571 1667.63,627.571 1679.17,650.231 1690.71,627.571 1702.25,627.571 1713.79,627.571 1725.33,627.571 1736.87,599.244 1748.41,599.244 
  1759.95,599.244 1771.49,599.244 1783.03,627.571 1794.57,599.244 1806.11,599.244 1817.65,650.231 1829.19,668.357 1840.73,650.231 1852.27,650.231 1863.81,627.571 
  1875.35,650.231 1886.89,650.231 1898.43,650.231 1909.97,627.571 1921.51,650.231 1933.05,650.231 1944.59,519.567 1956.13,519.567 1967.67,464.23 1979.21,395.053 
  1990.75,395.053 2002.29,464.23 2013.83,464.23 2025.37,464.23 2036.91,464.23 2048.45,464.23 2059.99,519.567 2071.53,563.834 2083.07,519.567 2094.61,395.053 
  2106.15,464.23 2117.69,464.23 2129.23,519.567 2140.77,519.567 2152.31,464.23 2163.85,395.053 2175.39,308.577 2186.93,308.577 2198.47,464.23 2210.01,519.567 
  2221.55,395.053 2233.09,395.053 2244.63,308.577 2256.17,200.474 2267.71,65.3348 2279.25,308.577 2290.79,200.474 2302.33,395.053 2313.87,395.053 2325.41,200.474 
  
  "/>
<path clip-path="url(#clip580)" d="
M2144.54 172.231 L2320.54 172.231 L2320.54 68.5509 L2144.54 68.5509  Z
  " fill="#ffffff" fill-rule="evenodd" fill-opacity="1"/>
<polyline clip-path="url(#clip580)" style="stroke:#000000; stroke-linecap:butt; stroke-linejoin:round; stroke-width:4; stroke-opacity:1; fill:none" points="
  2144.54,172.231 2320.54,172.231 2320.54,68.5509 2144.54,68.5509 2144.54,172.231 
  "/>
<polyline clip-path="url(#clip580)" style="stroke:#009af9; stroke-linecap:butt; stroke-linejoin:round; stroke-width:4; stroke-opacity:1; fill:none" points="
  2155.27,120.391 2219.7,120.391 
  "/>
<path clip-path="url(#clip580)" d="M2249.35 124.407 Q2249.35 119.777 2247.43 117.231 Q2245.53 114.685 2242.08 114.685 Q2238.65 114.685 2236.73 117.231 Q2234.83 119.777 2234.83 124.407 Q2234.83 129.014 2236.73 131.56 Q2238.65 134.106 2242.08 134.106 Q2245.53 134.106 2247.43 131.56 Q2249.35 129.014 2249.35 124.407 M2253.61 134.453 Q2253.61 141.074 2250.67 144.291 Q2247.73 147.532 2241.66 147.532 Q2239.42 147.532 2237.43 147.185 Q2235.44 146.861 2233.56 146.166 L2233.56 142.023 Q2235.44 143.041 2237.26 143.527 Q2239.09 144.013 2240.99 144.013 Q2245.18 144.013 2247.26 141.814 Q2249.35 139.638 2249.35 135.217 L2249.35 133.111 Q2248.03 135.402 2245.97 136.537 Q2243.91 137.671 2241.04 137.671 Q2236.27 137.671 2233.35 134.037 Q2230.44 130.402 2230.44 124.407 Q2230.44 118.389 2233.35 114.754 Q2236.27 111.12 2241.04 111.12 Q2243.91 111.12 2245.97 112.254 Q2248.03 113.389 2249.35 115.68 L2249.35 111.745 L2253.61 111.745 L2253.61 134.453 Z" fill="#000000" fill-rule="evenodd" fill-opacity="1" /><path clip-path="url(#clip580)" d="M2282.08 145.541 L2282.08 148.851 L2257.45 148.851 L2257.45 145.541 L2282.08 145.541 Z" fill="#000000" fill-rule="evenodd" fill-opacity="1" /><path clip-path="url(#clip580)" d="M2290.3 104.384 L2290.3 111.745 L2299.07 111.745 L2299.07 115.055 L2290.3 115.055 L2290.3 129.129 Q2290.3 132.301 2291.15 133.203 Q2292.03 134.106 2294.69 134.106 L2299.07 134.106 L2299.07 137.671 L2294.69 137.671 Q2289.76 137.671 2287.89 135.842 Q2286.01 133.99 2286.01 129.129 L2286.01 115.055 L2282.89 115.055 L2282.89 111.745 L2286.01 111.745 L2286.01 104.384 L2290.3 104.384 Z" fill="#000000" fill-rule="evenodd" fill-opacity="1" /><path clip-path="url(#clip580)" d="
M193.936 1486.45 L1160.29 1486.45 L1160.29 847.244 L193.936 847.244  Z
  " fill="#ffffff" fill-rule="evenodd" fill-opacity="1"/>
<defs>
  <clipPath id="clip584">
    <rect x="193" y="847" width="967" height="640"/>
  </clipPath>
</defs>
<polyline clip-path="url(#clip584)" style="stroke:#000000; stroke-linecap:butt; stroke-linejoin:round; stroke-width:2; stroke-opacity:0.1; fill:none" points="
  209.746,1486.45 209.746,847.244 
  "/>
<polyline clip-path="url(#clip584)" style="stroke:#000000; stroke-linecap:butt; stroke-linejoin:round; stroke-width:2; stroke-opacity:0.1; fill:none" points="
  440.545,1486.45 440.545,847.244 
  "/>
<polyline clip-path="url(#clip584)" style="stroke:#000000; stroke-linecap:butt; stroke-linejoin:round; stroke-width:2; stroke-opacity:0.1; fill:none" points="
  671.343,1486.45 671.343,847.244 
  "/>
<polyline clip-path="url(#clip584)" style="stroke:#000000; stroke-linecap:butt; stroke-linejoin:round; stroke-width:2; stroke-opacity:0.1; fill:none" points="
  902.142,1486.45 902.142,847.244 
  "/>
<polyline clip-path="url(#clip584)" style="stroke:#000000; stroke-linecap:butt; stroke-linejoin:round; stroke-width:2; stroke-opacity:0.1; fill:none" points="
  1132.94,1486.45 1132.94,847.244 
  "/>
<polyline clip-path="url(#clip580)" style="stroke:#000000; stroke-linecap:butt; stroke-linejoin:round; stroke-width:4; stroke-opacity:1; fill:none" points="
  193.936,1486.45 1160.29,1486.45 
  "/>
<polyline clip-path="url(#clip580)" style="stroke:#000000; stroke-linecap:butt; stroke-linejoin:round; stroke-width:4; stroke-opacity:1; fill:none" points="
  209.746,1486.45 209.746,1467.55 
  "/>
<polyline clip-path="url(#clip580)" style="stroke:#000000; stroke-linecap:butt; stroke-linejoin:round; stroke-width:4; stroke-opacity:1; fill:none" points="
  440.545,1486.45 440.545,1467.55 
  "/>
<polyline clip-path="url(#clip580)" style="stroke:#000000; stroke-linecap:butt; stroke-linejoin:round; stroke-width:4; stroke-opacity:1; fill:none" points="
  671.343,1486.45 671.343,1467.55 
  "/>
<polyline clip-path="url(#clip580)" style="stroke:#000000; stroke-linecap:butt; stroke-linejoin:round; stroke-width:4; stroke-opacity:1; fill:none" points="
  902.142,1486.45 902.142,1467.55 
  "/>
<polyline clip-path="url(#clip580)" style="stroke:#000000; stroke-linecap:butt; stroke-linejoin:round; stroke-width:4; stroke-opacity:1; fill:none" points="
  1132.94,1486.45 1132.94,1467.55 
  "/>
<path clip-path="url(#clip580)" d="M209.746 1517.37 Q206.135 1517.37 204.306 1520.93 Q202.5 1524.47 202.5 1531.6 Q202.5 1538.71 204.306 1542.27 Q206.135 1545.82 209.746 1545.82 Q213.38 1545.82 215.186 1542.27 Q217.014 1538.71 217.014 1531.6 Q217.014 1524.47 215.186 1520.93 Q213.38 1517.37 209.746 1517.37 M209.746 1513.66 Q215.556 1513.66 218.611 1518.27 Q221.69 1522.85 221.69 1531.6 Q221.69 1540.33 218.611 1544.94 Q215.556 1549.52 209.746 1549.52 Q203.936 1549.52 200.857 1544.94 Q197.801 1540.33 197.801 1531.6 Q197.801 1522.85 200.857 1518.27 Q203.936 1513.66 209.746 1513.66 Z" fill="#000000" fill-rule="evenodd" fill-opacity="1" /><path clip-path="url(#clip580)" d="M419.318 1544.91 L435.637 1544.91 L435.637 1548.85 L413.693 1548.85 L413.693 1544.91 Q416.355 1542.16 420.938 1537.53 Q425.545 1532.88 426.725 1531.53 Q428.971 1529.01 429.85 1527.27 Q430.753 1525.51 430.753 1523.82 Q430.753 1521.07 428.808 1519.33 Q426.887 1517.6 423.785 1517.6 Q421.586 1517.6 419.133 1518.36 Q416.702 1519.13 413.924 1520.68 L413.924 1515.95 Q416.748 1514.82 419.202 1514.24 Q421.656 1513.66 423.693 1513.66 Q429.063 1513.66 432.258 1516.35 Q435.452 1519.03 435.452 1523.52 Q435.452 1525.65 434.642 1527.57 Q433.855 1529.47 431.748 1532.07 Q431.17 1532.74 428.068 1535.95 Q424.966 1539.15 419.318 1544.91 Z" fill="#000000" fill-rule="evenodd" fill-opacity="1" /><path clip-path="url(#clip580)" d="M455.452 1517.37 Q451.841 1517.37 450.012 1520.93 Q448.207 1524.47 448.207 1531.6 Q448.207 1538.71 450.012 1542.27 Q451.841 1545.82 455.452 1545.82 Q459.086 1545.82 460.892 1542.27 Q462.72 1538.71 462.72 1531.6 Q462.72 1524.47 460.892 1520.93 Q459.086 1517.37 455.452 1517.37 M455.452 1513.66 Q461.262 1513.66 464.318 1518.27 Q467.396 1522.85 467.396 1531.6 Q467.396 1540.33 464.318 1544.94 Q461.262 1549.52 455.452 1549.52 Q449.642 1549.52 446.563 1544.94 Q443.507 1540.33 443.507 1531.6 Q443.507 1522.85 446.563 1518.27 Q449.642 1513.66 455.452 1513.66 Z" fill="#000000" fill-rule="evenodd" fill-opacity="1" /><path clip-path="url(#clip580)" d="M659.515 1518.36 L647.709 1536.81 L659.515 1536.81 L659.515 1518.36 M658.288 1514.29 L664.167 1514.29 L664.167 1536.81 L669.098 1536.81 L669.098 1540.7 L664.167 1540.7 L664.167 1548.85 L659.515 1548.85 L659.515 1540.7 L643.913 1540.7 L643.913 1536.19 L658.288 1514.29 Z" fill="#000000" fill-rule="evenodd" fill-opacity="1" /><path clip-path="url(#clip580)" d="M686.829 1517.37 Q683.218 1517.37 681.39 1520.93 Q679.584 1524.47 679.584 1531.6 Q679.584 1538.71 681.39 1542.27 Q683.218 1545.82 686.829 1545.82 Q690.464 1545.82 692.269 1542.27 Q694.098 1538.71 694.098 1531.6 Q694.098 1524.47 692.269 1520.93 Q690.464 1517.37 686.829 1517.37 M686.829 1513.66 Q692.64 1513.66 695.695 1518.27 Q698.774 1522.85 698.774 1531.6 Q698.774 1540.33 695.695 1544.94 Q692.64 1549.52 686.829 1549.52 Q681.019 1549.52 677.941 1544.94 Q674.885 1540.33 674.885 1531.6 Q674.885 1522.85 677.941 1518.27 Q681.019 1513.66 686.829 1513.66 Z" fill="#000000" fill-rule="evenodd" fill-opacity="1" /><path clip-path="url(#clip580)" d="M887.547 1529.7 Q884.399 1529.7 882.547 1531.86 Q880.719 1534.01 880.719 1537.76 Q880.719 1541.49 882.547 1543.66 Q884.399 1545.82 887.547 1545.82 Q890.695 1545.82 892.524 1543.66 Q894.376 1541.49 894.376 1537.76 Q894.376 1534.01 892.524 1531.86 Q890.695 1529.7 887.547 1529.7 M896.83 1515.05 L896.83 1519.31 Q895.07 1518.48 893.265 1518.04 Q891.482 1517.6 889.723 1517.6 Q885.094 1517.6 882.64 1520.72 Q880.209 1523.85 879.862 1530.17 Q881.228 1528.15 883.288 1527.09 Q885.348 1526 887.825 1526 Q893.033 1526 896.043 1529.17 Q899.075 1532.32 899.075 1537.76 Q899.075 1543.08 895.927 1546.3 Q892.779 1549.52 887.547 1549.52 Q881.552 1549.52 878.381 1544.94 Q875.209 1540.33 875.209 1531.6 Q875.209 1523.41 879.098 1518.55 Q882.987 1513.66 889.538 1513.66 Q891.297 1513.66 893.08 1514.01 Q894.885 1514.36 896.83 1515.05 Z" fill="#000000" fill-rule="evenodd" fill-opacity="1" /><path clip-path="url(#clip580)" d="M917.13 1517.37 Q913.519 1517.37 911.691 1520.93 Q909.885 1524.47 909.885 1531.6 Q909.885 1538.71 911.691 1542.27 Q913.519 1545.82 917.13 1545.82 Q920.765 1545.82 922.57 1542.27 Q924.399 1538.71 924.399 1531.6 Q924.399 1524.47 922.57 1520.93 Q920.765 1517.37 917.13 1517.37 M917.13 1513.66 Q922.941 1513.66 925.996 1518.27 Q929.075 1522.85 929.075 1531.6 Q929.075 1540.33 925.996 1544.94 Q922.941 1549.52 917.13 1549.52 Q911.32 1549.52 908.242 1544.94 Q905.186 1540.33 905.186 1531.6 Q905.186 1522.85 908.242 1518.27 Q911.32 1513.66 917.13 1513.66 Z" fill="#000000" fill-rule="evenodd" fill-opacity="1" /><path clip-path="url(#clip580)" d="M1117.81 1532.44 Q1114.48 1532.44 1112.56 1534.22 Q1110.66 1536 1110.66 1539.13 Q1110.66 1542.25 1112.56 1544.03 Q1114.48 1545.82 1117.81 1545.82 Q1121.15 1545.82 1123.07 1544.03 Q1124.99 1542.23 1124.99 1539.13 Q1124.99 1536 1123.07 1534.22 Q1121.17 1532.44 1117.81 1532.44 M1113.14 1530.45 Q1110.13 1529.7 1108.44 1527.64 Q1106.77 1525.58 1106.77 1522.62 Q1106.77 1518.48 1109.71 1516.07 Q1112.67 1513.66 1117.81 1513.66 Q1122.98 1513.66 1125.92 1516.07 Q1128.86 1518.48 1128.86 1522.62 Q1128.86 1525.58 1127.17 1527.64 Q1125.5 1529.7 1122.51 1530.45 Q1125.89 1531.23 1127.77 1533.52 Q1129.67 1535.82 1129.67 1539.13 Q1129.67 1544.15 1126.59 1546.83 Q1123.53 1549.52 1117.81 1549.52 Q1112.1 1549.52 1109.02 1546.83 Q1105.96 1544.15 1105.96 1539.13 Q1105.96 1535.82 1107.86 1533.52 Q1109.76 1531.23 1113.14 1530.45 M1111.42 1523.06 Q1111.42 1525.75 1113.09 1527.25 Q1114.78 1528.76 1117.81 1528.76 Q1120.82 1528.76 1122.51 1527.25 Q1124.23 1525.75 1124.23 1523.06 Q1124.23 1520.38 1122.51 1518.87 Q1120.82 1517.37 1117.81 1517.37 Q1114.78 1517.37 1113.09 1518.87 Q1111.42 1520.38 1111.42 1523.06 Z" fill="#000000" fill-rule="evenodd" fill-opacity="1" /><path clip-path="url(#clip580)" d="M1147.98 1517.37 Q1144.36 1517.37 1142.54 1520.93 Q1140.73 1524.47 1140.73 1531.6 Q1140.73 1538.71 1142.54 1542.27 Q1144.36 1545.82 1147.98 1545.82 Q1151.61 1545.82 1153.42 1542.27 Q1155.24 1538.71 1155.24 1531.6 Q1155.24 1524.47 1153.42 1520.93 Q1151.61 1517.37 1147.98 1517.37 M1147.98 1513.66 Q1153.79 1513.66 1156.84 1518.27 Q1159.92 1522.85 1159.92 1531.6 Q1159.92 1540.33 1156.84 1544.94 Q1153.79 1549.52 1147.98 1549.52 Q1142.17 1549.52 1139.09 1544.94 Q1136.03 1540.33 1136.03 1531.6 Q1136.03 1522.85 1139.09 1518.27 Q1142.17 1513.66 1147.98 1513.66 Z" fill="#000000" fill-rule="evenodd" fill-opacity="1" /><polyline clip-path="url(#clip584)" style="stroke:#000000; stroke-linecap:butt; stroke-linejoin:round; stroke-width:2; stroke-opacity:0.1; fill:none" points="
  193.936,1468.36 1160.29,1468.36 
  "/>
<polyline clip-path="url(#clip584)" style="stroke:#000000; stroke-linecap:butt; stroke-linejoin:round; stroke-width:2; stroke-opacity:0.1; fill:none" points="
  193.936,1317.59 1160.29,1317.59 
  "/>
<polyline clip-path="url(#clip584)" style="stroke:#000000; stroke-linecap:butt; stroke-linejoin:round; stroke-width:2; stroke-opacity:0.1; fill:none" points="
  193.936,1166.82 1160.29,1166.82 
  "/>
<polyline clip-path="url(#clip584)" style="stroke:#000000; stroke-linecap:butt; stroke-linejoin:round; stroke-width:2; stroke-opacity:0.1; fill:none" points="
  193.936,1016.06 1160.29,1016.06 
  "/>
<polyline clip-path="url(#clip584)" style="stroke:#000000; stroke-linecap:butt; stroke-linejoin:round; stroke-width:2; stroke-opacity:0.1; fill:none" points="
  193.936,865.292 1160.29,865.292 
  "/>
<polyline clip-path="url(#clip580)" style="stroke:#000000; stroke-linecap:butt; stroke-linejoin:round; stroke-width:4; stroke-opacity:1; fill:none" points="
  193.936,1486.45 193.936,847.244 
  "/>
<polyline clip-path="url(#clip580)" style="stroke:#000000; stroke-linecap:butt; stroke-linejoin:round; stroke-width:4; stroke-opacity:1; fill:none" points="
  193.936,1468.36 212.834,1468.36 
  "/>
<polyline clip-path="url(#clip580)" style="stroke:#000000; stroke-linecap:butt; stroke-linejoin:round; stroke-width:4; stroke-opacity:1; fill:none" points="
  193.936,1317.59 212.834,1317.59 
  "/>
<polyline clip-path="url(#clip580)" style="stroke:#000000; stroke-linecap:butt; stroke-linejoin:round; stroke-width:4; stroke-opacity:1; fill:none" points="
  193.936,1166.82 212.834,1166.82 
  "/>
<polyline clip-path="url(#clip580)" style="stroke:#000000; stroke-linecap:butt; stroke-linejoin:round; stroke-width:4; stroke-opacity:1; fill:none" points="
  193.936,1016.06 212.834,1016.06 
  "/>
<polyline clip-path="url(#clip580)" style="stroke:#000000; stroke-linecap:butt; stroke-linejoin:round; stroke-width:4; stroke-opacity:1; fill:none" points="
  193.936,865.292 212.834,865.292 
  "/>
<path clip-path="url(#clip580)" d="M100.76 1454.16 Q97.1493 1454.16 95.3206 1457.72 Q93.515 1461.26 93.515 1468.39 Q93.515 1475.5 95.3206 1479.06 Q97.1493 1482.6 100.76 1482.6 Q104.395 1482.6 106.2 1479.06 Q108.029 1475.5 108.029 1468.39 Q108.029 1461.26 106.2 1457.72 Q104.395 1454.16 100.76 1454.16 M100.76 1450.45 Q106.571 1450.45 109.626 1455.06 Q112.705 1459.64 112.705 1468.39 Q112.705 1477.12 109.626 1481.73 Q106.571 1486.31 100.76 1486.31 Q94.9502 1486.31 91.8715 1481.73 Q88.816 1477.12 88.816 1468.39 Q88.816 1459.64 91.8715 1455.06 Q94.9502 1450.45 100.76 1450.45 Z" fill="#000000" fill-rule="evenodd" fill-opacity="1" /><path clip-path="url(#clip580)" d="M120.922 1479.76 L125.807 1479.76 L125.807 1485.64 L120.922 1485.64 L120.922 1479.76 Z" fill="#000000" fill-rule="evenodd" fill-opacity="1" /><path clip-path="url(#clip580)" d="M145.992 1454.16 Q142.381 1454.16 140.552 1457.72 Q138.746 1461.26 138.746 1468.39 Q138.746 1475.5 140.552 1479.06 Q142.381 1482.6 145.992 1482.6 Q149.626 1482.6 151.431 1479.06 Q153.26 1475.5 153.26 1468.39 Q153.26 1461.26 151.431 1457.72 Q149.626 1454.16 145.992 1454.16 M145.992 1450.45 Q151.802 1450.45 154.857 1455.06 Q157.936 1459.64 157.936 1468.39 Q157.936 1477.12 154.857 1481.73 Q151.802 1486.31 145.992 1486.31 Q140.181 1486.31 137.103 1481.73 Q134.047 1477.12 134.047 1468.39 Q134.047 1459.64 137.103 1455.06 Q140.181 1450.45 145.992 1450.45 Z" fill="#000000" fill-rule="evenodd" fill-opacity="1" /><path clip-path="url(#clip580)" d="M102.358 1303.39 Q98.7465 1303.39 96.9178 1306.95 Q95.1123 1310.5 95.1123 1317.63 Q95.1123 1324.73 96.9178 1328.3 Q98.7465 1331.84 102.358 1331.84 Q105.992 1331.84 107.797 1328.3 Q109.626 1324.73 109.626 1317.63 Q109.626 1310.5 107.797 1306.95 Q105.992 1303.39 102.358 1303.39 M102.358 1299.69 Q108.168 1299.69 111.223 1304.29 Q114.302 1308.88 114.302 1317.63 Q114.302 1326.35 111.223 1330.96 Q108.168 1335.54 102.358 1335.54 Q96.5474 1335.54 93.4688 1330.96 Q90.4132 1326.35 90.4132 1317.63 Q90.4132 1308.88 93.4688 1304.29 Q96.5474 1299.69 102.358 1299.69 Z" fill="#000000" fill-rule="evenodd" fill-opacity="1" /><path clip-path="url(#clip580)" d="M122.52 1328.99 L127.404 1328.99 L127.404 1334.87 L122.52 1334.87 L122.52 1328.99 Z" fill="#000000" fill-rule="evenodd" fill-opacity="1" /><path clip-path="url(#clip580)" d="M141.617 1330.94 L157.936 1330.94 L157.936 1334.87 L135.992 1334.87 L135.992 1330.94 Q138.654 1328.18 143.237 1323.55 Q147.843 1318.9 149.024 1317.56 Q151.269 1315.03 152.149 1313.3 Q153.052 1311.54 153.052 1309.85 Q153.052 1307.09 151.107 1305.36 Q149.186 1303.62 146.084 1303.62 Q143.885 1303.62 141.431 1304.38 Q139.001 1305.15 136.223 1306.7 L136.223 1301.98 Q139.047 1300.84 141.501 1300.26 Q143.955 1299.69 145.992 1299.69 Q151.362 1299.69 154.556 1302.37 Q157.751 1305.06 157.751 1309.55 Q157.751 1311.68 156.941 1313.6 Q156.154 1315.5 154.047 1318.09 Q153.468 1318.76 150.367 1321.98 Q147.265 1325.17 141.617 1330.94 Z" fill="#000000" fill-rule="evenodd" fill-opacity="1" /><path clip-path="url(#clip580)" d="M100.274 1152.62 Q96.6632 1152.62 94.8345 1156.19 Q93.0289 1159.73 93.0289 1166.86 Q93.0289 1173.97 94.8345 1177.53 Q96.6632 1181.07 100.274 1181.07 Q103.909 1181.07 105.714 1177.53 Q107.543 1173.97 107.543 1166.86 Q107.543 1159.73 105.714 1156.19 Q103.909 1152.62 100.274 1152.62 M100.274 1148.92 Q106.084 1148.92 109.14 1153.53 Q112.219 1158.11 112.219 1166.86 Q112.219 1175.59 109.14 1180.19 Q106.084 1184.78 100.274 1184.78 Q94.4641 1184.78 91.3854 1180.19 Q88.3299 1175.59 88.3299 1166.86 Q88.3299 1158.11 91.3854 1153.53 Q94.4641 1148.92 100.274 1148.92 Z" fill="#000000" fill-rule="evenodd" fill-opacity="1" /><path clip-path="url(#clip580)" d="M120.436 1178.23 L125.32 1178.23 L125.32 1184.1 L120.436 1184.1 L120.436 1178.23 Z" fill="#000000" fill-rule="evenodd" fill-opacity="1" /><path clip-path="url(#clip580)" d="M148.353 1153.62 L136.547 1172.07 L148.353 1172.07 L148.353 1153.62 M147.126 1149.54 L153.005 1149.54 L153.005 1172.07 L157.936 1172.07 L157.936 1175.96 L153.005 1175.96 L153.005 1184.1 L148.353 1184.1 L148.353 1175.96 L132.751 1175.96 L132.751 1171.44 L147.126 1149.54 Z" fill="#000000" fill-rule="evenodd" fill-opacity="1" /><path clip-path="url(#clip580)" d="M100.598 1001.86 Q96.9872 1001.86 95.1586 1005.42 Q93.353 1008.96 93.353 1016.09 Q93.353 1023.2 95.1586 1026.76 Q96.9872 1030.31 100.598 1030.31 Q104.233 1030.31 106.038 1026.76 Q107.867 1023.2 107.867 1016.09 Q107.867 1008.96 106.038 1005.42 Q104.233 1001.86 100.598 1001.86 M100.598 998.153 Q106.408 998.153 109.464 1002.76 Q112.543 1007.34 112.543 1016.09 Q112.543 1024.82 109.464 1029.43 Q106.408 1034.01 100.598 1034.01 Q94.7882 1034.01 91.7095 1029.43 Q88.654 1024.82 88.654 1016.09 Q88.654 1007.34 91.7095 1002.76 Q94.7882 998.153 100.598 998.153 Z" fill="#000000" fill-rule="evenodd" fill-opacity="1" /><path clip-path="url(#clip580)" d="M120.76 1027.46 L125.645 1027.46 L125.645 1033.34 L120.76 1033.34 L120.76 1027.46 Z" fill="#000000" fill-rule="evenodd" fill-opacity="1" /><path clip-path="url(#clip580)" d="M146.408 1014.19 Q143.26 1014.19 141.408 1016.35 Q139.58 1018.5 139.58 1022.25 Q139.58 1025.98 141.408 1028.15 Q143.26 1030.31 146.408 1030.31 Q149.556 1030.31 151.385 1028.15 Q153.237 1025.98 153.237 1022.25 Q153.237 1018.5 151.385 1016.35 Q149.556 1014.19 146.408 1014.19 M155.691 999.542 L155.691 1003.8 Q153.931 1002.97 152.126 1002.53 Q150.343 1002.09 148.584 1002.09 Q143.955 1002.09 141.501 1005.21 Q139.07 1008.34 138.723 1014.66 Q140.089 1012.64 142.149 1011.58 Q144.209 1010.49 146.686 1010.49 Q151.894 1010.49 154.904 1013.66 Q157.936 1016.81 157.936 1022.25 Q157.936 1027.57 154.788 1030.79 Q151.64 1034.01 146.408 1034.01 Q140.413 1034.01 137.242 1029.43 Q134.07 1024.82 134.07 1016.09 Q134.07 1007.9 137.959 1003.04 Q141.848 998.153 148.399 998.153 Q150.158 998.153 151.941 998.501 Q153.746 998.848 155.691 999.542 Z" fill="#000000" fill-rule="evenodd" fill-opacity="1" /><path clip-path="url(#clip580)" d="M100.853 851.091 Q97.2419 851.091 95.4132 854.656 Q93.6076 858.197 93.6076 865.327 Q93.6076 872.433 95.4132 875.998 Q97.2419 879.54 100.853 879.54 Q104.487 879.54 106.293 875.998 Q108.121 872.433 108.121 865.327 Q108.121 858.197 106.293 854.656 Q104.487 851.091 100.853 851.091 M100.853 847.387 Q106.663 847.387 109.719 851.994 Q112.797 856.577 112.797 865.327 Q112.797 874.054 109.719 878.66 Q106.663 883.243 100.853 883.243 Q95.0428 883.243 91.9641 878.66 Q88.9086 874.054 88.9086 865.327 Q88.9086 856.577 91.9641 851.994 Q95.0428 847.387 100.853 847.387 Z" fill="#000000" fill-rule="evenodd" fill-opacity="1" /><path clip-path="url(#clip580)" d="M121.015 876.693 L125.899 876.693 L125.899 882.572 L121.015 882.572 L121.015 876.693 Z" fill="#000000" fill-rule="evenodd" fill-opacity="1" /><path clip-path="url(#clip580)" d="M146.084 866.16 Q142.751 866.16 140.83 867.943 Q138.931 869.725 138.931 872.85 Q138.931 875.975 140.83 877.757 Q142.751 879.54 146.084 879.54 Q149.418 879.54 151.339 877.757 Q153.26 875.952 153.26 872.85 Q153.26 869.725 151.339 867.943 Q149.441 866.16 146.084 866.16 M141.408 864.169 Q138.399 863.429 136.709 861.369 Q135.043 859.308 135.043 856.345 Q135.043 852.202 137.982 849.795 Q140.945 847.387 146.084 847.387 Q151.246 847.387 154.186 849.795 Q157.126 852.202 157.126 856.345 Q157.126 859.308 155.436 861.369 Q153.769 863.429 150.783 864.169 Q154.163 864.956 156.038 867.248 Q157.936 869.54 157.936 872.85 Q157.936 877.873 154.857 880.558 Q151.802 883.243 146.084 883.243 Q140.367 883.243 137.288 880.558 Q134.232 877.873 134.232 872.85 Q134.232 869.54 136.131 867.248 Q138.029 864.956 141.408 864.169 M139.695 856.785 Q139.695 859.47 141.362 860.975 Q143.052 862.48 146.084 862.48 Q149.093 862.48 150.783 860.975 Q152.496 859.47 152.496 856.785 Q152.496 854.1 150.783 852.595 Q149.093 851.091 146.084 851.091 Q143.052 851.091 141.362 852.595 Q139.695 854.1 139.695 856.785 Z" fill="#000000" fill-rule="evenodd" fill-opacity="1" /><polyline clip-path="url(#clip584)" style="stroke:#009af9; stroke-linecap:butt; stroke-linejoin:round; stroke-width:4; stroke-opacity:1; fill:none" points="
  221.286,865.335 232.826,985.973 244.366,1082.48 255.905,1159.68 267.445,1159.68 278.985,1082.48 290.525,1082.48 302.065,1082.48 313.605,1082.48 325.145,1082.48 
  336.685,1159.68 348.225,1159.68 359.765,1159.68 371.305,1159.68 382.845,1221.43 394.385,1270.83 405.925,1341.96 417.465,1403.65 429.005,1441.86 440.545,1457.51 
  452.084,1463.91 463.624,1466.9 475.164,1467.88 486.704,1468.23 498.244,1468.32 509.784,1468.34 521.324,1468.35 532.864,1468.36 544.404,1468.36 555.944,1468.36 
  567.484,1468.36 579.024,1468.36 590.564,1468.36 602.104,1468.36 613.644,1468.36 625.184,1468.36 636.724,1468.36 648.263,1468.36 659.803,1468.36 671.343,1468.36 
  682.883,1468.36 694.423,1468.36 705.963,1468.36 717.503,1468.36 729.043,1468.36 740.583,1468.36 752.123,1468.36 763.663,1468.36 775.203,1468.36 786.743,1468.36 
  798.283,1468.36 809.823,1468.36 821.363,1468.36 832.902,1468.36 844.442,1468.36 855.982,1468.36 867.522,1468.36 879.062,1468.36 890.602,1468.36 902.142,1468.36 
  913.682,1468.36 925.222,1468.36 936.762,1468.36 948.302,1468.36 959.842,1468.36 971.382,1468.36 982.922,1468.36 994.462,1468.36 1006,1468.36 1017.54,1468.36 
  1029.08,1468.36 1040.62,1468.36 1052.16,1468.36 1063.7,1468.36 1075.24,1468.36 1086.78,1468.36 1098.32,1468.36 1109.86,1468.36 1121.4,1468.36 1132.94,1468.36 
  
  "/>
<path clip-path="url(#clip580)" d="
M952.072 972.231 L1128.08 972.231 L1128.08 868.551 L952.072 868.551  Z
  " fill="#ffffff" fill-rule="evenodd" fill-opacity="1"/>
<polyline clip-path="url(#clip580)" style="stroke:#000000; stroke-linecap:butt; stroke-linejoin:round; stroke-width:4; stroke-opacity:1; fill:none" points="
  952.072,972.231 1128.08,972.231 1128.08,868.551 952.072,868.551 952.072,972.231 
  "/>
<polyline clip-path="url(#clip580)" style="stroke:#009af9; stroke-linecap:butt; stroke-linejoin:round; stroke-width:4; stroke-opacity:1; fill:none" points="
  962.809,920.391 1027.23,920.391 
  "/>
<path clip-path="url(#clip580)" d="M1056.88 915.68 L1056.88 901.653 L1061.14 901.653 L1061.14 937.671 L1056.88 937.671 L1056.88 933.782 Q1055.54 936.097 1053.48 937.231 Q1051.44 938.342 1048.57 938.342 Q1043.87 938.342 1040.91 934.592 Q1037.97 930.842 1037.97 924.731 Q1037.97 918.62 1040.91 914.87 Q1043.87 911.12 1048.57 911.12 Q1051.44 911.12 1053.48 912.254 Q1055.54 913.365 1056.88 915.68 M1042.37 924.731 Q1042.37 929.43 1044.29 932.115 Q1046.23 934.777 1049.61 934.777 Q1052.99 934.777 1054.94 932.115 Q1056.88 929.43 1056.88 924.731 Q1056.88 920.032 1054.94 917.37 Q1052.99 914.685 1049.61 914.685 Q1046.23 914.685 1044.29 917.37 Q1042.37 920.032 1042.37 924.731 Z" fill="#000000" fill-rule="evenodd" fill-opacity="1" /><path clip-path="url(#clip580)" d="M1089.61 945.541 L1089.61 948.851 L1064.98 948.851 L1064.98 945.541 L1089.61 945.541 Z" fill="#000000" fill-rule="evenodd" fill-opacity="1" /><path clip-path="url(#clip580)" d="M1097.83 904.384 L1097.83 911.745 L1106.6 911.745 L1106.6 915.055 L1097.83 915.055 L1097.83 929.129 Q1097.83 932.301 1098.69 933.203 Q1099.57 934.106 1102.23 934.106 L1106.6 934.106 L1106.6 937.671 L1102.23 937.671 Q1097.3 937.671 1095.42 935.842 Q1093.55 933.99 1093.55 929.129 L1093.55 915.055 L1090.42 915.055 L1090.42 911.745 L1093.55 911.745 L1093.55 904.384 L1097.83 904.384 Z" fill="#000000" fill-rule="evenodd" fill-opacity="1" /><path clip-path="url(#clip580)" d="
M1386.4 1486.45 L2352.76 1486.45 L2352.76 847.244 L1386.4 847.244  Z
  " fill="#ffffff" fill-rule="evenodd" fill-opacity="1"/>
<defs>
  <clipPath id="clip585">
    <rect x="1386" y="847" width="967" height="640"/>
  </clipPath>
</defs>
<polyline clip-path="url(#clip585)" style="stroke:#000000; stroke-linecap:butt; stroke-linejoin:round; stroke-width:2; stroke-opacity:0.1; fill:none" points="
  1402.21,1486.45 1402.21,847.244 
  "/>
<polyline clip-path="url(#clip585)" style="stroke:#000000; stroke-linecap:butt; stroke-linejoin:round; stroke-width:2; stroke-opacity:0.1; fill:none" points="
  1633.01,1486.45 1633.01,847.244 
  "/>
<polyline clip-path="url(#clip585)" style="stroke:#000000; stroke-linecap:butt; stroke-linejoin:round; stroke-width:2; stroke-opacity:0.1; fill:none" points="
  1863.81,1486.45 1863.81,847.244 
  "/>
<polyline clip-path="url(#clip585)" style="stroke:#000000; stroke-linecap:butt; stroke-linejoin:round; stroke-width:2; stroke-opacity:0.1; fill:none" points="
  2094.61,1486.45 2094.61,847.244 
  "/>
<polyline clip-path="url(#clip585)" style="stroke:#000000; stroke-linecap:butt; stroke-linejoin:round; stroke-width:2; stroke-opacity:0.1; fill:none" points="
  2325.41,1486.45 2325.41,847.244 
  "/>
<polyline clip-path="url(#clip580)" style="stroke:#000000; stroke-linecap:butt; stroke-linejoin:round; stroke-width:4; stroke-opacity:1; fill:none" points="
  1386.4,1486.45 2352.76,1486.45 
  "/>
<polyline clip-path="url(#clip580)" style="stroke:#000000; stroke-linecap:butt; stroke-linejoin:round; stroke-width:4; stroke-opacity:1; fill:none" points="
  1402.21,1486.45 1402.21,1467.55 
  "/>
<polyline clip-path="url(#clip580)" style="stroke:#000000; stroke-linecap:butt; stroke-linejoin:round; stroke-width:4; stroke-opacity:1; fill:none" points="
  1633.01,1486.45 1633.01,1467.55 
  "/>
<polyline clip-path="url(#clip580)" style="stroke:#000000; stroke-linecap:butt; stroke-linejoin:round; stroke-width:4; stroke-opacity:1; fill:none" points="
  1863.81,1486.45 1863.81,1467.55 
  "/>
<polyline clip-path="url(#clip580)" style="stroke:#000000; stroke-linecap:butt; stroke-linejoin:round; stroke-width:4; stroke-opacity:1; fill:none" points="
  2094.61,1486.45 2094.61,1467.55 
  "/>
<polyline clip-path="url(#clip580)" style="stroke:#000000; stroke-linecap:butt; stroke-linejoin:round; stroke-width:4; stroke-opacity:1; fill:none" points="
  2325.41,1486.45 2325.41,1467.55 
  "/>
<path clip-path="url(#clip580)" d="M1402.21 1517.37 Q1398.6 1517.37 1396.77 1520.93 Q1394.97 1524.47 1394.97 1531.6 Q1394.97 1538.71 1396.77 1542.27 Q1398.6 1545.82 1402.21 1545.82 Q1405.85 1545.82 1407.65 1542.27 Q1409.48 1538.71 1409.48 1531.6 Q1409.48 1524.47 1407.65 1520.93 Q1405.85 1517.37 1402.21 1517.37 M1402.21 1513.66 Q1408.02 1513.66 1411.08 1518.27 Q1414.16 1522.85 1414.16 1531.6 Q1414.16 1540.33 1411.08 1544.94 Q1408.02 1549.52 1402.21 1549.52 Q1396.4 1549.52 1393.32 1544.94 Q1390.27 1540.33 1390.27 1531.6 Q1390.27 1522.85 1393.32 1518.27 Q1396.4 1513.66 1402.21 1513.66 Z" fill="#000000" fill-rule="evenodd" fill-opacity="1" /><path clip-path="url(#clip580)" d="M1611.78 1544.91 L1628.1 1544.91 L1628.1 1548.85 L1606.16 1548.85 L1606.16 1544.91 Q1608.82 1542.16 1613.4 1537.53 Q1618.01 1532.88 1619.19 1531.53 Q1621.44 1529.01 1622.32 1527.27 Q1623.22 1525.51 1623.22 1523.82 Q1623.22 1521.07 1621.27 1519.33 Q1619.35 1517.6 1616.25 1517.6 Q1614.05 1517.6 1611.6 1518.36 Q1609.17 1519.13 1606.39 1520.68 L1606.39 1515.95 Q1609.21 1514.82 1611.67 1514.24 Q1614.12 1513.66 1616.16 1513.66 Q1621.53 1513.66 1624.72 1516.35 Q1627.92 1519.03 1627.92 1523.52 Q1627.92 1525.65 1627.11 1527.57 Q1626.32 1529.47 1624.21 1532.07 Q1623.63 1532.74 1620.53 1535.95 Q1617.43 1539.15 1611.78 1544.91 Z" fill="#000000" fill-rule="evenodd" fill-opacity="1" /><path clip-path="url(#clip580)" d="M1647.92 1517.37 Q1644.31 1517.37 1642.48 1520.93 Q1640.67 1524.47 1640.67 1531.6 Q1640.67 1538.71 1642.48 1542.27 Q1644.31 1545.82 1647.92 1545.82 Q1651.55 1545.82 1653.36 1542.27 Q1655.19 1538.71 1655.19 1531.6 Q1655.19 1524.47 1653.36 1520.93 Q1651.55 1517.37 1647.92 1517.37 M1647.92 1513.66 Q1653.73 1513.66 1656.78 1518.27 Q1659.86 1522.85 1659.86 1531.6 Q1659.86 1540.33 1656.78 1544.94 Q1653.73 1549.52 1647.92 1549.52 Q1642.11 1549.52 1639.03 1544.94 Q1635.97 1540.33 1635.97 1531.6 Q1635.97 1522.85 1639.03 1518.27 Q1642.11 1513.66 1647.92 1513.66 Z" fill="#000000" fill-rule="evenodd" fill-opacity="1" /><path clip-path="url(#clip580)" d="M1851.98 1518.36 L1840.17 1536.81 L1851.98 1536.81 L1851.98 1518.36 M1850.75 1514.29 L1856.63 1514.29 L1856.63 1536.81 L1861.56 1536.81 L1861.56 1540.7 L1856.63 1540.7 L1856.63 1548.85 L1851.98 1548.85 L1851.98 1540.7 L1836.38 1540.7 L1836.38 1536.19 L1850.75 1514.29 Z" fill="#000000" fill-rule="evenodd" fill-opacity="1" /><path clip-path="url(#clip580)" d="M1879.29 1517.37 Q1875.68 1517.37 1873.85 1520.93 Q1872.05 1524.47 1872.05 1531.6 Q1872.05 1538.71 1873.85 1542.27 Q1875.68 1545.82 1879.29 1545.82 Q1882.93 1545.82 1884.73 1542.27 Q1886.56 1538.71 1886.56 1531.6 Q1886.56 1524.47 1884.73 1520.93 Q1882.93 1517.37 1879.29 1517.37 M1879.29 1513.66 Q1885.1 1513.66 1888.16 1518.27 Q1891.24 1522.85 1891.24 1531.6 Q1891.24 1540.33 1888.16 1544.94 Q1885.1 1549.52 1879.29 1549.52 Q1873.48 1549.52 1870.41 1544.94 Q1867.35 1540.33 1867.35 1531.6 Q1867.35 1522.85 1870.41 1518.27 Q1873.48 1513.66 1879.29 1513.66 Z" fill="#000000" fill-rule="evenodd" fill-opacity="1" /><path clip-path="url(#clip580)" d="M2080.01 1529.7 Q2076.86 1529.7 2075.01 1531.86 Q2073.18 1534.01 2073.18 1537.76 Q2073.18 1541.49 2075.01 1543.66 Q2076.86 1545.82 2080.01 1545.82 Q2083.16 1545.82 2084.99 1543.66 Q2086.84 1541.49 2086.84 1537.76 Q2086.84 1534.01 2084.99 1531.86 Q2083.16 1529.7 2080.01 1529.7 M2089.29 1515.05 L2089.29 1519.31 Q2087.54 1518.48 2085.73 1518.04 Q2083.95 1517.6 2082.19 1517.6 Q2077.56 1517.6 2075.11 1520.72 Q2072.67 1523.85 2072.33 1530.17 Q2073.69 1528.15 2075.75 1527.09 Q2077.81 1526 2080.29 1526 Q2085.5 1526 2088.51 1529.17 Q2091.54 1532.32 2091.54 1537.76 Q2091.54 1543.08 2088.39 1546.3 Q2085.24 1549.52 2080.01 1549.52 Q2074.02 1549.52 2070.85 1544.94 Q2067.67 1540.33 2067.67 1531.6 Q2067.67 1523.41 2071.56 1518.55 Q2075.45 1513.66 2082 1513.66 Q2083.76 1513.66 2085.54 1514.01 Q2087.35 1514.36 2089.29 1515.05 Z" fill="#000000" fill-rule="evenodd" fill-opacity="1" /><path clip-path="url(#clip580)" d="M2109.6 1517.37 Q2105.98 1517.37 2104.16 1520.93 Q2102.35 1524.47 2102.35 1531.6 Q2102.35 1538.71 2104.16 1542.27 Q2105.98 1545.82 2109.6 1545.82 Q2113.23 1545.82 2115.04 1542.27 Q2116.86 1538.71 2116.86 1531.6 Q2116.86 1524.47 2115.04 1520.93 Q2113.23 1517.37 2109.6 1517.37 M2109.6 1513.66 Q2115.41 1513.66 2118.46 1518.27 Q2121.54 1522.85 2121.54 1531.6 Q2121.54 1540.33 2118.46 1544.94 Q2115.41 1549.52 2109.6 1549.52 Q2103.79 1549.52 2100.71 1544.94 Q2097.65 1540.33 2097.65 1531.6 Q2097.65 1522.85 2100.71 1518.27 Q2103.79 1513.66 2109.6 1513.66 Z" fill="#000000" fill-rule="evenodd" fill-opacity="1" /><path clip-path="url(#clip580)" d="M2310.28 1532.44 Q2306.95 1532.44 2305.02 1534.22 Q2303.13 1536 2303.13 1539.13 Q2303.13 1542.25 2305.02 1544.03 Q2306.95 1545.82 2310.28 1545.82 Q2313.61 1545.82 2315.53 1544.03 Q2317.45 1542.23 2317.45 1539.13 Q2317.45 1536 2315.53 1534.22 Q2313.64 1532.44 2310.28 1532.44 M2305.6 1530.45 Q2302.59 1529.7 2300.9 1527.64 Q2299.24 1525.58 2299.24 1522.62 Q2299.24 1518.48 2302.18 1516.07 Q2305.14 1513.66 2310.28 1513.66 Q2315.44 1513.66 2318.38 1516.07 Q2321.32 1518.48 2321.32 1522.62 Q2321.32 1525.58 2319.63 1527.64 Q2317.96 1529.7 2314.98 1530.45 Q2318.36 1531.23 2320.23 1533.52 Q2322.13 1535.82 2322.13 1539.13 Q2322.13 1544.15 2319.05 1546.83 Q2316 1549.52 2310.28 1549.52 Q2304.56 1549.52 2301.48 1546.83 Q2298.43 1544.15 2298.43 1539.13 Q2298.43 1535.82 2300.33 1533.52 Q2302.22 1531.23 2305.6 1530.45 M2303.89 1523.06 Q2303.89 1525.75 2305.56 1527.25 Q2307.25 1528.76 2310.28 1528.76 Q2313.29 1528.76 2314.98 1527.25 Q2316.69 1525.75 2316.69 1523.06 Q2316.69 1520.38 2314.98 1518.87 Q2313.29 1517.37 2310.28 1517.37 Q2307.25 1517.37 2305.56 1518.87 Q2303.89 1520.38 2303.89 1523.06 Z" fill="#000000" fill-rule="evenodd" fill-opacity="1" /><path clip-path="url(#clip580)" d="M2340.44 1517.37 Q2336.83 1517.37 2335 1520.93 Q2333.2 1524.47 2333.2 1531.6 Q2333.2 1538.71 2335 1542.27 Q2336.83 1545.82 2340.44 1545.82 Q2344.08 1545.82 2345.88 1542.27 Q2347.71 1538.71 2347.71 1531.6 Q2347.71 1524.47 2345.88 1520.93 Q2344.08 1517.37 2340.44 1517.37 M2340.44 1513.66 Q2346.25 1513.66 2349.31 1518.27 Q2352.39 1522.85 2352.39 1531.6 Q2352.39 1540.33 2349.31 1544.94 Q2346.25 1549.52 2340.44 1549.52 Q2334.63 1549.52 2331.55 1544.94 Q2328.5 1540.33 2328.5 1531.6 Q2328.5 1522.85 2331.55 1518.27 Q2334.63 1513.66 2340.44 1513.66 Z" fill="#000000" fill-rule="evenodd" fill-opacity="1" /><polyline clip-path="url(#clip585)" style="stroke:#000000; stroke-linecap:butt; stroke-linejoin:round; stroke-width:2; stroke-opacity:0.1; fill:none" points="
  1386.4,1472.45 2352.76,1472.45 
  "/>
<polyline clip-path="url(#clip585)" style="stroke:#000000; stroke-linecap:butt; stroke-linejoin:round; stroke-width:2; stroke-opacity:0.1; fill:none" points="
  1386.4,1319.82 2352.76,1319.82 
  "/>
<polyline clip-path="url(#clip585)" style="stroke:#000000; stroke-linecap:butt; stroke-linejoin:round; stroke-width:2; stroke-opacity:0.1; fill:none" points="
  1386.4,1167.19 2352.76,1167.19 
  "/>
<polyline clip-path="url(#clip585)" style="stroke:#000000; stroke-linecap:butt; stroke-linejoin:round; stroke-width:2; stroke-opacity:0.1; fill:none" points="
  1386.4,1014.56 2352.76,1014.56 
  "/>
<polyline clip-path="url(#clip585)" style="stroke:#000000; stroke-linecap:butt; stroke-linejoin:round; stroke-width:2; stroke-opacity:0.1; fill:none" points="
  1386.4,861.928 2352.76,861.928 
  "/>
<polyline clip-path="url(#clip580)" style="stroke:#000000; stroke-linecap:butt; stroke-linejoin:round; stroke-width:4; stroke-opacity:1; fill:none" points="
  1386.4,1486.45 1386.4,847.244 
  "/>
<polyline clip-path="url(#clip580)" style="stroke:#000000; stroke-linecap:butt; stroke-linejoin:round; stroke-width:4; stroke-opacity:1; fill:none" points="
  1386.4,1472.45 1405.3,1472.45 
  "/>
<polyline clip-path="url(#clip580)" style="stroke:#000000; stroke-linecap:butt; stroke-linejoin:round; stroke-width:4; stroke-opacity:1; fill:none" points="
  1386.4,1319.82 1405.3,1319.82 
  "/>
<polyline clip-path="url(#clip580)" style="stroke:#000000; stroke-linecap:butt; stroke-linejoin:round; stroke-width:4; stroke-opacity:1; fill:none" points="
  1386.4,1167.19 1405.3,1167.19 
  "/>
<polyline clip-path="url(#clip580)" style="stroke:#000000; stroke-linecap:butt; stroke-linejoin:round; stroke-width:4; stroke-opacity:1; fill:none" points="
  1386.4,1014.56 1405.3,1014.56 
  "/>
<polyline clip-path="url(#clip580)" style="stroke:#000000; stroke-linecap:butt; stroke-linejoin:round; stroke-width:4; stroke-opacity:1; fill:none" points="
  1386.4,861.928 1405.3,861.928 
  "/>
<path clip-path="url(#clip580)" d="M1258.53 1472.9 L1288.2 1472.9 L1288.2 1476.83 L1258.53 1476.83 L1258.53 1472.9 Z" fill="#000000" fill-rule="evenodd" fill-opacity="1" /><path clip-path="url(#clip580)" d="M1311.14 1459.24 L1299.34 1477.69 L1311.14 1477.69 L1311.14 1459.24 M1309.92 1455.17 L1315.8 1455.17 L1315.8 1477.69 L1320.73 1477.69 L1320.73 1481.58 L1315.8 1481.58 L1315.8 1489.73 L1311.14 1489.73 L1311.14 1481.58 L1295.54 1481.58 L1295.54 1477.06 L1309.92 1455.17 Z" fill="#000000" fill-rule="evenodd" fill-opacity="1" /><path clip-path="url(#clip580)" d="M1338.46 1458.24 Q1334.85 1458.24 1333.02 1461.81 Q1331.21 1465.35 1331.21 1472.48 Q1331.21 1479.59 1333.02 1483.15 Q1334.85 1486.69 1338.46 1486.69 Q1342.09 1486.69 1343.9 1483.15 Q1345.73 1479.59 1345.73 1472.48 Q1345.73 1465.35 1343.9 1461.81 Q1342.09 1458.24 1338.46 1458.24 M1338.46 1454.54 Q1344.27 1454.54 1347.32 1459.15 Q1350.4 1463.73 1350.4 1472.48 Q1350.4 1481.21 1347.32 1485.81 Q1344.27 1490.4 1338.46 1490.4 Q1332.65 1490.4 1329.57 1485.81 Q1326.51 1481.21 1326.51 1472.48 Q1326.51 1463.73 1329.57 1459.15 Q1332.65 1454.54 1338.46 1454.54 Z" fill="#000000" fill-rule="evenodd" fill-opacity="1" /><path clip-path="url(#clip580)" d="M1258.53 1320.27 L1288.2 1320.27 L1288.2 1324.2 L1258.53 1324.2 L1258.53 1320.27 Z" fill="#000000" fill-rule="evenodd" fill-opacity="1" /><path clip-path="url(#clip580)" d="M1312.46 1318.46 Q1315.82 1319.18 1317.69 1321.45 Q1319.59 1323.72 1319.59 1327.05 Q1319.59 1332.17 1316.07 1334.97 Q1312.55 1337.77 1306.07 1337.77 Q1303.9 1337.77 1301.58 1337.33 Q1299.29 1336.91 1296.84 1336.05 L1296.84 1331.54 Q1298.78 1332.67 1301.1 1333.25 Q1303.41 1333.83 1305.93 1333.83 Q1310.33 1333.83 1312.62 1332.1 Q1314.94 1330.36 1314.94 1327.05 Q1314.94 1323.99 1312.79 1322.28 Q1310.66 1320.55 1306.84 1320.55 L1302.81 1320.55 L1302.81 1316.7 L1307.02 1316.7 Q1310.47 1316.7 1312.3 1315.34 Q1314.13 1313.95 1314.13 1311.36 Q1314.13 1308.69 1312.23 1307.28 Q1310.36 1305.85 1306.84 1305.85 Q1304.92 1305.85 1302.72 1306.26 Q1300.52 1306.68 1297.88 1307.56 L1297.88 1303.39 Q1300.54 1302.65 1302.86 1302.28 Q1305.19 1301.91 1307.25 1301.91 Q1312.58 1301.91 1315.68 1304.34 Q1318.78 1306.75 1318.78 1310.87 Q1318.78 1313.74 1317.14 1315.73 Q1315.49 1317.7 1312.46 1318.46 Z" fill="#000000" fill-rule="evenodd" fill-opacity="1" /><path clip-path="url(#clip580)" d="M1338.46 1305.61 Q1334.85 1305.61 1333.02 1309.18 Q1331.21 1312.72 1331.21 1319.85 Q1331.21 1326.96 1333.02 1330.52 Q1334.85 1334.06 1338.46 1334.06 Q1342.09 1334.06 1343.9 1330.52 Q1345.73 1326.96 1345.73 1319.85 Q1345.73 1312.72 1343.9 1309.18 Q1342.09 1305.61 1338.46 1305.61 M1338.46 1301.91 Q1344.27 1301.91 1347.32 1306.52 Q1350.4 1311.1 1350.4 1319.85 Q1350.4 1328.58 1347.32 1333.18 Q1344.27 1337.77 1338.46 1337.77 Q1332.65 1337.77 1329.57 1333.18 Q1326.51 1328.58 1326.51 1319.85 Q1326.51 1311.1 1329.57 1306.52 Q1332.65 1301.91 1338.46 1301.91 Z" fill="#000000" fill-rule="evenodd" fill-opacity="1" /><path clip-path="url(#clip580)" d="M1258.53 1167.64 L1288.2 1167.64 L1288.2 1171.57 L1258.53 1171.57 L1258.53 1167.64 Z" fill="#000000" fill-rule="evenodd" fill-opacity="1" /><path clip-path="url(#clip580)" d="M1302.32 1180.53 L1318.64 1180.53 L1318.64 1184.47 L1296.7 1184.47 L1296.7 1180.53 Q1299.36 1177.78 1303.94 1173.15 Q1308.55 1168.49 1309.73 1167.15 Q1311.98 1164.63 1312.86 1162.89 Q1313.76 1161.13 1313.76 1159.44 Q1313.76 1156.69 1311.81 1154.95 Q1309.89 1153.22 1306.79 1153.22 Q1304.59 1153.22 1302.14 1153.98 Q1299.71 1154.74 1296.93 1156.3 L1296.93 1151.57 Q1299.75 1150.44 1302.21 1149.86 Q1304.66 1149.28 1306.7 1149.28 Q1312.07 1149.28 1315.26 1151.97 Q1318.46 1154.65 1318.46 1159.14 Q1318.46 1161.27 1317.65 1163.19 Q1316.86 1165.09 1314.75 1167.68 Q1314.17 1168.36 1311.07 1171.57 Q1307.97 1174.77 1302.32 1180.53 Z" fill="#000000" fill-rule="evenodd" fill-opacity="1" /><path clip-path="url(#clip580)" d="M1338.46 1152.99 Q1334.85 1152.99 1333.02 1156.55 Q1331.21 1160.09 1331.21 1167.22 Q1331.21 1174.33 1333.02 1177.89 Q1334.85 1181.43 1338.46 1181.43 Q1342.09 1181.43 1343.9 1177.89 Q1345.73 1174.33 1345.73 1167.22 Q1345.73 1160.09 1343.9 1156.55 Q1342.09 1152.99 1338.46 1152.99 M1338.46 1149.28 Q1344.27 1149.28 1347.32 1153.89 Q1350.4 1158.47 1350.4 1167.22 Q1350.4 1175.95 1347.32 1180.55 Q1344.27 1185.14 1338.46 1185.14 Q1332.65 1185.14 1329.57 1180.55 Q1326.51 1175.95 1326.51 1167.22 Q1326.51 1158.47 1329.57 1153.89 Q1332.65 1149.28 1338.46 1149.28 Z" fill="#000000" fill-rule="evenodd" fill-opacity="1" /><path clip-path="url(#clip580)" d="M1258.53 1015.01 L1288.2 1015.01 L1288.2 1018.94 L1258.53 1018.94 L1258.53 1015.01 Z" fill="#000000" fill-rule="evenodd" fill-opacity="1" /><path clip-path="url(#clip580)" d="M1299.11 1027.9 L1306.74 1027.9 L1306.74 1001.54 L1298.43 1003.2 L1298.43 998.944 L1306.7 997.277 L1311.37 997.277 L1311.37 1027.9 L1319.01 1027.9 L1319.01 1031.84 L1299.11 1031.84 L1299.11 1027.9 Z" fill="#000000" fill-rule="evenodd" fill-opacity="1" /><path clip-path="url(#clip580)" d="M1338.46 1000.36 Q1334.85 1000.36 1333.02 1003.92 Q1331.21 1007.46 1331.21 1014.59 Q1331.21 1021.7 1333.02 1025.26 Q1334.85 1028.8 1338.46 1028.8 Q1342.09 1028.8 1343.9 1025.26 Q1345.73 1021.7 1345.73 1014.59 Q1345.73 1007.46 1343.9 1003.92 Q1342.09 1000.36 1338.46 1000.36 M1338.46 996.652 Q1344.27 996.652 1347.32 1001.26 Q1350.4 1005.84 1350.4 1014.59 Q1350.4 1023.32 1347.32 1027.93 Q1344.27 1032.51 1338.46 1032.51 Q1332.65 1032.51 1329.57 1027.93 Q1326.51 1023.32 1326.51 1014.59 Q1326.51 1005.84 1329.57 1001.26 Q1332.65 996.652 1338.46 996.652 Z" fill="#000000" fill-rule="evenodd" fill-opacity="1" /><path clip-path="url(#clip580)" d="M1338.46 847.727 Q1334.85 847.727 1333.02 851.291 Q1331.21 854.833 1331.21 861.963 Q1331.21 869.069 1333.02 872.634 Q1334.85 876.175 1338.46 876.175 Q1342.09 876.175 1343.9 872.634 Q1345.73 869.069 1345.73 861.963 Q1345.73 854.833 1343.9 851.291 Q1342.09 847.727 1338.46 847.727 M1338.46 844.023 Q1344.27 844.023 1347.32 848.629 Q1350.4 853.213 1350.4 861.963 Q1350.4 870.689 1347.32 875.296 Q1344.27 879.879 1338.46 879.879 Q1332.65 879.879 1329.57 875.296 Q1326.51 870.689 1326.51 861.963 Q1326.51 853.213 1329.57 848.629 Q1332.65 844.023 1338.46 844.023 Z" fill="#000000" fill-rule="evenodd" fill-opacity="1" /><polyline clip-path="url(#clip585)" style="stroke:#009af9; stroke-linecap:butt; stroke-linejoin:round; stroke-width:4; stroke-opacity:1; fill:none" points="
  1413.75,865.335 1425.29,868.742 1436.83,872.149 1448.37,875.555 1459.91,875.555 1471.45,872.149 1482.99,872.149 1494.53,872.149 1506.07,872.149 1517.61,872.149 
  1529.15,875.555 1540.69,875.555 1552.23,875.555 1563.77,875.555 1575.31,878.962 1586.85,882.369 1598.39,889.183 1609.93,899.404 1621.47,913.031 1633.01,926.659 
  1644.55,940.287 1656.09,957.321 1667.63,974.356 1679.17,994.797 1690.71,1011.83 1702.25,1028.87 1713.79,1045.9 1725.33,1062.94 1736.87,1076.56 1748.41,1090.19 
  1759.95,1103.82 1771.49,1117.45 1783.03,1134.48 1794.57,1148.11 1806.11,1161.74 1817.65,1182.18 1829.19,1206.03 1840.73,1226.47 1852.27,1246.91 1863.81,1263.94 
  1875.35,1284.38 1886.89,1304.83 1898.43,1325.27 1909.97,1342.3 1921.51,1362.74 1933.05,1383.18 1944.59,1390 1956.13,1396.81 1967.67,1400.22 1979.21,1400.22 
  1990.75,1400.22 2002.29,1403.63 2013.83,1407.03 2025.37,1410.44 2036.91,1413.85 2048.45,1417.25 2059.99,1424.07 2071.53,1434.29 2083.07,1441.1 2094.61,1441.1 
  2106.15,1444.51 2117.69,1447.92 2129.23,1454.73 2140.77,1461.54 2152.31,1464.95 2163.85,1464.95 2175.39,1461.54 2186.93,1458.14 2198.47,1461.54 2210.01,1468.36 
  2221.55,1468.36 2233.09,1468.36 2244.63,1464.95 2256.17,1458.14 2267.71,1447.92 2279.25,1444.51 2290.79,1437.7 2302.33,1437.7 2313.87,1437.7 2325.41,1430.88 
  
  "/>
<path clip-path="url(#clip580)" d="
M2069.12 972.231 L2320.54 972.231 L2320.54 868.551 L2069.12 868.551  Z
  " fill="#ffffff" fill-rule="evenodd" fill-opacity="1"/>
<polyline clip-path="url(#clip580)" style="stroke:#000000; stroke-linecap:butt; stroke-linejoin:round; stroke-width:4; stroke-opacity:1; fill:none" points="
  2069.12,972.231 2320.54,972.231 2320.54,868.551 2069.12,868.551 2069.12,972.231 
  "/>
<polyline clip-path="url(#clip580)" style="stroke:#009af9; stroke-linecap:butt; stroke-linejoin:round; stroke-width:4; stroke-opacity:1; fill:none" points="
  2079.86,920.391 2144.28,920.391 
  "/>
<path clip-path="url(#clip580)" d="M2155.02 901.653 L2159.28 901.653 L2159.28 937.671 L2155.02 937.671 L2155.02 901.653 Z" fill="#000000" fill-rule="evenodd" fill-opacity="1" /><path clip-path="url(#clip580)" d="M2189.74 922.023 L2189.74 937.671 L2185.48 937.671 L2185.48 922.162 Q2185.48 918.481 2184.05 916.652 Q2182.61 914.824 2179.74 914.824 Q2176.29 914.824 2174.3 917.023 Q2172.31 919.222 2172.31 923.018 L2172.31 937.671 L2168.03 937.671 L2168.03 911.745 L2172.31 911.745 L2172.31 915.773 Q2173.84 913.435 2175.9 912.278 Q2177.98 911.12 2180.69 911.12 Q2185.16 911.12 2187.45 913.898 Q2189.74 916.652 2189.74 922.023 Z" fill="#000000" fill-rule="evenodd" fill-opacity="1" /><path clip-path="url(#clip580)" d="M2208.47 901.699 Q2205.37 907.023 2203.86 912.231 Q2202.36 917.44 2202.36 922.787 Q2202.36 928.134 2203.86 933.389 Q2205.39 938.62 2208.47 943.921 L2204.76 943.921 Q2201.29 938.481 2199.56 933.226 Q2197.84 927.972 2197.84 922.787 Q2197.84 917.625 2199.56 912.393 Q2201.27 907.162 2204.76 901.699 L2208.47 901.699 Z" fill="#000000" fill-rule="evenodd" fill-opacity="1" /><path clip-path="url(#clip580)" d="M2233.79 915.68 L2233.79 901.653 L2238.05 901.653 L2238.05 937.671 L2233.79 937.671 L2233.79 933.782 Q2232.45 936.097 2230.39 937.231 Q2228.35 938.342 2225.48 938.342 Q2220.78 938.342 2217.82 934.592 Q2214.88 930.842 2214.88 924.731 Q2214.88 918.62 2217.82 914.87 Q2220.78 911.12 2225.48 911.12 Q2228.35 911.12 2230.39 912.254 Q2232.45 913.365 2233.79 915.68 M2219.28 924.731 Q2219.28 929.43 2221.2 932.115 Q2223.14 934.777 2226.52 934.777 Q2229.9 934.777 2231.85 932.115 Q2233.79 929.43 2233.79 924.731 Q2233.79 920.032 2231.85 917.37 Q2229.9 914.685 2226.52 914.685 Q2223.14 914.685 2221.2 917.37 Q2219.28 920.032 2219.28 924.731 Z" fill="#000000" fill-rule="evenodd" fill-opacity="1" /><path clip-path="url(#clip580)" d="M2266.52 945.541 L2266.52 948.851 L2241.89 948.851 L2241.89 945.541 L2266.52 945.541 Z" fill="#000000" fill-rule="evenodd" fill-opacity="1" /><path clip-path="url(#clip580)" d="M2274.74 904.384 L2274.74 911.745 L2283.51 911.745 L2283.51 915.055 L2274.74 915.055 L2274.74 929.129 Q2274.74 932.301 2275.6 933.203 Q2276.48 934.106 2279.14 934.106 L2283.51 934.106 L2283.51 937.671 L2279.14 937.671 Q2274.21 937.671 2272.33 935.842 Q2270.46 933.99 2270.46 929.129 L2270.46 915.055 L2267.33 915.055 L2267.33 911.745 L2270.46 911.745 L2270.46 904.384 L2274.74 904.384 Z" fill="#000000" fill-rule="evenodd" fill-opacity="1" /><path clip-path="url(#clip580)" d="M2288.44 901.699 L2292.15 901.699 Q2295.62 907.162 2297.33 912.393 Q2299.07 917.625 2299.07 922.787 Q2299.07 927.972 2297.33 933.226 Q2295.62 938.481 2292.15 943.921 L2288.44 943.921 Q2291.52 938.62 2293.03 933.389 Q2294.56 928.134 2294.56 922.787 Q2294.56 917.44 2293.03 912.231 Q2291.52 907.023 2288.44 901.699 Z" fill="#000000" fill-rule="evenodd" fill-opacity="1" /></svg>
