<?xml version="1.0" encoding="utf-8"?>
<svg xmlns="http://www.w3.org/2000/svg" xmlns:xlink="http://www.w3.org/1999/xlink" width="600" height="400" viewBox="0 0 2400 1600">
<defs>
  <clipPath id="clip560">
    <rect x="0" y="0" width="2400" height="1600"/>
  </clipPath>
</defs>
<path clip-path="url(#clip560)" d="
M0 1600 L2400 1600 L2400 0 L0 0  Z
  " fill="#ffffff" fill-rule="evenodd" fill-opacity="1"/>
<defs>
  <clipPath id="clip561">
    <rect x="480" y="0" width="1681" height="1600"/>
  </clipPath>
</defs>
<defs>
  <clipPath id="clip562">
    <rect x="234" y="47" width="2120" height="1377"/>
  </clipPath>
</defs>
<path clip-path="url(#clip560)" d="
M232.389 1423.18 L2352.76 1423.18 L2352.76 123.472 L232.389 123.472  Z
  " fill="#ffffff" fill-rule="evenodd" fill-opacity="1"/>
<defs>
  <clipPath id="clip563">
    <rect x="232" y="123" width="2121" height="1301"/>
  </clipPath>
</defs>
<polyline clip-path="url(#clip563)" style="stroke:#000000; stroke-linecap:round; stroke-linejoin:round; stroke-width:2; stroke-opacity:0.1; fill:none" points="
  625.791,1423.18 625.791,123.472 
  "/>
<polyline clip-path="url(#clip563)" style="stroke:#000000; stroke-linecap:round; stroke-linejoin:round; stroke-width:2; stroke-opacity:0.1; fill:none" points="
  1042.53,1423.18 1042.53,123.472 
  "/>
<polyline clip-path="url(#clip563)" style="stroke:#000000; stroke-linecap:round; stroke-linejoin:round; stroke-width:2; stroke-opacity:0.1; fill:none" points="
  1459.27,1423.18 1459.27,123.472 
  "/>
<polyline clip-path="url(#clip563)" style="stroke:#000000; stroke-linecap:round; stroke-linejoin:round; stroke-width:2; stroke-opacity:0.1; fill:none" points="
  1876.01,1423.18 1876.01,123.472 
  "/>
<polyline clip-path="url(#clip563)" style="stroke:#000000; stroke-linecap:round; stroke-linejoin:round; stroke-width:2; stroke-opacity:0.1; fill:none" points="
  2292.75,1423.18 2292.75,123.472 
  "/>
<polyline clip-path="url(#clip560)" style="stroke:#000000; stroke-linecap:round; stroke-linejoin:round; stroke-width:4; stroke-opacity:1; fill:none" points="
  232.389,1423.18 2352.76,1423.18 
  "/>
<polyline clip-path="url(#clip560)" style="stroke:#000000; stroke-linecap:round; stroke-linejoin:round; stroke-width:4; stroke-opacity:1; fill:none" points="
  625.791,1423.18 625.791,1404.28 
  "/>
<polyline clip-path="url(#clip560)" style="stroke:#000000; stroke-linecap:round; stroke-linejoin:round; stroke-width:4; stroke-opacity:1; fill:none" points="
  1042.53,1423.18 1042.53,1404.28 
  "/>
<polyline clip-path="url(#clip560)" style="stroke:#000000; stroke-linecap:round; stroke-linejoin:round; stroke-width:4; stroke-opacity:1; fill:none" points="
  1459.27,1423.18 1459.27,1404.28 
  "/>
<polyline clip-path="url(#clip560)" style="stroke:#000000; stroke-linecap:round; stroke-linejoin:round; stroke-width:4; stroke-opacity:1; fill:none" points="
  1876.01,1423.18 1876.01,1404.28 
  "/>
<polyline clip-path="url(#clip560)" style="stroke:#000000; stroke-linecap:round; stroke-linejoin:round; stroke-width:4; stroke-opacity:1; fill:none" points="
  2292.75,1423.18 2292.75,1404.28 
  "/>
<path clip-path="url(#clip560)" d="M616.069 1451.02 L634.425 1451.02 L634.425 1454.96 L620.351 1454.96 L620.351 1463.43 Q621.369 1463.08 622.388 1462.92 Q623.406 1462.73 624.425 1462.73 Q630.212 1462.73 633.592 1465.9 Q636.971 1469.08 636.971 1474.49 Q636.971 1480.07 633.499 1483.17 Q630.027 1486.25 623.707 1486.25 Q621.531 1486.25 619.263 1485.88 Q617.018 1485.51 614.61 1484.77 L614.61 1480.07 Q616.694 1481.2 618.916 1481.76 Q621.138 1482.32 623.615 1482.32 Q627.619 1482.32 629.957 1480.21 Q632.295 1478.1 632.295 1474.49 Q632.295 1470.88 629.957 1468.77 Q627.619 1466.67 623.615 1466.67 Q621.74 1466.67 619.865 1467.08 Q618.013 1467.5 616.069 1468.38 L616.069 1451.02 Z" fill="#000000" fill-rule="evenodd" fill-opacity="1" /><path clip-path="url(#clip560)" d="M1017.22 1481.64 L1024.86 1481.64 L1024.86 1455.28 L1016.55 1456.95 L1016.55 1452.69 L1024.81 1451.02 L1029.49 1451.02 L1029.49 1481.64 L1037.12 1481.64 L1037.12 1485.58 L1017.22 1485.58 L1017.22 1481.64 Z" fill="#000000" fill-rule="evenodd" fill-opacity="1" /><path clip-path="url(#clip560)" d="M1056.57 1454.1 Q1052.96 1454.1 1051.13 1457.66 Q1049.32 1461.2 1049.32 1468.33 Q1049.32 1475.44 1051.13 1479.01 Q1052.96 1482.55 1056.57 1482.55 Q1060.2 1482.55 1062.01 1479.01 Q1063.84 1475.44 1063.84 1468.33 Q1063.84 1461.2 1062.01 1457.66 Q1060.2 1454.1 1056.57 1454.1 M1056.57 1450.39 Q1062.38 1450.39 1065.43 1455 Q1068.51 1459.58 1068.51 1468.33 Q1068.51 1477.06 1065.43 1481.67 Q1062.38 1486.25 1056.57 1486.25 Q1050.76 1486.25 1047.68 1481.67 Q1044.62 1477.06 1044.62 1468.33 Q1044.62 1459.58 1047.68 1455 Q1050.76 1450.39 1056.57 1450.39 Z" fill="#000000" fill-rule="evenodd" fill-opacity="1" /><path clip-path="url(#clip560)" d="M1434.45 1481.64 L1442.09 1481.64 L1442.09 1455.28 L1433.78 1456.95 L1433.78 1452.69 L1442.05 1451.02 L1446.72 1451.02 L1446.72 1481.64 L1454.36 1481.64 L1454.36 1485.58 L1434.45 1485.58 L1434.45 1481.64 Z" fill="#000000" fill-rule="evenodd" fill-opacity="1" /><path clip-path="url(#clip560)" d="M1463.85 1451.02 L1482.21 1451.02 L1482.21 1454.96 L1468.13 1454.96 L1468.13 1463.43 Q1469.15 1463.08 1470.17 1462.92 Q1471.19 1462.73 1472.21 1462.73 Q1477.99 1462.73 1481.37 1465.9 Q1484.75 1469.08 1484.75 1474.49 Q1484.75 1480.07 1481.28 1483.17 Q1477.81 1486.25 1471.49 1486.25 Q1469.31 1486.25 1467.05 1485.88 Q1464.8 1485.51 1462.39 1484.77 L1462.39 1480.07 Q1464.48 1481.2 1466.7 1481.76 Q1468.92 1482.32 1471.4 1482.32 Q1475.4 1482.32 1477.74 1480.21 Q1480.08 1478.1 1480.08 1474.49 Q1480.08 1470.88 1477.74 1468.77 Q1475.4 1466.67 1471.4 1466.67 Q1469.52 1466.67 1467.65 1467.08 Q1465.8 1467.5 1463.85 1468.38 L1463.85 1451.02 Z" fill="#000000" fill-rule="evenodd" fill-opacity="1" /><path clip-path="url(#clip560)" d="M1854.78 1481.64 L1871.1 1481.64 L1871.1 1485.58 L1849.16 1485.58 L1849.16 1481.64 Q1851.82 1478.89 1856.4 1474.26 Q1861.01 1469.61 1862.19 1468.27 Q1864.43 1465.74 1865.31 1464.01 Q1866.22 1462.25 1866.22 1460.56 Q1866.22 1457.8 1864.27 1456.07 Q1862.35 1454.33 1859.25 1454.33 Q1857.05 1454.33 1854.59 1455.09 Q1852.16 1455.86 1849.39 1457.41 L1849.39 1452.69 Q1852.21 1451.55 1854.66 1450.97 Q1857.12 1450.39 1859.16 1450.39 Q1864.53 1450.39 1867.72 1453.08 Q1870.91 1455.77 1870.91 1460.26 Q1870.91 1462.39 1870.1 1464.31 Q1869.32 1466.2 1867.21 1468.8 Q1866.63 1469.47 1863.53 1472.69 Q1860.43 1475.88 1854.78 1481.64 Z" fill="#000000" fill-rule="evenodd" fill-opacity="1" /><path clip-path="url(#clip560)" d="M1890.91 1454.1 Q1887.3 1454.1 1885.47 1457.66 Q1883.67 1461.2 1883.67 1468.33 Q1883.67 1475.44 1885.47 1479.01 Q1887.3 1482.55 1890.91 1482.55 Q1894.55 1482.55 1896.35 1479.01 Q1898.18 1475.44 1898.18 1468.33 Q1898.18 1461.2 1896.35 1457.66 Q1894.55 1454.1 1890.91 1454.1 M1890.91 1450.39 Q1896.72 1450.39 1899.78 1455 Q1902.86 1459.58 1902.86 1468.33 Q1902.86 1477.06 1899.78 1481.67 Q1896.72 1486.25 1890.91 1486.25 Q1885.1 1486.25 1882.03 1481.67 Q1878.97 1477.06 1878.97 1468.33 Q1878.97 1459.58 1882.03 1455 Q1885.1 1450.39 1890.91 1450.39 Z" fill="#000000" fill-rule="evenodd" fill-opacity="1" /><path clip-path="url(#clip560)" d="M2272.02 1481.64 L2288.34 1481.64 L2288.34 1485.58 L2266.39 1485.58 L2266.39 1481.64 Q2269.05 1478.89 2273.64 1474.26 Q2278.24 1469.61 2279.42 1468.27 Q2281.67 1465.74 2282.55 1464.01 Q2283.45 1462.25 2283.45 1460.56 Q2283.45 1457.8 2281.51 1456.07 Q2279.59 1454.33 2276.48 1454.33 Q2274.28 1454.33 2271.83 1455.09 Q2269.4 1455.86 2266.62 1457.41 L2266.62 1452.69 Q2269.45 1451.55 2271.9 1450.97 Q2274.35 1450.39 2276.39 1450.39 Q2281.76 1450.39 2284.96 1453.08 Q2288.15 1455.77 2288.15 1460.26 Q2288.15 1462.39 2287.34 1464.31 Q2286.55 1466.2 2284.45 1468.8 Q2283.87 1469.47 2280.77 1472.69 Q2277.66 1475.88 2272.02 1481.64 Z" fill="#000000" fill-rule="evenodd" fill-opacity="1" /><path clip-path="url(#clip560)" d="M2298.2 1451.02 L2316.55 1451.02 L2316.55 1454.96 L2302.48 1454.96 L2302.48 1463.43 Q2303.5 1463.08 2304.52 1462.92 Q2305.53 1462.73 2306.55 1462.73 Q2312.34 1462.73 2315.72 1465.9 Q2319.1 1469.08 2319.1 1474.49 Q2319.1 1480.07 2315.63 1483.17 Q2312.16 1486.25 2305.84 1486.25 Q2303.66 1486.25 2301.39 1485.88 Q2299.15 1485.51 2296.74 1484.77 L2296.74 1480.07 Q2298.82 1481.2 2301.04 1481.76 Q2303.27 1482.32 2305.74 1482.32 Q2309.75 1482.32 2312.09 1480.21 Q2314.42 1478.1 2314.42 1474.49 Q2314.42 1470.88 2312.09 1468.77 Q2309.75 1466.67 2305.74 1466.67 Q2303.87 1466.67 2301.99 1467.08 Q2300.14 1467.5 2298.2 1468.38 L2298.2 1451.02 Z" fill="#000000" fill-rule="evenodd" fill-opacity="1" /><path clip-path="url(#clip560)" d="M1238.85 1533.45 L1238.85 1538.98 Q1236.36 1537.71 1233.69 1537.07 Q1231.02 1536.44 1228.15 1536.44 Q1223.79 1536.44 1221.59 1537.77 Q1219.43 1539.11 1219.43 1541.79 Q1219.43 1543.82 1220.99 1545 Q1222.55 1546.15 1227.26 1547.2 L1229.27 1547.64 Q1235.5 1548.98 1238.11 1551.43 Q1240.76 1553.85 1240.76 1558.21 Q1240.76 1563.17 1236.81 1566.07 Q1232.89 1568.97 1226.02 1568.97 Q1223.15 1568.97 1220.04 1568.39 Q1216.95 1567.85 1213.51 1566.74 L1213.51 1560.69 Q1216.76 1562.38 1219.91 1563.24 Q1223.06 1564.07 1226.15 1564.07 Q1230.28 1564.07 1232.51 1562.66 Q1234.74 1561.23 1234.74 1558.65 Q1234.74 1556.27 1233.12 1554.99 Q1231.53 1553.72 1226.08 1552.54 L1224.05 1552.07 Q1218.6 1550.92 1216.18 1548.56 Q1213.77 1546.18 1213.77 1542.04 Q1213.77 1537.01 1217.33 1534.27 Q1220.89 1531.54 1227.45 1531.54 Q1230.7 1531.54 1233.56 1532.01 Q1236.43 1532.49 1238.85 1533.45 Z" fill="#000000" fill-rule="evenodd" fill-opacity="1" /><path clip-path="url(#clip560)" d="M1255.87 1522.27 L1255.87 1532.4 L1267.94 1532.4 L1267.94 1536.95 L1255.87 1536.95 L1255.87 1556.3 Q1255.87 1560.66 1257.05 1561.9 Q1258.26 1563.14 1261.92 1563.14 L1267.94 1563.14 L1267.94 1568.04 L1261.92 1568.04 Q1255.14 1568.04 1252.56 1565.53 Q1249.99 1562.98 1249.99 1556.3 L1249.99 1536.95 L1245.69 1536.95 L1245.69 1532.4 L1249.99 1532.4 L1249.99 1522.27 L1255.87 1522.27 Z" fill="#000000" fill-rule="evenodd" fill-opacity="1" /><path clip-path="url(#clip560)" d="M1291.84 1550.12 Q1284.74 1550.12 1282.01 1551.75 Q1279.27 1553.37 1279.27 1557.29 Q1279.27 1560.4 1281.31 1562.25 Q1283.37 1564.07 1286.91 1564.07 Q1291.78 1564.07 1294.71 1560.63 Q1297.67 1557.16 1297.67 1551.43 L1297.67 1550.12 L1291.84 1550.12 M1303.52 1547.71 L1303.52 1568.04 L1297.67 1568.04 L1297.67 1562.63 Q1295.66 1565.88 1292.67 1567.44 Q1289.68 1568.97 1285.35 1568.97 Q1279.87 1568.97 1276.63 1565.91 Q1273.41 1562.82 1273.41 1557.67 Q1273.41 1551.65 1277.42 1548.6 Q1281.46 1545.54 1289.45 1545.54 L1297.67 1545.54 L1297.67 1544.97 Q1297.67 1540.93 1294.99 1538.73 Q1292.35 1536.5 1287.54 1536.5 Q1284.49 1536.5 1281.59 1537.23 Q1278.7 1537.97 1276.02 1539.43 L1276.02 1534.02 Q1279.24 1532.78 1282.26 1532.17 Q1285.28 1531.54 1288.15 1531.54 Q1295.88 1531.54 1299.7 1535.55 Q1303.52 1539.56 1303.52 1547.71 Z" fill="#000000" fill-rule="evenodd" fill-opacity="1" /><path clip-path="url(#clip560)" d="M1321.38 1522.27 L1321.38 1532.4 L1333.44 1532.4 L1333.44 1536.95 L1321.38 1536.95 L1321.38 1556.3 Q1321.38 1560.66 1322.56 1561.9 Q1323.76 1563.14 1327.42 1563.14 L1333.44 1563.14 L1333.44 1568.04 L1327.42 1568.04 Q1320.65 1568.04 1318.07 1565.53 Q1315.49 1562.98 1315.49 1556.3 L1315.49 1536.95 L1311.19 1536.95 L1311.19 1532.4 L1315.49 1532.4 L1315.49 1522.27 L1321.38 1522.27 Z" fill="#000000" fill-rule="evenodd" fill-opacity="1" /><path clip-path="url(#clip560)" d="M1371.63 1548.76 L1371.63 1551.62 L1344.71 1551.62 Q1345.09 1557.67 1348.34 1560.85 Q1351.61 1564 1357.44 1564 Q1360.81 1564 1363.96 1563.17 Q1367.15 1562.35 1370.27 1560.69 L1370.27 1566.23 Q1367.12 1567.57 1363.8 1568.27 Q1360.49 1568.97 1357.09 1568.97 Q1348.56 1568.97 1343.56 1564 Q1338.6 1559.04 1338.6 1550.57 Q1338.6 1541.82 1343.31 1536.69 Q1348.05 1531.54 1356.07 1531.54 Q1363.26 1531.54 1367.43 1536.18 Q1371.63 1540.8 1371.63 1548.76 M1365.78 1547.04 Q1365.71 1542.23 1363.07 1539.37 Q1360.46 1536.5 1356.13 1536.5 Q1351.23 1536.5 1348.27 1539.27 Q1345.34 1542.04 1344.9 1547.07 L1365.78 1547.04 Z" fill="#000000" fill-rule="evenodd" fill-opacity="1" /><polyline clip-path="url(#clip563)" style="stroke:#000000; stroke-linecap:round; stroke-linejoin:round; stroke-width:2; stroke-opacity:0.1; fill:none" points="
  232.389,1312.39 2352.76,1312.39 
  "/>
<polyline clip-path="url(#clip563)" style="stroke:#000000; stroke-linecap:round; stroke-linejoin:round; stroke-width:2; stroke-opacity:0.1; fill:none" points="
  232.389,1022.56 2352.76,1022.56 
  "/>
<polyline clip-path="url(#clip563)" style="stroke:#000000; stroke-linecap:round; stroke-linejoin:round; stroke-width:2; stroke-opacity:0.1; fill:none" points="
  232.389,732.722 2352.76,732.722 
  "/>
<polyline clip-path="url(#clip563)" style="stroke:#000000; stroke-linecap:round; stroke-linejoin:round; stroke-width:2; stroke-opacity:0.1; fill:none" points="
  232.389,442.886 2352.76,442.886 
  "/>
<polyline clip-path="url(#clip563)" style="stroke:#000000; stroke-linecap:round; stroke-linejoin:round; stroke-width:2; stroke-opacity:0.1; fill:none" points="
  232.389,153.05 2352.76,153.05 
  "/>
<polyline clip-path="url(#clip560)" style="stroke:#000000; stroke-linecap:round; stroke-linejoin:round; stroke-width:4; stroke-opacity:1; fill:none" points="
  232.389,1423.18 232.389,123.472 
  "/>
<polyline clip-path="url(#clip560)" style="stroke:#000000; stroke-linecap:round; stroke-linejoin:round; stroke-width:4; stroke-opacity:1; fill:none" points="
  232.389,1312.39 251.287,1312.39 
  "/>
<polyline clip-path="url(#clip560)" style="stroke:#000000; stroke-linecap:round; stroke-linejoin:round; stroke-width:4; stroke-opacity:1; fill:none" points="
  232.389,1022.56 251.287,1022.56 
  "/>
<polyline clip-path="url(#clip560)" style="stroke:#000000; stroke-linecap:round; stroke-linejoin:round; stroke-width:4; stroke-opacity:1; fill:none" points="
  232.389,732.722 251.287,732.722 
  "/>
<polyline clip-path="url(#clip560)" style="stroke:#000000; stroke-linecap:round; stroke-linejoin:round; stroke-width:4; stroke-opacity:1; fill:none" points="
  232.389,442.886 251.287,442.886 
  "/>
<polyline clip-path="url(#clip560)" style="stroke:#000000; stroke-linecap:round; stroke-linejoin:round; stroke-width:4; stroke-opacity:1; fill:none" points="
  232.389,153.05 251.287,153.05 
  "/>
<path clip-path="url(#clip560)" d="M148.311 1325.74 L164.63 1325.74 L164.63 1329.67 L142.686 1329.67 L142.686 1325.74 Q145.348 1322.98 149.931 1318.35 Q154.538 1313.7 155.718 1312.36 Q157.964 1309.83 158.843 1308.1 Q159.746 1306.34 159.746 1304.65 Q159.746 1301.89 157.802 1300.16 Q155.88 1298.42 152.778 1298.42 Q150.579 1298.42 148.126 1299.19 Q145.695 1299.95 142.917 1301.5 L142.917 1296.78 Q145.741 1295.65 148.195 1295.07 Q150.649 1294.49 152.686 1294.49 Q158.056 1294.49 161.251 1297.17 Q164.445 1299.86 164.445 1304.35 Q164.445 1306.48 163.635 1308.4 Q162.848 1310.3 160.741 1312.89 Q160.163 1313.56 157.061 1316.78 Q153.959 1319.97 148.311 1325.74 Z" fill="#000000" fill-rule="evenodd" fill-opacity="1" /><path clip-path="url(#clip560)" d="M184.445 1298.19 Q180.834 1298.19 179.005 1301.76 Q177.2 1305.3 177.2 1312.43 Q177.2 1319.53 179.005 1323.1 Q180.834 1326.64 184.445 1326.64 Q188.079 1326.64 189.885 1323.1 Q191.713 1319.53 191.713 1312.43 Q191.713 1305.3 189.885 1301.76 Q188.079 1298.19 184.445 1298.19 M184.445 1294.49 Q190.255 1294.49 193.311 1299.09 Q196.389 1303.68 196.389 1312.43 Q196.389 1321.15 193.311 1325.76 Q190.255 1330.34 184.445 1330.34 Q178.635 1330.34 175.556 1325.76 Q172.501 1321.15 172.501 1312.43 Q172.501 1303.68 175.556 1299.09 Q178.635 1294.49 184.445 1294.49 Z" fill="#000000" fill-rule="evenodd" fill-opacity="1" /><path clip-path="url(#clip560)" d="M157.13 1009.35 L145.325 1027.8 L157.13 1027.8 L157.13 1009.35 M155.903 1005.28 L161.783 1005.28 L161.783 1027.8 L166.714 1027.8 L166.714 1031.69 L161.783 1031.69 L161.783 1039.84 L157.13 1039.84 L157.13 1031.69 L141.529 1031.69 L141.529 1027.18 L155.903 1005.28 Z" fill="#000000" fill-rule="evenodd" fill-opacity="1" /><path clip-path="url(#clip560)" d="M184.445 1008.36 Q180.834 1008.36 179.005 1011.92 Q177.2 1015.46 177.2 1022.59 Q177.2 1029.7 179.005 1033.26 Q180.834 1036.8 184.445 1036.8 Q188.079 1036.8 189.885 1033.26 Q191.713 1029.7 191.713 1022.59 Q191.713 1015.46 189.885 1011.92 Q188.079 1008.36 184.445 1008.36 M184.445 1004.65 Q190.255 1004.65 193.311 1009.26 Q196.389 1013.84 196.389 1022.59 Q196.389 1031.32 193.311 1035.93 Q190.255 1040.51 184.445 1040.51 Q178.635 1040.51 175.556 1035.93 Q172.501 1031.32 172.501 1022.59 Q172.501 1013.84 175.556 1009.26 Q178.635 1004.65 184.445 1004.65 Z" fill="#000000" fill-rule="evenodd" fill-opacity="1" /><path clip-path="url(#clip560)" d="M154.862 730.858 Q151.714 730.858 149.862 733.011 Q148.033 735.164 148.033 738.914 Q148.033 742.64 149.862 744.816 Q151.714 746.969 154.862 746.969 Q158.01 746.969 159.839 744.816 Q161.69 742.64 161.69 738.914 Q161.69 735.164 159.839 733.011 Q158.01 730.858 154.862 730.858 M164.144 716.205 L164.144 720.465 Q162.385 719.631 160.579 719.191 Q158.797 718.752 157.038 718.752 Q152.408 718.752 149.954 721.877 Q147.524 725.002 147.177 731.321 Q148.542 729.307 150.603 728.242 Q152.663 727.154 155.14 727.154 Q160.348 727.154 163.357 730.326 Q166.39 733.474 166.39 738.914 Q166.39 744.238 163.241 747.455 Q160.093 750.673 154.862 750.673 Q148.866 750.673 145.695 746.089 Q142.524 741.483 142.524 732.756 Q142.524 724.562 146.413 719.701 Q150.302 714.817 156.853 714.817 Q158.612 714.817 160.394 715.164 Q162.2 715.511 164.144 716.205 Z" fill="#000000" fill-rule="evenodd" fill-opacity="1" /><path clip-path="url(#clip560)" d="M184.445 718.52 Q180.834 718.52 179.005 722.085 Q177.2 725.627 177.2 732.756 Q177.2 739.863 179.005 743.427 Q180.834 746.969 184.445 746.969 Q188.079 746.969 189.885 743.427 Q191.713 739.863 191.713 732.756 Q191.713 725.627 189.885 722.085 Q188.079 718.52 184.445 718.52 M184.445 714.817 Q190.255 714.817 193.311 719.423 Q196.389 724.006 196.389 732.756 Q196.389 741.483 193.311 746.089 Q190.255 750.673 184.445 750.673 Q178.635 750.673 175.556 746.089 Q172.501 741.483 172.501 732.756 Q172.501 724.006 175.556 719.423 Q178.635 714.817 184.445 714.817 Z" fill="#000000" fill-rule="evenodd" fill-opacity="1" /><path clip-path="url(#clip560)" d="M154.283 443.754 Q150.95 443.754 149.028 445.536 Q147.13 447.319 147.13 450.444 Q147.13 453.569 149.028 455.351 Q150.95 457.134 154.283 457.134 Q157.616 457.134 159.538 455.351 Q161.459 453.546 161.459 450.444 Q161.459 447.319 159.538 445.536 Q157.64 443.754 154.283 443.754 M149.607 441.763 Q146.598 441.023 144.908 438.962 Q143.241 436.902 143.241 433.939 Q143.241 429.796 146.181 427.388 Q149.144 424.981 154.283 424.981 Q159.445 424.981 162.385 427.388 Q165.325 429.796 165.325 433.939 Q165.325 436.902 163.635 438.962 Q161.968 441.023 158.982 441.763 Q162.362 442.55 164.237 444.842 Q166.135 447.134 166.135 450.444 Q166.135 455.467 163.056 458.152 Q160.001 460.837 154.283 460.837 Q148.566 460.837 145.487 458.152 Q142.431 455.467 142.431 450.444 Q142.431 447.134 144.329 444.842 Q146.228 442.55 149.607 441.763 M147.894 434.379 Q147.894 437.064 149.561 438.569 Q151.251 440.073 154.283 440.073 Q157.292 440.073 158.982 438.569 Q160.695 437.064 160.695 434.379 Q160.695 431.694 158.982 430.189 Q157.292 428.685 154.283 428.685 Q151.251 428.685 149.561 430.189 Q147.894 431.694 147.894 434.379 Z" fill="#000000" fill-rule="evenodd" fill-opacity="1" /><path clip-path="url(#clip560)" d="M184.445 428.685 Q180.834 428.685 179.005 432.249 Q177.2 435.791 177.2 442.921 Q177.2 450.027 179.005 453.592 Q180.834 457.134 184.445 457.134 Q188.079 457.134 189.885 453.592 Q191.713 450.027 191.713 442.921 Q191.713 435.791 189.885 432.249 Q188.079 428.685 184.445 428.685 M184.445 424.981 Q190.255 424.981 193.311 429.587 Q196.389 434.171 196.389 442.921 Q196.389 451.647 193.311 456.254 Q190.255 460.837 184.445 460.837 Q178.635 460.837 175.556 456.254 Q172.501 451.647 172.501 442.921 Q172.501 434.171 175.556 429.587 Q178.635 424.981 184.445 424.981 Z" fill="#000000" fill-rule="evenodd" fill-opacity="1" /><path clip-path="url(#clip560)" d="M114.931 166.395 L122.57 166.395 L122.57 140.03 L114.26 141.696 L114.26 137.437 L122.524 135.77 L127.2 135.77 L127.2 166.395 L134.839 166.395 L134.839 170.33 L114.931 170.33 L114.931 166.395 Z" fill="#000000" fill-rule="evenodd" fill-opacity="1" /><path clip-path="url(#clip560)" d="M154.283 138.849 Q150.672 138.849 148.843 142.414 Q147.038 145.956 147.038 153.085 Q147.038 160.192 148.843 163.756 Q150.672 167.298 154.283 167.298 Q157.917 167.298 159.723 163.756 Q161.552 160.192 161.552 153.085 Q161.552 145.956 159.723 142.414 Q157.917 138.849 154.283 138.849 M154.283 135.145 Q160.093 135.145 163.149 139.752 Q166.227 144.335 166.227 153.085 Q166.227 161.812 163.149 166.418 Q160.093 171.002 154.283 171.002 Q148.473 171.002 145.394 166.418 Q142.339 161.812 142.339 153.085 Q142.339 144.335 145.394 139.752 Q148.473 135.145 154.283 135.145 Z" fill="#000000" fill-rule="evenodd" fill-opacity="1" /><path clip-path="url(#clip560)" d="M184.445 138.849 Q180.834 138.849 179.005 142.414 Q177.2 145.956 177.2 153.085 Q177.2 160.192 179.005 163.756 Q180.834 167.298 184.445 167.298 Q188.079 167.298 189.885 163.756 Q191.713 160.192 191.713 153.085 Q191.713 145.956 189.885 142.414 Q188.079 138.849 184.445 138.849 M184.445 135.145 Q190.255 135.145 193.311 139.752 Q196.389 144.335 196.389 153.085 Q196.389 161.812 193.311 166.418 Q190.255 171.002 184.445 171.002 Q178.635 171.002 175.556 166.418 Q172.501 161.812 172.501 153.085 Q172.501 144.335 175.556 139.752 Q178.635 135.145 184.445 135.145 Z" fill="#000000" fill-rule="evenodd" fill-opacity="1" /><path clip-path="url(#clip560)" d="M58.657 1081.25 L77.5631 1081.25 L77.5631 1087.14 L28.3562 1087.14 L28.3562 1081.25 L33.7671 1081.25 Q30.5842 1079.41 29.0564 1076.6 Q27.4968 1073.77 27.4968 1069.86 Q27.4968 1063.36 32.6531 1059.32 Q37.8093 1055.25 46.212 1055.25 Q54.6147 1055.25 59.771 1059.32 Q64.9272 1063.36 64.9272 1069.86 Q64.9272 1073.77 63.3994 1076.6 Q61.8398 1079.41 58.657 1081.25 M46.212 1061.33 Q39.7508 1061.33 36.0905 1064 Q32.3984 1066.64 32.3984 1071.29 Q32.3984 1075.94 36.0905 1078.61 Q39.7508 1081.25 46.212 1081.25 Q52.6732 1081.25 56.3653 1078.61 Q60.0256 1075.94 60.0256 1071.29 Q60.0256 1066.64 56.3653 1064 Q52.6732 1061.33 46.212 1061.33 Z" fill="#000000" fill-rule="evenodd" fill-opacity="1" /><path clip-path="url(#clip560)" d="M33.8307 1024.88 Q33.2578 1025.87 33.0032 1027.05 Q32.7167 1028.19 32.7167 1029.59 Q32.7167 1034.56 35.9632 1037.23 Q39.1779 1039.87 45.2253 1039.87 L64.0042 1039.87 L64.0042 1045.76 L28.3562 1045.76 L28.3562 1039.87 L33.8944 1039.87 Q30.6479 1038.03 29.0883 1035.07 Q27.4968 1032.11 27.4968 1027.87 Q27.4968 1027.27 27.5923 1026.54 Q27.656 1025.81 27.8151 1024.91 L33.8307 1024.88 Z" fill="#000000" fill-rule="evenodd" fill-opacity="1" /><path clip-path="url(#clip560)" d="M28.3562 1018.74 L28.3562 1012.88 L64.0042 1012.88 L64.0042 1018.74 L28.3562 1018.74 M14.479 1018.74 L14.479 1012.88 L21.895 1012.88 L21.895 1018.74 L14.479 1018.74 Z" fill="#000000" fill-rule="evenodd" fill-opacity="1" /><path clip-path="url(#clip560)" d="M29.7248 974.976 L35.1993 974.976 Q33.8307 977.458 33.1623 979.973 Q32.4621 982.455 32.4621 985.002 Q32.4621 990.699 36.0905 993.85 Q39.6872 997.001 46.212 997.001 Q52.7369 997.001 56.3653 993.85 Q59.9619 990.699 59.9619 985.002 Q59.9619 982.455 59.2935 979.973 Q58.5933 977.458 57.2247 974.976 L62.6355 974.976 Q63.7814 977.426 64.3543 980.068 Q64.9272 982.678 64.9272 985.638 Q64.9272 993.691 59.8664 998.433 Q54.8057 1003.18 46.212 1003.18 Q37.491 1003.18 32.4939 998.401 Q27.4968 993.595 27.4968 985.256 Q27.4968 982.551 28.0697 979.973 Q28.6108 977.395 29.7248 974.976 Z" fill="#000000" fill-rule="evenodd" fill-opacity="1" /><path clip-path="url(#clip560)" d="M44.7161 934.299 L47.5806 934.299 L47.5806 961.226 Q53.6281 960.844 56.8109 957.597 Q59.9619 954.319 59.9619 948.494 Q59.9619 945.12 59.1344 941.969 Q58.3069 938.787 56.6518 935.667 L62.1899 935.667 Q63.5267 938.818 64.227 942.129 Q64.9272 945.439 64.9272 948.844 Q64.9272 957.374 59.9619 962.372 Q54.9967 967.337 46.5303 967.337 Q37.7774 967.337 32.6531 962.626 Q27.4968 957.884 27.4968 949.863 Q27.4968 942.67 32.1438 938.5 Q36.7589 934.299 44.7161 934.299 M42.9973 940.155 Q38.1912 940.219 35.3266 942.861 Q32.4621 945.471 32.4621 949.799 Q32.4621 954.701 35.2312 957.661 Q38.0002 960.589 43.0292 961.035 L42.9973 940.155 Z" fill="#000000" fill-rule="evenodd" fill-opacity="1" /><path clip-path="url(#clip560)" d="M43.5384 927.647 L43.5384 910.491 L48.7583 910.491 L48.7583 927.647 L43.5384 927.647 Z" fill="#000000" fill-rule="evenodd" fill-opacity="1" /><path clip-path="url(#clip560)" d="M33.7671 877.708 L14.479 877.708 L14.479 871.851 L64.0042 871.851 L64.0042 877.708 L58.657 877.708 Q61.8398 879.554 63.3994 882.386 Q64.9272 885.187 64.9272 889.134 Q64.9272 895.595 59.771 899.669 Q54.6147 903.712 46.212 903.712 Q37.8093 903.712 32.6531 899.669 Q27.4968 895.595 27.4968 889.134 Q27.4968 885.187 29.0564 882.386 Q30.5842 879.554 33.7671 877.708 M46.212 897.664 Q52.6732 897.664 56.3653 895.022 Q60.0256 892.349 60.0256 887.702 Q60.0256 883.055 56.3653 880.381 Q52.6732 877.708 46.212 877.708 Q39.7508 877.708 36.0905 880.381 Q32.3984 883.055 32.3984 887.702 Q32.3984 892.349 36.0905 895.022 Q39.7508 897.664 46.212 897.664 Z" fill="#000000" fill-rule="evenodd" fill-opacity="1" /><path clip-path="url(#clip560)" d="M28.3562 859.788 L28.3562 853.932 L64.0042 853.932 L64.0042 859.788 L28.3562 859.788 M14.479 859.788 L14.479 853.932 L21.895 853.932 L21.895 859.788 L14.479 859.788 Z" fill="#000000" fill-rule="evenodd" fill-opacity="1" /><path clip-path="url(#clip560)" d="M28.3562 845.879 L28.3562 839.673 L58.275 828.533 L28.3562 817.393 L28.3562 811.186 L64.0042 824.554 L64.0042 832.511 L28.3562 845.879 Z" fill="#000000" fill-rule="evenodd" fill-opacity="1" /><path clip-path="url(#clip560)" d="M28.3562 803.102 L28.3562 797.245 L64.0042 797.245 L64.0042 803.102 L28.3562 803.102 M14.479 803.102 L14.479 797.245 L21.895 797.245 L21.895 803.102 L14.479 803.102 Z" fill="#000000" fill-rule="evenodd" fill-opacity="1" /><path clip-path="url(#clip560)" d="M33.7671 761.534 L14.479 761.534 L14.479 755.677 L64.0042 755.677 L64.0042 761.534 L58.657 761.534 Q61.8398 763.38 63.3994 766.212 Q64.9272 769.013 64.9272 772.96 Q64.9272 779.421 59.771 783.495 Q54.6147 787.537 46.212 787.537 Q37.8093 787.537 32.6531 783.495 Q27.4968 779.421 27.4968 772.96 Q27.4968 769.013 29.0564 766.212 Q30.5842 763.38 33.7671 761.534 M46.212 781.49 Q52.6732 781.49 56.3653 778.848 Q60.0256 776.175 60.0256 771.528 Q60.0256 766.881 56.3653 764.207 Q52.6732 761.534 46.212 761.534 Q39.7508 761.534 36.0905 764.207 Q32.3984 766.881 32.3984 771.528 Q32.3984 776.175 36.0905 778.848 Q39.7508 781.49 46.212 781.49 Z" fill="#000000" fill-rule="evenodd" fill-opacity="1" /><path clip-path="url(#clip560)" d="M44.7161 713.122 L47.5806 713.122 L47.5806 740.049 Q53.6281 739.667 56.8109 736.421 Q59.9619 733.142 59.9619 727.318 Q59.9619 723.944 59.1344 720.793 Q58.3069 717.61 56.6518 714.491 L62.1899 714.491 Q63.5267 717.642 64.227 720.952 Q64.9272 724.262 64.9272 727.668 Q64.9272 736.198 59.9619 741.195 Q54.9967 746.16 46.5303 746.16 Q37.7774 746.16 32.6531 741.45 Q27.4968 736.707 27.4968 728.686 Q27.4968 721.493 32.1438 717.324 Q36.7589 713.122 44.7161 713.122 M42.9973 718.979 Q38.1912 719.042 35.3266 721.684 Q32.4621 724.294 32.4621 728.623 Q32.4621 733.524 35.2312 736.484 Q38.0002 739.413 43.0292 739.858 L42.9973 718.979 Z" fill="#000000" fill-rule="evenodd" fill-opacity="1" /><path clip-path="url(#clip560)" d="M42.4881 673.878 L64.0042 673.878 L64.0042 679.734 L42.679 679.734 Q37.6183 679.734 35.1038 681.708 Q32.5894 683.681 32.5894 687.628 Q32.5894 692.37 35.6131 695.107 Q38.6368 697.845 43.8567 697.845 L64.0042 697.845 L64.0042 703.733 L28.3562 703.733 L28.3562 697.845 L33.8944 697.845 Q30.6797 695.744 29.0883 692.911 Q27.4968 690.047 27.4968 686.323 Q27.4968 680.18 31.3163 677.029 Q35.1038 673.878 42.4881 673.878 Z" fill="#000000" fill-rule="evenodd" fill-opacity="1" /><path clip-path="url(#clip560)" d="M33.7671 638.739 L14.479 638.739 L14.479 632.883 L64.0042 632.883 L64.0042 638.739 L58.657 638.739 Q61.8398 640.585 63.3994 643.418 Q64.9272 646.219 64.9272 650.165 Q64.9272 656.627 59.771 660.701 Q54.6147 664.743 46.212 664.743 Q37.8093 664.743 32.6531 660.701 Q27.4968 656.627 27.4968 650.165 Q27.4968 646.219 29.0564 643.418 Q30.5842 640.585 33.7671 638.739 M46.212 658.696 Q52.6732 658.696 56.3653 656.054 Q60.0256 653.38 60.0256 648.733 Q60.0256 644.086 56.3653 641.413 Q52.6732 638.739 46.212 638.739 Q39.7508 638.739 36.0905 641.413 Q32.3984 644.086 32.3984 648.733 Q32.3984 653.38 36.0905 656.054 Q39.7508 658.696 46.212 658.696 Z" fill="#000000" fill-rule="evenodd" fill-opacity="1" /><path clip-path="url(#clip560)" d="M33.8307 579.442 Q33.2578 580.429 33.0032 581.607 Q32.7167 582.753 32.7167 584.153 Q32.7167 589.118 35.9632 591.792 Q39.1779 594.434 45.2253 594.434 L64.0042 594.434 L64.0042 600.322 L28.3562 600.322 L28.3562 594.434 L33.8944 594.434 Q30.6479 592.588 29.0883 589.628 Q27.4968 586.668 27.4968 582.434 Q27.4968 581.83 27.5923 581.098 Q27.656 580.366 27.8151 579.474 L33.8307 579.442 Z" fill="#000000" fill-rule="evenodd" fill-opacity="1" /><path clip-path="url(#clip560)" d="M46.0847 557.099 Q46.0847 564.197 47.7079 566.934 Q49.3312 569.671 53.2461 569.671 Q56.3653 569.671 58.2114 567.634 Q60.0256 565.565 60.0256 562.032 Q60.0256 557.163 56.5881 554.234 Q53.1188 551.274 47.3897 551.274 L46.0847 551.274 L46.0847 557.099 M43.6657 545.418 L64.0042 545.418 L64.0042 551.274 L58.5933 551.274 Q61.8398 553.279 63.3994 556.271 Q64.9272 559.263 64.9272 563.592 Q64.9272 569.066 61.8716 572.313 Q58.7843 575.528 53.6281 575.528 Q47.6125 575.528 44.5569 571.517 Q41.5014 567.475 41.5014 559.486 L41.5014 551.274 L40.9285 551.274 Q36.8862 551.274 34.6901 553.948 Q32.4621 556.59 32.4621 561.396 Q32.4621 564.451 33.1941 567.348 Q33.9262 570.244 35.3903 572.918 L29.9795 572.918 Q28.7381 569.703 28.1334 566.679 Q27.4968 563.656 27.4968 560.791 Q27.4968 553.057 31.5072 549.237 Q35.5176 545.418 43.6657 545.418 Z" fill="#000000" fill-rule="evenodd" fill-opacity="1" /><path clip-path="url(#clip560)" d="M18.2347 527.562 L28.3562 527.562 L28.3562 515.499 L32.9077 515.499 L32.9077 527.562 L52.2594 527.562 Q56.6199 527.562 57.8613 526.384 Q59.1026 525.175 59.1026 521.515 L59.1026 515.499 L64.0042 515.499 L64.0042 521.515 Q64.0042 528.294 61.4897 530.872 Q58.9434 533.45 52.2594 533.45 L32.9077 533.45 L32.9077 537.747 L28.3562 537.747 L28.3562 533.45 L18.2347 533.45 L18.2347 527.562 Z" fill="#000000" fill-rule="evenodd" fill-opacity="1" /><path clip-path="url(#clip560)" d="M28.3562 507.796 L28.3562 501.94 L64.0042 501.94 L64.0042 507.796 L28.3562 507.796 M14.479 507.796 L14.479 501.94 L21.895 501.94 L21.895 507.796 L14.479 507.796 Z" fill="#000000" fill-rule="evenodd" fill-opacity="1" /><path clip-path="url(#clip560)" d="M32.4621 475.872 Q32.4621 480.583 36.1542 483.32 Q39.8145 486.058 46.212 486.058 Q52.6095 486.058 56.3017 483.352 Q59.9619 480.615 59.9619 475.872 Q59.9619 471.194 56.2698 468.456 Q52.5777 465.719 46.212 465.719 Q39.8781 465.719 36.186 468.456 Q32.4621 471.194 32.4621 475.872 M27.4968 475.872 Q27.4968 468.234 32.4621 463.873 Q37.4273 459.513 46.212 459.513 Q54.9649 459.513 59.9619 463.873 Q64.9272 468.234 64.9272 475.872 Q64.9272 483.543 59.9619 487.904 Q54.9649 492.232 46.212 492.232 Q37.4273 492.232 32.4621 487.904 Q27.4968 483.543 27.4968 475.872 Z" fill="#000000" fill-rule="evenodd" fill-opacity="1" /><path clip-path="url(#clip560)" d="M369.493 18.8205 L369.493 41.5461 L379.782 41.5461 Q385.494 41.5461 388.613 38.5889 Q391.733 35.6318 391.733 30.163 Q391.733 24.7348 388.613 21.7777 Q385.494 18.8205 379.782 18.8205 L369.493 18.8205 M361.31 12.096 L379.782 12.096 Q389.95 12.096 395.135 16.714 Q400.361 21.2916 400.361 30.163 Q400.361 39.1155 395.135 43.6931 Q389.95 48.2706 379.782 48.2706 L369.493 48.2706 L369.493 72.576 L361.31 72.576 L361.31 12.096 Z" fill="#000000" fill-rule="evenodd" fill-opacity="1" /><path clip-path="url(#clip560)" d="M435.847 34.1734 Q434.591 33.4443 433.092 33.1202 Q431.634 32.7556 429.852 32.7556 Q423.532 32.7556 420.129 36.8875 Q416.767 40.9789 416.767 48.6757 L416.767 72.576 L409.273 72.576 L409.273 27.2059 L416.767 27.2059 L416.767 34.2544 Q419.117 30.1225 422.884 28.1376 Q426.651 26.1121 432.039 26.1121 Q432.809 26.1121 433.74 26.2337 Q434.672 26.3147 435.806 26.5172 L435.847 34.1734 Z" fill="#000000" fill-rule="evenodd" fill-opacity="1" /><path clip-path="url(#clip560)" d="M443.665 27.2059 L451.119 27.2059 L451.119 72.576 L443.665 72.576 L443.665 27.2059 M443.665 9.54393 L451.119 9.54393 L451.119 18.9825 L443.665 18.9825 L443.665 9.54393 Z" fill="#000000" fill-rule="evenodd" fill-opacity="1" /><path clip-path="url(#clip560)" d="M499.365 28.9478 L499.365 35.9153 Q496.205 34.1734 493.005 33.3227 Q489.845 32.4315 486.605 32.4315 Q479.354 32.4315 475.343 37.0496 Q471.333 41.6271 471.333 49.9314 Q471.333 58.2358 475.343 62.8538 Q479.354 67.4314 486.605 67.4314 Q489.845 67.4314 493.005 66.5807 Q496.205 65.6895 499.365 63.9476 L499.365 70.8341 Q496.246 72.2924 492.884 73.0216 Q489.562 73.7508 485.795 73.7508 Q475.546 73.7508 469.51 67.3098 Q463.474 60.8689 463.474 49.9314 Q463.474 38.832 469.55 32.472 Q475.667 26.1121 486.281 26.1121 Q489.724 26.1121 493.005 26.8413 Q496.286 27.5299 499.365 28.9478 Z" fill="#000000" fill-rule="evenodd" fill-opacity="1" /><path clip-path="url(#clip560)" d="M551.136 48.0275 L551.136 51.6733 L516.865 51.6733 Q517.351 59.3701 521.483 63.421 Q525.655 67.4314 533.069 67.4314 Q537.363 67.4314 541.373 66.3781 Q545.424 65.3249 549.394 63.2184 L549.394 70.267 Q545.383 71.9684 541.17 72.8596 Q536.957 73.7508 532.623 73.7508 Q521.767 73.7508 515.407 67.4314 Q509.087 61.1119 509.087 50.3365 Q509.087 39.1965 515.083 32.6746 Q521.118 26.1121 531.327 26.1121 Q540.482 26.1121 545.788 32.0264 Q551.136 37.9003 551.136 48.0275 M543.682 45.84 Q543.601 39.7232 540.239 36.0774 Q536.917 32.4315 531.408 32.4315 Q525.169 32.4315 521.402 35.9558 Q517.675 39.4801 517.108 45.8805 L543.682 45.84 Z" fill="#000000" fill-rule="evenodd" fill-opacity="1" /><path clip-path="url(#clip560)" d="M559.602 46.5287 L581.436 46.5287 L581.436 53.1722 L559.602 53.1722 L559.602 46.5287 Z" fill="#000000" fill-rule="evenodd" fill-opacity="1" /><path clip-path="url(#clip560)" d="M623.161 34.0924 L623.161 9.54393 L630.614 9.54393 L630.614 72.576 L623.161 72.576 L623.161 65.7705 Q620.811 69.8214 617.206 71.8063 Q613.641 73.7508 608.618 73.7508 Q600.395 73.7508 595.209 67.1883 Q590.065 60.6258 590.065 49.9314 Q590.065 39.2371 595.209 32.6746 Q600.395 26.1121 608.618 26.1121 Q613.641 26.1121 617.206 28.0971 Q620.811 30.0415 623.161 34.0924 M597.762 49.9314 Q597.762 58.1548 601.124 62.8538 Q604.527 67.5124 610.441 67.5124 Q616.355 67.5124 619.758 62.8538 Q623.161 58.1548 623.161 49.9314 Q623.161 41.7081 619.758 37.0496 Q616.355 32.3505 610.441 32.3505 Q604.527 32.3505 601.124 37.0496 Q597.762 41.7081 597.762 49.9314 Z" fill="#000000" fill-rule="evenodd" fill-opacity="1" /><path clip-path="url(#clip560)" d="M645.967 27.2059 L653.421 27.2059 L653.421 72.576 L645.967 72.576 L645.967 27.2059 M645.967 9.54393 L653.421 9.54393 L653.421 18.9825 L645.967 18.9825 L645.967 9.54393 Z" fill="#000000" fill-rule="evenodd" fill-opacity="1" /><path clip-path="url(#clip560)" d="M663.67 27.2059 L671.569 27.2059 L685.747 65.2844 L699.925 27.2059 L707.825 27.2059 L690.811 72.576 L680.684 72.576 L663.67 27.2059 Z" fill="#000000" fill-rule="evenodd" fill-opacity="1" /><path clip-path="url(#clip560)" d="M718.114 27.2059 L725.568 27.2059 L725.568 72.576 L718.114 72.576 L718.114 27.2059 M718.114 9.54393 L725.568 9.54393 L725.568 18.9825 L718.114 18.9825 L718.114 9.54393 Z" fill="#000000" fill-rule="evenodd" fill-opacity="1" /><path clip-path="url(#clip560)" d="M771.019 34.0924 L771.019 9.54393 L778.472 9.54393 L778.472 72.576 L771.019 72.576 L771.019 65.7705 Q768.669 69.8214 765.064 71.8063 Q761.499 73.7508 756.476 73.7508 Q748.253 73.7508 743.067 67.1883 Q737.923 60.6258 737.923 49.9314 Q737.923 39.2371 743.067 32.6746 Q748.253 26.1121 756.476 26.1121 Q761.499 26.1121 765.064 28.0971 Q768.669 30.0415 771.019 34.0924 M745.62 49.9314 Q745.62 58.1548 748.982 62.8538 Q752.385 67.5124 758.299 67.5124 Q764.213 67.5124 767.616 62.8538 Q771.019 58.1548 771.019 49.9314 Q771.019 41.7081 767.616 37.0496 Q764.213 32.3505 758.299 32.3505 Q752.385 32.3505 748.982 37.0496 Q745.62 41.7081 745.62 49.9314 Z" fill="#000000" fill-rule="evenodd" fill-opacity="1" /><path clip-path="url(#clip560)" d="M832.633 48.0275 L832.633 51.6733 L798.362 51.6733 Q798.848 59.3701 802.98 63.421 Q807.153 67.4314 814.566 67.4314 Q818.86 67.4314 822.87 66.3781 Q826.921 65.3249 830.891 63.2184 L830.891 70.267 Q826.881 71.9684 822.668 72.8596 Q818.455 73.7508 814.12 73.7508 Q803.264 73.7508 796.904 67.4314 Q790.585 61.1119 790.585 50.3365 Q790.585 39.1965 796.58 32.6746 Q802.616 26.1121 812.824 26.1121 Q821.979 26.1121 827.286 32.0264 Q832.633 37.9003 832.633 48.0275 M825.179 45.84 Q825.098 39.7232 821.736 36.0774 Q818.414 32.4315 812.905 32.4315 Q806.667 32.4315 802.899 35.9558 Q799.172 39.4801 798.605 45.8805 L825.179 45.84 Z" fill="#000000" fill-rule="evenodd" fill-opacity="1" /><path clip-path="url(#clip560)" d="M882.581 45.1919 L882.581 72.576 L875.127 72.576 L875.127 45.4349 Q875.127 38.994 872.615 35.7938 Q870.104 32.5936 865.081 32.5936 Q859.045 32.5936 855.561 36.4419 Q852.077 40.2903 852.077 46.9338 L852.077 72.576 L844.583 72.576 L844.583 27.2059 L852.077 27.2059 L852.077 34.2544 Q854.751 30.163 858.356 28.1376 Q862.002 26.1121 866.742 26.1121 Q874.56 26.1121 878.57 30.9732 Q882.581 35.7938 882.581 45.1919 Z" fill="#000000" fill-rule="evenodd" fill-opacity="1" /><path clip-path="url(#clip560)" d="M927.303 34.0924 L927.303 9.54393 L934.756 9.54393 L934.756 72.576 L927.303 72.576 L927.303 65.7705 Q924.953 69.8214 921.348 71.8063 Q917.783 73.7508 912.76 73.7508 Q904.537 73.7508 899.351 67.1883 Q894.207 60.6258 894.207 49.9314 Q894.207 39.2371 899.351 32.6746 Q904.537 26.1121 912.76 26.1121 Q917.783 26.1121 921.348 28.0971 Q924.953 30.0415 927.303 34.0924 M901.903 49.9314 Q901.903 58.1548 905.266 62.8538 Q908.668 67.5124 914.583 67.5124 Q920.497 67.5124 923.9 62.8538 Q927.303 58.1548 927.303 49.9314 Q927.303 41.7081 923.9 37.0496 Q920.497 32.3505 914.583 32.3505 Q908.668 32.3505 905.266 37.0496 Q901.903 41.7081 901.903 49.9314 Z" fill="#000000" fill-rule="evenodd" fill-opacity="1" /><path clip-path="url(#clip560)" d="M1002.77 34.1734 Q1001.52 33.4443 1000.02 33.1202 Q998.558 32.7556 996.776 32.7556 Q990.456 32.7556 987.053 36.8875 Q983.691 40.9789 983.691 48.6757 L983.691 72.576 L976.197 72.576 L976.197 27.2059 L983.691 27.2059 L983.691 34.2544 Q986.041 30.1225 989.808 28.1376 Q993.575 26.1121 998.963 26.1121 Q999.733 26.1121 1000.66 26.2337 Q1001.6 26.3147 1002.73 26.5172 L1002.77 34.1734 Z" fill="#000000" fill-rule="evenodd" fill-opacity="1" /><path clip-path="url(#clip560)" d="M1031.21 49.7694 Q1022.17 49.7694 1018.69 51.8354 Q1015.21 53.9013 1015.21 58.8839 Q1015.21 62.8538 1017.8 65.2034 Q1020.43 67.5124 1024.93 67.5124 Q1031.13 67.5124 1034.85 63.1374 Q1038.62 58.7219 1038.62 51.4303 L1038.62 49.7694 L1031.21 49.7694 M1046.08 46.6907 L1046.08 72.576 L1038.62 72.576 L1038.62 65.6895 Q1036.07 69.8214 1032.26 71.8063 Q1028.45 73.7508 1022.94 73.7508 Q1015.98 73.7508 1011.84 69.8619 Q1007.75 65.9325 1007.75 59.3701 Q1007.75 51.7138 1012.86 47.825 Q1018 43.9361 1028.17 43.9361 L1038.62 43.9361 L1038.62 43.2069 Q1038.62 38.0623 1035.22 35.2672 Q1031.86 32.4315 1025.74 32.4315 Q1021.85 32.4315 1018.16 33.3632 Q1014.48 34.295 1011.08 36.1584 L1011.08 29.2718 Q1015.17 27.692 1019.02 26.9223 Q1022.86 26.1121 1026.51 26.1121 Q1036.35 26.1121 1041.21 31.2163 Q1046.08 36.3204 1046.08 46.6907 Z" fill="#000000" fill-rule="evenodd" fill-opacity="1" /><path clip-path="url(#clip560)" d="M1068.8 14.324 L1068.8 27.2059 L1084.15 27.2059 L1084.15 32.9987 L1068.8 32.9987 L1068.8 57.6282 Q1068.8 63.1779 1070.3 64.7578 Q1071.84 66.3376 1076.5 66.3376 L1084.15 66.3376 L1084.15 72.576 L1076.5 72.576 Q1067.87 72.576 1064.59 69.3758 Q1061.31 66.1351 1061.31 57.6282 L1061.31 32.9987 L1055.84 32.9987 L1055.84 27.2059 L1061.31 27.2059 L1061.31 14.324 L1068.8 14.324 Z" fill="#000000" fill-rule="evenodd" fill-opacity="1" /><path clip-path="url(#clip560)" d="M1093.96 27.2059 L1101.41 27.2059 L1101.41 72.576 L1093.96 72.576 L1093.96 27.2059 M1093.96 9.54393 L1101.41 9.54393 L1101.41 18.9825 L1093.96 18.9825 L1093.96 9.54393 Z" fill="#000000" fill-rule="evenodd" fill-opacity="1" /><path clip-path="url(#clip560)" d="M1134.59 32.4315 Q1128.59 32.4315 1125.11 37.1306 Q1121.62 41.7891 1121.62 49.9314 Q1121.62 58.0738 1125.07 62.7728 Q1128.55 67.4314 1134.59 67.4314 Q1140.54 67.4314 1144.03 62.7323 Q1147.51 58.0333 1147.51 49.9314 Q1147.51 41.8701 1144.03 37.1711 Q1140.54 32.4315 1134.59 32.4315 M1134.59 26.1121 Q1144.31 26.1121 1149.86 32.4315 Q1155.41 38.7509 1155.41 49.9314 Q1155.41 61.0714 1149.86 67.4314 Q1144.31 73.7508 1134.59 73.7508 Q1124.82 73.7508 1119.27 67.4314 Q1113.77 61.0714 1113.77 49.9314 Q1113.77 38.7509 1119.27 32.4315 Q1124.82 26.1121 1134.59 26.1121 Z" fill="#000000" fill-rule="evenodd" fill-opacity="1" /><path clip-path="url(#clip560)" d="M1214.75 49.7694 Q1205.72 49.7694 1202.24 51.8354 Q1198.75 53.9013 1198.75 58.8839 Q1198.75 62.8538 1201.35 65.2034 Q1203.98 67.5124 1208.48 67.5124 Q1214.67 67.5124 1218.4 63.1374 Q1222.17 58.7219 1222.17 51.4303 L1222.17 49.7694 L1214.75 49.7694 M1229.62 46.6907 L1229.62 72.576 L1222.17 72.576 L1222.17 65.6895 Q1219.62 69.8214 1215.81 71.8063 Q1212 73.7508 1206.49 73.7508 Q1199.52 73.7508 1195.39 69.8619 Q1191.3 65.9325 1191.3 59.3701 Q1191.3 51.7138 1196.4 47.825 Q1201.55 43.9361 1211.72 43.9361 L1222.17 43.9361 L1222.17 43.2069 Q1222.17 38.0623 1218.77 35.2672 Q1215.4 32.4315 1209.29 32.4315 Q1205.4 32.4315 1201.71 33.3632 Q1198.02 34.295 1194.62 36.1584 L1194.62 29.2718 Q1198.71 27.692 1202.56 26.9223 Q1206.41 26.1121 1210.06 26.1121 Q1219.9 26.1121 1224.76 31.2163 Q1229.62 36.3204 1229.62 46.6907 Z" fill="#000000" fill-rule="evenodd" fill-opacity="1" /><path clip-path="url(#clip560)" d="M1273.9 28.5427 L1273.9 35.5912 Q1270.74 33.9709 1267.34 33.1607 Q1263.93 32.3505 1260.29 32.3505 Q1254.74 32.3505 1251.94 34.0519 Q1249.19 35.7533 1249.19 39.156 Q1249.19 41.7486 1251.17 43.2475 Q1253.16 44.7058 1259.15 46.0426 L1261.7 46.6097 Q1269.64 48.3111 1272.97 51.4303 Q1276.33 54.509 1276.33 60.0587 Q1276.33 66.3781 1271.31 70.0644 Q1266.32 73.7508 1257.57 73.7508 Q1253.93 73.7508 1249.96 73.0216 Q1246.03 72.3329 1241.65 70.9151 L1241.65 63.2184 Q1245.78 65.3654 1249.8 66.4591 Q1253.81 67.5124 1257.73 67.5124 Q1263 67.5124 1265.84 65.73 Q1268.67 63.9071 1268.67 60.6258 Q1268.67 57.5877 1266.61 55.9673 Q1264.58 54.3469 1257.65 52.8481 L1255.06 52.2405 Q1248.13 50.7821 1245.06 47.7845 Q1241.98 44.7463 1241.98 39.4801 Q1241.98 33.0797 1246.51 29.5959 Q1251.05 26.1121 1259.4 26.1121 Q1263.53 26.1121 1267.17 26.7198 Q1270.82 27.3274 1273.9 28.5427 Z" fill="#000000" fill-rule="evenodd" fill-opacity="1" /><path clip-path="url(#clip560)" d="M1335.19 49.7694 Q1326.15 49.7694 1322.67 51.8354 Q1319.19 53.9013 1319.19 58.8839 Q1319.19 62.8538 1321.78 65.2034 Q1324.41 67.5124 1328.91 67.5124 Q1335.11 67.5124 1338.83 63.1374 Q1342.6 58.7219 1342.6 51.4303 L1342.6 49.7694 L1335.19 49.7694 M1350.05 46.6907 L1350.05 72.576 L1342.6 72.576 L1342.6 65.6895 Q1340.05 69.8214 1336.24 71.8063 Q1332.43 73.7508 1326.92 73.7508 Q1319.96 73.7508 1315.82 69.8619 Q1311.73 65.9325 1311.73 59.3701 Q1311.73 51.7138 1316.84 47.825 Q1321.98 43.9361 1332.15 43.9361 L1342.6 43.9361 L1342.6 43.2069 Q1342.6 38.0623 1339.2 35.2672 Q1335.84 32.4315 1329.72 32.4315 Q1325.83 32.4315 1322.14 33.3632 Q1318.46 34.295 1315.06 36.1584 L1315.06 29.2718 Q1319.15 27.692 1322.99 26.9223 Q1326.84 26.1121 1330.49 26.1121 Q1340.33 26.1121 1345.19 31.2163 Q1350.05 36.3204 1350.05 46.6907 Z" fill="#000000" fill-rule="evenodd" fill-opacity="1" /><path clip-path="url(#clip560)" d="M1414.75 9.54393 L1414.75 15.7418 L1407.62 15.7418 Q1403.61 15.7418 1402.03 17.3622 Q1400.49 18.9825 1400.49 23.1955 L1400.49 27.2059 L1412.76 27.2059 L1412.76 32.9987 L1400.49 32.9987 L1400.49 72.576 L1392.99 72.576 L1392.99 32.9987 L1385.86 32.9987 L1385.86 27.2059 L1392.99 27.2059 L1392.99 24.0462 Q1392.99 16.471 1396.52 13.0277 Q1400.04 9.54393 1407.7 9.54393 L1414.75 9.54393 Z" fill="#000000" fill-rule="evenodd" fill-opacity="1" /><path clip-path="url(#clip560)" d="M1420.22 54.671 L1420.22 27.2059 L1427.67 27.2059 L1427.67 54.3874 Q1427.67 60.8284 1430.18 64.0691 Q1432.69 67.2693 1437.72 67.2693 Q1443.75 67.2693 1447.24 63.421 Q1450.76 59.5726 1450.76 52.9291 L1450.76 27.2059 L1458.21 27.2059 L1458.21 72.576 L1450.76 72.576 L1450.76 65.6084 Q1448.05 69.7404 1444.44 71.7658 Q1440.88 73.7508 1436.14 73.7508 Q1428.32 73.7508 1424.27 68.8897 Q1420.22 64.0286 1420.22 54.671 M1438.97 26.1121 L1438.97 26.1121 Z" fill="#000000" fill-rule="evenodd" fill-opacity="1" /><path clip-path="url(#clip560)" d="M1511.28 45.1919 L1511.28 72.576 L1503.83 72.576 L1503.83 45.4349 Q1503.83 38.994 1501.32 35.7938 Q1498.8 32.5936 1493.78 32.5936 Q1487.75 32.5936 1484.26 36.4419 Q1480.78 40.2903 1480.78 46.9338 L1480.78 72.576 L1473.28 72.576 L1473.28 27.2059 L1480.78 27.2059 L1480.78 34.2544 Q1483.45 30.163 1487.06 28.1376 Q1490.7 26.1121 1495.44 26.1121 Q1503.26 26.1121 1507.27 30.9732 Q1511.28 35.7938 1511.28 45.1919 Z" fill="#000000" fill-rule="evenodd" fill-opacity="1" /><path clip-path="url(#clip560)" d="M1558.8 28.9478 L1558.8 35.9153 Q1555.64 34.1734 1552.44 33.3227 Q1549.28 32.4315 1546.04 32.4315 Q1538.79 32.4315 1534.78 37.0496 Q1530.77 41.6271 1530.77 49.9314 Q1530.77 58.2358 1534.78 62.8538 Q1538.79 67.4314 1546.04 67.4314 Q1549.28 67.4314 1552.44 66.5807 Q1555.64 65.6895 1558.8 63.9476 L1558.8 70.8341 Q1555.68 72.2924 1552.32 73.0216 Q1548.99 73.7508 1545.23 73.7508 Q1534.98 73.7508 1528.94 67.3098 Q1522.91 60.8689 1522.91 49.9314 Q1522.91 38.832 1528.98 32.472 Q1535.1 26.1121 1545.71 26.1121 Q1549.16 26.1121 1552.44 26.8413 Q1555.72 27.5299 1558.8 28.9478 Z" fill="#000000" fill-rule="evenodd" fill-opacity="1" /><path clip-path="url(#clip560)" d="M1579.13 14.324 L1579.13 27.2059 L1594.49 27.2059 L1594.49 32.9987 L1579.13 32.9987 L1579.13 57.6282 Q1579.13 63.1779 1580.63 64.7578 Q1582.17 66.3376 1586.83 66.3376 L1594.49 66.3376 L1594.49 72.576 L1586.83 72.576 Q1578.2 72.576 1574.92 69.3758 Q1571.64 66.1351 1571.64 57.6282 L1571.64 32.9987 L1566.17 32.9987 L1566.17 27.2059 L1571.64 27.2059 L1571.64 14.324 L1579.13 14.324 Z" fill="#000000" fill-rule="evenodd" fill-opacity="1" /><path clip-path="url(#clip560)" d="M1604.29 27.2059 L1611.74 27.2059 L1611.74 72.576 L1604.29 72.576 L1604.29 27.2059 M1604.29 9.54393 L1611.74 9.54393 L1611.74 18.9825 L1604.29 18.9825 L1604.29 9.54393 Z" fill="#000000" fill-rule="evenodd" fill-opacity="1" /><path clip-path="url(#clip560)" d="M1644.92 32.4315 Q1638.92 32.4315 1635.44 37.1306 Q1631.96 41.7891 1631.96 49.9314 Q1631.96 58.0738 1635.4 62.7728 Q1638.88 67.4314 1644.92 67.4314 Q1650.88 67.4314 1654.36 62.7323 Q1657.84 58.0333 1657.84 49.9314 Q1657.84 41.8701 1654.36 37.1711 Q1650.88 32.4315 1644.92 32.4315 M1644.92 26.1121 Q1654.64 26.1121 1660.19 32.4315 Q1665.74 38.7509 1665.74 49.9314 Q1665.74 61.0714 1660.19 67.4314 Q1654.64 73.7508 1644.92 73.7508 Q1635.16 73.7508 1629.61 67.4314 Q1624.1 61.0714 1624.1 49.9314 Q1624.1 38.7509 1629.61 32.4315 Q1635.16 26.1121 1644.92 26.1121 Z" fill="#000000" fill-rule="evenodd" fill-opacity="1" /><path clip-path="url(#clip560)" d="M1715.81 45.1919 L1715.81 72.576 L1708.36 72.576 L1708.36 45.4349 Q1708.36 38.994 1705.85 35.7938 Q1703.33 32.5936 1698.31 32.5936 Q1692.28 32.5936 1688.79 36.4419 Q1685.31 40.2903 1685.31 46.9338 L1685.31 72.576 L1677.81 72.576 L1677.81 27.2059 L1685.31 27.2059 L1685.31 34.2544 Q1687.98 30.163 1691.59 28.1376 Q1695.23 26.1121 1699.97 26.1121 Q1707.79 26.1121 1711.8 30.9732 Q1715.81 35.7938 1715.81 45.1919 Z" fill="#000000" fill-rule="evenodd" fill-opacity="1" /><path clip-path="url(#clip560)" d="M1774.63 32.4315 Q1768.63 32.4315 1765.15 37.1306 Q1761.67 41.7891 1761.67 49.9314 Q1761.67 58.0738 1765.11 62.7728 Q1768.59 67.4314 1774.63 67.4314 Q1780.59 67.4314 1784.07 62.7323 Q1787.55 58.0333 1787.55 49.9314 Q1787.55 41.8701 1784.07 37.1711 Q1780.59 32.4315 1774.63 32.4315 M1774.63 26.1121 Q1784.35 26.1121 1789.9 32.4315 Q1795.45 38.7509 1795.45 49.9314 Q1795.45 61.0714 1789.9 67.4314 Q1784.35 73.7508 1774.63 73.7508 Q1764.87 73.7508 1759.32 67.4314 Q1753.81 61.0714 1753.81 49.9314 Q1753.81 38.7509 1759.32 32.4315 Q1764.87 26.1121 1774.63 26.1121 Z" fill="#000000" fill-rule="evenodd" fill-opacity="1" /><path clip-path="url(#clip560)" d="M1830.78 9.54393 L1830.78 15.7418 L1823.65 15.7418 Q1819.64 15.7418 1818.06 17.3622 Q1816.52 18.9825 1816.52 23.1955 L1816.52 27.2059 L1828.79 27.2059 L1828.79 32.9987 L1816.52 32.9987 L1816.52 72.576 L1809.02 72.576 L1809.02 32.9987 L1801.89 32.9987 L1801.89 27.2059 L1809.02 27.2059 L1809.02 24.0462 Q1809.02 16.471 1812.55 13.0277 Q1816.07 9.54393 1823.73 9.54393 L1830.78 9.54393 Z" fill="#000000" fill-rule="evenodd" fill-opacity="1" /><path clip-path="url(#clip560)" d="M1870.76 14.324 L1870.76 27.2059 L1886.11 27.2059 L1886.11 32.9987 L1870.76 32.9987 L1870.76 57.6282 Q1870.76 63.1779 1872.26 64.7578 Q1873.8 66.3376 1878.45 66.3376 L1886.11 66.3376 L1886.11 72.576 L1878.45 72.576 Q1869.83 72.576 1866.55 69.3758 Q1863.26 66.1351 1863.26 57.6282 L1863.26 32.9987 L1857.8 32.9987 L1857.8 27.2059 L1863.26 27.2059 L1863.26 14.324 L1870.76 14.324 Z" fill="#000000" fill-rule="evenodd" fill-opacity="1" /><path clip-path="url(#clip560)" d="M1933.63 45.1919 L1933.63 72.576 L1926.17 72.576 L1926.17 45.4349 Q1926.17 38.994 1923.66 35.7938 Q1921.15 32.5936 1916.13 32.5936 Q1910.09 32.5936 1906.61 36.4419 Q1903.12 40.2903 1903.12 46.9338 L1903.12 72.576 L1895.63 72.576 L1895.63 9.54393 L1903.12 9.54393 L1903.12 34.2544 Q1905.8 30.163 1909.4 28.1376 Q1913.05 26.1121 1917.79 26.1121 Q1925.61 26.1121 1929.62 30.9732 Q1933.63 35.7938 1933.63 45.1919 Z" fill="#000000" fill-rule="evenodd" fill-opacity="1" /><path clip-path="url(#clip560)" d="M1987.3 48.0275 L1987.3 51.6733 L1953.03 51.6733 Q1953.52 59.3701 1957.65 63.421 Q1961.82 67.4314 1969.24 67.4314 Q1973.53 67.4314 1977.54 66.3781 Q1981.59 65.3249 1985.56 63.2184 L1985.56 70.267 Q1981.55 71.9684 1977.34 72.8596 Q1973.12 73.7508 1968.79 73.7508 Q1957.93 73.7508 1951.57 67.4314 Q1945.25 61.1119 1945.25 50.3365 Q1945.25 39.1965 1951.25 32.6746 Q1957.29 26.1121 1967.49 26.1121 Q1976.65 26.1121 1981.96 32.0264 Q1987.3 37.9003 1987.3 48.0275 M1979.85 45.84 Q1979.77 39.7232 1976.41 36.0774 Q1973.08 32.4315 1967.57 32.4315 Q1961.34 32.4315 1957.57 35.9558 Q1953.84 39.4801 1953.28 45.8805 L1979.85 45.84 Z" fill="#000000" fill-rule="evenodd" fill-opacity="1" /><path clip-path="url(#clip560)" d="M2054.83 28.5427 L2054.83 35.5912 Q2051.67 33.9709 2048.27 33.1607 Q2044.87 32.3505 2041.22 32.3505 Q2035.67 32.3505 2032.88 34.0519 Q2030.12 35.7533 2030.12 39.156 Q2030.12 41.7486 2032.11 43.2475 Q2034.09 44.7058 2040.09 46.0426 L2042.64 46.6097 Q2050.58 48.3111 2053.9 51.4303 Q2057.26 54.509 2057.26 60.0587 Q2057.26 66.3781 2052.24 70.0644 Q2047.26 73.7508 2038.51 73.7508 Q2034.86 73.7508 2030.89 73.0216 Q2026.96 72.3329 2022.59 70.9151 L2022.59 63.2184 Q2026.72 65.3654 2030.73 66.4591 Q2034.74 67.5124 2038.67 67.5124 Q2043.93 67.5124 2046.77 65.73 Q2049.61 63.9071 2049.61 60.6258 Q2049.61 57.5877 2047.54 55.9673 Q2045.51 54.3469 2038.59 52.8481 L2035.99 52.2405 Q2029.07 50.7821 2025.99 47.7845 Q2022.91 44.7463 2022.91 39.4801 Q2022.91 33.0797 2027.45 29.5959 Q2031.98 26.1121 2040.33 26.1121 Q2044.46 26.1121 2048.11 26.7198 Q2051.75 27.3274 2054.83 28.5427 Z" fill="#000000" fill-rule="evenodd" fill-opacity="1" /><path clip-path="url(#clip560)" d="M2076.5 14.324 L2076.5 27.2059 L2091.86 27.2059 L2091.86 32.9987 L2076.5 32.9987 L2076.5 57.6282 Q2076.5 63.1779 2078 64.7578 Q2079.54 66.3376 2084.2 66.3376 L2091.86 66.3376 L2091.86 72.576 L2084.2 72.576 Q2075.57 72.576 2072.29 69.3758 Q2069.01 66.1351 2069.01 57.6282 L2069.01 32.9987 L2063.54 32.9987 L2063.54 27.2059 L2069.01 27.2059 L2069.01 14.324 L2076.5 14.324 Z" fill="#000000" fill-rule="evenodd" fill-opacity="1" /><path clip-path="url(#clip560)" d="M2122.28 49.7694 Q2113.25 49.7694 2109.76 51.8354 Q2106.28 53.9013 2106.28 58.8839 Q2106.28 62.8538 2108.87 65.2034 Q2111.5 67.5124 2116 67.5124 Q2122.2 67.5124 2125.92 63.1374 Q2129.69 58.7219 2129.69 51.4303 L2129.69 49.7694 L2122.28 49.7694 M2137.15 46.6907 L2137.15 72.576 L2129.69 72.576 L2129.69 65.6895 Q2127.14 69.8214 2123.33 71.8063 Q2119.52 73.7508 2114.01 73.7508 Q2107.05 73.7508 2102.92 69.8619 Q2098.82 65.9325 2098.82 59.3701 Q2098.82 51.7138 2103.93 47.825 Q2109.07 43.9361 2119.24 43.9361 L2129.69 43.9361 L2129.69 43.2069 Q2129.69 38.0623 2126.29 35.2672 Q2122.93 32.4315 2116.81 32.4315 Q2112.92 32.4315 2109.23 33.3632 Q2105.55 34.295 2102.15 36.1584 L2102.15 29.2718 Q2106.24 27.692 2110.09 26.9223 Q2113.93 26.1121 2117.58 26.1121 Q2127.42 26.1121 2132.28 31.2163 Q2137.15 36.3204 2137.15 46.6907 Z" fill="#000000" fill-rule="evenodd" fill-opacity="1" /><path clip-path="url(#clip560)" d="M2159.87 14.324 L2159.87 27.2059 L2175.22 27.2059 L2175.22 32.9987 L2159.87 32.9987 L2159.87 57.6282 Q2159.87 63.1779 2161.37 64.7578 Q2162.91 66.3376 2167.57 66.3376 L2175.22 66.3376 L2175.22 72.576 L2167.57 72.576 Q2158.94 72.576 2155.66 69.3758 Q2152.38 66.1351 2152.38 57.6282 L2152.38 32.9987 L2146.91 32.9987 L2146.91 27.2059 L2152.38 27.2059 L2152.38 14.324 L2159.87 14.324 Z" fill="#000000" fill-rule="evenodd" fill-opacity="1" /><path clip-path="url(#clip560)" d="M2223.83 48.0275 L2223.83 51.6733 L2189.56 51.6733 Q2190.05 59.3701 2194.18 63.421 Q2198.35 67.4314 2205.77 67.4314 Q2210.06 67.4314 2214.07 66.3781 Q2218.12 65.3249 2222.09 63.2184 L2222.09 70.267 Q2218.08 71.9684 2213.87 72.8596 Q2209.66 73.7508 2205.32 73.7508 Q2194.47 73.7508 2188.11 67.4314 Q2181.79 61.1119 2181.79 50.3365 Q2181.79 39.1965 2187.78 32.6746 Q2193.82 26.1121 2204.03 26.1121 Q2213.18 26.1121 2218.49 32.0264 Q2223.83 37.9003 2223.83 48.0275 M2216.38 45.84 Q2216.3 39.7232 2212.94 36.0774 Q2209.62 32.4315 2204.11 32.4315 Q2197.87 32.4315 2194.1 35.9558 Q2190.37 39.4801 2189.81 45.8805 L2216.38 45.84 Z" fill="#000000" fill-rule="evenodd" fill-opacity="1" /><polyline clip-path="url(#clip563)" style="stroke:#009af9; stroke-linecap:round; stroke-linejoin:round; stroke-width:4; stroke-opacity:1; fill:none" points="
  292.4,1182.77 375.747,1187.47 459.095,1192.86 542.443,1198.6 625.791,1204.5 709.138,1210.42 792.486,1216.31 875.834,1222.14 959.182,1227.89 1042.53,1233.56 
  1125.88,1239.14 1209.22,1244.62 1292.57,1250.02 1375.92,1255.32 1459.27,1260.54 1542.62,1265.66 1625.96,1270.69 1709.31,1275.63 1792.66,1280.47 1876.01,1285.21 
  1959.35,1289.82 2042.7,1294.29 2126.05,1298.52 2209.4,1302.4 2292.75,1305.72 
  "/>
<polyline clip-path="url(#clip563)" style="stroke:#e26f46; stroke-linecap:round; stroke-linejoin:round; stroke-width:4; stroke-opacity:1; fill:none" points="
  292.4,1079.43 375.747,1091.22 459.095,1104.59 542.443,1118.7 625.791,1132.98 709.138,1147.13 792.486,1160.97 875.834,1174.45 959.182,1187.53 1042.53,1200.2 
  1125.88,1212.46 1209.22,1224.31 1292.57,1235.77 1375.92,1246.84 1459.27,1257.53 1542.62,1267.86 1625.96,1277.83 1709.31,1287.45 1792.66,1296.73 1876.01,1305.66 
  1959.35,1314.22 2042.7,1322.38 2126.05,1330.01 2209.4,1336.91 2292.75,1342.78 
  "/>
<polyline clip-path="url(#clip563)" style="stroke:#3da44d; stroke-linecap:round; stroke-linejoin:round; stroke-width:4; stroke-opacity:1; fill:none" points="
  292.4,922.132 375.747,945.316 459.095,971.364 542.443,998.554 625.791,1025.71 709.138,1052.21 792.486,1077.74 875.834,1102.18 959.182,1125.5 1042.53,1147.69 
  1125.88,1168.8 1209.22,1188.84 1292.57,1207.88 1375.92,1225.94 1459.27,1243.09 1542.62,1259.36 1625.96,1274.79 1709.31,1289.43 1792.66,1303.3 1876.01,1316.43 
  1959.35,1328.81 2042.7,1340.42 2126.05,1351.13 2209.4,1360.7 2292.75,1368.75 
  "/>
<polyline clip-path="url(#clip563)" style="stroke:#c271d2; stroke-linecap:round; stroke-linejoin:round; stroke-width:4; stroke-opacity:1; fill:none" points="
  292.4,661.194 375.747,704.372 459.095,752.456 542.443,802.083 625.791,850.996 709.138,897.996 792.486,942.555 875.834,984.492 959.182,1023.8 1042.53,1060.54 
  1125.88,1094.85 1209.22,1126.84 1292.57,1156.66 1375.92,1184.45 1459.27,1210.34 1542.62,1234.45 1625.96,1256.91 1709.31,1277.82 1792.66,1297.28 1876.01,1315.37 
  1959.35,1332.15 2042.7,1347.61 2126.05,1361.66 2209.4,1374.05 2292.75,1384.36 
  "/>
<polyline clip-path="url(#clip563)" style="stroke:#ac8d18; stroke-linecap:round; stroke-linejoin:round; stroke-width:4; stroke-opacity:1; fill:none" points="
  292.4,160.256 375.747,243.869 459.095,336.155 542.443,430.328 625.791,521.891 709.138,608.527 792.486,689.3 875.834,763.987 959.182,832.714 1042.53,895.768 
  1125.88,953.51 1209.22,1006.33 1292.57,1054.6 1375.92,1098.71 1459.27,1138.99 1542.62,1175.78 1625.96,1209.38 1709.31,1240.05 1792.66,1268.05 1876.01,1293.58 
  1959.35,1316.82 2042.7,1337.85 2126.05,1356.65 2209.4,1372.98 2292.75,1386.4 
  "/>
<path clip-path="url(#clip560)" d="
M1921.2 477.836 L2282.08 477.836 L2282.08 166.796 L1921.2 166.796  Z
  " fill="#ffffff" fill-rule="evenodd" fill-opacity="1"/>
<polyline clip-path="url(#clip560)" style="stroke:#000000; stroke-linecap:round; stroke-linejoin:round; stroke-width:4; stroke-opacity:1; fill:none" points="
  1921.2,477.836 2282.08,477.836 2282.08,166.796 1921.2,166.796 1921.2,477.836 
  "/>
<polyline clip-path="url(#clip560)" style="stroke:#009af9; stroke-linecap:round; stroke-linejoin:round; stroke-width:4; stroke-opacity:1; fill:none" points="
  1944.76,218.636 2086.12,218.636 
  "/>
<path clip-path="url(#clip560)" d="M2134.86 209.164 Q2134.86 209.352 2133.94 210.991 Q2132.42 214.013 2130.48 218.627 Q2128.53 223.241 2127.43 226.661 Q2127.2 227.481 2127.04 228.535 Q2126.61 231.767 2125.25 236.779 Q2124.79 238.349 2124.48 239.005 Q2124.18 239.66 2123.73 239.66 Q2123.1 239.66 2123.1 238.794 Q2123.1 237.927 2123.9 234.695 Q2124.72 231.462 2125.61 228.488 Q2126.17 226.848 2126.17 223.78 Q2126.17 222.796 2126.12 221.906 Q2126.07 221.016 2125.89 219.728 Q2125.7 218.44 2125.4 217.386 Q2125.09 216.332 2124.51 215.231 Q2123.92 214.106 2123.12 213.357 Q2122.33 212.584 2121.11 212.092 Q2119.91 211.6 2118.42 211.6 Q2118.04 211.6 2117.57 211.647 Q2117.13 211.671 2116.05 211.975 Q2115 212.28 2114.11 212.818 Q2113.22 213.334 2112.26 214.481 Q2111.3 215.629 2110.78 217.175 L2110.59 217.409 Q2110.29 217.409 2110.12 217.409 Q2109.98 217.386 2109.82 217.268 Q2109.68 217.151 2109.68 216.941 Q2109.68 216.449 2110.05 215.465 Q2110.45 214.481 2111.25 213.216 Q2112.07 211.952 2113.12 210.827 Q2114.2 209.703 2115.77 208.93 Q2117.34 208.157 2119.02 208.157 Q2123.36 208.157 2125.42 213.427 Q2127.22 217.901 2127.39 223.218 Q2131.13 213.779 2133.71 209.024 Q2133.85 208.672 2134.27 208.672 Q2134.86 208.696 2134.86 209.164 Z" fill="#000000" fill-rule="evenodd" fill-opacity="1" /><path clip-path="url(#clip560)" d="M2147.57 222.07 Q2147.62 221.485 2148.53 221.485 L2177.92 221.485 Q2179.31 221.485 2179.33 222.023 Q2179.33 222.609 2178.02 222.585 L2148.86 222.585 Q2147.57 222.609 2147.57 222.07 M2147.57 212.701 Q2147.57 212.116 2148.58 212.139 L2177.88 212.139 Q2179.31 212.139 2179.33 212.701 Q2179.33 213.24 2178.11 213.24 L2148.53 213.24 Q2147.57 213.24 2147.57 212.701 Z" fill="#000000" fill-rule="evenodd" fill-opacity="1" /><path clip-path="url(#clip560)" d="M2197.82 201.974 L2197.82 200.475 Q2203.58 200.475 2206.56 197.406 Q2207.38 197.406 2207.52 197.594 Q2207.66 197.781 2207.66 198.648 L2207.66 225.56 Q2207.66 226.989 2208.36 227.434 Q2209.06 227.879 2212.13 227.879 L2213.65 227.879 L2213.65 229.354 Q2211.97 229.214 2205.88 229.214 Q2199.79 229.214 2198.12 229.354 L2198.12 227.879 L2199.65 227.879 Q2202.67 227.879 2203.39 227.457 Q2204.12 227.012 2204.12 225.56 L2204.12 200.709 Q2201.61 201.974 2197.82 201.974 Z" fill="#000000" fill-rule="evenodd" fill-opacity="1" /><path clip-path="url(#clip560)" d="M2217.42 228.582 Q2216.7 227.809 2216.7 226.801 Q2216.7 225.794 2217.42 225.068 Q2218.15 224.319 2219.25 224.319 Q2220.3 224.319 2221.01 225.021 Q2221.73 225.701 2221.73 226.825 Q2221.73 227.926 2220.96 228.652 Q2220.21 229.354 2219.25 229.354 Q2218.15 229.354 2217.42 228.582 Z" fill="#000000" fill-rule="evenodd" fill-opacity="1" /><path clip-path="url(#clip560)" d="M2229.89 229.354 Q2229.89 228.488 2229.96 228.23 Q2230.06 227.973 2230.43 227.574 L2239.64 217.315 Q2244.67 211.647 2244.67 206.705 Q2244.67 203.496 2242.99 201.201 Q2241.32 198.905 2238.25 198.905 Q2236.15 198.905 2234.37 200.194 Q2232.59 201.482 2231.77 203.777 Q2231.91 203.73 2232.4 203.73 Q2233.59 203.73 2234.25 204.48 Q2234.93 205.229 2234.93 206.237 Q2234.93 207.525 2234.09 208.157 Q2233.27 208.766 2232.45 208.766 Q2232.12 208.766 2231.67 208.696 Q2231.25 208.626 2230.57 207.97 Q2229.89 207.291 2229.89 206.096 Q2229.89 202.747 2232.42 200.076 Q2234.98 197.406 2238.86 197.406 Q2243.27 197.406 2246.15 200.03 Q2249.05 202.629 2249.05 206.705 Q2249.05 208.134 2248.61 209.445 Q2248.19 210.734 2247.6 211.741 Q2247.04 212.748 2245.49 214.364 Q2243.95 215.98 2242.7 217.128 Q2241.46 218.276 2238.68 220.712 L2233.59 225.654 L2242.24 225.654 Q2246.45 225.654 2246.78 225.279 Q2247.25 224.6 2247.83 221.016 L2249.05 221.016 L2247.69 229.354 L2229.89 229.354 Z" fill="#000000" fill-rule="evenodd" fill-opacity="1" /><polyline clip-path="url(#clip560)" style="stroke:#e26f46; stroke-linecap:round; stroke-linejoin:round; stroke-width:4; stroke-opacity:1; fill:none" points="
  1944.76,270.476 2086.12,270.476 
  "/>
<path clip-path="url(#clip560)" d="M2134.86 261.27 Q2134.86 261.457 2133.94 263.097 Q2132.42 266.118 2130.48 270.733 Q2128.53 275.347 2127.43 278.767 Q2127.2 279.586 2127.04 280.64 Q2126.61 283.873 2125.25 288.885 Q2124.79 290.454 2124.48 291.11 Q2124.18 291.766 2123.73 291.766 Q2123.1 291.766 2123.1 290.899 Q2123.1 290.033 2123.9 286.8 Q2124.72 283.568 2125.61 280.593 Q2126.17 278.954 2126.17 275.886 Q2126.17 274.902 2126.12 274.012 Q2126.07 273.122 2125.89 271.833 Q2125.7 270.545 2125.4 269.491 Q2125.09 268.437 2124.51 267.336 Q2123.92 266.212 2123.12 265.463 Q2122.33 264.69 2121.11 264.198 Q2119.91 263.706 2118.42 263.706 Q2118.04 263.706 2117.57 263.753 Q2117.13 263.776 2116.05 264.081 Q2115 264.385 2114.11 264.924 Q2113.22 265.439 2112.26 266.587 Q2111.3 267.735 2110.78 269.28 L2110.59 269.515 Q2110.29 269.515 2110.12 269.515 Q2109.98 269.491 2109.82 269.374 Q2109.68 269.257 2109.68 269.046 Q2109.68 268.554 2110.05 267.571 Q2110.45 266.587 2111.25 265.322 Q2112.07 264.057 2113.12 262.933 Q2114.2 261.809 2115.77 261.036 Q2117.34 260.263 2119.02 260.263 Q2123.36 260.263 2125.42 265.533 Q2127.22 270.007 2127.39 275.323 Q2131.13 265.884 2133.71 261.129 Q2133.85 260.778 2134.27 260.778 Q2134.86 260.801 2134.86 261.27 Z" fill="#000000" fill-rule="evenodd" fill-opacity="1" /><path clip-path="url(#clip560)" d="M2147.57 274.176 Q2147.62 273.59 2148.53 273.59 L2177.92 273.59 Q2179.31 273.59 2179.33 274.129 Q2179.33 274.714 2178.02 274.691 L2148.86 274.691 Q2147.57 274.714 2147.57 274.176 M2147.57 264.807 Q2147.57 264.221 2148.58 264.245 L2177.88 264.245 Q2179.31 264.245 2179.33 264.807 Q2179.33 265.345 2178.11 265.345 L2148.53 265.345 Q2147.57 265.345 2147.57 264.807 Z" fill="#000000" fill-rule="evenodd" fill-opacity="1" /><path clip-path="url(#clip560)" d="M2197.82 254.079 L2197.82 252.58 Q2203.58 252.58 2206.56 249.512 Q2207.38 249.512 2207.52 249.699 Q2207.66 249.887 2207.66 250.753 L2207.66 277.666 Q2207.66 279.094 2208.36 279.539 Q2209.06 279.984 2212.13 279.984 L2213.65 279.984 L2213.65 281.46 Q2211.97 281.32 2205.88 281.32 Q2199.79 281.32 2198.12 281.46 L2198.12 279.984 L2199.65 279.984 Q2202.67 279.984 2203.39 279.563 Q2204.12 279.118 2204.12 277.666 L2204.12 252.814 Q2201.61 254.079 2197.82 254.079 Z" fill="#000000" fill-rule="evenodd" fill-opacity="1" /><path clip-path="url(#clip560)" d="M2217.42 280.687 Q2216.7 279.914 2216.7 278.907 Q2216.7 277.9 2217.42 277.174 Q2218.15 276.424 2219.25 276.424 Q2220.3 276.424 2221.01 277.127 Q2221.73 277.806 2221.73 278.93 Q2221.73 280.031 2220.96 280.757 Q2220.21 281.46 2219.25 281.46 Q2218.15 281.46 2217.42 280.687 Z" fill="#000000" fill-rule="evenodd" fill-opacity="1" /><path clip-path="url(#clip560)" d="M2229.89 273.543 L2229.89 272.068 L2244.63 249.559 Q2245 248.973 2245.59 248.997 Q2246.12 248.997 2246.24 249.207 Q2246.36 249.418 2246.36 250.238 L2246.36 272.068 L2251.16 272.068 L2251.16 273.543 L2246.36 273.543 L2246.36 277.713 Q2246.36 279.094 2246.92 279.539 Q2247.51 279.984 2249.99 279.984 L2251 279.984 L2251 281.46 Q2249.03 281.32 2244.48 281.32 Q2239.96 281.32 2238 281.46 L2238 279.984 L2239 279.984 Q2241.49 279.984 2242.07 279.563 Q2242.66 279.118 2242.66 277.713 L2242.66 273.543 L2229.89 273.543 M2231.25 272.068 L2242.94 272.068 L2242.94 254.173 L2231.25 272.068 Z" fill="#000000" fill-rule="evenodd" fill-opacity="1" /><polyline clip-path="url(#clip560)" style="stroke:#3da44d; stroke-linecap:round; stroke-linejoin:round; stroke-width:4; stroke-opacity:1; fill:none" points="
  1944.76,322.316 2086.12,322.316 
  "/>
<path clip-path="url(#clip560)" d="M2134.86 312.844 Q2134.86 313.032 2133.94 314.671 Q2132.42 317.693 2130.48 322.307 Q2128.53 326.921 2127.43 330.341 Q2127.2 331.161 2127.04 332.215 Q2126.61 335.447 2125.25 340.459 Q2124.79 342.029 2124.48 342.685 Q2124.18 343.34 2123.73 343.34 Q2123.1 343.34 2123.1 342.474 Q2123.1 341.607 2123.9 338.375 Q2124.72 335.142 2125.61 332.168 Q2126.17 330.528 2126.17 327.46 Q2126.17 326.476 2126.12 325.586 Q2126.07 324.696 2125.89 323.408 Q2125.7 322.12 2125.4 321.066 Q2125.09 320.012 2124.51 318.911 Q2123.92 317.786 2123.12 317.037 Q2122.33 316.264 2121.11 315.772 Q2119.91 315.28 2118.42 315.28 Q2118.04 315.28 2117.57 315.327 Q2117.13 315.351 2116.05 315.655 Q2115 315.96 2114.11 316.498 Q2113.22 317.014 2112.26 318.161 Q2111.3 319.309 2110.78 320.855 L2110.59 321.089 Q2110.29 321.089 2110.12 321.089 Q2109.98 321.066 2109.82 320.948 Q2109.68 320.831 2109.68 320.621 Q2109.68 320.129 2110.05 319.145 Q2110.45 318.161 2111.25 316.896 Q2112.07 315.632 2113.12 314.507 Q2114.2 313.383 2115.77 312.61 Q2117.34 311.837 2119.02 311.837 Q2123.36 311.837 2125.42 317.107 Q2127.22 321.581 2127.39 326.898 Q2131.13 317.459 2133.71 312.704 Q2133.85 312.352 2134.27 312.352 Q2134.86 312.376 2134.86 312.844 Z" fill="#000000" fill-rule="evenodd" fill-opacity="1" /><path clip-path="url(#clip560)" d="M2147.57 325.75 Q2147.62 325.165 2148.53 325.165 L2177.92 325.165 Q2179.31 325.165 2179.33 325.703 Q2179.33 326.289 2178.02 326.265 L2148.86 326.265 Q2147.57 326.289 2147.57 325.75 M2147.57 316.381 Q2147.57 315.796 2148.58 315.819 L2177.88 315.819 Q2179.31 315.819 2179.33 316.381 Q2179.33 316.92 2178.11 316.92 L2148.53 316.92 Q2147.57 316.92 2147.57 316.381 Z" fill="#000000" fill-rule="evenodd" fill-opacity="1" /><path clip-path="url(#clip560)" d="M2197.82 305.654 L2197.82 304.155 Q2203.58 304.155 2206.56 301.086 Q2207.38 301.086 2207.52 301.274 Q2207.66 301.461 2207.66 302.328 L2207.66 329.24 Q2207.66 330.669 2208.36 331.114 Q2209.06 331.559 2212.13 331.559 L2213.65 331.559 L2213.65 333.034 Q2211.97 332.894 2205.88 332.894 Q2199.79 332.894 2198.12 333.034 L2198.12 331.559 L2199.65 331.559 Q2202.67 331.559 2203.39 331.137 Q2204.12 330.692 2204.12 329.24 L2204.12 304.389 Q2201.61 305.654 2197.82 305.654 Z" fill="#000000" fill-rule="evenodd" fill-opacity="1" /><path clip-path="url(#clip560)" d="M2217.42 332.262 Q2216.7 331.489 2216.7 330.481 Q2216.7 329.474 2217.42 328.748 Q2218.15 327.999 2219.25 327.999 Q2220.3 327.999 2221.01 328.701 Q2221.73 329.381 2221.73 330.505 Q2221.73 331.606 2220.96 332.332 Q2220.21 333.034 2219.25 333.034 Q2218.15 333.034 2217.42 332.262 Z" fill="#000000" fill-rule="evenodd" fill-opacity="1" /><path clip-path="url(#clip560)" d="M2229.89 317.88 Q2229.89 310.338 2233.73 305.724 Q2237.57 301.086 2242.52 301.086 Q2245.4 301.086 2246.99 302.562 Q2248.61 304.014 2248.61 306.263 Q2248.61 307.504 2247.88 308.043 Q2247.15 308.581 2246.41 308.581 Q2245.54 308.581 2244.86 307.996 Q2244.18 307.41 2244.18 306.356 Q2244.18 304.201 2246.83 304.201 Q2245.59 302.281 2242.61 302.281 Q2241.7 302.281 2240.76 302.562 Q2239.82 302.82 2238.61 303.71 Q2237.39 304.6 2236.45 306.005 Q2235.51 307.41 2234.86 310.057 Q2234.2 312.704 2234.2 316.147 L2234.2 317.295 Q2236.17 312.54 2240.2 312.563 Q2244.23 312.563 2247.01 315.632 Q2249.8 318.7 2249.8 323.244 Q2249.8 327.905 2246.9 330.997 Q2243.99 334.088 2239.92 334.088 Q2238.09 334.088 2236.43 333.316 Q2234.79 332.566 2233.24 330.833 Q2231.72 329.099 2230.81 325.774 Q2229.89 322.448 2229.89 317.88 M2234.3 322.19 Q2234.3 326.898 2235.16 329.146 Q2235.3 329.521 2235.61 330.036 Q2235.94 330.552 2236.47 331.231 Q2237.04 331.887 2237.95 332.332 Q2238.86 332.753 2239.92 332.753 Q2243.13 332.753 2244.67 329.638 Q2245.49 327.905 2245.49 323.197 Q2245.49 318.395 2244.63 316.639 Q2243.15 313.664 2240.15 313.664 Q2238.14 313.664 2236.73 315.046 Q2235.35 316.428 2234.81 318.278 Q2234.3 320.129 2234.3 322.19 Z" fill="#000000" fill-rule="evenodd" fill-opacity="1" /><polyline clip-path="url(#clip560)" style="stroke:#c271d2; stroke-linecap:round; stroke-linejoin:round; stroke-width:4; stroke-opacity:1; fill:none" points="
  1944.76,374.156 2086.12,374.156 
  "/>
<path clip-path="url(#clip560)" d="M2134.86 364.684 Q2134.86 364.872 2133.94 366.511 Q2132.42 369.533 2130.48 374.147 Q2128.53 378.761 2127.43 382.181 Q2127.2 383.001 2127.04 384.055 Q2126.61 387.287 2125.25 392.299 Q2124.79 393.869 2124.48 394.525 Q2124.18 395.18 2123.73 395.18 Q2123.1 395.18 2123.1 394.314 Q2123.1 393.447 2123.9 390.215 Q2124.72 386.982 2125.61 384.008 Q2126.17 382.368 2126.17 379.3 Q2126.17 378.316 2126.12 377.426 Q2126.07 376.536 2125.89 375.248 Q2125.7 373.96 2125.4 372.906 Q2125.09 371.852 2124.51 370.751 Q2123.92 369.626 2123.12 368.877 Q2122.33 368.104 2121.11 367.612 Q2119.91 367.12 2118.42 367.12 Q2118.04 367.12 2117.57 367.167 Q2117.13 367.191 2116.05 367.495 Q2115 367.8 2114.11 368.338 Q2113.22 368.854 2112.26 370.001 Q2111.3 371.149 2110.78 372.695 L2110.59 372.929 Q2110.29 372.929 2110.12 372.929 Q2109.98 372.906 2109.82 372.788 Q2109.68 372.671 2109.68 372.461 Q2109.68 371.969 2110.05 370.985 Q2110.45 370.001 2111.25 368.736 Q2112.07 367.472 2113.12 366.347 Q2114.2 365.223 2115.77 364.45 Q2117.34 363.677 2119.02 363.677 Q2123.36 363.677 2125.42 368.947 Q2127.22 373.421 2127.39 378.738 Q2131.13 369.299 2133.71 364.544 Q2133.85 364.192 2134.27 364.192 Q2134.86 364.216 2134.86 364.684 Z" fill="#000000" fill-rule="evenodd" fill-opacity="1" /><path clip-path="url(#clip560)" d="M2147.57 377.59 Q2147.62 377.005 2148.53 377.005 L2177.92 377.005 Q2179.31 377.005 2179.33 377.543 Q2179.33 378.129 2178.02 378.105 L2148.86 378.105 Q2147.57 378.129 2147.57 377.59 M2147.57 368.221 Q2147.57 367.636 2148.58 367.659 L2177.88 367.659 Q2179.31 367.659 2179.33 368.221 Q2179.33 368.76 2178.11 368.76 L2148.53 368.76 Q2147.57 368.76 2147.57 368.221 Z" fill="#000000" fill-rule="evenodd" fill-opacity="1" /><path clip-path="url(#clip560)" d="M2197.82 357.494 L2197.82 355.995 Q2203.58 355.995 2206.56 352.926 Q2207.38 352.926 2207.52 353.114 Q2207.66 353.301 2207.66 354.168 L2207.66 381.08 Q2207.66 382.509 2208.36 382.954 Q2209.06 383.399 2212.13 383.399 L2213.65 383.399 L2213.65 384.874 Q2211.97 384.734 2205.88 384.734 Q2199.79 384.734 2198.12 384.874 L2198.12 383.399 L2199.65 383.399 Q2202.67 383.399 2203.39 382.977 Q2204.12 382.532 2204.12 381.08 L2204.12 356.229 Q2201.61 357.494 2197.82 357.494 Z" fill="#000000" fill-rule="evenodd" fill-opacity="1" /><path clip-path="url(#clip560)" d="M2217.42 384.102 Q2216.7 383.329 2216.7 382.321 Q2216.7 381.314 2217.42 380.588 Q2218.15 379.839 2219.25 379.839 Q2220.3 379.839 2221.01 380.541 Q2221.73 381.221 2221.73 382.345 Q2221.73 383.446 2220.96 384.172 Q2220.21 384.874 2219.25 384.874 Q2218.15 384.874 2217.42 384.102 Z" fill="#000000" fill-rule="evenodd" fill-opacity="1" /><path clip-path="url(#clip560)" d="M2229.89 377.637 Q2229.89 372.273 2236.8 368.807 Q2233.83 366.792 2233.29 366.207 Q2231.18 363.865 2231.18 360.937 Q2231.18 357.587 2233.71 355.268 Q2236.26 352.926 2239.87 352.926 Q2243.31 352.926 2245.91 354.917 Q2248.51 356.908 2248.51 360.07 Q2248.51 364.52 2242.7 367.518 Q2246.55 369.908 2247.46 370.915 Q2249.8 373.515 2249.8 376.817 Q2249.8 380.658 2246.85 383.305 Q2243.9 385.928 2239.82 385.928 Q2235.84 385.928 2232.87 383.61 Q2229.89 381.291 2229.89 377.637 M2232.28 377.637 Q2232.28 380.612 2234.51 382.602 Q2236.76 384.593 2239.87 384.593 Q2242.89 384.593 2245.14 382.86 Q2247.41 381.127 2247.41 378.55 Q2247.41 377.543 2247.06 376.677 Q2246.73 375.81 2246.05 375.131 Q2245.4 374.428 2244.98 374.124 Q2244.58 373.796 2243.81 373.257 L2237.9 369.533 Q2232.28 372.648 2232.28 377.637 M2233.29 359.063 Q2233.29 361.358 2235.7 362.951 L2241.65 366.792 Q2246.41 364.005 2246.41 360.07 Q2246.41 357.517 2244.46 355.831 Q2242.52 354.121 2239.82 354.121 Q2237.18 354.121 2235.23 355.526 Q2233.29 356.908 2233.29 359.063 Z" fill="#000000" fill-rule="evenodd" fill-opacity="1" /><polyline clip-path="url(#clip560)" style="stroke:#ac8d18; stroke-linecap:round; stroke-linejoin:round; stroke-width:4; stroke-opacity:1; fill:none" points="
  1944.76,425.996 2086.12,425.996 
  "/>
<path clip-path="url(#clip560)" d="M2134.86 416.524 Q2134.86 416.712 2133.94 418.351 Q2132.42 421.373 2130.48 425.987 Q2128.53 430.601 2127.43 434.021 Q2127.2 434.841 2127.04 435.895 Q2126.61 439.127 2125.25 444.139 Q2124.79 445.709 2124.48 446.365 Q2124.18 447.02 2123.73 447.02 Q2123.1 447.02 2123.1 446.154 Q2123.1 445.287 2123.9 442.055 Q2124.72 438.822 2125.61 435.848 Q2126.17 434.208 2126.17 431.14 Q2126.17 430.156 2126.12 429.266 Q2126.07 428.376 2125.89 427.088 Q2125.7 425.8 2125.4 424.746 Q2125.09 423.692 2124.51 422.591 Q2123.92 421.466 2123.12 420.717 Q2122.33 419.944 2121.11 419.452 Q2119.91 418.96 2118.42 418.96 Q2118.04 418.96 2117.57 419.007 Q2117.13 419.031 2116.05 419.335 Q2115 419.64 2114.11 420.178 Q2113.22 420.694 2112.26 421.841 Q2111.3 422.989 2110.78 424.535 L2110.59 424.769 Q2110.29 424.769 2110.12 424.769 Q2109.98 424.746 2109.82 424.628 Q2109.68 424.511 2109.68 424.301 Q2109.68 423.809 2110.05 422.825 Q2110.45 421.841 2111.25 420.576 Q2112.07 419.312 2113.12 418.187 Q2114.2 417.063 2115.77 416.29 Q2117.34 415.517 2119.02 415.517 Q2123.36 415.517 2125.42 420.787 Q2127.22 425.261 2127.39 430.578 Q2131.13 421.139 2133.71 416.384 Q2133.85 416.032 2134.27 416.032 Q2134.86 416.056 2134.86 416.524 Z" fill="#000000" fill-rule="evenodd" fill-opacity="1" /><path clip-path="url(#clip560)" d="M2147.57 429.43 Q2147.62 428.845 2148.53 428.845 L2177.92 428.845 Q2179.31 428.845 2179.33 429.383 Q2179.33 429.969 2178.02 429.945 L2148.86 429.945 Q2147.57 429.969 2147.57 429.43 M2147.57 420.061 Q2147.57 419.476 2148.58 419.499 L2177.88 419.499 Q2179.31 419.499 2179.33 420.061 Q2179.33 420.6 2178.11 420.6 L2148.53 420.6 Q2147.57 420.6 2147.57 420.061 Z" fill="#000000" fill-rule="evenodd" fill-opacity="1" /><path clip-path="url(#clip560)" d="M2197.82 436.714 Q2197.82 435.848 2197.89 435.59 Q2197.98 435.333 2198.36 434.934 L2207.56 424.675 Q2212.6 419.007 2212.6 414.065 Q2212.6 410.856 2210.91 408.561 Q2209.25 406.265 2206.18 406.265 Q2204.07 406.265 2202.29 407.554 Q2200.51 408.842 2199.69 411.137 Q2199.83 411.09 2200.33 411.09 Q2201.52 411.09 2202.18 411.84 Q2202.86 412.589 2202.86 413.597 Q2202.86 414.885 2202.01 415.517 Q2201.19 416.126 2200.37 416.126 Q2200.05 416.126 2199.6 416.056 Q2199.18 415.986 2198.5 415.33 Q2197.82 414.651 2197.82 413.456 Q2197.82 410.107 2200.35 407.436 Q2202.9 404.766 2206.79 404.766 Q2211.19 404.766 2214.08 407.39 Q2216.98 409.989 2216.98 414.065 Q2216.98 415.494 2216.53 416.805 Q2216.11 418.094 2215.53 419.101 Q2214.97 420.108 2213.42 421.724 Q2211.87 423.34 2210.63 424.488 Q2209.39 425.636 2206.6 428.072 L2201.52 433.014 L2210.16 433.014 Q2214.38 433.014 2214.71 432.639 Q2215.18 431.96 2215.76 428.376 L2216.98 428.376 L2215.62 436.714 L2197.82 436.714 Z" fill="#000000" fill-rule="evenodd" fill-opacity="1" /><path clip-path="url(#clip560)" d="M2222.3 435.942 Q2221.57 435.169 2221.57 434.161 Q2221.57 433.154 2222.3 432.428 Q2223.02 431.679 2224.12 431.679 Q2225.18 431.679 2225.88 432.381 Q2226.61 433.061 2226.61 434.185 Q2226.61 435.286 2225.83 436.012 Q2225.08 436.714 2224.12 436.714 Q2223.02 436.714 2222.3 435.942 Z" fill="#000000" fill-rule="evenodd" fill-opacity="1" /><path clip-path="url(#clip560)" d="M2234.77 421.373 Q2234.77 414.323 2236.55 410.481 Q2239.03 404.766 2244.89 404.766 Q2246.13 404.766 2247.42 405.118 Q2248.73 405.446 2250.37 406.734 Q2252.03 408.022 2253.04 410.13 Q2254.96 414.205 2254.96 421.373 Q2254.96 428.376 2253.18 432.194 Q2250.58 437.768 2244.84 437.768 Q2242.68 437.768 2240.48 436.668 Q2238.3 435.567 2236.92 432.92 Q2234.77 428.962 2234.77 421.373 M2238.75 420.787 Q2238.75 428.025 2239.26 430.906 Q2239.85 434.021 2241.44 435.379 Q2243.06 436.714 2244.84 436.714 Q2246.76 436.714 2248.35 435.286 Q2249.97 433.834 2250.46 430.718 Q2251 427.65 2250.98 420.787 Q2250.98 414.112 2250.51 411.442 Q2249.87 408.326 2248.19 407.085 Q2246.53 405.82 2244.84 405.82 Q2244.21 405.82 2243.53 406.008 Q2242.87 406.195 2241.91 406.734 Q2240.95 407.272 2240.2 408.608 Q2239.48 409.943 2239.12 411.957 Q2238.75 414.557 2238.75 420.787 Z" fill="#000000" fill-rule="evenodd" fill-opacity="1" /></svg>
