<?xml version="1.0" encoding="utf-8"?>
<svg xmlns="http://www.w3.org/2000/svg" xmlns:xlink="http://www.w3.org/1999/xlink" width="600" height="400" viewBox="0 0 2400 1600">
<defs>
  <clipPath id="clip560">
    <rect x="0" y="0" width="2400" height="1600"/>
  </clipPath>
</defs>
<path clip-path="url(#clip560)" d="
M0 1600 L2400 1600 L2400 0 L0 0  Z
  " fill="#ffffff" fill-rule="evenodd" fill-opacity="1"/>
<defs>
  <clipPath id="clip561">
    <rect x="480" y="0" width="1681" height="1600"/>
  </clipPath>
</defs>
<path clip-path="url(#clip560)" d="
M250.028 1423.18 L2112.76 1423.18 L2112.76 123.472 L250.028 123.472  Z
  " fill="#ffffff" fill-rule="evenodd" fill-opacity="1"/>
<defs>
  <clipPath id="clip562">
    <rect x="250" y="123" width="1864" height="1301"/>
  </clipPath>
</defs>
<polyline clip-path="url(#clip562)" style="stroke:#000000; stroke-linecap:butt; stroke-linejoin:round; stroke-width:2; stroke-opacity:0.1; fill:none" points="
  250.028,1423.18 250.028,123.472 
  "/>
<polyline clip-path="url(#clip562)" style="stroke:#000000; stroke-linecap:butt; stroke-linejoin:round; stroke-width:2; stroke-opacity:0.1; fill:none" points="
  715.71,1423.18 715.71,123.472 
  "/>
<polyline clip-path="url(#clip562)" style="stroke:#000000; stroke-linecap:butt; stroke-linejoin:round; stroke-width:2; stroke-opacity:0.1; fill:none" points="
  1181.39,1423.18 1181.39,123.472 
  "/>
<polyline clip-path="url(#clip562)" style="stroke:#000000; stroke-linecap:butt; stroke-linejoin:round; stroke-width:2; stroke-opacity:0.1; fill:none" points="
  1647.07,1423.18 1647.07,123.472 
  "/>
<polyline clip-path="url(#clip562)" style="stroke:#000000; stroke-linecap:butt; stroke-linejoin:round; stroke-width:2; stroke-opacity:0.1; fill:none" points="
  2112.76,1423.18 2112.76,123.472 
  "/>
<polyline clip-path="url(#clip560)" style="stroke:#000000; stroke-linecap:butt; stroke-linejoin:round; stroke-width:4; stroke-opacity:1; fill:none" points="
  250.028,1423.18 2112.76,1423.18 
  "/>
<polyline clip-path="url(#clip560)" style="stroke:#000000; stroke-linecap:butt; stroke-linejoin:round; stroke-width:4; stroke-opacity:1; fill:none" points="
  250.028,1423.18 250.028,1404.28 
  "/>
<polyline clip-path="url(#clip560)" style="stroke:#000000; stroke-linecap:butt; stroke-linejoin:round; stroke-width:4; stroke-opacity:1; fill:none" points="
  715.71,1423.18 715.71,1404.28 
  "/>
<polyline clip-path="url(#clip560)" style="stroke:#000000; stroke-linecap:butt; stroke-linejoin:round; stroke-width:4; stroke-opacity:1; fill:none" points="
  1181.39,1423.18 1181.39,1404.28 
  "/>
<polyline clip-path="url(#clip560)" style="stroke:#000000; stroke-linecap:butt; stroke-linejoin:round; stroke-width:4; stroke-opacity:1; fill:none" points="
  1647.07,1423.18 1647.07,1404.28 
  "/>
<polyline clip-path="url(#clip560)" style="stroke:#000000; stroke-linecap:butt; stroke-linejoin:round; stroke-width:4; stroke-opacity:1; fill:none" points="
  2112.76,1423.18 2112.76,1404.28 
  "/>
<path clip-path="url(#clip560)" d="M224.716 1481.64 L232.355 1481.64 L232.355 1455.28 L224.044 1456.95 L224.044 1452.69 L232.308 1451.02 L236.984 1451.02 L236.984 1481.64 L244.623 1481.64 L244.623 1485.58 L224.716 1485.58 L224.716 1481.64 Z" fill="#000000" fill-rule="evenodd" fill-opacity="1" /><path clip-path="url(#clip560)" d="M264.067 1454.1 Q260.456 1454.1 258.628 1457.66 Q256.822 1461.2 256.822 1468.33 Q256.822 1475.44 258.628 1479.01 Q260.456 1482.55 264.067 1482.55 Q267.702 1482.55 269.507 1479.01 Q271.336 1475.44 271.336 1468.33 Q271.336 1461.2 269.507 1457.66 Q267.702 1454.1 264.067 1454.1 M264.067 1450.39 Q269.878 1450.39 272.933 1455 Q276.012 1459.58 276.012 1468.33 Q276.012 1477.06 272.933 1481.67 Q269.878 1486.25 264.067 1486.25 Q258.257 1486.25 255.179 1481.67 Q252.123 1477.06 252.123 1468.33 Q252.123 1459.58 255.179 1455 Q258.257 1450.39 264.067 1450.39 Z" fill="#000000" fill-rule="evenodd" fill-opacity="1" /><path clip-path="url(#clip560)" d="M690.895 1481.64 L698.534 1481.64 L698.534 1455.28 L690.224 1456.95 L690.224 1452.69 L698.488 1451.02 L703.164 1451.02 L703.164 1481.64 L710.803 1481.64 L710.803 1485.58 L690.895 1485.58 L690.895 1481.64 Z" fill="#000000" fill-rule="evenodd" fill-opacity="1" /><path clip-path="url(#clip560)" d="M720.293 1451.02 L738.65 1451.02 L738.65 1454.96 L724.576 1454.96 L724.576 1463.43 Q725.594 1463.08 726.613 1462.92 Q727.631 1462.73 728.65 1462.73 Q734.437 1462.73 737.816 1465.9 Q741.196 1469.08 741.196 1474.49 Q741.196 1480.07 737.724 1483.17 Q734.252 1486.25 727.932 1486.25 Q725.756 1486.25 723.488 1485.88 Q721.242 1485.51 718.835 1484.77 L718.835 1480.07 Q720.918 1481.2 723.141 1481.76 Q725.363 1482.32 727.84 1482.32 Q731.844 1482.32 734.182 1480.21 Q736.52 1478.1 736.52 1474.49 Q736.52 1470.88 734.182 1468.77 Q731.844 1466.67 727.84 1466.67 Q725.965 1466.67 724.09 1467.08 Q722.238 1467.5 720.293 1468.38 L720.293 1451.02 Z" fill="#000000" fill-rule="evenodd" fill-opacity="1" /><path clip-path="url(#clip560)" d="M1160.17 1481.64 L1176.48 1481.64 L1176.48 1485.58 L1154.54 1485.58 L1154.54 1481.64 Q1157.2 1478.89 1161.79 1474.26 Q1166.39 1469.61 1167.57 1468.27 Q1169.82 1465.74 1170.7 1464.01 Q1171.6 1462.25 1171.6 1460.56 Q1171.6 1457.8 1169.66 1456.07 Q1167.73 1454.33 1164.63 1454.33 Q1162.43 1454.33 1159.98 1455.09 Q1157.55 1455.86 1154.77 1457.41 L1154.77 1452.69 Q1157.6 1451.55 1160.05 1450.97 Q1162.5 1450.39 1164.54 1450.39 Q1169.91 1450.39 1173.11 1453.08 Q1176.3 1455.77 1176.3 1460.26 Q1176.3 1462.39 1175.49 1464.31 Q1174.7 1466.2 1172.6 1468.8 Q1172.02 1469.47 1168.92 1472.69 Q1165.81 1475.88 1160.17 1481.64 Z" fill="#000000" fill-rule="evenodd" fill-opacity="1" /><path clip-path="url(#clip560)" d="M1196.3 1454.1 Q1192.69 1454.1 1190.86 1457.66 Q1189.05 1461.2 1189.05 1468.33 Q1189.05 1475.44 1190.86 1479.01 Q1192.69 1482.55 1196.3 1482.55 Q1199.93 1482.55 1201.74 1479.01 Q1203.57 1475.44 1203.57 1468.33 Q1203.57 1461.2 1201.74 1457.66 Q1199.93 1454.1 1196.3 1454.1 M1196.3 1450.39 Q1202.11 1450.39 1205.17 1455 Q1208.24 1459.58 1208.24 1468.33 Q1208.24 1477.06 1205.17 1481.67 Q1202.11 1486.25 1196.3 1486.25 Q1190.49 1486.25 1187.41 1481.67 Q1184.35 1477.06 1184.35 1468.33 Q1184.35 1459.58 1187.41 1455 Q1190.49 1450.39 1196.3 1450.39 Z" fill="#000000" fill-rule="evenodd" fill-opacity="1" /><path clip-path="url(#clip560)" d="M1626.34 1481.64 L1642.66 1481.64 L1642.66 1485.58 L1620.72 1485.58 L1620.72 1481.64 Q1623.38 1478.89 1627.97 1474.26 Q1632.57 1469.61 1633.75 1468.27 Q1636 1465.74 1636.88 1464.01 Q1637.78 1462.25 1637.78 1460.56 Q1637.78 1457.8 1635.84 1456.07 Q1633.91 1454.33 1630.81 1454.33 Q1628.61 1454.33 1626.16 1455.09 Q1623.73 1455.86 1620.95 1457.41 L1620.95 1452.69 Q1623.78 1451.55 1626.23 1450.97 Q1628.68 1450.39 1630.72 1450.39 Q1636.09 1450.39 1639.28 1453.08 Q1642.48 1455.77 1642.48 1460.26 Q1642.48 1462.39 1641.67 1464.31 Q1640.88 1466.2 1638.78 1468.8 Q1638.2 1469.47 1635.09 1472.69 Q1631.99 1475.88 1626.34 1481.64 Z" fill="#000000" fill-rule="evenodd" fill-opacity="1" /><path clip-path="url(#clip560)" d="M1652.53 1451.02 L1670.88 1451.02 L1670.88 1454.96 L1656.81 1454.96 L1656.81 1463.43 Q1657.83 1463.08 1658.84 1462.92 Q1659.86 1462.73 1660.88 1462.73 Q1666.67 1462.73 1670.05 1465.9 Q1673.43 1469.08 1673.43 1474.49 Q1673.43 1480.07 1669.96 1483.17 Q1666.48 1486.25 1660.16 1486.25 Q1657.99 1486.25 1655.72 1485.88 Q1653.47 1485.51 1651.07 1484.77 L1651.07 1480.07 Q1653.15 1481.2 1655.37 1481.76 Q1657.59 1482.32 1660.07 1482.32 Q1664.08 1482.32 1666.41 1480.21 Q1668.75 1478.1 1668.75 1474.49 Q1668.75 1470.88 1666.41 1468.77 Q1664.08 1466.67 1660.07 1466.67 Q1658.2 1466.67 1656.32 1467.08 Q1654.47 1467.5 1652.53 1468.38 L1652.53 1451.02 Z" fill="#000000" fill-rule="evenodd" fill-opacity="1" /><path clip-path="url(#clip560)" d="M2101.6 1466.95 Q2104.96 1467.66 2106.83 1469.93 Q2108.73 1472.2 2108.73 1475.53 Q2108.73 1480.65 2105.21 1483.45 Q2101.69 1486.25 2095.21 1486.25 Q2093.03 1486.25 2090.72 1485.81 Q2088.43 1485.39 2085.97 1484.54 L2085.97 1480.02 Q2087.92 1481.16 2090.23 1481.74 Q2092.55 1482.32 2095.07 1482.32 Q2099.47 1482.32 2101.76 1480.58 Q2104.08 1478.84 2104.08 1475.53 Q2104.08 1472.48 2101.92 1470.77 Q2099.79 1469.03 2095.97 1469.03 L2091.95 1469.03 L2091.95 1465.19 L2096.16 1465.19 Q2099.61 1465.19 2101.44 1463.82 Q2103.27 1462.43 2103.27 1459.84 Q2103.27 1457.18 2101.37 1455.77 Q2099.49 1454.33 2095.97 1454.33 Q2094.05 1454.33 2091.85 1454.75 Q2089.65 1455.16 2087.02 1456.04 L2087.02 1451.88 Q2089.68 1451.14 2091.99 1450.77 Q2094.33 1450.39 2096.39 1450.39 Q2101.71 1450.39 2104.82 1452.83 Q2107.92 1455.23 2107.92 1459.35 Q2107.92 1462.22 2106.27 1464.21 Q2104.63 1466.18 2101.6 1466.95 Z" fill="#000000" fill-rule="evenodd" fill-opacity="1" /><path clip-path="url(#clip560)" d="M2127.59 1454.1 Q2123.98 1454.1 2122.15 1457.66 Q2120.35 1461.2 2120.35 1468.33 Q2120.35 1475.44 2122.15 1479.01 Q2123.98 1482.55 2127.59 1482.55 Q2131.23 1482.55 2133.03 1479.01 Q2134.86 1475.44 2134.86 1468.33 Q2134.86 1461.2 2133.03 1457.66 Q2131.23 1454.1 2127.59 1454.1 M2127.59 1450.39 Q2133.4 1450.39 2136.46 1455 Q2139.54 1459.58 2139.54 1468.33 Q2139.54 1477.06 2136.46 1481.67 Q2133.4 1486.25 2127.59 1486.25 Q2121.78 1486.25 2118.7 1481.67 Q2115.65 1477.06 2115.65 1468.33 Q2115.65 1459.58 2118.7 1455 Q2121.78 1450.39 2127.59 1450.39 Z" fill="#000000" fill-rule="evenodd" fill-opacity="1" /><path clip-path="url(#clip560)" d="M1195.49 1533.76 L1195.49 1539.24 Q1193.01 1537.87 1190.49 1537.2 Q1188.01 1536.5 1185.47 1536.5 Q1179.77 1536.5 1176.62 1540.13 Q1173.47 1543.73 1173.47 1550.25 Q1173.47 1556.78 1176.62 1560.4 Q1179.77 1564 1185.47 1564 Q1188.01 1564 1190.49 1563.33 Q1193.01 1562.63 1195.49 1561.26 L1195.49 1566.68 Q1193.04 1567.82 1190.4 1568.39 Q1187.79 1568.97 1184.83 1568.97 Q1176.78 1568.97 1172.03 1563.91 Q1167.29 1558.85 1167.29 1550.25 Q1167.29 1541.53 1172.07 1536.53 Q1176.87 1531.54 1185.21 1531.54 Q1187.92 1531.54 1190.49 1532.11 Q1193.07 1532.65 1195.49 1533.76 Z" fill="#000000" fill-rule="evenodd" fill-opacity="1" /><polyline clip-path="url(#clip562)" style="stroke:#000000; stroke-linecap:butt; stroke-linejoin:round; stroke-width:2; stroke-opacity:0.1; fill:none" points="
  250.028,1423.18 2112.76,1423.18 
  "/>
<polyline clip-path="url(#clip562)" style="stroke:#000000; stroke-linecap:butt; stroke-linejoin:round; stroke-width:2; stroke-opacity:0.1; fill:none" points="
  250.028,1134.36 2112.76,1134.36 
  "/>
<polyline clip-path="url(#clip562)" style="stroke:#000000; stroke-linecap:butt; stroke-linejoin:round; stroke-width:2; stroke-opacity:0.1; fill:none" points="
  250.028,845.532 2112.76,845.532 
  "/>
<polyline clip-path="url(#clip562)" style="stroke:#000000; stroke-linecap:butt; stroke-linejoin:round; stroke-width:2; stroke-opacity:0.1; fill:none" points="
  250.028,556.708 2112.76,556.708 
  "/>
<polyline clip-path="url(#clip562)" style="stroke:#000000; stroke-linecap:butt; stroke-linejoin:round; stroke-width:2; stroke-opacity:0.1; fill:none" points="
  250.028,267.884 2112.76,267.884 
  "/>
<polyline clip-path="url(#clip560)" style="stroke:#000000; stroke-linecap:butt; stroke-linejoin:round; stroke-width:4; stroke-opacity:1; fill:none" points="
  250.028,1423.18 250.028,123.472 
  "/>
<polyline clip-path="url(#clip560)" style="stroke:#000000; stroke-linecap:butt; stroke-linejoin:round; stroke-width:4; stroke-opacity:1; fill:none" points="
  250.028,1423.18 266.769,1423.18 
  "/>
<polyline clip-path="url(#clip560)" style="stroke:#000000; stroke-linecap:butt; stroke-linejoin:round; stroke-width:4; stroke-opacity:1; fill:none" points="
  250.028,1134.36 266.769,1134.36 
  "/>
<polyline clip-path="url(#clip560)" style="stroke:#000000; stroke-linecap:butt; stroke-linejoin:round; stroke-width:4; stroke-opacity:1; fill:none" points="
  250.028,845.532 266.769,845.532 
  "/>
<polyline clip-path="url(#clip560)" style="stroke:#000000; stroke-linecap:butt; stroke-linejoin:round; stroke-width:4; stroke-opacity:1; fill:none" points="
  250.028,556.708 266.769,556.708 
  "/>
<polyline clip-path="url(#clip560)" style="stroke:#000000; stroke-linecap:butt; stroke-linejoin:round; stroke-width:4; stroke-opacity:1; fill:none" points="
  250.028,267.884 266.769,267.884 
  "/>
<path clip-path="url(#clip560)" d="M126.691 1408.98 Q123.08 1408.98 121.251 1412.54 Q119.445 1416.08 119.445 1423.21 Q119.445 1430.32 121.251 1433.89 Q123.08 1437.43 126.691 1437.43 Q130.325 1437.43 132.13 1433.89 Q133.959 1430.32 133.959 1423.21 Q133.959 1416.08 132.13 1412.54 Q130.325 1408.98 126.691 1408.98 M126.691 1405.27 Q132.501 1405.27 135.556 1409.88 Q138.635 1414.46 138.635 1423.21 Q138.635 1431.94 135.556 1436.55 Q132.501 1441.13 126.691 1441.13 Q120.88 1441.13 117.802 1436.55 Q114.746 1431.94 114.746 1423.21 Q114.746 1414.46 117.802 1409.88 Q120.88 1405.27 126.691 1405.27 Z" fill="#000000" fill-rule="evenodd" fill-opacity="1" /><path clip-path="url(#clip560)" d="M146.853 1434.58 L151.737 1434.58 L151.737 1440.46 L146.853 1440.46 L146.853 1434.58 Z" fill="#000000" fill-rule="evenodd" fill-opacity="1" /><path clip-path="url(#clip560)" d="M162.061 1439.74 L162.061 1435.48 Q163.82 1436.32 165.626 1436.76 Q167.431 1437.2 169.167 1437.2 Q173.797 1437.2 176.227 1434.09 Q178.681 1430.97 179.028 1424.63 Q177.686 1426.62 175.626 1427.68 Q173.565 1428.75 171.065 1428.75 Q165.88 1428.75 162.848 1425.62 Q159.839 1422.47 159.839 1417.03 Q159.839 1411.71 162.987 1408.49 Q166.135 1405.27 171.366 1405.27 Q177.362 1405.27 180.51 1409.88 Q183.681 1414.46 183.681 1423.21 Q183.681 1431.39 179.792 1436.27 Q175.926 1441.13 169.376 1441.13 Q167.616 1441.13 165.811 1440.78 Q164.005 1440.44 162.061 1439.74 M171.366 1425.09 Q174.514 1425.09 176.343 1422.94 Q178.195 1420.78 178.195 1417.03 Q178.195 1413.31 176.343 1411.15 Q174.514 1408.98 171.366 1408.98 Q168.218 1408.98 166.366 1411.15 Q164.538 1413.31 164.538 1417.03 Q164.538 1420.78 166.366 1422.94 Q168.218 1425.09 171.366 1425.09 Z" fill="#000000" fill-rule="evenodd" fill-opacity="1" /><path clip-path="url(#clip560)" d="M202.084 1408.98 Q198.473 1408.98 196.644 1412.54 Q194.838 1416.08 194.838 1423.21 Q194.838 1430.32 196.644 1433.89 Q198.473 1437.43 202.084 1437.43 Q205.718 1437.43 207.524 1433.89 Q209.352 1430.32 209.352 1423.21 Q209.352 1416.08 207.524 1412.54 Q205.718 1408.98 202.084 1408.98 M202.084 1405.27 Q207.894 1405.27 210.949 1409.88 Q214.028 1414.46 214.028 1423.21 Q214.028 1431.94 210.949 1436.55 Q207.894 1441.13 202.084 1441.13 Q196.274 1441.13 193.195 1436.55 Q190.139 1431.94 190.139 1423.21 Q190.139 1414.46 193.195 1409.88 Q196.274 1405.27 202.084 1405.27 Z" fill="#000000" fill-rule="evenodd" fill-opacity="1" /><path clip-path="url(#clip560)" d="M128.288 1120.15 Q124.677 1120.15 122.848 1123.72 Q121.043 1127.26 121.043 1134.39 Q121.043 1141.5 122.848 1145.06 Q124.677 1148.6 128.288 1148.6 Q131.922 1148.6 133.728 1145.06 Q135.556 1141.5 135.556 1134.39 Q135.556 1127.26 133.728 1123.72 Q131.922 1120.15 128.288 1120.15 M128.288 1116.45 Q134.098 1116.45 137.154 1121.06 Q140.232 1125.64 140.232 1134.39 Q140.232 1143.12 137.154 1147.72 Q134.098 1152.31 128.288 1152.31 Q122.478 1152.31 119.399 1147.72 Q116.343 1143.12 116.343 1134.39 Q116.343 1125.64 119.399 1121.06 Q122.478 1116.45 128.288 1116.45 Z" fill="#000000" fill-rule="evenodd" fill-opacity="1" /><path clip-path="url(#clip560)" d="M148.45 1145.76 L153.334 1145.76 L153.334 1151.64 L148.45 1151.64 L148.45 1145.76 Z" fill="#000000" fill-rule="evenodd" fill-opacity="1" /><path clip-path="url(#clip560)" d="M163.658 1150.92 L163.658 1146.66 Q165.417 1147.49 167.223 1147.93 Q169.028 1148.37 170.764 1148.37 Q175.394 1148.37 177.825 1145.27 Q180.278 1142.15 180.626 1135.8 Q179.283 1137.79 177.223 1138.86 Q175.163 1139.92 172.663 1139.92 Q167.477 1139.92 164.445 1136.8 Q161.436 1133.65 161.436 1128.21 Q161.436 1122.89 164.584 1119.67 Q167.732 1116.45 172.964 1116.45 Q178.959 1116.45 182.107 1121.06 Q185.278 1125.64 185.278 1134.39 Q185.278 1142.56 181.389 1147.45 Q177.524 1152.31 170.973 1152.31 Q169.214 1152.31 167.408 1151.96 Q165.602 1151.61 163.658 1150.92 M172.964 1136.27 Q176.112 1136.27 177.94 1134.11 Q179.792 1131.96 179.792 1128.21 Q179.792 1124.48 177.94 1122.33 Q176.112 1120.15 172.964 1120.15 Q169.815 1120.15 167.964 1122.33 Q166.135 1124.48 166.135 1128.21 Q166.135 1131.96 167.964 1134.11 Q169.815 1136.27 172.964 1136.27 Z" fill="#000000" fill-rule="evenodd" fill-opacity="1" /><path clip-path="url(#clip560)" d="M197.709 1147.7 L214.028 1147.7 L214.028 1151.64 L192.084 1151.64 L192.084 1147.7 Q194.746 1144.95 199.329 1140.32 Q203.936 1135.66 205.116 1134.32 Q207.362 1131.8 208.241 1130.06 Q209.144 1128.3 209.144 1126.61 Q209.144 1123.86 207.199 1122.12 Q205.278 1120.39 202.176 1120.39 Q199.977 1120.39 197.524 1121.15 Q195.093 1121.91 192.315 1123.46 L192.315 1118.74 Q195.139 1117.61 197.593 1117.03 Q200.047 1116.45 202.084 1116.45 Q207.454 1116.45 210.649 1119.14 Q213.843 1121.82 213.843 1126.31 Q213.843 1128.44 213.033 1130.36 Q212.246 1132.26 210.139 1134.85 Q209.561 1135.52 206.459 1138.74 Q203.357 1141.94 197.709 1147.7 Z" fill="#000000" fill-rule="evenodd" fill-opacity="1" /><path clip-path="url(#clip560)" d="M126.205 831.331 Q122.593 831.331 120.765 834.895 Q118.959 838.437 118.959 845.567 Q118.959 852.673 120.765 856.238 Q122.593 859.78 126.205 859.78 Q129.839 859.78 131.644 856.238 Q133.473 852.673 133.473 845.567 Q133.473 838.437 131.644 834.895 Q129.839 831.331 126.205 831.331 M126.205 827.627 Q132.015 827.627 135.07 832.233 Q138.149 836.817 138.149 845.567 Q138.149 854.293 135.07 858.9 Q132.015 863.483 126.205 863.483 Q120.394 863.483 117.316 858.9 Q114.26 854.293 114.26 845.567 Q114.26 836.817 117.316 832.233 Q120.394 827.627 126.205 827.627 Z" fill="#000000" fill-rule="evenodd" fill-opacity="1" /><path clip-path="url(#clip560)" d="M146.366 856.932 L151.251 856.932 L151.251 862.812 L146.366 862.812 L146.366 856.932 Z" fill="#000000" fill-rule="evenodd" fill-opacity="1" /><path clip-path="url(#clip560)" d="M161.575 862.094 L161.575 857.835 Q163.334 858.668 165.14 859.108 Q166.945 859.548 168.681 859.548 Q173.311 859.548 175.741 856.446 Q178.195 853.321 178.542 846.979 Q177.2 848.969 175.139 850.034 Q173.079 851.099 170.579 851.099 Q165.394 851.099 162.362 847.974 Q159.353 844.826 159.353 839.386 Q159.353 834.062 162.501 830.845 Q165.649 827.627 170.88 827.627 Q176.876 827.627 180.024 832.233 Q183.195 836.817 183.195 845.567 Q183.195 853.738 179.306 858.622 Q175.44 863.483 168.889 863.483 Q167.13 863.483 165.325 863.136 Q163.519 862.789 161.575 862.094 M170.88 847.442 Q174.028 847.442 175.857 845.289 Q177.709 843.136 177.709 839.386 Q177.709 835.659 175.857 833.507 Q174.028 831.331 170.88 831.331 Q167.732 831.331 165.88 833.507 Q164.052 835.659 164.052 839.386 Q164.052 843.136 165.88 845.289 Q167.732 847.442 170.88 847.442 Z" fill="#000000" fill-rule="evenodd" fill-opacity="1" /><path clip-path="url(#clip560)" d="M204.445 832.326 L192.639 850.775 L204.445 850.775 L204.445 832.326 M203.218 828.252 L209.098 828.252 L209.098 850.775 L214.028 850.775 L214.028 854.664 L209.098 854.664 L209.098 862.812 L204.445 862.812 L204.445 854.664 L188.843 854.664 L188.843 850.15 L203.218 828.252 Z" fill="#000000" fill-rule="evenodd" fill-opacity="1" /><path clip-path="url(#clip560)" d="M126.529 542.507 Q122.918 542.507 121.089 546.072 Q119.283 549.613 119.283 556.743 Q119.283 563.849 121.089 567.414 Q122.918 570.956 126.529 570.956 Q130.163 570.956 131.968 567.414 Q133.797 563.849 133.797 556.743 Q133.797 549.613 131.968 546.072 Q130.163 542.507 126.529 542.507 M126.529 538.803 Q132.339 538.803 135.394 543.409 Q138.473 547.993 138.473 556.743 Q138.473 565.47 135.394 570.076 Q132.339 574.659 126.529 574.659 Q120.718 574.659 117.64 570.076 Q114.584 565.47 114.584 556.743 Q114.584 547.993 117.64 543.409 Q120.718 538.803 126.529 538.803 Z" fill="#000000" fill-rule="evenodd" fill-opacity="1" /><path clip-path="url(#clip560)" d="M146.691 568.108 L151.575 568.108 L151.575 573.988 L146.691 573.988 L146.691 568.108 Z" fill="#000000" fill-rule="evenodd" fill-opacity="1" /><path clip-path="url(#clip560)" d="M161.899 573.27 L161.899 569.011 Q163.658 569.845 165.464 570.284 Q167.269 570.724 169.005 570.724 Q173.635 570.724 176.065 567.622 Q178.519 564.497 178.866 558.155 Q177.524 560.146 175.464 561.21 Q173.403 562.275 170.903 562.275 Q165.718 562.275 162.686 559.15 Q159.677 556.002 159.677 550.562 Q159.677 545.238 162.825 542.021 Q165.973 538.803 171.204 538.803 Q177.2 538.803 180.348 543.409 Q183.519 547.993 183.519 556.743 Q183.519 564.914 179.63 569.798 Q175.764 574.659 169.214 574.659 Q167.454 574.659 165.649 574.312 Q163.843 573.965 161.899 573.27 M171.204 558.618 Q174.352 558.618 176.181 556.465 Q178.033 554.312 178.033 550.562 Q178.033 546.835 176.181 544.683 Q174.352 542.507 171.204 542.507 Q168.056 542.507 166.204 544.683 Q164.376 546.835 164.376 550.562 Q164.376 554.312 166.204 556.465 Q168.056 558.618 171.204 558.618 Z" fill="#000000" fill-rule="evenodd" fill-opacity="1" /><path clip-path="url(#clip560)" d="M202.5 554.845 Q199.352 554.845 197.5 556.997 Q195.672 559.15 195.672 562.9 Q195.672 566.627 197.5 568.803 Q199.352 570.956 202.5 570.956 Q205.649 570.956 207.477 568.803 Q209.329 566.627 209.329 562.9 Q209.329 559.15 207.477 556.997 Q205.649 554.845 202.5 554.845 M211.783 540.192 L211.783 544.451 Q210.024 543.618 208.218 543.178 Q206.436 542.738 204.676 542.738 Q200.047 542.738 197.593 545.863 Q195.163 548.988 194.815 555.308 Q196.181 553.294 198.241 552.229 Q200.301 551.141 202.778 551.141 Q207.987 551.141 210.996 554.312 Q214.028 557.46 214.028 562.9 Q214.028 568.224 210.88 571.442 Q207.732 574.659 202.5 574.659 Q196.505 574.659 193.334 570.076 Q190.163 565.47 190.163 556.743 Q190.163 548.548 194.051 543.687 Q197.94 538.803 204.491 538.803 Q206.25 538.803 208.033 539.15 Q209.838 539.497 211.783 540.192 Z" fill="#000000" fill-rule="evenodd" fill-opacity="1" /><path clip-path="url(#clip560)" d="M126.783 253.683 Q123.172 253.683 121.343 257.248 Q119.538 260.789 119.538 267.919 Q119.538 275.025 121.343 278.59 Q123.172 282.132 126.783 282.132 Q130.417 282.132 132.223 278.59 Q134.052 275.025 134.052 267.919 Q134.052 260.789 132.223 257.248 Q130.417 253.683 126.783 253.683 M126.783 249.979 Q132.593 249.979 135.649 254.586 Q138.728 259.169 138.728 267.919 Q138.728 276.646 135.649 281.252 Q132.593 285.835 126.783 285.835 Q120.973 285.835 117.894 281.252 Q114.839 276.646 114.839 267.919 Q114.839 259.169 117.894 254.586 Q120.973 249.979 126.783 249.979 Z" fill="#000000" fill-rule="evenodd" fill-opacity="1" /><path clip-path="url(#clip560)" d="M146.945 279.284 L151.829 279.284 L151.829 285.164 L146.945 285.164 L146.945 279.284 Z" fill="#000000" fill-rule="evenodd" fill-opacity="1" /><path clip-path="url(#clip560)" d="M162.153 284.447 L162.153 280.187 Q163.913 281.021 165.718 281.46 Q167.524 281.9 169.26 281.9 Q173.889 281.9 176.32 278.798 Q178.774 275.673 179.121 269.331 Q177.778 271.322 175.718 272.386 Q173.658 273.451 171.158 273.451 Q165.973 273.451 162.94 270.326 Q159.931 267.178 159.931 261.738 Q159.931 256.414 163.079 253.197 Q166.227 249.979 171.459 249.979 Q177.454 249.979 180.602 254.586 Q183.774 259.169 183.774 267.919 Q183.774 276.09 179.885 280.974 Q176.019 285.835 169.468 285.835 Q167.709 285.835 165.903 285.488 Q164.098 285.141 162.153 284.447 M171.459 269.794 Q174.607 269.794 176.436 267.641 Q178.288 265.488 178.288 261.738 Q178.288 258.011 176.436 255.859 Q174.607 253.683 171.459 253.683 Q168.311 253.683 166.459 255.859 Q164.63 258.011 164.63 261.738 Q164.63 265.488 166.459 267.641 Q168.311 269.794 171.459 269.794 Z" fill="#000000" fill-rule="evenodd" fill-opacity="1" /><path clip-path="url(#clip560)" d="M202.176 268.752 Q198.843 268.752 196.922 270.535 Q195.024 272.317 195.024 275.442 Q195.024 278.567 196.922 280.349 Q198.843 282.132 202.176 282.132 Q205.51 282.132 207.431 280.349 Q209.352 278.544 209.352 275.442 Q209.352 272.317 207.431 270.535 Q205.533 268.752 202.176 268.752 M197.5 266.761 Q194.491 266.021 192.801 263.961 Q191.135 261.9 191.135 258.937 Q191.135 254.794 194.075 252.386 Q197.037 249.979 202.176 249.979 Q207.338 249.979 210.278 252.386 Q213.218 254.794 213.218 258.937 Q213.218 261.9 211.528 263.961 Q209.861 266.021 206.875 266.761 Q210.255 267.548 212.13 269.84 Q214.028 272.132 214.028 275.442 Q214.028 280.465 210.949 283.15 Q207.894 285.835 202.176 285.835 Q196.459 285.835 193.38 283.15 Q190.325 280.465 190.325 275.442 Q190.325 272.132 192.223 269.84 Q194.121 267.548 197.5 266.761 M195.787 259.377 Q195.787 262.062 197.454 263.567 Q199.144 265.072 202.176 265.072 Q205.186 265.072 206.875 263.567 Q208.588 262.062 208.588 259.377 Q208.588 256.692 206.875 255.187 Q205.186 253.683 202.176 253.683 Q199.144 253.683 197.454 255.187 Q195.787 256.692 195.787 259.377 Z" fill="#000000" fill-rule="evenodd" fill-opacity="1" /><path clip-path="url(#clip560)" d="M46.212 815.085 Q39.7508 815.085 36.0905 817.759 Q32.3984 820.4 32.3984 825.047 Q32.3984 829.694 36.0905 832.368 Q39.7508 835.01 46.212 835.01 Q52.6732 835.01 56.3653 832.368 Q60.0256 829.694 60.0256 825.047 Q60.0256 820.4 56.3653 817.759 Q52.6732 815.085 46.212 815.085 M33.7671 835.01 Q30.5842 833.164 29.0564 830.363 Q27.4968 827.53 27.4968 823.615 Q27.4968 817.122 32.6531 813.08 Q37.8093 809.006 46.212 809.006 Q54.6147 809.006 59.771 813.08 Q64.9272 817.122 64.9272 823.615 Q64.9272 827.53 63.3994 830.363 Q61.8398 833.164 58.657 835.01 L64.0042 835.01 L64.0042 840.898 L14.479 840.898 L14.479 835.01 L33.7671 835.01 Z" fill="#000000" fill-rule="evenodd" fill-opacity="1" /><path clip-path="url(#clip560)" d="M44.7161 768.806 L47.5806 768.806 L47.5806 795.733 Q53.6281 795.351 56.8109 792.105 Q59.9619 788.826 59.9619 783.002 Q59.9619 779.628 59.1344 776.477 Q58.3069 773.294 56.6518 770.175 L62.1899 770.175 Q63.5267 773.326 64.227 776.636 Q64.9272 779.946 64.9272 783.352 Q64.9272 791.882 59.9619 796.879 Q54.9967 801.844 46.5303 801.844 Q37.7774 801.844 32.6531 797.134 Q27.4968 792.391 27.4968 784.37 Q27.4968 777.177 32.1438 773.008 Q36.7589 768.806 44.7161 768.806 M42.9973 774.663 Q38.1912 774.726 35.3266 777.368 Q32.4621 779.978 32.4621 784.307 Q32.4621 789.208 35.2312 792.168 Q38.0002 795.097 43.0292 795.542 L42.9973 774.663 Z" fill="#000000" fill-rule="evenodd" fill-opacity="1" /><path clip-path="url(#clip560)" d="M18.2347 753.401 L28.3562 753.401 L28.3562 741.338 L32.9077 741.338 L32.9077 753.401 L52.2594 753.401 Q56.6199 753.401 57.8613 752.224 Q59.1026 751.014 59.1026 747.354 L59.1026 741.338 L64.0042 741.338 L64.0042 747.354 Q64.0042 754.133 61.4897 756.711 Q58.9434 759.29 52.2594 759.29 L32.9077 759.29 L32.9077 763.586 L28.3562 763.586 L28.3562 759.29 L18.2347 759.29 L18.2347 753.401 Z" fill="#000000" fill-rule="evenodd" fill-opacity="1" /><path clip-path="url(#clip560)" d="M46.0847 717.435 Q46.0847 724.533 47.7079 727.27 Q49.3312 730.007 53.2461 730.007 Q56.3653 730.007 58.2114 727.97 Q60.0256 725.901 60.0256 722.369 Q60.0256 717.499 56.5881 714.571 Q53.1188 711.61 47.3897 711.61 L46.0847 711.61 L46.0847 717.435 M43.6657 705.754 L64.0042 705.754 L64.0042 711.61 L58.5933 711.61 Q61.8398 713.616 63.3994 716.608 Q64.9272 719.599 64.9272 723.928 Q64.9272 729.403 61.8716 732.649 Q58.7843 735.864 53.6281 735.864 Q47.6125 735.864 44.5569 731.853 Q41.5014 727.811 41.5014 719.822 L41.5014 711.61 L40.9285 711.61 Q36.8862 711.61 34.6901 714.284 Q32.4621 716.926 32.4621 721.732 Q32.4621 724.787 33.1941 727.684 Q33.9262 730.58 35.3903 733.254 L29.9795 733.254 Q28.7381 730.039 28.1334 727.015 Q27.4968 723.992 27.4968 721.127 Q27.4968 713.393 31.5072 709.573 Q35.5176 705.754 43.6657 705.754 Z" fill="#000000" fill-rule="evenodd" fill-opacity="1" /><path clip-path="url(#clip560)" d="M841.44 44.2197 Q844.073 45.1109 846.544 48.0275 Q849.056 50.9442 851.567 56.0483 L859.872 72.576 L851.081 72.576 L843.344 57.061 Q840.346 50.9847 837.511 48.9997 Q834.716 47.0148 829.855 47.0148 L820.943 47.0148 L820.943 72.576 L812.76 72.576 L812.76 12.096 L831.232 12.096 Q841.602 12.096 846.706 16.4305 Q851.81 20.7649 851.81 29.5149 Q851.81 35.2267 849.137 38.994 Q846.504 42.7613 841.44 44.2197 M820.943 18.8205 L820.943 40.2903 L831.232 40.2903 Q837.146 40.2903 840.144 37.5762 Q843.182 34.8216 843.182 29.5149 Q843.182 24.2082 840.144 21.5346 Q837.146 18.8205 831.232 18.8205 L820.943 18.8205 Z" fill="#000000" fill-rule="evenodd" fill-opacity="1" /><path clip-path="url(#clip560)" d="M905.161 48.0275 L905.161 51.6733 L870.89 51.6733 Q871.376 59.3701 875.508 63.421 Q879.681 67.4314 887.094 67.4314 Q891.388 67.4314 895.398 66.3781 Q899.449 65.3249 903.419 63.2184 L903.419 70.267 Q899.409 71.9684 895.196 72.8596 Q890.983 73.7508 886.648 73.7508 Q875.792 73.7508 869.432 67.4314 Q863.112 61.1119 863.112 50.3365 Q863.112 39.1965 869.108 32.6746 Q875.144 26.1121 885.352 26.1121 Q894.507 26.1121 899.814 32.0264 Q905.161 37.9003 905.161 48.0275 M897.707 45.84 Q897.626 39.7232 894.264 36.0774 Q890.942 32.4315 885.433 32.4315 Q879.195 32.4315 875.427 35.9558 Q871.7 39.4801 871.133 45.8805 L897.707 45.84 Z" fill="#000000" fill-rule="evenodd" fill-opacity="1" /><path clip-path="url(#clip560)" d="M946.318 28.5427 L946.318 35.5912 Q943.158 33.9709 939.756 33.1607 Q936.353 32.3505 932.707 32.3505 Q927.157 32.3505 924.362 34.0519 Q921.608 35.7533 921.608 39.156 Q921.608 41.7486 923.592 43.2475 Q925.577 44.7058 931.573 46.0426 L934.125 46.6097 Q942.065 48.3111 945.386 51.4303 Q948.749 54.509 948.749 60.0587 Q948.749 66.3781 943.725 70.0644 Q938.743 73.7508 929.993 73.7508 Q926.347 73.7508 922.377 73.0216 Q918.448 72.3329 914.073 70.9151 L914.073 63.2184 Q918.205 65.3654 922.215 66.4591 Q926.226 67.5124 930.155 67.5124 Q935.421 67.5124 938.257 65.73 Q941.092 63.9071 941.092 60.6258 Q941.092 57.5877 939.026 55.9673 Q937.001 54.3469 930.074 52.8481 L927.481 52.2405 Q920.554 50.7821 917.476 47.7845 Q914.397 44.7463 914.397 39.4801 Q914.397 33.0797 918.934 29.5959 Q923.471 26.1121 931.816 26.1121 Q935.948 26.1121 939.594 26.7198 Q943.239 27.3274 946.318 28.5427 Z" fill="#000000" fill-rule="evenodd" fill-opacity="1" /><path clip-path="url(#clip560)" d="M999.425 48.0275 L999.425 51.6733 L965.155 51.6733 Q965.641 59.3701 969.773 63.421 Q973.945 67.4314 981.358 67.4314 Q985.652 67.4314 989.663 66.3781 Q993.714 65.3249 997.684 63.2184 L997.684 70.267 Q993.673 71.9684 989.46 72.8596 Q985.247 73.7508 980.913 73.7508 Q970.056 73.7508 963.696 67.4314 Q957.377 61.1119 957.377 50.3365 Q957.377 39.1965 963.372 32.6746 Q969.408 26.1121 979.616 26.1121 Q988.772 26.1121 994.078 32.0264 Q999.425 37.9003 999.425 48.0275 M991.972 45.84 Q991.891 39.7232 988.528 36.0774 Q985.207 32.4315 979.698 32.4315 Q973.459 32.4315 969.692 35.9558 Q965.965 39.4801 965.398 45.8805 L991.972 45.84 Z" fill="#000000" fill-rule="evenodd" fill-opacity="1" /><path clip-path="url(#clip560)" d="M1037.95 34.1734 Q1036.69 33.4443 1035.19 33.1202 Q1033.74 32.7556 1031.95 32.7556 Q1025.63 32.7556 1022.23 36.8875 Q1018.87 40.9789 1018.87 48.6757 L1018.87 72.576 L1011.38 72.576 L1011.38 27.2059 L1018.87 27.2059 L1018.87 34.2544 Q1021.22 30.1225 1024.99 28.1376 Q1028.75 26.1121 1034.14 26.1121 Q1034.91 26.1121 1035.84 26.2337 Q1036.77 26.3147 1037.91 26.5172 L1037.95 34.1734 Z" fill="#000000" fill-rule="evenodd" fill-opacity="1" /><path clip-path="url(#clip560)" d="M1040.42 27.2059 L1048.32 27.2059 L1062.5 65.2844 L1076.68 27.2059 L1084.58 27.2059 L1067.56 72.576 L1057.43 72.576 L1040.42 27.2059 Z" fill="#000000" fill-rule="evenodd" fill-opacity="1" /><path clip-path="url(#clip560)" d="M1115.48 49.7694 Q1106.45 49.7694 1102.97 51.8354 Q1099.48 53.9013 1099.48 58.8839 Q1099.48 62.8538 1102.08 65.2034 Q1104.71 67.5124 1109.2 67.5124 Q1115.4 67.5124 1119.13 63.1374 Q1122.9 58.7219 1122.9 51.4303 L1122.9 49.7694 L1115.48 49.7694 M1130.35 46.6907 L1130.35 72.576 L1122.9 72.576 L1122.9 65.6895 Q1120.34 69.8214 1116.54 71.8063 Q1112.73 73.7508 1107.22 73.7508 Q1100.25 73.7508 1096.12 69.8619 Q1092.03 65.9325 1092.03 59.3701 Q1092.03 51.7138 1097.13 47.825 Q1102.28 43.9361 1112.45 43.9361 L1122.9 43.9361 L1122.9 43.2069 Q1122.9 38.0623 1119.49 35.2672 Q1116.13 32.4315 1110.02 32.4315 Q1106.13 32.4315 1102.44 33.3632 Q1098.75 34.295 1095.35 36.1584 L1095.35 29.2718 Q1099.44 27.692 1103.29 26.9223 Q1107.14 26.1121 1110.78 26.1121 Q1120.63 26.1121 1125.49 31.2163 Q1130.35 36.3204 1130.35 46.6907 Z" fill="#000000" fill-rule="evenodd" fill-opacity="1" /><path clip-path="url(#clip560)" d="M1153.08 14.324 L1153.08 27.2059 L1168.43 27.2059 L1168.43 32.9987 L1153.08 32.9987 L1153.08 57.6282 Q1153.08 63.1779 1154.58 64.7578 Q1156.11 66.3376 1160.77 66.3376 L1168.43 66.3376 L1168.43 72.576 L1160.77 72.576 Q1152.14 72.576 1148.86 69.3758 Q1145.58 66.1351 1145.58 57.6282 L1145.58 32.9987 L1140.11 32.9987 L1140.11 27.2059 L1145.58 27.2059 L1145.58 14.324 L1153.08 14.324 Z" fill="#000000" fill-rule="evenodd" fill-opacity="1" /><path clip-path="url(#clip560)" d="M1178.23 27.2059 L1185.69 27.2059 L1185.69 72.576 L1178.23 72.576 L1178.23 27.2059 M1178.23 9.54393 L1185.69 9.54393 L1185.69 18.9825 L1178.23 18.9825 L1178.23 9.54393 Z" fill="#000000" fill-rule="evenodd" fill-opacity="1" /><path clip-path="url(#clip560)" d="M1218.86 32.4315 Q1212.87 32.4315 1209.38 37.1306 Q1205.9 41.7891 1205.9 49.9314 Q1205.9 58.0738 1209.34 62.7728 Q1212.83 67.4314 1218.86 67.4314 Q1224.82 67.4314 1228.3 62.7323 Q1231.79 58.0333 1231.79 49.9314 Q1231.79 41.8701 1228.3 37.1711 Q1224.82 32.4315 1218.86 32.4315 M1218.86 26.1121 Q1228.59 26.1121 1234.13 32.4315 Q1239.68 38.7509 1239.68 49.9314 Q1239.68 61.0714 1234.13 67.4314 Q1228.59 73.7508 1218.86 73.7508 Q1209.1 73.7508 1203.55 67.4314 Q1198.04 61.0714 1198.04 49.9314 Q1198.04 38.7509 1203.55 32.4315 Q1209.1 26.1121 1218.86 26.1121 Z" fill="#000000" fill-rule="evenodd" fill-opacity="1" /><path clip-path="url(#clip560)" d="M1289.75 45.1919 L1289.75 72.576 L1282.3 72.576 L1282.3 45.4349 Q1282.3 38.994 1279.79 35.7938 Q1277.28 32.5936 1272.25 32.5936 Q1266.22 32.5936 1262.73 36.4419 Q1259.25 40.2903 1259.25 46.9338 L1259.25 72.576 L1251.76 72.576 L1251.76 27.2059 L1259.25 27.2059 L1259.25 34.2544 Q1261.92 30.163 1265.53 28.1376 Q1269.18 26.1121 1273.91 26.1121 Q1281.73 26.1121 1285.74 30.9732 Q1289.75 35.7938 1289.75 45.1919 Z" fill="#000000" fill-rule="evenodd" fill-opacity="1" /><path clip-path="url(#clip560)" d="M1325.93 12.096 L1334.19 12.096 L1346.91 63.2184 L1359.59 12.096 L1368.79 12.096 L1381.51 63.2184 L1394.19 12.096 L1402.49 12.096 L1387.3 72.576 L1377.01 72.576 L1364.25 20.0763 L1351.37 72.576 L1341.08 72.576 L1325.93 12.096 Z" fill="#000000" fill-rule="evenodd" fill-opacity="1" /><path clip-path="url(#clip560)" d="M1428.34 49.7694 Q1419.3 49.7694 1415.82 51.8354 Q1412.33 53.9013 1412.33 58.8839 Q1412.33 62.8538 1414.93 65.2034 Q1417.56 67.5124 1422.06 67.5124 Q1428.25 67.5124 1431.98 63.1374 Q1435.75 58.7219 1435.75 51.4303 L1435.75 49.7694 L1428.34 49.7694 M1443.2 46.6907 L1443.2 72.576 L1435.75 72.576 L1435.75 65.6895 Q1433.2 69.8214 1429.39 71.8063 Q1425.58 73.7508 1420.07 73.7508 Q1413.1 73.7508 1408.97 69.8619 Q1404.88 65.9325 1404.88 59.3701 Q1404.88 51.7138 1409.98 47.825 Q1415.13 43.9361 1425.3 43.9361 L1435.75 43.9361 L1435.75 43.2069 Q1435.75 38.0623 1432.35 35.2672 Q1428.98 32.4315 1422.87 32.4315 Q1418.98 32.4315 1415.29 33.3632 Q1411.6 34.295 1408.2 36.1584 L1408.2 29.2718 Q1412.29 27.692 1416.14 26.9223 Q1419.99 26.1121 1423.64 26.1121 Q1433.48 26.1121 1438.34 31.2163 Q1443.2 36.3204 1443.2 46.6907 Z" fill="#000000" fill-rule="evenodd" fill-opacity="1" /><path clip-path="url(#clip560)" d="M1488.41 49.3643 Q1488.41 41.2625 1485.05 36.8065 Q1481.73 32.3505 1475.69 32.3505 Q1469.69 32.3505 1466.33 36.8065 Q1463.01 41.2625 1463.01 49.3643 Q1463.01 57.4256 1466.33 61.8816 Q1469.69 66.3376 1475.69 66.3376 Q1481.73 66.3376 1485.05 61.8816 Q1488.41 57.4256 1488.41 49.3643 M1495.86 66.9452 Q1495.86 78.5308 1490.72 84.1616 Q1485.57 89.8329 1474.96 89.8329 Q1471.03 89.8329 1467.55 89.2252 Q1464.06 88.6581 1460.78 87.4428 L1460.78 80.1917 Q1464.06 81.9741 1467.26 82.8248 Q1470.46 83.6755 1473.79 83.6755 Q1481.12 83.6755 1484.76 79.8271 Q1488.41 76.0193 1488.41 68.282 L1488.41 64.5957 Q1486.1 68.6061 1482.5 70.5911 Q1478.89 72.576 1473.87 72.576 Q1465.52 72.576 1460.42 66.2161 Q1455.31 59.8562 1455.31 49.3643 Q1455.31 38.832 1460.42 32.472 Q1465.52 26.1121 1473.87 26.1121 Q1478.89 26.1121 1482.5 28.0971 Q1486.1 30.082 1488.41 34.0924 L1488.41 27.2059 L1495.86 27.2059 L1495.86 66.9452 Z" fill="#000000" fill-rule="evenodd" fill-opacity="1" /><path clip-path="url(#clip560)" d="M1550.02 48.0275 L1550.02 51.6733 L1515.75 51.6733 Q1516.24 59.3701 1520.37 63.421 Q1524.54 67.4314 1531.96 67.4314 Q1536.25 67.4314 1540.26 66.3781 Q1544.31 65.3249 1548.28 63.2184 L1548.28 70.267 Q1544.27 71.9684 1540.06 72.8596 Q1535.85 73.7508 1531.51 73.7508 Q1520.66 73.7508 1514.3 67.4314 Q1507.98 61.1119 1507.98 50.3365 Q1507.98 39.1965 1513.97 32.6746 Q1520.01 26.1121 1530.22 26.1121 Q1539.37 26.1121 1544.68 32.0264 Q1550.02 37.9003 1550.02 48.0275 M1542.57 45.84 Q1542.49 39.7232 1539.13 36.0774 Q1535.81 32.4315 1530.3 32.4315 Q1524.06 32.4315 1520.29 35.9558 Q1516.56 39.4801 1516 45.8805 L1542.57 45.84 Z" fill="#000000" fill-rule="evenodd" fill-opacity="1" /><path clip-path="url(#clip562)" d="
M250.028 1423.18 L250.028 1423.18 L327.642 1423.18 L405.255 1423.18 L482.869 1423.18 L560.483 1423.18 L638.096 1423.18 L715.71 1423.18 L793.324 1423.18 L870.937 1423.18 
  L948.551 1423.18 L1026.16 1423.18 L1103.78 1423.18 L1181.39 1423.18 L1259.01 1423.18 L1336.62 1423.18 L1414.23 1423.18 L1491.85 1423.18 L1569.46 1423.18 L1647.07 1423.18 
  L1724.69 1423.18 L1802.3 1423.18 L1879.91 1423.18 L1957.53 1423.18 L2035.14 1423.18 L2112.76 1423.18 L2112.76 1423.18 L2112.76 1423.18 L2112.76 1423.18 L2112.76 1369.03 
  L2112.76 1314.87 L2112.76 1260.72 L2112.76 1206.56 L2112.76 1152.41 L2112.76 1098.25 L2112.76 1044.1 L2112.76 989.944 L2112.76 935.789 L2112.76 881.635 L2112.76 827.48 
  L2112.76 773.326 L2112.76 719.171 L2112.76 665.017 L2112.76 610.863 L2112.76 556.708 L2112.76 502.554 L2112.76 448.399 L2112.76 394.245 L2112.76 340.09 L2112.76 285.936 
  L2112.76 231.781 L2112.76 177.627 L2112.76 123.472 L2112.76 123.472 L2112.76 123.472 L2112.76 123.472 L2035.14 123.472 L1957.53 123.472 L1879.91 123.472 L1802.3 123.472 
  L1724.69 123.472 L1647.07 123.472 L1569.46 123.472 L1491.85 123.472 L1414.23 123.472 L1336.62 123.472 L1259.01 123.472 L1181.39 123.472 L1103.78 123.472 L1026.16 123.472 
  L948.551 123.472 L870.937 123.472 L793.324 123.472 L715.71 123.472 L638.096 123.472 L560.483 123.472 L482.869 123.472 L405.255 123.472 L327.642 123.472 L250.028 123.472 
  L250.028 123.472 L250.028 123.472 L250.028 123.472 L250.028 177.627 L250.028 231.781 L250.028 285.936 L250.028 340.09 L250.028 394.245 L250.028 448.399 L250.028 502.554 
  L250.028 556.708 L250.028 610.863 L250.028 665.017 L250.028 719.171 L250.028 773.326 L250.028 827.48 L250.028 881.635 L250.028 935.789 L250.028 989.944 L250.028 1044.1 
  L250.028 1098.25 L250.028 1152.41 L250.028 1206.56 L250.028 1260.72 L250.028 1314.87 L250.028 1369.03 L250.028 1423.18 L250.028 1423.18 L250.028 1423.18  Z
  " fill="#000003" fill-rule="evenodd" fill-opacity="1"/>
<path clip-path="url(#clip562)" d="
M638.096 1423.18 L715.71 1423.18 L793.324 1423.18 L870.937 1423.18 L948.551 1423.18 L1026.16 1423.18 L1103.78 1423.18 L1181.39 1423.18 L1259.01 1423.18 L1336.62 1423.18 
  L1414.23 1423.18 L1491.85 1423.18 L1569.46 1423.18 L1647.07 1423.18 L1724.69 1423.18 L1802.3 1423.18 L1879.91 1423.18 L1957.53 1423.18 L2035.14 1423.18 L2112.76 1423.18 
  L2112.76 1423.18 L2112.76 1423.18 L2112.76 1423.18 L2112.76 1369.03 L2112.76 1314.87 L2112.76 1260.72 L2112.76 1206.56 L2112.76 1152.41 L2112.76 1098.25 L2112.76 1044.1 
  L2112.76 989.944 L2112.76 935.789 L2112.76 881.635 L2112.76 827.48 L2112.76 773.326 L2112.76 719.171 L2112.76 665.017 L2112.76 610.863 L2112.76 556.708 L2112.76 502.554 
  L2112.76 448.399 L2112.76 394.245 L2112.76 340.09 L2112.76 285.936 L2112.76 231.781 L2112.76 177.627 L2112.76 123.472 L2112.76 123.472 L2112.76 123.472 L2112.76 123.472 
  L2035.14 123.472 L1957.53 123.472 L1879.91 123.472 L1802.3 123.472 L1724.69 123.472 L1647.07 123.472 L1569.46 123.472 L1491.85 123.472 L1414.23 123.472 L1336.62 123.472 
  L1259.01 123.472 L1181.39 123.472 L1103.78 123.472 L1026.16 123.472 L948.551 123.472 L870.937 123.472 L793.324 123.472 L715.71 123.472 L638.096 123.472 L560.483 123.472 
  L482.869 123.472 L405.255 123.472 L327.642 123.472 L250.028 123.472 L250.028 123.472 L250.028 123.472 L250.028 123.472 L250.028 177.627 L250.028 231.781 L250.028 285.936 
  L250.028 340.09 L250.028 394.245 L250.028 448.399 L250.028 502.554 L250.028 556.708 L250.028 610.863 L250.028 665.017 L250.028 719.171 L250.028 773.326 L250.028 827.48 
  L250.028 881.635 L250.028 935.789 L250.028 989.944 L250.028 1044.1 L250.028 1098.25 L250.028 1152.41 L250.028 1206.56 L250.028 1260.72 L250.028 1314.87 L250.028 1265.95 
  L327.642 1298.42 L365.573 1314.87 L405.255 1332.56 L482.869 1368.5 L483.977 1369.03 L560.483 1406.43 L593.501 1423.18 L560.483 1423.18 L638.096 1423.18  Z
  " fill="#0b0726" fill-rule="evenodd" fill-opacity="1"/>
<path clip-path="url(#clip562)" d="
M948.551 1423.18 L1026.16 1423.18 L1103.78 1423.18 L1181.39 1423.18 L1259.01 1423.18 L1336.62 1423.18 L1414.23 1423.18 L1491.85 1423.18 L1569.46 1423.18 L1647.07 1423.18 
  L1724.69 1423.18 L1802.3 1423.18 L1879.91 1423.18 L1957.53 1423.18 L2035.14 1423.18 L2112.76 1423.18 L2112.76 1423.18 L2112.76 1423.18 L2112.76 1423.18 L2112.76 1369.03 
  L2112.76 1314.87 L2112.76 1260.72 L2112.76 1206.56 L2112.76 1152.41 L2112.76 1098.25 L2112.76 1044.1 L2112.76 989.944 L2112.76 935.789 L2112.76 881.635 L2112.76 827.48 
  L2112.76 773.326 L2112.76 719.171 L2112.76 665.017 L2112.76 610.863 L2112.76 556.708 L2112.76 502.554 L2112.76 448.399 L2112.76 394.245 L2112.76 340.09 L2112.76 285.936 
  L2112.76 231.781 L2112.76 177.627 L2112.76 123.472 L2112.76 123.472 L2112.76 123.472 L2112.76 123.472 L2035.14 123.472 L1957.53 123.472 L1879.91 123.472 L1802.3 123.472 
  L1724.69 123.472 L1647.07 123.472 L1569.46 123.472 L1491.85 123.472 L1414.23 123.472 L1336.62 123.472 L1259.01 123.472 L1181.39 123.472 L1103.78 123.472 L1026.16 123.472 
  L948.551 123.472 L870.937 123.472 L793.324 123.472 L715.71 123.472 L638.096 123.472 L560.483 123.472 L482.869 123.472 L405.255 123.472 L327.642 123.472 L250.028 123.472 
  L250.028 123.472 L250.028 123.472 L250.028 123.472 L250.028 177.627 L250.028 231.781 L250.028 285.936 L250.028 340.09 L250.028 394.245 L250.028 448.399 L250.028 502.554 
  L250.028 556.708 L250.028 610.863 L250.028 665.017 L250.028 719.171 L250.028 773.326 L250.028 827.48 L250.028 881.635 L250.028 935.789 L250.028 989.944 L250.028 1044.1 
  L250.028 1098.25 L250.028 1152.41 L250.028 1120.12 L327.642 1148.78 L337.211 1152.41 L405.255 1178.94 L473.048 1206.56 L482.869 1210.68 L560.483 1244.16 L597.406 1260.72 
  L638.096 1279.51 L711.681 1314.87 L715.71 1316.87 L793.324 1356.47 L817.051 1369.03 L870.937 1398.47 L914.518 1423.18 L870.937 1423.18 L948.551 1423.18  Z
  " fill="#240b4e" fill-rule="evenodd" fill-opacity="1"/>
<path clip-path="url(#clip562)" d="
M1259.01 1423.18 L1336.62 1423.18 L1414.23 1423.18 L1491.85 1423.18 L1569.46 1423.18 L1647.07 1423.18 L1724.69 1423.18 L1802.3 1423.18 L1879.91 1423.18 L1957.53 1423.18 
  L2035.14 1423.18 L2112.76 1423.18 L2112.76 1423.18 L2112.76 1423.18 L2112.76 1423.18 L2112.76 1369.03 L2112.76 1314.87 L2112.76 1260.72 L2112.76 1206.56 L2112.76 1152.41 
  L2112.76 1098.25 L2112.76 1044.1 L2112.76 989.944 L2112.76 935.789 L2112.76 881.635 L2112.76 827.48 L2112.76 773.326 L2112.76 719.171 L2112.76 665.017 L2112.76 610.863 
  L2112.76 556.708 L2112.76 502.554 L2112.76 448.399 L2112.76 394.245 L2112.76 340.09 L2112.76 285.936 L2112.76 231.781 L2112.76 177.627 L2112.76 123.472 L2112.76 123.472 
  L2112.76 123.472 L2112.76 123.472 L2035.14 123.472 L1957.53 123.472 L1879.91 123.472 L1802.3 123.472 L1724.69 123.472 L1647.07 123.472 L1569.46 123.472 L1491.85 123.472 
  L1414.23 123.472 L1336.62 123.472 L1259.01 123.472 L1181.39 123.472 L1103.78 123.472 L1026.16 123.472 L948.551 123.472 L870.937 123.472 L793.324 123.472 L715.71 123.472 
  L638.096 123.472 L560.483 123.472 L482.869 123.472 L405.255 123.472 L327.642 123.472 L250.028 123.472 L250.028 123.472 L250.028 123.472 L250.028 123.472 L250.028 177.627 
  L250.028 231.781 L250.028 285.936 L250.028 340.09 L250.028 394.245 L250.028 448.399 L250.028 502.554 L250.028 556.708 L250.028 610.863 L250.028 665.017 L250.028 719.171 
  L250.028 773.326 L250.028 827.48 L250.028 881.635 L250.028 935.789 L250.028 989.944 L250.028 980.376 L280.156 989.944 L327.642 1005.44 L405.255 1031.78 L440.264 1044.1 
  L482.869 1059.52 L560.483 1088.75 L584.877 1098.25 L638.096 1119.62 L715.71 1152.22 L716.142 1152.41 L793.324 1186.79 L835.824 1206.56 L870.937 1223.43 L945.393 1260.72 
  L948.551 1262.35 L1026.16 1303.81 L1046.08 1314.87 L1103.78 1348.04 L1138.92 1369.03 L1181.39 1395.31 L1224.79 1423.18 L1181.39 1423.18 L1259.01 1423.18  Z
  " fill="#410967" fill-rule="evenodd" fill-opacity="1"/>
<path clip-path="url(#clip562)" d="
M1569.46 1423.18 L1647.07 1423.18 L1724.69 1423.18 L1802.3 1423.18 L1879.91 1423.18 L1957.53 1423.18 L2035.14 1423.18 L2112.76 1423.18 L2112.76 1423.18 L2112.76 1423.18 
  L2112.76 1423.18 L2112.76 1369.03 L2112.76 1314.87 L2112.76 1260.72 L2112.76 1206.56 L2112.76 1152.41 L2112.76 1098.25 L2112.76 1044.1 L2112.76 989.944 L2112.76 935.789 
  L2112.76 881.635 L2112.76 827.48 L2112.76 773.326 L2112.76 719.171 L2112.76 665.017 L2112.76 610.863 L2112.76 556.708 L2112.76 502.554 L2112.76 448.399 L2112.76 394.245 
  L2112.76 340.09 L2112.76 285.936 L2112.76 231.781 L2112.76 177.627 L2112.76 123.472 L2112.76 123.472 L2112.76 123.472 L2112.76 123.472 L2035.14 123.472 L1957.53 123.472 
  L1879.91 123.472 L1802.3 123.472 L1724.69 123.472 L1647.07 123.472 L1569.46 123.472 L1491.85 123.472 L1414.23 123.472 L1336.62 123.472 L1259.01 123.472 L1181.39 123.472 
  L1103.78 123.472 L1026.16 123.472 L948.551 123.472 L870.937 123.472 L793.324 123.472 L715.71 123.472 L638.096 123.472 L560.483 123.472 L482.869 123.472 L405.255 123.472 
  L327.642 123.472 L250.028 123.472 L250.028 123.472 L250.028 123.472 L250.028 123.472 L250.028 177.627 L250.028 231.781 L250.028 285.936 L250.028 340.09 L250.028 394.245 
  L250.028 448.399 L250.028 502.554 L250.028 556.708 L250.028 610.863 L250.028 665.017 L250.028 719.171 L250.028 773.326 L250.028 827.48 L250.028 881.635 L250.028 850.633 
  L327.642 872.327 L359.841 881.635 L405.255 895.149 L482.869 919.165 L534.404 935.789 L560.483 944.46 L638.096 971.178 L690.264 989.944 L715.71 999.392 L793.324 1029.28 
  L830.274 1044.1 L870.937 1060.96 L948.551 1094.59 L956.735 1098.25 L1026.16 1130.43 L1071.52 1152.41 L1103.78 1168.61 L1176.18 1206.56 L1181.39 1209.4 L1259.01 1253.11 
  L1272 1260.72 L1336.62 1300.05 L1360.04 1314.87 L1414.23 1350.57 L1441.23 1369.03 L1491.85 1405.1 L1516.32 1423.18 L1491.85 1423.18 L1569.46 1423.18  Z
  " fill="#5d126e" fill-rule="evenodd" fill-opacity="1"/>
<path clip-path="url(#clip562)" d="
M1802.3 1423.18 L1879.91 1423.18 L1957.53 1423.18 L2035.14 1423.18 L2112.76 1423.18 L2112.76 1423.18 L2112.76 1423.18 L2112.76 1423.18 L2112.76 1369.03 L2112.76 1314.87 
  L2112.76 1260.72 L2112.76 1206.56 L2112.76 1152.41 L2112.76 1098.25 L2112.76 1044.1 L2112.76 989.944 L2112.76 935.789 L2112.76 881.635 L2112.76 827.48 L2112.76 773.326 
  L2112.76 719.171 L2112.76 665.017 L2112.76 610.863 L2112.76 556.708 L2112.76 502.554 L2112.76 448.399 L2112.76 394.245 L2112.76 340.09 L2112.76 285.936 L2112.76 231.781 
  L2112.76 177.627 L2112.76 123.472 L2112.76 123.472 L2112.76 123.472 L2112.76 123.472 L2035.14 123.472 L1957.53 123.472 L1879.91 123.472 L1802.3 123.472 L1724.69 123.472 
  L1647.07 123.472 L1569.46 123.472 L1491.85 123.472 L1414.23 123.472 L1336.62 123.472 L1259.01 123.472 L1181.39 123.472 L1103.78 123.472 L1026.16 123.472 L948.551 123.472 
  L870.937 123.472 L793.324 123.472 L715.71 123.472 L638.096 123.472 L560.483 123.472 L482.869 123.472 L405.255 123.472 L327.642 123.472 L250.028 123.472 L250.028 123.472 
  L250.028 123.472 L250.028 123.472 L250.028 177.627 L250.028 231.781 L250.028 285.936 L250.028 340.09 L250.028 394.245 L250.028 448.399 L250.028 502.554 L250.028 556.708 
  L250.028 610.863 L250.028 665.017 L250.028 719.171 L250.028 773.326 L250.028 731.469 L327.642 750.116 L405.255 769.677 L419.327 773.326 L482.869 790.302 L560.483 812.008 
  L613.466 827.48 L638.096 834.899 L715.71 859.112 L784.309 881.635 L793.324 884.692 L870.937 911.857 L935.811 935.789 L948.551 940.652 L1026.16 971.324 L1071.08 989.944 
  L1103.78 1003.99 L1181.39 1038.88 L1192.59 1044.1 L1259.01 1076.25 L1302.35 1098.25 L1336.62 1116.34 L1401.97 1152.41 L1414.23 1159.45 L1491.85 1205.97 L1492.8 1206.56 
  L1569.46 1256.32 L1575.96 1260.72 L1647.07 1310.98 L1652.37 1314.87 L1722.83 1369.03 L1724.69 1370.51 L1788.01 1423.18 L1724.69 1423.18 L1802.3 1423.18  Z
  " fill="#781c6d" fill-rule="evenodd" fill-opacity="1"/>
<path clip-path="url(#clip562)" d="
M2112.76 1423.18 L2112.76 1423.18 L2112.76 1423.18 L2112.76 1423.18 L2112.76 1369.03 L2112.76 1314.87 L2112.76 1260.72 L2112.76 1206.56 L2112.76 1152.41 L2112.76 1098.25 
  L2112.76 1044.1 L2112.76 989.944 L2112.76 935.789 L2112.76 881.635 L2112.76 827.48 L2112.76 773.326 L2112.76 719.171 L2112.76 665.017 L2112.76 610.863 L2112.76 556.708 
  L2112.76 502.554 L2112.76 448.399 L2112.76 394.245 L2112.76 340.09 L2112.76 285.936 L2112.76 231.781 L2112.76 177.627 L2112.76 123.472 L2112.76 123.472 L2112.76 123.472 
  L2112.76 123.472 L2035.14 123.472 L1957.53 123.472 L1879.91 123.472 L1802.3 123.472 L1724.69 123.472 L1647.07 123.472 L1569.46 123.472 L1491.85 123.472 L1414.23 123.472 
  L1336.62 123.472 L1259.01 123.472 L1181.39 123.472 L1103.78 123.472 L1026.16 123.472 L948.551 123.472 L870.937 123.472 L793.324 123.472 L715.71 123.472 L638.096 123.472 
  L560.483 123.472 L482.869 123.472 L405.255 123.472 L327.642 123.472 L250.028 123.472 L250.028 123.472 L250.028 123.472 L250.028 123.472 L250.028 177.627 L250.028 231.781 
  L250.028 285.936 L250.028 340.09 L250.028 394.245 L250.028 448.399 L250.028 502.554 L250.028 556.708 L250.028 610.863 L250.028 665.017 L250.028 619.899 L327.642 635.243 
  L405.255 651.774 L464.769 665.017 L482.869 669.431 L560.483 687.56 L638.096 706.9 L685.342 719.171 L715.71 727.643 L793.324 748.976 L870.937 771.839 L875.837 773.326 
  L948.551 796.196 L1026.16 822.017 L1042.01 827.48 L1103.78 849.588 L1181.39 878.951 L1188.25 881.635 L1259.01 910.449 L1317.93 935.789 L1336.62 944.195 L1414.23 980.436 
  L1433.71 989.944 L1491.85 1019.56 L1537.73 1044.1 L1569.46 1061.84 L1631.67 1098.25 L1647.07 1107.69 L1716.94 1152.41 L1724.69 1157.6 L1794.69 1206.56 L1802.3 1212.15 
  L1865.87 1260.72 L1879.91 1272 L1931.28 1314.87 L1957.53 1337.96 L1991.59 1369.03 L2035.14 1410.98 L2047.38 1423.18 L2035.14 1423.18 L2112.76 1423.18  Z
  " fill="#932567" fill-rule="evenodd" fill-opacity="1"/>
<path clip-path="url(#clip562)" d="
M2112.76 1252 L2112.76 1260.72 L2112.76 1206.56 L2112.76 1152.41 L2112.76 1098.25 L2112.76 1044.1 L2112.76 989.944 L2112.76 935.789 L2112.76 881.635 L2112.76 827.48 
  L2112.76 773.326 L2112.76 719.171 L2112.76 665.017 L2112.76 610.863 L2112.76 556.708 L2112.76 502.554 L2112.76 448.399 L2112.76 394.245 L2112.76 340.09 L2112.76 285.936 
  L2112.76 231.781 L2112.76 177.627 L2112.76 123.472 L2112.76 123.472 L2112.76 123.472 L2112.76 123.472 L2035.14 123.472 L1957.53 123.472 L1879.91 123.472 L1802.3 123.472 
  L1724.69 123.472 L1647.07 123.472 L1569.46 123.472 L1491.85 123.472 L1414.23 123.472 L1336.62 123.472 L1259.01 123.472 L1181.39 123.472 L1103.78 123.472 L1026.16 123.472 
  L948.551 123.472 L870.937 123.472 L793.324 123.472 L715.71 123.472 L638.096 123.472 L560.483 123.472 L482.869 123.472 L405.255 123.472 L327.642 123.472 L250.028 123.472 
  L250.028 123.472 L250.028 123.472 L250.028 123.472 L250.028 177.627 L250.028 231.781 L250.028 285.936 L250.028 340.09 L250.028 394.245 L250.028 448.399 L250.028 502.554 
  L250.028 556.708 L250.028 522.663 L327.642 535.958 L405.255 549.894 L441.896 556.708 L482.869 564.575 L560.483 580.054 L638.096 596.336 L704.101 610.863 L715.71 613.505 
  L793.324 631.73 L870.937 650.98 L924.905 665.017 L948.551 671.393 L1026.16 693.134 L1103.78 716.212 L1113.4 719.171 L1181.39 740.915 L1259.01 767.26 L1276.18 773.326 
  L1336.62 795.553 L1414.23 825.877 L1418.19 827.48 L1491.85 858.633 L1543.16 881.635 L1569.46 893.961 L1647.07 932.24 L1653.98 935.789 L1724.69 973.917 L1752.92 989.944 
  L1802.3 1019.38 L1841.8 1044.1 L1879.91 1069.19 L1922.09 1098.25 L1957.53 1124 L1994.96 1152.41 L2035.14 1184.62 L2061.4 1206.56 L2112.76 1252  Z
  " fill="#ae305b" fill-rule="evenodd" fill-opacity="1"/>
<path clip-path="url(#clip562)" d="
M2112.76 1023.89 L2112.76 1044.1 L2112.76 989.944 L2112.76 935.789 L2112.76 881.635 L2112.76 827.48 L2112.76 773.326 L2112.76 719.171 L2112.76 665.017 L2112.76 610.863 
  L2112.76 556.708 L2112.76 502.554 L2112.76 448.399 L2112.76 394.245 L2112.76 340.09 L2112.76 285.936 L2112.76 231.781 L2112.76 177.627 L2112.76 123.472 L2112.76 123.472 
  L2112.76 123.472 L2112.76 123.472 L2035.14 123.472 L1957.53 123.472 L1879.91 123.472 L1802.3 123.472 L1724.69 123.472 L1647.07 123.472 L1569.46 123.472 L1491.85 123.472 
  L1414.23 123.472 L1336.62 123.472 L1259.01 123.472 L1181.39 123.472 L1103.78 123.472 L1026.16 123.472 L948.551 123.472 L870.937 123.472 L793.324 123.472 L715.71 123.472 
  L638.096 123.472 L560.483 123.472 L482.869 123.472 L405.255 123.472 L327.642 123.472 L250.028 123.472 L250.028 123.472 L250.028 123.472 L250.028 123.472 L250.028 177.627 
  L250.028 231.781 L250.028 285.936 L250.028 340.09 L250.028 394.245 L250.028 448.399 L250.028 430.866 L327.642 440.208 L383.876 448.399 L405.255 452.251 L482.869 465.749 
  L560.483 478.448 L638.096 490.416 L708.287 502.554 L715.71 504.127 L793.324 520.817 L870.937 536.225 L948.551 551.349 L972.561 556.708 L1026.16 570.83 L1103.78 589.602 
  L1181.39 608.236 L1191.18 610.863 L1259.01 631.7 L1336.62 652.958 L1375.25 665.017 L1414.23 679.274 L1491.85 704.702 L1531.97 719.171 L1569.46 734.779 L1647.07 764.436 
  L1668.17 773.326 L1724.69 799.744 L1785.25 827.48 L1802.3 836.253 L1879.91 875.704 L1890.77 881.635 L1957.53 920.185 L1983.16 935.789 L2035.14 969.578 L2065.23 989.944 
  L2112.76 1023.89  Z
  " fill="#c73e4c" fill-rule="evenodd" fill-opacity="1"/>
<path clip-path="url(#clip562)" d="
M2112.76 842.079 L2112.76 881.635 L2112.76 827.48 L2112.76 773.326 L2112.76 719.171 L2112.76 665.017 L2112.76 610.863 L2112.76 556.708 L2112.76 502.554 L2112.76 448.399 
  L2112.76 394.245 L2112.76 340.09 L2112.76 285.936 L2112.76 231.781 L2112.76 177.627 L2112.76 123.472 L2112.76 123.472 L2112.76 123.472 L2112.76 123.472 L2035.14 123.472 
  L1957.53 123.472 L1879.91 123.472 L1802.3 123.472 L1724.69 123.472 L1647.07 123.472 L1569.46 123.472 L1491.85 123.472 L1414.23 123.472 L1336.62 123.472 L1259.01 123.472 
  L1181.39 123.472 L1103.78 123.472 L1026.16 123.472 L948.551 123.472 L870.937 123.472 L793.324 123.472 L715.71 123.472 L638.096 123.472 L560.483 123.472 L482.869 123.472 
  L405.255 123.472 L327.642 123.472 L250.028 123.472 L250.028 123.472 L250.028 123.472 L250.028 123.472 L250.028 177.627 L250.028 231.781 L250.028 285.936 L250.028 340.09 
  L250.028 394.245 L250.028 354.893 L327.642 363.96 L405.255 373.456 L482.869 383.412 L560.483 393.862 L563.256 394.245 L638.096 404.967 L715.71 416.658 L793.324 428.974 
  L870.937 441.969 L907.82 448.399 L948.551 455.786 L1026.16 470.487 L1103.78 486.071 L1181.09 502.554 L1181.39 502.62 L1259.01 520.429 L1336.62 539.414 L1403.13 556.708 
  L1414.23 559.728 L1491.85 581.691 L1569.46 605.262 L1587.1 610.863 L1647.07 630.851 L1724.69 658.531 L1742.03 665.017 L1802.3 688.756 L1874.28 719.171 L1879.91 721.683 
  L1957.53 757.937 L1988.5 773.326 L2035.14 797.866 L2088.14 827.48 L2112.76 842.079  Z
  " fill="#dc5039" fill-rule="evenodd" fill-opacity="1"/>
<path clip-path="url(#clip562)" d="
M2112.76 666.895 L2112.76 719.171 L2112.76 665.017 L2112.76 610.863 L2112.76 556.708 L2112.76 502.554 L2112.76 448.399 L2112.76 394.245 L2112.76 340.09 L2112.76 285.936 
  L2112.76 231.781 L2112.76 177.627 L2112.76 123.472 L2112.76 123.472 L2112.76 123.472 L2112.76 123.472 L2035.14 123.472 L1957.53 123.472 L1879.91 123.472 L1802.3 123.472 
  L1724.69 123.472 L1647.07 123.472 L1569.46 123.472 L1491.85 123.472 L1414.23 123.472 L1336.62 123.472 L1259.01 123.472 L1181.39 123.472 L1103.78 123.472 L1026.16 123.472 
  L948.551 123.472 L870.937 123.472 L793.324 123.472 L715.71 123.472 L638.096 123.472 L560.483 123.472 L482.869 123.472 L405.255 123.472 L327.642 123.472 L250.028 123.472 
  L250.028 123.472 L250.028 123.472 L250.028 123.472 L250.028 177.627 L250.028 231.781 L250.028 285.936 L250.028 282.594 L296.533 285.936 L327.642 288.891 L405.255 297.569 
  L482.869 306.948 L560.483 315.912 L638.096 324.489 L715.71 332.703 L788.427 340.09 L793.324 340.729 L870.937 352.014 L948.551 364.742 L1026.16 376.612 L1103.78 387.708 
  L1152 394.245 L1181.39 399.368 L1259.01 415.526 L1336.62 431.168 L1414.23 445.382 L1430.63 448.399 L1491.85 462.825 L1569.46 483.237 L1647.07 501.17 L1652.76 502.554 
  L1724.69 524.428 L1802.3 548.156 L1832.57 556.708 L1879.91 573.204 L1957.53 602.481 L1981.29 610.863 L2035.14 633.657 L2108.77 665.017 L2112.76 666.895  Z
  " fill="#ed6825" fill-rule="evenodd" fill-opacity="1"/>
<path clip-path="url(#clip562)" d="
M2035.14 507.434 L2112.76 534.968 L2112.76 556.708 L2112.76 502.554 L2112.76 448.399 L2112.76 394.245 L2112.76 340.09 L2112.76 285.936 L2112.76 231.781 L2112.76 177.627 
  L2112.76 123.472 L2112.76 123.472 L2112.76 123.472 L2112.76 123.472 L2035.14 123.472 L1957.53 123.472 L1879.91 123.472 L1802.3 123.472 L1724.69 123.472 L1647.07 123.472 
  L1569.46 123.472 L1491.85 123.472 L1414.23 123.472 L1336.62 123.472 L1259.01 123.472 L1181.39 123.472 L1103.78 123.472 L1026.16 123.472 L948.551 123.472 L870.937 123.472 
  L793.324 123.472 L715.71 123.472 L638.096 123.472 L560.483 123.472 L482.869 123.472 L405.255 123.472 L327.642 123.472 L250.028 123.472 L250.028 123.472 L250.028 123.472 
  L250.028 123.472 L250.028 177.627 L250.028 231.781 L250.028 226.418 L321.848 231.781 L327.642 232.239 L405.255 238.42 L482.869 244.902 L560.483 251.699 L638.096 258.834 
  L715.71 266.334 L793.324 274.227 L870.937 282.544 L901.427 285.936 L948.551 291.422 L1026.16 300.872 L1103.78 310.874 L1181.39 321.48 L1259.01 332.746 L1307.13 340.09 
  L1336.62 344.82 L1414.23 357.839 L1491.85 371.751 L1569.46 386.651 L1607 394.245 L1647.07 402.802 L1724.69 420.336 L1802.3 439.265 L1837.67 448.399 L1879.91 459.966 
  L1957.53 482.634 L2020.61 502.554 L2035.14 507.434  Z
  " fill="#f7850e" fill-rule="evenodd" fill-opacity="1"/>
<path clip-path="url(#clip562)" d="
M2112.76 411.611 L2112.76 448.399 L2112.76 394.245 L2112.76 340.09 L2112.76 285.936 L2112.76 231.781 L2112.76 177.627 L2112.76 123.472 L2112.76 123.472 L2112.76 123.472 
  L2112.76 123.472 L2035.14 123.472 L1957.53 123.472 L1879.91 123.472 L1802.3 123.472 L1724.69 123.472 L1647.07 123.472 L1569.46 123.472 L1491.85 123.472 L1414.23 123.472 
  L1336.62 123.472 L1259.01 123.472 L1181.39 123.472 L1103.78 123.472 L1026.16 123.472 L948.551 123.472 L870.937 123.472 L793.324 123.472 L715.71 123.472 L638.096 123.472 
  L560.483 123.472 L482.869 123.472 L405.255 123.472 L327.642 123.472 L250.028 123.472 L250.028 123.472 L250.028 123.472 L250.028 123.472 L250.028 177.627 L250.028 174.575 
  L317.672 177.627 L327.642 178.23 L405.255 183.054 L482.869 188.106 L560.483 193.403 L638.096 200.188 L715.71 206.843 L793.324 213.301 L870.937 219.57 L948.551 225.659 
  L1026.16 231.575 L1028.92 231.781 L1103.78 239.31 L1181.39 247.578 L1259.01 257.178 L1336.62 267.471 L1414.23 277.142 L1489.13 285.936 L1491.85 286.328 L1569.46 297.945 
  L1647.07 310.418 L1724.69 325.174 L1802.3 338.62 L1811.28 340.09 L1879.91 354.288 L1957.53 371.893 L2035.14 391.036 L2049.4 394.245 L2112.76 411.611  Z
  " fill="#fba40a" fill-rule="evenodd" fill-opacity="1"/>
<path clip-path="url(#clip562)" d="
M1957.53 286.779 L2035.14 301.534 L2112.76 317.626 L2112.76 340.09 L2112.76 285.936 L2112.76 231.781 L2112.76 177.627 L2112.76 123.472 L2112.76 123.472 L2112.76 123.472 
  L2112.76 123.472 L2035.14 123.472 L1957.53 123.472 L1879.91 123.472 L1802.3 123.472 L1724.69 123.472 L1647.07 123.472 L1569.46 123.472 L1491.85 123.472 L1414.23 123.472 
  L1336.62 123.472 L1259.01 123.472 L1181.39 123.472 L1103.78 123.472 L1026.16 123.472 L948.551 123.472 L870.937 123.472 L793.324 123.472 L715.71 123.472 L638.096 123.472 
  L560.483 123.472 L482.869 123.472 L405.255 123.472 L327.642 123.472 L250.028 123.472 L250.028 123.472 L250.028 123.472 L250.028 123.472 L250.028 177.627 L250.028 134.362 
  L327.642 138.001 L405.255 141.614 L482.869 145.203 L560.483 148.767 L638.096 153.069 L715.71 157.623 L793.324 162.41 L870.937 167.449 L948.551 172.759 L1016.19 177.627 
  L1026.16 178.475 L1103.78 184.968 L1181.39 191.282 L1259.01 197.812 L1336.62 205.095 L1414.23 212.846 L1491.85 221.114 L1569.46 229.95 L1584.9 231.781 L1647.07 239.676 
  L1724.69 250.117 L1802.3 261.392 L1879.91 273.567 L1952.89 285.936 L1957.53 286.779  Z
  " fill="#f9c52c" fill-rule="evenodd" fill-opacity="1"/>
<path clip-path="url(#clip562)" d="
M2112.76 236.559 L2112.76 285.936 L2112.76 231.781 L2112.76 177.627 L2112.76 123.472 L2112.76 123.472 L2112.76 123.472 L2112.76 123.472 L2035.14 123.472 L1957.53 123.472 
  L1879.91 123.472 L1802.3 123.472 L1724.69 123.472 L1647.07 123.472 L1569.46 123.472 L1491.85 123.472 L1414.23 123.472 L1336.62 123.472 L1259.01 123.472 L1181.39 123.472 
  L1103.78 123.472 L1026.16 123.472 L948.551 123.472 L870.937 123.472 L793.324 123.472 L866.926 123.472 L870.937 123.68 L948.551 127.809 L1026.16 132.168 L1103.78 136.775 
  L1181.39 141.653 L1259.01 146.825 L1336.62 153.392 L1414.23 159.83 L1491.85 166.089 L1569.46 172.176 L1640.83 177.627 L1647.07 178.238 L1724.69 186.143 L1802.3 194.655 
  L1879.91 203.846 L1957.53 214.267 L2035.14 225.358 L2083.06 231.781 L2112.76 236.559  Z
  " fill="#f2e660" fill-rule="evenodd" fill-opacity="1"/>
<path clip-path="url(#clip562)" d="
M1569.46 124.468 L1647.07 131.037 L1724.69 137.43 L1802.3 143.654 L1879.91 149.716 L1957.53 156.165 L2035.14 164.141 L2112.76 172.81 L2112.76 177.627 L2112.76 123.472 
  L2112.76 123.472 L2112.76 123.472 L2112.76 123.472 L2035.14 123.472 L1957.53 123.472 L1879.91 123.472 L1802.3 123.472 L1724.69 123.472 L1647.07 123.472 L1569.46 123.472 
  L1491.85 123.472 L1557.87 123.472 L1569.46 124.468  Z
  " fill="#fcfea4" fill-rule="evenodd" fill-opacity="1"/>
<polyline clip-path="url(#clip562)" style="stroke:#000003; stroke-linecap:butt; stroke-linejoin:round; stroke-width:4; stroke-opacity:1; fill:none" points="
  250.028,1423.18 250.028,1423.18 327.642,1423.18 405.255,1423.18 482.869,1423.18 560.483,1423.18 638.096,1423.18 715.71,1423.18 793.324,1423.18 870.937,1423.18 
  948.551,1423.18 1026.16,1423.18 1103.78,1423.18 1181.39,1423.18 1259.01,1423.18 1336.62,1423.18 1414.23,1423.18 1491.85,1423.18 1569.46,1423.18 1647.07,1423.18 
  1724.69,1423.18 1802.3,1423.18 1879.91,1423.18 1957.53,1423.18 2035.14,1423.18 2112.76,1423.18 2112.76,1369.03 
  2112.76,1314.87 2112.76,1260.72 2112.76,1206.56 2112.76,1152.41 2112.76,1098.25 2112.76,1044.1 2112.76,989.944 2112.76,935.789 2112.76,881.635 2112.76,827.48 
  2112.76,773.326 2112.76,719.171 2112.76,665.017 2112.76,610.863 2112.76,556.708 2112.76,502.554 2112.76,448.399 2112.76,394.245 2112.76,340.09 2112.76,285.936 
  2112.76,231.781 2112.76,177.627 2112.76,123.472 2035.14,123.472 1957.53,123.472 1879.91,123.472 1802.3,123.472 
  1724.69,123.472 1647.07,123.472 1569.46,123.472 1491.85,123.472 1414.23,123.472 1336.62,123.472 1259.01,123.472 1181.39,123.472 1103.78,123.472 1026.16,123.472 
  948.551,123.472 870.937,123.472 793.324,123.472 715.71,123.472 638.096,123.472 560.483,123.472 482.869,123.472 405.255,123.472 327.642,123.472 250.028,123.472 
  250.028,177.627 250.028,231.781 250.028,285.936 250.028,340.09 250.028,394.245 250.028,448.399 250.028,502.554 
  250.028,556.708 250.028,610.863 250.028,665.017 250.028,719.171 250.028,773.326 250.028,827.48 250.028,881.635 250.028,935.789 250.028,989.944 250.028,1044.1 
  250.028,1098.25 250.028,1152.41 250.028,1206.56 250.028,1260.72 250.028,1314.87 250.028,1369.03 250.028,1423.18 
  "/>
<polyline clip-path="url(#clip562)" style="stroke:#000003; stroke-linecap:butt; stroke-linejoin:round; stroke-width:4; stroke-opacity:1; fill:none" points="
  638.096,1423.18 715.71,1423.18 793.324,1423.18 870.937,1423.18 948.551,1423.18 1026.16,1423.18 1103.78,1423.18 1181.39,1423.18 1259.01,1423.18 1336.62,1423.18 
  1414.23,1423.18 1491.85,1423.18 1569.46,1423.18 1647.07,1423.18 1724.69,1423.18 1802.3,1423.18 1879.91,1423.18 1957.53,1423.18 2035.14,1423.18 2112.76,1423.18 
  2112.76,1369.03 2112.76,1314.87 2112.76,1260.72 2112.76,1206.56 2112.76,1152.41 2112.76,1098.25 2112.76,1044.1 
  2112.76,989.944 2112.76,935.789 2112.76,881.635 2112.76,827.48 2112.76,773.326 2112.76,719.171 2112.76,665.017 2112.76,610.863 2112.76,556.708 2112.76,502.554 
  2112.76,448.399 2112.76,394.245 2112.76,340.09 2112.76,285.936 2112.76,231.781 2112.76,177.627 2112.76,123.472 
  2035.14,123.472 1957.53,123.472 1879.91,123.472 1802.3,123.472 1724.69,123.472 1647.07,123.472 1569.46,123.472 1491.85,123.472 1414.23,123.472 1336.62,123.472 
  1259.01,123.472 1181.39,123.472 1103.78,123.472 1026.16,123.472 948.551,123.472 870.937,123.472 793.324,123.472 715.71,123.472 638.096,123.472 560.483,123.472 
  482.869,123.472 405.255,123.472 327.642,123.472 250.028,123.472 250.028,177.627 250.028,231.781 250.028,285.936 
  250.028,340.09 250.028,394.245 250.028,448.399 250.028,502.554 250.028,556.708 250.028,610.863 250.028,665.017 250.028,719.171 250.028,773.326 250.028,827.48 
  250.028,881.635 250.028,935.789 250.028,989.944 250.028,1044.1 250.028,1098.25 250.028,1152.41 250.028,1206.56 250.028,1260.72 250.028,1314.87 250.028,1265.95 
  327.642,1298.42 365.573,1314.87 405.255,1332.56 482.869,1368.5 483.977,1369.03 560.483,1406.43 593.501,1423.18 560.483,1423.18 638.096,1423.18 
  "/>
<polyline clip-path="url(#clip562)" style="stroke:#000003; stroke-linecap:butt; stroke-linejoin:round; stroke-width:4; stroke-opacity:1; fill:none" points="
  948.551,1423.18 1026.16,1423.18 1103.78,1423.18 1181.39,1423.18 1259.01,1423.18 1336.62,1423.18 1414.23,1423.18 1491.85,1423.18 1569.46,1423.18 1647.07,1423.18 
  1724.69,1423.18 1802.3,1423.18 1879.91,1423.18 1957.53,1423.18 2035.14,1423.18 2112.76,1423.18 2112.76,1369.03 
  2112.76,1314.87 2112.76,1260.72 2112.76,1206.56 2112.76,1152.41 2112.76,1098.25 2112.76,1044.1 2112.76,989.944 2112.76,935.789 2112.76,881.635 2112.76,827.48 
  2112.76,773.326 2112.76,719.171 2112.76,665.017 2112.76,610.863 2112.76,556.708 2112.76,502.554 2112.76,448.399 2112.76,394.245 2112.76,340.09 2112.76,285.936 
  2112.76,231.781 2112.76,177.627 2112.76,123.472 2035.14,123.472 1957.53,123.472 1879.91,123.472 1802.3,123.472 
  1724.69,123.472 1647.07,123.472 1569.46,123.472 1491.85,123.472 1414.23,123.472 1336.62,123.472 1259.01,123.472 1181.39,123.472 1103.78,123.472 1026.16,123.472 
  948.551,123.472 870.937,123.472 793.324,123.472 715.71,123.472 638.096,123.472 560.483,123.472 482.869,123.472 405.255,123.472 327.642,123.472 250.028,123.472 
  250.028,177.627 250.028,231.781 250.028,285.936 250.028,340.09 250.028,394.245 250.028,448.399 250.028,502.554 
  250.028,556.708 250.028,610.863 250.028,665.017 250.028,719.171 250.028,773.326 250.028,827.48 250.028,881.635 250.028,935.789 250.028,989.944 250.028,1044.1 
  250.028,1098.25 250.028,1152.41 250.028,1120.12 327.642,1148.78 337.211,1152.41 405.255,1178.94 473.048,1206.56 482.869,1210.68 560.483,1244.16 597.406,1260.72 
  638.096,1279.51 711.681,1314.87 715.71,1316.87 793.324,1356.47 817.051,1369.03 870.937,1398.47 914.518,1423.18 870.937,1423.18 948.551,1423.18 
  "/>
<polyline clip-path="url(#clip562)" style="stroke:#000003; stroke-linecap:butt; stroke-linejoin:round; stroke-width:4; stroke-opacity:1; fill:none" points="
  1259.01,1423.18 1336.62,1423.18 1414.23,1423.18 1491.85,1423.18 1569.46,1423.18 1647.07,1423.18 1724.69,1423.18 1802.3,1423.18 1879.91,1423.18 1957.53,1423.18 
  2035.14,1423.18 2112.76,1423.18 2112.76,1369.03 2112.76,1314.87 2112.76,1260.72 2112.76,1206.56 2112.76,1152.41 
  2112.76,1098.25 2112.76,1044.1 2112.76,989.944 2112.76,935.789 2112.76,881.635 2112.76,827.48 2112.76,773.326 2112.76,719.171 2112.76,665.017 2112.76,610.863 
  2112.76,556.708 2112.76,502.554 2112.76,448.399 2112.76,394.245 2112.76,340.09 2112.76,285.936 2112.76,231.781 2112.76,177.627 2112.76,123.472 
  2035.14,123.472 1957.53,123.472 1879.91,123.472 1802.3,123.472 1724.69,123.472 1647.07,123.472 1569.46,123.472 1491.85,123.472 
  1414.23,123.472 1336.62,123.472 1259.01,123.472 1181.39,123.472 1103.78,123.472 1026.16,123.472 948.551,123.472 870.937,123.472 793.324,123.472 715.71,123.472 
  638.096,123.472 560.483,123.472 482.869,123.472 405.255,123.472 327.642,123.472 250.028,123.472 250.028,177.627 
  250.028,231.781 250.028,285.936 250.028,340.09 250.028,394.245 250.028,448.399 250.028,502.554 250.028,556.708 250.028,610.863 250.028,665.017 250.028,719.171 
  250.028,773.326 250.028,827.48 250.028,881.635 250.028,935.789 250.028,989.944 250.028,980.376 280.156,989.944 327.642,1005.44 405.255,1031.78 440.264,1044.1 
  482.869,1059.52 560.483,1088.75 584.877,1098.25 638.096,1119.62 715.71,1152.22 716.142,1152.41 793.324,1186.79 835.824,1206.56 870.937,1223.43 945.393,1260.72 
  948.551,1262.35 1026.16,1303.81 1046.08,1314.87 1103.78,1348.04 1138.92,1369.03 1181.39,1395.31 1224.79,1423.18 1181.39,1423.18 1259.01,1423.18 
  "/>
<polyline clip-path="url(#clip562)" style="stroke:#000003; stroke-linecap:butt; stroke-linejoin:round; stroke-width:4; stroke-opacity:1; fill:none" points="
  1569.46,1423.18 1647.07,1423.18 1724.69,1423.18 1802.3,1423.18 1879.91,1423.18 1957.53,1423.18 2035.14,1423.18 2112.76,1423.18 
  2112.76,1369.03 2112.76,1314.87 2112.76,1260.72 2112.76,1206.56 2112.76,1152.41 2112.76,1098.25 2112.76,1044.1 2112.76,989.944 2112.76,935.789 
  2112.76,881.635 2112.76,827.48 2112.76,773.326 2112.76,719.171 2112.76,665.017 2112.76,610.863 2112.76,556.708 2112.76,502.554 2112.76,448.399 2112.76,394.245 
  2112.76,340.09 2112.76,285.936 2112.76,231.781 2112.76,177.627 2112.76,123.472 2035.14,123.472 1957.53,123.472 
  1879.91,123.472 1802.3,123.472 1724.69,123.472 1647.07,123.472 1569.46,123.472 1491.85,123.472 1414.23,123.472 1336.62,123.472 1259.01,123.472 1181.39,123.472 
  1103.78,123.472 1026.16,123.472 948.551,123.472 870.937,123.472 793.324,123.472 715.71,123.472 638.096,123.472 560.483,123.472 482.869,123.472 405.255,123.472 
  327.642,123.472 250.028,123.472 250.028,177.627 250.028,231.781 250.028,285.936 250.028,340.09 250.028,394.245 
  250.028,448.399 250.028,502.554 250.028,556.708 250.028,610.863 250.028,665.017 250.028,719.171 250.028,773.326 250.028,827.48 250.028,881.635 250.028,850.633 
  327.642,872.327 359.841,881.635 405.255,895.149 482.869,919.165 534.404,935.789 560.483,944.46 638.096,971.178 690.264,989.944 715.71,999.392 793.324,1029.28 
  830.274,1044.1 870.937,1060.96 948.551,1094.59 956.735,1098.25 1026.16,1130.43 1071.52,1152.41 1103.78,1168.61 1176.18,1206.56 1181.39,1209.4 1259.01,1253.11 
  1272,1260.72 1336.62,1300.05 1360.04,1314.87 1414.23,1350.57 1441.23,1369.03 1491.85,1405.1 1516.32,1423.18 1491.85,1423.18 1569.46,1423.18 
  "/>
<polyline clip-path="url(#clip562)" style="stroke:#000003; stroke-linecap:butt; stroke-linejoin:round; stroke-width:4; stroke-opacity:1; fill:none" points="
  1802.3,1423.18 1879.91,1423.18 1957.53,1423.18 2035.14,1423.18 2112.76,1423.18 2112.76,1369.03 2112.76,1314.87 
  2112.76,1260.72 2112.76,1206.56 2112.76,1152.41 2112.76,1098.25 2112.76,1044.1 2112.76,989.944 2112.76,935.789 2112.76,881.635 2112.76,827.48 2112.76,773.326 
  2112.76,719.171 2112.76,665.017 2112.76,610.863 2112.76,556.708 2112.76,502.554 2112.76,448.399 2112.76,394.245 2112.76,340.09 2112.76,285.936 2112.76,231.781 
  2112.76,177.627 2112.76,123.472 2035.14,123.472 1957.53,123.472 1879.91,123.472 1802.3,123.472 1724.69,123.472 
  1647.07,123.472 1569.46,123.472 1491.85,123.472 1414.23,123.472 1336.62,123.472 1259.01,123.472 1181.39,123.472 1103.78,123.472 1026.16,123.472 948.551,123.472 
  870.937,123.472 793.324,123.472 715.71,123.472 638.096,123.472 560.483,123.472 482.869,123.472 405.255,123.472 327.642,123.472 250.028,123.472 
  250.028,177.627 250.028,231.781 250.028,285.936 250.028,340.09 250.028,394.245 250.028,448.399 250.028,502.554 250.028,556.708 
  250.028,610.863 250.028,665.017 250.028,719.171 250.028,773.326 250.028,731.469 327.642,750.116 405.255,769.677 419.327,773.326 482.869,790.302 560.483,812.008 
  613.466,827.48 638.096,834.899 715.71,859.112 784.309,881.635 793.324,884.692 870.937,911.857 935.811,935.789 948.551,940.652 1026.16,971.324 1071.08,989.944 
  1103.78,1003.99 1181.39,1038.88 1192.59,1044.1 1259.01,1076.25 1302.35,1098.25 1336.62,1116.34 1401.97,1152.41 1414.23,1159.45 1491.85,1205.97 1492.8,1206.56 
  1569.46,1256.32 1575.96,1260.72 1647.07,1310.98 1652.37,1314.87 1722.83,1369.03 1724.69,1370.51 1788.01,1423.18 1724.69,1423.18 1802.3,1423.18 
  "/>
<polyline clip-path="url(#clip562)" style="stroke:#000003; stroke-linecap:butt; stroke-linejoin:round; stroke-width:4; stroke-opacity:1; fill:none" points="
  2112.76,1423.18 2112.76,1423.18 2112.76,1369.03 2112.76,1314.87 2112.76,1260.72 2112.76,1206.56 2112.76,1152.41 2112.76,1098.25 
  2112.76,1044.1 2112.76,989.944 2112.76,935.789 2112.76,881.635 2112.76,827.48 2112.76,773.326 2112.76,719.171 2112.76,665.017 2112.76,610.863 2112.76,556.708 
  2112.76,502.554 2112.76,448.399 2112.76,394.245 2112.76,340.09 2112.76,285.936 2112.76,231.781 2112.76,177.627 2112.76,123.472 
  2035.14,123.472 1957.53,123.472 1879.91,123.472 1802.3,123.472 1724.69,123.472 1647.07,123.472 1569.46,123.472 1491.85,123.472 1414.23,123.472 
  1336.62,123.472 1259.01,123.472 1181.39,123.472 1103.78,123.472 1026.16,123.472 948.551,123.472 870.937,123.472 793.324,123.472 715.71,123.472 638.096,123.472 
  560.483,123.472 482.869,123.472 405.255,123.472 327.642,123.472 250.028,123.472 250.028,177.627 250.028,231.781 
  250.028,285.936 250.028,340.09 250.028,394.245 250.028,448.399 250.028,502.554 250.028,556.708 250.028,610.863 250.028,665.017 250.028,619.899 327.642,635.243 
  405.255,651.774 464.769,665.017 482.869,669.431 560.483,687.56 638.096,706.9 685.342,719.171 715.71,727.643 793.324,748.976 870.937,771.839 875.837,773.326 
  948.551,796.196 1026.16,822.017 1042.01,827.48 1103.78,849.588 1181.39,878.951 1188.25,881.635 1259.01,910.449 1317.93,935.789 1336.62,944.195 1414.23,980.436 
  1433.71,989.944 1491.85,1019.56 1537.73,1044.1 1569.46,1061.84 1631.67,1098.25 1647.07,1107.69 1716.94,1152.41 1724.69,1157.6 1794.69,1206.56 1802.3,1212.15 
  1865.87,1260.72 1879.91,1272 1931.28,1314.87 1957.53,1337.96 1991.59,1369.03 2035.14,1410.98 2047.38,1423.18 2035.14,1423.18 2112.76,1423.18 
  "/>
<polyline clip-path="url(#clip562)" style="stroke:#000003; stroke-linecap:butt; stroke-linejoin:round; stroke-width:4; stroke-opacity:1; fill:none" points="
  2112.76,1252 2112.76,1260.72 2112.76,1206.56 2112.76,1152.41 2112.76,1098.25 2112.76,1044.1 2112.76,989.944 2112.76,935.789 2112.76,881.635 2112.76,827.48 
  2112.76,773.326 2112.76,719.171 2112.76,665.017 2112.76,610.863 2112.76,556.708 2112.76,502.554 2112.76,448.399 2112.76,394.245 2112.76,340.09 2112.76,285.936 
  2112.76,231.781 2112.76,177.627 2112.76,123.472 2035.14,123.472 1957.53,123.472 1879.91,123.472 1802.3,123.472 
  1724.69,123.472 1647.07,123.472 1569.46,123.472 1491.85,123.472 1414.23,123.472 1336.62,123.472 1259.01,123.472 1181.39,123.472 1103.78,123.472 1026.16,123.472 
  948.551,123.472 870.937,123.472 793.324,123.472 715.71,123.472 638.096,123.472 560.483,123.472 482.869,123.472 405.255,123.472 327.642,123.472 250.028,123.472 
  250.028,177.627 250.028,231.781 250.028,285.936 250.028,340.09 250.028,394.245 250.028,448.399 250.028,502.554 
  250.028,556.708 250.028,522.663 327.642,535.958 405.255,549.894 441.896,556.708 482.869,564.575 560.483,580.054 638.096,596.336 704.101,610.863 715.71,613.505 
  793.324,631.73 870.937,650.98 924.905,665.017 948.551,671.393 1026.16,693.134 1103.78,716.212 1113.4,719.171 1181.39,740.915 1259.01,767.26 1276.18,773.326 
  1336.62,795.553 1414.23,825.877 1418.19,827.48 1491.85,858.633 1543.16,881.635 1569.46,893.961 1647.07,932.24 1653.98,935.789 1724.69,973.917 1752.92,989.944 
  1802.3,1019.38 1841.8,1044.1 1879.91,1069.19 1922.09,1098.25 1957.53,1124 1994.96,1152.41 2035.14,1184.62 2061.4,1206.56 2112.76,1252 
  "/>
<polyline clip-path="url(#clip562)" style="stroke:#000003; stroke-linecap:butt; stroke-linejoin:round; stroke-width:4; stroke-opacity:1; fill:none" points="
  2112.76,1023.89 2112.76,1044.1 2112.76,989.944 2112.76,935.789 2112.76,881.635 2112.76,827.48 2112.76,773.326 2112.76,719.171 2112.76,665.017 2112.76,610.863 
  2112.76,556.708 2112.76,502.554 2112.76,448.399 2112.76,394.245 2112.76,340.09 2112.76,285.936 2112.76,231.781 2112.76,177.627 2112.76,123.472 
  2035.14,123.472 1957.53,123.472 1879.91,123.472 1802.3,123.472 1724.69,123.472 1647.07,123.472 1569.46,123.472 1491.85,123.472 
  1414.23,123.472 1336.62,123.472 1259.01,123.472 1181.39,123.472 1103.78,123.472 1026.16,123.472 948.551,123.472 870.937,123.472 793.324,123.472 715.71,123.472 
  638.096,123.472 560.483,123.472 482.869,123.472 405.255,123.472 327.642,123.472 250.028,123.472 250.028,177.627 
  250.028,231.781 250.028,285.936 250.028,340.09 250.028,394.245 250.028,448.399 250.028,430.866 327.642,440.208 383.876,448.399 405.255,452.251 482.869,465.749 
  560.483,478.448 638.096,490.416 708.287,502.554 715.71,504.127 793.324,520.817 870.937,536.225 948.551,551.349 972.561,556.708 1026.16,570.83 1103.78,589.602 
  1181.39,608.236 1191.18,610.863 1259.01,631.7 1336.62,652.958 1375.25,665.017 1414.23,679.274 1491.85,704.702 1531.97,719.171 1569.46,734.779 1647.07,764.436 
  1668.17,773.326 1724.69,799.744 1785.25,827.48 1802.3,836.253 1879.91,875.704 1890.77,881.635 1957.53,920.185 1983.16,935.789 2035.14,969.578 2065.23,989.944 
  2112.76,1023.89 
  "/>
<polyline clip-path="url(#clip562)" style="stroke:#000003; stroke-linecap:butt; stroke-linejoin:round; stroke-width:4; stroke-opacity:1; fill:none" points="
  2112.76,842.079 2112.76,881.635 2112.76,827.48 2112.76,773.326 2112.76,719.171 2112.76,665.017 2112.76,610.863 2112.76,556.708 2112.76,502.554 2112.76,448.399 
  2112.76,394.245 2112.76,340.09 2112.76,285.936 2112.76,231.781 2112.76,177.627 2112.76,123.472 2035.14,123.472 
  1957.53,123.472 1879.91,123.472 1802.3,123.472 1724.69,123.472 1647.07,123.472 1569.46,123.472 1491.85,123.472 1414.23,123.472 1336.62,123.472 1259.01,123.472 
  1181.39,123.472 1103.78,123.472 1026.16,123.472 948.551,123.472 870.937,123.472 793.324,123.472 715.71,123.472 638.096,123.472 560.483,123.472 482.869,123.472 
  405.255,123.472 327.642,123.472 250.028,123.472 250.028,177.627 250.028,231.781 250.028,285.936 250.028,340.09 
  250.028,394.245 250.028,354.893 327.642,363.96 405.255,373.456 482.869,383.412 560.483,393.862 563.256,394.245 638.096,404.967 715.71,416.658 793.324,428.974 
  870.937,441.969 907.82,448.399 948.551,455.786 1026.16,470.487 1103.78,486.071 1181.09,502.554 1181.39,502.62 1259.01,520.429 1336.62,539.414 1403.13,556.708 
  1414.23,559.728 1491.85,581.691 1569.46,605.262 1587.1,610.863 1647.07,630.851 1724.69,658.531 1742.03,665.017 1802.3,688.756 1874.28,719.171 1879.91,721.683 
  1957.53,757.937 1988.5,773.326 2035.14,797.866 2088.14,827.48 2112.76,842.079 
  "/>
<polyline clip-path="url(#clip562)" style="stroke:#000003; stroke-linecap:butt; stroke-linejoin:round; stroke-width:4; stroke-opacity:1; fill:none" points="
  2112.76,666.895 2112.76,719.171 2112.76,665.017 2112.76,610.863 2112.76,556.708 2112.76,502.554 2112.76,448.399 2112.76,394.245 2112.76,340.09 2112.76,285.936 
  2112.76,231.781 2112.76,177.627 2112.76,123.472 2035.14,123.472 1957.53,123.472 1879.91,123.472 1802.3,123.472 
  1724.69,123.472 1647.07,123.472 1569.46,123.472 1491.85,123.472 1414.23,123.472 1336.62,123.472 1259.01,123.472 1181.39,123.472 1103.78,123.472 1026.16,123.472 
  948.551,123.472 870.937,123.472 793.324,123.472 715.71,123.472 638.096,123.472 560.483,123.472 482.869,123.472 405.255,123.472 327.642,123.472 250.028,123.472 
  250.028,177.627 250.028,231.781 250.028,285.936 250.028,282.594 296.533,285.936 327.642,288.891 405.255,297.569 
  482.869,306.948 560.483,315.912 638.096,324.489 715.71,332.703 788.427,340.09 793.324,340.729 870.937,352.014 948.551,364.742 1026.16,376.612 1103.78,387.708 
  1152,394.245 1181.39,399.368 1259.01,415.526 1336.62,431.168 1414.23,445.382 1430.63,448.399 1491.85,462.825 1569.46,483.237 1647.07,501.17 1652.76,502.554 
  1724.69,524.428 1802.3,548.156 1832.57,556.708 1879.91,573.204 1957.53,602.481 1981.29,610.863 2035.14,633.657 2108.77,665.017 2112.76,666.895 
  "/>
<polyline clip-path="url(#clip562)" style="stroke:#000003; stroke-linecap:butt; stroke-linejoin:round; stroke-width:4; stroke-opacity:1; fill:none" points="
  2035.14,507.434 2112.76,534.968 2112.76,556.708 2112.76,502.554 2112.76,448.399 2112.76,394.245 2112.76,340.09 2112.76,285.936 2112.76,231.781 2112.76,177.627 
  2112.76,123.472 2035.14,123.472 1957.53,123.472 1879.91,123.472 1802.3,123.472 1724.69,123.472 1647.07,123.472 
  1569.46,123.472 1491.85,123.472 1414.23,123.472 1336.62,123.472 1259.01,123.472 1181.39,123.472 1103.78,123.472 1026.16,123.472 948.551,123.472 870.937,123.472 
  793.324,123.472 715.71,123.472 638.096,123.472 560.483,123.472 482.869,123.472 405.255,123.472 327.642,123.472 250.028,123.472 
  250.028,177.627 250.028,231.781 250.028,226.418 321.848,231.781 327.642,232.239 405.255,238.42 482.869,244.902 560.483,251.699 638.096,258.834 
  715.71,266.334 793.324,274.227 870.937,282.544 901.427,285.936 948.551,291.422 1026.16,300.872 1103.78,310.874 1181.39,321.48 1259.01,332.746 1307.13,340.09 
  1336.62,344.82 1414.23,357.839 1491.85,371.751 1569.46,386.651 1607,394.245 1647.07,402.802 1724.69,420.336 1802.3,439.265 1837.67,448.399 1879.91,459.966 
  1957.53,482.634 2020.61,502.554 2035.14,507.434 
  "/>
<polyline clip-path="url(#clip562)" style="stroke:#000003; stroke-linecap:butt; stroke-linejoin:round; stroke-width:4; stroke-opacity:1; fill:none" points="
  2112.76,411.611 2112.76,448.399 2112.76,394.245 2112.76,340.09 2112.76,285.936 2112.76,231.781 2112.76,177.627 2112.76,123.472 
  2035.14,123.472 1957.53,123.472 1879.91,123.472 1802.3,123.472 1724.69,123.472 1647.07,123.472 1569.46,123.472 1491.85,123.472 1414.23,123.472 
  1336.62,123.472 1259.01,123.472 1181.39,123.472 1103.78,123.472 1026.16,123.472 948.551,123.472 870.937,123.472 793.324,123.472 715.71,123.472 638.096,123.472 
  560.483,123.472 482.869,123.472 405.255,123.472 327.642,123.472 250.028,123.472 250.028,177.627 250.028,174.575 
  317.672,177.627 327.642,178.23 405.255,183.054 482.869,188.106 560.483,193.403 638.096,200.188 715.71,206.843 793.324,213.301 870.937,219.57 948.551,225.659 
  1026.16,231.575 1028.92,231.781 1103.78,239.31 1181.39,247.578 1259.01,257.178 1336.62,267.471 1414.23,277.142 1489.13,285.936 1491.85,286.328 1569.46,297.945 
  1647.07,310.418 1724.69,325.174 1802.3,338.62 1811.28,340.09 1879.91,354.288 1957.53,371.893 2035.14,391.036 2049.4,394.245 2112.76,411.611 
  "/>
<polyline clip-path="url(#clip562)" style="stroke:#000003; stroke-linecap:butt; stroke-linejoin:round; stroke-width:4; stroke-opacity:1; fill:none" points="
  1957.53,286.779 2035.14,301.534 2112.76,317.626 2112.76,340.09 2112.76,285.936 2112.76,231.781 2112.76,177.627 2112.76,123.472 
  2035.14,123.472 1957.53,123.472 1879.91,123.472 1802.3,123.472 1724.69,123.472 1647.07,123.472 1569.46,123.472 1491.85,123.472 1414.23,123.472 
  1336.62,123.472 1259.01,123.472 1181.39,123.472 1103.78,123.472 1026.16,123.472 948.551,123.472 870.937,123.472 793.324,123.472 715.71,123.472 638.096,123.472 
  560.483,123.472 482.869,123.472 405.255,123.472 327.642,123.472 250.028,123.472 250.028,177.627 250.028,134.362 
  327.642,138.001 405.255,141.614 482.869,145.203 560.483,148.767 638.096,153.069 715.71,157.623 793.324,162.41 870.937,167.449 948.551,172.759 1016.19,177.627 
  1026.16,178.475 1103.78,184.968 1181.39,191.282 1259.01,197.812 1336.62,205.095 1414.23,212.846 1491.85,221.114 1569.46,229.95 1584.9,231.781 1647.07,239.676 
  1724.69,250.117 1802.3,261.392 1879.91,273.567 1952.89,285.936 1957.53,286.779 
  "/>
<polyline clip-path="url(#clip562)" style="stroke:#000003; stroke-linecap:butt; stroke-linejoin:round; stroke-width:4; stroke-opacity:1; fill:none" points="
  2112.76,236.559 2112.76,285.936 2112.76,231.781 2112.76,177.627 2112.76,123.472 2035.14,123.472 1957.53,123.472 
  1879.91,123.472 1802.3,123.472 1724.69,123.472 1647.07,123.472 1569.46,123.472 1491.85,123.472 1414.23,123.472 1336.62,123.472 1259.01,123.472 1181.39,123.472 
  1103.78,123.472 1026.16,123.472 948.551,123.472 870.937,123.472 793.324,123.472 866.926,123.472 870.937,123.68 948.551,127.809 1026.16,132.168 1103.78,136.775 
  1181.39,141.653 1259.01,146.825 1336.62,153.392 1414.23,159.83 1491.85,166.089 1569.46,172.176 1640.83,177.627 1647.07,178.238 1724.69,186.143 1802.3,194.655 
  1879.91,203.846 1957.53,214.267 2035.14,225.358 2083.06,231.781 2112.76,236.559 
  "/>
<polyline clip-path="url(#clip562)" style="stroke:#000003; stroke-linecap:butt; stroke-linejoin:round; stroke-width:4; stroke-opacity:1; fill:none" points="
  1569.46,124.468 1647.07,131.037 1724.69,137.43 1802.3,143.654 1879.91,149.716 1957.53,156.165 2035.14,164.141 2112.76,172.81 2112.76,177.627 2112.76,123.472 
  2035.14,123.472 1957.53,123.472 1879.91,123.472 1802.3,123.472 1724.69,123.472 1647.07,123.472 1569.46,123.472 
  1491.85,123.472 1557.87,123.472 1569.46,124.468 
  "/>
<defs>
  <clipPath id="clip563">
    <rect x="2160" y="123" width="73" height="1301"/>
  </clipPath>
</defs>
<path clip-path="url(#clip563)" d="
M2160.76 1423.18 L2232.76 1423.18 L2232.76 1341.95 L2160.76 1341.95  Z
  " fill="#000003" fill-rule="evenodd" fill-opacity="1"/>
<path clip-path="url(#clip563)" d="
M2160.76 1341.95 L2232.76 1341.95 L2232.76 1260.72 L2160.76 1260.72  Z
  " fill="#0b0726" fill-rule="evenodd" fill-opacity="1"/>
<path clip-path="url(#clip563)" d="
M2160.76 1260.72 L2232.76 1260.72 L2232.76 1179.48 L2160.76 1179.48  Z
  " fill="#240b4e" fill-rule="evenodd" fill-opacity="1"/>
<path clip-path="url(#clip563)" d="
M2160.76 1179.48 L2232.76 1179.48 L2232.76 1098.25 L2160.76 1098.25  Z
  " fill="#410967" fill-rule="evenodd" fill-opacity="1"/>
<path clip-path="url(#clip563)" d="
M2160.76 1098.25 L2232.76 1098.25 L2232.76 1017.02 L2160.76 1017.02  Z
  " fill="#5d126e" fill-rule="evenodd" fill-opacity="1"/>
<path clip-path="url(#clip563)" d="
M2160.76 1017.02 L2232.76 1017.02 L2232.76 935.789 L2160.76 935.789  Z
  " fill="#781c6d" fill-rule="evenodd" fill-opacity="1"/>
<path clip-path="url(#clip563)" d="
M2160.76 935.789 L2232.76 935.789 L2232.76 854.558 L2160.76 854.558  Z
  " fill="#932567" fill-rule="evenodd" fill-opacity="1"/>
<path clip-path="url(#clip563)" d="
M2160.76 854.558 L2232.76 854.558 L2232.76 773.326 L2160.76 773.326  Z
  " fill="#ae305b" fill-rule="evenodd" fill-opacity="1"/>
<path clip-path="url(#clip563)" d="
M2160.76 773.326 L2232.76 773.326 L2232.76 692.094 L2160.76 692.094  Z
  " fill="#c73e4c" fill-rule="evenodd" fill-opacity="1"/>
<path clip-path="url(#clip563)" d="
M2160.76 692.094 L2232.76 692.094 L2232.76 610.863 L2160.76 610.863  Z
  " fill="#dc5039" fill-rule="evenodd" fill-opacity="1"/>
<path clip-path="url(#clip563)" d="
M2160.76 610.863 L2232.76 610.863 L2232.76 529.631 L2160.76 529.631  Z
  " fill="#ed6825" fill-rule="evenodd" fill-opacity="1"/>
<path clip-path="url(#clip563)" d="
M2160.76 529.631 L2232.76 529.631 L2232.76 448.399 L2160.76 448.399  Z
  " fill="#f7850e" fill-rule="evenodd" fill-opacity="1"/>
<path clip-path="url(#clip563)" d="
M2160.76 448.399 L2232.76 448.399 L2232.76 367.167 L2160.76 367.167  Z
  " fill="#fba40a" fill-rule="evenodd" fill-opacity="1"/>
<path clip-path="url(#clip563)" d="
M2160.76 367.167 L2232.76 367.167 L2232.76 285.936 L2160.76 285.936  Z
  " fill="#f9c52c" fill-rule="evenodd" fill-opacity="1"/>
<path clip-path="url(#clip563)" d="
M2160.76 285.936 L2232.76 285.936 L2232.76 204.704 L2160.76 204.704  Z
  " fill="#f2e660" fill-rule="evenodd" fill-opacity="1"/>
<path clip-path="url(#clip563)" d="
M2160.76 204.704 L2232.76 204.704 L2232.76 123.472 L2160.76 123.472  Z
  " fill="#fcfea4" fill-rule="evenodd" fill-opacity="1"/>
<path clip-path="url(#clip560)" d="M2284.36 1298.83 L2272.55 1317.28 L2284.36 1317.28 L2284.36 1298.83 M2283.13 1294.75 L2289.01 1294.75 L2289.01 1317.28 L2293.94 1317.28 L2293.94 1321.16 L2289.01 1321.16 L2289.01 1329.31 L2284.36 1329.31 L2284.36 1321.16 L2268.76 1321.16 L2268.76 1316.65 L2283.13 1294.75 Z" fill="#000000" fill-rule="evenodd" fill-opacity="1" /><path clip-path="url(#clip560)" d="M2302.48 1325.38 L2310.12 1325.38 L2310.12 1299.01 L2301.81 1300.68 L2301.81 1296.42 L2310.08 1294.75 L2314.75 1294.75 L2314.75 1325.38 L2322.39 1325.38 L2322.39 1329.31 L2302.48 1329.31 L2302.48 1325.38 Z" fill="#000000" fill-rule="evenodd" fill-opacity="1" /><path clip-path="url(#clip560)" d="M2284.36 1120.88 L2272.55 1139.33 L2284.36 1139.33 L2284.36 1120.88 M2283.13 1116.8 L2289.01 1116.8 L2289.01 1139.33 L2293.94 1139.33 L2293.94 1143.22 L2289.01 1143.22 L2289.01 1151.36 L2284.36 1151.36 L2284.36 1143.22 L2268.76 1143.22 L2268.76 1138.7 L2283.13 1116.8 Z" fill="#000000" fill-rule="evenodd" fill-opacity="1" /><path clip-path="url(#clip560)" d="M2305.7 1147.43 L2322.02 1147.43 L2322.02 1151.36 L2300.08 1151.36 L2300.08 1147.43 Q2302.74 1144.67 2307.32 1140.04 Q2311.93 1135.39 2313.11 1134.05 Q2315.35 1131.53 2316.23 1129.79 Q2317.14 1128.03 2317.14 1126.34 Q2317.14 1123.59 2315.19 1121.85 Q2313.27 1120.11 2310.17 1120.11 Q2307.97 1120.11 2305.51 1120.88 Q2303.08 1121.64 2300.31 1123.19 L2300.31 1118.47 Q2303.13 1117.34 2305.58 1116.76 Q2308.04 1116.18 2310.08 1116.18 Q2315.45 1116.18 2318.64 1118.86 Q2321.83 1121.55 2321.83 1126.04 Q2321.83 1128.17 2321.02 1130.09 Q2320.24 1131.99 2318.13 1134.58 Q2317.55 1135.25 2314.45 1138.47 Q2311.35 1141.66 2305.7 1147.43 Z" fill="#000000" fill-rule="evenodd" fill-opacity="1" /><path clip-path="url(#clip560)" d="M2284.36 942.928 L2272.55 961.377 L2284.36 961.377 L2284.36 942.928 M2283.13 938.854 L2289.01 938.854 L2289.01 961.377 L2293.94 961.377 L2293.94 965.266 L2289.01 965.266 L2289.01 973.414 L2284.36 973.414 L2284.36 965.266 L2268.76 965.266 L2268.76 960.752 L2283.13 938.854 Z" fill="#000000" fill-rule="evenodd" fill-opacity="1" /><path clip-path="url(#clip560)" d="M2315.84 954.78 Q2319.2 955.498 2321.07 957.766 Q2322.97 960.035 2322.97 963.368 Q2322.97 968.484 2319.45 971.285 Q2315.93 974.085 2309.45 974.085 Q2307.27 974.085 2304.96 973.646 Q2302.67 973.229 2300.21 972.373 L2300.21 967.859 Q2302.16 968.993 2304.47 969.572 Q2306.79 970.15 2309.31 970.15 Q2313.71 970.15 2316 968.414 Q2318.32 966.678 2318.32 963.368 Q2318.32 960.312 2316.16 958.599 Q2314.03 956.863 2310.21 956.863 L2306.19 956.863 L2306.19 953.021 L2310.4 953.021 Q2313.85 953.021 2315.68 951.655 Q2317.51 950.266 2317.51 947.674 Q2317.51 945.012 2315.61 943.6 Q2313.73 942.164 2310.21 942.164 Q2308.29 942.164 2306.09 942.581 Q2303.89 942.998 2301.26 943.877 L2301.26 939.711 Q2303.92 938.97 2306.23 938.6 Q2308.57 938.229 2310.63 938.229 Q2315.95 938.229 2319.06 940.66 Q2322.16 943.067 2322.16 947.187 Q2322.16 950.058 2320.51 952.049 Q2318.87 954.016 2315.84 954.78 Z" fill="#000000" fill-rule="evenodd" fill-opacity="1" /><path clip-path="url(#clip560)" d="M2284.36 764.979 L2272.55 783.428 L2284.36 783.428 L2284.36 764.979 M2283.13 760.905 L2289.01 760.905 L2289.01 783.428 L2293.94 783.428 L2293.94 787.317 L2289.01 787.317 L2289.01 795.465 L2284.36 795.465 L2284.36 787.317 L2268.76 787.317 L2268.76 782.803 L2283.13 760.905 Z" fill="#000000" fill-rule="evenodd" fill-opacity="1" /><path clip-path="url(#clip560)" d="M2314.52 764.979 L2302.71 783.428 L2314.52 783.428 L2314.52 764.979 M2313.29 760.905 L2319.17 760.905 L2319.17 783.428 L2324.1 783.428 L2324.1 787.317 L2319.17 787.317 L2319.17 795.465 L2314.52 795.465 L2314.52 787.317 L2298.92 787.317 L2298.92 782.803 L2313.29 760.905 Z" fill="#000000" fill-rule="evenodd" fill-opacity="1" /><path clip-path="url(#clip560)" d="M2284.36 587.03 L2272.55 605.479 L2284.36 605.479 L2284.36 587.03 M2283.13 582.956 L2289.01 582.956 L2289.01 605.479 L2293.94 605.479 L2293.94 609.368 L2289.01 609.368 L2289.01 617.516 L2284.36 617.516 L2284.36 609.368 L2268.76 609.368 L2268.76 604.854 L2283.13 582.956 Z" fill="#000000" fill-rule="evenodd" fill-opacity="1" /><path clip-path="url(#clip560)" d="M2301.72 582.956 L2320.08 582.956 L2320.08 586.891 L2306 586.891 L2306 595.363 Q2307.02 595.016 2308.04 594.854 Q2309.06 594.669 2310.08 594.669 Q2315.86 594.669 2319.24 597.84 Q2322.62 601.011 2322.62 606.428 Q2322.62 612.007 2319.15 615.108 Q2315.68 618.187 2309.36 618.187 Q2307.18 618.187 2304.91 617.817 Q2302.67 617.446 2300.26 616.706 L2300.26 612.007 Q2302.34 613.141 2304.57 613.696 Q2306.79 614.252 2309.26 614.252 Q2313.27 614.252 2315.61 612.146 Q2317.95 610.039 2317.95 606.428 Q2317.95 602.817 2315.61 600.71 Q2313.27 598.604 2309.26 598.604 Q2307.39 598.604 2305.51 599.021 Q2303.66 599.437 2301.72 600.317 L2301.72 582.956 Z" fill="#000000" fill-rule="evenodd" fill-opacity="1" /><path clip-path="url(#clip560)" d="M2284.36 409.081 L2272.55 427.53 L2284.36 427.53 L2284.36 409.081 M2283.13 405.007 L2289.01 405.007 L2289.01 427.53 L2293.94 427.53 L2293.94 431.419 L2289.01 431.419 L2289.01 439.567 L2284.36 439.567 L2284.36 431.419 L2268.76 431.419 L2268.76 426.905 L2283.13 405.007 Z" fill="#000000" fill-rule="evenodd" fill-opacity="1" /><path clip-path="url(#clip560)" d="M2312.25 420.423 Q2309.1 420.423 2307.25 422.576 Q2305.42 424.729 2305.42 428.479 Q2305.42 432.206 2307.25 434.382 Q2309.1 436.534 2312.25 436.534 Q2315.4 436.534 2317.23 434.382 Q2319.08 432.206 2319.08 428.479 Q2319.08 424.729 2317.23 422.576 Q2315.4 420.423 2312.25 420.423 M2321.53 405.771 L2321.53 410.03 Q2319.77 409.197 2317.97 408.757 Q2316.19 408.317 2314.43 408.317 Q2309.8 408.317 2307.34 411.442 Q2304.91 414.567 2304.57 420.886 Q2305.93 418.872 2307.99 417.808 Q2310.05 416.72 2312.53 416.72 Q2317.74 416.72 2320.75 419.891 Q2323.78 423.039 2323.78 428.479 Q2323.78 433.803 2320.63 437.02 Q2317.48 440.238 2312.25 440.238 Q2306.26 440.238 2303.08 435.655 Q2299.91 431.048 2299.91 422.321 Q2299.91 414.127 2303.8 409.266 Q2307.69 404.382 2314.24 404.382 Q2316 404.382 2317.78 404.729 Q2319.59 405.076 2321.53 405.771 Z" fill="#000000" fill-rule="evenodd" fill-opacity="1" /><path clip-path="url(#clip560)" d="M2284.36 231.132 L2272.55 249.581 L2284.36 249.581 L2284.36 231.132 M2283.13 227.058 L2289.01 227.058 L2289.01 249.581 L2293.94 249.581 L2293.94 253.469 L2289.01 253.469 L2289.01 261.618 L2284.36 261.618 L2284.36 253.469 L2268.76 253.469 L2268.76 248.956 L2283.13 227.058 Z" fill="#000000" fill-rule="evenodd" fill-opacity="1" /><path clip-path="url(#clip560)" d="M2300.49 227.058 L2322.71 227.058 L2322.71 229.048 L2310.17 261.618 L2305.28 261.618 L2317.09 230.993 L2300.49 230.993 L2300.49 227.058 Z" fill="#000000" fill-rule="evenodd" fill-opacity="1" /><polyline clip-path="url(#clip560)" style="stroke:#000000; stroke-linecap:butt; stroke-linejoin:round; stroke-width:4; stroke-opacity:1; fill:none" points="
  2232.76,1423.18 2232.76,1315.66 2256.76,1315.66 2232.76,1315.66 2232.76,1137.71 2256.76,1137.71 2232.76,1137.71 2232.76,959.763 2256.76,959.763 2232.76,959.763 
  2232.76,781.814 2256.76,781.814 2232.76,781.814 2232.76,603.865 2256.76,603.865 2232.76,603.865 2232.76,425.916 2256.76,425.916 2232.76,425.916 2232.76,247.966 
  2256.76,247.966 2232.76,247.966 2232.76,123.472 
  "/>
</svg>
