<?xml version="1.0" encoding="utf-8"?>
<svg xmlns="http://www.w3.org/2000/svg" xmlns:xlink="http://www.w3.org/1999/xlink" width="600" height="400" viewBox="0 0 2400 1600">
<defs>
  <clipPath id="clip150">
    <rect x="0" y="0" width="2400" height="1600"/>
  </clipPath>
</defs>
<path clip-path="url(#clip150)" d="
M0 1600 L2400 1600 L2400 0 L0 0  Z
  " fill="#ffffff" fill-rule="evenodd" fill-opacity="1"/>
<defs>
  <clipPath id="clip151">
    <rect x="480" y="0" width="1681" height="1600"/>
  </clipPath>
</defs>
<path clip-path="url(#clip150)" d="
M203.964 1423.18 L2352.76 1423.18 L2352.76 47.2441 L203.964 47.2441  Z
  " fill="#ffffff" fill-rule="evenodd" fill-opacity="1"/>
<defs>
  <clipPath id="clip152">
    <rect x="203" y="47" width="2150" height="1377"/>
  </clipPath>
</defs>
<polyline clip-path="url(#clip152)" style="stroke:#000000; stroke-linecap:round; stroke-linejoin:round; stroke-width:2; stroke-opacity:0.1; fill:none" points="
  264.778,1423.18 264.778,47.2441 
  "/>
<polyline clip-path="url(#clip152)" style="stroke:#000000; stroke-linecap:round; stroke-linejoin:round; stroke-width:2; stroke-opacity:0.1; fill:none" points="
  940.499,1423.18 940.499,47.2441 
  "/>
<polyline clip-path="url(#clip152)" style="stroke:#000000; stroke-linecap:round; stroke-linejoin:round; stroke-width:2; stroke-opacity:0.1; fill:none" points="
  1616.22,1423.18 1616.22,47.2441 
  "/>
<polyline clip-path="url(#clip152)" style="stroke:#000000; stroke-linecap:round; stroke-linejoin:round; stroke-width:2; stroke-opacity:0.1; fill:none" points="
  2291.94,1423.18 2291.94,47.2441 
  "/>
<polyline clip-path="url(#clip150)" style="stroke:#000000; stroke-linecap:round; stroke-linejoin:round; stroke-width:4; stroke-opacity:1; fill:none" points="
  203.964,1423.18 2352.76,1423.18 
  "/>
<polyline clip-path="url(#clip150)" style="stroke:#000000; stroke-linecap:round; stroke-linejoin:round; stroke-width:4; stroke-opacity:1; fill:none" points="
  264.778,1423.18 264.778,1404.28 
  "/>
<polyline clip-path="url(#clip150)" style="stroke:#000000; stroke-linecap:round; stroke-linejoin:round; stroke-width:4; stroke-opacity:1; fill:none" points="
  940.499,1423.18 940.499,1404.28 
  "/>
<polyline clip-path="url(#clip150)" style="stroke:#000000; stroke-linecap:round; stroke-linejoin:round; stroke-width:4; stroke-opacity:1; fill:none" points="
  1616.22,1423.18 1616.22,1404.28 
  "/>
<polyline clip-path="url(#clip150)" style="stroke:#000000; stroke-linecap:round; stroke-linejoin:round; stroke-width:4; stroke-opacity:1; fill:none" points="
  2291.94,1423.18 2291.94,1404.28 
  "/>
<path clip-path="url(#clip150)" d="M239.466 1481.64 L247.105 1481.64 L247.105 1455.28 L238.795 1456.95 L238.795 1452.69 L247.059 1451.02 L251.735 1451.02 L251.735 1481.64 L259.373 1481.64 L259.373 1485.58 L239.466 1485.58 L239.466 1481.64 Z" fill="#000000" fill-rule="evenodd" fill-opacity="1" /><path clip-path="url(#clip150)" d="M278.818 1454.1 Q275.207 1454.1 273.378 1457.66 Q271.572 1461.2 271.572 1468.33 Q271.572 1475.44 273.378 1479.01 Q275.207 1482.55 278.818 1482.55 Q282.452 1482.55 284.258 1479.01 Q286.086 1475.44 286.086 1468.33 Q286.086 1461.2 284.258 1457.66 Q282.452 1454.1 278.818 1454.1 M278.818 1450.39 Q284.628 1450.39 287.683 1455 Q290.762 1459.58 290.762 1468.33 Q290.762 1477.06 287.683 1481.67 Q284.628 1486.25 278.818 1486.25 Q273.008 1486.25 269.929 1481.67 Q266.873 1477.06 266.873 1468.33 Q266.873 1459.58 269.929 1455 Q273.008 1450.39 278.818 1450.39 Z" fill="#000000" fill-rule="evenodd" fill-opacity="1" /><path clip-path="url(#clip150)" d="M919.273 1481.64 L935.592 1481.64 L935.592 1485.58 L913.648 1485.58 L913.648 1481.64 Q916.31 1478.89 920.893 1474.26 Q925.499 1469.61 926.68 1468.27 Q928.925 1465.74 929.805 1464.01 Q930.708 1462.25 930.708 1460.56 Q930.708 1457.8 928.763 1456.07 Q926.842 1454.33 923.74 1454.33 Q921.541 1454.33 919.087 1455.09 Q916.657 1455.86 913.879 1457.41 L913.879 1452.69 Q916.703 1451.55 919.157 1450.97 Q921.611 1450.39 923.648 1450.39 Q929.018 1450.39 932.212 1453.08 Q935.407 1455.77 935.407 1460.26 Q935.407 1462.39 934.597 1464.31 Q933.81 1466.2 931.703 1468.8 Q931.124 1469.47 928.023 1472.69 Q924.921 1475.88 919.273 1481.64 Z" fill="#000000" fill-rule="evenodd" fill-opacity="1" /><path clip-path="url(#clip150)" d="M955.407 1454.1 Q951.796 1454.1 949.967 1457.66 Q948.161 1461.2 948.161 1468.33 Q948.161 1475.44 949.967 1479.01 Q951.796 1482.55 955.407 1482.55 Q959.041 1482.55 960.846 1479.01 Q962.675 1475.44 962.675 1468.33 Q962.675 1461.2 960.846 1457.66 Q959.041 1454.1 955.407 1454.1 M955.407 1450.39 Q961.217 1450.39 964.272 1455 Q967.351 1459.58 967.351 1468.33 Q967.351 1477.06 964.272 1481.67 Q961.217 1486.25 955.407 1486.25 Q949.596 1486.25 946.518 1481.67 Q943.462 1477.06 943.462 1468.33 Q943.462 1459.58 946.518 1455 Q949.596 1450.39 955.407 1450.39 Z" fill="#000000" fill-rule="evenodd" fill-opacity="1" /><path clip-path="url(#clip150)" d="M1605.06 1466.95 Q1608.42 1467.66 1610.29 1469.93 Q1612.19 1472.2 1612.19 1475.53 Q1612.19 1480.65 1608.67 1483.45 Q1605.16 1486.25 1598.67 1486.25 Q1596.5 1486.25 1594.18 1485.81 Q1591.89 1485.39 1589.44 1484.54 L1589.44 1480.02 Q1591.38 1481.16 1593.7 1481.74 Q1596.01 1482.32 1598.54 1482.32 Q1602.93 1482.32 1605.22 1480.58 Q1607.54 1478.84 1607.54 1475.53 Q1607.54 1472.48 1605.39 1470.77 Q1603.26 1469.03 1599.44 1469.03 L1595.41 1469.03 L1595.41 1465.19 L1599.62 1465.19 Q1603.07 1465.19 1604.9 1463.82 Q1606.73 1462.43 1606.73 1459.84 Q1606.73 1457.18 1604.83 1455.77 Q1602.96 1454.33 1599.44 1454.33 Q1597.52 1454.33 1595.32 1454.75 Q1593.12 1455.16 1590.48 1456.04 L1590.48 1451.88 Q1593.14 1451.14 1595.46 1450.77 Q1597.79 1450.39 1599.85 1450.39 Q1605.18 1450.39 1608.28 1452.83 Q1611.38 1455.23 1611.38 1459.35 Q1611.38 1462.22 1609.74 1464.21 Q1608.1 1466.18 1605.06 1466.95 Z" fill="#000000" fill-rule="evenodd" fill-opacity="1" /><path clip-path="url(#clip150)" d="M1631.06 1454.1 Q1627.45 1454.1 1625.62 1457.66 Q1623.81 1461.2 1623.81 1468.33 Q1623.81 1475.44 1625.62 1479.01 Q1627.45 1482.55 1631.06 1482.55 Q1634.69 1482.55 1636.5 1479.01 Q1638.33 1475.44 1638.33 1468.33 Q1638.33 1461.2 1636.5 1457.66 Q1634.69 1454.1 1631.06 1454.1 M1631.06 1450.39 Q1636.87 1450.39 1639.92 1455 Q1643 1459.58 1643 1468.33 Q1643 1477.06 1639.92 1481.67 Q1636.87 1486.25 1631.06 1486.25 Q1625.25 1486.25 1622.17 1481.67 Q1619.11 1477.06 1619.11 1468.33 Q1619.11 1459.58 1622.17 1455 Q1625.25 1450.39 1631.06 1450.39 Z" fill="#000000" fill-rule="evenodd" fill-opacity="1" /><path clip-path="url(#clip150)" d="M2280.11 1455.09 L2268.31 1473.54 L2280.11 1473.54 L2280.11 1455.09 M2278.89 1451.02 L2284.77 1451.02 L2284.77 1473.54 L2289.7 1473.54 L2289.7 1477.43 L2284.77 1477.43 L2284.77 1485.58 L2280.11 1485.58 L2280.11 1477.43 L2264.51 1477.43 L2264.51 1472.92 L2278.89 1451.02 Z" fill="#000000" fill-rule="evenodd" fill-opacity="1" /><path clip-path="url(#clip150)" d="M2307.43 1454.1 Q2303.82 1454.1 2301.99 1457.66 Q2300.18 1461.2 2300.18 1468.33 Q2300.18 1475.44 2301.99 1479.01 Q2303.82 1482.55 2307.43 1482.55 Q2311.06 1482.55 2312.87 1479.01 Q2314.7 1475.44 2314.7 1468.33 Q2314.7 1461.2 2312.87 1457.66 Q2311.06 1454.1 2307.43 1454.1 M2307.43 1450.39 Q2313.24 1450.39 2316.29 1455 Q2319.37 1459.58 2319.37 1468.33 Q2319.37 1477.06 2316.29 1481.67 Q2313.24 1486.25 2307.43 1486.25 Q2301.62 1486.25 2298.54 1481.67 Q2295.48 1477.06 2295.48 1468.33 Q2295.48 1459.58 2298.54 1455 Q2301.62 1450.39 2307.43 1450.39 Z" fill="#000000" fill-rule="evenodd" fill-opacity="1" /><path clip-path="url(#clip150)" d="M795.823 1553.98 L795.823 1532.4 L801.68 1532.4 L801.68 1553.75 Q801.68 1558.81 803.653 1561.36 Q805.626 1563.87 809.573 1563.87 Q814.316 1563.87 817.053 1560.85 Q819.822 1557.83 819.822 1552.61 L819.822 1532.4 L825.678 1532.4 L825.678 1568.04 L819.822 1568.04 L819.822 1562.57 Q817.689 1565.82 814.857 1567.41 Q812.056 1568.97 808.332 1568.97 Q802.189 1568.97 799.006 1565.15 Q795.823 1561.33 795.823 1553.98 M810.56 1531.54 L810.56 1531.54 Z" fill="#000000" fill-rule="evenodd" fill-opacity="1" /><path clip-path="url(#clip150)" d="M867.374 1546.53 L867.374 1568.04 L861.517 1568.04 L861.517 1546.72 Q861.517 1541.66 859.544 1539.14 Q857.571 1536.63 853.624 1536.63 Q848.881 1536.63 846.144 1539.65 Q843.407 1542.68 843.407 1547.9 L843.407 1568.04 L837.519 1568.04 L837.519 1532.4 L843.407 1532.4 L843.407 1537.93 Q845.508 1534.72 848.34 1533.13 Q851.205 1531.54 854.929 1531.54 Q861.072 1531.54 864.223 1535.36 Q867.374 1539.14 867.374 1546.53 Z" fill="#000000" fill-rule="evenodd" fill-opacity="1" /><path clip-path="url(#clip150)" d="M909.547 1548.76 L909.547 1551.62 L882.62 1551.62 Q883.002 1557.67 886.248 1560.85 Q889.526 1564 895.351 1564 Q898.725 1564 901.876 1563.17 Q905.059 1562.35 908.178 1560.69 L908.178 1566.23 Q905.027 1567.57 901.717 1568.27 Q898.407 1568.97 895.001 1568.97 Q886.471 1568.97 881.474 1564 Q876.509 1559.04 876.509 1550.57 Q876.509 1541.82 881.219 1536.69 Q885.962 1531.54 893.982 1531.54 Q901.176 1531.54 905.345 1536.18 Q909.547 1540.8 909.547 1548.76 M903.69 1547.04 Q903.627 1542.23 900.985 1539.37 Q898.375 1536.5 894.046 1536.5 Q889.145 1536.5 886.184 1539.27 Q883.256 1542.04 882.811 1547.07 L903.69 1547.04 Z" fill="#000000" fill-rule="evenodd" fill-opacity="1" /><path clip-path="url(#clip150)" d="M946.913 1539.24 Q949.109 1535.29 952.165 1533.41 Q955.221 1531.54 959.358 1531.54 Q964.928 1531.54 967.952 1535.45 Q970.976 1539.33 970.976 1546.53 L970.976 1568.04 L965.087 1568.04 L965.087 1546.72 Q965.087 1541.59 963.273 1539.11 Q961.459 1536.63 957.735 1536.63 Q953.184 1536.63 950.542 1539.65 Q947.9 1542.68 947.9 1547.9 L947.9 1568.04 L942.012 1568.04 L942.012 1546.72 Q942.012 1541.56 940.197 1539.11 Q938.383 1536.63 934.596 1536.63 Q930.108 1536.63 927.466 1539.68 Q924.824 1542.71 924.824 1547.9 L924.824 1568.04 L918.936 1568.04 L918.936 1532.4 L924.824 1532.4 L924.824 1537.93 Q926.83 1534.66 929.63 1533.1 Q932.431 1531.54 936.283 1531.54 Q940.166 1531.54 942.871 1533.51 Q945.608 1535.48 946.913 1539.24 Z" fill="#000000" fill-rule="evenodd" fill-opacity="1" /><path clip-path="url(#clip150)" d="M988.322 1562.7 L988.322 1581.6 L982.434 1581.6 L982.434 1532.4 L988.322 1532.4 L988.322 1537.81 Q990.168 1534.62 992.969 1533.1 Q995.802 1531.54 999.717 1531.54 Q1006.21 1531.54 1010.25 1536.69 Q1014.33 1541.85 1014.33 1550.25 Q1014.33 1558.65 1010.25 1563.81 Q1006.21 1568.97 999.717 1568.97 Q995.802 1568.97 992.969 1567.44 Q990.168 1565.88 988.322 1562.7 M1008.25 1550.25 Q1008.25 1543.79 1005.57 1540.13 Q1002.93 1536.44 998.285 1536.44 Q993.638 1536.44 990.964 1540.13 Q988.322 1543.79 988.322 1550.25 Q988.322 1556.71 990.964 1560.4 Q993.638 1564.07 998.285 1564.07 Q1002.93 1564.07 1005.57 1560.4 Q1008.25 1556.71 1008.25 1550.25 Z" fill="#000000" fill-rule="evenodd" fill-opacity="1" /><path clip-path="url(#clip150)" d="M1024.03 1518.52 L1029.89 1518.52 L1029.89 1568.04 L1024.03 1568.04 L1024.03 1518.52 Z" fill="#000000" fill-rule="evenodd" fill-opacity="1" /><path clip-path="url(#clip150)" d="M1055.96 1536.5 Q1051.25 1536.5 1048.51 1540.19 Q1045.77 1543.85 1045.77 1550.25 Q1045.77 1556.65 1048.48 1560.34 Q1051.22 1564 1055.96 1564 Q1060.64 1564 1063.37 1560.31 Q1066.11 1556.62 1066.11 1550.25 Q1066.11 1543.92 1063.37 1540.23 Q1060.64 1536.5 1055.96 1536.5 M1055.96 1531.54 Q1063.6 1531.54 1067.96 1536.5 Q1072.32 1541.47 1072.32 1550.25 Q1072.32 1559 1067.96 1564 Q1063.6 1568.97 1055.96 1568.97 Q1048.29 1568.97 1043.93 1564 Q1039.6 1559 1039.6 1550.25 Q1039.6 1541.47 1043.93 1536.5 Q1048.29 1531.54 1055.96 1531.54 Z" fill="#000000" fill-rule="evenodd" fill-opacity="1" /><path clip-path="url(#clip150)" d="M1096.86 1571.35 Q1094.37 1577.72 1092.02 1579.66 Q1089.66 1581.6 1085.72 1581.6 L1081.04 1581.6 L1081.04 1576.7 L1084.48 1576.7 Q1086.9 1576.7 1088.23 1575.56 Q1089.57 1574.41 1091.19 1570.14 L1092.24 1567.47 L1077.82 1532.4 L1084.03 1532.4 L1095.17 1560.28 L1106.31 1532.4 L1112.52 1532.4 L1096.86 1571.35 Z" fill="#000000" fill-rule="evenodd" fill-opacity="1" /><path clip-path="url(#clip150)" d="M1148.36 1539.24 Q1150.55 1535.29 1153.61 1533.41 Q1156.66 1531.54 1160.8 1531.54 Q1166.37 1531.54 1169.39 1535.45 Q1172.42 1539.33 1172.42 1546.53 L1172.42 1568.04 L1166.53 1568.04 L1166.53 1546.72 Q1166.53 1541.59 1164.72 1539.11 Q1162.9 1536.63 1159.18 1536.63 Q1154.63 1536.63 1151.98 1539.65 Q1149.34 1542.68 1149.34 1547.9 L1149.34 1568.04 L1143.45 1568.04 L1143.45 1546.72 Q1143.45 1541.56 1141.64 1539.11 Q1139.83 1536.63 1136.04 1536.63 Q1131.55 1536.63 1128.91 1539.68 Q1126.27 1542.71 1126.27 1547.9 L1126.27 1568.04 L1120.38 1568.04 L1120.38 1532.4 L1126.27 1532.4 L1126.27 1537.93 Q1128.27 1534.66 1131.07 1533.1 Q1133.87 1531.54 1137.73 1531.54 Q1141.61 1531.54 1144.31 1533.51 Q1147.05 1535.48 1148.36 1539.24 Z" fill="#000000" fill-rule="evenodd" fill-opacity="1" /><path clip-path="url(#clip150)" d="M1214.59 1548.76 L1214.59 1551.62 L1187.66 1551.62 Q1188.05 1557.67 1191.29 1560.85 Q1194.57 1564 1200.4 1564 Q1203.77 1564 1206.92 1563.17 Q1210.1 1562.35 1213.22 1560.69 L1213.22 1566.23 Q1210.07 1567.57 1206.76 1568.27 Q1203.45 1568.97 1200.05 1568.97 Q1191.52 1568.97 1186.52 1564 Q1181.55 1559.04 1181.55 1550.57 Q1181.55 1541.82 1186.26 1536.69 Q1191.01 1531.54 1199.03 1531.54 Q1206.22 1531.54 1210.39 1536.18 Q1214.59 1540.8 1214.59 1548.76 M1208.73 1547.04 Q1208.67 1542.23 1206.03 1539.37 Q1203.42 1536.5 1199.09 1536.5 Q1194.19 1536.5 1191.23 1539.27 Q1188.3 1542.04 1187.86 1547.07 L1208.73 1547.04 Z" fill="#000000" fill-rule="evenodd" fill-opacity="1" /><path clip-path="url(#clip150)" d="M1253.84 1546.53 L1253.84 1568.04 L1247.98 1568.04 L1247.98 1546.72 Q1247.98 1541.66 1246.01 1539.14 Q1244.03 1536.63 1240.09 1536.63 Q1235.34 1536.63 1232.61 1539.65 Q1229.87 1542.68 1229.87 1547.9 L1229.87 1568.04 L1223.98 1568.04 L1223.98 1532.4 L1229.87 1532.4 L1229.87 1537.93 Q1231.97 1534.72 1234.8 1533.13 Q1237.67 1531.54 1241.39 1531.54 Q1247.53 1531.54 1250.68 1535.36 Q1253.84 1539.14 1253.84 1546.53 Z" fill="#000000" fill-rule="evenodd" fill-opacity="1" /><path clip-path="url(#clip150)" d="M1271.31 1522.27 L1271.31 1532.4 L1283.37 1532.4 L1283.37 1536.95 L1271.31 1536.95 L1271.31 1556.3 Q1271.31 1560.66 1272.49 1561.9 Q1273.7 1563.14 1277.36 1563.14 L1283.37 1563.14 L1283.37 1568.04 L1277.36 1568.04 Q1270.58 1568.04 1268 1565.53 Q1265.42 1562.98 1265.42 1556.3 L1265.42 1536.95 L1261.12 1536.95 L1261.12 1532.4 L1265.42 1532.4 L1265.42 1522.27 L1271.31 1522.27 Z" fill="#000000" fill-rule="evenodd" fill-opacity="1" /><path clip-path="url(#clip150)" d="M1337.45 1533.76 L1337.45 1539.24 Q1334.97 1537.87 1332.45 1537.2 Q1329.97 1536.5 1327.42 1536.5 Q1321.73 1536.5 1318.58 1540.13 Q1315.42 1543.73 1315.42 1550.25 Q1315.42 1556.78 1318.58 1560.4 Q1321.73 1564 1327.42 1564 Q1329.97 1564 1332.45 1563.33 Q1334.97 1562.63 1337.45 1561.26 L1337.45 1566.68 Q1335 1567.82 1332.36 1568.39 Q1329.75 1568.97 1326.79 1568.97 Q1318.73 1568.97 1313.99 1563.91 Q1309.25 1558.85 1309.25 1550.25 Q1309.25 1541.53 1314.02 1536.53 Q1318.83 1531.54 1327.17 1531.54 Q1329.87 1531.54 1332.45 1532.11 Q1335.03 1532.65 1337.45 1533.76 Z" fill="#000000" fill-rule="evenodd" fill-opacity="1" /><path clip-path="url(#clip150)" d="M1361.45 1536.5 Q1356.74 1536.5 1354 1540.19 Q1351.26 1543.85 1351.26 1550.25 Q1351.26 1556.65 1353.97 1560.34 Q1356.71 1564 1361.45 1564 Q1366.13 1564 1368.86 1560.31 Q1371.6 1556.62 1371.6 1550.25 Q1371.6 1543.92 1368.86 1540.23 Q1366.13 1536.5 1361.45 1536.5 M1361.45 1531.54 Q1369.09 1531.54 1373.45 1536.5 Q1377.81 1541.47 1377.81 1550.25 Q1377.81 1559 1373.45 1564 Q1369.09 1568.97 1361.45 1568.97 Q1353.78 1568.97 1349.42 1564 Q1345.09 1559 1345.09 1550.25 Q1345.09 1541.47 1349.42 1536.5 Q1353.78 1531.54 1361.45 1531.54 Z" fill="#000000" fill-rule="evenodd" fill-opacity="1" /><path clip-path="url(#clip150)" d="M1415.27 1539.24 Q1417.47 1535.29 1420.52 1533.41 Q1423.58 1531.54 1427.72 1531.54 Q1433.29 1531.54 1436.31 1535.45 Q1439.33 1539.33 1439.33 1546.53 L1439.33 1568.04 L1433.44 1568.04 L1433.44 1546.72 Q1433.44 1541.59 1431.63 1539.11 Q1429.82 1536.63 1426.09 1536.63 Q1421.54 1536.63 1418.9 1539.65 Q1416.26 1542.68 1416.26 1547.9 L1416.26 1568.04 L1410.37 1568.04 L1410.37 1546.72 Q1410.37 1541.56 1408.55 1539.11 Q1406.74 1536.63 1402.95 1536.63 Q1398.46 1536.63 1395.82 1539.68 Q1393.18 1542.71 1393.18 1547.9 L1393.18 1568.04 L1387.29 1568.04 L1387.29 1532.4 L1393.18 1532.4 L1393.18 1537.93 Q1395.19 1534.66 1397.99 1533.1 Q1400.79 1531.54 1404.64 1531.54 Q1408.52 1531.54 1411.23 1533.51 Q1413.97 1535.48 1415.27 1539.24 Z" fill="#000000" fill-rule="evenodd" fill-opacity="1" /><path clip-path="url(#clip150)" d="M1456.68 1562.7 L1456.68 1581.6 L1450.79 1581.6 L1450.79 1532.4 L1456.68 1532.4 L1456.68 1537.81 Q1458.53 1534.62 1461.33 1533.1 Q1464.16 1531.54 1468.07 1531.54 Q1474.57 1531.54 1478.61 1536.69 Q1482.68 1541.85 1482.68 1550.25 Q1482.68 1558.65 1478.61 1563.81 Q1474.57 1568.97 1468.07 1568.97 Q1464.16 1568.97 1461.33 1567.44 Q1458.53 1565.88 1456.68 1562.7 M1476.6 1550.25 Q1476.6 1543.79 1473.93 1540.13 Q1471.29 1536.44 1466.64 1536.44 Q1461.99 1536.44 1459.32 1540.13 Q1456.68 1543.79 1456.68 1550.25 Q1456.68 1556.71 1459.32 1560.4 Q1461.99 1564.07 1466.64 1564.07 Q1471.29 1564.07 1473.93 1560.4 Q1476.6 1556.71 1476.6 1550.25 Z" fill="#000000" fill-rule="evenodd" fill-opacity="1" /><path clip-path="url(#clip150)" d="M1522.88 1548.76 L1522.88 1551.62 L1495.96 1551.62 Q1496.34 1557.67 1499.58 1560.85 Q1502.86 1564 1508.69 1564 Q1512.06 1564 1515.21 1563.17 Q1518.39 1562.35 1521.51 1560.69 L1521.51 1566.23 Q1518.36 1567.57 1515.05 1568.27 Q1511.74 1568.97 1508.34 1568.97 Q1499.81 1568.97 1494.81 1564 Q1489.84 1559.04 1489.84 1550.57 Q1489.84 1541.82 1494.56 1536.69 Q1499.3 1531.54 1507.32 1531.54 Q1514.51 1531.54 1518.68 1536.18 Q1522.88 1540.8 1522.88 1548.76 M1517.03 1547.04 Q1516.96 1542.23 1514.32 1539.37 Q1511.71 1536.5 1507.38 1536.5 Q1502.48 1536.5 1499.52 1539.27 Q1496.59 1542.04 1496.15 1547.07 L1517.03 1547.04 Z" fill="#000000" fill-rule="evenodd" fill-opacity="1" /><path clip-path="url(#clip150)" d="M1562.13 1546.53 L1562.13 1568.04 L1556.27 1568.04 L1556.27 1546.72 Q1556.27 1541.66 1554.3 1539.14 Q1552.32 1536.63 1548.38 1536.63 Q1543.63 1536.63 1540.9 1539.65 Q1538.16 1542.68 1538.16 1547.9 L1538.16 1568.04 L1532.27 1568.04 L1532.27 1532.4 L1538.16 1532.4 L1538.16 1537.93 Q1540.26 1534.72 1543.09 1533.13 Q1545.96 1531.54 1549.68 1531.54 Q1555.82 1531.54 1558.98 1535.36 Q1562.13 1539.14 1562.13 1546.53 Z" fill="#000000" fill-rule="evenodd" fill-opacity="1" /><path clip-path="url(#clip150)" d="M1596.53 1533.45 L1596.53 1538.98 Q1594.05 1537.71 1591.38 1537.07 Q1588.7 1536.44 1585.84 1536.44 Q1581.48 1536.44 1579.28 1537.77 Q1577.12 1539.11 1577.12 1541.79 Q1577.12 1543.82 1578.68 1545 Q1580.24 1546.15 1584.95 1547.2 L1586.95 1547.64 Q1593.19 1548.98 1595.8 1551.43 Q1598.44 1553.85 1598.44 1558.21 Q1598.44 1563.17 1594.5 1566.07 Q1590.58 1568.97 1583.71 1568.97 Q1580.84 1568.97 1577.72 1568.39 Q1574.64 1567.85 1571.2 1566.74 L1571.2 1560.69 Q1574.44 1562.38 1577.6 1563.24 Q1580.75 1564.07 1583.83 1564.07 Q1587.97 1564.07 1590.2 1562.66 Q1592.43 1561.23 1592.43 1558.65 Q1592.43 1556.27 1590.8 1554.99 Q1589.21 1553.72 1583.77 1552.54 L1581.73 1552.07 Q1576.29 1550.92 1573.87 1548.56 Q1571.45 1546.18 1571.45 1542.04 Q1571.45 1537.01 1575.02 1534.27 Q1578.58 1531.54 1585.14 1531.54 Q1588.39 1531.54 1591.25 1532.01 Q1594.11 1532.49 1596.53 1533.45 Z" fill="#000000" fill-rule="evenodd" fill-opacity="1" /><path clip-path="url(#clip150)" d="M1623.97 1550.12 Q1616.87 1550.12 1614.13 1551.75 Q1611.4 1553.37 1611.4 1557.29 Q1611.4 1560.4 1613.43 1562.25 Q1615.5 1564.07 1619.04 1564.07 Q1623.91 1564.07 1626.83 1560.63 Q1629.79 1557.16 1629.79 1551.43 L1629.79 1550.12 L1623.97 1550.12 M1635.65 1547.71 L1635.65 1568.04 L1629.79 1568.04 L1629.79 1562.63 Q1627.79 1565.88 1624.8 1567.44 Q1621.81 1568.97 1617.48 1568.97 Q1612 1568.97 1608.76 1565.91 Q1605.54 1562.82 1605.54 1557.67 Q1605.54 1551.65 1609.55 1548.6 Q1613.59 1545.54 1621.58 1545.54 L1629.79 1545.54 L1629.79 1544.97 Q1629.79 1540.93 1627.12 1538.73 Q1624.48 1536.5 1619.67 1536.5 Q1616.62 1536.5 1613.72 1537.23 Q1610.82 1537.97 1608.15 1539.43 L1608.15 1534.02 Q1611.37 1532.78 1614.39 1532.17 Q1617.41 1531.54 1620.28 1531.54 Q1628.01 1531.54 1631.83 1535.55 Q1635.65 1539.56 1635.65 1547.71 Z" fill="#000000" fill-rule="evenodd" fill-opacity="1" /><path clip-path="url(#clip150)" d="M1653.51 1522.27 L1653.51 1532.4 L1665.57 1532.4 L1665.57 1536.95 L1653.51 1536.95 L1653.51 1556.3 Q1653.51 1560.66 1654.68 1561.9 Q1655.89 1563.14 1659.55 1563.14 L1665.57 1563.14 L1665.57 1568.04 L1659.55 1568.04 Q1652.77 1568.04 1650.2 1565.53 Q1647.62 1562.98 1647.62 1556.3 L1647.62 1536.95 L1643.32 1536.95 L1643.32 1532.4 L1647.62 1532.4 L1647.62 1522.27 L1653.51 1522.27 Z" fill="#000000" fill-rule="evenodd" fill-opacity="1" /><path clip-path="url(#clip150)" d="M1673.27 1532.4 L1679.13 1532.4 L1679.13 1568.04 L1673.27 1568.04 L1673.27 1532.4 M1673.27 1518.52 L1679.13 1518.52 L1679.13 1525.93 L1673.27 1525.93 L1673.27 1518.52 Z" fill="#000000" fill-rule="evenodd" fill-opacity="1" /><path clip-path="url(#clip150)" d="M1705.2 1536.5 Q1700.49 1536.5 1697.75 1540.19 Q1695.01 1543.85 1695.01 1550.25 Q1695.01 1556.65 1697.72 1560.34 Q1700.45 1564 1705.2 1564 Q1709.88 1564 1712.61 1560.31 Q1715.35 1556.62 1715.35 1550.25 Q1715.35 1543.92 1712.61 1540.23 Q1709.88 1536.5 1705.2 1536.5 M1705.2 1531.54 Q1712.84 1531.54 1717.2 1536.5 Q1721.56 1541.47 1721.56 1550.25 Q1721.56 1559 1717.2 1564 Q1712.84 1568.97 1705.2 1568.97 Q1697.53 1568.97 1693.17 1564 Q1688.84 1559 1688.84 1550.25 Q1688.84 1541.47 1693.17 1536.5 Q1697.53 1531.54 1705.2 1531.54 Z" fill="#000000" fill-rule="evenodd" fill-opacity="1" /><path clip-path="url(#clip150)" d="M1760.9 1546.53 L1760.9 1568.04 L1755.04 1568.04 L1755.04 1546.72 Q1755.04 1541.66 1753.07 1539.14 Q1751.09 1536.63 1747.15 1536.63 Q1742.4 1536.63 1739.67 1539.65 Q1736.93 1542.68 1736.93 1547.9 L1736.93 1568.04 L1731.04 1568.04 L1731.04 1532.4 L1736.93 1532.4 L1736.93 1537.93 Q1739.03 1534.72 1741.86 1533.13 Q1744.73 1531.54 1748.45 1531.54 Q1754.59 1531.54 1757.75 1535.36 Q1760.9 1539.14 1760.9 1546.53 Z" fill="#000000" fill-rule="evenodd" fill-opacity="1" /><polyline clip-path="url(#clip152)" style="stroke:#000000; stroke-linecap:round; stroke-linejoin:round; stroke-width:2; stroke-opacity:0.1; fill:none" points="
  203.964,1249.91 2352.76,1249.91 
  "/>
<polyline clip-path="url(#clip152)" style="stroke:#000000; stroke-linecap:round; stroke-linejoin:round; stroke-width:2; stroke-opacity:0.1; fill:none" points="
  203.964,874.163 2352.76,874.163 
  "/>
<polyline clip-path="url(#clip152)" style="stroke:#000000; stroke-linecap:round; stroke-linejoin:round; stroke-width:2; stroke-opacity:0.1; fill:none" points="
  203.964,498.417 2352.76,498.417 
  "/>
<polyline clip-path="url(#clip152)" style="stroke:#000000; stroke-linecap:round; stroke-linejoin:round; stroke-width:2; stroke-opacity:0.1; fill:none" points="
  203.964,122.671 2352.76,122.671 
  "/>
<polyline clip-path="url(#clip150)" style="stroke:#000000; stroke-linecap:round; stroke-linejoin:round; stroke-width:4; stroke-opacity:1; fill:none" points="
  203.964,1423.18 203.964,47.2441 
  "/>
<polyline clip-path="url(#clip150)" style="stroke:#000000; stroke-linecap:round; stroke-linejoin:round; stroke-width:4; stroke-opacity:1; fill:none" points="
  203.964,1249.91 222.861,1249.91 
  "/>
<polyline clip-path="url(#clip150)" style="stroke:#000000; stroke-linecap:round; stroke-linejoin:round; stroke-width:4; stroke-opacity:1; fill:none" points="
  203.964,874.163 222.861,874.163 
  "/>
<polyline clip-path="url(#clip150)" style="stroke:#000000; stroke-linecap:round; stroke-linejoin:round; stroke-width:4; stroke-opacity:1; fill:none" points="
  203.964,498.417 222.861,498.417 
  "/>
<polyline clip-path="url(#clip150)" style="stroke:#000000; stroke-linecap:round; stroke-linejoin:round; stroke-width:4; stroke-opacity:1; fill:none" points="
  203.964,122.671 222.861,122.671 
  "/>
<path clip-path="url(#clip150)" d="M116.668 1263.25 L124.306 1263.25 L124.306 1236.89 L115.996 1238.55 L115.996 1234.3 L124.26 1232.63 L128.936 1232.63 L128.936 1263.25 L136.575 1263.25 L136.575 1267.19 L116.668 1267.19 L116.668 1263.25 Z" fill="#000000" fill-rule="evenodd" fill-opacity="1" /><path clip-path="url(#clip150)" d="M156.019 1235.71 Q152.408 1235.71 150.579 1239.27 Q148.774 1242.81 148.774 1249.94 Q148.774 1257.05 150.579 1260.61 Q152.408 1264.16 156.019 1264.16 Q159.653 1264.16 161.459 1260.61 Q163.288 1257.05 163.288 1249.94 Q163.288 1242.81 161.459 1239.27 Q159.653 1235.71 156.019 1235.71 M156.019 1232 Q161.829 1232 164.885 1236.61 Q167.964 1241.19 167.964 1249.94 Q167.964 1258.67 164.885 1263.28 Q161.829 1267.86 156.019 1267.86 Q150.209 1267.86 147.13 1263.28 Q144.075 1258.67 144.075 1249.94 Q144.075 1241.19 147.13 1236.61 Q150.209 1232 156.019 1232 Z" fill="#000000" fill-rule="evenodd" fill-opacity="1" /><path clip-path="url(#clip150)" d="M117.663 887.508 L125.302 887.508 L125.302 861.142 L116.992 862.809 L116.992 858.55 L125.255 856.883 L129.931 856.883 L129.931 887.508 L137.57 887.508 L137.57 891.443 L117.663 891.443 L117.663 887.508 Z" fill="#000000" fill-rule="evenodd" fill-opacity="1" /><path clip-path="url(#clip150)" d="M147.061 856.883 L165.417 856.883 L165.417 860.818 L151.343 860.818 L151.343 869.29 Q152.362 868.943 153.38 868.781 Q154.399 868.596 155.417 868.596 Q161.204 868.596 164.584 871.767 Q167.964 874.938 167.964 880.355 Q167.964 885.934 164.491 889.035 Q161.019 892.114 154.7 892.114 Q152.524 892.114 150.255 891.744 Q148.01 891.373 145.603 890.633 L145.603 885.934 Q147.686 887.068 149.908 887.623 Q152.13 888.179 154.607 888.179 Q158.612 888.179 160.95 886.073 Q163.288 883.966 163.288 880.355 Q163.288 876.744 160.95 874.637 Q158.612 872.531 154.607 872.531 Q152.732 872.531 150.857 872.948 Q149.005 873.364 147.061 874.244 L147.061 856.883 Z" fill="#000000" fill-rule="evenodd" fill-opacity="1" /><path clip-path="url(#clip150)" d="M119.885 511.762 L136.204 511.762 L136.204 515.697 L114.26 515.697 L114.26 511.762 Q116.922 509.007 121.505 504.377 Q126.112 499.725 127.292 498.382 Q129.538 495.859 130.417 494.123 Q131.32 492.364 131.32 490.674 Q131.32 487.919 129.376 486.183 Q127.455 484.447 124.353 484.447 Q122.154 484.447 119.7 485.211 Q117.269 485.975 114.492 487.526 L114.492 482.803 Q117.316 481.669 119.769 481.09 Q122.223 480.512 124.26 480.512 Q129.63 480.512 132.825 483.197 Q136.019 485.882 136.019 490.373 Q136.019 492.502 135.209 494.424 Q134.422 496.322 132.316 498.914 Q131.737 499.586 128.635 502.803 Q125.533 505.998 119.885 511.762 Z" fill="#000000" fill-rule="evenodd" fill-opacity="1" /><path clip-path="url(#clip150)" d="M156.019 484.215 Q152.408 484.215 150.579 487.78 Q148.774 491.322 148.774 498.451 Q148.774 505.558 150.579 509.123 Q152.408 512.664 156.019 512.664 Q159.653 512.664 161.459 509.123 Q163.288 505.558 163.288 498.451 Q163.288 491.322 161.459 487.78 Q159.653 484.215 156.019 484.215 M156.019 480.512 Q161.829 480.512 164.885 485.118 Q167.964 489.702 167.964 498.451 Q167.964 507.178 164.885 511.785 Q161.829 516.368 156.019 516.368 Q150.209 516.368 147.13 511.785 Q144.075 507.178 144.075 498.451 Q144.075 489.702 147.13 485.118 Q150.209 480.512 156.019 480.512 Z" fill="#000000" fill-rule="evenodd" fill-opacity="1" /><path clip-path="url(#clip150)" d="M120.88 136.015 L137.2 136.015 L137.2 139.951 L115.256 139.951 L115.256 136.015 Q117.918 133.261 122.501 128.631 Q127.107 123.978 128.288 122.636 Q130.533 120.113 131.413 118.377 Q132.316 116.617 132.316 114.928 Q132.316 112.173 130.371 110.437 Q128.45 108.701 125.348 108.701 Q123.149 108.701 120.695 109.465 Q118.265 110.229 115.487 111.779 L115.487 107.057 Q118.311 105.923 120.765 105.344 Q123.218 104.766 125.255 104.766 Q130.626 104.766 133.82 107.451 Q137.015 110.136 137.015 114.627 Q137.015 116.756 136.204 118.678 Q135.417 120.576 133.311 123.168 Q132.732 123.84 129.63 127.057 Q126.529 130.252 120.88 136.015 Z" fill="#000000" fill-rule="evenodd" fill-opacity="1" /><path clip-path="url(#clip150)" d="M147.061 105.391 L165.417 105.391 L165.417 109.326 L151.343 109.326 L151.343 117.798 Q152.362 117.451 153.38 117.289 Q154.399 117.104 155.417 117.104 Q161.204 117.104 164.584 120.275 Q167.964 123.446 167.964 128.863 Q167.964 134.441 164.491 137.543 Q161.019 140.622 154.7 140.622 Q152.524 140.622 150.255 140.252 Q148.01 139.881 145.603 139.14 L145.603 134.441 Q147.686 135.576 149.908 136.131 Q152.13 136.687 154.607 136.687 Q158.612 136.687 160.95 134.58 Q163.288 132.474 163.288 128.863 Q163.288 125.252 160.95 123.145 Q158.612 121.039 154.607 121.039 Q152.732 121.039 150.857 121.455 Q149.005 121.872 147.061 122.752 L147.061 105.391 Z" fill="#000000" fill-rule="evenodd" fill-opacity="1" /><path clip-path="url(#clip150)" d="M35.1993 825.446 Q31.2526 823.25 29.3747 820.194 Q27.4968 817.139 27.4968 813.001 Q27.4968 807.431 31.4117 804.407 Q35.2948 801.383 42.4881 801.383 L64.0042 801.383 L64.0042 807.272 L42.679 807.272 Q37.5546 807.272 35.072 809.086 Q32.5894 810.9 32.5894 814.624 Q32.5894 819.176 35.6131 821.817 Q38.6368 824.459 43.8567 824.459 L64.0042 824.459 L64.0042 830.347 L42.679 830.347 Q37.5228 830.347 35.072 832.162 Q32.5894 833.976 32.5894 837.764 Q32.5894 842.251 35.6449 844.893 Q38.6686 847.535 43.8567 847.535 L64.0042 847.535 L64.0042 853.423 L28.3562 853.423 L28.3562 847.535 L33.8944 847.535 Q30.616 845.53 29.0564 842.729 Q27.4968 839.928 27.4968 836.077 Q27.4968 832.194 29.4702 829.488 Q31.4436 826.751 35.1993 825.446 Z" fill="#000000" fill-rule="evenodd" fill-opacity="1" /><path clip-path="url(#clip150)" d="M32.4621 775.889 Q32.4621 780.599 36.1542 783.337 Q39.8145 786.074 46.212 786.074 Q52.6095 786.074 56.3017 783.369 Q59.9619 780.631 59.9619 775.889 Q59.9619 771.21 56.2698 768.473 Q52.5777 765.736 46.212 765.736 Q39.8781 765.736 36.186 768.473 Q32.4621 771.21 32.4621 775.889 M27.4968 775.889 Q27.4968 768.25 32.4621 763.889 Q37.4273 759.529 46.212 759.529 Q54.9649 759.529 59.9619 763.889 Q64.9272 768.25 64.9272 775.889 Q64.9272 783.56 59.9619 787.92 Q54.9649 792.249 46.212 792.249 Q37.4273 792.249 32.4621 787.92 Q27.4968 783.56 27.4968 775.889 Z" fill="#000000" fill-rule="evenodd" fill-opacity="1" /><path clip-path="url(#clip150)" d="M42.4881 720.189 L64.0042 720.189 L64.0042 726.045 L42.679 726.045 Q37.6183 726.045 35.1038 728.019 Q32.5894 729.992 32.5894 733.939 Q32.5894 738.681 35.6131 741.419 Q38.6368 744.156 43.8567 744.156 L64.0042 744.156 L64.0042 750.044 L28.3562 750.044 L28.3562 744.156 L33.8944 744.156 Q30.6797 742.055 29.0883 739.222 Q27.4968 736.358 27.4968 732.634 Q27.4968 726.491 31.3163 723.34 Q35.1038 720.189 42.4881 720.189 Z" fill="#000000" fill-rule="evenodd" fill-opacity="1" /><path clip-path="url(#clip150)" d="M18.2347 702.715 L28.3562 702.715 L28.3562 690.652 L32.9077 690.652 L32.9077 702.715 L52.2594 702.715 Q56.6199 702.715 57.8613 701.537 Q59.1026 700.328 59.1026 696.668 L59.1026 690.652 L64.0042 690.652 L64.0042 696.668 Q64.0042 703.447 61.4897 706.025 Q58.9434 708.603 52.2594 708.603 L32.9077 708.603 L32.9077 712.9 L28.3562 712.9 L28.3562 708.603 L18.2347 708.603 L18.2347 702.715 Z" fill="#000000" fill-rule="evenodd" fill-opacity="1" /><path clip-path="url(#clip150)" d="M42.4881 653.317 L64.0042 653.317 L64.0042 659.174 L42.679 659.174 Q37.6183 659.174 35.1038 661.147 Q32.5894 663.12 32.5894 667.067 Q32.5894 671.81 35.6131 674.547 Q38.6368 677.284 43.8567 677.284 L64.0042 677.284 L64.0042 683.172 L14.479 683.172 L14.479 677.284 L33.8944 677.284 Q30.6797 675.183 29.0883 672.351 Q27.4968 669.486 27.4968 665.762 Q27.4968 659.619 31.3163 656.468 Q35.1038 653.317 42.4881 653.317 Z" fill="#000000" fill-rule="evenodd" fill-opacity="1" /><path clip-path="url(#clip150)" d="M29.4065 618.911 L34.9447 618.911 Q33.6716 621.393 33.035 624.067 Q32.3984 626.74 32.3984 629.605 Q32.3984 633.965 33.7352 636.162 Q35.072 638.326 37.7456 638.326 Q39.7826 638.326 40.9603 636.766 Q42.1061 635.207 43.1565 630.496 L43.6021 628.491 Q44.9389 622.253 47.3897 619.643 Q49.8086 617.001 54.1691 617.001 Q59.1344 617.001 62.0308 620.948 Q64.9272 624.862 64.9272 631.737 Q64.9272 634.602 64.3543 637.721 Q63.8132 640.809 62.6992 644.246 L56.6518 644.246 Q58.3387 641 59.198 637.848 Q60.0256 634.697 60.0256 631.61 Q60.0256 627.472 58.6251 625.244 Q57.1929 623.016 54.6147 623.016 Q52.2276 623.016 50.9545 624.64 Q49.6813 626.231 48.5037 631.674 L48.0262 633.711 Q46.8804 639.153 44.5251 641.572 Q42.138 643.991 38.0002 643.991 Q32.9713 643.991 30.2341 640.427 Q27.4968 636.862 27.4968 630.305 Q27.4968 627.059 27.9743 624.194 Q28.4517 621.329 29.4065 618.911 Z" fill="#000000" fill-rule="evenodd" fill-opacity="1" /><polyline clip-path="url(#clip152)" style="stroke:#009af9; stroke-linecap:round; stroke-linejoin:round; stroke-width:4; stroke-opacity:1; fill:none" points="
  264.778,1384.24 349.244,1384.24 433.709,1384.24 518.174,1384.24 602.639,1384.24 687.104,1384.24 771.569,1384.24 856.034,1384.24 940.499,1384.24 1024.96,954.49 
  1109.43,954.49 1193.89,954.49 1278.36,954.49 1362.82,954.49 1447.29,954.49 1531.76,954.49 1616.22,954.49 1700.69,954.49 1785.15,954.49 1869.62,954.49 
  1954.08,86.1857 2038.55,86.1857 2123.01,86.1857 2207.48,86.1857 2291.94,86.1857 
  "/>
<path clip-path="url(#clip150)" d="
M275.59 196.789 L1205.95 196.789 L1205.95 93.1086 L275.59 93.1086  Z
  " fill="#ffffff" fill-rule="evenodd" fill-opacity="1"/>
<polyline clip-path="url(#clip150)" style="stroke:#000000; stroke-linecap:round; stroke-linejoin:round; stroke-width:4; stroke-opacity:1; fill:none" points="
  275.59,196.789 1205.95,196.789 1205.95,93.1086 275.59,93.1086 275.59,196.789 
  "/>
<polyline clip-path="url(#clip150)" style="stroke:#009af9; stroke-linecap:round; stroke-linejoin:round; stroke-width:4; stroke-opacity:1; fill:none" points="
  299.465,144.949 442.718,144.949 
  "/>
<path clip-path="url(#clip150)" d="M486.941 141.28 Q488.538 138.409 490.76 137.044 Q492.982 135.678 495.992 135.678 Q500.043 135.678 502.242 138.525 Q504.441 141.349 504.441 146.581 L504.441 162.229 L500.158 162.229 L500.158 146.719 Q500.158 142.993 498.839 141.187 Q497.52 139.382 494.811 139.382 Q491.501 139.382 489.58 141.581 Q487.658 143.78 487.658 147.576 L487.658 162.229 L483.376 162.229 L483.376 146.719 Q483.376 142.969 482.057 141.187 Q480.737 139.382 477.983 139.382 Q474.719 139.382 472.797 141.604 Q470.876 143.803 470.876 147.576 L470.876 162.229 L466.594 162.229 L466.594 136.303 L470.876 136.303 L470.876 140.331 Q472.334 137.946 474.371 136.812 Q476.409 135.678 479.209 135.678 Q482.033 135.678 484.001 137.113 Q485.992 138.548 486.941 141.28 Z" fill="#000000" fill-rule="evenodd" fill-opacity="1" /><path clip-path="url(#clip150)" d="M535.112 148.201 L535.112 150.284 L515.529 150.284 Q515.806 154.682 518.168 156.997 Q520.552 159.289 524.788 159.289 Q527.242 159.289 529.533 158.687 Q531.848 158.085 534.117 156.881 L534.117 160.909 Q531.825 161.881 529.417 162.391 Q527.01 162.9 524.533 162.9 Q518.33 162.9 514.695 159.289 Q511.084 155.678 511.084 149.52 Q511.084 143.155 514.51 139.428 Q517.959 135.678 523.793 135.678 Q529.024 135.678 532.056 139.057 Q535.112 142.414 535.112 148.201 M530.853 146.951 Q530.806 143.456 528.885 141.372 Q526.987 139.289 523.839 139.289 Q520.274 139.289 518.121 141.303 Q515.992 143.317 515.668 146.974 L530.853 146.951 Z" fill="#000000" fill-rule="evenodd" fill-opacity="1" /><path clip-path="url(#clip150)" d="M553.885 149.196 Q548.723 149.196 546.732 150.377 Q544.741 151.557 544.741 154.405 Q544.741 156.673 546.223 158.016 Q547.728 159.335 550.297 159.335 Q553.839 159.335 555.968 156.835 Q558.121 154.312 558.121 150.145 L558.121 149.196 L553.885 149.196 M562.38 147.437 L562.38 162.229 L558.121 162.229 L558.121 158.293 Q556.663 160.655 554.487 161.789 Q552.311 162.9 549.163 162.9 Q545.181 162.9 542.82 160.678 Q540.482 158.432 540.482 154.682 Q540.482 150.307 543.399 148.085 Q546.339 145.863 552.149 145.863 L558.121 145.863 L558.121 145.446 Q558.121 142.507 556.177 140.909 Q554.255 139.289 550.76 139.289 Q548.538 139.289 546.431 139.821 Q544.325 140.354 542.38 141.419 L542.38 137.483 Q544.718 136.581 546.917 136.141 Q549.116 135.678 551.2 135.678 Q556.825 135.678 559.603 138.594 Q562.38 141.511 562.38 147.437 Z" fill="#000000" fill-rule="evenodd" fill-opacity="1" /><path clip-path="url(#clip150)" d="M592.704 146.581 L592.704 162.229 L588.445 162.229 L588.445 146.719 Q588.445 143.039 587.01 141.21 Q585.575 139.382 582.704 139.382 Q579.255 139.382 577.264 141.581 Q575.274 143.78 575.274 147.576 L575.274 162.229 L570.991 162.229 L570.991 136.303 L575.274 136.303 L575.274 140.331 Q576.801 137.993 578.862 136.835 Q580.945 135.678 583.653 135.678 Q588.121 135.678 590.413 138.456 Q592.704 141.21 592.704 146.581 Z" fill="#000000" fill-rule="evenodd" fill-opacity="1" /><path clip-path="url(#clip150)" d="M615.829 151.997 L615.829 136.303 L620.088 136.303 L620.088 151.835 Q620.088 155.516 621.523 157.368 Q622.959 159.196 625.829 159.196 Q629.278 159.196 631.269 156.997 Q633.283 154.798 633.283 151.002 L633.283 136.303 L637.542 136.303 L637.542 162.229 L633.283 162.229 L633.283 158.247 Q631.732 160.608 629.672 161.766 Q627.635 162.9 624.926 162.9 Q620.459 162.9 618.144 160.122 Q615.829 157.344 615.829 151.997 M626.547 135.678 L626.547 135.678 Z" fill="#000000" fill-rule="evenodd" fill-opacity="1" /><path clip-path="url(#clip150)" d="M667.866 146.581 L667.866 162.229 L663.607 162.229 L663.607 146.719 Q663.607 143.039 662.171 141.21 Q660.736 139.382 657.866 139.382 Q654.417 139.382 652.426 141.581 Q650.435 143.78 650.435 147.576 L650.435 162.229 L646.153 162.229 L646.153 136.303 L650.435 136.303 L650.435 140.331 Q651.963 137.993 654.023 136.835 Q656.107 135.678 658.815 135.678 Q663.283 135.678 665.574 138.456 Q667.866 141.21 667.866 146.581 Z" fill="#000000" fill-rule="evenodd" fill-opacity="1" /><path clip-path="url(#clip150)" d="M698.537 148.201 L698.537 150.284 L678.954 150.284 Q679.231 154.682 681.593 156.997 Q683.977 159.289 688.213 159.289 Q690.667 159.289 692.958 158.687 Q695.273 158.085 697.542 156.881 L697.542 160.909 Q695.25 161.881 692.843 162.391 Q690.435 162.9 687.958 162.9 Q681.755 162.9 678.12 159.289 Q674.509 155.678 674.509 149.52 Q674.509 143.155 677.935 139.428 Q681.384 135.678 687.218 135.678 Q692.449 135.678 695.481 139.057 Q698.537 142.414 698.537 148.201 M694.278 146.951 Q694.231 143.456 692.31 141.372 Q690.412 139.289 687.264 139.289 Q683.699 139.289 681.546 141.303 Q679.417 143.317 679.093 146.974 L694.278 146.951 Z" fill="#000000" fill-rule="evenodd" fill-opacity="1" /><path clip-path="url(#clip150)" d="M725.713 141.28 Q727.31 138.409 729.532 137.044 Q731.754 135.678 734.764 135.678 Q738.815 135.678 741.014 138.525 Q743.213 141.349 743.213 146.581 L743.213 162.229 L738.93 162.229 L738.93 146.719 Q738.93 142.993 737.611 141.187 Q736.291 139.382 733.583 139.382 Q730.273 139.382 728.352 141.581 Q726.43 143.78 726.43 147.576 L726.43 162.229 L722.148 162.229 L722.148 146.719 Q722.148 142.969 720.828 141.187 Q719.509 139.382 716.754 139.382 Q713.491 139.382 711.569 141.604 Q709.648 143.803 709.648 147.576 L709.648 162.229 L705.366 162.229 L705.366 136.303 L709.648 136.303 L709.648 140.331 Q711.106 137.946 713.143 136.812 Q715.18 135.678 717.981 135.678 Q720.805 135.678 722.773 137.113 Q724.764 138.548 725.713 141.28 Z" fill="#000000" fill-rule="evenodd" fill-opacity="1" /><path clip-path="url(#clip150)" d="M755.828 158.34 L755.828 172.09 L751.546 172.09 L751.546 136.303 L755.828 136.303 L755.828 140.238 Q757.171 137.923 759.208 136.812 Q761.268 135.678 764.115 135.678 Q768.837 135.678 771.777 139.428 Q774.74 143.178 774.74 149.289 Q774.74 155.4 771.777 159.15 Q768.837 162.9 764.115 162.9 Q761.268 162.9 759.208 161.789 Q757.171 160.655 755.828 158.34 M770.319 149.289 Q770.319 144.59 768.375 141.928 Q766.453 139.243 763.074 139.243 Q759.694 139.243 757.75 141.928 Q755.828 144.59 755.828 149.289 Q755.828 153.988 757.75 156.673 Q759.694 159.335 763.074 159.335 Q766.453 159.335 768.375 156.673 Q770.319 153.988 770.319 149.289 Z" fill="#000000" fill-rule="evenodd" fill-opacity="1" /><path clip-path="url(#clip150)" d="M781.8 126.21 L786.06 126.21 L786.06 162.229 L781.8 162.229 L781.8 126.21 Z" fill="#000000" fill-rule="evenodd" fill-opacity="1" /><path clip-path="url(#clip150)" d="M805.018 139.289 Q801.592 139.289 799.601 141.974 Q797.61 144.636 797.61 149.289 Q797.61 153.942 799.578 156.627 Q801.569 159.289 805.018 159.289 Q808.421 159.289 810.411 156.604 Q812.402 153.918 812.402 149.289 Q812.402 144.682 810.411 141.997 Q808.421 139.289 805.018 139.289 M805.018 135.678 Q810.573 135.678 813.745 139.289 Q816.916 142.9 816.916 149.289 Q816.916 155.655 813.745 159.289 Q810.573 162.9 805.018 162.9 Q799.439 162.9 796.268 159.289 Q793.12 155.655 793.12 149.289 Q793.12 142.9 796.268 139.289 Q799.439 135.678 805.018 135.678 Z" fill="#000000" fill-rule="evenodd" fill-opacity="1" /><path clip-path="url(#clip150)" d="M834.763 164.636 Q832.958 169.266 831.245 170.678 Q829.532 172.09 826.661 172.09 L823.259 172.09 L823.259 168.525 L825.758 168.525 Q827.518 168.525 828.49 167.692 Q829.462 166.858 830.643 163.756 L831.407 161.812 L820.921 136.303 L825.434 136.303 L833.536 156.581 L841.638 136.303 L846.152 136.303 L834.763 164.636 Z" fill="#000000" fill-rule="evenodd" fill-opacity="1" /><path clip-path="url(#clip150)" d="M872.217 141.28 Q873.814 138.409 876.036 137.044 Q878.258 135.678 881.267 135.678 Q885.318 135.678 887.517 138.525 Q889.716 141.349 889.716 146.581 L889.716 162.229 L885.434 162.229 L885.434 146.719 Q885.434 142.993 884.115 141.187 Q882.795 139.382 880.087 139.382 Q876.777 139.382 874.855 141.581 Q872.934 143.78 872.934 147.576 L872.934 162.229 L868.652 162.229 L868.652 146.719 Q868.652 142.969 867.332 141.187 Q866.013 139.382 863.258 139.382 Q859.994 139.382 858.073 141.604 Q856.152 143.803 856.152 147.576 L856.152 162.229 L851.869 162.229 L851.869 136.303 L856.152 136.303 L856.152 140.331 Q857.61 137.946 859.647 136.812 Q861.684 135.678 864.485 135.678 Q867.309 135.678 869.277 137.113 Q871.268 138.548 872.217 141.28 Z" fill="#000000" fill-rule="evenodd" fill-opacity="1" /><path clip-path="url(#clip150)" d="M920.388 148.201 L920.388 150.284 L900.804 150.284 Q901.082 154.682 903.443 156.997 Q905.828 159.289 910.064 159.289 Q912.517 159.289 914.809 158.687 Q917.124 158.085 919.392 156.881 L919.392 160.909 Q917.101 161.881 914.693 162.391 Q912.286 162.9 909.809 162.9 Q903.605 162.9 899.971 159.289 Q896.36 155.678 896.36 149.52 Q896.36 143.155 899.786 139.428 Q903.235 135.678 909.068 135.678 Q914.3 135.678 917.332 139.057 Q920.388 142.414 920.388 148.201 M916.128 146.951 Q916.082 143.456 914.161 141.372 Q912.263 139.289 909.115 139.289 Q905.55 139.289 903.397 141.303 Q901.267 143.317 900.943 146.974 L916.128 146.951 Z" fill="#000000" fill-rule="evenodd" fill-opacity="1" /><path clip-path="url(#clip150)" d="M948.929 146.581 L948.929 162.229 L944.67 162.229 L944.67 146.719 Q944.67 143.039 943.235 141.21 Q941.8 139.382 938.929 139.382 Q935.48 139.382 933.489 141.581 Q931.499 143.78 931.499 147.576 L931.499 162.229 L927.216 162.229 L927.216 136.303 L931.499 136.303 L931.499 140.331 Q933.026 137.993 935.087 136.835 Q937.17 135.678 939.878 135.678 Q944.346 135.678 946.637 138.456 Q948.929 141.21 948.929 146.581 Z" fill="#000000" fill-rule="evenodd" fill-opacity="1" /><path clip-path="url(#clip150)" d="M961.637 128.942 L961.637 136.303 L970.41 136.303 L970.41 139.613 L961.637 139.613 L961.637 153.687 Q961.637 156.858 962.494 157.761 Q963.373 158.664 966.036 158.664 L970.41 158.664 L970.41 162.229 L966.036 162.229 Q961.105 162.229 959.23 160.4 Q957.355 158.548 957.355 153.687 L957.355 139.613 L954.23 139.613 L954.23 136.303 L957.355 136.303 L957.355 128.942 L961.637 128.942 Z" fill="#000000" fill-rule="evenodd" fill-opacity="1" /><path clip-path="url(#clip150)" d="M1008.14 140.238 L1008.14 126.21 L1012.4 126.21 L1012.4 162.229 L1008.14 162.229 L1008.14 158.34 Q1006.8 160.655 1004.74 161.789 Q1002.7 162.9 999.832 162.9 Q995.133 162.9 992.17 159.15 Q989.23 155.4 989.23 149.289 Q989.23 143.178 992.17 139.428 Q995.133 135.678 999.832 135.678 Q1002.7 135.678 1004.74 136.812 Q1006.8 137.923 1008.14 140.238 M993.628 149.289 Q993.628 153.988 995.549 156.673 Q997.494 159.335 1000.87 159.335 Q1004.25 159.335 1006.2 156.673 Q1008.14 153.988 1008.14 149.289 Q1008.14 144.59 1006.2 141.928 Q1004.25 139.243 1000.87 139.243 Q997.494 139.243 995.549 141.928 Q993.628 144.59 993.628 149.289 Z" fill="#000000" fill-rule="evenodd" fill-opacity="1" /><path clip-path="url(#clip150)" d="M1020.73 151.997 L1020.73 136.303 L1024.99 136.303 L1024.99 151.835 Q1024.99 155.516 1026.43 157.368 Q1027.86 159.196 1030.73 159.196 Q1034.18 159.196 1036.17 156.997 Q1038.19 154.798 1038.19 151.002 L1038.19 136.303 L1042.45 136.303 L1042.45 162.229 L1038.19 162.229 L1038.19 158.247 Q1036.64 160.608 1034.58 161.766 Q1032.54 162.9 1029.83 162.9 Q1025.36 162.9 1023.05 160.122 Q1020.73 157.344 1020.73 151.997 M1031.45 135.678 L1031.45 135.678 Z" fill="#000000" fill-rule="evenodd" fill-opacity="1" /><path clip-path="url(#clip150)" d="M1066.24 140.284 Q1065.53 139.868 1064.67 139.682 Q1063.84 139.474 1062.82 139.474 Q1059.21 139.474 1057.26 141.835 Q1055.34 144.173 1055.34 148.571 L1055.34 162.229 L1051.06 162.229 L1051.06 136.303 L1055.34 136.303 L1055.34 140.331 Q1056.68 137.969 1058.84 136.835 Q1060.99 135.678 1064.07 135.678 Q1064.51 135.678 1065.04 135.747 Q1065.57 135.794 1066.22 135.909 L1066.24 140.284 Z" fill="#000000" fill-rule="evenodd" fill-opacity="1" /><path clip-path="url(#clip150)" d="M1082.49 149.196 Q1077.33 149.196 1075.34 150.377 Q1073.35 151.557 1073.35 154.405 Q1073.35 156.673 1074.83 158.016 Q1076.34 159.335 1078.91 159.335 Q1082.45 159.335 1084.58 156.835 Q1086.73 154.312 1086.73 150.145 L1086.73 149.196 L1082.49 149.196 M1090.99 147.437 L1090.99 162.229 L1086.73 162.229 L1086.73 158.293 Q1085.27 160.655 1083.1 161.789 Q1080.92 162.9 1077.77 162.9 Q1073.79 162.9 1071.43 160.678 Q1069.09 158.432 1069.09 154.682 Q1069.09 150.307 1072.01 148.085 Q1074.95 145.863 1080.76 145.863 L1086.73 145.863 L1086.73 145.446 Q1086.73 142.507 1084.78 140.909 Q1082.86 139.289 1079.37 139.289 Q1077.15 139.289 1075.04 139.821 Q1072.93 140.354 1070.99 141.419 L1070.99 137.483 Q1073.33 136.581 1075.53 136.141 Q1077.72 135.678 1079.81 135.678 Q1085.43 135.678 1088.21 138.594 Q1090.99 141.511 1090.99 147.437 Z" fill="#000000" fill-rule="evenodd" fill-opacity="1" /><path clip-path="url(#clip150)" d="M1103.97 128.942 L1103.97 136.303 L1112.75 136.303 L1112.75 139.613 L1103.97 139.613 L1103.97 153.687 Q1103.97 156.858 1104.83 157.761 Q1105.71 158.664 1108.37 158.664 L1112.75 158.664 L1112.75 162.229 L1108.37 162.229 Q1103.44 162.229 1101.57 160.4 Q1099.69 158.548 1099.69 153.687 L1099.69 139.613 L1096.57 139.613 L1096.57 136.303 L1099.69 136.303 L1099.69 128.942 L1103.97 128.942 Z" fill="#000000" fill-rule="evenodd" fill-opacity="1" /><path clip-path="url(#clip150)" d="M1118.35 136.303 L1122.61 136.303 L1122.61 162.229 L1118.35 162.229 L1118.35 136.303 M1118.35 126.21 L1122.61 126.21 L1122.61 131.604 L1118.35 131.604 L1118.35 126.21 Z" fill="#000000" fill-rule="evenodd" fill-opacity="1" /><path clip-path="url(#clip150)" d="M1141.57 139.289 Q1138.14 139.289 1136.15 141.974 Q1134.16 144.636 1134.16 149.289 Q1134.16 153.942 1136.13 156.627 Q1138.12 159.289 1141.57 159.289 Q1144.97 159.289 1146.96 156.604 Q1148.95 153.918 1148.95 149.289 Q1148.95 144.682 1146.96 141.997 Q1144.97 139.289 1141.57 139.289 M1141.57 135.678 Q1147.12 135.678 1150.29 139.289 Q1153.47 142.9 1153.47 149.289 Q1153.47 155.655 1150.29 159.289 Q1147.12 162.9 1141.57 162.9 Q1135.99 162.9 1132.82 159.289 Q1129.67 155.655 1129.67 149.289 Q1129.67 142.9 1132.82 139.289 Q1135.99 135.678 1141.57 135.678 Z" fill="#000000" fill-rule="evenodd" fill-opacity="1" /><path clip-path="url(#clip150)" d="M1182.08 146.581 L1182.08 162.229 L1177.82 162.229 L1177.82 146.719 Q1177.82 143.039 1176.38 141.21 Q1174.95 139.382 1172.08 139.382 Q1168.63 139.382 1166.64 141.581 Q1164.65 143.78 1164.65 147.576 L1164.65 162.229 L1160.36 162.229 L1160.36 136.303 L1164.65 136.303 L1164.65 140.331 Q1166.17 137.993 1168.23 136.835 Q1170.32 135.678 1173.03 135.678 Q1177.49 135.678 1179.78 138.456 Q1182.08 141.21 1182.08 146.581 Z" fill="#000000" fill-rule="evenodd" fill-opacity="1" /></svg>
