<?xml version="1.0" encoding="utf-8"?>
<svg xmlns="http://www.w3.org/2000/svg" xmlns:xlink="http://www.w3.org/1999/xlink" width="600" height="400" viewBox="0 0 2400 1600">
<defs>
  <clipPath id="clip180">
    <rect x="0" y="0" width="2400" height="1600"/>
  </clipPath>
</defs>
<path clip-path="url(#clip180)" d="
M0 1600 L2400 1600 L2400 0 L0 0  Z
  " fill="#ffffff" fill-rule="evenodd" fill-opacity="1"/>
<defs>
  <clipPath id="clip181">
    <rect x="480" y="0" width="1681" height="1600"/>
  </clipPath>
</defs>
<defs>
  <clipPath id="clip182">
    <rect x="202" y="47" width="2151" height="1377"/>
  </clipPath>
</defs>
<path clip-path="url(#clip180)" d="
M247.459 1423.18 L2352.76 1423.18 L2352.76 47.2441 L247.459 47.2441  Z
  " fill="#ffffff" fill-rule="evenodd" fill-opacity="1"/>
<defs>
  <clipPath id="clip183">
    <rect x="247" y="47" width="2106" height="1377"/>
  </clipPath>
</defs>
<polyline clip-path="url(#clip183)" style="stroke:#000000; stroke-linecap:butt; stroke-linejoin:round; stroke-width:2; stroke-opacity:0.1; fill:none" points="
  638.064,1423.18 638.064,47.2441 
  "/>
<polyline clip-path="url(#clip183)" style="stroke:#000000; stroke-linecap:butt; stroke-linejoin:round; stroke-width:2; stroke-opacity:0.1; fill:none" points="
  1079.43,1423.18 1079.43,47.2441 
  "/>
<polyline clip-path="url(#clip183)" style="stroke:#000000; stroke-linecap:butt; stroke-linejoin:round; stroke-width:2; stroke-opacity:0.1; fill:none" points="
  1520.79,1423.18 1520.79,47.2441 
  "/>
<polyline clip-path="url(#clip183)" style="stroke:#000000; stroke-linecap:butt; stroke-linejoin:round; stroke-width:2; stroke-opacity:0.1; fill:none" points="
  1962.15,1423.18 1962.15,47.2441 
  "/>
<polyline clip-path="url(#clip180)" style="stroke:#000000; stroke-linecap:butt; stroke-linejoin:round; stroke-width:4; stroke-opacity:1; fill:none" points="
  247.459,1423.18 2352.76,1423.18 
  "/>
<polyline clip-path="url(#clip180)" style="stroke:#000000; stroke-linecap:butt; stroke-linejoin:round; stroke-width:4; stroke-opacity:1; fill:none" points="
  638.064,1423.18 638.064,1404.28 
  "/>
<polyline clip-path="url(#clip180)" style="stroke:#000000; stroke-linecap:butt; stroke-linejoin:round; stroke-width:4; stroke-opacity:1; fill:none" points="
  1079.43,1423.18 1079.43,1404.28 
  "/>
<polyline clip-path="url(#clip180)" style="stroke:#000000; stroke-linecap:butt; stroke-linejoin:round; stroke-width:4; stroke-opacity:1; fill:none" points="
  1520.79,1423.18 1520.79,1404.28 
  "/>
<polyline clip-path="url(#clip180)" style="stroke:#000000; stroke-linecap:butt; stroke-linejoin:round; stroke-width:4; stroke-opacity:1; fill:none" points="
  1962.15,1423.18 1962.15,1404.28 
  "/>
<path clip-path="url(#clip180)" d="M616.247 1454.1 Q612.636 1454.1 610.807 1457.66 Q609.002 1461.2 609.002 1468.33 Q609.002 1475.44 610.807 1479.01 Q612.636 1482.55 616.247 1482.55 Q619.881 1482.55 621.687 1479.01 Q623.516 1475.44 623.516 1468.33 Q623.516 1461.2 621.687 1457.66 Q619.881 1454.1 616.247 1454.1 M616.247 1450.39 Q622.057 1450.39 625.113 1455 Q628.192 1459.58 628.192 1468.33 Q628.192 1477.06 625.113 1481.67 Q622.057 1486.25 616.247 1486.25 Q610.437 1486.25 607.358 1481.67 Q604.303 1477.06 604.303 1468.33 Q604.303 1459.58 607.358 1455 Q610.437 1450.39 616.247 1450.39 Z" fill="#000000" fill-rule="evenodd" fill-opacity="1" /><path clip-path="url(#clip180)" d="M636.409 1479.7 L641.293 1479.7 L641.293 1485.58 L636.409 1485.58 L636.409 1479.7 Z" fill="#000000" fill-rule="evenodd" fill-opacity="1" /><path clip-path="url(#clip180)" d="M655.506 1481.64 L671.826 1481.64 L671.826 1485.58 L649.881 1485.58 L649.881 1481.64 Q652.543 1478.89 657.127 1474.26 Q661.733 1469.61 662.914 1468.27 Q665.159 1465.74 666.039 1464.01 Q666.941 1462.25 666.941 1460.56 Q666.941 1457.8 664.997 1456.07 Q663.076 1454.33 659.974 1454.33 Q657.775 1454.33 655.321 1455.09 Q652.89 1455.86 650.113 1457.41 L650.113 1452.69 Q652.937 1451.55 655.39 1450.97 Q657.844 1450.39 659.881 1450.39 Q665.252 1450.39 668.446 1453.08 Q671.64 1455.77 671.64 1460.26 Q671.64 1462.39 670.83 1464.31 Q670.043 1466.2 667.937 1468.8 Q667.358 1469.47 664.256 1472.69 Q661.154 1475.88 655.506 1481.64 Z" fill="#000000" fill-rule="evenodd" fill-opacity="1" /><path clip-path="url(#clip180)" d="M1056.57 1454.1 Q1052.96 1454.1 1051.13 1457.66 Q1049.32 1461.2 1049.32 1468.33 Q1049.32 1475.44 1051.13 1479.01 Q1052.96 1482.55 1056.57 1482.55 Q1060.2 1482.55 1062.01 1479.01 Q1063.84 1475.44 1063.84 1468.33 Q1063.84 1461.2 1062.01 1457.66 Q1060.2 1454.1 1056.57 1454.1 M1056.57 1450.39 Q1062.38 1450.39 1065.43 1455 Q1068.51 1459.58 1068.51 1468.33 Q1068.51 1477.06 1065.43 1481.67 Q1062.38 1486.25 1056.57 1486.25 Q1050.76 1486.25 1047.68 1481.67 Q1044.62 1477.06 1044.62 1468.33 Q1044.62 1459.58 1047.68 1455 Q1050.76 1450.39 1056.57 1450.39 Z" fill="#000000" fill-rule="evenodd" fill-opacity="1" /><path clip-path="url(#clip180)" d="M1076.73 1479.7 L1081.61 1479.7 L1081.61 1485.58 L1076.73 1485.58 L1076.73 1479.7 Z" fill="#000000" fill-rule="evenodd" fill-opacity="1" /><path clip-path="url(#clip180)" d="M1104.65 1455.09 L1092.84 1473.54 L1104.65 1473.54 L1104.65 1455.09 M1103.42 1451.02 L1109.3 1451.02 L1109.3 1473.54 L1114.23 1473.54 L1114.23 1477.43 L1109.3 1477.43 L1109.3 1485.58 L1104.65 1485.58 L1104.65 1477.43 L1089.04 1477.43 L1089.04 1472.92 L1103.42 1451.02 Z" fill="#000000" fill-rule="evenodd" fill-opacity="1" /><path clip-path="url(#clip180)" d="M1498.09 1454.1 Q1494.48 1454.1 1492.65 1457.66 Q1490.85 1461.2 1490.85 1468.33 Q1490.85 1475.44 1492.65 1479.01 Q1494.48 1482.55 1498.09 1482.55 Q1501.73 1482.55 1503.53 1479.01 Q1505.36 1475.44 1505.36 1468.33 Q1505.36 1461.2 1503.53 1457.66 Q1501.73 1454.1 1498.09 1454.1 M1498.09 1450.39 Q1503.9 1450.39 1506.96 1455 Q1510.04 1459.58 1510.04 1468.33 Q1510.04 1477.06 1506.96 1481.67 Q1503.9 1486.25 1498.09 1486.25 Q1492.28 1486.25 1489.2 1481.67 Q1486.15 1477.06 1486.15 1468.33 Q1486.15 1459.58 1489.2 1455 Q1492.28 1450.39 1498.09 1450.39 Z" fill="#000000" fill-rule="evenodd" fill-opacity="1" /><path clip-path="url(#clip180)" d="M1518.25 1479.7 L1523.14 1479.7 L1523.14 1485.58 L1518.25 1485.58 L1518.25 1479.7 Z" fill="#000000" fill-rule="evenodd" fill-opacity="1" /><path clip-path="url(#clip180)" d="M1543.9 1466.44 Q1540.75 1466.44 1538.9 1468.59 Q1537.07 1470.74 1537.07 1474.49 Q1537.07 1478.22 1538.9 1480.39 Q1540.75 1482.55 1543.9 1482.55 Q1547.05 1482.55 1548.88 1480.39 Q1550.73 1478.22 1550.73 1474.49 Q1550.73 1470.74 1548.88 1468.59 Q1547.05 1466.44 1543.9 1466.44 M1553.18 1451.78 L1553.18 1456.04 Q1551.42 1455.21 1549.62 1454.77 Q1547.84 1454.33 1546.08 1454.33 Q1541.45 1454.33 1538.99 1457.45 Q1536.56 1460.58 1536.22 1466.9 Q1537.58 1464.89 1539.64 1463.82 Q1541.7 1462.73 1544.18 1462.73 Q1549.39 1462.73 1552.4 1465.9 Q1555.43 1469.05 1555.43 1474.49 Q1555.43 1479.82 1552.28 1483.03 Q1549.13 1486.25 1543.9 1486.25 Q1537.91 1486.25 1534.74 1481.67 Q1531.56 1477.06 1531.56 1468.33 Q1531.56 1460.14 1535.45 1455.28 Q1539.34 1450.39 1545.89 1450.39 Q1547.65 1450.39 1549.43 1450.74 Q1551.24 1451.09 1553.18 1451.78 Z" fill="#000000" fill-rule="evenodd" fill-opacity="1" /><path clip-path="url(#clip180)" d="M1939.58 1454.1 Q1935.97 1454.1 1934.14 1457.66 Q1932.34 1461.2 1932.34 1468.33 Q1932.34 1475.44 1934.14 1479.01 Q1935.97 1482.55 1939.58 1482.55 Q1943.22 1482.55 1945.02 1479.01 Q1946.85 1475.44 1946.85 1468.33 Q1946.85 1461.2 1945.02 1457.66 Q1943.22 1454.1 1939.58 1454.1 M1939.58 1450.39 Q1945.39 1450.39 1948.45 1455 Q1951.53 1459.58 1951.53 1468.33 Q1951.53 1477.06 1948.45 1481.67 Q1945.39 1486.25 1939.58 1486.25 Q1933.77 1486.25 1930.69 1481.67 Q1927.64 1477.06 1927.64 1468.33 Q1927.64 1459.58 1930.69 1455 Q1933.77 1450.39 1939.58 1450.39 Z" fill="#000000" fill-rule="evenodd" fill-opacity="1" /><path clip-path="url(#clip180)" d="M1959.74 1479.7 L1964.63 1479.7 L1964.63 1485.58 L1959.74 1485.58 L1959.74 1479.7 Z" fill="#000000" fill-rule="evenodd" fill-opacity="1" /><path clip-path="url(#clip180)" d="M1984.81 1469.17 Q1981.48 1469.17 1979.56 1470.95 Q1977.66 1472.73 1977.66 1475.86 Q1977.66 1478.98 1979.56 1480.77 Q1981.48 1482.55 1984.81 1482.55 Q1988.15 1482.55 1990.07 1480.77 Q1991.99 1478.96 1991.99 1475.86 Q1991.99 1472.73 1990.07 1470.95 Q1988.17 1469.17 1984.81 1469.17 M1980.14 1467.18 Q1977.13 1466.44 1975.44 1464.38 Q1973.77 1462.32 1973.77 1459.35 Q1973.77 1455.21 1976.71 1452.8 Q1979.67 1450.39 1984.81 1450.39 Q1989.97 1450.39 1992.91 1452.8 Q1995.85 1455.21 1995.85 1459.35 Q1995.85 1462.32 1994.16 1464.38 Q1992.5 1466.44 1989.51 1467.18 Q1992.89 1467.96 1994.77 1470.26 Q1996.66 1472.55 1996.66 1475.86 Q1996.66 1480.88 1993.59 1483.57 Q1990.53 1486.25 1984.81 1486.25 Q1979.09 1486.25 1976.02 1483.57 Q1972.96 1480.88 1972.96 1475.86 Q1972.96 1472.55 1974.86 1470.26 Q1976.76 1467.96 1980.14 1467.18 M1978.42 1459.79 Q1978.42 1462.48 1980.09 1463.98 Q1981.78 1465.49 1984.81 1465.49 Q1987.82 1465.49 1989.51 1463.98 Q1991.22 1462.48 1991.22 1459.79 Q1991.22 1457.11 1989.51 1455.6 Q1987.82 1454.1 1984.81 1454.1 Q1981.78 1454.1 1980.09 1455.6 Q1978.42 1457.11 1978.42 1459.79 Z" fill="#000000" fill-rule="evenodd" fill-opacity="1" /><path clip-path="url(#clip180)" d="M1095.62 1532.4 L1101.48 1532.4 L1101.48 1568.68 Q1101.48 1575.49 1098.87 1578.55 Q1096.29 1581.6 1090.53 1581.6 L1088.3 1581.6 L1088.3 1576.64 L1089.86 1576.64 Q1093.21 1576.64 1094.42 1575.08 Q1095.62 1573.55 1095.62 1568.68 L1095.62 1532.4 M1095.62 1518.52 L1101.48 1518.52 L1101.48 1525.93 L1095.62 1525.93 L1095.62 1518.52 Z" fill="#000000" fill-rule="evenodd" fill-opacity="1" /><path clip-path="url(#clip180)" d="M1127.55 1536.5 Q1122.84 1536.5 1120.1 1540.19 Q1117.36 1543.85 1117.36 1550.25 Q1117.36 1556.65 1120.07 1560.34 Q1122.81 1564 1127.55 1564 Q1132.23 1564 1134.96 1560.31 Q1137.7 1556.62 1137.7 1550.25 Q1137.7 1543.92 1134.96 1540.23 Q1132.23 1536.5 1127.55 1536.5 M1127.55 1531.54 Q1135.19 1531.54 1139.55 1536.5 Q1143.91 1541.47 1143.91 1550.25 Q1143.91 1559 1139.55 1564 Q1135.19 1568.97 1127.55 1568.97 Q1119.88 1568.97 1115.52 1564 Q1111.19 1559 1111.19 1550.25 Q1111.19 1541.47 1115.52 1536.5 Q1119.88 1531.54 1127.55 1531.54 Z" fill="#000000" fill-rule="evenodd" fill-opacity="1" /><path clip-path="url(#clip180)" d="M1179.21 1550.25 Q1179.21 1543.79 1176.53 1540.13 Q1173.89 1536.44 1169.24 1536.44 Q1164.6 1536.44 1161.92 1540.13 Q1159.28 1543.79 1159.28 1550.25 Q1159.28 1556.71 1161.92 1560.4 Q1164.6 1564.07 1169.24 1564.07 Q1173.89 1564.07 1176.53 1560.4 Q1179.21 1556.71 1179.21 1550.25 M1159.28 1537.81 Q1161.13 1534.62 1163.93 1533.1 Q1166.76 1531.54 1170.68 1531.54 Q1177.17 1531.54 1181.21 1536.69 Q1185.29 1541.85 1185.29 1550.25 Q1185.29 1558.65 1181.21 1563.81 Q1177.17 1568.97 1170.68 1568.97 Q1166.76 1568.97 1163.93 1567.44 Q1161.13 1565.88 1159.28 1562.7 L1159.28 1568.04 L1153.39 1568.04 L1153.39 1518.52 L1159.28 1518.52 L1159.28 1537.81 Z" fill="#000000" fill-rule="evenodd" fill-opacity="1" /><path clip-path="url(#clip180)" d="M1229.53 1536.5 Q1224.82 1536.5 1222.08 1540.19 Q1219.34 1543.85 1219.34 1550.25 Q1219.34 1556.65 1222.05 1560.34 Q1224.79 1564 1229.53 1564 Q1234.21 1564 1236.94 1560.31 Q1239.68 1556.62 1239.68 1550.25 Q1239.68 1543.92 1236.94 1540.23 Q1234.21 1536.5 1229.53 1536.5 M1229.53 1531.54 Q1237.17 1531.54 1241.53 1536.5 Q1245.89 1541.47 1245.89 1550.25 Q1245.89 1559 1241.53 1564 Q1237.17 1568.97 1229.53 1568.97 Q1221.86 1568.97 1217.5 1564 Q1213.17 1559 1213.17 1550.25 Q1213.17 1541.47 1217.5 1536.5 Q1221.86 1531.54 1229.53 1531.54 Z" fill="#000000" fill-rule="evenodd" fill-opacity="1" /><path clip-path="url(#clip180)" d="M1273.64 1518.52 L1273.64 1523.39 L1268.04 1523.39 Q1264.89 1523.39 1263.65 1524.66 Q1262.44 1525.93 1262.44 1529.24 L1262.44 1532.4 L1272.08 1532.4 L1272.08 1536.95 L1262.44 1536.95 L1262.44 1568.04 L1256.55 1568.04 L1256.55 1536.95 L1250.95 1536.95 L1250.95 1532.4 L1256.55 1532.4 L1256.55 1529.91 Q1256.55 1523.96 1259.32 1521.26 Q1262.09 1518.52 1268.1 1518.52 L1273.64 1518.52 Z" fill="#000000" fill-rule="evenodd" fill-opacity="1" /><path clip-path="url(#clip180)" d="M1296.59 1518.52 L1296.59 1523.39 L1290.99 1523.39 Q1287.84 1523.39 1286.6 1524.66 Q1285.39 1525.93 1285.39 1529.24 L1285.39 1532.4 L1295.03 1532.4 L1295.03 1536.95 L1285.39 1536.95 L1285.39 1568.04 L1279.5 1568.04 L1279.5 1536.95 L1273.9 1536.95 L1273.9 1532.4 L1279.5 1532.4 L1279.5 1529.91 Q1279.5 1523.96 1282.27 1521.26 Q1285.04 1518.52 1291.05 1518.52 L1296.59 1518.52 Z" fill="#000000" fill-rule="evenodd" fill-opacity="1" /><path clip-path="url(#clip180)" d="M1331.98 1548.76 L1331.98 1551.62 L1305.06 1551.62 Q1305.44 1557.67 1308.69 1560.85 Q1311.96 1564 1317.79 1564 Q1321.16 1564 1324.31 1563.17 Q1327.5 1562.35 1330.61 1560.69 L1330.61 1566.23 Q1327.46 1567.57 1324.15 1568.27 Q1320.84 1568.97 1317.44 1568.97 Q1308.91 1568.97 1303.91 1564 Q1298.95 1559.04 1298.95 1550.57 Q1298.95 1541.82 1303.66 1536.69 Q1308.4 1531.54 1316.42 1531.54 Q1323.61 1531.54 1327.78 1536.18 Q1331.98 1540.8 1331.98 1548.76 M1326.13 1547.04 Q1326.06 1542.23 1323.42 1539.37 Q1320.81 1536.5 1316.48 1536.5 Q1311.58 1536.5 1308.62 1539.27 Q1305.69 1542.04 1305.25 1547.07 L1326.13 1547.04 Z" fill="#000000" fill-rule="evenodd" fill-opacity="1" /><path clip-path="url(#clip180)" d="M1362.25 1537.87 Q1361.27 1537.3 1360.09 1537.04 Q1358.94 1536.76 1357.54 1536.76 Q1352.58 1536.76 1349.9 1540 Q1347.26 1543.22 1347.26 1549.27 L1347.26 1568.04 L1341.37 1568.04 L1341.37 1532.4 L1347.26 1532.4 L1347.26 1537.93 Q1349.11 1534.69 1352.07 1533.13 Q1355.03 1531.54 1359.26 1531.54 Q1359.87 1531.54 1360.6 1531.63 Q1361.33 1531.7 1362.22 1531.85 L1362.25 1537.87 Z" fill="#000000" fill-rule="evenodd" fill-opacity="1" /><path clip-path="url(#clip180)" d="M1409.77 1537.87 Q1408.79 1537.3 1407.61 1537.04 Q1406.46 1536.76 1405.06 1536.76 Q1400.1 1536.76 1397.42 1540 Q1394.78 1543.22 1394.78 1549.27 L1394.78 1568.04 L1388.89 1568.04 L1388.89 1532.4 L1394.78 1532.4 L1394.78 1537.93 Q1396.63 1534.69 1399.59 1533.13 Q1402.55 1531.54 1406.78 1531.54 Q1407.39 1531.54 1408.12 1531.63 Q1408.85 1531.7 1409.74 1531.85 L1409.77 1537.87 Z" fill="#000000" fill-rule="evenodd" fill-opacity="1" /><path clip-path="url(#clip180)" d="M1432.12 1550.12 Q1425.02 1550.12 1422.28 1551.75 Q1419.54 1553.37 1419.54 1557.29 Q1419.54 1560.4 1421.58 1562.25 Q1423.65 1564.07 1427.18 1564.07 Q1432.05 1564.07 1434.98 1560.63 Q1437.94 1557.16 1437.94 1551.43 L1437.94 1550.12 L1432.12 1550.12 M1443.8 1547.71 L1443.8 1568.04 L1437.94 1568.04 L1437.94 1562.63 Q1435.94 1565.88 1432.94 1567.44 Q1429.95 1568.97 1425.62 1568.97 Q1420.15 1568.97 1416.9 1565.91 Q1413.69 1562.82 1413.69 1557.67 Q1413.69 1551.65 1417.7 1548.6 Q1421.74 1545.54 1429.73 1545.54 L1437.94 1545.54 L1437.94 1544.97 Q1437.94 1540.93 1435.27 1538.73 Q1432.63 1536.5 1427.82 1536.5 Q1424.76 1536.5 1421.87 1537.23 Q1418.97 1537.97 1416.3 1539.43 L1416.3 1534.02 Q1419.51 1532.78 1422.54 1532.17 Q1425.56 1531.54 1428.42 1531.54 Q1436.16 1531.54 1439.98 1535.55 Q1443.8 1539.56 1443.8 1547.71 Z" fill="#000000" fill-rule="evenodd" fill-opacity="1" /><path clip-path="url(#clip180)" d="M1461.65 1522.27 L1461.65 1532.4 L1473.72 1532.4 L1473.72 1536.95 L1461.65 1536.95 L1461.65 1556.3 Q1461.65 1560.66 1462.83 1561.9 Q1464.04 1563.14 1467.7 1563.14 L1473.72 1563.14 L1473.72 1568.04 L1467.7 1568.04 Q1460.92 1568.04 1458.34 1565.53 Q1455.76 1562.98 1455.76 1556.3 L1455.76 1536.95 L1451.47 1536.95 L1451.47 1532.4 L1455.76 1532.4 L1455.76 1522.27 L1461.65 1522.27 Z" fill="#000000" fill-rule="evenodd" fill-opacity="1" /><path clip-path="url(#clip180)" d="M1511.91 1548.76 L1511.91 1551.62 L1484.98 1551.62 Q1485.37 1557.67 1488.61 1560.85 Q1491.89 1564 1497.71 1564 Q1501.09 1564 1504.24 1563.17 Q1507.42 1562.35 1510.54 1560.69 L1510.54 1566.23 Q1507.39 1567.57 1504.08 1568.27 Q1500.77 1568.97 1497.36 1568.97 Q1488.83 1568.97 1483.84 1564 Q1478.87 1559.04 1478.87 1550.57 Q1478.87 1541.82 1483.58 1536.69 Q1488.33 1531.54 1496.35 1531.54 Q1503.54 1531.54 1507.71 1536.18 Q1511.91 1540.8 1511.91 1548.76 M1506.05 1547.04 Q1505.99 1542.23 1503.35 1539.37 Q1500.74 1536.5 1496.41 1536.5 Q1491.51 1536.5 1488.55 1539.27 Q1485.62 1542.04 1485.17 1547.07 L1506.05 1547.04 Z" fill="#000000" fill-rule="evenodd" fill-opacity="1" /><polyline clip-path="url(#clip183)" style="stroke:#000000; stroke-linecap:butt; stroke-linejoin:round; stroke-width:2; stroke-opacity:0.1; fill:none" points="
  247.459,1384.24 2352.76,1384.24 
  "/>
<polyline clip-path="url(#clip183)" style="stroke:#000000; stroke-linecap:butt; stroke-linejoin:round; stroke-width:2; stroke-opacity:0.1; fill:none" points="
  247.459,1089.68 2352.76,1089.68 
  "/>
<polyline clip-path="url(#clip183)" style="stroke:#000000; stroke-linecap:butt; stroke-linejoin:round; stroke-width:2; stroke-opacity:0.1; fill:none" points="
  247.459,795.122 2352.76,795.122 
  "/>
<polyline clip-path="url(#clip183)" style="stroke:#000000; stroke-linecap:butt; stroke-linejoin:round; stroke-width:2; stroke-opacity:0.1; fill:none" points="
  247.459,500.564 2352.76,500.564 
  "/>
<polyline clip-path="url(#clip183)" style="stroke:#000000; stroke-linecap:butt; stroke-linejoin:round; stroke-width:2; stroke-opacity:0.1; fill:none" points="
  247.459,206.006 2352.76,206.006 
  "/>
<polyline clip-path="url(#clip180)" style="stroke:#000000; stroke-linecap:butt; stroke-linejoin:round; stroke-width:4; stroke-opacity:1; fill:none" points="
  247.459,1423.18 247.459,47.2441 
  "/>
<polyline clip-path="url(#clip180)" style="stroke:#000000; stroke-linecap:butt; stroke-linejoin:round; stroke-width:4; stroke-opacity:1; fill:none" points="
  247.459,1384.24 266.356,1384.24 
  "/>
<polyline clip-path="url(#clip180)" style="stroke:#000000; stroke-linecap:butt; stroke-linejoin:round; stroke-width:4; stroke-opacity:1; fill:none" points="
  247.459,1089.68 266.356,1089.68 
  "/>
<polyline clip-path="url(#clip180)" style="stroke:#000000; stroke-linecap:butt; stroke-linejoin:round; stroke-width:4; stroke-opacity:1; fill:none" points="
  247.459,795.122 266.356,795.122 
  "/>
<polyline clip-path="url(#clip180)" style="stroke:#000000; stroke-linecap:butt; stroke-linejoin:round; stroke-width:4; stroke-opacity:1; fill:none" points="
  247.459,500.564 266.356,500.564 
  "/>
<polyline clip-path="url(#clip180)" style="stroke:#000000; stroke-linecap:butt; stroke-linejoin:round; stroke-width:4; stroke-opacity:1; fill:none" points="
  247.459,206.006 266.356,206.006 
  "/>
<path clip-path="url(#clip180)" d="M114.931 1397.58 L122.57 1397.58 L122.57 1371.22 L114.26 1372.88 L114.26 1368.62 L122.524 1366.96 L127.2 1366.96 L127.2 1397.58 L134.839 1397.58 L134.839 1401.52 L114.931 1401.52 L114.931 1397.58 Z" fill="#000000" fill-rule="evenodd" fill-opacity="1" /><path clip-path="url(#clip180)" d="M154.283 1370.04 Q150.672 1370.04 148.843 1373.6 Q147.038 1377.14 147.038 1384.27 Q147.038 1391.38 148.843 1394.94 Q150.672 1398.49 154.283 1398.49 Q157.917 1398.49 159.723 1394.94 Q161.552 1391.38 161.552 1384.27 Q161.552 1377.14 159.723 1373.6 Q157.917 1370.04 154.283 1370.04 M154.283 1366.33 Q160.093 1366.33 163.149 1370.94 Q166.227 1375.52 166.227 1384.27 Q166.227 1393 163.149 1397.61 Q160.093 1402.19 154.283 1402.19 Q148.473 1402.19 145.394 1397.61 Q142.339 1393 142.339 1384.27 Q142.339 1375.52 145.394 1370.94 Q148.473 1366.33 154.283 1366.33 Z" fill="#000000" fill-rule="evenodd" fill-opacity="1" /><path clip-path="url(#clip180)" d="M174.445 1395.64 L179.329 1395.64 L179.329 1401.52 L174.445 1401.52 L174.445 1395.64 Z" fill="#000000" fill-rule="evenodd" fill-opacity="1" /><path clip-path="url(#clip180)" d="M199.514 1370.04 Q195.903 1370.04 194.075 1373.6 Q192.269 1377.14 192.269 1384.27 Q192.269 1391.38 194.075 1394.94 Q195.903 1398.49 199.514 1398.49 Q203.149 1398.49 204.954 1394.94 Q206.783 1391.38 206.783 1384.27 Q206.783 1377.14 204.954 1373.6 Q203.149 1370.04 199.514 1370.04 M199.514 1366.33 Q205.324 1366.33 208.38 1370.94 Q211.459 1375.52 211.459 1384.27 Q211.459 1393 208.38 1397.61 Q205.324 1402.19 199.514 1402.19 Q193.704 1402.19 190.625 1397.61 Q187.57 1393 187.57 1384.27 Q187.57 1375.52 190.625 1370.94 Q193.704 1366.33 199.514 1366.33 Z" fill="#000000" fill-rule="evenodd" fill-opacity="1" /><path clip-path="url(#clip180)" d="M115.927 1103.03 L123.566 1103.03 L123.566 1076.66 L115.256 1078.33 L115.256 1074.07 L123.519 1072.4 L128.195 1072.4 L128.195 1103.03 L135.834 1103.03 L135.834 1106.96 L115.927 1106.96 L115.927 1103.03 Z" fill="#000000" fill-rule="evenodd" fill-opacity="1" /><path clip-path="url(#clip180)" d="M155.278 1075.48 Q151.667 1075.48 149.839 1079.04 Q148.033 1082.59 148.033 1089.71 Q148.033 1096.82 149.839 1100.39 Q151.667 1103.93 155.278 1103.93 Q158.913 1103.93 160.718 1100.39 Q162.547 1096.82 162.547 1089.71 Q162.547 1082.59 160.718 1079.04 Q158.913 1075.48 155.278 1075.48 M155.278 1071.78 Q161.089 1071.78 164.144 1076.38 Q167.223 1080.96 167.223 1089.71 Q167.223 1098.44 164.144 1103.05 Q161.089 1107.63 155.278 1107.63 Q149.468 1107.63 146.39 1103.05 Q143.334 1098.44 143.334 1089.71 Q143.334 1080.96 146.39 1076.38 Q149.468 1071.78 155.278 1071.78 Z" fill="#000000" fill-rule="evenodd" fill-opacity="1" /><path clip-path="url(#clip180)" d="M175.44 1101.08 L180.325 1101.08 L180.325 1106.96 L175.44 1106.96 L175.44 1101.08 Z" fill="#000000" fill-rule="evenodd" fill-opacity="1" /><path clip-path="url(#clip180)" d="M190.556 1072.4 L208.912 1072.4 L208.912 1076.34 L194.838 1076.34 L194.838 1084.81 Q195.857 1084.46 196.875 1084.3 Q197.894 1084.11 198.912 1084.11 Q204.699 1084.11 208.079 1087.28 Q211.459 1090.46 211.459 1095.87 Q211.459 1101.45 207.987 1104.55 Q204.514 1107.63 198.195 1107.63 Q196.019 1107.63 193.75 1107.26 Q191.505 1106.89 189.098 1106.15 L189.098 1101.45 Q191.181 1102.59 193.403 1103.14 Q195.625 1103.7 198.102 1103.7 Q202.107 1103.7 204.445 1101.59 Q206.783 1099.48 206.783 1095.87 Q206.783 1092.26 204.445 1090.15 Q202.107 1088.05 198.102 1088.05 Q196.227 1088.05 194.352 1088.46 Q192.5 1088.88 190.556 1089.76 L190.556 1072.4 Z" fill="#000000" fill-rule="evenodd" fill-opacity="1" /><path clip-path="url(#clip180)" d="M114.931 808.467 L122.57 808.467 L122.57 782.101 L114.26 783.768 L114.26 779.509 L122.524 777.842 L127.2 777.842 L127.2 808.467 L134.839 808.467 L134.839 812.402 L114.931 812.402 L114.931 808.467 Z" fill="#000000" fill-rule="evenodd" fill-opacity="1" /><path clip-path="url(#clip180)" d="M145.093 808.467 L152.732 808.467 L152.732 782.101 L144.422 783.768 L144.422 779.509 L152.686 777.842 L157.362 777.842 L157.362 808.467 L165.001 808.467 L165.001 812.402 L145.093 812.402 L145.093 808.467 Z" fill="#000000" fill-rule="evenodd" fill-opacity="1" /><path clip-path="url(#clip180)" d="M174.445 806.522 L179.329 806.522 L179.329 812.402 L174.445 812.402 L174.445 806.522 Z" fill="#000000" fill-rule="evenodd" fill-opacity="1" /><path clip-path="url(#clip180)" d="M199.514 780.921 Q195.903 780.921 194.075 784.486 Q192.269 788.027 192.269 795.157 Q192.269 802.263 194.075 805.828 Q195.903 809.37 199.514 809.37 Q203.149 809.37 204.954 805.828 Q206.783 802.263 206.783 795.157 Q206.783 788.027 204.954 784.486 Q203.149 780.921 199.514 780.921 M199.514 777.217 Q205.324 777.217 208.38 781.824 Q211.459 786.407 211.459 795.157 Q211.459 803.884 208.38 808.49 Q205.324 813.073 199.514 813.073 Q193.704 813.073 190.625 808.49 Q187.57 803.884 187.57 795.157 Q187.57 786.407 190.625 781.824 Q193.704 777.217 199.514 777.217 Z" fill="#000000" fill-rule="evenodd" fill-opacity="1" /><path clip-path="url(#clip180)" d="M115.927 513.909 L123.566 513.909 L123.566 487.543 L115.256 489.21 L115.256 484.951 L123.519 483.284 L128.195 483.284 L128.195 513.909 L135.834 513.909 L135.834 517.844 L115.927 517.844 L115.927 513.909 Z" fill="#000000" fill-rule="evenodd" fill-opacity="1" /><path clip-path="url(#clip180)" d="M146.089 513.909 L153.728 513.909 L153.728 487.543 L145.417 489.21 L145.417 484.951 L153.681 483.284 L158.357 483.284 L158.357 513.909 L165.996 513.909 L165.996 517.844 L146.089 517.844 L146.089 513.909 Z" fill="#000000" fill-rule="evenodd" fill-opacity="1" /><path clip-path="url(#clip180)" d="M175.44 511.964 L180.325 511.964 L180.325 517.844 L175.44 517.844 L175.44 511.964 Z" fill="#000000" fill-rule="evenodd" fill-opacity="1" /><path clip-path="url(#clip180)" d="M190.556 483.284 L208.912 483.284 L208.912 487.219 L194.838 487.219 L194.838 495.691 Q195.857 495.344 196.875 495.182 Q197.894 494.997 198.912 494.997 Q204.699 494.997 208.079 498.168 Q211.459 501.339 211.459 506.756 Q211.459 512.335 207.987 515.437 Q204.514 518.515 198.195 518.515 Q196.019 518.515 193.75 518.145 Q191.505 517.775 189.098 517.034 L189.098 512.335 Q191.181 513.469 193.403 514.025 Q195.625 514.58 198.102 514.58 Q202.107 514.58 204.445 512.474 Q206.783 510.367 206.783 506.756 Q206.783 503.145 204.445 501.039 Q202.107 498.932 198.102 498.932 Q196.227 498.932 194.352 499.349 Q192.5 499.765 190.556 500.645 L190.556 483.284 Z" fill="#000000" fill-rule="evenodd" fill-opacity="1" /><path clip-path="url(#clip180)" d="M114.931 219.351 L122.57 219.351 L122.57 192.985 L114.26 194.652 L114.26 190.393 L122.524 188.726 L127.2 188.726 L127.2 219.351 L134.839 219.351 L134.839 223.286 L114.931 223.286 L114.931 219.351 Z" fill="#000000" fill-rule="evenodd" fill-opacity="1" /><path clip-path="url(#clip180)" d="M148.311 219.351 L164.63 219.351 L164.63 223.286 L142.686 223.286 L142.686 219.351 Q145.348 216.596 149.931 211.967 Q154.538 207.314 155.718 205.971 Q157.964 203.448 158.843 201.712 Q159.746 199.953 159.746 198.263 Q159.746 195.508 157.802 193.772 Q155.88 192.036 152.778 192.036 Q150.579 192.036 148.126 192.8 Q145.695 193.564 142.917 195.115 L142.917 190.393 Q145.741 189.258 148.195 188.68 Q150.649 188.101 152.686 188.101 Q158.056 188.101 161.251 190.786 Q164.445 193.471 164.445 197.962 Q164.445 200.092 163.635 202.013 Q162.848 203.911 160.741 206.504 Q160.163 207.175 157.061 210.392 Q153.959 213.587 148.311 219.351 Z" fill="#000000" fill-rule="evenodd" fill-opacity="1" /><path clip-path="url(#clip180)" d="M174.445 217.406 L179.329 217.406 L179.329 223.286 L174.445 223.286 L174.445 217.406 Z" fill="#000000" fill-rule="evenodd" fill-opacity="1" /><path clip-path="url(#clip180)" d="M199.514 191.805 Q195.903 191.805 194.075 195.369 Q192.269 198.911 192.269 206.041 Q192.269 213.147 194.075 216.712 Q195.903 220.254 199.514 220.254 Q203.149 220.254 204.954 216.712 Q206.783 213.147 206.783 206.041 Q206.783 198.911 204.954 195.369 Q203.149 191.805 199.514 191.805 M199.514 188.101 Q205.324 188.101 208.38 192.707 Q211.459 197.291 211.459 206.041 Q211.459 214.767 208.38 219.374 Q205.324 223.957 199.514 223.957 Q193.704 223.957 190.625 219.374 Q187.57 214.767 187.57 206.041 Q187.57 197.291 190.625 192.707 Q193.704 188.101 199.514 188.101 Z" fill="#000000" fill-rule="evenodd" fill-opacity="1" /><path clip-path="url(#clip180)" d="M33.8307 992.227 Q33.2578 993.214 33.0032 994.392 Q32.7167 995.538 32.7167 996.938 Q32.7167 1001.9 35.9632 1004.58 Q39.1779 1007.22 45.2253 1007.22 L64.0042 1007.22 L64.0042 1013.11 L28.3562 1013.11 L28.3562 1007.22 L33.8944 1007.22 Q30.6479 1005.37 29.0883 1002.41 Q27.4968 999.452 27.4968 995.219 Q27.4968 994.615 27.5923 993.882 Q27.656 993.15 27.8151 992.259 L33.8307 992.227 Z" fill="#000000" fill-rule="evenodd" fill-opacity="1" /><path clip-path="url(#clip180)" d="M44.7161 957.025 L47.5806 957.025 L47.5806 983.952 Q53.6281 983.57 56.8109 980.324 Q59.9619 977.045 59.9619 971.221 Q59.9619 967.847 59.1344 964.696 Q58.3069 961.513 56.6518 958.394 L62.1899 958.394 Q63.5267 961.545 64.227 964.855 Q64.9272 968.165 64.9272 971.571 Q64.9272 980.101 59.9619 985.098 Q54.9967 990.063 46.5303 990.063 Q37.7774 990.063 32.6531 985.352 Q27.4968 980.61 27.4968 972.589 Q27.4968 965.396 32.1438 961.226 Q36.7589 957.025 44.7161 957.025 M42.9973 962.881 Q38.1912 962.945 35.3266 965.587 Q32.4621 968.197 32.4621 972.526 Q32.4621 977.427 35.2312 980.387 Q38.0002 983.315 43.0292 983.761 L42.9973 962.881 Z" fill="#000000" fill-rule="evenodd" fill-opacity="1" /><path clip-path="url(#clip180)" d="M29.4065 924.687 L34.9447 924.687 Q33.6716 927.17 33.035 929.843 Q32.3984 932.517 32.3984 935.382 Q32.3984 939.742 33.7352 941.938 Q35.072 944.103 37.7456 944.103 Q39.7826 944.103 40.9603 942.543 Q42.1061 940.983 43.1565 936.273 L43.6021 934.268 Q44.9389 928.029 47.3897 925.419 Q49.8086 922.778 54.1691 922.778 Q59.1344 922.778 62.0308 926.724 Q64.9272 930.639 64.9272 937.514 Q64.9272 940.379 64.3543 943.498 Q63.8132 946.585 62.6992 950.023 L56.6518 950.023 Q58.3387 946.776 59.198 943.625 Q60.0256 940.474 60.0256 937.387 Q60.0256 933.249 58.6251 931.021 Q57.1929 928.793 54.6147 928.793 Q52.2276 928.793 50.9545 930.416 Q49.6813 932.008 48.5037 937.45 L48.0262 939.487 Q46.8804 944.93 44.5251 947.349 Q42.138 949.768 38.0002 949.768 Q32.9713 949.768 30.2341 946.203 Q27.4968 942.639 27.4968 936.082 Q27.4968 932.835 27.9743 929.971 Q28.4517 927.106 29.4065 924.687 Z" fill="#000000" fill-rule="evenodd" fill-opacity="1" /><path clip-path="url(#clip180)" d="M44.7161 882.96 L47.5806 882.96 L47.5806 909.887 Q53.6281 909.505 56.8109 906.259 Q59.9619 902.98 59.9619 897.156 Q59.9619 893.782 59.1344 890.631 Q58.3069 887.448 56.6518 884.329 L62.1899 884.329 Q63.5267 887.48 64.227 890.79 Q64.9272 894.1 64.9272 897.506 Q64.9272 906.036 59.9619 911.033 Q54.9967 915.998 46.5303 915.998 Q37.7774 915.998 32.6531 911.287 Q27.4968 906.545 27.4968 898.524 Q27.4968 891.331 32.1438 887.161 Q36.7589 882.96 44.7161 882.96 M42.9973 888.816 Q38.1912 888.88 35.3266 891.522 Q32.4621 894.132 32.4621 898.461 Q32.4621 903.362 35.2312 906.322 Q38.0002 909.25 43.0292 909.696 L42.9973 888.816 Z" fill="#000000" fill-rule="evenodd" fill-opacity="1" /><path clip-path="url(#clip180)" d="M33.8307 852.691 Q33.2578 853.678 33.0032 854.855 Q32.7167 856.001 32.7167 857.402 Q32.7167 862.367 35.9632 865.041 Q39.1779 867.682 45.2253 867.682 L64.0042 867.682 L64.0042 873.571 L28.3562 873.571 L28.3562 867.682 L33.8944 867.682 Q30.6479 865.836 29.0883 862.876 Q27.4968 859.916 27.4968 855.683 Q27.4968 855.078 27.5923 854.346 Q27.656 853.614 27.8151 852.723 L33.8307 852.691 Z" fill="#000000" fill-rule="evenodd" fill-opacity="1" /><path clip-path="url(#clip180)" d="M28.3562 850.75 L28.3562 844.543 L58.275 833.403 L28.3562 822.263 L28.3562 816.056 L64.0042 829.424 L64.0042 837.382 L28.3562 850.75 Z" fill="#000000" fill-rule="evenodd" fill-opacity="1" /><path clip-path="url(#clip180)" d="M46.0847 791.771 Q46.0847 798.869 47.7079 801.606 Q49.3312 804.344 53.2461 804.344 Q56.3653 804.344 58.2114 802.307 Q60.0256 800.238 60.0256 796.705 Q60.0256 791.835 56.5881 788.907 Q53.1188 785.947 47.3897 785.947 L46.0847 785.947 L46.0847 791.771 M43.6657 780.09 L64.0042 780.09 L64.0042 785.947 L58.5933 785.947 Q61.8398 787.952 63.3994 790.944 Q64.9272 793.936 64.9272 798.264 Q64.9272 803.739 61.8716 806.985 Q58.7843 810.2 53.6281 810.2 Q47.6125 810.2 44.5569 806.19 Q41.5014 802.147 41.5014 794.158 L41.5014 785.947 L40.9285 785.947 Q36.8862 785.947 34.6901 788.62 Q32.4621 791.262 32.4621 796.068 Q32.4621 799.124 33.1941 802.02 Q33.9262 804.916 35.3903 807.59 L29.9795 807.59 Q28.7381 804.375 28.1334 801.352 Q27.4968 798.328 27.4968 795.463 Q27.4968 787.729 31.5072 783.91 Q35.5176 780.09 43.6657 780.09 Z" fill="#000000" fill-rule="evenodd" fill-opacity="1" /><path clip-path="url(#clip180)" d="M18.2347 762.234 L28.3562 762.234 L28.3562 750.171 L32.9077 750.171 L32.9077 762.234 L52.2594 762.234 Q56.6199 762.234 57.8613 761.057 Q59.1026 759.847 59.1026 756.187 L59.1026 750.171 L64.0042 750.171 L64.0042 756.187 Q64.0042 762.966 61.4897 765.545 Q58.9434 768.123 52.2594 768.123 L32.9077 768.123 L32.9077 772.42 L28.3562 772.42 L28.3562 768.123 L18.2347 768.123 L18.2347 762.234 Z" fill="#000000" fill-rule="evenodd" fill-opacity="1" /><path clip-path="url(#clip180)" d="M28.3562 742.469 L28.3562 736.612 L64.0042 736.612 L64.0042 742.469 L28.3562 742.469 M14.479 742.469 L14.479 736.612 L21.895 736.612 L21.895 742.469 L14.479 742.469 Z" fill="#000000" fill-rule="evenodd" fill-opacity="1" /><path clip-path="url(#clip180)" d="M32.4621 710.545 Q32.4621 715.255 36.1542 717.993 Q39.8145 720.73 46.212 720.73 Q52.6095 720.73 56.3017 718.025 Q59.9619 715.287 59.9619 710.545 Q59.9619 705.866 56.2698 703.129 Q52.5777 700.392 46.212 700.392 Q39.8781 700.392 36.186 703.129 Q32.4621 705.866 32.4621 710.545 M27.4968 710.545 Q27.4968 702.906 32.4621 698.545 Q37.4273 694.185 46.212 694.185 Q54.9649 694.185 59.9619 698.545 Q64.9272 702.906 64.9272 710.545 Q64.9272 718.216 59.9619 722.576 Q54.9649 726.905 46.212 726.905 Q37.4273 726.905 32.4621 722.576 Q27.4968 718.216 27.4968 710.545 Z" fill="#000000" fill-rule="evenodd" fill-opacity="1" /><path clip-path="url(#clip180)" d="M42.4881 654.845 L64.0042 654.845 L64.0042 660.701 L42.679 660.701 Q37.6183 660.701 35.1038 662.675 Q32.5894 664.648 32.5894 668.595 Q32.5894 673.337 35.6131 676.075 Q38.6368 678.812 43.8567 678.812 L64.0042 678.812 L64.0042 684.7 L28.3562 684.7 L28.3562 678.812 L33.8944 678.812 Q30.6797 676.711 29.0883 673.878 Q27.4968 671.014 27.4968 667.29 Q27.4968 661.147 31.3163 657.996 Q35.1038 654.845 42.4881 654.845 Z" fill="#000000" fill-rule="evenodd" fill-opacity="1" /><path clip-path="url(#clip180)" d="M28.3562 625.849 L28.3562 619.993 L56.1743 612.672 L28.3562 605.383 L28.3562 598.477 L56.1743 591.156 L28.3562 583.867 L28.3562 578.011 L64.0042 587.337 L64.0042 594.243 L34.7856 601.914 L64.0042 609.617 L64.0042 616.523 L28.3562 625.849 Z" fill="#000000" fill-rule="evenodd" fill-opacity="1" /><path clip-path="url(#clip180)" d="M46.0847 552.93 Q46.0847 560.028 47.7079 562.765 Q49.3312 565.502 53.2461 565.502 Q56.3653 565.502 58.2114 563.465 Q60.0256 561.396 60.0256 557.863 Q60.0256 552.994 56.5881 550.065 Q53.1188 547.105 47.3897 547.105 L46.0847 547.105 L46.0847 552.93 M43.6657 541.249 L64.0042 541.249 L64.0042 547.105 L58.5933 547.105 Q61.8398 549.111 63.3994 552.102 Q64.9272 555.094 64.9272 559.423 Q64.9272 564.897 61.8716 568.144 Q58.7843 571.359 53.6281 571.359 Q47.6125 571.359 44.5569 567.348 Q41.5014 563.306 41.5014 555.317 L41.5014 547.105 L40.9285 547.105 Q36.8862 547.105 34.6901 549.779 Q32.4621 552.421 32.4621 557.227 Q32.4621 560.282 33.1941 563.179 Q33.9262 566.075 35.3903 568.749 L29.9795 568.749 Q28.7381 565.534 28.1334 562.51 Q27.4968 559.487 27.4968 556.622 Q27.4968 548.888 31.5072 545.068 Q35.5176 541.249 43.6657 541.249 Z" fill="#000000" fill-rule="evenodd" fill-opacity="1" /><path clip-path="url(#clip180)" d="M45.7664 505.728 Q39.4007 505.728 35.8996 508.37 Q32.3984 510.98 32.3984 515.722 Q32.3984 520.433 35.8996 523.075 Q39.4007 525.685 45.7664 525.685 Q52.1003 525.685 55.6014 523.075 Q59.1026 520.433 59.1026 515.722 Q59.1026 510.98 55.6014 508.37 Q52.1003 505.728 45.7664 505.728 M59.58 499.872 Q68.683 499.872 73.1071 503.914 Q77.5631 507.956 77.5631 516.295 Q77.5631 519.383 77.0857 522.12 Q76.6401 524.857 75.6852 527.435 L69.9879 527.435 Q71.3884 524.857 72.0568 522.343 Q72.7252 519.828 72.7252 517.218 Q72.7252 511.457 69.7015 508.593 Q66.7096 505.728 60.6303 505.728 L57.7339 505.728 Q60.885 507.542 62.4446 510.375 Q64.0042 513.208 64.0042 517.155 Q64.0042 523.711 59.0071 527.722 Q54.01 531.732 45.7664 531.732 Q37.491 531.732 32.4939 527.722 Q27.4968 523.711 27.4968 517.155 Q27.4968 513.208 29.0564 510.375 Q30.616 507.542 33.7671 505.728 L28.3562 505.728 L28.3562 499.872 L59.58 499.872 Z" fill="#000000" fill-rule="evenodd" fill-opacity="1" /><path clip-path="url(#clip180)" d="M44.7161 457.317 L47.5806 457.317 L47.5806 484.244 Q53.6281 483.862 56.8109 480.616 Q59.9619 477.337 59.9619 471.513 Q59.9619 468.139 59.1344 464.988 Q58.3069 461.805 56.6518 458.686 L62.1899 458.686 Q63.5267 461.837 64.227 465.147 Q64.9272 468.457 64.9272 471.863 Q64.9272 480.393 59.9619 485.39 Q54.9967 490.355 46.5303 490.355 Q37.7774 490.355 32.6531 485.644 Q27.4968 480.902 27.4968 472.881 Q27.4968 465.688 32.1438 461.518 Q36.7589 457.317 44.7161 457.317 M42.9973 463.173 Q38.1912 463.237 35.3266 465.879 Q32.4621 468.489 32.4621 472.818 Q32.4621 477.719 35.2312 480.679 Q38.0002 483.607 43.0292 484.053 L42.9973 463.173 Z" fill="#000000" fill-rule="evenodd" fill-opacity="1" /><polyline clip-path="url(#clip183)" style="stroke:#009af9; stroke-linecap:butt; stroke-linejoin:round; stroke-width:8; stroke-opacity:0.7; fill:none" points="
  307.043,1384.24 389.798,1384.24 472.553,1384.24 555.309,1384.24 638.064,1384.24 720.82,1384.24 803.575,1384.24 886.33,1384.24 969.086,1384.24 1051.84,1384.24 
  1134.6,1184.54 1217.35,1084.69 1300.11,984.837 1382.86,884.987 1465.62,785.137 1548.37,685.287 1631.13,585.437 1713.88,485.586 1796.64,485.586 1879.4,385.736 
  1962.15,285.886 2044.91,285.886 2127.66,186.036 2210.42,86.1857 2293.17,86.1857 
  "/>
<path clip-path="url(#clip180)" d="
M1592.57 196.789 L2282.58 196.789 L2282.58 93.1086 L1592.57 93.1086  Z
  " fill="#ffffff" fill-rule="evenodd" fill-opacity="1"/>
<polyline clip-path="url(#clip180)" style="stroke:#000000; stroke-linecap:butt; stroke-linejoin:round; stroke-width:4; stroke-opacity:1; fill:none" points="
  1592.57,196.789 2282.58,196.789 2282.58,93.1086 1592.57,93.1086 1592.57,196.789 
  "/>
<polyline clip-path="url(#clip180)" style="stroke:#009af9; stroke-linecap:butt; stroke-linejoin:round; stroke-width:4; stroke-opacity:0.7; fill:none" points="
  1615.97,144.949 1756.32,144.949 
  "/>
<path clip-path="url(#clip180)" d="
M1779.71 138.594 L1813.71 138.594 L1813.71 136.034 L1779.71 136.034  Z
  " fill="#000000" fill-rule="evenodd" fill-opacity="1"/>
<path clip-path="url(#clip180)" d="M1811.47 149.73 Q1811.47 151.534 1810.49 155.516 Q1809.5 159.498 1808.31 162.215 Q1805.76 168.117 1801.35 168.117 Q1800.81 168.117 1800.28 168.07 Q1799.76 168.023 1798.99 167.813 Q1798.21 167.602 1797.58 167.274 Q1796.95 166.923 1796.32 166.267 Q1795.71 165.611 1795.36 164.744 Q1793.41 168.117 1790.37 168.117 Q1787.42 168.117 1785.47 166.618 Q1783.55 165.119 1783.55 162.051 Q1783.55 160.669 1784.11 158.631 Q1784.68 156.593 1786.25 152.377 Q1787.11 150.199 1787.11 149.004 Q1787.11 148.466 1787 148.114 Q1786.88 147.763 1786.64 147.646 Q1786.43 147.505 1786.29 147.482 Q1786.15 147.435 1785.92 147.435 Q1784.51 147.435 1783.25 148.864 Q1781.98 150.269 1781.07 153.384 Q1780.88 153.97 1780.76 154.11 Q1780.65 154.251 1780.3 154.251 Q1779.71 154.228 1779.71 153.759 Q1779.71 153.572 1779.92 152.846 Q1780.13 152.096 1780.62 150.995 Q1781.14 149.871 1781.84 148.864 Q1782.54 147.833 1783.65 147.107 Q1784.77 146.381 1786.06 146.381 Q1787.79 146.381 1788.89 147.529 Q1789.99 148.676 1789.99 150.316 Q1789.99 150.784 1789.88 151.3 Q1789.76 151.792 1789.64 152.12 Q1789.55 152.424 1789.17 153.384 Q1787.63 157.436 1787.14 159.381 Q1786.67 161.325 1786.67 162.683 Q1786.67 163.128 1786.69 163.479 Q1786.71 163.831 1786.9 164.557 Q1787.11 165.283 1787.49 165.775 Q1787.86 166.243 1788.63 166.641 Q1789.43 167.04 1790.51 167.04 Q1793.2 167.04 1794.94 163.011 Q1794.89 162.777 1794.89 162.168 Q1794.89 160.809 1795.31 158.982 Q1795.43 158.561 1796.11 155.867 Q1796.79 153.15 1797.37 150.784 Q1797.98 148.395 1798.05 148.255 Q1798.28 147.599 1798.8 147.248 Q1799.32 146.896 1799.83 146.896 Q1800.42 146.896 1800.81 147.248 Q1801.21 147.599 1801.21 148.208 Q1801.21 148.325 1801.07 148.864 Q1800.95 149.379 1800.77 150.152 Q1800.58 150.925 1800.49 151.323 L1798.47 159.381 Q1797.96 161.254 1797.96 162.87 Q1797.96 164.908 1798.87 165.986 Q1799.78 167.04 1801.49 167.04 Q1804.7 167.04 1806.76 162.824 Q1807.7 160.997 1808.54 158.139 Q1809.41 155.282 1809.41 154.04 Q1809.41 151.698 1807.68 149.965 Q1807.3 149.637 1807.14 149.379 Q1806.97 149.098 1806.97 148.676 Q1806.97 147.88 1807.72 147.131 Q1808.47 146.381 1809.36 146.381 Q1810.16 146.381 1810.82 147.177 Q1811.47 147.95 1811.47 149.73 Z" fill="#000000" fill-rule="evenodd" fill-opacity="1" /><path clip-path="url(#clip180)" d="M1845.03 154.124 Q1839.87 154.124 1837.88 155.304 Q1835.89 156.485 1835.89 159.332 Q1835.89 161.6 1837.37 162.943 Q1838.87 164.262 1841.44 164.262 Q1844.99 164.262 1847.11 161.762 Q1849.27 159.239 1849.27 155.073 L1849.27 154.124 L1845.03 154.124 M1853.53 152.364 L1853.53 167.156 L1849.27 167.156 L1849.27 163.221 Q1847.81 165.582 1845.63 166.716 Q1843.46 167.827 1840.31 167.827 Q1836.33 167.827 1833.97 165.605 Q1831.63 163.36 1831.63 159.61 Q1831.63 155.235 1834.55 153.013 Q1837.49 150.79 1843.3 150.79 L1849.27 150.79 L1849.27 150.374 Q1849.27 147.434 1847.32 145.837 Q1845.4 144.216 1841.91 144.216 Q1839.68 144.216 1837.58 144.749 Q1835.47 145.281 1833.53 146.346 L1833.53 142.411 Q1835.86 141.508 1838.06 141.068 Q1840.26 140.605 1842.35 140.605 Q1847.97 140.605 1850.75 143.522 Q1853.53 146.439 1853.53 152.364 Z" fill="#000000" fill-rule="evenodd" fill-opacity="1" /><path clip-path="url(#clip180)" d="M1878.83 141.994 L1878.83 146.022 Q1877.02 145.096 1875.08 144.633 Q1873.13 144.17 1871.05 144.17 Q1867.88 144.17 1866.28 145.142 Q1864.71 146.114 1864.71 148.059 Q1864.71 149.54 1865.84 150.397 Q1866.98 151.23 1870.4 151.994 L1871.86 152.318 Q1876.4 153.29 1878.3 155.073 Q1880.22 156.832 1880.22 160.003 Q1880.22 163.614 1877.35 165.721 Q1874.5 167.827 1869.5 167.827 Q1867.42 167.827 1865.15 167.411 Q1862.9 167.017 1860.4 166.207 L1860.4 161.809 Q1862.76 163.036 1865.05 163.661 Q1867.35 164.262 1869.59 164.262 Q1872.6 164.262 1874.22 163.244 Q1875.84 162.202 1875.84 160.327 Q1875.84 158.591 1874.66 157.665 Q1873.5 156.739 1869.55 155.883 L1868.06 155.536 Q1864.11 154.702 1862.35 152.989 Q1860.59 151.253 1860.59 148.244 Q1860.59 144.587 1863.18 142.596 Q1865.77 140.605 1870.54 140.605 Q1872.9 140.605 1874.98 140.952 Q1877.07 141.3 1878.83 141.994 Z" fill="#000000" fill-rule="evenodd" fill-opacity="1" /><path clip-path="url(#clip180)" d="M1913.85 154.124 Q1908.69 154.124 1906.7 155.304 Q1904.71 156.485 1904.71 159.332 Q1904.71 161.6 1906.19 162.943 Q1907.69 164.262 1910.26 164.262 Q1913.8 164.262 1915.93 161.762 Q1918.09 159.239 1918.09 155.073 L1918.09 154.124 L1913.85 154.124 M1922.35 152.364 L1922.35 167.156 L1918.09 167.156 L1918.09 163.221 Q1916.63 165.582 1914.45 166.716 Q1912.28 167.827 1909.13 167.827 Q1905.15 167.827 1902.79 165.605 Q1900.45 163.36 1900.45 159.61 Q1900.45 155.235 1903.36 153.013 Q1906.3 150.79 1912.11 150.79 L1918.09 150.79 L1918.09 150.374 Q1918.09 147.434 1916.14 145.837 Q1914.22 144.216 1910.73 144.216 Q1908.5 144.216 1906.4 144.749 Q1904.29 145.281 1902.35 146.346 L1902.35 142.411 Q1904.68 141.508 1906.88 141.068 Q1909.08 140.605 1911.17 140.605 Q1916.79 140.605 1919.57 143.522 Q1922.35 146.439 1922.35 152.364 Z" fill="#000000" fill-rule="evenodd" fill-opacity="1" /><path clip-path="url(#clip180)" d="M1959.31 131.138 L1959.31 134.679 L1955.24 134.679 Q1952.95 134.679 1952.04 135.605 Q1951.17 136.531 1951.17 138.939 L1951.17 141.23 L1958.18 141.23 L1958.18 144.54 L1951.17 144.54 L1951.17 167.156 L1946.88 167.156 L1946.88 144.54 L1942.81 144.54 L1942.81 141.23 L1946.88 141.23 L1946.88 139.425 Q1946.88 135.096 1948.9 133.128 Q1950.91 131.138 1955.29 131.138 L1959.31 131.138 Z" fill="#000000" fill-rule="evenodd" fill-opacity="1" /><path clip-path="url(#clip180)" d="M1962.44 156.925 L1962.44 141.23 L1966.7 141.23 L1966.7 156.763 Q1966.7 160.443 1968.13 162.295 Q1969.57 164.124 1972.44 164.124 Q1975.89 164.124 1977.88 161.925 Q1979.89 159.725 1979.89 155.929 L1979.89 141.23 L1984.15 141.23 L1984.15 167.156 L1979.89 167.156 L1979.89 163.175 Q1978.34 165.536 1976.28 166.693 Q1974.24 167.827 1971.54 167.827 Q1967.07 167.827 1964.75 165.05 Q1962.44 162.272 1962.44 156.925 M1973.16 140.605 L1973.16 140.605 Z" fill="#000000" fill-rule="evenodd" fill-opacity="1" /><path clip-path="url(#clip180)" d="M2014.47 151.508 L2014.47 167.156 L2010.22 167.156 L2010.22 151.647 Q2010.22 147.966 2008.78 146.138 Q2007.35 144.309 2004.47 144.309 Q2001.03 144.309 1999.04 146.508 Q1997.04 148.707 1997.04 152.503 L1997.04 167.156 L1992.76 167.156 L1992.76 141.23 L1997.04 141.23 L1997.04 145.258 Q1998.57 142.92 2000.63 141.763 Q2002.72 140.605 2005.42 140.605 Q2009.89 140.605 2012.18 143.383 Q2014.47 146.138 2014.47 151.508 Z" fill="#000000" fill-rule="evenodd" fill-opacity="1" /><path clip-path="url(#clip180)" d="M2041.63 142.226 L2041.63 146.207 Q2039.82 145.212 2037.99 144.726 Q2036.19 144.216 2034.34 144.216 Q2030.19 144.216 2027.9 146.855 Q2025.61 149.471 2025.61 154.216 Q2025.61 158.962 2027.9 161.6 Q2030.19 164.216 2034.34 164.216 Q2036.19 164.216 2037.99 163.73 Q2039.82 163.221 2041.63 162.225 L2041.63 166.161 Q2039.85 166.994 2037.92 167.411 Q2036.03 167.827 2033.87 167.827 Q2028.02 167.827 2024.57 164.147 Q2021.12 160.466 2021.12 154.216 Q2021.12 147.874 2024.59 144.239 Q2028.09 140.605 2034.15 140.605 Q2036.12 140.605 2037.99 141.022 Q2039.87 141.415 2041.63 142.226 Z" fill="#000000" fill-rule="evenodd" fill-opacity="1" /><path clip-path="url(#clip180)" d="M2053.25 133.869 L2053.25 141.23 L2062.02 141.23 L2062.02 144.54 L2053.25 144.54 L2053.25 158.614 Q2053.25 161.786 2054.1 162.688 Q2054.98 163.591 2057.65 163.591 L2062.02 163.591 L2062.02 167.156 L2057.65 167.156 Q2052.72 167.156 2050.84 165.327 Q2048.97 163.475 2048.97 158.614 L2048.97 144.54 L2045.84 144.54 L2045.84 141.23 L2048.97 141.23 L2048.97 133.869 L2053.25 133.869 Z" fill="#000000" fill-rule="evenodd" fill-opacity="1" /><path clip-path="url(#clip180)" d="M2067.62 141.23 L2071.88 141.23 L2071.88 167.156 L2067.62 167.156 L2067.62 141.23 M2067.62 131.138 L2071.88 131.138 L2071.88 136.531 L2067.62 136.531 L2067.62 131.138 Z" fill="#000000" fill-rule="evenodd" fill-opacity="1" /><path clip-path="url(#clip180)" d="M2090.84 144.216 Q2087.41 144.216 2085.42 146.901 Q2083.43 149.563 2083.43 154.216 Q2083.43 158.869 2085.4 161.554 Q2087.39 164.216 2090.84 164.216 Q2094.24 164.216 2096.23 161.531 Q2098.22 158.846 2098.22 154.216 Q2098.22 149.61 2096.23 146.925 Q2094.24 144.216 2090.84 144.216 M2090.84 140.605 Q2096.4 140.605 2099.57 144.216 Q2102.74 147.827 2102.74 154.216 Q2102.74 160.582 2099.57 164.216 Q2096.4 167.827 2090.84 167.827 Q2085.26 167.827 2082.09 164.216 Q2078.94 160.582 2078.94 154.216 Q2078.94 147.827 2082.09 144.216 Q2085.26 140.605 2090.84 140.605 Z" fill="#000000" fill-rule="evenodd" fill-opacity="1" /><path clip-path="url(#clip180)" d="M2131.35 151.508 L2131.35 167.156 L2127.09 167.156 L2127.09 151.647 Q2127.09 147.966 2125.65 146.138 Q2124.22 144.309 2121.35 144.309 Q2117.9 144.309 2115.91 146.508 Q2113.92 148.707 2113.92 152.503 L2113.92 167.156 L2109.64 167.156 L2109.64 141.23 L2113.92 141.23 L2113.92 145.258 Q2115.45 142.92 2117.51 141.763 Q2119.59 140.605 2122.3 140.605 Q2126.77 140.605 2129.06 143.383 Q2131.35 146.138 2131.35 151.508 Z" fill="#000000" fill-rule="evenodd" fill-opacity="1" /><path clip-path="url(#clip180)" d="M2164.96 144.216 Q2161.53 144.216 2159.54 146.901 Q2157.55 149.563 2157.55 154.216 Q2157.55 158.869 2159.52 161.554 Q2161.51 164.216 2164.96 164.216 Q2168.36 164.216 2170.35 161.531 Q2172.34 158.846 2172.34 154.216 Q2172.34 149.61 2170.35 146.925 Q2168.36 144.216 2164.96 144.216 M2164.96 140.605 Q2170.52 140.605 2173.69 144.216 Q2176.86 147.827 2176.86 154.216 Q2176.86 160.582 2173.69 164.216 Q2170.52 167.827 2164.96 167.827 Q2159.38 167.827 2156.21 164.216 Q2153.06 160.582 2153.06 154.216 Q2153.06 147.827 2156.21 144.216 Q2159.38 140.605 2164.96 140.605 Z" fill="#000000" fill-rule="evenodd" fill-opacity="1" /><path clip-path="url(#clip180)" d="M2197.04 131.138 L2197.04 134.679 L2192.97 134.679 Q2190.68 134.679 2189.77 135.605 Q2188.9 136.531 2188.9 138.939 L2188.9 141.23 L2195.91 141.23 L2195.91 144.54 L2188.9 144.54 L2188.9 167.156 L2184.61 167.156 L2184.61 144.54 L2180.54 144.54 L2180.54 141.23 L2184.61 141.23 L2184.61 139.425 Q2184.61 135.096 2186.63 133.128 Q2188.64 131.138 2193.02 131.138 L2197.04 131.138 Z" fill="#000000" fill-rule="evenodd" fill-opacity="1" /><path clip-path="url(#clip180)" d="M2236.39 137.061 Q2236.39 137.248 2235.48 138.888 Q2233.95 141.91 2232.01 146.524 Q2230.07 151.138 2228.96 154.558 Q2228.73 155.377 2228.57 156.431 Q2228.14 159.664 2226.79 164.676 Q2226.32 166.245 2226.01 166.901 Q2225.71 167.557 2225.26 167.557 Q2224.63 167.557 2224.63 166.69 Q2224.63 165.824 2225.43 162.592 Q2226.25 159.359 2227.14 156.385 Q2227.7 154.745 2227.7 151.677 Q2227.7 150.693 2227.65 149.803 Q2227.61 148.913 2227.42 147.625 Q2227.23 146.336 2226.93 145.282 Q2226.62 144.228 2226.04 143.128 Q2225.45 142.003 2224.65 141.254 Q2223.86 140.481 2222.64 139.989 Q2221.45 139.497 2219.95 139.497 Q2219.57 139.497 2219.1 139.544 Q2218.66 139.567 2217.58 139.872 Q2216.53 140.176 2215.64 140.715 Q2214.75 141.23 2213.79 142.378 Q2212.83 143.526 2212.31 145.072 L2212.12 145.306 Q2211.82 145.306 2211.66 145.306 Q2211.51 145.282 2211.35 145.165 Q2211.21 145.048 2211.21 144.837 Q2211.21 144.345 2211.58 143.362 Q2211.98 142.378 2212.78 141.113 Q2213.6 139.848 2214.65 138.724 Q2215.73 137.6 2217.3 136.827 Q2218.87 136.054 2220.56 136.054 Q2224.89 136.054 2226.95 141.324 Q2228.75 145.798 2228.92 151.115 Q2232.66 141.675 2235.24 136.921 Q2235.38 136.569 2235.8 136.569 Q2236.39 136.593 2236.39 137.061 Z" fill="#000000" fill-rule="evenodd" fill-opacity="1" /></svg>
