<?xml version="1.0" encoding="utf-8"?>
<svg xmlns="http://www.w3.org/2000/svg" xmlns:xlink="http://www.w3.org/1999/xlink" width="600" height="400" viewBox="0 0 2400 1600">
<defs>
  <clipPath id="clip860">
    <rect x="0" y="0" width="2400" height="1600"/>
  </clipPath>
</defs>
<path clip-path="url(#clip860)" d="
M0 1600 L2400 1600 L2400 0 L0 0  Z
  " fill="#ffffff" fill-rule="evenodd" fill-opacity="1"/>
<defs>
  <clipPath id="clip861">
    <rect x="480" y="0" width="1681" height="1600"/>
  </clipPath>
</defs>
<defs>
  <clipPath id="clip862">
    <rect x="156" y="134" width="2198" height="1353"/>
  </clipPath>
</defs>
<path clip-path="url(#clip860)" d="
M172.015 1486.45 L2352.76 1486.45 L2352.76 123.472 L172.015 123.472  Z
  " fill="#ffffff" fill-rule="evenodd" fill-opacity="1"/>
<defs>
  <clipPath id="clip863">
    <rect x="172" y="123" width="2182" height="1364"/>
  </clipPath>
</defs>
<polyline clip-path="url(#clip863)" style="stroke:#000000; stroke-linecap:round; stroke-linejoin:round; stroke-width:2; stroke-opacity:0.1; fill:none" points="
  291.959,1486.45 291.959,123.472 
  "/>
<polyline clip-path="url(#clip863)" style="stroke:#000000; stroke-linecap:round; stroke-linejoin:round; stroke-width:2; stroke-opacity:0.1; fill:none" points="
  862.798,1486.45 862.798,123.472 
  "/>
<polyline clip-path="url(#clip863)" style="stroke:#000000; stroke-linecap:round; stroke-linejoin:round; stroke-width:2; stroke-opacity:0.1; fill:none" points="
  1433.64,1486.45 1433.64,123.472 
  "/>
<polyline clip-path="url(#clip863)" style="stroke:#000000; stroke-linecap:round; stroke-linejoin:round; stroke-width:2; stroke-opacity:0.1; fill:none" points="
  2004.48,1486.45 2004.48,123.472 
  "/>
<polyline clip-path="url(#clip860)" style="stroke:#000000; stroke-linecap:round; stroke-linejoin:round; stroke-width:4; stroke-opacity:1; fill:none" points="
  172.015,1486.45 2352.76,1486.45 
  "/>
<polyline clip-path="url(#clip860)" style="stroke:#000000; stroke-linecap:round; stroke-linejoin:round; stroke-width:4; stroke-opacity:1; fill:none" points="
  291.959,1486.45 291.959,1467.55 
  "/>
<polyline clip-path="url(#clip860)" style="stroke:#000000; stroke-linecap:round; stroke-linejoin:round; stroke-width:4; stroke-opacity:1; fill:none" points="
  862.798,1486.45 862.798,1467.55 
  "/>
<polyline clip-path="url(#clip860)" style="stroke:#000000; stroke-linecap:round; stroke-linejoin:round; stroke-width:4; stroke-opacity:1; fill:none" points="
  1433.64,1486.45 1433.64,1467.55 
  "/>
<polyline clip-path="url(#clip860)" style="stroke:#000000; stroke-linecap:round; stroke-linejoin:round; stroke-width:4; stroke-opacity:1; fill:none" points="
  2004.48,1486.45 2004.48,1467.55 
  "/>
<path clip-path="url(#clip860)" d="M239.101 1532.02 L268.777 1532.02 L268.777 1535.95 L239.101 1535.95 L239.101 1532.02 Z" fill="#000000" fill-rule="evenodd" fill-opacity="1" /><path clip-path="url(#clip860)" d="M288.869 1517.37 Q285.258 1517.37 283.429 1520.93 Q281.624 1524.47 281.624 1531.6 Q281.624 1538.71 283.429 1542.27 Q285.258 1545.82 288.869 1545.82 Q292.503 1545.82 294.309 1542.27 Q296.138 1538.71 296.138 1531.6 Q296.138 1524.47 294.309 1520.93 Q292.503 1517.37 288.869 1517.37 M288.869 1513.66 Q294.679 1513.66 297.735 1518.27 Q300.814 1522.85 300.814 1531.6 Q300.814 1540.33 297.735 1544.94 Q294.679 1549.52 288.869 1549.52 Q283.059 1549.52 279.98 1544.94 Q276.925 1540.33 276.925 1531.6 Q276.925 1522.85 279.98 1518.27 Q283.059 1513.66 288.869 1513.66 Z" fill="#000000" fill-rule="evenodd" fill-opacity="1" /><path clip-path="url(#clip860)" d="M309.031 1542.97 L313.915 1542.97 L313.915 1548.85 L309.031 1548.85 L309.031 1542.97 Z" fill="#000000" fill-rule="evenodd" fill-opacity="1" /><path clip-path="url(#clip860)" d="M324.911 1544.91 L332.55 1544.91 L332.55 1518.55 L324.239 1520.21 L324.239 1515.95 L332.503 1514.29 L337.179 1514.29 L337.179 1544.91 L344.818 1544.91 L344.818 1548.85 L324.911 1548.85 L324.911 1544.91 Z" fill="#000000" fill-rule="evenodd" fill-opacity="1" /><path clip-path="url(#clip860)" d="M840.183 1517.37 Q836.572 1517.37 834.743 1520.93 Q832.937 1524.47 832.937 1531.6 Q832.937 1538.71 834.743 1542.27 Q836.572 1545.82 840.183 1545.82 Q843.817 1545.82 845.622 1542.27 Q847.451 1538.71 847.451 1531.6 Q847.451 1524.47 845.622 1520.93 Q843.817 1517.37 840.183 1517.37 M840.183 1513.66 Q845.993 1513.66 849.048 1518.27 Q852.127 1522.85 852.127 1531.6 Q852.127 1540.33 849.048 1544.94 Q845.993 1549.52 840.183 1549.52 Q834.372 1549.52 831.294 1544.94 Q828.238 1540.33 828.238 1531.6 Q828.238 1522.85 831.294 1518.27 Q834.372 1513.66 840.183 1513.66 Z" fill="#000000" fill-rule="evenodd" fill-opacity="1" /><path clip-path="url(#clip860)" d="M860.345 1542.97 L865.229 1542.97 L865.229 1548.85 L860.345 1548.85 L860.345 1542.97 Z" fill="#000000" fill-rule="evenodd" fill-opacity="1" /><path clip-path="url(#clip860)" d="M885.414 1517.37 Q881.803 1517.37 879.974 1520.93 Q878.169 1524.47 878.169 1531.6 Q878.169 1538.71 879.974 1542.27 Q881.803 1545.82 885.414 1545.82 Q889.048 1545.82 890.854 1542.27 Q892.682 1538.71 892.682 1531.6 Q892.682 1524.47 890.854 1520.93 Q889.048 1517.37 885.414 1517.37 M885.414 1513.66 Q891.224 1513.66 894.28 1518.27 Q897.358 1522.85 897.358 1531.6 Q897.358 1540.33 894.28 1544.94 Q891.224 1549.52 885.414 1549.52 Q879.604 1549.52 876.525 1544.94 Q873.469 1540.33 873.469 1531.6 Q873.469 1522.85 876.525 1518.27 Q879.604 1513.66 885.414 1513.66 Z" fill="#000000" fill-rule="evenodd" fill-opacity="1" /><path clip-path="url(#clip860)" d="M1411.63 1517.37 Q1408.02 1517.37 1406.2 1520.93 Q1404.39 1524.47 1404.39 1531.6 Q1404.39 1538.71 1406.2 1542.27 Q1408.02 1545.82 1411.63 1545.82 Q1415.27 1545.82 1417.07 1542.27 Q1418.9 1538.71 1418.9 1531.6 Q1418.9 1524.47 1417.07 1520.93 Q1415.27 1517.37 1411.63 1517.37 M1411.63 1513.66 Q1417.44 1513.66 1420.5 1518.27 Q1423.58 1522.85 1423.58 1531.6 Q1423.58 1540.33 1420.5 1544.94 Q1417.44 1549.52 1411.63 1549.52 Q1405.82 1549.52 1402.75 1544.94 Q1399.69 1540.33 1399.69 1531.6 Q1399.69 1522.85 1402.75 1518.27 Q1405.82 1513.66 1411.63 1513.66 Z" fill="#000000" fill-rule="evenodd" fill-opacity="1" /><path clip-path="url(#clip860)" d="M1431.8 1542.97 L1436.68 1542.97 L1436.68 1548.85 L1431.8 1548.85 L1431.8 1542.97 Z" fill="#000000" fill-rule="evenodd" fill-opacity="1" /><path clip-path="url(#clip860)" d="M1447.68 1544.91 L1455.32 1544.91 L1455.32 1518.55 L1447 1520.21 L1447 1515.95 L1455.27 1514.29 L1459.94 1514.29 L1459.94 1544.91 L1467.58 1544.91 L1467.58 1548.85 L1447.68 1548.85 L1447.68 1544.91 Z" fill="#000000" fill-rule="evenodd" fill-opacity="1" /><path clip-path="url(#clip860)" d="M1982.66 1517.37 Q1979.05 1517.37 1977.22 1520.93 Q1975.41 1524.47 1975.41 1531.6 Q1975.41 1538.71 1977.22 1542.27 Q1979.05 1545.82 1982.66 1545.82 Q1986.29 1545.82 1988.1 1542.27 Q1989.93 1538.71 1989.93 1531.6 Q1989.93 1524.47 1988.1 1520.93 Q1986.29 1517.37 1982.66 1517.37 M1982.66 1513.66 Q1988.47 1513.66 1991.52 1518.27 Q1994.6 1522.85 1994.6 1531.6 Q1994.6 1540.33 1991.52 1544.94 Q1988.47 1549.52 1982.66 1549.52 Q1976.85 1549.52 1973.77 1544.94 Q1970.71 1540.33 1970.71 1531.6 Q1970.71 1522.85 1973.77 1518.27 Q1976.85 1513.66 1982.66 1513.66 Z" fill="#000000" fill-rule="evenodd" fill-opacity="1" /><path clip-path="url(#clip860)" d="M2002.82 1542.97 L2007.7 1542.97 L2007.7 1548.85 L2002.82 1548.85 L2002.82 1542.97 Z" fill="#000000" fill-rule="evenodd" fill-opacity="1" /><path clip-path="url(#clip860)" d="M2021.92 1544.91 L2038.24 1544.91 L2038.24 1548.85 L2016.29 1548.85 L2016.29 1544.91 Q2018.95 1542.16 2023.54 1537.53 Q2028.14 1532.88 2029.33 1531.53 Q2031.57 1529.01 2032.45 1527.27 Q2033.35 1525.51 2033.35 1523.82 Q2033.35 1521.07 2031.41 1519.33 Q2029.49 1517.6 2026.39 1517.6 Q2024.19 1517.6 2021.73 1518.36 Q2019.3 1519.13 2016.52 1520.68 L2016.52 1515.95 Q2019.35 1514.82 2021.8 1514.24 Q2024.26 1513.66 2026.29 1513.66 Q2031.66 1513.66 2034.86 1516.35 Q2038.05 1519.03 2038.05 1523.52 Q2038.05 1525.65 2037.24 1527.57 Q2036.45 1529.47 2034.35 1532.07 Q2033.77 1532.74 2030.67 1535.95 Q2027.57 1539.15 2021.92 1544.91 Z" fill="#000000" fill-rule="evenodd" fill-opacity="1" /><polyline clip-path="url(#clip863)" style="stroke:#000000; stroke-linecap:round; stroke-linejoin:round; stroke-width:2; stroke-opacity:0.1; fill:none" points="
  172.015,1447.87 2352.76,1447.87 
  "/>
<polyline clip-path="url(#clip863)" style="stroke:#000000; stroke-linecap:round; stroke-linejoin:round; stroke-width:2; stroke-opacity:0.1; fill:none" points="
  172.015,1165.27 2352.76,1165.27 
  "/>
<polyline clip-path="url(#clip863)" style="stroke:#000000; stroke-linecap:round; stroke-linejoin:round; stroke-width:2; stroke-opacity:0.1; fill:none" points="
  172.015,882.675 2352.76,882.675 
  "/>
<polyline clip-path="url(#clip863)" style="stroke:#000000; stroke-linecap:round; stroke-linejoin:round; stroke-width:2; stroke-opacity:0.1; fill:none" points="
  172.015,600.076 2352.76,600.076 
  "/>
<polyline clip-path="url(#clip863)" style="stroke:#000000; stroke-linecap:round; stroke-linejoin:round; stroke-width:2; stroke-opacity:0.1; fill:none" points="
  172.015,317.476 2352.76,317.476 
  "/>
<polyline clip-path="url(#clip860)" style="stroke:#000000; stroke-linecap:round; stroke-linejoin:round; stroke-width:4; stroke-opacity:1; fill:none" points="
  172.015,1486.45 172.015,123.472 
  "/>
<polyline clip-path="url(#clip860)" style="stroke:#000000; stroke-linecap:round; stroke-linejoin:round; stroke-width:4; stroke-opacity:1; fill:none" points="
  172.015,1447.87 190.912,1447.87 
  "/>
<polyline clip-path="url(#clip860)" style="stroke:#000000; stroke-linecap:round; stroke-linejoin:round; stroke-width:4; stroke-opacity:1; fill:none" points="
  172.015,1165.27 190.912,1165.27 
  "/>
<polyline clip-path="url(#clip860)" style="stroke:#000000; stroke-linecap:round; stroke-linejoin:round; stroke-width:4; stroke-opacity:1; fill:none" points="
  172.015,882.675 190.912,882.675 
  "/>
<polyline clip-path="url(#clip860)" style="stroke:#000000; stroke-linecap:round; stroke-linejoin:round; stroke-width:4; stroke-opacity:1; fill:none" points="
  172.015,600.076 190.912,600.076 
  "/>
<polyline clip-path="url(#clip860)" style="stroke:#000000; stroke-linecap:round; stroke-linejoin:round; stroke-width:4; stroke-opacity:1; fill:none" points="
  172.015,317.476 190.912,317.476 
  "/>
<path clip-path="url(#clip860)" d="M124.07 1433.67 Q120.459 1433.67 118.631 1437.24 Q116.825 1440.78 116.825 1447.91 Q116.825 1455.01 118.631 1458.58 Q120.459 1462.12 124.07 1462.12 Q127.705 1462.12 129.51 1458.58 Q131.339 1455.01 131.339 1447.91 Q131.339 1440.78 129.51 1437.24 Q127.705 1433.67 124.07 1433.67 M124.07 1429.97 Q129.881 1429.97 132.936 1434.57 Q136.015 1439.16 136.015 1447.91 Q136.015 1456.63 132.936 1461.24 Q129.881 1465.82 124.07 1465.82 Q118.26 1465.82 115.182 1461.24 Q112.126 1456.63 112.126 1447.91 Q112.126 1439.16 115.182 1434.57 Q118.26 1429.97 124.07 1429.97 Z" fill="#000000" fill-rule="evenodd" fill-opacity="1" /><path clip-path="url(#clip860)" d="M54.5569 1178.62 L62.1958 1178.62 L62.1958 1152.25 L53.8856 1153.92 L53.8856 1149.66 L62.1495 1147.99 L66.8254 1147.99 L66.8254 1178.62 L74.4642 1178.62 L74.4642 1182.55 L54.5569 1182.55 L54.5569 1178.62 Z" fill="#000000" fill-rule="evenodd" fill-opacity="1" /><path clip-path="url(#clip860)" d="M93.9086 1151.07 Q90.2975 1151.07 88.4688 1154.64 Q86.6632 1158.18 86.6632 1165.31 Q86.6632 1172.42 88.4688 1175.98 Q90.2975 1179.52 93.9086 1179.52 Q97.5428 1179.52 99.3483 1175.98 Q101.177 1172.42 101.177 1165.31 Q101.177 1158.18 99.3483 1154.64 Q97.5428 1151.07 93.9086 1151.07 M93.9086 1147.37 Q99.7187 1147.37 102.774 1151.98 Q105.853 1156.56 105.853 1165.31 Q105.853 1174.04 102.774 1178.64 Q99.7187 1183.23 93.9086 1183.23 Q88.0984 1183.23 85.0197 1178.64 Q81.9642 1174.04 81.9642 1165.31 Q81.9642 1156.56 85.0197 1151.98 Q88.0984 1147.37 93.9086 1147.37 Z" fill="#000000" fill-rule="evenodd" fill-opacity="1" /><path clip-path="url(#clip860)" d="M124.07 1151.07 Q120.459 1151.07 118.631 1154.64 Q116.825 1158.18 116.825 1165.31 Q116.825 1172.42 118.631 1175.98 Q120.459 1179.52 124.07 1179.52 Q127.705 1179.52 129.51 1175.98 Q131.339 1172.42 131.339 1165.31 Q131.339 1158.18 129.51 1154.64 Q127.705 1151.07 124.07 1151.07 M124.07 1147.37 Q129.881 1147.37 132.936 1151.98 Q136.015 1156.56 136.015 1165.31 Q136.015 1174.04 132.936 1178.64 Q129.881 1183.23 124.07 1183.23 Q118.26 1183.23 115.182 1178.64 Q112.126 1174.04 112.126 1165.31 Q112.126 1156.56 115.182 1151.98 Q118.26 1147.37 124.07 1147.37 Z" fill="#000000" fill-rule="evenodd" fill-opacity="1" /><path clip-path="url(#clip860)" d="M57.7745 896.02 L74.0939 896.02 L74.0939 899.955 L52.1495 899.955 L52.1495 896.02 Q54.8115 893.265 59.3949 888.635 Q64.0013 883.983 65.1819 882.64 Q67.4272 880.117 68.3068 878.381 Q69.2096 876.622 69.2096 874.932 Q69.2096 872.177 67.2652 870.441 Q65.3439 868.705 62.2421 868.705 Q60.043 868.705 57.5893 869.469 Q55.1588 870.233 52.381 871.784 L52.381 867.061 Q55.2051 865.927 57.6588 865.348 Q60.1124 864.77 62.1495 864.77 Q67.5198 864.77 70.7142 867.455 Q73.9087 870.14 73.9087 874.631 Q73.9087 876.76 73.0985 878.682 Q72.3115 880.58 70.205 883.172 Q69.6263 883.844 66.5245 887.061 Q63.4226 890.256 57.7745 896.02 Z" fill="#000000" fill-rule="evenodd" fill-opacity="1" /><path clip-path="url(#clip860)" d="M93.9086 868.473 Q90.2975 868.473 88.4688 872.038 Q86.6632 875.58 86.6632 882.709 Q86.6632 889.816 88.4688 893.381 Q90.2975 896.922 93.9086 896.922 Q97.5428 896.922 99.3483 893.381 Q101.177 889.816 101.177 882.709 Q101.177 875.58 99.3483 872.038 Q97.5428 868.473 93.9086 868.473 M93.9086 864.77 Q99.7187 864.77 102.774 869.376 Q105.853 873.96 105.853 882.709 Q105.853 891.436 102.774 896.043 Q99.7187 900.626 93.9086 900.626 Q88.0984 900.626 85.0197 896.043 Q81.9642 891.436 81.9642 882.709 Q81.9642 873.96 85.0197 869.376 Q88.0984 864.77 93.9086 864.77 Z" fill="#000000" fill-rule="evenodd" fill-opacity="1" /><path clip-path="url(#clip860)" d="M124.07 868.473 Q120.459 868.473 118.631 872.038 Q116.825 875.58 116.825 882.709 Q116.825 889.816 118.631 893.381 Q120.459 896.922 124.07 896.922 Q127.705 896.922 129.51 893.381 Q131.339 889.816 131.339 882.709 Q131.339 875.58 129.51 872.038 Q127.705 868.473 124.07 868.473 M124.07 864.77 Q129.881 864.77 132.936 869.376 Q136.015 873.96 136.015 882.709 Q136.015 891.436 132.936 896.043 Q129.881 900.626 124.07 900.626 Q118.26 900.626 115.182 896.043 Q112.126 891.436 112.126 882.709 Q112.126 873.96 115.182 869.376 Q118.26 864.77 124.07 864.77 Z" fill="#000000" fill-rule="evenodd" fill-opacity="1" /><path clip-path="url(#clip860)" d="M67.9133 598.721 Q71.2698 599.439 73.1448 601.708 Q75.0429 603.976 75.0429 607.309 Q75.0429 612.425 71.5244 615.226 Q68.0059 618.027 61.5245 618.027 Q59.3486 618.027 57.0338 617.587 Q54.7421 617.17 52.2884 616.314 L52.2884 611.8 Q54.2328 612.934 56.5477 613.513 Q58.8625 614.092 61.3856 614.092 Q65.7837 614.092 68.0754 612.356 Q70.3902 610.62 70.3902 607.309 Q70.3902 604.254 68.2374 602.541 Q66.1078 600.805 62.2884 600.805 L58.2606 600.805 L58.2606 596.962 L62.4735 596.962 Q65.9226 596.962 67.7513 595.596 Q69.58 594.208 69.58 591.615 Q69.58 588.953 67.6819 587.541 Q65.8069 586.106 62.2884 586.106 Q60.3671 586.106 58.168 586.522 Q55.969 586.939 53.3301 587.819 L53.3301 583.652 Q55.9921 582.911 58.3069 582.541 Q60.6449 582.171 62.705 582.171 Q68.0291 582.171 71.1309 584.601 Q74.2327 587.009 74.2327 591.129 Q74.2327 593.999 72.5892 595.99 Q70.9457 597.958 67.9133 598.721 Z" fill="#000000" fill-rule="evenodd" fill-opacity="1" /><path clip-path="url(#clip860)" d="M93.9086 585.874 Q90.2975 585.874 88.4688 589.439 Q86.6632 592.981 86.6632 600.11 Q86.6632 607.217 88.4688 610.782 Q90.2975 614.323 93.9086 614.323 Q97.5428 614.323 99.3483 610.782 Q101.177 607.217 101.177 600.11 Q101.177 592.981 99.3483 589.439 Q97.5428 585.874 93.9086 585.874 M93.9086 582.171 Q99.7187 582.171 102.774 586.777 Q105.853 591.36 105.853 600.11 Q105.853 608.837 102.774 613.444 Q99.7187 618.027 93.9086 618.027 Q88.0984 618.027 85.0197 613.444 Q81.9642 608.837 81.9642 600.11 Q81.9642 591.36 85.0197 586.777 Q88.0984 582.171 93.9086 582.171 Z" fill="#000000" fill-rule="evenodd" fill-opacity="1" /><path clip-path="url(#clip860)" d="M124.07 585.874 Q120.459 585.874 118.631 589.439 Q116.825 592.981 116.825 600.11 Q116.825 607.217 118.631 610.782 Q120.459 614.323 124.07 614.323 Q127.705 614.323 129.51 610.782 Q131.339 607.217 131.339 600.11 Q131.339 592.981 129.51 589.439 Q127.705 585.874 124.07 585.874 M124.07 582.171 Q129.881 582.171 132.936 586.777 Q136.015 591.36 136.015 600.11 Q136.015 608.837 132.936 613.444 Q129.881 618.027 124.07 618.027 Q118.26 618.027 115.182 613.444 Q112.126 608.837 112.126 600.11 Q112.126 591.36 115.182 586.777 Q118.26 582.171 124.07 582.171 Z" fill="#000000" fill-rule="evenodd" fill-opacity="1" /><path clip-path="url(#clip860)" d="M66.5939 304.271 L54.7884 322.719 L66.5939 322.719 L66.5939 304.271 M65.367 300.196 L71.2466 300.196 L71.2466 322.719 L76.1772 322.719 L76.1772 326.608 L71.2466 326.608 L71.2466 334.756 L66.5939 334.756 L66.5939 326.608 L50.9921 326.608 L50.9921 322.094 L65.367 300.196 Z" fill="#000000" fill-rule="evenodd" fill-opacity="1" /><path clip-path="url(#clip860)" d="M93.9086 303.275 Q90.2975 303.275 88.4688 306.84 Q86.6632 310.382 86.6632 317.511 Q86.6632 324.618 88.4688 328.182 Q90.2975 331.724 93.9086 331.724 Q97.5428 331.724 99.3483 328.182 Q101.177 324.618 101.177 317.511 Q101.177 310.382 99.3483 306.84 Q97.5428 303.275 93.9086 303.275 M93.9086 299.571 Q99.7187 299.571 102.774 304.178 Q105.853 308.761 105.853 317.511 Q105.853 326.238 102.774 330.844 Q99.7187 335.428 93.9086 335.428 Q88.0984 335.428 85.0197 330.844 Q81.9642 326.238 81.9642 317.511 Q81.9642 308.761 85.0197 304.178 Q88.0984 299.571 93.9086 299.571 Z" fill="#000000" fill-rule="evenodd" fill-opacity="1" /><path clip-path="url(#clip860)" d="M124.07 303.275 Q120.459 303.275 118.631 306.84 Q116.825 310.382 116.825 317.511 Q116.825 324.618 118.631 328.182 Q120.459 331.724 124.07 331.724 Q127.705 331.724 129.51 328.182 Q131.339 324.618 131.339 317.511 Q131.339 310.382 129.51 306.84 Q127.705 303.275 124.07 303.275 M124.07 299.571 Q129.881 299.571 132.936 304.178 Q136.015 308.761 136.015 317.511 Q136.015 326.238 132.936 330.844 Q129.881 335.428 124.07 335.428 Q118.26 335.428 115.182 330.844 Q112.126 326.238 112.126 317.511 Q112.126 308.761 115.182 304.178 Q118.26 299.571 124.07 299.571 Z" fill="#000000" fill-rule="evenodd" fill-opacity="1" /><path clip-path="url(#clip860)" d="M647.826 19.7587 L647.826 66.7897 L657.71 66.7897 Q670.227 66.7897 676.02 61.1184 Q681.853 55.4472 681.853 43.2134 Q681.853 31.0607 676.02 25.43 Q670.227 19.7587 657.71 19.7587 L647.826 19.7587 M639.643 13.0342 L656.454 13.0342 Q674.035 13.0342 682.259 20.3663 Q690.482 27.658 690.482 43.2134 Q690.482 58.8499 682.218 66.1821 Q673.954 73.5142 656.454 73.5142 L639.643 73.5142 L639.643 13.0342 Z" fill="#000000" fill-rule="evenodd" fill-opacity="1" /><path clip-path="url(#clip860)" d="M703.202 28.1441 L710.655 28.1441 L710.655 73.5142 L703.202 73.5142 L703.202 28.1441 M703.202 10.4821 L710.655 10.4821 L710.655 19.9207 L703.202 19.9207 L703.202 10.4821 Z" fill="#000000" fill-rule="evenodd" fill-opacity="1" /><path clip-path="url(#clip860)" d="M755.175 29.4809 L755.175 36.5294 Q752.015 34.9091 748.612 34.0989 Q745.21 33.2887 741.564 33.2887 Q736.014 33.2887 733.219 34.9901 Q730.464 36.6915 730.464 40.0942 Q730.464 42.6868 732.449 44.1856 Q734.434 45.644 740.43 46.9808 L742.982 47.5479 Q750.921 49.2493 754.243 52.3685 Q757.605 55.4472 757.605 60.9969 Q757.605 67.3163 752.582 71.0026 Q747.6 74.6889 738.85 74.6889 Q735.204 74.6889 731.234 73.9598 Q727.305 73.2711 722.93 71.8533 L722.93 64.1566 Q727.062 66.3036 731.072 67.3973 Q735.082 68.4506 739.012 68.4506 Q744.278 68.4506 747.114 66.6682 Q749.949 64.8453 749.949 61.564 Q749.949 58.5258 747.883 56.9055 Q745.858 55.2851 738.931 53.7863 L736.338 53.1786 Q729.411 51.7203 726.332 48.7227 Q723.254 45.6845 723.254 40.4183 Q723.254 34.0179 727.791 30.5341 Q732.328 27.0503 740.673 27.0503 Q744.805 27.0503 748.45 27.658 Q752.096 28.2656 755.175 29.4809 Z" fill="#000000" fill-rule="evenodd" fill-opacity="1" /><path clip-path="url(#clip860)" d="M776.847 15.2622 L776.847 28.1441 L792.2 28.1441 L792.2 33.9369 L776.847 33.9369 L776.847 58.5664 Q776.847 64.1161 778.346 65.6959 Q779.885 67.2758 784.544 67.2758 L792.2 67.2758 L792.2 73.5142 L784.544 73.5142 Q775.915 73.5142 772.634 70.314 Q769.353 67.0732 769.353 58.5664 L769.353 33.9369 L763.884 33.9369 L763.884 28.1441 L769.353 28.1441 L769.353 15.2622 L776.847 15.2622 Z" fill="#000000" fill-rule="evenodd" fill-opacity="1" /><path clip-path="url(#clip860)" d="M828.294 35.1116 Q827.038 34.3825 825.539 34.0584 Q824.081 33.6938 822.298 33.6938 Q815.979 33.6938 812.576 37.8257 Q809.214 41.9171 809.214 49.6139 L809.214 73.5142 L801.72 73.5142 L801.72 28.1441 L809.214 28.1441 L809.214 35.1926 Q811.563 31.0607 815.331 29.0758 Q819.098 27.0503 824.486 27.0503 Q825.255 27.0503 826.187 27.1718 Q827.119 27.2529 828.253 27.4554 L828.294 35.1116 Z" fill="#000000" fill-rule="evenodd" fill-opacity="1" /><path clip-path="url(#clip860)" d="M836.112 28.1441 L843.566 28.1441 L843.566 73.5142 L836.112 73.5142 L836.112 28.1441 M836.112 10.4821 L843.566 10.4821 L843.566 19.9207 L836.112 19.9207 L836.112 10.4821 Z" fill="#000000" fill-rule="evenodd" fill-opacity="1" /><path clip-path="url(#clip860)" d="M891.731 50.8696 Q891.731 42.6463 888.328 37.9878 Q884.966 33.2887 879.051 33.2887 Q873.137 33.2887 869.734 37.9878 Q866.372 42.6463 866.372 50.8696 Q866.372 59.093 869.734 63.792 Q873.137 68.4506 879.051 68.4506 Q884.966 68.4506 888.328 63.792 Q891.731 59.093 891.731 50.8696 M866.372 35.0306 Q868.722 30.9797 872.286 29.0353 Q875.892 27.0503 880.874 27.0503 Q889.138 27.0503 894.283 33.6128 Q899.468 40.1752 899.468 50.8696 Q899.468 61.564 894.283 68.1265 Q889.138 74.6889 880.874 74.6889 Q875.892 74.6889 872.286 72.7445 Q868.722 70.7596 866.372 66.7087 L866.372 73.5142 L858.878 73.5142 L858.878 10.4821 L866.372 10.4821 L866.372 35.0306 Z" fill="#000000" fill-rule="evenodd" fill-opacity="1" /><path clip-path="url(#clip860)" d="M911.054 55.6092 L911.054 28.1441 L918.507 28.1441 L918.507 55.3256 Q918.507 61.7666 921.019 65.0073 Q923.53 68.2075 928.554 68.2075 Q934.589 68.2075 938.073 64.3591 Q941.597 60.5108 941.597 53.8673 L941.597 28.1441 L949.051 28.1441 L949.051 73.5142 L941.597 73.5142 L941.597 66.5466 Q938.883 70.6786 935.278 72.704 Q931.713 74.6889 926.974 74.6889 Q919.155 74.6889 915.105 69.8279 Q911.054 64.9668 911.054 55.6092 M929.809 27.0503 L929.809 27.0503 Z" fill="#000000" fill-rule="evenodd" fill-opacity="1" /><path clip-path="url(#clip860)" d="M971.777 15.2622 L971.777 28.1441 L987.13 28.1441 L987.13 33.9369 L971.777 33.9369 L971.777 58.5664 Q971.777 64.1161 973.276 65.6959 Q974.815 67.2758 979.473 67.2758 L987.13 67.2758 L987.13 73.5142 L979.473 73.5142 Q970.845 73.5142 967.564 70.314 Q964.282 67.0732 964.282 58.5664 L964.282 33.9369 L958.814 33.9369 L958.814 28.1441 L964.282 28.1441 L964.282 15.2622 L971.777 15.2622 Z" fill="#000000" fill-rule="evenodd" fill-opacity="1" /><path clip-path="url(#clip860)" d="M996.933 28.1441 L1004.39 28.1441 L1004.39 73.5142 L996.933 73.5142 L996.933 28.1441 M996.933 10.4821 L1004.39 10.4821 L1004.39 19.9207 L996.933 19.9207 L996.933 10.4821 Z" fill="#000000" fill-rule="evenodd" fill-opacity="1" /><path clip-path="url(#clip860)" d="M1037.56 33.3697 Q1031.57 33.3697 1028.08 38.0688 Q1024.6 42.7273 1024.6 50.8696 Q1024.6 59.012 1028.04 63.711 Q1031.53 68.3695 1037.56 68.3695 Q1043.52 68.3695 1047 63.6705 Q1050.49 58.9714 1050.49 50.8696 Q1050.49 42.8083 1047 38.1093 Q1043.52 33.3697 1037.56 33.3697 M1037.56 27.0503 Q1047.29 27.0503 1052.84 33.3697 Q1058.38 39.6891 1058.38 50.8696 Q1058.38 62.0096 1052.84 68.3695 Q1047.29 74.6889 1037.56 74.6889 Q1027.8 74.6889 1022.25 68.3695 Q1016.74 62.0096 1016.74 50.8696 Q1016.74 39.6891 1022.25 33.3697 Q1027.8 27.0503 1037.56 27.0503 Z" fill="#000000" fill-rule="evenodd" fill-opacity="1" /><path clip-path="url(#clip860)" d="M1108.45 46.1301 L1108.45 73.5142 L1101 73.5142 L1101 46.3731 Q1101 39.9322 1098.49 36.732 Q1095.98 33.5318 1090.95 33.5318 Q1084.92 33.5318 1081.43 37.3801 Q1077.95 41.2285 1077.95 47.872 L1077.95 73.5142 L1070.46 73.5142 L1070.46 28.1441 L1077.95 28.1441 L1077.95 35.1926 Q1080.62 31.1012 1084.23 29.0758 Q1087.88 27.0503 1092.62 27.0503 Q1100.43 27.0503 1104.44 31.9114 Q1108.45 36.732 1108.45 46.1301 Z" fill="#000000" fill-rule="evenodd" fill-opacity="1" /><path clip-path="url(#clip860)" d="M1167.27 33.3697 Q1161.28 33.3697 1157.79 38.0688 Q1154.31 42.7273 1154.31 50.8696 Q1154.31 59.012 1157.75 63.711 Q1161.24 68.3695 1167.27 68.3695 Q1173.23 68.3695 1176.71 63.6705 Q1180.2 58.9714 1180.2 50.8696 Q1180.2 42.8083 1176.71 38.1093 Q1173.23 33.3697 1167.27 33.3697 M1167.27 27.0503 Q1177 27.0503 1182.55 33.3697 Q1188.09 39.6891 1188.09 50.8696 Q1188.09 62.0096 1182.55 68.3695 Q1177 74.6889 1167.27 74.6889 Q1157.51 74.6889 1151.96 68.3695 Q1146.45 62.0096 1146.45 50.8696 Q1146.45 39.6891 1151.96 33.3697 Q1157.51 27.0503 1167.27 27.0503 Z" fill="#000000" fill-rule="evenodd" fill-opacity="1" /><path clip-path="url(#clip860)" d="M1223.42 10.4821 L1223.42 16.68 L1216.29 16.68 Q1212.28 16.68 1210.7 18.3004 Q1209.16 19.9207 1209.16 24.1337 L1209.16 28.1441 L1221.43 28.1441 L1221.43 33.9369 L1209.16 33.9369 L1209.16 73.5142 L1201.67 73.5142 L1201.67 33.9369 L1194.54 33.9369 L1194.54 28.1441 L1201.67 28.1441 L1201.67 24.9844 Q1201.67 17.4092 1205.19 13.9659 Q1208.71 10.4821 1216.37 10.4821 L1223.42 10.4821 Z" fill="#000000" fill-rule="evenodd" fill-opacity="1" /><path clip-path="url(#clip860)" d="M1248.21 52.5277 Q1248.21 38.3454 1253.5 26.9094 Q1255.75 22.1136 1258.91 18.0967 Q1262.06 14.0797 1264.16 12.3172 Q1266.25 10.5547 1266.82 10.5547 Q1267.64 10.5547 1267.68 11.3744 Q1267.68 11.7843 1266.57 12.8091 Q1253.05 26.5815 1253.09 52.5277 Q1253.09 78.5559 1266.25 91.7954 Q1267.68 93.23 1267.68 93.6809 Q1267.68 94.5007 1266.82 94.5007 Q1266.25 94.5007 1264.24 92.8201 Q1262.23 91.1396 1259.11 87.2866 Q1256 83.4336 1253.74 78.7198 Q1248.21 67.2838 1248.21 52.5277 Z" fill="#000000" fill-rule="evenodd" fill-opacity="1" /><path clip-path="url(#clip860)" d="M1278.76 25.5977 L1278.76 22.9744 Q1288.85 22.9744 1294.05 17.6048 Q1295.49 17.6048 1295.73 17.9327 Q1295.98 18.2606 1295.98 19.7772 L1295.98 66.8739 Q1295.98 69.3743 1297.21 70.1531 Q1298.44 70.9319 1303.81 70.9319 L1306.47 70.9319 L1306.47 73.5142 Q1303.52 73.2683 1292.86 73.2683 Q1282.21 73.2683 1279.3 73.5142 L1279.3 70.9319 L1281.96 70.9319 Q1287.25 70.9319 1288.52 70.1941 Q1289.79 69.4153 1289.79 66.8739 L1289.79 23.3843 Q1285.4 25.5977 1278.76 25.5977 Z" fill="#000000" fill-rule="evenodd" fill-opacity="1" /><path clip-path="url(#clip860)" d="M1320.33 93.312 Q1320.33 92.9021 1320.66 92.0004 L1350.3 12.8091 Q1350.3 12.7271 1350.5 12.2762 Q1350.71 11.8253 1350.83 11.5384 Q1350.95 11.2105 1351.2 10.9645 Q1351.49 10.7186 1351.81 10.7186 Q1352.63 10.7186 1352.63 11.7433 Q1352.63 11.8253 1352.39 12.8091 L1322.67 92.0823 Q1322.18 93.517 1321.85 93.9268 Q1321.56 94.3367 1321.07 94.3367 Q1320.33 94.3367 1320.33 93.312 Z" fill="#000000" fill-rule="evenodd" fill-opacity="1" /><path clip-path="url(#clip860)" d="M1419 17.6048 Q1419 18.3836 1418.84 19.0394 L1416.54 33.6316 Q1416.42 34.7383 1416.17 35.1482 Q1415.97 35.5581 1415.31 35.5581 Q1414.29 35.5581 1414.29 34.4924 Q1414.29 33.8776 1414.53 32.8938 Q1415.23 28.262 1415.23 26.1716 Q1415.23 24.7779 1414.94 23.7532 Q1414.7 22.6875 1414.29 21.9497 Q1413.92 21.2119 1413.06 20.72 Q1412.2 20.2281 1411.38 19.9412 Q1410.56 19.6543 1409.08 19.5313 Q1407.61 19.3674 1406.34 19.3264 Q1405.07 19.2854 1402.98 19.2854 Q1398.43 19.2854 1397.69 19.4493 Q1396.91 19.6543 1396.5 20.2691 Q1396.13 20.843 1395.72 22.5645 L1384.57 67.1199 L1384.24 68.8824 Q1384.24 69.8661 1384.86 70.1941 Q1385.47 70.522 1387.36 70.7269 Q1390.06 70.9319 1392.73 70.9319 Q1392.81 70.9319 1392.97 70.9319 Q1393.88 70.9319 1394.24 70.9729 Q1394.61 70.9729 1394.98 71.0548 Q1395.35 71.1368 1395.43 71.3418 Q1395.56 71.5057 1395.56 71.8336 Q1395.56 72.6124 1395.23 73.0223 Q1394.9 73.3912 1394.57 73.4732 Q1394.29 73.5142 1393.71 73.5142 Q1392.56 73.5142 1390.1 73.4322 Q1387.65 73.3502 1386.42 73.3502 L1379.45 73.2683 L1372.32 73.3502 Q1371.21 73.3502 1368.87 73.4322 Q1366.54 73.5142 1365.43 73.5142 Q1363.99 73.5142 1363.99 72.4895 Q1363.99 71.3418 1364.53 71.1368 Q1365.1 70.9319 1367.52 70.9319 Q1370.92 70.9319 1372.77 70.7679 Q1374.61 70.6039 1375.59 70.0301 Q1376.62 69.4562 1376.91 68.8824 Q1377.19 68.2676 1377.52 66.8739 L1388.79 22.0726 Q1389.12 21.0889 1389.12 20.3101 Q1389.12 19.9002 1389 19.7363 Q1388.92 19.5723 1388.38 19.4493 Q1387.85 19.2854 1386.74 19.2854 L1383.46 19.2854 Q1380.1 19.2854 1378.01 19.4493 Q1375.96 19.5723 1374 20.1871 Q1372.07 20.802 1370.92 21.6628 Q1369.82 22.5235 1368.59 24.2861 Q1367.36 26.0486 1366.45 28.18 Q1365.59 30.3115 1364.36 33.7956 Q1363.95 34.9433 1363.71 35.2712 Q1363.5 35.5581 1362.93 35.5581 Q1362.52 35.5581 1362.19 35.3122 Q1361.9 35.0253 1361.9 34.6564 Q1362.31 33.3037 1362.4 33.1397 L1367.44 18.3426 Q1367.85 17.1539 1368.22 16.949 Q1368.63 16.703 1370.14 16.703 L1416.71 16.703 Q1417.44 16.703 1417.69 16.703 Q1417.94 16.703 1418.35 16.785 Q1418.76 16.867 1418.88 17.072 Q1419 17.2769 1419 17.6048 Z" fill="#000000" fill-rule="evenodd" fill-opacity="1" /><path clip-path="url(#clip860)" d="M1424.57 93.6809 Q1424.57 93.271 1425.63 92.2463 Q1439.16 78.4739 1439.16 52.5277 Q1439.16 26.4995 1426.17 13.3419 Q1424.57 11.8253 1424.57 11.3744 Q1424.57 10.5547 1425.39 10.5547 Q1425.96 10.5547 1427.97 12.2352 Q1430.02 13.9158 1433.09 17.7688 Q1436.21 21.6218 1438.51 26.3355 Q1444.04 37.7715 1444.04 52.5277 Q1444.04 66.71 1438.75 78.146 Q1436.5 82.9417 1433.34 86.9587 Q1430.18 90.9756 1428.09 92.7382 Q1426 94.5007 1425.39 94.5007 Q1424.57 94.5007 1424.57 93.6809 Z" fill="#000000" fill-rule="evenodd" fill-opacity="1" /><path clip-path="url(#clip860)" d="M1473.08 16.1702 L1460.98 64.7015 Q1460.49 66.628 1460.49 68.7184 Q1460.49 72.5714 1463.03 72.5714 Q1464.22 72.5714 1465.21 71.7926 Q1466.19 70.9729 1466.93 69.3743 Q1467.71 67.7347 1468.2 66.1771 Q1468.73 64.6195 1469.39 62.2011 Q1469.59 61.2584 1469.8 60.9715 Q1470 60.6845 1470.58 60.6845 Q1471.6 60.6845 1471.6 61.5043 Q1470.58 66.546 1469.06 69.7432 Q1466.85 74.4569 1462.75 74.4569 Q1459.67 74.4569 1457.38 72.3255 Q1455.12 70.1531 1455.12 66.71 Q1455.12 65.3983 1455.53 63.8407 L1466.11 21.8677 L1466.39 20.2281 Q1466.39 19.7772 1466.23 19.5313 Q1466.07 19.2854 1465.08 19.0394 Q1464.14 18.7935 1462.25 18.7935 Q1461.48 18.7935 1461.11 18.7525 Q1460.78 18.7115 1460.45 18.5066 Q1460.16 18.3016 1460.16 17.8507 Q1460.16 17.1129 1460.45 16.703 Q1460.78 16.2932 1461.02 16.2112 Q1461.27 16.1292 1461.76 16.0882 Q1462.46 16.0472 1464.8 15.8423 Q1467.13 15.5963 1469.14 15.4324 Q1471.15 15.2684 1472.01 15.2684 Q1472.5 15.2684 1472.75 15.5144 Q1473.03 15.7193 1473.08 15.9652 L1473.08 16.1702 Z" fill="#000000" fill-rule="evenodd" fill-opacity="1" /><path clip-path="url(#clip860)" d="M1518.52 50.6012 Q1518.52 55.069 1516.55 59.4959 Q1514.59 63.8817 1511.43 67.1608 Q1508.32 70.399 1504.22 72.4485 Q1500.12 74.4569 1496.02 74.4569 Q1490.16 74.4569 1486.34 70.481 Q1482.57 66.464 1482.57 60.2337 Q1482.57 54.4132 1485.81 48.8796 Q1489.09 43.3051 1494.34 39.862 Q1499.58 36.4189 1505.08 36.4189 Q1510.86 36.4189 1514.67 40.3129 Q1518.52 44.2069 1518.52 50.6012 M1512.37 47.322 Q1512.37 43.3461 1510.45 40.8047 Q1508.52 38.2634 1504.99 38.2634 Q1503.97 38.2634 1502.78 38.5913 Q1501.59 38.8782 1500.04 39.657 Q1498.52 40.4358 1496.8 42.0754 Q1495.12 43.674 1493.64 45.9694 Q1491.71 49.0026 1490.24 54.5771 Q1488.8 60.1107 1488.8 63.4308 Q1488.8 68.0216 1490.94 70.317 Q1493.07 72.5714 1496.1 72.5714 Q1499.05 72.5714 1502.17 70.522 Q1505.32 68.4315 1507.5 64.8654 Q1509.67 61.1764 1511.02 55.7658 Q1512.37 50.3143 1512.37 47.322 Z" fill="#000000" fill-rule="evenodd" fill-opacity="1" /><path clip-path="url(#clip860)" d="M1558.39 40.3539 Q1558.39 40.3949 1558.15 41.8705 L1548.8 79.1297 Q1548.31 81.0972 1546.91 83.0647 Q1545.56 85.0732 1543.39 86.7947 Q1541.26 88.5573 1537.98 89.623 Q1534.74 90.7297 1531.01 90.7297 Q1525.07 90.7297 1522.44 89.459 Q1519.86 88.2293 1519.86 85.606 Q1519.86 83.3106 1521.3 81.999 Q1522.73 80.7283 1524.37 80.7283 Q1525.93 80.7283 1526.75 81.6301 Q1527.57 82.5318 1527.57 83.6795 Q1527.57 84.9502 1526.71 86.2209 Q1525.85 87.5325 1524.12 88.0244 Q1526.87 88.8852 1530.85 88.8852 Q1539.25 88.8852 1542.86 79.9905 Q1542.94 79.8675 1542.94 79.8265 L1545.73 68.7184 L1545.6 68.6365 Q1544.91 69.4562 1543.8 70.399 Q1542.73 71.3008 1540.44 72.4075 Q1538.14 73.5142 1535.89 73.5142 Q1531.17 73.5142 1527.94 69.9071 Q1524.74 66.2591 1524.74 60.2337 Q1524.74 55.8478 1526.5 51.462 Q1528.31 47.0351 1531.09 43.797 Q1533.92 40.5178 1537.53 38.4684 Q1541.18 36.4189 1544.7 36.4189 Q1547.16 36.4189 1549.25 37.8945 Q1551.34 39.3291 1552.49 41.7065 Q1552.69 39.739 1553.8 38.9192 Q1554.95 38.0995 1555.93 38.0995 Q1557.04 38.0995 1557.69 38.7143 Q1558.39 39.2881 1558.39 40.3539 M1551.51 45.4775 Q1551.51 45.2316 1551.34 44.5758 Q1551.18 43.8789 1550.69 42.7722 Q1550.23 41.6655 1549.54 40.6818 Q1548.84 39.698 1547.57 39.0012 Q1546.34 38.2634 1544.78 38.2634 Q1542.24 38.2634 1539.7 40.3949 Q1537.16 42.4853 1535.4 45.7235 Q1533.76 48.8386 1532.2 54.8641 Q1530.68 60.8895 1530.68 63.9637 Q1530.68 66.9969 1531.99 69.3333 Q1533.31 71.6697 1536.13 71.6697 Q1539.41 71.6697 1542.94 68.6365 Q1546.59 65.4803 1547.2 62.775 L1551.26 46.7482 Q1551.51 45.7644 1551.51 45.4775 Z" fill="#000000" fill-rule="evenodd" fill-opacity="1" /><path clip-path="url(#clip860)" d="M1569.9 52.5277 Q1569.9 38.3454 1575.19 26.9094 Q1577.44 22.1136 1580.6 18.0967 Q1583.75 14.0797 1585.84 12.3172 Q1587.93 10.5547 1588.51 10.5547 Q1589.33 10.5547 1589.37 11.3744 Q1589.37 11.7843 1588.26 12.8091 Q1574.74 26.5815 1574.78 52.5277 Q1574.78 78.5559 1587.93 91.7954 Q1589.37 93.23 1589.37 93.6809 Q1589.37 94.5007 1588.51 94.5007 Q1587.93 94.5007 1585.93 92.8201 Q1583.92 91.1396 1580.8 87.2866 Q1577.69 83.4336 1575.43 78.7198 Q1569.9 67.2838 1569.9 52.5277 Z" fill="#000000" fill-rule="evenodd" fill-opacity="1" /><path clip-path="url(#clip860)" d="M1652.84 52.7736 Q1652.84 53.0195 1652.51 53.9623 L1645.87 72.0796 Q1645.5 73.1453 1645.13 73.3502 Q1644.76 73.5142 1643.24 73.5142 L1604.39 73.5142 Q1603.44 73.5142 1603.08 73.4732 Q1602.71 73.4322 1602.42 73.2273 Q1602.13 73.0223 1602.13 72.5714 Q1602.13 71.7516 1602.42 71.3827 Q1602.75 71.0138 1603.12 70.9729 Q1603.49 70.9319 1604.39 70.9319 Q1606.44 70.9319 1607.67 70.8089 Q1608.9 70.6859 1609.67 70.522 Q1610.49 70.317 1610.9 69.7432 Q1611.36 69.1693 1611.56 68.6775 Q1611.77 68.1446 1612.05 66.9559 L1623.28 21.8677 Q1623.61 20.5151 1623.61 20.3101 Q1623.61 19.5313 1623.12 19.3264 Q1622.67 19.0804 1621.36 18.9575 L1618.16 18.7935 Q1617.18 18.7935 1616.77 18.7525 Q1616.4 18.7115 1616.11 18.5066 Q1615.82 18.3016 1615.82 17.8507 Q1615.82 17.072 1616.11 16.703 Q1616.44 16.2932 1616.68 16.2522 Q1616.97 16.1702 1617.42 16.1702 L1628.57 16.4161 L1640.99 16.1702 Q1642.34 16.1702 1642.34 17.1949 Q1642.34 18.3426 1641.77 18.5886 Q1641.2 18.7935 1639.15 18.7935 Q1635.21 18.7935 1633.41 19.2034 Q1631.64 19.6133 1631.15 20.3101 Q1630.7 20.9659 1630.25 22.7285 L1618.9 68.0626 Q1618.49 69.5792 1618.49 69.9891 Q1618.49 70.44 1618.69 70.6039 Q1618.94 70.7269 1619.59 70.8089 Q1620.33 70.9319 1621.44 70.9319 L1629.31 70.9319 Q1631.69 70.9319 1633.78 70.563 Q1635.87 70.1941 1637.47 69.6612 Q1639.1 69.1283 1640.58 68.1446 Q1642.06 67.1608 1643.08 66.3001 Q1644.15 65.3983 1645.17 64.0047 Q1646.24 62.5701 1646.85 61.5863 Q1647.51 60.5616 1648.25 58.922 Q1648.98 57.2414 1649.35 56.2987 Q1649.76 55.3149 1650.38 53.6344 Q1650.75 52.7736 1650.87 52.5277 Q1650.99 52.2817 1651.2 52.0768 Q1651.44 51.8718 1651.81 51.8718 Q1652.3 51.8718 1652.55 52.1588 Q1652.84 52.4457 1652.84 52.7736 Z" fill="#000000" fill-rule="evenodd" fill-opacity="1" /><path clip-path="url(#clip860)" d="M1701.26 58.0092 Q1701.26 58.5543 1701.15 59.0134 L1699.54 69.228 Q1699.46 70.0027 1699.28 70.2896 Q1699.14 70.5765 1698.68 70.5765 Q1697.96 70.5765 1697.96 69.8305 Q1697.96 69.4001 1698.14 68.7115 Q1698.62 65.4692 1698.62 64.0059 Q1698.62 63.0304 1698.42 62.3131 Q1698.25 61.5671 1697.96 61.0506 Q1697.71 60.5341 1697.1 60.1898 Q1696.5 59.8455 1695.93 59.6447 Q1695.35 59.4438 1694.32 59.3577 Q1693.29 59.243 1692.4 59.2143 Q1691.51 59.1856 1690.05 59.1856 Q1686.86 59.1856 1686.34 59.3003 Q1685.8 59.4438 1685.51 59.8742 Q1685.25 60.2759 1684.97 61.481 L1677.16 92.6697 L1676.93 93.9035 Q1676.93 94.5921 1677.36 94.8217 Q1677.79 95.0512 1679.11 95.1947 Q1681.01 95.3381 1682.87 95.3381 Q1682.93 95.3381 1683.04 95.3381 Q1683.68 95.3381 1683.93 95.3668 Q1684.19 95.3668 1684.45 95.4242 Q1684.71 95.4816 1684.77 95.625 Q1684.85 95.7398 1684.85 95.9694 Q1684.85 96.5145 1684.62 96.8014 Q1684.39 97.0597 1684.16 97.1171 Q1683.96 97.1458 1683.56 97.1458 Q1682.76 97.1458 1681.04 97.0884 Q1679.31 97.031 1678.45 97.031 L1673.58 96.9736 L1668.58 97.031 Q1667.81 97.031 1666.17 97.0884 Q1664.54 97.1458 1663.76 97.1458 Q1662.76 97.1458 1662.76 96.4284 Q1662.76 95.625 1663.13 95.4816 Q1663.53 95.3381 1665.23 95.3381 Q1667.61 95.3381 1668.9 95.2234 Q1670.19 95.1086 1670.88 94.7069 Q1671.6 94.3052 1671.8 93.9035 Q1672 93.4731 1672.23 92.4976 L1680.12 61.1367 Q1680.35 60.448 1680.35 59.9029 Q1680.35 59.616 1680.26 59.5012 Q1680.2 59.3864 1679.83 59.3003 Q1679.46 59.1856 1678.68 59.1856 L1676.39 59.1856 Q1674.04 59.1856 1672.57 59.3003 Q1671.14 59.3864 1669.76 59.8168 Q1668.41 60.2472 1667.61 60.8497 Q1666.83 61.4523 1665.97 62.6861 Q1665.11 63.9198 1664.48 65.4119 Q1663.88 66.9039 1663.02 69.3427 Q1662.73 70.1461 1662.56 70.3757 Q1662.41 70.5765 1662.01 70.5765 Q1661.73 70.5765 1661.5 70.4043 Q1661.3 70.2035 1661.3 69.9453 Q1661.58 68.9984 1661.64 68.8836 L1665.17 58.5257 Q1665.46 57.6936 1665.71 57.5501 Q1666 57.378 1667.06 57.378 L1699.66 57.378 Q1700.17 57.378 1700.35 57.378 Q1700.52 57.378 1700.81 57.4353 Q1701.09 57.4927 1701.18 57.6362 Q1701.26 57.7796 1701.26 58.0092 Z" fill="#000000" fill-rule="evenodd" fill-opacity="1" /><path clip-path="url(#clip860)" d="M1709.84 93.6809 Q1709.84 93.271 1710.9 92.2463 Q1724.43 78.4739 1724.43 52.5277 Q1724.43 26.4995 1711.44 13.3419 Q1709.84 11.8253 1709.84 11.3744 Q1709.84 10.5547 1710.66 10.5547 Q1711.23 10.5547 1713.24 12.2352 Q1715.29 13.9158 1718.36 17.7688 Q1721.48 21.6218 1723.77 26.3355 Q1729.31 37.7715 1729.31 52.5277 Q1729.31 66.71 1724.02 78.146 Q1721.77 82.9417 1718.61 86.9587 Q1715.45 90.9756 1713.36 92.7382 Q1711.27 94.5007 1710.66 94.5007 Q1709.84 94.5007 1709.84 93.6809 Z" fill="#000000" fill-rule="evenodd" fill-opacity="1" /><path clip-path="url(#clip860)" d="M1746.78 91.9184 L1746.78 13.7518 Q1746.78 10.6366 1748.46 10.6366 Q1750.14 10.6366 1750.14 13.137 L1750.14 91.3035 Q1750.14 94.4187 1748.46 94.4187 Q1746.78 94.4187 1746.78 91.9184 Z" fill="#000000" fill-rule="evenodd" fill-opacity="1" /><path clip-path="url(#clip860)" d="M1816.1 31.5412 Q1816.1 38.4274 1813.89 46.1743 Q1811.72 53.8803 1808.27 60.1107 Q1804.83 66.3001 1800.32 70.399 Q1795.81 74.4569 1791.51 74.4569 Q1788.76 74.4569 1786.71 72.9403 Q1784.7 71.3827 1783.6 68.8004 Q1782.49 66.1771 1781.96 63.3079 Q1781.42 60.3976 1781.42 57.2414 Q1781.42 52.5277 1782.45 47.404 Q1783.47 42.2394 1785.2 37.5666 Q1786.92 32.8528 1789.34 28.5899 Q1791.75 24.2861 1794.42 21.1709 Q1797.12 18.0147 1800.16 16.1702 Q1803.19 14.3257 1806.02 14.3257 Q1808.07 14.3257 1809.71 15.2274 Q1811.39 16.0882 1812.45 17.6048 Q1813.52 19.0804 1814.26 20.843 Q1815.04 22.6055 1815.4 24.655 Q1815.77 26.6634 1815.94 28.344 Q1816.1 29.9836 1816.1 31.5412 M1810.57 26.3355 Q1810.57 24.2451 1810.4 22.6875 Q1810.24 21.0889 1809.79 19.4903 Q1809.34 17.8917 1808.35 17.031 Q1807.41 16.1702 1805.94 16.1702 Q1801.63 16.1702 1796.8 24.9829 Q1795.24 27.7292 1793.84 31.4592 Q1792.45 35.1892 1791.96 36.9518 Q1791.47 38.7143 1790.32 43.0592 L1807.86 43.0592 Q1810.57 31.8691 1810.57 26.3355 M1807.12 45.7235 L1789.66 45.7235 Q1786.96 55.9708 1786.96 62.3651 Q1786.96 67.9396 1788.11 70.276 Q1789.29 72.5714 1791.51 72.5714 Q1794.05 72.5714 1796.43 70.0301 Q1798.8 67.4478 1801.22 62.775 Q1804.42 56.7086 1807.12 45.7235 Z" fill="#000000" fill-rule="evenodd" fill-opacity="1" /><path clip-path="url(#clip860)" d="M1824.73 64.1677 L1824.73 62.3313 Q1831.79 62.3313 1835.43 58.5726 Q1836.43 58.5726 1836.61 58.8022 Q1836.78 59.0317 1836.78 60.0933 L1836.78 93.061 Q1836.78 94.8112 1837.64 95.3564 Q1838.5 95.9016 1842.26 95.9016 L1844.12 95.9016 L1844.12 97.7092 Q1842.06 97.537 1834.6 97.537 Q1827.14 97.537 1825.1 97.7092 L1825.1 95.9016 L1826.97 95.9016 Q1830.67 95.9016 1831.56 95.3851 Q1832.45 94.8399 1832.45 93.061 L1832.45 62.6183 Q1829.38 64.1677 1824.73 64.1677 Z" fill="#000000" fill-rule="evenodd" fill-opacity="1" /><path clip-path="url(#clip860)" d="M1852.89 93.6809 Q1852.89 93.271 1853.96 92.2463 Q1867.49 78.4739 1867.49 52.5277 Q1867.49 26.4995 1854.49 13.3419 Q1852.89 11.8253 1852.89 11.3744 Q1852.89 10.5547 1853.71 10.5547 Q1854.29 10.5547 1856.3 12.2352 Q1858.35 13.9158 1861.42 17.7688 Q1864.54 21.6218 1866.83 26.3355 Q1872.36 37.7715 1872.36 52.5277 Q1872.36 66.71 1867.08 78.146 Q1864.82 82.9417 1861.67 86.9587 Q1858.51 90.9756 1856.42 92.7382 Q1854.33 94.5007 1853.71 94.5007 Q1852.89 94.5007 1852.89 93.6809 Z" fill="#000000" fill-rule="evenodd" fill-opacity="1" /><path clip-path="url(#clip863)" d="
M291.959 1445.05 L291.959 1447.87 L349.043 1447.87 L349.043 1445.05 L291.959 1445.05 L291.959 1445.05  Z
  " fill="#009af9" fill-rule="evenodd" fill-opacity="1"/>
<polyline clip-path="url(#clip863)" style="stroke:#000000; stroke-linecap:round; stroke-linejoin:round; stroke-width:4; stroke-opacity:1; fill:none" points="
  291.959,1445.05 291.959,1447.87 349.043,1447.87 349.043,1445.05 291.959,1445.05 
  "/>
<path clip-path="url(#clip863)" d="
M349.043 1445.05 L349.043 1447.87 L406.127 1447.87 L406.127 1445.05 L349.043 1445.05 L349.043 1445.05  Z
  " fill="#009af9" fill-rule="evenodd" fill-opacity="1"/>
<polyline clip-path="url(#clip863)" style="stroke:#000000; stroke-linecap:round; stroke-linejoin:round; stroke-width:4; stroke-opacity:1; fill:none" points="
  349.043,1445.05 349.043,1447.87 406.127,1447.87 406.127,1445.05 349.043,1445.05 
  "/>
<path clip-path="url(#clip863)" d="
M406.127 1442.22 L406.127 1447.87 L463.211 1447.87 L463.211 1442.22 L406.127 1442.22 L406.127 1442.22  Z
  " fill="#009af9" fill-rule="evenodd" fill-opacity="1"/>
<polyline clip-path="url(#clip863)" style="stroke:#000000; stroke-linecap:round; stroke-linejoin:round; stroke-width:4; stroke-opacity:1; fill:none" points="
  406.127,1442.22 406.127,1447.87 463.211,1447.87 463.211,1442.22 406.127,1442.22 
  "/>
<path clip-path="url(#clip863)" d="
M463.211 1442.22 L463.211 1447.87 L520.295 1447.87 L520.295 1442.22 L463.211 1442.22 L463.211 1442.22  Z
  " fill="#009af9" fill-rule="evenodd" fill-opacity="1"/>
<polyline clip-path="url(#clip863)" style="stroke:#000000; stroke-linecap:round; stroke-linejoin:round; stroke-width:4; stroke-opacity:1; fill:none" points="
  463.211,1442.22 463.211,1447.87 520.295,1447.87 520.295,1442.22 463.211,1442.22 
  "/>
<path clip-path="url(#clip863)" d="
M520.295 1442.22 L520.295 1447.87 L577.379 1447.87 L577.379 1442.22 L520.295 1442.22 L520.295 1442.22  Z
  " fill="#009af9" fill-rule="evenodd" fill-opacity="1"/>
<polyline clip-path="url(#clip863)" style="stroke:#000000; stroke-linecap:round; stroke-linejoin:round; stroke-width:4; stroke-opacity:1; fill:none" points="
  520.295,1442.22 520.295,1447.87 577.379,1447.87 577.379,1442.22 520.295,1442.22 
  "/>
<path clip-path="url(#clip863)" d="
M577.379 1425.27 L577.379 1447.87 L634.463 1447.87 L634.463 1425.27 L577.379 1425.27 L577.379 1425.27  Z
  " fill="#009af9" fill-rule="evenodd" fill-opacity="1"/>
<polyline clip-path="url(#clip863)" style="stroke:#000000; stroke-linecap:round; stroke-linejoin:round; stroke-width:4; stroke-opacity:1; fill:none" points="
  577.379,1425.27 577.379,1447.87 634.463,1447.87 634.463,1425.27 577.379,1425.27 
  "/>
<path clip-path="url(#clip863)" d="
M634.463 1391.35 L634.463 1447.87 L691.547 1447.87 L691.547 1391.35 L634.463 1391.35 L634.463 1391.35  Z
  " fill="#009af9" fill-rule="evenodd" fill-opacity="1"/>
<polyline clip-path="url(#clip863)" style="stroke:#000000; stroke-linecap:round; stroke-linejoin:round; stroke-width:4; stroke-opacity:1; fill:none" points="
  634.463,1391.35 634.463,1447.87 691.547,1447.87 691.547,1391.35 634.463,1391.35 
  "/>
<path clip-path="url(#clip863)" d="
M691.547 1428.09 L691.547 1447.87 L748.63 1447.87 L748.63 1428.09 L691.547 1428.09 L691.547 1428.09  Z
  " fill="#009af9" fill-rule="evenodd" fill-opacity="1"/>
<polyline clip-path="url(#clip863)" style="stroke:#000000; stroke-linecap:round; stroke-linejoin:round; stroke-width:4; stroke-opacity:1; fill:none" points="
  691.547,1428.09 691.547,1447.87 748.63,1447.87 748.63,1428.09 691.547,1428.09 
  "/>
<path clip-path="url(#clip863)" d="
M748.63 1371.57 L748.63 1447.87 L805.714 1447.87 L805.714 1371.57 L748.63 1371.57 L748.63 1371.57  Z
  " fill="#009af9" fill-rule="evenodd" fill-opacity="1"/>
<polyline clip-path="url(#clip863)" style="stroke:#000000; stroke-linecap:round; stroke-linejoin:round; stroke-width:4; stroke-opacity:1; fill:none" points="
  748.63,1371.57 748.63,1447.87 805.714,1447.87 805.714,1371.57 748.63,1371.57 
  "/>
<path clip-path="url(#clip863)" d="
M805.714 1329.18 L805.714 1447.87 L862.798 1447.87 L862.798 1329.18 L805.714 1329.18 L805.714 1329.18  Z
  " fill="#009af9" fill-rule="evenodd" fill-opacity="1"/>
<polyline clip-path="url(#clip863)" style="stroke:#000000; stroke-linecap:round; stroke-linejoin:round; stroke-width:4; stroke-opacity:1; fill:none" points="
  805.714,1329.18 805.714,1447.87 862.798,1447.87 862.798,1329.18 805.714,1329.18 
  "/>
<path clip-path="url(#clip863)" d="
M862.798 1252.88 L862.798 1447.87 L919.882 1447.87 L919.882 1252.88 L862.798 1252.88 L862.798 1252.88  Z
  " fill="#009af9" fill-rule="evenodd" fill-opacity="1"/>
<polyline clip-path="url(#clip863)" style="stroke:#000000; stroke-linecap:round; stroke-linejoin:round; stroke-width:4; stroke-opacity:1; fill:none" points="
  862.798,1252.88 862.798,1447.87 919.882,1447.87 919.882,1252.88 862.798,1252.88 
  "/>
<path clip-path="url(#clip863)" d="
M919.882 1193.53 L919.882 1447.87 L976.966 1447.87 L976.966 1193.53 L919.882 1193.53 L919.882 1193.53  Z
  " fill="#009af9" fill-rule="evenodd" fill-opacity="1"/>
<polyline clip-path="url(#clip863)" style="stroke:#000000; stroke-linecap:round; stroke-linejoin:round; stroke-width:4; stroke-opacity:1; fill:none" points="
  919.882,1193.53 919.882,1447.87 976.966,1447.87 976.966,1193.53 919.882,1193.53 
  "/>
<path clip-path="url(#clip863)" d="
M976.966 1018.32 L976.966 1447.87 L1034.05 1447.87 L1034.05 1018.32 L976.966 1018.32 L976.966 1018.32  Z
  " fill="#009af9" fill-rule="evenodd" fill-opacity="1"/>
<polyline clip-path="url(#clip863)" style="stroke:#000000; stroke-linecap:round; stroke-linejoin:round; stroke-width:4; stroke-opacity:1; fill:none" points="
  976.966,1018.32 976.966,1447.87 1034.05,1447.87 1034.05,1018.32 976.966,1018.32 
  "/>
<path clip-path="url(#clip863)" d="
M1034.05 910.935 L1034.05 1447.87 L1091.13 1447.87 L1091.13 910.935 L1034.05 910.935 L1034.05 910.935  Z
  " fill="#009af9" fill-rule="evenodd" fill-opacity="1"/>
<polyline clip-path="url(#clip863)" style="stroke:#000000; stroke-linecap:round; stroke-linejoin:round; stroke-width:4; stroke-opacity:1; fill:none" points="
  1034.05,910.935 1034.05,1447.87 1091.13,1447.87 1091.13,910.935 1034.05,910.935 
  "/>
<path clip-path="url(#clip863)" d="
M1091.13 738.549 L1091.13 1447.87 L1148.22 1447.87 L1148.22 738.549 L1091.13 738.549 L1091.13 738.549  Z
  " fill="#009af9" fill-rule="evenodd" fill-opacity="1"/>
<polyline clip-path="url(#clip863)" style="stroke:#000000; stroke-linecap:round; stroke-linejoin:round; stroke-width:4; stroke-opacity:1; fill:none" points="
  1091.13,738.549 1091.13,1447.87 1148.22,1447.87 1148.22,738.549 1091.13,738.549 
  "/>
<path clip-path="url(#clip863)" d="
M1148.22 650.943 L1148.22 1447.87 L1205.3 1447.87 L1205.3 650.943 L1148.22 650.943 L1148.22 650.943  Z
  " fill="#009af9" fill-rule="evenodd" fill-opacity="1"/>
<polyline clip-path="url(#clip863)" style="stroke:#000000; stroke-linecap:round; stroke-linejoin:round; stroke-width:4; stroke-opacity:1; fill:none" points="
  1148.22,650.943 1148.22,1447.87 1205.3,1447.87 1205.3,650.943 1148.22,650.943 
  "/>
<path clip-path="url(#clip863)" d="
M1205.3 535.078 L1205.3 1447.87 L1262.39 1447.87 L1262.39 535.078 L1205.3 535.078 L1205.3 535.078  Z
  " fill="#009af9" fill-rule="evenodd" fill-opacity="1"/>
<polyline clip-path="url(#clip863)" style="stroke:#000000; stroke-linecap:round; stroke-linejoin:round; stroke-width:4; stroke-opacity:1; fill:none" points="
  1205.3,535.078 1205.3,1447.87 1262.39,1447.87 1262.39,535.078 1205.3,535.078 
  "/>
<path clip-path="url(#clip863)" d="
M1262.39 201.611 L1262.39 1447.87 L1319.47 1447.87 L1319.47 201.611 L1262.39 201.611 L1262.39 201.611  Z
  " fill="#009af9" fill-rule="evenodd" fill-opacity="1"/>
<polyline clip-path="url(#clip863)" style="stroke:#000000; stroke-linecap:round; stroke-linejoin:round; stroke-width:4; stroke-opacity:1; fill:none" points="
  1262.39,201.611 1262.39,1447.87 1319.47,1447.87 1319.47,201.611 1262.39,201.611 
  "/>
<path clip-path="url(#clip863)" d="
M1319.47 297.695 L1319.47 1447.87 L1376.55 1447.87 L1376.55 297.695 L1319.47 297.695 L1319.47 297.695  Z
  " fill="#009af9" fill-rule="evenodd" fill-opacity="1"/>
<polyline clip-path="url(#clip863)" style="stroke:#000000; stroke-linecap:round; stroke-linejoin:round; stroke-width:4; stroke-opacity:1; fill:none" points="
  1319.47,297.695 1319.47,1447.87 1376.55,1447.87 1376.55,297.695 1319.47,297.695 
  "/>
<path clip-path="url(#clip863)" d="
M1376.55 280.739 L1376.55 1447.87 L1433.64 1447.87 L1433.64 280.739 L1376.55 280.739 L1376.55 280.739  Z
  " fill="#009af9" fill-rule="evenodd" fill-opacity="1"/>
<polyline clip-path="url(#clip863)" style="stroke:#000000; stroke-linecap:round; stroke-linejoin:round; stroke-width:4; stroke-opacity:1; fill:none" points="
  1376.55,280.739 1376.55,1447.87 1433.64,1447.87 1433.64,280.739 1376.55,280.739 
  "/>
<path clip-path="url(#clip863)" d="
M1433.64 260.957 L1433.64 1447.87 L1490.72 1447.87 L1490.72 260.957 L1433.64 260.957 L1433.64 260.957  Z
  " fill="#009af9" fill-rule="evenodd" fill-opacity="1"/>
<polyline clip-path="url(#clip863)" style="stroke:#000000; stroke-linecap:round; stroke-linejoin:round; stroke-width:4; stroke-opacity:1; fill:none" points="
  1433.64,260.957 1433.64,1447.87 1490.72,1447.87 1490.72,260.957 1433.64,260.957 
  "/>
<path clip-path="url(#clip863)" d="
M1490.72 162.047 L1490.72 1447.87 L1547.8 1447.87 L1547.8 162.047 L1490.72 162.047 L1490.72 162.047  Z
  " fill="#009af9" fill-rule="evenodd" fill-opacity="1"/>
<polyline clip-path="url(#clip863)" style="stroke:#000000; stroke-linecap:round; stroke-linejoin:round; stroke-width:4; stroke-opacity:1; fill:none" points="
  1490.72,162.047 1490.72,1447.87 1547.8,1447.87 1547.8,162.047 1490.72,162.047 
  "/>
<path clip-path="url(#clip863)" d="
M1547.8 416.386 L1547.8 1447.87 L1604.89 1447.87 L1604.89 416.386 L1547.8 416.386 L1547.8 416.386  Z
  " fill="#009af9" fill-rule="evenodd" fill-opacity="1"/>
<polyline clip-path="url(#clip863)" style="stroke:#000000; stroke-linecap:round; stroke-linejoin:round; stroke-width:4; stroke-opacity:1; fill:none" points="
  1547.8,416.386 1547.8,1447.87 1604.89,1447.87 1604.89,416.386 1547.8,416.386 
  "/>
<path clip-path="url(#clip863)" d="
M1604.89 571.816 L1604.89 1447.87 L1661.97 1447.87 L1661.97 571.816 L1604.89 571.816 L1604.89 571.816  Z
  " fill="#009af9" fill-rule="evenodd" fill-opacity="1"/>
<polyline clip-path="url(#clip863)" style="stroke:#000000; stroke-linecap:round; stroke-linejoin:round; stroke-width:4; stroke-opacity:1; fill:none" points="
  1604.89,571.816 1604.89,1447.87 1661.97,1447.87 1661.97,571.816 1604.89,571.816 
  "/>
<path clip-path="url(#clip863)" d="
M1661.97 789.417 L1661.97 1447.87 L1719.06 1447.87 L1719.06 789.417 L1661.97 789.417 L1661.97 789.417  Z
  " fill="#009af9" fill-rule="evenodd" fill-opacity="1"/>
<polyline clip-path="url(#clip863)" style="stroke:#000000; stroke-linecap:round; stroke-linejoin:round; stroke-width:4; stroke-opacity:1; fill:none" points="
  1661.97,789.417 1661.97,1447.87 1719.06,1447.87 1719.06,789.417 1661.97,789.417 
  "/>
<path clip-path="url(#clip863)" d="
M1719.06 930.717 L1719.06 1447.87 L1776.14 1447.87 L1776.14 930.717 L1719.06 930.717 L1719.06 930.717  Z
  " fill="#009af9" fill-rule="evenodd" fill-opacity="1"/>
<polyline clip-path="url(#clip863)" style="stroke:#000000; stroke-linecap:round; stroke-linejoin:round; stroke-width:4; stroke-opacity:1; fill:none" points="
  1719.06,930.717 1719.06,1447.87 1776.14,1447.87 1776.14,930.717 1719.06,930.717 
  "/>
<path clip-path="url(#clip863)" d="
M1776.14 1100.28 L1776.14 1447.87 L1833.22 1447.87 L1833.22 1100.28 L1776.14 1100.28 L1776.14 1100.28  Z
  " fill="#009af9" fill-rule="evenodd" fill-opacity="1"/>
<polyline clip-path="url(#clip863)" style="stroke:#000000; stroke-linecap:round; stroke-linejoin:round; stroke-width:4; stroke-opacity:1; fill:none" points="
  1776.14,1100.28 1776.14,1447.87 1833.22,1447.87 1833.22,1100.28 1776.14,1100.28 
  "/>
<path clip-path="url(#clip863)" d="
M1833.22 1202.01 L1833.22 1447.87 L1890.31 1447.87 L1890.31 1202.01 L1833.22 1202.01 L1833.22 1202.01  Z
  " fill="#009af9" fill-rule="evenodd" fill-opacity="1"/>
<polyline clip-path="url(#clip863)" style="stroke:#000000; stroke-linecap:round; stroke-linejoin:round; stroke-width:4; stroke-opacity:1; fill:none" points="
  1833.22,1202.01 1833.22,1447.87 1890.31,1447.87 1890.31,1202.01 1833.22,1202.01 
  "/>
<path clip-path="url(#clip863)" d="
M1890.31 1317.88 L1890.31 1447.87 L1947.39 1447.87 L1947.39 1317.88 L1890.31 1317.88 L1890.31 1317.88  Z
  " fill="#009af9" fill-rule="evenodd" fill-opacity="1"/>
<polyline clip-path="url(#clip863)" style="stroke:#000000; stroke-linecap:round; stroke-linejoin:round; stroke-width:4; stroke-opacity:1; fill:none" points="
  1890.31,1317.88 1890.31,1447.87 1947.39,1447.87 1947.39,1317.88 1890.31,1317.88 
  "/>
<path clip-path="url(#clip863)" d="
M1947.39 1360.27 L1947.39 1447.87 L2004.48 1447.87 L2004.48 1360.27 L1947.39 1360.27 L1947.39 1360.27  Z
  " fill="#009af9" fill-rule="evenodd" fill-opacity="1"/>
<polyline clip-path="url(#clip863)" style="stroke:#000000; stroke-linecap:round; stroke-linejoin:round; stroke-width:4; stroke-opacity:1; fill:none" points="
  1947.39,1360.27 1947.39,1447.87 2004.48,1447.87 2004.48,1360.27 1947.39,1360.27 
  "/>
<path clip-path="url(#clip863)" d="
M2004.48 1425.27 L2004.48 1447.87 L2061.56 1447.87 L2061.56 1425.27 L2004.48 1425.27 L2004.48 1425.27  Z
  " fill="#009af9" fill-rule="evenodd" fill-opacity="1"/>
<polyline clip-path="url(#clip863)" style="stroke:#000000; stroke-linecap:round; stroke-linejoin:round; stroke-width:4; stroke-opacity:1; fill:none" points="
  2004.48,1425.27 2004.48,1447.87 2061.56,1447.87 2061.56,1425.27 2004.48,1425.27 
  "/>
<path clip-path="url(#clip863)" d="
M2061.56 1430.92 L2061.56 1447.87 L2118.64 1447.87 L2118.64 1430.92 L2061.56 1430.92 L2061.56 1430.92  Z
  " fill="#009af9" fill-rule="evenodd" fill-opacity="1"/>
<polyline clip-path="url(#clip863)" style="stroke:#000000; stroke-linecap:round; stroke-linejoin:round; stroke-width:4; stroke-opacity:1; fill:none" points="
  2061.56,1430.92 2061.56,1447.87 2118.64,1447.87 2118.64,1430.92 2061.56,1430.92 
  "/>
<path clip-path="url(#clip863)" d="
M2118.64 1442.22 L2118.64 1447.87 L2175.73 1447.87 L2175.73 1442.22 L2118.64 1442.22 L2118.64 1442.22  Z
  " fill="#009af9" fill-rule="evenodd" fill-opacity="1"/>
<polyline clip-path="url(#clip863)" style="stroke:#000000; stroke-linecap:round; stroke-linejoin:round; stroke-width:4; stroke-opacity:1; fill:none" points="
  2118.64,1442.22 2118.64,1447.87 2175.73,1447.87 2175.73,1442.22 2118.64,1442.22 
  "/>
<path clip-path="url(#clip863)" d="
M2175.73 1445.05 L2175.73 1447.87 L2232.81 1447.87 L2232.81 1445.05 L2175.73 1445.05 L2175.73 1445.05  Z
  " fill="#009af9" fill-rule="evenodd" fill-opacity="1"/>
<polyline clip-path="url(#clip863)" style="stroke:#000000; stroke-linecap:round; stroke-linejoin:round; stroke-width:4; stroke-opacity:1; fill:none" points="
  2175.73,1445.05 2175.73,1447.87 2232.81,1447.87 2232.81,1445.05 2175.73,1445.05 
  "/>
<circle clip-path="url(#clip863)" style="fill:#009af9; stroke:none; fill-opacity:0" cx="320.501" cy="1445.05" r="2"/>
<circle clip-path="url(#clip863)" style="fill:#009af9; stroke:none; fill-opacity:0" cx="377.585" cy="1445.05" r="2"/>
<circle clip-path="url(#clip863)" style="fill:#009af9; stroke:none; fill-opacity:0" cx="434.669" cy="1442.22" r="2"/>
<circle clip-path="url(#clip863)" style="fill:#009af9; stroke:none; fill-opacity:0" cx="491.753" cy="1442.22" r="2"/>
<circle clip-path="url(#clip863)" style="fill:#009af9; stroke:none; fill-opacity:0" cx="548.837" cy="1442.22" r="2"/>
<circle clip-path="url(#clip863)" style="fill:#009af9; stroke:none; fill-opacity:0" cx="605.921" cy="1425.27" r="2"/>
<circle clip-path="url(#clip863)" style="fill:#009af9; stroke:none; fill-opacity:0" cx="663.005" cy="1391.35" r="2"/>
<circle clip-path="url(#clip863)" style="fill:#009af9; stroke:none; fill-opacity:0" cx="720.089" cy="1428.09" r="2"/>
<circle clip-path="url(#clip863)" style="fill:#009af9; stroke:none; fill-opacity:0" cx="777.172" cy="1371.57" r="2"/>
<circle clip-path="url(#clip863)" style="fill:#009af9; stroke:none; fill-opacity:0" cx="834.256" cy="1329.18" r="2"/>
<circle clip-path="url(#clip863)" style="fill:#009af9; stroke:none; fill-opacity:0" cx="891.34" cy="1252.88" r="2"/>
<circle clip-path="url(#clip863)" style="fill:#009af9; stroke:none; fill-opacity:0" cx="948.424" cy="1193.53" r="2"/>
<circle clip-path="url(#clip863)" style="fill:#009af9; stroke:none; fill-opacity:0" cx="1005.51" cy="1018.32" r="2"/>
<circle clip-path="url(#clip863)" style="fill:#009af9; stroke:none; fill-opacity:0" cx="1062.59" cy="910.935" r="2"/>
<circle clip-path="url(#clip863)" style="fill:#009af9; stroke:none; fill-opacity:0" cx="1119.68" cy="738.549" r="2"/>
<circle clip-path="url(#clip863)" style="fill:#009af9; stroke:none; fill-opacity:0" cx="1176.76" cy="650.943" r="2"/>
<circle clip-path="url(#clip863)" style="fill:#009af9; stroke:none; fill-opacity:0" cx="1233.84" cy="535.078" r="2"/>
<circle clip-path="url(#clip863)" style="fill:#009af9; stroke:none; fill-opacity:0" cx="1290.93" cy="201.611" r="2"/>
<circle clip-path="url(#clip863)" style="fill:#009af9; stroke:none; fill-opacity:0" cx="1348.01" cy="297.695" r="2"/>
<circle clip-path="url(#clip863)" style="fill:#009af9; stroke:none; fill-opacity:0" cx="1405.1" cy="280.739" r="2"/>
<circle clip-path="url(#clip863)" style="fill:#009af9; stroke:none; fill-opacity:0" cx="1462.18" cy="260.957" r="2"/>
<circle clip-path="url(#clip863)" style="fill:#009af9; stroke:none; fill-opacity:0" cx="1519.26" cy="162.047" r="2"/>
<circle clip-path="url(#clip863)" style="fill:#009af9; stroke:none; fill-opacity:0" cx="1576.35" cy="416.386" r="2"/>
<circle clip-path="url(#clip863)" style="fill:#009af9; stroke:none; fill-opacity:0" cx="1633.43" cy="571.816" r="2"/>
<circle clip-path="url(#clip863)" style="fill:#009af9; stroke:none; fill-opacity:0" cx="1690.51" cy="789.417" r="2"/>
<circle clip-path="url(#clip863)" style="fill:#009af9; stroke:none; fill-opacity:0" cx="1747.6" cy="930.717" r="2"/>
<circle clip-path="url(#clip863)" style="fill:#009af9; stroke:none; fill-opacity:0" cx="1804.68" cy="1100.28" r="2"/>
<circle clip-path="url(#clip863)" style="fill:#009af9; stroke:none; fill-opacity:0" cx="1861.77" cy="1202.01" r="2"/>
<circle clip-path="url(#clip863)" style="fill:#009af9; stroke:none; fill-opacity:0" cx="1918.85" cy="1317.88" r="2"/>
<circle clip-path="url(#clip863)" style="fill:#009af9; stroke:none; fill-opacity:0" cx="1975.93" cy="1360.27" r="2"/>
<circle clip-path="url(#clip863)" style="fill:#009af9; stroke:none; fill-opacity:0" cx="2033.02" cy="1425.27" r="2"/>
<circle clip-path="url(#clip863)" style="fill:#009af9; stroke:none; fill-opacity:0" cx="2090.1" cy="1430.92" r="2"/>
<circle clip-path="url(#clip863)" style="fill:#009af9; stroke:none; fill-opacity:0" cx="2147.19" cy="1442.22" r="2"/>
<circle clip-path="url(#clip863)" style="fill:#009af9; stroke:none; fill-opacity:0" cx="2204.27" cy="1445.05" r="2"/>
<polyline clip-path="url(#clip863)" style="stroke:#000000; stroke-linecap:round; stroke-linejoin:round; stroke-width:8; stroke-opacity:0.6; fill:none" stroke-dasharray="32, 20" points="
  1392.71,2849.42 1392.71,-1239.5 
  "/>
</svg>
