<?xml version="1.0" encoding="utf-8"?>
<svg xmlns="http://www.w3.org/2000/svg" xmlns:xlink="http://www.w3.org/1999/xlink" width="600" height="400" viewBox="0 0 2400 1600">
<defs>
  <clipPath id="clip460">
    <rect x="0" y="0" width="2400" height="1600"/>
  </clipPath>
</defs>
<path clip-path="url(#clip460)" d="
M0 1600 L2400 1600 L2400 0 L0 0  Z
  " fill="#ffffff" fill-rule="evenodd" fill-opacity="1"/>
<defs>
  <clipPath id="clip461">
    <rect x="480" y="0" width="1681" height="1600"/>
  </clipPath>
</defs>
<path clip-path="url(#clip460)" d="
M156.598 1486.45 L2352.76 1486.45 L2352.76 123.472 L156.598 123.472  Z
  " fill="#ffffff" fill-rule="evenodd" fill-opacity="1"/>
<defs>
  <clipPath id="clip462">
    <rect x="156" y="123" width="2197" height="1364"/>
  </clipPath>
</defs>
<polyline clip-path="url(#clip462)" style="stroke:#000000; stroke-linecap:butt; stroke-linejoin:round; stroke-width:2; stroke-opacity:0.1; fill:none" points="
  168.803,1486.45 168.803,123.472 
  "/>
<polyline clip-path="url(#clip462)" style="stroke:#000000; stroke-linecap:butt; stroke-linejoin:round; stroke-width:2; stroke-opacity:0.1; fill:none" points="
  711.74,1486.45 711.74,123.472 
  "/>
<polyline clip-path="url(#clip462)" style="stroke:#000000; stroke-linecap:butt; stroke-linejoin:round; stroke-width:2; stroke-opacity:0.1; fill:none" points="
  1254.68,1486.45 1254.68,123.472 
  "/>
<polyline clip-path="url(#clip462)" style="stroke:#000000; stroke-linecap:butt; stroke-linejoin:round; stroke-width:2; stroke-opacity:0.1; fill:none" points="
  1797.61,1486.45 1797.61,123.472 
  "/>
<polyline clip-path="url(#clip462)" style="stroke:#000000; stroke-linecap:butt; stroke-linejoin:round; stroke-width:2; stroke-opacity:0.1; fill:none" points="
  2340.55,1486.45 2340.55,123.472 
  "/>
<polyline clip-path="url(#clip460)" style="stroke:#000000; stroke-linecap:butt; stroke-linejoin:round; stroke-width:4; stroke-opacity:1; fill:none" points="
  156.598,1486.45 2352.76,1486.45 
  "/>
<polyline clip-path="url(#clip460)" style="stroke:#000000; stroke-linecap:butt; stroke-linejoin:round; stroke-width:4; stroke-opacity:1; fill:none" points="
  168.803,1486.45 168.803,1467.55 
  "/>
<polyline clip-path="url(#clip460)" style="stroke:#000000; stroke-linecap:butt; stroke-linejoin:round; stroke-width:4; stroke-opacity:1; fill:none" points="
  711.74,1486.45 711.74,1467.55 
  "/>
<polyline clip-path="url(#clip460)" style="stroke:#000000; stroke-linecap:butt; stroke-linejoin:round; stroke-width:4; stroke-opacity:1; fill:none" points="
  1254.68,1486.45 1254.68,1467.55 
  "/>
<polyline clip-path="url(#clip460)" style="stroke:#000000; stroke-linecap:butt; stroke-linejoin:round; stroke-width:4; stroke-opacity:1; fill:none" points="
  1797.61,1486.45 1797.61,1467.55 
  "/>
<polyline clip-path="url(#clip460)" style="stroke:#000000; stroke-linecap:butt; stroke-linejoin:round; stroke-width:4; stroke-opacity:1; fill:none" points="
  2340.55,1486.45 2340.55,1467.55 
  "/>
<path clip-path="url(#clip460)" d="M138.746 1530.29 L168.422 1530.29 L168.422 1534.23 L138.746 1534.23 L138.746 1530.29 Z" fill="#000000" fill-rule="evenodd" fill-opacity="1" /><path clip-path="url(#clip460)" d="M182.542 1543.18 L198.861 1543.18 L198.861 1547.12 L176.917 1547.12 L176.917 1543.18 Q179.579 1540.43 184.162 1535.8 Q188.769 1531.15 189.949 1529.81 Q192.195 1527.28 193.074 1525.55 Q193.977 1523.79 193.977 1522.1 Q193.977 1519.34 192.032 1517.61 Q190.111 1515.87 187.009 1515.87 Q184.81 1515.87 182.357 1516.63 Q179.926 1517.4 177.148 1518.95 L177.148 1514.23 Q179.972 1513.09 182.426 1512.51 Q184.88 1511.93 186.917 1511.93 Q192.287 1511.93 195.482 1514.62 Q198.676 1517.31 198.676 1521.8 Q198.676 1523.93 197.866 1525.85 Q197.079 1527.74 194.972 1530.34 Q194.394 1531.01 191.292 1534.23 Q188.19 1537.42 182.542 1543.18 Z" fill="#000000" fill-rule="evenodd" fill-opacity="1" /><path clip-path="url(#clip460)" d="M681.497 1530.29 L711.173 1530.29 L711.173 1534.23 L681.497 1534.23 L681.497 1530.29 Z" fill="#000000" fill-rule="evenodd" fill-opacity="1" /><path clip-path="url(#clip460)" d="M722.076 1543.18 L729.715 1543.18 L729.715 1516.82 L721.405 1518.49 L721.405 1514.23 L729.668 1512.56 L734.344 1512.56 L734.344 1543.18 L741.983 1543.18 L741.983 1547.12 L722.076 1547.12 L722.076 1543.18 Z" fill="#000000" fill-rule="evenodd" fill-opacity="1" /><path clip-path="url(#clip460)" d="M1254.68 1515.64 Q1251.07 1515.64 1249.24 1519.2 Q1247.43 1522.75 1247.43 1529.87 Q1247.43 1536.98 1249.24 1540.55 Q1251.07 1544.09 1254.68 1544.09 Q1258.31 1544.09 1260.12 1540.55 Q1261.95 1536.98 1261.95 1529.87 Q1261.95 1522.75 1260.12 1519.2 Q1258.31 1515.64 1254.68 1515.64 M1254.68 1511.93 Q1260.49 1511.93 1263.54 1516.54 Q1266.62 1521.12 1266.62 1529.87 Q1266.62 1538.6 1263.54 1543.21 Q1260.49 1547.79 1254.68 1547.79 Q1248.87 1547.79 1245.79 1543.21 Q1242.73 1538.6 1242.73 1529.87 Q1242.73 1521.12 1245.79 1516.54 Q1248.87 1511.93 1254.68 1511.93 Z" fill="#000000" fill-rule="evenodd" fill-opacity="1" /><path clip-path="url(#clip460)" d="M1788 1543.18 L1795.63 1543.18 L1795.63 1516.82 L1787.32 1518.49 L1787.32 1514.23 L1795.59 1512.56 L1800.26 1512.56 L1800.26 1543.18 L1807.9 1543.18 L1807.9 1547.12 L1788 1547.12 L1788 1543.18 Z" fill="#000000" fill-rule="evenodd" fill-opacity="1" /><path clip-path="url(#clip460)" d="M2335.2 1543.18 L2351.52 1543.18 L2351.52 1547.12 L2329.58 1547.12 L2329.58 1543.18 Q2332.24 1540.43 2336.82 1535.8 Q2341.43 1531.15 2342.61 1529.81 Q2344.86 1527.28 2345.74 1525.55 Q2346.64 1523.79 2346.64 1522.1 Q2346.64 1519.34 2344.69 1517.61 Q2342.77 1515.87 2339.67 1515.87 Q2337.47 1515.87 2335.02 1516.63 Q2332.59 1517.4 2329.81 1518.95 L2329.81 1514.23 Q2332.63 1513.09 2335.09 1512.51 Q2337.54 1511.93 2339.58 1511.93 Q2344.95 1511.93 2348.14 1514.62 Q2351.34 1517.31 2351.34 1521.8 Q2351.34 1523.93 2350.53 1525.85 Q2349.74 1527.74 2347.63 1530.34 Q2347.06 1531.01 2343.95 1534.23 Q2340.85 1537.42 2335.2 1543.18 Z" fill="#000000" fill-rule="evenodd" fill-opacity="1" /><polyline clip-path="url(#clip462)" style="stroke:#000000; stroke-linecap:butt; stroke-linejoin:round; stroke-width:2; stroke-opacity:0.1; fill:none" points="
  156.598,1447.87 2352.76,1447.87 
  "/>
<polyline clip-path="url(#clip462)" style="stroke:#000000; stroke-linecap:butt; stroke-linejoin:round; stroke-width:2; stroke-opacity:0.1; fill:none" points="
  156.598,1131.56 2352.76,1131.56 
  "/>
<polyline clip-path="url(#clip462)" style="stroke:#000000; stroke-linecap:butt; stroke-linejoin:round; stroke-width:2; stroke-opacity:0.1; fill:none" points="
  156.598,815.24 2352.76,815.24 
  "/>
<polyline clip-path="url(#clip462)" style="stroke:#000000; stroke-linecap:butt; stroke-linejoin:round; stroke-width:2; stroke-opacity:0.1; fill:none" points="
  156.598,498.924 2352.76,498.924 
  "/>
<polyline clip-path="url(#clip462)" style="stroke:#000000; stroke-linecap:butt; stroke-linejoin:round; stroke-width:2; stroke-opacity:0.1; fill:none" points="
  156.598,182.607 2352.76,182.607 
  "/>
<polyline clip-path="url(#clip460)" style="stroke:#000000; stroke-linecap:butt; stroke-linejoin:round; stroke-width:4; stroke-opacity:1; fill:none" points="
  156.598,1486.45 156.598,123.472 
  "/>
<polyline clip-path="url(#clip460)" style="stroke:#000000; stroke-linecap:butt; stroke-linejoin:round; stroke-width:4; stroke-opacity:1; fill:none" points="
  156.598,1447.87 175.496,1447.87 
  "/>
<polyline clip-path="url(#clip460)" style="stroke:#000000; stroke-linecap:butt; stroke-linejoin:round; stroke-width:4; stroke-opacity:1; fill:none" points="
  156.598,1131.56 175.496,1131.56 
  "/>
<polyline clip-path="url(#clip460)" style="stroke:#000000; stroke-linecap:butt; stroke-linejoin:round; stroke-width:4; stroke-opacity:1; fill:none" points="
  156.598,815.24 175.496,815.24 
  "/>
<polyline clip-path="url(#clip460)" style="stroke:#000000; stroke-linecap:butt; stroke-linejoin:round; stroke-width:4; stroke-opacity:1; fill:none" points="
  156.598,498.924 175.496,498.924 
  "/>
<polyline clip-path="url(#clip460)" style="stroke:#000000; stroke-linecap:butt; stroke-linejoin:round; stroke-width:4; stroke-opacity:1; fill:none" points="
  156.598,182.607 175.496,182.607 
  "/>
<path clip-path="url(#clip460)" d="M63.4226 1433.67 Q59.8115 1433.67 57.9828 1437.24 Q56.1773 1440.78 56.1773 1447.91 Q56.1773 1455.01 57.9828 1458.58 Q59.8115 1462.12 63.4226 1462.12 Q67.0569 1462.12 68.8624 1458.58 Q70.6911 1455.01 70.6911 1447.91 Q70.6911 1440.78 68.8624 1437.24 Q67.0569 1433.67 63.4226 1433.67 M63.4226 1429.97 Q69.2328 1429.97 72.2883 1434.57 Q75.367 1439.16 75.367 1447.91 Q75.367 1456.63 72.2883 1461.24 Q69.2328 1465.82 63.4226 1465.82 Q57.6125 1465.82 54.5338 1461.24 Q51.4782 1456.63 51.4782 1447.91 Q51.4782 1439.16 54.5338 1434.57 Q57.6125 1429.97 63.4226 1429.97 Z" fill="#000000" fill-rule="evenodd" fill-opacity="1" /><path clip-path="url(#clip460)" d="M83.5845 1459.27 L88.4688 1459.27 L88.4688 1465.15 L83.5845 1465.15 L83.5845 1459.27 Z" fill="#000000" fill-rule="evenodd" fill-opacity="1" /><path clip-path="url(#clip460)" d="M108.654 1433.67 Q105.043 1433.67 103.214 1437.24 Q101.409 1440.78 101.409 1447.91 Q101.409 1455.01 103.214 1458.58 Q105.043 1462.12 108.654 1462.12 Q112.288 1462.12 114.094 1458.58 Q115.922 1455.01 115.922 1447.91 Q115.922 1440.78 114.094 1437.24 Q112.288 1433.67 108.654 1433.67 M108.654 1429.97 Q114.464 1429.97 117.52 1434.57 Q120.598 1439.16 120.598 1447.91 Q120.598 1456.63 117.52 1461.24 Q114.464 1465.82 108.654 1465.82 Q102.844 1465.82 99.765 1461.24 Q96.7095 1456.63 96.7095 1447.91 Q96.7095 1439.16 99.765 1434.57 Q102.844 1429.97 108.654 1429.97 Z" fill="#000000" fill-rule="evenodd" fill-opacity="1" /><path clip-path="url(#clip460)" d="M65.0198 1117.36 Q61.4087 1117.36 59.58 1120.92 Q57.7745 1124.46 57.7745 1131.59 Q57.7745 1138.7 59.58 1142.26 Q61.4087 1145.8 65.0198 1145.8 Q68.6541 1145.8 70.4596 1142.26 Q72.2883 1138.7 72.2883 1131.59 Q72.2883 1124.46 70.4596 1120.92 Q68.6541 1117.36 65.0198 1117.36 M65.0198 1113.65 Q70.83 1113.65 73.8855 1118.26 Q76.9642 1122.84 76.9642 1131.59 Q76.9642 1140.32 73.8855 1144.92 Q70.83 1149.51 65.0198 1149.51 Q59.2097 1149.51 56.131 1144.92 Q53.0754 1140.32 53.0754 1131.59 Q53.0754 1122.84 56.131 1118.26 Q59.2097 1113.65 65.0198 1113.65 Z" fill="#000000" fill-rule="evenodd" fill-opacity="1" /><path clip-path="url(#clip460)" d="M85.1818 1142.96 L90.066 1142.96 L90.066 1148.84 L85.1818 1148.84 L85.1818 1142.96 Z" fill="#000000" fill-rule="evenodd" fill-opacity="1" /><path clip-path="url(#clip460)" d="M104.279 1144.9 L120.598 1144.9 L120.598 1148.84 L98.6539 1148.84 L98.6539 1144.9 Q101.316 1142.15 105.899 1137.52 Q110.506 1132.86 111.686 1131.52 Q113.932 1129 114.811 1127.26 Q115.714 1125.5 115.714 1123.81 Q115.714 1121.06 113.77 1119.32 Q111.848 1117.59 108.746 1117.59 Q106.547 1117.59 104.094 1118.35 Q101.663 1119.11 98.8854 1120.67 L98.8854 1115.94 Q101.709 1114.81 104.163 1114.23 Q106.617 1113.65 108.654 1113.65 Q114.024 1113.65 117.219 1116.34 Q120.413 1119.02 120.413 1123.51 Q120.413 1125.64 119.603 1127.56 Q118.816 1129.46 116.709 1132.05 Q116.131 1132.73 113.029 1135.94 Q109.927 1139.14 104.279 1144.9 Z" fill="#000000" fill-rule="evenodd" fill-opacity="1" /><path clip-path="url(#clip460)" d="M62.9365 801.039 Q59.3254 801.039 57.4967 804.604 Q55.6912 808.145 55.6912 815.275 Q55.6912 822.381 57.4967 825.946 Q59.3254 829.488 62.9365 829.488 Q66.5707 829.488 68.3763 825.946 Q70.205 822.381 70.205 815.275 Q70.205 808.145 68.3763 804.604 Q66.5707 801.039 62.9365 801.039 M62.9365 797.335 Q68.7467 797.335 71.8022 801.942 Q74.8809 806.525 74.8809 815.275 Q74.8809 824.002 71.8022 828.608 Q68.7467 833.192 62.9365 833.192 Q57.1264 833.192 54.0477 828.608 Q50.9921 824.002 50.9921 815.275 Q50.9921 806.525 54.0477 801.942 Q57.1264 797.335 62.9365 797.335 Z" fill="#000000" fill-rule="evenodd" fill-opacity="1" /><path clip-path="url(#clip460)" d="M83.0984 826.641 L87.9827 826.641 L87.9827 832.52 L83.0984 832.52 L83.0984 826.641 Z" fill="#000000" fill-rule="evenodd" fill-opacity="1" /><path clip-path="url(#clip460)" d="M111.015 802.034 L99.2095 820.483 L111.015 820.483 L111.015 802.034 M109.788 797.96 L115.668 797.96 L115.668 820.483 L120.598 820.483 L120.598 824.372 L115.668 824.372 L115.668 832.52 L111.015 832.52 L111.015 824.372 L95.4132 824.372 L95.4132 819.858 L109.788 797.96 Z" fill="#000000" fill-rule="evenodd" fill-opacity="1" /><path clip-path="url(#clip460)" d="M63.2606 484.723 Q59.6495 484.723 57.8208 488.287 Q56.0152 491.829 56.0152 498.959 Q56.0152 506.065 57.8208 509.63 Q59.6495 513.171 63.2606 513.171 Q66.8948 513.171 68.7004 509.63 Q70.5291 506.065 70.5291 498.959 Q70.5291 491.829 68.7004 488.287 Q66.8948 484.723 63.2606 484.723 M63.2606 481.019 Q69.0707 481.019 72.1263 485.625 Q75.205 490.209 75.205 498.959 Q75.205 507.685 72.1263 512.292 Q69.0707 516.875 63.2606 516.875 Q57.4504 516.875 54.3717 512.292 Q51.3162 507.685 51.3162 498.959 Q51.3162 490.209 54.3717 485.625 Q57.4504 481.019 63.2606 481.019 Z" fill="#000000" fill-rule="evenodd" fill-opacity="1" /><path clip-path="url(#clip460)" d="M83.4225 510.324 L88.3067 510.324 L88.3067 516.204 L83.4225 516.204 L83.4225 510.324 Z" fill="#000000" fill-rule="evenodd" fill-opacity="1" /><path clip-path="url(#clip460)" d="M109.071 497.06 Q105.922 497.06 104.071 499.213 Q102.242 501.366 102.242 505.116 Q102.242 508.843 104.071 511.019 Q105.922 513.171 109.071 513.171 Q112.219 513.171 114.047 511.019 Q115.899 508.843 115.899 505.116 Q115.899 501.366 114.047 499.213 Q112.219 497.06 109.071 497.06 M118.353 482.408 L118.353 486.667 Q116.594 485.834 114.788 485.394 Q113.006 484.954 111.246 484.954 Q106.617 484.954 104.163 488.079 Q101.733 491.204 101.385 497.523 Q102.751 495.51 104.811 494.445 Q106.871 493.357 109.348 493.357 Q114.557 493.357 117.566 496.528 Q120.598 499.676 120.598 505.116 Q120.598 510.44 117.45 513.658 Q114.302 516.875 109.071 516.875 Q103.075 516.875 99.9039 512.292 Q96.7326 507.685 96.7326 498.959 Q96.7326 490.764 100.621 485.903 Q104.51 481.019 111.061 481.019 Q112.82 481.019 114.603 481.366 Q116.408 481.713 118.353 482.408 Z" fill="#000000" fill-rule="evenodd" fill-opacity="1" /><path clip-path="url(#clip460)" d="M63.5152 168.406 Q59.9041 168.406 58.0754 171.971 Q56.2699 175.513 56.2699 182.642 Q56.2699 189.749 58.0754 193.313 Q59.9041 196.855 63.5152 196.855 Q67.1494 196.855 68.955 193.313 Q70.7837 189.749 70.7837 182.642 Q70.7837 175.513 68.955 171.971 Q67.1494 168.406 63.5152 168.406 M63.5152 164.702 Q69.3254 164.702 72.3809 169.309 Q75.4596 173.892 75.4596 182.642 Q75.4596 191.369 72.3809 195.975 Q69.3254 200.559 63.5152 200.559 Q57.7051 200.559 54.6264 195.975 Q51.5708 191.369 51.5708 182.642 Q51.5708 173.892 54.6264 169.309 Q57.7051 164.702 63.5152 164.702 Z" fill="#000000" fill-rule="evenodd" fill-opacity="1" /><path clip-path="url(#clip460)" d="M83.6771 194.008 L88.5614 194.008 L88.5614 199.887 L83.6771 199.887 L83.6771 194.008 Z" fill="#000000" fill-rule="evenodd" fill-opacity="1" /><path clip-path="url(#clip460)" d="M108.746 183.476 Q105.413 183.476 103.492 185.258 Q101.594 187.04 101.594 190.165 Q101.594 193.29 103.492 195.073 Q105.413 196.855 108.746 196.855 Q112.08 196.855 114.001 195.073 Q115.922 193.267 115.922 190.165 Q115.922 187.04 114.001 185.258 Q112.103 183.476 108.746 183.476 M104.071 181.485 Q101.061 180.744 99.3715 178.684 Q97.7048 176.624 97.7048 173.661 Q97.7048 169.517 100.645 167.11 Q103.608 164.702 108.746 164.702 Q113.908 164.702 116.848 167.11 Q119.788 169.517 119.788 173.661 Q119.788 176.624 118.098 178.684 Q116.432 180.744 113.445 181.485 Q116.825 182.272 118.7 184.563 Q120.598 186.855 120.598 190.165 Q120.598 195.188 117.52 197.874 Q114.464 200.559 108.746 200.559 Q103.029 200.559 99.9502 197.874 Q96.8947 195.188 96.8947 190.165 Q96.8947 186.855 98.7928 184.563 Q100.691 182.272 104.071 181.485 M102.358 174.101 Q102.358 176.786 104.024 178.29 Q105.714 179.795 108.746 179.795 Q111.756 179.795 113.445 178.29 Q115.158 176.786 115.158 174.101 Q115.158 171.415 113.445 169.911 Q111.756 168.406 108.746 168.406 Q105.714 168.406 104.024 169.911 Q102.358 171.415 102.358 174.101 Z" fill="#000000" fill-rule="evenodd" fill-opacity="1" /><path clip-path="url(#clip460)" d="M320.174 12.096 L328.357 12.096 L328.357 36.8875 L358.09 36.8875 L358.09 12.096 L366.273 12.096 L366.273 72.576 L358.09 72.576 L358.09 43.7741 L328.357 43.7741 L328.357 72.576 L320.174 72.576 L320.174 12.096 Z" fill="#000000" fill-rule="evenodd" fill-opacity="1" /><path clip-path="url(#clip460)" d="M382.234 27.2059 L389.687 27.2059 L389.687 72.576 L382.234 72.576 L382.234 27.2059 M382.234 9.54393 L389.687 9.54393 L389.687 18.9825 L382.234 18.9825 L382.234 9.54393 Z" fill="#000000" fill-rule="evenodd" fill-opacity="1" /><path clip-path="url(#clip460)" d="M434.207 28.5427 L434.207 35.5912 Q431.047 33.9709 427.644 33.1607 Q424.242 32.3505 420.596 32.3505 Q415.046 32.3505 412.251 34.0519 Q409.496 35.7533 409.496 39.156 Q409.496 41.7486 411.481 43.2475 Q413.466 44.7058 419.462 46.0426 L422.014 46.6097 Q429.953 48.3111 433.275 51.4303 Q436.637 54.509 436.637 60.0587 Q436.637 66.3781 431.614 70.0644 Q426.632 73.7508 417.882 73.7508 Q414.236 73.7508 410.266 73.0216 Q406.337 72.3329 401.962 70.9151 L401.962 63.2184 Q406.094 65.3654 410.104 66.4591 Q414.114 67.5124 418.044 67.5124 Q423.31 67.5124 426.146 65.73 Q428.981 63.9071 428.981 60.6258 Q428.981 57.5877 426.915 55.9673 Q424.89 54.3469 417.963 52.8481 L415.37 52.2405 Q408.443 50.7821 405.364 47.7845 Q402.286 44.7463 402.286 39.4801 Q402.286 33.0797 406.823 29.5959 Q411.36 26.1121 419.705 26.1121 Q423.837 26.1121 427.482 26.7198 Q431.128 27.3274 434.207 28.5427 Z" fill="#000000" fill-rule="evenodd" fill-opacity="1" /><path clip-path="url(#clip460)" d="M455.879 14.324 L455.879 27.2059 L471.232 27.2059 L471.232 32.9987 L455.879 32.9987 L455.879 57.6282 Q455.879 63.1779 457.378 64.7578 Q458.917 66.3376 463.576 66.3376 L471.232 66.3376 L471.232 72.576 L463.576 72.576 Q454.948 72.576 451.666 69.3758 Q448.385 66.1351 448.385 57.6282 L448.385 32.9987 L442.916 32.9987 L442.916 27.2059 L448.385 27.2059 L448.385 14.324 L455.879 14.324 Z" fill="#000000" fill-rule="evenodd" fill-opacity="1" /><path clip-path="url(#clip460)" d="M498.616 32.4315 Q492.621 32.4315 489.137 37.1306 Q485.653 41.7891 485.653 49.9314 Q485.653 58.0738 489.097 62.7728 Q492.58 67.4314 498.616 67.4314 Q504.571 67.4314 508.055 62.7323 Q511.539 58.0333 511.539 49.9314 Q511.539 41.8701 508.055 37.1711 Q504.571 32.4315 498.616 32.4315 M498.616 26.1121 Q508.338 26.1121 513.888 32.4315 Q519.438 38.7509 519.438 49.9314 Q519.438 61.0714 513.888 67.4314 Q508.338 73.7508 498.616 73.7508 Q488.854 73.7508 483.304 67.4314 Q477.795 61.0714 477.795 49.9314 Q477.795 38.7509 483.304 32.4315 Q488.854 26.1121 498.616 26.1121 Z" fill="#000000" fill-rule="evenodd" fill-opacity="1" /><path clip-path="url(#clip460)" d="M561.648 49.3643 Q561.648 41.2625 558.286 36.8065 Q554.964 32.3505 548.929 32.3505 Q542.933 32.3505 539.571 36.8065 Q536.249 41.2625 536.249 49.3643 Q536.249 57.4256 539.571 61.8816 Q542.933 66.3376 548.929 66.3376 Q554.964 66.3376 558.286 61.8816 Q561.648 57.4256 561.648 49.3643 M569.102 66.9452 Q569.102 78.5308 563.957 84.1616 Q558.813 89.8329 548.199 89.8329 Q544.27 89.8329 540.786 89.2252 Q537.302 88.6581 534.021 87.4428 L534.021 80.1917 Q537.302 81.9741 540.503 82.8248 Q543.703 83.6755 547.025 83.6755 Q554.357 83.6755 558.003 79.8271 Q561.648 76.0193 561.648 68.282 L561.648 64.5957 Q559.339 68.6061 555.734 70.5911 Q552.129 72.576 547.106 72.576 Q538.761 72.576 533.657 66.2161 Q528.552 59.8562 528.552 49.3643 Q528.552 38.832 533.657 32.472 Q538.761 26.1121 547.106 26.1121 Q552.129 26.1121 555.734 28.0971 Q559.339 30.082 561.648 34.0924 L561.648 27.2059 L569.102 27.2059 L569.102 66.9452 Z" fill="#000000" fill-rule="evenodd" fill-opacity="1" /><path clip-path="url(#clip460)" d="M610.745 34.1734 Q609.49 33.4443 607.991 33.1202 Q606.532 32.7556 604.75 32.7556 Q598.431 32.7556 595.028 36.8875 Q591.666 40.9789 591.666 48.6757 L591.666 72.576 L584.171 72.576 L584.171 27.2059 L591.666 27.2059 L591.666 34.2544 Q594.015 30.1225 597.782 28.1376 Q601.55 26.1121 606.937 26.1121 Q607.707 26.1121 608.639 26.2337 Q609.571 26.3147 610.705 26.5172 L610.745 34.1734 Z" fill="#000000" fill-rule="evenodd" fill-opacity="1" /><path clip-path="url(#clip460)" d="M639.183 49.7694 Q630.149 49.7694 626.665 51.8354 Q623.182 53.9013 623.182 58.8839 Q623.182 62.8538 625.774 65.2034 Q628.407 67.5124 632.904 67.5124 Q639.102 67.5124 642.828 63.1374 Q646.596 58.7219 646.596 51.4303 L646.596 49.7694 L639.183 49.7694 M654.05 46.6907 L654.05 72.576 L646.596 72.576 L646.596 65.6895 Q644.044 69.8214 640.236 71.8063 Q636.428 73.7508 630.919 73.7508 Q623.951 73.7508 619.819 69.8619 Q615.728 65.9325 615.728 59.3701 Q615.728 51.7138 620.832 47.825 Q625.977 43.9361 636.145 43.9361 L646.596 43.9361 L646.596 43.2069 Q646.596 38.0623 643.193 35.2672 Q639.831 32.4315 633.714 32.4315 Q629.825 32.4315 626.139 33.3632 Q622.452 34.295 619.05 36.1584 L619.05 29.2718 Q623.141 27.692 626.989 26.9223 Q630.838 26.1121 634.484 26.1121 Q644.327 26.1121 649.188 31.2163 Q654.05 36.3204 654.05 46.6907 Z" fill="#000000" fill-rule="evenodd" fill-opacity="1" /><path clip-path="url(#clip460)" d="M704.726 35.9153 Q707.521 30.8922 711.41 28.5022 Q715.299 26.1121 720.565 26.1121 Q727.654 26.1121 731.503 31.0947 Q735.351 36.0368 735.351 45.1919 L735.351 72.576 L727.857 72.576 L727.857 45.4349 Q727.857 38.913 725.548 35.7533 Q723.239 32.5936 718.499 32.5936 Q712.707 32.5936 709.344 36.4419 Q705.982 40.2903 705.982 46.9338 L705.982 72.576 L698.488 72.576 L698.488 45.4349 Q698.488 38.8725 696.179 35.7533 Q693.87 32.5936 689.049 32.5936 Q683.338 32.5936 679.975 36.4824 Q676.613 40.3308 676.613 46.9338 L676.613 72.576 L669.119 72.576 L669.119 27.2059 L676.613 27.2059 L676.613 34.2544 Q679.165 30.082 682.73 28.0971 Q686.295 26.1121 691.196 26.1121 Q696.138 26.1121 699.582 28.6237 Q703.065 31.1352 704.726 35.9153 Z" fill="#000000" fill-rule="evenodd" fill-opacity="1" /><path clip-path="url(#clip460)" d="M794.17 32.4315 Q788.175 32.4315 784.691 37.1306 Q781.207 41.7891 781.207 49.9314 Q781.207 58.0738 784.651 62.7728 Q788.134 67.4314 794.17 67.4314 Q800.125 67.4314 803.609 62.7323 Q807.093 58.0333 807.093 49.9314 Q807.093 41.8701 803.609 37.1711 Q800.125 32.4315 794.17 32.4315 M794.17 26.1121 Q803.892 26.1121 809.442 32.4315 Q814.992 38.7509 814.992 49.9314 Q814.992 61.0714 809.442 67.4314 Q803.892 73.7508 794.17 73.7508 Q784.408 73.7508 778.858 67.4314 Q773.349 61.0714 773.349 49.9314 Q773.349 38.7509 778.858 32.4315 Q784.408 26.1121 794.17 26.1121 Z" fill="#000000" fill-rule="evenodd" fill-opacity="1" /><path clip-path="url(#clip460)" d="M850.316 9.54393 L850.316 15.7418 L843.186 15.7418 Q839.176 15.7418 837.596 17.3622 Q836.057 18.9825 836.057 23.1955 L836.057 27.2059 L848.331 27.2059 L848.331 32.9987 L836.057 32.9987 L836.057 72.576 L828.562 72.576 L828.562 32.9987 L821.433 32.9987 L821.433 27.2059 L828.562 27.2059 L828.562 24.0462 Q828.562 16.471 832.087 13.0277 Q835.611 9.54393 843.267 9.54393 L850.316 9.54393 Z" fill="#000000" fill-rule="evenodd" fill-opacity="1" /><path clip-path="url(#clip460)" d="M903.464 20.1573 L892.364 50.2555 L914.604 50.2555 L903.464 20.1573 M898.846 12.096 L908.122 12.096 L931.172 72.576 L922.665 72.576 L917.156 57.061 L889.893 57.061 L884.384 72.576 L875.755 72.576 L898.846 12.096 Z" fill="#000000" fill-rule="evenodd" fill-opacity="1" /><path clip-path="url(#clip460)" d="M968.076 34.0924 L968.076 9.54393 L975.529 9.54393 L975.529 72.576 L968.076 72.576 L968.076 65.7705 Q965.726 69.8214 962.121 71.8063 Q958.556 73.7508 953.533 73.7508 Q945.31 73.7508 940.124 67.1883 Q934.98 60.6258 934.98 49.9314 Q934.98 39.2371 940.124 32.6746 Q945.31 26.1121 953.533 26.1121 Q958.556 26.1121 962.121 28.0971 Q965.726 30.0415 968.076 34.0924 M942.676 49.9314 Q942.676 58.1548 946.039 62.8538 Q949.441 67.5124 955.356 67.5124 Q961.27 67.5124 964.673 62.8538 Q968.076 58.1548 968.076 49.9314 Q968.076 41.7081 964.673 37.0496 Q961.27 32.3505 955.356 32.3505 Q949.441 32.3505 946.039 37.0496 Q942.676 41.7081 942.676 49.9314 Z" fill="#000000" fill-rule="evenodd" fill-opacity="1" /><path clip-path="url(#clip460)" d="M1020.74 34.0924 L1020.74 9.54393 L1028.19 9.54393 L1028.19 72.576 L1020.74 72.576 L1020.74 65.7705 Q1018.39 69.8214 1014.78 71.8063 Q1011.22 73.7508 1006.19 73.7508 Q997.971 73.7508 992.786 67.1883 Q987.641 60.6258 987.641 49.9314 Q987.641 39.2371 992.786 32.6746 Q997.971 26.1121 1006.19 26.1121 Q1011.22 26.1121 1014.78 28.0971 Q1018.39 30.0415 1020.74 34.0924 M995.338 49.9314 Q995.338 58.1548 998.7 62.8538 Q1002.1 67.5124 1008.02 67.5124 Q1013.93 67.5124 1017.33 62.8538 Q1020.74 58.1548 1020.74 49.9314 Q1020.74 41.7081 1017.33 37.0496 Q1013.93 32.3505 1008.02 32.3505 Q1002.1 32.3505 998.7 37.0496 Q995.338 41.7081 995.338 49.9314 Z" fill="#000000" fill-rule="evenodd" fill-opacity="1" /><path clip-path="url(#clip460)" d="M1043.54 27.2059 L1051 27.2059 L1051 72.576 L1043.54 72.576 L1043.54 27.2059 M1043.54 9.54393 L1051 9.54393 L1051 18.9825 L1043.54 18.9825 L1043.54 9.54393 Z" fill="#000000" fill-rule="evenodd" fill-opacity="1" /><path clip-path="url(#clip460)" d="M1073.97 14.324 L1073.97 27.2059 L1089.32 27.2059 L1089.32 32.9987 L1073.97 32.9987 L1073.97 57.6282 Q1073.97 63.1779 1075.47 64.7578 Q1077 66.3376 1081.66 66.3376 L1089.32 66.3376 L1089.32 72.576 L1081.66 72.576 Q1073.03 72.576 1069.75 69.3758 Q1066.47 66.1351 1066.47 57.6282 L1066.47 32.9987 L1061 32.9987 L1061 27.2059 L1066.47 27.2059 L1066.47 14.324 L1073.97 14.324 Z" fill="#000000" fill-rule="evenodd" fill-opacity="1" /><path clip-path="url(#clip460)" d="M1099.12 27.2059 L1106.58 27.2059 L1106.58 72.576 L1099.12 72.576 L1099.12 27.2059 M1099.12 9.54393 L1106.58 9.54393 L1106.58 18.9825 L1099.12 18.9825 L1099.12 9.54393 Z" fill="#000000" fill-rule="evenodd" fill-opacity="1" /><path clip-path="url(#clip460)" d="M1116.82 27.2059 L1124.72 27.2059 L1138.9 65.2844 L1153.08 27.2059 L1160.98 27.2059 L1143.97 72.576 L1133.84 72.576 L1116.82 27.2059 Z" fill="#000000" fill-rule="evenodd" fill-opacity="1" /><path clip-path="url(#clip460)" d="M1210.08 48.0275 L1210.08 51.6733 L1175.81 51.6733 Q1176.29 59.3701 1180.42 63.421 Q1184.6 67.4314 1192.01 67.4314 Q1196.3 67.4314 1200.31 66.3781 Q1204.36 65.3249 1208.33 63.2184 L1208.33 70.267 Q1204.32 71.9684 1200.11 72.8596 Q1195.9 73.7508 1191.56 73.7508 Q1180.71 73.7508 1174.35 67.4314 Q1168.03 61.1119 1168.03 50.3365 Q1168.03 39.1965 1174.02 32.6746 Q1180.06 26.1121 1190.27 26.1121 Q1199.42 26.1121 1204.73 32.0264 Q1210.08 37.9003 1210.08 48.0275 M1202.62 45.84 Q1202.54 39.7232 1199.18 36.0774 Q1195.86 32.4315 1190.35 32.4315 Q1184.11 32.4315 1180.34 35.9558 Q1176.62 39.4801 1176.05 45.8805 L1202.62 45.84 Z" fill="#000000" fill-rule="evenodd" fill-opacity="1" /><path clip-path="url(#clip460)" d="M1249.01 12.096 L1261.2 12.096 L1276.63 53.2532 L1292.15 12.096 L1304.34 12.096 L1304.34 72.576 L1296.36 72.576 L1296.36 19.4686 L1280.76 60.9499 L1272.54 60.9499 L1256.95 19.4686 L1256.95 72.576 L1249.01 72.576 L1249.01 12.096 Z" fill="#000000" fill-rule="evenodd" fill-opacity="1" /><path clip-path="url(#clip460)" d="M1340.88 49.7694 Q1331.85 49.7694 1328.36 51.8354 Q1324.88 53.9013 1324.88 58.8839 Q1324.88 62.8538 1327.47 65.2034 Q1330.1 67.5124 1334.6 67.5124 Q1340.8 67.5124 1344.53 63.1374 Q1348.29 58.7219 1348.29 51.4303 L1348.29 49.7694 L1340.88 49.7694 M1355.75 46.6907 L1355.75 72.576 L1348.29 72.576 L1348.29 65.6895 Q1345.74 69.8214 1341.93 71.8063 Q1338.13 73.7508 1332.62 73.7508 Q1325.65 73.7508 1321.52 69.8619 Q1317.43 65.9325 1317.43 59.3701 Q1317.43 51.7138 1322.53 47.825 Q1327.67 43.9361 1337.84 43.9361 L1348.29 43.9361 L1348.29 43.2069 Q1348.29 38.0623 1344.89 35.2672 Q1341.53 32.4315 1335.41 32.4315 Q1331.52 32.4315 1327.84 33.3632 Q1324.15 34.295 1320.75 36.1584 L1320.75 29.2718 Q1324.84 27.692 1328.69 26.9223 Q1332.54 26.1121 1336.18 26.1121 Q1346.02 26.1121 1350.89 31.2163 Q1355.75 36.3204 1355.75 46.6907 Z" fill="#000000" fill-rule="evenodd" fill-opacity="1" /><path clip-path="url(#clip460)" d="M1397.39 34.1734 Q1396.13 33.4443 1394.64 33.1202 Q1393.18 32.7556 1391.4 32.7556 Q1385.08 32.7556 1381.67 36.8875 Q1378.31 40.9789 1378.31 48.6757 L1378.31 72.576 L1370.82 72.576 L1370.82 27.2059 L1378.31 27.2059 L1378.31 34.2544 Q1380.66 30.1225 1384.43 28.1376 Q1388.19 26.1121 1393.58 26.1121 Q1394.35 26.1121 1395.28 26.2337 Q1396.22 26.3147 1397.35 26.5172 L1397.39 34.1734 Z" fill="#000000" fill-rule="evenodd" fill-opacity="1" /><path clip-path="url(#clip460)" d="M1412.58 14.324 L1412.58 27.2059 L1427.93 27.2059 L1427.93 32.9987 L1412.58 32.9987 L1412.58 57.6282 Q1412.58 63.1779 1414.08 64.7578 Q1415.62 66.3376 1420.28 66.3376 L1427.93 66.3376 L1427.93 72.576 L1420.28 72.576 Q1411.65 72.576 1408.37 69.3758 Q1405.09 66.1351 1405.09 57.6282 L1405.09 32.9987 L1399.62 32.9987 L1399.62 27.2059 L1405.09 27.2059 L1405.09 14.324 L1412.58 14.324 Z" fill="#000000" fill-rule="evenodd" fill-opacity="1" /><path clip-path="url(#clip460)" d="M1437.74 27.2059 L1445.19 27.2059 L1445.19 72.576 L1437.74 72.576 L1437.74 27.2059 M1437.74 9.54393 L1445.19 9.54393 L1445.19 18.9825 L1437.74 18.9825 L1437.74 9.54393 Z" fill="#000000" fill-rule="evenodd" fill-opacity="1" /><path clip-path="url(#clip460)" d="M1498.5 45.1919 L1498.5 72.576 L1491.05 72.576 L1491.05 45.4349 Q1491.05 38.994 1488.54 35.7938 Q1486.02 32.5936 1481 32.5936 Q1474.97 32.5936 1471.48 36.4419 Q1468 40.2903 1468 46.9338 L1468 72.576 L1460.5 72.576 L1460.5 27.2059 L1468 27.2059 L1468 34.2544 Q1470.67 30.163 1474.28 28.1376 Q1477.92 26.1121 1482.66 26.1121 Q1490.48 26.1121 1494.49 30.9732 Q1498.5 35.7938 1498.5 45.1919 Z" fill="#000000" fill-rule="evenodd" fill-opacity="1" /><path clip-path="url(#clip460)" d="M1543.22 49.3643 Q1543.22 41.2625 1539.86 36.8065 Q1536.54 32.3505 1530.5 32.3505 Q1524.51 32.3505 1521.15 36.8065 Q1517.82 41.2625 1517.82 49.3643 Q1517.82 57.4256 1521.15 61.8816 Q1524.51 66.3376 1530.5 66.3376 Q1536.54 66.3376 1539.86 61.8816 Q1543.22 57.4256 1543.22 49.3643 M1550.68 66.9452 Q1550.68 78.5308 1545.53 84.1616 Q1540.39 89.8329 1529.77 89.8329 Q1525.84 89.8329 1522.36 89.2252 Q1518.88 88.6581 1515.6 87.4428 L1515.6 80.1917 Q1518.88 81.9741 1522.08 82.8248 Q1525.28 83.6755 1528.6 83.6755 Q1535.93 83.6755 1539.58 79.8271 Q1543.22 76.0193 1543.22 68.282 L1543.22 64.5957 Q1540.91 68.6061 1537.31 70.5911 Q1533.7 72.576 1528.68 72.576 Q1520.34 72.576 1515.23 66.2161 Q1510.13 59.8562 1510.13 49.3643 Q1510.13 38.832 1515.23 32.472 Q1520.34 26.1121 1528.68 26.1121 Q1533.7 26.1121 1537.31 28.0971 Q1540.91 30.082 1543.22 34.0924 L1543.22 27.2059 L1550.68 27.2059 L1550.68 66.9452 Z" fill="#000000" fill-rule="evenodd" fill-opacity="1" /><path clip-path="url(#clip460)" d="M1586.65 49.7694 Q1577.62 49.7694 1574.13 51.8354 Q1570.65 53.9013 1570.65 58.8839 Q1570.65 62.8538 1573.24 65.2034 Q1575.87 67.5124 1580.37 67.5124 Q1586.57 67.5124 1590.29 63.1374 Q1594.06 58.7219 1594.06 51.4303 L1594.06 49.7694 L1586.65 49.7694 M1601.52 46.6907 L1601.52 72.576 L1594.06 72.576 L1594.06 65.6895 Q1591.51 69.8214 1587.7 71.8063 Q1583.89 73.7508 1578.38 73.7508 Q1571.42 73.7508 1567.29 69.8619 Q1563.19 65.9325 1563.19 59.3701 Q1563.19 51.7138 1568.3 47.825 Q1573.44 43.9361 1583.61 43.9361 L1594.06 43.9361 L1594.06 43.2069 Q1594.06 38.0623 1590.66 35.2672 Q1587.3 32.4315 1581.18 32.4315 Q1577.29 32.4315 1573.6 33.3632 Q1569.92 34.295 1566.52 36.1584 L1566.52 29.2718 Q1570.61 27.692 1574.46 26.9223 Q1578.3 26.1121 1581.95 26.1121 Q1591.79 26.1121 1596.65 31.2163 Q1601.52 36.3204 1601.52 46.6907 Z" fill="#000000" fill-rule="evenodd" fill-opacity="1" /><path clip-path="url(#clip460)" d="M1616.87 9.54393 L1624.32 9.54393 L1624.32 72.576 L1616.87 72.576 L1616.87 9.54393 Z" fill="#000000" fill-rule="evenodd" fill-opacity="1" /><path clip-path="url(#clip460)" d="M1678.73 48.0275 L1678.73 51.6733 L1644.46 51.6733 Q1644.94 59.3701 1649.07 63.421 Q1653.25 67.4314 1660.66 67.4314 Q1664.95 67.4314 1668.96 66.3781 Q1673.01 65.3249 1676.98 63.2184 L1676.98 70.267 Q1672.97 71.9684 1668.76 72.8596 Q1664.55 73.7508 1660.21 73.7508 Q1649.36 73.7508 1643 67.4314 Q1636.68 61.1119 1636.68 50.3365 Q1636.68 39.1965 1642.67 32.6746 Q1648.71 26.1121 1658.92 26.1121 Q1668.07 26.1121 1673.38 32.0264 Q1678.73 37.9003 1678.73 48.0275 M1671.27 45.84 Q1671.19 39.7232 1667.83 36.0774 Q1664.51 32.4315 1659 32.4315 Q1652.76 32.4315 1648.99 35.9558 Q1645.27 39.4801 1644.7 45.8805 L1671.27 45.84 Z" fill="#000000" fill-rule="evenodd" fill-opacity="1" /><path clip-path="url(#clip460)" d="M1762.94 16.7545 L1762.94 25.383 Q1758.81 21.5346 1754.11 19.6307 Q1749.45 17.7268 1744.19 17.7268 Q1733.82 17.7268 1728.31 24.0867 Q1722.8 30.4061 1722.8 42.3968 Q1722.8 54.3469 1728.31 60.7069 Q1733.82 67.0263 1744.19 67.0263 Q1749.45 67.0263 1754.11 65.1223 Q1758.81 63.2184 1762.94 59.3701 L1762.94 67.9175 Q1758.65 70.8341 1753.83 72.2924 Q1749.05 73.7508 1743.7 73.7508 Q1729.97 73.7508 1722.07 65.3654 Q1714.17 56.9395 1714.17 42.3968 Q1714.17 27.8135 1722.07 19.4281 Q1729.97 11.0023 1743.7 11.0023 Q1749.13 11.0023 1753.91 12.4606 Q1758.73 13.8784 1762.94 16.7545 Z" fill="#000000" fill-rule="evenodd" fill-opacity="1" /><path clip-path="url(#clip460)" d="M1792.84 32.4315 Q1786.84 32.4315 1783.36 37.1306 Q1779.88 41.7891 1779.88 49.9314 Q1779.88 58.0738 1783.32 62.7728 Q1786.8 67.4314 1792.84 67.4314 Q1798.79 67.4314 1802.28 62.7323 Q1805.76 58.0333 1805.76 49.9314 Q1805.76 41.8701 1802.28 37.1711 Q1798.79 32.4315 1792.84 32.4315 M1792.84 26.1121 Q1802.56 26.1121 1808.11 32.4315 Q1813.66 38.7509 1813.66 49.9314 Q1813.66 61.0714 1808.11 67.4314 Q1802.56 73.7508 1792.84 73.7508 Q1783.08 73.7508 1777.53 67.4314 Q1772.02 61.0714 1772.02 49.9314 Q1772.02 38.7509 1777.53 32.4315 Q1783.08 26.1121 1792.84 26.1121 Z" fill="#000000" fill-rule="evenodd" fill-opacity="1" /><path clip-path="url(#clip460)" d="M1861.34 35.9153 Q1864.14 30.8922 1868.02 28.5022 Q1871.91 26.1121 1877.18 26.1121 Q1884.27 26.1121 1888.12 31.0947 Q1891.97 36.0368 1891.97 45.1919 L1891.97 72.576 L1884.47 72.576 L1884.47 45.4349 Q1884.47 38.913 1882.16 35.7533 Q1879.85 32.5936 1875.11 32.5936 Q1869.32 32.5936 1865.96 36.4419 Q1862.6 40.2903 1862.6 46.9338 L1862.6 72.576 L1855.1 72.576 L1855.1 45.4349 Q1855.1 38.8725 1852.79 35.7533 Q1850.48 32.5936 1845.66 32.5936 Q1839.95 32.5936 1836.59 36.4824 Q1833.23 40.3308 1833.23 46.9338 L1833.23 72.576 L1825.73 72.576 L1825.73 27.2059 L1833.23 27.2059 L1833.23 34.2544 Q1835.78 30.082 1839.34 28.0971 Q1842.91 26.1121 1847.81 26.1121 Q1852.75 26.1121 1856.2 28.6237 Q1859.68 31.1352 1861.34 35.9153 Z" fill="#000000" fill-rule="evenodd" fill-opacity="1" /><path clip-path="url(#clip460)" d="M1914.04 65.7705 L1914.04 89.8329 L1906.55 89.8329 L1906.55 27.2059 L1914.04 27.2059 L1914.04 34.0924 Q1916.39 30.0415 1919.96 28.0971 Q1923.56 26.1121 1928.54 26.1121 Q1936.81 26.1121 1941.95 32.6746 Q1947.14 39.2371 1947.14 49.9314 Q1947.14 60.6258 1941.95 67.1883 Q1936.81 73.7508 1928.54 73.7508 Q1923.56 73.7508 1919.96 71.8063 Q1916.39 69.8214 1914.04 65.7705 M1939.4 49.9314 Q1939.4 41.7081 1936 37.0496 Q1932.64 32.3505 1926.72 32.3505 Q1920.81 32.3505 1917.41 37.0496 Q1914.04 41.7081 1914.04 49.9314 Q1914.04 58.1548 1917.41 62.8538 Q1920.81 67.5124 1926.72 67.5124 Q1932.64 67.5124 1936 62.8538 Q1939.4 58.1548 1939.4 49.9314 Z" fill="#000000" fill-rule="evenodd" fill-opacity="1" /><path clip-path="url(#clip460)" d="M1977.07 32.4315 Q1971.08 32.4315 1967.6 37.1306 Q1964.11 41.7891 1964.11 49.9314 Q1964.11 58.0738 1967.56 62.7728 Q1971.04 67.4314 1977.07 67.4314 Q1983.03 67.4314 1986.51 62.7323 Q1990 58.0333 1990 49.9314 Q1990 41.8701 1986.51 37.1711 Q1983.03 32.4315 1977.07 32.4315 M1977.07 26.1121 Q1986.8 26.1121 1992.35 32.4315 Q1997.9 38.7509 1997.9 49.9314 Q1997.9 61.0714 1992.35 67.4314 Q1986.8 73.7508 1977.07 73.7508 Q1967.31 73.7508 1961.76 67.4314 Q1956.25 61.0714 1956.25 49.9314 Q1956.25 38.7509 1961.76 32.4315 Q1967.31 26.1121 1977.07 26.1121 Z" fill="#000000" fill-rule="evenodd" fill-opacity="1" /><path clip-path="url(#clip460)" d="M2047.97 45.1919 L2047.97 72.576 L2040.51 72.576 L2040.51 45.4349 Q2040.51 38.994 2038 35.7938 Q2035.49 32.5936 2030.47 32.5936 Q2024.43 32.5936 2020.95 36.4419 Q2017.46 40.2903 2017.46 46.9338 L2017.46 72.576 L2009.97 72.576 L2009.97 27.2059 L2017.46 27.2059 L2017.46 34.2544 Q2020.14 30.163 2023.74 28.1376 Q2027.39 26.1121 2032.13 26.1121 Q2039.94 26.1121 2043.96 30.9732 Q2047.97 35.7938 2047.97 45.1919 Z" fill="#000000" fill-rule="evenodd" fill-opacity="1" /><path clip-path="url(#clip460)" d="M2101.64 48.0275 L2101.64 51.6733 L2067.37 51.6733 Q2067.86 59.3701 2071.99 63.421 Q2076.16 67.4314 2083.57 67.4314 Q2087.87 67.4314 2091.88 66.3781 Q2095.93 65.3249 2099.9 63.2184 L2099.9 70.267 Q2095.89 71.9684 2091.67 72.8596 Q2087.46 73.7508 2083.13 73.7508 Q2072.27 73.7508 2065.91 67.4314 Q2059.59 61.1119 2059.59 50.3365 Q2059.59 39.1965 2065.59 32.6746 Q2071.62 26.1121 2081.83 26.1121 Q2090.99 26.1121 2096.29 32.0264 Q2101.64 37.9003 2101.64 48.0275 M2094.19 45.84 Q2094.11 39.7232 2090.74 36.0774 Q2087.42 32.4315 2081.91 32.4315 Q2075.67 32.4315 2071.91 35.9558 Q2068.18 39.4801 2067.61 45.8805 L2094.19 45.84 Z" fill="#000000" fill-rule="evenodd" fill-opacity="1" /><path clip-path="url(#clip460)" d="M2151.59 45.1919 L2151.59 72.576 L2144.13 72.576 L2144.13 45.4349 Q2144.13 38.994 2141.62 35.7938 Q2139.11 32.5936 2134.09 32.5936 Q2128.05 32.5936 2124.57 36.4419 Q2121.08 40.2903 2121.08 46.9338 L2121.08 72.576 L2113.59 72.576 L2113.59 27.2059 L2121.08 27.2059 L2121.08 34.2544 Q2123.76 30.163 2127.36 28.1376 Q2131.01 26.1121 2135.75 26.1121 Q2143.57 26.1121 2147.58 30.9732 Q2151.59 35.7938 2151.59 45.1919 Z" fill="#000000" fill-rule="evenodd" fill-opacity="1" /><path clip-path="url(#clip460)" d="M2173.83 14.324 L2173.83 27.2059 L2189.18 27.2059 L2189.18 32.9987 L2173.83 32.9987 L2173.83 57.6282 Q2173.83 63.1779 2175.33 64.7578 Q2176.87 66.3376 2181.52 66.3376 L2189.18 66.3376 L2189.18 72.576 L2181.52 72.576 Q2172.9 72.576 2169.61 69.3758 Q2166.33 66.1351 2166.33 57.6282 L2166.33 32.9987 L2160.86 32.9987 L2160.86 27.2059 L2166.33 27.2059 L2166.33 14.324 L2173.83 14.324 Z" fill="#000000" fill-rule="evenodd" fill-opacity="1" /><path clip-path="url(#clip462)" d="
M277.391 1446.29 L277.391 1447.87 L385.978 1447.87 L385.978 1446.29 L277.391 1446.29 L277.391 1446.29  Z
  " fill="#009af9" fill-rule="evenodd" fill-opacity="1"/>
<polyline clip-path="url(#clip462)" style="stroke:#000000; stroke-linecap:butt; stroke-linejoin:round; stroke-width:4; stroke-opacity:1; fill:none" points="
  277.391,1446.29 277.391,1447.87 385.978,1447.87 385.978,1446.29 277.391,1446.29 
  "/>
<path clip-path="url(#clip462)" d="
M385.978 1436.8 L385.978 1447.87 L494.566 1447.87 L494.566 1436.8 L385.978 1436.8 L385.978 1436.8  Z
  " fill="#009af9" fill-rule="evenodd" fill-opacity="1"/>
<polyline clip-path="url(#clip462)" style="stroke:#000000; stroke-linecap:butt; stroke-linejoin:round; stroke-width:4; stroke-opacity:1; fill:none" points="
  385.978,1436.8 385.978,1447.87 494.566,1447.87 494.566,1436.8 385.978,1436.8 
  "/>
<path clip-path="url(#clip462)" d="
M494.566 1422.57 L494.566 1447.87 L603.153 1447.87 L603.153 1422.57 L494.566 1422.57 L494.566 1422.57  Z
  " fill="#009af9" fill-rule="evenodd" fill-opacity="1"/>
<polyline clip-path="url(#clip462)" style="stroke:#000000; stroke-linecap:butt; stroke-linejoin:round; stroke-width:4; stroke-opacity:1; fill:none" points="
  494.566,1422.57 494.566,1447.87 603.153,1447.87 603.153,1422.57 494.566,1422.57 
  "/>
<path clip-path="url(#clip462)" d="
M603.153 1362.47 L603.153 1447.87 L711.74 1447.87 L711.74 1362.47 L603.153 1362.47 L603.153 1362.47  Z
  " fill="#009af9" fill-rule="evenodd" fill-opacity="1"/>
<polyline clip-path="url(#clip462)" style="stroke:#000000; stroke-linecap:butt; stroke-linejoin:round; stroke-width:4; stroke-opacity:1; fill:none" points="
  603.153,1362.47 603.153,1447.87 711.74,1447.87 711.74,1362.47 603.153,1362.47 
  "/>
<path clip-path="url(#clip462)" d="
M711.74 1226.45 L711.74 1447.87 L820.328 1447.87 L820.328 1226.45 L711.74 1226.45 L711.74 1226.45  Z
  " fill="#009af9" fill-rule="evenodd" fill-opacity="1"/>
<polyline clip-path="url(#clip462)" style="stroke:#000000; stroke-linecap:butt; stroke-linejoin:round; stroke-width:4; stroke-opacity:1; fill:none" points="
  711.74,1226.45 711.74,1447.87 820.328,1447.87 820.328,1226.45 711.74,1226.45 
  "/>
<path clip-path="url(#clip462)" d="
M820.328 1028.75 L820.328 1447.87 L928.915 1447.87 L928.915 1028.75 L820.328 1028.75 L820.328 1028.75  Z
  " fill="#009af9" fill-rule="evenodd" fill-opacity="1"/>
<polyline clip-path="url(#clip462)" style="stroke:#000000; stroke-linecap:butt; stroke-linejoin:round; stroke-width:4; stroke-opacity:1; fill:none" points="
  820.328,1028.75 820.328,1447.87 928.915,1447.87 928.915,1028.75 820.328,1028.75 
  "/>
<path clip-path="url(#clip462)" d="
M928.915 687.132 L928.915 1447.87 L1037.5 1447.87 L1037.5 687.132 L928.915 687.132 L928.915 687.132  Z
  " fill="#009af9" fill-rule="evenodd" fill-opacity="1"/>
<polyline clip-path="url(#clip462)" style="stroke:#000000; stroke-linecap:butt; stroke-linejoin:round; stroke-width:4; stroke-opacity:1; fill:none" points="
  928.915,687.132 928.915,1447.87 1037.5,1447.87 1037.5,687.132 928.915,687.132 
  "/>
<path clip-path="url(#clip462)" d="
M1037.5 334.439 L1037.5 1447.87 L1146.09 1447.87 L1146.09 334.439 L1037.5 334.439 L1037.5 334.439  Z
  " fill="#009af9" fill-rule="evenodd" fill-opacity="1"/>
<polyline clip-path="url(#clip462)" style="stroke:#000000; stroke-linecap:butt; stroke-linejoin:round; stroke-width:4; stroke-opacity:1; fill:none" points="
  1037.5,334.439 1037.5,1447.87 1146.09,1447.87 1146.09,334.439 1037.5,334.439 
  "/>
<path clip-path="url(#clip462)" d="
M1146.09 209.494 L1146.09 1447.87 L1254.68 1447.87 L1254.68 209.494 L1146.09 209.494 L1146.09 209.494  Z
  " fill="#009af9" fill-rule="evenodd" fill-opacity="1"/>
<polyline clip-path="url(#clip462)" style="stroke:#000000; stroke-linecap:butt; stroke-linejoin:round; stroke-width:4; stroke-opacity:1; fill:none" points="
  1146.09,209.494 1146.09,1447.87 1254.68,1447.87 1254.68,209.494 1146.09,209.494 
  "/>
<path clip-path="url(#clip462)" d="
M1254.68 162.047 L1254.68 1447.87 L1363.26 1447.87 L1363.26 162.047 L1254.68 162.047 L1254.68 162.047  Z
  " fill="#009af9" fill-rule="evenodd" fill-opacity="1"/>
<polyline clip-path="url(#clip462)" style="stroke:#000000; stroke-linecap:butt; stroke-linejoin:round; stroke-width:4; stroke-opacity:1; fill:none" points="
  1254.68,162.047 1254.68,1447.87 1363.26,1447.87 1363.26,162.047 1254.68,162.047 
  "/>
<path clip-path="url(#clip462)" d="
M1363.26 366.071 L1363.26 1447.87 L1471.85 1447.87 L1471.85 366.071 L1363.26 366.071 L1363.26 366.071  Z
  " fill="#009af9" fill-rule="evenodd" fill-opacity="1"/>
<polyline clip-path="url(#clip462)" style="stroke:#000000; stroke-linecap:butt; stroke-linejoin:round; stroke-width:4; stroke-opacity:1; fill:none" points="
  1363.26,366.071 1363.26,1447.87 1471.85,1447.87 1471.85,366.071 1363.26,366.071 
  "/>
<path clip-path="url(#clip462)" d="
M1471.85 609.635 L1471.85 1447.87 L1580.44 1447.87 L1580.44 609.635 L1471.85 609.635 L1471.85 609.635  Z
  " fill="#009af9" fill-rule="evenodd" fill-opacity="1"/>
<polyline clip-path="url(#clip462)" style="stroke:#000000; stroke-linecap:butt; stroke-linejoin:round; stroke-width:4; stroke-opacity:1; fill:none" points="
  1471.85,609.635 1471.85,1447.87 1580.44,1447.87 1580.44,609.635 1471.85,609.635 
  "/>
<path clip-path="url(#clip462)" d="
M1580.44 1020.85 L1580.44 1447.87 L1689.03 1447.87 L1689.03 1020.85 L1580.44 1020.85 L1580.44 1020.85  Z
  " fill="#009af9" fill-rule="evenodd" fill-opacity="1"/>
<polyline clip-path="url(#clip462)" style="stroke:#000000; stroke-linecap:butt; stroke-linejoin:round; stroke-width:4; stroke-opacity:1; fill:none" points="
  1580.44,1020.85 1580.44,1447.87 1689.03,1447.87 1689.03,1020.85 1580.44,1020.85 
  "/>
<path clip-path="url(#clip462)" d="
M1689.03 1171.1 L1689.03 1447.87 L1797.61 1447.87 L1797.61 1171.1 L1689.03 1171.1 L1689.03 1171.1  Z
  " fill="#009af9" fill-rule="evenodd" fill-opacity="1"/>
<polyline clip-path="url(#clip462)" style="stroke:#000000; stroke-linecap:butt; stroke-linejoin:round; stroke-width:4; stroke-opacity:1; fill:none" points="
  1689.03,1171.1 1689.03,1447.87 1797.61,1447.87 1797.61,1171.1 1689.03,1171.1 
  "/>
<path clip-path="url(#clip462)" d="
M1797.61 1364.05 L1797.61 1447.87 L1906.2 1447.87 L1906.2 1364.05 L1797.61 1364.05 L1797.61 1364.05  Z
  " fill="#009af9" fill-rule="evenodd" fill-opacity="1"/>
<polyline clip-path="url(#clip462)" style="stroke:#000000; stroke-linecap:butt; stroke-linejoin:round; stroke-width:4; stroke-opacity:1; fill:none" points="
  1797.61,1364.05 1797.61,1447.87 1906.2,1447.87 1906.2,1364.05 1797.61,1364.05 
  "/>
<path clip-path="url(#clip462)" d="
M1906.2 1419.4 L1906.2 1447.87 L2014.79 1447.87 L2014.79 1419.4 L1906.2 1419.4 L1906.2 1419.4  Z
  " fill="#009af9" fill-rule="evenodd" fill-opacity="1"/>
<polyline clip-path="url(#clip462)" style="stroke:#000000; stroke-linecap:butt; stroke-linejoin:round; stroke-width:4; stroke-opacity:1; fill:none" points="
  1906.2,1419.4 1906.2,1447.87 2014.79,1447.87 2014.79,1419.4 1906.2,1419.4 
  "/>
<path clip-path="url(#clip462)" d="
M2014.79 1441.55 L2014.79 1447.87 L2123.38 1447.87 L2123.38 1441.55 L2014.79 1441.55 L2014.79 1441.55  Z
  " fill="#009af9" fill-rule="evenodd" fill-opacity="1"/>
<polyline clip-path="url(#clip462)" style="stroke:#000000; stroke-linecap:butt; stroke-linejoin:round; stroke-width:4; stroke-opacity:1; fill:none" points="
  2014.79,1441.55 2014.79,1447.87 2123.38,1447.87 2123.38,1441.55 2014.79,1441.55 
  "/>
<path clip-path="url(#clip462)" d="
M2123.38 1444.71 L2123.38 1447.87 L2231.96 1447.87 L2231.96 1444.71 L2123.38 1444.71 L2123.38 1444.71  Z
  " fill="#009af9" fill-rule="evenodd" fill-opacity="1"/>
<polyline clip-path="url(#clip462)" style="stroke:#000000; stroke-linecap:butt; stroke-linejoin:round; stroke-width:4; stroke-opacity:1; fill:none" points="
  2123.38,1444.71 2123.38,1447.87 2231.96,1447.87 2231.96,1444.71 2123.38,1444.71 
  "/>
<circle clip-path="url(#clip462)" style="fill:#009af9; stroke:none; fill-opacity:0" cx="331.684" cy="1446.29" r="2"/>
<circle clip-path="url(#clip462)" style="fill:#009af9; stroke:none; fill-opacity:0" cx="440.272" cy="1436.8" r="2"/>
<circle clip-path="url(#clip462)" style="fill:#009af9; stroke:none; fill-opacity:0" cx="548.859" cy="1422.57" r="2"/>
<circle clip-path="url(#clip462)" style="fill:#009af9; stroke:none; fill-opacity:0" cx="657.447" cy="1362.47" r="2"/>
<circle clip-path="url(#clip462)" style="fill:#009af9; stroke:none; fill-opacity:0" cx="766.034" cy="1226.45" r="2"/>
<circle clip-path="url(#clip462)" style="fill:#009af9; stroke:none; fill-opacity:0" cx="874.621" cy="1028.75" r="2"/>
<circle clip-path="url(#clip462)" style="fill:#009af9; stroke:none; fill-opacity:0" cx="983.209" cy="687.132" r="2"/>
<circle clip-path="url(#clip462)" style="fill:#009af9; stroke:none; fill-opacity:0" cx="1091.8" cy="334.439" r="2"/>
<circle clip-path="url(#clip462)" style="fill:#009af9; stroke:none; fill-opacity:0" cx="1200.38" cy="209.494" r="2"/>
<circle clip-path="url(#clip462)" style="fill:#009af9; stroke:none; fill-opacity:0" cx="1308.97" cy="162.047" r="2"/>
<circle clip-path="url(#clip462)" style="fill:#009af9; stroke:none; fill-opacity:0" cx="1417.56" cy="366.071" r="2"/>
<circle clip-path="url(#clip462)" style="fill:#009af9; stroke:none; fill-opacity:0" cx="1526.15" cy="609.635" r="2"/>
<circle clip-path="url(#clip462)" style="fill:#009af9; stroke:none; fill-opacity:0" cx="1634.73" cy="1020.85" r="2"/>
<circle clip-path="url(#clip462)" style="fill:#009af9; stroke:none; fill-opacity:0" cx="1743.32" cy="1171.1" r="2"/>
<circle clip-path="url(#clip462)" style="fill:#009af9; stroke:none; fill-opacity:0" cx="1851.91" cy="1364.05" r="2"/>
<circle clip-path="url(#clip462)" style="fill:#009af9; stroke:none; fill-opacity:0" cx="1960.49" cy="1419.4" r="2"/>
<circle clip-path="url(#clip462)" style="fill:#009af9; stroke:none; fill-opacity:0" cx="2069.08" cy="1441.55" r="2"/>
<circle clip-path="url(#clip462)" style="fill:#009af9; stroke:none; fill-opacity:0" cx="2177.67" cy="1444.71" r="2"/>
</svg>
