<?xml version="1.0" encoding="utf-8"?>
<svg xmlns="http://www.w3.org/2000/svg" xmlns:xlink="http://www.w3.org/1999/xlink" width="600" height="400" viewBox="0 0 2400 1600">
<defs>
  <clipPath id="clip880">
    <rect x="0" y="0" width="2400" height="1600"/>
  </clipPath>
</defs>
<path clip-path="url(#clip880)" d="
M0 1600 L2400 1600 L2400 0 L0 0  Z
  " fill="#ffffff" fill-rule="evenodd" fill-opacity="1"/>
<defs>
  <clipPath id="clip881">
    <rect x="480" y="0" width="1681" height="1600"/>
  </clipPath>
</defs>
<path clip-path="url(#clip880)" d="
M156.112 1486.45 L2352.76 1486.45 L2352.76 123.472 L156.112 123.472  Z
  " fill="#ffffff" fill-rule="evenodd" fill-opacity="1"/>
<defs>
  <clipPath id="clip882">
    <rect x="156" y="123" width="2198" height="1364"/>
  </clipPath>
</defs>
<polyline clip-path="url(#clip882)" style="stroke:#000000; stroke-linecap:butt; stroke-linejoin:round; stroke-width:2; stroke-opacity:0.1; fill:none" points="
  218.281,1486.45 218.281,123.472 
  "/>
<polyline clip-path="url(#clip882)" style="stroke:#000000; stroke-linecap:butt; stroke-linejoin:round; stroke-width:2; stroke-opacity:0.1; fill:none" points="
  736.358,1486.45 736.358,123.472 
  "/>
<polyline clip-path="url(#clip882)" style="stroke:#000000; stroke-linecap:butt; stroke-linejoin:round; stroke-width:2; stroke-opacity:0.1; fill:none" points="
  1254.43,1486.45 1254.43,123.472 
  "/>
<polyline clip-path="url(#clip882)" style="stroke:#000000; stroke-linecap:butt; stroke-linejoin:round; stroke-width:2; stroke-opacity:0.1; fill:none" points="
  1772.51,1486.45 1772.51,123.472 
  "/>
<polyline clip-path="url(#clip882)" style="stroke:#000000; stroke-linecap:butt; stroke-linejoin:round; stroke-width:2; stroke-opacity:0.1; fill:none" points="
  2290.59,1486.45 2290.59,123.472 
  "/>
<polyline clip-path="url(#clip880)" style="stroke:#000000; stroke-linecap:butt; stroke-linejoin:round; stroke-width:4; stroke-opacity:1; fill:none" points="
  156.112,1486.45 2352.76,1486.45 
  "/>
<polyline clip-path="url(#clip880)" style="stroke:#000000; stroke-linecap:butt; stroke-linejoin:round; stroke-width:4; stroke-opacity:1; fill:none" points="
  218.281,1486.45 218.281,1467.55 
  "/>
<polyline clip-path="url(#clip880)" style="stroke:#000000; stroke-linecap:butt; stroke-linejoin:round; stroke-width:4; stroke-opacity:1; fill:none" points="
  736.358,1486.45 736.358,1467.55 
  "/>
<polyline clip-path="url(#clip880)" style="stroke:#000000; stroke-linecap:butt; stroke-linejoin:round; stroke-width:4; stroke-opacity:1; fill:none" points="
  1254.43,1486.45 1254.43,1467.55 
  "/>
<polyline clip-path="url(#clip880)" style="stroke:#000000; stroke-linecap:butt; stroke-linejoin:round; stroke-width:4; stroke-opacity:1; fill:none" points="
  1772.51,1486.45 1772.51,1467.55 
  "/>
<polyline clip-path="url(#clip880)" style="stroke:#000000; stroke-linecap:butt; stroke-linejoin:round; stroke-width:4; stroke-opacity:1; fill:none" points="
  2290.59,1486.45 2290.59,1467.55 
  "/>
<path clip-path="url(#clip880)" d="M164.809 1532.02 L194.485 1532.02 L194.485 1535.95 L164.809 1535.95 L164.809 1532.02 Z" fill="#000000" fill-rule="evenodd" fill-opacity="1" /><path clip-path="url(#clip880)" d="M205.388 1544.91 L213.027 1544.91 L213.027 1518.55 L204.717 1520.21 L204.717 1515.95 L212.98 1514.29 L217.656 1514.29 L217.656 1544.91 L225.295 1544.91 L225.295 1548.85 L205.388 1548.85 L205.388 1544.91 Z" fill="#000000" fill-rule="evenodd" fill-opacity="1" /><path clip-path="url(#clip880)" d="M234.74 1542.97 L239.624 1542.97 L239.624 1548.85 L234.74 1548.85 L234.74 1542.97 Z" fill="#000000" fill-rule="evenodd" fill-opacity="1" /><path clip-path="url(#clip880)" d="M259.809 1517.37 Q256.198 1517.37 254.369 1520.93 Q252.564 1524.47 252.564 1531.6 Q252.564 1538.71 254.369 1542.27 Q256.198 1545.82 259.809 1545.82 Q263.443 1545.82 265.249 1542.27 Q267.077 1538.71 267.077 1531.6 Q267.077 1524.47 265.249 1520.93 Q263.443 1517.37 259.809 1517.37 M259.809 1513.66 Q265.619 1513.66 268.675 1518.27 Q271.753 1522.85 271.753 1531.6 Q271.753 1540.33 268.675 1544.94 Q265.619 1549.52 259.809 1549.52 Q253.999 1549.52 250.92 1544.94 Q247.864 1540.33 247.864 1531.6 Q247.864 1522.85 250.92 1518.27 Q253.999 1513.66 259.809 1513.66 Z" fill="#000000" fill-rule="evenodd" fill-opacity="1" /><path clip-path="url(#clip880)" d="M683.383 1532.02 L713.059 1532.02 L713.059 1535.95 L683.383 1535.95 L683.383 1532.02 Z" fill="#000000" fill-rule="evenodd" fill-opacity="1" /><path clip-path="url(#clip880)" d="M733.152 1517.37 Q729.541 1517.37 727.712 1520.93 Q725.906 1524.47 725.906 1531.6 Q725.906 1538.71 727.712 1542.27 Q729.541 1545.82 733.152 1545.82 Q736.786 1545.82 738.591 1542.27 Q740.42 1538.71 740.42 1531.6 Q740.42 1524.47 738.591 1520.93 Q736.786 1517.37 733.152 1517.37 M733.152 1513.66 Q738.962 1513.66 742.017 1518.27 Q745.096 1522.85 745.096 1531.6 Q745.096 1540.33 742.017 1544.94 Q738.962 1549.52 733.152 1549.52 Q727.341 1549.52 724.263 1544.94 Q721.207 1540.33 721.207 1531.6 Q721.207 1522.85 724.263 1518.27 Q727.341 1513.66 733.152 1513.66 Z" fill="#000000" fill-rule="evenodd" fill-opacity="1" /><path clip-path="url(#clip880)" d="M753.314 1542.97 L758.198 1542.97 L758.198 1548.85 L753.314 1548.85 L753.314 1542.97 Z" fill="#000000" fill-rule="evenodd" fill-opacity="1" /><path clip-path="url(#clip880)" d="M768.429 1514.29 L786.786 1514.29 L786.786 1518.22 L772.712 1518.22 L772.712 1526.7 Q773.73 1526.35 774.749 1526.19 Q775.767 1526 776.786 1526 Q782.573 1526 785.952 1529.17 Q789.332 1532.34 789.332 1537.76 Q789.332 1543.34 785.86 1546.44 Q782.387 1549.52 776.068 1549.52 Q773.892 1549.52 771.624 1549.15 Q769.378 1548.78 766.971 1548.04 L766.971 1543.34 Q769.054 1544.47 771.276 1545.03 Q773.499 1545.58 775.975 1545.58 Q779.98 1545.58 782.318 1543.48 Q784.656 1541.37 784.656 1537.76 Q784.656 1534.15 782.318 1532.04 Q779.98 1529.94 775.975 1529.94 Q774.101 1529.94 772.226 1530.35 Q770.374 1530.77 768.429 1531.65 L768.429 1514.29 Z" fill="#000000" fill-rule="evenodd" fill-opacity="1" /><path clip-path="url(#clip880)" d="M1231.82 1517.37 Q1228.21 1517.37 1226.38 1520.93 Q1224.57 1524.47 1224.57 1531.6 Q1224.57 1538.71 1226.38 1542.27 Q1228.21 1545.82 1231.82 1545.82 Q1235.45 1545.82 1237.26 1542.27 Q1239.09 1538.71 1239.09 1531.6 Q1239.09 1524.47 1237.26 1520.93 Q1235.45 1517.37 1231.82 1517.37 M1231.82 1513.66 Q1237.63 1513.66 1240.68 1518.27 Q1243.76 1522.85 1243.76 1531.6 Q1243.76 1540.33 1240.68 1544.94 Q1237.63 1549.52 1231.82 1549.52 Q1226.01 1549.52 1222.93 1544.94 Q1219.87 1540.33 1219.87 1531.6 Q1219.87 1522.85 1222.93 1518.27 Q1226.01 1513.66 1231.82 1513.66 Z" fill="#000000" fill-rule="evenodd" fill-opacity="1" /><path clip-path="url(#clip880)" d="M1251.98 1542.97 L1256.86 1542.97 L1256.86 1548.85 L1251.98 1548.85 L1251.98 1542.97 Z" fill="#000000" fill-rule="evenodd" fill-opacity="1" /><path clip-path="url(#clip880)" d="M1277.05 1517.37 Q1273.44 1517.37 1271.61 1520.93 Q1269.8 1524.47 1269.8 1531.6 Q1269.8 1538.71 1271.61 1542.27 Q1273.44 1545.82 1277.05 1545.82 Q1280.68 1545.82 1282.49 1542.27 Q1284.32 1538.71 1284.32 1531.6 Q1284.32 1524.47 1282.49 1520.93 Q1280.68 1517.37 1277.05 1517.37 M1277.05 1513.66 Q1282.86 1513.66 1285.92 1518.27 Q1288.99 1522.85 1288.99 1531.6 Q1288.99 1540.33 1285.92 1544.94 Q1282.86 1549.52 1277.05 1549.52 Q1271.24 1549.52 1268.16 1544.94 Q1265.11 1540.33 1265.11 1531.6 Q1265.11 1522.85 1268.16 1518.27 Q1271.24 1513.66 1277.05 1513.66 Z" fill="#000000" fill-rule="evenodd" fill-opacity="1" /><path clip-path="url(#clip880)" d="M1750.39 1517.37 Q1746.78 1517.37 1744.95 1520.93 Q1743.15 1524.47 1743.15 1531.6 Q1743.15 1538.71 1744.95 1542.27 Q1746.78 1545.82 1750.39 1545.82 Q1754.03 1545.82 1755.83 1542.27 Q1757.66 1538.71 1757.66 1531.6 Q1757.66 1524.47 1755.83 1520.93 Q1754.03 1517.37 1750.39 1517.37 M1750.39 1513.66 Q1756.2 1513.66 1759.26 1518.27 Q1762.34 1522.85 1762.34 1531.6 Q1762.34 1540.33 1759.26 1544.94 Q1756.2 1549.52 1750.39 1549.52 Q1744.58 1549.52 1741.5 1544.94 Q1738.45 1540.33 1738.45 1531.6 Q1738.45 1522.85 1741.5 1518.27 Q1744.58 1513.66 1750.39 1513.66 Z" fill="#000000" fill-rule="evenodd" fill-opacity="1" /><path clip-path="url(#clip880)" d="M1770.55 1542.97 L1775.44 1542.97 L1775.44 1548.85 L1770.55 1548.85 L1770.55 1542.97 Z" fill="#000000" fill-rule="evenodd" fill-opacity="1" /><path clip-path="url(#clip880)" d="M1785.67 1514.29 L1804.03 1514.29 L1804.03 1518.22 L1789.95 1518.22 L1789.95 1526.7 Q1790.97 1526.35 1791.99 1526.19 Q1793.01 1526 1794.03 1526 Q1799.81 1526 1803.19 1529.17 Q1806.57 1532.34 1806.57 1537.76 Q1806.57 1543.34 1803.1 1546.44 Q1799.63 1549.52 1793.31 1549.52 Q1791.13 1549.52 1788.86 1549.15 Q1786.62 1548.78 1784.21 1548.04 L1784.21 1543.34 Q1786.3 1544.47 1788.52 1545.03 Q1790.74 1545.58 1793.22 1545.58 Q1797.22 1545.58 1799.56 1543.48 Q1801.9 1541.37 1801.9 1537.76 Q1801.9 1534.15 1799.56 1532.04 Q1797.22 1529.94 1793.22 1529.94 Q1791.34 1529.94 1789.47 1530.35 Q1787.61 1530.77 1785.67 1531.65 L1785.67 1514.29 Z" fill="#000000" fill-rule="evenodd" fill-opacity="1" /><path clip-path="url(#clip880)" d="M2257.74 1544.91 L2265.38 1544.91 L2265.38 1518.55 L2257.07 1520.21 L2257.07 1515.95 L2265.33 1514.29 L2270.01 1514.29 L2270.01 1544.91 L2277.65 1544.91 L2277.65 1548.85 L2257.74 1548.85 L2257.74 1544.91 Z" fill="#000000" fill-rule="evenodd" fill-opacity="1" /><path clip-path="url(#clip880)" d="M2287.09 1542.97 L2291.98 1542.97 L2291.98 1548.85 L2287.09 1548.85 L2287.09 1542.97 Z" fill="#000000" fill-rule="evenodd" fill-opacity="1" /><path clip-path="url(#clip880)" d="M2312.16 1517.37 Q2308.55 1517.37 2306.72 1520.93 Q2304.92 1524.47 2304.92 1531.6 Q2304.92 1538.71 2306.72 1542.27 Q2308.55 1545.82 2312.16 1545.82 Q2315.79 1545.82 2317.6 1542.27 Q2319.43 1538.71 2319.43 1531.6 Q2319.43 1524.47 2317.6 1520.93 Q2315.79 1517.37 2312.16 1517.37 M2312.16 1513.66 Q2317.97 1513.66 2321.03 1518.27 Q2324.11 1522.85 2324.11 1531.6 Q2324.11 1540.33 2321.03 1544.94 Q2317.97 1549.52 2312.16 1549.52 Q2306.35 1549.52 2303.27 1544.94 Q2300.22 1540.33 2300.22 1531.6 Q2300.22 1522.85 2303.27 1518.27 Q2306.35 1513.66 2312.16 1513.66 Z" fill="#000000" fill-rule="evenodd" fill-opacity="1" /><polyline clip-path="url(#clip882)" style="stroke:#000000; stroke-linecap:butt; stroke-linejoin:round; stroke-width:2; stroke-opacity:0.1; fill:none" points="
  156.112,1447.88 2352.76,1447.88 
  "/>
<polyline clip-path="url(#clip882)" style="stroke:#000000; stroke-linecap:butt; stroke-linejoin:round; stroke-width:2; stroke-opacity:0.1; fill:none" points="
  156.112,1125.16 2352.76,1125.16 
  "/>
<polyline clip-path="url(#clip882)" style="stroke:#000000; stroke-linecap:butt; stroke-linejoin:round; stroke-width:2; stroke-opacity:0.1; fill:none" points="
  156.112,802.435 2352.76,802.435 
  "/>
<polyline clip-path="url(#clip882)" style="stroke:#000000; stroke-linecap:butt; stroke-linejoin:round; stroke-width:2; stroke-opacity:0.1; fill:none" points="
  156.112,479.714 2352.76,479.714 
  "/>
<polyline clip-path="url(#clip882)" style="stroke:#000000; stroke-linecap:butt; stroke-linejoin:round; stroke-width:2; stroke-opacity:0.1; fill:none" points="
  156.112,156.992 2352.76,156.992 
  "/>
<polyline clip-path="url(#clip880)" style="stroke:#000000; stroke-linecap:butt; stroke-linejoin:round; stroke-width:4; stroke-opacity:1; fill:none" points="
  156.112,1486.45 156.112,123.472 
  "/>
<polyline clip-path="url(#clip880)" style="stroke:#000000; stroke-linecap:butt; stroke-linejoin:round; stroke-width:4; stroke-opacity:1; fill:none" points="
  156.112,1447.88 175.01,1447.88 
  "/>
<polyline clip-path="url(#clip880)" style="stroke:#000000; stroke-linecap:butt; stroke-linejoin:round; stroke-width:4; stroke-opacity:1; fill:none" points="
  156.112,1125.16 175.01,1125.16 
  "/>
<polyline clip-path="url(#clip880)" style="stroke:#000000; stroke-linecap:butt; stroke-linejoin:round; stroke-width:4; stroke-opacity:1; fill:none" points="
  156.112,802.435 175.01,802.435 
  "/>
<polyline clip-path="url(#clip880)" style="stroke:#000000; stroke-linecap:butt; stroke-linejoin:round; stroke-width:4; stroke-opacity:1; fill:none" points="
  156.112,479.714 175.01,479.714 
  "/>
<polyline clip-path="url(#clip880)" style="stroke:#000000; stroke-linecap:butt; stroke-linejoin:round; stroke-width:4; stroke-opacity:1; fill:none" points="
  156.112,156.992 175.01,156.992 
  "/>
<path clip-path="url(#clip880)" d="M62.9365 1433.68 Q59.3254 1433.68 57.4967 1437.24 Q55.6912 1440.78 55.6912 1447.91 Q55.6912 1455.02 57.4967 1458.58 Q59.3254 1462.13 62.9365 1462.13 Q66.5707 1462.13 68.3763 1458.58 Q70.205 1455.02 70.205 1447.91 Q70.205 1440.78 68.3763 1437.24 Q66.5707 1433.68 62.9365 1433.68 M62.9365 1429.97 Q68.7467 1429.97 71.8022 1434.58 Q74.8809 1439.16 74.8809 1447.91 Q74.8809 1456.64 71.8022 1461.25 Q68.7467 1465.83 62.9365 1465.83 Q57.1264 1465.83 54.0477 1461.25 Q50.9921 1456.64 50.9921 1447.91 Q50.9921 1439.16 54.0477 1434.58 Q57.1264 1429.97 62.9365 1429.97 Z" fill="#000000" fill-rule="evenodd" fill-opacity="1" /><path clip-path="url(#clip880)" d="M83.0984 1459.28 L87.9827 1459.28 L87.9827 1465.16 L83.0984 1465.16 L83.0984 1459.28 Z" fill="#000000" fill-rule="evenodd" fill-opacity="1" /><path clip-path="url(#clip880)" d="M108.168 1433.68 Q104.557 1433.68 102.728 1437.24 Q100.922 1440.78 100.922 1447.91 Q100.922 1455.02 102.728 1458.58 Q104.557 1462.13 108.168 1462.13 Q111.802 1462.13 113.608 1458.58 Q115.436 1455.02 115.436 1447.91 Q115.436 1440.78 113.608 1437.24 Q111.802 1433.68 108.168 1433.68 M108.168 1429.97 Q113.978 1429.97 117.033 1434.58 Q120.112 1439.16 120.112 1447.91 Q120.112 1456.64 117.033 1461.25 Q113.978 1465.83 108.168 1465.83 Q102.358 1465.83 99.2789 1461.25 Q96.2234 1456.64 96.2234 1447.91 Q96.2234 1439.16 99.2789 1434.58 Q102.358 1429.97 108.168 1429.97 Z" fill="#000000" fill-rule="evenodd" fill-opacity="1" /><path clip-path="url(#clip880)" d="M63.9319 1110.96 Q60.3208 1110.96 58.4921 1114.52 Q56.6865 1118.06 56.6865 1125.19 Q56.6865 1132.3 58.4921 1135.86 Q60.3208 1139.4 63.9319 1139.4 Q67.5661 1139.4 69.3717 1135.86 Q71.2004 1132.3 71.2004 1125.19 Q71.2004 1118.06 69.3717 1114.52 Q67.5661 1110.96 63.9319 1110.96 M63.9319 1107.25 Q69.742 1107.25 72.7976 1111.86 Q75.8763 1116.44 75.8763 1125.19 Q75.8763 1133.92 72.7976 1138.52 Q69.742 1143.11 63.9319 1143.11 Q58.1217 1143.11 55.043 1138.52 Q51.9875 1133.92 51.9875 1125.19 Q51.9875 1116.44 55.043 1111.86 Q58.1217 1107.25 63.9319 1107.25 Z" fill="#000000" fill-rule="evenodd" fill-opacity="1" /><path clip-path="url(#clip880)" d="M84.0938 1136.56 L88.978 1136.56 L88.978 1142.44 L84.0938 1142.44 L84.0938 1136.56 Z" fill="#000000" fill-rule="evenodd" fill-opacity="1" /><path clip-path="url(#clip880)" d="M99.2095 1107.88 L117.566 1107.88 L117.566 1111.81 L103.492 1111.81 L103.492 1120.28 Q104.51 1119.94 105.529 1119.77 Q106.547 1119.59 107.566 1119.59 Q113.353 1119.59 116.733 1122.76 Q120.112 1125.93 120.112 1131.35 Q120.112 1136.93 116.64 1140.03 Q113.168 1143.11 106.848 1143.11 Q104.672 1143.11 102.404 1142.74 Q100.159 1142.37 97.7511 1141.63 L97.7511 1136.93 Q99.8345 1138.06 102.057 1138.62 Q104.279 1139.17 106.756 1139.17 Q110.76 1139.17 113.098 1137.07 Q115.436 1134.96 115.436 1131.35 Q115.436 1127.74 113.098 1125.63 Q110.76 1123.52 106.756 1123.52 Q104.881 1123.52 103.006 1123.94 Q101.154 1124.36 99.2095 1125.24 L99.2095 1107.88 Z" fill="#000000" fill-rule="evenodd" fill-opacity="1" /><path clip-path="url(#clip880)" d="M53.7467 815.78 L61.3856 815.78 L61.3856 789.414 L53.0754 791.081 L53.0754 786.822 L61.3393 785.155 L66.0152 785.155 L66.0152 815.78 L73.654 815.78 L73.654 819.715 L53.7467 819.715 L53.7467 815.78 Z" fill="#000000" fill-rule="evenodd" fill-opacity="1" /><path clip-path="url(#clip880)" d="M83.0984 813.836 L87.9827 813.836 L87.9827 819.715 L83.0984 819.715 L83.0984 813.836 Z" fill="#000000" fill-rule="evenodd" fill-opacity="1" /><path clip-path="url(#clip880)" d="M108.168 788.234 Q104.557 788.234 102.728 791.799 Q100.922 795.34 100.922 802.47 Q100.922 809.576 102.728 813.141 Q104.557 816.683 108.168 816.683 Q111.802 816.683 113.608 813.141 Q115.436 809.576 115.436 802.47 Q115.436 795.34 113.608 791.799 Q111.802 788.234 108.168 788.234 M108.168 784.53 Q113.978 784.53 117.033 789.137 Q120.112 793.72 120.112 802.47 Q120.112 811.197 117.033 815.803 Q113.978 820.386 108.168 820.386 Q102.358 820.386 99.2789 815.803 Q96.2234 811.197 96.2234 802.47 Q96.2234 793.72 99.2789 789.137 Q102.358 784.53 108.168 784.53 Z" fill="#000000" fill-rule="evenodd" fill-opacity="1" /><path clip-path="url(#clip880)" d="M54.7421 493.059 L62.381 493.059 L62.381 466.693 L54.0708 468.36 L54.0708 464.1 L62.3347 462.434 L67.0106 462.434 L67.0106 493.059 L74.6494 493.059 L74.6494 496.994 L54.7421 496.994 L54.7421 493.059 Z" fill="#000000" fill-rule="evenodd" fill-opacity="1" /><path clip-path="url(#clip880)" d="M84.0938 491.114 L88.978 491.114 L88.978 496.994 L84.0938 496.994 L84.0938 491.114 Z" fill="#000000" fill-rule="evenodd" fill-opacity="1" /><path clip-path="url(#clip880)" d="M99.2095 462.434 L117.566 462.434 L117.566 466.369 L103.492 466.369 L103.492 474.841 Q104.51 474.494 105.529 474.332 Q106.547 474.147 107.566 474.147 Q113.353 474.147 116.733 477.318 Q120.112 480.489 120.112 485.906 Q120.112 491.485 116.64 494.586 Q113.168 497.665 106.848 497.665 Q104.672 497.665 102.404 497.295 Q100.159 496.924 97.7511 496.184 L97.7511 491.485 Q99.8345 492.619 102.057 493.174 Q104.279 493.73 106.756 493.73 Q110.76 493.73 113.098 491.623 Q115.436 489.517 115.436 485.906 Q115.436 482.295 113.098 480.188 Q110.76 478.082 106.756 478.082 Q104.881 478.082 103.006 478.499 Q101.154 478.915 99.2095 479.795 L99.2095 462.434 Z" fill="#000000" fill-rule="evenodd" fill-opacity="1" /><path clip-path="url(#clip880)" d="M56.9643 170.337 L73.2837 170.337 L73.2837 174.272 L51.3393 174.272 L51.3393 170.337 Q54.0014 167.583 58.5847 162.953 Q63.1911 158.3 64.3717 156.958 Q66.617 154.435 67.4967 152.698 Q68.3994 150.939 68.3994 149.249 Q68.3994 146.495 66.455 144.759 Q64.5337 143.023 61.4319 143.023 Q59.2328 143.023 56.7791 143.787 Q54.3486 144.55 51.5708 146.101 L51.5708 141.379 Q54.3949 140.245 56.8486 139.666 Q59.3023 139.087 61.3393 139.087 Q66.7096 139.087 69.9041 141.773 Q73.0985 144.458 73.0985 148.949 Q73.0985 151.078 72.2883 152.999 Q71.5013 154.898 69.3948 157.49 Q68.8161 158.161 65.7143 161.379 Q62.6124 164.573 56.9643 170.337 Z" fill="#000000" fill-rule="evenodd" fill-opacity="1" /><path clip-path="url(#clip880)" d="M83.0984 168.393 L87.9827 168.393 L87.9827 174.272 L83.0984 174.272 L83.0984 168.393 Z" fill="#000000" fill-rule="evenodd" fill-opacity="1" /><path clip-path="url(#clip880)" d="M108.168 142.791 Q104.557 142.791 102.728 146.356 Q100.922 149.898 100.922 157.027 Q100.922 164.134 102.728 167.698 Q104.557 171.24 108.168 171.24 Q111.802 171.24 113.608 167.698 Q115.436 164.134 115.436 157.027 Q115.436 149.898 113.608 146.356 Q111.802 142.791 108.168 142.791 M108.168 139.087 Q113.978 139.087 117.033 143.694 Q120.112 148.277 120.112 157.027 Q120.112 165.754 117.033 170.36 Q113.978 174.944 108.168 174.944 Q102.358 174.944 99.2789 170.36 Q96.2234 165.754 96.2234 157.027 Q96.2234 148.277 99.2789 143.694 Q102.358 139.087 108.168 139.087 Z" fill="#000000" fill-rule="evenodd" fill-opacity="1" /><path clip-path="url(#clip880)" d="M552.777 16.7545 L552.777 25.383 Q548.645 21.5346 543.946 19.6307 Q539.287 17.7268 534.021 17.7268 Q523.651 17.7268 518.142 24.0867 Q512.632 30.4061 512.632 42.3968 Q512.632 54.3469 518.142 60.7069 Q523.651 67.0263 534.021 67.0263 Q539.287 67.0263 543.946 65.1223 Q548.645 63.2184 552.777 59.3701 L552.777 67.9175 Q548.483 70.8341 543.662 72.2924 Q538.882 73.7508 533.535 73.7508 Q519.803 73.7508 511.903 65.3654 Q504.004 56.9395 504.004 42.3968 Q504.004 27.8135 511.903 19.4281 Q519.803 11.0023 533.535 11.0023 Q538.963 11.0023 543.743 12.4606 Q548.564 13.8784 552.777 16.7545 Z" fill="#000000" fill-rule="evenodd" fill-opacity="1" /><path clip-path="url(#clip880)" d="M582.673 32.4315 Q576.677 32.4315 573.193 37.1306 Q569.71 41.7891 569.71 49.9314 Q569.71 58.0738 573.153 62.7728 Q576.637 67.4314 582.673 67.4314 Q588.627 67.4314 592.111 62.7323 Q595.595 58.0333 595.595 49.9314 Q595.595 41.8701 592.111 37.1711 Q588.627 32.4315 582.673 32.4315 M582.673 26.1121 Q592.395 26.1121 597.944 32.4315 Q603.494 38.7509 603.494 49.9314 Q603.494 61.0714 597.944 67.4314 Q592.395 73.7508 582.673 73.7508 Q572.91 73.7508 567.36 67.4314 Q561.851 61.0714 561.851 49.9314 Q561.851 38.7509 567.36 32.4315 Q572.91 26.1121 582.673 26.1121 Z" fill="#000000" fill-rule="evenodd" fill-opacity="1" /><path clip-path="url(#clip880)" d="M653.563 45.1919 L653.563 72.576 L646.11 72.576 L646.11 45.4349 Q646.11 38.994 643.598 35.7938 Q641.087 32.5936 636.063 32.5936 Q630.028 32.5936 626.544 36.4419 Q623.06 40.2903 623.06 46.9338 L623.06 72.576 L615.566 72.576 L615.566 27.2059 L623.06 27.2059 L623.06 34.2544 Q625.734 30.163 629.339 28.1376 Q632.985 26.1121 637.724 26.1121 Q645.543 26.1121 649.553 30.9732 Q653.563 35.7938 653.563 45.1919 Z" fill="#000000" fill-rule="evenodd" fill-opacity="1" /><path clip-path="url(#clip880)" d="M698.285 34.0924 L698.285 9.54393 L705.739 9.54393 L705.739 72.576 L698.285 72.576 L698.285 65.7705 Q695.936 69.8214 692.331 71.8063 Q688.766 73.7508 683.743 73.7508 Q675.519 73.7508 670.334 67.1883 Q665.189 60.6258 665.189 49.9314 Q665.189 39.2371 670.334 32.6746 Q675.519 26.1121 683.743 26.1121 Q688.766 26.1121 692.331 28.0971 Q695.936 30.0415 698.285 34.0924 M672.886 49.9314 Q672.886 58.1548 676.248 62.8538 Q679.651 67.5124 685.566 67.5124 Q691.48 67.5124 694.883 62.8538 Q698.285 58.1548 698.285 49.9314 Q698.285 41.7081 694.883 37.0496 Q691.48 32.3505 685.566 32.3505 Q679.651 32.3505 676.248 37.0496 Q672.886 41.7081 672.886 49.9314 Z" fill="#000000" fill-rule="evenodd" fill-opacity="1" /><path clip-path="url(#clip880)" d="M721.092 27.2059 L728.546 27.2059 L728.546 72.576 L721.092 72.576 L721.092 27.2059 M721.092 9.54393 L728.546 9.54393 L728.546 18.9825 L721.092 18.9825 L721.092 9.54393 Z" fill="#000000" fill-rule="evenodd" fill-opacity="1" /><path clip-path="url(#clip880)" d="M751.514 14.324 L751.514 27.2059 L766.867 27.2059 L766.867 32.9987 L751.514 32.9987 L751.514 57.6282 Q751.514 63.1779 753.013 64.7578 Q754.552 66.3376 759.211 66.3376 L766.867 66.3376 L766.867 72.576 L759.211 72.576 Q750.583 72.576 747.301 69.3758 Q744.02 66.1351 744.02 57.6282 L744.02 32.9987 L738.551 32.9987 L738.551 27.2059 L744.02 27.2059 L744.02 14.324 L751.514 14.324 Z" fill="#000000" fill-rule="evenodd" fill-opacity="1" /><path clip-path="url(#clip880)" d="M776.67 27.2059 L784.124 27.2059 L784.124 72.576 L776.67 72.576 L776.67 27.2059 M776.67 9.54393 L784.124 9.54393 L784.124 18.9825 L776.67 18.9825 L776.67 9.54393 Z" fill="#000000" fill-rule="evenodd" fill-opacity="1" /><path clip-path="url(#clip880)" d="M817.301 32.4315 Q811.306 32.4315 807.822 37.1306 Q804.338 41.7891 804.338 49.9314 Q804.338 58.0738 807.781 62.7728 Q811.265 67.4314 817.301 67.4314 Q823.256 67.4314 826.74 62.7323 Q830.223 58.0333 830.223 49.9314 Q830.223 41.8701 826.74 37.1711 Q823.256 32.4315 817.301 32.4315 M817.301 26.1121 Q827.023 26.1121 832.573 32.4315 Q838.123 38.7509 838.123 49.9314 Q838.123 61.0714 832.573 67.4314 Q827.023 73.7508 817.301 73.7508 Q807.538 73.7508 801.989 67.4314 Q796.479 61.0714 796.479 49.9314 Q796.479 38.7509 801.989 32.4315 Q807.538 26.1121 817.301 26.1121 Z" fill="#000000" fill-rule="evenodd" fill-opacity="1" /><path clip-path="url(#clip880)" d="M888.192 45.1919 L888.192 72.576 L880.738 72.576 L880.738 45.4349 Q880.738 38.994 878.227 35.7938 Q875.715 32.5936 870.692 32.5936 Q864.656 32.5936 861.172 36.4419 Q857.688 40.2903 857.688 46.9338 L857.688 72.576 L850.194 72.576 L850.194 27.2059 L857.688 27.2059 L857.688 34.2544 Q860.362 30.163 863.967 28.1376 Q867.613 26.1121 872.353 26.1121 Q880.171 26.1121 884.181 30.9732 Q888.192 35.7938 888.192 45.1919 Z" fill="#000000" fill-rule="evenodd" fill-opacity="1" /><path clip-path="url(#clip880)" d="M923.678 49.7694 Q914.644 49.7694 911.16 51.8354 Q907.677 53.9013 907.677 58.8839 Q907.677 62.8538 910.269 65.2034 Q912.902 67.5124 917.399 67.5124 Q923.597 67.5124 927.324 63.1374 Q931.091 58.7219 931.091 51.4303 L931.091 49.7694 L923.678 49.7694 M938.545 46.6907 L938.545 72.576 L931.091 72.576 L931.091 65.6895 Q928.539 69.8214 924.731 71.8063 Q920.923 73.7508 915.414 73.7508 Q908.446 73.7508 904.314 69.8619 Q900.223 65.9325 900.223 59.3701 Q900.223 51.7138 905.327 47.825 Q910.472 43.9361 920.64 43.9361 L931.091 43.9361 L931.091 43.2069 Q931.091 38.0623 927.688 35.2672 Q924.326 32.4315 918.209 32.4315 Q914.32 32.4315 910.634 33.3632 Q906.947 34.295 903.545 36.1584 L903.545 29.2718 Q907.636 27.692 911.484 26.9223 Q915.333 26.1121 918.979 26.1121 Q928.822 26.1121 933.683 31.2163 Q938.545 36.3204 938.545 46.6907 Z" fill="#000000" fill-rule="evenodd" fill-opacity="1" /><path clip-path="url(#clip880)" d="M953.897 9.54393 L961.351 9.54393 L961.351 72.576 L953.897 72.576 L953.897 9.54393 Z" fill="#000000" fill-rule="evenodd" fill-opacity="1" /><path clip-path="url(#clip880)" d="M1010.53 65.7705 L1010.53 89.8329 L1003.03 89.8329 L1003.03 27.2059 L1010.53 27.2059 L1010.53 34.0924 Q1012.88 30.0415 1016.44 28.0971 Q1020.05 26.1121 1025.03 26.1121 Q1033.3 26.1121 1038.44 32.6746 Q1043.62 39.2371 1043.62 49.9314 Q1043.62 60.6258 1038.44 67.1883 Q1033.3 73.7508 1025.03 73.7508 Q1020.05 73.7508 1016.44 71.8063 Q1012.88 69.8214 1010.53 65.7705 M1035.89 49.9314 Q1035.89 41.7081 1032.48 37.0496 Q1029.12 32.3505 1023.21 32.3505 Q1017.29 32.3505 1013.89 37.0496 Q1010.53 41.7081 1010.53 49.9314 Q1010.53 58.1548 1013.89 62.8538 Q1017.29 67.5124 1023.21 67.5124 Q1029.12 67.5124 1032.48 62.8538 Q1035.89 58.1548 1035.89 49.9314 Z" fill="#000000" fill-rule="evenodd" fill-opacity="1" /><path clip-path="url(#clip880)" d="M1085.84 34.0924 L1085.84 9.54393 L1093.29 9.54393 L1093.29 72.576 L1085.84 72.576 L1085.84 65.7705 Q1083.49 69.8214 1079.88 71.8063 Q1076.32 73.7508 1071.29 73.7508 Q1063.07 73.7508 1057.88 67.1883 Q1052.74 60.6258 1052.74 49.9314 Q1052.74 39.2371 1057.88 32.6746 Q1063.07 26.1121 1071.29 26.1121 Q1076.32 26.1121 1079.88 28.0971 Q1083.49 30.0415 1085.84 34.0924 M1060.44 49.9314 Q1060.44 58.1548 1063.8 62.8538 Q1067.2 67.5124 1073.12 67.5124 Q1079.03 67.5124 1082.43 62.8538 Q1085.84 58.1548 1085.84 49.9314 Q1085.84 41.7081 1082.43 37.0496 Q1079.03 32.3505 1073.12 32.3505 Q1067.2 32.3505 1063.8 37.0496 Q1060.44 41.7081 1060.44 49.9314 Z" fill="#000000" fill-rule="evenodd" fill-opacity="1" /><path clip-path="url(#clip880)" d="M1131.61 9.54393 L1131.61 15.7418 L1124.48 15.7418 Q1120.47 15.7418 1118.89 17.3622 Q1117.35 18.9825 1117.35 23.1955 L1117.35 27.2059 L1129.63 27.2059 L1129.63 32.9987 L1117.35 32.9987 L1117.35 72.576 L1109.86 72.576 L1109.86 32.9987 L1102.73 32.9987 L1102.73 27.2059 L1109.86 27.2059 L1109.86 24.0462 Q1109.86 16.471 1113.38 13.0277 Q1116.91 9.54393 1124.56 9.54393 L1131.61 9.54393 Z" fill="#000000" fill-rule="evenodd" fill-opacity="1" /><path clip-path="url(#clip880)" d="M1187.19 9.54393 L1187.19 15.7418 L1180.06 15.7418 Q1176.05 15.7418 1174.47 17.3622 Q1172.93 18.9825 1172.93 23.1955 L1172.93 27.2059 L1185.2 27.2059 L1185.2 32.9987 L1172.93 32.9987 L1172.93 72.576 L1165.44 72.576 L1165.44 32.9987 L1158.31 32.9987 L1158.31 27.2059 L1165.44 27.2059 L1165.44 24.0462 Q1165.44 16.471 1168.96 13.0277 Q1172.48 9.54393 1180.14 9.54393 L1187.19 9.54393 Z" fill="#000000" fill-rule="evenodd" fill-opacity="1" /><path clip-path="url(#clip880)" d="M1211.33 9.62495 Q1205.9 18.942 1203.27 28.0566 Q1200.64 37.1711 1200.64 46.5287 Q1200.64 55.8863 1203.27 65.0818 Q1205.94 74.2369 1211.33 83.5134 L1204.85 83.5134 Q1198.77 73.9938 1195.74 64.7983 Q1192.74 55.6027 1192.74 46.5287 Q1192.74 37.4952 1195.74 28.3401 Q1198.73 19.1851 1204.85 9.62495 L1211.33 9.62495 Z" fill="#000000" fill-rule="evenodd" fill-opacity="1" /><path clip-path="url(#clip880)" d="M1234.3 18.8205 L1234.3 65.8515 L1244.19 65.8515 Q1256.7 65.8515 1262.5 60.1802 Q1268.33 54.509 1268.33 42.2752 Q1268.33 30.1225 1262.5 24.4918 Q1256.7 18.8205 1244.19 18.8205 L1234.3 18.8205 M1226.12 12.096 L1242.93 12.096 Q1260.51 12.096 1268.73 19.4281 Q1276.96 26.7198 1276.96 42.2752 Q1276.96 57.9117 1268.69 65.2439 Q1260.43 72.576 1242.93 72.576 L1226.12 72.576 L1226.12 12.096 Z" fill="#000000" fill-rule="evenodd" fill-opacity="1" /><path clip-path="url(#clip880)" d="M1328.48 48.0275 L1328.48 51.6733 L1294.21 51.6733 Q1294.7 59.3701 1298.83 63.421 Q1303 67.4314 1310.42 67.4314 Q1314.71 67.4314 1318.72 66.3781 Q1322.77 65.3249 1326.74 63.2184 L1326.74 70.267 Q1322.73 71.9684 1318.52 72.8596 Q1314.31 73.7508 1309.97 73.7508 Q1299.12 73.7508 1292.76 67.4314 Q1286.44 61.1119 1286.44 50.3365 Q1286.44 39.1965 1292.43 32.6746 Q1298.47 26.1121 1308.68 26.1121 Q1317.83 26.1121 1323.14 32.0264 Q1328.48 37.9003 1328.48 48.0275 M1321.03 45.84 Q1320.95 39.7232 1317.59 36.0774 Q1314.27 32.4315 1308.76 32.4315 Q1302.52 32.4315 1298.75 35.9558 Q1295.02 39.4801 1294.46 45.8805 L1321.03 45.84 Z" fill="#000000" fill-rule="evenodd" fill-opacity="1" /><path clip-path="url(#clip880)" d="M1340.72 9.54393 L1348.17 9.54393 L1348.17 72.576 L1340.72 72.576 L1340.72 9.54393 Z" fill="#000000" fill-rule="evenodd" fill-opacity="1" /><path clip-path="url(#clip880)" d="M1371.14 14.324 L1371.14 27.2059 L1386.49 27.2059 L1386.49 32.9987 L1371.14 32.9987 L1371.14 57.6282 Q1371.14 63.1779 1372.64 64.7578 Q1374.18 66.3376 1378.84 66.3376 L1386.49 66.3376 L1386.49 72.576 L1378.84 72.576 Q1370.21 72.576 1366.93 69.3758 Q1363.65 66.1351 1363.65 57.6282 L1363.65 32.9987 L1358.18 32.9987 L1358.18 27.2059 L1363.65 27.2059 L1363.65 14.324 L1371.14 14.324 Z" fill="#000000" fill-rule="evenodd" fill-opacity="1" /><path clip-path="url(#clip880)" d="M1416.92 49.7694 Q1407.88 49.7694 1404.4 51.8354 Q1400.91 53.9013 1400.91 58.8839 Q1400.91 62.8538 1403.51 65.2034 Q1406.14 67.5124 1410.64 67.5124 Q1416.83 67.5124 1420.56 63.1374 Q1424.33 58.7219 1424.33 51.4303 L1424.33 49.7694 L1416.92 49.7694 M1431.78 46.6907 L1431.78 72.576 L1424.33 72.576 L1424.33 65.6895 Q1421.78 69.8214 1417.97 71.8063 Q1414.16 73.7508 1408.65 73.7508 Q1401.68 73.7508 1397.55 69.8619 Q1393.46 65.9325 1393.46 59.3701 Q1393.46 51.7138 1398.57 47.825 Q1403.71 43.9361 1413.88 43.9361 L1424.33 43.9361 L1424.33 43.2069 Q1424.33 38.0623 1420.93 35.2672 Q1417.56 32.4315 1411.45 32.4315 Q1407.56 32.4315 1403.87 33.3632 Q1400.19 34.295 1396.78 36.1584 L1396.78 29.2718 Q1400.87 27.692 1404.72 26.9223 Q1408.57 26.1121 1412.22 26.1121 Q1422.06 26.1121 1426.92 31.2163 Q1431.78 36.3204 1431.78 46.6907 Z" fill="#000000" fill-rule="evenodd" fill-opacity="1" /><path clip-path="url(#clip880)" d="M1492.38 76.7889 Q1489.22 84.8907 1486.23 87.3618 Q1483.23 89.8329 1478.21 89.8329 L1472.25 89.8329 L1472.25 83.5945 L1476.63 83.5945 Q1479.7 83.5945 1481.41 82.1361 Q1483.11 80.6778 1485.17 75.2496 L1486.51 71.8468 L1468.16 27.2059 L1476.06 27.2059 L1490.24 62.6918 L1504.42 27.2059 L1512.31 27.2059 L1492.38 76.7889 Z" fill="#000000" fill-rule="evenodd" fill-opacity="1" /><path clip-path="url(#clip880)" d="M1557.08 86.3491 L1557.08 92.1419 L1513.98 92.1419 L1513.98 86.3491 L1557.08 86.3491 Z" fill="#000000" fill-rule="evenodd" fill-opacity="1" /><path clip-path="url(#clip880)" d="M1581.99 9.62495 Q1576.56 18.942 1573.93 28.0566 Q1571.3 37.1711 1571.3 46.5287 Q1571.3 55.8863 1573.93 65.0818 Q1576.6 74.2369 1581.99 83.5134 L1575.51 83.5134 Q1569.43 73.9938 1566.39 64.7983 Q1563.4 55.6027 1563.4 46.5287 Q1563.4 37.4952 1566.39 28.3401 Q1569.39 19.1851 1575.51 9.62495 L1581.99 9.62495 Z" fill="#000000" fill-rule="evenodd" fill-opacity="1" /><path clip-path="url(#clip880)" d="M1603.82 14.324 L1603.82 27.2059 L1619.18 27.2059 L1619.18 32.9987 L1603.82 32.9987 L1603.82 57.6282 Q1603.82 63.1779 1605.32 64.7578 Q1606.86 66.3376 1611.52 66.3376 L1619.18 66.3376 L1619.18 72.576 L1611.52 72.576 Q1602.89 72.576 1599.61 69.3758 Q1596.33 66.1351 1596.33 57.6282 L1596.33 32.9987 L1590.86 32.9987 L1590.86 27.2059 L1596.33 27.2059 L1596.33 14.324 L1603.82 14.324 Z" fill="#000000" fill-rule="evenodd" fill-opacity="1" /><path clip-path="url(#clip880)" d="M1659.32 20.5624 L1659.32 43.1259 L1681.89 43.1259 L1681.89 50.0125 L1659.32 50.0125 L1659.32 72.576 L1652.52 72.576 L1652.52 50.0125 L1629.95 50.0125 L1629.95 43.1259 L1652.52 43.1259 L1652.52 20.5624 L1659.32 20.5624 Z" fill="#000000" fill-rule="evenodd" fill-opacity="1" /><path clip-path="url(#clip880)" d="M1700.97 65.6895 L1714.33 65.6895 L1714.33 19.5497 L1699.79 22.4663 L1699.79 15.0127 L1714.25 12.096 L1722.43 12.096 L1722.43 65.6895 L1735.8 65.6895 L1735.8 72.576 L1700.97 72.576 L1700.97 65.6895 Z" fill="#000000" fill-rule="evenodd" fill-opacity="1" /><path clip-path="url(#clip880)" d="M1750.1 9.62495 L1756.58 9.62495 Q1762.66 19.1851 1765.66 28.3401 Q1768.7 37.4952 1768.7 46.5287 Q1768.7 55.6027 1765.66 64.7983 Q1762.66 73.9938 1756.58 83.5134 L1750.1 83.5134 Q1755.49 74.2369 1758.12 65.0818 Q1760.8 55.8863 1760.8 46.5287 Q1760.8 37.1711 1758.12 28.0566 Q1755.49 18.942 1750.1 9.62495 Z" fill="#000000" fill-rule="evenodd" fill-opacity="1" /><path clip-path="url(#clip880)" d="M1819.62 9.17935 L1819.62 92.1419 L1812.73 92.1419 L1812.73 9.17935 L1819.62 9.17935 Z" fill="#000000" fill-rule="evenodd" fill-opacity="1" /><path clip-path="url(#clip880)" d="M1902.05 27.2059 L1885.65 49.2833 L1902.9 72.576 L1894.11 72.576 L1880.91 54.752 L1867.7 72.576 L1858.91 72.576 L1876.53 48.8377 L1860.41 27.2059 L1869.2 27.2059 L1881.23 43.369 L1893.26 27.2059 L1902.05 27.2059 Z" fill="#000000" fill-rule="evenodd" fill-opacity="1" /><path clip-path="url(#clip880)" d="M1947.91 86.3491 L1947.91 92.1419 L1904.81 92.1419 L1904.81 86.3491 L1947.91 86.3491 Z" fill="#000000" fill-rule="evenodd" fill-opacity="1" /><path clip-path="url(#clip880)" d="M1962.29 14.324 L1962.29 27.2059 L1977.64 27.2059 L1977.64 32.9987 L1962.29 32.9987 L1962.29 57.6282 Q1962.29 63.1779 1963.79 64.7578 Q1965.33 66.3376 1969.99 66.3376 L1977.64 66.3376 L1977.64 72.576 L1969.99 72.576 Q1961.36 72.576 1958.08 69.3758 Q1954.79 66.1351 1954.79 57.6282 L1954.79 32.9987 L1949.33 32.9987 L1949.33 27.2059 L1954.79 27.2059 L1954.79 14.324 L1962.29 14.324 Z" fill="#000000" fill-rule="evenodd" fill-opacity="1" /><path clip-path="url(#clip880)" d="M1986.27 9.62495 L1992.75 9.62495 Q1998.83 19.1851 2001.83 28.3401 Q2004.86 37.4952 2004.86 46.5287 Q2004.86 55.6027 2001.83 64.7983 Q1998.83 73.9938 1992.75 83.5134 L1986.27 83.5134 Q1991.66 74.2369 1994.29 65.0818 Q1996.96 55.8863 1996.96 46.5287 Q1996.96 37.1711 1994.29 28.0566 Q1991.66 18.942 1986.27 9.62495 Z" fill="#000000" fill-rule="evenodd" fill-opacity="1" /><polyline clip-path="url(#clip882)" style="stroke:#009af9; stroke-linecap:butt; stroke-linejoin:round; stroke-width:4; stroke-opacity:1; fill:none" points="
  218.281,1447.87 239.214,1447.87 260.146,1447.86 281.078,1447.86 302.011,1447.84 322.943,1447.83 343.876,1447.8 364.808,1447.75 385.74,1447.68 406.673,1447.58 
  427.605,1447.43 448.537,1447.21 469.47,1446.89 490.402,1446.44 511.335,1445.8 532.267,1444.91 553.199,1443.68 574.132,1442 595.064,1439.72 615.996,1436.69 
  636.929,1432.68 657.861,1427.45 678.794,1420.7 699.726,1412.08 720.658,1401.2 741.591,1387.64 762.523,1370.93 783.456,1350.58 804.388,1326.09 825.32,1296.99 
  846.253,1262.84 867.185,1223.25 888.117,1177.97 909.05,1126.84 929.982,1069.92 950.915,1007.41 971.847,939.775 992.779,867.707 1013.71,792.141 1034.64,714.256 
  1055.58,635.453 1076.51,557.317 1097.44,481.577 1118.37,410.038 1139.31,344.518 1160.24,286.77 1181.17,238.402 1202.1,200.809 1223.04,175.1 1243.97,162.047 
  1264.9,162.047 1285.83,175.1 1306.76,200.809 1327.7,238.402 1348.63,286.77 1369.56,344.518 1390.49,410.038 1411.43,481.577 1432.36,557.317 1453.29,635.453 
  1474.22,714.256 1495.16,792.141 1516.09,867.707 1537.02,939.775 1557.95,1007.41 1578.89,1069.92 1599.82,1126.84 1620.75,1177.97 1641.68,1223.25 1662.62,1262.84 
  1683.55,1296.99 1704.48,1326.09 1725.41,1350.58 1746.34,1370.93 1767.28,1387.64 1788.21,1401.2 1809.14,1412.08 1830.07,1420.7 1851.01,1427.45 1871.94,1432.68 
  1892.87,1436.69 1913.8,1439.72 1934.74,1442 1955.67,1443.68 1976.6,1444.91 1997.53,1445.8 2018.47,1446.44 2039.4,1446.89 2060.33,1447.21 2081.26,1447.43 
  2102.2,1447.58 2123.13,1447.68 2144.06,1447.75 2164.99,1447.8 2185.92,1447.83 2206.86,1447.84 2227.79,1447.86 2248.72,1447.86 2269.65,1447.87 2290.59,1447.87 
  
  "/>
</svg>
