<?xml version="1.0" encoding="utf-8"?>
<svg xmlns="http://www.w3.org/2000/svg" xmlns:xlink="http://www.w3.org/1999/xlink" width="400" height="400" viewBox="0 0 1600 1600">
<defs>
  <clipPath id="clip820">
    <rect x="0" y="0" width="1600" height="1600"/>
  </clipPath>
</defs>
<path clip-path="url(#clip820)" d="
M0 1600 L1600 1600 L1600 0 L0 0  Z
  " fill="#ffffff" fill-rule="evenodd" fill-opacity="1"/>
<defs>
  <clipPath id="clip821">
    <rect x="320" y="160" width="1121" height="1121"/>
  </clipPath>
</defs>
<defs>
  <clipPath id="clip822">
    <rect x="1424" y="47" width="49" height="1329"/>
  </clipPath>
</defs>
<path clip-path="url(#clip820)" d="
M235.14 1375.66 L1552.76 1375.66 L1552.76 47.2441 L235.14 47.2441  Z
  " fill="#ffffff" fill-rule="evenodd" fill-opacity="1"/>
<defs>
  <clipPath id="clip823">
    <rect x="235" y="47" width="1319" height="1329"/>
  </clipPath>
</defs>
<polyline clip-path="url(#clip823)" style="stroke:#000000; stroke-linecap:round; stroke-linejoin:round; stroke-width:2; stroke-opacity:0.1; fill:none" points="
  500.262,1375.66 500.262,47.2441 
  "/>
<polyline clip-path="url(#clip823)" style="stroke:#000000; stroke-linecap:round; stroke-linejoin:round; stroke-width:2; stroke-opacity:0.1; fill:none" points="
  766.716,1375.66 766.716,47.2441 
  "/>
<polyline clip-path="url(#clip823)" style="stroke:#000000; stroke-linecap:round; stroke-linejoin:round; stroke-width:2; stroke-opacity:0.1; fill:none" points="
  1033.17,1375.66 1033.17,47.2441 
  "/>
<polyline clip-path="url(#clip823)" style="stroke:#000000; stroke-linecap:round; stroke-linejoin:round; stroke-width:2; stroke-opacity:0.1; fill:none" points="
  1299.62,1375.66 1299.62,47.2441 
  "/>
<polyline clip-path="url(#clip820)" style="stroke:#000000; stroke-linecap:round; stroke-linejoin:round; stroke-width:4; stroke-opacity:1; fill:none" points="
  235.14,1375.66 1552.76,1375.66 
  "/>
<polyline clip-path="url(#clip820)" style="stroke:#000000; stroke-linecap:round; stroke-linejoin:round; stroke-width:4; stroke-opacity:1; fill:none" points="
  500.262,1375.66 500.262,1356.76 
  "/>
<polyline clip-path="url(#clip820)" style="stroke:#000000; stroke-linecap:round; stroke-linejoin:round; stroke-width:4; stroke-opacity:1; fill:none" points="
  766.716,1375.66 766.716,1356.76 
  "/>
<polyline clip-path="url(#clip820)" style="stroke:#000000; stroke-linecap:round; stroke-linejoin:round; stroke-width:4; stroke-opacity:1; fill:none" points="
  1033.17,1375.66 1033.17,1356.76 
  "/>
<polyline clip-path="url(#clip820)" style="stroke:#000000; stroke-linecap:round; stroke-linejoin:round; stroke-width:4; stroke-opacity:1; fill:none" points="
  1299.62,1375.66 1299.62,1356.76 
  "/>
<path clip-path="url(#clip820)" d="M478.445 1400.18 Q474.834 1400.18 473.005 1403.74 Q471.2 1407.28 471.2 1414.41 Q471.2 1421.52 473.005 1425.09 Q474.834 1428.63 478.445 1428.63 Q482.079 1428.63 483.885 1425.09 Q485.713 1421.52 485.713 1414.41 Q485.713 1407.28 483.885 1403.74 Q482.079 1400.18 478.445 1400.18 M478.445 1396.47 Q484.255 1396.47 487.311 1401.08 Q490.389 1405.66 490.389 1414.41 Q490.389 1423.14 487.311 1427.75 Q484.255 1432.33 478.445 1432.33 Q472.635 1432.33 469.556 1427.75 Q466.501 1423.14 466.501 1414.41 Q466.501 1405.66 469.556 1401.08 Q472.635 1396.47 478.445 1396.47 Z" fill="#000000" fill-rule="evenodd" fill-opacity="1" /><path clip-path="url(#clip820)" d="M498.607 1425.78 L503.491 1425.78 L503.491 1431.66 L498.607 1431.66 L498.607 1425.78 Z" fill="#000000" fill-rule="evenodd" fill-opacity="1" /><path clip-path="url(#clip820)" d="M517.704 1427.72 L534.023 1427.72 L534.023 1431.66 L512.079 1431.66 L512.079 1427.72 Q514.741 1424.97 519.324 1420.34 Q523.931 1415.69 525.111 1414.35 Q527.357 1411.82 528.236 1410.09 Q529.139 1408.33 529.139 1406.64 Q529.139 1403.88 527.195 1402.15 Q525.273 1400.41 522.172 1400.41 Q519.973 1400.41 517.519 1401.17 Q515.088 1401.94 512.311 1403.49 L512.311 1398.77 Q515.135 1397.63 517.588 1397.05 Q520.042 1396.47 522.079 1396.47 Q527.449 1396.47 530.644 1399.16 Q533.838 1401.85 533.838 1406.34 Q533.838 1408.47 533.028 1410.39 Q532.241 1412.28 530.135 1414.88 Q529.556 1415.55 526.454 1418.77 Q523.352 1421.96 517.704 1427.72 Z" fill="#000000" fill-rule="evenodd" fill-opacity="1" /><path clip-path="url(#clip820)" d="M743.858 1400.18 Q740.246 1400.18 738.418 1403.74 Q736.612 1407.28 736.612 1414.41 Q736.612 1421.52 738.418 1425.09 Q740.246 1428.63 743.858 1428.63 Q747.492 1428.63 749.297 1425.09 Q751.126 1421.52 751.126 1414.41 Q751.126 1407.28 749.297 1403.74 Q747.492 1400.18 743.858 1400.18 M743.858 1396.47 Q749.668 1396.47 752.723 1401.08 Q755.802 1405.66 755.802 1414.41 Q755.802 1423.14 752.723 1427.75 Q749.668 1432.33 743.858 1432.33 Q738.047 1432.33 734.969 1427.75 Q731.913 1423.14 731.913 1414.41 Q731.913 1405.66 734.969 1401.08 Q738.047 1396.47 743.858 1396.47 Z" fill="#000000" fill-rule="evenodd" fill-opacity="1" /><path clip-path="url(#clip820)" d="M764.019 1425.78 L768.904 1425.78 L768.904 1431.66 L764.019 1431.66 L764.019 1425.78 Z" fill="#000000" fill-rule="evenodd" fill-opacity="1" /><path clip-path="url(#clip820)" d="M791.936 1401.17 L780.13 1419.62 L791.936 1419.62 L791.936 1401.17 M790.709 1397.1 L796.589 1397.1 L796.589 1419.62 L801.519 1419.62 L801.519 1423.51 L796.589 1423.51 L796.589 1431.66 L791.936 1431.66 L791.936 1423.51 L776.334 1423.51 L776.334 1419 L790.709 1397.1 Z" fill="#000000" fill-rule="evenodd" fill-opacity="1" /><path clip-path="url(#clip820)" d="M1010.47 1400.18 Q1006.86 1400.18 1005.03 1403.74 Q1003.23 1407.28 1003.23 1414.41 Q1003.23 1421.52 1005.03 1425.09 Q1006.86 1428.63 1010.47 1428.63 Q1014.11 1428.63 1015.91 1425.09 Q1017.74 1421.52 1017.74 1414.41 Q1017.74 1407.28 1015.91 1403.74 Q1014.11 1400.18 1010.47 1400.18 M1010.47 1396.47 Q1016.28 1396.47 1019.34 1401.08 Q1022.42 1405.66 1022.42 1414.41 Q1022.42 1423.14 1019.34 1427.75 Q1016.28 1432.33 1010.47 1432.33 Q1004.66 1432.33 1001.58 1427.75 Q998.529 1423.14 998.529 1414.41 Q998.529 1405.66 1001.58 1401.08 Q1004.66 1396.47 1010.47 1396.47 Z" fill="#000000" fill-rule="evenodd" fill-opacity="1" /><path clip-path="url(#clip820)" d="M1030.64 1425.78 L1035.52 1425.78 L1035.52 1431.66 L1030.64 1431.66 L1030.64 1425.78 Z" fill="#000000" fill-rule="evenodd" fill-opacity="1" /><path clip-path="url(#clip820)" d="M1056.28 1412.52 Q1053.14 1412.52 1051.28 1414.67 Q1049.45 1416.82 1049.45 1420.57 Q1049.45 1424.3 1051.28 1426.47 Q1053.14 1428.63 1056.28 1428.63 Q1059.43 1428.63 1061.26 1426.47 Q1063.11 1424.3 1063.11 1420.57 Q1063.11 1416.82 1061.26 1414.67 Q1059.43 1412.52 1056.28 1412.52 M1065.57 1397.86 L1065.57 1402.12 Q1063.81 1401.29 1062 1400.85 Q1060.22 1400.41 1058.46 1400.41 Q1053.83 1400.41 1051.38 1403.53 Q1048.95 1406.66 1048.6 1412.98 Q1049.96 1410.97 1052.02 1409.9 Q1054.08 1408.81 1056.56 1408.81 Q1061.77 1408.81 1064.78 1411.98 Q1067.81 1415.13 1067.81 1420.57 Q1067.81 1425.9 1064.66 1429.11 Q1061.52 1432.33 1056.28 1432.33 Q1050.29 1432.33 1047.12 1427.75 Q1043.95 1423.14 1043.95 1414.41 Q1043.95 1406.22 1047.83 1401.36 Q1051.72 1396.47 1058.27 1396.47 Q1060.03 1396.47 1061.82 1396.82 Q1063.62 1397.17 1065.57 1397.86 Z" fill="#000000" fill-rule="evenodd" fill-opacity="1" /><path clip-path="url(#clip820)" d="M1277.06 1400.18 Q1273.44 1400.18 1271.62 1403.74 Q1269.81 1407.28 1269.81 1414.41 Q1269.81 1421.52 1271.62 1425.09 Q1273.44 1428.63 1277.06 1428.63 Q1280.69 1428.63 1282.49 1425.09 Q1284.32 1421.52 1284.32 1414.41 Q1284.32 1407.28 1282.49 1403.74 Q1280.69 1400.18 1277.06 1400.18 M1277.06 1396.47 Q1282.87 1396.47 1285.92 1401.08 Q1289 1405.66 1289 1414.41 Q1289 1423.14 1285.92 1427.75 Q1282.87 1432.33 1277.06 1432.33 Q1271.24 1432.33 1268.17 1427.75 Q1265.11 1423.14 1265.11 1414.41 Q1265.11 1405.66 1268.17 1401.08 Q1271.24 1396.47 1277.06 1396.47 Z" fill="#000000" fill-rule="evenodd" fill-opacity="1" /><path clip-path="url(#clip820)" d="M1297.22 1425.78 L1302.1 1425.78 L1302.1 1431.66 L1297.22 1431.66 L1297.22 1425.78 Z" fill="#000000" fill-rule="evenodd" fill-opacity="1" /><path clip-path="url(#clip820)" d="M1322.29 1415.25 Q1318.95 1415.25 1317.03 1417.03 Q1315.13 1418.81 1315.13 1421.94 Q1315.13 1425.06 1317.03 1426.85 Q1318.95 1428.63 1322.29 1428.63 Q1325.62 1428.63 1327.54 1426.85 Q1329.46 1425.04 1329.46 1421.94 Q1329.46 1418.81 1327.54 1417.03 Q1325.64 1415.25 1322.29 1415.25 M1317.61 1413.26 Q1314.6 1412.52 1312.91 1410.46 Q1311.24 1408.4 1311.24 1405.43 Q1311.24 1401.29 1314.18 1398.88 Q1317.15 1396.47 1322.29 1396.47 Q1327.45 1396.47 1330.39 1398.88 Q1333.33 1401.29 1333.33 1405.43 Q1333.33 1408.4 1331.64 1410.46 Q1329.97 1412.52 1326.99 1413.26 Q1330.37 1414.04 1332.24 1416.34 Q1334.14 1418.63 1334.14 1421.94 Q1334.14 1426.96 1331.06 1429.65 Q1328 1432.33 1322.29 1432.33 Q1316.57 1432.33 1313.49 1429.65 Q1310.43 1426.96 1310.43 1421.94 Q1310.43 1418.63 1312.33 1416.34 Q1314.23 1414.04 1317.61 1413.26 M1315.9 1405.87 Q1315.9 1408.56 1317.56 1410.06 Q1319.25 1411.57 1322.29 1411.57 Q1325.3 1411.57 1326.99 1410.06 Q1328.7 1408.56 1328.7 1405.87 Q1328.7 1403.19 1326.99 1401.68 Q1325.3 1400.18 1322.29 1400.18 Q1319.25 1400.18 1317.56 1401.68 Q1315.9 1403.19 1315.9 1405.87 Z" fill="#000000" fill-rule="evenodd" fill-opacity="1" /><path clip-path="url(#clip820)" d="M912.503 1468.27 Q912.503 1470.73 908.99 1470.73 L900.768 1470.73 Q899.503 1476.56 899.503 1482.18 Q899.503 1488.89 901.576 1494.05 Q901.998 1495.07 901.998 1495.64 Q901.998 1496.69 901.049 1497.53 Q900.136 1498.38 899.047 1498.38 Q898.133 1498.38 897.536 1497.67 Q896.974 1496.97 896.482 1494.76 Q895.885 1492.16 895.885 1489.28 Q895.885 1485.83 896.447 1482.53 Q897.009 1479.19 898.906 1470.73 L890.79 1470.73 L886.75 1486.64 Q885.309 1492.02 884.818 1493.67 Q884.501 1494.65 884.396 1494.97 Q884.291 1495.28 883.974 1496.06 Q883.693 1496.79 883.483 1497.08 Q883.272 1497.32 882.92 1497.71 Q882.569 1498.13 882.147 1498.23 Q881.726 1498.38 881.199 1498.38 Q880.391 1498.38 879.758 1497.85 Q879.126 1497.36 879.126 1496.41 Q879.126 1495.78 879.688 1494.69 Q886.363 1480.28 888.893 1470.73 L884.818 1470.73 Q879.196 1470.73 875.683 1476.28 Q875.121 1477.01 874.804 1477.08 Q874.664 1477.12 874.523 1477.12 Q874.137 1477.12 873.891 1476.94 Q873.68 1476.77 873.68 1476.59 L873.645 1476.42 Q873.645 1476.21 874.172 1475.26 Q874.734 1474.27 875.788 1472.76 Q876.877 1471.25 878.037 1469.95 Q879.161 1468.76 880.25 1468.02 Q881.374 1467.25 882.428 1466.97 Q883.483 1466.68 884.08 1466.61 Q884.677 1466.54 885.52 1466.54 L909.622 1466.54 Q910.535 1466.54 911.027 1466.61 Q911.519 1466.65 912.011 1467.07 Q912.503 1467.46 912.503 1468.27 Z" fill="#000000" fill-rule="evenodd" fill-opacity="1" /><polyline clip-path="url(#clip823)" style="stroke:#000000; stroke-linecap:round; stroke-linejoin:round; stroke-width:2; stroke-opacity:0.1; fill:none" points="
  235.14,1375.66 1552.76,1375.66 
  "/>
<polyline clip-path="url(#clip823)" style="stroke:#000000; stroke-linecap:round; stroke-linejoin:round; stroke-width:2; stroke-opacity:0.1; fill:none" points="
  235.14,1043.56 1552.76,1043.56 
  "/>
<polyline clip-path="url(#clip823)" style="stroke:#000000; stroke-linecap:round; stroke-linejoin:round; stroke-width:2; stroke-opacity:0.1; fill:none" points="
  235.14,711.452 1552.76,711.452 
  "/>
<polyline clip-path="url(#clip823)" style="stroke:#000000; stroke-linecap:round; stroke-linejoin:round; stroke-width:2; stroke-opacity:0.1; fill:none" points="
  235.14,379.348 1552.76,379.348 
  "/>
<polyline clip-path="url(#clip823)" style="stroke:#000000; stroke-linecap:round; stroke-linejoin:round; stroke-width:2; stroke-opacity:0.1; fill:none" points="
  235.14,47.2441 1552.76,47.2441 
  "/>
<polyline clip-path="url(#clip820)" style="stroke:#000000; stroke-linecap:round; stroke-linejoin:round; stroke-width:4; stroke-opacity:1; fill:none" points="
  235.14,1375.66 235.14,47.2441 
  "/>
<polyline clip-path="url(#clip820)" style="stroke:#000000; stroke-linecap:round; stroke-linejoin:round; stroke-width:4; stroke-opacity:1; fill:none" points="
  235.14,1375.66 254.038,1375.66 
  "/>
<polyline clip-path="url(#clip820)" style="stroke:#000000; stroke-linecap:round; stroke-linejoin:round; stroke-width:4; stroke-opacity:1; fill:none" points="
  235.14,1043.56 254.038,1043.56 
  "/>
<polyline clip-path="url(#clip820)" style="stroke:#000000; stroke-linecap:round; stroke-linejoin:round; stroke-width:4; stroke-opacity:1; fill:none" points="
  235.14,711.452 254.038,711.452 
  "/>
<polyline clip-path="url(#clip820)" style="stroke:#000000; stroke-linecap:round; stroke-linejoin:round; stroke-width:4; stroke-opacity:1; fill:none" points="
  235.14,379.348 254.038,379.348 
  "/>
<polyline clip-path="url(#clip820)" style="stroke:#000000; stroke-linecap:round; stroke-linejoin:round; stroke-width:4; stroke-opacity:1; fill:none" points="
  235.14,47.2441 254.038,47.2441 
  "/>
<path clip-path="url(#clip820)" d="M153.965 1361.46 Q150.353 1361.46 148.525 1365.02 Q146.719 1368.56 146.719 1375.69 Q146.719 1382.8 148.525 1386.37 Q150.353 1389.91 153.965 1389.91 Q157.599 1389.91 159.404 1386.37 Q161.233 1382.8 161.233 1375.69 Q161.233 1368.56 159.404 1365.02 Q157.599 1361.46 153.965 1361.46 M153.965 1357.75 Q159.775 1357.75 162.83 1362.36 Q165.909 1366.94 165.909 1375.69 Q165.909 1384.42 162.83 1389.03 Q159.775 1393.61 153.965 1393.61 Q148.154 1393.61 145.076 1389.03 Q142.02 1384.42 142.02 1375.69 Q142.02 1366.94 145.076 1362.36 Q148.154 1357.75 153.965 1357.75 Z" fill="#000000" fill-rule="evenodd" fill-opacity="1" /><path clip-path="url(#clip820)" d="M174.126 1387.06 L179.011 1387.06 L179.011 1392.94 L174.126 1392.94 L174.126 1387.06 Z" fill="#000000" fill-rule="evenodd" fill-opacity="1" /><path clip-path="url(#clip820)" d="M199.196 1361.46 Q195.585 1361.46 193.756 1365.02 Q191.95 1368.56 191.95 1375.69 Q191.95 1382.8 193.756 1386.37 Q195.585 1389.91 199.196 1389.91 Q202.83 1389.91 204.636 1386.37 Q206.464 1382.8 206.464 1375.69 Q206.464 1368.56 204.636 1365.02 Q202.83 1361.46 199.196 1361.46 M199.196 1357.75 Q205.006 1357.75 208.061 1362.36 Q211.14 1366.94 211.14 1375.69 Q211.14 1384.42 208.061 1389.03 Q205.006 1393.61 199.196 1393.61 Q193.386 1393.61 190.307 1389.03 Q187.251 1384.42 187.251 1375.69 Q187.251 1366.94 190.307 1362.36 Q193.386 1357.75 199.196 1357.75 Z" fill="#000000" fill-rule="evenodd" fill-opacity="1" /><path clip-path="url(#clip820)" d="M154.96 1029.35 Q151.349 1029.35 149.52 1032.92 Q147.715 1036.46 147.715 1043.59 Q147.715 1050.7 149.52 1054.26 Q151.349 1057.8 154.96 1057.8 Q158.594 1057.8 160.4 1054.26 Q162.228 1050.7 162.228 1043.59 Q162.228 1036.46 160.4 1032.92 Q158.594 1029.35 154.96 1029.35 M154.96 1025.65 Q160.77 1025.65 163.826 1030.26 Q166.904 1034.84 166.904 1043.59 Q166.904 1052.32 163.826 1056.92 Q160.77 1061.51 154.96 1061.51 Q149.15 1061.51 146.071 1056.92 Q143.016 1052.32 143.016 1043.59 Q143.016 1034.84 146.071 1030.26 Q149.15 1025.65 154.96 1025.65 Z" fill="#000000" fill-rule="evenodd" fill-opacity="1" /><path clip-path="url(#clip820)" d="M175.122 1054.96 L180.006 1054.96 L180.006 1060.84 L175.122 1060.84 L175.122 1054.96 Z" fill="#000000" fill-rule="evenodd" fill-opacity="1" /><path clip-path="url(#clip820)" d="M190.237 1026.28 L208.594 1026.28 L208.594 1030.21 L194.52 1030.21 L194.52 1038.68 Q195.538 1038.34 196.557 1038.17 Q197.575 1037.99 198.594 1037.99 Q204.381 1037.99 207.761 1041.16 Q211.14 1044.33 211.14 1049.75 Q211.14 1055.33 207.668 1058.43 Q204.196 1061.51 197.876 1061.51 Q195.7 1061.51 193.432 1061.14 Q191.187 1060.77 188.779 1060.03 L188.779 1055.33 Q190.862 1056.46 193.085 1057.02 Q195.307 1057.57 197.784 1057.57 Q201.788 1057.57 204.126 1055.47 Q206.464 1053.36 206.464 1049.75 Q206.464 1046.14 204.126 1044.03 Q201.788 1041.92 197.784 1041.92 Q195.909 1041.92 194.034 1042.34 Q192.182 1042.76 190.237 1043.64 L190.237 1026.28 Z" fill="#000000" fill-rule="evenodd" fill-opacity="1" /><path clip-path="url(#clip820)" d="M144.775 724.797 L152.414 724.797 L152.414 698.431 L144.103 700.098 L144.103 695.839 L152.367 694.172 L157.043 694.172 L157.043 724.797 L164.682 724.797 L164.682 728.732 L144.775 728.732 L144.775 724.797 Z" fill="#000000" fill-rule="evenodd" fill-opacity="1" /><path clip-path="url(#clip820)" d="M174.126 722.852 L179.011 722.852 L179.011 728.732 L174.126 728.732 L174.126 722.852 Z" fill="#000000" fill-rule="evenodd" fill-opacity="1" /><path clip-path="url(#clip820)" d="M199.196 697.251 Q195.585 697.251 193.756 700.815 Q191.95 704.357 191.95 711.487 Q191.95 718.593 193.756 722.158 Q195.585 725.7 199.196 725.7 Q202.83 725.7 204.636 722.158 Q206.464 718.593 206.464 711.487 Q206.464 704.357 204.636 700.815 Q202.83 697.251 199.196 697.251 M199.196 693.547 Q205.006 693.547 208.061 698.153 Q211.14 702.737 211.14 711.487 Q211.14 720.213 208.061 724.82 Q205.006 729.403 199.196 729.403 Q193.386 729.403 190.307 724.82 Q187.251 720.213 187.251 711.487 Q187.251 702.737 190.307 698.153 Q193.386 693.547 199.196 693.547 Z" fill="#000000" fill-rule="evenodd" fill-opacity="1" /><path clip-path="url(#clip820)" d="M145.77 392.693 L153.409 392.693 L153.409 366.327 L145.099 367.994 L145.099 363.735 L153.363 362.068 L158.039 362.068 L158.039 392.693 L165.677 392.693 L165.677 396.628 L145.77 396.628 L145.77 392.693 Z" fill="#000000" fill-rule="evenodd" fill-opacity="1" /><path clip-path="url(#clip820)" d="M175.122 390.748 L180.006 390.748 L180.006 396.628 L175.122 396.628 L175.122 390.748 Z" fill="#000000" fill-rule="evenodd" fill-opacity="1" /><path clip-path="url(#clip820)" d="M190.237 362.068 L208.594 362.068 L208.594 366.003 L194.52 366.003 L194.52 374.475 Q195.538 374.128 196.557 373.966 Q197.575 373.781 198.594 373.781 Q204.381 373.781 207.761 376.952 Q211.14 380.123 211.14 385.54 Q211.14 391.119 207.668 394.221 Q204.196 397.299 197.876 397.299 Q195.7 397.299 193.432 396.929 Q191.187 396.559 188.779 395.818 L188.779 391.119 Q190.862 392.253 193.085 392.809 Q195.307 393.364 197.784 393.364 Q201.788 393.364 204.126 391.258 Q206.464 389.151 206.464 385.54 Q206.464 381.929 204.126 379.823 Q201.788 377.716 197.784 377.716 Q195.909 377.716 194.034 378.133 Q192.182 378.549 190.237 379.429 L190.237 362.068 Z" fill="#000000" fill-rule="evenodd" fill-opacity="1" /><path clip-path="url(#clip820)" d="M147.992 60.5889 L164.312 60.5889 L164.312 64.5241 L142.367 64.5241 L142.367 60.5889 Q145.029 57.8343 149.613 53.2047 Q154.219 48.552 155.4 47.2094 Q157.645 44.6862 158.525 42.9501 Q159.427 41.1909 159.427 39.5011 Q159.427 36.7465 157.483 35.0104 Q155.562 33.2743 152.46 33.2743 Q150.261 33.2743 147.807 34.0381 Q145.377 34.802 142.599 36.3529 L142.599 31.6308 Q145.423 30.4965 147.877 29.9178 Q150.33 29.3391 152.367 29.3391 Q157.738 29.3391 160.932 32.0243 Q164.127 34.7094 164.127 39.2002 Q164.127 41.3298 163.316 43.2511 Q162.529 45.1492 160.423 47.7418 Q159.844 48.4131 156.742 51.6306 Q153.64 54.8251 147.992 60.5889 Z" fill="#000000" fill-rule="evenodd" fill-opacity="1" /><path clip-path="url(#clip820)" d="M174.126 58.6445 L179.011 58.6445 L179.011 64.5241 L174.126 64.5241 L174.126 58.6445 Z" fill="#000000" fill-rule="evenodd" fill-opacity="1" /><path clip-path="url(#clip820)" d="M199.196 33.0428 Q195.585 33.0428 193.756 36.6076 Q191.95 40.1492 191.95 47.2788 Q191.95 54.3853 193.756 57.9501 Q195.585 61.4917 199.196 61.4917 Q202.83 61.4917 204.636 57.9501 Q206.464 54.3853 206.464 47.2788 Q206.464 40.1492 204.636 36.6076 Q202.83 33.0428 199.196 33.0428 M199.196 29.3391 Q205.006 29.3391 208.061 33.9456 Q211.14 38.5289 211.14 47.2788 Q211.14 56.0056 208.061 60.6121 Q205.006 65.1954 199.196 65.1954 Q193.386 65.1954 190.307 60.6121 Q187.251 56.0056 187.251 47.2788 Q187.251 38.5289 190.307 33.9456 Q193.386 29.3391 199.196 29.3391 Z" fill="#000000" fill-rule="evenodd" fill-opacity="1" /><path clip-path="url(#clip820)" d="M68.1162 795.718 L68.1162 789.862 L95.9343 782.541 L68.1162 775.252 L68.1162 768.345 L95.9343 761.025 L68.1162 753.736 L68.1162 747.88 L103.764 757.205 L103.764 764.112 L74.5456 771.783 L103.764 779.485 L103.764 786.392 L68.1162 795.718 Z" fill="#000000" fill-rule="evenodd" fill-opacity="1" /><path clip-path="url(#clip820)" d="M85.8447 722.799 Q85.8447 729.897 87.4679 732.634 Q89.0912 735.371 93.0061 735.371 Q96.1253 735.371 97.9714 733.334 Q99.7856 731.265 99.7856 727.732 Q99.7856 722.862 96.3481 719.934 Q92.8788 716.974 87.1497 716.974 L85.8447 716.974 L85.8447 722.799 M83.4257 711.118 L103.764 711.118 L103.764 716.974 L98.3533 716.974 Q101.6 718.979 103.159 721.971 Q104.687 724.963 104.687 729.292 Q104.687 734.766 101.632 738.013 Q98.5443 741.228 93.3881 741.228 Q87.3725 741.228 84.3169 737.217 Q81.2614 733.175 81.2614 725.186 L81.2614 716.974 L80.6885 716.974 Q76.6462 716.974 74.4501 719.648 Q72.2221 722.29 72.2221 727.096 Q72.2221 730.151 72.9541 733.048 Q73.6862 735.944 75.1503 738.618 L69.7395 738.618 Q68.4981 735.403 67.8934 732.379 Q67.2568 729.356 67.2568 726.491 Q67.2568 718.757 71.2672 714.937 Q75.2776 711.118 83.4257 711.118 Z" fill="#000000" fill-rule="evenodd" fill-opacity="1" /><path clip-path="url(#clip820)" d="M85.5264 675.597 Q79.1607 675.597 75.6596 678.239 Q72.1584 680.849 72.1584 685.591 Q72.1584 690.302 75.6596 692.944 Q79.1607 695.554 85.5264 695.554 Q91.8603 695.554 95.3614 692.944 Q98.8626 690.302 98.8626 685.591 Q98.8626 680.849 95.3614 678.239 Q91.8603 675.597 85.5264 675.597 M99.34 669.741 Q108.443 669.741 112.867 673.783 Q117.323 677.825 117.323 686.164 Q117.323 689.252 116.846 691.989 Q116.4 694.726 115.445 697.304 L109.748 697.304 Q111.148 694.726 111.817 692.212 Q112.485 689.697 112.485 687.087 Q112.485 681.326 109.461 678.462 Q106.47 675.597 100.39 675.597 L97.4939 675.597 Q100.645 677.411 102.205 680.244 Q103.764 683.077 103.764 687.024 Q103.764 693.58 98.7671 697.591 Q93.77 701.601 85.5264 701.601 Q77.251 701.601 72.2539 697.591 Q67.2568 693.58 67.2568 687.024 Q67.2568 683.077 68.8164 680.244 Q70.376 677.411 73.5271 675.597 L68.1162 675.597 L68.1162 669.741 L99.34 669.741 Z" fill="#000000" fill-rule="evenodd" fill-opacity="1" /><path clip-path="url(#clip820)" d="M84.4761 627.186 L87.3406 627.186 L87.3406 654.113 Q93.3881 653.731 96.5709 650.484 Q99.7219 647.206 99.7219 641.381 Q99.7219 638.008 98.8944 634.857 Q98.0669 631.674 96.4118 628.555 L101.95 628.555 Q103.287 631.706 103.987 635.016 Q104.687 638.326 104.687 641.732 Q104.687 650.262 99.7219 655.259 Q94.7567 660.224 86.2903 660.224 Q77.5374 660.224 72.4131 655.513 Q67.2568 650.771 67.2568 642.75 Q67.2568 635.557 71.9038 631.387 Q76.5189 627.186 84.4761 627.186 M82.7573 633.042 Q77.9512 633.106 75.0866 635.748 Q72.2221 638.358 72.2221 642.686 Q72.2221 647.588 74.9912 650.548 Q77.7602 653.476 82.7892 653.922 L82.7573 633.042 Z" fill="#000000" fill-rule="evenodd" fill-opacity="1" /><path clip-path="url(#clip823)" d="
M235.14 1375.66 L235.14 1375.66 L248.449 1375.66 L261.759 1375.66 L275.068 1375.66 L288.377 1375.66 L301.686 1375.66 L314.996 1375.66 L328.305 1375.66 L341.614 1375.66 
  L354.923 1375.66 L368.233 1375.66 L381.542 1375.66 L394.851 1375.66 L408.16 1375.66 L421.47 1375.66 L434.779 1375.66 L448.088 1375.66 L461.397 1375.66 L474.707 1375.66 
  L488.016 1375.66 L501.325 1375.66 L514.634 1375.66 L527.944 1375.66 L541.253 1375.66 L554.562 1375.66 L567.871 1375.66 L581.181 1375.66 L594.49 1375.66 L607.799 1375.66 
  L621.108 1375.66 L634.418 1375.66 L647.727 1375.66 L661.036 1375.66 L674.345 1375.66 L687.655 1375.66 L700.964 1375.66 L714.273 1375.66 L727.582 1375.66 L740.892 1375.66 
  L754.201 1375.66 L767.51 1375.66 L780.819 1375.66 L794.129 1375.66 L807.438 1375.66 L820.747 1375.66 L834.056 1375.66 L847.366 1375.66 L860.675 1375.66 L873.984 1375.66 
  L887.293 1375.66 L900.603 1375.66 L913.912 1375.66 L927.221 1375.66 L940.53 1375.66 L953.84 1375.66 L967.149 1375.66 L980.458 1375.66 L993.767 1375.66 L1007.08 1375.66 
  L1020.39 1375.66 L1033.7 1375.66 L1047 1375.66 L1060.31 1375.66 L1073.62 1375.66 L1086.93 1375.66 L1100.24 1375.66 L1113.55 1375.66 L1126.86 1375.66 L1140.17 1375.66 
  L1153.48 1375.66 L1166.79 1375.66 L1180.1 1375.66 L1193.41 1375.66 L1206.72 1375.66 L1220.02 1375.66 L1233.33 1375.66 L1246.64 1375.66 L1259.95 1375.66 L1273.26 1375.66 
  L1286.57 1375.66 L1299.88 1375.66 L1313.19 1375.66 L1326.5 1375.66 L1339.81 1375.66 L1353.12 1375.66 L1366.43 1375.66 L1379.74 1375.66 L1393.04 1375.66 L1406.35 1375.66 
  L1419.66 1375.66 L1432.97 1375.66 L1446.28 1375.66 L1459.59 1375.66 L1472.9 1375.66 L1486.21 1375.66 L1499.52 1375.66 L1512.83 1375.66 L1526.14 1375.66 L1539.45 1375.66 
  L1552.76 1375.66 L1552.76 1375.66 L1552.76 1375.66 L1552.76 1375.66 L1552.76 1362.24 L1552.76 1348.82 L1552.76 1335.4 L1552.76 1321.99 L1552.76 1308.57 L1552.76 1295.15 
  L1552.76 1281.73 L1552.76 1268.31 L1552.76 1254.89 L1552.76 1241.48 L1552.76 1228.06 L1552.76 1214.64 L1552.76 1201.22 L1552.76 1187.8 L1552.76 1174.38 L1552.76 1160.97 
  L1552.76 1147.55 L1552.76 1134.13 L1552.76 1120.71 L1552.76 1107.29 L1552.76 1093.87 L1552.76 1080.46 L1552.76 1067.04 L1552.76 1053.62 L1552.76 1040.2 L1552.76 1026.78 
  L1552.76 1013.36 L1552.76 999.946 L1552.76 986.528 L1552.76 973.11 L1552.76 959.691 L1552.76 946.273 L1552.76 932.855 L1552.76 919.436 L1552.76 906.018 L1552.76 892.6 
  L1552.76 879.181 L1552.76 865.763 L1552.76 852.345 L1552.76 838.926 L1552.76 825.508 L1552.76 812.09 L1552.76 798.671 L1552.76 785.253 L1552.76 771.835 L1552.76 758.416 
  L1552.76 744.998 L1552.76 731.579 L1552.76 718.161 L1552.76 704.743 L1552.76 691.324 L1552.76 677.906 L1552.76 664.488 L1552.76 651.069 L1552.76 637.651 L1552.76 624.233 
  L1552.76 610.814 L1552.76 597.396 L1552.76 583.978 L1552.76 570.559 L1552.76 557.141 L1552.76 543.723 L1552.76 530.304 L1552.76 516.886 L1552.76 503.468 L1552.76 490.049 
  L1552.76 476.631 L1552.76 463.213 L1552.76 449.794 L1552.76 436.376 L1552.76 422.958 L1552.76 409.539 L1552.76 396.121 L1552.76 382.703 L1552.76 369.284 L1552.76 355.866 
  L1552.76 342.448 L1552.76 329.029 L1552.76 315.611 L1552.76 302.193 L1552.76 288.774 L1552.76 275.356 L1552.76 261.938 L1552.76 248.519 L1552.76 235.101 L1552.76 221.683 
  L1552.76 208.264 L1552.76 194.846 L1552.76 181.428 L1552.76 168.009 L1552.76 154.591 L1552.76 141.172 L1552.76 127.754 L1552.76 114.336 L1552.76 100.917 L1552.76 87.4991 
  L1552.76 74.0808 L1552.76 60.6624 L1552.76 47.2441 L1552.76 47.2441 L1552.76 47.2441 L1552.76 47.2441 L1539.45 47.2441 L1526.14 47.2441 L1512.83 47.2441 L1499.52 47.2441 
  L1486.21 47.2441 L1472.9 47.2441 L1459.59 47.2441 L1446.28 47.2441 L1432.97 47.2441 L1419.66 47.2441 L1406.35 47.2441 L1393.04 47.2441 L1379.74 47.2441 L1366.43 47.2441 
  L1353.12 47.2441 L1339.81 47.2441 L1326.5 47.2441 L1313.19 47.2441 L1299.88 47.2441 L1286.57 47.2441 L1273.26 47.2441 L1259.95 47.2441 L1246.64 47.2441 L1233.33 47.2441 
  L1220.02 47.2441 L1206.72 47.2441 L1193.41 47.2441 L1180.1 47.2441 L1166.79 47.2441 L1153.48 47.2441 L1140.17 47.2441 L1126.86 47.2441 L1113.55 47.2441 L1100.24 47.2441 
  L1086.93 47.2441 L1073.62 47.2441 L1060.31 47.2441 L1047 47.2441 L1033.7 47.2441 L1020.39 47.2441 L1007.08 47.2441 L993.767 47.2441 L980.458 47.2441 L967.149 47.2441 
  L953.84 47.2441 L940.53 47.2441 L927.221 47.2441 L913.912 47.2441 L900.603 47.2441 L887.293 47.2441 L873.984 47.2441 L860.675 47.2441 L847.366 47.2441 L834.056 47.2441 
  L820.747 47.2441 L807.438 47.2441 L794.129 47.2441 L780.819 47.2441 L767.51 47.2441 L754.201 47.2441 L740.892 47.2441 L727.582 47.2441 L714.273 47.2441 L700.964 47.2441 
  L687.655 47.2441 L674.345 47.2441 L661.036 47.2441 L647.727 47.2441 L634.418 47.2441 L621.108 47.2441 L607.799 47.2441 L594.49 47.2441 L581.181 47.2441 L567.871 47.2441 
  L554.562 47.2441 L541.253 47.2441 L527.944 47.2441 L514.634 47.2441 L501.325 47.2441 L488.016 47.2441 L474.707 47.2441 L461.397 47.2441 L448.088 47.2441 L434.779 47.2441 
  L421.47 47.2441 L408.16 47.2441 L394.851 47.2441 L381.542 47.2441 L368.233 47.2441 L354.923 47.2441 L341.614 47.2441 L328.305 47.2441 L314.996 47.2441 L301.686 47.2441 
  L288.377 47.2441 L275.068 47.2441 L261.759 47.2441 L248.449 47.2441 L235.14 47.2441 L235.14 47.2441 L235.14 47.2441 L235.14 47.2441 L235.14 60.6624 L235.14 74.0808 
  L235.14 87.4991 L235.14 100.917 L235.14 114.336 L235.14 127.754 L235.14 141.172 L235.14 154.591 L235.14 168.009 L235.14 181.428 L235.14 194.846 L235.14 208.264 
  L235.14 221.683 L235.14 235.101 L235.14 248.519 L235.14 261.938 L235.14 275.356 L235.14 288.774 L235.14 302.193 L235.14 315.611 L235.14 329.029 L235.14 342.448 
  L235.14 355.866 L235.14 369.284 L235.14 382.703 L235.14 396.121 L235.14 409.539 L235.14 422.958 L235.14 436.376 L235.14 449.794 L235.14 463.213 L235.14 476.631 
  L235.14 490.049 L235.14 503.468 L235.14 516.886 L235.14 530.304 L235.14 543.723 L235.14 557.141 L235.14 570.559 L235.14 583.978 L235.14 597.396 L235.14 610.814 
  L235.14 624.233 L235.14 637.651 L235.14 651.069 L235.14 664.488 L235.14 677.906 L235.14 691.324 L235.14 704.743 L235.14 718.161 L235.14 731.579 L235.14 744.998 
  L235.14 758.416 L235.14 771.835 L235.14 785.253 L235.14 798.671 L235.14 812.09 L235.14 825.508 L235.14 838.926 L235.14 852.345 L235.14 865.763 L235.14 879.181 
  L235.14 892.6 L235.14 906.018 L235.14 919.436 L235.14 932.855 L235.14 946.273 L235.14 959.691 L235.14 973.11 L235.14 986.528 L235.14 999.946 L235.14 1013.36 
  L235.14 1026.78 L235.14 1040.2 L235.14 1053.62 L235.14 1067.04 L235.14 1080.46 L235.14 1093.87 L235.14 1107.29 L235.14 1120.71 L235.14 1134.13 L235.14 1147.55 
  L235.14 1160.97 L235.14 1174.38 L235.14 1187.8 L235.14 1201.22 L235.14 1214.64 L235.14 1228.06 L235.14 1241.48 L235.14 1254.89 L235.14 1268.31 L235.14 1281.73 
  L235.14 1295.15 L235.14 1308.57 L235.14 1321.99 L235.14 1335.4 L235.14 1348.82 L235.14 1362.24 L235.14 1375.66 L235.14 1375.66 L235.14 1375.66  Z
  " fill="#3a4cc0" fill-rule="evenodd" fill-opacity="0.6"/>
<path clip-path="url(#clip823)" d="
M1512.83 349.157 L1526.14 349.157 L1539.45 349.157 L1552.76 349.157 L1552.76 355.866 L1552.76 342.448 L1552.76 329.029 L1552.76 315.611 L1552.76 302.193 L1552.76 288.774 
  L1552.76 275.356 L1552.76 261.938 L1552.76 248.519 L1552.76 235.101 L1552.76 221.683 L1552.76 208.264 L1552.76 194.846 L1552.76 181.428 L1552.76 168.009 L1552.76 154.591 
  L1552.76 141.172 L1552.76 127.754 L1552.76 114.336 L1552.76 100.917 L1552.76 87.4991 L1552.76 74.0808 L1552.76 60.6624 L1552.76 47.2441 L1552.76 47.2441 L1552.76 47.2441 
  L1552.76 47.2441 L1539.45 47.2441 L1526.14 47.2441 L1512.83 47.2441 L1499.52 47.2441 L1486.21 47.2441 L1472.9 47.2441 L1459.59 47.2441 L1446.28 47.2441 L1432.97 47.2441 
  L1419.66 47.2441 L1406.35 47.2441 L1393.04 47.2441 L1379.74 47.2441 L1366.43 47.2441 L1353.12 47.2441 L1339.81 47.2441 L1326.5 47.2441 L1313.19 47.2441 L1299.88 47.2441 
  L1286.57 47.2441 L1273.26 47.2441 L1259.95 47.2441 L1246.64 47.2441 L1233.33 47.2441 L1220.02 47.2441 L1206.72 47.2441 L1193.41 47.2441 L1180.1 47.2441 L1166.79 47.2441 
  L1153.48 47.2441 L1140.17 47.2441 L1126.86 47.2441 L1113.55 47.2441 L1100.24 47.2441 L1086.93 47.2441 L1073.62 47.2441 L1060.31 47.2441 L1047 47.2441 L1033.7 47.2441 
  L1020.39 47.2441 L1007.08 47.2441 L993.767 47.2441 L980.458 47.2441 L967.149 47.2441 L953.84 47.2441 L940.53 47.2441 L927.221 47.2441 L913.912 47.2441 L900.603 47.2441 
  L887.293 47.2441 L873.984 47.2441 L860.675 47.2441 L847.366 47.2441 L834.056 47.2441 L820.747 47.2441 L807.438 47.2441 L794.129 47.2441 L780.819 47.2441 L767.51 47.2441 
  L754.201 47.2441 L740.892 47.2441 L727.582 47.2441 L714.273 47.2441 L700.964 47.2441 L687.655 47.2441 L674.345 47.2441 L661.036 47.2441 L647.727 47.2441 L634.418 47.2441 
  L621.108 47.2441 L607.799 47.2441 L594.49 47.2441 L581.181 47.2441 L567.871 47.2441 L554.562 47.2441 L541.253 47.2441 L527.944 47.2441 L514.634 47.2441 L501.325 47.2441 
  L488.016 47.2441 L474.707 47.2441 L461.397 47.2441 L448.088 47.2441 L434.779 47.2441 L421.47 47.2441 L408.16 47.2441 L394.851 47.2441 L381.542 47.2441 L368.233 47.2441 
  L354.923 47.2441 L341.614 47.2441 L328.305 47.2441 L314.996 47.2441 L301.686 47.2441 L288.377 47.2441 L275.068 47.2441 L261.759 47.2441 L248.449 47.2441 L235.14 47.2441 
  L235.14 47.2441 L235.14 47.2441 L235.14 47.2441 L235.14 60.6624 L235.14 74.0808 L235.14 87.4991 L235.14 100.917 L235.14 114.336 L235.14 127.754 L235.14 141.172 
  L235.14 154.591 L235.14 168.009 L235.14 181.428 L235.14 194.846 L235.14 208.264 L235.14 221.683 L235.14 235.101 L235.14 248.519 L235.14 261.938 L235.14 275.356 
  L235.14 268.647 L248.449 268.647 L261.759 268.647 L275.068 268.647 L288.377 268.647 L301.686 268.647 L308.722 275.356 L314.996 281.681 L328.305 282.065 L341.614 282.065 
  L354.923 282.065 L368.233 282.065 L381.542 282.065 L394.851 282.065 L408.16 282.065 L421.47 282.065 L434.779 282.065 L448.088 282.065 L461.397 282.065 L474.707 282.065 
  L488.016 282.065 L501.325 282.065 L514.634 282.065 L527.944 282.065 L536.34 288.774 L541.253 293.728 L554.562 295.483 L567.871 295.483 L581.181 295.483 L594.49 295.483 
  L607.799 295.483 L621.108 295.483 L634.418 295.483 L647.727 295.483 L661.036 295.483 L674.345 295.483 L687.655 295.483 L700.964 295.483 L714.273 295.483 L727.582 295.483 
  L740.892 295.483 L754.201 295.483 L767.51 295.483 L778.069 302.193 L780.819 304.966 L794.129 308.902 L807.438 308.902 L820.747 308.902 L834.056 308.902 L847.366 308.902 
  L860.675 308.902 L873.984 308.902 L887.293 308.902 L900.603 308.902 L913.912 308.902 L927.221 308.902 L940.53 308.902 L953.84 308.902 L967.149 308.902 L980.458 308.902 
  L993.767 308.902 L1007.08 308.902 L1020.39 314.802 L1021.19 315.611 L1033.7 322.32 L1047 322.32 L1060.31 322.32 L1073.62 322.32 L1086.93 322.32 L1100.24 322.32 
  L1113.55 322.32 L1126.86 322.32 L1140.17 322.32 L1153.48 322.32 L1166.79 322.32 L1180.1 322.32 L1193.41 322.32 L1206.72 322.32 L1220.02 322.32 L1233.33 322.32 
  L1246.64 322.32 L1259.95 325.273 L1263.68 329.029 L1273.26 335.738 L1286.57 335.738 L1299.88 335.738 L1313.19 335.738 L1326.5 335.738 L1339.81 335.738 L1353.12 335.738 
  L1366.43 335.738 L1379.74 335.738 L1393.04 335.738 L1406.35 335.738 L1419.66 335.738 L1432.97 335.738 L1446.28 335.738 L1459.59 335.738 L1472.9 335.738 L1486.21 335.738 
  L1499.52 336.861 L1505.06 342.448 L1512.83 349.157  Z
  " fill="#b30326" fill-rule="evenodd" fill-opacity="0.6"/>
<polyline clip-path="url(#clip823)" style="stroke:#3a4cc0; stroke-linecap:round; stroke-linejoin:round; stroke-width:4; stroke-opacity:0.6; fill:none" points="
  235.14,1375.66 235.14,1375.66 248.449,1375.66 261.759,1375.66 275.068,1375.66 288.377,1375.66 301.686,1375.66 314.996,1375.66 328.305,1375.66 341.614,1375.66 
  354.923,1375.66 368.233,1375.66 381.542,1375.66 394.851,1375.66 408.16,1375.66 421.47,1375.66 434.779,1375.66 448.088,1375.66 461.397,1375.66 474.707,1375.66 
  488.016,1375.66 501.325,1375.66 514.634,1375.66 527.944,1375.66 541.253,1375.66 554.562,1375.66 567.871,1375.66 581.181,1375.66 594.49,1375.66 607.799,1375.66 
  621.108,1375.66 634.418,1375.66 647.727,1375.66 661.036,1375.66 674.345,1375.66 687.655,1375.66 700.964,1375.66 714.273,1375.66 727.582,1375.66 740.892,1375.66 
  754.201,1375.66 767.51,1375.66 780.819,1375.66 794.129,1375.66 807.438,1375.66 820.747,1375.66 834.056,1375.66 847.366,1375.66 860.675,1375.66 873.984,1375.66 
  887.293,1375.66 900.603,1375.66 913.912,1375.66 927.221,1375.66 940.53,1375.66 953.84,1375.66 967.149,1375.66 980.458,1375.66 993.767,1375.66 1007.08,1375.66 
  1020.39,1375.66 1033.7,1375.66 1047,1375.66 1060.31,1375.66 1073.62,1375.66 1086.93,1375.66 1100.24,1375.66 1113.55,1375.66 1126.86,1375.66 1140.17,1375.66 
  1153.48,1375.66 1166.79,1375.66 1180.1,1375.66 1193.41,1375.66 1206.72,1375.66 1220.02,1375.66 1233.33,1375.66 1246.64,1375.66 1259.95,1375.66 1273.26,1375.66 
  1286.57,1375.66 1299.88,1375.66 1313.19,1375.66 1326.5,1375.66 1339.81,1375.66 1353.12,1375.66 1366.43,1375.66 1379.74,1375.66 1393.04,1375.66 1406.35,1375.66 
  1419.66,1375.66 1432.97,1375.66 1446.28,1375.66 1459.59,1375.66 1472.9,1375.66 1486.21,1375.66 1499.52,1375.66 1512.83,1375.66 1526.14,1375.66 1539.45,1375.66 
  1552.76,1375.66 1552.76,1362.24 1552.76,1348.82 1552.76,1335.4 1552.76,1321.99 1552.76,1308.57 1552.76,1295.15 
  1552.76,1281.73 1552.76,1268.31 1552.76,1254.89 1552.76,1241.48 1552.76,1228.06 1552.76,1214.64 1552.76,1201.22 1552.76,1187.8 1552.76,1174.38 1552.76,1160.97 
  1552.76,1147.55 1552.76,1134.13 1552.76,1120.71 1552.76,1107.29 1552.76,1093.87 1552.76,1080.46 1552.76,1067.04 1552.76,1053.62 1552.76,1040.2 1552.76,1026.78 
  1552.76,1013.36 1552.76,999.946 1552.76,986.528 1552.76,973.11 1552.76,959.691 1552.76,946.273 1552.76,932.855 1552.76,919.436 1552.76,906.018 1552.76,892.6 
  1552.76,879.181 1552.76,865.763 1552.76,852.345 1552.76,838.926 1552.76,825.508 1552.76,812.09 1552.76,798.671 1552.76,785.253 1552.76,771.835 1552.76,758.416 
  1552.76,744.998 1552.76,731.579 1552.76,718.161 1552.76,704.743 1552.76,691.324 1552.76,677.906 1552.76,664.488 1552.76,651.069 1552.76,637.651 1552.76,624.233 
  1552.76,610.814 1552.76,597.396 1552.76,583.978 1552.76,570.559 1552.76,557.141 1552.76,543.723 1552.76,530.304 1552.76,516.886 1552.76,503.468 1552.76,490.049 
  1552.76,476.631 1552.76,463.213 1552.76,449.794 1552.76,436.376 1552.76,422.958 1552.76,409.539 1552.76,396.121 1552.76,382.703 1552.76,369.284 1552.76,355.866 
  1552.76,342.448 1552.76,329.029 1552.76,315.611 1552.76,302.193 1552.76,288.774 1552.76,275.356 1552.76,261.938 1552.76,248.519 1552.76,235.101 1552.76,221.683 
  1552.76,208.264 1552.76,194.846 1552.76,181.428 1552.76,168.009 1552.76,154.591 1552.76,141.172 1552.76,127.754 1552.76,114.336 1552.76,100.917 1552.76,87.4991 
  1552.76,74.0808 1552.76,60.6624 1552.76,47.2441 1539.45,47.2441 1526.14,47.2441 1512.83,47.2441 1499.52,47.2441 
  1486.21,47.2441 1472.9,47.2441 1459.59,47.2441 1446.28,47.2441 1432.97,47.2441 1419.66,47.2441 1406.35,47.2441 1393.04,47.2441 1379.74,47.2441 1366.43,47.2441 
  1353.12,47.2441 1339.81,47.2441 1326.5,47.2441 1313.19,47.2441 1299.88,47.2441 1286.57,47.2441 1273.26,47.2441 1259.95,47.2441 1246.64,47.2441 1233.33,47.2441 
  1220.02,47.2441 1206.72,47.2441 1193.41,47.2441 1180.1,47.2441 1166.79,47.2441 1153.48,47.2441 1140.17,47.2441 1126.86,47.2441 1113.55,47.2441 1100.24,47.2441 
  1086.93,47.2441 1073.62,47.2441 1060.31,47.2441 1047,47.2441 1033.7,47.2441 1020.39,47.2441 1007.08,47.2441 993.767,47.2441 980.458,47.2441 967.149,47.2441 
  953.84,47.2441 940.53,47.2441 927.221,47.2441 913.912,47.2441 900.603,47.2441 887.293,47.2441 873.984,47.2441 860.675,47.2441 847.366,47.2441 834.056,47.2441 
  820.747,47.2441 807.438,47.2441 794.129,47.2441 780.819,47.2441 767.51,47.2441 754.201,47.2441 740.892,47.2441 727.582,47.2441 714.273,47.2441 700.964,47.2441 
  687.655,47.2441 674.345,47.2441 661.036,47.2441 647.727,47.2441 634.418,47.2441 621.108,47.2441 607.799,47.2441 594.49,47.2441 581.181,47.2441 567.871,47.2441 
  554.562,47.2441 541.253,47.2441 527.944,47.2441 514.634,47.2441 501.325,47.2441 488.016,47.2441 474.707,47.2441 461.397,47.2441 448.088,47.2441 434.779,47.2441 
  421.47,47.2441 408.16,47.2441 394.851,47.2441 381.542,47.2441 368.233,47.2441 354.923,47.2441 341.614,47.2441 328.305,47.2441 314.996,47.2441 301.686,47.2441 
  288.377,47.2441 275.068,47.2441 261.759,47.2441 248.449,47.2441 235.14,47.2441 235.14,60.6624 235.14,74.0808 
  235.14,87.4991 235.14,100.917 235.14,114.336 235.14,127.754 235.14,141.172 235.14,154.591 235.14,168.009 235.14,181.428 235.14,194.846 235.14,208.264 
  235.14,221.683 235.14,235.101 235.14,248.519 235.14,261.938 235.14,275.356 235.14,288.774 235.14,302.193 235.14,315.611 235.14,329.029 235.14,342.448 
  235.14,355.866 235.14,369.284 235.14,382.703 235.14,396.121 235.14,409.539 235.14,422.958 235.14,436.376 235.14,449.794 235.14,463.213 235.14,476.631 
  235.14,490.049 235.14,503.468 235.14,516.886 235.14,530.304 235.14,543.723 235.14,557.141 235.14,570.559 235.14,583.978 235.14,597.396 235.14,610.814 
  235.14,624.233 235.14,637.651 235.14,651.069 235.14,664.488 235.14,677.906 235.14,691.324 235.14,704.743 235.14,718.161 235.14,731.579 235.14,744.998 
  235.14,758.416 235.14,771.835 235.14,785.253 235.14,798.671 235.14,812.09 235.14,825.508 235.14,838.926 235.14,852.345 235.14,865.763 235.14,879.181 
  235.14,892.6 235.14,906.018 235.14,919.436 235.14,932.855 235.14,946.273 235.14,959.691 235.14,973.11 235.14,986.528 235.14,999.946 235.14,1013.36 
  235.14,1026.78 235.14,1040.2 235.14,1053.62 235.14,1067.04 235.14,1080.46 235.14,1093.87 235.14,1107.29 235.14,1120.71 235.14,1134.13 235.14,1147.55 
  235.14,1160.97 235.14,1174.38 235.14,1187.8 235.14,1201.22 235.14,1214.64 235.14,1228.06 235.14,1241.48 235.14,1254.89 235.14,1268.31 235.14,1281.73 
  235.14,1295.15 235.14,1308.57 235.14,1321.99 235.14,1335.4 235.14,1348.82 235.14,1362.24 235.14,1375.66 
  "/>
<polyline clip-path="url(#clip823)" style="stroke:#3a4cc0; stroke-linecap:round; stroke-linejoin:round; stroke-width:4; stroke-opacity:0.6; fill:none" points="
  1512.83,349.157 1526.14,349.157 1539.45,349.157 1552.76,349.157 1552.76,355.866 1552.76,342.448 1552.76,329.029 1552.76,315.611 1552.76,302.193 1552.76,288.774 
  1552.76,275.356 1552.76,261.938 1552.76,248.519 1552.76,235.101 1552.76,221.683 1552.76,208.264 1552.76,194.846 1552.76,181.428 1552.76,168.009 1552.76,154.591 
  1552.76,141.172 1552.76,127.754 1552.76,114.336 1552.76,100.917 1552.76,87.4991 1552.76,74.0808 1552.76,60.6624 1552.76,47.2441 
  1539.45,47.2441 1526.14,47.2441 1512.83,47.2441 1499.52,47.2441 1486.21,47.2441 1472.9,47.2441 1459.59,47.2441 1446.28,47.2441 1432.97,47.2441 
  1419.66,47.2441 1406.35,47.2441 1393.04,47.2441 1379.74,47.2441 1366.43,47.2441 1353.12,47.2441 1339.81,47.2441 1326.5,47.2441 1313.19,47.2441 1299.88,47.2441 
  1286.57,47.2441 1273.26,47.2441 1259.95,47.2441 1246.64,47.2441 1233.33,47.2441 1220.02,47.2441 1206.72,47.2441 1193.41,47.2441 1180.1,47.2441 1166.79,47.2441 
  1153.48,47.2441 1140.17,47.2441 1126.86,47.2441 1113.55,47.2441 1100.24,47.2441 1086.93,47.2441 1073.62,47.2441 1060.31,47.2441 1047,47.2441 1033.7,47.2441 
  1020.39,47.2441 1007.08,47.2441 993.767,47.2441 980.458,47.2441 967.149,47.2441 953.84,47.2441 940.53,47.2441 927.221,47.2441 913.912,47.2441 900.603,47.2441 
  887.293,47.2441 873.984,47.2441 860.675,47.2441 847.366,47.2441 834.056,47.2441 820.747,47.2441 807.438,47.2441 794.129,47.2441 780.819,47.2441 767.51,47.2441 
  754.201,47.2441 740.892,47.2441 727.582,47.2441 714.273,47.2441 700.964,47.2441 687.655,47.2441 674.345,47.2441 661.036,47.2441 647.727,47.2441 634.418,47.2441 
  621.108,47.2441 607.799,47.2441 594.49,47.2441 581.181,47.2441 567.871,47.2441 554.562,47.2441 541.253,47.2441 527.944,47.2441 514.634,47.2441 501.325,47.2441 
  488.016,47.2441 474.707,47.2441 461.397,47.2441 448.088,47.2441 434.779,47.2441 421.47,47.2441 408.16,47.2441 394.851,47.2441 381.542,47.2441 368.233,47.2441 
  354.923,47.2441 341.614,47.2441 328.305,47.2441 314.996,47.2441 301.686,47.2441 288.377,47.2441 275.068,47.2441 261.759,47.2441 248.449,47.2441 235.14,47.2441 
  235.14,60.6624 235.14,74.0808 235.14,87.4991 235.14,100.917 235.14,114.336 235.14,127.754 235.14,141.172 
  235.14,154.591 235.14,168.009 235.14,181.428 235.14,194.846 235.14,208.264 235.14,221.683 235.14,235.101 235.14,248.519 235.14,261.938 235.14,275.356 
  235.14,268.647 248.449,268.647 261.759,268.647 275.068,268.647 288.377,268.647 301.686,268.647 308.722,275.356 314.996,281.681 328.305,282.065 341.614,282.065 
  354.923,282.065 368.233,282.065 381.542,282.065 394.851,282.065 408.16,282.065 421.47,282.065 434.779,282.065 448.088,282.065 461.397,282.065 474.707,282.065 
  488.016,282.065 501.325,282.065 514.634,282.065 527.944,282.065 536.34,288.774 541.253,293.728 554.562,295.483 567.871,295.483 581.181,295.483 594.49,295.483 
  607.799,295.483 621.108,295.483 634.418,295.483 647.727,295.483 661.036,295.483 674.345,295.483 687.655,295.483 700.964,295.483 714.273,295.483 727.582,295.483 
  740.892,295.483 754.201,295.483 767.51,295.483 778.069,302.193 780.819,304.966 794.129,308.902 807.438,308.902 820.747,308.902 834.056,308.902 847.366,308.902 
  860.675,308.902 873.984,308.902 887.293,308.902 900.603,308.902 913.912,308.902 927.221,308.902 940.53,308.902 953.84,308.902 967.149,308.902 980.458,308.902 
  993.767,308.902 1007.08,308.902 1020.39,314.802 1021.19,315.611 1033.7,322.32 1047,322.32 1060.31,322.32 1073.62,322.32 1086.93,322.32 1100.24,322.32 
  1113.55,322.32 1126.86,322.32 1140.17,322.32 1153.48,322.32 1166.79,322.32 1180.1,322.32 1193.41,322.32 1206.72,322.32 1220.02,322.32 1233.33,322.32 
  1246.64,322.32 1259.95,325.273 1263.68,329.029 1273.26,335.738 1286.57,335.738 1299.88,335.738 1313.19,335.738 1326.5,335.738 1339.81,335.738 1353.12,335.738 
  1366.43,335.738 1379.74,335.738 1393.04,335.738 1406.35,335.738 1419.66,335.738 1432.97,335.738 1446.28,335.738 1459.59,335.738 1472.9,335.738 1486.21,335.738 
  1499.52,336.861 1505.06,342.448 1512.83,349.157 
  "/>
<path clip-path="url(#clip820)" d="M680.27 703.289 Q679.014 702.56 677.515 702.236 Q676.057 701.872 674.275 701.872 Q667.955 701.872 664.552 706.004 Q661.19 710.095 661.19 717.792 L661.19 741.692 L653.696 741.692 L653.696 696.322 L661.19 696.322 L661.19 703.37 Q663.54 699.238 667.307 697.254 Q671.074 695.228 676.462 695.228 Q677.232 695.228 678.163 695.35 Q679.095 695.431 680.229 695.633 L680.27 703.289 Z" fill="#000000" fill-rule="evenodd" fill-opacity="1" /><path clip-path="url(#clip820)" d="M725.073 717.143 L725.073 720.789 L690.802 720.789 Q691.288 728.486 695.42 732.537 Q699.593 736.547 707.006 736.547 Q711.3 736.547 715.31 735.494 Q719.361 734.441 723.331 732.334 L723.331 739.383 Q719.321 741.084 715.108 741.976 Q710.895 742.867 706.56 742.867 Q695.704 742.867 689.344 736.547 Q683.024 730.228 683.024 719.453 Q683.024 708.313 689.02 701.791 Q695.056 695.228 705.264 695.228 Q714.419 695.228 719.726 701.142 Q725.073 707.016 725.073 717.143 M717.619 714.956 Q717.538 708.839 714.176 705.193 Q710.854 701.548 705.345 701.548 Q699.107 701.548 695.339 705.072 Q691.612 708.596 691.045 714.997 L717.619 714.956 Z" fill="#000000" fill-rule="evenodd" fill-opacity="1" /><path clip-path="url(#clip820)" d="M737.307 696.322 L744.76 696.322 L744.76 742.502 Q744.76 751.171 741.439 755.06 Q738.157 758.949 730.825 758.949 L727.99 758.949 L727.99 752.629 L729.974 752.629 Q734.228 752.629 735.767 750.644 Q737.307 748.7 737.307 742.502 L737.307 696.322 M737.307 678.66 L744.76 678.66 L744.76 688.099 L737.307 688.099 L737.307 678.66 Z" fill="#000000" fill-rule="evenodd" fill-opacity="1" /><path clip-path="url(#clip820)" d="M799.164 717.143 L799.164 720.789 L764.893 720.789 Q765.379 728.486 769.511 732.537 Q773.684 736.547 781.097 736.547 Q785.391 736.547 789.401 735.494 Q793.452 734.441 797.422 732.334 L797.422 739.383 Q793.412 741.084 789.199 741.976 Q784.986 742.867 780.651 742.867 Q769.795 742.867 763.435 736.547 Q757.116 730.228 757.116 719.453 Q757.116 708.313 763.111 701.791 Q769.147 695.228 779.355 695.228 Q788.51 695.228 793.817 701.142 Q799.164 707.016 799.164 717.143 M791.71 714.956 Q791.629 708.839 788.267 705.193 Q784.945 701.548 779.436 701.548 Q773.198 701.548 769.43 705.072 Q765.703 708.596 765.136 714.997 L791.71 714.956 Z" fill="#000000" fill-rule="evenodd" fill-opacity="1" /><path clip-path="url(#clip820)" d="M844.048 698.064 L844.048 705.031 Q840.888 703.289 837.688 702.439 Q834.528 701.548 831.288 701.548 Q824.036 701.548 820.026 706.166 Q816.016 710.743 816.016 719.047 Q816.016 727.352 820.026 731.97 Q824.036 736.547 831.288 736.547 Q834.528 736.547 837.688 735.697 Q840.888 734.805 844.048 733.064 L844.048 739.95 Q840.929 741.408 837.566 742.138 Q834.245 742.867 830.477 742.867 Q820.229 742.867 814.193 736.426 Q808.157 729.985 808.157 719.047 Q808.157 707.948 814.233 701.588 Q820.35 695.228 830.964 695.228 Q834.407 695.228 837.688 695.957 Q840.969 696.646 844.048 698.064 Z" fill="#000000" fill-rule="evenodd" fill-opacity="1" /><path clip-path="url(#clip820)" d="M864.383 683.44 L864.383 696.322 L879.736 696.322 L879.736 702.115 L864.383 702.115 L864.383 726.744 Q864.383 732.294 865.882 733.874 Q867.422 735.454 872.08 735.454 L879.736 735.454 L879.736 741.692 L872.08 741.692 Q863.452 741.692 860.171 738.492 Q856.889 735.251 856.889 726.744 L856.889 702.115 L851.421 702.115 L851.421 696.322 L856.889 696.322 L856.889 683.44 L864.383 683.44 Z" fill="#000000" fill-rule="evenodd" fill-opacity="1" /><path clip-path="url(#clip820)" d="M1054.19 187.519 Q1045.15 187.519 1041.67 189.585 Q1038.19 191.651 1038.19 196.634 Q1038.19 200.603 1040.78 202.953 Q1043.41 205.262 1047.91 205.262 Q1054.11 205.262 1057.83 200.887 Q1061.6 196.472 1061.6 189.18 L1061.6 187.519 L1054.19 187.519 M1069.05 184.44 L1069.05 210.326 L1061.6 210.326 L1061.6 203.439 Q1059.05 207.571 1055.24 209.556 Q1051.43 211.5 1045.92 211.5 Q1038.96 211.5 1034.82 207.612 Q1030.73 203.682 1030.73 197.12 Q1030.73 189.464 1035.84 185.575 Q1040.98 181.686 1051.15 181.686 L1061.6 181.686 L1061.6 180.957 Q1061.6 175.812 1058.2 173.017 Q1054.84 170.181 1048.72 170.181 Q1044.83 170.181 1041.14 171.113 Q1037.46 172.045 1034.05 173.908 L1034.05 167.022 Q1038.15 165.442 1041.99 164.672 Q1045.84 163.862 1049.49 163.862 Q1059.33 163.862 1064.19 168.966 Q1069.05 174.07 1069.05 184.44 Z" fill="#000000" fill-rule="evenodd" fill-opacity="1" /><path clip-path="url(#clip820)" d="M1117.06 166.697 L1117.06 173.665 Q1113.9 171.923 1110.7 171.072 Q1107.54 170.181 1104.3 170.181 Q1097.05 170.181 1093.04 174.799 Q1089.03 179.377 1089.03 187.681 Q1089.03 195.985 1093.04 200.603 Q1097.05 205.181 1104.3 205.181 Q1107.54 205.181 1110.7 204.33 Q1113.9 203.439 1117.06 201.697 L1117.06 208.584 Q1113.94 210.042 1110.58 210.771 Q1107.25 211.5 1103.49 211.5 Q1093.24 211.5 1087.2 205.059 Q1081.17 198.619 1081.17 187.681 Q1081.17 176.582 1087.24 170.222 Q1093.36 163.862 1103.97 163.862 Q1107.42 163.862 1110.7 164.591 Q1113.98 165.28 1117.06 166.697 Z" fill="#000000" fill-rule="evenodd" fill-opacity="1" /><path clip-path="url(#clip820)" d="M1162.67 166.697 L1162.67 173.665 Q1159.51 171.923 1156.31 171.072 Q1153.15 170.181 1149.91 170.181 Q1142.66 170.181 1138.65 174.799 Q1134.64 179.377 1134.64 187.681 Q1134.64 195.985 1138.65 200.603 Q1142.66 205.181 1149.91 205.181 Q1153.15 205.181 1156.31 204.33 Q1159.51 203.439 1162.67 201.697 L1162.67 208.584 Q1159.55 210.042 1156.19 210.771 Q1152.87 211.5 1149.1 211.5 Q1138.85 211.5 1132.82 205.059 Q1126.78 198.619 1126.78 187.681 Q1126.78 176.582 1132.86 170.222 Q1138.97 163.862 1149.59 163.862 Q1153.03 163.862 1156.31 164.591 Q1159.59 165.28 1162.67 166.697 Z" fill="#000000" fill-rule="evenodd" fill-opacity="1" /><path clip-path="url(#clip820)" d="M1214.44 185.777 L1214.44 189.423 L1180.17 189.423 Q1180.66 197.12 1184.79 201.171 Q1188.96 205.181 1196.37 205.181 Q1200.67 205.181 1204.68 204.128 Q1208.73 203.075 1212.7 200.968 L1212.7 208.017 Q1208.69 209.718 1204.48 210.609 Q1200.26 211.5 1195.93 211.5 Q1185.07 211.5 1178.71 205.181 Q1172.39 198.862 1172.39 188.086 Q1172.39 176.946 1178.39 170.424 Q1184.42 163.862 1194.63 163.862 Q1203.79 163.862 1209.09 169.776 Q1214.44 175.65 1214.44 185.777 M1206.99 183.59 Q1206.91 177.473 1203.54 173.827 Q1200.22 170.181 1194.71 170.181 Q1188.47 170.181 1184.71 173.705 Q1180.98 177.23 1180.41 183.63 L1206.99 183.59 Z" fill="#000000" fill-rule="evenodd" fill-opacity="1" /><path clip-path="url(#clip820)" d="M1233.89 203.52 L1233.89 227.583 L1226.39 227.583 L1226.39 164.956 L1233.89 164.956 L1233.89 171.842 Q1236.23 167.791 1239.8 165.847 Q1243.41 163.862 1248.39 163.862 Q1256.65 163.862 1261.8 170.424 Q1266.98 176.987 1266.98 187.681 Q1266.98 198.376 1261.8 204.938 Q1256.65 211.5 1248.39 211.5 Q1243.41 211.5 1239.8 209.556 Q1236.23 207.571 1233.89 203.52 M1259.24 187.681 Q1259.24 179.458 1255.84 174.799 Q1252.48 170.1 1246.56 170.1 Q1240.65 170.1 1237.25 174.799 Q1233.89 179.458 1233.89 187.681 Q1233.89 195.904 1237.25 200.603 Q1240.65 205.262 1246.56 205.262 Q1252.48 205.262 1255.84 200.603 Q1259.24 195.904 1259.24 187.681 Z" fill="#000000" fill-rule="evenodd" fill-opacity="1" /><path clip-path="url(#clip820)" d="M1286.71 152.074 L1286.71 164.956 L1302.06 164.956 L1302.06 170.748 L1286.71 170.748 L1286.71 195.378 Q1286.71 200.928 1288.21 202.507 Q1289.75 204.087 1294.41 204.087 L1302.06 204.087 L1302.06 210.326 L1294.41 210.326 Q1285.78 210.326 1282.5 207.125 Q1279.22 203.885 1279.22 195.378 L1279.22 170.748 L1273.75 170.748 L1273.75 164.956 L1279.22 164.956 L1279.22 152.074 L1286.71 152.074 Z" fill="#000000" fill-rule="evenodd" fill-opacity="1" /></svg>
