<?xml version="1.0" encoding="utf-8"?>
<svg xmlns="http://www.w3.org/2000/svg" xmlns:xlink="http://www.w3.org/1999/xlink" width="600" height="400" viewBox="0 0 2400 1600">
<defs>
  <clipPath id="clip280">
    <rect x="0" y="0" width="2400" height="1600"/>
  </clipPath>
</defs>
<path clip-path="url(#clip280)" d="
M0 1600 L2400 1600 L2400 0 L0 0  Z
  " fill="#ffffff" fill-rule="evenodd" fill-opacity="1"/>
<defs>
  <clipPath id="clip281">
    <rect x="480" y="0" width="1681" height="1600"/>
  </clipPath>
</defs>
<path clip-path="url(#clip280)" d="
M156.112 1486.45 L2352.76 1486.45 L2352.76 47.2441 L156.112 47.2441  Z
  " fill="#ffffff" fill-rule="evenodd" fill-opacity="1"/>
<defs>
  <clipPath id="clip282">
    <rect x="156" y="47" width="2198" height="1440"/>
  </clipPath>
</defs>
<polyline clip-path="url(#clip282)" style="stroke:#000000; stroke-linecap:butt; stroke-linejoin:round; stroke-width:2; stroke-opacity:0.1; fill:none" points="
  218.276,1486.45 218.276,47.2441 
  "/>
<polyline clip-path="url(#clip282)" style="stroke:#000000; stroke-linecap:butt; stroke-linejoin:round; stroke-width:2; stroke-opacity:0.1; fill:none" points="
  736.354,1486.45 736.354,47.2441 
  "/>
<polyline clip-path="url(#clip282)" style="stroke:#000000; stroke-linecap:butt; stroke-linejoin:round; stroke-width:2; stroke-opacity:0.1; fill:none" points="
  1254.43,1486.45 1254.43,47.2441 
  "/>
<polyline clip-path="url(#clip282)" style="stroke:#000000; stroke-linecap:butt; stroke-linejoin:round; stroke-width:2; stroke-opacity:0.1; fill:none" points="
  1772.51,1486.45 1772.51,47.2441 
  "/>
<polyline clip-path="url(#clip282)" style="stroke:#000000; stroke-linecap:butt; stroke-linejoin:round; stroke-width:2; stroke-opacity:0.1; fill:none" points="
  2290.59,1486.45 2290.59,47.2441 
  "/>
<polyline clip-path="url(#clip280)" style="stroke:#000000; stroke-linecap:butt; stroke-linejoin:round; stroke-width:4; stroke-opacity:1; fill:none" points="
  156.112,1486.45 2352.76,1486.45 
  "/>
<polyline clip-path="url(#clip280)" style="stroke:#000000; stroke-linecap:butt; stroke-linejoin:round; stroke-width:4; stroke-opacity:1; fill:none" points="
  218.276,1486.45 218.276,1467.55 
  "/>
<polyline clip-path="url(#clip280)" style="stroke:#000000; stroke-linecap:butt; stroke-linejoin:round; stroke-width:4; stroke-opacity:1; fill:none" points="
  736.354,1486.45 736.354,1467.55 
  "/>
<polyline clip-path="url(#clip280)" style="stroke:#000000; stroke-linecap:butt; stroke-linejoin:round; stroke-width:4; stroke-opacity:1; fill:none" points="
  1254.43,1486.45 1254.43,1467.55 
  "/>
<polyline clip-path="url(#clip280)" style="stroke:#000000; stroke-linecap:butt; stroke-linejoin:round; stroke-width:4; stroke-opacity:1; fill:none" points="
  1772.51,1486.45 1772.51,1467.55 
  "/>
<polyline clip-path="url(#clip280)" style="stroke:#000000; stroke-linecap:butt; stroke-linejoin:round; stroke-width:4; stroke-opacity:1; fill:none" points="
  2290.59,1486.45 2290.59,1467.55 
  "/>
<path clip-path="url(#clip280)" d="M218.276 1515.64 Q214.665 1515.64 212.836 1519.2 Q211.031 1522.75 211.031 1529.87 Q211.031 1536.98 212.836 1540.55 Q214.665 1544.09 218.276 1544.09 Q221.91 1544.09 223.716 1540.55 Q225.545 1536.98 225.545 1529.87 Q225.545 1522.75 223.716 1519.2 Q221.91 1515.64 218.276 1515.64 M218.276 1511.93 Q224.086 1511.93 227.142 1516.54 Q230.22 1521.12 230.22 1529.87 Q230.22 1538.6 227.142 1543.21 Q224.086 1547.79 218.276 1547.79 Q212.466 1547.79 209.387 1543.21 Q206.332 1538.6 206.332 1529.87 Q206.332 1521.12 209.387 1516.54 Q212.466 1511.93 218.276 1511.93 Z" fill="#000000" fill-rule="evenodd" fill-opacity="1" /><path clip-path="url(#clip280)" d="M726.736 1543.18 L734.375 1543.18 L734.375 1516.82 L726.064 1518.49 L726.064 1514.23 L734.328 1512.56 L739.004 1512.56 L739.004 1543.18 L746.643 1543.18 L746.643 1547.12 L726.736 1547.12 L726.736 1543.18 Z" fill="#000000" fill-rule="evenodd" fill-opacity="1" /><path clip-path="url(#clip280)" d="M1249.08 1543.18 L1265.4 1543.18 L1265.4 1547.12 L1243.46 1547.12 L1243.46 1543.18 Q1246.12 1540.43 1250.7 1535.8 Q1255.31 1531.15 1256.49 1529.81 Q1258.74 1527.28 1259.62 1525.55 Q1260.52 1523.79 1260.52 1522.1 Q1260.52 1519.34 1258.57 1517.61 Q1256.65 1515.87 1253.55 1515.87 Q1251.35 1515.87 1248.9 1516.63 Q1246.47 1517.4 1243.69 1518.95 L1243.69 1514.23 Q1246.51 1513.09 1248.97 1512.51 Q1251.42 1511.93 1253.46 1511.93 Q1258.83 1511.93 1262.02 1514.62 Q1265.22 1517.31 1265.22 1521.8 Q1265.22 1523.93 1264.41 1525.85 Q1263.62 1527.74 1261.51 1530.34 Q1260.94 1531.01 1257.83 1534.23 Q1254.73 1537.42 1249.08 1543.18 Z" fill="#000000" fill-rule="evenodd" fill-opacity="1" /><path clip-path="url(#clip280)" d="M1776.76 1528.49 Q1780.11 1529.2 1781.99 1531.47 Q1783.89 1533.74 1783.89 1537.07 Q1783.89 1542.19 1780.37 1544.99 Q1776.85 1547.79 1770.37 1547.79 Q1768.19 1547.79 1765.88 1547.35 Q1763.59 1546.93 1761.13 1546.08 L1761.13 1541.56 Q1763.08 1542.7 1765.39 1543.28 Q1767.71 1543.86 1770.23 1543.86 Q1774.63 1543.86 1776.92 1542.12 Q1779.23 1540.38 1779.23 1537.07 Q1779.23 1534.02 1777.08 1532.31 Q1774.95 1530.57 1771.13 1530.57 L1767.1 1530.57 L1767.1 1526.73 L1771.32 1526.73 Q1774.77 1526.73 1776.59 1525.36 Q1778.42 1523.97 1778.42 1521.38 Q1778.42 1518.72 1776.53 1517.31 Q1774.65 1515.87 1771.13 1515.87 Q1769.21 1515.87 1767.01 1516.29 Q1764.81 1516.7 1762.17 1517.58 L1762.17 1513.42 Q1764.84 1512.68 1767.15 1512.31 Q1769.49 1511.93 1771.55 1511.93 Q1776.87 1511.93 1779.97 1514.37 Q1783.08 1516.77 1783.08 1520.89 Q1783.08 1523.76 1781.43 1525.75 Q1779.79 1527.72 1776.76 1528.49 Z" fill="#000000" fill-rule="evenodd" fill-opacity="1" /><path clip-path="url(#clip280)" d="M2293.6 1516.63 L2281.79 1535.08 L2293.6 1535.08 L2293.6 1516.63 M2292.37 1512.56 L2298.25 1512.56 L2298.25 1535.08 L2303.18 1535.08 L2303.18 1538.97 L2298.25 1538.97 L2298.25 1547.12 L2293.6 1547.12 L2293.6 1538.97 L2277.99 1538.97 L2277.99 1534.46 L2292.37 1512.56 Z" fill="#000000" fill-rule="evenodd" fill-opacity="1" /><polyline clip-path="url(#clip282)" style="stroke:#000000; stroke-linecap:butt; stroke-linejoin:round; stroke-width:2; stroke-opacity:0.1; fill:none" points="
  156.112,1445.72 2352.76,1445.72 
  "/>
<polyline clip-path="url(#clip282)" style="stroke:#000000; stroke-linecap:butt; stroke-linejoin:round; stroke-width:2; stroke-opacity:0.1; fill:none" points="
  156.112,1170.2 2352.76,1170.2 
  "/>
<polyline clip-path="url(#clip282)" style="stroke:#000000; stroke-linecap:butt; stroke-linejoin:round; stroke-width:2; stroke-opacity:0.1; fill:none" points="
  156.112,894.686 2352.76,894.686 
  "/>
<polyline clip-path="url(#clip282)" style="stroke:#000000; stroke-linecap:butt; stroke-linejoin:round; stroke-width:2; stroke-opacity:0.1; fill:none" points="
  156.112,619.17 2352.76,619.17 
  "/>
<polyline clip-path="url(#clip282)" style="stroke:#000000; stroke-linecap:butt; stroke-linejoin:round; stroke-width:2; stroke-opacity:0.1; fill:none" points="
  156.112,343.655 2352.76,343.655 
  "/>
<polyline clip-path="url(#clip282)" style="stroke:#000000; stroke-linecap:butt; stroke-linejoin:round; stroke-width:2; stroke-opacity:0.1; fill:none" points="
  156.112,68.1392 2352.76,68.1392 
  "/>
<polyline clip-path="url(#clip280)" style="stroke:#000000; stroke-linecap:butt; stroke-linejoin:round; stroke-width:4; stroke-opacity:1; fill:none" points="
  156.112,1486.45 156.112,47.2441 
  "/>
<polyline clip-path="url(#clip280)" style="stroke:#000000; stroke-linecap:butt; stroke-linejoin:round; stroke-width:4; stroke-opacity:1; fill:none" points="
  156.112,1445.72 175.01,1445.72 
  "/>
<polyline clip-path="url(#clip280)" style="stroke:#000000; stroke-linecap:butt; stroke-linejoin:round; stroke-width:4; stroke-opacity:1; fill:none" points="
  156.112,1170.2 175.01,1170.2 
  "/>
<polyline clip-path="url(#clip280)" style="stroke:#000000; stroke-linecap:butt; stroke-linejoin:round; stroke-width:4; stroke-opacity:1; fill:none" points="
  156.112,894.686 175.01,894.686 
  "/>
<polyline clip-path="url(#clip280)" style="stroke:#000000; stroke-linecap:butt; stroke-linejoin:round; stroke-width:4; stroke-opacity:1; fill:none" points="
  156.112,619.17 175.01,619.17 
  "/>
<polyline clip-path="url(#clip280)" style="stroke:#000000; stroke-linecap:butt; stroke-linejoin:round; stroke-width:4; stroke-opacity:1; fill:none" points="
  156.112,343.655 175.01,343.655 
  "/>
<polyline clip-path="url(#clip280)" style="stroke:#000000; stroke-linecap:butt; stroke-linejoin:round; stroke-width:4; stroke-opacity:1; fill:none" points="
  156.112,68.1392 175.01,68.1392 
  "/>
<path clip-path="url(#clip280)" d="M62.9365 1431.52 Q59.3254 1431.52 57.4967 1435.08 Q55.6912 1438.62 55.6912 1445.75 Q55.6912 1452.86 57.4967 1456.42 Q59.3254 1459.96 62.9365 1459.96 Q66.5707 1459.96 68.3763 1456.42 Q70.205 1452.86 70.205 1445.75 Q70.205 1438.62 68.3763 1435.08 Q66.5707 1431.52 62.9365 1431.52 M62.9365 1427.81 Q68.7467 1427.81 71.8022 1432.42 Q74.8809 1437 74.8809 1445.75 Q74.8809 1454.48 71.8022 1459.08 Q68.7467 1463.67 62.9365 1463.67 Q57.1264 1463.67 54.0477 1459.08 Q50.9921 1454.48 50.9921 1445.75 Q50.9921 1437 54.0477 1432.42 Q57.1264 1427.81 62.9365 1427.81 Z" fill="#000000" fill-rule="evenodd" fill-opacity="1" /><path clip-path="url(#clip280)" d="M83.0984 1457.12 L87.9827 1457.12 L87.9827 1463 L83.0984 1463 L83.0984 1457.12 Z" fill="#000000" fill-rule="evenodd" fill-opacity="1" /><path clip-path="url(#clip280)" d="M108.168 1431.52 Q104.557 1431.52 102.728 1435.08 Q100.922 1438.62 100.922 1445.75 Q100.922 1452.86 102.728 1456.42 Q104.557 1459.96 108.168 1459.96 Q111.802 1459.96 113.608 1456.42 Q115.436 1452.86 115.436 1445.75 Q115.436 1438.62 113.608 1435.08 Q111.802 1431.52 108.168 1431.52 M108.168 1427.81 Q113.978 1427.81 117.033 1432.42 Q120.112 1437 120.112 1445.75 Q120.112 1454.48 117.033 1459.08 Q113.978 1463.67 108.168 1463.67 Q102.358 1463.67 99.2789 1459.08 Q96.2234 1454.48 96.2234 1445.75 Q96.2234 1437 99.2789 1432.42 Q102.358 1427.81 108.168 1427.81 Z" fill="#000000" fill-rule="evenodd" fill-opacity="1" /><path clip-path="url(#clip280)" d="M63.9319 1156 Q60.3208 1156 58.4921 1159.56 Q56.6865 1163.11 56.6865 1170.24 Q56.6865 1177.34 58.4921 1180.91 Q60.3208 1184.45 63.9319 1184.45 Q67.5661 1184.45 69.3717 1180.91 Q71.2004 1177.34 71.2004 1170.24 Q71.2004 1163.11 69.3717 1159.56 Q67.5661 1156 63.9319 1156 M63.9319 1152.3 Q69.742 1152.3 72.7976 1156.9 Q75.8763 1161.49 75.8763 1170.24 Q75.8763 1178.96 72.7976 1183.57 Q69.742 1188.15 63.9319 1188.15 Q58.1217 1188.15 55.043 1183.57 Q51.9875 1178.96 51.9875 1170.24 Q51.9875 1161.49 55.043 1156.9 Q58.1217 1152.3 63.9319 1152.3 Z" fill="#000000" fill-rule="evenodd" fill-opacity="1" /><path clip-path="url(#clip280)" d="M84.0938 1181.6 L88.978 1181.6 L88.978 1187.48 L84.0938 1187.48 L84.0938 1181.6 Z" fill="#000000" fill-rule="evenodd" fill-opacity="1" /><path clip-path="url(#clip280)" d="M99.2095 1152.92 L117.566 1152.92 L117.566 1156.86 L103.492 1156.86 L103.492 1165.33 Q104.51 1164.98 105.529 1164.82 Q106.547 1164.63 107.566 1164.63 Q113.353 1164.63 116.733 1167.81 Q120.112 1170.98 120.112 1176.39 Q120.112 1181.97 116.64 1185.07 Q113.168 1188.15 106.848 1188.15 Q104.672 1188.15 102.404 1187.78 Q100.159 1187.41 97.7511 1186.67 L97.7511 1181.97 Q99.8345 1183.11 102.057 1183.66 Q104.279 1184.22 106.756 1184.22 Q110.76 1184.22 113.098 1182.11 Q115.436 1180 115.436 1176.39 Q115.436 1172.78 113.098 1170.68 Q110.76 1168.57 106.756 1168.57 Q104.881 1168.57 103.006 1168.99 Q101.154 1169.4 99.2095 1170.28 L99.2095 1152.92 Z" fill="#000000" fill-rule="evenodd" fill-opacity="1" /><path clip-path="url(#clip280)" d="M53.7467 908.031 L61.3856 908.031 L61.3856 881.665 L53.0754 883.332 L53.0754 879.072 L61.3393 877.406 L66.0152 877.406 L66.0152 908.031 L73.654 908.031 L73.654 911.966 L53.7467 911.966 L53.7467 908.031 Z" fill="#000000" fill-rule="evenodd" fill-opacity="1" /><path clip-path="url(#clip280)" d="M83.0984 906.086 L87.9827 906.086 L87.9827 911.966 L83.0984 911.966 L83.0984 906.086 Z" fill="#000000" fill-rule="evenodd" fill-opacity="1" /><path clip-path="url(#clip280)" d="M108.168 880.484 Q104.557 880.484 102.728 884.049 Q100.922 887.591 100.922 894.72 Q100.922 901.827 102.728 905.392 Q104.557 908.933 108.168 908.933 Q111.802 908.933 113.608 905.392 Q115.436 901.827 115.436 894.72 Q115.436 887.591 113.608 884.049 Q111.802 880.484 108.168 880.484 M108.168 876.781 Q113.978 876.781 117.033 881.387 Q120.112 885.97 120.112 894.72 Q120.112 903.447 117.033 908.054 Q113.978 912.637 108.168 912.637 Q102.358 912.637 99.2789 908.054 Q96.2234 903.447 96.2234 894.72 Q96.2234 885.97 99.2789 881.387 Q102.358 876.781 108.168 876.781 Z" fill="#000000" fill-rule="evenodd" fill-opacity="1" /><path clip-path="url(#clip280)" d="M54.7421 632.515 L62.381 632.515 L62.381 606.149 L54.0708 607.816 L54.0708 603.557 L62.3347 601.89 L67.0106 601.89 L67.0106 632.515 L74.6494 632.515 L74.6494 636.45 L54.7421 636.45 L54.7421 632.515 Z" fill="#000000" fill-rule="evenodd" fill-opacity="1" /><path clip-path="url(#clip280)" d="M84.0938 630.571 L88.978 630.571 L88.978 636.45 L84.0938 636.45 L84.0938 630.571 Z" fill="#000000" fill-rule="evenodd" fill-opacity="1" /><path clip-path="url(#clip280)" d="M99.2095 601.89 L117.566 601.89 L117.566 605.825 L103.492 605.825 L103.492 614.298 Q104.51 613.95 105.529 613.788 Q106.547 613.603 107.566 613.603 Q113.353 613.603 116.733 616.774 Q120.112 619.946 120.112 625.362 Q120.112 630.941 116.64 634.043 Q113.168 637.121 106.848 637.121 Q104.672 637.121 102.404 636.751 Q100.159 636.381 97.7511 635.64 L97.7511 630.941 Q99.8345 632.075 102.057 632.631 Q104.279 633.186 106.756 633.186 Q110.76 633.186 113.098 631.08 Q115.436 628.973 115.436 625.362 Q115.436 621.751 113.098 619.645 Q110.76 617.538 106.756 617.538 Q104.881 617.538 103.006 617.955 Q101.154 618.372 99.2095 619.251 L99.2095 601.89 Z" fill="#000000" fill-rule="evenodd" fill-opacity="1" /><path clip-path="url(#clip280)" d="M56.9643 357 L73.2837 357 L73.2837 360.935 L51.3393 360.935 L51.3393 357 Q54.0014 354.245 58.5847 349.615 Q63.1911 344.963 64.3717 343.62 Q66.617 341.097 67.4967 339.361 Q68.3994 337.601 68.3994 335.912 Q68.3994 333.157 66.455 331.421 Q64.5337 329.685 61.4319 329.685 Q59.2328 329.685 56.7791 330.449 Q54.3486 331.213 51.5708 332.764 L51.5708 328.041 Q54.3949 326.907 56.8486 326.328 Q59.3023 325.75 61.3393 325.75 Q66.7096 325.75 69.9041 328.435 Q73.0985 331.12 73.0985 335.611 Q73.0985 337.74 72.2883 339.662 Q71.5013 341.56 69.3948 344.152 Q68.8161 344.824 65.7143 348.041 Q62.6124 351.236 56.9643 357 Z" fill="#000000" fill-rule="evenodd" fill-opacity="1" /><path clip-path="url(#clip280)" d="M83.0984 355.055 L87.9827 355.055 L87.9827 360.935 L83.0984 360.935 L83.0984 355.055 Z" fill="#000000" fill-rule="evenodd" fill-opacity="1" /><path clip-path="url(#clip280)" d="M108.168 329.453 Q104.557 329.453 102.728 333.018 Q100.922 336.56 100.922 343.689 Q100.922 350.796 102.728 354.361 Q104.557 357.902 108.168 357.902 Q111.802 357.902 113.608 354.361 Q115.436 350.796 115.436 343.689 Q115.436 336.56 113.608 333.018 Q111.802 329.453 108.168 329.453 M108.168 325.75 Q113.978 325.75 117.033 330.356 Q120.112 334.939 120.112 343.689 Q120.112 352.416 117.033 357.023 Q113.978 361.606 108.168 361.606 Q102.358 361.606 99.2789 357.023 Q96.2234 352.416 96.2234 343.689 Q96.2234 334.939 99.2789 330.356 Q102.358 325.75 108.168 325.75 Z" fill="#000000" fill-rule="evenodd" fill-opacity="1" /><path clip-path="url(#clip280)" d="M57.9597 81.484 L74.279 81.484 L74.279 85.4192 L52.3347 85.4192 L52.3347 81.484 Q54.9967 78.7294 59.58 74.0998 Q64.1865 69.447 65.367 68.1044 Q67.6124 65.5813 68.492 63.8452 Q69.3948 62.086 69.3948 60.3961 Q69.3948 57.6415 67.4504 55.9054 Q65.5291 54.1693 62.4272 54.1693 Q60.2282 54.1693 57.7745 54.9332 Q55.344 55.6971 52.5662 57.248 L52.5662 52.5258 Q55.3903 51.3916 57.8439 50.8129 Q60.2976 50.2342 62.3347 50.2342 Q67.705 50.2342 70.8994 52.9193 Q74.0939 55.6045 74.0939 60.0952 Q74.0939 62.2248 73.2837 64.1461 Q72.4966 66.0443 70.3902 68.6368 Q69.8115 69.3081 66.7096 72.5257 Q63.6078 75.7201 57.9597 81.484 Z" fill="#000000" fill-rule="evenodd" fill-opacity="1" /><path clip-path="url(#clip280)" d="M84.0938 79.5396 L88.978 79.5396 L88.978 85.4192 L84.0938 85.4192 L84.0938 79.5396 Z" fill="#000000" fill-rule="evenodd" fill-opacity="1" /><path clip-path="url(#clip280)" d="M99.2095 50.8592 L117.566 50.8592 L117.566 54.7943 L103.492 54.7943 L103.492 63.2665 Q104.51 62.9193 105.529 62.7572 Q106.547 62.5721 107.566 62.5721 Q113.353 62.5721 116.733 65.7433 Q120.112 68.9146 120.112 74.3313 Q120.112 79.9099 116.64 83.0118 Q113.168 86.0905 106.848 86.0905 Q104.672 86.0905 102.404 85.7201 Q100.159 85.3497 97.7511 84.609 L97.7511 79.9099 Q99.8345 81.0442 102.057 81.5997 Q104.279 82.1553 106.756 82.1553 Q110.76 82.1553 113.098 80.0488 Q115.436 77.9423 115.436 74.3313 Q115.436 70.7202 113.098 68.6137 Q110.76 66.5072 106.756 66.5072 Q104.881 66.5072 103.006 66.9239 Q101.154 67.3406 99.2095 68.2202 L99.2095 50.8592 Z" fill="#000000" fill-rule="evenodd" fill-opacity="1" /><polyline clip-path="url(#clip282)" style="stroke:#009af9; stroke-linecap:butt; stroke-linejoin:round; stroke-width:8; stroke-opacity:0.6; fill:none" points="
  218.281,1445.72 228.695,1438.9 239.108,1432.07 249.522,1425.26 259.936,1418.44 270.349,1411.61 280.763,1404.79 291.176,1397.98 301.59,1391.12 312.004,1384.34 
  322.417,1377.48 332.831,1370.69 343.244,1363.86 353.658,1357.04 364.072,1350.22 374.485,1343.32 384.899,1336.57 395.312,1329.69 405.726,1322.91 416.14,1316.07 
  426.553,1309.29 436.967,1302.48 447.38,1295.61 457.794,1288.8 468.208,1282 478.621,1275.19 489.035,1268.39 499.448,1261.47 509.862,1254.74 520.276,1247.86 
  530.689,1241.01 541.103,1234.22 551.516,1227.44 561.93,1220.62 572.344,1213.77 582.757,1206.95 593.171,1200.15 603.584,1193.2 613.998,1186.55 624.412,1179.62 
  634.825,1172.89 645.239,1166.03 655.652,1159.23 666.066,1152.48 676.479,1145.51 686.893,1138.65 697.307,1131.97 707.72,1125.16 718.134,1118.22 728.547,1111.41 
  738.961,1104.68 749.375,1097.87 759.788,1090.93 770.202,1084.08 780.615,1077.27 791.029,1070.65 801.443,1063.52 811.856,1056.77 822.27,1050.05 832.683,1043.33 
  843.097,1036.32 853.511,1029.44 863.924,1022.73 874.338,1016.03 884.751,1009.07 895.165,1002.23 905.579,995.438 915.992,988.629 926.406,981.756 936.819,975.099 
  947.233,968.121 957.647,961.368 968.06,954.565 978.474,947.661 988.887,940.89 999.301,934.046 1009.71,927.164 1020.13,920.433 1030.54,913.675 1040.96,906.748 
  1051.37,899.79 1061.78,893.185 1072.2,886.469 1082.61,879.582 1093.02,872.483 1103.44,865.605 1113.85,859.18 1124.26,852.362 1134.68,845.409 1145.09,838.392 
  1155.5,831.479 1165.92,824.902 1176.33,818.273 1186.75,811.325 1197.16,804.401 1207.57,797.327 1217.99,790.628 1228.4,784.011 1238.81,777.29 1249.23,770.306 
  1259.64,763.505 1270.05,756.422 1280.47,749.67 1290.88,743.165 1301.3,736.547 1311.71,729.335 1322.12,722.415 1332.54,715.576 1342.95,708.958 1353.36,702.183 
  1363.78,695.632 1374.19,688.237 1384.6,681.469 1395.02,674.849 1405.43,667.925 1415.84,661.256 1426.26,654.484 1436.67,647.272 1447.09,640.718 1457.5,633.839 
  1467.91,626.948 1478.33,620.186 1488.74,613.483 1499.15,606.611 1509.57,599.63 1519.98,592.948 1530.39,586.172 1540.81,579.378 1551.22,572.331 1561.64,565.529 
  1572.05,558.836 1582.46,552.133 1592.88,545.039 1603.29,538.519 1613.7,531.507 1624.12,524.545 1634.53,517.936 1644.94,511.005 1655.36,504.295 1665.77,497.527 
  1676.18,490.55 1686.6,483.77 1697.01,476.639 1707.43,470.233 1717.84,463.326 1728.25,456.461 1738.67,449.797 1749.08,442.863 1759.49,436.115 1769.91,429.014 
  1780.32,422.422 1790.73,415.634 1801.15,408.567 1811.56,401.817 1821.97,395.052 1832.39,388.159 1842.8,381.253 1853.22,374.859 1863.63,367.777 1874.04,360.968 
  1884.46,354.016 1894.87,347.269 1905.28,340.443 1915.7,333.536 1926.11,326.798 1936.52,320.325 1946.94,313.39 1957.35,306.405 1967.77,299.535 1978.18,292.622 
  1988.59,285.822 1999.01,278.88 2009.42,272.269 2019.83,265.688 2030.25,258.977 2040.66,251.745 2051.07,245.03 2061.49,238.031 2071.9,231.289 2082.31,224.4 
  2092.73,217.488 2103.14,210.947 2113.56,204.078 2123.97,197.137 2134.38,190.294 2144.8,183.746 2155.21,176.851 2165.62,169.866 2176.04,162.935 2186.45,156.146 
  2196.86,149.531 2207.28,142.71 2217.69,135.834 2228.11,129.095 2238.52,122.249 2248.93,115.193 2259.35,108.558 2269.76,101.595 2280.17,94.9106 2290.59,88.0665 
  
  "/>
<polyline clip-path="url(#clip282)" style="stroke:#e26f46; stroke-linecap:butt; stroke-linejoin:round; stroke-width:8; stroke-opacity:0.6; fill:none" points="
  218.281,1445.71 228.695,1438.89 239.108,1432.07 249.522,1425.24 259.936,1418.42 270.349,1411.6 280.763,1404.78 291.176,1397.95 301.59,1391.13 312.004,1384.31 
  322.417,1377.49 332.831,1370.66 343.244,1363.84 353.658,1357.02 364.072,1350.19 374.485,1343.37 384.899,1336.55 395.312,1329.73 405.726,1322.9 416.14,1316.08 
  426.553,1309.26 436.967,1302.43 447.38,1295.61 457.794,1288.79 468.208,1281.97 478.621,1275.14 489.035,1268.32 499.448,1261.5 509.862,1254.67 520.276,1247.85 
  530.689,1241.03 541.103,1234.21 551.516,1227.38 561.93,1220.56 572.344,1213.74 582.757,1206.92 593.171,1200.09 603.584,1193.27 613.998,1186.45 624.412,1179.62 
  634.825,1172.8 645.239,1165.98 655.652,1159.16 666.066,1152.33 676.479,1145.51 686.893,1138.69 697.307,1131.86 707.72,1125.04 718.134,1118.22 728.547,1111.4 
  738.961,1104.57 749.375,1097.75 759.788,1090.93 770.202,1084.1 780.615,1077.28 791.029,1070.46 801.443,1063.64 811.856,1056.81 822.27,1049.99 832.683,1043.17 
  843.097,1036.35 853.511,1029.52 863.924,1022.7 874.338,1015.88 884.751,1009.05 895.165,1002.23 905.579,995.409 915.992,988.586 926.406,981.763 936.819,974.94 
  947.233,968.117 957.647,961.295 968.06,954.472 978.474,947.649 988.887,940.826 999.301,934.003 1009.71,927.181 1020.13,920.358 1030.54,913.535 1040.96,906.712 
  1051.37,899.889 1061.78,893.067 1072.2,886.244 1082.61,879.421 1093.02,872.598 1103.44,865.775 1113.85,858.953 1124.26,852.13 1134.68,845.307 1145.09,838.484 
  1155.5,831.661 1165.92,824.839 1176.33,818.016 1186.75,811.193 1197.16,804.37 1207.57,797.547 1217.99,790.725 1228.4,783.902 1238.81,777.079 1249.23,770.256 
  1259.64,763.433 1270.05,756.611 1280.47,749.788 1290.88,742.965 1301.3,736.142 1311.71,729.319 1322.12,722.497 1332.54,715.674 1342.95,708.851 1353.36,702.028 
  1363.78,695.205 1374.19,688.383 1384.6,681.56 1395.02,674.737 1405.43,667.914 1415.84,661.091 1426.26,654.269 1436.67,647.446 1447.09,640.623 1457.5,633.8 
  1467.91,626.977 1478.33,620.155 1488.74,613.332 1499.15,606.509 1509.57,599.686 1519.98,592.863 1530.39,586.041 1540.81,579.218 1551.22,572.395 1561.64,565.572 
  1572.05,558.749 1582.46,551.927 1592.88,545.104 1603.29,538.281 1613.7,531.458 1624.12,524.635 1634.53,517.813 1644.94,510.99 1655.36,504.167 1665.77,497.344 
  1676.18,490.521 1686.6,483.699 1697.01,476.876 1707.43,470.053 1717.84,463.23 1728.25,456.407 1738.67,449.585 1749.08,442.762 1759.49,435.939 1769.91,429.116 
  1780.32,422.293 1790.73,415.471 1801.15,408.648 1811.56,401.825 1821.97,395.002 1832.39,388.179 1842.8,381.357 1853.22,374.534 1863.63,367.711 1874.04,360.888 
  1884.46,354.065 1894.87,347.243 1905.28,340.42 1915.7,333.597 1926.11,326.774 1936.52,319.951 1946.94,313.129 1957.35,306.306 1967.77,299.483 1978.18,292.66 
  1988.59,285.837 1999.01,279.015 2009.42,272.192 2019.83,265.369 2030.25,258.546 2040.66,251.723 2051.07,244.901 2061.49,238.078 2071.9,231.255 2082.31,224.432 
  2092.73,217.609 2103.14,210.787 2113.56,203.964 2123.97,197.141 2134.38,190.318 2144.8,183.495 2155.21,176.673 2165.62,169.85 2176.04,163.027 2186.45,156.204 
  2196.86,149.381 2207.28,142.559 2217.69,135.736 2228.11,128.913 2238.52,122.09 2248.93,115.267 2259.35,108.445 2269.76,101.622 2280.17,94.7991 2290.59,87.9763 
  
  "/>
<path clip-path="url(#clip280)" d="
M1379.54 1438.47 L2279.53 1438.47 L2279.53 1282.95 L1379.54 1282.95  Z
  " fill="#ffffff" fill-rule="evenodd" fill-opacity="1"/>
<polyline clip-path="url(#clip280)" style="stroke:#000000; stroke-linecap:butt; stroke-linejoin:round; stroke-width:4; stroke-opacity:1; fill:none" points="
  1379.54,1438.47 2279.53,1438.47 2279.53,1282.95 1379.54,1282.95 1379.54,1438.47 
  "/>
<polyline clip-path="url(#clip280)" style="stroke:#009af9; stroke-linecap:butt; stroke-linejoin:round; stroke-width:4; stroke-opacity:0.6; fill:none" points="
  1403.95,1334.79 1550.39,1334.79 
  "/>
<path clip-path="url(#clip280)" d="M1588.2 1339.04 Q1583.04 1339.04 1581.05 1340.22 Q1579.06 1341.4 1579.06 1344.25 Q1579.06 1346.52 1580.54 1347.86 Q1582.04 1349.18 1584.61 1349.18 Q1588.15 1349.18 1590.28 1346.68 Q1592.44 1344.16 1592.44 1339.99 L1592.44 1339.04 L1588.2 1339.04 M1596.7 1337.28 L1596.7 1352.07 L1592.44 1352.07 L1592.44 1348.14 Q1590.98 1350.5 1588.8 1351.63 Q1586.63 1352.75 1583.48 1352.75 Q1579.5 1352.75 1577.14 1350.52 Q1574.8 1348.28 1574.8 1344.53 Q1574.8 1340.15 1577.71 1337.93 Q1580.65 1335.71 1586.46 1335.71 L1592.44 1335.71 L1592.44 1335.29 Q1592.44 1332.35 1590.49 1330.76 Q1588.57 1329.13 1585.08 1329.13 Q1582.85 1329.13 1580.75 1329.67 Q1578.64 1330.2 1576.7 1331.26 L1576.7 1327.33 Q1579.03 1326.43 1581.23 1325.99 Q1583.43 1325.52 1585.52 1325.52 Q1591.14 1325.52 1593.92 1328.44 Q1596.7 1331.36 1596.7 1337.28 Z" fill="#000000" fill-rule="evenodd" fill-opacity="1" /><path clip-path="url(#clip280)" d="M1609.59 1348.19 L1609.59 1361.94 L1605.31 1361.94 L1605.31 1326.15 L1609.59 1326.15 L1609.59 1330.08 Q1610.93 1327.77 1612.97 1326.66 Q1615.03 1325.52 1617.88 1325.52 Q1622.6 1325.52 1625.54 1329.27 Q1628.5 1333.02 1628.5 1339.13 Q1628.5 1345.25 1625.54 1349 Q1622.6 1352.75 1617.88 1352.75 Q1615.03 1352.75 1612.97 1351.63 Q1610.93 1350.5 1609.59 1348.19 M1624.08 1339.13 Q1624.08 1334.44 1622.14 1331.77 Q1620.21 1329.09 1616.83 1329.09 Q1613.45 1329.09 1611.51 1331.77 Q1609.59 1334.44 1609.59 1339.13 Q1609.59 1343.83 1611.51 1346.52 Q1613.45 1349.18 1616.83 1349.18 Q1620.21 1349.18 1622.14 1346.52 Q1624.08 1343.83 1624.08 1339.13 Z" fill="#000000" fill-rule="evenodd" fill-opacity="1" /><path clip-path="url(#clip280)" d="M1639.68 1348.19 L1639.68 1361.94 L1635.4 1361.94 L1635.4 1326.15 L1639.68 1326.15 L1639.68 1330.08 Q1641.02 1327.77 1643.06 1326.66 Q1645.12 1325.52 1647.97 1325.52 Q1652.69 1325.52 1655.63 1329.27 Q1658.59 1333.02 1658.59 1339.13 Q1658.59 1345.25 1655.63 1349 Q1652.69 1352.75 1647.97 1352.75 Q1645.12 1352.75 1643.06 1351.63 Q1641.02 1350.5 1639.68 1348.19 M1654.17 1339.13 Q1654.17 1334.44 1652.23 1331.77 Q1650.31 1329.09 1646.93 1329.09 Q1643.55 1329.09 1641.6 1331.77 Q1639.68 1334.44 1639.68 1339.13 Q1639.68 1343.83 1641.6 1346.52 Q1643.55 1349.18 1646.93 1349.18 Q1650.31 1349.18 1652.23 1346.52 Q1654.17 1343.83 1654.17 1339.13 Z" fill="#000000" fill-rule="evenodd" fill-opacity="1" /><path clip-path="url(#clip280)" d="M1680.68 1330.13 Q1679.96 1329.71 1679.1 1329.53 Q1678.27 1329.32 1677.25 1329.32 Q1673.64 1329.32 1671.7 1331.68 Q1669.77 1334.02 1669.77 1338.42 L1669.77 1352.07 L1665.49 1352.07 L1665.49 1326.15 L1669.77 1326.15 L1669.77 1330.18 Q1671.12 1327.82 1673.27 1326.68 Q1675.42 1325.52 1678.5 1325.52 Q1678.94 1325.52 1679.47 1325.59 Q1680.01 1325.64 1680.65 1325.76 L1680.68 1330.13 Z" fill="#000000" fill-rule="evenodd" fill-opacity="1" /><path clip-path="url(#clip280)" d="M1694.15 1329.13 Q1690.72 1329.13 1688.73 1331.82 Q1686.74 1334.48 1686.74 1339.13 Q1686.74 1343.79 1688.71 1346.47 Q1690.7 1349.13 1694.15 1349.13 Q1697.55 1349.13 1699.54 1346.45 Q1701.53 1343.76 1701.53 1339.13 Q1701.53 1334.53 1699.54 1331.84 Q1697.55 1329.13 1694.15 1329.13 M1694.15 1325.52 Q1699.7 1325.52 1702.88 1329.13 Q1706.05 1332.75 1706.05 1339.13 Q1706.05 1345.5 1702.88 1349.13 Q1699.7 1352.75 1694.15 1352.75 Q1688.57 1352.75 1685.4 1349.13 Q1682.25 1345.5 1682.25 1339.13 Q1682.25 1332.75 1685.4 1329.13 Q1688.57 1325.52 1694.15 1325.52 Z" fill="#000000" fill-rule="evenodd" fill-opacity="1" /><path clip-path="url(#clip280)" d="M1733.2 1326.15 L1723.82 1338.76 L1733.69 1352.07 L1728.66 1352.07 L1721.12 1341.89 L1713.57 1352.07 L1708.55 1352.07 L1718.62 1338.51 L1709.4 1326.15 L1714.43 1326.15 L1721.3 1335.38 L1728.18 1326.15 L1733.2 1326.15 Z" fill="#000000" fill-rule="evenodd" fill-opacity="1" /><path clip-path="url(#clip280)" d="M1739.7 1326.15 L1743.96 1326.15 L1743.96 1352.07 L1739.7 1352.07 L1739.7 1326.15 M1739.7 1316.06 L1743.96 1316.06 L1743.96 1321.45 L1739.7 1321.45 L1739.7 1316.06 Z" fill="#000000" fill-rule="evenodd" fill-opacity="1" /><path clip-path="url(#clip280)" d="M1773.06 1331.13 Q1774.66 1328.26 1776.88 1326.89 Q1779.1 1325.52 1782.11 1325.52 Q1786.16 1325.52 1788.36 1328.37 Q1790.56 1331.19 1790.56 1336.43 L1790.56 1352.07 L1786.28 1352.07 L1786.28 1336.57 Q1786.28 1332.84 1784.96 1331.03 Q1783.64 1329.23 1780.93 1329.23 Q1777.62 1329.23 1775.7 1331.43 Q1773.78 1333.63 1773.78 1337.42 L1773.78 1352.07 L1769.5 1352.07 L1769.5 1336.57 Q1769.5 1332.82 1768.18 1331.03 Q1766.86 1329.23 1764.1 1329.23 Q1760.84 1329.23 1758.92 1331.45 Q1757 1333.65 1757 1337.42 L1757 1352.07 L1752.71 1352.07 L1752.71 1326.15 L1757 1326.15 L1757 1330.18 Q1758.45 1327.79 1760.49 1326.66 Q1762.53 1325.52 1765.33 1325.52 Q1768.15 1325.52 1770.12 1326.96 Q1772.11 1328.39 1773.06 1331.13 Z" fill="#000000" fill-rule="evenodd" fill-opacity="1" /><path clip-path="url(#clip280)" d="M1810.84 1339.04 Q1805.68 1339.04 1803.69 1340.22 Q1801.69 1341.4 1801.69 1344.25 Q1801.69 1346.52 1803.18 1347.86 Q1804.68 1349.18 1807.25 1349.18 Q1810.79 1349.18 1812.92 1346.68 Q1815.07 1344.16 1815.07 1339.99 L1815.07 1339.04 L1810.84 1339.04 M1819.33 1337.28 L1819.33 1352.07 L1815.07 1352.07 L1815.07 1348.14 Q1813.62 1350.5 1811.44 1351.63 Q1809.26 1352.75 1806.12 1352.75 Q1802.13 1352.75 1799.77 1350.52 Q1797.44 1348.28 1797.44 1344.53 Q1797.44 1340.15 1800.35 1337.93 Q1803.29 1335.71 1809.1 1335.71 L1815.07 1335.71 L1815.07 1335.29 Q1815.07 1332.35 1813.13 1330.76 Q1811.21 1329.13 1807.71 1329.13 Q1805.49 1329.13 1803.38 1329.67 Q1801.28 1330.2 1799.33 1331.26 L1799.33 1327.33 Q1801.67 1326.43 1803.87 1325.99 Q1806.07 1325.52 1808.15 1325.52 Q1813.78 1325.52 1816.56 1328.44 Q1819.33 1331.36 1819.33 1337.28 Z" fill="#000000" fill-rule="evenodd" fill-opacity="1" /><path clip-path="url(#clip280)" d="M1832.32 1318.79 L1832.32 1326.15 L1841.09 1326.15 L1841.09 1329.46 L1832.32 1329.46 L1832.32 1343.53 Q1832.32 1346.7 1833.18 1347.61 Q1834.06 1348.51 1836.72 1348.51 L1841.09 1348.51 L1841.09 1352.07 L1836.72 1352.07 Q1831.79 1352.07 1829.91 1350.25 Q1828.04 1348.39 1828.04 1343.53 L1828.04 1329.46 L1824.91 1329.46 L1824.91 1326.15 L1828.04 1326.15 L1828.04 1318.79 L1832.32 1318.79 Z" fill="#000000" fill-rule="evenodd" fill-opacity="1" /><path clip-path="url(#clip280)" d="M1868.87 1338.05 L1868.87 1340.13 L1849.29 1340.13 Q1849.56 1344.53 1851.93 1346.84 Q1854.31 1349.13 1858.55 1349.13 Q1861 1349.13 1863.29 1348.53 Q1865.61 1347.93 1867.87 1346.73 L1867.87 1350.75 Q1865.58 1351.73 1863.18 1352.24 Q1860.77 1352.75 1858.29 1352.75 Q1852.09 1352.75 1848.45 1349.13 Q1844.84 1345.52 1844.84 1339.37 Q1844.84 1333 1848.27 1329.27 Q1851.72 1325.52 1857.55 1325.52 Q1862.78 1325.52 1865.81 1328.9 Q1868.87 1332.26 1868.87 1338.05 M1864.61 1336.8 Q1864.56 1333.3 1862.64 1331.22 Q1860.75 1329.13 1857.6 1329.13 Q1854.03 1329.13 1851.88 1331.15 Q1849.75 1333.16 1849.43 1336.82 L1864.61 1336.8 Z" fill="#000000" fill-rule="evenodd" fill-opacity="1" /><path clip-path="url(#clip280)" d="M1895.05 1348.19 L1895.05 1361.94 L1890.77 1361.94 L1890.77 1326.15 L1895.05 1326.15 L1895.05 1330.08 Q1896.39 1327.77 1898.43 1326.66 Q1900.49 1325.52 1903.34 1325.52 Q1908.06 1325.52 1911 1329.27 Q1913.96 1333.02 1913.96 1339.13 Q1913.96 1345.25 1911 1349 Q1908.06 1352.75 1903.34 1352.75 Q1900.49 1352.75 1898.43 1351.63 Q1896.39 1350.5 1895.05 1348.19 M1909.54 1339.13 Q1909.54 1334.44 1907.6 1331.77 Q1905.68 1329.09 1902.3 1329.09 Q1898.92 1329.09 1896.97 1331.77 Q1895.05 1334.44 1895.05 1339.13 Q1895.05 1343.83 1896.97 1346.52 Q1898.92 1349.18 1902.3 1349.18 Q1905.68 1349.18 1907.6 1346.52 Q1909.54 1343.83 1909.54 1339.13 Z" fill="#000000" fill-rule="evenodd" fill-opacity="1" /><path clip-path="url(#clip280)" d="M1931.07 1329.13 Q1927.64 1329.13 1925.65 1331.82 Q1923.66 1334.48 1923.66 1339.13 Q1923.66 1343.79 1925.63 1346.47 Q1927.62 1349.13 1931.07 1349.13 Q1934.47 1349.13 1936.46 1346.45 Q1938.45 1343.76 1938.45 1339.13 Q1938.45 1334.53 1936.46 1331.84 Q1934.47 1329.13 1931.07 1329.13 M1931.07 1325.52 Q1936.62 1325.52 1939.8 1329.13 Q1942.97 1332.75 1942.97 1339.13 Q1942.97 1345.5 1939.8 1349.13 Q1936.62 1352.75 1931.07 1352.75 Q1925.49 1352.75 1922.32 1349.13 Q1919.17 1345.5 1919.17 1339.13 Q1919.17 1332.75 1922.32 1329.13 Q1925.49 1325.52 1931.07 1325.52 Z" fill="#000000" fill-rule="evenodd" fill-opacity="1" /><path clip-path="url(#clip280)" d="M1950.03 1316.06 L1954.29 1316.06 L1954.29 1352.07 L1950.03 1352.07 L1950.03 1316.06 Z" fill="#000000" fill-rule="evenodd" fill-opacity="1" /><path clip-path="url(#clip280)" d="M1963.2 1326.15 L1967.46 1326.15 L1967.46 1352.07 L1963.2 1352.07 L1963.2 1326.15 M1963.2 1316.06 L1967.46 1316.06 L1967.46 1321.45 L1963.2 1321.45 L1963.2 1316.06 Z" fill="#000000" fill-rule="evenodd" fill-opacity="1" /><path clip-path="url(#clip280)" d="M1995.03 1327.14 L1995.03 1331.13 Q1993.22 1330.13 1991.39 1329.64 Q1989.59 1329.13 1987.74 1329.13 Q1983.59 1329.13 1981.3 1331.77 Q1979.01 1334.39 1979.01 1339.13 Q1979.01 1343.88 1981.3 1346.52 Q1983.59 1349.13 1987.74 1349.13 Q1989.59 1349.13 1991.39 1348.65 Q1993.22 1348.14 1995.03 1347.14 L1995.03 1351.08 Q1993.24 1351.91 1991.32 1352.33 Q1989.43 1352.75 1987.27 1352.75 Q1981.42 1352.75 1977.97 1349.07 Q1974.52 1345.38 1974.52 1339.13 Q1974.52 1332.79 1977.99 1329.16 Q1981.49 1325.52 1987.55 1325.52 Q1989.52 1325.52 1991.39 1325.94 Q1993.27 1326.33 1995.03 1327.14 Z" fill="#000000" fill-rule="evenodd" fill-opacity="1" /><path clip-path="url(#clip280)" d="M2013.22 1354.48 Q2011.42 1359.11 2009.7 1360.52 Q2007.99 1361.94 2005.12 1361.94 L2001.72 1361.94 L2001.72 1358.37 L2004.22 1358.37 Q2005.98 1358.37 2006.95 1357.54 Q2007.92 1356.7 2009.1 1353.6 L2009.86 1351.66 L1999.38 1326.15 L2003.89 1326.15 L2011.99 1346.43 L2020.1 1326.15 L2024.61 1326.15 L2013.22 1354.48 Z" fill="#000000" fill-rule="evenodd" fill-opacity="1" /><path clip-path="url(#clip280)" d="M2058.68 1316.06 L2058.68 1319.6 L2054.61 1319.6 Q2052.32 1319.6 2051.42 1320.52 Q2050.54 1321.45 2050.54 1323.86 L2050.54 1326.15 L2057.55 1326.15 L2057.55 1329.46 L2050.54 1329.46 L2050.54 1352.07 L2046.25 1352.07 L2046.25 1329.46 L2042.18 1329.46 L2042.18 1326.15 L2046.25 1326.15 L2046.25 1324.34 Q2046.25 1320.01 2048.27 1318.05 Q2050.28 1316.06 2054.66 1316.06 L2058.68 1316.06 Z" fill="#000000" fill-rule="evenodd" fill-opacity="1" /><path clip-path="url(#clip280)" d="M2061.81 1341.84 L2061.81 1326.15 L2066.07 1326.15 L2066.07 1341.68 Q2066.07 1345.36 2067.5 1347.21 Q2068.94 1349.04 2071.81 1349.04 Q2075.26 1349.04 2077.25 1346.84 Q2079.26 1344.64 2079.26 1340.85 L2079.26 1326.15 L2083.52 1326.15 L2083.52 1352.07 L2079.26 1352.07 L2079.26 1348.09 Q2077.71 1350.45 2075.65 1351.61 Q2073.61 1352.75 2070.91 1352.75 Q2066.44 1352.75 2064.12 1349.97 Q2061.81 1347.19 2061.81 1341.84 M2072.53 1325.52 L2072.53 1325.52 Z" fill="#000000" fill-rule="evenodd" fill-opacity="1" /><path clip-path="url(#clip280)" d="M2113.85 1336.43 L2113.85 1352.07 L2109.59 1352.07 L2109.59 1336.57 Q2109.59 1332.88 2108.15 1331.06 Q2106.72 1329.23 2103.85 1329.23 Q2100.4 1329.23 2098.41 1331.43 Q2096.42 1333.63 2096.42 1337.42 L2096.42 1352.07 L2092.13 1352.07 L2092.13 1326.15 L2096.42 1326.15 L2096.42 1330.18 Q2097.94 1327.84 2100 1326.68 Q2102.09 1325.52 2104.79 1325.52 Q2109.26 1325.52 2111.55 1328.3 Q2113.85 1331.06 2113.85 1336.43 Z" fill="#000000" fill-rule="evenodd" fill-opacity="1" /><path clip-path="url(#clip280)" d="M2141 1327.14 L2141 1331.13 Q2139.19 1330.13 2137.36 1329.64 Q2135.56 1329.13 2133.71 1329.13 Q2129.56 1329.13 2127.27 1331.77 Q2124.98 1334.39 2124.98 1339.13 Q2124.98 1343.88 2127.27 1346.52 Q2129.56 1349.13 2133.71 1349.13 Q2135.56 1349.13 2137.36 1348.65 Q2139.19 1348.14 2141 1347.14 L2141 1351.08 Q2139.22 1351.91 2137.29 1352.33 Q2135.4 1352.75 2133.24 1352.75 Q2127.39 1352.75 2123.94 1349.07 Q2120.49 1345.38 2120.49 1339.13 Q2120.49 1332.79 2123.96 1329.16 Q2127.46 1325.52 2133.52 1325.52 Q2135.49 1325.52 2137.36 1325.94 Q2139.24 1326.33 2141 1327.14 Z" fill="#000000" fill-rule="evenodd" fill-opacity="1" /><path clip-path="url(#clip280)" d="M2152.62 1318.79 L2152.62 1326.15 L2161.39 1326.15 L2161.39 1329.46 L2152.62 1329.46 L2152.62 1343.53 Q2152.62 1346.7 2153.48 1347.61 Q2154.35 1348.51 2157.02 1348.51 L2161.39 1348.51 L2161.39 1352.07 L2157.02 1352.07 Q2152.09 1352.07 2150.21 1350.25 Q2148.34 1348.39 2148.34 1343.53 L2148.34 1329.46 L2145.21 1329.46 L2145.21 1326.15 L2148.34 1326.15 L2148.34 1318.79 L2152.62 1318.79 Z" fill="#000000" fill-rule="evenodd" fill-opacity="1" /><path clip-path="url(#clip280)" d="M2166.99 1326.15 L2171.25 1326.15 L2171.25 1352.07 L2166.99 1352.07 L2166.99 1326.15 M2166.99 1316.06 L2171.25 1316.06 L2171.25 1321.45 L2166.99 1321.45 L2166.99 1316.06 Z" fill="#000000" fill-rule="evenodd" fill-opacity="1" /><path clip-path="url(#clip280)" d="M2190.21 1329.13 Q2186.79 1329.13 2184.79 1331.82 Q2182.8 1334.48 2182.8 1339.13 Q2182.8 1343.79 2184.77 1346.47 Q2186.76 1349.13 2190.21 1349.13 Q2193.61 1349.13 2195.6 1346.45 Q2197.6 1343.76 2197.6 1339.13 Q2197.6 1334.53 2195.6 1331.84 Q2193.61 1329.13 2190.21 1329.13 M2190.21 1325.52 Q2195.77 1325.52 2198.94 1329.13 Q2202.11 1332.75 2202.11 1339.13 Q2202.11 1345.5 2198.94 1349.13 Q2195.77 1352.75 2190.21 1352.75 Q2184.63 1352.75 2181.46 1349.13 Q2178.31 1345.5 2178.31 1339.13 Q2178.31 1332.75 2181.46 1329.13 Q2184.63 1325.52 2190.21 1325.52 Z" fill="#000000" fill-rule="evenodd" fill-opacity="1" /><path clip-path="url(#clip280)" d="M2230.72 1336.43 L2230.72 1352.07 L2226.46 1352.07 L2226.46 1336.57 Q2226.46 1332.88 2225.03 1331.06 Q2223.59 1329.23 2220.72 1329.23 Q2217.27 1329.23 2215.28 1331.43 Q2213.29 1333.63 2213.29 1337.42 L2213.29 1352.07 L2209.01 1352.07 L2209.01 1326.15 L2213.29 1326.15 L2213.29 1330.18 Q2214.82 1327.84 2216.88 1326.68 Q2218.96 1325.52 2221.67 1325.52 Q2226.14 1325.52 2228.43 1328.3 Q2230.72 1331.06 2230.72 1336.43 Z" fill="#000000" fill-rule="evenodd" fill-opacity="1" /><polyline clip-path="url(#clip280)" style="stroke:#e26f46; stroke-linecap:butt; stroke-linejoin:round; stroke-width:4; stroke-opacity:0.6; fill:none" points="
  1403.95,1386.63 1550.39,1386.63 
  "/>
<path clip-path="url(#clip280)" d="M1582.21 1370.63 L1582.21 1377.99 L1590.98 1377.99 L1590.98 1381.3 L1582.21 1381.3 L1582.21 1395.37 Q1582.21 1398.54 1583.06 1399.45 Q1583.94 1400.35 1586.6 1400.35 L1590.98 1400.35 L1590.98 1403.91 L1586.6 1403.91 Q1581.67 1403.91 1579.8 1402.09 Q1577.92 1400.23 1577.92 1395.37 L1577.92 1381.3 L1574.8 1381.3 L1574.8 1377.99 L1577.92 1377.99 L1577.92 1370.63 L1582.21 1370.63 Z" fill="#000000" fill-rule="evenodd" fill-opacity="1" /><path clip-path="url(#clip280)" d="M1611.6 1381.97 Q1610.89 1381.55 1610.03 1381.37 Q1609.2 1381.16 1608.18 1381.16 Q1604.57 1381.16 1602.62 1383.52 Q1600.7 1385.86 1600.7 1390.26 L1600.7 1403.91 L1596.42 1403.91 L1596.42 1377.99 L1600.7 1377.99 L1600.7 1382.02 Q1602.04 1379.66 1604.2 1378.52 Q1606.35 1377.36 1609.43 1377.36 Q1609.87 1377.36 1610.4 1377.43 Q1610.93 1377.48 1611.58 1377.6 L1611.6 1381.97 Z" fill="#000000" fill-rule="evenodd" fill-opacity="1" /><path clip-path="url(#clip280)" d="M1615.63 1393.68 L1615.63 1377.99 L1619.89 1377.99 L1619.89 1393.52 Q1619.89 1397.2 1621.33 1399.05 Q1622.76 1400.88 1625.63 1400.88 Q1629.08 1400.88 1631.07 1398.68 Q1633.08 1396.48 1633.08 1392.69 L1633.08 1377.99 L1637.34 1377.99 L1637.34 1403.91 L1633.08 1403.91 L1633.08 1399.93 Q1631.53 1402.29 1629.47 1403.45 Q1627.44 1404.59 1624.73 1404.59 Q1620.26 1404.59 1617.95 1401.81 Q1615.63 1399.03 1615.63 1393.68 M1626.35 1377.36 L1626.35 1377.36 Z" fill="#000000" fill-rule="evenodd" fill-opacity="1" /><path clip-path="url(#clip280)" d="M1668.29 1389.89 L1668.29 1391.97 L1648.71 1391.97 Q1648.99 1396.37 1651.35 1398.68 Q1653.73 1400.97 1657.97 1400.97 Q1660.42 1400.97 1662.71 1400.37 Q1665.03 1399.77 1667.3 1398.57 L1667.3 1402.59 Q1665.01 1403.57 1662.6 1404.08 Q1660.19 1404.59 1657.71 1404.59 Q1651.51 1404.59 1647.88 1400.97 Q1644.26 1397.36 1644.26 1391.21 Q1644.26 1384.84 1647.69 1381.11 Q1651.14 1377.36 1656.97 1377.36 Q1662.2 1377.36 1665.24 1380.74 Q1668.29 1384.1 1668.29 1389.89 M1664.03 1388.64 Q1663.99 1385.14 1662.07 1383.06 Q1660.17 1380.97 1657.02 1380.97 Q1653.45 1380.97 1651.3 1382.99 Q1649.17 1385 1648.85 1388.66 L1664.03 1388.64 Z" fill="#000000" fill-rule="evenodd" fill-opacity="1" /><path clip-path="url(#clip280)" d="M1694.47 1400.03 L1694.47 1413.78 L1690.19 1413.78 L1690.19 1377.99 L1694.47 1377.99 L1694.47 1381.92 Q1695.82 1379.61 1697.85 1378.5 Q1699.91 1377.36 1702.76 1377.36 Q1707.48 1377.36 1710.42 1381.11 Q1713.38 1384.86 1713.38 1390.97 Q1713.38 1397.09 1710.42 1400.84 Q1707.48 1404.59 1702.76 1404.59 Q1699.91 1404.59 1697.85 1403.47 Q1695.82 1402.34 1694.47 1400.03 M1708.96 1390.97 Q1708.96 1386.28 1707.02 1383.61 Q1705.1 1380.93 1701.72 1380.93 Q1698.34 1380.93 1696.39 1383.61 Q1694.47 1386.28 1694.47 1390.97 Q1694.47 1395.67 1696.39 1398.36 Q1698.34 1401.02 1701.72 1401.02 Q1705.1 1401.02 1707.02 1398.36 Q1708.96 1395.67 1708.96 1390.97 Z" fill="#000000" fill-rule="evenodd" fill-opacity="1" /><path clip-path="url(#clip280)" d="M1730.49 1380.97 Q1727.07 1380.97 1725.07 1383.66 Q1723.08 1386.32 1723.08 1390.97 Q1723.08 1395.63 1725.05 1398.31 Q1727.04 1400.97 1730.49 1400.97 Q1733.89 1400.97 1735.88 1398.29 Q1737.88 1395.6 1737.88 1390.97 Q1737.88 1386.37 1735.88 1383.68 Q1733.89 1380.97 1730.49 1380.97 M1730.49 1377.36 Q1736.05 1377.36 1739.22 1380.97 Q1742.39 1384.59 1742.39 1390.97 Q1742.39 1397.34 1739.22 1400.97 Q1736.05 1404.59 1730.49 1404.59 Q1724.91 1404.59 1721.74 1400.97 Q1718.59 1397.34 1718.59 1390.97 Q1718.59 1384.59 1721.74 1380.97 Q1724.91 1377.36 1730.49 1377.36 Z" fill="#000000" fill-rule="evenodd" fill-opacity="1" /><path clip-path="url(#clip280)" d="M1749.45 1367.9 L1753.71 1367.9 L1753.71 1403.91 L1749.45 1403.91 L1749.45 1367.9 Z" fill="#000000" fill-rule="evenodd" fill-opacity="1" /><path clip-path="url(#clip280)" d="M1762.62 1377.99 L1766.88 1377.99 L1766.88 1403.91 L1762.62 1403.91 L1762.62 1377.99 M1762.62 1367.9 L1766.88 1367.9 L1766.88 1373.29 L1762.62 1373.29 L1762.62 1367.9 Z" fill="#000000" fill-rule="evenodd" fill-opacity="1" /><path clip-path="url(#clip280)" d="M1794.45 1378.98 L1794.45 1382.97 Q1792.64 1381.97 1790.82 1381.48 Q1789.01 1380.97 1787.16 1380.97 Q1783.01 1380.97 1780.72 1383.61 Q1778.43 1386.23 1778.43 1390.97 Q1778.43 1395.72 1780.72 1398.36 Q1783.01 1400.97 1787.16 1400.97 Q1789.01 1400.97 1790.82 1400.49 Q1792.64 1399.98 1794.45 1398.98 L1794.45 1402.92 Q1792.67 1403.75 1790.75 1404.17 Q1788.85 1404.59 1786.69 1404.59 Q1780.84 1404.59 1777.39 1400.91 Q1773.94 1397.22 1773.94 1390.97 Q1773.94 1384.63 1777.41 1381 Q1780.91 1377.36 1786.97 1377.36 Q1788.94 1377.36 1790.82 1377.78 Q1792.69 1378.17 1794.45 1378.98 Z" fill="#000000" fill-rule="evenodd" fill-opacity="1" /><path clip-path="url(#clip280)" d="M1812.64 1406.32 Q1810.84 1410.95 1809.13 1412.36 Q1807.41 1413.78 1804.54 1413.78 L1801.14 1413.78 L1801.14 1410.21 L1803.64 1410.21 Q1805.4 1410.21 1806.37 1409.38 Q1807.34 1408.54 1808.52 1405.44 L1809.29 1403.5 L1798.8 1377.99 L1803.32 1377.99 L1811.42 1398.27 L1819.52 1377.99 L1824.03 1377.99 L1812.64 1406.32 Z" fill="#000000" fill-rule="evenodd" fill-opacity="1" /><path clip-path="url(#clip280)" d="M1858.11 1367.9 L1858.11 1371.44 L1854.03 1371.44 Q1851.74 1371.44 1850.84 1372.36 Q1849.96 1373.29 1849.96 1375.7 L1849.96 1377.99 L1856.97 1377.99 L1856.97 1381.3 L1849.96 1381.3 L1849.96 1403.91 L1845.68 1403.91 L1845.68 1381.3 L1841.6 1381.3 L1841.6 1377.99 L1845.68 1377.99 L1845.68 1376.18 Q1845.68 1371.85 1847.69 1369.89 Q1849.7 1367.9 1854.08 1367.9 L1858.11 1367.9 Z" fill="#000000" fill-rule="evenodd" fill-opacity="1" /><path clip-path="url(#clip280)" d="M1861.23 1393.68 L1861.23 1377.99 L1865.49 1377.99 L1865.49 1393.52 Q1865.49 1397.2 1866.93 1399.05 Q1868.36 1400.88 1871.23 1400.88 Q1874.68 1400.88 1876.67 1398.68 Q1878.68 1396.48 1878.68 1392.69 L1878.68 1377.99 L1882.94 1377.99 L1882.94 1403.91 L1878.68 1403.91 L1878.68 1399.93 Q1877.13 1402.29 1875.07 1403.45 Q1873.04 1404.59 1870.33 1404.59 Q1865.86 1404.59 1863.55 1401.81 Q1861.23 1399.03 1861.23 1393.68 M1871.95 1377.36 L1871.95 1377.36 Z" fill="#000000" fill-rule="evenodd" fill-opacity="1" /><path clip-path="url(#clip280)" d="M1913.27 1388.27 L1913.27 1403.91 L1909.01 1403.91 L1909.01 1388.41 Q1909.01 1384.72 1907.57 1382.9 Q1906.14 1381.07 1903.27 1381.07 Q1899.82 1381.07 1897.83 1383.27 Q1895.84 1385.47 1895.84 1389.26 L1895.84 1403.91 L1891.56 1403.91 L1891.56 1377.99 L1895.84 1377.99 L1895.84 1382.02 Q1897.37 1379.68 1899.43 1378.52 Q1901.51 1377.36 1904.22 1377.36 Q1908.68 1377.36 1910.98 1380.14 Q1913.27 1382.9 1913.27 1388.27 Z" fill="#000000" fill-rule="evenodd" fill-opacity="1" /><path clip-path="url(#clip280)" d="M1940.42 1378.98 L1940.42 1382.97 Q1938.62 1381.97 1936.79 1381.48 Q1934.98 1380.97 1933.13 1380.97 Q1928.99 1380.97 1926.69 1383.61 Q1924.4 1386.23 1924.4 1390.97 Q1924.4 1395.72 1926.69 1398.36 Q1928.99 1400.97 1933.13 1400.97 Q1934.98 1400.97 1936.79 1400.49 Q1938.62 1399.98 1940.42 1398.98 L1940.42 1402.92 Q1938.64 1403.75 1936.72 1404.17 Q1934.82 1404.59 1932.67 1404.59 Q1926.81 1404.59 1923.36 1400.91 Q1919.91 1397.22 1919.91 1390.97 Q1919.91 1384.63 1923.38 1381 Q1926.88 1377.36 1932.94 1377.36 Q1934.91 1377.36 1936.79 1377.78 Q1938.66 1378.17 1940.42 1378.98 Z" fill="#000000" fill-rule="evenodd" fill-opacity="1" /><path clip-path="url(#clip280)" d="M1952.04 1370.63 L1952.04 1377.99 L1960.81 1377.99 L1960.81 1381.3 L1952.04 1381.3 L1952.04 1395.37 Q1952.04 1398.54 1952.9 1399.45 Q1953.78 1400.35 1956.44 1400.35 L1960.81 1400.35 L1960.81 1403.91 L1956.44 1403.91 Q1951.51 1403.91 1949.63 1402.09 Q1947.76 1400.23 1947.76 1395.37 L1947.76 1381.3 L1944.63 1381.3 L1944.63 1377.99 L1947.76 1377.99 L1947.76 1370.63 L1952.04 1370.63 Z" fill="#000000" fill-rule="evenodd" fill-opacity="1" /><path clip-path="url(#clip280)" d="M1966.42 1377.99 L1970.68 1377.99 L1970.68 1403.91 L1966.42 1403.91 L1966.42 1377.99 M1966.42 1367.9 L1970.68 1367.9 L1970.68 1373.29 L1966.42 1373.29 L1966.42 1367.9 Z" fill="#000000" fill-rule="evenodd" fill-opacity="1" /><path clip-path="url(#clip280)" d="M1989.63 1380.97 Q1986.21 1380.97 1984.22 1383.66 Q1982.23 1386.32 1982.23 1390.97 Q1982.23 1395.63 1984.19 1398.31 Q1986.18 1400.97 1989.63 1400.97 Q1993.04 1400.97 1995.03 1398.29 Q1997.02 1395.6 1997.02 1390.97 Q1997.02 1386.37 1995.03 1383.68 Q1993.04 1380.97 1989.63 1380.97 M1989.63 1377.36 Q1995.19 1377.36 1998.36 1380.97 Q2001.53 1384.59 2001.53 1390.97 Q2001.53 1397.34 1998.36 1400.97 Q1995.19 1404.59 1989.63 1404.59 Q1984.05 1404.59 1980.88 1400.97 Q1977.74 1397.34 1977.74 1390.97 Q1977.74 1384.59 1980.88 1380.97 Q1984.05 1377.36 1989.63 1377.36 Z" fill="#000000" fill-rule="evenodd" fill-opacity="1" /><path clip-path="url(#clip280)" d="M2030.14 1388.27 L2030.14 1403.91 L2025.88 1403.91 L2025.88 1388.41 Q2025.88 1384.72 2024.45 1382.9 Q2023.01 1381.07 2020.14 1381.07 Q2016.69 1381.07 2014.7 1383.27 Q2012.71 1385.47 2012.71 1389.26 L2012.71 1403.91 L2008.43 1403.91 L2008.43 1377.99 L2012.71 1377.99 L2012.71 1382.02 Q2014.24 1379.68 2016.3 1378.52 Q2018.38 1377.36 2021.09 1377.36 Q2025.56 1377.36 2027.85 1380.14 Q2030.14 1382.9 2030.14 1388.27 Z" fill="#000000" fill-rule="evenodd" fill-opacity="1" /></svg>
