<?xml version="1.0" encoding="utf-8"?>
<svg xmlns="http://www.w3.org/2000/svg" xmlns:xlink="http://www.w3.org/1999/xlink" width="600" height="400" viewBox="0 0 2400 1600">
<defs>
  <clipPath id="clip320">
    <rect x="0" y="0" width="2400" height="1600"/>
  </clipPath>
</defs>
<path clip-path="url(#clip320)" d="
M0 1600 L2400 1600 L2400 0 L0 0  Z
  " fill="#ffffff" fill-rule="evenodd" fill-opacity="1"/>
<defs>
  <clipPath id="clip321">
    <rect x="480" y="0" width="1681" height="1600"/>
  </clipPath>
</defs>
<path clip-path="url(#clip320)" d="
M193.936 1423.18 L2352.76 1423.18 L2352.76 47.2441 L193.936 47.2441  Z
  " fill="#ffffff" fill-rule="evenodd" fill-opacity="1"/>
<defs>
  <clipPath id="clip322">
    <rect x="193" y="47" width="2160" height="1377"/>
  </clipPath>
</defs>
<polyline clip-path="url(#clip322)" style="stroke:#000000; stroke-linecap:round; stroke-linejoin:round; stroke-width:2; stroke-opacity:0.1; fill:none" points="
  193.936,1423.18 193.936,47.2441 
  "/>
<polyline clip-path="url(#clip322)" style="stroke:#000000; stroke-linecap:round; stroke-linejoin:round; stroke-width:2; stroke-opacity:0.1; fill:none" points="
  553.739,1423.18 553.739,47.2441 
  "/>
<polyline clip-path="url(#clip322)" style="stroke:#000000; stroke-linecap:round; stroke-linejoin:round; stroke-width:2; stroke-opacity:0.1; fill:none" points="
  913.543,1423.18 913.543,47.2441 
  "/>
<polyline clip-path="url(#clip322)" style="stroke:#000000; stroke-linecap:round; stroke-linejoin:round; stroke-width:2; stroke-opacity:0.1; fill:none" points="
  1273.35,1423.18 1273.35,47.2441 
  "/>
<polyline clip-path="url(#clip322)" style="stroke:#000000; stroke-linecap:round; stroke-linejoin:round; stroke-width:2; stroke-opacity:0.1; fill:none" points="
  1633.15,1423.18 1633.15,47.2441 
  "/>
<polyline clip-path="url(#clip322)" style="stroke:#000000; stroke-linecap:round; stroke-linejoin:round; stroke-width:2; stroke-opacity:0.1; fill:none" points="
  1992.95,1423.18 1992.95,47.2441 
  "/>
<polyline clip-path="url(#clip322)" style="stroke:#000000; stroke-linecap:round; stroke-linejoin:round; stroke-width:2; stroke-opacity:0.1; fill:none" points="
  2352.76,1423.18 2352.76,47.2441 
  "/>
<polyline clip-path="url(#clip320)" style="stroke:#000000; stroke-linecap:round; stroke-linejoin:round; stroke-width:4; stroke-opacity:1; fill:none" points="
  193.936,1423.18 2352.76,1423.18 
  "/>
<polyline clip-path="url(#clip320)" style="stroke:#000000; stroke-linecap:round; stroke-linejoin:round; stroke-width:4; stroke-opacity:1; fill:none" points="
  193.936,1423.18 193.936,1404.28 
  "/>
<polyline clip-path="url(#clip320)" style="stroke:#000000; stroke-linecap:round; stroke-linejoin:round; stroke-width:4; stroke-opacity:1; fill:none" points="
  553.739,1423.18 553.739,1404.28 
  "/>
<polyline clip-path="url(#clip320)" style="stroke:#000000; stroke-linecap:round; stroke-linejoin:round; stroke-width:4; stroke-opacity:1; fill:none" points="
  913.543,1423.18 913.543,1404.28 
  "/>
<polyline clip-path="url(#clip320)" style="stroke:#000000; stroke-linecap:round; stroke-linejoin:round; stroke-width:4; stroke-opacity:1; fill:none" points="
  1273.35,1423.18 1273.35,1404.28 
  "/>
<polyline clip-path="url(#clip320)" style="stroke:#000000; stroke-linecap:round; stroke-linejoin:round; stroke-width:4; stroke-opacity:1; fill:none" points="
  1633.15,1423.18 1633.15,1404.28 
  "/>
<polyline clip-path="url(#clip320)" style="stroke:#000000; stroke-linecap:round; stroke-linejoin:round; stroke-width:4; stroke-opacity:1; fill:none" points="
  1992.95,1423.18 1992.95,1404.28 
  "/>
<polyline clip-path="url(#clip320)" style="stroke:#000000; stroke-linecap:round; stroke-linejoin:round; stroke-width:4; stroke-opacity:1; fill:none" points="
  2352.76,1423.18 2352.76,1404.28 
  "/>
<path clip-path="url(#clip320)" d="M193.936 1454.1 Q190.325 1454.1 188.496 1457.66 Q186.691 1461.2 186.691 1468.33 Q186.691 1475.44 188.496 1479.01 Q190.325 1482.55 193.936 1482.55 Q197.57 1482.55 199.376 1479.01 Q201.204 1475.44 201.204 1468.33 Q201.204 1461.2 199.376 1457.66 Q197.57 1454.1 193.936 1454.1 M193.936 1450.39 Q199.746 1450.39 202.802 1455 Q205.88 1459.58 205.88 1468.33 Q205.88 1477.06 202.802 1481.67 Q199.746 1486.25 193.936 1486.25 Q188.126 1486.25 185.047 1481.67 Q181.992 1477.06 181.992 1468.33 Q181.992 1459.58 185.047 1455 Q188.126 1450.39 193.936 1450.39 Z" fill="#000000" fill-rule="evenodd" fill-opacity="1" /><path clip-path="url(#clip320)" d="M528.427 1481.64 L536.066 1481.64 L536.066 1455.28 L527.756 1456.95 L527.756 1452.69 L536.02 1451.02 L540.695 1451.02 L540.695 1481.64 L548.334 1481.64 L548.334 1485.58 L528.427 1485.58 L528.427 1481.64 Z" fill="#000000" fill-rule="evenodd" fill-opacity="1" /><path clip-path="url(#clip320)" d="M567.779 1454.1 Q564.168 1454.1 562.339 1457.66 Q560.533 1461.2 560.533 1468.33 Q560.533 1475.44 562.339 1479.01 Q564.168 1482.55 567.779 1482.55 Q571.413 1482.55 573.218 1479.01 Q575.047 1475.44 575.047 1468.33 Q575.047 1461.2 573.218 1457.66 Q571.413 1454.1 567.779 1454.1 M567.779 1450.39 Q573.589 1450.39 576.644 1455 Q579.723 1459.58 579.723 1468.33 Q579.723 1477.06 576.644 1481.67 Q573.589 1486.25 567.779 1486.25 Q561.968 1486.25 558.89 1481.67 Q555.834 1477.06 555.834 1468.33 Q555.834 1459.58 558.89 1455 Q561.968 1450.39 567.779 1450.39 Z" fill="#000000" fill-rule="evenodd" fill-opacity="1" /><path clip-path="url(#clip320)" d="M892.316 1481.64 L908.635 1481.64 L908.635 1485.58 L886.691 1485.58 L886.691 1481.64 Q889.353 1478.89 893.936 1474.26 Q898.543 1469.61 899.723 1468.27 Q901.969 1465.74 902.848 1464.01 Q903.751 1462.25 903.751 1460.56 Q903.751 1457.8 901.807 1456.07 Q899.885 1454.33 896.783 1454.33 Q894.584 1454.33 892.131 1455.09 Q889.7 1455.86 886.922 1457.41 L886.922 1452.69 Q889.746 1451.55 892.2 1450.97 Q894.654 1450.39 896.691 1450.39 Q902.061 1450.39 905.256 1453.08 Q908.45 1455.77 908.45 1460.26 Q908.45 1462.39 907.64 1464.31 Q906.853 1466.2 904.746 1468.8 Q904.168 1469.47 901.066 1472.69 Q897.964 1475.88 892.316 1481.64 Z" fill="#000000" fill-rule="evenodd" fill-opacity="1" /><path clip-path="url(#clip320)" d="M928.45 1454.1 Q924.839 1454.1 923.01 1457.66 Q921.205 1461.2 921.205 1468.33 Q921.205 1475.44 923.01 1479.01 Q924.839 1482.55 928.45 1482.55 Q932.084 1482.55 933.89 1479.01 Q935.718 1475.44 935.718 1468.33 Q935.718 1461.2 933.89 1457.66 Q932.084 1454.1 928.45 1454.1 M928.45 1450.39 Q934.26 1450.39 937.316 1455 Q940.394 1459.58 940.394 1468.33 Q940.394 1477.06 937.316 1481.67 Q934.26 1486.25 928.45 1486.25 Q922.64 1486.25 919.561 1481.67 Q916.506 1477.06 916.506 1468.33 Q916.506 1459.58 919.561 1455 Q922.64 1450.39 928.45 1450.39 Z" fill="#000000" fill-rule="evenodd" fill-opacity="1" /><path clip-path="url(#clip320)" d="M1262.19 1466.95 Q1265.55 1467.66 1267.42 1469.93 Q1269.32 1472.2 1269.32 1475.53 Q1269.32 1480.65 1265.8 1483.45 Q1262.28 1486.25 1255.8 1486.25 Q1253.62 1486.25 1251.31 1485.81 Q1249.02 1485.39 1246.56 1484.54 L1246.56 1480.02 Q1248.51 1481.16 1250.82 1481.74 Q1253.14 1482.32 1255.66 1482.32 Q1260.06 1482.32 1262.35 1480.58 Q1264.67 1478.84 1264.67 1475.53 Q1264.67 1472.48 1262.51 1470.77 Q1260.38 1469.03 1256.56 1469.03 L1252.54 1469.03 L1252.54 1465.19 L1256.75 1465.19 Q1260.2 1465.19 1262.03 1463.82 Q1263.86 1462.43 1263.86 1459.84 Q1263.86 1457.18 1261.96 1455.77 Q1260.08 1454.33 1256.56 1454.33 Q1254.64 1454.33 1252.44 1454.75 Q1250.24 1455.16 1247.61 1456.04 L1247.61 1451.88 Q1250.27 1451.14 1252.58 1450.77 Q1254.92 1450.39 1256.98 1450.39 Q1262.3 1450.39 1265.41 1452.83 Q1268.51 1455.23 1268.51 1459.35 Q1268.51 1462.22 1266.86 1464.21 Q1265.22 1466.18 1262.19 1466.95 Z" fill="#000000" fill-rule="evenodd" fill-opacity="1" /><path clip-path="url(#clip320)" d="M1288.18 1454.1 Q1284.57 1454.1 1282.74 1457.66 Q1280.94 1461.2 1280.94 1468.33 Q1280.94 1475.44 1282.74 1479.01 Q1284.57 1482.55 1288.18 1482.55 Q1291.82 1482.55 1293.62 1479.01 Q1295.45 1475.44 1295.45 1468.33 Q1295.45 1461.2 1293.62 1457.66 Q1291.82 1454.1 1288.18 1454.1 M1288.18 1450.39 Q1293.99 1450.39 1297.05 1455 Q1300.13 1459.58 1300.13 1468.33 Q1300.13 1477.06 1297.05 1481.67 Q1293.99 1486.25 1288.18 1486.25 Q1282.37 1486.25 1279.29 1481.67 Q1276.24 1477.06 1276.24 1468.33 Q1276.24 1459.58 1279.29 1455 Q1282.37 1450.39 1288.18 1450.39 Z" fill="#000000" fill-rule="evenodd" fill-opacity="1" /><path clip-path="url(#clip320)" d="M1621.32 1455.09 L1609.52 1473.54 L1621.32 1473.54 L1621.32 1455.09 M1620.09 1451.02 L1625.97 1451.02 L1625.97 1473.54 L1630.9 1473.54 L1630.9 1477.43 L1625.97 1477.43 L1625.97 1485.58 L1621.32 1485.58 L1621.32 1477.43 L1605.72 1477.43 L1605.72 1472.92 L1620.09 1451.02 Z" fill="#000000" fill-rule="evenodd" fill-opacity="1" /><path clip-path="url(#clip320)" d="M1648.64 1454.1 Q1645.02 1454.1 1643.2 1457.66 Q1641.39 1461.2 1641.39 1468.33 Q1641.39 1475.44 1643.2 1479.01 Q1645.02 1482.55 1648.64 1482.55 Q1652.27 1482.55 1654.08 1479.01 Q1655.9 1475.44 1655.9 1468.33 Q1655.9 1461.2 1654.08 1457.66 Q1652.27 1454.1 1648.64 1454.1 M1648.64 1450.39 Q1654.45 1450.39 1657.5 1455 Q1660.58 1459.58 1660.58 1468.33 Q1660.58 1477.06 1657.5 1481.67 Q1654.45 1486.25 1648.64 1486.25 Q1642.83 1486.25 1639.75 1481.67 Q1636.69 1477.06 1636.69 1468.33 Q1636.69 1459.58 1639.75 1455 Q1642.83 1450.39 1648.64 1450.39 Z" fill="#000000" fill-rule="evenodd" fill-opacity="1" /><path clip-path="url(#clip320)" d="M1967.65 1451.02 L1986.01 1451.02 L1986.01 1454.96 L1971.93 1454.96 L1971.93 1463.43 Q1972.95 1463.08 1973.97 1462.92 Q1974.99 1462.73 1976.01 1462.73 Q1981.8 1462.73 1985.17 1465.9 Q1988.55 1469.08 1988.55 1474.49 Q1988.55 1480.07 1985.08 1483.17 Q1981.61 1486.25 1975.29 1486.25 Q1973.11 1486.25 1970.85 1485.88 Q1968.6 1485.51 1966.19 1484.77 L1966.19 1480.07 Q1968.28 1481.2 1970.5 1481.76 Q1972.72 1482.32 1975.2 1482.32 Q1979.2 1482.32 1981.54 1480.21 Q1983.88 1478.1 1983.88 1474.49 Q1983.88 1470.88 1981.54 1468.77 Q1979.2 1466.67 1975.2 1466.67 Q1973.32 1466.67 1971.45 1467.08 Q1969.6 1467.5 1967.65 1468.38 L1967.65 1451.02 Z" fill="#000000" fill-rule="evenodd" fill-opacity="1" /><path clip-path="url(#clip320)" d="M2007.77 1454.1 Q2004.16 1454.1 2002.33 1457.66 Q2000.52 1461.2 2000.52 1468.33 Q2000.52 1475.44 2002.33 1479.01 Q2004.16 1482.55 2007.77 1482.55 Q2011.4 1482.55 2013.21 1479.01 Q2015.04 1475.44 2015.04 1468.33 Q2015.04 1461.2 2013.21 1457.66 Q2011.4 1454.1 2007.77 1454.1 M2007.77 1450.39 Q2013.58 1450.39 2016.63 1455 Q2019.71 1459.58 2019.71 1468.33 Q2019.71 1477.06 2016.63 1481.67 Q2013.58 1486.25 2007.77 1486.25 Q2001.96 1486.25 1998.88 1481.67 Q1995.82 1477.06 1995.82 1468.33 Q1995.82 1459.58 1998.88 1455 Q2001.96 1450.39 2007.77 1450.39 Z" fill="#000000" fill-rule="evenodd" fill-opacity="1" /><path clip-path="url(#clip320)" d="M2338.16 1466.44 Q2335.01 1466.44 2333.16 1468.59 Q2331.33 1470.74 2331.33 1474.49 Q2331.33 1478.22 2333.16 1480.39 Q2335.01 1482.55 2338.16 1482.55 Q2341.31 1482.55 2343.14 1480.39 Q2344.99 1478.22 2344.99 1474.49 Q2344.99 1470.74 2343.14 1468.59 Q2341.31 1466.44 2338.16 1466.44 M2347.44 1451.78 L2347.44 1456.04 Q2345.68 1455.21 2343.88 1454.77 Q2342.1 1454.33 2340.34 1454.33 Q2335.71 1454.33 2333.25 1457.45 Q2330.82 1460.58 2330.48 1466.9 Q2331.84 1464.89 2333.9 1463.82 Q2335.96 1462.73 2338.44 1462.73 Q2343.65 1462.73 2346.66 1465.9 Q2349.69 1469.05 2349.69 1474.49 Q2349.69 1479.82 2346.54 1483.03 Q2343.39 1486.25 2338.16 1486.25 Q2332.17 1486.25 2328.99 1481.67 Q2325.82 1477.06 2325.82 1468.33 Q2325.82 1460.14 2329.71 1455.28 Q2333.6 1450.39 2340.15 1450.39 Q2341.91 1450.39 2343.69 1450.74 Q2345.5 1451.09 2347.44 1451.78 Z" fill="#000000" fill-rule="evenodd" fill-opacity="1" /><path clip-path="url(#clip320)" d="M2367.74 1454.1 Q2364.13 1454.1 2362.3 1457.66 Q2360.5 1461.2 2360.5 1468.33 Q2360.5 1475.44 2362.3 1479.01 Q2364.13 1482.55 2367.74 1482.55 Q2371.38 1482.55 2373.18 1479.01 Q2375.01 1475.44 2375.01 1468.33 Q2375.01 1461.2 2373.18 1457.66 Q2371.38 1454.1 2367.74 1454.1 M2367.74 1450.39 Q2373.55 1450.39 2376.61 1455 Q2379.69 1459.58 2379.69 1468.33 Q2379.69 1477.06 2376.61 1481.67 Q2373.55 1486.25 2367.74 1486.25 Q2361.93 1486.25 2358.86 1481.67 Q2355.8 1477.06 2355.8 1468.33 Q2355.8 1459.58 2358.86 1455 Q2361.93 1450.39 2367.74 1450.39 Z" fill="#000000" fill-rule="evenodd" fill-opacity="1" /><path clip-path="url(#clip320)" d="M1195.22 1520.52 L1235.42 1520.52 L1235.42 1525.93 L1218.55 1525.93 L1218.55 1568.04 L1212.09 1568.04 L1212.09 1525.93 L1195.22 1525.93 L1195.22 1520.52 Z" fill="#000000" fill-rule="evenodd" fill-opacity="1" /><path clip-path="url(#clip320)" d="M1239.37 1532.4 L1245.23 1532.4 L1245.23 1568.04 L1239.37 1568.04 L1239.37 1532.4 M1239.37 1518.52 L1245.23 1518.52 L1245.23 1525.93 L1239.37 1525.93 L1239.37 1518.52 Z" fill="#000000" fill-rule="evenodd" fill-opacity="1" /><path clip-path="url(#clip320)" d="M1285.23 1539.24 Q1287.43 1535.29 1290.49 1533.41 Q1293.54 1531.54 1297.68 1531.54 Q1303.25 1531.54 1306.27 1535.45 Q1309.3 1539.33 1309.3 1546.53 L1309.3 1568.04 L1303.41 1568.04 L1303.41 1546.72 Q1303.41 1541.59 1301.59 1539.11 Q1299.78 1536.63 1296.06 1536.63 Q1291.5 1536.63 1288.86 1539.65 Q1286.22 1542.68 1286.22 1547.9 L1286.22 1568.04 L1280.33 1568.04 L1280.33 1546.72 Q1280.33 1541.56 1278.52 1539.11 Q1276.7 1536.63 1272.92 1536.63 Q1268.43 1536.63 1265.79 1539.68 Q1263.14 1542.71 1263.14 1547.9 L1263.14 1568.04 L1257.26 1568.04 L1257.26 1532.4 L1263.14 1532.4 L1263.14 1537.93 Q1265.15 1534.66 1267.95 1533.1 Q1270.75 1531.54 1274.6 1531.54 Q1278.49 1531.54 1281.19 1533.51 Q1283.93 1535.48 1285.23 1539.24 Z" fill="#000000" fill-rule="evenodd" fill-opacity="1" /><path clip-path="url(#clip320)" d="M1351.47 1548.76 L1351.47 1551.62 L1324.54 1551.62 Q1324.92 1557.67 1328.17 1560.85 Q1331.45 1564 1337.27 1564 Q1340.65 1564 1343.8 1563.17 Q1346.98 1562.35 1350.1 1560.69 L1350.1 1566.23 Q1346.95 1567.57 1343.64 1568.27 Q1340.33 1568.97 1336.92 1568.97 Q1328.39 1568.97 1323.4 1564 Q1318.43 1559.04 1318.43 1550.57 Q1318.43 1541.82 1323.14 1536.69 Q1327.88 1531.54 1335.9 1531.54 Q1343.1 1531.54 1347.27 1536.18 Q1351.47 1540.8 1351.47 1548.76 M1345.61 1547.04 Q1345.55 1542.23 1342.91 1539.37 Q1340.3 1536.5 1335.97 1536.5 Q1331.07 1536.5 1328.11 1539.27 Q1325.18 1542.04 1324.73 1547.07 L1345.61 1547.04 Z" fill="#000000" fill-rule="evenodd" fill-opacity="1" /><polyline clip-path="url(#clip322)" style="stroke:#000000; stroke-linecap:round; stroke-linejoin:round; stroke-width:2; stroke-opacity:0.1; fill:none" points="
  193.936,1265.79 2352.76,1265.79 
  "/>
<polyline clip-path="url(#clip322)" style="stroke:#000000; stroke-linecap:round; stroke-linejoin:round; stroke-width:2; stroke-opacity:0.1; fill:none" points="
  193.936,1013.73 2352.76,1013.73 
  "/>
<polyline clip-path="url(#clip322)" style="stroke:#000000; stroke-linecap:round; stroke-linejoin:round; stroke-width:2; stroke-opacity:0.1; fill:none" points="
  193.936,761.673 2352.76,761.673 
  "/>
<polyline clip-path="url(#clip322)" style="stroke:#000000; stroke-linecap:round; stroke-linejoin:round; stroke-width:2; stroke-opacity:0.1; fill:none" points="
  193.936,509.615 2352.76,509.615 
  "/>
<polyline clip-path="url(#clip322)" style="stroke:#000000; stroke-linecap:round; stroke-linejoin:round; stroke-width:2; stroke-opacity:0.1; fill:none" points="
  193.936,257.556 2352.76,257.556 
  "/>
<polyline clip-path="url(#clip320)" style="stroke:#000000; stroke-linecap:round; stroke-linejoin:round; stroke-width:4; stroke-opacity:1; fill:none" points="
  193.936,1423.18 193.936,47.2441 
  "/>
<polyline clip-path="url(#clip320)" style="stroke:#000000; stroke-linecap:round; stroke-linejoin:round; stroke-width:4; stroke-opacity:1; fill:none" points="
  193.936,1265.79 212.834,1265.79 
  "/>
<polyline clip-path="url(#clip320)" style="stroke:#000000; stroke-linecap:round; stroke-linejoin:round; stroke-width:4; stroke-opacity:1; fill:none" points="
  193.936,1013.73 212.834,1013.73 
  "/>
<polyline clip-path="url(#clip320)" style="stroke:#000000; stroke-linecap:round; stroke-linejoin:round; stroke-width:4; stroke-opacity:1; fill:none" points="
  193.936,761.673 212.834,761.673 
  "/>
<polyline clip-path="url(#clip320)" style="stroke:#000000; stroke-linecap:round; stroke-linejoin:round; stroke-width:4; stroke-opacity:1; fill:none" points="
  193.936,509.615 212.834,509.615 
  "/>
<polyline clip-path="url(#clip320)" style="stroke:#000000; stroke-linecap:round; stroke-linejoin:round; stroke-width:4; stroke-opacity:1; fill:none" points="
  193.936,257.556 212.834,257.556 
  "/>
<path clip-path="url(#clip320)" d="M50.9921 1266.24 L80.6679 1266.24 L80.6679 1270.18 L50.9921 1270.18 L50.9921 1266.24 Z" fill="#000000" fill-rule="evenodd" fill-opacity="1" /><path clip-path="url(#clip320)" d="M91.5706 1279.14 L99.2095 1279.14 L99.2095 1252.77 L90.8993 1254.44 L90.8993 1250.18 L99.1632 1248.51 L103.839 1248.51 L103.839 1279.14 L111.478 1279.14 L111.478 1283.07 L91.5706 1283.07 L91.5706 1279.14 Z" fill="#000000" fill-rule="evenodd" fill-opacity="1" /><path clip-path="url(#clip320)" d="M120.922 1277.19 L125.807 1277.19 L125.807 1283.07 L120.922 1283.07 L120.922 1277.19 Z" fill="#000000" fill-rule="evenodd" fill-opacity="1" /><path clip-path="url(#clip320)" d="M145.992 1251.59 Q142.381 1251.59 140.552 1255.15 Q138.746 1258.7 138.746 1265.83 Q138.746 1272.93 140.552 1276.5 Q142.381 1280.04 145.992 1280.04 Q149.626 1280.04 151.431 1276.5 Q153.26 1272.93 153.26 1265.83 Q153.26 1258.7 151.431 1255.15 Q149.626 1251.59 145.992 1251.59 M145.992 1247.89 Q151.802 1247.89 154.857 1252.49 Q157.936 1257.08 157.936 1265.83 Q157.936 1274.55 154.857 1279.16 Q151.802 1283.74 145.992 1283.74 Q140.181 1283.74 137.103 1279.16 Q134.047 1274.55 134.047 1265.83 Q134.047 1257.08 137.103 1252.49 Q140.181 1247.89 145.992 1247.89 Z" fill="#000000" fill-rule="evenodd" fill-opacity="1" /><path clip-path="url(#clip320)" d="M51.9875 1014.18 L81.6633 1014.18 L81.6633 1018.12 L51.9875 1018.12 L51.9875 1014.18 Z" fill="#000000" fill-rule="evenodd" fill-opacity="1" /><path clip-path="url(#clip320)" d="M101.756 999.531 Q98.1447 999.531 96.316 1003.1 Q94.5104 1006.64 94.5104 1013.77 Q94.5104 1020.87 96.316 1024.44 Q98.1447 1027.98 101.756 1027.98 Q105.39 1027.98 107.196 1024.44 Q109.024 1020.87 109.024 1013.77 Q109.024 1006.64 107.196 1003.1 Q105.39 999.531 101.756 999.531 M101.756 995.827 Q107.566 995.827 110.621 1000.43 Q113.7 1005.02 113.7 1013.77 Q113.7 1022.49 110.621 1027.1 Q107.566 1031.68 101.756 1031.68 Q95.9456 1031.68 92.8669 1027.1 Q89.8114 1022.49 89.8114 1013.77 Q89.8114 1005.02 92.8669 1000.43 Q95.9456 995.827 101.756 995.827 Z" fill="#000000" fill-rule="evenodd" fill-opacity="1" /><path clip-path="url(#clip320)" d="M121.918 1025.13 L126.802 1025.13 L126.802 1031.01 L121.918 1031.01 L121.918 1025.13 Z" fill="#000000" fill-rule="evenodd" fill-opacity="1" /><path clip-path="url(#clip320)" d="M137.033 996.452 L155.39 996.452 L155.39 1000.39 L141.316 1000.39 L141.316 1008.86 Q142.334 1008.51 143.353 1008.35 Q144.371 1008.16 145.39 1008.16 Q151.177 1008.16 154.556 1011.34 Q157.936 1014.51 157.936 1019.92 Q157.936 1025.5 154.464 1028.6 Q150.992 1031.68 144.672 1031.68 Q142.496 1031.68 140.228 1031.31 Q137.982 1030.94 135.575 1030.2 L135.575 1025.5 Q137.658 1026.64 139.881 1027.19 Q142.103 1027.75 144.58 1027.75 Q148.584 1027.75 150.922 1025.64 Q153.26 1023.54 153.26 1019.92 Q153.26 1016.31 150.922 1014.21 Q148.584 1012.1 144.58 1012.1 Q142.705 1012.1 140.83 1012.52 Q138.978 1012.93 137.033 1013.81 L137.033 996.452 Z" fill="#000000" fill-rule="evenodd" fill-opacity="1" /><path clip-path="url(#clip320)" d="M100.76 747.472 Q97.1493 747.472 95.3206 751.037 Q93.515 754.578 93.515 761.708 Q93.515 768.815 95.3206 772.379 Q97.1493 775.921 100.76 775.921 Q104.395 775.921 106.2 772.379 Q108.029 768.815 108.029 761.708 Q108.029 754.578 106.2 751.037 Q104.395 747.472 100.76 747.472 M100.76 743.768 Q106.571 743.768 109.626 748.375 Q112.705 752.958 112.705 761.708 Q112.705 770.435 109.626 775.041 Q106.571 779.625 100.76 779.625 Q94.9502 779.625 91.8715 775.041 Q88.816 770.435 88.816 761.708 Q88.816 752.958 91.8715 748.375 Q94.9502 743.768 100.76 743.768 Z" fill="#000000" fill-rule="evenodd" fill-opacity="1" /><path clip-path="url(#clip320)" d="M120.922 773.074 L125.807 773.074 L125.807 778.953 L120.922 778.953 L120.922 773.074 Z" fill="#000000" fill-rule="evenodd" fill-opacity="1" /><path clip-path="url(#clip320)" d="M145.992 747.472 Q142.381 747.472 140.552 751.037 Q138.746 754.578 138.746 761.708 Q138.746 768.815 140.552 772.379 Q142.381 775.921 145.992 775.921 Q149.626 775.921 151.431 772.379 Q153.26 768.815 153.26 761.708 Q153.26 754.578 151.431 751.037 Q149.626 747.472 145.992 747.472 M145.992 743.768 Q151.802 743.768 154.857 748.375 Q157.936 752.958 157.936 761.708 Q157.936 770.435 154.857 775.041 Q151.802 779.625 145.992 779.625 Q140.181 779.625 137.103 775.041 Q134.047 770.435 134.047 761.708 Q134.047 752.958 137.103 748.375 Q140.181 743.768 145.992 743.768 Z" fill="#000000" fill-rule="evenodd" fill-opacity="1" /><path clip-path="url(#clip320)" d="M101.756 495.413 Q98.1447 495.413 96.316 498.978 Q94.5104 502.52 94.5104 509.65 Q94.5104 516.756 96.316 520.321 Q98.1447 523.862 101.756 523.862 Q105.39 523.862 107.196 520.321 Q109.024 516.756 109.024 509.65 Q109.024 502.52 107.196 498.978 Q105.39 495.413 101.756 495.413 M101.756 491.71 Q107.566 491.71 110.621 496.316 Q113.7 500.9 113.7 509.65 Q113.7 518.376 110.621 522.983 Q107.566 527.566 101.756 527.566 Q95.9456 527.566 92.8669 522.983 Q89.8114 518.376 89.8114 509.65 Q89.8114 500.9 92.8669 496.316 Q95.9456 491.71 101.756 491.71 Z" fill="#000000" fill-rule="evenodd" fill-opacity="1" /><path clip-path="url(#clip320)" d="M121.918 521.015 L126.802 521.015 L126.802 526.895 L121.918 526.895 L121.918 521.015 Z" fill="#000000" fill-rule="evenodd" fill-opacity="1" /><path clip-path="url(#clip320)" d="M137.033 492.335 L155.39 492.335 L155.39 496.27 L141.316 496.27 L141.316 504.742 Q142.334 504.395 143.353 504.233 Q144.371 504.048 145.39 504.048 Q151.177 504.048 154.556 507.219 Q157.936 510.39 157.936 515.807 Q157.936 521.386 154.464 524.487 Q150.992 527.566 144.672 527.566 Q142.496 527.566 140.228 527.196 Q137.982 526.825 135.575 526.085 L135.575 521.386 Q137.658 522.52 139.881 523.075 Q142.103 523.631 144.58 523.631 Q148.584 523.631 150.922 521.524 Q153.26 519.418 153.26 515.807 Q153.26 512.196 150.922 510.089 Q148.584 507.983 144.58 507.983 Q142.705 507.983 140.83 508.4 Q138.978 508.816 137.033 509.696 L137.033 492.335 Z" fill="#000000" fill-rule="evenodd" fill-opacity="1" /><path clip-path="url(#clip320)" d="M91.5706 270.901 L99.2095 270.901 L99.2095 244.535 L90.8993 246.202 L90.8993 241.943 L99.1632 240.276 L103.839 240.276 L103.839 270.901 L111.478 270.901 L111.478 274.836 L91.5706 274.836 L91.5706 270.901 Z" fill="#000000" fill-rule="evenodd" fill-opacity="1" /><path clip-path="url(#clip320)" d="M120.922 268.957 L125.807 268.957 L125.807 274.836 L120.922 274.836 L120.922 268.957 Z" fill="#000000" fill-rule="evenodd" fill-opacity="1" /><path clip-path="url(#clip320)" d="M145.992 243.355 Q142.381 243.355 140.552 246.92 Q138.746 250.461 138.746 257.591 Q138.746 264.697 140.552 268.262 Q142.381 271.804 145.992 271.804 Q149.626 271.804 151.431 268.262 Q153.26 264.697 153.26 257.591 Q153.26 250.461 151.431 246.92 Q149.626 243.355 145.992 243.355 M145.992 239.651 Q151.802 239.651 154.857 244.258 Q157.936 248.841 157.936 257.591 Q157.936 266.318 154.857 270.924 Q151.802 275.508 145.992 275.508 Q140.181 275.508 137.103 270.924 Q134.047 266.318 134.047 257.591 Q134.047 248.841 137.103 244.258 Q140.181 239.651 145.992 239.651 Z" fill="#000000" fill-rule="evenodd" fill-opacity="1" /><polyline clip-path="url(#clip322)" style="stroke:#008000; stroke-linecap:round; stroke-linejoin:round; stroke-width:4; stroke-opacity:1; fill:none" points="
  193.936,257.556 229.916,238.52 265.897,281.375 301.877,281.092 337.857,195.829 373.838,221.506 409.818,322.554 445.798,368.66 481.779,417.437 517.759,254.246 
  553.739,319.966 589.72,194.016 625.7,224.747 661.68,287.458 697.661,218.452 733.641,148.121 769.621,264.595 805.602,353.786 841.582,158.42 877.562,264.859 
  913.543,362.121 949.523,368.143 985.503,159.18 1021.48,86.1857 1057.46,143.193 1093.44,208.492 1129.42,189.505 1165.4,236.069 1201.39,174.106 1237.37,207.355 
  1273.35,244.605 1309.33,172.871 1345.31,112.313 1381.29,197.013 1417.27,286.715 1453.25,290.807 1489.23,209.926 1525.21,262.82 1561.19,316.456 1597.17,324.005 
  1633.15,239.102 1669.13,233.179 1705.11,350.497 1741.09,270.051 1777.07,270.484 1813.05,319.193 1849.03,325.653 1885.01,272.151 1920.99,333.051 1956.97,374.088 
  1992.95,304.417 2028.93,209.486 2064.91,293.749 2100.89,182.34 2136.87,232.577 2172.85,229.011 2208.83,273.18 2244.81,281.054 2280.8,260.617 2316.78,249.634 
  2352.76,330.564 
  "/>
<polyline clip-path="url(#clip322)" style="stroke:#000000; stroke-linecap:round; stroke-linejoin:round; stroke-width:4; stroke-opacity:1; fill:none" points="
  229.916,257.556 265.897,255.743 301.877,258.918 337.857,260.026 373.838,253.026 409.818,252.532 445.798,260.439 481.779,267.925 517.759,277.861 553.739,269.933 
  589.72,276.034 625.7,267.011 661.68,266.912 697.661,271.322 733.641,266.174 769.621,257.613 805.602,263.495 841.582,272.325 877.562,258.301 913.543,263.717 
  949.523,273.328 985.503,278.88 1021.48,264.245 1057.46,252.609 1093.44,249.878 1129.42,250.651 1165.4,246.506 1201.39,247.7 1237.37,240.776 1273.35,239.968 
  1309.33,241.126 1345.31,233.677 1381.29,223.877 1417.27,225.027 1453.25,230.687 1489.23,232.466 1525.21,226.346 1561.19,229.115 1597.17,234.474 1633.15,237.998 
  1669.13,233.076 1705.11,231.633 1741.09,241.646 1777.07,238.41 1813.05,239.046 1849.03,244.301 1885.01,247.851 1920.99,245.998 1956.97,252.493 1992.95,259.996 
  2028.93,258.91 2064.91,252.101 2100.89,257.837 2136.87,248.95 2172.85,250.152 2208.83,248.623 2244.81,251.471 2280.8,252.964 2316.78,252.137 2352.76,251.237 
  2388.74,258.567 
  "/>
<polyline clip-path="url(#clip322)" style="stroke:#0000ff; stroke-linecap:round; stroke-linejoin:round; stroke-width:4; stroke-opacity:1; fill:none" points="
  229.916,761.673 265.897,780.709 301.877,756.89 337.857,733.354 373.838,795.081 409.818,831.131 445.798,766.134 481.779,655.03 517.759,495.149 553.739,498.46 
  589.72,436.05 625.7,499.59 661.68,532.4 697.661,502.498 733.641,541.602 769.621,651.037 805.602,643.999 841.582,547.769 877.562,646.905 913.543,639.602 
  949.523,535.037 985.503,424.45 1021.48,522.827 1057.46,694.197 1093.44,808.561 1129.42,857.625 1165.4,925.677 1201.39,947.164 1237.37,1030.61 1273.35,1080.82 
  1309.33,1093.77 1345.31,1178.45 1381.29,1323.7 1417.27,1384.24 1453.25,1355.08 1489.23,1321.83 1525.21,1369.46 1561.19,1364.19 1597.17,1305.3 1633.15,1238.85 
  1669.13,1257.3 1705.11,1281.68 1741.09,1188.74 1777.07,1176.24 1813.05,1163.32 1849.03,1101.68 1885.01,1033.58 1920.99,1018.99 1956.97,943.492 1992.95,826.961 
  2028.93,780.1 2064.91,828.171 2100.89,791.979 2136.87,867.195 2172.85,892.174 2208.83,920.719 2244.81,905.095 2280.8,881.598 2316.78,878.537 2352.76,886.46 
  2388.74,813.452 
  "/>
<path clip-path="url(#clip320)" d="
M921.135 1377.32 L1625.56 1377.32 L1625.56 1169.96 L921.135 1169.96  Z
  " fill="#ffffff" fill-rule="evenodd" fill-opacity="1"/>
<polyline clip-path="url(#clip320)" style="stroke:#000000; stroke-linecap:round; stroke-linejoin:round; stroke-width:4; stroke-opacity:1; fill:none" points="
  921.135,1377.32 1625.56,1377.32 1625.56,1169.96 921.135,1169.96 921.135,1377.32 
  "/>
<polyline clip-path="url(#clip320)" style="stroke:#008000; stroke-linecap:round; stroke-linejoin:round; stroke-width:4; stroke-opacity:1; fill:none" points="
  945.122,1221.8 1089.04,1221.8 
  "/>
<path clip-path="url(#clip320)" d="M1134.74 1223.43 L1134.74 1239.08 L1130.48 1239.08 L1130.48 1223.57 Q1130.48 1219.89 1129.05 1218.06 Q1127.61 1216.23 1124.74 1216.23 Q1121.29 1216.23 1119.3 1218.43 Q1117.31 1220.63 1117.31 1224.42 L1117.31 1239.08 L1113.03 1239.08 L1113.03 1213.15 L1117.31 1213.15 L1117.31 1217.18 Q1118.84 1214.84 1120.9 1213.68 Q1122.98 1212.52 1125.69 1212.52 Q1130.16 1212.52 1132.45 1215.3 Q1134.74 1218.06 1134.74 1223.43 Z" fill="#000000" fill-rule="evenodd" fill-opacity="1" /><path clip-path="url(#clip320)" d="M1153.28 1216.14 Q1149.86 1216.14 1147.87 1218.82 Q1145.88 1221.48 1145.88 1226.14 Q1145.88 1230.79 1147.85 1233.47 Q1149.84 1236.14 1153.28 1236.14 Q1156.69 1236.14 1158.68 1233.45 Q1160.67 1230.77 1160.67 1226.14 Q1160.67 1221.53 1158.68 1218.84 Q1156.69 1216.14 1153.28 1216.14 M1153.28 1212.52 Q1158.84 1212.52 1162.01 1216.14 Q1165.18 1219.75 1165.18 1226.14 Q1165.18 1232.5 1162.01 1236.14 Q1158.84 1239.75 1153.28 1239.75 Q1147.71 1239.75 1144.53 1236.14 Q1141.39 1232.5 1141.39 1226.14 Q1141.39 1219.75 1144.53 1216.14 Q1147.71 1212.52 1153.28 1212.52 Z" fill="#000000" fill-rule="evenodd" fill-opacity="1" /><path clip-path="url(#clip320)" d="M1193.79 1223.43 L1193.79 1239.08 L1189.53 1239.08 L1189.53 1223.57 Q1189.53 1219.89 1188.1 1218.06 Q1186.66 1216.23 1183.79 1216.23 Q1180.34 1216.23 1178.35 1218.43 Q1176.36 1220.63 1176.36 1224.42 L1176.36 1239.08 L1172.08 1239.08 L1172.08 1213.15 L1176.36 1213.15 L1176.36 1217.18 Q1177.89 1214.84 1179.95 1213.68 Q1182.03 1212.52 1184.74 1212.52 Q1189.21 1212.52 1191.5 1215.3 Q1193.79 1218.06 1193.79 1223.43 Z" fill="#000000" fill-rule="evenodd" fill-opacity="1" /><path clip-path="url(#clip320)" d="M1200.14 1224.19 L1212.61 1224.19 L1212.61 1227.99 L1200.14 1227.99 L1200.14 1224.19 Z" fill="#000000" fill-rule="evenodd" fill-opacity="1" /><path clip-path="url(#clip320)" d="M1232.52 1203.06 L1232.52 1206.6 L1228.45 1206.6 Q1226.15 1206.6 1225.25 1207.52 Q1224.37 1208.45 1224.37 1210.86 L1224.37 1213.15 L1231.39 1213.15 L1231.39 1216.46 L1224.37 1216.46 L1224.37 1239.08 L1220.09 1239.08 L1220.09 1216.46 L1216.02 1216.46 L1216.02 1213.15 L1220.09 1213.15 L1220.09 1211.34 Q1220.09 1207.02 1222.1 1205.05 Q1224.12 1203.06 1228.49 1203.06 L1232.52 1203.06 Z" fill="#000000" fill-rule="evenodd" fill-opacity="1" /><path clip-path="url(#clip320)" d="M1236.09 1213.15 L1240.34 1213.15 L1240.34 1239.08 L1236.09 1239.08 L1236.09 1213.15 M1236.09 1203.06 L1240.34 1203.06 L1240.34 1208.45 L1236.09 1208.45 L1236.09 1203.06 Z" fill="#000000" fill-rule="evenodd" fill-opacity="1" /><path clip-path="url(#clip320)" d="M1270.81 1223.43 L1270.81 1239.08 L1266.55 1239.08 L1266.55 1223.57 Q1266.55 1219.89 1265.11 1218.06 Q1263.68 1216.23 1260.81 1216.23 Q1257.36 1216.23 1255.37 1218.43 Q1253.38 1220.63 1253.38 1224.42 L1253.38 1239.08 L1249.09 1239.08 L1249.09 1213.15 L1253.38 1213.15 L1253.38 1217.18 Q1254.9 1214.84 1256.96 1213.68 Q1259.05 1212.52 1261.76 1212.52 Q1266.22 1212.52 1268.52 1215.3 Q1270.81 1218.06 1270.81 1223.43 Z" fill="#000000" fill-rule="evenodd" fill-opacity="1" /><path clip-path="url(#clip320)" d="M1291.09 1226.04 Q1285.92 1226.04 1283.93 1227.22 Q1281.94 1228.4 1281.94 1231.25 Q1281.94 1233.52 1283.42 1234.86 Q1284.93 1236.18 1287.5 1236.18 Q1291.04 1236.18 1293.17 1233.68 Q1295.32 1231.16 1295.32 1226.99 L1295.32 1226.04 L1291.09 1226.04 M1299.58 1224.28 L1299.58 1239.08 L1295.32 1239.08 L1295.32 1235.14 Q1293.86 1237.5 1291.69 1238.64 Q1289.51 1239.75 1286.36 1239.75 Q1282.38 1239.75 1280.02 1237.52 Q1277.68 1235.28 1277.68 1231.53 Q1277.68 1227.15 1280.6 1224.93 Q1283.54 1222.71 1289.35 1222.71 L1295.32 1222.71 L1295.32 1222.29 Q1295.32 1219.35 1293.38 1217.76 Q1291.46 1216.14 1287.96 1216.14 Q1285.74 1216.14 1283.63 1216.67 Q1281.53 1217.2 1279.58 1218.27 L1279.58 1214.33 Q1281.92 1213.43 1284.12 1212.99 Q1286.32 1212.52 1288.4 1212.52 Q1294.02 1212.52 1296.8 1215.44 Q1299.58 1218.36 1299.58 1224.28 Z" fill="#000000" fill-rule="evenodd" fill-opacity="1" /><path clip-path="url(#clip320)" d="M1329.9 1223.43 L1329.9 1239.08 L1325.65 1239.08 L1325.65 1223.57 Q1325.65 1219.89 1324.21 1218.06 Q1322.77 1216.23 1319.9 1216.23 Q1316.46 1216.23 1314.46 1218.43 Q1312.47 1220.63 1312.47 1224.42 L1312.47 1239.08 L1308.19 1239.08 L1308.19 1213.15 L1312.47 1213.15 L1312.47 1217.18 Q1314 1214.84 1316.06 1213.68 Q1318.15 1212.52 1320.85 1212.52 Q1325.32 1212.52 1327.61 1215.3 Q1329.9 1218.06 1329.9 1223.43 Z" fill="#000000" fill-rule="evenodd" fill-opacity="1" /><path clip-path="url(#clip320)" d="M1357.06 1214.14 L1357.06 1218.13 Q1355.25 1217.13 1353.42 1216.64 Q1351.62 1216.14 1349.77 1216.14 Q1345.62 1216.14 1343.33 1218.77 Q1341.04 1221.39 1341.04 1226.14 Q1341.04 1230.88 1343.33 1233.52 Q1345.62 1236.14 1349.77 1236.14 Q1351.62 1236.14 1353.42 1235.65 Q1355.25 1235.14 1357.06 1234.14 L1357.06 1238.08 Q1355.27 1238.91 1353.35 1239.33 Q1351.46 1239.75 1349.3 1239.75 Q1343.45 1239.75 1340 1236.07 Q1336.55 1232.39 1336.55 1226.14 Q1336.55 1219.79 1340.02 1216.16 Q1343.52 1212.52 1349.58 1212.52 Q1351.55 1212.52 1353.42 1212.94 Q1355.3 1213.33 1357.06 1214.14 Z" fill="#000000" fill-rule="evenodd" fill-opacity="1" /><path clip-path="url(#clip320)" d="M1364.46 1213.15 L1368.72 1213.15 L1368.72 1239.08 L1364.46 1239.08 L1364.46 1213.15 M1364.46 1203.06 L1368.72 1203.06 L1368.72 1208.45 L1364.46 1208.45 L1364.46 1203.06 Z" fill="#000000" fill-rule="evenodd" fill-opacity="1" /><path clip-path="url(#clip320)" d="M1389.42 1226.04 Q1384.26 1226.04 1382.27 1227.22 Q1380.27 1228.4 1380.27 1231.25 Q1380.27 1233.52 1381.76 1234.86 Q1383.26 1236.18 1385.83 1236.18 Q1389.37 1236.18 1391.5 1233.68 Q1393.65 1231.16 1393.65 1226.99 L1393.65 1226.04 L1389.42 1226.04 M1397.91 1224.28 L1397.91 1239.08 L1393.65 1239.08 L1393.65 1235.14 Q1392.2 1237.5 1390.02 1238.64 Q1387.84 1239.75 1384.7 1239.75 Q1380.71 1239.75 1378.35 1237.52 Q1376.02 1235.28 1376.02 1231.53 Q1376.02 1227.15 1378.93 1224.93 Q1381.87 1222.71 1387.68 1222.71 L1393.65 1222.71 L1393.65 1222.29 Q1393.65 1219.35 1391.71 1217.76 Q1389.79 1216.14 1386.29 1216.14 Q1384.07 1216.14 1381.96 1216.67 Q1379.86 1217.2 1377.91 1218.27 L1377.91 1214.33 Q1380.25 1213.43 1382.45 1212.99 Q1384.65 1212.52 1386.73 1212.52 Q1392.36 1212.52 1395.14 1215.44 Q1397.91 1218.36 1397.91 1224.28 Z" fill="#000000" fill-rule="evenodd" fill-opacity="1" /><path clip-path="url(#clip320)" d="M1406.69 1203.06 L1410.95 1203.06 L1410.95 1239.08 L1406.69 1239.08 L1406.69 1203.06 Z" fill="#000000" fill-rule="evenodd" fill-opacity="1" /><path clip-path="url(#clip320)" d="M1434.93 1213.15 L1439.19 1213.15 L1439.19 1239.08 L1434.93 1239.08 L1434.93 1213.15 M1434.93 1203.06 L1439.19 1203.06 L1439.19 1208.45 L1434.93 1208.45 L1434.93 1203.06 Z" fill="#000000" fill-rule="evenodd" fill-opacity="1" /><path clip-path="url(#clip320)" d="M1469.65 1223.43 L1469.65 1239.08 L1465.39 1239.08 L1465.39 1223.57 Q1465.39 1219.89 1463.95 1218.06 Q1462.52 1216.23 1459.65 1216.23 Q1456.2 1216.23 1454.21 1218.43 Q1452.22 1220.63 1452.22 1224.42 L1452.22 1239.08 L1447.94 1239.08 L1447.94 1213.15 L1452.22 1213.15 L1452.22 1217.18 Q1453.75 1214.84 1455.81 1213.68 Q1457.89 1212.52 1460.6 1212.52 Q1465.07 1212.52 1467.36 1215.3 Q1469.65 1218.06 1469.65 1223.43 Z" fill="#000000" fill-rule="evenodd" fill-opacity="1" /><path clip-path="url(#clip320)" d="M1496.8 1214.14 L1496.8 1218.13 Q1495 1217.13 1493.17 1216.64 Q1491.36 1216.14 1489.51 1216.14 Q1485.37 1216.14 1483.07 1218.77 Q1480.78 1221.39 1480.78 1226.14 Q1480.78 1230.88 1483.07 1233.52 Q1485.37 1236.14 1489.51 1236.14 Q1491.36 1236.14 1493.17 1235.65 Q1495 1235.14 1496.8 1234.14 L1496.8 1238.08 Q1495.02 1238.91 1493.1 1239.33 Q1491.2 1239.75 1489.05 1239.75 Q1483.19 1239.75 1479.74 1236.07 Q1476.29 1232.39 1476.29 1226.14 Q1476.29 1219.79 1479.76 1216.16 Q1483.26 1212.52 1489.32 1212.52 Q1491.29 1212.52 1493.17 1212.94 Q1495.04 1213.33 1496.8 1214.14 Z" fill="#000000" fill-rule="evenodd" fill-opacity="1" /><path clip-path="url(#clip320)" d="M1514.26 1216.14 Q1510.83 1216.14 1508.84 1218.82 Q1506.85 1221.48 1506.85 1226.14 Q1506.85 1230.79 1508.82 1233.47 Q1510.81 1236.14 1514.26 1236.14 Q1517.66 1236.14 1519.65 1233.45 Q1521.64 1230.77 1521.64 1226.14 Q1521.64 1221.53 1519.65 1218.84 Q1517.66 1216.14 1514.26 1216.14 M1514.26 1212.52 Q1519.81 1212.52 1522.98 1216.14 Q1526.15 1219.75 1526.15 1226.14 Q1526.15 1232.5 1522.98 1236.14 Q1519.81 1239.75 1514.26 1239.75 Q1508.68 1239.75 1505.51 1236.14 Q1502.36 1232.5 1502.36 1226.14 Q1502.36 1219.75 1505.51 1216.14 Q1508.68 1212.52 1514.26 1212.52 Z" fill="#000000" fill-rule="evenodd" fill-opacity="1" /><path clip-path="url(#clip320)" d="M1553.4 1218.13 Q1555 1215.26 1557.22 1213.89 Q1559.44 1212.52 1562.45 1212.52 Q1566.5 1212.52 1568.7 1215.37 Q1570.9 1218.2 1570.9 1223.43 L1570.9 1239.08 L1566.62 1239.08 L1566.62 1223.57 Q1566.62 1219.84 1565.3 1218.03 Q1563.98 1216.23 1561.27 1216.23 Q1557.96 1216.23 1556.04 1218.43 Q1554.12 1220.63 1554.12 1224.42 L1554.12 1239.08 L1549.83 1239.08 L1549.83 1223.57 Q1549.83 1219.82 1548.51 1218.03 Q1547.19 1216.23 1544.44 1216.23 Q1541.18 1216.23 1539.26 1218.45 Q1537.33 1220.65 1537.33 1224.42 L1537.33 1239.08 L1533.05 1239.08 L1533.05 1213.15 L1537.33 1213.15 L1537.33 1217.18 Q1538.79 1214.79 1540.83 1213.66 Q1542.87 1212.52 1545.67 1212.52 Q1548.49 1212.52 1550.46 1213.96 Q1552.45 1215.39 1553.4 1218.13 Z" fill="#000000" fill-rule="evenodd" fill-opacity="1" /><path clip-path="url(#clip320)" d="M1601.57 1225.05 L1601.57 1227.13 L1581.99 1227.13 Q1582.26 1231.53 1584.63 1233.84 Q1587.01 1236.14 1591.25 1236.14 Q1593.7 1236.14 1595.99 1235.53 Q1598.31 1234.93 1600.57 1233.73 L1600.57 1237.76 Q1598.28 1238.73 1595.88 1239.24 Q1593.47 1239.75 1590.99 1239.75 Q1584.79 1239.75 1581.15 1236.14 Q1577.54 1232.52 1577.54 1226.37 Q1577.54 1220 1580.97 1216.27 Q1584.42 1212.52 1590.25 1212.52 Q1595.48 1212.52 1598.51 1215.9 Q1601.57 1219.26 1601.57 1225.05 M1597.31 1223.8 Q1597.26 1220.3 1595.34 1218.22 Q1593.44 1216.14 1590.3 1216.14 Q1586.73 1216.14 1584.58 1218.15 Q1582.45 1220.16 1582.13 1223.82 L1597.31 1223.8 Z" fill="#000000" fill-rule="evenodd" fill-opacity="1" /><polyline clip-path="url(#clip320)" style="stroke:#000000; stroke-linecap:round; stroke-linejoin:round; stroke-width:4; stroke-opacity:1; fill:none" points="
  945.122,1273.64 1089.04,1273.64 
  "/>
<path clip-path="url(#clip320)" d="M1133.54 1265.98 L1133.54 1269.97 Q1131.73 1268.97 1129.91 1268.48 Q1128.1 1267.98 1126.25 1267.98 Q1122.1 1267.98 1119.81 1270.61 Q1117.52 1273.23 1117.52 1277.98 Q1117.52 1282.72 1119.81 1285.36 Q1122.1 1287.98 1126.25 1287.98 Q1128.1 1287.98 1129.91 1287.49 Q1131.73 1286.98 1133.54 1285.98 L1133.54 1289.92 Q1131.76 1290.75 1129.84 1291.17 Q1127.94 1291.59 1125.79 1291.59 Q1119.93 1291.59 1116.48 1287.91 Q1113.03 1284.23 1113.03 1277.98 Q1113.03 1271.63 1116.5 1268 Q1120 1264.36 1126.06 1264.36 Q1128.03 1264.36 1129.91 1264.78 Q1131.78 1265.17 1133.54 1265.98 Z" fill="#000000" fill-rule="evenodd" fill-opacity="1" /><path clip-path="url(#clip320)" d="M1150.99 1267.98 Q1147.57 1267.98 1145.58 1270.66 Q1143.59 1273.32 1143.59 1277.98 Q1143.59 1282.63 1145.55 1285.31 Q1147.54 1287.98 1150.99 1287.98 Q1154.4 1287.98 1156.39 1285.29 Q1158.38 1282.61 1158.38 1277.98 Q1158.38 1273.37 1156.39 1270.68 Q1154.4 1267.98 1150.99 1267.98 M1150.99 1264.36 Q1156.55 1264.36 1159.72 1267.98 Q1162.89 1271.59 1162.89 1277.98 Q1162.89 1284.34 1159.72 1287.98 Q1156.55 1291.59 1150.99 1291.59 Q1145.41 1291.59 1142.24 1287.98 Q1139.1 1284.34 1139.1 1277.98 Q1139.1 1271.59 1142.24 1267.98 Q1145.41 1264.36 1150.99 1264.36 Z" fill="#000000" fill-rule="evenodd" fill-opacity="1" /><path clip-path="url(#clip320)" d="M1191.5 1275.27 L1191.5 1290.92 L1187.24 1290.92 L1187.24 1275.41 Q1187.24 1271.73 1185.81 1269.9 Q1184.37 1268.07 1181.5 1268.07 Q1178.05 1268.07 1176.06 1270.27 Q1174.07 1272.47 1174.07 1276.26 L1174.07 1290.92 L1169.79 1290.92 L1169.79 1264.99 L1174.07 1264.99 L1174.07 1269.02 Q1175.6 1266.68 1177.66 1265.52 Q1179.74 1264.36 1182.45 1264.36 Q1186.92 1264.36 1189.21 1267.14 Q1191.5 1269.9 1191.5 1275.27 Z" fill="#000000" fill-rule="evenodd" fill-opacity="1" /><path clip-path="url(#clip320)" d="M1216.53 1265.75 L1216.53 1269.78 Q1214.72 1268.86 1212.78 1268.39 Q1210.83 1267.93 1208.75 1267.93 Q1205.58 1267.93 1203.98 1268.9 Q1202.41 1269.87 1202.41 1271.82 Q1202.41 1273.3 1203.54 1274.16 Q1204.67 1274.99 1208.1 1275.75 L1209.56 1276.08 Q1214.09 1277.05 1215.99 1278.83 Q1217.91 1280.59 1217.91 1283.76 Q1217.91 1287.37 1215.04 1289.48 Q1212.2 1291.59 1207.2 1291.59 Q1205.11 1291.59 1202.84 1291.17 Q1200.6 1290.78 1198.1 1289.97 L1198.1 1285.57 Q1200.46 1286.79 1202.75 1287.42 Q1205.04 1288.02 1207.29 1288.02 Q1210.3 1288.02 1211.92 1287 Q1213.54 1285.96 1213.54 1284.09 Q1213.54 1282.35 1212.36 1281.42 Q1211.2 1280.5 1207.24 1279.64 L1205.76 1279.3 Q1201.8 1278.46 1200.04 1276.75 Q1198.28 1275.01 1198.28 1272 Q1198.28 1268.35 1200.88 1266.36 Q1203.47 1264.36 1208.24 1264.36 Q1210.6 1264.36 1212.68 1264.71 Q1214.77 1265.06 1216.53 1265.75 Z" fill="#000000" fill-rule="evenodd" fill-opacity="1" /><path clip-path="url(#clip320)" d="M1224.26 1280.68 L1224.26 1264.99 L1228.52 1264.99 L1228.52 1280.52 Q1228.52 1284.2 1229.95 1286.05 Q1231.39 1287.88 1234.26 1287.88 Q1237.71 1287.88 1239.7 1285.68 Q1241.71 1283.48 1241.71 1279.69 L1241.71 1264.99 L1245.97 1264.99 L1245.97 1290.92 L1241.71 1290.92 L1241.71 1286.93 Q1240.16 1289.29 1238.1 1290.45 Q1236.06 1291.59 1233.35 1291.59 Q1228.89 1291.59 1226.57 1288.81 Q1224.26 1286.03 1224.26 1280.68 M1234.97 1264.36 L1234.97 1264.36 Z" fill="#000000" fill-rule="evenodd" fill-opacity="1" /><path clip-path="url(#clip320)" d="M1274.93 1269.97 Q1276.53 1267.1 1278.75 1265.73 Q1280.97 1264.36 1283.98 1264.36 Q1288.03 1264.36 1290.23 1267.21 Q1292.43 1270.04 1292.43 1275.27 L1292.43 1290.92 L1288.15 1290.92 L1288.15 1275.41 Q1288.15 1271.68 1286.83 1269.87 Q1285.51 1268.07 1282.8 1268.07 Q1279.49 1268.07 1277.57 1270.27 Q1275.65 1272.47 1275.65 1276.26 L1275.65 1290.92 L1271.36 1290.92 L1271.36 1275.41 Q1271.36 1271.66 1270.04 1269.87 Q1268.72 1268.07 1265.97 1268.07 Q1262.71 1268.07 1260.78 1270.29 Q1258.86 1272.49 1258.86 1276.26 L1258.86 1290.92 L1254.58 1290.92 L1254.58 1264.99 L1258.86 1264.99 L1258.86 1269.02 Q1260.32 1266.63 1262.36 1265.5 Q1264.4 1264.36 1267.2 1264.36 Q1270.02 1264.36 1271.99 1265.8 Q1273.98 1267.23 1274.93 1269.97 Z" fill="#000000" fill-rule="evenodd" fill-opacity="1" /><path clip-path="url(#clip320)" d="M1305.04 1287.03 L1305.04 1300.78 L1300.76 1300.78 L1300.76 1264.99 L1305.04 1264.99 L1305.04 1268.92 Q1306.39 1266.61 1308.42 1265.5 Q1310.48 1264.36 1313.33 1264.36 Q1318.05 1264.36 1320.99 1268.11 Q1323.96 1271.86 1323.96 1277.98 Q1323.96 1284.09 1320.99 1287.84 Q1318.05 1291.59 1313.33 1291.59 Q1310.48 1291.59 1308.42 1290.48 Q1306.39 1289.34 1305.04 1287.03 M1319.53 1277.98 Q1319.53 1273.28 1317.59 1270.61 Q1315.67 1267.93 1312.29 1267.93 Q1308.91 1267.93 1306.96 1270.61 Q1305.04 1273.28 1305.04 1277.98 Q1305.04 1282.67 1306.96 1285.36 Q1308.91 1288.02 1312.29 1288.02 Q1315.67 1288.02 1317.59 1285.36 Q1319.53 1282.67 1319.53 1277.98 Z" fill="#000000" fill-rule="evenodd" fill-opacity="1" /><path clip-path="url(#clip320)" d="M1335.23 1257.63 L1335.23 1264.99 L1344 1264.99 L1344 1268.3 L1335.23 1268.3 L1335.23 1282.37 Q1335.23 1285.54 1336.08 1286.45 Q1336.96 1287.35 1339.63 1287.35 L1344 1287.35 L1344 1290.92 L1339.63 1290.92 Q1334.7 1290.92 1332.82 1289.09 Q1330.95 1287.23 1330.95 1282.37 L1330.95 1268.3 L1327.82 1268.3 L1327.82 1264.99 L1330.95 1264.99 L1330.95 1257.63 L1335.23 1257.63 Z" fill="#000000" fill-rule="evenodd" fill-opacity="1" /><path clip-path="url(#clip320)" d="M1349.6 1264.99 L1353.86 1264.99 L1353.86 1290.92 L1349.6 1290.92 L1349.6 1264.99 M1349.6 1254.9 L1353.86 1254.9 L1353.86 1260.29 L1349.6 1260.29 L1349.6 1254.9 Z" fill="#000000" fill-rule="evenodd" fill-opacity="1" /><path clip-path="url(#clip320)" d="M1372.82 1267.98 Q1369.39 1267.98 1367.4 1270.66 Q1365.41 1273.32 1365.41 1277.98 Q1365.41 1282.63 1367.38 1285.31 Q1369.37 1287.98 1372.82 1287.98 Q1376.22 1287.98 1378.21 1285.29 Q1380.21 1282.61 1380.21 1277.98 Q1380.21 1273.37 1378.21 1270.68 Q1376.22 1267.98 1372.82 1267.98 M1372.82 1264.36 Q1378.38 1264.36 1381.55 1267.98 Q1384.72 1271.59 1384.72 1277.98 Q1384.72 1284.34 1381.55 1287.98 Q1378.38 1291.59 1372.82 1291.59 Q1367.24 1291.59 1364.07 1287.98 Q1360.92 1284.34 1360.92 1277.98 Q1360.92 1271.59 1364.07 1267.98 Q1367.24 1264.36 1372.82 1264.36 Z" fill="#000000" fill-rule="evenodd" fill-opacity="1" /><path clip-path="url(#clip320)" d="M1413.33 1275.27 L1413.33 1290.92 L1409.07 1290.92 L1409.07 1275.41 Q1409.07 1271.73 1407.64 1269.9 Q1406.2 1268.07 1403.33 1268.07 Q1399.88 1268.07 1397.89 1270.27 Q1395.9 1272.47 1395.9 1276.26 L1395.9 1290.92 L1391.62 1290.92 L1391.62 1264.99 L1395.9 1264.99 L1395.9 1269.02 Q1397.43 1266.68 1399.49 1265.52 Q1401.57 1264.36 1404.28 1264.36 Q1408.75 1264.36 1411.04 1267.14 Q1413.33 1269.9 1413.33 1275.27 Z" fill="#000000" fill-rule="evenodd" fill-opacity="1" /><polyline clip-path="url(#clip320)" style="stroke:#0000ff; stroke-linecap:round; stroke-linejoin:round; stroke-width:4; stroke-opacity:1; fill:none" points="
  945.122,1325.48 1089.04,1325.48 
  "/>
<path clip-path="url(#clip320)" d="M1131.94 1320.76 L1131.94 1306.74 L1136.2 1306.74 L1136.2 1342.76 L1131.94 1342.76 L1131.94 1338.87 Q1130.6 1341.18 1128.54 1342.32 Q1126.5 1343.43 1123.63 1343.43 Q1118.93 1343.43 1115.97 1339.68 Q1113.03 1335.93 1113.03 1329.82 Q1113.03 1323.7 1115.97 1319.95 Q1118.93 1316.2 1123.63 1316.2 Q1126.5 1316.2 1128.54 1317.34 Q1130.6 1318.45 1131.94 1320.76 M1117.43 1329.82 Q1117.43 1334.51 1119.35 1337.2 Q1121.29 1339.86 1124.67 1339.86 Q1128.05 1339.86 1130 1337.2 Q1131.94 1334.51 1131.94 1329.82 Q1131.94 1325.12 1130 1322.45 Q1128.05 1319.77 1124.67 1319.77 Q1121.29 1319.77 1119.35 1322.45 Q1117.43 1325.12 1117.43 1329.82 Z" fill="#000000" fill-rule="evenodd" fill-opacity="1" /><path clip-path="url(#clip320)" d="M1167.15 1328.73 L1167.15 1330.81 L1147.57 1330.81 Q1147.85 1335.21 1150.21 1337.52 Q1152.59 1339.82 1156.83 1339.82 Q1159.28 1339.82 1161.57 1339.21 Q1163.89 1338.61 1166.16 1337.41 L1166.16 1341.44 Q1163.86 1342.41 1161.46 1342.92 Q1159.05 1343.43 1156.57 1343.43 Q1150.37 1343.43 1146.73 1339.82 Q1143.12 1336.2 1143.12 1330.05 Q1143.12 1323.68 1146.55 1319.95 Q1150 1316.2 1155.83 1316.2 Q1161.06 1316.2 1164.1 1319.58 Q1167.15 1322.94 1167.15 1328.73 M1162.89 1327.48 Q1162.85 1323.98 1160.92 1321.9 Q1159.03 1319.82 1155.88 1319.82 Q1152.31 1319.82 1150.16 1321.83 Q1148.03 1323.84 1147.71 1327.5 L1162.89 1327.48 Z" fill="#000000" fill-rule="evenodd" fill-opacity="1" /><path clip-path="url(#clip320)" d="M1192.75 1329.82 Q1192.75 1325.12 1190.81 1322.45 Q1188.89 1319.77 1185.51 1319.77 Q1182.13 1319.77 1180.18 1322.45 Q1178.26 1325.12 1178.26 1329.82 Q1178.26 1334.51 1180.18 1337.2 Q1182.13 1339.86 1185.51 1339.86 Q1188.89 1339.86 1190.81 1337.2 Q1192.75 1334.51 1192.75 1329.82 M1178.26 1320.76 Q1179.6 1318.45 1181.64 1317.34 Q1183.7 1316.2 1186.55 1316.2 Q1191.27 1316.2 1194.21 1319.95 Q1197.17 1323.7 1197.17 1329.82 Q1197.17 1335.93 1194.21 1339.68 Q1191.27 1343.43 1186.55 1343.43 Q1183.7 1343.43 1181.64 1342.32 Q1179.6 1341.18 1178.26 1338.87 L1178.26 1342.76 L1173.98 1342.76 L1173.98 1306.74 L1178.26 1306.74 L1178.26 1320.76 Z" fill="#000000" fill-rule="evenodd" fill-opacity="1" /><path clip-path="url(#clip320)" d="M1208.45 1309.47 L1208.45 1316.83 L1217.22 1316.83 L1217.22 1320.14 L1208.45 1320.14 L1208.45 1334.21 Q1208.45 1337.38 1209.3 1338.29 Q1210.18 1339.19 1212.84 1339.19 L1217.22 1339.19 L1217.22 1342.76 L1212.84 1342.76 Q1207.91 1342.76 1206.04 1340.93 Q1204.16 1339.07 1204.16 1334.21 L1204.16 1320.14 L1201.04 1320.14 L1201.04 1316.83 L1204.16 1316.83 L1204.16 1309.47 L1208.45 1309.47 Z" fill="#000000" fill-rule="evenodd" fill-opacity="1" /></svg>
