<?xml version="1.0" encoding="utf-8"?>
<svg xmlns="http://www.w3.org/2000/svg" xmlns:xlink="http://www.w3.org/1999/xlink" width="600" height="400" viewBox="0 0 2400 1600">
<defs>
  <clipPath id="clip550">
    <rect x="0" y="0" width="2400" height="1600"/>
  </clipPath>
</defs>
<path clip-path="url(#clip550)" d="
M0 1600 L2400 1600 L2400 0 L0 0  Z
  " fill="#ffffff" fill-rule="evenodd" fill-opacity="1"/>
<defs>
  <clipPath id="clip551">
    <rect x="480" y="0" width="1681" height="1600"/>
  </clipPath>
</defs>
<path clip-path="url(#clip550)" d="
M112.177 1486.45 L2352.76 1486.45 L2352.76 47.2441 L112.177 47.2441  Z
  " fill="#ffffff" fill-rule="evenodd" fill-opacity="1"/>
<defs>
  <clipPath id="clip552">
    <rect x="112" y="47" width="2242" height="1440"/>
  </clipPath>
</defs>
<polyline clip-path="url(#clip552)" style="stroke:#000000; stroke-linecap:round; stroke-linejoin:round; stroke-width:2; stroke-opacity:0.1; fill:none" points="
  112.177,1486.45 112.177,47.2441 
  "/>
<polyline clip-path="url(#clip552)" style="stroke:#000000; stroke-linecap:round; stroke-linejoin:round; stroke-width:2; stroke-opacity:0.1; fill:none" points="
  672.322,1486.45 672.322,47.2441 
  "/>
<polyline clip-path="url(#clip552)" style="stroke:#000000; stroke-linecap:round; stroke-linejoin:round; stroke-width:2; stroke-opacity:0.1; fill:none" points="
  1232.47,1486.45 1232.47,47.2441 
  "/>
<polyline clip-path="url(#clip552)" style="stroke:#000000; stroke-linecap:round; stroke-linejoin:round; stroke-width:2; stroke-opacity:0.1; fill:none" points="
  1792.61,1486.45 1792.61,47.2441 
  "/>
<polyline clip-path="url(#clip552)" style="stroke:#000000; stroke-linecap:round; stroke-linejoin:round; stroke-width:2; stroke-opacity:0.1; fill:none" points="
  2352.76,1486.45 2352.76,47.2441 
  "/>
<polyline clip-path="url(#clip550)" style="stroke:#000000; stroke-linecap:round; stroke-linejoin:round; stroke-width:4; stroke-opacity:1; fill:none" points="
  112.177,1486.45 2352.76,1486.45 
  "/>
<polyline clip-path="url(#clip550)" style="stroke:#000000; stroke-linecap:round; stroke-linejoin:round; stroke-width:4; stroke-opacity:1; fill:none" points="
  112.177,1486.45 112.177,1467.55 
  "/>
<polyline clip-path="url(#clip550)" style="stroke:#000000; stroke-linecap:round; stroke-linejoin:round; stroke-width:4; stroke-opacity:1; fill:none" points="
  672.322,1486.45 672.322,1467.55 
  "/>
<polyline clip-path="url(#clip550)" style="stroke:#000000; stroke-linecap:round; stroke-linejoin:round; stroke-width:4; stroke-opacity:1; fill:none" points="
  1232.47,1486.45 1232.47,1467.55 
  "/>
<polyline clip-path="url(#clip550)" style="stroke:#000000; stroke-linecap:round; stroke-linejoin:round; stroke-width:4; stroke-opacity:1; fill:none" points="
  1792.61,1486.45 1792.61,1467.55 
  "/>
<polyline clip-path="url(#clip550)" style="stroke:#000000; stroke-linecap:round; stroke-linejoin:round; stroke-width:4; stroke-opacity:1; fill:none" points="
  2352.76,1486.45 2352.76,1467.55 
  "/>
<path clip-path="url(#clip550)" d="M112.177 1517.37 Q108.566 1517.37 106.737 1520.93 Q104.932 1524.47 104.932 1531.6 Q104.932 1538.71 106.737 1542.27 Q108.566 1545.82 112.177 1545.82 Q115.811 1545.82 117.617 1542.27 Q119.446 1538.71 119.446 1531.6 Q119.446 1524.47 117.617 1520.93 Q115.811 1517.37 112.177 1517.37 M112.177 1513.66 Q117.987 1513.66 121.043 1518.27 Q124.122 1522.85 124.122 1531.6 Q124.122 1540.33 121.043 1544.94 Q117.987 1549.52 112.177 1549.52 Q106.367 1549.52 103.288 1544.94 Q100.233 1540.33 100.233 1531.6 Q100.233 1522.85 103.288 1518.27 Q106.367 1513.66 112.177 1513.66 Z" fill="#000000" fill-rule="evenodd" fill-opacity="1" /><path clip-path="url(#clip550)" d="M662.704 1544.91 L670.343 1544.91 L670.343 1518.55 L662.033 1520.21 L662.033 1515.95 L670.296 1514.29 L674.972 1514.29 L674.972 1544.91 L682.611 1544.91 L682.611 1548.85 L662.704 1548.85 L662.704 1544.91 Z" fill="#000000" fill-rule="evenodd" fill-opacity="1" /><path clip-path="url(#clip550)" d="M1227.12 1544.91 L1243.44 1544.91 L1243.44 1548.85 L1221.49 1548.85 L1221.49 1544.91 Q1224.16 1542.16 1228.74 1537.53 Q1233.35 1532.88 1234.53 1531.53 Q1236.77 1529.01 1237.65 1527.27 Q1238.55 1525.51 1238.55 1523.82 Q1238.55 1521.07 1236.61 1519.33 Q1234.69 1517.6 1231.59 1517.6 Q1229.39 1517.6 1226.93 1518.36 Q1224.5 1519.13 1221.73 1520.68 L1221.73 1515.95 Q1224.55 1514.82 1227 1514.24 Q1229.46 1513.66 1231.49 1513.66 Q1236.86 1513.66 1240.06 1516.35 Q1243.25 1519.03 1243.25 1523.52 Q1243.25 1525.65 1242.44 1527.57 Q1241.66 1529.47 1239.55 1532.07 Q1238.97 1532.74 1235.87 1535.95 Q1232.77 1539.15 1227.12 1544.91 Z" fill="#000000" fill-rule="evenodd" fill-opacity="1" /><path clip-path="url(#clip550)" d="M1796.86 1530.21 Q1800.22 1530.93 1802.09 1533.2 Q1803.99 1535.47 1803.99 1538.8 Q1803.99 1543.92 1800.47 1546.72 Q1796.95 1549.52 1790.47 1549.52 Q1788.29 1549.52 1785.98 1549.08 Q1783.69 1548.66 1781.23 1547.81 L1781.23 1543.29 Q1783.18 1544.43 1785.49 1545.01 Q1787.81 1545.58 1790.33 1545.58 Q1794.73 1545.58 1797.02 1543.85 Q1799.34 1542.11 1799.34 1538.8 Q1799.34 1535.75 1797.18 1534.03 Q1795.05 1532.3 1791.23 1532.3 L1787.21 1532.3 L1787.21 1528.45 L1791.42 1528.45 Q1794.87 1528.45 1796.7 1527.09 Q1798.53 1525.7 1798.53 1523.11 Q1798.53 1520.45 1796.63 1519.03 Q1794.75 1517.6 1791.23 1517.6 Q1789.31 1517.6 1787.11 1518.01 Q1784.91 1518.43 1782.28 1519.31 L1782.28 1515.14 Q1784.94 1514.4 1787.25 1514.03 Q1789.59 1513.66 1791.65 1513.66 Q1796.97 1513.66 1800.08 1516.09 Q1803.18 1518.5 1803.18 1522.62 Q1803.18 1525.49 1801.53 1527.48 Q1799.89 1529.45 1796.86 1530.21 Z" fill="#000000" fill-rule="evenodd" fill-opacity="1" /><path clip-path="url(#clip550)" d="M2355.77 1518.36 L2343.96 1536.81 L2355.77 1536.81 L2355.77 1518.36 M2354.54 1514.29 L2360.42 1514.29 L2360.42 1536.81 L2365.35 1536.81 L2365.35 1540.7 L2360.42 1540.7 L2360.42 1548.85 L2355.77 1548.85 L2355.77 1540.7 L2340.16 1540.7 L2340.16 1536.19 L2354.54 1514.29 Z" fill="#000000" fill-rule="evenodd" fill-opacity="1" /><polyline clip-path="url(#clip552)" style="stroke:#000000; stroke-linecap:round; stroke-linejoin:round; stroke-width:2; stroke-opacity:0.1; fill:none" points="
  112.177,1486.45 2352.76,1486.45 
  "/>
<polyline clip-path="url(#clip552)" style="stroke:#000000; stroke-linecap:round; stroke-linejoin:round; stroke-width:2; stroke-opacity:0.1; fill:none" points="
  112.177,1126.65 2352.76,1126.65 
  "/>
<polyline clip-path="url(#clip552)" style="stroke:#000000; stroke-linecap:round; stroke-linejoin:round; stroke-width:2; stroke-opacity:0.1; fill:none" points="
  112.177,766.846 2352.76,766.846 
  "/>
<polyline clip-path="url(#clip552)" style="stroke:#000000; stroke-linecap:round; stroke-linejoin:round; stroke-width:2; stroke-opacity:0.1; fill:none" points="
  112.177,407.045 2352.76,407.045 
  "/>
<polyline clip-path="url(#clip552)" style="stroke:#000000; stroke-linecap:round; stroke-linejoin:round; stroke-width:2; stroke-opacity:0.1; fill:none" points="
  112.177,47.2441 2352.76,47.2441 
  "/>
<polyline clip-path="url(#clip550)" style="stroke:#000000; stroke-linecap:round; stroke-linejoin:round; stroke-width:4; stroke-opacity:1; fill:none" points="
  112.177,1486.45 112.177,47.2441 
  "/>
<polyline clip-path="url(#clip550)" style="stroke:#000000; stroke-linecap:round; stroke-linejoin:round; stroke-width:4; stroke-opacity:1; fill:none" points="
  112.177,1486.45 131.075,1486.45 
  "/>
<polyline clip-path="url(#clip550)" style="stroke:#000000; stroke-linecap:round; stroke-linejoin:round; stroke-width:4; stroke-opacity:1; fill:none" points="
  112.177,1126.65 131.075,1126.65 
  "/>
<polyline clip-path="url(#clip550)" style="stroke:#000000; stroke-linecap:round; stroke-linejoin:round; stroke-width:4; stroke-opacity:1; fill:none" points="
  112.177,766.846 131.075,766.846 
  "/>
<polyline clip-path="url(#clip550)" style="stroke:#000000; stroke-linecap:round; stroke-linejoin:round; stroke-width:4; stroke-opacity:1; fill:none" points="
  112.177,407.045 131.075,407.045 
  "/>
<polyline clip-path="url(#clip550)" style="stroke:#000000; stroke-linecap:round; stroke-linejoin:round; stroke-width:4; stroke-opacity:1; fill:none" points="
  112.177,47.2441 131.075,47.2441 
  "/>
<path clip-path="url(#clip550)" d="M64.2328 1472.25 Q60.6217 1472.25 58.793 1475.81 Q56.9875 1479.35 56.9875 1486.48 Q56.9875 1493.59 58.793 1497.15 Q60.6217 1500.7 64.2328 1500.7 Q67.867 1500.7 69.6726 1497.15 Q71.5013 1493.59 71.5013 1486.48 Q71.5013 1479.35 69.6726 1475.81 Q67.867 1472.25 64.2328 1472.25 M64.2328 1468.54 Q70.0429 1468.54 73.0985 1473.15 Q76.1772 1477.73 76.1772 1486.48 Q76.1772 1495.21 73.0985 1499.82 Q70.0429 1504.4 64.2328 1504.4 Q58.4226 1504.4 55.344 1499.82 Q52.2884 1495.21 52.2884 1486.48 Q52.2884 1477.73 55.344 1473.15 Q58.4226 1468.54 64.2328 1468.54 Z" fill="#000000" fill-rule="evenodd" fill-opacity="1" /><path clip-path="url(#clip550)" d="M56.2699 1139.99 L63.9087 1139.99 L63.9087 1113.63 L55.5986 1115.29 L55.5986 1111.03 L63.8624 1109.37 L68.5383 1109.37 L68.5383 1139.99 L76.1772 1139.99 L76.1772 1143.93 L56.2699 1143.93 L56.2699 1139.99 Z" fill="#000000" fill-rule="evenodd" fill-opacity="1" /><path clip-path="url(#clip550)" d="M59.8578 780.191 L76.1772 780.191 L76.1772 784.126 L54.2328 784.126 L54.2328 780.191 Q56.8949 777.436 61.4782 772.807 Q66.0846 768.154 67.2652 766.811 Q69.5105 764.288 70.3902 762.552 Q71.2929 760.793 71.2929 759.103 Q71.2929 756.348 69.3485 754.612 Q67.4272 752.876 64.3254 752.876 Q62.1263 752.876 59.6726 753.64 Q57.2421 754.404 54.4643 755.955 L54.4643 751.233 Q57.2884 750.098 59.7421 749.52 Q62.1958 748.941 64.2328 748.941 Q69.6031 748.941 72.7976 751.626 Q75.992 754.311 75.992 758.802 Q75.992 760.932 75.1818 762.853 Q74.3948 764.751 72.2883 767.344 Q71.7096 768.015 68.6078 771.233 Q65.5059 774.427 59.8578 780.191 Z" fill="#000000" fill-rule="evenodd" fill-opacity="1" /><path clip-path="url(#clip550)" d="M69.0476 405.691 Q72.404 406.408 74.279 408.677 Q76.1772 410.945 76.1772 414.279 Q76.1772 419.395 72.6587 422.195 Q69.1402 424.996 62.6587 424.996 Q60.4828 424.996 58.168 424.557 Q55.8764 424.14 53.4227 423.283 L53.4227 418.77 Q55.3671 419.904 57.6819 420.482 Q59.9967 421.061 62.5198 421.061 Q66.918 421.061 69.2096 419.325 Q71.5244 417.589 71.5244 414.279 Q71.5244 411.223 69.3717 409.51 Q67.242 407.774 63.4226 407.774 L59.3949 407.774 L59.3949 403.932 L63.6078 403.932 Q67.0569 403.932 68.8855 402.566 Q70.7142 401.177 70.7142 398.584 Q70.7142 395.922 68.8161 394.51 Q66.9411 393.075 63.4226 393.075 Q61.5013 393.075 59.3023 393.492 Q57.1032 393.909 54.4643 394.788 L54.4643 390.622 Q57.1264 389.881 59.4412 389.51 Q61.7791 389.14 63.8393 389.14 Q69.1633 389.14 72.2652 391.571 Q75.367 393.978 75.367 398.098 Q75.367 400.969 73.7235 402.959 Q72.08 404.927 69.0476 405.691 Z" fill="#000000" fill-rule="evenodd" fill-opacity="1" /><path clip-path="url(#clip550)" d="M66.5939 34.0381 L54.7884 52.4871 L66.5939 52.4871 L66.5939 34.0381 M65.367 29.9641 L71.2466 29.9641 L71.2466 52.4871 L76.1772 52.4871 L76.1772 56.376 L71.2466 56.376 L71.2466 64.5241 L66.5939 64.5241 L66.5939 56.376 L50.9921 56.376 L50.9921 51.8621 L65.367 29.9641 Z" fill="#000000" fill-rule="evenodd" fill-opacity="1" /><polyline clip-path="url(#clip552)" style="stroke:#000000; stroke-linecap:round; stroke-linejoin:round; stroke-width:8; stroke-opacity:1; fill:none" points="
  112.177,1486.45 123.436,1479.22 134.696,1471.98 145.955,1464.75 157.214,1457.52 168.473,1450.29 179.732,1443.05 190.992,1435.82 202.251,1428.59 213.51,1421.36 
  224.769,1414.13 236.028,1406.89 247.287,1399.66 258.547,1392.43 269.806,1385.2 281.065,1377.97 292.324,1370.73 303.583,1363.5 314.843,1356.27 326.102,1349.04 
  337.361,1341.8 348.62,1334.57 359.879,1327.34 371.139,1320.11 382.398,1312.88 393.657,1305.64 404.916,1298.41 416.175,1291.18 427.434,1283.95 438.694,1276.71 
  449.953,1269.48 461.212,1262.25 472.471,1255.02 483.73,1247.79 494.99,1240.55 506.249,1233.32 517.508,1226.09 528.767,1218.86 540.026,1211.63 551.286,1204.39 
  562.545,1197.16 573.804,1189.93 585.063,1182.7 596.322,1175.46 607.582,1168.23 618.841,1161 630.1,1153.77 641.359,1146.54 652.618,1139.3 663.877,1132.07 
  675.137,1124.84 686.396,1117.61 697.655,1110.37 708.914,1103.14 720.173,1095.91 731.433,1088.68 742.692,1081.45 753.951,1074.21 765.21,1066.98 776.469,1059.75 
  787.729,1052.52 798.988,1045.28 810.247,1038.05 821.506,1030.82 832.765,1023.59 844.024,1016.36 855.284,1009.12 866.543,1001.89 877.802,994.66 889.061,987.427 
  900.32,980.195 911.58,972.963 922.839,965.731 934.098,958.499 945.357,951.267 956.616,944.034 967.876,936.802 979.135,929.57 990.394,922.338 1001.65,915.106 
  1012.91,907.873 1024.17,900.641 1035.43,893.409 1046.69,886.177 1057.95,878.945 1069.21,871.713 1080.47,864.48 1091.73,857.248 1102.99,850.016 1114.25,842.784 
  1125.5,835.552 1136.76,828.32 1148.02,821.087 1159.28,813.855 1170.54,806.623 1181.8,799.391 1193.06,792.159 1204.32,784.926 1215.58,777.694 1226.84,770.462 
  1238.1,763.23 1249.36,755.998 1260.61,748.766 1271.87,741.533 1283.13,734.301 1294.39,727.069 1305.65,719.837 1316.91,712.605 1328.17,705.372 1339.43,698.14 
  1350.69,690.908 1361.95,683.676 1373.21,676.444 1384.47,669.212 1395.72,661.979 1406.98,654.747 1418.24,647.515 1429.5,640.283 1440.76,633.051 1452.02,625.818 
  1463.28,618.586 1474.54,611.354 1485.8,604.122 1497.06,596.89 1508.32,589.658 1519.58,582.425 1530.84,575.193 1542.09,567.961 1553.35,560.729 1564.61,553.497 
  1575.87,546.265 1587.13,539.032 1598.39,531.8 1609.65,524.568 1620.91,517.336 1632.17,510.104 1643.43,502.871 1654.69,495.639 1665.95,488.407 1677.2,481.175 
  1688.46,473.943 1699.72,466.711 1710.98,459.478 1722.24,452.246 1733.5,445.014 1744.76,437.782 1756.02,430.55 1767.28,423.317 1778.54,416.085 1789.8,408.853 
  1801.06,401.621 1812.31,394.389 1823.57,387.157 1834.83,379.924 1846.09,372.692 1857.35,365.46 1868.61,358.228 1879.87,350.996 1891.13,343.763 1902.39,336.531 
  1913.65,329.299 1924.91,322.067 1936.17,314.835 1947.43,307.603 1958.68,300.37 1969.94,293.138 1981.2,285.906 1992.46,278.674 2003.72,271.442 2014.98,264.209 
  2026.24,256.977 2037.5,249.745 2048.76,242.513 2060.02,235.281 2071.28,228.049 2082.54,220.816 2093.79,213.584 2105.05,206.352 2116.31,199.12 2127.57,191.888 
  2138.83,184.656 2150.09,177.423 2161.35,170.191 2172.61,162.959 2183.87,155.727 2195.13,148.495 2206.39,141.262 2217.65,134.03 2228.9,126.798 2240.16,119.566 
  2251.42,112.334 2262.68,105.102 2273.94,97.8694 2285.2,90.6372 2296.46,83.405 2307.72,76.1728 2318.98,68.9406 2330.24,61.7085 2341.5,54.4763 2352.76,47.2441 
  
  "/>
<polyline clip-path="url(#clip552)" style="stroke:#0000ff; stroke-linecap:round; stroke-linejoin:round; stroke-width:8; stroke-opacity:1; fill:none" points="
  112.177,1486.45 123.436,1415.25 134.696,1395.45 145.955,1380.47 157.214,1367.75 168.473,1356.39 179.732,1345.96 190.992,1336.2 202.251,1326.97 213.51,1318.14 
  224.769,1309.65 236.028,1301.44 247.287,1293.47 258.547,1285.71 269.806,1278.12 281.065,1270.7 292.324,1263.41 303.583,1256.25 314.843,1249.21 326.102,1242.27 
  337.361,1235.42 348.62,1228.66 359.879,1221.98 371.139,1215.37 382.398,1208.83 393.657,1202.35 404.916,1195.93 416.175,1189.57 427.434,1183.26 438.694,1177 
  449.953,1170.78 461.212,1164.61 472.471,1158.48 483.73,1152.38 494.99,1146.33 506.249,1140.31 517.508,1134.32 528.767,1128.36 540.026,1122.44 551.286,1116.54 
  562.545,1110.67 573.804,1104.83 585.063,1099.01 596.322,1093.22 607.582,1087.45 618.841,1081.7 630.1,1075.98 641.359,1070.27 652.618,1064.59 663.877,1058.92 
  675.137,1053.28 686.396,1047.65 697.655,1042.04 708.914,1036.45 720.173,1030.87 731.433,1025.31 742.692,1019.76 753.951,1014.23 765.21,1008.72 776.469,1003.22 
  787.729,997.729 798.988,992.254 810.247,986.793 821.506,981.344 832.765,975.907 844.024,970.482 855.284,965.069 866.543,959.667 877.802,954.277 889.061,948.897 
  900.32,943.527 911.58,938.168 922.839,932.819 934.098,927.479 945.357,922.149 956.616,916.829 967.876,911.517 979.135,906.215 990.394,900.921 1001.65,895.636 
  1012.91,890.359 1024.17,885.09 1035.43,879.829 1046.69,874.576 1057.95,869.331 1069.21,864.093 1080.47,858.863 1091.73,853.64 1102.99,848.423 1114.25,843.214 
  1125.5,838.012 1136.76,832.816 1148.02,827.627 1159.28,822.445 1170.54,817.268 1181.8,812.098 1193.06,806.934 1204.32,801.776 1215.58,796.624 1226.84,791.478 
  1238.1,786.337 1249.36,781.202 1260.61,776.072 1271.87,770.948 1283.13,765.829 1294.39,760.716 1305.65,755.607 1316.91,750.504 1328.17,745.405 1339.43,740.312 
  1350.69,735.223 1361.95,730.139 1373.21,725.06 1384.47,719.985 1395.72,714.915 1406.98,709.85 1418.24,704.788 1429.5,699.731 1440.76,694.679 1452.02,689.63 
  1463.28,684.586 1474.54,679.546 1485.8,674.51 1497.06,669.478 1508.32,664.45 1519.58,659.425 1530.84,654.405 1542.09,649.388 1553.35,644.375 1564.61,639.366 
  1575.87,634.36 1587.13,629.358 1598.39,624.36 1609.65,619.365 1620.91,614.373 1632.17,609.385 1643.43,604.4 1654.69,599.418 1665.95,594.44 1677.2,589.465 
  1688.46,584.493 1699.72,579.524 1710.98,574.559 1722.24,569.596 1733.5,564.637 1744.76,559.68 1756.02,554.727 1767.28,549.776 1778.54,544.829 1789.8,539.884 
  1801.06,534.942 1812.31,530.003 1823.57,525.066 1834.83,520.133 1846.09,515.202 1857.35,510.274 1868.61,505.348 1879.87,500.425 1891.13,495.505 1902.39,490.587 
  1913.65,485.672 1924.91,480.759 1936.17,475.849 1947.43,470.941 1958.68,466.036 1969.94,461.133 1981.2,456.232 1992.46,451.334 2003.72,446.438 2014.98,441.545 
  2026.24,436.654 2037.5,431.765 2048.76,426.878 2060.02,421.993 2071.28,417.111 2082.54,412.231 2093.79,407.353 2105.05,402.477 2116.31,397.604 2127.57,392.732 
  2138.83,387.862 2150.09,382.995 2161.35,378.13 2172.61,373.266 2183.87,368.405 2195.13,363.545 2206.39,358.688 2217.65,353.832 2228.9,348.979 2240.16,344.127 
  2251.42,339.277 2262.68,334.429 2273.94,329.583 2285.2,324.739 2296.46,319.897 2307.72,315.056 2318.98,310.218 2330.24,305.381 2341.5,300.545 2352.76,295.712 
  
  "/>
<polyline clip-path="url(#clip552)" style="stroke:#000000; stroke-linecap:round; stroke-linejoin:round; stroke-width:4; stroke-opacity:0.5; fill:none" stroke-dasharray="16, 10" points="
  112.177,1486.45 112.177,1486.45 
  "/>
<polyline clip-path="url(#clip552)" style="stroke:#008000; stroke-linecap:round; stroke-linejoin:round; stroke-width:8; stroke-opacity:1; fill:none" points="
  -2128.4,1486.45 4593.33,1486.45 
  "/>
<polyline clip-path="url(#clip552)" style="stroke:#008000; stroke-linecap:round; stroke-linejoin:round; stroke-width:8; stroke-opacity:1; fill:none" points="
  112.177,2925.65 112.177,-1391.96 
  "/>
</svg>
