<?xml version="1.0" encoding="utf-8"?>
<svg xmlns="http://www.w3.org/2000/svg" xmlns:xlink="http://www.w3.org/1999/xlink" width="600" height="400" viewBox="0 0 2400 1600">
<defs>
  <clipPath id="clip680">
    <rect x="0" y="0" width="2400" height="1600"/>
  </clipPath>
</defs>
<path clip-path="url(#clip680)" d="
M0 1600 L2400 1600 L2400 0 L0 0  Z
  " fill="#ffffff" fill-rule="evenodd" fill-opacity="1"/>
<defs>
  <clipPath id="clip681">
    <rect x="480" y="0" width="1681" height="1600"/>
  </clipPath>
</defs>
<path clip-path="url(#clip680)" d="
M112.177 1486.45 L2352.76 1486.45 L2352.76 47.2441 L112.177 47.2441  Z
  " fill="#ffffff" fill-rule="evenodd" fill-opacity="1"/>
<defs>
  <clipPath id="clip682">
    <rect x="112" y="47" width="2242" height="1440"/>
  </clipPath>
</defs>
<polyline clip-path="url(#clip682)" style="stroke:#000000; stroke-linecap:round; stroke-linejoin:round; stroke-width:2; stroke-opacity:0.1; fill:none" points="
  620.591,1486.45 620.591,47.2441 
  "/>
<polyline clip-path="url(#clip682)" style="stroke:#000000; stroke-linecap:round; stroke-linejoin:round; stroke-width:2; stroke-opacity:0.1; fill:none" points="
  1176.84,1486.45 1176.84,47.2441 
  "/>
<polyline clip-path="url(#clip682)" style="stroke:#000000; stroke-linecap:round; stroke-linejoin:round; stroke-width:2; stroke-opacity:0.1; fill:none" points="
  1733.09,1486.45 1733.09,47.2441 
  "/>
<polyline clip-path="url(#clip682)" style="stroke:#000000; stroke-linecap:round; stroke-linejoin:round; stroke-width:2; stroke-opacity:0.1; fill:none" points="
  2289.34,1486.45 2289.34,47.2441 
  "/>
<polyline clip-path="url(#clip680)" style="stroke:#000000; stroke-linecap:round; stroke-linejoin:round; stroke-width:4; stroke-opacity:1; fill:none" points="
  112.177,1486.45 2352.76,1486.45 
  "/>
<polyline clip-path="url(#clip680)" style="stroke:#000000; stroke-linecap:round; stroke-linejoin:round; stroke-width:4; stroke-opacity:1; fill:none" points="
  620.591,1486.45 620.591,1467.55 
  "/>
<polyline clip-path="url(#clip680)" style="stroke:#000000; stroke-linecap:round; stroke-linejoin:round; stroke-width:4; stroke-opacity:1; fill:none" points="
  1176.84,1486.45 1176.84,1467.55 
  "/>
<polyline clip-path="url(#clip680)" style="stroke:#000000; stroke-linecap:round; stroke-linejoin:round; stroke-width:4; stroke-opacity:1; fill:none" points="
  1733.09,1486.45 1733.09,1467.55 
  "/>
<polyline clip-path="url(#clip680)" style="stroke:#000000; stroke-linecap:round; stroke-linejoin:round; stroke-width:4; stroke-opacity:1; fill:none" points="
  2289.34,1486.45 2289.34,1467.55 
  "/>
<path clip-path="url(#clip680)" d="M610.868 1514.29 L629.225 1514.29 L629.225 1518.22 L615.151 1518.22 L615.151 1526.7 Q616.169 1526.35 617.188 1526.19 Q618.206 1526 619.225 1526 Q625.012 1526 628.391 1529.17 Q631.771 1532.34 631.771 1537.76 Q631.771 1543.34 628.299 1546.44 Q624.827 1549.52 618.507 1549.52 Q616.331 1549.52 614.063 1549.15 Q611.817 1548.78 609.41 1548.04 L609.41 1543.34 Q611.493 1544.47 613.716 1545.03 Q615.938 1545.58 618.415 1545.58 Q622.419 1545.58 624.757 1543.48 Q627.095 1541.37 627.095 1537.76 Q627.095 1534.15 624.757 1532.04 Q622.419 1529.94 618.415 1529.94 Q616.54 1529.94 614.665 1530.35 Q612.813 1530.77 610.868 1531.65 L610.868 1514.29 Z" fill="#000000" fill-rule="evenodd" fill-opacity="1" /><path clip-path="url(#clip680)" d="M1151.53 1544.91 L1159.17 1544.91 L1159.17 1518.55 L1150.86 1520.21 L1150.86 1515.95 L1159.12 1514.29 L1163.8 1514.29 L1163.8 1544.91 L1171.44 1544.91 L1171.44 1548.85 L1151.53 1548.85 L1151.53 1544.91 Z" fill="#000000" fill-rule="evenodd" fill-opacity="1" /><path clip-path="url(#clip680)" d="M1190.88 1517.37 Q1187.27 1517.37 1185.44 1520.93 Q1183.64 1524.47 1183.64 1531.6 Q1183.64 1538.71 1185.44 1542.27 Q1187.27 1545.82 1190.88 1545.82 Q1194.51 1545.82 1196.32 1542.27 Q1198.15 1538.71 1198.15 1531.6 Q1198.15 1524.47 1196.32 1520.93 Q1194.51 1517.37 1190.88 1517.37 M1190.88 1513.66 Q1196.69 1513.66 1199.75 1518.27 Q1202.83 1522.85 1202.83 1531.6 Q1202.83 1540.33 1199.75 1544.94 Q1196.69 1549.52 1190.88 1549.52 Q1185.07 1549.52 1181.99 1544.94 Q1178.94 1540.33 1178.94 1531.6 Q1178.94 1522.85 1181.99 1518.27 Q1185.07 1513.66 1190.88 1513.66 Z" fill="#000000" fill-rule="evenodd" fill-opacity="1" /><path clip-path="url(#clip680)" d="M1708.28 1544.91 L1715.92 1544.91 L1715.92 1518.55 L1707.61 1520.21 L1707.61 1515.95 L1715.87 1514.29 L1720.55 1514.29 L1720.55 1544.91 L1728.18 1544.91 L1728.18 1548.85 L1708.28 1548.85 L1708.28 1544.91 Z" fill="#000000" fill-rule="evenodd" fill-opacity="1" /><path clip-path="url(#clip680)" d="M1737.68 1514.29 L1756.03 1514.29 L1756.03 1518.22 L1741.96 1518.22 L1741.96 1526.7 Q1742.98 1526.35 1744 1526.19 Q1745.01 1526 1746.03 1526 Q1751.82 1526 1755.2 1529.17 Q1758.58 1532.34 1758.58 1537.76 Q1758.58 1543.34 1755.11 1546.44 Q1751.63 1549.52 1745.31 1549.52 Q1743.14 1549.52 1740.87 1549.15 Q1738.62 1548.78 1736.22 1548.04 L1736.22 1543.34 Q1738.3 1544.47 1740.52 1545.03 Q1742.75 1545.58 1745.22 1545.58 Q1749.23 1545.58 1751.56 1543.48 Q1753.9 1541.37 1753.9 1537.76 Q1753.9 1534.15 1751.56 1532.04 Q1749.23 1529.94 1745.22 1529.94 Q1743.35 1529.94 1741.47 1530.35 Q1739.62 1530.77 1737.68 1531.65 L1737.68 1514.29 Z" fill="#000000" fill-rule="evenodd" fill-opacity="1" /><path clip-path="url(#clip680)" d="M2268.12 1544.91 L2284.44 1544.91 L2284.44 1548.85 L2262.49 1548.85 L2262.49 1544.91 Q2265.15 1542.16 2269.74 1537.53 Q2274.34 1532.88 2275.52 1531.53 Q2277.77 1529.01 2278.65 1527.27 Q2279.55 1525.51 2279.55 1523.82 Q2279.55 1521.07 2277.61 1519.33 Q2275.69 1517.6 2272.58 1517.6 Q2270.39 1517.6 2267.93 1518.36 Q2265.5 1519.13 2262.72 1520.68 L2262.72 1515.95 Q2265.55 1514.82 2268 1514.24 Q2270.45 1513.66 2272.49 1513.66 Q2277.86 1513.66 2281.06 1516.35 Q2284.25 1519.03 2284.25 1523.52 Q2284.25 1525.65 2283.44 1527.57 Q2282.65 1529.47 2280.55 1532.07 Q2279.97 1532.74 2276.87 1535.95 Q2273.76 1539.15 2268.12 1544.91 Z" fill="#000000" fill-rule="evenodd" fill-opacity="1" /><path clip-path="url(#clip680)" d="M2304.25 1517.37 Q2300.64 1517.37 2298.81 1520.93 Q2297.01 1524.47 2297.01 1531.6 Q2297.01 1538.71 2298.81 1542.27 Q2300.64 1545.82 2304.25 1545.82 Q2307.88 1545.82 2309.69 1542.27 Q2311.52 1538.71 2311.52 1531.6 Q2311.52 1524.47 2309.69 1520.93 Q2307.88 1517.37 2304.25 1517.37 M2304.25 1513.66 Q2310.06 1513.66 2313.12 1518.27 Q2316.2 1522.85 2316.2 1531.6 Q2316.2 1540.33 2313.12 1544.94 Q2310.06 1549.52 2304.25 1549.52 Q2298.44 1549.52 2295.36 1544.94 Q2292.31 1540.33 2292.31 1531.6 Q2292.31 1522.85 2295.36 1518.27 Q2298.44 1513.66 2304.25 1513.66 Z" fill="#000000" fill-rule="evenodd" fill-opacity="1" /><polyline clip-path="url(#clip682)" style="stroke:#000000; stroke-linecap:round; stroke-linejoin:round; stroke-width:2; stroke-opacity:0.1; fill:none" points="
  112.177,1486.45 2352.76,1486.45 
  "/>
<polyline clip-path="url(#clip682)" style="stroke:#000000; stroke-linecap:round; stroke-linejoin:round; stroke-width:2; stroke-opacity:0.1; fill:none" points="
  112.177,1126.65 2352.76,1126.65 
  "/>
<polyline clip-path="url(#clip682)" style="stroke:#000000; stroke-linecap:round; stroke-linejoin:round; stroke-width:2; stroke-opacity:0.1; fill:none" points="
  112.177,766.846 2352.76,766.846 
  "/>
<polyline clip-path="url(#clip682)" style="stroke:#000000; stroke-linecap:round; stroke-linejoin:round; stroke-width:2; stroke-opacity:0.1; fill:none" points="
  112.177,407.045 2352.76,407.045 
  "/>
<polyline clip-path="url(#clip682)" style="stroke:#000000; stroke-linecap:round; stroke-linejoin:round; stroke-width:2; stroke-opacity:0.1; fill:none" points="
  112.177,47.2441 2352.76,47.2441 
  "/>
<polyline clip-path="url(#clip680)" style="stroke:#000000; stroke-linecap:round; stroke-linejoin:round; stroke-width:4; stroke-opacity:1; fill:none" points="
  112.177,1486.45 112.177,47.2441 
  "/>
<polyline clip-path="url(#clip680)" style="stroke:#000000; stroke-linecap:round; stroke-linejoin:round; stroke-width:4; stroke-opacity:1; fill:none" points="
  112.177,1486.45 131.075,1486.45 
  "/>
<polyline clip-path="url(#clip680)" style="stroke:#000000; stroke-linecap:round; stroke-linejoin:round; stroke-width:4; stroke-opacity:1; fill:none" points="
  112.177,1126.65 131.075,1126.65 
  "/>
<polyline clip-path="url(#clip680)" style="stroke:#000000; stroke-linecap:round; stroke-linejoin:round; stroke-width:4; stroke-opacity:1; fill:none" points="
  112.177,766.846 131.075,766.846 
  "/>
<polyline clip-path="url(#clip680)" style="stroke:#000000; stroke-linecap:round; stroke-linejoin:round; stroke-width:4; stroke-opacity:1; fill:none" points="
  112.177,407.045 131.075,407.045 
  "/>
<polyline clip-path="url(#clip680)" style="stroke:#000000; stroke-linecap:round; stroke-linejoin:round; stroke-width:4; stroke-opacity:1; fill:none" points="
  112.177,47.2441 131.075,47.2441 
  "/>
<path clip-path="url(#clip680)" d="M64.2328 1472.25 Q60.6217 1472.25 58.793 1475.81 Q56.9875 1479.35 56.9875 1486.48 Q56.9875 1493.59 58.793 1497.15 Q60.6217 1500.7 64.2328 1500.7 Q67.867 1500.7 69.6726 1497.15 Q71.5013 1493.59 71.5013 1486.48 Q71.5013 1479.35 69.6726 1475.81 Q67.867 1472.25 64.2328 1472.25 M64.2328 1468.54 Q70.0429 1468.54 73.0985 1473.15 Q76.1772 1477.73 76.1772 1486.48 Q76.1772 1495.21 73.0985 1499.82 Q70.0429 1504.4 64.2328 1504.4 Q58.4226 1504.4 55.344 1499.82 Q52.2884 1495.21 52.2884 1486.48 Q52.2884 1477.73 55.344 1473.15 Q58.4226 1468.54 64.2328 1468.54 Z" fill="#000000" fill-rule="evenodd" fill-opacity="1" /><path clip-path="url(#clip680)" d="M56.2699 1139.99 L63.9087 1139.99 L63.9087 1113.63 L55.5986 1115.29 L55.5986 1111.03 L63.8624 1109.37 L68.5383 1109.37 L68.5383 1139.99 L76.1772 1139.99 L76.1772 1143.93 L56.2699 1143.93 L56.2699 1139.99 Z" fill="#000000" fill-rule="evenodd" fill-opacity="1" /><path clip-path="url(#clip680)" d="M59.8578 780.191 L76.1772 780.191 L76.1772 784.126 L54.2328 784.126 L54.2328 780.191 Q56.8949 777.436 61.4782 772.807 Q66.0846 768.154 67.2652 766.811 Q69.5105 764.288 70.3902 762.552 Q71.2929 760.793 71.2929 759.103 Q71.2929 756.348 69.3485 754.612 Q67.4272 752.876 64.3254 752.876 Q62.1263 752.876 59.6726 753.64 Q57.2421 754.404 54.4643 755.955 L54.4643 751.233 Q57.2884 750.098 59.7421 749.52 Q62.1958 748.941 64.2328 748.941 Q69.6031 748.941 72.7976 751.626 Q75.992 754.311 75.992 758.802 Q75.992 760.932 75.1818 762.853 Q74.3948 764.751 72.2883 767.344 Q71.7096 768.015 68.6078 771.233 Q65.5059 774.427 59.8578 780.191 Z" fill="#000000" fill-rule="evenodd" fill-opacity="1" /><path clip-path="url(#clip680)" d="M69.0476 405.691 Q72.404 406.408 74.279 408.677 Q76.1772 410.945 76.1772 414.279 Q76.1772 419.395 72.6587 422.195 Q69.1402 424.996 62.6587 424.996 Q60.4828 424.996 58.168 424.557 Q55.8764 424.14 53.4227 423.283 L53.4227 418.77 Q55.3671 419.904 57.6819 420.482 Q59.9967 421.061 62.5198 421.061 Q66.918 421.061 69.2096 419.325 Q71.5244 417.589 71.5244 414.279 Q71.5244 411.223 69.3717 409.51 Q67.242 407.774 63.4226 407.774 L59.3949 407.774 L59.3949 403.932 L63.6078 403.932 Q67.0569 403.932 68.8855 402.566 Q70.7142 401.177 70.7142 398.584 Q70.7142 395.922 68.8161 394.51 Q66.9411 393.075 63.4226 393.075 Q61.5013 393.075 59.3023 393.492 Q57.1032 393.909 54.4643 394.788 L54.4643 390.622 Q57.1264 389.881 59.4412 389.51 Q61.7791 389.14 63.8393 389.14 Q69.1633 389.14 72.2652 391.571 Q75.367 393.978 75.367 398.098 Q75.367 400.969 73.7235 402.959 Q72.08 404.927 69.0476 405.691 Z" fill="#000000" fill-rule="evenodd" fill-opacity="1" /><path clip-path="url(#clip680)" d="M66.5939 34.0381 L54.7884 52.4871 L66.5939 52.4871 L66.5939 34.0381 M65.367 29.9641 L71.2466 29.9641 L71.2466 52.4871 L76.1772 52.4871 L76.1772 56.376 L71.2466 56.376 L71.2466 64.5241 L66.5939 64.5241 L66.5939 56.376 L50.9921 56.376 L50.9921 51.8621 L65.367 29.9641 Z" fill="#000000" fill-rule="evenodd" fill-opacity="1" /><polyline clip-path="url(#clip682)" style="stroke:#0000ff; stroke-linecap:round; stroke-linejoin:round; stroke-width:8; stroke-opacity:0.7; fill:none" points="
  175.59,1396.5 286.84,1290.05 398.09,1188.58 509.34,1103.74 620.591,1036.91 731.841,985.931 843.091,947.785 954.341,919.587 1065.59,898.909 1176.84,883.829 
  1288.09,872.873 1399.34,864.933 1510.59,859.19 1621.84,855.041 1733.09,852.047 1844.34,849.887 1955.59,848.331 2066.84,847.209 2178.09,846.401 2289.34,845.818 
  
  "/>
<circle clip-path="url(#clip682)" cx="175.59" cy="1396.5" r="14.4" fill="#0000ff" fill-rule="evenodd" fill-opacity="0.7" stroke="#000000" stroke-opacity="0.7" stroke-width="3.2"/>
<circle clip-path="url(#clip682)" cx="286.84" cy="1290.05" r="14.4" fill="#0000ff" fill-rule="evenodd" fill-opacity="0.7" stroke="#000000" stroke-opacity="0.7" stroke-width="3.2"/>
<circle clip-path="url(#clip682)" cx="398.09" cy="1188.58" r="14.4" fill="#0000ff" fill-rule="evenodd" fill-opacity="0.7" stroke="#000000" stroke-opacity="0.7" stroke-width="3.2"/>
<circle clip-path="url(#clip682)" cx="509.34" cy="1103.74" r="14.4" fill="#0000ff" fill-rule="evenodd" fill-opacity="0.7" stroke="#000000" stroke-opacity="0.7" stroke-width="3.2"/>
<circle clip-path="url(#clip682)" cx="620.591" cy="1036.91" r="14.4" fill="#0000ff" fill-rule="evenodd" fill-opacity="0.7" stroke="#000000" stroke-opacity="0.7" stroke-width="3.2"/>
<circle clip-path="url(#clip682)" cx="731.841" cy="985.931" r="14.4" fill="#0000ff" fill-rule="evenodd" fill-opacity="0.7" stroke="#000000" stroke-opacity="0.7" stroke-width="3.2"/>
<circle clip-path="url(#clip682)" cx="843.091" cy="947.785" r="14.4" fill="#0000ff" fill-rule="evenodd" fill-opacity="0.7" stroke="#000000" stroke-opacity="0.7" stroke-width="3.2"/>
<circle clip-path="url(#clip682)" cx="954.341" cy="919.587" r="14.4" fill="#0000ff" fill-rule="evenodd" fill-opacity="0.7" stroke="#000000" stroke-opacity="0.7" stroke-width="3.2"/>
<circle clip-path="url(#clip682)" cx="1065.59" cy="898.909" r="14.4" fill="#0000ff" fill-rule="evenodd" fill-opacity="0.7" stroke="#000000" stroke-opacity="0.7" stroke-width="3.2"/>
<circle clip-path="url(#clip682)" cx="1176.84" cy="883.829" r="14.4" fill="#0000ff" fill-rule="evenodd" fill-opacity="0.7" stroke="#000000" stroke-opacity="0.7" stroke-width="3.2"/>
<circle clip-path="url(#clip682)" cx="1288.09" cy="872.873" r="14.4" fill="#0000ff" fill-rule="evenodd" fill-opacity="0.7" stroke="#000000" stroke-opacity="0.7" stroke-width="3.2"/>
<circle clip-path="url(#clip682)" cx="1399.34" cy="864.933" r="14.4" fill="#0000ff" fill-rule="evenodd" fill-opacity="0.7" stroke="#000000" stroke-opacity="0.7" stroke-width="3.2"/>
<circle clip-path="url(#clip682)" cx="1510.59" cy="859.19" r="14.4" fill="#0000ff" fill-rule="evenodd" fill-opacity="0.7" stroke="#000000" stroke-opacity="0.7" stroke-width="3.2"/>
<circle clip-path="url(#clip682)" cx="1621.84" cy="855.041" r="14.4" fill="#0000ff" fill-rule="evenodd" fill-opacity="0.7" stroke="#000000" stroke-opacity="0.7" stroke-width="3.2"/>
<circle clip-path="url(#clip682)" cx="1733.09" cy="852.047" r="14.4" fill="#0000ff" fill-rule="evenodd" fill-opacity="0.7" stroke="#000000" stroke-opacity="0.7" stroke-width="3.2"/>
<circle clip-path="url(#clip682)" cx="1844.34" cy="849.887" r="14.4" fill="#0000ff" fill-rule="evenodd" fill-opacity="0.7" stroke="#000000" stroke-opacity="0.7" stroke-width="3.2"/>
<circle clip-path="url(#clip682)" cx="1955.59" cy="848.331" r="14.4" fill="#0000ff" fill-rule="evenodd" fill-opacity="0.7" stroke="#000000" stroke-opacity="0.7" stroke-width="3.2"/>
<circle clip-path="url(#clip682)" cx="2066.84" cy="847.209" r="14.4" fill="#0000ff" fill-rule="evenodd" fill-opacity="0.7" stroke="#000000" stroke-opacity="0.7" stroke-width="3.2"/>
<circle clip-path="url(#clip682)" cx="2178.09" cy="846.401" r="14.4" fill="#0000ff" fill-rule="evenodd" fill-opacity="0.7" stroke="#000000" stroke-opacity="0.7" stroke-width="3.2"/>
<circle clip-path="url(#clip682)" cx="2289.34" cy="845.818" r="14.4" fill="#0000ff" fill-rule="evenodd" fill-opacity="0.7" stroke="#000000" stroke-opacity="0.7" stroke-width="3.2"/>
</svg>
