<?xml version="1.0" encoding="utf-8"?>
<svg xmlns="http://www.w3.org/2000/svg" xmlns:xlink="http://www.w3.org/1999/xlink" width="600" height="400" viewBox="0 0 2400 1600">
<defs>
  <clipPath id="clip740">
    <rect x="0" y="0" width="2400" height="1600"/>
  </clipPath>
</defs>
<path clip-path="url(#clip740)" d="
M0 1600 L2400 1600 L2400 0 L0 0  Z
  " fill="#ffffff" fill-rule="evenodd" fill-opacity="1"/>
<defs>
  <clipPath id="clip741">
    <rect x="480" y="0" width="1681" height="1600"/>
  </clipPath>
</defs>
<path clip-path="url(#clip740)" d="
M186.274 1486.45 L2352.76 1486.45 L2352.76 123.472 L186.274 123.472  Z
  " fill="#ffffff" fill-rule="evenodd" fill-opacity="1"/>
<defs>
  <clipPath id="clip742">
    <rect x="186" y="123" width="2167" height="1364"/>
  </clipPath>
</defs>
<polyline clip-path="url(#clip742)" style="stroke:#000000; stroke-linecap:butt; stroke-linejoin:round; stroke-width:2; stroke-opacity:0.1; fill:none" points="
  247.59,1486.45 247.59,123.472 
  "/>
<polyline clip-path="url(#clip742)" style="stroke:#000000; stroke-linecap:butt; stroke-linejoin:round; stroke-width:2; stroke-opacity:0.1; fill:none" points="
  831.547,1486.45 831.547,123.472 
  "/>
<polyline clip-path="url(#clip742)" style="stroke:#000000; stroke-linecap:butt; stroke-linejoin:round; stroke-width:2; stroke-opacity:0.1; fill:none" points="
  1415.5,1486.45 1415.5,123.472 
  "/>
<polyline clip-path="url(#clip742)" style="stroke:#000000; stroke-linecap:butt; stroke-linejoin:round; stroke-width:2; stroke-opacity:0.1; fill:none" points="
  1999.46,1486.45 1999.46,123.472 
  "/>
<polyline clip-path="url(#clip740)" style="stroke:#000000; stroke-linecap:butt; stroke-linejoin:round; stroke-width:4; stroke-opacity:1; fill:none" points="
  186.274,1486.45 2352.76,1486.45 
  "/>
<polyline clip-path="url(#clip740)" style="stroke:#000000; stroke-linecap:butt; stroke-linejoin:round; stroke-width:4; stroke-opacity:1; fill:none" points="
  247.59,1486.45 247.59,1467.55 
  "/>
<polyline clip-path="url(#clip740)" style="stroke:#000000; stroke-linecap:butt; stroke-linejoin:round; stroke-width:4; stroke-opacity:1; fill:none" points="
  831.547,1486.45 831.547,1467.55 
  "/>
<polyline clip-path="url(#clip740)" style="stroke:#000000; stroke-linecap:butt; stroke-linejoin:round; stroke-width:4; stroke-opacity:1; fill:none" points="
  1415.5,1486.45 1415.5,1467.55 
  "/>
<polyline clip-path="url(#clip740)" style="stroke:#000000; stroke-linecap:butt; stroke-linejoin:round; stroke-width:4; stroke-opacity:1; fill:none" points="
  1999.46,1486.45 1999.46,1467.55 
  "/>
<path clip-path="url(#clip740)" d="M247.59 1515.64 Q243.978 1515.64 242.15 1519.2 Q240.344 1522.75 240.344 1529.87 Q240.344 1536.98 242.15 1540.55 Q243.978 1544.09 247.59 1544.09 Q251.224 1544.09 253.029 1540.55 Q254.858 1536.98 254.858 1529.87 Q254.858 1522.75 253.029 1519.2 Q251.224 1515.64 247.59 1515.64 M247.59 1511.93 Q253.4 1511.93 256.455 1516.54 Q259.534 1521.12 259.534 1529.87 Q259.534 1538.6 256.455 1543.21 Q253.4 1547.79 247.59 1547.79 Q241.779 1547.79 238.701 1543.21 Q235.645 1538.6 235.645 1529.87 Q235.645 1521.12 238.701 1516.54 Q241.779 1511.93 247.59 1511.93 Z" fill="#000000" fill-rule="evenodd" fill-opacity="1" /><path clip-path="url(#clip740)" d="M791.154 1543.18 L798.792 1543.18 L798.792 1516.82 L790.482 1518.49 L790.482 1514.23 L798.746 1512.56 L803.422 1512.56 L803.422 1543.18 L811.061 1543.18 L811.061 1547.12 L791.154 1547.12 L791.154 1543.18 Z" fill="#000000" fill-rule="evenodd" fill-opacity="1" /><path clip-path="url(#clip740)" d="M830.505 1515.64 Q826.894 1515.64 825.065 1519.2 Q823.26 1522.75 823.26 1529.87 Q823.26 1536.98 825.065 1540.55 Q826.894 1544.09 830.505 1544.09 Q834.139 1544.09 835.945 1540.55 Q837.774 1536.98 837.774 1529.87 Q837.774 1522.75 835.945 1519.2 Q834.139 1515.64 830.505 1515.64 M830.505 1511.93 Q836.315 1511.93 839.371 1516.54 Q842.45 1521.12 842.45 1529.87 Q842.45 1538.6 839.371 1543.21 Q836.315 1547.79 830.505 1547.79 Q824.695 1547.79 821.616 1543.21 Q818.561 1538.6 818.561 1529.87 Q818.561 1521.12 821.616 1516.54 Q824.695 1511.93 830.505 1511.93 Z" fill="#000000" fill-rule="evenodd" fill-opacity="1" /><path clip-path="url(#clip740)" d="M860.667 1515.64 Q857.056 1515.64 855.227 1519.2 Q853.422 1522.75 853.422 1529.87 Q853.422 1536.98 855.227 1540.55 Q857.056 1544.09 860.667 1544.09 Q864.301 1544.09 866.107 1540.55 Q867.936 1536.98 867.936 1529.87 Q867.936 1522.75 866.107 1519.2 Q864.301 1515.64 860.667 1515.64 M860.667 1511.93 Q866.477 1511.93 869.533 1516.54 Q872.612 1521.12 872.612 1529.87 Q872.612 1538.6 869.533 1543.21 Q866.477 1547.79 860.667 1547.79 Q854.857 1547.79 851.778 1543.21 Q848.723 1538.6 848.723 1529.87 Q848.723 1521.12 851.778 1516.54 Q854.857 1511.93 860.667 1511.93 Z" fill="#000000" fill-rule="evenodd" fill-opacity="1" /><path clip-path="url(#clip740)" d="M1379.2 1543.18 L1395.52 1543.18 L1395.52 1547.12 L1373.57 1547.12 L1373.57 1543.18 Q1376.23 1540.43 1380.82 1535.8 Q1385.42 1531.15 1386.6 1529.81 Q1388.85 1527.28 1389.73 1525.55 Q1390.63 1523.79 1390.63 1522.1 Q1390.63 1519.34 1388.69 1517.61 Q1386.77 1515.87 1383.66 1515.87 Q1381.47 1515.87 1379.01 1516.63 Q1376.58 1517.4 1373.8 1518.95 L1373.8 1514.23 Q1376.63 1513.09 1379.08 1512.51 Q1381.53 1511.93 1383.57 1511.93 Q1388.94 1511.93 1392.14 1514.62 Q1395.33 1517.31 1395.33 1521.8 Q1395.33 1523.93 1394.52 1525.85 Q1393.73 1527.74 1391.63 1530.34 Q1391.05 1531.01 1387.95 1534.23 Q1384.84 1537.42 1379.2 1543.18 Z" fill="#000000" fill-rule="evenodd" fill-opacity="1" /><path clip-path="url(#clip740)" d="M1415.33 1515.64 Q1411.72 1515.64 1409.89 1519.2 Q1408.09 1522.75 1408.09 1529.87 Q1408.09 1536.98 1409.89 1540.55 Q1411.72 1544.09 1415.33 1544.09 Q1418.96 1544.09 1420.77 1540.55 Q1422.6 1536.98 1422.6 1529.87 Q1422.6 1522.75 1420.77 1519.2 Q1418.96 1515.64 1415.33 1515.64 M1415.33 1511.93 Q1421.14 1511.93 1424.2 1516.54 Q1427.28 1521.12 1427.28 1529.87 Q1427.28 1538.6 1424.2 1543.21 Q1421.14 1547.79 1415.33 1547.79 Q1409.52 1547.79 1406.44 1543.21 Q1403.39 1538.6 1403.39 1529.87 Q1403.39 1521.12 1406.44 1516.54 Q1409.52 1511.93 1415.33 1511.93 Z" fill="#000000" fill-rule="evenodd" fill-opacity="1" /><path clip-path="url(#clip740)" d="M1445.49 1515.64 Q1441.88 1515.64 1440.05 1519.2 Q1438.25 1522.75 1438.25 1529.87 Q1438.25 1536.98 1440.05 1540.55 Q1441.88 1544.09 1445.49 1544.09 Q1449.13 1544.09 1450.93 1540.55 Q1452.76 1536.98 1452.76 1529.87 Q1452.76 1522.75 1450.93 1519.2 Q1449.13 1515.64 1445.49 1515.64 M1445.49 1511.93 Q1451.3 1511.93 1454.36 1516.54 Q1457.44 1521.12 1457.44 1529.87 Q1457.44 1538.6 1454.36 1543.21 Q1451.3 1547.79 1445.49 1547.79 Q1439.68 1547.79 1436.6 1543.21 Q1433.55 1538.6 1433.55 1529.87 Q1433.55 1521.12 1436.6 1516.54 Q1439.68 1511.93 1445.49 1511.93 Z" fill="#000000" fill-rule="evenodd" fill-opacity="1" /><path clip-path="url(#clip740)" d="M1973.22 1528.49 Q1976.58 1529.2 1978.45 1531.47 Q1980.35 1533.74 1980.35 1537.07 Q1980.35 1542.19 1976.83 1544.99 Q1973.32 1547.79 1966.83 1547.79 Q1964.66 1547.79 1962.34 1547.35 Q1960.05 1546.93 1957.6 1546.08 L1957.6 1541.56 Q1959.54 1542.7 1961.86 1543.28 Q1964.17 1543.86 1966.7 1543.86 Q1971.09 1543.86 1973.39 1542.12 Q1975.7 1540.38 1975.7 1537.07 Q1975.7 1534.02 1973.55 1532.31 Q1971.42 1530.57 1967.6 1530.57 L1963.57 1530.57 L1963.57 1526.73 L1967.78 1526.73 Q1971.23 1526.73 1973.06 1525.36 Q1974.89 1523.97 1974.89 1521.38 Q1974.89 1518.72 1972.99 1517.31 Q1971.12 1515.87 1967.6 1515.87 Q1965.68 1515.87 1963.48 1516.29 Q1961.28 1516.7 1958.64 1517.58 L1958.64 1513.42 Q1961.3 1512.68 1963.62 1512.31 Q1965.95 1511.93 1968.02 1511.93 Q1973.34 1511.93 1976.44 1514.37 Q1979.54 1516.77 1979.54 1520.89 Q1979.54 1523.76 1977.9 1525.75 Q1976.26 1527.72 1973.22 1528.49 Z" fill="#000000" fill-rule="evenodd" fill-opacity="1" /><path clip-path="url(#clip740)" d="M1999.22 1515.64 Q1995.61 1515.64 1993.78 1519.2 Q1991.97 1522.75 1991.97 1529.87 Q1991.97 1536.98 1993.78 1540.55 Q1995.61 1544.09 1999.22 1544.09 Q2002.85 1544.09 2004.66 1540.55 Q2006.49 1536.98 2006.49 1529.87 Q2006.49 1522.75 2004.66 1519.2 Q2002.85 1515.64 1999.22 1515.64 M1999.22 1511.93 Q2005.03 1511.93 2008.08 1516.54 Q2011.16 1521.12 2011.16 1529.87 Q2011.16 1538.6 2008.08 1543.21 Q2005.03 1547.79 1999.22 1547.79 Q1993.41 1547.79 1990.33 1543.21 Q1987.27 1538.6 1987.27 1529.87 Q1987.27 1521.12 1990.33 1516.54 Q1993.41 1511.93 1999.22 1511.93 Z" fill="#000000" fill-rule="evenodd" fill-opacity="1" /><path clip-path="url(#clip740)" d="M2029.38 1515.64 Q2025.77 1515.64 2023.94 1519.2 Q2022.14 1522.75 2022.14 1529.87 Q2022.14 1536.98 2023.94 1540.55 Q2025.77 1544.09 2029.38 1544.09 Q2033.01 1544.09 2034.82 1540.55 Q2036.65 1536.98 2036.65 1529.87 Q2036.65 1522.75 2034.82 1519.2 Q2033.01 1515.64 2029.38 1515.64 M2029.38 1511.93 Q2035.19 1511.93 2038.25 1516.54 Q2041.32 1521.12 2041.32 1529.87 Q2041.32 1538.6 2038.25 1543.21 Q2035.19 1547.79 2029.38 1547.79 Q2023.57 1547.79 2020.49 1543.21 Q2017.44 1538.6 2017.44 1529.87 Q2017.44 1521.12 2020.49 1516.54 Q2023.57 1511.93 2029.38 1511.93 Z" fill="#000000" fill-rule="evenodd" fill-opacity="1" /><polyline clip-path="url(#clip742)" style="stroke:#000000; stroke-linecap:butt; stroke-linejoin:round; stroke-width:2; stroke-opacity:0.1; fill:none" points="
  186.274,1447.87 2352.76,1447.87 
  "/>
<polyline clip-path="url(#clip742)" style="stroke:#000000; stroke-linecap:butt; stroke-linejoin:round; stroke-width:2; stroke-opacity:0.1; fill:none" points="
  186.274,1126.42 2352.76,1126.42 
  "/>
<polyline clip-path="url(#clip742)" style="stroke:#000000; stroke-linecap:butt; stroke-linejoin:round; stroke-width:2; stroke-opacity:0.1; fill:none" points="
  186.274,804.96 2352.76,804.96 
  "/>
<polyline clip-path="url(#clip742)" style="stroke:#000000; stroke-linecap:butt; stroke-linejoin:round; stroke-width:2; stroke-opacity:0.1; fill:none" points="
  186.274,483.503 2352.76,483.503 
  "/>
<polyline clip-path="url(#clip742)" style="stroke:#000000; stroke-linecap:butt; stroke-linejoin:round; stroke-width:2; stroke-opacity:0.1; fill:none" points="
  186.274,162.047 2352.76,162.047 
  "/>
<polyline clip-path="url(#clip740)" style="stroke:#000000; stroke-linecap:butt; stroke-linejoin:round; stroke-width:4; stroke-opacity:1; fill:none" points="
  186.274,1486.45 186.274,123.472 
  "/>
<polyline clip-path="url(#clip740)" style="stroke:#000000; stroke-linecap:butt; stroke-linejoin:round; stroke-width:4; stroke-opacity:1; fill:none" points="
  186.274,1447.87 205.172,1447.87 
  "/>
<polyline clip-path="url(#clip740)" style="stroke:#000000; stroke-linecap:butt; stroke-linejoin:round; stroke-width:4; stroke-opacity:1; fill:none" points="
  186.274,1126.42 205.172,1126.42 
  "/>
<polyline clip-path="url(#clip740)" style="stroke:#000000; stroke-linecap:butt; stroke-linejoin:round; stroke-width:4; stroke-opacity:1; fill:none" points="
  186.274,804.96 205.172,804.96 
  "/>
<polyline clip-path="url(#clip740)" style="stroke:#000000; stroke-linecap:butt; stroke-linejoin:round; stroke-width:4; stroke-opacity:1; fill:none" points="
  186.274,483.503 205.172,483.503 
  "/>
<polyline clip-path="url(#clip740)" style="stroke:#000000; stroke-linecap:butt; stroke-linejoin:round; stroke-width:4; stroke-opacity:1; fill:none" points="
  186.274,162.047 205.172,162.047 
  "/>
<path clip-path="url(#clip740)" d="M62.9365 1433.67 Q59.3254 1433.67 57.4967 1437.24 Q55.6912 1440.78 55.6912 1447.91 Q55.6912 1455.01 57.4967 1458.58 Q59.3254 1462.12 62.9365 1462.12 Q66.5707 1462.12 68.3763 1458.58 Q70.205 1455.01 70.205 1447.91 Q70.205 1440.78 68.3763 1437.24 Q66.5707 1433.67 62.9365 1433.67 M62.9365 1429.97 Q68.7467 1429.97 71.8022 1434.57 Q74.8809 1439.16 74.8809 1447.91 Q74.8809 1456.63 71.8022 1461.24 Q68.7467 1465.82 62.9365 1465.82 Q57.1264 1465.82 54.0477 1461.24 Q50.9921 1456.63 50.9921 1447.91 Q50.9921 1439.16 54.0477 1434.57 Q57.1264 1429.97 62.9365 1429.97 Z" fill="#000000" fill-rule="evenodd" fill-opacity="1" /><path clip-path="url(#clip740)" d="M83.0984 1459.27 L87.9827 1459.27 L87.9827 1465.15 L83.0984 1465.15 L83.0984 1459.27 Z" fill="#000000" fill-rule="evenodd" fill-opacity="1" /><path clip-path="url(#clip740)" d="M108.168 1433.67 Q104.557 1433.67 102.728 1437.24 Q100.922 1440.78 100.922 1447.91 Q100.922 1455.01 102.728 1458.58 Q104.557 1462.12 108.168 1462.12 Q111.802 1462.12 113.608 1458.58 Q115.436 1455.01 115.436 1447.91 Q115.436 1440.78 113.608 1437.24 Q111.802 1433.67 108.168 1433.67 M108.168 1429.97 Q113.978 1429.97 117.033 1434.57 Q120.112 1439.16 120.112 1447.91 Q120.112 1456.63 117.033 1461.24 Q113.978 1465.82 108.168 1465.82 Q102.358 1465.82 99.2789 1461.24 Q96.2234 1456.63 96.2234 1447.91 Q96.2234 1439.16 99.2789 1434.57 Q102.358 1429.97 108.168 1429.97 Z" fill="#000000" fill-rule="evenodd" fill-opacity="1" /><path clip-path="url(#clip740)" d="M138.33 1433.67 Q134.719 1433.67 132.89 1437.24 Q131.084 1440.78 131.084 1447.91 Q131.084 1455.01 132.89 1458.58 Q134.719 1462.12 138.33 1462.12 Q141.964 1462.12 143.769 1458.58 Q145.598 1455.01 145.598 1447.91 Q145.598 1440.78 143.769 1437.24 Q141.964 1433.67 138.33 1433.67 M138.33 1429.97 Q144.14 1429.97 147.195 1434.57 Q150.274 1439.16 150.274 1447.91 Q150.274 1456.63 147.195 1461.24 Q144.14 1465.82 138.33 1465.82 Q132.519 1465.82 129.441 1461.24 Q126.385 1456.63 126.385 1447.91 Q126.385 1439.16 129.441 1434.57 Q132.519 1429.97 138.33 1429.97 Z" fill="#000000" fill-rule="evenodd" fill-opacity="1" /><path clip-path="url(#clip740)" d="M63.9319 1112.22 Q60.3208 1112.22 58.4921 1115.78 Q56.6865 1119.32 56.6865 1126.45 Q56.6865 1133.56 58.4921 1137.12 Q60.3208 1140.66 63.9319 1140.66 Q67.5661 1140.66 69.3717 1137.12 Q71.2004 1133.56 71.2004 1126.45 Q71.2004 1119.32 69.3717 1115.78 Q67.5661 1112.22 63.9319 1112.22 M63.9319 1108.51 Q69.742 1108.51 72.7976 1113.12 Q75.8763 1117.7 75.8763 1126.45 Q75.8763 1135.18 72.7976 1139.78 Q69.742 1144.37 63.9319 1144.37 Q58.1217 1144.37 55.043 1139.78 Q51.9875 1135.18 51.9875 1126.45 Q51.9875 1117.7 55.043 1113.12 Q58.1217 1108.51 63.9319 1108.51 Z" fill="#000000" fill-rule="evenodd" fill-opacity="1" /><path clip-path="url(#clip740)" d="M84.0938 1137.82 L88.978 1137.82 L88.978 1143.7 L84.0938 1143.7 L84.0938 1137.82 Z" fill="#000000" fill-rule="evenodd" fill-opacity="1" /><path clip-path="url(#clip740)" d="M103.191 1139.76 L119.51 1139.76 L119.51 1143.7 L97.566 1143.7 L97.566 1139.76 Q100.228 1137.01 104.811 1132.38 Q109.418 1127.72 110.598 1126.38 Q112.844 1123.86 113.723 1122.12 Q114.626 1120.36 114.626 1118.67 Q114.626 1115.92 112.682 1114.18 Q110.76 1112.45 107.658 1112.45 Q105.459 1112.45 103.006 1113.21 Q100.575 1113.97 97.7974 1115.53 L97.7974 1110.8 Q100.621 1109.67 103.075 1109.09 Q105.529 1108.51 107.566 1108.51 Q112.936 1108.51 116.131 1111.2 Q119.325 1113.88 119.325 1118.37 Q119.325 1120.5 118.515 1122.42 Q117.728 1124.32 115.621 1126.91 Q115.043 1127.59 111.941 1130.8 Q108.839 1134 103.191 1139.76 Z" fill="#000000" fill-rule="evenodd" fill-opacity="1" /><path clip-path="url(#clip740)" d="M129.371 1109.14 L147.728 1109.14 L147.728 1113.07 L133.654 1113.07 L133.654 1121.54 Q134.672 1121.2 135.691 1121.03 Q136.709 1120.85 137.728 1120.85 Q143.515 1120.85 146.894 1124.02 Q150.274 1127.19 150.274 1132.61 Q150.274 1138.19 146.802 1141.29 Q143.33 1144.37 137.01 1144.37 Q134.834 1144.37 132.566 1144 Q130.32 1143.63 127.913 1142.89 L127.913 1138.19 Q129.996 1139.32 132.219 1139.88 Q134.441 1140.43 136.918 1140.43 Q140.922 1140.43 143.26 1138.33 Q145.598 1136.22 145.598 1132.61 Q145.598 1129 143.26 1126.89 Q140.922 1124.78 136.918 1124.78 Q135.043 1124.78 133.168 1125.2 Q131.316 1125.62 129.371 1126.5 L129.371 1109.14 Z" fill="#000000" fill-rule="evenodd" fill-opacity="1" /><path clip-path="url(#clip740)" d="M62.9365 790.759 Q59.3254 790.759 57.4967 794.323 Q55.6912 797.865 55.6912 804.995 Q55.6912 812.101 57.4967 815.666 Q59.3254 819.208 62.9365 819.208 Q66.5707 819.208 68.3763 815.666 Q70.205 812.101 70.205 804.995 Q70.205 797.865 68.3763 794.323 Q66.5707 790.759 62.9365 790.759 M62.9365 787.055 Q68.7467 787.055 71.8022 791.661 Q74.8809 796.245 74.8809 804.995 Q74.8809 813.722 71.8022 818.328 Q68.7467 822.911 62.9365 822.911 Q57.1264 822.911 54.0477 818.328 Q50.9921 813.722 50.9921 804.995 Q50.9921 796.245 54.0477 791.661 Q57.1264 787.055 62.9365 787.055 Z" fill="#000000" fill-rule="evenodd" fill-opacity="1" /><path clip-path="url(#clip740)" d="M83.0984 816.36 L87.9827 816.36 L87.9827 822.24 L83.0984 822.24 L83.0984 816.36 Z" fill="#000000" fill-rule="evenodd" fill-opacity="1" /><path clip-path="url(#clip740)" d="M98.2141 787.68 L116.57 787.68 L116.57 791.615 L102.496 791.615 L102.496 800.087 Q103.515 799.74 104.534 799.578 Q105.552 799.393 106.571 799.393 Q112.358 799.393 115.737 802.564 Q119.117 805.735 119.117 811.152 Q119.117 816.731 115.645 819.833 Q112.172 822.911 105.853 822.911 Q103.677 822.911 101.409 822.541 Q99.1632 822.171 96.7558 821.43 L96.7558 816.731 Q98.8391 817.865 101.061 818.421 Q103.284 818.976 105.76 818.976 Q109.765 818.976 112.103 816.87 Q114.441 814.763 114.441 811.152 Q114.441 807.541 112.103 805.435 Q109.765 803.328 105.76 803.328 Q103.885 803.328 102.01 803.745 Q100.159 804.161 98.2141 805.041 L98.2141 787.68 Z" fill="#000000" fill-rule="evenodd" fill-opacity="1" /><path clip-path="url(#clip740)" d="M138.33 790.759 Q134.719 790.759 132.89 794.323 Q131.084 797.865 131.084 804.995 Q131.084 812.101 132.89 815.666 Q134.719 819.208 138.33 819.208 Q141.964 819.208 143.769 815.666 Q145.598 812.101 145.598 804.995 Q145.598 797.865 143.769 794.323 Q141.964 790.759 138.33 790.759 M138.33 787.055 Q144.14 787.055 147.195 791.661 Q150.274 796.245 150.274 804.995 Q150.274 813.722 147.195 818.328 Q144.14 822.911 138.33 822.911 Q132.519 822.911 129.441 818.328 Q126.385 813.722 126.385 804.995 Q126.385 796.245 129.441 791.661 Q132.519 787.055 138.33 787.055 Z" fill="#000000" fill-rule="evenodd" fill-opacity="1" /><path clip-path="url(#clip740)" d="M63.9319 469.302 Q60.3208 469.302 58.4921 472.867 Q56.6865 476.409 56.6865 483.538 Q56.6865 490.645 58.4921 494.209 Q60.3208 497.751 63.9319 497.751 Q67.5661 497.751 69.3717 494.209 Q71.2004 490.645 71.2004 483.538 Q71.2004 476.409 69.3717 472.867 Q67.5661 469.302 63.9319 469.302 M63.9319 465.598 Q69.742 465.598 72.7976 470.205 Q75.8763 474.788 75.8763 483.538 Q75.8763 492.265 72.7976 496.871 Q69.742 501.455 63.9319 501.455 Q58.1217 501.455 55.043 496.871 Q51.9875 492.265 51.9875 483.538 Q51.9875 474.788 55.043 470.205 Q58.1217 465.598 63.9319 465.598 Z" fill="#000000" fill-rule="evenodd" fill-opacity="1" /><path clip-path="url(#clip740)" d="M84.0938 494.904 L88.978 494.904 L88.978 500.783 L84.0938 500.783 L84.0938 494.904 Z" fill="#000000" fill-rule="evenodd" fill-opacity="1" /><path clip-path="url(#clip740)" d="M97.9826 466.223 L120.205 466.223 L120.205 468.214 L107.658 500.783 L102.774 500.783 L114.58 470.159 L97.9826 470.159 L97.9826 466.223 Z" fill="#000000" fill-rule="evenodd" fill-opacity="1" /><path clip-path="url(#clip740)" d="M129.371 466.223 L147.728 466.223 L147.728 470.159 L133.654 470.159 L133.654 478.631 Q134.672 478.284 135.691 478.122 Q136.709 477.936 137.728 477.936 Q143.515 477.936 146.894 481.108 Q150.274 484.279 150.274 489.696 Q150.274 495.274 146.802 498.376 Q143.33 501.455 137.01 501.455 Q134.834 501.455 132.566 501.084 Q130.32 500.714 127.913 499.973 L127.913 495.274 Q129.996 496.408 132.219 496.964 Q134.441 497.52 136.918 497.52 Q140.922 497.52 143.26 495.413 Q145.598 493.307 145.598 489.696 Q145.598 486.084 143.26 483.978 Q140.922 481.872 136.918 481.872 Q135.043 481.872 133.168 482.288 Q131.316 482.705 129.371 483.584 L129.371 466.223 Z" fill="#000000" fill-rule="evenodd" fill-opacity="1" /><path clip-path="url(#clip740)" d="M53.7467 175.392 L61.3856 175.392 L61.3856 149.026 L53.0754 150.693 L53.0754 146.434 L61.3393 144.767 L66.0152 144.767 L66.0152 175.392 L73.654 175.392 L73.654 179.327 L53.7467 179.327 L53.7467 175.392 Z" fill="#000000" fill-rule="evenodd" fill-opacity="1" /><path clip-path="url(#clip740)" d="M83.0984 173.447 L87.9827 173.447 L87.9827 179.327 L83.0984 179.327 L83.0984 173.447 Z" fill="#000000" fill-rule="evenodd" fill-opacity="1" /><path clip-path="url(#clip740)" d="M108.168 147.846 Q104.557 147.846 102.728 151.41 Q100.922 154.952 100.922 162.082 Q100.922 169.188 102.728 172.753 Q104.557 176.295 108.168 176.295 Q111.802 176.295 113.608 172.753 Q115.436 169.188 115.436 162.082 Q115.436 154.952 113.608 151.41 Q111.802 147.846 108.168 147.846 M108.168 144.142 Q113.978 144.142 117.033 148.748 Q120.112 153.332 120.112 162.082 Q120.112 170.808 117.033 175.415 Q113.978 179.998 108.168 179.998 Q102.358 179.998 99.2789 175.415 Q96.2234 170.808 96.2234 162.082 Q96.2234 153.332 99.2789 148.748 Q102.358 144.142 108.168 144.142 Z" fill="#000000" fill-rule="evenodd" fill-opacity="1" /><path clip-path="url(#clip740)" d="M138.33 147.846 Q134.719 147.846 132.89 151.41 Q131.084 154.952 131.084 162.082 Q131.084 169.188 132.89 172.753 Q134.719 176.295 138.33 176.295 Q141.964 176.295 143.769 172.753 Q145.598 169.188 145.598 162.082 Q145.598 154.952 143.769 151.41 Q141.964 147.846 138.33 147.846 M138.33 144.142 Q144.14 144.142 147.195 148.748 Q150.274 153.332 150.274 162.082 Q150.274 170.808 147.195 175.415 Q144.14 179.998 138.33 179.998 Q132.519 179.998 129.441 175.415 Q126.385 170.808 126.385 162.082 Q126.385 153.332 129.441 148.748 Q132.519 144.142 138.33 144.142 Z" fill="#000000" fill-rule="evenodd" fill-opacity="1" /><path clip-path="url(#clip740)" d="M970.781 14.0809 L970.781 22.0612 Q966.122 19.8332 961.991 18.7395 Q957.859 17.6457 954.01 17.6457 Q947.326 17.6457 943.68 20.2383 Q940.075 22.8309 940.075 27.611 Q940.075 31.6214 942.465 33.6873 Q944.896 35.7128 951.62 36.9686 L956.562 37.9813 Q965.717 39.7232 970.052 44.1387 Q974.427 48.5136 974.427 55.8863 Q974.427 64.6767 968.513 69.2137 Q962.639 73.7508 951.256 73.7508 Q946.962 73.7508 942.101 72.7785 Q937.28 71.8063 932.095 69.9024 L932.095 61.4765 Q937.077 64.2716 941.858 65.6895 Q946.638 67.1073 951.256 67.1073 Q958.264 67.1073 962.072 64.3527 Q965.879 61.598 965.879 56.4939 Q965.879 52.0379 963.125 49.5264 Q960.411 47.0148 954.172 45.759 L949.19 44.7868 Q940.035 42.9639 935.943 39.075 Q931.852 35.1862 931.852 28.2591 Q931.852 20.2383 937.483 15.6203 Q943.154 11.0023 953.079 11.0023 Q957.332 11.0023 961.748 11.7719 Q966.163 12.5416 970.781 14.0809 Z" fill="#000000" fill-rule="evenodd" fill-opacity="1" /><path clip-path="url(#clip740)" d="M987.187 12.096 L1025.43 12.096 L1025.43 18.9825 L995.37 18.9825 L995.37 36.8875 L1024.17 36.8875 L1024.17 43.7741 L995.37 43.7741 L995.37 65.6895 L1026.16 65.6895 L1026.16 72.576 L987.187 72.576 L987.187 12.096 Z" fill="#000000" fill-rule="evenodd" fill-opacity="1" /><path clip-path="url(#clip740)" d="M1039.61 12.096 L1047.79 12.096 L1047.79 72.576 L1039.61 72.576 L1039.61 12.096 Z" fill="#000000" fill-rule="evenodd" fill-opacity="1" /><path clip-path="url(#clip740)" d="M1092.75 44.2197 Q1095.39 45.1109 1097.86 48.0275 Q1100.37 50.9442 1102.88 56.0483 L1111.19 72.576 L1102.39 72.576 L1094.66 57.061 Q1091.66 50.9847 1088.82 48.9997 Q1086.03 47.0148 1081.17 47.0148 L1072.26 47.0148 L1072.26 72.576 L1064.07 72.576 L1064.07 12.096 L1082.55 12.096 Q1092.92 12.096 1098.02 16.4305 Q1103.12 20.7649 1103.12 29.5149 Q1103.12 35.2267 1100.45 38.994 Q1097.82 42.7613 1092.75 44.2197 M1072.26 18.8205 L1072.26 40.2903 L1082.55 40.2903 Q1088.46 40.2903 1091.46 37.5762 Q1094.5 34.8216 1094.5 29.5149 Q1094.5 24.2082 1091.46 21.5346 Q1088.46 18.8205 1082.55 18.8205 L1072.26 18.8205 Z" fill="#000000" fill-rule="evenodd" fill-opacity="1" /><path clip-path="url(#clip740)" d="M1156.27 18.8205 L1156.27 41.5461 L1166.56 41.5461 Q1172.27 41.5461 1175.39 38.5889 Q1178.51 35.6318 1178.51 30.163 Q1178.51 24.7348 1175.39 21.7777 Q1172.27 18.8205 1166.56 18.8205 L1156.27 18.8205 M1148.09 12.096 L1166.56 12.096 Q1176.73 12.096 1181.91 16.714 Q1187.14 21.2916 1187.14 30.163 Q1187.14 39.1155 1181.91 43.6931 Q1176.73 48.2706 1166.56 48.2706 L1156.27 48.2706 L1156.27 72.576 L1148.09 72.576 L1148.09 12.096 Z" fill="#000000" fill-rule="evenodd" fill-opacity="1" /><path clip-path="url(#clip740)" d="M1222.63 34.1734 Q1221.37 33.4443 1219.87 33.1202 Q1218.41 32.7556 1216.63 32.7556 Q1210.31 32.7556 1206.91 36.8875 Q1203.55 40.9789 1203.55 48.6757 L1203.55 72.576 L1196.05 72.576 L1196.05 27.2059 L1203.55 27.2059 L1203.55 34.2544 Q1205.9 30.1225 1209.66 28.1376 Q1213.43 26.1121 1218.82 26.1121 Q1219.59 26.1121 1220.52 26.2337 Q1221.45 26.3147 1222.59 26.5172 L1222.63 34.1734 Z" fill="#000000" fill-rule="evenodd" fill-opacity="1" /><path clip-path="url(#clip740)" d="M1246.2 32.4315 Q1240.21 32.4315 1236.72 37.1306 Q1233.24 41.7891 1233.24 49.9314 Q1233.24 58.0738 1236.68 62.7728 Q1240.17 67.4314 1246.2 67.4314 Q1252.16 67.4314 1255.64 62.7323 Q1259.12 58.0333 1259.12 49.9314 Q1259.12 41.8701 1255.64 37.1711 Q1252.16 32.4315 1246.2 32.4315 M1246.2 26.1121 Q1255.92 26.1121 1261.47 32.4315 Q1267.02 38.7509 1267.02 49.9314 Q1267.02 61.0714 1261.47 67.4314 Q1255.92 73.7508 1246.2 73.7508 Q1236.44 73.7508 1230.89 67.4314 Q1225.38 61.0714 1225.38 49.9314 Q1225.38 38.7509 1230.89 32.4315 Q1236.44 26.1121 1246.2 26.1121 Z" fill="#000000" fill-rule="evenodd" fill-opacity="1" /><path clip-path="url(#clip740)" d="M1286.59 65.7705 L1286.59 89.8329 L1279.1 89.8329 L1279.1 27.2059 L1286.59 27.2059 L1286.59 34.0924 Q1288.94 30.0415 1292.5 28.0971 Q1296.11 26.1121 1301.09 26.1121 Q1309.36 26.1121 1314.5 32.6746 Q1319.69 39.2371 1319.69 49.9314 Q1319.69 60.6258 1314.5 67.1883 Q1309.36 73.7508 1301.09 73.7508 Q1296.11 73.7508 1292.5 71.8063 Q1288.94 69.8214 1286.59 65.7705 M1311.95 49.9314 Q1311.95 41.7081 1308.55 37.0496 Q1305.18 32.3505 1299.27 32.3505 Q1293.35 32.3505 1289.95 37.0496 Q1286.59 41.7081 1286.59 49.9314 Q1286.59 58.1548 1289.95 62.8538 Q1293.35 67.5124 1299.27 67.5124 Q1305.18 67.5124 1308.55 62.8538 Q1311.95 58.1548 1311.95 49.9314 Z" fill="#000000" fill-rule="evenodd" fill-opacity="1" /><path clip-path="url(#clip740)" d="M1349.62 32.4315 Q1343.63 32.4315 1340.14 37.1306 Q1336.66 41.7891 1336.66 49.9314 Q1336.66 58.0738 1340.1 62.7728 Q1343.59 67.4314 1349.62 67.4314 Q1355.58 67.4314 1359.06 62.7323 Q1362.54 58.0333 1362.54 49.9314 Q1362.54 41.8701 1359.06 37.1711 Q1355.58 32.4315 1349.62 32.4315 M1349.62 26.1121 Q1359.34 26.1121 1364.89 32.4315 Q1370.44 38.7509 1370.44 49.9314 Q1370.44 61.0714 1364.89 67.4314 Q1359.34 73.7508 1349.62 73.7508 Q1339.86 73.7508 1334.31 67.4314 Q1328.8 61.0714 1328.8 49.9314 Q1328.8 38.7509 1334.31 32.4315 Q1339.86 26.1121 1349.62 26.1121 Z" fill="#000000" fill-rule="evenodd" fill-opacity="1" /><path clip-path="url(#clip740)" d="M1409.09 34.1734 Q1407.83 33.4443 1406.33 33.1202 Q1404.88 32.7556 1403.09 32.7556 Q1396.77 32.7556 1393.37 36.8875 Q1390.01 40.9789 1390.01 48.6757 L1390.01 72.576 L1382.51 72.576 L1382.51 27.2059 L1390.01 27.2059 L1390.01 34.2544 Q1392.36 30.1225 1396.13 28.1376 Q1399.89 26.1121 1405.28 26.1121 Q1406.05 26.1121 1406.98 26.2337 Q1407.91 26.3147 1409.05 26.5172 L1409.09 34.1734 Z" fill="#000000" fill-rule="evenodd" fill-opacity="1" /><path clip-path="url(#clip740)" d="M1424.28 14.324 L1424.28 27.2059 L1439.63 27.2059 L1439.63 32.9987 L1424.28 32.9987 L1424.28 57.6282 Q1424.28 63.1779 1425.78 64.7578 Q1427.32 66.3376 1431.98 66.3376 L1439.63 66.3376 L1439.63 72.576 L1431.98 72.576 Q1423.35 72.576 1420.07 69.3758 Q1416.79 66.1351 1416.79 57.6282 L1416.79 32.9987 L1411.32 32.9987 L1411.32 27.2059 L1416.79 27.2059 L1416.79 14.324 L1424.28 14.324 Z" fill="#000000" fill-rule="evenodd" fill-opacity="1" /><path clip-path="url(#clip740)" d="M1449.44 27.2059 L1456.89 27.2059 L1456.89 72.576 L1449.44 72.576 L1449.44 27.2059 M1449.44 9.54393 L1456.89 9.54393 L1456.89 18.9825 L1449.44 18.9825 L1449.44 9.54393 Z" fill="#000000" fill-rule="evenodd" fill-opacity="1" /><path clip-path="url(#clip740)" d="M1490.07 32.4315 Q1484.07 32.4315 1480.59 37.1306 Q1477.1 41.7891 1477.1 49.9314 Q1477.1 58.0738 1480.55 62.7728 Q1484.03 67.4314 1490.07 67.4314 Q1496.02 67.4314 1499.51 62.7323 Q1502.99 58.0333 1502.99 49.9314 Q1502.99 41.8701 1499.51 37.1711 Q1496.02 32.4315 1490.07 32.4315 M1490.07 26.1121 Q1499.79 26.1121 1505.34 32.4315 Q1510.89 38.7509 1510.89 49.9314 Q1510.89 61.0714 1505.34 67.4314 Q1499.79 73.7508 1490.07 73.7508 Q1480.3 73.7508 1474.75 67.4314 Q1469.24 61.0714 1469.24 49.9314 Q1469.24 38.7509 1474.75 32.4315 Q1480.3 26.1121 1490.07 26.1121 Z" fill="#000000" fill-rule="evenodd" fill-opacity="1" /><path clip-path="url(#clip740)" d="M1560.96 45.1919 L1560.96 72.576 L1553.5 72.576 L1553.5 45.4349 Q1553.5 38.994 1550.99 35.7938 Q1548.48 32.5936 1543.46 32.5936 Q1537.42 32.5936 1533.94 36.4419 Q1530.45 40.2903 1530.45 46.9338 L1530.45 72.576 L1522.96 72.576 L1522.96 27.2059 L1530.45 27.2059 L1530.45 34.2544 Q1533.13 30.163 1536.73 28.1376 Q1540.38 26.1121 1545.12 26.1121 Q1552.94 26.1121 1556.95 30.9732 Q1560.96 35.7938 1560.96 45.1919 Z" fill="#000000" fill-rule="evenodd" fill-opacity="1" /><path clip-path="url(#clip740)" d="M1604.75 28.5427 L1604.75 35.5912 Q1601.59 33.9709 1598.19 33.1607 Q1594.78 32.3505 1591.14 32.3505 Q1585.59 32.3505 1582.79 34.0519 Q1580.04 35.7533 1580.04 39.156 Q1580.04 41.7486 1582.02 43.2475 Q1584.01 44.7058 1590 46.0426 L1592.55 46.6097 Q1600.49 48.3111 1603.82 51.4303 Q1607.18 54.509 1607.18 60.0587 Q1607.18 66.3781 1602.15 70.0644 Q1597.17 73.7508 1588.42 73.7508 Q1584.78 73.7508 1580.81 73.0216 Q1576.88 72.3329 1572.5 70.9151 L1572.5 63.2184 Q1576.63 65.3654 1580.64 66.4591 Q1584.66 67.5124 1588.58 67.5124 Q1593.85 67.5124 1596.69 65.73 Q1599.52 63.9071 1599.52 60.6258 Q1599.52 57.5877 1597.46 55.9673 Q1595.43 54.3469 1588.5 52.8481 L1585.91 52.2405 Q1578.98 50.7821 1575.91 47.7845 Q1572.83 44.7463 1572.83 39.4801 Q1572.83 33.0797 1577.36 29.5959 Q1581.9 26.1121 1590.25 26.1121 Q1594.38 26.1121 1598.02 26.7198 Q1601.67 27.3274 1604.75 28.5427 Z" fill="#000000" fill-rule="evenodd" fill-opacity="1" /><path clip-path="url(#clip742)" d="
M247.59 162.048 L251.879 162.048 L271.66 162.048 L302.71 162.048 L342.892 162.049 L402.528 162.052 L484.97 162.06 L581.621 162.087 L670.959 162.162 L746.164 162.323 
  L811.184 162.632 L871.923 163.229 L932.942 164.444 L996.948 167.07 L1065.56 173.123 L1141.06 188.302 L1223.45 228.072 L1288.43 294.431 L1348.97 402.963 L1406.5 557.827 
  L1461.35 741.722 L1514.16 921.635 L1564.89 1067.49 L1615.27 1173.49 L1667.17 1245.96 L1728.7 1297.88 L1780.78 1323.96 L1833.13 1340.43 L1884.21 1350.74 L1936.34 1357.59 
  L1989.42 1362.18 L2044.7 1365.3 L2102.68 1367.42 L2164.48 1368.86 L2231.06 1369.83 L2291.44 1370.37 L2291.44 1447.87 L2231.06 1447.87 L2164.48 1447.87 L2102.68 1447.87 
  L2044.7 1447.87 L1989.42 1447.87 L1936.34 1447.87 L1884.21 1447.87 L1833.13 1447.87 L1780.78 1447.87 L1728.7 1447.87 L1667.17 1447.87 L1615.27 1447.87 L1564.89 1447.87 
  L1514.16 1447.87 L1461.35 1447.87 L1406.5 1447.87 L1348.97 1447.87 L1288.43 1447.87 L1223.45 1447.87 L1141.06 1447.87 L1065.56 1447.87 L996.948 1447.87 L932.942 1447.87 
  L871.923 1447.87 L811.184 1447.87 L746.164 1447.87 L670.959 1447.87 L581.621 1447.87 L484.97 1447.87 L402.528 1447.87 L342.892 1447.87 L302.71 1447.87 L271.66 1447.87 
  L251.879 1447.87 L247.59 1447.87  Z
  " fill="#009af9" fill-rule="evenodd" fill-opacity="1"/>
<polyline clip-path="url(#clip742)" style="stroke:#009af9; stroke-linecap:butt; stroke-linejoin:round; stroke-width:4; stroke-opacity:1; fill:none" points="
  247.59,162.048 251.879,162.048 271.66,162.048 302.71,162.048 342.892,162.049 402.528,162.052 484.97,162.06 581.621,162.087 670.959,162.162 746.164,162.323 
  811.184,162.632 871.923,163.229 932.942,164.444 996.948,167.07 1065.56,173.123 1141.06,188.302 1223.45,228.072 1288.43,294.431 1348.97,402.963 1406.5,557.827 
  1461.35,741.722 1514.16,921.635 1564.89,1067.49 1615.27,1173.49 1667.17,1245.96 1728.7,1297.88 1780.78,1323.96 1833.13,1340.43 1884.21,1350.74 1936.34,1357.59 
  1989.42,1362.18 2044.7,1365.3 2102.68,1367.42 2164.48,1368.86 2231.06,1369.83 2291.44,1370.37 
  "/>
<path clip-path="url(#clip742)" d="
M247.59 162.047 L251.879 162.047 L271.66 162.047 L302.71 162.048 L342.892 162.048 L402.528 162.05 L484.97 162.056 L581.621 162.077 L670.959 162.131 L746.164 162.249 
  L811.184 162.478 L871.923 162.92 L932.942 163.819 L996.948 165.765 L1065.56 170.253 L1141.06 181.55 L1223.45 211.444 L1288.43 262.23 L1348.97 347.974 L1406.5 476.877 
  L1461.35 642.042 L1514.16 819.972 L1564.89 979.929 L1615.27 1107.62 L1667.17 1201.41 L1728.7 1271.67 L1780.78 1307.55 L1833.13 1330.13 L1884.21 1344.11 L1936.34 1353.31 
  L1989.42 1359.39 L2044.7 1363.5 L2102.68 1366.27 L2164.48 1368.14 L2231.06 1369.39 L2291.44 1370.09 L2291.44 1370.37 L2231.06 1369.83 L2164.48 1368.86 L2102.68 1367.42 
  L2044.7 1365.3 L1989.42 1362.18 L1936.34 1357.59 L1884.21 1350.74 L1833.13 1340.43 L1780.78 1323.96 L1728.7 1297.88 L1667.17 1245.96 L1615.27 1173.49 L1564.89 1067.49 
  L1514.16 921.635 L1461.35 741.722 L1406.5 557.827 L1348.97 402.963 L1288.43 294.431 L1223.45 228.072 L1141.06 188.302 L1065.56 173.123 L996.948 167.07 L932.942 164.444 
  L871.923 163.229 L811.184 162.632 L746.164 162.323 L670.959 162.162 L581.621 162.087 L484.97 162.06 L402.528 162.052 L342.892 162.049 L302.71 162.048 L271.66 162.048 
  L251.879 162.048 L247.59 162.048  Z
  " fill="#e26f46" fill-rule="evenodd" fill-opacity="1"/>
<polyline clip-path="url(#clip742)" style="stroke:#e26f46; stroke-linecap:butt; stroke-linejoin:round; stroke-width:4; stroke-opacity:1; fill:none" points="
  247.59,162.047 251.879,162.047 271.66,162.047 302.71,162.048 342.892,162.048 402.528,162.05 484.97,162.056 581.621,162.077 670.959,162.131 746.164,162.249 
  811.184,162.478 871.923,162.92 932.942,163.819 996.948,165.765 1065.56,170.253 1141.06,181.55 1223.45,211.444 1288.43,262.23 1348.97,347.974 1406.5,476.877 
  1461.35,642.042 1514.16,819.972 1564.89,979.929 1615.27,1107.62 1667.17,1201.41 1728.7,1271.67 1780.78,1307.55 1833.13,1330.13 1884.21,1344.11 1936.34,1353.31 
  1989.42,1359.39 2044.7,1363.5 2102.68,1366.27 2164.48,1368.14 2231.06,1369.39 2291.44,1370.09 
  "/>
<path clip-path="url(#clip742)" d="
M247.59 162.047 L251.879 162.047 L271.66 162.047 L302.71 162.047 L342.892 162.047 L402.528 162.048 L484.97 162.051 L581.621 162.06 L670.959 162.085 L746.164 162.139 
  L811.184 162.242 L871.923 162.441 L932.942 162.846 L996.948 163.724 L1065.56 165.755 L1141.06 170.889 L1223.45 184.64 L1288.43 208.615 L1348.97 250.97 L1406.5 319.724 
  L1461.35 418.923 L1514.16 544.965 L1564.89 684.077 L1615.27 824.093 L1667.17 955.527 L1728.7 1082.93 L1780.78 1164.8 L1833.13 1225.95 L1884.21 1269.15 L1936.34 1300.54 
  L1989.42 1322.85 L2044.7 1338.77 L2102.68 1349.94 L2164.48 1357.69 L2231.06 1362.94 L2291.44 1365.94 L2291.44 1370.09 L2231.06 1369.39 L2164.48 1368.14 L2102.68 1366.27 
  L2044.7 1363.5 L1989.42 1359.39 L1936.34 1353.31 L1884.21 1344.11 L1833.13 1330.13 L1780.78 1307.55 L1728.7 1271.67 L1667.17 1201.41 L1615.27 1107.62 L1564.89 979.929 
  L1514.16 819.972 L1461.35 642.042 L1406.5 476.877 L1348.97 347.974 L1288.43 262.23 L1223.45 211.444 L1141.06 181.55 L1065.56 170.253 L996.948 165.765 L932.942 163.819 
  L871.923 162.92 L811.184 162.478 L746.164 162.249 L670.959 162.131 L581.621 162.077 L484.97 162.056 L402.528 162.05 L342.892 162.048 L302.71 162.048 L271.66 162.047 
  L251.879 162.047 L247.59 162.047  Z
  " fill="#3da44d" fill-rule="evenodd" fill-opacity="1"/>
<polyline clip-path="url(#clip742)" style="stroke:#3da44d; stroke-linecap:butt; stroke-linejoin:round; stroke-width:4; stroke-opacity:1; fill:none" points="
  247.59,162.047 251.879,162.047 271.66,162.047 302.71,162.047 342.892,162.047 402.528,162.048 484.97,162.051 581.621,162.06 670.959,162.085 746.164,162.139 
  811.184,162.242 871.923,162.441 932.942,162.846 996.948,163.724 1065.56,165.755 1141.06,170.889 1223.45,184.64 1288.43,208.615 1348.97,250.97 1406.5,319.724 
  1461.35,418.923 1514.16,544.965 1564.89,684.077 1615.27,824.093 1667.17,955.527 1728.7,1082.93 1780.78,1164.8 1833.13,1225.95 1884.21,1269.15 1936.34,1300.54 
  1989.42,1322.85 2044.7,1338.77 2102.68,1349.94 2164.48,1357.69 2231.06,1362.94 2291.44,1365.94 
  "/>
<path clip-path="url(#clip742)" d="
M247.59 162.047 L251.879 162.047 L271.66 162.047 L302.71 162.047 L342.892 162.047 L402.528 162.047 L484.97 162.047 L581.621 162.047 L670.959 162.047 L746.164 162.047 
  L811.184 162.047 L871.923 162.047 L932.942 162.047 L996.948 162.047 L1065.56 162.047 L1141.06 162.047 L1223.45 162.047 L1288.43 162.047 L1348.97 162.047 L1406.5 162.047 
  L1461.35 162.047 L1514.16 162.047 L1564.89 162.047 L1615.27 162.047 L1667.17 162.047 L1728.7 162.047 L1780.78 162.047 L1833.13 162.047 L1884.21 162.047 L1936.34 162.047 
  L1989.42 162.047 L2044.7 162.047 L2102.68 162.047 L2164.48 162.047 L2231.06 162.047 L2291.44 162.047 L2291.44 1365.94 L2231.06 1362.94 L2164.48 1357.69 L2102.68 1349.94 
  L2044.7 1338.77 L1989.42 1322.85 L1936.34 1300.54 L1884.21 1269.15 L1833.13 1225.95 L1780.78 1164.8 L1728.7 1082.93 L1667.17 955.527 L1615.27 824.093 L1564.89 684.077 
  L1514.16 544.965 L1461.35 418.923 L1406.5 319.724 L1348.97 250.97 L1288.43 208.615 L1223.45 184.64 L1141.06 170.889 L1065.56 165.755 L996.948 163.724 L932.942 162.846 
  L871.923 162.441 L811.184 162.242 L746.164 162.139 L670.959 162.085 L581.621 162.06 L484.97 162.051 L402.528 162.048 L342.892 162.047 L302.71 162.047 L271.66 162.047 
  L251.879 162.047 L247.59 162.047  Z
  " fill="#c271d2" fill-rule="evenodd" fill-opacity="1"/>
<polyline clip-path="url(#clip742)" style="stroke:#c271d2; stroke-linecap:butt; stroke-linejoin:round; stroke-width:4; stroke-opacity:1; fill:none" points="
  247.59,162.047 251.879,162.047 271.66,162.047 302.71,162.047 342.892,162.047 402.528,162.047 484.97,162.047 581.621,162.047 670.959,162.047 746.164,162.047 
  811.184,162.047 871.923,162.047 932.942,162.047 996.948,162.047 1065.56,162.047 1141.06,162.047 1223.45,162.047 1288.43,162.047 1348.97,162.047 1406.5,162.047 
  1461.35,162.047 1514.16,162.047 1564.89,162.047 1615.27,162.047 1667.17,162.047 1728.7,162.047 1780.78,162.047 1833.13,162.047 1884.21,162.047 1936.34,162.047 
  1989.42,162.047 2044.7,162.047 2102.68,162.047 2164.48,162.047 2231.06,162.047 2291.44,162.047 
  "/>
<path clip-path="url(#clip740)" d="
M2015.79 428.105 L2280.54 428.105 L2280.54 168.905 L2015.79 168.905  Z
  " fill="#ffffff" fill-rule="evenodd" fill-opacity="1"/>
<polyline clip-path="url(#clip740)" style="stroke:#000000; stroke-linecap:butt; stroke-linejoin:round; stroke-width:4; stroke-opacity:1; fill:none" points="
  2015.79,428.105 2280.54,428.105 2280.54,168.905 2015.79,168.905 2015.79,428.105 
  "/>
<path clip-path="url(#clip740)" d="
M2039.86 241.481 L2184.3 241.481 L2184.3 200.009 L2039.86 200.009 L2039.86 241.481  Z
  " fill="#009af9" fill-rule="evenodd" fill-opacity="1"/>
<polyline clip-path="url(#clip740)" style="stroke:#009af9; stroke-linecap:butt; stroke-linejoin:round; stroke-width:4; stroke-opacity:1; fill:none" points="
  2039.86,200.009 2184.3,200.009 
  "/>
<path clip-path="url(#clip740)" d="M2226.79 212.863 L2226.79 216.891 Q2224.99 215.965 2223.04 215.502 Q2221.1 215.039 2219.02 215.039 Q2215.84 215.039 2214.25 216.011 Q2212.67 216.983 2212.67 218.928 Q2212.67 220.409 2213.81 221.265 Q2214.94 222.099 2218.37 222.863 L2219.83 223.187 Q2224.36 224.159 2226.26 225.941 Q2228.18 227.701 2228.18 230.872 Q2228.18 234.483 2225.31 236.589 Q2222.47 238.696 2217.47 238.696 Q2215.38 238.696 2213.11 238.279 Q2210.87 237.886 2208.37 237.076 L2208.37 232.677 Q2210.73 233.904 2213.02 234.529 Q2215.31 235.131 2217.56 235.131 Q2220.57 235.131 2222.19 234.113 Q2223.81 233.071 2223.81 231.196 Q2223.81 229.46 2222.63 228.534 Q2221.47 227.608 2217.51 226.752 L2216.03 226.404 Q2212.07 225.571 2210.31 223.858 Q2208.55 222.122 2208.55 219.113 Q2208.55 215.455 2211.15 213.465 Q2213.74 211.474 2218.51 211.474 Q2220.87 211.474 2222.95 211.821 Q2225.03 212.168 2226.79 212.863 Z" fill="#000000" fill-rule="evenodd" fill-opacity="1" /><path clip-path="url(#clip740)" d="
M2039.86 293.321 L2184.3 293.321 L2184.3 251.849 L2039.86 251.849 L2039.86 293.321  Z
  " fill="#e26f46" fill-rule="evenodd" fill-opacity="1"/>
<polyline clip-path="url(#clip740)" style="stroke:#e26f46; stroke-linecap:butt; stroke-linejoin:round; stroke-width:4; stroke-opacity:1; fill:none" points="
  2039.86,251.849 2184.3,251.849 
  "/>
<path clip-path="url(#clip740)" d="M2232.4 275.837 L2232.4 277.92 L2212.81 277.92 Q2213.09 282.318 2215.45 284.633 Q2217.84 286.925 2222.07 286.925 Q2224.53 286.925 2226.82 286.323 Q2229.13 285.721 2231.4 284.517 L2231.4 288.545 Q2229.11 289.517 2226.7 290.027 Q2224.29 290.536 2221.82 290.536 Q2215.61 290.536 2211.98 286.925 Q2208.37 283.314 2208.37 277.156 Q2208.37 270.791 2211.79 267.064 Q2215.24 263.314 2221.08 263.314 Q2226.31 263.314 2229.34 266.693 Q2232.4 270.05 2232.4 275.837 M2228.14 274.587 Q2228.09 271.092 2226.17 269.008 Q2224.27 266.925 2221.12 266.925 Q2217.56 266.925 2215.41 268.939 Q2213.28 270.953 2212.95 274.61 L2228.14 274.587 Z" fill="#000000" fill-rule="evenodd" fill-opacity="1" /><path clip-path="url(#clip740)" d="
M2039.86 345.161 L2184.3 345.161 L2184.3 303.689 L2039.86 303.689 L2039.86 345.161  Z
  " fill="#3da44d" fill-rule="evenodd" fill-opacity="1"/>
<polyline clip-path="url(#clip740)" style="stroke:#3da44d; stroke-linecap:butt; stroke-linejoin:round; stroke-width:4; stroke-opacity:1; fill:none" points="
  2039.86,303.689 2184.3,303.689 
  "/>
<path clip-path="url(#clip740)" d="M2208.37 315.779 L2212.63 315.779 L2212.63 341.705 L2208.37 341.705 L2208.37 315.779 M2208.37 305.686 L2212.63 305.686 L2212.63 311.08 L2208.37 311.08 L2208.37 305.686 Z" fill="#000000" fill-rule="evenodd" fill-opacity="1" /><path clip-path="url(#clip740)" d="
M2039.86 397.001 L2184.3 397.001 L2184.3 355.529 L2039.86 355.529 L2039.86 397.001  Z
  " fill="#c271d2" fill-rule="evenodd" fill-opacity="1"/>
<polyline clip-path="url(#clip740)" style="stroke:#c271d2; stroke-linecap:butt; stroke-linejoin:round; stroke-width:4; stroke-opacity:1; fill:none" points="
  2039.86,355.529 2184.3,355.529 
  "/>
<path clip-path="url(#clip740)" d="M2223.55 371.6 Q2222.84 371.184 2221.98 370.998 Q2221.15 370.79 2220.13 370.79 Q2216.52 370.79 2214.57 373.151 Q2212.65 375.489 2212.65 379.887 L2212.65 393.545 L2208.37 393.545 L2208.37 367.619 L2212.65 367.619 L2212.65 371.647 Q2213.99 369.286 2216.15 368.151 Q2218.3 366.994 2221.38 366.994 Q2221.82 366.994 2222.35 367.063 Q2222.88 367.11 2223.53 367.225 L2223.55 371.6 Z" fill="#000000" fill-rule="evenodd" fill-opacity="1" /></svg>
