<?xml version="1.0" encoding="utf-8"?>
<svg xmlns="http://www.w3.org/2000/svg" xmlns:xlink="http://www.w3.org/1999/xlink" width="600" height="400" viewBox="0 0 2400 1600">
<defs>
  <clipPath id="clip160">
    <rect x="0" y="0" width="2400" height="1600"/>
  </clipPath>
</defs>
<path clip-path="url(#clip160)" d="
M0 1600 L2400 1600 L2400 0 L0 0  Z
  " fill="#ffffff" fill-rule="evenodd" fill-opacity="1"/>
<defs>
  <clipPath id="clip161">
    <rect x="480" y="0" width="1681" height="1600"/>
  </clipPath>
</defs>
<defs>
  <clipPath id="clip162">
    <rect x="112" y="123" width="2242" height="1301"/>
  </clipPath>
</defs>
<path clip-path="url(#clip160)" d="
M137.362 1486.45 L2352.76 1486.45 L2352.76 47.2441 L137.362 47.2441  Z
  " fill="#ffffff" fill-rule="evenodd" fill-opacity="1"/>
<defs>
  <clipPath id="clip163">
    <rect x="137" y="47" width="2216" height="1440"/>
  </clipPath>
</defs>
<polyline clip-path="url(#clip163)" style="stroke:#000000; stroke-linecap:butt; stroke-linejoin:round; stroke-width:2; stroke-opacity:0.1; fill:none" points="
  498.633,1486.45 498.633,47.2441 
  "/>
<polyline clip-path="url(#clip163)" style="stroke:#000000; stroke-linecap:butt; stroke-linejoin:round; stroke-width:2; stroke-opacity:0.1; fill:none" points="
  1245.06,1486.45 1245.06,47.2441 
  "/>
<polyline clip-path="url(#clip163)" style="stroke:#000000; stroke-linecap:butt; stroke-linejoin:round; stroke-width:2; stroke-opacity:0.1; fill:none" points="
  1991.49,1486.45 1991.49,47.2441 
  "/>
<polyline clip-path="url(#clip160)" style="stroke:#000000; stroke-linecap:butt; stroke-linejoin:round; stroke-width:4; stroke-opacity:1; fill:none" points="
  137.362,1486.45 2352.76,1486.45 
  "/>
<polyline clip-path="url(#clip160)" style="stroke:#000000; stroke-linecap:butt; stroke-linejoin:round; stroke-width:4; stroke-opacity:1; fill:none" points="
  498.633,1486.45 498.633,1467.55 
  "/>
<polyline clip-path="url(#clip160)" style="stroke:#000000; stroke-linecap:butt; stroke-linejoin:round; stroke-width:4; stroke-opacity:1; fill:none" points="
  1245.06,1486.45 1245.06,1467.55 
  "/>
<polyline clip-path="url(#clip160)" style="stroke:#000000; stroke-linecap:butt; stroke-linejoin:round; stroke-width:4; stroke-opacity:1; fill:none" points="
  1991.49,1486.45 1991.49,1467.55 
  "/>
<path clip-path="url(#clip160)" d="M518.513 1522.48 Q518.513 1522.9 518.349 1523.13 Q518.209 1523.34 518.045 1523.39 Q517.881 1523.41 517.459 1523.44 Q514.11 1523.6 511.369 1525.87 Q510.69 1526.46 508.98 1528.29 Q507.294 1530.11 505.045 1532.55 Q502.82 1534.98 501.532 1536.3 L507.716 1551.1 Q507.973 1551.68 508.067 1551.94 Q508.184 1552.18 508.418 1552.48 Q508.676 1552.79 508.863 1552.88 Q509.074 1552.97 509.519 1553.09 Q509.988 1553.18 510.456 1553.21 Q510.948 1553.21 511.838 1553.23 Q512.119 1553.23 512.236 1553.25 Q512.377 1553.25 512.541 1553.39 Q512.705 1553.51 512.705 1553.79 Q512.705 1554.21 512.517 1554.45 Q512.353 1554.66 512.189 1554.68 Q512.049 1554.71 511.791 1554.71 Q511.182 1554.71 509.121 1554.64 Q507.06 1554.57 506.474 1554.57 L500.431 1554.71 Q499.705 1554.71 499.705 1554.12 Q499.705 1553.82 499.752 1553.65 Q499.822 1553.47 499.986 1553.39 Q500.15 1553.3 500.267 1553.28 Q500.384 1553.25 500.665 1553.23 Q501.532 1553.14 502.188 1552.88 Q502.867 1552.6 503.148 1552.32 Q503.453 1552.04 503.453 1551.83 L503.218 1551.15 L498.37 1539.69 L494.037 1544.4 L489.142 1549.58 Q487.853 1550.96 487.853 1551.73 Q487.853 1553.02 489.774 1553.23 Q490.36 1553.28 490.36 1553.75 Q490.36 1554.19 490.172 1554.43 Q490.008 1554.64 489.844 1554.68 Q489.704 1554.71 489.493 1554.71 Q488.626 1554.71 486.799 1554.64 Q484.996 1554.57 484.106 1554.57 Q483.356 1554.57 481.834 1554.64 Q480.311 1554.71 479.609 1554.71 Q479.328 1554.71 479.164 1554.57 Q479 1554.43 479 1554.28 L478.976 1554.17 Q478.976 1553.84 479.023 1553.65 Q479.093 1553.47 479.281 1553.37 Q479.492 1553.28 479.585 1553.28 Q479.679 1553.25 480.03 1553.23 Q482.021 1553.11 483.708 1552.34 Q485.417 1551.57 487.08 1549.76 Q487.221 1549.65 487.385 1549.51 Q487.572 1549.37 487.713 1549.25 L497.831 1538.36 L492.163 1524.96 Q491.905 1524.35 491.671 1524.09 Q491.437 1523.81 490.711 1523.62 Q489.985 1523.44 488.579 1523.44 Q488.181 1523.44 487.994 1523.41 Q487.807 1523.39 487.643 1523.27 Q487.479 1523.16 487.479 1522.9 Q487.479 1522.45 487.643 1522.24 Q487.83 1522.01 487.97 1521.99 Q488.134 1521.94 488.345 1521.94 Q488.931 1521.94 491.015 1522.01 Q493.1 1522.08 493.709 1522.08 Q494.716 1522.08 496.73 1522.01 Q498.768 1521.94 499.752 1521.94 Q500.478 1521.94 500.478 1522.52 Q500.478 1522.9 500.314 1523.11 Q500.15 1523.32 499.986 1523.37 Q499.822 1523.41 499.518 1523.44 Q498.604 1523.53 497.902 1523.84 Q497.222 1524.12 496.941 1524.4 Q496.684 1524.66 496.684 1524.82 L496.918 1525.45 L500.947 1534.98 L508.723 1526.65 Q509.636 1525.62 509.636 1524.91 Q509.636 1523.65 507.716 1523.44 Q507.13 1523.34 507.13 1522.9 Q507.13 1522.45 507.317 1522.24 Q507.505 1522.01 507.645 1521.99 Q507.809 1521.94 508.044 1521.94 Q508.91 1521.94 510.69 1522.01 Q512.494 1522.08 513.384 1522.08 Q514.133 1522.08 515.656 1522.01 Q517.178 1521.94 517.881 1521.94 Q518.162 1521.94 518.326 1522.08 Q518.49 1522.2 518.49 1522.34 L518.513 1522.48 Z" fill="#000000" fill-rule="evenodd" fill-opacity="1" /><path clip-path="url(#clip160)" d="M1266.15 1522.52 Q1266.15 1522.83 1266.08 1523.02 Q1266.03 1523.2 1265.84 1523.3 Q1265.68 1523.37 1265.56 1523.39 Q1265.47 1523.41 1265.19 1523.44 Q1264.04 1523.53 1263.08 1523.84 Q1262.12 1524.12 1261.3 1524.68 Q1260.5 1525.24 1260.06 1525.62 Q1259.64 1525.99 1258.89 1526.74 L1258.23 1527.42 L1246.33 1541.07 Q1245.91 1541.54 1245.65 1542.57 L1243.97 1549.34 Q1243.31 1552.15 1243.31 1552.36 Q1243.31 1552.79 1243.54 1552.93 Q1243.8 1553.04 1244.6 1553.11 L1246.42 1553.23 Q1247.5 1553.23 1247.67 1553.42 Q1247.76 1553.54 1247.76 1553.75 Q1247.76 1554.19 1247.57 1554.43 Q1247.41 1554.64 1247.24 1554.68 Q1247.1 1554.71 1246.85 1554.71 L1240.71 1554.57 L1234.67 1554.71 Q1233.99 1554.71 1233.99 1554.17 Q1233.99 1553.82 1234.03 1553.63 Q1234.1 1553.42 1234.32 1553.35 Q1234.53 1553.25 1234.69 1553.25 Q1234.85 1553.23 1235.3 1553.23 Q1236.38 1553.21 1236.92 1553.21 Q1237.48 1553.18 1238.02 1553.04 Q1238.55 1552.9 1238.74 1552.81 Q1238.95 1552.69 1239.19 1552.29 Q1239.45 1551.87 1239.52 1551.54 Q1239.61 1551.22 1239.8 1550.4 Q1239.98 1549.67 1240.97 1545.71 Q1241.95 1541.75 1241.95 1541.66 Q1241.95 1541.4 1241.76 1540.84 L1235.86 1525.05 Q1235.6 1524.35 1235.39 1524.07 Q1235.18 1523.79 1234.48 1523.62 Q1233.78 1523.44 1232.37 1523.44 Q1231.97 1523.44 1231.79 1523.41 Q1231.6 1523.39 1231.43 1523.27 Q1231.27 1523.16 1231.27 1522.9 Q1231.27 1522.45 1231.46 1522.24 Q1231.65 1522.01 1231.79 1521.99 Q1231.95 1521.94 1232.18 1521.94 Q1232.77 1521.94 1234.85 1522.01 Q1236.94 1522.08 1237.55 1522.08 L1243.59 1521.94 Q1244.32 1521.94 1244.32 1522.48 Q1244.32 1523.13 1244.06 1523.3 Q1243.8 1523.44 1243.17 1523.44 Q1240.34 1523.44 1240.34 1524.59 Q1240.34 1524.73 1240.62 1525.4 L1245.89 1539.65 L1257.01 1526.83 L1257.18 1526.65 Q1257.32 1526.46 1257.43 1526.32 Q1257.55 1526.18 1257.74 1525.92 Q1257.93 1525.66 1258.02 1525.45 Q1258.14 1525.24 1258.23 1524.98 Q1258.32 1524.73 1258.32 1524.54 Q1258.32 1524.19 1258.11 1523.95 Q1257.9 1523.7 1257.57 1523.6 Q1257.25 1523.51 1257.01 1523.48 Q1256.78 1523.44 1256.59 1523.44 Q1255.86 1523.44 1255.86 1522.85 Q1255.86 1522.43 1256.05 1522.22 Q1256.24 1521.99 1256.38 1521.96 Q1256.54 1521.94 1256.78 1521.94 Q1257.55 1521.94 1259.17 1522.01 Q1260.78 1522.08 1261.58 1522.08 Q1262.24 1522.08 1263.57 1522.01 Q1264.91 1521.94 1265.51 1521.94 Q1266.15 1521.94 1266.15 1522.52 Z" fill="#000000" fill-rule="evenodd" fill-opacity="1" /><path clip-path="url(#clip160)" d="M2007.17 1522.38 Q2007.17 1522.52 2007.03 1523.09 L1980.22 1553.07 L1988.41 1553.07 Q1990.83 1553.07 1992.65 1552.65 Q1994.48 1552.2 1995.74 1551.45 Q1997.01 1550.7 1997.99 1549.41 Q1999 1548.1 1999.66 1546.67 Q2000.31 1545.22 2000.99 1543.09 Q2001.25 1542.27 2001.37 1542.08 Q2001.48 1541.89 2001.79 1541.89 Q2002.09 1541.89 2002.26 1542.08 Q2002.42 1542.25 2002.42 1542.43 Q2002.42 1542.53 2002.37 1542.67 Q2002.35 1542.78 2002.3 1542.92 Q2002.26 1543.07 2002.23 1543.14 L1998.81 1553.75 Q1998.6 1554.43 1998.39 1554.57 Q1998.18 1554.71 1997.34 1554.71 L1976.47 1554.71 Q1975.74 1554.71 1975.51 1554.66 Q1975.27 1554.59 1975.27 1554.28 L1975.46 1553.42 L2002.28 1523.44 L1994.46 1523.44 Q1992.25 1523.44 1990.52 1523.84 Q1988.81 1524.21 1987.59 1524.91 Q1986.38 1525.59 1985.44 1526.74 Q1984.5 1527.86 1983.87 1529.18 Q1983.24 1530.46 1982.65 1532.27 L1982.58 1532.38 Q1982.51 1532.5 1982.46 1532.57 Q1982.42 1532.62 1982.3 1532.69 Q1982.18 1532.74 1982.04 1532.74 Q1981.78 1532.74 1981.62 1532.6 Q1981.48 1532.46 1981.48 1532.31 L1981.46 1532.2 Q1981.5 1531.78 1981.6 1531.54 L1984.24 1522.9 Q1984.45 1522.22 1984.67 1522.08 Q1984.88 1521.94 1985.72 1521.94 L2005.98 1521.94 Q2006.73 1521.94 2006.94 1522.01 Q2007.17 1522.08 2007.17 1522.38 Z" fill="#000000" fill-rule="evenodd" fill-opacity="1" /><polyline clip-path="url(#clip163)" style="stroke:#000000; stroke-linecap:butt; stroke-linejoin:round; stroke-width:2; stroke-opacity:0.1; fill:none" points="
  137.362,1306.55 2352.76,1306.55 
  "/>
<polyline clip-path="url(#clip163)" style="stroke:#000000; stroke-linecap:butt; stroke-linejoin:round; stroke-width:2; stroke-opacity:0.1; fill:none" points="
  137.362,1036.7 2352.76,1036.7 
  "/>
<polyline clip-path="url(#clip163)" style="stroke:#000000; stroke-linecap:butt; stroke-linejoin:round; stroke-width:2; stroke-opacity:0.1; fill:none" points="
  137.362,766.846 2352.76,766.846 
  "/>
<polyline clip-path="url(#clip163)" style="stroke:#000000; stroke-linecap:butt; stroke-linejoin:round; stroke-width:2; stroke-opacity:0.1; fill:none" points="
  137.362,496.995 2352.76,496.995 
  "/>
<polyline clip-path="url(#clip163)" style="stroke:#000000; stroke-linecap:butt; stroke-linejoin:round; stroke-width:2; stroke-opacity:0.1; fill:none" points="
  137.362,227.145 2352.76,227.145 
  "/>
<polyline clip-path="url(#clip160)" style="stroke:#000000; stroke-linecap:butt; stroke-linejoin:round; stroke-width:4; stroke-opacity:1; fill:none" points="
  137.362,1486.45 137.362,47.2441 
  "/>
<polyline clip-path="url(#clip160)" style="stroke:#000000; stroke-linecap:butt; stroke-linejoin:round; stroke-width:4; stroke-opacity:1; fill:none" points="
  137.362,1306.55 156.26,1306.55 
  "/>
<polyline clip-path="url(#clip160)" style="stroke:#000000; stroke-linecap:butt; stroke-linejoin:round; stroke-width:4; stroke-opacity:1; fill:none" points="
  137.362,1036.7 156.26,1036.7 
  "/>
<polyline clip-path="url(#clip160)" style="stroke:#000000; stroke-linecap:butt; stroke-linejoin:round; stroke-width:4; stroke-opacity:1; fill:none" points="
  137.362,766.846 156.26,766.846 
  "/>
<polyline clip-path="url(#clip160)" style="stroke:#000000; stroke-linecap:butt; stroke-linejoin:round; stroke-width:4; stroke-opacity:1; fill:none" points="
  137.362,496.995 156.26,496.995 
  "/>
<polyline clip-path="url(#clip160)" style="stroke:#000000; stroke-linecap:butt; stroke-linejoin:round; stroke-width:4; stroke-opacity:1; fill:none" points="
  137.362,227.145 156.26,227.145 
  "/>
<path clip-path="url(#clip160)" d="M89.4178 1292.35 Q85.8068 1292.35 83.9781 1295.91 Q82.1725 1299.45 82.1725 1306.58 Q82.1725 1313.69 83.9781 1317.25 Q85.8068 1320.8 89.4178 1320.8 Q93.0521 1320.8 94.8576 1317.25 Q96.6863 1313.69 96.6863 1306.58 Q96.6863 1299.45 94.8576 1295.91 Q93.0521 1292.35 89.4178 1292.35 M89.4178 1288.64 Q95.228 1288.64 98.2835 1293.25 Q101.362 1297.83 101.362 1306.58 Q101.362 1315.31 98.2835 1319.92 Q95.228 1324.5 89.4178 1324.5 Q83.6077 1324.5 80.529 1319.92 Q77.4735 1315.31 77.4735 1306.58 Q77.4735 1297.83 80.529 1293.25 Q83.6077 1288.64 89.4178 1288.64 Z" fill="#000000" fill-rule="evenodd" fill-opacity="1" /><path clip-path="url(#clip160)" d="M94.2326 1035.34 Q97.5891 1036.06 99.4641 1038.33 Q101.362 1040.6 101.362 1043.93 Q101.362 1049.05 97.8437 1051.85 Q94.3252 1054.65 87.8438 1054.65 Q85.6679 1054.65 83.3531 1054.21 Q81.0614 1053.79 78.6077 1052.94 L78.6077 1048.42 Q80.5522 1049.56 82.867 1050.13 Q85.1818 1050.71 87.7049 1050.71 Q92.103 1050.71 94.3947 1048.98 Q96.7095 1047.24 96.7095 1043.93 Q96.7095 1040.87 94.5567 1039.16 Q92.4271 1037.43 88.6077 1037.43 L84.5799 1037.43 L84.5799 1033.58 L88.7928 1033.58 Q92.2419 1033.58 94.0706 1032.22 Q95.8993 1030.83 95.8993 1028.24 Q95.8993 1025.57 94.0012 1024.16 Q92.1262 1022.73 88.6077 1022.73 Q86.6864 1022.73 84.4873 1023.14 Q82.2883 1023.56 79.6494 1024.44 L79.6494 1020.27 Q82.3114 1019.53 84.6262 1019.16 Q86.9642 1018.79 89.0243 1018.79 Q94.3484 1018.79 97.4502 1021.22 Q100.552 1023.63 100.552 1027.75 Q100.552 1030.62 98.9085 1032.61 Q97.265 1034.58 94.2326 1035.34 Z" fill="#000000" fill-rule="evenodd" fill-opacity="1" /><path clip-path="url(#clip160)" d="M89.8345 764.983 Q86.6864 764.983 84.8345 767.135 Q83.0058 769.288 83.0058 773.038 Q83.0058 776.765 84.8345 778.941 Q86.6864 781.094 89.8345 781.094 Q92.9826 781.094 94.8113 778.941 Q96.6632 776.765 96.6632 773.038 Q96.6632 769.288 94.8113 767.135 Q92.9826 764.983 89.8345 764.983 M99.1169 750.33 L99.1169 754.589 Q97.3576 753.756 95.5521 753.316 Q93.7697 752.876 92.0104 752.876 Q87.3808 752.876 84.9271 756.001 Q82.4966 759.126 82.1494 765.446 Q83.5151 763.432 85.5753 762.367 Q87.6354 761.279 90.1123 761.279 Q95.3206 761.279 98.3298 764.45 Q101.362 767.598 101.362 773.038 Q101.362 778.362 98.2141 781.58 Q95.066 784.797 89.8345 784.797 Q83.8392 784.797 80.6679 780.214 Q77.4966 775.608 77.4966 766.881 Q77.4966 758.686 81.3855 753.825 Q85.2743 748.941 91.8252 748.941 Q93.5845 748.941 95.3669 749.288 Q97.1724 749.635 99.1169 750.33 Z" fill="#000000" fill-rule="evenodd" fill-opacity="1" /><path clip-path="url(#clip160)" d="M79.742 513.558 L79.742 509.298 Q81.5012 510.132 83.3068 510.572 Q85.1123 511.011 86.8484 511.011 Q91.478 511.011 93.9086 507.91 Q96.3623 504.785 96.7095 498.442 Q95.3669 500.433 93.3067 501.498 Q91.2465 502.562 88.7466 502.562 Q83.5614 502.562 80.529 499.437 Q77.5198 496.289 77.5198 490.849 Q77.5198 485.525 80.6679 482.308 Q83.816 479.09 89.0475 479.09 Q95.0428 479.09 98.1909 483.697 Q101.362 488.28 101.362 497.03 Q101.362 505.201 97.4734 510.085 Q93.6076 514.947 87.0567 514.947 Q85.2975 514.947 83.492 514.599 Q81.6864 514.252 79.742 513.558 M89.0475 498.905 Q92.1956 498.905 94.0243 496.752 Q95.8761 494.599 95.8761 490.849 Q95.8761 487.123 94.0243 484.97 Q92.1956 482.794 89.0475 482.794 Q85.8993 482.794 84.0475 484.97 Q82.2188 487.123 82.2188 490.849 Q82.2188 494.599 84.0475 496.752 Q85.8993 498.905 89.0475 498.905 Z" fill="#000000" fill-rule="evenodd" fill-opacity="1" /><path clip-path="url(#clip160)" d="M51.6634 240.489 L59.3023 240.489 L59.3023 214.124 L50.9921 215.79 L50.9921 211.531 L59.256 209.865 L63.9319 209.865 L63.9319 240.489 L71.5707 240.489 L71.5707 244.425 L51.6634 244.425 L51.6634 240.489 Z" fill="#000000" fill-rule="evenodd" fill-opacity="1" /><path clip-path="url(#clip160)" d="M85.0429 240.489 L101.362 240.489 L101.362 244.425 L79.4179 244.425 L79.4179 240.489 Q82.0799 237.735 86.6632 233.105 Q91.2697 228.452 92.4502 227.11 Q94.6956 224.587 95.5752 222.851 Q96.478 221.091 96.478 219.402 Q96.478 216.647 94.5336 214.911 Q92.6123 213.175 89.5104 213.175 Q87.3114 213.175 84.8577 213.939 Q82.4271 214.703 79.6494 216.253 L79.6494 211.531 Q82.4734 210.397 84.9271 209.818 Q87.3808 209.24 89.4178 209.24 Q94.7882 209.24 97.9826 211.925 Q101.177 214.61 101.177 219.101 Q101.177 221.23 100.367 223.152 Q99.5798 225.05 97.4734 227.642 Q96.8947 228.314 93.7928 231.531 Q90.691 234.726 85.0429 240.489 Z" fill="#000000" fill-rule="evenodd" fill-opacity="1" /><path clip-path="url(#clip163)" d="
M498.633 1301.35 L349.347 1301.35 L647.918 1301.35 L498.633 1301.35 L498.633 1266.31 L498.633 1301.35  Z
  " fill="#009af9" fill-rule="evenodd" fill-opacity="1"/>
<polyline clip-path="url(#clip163)" style="stroke:#000000; stroke-linecap:butt; stroke-linejoin:round; stroke-width:4; stroke-opacity:1; fill:none" points="
  498.633,1301.35 349.347,1301.35 647.918,1301.35 498.633,1301.35 498.633,1266.31 498.633,1301.35 
  "/>
<path clip-path="url(#clip163)" d="
M797.203 1266.31 L797.203 1217.01 L200.062 1217.01 L200.062 1266.31 L797.203 1266.31 L797.203 1217.01 L797.203 1266.31  Z
  " fill="#009af9" fill-rule="evenodd" fill-opacity="1"/>
<polyline clip-path="url(#clip163)" style="stroke:#000000; stroke-linecap:butt; stroke-linejoin:round; stroke-width:4; stroke-opacity:1; fill:none" points="
  797.203,1266.31 797.203,1217.01 200.062,1217.01 200.062,1266.31 797.203,1266.31 797.203,1217.01 797.203,1266.31 
  "/>
<path clip-path="url(#clip163)" d="
M797.203 1139.19 L200.062 1139.19 L200.062 1217.01 L797.203 1217.01 L797.203 1139.19 L498.633 1139.19 L797.203 1139.19  Z
  " fill="#009af9" fill-rule="evenodd" fill-opacity="1"/>
<polyline clip-path="url(#clip163)" style="stroke:#000000; stroke-linecap:butt; stroke-linejoin:round; stroke-width:4; stroke-opacity:1; fill:none" points="
  797.203,1139.19 200.062,1139.19 200.062,1217.01 797.203,1217.01 797.203,1139.19 498.633,1139.19 797.203,1139.19 
  "/>
<path clip-path="url(#clip163)" d="
M498.633 957.23 L349.347 957.23 L647.918 957.23 L498.633 957.23 L498.633 1139.19 L498.633 957.23  Z
  " fill="#009af9" fill-rule="evenodd" fill-opacity="1"/>
<polyline clip-path="url(#clip163)" style="stroke:#000000; stroke-linecap:butt; stroke-linejoin:round; stroke-width:4; stroke-opacity:1; fill:none" points="
  498.633,957.23 349.347,957.23 647.918,957.23 498.633,957.23 498.633,1139.19 498.633,957.23 
  "/>
<path clip-path="url(#clip163)" d="
M1245.06 1364.51 L1095.77 1364.51 L1394.34 1364.51 L1245.06 1364.51 L1245.06 1194.3 L1245.06 1364.51  Z
  " fill="#009af9" fill-rule="evenodd" fill-opacity="1"/>
<polyline clip-path="url(#clip163)" style="stroke:#000000; stroke-linecap:butt; stroke-linejoin:round; stroke-width:4; stroke-opacity:1; fill:none" points="
  1245.06,1364.51 1095.77,1364.51 1394.34,1364.51 1245.06,1364.51 1245.06,1194.3 1245.06,1364.51 
  "/>
<path clip-path="url(#clip163)" d="
M1543.63 1194.3 L1543.63 1134.3 L946.488 1134.3 L946.488 1194.3 L1543.63 1194.3 L1543.63 1134.3 L1543.63 1194.3  Z
  " fill="#009af9" fill-rule="evenodd" fill-opacity="1"/>
<polyline clip-path="url(#clip163)" style="stroke:#000000; stroke-linecap:butt; stroke-linejoin:round; stroke-width:4; stroke-opacity:1; fill:none" points="
  1543.63,1194.3 1543.63,1134.3 946.488,1134.3 946.488,1194.3 1543.63,1194.3 1543.63,1134.3 1543.63,1194.3 
  "/>
<path clip-path="url(#clip163)" d="
M1543.63 1066.96 L946.488 1066.96 L946.488 1134.3 L1543.63 1134.3 L1543.63 1066.96 L1245.06 1066.96 L1543.63 1066.96  Z
  " fill="#009af9" fill-rule="evenodd" fill-opacity="1"/>
<polyline clip-path="url(#clip163)" style="stroke:#000000; stroke-linecap:butt; stroke-linejoin:round; stroke-width:4; stroke-opacity:1; fill:none" points="
  1543.63,1066.96 946.488,1066.96 946.488,1134.3 1543.63,1134.3 1543.63,1066.96 1245.06,1066.96 1543.63,1066.96 
  "/>
<path clip-path="url(#clip163)" d="
M1245.06 884.953 L1095.77 884.953 L1394.34 884.953 L1245.06 884.953 L1245.06 1066.96 L1245.06 884.953  Z
  " fill="#009af9" fill-rule="evenodd" fill-opacity="1"/>
<polyline clip-path="url(#clip163)" style="stroke:#000000; stroke-linecap:butt; stroke-linejoin:round; stroke-width:4; stroke-opacity:1; fill:none" points="
  1245.06,884.953 1095.77,884.953 1394.34,884.953 1245.06,884.953 1245.06,1066.96 1245.06,884.953 
  "/>
<path clip-path="url(#clip163)" d="
M1991.49 1166.11 L1842.2 1166.11 L2140.77 1166.11 L1991.49 1166.11 L1991.49 1006.18 L1991.49 1166.11  Z
  " fill="#009af9" fill-rule="evenodd" fill-opacity="1"/>
<polyline clip-path="url(#clip163)" style="stroke:#000000; stroke-linecap:butt; stroke-linejoin:round; stroke-width:4; stroke-opacity:1; fill:none" points="
  1991.49,1166.11 1842.2,1166.11 2140.77,1166.11 1991.49,1166.11 1991.49,1006.18 1991.49,1166.11 
  "/>
<path clip-path="url(#clip163)" d="
M2290.06 1006.18 L2290.06 942.993 L1692.91 942.993 L1692.91 1006.18 L2290.06 1006.18 L2290.06 942.993 L2290.06 1006.18  Z
  " fill="#009af9" fill-rule="evenodd" fill-opacity="1"/>
<polyline clip-path="url(#clip163)" style="stroke:#000000; stroke-linecap:butt; stroke-linejoin:round; stroke-width:4; stroke-opacity:1; fill:none" points="
  2290.06,1006.18 2290.06,942.993 1692.91,942.993 1692.91,1006.18 2290.06,1006.18 2290.06,942.993 2290.06,1006.18 
  "/>
<path clip-path="url(#clip163)" d="
M2290.06 886.096 L1692.91 886.096 L1692.91 942.993 L2290.06 942.993 L2290.06 886.096 L1991.49 886.096 L2290.06 886.096  Z
  " fill="#009af9" fill-rule="evenodd" fill-opacity="1"/>
<polyline clip-path="url(#clip163)" style="stroke:#000000; stroke-linecap:butt; stroke-linejoin:round; stroke-width:4; stroke-opacity:1; fill:none" points="
  2290.06,886.096 1692.91,886.096 1692.91,942.993 2290.06,942.993 2290.06,886.096 1991.49,886.096 2290.06,886.096 
  "/>
<path clip-path="url(#clip163)" d="
M1991.49 717.95 L1842.2 717.95 L2140.77 717.95 L1991.49 717.95 L1991.49 886.096 L1991.49 717.95  Z
  " fill="#009af9" fill-rule="evenodd" fill-opacity="1"/>
<polyline clip-path="url(#clip163)" style="stroke:#000000; stroke-linecap:butt; stroke-linejoin:round; stroke-width:4; stroke-opacity:1; fill:none" points="
  1991.49,717.95 1842.2,717.95 2140.77,717.95 1991.49,717.95 1991.49,886.096 1991.49,717.95 
  "/>
<circle clip-path="url(#clip163)" cx="498.633" cy="924.142" r="14" fill="#009af9" fill-rule="evenodd" fill-opacity="1" stroke="#000000" stroke-opacity="1" stroke-width="3.2"/>
<circle clip-path="url(#clip163)" cx="498.633" cy="439.116" r="14" fill="#009af9" fill-rule="evenodd" fill-opacity="1" stroke="#000000" stroke-opacity="1" stroke-width="3.2"/>
<circle clip-path="url(#clip163)" cx="498.633" cy="898.392" r="14" fill="#009af9" fill-rule="evenodd" fill-opacity="1" stroke="#000000" stroke-opacity="1" stroke-width="3.2"/>
<circle clip-path="url(#clip163)" cx="498.633" cy="692.538" r="14" fill="#009af9" fill-rule="evenodd" fill-opacity="1" stroke="#000000" stroke-opacity="1" stroke-width="3.2"/>
<circle clip-path="url(#clip163)" cx="498.633" cy="390.397" r="14" fill="#009af9" fill-rule="evenodd" fill-opacity="1" stroke="#000000" stroke-opacity="1" stroke-width="3.2"/>
<circle clip-path="url(#clip163)" cx="498.633" cy="810.118" r="14" fill="#009af9" fill-rule="evenodd" fill-opacity="1" stroke="#000000" stroke-opacity="1" stroke-width="3.2"/>
<circle clip-path="url(#clip163)" cx="498.633" cy="891.372" r="14" fill="#009af9" fill-rule="evenodd" fill-opacity="1" stroke="#000000" stroke-opacity="1" stroke-width="3.2"/>
<circle clip-path="url(#clip163)" cx="498.633" cy="799.637" r="14" fill="#009af9" fill-rule="evenodd" fill-opacity="1" stroke="#000000" stroke-opacity="1" stroke-width="3.2"/>
<circle clip-path="url(#clip163)" cx="498.633" cy="926.307" r="14" fill="#009af9" fill-rule="evenodd" fill-opacity="1" stroke="#000000" stroke-opacity="1" stroke-width="3.2"/>
<circle clip-path="url(#clip163)" cx="498.633" cy="894.996" r="14" fill="#009af9" fill-rule="evenodd" fill-opacity="1" stroke="#000000" stroke-opacity="1" stroke-width="3.2"/>
<circle clip-path="url(#clip163)" cx="498.633" cy="933.242" r="14" fill="#009af9" fill-rule="evenodd" fill-opacity="1" stroke="#000000" stroke-opacity="1" stroke-width="3.2"/>
<circle clip-path="url(#clip163)" cx="498.633" cy="323.182" r="14" fill="#009af9" fill-rule="evenodd" fill-opacity="1" stroke="#000000" stroke-opacity="1" stroke-width="3.2"/>
<circle clip-path="url(#clip163)" cx="498.633" cy="400.073" r="14" fill="#009af9" fill-rule="evenodd" fill-opacity="1" stroke="#000000" stroke-opacity="1" stroke-width="3.2"/>
<circle clip-path="url(#clip163)" cx="498.633" cy="762.633" r="14" fill="#009af9" fill-rule="evenodd" fill-opacity="1" stroke="#000000" stroke-opacity="1" stroke-width="3.2"/>
<circle clip-path="url(#clip163)" cx="498.633" cy="851.745" r="14" fill="#009af9" fill-rule="evenodd" fill-opacity="1" stroke="#000000" stroke-opacity="1" stroke-width="3.2"/>
<circle clip-path="url(#clip163)" cx="498.633" cy="689.841" r="14" fill="#009af9" fill-rule="evenodd" fill-opacity="1" stroke="#000000" stroke-opacity="1" stroke-width="3.2"/>
<circle clip-path="url(#clip163)" cx="498.633" cy="777.738" r="14" fill="#009af9" fill-rule="evenodd" fill-opacity="1" stroke="#000000" stroke-opacity="1" stroke-width="3.2"/>
<circle clip-path="url(#clip163)" cx="498.633" cy="882.382" r="14" fill="#009af9" fill-rule="evenodd" fill-opacity="1" stroke="#000000" stroke-opacity="1" stroke-width="3.2"/>
<circle clip-path="url(#clip163)" cx="498.633" cy="903.382" r="14" fill="#009af9" fill-rule="evenodd" fill-opacity="1" stroke="#000000" stroke-opacity="1" stroke-width="3.2"/>
<circle clip-path="url(#clip163)" cx="498.633" cy="919.772" r="14" fill="#009af9" fill-rule="evenodd" fill-opacity="1" stroke="#000000" stroke-opacity="1" stroke-width="3.2"/>
<circle clip-path="url(#clip163)" cx="498.633" cy="925.052" r="14" fill="#009af9" fill-rule="evenodd" fill-opacity="1" stroke="#000000" stroke-opacity="1" stroke-width="3.2"/>
<circle clip-path="url(#clip163)" cx="498.633" cy="948.126" r="14" fill="#009af9" fill-rule="evenodd" fill-opacity="1" stroke="#000000" stroke-opacity="1" stroke-width="3.2"/>
<circle clip-path="url(#clip163)" cx="498.633" cy="807.726" r="14" fill="#009af9" fill-rule="evenodd" fill-opacity="1" stroke="#000000" stroke-opacity="1" stroke-width="3.2"/>
<circle clip-path="url(#clip163)" cx="498.633" cy="915.458" r="14" fill="#009af9" fill-rule="evenodd" fill-opacity="1" stroke="#000000" stroke-opacity="1" stroke-width="3.2"/>
<circle clip-path="url(#clip163)" cx="498.633" cy="566.035" r="14" fill="#009af9" fill-rule="evenodd" fill-opacity="1" stroke="#000000" stroke-opacity="1" stroke-width="3.2"/>
<circle clip-path="url(#clip163)" cx="498.633" cy="755.32" r="14" fill="#009af9" fill-rule="evenodd" fill-opacity="1" stroke="#000000" stroke-opacity="1" stroke-width="3.2"/>
<circle clip-path="url(#clip163)" cx="498.633" cy="331.235" r="14" fill="#009af9" fill-rule="evenodd" fill-opacity="1" stroke="#000000" stroke-opacity="1" stroke-width="3.2"/>
<circle clip-path="url(#clip163)" cx="498.633" cy="402.474" r="14" fill="#009af9" fill-rule="evenodd" fill-opacity="1" stroke="#000000" stroke-opacity="1" stroke-width="3.2"/>
<circle clip-path="url(#clip163)" cx="498.633" cy="942.686" r="14" fill="#009af9" fill-rule="evenodd" fill-opacity="1" stroke="#000000" stroke-opacity="1" stroke-width="3.2"/>
<circle clip-path="url(#clip163)" cx="498.633" cy="656.797" r="14" fill="#009af9" fill-rule="evenodd" fill-opacity="1" stroke="#000000" stroke-opacity="1" stroke-width="3.2"/>
<circle clip-path="url(#clip163)" cx="498.633" cy="572.377" r="14" fill="#009af9" fill-rule="evenodd" fill-opacity="1" stroke="#000000" stroke-opacity="1" stroke-width="3.2"/>
<circle clip-path="url(#clip163)" cx="498.633" cy="585.898" r="14" fill="#009af9" fill-rule="evenodd" fill-opacity="1" stroke="#000000" stroke-opacity="1" stroke-width="3.2"/>
<circle clip-path="url(#clip163)" cx="498.633" cy="943.698" r="14" fill="#009af9" fill-rule="evenodd" fill-opacity="1" stroke="#000000" stroke-opacity="1" stroke-width="3.2"/>
<circle clip-path="url(#clip163)" cx="498.633" cy="878.824" r="14" fill="#009af9" fill-rule="evenodd" fill-opacity="1" stroke="#000000" stroke-opacity="1" stroke-width="3.2"/>
<circle clip-path="url(#clip163)" cx="498.633" cy="780.092" r="14" fill="#009af9" fill-rule="evenodd" fill-opacity="1" stroke="#000000" stroke-opacity="1" stroke-width="3.2"/>
<circle clip-path="url(#clip163)" cx="498.633" cy="894.21" r="14" fill="#009af9" fill-rule="evenodd" fill-opacity="1" stroke="#000000" stroke-opacity="1" stroke-width="3.2"/>
<circle clip-path="url(#clip163)" cx="498.633" cy="914.946" r="14" fill="#009af9" fill-rule="evenodd" fill-opacity="1" stroke="#000000" stroke-opacity="1" stroke-width="3.2"/>
<circle clip-path="url(#clip163)" cx="498.633" cy="411.817" r="14" fill="#009af9" fill-rule="evenodd" fill-opacity="1" stroke="#000000" stroke-opacity="1" stroke-width="3.2"/>
<circle clip-path="url(#clip163)" cx="1245.06" cy="865.144" r="14" fill="#009af9" fill-rule="evenodd" fill-opacity="1" stroke="#000000" stroke-opacity="1" stroke-width="3.2"/>
<circle clip-path="url(#clip163)" cx="1245.06" cy="842.942" r="14" fill="#009af9" fill-rule="evenodd" fill-opacity="1" stroke="#000000" stroke-opacity="1" stroke-width="3.2"/>
<circle clip-path="url(#clip163)" cx="1991.49" cy="1223.78" r="14" fill="#009af9" fill-rule="evenodd" fill-opacity="1" stroke="#000000" stroke-opacity="1" stroke-width="3.2"/>
<circle clip-path="url(#clip163)" cx="1991.49" cy="1187.23" r="14" fill="#009af9" fill-rule="evenodd" fill-opacity="1" stroke="#000000" stroke-opacity="1" stroke-width="3.2"/>
<circle clip-path="url(#clip163)" cx="1991.49" cy="683.804" r="14" fill="#009af9" fill-rule="evenodd" fill-opacity="1" stroke="#000000" stroke-opacity="1" stroke-width="3.2"/>
<polyline clip-path="url(#clip163)" style="stroke:#009af9; stroke-linecap:butt; stroke-linejoin:round; stroke-width:0; stroke-opacity:1; fill:none" points="
  498.633,1301.35 349.347,1301.35 647.918,1301.35 498.633,1301.35 498.633,1266.31 
  "/>
<polyline clip-path="url(#clip163)" style="stroke:#009af9; stroke-linecap:butt; stroke-linejoin:round; stroke-width:0; stroke-opacity:1; fill:none" points="
  797.203,1266.31 797.203,1217.01 200.062,1217.01 200.062,1266.31 797.203,1266.31 797.203,1217.01 
  "/>
<polyline clip-path="url(#clip163)" style="stroke:#009af9; stroke-linecap:butt; stroke-linejoin:round; stroke-width:0; stroke-opacity:1; fill:none" points="
  797.203,1139.19 200.062,1139.19 200.062,1217.01 797.203,1217.01 797.203,1139.19 498.633,1139.19 
  "/>
<polyline clip-path="url(#clip163)" style="stroke:#009af9; stroke-linecap:butt; stroke-linejoin:round; stroke-width:0; stroke-opacity:1; fill:none" points="
  498.633,957.23 349.347,957.23 647.918,957.23 498.633,957.23 498.633,1139.19 
  "/>
<polyline clip-path="url(#clip163)" style="stroke:#009af9; stroke-linecap:butt; stroke-linejoin:round; stroke-width:0; stroke-opacity:1; fill:none" points="
  1245.06,1364.51 1095.77,1364.51 1394.34,1364.51 1245.06,1364.51 1245.06,1194.3 
  "/>
<polyline clip-path="url(#clip163)" style="stroke:#009af9; stroke-linecap:butt; stroke-linejoin:round; stroke-width:0; stroke-opacity:1; fill:none" points="
  1543.63,1194.3 1543.63,1134.3 946.488,1134.3 946.488,1194.3 1543.63,1194.3 1543.63,1134.3 
  "/>
<polyline clip-path="url(#clip163)" style="stroke:#009af9; stroke-linecap:butt; stroke-linejoin:round; stroke-width:0; stroke-opacity:1; fill:none" points="
  1543.63,1066.96 946.488,1066.96 946.488,1134.3 1543.63,1134.3 1543.63,1066.96 1245.06,1066.96 
  "/>
<polyline clip-path="url(#clip163)" style="stroke:#009af9; stroke-linecap:butt; stroke-linejoin:round; stroke-width:0; stroke-opacity:1; fill:none" points="
  1245.06,884.953 1095.77,884.953 1394.34,884.953 1245.06,884.953 1245.06,1066.96 
  "/>
<polyline clip-path="url(#clip163)" style="stroke:#009af9; stroke-linecap:butt; stroke-linejoin:round; stroke-width:0; stroke-opacity:1; fill:none" points="
  1991.49,1166.11 1842.2,1166.11 2140.77,1166.11 1991.49,1166.11 1991.49,1006.18 
  "/>
<polyline clip-path="url(#clip163)" style="stroke:#009af9; stroke-linecap:butt; stroke-linejoin:round; stroke-width:0; stroke-opacity:1; fill:none" points="
  2290.06,1006.18 2290.06,942.993 1692.91,942.993 1692.91,1006.18 2290.06,1006.18 2290.06,942.993 
  "/>
<polyline clip-path="url(#clip163)" style="stroke:#009af9; stroke-linecap:butt; stroke-linejoin:round; stroke-width:0; stroke-opacity:1; fill:none" points="
  2290.06,886.096 1692.91,886.096 1692.91,942.993 2290.06,942.993 2290.06,886.096 1991.49,886.096 
  "/>
<polyline clip-path="url(#clip163)" style="stroke:#009af9; stroke-linecap:butt; stroke-linejoin:round; stroke-width:0; stroke-opacity:1; fill:none" points="
  1991.49,717.95 1842.2,717.95 2140.77,717.95 1991.49,717.95 1991.49,886.096 
  "/>
</svg>
