<?xml version="1.0" encoding="utf-8"?>
<svg xmlns="http://www.w3.org/2000/svg" xmlns:xlink="http://www.w3.org/1999/xlink" width="600" height="400" viewBox="0 0 2400 1600">
<defs>
  <clipPath id="clip710">
    <rect x="0" y="0" width="2400" height="1600"/>
  </clipPath>
</defs>
<path clip-path="url(#clip710)" d="
M0 1600 L2400 1600 L2400 0 L0 0  Z
  " fill="#ffffff" fill-rule="evenodd" fill-opacity="1"/>
<defs>
  <clipPath id="clip711">
    <rect x="480" y="0" width="1681" height="1600"/>
  </clipPath>
</defs>
<defs>
  <clipPath id="clip712">
    <rect x="174" y="47" width="2180" height="1377"/>
  </clipPath>
</defs>
<path clip-path="url(#clip710)" d="
M242.135 1423.18 L2352.76 1423.18 L2352.76 47.2441 L242.135 47.2441  Z
  " fill="#ffffff" fill-rule="evenodd" fill-opacity="1"/>
<defs>
  <clipPath id="clip713">
    <rect x="242" y="47" width="2112" height="1377"/>
  </clipPath>
</defs>
<polyline clip-path="url(#clip713)" style="stroke:#000000; stroke-linecap:round; stroke-linejoin:round; stroke-width:2; stroke-opacity:0.1; fill:none" points="
  300.873,1423.18 300.873,47.2441 
  "/>
<polyline clip-path="url(#clip713)" style="stroke:#000000; stroke-linecap:round; stroke-linejoin:round; stroke-width:2; stroke-opacity:0.1; fill:none" points="
  798.91,1423.18 798.91,47.2441 
  "/>
<polyline clip-path="url(#clip713)" style="stroke:#000000; stroke-linecap:round; stroke-linejoin:round; stroke-width:2; stroke-opacity:0.1; fill:none" points="
  1296.95,1423.18 1296.95,47.2441 
  "/>
<polyline clip-path="url(#clip713)" style="stroke:#000000; stroke-linecap:round; stroke-linejoin:round; stroke-width:2; stroke-opacity:0.1; fill:none" points="
  1794.98,1423.18 1794.98,47.2441 
  "/>
<polyline clip-path="url(#clip713)" style="stroke:#000000; stroke-linecap:round; stroke-linejoin:round; stroke-width:2; stroke-opacity:0.1; fill:none" points="
  2293.02,1423.18 2293.02,47.2441 
  "/>
<polyline clip-path="url(#clip710)" style="stroke:#000000; stroke-linecap:round; stroke-linejoin:round; stroke-width:4; stroke-opacity:1; fill:none" points="
  242.135,1423.18 2352.76,1423.18 
  "/>
<polyline clip-path="url(#clip710)" style="stroke:#000000; stroke-linecap:round; stroke-linejoin:round; stroke-width:4; stroke-opacity:1; fill:none" points="
  300.873,1423.18 300.873,1404.28 
  "/>
<polyline clip-path="url(#clip710)" style="stroke:#000000; stroke-linecap:round; stroke-linejoin:round; stroke-width:4; stroke-opacity:1; fill:none" points="
  798.91,1423.18 798.91,1404.28 
  "/>
<polyline clip-path="url(#clip710)" style="stroke:#000000; stroke-linecap:round; stroke-linejoin:round; stroke-width:4; stroke-opacity:1; fill:none" points="
  1296.95,1423.18 1296.95,1404.28 
  "/>
<polyline clip-path="url(#clip710)" style="stroke:#000000; stroke-linecap:round; stroke-linejoin:round; stroke-width:4; stroke-opacity:1; fill:none" points="
  1794.98,1423.18 1794.98,1404.28 
  "/>
<polyline clip-path="url(#clip710)" style="stroke:#000000; stroke-linecap:round; stroke-linejoin:round; stroke-width:4; stroke-opacity:1; fill:none" points="
  2293.02,1423.18 2293.02,1404.28 
  "/>
<path clip-path="url(#clip710)" d="M300.873 1454.1 Q297.262 1454.1 295.433 1457.66 Q293.628 1461.2 293.628 1468.33 Q293.628 1475.44 295.433 1479.01 Q297.262 1482.55 300.873 1482.55 Q304.507 1482.55 306.313 1479.01 Q308.142 1475.44 308.142 1468.33 Q308.142 1461.2 306.313 1457.66 Q304.507 1454.1 300.873 1454.1 M300.873 1450.39 Q306.683 1450.39 309.739 1455 Q312.818 1459.58 312.818 1468.33 Q312.818 1477.06 309.739 1481.67 Q306.683 1486.25 300.873 1486.25 Q295.063 1486.25 291.984 1481.67 Q288.929 1477.06 288.929 1468.33 Q288.929 1459.58 291.984 1455 Q295.063 1450.39 300.873 1450.39 Z" fill="#000000" fill-rule="evenodd" fill-opacity="1" /><path clip-path="url(#clip710)" d="M758.528 1451.02 L776.885 1451.02 L776.885 1454.96 L762.811 1454.96 L762.811 1463.43 Q763.829 1463.08 764.848 1462.92 Q765.866 1462.73 766.885 1462.73 Q772.672 1462.73 776.052 1465.9 Q779.431 1469.08 779.431 1474.49 Q779.431 1480.07 775.959 1483.17 Q772.487 1486.25 766.167 1486.25 Q763.991 1486.25 761.723 1485.88 Q759.478 1485.51 757.07 1484.77 L757.07 1480.07 Q759.153 1481.2 761.376 1481.76 Q763.598 1482.32 766.075 1482.32 Q770.079 1482.32 772.417 1480.21 Q774.755 1478.1 774.755 1474.49 Q774.755 1470.88 772.417 1468.77 Q770.079 1466.67 766.075 1466.67 Q764.2 1466.67 762.325 1467.08 Q760.473 1467.5 758.528 1468.38 L758.528 1451.02 Z" fill="#000000" fill-rule="evenodd" fill-opacity="1" /><path clip-path="url(#clip710)" d="M798.644 1454.1 Q795.033 1454.1 793.204 1457.66 Q791.399 1461.2 791.399 1468.33 Q791.399 1475.44 793.204 1479.01 Q795.033 1482.55 798.644 1482.55 Q802.278 1482.55 804.084 1479.01 Q805.912 1475.44 805.912 1468.33 Q805.912 1461.2 804.084 1457.66 Q802.278 1454.1 798.644 1454.1 M798.644 1450.39 Q804.454 1450.39 807.51 1455 Q810.588 1459.58 810.588 1468.33 Q810.588 1477.06 807.51 1481.67 Q804.454 1486.25 798.644 1486.25 Q792.834 1486.25 789.755 1481.67 Q786.7 1477.06 786.7 1468.33 Q786.7 1459.58 789.755 1455 Q792.834 1450.39 798.644 1450.39 Z" fill="#000000" fill-rule="evenodd" fill-opacity="1" /><path clip-path="url(#clip710)" d="M828.806 1454.1 Q825.195 1454.1 823.366 1457.66 Q821.561 1461.2 821.561 1468.33 Q821.561 1475.44 823.366 1479.01 Q825.195 1482.55 828.806 1482.55 Q832.44 1482.55 834.246 1479.01 Q836.074 1475.44 836.074 1468.33 Q836.074 1461.2 834.246 1457.66 Q832.44 1454.1 828.806 1454.1 M828.806 1450.39 Q834.616 1450.39 837.672 1455 Q840.75 1459.58 840.75 1468.33 Q840.75 1477.06 837.672 1481.67 Q834.616 1486.25 828.806 1486.25 Q822.996 1486.25 819.917 1481.67 Q816.861 1477.06 816.861 1468.33 Q816.861 1459.58 819.917 1455 Q822.996 1450.39 828.806 1450.39 Z" fill="#000000" fill-rule="evenodd" fill-opacity="1" /><path clip-path="url(#clip710)" d="M1241.47 1481.64 L1249.11 1481.64 L1249.11 1455.28 L1240.8 1456.95 L1240.8 1452.69 L1249.07 1451.02 L1253.74 1451.02 L1253.74 1481.64 L1261.38 1481.64 L1261.38 1485.58 L1241.47 1485.58 L1241.47 1481.64 Z" fill="#000000" fill-rule="evenodd" fill-opacity="1" /><path clip-path="url(#clip710)" d="M1280.82 1454.1 Q1277.21 1454.1 1275.38 1457.66 Q1273.58 1461.2 1273.58 1468.33 Q1273.58 1475.44 1275.38 1479.01 Q1277.21 1482.55 1280.82 1482.55 Q1284.46 1482.55 1286.26 1479.01 Q1288.09 1475.44 1288.09 1468.33 Q1288.09 1461.2 1286.26 1457.66 Q1284.46 1454.1 1280.82 1454.1 M1280.82 1450.39 Q1286.63 1450.39 1289.69 1455 Q1292.77 1459.58 1292.77 1468.33 Q1292.77 1477.06 1289.69 1481.67 Q1286.63 1486.25 1280.82 1486.25 Q1275.01 1486.25 1271.94 1481.67 Q1268.88 1477.06 1268.88 1468.33 Q1268.88 1459.58 1271.94 1455 Q1275.01 1450.39 1280.82 1450.39 Z" fill="#000000" fill-rule="evenodd" fill-opacity="1" /><path clip-path="url(#clip710)" d="M1310.99 1454.1 Q1307.38 1454.1 1305.55 1457.66 Q1303.74 1461.2 1303.74 1468.33 Q1303.74 1475.44 1305.55 1479.01 Q1307.38 1482.55 1310.99 1482.55 Q1314.62 1482.55 1316.43 1479.01 Q1318.26 1475.44 1318.26 1468.33 Q1318.26 1461.2 1316.43 1457.66 Q1314.62 1454.1 1310.99 1454.1 M1310.99 1450.39 Q1316.8 1450.39 1319.85 1455 Q1322.93 1459.58 1322.93 1468.33 Q1322.93 1477.06 1319.85 1481.67 Q1316.8 1486.25 1310.99 1486.25 Q1305.18 1486.25 1302.1 1481.67 Q1299.04 1477.06 1299.04 1468.33 Q1299.04 1459.58 1302.1 1455 Q1305.18 1450.39 1310.99 1450.39 Z" fill="#000000" fill-rule="evenodd" fill-opacity="1" /><path clip-path="url(#clip710)" d="M1341.15 1454.1 Q1337.54 1454.1 1335.71 1457.66 Q1333.9 1461.2 1333.9 1468.33 Q1333.9 1475.44 1335.71 1479.01 Q1337.54 1482.55 1341.15 1482.55 Q1344.78 1482.55 1346.59 1479.01 Q1348.42 1475.44 1348.42 1468.33 Q1348.42 1461.2 1346.59 1457.66 Q1344.78 1454.1 1341.15 1454.1 M1341.15 1450.39 Q1346.96 1450.39 1350.01 1455 Q1353.09 1459.58 1353.09 1468.33 Q1353.09 1477.06 1350.01 1481.67 Q1346.96 1486.25 1341.15 1486.25 Q1335.34 1486.25 1332.26 1481.67 Q1329.2 1477.06 1329.2 1468.33 Q1329.2 1459.58 1332.26 1455 Q1335.34 1450.39 1341.15 1450.39 Z" fill="#000000" fill-rule="evenodd" fill-opacity="1" /><path clip-path="url(#clip710)" d="M1739.51 1481.64 L1747.15 1481.64 L1747.15 1455.28 L1738.84 1456.95 L1738.84 1452.69 L1747.1 1451.02 L1751.78 1451.02 L1751.78 1481.64 L1759.42 1481.64 L1759.42 1485.58 L1739.51 1485.58 L1739.51 1481.64 Z" fill="#000000" fill-rule="evenodd" fill-opacity="1" /><path clip-path="url(#clip710)" d="M1768.91 1451.02 L1787.26 1451.02 L1787.26 1454.96 L1773.19 1454.96 L1773.19 1463.43 Q1774.21 1463.08 1775.23 1462.92 Q1776.25 1462.73 1777.26 1462.73 Q1783.05 1462.73 1786.43 1465.9 Q1789.81 1469.08 1789.81 1474.49 Q1789.81 1480.07 1786.34 1483.17 Q1782.87 1486.25 1776.55 1486.25 Q1774.37 1486.25 1772.1 1485.88 Q1769.86 1485.51 1767.45 1484.77 L1767.45 1480.07 Q1769.53 1481.2 1771.76 1481.76 Q1773.98 1482.32 1776.45 1482.32 Q1780.46 1482.32 1782.8 1480.21 Q1785.13 1478.1 1785.13 1474.49 Q1785.13 1470.88 1782.8 1468.77 Q1780.46 1466.67 1776.45 1466.67 Q1774.58 1466.67 1772.7 1467.08 Q1770.85 1467.5 1768.91 1468.38 L1768.91 1451.02 Z" fill="#000000" fill-rule="evenodd" fill-opacity="1" /><path clip-path="url(#clip710)" d="M1809.02 1454.1 Q1805.41 1454.1 1803.58 1457.66 Q1801.78 1461.2 1801.78 1468.33 Q1801.78 1475.44 1803.58 1479.01 Q1805.41 1482.55 1809.02 1482.55 Q1812.66 1482.55 1814.46 1479.01 Q1816.29 1475.44 1816.29 1468.33 Q1816.29 1461.2 1814.46 1457.66 Q1812.66 1454.1 1809.02 1454.1 M1809.02 1450.39 Q1814.83 1450.39 1817.89 1455 Q1820.97 1459.58 1820.97 1468.33 Q1820.97 1477.06 1817.89 1481.67 Q1814.83 1486.25 1809.02 1486.25 Q1803.21 1486.25 1800.13 1481.67 Q1797.08 1477.06 1797.08 1468.33 Q1797.08 1459.58 1800.13 1455 Q1803.21 1450.39 1809.02 1450.39 Z" fill="#000000" fill-rule="evenodd" fill-opacity="1" /><path clip-path="url(#clip710)" d="M1839.19 1454.1 Q1835.57 1454.1 1833.75 1457.66 Q1831.94 1461.2 1831.94 1468.33 Q1831.94 1475.44 1833.75 1479.01 Q1835.57 1482.55 1839.19 1482.55 Q1842.82 1482.55 1844.63 1479.01 Q1846.45 1475.44 1846.45 1468.33 Q1846.45 1461.2 1844.63 1457.66 Q1842.82 1454.1 1839.19 1454.1 M1839.19 1450.39 Q1845 1450.39 1848.05 1455 Q1851.13 1459.58 1851.13 1468.33 Q1851.13 1477.06 1848.05 1481.67 Q1845 1486.25 1839.19 1486.25 Q1833.38 1486.25 1830.3 1481.67 Q1827.24 1477.06 1827.24 1468.33 Q1827.24 1459.58 1830.3 1455 Q1833.38 1450.39 1839.19 1450.39 Z" fill="#000000" fill-rule="evenodd" fill-opacity="1" /><path clip-path="url(#clip710)" d="M2241.63 1481.64 L2257.95 1481.64 L2257.95 1485.58 L2236.01 1485.58 L2236.01 1481.64 Q2238.67 1478.89 2243.25 1474.26 Q2247.86 1469.61 2249.04 1468.27 Q2251.29 1465.74 2252.17 1464.01 Q2253.07 1462.25 2253.07 1460.56 Q2253.07 1457.8 2251.12 1456.07 Q2249.2 1454.33 2246.1 1454.33 Q2243.9 1454.33 2241.45 1455.09 Q2239.02 1455.86 2236.24 1457.41 L2236.24 1452.69 Q2239.06 1451.55 2241.52 1450.97 Q2243.97 1450.39 2246.01 1450.39 Q2251.38 1450.39 2254.57 1453.08 Q2257.77 1455.77 2257.77 1460.26 Q2257.77 1462.39 2256.96 1464.31 Q2256.17 1466.2 2254.06 1468.8 Q2253.48 1469.47 2250.38 1472.69 Q2247.28 1475.88 2241.63 1481.64 Z" fill="#000000" fill-rule="evenodd" fill-opacity="1" /><path clip-path="url(#clip710)" d="M2277.77 1454.1 Q2274.16 1454.1 2272.33 1457.66 Q2270.52 1461.2 2270.52 1468.33 Q2270.52 1475.44 2272.33 1479.01 Q2274.16 1482.55 2277.77 1482.55 Q2281.4 1482.55 2283.21 1479.01 Q2285.04 1475.44 2285.04 1468.33 Q2285.04 1461.2 2283.21 1457.66 Q2281.4 1454.1 2277.77 1454.1 M2277.77 1450.39 Q2283.58 1450.39 2286.63 1455 Q2289.71 1459.58 2289.71 1468.33 Q2289.71 1477.06 2286.63 1481.67 Q2283.58 1486.25 2277.77 1486.25 Q2271.96 1486.25 2268.88 1481.67 Q2265.82 1477.06 2265.82 1468.33 Q2265.82 1459.58 2268.88 1455 Q2271.96 1450.39 2277.77 1450.39 Z" fill="#000000" fill-rule="evenodd" fill-opacity="1" /><path clip-path="url(#clip710)" d="M2307.93 1454.1 Q2304.32 1454.1 2302.49 1457.66 Q2300.68 1461.2 2300.68 1468.33 Q2300.68 1475.44 2302.49 1479.01 Q2304.32 1482.55 2307.93 1482.55 Q2311.56 1482.55 2313.37 1479.01 Q2315.2 1475.44 2315.2 1468.33 Q2315.2 1461.2 2313.37 1457.66 Q2311.56 1454.1 2307.93 1454.1 M2307.93 1450.39 Q2313.74 1450.39 2316.79 1455 Q2319.87 1459.58 2319.87 1468.33 Q2319.87 1477.06 2316.79 1481.67 Q2313.74 1486.25 2307.93 1486.25 Q2302.12 1486.25 2299.04 1481.67 Q2295.98 1477.06 2295.98 1468.33 Q2295.98 1459.58 2299.04 1455 Q2302.12 1450.39 2307.93 1450.39 Z" fill="#000000" fill-rule="evenodd" fill-opacity="1" /><path clip-path="url(#clip710)" d="M2338.09 1454.1 Q2334.48 1454.1 2332.65 1457.66 Q2330.85 1461.2 2330.85 1468.33 Q2330.85 1475.44 2332.65 1479.01 Q2334.48 1482.55 2338.09 1482.55 Q2341.72 1482.55 2343.53 1479.01 Q2345.36 1475.44 2345.36 1468.33 Q2345.36 1461.2 2343.53 1457.66 Q2341.72 1454.1 2338.09 1454.1 M2338.09 1450.39 Q2343.9 1450.39 2346.96 1455 Q2350.03 1459.58 2350.03 1468.33 Q2350.03 1477.06 2346.96 1481.67 Q2343.9 1486.25 2338.09 1486.25 Q2332.28 1486.25 2329.2 1481.67 Q2326.15 1477.06 2326.15 1468.33 Q2326.15 1459.58 2329.2 1455 Q2332.28 1450.39 2338.09 1450.39 Z" fill="#000000" fill-rule="evenodd" fill-opacity="1" /><path clip-path="url(#clip710)" d="M1311.62 1528.8 Q1311.62 1530.61 1310.49 1531.64 Q1309.36 1532.64 1308.08 1532.64 Q1306.85 1532.64 1306.21 1531.93 Q1305.56 1531.22 1305.56 1530.32 Q1305.56 1529.09 1306.47 1528.03 Q1307.37 1526.97 1308.72 1526.74 Q1307.4 1525.91 1305.44 1525.91 Q1304.15 1525.91 1303.02 1526.58 Q1301.92 1527.26 1301.25 1528.13 Q1300.6 1529 1300.02 1530.25 Q1299.48 1531.48 1299.25 1532.22 Q1299.06 1532.93 1298.9 1533.7 L1296.64 1542.72 Q1295.55 1547 1295.55 1548.51 Q1295.55 1550.38 1296.45 1551.64 Q1297.35 1552.86 1299.16 1552.86 Q1299.86 1552.86 1300.67 1552.67 Q1301.47 1552.44 1302.5 1551.86 Q1303.57 1551.25 1304.5 1550.35 Q1305.47 1549.42 1306.4 1547.84 Q1307.34 1546.26 1307.95 1544.23 Q1308.14 1543.52 1308.78 1543.52 Q1309.59 1543.52 1309.59 1544.17 Q1309.59 1544.71 1309.14 1545.87 Q1308.72 1547 1307.79 1548.48 Q1306.88 1549.93 1305.69 1551.25 Q1304.5 1552.54 1302.73 1553.44 Q1300.96 1554.34 1299.03 1554.34 Q1296.26 1554.34 1294.42 1552.86 Q1292.59 1551.38 1291.91 1549.32 Q1291.75 1549.61 1291.52 1550 Q1291.3 1550.38 1290.62 1551.25 Q1289.98 1552.09 1289.24 1552.73 Q1288.49 1553.34 1287.34 1553.83 Q1286.21 1554.34 1284.98 1554.34 Q1283.44 1554.34 1282.05 1553.89 Q1280.7 1553.44 1279.73 1552.41 Q1278.77 1551.38 1278.77 1549.96 Q1278.77 1548.38 1279.83 1547.29 Q1280.93 1546.16 1282.41 1546.16 Q1283.34 1546.16 1284.08 1546.71 Q1284.86 1547.26 1284.86 1548.45 Q1284.86 1549.77 1283.95 1550.77 Q1283.05 1551.77 1281.76 1552.02 Q1283.08 1552.86 1285.05 1552.86 Q1287.17 1552.86 1288.85 1550.99 Q1290.52 1549.13 1291.33 1546 Q1293.33 1538.5 1294.1 1535.15 Q1294.87 1531.77 1294.87 1530.32 Q1294.87 1528.96 1294.52 1528.03 Q1294.16 1527.1 1293.55 1526.68 Q1292.97 1526.23 1292.42 1526.07 Q1291.91 1525.91 1291.33 1525.91 Q1290.36 1525.91 1289.27 1526.29 Q1288.21 1526.68 1286.92 1527.58 Q1285.66 1528.45 1284.47 1530.25 Q1283.28 1532.06 1282.47 1534.54 Q1282.31 1535.28 1281.6 1535.28 Q1280.83 1535.24 1280.83 1534.6 Q1280.83 1534.05 1281.25 1532.93 Q1281.7 1531.77 1282.6 1530.32 Q1283.54 1528.87 1284.73 1527.58 Q1285.95 1526.26 1287.72 1525.36 Q1289.53 1524.46 1291.46 1524.46 Q1292.33 1524.46 1293.16 1524.65 Q1294.03 1524.81 1295.06 1525.29 Q1296.13 1525.78 1297.06 1526.84 Q1298 1527.9 1298.58 1529.45 Q1298.96 1528.71 1299.48 1528 Q1300.02 1527.29 1300.86 1526.42 Q1301.73 1525.52 1302.92 1525 Q1304.15 1524.46 1305.5 1524.46 Q1306.82 1524.46 1308.11 1524.81 Q1309.4 1525.13 1310.49 1526.19 Q1311.62 1527.23 1311.62 1528.8 Z" fill="#000000" fill-rule="evenodd" fill-opacity="1" /><polyline clip-path="url(#clip713)" style="stroke:#000000; stroke-linecap:round; stroke-linejoin:round; stroke-width:2; stroke-opacity:0.1; fill:none" points="
  242.135,1364.53 2352.76,1364.53 
  "/>
<polyline clip-path="url(#clip713)" style="stroke:#000000; stroke-linecap:round; stroke-linejoin:round; stroke-width:2; stroke-opacity:0.1; fill:none" points="
  242.135,984.247 2352.76,984.247 
  "/>
<polyline clip-path="url(#clip713)" style="stroke:#000000; stroke-linecap:round; stroke-linejoin:round; stroke-width:2; stroke-opacity:0.1; fill:none" points="
  242.135,603.966 2352.76,603.966 
  "/>
<polyline clip-path="url(#clip713)" style="stroke:#000000; stroke-linecap:round; stroke-linejoin:round; stroke-width:2; stroke-opacity:0.1; fill:none" points="
  242.135,223.684 2352.76,223.684 
  "/>
<polyline clip-path="url(#clip710)" style="stroke:#000000; stroke-linecap:round; stroke-linejoin:round; stroke-width:4; stroke-opacity:1; fill:none" points="
  242.135,1423.18 242.135,47.2441 
  "/>
<polyline clip-path="url(#clip710)" style="stroke:#000000; stroke-linecap:round; stroke-linejoin:round; stroke-width:4; stroke-opacity:1; fill:none" points="
  242.135,1364.53 261.032,1364.53 
  "/>
<polyline clip-path="url(#clip710)" style="stroke:#000000; stroke-linecap:round; stroke-linejoin:round; stroke-width:4; stroke-opacity:1; fill:none" points="
  242.135,984.247 261.032,984.247 
  "/>
<polyline clip-path="url(#clip710)" style="stroke:#000000; stroke-linecap:round; stroke-linejoin:round; stroke-width:4; stroke-opacity:1; fill:none" points="
  242.135,603.966 261.032,603.966 
  "/>
<polyline clip-path="url(#clip710)" style="stroke:#000000; stroke-linecap:round; stroke-linejoin:round; stroke-width:4; stroke-opacity:1; fill:none" points="
  242.135,223.684 261.032,223.684 
  "/>
<path clip-path="url(#clip710)" d="M114.26 1364.98 L143.936 1364.98 L143.936 1368.91 L114.26 1368.91 L114.26 1364.98 Z" fill="#000000" fill-rule="evenodd" fill-opacity="1" /><path clip-path="url(#clip710)" d="M154.839 1377.87 L162.477 1377.87 L162.477 1351.51 L154.167 1353.17 L154.167 1348.91 L162.431 1347.25 L167.107 1347.25 L167.107 1377.87 L174.746 1377.87 L174.746 1381.81 L154.839 1381.81 L154.839 1377.87 Z" fill="#000000" fill-rule="evenodd" fill-opacity="1" /><path clip-path="url(#clip710)" d="M194.19 1350.33 Q190.579 1350.33 188.75 1353.89 Q186.945 1357.43 186.945 1364.56 Q186.945 1371.67 188.75 1375.23 Q190.579 1378.78 194.19 1378.78 Q197.825 1378.78 199.63 1375.23 Q201.459 1371.67 201.459 1364.56 Q201.459 1357.43 199.63 1353.89 Q197.825 1350.33 194.19 1350.33 M194.19 1346.62 Q200 1346.62 203.056 1351.23 Q206.135 1355.81 206.135 1364.56 Q206.135 1373.29 203.056 1377.9 Q200 1382.48 194.19 1382.48 Q188.38 1382.48 185.301 1377.9 Q182.246 1373.29 182.246 1364.56 Q182.246 1355.81 185.301 1351.23 Q188.38 1346.62 194.19 1346.62 Z" fill="#000000" fill-rule="evenodd" fill-opacity="1" /><path clip-path="url(#clip710)" d="M145.417 984.698 L175.093 984.698 L175.093 988.633 L145.417 988.633 L145.417 984.698 Z" fill="#000000" fill-rule="evenodd" fill-opacity="1" /><path clip-path="url(#clip710)" d="M185.232 966.967 L203.588 966.967 L203.588 970.902 L189.514 970.902 L189.514 979.374 Q190.533 979.027 191.551 978.865 Q192.57 978.68 193.588 978.68 Q199.375 978.68 202.755 981.851 Q206.135 985.022 206.135 990.439 Q206.135 996.018 202.662 999.119 Q199.19 1002.2 192.871 1002.2 Q190.695 1002.2 188.426 1001.83 Q186.181 1001.46 183.774 1000.72 L183.774 996.018 Q185.857 997.152 188.079 997.707 Q190.301 998.263 192.778 998.263 Q196.783 998.263 199.121 996.156 Q201.459 994.05 201.459 990.439 Q201.459 986.828 199.121 984.721 Q196.783 982.615 192.778 982.615 Q190.903 982.615 189.028 983.031 Q187.176 983.448 185.232 984.328 L185.232 966.967 Z" fill="#000000" fill-rule="evenodd" fill-opacity="1" /><path clip-path="url(#clip710)" d="M194.19 589.764 Q190.579 589.764 188.75 593.329 Q186.945 596.871 186.945 604 Q186.945 611.107 188.75 614.672 Q190.579 618.213 194.19 618.213 Q197.825 618.213 199.63 614.672 Q201.459 611.107 201.459 604 Q201.459 596.871 199.63 593.329 Q197.825 589.764 194.19 589.764 M194.19 586.061 Q200 586.061 203.056 590.667 Q206.135 595.25 206.135 604 Q206.135 612.727 203.056 617.334 Q200 621.917 194.19 621.917 Q188.38 621.917 185.301 617.334 Q182.246 612.727 182.246 604 Q182.246 595.25 185.301 590.667 Q188.38 586.061 194.19 586.061 Z" fill="#000000" fill-rule="evenodd" fill-opacity="1" /><path clip-path="url(#clip710)" d="M185.232 206.404 L203.588 206.404 L203.588 210.34 L189.514 210.34 L189.514 218.812 Q190.533 218.464 191.551 218.302 Q192.57 218.117 193.588 218.117 Q199.375 218.117 202.755 221.289 Q206.135 224.46 206.135 229.876 Q206.135 235.455 202.662 238.557 Q199.19 241.636 192.871 241.636 Q190.695 241.636 188.426 241.265 Q186.181 240.895 183.774 240.154 L183.774 235.455 Q185.857 236.589 188.079 237.145 Q190.301 237.7 192.778 237.7 Q196.783 237.7 199.121 235.594 Q201.459 233.488 201.459 229.876 Q201.459 226.265 199.121 224.159 Q196.783 222.052 192.778 222.052 Q190.903 222.052 189.028 222.469 Q187.176 222.886 185.232 223.765 L185.232 206.404 Z" fill="#000000" fill-rule="evenodd" fill-opacity="1" /><path clip-path="url(#clip710)" d="M30.8561 720.775 Q31.307 720.775 32.3698 721.064 L57.5548 727.377 Q63.1586 728.762 67.0877 733.27 Q71.0168 737.747 71.0168 742.836 Q71.0168 745.895 69.3743 747.86 Q67.764 749.824 65.2842 749.824 Q63.0942 749.824 62.0314 748.665 Q61.0008 747.505 61.0008 746.121 Q61.0008 745.67 61.1296 745.187 Q61.2584 744.703 61.8059 744.188 Q62.3534 743.673 63.2874 743.673 Q64.8011 743.673 65.9927 744.993 Q66.5402 745.637 66.669 746.249 Q66.7978 746.829 66.7978 747.827 Q67.6996 747.441 68.3115 746.732 Q68.9234 746.024 69.1489 745.219 Q69.4065 744.414 69.4709 743.898 Q69.5675 743.351 69.5675 742.836 Q69.5675 738.713 65.413 735.557 Q64.157 734.623 62.9009 733.947 Q61.6771 733.238 60.1634 732.723 Q58.682 732.208 57.8768 731.982 Q57.0717 731.725 55.2359 731.274 Q58.2311 734.269 58.2311 737.94 Q58.2311 739.486 57.8124 740.871 Q57.3937 742.224 56.5242 743.415 Q55.6224 744.607 54.0443 745.315 Q52.4662 745.992 50.3728 745.992 Q48.1506 745.992 45.1233 745.122 Q42.0959 744.253 36.5243 742.159 Q33.4004 741.032 31.8867 741.032 Q31.146 741.032 30.6951 741.193 Q30.212 741.354 30.051 741.676 Q29.8577 741.998 29.8255 742.191 Q29.7933 742.352 29.7933 742.675 Q29.7933 744.575 31.7257 746.346 Q33.658 748.117 37.9736 749.341 Q38.7787 749.599 38.972 749.76 Q39.1652 749.921 39.1652 750.404 Q39.133 751.209 38.4889 751.209 Q38.2312 751.209 37.2329 750.919 Q36.2023 750.629 34.6886 749.953 Q33.1427 749.245 31.7579 748.278 Q30.3408 747.312 29.3424 745.798 Q28.344 744.253 28.344 742.481 Q28.344 740.066 29.9221 738.584 Q31.468 737.071 33.7546 737.071 Q34.6886 737.071 35.5259 737.328 Q36.3311 737.554 38.4889 738.391 Q47.1845 741.773 51.4356 741.773 Q52.4662 741.773 53.3358 741.612 Q54.1731 741.418 55.0105 741 Q55.8156 740.581 56.2987 739.744 Q56.7496 738.874 56.7496 737.683 Q56.7496 736.169 56.0411 734.752 Q55.3003 733.303 54.302 732.401 Q53.3036 731.467 52.4662 730.919 Q51.5967 730.34 51.1458 730.211 L39.294 727.248 L34.0123 725.927 Q31.146 725.316 30.4374 725.026 Q29.7611 724.639 29.4068 723.963 Q29.0526 723.287 29.0526 722.707 Q29.0526 721.902 29.5357 721.354 Q30.0187 720.775 30.8561 720.775 Z" fill="#000000" fill-rule="evenodd" fill-opacity="1" /><polyline clip-path="url(#clip713)" style="stroke:#009af9; stroke-linecap:round; stroke-linejoin:round; stroke-width:8; stroke-opacity:1; fill:none" points="
  301.869,603.966 302.865,606.589 303.861,608.553 304.857,626.431 305.854,620.403 306.85,620.12 307.846,609.889 308.842,590.311 309.838,609.149 310.834,679.587 
  311.83,752.539 312.826,752.287 313.822,765.847 314.818,748.045 315.814,705.947 316.81,764.977 317.806,733.407 318.802,665.933 319.799,670.742 320.795,709.74 
  321.791,707.439 322.787,733.04 323.783,759.538 324.779,849.347 325.775,767.179 326.771,691.04 327.767,645.724 328.763,631.516 329.759,571.558 330.755,587.383 
  331.751,537.24 332.748,490.669 333.744,502.256 334.74,465.421 335.736,392.434 336.732,374.111 337.728,381.168 338.724,385.93 339.72,380.989 340.716,369.704 
  341.712,399.496 342.708,458.447 343.704,427.65 344.7,434.967 345.696,339.538 346.693,370.347 347.689,350.207 348.685,375.651 349.681,410.668 350.677,432.181 
  351.673,485.185 352.669,540.697 353.665,554.441 354.661,530.076 355.657,555.927 356.653,538.457 357.649,519.953 358.645,514.112 359.642,571.814 360.638,589.975 
  361.634,543.853 362.63,555.495 363.626,495.355 364.622,444.455 365.618,482.136 366.614,579.408 367.61,513.684 368.606,564.042 369.602,520.609 370.598,611.338 
  371.594,624.84 372.59,630.564 373.587,689.785 374.583,653.911 375.579,613.816 376.575,597.629 377.571,629.315 378.567,608.452 379.563,660.829 380.559,695.984 
  381.555,681.516 382.551,705.26 383.547,691.694 384.543,754.902 385.539,769.129 386.536,807.693 387.532,843.62 388.528,828.852 389.524,900.228 390.52,895.673 
  391.516,892.218 392.512,884.641 393.508,869.74 394.504,848.034 395.5,900.474 396.496,879.592 397.492,906.893 398.488,874.881 399.484,894.407 400.481,847.841 
  401.477,825.867 402.473,809.835 403.469,741.02 404.465,759.346 405.461,771.019 406.457,831.328 407.453,848.369 408.449,797.898 409.445,793.384 410.441,742.936 
  411.437,693.803 412.433,726.023 413.43,713.704 414.426,739.525 415.422,788.464 416.418,722.658 417.414,701.753 418.41,655.445 419.406,668.807 420.402,753.33 
  421.398,800.021 422.394,798.081 423.39,810.836 424.386,786.726 425.382,796.559 426.378,825.926 427.375,836.61 428.371,809.043 429.367,828.231 430.363,800.496 
  431.359,773.32 432.355,792.163 433.351,754.934 434.347,763.552 435.343,769.12 436.339,822.187 437.335,864.418 438.331,828.509 439.327,874.292 440.324,822.83 
  441.32,864.847 442.316,857.138 443.312,876.599 444.308,903.463 445.304,822.926 446.3,788.056 447.296,782.485 448.292,739.011 449.288,705.314 450.284,711.553 
  451.28,750.186 452.276,802.035 453.272,804.377 454.269,793.931 455.265,783.987 456.261,836.607 457.257,863.558 458.253,903.568 459.249,929.321 460.245,868.634 
  461.241,856.626 462.237,912.688 463.233,885.495 464.229,825.498 465.225,859.793 466.221,840.237 467.218,840.348 468.214,836.735 469.21,793.428 470.206,796.764 
  471.202,841.233 472.198,769.645 473.194,770.2 474.19,697.452 475.186,737.923 476.182,728.804 477.178,712.868 478.174,700.71 479.17,782.985 480.166,808.548 
  481.163,768.355 482.159,648.907 483.155,650.322 484.151,632 485.147,592.973 486.143,577.272 487.139,558.048 488.135,546.157 489.131,538.446 490.127,543.94 
  491.123,526.64 492.119,533.974 493.115,580.867 494.112,570.712 495.108,561.964 496.104,573.754 497.1,588.498 498.096,632.28 499.092,598.272 500.088,595.481 
  501.084,659.101 502.08,654.899 503.076,697.635 504.072,700.828 505.068,764.335 506.064,765.391 507.06,823.34 508.057,859.002 509.053,843.3 510.049,773.962 
  511.045,751.374 512.041,762.599 513.037,736.081 514.033,719.562 515.029,671.002 516.025,680.448 517.021,652.136 518.017,622.369 519.013,669.497 520.009,657.038 
  521.006,724.862 522.002,704.448 522.998,703.441 523.994,712.613 524.99,749.241 525.986,726.191 526.982,759.777 527.978,833.779 528.974,782.937 529.97,749.165 
  530.966,714.786 531.962,681.891 532.958,694.475 533.954,696.151 534.951,679.223 535.947,697.47 536.943,758.882 537.939,807.726 538.935,818.217 539.931,762.633 
  540.927,779.565 541.923,819.766 542.919,811.114 543.915,827.492 544.911,808.137 545.907,790.053 546.903,823.392 547.9,891.301 548.896,944.667 549.892,902.164 
  550.888,963.264 551.884,1000.76 552.88,993.366 553.876,1004.62 554.872,1068.48 555.868,1090.8 556.864,1087.29 557.86,1017.38 558.856,1080.21 559.852,1031.92 
  560.848,991.924 561.845,997.766 562.841,985.12 563.837,964.69 564.833,1017.09 565.829,1026.99 566.825,1010.53 567.821,992.908 568.817,1008.06 569.813,1109.44 
  570.809,1111.37 571.805,1135.6 572.801,1130.28 573.797,1074.98 574.794,1103.09 575.79,1033.11 576.786,1073.33 577.782,1081.53 578.778,997.573 579.774,1035.16 
  580.77,1040.43 581.766,1053.83 582.762,1116.62 583.758,1118.86 584.754,1045.24 585.75,1193.35 586.746,1187.46 587.742,1199.25 588.739,1257.64 589.735,1251.1 
  590.731,1244.63 591.727,1238.23 592.723,1231.88 593.719,1225.6 594.715,1219.39 595.711,1213.23 596.707,1207.14 597.703,1194.44 598.699,1086.39 599.695,1022.76 
  600.691,1041.57 601.688,1047.02 602.684,979.51 603.68,997.463 604.676,980.451 605.672,963.672 606.668,980.525 607.664,936.241 608.66,890.647 609.656,1007.92 
  610.652,1022.85 611.648,996.896 612.644,994.526 613.64,970.374 614.636,951.207 615.633,977.997 616.629,1009.03 617.625,979.378 618.621,1034.11 619.617,1064.65 
  620.613,1036.29 621.609,1107 622.605,1088.56 623.601,1106.97 624.597,1100.51 625.593,1089.27 626.589,1053.94 627.585,1082.67 628.582,1040.97 629.578,992.291 
  630.574,978.226 631.57,987.002 632.566,982.999 633.562,946.495 634.558,905.485 635.554,951.498 636.55,981.424 637.546,909.672 638.542,858.888 639.538,887.385 
  640.534,921.146 641.53,889.545 642.527,874.371 643.523,918.18 644.519,880.764 645.515,861.611 646.511,858.627 647.507,904.973 648.503,1004.38 649.499,1013.53 
  650.495,1048.49 651.491,1107.91 652.487,1112.21 653.483,1141.18 654.479,1089.38 655.476,1130.57 656.472,1147.51 657.468,1190.48 658.464,1184.62 659.46,1160.53 
  660.456,1154.97 661.452,1206.27 662.448,1189.18 663.444,1183.33 664.44,1177.54 665.436,1143.76 666.432,1282.79 667.428,1276 668.424,1269.28 669.421,1262.63 
  670.417,1256.04 671.413,1191.29 672.409,1185.42 673.405,1179.61 674.401,1212.41 675.397,1206.32 676.393,1171.31 677.389,1165.64 678.385,1160.02 679.381,1154.46 
  680.377,1172.13 681.373,1166.45 682.37,1186.56 683.366,1255.74 684.362,1249.22 685.358,1286.06 686.354,1279.24 687.35,1272.49 688.346,1265.8 689.342,1259.19 
  690.338,1252.63 691.334,1246.15 692.33,1239.72 693.326,1233.37 694.322,1227.07 695.318,1220.84 696.315,1214.67 697.311,1208.57 698.307,1202.52 699.303,1139.5 
  700.299,1160.19 701.295,1113.05 702.291,1107.95 703.287,1095.19 704.283,1051.25 705.279,1000.28 706.275,1032.02 707.271,1014.88 708.267,1047.13 709.264,989.688 
  710.26,925.125 711.256,1021.99 712.252,955.738 713.248,1041.15 714.244,990.165 715.24,981.516 716.236,978.136 717.232,1001.72 718.228,1060.57 719.224,1000.96 
  720.22,984.355 721.216,971.464 722.212,927.765 723.209,976.453 724.205,946.811 725.201,924.3 726.197,887.056 727.193,873.745 728.189,775.598 729.185,691.969 
  730.181,699.402 731.177,750.662 732.173,754.401 733.169,798.157 734.165,830.106 735.161,777.586 736.158,817.589 737.154,840.004 738.15,786.579 739.146,756.159 
  740.142,709.542 741.138,755.047 742.134,800.458 743.13,821.219 744.126,779.372 745.122,733.215 746.118,740.8 747.114,758.528 748.11,711.396 749.106,742.964 
  750.103,689.632 751.099,699.436 752.095,681.103 753.091,703.643 754.087,726.732 755.083,702.979 756.079,653.334 757.075,623.269 758.071,623.638 759.067,599.476 
  760.063,616.487 761.059,633.316 762.055,609.539 763.052,635.504 764.048,642.275 765.044,655.498 766.04,657.412 767.036,707.149 768.032,735.587 769.028,806.875 
  770.024,742.211 771.02,691.145 772.016,631.38 773.012,515.937 774.008,505.647 775.004,475.747 776,459.771 776.997,437.63 777.993,453.237 778.989,459.425 
  779.985,510.379 780.981,472.62 781.977,501.624 782.973,586.865 783.969,582.225 784.965,591.963 785.961,542.281 786.957,537.941 787.953,632.443 788.949,606.13 
  789.946,548.02 790.942,550.616 791.938,553.83 792.934,505.636 793.93,484.118 794.926,508.927 795.922,550.345 796.918,481.802 797.914,472.426 798.91,470.959 
  799.906,447.417 800.902,422.443 801.898,459.163 802.894,445.886 803.891,425.812 804.887,420.664 805.883,384.057 806.879,328.416 807.875,325.771 808.871,321.35 
  809.867,340.741 810.863,333.7 811.859,335.642 812.855,356.743 813.851,366.255 814.847,279.286 815.843,301.154 816.84,276.301 817.836,295.969 818.832,296.917 
  819.828,345.868 820.824,385.889 821.82,422.054 822.816,464.535 823.812,489.5 824.808,533.891 825.804,565.881 826.8,595.553 827.796,559.765 828.792,574.096 
  829.788,580.184 830.785,626.069 831.781,676.341 832.777,648.462 833.773,695.095 834.769,745.972 835.765,735.461 836.761,711.994 837.757,739.759 838.753,752.12 
  839.749,732.533 840.745,712.922 841.741,720.652 842.737,688.833 843.734,734.451 844.73,841.456 845.726,867.38 846.722,841.182 847.718,845.111 848.714,821.718 
  849.71,817.736 850.706,766.943 851.702,787.064 852.698,750.583 853.694,731.511 854.69,718.209 855.686,818.523 856.682,723.841 857.679,642.494 858.675,676.749 
  859.671,617.164 860.667,637.075 861.663,621.465 862.659,637.695 863.655,682.27 864.651,707.825 865.647,733.746 866.643,676.257 867.639,650.584 868.635,717.64 
  869.631,721.625 870.628,746.073 871.624,793.985 872.62,799.573 873.616,770.052 874.612,729.805 875.608,771.791 876.604,744.315 877.6,761.763 878.596,749.555 
  879.592,772.435 880.588,659.308 881.584,688.624 882.58,642.803 883.576,652.334 884.573,699.153 885.569,647.599 886.565,644.258 887.561,667.105 888.557,610.057 
  889.553,632.848 890.549,592.635 891.545,614.221 892.541,629.979 893.537,614.994 894.533,632.14 895.529,613.063 896.525,701.548 897.522,697.416 898.518,673.816 
  899.514,729.993 900.51,744.739 901.506,723.931 902.502,668.383 903.498,645.455 904.494,668.72 905.49,709.343 906.486,767.317 907.482,734.717 908.478,737.41 
  909.474,764.5 910.47,794.503 911.467,709.313 912.463,707.351 913.459,681.012 914.455,706.909 915.451,616.135 916.447,682.218 917.443,643.235 918.439,645.44 
  919.435,771.558 920.431,715.518 921.427,749.98 922.423,818.148 923.419,849.997 924.416,834.143 925.412,844.313 926.408,923.263 927.404,907.799 928.4,893.411 
  929.396,927.389 930.392,911.809 931.388,942.5 932.384,910.035 933.38,958.593 934.376,1026.33 935.372,998.72 936.368,948.443 937.365,919.679 938.361,922.171 
  939.357,977.977 940.353,965.944 941.349,962.948 942.345,1055.46 943.341,1059.53 944.337,1020.54 945.333,1039.57 946.329,1019.13 947.325,936.331 948.321,922.114 
  949.317,884.92 950.313,885.734 951.31,867.028 952.306,837.979 953.302,783.821 954.298,758.272 955.294,718.903 956.29,719.036 957.286,740.296 958.282,757.936 
  959.278,784.227 960.274,762.221 961.27,862.713 962.266,892.311 963.262,856.784 964.259,885.804 965.255,934.89 966.251,940.397 967.247,915.092 968.243,902.968 
  969.239,930.72 970.235,914.212 971.231,894.996 972.227,876.414 973.223,879.841 974.219,946.963 975.215,974.949 976.211,1013.77 977.207,967.868 978.204,993.769 
  979.2,1069.51 980.196,1072.92 981.192,1097.61 982.188,1103.13 983.184,1163.39 984.18,1167.88 985.176,1202.27 986.172,1157.66 987.168,1279.82 988.164,1273.06 
  989.16,1266.37 990.156,1259.75 991.153,1253.19 992.149,1246.7 993.145,1240.27 994.141,1233.91 995.137,1342.87 996.133,1335.48 997.129,1328.17 998.125,1320.93 
  999.121,1313.76 1000.12,1306.66 1001.11,1299.63 1002.11,1292.67 1003.11,1285.79 1004.1,1278.97 1005.1,1272.22 1006.09,1265.54 1007.09,1148.6 1008.09,1264.87 
  1009.08,1188.94 1010.08,1183.09 1011.07,1150.51 1012.07,1145.04 1013.07,1139.63 1014.06,1093.71 1015.06,1062.92 1016.05,1018.04 1017.05,1087.32 1018.05,1120 
  1019.04,1063.34 1020.04,1023.98 1021.03,1071.01 1022.03,1069.65 1023.03,1092.05 1024.02,1060.92 1025.02,1142.32 1026.02,1125.66 1027.01,1088.31 1028.01,1114.18 
  1029,1095.2 1030,1153.4 1031,1155.7 1031.99,1150.18 1032.99,1143.64 1033.98,1065.11 1034.98,1005.35 1035.98,931.318 1036.97,960.994 1037.97,964.842 
  1038.96,994.067 1039.96,960.936 1040.96,935.74 1041.95,951.147 1042.95,934.497 1043.94,922.614 1044.94,881.722 1045.94,959.472 1046.93,972.858 1047.93,963.79 
  1048.92,985.041 1049.92,1048.99 1050.92,1058.17 1051.91,1028.75 1052.91,969.327 1053.91,879.406 1054.9,935.766 1055.9,919.755 1056.89,889.579 1057.89,942.672 
  1058.89,984.623 1059.88,989.342 1060.88,957.626 1061.87,1027.68 1062.87,1013.43 1063.87,1015.37 1064.86,1118.23 1065.86,1105.06 1066.85,1129.65 1067.85,1075.93 
  1068.85,1122.91 1069.84,1153.81 1070.84,1197.21 1071.83,1191.28 1072.83,1185.4 1073.83,1179.59 1074.82,1113.28 1075.82,1066.91 1076.81,1027.51 1077.81,956.779 
  1078.81,1023.92 1079.8,965.959 1080.8,919.075 1081.8,897.956 1082.79,852.622 1083.79,860.337 1084.78,797.603 1085.78,825.119 1086.78,748.781 1087.77,784.699 
  1088.77,821.509 1089.76,754.231 1090.76,709.849 1091.76,733.532 1092.75,694.814 1093.75,689.9 1094.74,758.987 1095.74,743.75 1096.74,755.994 1097.73,784.702 
  1098.73,829.534 1099.72,768.974 1100.72,821.8 1101.72,799.217 1102.71,740.135 1103.71,743.199 1104.7,797.339 1105.7,795.676 1106.7,789.606 1107.69,886.502 
  1108.69,879.415 1109.69,810.101 1110.68,856.177 1111.68,749.467 1112.67,798.275 1113.67,752.886 1114.67,780.51 1115.66,758.649 1116.66,693.935 1117.65,707.547 
  1118.65,737.085 1119.65,676.913 1120.64,685.66 1121.64,691.984 1122.63,709.781 1123.63,727.388 1124.63,743.362 1125.62,743.192 1126.62,779.619 1127.61,767.521 
  1128.61,749.309 1129.61,770.222 1130.6,762.859 1131.6,795.326 1132.6,810.702 1133.59,800.708 1134.59,816.543 1135.58,831.011 1136.58,842.922 1137.58,817.007 
  1138.57,771.112 1139.57,703.589 1140.56,707.553 1141.56,699.597 1142.56,686.732 1143.55,661.591 1144.55,627.886 1145.54,615.385 1146.54,618.174 1147.54,681.333 
  1148.53,664.029 1149.53,730.741 1150.52,751.412 1151.52,715.269 1152.52,693.273 1153.51,712.725 1154.51,685.334 1155.5,720.171 1156.5,757.227 1157.5,761.293 
  1158.49,709.549 1159.49,737.644 1160.49,749.727 1161.48,753.375 1162.48,778.755 1163.47,770.8 1164.47,686.231 1165.47,759.693 1166.46,754.585 1167.46,745.732 
  1168.45,687.177 1169.45,700.911 1170.45,705.091 1171.44,708.842 1172.44,722.222 1173.43,753.658 1174.43,723.042 1175.43,689.925 1176.42,661.242 1177.42,663.045 
  1178.41,722.902 1179.41,731.535 1180.41,695.965 1181.4,678.192 1182.4,647.88 1183.39,682.619 1184.39,627.847 1185.39,692.436 1186.38,702.998 1187.38,708.227 
  1188.38,770.69 1189.37,697.824 1190.37,724.33 1191.36,694.86 1192.36,701.753 1193.36,750.594 1194.35,839.079 1195.35,838.119 1196.34,801.109 1197.34,802.607 
  1198.34,850.294 1199.33,831.233 1200.33,833.563 1201.32,784.85 1202.32,811.556 1203.32,826.468 1204.31,791.733 1205.31,799.14 1206.3,868.169 1207.3,860.982 
  1208.3,843.222 1209.29,848.074 1210.29,783.108 1211.28,795.129 1212.28,780.236 1213.28,784.714 1214.27,803.889 1215.27,804.917 1216.27,776.306 1217.26,699.773 
  1218.26,725.812 1219.25,748.984 1220.25,741.219 1221.25,769.641 1222.24,781.023 1223.24,750.925 1224.23,689.919 1225.23,647.425 1226.23,665.373 1227.22,697.507 
  1228.22,675.879 1229.21,740.668 1230.21,742.872 1231.21,784.453 1232.2,846.072 1233.2,796.847 1234.19,847.942 1235.19,881.424 1236.19,924.763 1237.18,856.146 
  1238.18,887.321 1239.17,953.681 1240.17,965.162 1241.17,946.948 1242.16,907.431 1243.16,855.101 1244.16,861.001 1245.15,848.494 1246.15,760.91 1247.14,812.559 
  1248.14,827.569 1249.14,844.111 1250.13,787.472 1251.13,800.892 1252.12,769.206 1253.12,762.787 1254.12,776.823 1255.11,707.813 1256.11,701.622 1257.1,678.341 
  1258.1,692.438 1259.1,677.884 1260.09,670.639 1261.09,614.379 1262.08,562.621 1263.08,586.668 1264.08,633.482 1265.07,634.289 1266.07,674.064 1267.07,694.685 
  1268.06,699.713 1269.06,721.326 1270.05,689.025 1271.05,694.557 1272.05,743.624 1273.04,758.809 1274.04,719.466 1275.03,730.562 1276.03,674.241 1277.03,747.529 
  1278.02,774.801 1279.02,788.53 1280.01,804.369 1281.01,815.882 1282.01,813.452 1283,794.238 1284,805.599 1284.99,738.891 1285.99,719.132 1286.99,717.858 
  1287.98,677.062 1288.98,747.9 1289.97,731.274 1290.97,694.238 1291.97,716.437 1292.96,723.674 1293.96,731.213 1294.96,692.002 1295.95,671.618 1296.95,753.761 
  1297.94,706.117 1298.94,724.364 1299.94,687.18 1300.93,563.885 1301.93,607.342 1302.92,623.396 1303.92,632.828 1304.92,623.712 1305.91,627.894 1306.91,637.285 
  1307.9,618.281 1308.9,587.706 1309.9,550.04 1310.89,559.913 1311.89,536.175 1312.88,532.825 1313.88,523.208 1314.88,483.559 1315.87,503.781 1316.87,424.373 
  1317.86,398.756 1318.86,393.918 1319.86,384.144 1320.85,343.42 1321.85,371.225 1322.85,382.308 1323.84,383.088 1324.84,399.291 1325.83,404.611 1326.83,427.642 
  1327.83,466.104 1328.82,472.687 1329.82,471.225 1330.81,489.021 1331.81,490.038 1332.81,494.095 1333.8,549.445 1334.8,520.67 1335.79,445.607 1336.79,483.889 
  1337.79,475.312 1338.78,463.64 1339.78,474.259 1340.77,459.616 1341.77,529.955 1342.77,535.06 1343.76,588.994 1344.76,591.358 1345.75,574.352 1346.75,574.514 
  1347.75,613.681 1348.74,596.532 1349.74,632.995 1350.74,573.313 1351.73,593.487 1352.73,648.857 1353.72,606.572 1354.72,645.175 1355.72,711.312 1356.71,719.05 
  1357.71,710.782 1358.7,747.456 1359.7,733.641 1360.7,715.169 1361.69,649.621 1362.69,649.567 1363.68,681.845 1364.68,690.765 1365.68,666.533 1366.67,641.243 
  1367.67,669.268 1368.66,711.699 1369.66,711.805 1370.66,653.836 1371.65,607.142 1372.65,621.831 1373.64,609.267 1374.64,642.207 1375.64,702.035 1376.63,736.797 
  1377.63,696.096 1378.63,687.204 1379.62,664.255 1380.62,694.502 1381.61,662.434 1382.61,716.043 1383.61,741.166 1384.6,691.155 1385.6,662.02 1386.59,670.151 
  1387.59,614.069 1388.59,627.197 1389.58,612.683 1390.58,555.499 1391.57,560.063 1392.57,566.604 1393.57,534.068 1394.56,495.613 1395.56,529.556 1396.55,516.096 
  1397.55,585.611 1398.55,553.24 1399.54,539.691 1400.54,560.835 1401.54,546.662 1402.53,521.063 1403.53,477.371 1404.52,497.951 1405.52,523.677 1406.52,489.076 
  1407.51,489.488 1408.51,520.123 1409.5,566.476 1410.5,621.994 1411.5,516.467 1412.49,484.427 1413.49,504.403 1414.48,612.957 1415.48,678.593 1416.48,699.52 
  1417.47,695.536 1418.47,656.059 1419.46,682.761 1420.46,677.366 1421.46,744.328 1422.45,789.723 1423.45,768.305 1424.44,863.648 1425.44,924.539 1426.44,880.294 
  1427.43,887.225 1428.43,840.395 1429.43,891.555 1430.42,891.235 1431.42,952.956 1432.41,939.863 1433.41,895.44 1434.41,867.291 1435.4,822.383 1436.4,833.526 
  1437.39,804.119 1438.39,744.324 1439.39,692.269 1440.38,742.487 1441.38,805.278 1442.37,801.212 1443.37,701.985 1444.37,776.83 1445.36,844.14 1446.36,860.213 
  1447.35,863.006 1448.35,802.967 1449.35,768.834 1450.34,737.754 1451.34,783.258 1452.33,804.264 1453.33,812.405 1454.33,840.033 1455.32,801.355 1456.32,820.132 
  1457.32,796.701 1458.31,836.209 1459.31,831.207 1460.3,848.446 1461.3,812.431 1462.3,874.972 1463.29,875.378 1464.29,910.652 1465.28,877.228 1466.28,859.423 
  1467.28,850.111 1468.27,807.804 1469.27,796.841 1470.26,778.396 1471.26,740.049 1472.26,707.266 1473.25,707.733 1474.25,675.386 1475.24,632.892 1476.24,580.66 
  1477.24,612.838 1478.23,591.91 1479.23,562.854 1480.22,506.211 1481.22,530.873 1482.22,595.224 1483.21,621.442 1484.21,661.514 1485.21,754.52 1486.2,758.101 
  1487.2,757.321 1488.19,783.365 1489.19,733.338 1490.19,758.995 1491.18,775.916 1492.18,742.716 1493.17,715.879 1494.17,751.739 1495.17,799.586 1496.16,813.228 
  1497.16,879.505 1498.15,939.197 1499.15,941.885 1500.15,972.874 1501.14,991.996 1502.14,943.441 1503.13,912.205 1504.13,969.918 1505.13,929.948 1506.12,932.754 
  1507.12,945.954 1508.11,961.176 1509.11,945.505 1510.11,967.682 1511.1,972.196 1512.1,989.944 1513.1,1004.07 1514.09,1076.78 1515.09,1029.14 1516.08,996.608 
  1517.08,965.252 1518.08,941.083 1519.07,991.467 1520.07,986.803 1521.06,1088.64 1522.06,1056.07 1523.06,1044.64 1524.05,1066.69 1525.05,1051.77 1526.04,1049.48 
  1527.04,1048.22 1528.04,1177.76 1529.03,1172.03 1530.03,1191.07 1531.02,1185.2 1532.02,1179.39 1533.02,1173.63 1534.01,1167.94 1535.01,1162.3 1536.01,1047.41 
  1537,1135.48 1538,1123.28 1538.99,1105.2 1539.99,1223.47 1540.99,1217.27 1541.98,1206.98 1542.98,1200.95 1543.97,1194.98 1544.97,1189.07 1545.97,1183.22 
  1546.96,1177.43 1547.96,1171.69 1548.95,1166.01 1549.95,1160.39 1550.95,1272.36 1551.94,1265.68 1552.94,1259.06 1553.93,1252.51 1554.93,1246.03 1555.93,1239.6 
  1556.92,1233.25 1557.92,1226.96 1558.91,1220.73 1559.91,1214.56 1560.91,1208.45 1561.9,1202.41 1562.9,1196.42 1563.9,1217.47 1564.89,1211.33 1565.89,1205.26 
  1566.88,1199.25 1567.88,1193.3 1568.88,1187.4 1569.87,1181.57 1570.87,1175.79 1571.86,1170.07 1572.86,1279.56 1573.86,1272.81 1574.85,1266.12 1575.85,1259.5 
  1576.84,1252.94 1577.84,1246.45 1578.84,1240.03 1579.83,1233.67 1580.83,1227.37 1581.82,1221.14 1582.82,1214.97 1583.82,1208.86 1584.81,1202.81 1585.81,1196.82 
  1586.8,1190.89 1587.8,1185.02 1588.8,1179.21 1589.79,1173.46 1590.79,1167.76 1591.79,1162.12 1592.78,1156.54 1593.78,1151.02 1594.77,1145.55 1595.77,1140.13 
  1596.77,1270.94 1597.76,1264.27 1598.76,1257.67 1599.75,1251.13 1600.75,1244.66 1601.75,1238.26 1602.74,1231.91 1603.74,1225.63 1604.73,1219.42 1605.73,1213.26 
  1606.73,1251.07 1607.72,1244.59 1608.72,1238.19 1609.71,1231.85 1610.71,1225.57 1611.71,1219.35 1612.7,1213.2 1613.7,1130 1614.69,1109.63 1615.69,1103.36 
  1616.69,1025.86 1617.68,983.965 1618.68,947.649 1619.68,903.843 1620.67,920.319 1621.67,953.913 1622.66,921.168 1623.66,922.945 1624.66,926.733 1625.65,877.183 
  1626.65,892.074 1627.64,851.937 1628.64,895.429 1629.64,911.323 1630.63,916.316 1631.63,959.666 1632.62,980.67 1633.62,966.533 1634.62,960.663 1635.61,1024.27 
  1636.61,1003.08 1637.6,1053.25 1638.6,1136.08 1639.6,1110.41 1640.59,1031.84 1641.59,1051.2 1642.58,1061.19 1643.58,1072.91 1644.58,1084.7 1645.57,1129 
  1646.57,1137.84 1647.57,1098.56 1648.56,1053.1 1649.56,991.023 1650.55,921.299 1651.55,929.113 1652.55,922.658 1653.54,963.196 1654.54,942.917 1655.53,984.555 
  1656.53,1003.03 1657.53,1021.16 1658.52,1035.2 1659.52,993.655 1660.51,957.567 1661.51,893.76 1662.51,860.097 1663.5,895.894 1664.5,946.881 1665.49,864.062 
  1666.49,872.44 1667.49,917.943 1668.48,946.74 1669.48,942.279 1670.48,839.159 1671.47,820.382 1672.47,841.872 1673.46,845.522 1674.46,787.352 1675.46,810.315 
  1676.45,873.818 1677.45,895.016 1678.44,899.705 1679.44,865.621 1680.44,867.101 1681.43,852.512 1682.43,874.114 1683.42,860.81 1684.42,901.734 1685.42,963.553 
  1686.41,989.402 1687.41,981.291 1688.4,1029.76 1689.4,981.559 1690.4,1024.01 1691.39,956.368 1692.39,967.866 1693.38,963.263 1694.38,994.76 1695.38,996.143 
  1696.37,1004.04 1697.37,990.724 1698.37,1025.41 1699.36,951.358 1700.36,1004.05 1701.35,1020.87 1702.35,954.073 1703.35,999.155 1704.34,1061.36 1705.34,1050.33 
  1706.33,1021.23 1707.33,954.998 1708.33,910.449 1709.32,880.378 1710.32,797.992 1711.31,766.815 1712.31,737.241 1713.31,696.095 1714.3,747.876 1715.3,643.656 
  1716.29,619.249 1717.29,625.691 1718.29,629.865 1719.28,678.595 1720.28,634.897 1721.27,633.861 1722.27,631.962 1723.27,615.63 1724.26,593.881 1725.26,622.938 
  1726.26,616.759 1727.25,591.36 1728.25,625.634 1729.24,599.724 1730.24,571.393 1731.24,575.376 1732.23,587.217 1733.23,573.597 1734.22,530.201 1735.22,497.129 
  1736.22,481.07 1737.21,476.972 1738.21,427.371 1739.2,440.138 1740.2,379.283 1741.2,329.719 1742.19,358.627 1743.19,409.572 1744.18,409.891 1745.18,393.648 
  1746.18,383.872 1747.17,397.213 1748.17,405.279 1749.16,357.12 1750.16,398.566 1751.16,414.101 1752.15,425.888 1753.15,449.566 1754.15,482.252 1755.14,447.2 
  1756.14,449.96 1757.13,409.278 1758.13,399.175 1759.13,314.295 1760.12,350.178 1761.12,334.486 1762.11,352.18 1763.11,290.588 1764.11,309.876 1765.1,322.499 
  1766.1,320.811 1767.09,316.45 1768.09,292.249 1769.09,281.805 1770.08,295.957 1771.08,279.776 1772.07,322.257 1773.07,360.229 1774.07,363.692 1775.06,381.236 
  1776.06,374.016 1777.05,518.442 1778.05,448.147 1779.05,482.856 1780.04,488.716 1781.04,430.627 1782.04,478.475 1783.03,513.273 1784.03,612.022 1785.02,582.327 
  1786.02,637.096 1787.02,717.516 1788.01,724.785 1789.01,757.068 1790,692.76 1791,721.477 1792,684.327 1792.99,719.885 1793.99,730.624 1794.98,675.081 
  1795.98,634.537 1796.98,657.304 1797.97,653.678 1798.97,610.181 1799.96,633.009 1800.96,656.791 1801.96,660.474 1802.95,631.361 1803.95,585.778 1804.95,571.24 
  1805.94,617.114 1806.94,610.269 1807.93,599.096 1808.93,598.896 1809.93,597.805 1810.92,595.9 1811.92,571.743 1812.91,581.081 1813.91,593.869 1814.91,534.073 
  1815.9,550.275 1816.9,564.453 1817.89,564.658 1818.89,625.396 1819.89,582.539 1820.88,617.457 1821.88,641.369 1822.87,709.651 1823.87,738.934 1824.87,771.589 
  1825.86,731.219 1826.86,648.757 1827.85,633.229 1828.85,658.787 1829.85,662.982 1830.84,643.414 1831.84,632.193 1832.84,582.738 1833.83,605.096 1834.83,586.656 
  1835.82,595.529 1836.82,571.119 1837.82,622.348 1838.81,614.298 1839.81,613.2 1840.8,617.324 1841.8,546.703 1842.8,643.163 1843.79,587.248 1844.79,542.605 
  1845.78,558.373 1846.78,557.883 1847.78,586.042 1848.77,544.87 1849.77,573.61 1850.76,568.013 1851.76,577.236 1852.76,539.371 1853.75,615.774 1854.75,651.83 
  1855.74,570.664 1856.74,541.132 1857.74,646.366 1858.73,580.152 1859.73,642.597 1860.73,666.083 1861.72,709.617 1862.72,646.868 1863.71,611.978 1864.71,609.506 
  1865.71,662.672 1866.7,651.396 1867.7,643.016 1868.69,693.369 1869.69,643.485 1870.69,646.503 1871.68,690.907 1872.68,710.302 1873.67,708.57 1874.67,691.071 
  1875.67,728.02 1876.66,712.18 1877.66,692.371 1878.65,689.507 1879.65,649.795 1880.65,625.016 1881.64,611.996 1882.64,591.584 1883.63,666.19 1884.63,669.123 
  1885.63,625.426 1886.62,673.432 1887.62,590.642 1888.62,591.535 1889.61,615.221 1890.61,572.036 1891.6,630.945 1892.6,618.852 1893.6,623.026 1894.59,645.134 
  1895.59,676.475 1896.58,637.1 1897.58,641.867 1898.58,626.935 1899.57,590.215 1900.57,611.054 1901.56,546.777 1902.56,548.782 1903.56,491.72 1904.55,461.446 
  1905.55,472.449 1906.54,459.798 1907.54,459.898 1908.54,425.551 1909.53,456.648 1910.53,450.422 1911.52,489.157 1912.52,463.875 1913.52,425.622 1914.51,370.414 
  1915.51,355.966 1916.51,341.92 1917.5,405.813 1918.5,345.464 1919.49,344.623 1920.49,388.036 1921.49,457.493 1922.48,454.397 1923.48,473.843 1924.47,420.284 
  1925.47,399.168 1926.47,387.895 1927.46,370.191 1928.46,377.177 1929.45,347.74 1930.45,348.886 1931.45,328.75 1932.44,345.005 1933.44,316.583 1934.43,281.514 
  1935.43,271.519 1936.43,270.18 1937.42,363.418 1938.42,337.957 1939.42,370.178 1940.41,368.273 1941.41,419.73 1942.4,364.592 1943.4,410.247 1944.4,411.243 
  1945.39,432.056 1946.39,365.718 1947.38,386.129 1948.38,422.69 1949.38,454.82 1950.37,497.614 1951.37,451.463 1952.36,440.606 1953.36,459.134 1954.36,484.822 
  1955.35,403.576 1956.35,331.994 1957.34,284.282 1958.34,298.803 1959.34,290.694 1960.33,307.619 1961.33,315.248 1962.32,264.573 1963.32,173.504 1964.32,198.043 
  1965.31,117.725 1966.31,174.475 1967.31,150.618 1968.3,163.889 1969.3,170.099 1970.29,220.886 1971.29,127.68 1972.29,116.848 1973.28,123.433 1974.28,133.292 
  1975.27,128.067 1976.27,151.46 1977.27,176.102 1978.26,140.731 1979.26,185.235 1980.25,215.052 1981.25,187.384 1982.25,138.117 1983.24,175.333 1984.24,130.523 
  1985.23,118.787 1986.23,162.188 1987.23,214.872 1988.22,305.407 1989.22,316.3 1990.21,317.451 1991.21,236.924 1992.21,231.774 1993.2,209.548 1994.2,217.581 
  1995.2,166.762 1996.19,174.189 1997.19,253.144 1998.18,256.337 1999.18,275.781 2000.18,264.87 2001.17,224.421 2002.17,206.477 2003.16,227.37 2004.16,289.255 
  2005.16,201.738 2006.15,201.784 2007.15,211.104 2008.14,200.685 2009.14,193.991 2010.14,153.019 2011.13,112.177 2012.13,90.4487 2013.12,141.049 2014.12,197.911 
  2015.12,170.674 2016.11,124.164 2017.11,148.362 2018.1,141.151 2019.1,154.201 2020.1,95.1824 2021.09,97.0353 2022.09,123.003 2023.09,205.993 2024.08,216.423 
  2025.08,248.284 2026.07,336.347 2027.07,296.865 2028.07,334.055 2029.06,319.974 2030.06,294.299 2031.05,348.031 2032.05,368.477 2033.05,450.125 2034.04,437.979 
  2035.04,418.243 2036.03,378.181 2037.03,373.281 2038.03,349.241 2039.02,374.992 2040.02,318.118 2041.01,381.612 2042.01,370.593 2043.01,414.545 2044,422.151 
  2045,361.956 2045.99,325.497 2046.99,359.829 2047.99,400.245 2048.98,340.139 2049.98,438.711 2050.98,451.135 2051.97,507.572 2052.97,465.87 2053.96,454.731 
  2054.96,470.737 2055.96,473.581 2056.95,409.851 2057.95,397.055 2058.94,431.772 2059.94,378.141 2060.94,407.079 2061.93,435.171 2062.93,395.614 2063.92,391.344 
  2064.92,384.846 2065.92,407.822 2066.91,438.776 2067.91,459.083 2068.9,423.653 2069.9,357.837 2070.9,288.623 2071.89,315.036 2072.89,275.768 2073.89,229.007 
  2074.88,227.611 2075.88,260.052 2076.87,288.217 2077.87,281.429 2078.87,243.343 2079.86,236.856 2080.86,244.541 2081.85,300.342 2082.85,370.306 2083.85,379.61 
  2084.84,360.741 2085.84,386.585 2086.83,324.404 2087.83,309.911 2088.83,374.031 2089.82,400.757 2090.82,508.16 2091.81,483.641 2092.81,545.766 2093.81,521.729 
  2094.8,622.722 2095.8,645.638 2096.79,542.993 2097.79,555.678 2098.79,620.469 2099.78,581.906 2100.78,533.092 2101.78,490.773 2102.77,473.46 2103.77,486.385 
  2104.76,595.709 2105.76,642.071 2106.76,649.429 2107.75,755.785 2108.75,741.087 2109.74,697.217 2110.74,711.481 2111.74,700.852 2112.73,718.039 2113.73,761.574 
  2114.72,744.546 2115.72,737.923 2116.72,764.178 2117.71,741.023 2118.71,744.898 2119.7,748.578 2120.7,824.469 2121.7,750.08 2122.69,693.129 2123.69,722.648 
  2124.68,701.701 2125.68,719.707 2126.68,759.624 2127.67,736.666 2128.67,804.531 2129.67,864.549 2130.66,834.533 2131.66,845.508 2132.65,897.244 2133.65,860.062 
  2134.65,861.795 2135.64,861.553 2136.64,807.697 2137.63,778.588 2138.63,790.737 2139.63,741.807 2140.62,726.233 2141.62,732.3 2142.61,685.933 2143.61,643.838 
  2144.61,631.995 2145.6,649.085 2146.6,697.298 2147.59,648.814 2148.59,687.726 2149.59,699.878 2150.58,656.568 2151.58,657.516 2152.57,612.465 2153.57,558.862 
  2154.57,616.594 2155.56,567.07 2156.56,628.549 2157.56,592.533 2158.55,591.892 2159.55,572.84 2160.54,593.416 2161.54,617.373 2162.54,628.206 2163.53,604.843 
  2164.53,659.288 2165.52,606.481 2166.52,652.396 2167.52,703.63 2168.51,752.386 2169.51,740.097 2170.5,658.477 2171.5,640.507 2172.5,706.943 2173.49,723.76 
  2174.49,684.005 2175.48,695.659 2176.48,696.28 2177.48,693.462 2178.47,701.444 2179.47,750.683 2180.46,809.07 2181.46,834.225 2182.46,789.931 2183.45,735.552 
  2184.45,751.062 2185.45,786.773 2186.44,797.403 2187.44,812.914 2188.43,803.968 2189.43,750.615 2190.43,778.073 2191.42,768.475 2192.42,780.492 2193.41,807.847 
  2194.41,832.416 2195.41,748.715 2196.4,728.702 2197.4,743.577 2198.39,753.121 2199.39,735.547 2200.39,738.725 2201.38,751.705 2202.38,747.103 2203.37,765.198 
  2204.37,785.396 2205.37,811.307 2206.36,849.457 2207.36,886.984 2208.36,951.783 2209.35,993.959 2210.35,961.675 2211.34,995.086 2212.34,986.91 2213.34,989.361 
  2214.33,932.126 2215.33,898.378 2216.32,884.655 2217.32,849.284 2218.32,799.305 2219.31,819.919 2220.31,775.537 2221.3,709.957 2222.3,726.372 2223.3,727.375 
  2224.29,725.707 2225.29,612.583 2226.28,592.782 2227.28,646.134 2228.28,594.729 2229.27,619.17 2230.27,586.266 2231.26,564.877 2232.26,537.192 2233.26,545.542 
  2234.25,562.456 2235.25,638.761 2236.25,663.085 2237.24,627.498 2238.24,646.908 2239.23,668.761 2240.23,706.561 2241.23,695.896 2242.22,649.358 2243.22,597.313 
  2244.21,559.985 2245.21,621.605 2246.21,609.395 2247.2,579.709 2248.2,514.765 2249.19,604.277 2250.19,575.866 2251.19,548.686 2252.18,629.694 2253.18,621.388 
  2254.17,578.531 2255.17,610.664 2256.17,608.765 2257.16,659.35 2258.16,604.779 2259.15,603.645 2260.15,568.771 2261.15,594.414 2262.14,628.002 2263.14,627.594 
  2264.14,636.939 2265.13,631.525 2266.13,623.606 2267.12,597.516 2268.12,607.149 2269.12,611.126 2270.11,621.005 2271.11,492.003 2272.1,464.357 2273.1,490.714 
  2274.1,542.16 2275.09,499.628 2276.09,564.723 2277.08,605.36 2278.08,629.289 2279.08,631.273 2280.07,653.098 2281.07,719.974 2282.06,708.133 2283.06,725.117 
  2284.06,702.192 2285.05,789.847 2286.05,796.664 2287.04,798.13 2288.04,827.607 2289.04,754.373 2290.03,777.605 2291.03,747.376 2292.03,718.457 2293.02,743.595 
  
  "/>
<polyline clip-path="url(#clip713)" style="stroke:#e26f46; stroke-linecap:round; stroke-linejoin:round; stroke-width:8; stroke-opacity:1; fill:none" points="
  301.869,603.966 302.865,617.783 303.861,608.072 304.857,620.009 305.854,631.685 306.85,600.366 307.846,582.272 308.842,615.176 309.838,670.938 310.834,750.673 
  311.83,747.541 312.826,777.491 313.822,743.801 314.818,725.903 315.814,739.721 316.81,718.698 317.806,662.516 318.802,665.47 319.799,713.249 320.795,723.973 
  321.791,726.446 322.787,777.807 323.783,831.682 324.779,779.932 325.775,691.99 326.771,633.596 327.767,608.625 328.763,574.355 329.759,563.846 330.755,522.279 
  331.751,497.85 332.748,492.398 333.744,450.925 334.74,379.413 335.736,351.211 336.732,368.403 337.728,387.481 338.724,365.692 339.72,370.722 340.716,402.675 
  341.712,438.105 342.708,430.483 343.704,419.958 344.7,344.179 345.696,353.06 346.693,362.071 347.689,395.487 348.685,431.818 349.681,440.879 350.677,480.476 
  351.673,540.315 352.669,564.518 353.665,540.737 354.661,559.571 355.657,522.188 356.653,510.444 357.649,497.024 358.645,564.003 359.642,598.908 360.638,549.103 
  361.634,548.741 362.63,502.698 363.626,454.108 364.622,472.339 365.618,541.343 366.614,505.525 367.61,551.126 368.606,531.061 369.602,612.605 370.598,631.191 
  371.594,651.619 372.59,691.111 373.587,644.684 374.583,608.91 375.579,610.079 376.575,643.923 377.571,608.736 378.567,669.366 379.563,685.979 380.559,683.449 
  381.555,712.783 382.551,697.501 383.547,749.983 384.543,795.478 385.539,798.328 386.536,826.262 387.532,839.558 388.528,902.869 389.524,878.695 390.52,890.834 
  391.516,897.502 392.512,855.708 393.508,853.226 394.504,907.805 395.5,894.768 396.496,932.213 397.492,889.517 398.488,859.149 399.484,824.115 400.481,807.912 
  401.477,807.643 402.473,740.647 403.469,778.489 404.465,782.236 405.461,842.322 406.457,842.302 407.453,831.766 408.449,771.326 409.445,759.219 410.441,691.913 
  411.437,724.441 412.433,739.515 413.43,748.53 414.426,778.845 415.422,740.77 416.418,692.099 417.414,668.053 418.41,680.371 419.406,750.429 420.402,817.687 
  421.398,827.04 422.394,804.9 423.39,790.853 424.386,797.998 425.382,833.937 426.378,824.076 427.375,816.661 428.371,809.999 429.367,813.473 430.363,794.436 
  431.359,803.991 432.355,770.858 433.351,758.429 434.347,782.972 435.343,839.582 436.339,869.489 437.335,845.798 438.331,885.354 439.327,827.721 440.324,858.3 
  441.32,871.299 442.316,865.024 443.312,874.871 444.308,814.334 445.304,793.894 446.3,778.76 447.296,735.95 448.292,707.251 449.288,721.581 450.284,759.824 
  451.28,798.031 452.276,790.124 453.272,806.911 454.269,795.692 455.265,835.427 456.261,848.413 457.257,899.458 458.253,932.333 459.249,910.204 460.245,859.773 
  461.241,919.135 462.237,883.144 463.233,847.855 464.229,878.591 465.225,821.725 466.221,853.729 467.218,828.596 468.214,791.683 469.21,802.174 470.206,840.816 
  471.202,747.495 472.198,752.301 473.194,716.772 474.19,730.186 475.186,733.534 476.182,711.71 477.178,683.871 478.174,787.574 479.17,804.672 480.166,755.921 
  481.163,666.545 482.159,655.118 483.155,618.039 484.151,610.747 485.147,563.202 486.143,549.578 487.139,529.354 488.135,516.037 489.131,554.276 490.127,526.747 
  491.123,516.69 492.119,595.763 493.115,574.289 494.112,547.287 495.108,590.207 496.104,621.037 497.1,651.616 498.096,582.706 499.092,615.017 500.088,673.064 
  501.084,679.792 502.08,701.9 503.076,698.251 504.072,765.183 505.068,769.892 506.064,834.609 507.06,869.582 508.057,822.476 509.053,785.285 510.049,765.962 
  511.045,754.71 512.041,726.752 513.037,695.404 514.033,689.296 515.029,663.436 516.025,658.217 517.021,616.283 518.017,662.97 519.013,668.182 520.009,705.921 
  521.006,704.176 522.002,694.477 522.998,703.185 523.994,753.571 524.99,742.891 525.986,766.274 526.982,823.559 527.978,785.102 528.974,759.797 529.97,715.129 
  530.966,710.024 531.962,677.766 532.958,682.339 533.954,681.05 534.951,690.923 535.947,765.885 536.943,802.167 537.939,834.366 538.935,770.433 539.931,767.737 
  540.927,816.379 541.923,818.513 542.919,833.626 543.915,814.607 544.911,790.99 545.907,840.927 546.903,912.788 547.9,949.523 548.896,932.663 549.892,974.712 
  550.888,1022.23 551.884,1048.66 552.88,1048.67 553.876,1054.07 554.872,1050.99 555.868,1075.72 556.864,1075.1 557.86,1068.03 558.856,990.179 559.852,996.505 
  560.848,1023.82 561.845,971.537 562.841,992.434 563.837,1005.23 564.833,1017.47 565.829,1009.94 566.825,1029.68 567.821,1031.13 568.817,1135.27 569.813,1123.09 
  570.809,1181.76 571.805,1179.9 572.801,1106.78 573.797,1068.5 574.794,1066.49 575.79,1087.8 576.786,1031.51 577.782,1022.79 578.778,1062.08 579.774,1060.58 
  580.77,1063.82 581.766,1077.22 582.762,1105.2 583.758,1100.26 584.754,1163.94 585.75,1218.37 586.746,1259.11 587.742,1245.84 588.739,1226.07 589.735,1183.32 
  590.731,1157.48 591.727,1159.68 592.723,1179.8 593.719,1130.11 594.715,1128.39 595.711,1103.77 596.707,1065.22 597.703,1041.69 598.699,1124.5 599.695,1060.32 
  600.691,1055.4 601.688,1035.77 602.684,1025.57 603.68,986.374 604.676,1003.6 605.672,980.435 606.668,934.861 607.664,936.93 608.66,1036.23 609.656,1048.54 
  610.652,987.052 611.648,1016.85 612.644,981.924 613.64,958.359 614.636,966.671 615.633,994.151 616.629,972.706 617.625,1022.43 618.621,1049.46 619.617,1065.42 
  620.613,1096.79 621.609,1090.74 622.605,1053.28 623.601,1073.62 624.597,1057.46 625.593,1023.88 626.589,1042.44 627.585,1030.48 628.582,1034.66 629.578,1003.29 
  630.574,989.787 631.57,992.502 632.566,974.537 633.562,958.434 634.558,977.145 635.554,965.528 636.55,906.445 637.546,883.322 638.542,880.18 639.538,927.804 
  640.534,890.732 641.53,895.767 642.527,893.127 643.523,883.92 644.519,850.723 645.515,843.162 646.511,902.498 647.507,988.315 648.503,1045.31 649.499,1124.64 
  650.495,1163.14 651.491,1102.6 652.487,1154.26 653.483,1152.88 654.479,1221.05 655.476,1218.57 656.472,1289.04 657.468,1229.62 658.464,1282.9 659.46,1330.15 
  660.456,1322.92 661.452,1317.33 662.448,1350.63 663.444,1329 664.44,1285.46 665.436,1268.53 666.432,1273.18 667.428,1294.06 668.424,1268.05 669.421,1297.88 
  670.417,1274.98 671.413,1253.66 672.409,1232.14 673.405,1160.72 674.401,1140.76 675.397,1199.87 676.393,1286.26 677.389,1302.03 678.385,1239.16 679.381,1225.15 
  680.377,1277.28 681.373,1292.77 682.37,1334.88 683.366,1332.48 684.362,1299.57 685.358,1212.45 686.354,1137.42 687.35,1094.02 688.346,1130.88 689.342,1161.09 
  690.338,1164.67 691.334,1140.36 692.33,1133.02 693.326,1148.9 694.322,1189.01 695.318,1224.79 696.315,1213.35 697.311,1174.05 698.307,1166.83 699.303,1177.02 
  700.299,1163.54 701.295,1067.31 702.291,1062.47 703.287,1034.91 704.283,980.255 705.279,1007.07 706.275,1047.36 707.271,1078.09 708.267,985.594 709.264,942.702 
  710.26,1000.81 711.256,990.141 712.252,1036.96 713.248,979.488 714.244,1029.88 715.24,998.75 716.236,1024.92 717.232,1044.26 718.228,989.596 719.224,1000.71 
  720.22,979.644 721.216,940.856 722.212,961.863 723.209,937.968 724.205,931.07 725.201,899.31 726.197,855.804 727.193,778.092 728.189,696.511 729.185,709.427 
  730.181,740.915 731.177,741.701 732.173,784.491 733.169,819.05 734.165,801.109 735.161,849.169 736.158,848.652 737.154,806.905 738.15,772.093 739.146,691.279 
  740.142,770.836 741.138,803.519 742.134,811.588 743.13,775.108 744.126,720.357 745.122,742.007 746.118,738.691 747.114,716.665 748.11,736.709 749.106,686.5 
  750.103,683.408 751.099,657.616 752.095,695.424 753.091,710.175 754.087,678.561 755.083,641.991 756.079,623.779 757.075,639.179 758.071,621.634 759.067,615.679 
  760.063,621.177 761.059,619.756 762.055,634.115 763.052,642.265 764.048,652.555 765.044,676.96 766.04,711.261 767.036,740.514 768.032,806.387 769.028,745.068 
  770.024,693.33 771.02,625.244 772.016,507.436 773.012,506.16 774.008,476.251 775.004,461.683 776,411.512 776.997,465.867 777.993,450.322 778.989,508.854 
  779.985,472.244 780.981,506.596 781.977,594.655 782.973,587.308 783.969,578.91 784.965,554.172 785.961,548.203 786.957,638.299 787.953,614.682 788.949,556.674 
  789.946,537.821 790.942,563.464 791.938,507.93 792.934,506.779 793.93,517.658 794.926,534.812 795.922,448.143 796.918,466.635 797.914,469.173 798.91,454.582 
  799.906,441.715 800.902,458.909 801.898,423.312 802.894,413.808 803.891,406.762 804.887,375.898 805.883,311.221 806.879,316.299 807.875,330.077 808.871,343.168 
  809.867,355.852 810.863,335.657 811.859,338.345 812.855,364.087 813.851,281.897 814.847,276.077 815.843,255.822 816.84,300.237 817.836,288.57 818.832,347.214 
  819.828,382.107 820.824,400.73 821.82,464.529 822.816,479.998 823.812,548.264 824.808,570.159 825.804,581.509 826.8,556.046 827.796,557.52 828.792,583.717 
  829.788,626.456 830.785,681.22 831.781,655.495 832.777,715.771 833.773,757.291 834.769,717.702 835.765,711.392 836.761,749.869 837.757,741.309 838.753,714.964 
  839.749,695.317 840.745,728.806 841.741,682.947 842.737,745.223 843.734,829.591 844.73,869.869 845.726,827.068 846.722,848.747 847.718,841.665 848.714,818.565 
  849.71,761.337 850.706,780.306 851.702,730.136 852.698,716.433 853.694,718.443 854.69,794.267 855.686,703.732 856.682,670.75 857.679,650.747 858.675,627.211 
  859.671,625.612 860.667,638.878 861.663,638.009 862.659,672.789 863.655,708.123 864.651,721.322 865.647,685.046 866.643,675.043 867.639,710.926 868.635,729.764 
  869.631,761.906 870.628,808.211 871.624,806.454 872.62,778.339 873.616,752.689 874.612,761.192 875.608,756.866 876.604,773.672 877.6,748.252 878.596,772.243 
  879.592,673.077 880.588,662.242 881.584,634.937 882.58,667.395 883.576,702.42 884.573,647.904 885.569,641.597 886.565,675.417 887.561,627.486 888.557,626.737 
  889.553,592.205 890.549,599.76 891.545,631.714 892.541,606.716 893.537,628.377 894.533,615.867 895.529,699.724 896.525,695.184 897.522,675.667 898.518,734.047 
  899.514,760.197 900.51,722.522 901.506,672.072 902.502,645.248 903.498,680.297 904.494,711.689 905.49,757.472 906.486,732.796 907.482,749.148 908.478,760.362 
  909.474,791.101 910.47,723.413 911.467,726.986 912.463,691.095 913.459,689.737 914.455,631.647 915.451,666.656 916.447,661.158 917.443,659.177 918.439,762.578 
  919.435,699.577 920.431,745.735 921.427,807.558 922.423,859.03 923.419,859.116 924.416,871.493 925.412,910.429 926.408,906.697 927.404,901.102 928.4,904.542 
  929.396,935.232 930.392,972.328 931.388,906.167 932.384,977.982 933.38,1030.06 934.376,999.408 935.372,963.732 936.368,924.352 937.365,937.778 938.361,988.512 
  939.357,966.47 940.353,975.177 941.349,1052.1 942.345,1027.86 943.341,995.14 944.337,1004.21 945.333,994.153 946.329,902.573 947.325,890.412 948.321,863.101 
  949.317,872.865 950.313,841.542 951.31,826.533 952.306,788.532 953.302,763.967 954.298,745.68 955.294,735.302 956.29,743.067 957.286,738.433 958.282,805.518 
  959.278,788.101 960.274,877.679 961.27,908.813 962.266,845.18 963.262,871.671 964.259,914.076 965.255,913.671 966.251,879.276 967.247,911.894 968.243,913.483 
  969.239,912.325 970.235,902.758 971.231,868.659 972.227,891.253 973.223,952.231 974.219,1015.49 975.215,1021.93 976.211,983.369 977.207,1009.49 978.204,1081.16 
  979.2,1072.69 980.196,1155.09 981.192,1145.39 982.188,1157.79 983.184,1160.53 984.18,1224.63 985.176,1213.06 986.172,1229.58 987.168,1219.93 988.164,1275.71 
  989.16,1240.86 990.156,1229.48 991.153,1266.82 992.149,1236.85 993.145,1276.37 994.141,1320.06 995.137,1311.36 996.133,1282.29 997.129,1300.11 998.125,1263.21 
  999.121,1221.88 1000.12,1163.16 1001.11,1167.09 1002.11,1224.65 1003.11,1190.28 1004.1,1185.66 1005.1,1166.78 1006.09,1144.23 1007.09,1142.95 1008.09,1134.33 
  1009.08,1094.76 1010.08,1069.28 1011.07,1071.72 1012.07,1074.03 1013.07,1071.62 1014.06,1082.61 1015.06,1051.99 1016.05,1110.29 1017.05,1100.41 1018.05,1076.27 
  1019.04,1059.81 1020.04,1072.86 1021.03,1070.38 1022.03,1067.97 1023.03,1073.88 1024.02,1114.93 1025.02,1101.42 1026.02,1116.53 1027.01,1149.14 1028.01,1169.08 
  1029,1170.14 1030,1084.44 1031,1068.29 1031.99,1052.77 1032.99,993.564 1033.98,970.918 1034.98,944.998 1035.98,961.838 1036.97,937.218 1037.97,950.091 
  1038.96,951.569 1039.96,934.221 1040.96,936.94 1041.95,960.458 1042.95,971.374 1043.94,909.741 1044.94,971.088 1045.94,973.551 1046.93,970.346 1047.93,993.377 
  1048.92,1035.54 1049.92,1040.04 1050.92,1027.09 1051.91,985.677 1052.91,899.984 1053.91,941.524 1054.9,913.255 1055.9,901.285 1056.89,926.813 1057.89,973.205 
  1058.89,971.323 1059.88,962.221 1060.88,1017.36 1061.87,1038.42 1062.87,1042.09 1063.87,1138.35 1064.86,1140.96 1065.86,1090.11 1066.85,1119.12 1067.85,1162.76 
  1068.85,1161.43 1069.84,1157.62 1070.84,1107.66 1071.83,1090.69 1072.83,1074.7 1073.83,1032.49 1074.82,1012.08 1075.82,1028.71 1076.81,974.951 1077.81,1013.05 
  1078.81,956.891 1079.8,911.205 1080.8,908.494 1081.8,837.239 1082.79,834.47 1083.79,798.898 1084.78,830.763 1085.78,756.71 1086.78,766.039 1087.77,803.115 
  1088.77,738.854 1089.76,711.701 1090.76,739.559 1091.76,721.318 1092.75,687.227 1093.75,776.931 1094.74,745.172 1095.74,770.772 1096.74,777.935 1097.73,846.273 
  1098.73,763.59 1099.72,813.27 1100.72,801.951 1101.72,745.716 1102.71,772.802 1103.71,796.395 1104.7,815.622 1105.7,787.727 1106.7,883.04 1107.69,879.245 
  1108.69,820.06 1109.69,854.748 1110.68,738.215 1111.68,778.234 1112.67,745.157 1113.67,784 1114.67,755.79 1115.66,695.821 1116.66,703.51 1117.65,748.07 
  1118.65,673.178 1119.65,680.014 1120.64,676.569 1121.64,710.519 1122.63,734.22 1123.63,759.477 1124.63,771.859 1125.62,795.454 1126.62,793.753 1127.61,776.375 
  1128.61,774.729 1129.61,762.777 1130.6,800.889 1131.6,808.744 1132.6,797.66 1133.59,825.808 1134.59,834.316 1135.58,843.438 1136.58,805.752 1137.58,777.301 
  1138.57,712.623 1139.57,720.23 1140.56,717.778 1141.56,673.523 1142.56,653.624 1143.55,607.648 1144.55,607.249 1145.54,616.715 1146.54,690.039 1147.54,663.348 
  1148.53,732.333 1149.53,736.672 1150.52,733.855 1151.52,693.784 1152.52,729.384 1153.51,671.803 1154.51,718.34 1155.5,744.257 1156.5,765.459 1157.5,736.189 
  1158.49,739.211 1159.49,723.331 1160.49,746.605 1161.48,768.341 1162.48,748.052 1163.47,693.818 1164.47,780.96 1165.47,737.768 1166.46,714.68 1167.46,675.501 
  1168.45,689.026 1169.45,695.695 1170.45,700.552 1171.44,726.389 1172.44,772.666 1173.43,726.419 1174.43,670.7 1175.43,659.778 1176.42,683.954 1177.42,720.675 
  1178.41,711.925 1179.41,681.577 1180.41,677.764 1181.4,673.188 1182.4,701.536 1183.39,637.351 1184.39,679.386 1185.39,695.4 1186.38,711.201 1187.38,763.226 
  1188.38,715.429 1189.37,733.744 1190.37,686.201 1191.36,710.575 1192.36,754.919 1193.36,840.077 1194.35,835.631 1195.35,781.998 1196.34,808.564 1197.34,860.419 
  1198.34,824.588 1199.33,835.326 1200.33,807.068 1201.32,812.628 1202.32,838.024 1203.32,803.701 1204.31,808.559 1205.31,860.295 1206.3,873.205 1207.3,857.106 
  1208.3,828.493 1209.29,793.664 1210.29,788.815 1211.28,797.46 1212.28,807.838 1213.28,800.95 1214.27,815.416 1215.27,772.625 1216.27,699.613 1217.26,732.533 
  1218.26,732.57 1219.25,745.538 1220.25,762.522 1221.25,774.263 1222.24,734.001 1223.24,687.724 1224.23,647.318 1225.23,681.744 1226.23,700.857 1227.22,698.98 
  1228.22,751.586 1229.21,741.028 1230.21,802.203 1231.21,834.316 1232.2,805.832 1233.2,870.269 1234.19,891.881 1235.19,947.576 1236.19,878.121 1237.18,909.656 
  1238.18,938.649 1239.17,953.431 1240.17,945.667 1241.17,890.795 1242.16,880.41 1243.16,894.824 1244.16,844.583 1245.15,791.693 1246.15,795.382 1247.14,793.336 
  1248.14,836.463 1249.14,790.997 1250.13,818.438 1251.13,761.687 1252.12,739.871 1253.12,770.478 1254.12,713.97 1255.11,714.796 1256.11,671.072 1257.1,684.572 
  1258.1,656.204 1259.1,647.797 1260.09,600.898 1261.09,583.591 1262.08,598.86 1263.08,616.186 1264.08,620.751 1265.07,654.336 1266.07,691.369 1267.07,691.773 
  1268.06,709.97 1269.06,673.373 1270.05,689.867 1271.05,740.952 1272.05,759.785 1273.04,727.273 1274.04,726.775 1275.03,688.164 1276.03,734.315 1277.03,771.027 
  1278.02,795.909 1279.02,792.443 1280.01,800.867 1281.01,817.318 1282.01,790.992 1283,802.988 1284,758.8 1284.99,714.046 1285.99,706.14 1286.99,676.384 
  1287.98,740.446 1288.98,728.434 1289.97,706.273 1290.97,704.969 1291.97,721.866 1292.96,730 1293.96,716.686 1294.96,684.167 1295.95,756.607 1296.95,717.933 
  1297.94,726.161 1298.94,669.493 1299.94,571.468 1300.93,590.561 1301.93,637.23 1302.92,631.484 1303.92,615.553 1304.92,643.814 1305.91,649.149 1306.91,633.962 
  1307.9,599.031 1308.9,542.012 1309.9,566.34 1310.89,554.562 1311.89,510.837 1312.88,513.401 1313.88,481.627 1314.88,505.059 1315.87,408.274 1316.87,395.21 
  1317.86,382.978 1318.86,374.574 1319.86,340.313 1320.85,371.413 1321.85,383.32 1322.85,365.863 1323.84,417.751 1324.84,391.931 1325.83,442.567 1326.83,455.316 
  1327.83,474.678 1328.82,486.155 1329.82,488.027 1330.81,483.708 1331.81,497.019 1332.81,553.626 1333.8,534.972 1334.8,453.772 1335.79,480.777 1336.79,463.226 
  1337.79,455.083 1338.78,467.068 1339.78,477.915 1340.77,553.454 1341.77,556.524 1342.77,584.589 1343.76,618.738 1344.76,568.689 1345.75,573.388 1346.75,591.125 
  1347.75,596.972 1348.74,643.706 1349.74,586.865 1350.74,582.288 1351.73,636.678 1352.73,599.12 1353.72,662.23 1354.72,737.507 1355.72,714.276 1356.71,695.381 
  1357.71,737.265 1358.7,738.096 1359.7,718.666 1360.7,656.438 1361.69,632.641 1362.69,671.166 1363.68,679.957 1364.68,648.983 1365.68,640.488 1366.67,676.957 
  1367.67,707.337 1368.66,718.815 1369.66,643.534 1370.66,618.395 1371.65,604.099 1372.65,606.249 1373.64,664.825 1374.64,700.361 1375.64,715.68 1376.63,692.3 
  1377.63,687.826 1378.63,665.74 1379.62,688.469 1380.62,671.398 1381.61,721.411 1382.61,751.267 1383.61,684.008 1384.6,669.21 1385.6,663.871 1386.59,608.561 
  1387.59,624.914 1388.59,616.399 1389.58,561.781 1390.58,548.893 1391.57,581.591 1392.57,529.016 1393.57,485.106 1394.56,524.422 1395.56,516.731 1396.55,538.758 
  1397.55,545.298 1398.55,542.673 1399.54,562.178 1400.54,534.171 1401.54,553.024 1402.53,474.101 1403.53,500.844 1404.52,517.744 1405.52,487.925 1406.52,510.45 
  1407.51,520.199 1408.51,581.318 1409.5,619.707 1410.5,546.319 1411.5,510.407 1412.49,504.626 1413.49,611.705 1414.48,656.527 1415.48,676.8 1416.48,683.614 
  1417.47,634.556 1418.47,685.541 1419.46,692.238 1420.46,762.867 1421.46,809.066 1422.45,794.311 1423.45,855.74 1424.44,944.607 1425.44,890.929 1426.44,879.226 
  1427.43,873.149 1428.43,916.951 1429.43,909.796 1430.42,922.782 1431.42,915.444 1432.41,899.63 1433.41,877.04 1434.41,815.433 1435.4,835.856 1436.4,799.803 
  1437.39,743.949 1438.39,707.511 1439.39,755.792 1440.38,794.878 1441.38,796.185 1442.37,682.791 1443.37,816.013 1444.37,870.836 1445.36,846.47 1446.36,838.225 
  1447.35,793.492 1448.35,775.911 1449.35,746.325 1450.34,806.982 1451.34,818.957 1452.33,844.051 1453.33,844.521 1454.33,785.257 1455.32,814.509 1456.32,809.253 
  1457.32,838.645 1458.31,836.495 1459.31,839.61 1460.3,793.35 1461.3,879.791 1462.3,871.788 1463.29,893.65 1464.29,825.613 1465.28,858.846 1466.28,854.903 
  1467.28,836.058 1468.27,803.954 1469.27,777.975 1470.26,749.188 1471.26,691.031 1472.26,680.592 1473.25,682.652 1474.25,624.466 1475.24,601.436 1476.24,601.357 
  1477.24,584.76 1478.23,542.322 1479.23,483.001 1480.22,514.383 1481.22,583.311 1482.22,635.732 1483.21,671.328 1484.21,742.747 1485.21,771.331 1486.2,770.444 
  1487.2,782.213 1488.19,733.444 1489.19,756.907 1490.19,775.286 1491.18,744.256 1492.18,707.035 1493.17,757.092 1494.17,794.987 1495.17,828.254 1496.16,890.829 
  1497.16,928.956 1498.15,948.852 1499.15,953.75 1500.15,1013.4 1501.14,965.644 1502.14,943.705 1503.13,972.034 1504.13,968.1 1505.13,971.493 1506.12,960.45 
  1507.12,973.213 1508.11,939.545 1509.11,963.229 1510.11,965.736 1511.1,963.973 1512.1,1006.67 1513.1,1043.54 1514.09,1025.58 1515.09,1014.04 1516.08,1010.35 
  1517.08,983.13 1518.08,991.287 1519.07,1018.81 1520.07,1096.08 1521.06,1081.96 1522.06,1078.92 1523.06,1016.48 1524.05,1042.65 1525.05,1025.94 1526.04,1076.43 
  1527.04,1186.88 1528.04,1215.65 1529.03,1198.97 1530.03,1205.65 1531.02,1246.64 1532.02,1173.07 1533.02,1172.2 1534.01,1149.8 1535.01,1132.9 1536.01,1192.96 
  1537,1177.75 1538,1209.24 1538.99,1258.8 1539.99,1245.87 1540.99,1266.31 1541.98,1280.18 1542.98,1315.48 1543.97,1279.98 1544.97,1335.29 1545.97,1301.71 
  1546.96,1354.18 1547.96,1384.24 1548.95,1339.18 1549.95,1314.24 1550.95,1315.94 1551.94,1339.1 1552.94,1252.95 1553.93,1292.77 1554.93,1245.84 1555.93,1270.14 
  1556.92,1185.77 1557.92,1224.81 1558.91,1222.18 1559.91,1156.28 1560.91,1165.52 1561.9,1178.74 1562.9,1168.81 1563.9,1164.69 1564.89,1200.09 1565.89,1203.53 
  1566.88,1147.37 1567.88,1173.69 1568.88,1165.44 1569.87,1172.24 1570.87,1186 1571.86,1199.87 1572.86,1182.68 1573.86,1232.57 1574.85,1252.95 1575.85,1232.68 
  1576.84,1234.84 1577.84,1230.53 1578.84,1170.12 1579.83,1152.96 1580.83,1157.61 1581.82,1221.31 1582.82,1223.24 1583.82,1164.62 1584.81,1137.09 1585.81,1097.49 
  1586.8,1031.77 1587.8,1026.75 1588.8,1054.16 1589.79,1055.08 1590.79,1034.05 1591.79,1028.68 1592.78,962.591 1593.78,1018.36 1594.77,1128.95 1595.77,1191.79 
  1596.77,1153.76 1597.76,1156.81 1598.76,1152.61 1599.75,1092.54 1600.75,1099.26 1601.75,1126.3 1602.74,1140.4 1603.74,1157.19 1604.73,1112.18 1605.73,1110.55 
  1606.73,1128.52 1607.72,1170.79 1608.72,1150.3 1609.71,1187.49 1610.71,1104.81 1611.71,1117.59 1612.7,1042.41 1613.7,1045.3 1614.69,1011.2 1615.69,1012.68 
  1616.69,952.349 1617.68,925.106 1618.68,906.713 1619.68,939.297 1620.67,950.583 1621.67,932.967 1622.66,915.107 1623.66,919.002 1624.66,870.815 1625.65,911.415 
  1626.65,863.041 1627.64,913.303 1628.64,906.787 1629.64,939.217 1630.63,957.085 1631.63,1014.06 1632.62,969.762 1633.62,1026.27 1634.62,1052.31 1635.61,1041.49 
  1636.61,1072.43 1637.6,1140.68 1638.6,1042.85 1639.6,1074.59 1640.59,1043.24 1641.59,1072.3 1642.58,1110.85 1643.58,1133.81 1644.58,1112.34 1645.57,1067.2 
  1646.57,1014.07 1647.57,1023.02 1648.56,973.958 1649.56,926.423 1650.55,903.774 1651.55,933.82 1652.55,956.148 1653.54,934.475 1654.54,976.948 1655.53,991.018 
  1656.53,1065.4 1657.53,1018.13 1658.52,1008.25 1659.52,941.202 1660.51,893.245 1661.51,853.71 1662.51,910.787 1663.5,966.411 1664.5,861.962 1665.49,879.618 
  1666.49,935.671 1667.49,913.988 1668.48,944.077 1669.48,856.697 1670.48,816.074 1671.47,835.956 1672.47,839.922 1673.46,783.929 1674.46,810.699 1675.46,887.922 
  1676.45,895.305 1677.45,901.727 1678.44,851.533 1679.44,872.604 1680.44,873.744 1681.43,865.424 1682.43,872.258 1683.42,916.458 1684.42,967.612 1685.42,972.751 
  1686.41,986.097 1687.41,1054.02 1688.4,1037.02 1689.4,999.273 1690.4,982.968 1691.39,977.684 1692.39,997.99 1693.38,1029.98 1694.38,1032.66 1695.38,1044.47 
  1696.37,978.939 1697.37,993.35 1698.37,971.229 1699.36,1019.86 1700.36,1011.18 1701.35,997.7 1702.35,999.233 1703.35,1078.64 1704.34,1033.54 1705.34,1003.47 
  1706.33,964.736 1707.33,930.589 1708.33,896.234 1709.32,821.711 1710.32,788.971 1711.31,740.899 1712.31,702.14 1713.31,744.825 1714.3,641.458 1715.3,608.993 
  1716.29,629.323 1717.29,625.456 1718.29,672.879 1719.28,639.52 1720.28,626.941 1721.27,639.754 1722.27,609.968 1723.27,581.375 1724.26,623.745 1725.26,631.368 
  1726.26,607.584 1727.25,613.102 1728.25,582.927 1729.24,565.662 1730.24,568.233 1731.24,594.431 1732.23,566.196 1733.23,524.219 1734.22,479.854 1735.22,499.978 
  1736.22,498.771 1737.21,412.534 1738.21,419.956 1739.2,349.821 1740.2,336.503 1741.2,365.555 1742.19,412.335 1743.19,429.489 1744.18,404.277 1745.18,403.602 
  1746.18,397.188 1747.17,390.841 1748.17,362.05 1749.16,429.281 1750.16,418.447 1751.16,407.012 1752.15,444.488 1753.15,480.361 1754.15,453.302 1755.14,440.767 
  1756.14,415.804 1757.13,370.175 1758.13,311.697 1759.13,348.388 1760.12,332.446 1761.12,328.131 1762.11,285.596 1763.11,297.332 1764.11,313.173 1765.1,299.74 
  1766.1,332.959 1767.09,272.747 1768.09,289.21 1769.09,279.899 1770.08,286.757 1771.08,347.637 1772.07,347.935 1773.07,360.299 1774.07,349.917 1775.06,400.48 
  1776.06,481.639 1777.05,449.161 1778.05,473.449 1779.05,478.766 1780.04,440.607 1781.04,478.816 1782.04,517.357 1783.03,586.321 1784.03,570.216 1785.02,637.031 
  1786.02,723.008 1787.02,746.917 1788.01,765.277 1789.01,706.682 1790,728.4 1791,682.622 1792,740.408 1792.99,729.021 1793.99,679.079 1794.98,624.599 
  1795.98,646.319 1796.98,637.767 1797.97,600.869 1798.97,622.822 1799.96,652.799 1800.96,674.728 1801.96,612.403 1802.95,592.274 1803.95,566.988 1804.95,591.224 
  1805.94,596.889 1806.94,606.199 1807.93,626.776 1808.93,608.56 1809.93,595 1810.92,567.714 1811.92,593.986 1812.91,594.51 1813.91,546.734 1814.91,553.519 
  1815.9,568.12 1816.9,584.022 1817.89,622.72 1818.89,573.004 1819.89,626.82 1820.88,659.24 1821.88,711.14 1822.87,744.568 1823.87,763.259 1824.87,719.732 
  1825.86,648.254 1826.86,651.158 1827.85,679.735 1828.85,670.268 1829.85,651.892 1830.84,631.889 1831.84,577.866 1832.84,601.07 1833.83,578.928 1834.83,600.957 
  1835.82,585.037 1836.82,622.5 1837.82,610.162 1838.81,621.178 1839.81,622.959 1840.8,567.917 1841.8,662.514 1842.8,571.627 1843.79,529.403 1844.79,562.915 
  1845.78,572.459 1846.78,581.197 1847.78,540.472 1848.77,566.337 1849.77,558.602 1850.76,561.486 1851.76,532.26 1852.76,595.323 1853.75,631.674 1854.75,579.69 
  1855.74,547.882 1856.74,626.691 1857.74,578.992 1858.73,622.309 1859.73,632.676 1860.73,723.278 1861.72,657.997 1862.72,629.601 1863.71,627.914 1864.71,667.619 
  1865.71,626.877 1866.7,637.331 1867.7,698.032 1868.69,639.415 1869.69,665.357 1870.69,700.28 1871.68,708.75 1872.68,692.878 1873.67,687.285 1874.67,716.853 
  1875.67,694.256 1876.66,660.914 1877.66,679.7 1878.65,643.642 1879.65,624.937 1880.65,597.953 1881.64,596.901 1882.64,658.378 1883.63,679.552 1884.63,615.643 
  1885.63,643.791 1886.62,605.728 1887.62,580.695 1888.62,588.033 1889.61,563.869 1890.61,620.674 1891.6,619.322 1892.6,640.41 1893.6,664.524 1894.59,675.395 
  1895.59,647.24 1896.58,637.915 1897.58,604.338 1898.58,579.879 1899.57,601.759 1900.57,563.765 1901.56,530.302 1902.56,480.653 1903.56,458.756 1904.55,471.023 
  1905.55,461.583 1906.54,444.027 1907.54,438.743 1908.54,432.948 1909.53,462.125 1910.53,488.417 1911.52,490.122 1912.52,425.222 1913.52,362.292 1914.51,355.464 
  1915.51,338.75 1916.51,400.22 1917.5,333.904 1918.5,353.505 1919.49,385.055 1920.49,434.623 1921.49,444.253 1922.48,454.167 1923.48,409.892 1924.47,378.337 
  1925.47,396.887 1926.47,350.236 1927.46,373.657 1928.46,325.219 1929.45,339.08 1930.45,346.22 1931.45,351.608 1932.44,325.692 1933.44,292.283 1934.43,269.121 
  1935.43,254.674 1936.43,378.317 1937.42,354.898 1938.42,356.771 1939.42,385.522 1940.41,410.529 1941.41,395.534 1942.4,407.99 1943.4,418.383 1944.4,422.719 
  1945.39,371.337 1946.39,378.048 1947.38,424.243 1948.38,465.745 1949.38,477.746 1950.37,468.208 1951.37,448.959 1952.36,460.957 1953.36,474.386 1954.36,387.977 
  1955.35,326.985 1956.35,297.995 1957.34,281.371 1958.34,265.712 1959.34,292.393 1960.33,299.719 1961.33,240.31 1962.32,173.5 1963.32,195.146 1964.32,113.613 
  1965.31,185.745 1966.31,160.833 1967.31,177.949 1968.3,175.373 1969.3,198.856 1970.29,127.725 1971.29,116.348 1972.29,134.437 1973.28,124.961 1974.28,134.766 
  1975.27,143.117 1976.27,170.355 1977.27,127.842 1978.26,173.62 1979.26,189.275 1980.25,176.166 1981.25,131.158 1982.25,166.027 1983.24,125.183 1984.24,111.982 
  1985.23,164.497 1986.23,225.036 1987.23,303.86 1988.22,309.263 1989.22,301.708 1990.21,226.026 1991.21,240.761 1992.21,201.117 1993.2,222.679 1994.2,186.896 
  1995.2,167.732 1996.19,236.394 1997.19,253.566 1998.18,260.072 1999.18,236.558 2000.18,242.681 2001.17,222.386 2002.17,230.901 2003.16,284.285 2004.16,210.478 
  2005.16,215.557 2006.15,198.533 2007.15,220.278 2008.14,189.121 2009.14,151.348 2010.14,114.219 2011.13,88.597 2012.13,132.636 2013.12,184.42 2014.12,158 
  2015.12,109.57 2016.11,150.379 2017.11,122.739 2018.1,151.124 2019.1,86.1857 2020.1,103.865 2021.09,126.732 2022.09,194.457 2023.09,199.723 2024.08,248.277 
  2025.08,323.449 2026.07,307.14 2027.07,329.384 2028.07,322.555 2029.06,287.225 2030.06,353.939 2031.05,375.844 2032.05,454.868 2033.05,440.228 2034.04,410.798 
  2035.04,366.4 2036.03,368.773 2037.03,347.968 2038.03,361.362 2039.02,316.891 2040.02,394.351 2041.01,370.291 2042.01,415.287 2043.01,414.929 2044,336.973 
  2045,318.294 2045.99,357.658 2046.99,399.149 2047.99,357.831 2048.98,430.566 2049.98,463.581 2050.98,494.281 2051.97,458.701 2052.97,452.587 2053.96,474.987 
  2054.96,470.254 2055.96,413.223 2056.95,409.232 2057.95,421.918 2058.94,381.057 2059.94,401.175 2060.94,428.648 2061.93,384.553 2062.93,390.167 2063.92,382.527 
  2064.92,407.531 2065.92,444.595 2066.91,459.966 2067.91,428.431 2068.9,355.96 2069.9,270.994 2070.9,289.512 2071.89,290.414 2072.89,236.667 2073.89,231.017 
  2074.88,243.253 2075.88,282.218 2076.87,278.903 2077.87,221.171 2078.87,242.306 2079.86,251.218 2080.86,297.916 2081.85,361.245 2082.85,372.509 2083.85,354.99 
  2084.84,357.812 2085.84,324.991 2086.83,305.632 2087.83,364.534 2088.83,405.203 2089.82,494.671 2090.82,490.277 2091.81,530.2 2092.81,548.437 2093.81,618.834 
  2094.8,619.969 2095.8,539.036 2096.79,570.252 2097.79,610.961 2098.79,605.729 2099.78,522.963 2100.78,490.611 2101.78,466.927 2102.77,488.296 2103.77,603.577 
  2104.76,654.756 2105.76,660.496 2106.76,764.183 2107.75,760.833 2108.75,696.184 2109.74,690.147 2110.74,713.095 2111.74,723.096 2112.73,775.545 2113.73,759.49 
  2114.72,739.496 2115.72,756.864 2116.72,718.076 2117.71,739.528 2118.71,759.331 2119.7,818.189 2120.7,725.716 2121.7,692.375 2122.69,727.284 2123.69,697.752 
  2124.68,705.675 2125.68,767.817 2126.68,764.312 2127.67,810.642 2128.67,843.895 2129.67,839.234 2130.66,859.184 2131.66,899.001 2132.65,867.294 2133.65,868.588 
  2134.65,841.014 2135.64,799.25 2136.64,781.214 2137.63,789.92 2138.63,757.997 2139.63,729.695 2140.62,736.402 2141.62,697.132 2142.61,639.779 2143.61,632.503 
  2144.61,646.898 2145.6,689.898 2146.6,637.958 2147.59,681.012 2148.59,684.778 2149.59,654.889 2150.58,660.797 2151.58,606.414 2152.57,565.257 2153.57,598.196 
  2154.57,587.322 2155.56,624.057 2156.56,608.379 2157.56,587.324 2158.55,564.642 2159.55,596.943 2160.54,610.734 2161.54,615.426 2162.54,617.437 2163.53,654.726 
  2164.53,607.059 2165.52,652.114 2166.52,705.394 2167.52,728.124 2168.51,740 2169.51,665.494 2170.5,663.811 2171.5,676.813 2172.5,716.474 2173.49,688.417 
  2174.49,686.469 2175.48,695.472 2176.48,696.081 2177.48,712.239 2178.47,740.476 2179.47,833.266 2180.46,822.071 2181.46,796.487 2182.46,751.305 2183.45,765.86 
  2184.45,790.619 2185.45,799.563 2186.44,794.763 2187.44,797.758 2188.43,747.924 2189.43,778.659 2190.43,801.409 2191.42,776.915 2192.42,788.966 2193.41,829.946 
  2194.41,752.533 2195.41,730.767 2196.4,744.64 2197.4,726.371 2198.39,714.159 2199.39,771.804 2200.39,761.202 2201.38,768.526 2202.38,770.888 2203.37,789.208 
  2204.37,798.224 2205.37,846.306 2206.36,911.066 2207.36,974.779 2208.36,981.147 2209.35,921.598 2210.35,959.743 2211.34,1003.67 2212.34,958.848 2213.34,957.356 
  2214.33,911.623 2215.33,892.91 2216.32,822.611 2217.32,792.41 2218.32,804.579 2219.31,771.423 2220.31,751.933 2221.3,731.762 2222.3,716.482 2223.3,736.358 
  2224.29,607.441 2225.29,620.902 2226.28,664.005 2227.28,589.718 2228.28,623.066 2229.27,578.708 2230.27,563.674 2231.26,529.915 2232.26,548.974 2233.26,579.913 
  2234.25,647.641 2235.25,685.394 2236.25,644.036 2237.24,637.389 2238.24,678.576 2239.23,708.032 2240.23,684.089 2241.23,653.765 2242.22,583.763 2243.22,558.724 
  2244.21,625.071 2245.21,608.288 2246.21,571.589 2247.2,519.205 2248.2,572.54 2249.19,571.975 2250.19,572.752 2251.19,644.57 2252.18,622.246 2253.18,570.329 
  2254.17,578.624 2255.17,590.011 2256.17,658.063 2257.16,594.025 2258.16,599.699 2259.15,572.595 2260.15,594.634 2261.15,641.521 2262.14,632.172 2263.14,632.462 
  2264.14,637.843 2265.13,624.055 2266.13,598.615 2267.12,615.087 2268.12,618.48 2269.12,608.014 2270.11,492.711 2271.11,453.555 2272.1,500.805 2273.1,540.805 
  2274.1,515.967 2275.09,572.716 2276.09,605.86 2277.08,600.282 2278.08,626.496 2279.08,665.015 2280.07,708.29 2281.07,710.637 2282.06,727.037 2283.06,697.031 
  2284.06,773.208 2285.05,809.062 2286.05,798.809 2287.04,836.177 2288.04,768.783 2289.04,749.668 2290.03,746.624 2291.03,733.052 2292.03,745.957 2293.02,707.953 
  
  "/>
<path clip-path="url(#clip710)" d="
M1811.4 1377.32 L2282.4 1377.32 L2282.4 1092.2 L1811.4 1092.2  Z
  " fill="#ffffff" fill-rule="evenodd" fill-opacity="1"/>
<polyline clip-path="url(#clip710)" style="stroke:#000000; stroke-linecap:round; stroke-linejoin:round; stroke-width:4; stroke-opacity:1; fill:none" points="
  1811.4,1377.32 2282.4,1377.32 2282.4,1092.2 1811.4,1092.2 1811.4,1377.32 
  "/>
<path clip-path="url(#clip710)" d="M1946.8 1187.24 L1928.65 1139.72 L1935.37 1139.72 L1950.42 1179.72 L1965.51 1139.72 L1972.19 1139.72 L1954.08 1187.24 L1946.8 1187.24 Z" fill="#000000" fill-rule="evenodd" fill-opacity="1" /><path clip-path="url(#clip710)" d="M1990.02 1169.32 Q1982.92 1169.32 1980.18 1170.94 Q1977.45 1172.56 1977.45 1176.48 Q1977.45 1179.6 1979.48 1181.44 Q1981.55 1183.26 1985.08 1183.26 Q1989.95 1183.26 1992.88 1179.82 Q1995.84 1176.35 1995.84 1170.62 L1995.84 1169.32 L1990.02 1169.32 M2001.7 1166.9 L2001.7 1187.24 L1995.84 1187.24 L1995.84 1181.82 Q1993.84 1185.07 1990.85 1186.63 Q1987.85 1188.16 1983.53 1188.16 Q1978.05 1188.16 1974.8 1185.1 Q1971.59 1182.02 1971.59 1176.86 Q1971.59 1170.84 1975.6 1167.79 Q1979.64 1164.73 1987.63 1164.73 L1995.84 1164.73 L1995.84 1164.16 Q1995.84 1160.12 1993.17 1157.92 Q1990.53 1155.69 1985.72 1155.69 Q1982.67 1155.69 1979.77 1156.43 Q1976.87 1157.16 1974.2 1158.62 L1974.2 1153.21 Q1977.41 1151.97 1980.44 1151.36 Q1983.46 1150.73 1986.33 1150.73 Q1994.06 1150.73 1997.88 1154.74 Q2001.7 1158.75 2001.7 1166.9 Z" fill="#000000" fill-rule="evenodd" fill-opacity="1" /><path clip-path="url(#clip710)" d="M2034.42 1157.06 Q2033.43 1156.49 2032.25 1156.23 Q2031.11 1155.95 2029.71 1155.95 Q2024.74 1155.95 2022.07 1159.19 Q2019.43 1162.41 2019.43 1168.46 L2019.43 1187.24 L2013.54 1187.24 L2013.54 1151.59 L2019.43 1151.59 L2019.43 1157.13 Q2021.27 1153.88 2024.23 1152.32 Q2027.19 1150.73 2031.43 1150.73 Q2032.03 1150.73 2032.76 1150.82 Q2033.5 1150.89 2034.39 1151.05 L2034.42 1157.06 Z" fill="#000000" fill-rule="evenodd" fill-opacity="1" /><path clip-path="url(#clip710)" d="M2040.56 1151.59 L2046.42 1151.59 L2046.42 1187.24 L2040.56 1187.24 L2040.56 1151.59 M2040.56 1137.71 L2046.42 1137.71 L2046.42 1145.13 L2040.56 1145.13 L2040.56 1137.71 Z" fill="#000000" fill-rule="evenodd" fill-opacity="1" /><path clip-path="url(#clip710)" d="M2074.87 1169.32 Q2067.78 1169.32 2065.04 1170.94 Q2062.3 1172.56 2062.3 1176.48 Q2062.3 1179.6 2064.34 1181.44 Q2066.41 1183.26 2069.94 1183.26 Q2074.81 1183.26 2077.74 1179.82 Q2080.7 1176.35 2080.7 1170.62 L2080.7 1169.32 L2074.87 1169.32 M2086.55 1166.9 L2086.55 1187.24 L2080.7 1187.24 L2080.7 1181.82 Q2078.69 1185.07 2075.7 1186.63 Q2072.71 1188.16 2068.38 1188.16 Q2062.91 1188.16 2059.66 1185.1 Q2056.44 1182.02 2056.44 1176.86 Q2056.44 1170.84 2060.45 1167.79 Q2064.5 1164.73 2072.49 1164.73 L2080.7 1164.73 L2080.7 1164.16 Q2080.7 1160.12 2078.02 1157.92 Q2075.38 1155.69 2070.58 1155.69 Q2067.52 1155.69 2064.62 1156.43 Q2061.73 1157.16 2059.05 1158.62 L2059.05 1153.21 Q2062.27 1151.97 2065.29 1151.36 Q2068.32 1150.73 2071.18 1150.73 Q2078.92 1150.73 2082.73 1154.74 Q2086.55 1158.75 2086.55 1166.9 Z" fill="#000000" fill-rule="evenodd" fill-opacity="1" /><path clip-path="url(#clip710)" d="M2124.21 1169.44 Q2124.21 1162.98 2121.53 1159.32 Q2118.89 1155.63 2114.25 1155.63 Q2109.6 1155.63 2106.92 1159.32 Q2104.28 1162.98 2104.28 1169.44 Q2104.28 1175.9 2106.92 1179.6 Q2109.6 1183.26 2114.25 1183.26 Q2118.89 1183.26 2121.53 1179.6 Q2124.21 1175.9 2124.21 1169.44 M2104.28 1157 Q2106.13 1153.82 2108.93 1152.29 Q2111.76 1150.73 2115.68 1150.73 Q2122.17 1150.73 2126.21 1155.88 Q2130.29 1161.04 2130.29 1169.44 Q2130.29 1177.85 2126.21 1183 Q2122.17 1188.16 2115.68 1188.16 Q2111.76 1188.16 2108.93 1186.63 Q2106.13 1185.07 2104.28 1181.89 L2104.28 1187.24 L2098.39 1187.24 L2098.39 1137.71 L2104.28 1137.71 L2104.28 1157 Z" fill="#000000" fill-rule="evenodd" fill-opacity="1" /><path clip-path="url(#clip710)" d="M2139.99 1137.71 L2145.85 1137.71 L2145.85 1187.24 L2139.99 1187.24 L2139.99 1137.71 Z" fill="#000000" fill-rule="evenodd" fill-opacity="1" /><path clip-path="url(#clip710)" d="M2188.6 1167.95 L2188.6 1170.81 L2161.67 1170.81 Q2162.05 1176.86 2165.3 1180.04 Q2168.58 1183.19 2174.4 1183.19 Q2177.77 1183.19 2180.93 1182.37 Q2184.11 1181.54 2187.23 1179.88 L2187.23 1185.42 Q2184.08 1186.76 2180.77 1187.46 Q2177.46 1188.16 2174.05 1188.16 Q2165.52 1188.16 2160.52 1183.19 Q2155.56 1178.23 2155.56 1169.76 Q2155.56 1161.01 2160.27 1155.88 Q2165.01 1150.73 2173.03 1150.73 Q2180.23 1150.73 2184.4 1155.37 Q2188.6 1159.99 2188.6 1167.95 M2182.74 1166.23 Q2182.68 1161.42 2180.03 1158.56 Q2177.42 1155.69 2173.1 1155.69 Q2168.19 1155.69 2165.23 1158.46 Q2162.31 1161.23 2161.86 1166.26 L2182.74 1166.23 Z" fill="#000000" fill-rule="evenodd" fill-opacity="1" /><polyline clip-path="url(#clip710)" style="stroke:#009af9; stroke-linecap:round; stroke-linejoin:round; stroke-width:8; stroke-opacity:1; fill:none" points="
  1834.85,1234.76 1975.56,1234.76 
  "/>
<path clip-path="url(#clip710)" d="M2025.01 1233.26 Q2024.4 1236.28 2023.58 1238.01 Q2022.27 1240.66 2020.02 1240.66 Q2018.42 1240.66 2017.21 1239.7 Q2016.01 1238.74 2015.71 1237.15 Q2015.1 1237.87 2014.65 1238.3 Q2014.23 1238.72 2013.39 1239.37 Q2012.57 1240.01 2011.54 1240.33 Q2010.51 1240.66 2009.34 1240.66 Q2006.48 1240.66 2004.68 1239.16 Q2002.24 1248.98 2002.03 1249.47 Q2001.35 1250.48 2000.37 1250.48 Q1999.76 1250.48 1999.38 1250.1 Q1999.01 1249.75 1999.01 1249.19 Q1999.03 1249 1999.17 1248.41 L2006.06 1220.66 Q2006.24 1219.91 2006.71 1219.49 Q2007.2 1219.04 2007.49 1219 Q2007.77 1218.93 2007.98 1218.93 Q2008.61 1218.93 2008.98 1219.28 Q2009.38 1219.6 2009.38 1220.21 Q2009.38 1220.31 2009.24 1220.85 Q2009.13 1221.36 2008.94 1222.16 Q2008.75 1222.93 2008.66 1223.28 L2006.64 1231.34 Q2005.96 1234.1 2005.96 1235.41 Q2005.96 1237.41 2006.85 1238.51 Q2007.77 1239.58 2009.52 1239.58 Q2010.62 1239.58 2011.66 1239.14 Q2012.69 1238.67 2013.39 1238.04 Q2014.09 1237.41 2014.65 1236.73 Q2015.22 1236.02 2015.47 1235.58 Q2015.73 1235.11 2015.75 1234.99 L2017 1230.1 L2019.27 1221.13 Q2019.41 1220.56 2019.67 1220.19 Q2019.95 1219.79 2020.27 1219.65 Q2020.6 1219.51 2020.79 1219.49 Q2020.98 1219.44 2021.14 1219.44 Q2021.73 1219.44 2022.12 1219.79 Q2022.52 1220.14 2022.52 1220.75 Q2022.52 1220.87 2022.38 1221.43 Q2022.27 1221.97 2022.08 1222.77 Q2021.89 1223.54 2021.8 1223.96 Q2021.05 1226.91 2020.98 1227.22 L2019.64 1232.39 Q2019.57 1232.7 2019.34 1233.68 Q2019.13 1234.67 2019.01 1235.18 Q2018.89 1235.67 2018.78 1236.35 Q2018.68 1237.01 2018.68 1237.38 Q2018.68 1239.58 2020.13 1239.58 Q2020.7 1239.58 2021.19 1239.26 Q2021.68 1238.9 2022.01 1238.41 Q2022.36 1237.92 2022.69 1237.08 Q2023.04 1236.21 2023.25 1235.51 Q2023.46 1234.78 2023.76 1233.66 Q2023.88 1233.12 2024 1232.96 Q2024.12 1232.79 2024.44 1232.79 Q2025.01 1232.79 2025.01 1233.26 Z" fill="#000000" fill-rule="evenodd" fill-opacity="1" /><polyline clip-path="url(#clip710)" style="stroke:#e26f46; stroke-linecap:round; stroke-linejoin:round; stroke-width:8; stroke-opacity:1; fill:none" points="
  1834.85,1306.04 1975.56,1306.04 
  "/>
<path clip-path="url(#clip710)" d="M2018.82 1298.53 Q2018.82 1302.46 2017.56 1306.89 Q2016.32 1311.29 2014.35 1314.85 Q2012.38 1318.39 2009.8 1320.73 Q2007.23 1323.05 2004.77 1323.05 Q2003.2 1323.05 2002.03 1322.18 Q2000.88 1321.29 2000.25 1319.82 Q1999.62 1318.32 1999.31 1316.68 Q1999.01 1315.02 1999.01 1313.21 Q1999.01 1310.52 1999.59 1307.59 Q2000.18 1304.64 2001.16 1301.97 Q2002.15 1299.28 2003.53 1296.84 Q2004.91 1294.38 2006.43 1292.6 Q2007.98 1290.8 2009.71 1289.74 Q2011.44 1288.69 2013.06 1288.69 Q2014.23 1288.69 2015.17 1289.21 Q2016.13 1289.7 2016.74 1290.56 Q2017.35 1291.41 2017.77 1292.41 Q2018.21 1293.42 2018.42 1294.59 Q2018.63 1295.74 2018.73 1296.7 Q2018.82 1297.64 2018.82 1298.53 M2015.66 1295.55 Q2015.66 1294.36 2015.57 1293.47 Q2015.47 1292.55 2015.22 1291.64 Q2014.96 1290.73 2014.4 1290.24 Q2013.86 1289.74 2013.01 1289.74 Q2010.55 1289.74 2007.79 1294.78 Q2006.9 1296.35 2006.1 1298.48 Q2005.31 1300.61 2005.03 1301.62 Q2004.75 1302.63 2004.09 1305.11 L2014.11 1305.11 Q2015.66 1298.71 2015.66 1295.55 M2013.69 1306.63 L2003.71 1306.63 Q2002.17 1312.49 2002.17 1316.14 Q2002.17 1319.33 2002.82 1320.66 Q2003.5 1321.97 2004.77 1321.97 Q2006.22 1321.97 2007.58 1320.52 Q2008.94 1319.05 2010.32 1316.38 Q2012.15 1312.91 2013.69 1306.63 Z" fill="#000000" fill-rule="evenodd" fill-opacity="1" /></svg>
