<?xml version="1.0" encoding="utf-8"?>
<svg xmlns="http://www.w3.org/2000/svg" xmlns:xlink="http://www.w3.org/1999/xlink" width="600" height="400" viewBox="0 0 2400 1600">
<defs>
  <clipPath id="clip550">
    <rect x="0" y="0" width="2400" height="1600"/>
  </clipPath>
</defs>
<path clip-path="url(#clip550)" d="
M0 1600 L2400 1600 L2400 0 L0 0  Z
  " fill="#ffffff" fill-rule="evenodd" fill-opacity="1"/>
<defs>
  <clipPath id="clip551">
    <rect x="480" y="0" width="1681" height="1600"/>
  </clipPath>
</defs>
<defs>
  <clipPath id="clip552">
    <rect x="219" y="47" width="2134" height="1377"/>
  </clipPath>
</defs>
<path clip-path="url(#clip550)" d="
M201.019 1423.18 L2352.76 1423.18 L2352.76 47.2441 L201.019 47.2441  Z
  " fill="#ffffff" fill-rule="evenodd" fill-opacity="1"/>
<defs>
  <clipPath id="clip553">
    <rect x="201" y="47" width="2153" height="1377"/>
  </clipPath>
</defs>
<polyline clip-path="url(#clip553)" style="stroke:#000000; stroke-linecap:round; stroke-linejoin:round; stroke-width:2; stroke-opacity:0.1; fill:none" points="
  251.768,1423.18 251.768,47.2441 
  "/>
<polyline clip-path="url(#clip553)" style="stroke:#000000; stroke-linecap:round; stroke-linejoin:round; stroke-width:2; stroke-opacity:0.1; fill:none" points="
  759.253,1423.18 759.253,47.2441 
  "/>
<polyline clip-path="url(#clip553)" style="stroke:#000000; stroke-linecap:round; stroke-linejoin:round; stroke-width:2; stroke-opacity:0.1; fill:none" points="
  1266.74,1423.18 1266.74,47.2441 
  "/>
<polyline clip-path="url(#clip553)" style="stroke:#000000; stroke-linecap:round; stroke-linejoin:round; stroke-width:2; stroke-opacity:0.1; fill:none" points="
  1774.22,1423.18 1774.22,47.2441 
  "/>
<polyline clip-path="url(#clip553)" style="stroke:#000000; stroke-linecap:round; stroke-linejoin:round; stroke-width:2; stroke-opacity:0.1; fill:none" points="
  2281.71,1423.18 2281.71,47.2441 
  "/>
<polyline clip-path="url(#clip550)" style="stroke:#000000; stroke-linecap:round; stroke-linejoin:round; stroke-width:4; stroke-opacity:1; fill:none" points="
  201.019,1423.18 2352.76,1423.18 
  "/>
<polyline clip-path="url(#clip550)" style="stroke:#000000; stroke-linecap:round; stroke-linejoin:round; stroke-width:4; stroke-opacity:1; fill:none" points="
  251.768,1423.18 251.768,1404.28 
  "/>
<polyline clip-path="url(#clip550)" style="stroke:#000000; stroke-linecap:round; stroke-linejoin:round; stroke-width:4; stroke-opacity:1; fill:none" points="
  759.253,1423.18 759.253,1404.28 
  "/>
<polyline clip-path="url(#clip550)" style="stroke:#000000; stroke-linecap:round; stroke-linejoin:round; stroke-width:4; stroke-opacity:1; fill:none" points="
  1266.74,1423.18 1266.74,1404.28 
  "/>
<polyline clip-path="url(#clip550)" style="stroke:#000000; stroke-linecap:round; stroke-linejoin:round; stroke-width:4; stroke-opacity:1; fill:none" points="
  1774.22,1423.18 1774.22,1404.28 
  "/>
<polyline clip-path="url(#clip550)" style="stroke:#000000; stroke-linecap:round; stroke-linejoin:round; stroke-width:4; stroke-opacity:1; fill:none" points="
  2281.71,1423.18 2281.71,1404.28 
  "/>
<path clip-path="url(#clip550)" d="M251.768 1454.1 Q248.157 1454.1 246.328 1457.66 Q244.522 1461.2 244.522 1468.33 Q244.522 1475.44 246.328 1479.01 Q248.157 1482.55 251.768 1482.55 Q255.402 1482.55 257.208 1479.01 Q259.036 1475.44 259.036 1468.33 Q259.036 1461.2 257.208 1457.66 Q255.402 1454.1 251.768 1454.1 M251.768 1450.39 Q257.578 1450.39 260.633 1455 Q263.712 1459.58 263.712 1468.33 Q263.712 1477.06 260.633 1481.67 Q257.578 1486.25 251.768 1486.25 Q245.958 1486.25 242.879 1481.67 Q239.823 1477.06 239.823 1468.33 Q239.823 1459.58 242.879 1455 Q245.958 1450.39 251.768 1450.39 Z" fill="#000000" fill-rule="evenodd" fill-opacity="1" /><path clip-path="url(#clip550)" d="M733.952 1451.02 L752.308 1451.02 L752.308 1454.96 L738.234 1454.96 L738.234 1463.43 Q739.253 1463.08 740.271 1462.92 Q741.29 1462.73 742.308 1462.73 Q748.096 1462.73 751.475 1465.9 Q754.855 1469.08 754.855 1474.49 Q754.855 1480.07 751.383 1483.17 Q747.91 1486.25 741.591 1486.25 Q739.415 1486.25 737.146 1485.88 Q734.901 1485.51 732.494 1484.77 L732.494 1480.07 Q734.577 1481.2 736.799 1481.76 Q739.021 1482.32 741.498 1482.32 Q745.503 1482.32 747.841 1480.21 Q750.179 1478.1 750.179 1474.49 Q750.179 1470.88 747.841 1468.77 Q745.503 1466.67 741.498 1466.67 Q739.623 1466.67 737.748 1467.08 Q735.896 1467.5 733.952 1468.38 L733.952 1451.02 Z" fill="#000000" fill-rule="evenodd" fill-opacity="1" /><path clip-path="url(#clip550)" d="M774.068 1454.1 Q770.456 1454.1 768.628 1457.66 Q766.822 1461.2 766.822 1468.33 Q766.822 1475.44 768.628 1479.01 Q770.456 1482.55 774.068 1482.55 Q777.702 1482.55 779.507 1479.01 Q781.336 1475.44 781.336 1468.33 Q781.336 1461.2 779.507 1457.66 Q777.702 1454.1 774.068 1454.1 M774.068 1450.39 Q779.878 1450.39 782.933 1455 Q786.012 1459.58 786.012 1468.33 Q786.012 1477.06 782.933 1481.67 Q779.878 1486.25 774.068 1486.25 Q768.257 1486.25 765.179 1481.67 Q762.123 1477.06 762.123 1468.33 Q762.123 1459.58 765.179 1455 Q768.257 1450.39 774.068 1450.39 Z" fill="#000000" fill-rule="evenodd" fill-opacity="1" /><path clip-path="url(#clip550)" d="M1226.34 1481.64 L1233.98 1481.64 L1233.98 1455.28 L1225.67 1456.95 L1225.67 1452.69 L1233.94 1451.02 L1238.61 1451.02 L1238.61 1481.64 L1246.25 1481.64 L1246.25 1485.58 L1226.34 1485.58 L1226.34 1481.64 Z" fill="#000000" fill-rule="evenodd" fill-opacity="1" /><path clip-path="url(#clip550)" d="M1265.7 1454.1 Q1262.09 1454.1 1260.26 1457.66 Q1258.45 1461.2 1258.45 1468.33 Q1258.45 1475.44 1260.26 1479.01 Q1262.09 1482.55 1265.7 1482.55 Q1269.33 1482.55 1271.14 1479.01 Q1272.96 1475.44 1272.96 1468.33 Q1272.96 1461.2 1271.14 1457.66 Q1269.33 1454.1 1265.7 1454.1 M1265.7 1450.39 Q1271.51 1450.39 1274.56 1455 Q1277.64 1459.58 1277.64 1468.33 Q1277.64 1477.06 1274.56 1481.67 Q1271.51 1486.25 1265.7 1486.25 Q1259.89 1486.25 1256.81 1481.67 Q1253.75 1477.06 1253.75 1468.33 Q1253.75 1459.58 1256.81 1455 Q1259.89 1450.39 1265.7 1450.39 Z" fill="#000000" fill-rule="evenodd" fill-opacity="1" /><path clip-path="url(#clip550)" d="M1295.86 1454.1 Q1292.25 1454.1 1290.42 1457.66 Q1288.61 1461.2 1288.61 1468.33 Q1288.61 1475.44 1290.42 1479.01 Q1292.25 1482.55 1295.86 1482.55 Q1299.49 1482.55 1301.3 1479.01 Q1303.13 1475.44 1303.13 1468.33 Q1303.13 1461.2 1301.3 1457.66 Q1299.49 1454.1 1295.86 1454.1 M1295.86 1450.39 Q1301.67 1450.39 1304.72 1455 Q1307.8 1459.58 1307.8 1468.33 Q1307.8 1477.06 1304.72 1481.67 Q1301.67 1486.25 1295.86 1486.25 Q1290.05 1486.25 1286.97 1481.67 Q1283.91 1477.06 1283.91 1468.33 Q1283.91 1459.58 1286.97 1455 Q1290.05 1450.39 1295.86 1450.39 Z" fill="#000000" fill-rule="evenodd" fill-opacity="1" /><path clip-path="url(#clip550)" d="M1733.83 1481.64 L1741.47 1481.64 L1741.47 1455.28 L1733.16 1456.95 L1733.16 1452.69 L1741.42 1451.02 L1746.1 1451.02 L1746.1 1481.64 L1753.74 1481.64 L1753.74 1485.58 L1733.83 1485.58 L1733.83 1481.64 Z" fill="#000000" fill-rule="evenodd" fill-opacity="1" /><path clip-path="url(#clip550)" d="M1763.23 1451.02 L1781.58 1451.02 L1781.58 1454.96 L1767.51 1454.96 L1767.51 1463.43 Q1768.53 1463.08 1769.55 1462.92 Q1770.57 1462.73 1771.58 1462.73 Q1777.37 1462.73 1780.75 1465.9 Q1784.13 1469.08 1784.13 1474.49 Q1784.13 1480.07 1780.66 1483.17 Q1777.19 1486.25 1770.87 1486.25 Q1768.69 1486.25 1766.42 1485.88 Q1764.18 1485.51 1761.77 1484.77 L1761.77 1480.07 Q1763.85 1481.2 1766.07 1481.76 Q1768.3 1482.32 1770.77 1482.32 Q1774.78 1482.32 1777.12 1480.21 Q1779.45 1478.1 1779.45 1474.49 Q1779.45 1470.88 1777.12 1468.77 Q1774.78 1466.67 1770.77 1466.67 Q1768.9 1466.67 1767.02 1467.08 Q1765.17 1467.5 1763.23 1468.38 L1763.23 1451.02 Z" fill="#000000" fill-rule="evenodd" fill-opacity="1" /><path clip-path="url(#clip550)" d="M1803.34 1454.1 Q1799.73 1454.1 1797.9 1457.66 Q1796.1 1461.2 1796.1 1468.33 Q1796.1 1475.44 1797.9 1479.01 Q1799.73 1482.55 1803.34 1482.55 Q1806.98 1482.55 1808.78 1479.01 Q1810.61 1475.44 1810.61 1468.33 Q1810.61 1461.2 1808.78 1457.66 Q1806.98 1454.1 1803.34 1454.1 M1803.34 1450.39 Q1809.15 1450.39 1812.21 1455 Q1815.29 1459.58 1815.29 1468.33 Q1815.29 1477.06 1812.21 1481.67 Q1809.15 1486.25 1803.34 1486.25 Q1797.53 1486.25 1794.45 1481.67 Q1791.4 1477.06 1791.4 1468.33 Q1791.4 1459.58 1794.45 1455 Q1797.53 1450.39 1803.34 1450.39 Z" fill="#000000" fill-rule="evenodd" fill-opacity="1" /><path clip-path="url(#clip550)" d="M2245.4 1481.64 L2261.72 1481.64 L2261.72 1485.58 L2239.78 1485.58 L2239.78 1481.64 Q2242.44 1478.89 2247.02 1474.26 Q2251.63 1469.61 2252.81 1468.27 Q2255.05 1465.74 2255.93 1464.01 Q2256.84 1462.25 2256.84 1460.56 Q2256.84 1457.8 2254.89 1456.07 Q2252.97 1454.33 2249.87 1454.33 Q2247.67 1454.33 2245.22 1455.09 Q2242.78 1455.86 2240.01 1457.41 L2240.01 1452.69 Q2242.83 1451.55 2245.28 1450.97 Q2247.74 1450.39 2249.78 1450.39 Q2255.15 1450.39 2258.34 1453.08 Q2261.53 1455.77 2261.53 1460.26 Q2261.53 1462.39 2260.72 1464.31 Q2259.94 1466.2 2257.83 1468.8 Q2257.25 1469.47 2254.15 1472.69 Q2251.05 1475.88 2245.4 1481.64 Z" fill="#000000" fill-rule="evenodd" fill-opacity="1" /><path clip-path="url(#clip550)" d="M2281.53 1454.1 Q2277.92 1454.1 2276.09 1457.66 Q2274.29 1461.2 2274.29 1468.33 Q2274.29 1475.44 2276.09 1479.01 Q2277.92 1482.55 2281.53 1482.55 Q2285.17 1482.55 2286.97 1479.01 Q2288.8 1475.44 2288.8 1468.33 Q2288.8 1461.2 2286.97 1457.66 Q2285.17 1454.1 2281.53 1454.1 M2281.53 1450.39 Q2287.34 1450.39 2290.4 1455 Q2293.48 1459.58 2293.48 1468.33 Q2293.48 1477.06 2290.4 1481.67 Q2287.34 1486.25 2281.53 1486.25 Q2275.72 1486.25 2272.65 1481.67 Q2269.59 1477.06 2269.59 1468.33 Q2269.59 1459.58 2272.65 1455 Q2275.72 1450.39 2281.53 1450.39 Z" fill="#000000" fill-rule="evenodd" fill-opacity="1" /><path clip-path="url(#clip550)" d="M2311.7 1454.1 Q2308.09 1454.1 2306.26 1457.66 Q2304.45 1461.2 2304.45 1468.33 Q2304.45 1475.44 2306.26 1479.01 Q2308.09 1482.55 2311.7 1482.55 Q2315.33 1482.55 2317.14 1479.01 Q2318.96 1475.44 2318.96 1468.33 Q2318.96 1461.2 2317.14 1457.66 Q2315.33 1454.1 2311.7 1454.1 M2311.7 1450.39 Q2317.51 1450.39 2320.56 1455 Q2323.64 1459.58 2323.64 1468.33 Q2323.64 1477.06 2320.56 1481.67 Q2317.51 1486.25 2311.7 1486.25 Q2305.89 1486.25 2302.81 1481.67 Q2299.75 1477.06 2299.75 1468.33 Q2299.75 1459.58 2302.81 1455 Q2305.89 1450.39 2311.7 1450.39 Z" fill="#000000" fill-rule="evenodd" fill-opacity="1" /><path clip-path="url(#clip550)" d="M1275.95 1522.27 L1275.95 1532.4 L1288.01 1532.4 L1288.01 1536.95 L1275.95 1536.95 L1275.95 1556.3 Q1275.95 1560.66 1277.13 1561.9 Q1278.34 1563.14 1282 1563.14 L1288.01 1563.14 L1288.01 1568.04 L1282 1568.04 Q1275.22 1568.04 1272.64 1565.53 Q1270.06 1562.98 1270.06 1556.3 L1270.06 1536.95 L1265.76 1536.95 L1265.76 1532.4 L1270.06 1532.4 L1270.06 1522.27 L1275.95 1522.27 Z" fill="#000000" fill-rule="evenodd" fill-opacity="1" /><polyline clip-path="url(#clip553)" style="stroke:#000000; stroke-linecap:round; stroke-linejoin:round; stroke-width:2; stroke-opacity:0.1; fill:none" points="
  201.019,1385.96 2352.76,1385.96 
  "/>
<polyline clip-path="url(#clip553)" style="stroke:#000000; stroke-linecap:round; stroke-linejoin:round; stroke-width:2; stroke-opacity:0.1; fill:none" points="
  201.019,1158.42 2352.76,1158.42 
  "/>
<polyline clip-path="url(#clip553)" style="stroke:#000000; stroke-linecap:round; stroke-linejoin:round; stroke-width:2; stroke-opacity:0.1; fill:none" points="
  201.019,930.875 2352.76,930.875 
  "/>
<polyline clip-path="url(#clip553)" style="stroke:#000000; stroke-linecap:round; stroke-linejoin:round; stroke-width:2; stroke-opacity:0.1; fill:none" points="
  201.019,703.333 2352.76,703.333 
  "/>
<polyline clip-path="url(#clip553)" style="stroke:#000000; stroke-linecap:round; stroke-linejoin:round; stroke-width:2; stroke-opacity:0.1; fill:none" points="
  201.019,475.792 2352.76,475.792 
  "/>
<polyline clip-path="url(#clip553)" style="stroke:#000000; stroke-linecap:round; stroke-linejoin:round; stroke-width:2; stroke-opacity:0.1; fill:none" points="
  201.019,248.25 2352.76,248.25 
  "/>
<polyline clip-path="url(#clip550)" style="stroke:#000000; stroke-linecap:round; stroke-linejoin:round; stroke-width:4; stroke-opacity:1; fill:none" points="
  201.019,1423.18 201.019,47.2441 
  "/>
<polyline clip-path="url(#clip550)" style="stroke:#000000; stroke-linecap:round; stroke-linejoin:round; stroke-width:4; stroke-opacity:1; fill:none" points="
  201.019,1385.96 219.917,1385.96 
  "/>
<polyline clip-path="url(#clip550)" style="stroke:#000000; stroke-linecap:round; stroke-linejoin:round; stroke-width:4; stroke-opacity:1; fill:none" points="
  201.019,1158.42 219.917,1158.42 
  "/>
<polyline clip-path="url(#clip550)" style="stroke:#000000; stroke-linecap:round; stroke-linejoin:round; stroke-width:4; stroke-opacity:1; fill:none" points="
  201.019,930.875 219.917,930.875 
  "/>
<polyline clip-path="url(#clip550)" style="stroke:#000000; stroke-linecap:round; stroke-linejoin:round; stroke-width:4; stroke-opacity:1; fill:none" points="
  201.019,703.333 219.917,703.333 
  "/>
<polyline clip-path="url(#clip550)" style="stroke:#000000; stroke-linecap:round; stroke-linejoin:round; stroke-width:4; stroke-opacity:1; fill:none" points="
  201.019,475.792 219.917,475.792 
  "/>
<polyline clip-path="url(#clip550)" style="stroke:#000000; stroke-linecap:round; stroke-linejoin:round; stroke-width:4; stroke-opacity:1; fill:none" points="
  201.019,248.25 219.917,248.25 
  "/>
<path clip-path="url(#clip550)" d="M153.075 1371.76 Q149.464 1371.76 147.635 1375.32 Q145.83 1378.86 145.83 1385.99 Q145.83 1393.1 147.635 1396.66 Q149.464 1400.21 153.075 1400.21 Q156.709 1400.21 158.515 1396.66 Q160.343 1393.1 160.343 1385.99 Q160.343 1378.86 158.515 1375.32 Q156.709 1371.76 153.075 1371.76 M153.075 1368.05 Q158.885 1368.05 161.941 1372.66 Q165.019 1377.24 165.019 1385.99 Q165.019 1394.72 161.941 1399.33 Q158.885 1403.91 153.075 1403.91 Q147.265 1403.91 144.186 1399.33 Q141.131 1394.72 141.131 1385.99 Q141.131 1377.24 144.186 1372.66 Q147.265 1368.05 153.075 1368.05 Z" fill="#000000" fill-rule="evenodd" fill-opacity="1" /><path clip-path="url(#clip550)" d="M82.7975 1141.14 L101.154 1141.14 L101.154 1145.07 L87.0799 1145.07 L87.0799 1153.54 Q88.0984 1153.2 89.1169 1153.03 Q90.1354 1152.85 91.1539 1152.85 Q96.941 1152.85 100.321 1156.02 Q103.7 1159.19 103.7 1164.61 Q103.7 1170.19 100.228 1173.29 Q96.7558 1176.37 90.4364 1176.37 Q88.2604 1176.37 85.9919 1176 Q83.7466 1175.63 81.3392 1174.89 L81.3392 1170.19 Q83.4225 1171.32 85.6447 1171.88 Q87.8669 1172.43 90.3438 1172.43 Q94.3484 1172.43 96.6863 1170.33 Q99.0243 1168.22 99.0243 1164.61 Q99.0243 1161 96.6863 1158.89 Q94.3484 1156.78 90.3438 1156.78 Q88.4688 1156.78 86.5938 1157.2 Q84.7419 1157.62 82.7975 1158.5 L82.7975 1141.14 Z" fill="#000000" fill-rule="evenodd" fill-opacity="1" /><path clip-path="url(#clip550)" d="M122.913 1144.22 Q119.302 1144.22 117.473 1147.78 Q115.668 1151.32 115.668 1158.45 Q115.668 1165.56 117.473 1169.12 Q119.302 1172.66 122.913 1172.66 Q126.547 1172.66 128.353 1169.12 Q130.182 1165.56 130.182 1158.45 Q130.182 1151.32 128.353 1147.78 Q126.547 1144.22 122.913 1144.22 M122.913 1140.51 Q128.723 1140.51 131.779 1145.12 Q134.857 1149.7 134.857 1158.45 Q134.857 1167.18 131.779 1171.78 Q128.723 1176.37 122.913 1176.37 Q117.103 1176.37 114.024 1171.78 Q110.969 1167.18 110.969 1158.45 Q110.969 1149.7 114.024 1145.12 Q117.103 1140.51 122.913 1140.51 Z" fill="#000000" fill-rule="evenodd" fill-opacity="1" /><path clip-path="url(#clip550)" d="M153.075 1144.22 Q149.464 1144.22 147.635 1147.78 Q145.83 1151.32 145.83 1158.45 Q145.83 1165.56 147.635 1169.12 Q149.464 1172.66 153.075 1172.66 Q156.709 1172.66 158.515 1169.12 Q160.343 1165.56 160.343 1158.45 Q160.343 1151.32 158.515 1147.78 Q156.709 1144.22 153.075 1144.22 M153.075 1140.51 Q158.885 1140.51 161.941 1145.12 Q165.019 1149.7 165.019 1158.45 Q165.019 1167.18 161.941 1171.78 Q158.885 1176.37 153.075 1176.37 Q147.265 1176.37 144.186 1171.78 Q141.131 1167.18 141.131 1158.45 Q141.131 1149.7 144.186 1145.12 Q147.265 1140.51 153.075 1140.51 Z" fill="#000000" fill-rule="evenodd" fill-opacity="1" /><path clip-path="url(#clip550)" d="M53.3995 944.22 L61.0384 944.22 L61.0384 917.854 L52.7282 919.521 L52.7282 915.262 L60.9921 913.595 L65.668 913.595 L65.668 944.22 L73.3068 944.22 L73.3068 948.155 L53.3995 948.155 L53.3995 944.22 Z" fill="#000000" fill-rule="evenodd" fill-opacity="1" /><path clip-path="url(#clip550)" d="M92.7512 916.674 Q89.1401 916.674 87.3114 920.239 Q85.5058 923.78 85.5058 930.91 Q85.5058 938.016 87.3114 941.581 Q89.1401 945.123 92.7512 945.123 Q96.3854 945.123 98.1909 941.581 Q100.02 938.016 100.02 930.91 Q100.02 923.78 98.1909 920.239 Q96.3854 916.674 92.7512 916.674 M92.7512 912.97 Q98.5613 912.97 101.617 917.576 Q104.696 922.16 104.696 930.91 Q104.696 939.637 101.617 944.243 Q98.5613 948.826 92.7512 948.826 Q86.941 948.826 83.8623 944.243 Q80.8068 939.637 80.8068 930.91 Q80.8068 922.16 83.8623 917.576 Q86.941 912.97 92.7512 912.97 Z" fill="#000000" fill-rule="evenodd" fill-opacity="1" /><path clip-path="url(#clip550)" d="M122.913 916.674 Q119.302 916.674 117.473 920.239 Q115.668 923.78 115.668 930.91 Q115.668 938.016 117.473 941.581 Q119.302 945.123 122.913 945.123 Q126.547 945.123 128.353 941.581 Q130.182 938.016 130.182 930.91 Q130.182 923.78 128.353 920.239 Q126.547 916.674 122.913 916.674 M122.913 912.97 Q128.723 912.97 131.779 917.576 Q134.857 922.16 134.857 930.91 Q134.857 939.637 131.779 944.243 Q128.723 948.826 122.913 948.826 Q117.103 948.826 114.024 944.243 Q110.969 939.637 110.969 930.91 Q110.969 922.16 114.024 917.576 Q117.103 912.97 122.913 912.97 Z" fill="#000000" fill-rule="evenodd" fill-opacity="1" /><path clip-path="url(#clip550)" d="M153.075 916.674 Q149.464 916.674 147.635 920.239 Q145.83 923.78 145.83 930.91 Q145.83 938.016 147.635 941.581 Q149.464 945.123 153.075 945.123 Q156.709 945.123 158.515 941.581 Q160.343 938.016 160.343 930.91 Q160.343 923.78 158.515 920.239 Q156.709 916.674 153.075 916.674 M153.075 912.97 Q158.885 912.97 161.941 917.576 Q165.019 922.16 165.019 930.91 Q165.019 939.637 161.941 944.243 Q158.885 948.826 153.075 948.826 Q147.265 948.826 144.186 944.243 Q141.131 939.637 141.131 930.91 Q141.131 922.16 144.186 917.576 Q147.265 912.97 153.075 912.97 Z" fill="#000000" fill-rule="evenodd" fill-opacity="1" /><path clip-path="url(#clip550)" d="M53.3995 716.678 L61.0384 716.678 L61.0384 690.313 L52.7282 691.979 L52.7282 687.72 L60.9921 686.053 L65.668 686.053 L65.668 716.678 L73.3068 716.678 L73.3068 720.613 L53.3995 720.613 L53.3995 716.678 Z" fill="#000000" fill-rule="evenodd" fill-opacity="1" /><path clip-path="url(#clip550)" d="M82.7975 686.053 L101.154 686.053 L101.154 689.988 L87.0799 689.988 L87.0799 698.461 Q88.0984 698.113 89.1169 697.951 Q90.1354 697.766 91.1539 697.766 Q96.941 697.766 100.321 700.938 Q103.7 704.109 103.7 709.525 Q103.7 715.104 100.228 718.206 Q96.7558 721.285 90.4364 721.285 Q88.2604 721.285 85.9919 720.914 Q83.7466 720.544 81.3392 719.803 L81.3392 715.104 Q83.4225 716.238 85.6447 716.794 Q87.8669 717.349 90.3438 717.349 Q94.3484 717.349 96.6863 715.243 Q99.0243 713.137 99.0243 709.525 Q99.0243 705.914 96.6863 703.808 Q94.3484 701.701 90.3438 701.701 Q88.4688 701.701 86.5938 702.118 Q84.7419 702.535 82.7975 703.414 L82.7975 686.053 Z" fill="#000000" fill-rule="evenodd" fill-opacity="1" /><path clip-path="url(#clip550)" d="M122.913 689.132 Q119.302 689.132 117.473 692.697 Q115.668 696.238 115.668 703.368 Q115.668 710.474 117.473 714.039 Q119.302 717.581 122.913 717.581 Q126.547 717.581 128.353 714.039 Q130.182 710.474 130.182 703.368 Q130.182 696.238 128.353 692.697 Q126.547 689.132 122.913 689.132 M122.913 685.428 Q128.723 685.428 131.779 690.035 Q134.857 694.618 134.857 703.368 Q134.857 712.095 131.779 716.701 Q128.723 721.285 122.913 721.285 Q117.103 721.285 114.024 716.701 Q110.969 712.095 110.969 703.368 Q110.969 694.618 114.024 690.035 Q117.103 685.428 122.913 685.428 Z" fill="#000000" fill-rule="evenodd" fill-opacity="1" /><path clip-path="url(#clip550)" d="M153.075 689.132 Q149.464 689.132 147.635 692.697 Q145.83 696.238 145.83 703.368 Q145.83 710.474 147.635 714.039 Q149.464 717.581 153.075 717.581 Q156.709 717.581 158.515 714.039 Q160.343 710.474 160.343 703.368 Q160.343 696.238 158.515 692.697 Q156.709 689.132 153.075 689.132 M153.075 685.428 Q158.885 685.428 161.941 690.035 Q165.019 694.618 165.019 703.368 Q165.019 712.095 161.941 716.701 Q158.885 721.285 153.075 721.285 Q147.265 721.285 144.186 716.701 Q141.131 712.095 141.131 703.368 Q141.131 694.618 144.186 690.035 Q147.265 685.428 153.075 685.428 Z" fill="#000000" fill-rule="evenodd" fill-opacity="1" /><path clip-path="url(#clip550)" d="M56.6171 489.136 L72.9365 489.136 L72.9365 493.072 L50.9921 493.072 L50.9921 489.136 Q53.6541 486.382 58.2375 481.752 Q62.8439 477.099 64.0245 475.757 Q66.2698 473.234 67.1494 471.498 Q68.0522 469.738 68.0522 468.049 Q68.0522 465.294 66.1078 463.558 Q64.1865 461.822 61.0847 461.822 Q58.8856 461.822 56.4319 462.586 Q54.0014 463.35 51.2236 464.9 L51.2236 460.178 Q54.0477 459.044 56.5014 458.465 Q58.955 457.887 60.9921 457.887 Q66.3624 457.887 69.5568 460.572 Q72.7513 463.257 72.7513 467.748 Q72.7513 469.877 71.9411 471.799 Q71.1541 473.697 69.0476 476.289 Q68.4689 476.961 65.367 480.178 Q62.2652 483.373 56.6171 489.136 Z" fill="#000000" fill-rule="evenodd" fill-opacity="1" /><path clip-path="url(#clip550)" d="M92.7512 461.59 Q89.1401 461.59 87.3114 465.155 Q85.5058 468.697 85.5058 475.826 Q85.5058 482.933 87.3114 486.498 Q89.1401 490.039 92.7512 490.039 Q96.3854 490.039 98.1909 486.498 Q100.02 482.933 100.02 475.826 Q100.02 468.697 98.1909 465.155 Q96.3854 461.59 92.7512 461.59 M92.7512 457.887 Q98.5613 457.887 101.617 462.493 Q104.696 467.076 104.696 475.826 Q104.696 484.553 101.617 489.16 Q98.5613 493.743 92.7512 493.743 Q86.941 493.743 83.8623 489.16 Q80.8068 484.553 80.8068 475.826 Q80.8068 467.076 83.8623 462.493 Q86.941 457.887 92.7512 457.887 Z" fill="#000000" fill-rule="evenodd" fill-opacity="1" /><path clip-path="url(#clip550)" d="M122.913 461.59 Q119.302 461.59 117.473 465.155 Q115.668 468.697 115.668 475.826 Q115.668 482.933 117.473 486.498 Q119.302 490.039 122.913 490.039 Q126.547 490.039 128.353 486.498 Q130.182 482.933 130.182 475.826 Q130.182 468.697 128.353 465.155 Q126.547 461.59 122.913 461.59 M122.913 457.887 Q128.723 457.887 131.779 462.493 Q134.857 467.076 134.857 475.826 Q134.857 484.553 131.779 489.16 Q128.723 493.743 122.913 493.743 Q117.103 493.743 114.024 489.16 Q110.969 484.553 110.969 475.826 Q110.969 467.076 114.024 462.493 Q117.103 457.887 122.913 457.887 Z" fill="#000000" fill-rule="evenodd" fill-opacity="1" /><path clip-path="url(#clip550)" d="M153.075 461.59 Q149.464 461.59 147.635 465.155 Q145.83 468.697 145.83 475.826 Q145.83 482.933 147.635 486.498 Q149.464 490.039 153.075 490.039 Q156.709 490.039 158.515 486.498 Q160.343 482.933 160.343 475.826 Q160.343 468.697 158.515 465.155 Q156.709 461.59 153.075 461.59 M153.075 457.887 Q158.885 457.887 161.941 462.493 Q165.019 467.076 165.019 475.826 Q165.019 484.553 161.941 489.16 Q158.885 493.743 153.075 493.743 Q147.265 493.743 144.186 489.16 Q141.131 484.553 141.131 475.826 Q141.131 467.076 144.186 462.493 Q147.265 457.887 153.075 457.887 Z" fill="#000000" fill-rule="evenodd" fill-opacity="1" /><path clip-path="url(#clip550)" d="M56.6171 261.595 L72.9365 261.595 L72.9365 265.53 L50.9921 265.53 L50.9921 261.595 Q53.6541 258.84 58.2375 254.211 Q62.8439 249.558 64.0245 248.215 Q66.2698 245.692 67.1494 243.956 Q68.0522 242.197 68.0522 240.507 Q68.0522 237.752 66.1078 236.016 Q64.1865 234.28 61.0847 234.28 Q58.8856 234.28 56.4319 235.044 Q54.0014 235.808 51.2236 237.359 L51.2236 232.637 Q54.0477 231.502 56.5014 230.924 Q58.955 230.345 60.9921 230.345 Q66.3624 230.345 69.5568 233.03 Q72.7513 235.715 72.7513 240.206 Q72.7513 242.336 71.9411 244.257 Q71.1541 246.155 69.0476 248.748 Q68.4689 249.419 65.367 252.636 Q62.2652 255.831 56.6171 261.595 Z" fill="#000000" fill-rule="evenodd" fill-opacity="1" /><path clip-path="url(#clip550)" d="M82.7975 230.97 L101.154 230.97 L101.154 234.905 L87.0799 234.905 L87.0799 243.377 Q88.0984 243.03 89.1169 242.868 Q90.1354 242.683 91.1539 242.683 Q96.941 242.683 100.321 245.854 Q103.7 249.025 103.7 254.442 Q103.7 260.021 100.228 263.123 Q96.7558 266.201 90.4364 266.201 Q88.2604 266.201 85.9919 265.831 Q83.7466 265.46 81.3392 264.72 L81.3392 260.021 Q83.4225 261.155 85.6447 261.711 Q87.8669 262.266 90.3438 262.266 Q94.3484 262.266 96.6863 260.16 Q99.0243 258.053 99.0243 254.442 Q99.0243 250.831 96.6863 248.724 Q94.3484 246.618 90.3438 246.618 Q88.4688 246.618 86.5938 247.035 Q84.7419 247.451 82.7975 248.331 L82.7975 230.97 Z" fill="#000000" fill-rule="evenodd" fill-opacity="1" /><path clip-path="url(#clip550)" d="M122.913 234.049 Q119.302 234.049 117.473 237.613 Q115.668 241.155 115.668 248.285 Q115.668 255.391 117.473 258.956 Q119.302 262.498 122.913 262.498 Q126.547 262.498 128.353 258.956 Q130.182 255.391 130.182 248.285 Q130.182 241.155 128.353 237.613 Q126.547 234.049 122.913 234.049 M122.913 230.345 Q128.723 230.345 131.779 234.951 Q134.857 239.535 134.857 248.285 Q134.857 257.011 131.779 261.618 Q128.723 266.201 122.913 266.201 Q117.103 266.201 114.024 261.618 Q110.969 257.011 110.969 248.285 Q110.969 239.535 114.024 234.951 Q117.103 230.345 122.913 230.345 Z" fill="#000000" fill-rule="evenodd" fill-opacity="1" /><path clip-path="url(#clip550)" d="M153.075 234.049 Q149.464 234.049 147.635 237.613 Q145.83 241.155 145.83 248.285 Q145.83 255.391 147.635 258.956 Q149.464 262.498 153.075 262.498 Q156.709 262.498 158.515 258.956 Q160.343 255.391 160.343 248.285 Q160.343 241.155 158.515 237.613 Q156.709 234.049 153.075 234.049 M153.075 230.345 Q158.885 230.345 161.941 234.951 Q165.019 239.535 165.019 248.285 Q165.019 257.011 161.941 261.618 Q158.885 266.201 153.075 266.201 Q147.265 266.201 144.186 261.618 Q141.131 257.011 141.131 248.285 Q141.131 239.535 144.186 234.951 Q147.265 230.345 153.075 230.345 Z" fill="#000000" fill-rule="evenodd" fill-opacity="1" /><polyline clip-path="url(#clip553)" style="stroke:#009af9; stroke-linecap:round; stroke-linejoin:round; stroke-width:4; stroke-opacity:1; fill:none" points="
  261.917,1384.24 272.067,1382.99 282.217,1382.47 292.367,1380.74 302.516,1378.53 312.666,1381.2 322.816,1380.86 332.965,1378.86 343.115,1370.95 353.265,1373.03 
  363.415,1370.74 373.564,1379.32 383.714,1377.56 393.864,1376.72 404.013,1377.26 414.163,1365.83 424.313,1348.32 434.462,1354.23 444.612,1362.93 454.762,1366.11 
  464.912,1379.16 475.061,1375.67 485.211,1362 495.361,1359.38 505.51,1363.35 515.66,1354.35 525.81,1368.61 535.959,1365.79 546.109,1366.54 556.259,1371.42 
  566.409,1369.59 576.558,1372.87 586.708,1375.68 596.858,1375.34 607.007,1377.59 617.157,1378.99 627.307,1376.2 637.456,1380.05 647.606,1378.04 657.756,1377.99 
  667.906,1381.3 678.055,1380.26 688.205,1379.93 698.355,1378.6 708.504,1368.54 718.654,1370.26 728.804,1361.66 738.953,1363.45 749.103,1360.19 759.253,1369.39 
  769.403,1366.63 779.552,1377.29 789.702,1380.67 799.852,1380.67 810.001,1381.24 820.151,1381.95 830.301,1382.57 840.45,1379.8 850.6,1378.33 860.75,1378.59 
  870.9,1379.41 881.049,1377.32 891.199,1374.07 901.349,1374.58 911.498,1370.93 921.648,1373.54 931.798,1370.78 941.947,1368.75 952.097,1366.89 962.247,1371.19 
  972.397,1363.07 982.546,1278 992.696,1125.47 1002.85,1229.64 1013,1294.12 1023.15,1306.21 1033.29,1310.8 1043.44,1313.83 1053.59,1338.88 1063.74,1343.42 
  1073.89,1337.83 1084.04,1346.94 1094.19,1339.8 1104.34,1300.88 1114.49,1323.09 1124.64,1297.39 1134.79,1295.4 1144.94,1276.96 1155.09,1272.86 1165.24,1325.86 
  1175.39,1334.46 1185.54,1339.22 1195.69,1347.28 1205.84,1334.73 1215.99,1359.2 1226.14,1341.71 1236.29,1358.18 1246.44,1359.73 1256.59,1328.79 1266.74,1350.93 
  1276.89,1362.68 1287.04,1366.79 1297.19,1365.06 1307.34,1361.16 1317.49,1359.59 1327.64,1366.78 1337.79,1355.31 1347.94,1342.91 1358.09,1335.67 1368.23,1349.78 
  1378.38,1308.9 1388.53,1149.12 1398.68,1201.07 1408.83,1090.76 1418.98,959.664 1429.13,962.491 1439.28,1051.7 1449.43,1008.71 1459.58,451.417 1469.73,86.1857 
  1479.88,704.872 1490.03,1127.26 1500.18,1243.38 1510.33,1236.67 1520.48,1272.58 1530.63,1305.01 1540.78,1285.58 1550.93,1035.2 1561.08,1209.61 1571.23,1287.8 
  1581.38,1321.96 1591.53,1259.96 1601.68,1237.29 1611.83,1230.15 1621.98,1226.03 1632.13,1266.28 1642.28,1279.11 1652.43,1267.82 1662.58,1312.59 1672.73,1237.19 
  1682.88,1186 1693.03,1043.74 1703.18,1064.55 1713.32,1003.68 1723.47,1107.02 1733.62,1022.68 1743.77,914.854 1753.92,756.357 1764.07,894.796 1774.22,775.008 
  1784.37,649.658 1794.52,202.371 1804.67,618.155 1814.82,960.214 1824.97,999.097 1835.12,1071.24 1845.27,1107.5 1855.42,1217.37 1865.57,1222.4 1875.72,1267.31 
  1885.87,1317.8 1896.02,1359.74 1906.17,1368.93 1916.32,1375.24 1926.47,1377.36 1936.62,1379.31 1946.77,1379.17 1956.92,1381.57 1967.07,1377.71 1977.22,1379.92 
  1987.37,1378.82 1997.52,1374.78 2007.67,1375.29 2017.82,1377.71 2027.97,1380.52 2038.12,1373.39 2048.26,1368.26 2058.41,1369.36 2068.56,1375.29 2078.71,1363.59 
  2088.86,1368.93 2099.01,1370.32 2109.16,1373.94 2119.31,1373.23 2129.46,1364.91 2139.61,1370.19 2149.76,1365.34 2159.91,1367.42 2170.06,1352.61 2180.21,1360.44 
  2190.36,1359.04 2200.51,1365.24 2210.66,1372.44 2220.81,1367.31 2230.96,1358.29 2241.11,1340.82 2251.26,1366.36 2261.41,1377.1 2271.56,1380.94 2281.71,1376.32 
  2291.86,1373.78 
  "/>
<path clip-path="url(#clip550)" d="
M1975.58 196.789 L2281.03 196.789 L2281.03 93.1086 L1975.58 93.1086  Z
  " fill="#ffffff" fill-rule="evenodd" fill-opacity="1"/>
<polyline clip-path="url(#clip550)" style="stroke:#000000; stroke-linecap:round; stroke-linejoin:round; stroke-width:4; stroke-opacity:1; fill:none" points="
  1975.58,196.789 2281.03,196.789 2281.03,93.1086 1975.58,93.1086 1975.58,196.789 
  "/>
<polyline clip-path="url(#clip550)" style="stroke:#009af9; stroke-linecap:round; stroke-linejoin:round; stroke-width:4; stroke-opacity:1; fill:none" points="
  1999.49,144.949 2142.94,144.949 
  "/>
<path clip-path="url(#clip550)" d="M2198.61 138.976 Q2198.61 140.779 2197.62 144.761 Q2196.64 148.743 2195.45 151.46 Q2192.89 157.362 2188.49 157.362 Q2187.95 157.362 2187.41 157.315 Q2186.9 157.269 2186.12 157.058 Q2185.35 156.847 2184.72 156.519 Q2184.09 156.168 2183.45 155.512 Q2182.84 154.856 2182.49 153.99 Q2180.55 157.362 2177.5 157.362 Q2174.55 157.362 2172.61 155.863 Q2170.69 154.364 2170.69 151.296 Q2170.69 149.914 2171.25 147.876 Q2171.81 145.838 2173.38 141.622 Q2174.25 139.444 2174.25 138.25 Q2174.25 137.711 2174.13 137.36 Q2174.01 137.008 2173.78 136.891 Q2173.57 136.751 2173.43 136.727 Q2173.29 136.68 2173.05 136.68 Q2171.65 136.68 2170.38 138.109 Q2169.12 139.514 2168.21 142.63 Q2168.02 143.215 2167.9 143.356 Q2167.78 143.496 2167.43 143.496 Q2166.85 143.473 2166.85 143.004 Q2166.85 142.817 2167.06 142.091 Q2167.27 141.341 2167.76 140.241 Q2168.28 139.116 2168.98 138.109 Q2169.68 137.078 2170.78 136.352 Q2171.91 135.626 2173.19 135.626 Q2174.93 135.626 2176.03 136.774 Q2177.13 137.922 2177.13 139.561 Q2177.13 140.03 2177.01 140.545 Q2176.89 141.037 2176.78 141.365 Q2176.68 141.669 2176.31 142.63 Q2174.76 146.682 2174.27 148.626 Q2173.8 150.57 2173.8 151.928 Q2173.8 152.373 2173.83 152.725 Q2173.85 153.076 2174.04 153.802 Q2174.25 154.528 2174.62 155.02 Q2175 155.489 2175.77 155.887 Q2176.57 156.285 2177.64 156.285 Q2180.34 156.285 2182.07 152.256 Q2182.02 152.022 2182.02 151.413 Q2182.02 150.055 2182.45 148.228 Q2182.56 147.806 2183.24 145.112 Q2183.92 142.395 2184.51 140.03 Q2185.12 137.641 2185.19 137.5 Q2185.42 136.844 2185.94 136.493 Q2186.45 136.142 2186.97 136.142 Q2187.55 136.142 2187.95 136.493 Q2188.35 136.844 2188.35 137.453 Q2188.35 137.57 2188.21 138.109 Q2188.09 138.624 2187.9 139.397 Q2187.72 140.17 2187.62 140.568 L2185.61 148.626 Q2185.09 150.5 2185.09 152.116 Q2185.09 154.153 2186.01 155.231 Q2186.92 156.285 2188.63 156.285 Q2191.84 156.285 2193.9 152.069 Q2194.84 150.242 2195.68 147.384 Q2196.55 144.527 2196.55 143.285 Q2196.55 140.943 2194.81 139.21 Q2194.44 138.882 2194.27 138.624 Q2194.11 138.343 2194.11 137.922 Q2194.11 137.125 2194.86 136.376 Q2195.61 135.626 2196.5 135.626 Q2197.3 135.626 2197.95 136.423 Q2198.61 137.196 2198.61 138.976 Z" fill="#000000" fill-rule="evenodd" fill-opacity="1" /><path clip-path="url(#clip550)" d="M2205.46 144.831 Q2205.46 136.727 2208.48 130.192 Q2209.77 127.452 2211.57 125.156 Q2213.37 122.861 2214.57 121.854 Q2215.76 120.847 2216.09 120.847 Q2216.56 120.847 2216.58 121.315 Q2216.58 121.549 2215.95 122.135 Q2208.22 130.005 2208.24 144.831 Q2208.24 159.705 2215.76 167.27 Q2216.58 168.09 2216.58 168.347 Q2216.58 168.816 2216.09 168.816 Q2215.76 168.816 2214.61 167.856 Q2213.47 166.895 2211.69 164.694 Q2209.91 162.492 2208.62 159.798 Q2205.46 153.263 2205.46 144.831 Z" fill="#000000" fill-rule="evenodd" fill-opacity="1" /><path clip-path="url(#clip550)" d="M2234.96 136.68 Q2234.96 137.336 2234.65 137.5 Q2234.35 137.641 2233.5 137.641 L2229.01 137.641 L2225.45 151.788 Q2225.17 153.029 2225.17 154.083 Q2225.17 155.254 2225.52 155.77 Q2225.89 156.285 2226.66 156.285 Q2228.19 156.285 2229.83 154.903 Q2231.49 153.521 2232.9 150.148 Q2233.08 149.703 2233.18 149.61 Q2233.29 149.492 2233.6 149.492 Q2234.18 149.492 2234.18 149.961 Q2234.18 150.125 2233.86 150.874 Q2233.55 151.624 2232.87 152.725 Q2232.22 153.826 2231.35 154.856 Q2230.51 155.887 2229.22 156.636 Q2227.93 157.362 2226.55 157.362 Q2224.6 157.362 2223.36 156.121 Q2222.14 154.88 2222.14 152.935 Q2222.14 152.303 2222.64 150.289 Q2223.13 148.251 2225.8 137.641 L2221.56 137.641 Q2220.97 137.641 2220.74 137.617 Q2220.53 137.594 2220.36 137.477 Q2220.22 137.336 2220.22 137.055 Q2220.22 136.61 2220.41 136.423 Q2220.6 136.212 2220.83 136.188 Q2221.09 136.142 2221.68 136.142 L2226.17 136.142 L2228.05 128.529 Q2228.23 127.78 2228.7 127.358 Q2229.19 126.913 2229.48 126.866 Q2229.76 126.796 2229.97 126.796 Q2230.6 126.796 2230.97 127.147 Q2231.35 127.475 2231.35 128.084 Q2231.35 128.412 2229.38 136.142 L2233.6 136.142 Q2234.14 136.142 2234.35 136.165 Q2234.58 136.188 2234.77 136.306 Q2234.96 136.423 2234.96 136.68 Z" fill="#000000" fill-rule="evenodd" fill-opacity="1" /><path clip-path="url(#clip550)" d="M2238.71 168.347 Q2238.71 168.113 2239.32 167.528 Q2247.05 159.658 2247.05 144.831 Q2247.05 129.958 2239.62 122.439 Q2238.71 121.573 2238.71 121.315 Q2238.71 120.847 2239.18 120.847 Q2239.5 120.847 2240.65 121.807 Q2241.82 122.767 2243.58 124.969 Q2245.36 127.171 2246.67 129.864 Q2249.83 136.399 2249.83 144.831 Q2249.83 152.935 2246.81 159.47 Q2245.52 162.211 2243.72 164.506 Q2241.92 166.802 2240.72 167.809 Q2239.53 168.816 2239.18 168.816 Q2238.71 168.816 2238.71 168.347 Z" fill="#000000" fill-rule="evenodd" fill-opacity="1" /></svg>
