<?xml version="1.0" encoding="utf-8"?>
<svg xmlns="http://www.w3.org/2000/svg" xmlns:xlink="http://www.w3.org/1999/xlink" width="600" height="400" viewBox="0 0 2400 1600">
<defs>
  <clipPath id="clip800">
    <rect x="0" y="0" width="2400" height="1600"/>
  </clipPath>
</defs>
<path clip-path="url(#clip800)" d="
M0 1600 L2400 1600 L2400 0 L0 0  Z
  " fill="#ffffff" fill-rule="evenodd" fill-opacity="1"/>
<defs>
  <clipPath id="clip801">
    <rect x="480" y="0" width="1681" height="1600"/>
  </clipPath>
</defs>
<defs>
  <clipPath id="clip802">
    <rect x="249" y="47" width="2104" height="1440"/>
  </clipPath>
</defs>
<path clip-path="url(#clip800)" d="
M216.436 1423.18 L2352.76 1423.18 L2352.76 47.2441 L216.436 47.2441  Z
  " fill="#ffffff" fill-rule="evenodd" fill-opacity="1"/>
<defs>
  <clipPath id="clip803">
    <rect x="216" y="47" width="2137" height="1377"/>
  </clipPath>
</defs>
<polyline clip-path="url(#clip803)" style="stroke:#000000; stroke-linecap:round; stroke-linejoin:round; stroke-width:2; stroke-opacity:0.1; fill:none" points="
  276.898,1423.18 276.898,47.2441 
  "/>
<polyline clip-path="url(#clip803)" style="stroke:#000000; stroke-linecap:round; stroke-linejoin:round; stroke-width:2; stroke-opacity:0.1; fill:none" points="
  814.337,1423.18 814.337,47.2441 
  "/>
<polyline clip-path="url(#clip803)" style="stroke:#000000; stroke-linecap:round; stroke-linejoin:round; stroke-width:2; stroke-opacity:0.1; fill:none" points="
  1351.78,1423.18 1351.78,47.2441 
  "/>
<polyline clip-path="url(#clip803)" style="stroke:#000000; stroke-linecap:round; stroke-linejoin:round; stroke-width:2; stroke-opacity:0.1; fill:none" points="
  1889.21,1423.18 1889.21,47.2441 
  "/>
<polyline clip-path="url(#clip800)" style="stroke:#000000; stroke-linecap:round; stroke-linejoin:round; stroke-width:4; stroke-opacity:1; fill:none" points="
  216.436,1423.18 2352.76,1423.18 
  "/>
<polyline clip-path="url(#clip800)" style="stroke:#000000; stroke-linecap:round; stroke-linejoin:round; stroke-width:4; stroke-opacity:1; fill:none" points="
  276.898,1423.18 276.898,1404.28 
  "/>
<polyline clip-path="url(#clip800)" style="stroke:#000000; stroke-linecap:round; stroke-linejoin:round; stroke-width:4; stroke-opacity:1; fill:none" points="
  814.337,1423.18 814.337,1404.28 
  "/>
<polyline clip-path="url(#clip800)" style="stroke:#000000; stroke-linecap:round; stroke-linejoin:round; stroke-width:4; stroke-opacity:1; fill:none" points="
  1351.78,1423.18 1351.78,1404.28 
  "/>
<polyline clip-path="url(#clip800)" style="stroke:#000000; stroke-linecap:round; stroke-linejoin:round; stroke-width:4; stroke-opacity:1; fill:none" points="
  1889.21,1423.18 1889.21,1404.28 
  "/>
<path clip-path="url(#clip800)" d="M239.201 1454.1 Q235.59 1454.1 233.761 1457.66 Q231.956 1461.2 231.956 1468.33 Q231.956 1475.44 233.761 1479.01 Q235.59 1482.55 239.201 1482.55 Q242.835 1482.55 244.641 1479.01 Q246.47 1475.44 246.47 1468.33 Q246.47 1461.2 244.641 1457.66 Q242.835 1454.1 239.201 1454.1 M239.201 1450.39 Q245.011 1450.39 248.067 1455 Q251.146 1459.58 251.146 1468.33 Q251.146 1477.06 248.067 1481.67 Q245.011 1486.25 239.201 1486.25 Q233.391 1486.25 230.312 1481.67 Q227.257 1477.06 227.257 1468.33 Q227.257 1459.58 230.312 1455 Q233.391 1450.39 239.201 1450.39 Z" fill="#000000" fill-rule="evenodd" fill-opacity="1" /><path clip-path="url(#clip800)" d="M259.363 1479.7 L264.247 1479.7 L264.247 1485.58 L259.363 1485.58 L259.363 1479.7 Z" fill="#000000" fill-rule="evenodd" fill-opacity="1" /><path clip-path="url(#clip800)" d="M284.432 1454.1 Q280.821 1454.1 278.993 1457.66 Q277.187 1461.2 277.187 1468.33 Q277.187 1475.44 278.993 1479.01 Q280.821 1482.55 284.432 1482.55 Q288.067 1482.55 289.872 1479.01 Q291.701 1475.44 291.701 1468.33 Q291.701 1461.2 289.872 1457.66 Q288.067 1454.1 284.432 1454.1 M284.432 1450.39 Q290.243 1450.39 293.298 1455 Q296.377 1459.58 296.377 1468.33 Q296.377 1477.06 293.298 1481.67 Q290.243 1486.25 284.432 1486.25 Q278.622 1486.25 275.544 1481.67 Q272.488 1477.06 272.488 1468.33 Q272.488 1459.58 275.544 1455 Q278.622 1450.39 284.432 1450.39 Z" fill="#000000" fill-rule="evenodd" fill-opacity="1" /><path clip-path="url(#clip800)" d="M314.594 1454.1 Q310.983 1454.1 309.155 1457.66 Q307.349 1461.2 307.349 1468.33 Q307.349 1475.44 309.155 1479.01 Q310.983 1482.55 314.594 1482.55 Q318.229 1482.55 320.034 1479.01 Q321.863 1475.44 321.863 1468.33 Q321.863 1461.2 320.034 1457.66 Q318.229 1454.1 314.594 1454.1 M314.594 1450.39 Q320.404 1450.39 323.46 1455 Q326.539 1459.58 326.539 1468.33 Q326.539 1477.06 323.46 1481.67 Q320.404 1486.25 314.594 1486.25 Q308.784 1486.25 305.705 1481.67 Q302.65 1477.06 302.65 1468.33 Q302.65 1459.58 305.705 1455 Q308.784 1450.39 314.594 1450.39 Z" fill="#000000" fill-rule="evenodd" fill-opacity="1" /><path clip-path="url(#clip800)" d="M777.439 1454.1 Q773.828 1454.1 771.999 1457.66 Q770.193 1461.2 770.193 1468.33 Q770.193 1475.44 771.999 1479.01 Q773.828 1482.55 777.439 1482.55 Q781.073 1482.55 782.879 1479.01 Q784.707 1475.44 784.707 1468.33 Q784.707 1461.2 782.879 1457.66 Q781.073 1454.1 777.439 1454.1 M777.439 1450.39 Q783.249 1450.39 786.305 1455 Q789.383 1459.58 789.383 1468.33 Q789.383 1477.06 786.305 1481.67 Q783.249 1486.25 777.439 1486.25 Q771.629 1486.25 768.55 1481.67 Q765.494 1477.06 765.494 1468.33 Q765.494 1459.58 768.55 1455 Q771.629 1450.39 777.439 1450.39 Z" fill="#000000" fill-rule="evenodd" fill-opacity="1" /><path clip-path="url(#clip800)" d="M797.601 1479.7 L802.485 1479.7 L802.485 1485.58 L797.601 1485.58 L797.601 1479.7 Z" fill="#000000" fill-rule="evenodd" fill-opacity="1" /><path clip-path="url(#clip800)" d="M822.67 1454.1 Q819.059 1454.1 817.23 1457.66 Q815.425 1461.2 815.425 1468.33 Q815.425 1475.44 817.23 1479.01 Q819.059 1482.55 822.67 1482.55 Q826.304 1482.55 828.11 1479.01 Q829.939 1475.44 829.939 1468.33 Q829.939 1461.2 828.11 1457.66 Q826.304 1454.1 822.67 1454.1 M822.67 1450.39 Q828.48 1450.39 831.536 1455 Q834.614 1459.58 834.614 1468.33 Q834.614 1477.06 831.536 1481.67 Q828.48 1486.25 822.67 1486.25 Q816.86 1486.25 813.781 1481.67 Q810.726 1477.06 810.726 1468.33 Q810.726 1459.58 813.781 1455 Q816.86 1450.39 822.67 1450.39 Z" fill="#000000" fill-rule="evenodd" fill-opacity="1" /><path clip-path="url(#clip800)" d="M846.86 1481.64 L863.179 1481.64 L863.179 1485.58 L841.235 1485.58 L841.235 1481.64 Q843.897 1478.89 848.48 1474.26 Q853.087 1469.61 854.267 1468.27 Q856.512 1465.74 857.392 1464.01 Q858.295 1462.25 858.295 1460.56 Q858.295 1457.8 856.35 1456.07 Q854.429 1454.33 851.327 1454.33 Q849.128 1454.33 846.675 1455.09 Q844.244 1455.86 841.466 1457.41 L841.466 1452.69 Q844.29 1451.55 846.744 1450.97 Q849.198 1450.39 851.235 1450.39 Q856.605 1450.39 859.799 1453.08 Q862.994 1455.77 862.994 1460.26 Q862.994 1462.39 862.184 1464.31 Q861.397 1466.2 859.29 1468.8 Q858.712 1469.47 855.61 1472.69 Q852.508 1475.88 846.86 1481.64 Z" fill="#000000" fill-rule="evenodd" fill-opacity="1" /><path clip-path="url(#clip800)" d="M1313.84 1454.1 Q1310.23 1454.1 1308.4 1457.66 Q1306.59 1461.2 1306.59 1468.33 Q1306.59 1475.44 1308.4 1479.01 Q1310.23 1482.55 1313.84 1482.55 Q1317.47 1482.55 1319.28 1479.01 Q1321.1 1475.44 1321.1 1468.33 Q1321.1 1461.2 1319.28 1457.66 Q1317.47 1454.1 1313.84 1454.1 M1313.84 1450.39 Q1319.65 1450.39 1322.7 1455 Q1325.78 1459.58 1325.78 1468.33 Q1325.78 1477.06 1322.7 1481.67 Q1319.65 1486.25 1313.84 1486.25 Q1308.03 1486.25 1304.95 1481.67 Q1301.89 1477.06 1301.89 1468.33 Q1301.89 1459.58 1304.95 1455 Q1308.03 1450.39 1313.84 1450.39 Z" fill="#000000" fill-rule="evenodd" fill-opacity="1" /><path clip-path="url(#clip800)" d="M1334 1479.7 L1338.88 1479.7 L1338.88 1485.58 L1334 1485.58 L1334 1479.7 Z" fill="#000000" fill-rule="evenodd" fill-opacity="1" /><path clip-path="url(#clip800)" d="M1359.07 1454.1 Q1355.46 1454.1 1353.63 1457.66 Q1351.82 1461.2 1351.82 1468.33 Q1351.82 1475.44 1353.63 1479.01 Q1355.46 1482.55 1359.07 1482.55 Q1362.7 1482.55 1364.51 1479.01 Q1366.34 1475.44 1366.34 1468.33 Q1366.34 1461.2 1364.51 1457.66 Q1362.7 1454.1 1359.07 1454.1 M1359.07 1450.39 Q1364.88 1450.39 1367.93 1455 Q1371.01 1459.58 1371.01 1468.33 Q1371.01 1477.06 1367.93 1481.67 Q1364.88 1486.25 1359.07 1486.25 Q1353.26 1486.25 1350.18 1481.67 Q1347.12 1477.06 1347.12 1468.33 Q1347.12 1459.58 1350.18 1455 Q1353.26 1450.39 1359.07 1450.39 Z" fill="#000000" fill-rule="evenodd" fill-opacity="1" /><path clip-path="url(#clip800)" d="M1392.08 1455.09 L1380.27 1473.54 L1392.08 1473.54 L1392.08 1455.09 M1390.85 1451.02 L1396.73 1451.02 L1396.73 1473.54 L1401.66 1473.54 L1401.66 1477.43 L1396.73 1477.43 L1396.73 1485.58 L1392.08 1485.58 L1392.08 1477.43 L1376.47 1477.43 L1376.47 1472.92 L1390.85 1451.02 Z" fill="#000000" fill-rule="evenodd" fill-opacity="1" /><path clip-path="url(#clip800)" d="M1851.44 1454.1 Q1847.83 1454.1 1846 1457.66 Q1844.19 1461.2 1844.19 1468.33 Q1844.19 1475.44 1846 1479.01 Q1847.83 1482.55 1851.44 1482.55 Q1855.07 1482.55 1856.88 1479.01 Q1858.71 1475.44 1858.71 1468.33 Q1858.71 1461.2 1856.88 1457.66 Q1855.07 1454.1 1851.44 1454.1 M1851.44 1450.39 Q1857.25 1450.39 1860.3 1455 Q1863.38 1459.58 1863.38 1468.33 Q1863.38 1477.06 1860.3 1481.67 Q1857.25 1486.25 1851.44 1486.25 Q1845.63 1486.25 1842.55 1481.67 Q1839.49 1477.06 1839.49 1468.33 Q1839.49 1459.58 1842.55 1455 Q1845.63 1450.39 1851.44 1450.39 Z" fill="#000000" fill-rule="evenodd" fill-opacity="1" /><path clip-path="url(#clip800)" d="M1871.6 1479.7 L1876.48 1479.7 L1876.48 1485.58 L1871.6 1485.58 L1871.6 1479.7 Z" fill="#000000" fill-rule="evenodd" fill-opacity="1" /><path clip-path="url(#clip800)" d="M1896.67 1454.1 Q1893.06 1454.1 1891.23 1457.66 Q1889.42 1461.2 1889.42 1468.33 Q1889.42 1475.44 1891.23 1479.01 Q1893.06 1482.55 1896.67 1482.55 Q1900.3 1482.55 1902.11 1479.01 Q1903.94 1475.44 1903.94 1468.33 Q1903.94 1461.2 1902.11 1457.66 Q1900.3 1454.1 1896.67 1454.1 M1896.67 1450.39 Q1902.48 1450.39 1905.53 1455 Q1908.61 1459.58 1908.61 1468.33 Q1908.61 1477.06 1905.53 1481.67 Q1902.48 1486.25 1896.67 1486.25 Q1890.86 1486.25 1887.78 1481.67 Q1884.72 1477.06 1884.72 1468.33 Q1884.72 1459.58 1887.78 1455 Q1890.86 1450.39 1896.67 1450.39 Z" fill="#000000" fill-rule="evenodd" fill-opacity="1" /><path clip-path="url(#clip800)" d="M1927.41 1466.44 Q1924.26 1466.44 1922.41 1468.59 Q1920.58 1470.74 1920.58 1474.49 Q1920.58 1478.22 1922.41 1480.39 Q1924.26 1482.55 1927.41 1482.55 Q1930.56 1482.55 1932.39 1480.39 Q1934.24 1478.22 1934.24 1474.49 Q1934.24 1470.74 1932.39 1468.59 Q1930.56 1466.44 1927.41 1466.44 M1936.69 1451.78 L1936.69 1456.04 Q1934.93 1455.21 1933.13 1454.77 Q1931.34 1454.33 1929.58 1454.33 Q1924.96 1454.33 1922.5 1457.45 Q1920.07 1460.58 1919.72 1466.9 Q1921.09 1464.89 1923.15 1463.82 Q1925.21 1462.73 1927.69 1462.73 Q1932.9 1462.73 1935.9 1465.9 Q1938.94 1469.05 1938.94 1474.49 Q1938.94 1479.82 1935.79 1483.03 Q1932.64 1486.25 1927.41 1486.25 Q1921.41 1486.25 1918.24 1481.67 Q1915.07 1477.06 1915.07 1468.33 Q1915.07 1460.14 1918.96 1455.28 Q1922.85 1450.39 1929.4 1450.39 Q1931.16 1450.39 1932.94 1450.74 Q1934.75 1451.09 1936.69 1451.78 Z" fill="#000000" fill-rule="evenodd" fill-opacity="1" /><path clip-path="url(#clip800)" d="M1286.29 1531.17 Q1285.46 1535.32 1284.33 1537.7 Q1282.53 1541.34 1279.43 1541.34 Q1277.24 1541.34 1275.57 1540.02 Q1273.93 1538.7 1273.51 1536.51 Q1272.67 1537.51 1272.06 1538.09 Q1271.48 1538.67 1270.32 1539.57 Q1269.19 1540.44 1267.78 1540.89 Q1266.36 1541.34 1264.75 1541.34 Q1260.82 1541.34 1258.34 1539.28 Q1254.99 1552.78 1254.7 1553.45 Q1253.77 1554.84 1252.41 1554.84 Q1251.58 1554.84 1251.06 1554.32 Q1250.54 1553.84 1250.54 1553.07 Q1250.58 1552.81 1250.77 1552 L1260.24 1513.84 Q1260.5 1512.81 1261.14 1512.23 Q1261.82 1511.62 1262.2 1511.55 Q1262.59 1511.46 1262.88 1511.46 Q1263.75 1511.46 1264.26 1511.94 Q1264.81 1512.39 1264.81 1513.23 Q1264.81 1513.36 1264.62 1514.1 Q1264.46 1514.8 1264.2 1515.9 Q1263.94 1516.96 1263.81 1517.45 L1261.04 1528.52 Q1260.11 1532.32 1260.11 1534.13 Q1260.11 1536.87 1261.33 1538.38 Q1262.59 1539.86 1265.01 1539.86 Q1266.52 1539.86 1267.94 1539.25 Q1269.35 1538.6 1270.32 1537.74 Q1271.29 1536.87 1272.06 1535.93 Q1272.83 1534.97 1273.19 1534.35 Q1273.54 1533.71 1273.57 1533.55 L1275.28 1526.82 L1278.4 1514.48 Q1278.6 1513.71 1278.95 1513.19 Q1279.34 1512.65 1279.79 1512.45 Q1280.24 1512.26 1280.5 1512.23 Q1280.75 1512.16 1280.98 1512.16 Q1281.78 1512.16 1282.33 1512.65 Q1282.88 1513.13 1282.88 1513.97 Q1282.88 1514.13 1282.69 1514.9 Q1282.53 1515.64 1282.27 1516.74 Q1282.01 1517.8 1281.88 1518.38 Q1280.85 1522.44 1280.75 1522.86 L1278.92 1529.97 Q1278.82 1530.39 1278.5 1531.75 Q1278.21 1533.1 1278.05 1533.81 Q1277.89 1534.48 1277.73 1535.42 Q1277.6 1536.32 1277.6 1536.83 Q1277.6 1539.86 1279.59 1539.86 Q1280.37 1539.86 1281.04 1539.41 Q1281.72 1538.93 1282.17 1538.25 Q1282.65 1537.57 1283.11 1536.41 Q1283.59 1535.22 1283.88 1534.26 Q1284.17 1533.26 1284.59 1531.71 Q1284.75 1530.97 1284.91 1530.75 Q1285.07 1530.52 1285.52 1530.52 Q1286.29 1530.52 1286.29 1531.17 Z" fill="#000000" fill-rule="evenodd" fill-opacity="1" /><path clip-path="url(#clip800)" d="M1311.79 1549.42 Q1311.79 1550.61 1311 1551.38 Q1310.24 1552.15 1309.25 1552.15 Q1308.39 1552.15 1307.94 1551.65 Q1307.49 1551.15 1307.49 1550.52 Q1307.49 1549.62 1308.19 1548.88 Q1308.88 1548.13 1309.9 1547.98 Q1309.16 1547.44 1307.96 1547.44 Q1306 1547.44 1304.26 1548.95 Q1303.5 1549.64 1302.66 1550.93 Q1301.83 1552.19 1301.67 1552.73 L1300.21 1558.75 Q1300.07 1559.43 1299.24 1562.67 Q1298.42 1565.9 1298.36 1566.03 Q1298.13 1566.67 1297.64 1567 Q1297.14 1567.34 1296.64 1567.34 Q1296.08 1567.34 1295.7 1567 Q1295.31 1566.67 1295.31 1566.08 Q1295.31 1565.99 1295.38 1565.65 Q1295.45 1565.31 1295.56 1564.84 Q1295.67 1564.37 1295.72 1564.1 L1298.4 1553.43 Q1298.9 1551.49 1299.01 1550.88 Q1299.15 1550.25 1299.15 1549.55 Q1299.15 1548.34 1298.76 1547.89 Q1298.38 1547.44 1297.7 1547.44 Q1296.53 1547.44 1295.76 1548.83 Q1295 1550.23 1294.34 1552.94 Q1294.14 1553.68 1294.01 1553.84 Q1293.89 1554 1293.55 1554 Q1292.99 1553.97 1292.99 1553.52 Q1292.99 1553.41 1293.17 1552.69 Q1293.35 1551.94 1293.69 1550.86 Q1294.05 1549.76 1294.43 1549.06 Q1294.66 1548.58 1294.86 1548.27 Q1295.07 1547.95 1295.47 1547.46 Q1295.88 1546.96 1296.49 1546.69 Q1297.09 1546.42 1297.84 1546.42 Q1299.46 1546.42 1300.61 1547.41 Q1301.78 1548.4 1302.05 1549.96 Q1302.62 1549.15 1303.32 1548.45 Q1304.02 1547.73 1305.3 1547.07 Q1306.59 1546.42 1307.96 1546.42 Q1309.67 1546.42 1310.73 1547.3 Q1311.79 1548.16 1311.79 1549.42 Z" fill="#000000" fill-rule="evenodd" fill-opacity="1" /><polyline clip-path="url(#clip803)" style="stroke:#000000; stroke-linecap:round; stroke-linejoin:round; stroke-width:2; stroke-opacity:0.1; fill:none" points="
  216.436,1264.63 2352.76,1264.63 
  "/>
<polyline clip-path="url(#clip803)" style="stroke:#000000; stroke-linecap:round; stroke-linejoin:round; stroke-width:2; stroke-opacity:0.1; fill:none" points="
  216.436,1089.34 2352.76,1089.34 
  "/>
<polyline clip-path="url(#clip803)" style="stroke:#000000; stroke-linecap:round; stroke-linejoin:round; stroke-width:2; stroke-opacity:0.1; fill:none" points="
  216.436,914.058 2352.76,914.058 
  "/>
<polyline clip-path="url(#clip803)" style="stroke:#000000; stroke-linecap:round; stroke-linejoin:round; stroke-width:2; stroke-opacity:0.1; fill:none" points="
  216.436,738.771 2352.76,738.771 
  "/>
<polyline clip-path="url(#clip803)" style="stroke:#000000; stroke-linecap:round; stroke-linejoin:round; stroke-width:2; stroke-opacity:0.1; fill:none" points="
  216.436,563.485 2352.76,563.485 
  "/>
<polyline clip-path="url(#clip803)" style="stroke:#000000; stroke-linecap:round; stroke-linejoin:round; stroke-width:2; stroke-opacity:0.1; fill:none" points="
  216.436,388.199 2352.76,388.199 
  "/>
<polyline clip-path="url(#clip803)" style="stroke:#000000; stroke-linecap:round; stroke-linejoin:round; stroke-width:2; stroke-opacity:0.1; fill:none" points="
  216.436,212.912 2352.76,212.912 
  "/>
<polyline clip-path="url(#clip800)" style="stroke:#000000; stroke-linecap:round; stroke-linejoin:round; stroke-width:4; stroke-opacity:1; fill:none" points="
  216.436,1423.18 216.436,47.2441 
  "/>
<polyline clip-path="url(#clip800)" style="stroke:#000000; stroke-linecap:round; stroke-linejoin:round; stroke-width:4; stroke-opacity:1; fill:none" points="
  216.436,1264.63 235.334,1264.63 
  "/>
<polyline clip-path="url(#clip800)" style="stroke:#000000; stroke-linecap:round; stroke-linejoin:round; stroke-width:4; stroke-opacity:1; fill:none" points="
  216.436,1089.34 235.334,1089.34 
  "/>
<polyline clip-path="url(#clip800)" style="stroke:#000000; stroke-linecap:round; stroke-linejoin:round; stroke-width:4; stroke-opacity:1; fill:none" points="
  216.436,914.058 235.334,914.058 
  "/>
<polyline clip-path="url(#clip800)" style="stroke:#000000; stroke-linecap:round; stroke-linejoin:round; stroke-width:4; stroke-opacity:1; fill:none" points="
  216.436,738.771 235.334,738.771 
  "/>
<polyline clip-path="url(#clip800)" style="stroke:#000000; stroke-linecap:round; stroke-linejoin:round; stroke-width:4; stroke-opacity:1; fill:none" points="
  216.436,563.485 235.334,563.485 
  "/>
<polyline clip-path="url(#clip800)" style="stroke:#000000; stroke-linecap:round; stroke-linejoin:round; stroke-width:4; stroke-opacity:1; fill:none" points="
  216.436,388.199 235.334,388.199 
  "/>
<polyline clip-path="url(#clip800)" style="stroke:#000000; stroke-linecap:round; stroke-linejoin:round; stroke-width:4; stroke-opacity:1; fill:none" points="
  216.436,212.912 235.334,212.912 
  "/>
<path clip-path="url(#clip800)" d="M63.9319 1250.43 Q60.3208 1250.43 58.4921 1253.99 Q56.6865 1257.54 56.6865 1264.66 Q56.6865 1271.77 58.4921 1275.34 Q60.3208 1278.88 63.9319 1278.88 Q67.5661 1278.88 69.3717 1275.34 Q71.2004 1271.77 71.2004 1264.66 Q71.2004 1257.54 69.3717 1253.99 Q67.5661 1250.43 63.9319 1250.43 M63.9319 1246.73 Q69.742 1246.73 72.7976 1251.33 Q75.8763 1255.91 75.8763 1264.66 Q75.8763 1273.39 72.7976 1278 Q69.742 1282.58 63.9319 1282.58 Q58.1217 1282.58 55.043 1278 Q51.9875 1273.39 51.9875 1264.66 Q51.9875 1255.91 55.043 1251.33 Q58.1217 1246.73 63.9319 1246.73 Z" fill="#000000" fill-rule="evenodd" fill-opacity="1" /><path clip-path="url(#clip800)" d="M84.0938 1276.03 L88.978 1276.03 L88.978 1281.91 L84.0938 1281.91 L84.0938 1276.03 Z" fill="#000000" fill-rule="evenodd" fill-opacity="1" /><path clip-path="url(#clip800)" d="M112.01 1251.42 L100.205 1269.87 L112.01 1269.87 L112.01 1251.42 M110.783 1247.35 L116.663 1247.35 L116.663 1269.87 L121.594 1269.87 L121.594 1273.76 L116.663 1273.76 L116.663 1281.91 L112.01 1281.91 L112.01 1273.76 L96.4085 1273.76 L96.4085 1269.25 L110.783 1247.35 Z" fill="#000000" fill-rule="evenodd" fill-opacity="1" /><path clip-path="url(#clip800)" d="M128.144 1247.35 L150.367 1247.35 L150.367 1249.34 L137.82 1281.91 L132.936 1281.91 L144.742 1251.29 L128.144 1251.29 L128.144 1247.35 Z" fill="#000000" fill-rule="evenodd" fill-opacity="1" /><path clip-path="url(#clip800)" d="M159.533 1247.35 L177.89 1247.35 L177.89 1251.29 L163.816 1251.29 L163.816 1259.76 Q164.834 1259.41 165.853 1259.25 Q166.871 1259.06 167.89 1259.06 Q173.677 1259.06 177.056 1262.23 Q180.436 1265.41 180.436 1270.82 Q180.436 1276.4 176.964 1279.5 Q173.491 1282.58 167.172 1282.58 Q164.996 1282.58 162.728 1282.21 Q160.482 1281.84 158.075 1281.1 L158.075 1276.4 Q160.158 1277.54 162.38 1278.09 Q164.603 1278.65 167.079 1278.65 Q171.084 1278.65 173.422 1276.54 Q175.76 1274.43 175.76 1270.82 Q175.76 1267.21 173.422 1265.1 Q171.084 1263 167.079 1263 Q165.204 1263 163.329 1263.41 Q161.478 1263.83 159.533 1264.71 L159.533 1247.35 Z" fill="#000000" fill-rule="evenodd" fill-opacity="1" /><path clip-path="url(#clip800)" d="M62.9365 1075.14 Q59.3254 1075.14 57.4967 1078.71 Q55.6912 1082.25 55.6912 1089.38 Q55.6912 1096.49 57.4967 1100.05 Q59.3254 1103.59 62.9365 1103.59 Q66.5707 1103.59 68.3763 1100.05 Q70.205 1096.49 70.205 1089.38 Q70.205 1082.25 68.3763 1078.71 Q66.5707 1075.14 62.9365 1075.14 M62.9365 1071.44 Q68.7467 1071.44 71.8022 1076.05 Q74.8809 1080.63 74.8809 1089.38 Q74.8809 1098.11 71.8022 1102.71 Q68.7467 1107.3 62.9365 1107.3 Q57.1264 1107.3 54.0477 1102.71 Q50.9921 1098.11 50.9921 1089.38 Q50.9921 1080.63 54.0477 1076.05 Q57.1264 1071.44 62.9365 1071.44 Z" fill="#000000" fill-rule="evenodd" fill-opacity="1" /><path clip-path="url(#clip800)" d="M83.0984 1100.74 L87.9827 1100.74 L87.9827 1106.62 L83.0984 1106.62 L83.0984 1100.74 Z" fill="#000000" fill-rule="evenodd" fill-opacity="1" /><path clip-path="url(#clip800)" d="M98.2141 1072.06 L116.57 1072.06 L116.57 1076 L102.496 1076 L102.496 1084.47 Q103.515 1084.12 104.534 1083.96 Q105.552 1083.78 106.571 1083.78 Q112.358 1083.78 115.737 1086.95 Q119.117 1090.12 119.117 1095.54 Q119.117 1101.11 115.645 1104.22 Q112.172 1107.3 105.853 1107.3 Q103.677 1107.3 101.409 1106.92 Q99.1632 1106.55 96.7558 1105.81 L96.7558 1101.11 Q98.8391 1102.25 101.061 1102.8 Q103.284 1103.36 105.76 1103.36 Q109.765 1103.36 112.103 1101.25 Q114.441 1099.15 114.441 1095.54 Q114.441 1091.92 112.103 1089.82 Q109.765 1087.71 105.76 1087.71 Q103.885 1087.71 102.01 1088.13 Q100.159 1088.55 98.2141 1089.42 L98.2141 1072.06 Z" fill="#000000" fill-rule="evenodd" fill-opacity="1" /><path clip-path="url(#clip800)" d="M138.33 1075.14 Q134.719 1075.14 132.89 1078.71 Q131.084 1082.25 131.084 1089.38 Q131.084 1096.49 132.89 1100.05 Q134.719 1103.59 138.33 1103.59 Q141.964 1103.59 143.769 1100.05 Q145.598 1096.49 145.598 1089.38 Q145.598 1082.25 143.769 1078.71 Q141.964 1075.14 138.33 1075.14 M138.33 1071.44 Q144.14 1071.44 147.195 1076.05 Q150.274 1080.63 150.274 1089.38 Q150.274 1098.11 147.195 1102.71 Q144.14 1107.3 138.33 1107.3 Q132.519 1107.3 129.441 1102.71 Q126.385 1098.11 126.385 1089.38 Q126.385 1080.63 129.441 1076.05 Q132.519 1071.44 138.33 1071.44 Z" fill="#000000" fill-rule="evenodd" fill-opacity="1" /><path clip-path="url(#clip800)" d="M168.491 1075.14 Q164.88 1075.14 163.052 1078.71 Q161.246 1082.25 161.246 1089.38 Q161.246 1096.49 163.052 1100.05 Q164.88 1103.59 168.491 1103.59 Q172.126 1103.59 173.931 1100.05 Q175.76 1096.49 175.76 1089.38 Q175.76 1082.25 173.931 1078.71 Q172.126 1075.14 168.491 1075.14 M168.491 1071.44 Q174.302 1071.44 177.357 1076.05 Q180.436 1080.63 180.436 1089.38 Q180.436 1098.11 177.357 1102.71 Q174.302 1107.3 168.491 1107.3 Q162.681 1107.3 159.603 1102.71 Q156.547 1098.11 156.547 1089.38 Q156.547 1080.63 159.603 1076.05 Q162.681 1071.44 168.491 1071.44 Z" fill="#000000" fill-rule="evenodd" fill-opacity="1" /><path clip-path="url(#clip800)" d="M63.9319 899.856 Q60.3208 899.856 58.4921 903.421 Q56.6865 906.963 56.6865 914.092 Q56.6865 921.199 58.4921 924.764 Q60.3208 928.305 63.9319 928.305 Q67.5661 928.305 69.3717 924.764 Q71.2004 921.199 71.2004 914.092 Q71.2004 906.963 69.3717 903.421 Q67.5661 899.856 63.9319 899.856 M63.9319 896.153 Q69.742 896.153 72.7976 900.759 Q75.8763 905.342 75.8763 914.092 Q75.8763 922.819 72.7976 927.426 Q69.742 932.009 63.9319 932.009 Q58.1217 932.009 55.043 927.426 Q51.9875 922.819 51.9875 914.092 Q51.9875 905.342 55.043 900.759 Q58.1217 896.153 63.9319 896.153 Z" fill="#000000" fill-rule="evenodd" fill-opacity="1" /><path clip-path="url(#clip800)" d="M84.0938 925.458 L88.978 925.458 L88.978 931.338 L84.0938 931.338 L84.0938 925.458 Z" fill="#000000" fill-rule="evenodd" fill-opacity="1" /><path clip-path="url(#clip800)" d="M99.2095 896.778 L117.566 896.778 L117.566 900.713 L103.492 900.713 L103.492 909.185 Q104.51 908.838 105.529 908.676 Q106.547 908.49 107.566 908.49 Q113.353 908.49 116.733 911.662 Q120.112 914.833 120.112 920.25 Q120.112 925.828 116.64 928.93 Q113.168 932.009 106.848 932.009 Q104.672 932.009 102.404 931.639 Q100.159 931.268 97.7511 930.527 L97.7511 925.828 Q99.8345 926.963 102.057 927.518 Q104.279 928.074 106.756 928.074 Q110.76 928.074 113.098 925.967 Q115.436 923.861 115.436 920.25 Q115.436 916.639 113.098 914.532 Q110.76 912.426 106.756 912.426 Q104.881 912.426 103.006 912.842 Q101.154 913.259 99.2095 914.139 L99.2095 896.778 Z" fill="#000000" fill-rule="evenodd" fill-opacity="1" /><path clip-path="url(#clip800)" d="M133.353 927.402 L149.672 927.402 L149.672 931.338 L127.728 931.338 L127.728 927.402 Q130.39 924.648 134.973 920.018 Q139.58 915.365 140.76 914.023 Q143.006 911.5 143.885 909.764 Q144.788 908.004 144.788 906.315 Q144.788 903.56 142.843 901.824 Q140.922 900.088 137.82 900.088 Q135.621 900.088 133.168 900.852 Q130.737 901.616 127.959 903.166 L127.959 898.444 Q130.783 897.31 133.237 896.731 Q135.691 896.153 137.728 896.153 Q143.098 896.153 146.293 898.838 Q149.487 901.523 149.487 906.014 Q149.487 908.143 148.677 910.065 Q147.89 911.963 145.783 914.555 Q145.205 915.227 142.103 918.444 Q139.001 921.639 133.353 927.402 Z" fill="#000000" fill-rule="evenodd" fill-opacity="1" /><path clip-path="url(#clip800)" d="M159.533 896.778 L177.89 896.778 L177.89 900.713 L163.816 900.713 L163.816 909.185 Q164.834 908.838 165.853 908.676 Q166.871 908.49 167.89 908.49 Q173.677 908.49 177.056 911.662 Q180.436 914.833 180.436 920.25 Q180.436 925.828 176.964 928.93 Q173.491 932.009 167.172 932.009 Q164.996 932.009 162.728 931.639 Q160.482 931.268 158.075 930.527 L158.075 925.828 Q160.158 926.963 162.38 927.518 Q164.603 928.074 167.079 928.074 Q171.084 928.074 173.422 925.967 Q175.76 923.861 175.76 920.25 Q175.76 916.639 173.422 914.532 Q171.084 912.426 167.079 912.426 Q165.204 912.426 163.329 912.842 Q161.478 913.259 159.533 914.139 L159.533 896.778 Z" fill="#000000" fill-rule="evenodd" fill-opacity="1" /><path clip-path="url(#clip800)" d="M62.9365 724.57 Q59.3254 724.57 57.4967 728.135 Q55.6912 731.676 55.6912 738.806 Q55.6912 745.912 57.4967 749.477 Q59.3254 753.019 62.9365 753.019 Q66.5707 753.019 68.3763 749.477 Q70.205 745.912 70.205 738.806 Q70.205 731.676 68.3763 728.135 Q66.5707 724.57 62.9365 724.57 M62.9365 720.866 Q68.7467 720.866 71.8022 725.473 Q74.8809 730.056 74.8809 738.806 Q74.8809 747.533 71.8022 752.139 Q68.7467 756.723 62.9365 756.723 Q57.1264 756.723 54.0477 752.139 Q50.9921 747.533 50.9921 738.806 Q50.9921 730.056 54.0477 725.473 Q57.1264 720.866 62.9365 720.866 Z" fill="#000000" fill-rule="evenodd" fill-opacity="1" /><path clip-path="url(#clip800)" d="M83.0984 750.172 L87.9827 750.172 L87.9827 756.051 L83.0984 756.051 L83.0984 750.172 Z" fill="#000000" fill-rule="evenodd" fill-opacity="1" /><path clip-path="url(#clip800)" d="M98.2141 721.491 L116.57 721.491 L116.57 725.426 L102.496 725.426 L102.496 733.899 Q103.515 733.551 104.534 733.389 Q105.552 733.204 106.571 733.204 Q112.358 733.204 115.737 736.375 Q119.117 739.547 119.117 744.963 Q119.117 750.542 115.645 753.644 Q112.172 756.723 105.853 756.723 Q103.677 756.723 101.409 756.352 Q99.1632 755.982 96.7558 755.241 L96.7558 750.542 Q98.8391 751.676 101.061 752.232 Q103.284 752.787 105.76 752.787 Q109.765 752.787 112.103 750.681 Q114.441 748.574 114.441 744.963 Q114.441 741.352 112.103 739.246 Q109.765 737.139 105.76 737.139 Q103.885 737.139 102.01 737.556 Q100.159 737.973 98.2141 738.852 L98.2141 721.491 Z" fill="#000000" fill-rule="evenodd" fill-opacity="1" /><path clip-path="url(#clip800)" d="M128.376 721.491 L146.732 721.491 L146.732 725.426 L132.658 725.426 L132.658 733.899 Q133.677 733.551 134.695 733.389 Q135.714 733.204 136.732 733.204 Q142.519 733.204 145.899 736.375 Q149.279 739.547 149.279 744.963 Q149.279 750.542 145.806 753.644 Q142.334 756.723 136.015 756.723 Q133.839 756.723 131.57 756.352 Q129.325 755.982 126.918 755.241 L126.918 750.542 Q129.001 751.676 131.223 752.232 Q133.445 752.787 135.922 752.787 Q139.927 752.787 142.265 750.681 Q144.603 748.574 144.603 744.963 Q144.603 741.352 142.265 739.246 Q139.927 737.139 135.922 737.139 Q134.047 737.139 132.172 737.556 Q130.32 737.973 128.376 738.852 L128.376 721.491 Z" fill="#000000" fill-rule="evenodd" fill-opacity="1" /><path clip-path="url(#clip800)" d="M168.491 724.57 Q164.88 724.57 163.052 728.135 Q161.246 731.676 161.246 738.806 Q161.246 745.912 163.052 749.477 Q164.88 753.019 168.491 753.019 Q172.126 753.019 173.931 749.477 Q175.76 745.912 175.76 738.806 Q175.76 731.676 173.931 728.135 Q172.126 724.57 168.491 724.57 M168.491 720.866 Q174.302 720.866 177.357 725.473 Q180.436 730.056 180.436 738.806 Q180.436 747.533 177.357 752.139 Q174.302 756.723 168.491 756.723 Q162.681 756.723 159.603 752.139 Q156.547 747.533 156.547 738.806 Q156.547 730.056 159.603 725.473 Q162.681 720.866 168.491 720.866 Z" fill="#000000" fill-rule="evenodd" fill-opacity="1" /><path clip-path="url(#clip800)" d="M63.9319 549.284 Q60.3208 549.284 58.4921 552.848 Q56.6865 556.39 56.6865 563.52 Q56.6865 570.626 58.4921 574.191 Q60.3208 577.733 63.9319 577.733 Q67.5661 577.733 69.3717 574.191 Q71.2004 570.626 71.2004 563.52 Q71.2004 556.39 69.3717 552.848 Q67.5661 549.284 63.9319 549.284 M63.9319 545.58 Q69.742 545.58 72.7976 550.186 Q75.8763 554.77 75.8763 563.52 Q75.8763 572.246 72.7976 576.853 Q69.742 581.436 63.9319 581.436 Q58.1217 581.436 55.043 576.853 Q51.9875 572.246 51.9875 563.52 Q51.9875 554.77 55.043 550.186 Q58.1217 545.58 63.9319 545.58 Z" fill="#000000" fill-rule="evenodd" fill-opacity="1" /><path clip-path="url(#clip800)" d="M84.0938 574.885 L88.978 574.885 L88.978 580.765 L84.0938 580.765 L84.0938 574.885 Z" fill="#000000" fill-rule="evenodd" fill-opacity="1" /><path clip-path="url(#clip800)" d="M99.2095 546.205 L117.566 546.205 L117.566 550.14 L103.492 550.14 L103.492 558.612 Q104.51 558.265 105.529 558.103 Q106.547 557.918 107.566 557.918 Q113.353 557.918 116.733 561.089 Q120.112 564.26 120.112 569.677 Q120.112 575.256 116.64 578.358 Q113.168 581.436 106.848 581.436 Q104.672 581.436 102.404 581.066 Q100.159 580.695 97.7511 579.955 L97.7511 575.256 Q99.8345 576.39 102.057 576.946 Q104.279 577.501 106.756 577.501 Q110.76 577.501 113.098 575.395 Q115.436 573.288 115.436 569.677 Q115.436 566.066 113.098 563.959 Q110.76 561.853 106.756 561.853 Q104.881 561.853 103.006 562.27 Q101.154 562.686 99.2095 563.566 L99.2095 546.205 Z" fill="#000000" fill-rule="evenodd" fill-opacity="1" /><path clip-path="url(#clip800)" d="M128.144 546.205 L150.367 546.205 L150.367 548.196 L137.82 580.765 L132.936 580.765 L144.742 550.14 L128.144 550.14 L128.144 546.205 Z" fill="#000000" fill-rule="evenodd" fill-opacity="1" /><path clip-path="url(#clip800)" d="M159.533 546.205 L177.89 546.205 L177.89 550.14 L163.816 550.14 L163.816 558.612 Q164.834 558.265 165.853 558.103 Q166.871 557.918 167.89 557.918 Q173.677 557.918 177.056 561.089 Q180.436 564.26 180.436 569.677 Q180.436 575.256 176.964 578.358 Q173.491 581.436 167.172 581.436 Q164.996 581.436 162.728 581.066 Q160.482 580.695 158.075 579.955 L158.075 575.256 Q160.158 576.39 162.38 576.946 Q164.603 577.501 167.079 577.501 Q171.084 577.501 173.422 575.395 Q175.76 573.288 175.76 569.677 Q175.76 566.066 173.422 563.959 Q171.084 561.853 167.079 561.853 Q165.204 561.853 163.329 562.27 Q161.478 562.686 159.533 563.566 L159.533 546.205 Z" fill="#000000" fill-rule="evenodd" fill-opacity="1" /><path clip-path="url(#clip800)" d="M62.9365 373.997 Q59.3254 373.997 57.4967 377.562 Q55.6912 381.104 55.6912 388.233 Q55.6912 395.34 57.4967 398.905 Q59.3254 402.446 62.9365 402.446 Q66.5707 402.446 68.3763 398.905 Q70.205 395.34 70.205 388.233 Q70.205 381.104 68.3763 377.562 Q66.5707 373.997 62.9365 373.997 M62.9365 370.294 Q68.7467 370.294 71.8022 374.9 Q74.8809 379.483 74.8809 388.233 Q74.8809 396.96 71.8022 401.567 Q68.7467 406.15 62.9365 406.15 Q57.1264 406.15 54.0477 401.567 Q50.9921 396.96 50.9921 388.233 Q50.9921 379.483 54.0477 374.9 Q57.1264 370.294 62.9365 370.294 Z" fill="#000000" fill-rule="evenodd" fill-opacity="1" /><path clip-path="url(#clip800)" d="M83.0984 399.599 L87.9827 399.599 L87.9827 405.479 L83.0984 405.479 L83.0984 399.599 Z" fill="#000000" fill-rule="evenodd" fill-opacity="1" /><path clip-path="url(#clip800)" d="M108.746 386.335 Q105.598 386.335 103.746 388.488 Q101.918 390.641 101.918 394.391 Q101.918 398.118 103.746 400.293 Q105.598 402.446 108.746 402.446 Q111.895 402.446 113.723 400.293 Q115.575 398.118 115.575 394.391 Q115.575 390.641 113.723 388.488 Q111.895 386.335 108.746 386.335 M118.029 371.683 L118.029 375.942 Q116.27 375.108 114.464 374.669 Q112.682 374.229 110.922 374.229 Q106.293 374.229 103.839 377.354 Q101.409 380.479 101.061 386.798 Q102.427 384.784 104.487 383.719 Q106.547 382.632 109.024 382.632 Q114.233 382.632 117.242 385.803 Q120.274 388.951 120.274 394.391 Q120.274 399.715 117.126 402.932 Q113.978 406.15 108.746 406.15 Q102.751 406.15 99.5798 401.567 Q96.4085 396.96 96.4085 388.233 Q96.4085 380.039 100.297 375.178 Q104.186 370.294 110.737 370.294 Q112.496 370.294 114.279 370.641 Q116.084 370.988 118.029 371.683 Z" fill="#000000" fill-rule="evenodd" fill-opacity="1" /><path clip-path="url(#clip800)" d="M138.33 373.997 Q134.719 373.997 132.89 377.562 Q131.084 381.104 131.084 388.233 Q131.084 395.34 132.89 398.905 Q134.719 402.446 138.33 402.446 Q141.964 402.446 143.769 398.905 Q145.598 395.34 145.598 388.233 Q145.598 381.104 143.769 377.562 Q141.964 373.997 138.33 373.997 M138.33 370.294 Q144.14 370.294 147.195 374.9 Q150.274 379.483 150.274 388.233 Q150.274 396.96 147.195 401.567 Q144.14 406.15 138.33 406.15 Q132.519 406.15 129.441 401.567 Q126.385 396.96 126.385 388.233 Q126.385 379.483 129.441 374.9 Q132.519 370.294 138.33 370.294 Z" fill="#000000" fill-rule="evenodd" fill-opacity="1" /><path clip-path="url(#clip800)" d="M168.491 373.997 Q164.88 373.997 163.052 377.562 Q161.246 381.104 161.246 388.233 Q161.246 395.34 163.052 398.905 Q164.88 402.446 168.491 402.446 Q172.126 402.446 173.931 398.905 Q175.76 395.34 175.76 388.233 Q175.76 381.104 173.931 377.562 Q172.126 373.997 168.491 373.997 M168.491 370.294 Q174.302 370.294 177.357 374.9 Q180.436 379.483 180.436 388.233 Q180.436 396.96 177.357 401.567 Q174.302 406.15 168.491 406.15 Q162.681 406.15 159.603 401.567 Q156.547 396.96 156.547 388.233 Q156.547 379.483 159.603 374.9 Q162.681 370.294 168.491 370.294 Z" fill="#000000" fill-rule="evenodd" fill-opacity="1" /><path clip-path="url(#clip800)" d="M63.9319 198.711 Q60.3208 198.711 58.4921 202.276 Q56.6865 205.817 56.6865 212.947 Q56.6865 220.053 58.4921 223.618 Q60.3208 227.16 63.9319 227.16 Q67.5661 227.16 69.3717 223.618 Q71.2004 220.053 71.2004 212.947 Q71.2004 205.817 69.3717 202.276 Q67.5661 198.711 63.9319 198.711 M63.9319 195.007 Q69.742 195.007 72.7976 199.614 Q75.8763 204.197 75.8763 212.947 Q75.8763 221.674 72.7976 226.28 Q69.742 230.864 63.9319 230.864 Q58.1217 230.864 55.043 226.28 Q51.9875 221.674 51.9875 212.947 Q51.9875 204.197 55.043 199.614 Q58.1217 195.007 63.9319 195.007 Z" fill="#000000" fill-rule="evenodd" fill-opacity="1" /><path clip-path="url(#clip800)" d="M84.0938 224.313 L88.978 224.313 L88.978 230.192 L84.0938 230.192 L84.0938 224.313 Z" fill="#000000" fill-rule="evenodd" fill-opacity="1" /><path clip-path="url(#clip800)" d="M109.742 211.049 Q106.594 211.049 104.742 213.202 Q102.913 215.354 102.913 219.104 Q102.913 222.831 104.742 225.007 Q106.594 227.16 109.742 227.16 Q112.89 227.16 114.719 225.007 Q116.57 222.831 116.57 219.104 Q116.57 215.354 114.719 213.202 Q112.89 211.049 109.742 211.049 M119.024 196.396 L119.024 200.655 Q117.265 199.822 115.459 199.382 Q113.677 198.942 111.918 198.942 Q107.288 198.942 104.834 202.067 Q102.404 205.192 102.057 211.512 Q103.422 209.498 105.483 208.433 Q107.543 207.345 110.02 207.345 Q115.228 207.345 118.237 210.516 Q121.27 213.665 121.27 219.104 Q121.27 224.428 118.121 227.646 Q114.973 230.864 109.742 230.864 Q103.746 230.864 100.575 226.28 Q97.4039 221.674 97.4039 212.947 Q97.4039 204.753 101.293 199.892 Q105.182 195.007 111.733 195.007 Q113.492 195.007 115.274 195.355 Q117.08 195.702 119.024 196.396 Z" fill="#000000" fill-rule="evenodd" fill-opacity="1" /><path clip-path="url(#clip800)" d="M133.353 226.257 L149.672 226.257 L149.672 230.192 L127.728 230.192 L127.728 226.257 Q130.39 223.503 134.973 218.873 Q139.58 214.22 140.76 212.878 Q143.006 210.354 143.885 208.618 Q144.788 206.859 144.788 205.169 Q144.788 202.415 142.843 200.679 Q140.922 198.942 137.82 198.942 Q135.621 198.942 133.168 199.706 Q130.737 200.47 127.959 202.021 L127.959 197.299 Q130.783 196.165 133.237 195.586 Q135.691 195.007 137.728 195.007 Q143.098 195.007 146.293 197.692 Q149.487 200.378 149.487 204.868 Q149.487 206.998 148.677 208.919 Q147.89 210.817 145.783 213.41 Q145.205 214.081 142.103 217.299 Q139.001 220.493 133.353 226.257 Z" fill="#000000" fill-rule="evenodd" fill-opacity="1" /><path clip-path="url(#clip800)" d="M159.533 195.632 L177.89 195.632 L177.89 199.567 L163.816 199.567 L163.816 208.04 Q164.834 207.692 165.853 207.53 Q166.871 207.345 167.89 207.345 Q173.677 207.345 177.056 210.516 Q180.436 213.688 180.436 219.104 Q180.436 224.683 176.964 227.785 Q173.491 230.864 167.172 230.864 Q164.996 230.864 162.728 230.493 Q160.482 230.123 158.075 229.382 L158.075 224.683 Q160.158 225.817 162.38 226.373 Q164.603 226.928 167.079 226.928 Q171.084 226.928 173.422 224.822 Q175.76 222.715 175.76 219.104 Q175.76 215.493 173.422 213.387 Q171.084 211.28 167.079 211.28 Q165.204 211.28 163.329 211.697 Q161.478 212.114 159.533 212.993 L159.533 195.632 Z" fill="#000000" fill-rule="evenodd" fill-opacity="1" /><polyline clip-path="url(#clip803)" style="stroke:#009af9; stroke-linecap:round; stroke-linejoin:round; stroke-width:4; stroke-opacity:1; fill:none" points="
  276.898,1384.24 780.747,1127.38 1284.6,682.554 1788.44,317.104 2292.29,86.1857 
  "/>
<path clip-path="url(#clip800)" d="
M287.647 196.789 L853.499 196.789 L853.499 93.1086 L287.647 93.1086  Z
  " fill="#ffffff" fill-rule="evenodd" fill-opacity="1"/>
<polyline clip-path="url(#clip800)" style="stroke:#000000; stroke-linecap:round; stroke-linejoin:round; stroke-width:4; stroke-opacity:1; fill:none" points="
  287.647,196.789 853.499,196.789 853.499,93.1086 287.647,93.1086 287.647,196.789 
  "/>
<polyline clip-path="url(#clip800)" style="stroke:#009af9; stroke-linecap:round; stroke-linejoin:round; stroke-width:4; stroke-opacity:1; fill:none" points="
  311.383,144.949 453.805,144.949 
  "/>
<path clip-path="url(#clip800)" d="M503.097 157.298 L503.097 148.016 L495.458 148.016 L495.458 144.173 L507.727 144.173 L507.727 159.011 Q505.018 160.932 501.754 161.928 Q498.491 162.9 494.787 162.9 Q486.685 162.9 482.102 158.178 Q477.542 153.432 477.542 144.983 Q477.542 136.511 482.102 131.789 Q486.685 127.044 494.787 127.044 Q498.167 127.044 501.199 127.877 Q504.254 128.71 506.824 130.331 L506.824 135.307 Q504.231 133.108 501.315 131.997 Q498.398 130.886 495.18 130.886 Q488.838 130.886 485.643 134.428 Q482.472 137.969 482.472 144.983 Q482.472 151.974 485.643 155.516 Q488.838 159.057 495.18 159.057 Q497.657 159.057 499.602 158.641 Q501.546 158.201 503.097 157.298 Z" fill="#000000" fill-rule="evenodd" fill-opacity="1" /><path clip-path="url(#clip800)" d="M516.083 136.303 L520.342 136.303 L520.342 162.229 L516.083 162.229 L516.083 136.303 M516.083 126.21 L520.342 126.21 L520.342 131.604 L516.083 131.604 L516.083 126.21 Z" fill="#000000" fill-rule="evenodd" fill-opacity="1" /><path clip-path="url(#clip800)" d="M550.805 146.581 L550.805 162.229 L546.546 162.229 L546.546 146.719 Q546.546 143.039 545.111 141.21 Q543.676 139.382 540.805 139.382 Q537.356 139.382 535.365 141.581 Q533.375 143.78 533.375 147.576 L533.375 162.229 L529.092 162.229 L529.092 136.303 L533.375 136.303 L533.375 140.331 Q534.902 137.993 536.963 136.835 Q539.046 135.678 541.754 135.678 Q546.222 135.678 548.514 138.456 Q550.805 141.21 550.805 146.581 Z" fill="#000000" fill-rule="evenodd" fill-opacity="1" /><path clip-path="url(#clip800)" d="M559.3 136.303 L563.56 136.303 L563.56 162.229 L559.3 162.229 L559.3 136.303 M559.3 126.21 L563.56 126.21 L563.56 131.604 L559.3 131.604 L559.3 126.21 Z" fill="#000000" fill-rule="evenodd" fill-opacity="1" /><path clip-path="url(#clip800)" d="M606.198 137.298 L606.198 141.28 Q604.393 140.284 602.564 139.798 Q600.759 139.289 598.907 139.289 Q594.763 139.289 592.472 141.928 Q590.18 144.544 590.18 149.289 Q590.18 154.034 592.472 156.673 Q594.763 159.289 598.907 159.289 Q600.759 159.289 602.564 158.803 Q604.393 158.293 606.198 157.298 L606.198 161.233 Q604.416 162.067 602.495 162.483 Q600.597 162.9 598.444 162.9 Q592.587 162.9 589.138 159.219 Q585.689 155.539 585.689 149.289 Q585.689 142.946 589.161 139.312 Q592.657 135.678 598.722 135.678 Q600.689 135.678 602.564 136.095 Q604.439 136.488 606.198 137.298 Z" fill="#000000" fill-rule="evenodd" fill-opacity="1" /><path clip-path="url(#clip800)" d="M623.652 139.289 Q620.226 139.289 618.235 141.974 Q616.245 144.636 616.245 149.289 Q616.245 153.942 618.212 156.627 Q620.203 159.289 623.652 159.289 Q627.055 159.289 629.045 156.604 Q631.036 153.918 631.036 149.289 Q631.036 144.682 629.045 141.997 Q627.055 139.289 623.652 139.289 M623.652 135.678 Q629.208 135.678 632.379 139.289 Q635.55 142.9 635.55 149.289 Q635.55 155.655 632.379 159.289 Q629.208 162.9 623.652 162.9 Q618.073 162.9 614.902 159.289 Q611.754 155.655 611.754 149.289 Q611.754 142.9 614.902 139.289 Q618.073 135.678 623.652 135.678 Z" fill="#000000" fill-rule="evenodd" fill-opacity="1" /><path clip-path="url(#clip800)" d="M664.786 148.201 L664.786 150.284 L645.203 150.284 Q645.481 154.682 647.842 156.997 Q650.226 159.289 654.462 159.289 Q656.916 159.289 659.207 158.687 Q661.522 158.085 663.791 156.881 L663.791 160.909 Q661.499 161.881 659.092 162.391 Q656.684 162.9 654.207 162.9 Q648.004 162.9 644.369 159.289 Q640.758 155.678 640.758 149.52 Q640.758 143.155 644.184 139.428 Q647.633 135.678 653.467 135.678 Q658.698 135.678 661.73 139.057 Q664.786 142.414 664.786 148.201 M660.527 146.951 Q660.48 143.456 658.559 141.372 Q656.661 139.289 653.513 139.289 Q649.948 139.289 647.795 141.303 Q645.666 143.317 645.342 146.974 L660.527 146.951 Z" fill="#000000" fill-rule="evenodd" fill-opacity="1" /><path clip-path="url(#clip800)" d="M684.902 126.21 L684.902 129.752 L680.828 129.752 Q678.536 129.752 677.633 130.678 Q676.754 131.604 676.754 134.011 L676.754 136.303 L683.767 136.303 L683.767 139.613 L676.754 139.613 L676.754 162.229 L672.471 162.229 L672.471 139.613 L668.397 139.613 L668.397 136.303 L672.471 136.303 L672.471 134.497 Q672.471 130.169 674.485 128.201 Q676.499 126.21 680.874 126.21 L684.902 126.21 Z" fill="#000000" fill-rule="evenodd" fill-opacity="1" /><path clip-path="url(#clip800)" d="M701.591 126.21 L701.591 129.752 L697.517 129.752 Q695.226 129.752 694.323 130.678 Q693.443 131.604 693.443 134.011 L693.443 136.303 L700.457 136.303 L700.457 139.613 L693.443 139.613 L693.443 162.229 L689.161 162.229 L689.161 139.613 L685.087 139.613 L685.087 136.303 L689.161 136.303 L689.161 134.497 Q689.161 130.169 691.175 128.201 Q693.189 126.21 697.564 126.21 L701.591 126.21 Z" fill="#000000" fill-rule="evenodd" fill-opacity="1" /><path clip-path="url(#clip800)" d="M705.156 136.303 L709.415 136.303 L709.415 162.229 L705.156 162.229 L705.156 136.303 M705.156 126.21 L709.415 126.21 L709.415 131.604 L705.156 131.604 L705.156 126.21 Z" fill="#000000" fill-rule="evenodd" fill-opacity="1" /><path clip-path="url(#clip800)" d="M736.985 137.298 L736.985 141.28 Q735.179 140.284 733.35 139.798 Q731.545 139.289 729.693 139.289 Q725.55 139.289 723.258 141.928 Q720.966 144.544 720.966 149.289 Q720.966 154.034 723.258 156.673 Q725.55 159.289 729.693 159.289 Q731.545 159.289 733.35 158.803 Q735.179 158.293 736.985 157.298 L736.985 161.233 Q735.202 162.067 733.281 162.483 Q731.383 162.9 729.23 162.9 Q723.374 162.9 719.925 159.219 Q716.476 155.539 716.476 149.289 Q716.476 142.946 719.948 139.312 Q723.443 135.678 729.508 135.678 Q731.475 135.678 733.35 136.095 Q735.225 136.488 736.985 137.298 Z" fill="#000000" fill-rule="evenodd" fill-opacity="1" /><path clip-path="url(#clip800)" d="M744.392 136.303 L748.651 136.303 L748.651 162.229 L744.392 162.229 L744.392 136.303 M744.392 126.21 L748.651 126.21 L748.651 131.604 L744.392 131.604 L744.392 126.21 Z" fill="#000000" fill-rule="evenodd" fill-opacity="1" /><path clip-path="url(#clip800)" d="M779.739 148.201 L779.739 150.284 L760.156 150.284 Q760.434 154.682 762.795 156.997 Q765.179 159.289 769.415 159.289 Q771.869 159.289 774.16 158.687 Q776.475 158.085 778.744 156.881 L778.744 160.909 Q776.452 161.881 774.045 162.391 Q771.637 162.9 769.16 162.9 Q762.957 162.9 759.323 159.289 Q755.711 155.678 755.711 149.52 Q755.711 143.155 759.137 139.428 Q762.586 135.678 768.42 135.678 Q773.651 135.678 776.684 139.057 Q779.739 142.414 779.739 148.201 M775.48 146.951 Q775.434 143.456 773.512 141.372 Q771.614 139.289 768.466 139.289 Q764.901 139.289 762.748 141.303 Q760.619 143.317 760.295 146.974 L775.48 146.951 Z" fill="#000000" fill-rule="evenodd" fill-opacity="1" /><path clip-path="url(#clip800)" d="M808.281 146.581 L808.281 162.229 L804.021 162.229 L804.021 146.719 Q804.021 143.039 802.586 141.21 Q801.151 139.382 798.281 139.382 Q794.832 139.382 792.841 141.581 Q790.85 143.78 790.85 147.576 L790.85 162.229 L786.568 162.229 L786.568 136.303 L790.85 136.303 L790.85 140.331 Q792.378 137.993 794.438 136.835 Q796.521 135.678 799.23 135.678 Q803.697 135.678 805.989 138.456 Q808.281 141.21 808.281 146.581 Z" fill="#000000" fill-rule="evenodd" fill-opacity="1" /><path clip-path="url(#clip800)" d="M820.989 128.942 L820.989 136.303 L829.762 136.303 L829.762 139.613 L820.989 139.613 L820.989 153.687 Q820.989 156.858 821.845 157.761 Q822.725 158.664 825.387 158.664 L829.762 158.664 L829.762 162.229 L825.387 162.229 Q820.456 162.229 818.581 160.4 Q816.707 158.548 816.707 153.687 L816.707 139.613 L813.582 139.613 L813.582 136.303 L816.707 136.303 L816.707 128.942 L820.989 128.942 Z" fill="#000000" fill-rule="evenodd" fill-opacity="1" /></svg>
