<?xml version="1.0" encoding="utf-8"?>
<svg xmlns="http://www.w3.org/2000/svg" xmlns:xlink="http://www.w3.org/1999/xlink" width="600" height="400" viewBox="0 0 2400 1600">
<defs>
  <clipPath id="clip400">
    <rect x="0" y="0" width="2400" height="1600"/>
  </clipPath>
</defs>
<path clip-path="url(#clip400)" d="
M0 1600 L2400 1600 L2400 0 L0 0  Z
  " fill="#ffffff" fill-rule="evenodd" fill-opacity="1"/>
<defs>
  <clipPath id="clip401">
    <rect x="480" y="0" width="1681" height="1600"/>
  </clipPath>
</defs>
<defs>
  <clipPath id="clip402">
    <rect x="249" y="47" width="2104" height="1440"/>
  </clipPath>
</defs>
<path clip-path="url(#clip400)" d="
M156.598 1423.18 L2352.76 1423.18 L2352.76 47.2441 L156.598 47.2441  Z
  " fill="#ffffff" fill-rule="evenodd" fill-opacity="1"/>
<defs>
  <clipPath id="clip403">
    <rect x="156" y="47" width="2197" height="1377"/>
  </clipPath>
</defs>
<polyline clip-path="url(#clip403)" style="stroke:#000000; stroke-linecap:round; stroke-linejoin:round; stroke-width:2; stroke-opacity:0.1; fill:none" points="
  218.754,1423.18 218.754,47.2441 
  "/>
<polyline clip-path="url(#clip403)" style="stroke:#000000; stroke-linecap:round; stroke-linejoin:round; stroke-width:2; stroke-opacity:0.1; fill:none" points="
  794.267,1423.18 794.267,47.2441 
  "/>
<polyline clip-path="url(#clip403)" style="stroke:#000000; stroke-linecap:round; stroke-linejoin:round; stroke-width:2; stroke-opacity:0.1; fill:none" points="
  1369.78,1423.18 1369.78,47.2441 
  "/>
<polyline clip-path="url(#clip403)" style="stroke:#000000; stroke-linecap:round; stroke-linejoin:round; stroke-width:2; stroke-opacity:0.1; fill:none" points="
  1945.29,1423.18 1945.29,47.2441 
  "/>
<polyline clip-path="url(#clip400)" style="stroke:#000000; stroke-linecap:round; stroke-linejoin:round; stroke-width:4; stroke-opacity:1; fill:none" points="
  156.598,1423.18 2352.76,1423.18 
  "/>
<polyline clip-path="url(#clip400)" style="stroke:#000000; stroke-linecap:round; stroke-linejoin:round; stroke-width:4; stroke-opacity:1; fill:none" points="
  218.754,1423.18 218.754,1404.28 
  "/>
<polyline clip-path="url(#clip400)" style="stroke:#000000; stroke-linecap:round; stroke-linejoin:round; stroke-width:4; stroke-opacity:1; fill:none" points="
  794.267,1423.18 794.267,1404.28 
  "/>
<polyline clip-path="url(#clip400)" style="stroke:#000000; stroke-linecap:round; stroke-linejoin:round; stroke-width:4; stroke-opacity:1; fill:none" points="
  1369.78,1423.18 1369.78,1404.28 
  "/>
<polyline clip-path="url(#clip400)" style="stroke:#000000; stroke-linecap:round; stroke-linejoin:round; stroke-width:4; stroke-opacity:1; fill:none" points="
  1945.29,1423.18 1945.29,1404.28 
  "/>
<path clip-path="url(#clip400)" d="M181.555 1454.1 Q177.944 1454.1 176.115 1457.66 Q174.309 1461.2 174.309 1468.33 Q174.309 1475.44 176.115 1479.01 Q177.944 1482.55 181.555 1482.55 Q185.189 1482.55 186.995 1479.01 Q188.823 1475.44 188.823 1468.33 Q188.823 1461.2 186.995 1457.66 Q185.189 1454.1 181.555 1454.1 M181.555 1450.39 Q187.365 1450.39 190.42 1455 Q193.499 1459.58 193.499 1468.33 Q193.499 1477.06 190.42 1481.67 Q187.365 1486.25 181.555 1486.25 Q175.745 1486.25 172.666 1481.67 Q169.61 1477.06 169.61 1468.33 Q169.61 1459.58 172.666 1455 Q175.745 1450.39 181.555 1450.39 Z" fill="#000000" fill-rule="evenodd" fill-opacity="1" /><path clip-path="url(#clip400)" d="M201.717 1479.7 L206.601 1479.7 L206.601 1485.58 L201.717 1485.58 L201.717 1479.7 Z" fill="#000000" fill-rule="evenodd" fill-opacity="1" /><path clip-path="url(#clip400)" d="M230.953 1466.95 Q234.309 1467.66 236.184 1469.93 Q238.082 1472.2 238.082 1475.53 Q238.082 1480.65 234.564 1483.45 Q231.045 1486.25 224.564 1486.25 Q222.388 1486.25 220.073 1485.81 Q217.781 1485.39 215.328 1484.54 L215.328 1480.02 Q217.272 1481.16 219.587 1481.74 Q221.902 1482.32 224.425 1482.32 Q228.823 1482.32 231.115 1480.58 Q233.429 1478.84 233.429 1475.53 Q233.429 1472.48 231.277 1470.77 Q229.147 1469.03 225.328 1469.03 L221.3 1469.03 L221.3 1465.19 L225.513 1465.19 Q228.962 1465.19 230.791 1463.82 Q232.619 1462.43 232.619 1459.84 Q232.619 1457.18 230.721 1455.77 Q228.846 1454.33 225.328 1454.33 Q223.406 1454.33 221.207 1454.75 Q219.008 1455.16 216.369 1456.04 L216.369 1451.88 Q219.031 1451.14 221.346 1450.77 Q223.684 1450.39 225.744 1450.39 Q231.068 1450.39 234.17 1452.83 Q237.272 1455.23 237.272 1459.35 Q237.272 1462.22 235.629 1464.21 Q233.985 1466.18 230.953 1466.95 Z" fill="#000000" fill-rule="evenodd" fill-opacity="1" /><path clip-path="url(#clip400)" d="M246.994 1451.02 L265.351 1451.02 L265.351 1454.96 L251.277 1454.96 L251.277 1463.43 Q252.295 1463.08 253.314 1462.92 Q254.332 1462.73 255.351 1462.73 Q261.138 1462.73 264.517 1465.9 Q267.897 1469.08 267.897 1474.49 Q267.897 1480.07 264.425 1483.17 Q260.952 1486.25 254.633 1486.25 Q252.457 1486.25 250.189 1485.88 Q247.943 1485.51 245.536 1484.77 L245.536 1480.07 Q247.619 1481.2 249.841 1481.76 Q252.064 1482.32 254.54 1482.32 Q258.545 1482.32 260.883 1480.21 Q263.221 1478.1 263.221 1474.49 Q263.221 1470.88 260.883 1468.77 Q258.545 1466.67 254.54 1466.67 Q252.665 1466.67 250.791 1467.08 Q248.939 1467.5 246.994 1468.38 L246.994 1451.02 Z" fill="#000000" fill-rule="evenodd" fill-opacity="1" /><path clip-path="url(#clip400)" d="M756.57 1454.1 Q752.959 1454.1 751.13 1457.66 Q749.325 1461.2 749.325 1468.33 Q749.325 1475.44 751.13 1479.01 Q752.959 1482.55 756.57 1482.55 Q760.204 1482.55 762.01 1479.01 Q763.839 1475.44 763.839 1468.33 Q763.839 1461.2 762.01 1457.66 Q760.204 1454.1 756.57 1454.1 M756.57 1450.39 Q762.38 1450.39 765.436 1455 Q768.514 1459.58 768.514 1468.33 Q768.514 1477.06 765.436 1481.67 Q762.38 1486.25 756.57 1486.25 Q750.76 1486.25 747.681 1481.67 Q744.626 1477.06 744.626 1468.33 Q744.626 1459.58 747.681 1455 Q750.76 1450.39 756.57 1450.39 Z" fill="#000000" fill-rule="evenodd" fill-opacity="1" /><path clip-path="url(#clip400)" d="M776.732 1479.7 L781.616 1479.7 L781.616 1485.58 L776.732 1485.58 L776.732 1479.7 Z" fill="#000000" fill-rule="evenodd" fill-opacity="1" /><path clip-path="url(#clip400)" d="M804.649 1455.09 L792.843 1473.54 L804.649 1473.54 L804.649 1455.09 M803.422 1451.02 L809.301 1451.02 L809.301 1473.54 L814.232 1473.54 L814.232 1477.43 L809.301 1477.43 L809.301 1485.58 L804.649 1485.58 L804.649 1477.43 L789.047 1477.43 L789.047 1472.92 L803.422 1451.02 Z" fill="#000000" fill-rule="evenodd" fill-opacity="1" /><path clip-path="url(#clip400)" d="M831.963 1454.1 Q828.352 1454.1 826.523 1457.66 Q824.718 1461.2 824.718 1468.33 Q824.718 1475.44 826.523 1479.01 Q828.352 1482.55 831.963 1482.55 Q835.597 1482.55 837.403 1479.01 Q839.232 1475.44 839.232 1468.33 Q839.232 1461.2 837.403 1457.66 Q835.597 1454.1 831.963 1454.1 M831.963 1450.39 Q837.773 1450.39 840.829 1455 Q843.908 1459.58 843.908 1468.33 Q843.908 1477.06 840.829 1481.67 Q837.773 1486.25 831.963 1486.25 Q826.153 1486.25 823.074 1481.67 Q820.019 1477.06 820.019 1468.33 Q820.019 1459.58 823.074 1455 Q826.153 1450.39 831.963 1450.39 Z" fill="#000000" fill-rule="evenodd" fill-opacity="1" /><path clip-path="url(#clip400)" d="M1332.58 1454.1 Q1328.97 1454.1 1327.14 1457.66 Q1325.34 1461.2 1325.34 1468.33 Q1325.34 1475.44 1327.14 1479.01 Q1328.97 1482.55 1332.58 1482.55 Q1336.22 1482.55 1338.02 1479.01 Q1339.85 1475.44 1339.85 1468.33 Q1339.85 1461.2 1338.02 1457.66 Q1336.22 1454.1 1332.58 1454.1 M1332.58 1450.39 Q1338.39 1450.39 1341.45 1455 Q1344.53 1459.58 1344.53 1468.33 Q1344.53 1477.06 1341.45 1481.67 Q1338.39 1486.25 1332.58 1486.25 Q1326.77 1486.25 1323.69 1481.67 Q1320.64 1477.06 1320.64 1468.33 Q1320.64 1459.58 1323.69 1455 Q1326.77 1450.39 1332.58 1450.39 Z" fill="#000000" fill-rule="evenodd" fill-opacity="1" /><path clip-path="url(#clip400)" d="M1352.74 1479.7 L1357.63 1479.7 L1357.63 1485.58 L1352.74 1485.58 L1352.74 1479.7 Z" fill="#000000" fill-rule="evenodd" fill-opacity="1" /><path clip-path="url(#clip400)" d="M1380.66 1455.09 L1368.85 1473.54 L1380.66 1473.54 L1380.66 1455.09 M1379.43 1451.02 L1385.31 1451.02 L1385.31 1473.54 L1390.24 1473.54 L1390.24 1477.43 L1385.31 1477.43 L1385.31 1485.58 L1380.66 1485.58 L1380.66 1477.43 L1365.06 1477.43 L1365.06 1472.92 L1379.43 1451.02 Z" fill="#000000" fill-rule="evenodd" fill-opacity="1" /><path clip-path="url(#clip400)" d="M1398.02 1451.02 L1416.38 1451.02 L1416.38 1454.96 L1402.3 1454.96 L1402.3 1463.43 Q1403.32 1463.08 1404.34 1462.92 Q1405.36 1462.73 1406.38 1462.73 Q1412.16 1462.73 1415.54 1465.9 Q1418.92 1469.08 1418.92 1474.49 Q1418.92 1480.07 1415.45 1483.17 Q1411.98 1486.25 1405.66 1486.25 Q1403.48 1486.25 1401.21 1485.88 Q1398.97 1485.51 1396.56 1484.77 L1396.56 1480.07 Q1398.65 1481.2 1400.87 1481.76 Q1403.09 1482.32 1405.57 1482.32 Q1409.57 1482.32 1411.91 1480.21 Q1414.25 1478.1 1414.25 1474.49 Q1414.25 1470.88 1411.91 1468.77 Q1409.57 1466.67 1405.57 1466.67 Q1403.69 1466.67 1401.82 1467.08 Q1399.96 1467.5 1398.02 1468.38 L1398.02 1451.02 Z" fill="#000000" fill-rule="evenodd" fill-opacity="1" /><path clip-path="url(#clip400)" d="M1907.6 1454.1 Q1903.99 1454.1 1902.16 1457.66 Q1900.35 1461.2 1900.35 1468.33 Q1900.35 1475.44 1902.16 1479.01 Q1903.99 1482.55 1907.6 1482.55 Q1911.23 1482.55 1913.04 1479.01 Q1914.86 1475.44 1914.86 1468.33 Q1914.86 1461.2 1913.04 1457.66 Q1911.23 1454.1 1907.6 1454.1 M1907.6 1450.39 Q1913.41 1450.39 1916.46 1455 Q1919.54 1459.58 1919.54 1468.33 Q1919.54 1477.06 1916.46 1481.67 Q1913.41 1486.25 1907.6 1486.25 Q1901.79 1486.25 1898.71 1481.67 Q1895.65 1477.06 1895.65 1468.33 Q1895.65 1459.58 1898.71 1455 Q1901.79 1450.39 1907.6 1450.39 Z" fill="#000000" fill-rule="evenodd" fill-opacity="1" /><path clip-path="url(#clip400)" d="M1927.76 1479.7 L1932.64 1479.7 L1932.64 1485.58 L1927.76 1485.58 L1927.76 1479.7 Z" fill="#000000" fill-rule="evenodd" fill-opacity="1" /><path clip-path="url(#clip400)" d="M1942.87 1451.02 L1961.23 1451.02 L1961.23 1454.96 L1947.16 1454.96 L1947.16 1463.43 Q1948.17 1463.08 1949.19 1462.92 Q1950.21 1462.73 1951.23 1462.73 Q1957.02 1462.73 1960.4 1465.9 Q1963.78 1469.08 1963.78 1474.49 Q1963.78 1480.07 1960.3 1483.17 Q1956.83 1486.25 1950.51 1486.25 Q1948.34 1486.25 1946.07 1485.88 Q1943.82 1485.51 1941.42 1484.77 L1941.42 1480.07 Q1943.5 1481.2 1945.72 1481.76 Q1947.94 1482.32 1950.42 1482.32 Q1954.42 1482.32 1956.76 1480.21 Q1959.1 1478.1 1959.1 1474.49 Q1959.1 1470.88 1956.76 1468.77 Q1954.42 1466.67 1950.42 1466.67 Q1948.54 1466.67 1946.67 1467.08 Q1944.82 1467.5 1942.87 1468.38 L1942.87 1451.02 Z" fill="#000000" fill-rule="evenodd" fill-opacity="1" /><path clip-path="url(#clip400)" d="M1982.99 1454.1 Q1979.38 1454.1 1977.55 1457.66 Q1975.74 1461.2 1975.74 1468.33 Q1975.74 1475.44 1977.55 1479.01 Q1979.38 1482.55 1982.99 1482.55 Q1986.62 1482.55 1988.43 1479.01 Q1990.26 1475.44 1990.26 1468.33 Q1990.26 1461.2 1988.43 1457.66 Q1986.62 1454.1 1982.99 1454.1 M1982.99 1450.39 Q1988.8 1450.39 1991.85 1455 Q1994.93 1459.58 1994.93 1468.33 Q1994.93 1477.06 1991.85 1481.67 Q1988.8 1486.25 1982.99 1486.25 Q1977.18 1486.25 1974.1 1481.67 Q1971.04 1477.06 1971.04 1468.33 Q1971.04 1459.58 1974.1 1455 Q1977.18 1450.39 1982.99 1450.39 Z" fill="#000000" fill-rule="evenodd" fill-opacity="1" /><path clip-path="url(#clip400)" d="M1255.94 1520.07 Q1255.94 1522.32 1252.72 1522.32 L1245.48 1522.32 Q1247.5 1525.22 1247.5 1529.51 Q1247.5 1533.18 1245.99 1536.62 Q1244.51 1540.04 1242.13 1542.42 Q1239.78 1544.8 1236.81 1546.25 Q1233.85 1547.67 1230.95 1547.67 Q1226.54 1547.67 1223.8 1544.68 Q1221.06 1541.68 1221.06 1537.24 Q1221.06 1534.88 1221.87 1532.28 Q1222.71 1529.67 1224.28 1527.25 Q1225.86 1524.8 1227.92 1522.84 Q1230.02 1520.88 1232.72 1519.68 Q1235.46 1518.49 1238.33 1518.49 L1253.37 1518.49 Q1254.17 1518.49 1254.59 1518.56 Q1255.04 1518.59 1255.49 1518.98 Q1255.94 1519.33 1255.94 1520.07 M1243.29 1528.73 Q1243.29 1527.96 1243.19 1527.28 Q1243.09 1526.58 1242.74 1525.64 Q1242.38 1524.68 1241.77 1524 Q1241.16 1523.29 1239.97 1522.81 Q1238.81 1522.32 1237.23 1522.32 Q1235.01 1522.32 1232.56 1523.55 Q1230.11 1524.77 1228.25 1527.8 Q1226.7 1530.38 1225.93 1533.73 Q1225.15 1537.07 1225.15 1539.07 Q1225.15 1542.49 1226.8 1544.35 Q1228.47 1546.19 1231.02 1546.19 Q1233.11 1546.19 1235.49 1544.77 Q1237.88 1543.32 1239.71 1540.59 Q1241.32 1538.2 1242.29 1534.72 Q1243.29 1531.25 1243.29 1528.73 Z" fill="#000000" fill-rule="evenodd" fill-opacity="1" /><path clip-path="url(#clip400)" d="M1281.44 1542.39 Q1281.44 1543.58 1280.65 1544.35 Q1279.88 1545.12 1278.89 1545.12 Q1278.03 1545.12 1277.58 1544.62 Q1277.13 1544.12 1277.13 1543.49 Q1277.13 1542.59 1277.83 1541.85 Q1278.53 1541.1 1279.54 1540.94 Q1278.8 1540.4 1277.6 1540.4 Q1275.64 1540.4 1273.91 1541.91 Q1273.14 1542.61 1272.31 1543.9 Q1271.47 1545.16 1271.31 1545.7 L1269.85 1551.72 Q1269.71 1552.4 1268.88 1555.64 Q1268.07 1558.87 1268 1559 Q1267.77 1559.63 1267.28 1559.97 Q1266.78 1560.31 1266.29 1560.31 Q1265.72 1560.31 1265.34 1559.97 Q1264.96 1559.63 1264.96 1559.05 Q1264.96 1558.96 1265.02 1558.62 Q1265.09 1558.28 1265.2 1557.81 Q1265.32 1557.33 1265.36 1557.06 L1268.05 1546.4 Q1268.54 1544.46 1268.65 1543.85 Q1268.79 1543.22 1268.79 1542.52 Q1268.79 1541.31 1268.41 1540.85 Q1268.02 1540.4 1267.35 1540.4 Q1266.17 1540.4 1265.41 1541.8 Q1264.64 1543.2 1263.99 1545.9 Q1263.78 1546.65 1263.65 1546.81 Q1263.54 1546.96 1263.2 1546.96 Q1262.63 1546.94 1262.63 1546.49 Q1262.63 1546.38 1262.82 1545.66 Q1263 1544.91 1263.33 1543.83 Q1263.69 1542.73 1264.08 1542.03 Q1264.3 1541.55 1264.51 1541.24 Q1264.71 1540.92 1265.11 1540.43 Q1265.52 1539.93 1266.13 1539.66 Q1266.74 1539.39 1267.48 1539.39 Q1269.11 1539.39 1270.25 1540.38 Q1271.43 1541.37 1271.7 1542.93 Q1272.26 1542.12 1272.96 1541.42 Q1273.66 1540.7 1274.94 1540.04 Q1276.23 1539.39 1277.6 1539.39 Q1279.32 1539.39 1280.38 1540.27 Q1281.44 1541.13 1281.44 1542.39 Z" fill="#000000" fill-rule="evenodd" fill-opacity="1" /><polyline clip-path="url(#clip403)" style="stroke:#000000; stroke-linecap:round; stroke-linejoin:round; stroke-width:2; stroke-opacity:0.1; fill:none" points="
  156.598,1416.5 2352.76,1416.5 
  "/>
<polyline clip-path="url(#clip403)" style="stroke:#000000; stroke-linecap:round; stroke-linejoin:round; stroke-width:2; stroke-opacity:0.1; fill:none" points="
  156.598,1164.18 2352.76,1164.18 
  "/>
<polyline clip-path="url(#clip403)" style="stroke:#000000; stroke-linecap:round; stroke-linejoin:round; stroke-width:2; stroke-opacity:0.1; fill:none" points="
  156.598,911.858 2352.76,911.858 
  "/>
<polyline clip-path="url(#clip403)" style="stroke:#000000; stroke-linecap:round; stroke-linejoin:round; stroke-width:2; stroke-opacity:0.1; fill:none" points="
  156.598,659.536 2352.76,659.536 
  "/>
<polyline clip-path="url(#clip403)" style="stroke:#000000; stroke-linecap:round; stroke-linejoin:round; stroke-width:2; stroke-opacity:0.1; fill:none" points="
  156.598,407.213 2352.76,407.213 
  "/>
<polyline clip-path="url(#clip403)" style="stroke:#000000; stroke-linecap:round; stroke-linejoin:round; stroke-width:2; stroke-opacity:0.1; fill:none" points="
  156.598,154.891 2352.76,154.891 
  "/>
<polyline clip-path="url(#clip400)" style="stroke:#000000; stroke-linecap:round; stroke-linejoin:round; stroke-width:4; stroke-opacity:1; fill:none" points="
  156.598,1423.18 156.598,47.2441 
  "/>
<polyline clip-path="url(#clip400)" style="stroke:#000000; stroke-linecap:round; stroke-linejoin:round; stroke-width:4; stroke-opacity:1; fill:none" points="
  156.598,1416.5 175.496,1416.5 
  "/>
<polyline clip-path="url(#clip400)" style="stroke:#000000; stroke-linecap:round; stroke-linejoin:round; stroke-width:4; stroke-opacity:1; fill:none" points="
  156.598,1164.18 175.496,1164.18 
  "/>
<polyline clip-path="url(#clip400)" style="stroke:#000000; stroke-linecap:round; stroke-linejoin:round; stroke-width:4; stroke-opacity:1; fill:none" points="
  156.598,911.858 175.496,911.858 
  "/>
<polyline clip-path="url(#clip400)" style="stroke:#000000; stroke-linecap:round; stroke-linejoin:round; stroke-width:4; stroke-opacity:1; fill:none" points="
  156.598,659.536 175.496,659.536 
  "/>
<polyline clip-path="url(#clip400)" style="stroke:#000000; stroke-linecap:round; stroke-linejoin:round; stroke-width:4; stroke-opacity:1; fill:none" points="
  156.598,407.213 175.496,407.213 
  "/>
<polyline clip-path="url(#clip400)" style="stroke:#000000; stroke-linecap:round; stroke-linejoin:round; stroke-width:4; stroke-opacity:1; fill:none" points="
  156.598,154.891 175.496,154.891 
  "/>
<path clip-path="url(#clip400)" d="M62.9365 1402.3 Q59.3254 1402.3 57.4967 1405.87 Q55.6912 1409.41 55.6912 1416.54 Q55.6912 1423.64 57.4967 1427.21 Q59.3254 1430.75 62.9365 1430.75 Q66.5707 1430.75 68.3763 1427.21 Q70.205 1423.64 70.205 1416.54 Q70.205 1409.41 68.3763 1405.87 Q66.5707 1402.3 62.9365 1402.3 M62.9365 1398.6 Q68.7467 1398.6 71.8022 1403.2 Q74.8809 1407.79 74.8809 1416.54 Q74.8809 1425.26 71.8022 1429.87 Q68.7467 1434.45 62.9365 1434.45 Q57.1264 1434.45 54.0477 1429.87 Q50.9921 1425.26 50.9921 1416.54 Q50.9921 1407.79 54.0477 1403.2 Q57.1264 1398.6 62.9365 1398.6 Z" fill="#000000" fill-rule="evenodd" fill-opacity="1" /><path clip-path="url(#clip400)" d="M83.0984 1427.9 L87.9827 1427.9 L87.9827 1433.78 L83.0984 1433.78 L83.0984 1427.9 Z" fill="#000000" fill-rule="evenodd" fill-opacity="1" /><path clip-path="url(#clip400)" d="M111.015 1403.3 L99.2095 1421.75 L111.015 1421.75 L111.015 1403.3 M109.788 1399.22 L115.668 1399.22 L115.668 1421.75 L120.598 1421.75 L120.598 1425.63 L115.668 1425.63 L115.668 1433.78 L111.015 1433.78 L111.015 1425.63 L95.4132 1425.63 L95.4132 1421.12 L109.788 1399.22 Z" fill="#000000" fill-rule="evenodd" fill-opacity="1" /><path clip-path="url(#clip400)" d="M64.418 1149.98 Q60.8069 1149.98 58.9782 1153.54 Q57.1726 1157.09 57.1726 1164.22 Q57.1726 1171.32 58.9782 1174.89 Q60.8069 1178.43 64.418 1178.43 Q68.0522 1178.43 69.8578 1174.89 Q71.6865 1171.32 71.6865 1164.22 Q71.6865 1157.09 69.8578 1153.54 Q68.0522 1149.98 64.418 1149.98 M64.418 1146.28 Q70.2281 1146.28 73.2837 1150.88 Q76.3624 1155.47 76.3624 1164.22 Q76.3624 1172.94 73.2837 1177.55 Q70.2281 1182.13 64.418 1182.13 Q58.6078 1182.13 55.5291 1177.55 Q52.4736 1172.94 52.4736 1164.22 Q52.4736 1155.47 55.5291 1150.88 Q58.6078 1146.28 64.418 1146.28 Z" fill="#000000" fill-rule="evenodd" fill-opacity="1" /><path clip-path="url(#clip400)" d="M84.5799 1175.58 L89.4641 1175.58 L89.4641 1181.46 L84.5799 1181.46 L84.5799 1175.58 Z" fill="#000000" fill-rule="evenodd" fill-opacity="1" /><path clip-path="url(#clip400)" d="M99.6956 1146.9 L118.052 1146.9 L118.052 1150.84 L103.978 1150.84 L103.978 1159.31 Q104.996 1158.96 106.015 1158.8 Q107.033 1158.61 108.052 1158.61 Q113.839 1158.61 117.219 1161.78 Q120.598 1164.96 120.598 1170.37 Q120.598 1175.95 117.126 1179.05 Q113.654 1182.13 107.334 1182.13 Q105.159 1182.13 102.89 1181.76 Q100.645 1181.39 98.2372 1180.65 L98.2372 1175.95 Q100.321 1177.09 102.543 1177.64 Q104.765 1178.2 107.242 1178.2 Q111.246 1178.2 113.584 1176.09 Q115.922 1173.98 115.922 1170.37 Q115.922 1166.76 113.584 1164.66 Q111.246 1162.55 107.242 1162.55 Q105.367 1162.55 103.492 1162.97 Q101.64 1163.38 99.6956 1164.26 L99.6956 1146.9 Z" fill="#000000" fill-rule="evenodd" fill-opacity="1" /><path clip-path="url(#clip400)" d="M63.2606 897.657 Q59.6495 897.657 57.8208 901.222 Q56.0152 904.763 56.0152 911.893 Q56.0152 918.999 57.8208 922.564 Q59.6495 926.106 63.2606 926.106 Q66.8948 926.106 68.7004 922.564 Q70.5291 918.999 70.5291 911.893 Q70.5291 904.763 68.7004 901.222 Q66.8948 897.657 63.2606 897.657 M63.2606 893.953 Q69.0707 893.953 72.1263 898.56 Q75.205 903.143 75.205 911.893 Q75.205 920.62 72.1263 925.226 Q69.0707 929.809 63.2606 929.809 Q57.4504 929.809 54.3717 925.226 Q51.3162 920.62 51.3162 911.893 Q51.3162 903.143 54.3717 898.56 Q57.4504 893.953 63.2606 893.953 Z" fill="#000000" fill-rule="evenodd" fill-opacity="1" /><path clip-path="url(#clip400)" d="M83.4225 923.258 L88.3067 923.258 L88.3067 929.138 L83.4225 929.138 L83.4225 923.258 Z" fill="#000000" fill-rule="evenodd" fill-opacity="1" /><path clip-path="url(#clip400)" d="M109.071 909.995 Q105.922 909.995 104.071 912.147 Q102.242 914.3 102.242 918.05 Q102.242 921.777 104.071 923.953 Q105.922 926.106 109.071 926.106 Q112.219 926.106 114.047 923.953 Q115.899 921.777 115.899 918.05 Q115.899 914.3 114.047 912.147 Q112.219 909.995 109.071 909.995 M118.353 895.342 L118.353 899.601 Q116.594 898.768 114.788 898.328 Q113.006 897.888 111.246 897.888 Q106.617 897.888 104.163 901.013 Q101.733 904.138 101.385 910.458 Q102.751 908.444 104.811 907.379 Q106.871 906.291 109.348 906.291 Q114.557 906.291 117.566 909.462 Q120.598 912.61 120.598 918.05 Q120.598 923.374 117.45 926.592 Q114.302 929.809 109.071 929.809 Q103.075 929.809 99.9039 925.226 Q96.7326 920.62 96.7326 911.893 Q96.7326 903.698 100.621 898.837 Q104.51 893.953 111.061 893.953 Q112.82 893.953 114.603 894.3 Q116.408 894.648 118.353 895.342 Z" fill="#000000" fill-rule="evenodd" fill-opacity="1" /><path clip-path="url(#clip400)" d="M64.3254 645.334 Q60.7143 645.334 58.8856 648.899 Q57.0801 652.441 57.0801 659.57 Q57.0801 666.677 58.8856 670.242 Q60.7143 673.783 64.3254 673.783 Q67.9596 673.783 69.7652 670.242 Q71.5939 666.677 71.5939 659.57 Q71.5939 652.441 69.7652 648.899 Q67.9596 645.334 64.3254 645.334 M64.3254 641.631 Q70.1355 641.631 73.1911 646.237 Q76.2698 650.82 76.2698 659.57 Q76.2698 668.297 73.1911 672.904 Q70.1355 677.487 64.3254 677.487 Q58.5152 677.487 55.4365 672.904 Q52.381 668.297 52.381 659.57 Q52.381 650.82 55.4365 646.237 Q58.5152 641.631 64.3254 641.631 Z" fill="#000000" fill-rule="evenodd" fill-opacity="1" /><path clip-path="url(#clip400)" d="M84.4873 670.936 L89.3715 670.936 L89.3715 676.816 L84.4873 676.816 L84.4873 670.936 Z" fill="#000000" fill-rule="evenodd" fill-opacity="1" /><path clip-path="url(#clip400)" d="M98.3761 642.256 L120.598 642.256 L120.598 644.246 L108.052 676.816 L103.168 676.816 L114.973 646.191 L98.3761 646.191 L98.3761 642.256 Z" fill="#000000" fill-rule="evenodd" fill-opacity="1" /><path clip-path="url(#clip400)" d="M63.5152 393.012 Q59.9041 393.012 58.0754 396.577 Q56.2699 400.118 56.2699 407.248 Q56.2699 414.354 58.0754 417.919 Q59.9041 421.461 63.5152 421.461 Q67.1494 421.461 68.955 417.919 Q70.7837 414.354 70.7837 407.248 Q70.7837 400.118 68.955 396.577 Q67.1494 393.012 63.5152 393.012 M63.5152 389.308 Q69.3254 389.308 72.3809 393.915 Q75.4596 398.498 75.4596 407.248 Q75.4596 415.975 72.3809 420.581 Q69.3254 425.165 63.5152 425.165 Q57.7051 425.165 54.6264 420.581 Q51.5708 415.975 51.5708 407.248 Q51.5708 398.498 54.6264 393.915 Q57.7051 389.308 63.5152 389.308 Z" fill="#000000" fill-rule="evenodd" fill-opacity="1" /><path clip-path="url(#clip400)" d="M83.6771 418.614 L88.5614 418.614 L88.5614 424.493 L83.6771 424.493 L83.6771 418.614 Z" fill="#000000" fill-rule="evenodd" fill-opacity="1" /><path clip-path="url(#clip400)" d="M108.746 408.081 Q105.413 408.081 103.492 409.864 Q101.594 411.646 101.594 414.771 Q101.594 417.896 103.492 419.678 Q105.413 421.461 108.746 421.461 Q112.08 421.461 114.001 419.678 Q115.922 417.873 115.922 414.771 Q115.922 411.646 114.001 409.864 Q112.103 408.081 108.746 408.081 M104.071 406.091 Q101.061 405.35 99.3715 403.29 Q97.7048 401.23 97.7048 398.267 Q97.7048 394.123 100.645 391.716 Q103.608 389.308 108.746 389.308 Q113.908 389.308 116.848 391.716 Q119.788 394.123 119.788 398.267 Q119.788 401.23 118.098 403.29 Q116.432 405.35 113.445 406.091 Q116.825 406.878 118.7 409.169 Q120.598 411.461 120.598 414.771 Q120.598 419.794 117.52 422.479 Q114.464 425.165 108.746 425.165 Q103.029 425.165 99.9502 422.479 Q96.8947 419.794 96.8947 414.771 Q96.8947 411.461 98.7928 409.169 Q100.691 406.878 104.071 406.091 M102.358 398.706 Q102.358 401.392 104.024 402.896 Q105.714 404.401 108.746 404.401 Q111.756 404.401 113.445 402.896 Q115.158 401.392 115.158 398.706 Q115.158 396.021 113.445 394.517 Q111.756 393.012 108.746 393.012 Q105.714 393.012 104.024 394.517 Q102.358 396.021 102.358 398.706 Z" fill="#000000" fill-rule="evenodd" fill-opacity="1" /><path clip-path="url(#clip400)" d="M63.6078 140.69 Q59.9967 140.69 58.168 144.254 Q56.3625 147.796 56.3625 154.926 Q56.3625 162.032 58.168 165.597 Q59.9967 169.138 63.6078 169.138 Q67.242 169.138 69.0476 165.597 Q70.8763 162.032 70.8763 154.926 Q70.8763 147.796 69.0476 144.254 Q67.242 140.69 63.6078 140.69 M63.6078 136.986 Q69.418 136.986 72.4735 141.592 Q75.5522 146.176 75.5522 154.926 Q75.5522 163.652 72.4735 168.259 Q69.418 172.842 63.6078 172.842 Q57.7976 172.842 54.719 168.259 Q51.6634 163.652 51.6634 154.926 Q51.6634 146.176 54.719 141.592 Q57.7976 136.986 63.6078 136.986 Z" fill="#000000" fill-rule="evenodd" fill-opacity="1" /><path clip-path="url(#clip400)" d="M83.7697 166.291 L88.654 166.291 L88.654 172.171 L83.7697 172.171 L83.7697 166.291 Z" fill="#000000" fill-rule="evenodd" fill-opacity="1" /><path clip-path="url(#clip400)" d="M98.978 171.453 L98.978 167.194 Q100.737 168.027 102.543 168.467 Q104.348 168.907 106.084 168.907 Q110.714 168.907 113.145 165.805 Q115.598 162.68 115.945 156.338 Q114.603 158.328 112.543 159.393 Q110.483 160.458 107.983 160.458 Q102.797 160.458 99.765 157.333 Q96.7558 154.185 96.7558 148.745 Q96.7558 143.421 99.9039 140.203 Q103.052 136.986 108.283 136.986 Q114.279 136.986 117.427 141.592 Q120.598 146.176 120.598 154.926 Q120.598 163.097 116.709 167.981 Q112.844 172.842 106.293 172.842 Q104.534 172.842 102.728 172.495 Q100.922 172.148 98.978 171.453 M108.283 156.801 Q111.432 156.801 113.26 154.648 Q115.112 152.495 115.112 148.745 Q115.112 145.018 113.26 142.865 Q111.432 140.69 108.283 140.69 Q105.135 140.69 103.284 142.865 Q101.455 145.018 101.455 148.745 Q101.455 152.495 103.284 154.648 Q105.135 156.801 108.283 156.801 Z" fill="#000000" fill-rule="evenodd" fill-opacity="1" /><polyline clip-path="url(#clip403)" style="stroke:#009af9; stroke-linecap:round; stroke-linejoin:round; stroke-width:4; stroke-opacity:1; fill:none" points="
  218.754,1384.24 736.715,1178.72 1254.68,946.186 1772.64,654.103 2290.6,86.1857 
  "/>
<path clip-path="url(#clip400)" d="
M229.803 196.789 L801.64 196.789 L801.64 93.1086 L229.803 93.1086  Z
  " fill="#ffffff" fill-rule="evenodd" fill-opacity="1"/>
<polyline clip-path="url(#clip400)" style="stroke:#000000; stroke-linecap:round; stroke-linejoin:round; stroke-width:4; stroke-opacity:1; fill:none" points="
  229.803,196.789 801.64,196.789 801.64,93.1086 229.803,93.1086 229.803,196.789 
  "/>
<polyline clip-path="url(#clip400)" style="stroke:#009af9; stroke-linecap:round; stroke-linejoin:round; stroke-width:4; stroke-opacity:1; fill:none" points="
  254.205,144.949 400.616,144.949 
  "/>
<path clip-path="url(#clip400)" d="M450.573 157.298 L450.573 148.016 L442.934 148.016 L442.934 144.173 L455.203 144.173 L455.203 159.011 Q452.494 160.932 449.23 161.928 Q445.966 162.9 442.263 162.9 Q434.161 162.9 429.578 158.178 Q425.018 153.432 425.018 144.983 Q425.018 136.511 429.578 131.789 Q434.161 127.044 442.263 127.044 Q445.642 127.044 448.675 127.877 Q451.73 128.71 454.3 130.331 L454.3 135.307 Q451.707 133.108 448.791 131.997 Q445.874 130.886 442.656 130.886 Q436.314 130.886 433.119 134.428 Q429.948 137.969 429.948 144.983 Q429.948 151.974 433.119 155.516 Q436.314 159.057 442.656 159.057 Q445.133 159.057 447.078 158.641 Q449.022 158.201 450.573 157.298 Z" fill="#000000" fill-rule="evenodd" fill-opacity="1" /><path clip-path="url(#clip400)" d="M463.559 136.303 L467.818 136.303 L467.818 162.229 L463.559 162.229 L463.559 136.303 M463.559 126.21 L467.818 126.21 L467.818 131.604 L463.559 131.604 L463.559 126.21 Z" fill="#000000" fill-rule="evenodd" fill-opacity="1" /><path clip-path="url(#clip400)" d="M498.281 146.581 L498.281 162.229 L494.022 162.229 L494.022 146.719 Q494.022 143.039 492.587 141.21 Q491.151 139.382 488.281 139.382 Q484.832 139.382 482.841 141.581 Q480.851 143.78 480.851 147.576 L480.851 162.229 L476.568 162.229 L476.568 136.303 L480.851 136.303 L480.851 140.331 Q482.378 137.993 484.438 136.835 Q486.522 135.678 489.23 135.678 Q493.698 135.678 495.989 138.456 Q498.281 141.21 498.281 146.581 Z" fill="#000000" fill-rule="evenodd" fill-opacity="1" /><path clip-path="url(#clip400)" d="M506.776 136.303 L511.036 136.303 L511.036 162.229 L506.776 162.229 L506.776 136.303 M506.776 126.21 L511.036 126.21 L511.036 131.604 L506.776 131.604 L506.776 126.21 Z" fill="#000000" fill-rule="evenodd" fill-opacity="1" /><path clip-path="url(#clip400)" d="M553.674 137.298 L553.674 141.28 Q551.869 140.284 550.04 139.798 Q548.234 139.289 546.383 139.289 Q542.239 139.289 539.947 141.928 Q537.656 144.544 537.656 149.289 Q537.656 154.034 539.947 156.673 Q542.239 159.289 546.383 159.289 Q548.234 159.289 550.04 158.803 Q551.869 158.293 553.674 157.298 L553.674 161.233 Q551.892 162.067 549.971 162.483 Q548.072 162.9 545.92 162.9 Q540.063 162.9 536.614 159.219 Q533.165 155.539 533.165 149.289 Q533.165 142.946 536.637 139.312 Q540.133 135.678 546.197 135.678 Q548.165 135.678 550.04 136.095 Q551.915 136.488 553.674 137.298 Z" fill="#000000" fill-rule="evenodd" fill-opacity="1" /><path clip-path="url(#clip400)" d="M571.128 139.289 Q567.702 139.289 565.711 141.974 Q563.72 144.636 563.72 149.289 Q563.72 153.942 565.688 156.627 Q567.679 159.289 571.128 159.289 Q574.531 159.289 576.521 156.604 Q578.512 153.918 578.512 149.289 Q578.512 144.682 576.521 141.997 Q574.531 139.289 571.128 139.289 M571.128 135.678 Q576.683 135.678 579.855 139.289 Q583.026 142.9 583.026 149.289 Q583.026 155.655 579.855 159.289 Q576.683 162.9 571.128 162.9 Q565.549 162.9 562.378 159.289 Q559.23 155.655 559.23 149.289 Q559.23 142.9 562.378 139.289 Q565.549 135.678 571.128 135.678 Z" fill="#000000" fill-rule="evenodd" fill-opacity="1" /><path clip-path="url(#clip400)" d="M612.262 148.201 L612.262 150.284 L592.679 150.284 Q592.956 154.682 595.318 156.997 Q597.702 159.289 601.938 159.289 Q604.392 159.289 606.683 158.687 Q608.998 158.085 611.267 156.881 L611.267 160.909 Q608.975 161.881 606.567 162.391 Q604.16 162.9 601.683 162.9 Q595.48 162.9 591.845 159.289 Q588.234 155.678 588.234 149.52 Q588.234 143.155 591.66 139.428 Q595.109 135.678 600.942 135.678 Q606.174 135.678 609.206 139.057 Q612.262 142.414 612.262 148.201 M608.003 146.951 Q607.956 143.456 606.035 141.372 Q604.137 139.289 600.989 139.289 Q597.424 139.289 595.271 141.303 Q593.142 143.317 592.818 146.974 L608.003 146.951 Z" fill="#000000" fill-rule="evenodd" fill-opacity="1" /><path clip-path="url(#clip400)" d="M632.378 126.21 L632.378 129.752 L628.303 129.752 Q626.012 129.752 625.109 130.678 Q624.229 131.604 624.229 134.011 L624.229 136.303 L631.243 136.303 L631.243 139.613 L624.229 139.613 L624.229 162.229 L619.947 162.229 L619.947 139.613 L615.873 139.613 L615.873 136.303 L619.947 136.303 L619.947 134.497 Q619.947 130.169 621.961 128.201 Q623.975 126.21 628.35 126.21 L632.378 126.21 Z" fill="#000000" fill-rule="evenodd" fill-opacity="1" /><path clip-path="url(#clip400)" d="M649.067 126.21 L649.067 129.752 L644.993 129.752 Q642.702 129.752 641.799 130.678 Q640.919 131.604 640.919 134.011 L640.919 136.303 L647.933 136.303 L647.933 139.613 L640.919 139.613 L640.919 162.229 L636.637 162.229 L636.637 139.613 L632.563 139.613 L632.563 136.303 L636.637 136.303 L636.637 134.497 Q636.637 130.169 638.651 128.201 Q640.664 126.21 645.039 126.21 L649.067 126.21 Z" fill="#000000" fill-rule="evenodd" fill-opacity="1" /><path clip-path="url(#clip400)" d="M652.632 136.303 L656.891 136.303 L656.891 162.229 L652.632 162.229 L652.632 136.303 M652.632 126.21 L656.891 126.21 L656.891 131.604 L652.632 131.604 L652.632 126.21 Z" fill="#000000" fill-rule="evenodd" fill-opacity="1" /><path clip-path="url(#clip400)" d="M684.461 137.298 L684.461 141.28 Q682.655 140.284 680.826 139.798 Q679.021 139.289 677.169 139.289 Q673.025 139.289 670.734 141.928 Q668.442 144.544 668.442 149.289 Q668.442 154.034 670.734 156.673 Q673.025 159.289 677.169 159.289 Q679.021 159.289 680.826 158.803 Q682.655 158.293 684.461 157.298 L684.461 161.233 Q682.678 162.067 680.757 162.483 Q678.859 162.9 676.706 162.9 Q670.85 162.9 667.4 159.219 Q663.951 155.539 663.951 149.289 Q663.951 142.946 667.424 139.312 Q670.919 135.678 676.984 135.678 Q678.951 135.678 680.826 136.095 Q682.701 136.488 684.461 137.298 Z" fill="#000000" fill-rule="evenodd" fill-opacity="1" /><path clip-path="url(#clip400)" d="M691.868 136.303 L696.127 136.303 L696.127 162.229 L691.868 162.229 L691.868 136.303 M691.868 126.21 L696.127 126.21 L696.127 131.604 L691.868 131.604 L691.868 126.21 Z" fill="#000000" fill-rule="evenodd" fill-opacity="1" /><path clip-path="url(#clip400)" d="M727.215 148.201 L727.215 150.284 L707.632 150.284 Q707.91 154.682 710.271 156.997 Q712.655 159.289 716.891 159.289 Q719.345 159.289 721.636 158.687 Q723.951 158.085 726.22 156.881 L726.22 160.909 Q723.928 161.881 721.521 162.391 Q719.113 162.9 716.636 162.9 Q710.433 162.9 706.798 159.289 Q703.187 155.678 703.187 149.52 Q703.187 143.155 706.613 139.428 Q710.062 135.678 715.896 135.678 Q721.127 135.678 724.159 139.057 Q727.215 142.414 727.215 148.201 M722.956 146.951 Q722.909 143.456 720.988 141.372 Q719.09 139.289 715.942 139.289 Q712.377 139.289 710.224 141.303 Q708.095 143.317 707.771 146.974 L722.956 146.951 Z" fill="#000000" fill-rule="evenodd" fill-opacity="1" /><path clip-path="url(#clip400)" d="M755.756 146.581 L755.756 162.229 L751.497 162.229 L751.497 146.719 Q751.497 143.039 750.062 141.21 Q748.627 139.382 745.757 139.382 Q742.307 139.382 740.317 141.581 Q738.326 143.78 738.326 147.576 L738.326 162.229 L734.044 162.229 L734.044 136.303 L738.326 136.303 L738.326 140.331 Q739.854 137.993 741.914 136.835 Q743.997 135.678 746.706 135.678 Q751.173 135.678 753.465 138.456 Q755.756 141.21 755.756 146.581 Z" fill="#000000" fill-rule="evenodd" fill-opacity="1" /><path clip-path="url(#clip400)" d="M768.465 128.942 L768.465 136.303 L777.238 136.303 L777.238 139.613 L768.465 139.613 L768.465 153.687 Q768.465 156.858 769.321 157.761 Q770.201 158.664 772.863 158.664 L777.238 158.664 L777.238 162.229 L772.863 162.229 Q767.932 162.229 766.057 160.4 Q764.182 158.548 764.182 153.687 L764.182 139.613 L761.057 139.613 L761.057 136.303 L764.182 136.303 L764.182 128.942 L768.465 128.942 Z" fill="#000000" fill-rule="evenodd" fill-opacity="1" /></svg>
